<svg xmlns="http://www.w3.org/2000/svg" xml:space="preserve" width="237.074" height="139.394" viewBox="0 0 62.726 36.881"><g transform="translate(-73.819 -130.175)"><path d="M101.101 161.327h8.318c.29 0 .508.218.508.508v3.923c0 .29-.218.508-.508.508H101.1a.497.497 0 0 1-.508-.508v-3.923c.036-.29.254-.508.508-.508" class="st0" style="fill:none;stroke:#1a1a1a;stroke-width:1.57994;stroke-linecap:round;stroke-linejoin:round;stroke-miterlimit:11.3386;stroke-opacity:1"/><path d="M83.36 162.858h3.304c.508 0 .889.382.889.89v1.143c0 .508-.381.89-.89.89H83.36a.87.87 0 0 1-.889-.89v-1.143c0-.508.381-.89.89-.89" class="st5" style="fill:#83167a;fill-opacity:1;stroke:#1a1a1a;stroke-width:1.36243;stroke-linecap:round;stroke-linejoin:round;stroke-miterlimit:11.3386;stroke-dasharray:none;stroke-opacity:1"/><path d="M124.966 162.859h3.303c.509 0 .89.38.89.889v1.143c0 .508-.381.89-.89.89h-3.303a.87.87 0 0 1-.889-.89v-1.143c0-.508.381-.89.89-.89" class="st5" style="fill:#83167a;fill-opacity:1;stroke:#1a1a1a;stroke-width:1.36235;stroke-linecap:round;stroke-linejoin:round;stroke-miterlimit:11.3386;stroke-dasharray:none;stroke-opacity:1"/><rect width="60.618" height="32.367" x="74.873" y="131.229" rx="1.331" ry="1.331" style="fill:#83167a;fill-opacity:1;stroke:#0d0d0d;stroke-width:2.10792;stroke-linejoin:round;stroke-dasharray:none;stroke-opacity:1;stop-color:#000"/><rect width="56.388" height="28.532" x="77.017" y="133.259" rx=".24" ry=".24" style="fill:#1a1a1a;fill-opacity:1;stroke:none;stroke-width:1.90879;stroke-linejoin:round;stroke-dasharray:none;stroke-opacity:1;stop-color:#000"/><circle cx="105.193" cy="147.575" r="9.848" style="fill:#0f0f0f;fill-opacity:1;fill-rule:evenodd;stroke:#83167a;stroke-width:.834395;stroke-linecap:round;stroke-dasharray:none;stroke-opacity:1;paint-order:normal;stop-color:#000"/><path d="M83.727 133.259h2.688v28.532h-2.688z" style="fill:#0d0d0d;fill-opacity:1;fill-rule:evenodd;stroke:none;stroke-width:.708223;stroke-linecap:round;stroke-dasharray:none;stroke-opacity:1;paint-order:stroke fill markers;stop-color:#000"/><path d="M84.766 133.146h.606v28.886h-.606z" style="fill:#83167a;fill-opacity:1;fill-rule:evenodd;stroke:#83167a;stroke-width:.338378;stroke-linecap:round;stroke-dasharray:none;stroke-opacity:1;paint-order:stroke fill markers;stop-color:#000"/><path d="M125.214 133.259h2.688v28.532h-2.688z" style="fill:#0d0d0d;fill-opacity:1;fill-rule:evenodd;stroke:none;stroke-width:.708223;stroke-linecap:round;stroke-dasharray:none;stroke-opacity:1;paint-order:stroke fill markers;stop-color:#000"/><path d="M126.253 133.146h.606v28.886h-.606z" style="fill:#83167a;fill-opacity:1;fill-rule:evenodd;stroke:#83167a;stroke-width:.338378;stroke-linecap:round;stroke-dasharray:none;stroke-opacity:1;paint-order:stroke fill markers;stop-color:#000"/><rect width="3.952" height="5.028" x="119.705" y="155.761" rx="1.331" ry="1.331" style="fill:#0d0d0d;fill-opacity:1;fill-rule:evenodd;stroke:none;stroke-width:.810663;stroke-linecap:round;stroke-dasharray:none;stroke-opacity:1;paint-order:stroke fill markers;stop-color:#000"/><path d="m121.31 157.903-.454 1.696h1.632l-.463-1.728z" style="fill:#050505;fill-opacity:1;fill-rule:evenodd;stroke:#83167a;stroke-width:.66117;stroke-linecap:round;stroke-dasharray:none;stroke-opacity:1;paint-order:stroke fill markers;stop-color:#000"/><circle cx="121.673" cy="157.749" r=".828" style="fill:#050505;fill-opacity:1;fill-rule:evenodd;stroke:#83167a;stroke-width:.66117;stroke-linecap:round;stroke-dasharray:none;stroke-opacity:1;paint-order:stroke fill markers;stop-color:#000"/><path d="m121.31 157.903-.454 1.696h1.632l-.463-1.728z" style="fill:#050505;fill-opacity:1;fill-rule:evenodd;stroke:none;stroke-width:.66117;stroke-linecap:round;stroke-dasharray:none;stroke-opacity:1;paint-order:stroke fill markers;stop-color:#000"/><rect width="3.952" height="5.028" x="87.853" y="155.761" rx="1.331" ry="1.331" style="fill:#0d0d0d;fill-opacity:1;fill-rule:evenodd;stroke:none;stroke-width:.810663;stroke-linecap:round;stroke-dasharray:none;stroke-opacity:1;paint-order:stroke fill markers;stop-color:#000"/><path d="m89.459 157.903-.455 1.696h1.632l-.463-1.728z" style="fill:#050505;fill-opacity:1;fill-rule:evenodd;stroke:#83167a;stroke-width:.66117;stroke-linecap:round;stroke-dasharray:none;stroke-opacity:1;paint-order:stroke fill markers;stop-color:#000"/><circle cx="89.821" cy="157.749" r=".828" style="fill:#050505;fill-opacity:1;fill-rule:evenodd;stroke:#83167a;stroke-width:.66117;stroke-linecap:round;stroke-dasharray:none;stroke-opacity:1;paint-order:stroke fill markers;stop-color:#000"/><path d="m89.459 157.903-.455 1.696h1.632l-.463-1.728z" style="fill:#050505;fill-opacity:1;fill-rule:evenodd;stroke:none;stroke-width:.66117;stroke-linecap:round;stroke-dasharray:none;stroke-opacity:1;paint-order:stroke fill markers;stop-color:#000"/><path d="m97.974 183.538.056.222s.045.162.21.138c.165-.025.291-.047.291-.047s.184-.031.215.138c.03.17.035.313.035.313s.08.481.134.637c.053.157.193.543.193.543.035.133.198.226.331.16l.948-.647c.143-.107-.026-.258-.132-.172-.025-.182-.348-1.033-.274-1.13.04-.028-.157-.245-.183-.446-.035-.128.013-.224.148-.302l.894-.491c.175-.096.157-.235.157-.235l-.097-.367z" style="display:inline;fill:#83167a;fill-opacity:1;stroke:none;stroke-width:.079375;stroke-linejoin:round;stroke-miterlimit:29;stroke-dasharray:none;stroke-opacity:1" transform="matrix(2.04094 0 0 2.04094 -100.631 -223.808)"/><g style="fill:#83167a;fill-opacity:1;stroke:none;stroke-width:.387927;stroke-dasharray:none"><path d="M9.91 18.19c.911.338 2.653.39 2.8.378l3.11-.364c1.751.054 1.967-1.696 1.967-1.696s.296-2.303.377-2.694c.08-.39-.323.068-.498.391s-1.061.344-1.061.344c-.156.762-.148 2.152-.933 2.34 0 0-2.145.362-3.68.34-.46-.007-1.374-.305-1.374-.305l-.37-.1-.1.372s-.23.979-.238.995" style="display:inline;fill:#83167a;fill-opacity:1;stroke:none;stroke-width:.387927;stroke-linecap:round;stroke-linejoin:round;stroke-miterlimit:29;stroke-dasharray:none;stroke-opacity:1" transform="rotate(-29.999 321.86 -105.805)scale(.4176)"/><path d="m11.475 14.3.088 1.061s.197.976 1.625 1.359c0 0 .684-.134.543-.698l-.933-.647s-.385-.518-.11-.966c0 0-.59-.246-1.213-.109" style="fill:#83167a;fill-opacity:1;stroke:none;stroke-width:.387927;stroke-linecap:round;stroke-linejoin:round;stroke-miterlimit:29;stroke-dasharray:none;stroke-opacity:1" transform="rotate(-29.999 321.86 -105.805)scale(.4176)"/></g><path d="M23.649 25.497v6.3h-8.753v.354h-2.913v-6.654a1.913 1.913 135 0 1 1.913-1.913h7.84a1.913 1.913 45 0 1 1.913 1.913" style="fill:#83167a;fill-opacity:1;stroke:none;stroke-width:.79375;stroke-linecap:round;stroke-linejoin:round;stroke-miterlimit:29;stroke-dasharray:none;stroke-opacity:1" transform="matrix(.36165 -.2088 .19433 .3366 90.88 139.6)"/><path d="m101.04 182.12.14.322.15.024 1.692-.977.04-.146-.669-1.158-2.794 1.613.318.55 1.029-.594zM99.569 181.895l-.584.337-.037-.065-.7.415.361.625 1.292-.746z" style="fill:#83167a;fill-opacity:1;stroke:none;stroke-width:.079375;stroke-linecap:round;stroke-linejoin:round;stroke-miterlimit:29;stroke-dasharray:none;stroke-opacity:1" transform="matrix(2.04094 0 0 2.04094 -100.631 -223.808)"/><g style="fill:#83167a;fill-opacity:1;stroke:none"><path fill="gray" d="M.194 6.372c0-.026-.027-.047-.06-.047s-.06.021-.06.047v.367c0 .026.027.047.06.047s.06-.021.06-.047z" style="fill:#83167a;fill-opacity:1;stroke:none" transform="rotate(-30 304.577 -101.049)scale(2.04094)"/><path d="M.315 6.499H.033v.107h.285" style="fill:#83167a;fill-opacity:1;stroke:none" transform="rotate(-30 304.577 -101.049)scale(2.04094)"/><path fill="#4d4d4d" d="M.398 6.096H.25v.908h.148" style="fill:#83167a;fill-opacity:1;stroke:none" transform="rotate(-30 304.577 -101.049)scale(2.04094)"/><path d="M.172 5.098h1.11s.172.011.172.206h.531v.414h-.53c0 .174-.172.187-.172.187H.172Z" style="fill:#83167a;fill-opacity:1;stroke:none;stroke-width:.162412;stroke-linecap:round;stroke-linejoin:round;stroke-miterlimit:29;stroke-dasharray:none;stroke-opacity:1" transform="rotate(-30 304.577 -101.049)scale(2.04094)"/><path d="M.388 6.977v-2h.226V7h-.23Z" style="fill:#83167a;fill-opacity:1;stroke:none;stroke-width:.162412;stroke-linecap:round;stroke-linejoin:round;stroke-miterlimit:29;stroke-dasharray:none;stroke-opacity:1" transform="rotate(-30 304.577 -101.049)scale(2.04094)"/><path d="M1.088 6.3H.61v.702h.478Z" style="fill:#83167a;fill-opacity:1;stroke:none;stroke-width:.079375;stroke-linecap:round;stroke-linejoin:round;stroke-miterlimit:29;stroke-dasharray:none;stroke-opacity:1" transform="rotate(-30 304.577 -101.049)scale(2.04094)"/></g><g style="fill:#83167a;fill-opacity:1"><g style="fill:#83167a;fill-opacity:1;stroke:none"><path d="m31.602 26.383-.952 1.46h-6.987v3.854h6.998l.99-.039z" style="fill:#83167a;fill-opacity:1;stroke:none;stroke-width:.79375;stroke-linecap:round;stroke-linejoin:round;stroke-miterlimit:29;stroke-dasharray:none;stroke-opacity:1" transform="rotate(-29.999 304.22 -99.642)scale(.4176)"/><path d="M23.682 29.016H28.3l4.863 5.254v-1.171l1.806.008 1.806.008 1.805.008 1.806.008-2.32-2.586h-.612s-.304.748-1.197.748c-.894 0-1.198-.748-1.198-.748h-1.782l-4.343-4.343h-5.286z" style="fill:#83167a;fill-opacity:1;stroke:none;stroke-width:.79375;stroke-linecap:round;stroke-linejoin:round;stroke-miterlimit:29;stroke-dasharray:none;stroke-opacity:1" transform="rotate(-29.999 304.22 -99.642)scale(.4176)"/></g><path d="M5.853 6.706h.229v.104h-.229Z" style="fill:#83167a;fill-opacity:1;stroke:none;stroke-width:.0812058;stroke-linecap:round;stroke-linejoin:round;stroke-miterlimit:29;stroke-dasharray:none;stroke-opacity:1" transform="rotate(-30 304.752 -101.39)scale(2.04094)"/><path d="M6.063 6.702V5.153h.546v1.794h-.546Z" style="fill:#83167a;fill-opacity:1;stroke:none;stroke-width:.162412;stroke-linecap:round;stroke-linejoin:round;stroke-miterlimit:29;stroke-dasharray:none;stroke-opacity:1" transform="rotate(-30 304.752 -101.39)scale(2.04094)"/></g></g></svg>