<svg xmlns="http://www.w3.org/2000/svg" width="165.061" height="164.919" viewBox="0 0 43.672 43.635"><g style="opacity:.925088"><path d="M104.5.3c8.9 2.4 4.1 13.9 13.6 19.3s17.9-4.2 24.5 2.4-3.5 14.4 2 24 17.5 5.3 20 14.4-10 11-10 22 12.5 13.1 10 22.1c-2.5 9.1-14.5 4.5-20 14.1s4.6 17.6-2 24.3c-6.6 6.6-15-3.1-24.5 2.3s-4.7 17.1-13.6 19.4c-8.9 2.4-11.1-10-22.1-10s-13 12.3-22 10c-9-2.4-4.4-14-14-19.4s-17.7 4.4-24.3-2.3c-6.6-6.6 3.5-14.7-2-24.3S2.7 113.8.2 104.5s10-12 10-23-12.3-12.1-9.9-21c2.5-8.9 14.4-4.8 19.9-14.4s-4.8-17.4 2-24c6.7-6.6 15.5 3 25-2.4 9.6-5.5 4.4-17 13.3-19.4 8.8-2.4 11 9.9 22 9.9S95.6-2 104.5.3m-6.6 24.9c-6.3-1.6-7.7 7-15.5 7s-9.2-8.6-15.4-7-2.6 9.7-9.3 13.5-12.8-2.9-17.5 1.7 2.4 10.1-1.4 16.8-12.2 3.9-13.9 10.1 7 7.1 7 14.8-8.7 9.6-7 16.1 10.1 3.2 13.9 9.9-3.2 12.3 1.4 17c4.6 4.6 10.3-2.2 17 1.6s3.5 11.9 9.8 13.6 7.7-7 15.4-7 9.2 8.6 15.5 7c6.3-1.7 2.9-9.8 9.5-13.6 6.7-3.8 12.5 3 17.1-1.6s-2.4-10.3 1.4-17c3.9-6.7 12.2-3.5 14-9.9 1.7-6.3-7-7.8-7-15.5s8.8-9 7-15.4c-1.7-6.4-10.1-3.4-14-10.1s3.2-12.2-1.4-16.8-10.5 2.1-17.1-1.7c-6.7-3.8-3.3-11.9-9.5-13.5" class="st2" style="fill:#5c375e" transform="matrix(.26458 0 0 .26458 .035 .003)" vector-effect="non-scaling-stroke"/><path d="M116.7 9.2c-8-3.7-12 7.5-22.3 5.7S84.1 1.2 75.5 2c-8.6.7-5.8 12.4-15.6 15.9C50 21.4 43.5 11 36.1 16c-7.4 5.1.9 14-5.8 22.1s-17.2 2.3-21 10.2 7.7 11.1 5.8 21.4C13.3 80 1.2 80.5 2 89.6s12.7 6.6 16.3 16.5c3.5 9.9-7.2 15.7-2.2 23 5.1 7.3 14.3-.5 22.4 6.1 8.1 6.7 1.9 16.8 9.9 20.5s11.9-7.5 22.2-5.7 10.3 13.7 19 13 6.1-12.4 16-15.9c9.8-3.5 16 7 23.3 1.9s-.8-14.3 5.9-22.4 17.2-1.8 21-9.9-7.6-12-5.7-22.4c1.8-10.3 13.8-10 13-18.9s-12.7-6.9-16.3-16.8 7.2-15.5 2-22.8c-5.1-7.3-14.5.4-22.5-6.3s-1.6-16.7-9.6-20.4z" class="st4" style="fill:#5e1f60" transform="matrix(.26458 0 0 .26458 .035 .003)" vector-effect="non-scaling-stroke"/><path d="M126.5 19.8c-6.8-4.7-12.4 5-21.7 1.6S97.4 6.9 89.3 6.2c-8.2-.7-7.4 10.6-17.2 12.3s-14.2-9.2-21.9-5.7-1.5 13.2-9 19.7c-7.6 6.4-16.4-.7-21.2 6.1s5.3 11.6 1.9 20.9S7.2 67.3 6.4 75.9s10.8 8.3 12.5 18c1.7 9.8-9.3 13.5-5.8 21.1s13.4 1.9 19.9 9.4c6.4 7.5-1 16 5.8 20.7 6.9 4.8 12.4-5.1 21.7-1.7s7.3 14.5 15.6 15.2 7.8-10.6 17.5-12.2c9.7-1.7 13.8 9.2 21.4 5.6 7.7-3.6 1.6-13.5 9.2-19.9s16.3 1.1 21.2-5.8-5.1-12.5-1.7-21.8 14.6-7 15.3-15.5-10.7-8.5-12.4-18.4c-1.7-9.8 9.2-13.3 5.7-20.9-3.6-7.6-13.6-2-20-9.6-6.4-7.5 1.3-15.8-5.6-20.6z" class="st4" style="fill:#5e1f60" transform="matrix(.26458 0 0 .26458 .035 .003)" vector-effect="non-scaling-stroke"/><path d="M101.2 12.6c-7.6-2-9.4 8.4-18.8 8.4s-11.2-10.4-18.7-8.4S60.6 24.4 52.4 29c-8.1 4.6-15.5-3.6-21.3 2-5.7 5.6 3 12.2-1.7 20.4-4.6 8.2-14.8 4.7-16.9 12.3s8.5 8.6 8.5 18-10.6 11.7-8.5 19.6 12.2 3.8 16.9 12c4.6 8.2-3.9 15 1.7 20.6s12.5-2.7 20.7 1.9c8.1 4.6 4.2 14.5 11.9 16.5 7.6 2 9.3-8.5 18.7-8.5s11.2 10.5 18.8 8.5 3.5-11.9 11.6-16.5 15.2 3.7 20.8-1.9-2.9-12.5 1.7-20.6c4.7-8.2 14.9-4.3 17-12s-8.5-9.4-8.5-18.8 10.6-11 8.5-18.7-12.3-4.1-17-12.3 3.9-14.8-1.7-20.4-12.7 2.6-20.8-2-4-14.4-11.6-16.4z" class="st3" style="fill:#6d226d" transform="matrix(.26458 0 0 .26458 .035 .003)" vector-effect="non-scaling-stroke"/><path d="M111.3 20.8c-6.7-3.1-10.1 6.3-18.8 4.8s-8.7-11.5-16-10.9-4.8 10.4-13.1 13.4-13.8-5.8-20.1-1.6c-6.2 4.3.8 11.8-4.9 18.6-5.6 6.8-14.5 2-17.7 8.6-3.2 6.7 6.4 9.3 4.9 18s-11.7 9.1-11 16.7c.7 7.7 10.7 5.6 13.7 13.9s-6.1 13.2-1.8 19.4c4.3 6.1 12.1-.4 18.8 5.2 6.8 5.6 1.6 14.1 8.3 17.3 6.8 3.1 10-6.3 18.7-4.8s8.7 11.5 16 10.9c7.4-.6 5.2-10.5 13.4-13.4 8.3-3 13.5 5.9 19.6 1.6s-.7-12 5-18.8 14.5-1.5 17.7-8.3-6.4-10.1-4.8-18.8c1.5-8.7 11.7-8.4 11-15.9s-10.7-5.8-13.7-14.2c-3-8.3 6-13.1 1.7-19.2s-12.2.3-19-5.3-1.3-14-8.1-17.1z" class="st3" style="fill:#6d226d" transform="matrix(.26458 0 0 .26458 .035 .003)" vector-effect="non-scaling-stroke"/><path d="M119.1 30.2c-5.7-3.9-10.3 4.2-18.1 1.3s-6.1-12-13-12.6c-6.8-.6-6.2 8.9-14.3 10.2-8.1 1.4-11.8-7.6-18.3-4.7-6.4 2.9-1.2 11-7.5 16.4s-13.7-.5-17.7 5.1 4.4 9.7 1.6 17.4C29 71.1 19.5 69.8 18.9 77s9 6.9 10.4 15c1.4 8.2-7.8 11.2-4.8 17.6 2.9 6.4 11.2 1.6 16.6 7.8 5.4 6.3-.9 13.3 4.9 17.3 5.7 4 10.3-4.2 18.1-1.4s6.1 12.1 13 12.7 6.5-8.8 14.6-10.2 11.5 7.6 17.8 4.7c6.4-3 1.3-11.2 7.7-16.6s13.6.9 17.7-4.8c4.1-5.8-4.2-10.4-1.4-18.2S145.6 95 146.2 88c.6-7.1-8.9-7.1-10.4-15.3s7.7-11.1 4.7-17.4c-3-6.4-11.3-1.7-16.6-8s1-13.2-4.6-17.1z" class="st5" style="fill:#7a3277" transform="matrix(.26458 0 0 .26458 .035 .003)" vector-effect="non-scaling-stroke"/><path d="M102.3 40.1c-4.6-2.1-6.9 4.3-12.9 3.3-6-1.1-6-7.9-11-7.5s-3.3 7.2-9 9.2-9.5-4-13.8-1.1.5 8.1-3.4 12.8-9.9 1.3-12.1 5.9 4.4 6.4 3.4 12.4-8 6.2-7.6 11.5c.5 5.3 7.4 3.8 9.4 9.5s-4.2 9.1-1.3 13.3 8.3-.3 13 3.6 1.1 9.7 5.7 11.9c4.6 2.1 6.9-4.4 12.9-3.3s5.9 7.9 11 7.5 3.6-7.2 9.2-9.2 9.3 4.1 13.5 1.1-.5-8.3 3.4-12.9 9.9-1.1 12.2-5.7c2.2-4.7-4.4-7-3.3-13s8-5.8 7.5-11-7.4-4-9.4-9.7c-2.1-5.7 4.1-9 1.2-13.2s-8.4.2-13-3.6c-4.6-3.9-.9-9.7-5.5-11.8z" class="st0" style="fill:#893885" transform="matrix(.26458 0 0 .26458 .035 .003)" vector-effect="non-scaling-stroke"/><path d="M106.9 47.7c-3.8-2.6-6.9 2.8-12.1.9s-4.1-8-8.6-8.4-4.1 5.9-9.5 6.8-7.9-5.1-12.2-3.2-.8 7.4-5 10.9-9.1-.4-11.8 3.4 3 6.4 1.1 11.6-8.2 4.3-8.6 9.1 6 4.6 6.9 10-5.2 7.5-3.2 11.7 7.5 1 11 5.2c3.6 4.2-.6 8.9 3.2 11.5 3.8 2.7 6.9-2.8 12-.9 5.2 1.9 4.1 8 8.7 8.5 4.6.4 4.3-5.9 9.7-6.8s7.6 5.1 11.9 3.1.9-7.5 5.1-11c4.2-3.6 9.1.6 11.8-3.2s-2.8-6.9-.9-12.1 8.1-3.9 8.5-8.6-6-4.7-6.9-10.2 5.1-7.4 3.1-11.6-7.5-1.1-11.1-5.3.7-8.8-3.1-11.4" class="st0" style="fill:#893885" transform="matrix(.26458 0 0 .26458 .035 .003)" vector-effect="non-scaling-stroke"/><path d="M91.3 49.6c-3.6-.9-4.4 4-8.8 4s-5.3-4.9-8.8-4-1.5 5.6-5.3 7.7c-3.8 2.2-7.3-1.7-10 1-2.7 2.6 1.4 5.8-.8 9.6s-7 2.2-7.9 5.8c-1 3.6 4 4 4 8.5s-5 5.5-4 9.2 5.8 1.8 7.9 5.6c2.2 3.8-1.8 7 .8 9.7s5.9-1.3 9.7.9 2 6.8 5.6 7.8c3.6.9 4.4-4 8.8-4s5.3 4.9 8.8 4c3.6-.9 1.6-5.6 5.5-7.8s7.1 1.7 9.8-.9c2.7-2.7-1.4-5.9.8-9.7s7-2 8-5.6-4-4.4-4-8.9 5-5.2 4-8.8-5.8-1.9-8-5.8c-2.2-3.8 1.8-7-.8-9.6-2.7-2.6-6 1.2-9.8-1s-1.9-6.8-5.5-7.7" class="st1" style="fill:#9b3e8e" transform="matrix(.26458 0 0 .26458 .035 .003)" vector-effect="non-scaling-stroke"/></g></svg>