<svg xmlns="http://www.w3.org/2000/svg" width="381.927" height="381.9" viewBox="0 0 101.051 101.044"><g transform="matrix(.26458 0 0 .26458 .013 .013)"><path d="M4.3 376.1V5.7c0-.8 1.8-1.4 4.1-1.4h365c2.3 0 4.1.6 4.1 1.4v370.4c0 .8-1.8 1.4-4.1 1.4H8.4c-2.3 0-4.1-.6-4.1-1.4" class="st15" style="fill:#404040"/><path d="M152.1 2.5c-11.3 1-22.1 2.7-33.4 2.7s-14.2-2.7-22.3-2.7c-12.7 0-74.6 1.4-29.7 23.9 6.2 3.1 13.5-8.4 19.6-5.3s6.6 12.6 13.8 11.7c8.3-1 10-7.4 16.4-10.6 10.9-5.5 31.3 14.4 35.5-19.6zM61.5 374.6c-12.1-6.5-41.6 12.5-52 2.1-3.8-3.8-3.2-107.9-3.2-118.8s-2.8-24.2 0-27c3.4-3.4 20 8.9 21.7 10.6.9.9-9.7 7.2-9 8.5 1.3 2.7 9.1 6.8 11.7 8.5 1.8 1.2-12.3 7.4-9 10.6 7.1 7.1 23.6-4.3 19.6 13.8-1.2 5.5-23.3 26-21.2 30.2.8 1.7 13.4.8 16.4 6.9 2.3 4.7-18.5 19.4-3.2 27 3.3 1.6 14.7-6 19.1-1.6 1.7 1.7-1.7 8.4 0 10.1 1.1 1.1 5.4 1.2 7.9 3.7 1.8 1.8-1.6 20.1 0 20.1s.9-4.2 1.1-4.8zm316-84.3c6.8 98.4 18.1 90.5-75.8 84.3-7-.5-36.3 4.5-40.8 0-12.2-12.2 14.8-15.3 15.9-15.9 3.8-1.9.7-15.2 3.7-12.2 6.3 6.3 5 9.5 15.9 9.5s2-9.3 2.7-9c3.4 1.7 6.1 12.5 12.2 8.5 6.1-4.1 2-13.7 5.8-17.5 6.8-6.8 12.9 29.5 18.6 3.2.7-3.5.2-17.2 2.6-19.6 2.6-2.6 11.1 10.2 13.3 6.9 12.4-18.5 1.3-31.1 26-38.2z" class="st14" style="fill:#36143a"/><path d="M51.9 163.7c37.9-72.9-2.3-30.9 69.2-56.9s70.2 23.1 111.8 15.9 2.6 96.5 32.5 104.3 9.1 66.3-35.1 63.1c-44.2-3.3-58.5-57.2-93.6-41s-39.3 12-49.7-19.8c-10.4-31.9-54.3-28.7-35.1-65.7Z" class="st20" style="opacity:.4;isolation:isolate;fill:#333"/><path d="m113.7 372.8 10.5-17.6-10.1-24.8 22.5-27.4-18.8 28.5 13.1 24.4-10.1 18.8zm96.3-.6 7.8-11.8-14.1-24.6-23.1-23.5 26.4 20.4 17.3 27.6-5.8 16.7-8.6-4.8zM3.4 200.6v9.8l38.8 18 25-9.4 33.4 7.9 18.8-20.6 24.8 3-26.3-8.3-18.8 20.3-32.3-9.8-24.3 9.4z" class="st17" style="fill:#1a1a1a"/><path d="M4.3 376.1V5.7c0-.8 1.8-1.4 4.1-1.4h365c2.3 0 4.1.6 4.1 1.4v370.4c0 .8-1.8 1.4-4.1 1.4H8.4c-2.3 0-4.1-.6-4.1-1.4z" class="st2" style="fill:none;stroke:#1a1a1a;stroke-width:8.7px;stroke-linejoin:round"/><path d="m376.6 292.8-18.9-1.8-23.4-9.8 24.1 5.2 16.7-2.1 1.5 8.6z" class="st17" style="fill:#1a1a1a"/><path d="M293 271.8V114.2h65v157.7h-65z" class="st18" style="fill:#644630"/><path d="M356.8 247.6c-1.7-7.2 2.1-14.2 2.1-21s3.1-34.6-1.3-39c-.8-.8-5.8 0-6.7.5-2.9 1.5 3.2 4.3 2.6 4.9-1.5 1.5-6.2 1.9-7.2 3.8-1 2.1 7.5 7.1 5.4 12.3-1.6 4.1-11.6 1.6-14.1 6.7-4.2 8.3 9.2 12.7 11 16.4 1.3 2.7-5.3 7.3-6.7 8.7-3 3 9 10 14.9 6.7m-63.6-77.7c.5-9.1-5-48.6.5-54.1 2.2-2.2 13.9-2.1 17.2-2.1 4.8 0 12.2-1.3 14.6 3.6.9 1.8.1 5.6-1.5 6.4-2.1 1-4.3-3.1-5.1-1.8-1.2 1.8.3 8.4-1.3 9.2s-11-5.4-11.8-2.3c-1.5 6.1 3.3 11.1 2 17.2-.8 4-6.6 1.1-7.2 4.9-2.2 15.1 10.8 19-7.4 19M314 272.2c-28.3 1.3-21-6.8-21-32.8s1.3-11.7 1.2-11.7c-3.1 0 4.8 4.1 6 6.9.6 1.4-4.9 18.2 2.4 14.6 2.3-1.2 1.1-8.5 3.6-9.8 6.8-3.4 1.7 12 1.7 13.9s3.3 3 4.8 4.5c2 2-1.3 6.6-2.4 7.7-1.8 1.8 3.1 4.2 3.8 6.7z" class="st19" style="fill:#593f2b"/><path d="M293 271.8V114.2h65v157.7h-65z" class="st3" style="fill:none;stroke:#1e150e;stroke-width:6px;stroke-linecap:round;stroke-linejoin:round"/><path d="M307.7 258.2v5.3l-4.6 2.7-4.6-2.7v-5.3l4.6-2.7zM352.4 258.2v5.3l-4.6 2.7-4.6-2.7v-5.3l4.6-2.7zM307.7 122.5v5.3l-4.6 2.7-4.6-2.7v-5.3l4.6-2.7zM352.4 122.5v5.3l-4.6 2.7-4.6-2.7v-5.3l4.6-2.7z" class="st21" style="fill:#3f2c1e"/><path d="m63.9 216.2 9.4-15.7 2.4-18.6 2.8 18.6-6.9 17.1zm151.7-210h7.4L215.6 29l8.4 22.4-20 14.4 13.3-15.4-8.4-19.6 6.7-24.5Z" class="st17" style="fill:#1a1a1a"/><circle cx="159.5" cy="287.5" r="72.1" class="st13" style="fill:#606060" transform="rotate(-45 159.5 287.533)"/><circle cx="159.3" cy="287.7" r="72.1" class="st1" style="fill:none;stroke:#232323;stroke-width:8.7px;stroke-linecap:round;stroke-linejoin:round" transform="rotate(-45 159.28 287.724)"/><circle cx="238.1" cy="303.5" r="23.3" class="st13" style="fill:#606060"/><circle cx="237.9" cy="303.8" r="23.3" class="st1" style="fill:none;stroke:#232323;stroke-width:8.7px;stroke-linecap:round;stroke-linejoin:round"/><circle cx="184.9" cy="211.4" r="23.3" class="st13" style="fill:#606060" transform="rotate(-39.2 184.985 211.433)"/><circle cx="184.7" cy="211.6" r="23.3" class="st1" style="fill:none;stroke:#232323;stroke-width:8.7px;stroke-linecap:round;stroke-linejoin:round" transform="rotate(-39.2 184.744 211.664)"/><path d="M99.1 93.6c-1.7 6.4 2.1 13 8.5 14.7l151.7 40.6c6.4 1.7 13-2.1 14.7-8.5s-2.1-13-8.5-14.7L113.8 85.1c-6.4-1.7-13 2.1-14.7 8.5z" class="st0" style="fill:#4d4d4d;stroke:#232323;stroke-width:8.7px;stroke-linejoin:round"/><circle cx="224.6" cy="151" r="23.3" class="st13" style="fill:#606060"/><circle cx="224.3" cy="151.2" r="23.3" class="st1" style="fill:none;stroke:#232323;stroke-width:8.7px;stroke-linecap:round;stroke-linejoin:round"/><circle cx="93.6" cy="93.9" r="72.1" class="st13" style="fill:#606060"/><circle cx="93.3" cy="94.1" r="72.1" class="st1" style="fill:none;stroke:#232323;stroke-width:8.7px;stroke-linecap:round;stroke-linejoin:round"/><path d="M372.3 5.8 367.6 29l-18.4 11.4-7.1 23.4-20.8 8.9 17.1-11.4 6-23.2 16.7-12.2L364.7 1z" class="st17" style="fill:#1a1a1a"/><path d="M329.3 61.2c-6.4-17.4-9.2-15.1-5.3-30.8l7.6-1.4c5.1 15.3 2 14.6-2.3 32.2z" class="st5" style="fill:#512c47;stroke:#1e111c;stroke-width:5px;stroke-miterlimit:15.1"/><path d="m336.7 23.4-27.4 44.5-6.6-4 27.4-44.5c2.7-.3 5.1.6 6.6 4z" class="st6" style="fill:#844782;stroke:#1e111c;stroke-width:5px;stroke-miterlimit:15.1"/><path d="M290.2 55.2c18.4-2.5 17.6 1.1 29.7-9.8l-2.3-7.4c-15.9 2.7-13.9 5.1-27.3 17.1z" class="st5" style="fill:#512c47;stroke:#1e111c;stroke-width:5px;stroke-miterlimit:15.1"/><path d="M305.2 100.1c-.9 2.9-5.7 1.8-6.5-4.1-3 .3-8.2 1.4-7.2-5.8-4.9 2.3-6.8-1.9-6.6-5.1-6.8 2.6-13.7-1.4-10.4-4.3l18.7-17.4c8.3-8 23.1 4.7 19.4 13.4l-7.5 23.2z" class="st4" style="fill:#cc69c2;stroke:#220c23;stroke-width:5px;stroke-miterlimit:15.1"/><path d="M319 361.8c15.6-10 12.7-12.3 28.9-11.8l3 7.1c-13.9 8.3-13.8 5.1-31.9 4.7z" class="st11" style="fill:#512c47;stroke:#1e111c;stroke-width:5px;stroke-miterlimit:15.1"/><path d="m357.5 360.9-49.4-17.2 2.5-7.3 49.4 17.2c.8 2.6.5 5.1-2.5 7.3z" class="st12" style="fill:#844782;stroke:#1e111c;stroke-width:5px;stroke-miterlimit:15.1"/><path d="M316.5 322.3c6.4 17.4 2.7 17.5 15.9 26.9l6.7-3.9c-6-15-7.9-12.5-22.6-23z" class="st11" style="fill:#512c47;stroke:#1e111c;stroke-width:5px;stroke-miterlimit:15.1"/><path d="M275.8 346.6c-3.1-.3-3-5.2 2.6-7.2-1-2.8-3.1-7.7 4.1-8.3-3.3-4.3.4-7.1 3.6-7.5-4-6-1.6-13.7 1.9-11.1l21 14.5c9.6 6.4.4 23.6-8.9 21.9l-24.2-2.3z" class="st10" style="fill:#aa3aaa;stroke:#230f23;stroke-width:5px;stroke-miterlimit:15.1"/><path d="M316 341.9c18.5-.6 17.2-4.1 30.9 4.6l-1 7.6c-16.1 0-14.5-2.6-29.8-12.2z" class="st8" style="fill:#512c47;stroke:#1e111c;stroke-width:5px;stroke-miterlimit:15.1"/><path d="m349.6 360.7-33.8-39.9 5.9-5 33.8 39.9c-.6 2.7-2.1 4.7-5.9 5z" class="st9" style="fill:#844782;stroke:#1e111c;stroke-width:5px;stroke-miterlimit:15.1"/><path d="M334 306.6c-3.3 18.3-6.5 16.4 0 31.2h7.7c2.4-15.9-.5-14.7-7.7-31.2z" class="st8" style="fill:#512c47;stroke:#1e111c;stroke-width:5px;stroke-miterlimit:15.1"/><path d="M286.5 306.8c-2.5-1.8 0-6 5.9-4.9.6-2.9 1.2-8.2 7.8-5.1-.7-5.4 3.9-5.9 6.9-4.6-.4-7.2 5.6-12.6 7.3-8.5l10.7 23.2c5 10.4-11.7 20.5-18.8 14.3l-19.7-14.3z" class="st7" style="fill:#aa3a9f;stroke:#230f23;stroke-width:5px;stroke-miterlimit:15.1"/><path d="M318.2 203.9c.2.3.2.5.2.7s-.2.4-.5.6l-6 3.6v3.2h5.3c.6 0 1 .3 1 1 0 .6-.3 1-1 1h-13.7c-.6 0-1-.3-1-1v-5.4c0-1.4.4-2.5 1.1-3.2.7-.8 1.8-1.1 3.2-1.1h.7c1.2 0 2.2.3 2.9.9s1.2 1.4 1.4 2.5l5-3c.5-.3 1-.2 1.3.4zm-8.3 8.2v-4.4c0-.9-.2-1.5-.6-1.9s-1-.6-1.9-.6h-.7c-.9 0-1.5.2-1.9.6s-.6 1-.6 1.9v4.4h5.5zm8.2-13q0 .9-.9.9h-.6q-.9 0-.9-.9v-.6q0-.9.9-.9h.6q.9 0 .9.9zm0-6.7c0 .3 0 .6-.2.7-.2.2-.4.2-.7.2h-13.7c-.3 0-.6 0-.7-.2-.2-.2-.2-.4-.2-.7s0-.6.2-.7.4-.2.7-.2h13.7c.3 0 .6 0 .7.2.2.2.2.4.2.7m0-6.3q0 .9-.9.9h-.6q-.9 0-.9-.9v-.6q0-.9.9-.9h.6q.9 0 .9.9zm0-6.7c0 .6-.3 1-1 1h-13.7c-.6 0-1-.3-1-1V174c0-1.4.4-2.5 1.1-3.2.7-.8 1.8-1.1 3.2-1.1h.7c1.4 0 2.5.4 3.2 1.1s1.1 1.8 1.1 3.2v4.4h5.3c.6 0 1 .3 1 1zm-8.2-1V174c0-.9-.2-1.5-.6-1.9s-1-.6-1.9-.6h-.7c-.9 0-1.5.2-1.9.6s-.6 1-.6 1.9v4.4h5.5zM348.5 239.9v8.6c0 .7-.3 1-1 1-1 0-1.9-.2-2.6-.5s-1.3-.8-1.8-1.3-.9-1.1-1.3-1.6c-.4-.6-.7-1.1-1-1.6-.5-.9-.9-1.6-1.3-2.1-.4-.6-.7-1-1.1-1.3s-.8-.4-1.4-.4c-.9 0-1.5.2-1.8.5s-.5.9-.5 1.8v2.5c0 .7 0 1.3.3 1.6.2.3.6.6 1.1.7.3 0 .5.2.7.3.2.2.2.4.2.7s0 .6-.3.7c-.2.2-.4.2-.8.2-1.1-.2-1.9-.6-2.4-1.3s-.8-1.7-.8-2.9V243c0-1.4.4-2.5 1.1-3.2s1.8-1.1 3.2-1.1 1.7.2 2.3.7 1.2 1.1 1.6 1.8c.5.7.9 1.5 1.4 2.4.4.6.7 1.2 1.1 1.8.4.5.8 1 1.2 1.4.5.4 1.1.6 1.8.8V240c0-.6.3-1 1-1s1 .3 1 1zm0-9.6c0 1.8-.4 3.1-1.3 3.9-.8.8-2.2 1.3-3.9 1.3H338c-1.8 0-3.1-.4-3.9-1.3-.8-.8-1.2-2.2-1.2-3.9v-1.4c0-1.8.4-3.1 1.3-3.9.8-.8 2.1-1.3 3.9-1.3h5.3c1.8 0 3.1.4 3.9 1.3.8.8 1.3 2.1 1.3 3.9v1.4zm-2 0v-1.4c0-.8-.1-1.5-.3-1.9s-.5-.8-1-1-1.1-.3-1.9-.3H338c-.8 0-1.5.1-1.9.3-.5.2-.8.5-1 1s-.3 1.1-.3 1.9v1.4c0 .8 0 1.5.3 1.9.2.5.5.8 1 1s1.1.3 2 .3h5.3c.8 0 1.5 0 1.9-.3.5-.2.8-.5 1-1s.3-1.1.3-1.9zm-4.7-.5q0 .9-.9.9h-.6q-.9 0-.9-.9v-.6q0-.9.9-.9h.6q.9 0 .9.9zm6.7-13.6c0 .6-.3 1-1 1h-11.9l-.4-.5 2.4 2.5q.3.3.3.6c0 .2 0 .4-.3.6-.4.4-.9.4-1.3 0l-3-3.1c-.3-.3-.5-.7-.5-1.2 0-.6.3-.8 1-.8h13.7c.6 0 1 .3 1 1zm0-7.4c0 .7-.3 1-1 .9-1.2 0-2.2-.1-3-.2s-1.6-.3-2.2-.6-1.1-.6-1.6-1.1c-.5-.4-.9-1-1.4-1.6-.4-.5-.8-.8-1.2-1.2-.4-.3-.9-.6-1.5-.7-.6-.2-1.2-.3-1.9-.3v7.3c0 .6-.3 1-1 1s-1-.3-1-1V203c0-.6.3-1 1-1q1.65 0 3 .3c.9.2 1.6.5 2.3 1 .7.4 1.3 1 1.8 1.7.4.5.7.9 1.1 1.3.4.3.8.6 1.3.8s1.1.3 1.7.4c.7 0 1.5.1 2.5.2.7 0 1 .4 1 1zm-5.5-9.3c0 .2 0 .4-.2.6s-.4.2-.6.2-.4 0-.6-.2-.2-.4-.2-.6v-6.4c0-.2 0-.4.2-.6s.3-.2.6-.2.4 0 .6.2.2.3.2.6zm5.5-19.1v8.6c0 .7-.3 1-1 1-1 0-1.9-.2-2.6-.5s-1.3-.8-1.8-1.3-.9-1.1-1.3-1.6c-.4-.6-.7-1.1-1-1.6-.5-.9-.9-1.6-1.3-2.1-.4-.6-.7-1-1.1-1.3s-.8-.4-1.4-.4c-.9 0-1.5.2-1.8.5s-.5.9-.5 1.8v2.5c0 .7 0 1.3.3 1.6.2.3.6.6 1.1.7.3 0 .5.2.7.3.2.2.2.4.2.7s0 .6-.3.7c-.2.2-.4.2-.8.2-1.1-.2-1.9-.6-2.4-1.3s-.8-1.7-.8-2.9v-2.5c0-1.4.4-2.5 1.1-3.2s1.8-1.1 3.2-1.1 1.7.2 2.3.7 1.2 1.1 1.6 1.8c.5.7.9 1.5 1.4 2.4.4.6.7 1.2 1.1 1.8.4.5.8 1 1.2 1.4.5.4 1.1.6 1.8.8v-7.6c0-.6.3-1 1-1s1 .3 1 1zm0-9.6c0 1.8-.4 3.1-1.3 3.9-.8.8-2.2 1.3-3.9 1.3H338c-1.8 0-3.1-.4-3.9-1.3-.8-.8-1.2-2.2-1.2-3.9v-1.4c0-1.8.4-3.1 1.3-3.9.8-.8 2.1-1.3 3.9-1.3h5.3c1.8 0 3.1.4 3.9 1.3.8.8 1.3 2.1 1.3 3.9v1.4zm-2 0v-1.4c0-.8-.1-1.5-.3-1.9s-.5-.8-1-1-1.1-.3-1.9-.3H338c-.8 0-1.5.1-1.9.3-.5.2-.8.5-1 1s-.3 1.1-.3 1.9v1.4c0 .8 0 1.5.3 1.9.2.5.5.8 1 1s1.1.3 2 .3h5.3c.8 0 1.5 0 1.9-.3.5-.2.8-.5 1-1s.3-1.1.3-1.9zm-4.7-.4q0 .9-.9.9h-.6q-.9 0-.9-.9v-.6q0-.9.9-.9h.6q.9 0 .9.9zm6.7-19.1v8.6c0 .7-.3 1-1 1-1 0-1.9-.2-2.6-.5s-1.3-.8-1.8-1.3-.9-1.1-1.3-1.6c-.4-.6-.7-1.1-1-1.6-.5-.9-.9-1.6-1.3-2.1-.4-.6-.7-1-1.1-1.3s-.8-.4-1.4-.4c-.9 0-1.5.2-1.8.5s-.5.9-.5 1.8v2.5c0 .7 0 1.3.3 1.6s.6.6 1.1.7c.3 0 .5.2.7.3s.2.4.2.7 0 .6-.3.7c-.2.2-.4.2-.8.2-1.1-.2-1.9-.6-2.4-1.3s-.8-1.7-.8-2.9v-2.5c0-1.4.4-2.5 1.1-3.2s1.8-1.1 3.2-1.1 1.7.2 2.3.7 1.2 1.1 1.6 1.8c.5.7.9 1.5 1.4 2.4.4.6.7 1.2 1.1 1.8.4.5.8 1 1.2 1.4.5.4 1.1.6 1.8.8v-7.6c0-.6.3-1 1-1s1 .3 1 1zm0-7.8c0 1.3-.3 2.4-.8 3.1-.6.7-1.4 1.2-2.6 1.3-.3 0-.6 0-.8-.2s-.3-.4-.3-.7c0-.6.3-.9 1-1 .6-.1 1-.4 1.2-.7q.3-.6.3-1.8v-2.6c0-1-.2-1.7-.5-2-.4-.4-1-.5-2-.5s-1.6.2-2 .5c-.4.4-.5 1-.5 2v1.8c0 .6-.3 1-1 1s-1-.3-1-1V140c0-.5-.2-.8-.6-1q-.6-.3-1.8-.3c-.8 0-1.5.2-1.8.5s-.5.9-.5 1.8v2.2c0 .7 0 1.3.3 1.6.2.3.6.6 1.1.7.6 0 .9.4.9 1s0 .6-.3.7c-.2.2-.4.2-.8.2-1.1-.2-1.9-.6-2.4-1.3s-.8-1.7-.8-2.9V141c0-1.4.4-2.5 1.1-3.2s1.8-1.1 3.2-1.1q2.1 0 3 1.2.45-.75 1.5-1.2c.6-.3 1.4-.4 2.4-.4 1.5 0 2.7.4 3.4 1.1s1.1 1.9 1.1 3.4v2.6z" class="st16" style="fill:#221612"/><circle cx="157" cy="108.3" r="23.3" class="st13" style="fill:#606060"/><circle cx="156.7" cy="108.5" r="23.3" class="st1" style="fill:none;stroke:#232323;stroke-width:8.7px;stroke-linecap:round;stroke-linejoin:round" transform="rotate(-50.8 156.649 108.45)"/></g></svg>