<svg xmlns="http://www.w3.org/2000/svg" width="438.499" height="420.38" fill="none"><path d="m373.664 261.299-101.35-83.836s-14.373-25.925-24.215-42.161c-19.87-32.778-54.824-81.41-54.824-81.41l-67.54-9.853 52.145 26.836 27.823 89.845-78.545 16.7-35.736-81.58-72.367-25.204 49.487 40.612s13.218 42.047 21.205 61.782c8.493 20.987 18.332 33.942 18.332 33.942l-31.956 14.557-71.625-27.285 72.96 58.904 120.442-48.2 37.663 92.62 57.288 26.154-34.249-39.408-12.706-71.66 99.429 61.413 19.195 57.067z" class="cls-1" style="fill:#4f2e42;stroke:#23141e;stroke-width:9px;stroke-linecap:round;stroke-linejoin:round"/><path d="m272.71 177.563 38.173 13.273 70.745-6.575L434 237.74l-68.897-26.34-62.195 20.305-57.091-18.628-33.807 81.583 18.136 60.522-36.386 60.699 4.732-66.876-28.555-62.556 26.85-80.03c-36.86 6.662-91.338 3.387-91.338 3.387l-48.931-37.001L9.5 151.568l63.475-3.42 50.32 25.628s51.68-1.55 82.327-12.635l-7.35-47.603c3.416-25.573 20.402-58.76 20.402-58.76L207.57 4.499l36.898 45.9-9.89 50.676 13.919 34.329 35.865-17.542 42.223-7.482 42.16-38.84-31.925 61.757s-53.256 20.985-64.11 44.267z" class="cls-2" style="fill:#774564;stroke:#3a2131;stroke-width:9px;stroke-linecap:square;stroke-linejoin:round"/></svg>