<?xml version="1.0" encoding="UTF-8"?>
<svg id="svg52" xmlns="http://www.w3.org/2000/svg" version="1.1" xmlns:inkscape="http://www.inkscape.org/namespaces/inkscape" xmlns:sodipodi="http://sodipodi.sourceforge.net/DTD/sodipodi-0.dtd" xmlns:svg="http://www.w3.org/2000/svg" viewBox="0 0 718.6 786">
  <!-- Generator: Adobe Illustrator 29.3.1, SVG Export Plug-In . SVG Version: 2.1.0 Build 151)  -->
  <defs>
    <style>
      .st0, .st1 {
        opacity: .8;
      }

      .st0, .st1, .st2 {
        isolation: isolate;
      }

      .st0, .st2 {
        fill: #592148;
        fill-opacity: .9;
      }

      .st3 {
        fill: #4f2e42;
        stroke: #23141e;
      }

      .st3, .st4 {
        stroke-linecap: square;
        stroke-linejoin: round;
        stroke-width: 9px;
      }

      .st5, .st6 {
        fill: #893881;
      }

      .st5, .st7 {
        fill-opacity: .9;
      }

      .st1 {
        fill: #722d63;
        fill-opacity: .8;
      }

      .st6, .st8 {
        fill-opacity: .9;
      }

      .st8, .st7 {
        fill: #9b3e8e;
      }

      .st9 {
        fill: #3d2339;
      }

      .st10 {
        fill: #b274a6;
      }

      .st2 {
        opacity: .9;
      }

      .st4 {
        fill: #774564;
        stroke: #3a2131;
      }
    </style>
  </defs>
  <path id="path36-1-00-3-3-4-4-6" class="st9" d="M190.7,362.6l-26,12.5-6.3-13c-3.5-7.2-.4-15.8,6.8-19.3h0c7.2-3.5,15.8-.4,19.3,6.7l6.3,13Z"/>
  <ellipse id="ellipse38-3-1-2-5-8-5" class="st10" cx="176.1" cy="365.6" rx="16.8" ry="8.4" transform="translate(-141 112.4) rotate(-25.7)"/>
  <path id="path40-4-0-5-7-9-6-0" class="st6" d="M186.4,411.8c7.4-12.5,11.9-43.8-7.3-41.2-18.9,4.2-3.9,32,7.3,41.2h0s0,0,0,0h0Z"/>
  <path id="path42-9-1-8-3-3-1-4" class="st7" d="M223.7,401.7h0c-4.7-18.3-29.3-51.2-44.7-31.2-13.5,21.4,25.9,33.1,44.7,31.2h0s0,0,0,0c0,0,0,0,0,0h0Z"/>
  <path id="path36-1-0-3-5-8-6-9-2-6" class="st9" d="M549.7,565.3l14.6,24.9,12.5-7.3c6.9-4,9.2-12.9,5.2-19.7h0c-4-6.9-12.9-9.2-19.7-5.2l-12.5,7.3Z"/>
  <ellipse id="ellipse38-0-8-4-5-0-5-6-9" class="st10" cx="560.1" cy="575.9" rx="8.4" ry="16.8" transform="translate(-214.2 361.7) rotate(-30.3)"/>
  <path id="path40-4-1-3-4-8-7-7-9-1" class="st8" d="M525.8,608.5c.9-14.5,14.6-42.9,29.1-30.1,13.3,14.1-14.7,28.7-29.1,30.1h0s0,0,0,0h0Z"/>
  <path id="path42-9-0-6-3-9-2-6-0-9" class="st5" d="M500.4,579.3h0c14.1-12.5,52.9-26.1,54.5-.9-.7,25.3-39.9,13-54.5.9h0s0,0,0,0c0,0,0,0,0,0h0Z"/>
  <path id="path36-1-8-6-9-8-7" class="st9" d="M541,194l-28.5,4.4-2.2-14.3c-1.2-7.9,4.2-15.2,12.1-16.5h0c7.9-1.2,15.2,4.2,16.5,12.1l2.2,14.3Z" inkscape:transform-center-x="7.1963612" inkscape:transform-center-y="2.1648285"/>
  <ellipse id="ellipse38-2-0-8-5-2" class="st10" cx="526.2" cy="192.6" rx="16.8" ry="8.4" inkscape:transform-center-x="7.0276001" inkscape:transform-center-y="4.7255964" transform="translate(-23.2 82.6) rotate(-8.8)"/>
  <path id="path40-4-2-4-1-4-4" class="st6" d="M522.6,239.8c10.7-9.8,24.1-38.4,5-41.6-19.3-1.4-13,29.5-5,41.6h0s0,0,0,0h0Z" inkscape:transform-center-x="7.078471" inkscape:transform-center-y="11.704773"/>
  <path id="path42-9-6-2-1-7-1" class="st7" d="M561.2,241h0c.8-18.9-13.1-57.6-33.7-42.8-19.2,16.5,15.1,39.2,33.7,42.8h0s0,0,0,0c0,0,0,0,0,0h0Z" inkscape:transform-center-x="2.952119" inkscape:transform-center-y="11.442685"/>
  <path id="path36-1-0-3-5-8-6-9-2" class="st9" d="M231.9,168.8l8.3,27.6-13.8,4.2c-7.6,2.3-15.7-2-18-9.6h0c-2.3-7.6,2-15.7,9.6-18l13.8-4.2Z"/>
  <ellipse id="ellipse38-0-8-4-5-0-5-6" class="st10" cx="232.6" cy="183.7" rx="8.4" ry="16.8" transform="translate(-43.2 75.2) rotate(-16.8)"/>
  <path id="path40-4-1-3-4-8-7-7-9" class="st6" d="M279.9,180.7c-11.2-9.2-41.4-18.5-41.9.9,1.3,19.3,31.1,8.8,41.9-.9h0s0,0,0,0h0Z"/>
  <path id="path42-9-0-6-3-9-2-6-0" class="st7" d="M275.7,142.2h0c-18.8,1.8-55.2,21-37.7,39.3,19,16.7,36.7-20.5,37.7-39.3h0s0,0,0,0c0,0,0,0,0,0h0Z"/>
  <path id="path2-690-0-3-6" class="st3" d="M351.3,311.7l-64.5,35.1-50.7,111.3-7.2,60,21.2,66.2,11.4-78.7,54.7-64.5,20.2,80.2-16.5,64.8,68.1,75.9-30.9-74,41.5-107-30.8-68.3,84.9,21.9,101.9-6.6,52.7-96.5-65.8,57.1-60.8,20.7-92.1-39.6,26.3-29.6,21-61.2-56.1-120.7,8.5,103.7-37,49.9Z" sodipodi:nodetypes="cccccccccccccccccccccccc"/>
  <path id="path25" class="st4" d="M228.3,125l92.8,103.4-12,53.8,33.6,43.7,43.7,16.4,67.2-19.9,16.2-48.5,34.9-46.1,79.7,2.5-61,34.9-18.7,32.4-12.4,48.5-85.9,39.8,57.3,73.4,31.1,71,2.5,44.8,54.8,82.2-93.4-64.7-3.7-58.5-41.1-71-30.1-26.1-19.1,24.5,6.8,44-89.6,118.3,38.6-130.7-26.5-58.5-97.7,7.4-65-33.1-60.6-70.9,77.7,45.9,59.8,4.1,73-43.6-19.7-41.5,5-65.8-38.3-112Z" sodipodi:nodetypes="ccccccccccccccccccccccccccccccccccc"/>
  <path id="path6-28-0-0-1-24" class="st2" d="M554.9,700.2c90,0,162.9-72.9,162.9-162.9s-72.9-162.9-162.9-162.9-162.9,72.9-162.9,162.9,72.9,162.9,162.9,162.9Z"/>
  <path id="path6-28-0-0-1-4" class="st2" d="M162.1,555.2c90,0,162.9-72.9,162.9-162.9s-72.9-162.9-162.9-162.9S-.8,302.3-.8,392.3s72.9,162.9,162.9,162.9Z"/>
  <path id="path6-28-0-0-1-5" class="st2" d="M380,785.9c90,0,162.9-72.9,162.9-162.9s-72.9-162.9-162.9-162.9-162.9,72.9-162.9,162.9,72.9,162.9,162.9,162.9h0Z"/>
  <path id="path6-28-0-0-1-2" class="st2" d="M211.9,362.9c90,0,162.9-72.9,162.9-162.9S301.9,37,211.9,37,49,110,49,200s72.9,162.9,162.9,162.9Z"/>
  <path id="path8-0-8-0-8-5" class="st2" d="M410,351.6c97.6,0,176.8-78.7,176.8-175.9,0-97.1-79.2-175.9-176.8-175.9s-176.8,78.7-176.8,175.9,79.2,175.9,176.8,175.9h0Z"/>
  <path id="path10-2-1-1-1-7" class="st2" d="M573.8,437.7c72.1,0,130.5-58.4,130.5-130.5s-58.4-130.5-130.5-130.5-130.5,58.4-130.5,130.5,58.4,130.5,130.5,130.5h0Z"/>
  <path id="path20-9-8-2-8-3-7" class="st0" d="M204.7,720.9c80.3,0,145.4-64.3,145.4-143.7s-65.1-143.7-145.4-143.7-145.4,64.3-145.4,143.7,65.1,143.7,145.4,143.7Z"/>
  <path id="path18-35-1-0-0-9" class="st1" d="M368.6,454.6c44,0,79.6-35.6,79.6-79.6s-35.6-79.6-79.6-79.6-79.6,35.6-79.6,79.6,35.6,79.6,79.6,79.6h0Z"/>
  <path id="path18-35-1-0-0-90" class="st1" d="M176.6,691.6c44,0,79.6-35.6,79.6-79.6s-35.6-79.6-79.6-79.6-79.6,35.6-79.6,79.6,35.6,79.6,79.6,79.6h0Z"/>
  <path id="path18-35-1-0-0-92" class="st1" d="M436.6,509.2c44,0,79.6-35.6,79.6-79.6s-35.6-79.6-79.6-79.6-79.6,35.6-79.6,79.6,35.6,79.6,79.6,79.6Z"/>
  <path id="path20-9-8-2-8-3-8-6" class="st1" d="M395.8,295c74.7,0,135.2-59.8,135.2-133.7S470.5,27.7,395.8,27.7s-135.2,59.8-135.2,133.7,60.5,133.7,135.2,133.7h0Z"/>
  <path id="path54-0-0-6-8-6" class="st6" d="M451.2,106.4c13.3,5.8,35.3,28.5,18.2,37.7-17.8,7.7-21.9-23.7-18.2-37.7h0s0,0,0,0h0Z"/>
  <path id="path58-0-3-6-1-1" class="st6" d="M491.4,169.5h0c-11.8-1.5-33.8-14.3-21.9-25.4,12.7-10.1,22.2,13.6,21.9,25.4,0,0,0,0,0,0h0Z"/>
  <path id="path56-0-9-5-4-5" class="st7" d="M523,133.9h0c-11.8,14.8-47.7,34.8-53.5,10.2-3.6-25,37.1-19.6,53.5-10.2h0s0,0,0,0c0,0,0,0,0,0h0Z"/>
  <path id="path54-0-0-6-8-6-8" class="st6" d="M142.6,411.8c-14-4-38.8-23.5-23.2-34.9,16.6-10,24.9,20.5,23.2,34.9h0s0,0,0,0h0Z"/>
  <path id="path58-0-3-6-1-1-9" class="st6" d="M94.2,354.7h0c11.9,0,35.4,9.6,25.2,22.2-11.3,11.7-23.8-10.4-25.2-22.2,0,0,0,0,0,0h0Z"/>
  <path id="path56-0-9-5-4-5-4" class="st7" d="M67.7,394.3h0c9.7-16.2,42.5-41,51.6-17.4,7,24.3-34.1,24.5-51.6,17.4h0s0,0,0,0c0,0,0,0,0,0h0Z"/>
  <path id="path18-35-1-0-0-8" class="st1" d="M628.1,483.9c44,0,79.6-35.6,79.6-79.6s-35.6-79.6-79.6-79.6-79.6,35.6-79.6,79.6,35.6,79.6,79.6,79.6Z"/>
  <path id="path14-9-6-1-3-5-4" class="st1" d="M545.8,638.4c62.4,0,112.9-50.1,112.9-112s-50.6-112-112.9-112-112.9,50.1-112.9,112,50.6,112,112.9,112Z"/>
  <path id="path54-0-0-6-8-6-8-7" class="st6" d="M503.9,481.7c.2,14.5-11.4,43.9-26.8,32.2-14.3-13.1,12.5-29.7,26.8-32.2h0s0,0,0,0h0Z"/>
  <path id="path58-0-3-6-1-1-9-4" class="st6" d="M462.9,544.4h0c-3.5-11.3-.9-36.7,14.1-30.5,14.4,7.4-3.2,25.8-14.1,30.5,0,0,0,0,0,0h0Z"/>
  <path id="path56-0-9-5-4-5-4-5" class="st7" d="M508.4,558.4h0c-18.3-4.6-51.4-29.1-31.4-44.5,21.3-13.6,33.2,25.7,31.4,44.5h0s0,0,0,0c0,0,0,0,0,0h0Z"/>
  <path id="path44-5-9-4-7-0-3" class="st6" d="M202.3,611c12.1-8,29.9-34.1,11.5-40.3-18.8-4.5-17.5,27.1-11.5,40.3h0s0,0,0,0h0Z"/>
  <path id="path46-9-1-9-5-4-2" class="st7" d="M240.2,618.4h0c3.8-18.5-3.8-58.9-26.5-47.6-21.5,13.2,8.7,41.1,26.5,47.6h0s0,0,0,0h0s0,0,0,0Z"/>
  <path id="path44-5-9-4-7-0-3-7" class="st6" d="M280.5,84.5c-12.1,8-29.9,34.1-11.5,40.3,18.8,4.5,17.5-27.1,11.5-40.3h0s0,0,0,0h0Z"/>
  <path id="path46-9-1-9-5-4-2-0" class="st7" d="M242.5,77.2h0c-3.8,18.5,3.8,58.9,26.5,47.6,21.5-13.2-8.7-41.1-26.5-47.6h0s0,0,0,0h0s0,0,0,0Z"/>
  <path id="path44-5-9-4-7-0-3-7-98" class="st6" d="M647.7,396c2-14.4-5.9-45-22.6-35.2-15.8,11.2,8.7,31.1,22.6,35.3h0s0,0,0,0h0Z"/>
  <path id="path46-9-1-9-5-4-2-0-3" class="st7" d="M678.3,372.4h0c-11.4-15.1-46.7-36.1-53.2-11.6-4.3,24.9,36.6,20.6,53.2,11.6h0s0,0,0,0h0s0,0,0,0Z"/>
  <path id="path44-5-9-4-7-0-3-7-9-9" class="st6" d="M238.7,368.5c9.1,11.3,36.8,26.5,41.2,7.6,2.7-19.2-28.6-14.9-41.2-7.6h0s0,0,0,0h0Z"/>
  <path id="path46-9-1-9-5-4-2-0-7-1" class="st7" d="M235,407h0c18.8,2,58.3-9.4,44.9-30.9-15.2-20.2-40,12.6-44.9,30.9h0s0,0,0,0h0,0Z"/>
  <path id="path44-5-9-4-7-0-3-7-9" class="st6" d="M97.4,216.5c9.1,11.3,36.8,26.5,41.2,7.6,2.7-19.2-28.6-14.9-41.2-7.6h0s0,0,0,0h0Z"/>
  <path id="path46-9-1-9-5-4-2-0-7" class="st7" d="M93.7,254.2h0c18.8,2,58.3-9.4,44.9-30.9-15.2-20.2-40,12.6-44.9,30.9h0s0,0,0,0h0,0Z"/>
</svg>