<svg xmlns="http://www.w3.org/2000/svg" width="197.765" height="178.328" viewBox="0 0 52.325 47.183"><path d="M99.206 229.275 88.94 206.838l8.731-13.309 20.744-5.37 14.949 3.862 5.159 18.257-6.191 16.96-12.383 5.397-20.743-3.334z" class="st7" style="fill:gray;stroke-width:.264583" transform="translate(-87.577 -186.796)"/><path d="m103.386 220.305-10.08-.582 5.715 9.552 20.743 3.333z" class="st4" style="fill:#666;stroke-width:.264583" transform="translate(-87.577 -186.796)"/><path d="m133.152 191.995-14.95-3.863-2.327 11.298 9.048 8.07 13.388 2.725-5.16-18.257z" class="st6" style="fill:#999;stroke-width:.264583" transform="translate(-87.577 -186.796)"/><path d="M114.34 231.18s-3.07-7.065-.767-8.97c1.243-1.032 3.042 1.456 4.63 1.297 1.561-.159 2.62-2.302 4.154-2.143 2.01.211 2.83 3.095 4.71 3.863 1.666.687 5.37.45 5.37.45l1.323 1.243-12.382 5.397-7.064-1.137z" class="st0" style="opacity:.9;isolation:isolate;fill:#441b40;stroke-width:.264583" transform="translate(-87.577 -186.796)"/><path d="M116.033 231.973s-3.148-5.9-1.243-7.593c.847-.767 2.17 1.032 3.28.926 1.112-.106 1.853-1.64 2.964-1.535 1.429.16 2.064 2.09 3.36 2.752 1.455.74 4.763 1.217 4.763 1.217l-9.208 4.895-3.916-.635z" class="st3" style="opacity:.9;isolation:isolate;fill:#441b42;stroke-width:.264583" transform="translate(-87.577 -186.796)"/><path d="M123.23 188.45s.132 5.159-1.482 6.826c-1.455 1.534-4.683.08-6.138 1.614-.423.476.106 1.428-.344 1.878-.688.715-1.931.768-2.937.662-1.085-.106-2.09-.662-2.937-1.35-1.19-.952-1.614-2.672-2.751-3.677-1.112-1.006-3.916-2.25-3.916-2.25l15.478-4.021 5.027.291z" class="st0" style="opacity:.9;isolation:isolate;fill:#441b40;stroke-width:.264583" transform="translate(-87.577 -186.796)"/><path d="M121.854 189.084s-.926 3.837-2.328 5.028c-1.27 1.058-3.651.052-4.79 1.27-.343.37.08 1.11-.264 1.481-.529.556-1.508.609-2.302.53-.846-.08-1.64-.53-2.301-1.059-.926-.74-1.35-1.984-2.144-2.884-.661-.74-2.222-1.984-2.222-1.984l12.674-3.308 3.624.926z" class="st3" style="opacity:.9;isolation:isolate;fill:#441b42;stroke-width:.264583" transform="translate(-87.577 -186.796)"/><path d="M92.724 209.166c-.503 1.773 2.354 2.831 3.254 4.419.635 1.111.423 2.83 1.508 3.519 1.402.9 3.678.82 5.027-.159 1.297-.952 1.746-2.937 1.588-4.524-.133-1.297-1.456-2.196-2.038-3.387-.45-.9-.264-2.302-1.137-2.778-1.217-.662-2.752.317-4.075.767-1.455.503-3.519.53-4.127 2.117z" class="st0" style="opacity:.9;isolation:isolate;fill:#441b40;stroke-width:.264583" transform="translate(-87.577 -186.796)"/><path d="M94.39 209.96c-.344 1.244 1.667 2.01 2.302 3.122.45.794.318 2.011 1.059 2.487 1.005.635 2.593.582 3.545-.106.9-.661 1.244-2.063 1.111-3.201-.105-.926-1.032-1.561-1.428-2.381-.318-.635-.186-1.64-.82-1.985-.847-.476-1.959.238-2.885.556-1.031.344-2.487.37-2.91 1.508z" class="st3" style="opacity:.9;isolation:isolate;fill:#441b42;stroke-width:.264583" transform="translate(-87.577 -186.796)"/><path d="M102.593 211.892c-.45-.291-1.165.238-1.456.687s0 1.059 0 1.614-.608 1.535-.105 1.932c.423.317 1.11-.106 1.455-.503.793-1.19 1.137-3.043.106-3.704z" class="st1" style="opacity:.5;isolation:isolate;fill:#60285e;stroke-width:.264583" transform="translate(-87.577 -186.796)"/><path d="M115.002 219.882c-.186-.688-.265-1.773.37-2.117s1.296.609 1.984.847 1.535.132 2.064.556c.556.423 1.244 1.19.926 1.772-.608 1.085-2.672 1.085-3.916.635-.688-.264-1.243-.979-1.429-1.667z" class="st0" style="opacity:.9;isolation:isolate;fill:#441b40;stroke-width:.264583" transform="translate(-87.577 -186.796)"/><path d="M120.664 203.954c-.53.423-.344 1.297-.424 1.958-.08.9-.714 2.17 0 2.672.794.53 2.143-.264 2.699-1.058.238-.344-.185-.926.053-1.27.556-.9 2.99-.45 2.804-1.482-.29-1.72-3.73-1.825-5.159-.82zM124.632 208.214c-.476-.582.133-1.561.9-1.905.238-.106.53.106.794.106.635 0 1.402-.609 1.878-.291.794.529.503 1.878-.317 2.38-1.032.345-2.7.398-3.281-.317z" class="st2" style="opacity:.9;isolation:isolate;fill:#60285e;stroke-width:.264583" transform="translate(-87.577 -186.796)"/><path d="M114.472 196.863c-.211-.502-1.11 0-1.64-.159-.873-.211-1.72-1.428-2.487-.978-.476.29-.45 1.19-.159 1.693.503.9 1.8 1.614 2.805 1.376.793-.186 1.772-1.059 1.481-1.932" class="st1" style="opacity:.5;isolation:isolate;fill:#60285e;stroke-width:.264583" transform="translate(-87.577 -186.796)"/><path d="m118.07 186.836-20.743 5.37c-.317.08-.608.292-.793.583l-8.732 13.308c-.264.397-.29.9-.106 1.323l10.266 22.437c.186.423.582.714 1.032.767l20.744 3.334c.264.053.529 0 .767-.106l12.382-5.398a1.37 1.37 0 0 0 .741-.793l6.191-16.96a1.32 1.32 0 0 0 .027-.847l-5.16-18.256c-.132-.476-.502-.82-.978-.952l-14.976-3.81a1.5 1.5 0 0 0-.688 0zm.345 2.725 13.837 3.572 4.816 17.065-5.848 16.008-11.482 5-19.633-3.175-9.604-21.087 8.043-12.224z" class="st5" style="fill:#333;stroke-width:.264583" transform="translate(-87.577 -186.796)"/></svg>