<?xml version="1.0" encoding="UTF-8" standalone="no"?>
<!-- Created with Inkscape (http://www.inkscape.org/) -->

<svg
   width="197.7652"
   height="178.32838"
   viewBox="0 0 52.325376 47.182718"
   version="1.1"
   id="svg1"
   inkscape:version="1.4 (1:1.4+202410161351+e7c3feb100)"
   sodipodi:docname="rock_6.svg"
   xmlns:inkscape="http://www.inkscape.org/namespaces/inkscape"
   xmlns:sodipodi="http://sodipodi.sourceforge.net/DTD/sodipodi-0.dtd"
   xmlns="http://www.w3.org/2000/svg"
   xmlns:svg="http://www.w3.org/2000/svg">
  <sodipodi:namedview
     id="namedview1"
     pagecolor="#505050"
     bordercolor="#ffffff"
     borderopacity="1"
     inkscape:showpageshadow="0"
     inkscape:pageopacity="0"
     inkscape:pagecheckerboard="1"
     inkscape:deskcolor="#505050"
     inkscape:document-units="px"
     inkscape:zoom="1.0592242"
     inkscape:cx="65.142017"
     inkscape:cy="-144.91739"
     inkscape:window-width="2560"
     inkscape:window-height="1368"
     inkscape:window-x="0"
     inkscape:window-y="0"
     inkscape:window-maximized="1"
     inkscape:current-layer="layer1" />
  <defs
     id="defs1" />
  <g
     inkscape:label="Layer 1"
     inkscape:groupmode="layer"
     id="layer1"
     transform="translate(-87.577083,-186.79585)">
    <path
       id="path1333"
       class="st7"
       d="m 99.205872,229.27468 -10.265834,-22.43666 8.73125,-13.30855 20.743332,-5.37104 14.94896,3.86292 5.15937,18.25625 -6.19125,16.95979 -12.3825,5.3975 -20.743328,-3.33375 v 0 z"
       style="fill:#808080;stroke-width:0.264583" />
    <path
       id="path2153-5"
       class="st4"
       d="m 103.38629,220.30531 -10.080627,-0.58209 5.715,9.55146 20.743337,3.33375 z"
       style="fill:#666666;stroke-width:0.264583" />
    <path
       id="path2570-0"
       class="st6"
       d="m 133.15191,191.99489 -14.94896,-3.86292 -2.32833,11.29771 9.04875,8.06979 13.38792,2.72521 -5.15938,-18.25625 v 0 z"
       style="fill:#999999;stroke-width:0.264583" />
    <path
       id="path13512"
       class="st0"
       d="m 114.34004,231.17968 c 0,0 -3.06917,-7.06437 -0.76729,-8.96937 1.24354,-1.03188 3.0427,1.45521 4.6302,1.29646 1.56105,-0.15875 2.61938,-2.30188 4.15396,-2.14313 2.01084,0.21167 2.83104,3.09563 4.70959,3.86292 1.66687,0.68791 5.37104,0.44979 5.37104,0.44979 l 1.32291,1.24354 -12.3825,5.3975 -7.06437,-1.13771 v 0 z"
       sodipodi:nodetypes="caaaacccc"
       style="opacity:0.9;isolation:isolate;fill:#441b40;stroke-width:0.264583" />
    <path
       id="path13512-7"
       class="st3"
       d="m 116.03337,231.97343 c 0,0 -3.14854,-5.90021 -1.24354,-7.59354 0.84667,-0.76729 2.16958,1.03188 3.28083,0.92604 1.11125,-0.10583 1.85209,-1.64041 2.96334,-1.53458 1.42875,0.15875 2.06375,2.09021 3.3602,2.75167 1.45521,0.74083 4.7625,1.21708 4.7625,1.21708 v 0 l -9.2075,4.89479 -3.91583,-0.635 v 0 z"
       sodipodi:nodetypes="caaaacccc"
       style="opacity:0.9;isolation:isolate;fill:#441b42;stroke-width:0.264583" />
    <path
       id="path13514"
       class="st0"
       d="m 123.23004,188.44947 c 0,0 0.13229,5.15938 -1.48167,6.82625 -1.45521,1.53459 -4.68312,0.0794 -6.13833,1.61396 -0.42334,0.47625 0.10583,1.42875 -0.34396,1.87854 -0.68792,0.71438 -1.93146,0.7673 -2.93688,0.66146 -1.08479,-0.10583 -2.0902,-0.66146 -2.93687,-1.34937 -1.19063,-0.9525 -1.61396,-2.67229 -2.75167,-3.67771 -1.11125,-1.00542 -3.91583,-2.24896 -3.91583,-2.24896 l 15.47812,-4.02167 5.02709,0.29105 v 0 z"
       sodipodi:nodetypes="caaaaaaccc"
       style="opacity:0.9;isolation:isolate;fill:#441b40;stroke-width:0.264583" />
    <path
       id="path13514-6"
       class="st3"
       d="m 121.8542,189.08447 c 0,0 -0.92604,3.83646 -2.32833,5.02709 -1.27,1.05833 -3.65125,0.0529 -4.78896,1.27 -0.34396,0.37041 0.0794,1.11125 -0.26458,1.48166 -0.52917,0.55563 -1.50813,0.60855 -2.30188,0.52917 -0.84666,-0.0794 -1.64041,-0.52917 -2.30187,-1.05833 -0.92604,-0.74084 -1.34938,-1.98438 -2.14313,-2.88396 -0.66145,-0.74083 -2.2225,-1.98438 -2.2225,-1.98438 l 12.67355,-3.30729 3.62479,0.92604 c 0,0 0.0529,0 0.0529,0 z"
       sodipodi:nodetypes="caaaaaaccc"
       style="opacity:0.9;isolation:isolate;fill:#441b42;stroke-width:0.264583" />
    <path
       id="path13516"
       class="st0"
       d="m 92.72358,209.16635 c -0.502708,1.77271 2.354792,2.83104 3.254375,4.41854 0.635,1.11125 0.423333,2.83104 1.508125,3.51896 1.402292,0.89958 3.67771,0.82021 5.02708,-0.15875 1.29646,-0.9525 1.74625,-2.93688 1.5875,-4.52438 -0.13229,-1.29645 -1.45521,-2.19604 -2.03729,-3.38666 -0.44979,-0.89959 -0.26458,-2.30188 -1.13771,-2.77813 -1.21708,-0.66146 -2.751663,0.3175 -4.07458,0.76729 -1.455208,0.50271 -3.518958,0.52917 -4.1275,2.11667 v 0 z"
       sodipodi:nodetypes="caaaaaaac"
       style="opacity:0.9;isolation:isolate;fill:#441b40;stroke-width:0.264583" />
    <path
       id="path13516-4"
       class="st3"
       d="m 94.390455,209.9601 c -0.343958,1.24354 1.666875,2.01083 2.301875,3.12208 0.449792,0.79375 0.3175,2.01084 1.058333,2.48709 1.005417,0.635 2.592917,0.58208 3.545417,-0.10584 0.89958,-0.66146 1.24354,-2.06375 1.11125,-3.20146 -0.10583,-0.92604 -1.03188,-1.56104 -1.42875,-2.38125 -0.3175,-0.635 -0.18521,-1.64041 -0.82021,-1.98437 -0.846665,-0.47625 -1.957915,0.23812 -2.883957,0.55562 -1.031875,0.34396 -2.487083,0.37042 -2.910416,1.50813 v 0 z"
       sodipodi:nodetypes="caaaaaaac"
       style="opacity:0.9;isolation:isolate;fill:#441b42;stroke-width:0.264583" />
    <path
       id="path13601"
       class="st1"
       d="m 102.59254,211.89156 c -0.44979,-0.29104 -1.16417,0.23812 -1.45521,0.68791 -0.29104,0.4498 0,1.05834 0,1.61396 0,0.55563 -0.60854,1.53459 -0.10583,1.93146 0.42333,0.3175 1.11125,-0.10583 1.4552,-0.50271 0.79375,-1.19062 1.13771,-3.04271 0.10584,-3.70416 v 0 z"
       sodipodi:nodetypes="aaaaca"
       style="opacity:0.5;isolation:isolate;fill:#60285e;stroke-width:0.264583" />
    <path
       id="path14635"
       class="st0"
       d="m 115.0015,219.88197 c -0.18521,-0.68791 -0.26459,-1.7727 0.37041,-2.11666 0.635,-0.34396 1.29646,0.60854 1.98438,0.84666 0.68791,0.23813 1.53458,0.1323 2.06375,0.55563 0.55562,0.42333 1.24354,1.19062 0.92604,1.77271 -0.60854,1.08479 -2.67229,1.08479 -3.91583,0.635 -0.68792,-0.26459 -1.24355,-0.97896 -1.42875,-1.66688 v 0 z"
       sodipodi:nodetypes="aaaaaaa"
       style="opacity:0.9;isolation:isolate;fill:#441b40;stroke-width:0.264583" />
    <path
       id="path15897"
       class="st2"
       d="m 120.66358,203.95406 c -0.52917,0.42333 -0.34396,1.29646 -0.42333,1.95791 -0.0794,0.89959 -0.71438,2.16959 0,2.6723 0.79375,0.52916 2.14312,-0.26459 2.69875,-1.05834 0.23812,-0.34396 -0.18521,-0.92604 0.0529,-1.27 0.55563,-0.89958 2.98979,-0.44979 2.80459,-1.48166 -0.29105,-1.7198 -3.73063,-1.82563 -5.15938,-0.82021 v 0 z"
       sodipodi:nodetypes="aaaaaaaa"
       style="opacity:0.9;isolation:isolate;fill:#60285e;stroke-width:0.264583" />
    <path
       id="path15921"
       class="st2"
       d="m 124.63233,208.21385 c -0.47625,-0.58208 0.13229,-1.56104 0.89958,-1.905 0.23813,-0.10583 0.52917,0.10583 0.79375,0.10583 0.635,0 1.40229,-0.60854 1.87854,-0.29104 0.79375,0.52917 0.50271,1.87854 -0.3175,2.38125 -1.03187,0.34396 -2.69875,0.39688 -3.28083,-0.3175 v 0 z"
       sodipodi:nodetypes="aaaaca"
       style="opacity:0.9;isolation:isolate;fill:#60285e;stroke-width:0.264583" />
    <path
       id="path15956"
       class="st1"
       d="m 114.47233,196.86322 c -0.21167,-0.5027 -1.11125,0 -1.64042,-0.15875 -0.87312,-0.21166 -1.71979,-1.42875 -2.48708,-0.97895 -0.47625,0.29104 -0.44979,1.19062 -0.15875,1.69333 0.50271,0.89958 1.79917,1.61396 2.80458,1.37583 0.79375,-0.18521 1.77271,-1.05833 1.48167,-1.93146 z"
       sodipodi:nodetypes="caaaac"
       style="opacity:0.5;isolation:isolate;fill:#60285e;stroke-width:0.264583" />
    <path
       id="path1335"
       class="st5"
       d="m 118.07066,186.83552 -20.74333,5.37104 c -0.3175,0.0794 -0.608542,0.29104 -0.79375,0.58208 l -8.73125,13.30854 c -0.264583,0.39688 -0.291042,0.89959 -0.105833,1.32292 l 10.265833,22.43667 c 0.185208,0.42333 0.582083,0.71437 1.031875,0.76729 l 20.743335,3.33375 c 0.26458,0.0529 0.52916,0 0.76729,-0.10584 l 12.3825,-5.3975 c 0.34396,-0.15875 0.60854,-0.42333 0.74083,-0.79375 l 6.19125,-16.95979 c 0.10584,-0.26458 0.10584,-0.55562 0.0265,-0.84666 l -5.15937,-18.25625 c -0.1323,-0.47625 -0.50271,-0.82021 -0.97896,-0.9525 l -14.97542,-3.81 c -0.21167,-0.0529 -0.44979,-0.0529 -0.68792,0 v 0 z m 0.34396,2.7252 13.83771,3.57188 4.81542,17.06562 -5.8473,16.0073 -11.48291,5.00062 -19.63209,-3.175 -9.60437,-21.08729 8.043333,-12.22375 z"
       style="fill:#333333;stroke-width:0.264583" />
  </g>
</svg>
