<svg xmlns="http://www.w3.org/2000/svg" xmlns:xlink="http://www.w3.org/1999/xlink" width="1066.902" height="905.71" viewBox="0 0 282.284 239.636"><defs><pattern xlink:href="#a" id="e" x="0" y="0" patternTransform="matrix(.2321 0 0 .2 5578.09 4512.702)" preserveAspectRatio="xMidYMid"/><pattern id="a" width="191.913" height="191.294" patternTransform="translate(4978.608 4513.307)" patternUnits="userSpaceOnUse" preserveAspectRatio="xMidYMid"><g clip-path="url(#b)" transform="translate(-4710.492 -3243.508)scale(3.77953)"><path d="M1272.703-909.791h25.391v25.304h-25.391z" style="fill:#595650;fill-opacity:1;stroke:#42403d;stroke-width:2.00001;stroke-linecap:round;stroke-dasharray:none;stroke-opacity:1;stop-color:#000" transform="scale(1 -1)"/><path d="M1247.318 884.487h25.391v25.304h-25.391z" style="fill:#bbb9b4;fill-opacity:1;stroke:#42403d;stroke-width:2.00001;stroke-linecap:round;stroke-dasharray:none;stroke-opacity:1;stop-color:#000"/><path d="M-1272.709 859.178h25.391v25.304h-25.391z" style="fill:#595650;fill-opacity:1;stroke:#42403d;stroke-width:2.00001;stroke-linecap:round;stroke-dasharray:none;stroke-opacity:1;stop-color:#000" transform="scale(-1 1)"/><path d="M-1298.078-884.482h25.391v25.304h-25.391z" style="fill:#bbb9b4;fill-opacity:1;stroke:#42403d;stroke-width:2.00001;stroke-linecap:round;stroke-dasharray:none;stroke-opacity:1;stop-color:#000" transform="scale(-1)"/></g></pattern><clipPath id="b" clipPathUnits="userSpaceOnUse"><path d="M1246.316 858.177h50.778v50.615h-50.778z" style="fill:#000;fill-opacity:.259934;stroke:none;stroke-width:1.94774;stroke-linejoin:round;stroke-dasharray:none;stroke-opacity:1"/></clipPath></defs><g transform="translate(-1175.209 -179.516)"><path d="M1186.683 332.748h58.041v9.91h-58.041z" style="fill:#5e4531;fill-opacity:1;stroke:#231812;stroke-width:2.01838;stroke-linecap:butt;stroke-linejoin:miter;stroke-dasharray:none;stroke-opacity:1"/><path d="M355.033-1254.386h52.486v10.065h-52.486z" style="fill:#614733;fill-opacity:1;stroke:#2e1f19;stroke-width:2;stroke-linecap:butt;stroke-linejoin:miter;stroke-dasharray:none;stroke-opacity:1" transform="rotate(90)"/><path d="M1186.683 283.2h58.041v9.91h-58.041z" style="fill:#4e3928;fill-opacity:1;stroke:#231812;stroke-width:2.01838;stroke-linecap:butt;stroke-linejoin:miter;stroke-dasharray:none;stroke-opacity:1"/><path d="M1186.683 293.11h58.041v9.91h-58.041z" style="fill:#513b29;fill-opacity:1;stroke:#231812;stroke-width:2.01838;stroke-linecap:butt;stroke-linejoin:miter;stroke-dasharray:none;stroke-opacity:1"/><path d="M1186.683 303.02h58.041v9.91h-58.041z" style="fill:#533e2d;fill-opacity:1;stroke:#231812;stroke-width:2.01838;stroke-linecap:butt;stroke-linejoin:miter;stroke-dasharray:none;stroke-opacity:1"/><path d="M1186.683 312.929h58.041v9.91h-58.041z" style="fill:#57402d;fill-opacity:1;stroke:#231812;stroke-width:2.01838;stroke-linecap:butt;stroke-linejoin:miter;stroke-dasharray:none;stroke-opacity:1"/><path d="M1186.683 322.839h58.041v9.91h-58.041z" style="fill:#5b432f;fill-opacity:1;stroke:#231812;stroke-width:2.01838;stroke-linecap:butt;stroke-linejoin:miter;stroke-dasharray:none;stroke-opacity:1"/><path d="M1186.683 273.291h58.041v9.91h-58.041z" style="fill:#4b3726;fill-opacity:1;stroke:#231812;stroke-width:2.01838;stroke-linecap:butt;stroke-linejoin:miter;stroke-dasharray:none;stroke-opacity:1"/><path d="M1256.374 191.012h197.994v216.549h-197.994z" style="fill:#58402d;fill-opacity:1;stroke:#392b1d;stroke-width:2;stroke-linecap:butt;stroke-linejoin:miter;stroke-dasharray:none;stroke-opacity:1"/><g style="fill:#614733;fill-opacity:1;stroke:#392b1d;stroke-opacity:1"><g style="fill:#614733;fill-opacity:1;stroke:#392b1d;stroke-width:1.4;stroke-dasharray:none;stroke-opacity:1"><path d="M1256.386 191.134h10.132v32.02h-10.132zM1276.687 191.134h10.132v32.02h-10.132z" style="fill:#614733;fill-opacity:1;stroke:#392b1d;stroke-width:1.4;stroke-linecap:butt;stroke-linejoin:miter;stroke-dasharray:none;stroke-opacity:1" transform="matrix(1.00453 0 0 .99999 -6.562 .004)"/><path d="M1266.494 207.82h10.132v32.02h-10.132zM1286.774 208.06h10.132v32.02h-10.132zM1296.946 191.213h10.132v32.02h-10.132zM1317.248 191.213h10.132v32.02h-10.132z" style="fill:#614733;fill-opacity:1;stroke:#392b1d;stroke-width:1.4;stroke-linecap:butt;stroke-linejoin:miter;stroke-dasharray:none;stroke-opacity:1" transform="matrix(1.00453 0 0 .99999 -6.562 .004)"/><path d="M1307.055 207.899h10.132v32.02h-10.132zM1327.335 208.139h10.132v32.02h-10.132zM1337.606 191.213h10.132v32.02h-10.132zM1357.907 191.213h10.132v32.02h-10.132z" style="fill:#614733;fill-opacity:1;stroke:#392b1d;stroke-width:1.4;stroke-linecap:butt;stroke-linejoin:miter;stroke-dasharray:none;stroke-opacity:1" transform="matrix(1.00453 0 0 .99999 -6.562 .004)"/><path d="M1347.714 207.899h10.132v32.02h-10.132zM1367.994 208.139h10.132v32.02h-10.132zM1378.166 191.292h10.132v32.02h-10.132zM1398.467 191.292h10.132v32.02h-10.132z" style="fill:#614733;fill-opacity:1;stroke:#392b1d;stroke-width:1.4;stroke-linecap:butt;stroke-linejoin:miter;stroke-dasharray:none;stroke-opacity:1" transform="matrix(1.00453 0 0 .99999 -6.562 .004)"/><path d="M1388.274 207.978h10.132v32.02h-10.132zM1408.554 208.218h10.132v32.02h-10.132zM1418.769 191.208h10.132v32.02h-10.132z" style="fill:#614733;fill-opacity:1;stroke:#392b1d;stroke-width:1.4;stroke-linecap:butt;stroke-linejoin:miter;stroke-dasharray:none;stroke-opacity:1" transform="matrix(1.00453 0 0 .99999 -6.562 .004)"/><path d="M1428.856 208.134h10.132v32.02h-10.132zM1439.07 190.787h10.132v32.02h-10.132z" style="fill:#614733;fill-opacity:1;stroke:#392b1d;stroke-width:1.4;stroke-linecap:butt;stroke-linejoin:miter;stroke-dasharray:none;stroke-opacity:1" transform="matrix(1.00453 0 0 .99999 -6.562 .004)"/></g><g style="fill:#614733;fill-opacity:1;stroke:#392b1d;stroke-width:1.4;stroke-dasharray:none;stroke-opacity:1"><path d="M1256.386 191.134h10.132v32.02h-10.132zM1276.687 191.134h10.132v32.02h-10.132z" style="fill:#614733;fill-opacity:1;stroke:#392b1d;stroke-width:1.4;stroke-linecap:butt;stroke-linejoin:miter;stroke-dasharray:none;stroke-opacity:1" transform="matrix(1.00453 0 0 .99999 -6.669 97.654)"/><path d="M1266.494 207.82h10.132v32.02h-10.132zM1286.774 208.06h10.132v32.02h-10.132zM1296.946 191.213h10.132v32.02h-10.132zM1317.248 191.213h10.132v32.02h-10.132z" style="fill:#614733;fill-opacity:1;stroke:#392b1d;stroke-width:1.4;stroke-linecap:butt;stroke-linejoin:miter;stroke-dasharray:none;stroke-opacity:1" transform="matrix(1.00453 0 0 .99999 -6.669 97.654)"/><path d="M1307.055 207.899h10.132v32.02h-10.132zM1327.335 208.139h10.132v32.02h-10.132zM1337.606 191.213h10.132v32.02h-10.132zM1357.907 191.213h10.132v32.02h-10.132z" style="fill:#614733;fill-opacity:1;stroke:#392b1d;stroke-width:1.4;stroke-linecap:butt;stroke-linejoin:miter;stroke-dasharray:none;stroke-opacity:1" transform="matrix(1.00453 0 0 .99999 -6.669 97.654)"/><path d="M1347.714 207.899h10.132v32.02h-10.132zM1367.994 208.139h10.132v32.02h-10.132zM1378.166 191.292h10.132v32.02h-10.132zM1398.467 191.292h10.132v32.02h-10.132z" style="fill:#614733;fill-opacity:1;stroke:#392b1d;stroke-width:1.4;stroke-linecap:butt;stroke-linejoin:miter;stroke-dasharray:none;stroke-opacity:1" transform="matrix(1.00453 0 0 .99999 -6.669 97.654)"/><path d="M1388.274 207.978h10.132v32.02h-10.132zM1408.554 208.218h10.132v32.02h-10.132zM1418.769 191.208h10.132v32.02h-10.132z" style="fill:#614733;fill-opacity:1;stroke:#392b1d;stroke-width:1.4;stroke-linecap:butt;stroke-linejoin:miter;stroke-dasharray:none;stroke-opacity:1" transform="matrix(1.00453 0 0 .99999 -6.669 97.654)"/><path d="M1428.856 208.134h10.132v32.02h-10.132zM1439.07 190.787h10.132v32.02h-10.132z" style="fill:#614733;fill-opacity:1;stroke:#392b1d;stroke-width:1.4;stroke-linecap:butt;stroke-linejoin:miter;stroke-dasharray:none;stroke-opacity:1" transform="matrix(1.00453 0 0 .99999 -6.669 97.654)"/></g><g style="fill:#614733;fill-opacity:1;stroke:#392b1d;stroke-width:1.4;stroke-dasharray:none;stroke-opacity:1"><path d="M1256.386 191.134h10.132v32.02h-10.132zM1276.687 191.134h10.132v32.02h-10.132z" style="fill:#614733;fill-opacity:1;stroke:#392b1d;stroke-width:1.4;stroke-linecap:butt;stroke-linejoin:miter;stroke-dasharray:none;stroke-opacity:1" transform="matrix(-1.00453 0 0 -.99999 2711.06 577.641)"/><path d="M1266.494 207.82h10.132v32.02h-10.132zM1286.774 208.06h10.132v32.02h-10.132zM1296.946 191.213h10.132v32.02h-10.132zM1317.248 191.213h10.132v32.02h-10.132z" style="fill:#614733;fill-opacity:1;stroke:#392b1d;stroke-width:1.4;stroke-linecap:butt;stroke-linejoin:miter;stroke-dasharray:none;stroke-opacity:1" transform="matrix(-1.00453 0 0 -.99999 2711.06 577.641)"/><path d="M1307.055 207.899h10.132v32.02h-10.132zM1327.335 208.139h10.132v32.02h-10.132zM1337.606 191.213h10.132v32.02h-10.132zM1357.907 191.213h10.132v32.02h-10.132z" style="fill:#614733;fill-opacity:1;stroke:#392b1d;stroke-width:1.4;stroke-linecap:butt;stroke-linejoin:miter;stroke-dasharray:none;stroke-opacity:1" transform="matrix(-1.00453 0 0 -.99999 2711.06 577.641)"/><path d="M1347.714 207.899h10.132v32.02h-10.132zM1367.994 208.139h10.132v32.02h-10.132zM1378.166 191.292h10.132v32.02h-10.132zM1398.467 191.292h10.132v32.02h-10.132z" style="fill:#614733;fill-opacity:1;stroke:#392b1d;stroke-width:1.4;stroke-linecap:butt;stroke-linejoin:miter;stroke-dasharray:none;stroke-opacity:1" transform="matrix(-1.00453 0 0 -.99999 2711.06 577.641)"/><path d="M1388.274 207.978h10.132v32.02h-10.132zM1408.554 208.218h10.132v32.02h-10.132zM1418.769 191.208h10.132v32.02h-10.132z" style="fill:#614733;fill-opacity:1;stroke:#392b1d;stroke-width:1.4;stroke-linecap:butt;stroke-linejoin:miter;stroke-dasharray:none;stroke-opacity:1" transform="matrix(-1.00453 0 0 -.99999 2711.06 577.641)"/><path d="M1428.856 208.134h10.132v32.02h-10.132zM1439.07 190.787h10.132v32.02h-10.132z" style="fill:#614733;fill-opacity:1;stroke:#392b1d;stroke-width:1.4;stroke-linecap:butt;stroke-linejoin:miter;stroke-dasharray:none;stroke-opacity:1" transform="matrix(-1.00453 0 0 -.99999 2711.06 577.641)"/></g><g style="fill:#614733;fill-opacity:1;stroke:#392b1d;stroke-width:1.4;stroke-dasharray:none;stroke-opacity:1"><path d="M1256.386 191.134h10.132v32.02h-10.132zM1276.687 191.134h10.132v32.02h-10.132z" style="fill:#614733;fill-opacity:1;stroke:#392b1d;stroke-width:1.4;stroke-linecap:butt;stroke-linejoin:miter;stroke-dasharray:none;stroke-opacity:1" transform="matrix(1.00453 0 0 .99999 -6.733 195.14)"/><path d="M1266.494 207.82h10.132v11.007h-10.132zM1286.774 207.902h10.132v11.007h-10.132zM1296.946 191.213h10.132v32.02h-10.132zM1317.248 191.213h10.132v32.02h-10.132z" style="fill:#614733;fill-opacity:1;stroke:#392b1d;stroke-width:1.4;stroke-linecap:butt;stroke-linejoin:miter;stroke-dasharray:none;stroke-opacity:1" transform="matrix(1.00453 0 0 .99999 -6.733 195.14)"/><path d="M1307.055 207.847h10.132v11.007h-10.132zM1327.335 207.929h10.132v11.007h-10.132zM1337.606 191.213h10.132v32.02h-10.132zM1357.907 191.213h10.132v32.02h-10.132z" style="fill:#614733;fill-opacity:1;stroke:#392b1d;stroke-width:1.4;stroke-linecap:butt;stroke-linejoin:miter;stroke-dasharray:none;stroke-opacity:1" transform="matrix(1.00453 0 0 .99999 -6.733 195.14)"/><path d="M1347.714 207.847h10.132v11.007h-10.132zM1367.994 207.929h10.132v11.007h-10.132zM1378.166 191.292h10.132v32.02h-10.132zM1398.467 191.292h10.132v32.02h-10.132z" style="fill:#614733;fill-opacity:1;stroke:#392b1d;stroke-width:1.4;stroke-linecap:butt;stroke-linejoin:miter;stroke-dasharray:none;stroke-opacity:1" transform="matrix(1.00453 0 0 .99999 -6.733 195.14)"/><path d="M1388.274 207.874h10.132v11.007h-10.132zM1408.554 207.957h10.132v11.007h-10.132zM1418.769 191.208h10.132v32.02h-10.132z" style="fill:#614733;fill-opacity:1;stroke:#392b1d;stroke-width:1.4;stroke-linecap:butt;stroke-linejoin:miter;stroke-dasharray:none;stroke-opacity:1" transform="matrix(1.00453 0 0 .99999 -6.733 195.14)"/><path d="M1428.856 207.928h10.132v11.007h-10.132zM1439.07 190.787h10.132v32.02h-10.132z" style="fill:#614733;fill-opacity:1;stroke:#392b1d;stroke-width:1.4;stroke-linecap:butt;stroke-linejoin:miter;stroke-dasharray:none;stroke-opacity:1" transform="matrix(1.00453 0 0 .99999 -6.733 195.14)"/></g><g style="fill:#614733;fill-opacity:1;stroke:#392b1d;stroke-width:1.4;stroke-dasharray:none;stroke-opacity:1"><path d="M1256.386 191.134h10.132v32.02h-10.132zM1276.687 191.134h10.132v32.02h-10.132z" style="fill:#614733;fill-opacity:1;stroke:#392b1d;stroke-width:1.4;stroke-linecap:butt;stroke-linejoin:miter;stroke-dasharray:none;stroke-opacity:1" transform="matrix(-1.00453 0 0 -.99999 2711.168 479.991)"/><path d="M1266.494 207.82h10.132v32.02h-10.132zM1286.774 208.06h10.132v32.02h-10.132zM1296.946 191.213h10.132v32.02h-10.132zM1317.248 191.213h10.132v32.02h-10.132z" style="fill:#614733;fill-opacity:1;stroke:#392b1d;stroke-width:1.4;stroke-linecap:butt;stroke-linejoin:miter;stroke-dasharray:none;stroke-opacity:1" transform="matrix(-1.00453 0 0 -.99999 2711.168 479.991)"/><path d="M1307.055 207.899h10.132v32.02h-10.132zM1327.335 208.139h10.132v32.02h-10.132zM1337.606 191.213h10.132v32.02h-10.132zM1357.907 191.213h10.132v32.02h-10.132z" style="fill:#614733;fill-opacity:1;stroke:#392b1d;stroke-width:1.4;stroke-linecap:butt;stroke-linejoin:miter;stroke-dasharray:none;stroke-opacity:1" transform="matrix(-1.00453 0 0 -.99999 2711.168 479.991)"/><path d="M1347.714 207.899h10.132v32.02h-10.132zM1367.994 208.139h10.132v32.02h-10.132zM1378.166 191.292h10.132v32.02h-10.132zM1398.467 191.292h10.132v32.02h-10.132z" style="fill:#614733;fill-opacity:1;stroke:#392b1d;stroke-width:1.4;stroke-linecap:butt;stroke-linejoin:miter;stroke-dasharray:none;stroke-opacity:1" transform="matrix(-1.00453 0 0 -.99999 2711.168 479.991)"/><path d="M1388.274 207.978h10.132v32.02h-10.132zM1408.554 208.218h10.132v32.02h-10.132zM1418.769 191.208h10.132v32.02h-10.132z" style="fill:#614733;fill-opacity:1;stroke:#392b1d;stroke-width:1.4;stroke-linecap:butt;stroke-linejoin:miter;stroke-dasharray:none;stroke-opacity:1" transform="matrix(-1.00453 0 0 -.99999 2711.168 479.991)"/><path d="M1428.856 208.134h10.132v32.02h-10.132zM1439.07 190.787h10.132v32.02h-10.132z" style="fill:#614733;fill-opacity:1;stroke:#392b1d;stroke-width:1.4;stroke-linecap:butt;stroke-linejoin:miter;stroke-dasharray:none;stroke-opacity:1" transform="matrix(-1.00453 0 0 -.99999 2711.168 479.991)"/></g></g><path d="M1253.779 186.206h84.365v81.807h-84.365z" style="fill:url(#e);fill-opacity:1;stroke:#42403d;stroke-width:3;stroke-linecap:round;stroke-linejoin:miter;stroke-dasharray:none;stroke-opacity:1"/><path d="M1446.717 188.354h8.732V409.82h-8.732z" style="fill:#2c2016;fill-opacity:1;stroke:#150e0b;stroke-width:2.559;stroke-linecap:butt;stroke-linejoin:miter;stroke-dasharray:none;stroke-opacity:1"/><path d="M1367.628 296.703c9.533-8.525 21.898-27.448 33.727-21.28 9.003 4.696 13.327 12.08 23.733 11.003 14.43-1.493 1.532 11.603-3.65 15.788-7.765 6.268-16.754 11.068-26.409 12.525-27.184 4.101-31.631 3.735-27.4-18.035" style="fill:#4f1212;fill-opacity:.82;stroke:none;stroke-width:2.55897;stroke-linecap:square;stroke-linejoin:round;stroke-dasharray:none;stroke-opacity:1;paint-order:fill markers stroke;stop-color:#000"/><path d="M1186.53 342.721h57.73v64.716h-57.73z" style="fill:#5e4531;fill-opacity:1;stroke:#231812;stroke-width:2;stroke-linecap:butt;stroke-linejoin:miter;stroke-dasharray:none;stroke-opacity:1"/><path d="M1250.094 354.23V190.133" style="fill:#37281b;fill-opacity:1;stroke:#150e0b;stroke-width:10.5833;stroke-linecap:butt;stroke-linejoin:round;stroke-dasharray:none;stroke-opacity:1"/><path d="M1250.094 351.629V190.134" style="fill:#37281b;fill-opacity:1;stroke:#2c2016;stroke-width:6.08542;stroke-linecap:butt;stroke-linejoin:round;stroke-dasharray:none;stroke-opacity:1"/><path d="M1326.36 268.626h-71.092" style="fill:#37281b;fill-opacity:1;stroke:#36271b;stroke-width:9.99215;stroke-linecap:butt;stroke-linejoin:round;stroke-dasharray:none;stroke-opacity:1"/><circle cx="1451.083" cy="204.05" r="5.66" style="fill:#2c2016;fill-opacity:1;stroke:#150e0b;stroke-width:1.5;stroke-linecap:butt;stroke-linejoin:miter;stroke-dasharray:none;stroke-opacity:1"/><circle cx="1451.083" cy="230.16" r="5.66" style="fill:#2c2016;fill-opacity:1;stroke:#150e0b;stroke-width:1.5;stroke-linecap:butt;stroke-linejoin:miter;stroke-dasharray:none;stroke-opacity:1"/><circle cx="1451.083" cy="260.075" r="5.66" style="fill:#2c2016;fill-opacity:1;stroke:#150e0b;stroke-width:1.5;stroke-linecap:butt;stroke-linejoin:miter;stroke-dasharray:none;stroke-opacity:1"/><circle cx="1451.083" cy="286.184" r="5.66" style="fill:#2c2016;fill-opacity:1;stroke:#150e0b;stroke-width:1.5;stroke-linecap:butt;stroke-linejoin:miter;stroke-dasharray:none;stroke-opacity:1"/><circle cx="1451.083" cy="313.33" r="5.66" style="fill:#2c2016;fill-opacity:1;stroke:#150e0b;stroke-width:1.5;stroke-linecap:butt;stroke-linejoin:miter;stroke-dasharray:none;stroke-opacity:1"/><circle cx="1451.083" cy="339.439" r="5.66" style="fill:#2c2016;fill-opacity:1;stroke:#150e0b;stroke-width:1.5;stroke-linecap:butt;stroke-linejoin:miter;stroke-dasharray:none;stroke-opacity:1"/><circle cx="1451.083" cy="366.435" r="5.66" style="fill:#2c2016;fill-opacity:1;stroke:#150e0b;stroke-width:1.5;stroke-linecap:butt;stroke-linejoin:miter;stroke-dasharray:none;stroke-opacity:1"/><circle cx="1451.083" cy="392.545" r="5.66" style="fill:#2c2016;fill-opacity:1;stroke:#150e0b;stroke-width:1.5;stroke-linecap:butt;stroke-linejoin:miter;stroke-dasharray:none;stroke-opacity:1"/><g style="fill:#4f1212;fill-opacity:.82"><path d="M81.928 143.757c-2.08-2.174-2.973-5.618-1.802-8.49.615-1.51 1.942-2.855 3.634-2.95.796-.045 1.473.483 2.25.648 1.484.314 3.187-.438 4.567.386.91.543 1.299 1.597 1.803 2.479.95 1.66 1.966 3.322 3.518 4.527 1.204.934.743 2.89-.205 3.93-.632.694-1.653.965-2.546.559-1.486-.676-2.55-2.262-4.147-2.52-1.855-.3-3.191 2.115-5.147 1.997-.669-.04-1.44-.06-1.925-.566M120.716 144.808c1.448 2.638 1.418 6.196-.456 8.668-.985 1.298-2.615 2.254-4.274 1.908-.78-.163-1.297-.848-2.005-1.208-1.352-.688-3.192-.402-4.312-1.555-.738-.76-.841-1.88-1.1-2.861-.488-1.85-1.039-3.718-2.226-5.283-.921-1.215.03-2.985 1.215-3.744.79-.507 1.846-.504 2.604.12 1.26 1.037 1.878 2.844 3.354 3.507 1.713.77 3.63-1.217 5.488-.598.635.213 1.376.432 1.712 1.046M171.029 143.14c-2.89-.842-5.384-3.378-5.806-6.451-.222-1.615.254-3.444 1.672-4.372.667-.437 1.517-.317 2.272-.563 1.443-.47 2.541-1.973 4.149-1.95 1.059.016 1.924.734 2.8 1.246 1.654.963 3.364 1.894 5.31 2.161 1.51.207 2.09 2.132 1.789 3.507-.2.916-.95 1.661-1.926 1.756-1.625.158-3.34-.683-4.851-.108-1.757.667-1.707 3.427-3.459 4.302-.6.3-1.278.669-1.95.473M218.086 123.222c2.89.842 5.384 3.378 5.807 6.452.221 1.614-.255 3.443-1.673 4.371-.667.437-1.517.318-2.272.564-1.442.47-2.541 1.973-4.149 1.949-1.058-.016-1.923-.734-2.8-1.245-1.654-.964-3.364-1.895-5.31-2.162-1.51-.207-2.09-2.132-1.789-3.506.2-.917.95-1.662 1.926-1.757 1.625-.158 3.34.683 4.852.109 1.756-.668 1.706-3.428 3.458-4.303.6-.3 1.278-.668 1.95-.472M171.275 156.906c2.89.842 5.384 3.379 5.806 6.452.222 1.615-.254 3.443-1.672 4.372-.667.436-1.517.317-2.272.563-1.442.47-2.541 1.973-4.149 1.95-1.059-.016-1.923-.735-2.8-1.246-1.654-.963-3.364-1.894-5.31-2.161-1.51-.208-2.09-2.133-1.789-3.507.2-.917.95-1.662 1.926-1.757 1.625-.158 3.34.684 4.852.109 1.756-.667 1.706-3.427 3.458-4.303.6-.3 1.278-.668 1.95-.472M211.261 167.098c-3.009-.066-6.075-1.87-7.278-4.73-.632-1.502-.645-3.391.484-4.655.531-.595 1.383-.7 2.049-1.132 1.271-.827 1.944-2.564 3.503-2.957 1.026-.259 2.048.211 3.027.478 1.847.503 3.74.96 5.689.714 1.512-.19 2.57 1.519 2.635 2.924.043.937-.487 1.85-1.406 2.195-1.529.573-3.403.205-4.714 1.15-1.524 1.1-.761 3.753-2.227 5.052-.502.445-1.062.976-1.762.961M244.59 130.24c2.64-1.447 6.197-1.417 8.669.457 1.298.985 2.254 2.615 1.908 4.274-.163.78-.848 1.297-1.208 2.005-.687 1.352-.402 3.192-1.555 4.312-.76.737-1.88.841-2.861 1.1-1.85.488-3.718 1.039-5.283 2.226-1.214.921-2.985-.03-3.744-1.215-.507-.79-.504-1.846.12-2.604 1.037-1.26 2.844-1.879 3.507-3.354.77-1.713-1.217-3.63-.597-5.488.212-.635.431-1.376 1.045-1.713M103.48 164.787c1.448 2.638 1.418 6.196-.456 8.668-.985 1.298-2.615 2.254-4.274 1.908-.78-.163-1.297-.848-2.005-1.208-1.352-.688-3.192-.402-4.312-1.555-.738-.76-.841-1.88-1.1-2.861-.488-1.85-1.039-3.718-2.226-5.283-.921-1.214.03-2.985 1.215-3.744.79-.507 1.846-.504 2.604.12 1.26 1.037 1.878 2.844 3.354 3.507 1.713.77 3.63-1.217 5.488-.597.635.212 1.376.431 1.712 1.045" style="fill:#571414;fill-opacity:.82;stroke:none;stroke-width:2.559;stroke-linecap:square;stroke-linejoin:round;stroke-dasharray:none;stroke-opacity:1;paint-order:fill markers stroke;stop-color:#000" transform="translate(1115.316 217.73)"/></g><path d="M1354.705 285.638c3.943.87 5.323 5.744 3.5 9.173-1.33 2.502-4.741 3.086-4.378 6.594.288 2.792 2.998 5.718 1.04 8.203-2.015 2.558-6.404 3.223-9.26 2.247-2.643-.902-4.557-3.387-6.24-5.618-2.428-3.216-1.413-7.71-.052-11.157 1.17-2.964 3.32-5.583 6.056-7.412 2.527-1.687 3.09-4.399 7.248-4.4h.664" style="fill:#4f1212;fill-opacity:.82;stroke:none;stroke-width:2.55899;stroke-linecap:square;stroke-linejoin:round;stroke-dasharray:none;stroke-opacity:1;paint-order:fill markers stroke;stop-color:#000"/><path d="M1456.8 413.714H1175.21M1180.5 179.993v239.065M1456.803 184.808H1175.21" style="fill:#571414;fill-opacity:.82;stroke:#231812;stroke-width:10.5834;stroke-linecap:butt;stroke-linejoin:miter;stroke-dasharray:none;stroke-opacity:1"/><path d="M1454.126 413.714h-276.671" style="fill:#571414;fill-opacity:.82;stroke:#553c31;stroke-width:6.08075;stroke-linecap:butt;stroke-linejoin:miter;stroke-dasharray:none;stroke-opacity:1"/><path d="M1180.5 181.765v234.992" style="fill:#571414;fill-opacity:.82;stroke:#553c31;stroke-width:6.08541;stroke-linecap:butt;stroke-linejoin:miter;stroke-dasharray:none;stroke-opacity:1"/><path d="M1454.126 184.808h-276.671" style="fill:#571414;fill-opacity:.82;stroke:#553c31;stroke-width:6.07181;stroke-linecap:butt;stroke-linejoin:miter;stroke-dasharray:none;stroke-opacity:1"/></g></svg>