<?xml version="1.0" encoding="UTF-8" standalone="no"?>
<!-- Created with Inkscape (http://www.inkscape.org/) -->

<svg
   width="40"
   height="40"
   viewBox="0 0 10.583334 10.583334"
   version="1.1"
   id="svg5"
   inkscape:version="1.3.2 (1:1.3.2+202311252150+091e20ef0f)"
   sodipodi:docname="player_indicator_dead.svg"
   xmlns:inkscape="http://www.inkscape.org/namespaces/inkscape"
   xmlns:sodipodi="http://sodipodi.sourceforge.net/DTD/sodipodi-0.dtd"
   xmlns="http://www.w3.org/2000/svg"
   xmlns:svg="http://www.w3.org/2000/svg">
  <sodipodi:namedview
     id="namedview7"
     pagecolor="#505050"
     bordercolor="#ffffff"
     borderopacity="1"
     inkscape:pageshadow="0"
     inkscape:pageopacity="0"
     inkscape:pagecheckerboard="1"
     inkscape:document-units="px"
     showgrid="false"
     inkscape:zoom="8"
     inkscape:cx="-11.8125"
     inkscape:cy="7.5625"
     inkscape:window-width="2560"
     inkscape:window-height="1368"
     inkscape:window-x="0"
     inkscape:window-y="0"
     inkscape:window-maximized="1"
     inkscape:current-layer="layer1"
     units="px"
     inkscape:showpageshadow="0"
     inkscape:deskcolor="#505050" />
  <defs
     id="defs2">
    <inkscape:path-effect
       effect="skeletal"
       id="path-effect4"
       is_visible="true"
       lpeversion="1"
       pattern="M 0,4.9921387 C 0,2.2364781 2.2364781,0 4.9921387,0 c 2.7556605,0 4.9921387,2.2364781 4.9921387,4.9921387 0,2.7556605 -2.2364782,4.9921387 -4.9921387,4.9921387 C 2.2364781,9.9842774 0,7.7477992 0,4.9921387 Z"
       copytype="single_stretched"
       prop_scale="1"
       scale_y_rel="false"
       spacing="0"
       normal_offset="0"
       tang_offset="0"
       prop_units="false"
       vertical_pattern="false"
       hide_knot="false"
       fuse_tolerance="0" />
    <inkscape:path-effect
       effect="skeletal"
       id="path-effect3"
       is_visible="true"
       lpeversion="1"
       pattern="M 0,4.9921387 C 0,2.2364781 2.2364781,0 4.9921387,0 c 2.7556605,0 4.9921387,2.2364781 4.9921387,4.9921387 0,2.7556605 -2.2364782,4.9921387 -4.9921387,4.9921387 C 2.2364781,9.9842774 0,7.7477992 0,4.9921387 Z"
       copytype="single_stretched"
       prop_scale="1"
       scale_y_rel="false"
       spacing="0"
       normal_offset="0"
       tang_offset="0"
       prop_units="false"
       vertical_pattern="false"
       hide_knot="false"
       fuse_tolerance="0" />
    <inkscape:path-effect
       effect="skeletal"
       id="path-effect2"
       is_visible="true"
       lpeversion="1"
       pattern="M 0,4.9921387 C 0,2.2364781 2.2364781,0 4.9921387,0 c 2.7556605,0 4.9921387,2.2364781 4.9921387,4.9921387 0,2.7556605 -2.2364782,4.9921387 -4.9921387,4.9921387 C 2.2364781,9.9842774 0,7.7477992 0,4.9921387 Z"
       copytype="single_stretched"
       prop_scale="1"
       scale_y_rel="false"
       spacing="0"
       normal_offset="0"
       tang_offset="0"
       prop_units="false"
       vertical_pattern="false"
       hide_knot="false"
       fuse_tolerance="0" />
  </defs>
  <g
     inkscape:label="Layer 1"
     inkscape:groupmode="layer"
     id="layer1"
     transform="translate(-79.301325,276.15148)">
    <path
       style="color:#000000;fill:#ffffff;stroke-width:0.999999;stroke-linecap:square;-inkscape-stroke:none"
       d="m 89.35542,-270.85926 a 4.7622074,4.7622096 0 0 1 -4.762207,4.76221 4.7622074,4.7622096 0 0 1 -4.762208,-4.76221 4.7622074,4.7622096 0 0 1 4.762208,-4.76221 4.7622074,4.7622096 0 0 1 4.762207,4.76221 z"
       id="path4" />
    <path
       id="path5"
       style="color:#000000;fill:#333333;stroke-width:0.999999;stroke-linecap:square;-inkscape-stroke:none"
       d="M 84.594026 -276.15148 C 81.677973 -276.15148 79.301325 -273.77484 79.301325 -270.85878 C 79.301325 -267.94273 81.677973 -265.56815 84.594026 -265.56815 C 87.510079 -265.56815 89.884659 -267.94273 89.884659 -270.85878 C 89.884659 -273.77484 87.510079 -276.15148 84.594026 -276.15148 z M 84.594026 -275.09315 C 85.18673 -275.09315 85.749867 -274.97156 86.261107 -274.75312 L 84.594026 -273.08603 L 82.925393 -274.7526 C 83.437102 -274.97133 84.00091 -275.09315 84.594026 -275.09315 z M 82.099604 -274.08391 L 84.594026 -271.59 L 87.08793 -274.08391 L 87.818635 -273.35372 L 85.322147 -270.8593 L 87.818635 -268.36539 L 87.08793 -267.63469 L 84.594026 -270.13066 L 82.097537 -267.63675 L 81.369416 -268.36539 L 83.863321 -270.8593 L 81.369416 -273.35372 L 82.099604 -274.08391 z M 88.486811 -272.52689 C 88.705186 -272.01536 88.826326 -271.45165 88.826326 -270.85878 C 88.826326 -270.26632 88.705416 -269.70328 88.487328 -269.19221 L 86.820246 -270.8593 L 88.486811 -272.52689 z M 80.699689 -272.52638 L 82.367288 -270.8593 L 80.699173 -269.19273 C 80.481011 -269.70369 80.359658 -270.26649 80.359658 -270.85878 C 80.359658 -271.45149 80.481241 -272.01495 80.699689 -272.52638 z M 84.594026 -268.63256 L 86.260591 -266.96548 C 85.749522 -266.74739 85.18648 -266.62648 84.594026 -266.62648 C 84.00116 -266.62648 83.437447 -266.74762 82.92591 -266.96599 L 84.594026 -268.63256 z " />
  </g>
</svg>
