<svg xmlns="http://www.w3.org/2000/svg" xmlns:xlink="http://www.w3.org/1999/xlink" width="930.032" height="1183.336" viewBox="0 0 246.071 313.091"><defs><clipPath id="b" clipPathUnits="userSpaceOnUse"><path d="M1246.316 858.177h50.778v50.615h-50.778z" style="fill:#000;fill-opacity:.259934;stroke:none;stroke-width:1.94774;stroke-linejoin:round;stroke-dasharray:none;stroke-opacity:1"/></clipPath><clipPath id="f"><circle cy="-15" r="9.5"/><circle cy="-15" r="9.5" transform="rotate(120)"/><circle cy="-15" r="9.5" transform="rotate(-120)"/></clipPath><pattern xlink:href="#a" id="d" x="0" y="0" patternTransform="matrix(.2 0 0 .2 4964.22 2322.855)" preserveAspectRatio="xMidYMid"/><pattern id="a" width="191.913" height="191.294" patternTransform="translate(4978.608 4513.307)" patternUnits="userSpaceOnUse" preserveAspectRatio="xMidYMid"><g clip-path="url(#b)" transform="translate(-4710.492 -3243.508)scale(3.77953)"><path d="M1272.703-909.791h25.391v25.304h-25.391z" style="fill:#595650;fill-opacity:1;stroke:#42403d;stroke-width:2.00001;stroke-linecap:round;stroke-dasharray:none;stroke-opacity:1;stop-color:#000" transform="scale(1 -1)"/><path d="M1247.318 884.487h25.391v25.304h-25.391z" style="fill:#bbb9b4;fill-opacity:1;stroke:#42403d;stroke-width:2.00001;stroke-linecap:round;stroke-dasharray:none;stroke-opacity:1;stop-color:#000"/><path d="M-1272.709 859.178h25.391v25.304h-25.391z" style="fill:#595650;fill-opacity:1;stroke:#42403d;stroke-width:2.00001;stroke-linecap:round;stroke-dasharray:none;stroke-opacity:1;stop-color:#000" transform="scale(-1 1)"/><path d="M-1298.078-884.482h25.391v25.304h-25.391z" style="fill:#bbb9b4;fill-opacity:1;stroke:#42403d;stroke-width:2.00001;stroke-linecap:round;stroke-dasharray:none;stroke-opacity:1;stop-color:#000" transform="scale(-1)"/></g></pattern><mask id="e" width="60" height="60" x="-30" y="-30" maskUnits="userSpaceOnUse"><path fill="#fff" d="M-27-27h54v54h-54Z"/><path d="M2-23v-4h-4v4M-.5-6v4h1v-4"/><circle cy="-15" r="10.5"/><g transform="rotate(120)"><path d="M2-23v-4h-4v4M-.5-6v4h1v-4"/><circle cy="-15" r="10.5"/></g><g transform="rotate(-120)"><path d="M2-23v-4h-4v4M-.5-6v4h1v-4"/><circle cy="-15" r="10.5"/></g><circle r="3"/></mask></defs><g transform="translate(-47.625 125.004)"><path d="M52.933-119.638h235.398V182.78H52.933z" style="fill:#513c51;fill-opacity:1;stroke:none;stroke-width:10.615;stroke-dasharray:none;stroke-opacity:1"/><rect width="160.583" height="109.228" x="52.837" y="-119.734" rx=".904" ry=".723" style="fill:url(#d);fill-opacity:1;stroke:#42403d;stroke-width:2.45492;stroke-dasharray:none;stroke-opacity:1"/><g style="fill:#412f41;fill-opacity:1" transform="rotate(90 55.194 208.283)scale(.2379)"><g mask="url(#e)" style="fill:#412f41;fill-opacity:1"><circle cy="-11" r="15" style="fill:#412f41;fill-opacity:1"/><circle cy="-11" r="15" style="fill:#412f41;fill-opacity:1" transform="rotate(120)"/><circle cy="-11" r="15" style="fill:#412f41;fill-opacity:1" transform="rotate(-120)"/></g><circle r="11.75" fill="none" stroke="#000" stroke-width="3.5" clip-path="url(#f)" style="fill:#412f41;fill-opacity:1;stroke:#332433;stroke-opacity:1"/></g><path d="M288.33-124.946V32.578M216.476-119.638H47.096M52.99-124.946v313.033M288.272 122.772v65.315M293.638 182.722H129.184" style="fill:#6a4e6a;fill-opacity:.495745;stroke:#5f5f5f;stroke-width:10.731;stroke-linecap:butt;stroke-dasharray:none;stroke-opacity:1"/><path d="M288.33-122.511V30.447" style="fill:#6a4e6a;fill-opacity:.495745;stroke:#a0a0a0;stroke-width:6.08541;stroke-linecap:butt;stroke-dasharray:none;stroke-opacity:1"/><path d="M213.325-119.638H49.948" style="fill:#6a4e6a;fill-opacity:.495745;stroke:#a0a0a0;stroke-width:6.08544;stroke-linecap:butt;stroke-dasharray:none;stroke-opacity:1"/><path d="M52.99-122.46v308.067" style="fill:#6a4e6a;fill-opacity:.495745;stroke:#a0a0a0;stroke-width:6.08541;stroke-linecap:butt;stroke-dasharray:none;stroke-opacity:1"/><path d="M288.272 124.39v61.021M291.315 182.722H131.523" style="fill:#6a4e6a;fill-opacity:.495745;stroke:#a0a0a0;stroke-width:6.08542;stroke-linecap:butt;stroke-dasharray:none;stroke-opacity:1"/><path d="M235.725-26.351c3.716-5.704 8.16-9.61 13.61-12.98 5.17-3.198 9.837-2.32 15.25-2.604 6.745-.355 3.838-9.865 4.02-14.808.265-7.24-6.752-15.261-14.751-14.015-9.172 1.428-10.157 13.037-17.128 17.307-5.277 3.232-13.346 4.265-12.655 12.817.456 5.647 2.97 7.699 7.593 8.888 2.034.523 2.29 8.115 4.061 5.395m30.783-49.673c-.978.834-2.125 1.634-3.437 1.742-.946.078-1.55-.89-1.43-1.76.187-1.345-.777-2.64-.338-3.966.245-.736 1.247-.63 1.898-.584.714.05 1.125.487 1.513 1.054.49.714.885 1.457 1.112 2.282.125.454.435.833.682 1.232m-15.92 55.831c.939 1.22 2.018 2.513 2.107 4.106.056 1.013-.698 1.788-1.48 2.361-2.09 1.537-3.244 4.014-5.174 5.725-1.023.906-2.543 1.507-3.907 1.024-.733-.26-1.11-.96-1.51-1.569-.777-1.184-1.432-2.698-.897-4.114.327-.868 1.22-1.31 1.557-2.178.516-1.329.767-2.709.917-4.123.124-1.18.624-2.25 1.694-2.604.795-.264 1.649-.137 2.418.199 1.187.518 2.622-.214 3.772.467.255.151.324.474.503.706" style="fill:#493449;fill-opacity:1;stroke:none;stroke-width:.84557;stroke-linecap:square;stroke-linejoin:round;stroke-dasharray:none;stroke-opacity:1;paint-order:fill markers stroke;stop-color:#000"/><path d="M153.788 110.007c3.97 3.63 2.315 10.172-2.072 12.914-3.2 2-7.525.402-9.443 4.692-1.526 3.412-.35 8.593-4.264 10.156-4.028 1.609-9.535-.548-12.18-3.576-2.448-2.8-3-6.943-3.457-10.638-.658-5.327 3.506-9.836 7.372-12.906 3.323-2.64 7.549-4.23 11.924-4.516 4.04-.264 6.495-3.017 11.292-.248l.766.442" style="fill:#493449;fill-opacity:1;stroke:none;stroke-width:1.5263;stroke-linecap:square;stroke-linejoin:round;stroke-dasharray:none;stroke-opacity:1;paint-order:fill markers stroke;stop-color:#000"/></g></svg>