<svg xmlns="http://www.w3.org/2000/svg" width="465.015" height="591.558" viewBox="0 0 492.142 626.067"><g transform="matrix(2 0 0 2 550.101 -281.604)"><g transform="translate(-342.807 -1315.303)"><path d="M1457.615-69.268h310.011v-243.048h-310.01zm52.003-16.419 12.91-20.954 12.16 2.058 7.671 13.097-9.916 10.29z" style="fill:none;fill-opacity:1;stroke:#333;stroke-width:3.02194;stroke-dasharray:none;stroke-opacity:1" transform="rotate(90)"/><path d="m310.976 1460.57-119.952 110.274-.464 85.07 119.986 108.535zm-23.93 153.818 1.944 23.573-24.865 13.096-15.151-13.47 13.986-18.709z" style="fill:#a0a0a0;fill-opacity:1;stroke-width:4.0938"/><path d="m70.744 1460.122.43 305.865 119.842-108.536-.464-85.069zm15.496 49.496 21.73 12.91-2.134 12.16-13.581 7.671-10.671-9.916z" style="fill:#969696;fill-opacity:1;stroke-width:4.0938"/><path d="M70.816 1458.95c13.453 18.151 101.225 103.114 119.976 118.623 20.911-19.53 106.259-100.618 120.228-118.623z" style="fill:#9c9c9c;fill-opacity:1;stroke-width:3.2241;stroke-dasharray:none"/><path d="M-1464.256 69.707h6.64v242.61h-6.64z" style="fill:#8a8a8a;fill-opacity:1;stroke:#333;stroke-width:2;stroke-dasharray:none;stroke-opacity:1" transform="rotate(-90)"/><path d="M280.194 1482.169h8.793v132.865h-8.793z" style="fill:#8f8f8f;fill-opacity:1;stroke:none;stroke-width:3;stroke-dasharray:none;stroke-opacity:1"/><path d="m280.872 1642.844 8.923-3.221v103.016H281z" style="fill:#8c8c8c;stroke-width:3"/><path d="M70.08 1766.657c13.452-18.152 104.03-103.115 120.724-120.12 20.911 19.53 105.51 102.114 119.48 120.12z" style="fill:#919191;fill-opacity:1;stroke-width:3.2241;stroke-dasharray:none"/><path d="M-1767.627 69.257h6.64v243.06h-6.64z" style="fill:#8a8a8a;fill-opacity:1;stroke:#333;stroke-width:2;stroke-dasharray:none;stroke-opacity:1" transform="rotate(-90)"/><path d="M-312.317-1767.627h6.64v310.022h-6.64zM-75.908-1767.638h6.64v310.022h-6.64z" style="fill:#8a8a8a;fill-opacity:1;stroke:#333;stroke-width:2;stroke-dasharray:none;stroke-opacity:1" transform="scale(-1)"/><path d="M228.248 1535.25h8.793v158.464h-8.793z" style="fill:#8f8f8f;fill-opacity:1;stroke:none;stroke-width:3;stroke-dasharray:none;stroke-opacity:1"/><path d="m235.838 1532.009-90.634.155 7.21 7.976 78.54.096z" style="fill:#8a8a8a;fill-opacity:1;stroke-width:3.00001"/><path d="M252.677 1511.37h8.793l.27 112.361-8.86 9.667z" style="fill:#8f8f8f;fill-opacity:1;stroke-width:3"/><path d="m252.988 1640.45 8.753 6.7-.199 70.797h-8.793z" style="fill:#8c8c8c;stroke-width:3"/><path d="m-101.458 1536.654 8.7 4.958-.281 201.094h-8.793z" style="fill:#858585;fill-opacity:1;stroke-width:2.63412" transform="scale(-1 1)"/><path d="M-101.397 1479.821h8.793l.047 34.67-8.794 3.836z" style="fill:#7a7a7a;stroke-width:2.63412" transform="scale(-1 1)"/><path d="M-153.778 1532.641h8.793v158.464h-8.793zM-129.349 1508.761h8.793v207.09h-8.793z" style="fill:#858585;fill-opacity:1;stroke:none;stroke-width:3;stroke-dasharray:none;stroke-opacity:1" transform="scale(-1 1)"/><path d="m262.169 1507.234-146.4.155 11.65 7.976 126.862.096zM292.502 1479.937l-201.237-.032 10.616 8.555 179.637-.296z" style="fill:#8a8a8a;fill-opacity:1;stroke-width:3.00002"/><path d="m237.378 1694.417-93.378-.155 7.43-7.976 80.917-.096z" style="fill:gray;fill-opacity:1;stroke-width:3.00001"/><path d="m264.01 1718.52-146.266-.155 11.638-7.976 126.748-.096zM287.73 1742.972l-195.49-.155 12.69-8.367 172.266.295z" style="fill:gray;fill-opacity:1;stroke-width:3.00002"/><path d="m312.317 1457.616-121.964 121.963" style="fill:none;fill-opacity:1;stroke:#333;stroke-width:3;stroke-dasharray:none;stroke-opacity:1"/><circle cx="-307.639" cy="-1462.299" r="3.952" style="fill:#4d4d4d;fill-opacity:1;stroke:#313131;stroke-width:1.32292;stroke-dasharray:none;stroke-opacity:1" transform="scale(-1)"/><path d="m69.268 1457.616 121.963 121.963M312.317 1767.627l-122.53-122.53M69.268 1767.627l122.53-122.53" style="fill:none;fill-opacity:1;stroke:#333;stroke-width:3;stroke-dasharray:none;stroke-opacity:1"/><circle cx="-73.718" cy="-1462.032" r="3.952" style="fill:#4d4d4d;fill-opacity:1;stroke:#313131;stroke-width:1.32292;stroke-dasharray:none;stroke-opacity:1" transform="scale(-1)"/><circle cx="-74.006" cy="-1762.929" r="3.952" style="fill:#4d4d4d;fill-opacity:1;stroke:#313131;stroke-width:1.32292;stroke-dasharray:none;stroke-opacity:1" transform="scale(-1)"/><circle cx="-307.429" cy="-1762.902" r="3.952" style="fill:#4d4d4d;fill-opacity:1;stroke:#313131;stroke-width:1.32292;stroke-dasharray:none;stroke-opacity:1" transform="scale(-1)"/><path d="m85.687 1509.618 20.954 12.91-2.058 12.16-13.097 7.671-10.29-9.916z" style="fill:none;fill-opacity:.367123;stroke:#424242;stroke-width:3;stroke-dasharray:none;stroke-opacity:1"/><path d="m264.506 1618.59 23.407-4.53 1.887 23.784-24.161 13.213-14.724-13.59z" style="fill:none;fill-opacity:1;stroke:#424242;stroke-width:3;stroke-dasharray:none;stroke-opacity:1"/><path d="M190.792 1577.573v68.976" style="fill:#919191;fill-opacity:1;stroke:#333;stroke-width:3;stroke-dasharray:none;stroke-opacity:1"/></g><ellipse cx="-152.014" cy="181.981" rx="23.246" ry="20.343" style="fill:#919191;fill-opacity:1;stroke:#0e2a0e;stroke-width:3;stroke-dasharray:none;stroke-opacity:1"/><g fill="#000" fill-rule="evenodd" style="fill:#22661d;fill-opacity:1;stroke:#0e2a0e;stroke-width:4.42294;stroke-dasharray:none;stroke-opacity:1"><path d="M61.821 11.045c.703-1.309-.891-.912-.891-.912s-10.627 10.201-12.104 8.951S59.231 8.057 57.825 6.23c-1.301-1.703-11.74 10.455-12.994 8.97-1.242-1.482 8.939-12.123 8.939-12.123s.387-1.602-.912-.9C36.851 10.785 34.812 18.81 34.812 18.81s-.551 1.563.645 2.771c.117.105-29.204 29.26-33.129 33.196-1.91 1.908 5.098 8.801 6.996 6.893 3.926-3.936 33.024-33.303 33.129-33.194 1.207 1.205 2.766.652 2.766.652s8.012-2.045 16.602-18.083" style="fill:#22661d;fill-opacity:1;stroke:#0e2a0e;stroke-width:4.42295;stroke-dasharray:none;stroke-opacity:1" transform="matrix(-.48337 0 0 -.42301 -136.542 196.315)"/><path d="M32.028 40.507c7.803 7.82 20.958 20.999 20.958 20.999s5.742-1.879 6.551-6.729L38.662 33.861a5104 5104 0 0 0-6.634 6.646M21.76 33.729a5059 5059 0 0 0 8.387-8.4L7.459 2.598s-.41-.43-1.313.477C4.353 4.862.884 16.248 15.591 30.977c2.331 2.336 4.359 2.66 6.169 2.752" style="fill:#22661d;fill-opacity:1;stroke:#0e2a0e;stroke-width:4.42295;stroke-dasharray:none;stroke-opacity:1" transform="matrix(-.48337 0 0 -.42301 -136.542 196.315)"/></g></g></svg>