<svg xmlns="http://www.w3.org/2000/svg" xmlns:xlink="http://www.w3.org/1999/xlink" width="564.336" height="1127.789" viewBox="0 0 149.314 298.394"><defs><radialGradient xlink:href="#c" id="e" cx="2677.142" cy="-665.587" r="13.245" fx="2677.142" fy="-665.587" gradientTransform="matrix(1.81979 0 0 1.76612 -2193.673 529.406)" gradientUnits="userSpaceOnUse"/><radialGradient xlink:href="#c" id="f" cx="2677.142" cy="-665.587" r="13.245" fx="2677.142" fy="-665.587" gradientTransform="matrix(1 0 0 .9705 30.966 -30.431)" gradientUnits="userSpaceOnUse"/><pattern xlink:href="#b" id="d" x="0" y="0" patternTransform="rotate(90 787.621 -8620.626)scale(.1)" preserveAspectRatio="xMidYMid"/><pattern id="b" width="633.869" height="1283.504" patternTransform="translate(-7579.309 11668.907)" patternUnits="userSpaceOnUse"><path d="M426.308 1073.332h203.403v206.014H426.308zM215.062 1073.332h203.403v206.014H215.062zM4.157 1073.332H207.56v206.014H4.157zM426.308 859.612h203.403v206.014H426.308zM215.062 859.612h203.403v206.014H215.062zM4.157 859.612H207.56v206.014H4.157zM426.308 645.604h203.403v206.014H426.308zM215.062 645.604h203.403v206.014H215.062zM4.157 645.604H207.56v206.014H4.157zM426.308 431.884h203.403v206.014H426.308zM215.062 431.884h203.403v206.014H215.062zM4.157 431.884H207.56v206.014H4.157zM426.308 217.876h203.403V423.89H426.308zM215.062 217.876h203.403V423.89H215.062zM4.157 217.876H207.56V423.89H4.157zM426.308 4.157h203.403v206.014H426.308zM215.062 4.157h203.403v206.014H215.062zM4.157 4.157H207.56v206.014H4.157z" style="fill:#595959;fill-opacity:1;stroke:#3e3e3e;stroke-width:8.31492;stroke-dasharray:none;stroke-opacity:1;paint-order:fill markers stroke;stop-color:#000"/></pattern><linearGradient id="c"><stop offset="0" style="stop-color:#000;stop-opacity:.89803922"/><stop offset="1" style="stop-color:#000;stop-opacity:0"/></linearGradient></defs><path d="M2727.715-824.065v298.234l-140.367-1.058h-.544v-297.176z" style="fill:url(#d);fill-opacity:1;stroke:none;stroke-width:4.99999;stroke-dasharray:none;stroke-opacity:1" transform="translate(-2583.266 824.219)"/><path d="m2589.334-824.156.461 297.287 138.71.61v-297.897z" style="fill:#2a2a2a;fill-opacity:.444737;stroke-width:.687206" transform="translate(-2583.266 824.219)"/><path d="M2723.231-574.898c.116-2.483.338-4.94.338-7.43 0-2.051.254-4.303-.084-6.331-.305-1.827-.035-9.913-1.266-11.144-2.292-2.292-3.353 7.066-6.839 9.202-2.418 1.481 5.766 7.12 3.63 10.975-1.423 2.569 3.388 3.728 4.222 4.728z" style="fill:maroon;fill-opacity:.6;stroke:none;stroke-width:2.291;stroke-linecap:square;stroke-linejoin:round;stroke-opacity:1" transform="translate(-2583.266 824.219)"/><path d="M2631.164-636.442c-5.145-1.226-24.235-7.05-21.268-15.95.945-2.834 6.673-5.138 5.71-8.665-2.02-7.412-15.648-12.909-9.452-21.86 4.964-7.169 32.678-12.663 35.053-.787 1.438 7.188-8.642 7.349-9.452 12.21-.845 5.071 6.292 7.212 6.892 12.012 1.803 14.426-4.846 13.811-7.483 23.04" style="fill:#2d565e;fill-opacity:.582979;stroke:none;stroke-width:.660929;stroke-linecap:square;stroke-linejoin:round;stroke-dasharray:none;stroke-opacity:.301961" transform="translate(-2583.266 824.219)"/><path d="m2659.804-535.33 63.27-.006-.01-287.65 8.35-.028.016 296.036-71.627.004zm-75.387 8.168h-.001v-295.9l71.612-.007v8.373l-63.256-.014v287.552z" style="fill:#4d4d4d;fill-opacity:1;fill-rule:evenodd;stroke:#212121;stroke-width:2.3;stroke-linecap:round;stroke-linejoin:miter;stroke-dasharray:none;stroke-opacity:1;stop-color:#000" transform="translate(-2583.266 824.219)"/><path d="M2684.65-571.606c3.254 9.56 19.06 12.698 22.54 1.098.41-1.366 1.5-3.524 1.014-4.981-.438-1.312-4.573-1.06-5.403-.507-.233.155-3.376 3.806-3.546 3.124-.709-2.833-.846-10.526-3.8-12.495-1.07-.714-.893 10.096-1.434 10.638-.471.47-5.338-6.619-6.586-5.995-1.337.669 1.728 5.195 1.351 5.572-.46.46-2.8-1.431-3.799-1.181-1.61.402-1.005 3.926-.338 4.727M2700.507-601.62c-2.383 5.82 4.243-2.426 0 0M2659.913-583.763c.795.314 1.688 1.013 2.533 1.013 13.727 0-11.15-4.706-2.533-1.013" style="fill:maroon;fill-opacity:.6;stroke:none;stroke-width:2.291;stroke-linecap:square;stroke-linejoin:round;stroke-opacity:1" transform="translate(-2583.266 824.219)"/><path fill="url(#a)" d="m2678.392-669.493-1.828 11.665a12.299 12.627 0 0 0-.159.035l-5.29-7.608 1.4 8.93-4.92-4.724 2.622 6.428a12.299 12.627 0 0 0-.1.102l-10.752-3.172 8.301 6.373a12.299 12.627 0 0 0-.196.37l-5.217-.856 4.684 2.09a12.299 12.627 0 0 0 0 .018l-10.479 1.087 9.71 4.45a12.299 12.627 0 0 0 .02.282l-6.957 1.838 6.24.263-11.415 8.149 13.699-4.649-6.654 9.408 9.314-6.648-1.625 10.374 5.687-8.111a12.299 12.627 0 0 0 .48.18l1.786 10.51 2.46-9.698 3.001 6.113-.558-5.425 7.472 7.198-3.362-10.743a12.299 12.627 0 0 0 .523-.402l6.216 3.163-3.227-5.757 12.994 3.716-11.518-7.622 8.415-.935-8.47-2.499a12.299 12.627 0 0 0 0-.208l10.017-6.665-11.455 1.19a12.299 12.627 0 0 0-.17-.307l3.536-3.863-4.36 2.02 8.01-11.424-10.852 9.15a12.299 12.627 0 0 0-.372-.255l3.022-6.248-5.177 5.118a12.299 12.627 0 0 0-.093-.037l1.657-7.841-3.854 7.21a12.299 12.627 0 0 0-.371-.065z" style="opacity:.8;fill:url(#e);stroke-width:.481485" transform="translate(-2583.266 824.219)"/><path d="M2708.71-582.665c-5.06 12.318 12.837-3.668 0 0M2694.358-591.867c-.147 1.044-.589 2.073-.169 3.123 1.998 4.995 3.614-5.092.17-3.123M2693.767-598.115c-.139 6.055 2.594.649 0 0M2684.903-587.055c-.993.545.808 5.355 2.026 4.136.49-.49-1.412-6.285-2.026-4.136M2703.392-592.374c-.347 5.13 5.362-1.258 2.363-1.857-1.363-.273-5.28 1.023-2.364 1.857M2679.246-589.588c1.082-2.863 5.325-2.837 4.728-6.416-.122-.734-1.125-.873-1.52-1.267-.426-.426.429-1.88-.169-2.532-.823-.899-3.168-1.955-4.474-1.52-4.154 1.385-1.58 4.825-2.026 6.163-.449 1.346-3.14 3.75-1.773 5.572 1.579 2.105 4.727 1.34 5.234 0M2680.681-604.7c1.082 3.715 1.378 2.224 2.955 1.435.31-.155 1.202.234 1.436 0 .284-.285-.842-.874-.507-1.097.336-.224 2.97-.357 2.195-1.52-1.254-1.881-6.079-.956-6.079 1.182M2672.577-594.738c-2.118 1.779.226 7.137 0 7.514-.948 1.58-4.907-2.71-4.981-3.377-.278-2.499 1.29-3.071 1.182-5.572-.065-1.49-1.106-2.28.59-2.28 2.572 0 2.132 2.207 3.209 3.715M2668.44-603.434c-.087.74.083 1.39.338 2.027 1.755 4.387 1.206-5.628-.338-2.027M2674.35-585.873c.649.504 1.525.593 2.195.928.346.173.38.504.337.845-.308 2.467-6.006-1.34-2.532-1.773" style="fill:maroon;fill-opacity:.6;stroke:none;stroke-width:2.291;stroke-linecap:square;stroke-linejoin:round;stroke-opacity:1" transform="translate(-2583.266 824.219)"/><path d="M2704.873-695.923c-5.145-1.227-24.235-7.05-21.268-15.951.944-2.834 6.673-5.138 5.71-8.665-2.02-7.412-15.648-12.908-9.452-21.859 4.964-7.17 32.678-12.664 35.053-.788 1.438 7.188-8.642 7.349-9.452 12.21-.846 5.071 6.292 7.212 6.892 12.012 1.803 14.426-4.846 13.812-7.483 23.04" style="fill:#2d565e;fill-opacity:.582979;stroke:none;stroke-width:.660929;stroke-linecap:square;stroke-linejoin:round;stroke-dasharray:none;stroke-opacity:.301961" transform="translate(-2583.266 824.219)"/><path fill="url(#a)" d="m2708.236-689.244-1.005 6.41a6.758 6.939 0 0 0-.087.02l-2.906-4.181.768 4.907-2.703-2.596 1.44 3.532a6.758 6.939 0 0 0-.055.056l-5.907-1.743 4.561 3.503a6.758 6.939 0 0 0-.108.203l-2.867-.47 2.574 1.148a6.758 6.939 0 0 0 0 .01l-5.758.597 5.336 2.446a6.758 6.939 0 0 0 .01.155l-3.822 1.01 3.428.144-6.272 4.478 7.528-2.555-3.657 5.17 5.118-3.653-.892 5.7 3.124-4.457a6.758 6.939 0 0 0 .264.1l.982 5.775 1.352-5.33 1.649 3.36-.307-2.981 4.106 3.955-1.848-5.903a6.758 6.939 0 0 0 .288-.221l3.416 1.738-1.774-3.164 7.14 2.042-6.329-4.188 4.625-.514-4.655-1.373a6.758 6.939 0 0 0 0-.114l5.505-3.663-6.295.653a6.758 6.939 0 0 0-.093-.168l1.943-2.123-2.396 1.11 4.401-6.277-5.963 5.028a6.758 6.939 0 0 0-.204-.14l1.66-3.434-2.845 2.813a6.758 6.939 0 0 0-.05-.02l.91-4.31-2.117 3.963a6.758 6.939 0 0 0-.205-.036z" style="opacity:.8;fill:url(#f);stroke-width:.264583" transform="translate(-2583.266 824.219)"/><path d="m2683.774-741.476.336 1.283 2.728.619 3.116 2.766 1.381-4.509-4.62-.333-2.566-2.279zM2636.63-667.287v6.495l-1.592-.368-5.025-.367v-1.471l-5.147 1.47 2.819 3.8v3.186h3.676v-1.593h5.515l5.147-.98-.245-4.658 1.593-1.593-1.103-2.573zM2634.801-680.706v2.206l-2.45 1.103.367 2.941h4.412v-1.716zM2677.699-736.23l2.45 2.574 1.226-2.941-3.186-1.593zM2643.606-648.959v4.902l-2.206-.857-1.715 1.225v-3.7990000000000004zM2633.47-651.171l2.206 4.412-1.961 1.593-3.8-1.47.859-1.84v-2.205zM2685.427-758.656v4.289l-.735 1.716v3.554h2.818l.123-4.535 1.96-.367v-1.348zM2675.253-754.368l-.123 4.902-2.206.49.245 6.373 6.496-.613-1.226-4.044 2.941-1.47-3.431-2.33.123-2.573z" style="fill:#0094b2;fill-opacity:.301961;stroke:#005666;stroke-width:1;stroke-linecap:square;stroke-linejoin:round;stroke-dasharray:none;stroke-opacity:.8" transform="translate(-2583.266 824.219)"/><g transform="rotate(180 1355.321 -355.04)"><path d="M2593.676-808.906c.939.708 2.811-1.304 3.592-.524.487.488-.182 2.807.15 2.844.58.064 3.57-1.143 3.74-.973.297.297-.253 1.303-.299 1.72-.095.856.078 2.027.449 2.77.556 1.112 3.338.709 4.34 1.346 1.352.86 1.008 1.793 1.57 2.918.422.841 1.832.908 2.096 2.095.357 1.608-.577 3.205-1.123 4.639-2.193 5.758-3.472 2.567-8.08 4.34-1.613.62-.89 1.563-1.721 2.393-.165.165-2.072-1.138-2.17-.748-.393 1.574 1.638 1.87-.598 1.87-1.491 0-2.842.218-3.966-1.047-2.347-2.64-3.14-23.643 2.02-23.643" style="fill:maroon;fill-opacity:.6;stroke:none;stroke-width:.660929;stroke-linecap:square;stroke-linejoin:round;stroke-dasharray:none;stroke-opacity:.301961"/><path d="M2636.126-798.217c1.731-2.317 4.156-9.78 3.024-1.862-.045.316-.378 2.196-.116 2.327.263.131 4.304-1.985 4.304-1.861 0 .88-3 2.043-3.49 3.024-.52 1.04 4.18.993 3.141 1.513-.728.364-1.868.477-2.675.697-2.655.725 2.51 4.052 1.977 5.119-.345.691-2.645-2.14-2.443.698.064.896.152 1.782.233 2.676.177 1.942-2.683-1.912-3.025-2.443-.118-.185-1.122-2.135-1.163-2.094-.739.738-.758 3.377-1.28 4.42-.782 1.566-3.517-2.443-3.606-2.443-1.919 0-2.535 5.701-5.467 3.258-4.216-3.514-7.4-8.87-5.119-14.193.878-2.049 4.263-2.517 5.468-3.722.76-.76-.13-3.012.465-3.606.06-.06 1.083 1.413 1.28 1.512.577.288 2.346-.446 2.792 0 .245.245-.28 2.466 0 2.56.94.313 1.478-1.065 2.21-.699.739.37-.459 2.346-.233 3.025.372 1.116 1.472-.971 1.978-.466 1.085 1.085.555 1.88 1.745 2.56M2639.383-805.197c-.56-5.17 2.449-2.04 0 0M2640.546-811.595c-.045 2.59 2.313-1.322 0 0M2645.316-800.311c4.42-3.31.888-3.554 0 0M2643.687-788.33c1.843 3.294 3.128.392 0 0M2640.546-784.141c.907 4.668-3.094 0 0 0M2646.944-785.886c8.493 7.29 5.762 0 0 0M2624.493-810.897c.672 4.133 2.727.34 0 0" style="fill:maroon;fill-opacity:.6;stroke:none;stroke-width:1.058;stroke-linecap:square;stroke-linejoin:round;stroke-dasharray:none" transform="translate(-9.758 .574)"/><circle cx="2608.409" cy="-804.577" r="3.969" style="fill:#b4a894;fill-opacity:1;stroke:#27221b;stroke-width:1.5;stroke-linecap:round;stroke-miterlimit:4;stroke-dasharray:none;stroke-opacity:1"/><circle cx="2622.414" cy="-802.299" r="3.969" style="fill:#b4a894;fill-opacity:1;stroke:#27221b;stroke-width:1.5;stroke-linecap:round;stroke-miterlimit:4;stroke-dasharray:none;stroke-opacity:1"/><ellipse cx="2231.369" cy="-1552.013" rx="3.338" ry="5.067" style="fill:#b4a894;fill-opacity:1;stroke:#27221b;stroke-width:1.5;stroke-linecap:round;stroke-miterlimit:4;stroke-dasharray:none;stroke-opacity:1" transform="rotate(18.143)"/><ellipse cx="2618.609" cy="-780.035" rx="3.338" ry="5.067" style="fill:#b4a894;fill-opacity:1;stroke:#27221b;stroke-width:1.5;stroke-linecap:round;stroke-miterlimit:4;stroke-dasharray:none;stroke-opacity:1"/><circle cx="2612.378" cy="-792.67" r="11.906" style="fill:#97866b;fill-opacity:1;stroke:#27221b;stroke-width:1.5;stroke-linecap:round;stroke-linejoin:round;stroke-miterlimit:10;stroke-dasharray:none;stroke-opacity:1"/><path d="M2600.667-794.704a12 12 0 0 0-.195 2.034c0 6.575 5.33 11.906 11.906 11.906a11.9 11.9 0 0 0 7.345-2.57c-.761-.702-4.218 1.436-8.514.074-3.888-1.232-1.706-2.798-5.721-4.016-2.41-.732.187-3.96-1.325-4.61-1.377-.593-.6-2.508-3.496-2.818" style="fill:maroon;fill-opacity:.6;stroke:none;stroke-width:1.5;stroke-linecap:round;stroke-linejoin:round;stroke-miterlimit:10;stroke-dasharray:none;stroke-opacity:1"/><circle cx="2612.378" cy="-792.67" r="11.906" style="fill:none;fill-opacity:1;stroke:#27221b;stroke-width:1.5;stroke-linecap:round;stroke-linejoin:round;stroke-miterlimit:10;stroke-dasharray:none;stroke-opacity:1"/></g><g transform="rotate(180 1333.189 -294.664)"><path d="M2602.81-757.645c-3.179-.38-8.047-2.634-7.273-6.5.275-1.377 2.347-1.061 2.553-2.71.137-1.09-.614-4.492.155-5.261 2.083-2.083 5.435 1.683 7.197 1.934 2.17.31 6.019-1.053 7.97-.077 5.672 2.835-.37 4.223-1.702 6.887-.577 1.155-1.766 3.855-3.018 4.411-2.04.907-4.055 1.316-5.881 1.316" style="fill:maroon;fill-opacity:.6;stroke:none;stroke-width:1.5;stroke-linecap:square;stroke-linejoin:round;stroke-dasharray:none;stroke-opacity:1"/><circle cx="1807.366" cy="2015.781" r="3.969" style="fill:#b4a894;fill-opacity:1;stroke:#27221b;stroke-width:1.5;stroke-linecap:round;stroke-miterlimit:4;stroke-dasharray:none;stroke-opacity:1" transform="rotate(-64.168)"/><circle cx="1827.311" cy="2010.035" r="3.969" style="fill:#b4a894;fill-opacity:1;stroke:#27221b;stroke-width:1.5;stroke-linecap:round;stroke-miterlimit:4;stroke-dasharray:none;stroke-opacity:1" transform="rotate(-64.168)"/><ellipse cx="2353.021" cy="1369.947" rx="3.338" ry="5.067" style="fill:#b4a894;fill-opacity:1;stroke:#27221b;stroke-width:1.5;stroke-linecap:round;stroke-miterlimit:4;stroke-dasharray:none;stroke-opacity:1" transform="rotate(-46.025)"/><ellipse cx="1821.649" cy="2037.015" rx="3.338" ry="5.067" style="fill:#b4a894;fill-opacity:1;stroke:#27221b;stroke-width:1.5;stroke-linecap:round;stroke-miterlimit:4;stroke-dasharray:none;stroke-opacity:1" transform="rotate(-64.168)"/><path d="M2622.17-763.804c-.05-.618-.089-2.126.455-2.626.715-.656.739 2.356 1.097 2.423.32.06 3.197-1.202 3.337-.715.164.573-1.883 1.41-1.997 2.021-.086.459 1.536 1.55 1.118 1.934-.75.688-1.817-.131-2.382-.445 0-.005-1.445 2.578-2.103 2.213-.863-.479.413-2.007.147-2.296-.277-.302-2.622-2.607-2.606-2.635.463-.834 2.59-.108 2.934.126" style="fill:maroon;fill-opacity:.6;stroke:none;stroke-width:1.5;stroke-linecap:square;stroke-linejoin:round;stroke-dasharray:none;stroke-opacity:1"/><circle cx="1818.124" cy="2021.901" r="11.906" style="fill:#97866b;fill-opacity:1;stroke:#27221b;stroke-width:1.5;stroke-linecap:round;stroke-linejoin:round;stroke-miterlimit:10;stroke-dasharray:none;stroke-opacity:1" transform="rotate(-64.168)"/><path d="m2612.356-767.32-.257.013c1.117 1.792 2.701 4.123 3.6 4.348 1.107.277 1.96-1.186 3.278.132.745.746-.808 2.685-.443 2.969.513.399 1.617.287 1.994.664.161.162.067.982.31 1.286.997 1.246 2.2 2.08 3.14 3.052a11.906 11.906 0 0 0-11.622-12.463m-5.795 19.77c-.264.017-1.075.619-2.162 1.196.76.655 1.601 1.21 2.501 1.654a11.91 11.91 0 0 0 10.916-.308c-1.996-.533-4.116-1.804-5.662-2.135-1.254-.269-2.404 1.527-3.854 1.285-.887-.148-.912-1.298-1.684-1.684-.014-.007-.035-.006-.055-.009z" style="fill:maroon;fill-opacity:.6;stroke:none;stroke-width:1.5;stroke-linecap:round;stroke-linejoin:round;stroke-miterlimit:10;stroke-dasharray:none;stroke-opacity:1"/><circle cx="1818.124" cy="2021.901" r="11.906" style="fill:none;fill-opacity:1;stroke:#27221b;stroke-width:1.5;stroke-linecap:round;stroke-linejoin:round;stroke-miterlimit:10;stroke-dasharray:none;stroke-opacity:1" transform="rotate(-64.168)"/><path d="M2622.407-770.216c.123.295.092.602.117.906.285 3.484 1.638-1.778.364-1.413-.283.08-.376.27-.48.507M2627.893-765.072c.803 1.844 2.242-1.184.461-.673-.331.095-.402.355-.461.673M2630.657-766.348c-1.264.64 1.087 1.174.432.218-.134-.196-.182-.218-.432-.218M2632.813-766.767c.321-.074.6-.23.89-.369 3.083-1.466.298 1.827-.89.37M2626.784-760.402c-.027 1.56 1.416-.405 0 0M2628.501-759.471c.583-.62 1.582 1.134.704 1.164-.457.016-1.15-.886-.704-1.164" style="fill:maroon;fill-opacity:.6;stroke:none;stroke-width:1.5;stroke-linecap:square;stroke-linejoin:round;stroke-dasharray:none;stroke-opacity:1"/></g></svg>