<svg xmlns="http://www.w3.org/2000/svg" width="175" height="175" viewBox="0 0 46.302 46.302"><g style="stroke-width:.729845"><path d="m147.63 212.544-1.322-8.2 4.232-6.195 8.665-1.574 4.96 5.835-.312 9.176-9.585 3.146z" style="fill:gray;fill-opacity:1;stroke:none;stroke-width:1.54483;stroke-linecap:round;stroke-linejoin:round;stroke-dasharray:none;stroke-opacity:1;paint-order:normal" transform="matrix(2.39833 0 0 2.3972 -349.158 -469.843)"/><path d="m163.853 211.586.312-9.176-4.96-5.835.844 4.642.226 5.376z" style="opacity:1;fill:#666;fill-opacity:1;stroke:none;stroke-width:1.54483;stroke-linecap:round;stroke-linejoin:round;stroke-dasharray:none;stroke-opacity:1;paint-order:normal" transform="matrix(2.39833 0 0 2.3972 -349.158 -469.843)"/><path d="m150.54 198.15-4.232 6.195 1.321 8.199 6.639 2.188-3.807-4.39-.767-4.089z" style="opacity:1;fill:#999;fill-opacity:1;stroke:none;stroke-width:1.54483;stroke-linecap:round;stroke-linejoin:round;stroke-dasharray:none;stroke-opacity:1;paint-order:normal" transform="matrix(2.39833 0 0 2.3972 -349.158 -469.843)"/><path d="m154.268 214.732-6.639-2.188-1.32-8.2 4.231-6.195 8.665-1.574 4.96 5.835-.312 9.176z" style="fill:none;fill-opacity:1;stroke:#333;stroke-width:1.15863;stroke-linecap:round;stroke-linejoin:round;stroke-dasharray:none;stroke-opacity:1;paint-order:normal" transform="matrix(2.39833 0 0 2.3972 -349.158 -469.843)"/></g><path fill="none" d="M127.496 172.844h26.458v26.458h-26.458z" style="fill:#000;fill-opacity:0;stroke:none;stroke-width:2.11667;stroke-linecap:round;stroke-linejoin:miter;stroke-dasharray:none;stroke-opacity:1;paint-order:normal" transform="translate(-223.117 -302.476)scale(1.75)"/></svg>