<svg xmlns="http://www.w3.org/2000/svg" width="175" height="175" viewBox="0 0 46.302 46.302"><g style="stroke-width:.788632"><path d="m168.725 229.69-1.478-10.165 3.445-6.117 9.461-.498 6.007 1.815 1.124 12.256-9.247 4.504z" style="fill:gray;fill-opacity:1;stroke:none;stroke-width:1.66929;stroke-linecap:round;stroke-linejoin:round;stroke-dasharray:none;stroke-opacity:1;paint-order:normal" transform="matrix(2.21326 0 0 2.2248 -368.776 -471.196)"/><path d="m168.725 229.69 9.312 1.795 9.247-4.504-.997-12.674-2.596 8.593-2.911 3.237-4.82.61z" style="opacity:1;fill:#666;fill-opacity:1;stroke:none;stroke-width:1.66929;stroke-linecap:round;stroke-linejoin:round;stroke-dasharray:none;stroke-opacity:1;paint-order:normal" transform="matrix(2.21326 0 0 2.2248 -368.776 -471.196)"/><path d="m180.153 212.91-9.46.498-3.446 6.117 1.478 10.166 1.888-8.18 3.244-4.561z" style="opacity:1;fill:#999;fill-opacity:1;stroke:none;stroke-width:1.66929;stroke-linecap:round;stroke-linejoin:round;stroke-dasharray:none;stroke-opacity:1;paint-order:normal" transform="matrix(2.21326 0 0 2.2248 -368.776 -471.196)"/><path d="m178.037 231.485-9.312-1.794-1.478-10.166 3.445-6.117 9.461-.498 6.007 1.815.755 12.75z" style="fill:none;fill-opacity:1;stroke:#333;stroke-width:1.25196;stroke-linecap:round;stroke-linejoin:round;stroke-dasharray:none;stroke-opacity:1;paint-order:normal" transform="matrix(2.21326 0 0 2.2248 -368.776 -471.196)"/></g><path fill="none" d="M127.499 199.294h26.458v26.458h-26.458z" style="fill:#000;fill-opacity:0;stroke:none;stroke-width:2.11667;stroke-linecap:round;stroke-linejoin:miter;stroke-dasharray:none;stroke-opacity:1;paint-order:normal" transform="translate(-223.124 -348.764)scale(1.75)"/></svg>