<svg xmlns="http://www.w3.org/2000/svg" width="72" height="49.846" viewBox="0 0 19.05 13.188"><rect width="18.338" height="12.477" x=".356" y=".356" rx="1.099" ry="1.099" style="fill:#1f55cc;fill-opacity:1;stroke:#13337a;stroke-width:.711814;stroke-linecap:round;stroke-linejoin:round;stroke-miterlimit:10;stroke-opacity:1"/><g aria-label="7.62" style="font-size:6.83341px;line-height:1.25;font-family:Jura;-inkscape-font-specification:Jura;letter-spacing:0;word-spacing:0;fill:#0f2a66;stroke-width:.170835"><path d="M2.93 4.203h3.69v.956L5.05 8.986H3.681l1.64-3.827H2.931ZM6.552 7.96h1.23v1.026h-1.23ZM9.56 4.134q.935 0 2.254.137v.922l-.642-.034q-.26-.02-.43-.027l-.329-.027q-.273-.014-.505-.014-.417 0-.417.342v.615q.663-.137 1.162-.137h.478q.465 0 .745.28t.28.745v.888q0 .622-.314.93-.315.3-.984.3H9.559q-.67 0-.984-.3-.314-.308-.314-.93V5.433q0-.67.314-.984.314-.315.984-.315m.75 2.734q-.259 0-.477.027-.212.027-.342.04v.753q0 .41.41.41h.615q.41 0 .41-.41v-.581q0-.103-.068-.171-.069-.068-.171-.068zM16.12 5.706q0 .58-.493 1.004-.15.13-.328.26L13.83 8.03h2.29v.956h-3.69V7.688l2.46-1.777v-.342q0-.41-.41-.41h-1.914v-.956h2.187q.717 0 1.038.328.328.32.328 1.038z" style="font-family:&quot;Russo One&quot;;-inkscape-font-specification:&quot;Russo One&quot;"/></g><circle cx="16.852" cy="2.198" r=".733" style="fill:none;fill-opacity:1;stroke:#13337a;stroke-width:.366346;stroke-linecap:round;stroke-linejoin:round;stroke-miterlimit:4;stroke-dasharray:none;stroke-opacity:1"/><circle cx="16.852" cy="10.99" r=".733" style="fill:none;fill-opacity:1;stroke:#13337a;stroke-width:.366346;stroke-linecap:round;stroke-linejoin:round;stroke-miterlimit:4;stroke-dasharray:none;stroke-opacity:1"/><circle cx="2.198" cy="10.99" r=".733" style="fill:none;fill-opacity:1;stroke:#13337a;stroke-width:.366346;stroke-linecap:round;stroke-linejoin:round;stroke-miterlimit:4;stroke-dasharray:none;stroke-opacity:1"/><circle cx="2.198" cy="2.198" r=".733" style="fill:none;fill-opacity:1;stroke:#13337a;stroke-width:.366346;stroke-linecap:round;stroke-linejoin:round;stroke-miterlimit:4;stroke-dasharray:none;stroke-opacity:1"/></svg>