<svg xmlns="http://www.w3.org/2000/svg" width="235.082" height="100.393" fill="none" stroke-linecap="square" stroke-miterlimit="10"><clipPath id="a"><path d="M0 0h591.058v259.478H0Z"/></clipPath><g clip-path="url(#a)" transform="translate(-2.1 -2.731)"><path fill="#3f4c39" fill-rule="evenodd" d="M3.1 39.22 132.477 3.885l-6.018 5.634 22.065-3.585-21.06 13.315 16.046-5.122 9.026-4.097-5.014 8.194 12.035-2.05-10.03 8.195L33.19 59.192l-21.06 1.024 9.025-6.658-18.054.513 6.017-6.145 9.029-6.146z" style="stroke-width:2;stroke-miterlimit:10;stroke-dasharray:none;fill:#4e5c3d;fill-opacity:1"/><path stroke="#353c32" stroke-linecap="butt" stroke-linejoin="round" stroke-width="1.607" d="M3.1 39.22 132.477 3.885l-6.018 5.634 22.065-3.585-21.06 13.315 16.046-5.122 9.026-4.097-5.014 8.194 12.035-2.05-10.03 8.195L33.19 59.192l-21.06 1.024 9.025-6.658-18.054.513 6.017-6.145 9.029-6.146z" style="stroke:#1a1f14;stroke-width:2;stroke-miterlimit:10;stroke-dasharray:none;stroke-opacity:1"/><path fill="#3f4c39" fill-rule="evenodd" d="m222.72 95.311-112.452-65.61 8.848.571-16.965-12.707 25.16 5.98-14.617-7.68-9.324-3.562 10.543-1.7-9.337-6.872 13.661 1.696L222.121 62.53l14.02 13.62-11.646-1.972 11.687 11.902-9.31-.253-11.184-2.291z" style="stroke-width:2;stroke-miterlimit:10;stroke-dasharray:none;fill:#4e5c3d;fill-opacity:1"/><path stroke="#353c32" stroke-linecap="butt" stroke-linejoin="round" stroke-width="1.607" d="m222.72 95.311-112.452-65.61 8.848.571-16.965-12.707 25.16 5.98-14.617-7.68-9.324-3.562 10.543-1.7-9.337-6.872 13.661 1.696L222.121 62.53l14.02 13.62-11.646-1.972 11.687 11.902-9.31-.253-11.184-2.291z" style="stroke:#1a1f14;stroke-width:2;stroke-miterlimit:10;stroke-dasharray:none;stroke-opacity:1"/><path fill="#3e413c" fill-rule="evenodd" d="m158.49 58.067 12.67 12.106 10.762-1.417 10.013-7.733 15.542-30.984-25.283-1.225-12.441-8.486-15.81 26.763z" style="stroke-width:2;stroke-miterlimit:10;stroke-dasharray:none"/><path stroke="#2f322e" stroke-linecap="butt" stroke-linejoin="round" stroke-width="1.607" d="m158.49 58.067 12.67 12.106 10.762-1.417 10.013-7.733 15.542-30.984-25.283-1.225-12.441-8.486-15.81 26.763z" style="stroke:#191b19;stroke-width:2;stroke-miterlimit:10;stroke-dasharray:none;stroke-opacity:1"/><path fill="#3e413c" fill-rule="evenodd" d="m98.664 77.405-6.057-31.278 43.063 11.331-20.01 6.557 2.782 11.288-16.044 11.42z" style="stroke-width:2;stroke-miterlimit:10;stroke-dasharray:none"/><path stroke="#2f322e" stroke-linecap="butt" stroke-linejoin="round" stroke-width="1.607" d="m98.664 77.405-6.057-31.278 43.063 11.331-20.01 6.557 2.782 11.288-16.044 11.42z" style="stroke:#191b19;stroke-width:2;stroke-miterlimit:10;stroke-dasharray:none;stroke-opacity:1"/><path fill="#999" fill-rule="evenodd" d="m82.998 62.146-1.244-7.361-1.696-1.715-1.018 1.941 1.453 7.406-1.188.145.324 1.987 4.945-.674.143-.611-.184-1.376z" style="stroke-width:2;stroke-miterlimit:10;stroke-dasharray:none"/><path stroke="#353c32" stroke-linecap="butt" stroke-linejoin="round" stroke-width="1.205" d="m82.998 62.146-1.244-7.361-1.696-1.715-1.018 1.941 1.453 7.406-1.188.145.324 1.987 4.945-.674.143-.611-.184-1.376z" style="stroke:#181c17;stroke-width:1;stroke-miterlimit:10;stroke-dasharray:none;stroke-opacity:1"/><path fill="#999" fill-rule="evenodd" d="m119.636 40.533-8.384 1.693-1.835 1.605 2.325.712 8.418-1.877.268 1.012 2.264-.447-1.194-4.201-.718-.072-1.57.275z" style="stroke-width:2;stroke-miterlimit:10;stroke-dasharray:none"/><path stroke="#353c32" stroke-linecap="butt" stroke-linejoin="round" stroke-width="1.205" d="m119.636 40.533-8.384 1.693-1.835 1.605 2.325.712 8.418-1.877.268 1.012 2.264-.447-1.194-4.201-.718-.072-1.57.275z" style="stroke:#181c17;stroke-width:1;stroke-miterlimit:10;stroke-dasharray:none;stroke-opacity:1"/><path fill="#999" fill-rule="evenodd" d="m163.544 21.526 7.092-4.22 1.03-2.073-2.465.07-7.045 4.402-.677-.857-1.919 1.13 2.886 3.535.698-.16 1.346-.75z" style="stroke-width:2;stroke-miterlimit:10;stroke-dasharray:none"/><path stroke="#353c32" stroke-linecap="butt" stroke-linejoin="round" stroke-width="1.205" d="m163.544 21.526 7.092-4.22 1.03-2.073-2.465.07-7.045 4.402-.677-.857-1.919 1.13 2.886 3.535.698-.16 1.346-.75z" style="stroke:#181c17;stroke-width:1;stroke-miterlimit:10;stroke-dasharray:none;stroke-opacity:1"/><path fill="#3f4c39" fill-rule="evenodd" d="m101.052 65.277 94.98-6.383 9.674 1.818-10.907 4.353 17.867 2.817-5.87 5.554-9.763 1.233 12.958 3.13-16.438 5.622-28.397 1.818-4.323-5.206-5.895 5.25-38.59 2.165-8.713-7.058 8.194-7.224z" style="stroke-width:2;stroke-miterlimit:10;stroke-dasharray:none;fill:#4e5c3d;fill-opacity:1"/><path stroke="#353c32" stroke-linecap="butt" stroke-linejoin="round" stroke-width="1.607" d="m101.052 65.277 94.98-6.383 9.674 1.818-10.907 4.353 17.867 2.817-5.87 5.554-9.763 1.233 12.958 3.13-16.438 5.622-28.397 1.818-4.323-5.206-5.895 5.25-38.59 2.165-8.713-7.058 8.194-7.224z" style="stroke:#1a1f14;stroke-width:2;stroke-miterlimit:10;stroke-dasharray:none;stroke-opacity:1"/><path fill="#3e413c" fill-rule="evenodd" d="m56.214 102.124 35.36-21.982-50.856-37.279 23.655 32.013-6.738 9.1-11.054.608Z" style="stroke-width:2;stroke-miterlimit:10;stroke-dasharray:none"/><path stroke="#2f322e" stroke-linecap="butt" stroke-linejoin="round" stroke-width="1.607" d="m56.214 102.124 35.36-21.982-50.856-37.279 23.655 32.013-6.738 9.1-11.054.608Z" style="stroke:#191b19;stroke-width:2;stroke-miterlimit:10;stroke-dasharray:none;stroke-opacity:1"/></g></svg>