<svg xmlns="http://www.w3.org/2000/svg" width="1005.69" height="985.645" fill="none"><path fill="#3a4f3f" d="M382.435 468.272c129.31 0 234.136-104.826 234.136-234.136S511.745 0 382.435 0 148.299 104.826 148.299 234.136s104.826 234.136 234.136 234.136" opacity=".95" style="fill:#c21d0f;fill-opacity:.85097986;stroke-width:2.66064"/><path fill="#3a4f3f" d="M813.022 543.834c106.408 0 192.668-86.26 192.668-192.667 0-106.409-86.26-192.669-192.668-192.669-106.407 0-192.668 86.26-192.668 192.669 0 106.407 86.26 192.667 192.668 192.667" opacity=".95" style="fill:#c21d0f;fill-opacity:.85097986;stroke-width:2.18941"/><path fill="#3a4f3f" d="M655.746 358.323c82.074 0 148.609-66.534 148.609-148.608S737.82 61.107 655.746 61.107c-82.073 0-148.607 66.534-148.607 148.608s66.534 148.608 148.607 148.608" opacity=".95" style="fill:#d21c11;fill-opacity:.825068;stroke-width:1.68873"/><path d="M833.572 231.373c-53.572 0-98.935 35.085-114.408 83.525-33.642-33.319-79.913-53.91-131.004-53.91-102.829 0-186.187 83.359-186.187 186.188s83.358 186.19 186.187 186.19c99.934 0 181.456-78.736 185.97-177.553 17.532 10.009 37.81 15.757 59.442 15.757 66.33 0 120.1-53.77 120.1-120.1 0-66.328-53.77-120.097-120.1-120.097" style="fill:#d21c11;fill-opacity:.825068;stroke-width:1.36476"/><path fill="#3a4f3f" d="M774.349 858.43c113.565 0 205.627-92.062 205.627-205.627 0-113.564-92.062-205.627-205.627-205.627-113.564 0-205.626 92.063-205.626 205.627S660.785 858.43 774.349 858.43" opacity=".95" style="fill:#c21d0f;fill-opacity:.85097986;stroke-width:2.33667"/><path fill="#3a4f3f" d="M493.256 985.645c113.565 0 205.627-92.063 205.627-205.627S606.82 574.391 493.256 574.391c-113.564 0-205.627 92.063-205.627 205.627s92.063 205.627 205.627 205.627" opacity=".95" style="fill:#c21d0f;fill-opacity:.85097986;stroke-width:2.33667"/><path fill="#3a4f3f" d="M755.492 770.418c66.33 0 120.099-53.77 120.099-120.098 0-66.33-53.77-120.1-120.099-120.1-66.328 0-120.098 53.77-120.098 120.1 0 66.328 53.77 120.098 120.098 120.098" opacity=".95" style="fill:#d21c11;fill-opacity:.825068;stroke-width:1.36476"/><path fill="#3a4f3f" d="M325.686 350c82.074 0 148.608-66.533 148.608-148.607S407.76 52.785 325.686 52.785s-148.608 66.534-148.608 148.608 66.534 148.608 148.608 148.608" opacity=".95" style="fill:#d21c11;fill-opacity:.825068;stroke-width:1.68873"/><path fill="#3a4f3f" d="M192.667 721.36c106.409 0 192.669-86.26 192.669-192.668 0-106.407-86.26-192.668-192.669-192.668C86.261 336.024 0 422.284 0 528.692S86.26 721.36 192.667 721.36" opacity=".95" style="fill:#c21d0f;fill-opacity:.85097986;stroke-width:2.18941"/><path fill="#3a4f3f" d="M254.2 881.3c82.074 0 148.608-66.534 148.608-148.608s-66.534-148.608-148.609-148.608c-82.073 0-148.607 66.534-148.607 148.608S172.126 881.3 254.199 881.3" opacity=".95" style="fill:#c21d0f;fill-opacity:.85097986;stroke-width:1.68873"/><path fill="#3a4f3f" d="M440.603 727.781c82.074 0 148.608-66.534 148.608-148.607 0-82.074-66.534-148.609-148.608-148.609S291.995 497.1 291.995 579.174c0 82.073 66.534 148.607 148.608 148.607" opacity=".95" style="fill:#d21c11;fill-opacity:.825068;stroke-width:1.68873"/><path d="M138.605 433.09c3.26-4.565 7.706-10.457 12.194-13.61" class="st4" style="clip-rule:evenodd;opacity:.8;fill:#c93d2b;fill-opacity:.921569;fill-rule:evenodd;stroke:#a4412d;stroke-width:9.00004;stroke-linecap:round;stroke-linejoin:round;stroke-miterlimit:45.3543;stroke-dasharray:none"/><path d="m102.44 473.46 16.118-6.04 3.987 4.716 8.51-13.791 3.15 11.451 2.076-1.156 8.263 9.69 3.972-12.555 2.179 1.745.677-13.636 15.983.493-6.278-7.496 2.524-.961-9.285-8.318 3.576-6.777-19.177 2.26.147-19.31-6.343 4.297-9.285-8.318-.68 2.614-8.138-5.42 2.073 15.788-13.48 2.166 1.973 1.975-12.045 5.322 10.537 7.153-.921 2.189 11.727 1.878-12.777 9.969 5.125 3.447z" class="st5" style="fill:#df0a00;fill-opacity:.9401198;stroke-width:9.00004;stroke-miterlimit:45.3543;stroke-dasharray:none"/><path d="M521.534 851.216c-3.684-4.23-8.383-9.923-10.408-15.02" class="st4" style="clip-rule:evenodd;opacity:.8;fill:#c93d2b;fill-opacity:.921569;fill-rule:evenodd;stroke:#a4412d;stroke-width:9.00004;stroke-linecap:round;stroke-linejoin:round;stroke-miterlimit:45.3543;stroke-dasharray:none"/><path d="m552.405 895.765-2.133-17.08 5.513-2.784-11.44-11.479 11.87-.406-.642-2.287 11.344-5.788-11.29-6.778 2.202-1.715-13.106-3.823 4.19-15.432-8.749 4.366-.349-2.678-10.246 7.1-5.761-5.051-2.254 19.178-18.748-4.626 2.707 7.168-10.247 7.1 2.386 1.267-7.162 6.658 15.838 1.649-1.023 13.614 2.38-1.46 2.38 12.951 9.404-8.589 1.915 1.405 4.55-10.971 6.73 14.742 4.542-4.184z" class="st5" style="fill:#df0a00;fill-opacity:.9401198;stroke-width:9.00004;stroke-miterlimit:45.3543;stroke-dasharray:none"/><path d="M844.902 687.515c-4.883-2.76-11.21-6.562-14.818-10.693" class="st4" style="clip-rule:evenodd;opacity:.8;fill:#c93d2b;fill-opacity:.921569;fill-rule:evenodd;stroke:#a4412d;stroke-width:9.00004;stroke-linecap:round;stroke-linejoin:round;stroke-miterlimit:45.3543;stroke-dasharray:none"/><path d="m888.853 719.23-7.702-15.393 4.27-4.461-14.611-7.01 11.056-4.34-1.368-1.941 8.767-9.238-12.904-2.628 1.506-2.35-13.631.761-1.192-15.946-6.794 7.033-1.222-2.41-7.294 10.11-7.115-2.843 4.265 18.832-19.217 1.886 4.94 5.857-7.294 10.109 2.67.4-4.532 8.664 15.481-3.724 3.573 13.177 1.757-2.17 6.56 11.418 6.004-11.231 2.274.686.633-11.86 11.258 11.656 2.889-5.458z" class="st5" style="fill:#f20b00;fill-opacity:.94117647;stroke-width:9.00004;stroke-miterlimit:45.3543;stroke-dasharray:none"/><path d="M691.621 722.372c1.167-5.487 2.893-12.664 5.75-17.345" class="st4" style="clip-rule:evenodd;opacity:.8;fill:#c93d2b;fill-opacity:.921569;fill-rule:evenodd;stroke:#a4412d;stroke-width:9.00004;stroke-linecap:round;stroke-linejoin:round;stroke-miterlimit:45.3543;stroke-dasharray:none"/><path d="m674.57 773.82 12.369-11.97 5.538 2.733 2.299-16.042 7.459 9.243 1.441-1.888 11.444 5.587-1.368-13.097 2.694.73-4.82-12.773 14.851-5.926-8.748-4.368 1.931-1.889-11.833-3.922.575-7.64-16.682 9.725-7.57-17.764-4.103 6.47-11.833-3.921.42 2.668-9.625-1.722 8.201 13.649-11.495 7.365 2.597 1.024-8.92 9.686 12.515 2.354.029 2.375 11.503-2.958-7.738 14.24 6.074 1.115z" class="st5" style="fill:#df0a00;fill-opacity:.9401198;stroke-width:9.00004;stroke-miterlimit:45.3543;stroke-dasharray:none"/><path d="M790.364 261.83c-1.343 5.447-3.3 12.564-6.307 17.151" class="st4" style="clip-rule:evenodd;opacity:.8;fill:#c93d2b;fill-opacity:.921569;fill-rule:evenodd;stroke:#a4412d;stroke-width:9.00004;stroke-linecap:round;stroke-linejoin:round;stroke-miterlimit:45.3543;stroke-dasharray:none"/><path d="m809.072 210.962-12.75 11.563-5.447-2.91-2.817 15.959-7.156-9.48-1.502 1.84-11.257-5.954.944 13.134-2.669-.817 4.405 12.923-15.036 5.442 8.602 4.649-1.99 1.825 11.699 4.303-.822 7.618 16.989-9.18 6.991 18 4.31-6.336 11.7 4.303-.334-2.68 9.564 2.032-7.755-13.907 11.728-6.989-2.563-1.107 9.23-9.393-12.434-2.758.049-2.374-11.593 2.584 8.194-13.982-6.035-1.311z" class="st5" style="fill:#df0a00;fill-opacity:.9401198;stroke-width:9.00004;stroke-miterlimit:45.3543;stroke-dasharray:none"/><path d="M927.184 423.587c-4.117 3.81-9.667 8.678-14.7 10.855" class="st4" style="clip-rule:evenodd;opacity:.8;fill:#c93d2b;fill-opacity:.921569;fill-rule:evenodd;stroke:#a4412d;stroke-width:9.00004;stroke-linecap:round;stroke-linejoin:round;stroke-miterlimit:45.3543;stroke-dasharray:none"/><path d="m970.784 391.392-17.008 2.645-2.948-5.427-11.13 11.78-.763-11.853-2.266.711-6.127-11.165-6.435 11.49-1.78-2.15-3.428 13.214-15.551-3.724 4.628 8.614-2.667.43 7.405 10.027-4.876 5.91 19.237 1.677-4.06 18.878 7.083-2.92 7.405 10.028 1.196-2.423 6.87 6.958 1.171-15.88 13.639.613-1.531-2.334 12.874-2.77-8.868-9.14 1.347-1.957-11.103-4.217 14.533-7.17-4.319-4.415z" class="st5" style="fill:#f20b00;fill-opacity:.94117647;stroke-width:9.00004;stroke-miterlimit:45.3543;stroke-dasharray:none"/><path d="M397.233 126.951c3.597 4.304 8.178 10.092 10.099 15.23" class="st4" style="clip-rule:evenodd;opacity:.8;fill:#c93d2b;fill-opacity:.921569;fill-rule:evenodd;stroke:#a4412d;stroke-width:9.00004;stroke-linecap:round;stroke-linejoin:round;stroke-miterlimit:45.3543;stroke-dasharray:none"/><path d="m367.278 81.782 1.784 17.12-5.569 2.67 11.203 11.71-11.876.164.596 2.3-11.46 5.555 11.15 7.006-2.237 1.67 13.025 4.09-4.504 15.344 8.836-4.188.294 2.685 10.39-6.89 5.656 5.169 2.645-19.128 18.649 5.008-2.56-7.222 10.39-6.89-2.36-1.316 7.296-6.51-15.8-1.971 1.3-13.59-2.409 1.41-2.115-12.997-9.577 8.395-1.886-1.443-4.773 10.876-6.428-14.876-4.627 4.09z" class="st5" style="fill:#f20b00;fill-opacity:.94117647;stroke-width:9.00004;stroke-miterlimit:45.3543;stroke-dasharray:none"/><path d="M466.285 342.98c-.503 5.587-1.36 12.919-3.639 17.908" class="st4" style="clip-rule:evenodd;opacity:.8;fill:#c93d2b;fill-opacity:.921569;fill-rule:evenodd;stroke:#a4412d;stroke-width:9.00004;stroke-linecap:round;stroke-linejoin:round;stroke-miterlimit:45.3543;stroke-dasharray:none"/><path d="m477.077 289.866-10.852 13.36-5.825-2.053-.369 16.202-8.508-8.287-1.206 2.046-12.029-4.182 2.922 12.84-2.763-.403 6.31 12.106-14.039 7.656 9.207 3.293-1.692 2.106 12.217 2.482.34 7.654 15.403-11.645 9.636 16.734 3.301-6.914 12.216 2.482-.735-2.6 9.762.562-9.771-12.572 10.534-8.684-2.7-.707 7.7-10.682-12.707-.844-.311-2.354-11.068 4.309 5.984-15.06-6.164-.384z" class="st5" style="fill:#df0a00;fill-opacity:.9401198;stroke-width:9.00004;stroke-miterlimit:45.3543;stroke-dasharray:none"/><path d="M505.76 564.145c2.275-5.127 5.447-11.792 9.21-15.782" class="st4" style="clip-rule:evenodd;opacity:.8;fill:#c93d2b;fill-opacity:.921569;fill-rule:evenodd;stroke:#a4412d;stroke-width:9.00004;stroke-linecap:round;stroke-linejoin:round;stroke-miterlimit:45.3543;stroke-dasharray:none"/><path d="m478.44 610.956 14.577-9.154 4.854 3.819 5.565-15.22 5.387 10.585 1.8-1.55 10.043 7.833 1.368-13.097 2.485 1.271-2.076-13.494 15.757-2.727-7.657-6.082 2.28-1.45-10.767-6.282 2.142-7.357-18.332 6.066-3.735-18.945-5.351 5.483-10.767-6.283-.14 2.697-9.062-3.674 5.203 15.049-12.77 4.83 2.33 1.538-10.73 7.634 11.759 4.89-.464 2.33 11.866-.517-10.514 12.332 5.713 2.348z" class="st5" style="fill:#df0a00;fill-opacity:.9401198;stroke-width:9.00004;stroke-miterlimit:45.3543;stroke-dasharray:none"/><path d="M680.825 411.566c-4.349-3.543-9.945-8.356-12.806-13.035" class="st4" style="clip-rule:evenodd;opacity:.8;fill:#c93d2b;fill-opacity:.921569;fill-rule:evenodd;stroke:#a4412d;stroke-width:9.00004;stroke-linecap:round;stroke-linejoin:round;stroke-miterlimit:45.3543;stroke-dasharray:none"/><path d="m718.806 450.232-5-16.47 4.96-3.68-13.22-9.37 11.629-2.415-1.021-2.145 10.197-7.629-12.277-4.763 1.88-2.064-13.565-1.545 1.511-15.92-7.88 5.789-.8-2.58-8.892 8.735-6.535-4 1.033 19.282-19.26-1.378 3.882 6.605-8.893 8.735 2.566.845-5.928 7.776 15.888-1.062 1.302 13.59 2.097-1.843 4.544 12.36 7.81-10.06 2.126 1.06 2.622-11.585 9.133 13.387 3.767-4.894z" class="st5" style="fill:#f20b00;fill-opacity:.9401198;stroke-width:9.00004;stroke-miterlimit:45.3543;stroke-dasharray:none"/><path d="M291.359 726.798c1.484-5.409 3.625-12.473 6.75-16.98" class="st4" style="clip-rule:evenodd;opacity:.8;fill:#c93d2b;fill-opacity:.921569;fill-rule:evenodd;stroke:#a4412d;stroke-width:9.00004;stroke-linecap:round;stroke-linejoin:round;stroke-miterlimit:45.3543;stroke-dasharray:none"/><path d="m271.337 777.165 13.046-11.229 5.37 3.051 3.23-15.88 6.907 9.661 1.549-1.8 11.099 6.245-.603-13.155 2.647.886-4.068-13.032 15.172-5.05-8.479-4.871 2.038-1.773-11.584-4.605 1.02-7.594-17.222 8.736-6.522-18.175-4.472 6.221-11.584-4.605.264 2.688-9.509-2.28 7.392 14.104-11.905 6.682 2.533 1.174-9.47 9.15 12.357 3.08-.11 2.372 11.656-2.283-8.554 13.764 5.999 1.468z" class="st5" style="fill:#f20b00;fill-opacity:.94117647;stroke-width:9.00004;stroke-miterlimit:45.3543;stroke-dasharray:none"/><path d="M857.473 637.973c-5.358 1.66-12.465 3.656-17.945 3.447" class="st4" style="clip-rule:evenodd;opacity:.8;fill:#c93d2b;fill-opacity:.921569;fill-rule:evenodd;stroke:#a4412d;stroke-width:9.00004;stroke-linecap:round;stroke-linejoin:round;stroke-miterlimit:45.3543;stroke-dasharray:none"/><path d="m910.7 627.751-16.483-4.955-.317-6.168-15.124 5.822 4.427-11.021-2.35-.337-.708-12.716-10.764 7.586-.678-2.708-8.796 10.441-12.42-10.071.456 9.767-2.591-.764 2.351 12.242-6.95 3.227 16.63 9.816-11.811 15.276 7.65.423 2.351 12.242 2.124-1.669 3.194 9.242 7.911-13.819 12.038 6.44-.373-2.767 12.808 3.06-4.054-12.074 2.06-1.183-8.196-8.598 16.205-.194-1.99-5.847z" class="st5" style="fill:#df0a00;fill-opacity:.9401198;stroke-width:9.00004;stroke-miterlimit:45.3543;stroke-dasharray:none"/></svg>