<?xml version="1.0" encoding="UTF-8" standalone="no"?>
<svg
   width="165.71259"
   height="244.713"
   viewBox="0 0 43.844787 64.74698"
   version="1.1"
   id="svg1408"
   sodipodi:docname="table_residue.svg"
   inkscape:version="1.1.2 (0a00cf5339, 2022-02-04)"
   xmlns:inkscape="http://www.inkscape.org/namespaces/inkscape"
   xmlns:sodipodi="http://sodipodi.sourceforge.net/DTD/sodipodi-0.dtd"
   xmlns="http://www.w3.org/2000/svg"
   xmlns:svg="http://www.w3.org/2000/svg"
   xmlns:rdf="http://www.w3.org/1999/02/22-rdf-syntax-ns#"
   xmlns:cc="http://creativecommons.org/ns#"
   xmlns:dc="http://purl.org/dc/elements/1.1/">
  <defs
     id="defs1402" />
  <sodipodi:namedview
     id="base"
     pagecolor="#505050"
     bordercolor="#666666"
     borderopacity="1.0"
     inkscape:pageopacity="0"
     inkscape:pageshadow="2"
     inkscape:zoom="1.8799999"
     inkscape:cx="-104.25532"
     inkscape:cy="134.57447"
     inkscape:document-units="px"
     inkscape:current-layer="layer1"
     inkscape:document-rotation="0"
     showgrid="false"
     inkscape:window-width="2560"
     inkscape:window-height="1372"
     inkscape:window-x="0"
     inkscape:window-y="0"
     inkscape:window-maximized="1"
     fit-margin-top="0"
     fit-margin-left="0"
     fit-margin-right="0"
     fit-margin-bottom="0"
     inkscape:pagecheckerboard="1"
     units="px" />
  <metadata
     id="metadata1405">
    <rdf:RDF>
      <cc:Work
         rdf:about="">
        <dc:format>image/svg+xml</dc:format>
        <dc:type
           rdf:resource="http://purl.org/dc/dcmitype/StillImage" />
      </cc:Work>
    </rdf:RDF>
  </metadata>
  <g
     inkscape:label="Layer 1"
     inkscape:groupmode="layer"
     id="layer1"
     transform="translate(-108.72809,-171.15483)">
    <path
       id="rect848-6"
       style="fill:#785a2e;fill-opacity:1;stroke:#302412;stroke-width:0.529167;stroke-linecap:square;stroke-linejoin:miter;stroke-miterlimit:4;stroke-dasharray:none;stroke-opacity:1"
       d="m 125.63146,216.34606 3.85867,0.88211 -1.97404,0.6904 3.17449,-0.005 -3.18792,1.2175 3.54345,0.19017 0.20981,0.71365 -2.86959,0.18604 0.7214,0.63768 -3.47627,0.49248 h 16.91162 l -1.86603,-1.10329 -2.10478,0.26975 -0.51935,-0.58756 -2.50527,-0.78807 6.4363,-0.10438 -2.39882,-0.48835 1.86913,-0.67592 -2.06964,-0.42944 3.15846,-1.0976 z" />
    <path
       id="rect848"
       style="fill:#785a2e;fill-opacity:1;stroke:#302412;stroke-width:0.529167;stroke-linecap:square;stroke-linejoin:miter;stroke-miterlimit:4;stroke-dasharray:none;stroke-opacity:1"
       d="m 117.42349,190.07349 3.47369,0.0558 -0.80045,0.97203 1.02153,0.18852 -1.77095,1.15558 1.91616,0.0173 0.33142,0.37237 -0.26998,0.56562 -0.87505,0.46399 -1.73082,1.04376 16.33537,-4.37706 -1.59144,-0.51249 -1.58771,0.25208 -1.31515,-0.26605 1.87998,-1.22385 -3.09451,0.31505 4.169,-1.82167 -1.96993,0.0276 2.21427,-1.60553 z" />
    <path
       id="rect848-3"
       style="fill:#785a2e;fill-opacity:1;stroke:#302412;stroke-width:0.529167;stroke-linecap:square;stroke-linejoin:miter;stroke-miterlimit:4;stroke-dasharray:none;stroke-opacity:1"
       d="m 125.0255,199.01468 -2.77551,4.74373 -0.86891,0.39365 0.35436,-2.13115 -0.75694,1.02605 -0.5634,0.74088 0.66236,-2.40012 -0.95967,1.31734 0.87311,-2.90111 -0.77169,0.59785 -0.0281,-2.68249 -4.37692,16.33488 0.98623,-0.3483 0.52907,-0.56498 0.49278,-1.43175 0.4537,0.76463 1.43443,-2.78174 -1.09321,4.06834 1.0278,-0.10017 1.00351,-2.11986 9e-5,3.80918 z" />
    <path
       id="rect848-6-5"
       style="fill:#785a2e;fill-opacity:1;stroke:#302412;stroke-width:0.529167;stroke-linecap:square;stroke-linejoin:miter;stroke-miterlimit:4;stroke-dasharray:none;stroke-opacity:1"
       d="m 133.35755,194.58297 1.16995,3.82371 -1.20921,-1.16836 0.81133,2.41606 -1.29004,-1.41588 -1.07123,-0.671 0.0626,0.73478 0.81882,1.6229 0.095,1.06576 -1.85836,-2.27101 -1.86321,-1.63453 8.45581,14.6459 -0.73383,-2.83375 0.73541,0.51105 -1.45662,-4.01742 2.69385,3.5042 -1.11195,-2.58741 2.10857,2.29305 -0.89447,-2.59004 2.99337,3.21789 z" />
    <path
       id="rect848-7"
       style="fill:#785a2e;fill-opacity:1;stroke:#302412;stroke-width:0.529167;stroke-linecap:square;stroke-linejoin:miter;stroke-miterlimit:4;stroke-dasharray:none;stroke-opacity:1"
       d="m 129.469,202.49792 3.31467,2.02717 -2.43128,-0.0769 2.4458,1.26257 -2.22503,-0.13183 4.34092,1.75914 -1.91553,-0.065 0.0268,0.58283 -1.64054,-0.3904 -1.89911,-0.87694 -1.31203,0.74358 16.33488,4.37691 -0.46608,-0.7963 -0.96107,-0.58814 -0.94803,-0.0898 -0.32003,-1.00594 -1.19372,-1.11754 3.5545,1.13807 0.35672,-0.90004 -2.76963,-1.39375 4.04269,-0.0809 z" />
  </g>
</svg>
