<svg xmlns="http://www.w3.org/2000/svg" xmlns:xlink="http://www.w3.org/1999/xlink" width="817.203" height="878.066" viewBox="0 0 216.218 232.322"><defs><pattern xlink:href="#a" id="b" x="0" y="0" patternTransform="matrix(.3 0 0 .3 1788.322 1142.86)" preserveAspectRatio="xMidYMid"/><pattern id="a" width="145.805" height="516.946" patternTransform="translate(1788.322 1142.86)" patternUnits="userSpaceOnUse" preserveAspectRatio="xMidYMid"><path d="M1.657-144.148h129.236v36.451H1.657z" style="fill:#906b32;fill-opacity:1;stroke:#5b441f;stroke-width:3.31;stroke-linecap:round;stroke-dasharray:none;stroke-opacity:1" transform="rotate(90)"/><path d="M130.894-144.148H260.13v36.451H130.894zm129.236 0h129.236v36.451H260.13z" style="fill:#9e7437;fill-opacity:1;stroke:#5b441f;stroke-width:3.31;stroke-linecap:round;stroke-dasharray:none;stroke-opacity:1" transform="rotate(90)"/><path d="M144.15 389.366v127.58h-36.452v-127.58Z" style="color:#000;font-style:normal;font-variant:normal;font-weight:400;font-stretch:normal;font-size:medium;line-height:normal;font-family:sans-serif;font-variant-ligatures:normal;font-variant-position:normal;font-variant-caps:normal;font-variant-numeric:normal;font-variant-alternates:normal;font-variant-east-asian:normal;font-feature-settings:normal;font-variation-settings:normal;text-indent:0;text-align:start;text-decoration-line:none;text-decoration-style:solid;text-decoration-color:#000;letter-spacing:normal;word-spacing:normal;text-transform:none;writing-mode:lr-tb;direction:ltr;text-orientation:mixed;dominant-baseline:auto;baseline-shift:baseline;text-anchor:start;white-space:normal;shape-padding:0;shape-margin:0;inline-size:0;clip-rule:nonzero;display:inline;overflow:visible;visibility:visible;isolation:auto;mix-blend-mode:normal;color-interpolation:sRGB;color-interpolation-filters:linearRGB;solid-color:#000;solid-opacity:1;vector-effect:none;fill:#9e7437;fill-opacity:1;fill-rule:nonzero;stroke:none;stroke-width:14.2848;stroke-linecap:round;stroke-linejoin:miter;stroke-miterlimit:4;stroke-dasharray:none;stroke-dashoffset:0;stroke-opacity:1;-inkscape-stroke:none;color-rendering:auto;image-rendering:auto;shape-rendering:auto;text-rendering:auto;stop-color:#000"/><path d="M145.805 387.71H106.04v129.236h3.316V391.022h33.137v125.924h3.312z" style="color:#000;font-style:normal;font-variant:normal;font-weight:400;font-stretch:normal;font-size:medium;line-height:normal;font-family:sans-serif;font-variant-ligatures:normal;font-variant-position:normal;font-variant-caps:normal;font-variant-numeric:normal;font-variant-alternates:normal;font-variant-east-asian:normal;font-feature-settings:normal;font-variation-settings:normal;text-indent:0;text-align:start;text-decoration-line:none;text-decoration-style:solid;text-decoration-color:#000;letter-spacing:normal;word-spacing:normal;text-transform:none;writing-mode:lr-tb;direction:ltr;text-orientation:mixed;dominant-baseline:auto;baseline-shift:baseline;text-anchor:start;white-space:normal;shape-padding:0;shape-margin:0;inline-size:0;clip-rule:nonzero;display:inline;overflow:visible;visibility:visible;isolation:auto;mix-blend-mode:normal;color-interpolation:sRGB;color-interpolation-filters:linearRGB;solid-color:#000;solid-opacity:1;vector-effect:none;fill:#5d451f;fill-opacity:1;fill-rule:nonzero;stroke:none;stroke-width:14.2848;stroke-linecap:round;stroke-linejoin:miter;stroke-miterlimit:4;stroke-dasharray:none;stroke-dashoffset:0;stroke-opacity:1;-inkscape-stroke:none;color-rendering:auto;image-rendering:auto;shape-rendering:auto;text-rendering:auto;stop-color:#000"/><path d="M1.657-107.697h66.275v36.451H1.657z" style="fill:#a98256;fill-opacity:1;stroke:#5b441f;stroke-width:3.31;stroke-linecap:round;stroke-dasharray:none;stroke-opacity:1" transform="rotate(90)"/><path d="M67.932-107.697h129.236v36.451H67.932z" style="fill:#9e7437;fill-opacity:1;stroke:#5b441f;stroke-width:3.31;stroke-linecap:round;stroke-dasharray:none;stroke-opacity:1" transform="rotate(90)"/><path d="M260.13-71.246h129.236v36.451H260.13z" style="fill:#9e7437;fill-opacity:1;stroke:none;stroke-width:3.31;stroke-linecap:round;stroke-dasharray:none;stroke-opacity:1" transform="rotate(90)"/><path d="M197.169-107.697h129.236v36.451H197.169z" style="fill:#906b32;fill-opacity:1;stroke:#5b441f;stroke-width:3.31;stroke-linecap:round;stroke-dasharray:none;stroke-opacity:1" transform="rotate(90)"/><path d="M326.405-107.697h129.236v36.451H326.405z" style="fill:#9e7437;fill-opacity:1;stroke:#5b441f;stroke-width:3.31;stroke-linecap:round;stroke-dasharray:none;stroke-opacity:1" transform="rotate(90)"/><path d="M107.698 455.641v61.305H71.246V455.64z" style="color:#000;font-style:normal;font-variant:normal;font-weight:400;font-stretch:normal;font-size:medium;line-height:normal;font-family:sans-serif;font-variant-ligatures:normal;font-variant-position:normal;font-variant-caps:normal;font-variant-numeric:normal;font-variant-alternates:normal;font-variant-east-asian:normal;font-feature-settings:normal;font-variation-settings:normal;text-indent:0;text-align:start;text-decoration-line:none;text-decoration-style:solid;text-decoration-color:#000;letter-spacing:normal;word-spacing:normal;text-transform:none;writing-mode:lr-tb;direction:ltr;text-orientation:mixed;dominant-baseline:auto;baseline-shift:baseline;text-anchor:start;white-space:normal;shape-padding:0;shape-margin:0;inline-size:0;clip-rule:nonzero;display:inline;overflow:visible;visibility:visible;isolation:auto;mix-blend-mode:normal;color-interpolation:sRGB;color-interpolation-filters:linearRGB;solid-color:#000;solid-opacity:1;vector-effect:none;fill:#a98256;fill-opacity:1;fill-rule:nonzero;stroke:none;stroke-width:14.2848;stroke-linecap:round;stroke-linejoin:miter;stroke-miterlimit:4;stroke-dasharray:none;stroke-dashoffset:0;stroke-opacity:1;-inkscape-stroke:none;color-rendering:auto;image-rendering:auto;shape-rendering:auto;text-rendering:auto;stop-color:#000"/><path d="M109.356 453.987H69.59v62.959h3.313v-59.648h33.137v59.648h3.316z" style="color:#000;font-style:normal;font-variant:normal;font-weight:400;font-stretch:normal;font-size:medium;line-height:normal;font-family:sans-serif;font-variant-ligatures:normal;font-variant-position:normal;font-variant-caps:normal;font-variant-numeric:normal;font-variant-alternates:normal;font-variant-east-asian:normal;font-feature-settings:normal;font-variation-settings:normal;text-indent:0;text-align:start;text-decoration-line:none;text-decoration-style:solid;text-decoration-color:#000;letter-spacing:normal;word-spacing:normal;text-transform:none;writing-mode:lr-tb;direction:ltr;text-orientation:mixed;dominant-baseline:auto;baseline-shift:baseline;text-anchor:start;white-space:normal;shape-padding:0;shape-margin:0;inline-size:0;clip-rule:nonzero;display:inline;overflow:visible;visibility:visible;isolation:auto;mix-blend-mode:normal;color-interpolation:sRGB;color-interpolation-filters:linearRGB;solid-color:#000;solid-opacity:1;vector-effect:none;fill:#5d451f;fill-opacity:1;fill-rule:nonzero;stroke:none;stroke-width:14.2848;stroke-linecap:round;stroke-linejoin:miter;stroke-miterlimit:4;stroke-dasharray:none;stroke-dashoffset:0;stroke-opacity:1;-inkscape-stroke:none;color-rendering:auto;image-rendering:auto;shape-rendering:auto;text-rendering:auto;stop-color:#000"/><path d="M1.657-71.246h129.236v36.451H1.657z" style="fill:#9e7437;fill-opacity:1;stroke:#5b441f;stroke-width:3.31;stroke-linecap:round;stroke-dasharray:none;stroke-opacity:1" transform="rotate(90)"/><path d="M130.894-71.246H260.13v36.451H130.894z" style="fill:#906b32;fill-opacity:1;stroke:#5b441f;stroke-width:3.31;stroke-linecap:round;stroke-dasharray:none;stroke-opacity:1" transform="rotate(90)"/><path d="M71.246 389.366v127.58H34.794v-127.58Z" style="color:#000;font-style:normal;font-variant:normal;font-weight:400;font-stretch:normal;font-size:medium;line-height:normal;font-family:sans-serif;font-variant-ligatures:normal;font-variant-position:normal;font-variant-caps:normal;font-variant-numeric:normal;font-variant-alternates:normal;font-variant-east-asian:normal;font-feature-settings:normal;font-variation-settings:normal;text-indent:0;text-align:start;text-decoration-line:none;text-decoration-style:solid;text-decoration-color:#000;letter-spacing:normal;word-spacing:normal;text-transform:none;writing-mode:lr-tb;direction:ltr;text-orientation:mixed;dominant-baseline:auto;baseline-shift:baseline;text-anchor:start;white-space:normal;shape-padding:0;shape-margin:0;inline-size:0;clip-rule:nonzero;display:inline;overflow:visible;visibility:visible;isolation:auto;mix-blend-mode:normal;color-interpolation:sRGB;color-interpolation-filters:linearRGB;solid-color:#000;solid-opacity:1;fill:#906b32;fill-opacity:1;fill-rule:nonzero;stroke:none;stroke-width:14.285;stroke-linecap:round;stroke-linejoin:miter;stroke-miterlimit:4;stroke-dasharray:none;stroke-dashoffset:0;stroke-opacity:1;color-rendering:auto;image-rendering:auto;shape-rendering:auto;text-rendering:auto;stop-color:#000"/><path d="M72.903 387.71H33.137v129.236h3.312V391.022H69.59v125.924h3.313z" style="color:#000;font-style:normal;font-variant:normal;font-weight:400;font-stretch:normal;font-size:medium;line-height:normal;font-family:sans-serif;font-variant-ligatures:normal;font-variant-position:normal;font-variant-caps:normal;font-variant-numeric:normal;font-variant-alternates:normal;font-variant-east-asian:normal;font-feature-settings:normal;font-variation-settings:normal;text-indent:0;text-align:start;text-decoration-line:none;text-decoration-style:solid;text-decoration-color:#000;letter-spacing:normal;word-spacing:normal;text-transform:none;writing-mode:lr-tb;direction:ltr;text-orientation:mixed;dominant-baseline:auto;baseline-shift:baseline;text-anchor:start;white-space:normal;shape-padding:0;shape-margin:0;inline-size:0;clip-rule:nonzero;display:inline;overflow:visible;visibility:visible;isolation:auto;mix-blend-mode:normal;color-interpolation:sRGB;color-interpolation-filters:linearRGB;solid-color:#000;solid-opacity:1;vector-effect:none;fill:#5d451f;fill-opacity:1;fill-rule:nonzero;stroke:none;stroke-width:14.2848;stroke-linecap:round;stroke-linejoin:miter;stroke-miterlimit:4;stroke-dasharray:none;stroke-dashoffset:0;stroke-opacity:1;-inkscape-stroke:none;color-rendering:auto;image-rendering:auto;shape-rendering:auto;text-rendering:auto;stop-color:#000"/><path d="M34.795 0v66.275H.002V0Z" style="fill:#a98256;stroke-width:14.2848;stroke-linecap:round"/><path d="M36.45 0H.002v3.312h33.136v62.966H.002v3.311H36.45Z" style="fill:#5b441f;fill-opacity:1;stroke-width:14.2848;stroke-linecap:round"/><path d="M34.795 67.932v129.236H.002V67.933Z" style="fill:#9e7437;fill-opacity:1;stroke-width:14.2848;stroke-linecap:round"/><path d="M36.45 66.278H.002v3.311h33.136v125.925H.002v3.311H36.45Z" style="fill:#5b441f;fill-opacity:1;stroke-width:14.2848;stroke-linecap:round"/><path d="M34.795 197.169v129.236H.002V197.169Z" style="fill:#9e7437;fill-opacity:1;stroke-width:14.2848;stroke-linecap:round"/><path d="M36.45 195.514H.002v3.311h33.136v125.926H.002v3.31H36.45Z" style="fill:#5b441f;fill-opacity:1;stroke-width:14.2848;stroke-linecap:round"/><path d="M34.795 326.405V455.64H.002V326.405Z" style="fill:#9e7437;fill-opacity:1;stroke-width:14.2848;stroke-linecap:round"/><path d="M36.45 324.75H.002v3.312h33.136v125.925H.002v3.311H36.45Z" style="fill:#5b441f;fill-opacity:1;stroke-width:14.2848;stroke-linecap:round"/><path d="M34.794 455.641v61.305H0V455.64z" style="color:#000;font-style:normal;font-variant:normal;font-weight:400;font-stretch:normal;font-size:medium;line-height:normal;font-family:sans-serif;font-variant-ligatures:normal;font-variant-position:normal;font-variant-caps:normal;font-variant-numeric:normal;font-variant-alternates:normal;font-variant-east-asian:normal;font-feature-settings:normal;font-variation-settings:normal;text-indent:0;text-align:start;text-decoration-line:none;text-decoration-style:solid;text-decoration-color:#000;letter-spacing:normal;word-spacing:normal;text-transform:none;writing-mode:lr-tb;direction:ltr;text-orientation:mixed;dominant-baseline:auto;baseline-shift:baseline;text-anchor:start;white-space:normal;shape-padding:0;shape-margin:0;inline-size:0;clip-rule:nonzero;display:inline;overflow:visible;visibility:visible;isolation:auto;mix-blend-mode:normal;color-interpolation:sRGB;color-interpolation-filters:linearRGB;solid-color:#000;solid-opacity:1;vector-effect:none;fill:#a98256;fill-opacity:1;fill-rule:nonzero;stroke:none;stroke-width:14.2848;stroke-linecap:round;stroke-linejoin:miter;stroke-miterlimit:4;stroke-dasharray:none;stroke-dashoffset:0;stroke-opacity:1;-inkscape-stroke:none;color-rendering:auto;image-rendering:auto;shape-rendering:auto;text-rendering:auto;stop-color:#000"/><path d="M36.45 453.987H0v3.311h33.137v59.648h3.312z" style="color:#000;font-style:normal;font-variant:normal;font-weight:400;font-stretch:normal;font-size:medium;line-height:normal;font-family:sans-serif;font-variant-ligatures:normal;font-variant-position:normal;font-variant-caps:normal;font-variant-numeric:normal;font-variant-alternates:normal;font-variant-east-asian:normal;font-feature-settings:normal;font-variation-settings:normal;text-indent:0;text-align:start;text-decoration-line:none;text-decoration-style:solid;text-decoration-color:#000;letter-spacing:normal;word-spacing:normal;text-transform:none;writing-mode:lr-tb;direction:ltr;text-orientation:mixed;dominant-baseline:auto;baseline-shift:baseline;text-anchor:start;white-space:normal;shape-padding:0;shape-margin:0;inline-size:0;clip-rule:nonzero;display:inline;overflow:visible;visibility:visible;isolation:auto;mix-blend-mode:normal;color-interpolation:sRGB;color-interpolation-filters:linearRGB;solid-color:#000;solid-opacity:1;vector-effect:none;fill:#5b441f;fill-opacity:1;fill-rule:nonzero;stroke:none;stroke-width:14.2848;stroke-linecap:round;stroke-linejoin:miter;stroke-miterlimit:4;stroke-dasharray:none;stroke-dashoffset:0;stroke-opacity:1;-inkscape-stroke:none;color-rendering:auto;image-rendering:auto;shape-rendering:auto;text-rendering:auto;stop-color:#000"/><path d="M106.04 0v66.275H72.902V0Z" style="fill:#9e7437;fill-opacity:1;stroke-width:14.2848;stroke-linecap:round"/><path d="M33.138 0v66.275H.002V0Z" style="fill:#906b32;fill-opacity:1;stroke-width:14.2848;stroke-linecap:round"/><path d="M106.04 457.298v59.648H72.903v-59.648z" style="fill:#9e7437;fill-opacity:1;stroke-width:14.2848;stroke-linecap:round"/><path d="M33.137 457.298v59.648H0v-59.648z" style="fill:#906b32;fill-opacity:1;stroke-width:14.2848;stroke-linecap:round"/></pattern></defs><g transform="translate(-613.602 -587.203)"><path d="M800.474 770.256h56.342v25.948h-56.342z" style="display:inline;fill:gray;fill-opacity:1;stroke-width:.481827;stroke-opacity:.575758;paint-order:markers stroke fill;stop-color:#000"/><g style="stroke-width:1.00593"><path d="M610.665 583.26h393.225v223.136H610.665z" style="fill:url(#b);stroke:none;stroke-width:.279354;fill-opacity:1" transform="matrix(.97744 0 0 .92867 19.25 47.965)"/></g><rect width="116.615" height="195.761" x="619.463" y="593.723" rx="0" ry="0" style="fill:#5f5f63;fill-opacity:1;stroke-width:1.11519;paint-order:stroke fill markers"/><path d="M595.816-733.866h58.662v111.874h-58.662z" style="display:inline;fill:#4c4c4c;fill-opacity:1;stroke-width:.188352;-inkscape-stroke:none;paint-order:markers stroke fill;stop-color:#000" transform="rotate(90)"/><path d="M-997.537-669.39h148.693v72.82h-148.693z" style="display:inline;fill:#4c4c4c;fill-opacity:1;stroke-width:.241932;-inkscape-stroke:none;paint-order:markers stroke fill;stop-color:#000" transform="scale(-1)"/><path d="M736.407-733.866h52.155v111.874h-52.155z" style="display:inline;fill:#4c4c4c;fill-opacity:1;stroke-width:.177599;-inkscape-stroke:none;paint-order:markers stroke fill;stop-color:#000" transform="rotate(90)"/><rect width="9.989" height="58.912" x="-804.897" y="-935.173" rx="2.686" ry="2.686" style="fill:#333;fill-opacity:1;stroke-width:.970411;stroke-linecap:square;stop-color:#000" transform="scale(1 -1)rotate(90)"/><rect width="53.047" height="3.742" x="879.193" y="-802.747" rx="1.113" ry="1.113" style="display:inline;fill:#656565;fill-opacity:1;stroke-width:.223198" transform="scale(1 -1)"/><path d="M800.474 794.573h27.542v25.948h-27.542z" style="display:inline;fill:#4d4d4d;stroke-width:.481827;stroke-opacity:.575758;paint-order:markers stroke fill;stop-color:#000"/><path d="M801.796 796.04h24.573v23.151h-24.573z" style="display:inline;fill:#666;stroke-width:.42989;stroke-opacity:.575758;paint-order:markers stroke fill;stop-color:#000"/><path d="M827.814 794.571h27.542v25.948h-27.542z" style="display:inline;fill:#4d4d4d;stroke-width:.481827;stroke-opacity:.575758;paint-order:markers stroke fill;stop-color:#000"/><path d="M829.137 796.039h24.573v23.151h-24.573z" style="display:inline;fill:#666;stroke-width:.42989;stroke-opacity:.575758;paint-order:markers stroke fill;stop-color:#000"/><path d="M-598.333 613.668h11.13v392.411h-11.13z" style="fill:#262626;fill-opacity:1;stroke:none;stroke-width:1.76069;stroke-linejoin:round;stroke-dasharray:none;stroke-opacity:1;stop-color:#000" transform="rotate(-90)"/><path d="M-595.893 616.871h6.233v385.202h-6.233z" style="fill:#606060;fill-opacity:1;stroke:none;stroke-width:1.51277;stroke-linejoin:round;stroke-dasharray:none;stroke-opacity:1;stop-color:#000" transform="rotate(-90)"/><path d="M-1006.053-796.553h11.13v198.885h-11.13zm381.321 0h11.13v198.885h-11.13z" style="fill:#262626;fill-opacity:1;stroke:none;stroke-width:1.25347;stroke-linejoin:round;stroke-dasharray:none;stroke-opacity:1;stop-color:#000" transform="scale(-1)"/><path d="M-796.84 613.637h11.13v187.411h-11.13z" style="fill:#262626;fill-opacity:1;stroke:none;stroke-width:1.21677;stroke-linejoin:round;stroke-dasharray:none;stroke-opacity:1;stop-color:#000" transform="rotate(-90)"/><path d="M-794.401 616.871h6.233v181.623h-6.233z" style="fill:#606060;fill-opacity:1;stroke:none;stroke-width:1.03876;stroke-linejoin:round;stroke-dasharray:none;stroke-opacity:1;stop-color:#000" transform="rotate(-90)"/><path d="M-796.84 854.347h11.13v151.706h-11.13z" style="fill:#262626;fill-opacity:1;stroke:none;stroke-width:1.09474;stroke-linejoin:round;stroke-dasharray:none;stroke-opacity:1;stop-color:#000" transform="rotate(-90)"/><path d="M-794.401 856.786h6.233v20.055h-6.233z" style="fill:#606060;fill-opacity:1;stroke:none;stroke-width:.356206;stroke-linejoin:round;stroke-dasharray:none;stroke-opacity:1;stop-color:#000" transform="rotate(-90)"/><path d="M-794.401 934.547h6.233v69.128h-6.233z" style="fill:#606060;fill-opacity:1;stroke:none;stroke-width:.648053;stroke-linejoin:round;stroke-dasharray:none;stroke-opacity:1;stop-color:#000" transform="rotate(-90)"/><path d="M-622.369-794.408h6.233v204.788h-6.233z" style="fill:#606060;fill-opacity:1;stroke:none;stroke-width:1.10301;stroke-linejoin:round;stroke-dasharray:none;stroke-opacity:1;stop-color:#000" transform="scale(-1)"/><path d="M730.328 729.928h11.13v57.434h-11.13z" style="fill:#262626;fill-opacity:1;stroke:none;stroke-width:.673584;stroke-linejoin:round;stroke-dasharray:none;stroke-opacity:1;stop-color:#000"/><path d="M732.768 732.216h6.233v58.796h-6.233z" style="fill:#606060;fill-opacity:1;stroke:none;stroke-width:.591019;stroke-linejoin:round;stroke-dasharray:none;stroke-opacity:1;stop-color:#000"/><path d="M-741.458-654.546h11.13v57.043h-11.13z" style="fill:#262626;fill-opacity:1;stroke:none;stroke-width:.671289;stroke-linejoin:round;stroke-dasharray:none;stroke-opacity:1;stop-color:#000" transform="scale(-1)"/><path d="M-739.018-652.106h6.233v59.512h-6.233z" style="fill:#606060;fill-opacity:1;stroke:none;stroke-width:.594609;stroke-linejoin:round;stroke-dasharray:none;stroke-opacity:1;stop-color:#000" transform="scale(-1)"/><circle cx="678.558" cy="695.805" r="29.462" style="fill:none;fill-opacity:1;stroke:#4c4c4c;stroke-width:3.34568;stroke-linejoin:miter;stroke-dasharray:none;stroke-opacity:1;stop-color:#000"/><path fill="none" d="M696.86 679.773c-2.467 32.695-10.757 35.539-18.629 40.824-7.871-5.17-16.161-8.129-18.629-40.824 6.505-.428 13.087-.7 18.63-4.958 5.541 4.165 12.123 4.53 18.628 4.958z" style="fill:#000;fill-opacity:0;fill-rule:nonzero;stroke:#4c4c4c;stroke-width:3.27825;stroke-linejoin:round;stroke-dasharray:none;stroke-opacity:1"/><path d="M670.929 677.401v10.577h-11.027v3.055h11.027v25.034h3.054v-25.034h21.786v-3.055h-21.786v-10.577z" style="fill:#4c4c4c;fill-opacity:1;fill-rule:nonzero;stroke:none;stroke-width:0;stroke-linejoin:round;stroke-dasharray:none;stroke-opacity:1"/><path d="M662.998 848.844h11.13v157.209h-11.13z" style="fill:#262626;fill-opacity:1;stroke:none;stroke-width:1.2419;stroke-linejoin:round;stroke-dasharray:none;stroke-opacity:1;stop-color:#000" transform="matrix(0 1 1 0 0 0)"/><path d="M665.361 851.163h6.233v152.432h-6.233z" style="fill:#606060;fill-opacity:1;stroke:none;stroke-width:1.0585;stroke-linejoin:round;stroke-dasharray:none;stroke-opacity:1;stop-color:#000" transform="matrix(0 1 1 0 0 0)"/><path d="M-1003.69-794.385h6.233v204.721h-6.233z" style="fill:#606060;fill-opacity:1;stroke:none;stroke-width:1.10283;stroke-linejoin:round;stroke-dasharray:none;stroke-opacity:1;stop-color:#000" transform="scale(-1)"/></g><g transform="translate(129.565 -31.485)"><circle cx="119.776" cy="61.056" r="7.728" style="opacity:.4;fill:none;fill-opacity:1;stroke:#000;stroke-width:1.477;stroke-linejoin:miter;stroke-dasharray:none;stroke-opacity:1;stop-color:#000"/><path d="M115.65 56.538h1.356l2.713 4.218h.114l2.713-4.218h1.357l-3.535 5.313v3.724h-1.184v-3.724Z" aria-label="Y" style="font-size:12.9279px;font-family:Inter;-inkscape-font-specification:Inter;opacity:.4;stroke-width:1.477"/></g><g transform="translate(125.522 -31.485)"><path d="M175.929 56.476h1.185v6.46q0 .865-.344 1.47-.344.604-.97.918-.626.313-1.476.313-.802 0-1.428-.27-.625-.273-.984-.776-.358-.503-.358-1.196h1.165q0 .384.206.671.21.282.573.441t.826.16q.511 0 .87-.2.358-.198.544-.582.191-.388.191-.949z" aria-label="J" style="font-size:12.9279px;font-family:Inter;-inkscape-font-specification:Inter;opacity:.4;stroke-width:1.477"/><circle cx="174.334" cy="61.056" r="7.728" style="opacity:.4;fill:none;fill-opacity:1;stroke:#000;stroke-width:1.477;stroke-linejoin:miter;stroke-dasharray:none;stroke-opacity:1;stop-color:#000"/></g><g transform="translate(125.848 -31.485)"><path d="M196.4 65.575v-9.037h1.184v8.066h4.547v.971z" aria-label="L" style="font-size:12.9279px;font-family:Inter;-inkscape-font-specification:Inter;opacity:.4;stroke-width:1.477"/><circle cx="199.265" cy="61.056" r="7.728" style="opacity:.4;fill:none;fill-opacity:1;stroke:#000;stroke-width:1.477;stroke-linejoin:miter;stroke-dasharray:none;stroke-opacity:1;stop-color:#000"/></g><g transform="translate(126.752 -31.485)"><circle cx="147.847" cy="61.056" r="7.728" style="opacity:.4;fill:none;fill-opacity:1;stroke:#000;stroke-width:1.477;stroke-linejoin:miter;stroke-dasharray:none;stroke-opacity:1;stop-color:#000"/><path d="M152.165 62.266q0 1.43-.56 2.47-.558 1.042-1.532 1.607-.975.565-2.226.565t-2.226-.565-1.533-1.606-.559-2.471.56-2.472q.558-1.041 1.532-1.606.975-.565 2.226-.565t2.226.565q.974.565 1.533 1.606t.559 2.472m-1.147 0q0-1.174-.425-1.982-.42-.807-1.141-1.222-.717-.415-1.605-.415t-1.61.415q-.716.415-1.141 1.222-.42.808-.42 1.982t.42 1.98q.425.808 1.141 1.223.722.415 1.61.415t1.605-.415q.721-.415 1.141-1.222.425-.808.425-1.981m-4.547-5.649q-.3 0-.534-.212-.23-.216-.23-.494 0-.304.23-.503.234-.203.534-.203.33 0 .545.203.22.199.22.503 0 .278-.22.494-.215.212-.545.212m2.752 0q-.301 0-.535-.212-.23-.216-.23-.494 0-.304.23-.503.234-.203.535-.203.33 0 .544.203.22.199.22.503 0 .278-.22.494-.215.212-.544.212" aria-label="Ö" style="font-size:12.9279px;font-family:Inter;-inkscape-font-specification:Inter;opacity:.4;stroke-width:1.477"/></g></svg>