<?xml version="1.0" encoding="UTF-8" standalone="no"?>
<!-- Created with Inkscape (http://www.inkscape.org/) -->

<svg
   width="669.62317"
   height="347.62567"
   viewBox="0 0 354.34226 183.95191"
   version="1.1"
   id="svg1"
   inkscape:version="1.3.2 (091e20e, 2023-11-25, custom)"
   sodipodi:docname="barn_floor_4.svg"
   inkscape:export-filename="barn_floor.svg"
   inkscape:export-xdpi="96"
   inkscape:export-ydpi="96"
   xml:space="preserve"
   xmlns:inkscape="http://www.inkscape.org/namespaces/inkscape"
   xmlns:sodipodi="http://sodipodi.sourceforge.net/DTD/sodipodi-0.dtd"
   xmlns="http://www.w3.org/2000/svg"
   xmlns:svg="http://www.w3.org/2000/svg"><sodipodi:namedview
     id="namedview1"
     pagecolor="#ffffff"
     bordercolor="#000000"
     borderopacity="0.25"
     inkscape:showpageshadow="2"
     inkscape:pageopacity="0.0"
     inkscape:pagecheckerboard="0"
     inkscape:deskcolor="#d1d1d1"
     inkscape:document-units="px"
     inkscape:zoom="1.0141844"
     inkscape:cx="232.20629"
     inkscape:cy="81.346154"
     inkscape:window-width="1920"
     inkscape:window-height="1001"
     inkscape:window-x="-9"
     inkscape:window-y="-9"
     inkscape:window-maximized="1"
     inkscape:current-layer="layer1"
     showgrid="false"
     showguides="false" /><defs
     id="defs1" /><g
     inkscape:label="Στρώση 1"
     inkscape:groupmode="layer"
     id="layer1"
     transform="translate(408.80373,-218.02058)"><path
       style="fill:#4d3719;fill-opacity:1;stroke-width:4.37612;stroke-linecap:square"
       d="m -396.94807,218.02058 c -5.39421,23.64247 -1.9845,33.99784 -1.17356,47.57413 1.51612,25.38206 -9.01865,35.52157 -9.84871,56.23152 -1.63591,40.81588 -3.14145,41.07691 19.16982,72.90337 14.62554,20.86297 52.27475,-20.28402 76.48996,-9.44355 37.19416,16.65078 55.18741,21.88731 82.02728,10.91254 23.60491,-9.652 38.65896,-10.00415 55.9209,-4.79292 17.26194,5.21122 57.47383,12.8914 99.757094,-2.63363 28.862586,-10.5974 16.596552,3.64752 19.952619,-66.6083 1.725378,-36.11903 -8.867089,-25.32506 -6.155548,-58.81914 1.897201,-23.43502 -10.412844,-45.32402 -10.412844,-45.32402"
       id="path1"
       sodipodi:nodetypes="csssssssssc" /></g></svg>
