<?xml version="1.0" encoding="UTF-8" standalone="no"?>
<!-- Created with Inkscape (http://www.inkscape.org/) -->

<svg
   width="669.62317"
   height="347.62567"
   viewBox="0 0 354.34226 183.95191"
   version="1.1"
   id="svg1"
   xml:space="preserve"
   xmlns="http://www.w3.org/2000/svg"
   xmlns:svg="http://www.w3.org/2000/svg"><defs
     id="defs1" /><g
     id="layer1"
     transform="translate(408.80373,-218.02058)"><path
       style="fill:#4d3719;fill-opacity:1;stroke-width:4.37612;stroke-linecap:square"
       d="m -396.94807,218.02058 c -5.39421,23.64247 -1.9845,33.99784 -1.17356,47.57413 1.51612,25.38206 -9.01865,35.52157 -9.84871,56.23152 -1.63591,40.81588 -3.14145,41.07691 19.16982,72.90337 14.62554,20.86297 52.27475,-20.28402 76.48996,-9.44355 37.19416,16.65078 55.18741,21.88731 82.02728,10.91254 23.60491,-9.652 38.65896,-10.00415 55.9209,-4.79292 17.26194,5.21122 57.47383,12.8914 99.757094,-2.63363 28.862586,-10.5974 16.596552,3.64752 19.952619,-66.6083 1.725378,-36.11903 -8.867089,-25.32506 -6.155548,-58.81914 1.897201,-23.43502 -10.412844,-45.32402 -10.412844,-45.32402"
       id="path1" /></g></svg>
