<svg xmlns="http://www.w3.org/2000/svg" xmlns:xlink="http://www.w3.org/1999/xlink" width="649.825" height="603.762" viewBox="0 0 171.933 159.745"><defs><radialGradient id="e" cx="141.735" cy="145.99" r="104.415" gradientTransform="matrix(.47943 0 0 .46522 19.547 19.582)" gradientUnits="userSpaceOnUse"><stop offset="0" stop-opacity=".9"/><stop offset="1" stop-opacity=".3"/></radialGradient><radialGradient id="f" cx="141.735" cy="145.99" r="104.415" gradientTransform="matrix(.12685 0 0 .12309 203.435 220.054)" gradientUnits="userSpaceOnUse"><stop offset="0" stop-opacity=".9"/><stop offset="1" stop-opacity=".3"/></radialGradient><pattern xlink:href="#b" id="d" x="0" y="0" patternTransform="matrix(.3 0 0 .3 -762.459 -353.68)" preserveAspectRatio="none"/><pattern id="b" width="190.856" height="179.085" patternTransform="translate(6.73 39.184)" patternUnits="userSpaceOnUse" preserveAspectRatio="xMidYMid"><g transform="translate(-42019.614 -7691.69)scale(3.77953)"><rect width="50.497" height="47.382" x="11117.689" y="2035.094" ry="0" style="fill:#5b412f;fill-opacity:1;stroke-width:.0996563;paint-order:markers stroke fill"/><path d="M15649.074 12907.391h-29.798a.49.49 0 0 0-.488.489v9.121c0 .27.217.487.488.487h31.286c.27 0 .488-.217.488-.487v-8.237z" style="display:inline;fill:#775b3c;fill-opacity:1;stroke-width:.160514;paint-order:markers stroke fill" transform="matrix(.71948 -.69451 -.00137 1 -100.953 -3.832)"/><path d="M15589.774 12828.789h-12.528a.48.48 0 0 0-.484.483v9.128c0 .268.215.483.482.483h27.113z" style="display:inline;fill:#775b3c;fill-opacity:1;stroke-width:.159136;paint-order:markers stroke fill" transform="matrix(.7218 -.69211 -.0018 1 -100.953 -3.832)"/><path d="M15566.037 12839.533v7.005a.49.49 0 0 0 .491.491h10.312z" style="display:inline;fill:#775b3c;fill-opacity:1;stroke-width:.161626;paint-order:markers stroke fill" transform="matrix(.72011 -.69386 .00081 1 -100.953 -3.832)"/><path d="M15672.004 12956.397a.5.5 0 0 0-.272-.08h-31.405a.485.485 0 0 0-.486.487v9.198c0 .27.216.487.486.487h31.405a.485.485 0 0 0 .486-.486v-9.199a.5.5 0 0 0-.214-.404z" style="display:inline;fill:#775b3c;fill-opacity:1;stroke-width:.160003;paint-order:markers stroke fill" transform="matrix(.7181 -.69595 -.00086 1 -100.953 -3.832)"/><path d="M15668.196 12962.801a.5.5 0 0 0-.272-.08h-31.413a.486.486 0 0 0-.487.486v2.104l10.898 7.582h21.002c.27 0 .487-.217.487-.487v-9.198a.47.47 0 0 0-.214-.404z" style="display:inline;fill:#775b3c;fill-opacity:1;stroke-width:.160024;paint-order:markers stroke fill" transform="matrix(.71827 -.69576 -.00086 1 -100.953 -3.832)"/><path d="M15652.139 12951.628a.5.5 0 0 0-.273-.08h-18.491l14.635 10.172h3.856c.27 0 .487-.217.487-.487v-9.199a.47.47 0 0 0-.214-.403z" style="display:inline;fill:#775b3c;fill-opacity:1;stroke-width:.160112;paint-order:markers stroke fill" transform="matrix(.719 -.695 -.00086 1 -100.953 -3.832)"/><path d="M15643.714 12951.324a.5.5 0 0 0-.271-.08h-1.473l1.957 1.36v-.875a.47.47 0 0 0-.213-.402z" style="display:inline;fill:#7a5938;fill-opacity:1;stroke-width:.159554;paint-order:markers stroke fill" transform="matrix(.7194 -.6946 -.00086 1 -100.953 -3.832)"/><path d="m11177.478 2052.103 21.439 20.695c.194.188.351.557.352.828l.01 9.12c0 .27-.155.337-.35.149l-22.51-21.728a1.32 1.32 0 0 1-.352-.826l-.01-8.238z" style="display:inline;fill:#775b3c;fill-opacity:1;stroke-width:.136062;paint-order:markers stroke fill" transform="translate(-32.233 -17.01)"/><path d="m11189.696 2052.104 9.042 8.67c.194.186.35.55.35.818l.02 9.128c0 .268-.154.334-.347.149l-19.57-18.765z" style="display:inline;fill:#775b3c;fill-opacity:1;stroke-width:.135082;paint-order:markers stroke fill" transform="translate(-32.233 -17.01)"/><path d="M11199.321 2052.103v7.005c0 .272-.158.339-.354.15l-7.425-7.155z" style="display:inline;fill:#775b3c;fill-opacity:1;stroke-width:.137209;paint-order:markers stroke fill" transform="translate(-32.233 -17.01)"/><path d="M11176.192 2062.7q.088.001.196.108l22.551 21.855c.194.188.35.556.35.826v9.198c0 .27-.155.336-.349.148l-22.552-21.856a1.3 1.3 0 0 1-.349-.824v-9.2c0-.167.06-.257.153-.254" style="display:inline;fill:#775b3c;fill-opacity:1;stroke-width:.135531;paint-order:markers stroke fill" transform="translate(-32.233 -17.01)"/><path d="M11176.19 2074.592c.06 0 .122.035.195.105l22.563 21.857c.193.187.35.556.35.825v2.104h-7.821l-15.085-14.613a1.32 1.32 0 0 1-.351-.826v-9.197c0-.17.06-.259.154-.255z" style="display:inline;fill:#775b3c;fill-opacity:1;stroke-width:.135565;paint-order:markers stroke fill" transform="translate(-32.233 -17.01)"/><path d="M11176.189 2086.524c.06 0 .123.036.197.107l13.295 12.851h-10.514l-2.773-2.679a1.3 1.3 0 0 1-.35-.826v-9.199c0-.168.06-.256.153-.254z" style="display:inline;fill:#775b3c;fill-opacity:1;stroke-width:.135709;paint-order:markers stroke fill" transform="translate(-32.233 -17.01)"/><path d="M11176.194 2098.353c.05 0 .122.036.195.107l1.06 1.022h-1.407v-.875c0-.168.06-.256.153-.254z" style="display:inline;fill:#7a5938;fill-opacity:1;stroke-width:.135273;paint-order:markers stroke fill" transform="translate(-32.233 -17.01)"/></g></pattern></defs><path d="M77.919 105.348H237.55v147.795H77.919z" style="fill:url(#d);fill-opacity:1;stroke:#5b412f;stroke-width:2.64583;stroke-dasharray:none;stroke-opacity:1" transform="translate(-70.908 -98.69)"/><path d="m135.69 120.74.758 8.94-3.11 1.853 2.223 4.467-5.184 1.397 1.84 6.658-4.093.897-.282 4.733 4.726-2.974 1.97 2.854 4.076-.31.63 4.45.298.098 4.183-2.512 2.135 3.883 1.046 1.027.082.027.318-3.551 4.07 4.98.676.22 2.472-.847-2.763-4.238 6.293-3.114-1.7-4.954 3.889-4.21-3.928-2.56 5.953-1.149.327-1.003-.46-1.807.25-3.975-2.682-.155-1.948 1.132-2.477 2.587.246-5.404-2.447-1.325-5.134 4.59.818-6.38-6.029 2.373.29-3.325-3.174-1.658-2.048 2.687z" style="fill:#505050;fill-opacity:1;stroke:#282828;stroke-width:2.5;stroke-linejoin:round;stroke-miterlimit:4;stroke-dasharray:none;stroke-opacity:1" transform="translate(117.449 105.885)scale(.26458)"/><path fill="url(#a)" d="m87.99 38.924-3.796 24.227a25.544 26.225 0 0 0-.328.073l-10.987-15.8 2.905 18.548-10.216-9.813 5.444 13.351a25.544 26.225 0 0 0-.207.213l-22.329-6.588 17.24 13.237a25.544 26.225 0 0 0-.407.767L54.474 75.36l9.728 4.34a25.544 26.225 0 0 0-.007.022L42.43 81.982l20.166 9.243a25.544 26.225 0 0 0 .04.585L48.19 95.626l12.958.548-23.706 16.923 28.45-9.654-13.819 19.54 19.344-13.808-3.374 21.546 11.81-16.847a25.544 26.225 0 0 0 .998.373l3.708 21.829 5.11-20.143 6.234 12.697-1.16-11.268 15.52 14.95L103.277 110a25.544 26.225 0 0 0 1.086-.835l12.91 6.57-6.702-11.957 26.987 7.718-23.921-15.83 17.478-1.942-17.594-5.19a25.544 26.225 0 0 0-.01-.432l20.807-13.843-23.792 2.47a25.544 26.225 0 0 0-.35-.637l7.342-8.022-9.057 4.193L125.1 48.537l-22.538 19.004a25.544 26.225 0 0 0-.772-.53l6.276-12.975-10.753 10.628a25.544 26.225 0 0 0-.192-.075l3.442-16.287-8.003 14.976a25.544 26.225 0 0 0-.772-.138z" style="fill:url(#e)" transform="translate(117.449 105.885)scale(.26458)"/><path d="m105.817 2.645.215 9.349-7.408 2.188-.05.146 2.322 6.462-5.604 3.042 4.402 4.443-3.01 1.808-.042 3.876 5.806-4.071 1.872 10.744 3.948-5.043 2.397 4.78 4.345 1.386 1.192-4.752 4.151 5.242 4.795 1.221 1.436-2.56-1.347-2.356 2.38-2.535 3.29-3.512.548-1.477 1.097-3.16-.769-3.021 2.09-4.617-3.719-5.024.123-3.447-7.112-2.853-1.547-.776-1.687-.586-2.024 3.164-2.695-4.787-1.384 3.732-7.926-6.977zM40.063 25.491l-5.371 4.994-1.454 4.217-2.543-.501-.22.204.61 3.494-5.349 2.27 3.645.606.056 4.318.42.452 2.301-1.405 1.08 4.413 1.296-1.843.259 2.184.77 1.167 1.282-2.557 3.633 1.654 2.073-3.162 4.113-2.071.474-.44-.589-1.753 2.217-2.207 1.817-1.839-1.358-2.34-.344-.37-7.872 3.721 2.722-6.638-.518-3.18-.228-.245-6.492 4.955zM53.012 131.954l-1.155 3.588-.596-.008-1.005 2.052.23 4.96-2.558-.201-.406.829 2.071 5.134-2.02-.651 1.422 6.33.125.061 1.915-2.022 2.626 4.203 4.742-.568-2.309-4.452 5.483-.42-.893-2.57 2.367-.693 2.246-5.767-2.233.59-.185-2.432-1.423-3.176-4.041 3.892zM17.862 69.858l-.204 4.983-.99.178-.236 1.021 1.027 1.99-2.003 2.496 1.397.71-.777 5.187-1.936.568.813 5.246-2.642 1.612-.28 1.21.766 2.794-3.014 6.916 3.11-3.391 1.32 4.383 2.321-2.356 1.951 1.568 2.632-.847 2.424 3.827.632.146 3.075-.417-3.756-2.972 4.928-1.008.023-.101-3.46-2.764 4.246-.84.16-3.862 1.18-3.179-3.24-3.867 3.08-1.64 1.775-.011.173-.75.176-1.384-2.101-1.367 3.376-3.519.494-2.135-.129-3.99-2.483-1.235-.281-.065-2.755 7.069-1.37-7.294-2.494 3.876.37-5.097-.383-.089-1.356-.235-3.342 3.593z" style="fill:#505050;fill-opacity:1;stroke:#282828;stroke-width:2.5;stroke-linejoin:round;stroke-miterlimit:4;stroke-dasharray:none;stroke-opacity:1" transform="translate(117.449 105.885)scale(.26458)"/><path fill="url(#a)" d="m211.638 214.873-1.005 6.41a6.758 6.939 0 0 0-.086.019l-2.907-4.18.768 4.907-2.703-2.596 1.44 3.532a6.758 6.939 0 0 0-.054.056l-5.908-1.743 4.561 3.503a6.758 6.939 0 0 0-.107.203l-2.867-.471 2.574 1.149a6.758 6.939 0 0 0-.002.006l-5.758.597 5.335 2.446a6.758 6.939 0 0 0 .01.155l-3.822 1.01 3.428.144-6.272 4.478 7.528-2.555-3.656 5.17 5.118-3.653-.893 5.7 3.125-4.457a6.758 6.939 0 0 0 .264.099l.98 5.775 1.353-5.329 1.649 3.36-.307-2.982 4.106 3.956-1.847-5.904a6.758 6.939 0 0 0 .287-.22l3.416 1.737-1.774-3.163 7.14 2.042-6.328-4.188 4.624-.514-4.655-1.374a6.758 6.939 0 0 0-.003-.114l5.505-3.663-6.295.654a6.758 6.939 0 0 0-.092-.168l1.942-2.123-2.396 1.11 4.402-6.278-5.963 5.028a6.758 6.939 0 0 0-.205-.14l1.66-3.433-2.844 2.812a6.758 6.939 0 0 0-.051-.02l.91-4.309-2.117 3.962a6.758 6.939 0 0 0-.204-.036z" style="opacity:.8;fill:url(#f);stroke-width:.264583" transform="translate(-70.908 -98.69)"/><path d="M237.55 100.056v100.311M173.604 105.348H72.627M242.841 105.353h-15.345" style="fill:#553b24;fill-opacity:1;stroke:#31241a;stroke-width:10.5833;stroke-dasharray:none;stroke-opacity:1" transform="translate(-70.908 -98.69)"/><path d="M77.79 258.129v-14.395" style="fill:#553b24;fill-opacity:1;stroke:#31241a;stroke-width:10.5832;stroke-dasharray:none;stroke-opacity:1" transform="translate(-70.908 -98.69)"/><path d="M77.919 100.056v89.568M188.615 253.143H72.447" style="fill:#553b24;fill-opacity:1;stroke:#31241a;stroke-width:10.5833;stroke-dasharray:none;stroke-opacity:1" transform="translate(-70.908 -98.69)"/><path d="M237.55 102.468v95.577M171.355 105.348H74.876M77.919 102.305v85.06M185.946 253.143h-111.2M240.592 105.353h-10.848" style="fill:#553b24;fill-opacity:1;stroke:#684c37;stroke-width:6.08542;stroke-dasharray:none;stroke-opacity:1" transform="translate(-70.908 -98.69)"/><path d="M77.79 255.371v-8.88" style="fill:#553b24;fill-opacity:1;stroke:#684c37;stroke-width:6.08541;stroke-dasharray:none;stroke-opacity:1" transform="translate(-70.908 -98.69)"/></svg>