<svg xmlns="http://www.w3.org/2000/svg" width="373.201" height="344.423" viewBox="0 0 98.743 91.129"><path d="M-748.555-208.799h95.193v73.209h-95.193z" style="fill:#4b3926;fill-opacity:1;stroke:#2c2016;stroke-width:3;stroke-linecap:round;stroke-linejoin:round;stroke-opacity:1" transform="translate(750.055 210.299)"/><path d="M-740.831-200.165h80.091v54.874h-80.091z" style="fill:#521717;fill-opacity:1;stroke:#2e0e0e;stroke-width:3;stroke-linecap:round;stroke-linejoin:round;stroke-opacity:1" transform="translate(750.055 210.299)"/><path d="M-748.555-135.59h94.855v7.71h-94.855z" style="fill:#432;fill-opacity:1;stroke:#2c2016;stroke-width:2;stroke-linecap:round;stroke-linejoin:round;stroke-dasharray:none;stroke-opacity:1" transform="translate(750.055 210.299)"/><path d="M-748.555-127.88h94.855v7.71h-94.855z" style="fill:#3e2d1e;fill-opacity:1;stroke:#2c2016;stroke-width:2;stroke-linecap:round;stroke-linejoin:round;stroke-dasharray:none;stroke-opacity:1" transform="translate(750.055 210.299)"/><path d="M-732.713-193.763h5.977v39.122h-5.977zM-675.815-193.763h5.977v41.403h-5.977z" style="fill:#592222;fill-opacity:1;stroke:none;stroke-width:4.99999;stroke-linecap:round;stroke-linejoin:miter;stroke-dasharray:none;stroke-opacity:1" transform="translate(750.055 210.299)"/><path d="M187.786-732.713h5.977v58.65h-5.977zM152.36-732.713h5.977v58.65h-5.977z" style="fill:#592222;fill-opacity:1;stroke:none;stroke-width:5;stroke-linecap:round;stroke-linejoin:miter;stroke-dasharray:none;stroke-opacity:1" transform="rotate(-90 480.177 -269.878)"/><g transform="translate(-7829.652 -1911.474)"><rect width="13.166" height="13.166" x="7831.152" y="1973.017" rx="1.08" ry="1.08" style="fill:none;fill-opacity:1;stroke:#150e0b;stroke-width:2.69006;stroke-linecap:round;stroke-dasharray:none;stroke-opacity:1;paint-order:fill markers stroke;stop-color:#000"/><rect width="11.097" height="11.014" x="7832.177" y="1974.069" rx=".903" ry=".903" style="fill:#3a2d1f;fill-opacity:1;stroke:none;stroke-width:2.25041;stroke-linecap:round;stroke-linejoin:miter;stroke-dasharray:none;stroke-opacity:1;paint-order:fill markers stroke;stop-color:#000"/></g><g transform="translate(-7746.92 -1911.763)"><rect width="13.166" height="13.166" x="7831.152" y="1973.017" rx="1.08" ry="1.08" style="fill:none;fill-opacity:1;stroke:#150e0b;stroke-width:2.69006;stroke-linecap:round;stroke-dasharray:none;stroke-opacity:1;paint-order:fill markers stroke;stop-color:#000"/><rect width="11.097" height="11.014" x="7832.177" y="1974.069" rx=".903" ry=".903" style="fill:#3a2d1f;fill-opacity:1;stroke:none;stroke-width:2.25041;stroke-linecap:round;stroke-linejoin:miter;stroke-dasharray:none;stroke-opacity:1;paint-order:fill markers stroke;stop-color:#000"/></g></svg>