<?xml version="1.0" encoding="UTF-8"?>
<svg id="Layer_2" data-name="Layer 2" xmlns="http://www.w3.org/2000/svg" viewBox="0 0 21.1 41.3">
  <defs>
    <style>
      .cls-1 {
        fill: rgba(255, 228, 54, .9);
      }

      .cls-2 {
        fill: #ccc;
        stroke: #333;
        stroke-miterlimit: 10;
        stroke-width: 4px;
      }

      .cls-3 {
        fill: #f6c626;
        opacity: .9;
      }
    </style>
  </defs>
  <g id="Layer_2-2" data-name="Layer 2">
    <path class="cls-2" d="M8.9,11.84l-2.57,17.96c-.52,3.67,3.96,5.85,6.53,3.18h0c.49-.51,.83-1.15,.98-1.84L19.02,6.92c.37-1.73-.5-3.49-2.1-4.24l-.65-.31c-2.11-1-4.62,.12-5.29,2.36l-1.96,6.57c-.05,.18-.09,.36-.12,.55Z"/>
    <path class="cls-1" d="M8.32,31.98h0s4.11-.58,2.69,3.92c-.99,3.13-2.08,3.84-2.66,3.98-.33,.08-.65,.31-.88,.62-.19,.25-.39,.52-.49,.69-.02,.03-.04,.07-.06,.11,0-.03,0-.06-.02-.09-.04-.16-.13-.4-.22-.63-.13-.32-.38-.55-.7-.64-.55-.15-1.41-.89-1.35-3.96,.08-3.71,2.76-4.01,3.69-4Z"/>
    <path class="cls-3" d="M8.02,31.22h0s3.82,2.43-.26,6.02c-2.83,2.49-4.2,2.41-4.78,2.12-.33-.16-.75-.16-1.14-.01-.32,.12-.65,.25-.85,.35-.04,.02-.08,.04-.12,.07,.02-.04,.03-.07,.04-.11,.07-.2,.15-.51,.22-.81,.1-.43,.04-.85-.17-1.18-.36-.56-.61-1.95,1.41-5.07,2.44-3.75,4.88-2.08,5.66-1.38Z"/>
    <path class="cls-1" d="M9.24,17.71h0s.38-4.13-4.05-2.5c-3.08,1.14-3.73,2.26-3.84,2.85-.07,.34-.28,.66-.58,.91-.24,.2-.5,.41-.67,.52-.03,.02-.07,.04-.11,.06,.03,0,.06,0,.09,.01,.16,.04,.41,.11,.64,.19,.33,.11,.57,.35,.68,.67,.18,.54,.95,1.37,4.02,1.16,3.7-.25,3.87-2.95,3.82-3.88Z"/>
    <path class="cls-1" d="M13.55,23.28h0s2.02-2.97,4.33-.95c1.61,1.4,1.45,2.32,1.21,2.75-.14,.25-.16,.52-.09,.75,.06,.19,.13,.38,.19,.5,.01,.02,.03,.04,.04,.07-.02,0-.05,0-.07,0-.14,0-.36,0-.57,.01-.3,.01-.61,.14-.86,.33-.43,.34-1.45,.77-3.57,.02-2.55-.9-1.18-2.82-.62-3.46Z"/>
    <path class="cls-3" d="M13.67,30.01h0s-1.28,1.63,1.03,2.56c1.6,.65,2.18,.4,2.39,.19,.12-.12,.3-.18,.49-.18,.15,0,.32,0,.42,.02,.02,0,.04,0,.06,.01-.01-.01-.02-.03-.03-.04-.06-.08-.14-.2-.22-.32-.11-.17-.14-.36-.1-.53,.07-.3-.03-.94-1.38-1.98-1.62-1.25-2.43-.16-2.66,.26Z"/>
  </g>
</svg>