<?xml version="1.0" encoding="UTF-8" standalone="no"?>
<svg
   id="Layer_2"
   data-name="Layer 2"
   viewBox="0 0 38.398182 81.418245"
   version="1.1"
   sodipodi:docname="birch_tree_fall_particle.svg"
   width="38.398182"
   height="81.418243"
   inkscape:version="1.3 (0e150ed6c4, 2023-07-21)"
   xmlns:inkscape="http://www.inkscape.org/namespaces/inkscape"
   xmlns:sodipodi="http://sodipodi.sourceforge.net/DTD/sodipodi-0.dtd"
   xmlns="http://www.w3.org/2000/svg"
   xmlns:svg="http://www.w3.org/2000/svg">
  <sodipodi:namedview
     id="namedview6"
     pagecolor="#ffffff"
     bordercolor="#000000"
     borderopacity="0.25"
     inkscape:showpageshadow="2"
     inkscape:pageopacity="0.0"
     inkscape:pagecheckerboard="0"
     inkscape:deskcolor="#d1d1d1"
     inkscape:zoom="6.9940224"
     inkscape:cx="0.57191696"
     inkscape:cy="41.24951"
     inkscape:window-width="1920"
     inkscape:window-height="1094"
     inkscape:window-x="-11"
     inkscape:window-y="-11"
     inkscape:window-maximized="1"
     inkscape:current-layer="Layer_2-2" />
  <defs
     id="defs1">
    <style
       id="style1">&#10;      .cls-1 {&#10;        fill: rgba(255, 228, 54, .9);&#10;      }&#10;&#10;      .cls-2 {&#10;        fill: #ccc;&#10;        stroke: #333;&#10;        stroke-miterlimit: 10;&#10;        stroke-width: 4px;&#10;      }&#10;&#10;      .cls-3 {&#10;        fill: #f6c626;&#10;        opacity: .9;&#10;      }&#10;    </style>
  </defs>
  <g
     id="Layer_2-2"
     data-name="Layer 2"
     transform="matrix(1.5567847,0,0,1.5567847,8.4444875,-0.74937086)">
    <path
       class="cls-2"
       d="m 5.9916438,15.034643 -3.292818,23.011289 c -0.6662512,4.702195 5.0737586,7.495325 8.3665762,4.074382 v 0 c 0.627814,-0.653439 1.06344,-1.47344 1.255628,-2.357504 L 15.545381,12.967132 C 15.816182,10.716672 17.776439,6.9219618 16.225683,3.5896004 12.389905,1.1428405 10.309392,3.2228274 8.6566484,5.92494 l -2.5112543,8.417827 c -0.064063,0.230625 -0.1153127,0.461251 -0.1537503,0.704688 z"
       id="path1"
       style="stroke-width:4.11506;stroke-dasharray:none"
       sodipodi:nodetypes="ccsscsccccc" />
    <path
       class="cls-1"
       d="m 5.2485176,40.839062 v 0 c 0,0 5.2659464,-0.743127 3.4465683,5.022508 -1.2684396,4.010319 -2.6650045,4.920008 -3.4081307,5.099384 -0.4228133,0.1025 -0.832814,0.397188 -1.127502,0.794376 -0.2434379,0.320313 -0.4996883,0.666251 -0.6278135,0.884064 -0.025625,0.03844 -0.05125,0.08969 -0.076875,0.140938 0,-0.03844 0,-0.07688 -0.025625,-0.115313 -0.05125,-0.205 -0.166563,-0.512501 -0.2818757,-0.807189 C 2.9807013,51.44783 2.6603882,51.153142 2.2503875,51.037829 1.5456988,50.845641 0.44382196,49.897514 0.52069709,45.96407 0.62319726,41.210625 4.0569531,40.826249 5.2485176,40.839062 Z"
       id="path2"
       style="stroke-width:1.28125" />
    <path
       class="cls-3"
       d="m 4.8641419,39.86531 v 0 c 0,0 4.8943833,3.113443 -0.3331255,7.713138 -3.62594366,3.190318 -5.38125913,3.087818 -6.1243854,2.716255 -0.4228132,-0.205001 -0.9609391,-0.205001 -1.4606275,-0.01281 -0.4100007,0.15375 -0.8328139,0.320313 -1.0890643,0.448438 -0.05125,0.02562 -0.1025002,0.05125 -0.1537503,0.08969 0.025625,-0.05125 0.038438,-0.08969 0.05125,-0.140938 0.089688,-0.25625 0.1921879,-0.653438 0.2818755,-1.037814 0.1281252,-0.550938 0.05125,-1.089064 -0.2178129,-1.511878 -0.4612507,-0.717501 -0.7815638,-2.498441 1.8065656,-6.495948 3.12625528,-4.804696 6.2525106,-2.665005 7.2518873,-1.768128 z"
       id="path3"
       style="stroke-width:1.28125" />
    <path
       class="cls-1"
       d="m 6.4272696,22.555593 v 0 c 0,0 0.4868758,-5.291571 -5.1890713,-3.20313 -3.9462567,1.460627 -4.7790706,2.89563 -4.9200083,3.651568 -0.089688,0.435626 -0.3587506,0.845627 -0.7431263,1.16594 -0.3075005,0.25625 -0.6406261,0.525313 -0.8584389,0.666251 -0.038438,0.02563 -0.089688,0.05125 -0.1409378,0.07688 0.038438,0 0.076875,0 0.1153127,0.01281 0.2050004,0.05125 0.5253134,0.140937 0.8200014,0.243438 0.4228132,0.140937 0.7303137,0.448438 0.8712515,0.858439 0.2306254,0.691876 1.2171895,1.755315 5.1506337,1.486252 4.740633,-0.320313 4.9584459,-3.779694 4.8943833,-4.971258 z"
       id="path4"
       style="stroke-width:1.28125" />
    <path
       class="cls-1"
       d="m 11.949466,29.692168 v 0 c 0,0 2.58813,-3.805319 5.547822,-1.21719 2.062816,1.793753 1.857816,2.972505 1.550315,3.523444 -0.179375,0.320313 -0.205,0.666251 -0.115312,0.960939 0.07688,0.243438 0.166563,0.486876 0.243438,0.640626 0.01281,0.02562 0.03844,0.05125 0.05125,0.08969 -0.02563,0 -0.06406,0 -0.08969,0 -0.179375,0 -0.461251,0 -0.730314,0.01281 -0.384375,0.01281 -0.781563,0.179375 -1.101877,0.422813 -0.550938,0.435626 -1.857815,0.986564 -4.57407,0.02562 -3.2671928,-1.153127 -1.511877,-3.613131 -0.794376,-4.433132 z"
       id="path5"
       style="stroke-width:1.28125" />
    <path
       class="cls-3"
       d="m 12.103217,38.314995 v 0 c 0,0 -1.640003,2.088441 1.319689,3.280005 2.050004,0.832814 2.79313,0.512501 3.062193,0.243438 0.15375,-0.15375 0.384376,-0.230625 0.627814,-0.230625 0.192187,0 0.41,0 0.538126,0.02562 0.02562,0 0.05125,0 0.07687,0.01281 -0.01281,-0.01281 -0.02562,-0.03844 -0.03844,-0.05125 -0.07687,-0.1025 -0.179375,-0.25625 -0.281875,-0.41 -0.140938,-0.217813 -0.179376,-0.461251 -0.128126,-0.679064 0.08969,-0.384376 -0.03844,-1.204377 -1.768128,-2.536879 -2.075628,-1.601565 -3.113442,-0.205001 -3.40813,0.333125 z"
       id="path6"
       style="stroke-width:1.28125" />
  </g>
</svg>
