<svg xmlns="http://www.w3.org/2000/svg" width="314.993" height="261.257" viewBox="0 0 83.342 69.124"><g style="fill:#473827;fill-opacity:1"><path d="M96.603 177.888c-7.492-4.148-18.42-6.1-16.538-18.477 2.047-13.45.59-27.703 5.68-40.41 2.7-6.736 7.908-15.23 16.431-13.753 3.778.654 5.71-.964 7.784-1.463 6.472-1.555 17.787-3.446 17.8 6.857.011 7.952 6.012 15.178 3.459 23.367-2.44 7.828-11.778 9.352-16.821 15.057-6.27 7.093 5.46 12.283 8.718 17.747 3.07 5.149 8.255 16.594.113 18.863-8.397 2.34-16.232-1.179-22.735-6.13-1.122-.854-2.622-.956-3.891-1.658" style="fill:#473827;fill-opacity:1;stroke:none;stroke-width:2.559;stroke-linecap:square;stroke-linejoin:round;stroke-dasharray:none;stroke-opacity:1;paint-order:fill markers stroke;stop-color:#000" transform="rotate(118.012 108.858 70.22)"/><path d="M134.809 161.195c-3.009-.066-6.075-1.87-7.278-4.73-.633-1.502-.646-3.392.484-4.655.531-.595 1.383-.7 2.049-1.133 1.27-.827 1.943-2.563 3.502-2.956 1.027-.26 2.048.21 3.028.478 1.846.502 3.74.959 5.688.713 1.512-.19 2.57 1.52 2.635 2.924.044.938-.487 1.851-1.405 2.196-1.529.573-3.403.204-4.715 1.15-1.523 1.1-.76 3.753-2.227 5.052-.501.444-1.061.976-1.761.96" style="fill:#473827;fill-opacity:1;stroke:none;stroke-width:2.559;stroke-linecap:square;stroke-linejoin:round;stroke-dasharray:none;stroke-opacity:1;paint-order:fill markers stroke;stop-color:#000" transform="rotate(118.012 108.858 70.22)"/></g></svg>