<?xml version="1.0" encoding="UTF-8" standalone="no"?>
<!-- Created with Inkscape (http://www.inkscape.org/) -->

<svg
   width="294.66702"
   height="255.80205"
   viewBox="0 0 77.963981 67.680958"
   version="1.1"
   id="svg1"
   inkscape:version="1.4 (86a8ad7, 2024-10-11)"
   sodipodi:docname="mud_decal_1.svg"
   xmlns:inkscape="http://www.inkscape.org/namespaces/inkscape"
   xmlns:sodipodi="http://sodipodi.sourceforge.net/DTD/sodipodi-0.dtd"
   xmlns="http://www.w3.org/2000/svg"
   xmlns:svg="http://www.w3.org/2000/svg">
  <sodipodi:namedview
     id="namedview1"
     pagecolor="#ffffff"
     bordercolor="#000000"
     borderopacity="0.25"
     inkscape:showpageshadow="2"
     inkscape:pageopacity="0.0"
     inkscape:pagecheckerboard="0"
     inkscape:deskcolor="#d1d1d1"
     inkscape:document-units="mm"
     inkscape:zoom="0.68862935"
     inkscape:cx="164.09408"
     inkscape:cy="-173.53312"
     inkscape:window-width="1920"
     inkscape:window-height="991"
     inkscape:window-x="-9"
     inkscape:window-y="-9"
     inkscape:window-maximized="1"
     inkscape:current-layer="layer1" />
  <defs
     id="defs1" />
  <g
     inkscape:label="Στρώση 1"
     inkscape:groupmode="layer"
     id="layer1"
     transform="translate(-61.383276,-194.46871)">
    <path
       style="fill:#473827;fill-opacity:1;stroke:none;stroke-width:1.5;stroke-linecap:square;stroke-linejoin:round;stroke-dasharray:none;stroke-opacity:1;paint-order:fill markers stroke;stop-color:#000000"
       d="m 66.3122,223.9671 c 5.4327,10.1328 15.1926,17.1382 22.7805,25.8903 3.3503,3.8643 5.3676,-5.7715 9.1091,-5.7912 3.4329,-0.018 5.4792,4.1006 7.9893,6.3281 4.1313,3.6662 8.3746,7.216 12.6209,10.7552 3.254,2.7122 6.12,-0.7018 7.9355,-3.0158 3.6487,-4.6504 8.813,-8.3935 10.4733,-14.313 1.0096,-3.5991 -0.5782,-7.4146 1.4115,-10.8696 2.5414,-4.4131 -2.296,-6.4393 -5.0839,-8.7159 -3.7491,-3.0618 -7.1318,-7.0819 -8.4942,-11.7917 -1.5638,-5.4059 2.6645,-11.3369 0.5897,-16.4 -1.7671,-4.3125 -8.2083,1.4304 -11.4925,3.0031 -6.6346,3.1768 -13.5206,5.6454 -20.5971,7.5947 -5.9507,1.6394 -11.8741,3.2978 -17.9203,4.5862 -4.6847,0.9983 -16.4683,-0.5897 -13.8849,4.2289 1.521,2.8369 3.0421,5.6738 4.5631,8.5107 z"
       id="path62806-46-0" />
  </g>
</svg>
