<svg xmlns="http://www.w3.org/2000/svg" width="128" height="128" viewBox="0 0 33.867 33.867"><path d="m4.51 3.303 4.22 1.335 1.25 5.21-5.409-1.262S3.556 3 4.511 3.303z" style="fill:#676767;fill-opacity:1;stroke:#333;stroke-width:0;stroke-linecap:butt;stroke-linejoin:round;stroke-dasharray:none" transform="translate(-3.655 -3.156)scale(1.5131)"/><path d="m8.73 4.638 1.25 5.21-5.409-1.262 1.034-3.15Z" style="fill:#5a5a5a;fill-opacity:1;stroke:#333;stroke-width:0;stroke-linecap:butt;stroke-linejoin:round;stroke-dasharray:none" transform="translate(-3.655 -3.156)scale(1.5131)"/><path d="m9.355 7.243.626 2.605-2.705-.63.383-1.497Z" style="fill:#4b4b4b;fill-opacity:1;stroke:#333;stroke-width:0;stroke-linecap:butt;stroke-linejoin:round;stroke-dasharray:none" transform="translate(-3.655 -3.156)scale(1.5131)"/><path fill="none" d="m4.51 3.303 4.22 1.335 1.25 5.21-5.409-1.262S3.556 3 4.511 3.303z" style="fill:#999;fill-opacity:0;stroke:#212121;stroke-width:.736727;stroke-linecap:butt;stroke-linejoin:round;stroke-dasharray:none;stroke-opacity:1" transform="translate(-3.655 -3.156)scale(1.5131)"/><path d="m16.397 9.336 2.93 3.317-1.61 5.11-3.988-3.867s2.005-5.311 2.668-4.56z" style="fill:#676767;fill-opacity:1;stroke:#333;stroke-width:0;stroke-linecap:butt;stroke-linejoin:round;stroke-dasharray:none" transform="translate(-3.655 -3.156)scale(1.5131)"/><path d="m19.327 12.653-1.61 5.11-3.988-3.867 2.509-2.169z" style="fill:#5a5a5a;fill-opacity:1;stroke:#333;stroke-width:0;stroke-linecap:butt;stroke-linejoin:round;stroke-dasharray:none" transform="translate(-3.655 -3.156)scale(1.5131)"/><path d="m18.522 15.208-.805 2.555-1.994-1.934 1.098-1.085z" style="fill:#4b4b4b;fill-opacity:1;stroke:#333;stroke-width:0;stroke-linecap:butt;stroke-linejoin:round;stroke-dasharray:none" transform="translate(-3.655 -3.156)scale(1.5131)"/><path fill="none" d="m16.397 9.336 2.93 3.317-1.61 5.11-3.988-3.867s2.005-5.311 2.668-4.56z" style="fill:#999;fill-opacity:0;stroke:#212121;stroke-width:.736727;stroke-linecap:butt;stroke-linejoin:round;stroke-dasharray:none;stroke-opacity:1" transform="translate(-3.655 -3.156)scale(1.5131)"/><path d="m6.915 23.479 1.587-4.132 5.276-.934-1.586 5.323s-5.636.678-5.277-.257z" style="fill:#676767;fill-opacity:1;stroke:#333;stroke-width:0;stroke-linecap:butt;stroke-linejoin:round;stroke-dasharray:none" transform="translate(-3.655 -3.156)scale(1.5131)"/><path d="m8.502 19.347 5.276-.934-1.586 5.323-3.083-1.221z" style="fill:#5a5a5a;fill-opacity:1;stroke:#333;stroke-width:0;stroke-linecap:butt;stroke-linejoin:round;stroke-dasharray:none" transform="translate(-3.655 -3.156)scale(1.5131)"/><path d="m11.14 18.88 2.638-.467-.793 2.662-1.47-.473z" style="fill:#4b4b4b;fill-opacity:1;stroke:#333;stroke-width:0;stroke-linecap:butt;stroke-linejoin:round;stroke-dasharray:none" transform="translate(-3.655 -3.156)scale(1.5131)"/><path fill="none" d="m6.915 23.479 1.587-4.132 5.276-.934-1.586 5.323s-5.636.678-5.277-.257z" style="fill:#999;fill-opacity:0;stroke:#212121;stroke-width:.736727;stroke-linecap:butt;stroke-linejoin:round;stroke-dasharray:none;stroke-opacity:1" transform="translate(-3.655 -3.156)scale(1.5131)"/><path d="M3.333 16.848c-1.182-1.112.01-2.165.38-3.676.599-1.5 2.707-1.378 3.646-.607 1.254 1.03 1.24 2.972.129 4.154a2.94 2.94 0 0 1-4.155.129z" style="fill:#5a5a5a;fill-opacity:1;stroke:#333;stroke-width:0;stroke-linejoin:round" transform="translate(-3.655 -3.156)scale(1.5131)"/><path d="M3.333 16.848c-1.182-1.112-.347-.55-.19-2.197.598-1.5.44.82 1.38 1.59 1.254 1.03 3.345.074 2.233 1.257-1.428.147-2.24.462-3.423-.65z" style="fill:#4b4b4b;fill-opacity:1;stroke:#333;stroke-width:0;stroke-linejoin:round" transform="translate(-3.655 -3.156)scale(1.5131)"/><path d="M6.553 13.38c-1.182-1.112-2.417-.88-1.728-1.355.557-.144 1.354.03 2.534.54.787 1.116.871 1.115.912 2.432-.783 1.722-.535-.506-1.718-1.617z" style="fill:#676767;fill-opacity:1;stroke:#333;stroke-width:0;stroke-linejoin:round" transform="translate(-3.655 -3.156)scale(1.5131)"/><path fill="none" d="M3.333 16.848c-1.182-1.112.01-2.165.38-3.676.599-1.5 2.707-1.378 3.646-.607 1.254 1.03 1.24 2.972.129 4.154a2.94 2.94 0 0 1-4.155.129z" style="fill:#666;fill-opacity:0;stroke:#212121;stroke-width:.730854;stroke-linejoin:round;stroke-dasharray:none;stroke-opacity:1" transform="translate(-3.655 -3.156)scale(1.5131)"/><path d="M23.526 7.612c-1.15 1.145-2.164-.082-3.66-.503-1.48-.649-1.287-2.752-.485-3.664 1.072-1.22 3.012-1.14 4.157.011a2.94 2.94 0 0 1-.012 4.156z" style="fill:#5a5a5a;fill-opacity:1;stroke:#333;stroke-width:0;stroke-linejoin:round" transform="translate(-3.655 -3.156)scale(1.5131)"/><path d="M23.526 7.612c-1.15 1.145-.562.329-2.202.117-1.478-.648.834-.413 1.636-1.326 1.072-1.219.186-3.34 1.33-2.19.1 1.433.387 2.255-.764 3.4z" style="fill:#4b4b4b;fill-opacity:1;stroke:#333;stroke-width:0;stroke-linejoin:round" transform="translate(-3.655 -3.156)scale(1.5131)"/><path d="M20.168 4.277c-1.15 1.145-.96 2.386-1.412 1.682-.125-.561.076-1.352.625-2.514 1.142-.75 1.144-.833 2.462-.83 1.695.841-.524.518-1.675 1.662z" style="fill:#676767;fill-opacity:1;stroke:#333;stroke-width:0;stroke-linejoin:round" transform="translate(-3.655 -3.156)scale(1.5131)"/><path fill="none" d="M23.526 7.612c-1.15 1.145-2.164-.082-3.66-.503-1.48-.649-1.287-2.752-.485-3.664 1.072-1.22 3.012-1.14 4.157.011a2.94 2.94 0 0 1-.012 4.156z" style="fill:#666;fill-opacity:0;stroke:#212121;stroke-width:.730854;stroke-linejoin:round;stroke-dasharray:none;stroke-opacity:1" transform="translate(-3.655 -3.156)scale(1.5131)"/><path d="M16.603 20.783c.149-1.616 1.713-1.324 3.132-1.96 1.55-.451 2.751 1.286 2.72 2.5-.04 1.623-1.58 2.806-3.196 2.657a2.94 2.94 0 0 1-2.656-3.197z" style="fill:#5a5a5a;fill-opacity:1;stroke:#333;stroke-width:0;stroke-linejoin:round" transform="translate(-3.655 -3.156)scale(1.5131)"/><path d="M16.603 20.783c.149-1.616.22-.612 1.615-1.502 1.55-.45-.375.852-.405 2.067-.041 1.622 1.999 2.683.383 2.534-.995-1.036-1.742-1.483-1.593-3.099z" style="fill:#4b4b4b;fill-opacity:1;stroke:#333;stroke-width:0;stroke-linejoin:round" transform="translate(-3.655 -3.156)scale(1.5131)"/><path d="M21.318 21.19c.15-1.617-.793-2.448.005-2.197.456.35.81 1.086 1.133 2.33-.397 1.307-.343 1.373-1.357 2.215-1.84.442.07-.733.219-2.349z" style="fill:#676767;fill-opacity:1;stroke:#333;stroke-width:0;stroke-linejoin:round" transform="translate(-3.655 -3.156)scale(1.5131)"/><path fill="none" d="M16.603 20.783c.149-1.616 1.713-1.324 3.132-1.96 1.55-.451 2.751 1.286 2.72 2.5-.04 1.623-1.58 2.806-3.196 2.657a2.94 2.94 0 0 1-2.656-3.197z" style="fill:#666;fill-opacity:0;stroke:#212121;stroke-width:.730854;stroke-linejoin:round;stroke-dasharray:none;stroke-opacity:1" transform="translate(-3.655 -3.156)scale(1.5131)"/></svg>