<svg xmlns="http://www.w3.org/2000/svg" width="236.926" height="217.725" viewBox="0 0 62.687 57.606"><path d="m14.95 9.102-2.614 2.17-.846 3.288-3.382-.314-2.924 1.728-2.17-2.613-3.288-.847.314-3.381-1.728-2.924 2.613-2.17L1.772.75l3.381.314L8.077-.663l2.17 2.613 3.289.846-.314 3.382z" style="fill:#6d4a2c;fill-opacity:1;stroke:#312114;stroke-width:.79375;stroke-linejoin:round;stroke-dasharray:none;stroke-opacity:1" transform="matrix(1.6576 0 0 1.6576 19.89 16.114)"/><path fill="none" d="m14.95 9.102-2.614 2.17-.846 3.288-3.382-.314-2.924 1.728-2.17-2.613-3.288-.847.314-3.381-1.728-2.924 2.613-2.17L1.772.75l3.381.314L8.077-.663l2.17 2.613 3.289.846-.314 3.382z" style="fill:#5f4316;fill-opacity:0;fill-rule:nonzero;stroke:#312114;stroke-width:.30749;stroke-linejoin:miter;stroke-dasharray:none;stroke-opacity:1" transform="matrix(1.4263 0 0 1.4263 21.423 17.884)"/><path fill="none" d="m14.95 9.102-2.614 2.17-.846 3.288-3.382-.314-2.924 1.728-2.17-2.613-3.288-.847.314-3.381-1.728-2.924 2.613-2.17L1.772.75l3.381.314L8.077-.663l2.17 2.613 3.289.846-.314 3.382z" style="fill:#5f4316;fill-opacity:0;fill-rule:nonzero;stroke:#312114;stroke-width:.30749;stroke-linejoin:miter;stroke-dasharray:none;stroke-opacity:1" transform="matrix(1.28074 0 0 1.28074 22.389 18.999)"/><path fill="none" d="m14.95 9.102-2.614 2.17-.846 3.288-3.382-.314-2.924 1.728-2.17-2.613-3.288-.847.314-3.381-1.728-2.924 2.613-2.17L1.772.75l3.381.314L8.077-.663l2.17 2.613 3.289.846-.314 3.382z" style="fill:#5f4316;fill-opacity:0;fill-rule:nonzero;stroke:#312114;stroke-width:.30749;stroke-linejoin:miter;stroke-dasharray:none;stroke-opacity:1" transform="matrix(1.143 0 0 1.143 23.302 20.053)"/><path fill="none" d="m14.95 9.102-2.614 2.17-.846 3.288-3.382-.314-2.924 1.728-2.17-2.613-3.288-.847.314-3.381-1.728-2.924 2.613-2.17L1.772.75l3.381.314L8.077-.663l2.17 2.613 3.289.846-.314 3.382z" style="fill:#5f4316;fill-opacity:0;fill-rule:nonzero;stroke:#312114;stroke-width:.30749;stroke-linejoin:miter;stroke-dasharray:none;stroke-opacity:1" transform="matrix(1.00487 0 0 1.00487 24.218 21.11)"/><path fill="none" d="m14.95 9.102-2.614 2.17-.846 3.288-3.382-.314-2.924 1.728-2.17-2.613-3.288-.847.314-3.381-1.728-2.924 2.613-2.17L1.772.75l3.381.314L8.077-.663l2.17 2.613 3.289.846-.314 3.382z" style="fill:#5f4316;fill-opacity:0;fill-rule:nonzero;stroke:#312114;stroke-width:.30749;stroke-linejoin:miter;stroke-dasharray:none;stroke-opacity:1" transform="translate(25.256 22.309)scale(.84836)"/><path fill="none" d="m14.95 9.102-2.614 2.17-.846 3.288-3.382-.314-2.924 1.728-2.17-2.613-3.288-.847.314-3.381-1.728-2.924 2.613-2.17L1.772.75l3.381.314L8.077-.663l2.17 2.613 3.289.846-.314 3.382z" style="fill:#5f4316;fill-opacity:0;fill-rule:nonzero;stroke:#312114;stroke-width:.30749;stroke-linejoin:miter;stroke-dasharray:none;stroke-opacity:1" transform="matrix(.68315 0 0 .68315 26.351 23.573)"/><path fill="none" d="m14.95 9.102-2.614 2.17-.846 3.288-3.382-.314-2.924 1.728-2.17-2.613-3.288-.847.314-3.381-1.728-2.924 2.613-2.17L1.772.75l3.381.314L8.077-.663l2.17 2.613 3.289.846-.314 3.382z" style="fill:#5f4316;fill-opacity:0;fill-rule:nonzero;stroke:#312114;stroke-width:.30749;stroke-linejoin:miter;stroke-dasharray:none;stroke-opacity:1" transform="matrix(.56048 0 0 .56048 27.164 24.512)"/><path fill="none" d="m14.95 9.102-2.614 2.17-.846 3.288-3.382-.314-2.924 1.728-2.17-2.613-3.288-.847.314-3.381-1.728-2.924 2.613-2.17L1.772.75l3.381.314L8.077-.663l2.17 2.613 3.289.846-.314 3.382z" style="fill:#5f4316;fill-opacity:0;fill-rule:nonzero;stroke:#312114;stroke-width:.30749;stroke-linejoin:miter;stroke-dasharray:none;stroke-opacity:1" transform="matrix(.44855 0 0 .44855 27.907 25.37)"/><path fill="none" d="m14.95 9.102-2.614 2.17-.846 3.288-3.382-.314-2.924 1.728-2.17-2.613-3.288-.847.314-3.381-1.728-2.924 2.613-2.17L1.772.75l3.381.314L8.077-.663l2.17 2.613 3.289.846-.314 3.382z" style="fill:#5f4316;fill-opacity:0;fill-rule:nonzero;stroke:#312114;stroke-width:.30749;stroke-linejoin:miter;stroke-dasharray:none;stroke-opacity:1" transform="translate(28.645 26.222)scale(.33713)"/><path d="m14.95 9.102-2.614 2.17-.846 3.288-3.382-.314-2.924 1.728-2.17-2.613-3.288-.847.314-3.381-1.728-2.924 2.613-2.17L1.772.75l3.381.314L8.077-.663l2.17 2.613 3.289.846-.314 3.382z" style="fill:#312114;fill-opacity:1;fill-rule:nonzero;stroke:#4b2e00;stroke-width:0;stroke-linejoin:miter;stroke-dasharray:none;stroke-opacity:1" transform="matrix(.23694 0 0 .23694 29.31 26.99)"/><path fill="#6d4a2c" stroke="#1b1917" stroke-linejoin="round" stroke-miterlimit="16" stroke-width="1.431" d="m-.834 4.276 4.28-5.423 8.552-1.576-7.876 6.33-6.079 9.95-5.191 1.982Z" style="stroke:#312114;stroke-opacity:1" transform="translate(8.34 10.64)"/><path fill="#5f926a" d="M6.258 12.017c.402-2.155-.569-6.833-3.166-5.482-2.469 1.574 1.097 4.753 3.164 5.483z" style="fill:#d1982e;fill-opacity:.92156863;stroke-width:.279834" transform="translate(8.34 10.64)"/><path fill="#587e60" d="M11.046 4.403h-.002C8.47 3.165 2.265 2.802 3.092 6.535c1.15 3.646 6.342.229 7.952-2.13h.002z" style="fill:#d6a243;fill-opacity:.92156863;stroke-width:.279834" transform="translate(8.34 10.64)"/><path fill="#5f926a" d="M.1-.089C2.22.307 6.824-.648 5.495-3.204 3.945-5.634.817-2.124.1-.09z" style="fill:#d1982e;fill-opacity:.92156863;stroke-width:.275403" transform="translate(8.34 10.64)"/><path fill="#587e60" d="M3.925-9.597v.003C2.707-7.061 2.35-.955 6.023-1.768c3.588-1.133.225-6.242-2.096-7.827v-.002l-.001.001z" style="fill:#d6a243;fill-opacity:.92156863;stroke-width:.275403" transform="translate(8.34 10.64)"/><path fill="#77a37a" d="M5.63 2.136v.001c-1.704.559-4.612 3.08-2.538 4.398C5.269 7.672 5.999 3.893 5.63 2.138v-.001" style="fill:#d1982e;fill-opacity:.92156863;stroke-width:.279834" transform="translate(8.34 10.64)"/><path fill="#6d4a2c" stroke="#1b1917" stroke-linejoin="round" stroke-miterlimit="16" stroke-width="1.093" d="m7.368 38.03-4.142-3.267-1.204-6.533 4.834 6.016 7.6 4.642 1.513 3.965z" style="stroke:#312114;stroke-opacity:1" transform="translate(8.34 10.64)"/><path fill="#5f926a" d="M13.28 32.615c-1.647-.307-5.219.434-4.188 2.418 1.203 1.885 3.63-.838 4.188-2.417z" style="fill:#d1982e;fill-opacity:.92156863;stroke-width:.213719" transform="translate(8.34 10.64)"/><path fill="#587e60" d="M7.464 28.958v.001c-.945 1.966-1.223 6.705 1.628 6.074 2.785-.88.175-4.844-1.626-6.074v-.002z" style="fill:#d6a243;fill-opacity:.92156863;stroke-width:.213719" transform="translate(8.34 10.64)"/><path fill="#5f926a" d="M4.034 37.318c.302-1.62-.427-5.136-2.38-4.121-1.855 1.183.825 3.573 2.379 4.121" style="fill:#d1982e;fill-opacity:.92156863;stroke-width:.210335" transform="translate(8.34 10.64)"/><path fill="#587e60" d="M-3.228 34.397h.002c1.934.93 6.598 1.203 5.977-1.603-.865-2.74-4.767-.172-5.977 1.6l-.002.001z" style="fill:#d6a243;fill-opacity:.92156863;stroke-width:.210335" transform="translate(8.34 10.64)"/><path fill="#77a37a" d="M5.733 33.094c.427 1.301 2.354 3.522 3.36 1.939.868-1.663-2.019-2.22-3.359-1.94" style="fill:#d1982e;fill-opacity:.92156863;stroke-width:.213719" transform="translate(8.34 10.64)"/><path fill="#6d4a2c" stroke="#1b1917" stroke-linejoin="round" stroke-miterlimit="16" stroke-width="1.293" d="m49.014 3.23-.897 6.172-5.977 5.095 3.301-8.506.261-10.526 3.165-3.894Z" style="stroke:#312114;stroke-opacity:1" transform="translate(8.34 10.64)"/><path fill="#5f926a" d="M39.974.378c.659 1.867 3.53 5.087 4.95 2.858C46.145.89 41.922.014 39.975.376z" style="fill:#d1982e;fill-opacity:.92156863;stroke-width:.252687" transform="translate(8.34 10.64)"/><path fill="#587e60" d="m39.667 8.494.002-.001c2.571-.194 7.587-2.711 5.256-5.257-2.546-2.332-5.063 2.684-5.257 5.256z" style="fill:#d6a243;fill-opacity:.92156863;stroke-width:.252687" transform="translate(8.34 10.64)"/><path fill="#5f926a" d="M50.255 7.065c-1.838.648-5.006 3.473-2.813 4.872 2.309 1.2 3.171-2.956 2.814-4.872z" style="fill:#d1982e;fill-opacity:.92156863;stroke-width:.248686" transform="translate(8.34 10.64)"/><path fill="#587e60" d="m51.557 16.227-.002-.002c-.19-2.53-2.668-7.467-5.174-5.173-2.294 2.506 2.642 4.983 5.173 5.174l.002.002v-.001" style="fill:#d6a243;fill-opacity:.92156863;stroke-width:.248686" transform="translate(8.34 10.64)"/><path fill="#77a37a" d="M44.925 7.822V7.82c1.08-1.205 2.216-4.49 0-4.584-2.216.093-1.081 3.379 0 4.585" style="fill:#d1982e;fill-opacity:.92156863;stroke-width:.252687" transform="translate(8.34 10.64)"/></svg>