<?xml version="1.0" encoding="UTF-8" standalone="no"?>
<svg
   version="1.1"
   width="100"
   height="100"
   viewBox="0 0 100 100"
   xml:space="preserve"
   id="svg218"
   sodipodi:docname="vibrant_bush_residue.svg"
   inkscape:version="1.3 (0e150ed, 2023-07-21)"
   xmlns:inkscape="http://www.inkscape.org/namespaces/inkscape"
   xmlns:sodipodi="http://sodipodi.sourceforge.net/DTD/sodipodi-0.dtd"
   xmlns="http://www.w3.org/2000/svg"
   xmlns:svg="http://www.w3.org/2000/svg"><sodipodi:namedview
   id="namedview220"
   pagecolor="#505050"
   bordercolor="#eeeeee"
   borderopacity="1"
   inkscape:showpageshadow="0"
   inkscape:pageopacity="0"
   inkscape:pagecheckerboard="true"
   inkscape:deskcolor="#505050"
   showgrid="false"
   inkscape:zoom="2.56"
   inkscape:cx="55.078125"
   inkscape:cy="48.4375"
   inkscape:window-width="1312"
   inkscape:window-height="449"
   inkscape:window-x="0"
   inkscape:window-y="25"
   inkscape:window-maximized="0"
   inkscape:current-layer="svg218"
   showguides="true"
   inkscape:pageshadow="0" />&#10;<desc
   id="desc181">Created with Fabric.js 5.3.0</desc>&#10;<defs
   id="defs183" />&#10;&#10;<path
   id="path542-2-2"
   style="fill:#6d6902;fill-opacity:0.9254902;stroke:#333333;stroke-width:0;stroke-linejoin:round;stroke-dasharray:none"
   d="M 73.854704,42.529802 C 69.935918,42.218398 67.256113,36.653131 69.486,33.269703 73.324975,27.444899 88.608301,23.521287 90.531608,28.691118 92.454915,33.860747 80.522249,43.059933 73.854704,42.529802 Z"
   sodipodi:nodetypes="aaza" /><path
   id="path542-6"
   style="fill:#77781f;fill-opacity:0.9254902;stroke:#333333;stroke-width:0;stroke-linejoin:round;stroke-dasharray:none"
   d="M 75.823042,40.451095 C 70.677939,43.321681 60.891127,39.083048 59.648526,33.32358 57.509307,23.408708 75.9312,8.3386803 79.957741,10.663455 c 4.026541,2.324776 4.619395,24.903481 -4.134699,29.78764 z"
   sodipodi:nodetypes="aaza" /><path
   id="path542-0-2"
   style="fill:#9b9929;fill-opacity:0.9254902;stroke:#333333;stroke-width:0;stroke-linejoin:round;stroke-dasharray:none"
   d="m 68.053822,31.308802 c 0.434438,3.602758 -4.041417,6.792388 -7.464047,5.225517 -5.892353,-2.697495 -10.067459,-17.406864 -7.908538,-18.499694 2.158921,-1.09303 14.633378,7.144201 15.372585,13.274177 z"
   sodipodi:nodetypes="aaza" /><path
   id="path542-2-2-8"
   style="fill:#6d6902;fill-opacity:0.9254902;stroke:#333333;stroke-width:0;stroke-linejoin:round;stroke-dasharray:none"
   d="m 32.73203,60.849794 c 3.106026,2.409659 2.294543,8.532979 -1.425697,10.139153 -6.40471,2.765097 -21.3362605,-2.336233 -20.109087,-7.713993 1.227063,-5.377592 16.250257,-6.525279 21.534784,-2.42516 z"
   sodipodi:nodetypes="aaza" /><path
   id="path542-6-4"
   style="fill:#77781f;fill-opacity:0.9254902;stroke:#333333;stroke-width:0;stroke-linejoin:round;stroke-dasharray:none"
   d="m 29.946069,61.508431 c 5.876621,0.421514 11.735483,9.333385 9.615727,14.830853 -3.649062,9.463894 -27.318307,11.961637 -29.410197,7.809335 -2.0918907,-4.152302 9.795728,-23.357351 19.79447,-22.640188 z"
   sodipodi:nodetypes="aaza" /><path
   id="path542-0-2-0"
   style="fill:#9b9929;fill-opacity:0.9254902;stroke:#333333;stroke-width:0;stroke-linejoin:round;stroke-dasharray:none"
   d="m 31.428432,73.414097 c 1.612674,-3.250829 7.104662,-3.463143 9.107248,-0.275804 3.447628,5.487272 -1.128618,20.076824 -3.533234,19.806562 -2.404725,-0.270094 -8.317904,-13.999564 -5.574014,-19.530758 z"
   sodipodi:nodetypes="aaza" /><path
   id="path542-6-8"
   style="fill:#77781f;fill-opacity:0.9254902;stroke:#333333;stroke-width:0;stroke-linejoin:round;stroke-dasharray:none"
   d="M 56.271107,76.60061 C 54.42773,69.42239 62.650196,58.809757 70.008256,59.099653 82.675119,59.598593 95.070173,86.802718 90.984773,90.98686 86.899372,95.171001 59.407533,88.813941 56.271107,76.60061 Z"
   sodipodi:nodetypes="aaza" /><path
   id="path542-0-2-4"
   style="fill:#9b9929;fill-opacity:0.9254902;stroke:#333333;stroke-width:0;stroke-linejoin:round;stroke-dasharray:none"
   d="m 69.785127,69.987574 c -4.49425,-0.59969 -6.935205,-7.061346 -3.95742,-10.746269 5.126504,-6.343915 24.235505,-6.825649 24.873934,-3.848643 0.638672,2.977069 -13.269683,15.615234 -20.916514,14.594912 z"
   sodipodi:nodetypes="aaza" /><path
   id="path542-6-8-6"
   style="fill:#77781f;fill-opacity:0.9254902;stroke:#333333;stroke-width:0;stroke-linejoin:round;stroke-dasharray:none"
   d="M 43.494453,23.920493 C 45.046304,31.16733 36.401771,41.439086 29.061432,40.85214 16.42507,39.84183 5.1392618,12.159122 9.3903779,8.1434588 13.641494,4.1277957 40.854042,11.590415 43.494453,23.920493 Z"
   sodipodi:nodetypes="aaza" /><path
   id="path542-0-2-4-4"
   style="fill:#9b9929;fill-opacity:0.9254902;stroke:#333333;stroke-width:0;stroke-linejoin:round;stroke-dasharray:none"
   d="m 29.724282,29.982125 c 4.466351,0.780781 6.644244,7.335782 3.520008,10.897385 C 27.86566,47.01112 8.7527989,46.720402 8.2351707,43.720032 7.717302,40.719589 22.124919,28.653682 29.724282,29.982125 Z"
   sodipodi:nodetypes="aaza" /></svg>
