<svg xmlns="http://www.w3.org/2000/svg" xml:space="preserve" width="53.708" height="57.872" viewBox="0 0 14.211 15.312"><g fill="#1c274c" style="fill:none;stroke-width:.59644;stroke-dasharray:none"><path d="M20.75 4.5a2.5 2.5 0 1 1-5 0 2.5 2.5 0 0 1 5 0" style="fill:#b4a894;fill-opacity:1;stroke:none;stroke-width:.59644;stroke-dasharray:none;stroke-opacity:1" transform="matrix(.70712 0 0 .69164 -1.203 -1.177)"/><path fill-rule="evenodd" d="M9.802 5.93a4 4 0 0 1 .721-.043q.12.006.273.02c2.383.248 4.15 2.036 5.328 3.802l.063.094a3.25 3.25 0 0 0 2.704 1.447h1.859a.75.75 0 0 1 0 1.5h-1.86a4.75 4.75 0 0 1-3.952-2.115l-.062-.094A11 11 0 0 0 14 9.39l-1.884 2.355c-.427.534-.714.894-.907 1.19-.188.286-.241.445-.255.566-.024.2.002.403.073.591.044.114.135.256.386.487.26.24.626.518 1.171.93l.096.073c.72.546 1.22.924 1.565 1.428.197.287.352.6.463.93.193.58.193 1.206.193 2.11V22a.75.75 0 0 1-1.5 0v-1.83c0-1.07-.01-1.435-.116-1.755a2.3 2.3 0 0 0-.278-.558c-.19-.278-.475-.505-1.328-1.152l-.03-.021c-.508-.386-.932-.707-1.251-1.001-.334-.307-.611-.635-.772-1.056a2.75 2.75 0 0 1-.162-1.3c.052-.448.241-.835.49-1.214.237-.362.569-.778.968-1.277l1.984-2.479c-.687-.523-1.444-.871-2.264-.956a3 3 0 0 0-.184-.014 2.5 2.5 0 0 0-.45.03c-1.065.148-2.132.74-4.45 2.057l-1.436.815a.75.75 0 1 1-.742-1.304l1.436-.815.152-.087c2.12-1.204 3.449-1.96 4.835-2.151M9.23 16.425a.75.75 0 0 1 .096 1.056l-1 1.201-.097.116c-.642.771-1.113 1.338-1.771 1.646s-1.395.308-2.4.307H2.75a.75.75 0 0 1 0-1.5h1.158c1.222 0 1.596-.017 1.913-.165.318-.149.57-.426 1.352-1.364l1-1.201a.75.75 0 0 1 1.057-.096" clip-rule="evenodd" style="fill:#b4a894;fill-opacity:1;stroke:none;stroke-width:.59644;stroke-dasharray:none;stroke-opacity:1" transform="matrix(.70712 0 0 .69164 -1.203 -1.177)"/></g><g style="fill:none;fill-opacity:1;stroke-width:.59644;stroke-dasharray:none"><path d="M.291 16.077s2.821.18 3.672-.224c.851-.403 2.463-2.754 2.463-2.754l-.403-.045-2.284 2.374-3.18.179Z" style="fill:#a39888;fill-opacity:1;fill-rule:evenodd;stroke:none;stroke-width:.529167;stroke-linecap:square;stroke-linejoin:miter;stroke-miterlimit:29;stroke-dasharray:none;stroke-opacity:1" transform="scale(.79702 .77957)"/><path d="M3.14 9.854 8.39 6.95s2.297-1.211 5.451.606l.278-.177-2.751-1.489s-1.388-.48-3.937.833L3.19 9.122s-.606.454-.05.732" style="fill:#a39888;fill-opacity:1;fill-rule:evenodd;stroke:none;stroke-width:.59644;stroke-linecap:square;stroke-linejoin:miter;stroke-miterlimit:29;stroke-dasharray:none;stroke-opacity:1" transform="matrix(.70712 0 0 .69164 -1.203 -1.177)"/><path d="M16.624 5.965s1.328 1.24 2.861-.294c1.534-1.533.248-2.815.248-2.815s1.635 1.64.106 3.169-3.215-.06-3.215-.06" style="fill:#c0b6a5;fill-opacity:1;fill-rule:evenodd;stroke:none;stroke-width:.156362;stroke-linecap:round;stroke-linejoin:round;stroke-miterlimit:29;stroke-dasharray:none;stroke-opacity:1" transform="matrix(.70712 0 0 .69164 -1.203 -1.177)"/><path d="M19.912 3.024s-1.328-1.239-2.862.295c-1.533 1.533-.248 2.815-.248 2.815s-1.635-1.64-.106-3.17c1.53-1.528 3.216.06 3.216.06" style="fill:#a39888;fill-opacity:1;fill-rule:evenodd;stroke:none;stroke-width:.156362;stroke-linecap:round;stroke-linejoin:round;stroke-miterlimit:29;stroke-dasharray:none;stroke-opacity:1" transform="matrix(.70712 0 0 .69164 -1.203 -1.177)"/><path d="M21.337 11.873h-2.726s-2.007-.028-2.909-1.68-.75-1.652-.75-1.652 1.236 1.515 2.095 2.095c.858.58 3.785.656 3.785.656s.43.202.505.58M10.964 12.832s-1.399 1.215.23 2.46c1.436 1.098 2.143 1.654 2.143 1.654s.72.695.814 1.647.12 3.98.12 3.98.58.051.605-.353 0-3.634 0-3.634.202-1.413-1.893-2.801-1.943-1.843-1.943-1.843-.177-.404.05-.858.227-.353.227-.353z" style="fill:#c0b6a5;fill-opacity:1;fill-rule:evenodd;stroke:none;stroke-width:.59644;stroke-linecap:square;stroke-linejoin:miter;stroke-miterlimit:29;stroke-dasharray:none;stroke-opacity:1" transform="matrix(.70712 0 0 .69164 -1.203 -1.177)"/><path fill="#1c274c" d="M20.75 4.5a2.5 2.5 0 1 1-5 0 2.5 2.5 0 0 1 5 0z" style="fill:none;fill-opacity:1;stroke:#000;stroke-width:.59644;stroke-dasharray:none;stroke-opacity:1" transform="matrix(.70712 0 0 .69164 -1.203 -1.177)"/><path fill="#1c274c" d="M9.802 5.93a4 4 0 0 1 .721-.043q.12.006.273.02c2.383.248 4.15 2.036 5.328 3.802l.063.094a3.25 3.25 0 0 0 2.704 1.447h1.859a.75.75 0 0 1 0 1.5h-1.86a4.75 4.75 0 0 1-3.952-2.115l-.062-.094A11 11 0 0 0 14 9.39l-1.884 2.355c-.427.534-.714.894-.907 1.19-.188.286-.241.445-.255.566-.024.2.002.403.073.591.044.114.135.256.386.487.26.24.626.518 1.171.93l.096.073c.72.546 1.22.924 1.565 1.428.197.287.352.6.463.93.193.58.193 1.206.193 2.11V22a.75.75 0 0 1-1.5 0v-1.83c0-1.07-.01-1.435-.116-1.755a2.3 2.3 0 0 0-.278-.558c-.19-.278-.475-.505-1.328-1.152l-.03-.021c-.508-.386-.932-.707-1.251-1.001-.334-.307-.611-.635-.772-1.056a2.75 2.75 0 0 1-.162-1.3c.052-.448.241-.835.49-1.214.237-.362.569-.778.968-1.277l1.984-2.479c-.687-.523-1.444-.871-2.264-.956a3 3 0 0 0-.184-.014 2.5 2.5 0 0 0-.45.03c-1.065.148-2.132.74-4.45 2.057l-1.436.815a.75.75 0 1 1-.742-1.304l1.436-.815.152-.087c2.12-1.204 3.449-1.96 4.835-2.151ZM9.23 16.425a.75.75 0 0 1 .096 1.056l-1 1.201-.097.116c-.642.771-1.113 1.338-1.771 1.646s-1.395.308-2.4.307H2.75a.75.75 0 0 1 0-1.5h1.158c1.222 0 1.596-.017 1.913-.165.318-.149.57-.426 1.352-1.364l1-1.201a.75.75 0 0 1 1.057-.096z" clip-rule="evenodd" style="fill:none;fill-opacity:1;stroke:#000;stroke-width:.59644;stroke-dasharray:none;stroke-opacity:1" transform="matrix(.70712 0 0 .69164 -1.203 -1.177)"/><path d="M17.435 5.77s.42-.383.803 0l.848.848" style="fill:none;fill-opacity:1;fill-rule:evenodd;stroke:#000;stroke-width:.59644;stroke-linecap:square;stroke-linejoin:miter;stroke-miterlimit:29;stroke-dasharray:none;stroke-opacity:1" transform="matrix(.70712 0 0 .69164 -1.203 -1.177)"/><path d="M20.608 4.103c.3.3-.013.678-.334 1-.378.377-.873.494-1.107.261-.23-.23-.33-.637.25-1.093.369.37.646.377 1.19-.168z" style="fill:#fff;fill-opacity:1;fill-rule:evenodd;stroke:#000;stroke-width:.59644;stroke-linecap:square;stroke-linejoin:miter;stroke-miterlimit:29;stroke-dasharray:none;stroke-opacity:1" transform="matrix(.70712 0 0 .69164 -1.203 -1.177)"/></g><path d="M13.473 11.682c-.184.286.657.636.456.985-.202.35-.601.14-.95-.098-.394-.228-.833-.442-1.03-.099-.199.343.848.691.538 1.13M13.909 14.496c-.178.039.008.487-.2.543s-.28-.173-.32-.395c-.063-.234-.148-.48-.352-.425s.06.58-.223.629M11.395 11.031c-.055.174.426.237.37.445-.055.207-.29.155-.502.08-.234-.063-.489-.112-.544.092-.054.203.533.238.434.507M5.73 19.129c-.23-.253-.784.47-1.07.184-.285-.285.02-.616.342-.892.32-.321.641-.69.361-.97s-.887.642-1.231.229M2.899 18.82c.008-.18-.473-.118-.473-.332s.24-.225.465-.208c.242 0 .501-.018.501-.23 0-.21-.576-.092-.55-.377M6.896 17.29c-.153-.098-.339.35-.525.242s-.075-.32.052-.506c.121-.21.236-.443.053-.548s-.368.452-.602.287" style="fill:none;fill-opacity:1;fill-rule:evenodd;stroke:#910808;stroke-width:.529167;stroke-linecap:square;stroke-linejoin:miter;stroke-miterlimit:29;stroke-dasharray:none;stroke-opacity:1" transform="scale(.79702 .77957)"/></svg>