<svg xmlns="http://www.w3.org/2000/svg" xml:space="preserve" width="61.1" height="52.2" viewBox="0 0 16.166 13.811"><path d="M10.817.847s1.855.14 1.855.624-1.855.624-1.855.624z" style="fill:#d99c26;fill-opacity:1;fill-rule:evenodd;stroke:#523d14;stroke-width:.40208;stroke-linecap:round;stroke-linejoin:round;stroke-miterlimit:29;stroke-dasharray:none;stroke-opacity:1" transform="translate(-6.98 -.675)scale(1.31607)"/><path d="M9.405.79h1.267v1.362H9.405z" style="fill:#d99c26;fill-opacity:1;fill-rule:evenodd;stroke:#523d14;stroke-width:.529167;stroke-linecap:round;stroke-linejoin:round;stroke-miterlimit:29;stroke-dasharray:none;stroke-opacity:1" transform="translate(-6.98 -.675)scale(1.31607)"/><path d="M11.37 4.358v6.984l-7.152.918V3.094h4.839s.81-.046 1.02.798c0 0 .615.474 1.293.466" style="display:inline;fill:#8f897f;fill-opacity:1;stroke:none;stroke-width:.5881;stroke-linecap:round;stroke-linejoin:round;stroke-dasharray:none;stroke-opacity:1" transform="translate(-5.271 -3.592)scale(1.31607)"/><path d="M6.894 3.443v8.306M8.202 3.443v7.936" style="display:inline;fill:none;fill-opacity:1;stroke:#757066;stroke-width:.623747;stroke-linecap:square;stroke-linejoin:round;stroke-dasharray:none;stroke-opacity:1" transform="translate(-5.271 -3.592)scale(1.31607)"/><path d="M5.586 3.443v8.435" style="display:inline;fill:none;fill-opacity:1;stroke:#757066;stroke-width:.614278;stroke-linecap:square;stroke-linejoin:round;stroke-dasharray:none;stroke-opacity:1" transform="translate(-5.271 -3.592)scale(1.31607)"/><path d="m9.658.823.982.729v10.45h-.982Z" style="fill:#757066;fill-opacity:1;fill-rule:evenodd;stroke-width:.529167;stroke-linecap:round;stroke-linejoin:round;stroke-miterlimit:29" transform="translate(-2.765 -.5)"/><path d="M1.484.547s-.482.019-.469.668v11.182l-.646.143V.86l.637-.636Z" style="fill:#524e47;fill-opacity:1;fill-rule:evenodd;stroke:none;stroke-width:.529167;stroke-linecap:round;stroke-linejoin:round;stroke-miterlimit:29;stroke-dasharray:none;stroke-opacity:1"/><path d="M10.729 4.536h.462v6.671h-.462z" style="fill:#aca7a0;fill-opacity:1;fill-rule:evenodd;stroke:none;stroke-width:.40208;stroke-linecap:round;stroke-linejoin:round;stroke-miterlimit:29;stroke-dasharray:none;stroke-opacity:1" transform="translate(-5.271 -3.592)scale(1.31607)"/><path d="M11.37 4.358v6.984l-7.152.918V3.752s-.141-.819.818-.819h4.091s.902.036.902.902c0 0 .03.523 1.341.523" style="display:inline;fill:none;fill-opacity:1;stroke:#363430;stroke-width:.40208;stroke-linecap:round;stroke-linejoin:round;stroke-dasharray:none;stroke-opacity:1" transform="translate(-5.271 -3.592)scale(1.31607)"/><path d="M10.162 3.701h1.417v.917h-1.417z" style="fill:#524e47;fill-opacity:1;fill-rule:evenodd;stroke:none;stroke-width:.442949;stroke-linecap:round;stroke-linejoin:round;stroke-miterlimit:29;stroke-dasharray:none;stroke-opacity:1" transform="translate(-2.765 -.5)"/><path d="M15.114.464v6.961h-1.602l1.786 3.094 1.786 3.093 1.786-3.093 1.786-3.094h-1.602V.465Z" style="fill:#bd0f0f;fill-opacity:1;fill-rule:evenodd;stroke:none;stroke-width:.529167;stroke-linecap:round;stroke-linejoin:round;stroke-miterlimit:29" transform="translate(-4.76 -.07)"/><path d="M15.978 8.06h-1.32l2.485 5.15L13.65 7.48l1.433-.09V.36h.895v6.806Z" style="fill:#ed1212;fill-opacity:1;fill-rule:evenodd;stroke:none;stroke-width:.529167;stroke-linecap:round;stroke-linejoin:round;stroke-miterlimit:29" transform="translate(-4.76 -.07)"/><path d="M18.182 8.06h1.32l-2.485 5.15 3.494-5.731-1.433-.09V.36h-.896v6.806Z" style="fill:#8e0b0b;fill-opacity:1;fill-rule:evenodd;stroke:none;stroke-width:.529167;stroke-linecap:round;stroke-linejoin:round;stroke-miterlimit:29" transform="translate(-4.76 -.07)"/><path d="M15.114.464v6.961h-1.602l1.786 3.094 1.786 3.093 1.786-3.093 1.786-3.094h-1.602V.465Z" style="fill:none;fill-rule:evenodd;stroke:#000;stroke-width:.529167;stroke-linecap:round;stroke-linejoin:round;stroke-miterlimit:29" transform="translate(-4.76 -.07)"/></svg>