<svg xmlns="http://www.w3.org/2000/svg" width="73.384" height="70.212" viewBox="0 0 19.416 18.577"><path d="m37.76.659-4.525 4.03 2.016 7.139-8.375 7.526 6.148 1.203 9.05-.211 4.98-1.52-4.912-5.23.106-7.566z" class="cls-11" style="fill:#514b3c" transform="translate(0 -.004)scale(.26458)"/><path d="M37.195 19.496c-7.248 2.379-13.43 7.487-14.708 25.17.64 15.367 5.722 21.984 12.94 24.384 8.5-.212 13.557-7.922 15.836-21.703-.665-11.1-1.938-21.926-14.068-27.85" class="cls-1" style="fill:#704f4f" transform="translate(0 -.004)scale(.26458)"/><path d="M25.319 19.496c7.426-3.27 13.197-6.19 8.37-12.492-1.007-1.164 0-2.72.495-3.129l2.76-2.327c.916-.65 2.14-.348 2.902.568a12.1 12.1 0 0 1 2.433 8.793c-.483 4.446 2.334 6.184 4.474 8.092" class="cls-3" style="fill:none;stroke:#191713;stroke-width:2.4px;stroke-miterlimit:12.0907" transform="translate(0 -.004)scale(.26458)"/><path d="m33.072 21.25-5.501-2.053-8.346 2.65C3.82 39.34 9.446 51.37 17.826 62.685l5.55 4.498 7.145-.048-6.348-11.096-1.75-14.796 3.6-13.197zm7.146.1 5.498-2.05 8.346 2.648c15.406 17.492 9.779 29.522 1.4 40.836l-5.547 4.5-7.149-.05 6.348-11.097 1.75-14.796-3.596-13.194z" class="cls-2" style="fill:#5b4141" transform="translate(0 -.004)scale(.26458)"/><path d="m51.262 19.992 7.635 7.705 4.664 13.43-1.696 13.783-8.623 11.169 4.17-.351 8.836-5.586 5.513-11.592.282-11.38-3.395-9.827-7.916-7.351-6.221-1.345zm-29.253.571-7.635 7.708-4.664 13.43 1.696 13.783 8.624 11.169-4.171-.354-8.836-5.586L1.51 49.121l-.281-11.38 3.391-9.824 7.92-7.354 6.221-1.342z" class="cls-7" style="fill:#4f3a3a" transform="translate(0 -.004)scale(.26458)"/><path d="M33.217 20.923c2.074-1.143 4.948-1.282 7.284-.239 1.654-.877 4.987-2.349 9.432-.892 11.516-4.452 21.294 7.3 22.195 21.434.913 14.316-9.551 26.621-19.23 24.45-3.646 2.107-6.97 2.618-11.214 1.533-4.051 2.847-7.965 2.05-10.586-.063-3.243 1.058-6.928.876-10.755-1.59C10.98 69.213.983 55.418 1.203 43.097c.324-18.32 14.253-27.515 22.477-23.283 1.052-.363 6.36-1.216 9.537 1.109z" class="cls-5" style="fill:none;stroke:#190d0d;stroke-width:2.4px;stroke-miterlimit:12.0907" transform="translate(0 -.004)scale(.26458)"/><path d="M23.484 19.85C9.214 25.45 3.8 52.4 20.63 65.75m29.412-45.927c14.333 4.449 19.363 35.153 2.215 46.253" class="cls-4" style="fill:none;stroke:#190d0d;stroke-width:2.4px;stroke-miterlimit:12.0907" transform="translate(0 -.004)scale(.26458)"/><path d="M32.821 21.122c-13.088 8.51-13.03 36.418-2.148 45.685M40.84 20.808c13.614 9.355 12.306 37.72.587 46.58" class="cls-4" style="fill:none;stroke:#190d0d;stroke-width:2.4px;stroke-miterlimit:12.0907" transform="translate(0 -.004)scale(.26458)"/><path d="M37.575 41.816v-2.508c-4.66-.27-9.271 1.544-10.29 6.52a6.7 6.7 0 0 1-.978-2.151s-.618-2.466.78-5.3c1.532-3.104 5.656-5.104 10.488-5.088v-2.257l6.787 5.747zM35.895 46.03v2.51c4.66.269 9.27-1.545 10.289-6.522.32.467.738 1.193.978 2.152 0 0 .619 2.466-.78 5.3-1.53 3.104-5.656 5.104-10.487 5.088v2.257l-6.788-5.747z" class="cls-6" style="fill:#514b3c;stroke:#191713;stroke-width:1.8px;stroke-miterlimit:12.0907" transform="translate(0 -.004)scale(.26458)"/><path d="M41.578 15.014c-1.65 0-3.27-.258-4.816-.768a15.3 15.3 0 0 1-5.307-3.032 1.95 1.95 0 0 1 2.567-2.937 11.4 11.4 0 0 0 7.553 2.836c.562 0 1.125-.04 1.676-.121q.15-.021.29-.021c.972 0 1.78.7 1.922 1.666a1.953 1.953 0 0 1-1.645 2.214 16 16 0 0 1-2.24.163z" class="cls-8" style="fill:#60574a" transform="translate(0 -.004)scale(.26458)"/><path d="M32.738 8.546c.28 0 .563.098.792.297a12.15 12.15 0 0 0 8.045 3.02q.897 0 1.784-.129.092-.013.182-.013c.598 0 1.092.43 1.18 1.026a1.2 1.2 0 0 1-1.013 1.361 15 15 0 0 1-2.131.156 14.541 14.541 0 0 1-9.628-3.614 1.2 1.2 0 0 1 .789-2.104m0-1.5a2.7 2.7 0 0 0-1.778 4.731 16 16 0 0 0 5.567 3.18 16.1 16.1 0 0 0 5.85.787 16 16 0 0 0 1.55-.152 2.68 2.68 0 0 0 1.773-1.06c.431-.579.61-1.29.505-2.005a2.68 2.68 0 0 0-2.664-2.306q-.195 0-.395.028a10.9 10.9 0 0 1-4.929-.42 10.7 10.7 0 0 1-3.7-2.115 2.7 2.7 0 0 0-1.779-.668" class="cls-10" style="fill:#231f18" transform="translate(0 -.004)scale(.26458)"/><path d="M60.387 31.778c-2.587-.05-4.616-.7-8.658-1.991l-.891-.285c-3.677-1.17-5.703-1.813-7.6-3.5-.549-.485-.975-.943-1.352-1.346-.702-.754-1.206-1.295-2.298-1.89-.812-.441-2.17-1.181-3.949-1.251a6 6 0 0 0-.282-.007c-.43 0-.766.045-1.122.092-.377.05-.732.096-1.132.096a4.5 4.5 0 0 1-1.658-.311c-1.593-.618-2.806-1.981-3.605-4.053a1.954 1.954 0 0 1 1.82-2.652c.811 0 1.526.49 1.819 1.247.382.991.857 1.62 1.375 1.821a.6.6 0 0 0 .25.048c.152 0 .332-.024.592-.059.437-.057.973-.128 1.673-.128q.203 0 .425.008c2.691.107 4.622 1.16 5.66 1.725 1.644.895 2.513 1.827 3.28 2.648.348.373.676.725 1.093 1.097 1.278 1.136 2.921 1.658 6.193 2.699l.892.284c3.687 1.179 5.535 1.77 7.55 1.809l.27.002c2.439 0 4.89-.576 7.282-1.714q.4-.19.838-.19c.748 0 1.44.437 1.76 1.112a1.95 1.95 0 0 1-.923 2.6c-2.92 1.388-5.922 2.093-8.923 2.093z" class="cls-8" style="fill:#60574a" transform="translate(0 -.004)scale(.26458)"/><path d="M29.66 15.43a1.2 1.2 0 0 1 1.12.768c.466 1.21 1.073 1.966 1.803 2.25.182.07.333.098.521.098.177 0 .388-.025.69-.065.418-.055.921-.122 1.575-.122q.188 0 .395.008c2.516.1 4.347 1.098 5.33 1.634 1.539.837 2.328 1.683 3.092 2.501.362.389.705.756 1.143 1.145 1.398 1.242 3.09 1.781 6.464 2.854l.892.284c3.755 1.2 5.637 1.802 7.763 1.844l.284.003c2.54 0 5.097-.595 7.604-1.787a1.2 1.2 0 0 1 1.6.567 1.2 1.2 0 0 1-.569 1.6c-2.821 1.341-5.713 2.02-8.6 2.02l-.366-.003c-2.476-.05-4.47-.686-8.443-1.956l-.893-.285c-3.58-1.139-5.551-1.766-7.33-3.346-.523-.465-.938-.91-1.304-1.303-.72-.77-1.287-1.38-2.485-2.03-.868-.474-2.322-1.266-4.277-1.344a7 7 0 0 0-.312-.007c-.491 0-.875.053-1.249.103-.324.042-.653.085-1.004.085-.42 0-.873-.062-1.389-.26-1.386-.538-2.455-1.758-3.175-3.624a1.2 1.2 0 0 1 1.12-1.632m0-1.5q-.5 0-.97.18a2.705 2.705 0 0 0-1.55 3.491c.88 2.278 2.236 3.786 4.033 4.483a5.3 5.3 0 0 0 1.93.362c.449 0 .846-.052 1.196-.098.38-.05.678-.09 1.058-.09q.117 0 .246.006c1.611.064 2.823.724 3.626 1.161.986.537 1.43 1.015 2.105 1.737.373.4.832.892 1.406 1.402 2.016 1.791 4.22 2.492 7.87 3.653l.892.285c3.98 1.272 6.174 1.973 8.87 2.026q.196.005.395.005c3.113-.001 6.223-.73 9.244-2.167a2.704 2.704 0 0 0 1.28-3.597 2.72 2.72 0 0 0-2.44-1.541c-.402 0-.792.088-1.157.261-2.294 1.09-4.635 1.643-6.962 1.643l-.257-.002c-1.903-.038-3.717-.618-7.33-1.772l-.896-.286c-3.172-1.01-4.764-1.515-5.923-2.546-.391-.348-.708-.687-1.043-1.047-.806-.864-1.72-1.842-3.47-2.796-1.013-.552-3.122-1.701-5.99-1.815q-.236-.01-.454-.01c-.749 0-1.336.079-1.765.135-.163.022-.402.053-.5.053-.212-.087-.582-.5-.925-1.388a2.68 2.68 0 0 0-2.52-1.728z" class="cls-10" style="fill:#231f18" transform="translate(0 -.004)scale(.26458)"/><path d="M43.052 69.476a1.96 1.96 0 0 1-1.58-.807 17.4 17.4 0 0 0-3.06-3.252c-2.4-1.96-4.667-2.654-6.86-3.326-2.476-.76-5.028-1.544-7.587-3.911-1.678-1.554-2.118-2.677-2.47-3.58-.282-.72-.504-1.288-1.658-2.381-1.933-1.83-3.67-2.433-5.508-3.07-2.037-.705-4.34-1.501-6.2-4.077-.952-1.319-1.202-2.274-1.465-3.286-.228-.873-.512-1.96-1.493-3.851a28.6 28.6 0 0 0-3.885-5.677 1.94 1.94 0 0 1-.48-1.414 1.945 1.945 0 0 1 3.412-1.158 32.5 32.5 0 0 1 4.414 6.451c1.182 2.28 1.542 3.656 1.804 4.661.22.844.33 1.265.854 1.99 1.14 1.577 2.47 2.037 4.309 2.674 2.05.71 4.373 1.513 6.92 3.925 1.786 1.691 2.241 2.854 2.607 3.789.28.72.465 1.194 1.488 2.142 1.907 1.763 3.748 2.328 6.08 3.043 2.435.747 5.193 1.591 8.186 4.037a21.2 21.2 0 0 1 3.75 3.984c.63.87.435 2.092-.435 2.723-.335.243-.73.37-1.144.37z" class="cls-8" style="fill:#60574a" transform="translate(0 -.004)scale(.26458)"/><path d="M2.751 29.772c.334 0 .666.138.904.41a31.8 31.8 0 0 1 4.312 6.301C9.11 38.69 9.457 40.02 9.71 40.99c.228.871.365 1.397.971 2.236 1.279 1.77 2.776 2.288 4.671 2.945 1.98.684 4.221 1.46 6.65 3.76 1.666 1.577 2.069 2.61 2.425 3.52.295.756.528 1.352 1.677 2.416 2.033 1.88 4.043 2.497 6.37 3.21 2.367.726 5.05 1.549 7.93 3.901a20.5 20.5 0 0 1 3.617 3.843 1.2 1.2 0 0 1-1.943 1.408 18 18 0 0 0-3.193-3.392c-2.514-2.054-4.853-2.771-7.115-3.464-2.39-.734-4.86-1.49-7.296-3.744-1.554-1.438-1.941-2.43-2.283-3.304-.302-.775-.563-1.443-1.84-2.652-2.051-1.943-3.949-2.6-5.783-3.235-2.02-.7-4.11-1.422-5.832-3.806-.87-1.204-1.091-2.052-1.348-3.036-.237-.909-.532-2.04-1.553-4.008a29.4 29.4 0 0 0-3.986-5.825 1.2 1.2 0 0 1 .901-1.991m0-1.5c-.655 0-1.288.239-1.78.671a2.68 2.68 0 0 0-.913 1.852c-.047.72.189 1.415.665 1.958a27.9 27.9 0 0 1 3.782 5.527c.943 1.817 1.203 2.815 1.433 3.695.27 1.034.548 2.103 1.583 3.536 2 2.768 4.42 3.605 6.556 4.345 1.767.612 3.43 1.188 5.245 2.907 1.032.978 1.207 1.427 1.473 2.107.362.926.856 2.19 2.661 3.86 2.685 2.484 5.438 3.329 7.868 4.075 2.23.683 4.328 1.326 6.614 3.194a16.6 16.6 0 0 1 2.926 3.11 2.7 2.7 0 0 0 2.188 1.117c.572 0 1.12-.178 1.583-.514a2.704 2.704 0 0 0 .603-3.77 22 22 0 0 0-3.883-4.124c-3.108-2.54-6.064-3.445-8.439-4.174-2.242-.687-4.011-1.23-5.793-2.878-.896-.83-1.038-1.196-1.298-1.86-.394-1.008-.882-2.257-2.79-4.064-2.666-2.523-5.175-3.391-7.191-4.089-1.773-.614-2.945-1.019-3.946-2.405-.441-.61-.521-.917-.735-1.735-.257-.985-.644-2.467-1.865-4.82a33.3 33.3 0 0 0-4.516-6.6 2.7 2.7 0 0 0-2.03-.92z" class="cls-10" style="fill:#231f18" transform="translate(0 -.004)scale(.26458)"/><path d="M21.758 67.182a13.2 13.2 0 0 0 4.573-3.68c.644.81 1.434 1.509 2.119 1.892.734-1.68.696-3.058.616-3.774-.071-.644-.26-2.332-1.213-2.698-.736-.283-1.437-.024-1.437-.024-.074.023-.14.06-.205.09-.095-.255-.284-.63-.662-.845-.743-.425-1.692.064-2.34.397-.57.294-1.626.957-2.519 2.38a6.2 6.2 0 0 0 1.606.348 11.37 11.37 0 0 0-.539 5.914zM50.953 11.137a9.3 9.3 0 0 0-4.077-.74c.135-.718.143-1.463.03-2.005-1.234.384-1.952 1.04-2.297 1.414-.311.336-1.125 1.217-.88 1.894.19.524.651.778.651.778.047.029.096.047.143.067-.092.17-.205.443-.145.745.117.592.816.873 1.293 1.064.42.169 1.262.426 2.434.246a4.3 4.3 0 0 0-.556-1.019 8 8 0 0 0 3.404-2.445zM13.819 34.532a11.4 11.4 0 0 0-3.089.674 6.2 6.2 0 0 0-.347-1.607c-1.423.892-2.087 1.948-2.381 2.519-.334.646-.823 1.594-.4 2.338.216.378.59.568.846.663-.032.065-.068.131-.091.205 0 0-.26.7.022 1.437.366.953 2.054 1.143 2.698 1.215.716.08 2.094.12 3.774-.613-.383-.685-1.08-1.476-1.89-2.12a13.2 13.2 0 0 0 3.684-4.571 11.4 11.4 0 0 0-2.826-.14zM65.348 35.995a11.4 11.4 0 0 0-.393-3.137 6.2 6.2 0 0 0 1.631-.202c-.76-1.498-1.752-2.253-2.293-2.598-.614-.39-1.515-.963-2.293-.608-.396.18-.619.536-.737.782-.062-.037-.124-.08-.195-.109 0 0-.675-.322-1.434-.107-.982.278-1.323 1.942-1.453 2.577-.145.706-.307 2.075.271 3.814.716-.32 1.567-.943 2.282-1.691a13.2 13.2 0 0 0 4.22 4.08c.193-.714.377-1.668.394-2.801z" class="cls-9" style="fill:#3a3628;stroke:#191712;stroke-width:1.2px;stroke-miterlimit:15.1181" transform="translate(0 -.004)scale(.26458)"/></svg>