<svg xmlns="http://www.w3.org/2000/svg" width="84.221" height="61.318" viewBox="0 0 22.283 16.224"><path fill="#d9d9d9" d="m-2760.197-402.794 4.914 1.476.856-.553.816.506.709-.745 1.133.745 3.816-2.099.285-1.4-1.686.022.703-3.071-3.502 2.324-.993-3.559-1.488 3.45-1.79-1.802-.66 1.571-3.015-.754 2.314 2.616z" style="fill:#cd7f32;fill-opacity:1;stroke:#251c09;stroke-width:.79375;stroke-dasharray:none;stroke-opacity:1" transform="translate(2765.53 417.082)"/><path fill="#d9d9d9" d="m-2758.304-402.952 2.774.738 1.056-.634.815.506.71-.745 1.255.774 3.006-1.569.065-.318-1.758.052.408-1.891-2.495 1.661-.836-2.427-1.086 2.526-1.797-1.827-.33 1.234-1.478-.508 1.46 1.47z" style="fill:#cdcd32;fill-opacity:1;stroke:none;stroke-width:.79375;stroke-dasharray:none;stroke-opacity:1" transform="translate(2765.53 417.082)"/><path d="m-2748.025-394.34.64 4.446-1.4.296-.756 1.216-2.505-1.187 1.752-3.324z" style="fill:#5a3f3f;fill-opacity:1;stroke:none;stroke-width:.79375;stroke-linecap:round;stroke-linejoin:round;stroke-dasharray:none;stroke-opacity:1" transform="rotate(-13.554 302.465 -11789.56)"/><path d="m-2753.974-391.069 2.224 1.604 1.116-2.513 2.762-2.332-.265-.43-2.307.215-2.72 1.976z" style="fill:#4b3434;fill-opacity:1;stroke:none;stroke-width:.79375;stroke-linecap:round;stroke-linejoin:round;stroke-dasharray:none;stroke-opacity:1" transform="rotate(-13.554 302.465 -11789.56)"/><path d="M-2747.707-394.492c-3.515-.759-5.155 1.617-6.379 3.517l4.829 2.623 1.382-1.672.516.78z" style="fill:none;fill-opacity:1;stroke:#1b1313;stroke-width:.794;stroke-linecap:round;stroke-linejoin:miter;stroke-dasharray:none;stroke-opacity:1" transform="rotate(-13.554 302.465 -11789.56)"/><path d="M-2751.512-389.842c.56-1.932 1.36-3.223 3.448-4.369" style="fill:none;fill-opacity:1;stroke:#1b1313;stroke-width:.79375;stroke-linecap:round;stroke-linejoin:round;stroke-dasharray:none;stroke-opacity:1" transform="rotate(-13.554 302.465 -11789.56)"/><path d="m-2745.914-411.384-1.69 1.367.855 2.131-.24 1.663 2.64 1.074 1.991.123-1.967-2.357-.42-1.849z" style="fill:#635c36;fill-opacity:1;stroke:none;stroke-width:.793999;stroke-linejoin:miter;stroke-dasharray:none;stroke-opacity:1" transform="rotate(68.337 -1669.301 1829.076)"/><path d="M-2747.028-407.391c.29-.554.212-1.208-.425-2.04-.333-.384 0-.9.164-1.035l.913-.769c.303-.215.708-.115.96.187a4 4 0 0 1 .805 2.91c-.16 1.47 1.773 2.57 2.48 3.2l-2.278-.016-1.22-1.124-1.426-.05z" style="fill:none;fill-opacity:1;stroke:#1e1c10;stroke-width:.793999;stroke-linejoin:miter;stroke-dasharray:none;stroke-opacity:1" transform="rotate(68.337 -1669.301 1829.076)"/><path d="M-2745.714-409.163c2.19.978 2.484 2.647 1.628 3.886l-2.042.058.149-1-1.597.02.263-1.087z" style="fill:#654646;fill-opacity:1;stroke:#1b1313;stroke-width:.793999;stroke-linecap:round;stroke-linejoin:miter;stroke-dasharray:none;stroke-opacity:1" transform="translate(2765.53 417.082)"/><path d="M-2747.653-410.317c-.2-.735-1.12-1.541-1.94-1.156-.327-1.043-1.634-1.138-2.56-.69l-.055 2.083.376 2.075c1.255-1.002 2.75-1.606 4.179-2.312" style="fill:#5a3f3f;fill-opacity:1;stroke:none;stroke-width:.793999;stroke-linecap:round;stroke-linejoin:miter;stroke-dasharray:none;stroke-opacity:1" transform="translate(2766.06 416.952)"/><path d="M-2752-412.252h2.268v1.087l-1.989 2.46-.735-1.272z" style="fill:#654646;fill-opacity:1;stroke:none;stroke-width:.793999;stroke-linecap:round;stroke-linejoin:miter;stroke-dasharray:none;stroke-opacity:1" transform="translate(2766.06 416.952)"/><path d="M-2747.743-410.441c-.2-.735-.98-1.401-1.8-1.015-.326-1.044-1.633-1.139-2.558-.691l-.296 2.215.544 2.168z" style="fill:none;fill-opacity:1;stroke:#1b1313;stroke-width:.793999;stroke-linecap:round;stroke-linejoin:miter;stroke-dasharray:none;stroke-opacity:1" transform="translate(2766.06 416.952)"/><path d="M-2749.31-411.54c-.902.35-2.309 1.924-2.653 3.134" style="fill:#633654;fill-opacity:1;stroke:#1b1313;stroke-width:.793999;stroke-linecap:round;stroke-linejoin:miter;stroke-dasharray:none;stroke-opacity:1" transform="translate(2766.06 416.952)"/><path d="M-2763.277-406.81c-2.19.978-1.715 2.184-.86 3.423l2.233-.066 2.026-1.108-1.059-1.216z" style="fill:#4b3434;fill-opacity:1;stroke:none;stroke-width:.793999;stroke-linecap:round;stroke-linejoin:miter;stroke-dasharray:none;stroke-opacity:1" transform="translate(2765.295 417.058)"/><path d="m-2762.466-406.383-.3 1.119.502 1.873 2.242-1.167-.994-1.368z" style="fill:#5a3f3f;fill-opacity:1;stroke:none;stroke-width:.793999;stroke-linecap:round;stroke-linejoin:miter;stroke-dasharray:none;stroke-opacity:1" transform="translate(2765.295 417.058)"/><path d="M-2763.321-406.815c-2.19.978-1.716 2.184-.86 3.423l2.232-.066 2.026-1.108-1.058-1.215z" style="fill:none;fill-opacity:1;stroke:#1b1313;stroke-width:.793999;stroke-linecap:round;stroke-linejoin:miter;stroke-dasharray:none;stroke-opacity:1" transform="translate(2765.295 417.058)"/><path d="M-2762.56-406.406c-.413 1.098-.314 2.102.457 2.982" style="fill:none;fill-opacity:1;stroke:#1b1313;stroke-width:.793999;stroke-linecap:round;stroke-linejoin:miter;stroke-dasharray:none;stroke-opacity:1" transform="translate(2765.295 417.058)"/></svg>