<svg xmlns="http://www.w3.org/2000/svg" width="185" height="185" viewBox="0 0 48.948 48.948"><g stroke="#262673" stroke-linecap="round" stroke-linejoin="round" stroke-width="1.962"><path fill="#4059bf" d="M.98.98h46.986v46.986H.98z"/><path fill="#384b94" d="m12.64 9.06-3.579 3.579v23.67l3.578 3.578H36.31l3.578-3.578V12.64L36.31 9.06Z"/><path fill="#4059bf" d="m36.31 9.06-5.875 5.875h-11.92l-5.874-5.874-3.579 3.579 5.875 5.874v11.92L9.062 36.31l3.579 3.577 5.874-5.874h11.921l5.874 5.874 3.578-3.576-5.874-5.875V18.513l5.874-5.874z"/></g><g fill="#262673" stroke-width="1.289"><path d="M23.339 27.346h2.244c.24 0 .433.193.433.433v2.264c0 .24-.193.433-.433.433h-2.244a.43.43 0 0 1-.433-.433V27.78c0-.24.193-.433.433-.433M26.25 26.888l3.459-3.681c-.017-.727-2.356-1.276-3.146-.148l-1.124 3.63-.427-.004 1.088-3.549c-.566-1.042-2.633-.853-3.25-.058l1.134 3.624-.487-.005-1.123-3.592c-.628-.947-2.596-.925-3.26-.007l3.672 3.826-.457.37-3.644-4.09c.079-6.139 11.222-6.508 11.573.025l-3.71 3.939z"/></g><path fill="#7c776f" stroke="#333" stroke-linecap="round" stroke-linejoin="round" stroke-width="1.962" d="M.98.98v11.659h8.08l3.578-3.579V.98Zm35.328 0v8.08l3.579 3.578h8.08V.98Zm3.58 35.328-3.58 3.579v8.08h11.658v-11.66zm-38.908 0v11.659h11.66v-8.08l-3.58-3.579z" style="fill:#aa8534;fill-opacity:1;stroke:#5e4a1d;stroke-opacity:1"/><g fill="gray" stroke="#2e2e2e" stroke-linecap="round" stroke-linejoin="round" stroke-width=".981" style="fill:#c49d46;fill-opacity:1;stroke:#4d3c19;stroke-opacity:1" transform="translate(-163.08 -234.76)"><circle cx="169.89" cy="241.57" r="1.622" style="fill:#c49d46;fill-opacity:1;stroke:#4d3c19;stroke-opacity:1"/><circle cx="-276.9" cy="169.89" r="1.622" style="fill:#c49d46;fill-opacity:1;stroke:#4d3c19;stroke-opacity:1" transform="rotate(-90)"/><circle cx="-205.22" cy="-276.9" r="1.622" style="fill:#c49d46;fill-opacity:1;stroke:#4d3c19;stroke-opacity:1" transform="scale(-1)"/><circle cx="241.57" cy="-205.22" r="1.622" style="fill:#c49d46;fill-opacity:1;stroke:#4d3c19;stroke-opacity:1" transform="rotate(90)"/></g></svg>