<svg xmlns="http://www.w3.org/2000/svg" xmlns:xlink="http://www.w3.org/1999/xlink" width="408.696" height="531.536" viewBox="0 0 108.134 140.636"><defs><pattern xlink:href="#a" id="b" x="0" y="0" patternTransform="matrix(.3 0 0 .3 -5677.907 -1706.228)" preserveAspectRatio="xMidYMid"/><pattern id="a" width="125.213" height="125.213" patternTransform="translate(168.768 406.256)" patternUnits="userSpaceOnUse" preserveAspectRatio="xMidYMid"><path d="M0 0h125.212v125.212H0z" style="fill:#4d4d4d;stroke-width:7.49201;stroke-linecap:round"/><path d="M14.85 0c7.049 5.463 12.22 6.078 12.22 6.078s-.35-2.4-2.19-6.078zM56.54 0c7.05 5.463 12.22 6.078 12.22 6.078s-.35-2.4-2.189-6.078zm41.674 0c7.05 5.463 12.22 6.078 12.22 6.078s-.35-2.4-2.189-6.078zM6.23.03S3.802.285 0 2.212V12.39C5.494 5.308 6.23.029 6.23.029Zm41.692 0S43.705.463 37.666 4.61v-.007c-2.013 1.38-4.224 3.176-6.559 5.511-9.3 9.31-10.086 16.805-10.086 16.805s7.407-.766 16.637-9.918C46.958 7.697 47.922.029 47.922.029Zm41.674 0S85.37.463 79.322 4.622v.006C77.32 6.005 75.12 7.794 72.8 10.115c-9.3 9.31-10.086 16.805-10.086 16.805s7.41-.765 16.644-9.924v-.017C88.634 7.685 89.596.029 89.596.029Zm35.617 2.103a35.097 35.097 0 0 0-4.182 2.478v-.007c-2.013 1.38-4.224 3.176-6.558 5.511-9.3 9.31-10.084 16.805-10.084 16.805s7.404-.765 16.634-9.916c1.682-1.682 3.01-3.279 4.19-4.818zM.173 20.87s.425 4.06 4.36 9.924H4.53c1.408 2.098 3.271 4.431 5.729 6.889 9.31 9.31 16.812 10.095 16.812 10.095s-.953-7.669-10.254-16.974h.02C7.593 21.637.174 20.87.174 20.87Zm41.69 0s.426 4.06 4.362 9.924h-.004c1.408 2.098 3.27 4.431 5.728 6.889 9.31 9.31 16.813 10.095 16.813 10.095s-.954-7.669-10.254-16.974h.02c-9.244-9.168-16.665-9.934-16.665-9.934Zm41.676 0s.424 4.06 4.36 9.924h-.004c1.408 2.098 3.27 4.431 5.728 6.889 9.31 9.31 16.813 10.095 16.813 10.095s-.954-7.669-10.254-16.974h.02c-9.244-9.168-16.663-9.934-16.663-9.934ZM6.23 41.731s-2.428.257-6.23 2.183v10.178C5.494 47.01 6.23 41.73 6.23 41.73Zm41.692 0s-4.217.434-10.256 4.582v-.008c-2.013 1.38-4.224 3.175-6.559 5.51-9.3 9.31-10.086 16.804-10.086 16.804s7.411-.765 16.645-9.924c9.292-9.3 10.256-16.964 10.256-16.964zm41.674 0s-4.225.435-10.274 4.593v.006c-2.003 1.377-4.202 3.163-6.523 5.484-9.3 9.31-10.086 16.805-10.086 16.805s7.41-.765 16.644-9.924v-.015c9.277-9.294 10.239-16.95 10.239-16.95Zm35.617 2.103a35.1 35.1 0 0 0-4.182 2.479v-.008c-2.013 1.38-4.224 3.175-6.558 5.51-9.3 9.31-10.084 16.804-10.084 16.804s7.408-.765 16.642-9.924a47.666 47.666 0 0 0 4.182-4.808zM.173 62.57s.425 4.064 4.366 9.934h.002c1.407 2.094 3.266 4.424 5.717 6.875 9.31 9.31 16.812 10.094 16.812 10.094s-.953-7.666-10.248-16.97h.014C7.593 63.337.174 62.57.174 62.57Zm41.69 0s.426 4.064 4.367 9.934h.002c1.407 2.094 3.266 4.424 5.717 6.875 9.31 9.31 16.813 10.094 16.813 10.094s-.954-7.666-10.248-16.97h.013c-9.243-9.167-16.664-9.933-16.664-9.933Zm41.676 0s.424 4.064 4.365 9.934h.002c1.407 2.094 3.266 4.424 5.717 6.875 9.31 9.31 16.813 10.094 16.813 10.094s-.954-7.666-10.248-16.97h.013C90.958 63.337 83.54 62.57 83.54 62.57ZM6.23 83.424S3.802 83.68 0 85.607v10.178c5.494-7.082 6.23-12.361 6.23-12.361Zm41.692 0s-4.217.434-10.256 4.582v-.008c-2.013 1.38-4.224 3.175-6.559 5.51-9.3 9.31-10.086 16.804-10.086 16.804s7.411-.765 16.645-9.923c9.292-9.301 10.256-16.965 10.256-16.965zm41.674 0s-4.225.435-10.274 4.594v.005C77.32 89.4 75.12 91.187 72.8 93.508c-9.3 9.31-10.086 16.805-10.086 16.805s7.41-.766 16.644-9.924v-.016c9.277-9.293 10.239-16.95 10.239-16.95Zm35.617 2.103a35.102 35.102 0 0 0-4.182 2.479v-.008c-2.013 1.38-4.224 3.175-6.558 5.51-9.3 9.31-10.084 16.804-10.084 16.804s7.408-.765 16.642-9.923a47.666 47.666 0 0 0 4.182-4.809zM.173 104.264s.425 4.06 4.36 9.924H4.53c1.408 2.098 3.271 4.433 5.729 6.89 1.663 1.663 3.235 2.972 4.75 4.135h9.933c-1.475-2.981-3.919-6.807-8.125-11.016h.02C7.593 105.03.174 104.264.174 104.264Zm41.69 0s.426 4.06 4.362 9.924h-.004c1.408 2.098 3.27 4.433 5.728 6.89 1.663 1.663 3.235 2.972 4.75 4.135h9.934c-1.476-2.981-3.92-6.807-8.125-11.016h.02c-9.244-9.168-16.665-9.933-16.665-9.933Zm41.676 0s.424 4.06 4.36 9.924h-.004c1.408 2.098 3.27 4.433 5.728 6.89 1.663 1.663 3.235 2.972 4.75 4.135h9.934c-1.476-2.981-3.92-6.807-8.125-11.016h.02c-9.244-9.168-16.663-9.933-16.663-9.933zM6.23 125.123l-.51.09h.49c.002-.004.02-.09.02-.09zm41.692 0-.51.09h.49l.02-.09zm41.674 0-.51.09h.49l.02-.09z" style="opacity:.4;fill:gray;fill-opacity:1;stroke-width:1.26228"/></pattern></defs><g transform="translate(1329.301 872.255)"><path d="M-1323.749-866.963h96.653v129.325h-96.653z" style="fill:url(#b);fill-opacity:1;stroke:#393939;stroke-width:5;stroke-dasharray:none;stroke-opacity:1"/><path d="M-1221.167-736.91h-108.134M-1324.01-872.254v139.907M-1221.804-866.963h-107.236M-1227.096-872.255v73.545" style="fill:#1a1e67;fill-opacity:1;stroke:#1c1c1c;stroke-width:10.5833;stroke-dasharray:none;stroke-opacity:1"/><path d="M-1223.648-736.91h-102.6M-1324.01-870.006v136.138" style="fill:#1a1e67;fill-opacity:1;stroke:#484848;stroke-width:6.08541;stroke-dasharray:none;stroke-opacity:1"/><path d="M-1224.053-866.963h-103M-1227.096-868.935v67.712" style="fill:#1a1e67;fill-opacity:1;stroke:#484848;stroke-width:6.08542;stroke-dasharray:none;stroke-opacity:1"/><path d="M270.468 156.613c-1.248 16.411-5.452 17.844-9.444 20.502-3.994-2.59-8.2-4.069-9.455-20.477 3.3-.219 6.639-.36 9.449-2.5 2.812 2.086 6.15 2.265 9.45 2.475z" style="fill:#595959;fill-opacity:1;fill-rule:nonzero;stroke:#414141;stroke-width:1.65407;stroke-linejoin:round;stroke-dasharray:none;stroke-opacity:1" transform="matrix(1.64875 0 0 1.64875 -1705.777 -1063.886)"/><path d="M257.293 155.998v5.018l-5.65.007v1.772l5.651-.007.003 12.468 1.638-.002-.003-12.468 11.462-.015V161l-11.463.015v-5.018z" style="fill:#414141;fill-opacity:1;fill-rule:nonzero;stroke:none;stroke-width:1.79615e-08;stroke-linejoin:round;stroke-dasharray:none;stroke-opacity:1" transform="matrix(1.64875 0 0 1.64875 -1705.777 -1063.886)"/><circle cx="-1275.422" cy="-790.81" r="26.482" style="fill:none;fill-opacity:1;stroke:#414141;stroke-width:3.32894;stroke-dasharray:none;stroke-opacity:1"/></g></svg>