<svg xmlns="http://www.w3.org/2000/svg" xml:space="preserve" width="262.53" height="159.203" viewBox="0 0 69.461 42.123"><path d="M69.893 142.729s.63-4.422.63-6.654-.63-6.655-.63-6.655c-.135-1.425 1.177-2.597 2.63-2.597 0 0 8.833.75 13.256.75 4.424 0 13.257-.75 13.257-.75 1.613-.092 2.925 1.293 2.925 2.889 0 0-.63 4.3-.63 6.472s.63 6.472.63 6.472c.142 1.465-1.21 2.67-2.704 2.67 0 0-8.906-.75-13.367-.75-4.46 0-13.367.75-13.367.75-1.453 0-2.63-1.163-2.63-2.597" style="fill:#c08d46;fill-opacity:1;stroke:#4c371a;stroke-width:1.91823;stroke-linecap:round;stroke-linejoin:round;stroke-dasharray:none;stroke-opacity:1" transform="translate(-68.924 -125.86)"/><path fill="none" d="M72.912 140.6s.51-3.008.51-4.526-.51-4.526-.51-4.526c-.11-.97.956-1.767 2.134-1.767 0 0 7.17.51 10.761.51s10.761-.51 10.761-.51c1.31-.062 2.374.88 2.374 1.965 0 0-.51 2.925-.51 4.402s.51 4.402.51 4.402c.115.997-.983 1.817-2.194 1.817 0 0-7.23-.51-10.851-.51-3.62 0-10.85.51-10.85.51-1.18 0-2.135-.791-2.135-1.767" style="fill:#000;fill-opacity:0;stroke:none;stroke-width:1.81038;stroke-linecap:round;stroke-linejoin:round;stroke-dasharray:none;stroke-opacity:1" transform="translate(-68.924 -125.86)"/><path d="M105.348 142.729s.629-4.422.629-6.654-.63-6.655-.63-6.655c-.134-1.425 1.178-2.597 2.63-2.597 0 0 8.833.75 13.257.75s13.257-.75 13.257-.75c1.613-.092 2.924 1.293 2.924 2.889 0 0-.63 4.3-.63 6.472s.63 6.472.63 6.472c.142 1.465-1.21 2.67-2.703 2.67 0 0-8.907-.75-13.368-.75-4.46 0-13.367.75-13.367.75-1.452 0-2.63-1.163-2.63-2.597" style="fill:#c08d46;fill-opacity:1;stroke:#4c371a;stroke-width:1.91823;stroke-linecap:round;stroke-linejoin:round;stroke-dasharray:none;stroke-opacity:1" transform="translate(-68.924 -125.86)"/><path fill="none" d="M108.366 140.6s.511-3.008.511-4.526-.51-4.526-.51-4.526c-.11-.97.955-1.767 2.134-1.767 0 0 7.17.51 10.76.51 3.592 0 10.761-.51 10.761-.51 1.31-.062 2.374.88 2.374 1.965 0 0-.51 2.925-.51 4.402s.51 4.402.51 4.402c.116.997-.982 1.817-2.194 1.817 0 0-7.23-.51-10.85-.51-3.621 0-10.851.51-10.851.51-1.179 0-2.135-.791-2.135-1.767" style="fill:#000;fill-opacity:0;stroke:none;stroke-width:1.81038;stroke-linecap:round;stroke-linejoin:round;stroke-dasharray:none;stroke-opacity:1" transform="translate(-68.924 -125.86)"/><path d="M69.893 164.425s.63-4.422.63-6.654-.63-6.655-.63-6.655c-.135-1.425 1.177-2.597 2.63-2.597 0 0 8.833.75 13.256.75 4.424 0 13.257-.75 13.257-.75 1.613-.092 2.925 1.293 2.925 2.889 0 0-.63 4.3-.63 6.472s.63 6.472.63 6.472c.142 1.465-1.21 2.67-2.704 2.67 0 0-8.906-.75-13.367-.75-4.46 0-13.367.75-13.367.75-1.453 0-2.63-1.163-2.63-2.597" style="fill:#c08d46;fill-opacity:1;stroke:#4c371a;stroke-width:1.91823;stroke-linecap:round;stroke-linejoin:round;stroke-dasharray:none;stroke-opacity:1" transform="translate(-68.924 -125.86)"/><path d="M72.912 162.296s.51-3.008.51-4.526-.51-4.526-.51-4.526c-.11-.97.956-1.767 2.134-1.767 0 0 7.17.51 10.761.51s10.761-.51 10.761-.51c1.31-.062 2.374.88 2.374 1.965 0 0-.51 2.925-.51 4.402s.51 4.402.51 4.402c.115.997-.983 1.817-2.194 1.817 0 0-7.23-.51-10.851-.51-3.62 0-10.85.51-10.85.51-1.18 0-2.135-.791-2.135-1.767" style="fill:#cba166;fill-opacity:1;stroke:none;stroke-width:1.81038;stroke-linecap:round;stroke-linejoin:round;stroke-dasharray:none;stroke-opacity:1" transform="translate(-68.924 -125.86)"/><path d="M105.348 164.425s.629-4.422.629-6.654-.63-6.655-.63-6.655c-.134-1.425 1.178-2.597 2.63-2.597 0 0 8.833.75 13.257.75s13.257-.75 13.257-.75c1.613-.092 2.924 1.293 2.924 2.889 0 0-.63 4.3-.63 6.472s.63 6.472.63 6.472c.142 1.465-1.21 2.67-2.703 2.67 0 0-8.907-.75-13.368-.75-4.46 0-13.367.75-13.367.75-1.452 0-2.63-1.163-2.63-2.597" style="fill:#c08d46;fill-opacity:1;stroke:#4c371a;stroke-width:1.91823;stroke-linecap:round;stroke-linejoin:round;stroke-dasharray:none;stroke-opacity:1" transform="translate(-68.924 -125.86)"/><path d="M108.366 162.296s.511-3.008.511-4.526-.51-4.526-.51-4.526c-.11-.97.955-1.767 2.134-1.767 0 0 7.17.51 10.76.51 3.592 0 10.761-.51 10.761-.51 1.31-.062 2.374.88 2.374 1.965 0 0-.51 2.925-.51 4.402s.51 4.402.51 4.402c.116.997-.982 1.817-2.194 1.817 0 0-7.23-.51-10.85-.51-3.621 0-10.851.51-10.851.51-1.179 0-2.135-.791-2.135-1.767" style="fill:#cba166;fill-opacity:1;stroke:none;stroke-width:1.81038;stroke-linecap:round;stroke-linejoin:round;stroke-dasharray:none;stroke-opacity:1" transform="translate(-68.924 -125.86)"/><path d="M69.982 141.686c.643-3.678.673-6.73.165-9.612l4.534-.023v3.995c-.379 2.799-1.56 3.484-2.933 4.606-.126.101-.555.775-1.008 1.05z" style="fill:#c9d1d9;fill-opacity:1;stroke:#a2a5c0;stroke-width:1.91823;stroke-linecap:round;stroke-linejoin:round;stroke-dasharray:none;stroke-opacity:1;stop-color:#000" transform="translate(-68.924 -125.86)"/><path d="M70.405 155.566c.398 4.92-1.628 9.592.413 10.837 1.8 1.822 9.295-.91 24.37.368.118-2.5-2.322-5.29-4.166-7.092-.77-.77-1.325-2.062-2.432-2.431-1.002-.064-2.486-.329-3.177-.981-5.516-11.579-6.47-.653-15.008-.701z" class="cls-21" style="fill:#c9d1d9;fill-opacity:1;stroke:#a2a5c0;stroke-width:1.91823;stroke-miterlimit:10;stroke-dasharray:none;stroke-opacity:1" transform="translate(-68.924 -125.86)"/><path d="M76.096 130.621s4.422.63 6.654.63 6.654-.63 6.654-.63c1.426-.134 2.598 1.178 2.598 2.63 0 0-.75 8.833-.75 13.257s.75 13.257.75 13.257c.091 1.613-1.293 2.924-2.889 2.924 0 0-4.3-.63-6.472-.63s-6.472.63-6.472.63c-1.465.142-2.67-1.21-2.67-2.703 0 0 .75-8.907.75-13.368 0-4.46-.75-13.367-.75-13.367 0-1.452 1.162-2.63 2.597-2.63" style="fill:#c08d46;fill-opacity:1;stroke:#4c371a;stroke-width:1.91822916;stroke-linecap:round;stroke-linejoin:round;stroke-dasharray:none;stroke-opacity:1" transform="translate(-68.924 -125.86)"/><path d="M78.225 133.64s3.008.511 4.526.511 4.526-.51 4.526-.51c.97-.11 1.767.955 1.767 2.134 0 0-.51 7.17-.51 10.76 0 3.592.51 10.761.51 10.761.062 1.31-.88 2.374-1.965 2.374 0 0-2.925-.51-4.402-.51s-4.403.51-4.403.51c-.996.116-1.816-.982-1.816-2.194 0 0 .51-7.23.51-10.85 0-3.622-.51-10.851-.51-10.851 0-1.179.79-2.135 1.767-2.135" style="fill:#cba166;fill-opacity:1;stroke:none;stroke-width:1.81038;stroke-linecap:round;stroke-linejoin:round;stroke-dasharray:none;stroke-opacity:1" transform="translate(-68.924 -125.86)"/><path d="M104.701 164.115c-.08 4.716 7.382 2.327 7.4 2.322l.685-.182c.99-.264 4.374-1.857 4.078-2.822l-2.228-7.279c-.748-1.218-3.1.277-4.775-.343-1.721-1.023-5.16 6.059-5.16 8.304z" class="cls-17" style="fill:#c9d1d9;fill-opacity:1;stroke:#a2a5c0;stroke-width:1.91823;stroke-miterlimit:10;stroke-dasharray:none;stroke-opacity:1" transform="translate(-68.924 -125.86)"/><path d="M136.967 138.098c-.41-4.943 1.649-9.163-.595-10.775-.95-1.436-9.141.973-24.216-.305-.118 2.5 2.447 5.174 4.292 6.976.77.77 1.324 2.063 2.432 2.432 1.002.064 2.485.328 3.176.981 5.516 11.579 6.373.643 14.91.691z" class="cls-21" style="fill:#c9d1d9;fill-opacity:1;stroke:#a2a5c0;stroke-width:1.91823;stroke-linejoin:round;stroke-miterlimit:10;stroke-dasharray:none;stroke-opacity:1" transform="translate(-68.924 -125.86)"/><path d="M218.998 165.585c-1.04.072-1.826.825-1.69 1.975.135 1.151 1.191 2.7 2.027 3.538.836.839 1.452.967 2.174.654.723-.312 1.553-1.064 1.758-1.974s-.214-1.977-1.072-2.816-2.155-1.448-3.197-1.377z" style="fill:#c9d1d9;fill-opacity:1;stroke:#a2a5c0;stroke-width:1.91823;stroke-miterlimit:4;stroke-dasharray:none;stroke-opacity:1" transform="translate(-190.792 -164.494)"/><path d="M97.262 130.621s4.422.63 6.655.63c2.232 0 6.654-.63 6.654-.63 1.425-.134 2.598 1.178 2.598 2.63 0 0-.75 8.833-.75 13.257s.75 13.257.75 13.257c.09 1.613-1.294 2.924-2.89 2.924 0 0-4.3-.63-6.472-.63-2.171 0-6.472.63-6.472.63-1.465.142-2.67-1.21-2.67-2.703 0 0 .75-8.907.75-13.368 0-4.46-.75-13.367-.75-13.367 0-1.452 1.163-2.63 2.597-2.63" style="fill:#c08d46;fill-opacity:1;stroke:#4c371a;stroke-width:1.91823;stroke-linecap:round;stroke-linejoin:round;stroke-dasharray:none;stroke-opacity:1" transform="translate(-68.924 -125.86)"/><path d="M99.391 133.64s3.008.511 4.526.511 4.526-.51 4.526-.51c.97-.11 1.767.955 1.767 2.134 0 0-.51 7.17-.51 10.76 0 3.592.51 10.761.51 10.761.062 1.31-.88 2.374-1.965 2.374 0 0-2.925-.51-4.402-.51s-4.402.51-4.402.51c-.997.116-1.817-.982-1.817-2.194 0 0 .51-7.23.51-10.85 0-3.622-.51-10.851-.51-10.851 0-1.179.791-2.135 1.767-2.135" style="fill:#cba166;fill-opacity:1;stroke:none;stroke-width:1.81038;stroke-linecap:round;stroke-linejoin:round;stroke-dasharray:none;stroke-opacity:1" transform="translate(-68.924 -125.86)"/><path d="M118.429 130.621s4.422.63 6.654.63 6.654-.63 6.654-.63c1.426-.134 2.598 1.178 2.598 2.63 0 0-.75 8.833-.75 13.257s.75 13.257.75 13.257c.091 1.613-1.294 2.924-2.89 2.924 0 0-4.3-.63-6.471-.63s-6.472.63-6.472.63c-1.466.142-2.671-1.21-2.671-2.703 0 0 .75-8.907.75-13.368 0-4.46-.75-13.367-.75-13.367 0-1.452 1.163-2.63 2.598-2.63" style="fill:#c08d46;fill-opacity:1;stroke:#4c371a;stroke-width:1.91823;stroke-linecap:round;stroke-linejoin:round;stroke-dasharray:none;stroke-opacity:1" transform="translate(-68.924 -125.86)"/><path d="M120.558 133.64s3.007.511 4.526.511 4.526-.51 4.526-.51c.97-.11 1.767.955 1.767 2.134 0 0-.51 7.17-.51 10.76 0 3.592.51 10.761.51 10.761.062 1.31-.88 2.374-1.965 2.374 0 0-2.925-.51-4.403-.51s-4.402.51-4.402.51c-.997.116-1.816-.982-1.816-2.194 0 0 .51-7.23.51-10.85 0-3.622-.51-10.851-.51-10.851 0-1.179.79-2.135 1.767-2.135" style="fill:#cba166;fill-opacity:1;stroke:none;stroke-width:1.81038;stroke-linecap:round;stroke-linejoin:round;stroke-dasharray:none;stroke-opacity:1" transform="translate(-68.924 -125.86)"/><path d="M73.492 139.557c.243 7.077-.028 14.04-.492 21.29-.056.876.772 2.751 2.785 2.64 5.174-.287 9.212-.43 13.822-.087 3.992-.12 3.498-4.28 2.393-9.162-2.34-1.929-5.182-1.5-7.717-2.783-.357-.189-.738-.334-1.088-.535-1.767-.992-3.217-3.892-3.534-4.548-1.18-2.858-3.505-5.318-5.771-7.044z" style="fill:#c9d1d9;fill-opacity:1;stroke:#a2a5c0;stroke-width:1.91822916;stroke-linecap:square;stroke-linejoin:round;stroke-dasharray:none;stroke-opacity:1;paint-order:fill markers stroke;stop-color:#000" transform="translate(-68.924 -125.86)"/><path d="M66.614 217.295c.104 1.325 1.176 3.188 2.455 4.243s2.764 1.304 4.25.849c1.484-.456 2.97-1.615 3.588-3.022.62-1.408.372-3.064-.02-4.596s-.929-2.94-1.877-3.58c-.95-.643-2.31-.518-3.507.144-1.196.662-2.228 1.863-3.177 2.857-.948.993-1.815 1.78-1.712 3.105z" style="fill:#c9d1d9;fill-opacity:1;stroke:#a2a5c0;stroke-width:2.04836835;stroke-dasharray:none;stroke-opacity:1" transform="matrix(.93647 0 0 .93647 -46.934 -194.145)"/><path d="M117.472 129.793c-3.37.41-1.475 9.44-1.473 16.603 1.062 6.45 5.868 6.182 5.944 6.093 4.641-.98-2.232-12.49 3.045-15.403 3.443-1.145 6.704 1.189 9.49-.522.047-2.371.638-5.215-1.507-6.021-2.454-.923-8.797 1.01-15.499-.75m10.153 32.221c2.61 1.111 5.142 2.488 6.888 0 1.318-1.565.437-5.593 0-5.772-.815-.032-1.613-.17-2.428-.239-4.922-.159-3.961 3.158-4.46 6.011M96.932 163.08c4.828-2.403 13.238 1.229 16.241-1.111 1.906-.814-.39-18.814.132-21.799-.484-2.55-4.208-4.948-5.168 2.808-.603 2.9-1.406 3.936-1.644 3.8-8.285.589-5.727 6.293-8.801 13.974z" style="fill:#c9d1d9;fill-opacity:1;stroke:#a2a5c0;stroke-width:1.91823;stroke-linecap:round;stroke-linejoin:round;stroke-dasharray:none;stroke-opacity:1;stop-color:#000" transform="translate(-68.924 -125.86)"/></svg>