<svg xmlns="http://www.w3.org/2000/svg" xml:space="preserve" width="185" height="185" viewBox="0 0 48.948 48.948"><g style="stroke-width:1.00026" transform="matrix(.99999 0 0 .99948 -124.21 -176.3)"><path d="M132.058 184.239h33.152v33.152h-33.152z" style="fill:#d96300;fill-opacity:1;stroke:none;stroke-width:1.56621;stroke-linecap:butt;stroke-linejoin:miter;stroke-miterlimit:4;stroke-dasharray:none;stroke-opacity:1"/><path d="M125.192 177.373v46.986h46.986v-46.987zm7.927 7.927h31.132v31.132h-31.13z" style="fill:#d36b12;fill-opacity:1;stroke-width:0;stroke-linecap:round"/><path d="M132.058 184.239h33.152v33.152h-33.152z" style="fill:none;fill-opacity:1;stroke:none;stroke-width:1.96217;stroke-linecap:butt;stroke-linejoin:bevel;stroke-miterlimit:4;stroke-dasharray:none;stroke-opacity:1"/><circle cx="129.267" cy="181.448" r="1.622" style="fill:gray;fill-opacity:1;stroke:#2e2e2e;stroke-width:.981082;stroke-linecap:round;stroke-linejoin:round;stroke-opacity:1"/><circle cx="168.103" cy="181.448" r="1.622" style="fill:gray;fill-opacity:1;stroke:#2e2e2e;stroke-width:.981082;stroke-linecap:round;stroke-linejoin:round;stroke-opacity:1"/><circle cx="129.267" cy="220.284" r="1.622" style="fill:gray;fill-opacity:1;stroke:#2e2e2e;stroke-width:.981082;stroke-linecap:round;stroke-linejoin:round;stroke-opacity:1"/><circle cx="168.103" cy="220.284" r="1.622" style="fill:gray;fill-opacity:1;stroke:#2e2e2e;stroke-width:.981082;stroke-linecap:round;stroke-linejoin:round;stroke-opacity:1"/><path d="M133.119 185.3h31.132v31.132H133.12z" style="fill:#454545;fill-opacity:1;stroke:#4a2404;stroke-width:1.96217;stroke-linecap:butt;stroke-linejoin:miter;stroke-miterlimit:4;stroke-dasharray:none;stroke-opacity:1"/><path d="M125.192 177.373h46.986v46.986h-46.986z" style="fill:none;fill-opacity:1;stroke:#4a2404;stroke-width:1.96217;stroke-linecap:round;stroke-linejoin:round;stroke-miterlimit:4;stroke-dasharray:none;stroke-opacity:1"/><path d="M164.251 185.3h7.846m-7.846 31.132h7.846m-46.824 0h7.846m-7.846-31.132h7.846" style="fill:none;stroke:#4a2404;stroke-width:1.96217;stroke-linecap:butt;stroke-linejoin:miter;stroke-miterlimit:4;stroke-dasharray:none;stroke-opacity:1"/><path d="M148.685 189.117q-.903.002-1.774.122l-.743 2.222a10.8 10.8 0 0 0-3.2 1.325l-2.095-1.045a13 13 0 0 0-2.508 2.508l1.045 2.095a10.8 10.8 0 0 0-1.324 3.2l-2.223.744a13 13 0 0 0 0 3.546l2.223.743a10.8 10.8 0 0 0 1.324 3.2l-1.045 2.096a13 13 0 0 0 2.09 2.176q.098-.18.185-.365c.167-.366.318-.738.465-1.112q.19-.48.361-.968c.114-.303.187-.62.273-.93q.081-.314.167-.626l.072-.22a8.846 8.846 0 1 1 13.022.426c.112.37.224.738.344 1.104a60 60 0 0 1 .85 2.87l.303.152a13 13 0 0 0 2.508-2.507l-1.045-2.096a10.8 10.8 0 0 0 1.324-3.2l2.223-.743a13 13 0 0 0 0-3.546l-2.223-.743a10.8 10.8 0 0 0-1.325-3.2l1.046-2.096a13 13 0 0 0-2.508-2.508l-2.096 1.045a10.8 10.8 0 0 0-3.2-1.325l-.743-2.222q-.87-.121-1.773-.122z" style="fill:#a9a9b4;fill-opacity:1;stroke:#242429;stroke-width:.793961;stroke-dasharray:none;stroke-opacity:1"/><path d="M148.931 195.42c-.04.004-.086.031-.141.094-.11.127-.258.397-.458.822s-.454 1.006-.69 1.55l-.63 1.438c-.172.389-.295.659-.405.933-.11.273-.209.551-.299.817q-.133.4-.249.756l-.208.634c-.058.176-.099.307-.078.45.02.143.102.298.176.482.073.184.139.397.147.564a.52.52 0 0 1-.119.38.9.9 0 0 1-.302.205c-.119.057-.25.114-.36.192s-.2.176-.282.286a1.7 1.7 0 0 0-.213.372.95.95 0 0 0-.085.425.46.46 0 0 0 .184.323c.106.086.253.152.376.262.122.11.22.266.22.41 0 .142-.098.273-.224.4a5 5 0 0 1-.426.36c-.143.11-.274.208-.392.322a2.2 2.2 0 0 0-.315.384c-.09.14-.163.286-.225.421-.061.135-.11.258-.175.405-.066.147-.148.32-.217.47-.07.151-.127.282-.188.434-.061.15-.127.322-.213.494s-.192.343-.274.49c-.081.148-.139.27-.196.39l-.172.347a1.1 1.1 0 0 0-.13.368c-.017.14.008.302.143.38.135.077.38.07.699.04.319-.028.711-.077 1.067-.11.355-.033.674-.049.915-.073.242-.025.405-.058.65-.115.246-.057.573-.139.79-.253a.9.9 0 0 0 .412-.454c.09-.192.164-.43.237-.638.074-.208.148-.388.23-.584.081-.197.171-.41.228-.58.057-.173.082-.303.168-.41a.67.67 0 0 1 .793-.163.6.6 0 0 1 .27.253c.061.106.094.23.18.393s.225.368.351.6c.127.234.241.495.36.736.119.242.241.462.388.618s.32.245.564.327c.246.081.565.155.839.212s.502.098.8.143c.3.045.667.094.945.131s.466.062.642.053c.176-.008.34-.049.392-.106.054-.057-.004-.13-.098-.372-.094-.24-.225-.65-.4-1.165s-.397-1.137-.552-1.643c-.156-.507-.246-.9-.315-1.194-.07-.294-.119-.49-.18-.63a1 1 0 0 0-.245-.33 2.4 2.4 0 0 0-.425-.352c-.168-.103-.356-.168-.511-.237-.156-.07-.278-.144-.323-.23-.045-.085-.013-.183.073-.306s.225-.27.336-.409c.11-.139.192-.27.212-.454.02-.183-.02-.42-.04-.54-.021-.118-.021-.118-.058-.167a2 2 0 0 0-.184-.216.8.8 0 0 0-.298-.168c-.152-.057-.38-.13-.5-.237-.118-.106-.126-.245-.114-.38a.65.65 0 0 1 .127-.364c.082-.098.213-.164.286-.258.074-.094.09-.216-.02-.605-.11-.388-.348-1.042-.585-1.758a70 70 0 0 1-.662-2.13c-.188-.637-.327-1.136-.442-1.54a21 21 0 0 0-.277-.933c-.074-.216-.131-.339-.197-.408-.032-.035-.067-.057-.108-.054" style="fill:#a9a9b4;fill-opacity:1;stroke:#242429;stroke-width:.793961;stroke-linecap:round;stroke-linejoin:round;stroke-miterlimit:10;stroke-dasharray:none;stroke-opacity:1"/><path d="M172.178 190.255c-.749.788-1.449 1.642-2.145 2.482-2.944 4.19-8.888 1.397-12.592 3.126-6.677 3.085-3.562 9.114-5.645 12.853-1.678 2.326-4.6 3.85-7.121 3.908-1.848.05-7.248 1.667-7.2 11.76h34.703z" style="fill:#c9d1d9;fill-opacity:1;stroke:#a2a5c0;stroke-width:1.96214;stroke-linecap:round;stroke-linejoin:round;stroke-miterlimit:4;stroke-dasharray:none;stroke-opacity:1"/><path d="M721.876 217.615c-2.808-.373-5.518 1.342-7.907 2.586-1.565.803-7 3.22-9.156-.693-.668-1.207-.54-2.647.289-3.576 1.288-1.459 3.363-.512 4.035-1.928.692-1.877-2.272-2.942-.918-5.406.835-1.518 3.166-2.52 6.089-.991 1.349.703 2.485 1.742 3.68 2.681 4.88 3.835 6.794 1.112 8.05 3.487.954 1.81-1.292 4.546-4.162 3.84z" style="fill:#c9d1d9;fill-opacity:1;stroke:#a2a5c0;stroke-width:1.96214;stroke-dasharray:none;stroke-opacity:1" transform="translate(-577.923 -28.486)"/><path d="M155.631 190.65c2.804 1.374 14.662 1.909 13.992-6.252-.208-2.112-2.073-5.124-4.907-4.59-1.896.357-3.713 1.9-5.649 1.719-2.017-.048-1.561-2.473-3.054-2.824-3.265-.335-7.058 8.177-.382 11.947zm-25.626 18.399c.54.511.648 1.047 1.398 1.407 3.232 1.551 7.056.241 8.583-1.819 1.044-1.87 2.53-4.795.842-6.664-.786-.78-2.252-1.031-3.508-1.123-2.655-.195-7.839 1.255-7.839 1.255-1.77.284-1.63 1.975-1.494 3.3.136 1.326.905 2.591 2.018 3.644z" style="fill:#c9d1d9;fill-opacity:1;fill-rule:evenodd;stroke:#a2a5c0;stroke-width:1.96214;stroke-dasharray:none;stroke-opacity:1"/></g></svg>