<svg xmlns="http://www.w3.org/2000/svg" width="800.968" height="501.502" viewBox="0 0 423.846 265.378"><path d="M4503.038 1357.351h419.846v10.133h-419.846z" style="fill:#68482a;fill-opacity:1;stroke:#21150c;stroke-width:4;stroke-dasharray:none;stroke-opacity:1" transform="translate(-4501.038 -1229.805)"/><path d="M4508.791 1367.484h37.122v125.699h-37.122z" style="fill:#402c19;fill-opacity:1;stroke:#21150c;stroke-width:4;stroke-dasharray:none;stroke-opacity:1" transform="translate(-4501.038 -1229.805)"/><path d="M4545.913 1367.484h37.122v125.699h-37.122zM4583.035 1367.484h37.122v125.699h-37.122zM4620.157 1367.484h37.122v125.699h-37.122zM4676.06 1411.614l-5.782 4.213-3.544-1.293-2.017 3.743-7.316-6.663v8.857h-.121v72.712h37.121v-72.712h-.12v-8.857l-4.342 6.278-3.429-6.278h-.191l-6.157 4.668-3.994-4.668z" style="fill:#402c19;fill-opacity:1;stroke:#21150c;stroke-width:4;stroke-dasharray:none;stroke-opacity:1" transform="translate(-4501.038 -1229.805)"/><path d="M4694.401 1367.484h37.122v125.699h-37.122zM4731.523 1367.484h37.122v125.699h-37.122zM4768.645 1367.484h37.122v125.699h-37.122zM4806.33 1399.596v15.44h-.562v78.147h37.122v-67.324l.32.228v-26.49l-4.342 6.278-3.428-6.279h-.192l-6.157 4.67-3.994-4.67h-.108l-5.782 4.214-3.544-1.294-2.017 3.743z" style="fill:#402c19;fill-opacity:1;stroke:#21150c;stroke-width:4;stroke-dasharray:none;stroke-opacity:1" transform="translate(-4501.038 -1229.805)"/><path d="M4843.213 1432.543v14.866h-.324v45.774h37.123v-34.207l.08.058v-26.49l-4.341 6.277-3.428-6.278h-.192l-6.156 4.669-3.995-4.669h-.108l-5.782 4.213-3.544-1.294-2.016 3.743z" style="fill:#402c19;fill-opacity:1;stroke:#21150c;stroke-width:3.99999;stroke-dasharray:none;stroke-opacity:1" transform="translate(-4501.038 -1229.805)"/><path d="M4880.012 1367.484h37.122v125.699h-37.122zM4508.793 1231.805h37.122v125.699h-37.122zM4545.915 1231.805h37.122v125.699h-37.122zM4583.037 1231.805h37.122v125.699h-37.122z" style="fill:#402c19;fill-opacity:1;stroke:#21150c;stroke-width:4;stroke-dasharray:none;stroke-opacity:1" transform="translate(-4501.038 -1229.805)"/><path d="M4620.159 1231.805h37.122v125.699h-37.122zM4657.281 1231.805h37.122v125.699h-37.122zM4694.403 1231.805h37.122v125.699h-37.122z" style="fill:#402c19;fill-opacity:1;stroke:#21150c;stroke-width:4;stroke-dasharray:none;stroke-opacity:1" transform="translate(-4501.038 -1229.805)"/><path d="M4731.525 1231.805h37.122v125.699h-37.122zM4768.648 1231.805h37.122v125.699h-37.122zM4805.89 1309.323v7.688h-.12v40.494h37.122v-40.494h-.121v-7.687l-4.342 6.278-3.429-6.278h-.191l-6.156 4.668-3.995-4.669h-.108l-5.782 4.214-3.544-1.294-2.017 3.743z" style="fill:#402c19;fill-opacity:1;stroke:#21150c;stroke-width:4;stroke-dasharray:none;stroke-opacity:1" transform="translate(-4501.038 -1229.805)"/><path d="M4805.77 1231.805v25.111l-.031-.028v26.49l4.63-5.72 2.785 4.706 6.117-6.28 4.783 6.54 3.457-1.663 5.734-4.251 9.374 6.668V1272.3h.273v-40.494z" style="fill:#402c19;fill-opacity:1;stroke:#21150c;stroke-width:4;stroke-dasharray:none;stroke-opacity:1" transform="translate(-4501.038 -1229.805)"/><path d="M4842.892 1231.805h37.122v125.699h-37.122zM4880.014 1231.805h37.122v125.699h-37.122z" style="fill:#402c19;fill-opacity:1;stroke:#21150c;stroke-width:4;stroke-dasharray:none;stroke-opacity:1" transform="translate(-4501.038 -1229.805)"/><path d="M-99.139 153.553h408.343v125.699H-99.139z" style="fill:#000;fill-opacity:.0902778;stroke:#21150c;stroke-width:4;stroke-dasharray:none;stroke-opacity:1" transform="translate(106.892 -15.875)"/></svg>