<svg xmlns="http://www.w3.org/2000/svg" width="191.208" height="191.208" viewBox="0 0 50.59 50.59"><path d="M77.063 113.144h49.003" style="opacity:1;fill:#121212;stroke:#c9c9c9;stroke-width:1.5875;stroke-linecap:round;stroke-linejoin:round;stroke-dasharray:none;stroke-opacity:1" transform="translate(-76.269 -112.35)"/><path d="M77.063 113.144v49.003" style="fill:#121212;stroke:#c9c9c9;stroke-width:1.5875;stroke-linecap:round;stroke-linejoin:round;stroke-dasharray:none;stroke-opacity:1" transform="translate(-76.269 -112.35)"/><path d="m114.448 127.657-37.385-14.513 38.795 32.32" style="opacity:1;fill:none;stroke:#c9c9c9;stroke-width:1.5875;stroke-linecap:round;stroke-linejoin:round;stroke-dasharray:none;stroke-opacity:1" transform="translate(-76.269 -112.35)"/><path d="m86.745 149.206-9.682-36.062 24.11 35.776" style="opacity:1;fill:none;stroke:#c9c9c9;stroke-width:1.5875;stroke-linecap:round;stroke-linejoin:round;stroke-dasharray:none;stroke-opacity:1" transform="translate(-76.269 -112.35)"/><path d="M77.063 125.45c.466-1.935 2.84-1.21 3.102-.664.485-1.692 2.496-1.873 3.714-1.528.792-1.301 1.37-1.913 3.12-1.848-.666-1.957.732-3.808 1.126-3.971-.838-1.549-.494-4.02.409-4.295M77.063 135.704c1.91-2.445 3.776-2.343 5.65-1.35 2.003-4.297 7.182-3.736 6.405-3.322.554-2.782 2.655-3.65 5.119-3.6-.819-2.051 1.85-6.486 3.134-6.404-1.26-2.428-.345-6.874 1.022-7.884M77.063 145.902c1.362-2.747 7.078-2.357 8.316-1.544 2.269-3.616 5.74-4.896 9.739-4.424-.142-3.496 3.855-5.561 6.712-6.314-.85-3.307 2.774-6.852 4.282-9.196-1.184-3.732-.5-8.473 2.084-11.28" style="opacity:1;fill:none;stroke:#c9c9c9;stroke-width:1.5875;stroke-linecap:round;stroke-linejoin:round;stroke-dasharray:none;stroke-opacity:1" transform="translate(-76.269 -112.35)"/></svg>