<svg xmlns="http://www.w3.org/2000/svg" width="147.285" height="147.285" viewBox="0 0 38.969 38.969"><g style="stroke-width:.997642;stroke-dasharray:none"><path d="m14.95 9.102-2.215 2.422-1.245 3.036-3.279.148-3.027 1.266-2.422-2.214-3.036-1.246-.147-3.278-1.267-3.027L.526 3.787 1.772.75 5.05.603 8.077-.663 10.5 1.55l3.037 1.245.147 3.279Z" style="fill:#6d4a2c;fill-opacity:1;stroke:#2b1e12;stroke-width:.842599;stroke-linejoin:round;stroke-dasharray:none;stroke-opacity:1" transform="rotate(-100.184 18.141 16.103)scale(2.19806)"/><path d="m14.95 9.102-2.215 2.422-1.245 3.036-3.279.148-3.027 1.266-2.422-2.214-3.036-1.246-.147-3.278-1.267-3.027L.526 3.787 1.772.75 5.05.603 8.077-.663 10.5 1.55l3.037 1.245.147 3.279Z" style="fill:none;fill-opacity:1;stroke:#48321e;stroke-width:.825538;stroke-linejoin:round;stroke-dasharray:none;stroke-opacity:1" transform="rotate(-100.184 18.073 12.171)scale(1.60249)"/><path d="m14.95 9.102-2.215 2.422-1.245 3.036-3.279.148-3.027 1.266-2.422-2.214-3.036-1.246-.147-3.278-1.267-3.027L.526 3.787 1.772.75 5.05.603 8.077-.663 10.5 1.55l3.037 1.245.147 3.279Z" style="fill:none;fill-opacity:1;stroke:#48321e;stroke-width:1.3334;stroke-linejoin:round;stroke-dasharray:none;stroke-opacity:1" transform="scale(-.99214)rotate(79.816 9.813 -21.697)"/><path d="m14.95 9.102-2.215 2.422-1.245 3.036-3.279.148-3.027 1.266-2.422-2.214-3.036-1.246-.147-3.278-1.267-3.027L.526 3.787 1.772.75 5.05.603 8.077-.663 10.5 1.55l3.037 1.245.147 3.279Z" style="fill:#48321e;fill-opacity:1;stroke:#48321e;stroke-width:3.50677;stroke-linejoin:round;stroke-dasharray:none;stroke-opacity:1" transform="matrix(-.0667 -.3713 .3713 -.0667 17.084 22.457)"/></g><g style="stroke-width:1.53787;stroke-dasharray:none"><path d="M934.516-352.098s.304 1.659-.541 3.681c-.846 2.023-.298 16.265-.629 23.54-.338 5.578-1.06 8.7-1.06 8.7s-.583-.016-1.608-1.042-1.107-1.905-1.107-1.905 1.152-2.419 1.52-5.548.094-27.426.094-27.426z" style="fill:#805d42;stroke:#34261b;stroke-width:1.53787;stroke-linecap:round;stroke-linejoin:round;stroke-miterlimit:5;stroke-dasharray:none;paint-order:fill markers stroke" transform="scale(.86022)rotate(-45 917.304 933.741)"/><path d="M930.162-356.695h6.325v4.795h-6.325l-3.417.736s-.8-1.498-.8-3.134.8-3.133.8-3.133z" style="fill:#323232;stroke:#1f1f1f;stroke-width:1.53787;stroke-linecap:round;stroke-miterlimit:5;stroke-dasharray:none;stroke-opacity:1;paint-order:fill markers stroke" transform="scale(.86022)rotate(-45 917.304 933.741)"/><path d="m928.034-356.607-.974-.198s-.553.636-.553 2.47c0 1.836.578 2.54.578 2.54l.9-.19s-.448-.465-.448-2.35c0-1.883.497-2.272.497-2.272" style="fill:#8e8e8e;stroke-width:1.53787;stroke-linecap:square;stroke-miterlimit:5;stroke-dasharray:none;paint-order:fill markers stroke" transform="scale(.86022)rotate(-45 917.304 933.741)"/></g><path d="m91.977 140.303 2.79 1.337-.15 2.945h3.371v3.655" style="fill:none;fill-opacity:1;fill-rule:evenodd;stroke:#3d2a19;stroke-width:1.32292;stroke-linecap:round;stroke-linejoin:round;stroke-dasharray:none;stroke-opacity:1" transform="translate(-84.931 -128.852)"/></svg>