<svg xmlns="http://www.w3.org/2000/svg" width="166.971" height="57.971" viewBox="0 0 44.178 15.338"><g transform="rotate(180 1563.558 155.973)"><path d="M3084.816 300.332c.019 9.953 8.715 9.365 8.715 9.365h22.993c.01 0 8.697.585 8.716-9.365h-2.18s.714 7.06-6.535 7.41q0 0 0 0h-22.994c-7.25-.35-6.534-7.41-6.534-7.41z" style="fill:#7b7b7b;fill-opacity:1;stroke:#161616;stroke-width:.9;stroke-linecap:round;stroke-linejoin:round;stroke-dasharray:none;stroke-opacity:1"/><path d="M3089.32 300.256a4.245 4.245 0 0 0 4.106 5.351h23.204a4.245 4.245 0 0 0 4.107-5.351z" style="fill:#f7e7a9;fill-opacity:1;stroke:#bfae6c;stroke-width:1.9;stroke-linecap:round;stroke-linejoin:round;stroke-dasharray:none;stroke-opacity:1"/><path d="M3083.939 301.232v-3.624h42.178v3.624z" style="fill:#666;fill-opacity:1;stroke:#282828;stroke-width:2;stroke-linecap:round;stroke-linejoin:round;stroke-dasharray:none;stroke-opacity:1"/><path d="M3093.58 300.256a3.064 3.064 0 0 0 3.064 2.87h16.768a3.064 3.064 0 0 0 3.064-2.87z" style="fill:#fef6d4;fill-opacity:1;stroke:none;stroke-width:1.9;stroke-linecap:round;stroke-linejoin:round;stroke-dasharray:none;stroke-opacity:1"/><rect width="1.955" height="10.097" x="3093.306" y="301.4" ry=".977" style="fill:#666;fill-opacity:1;stroke:#161616;stroke-width:.899997;stroke-linecap:round;stroke-linejoin:round;stroke-dasharray:none;stroke-opacity:1"/><path d="M3093.306 301.4h1.955v8.366h-1.955z" style="fill:#7b7b7b;fill-opacity:1;stroke:none;stroke-width:.899999;stroke-linecap:round;stroke-linejoin:round;stroke-dasharray:none;stroke-opacity:1"/><rect width="1.955" height="11.828" x="3093.306" y="299.668" ry=".977" style="fill:none;fill-opacity:1;stroke:#161616;stroke-width:.899997;stroke-linecap:round;stroke-linejoin:round;stroke-dasharray:none;stroke-opacity:1"/><rect width="1.955" height="10.097" x="3104.05" y="301.4" ry=".977" style="fill:#666;fill-opacity:1;stroke:#161616;stroke-width:.899997;stroke-linecap:round;stroke-linejoin:round;stroke-dasharray:none;stroke-opacity:1"/><path d="M3104.05 301.4h1.955v8.366h-1.955z" style="fill:#7b7b7b;fill-opacity:1;stroke:none;stroke-width:.899999;stroke-linecap:round;stroke-linejoin:round;stroke-dasharray:none;stroke-opacity:1"/><rect width="1.955" height="11.828" x="3104.05" y="299.668" ry=".977" style="fill:none;fill-opacity:1;stroke:#161616;stroke-width:.899997;stroke-linecap:round;stroke-linejoin:round;stroke-dasharray:none;stroke-opacity:1"/><rect width="1.955" height="10.097" x="3114.795" y="301.4" ry=".977" style="fill:#666;fill-opacity:1;stroke:#161616;stroke-width:.899997;stroke-linecap:round;stroke-linejoin:round;stroke-dasharray:none;stroke-opacity:1"/><path d="M3114.795 301.4h1.955v8.366h-1.955z" style="fill:#7b7b7b;fill-opacity:1;stroke:none;stroke-width:.899999;stroke-linecap:round;stroke-linejoin:round;stroke-dasharray:none;stroke-opacity:1"/><rect width="1.955" height="11.828" x="3114.795" y="299.668" ry=".977" style="fill:none;fill-opacity:1;stroke:#161616;stroke-width:.899997;stroke-linecap:round;stroke-linejoin:round;stroke-dasharray:none;stroke-opacity:1"/><path d="M3089.276 301.232v-3.624h31.504v3.624z" style="fill:gray;fill-opacity:1;stroke:none;stroke-width:2.29999;stroke-dasharray:none;stroke-opacity:1"/><path d="M3083.939 301.232v-3.624h42.178v3.624z" style="fill:none;fill-opacity:1;stroke:#161616;stroke-width:2;stroke-linecap:round;stroke-linejoin:round;stroke-dasharray:none;stroke-opacity:1"/></g></svg>