<?xml version="1.0" encoding="UTF-8" standalone="no"?>
<!-- Created with Inkscape (http://www.inkscape.org/) -->

<svg
   width="191.36591"
   height="186.92242"
   viewBox="0 0 50.632228 49.456558"
   version="1.1"
   id="svg1"
   inkscape:version="1.4 (86a8ad7, 2024-10-11)"
   sodipodi:docname="lansiraami_crate.svg"
   xmlns:inkscape="http://www.inkscape.org/namespaces/inkscape"
   xmlns:sodipodi="http://sodipodi.sourceforge.net/DTD/sodipodi-0.dtd"
   xmlns="http://www.w3.org/2000/svg"
   xmlns:svg="http://www.w3.org/2000/svg">
  <sodipodi:namedview
     id="namedview1"
     pagecolor="#ffffff"
     bordercolor="#000000"
     borderopacity="0.25"
     inkscape:showpageshadow="2"
     inkscape:pageopacity="0.0"
     inkscape:pagecheckerboard="0"
     inkscape:deskcolor="#d1d1d1"
     inkscape:document-units="mm"
     inkscape:zoom="2.7545174"
     inkscape:cx="63.71352"
     inkscape:cy="130.87592"
     inkscape:window-width="1920"
     inkscape:window-height="991"
     inkscape:window-x="-9"
     inkscape:window-y="-9"
     inkscape:window-maximized="1"
     inkscape:current-layer="g1-11-1-0" />
  <defs
     id="defs1" />
  <g
     inkscape:label="Στρώση 1"
     inkscape:groupmode="layer"
     id="layer1"
     transform="translate(-67.99792,-79.110361)">
    <g
       id="g1-11-1-0"
       transform="translate(63.0479,-133.5023)">
      <rect
         style="fill:#725940;fill-opacity:1;fill-rule:evenodd;stroke:#241f16;stroke-width:1.96189;stroke-linejoin:round;stroke-miterlimit:30;stroke-dasharray:none;stroke-opacity:1;paint-order:normal"
         id="rect43-38-3-7"
         width="7.7351084"
         height="46.986"
         x="-1.5363829"
         y="213.94026"
         transform="rotate(-2.0000002)" />
      <path
         style="fill:#d96300;fill-opacity:1;stroke:none;stroke-width:1.5658;stroke-linecap:butt;stroke-linejoin:miter;stroke-miterlimit:4;stroke-dasharray:none;stroke-opacity:1"
         d="m 14.481252,220.96822 h 33.151996 v 33.152 H 14.481252 Z"
         id="path2-3-3-8-6" />
      <path
         style="fill:#725940;fill-opacity:1;stroke-width:0;stroke-linecap:round"
         d="m 7.6152509,253.16122 v 7.927 H 54.601248 v -46.987 l -46.9859971,10e-4 v 7.927 h 7.9270011 31.131996 v 31.132 H 15.544252 Z"
         id="path3-8-0-9-3" />
      <path
         style="fill:none;fill-opacity:1;stroke:none;stroke-width:1.96165;stroke-linecap:butt;stroke-linejoin:bevel;stroke-miterlimit:4;stroke-dasharray:none;stroke-opacity:1"
         d="m 14.481252,220.96822 h 33.151996 v 33.152 H 14.481252 Z"
         id="path4-0-7-3-6" />
      <path
         style="fill:#2b4b33;fill-opacity:1;stroke:#3e3220;stroke-width:1.96165;stroke-linecap:butt;stroke-linejoin:miter;stroke-miterlimit:4;stroke-dasharray:none;stroke-opacity:1"
         d="m 13.339921,222.02922 h 33.334327 v 31.132 H 15.043089 Z"
         id="path7-8-8-42-4-1" />
      <path
         style="fill:#263d2b;fill-opacity:1;stroke:none;stroke-width:0.49151px;stroke-linecap:butt;stroke-linejoin:miter;stroke-opacity:1"
         d="m 14.481252,227.50397 14.700877,-2.03167 -1.418641,1.20396 1.986097,-0.37624 -4.255921,2.10692 h 4.539648 l -15.55206,3.46135 z"
         id="path44-7-4-5" />
      <circle
         style="fill:#656565;fill-opacity:1;stroke:#2e2e2e;stroke-width:0.980823;stroke-linecap:round;stroke-linejoin:round;stroke-opacity:1"
         cx="11.69025"
         cy="218.17723"
         r="1.622"
         id="circle4-0-3-6-4" />
      <circle
         style="fill:#636363;fill-opacity:1;stroke:#2e2e2e;stroke-width:0.980823;stroke-linecap:round;stroke-linejoin:round;stroke-opacity:1"
         cx="50.526249"
         cy="218.17723"
         r="1.622"
         id="circle5-2-0-7-0-2" />
      <circle
         style="fill:#636363;fill-opacity:1;stroke:#2e2e2e;stroke-width:0.980823;stroke-linecap:round;stroke-linejoin:round;stroke-opacity:1"
         cx="11.69025"
         cy="257.01321"
         r="1.622"
         id="circle6-4-1-6-0" />
      <circle
         style="fill:#212121;fill-opacity:1;stroke:#212121;stroke-width:0.980823;stroke-linecap:round;stroke-linejoin:round;stroke-opacity:1"
         cx="50.526249"
         cy="257.01321"
         r="1.622"
         id="circle7-9-6-9" />
      <path
         style="fill:none;fill-opacity:1;stroke:#241f16;stroke-width:1.962;stroke-linecap:round;stroke-linejoin:round;stroke-miterlimit:4;stroke-dasharray:none;stroke-opacity:1"
         d="m 7.6152509,222.02922 v -7.927 H 54.601248 v 46.986 H 7.6152509 v -7.927"
         id="path8-3-6-1-7" />
      <path
         style="fill:none;stroke:#241f16;stroke-width:1.96165;stroke-linecap:butt;stroke-linejoin:miter;stroke-miterlimit:4;stroke-dasharray:none;stroke-opacity:1"
         d="m 46.674248,222.02922 h 7.846 m -7.846,31.132 h 7.846 m -46.8239971,0 h 7.8460011 m -7.8460011,-31.132 h 7.8460011"
         id="path9-9-9-8-3" />
      <path
         style="fill:#574634;fill-opacity:1;stroke:none;stroke-width:0.264583px;stroke-linecap:butt;stroke-linejoin:miter;stroke-opacity:1"
         d="m 22.969922,217.24095 6.06228,1.16797 7.675179,-1.44605 6.896539,1.39043 h -6.896539 l -7.897648,1.55728 z"
         id="path23-9-4-7" />
      <circle
         style="fill:#5e5e5e;fill-opacity:1;stroke:#2e2e2e;stroke-width:0.980823;stroke-linecap:round;stroke-linejoin:round;stroke-opacity:1"
         cx="50.767136"
         cy="257.40671"
         r="1.622"
         id="circle7-9-8-9-2" />
      <path
         style="fill:#574634;fill-opacity:1;stroke:none;stroke-width:0.264583px;stroke-linecap:butt;stroke-linejoin:miter;stroke-opacity:1"
         d="m 50.417637,247.44756 1.573093,-5.82044 -2.04502,-5.66314 0.235963,4.95524 -0.629237,4.79794 z"
         id="path43-31-6-6" />
      <path
         style="fill:#263d2b;fill-opacity:1;stroke:none;stroke-width:0.264583px;stroke-linecap:butt;stroke-linejoin:miter;stroke-opacity:1"
         d="m 46.674248,240.65581 -21.145933,3.89321 3.392651,0.94549 -3.281417,1.11235 3.726356,0.72302 -2.892097,1.50167 1.83537,0.0556 -1.223581,1.66852 19.588651,-2.61401 z"
         id="path45-9-3-0" />
      <path
         style="fill:none;fill-opacity:1;stroke:#241f16;stroke-width:1.96165;stroke-linecap:butt;stroke-linejoin:miter;stroke-miterlimit:4;stroke-dasharray:none;stroke-opacity:1"
         d="m 13.339921,222.02922 h 33.334327 v 31.132 H 15.043089 Z"
         id="path7-8-8-4-7-1" />
      <path
         d="m 33.718872,235.93547 -4.78007,5.73505 c 0.827799,1.81854 1.464301,3.70001 1.804541,5.55987 l 3.731039,-3.73104 4.900476,4.90099 1.722892,-1.72289 -4.900476,-4.90048 3.730521,-3.73103 c -2.082298,-0.38091 -4.191155,-1.13368 -6.208923,-2.11047 z"
         style="fill:#2f7942;stroke:#15331c;stroke-width:1.387;paint-order:stroke fill markers;stroke-dasharray:none"
         id="path49-8-8-6" />
      <path
         d="m 33.718872,235.93547 c 2.017768,0.97679 4.126625,1.72956 6.208923,2.11047 l -3.730521,3.73103 4.900476,4.90048 -1.722892,1.72289 -4.900476,-4.90099 -3.731039,3.73104 c -0.34024,-1.85986 -0.976742,-3.74133 -1.804541,-5.55987 z"
         style="fill:#2f7942;stroke:#15331c;stroke-width:0;stroke-dasharray:none;paint-order:normal"
         id="path48-6-8-5"
         sodipodi:nodetypes="ccccccccc" />
      <path
         d="m 20.331059,227.63313 c 1.401868,2.65881 3.015391,5.41576 4.23385,9.72654 l 1.191658,-1.19166 c 0.49012,0.69276 0.962628,1.41629 1.412317,2.1606 l 1.702222,-2.0283 c 0.623809,-0.74664 1.182597,-1.44733 1.709456,-2.1022 -0.587579,-0.36703 -1.161411,-0.74719 -1.71514,-1.13895 l 1.191658,-1.19166 c -4.310786,-1.21847 -7.067234,-2.8325 -9.726021,-4.23437 z"
         style="fill:#407c50;fill-opacity:1;stroke:#15331c;stroke-width:0.587;stroke-dasharray:none;paint-order:normal"
         id="path47-2-7"
         sodipodi:nodetypes="ccccccccc" />
      <path
         d="m 35.550353,226.65032 -2.373499,2.82877 0.586528,0.49195 c -0.734129,1.11033 -0.619413,2.03089 -1.965772,3.63544 -0.692319,0.82504 -1.529722,1.91325 -2.476851,3.04684 l -5.540747,6.60322 c -0.42175,0.50263 -2.881978,3.66739 -3.196187,4.85087 l 3.924308,-0.48318 c 0,0 -0.70296,-1.28529 0.752409,-3.03134 l 10.671183,-12.80232 1.051099,0.88212 1.480529,1.90479 0.240296,-0.0966 c 0,0 1.05032,-0.40902 1.78077,-1.27951 0.730459,-0.87051 0.951363,-1.97662 0.951363,-1.97662 l 0.05323,-0.25374 -2.104264,-1.10329 z"
         style="fill:#2e7741;fill-opacity:1;stroke:#15331c;stroke-width:0.587;stroke-dasharray:none;paint-order:normal"
         id="path46-50-9-5"
         sodipodi:nodetypes="cccccccccccccscccc" />
    </g>
  </g>
</svg>
