<svg xmlns="http://www.w3.org/2000/svg" xmlns:xlink="http://www.w3.org/1999/xlink" xml:space="preserve" id="svg1" width="185" height="185" version="1.1" viewBox="0 0 48.948 48.948">
    <defs id="defs1">
        <linearGradient xlink:href="#a" id="b" x1="112.28" x2="96.735" y1="85.87" y2="54.829" gradientTransform="matrix(.408 0 0 .408 75.861 139.497)" gradientUnits="userSpaceOnUse"/>
        <linearGradient id="a">
            <stop id="stop1" offset=".538" style="stop-color:#008cff;stop-opacity:1"/>
            <stop id="stop2" offset="1" style="stop-color:#a5d9ff;stop-opacity:1"/>
        </linearGradient>
        <linearGradient id="swatch68">
            <stop id="stop68" offset="0" style="stop-color:#2a291d;stop-opacity:1"/>
        </linearGradient>
    </defs>
    <g id="layer1" transform="translate(-6.634 -213.121)">
        <g id="g1">
            <path id="path2-3-3" d="M14.481 220.968h33.152v33.152H14.481Z" style="fill:#d96300;fill-opacity:1;stroke:none;stroke-width:1.5658;stroke-linecap:butt;stroke-linejoin:miter;stroke-miterlimit:4;stroke-dasharray:none;stroke-opacity:1"/>
            <path id="path3-8-0" d="M7.615 261.088h46.986v-46.987l-46.986.001z" style="fill:#725940;fill-opacity:1;stroke-width:0;stroke-linecap:round"/>
            <path id="path4-0" d="M14.481 220.968h33.152v33.152H14.481Z" style="fill:none;fill-opacity:1;stroke:none;stroke-width:1.96165;stroke-linecap:butt;stroke-linejoin:bevel;stroke-miterlimit:4;stroke-dasharray:none;stroke-opacity:1"/>
            <path id="path7-8-8" d="M15.043 222.03h31.631v31.131h-31.63Z" style="fill:#2b4b33;fill-opacity:1;stroke:#3e3220;stroke-width:1.96165;stroke-linecap:butt;stroke-linejoin:miter;stroke-miterlimit:4;stroke-dasharray:none;stroke-opacity:1"/>
            <path id="path44" d="m15.043 227.439 14.14-1.967-1.42 1.204 1.986-.376-4.255 2.107h4.54l-14.99 3.396z" style="fill:#263d2b;fill-opacity:1;stroke:none;stroke-width:.49151px;stroke-linecap:butt;stroke-linejoin:miter;stroke-opacity:1"/>
            <circle id="circle4-0-3" cx="11.69" cy="218.177" r="1.622" style="fill:#656565;fill-opacity:1;stroke:#2e2e2e;stroke-width:.980823;stroke-linecap:round;stroke-linejoin:round;stroke-opacity:1"/>
            <circle id="circle5-2-0" cx="50.526" cy="218.177" r="1.622" style="fill:#636363;fill-opacity:1;stroke:#2e2e2e;stroke-width:.980823;stroke-linecap:round;stroke-linejoin:round;stroke-opacity:1"/>
            <circle id="circle6-4-1" cx="11.69" cy="257.013" r="1.622" style="fill:#636363;fill-opacity:1;stroke:#2e2e2e;stroke-width:.980823;stroke-linecap:round;stroke-linejoin:round;stroke-opacity:1"/>
            <circle id="circle7-9" cx="50.526" cy="257.013" r="1.622" style="fill:#212121;fill-opacity:1;stroke:#212121;stroke-width:.980823;stroke-linecap:round;stroke-linejoin:round;stroke-opacity:1"/>
            <path id="path8-3-6" d="M7.615 214.102h46.986v46.986H7.615Z" style="fill:none;fill-opacity:1;stroke:#241f16;stroke-width:1.962;stroke-linecap:round;stroke-linejoin:round;stroke-miterlimit:4;stroke-dasharray:none;stroke-opacity:1"/>
            <path id="path9-9-9" d="M46.674 222.03h7.846m-7.846 31.131h7.846m-46.824 0h7.846M7.696 222.03h7.846" style="fill:none;stroke:#241f16;stroke-width:1.96165;stroke-linecap:butt;stroke-linejoin:miter;stroke-miterlimit:4;stroke-dasharray:none;stroke-opacity:1"/>
            <path id="path23" d="m22.97 217.241 6.062 1.168 7.675-1.446 6.897 1.39h-6.897l-7.897 1.558z" style="fill:#574634;fill-opacity:1;stroke:none;stroke-width:.264583px;stroke-linecap:butt;stroke-linejoin:miter;stroke-opacity:1"/>
            <circle id="circle7-9-8" cx="50.767" cy="257.407" r="1.622" style="fill:#5e5e5e;fill-opacity:1;stroke:#2e2e2e;stroke-width:.980823;stroke-linecap:round;stroke-linejoin:round;stroke-opacity:1"/>
            <path id="path43" d="m50.418 247.448 1.573-5.82-2.045-5.664.236 4.955-.63 4.798z" style="fill:#574634;fill-opacity:1;stroke:none;stroke-width:.264583px;stroke-linecap:butt;stroke-linejoin:miter;stroke-opacity:1"/>
            <path id="path45" d="m46.674 240.656-21.146 3.893 3.393.946-3.281 1.112 3.726.723-2.892 1.502 1.835.055-1.223 1.669 19.588-2.614z" style="fill:#263d2b;fill-opacity:1;stroke:none;stroke-width:.264583px;stroke-linecap:butt;stroke-linejoin:miter;stroke-opacity:1"/>
            <path id="path7-8-8-4" d="M15.043 222.03h31.631v31.131h-31.63Z" style="fill:none;fill-opacity:1;stroke:#241f16;stroke-width:1.96165;stroke-linecap:butt;stroke-linejoin:miter;stroke-miterlimit:4;stroke-dasharray:none;stroke-opacity:1"/>
            <path id="path49" d="m33.719 235.935-4.78 5.735c.828 1.82 1.464 3.7 1.804 5.56l3.731-3.73 4.9 4.9 1.724-1.723-4.9-4.9 3.73-3.731c-2.082-.381-4.191-1.134-6.21-2.11z" style="fill:#2f7942;stroke:#15331c;stroke-width:1.5875;paint-order:stroke fill markers"/>
            <path id="path48" d="M33.719 235.935c2.018.977 4.126 1.73 6.209 2.11l-3.73 3.732 4.9 4.9-1.723 1.723-4.9-4.9-3.732 3.73c-.34-1.86-.976-3.74-1.804-5.56z" style="fill:#2f7942;stroke:#15331c;stroke-width:1.5875;paint-order:stroke fill markers"/>
            <path id="path47" d="M20.331 227.633c1.402 2.659 3.015 5.416 4.234 9.727l1.192-1.192a35.804 35.804 0 0 1 1.412 2.16l1.702-2.028c.624-.746 1.183-1.447 1.71-2.102a35.935 35.935 0 0 1-1.716-1.139l1.192-1.192c-4.31-1.218-7.067-2.832-9.726-4.234z" style="fill:#407c50;fill-opacity:1;stroke:#15331c;stroke-width:1.5875;paint-order:stroke fill markers"/>
            <path id="path46" d="m35.686 226.786-2.373 2.829.586.492c-.734 1.11-.62 2.03-1.966 3.635-.692.825-1.53 1.914-2.476 3.047l-5.541 6.603c-.422.503-2.882 3.668-3.196 4.851l3.924-.483s-.703-1.285.752-3.031l10.672-12.803 1.05.882 1.481 1.905.24-.096s1.05-.41 1.781-1.28c.73-.87.952-1.976.952-1.976l.053-.254-2.104-1.103z" style="fill:#2e7741;fill-opacity:1;stroke:#15331c;stroke-width:1.5875;paint-order:stroke fill markers"/>
        </g>
    </g>
</svg>
