<svg xmlns="http://www.w3.org/2000/svg" width="511.57" height="149.375" viewBox="0 0 135.353 39.522"><path d="M1755.842-4427.997h35.894v131.724h-35.894z" style="fill:#725940;fill-opacity:1;stroke:#3e3220;stroke-width:3.62863;stroke-dasharray:none;stroke-opacity:1" transform="rotate(90 -1270.216 -3024.243)"/><path d="M-1766.715 4298.1h9.066v128.065h-9.066z" style="fill:#6c543d;fill-opacity:1;stroke:none;stroke-width:1.10693;stroke-dasharray:none;stroke-opacity:1" transform="rotate(-90 -3024.243 1270.216)"/><path d="M-1790.062 4298.144h9.066v128.091h-9.066z" style="fill:#6c543d;fill-opacity:1;stroke:none;stroke-width:1.10704;stroke-dasharray:none;stroke-opacity:1" transform="rotate(-90 -3024.243 1270.216)"/><path d="m4409.422 1771.027-8.348-4.3 6.844 7.556-.513 6.307 2.612-4.83 4.412 1.533-3.014-4.08z" style="display:inline;fill:#574634;fill-opacity:1;stroke:none;stroke-width:1.70826;stroke-linecap:round;stroke-linejoin:round;stroke-miterlimit:29;stroke-dasharray:none;stroke-opacity:1" transform="translate(-4294.459 -1754.027)"/><path d="m4324.743 1777.923 7.023-1.866 4.68-5.548-5.031 3.233-5.388 2.235z" style="fill:#574634;fill-opacity:1;stroke:none;stroke-width:.318901px;stroke-linecap:butt;stroke-linejoin:miter;stroke-opacity:1" transform="translate(-4294.459 -1754.027)"/><path d="M4304.777 1755.331h12.179v36.174h-12.179z" style="fill:#7c7c7c;fill-opacity:1;stroke:#484848;stroke-width:1.32292;stroke-dasharray:none;stroke-opacity:1" transform="translate(-4294.459 -1754.027)"/><g style="fill:#434343;fill-opacity:1;stroke:none;stroke-width:.901451;stroke-dasharray:none"><path d="M4337.708 1623.155c1.06.513 2.167.908 3.26 1.107l-1.959 1.958 2.574 2.572-.905.904-2.574-2.572-1.96 1.958c-.178-.976-.513-1.963-.947-2.918zM4330.675 1618.799c.737 1.395 1.584 2.841 2.224 5.103l.626-.625c.258.364.506.743.742 1.134l.894-1.064c.328-.392.621-.76.898-1.103a18.9 18.9 0 0 1-.9-.598l.625-.625c-2.264-.64-3.712-1.487-5.109-2.222z" style="fill:#434343;fill-opacity:1;stroke:none;stroke-width:.901451;stroke-dasharray:none;stroke-opacity:1;paint-order:stroke fill markers" transform="matrix(.88033 0 0 .88073 -3800.935 -1410.93)"/><path d="m4338.74 1618.354-1.246 1.485.308.258c-.385.582-.325 1.065-1.032 1.907-.364.433-.804 1.004-1.301 1.6l-2.91 3.464c-.222.264-1.515 1.924-1.68 2.545l2.062-.253s-.37-.675.395-1.59l5.605-6.719.552.463.778 1 .126-.051s.552-.215.936-.672a2.61 2.61 0 0 0 .5-1.037l.027-.133-1.105-.579z" style="fill:#434343;fill-opacity:1;stroke:none;stroke-width:.901451;stroke-dasharray:none;stroke-opacity:1;paint-order:stroke fill markers" transform="matrix(.88033 0 0 .88073 -3800.935 -1410.93)"/></g><path d="M4305.441 1780.996h10.858v9.836h-10.858zM4305.499 1756.1h10.735v10.615h-10.735z" style="fill:#696969;fill-opacity:1;stroke:none;stroke-width:1.32292;stroke-dasharray:none;stroke-opacity:1" transform="translate(-4294.459 -1754.027)"/><path fill="#f06" d="M4344.778 1758.389c-1.797-.715-1.201-.6-.95-2.122.268-1.52 2.603-2.743 4.448-3.114 1.862-.353 3.215.162 5.224-.302 2.007-.448 4.652-1.858 6.421-1.284 1.787.593 2.68 3.17 2.396 5.537-.303 2.366-1.839 2.24-3.691 2.146-1.946.071-5.415-.241-7.425-.273-2.047.022-4.645.136-6.423-.588z" style="fill:#38451e;fill-opacity:1;stroke:#222b13;stroke-width:1.45326;stroke-dasharray:none;stroke-opacity:1" transform="translate(-4304.651 -1721.07)"/><path d="M4393.045 1733.031c-2.73-2.439-3.752-4.41-3.17-7.53.384-2.054 2.24-1.95 4.691-2.204 3.197-.332 5.332 0 8.815-.021 2.045-.013 6.076-.916 8.015-.156 3.426 1.342 1.079 5.371 1.001 6.403-.123 1.635-.536 1.781-2.35 2.518-1.484.602-2.66 1.568-4.187 1.433-1.49-.131-4.775-1.606-6.116-1.277-1.457.357-5.43 1.967-6.699.834z" style="fill:#38451e;fill-opacity:1;stroke:#222b13;stroke-width:1.34248;stroke-linecap:square;stroke-linejoin:round;stroke-dasharray:none;stroke-opacity:1;paint-order:fill markers stroke;stop-color:#000" transform="translate(-4304.651 -1721.07)"/></svg>