<svg xmlns="http://www.w3.org/2000/svg" width="191.366" height="186.922" viewBox="0 0 50.632 49.457"><g transform="translate(-4.95 -212.613)"><path d="M-1.536 213.94h7.735v46.986h-7.735z" style="fill:#725940;fill-opacity:1;fill-rule:evenodd;stroke:#241f16;stroke-width:1.96189;stroke-linejoin:round;stroke-miterlimit:30;stroke-dasharray:none;stroke-opacity:1;paint-order:normal" transform="rotate(-2)"/><path d="M14.481 220.968h33.152v33.152H14.481Z" style="fill:#d96300;fill-opacity:1;stroke:none;stroke-width:1.5658;stroke-linecap:butt;stroke-linejoin:miter;stroke-miterlimit:4;stroke-dasharray:none;stroke-opacity:1"/><path d="M7.615 253.161v7.927h46.986v-46.987l-46.986.001v7.927h39.059v31.132h-31.13Z" style="fill:#725940;fill-opacity:1;stroke-width:0;stroke-linecap:round"/><path d="M14.481 220.968h33.152v33.152H14.481Z" style="fill:none;fill-opacity:1;stroke:none;stroke-width:1.96165;stroke-linecap:butt;stroke-linejoin:bevel;stroke-miterlimit:4;stroke-dasharray:none;stroke-opacity:1"/><path d="M13.34 222.03h33.334v31.131h-31.63Z" style="fill:#2b4b33;fill-opacity:1;stroke:#3e3220;stroke-width:1.96165;stroke-linecap:butt;stroke-linejoin:miter;stroke-miterlimit:4;stroke-dasharray:none;stroke-opacity:1"/><path d="m14.481 227.504 14.701-2.032-1.419 1.204 1.987-.376-4.256 2.107h4.54l-15.553 3.461z" style="fill:#263d2b;fill-opacity:1;stroke:none;stroke-width:.49151px;stroke-linecap:butt;stroke-linejoin:miter;stroke-opacity:1"/><circle cx="11.69" cy="218.177" r="1.622" style="fill:#656565;fill-opacity:1;stroke:#2e2e2e;stroke-width:.980823;stroke-linecap:round;stroke-linejoin:round;stroke-opacity:1"/><circle cx="50.526" cy="218.177" r="1.622" style="fill:#636363;fill-opacity:1;stroke:#2e2e2e;stroke-width:.980823;stroke-linecap:round;stroke-linejoin:round;stroke-opacity:1"/><circle cx="11.69" cy="257.013" r="1.622" style="fill:#636363;fill-opacity:1;stroke:#2e2e2e;stroke-width:.980823;stroke-linecap:round;stroke-linejoin:round;stroke-opacity:1"/><circle cx="50.526" cy="257.013" r="1.622" style="fill:#212121;fill-opacity:1;stroke:#212121;stroke-width:.980823;stroke-linecap:round;stroke-linejoin:round;stroke-opacity:1"/><path d="M7.615 222.03v-7.928h46.986v46.986H7.615v-7.927" style="fill:none;fill-opacity:1;stroke:#241f16;stroke-width:1.962;stroke-linecap:round;stroke-linejoin:round;stroke-miterlimit:4;stroke-dasharray:none;stroke-opacity:1"/><path d="M46.674 222.03h7.846m-7.846 31.131h7.846m-46.824 0h7.846M7.696 222.03h7.846" style="fill:none;stroke:#241f16;stroke-width:1.96165;stroke-linecap:butt;stroke-linejoin:miter;stroke-miterlimit:4;stroke-dasharray:none;stroke-opacity:1"/><path d="m22.97 217.24 6.062 1.169 7.675-1.446 6.897 1.39h-6.897l-7.897 1.558z" style="fill:#574634;fill-opacity:1;stroke:none;stroke-width:.264583px;stroke-linecap:butt;stroke-linejoin:miter;stroke-opacity:1"/><circle cx="50.767" cy="257.407" r="1.622" style="fill:#5e5e5e;fill-opacity:1;stroke:#2e2e2e;stroke-width:.980823;stroke-linecap:round;stroke-linejoin:round;stroke-opacity:1"/><path d="m50.418 247.448 1.573-5.82-2.045-5.664.236 4.955-.63 4.798z" style="fill:#574634;fill-opacity:1;stroke:none;stroke-width:.264583px;stroke-linecap:butt;stroke-linejoin:miter;stroke-opacity:1"/><path d="m46.674 240.656-21.146 3.893 3.393.946-3.281 1.112 3.726.723-2.892 1.502 1.835.055-1.223 1.669 19.588-2.614z" style="fill:#263d2b;fill-opacity:1;stroke:none;stroke-width:.264583px;stroke-linecap:butt;stroke-linejoin:miter;stroke-opacity:1"/><path d="M13.34 222.03h33.334v31.131h-31.63Z" style="fill:none;fill-opacity:1;stroke:#241f16;stroke-width:1.96165;stroke-linecap:butt;stroke-linejoin:miter;stroke-miterlimit:4;stroke-dasharray:none;stroke-opacity:1"/><path d="m33.719 235.935-4.78 5.736c.828 1.818 1.464 3.7 1.804 5.56l3.731-3.732 4.9 4.901 1.724-1.723-4.9-4.9 3.73-3.731c-2.083-.381-4.191-1.134-6.21-2.11z" style="fill:#2f7942;stroke:#15331c;stroke-width:1.387;paint-order:stroke fill markers;stroke-dasharray:none"/><path d="M33.719 235.935c2.018.977 4.126 1.73 6.209 2.11l-3.73 3.732 4.9 4.9-1.723 1.723-4.9-4.9-3.732 3.73c-.34-1.86-.976-3.74-1.804-5.56z" style="fill:#2f7942;stroke:#15331c;stroke-width:0;stroke-dasharray:none;paint-order:normal"/><path d="M20.331 227.633c1.402 2.659 3.015 5.416 4.234 9.727l1.192-1.192c.49.693.962 1.416 1.412 2.16l1.702-2.028c.624-.746 1.183-1.447 1.71-2.102a36 36 0 0 1-1.716-1.139l1.192-1.192c-4.31-1.218-7.067-2.832-9.726-4.234z" style="fill:#407c50;fill-opacity:1;stroke:#15331c;stroke-width:.587;stroke-dasharray:none;paint-order:normal"/><path d="m35.55 226.65-2.373 2.83.586.491c-.734 1.11-.619 2.03-1.965 3.635-.693.826-1.53 1.914-2.477 3.047l-5.541 6.604c-.422.502-2.882 3.667-3.196 4.85l3.924-.483s-.703-1.285.753-3.031l10.67-12.802 1.052.882 1.48 1.904.24-.096s1.051-.41 1.781-1.28.952-1.976.952-1.976l.053-.254-2.104-1.103z" style="fill:#2e7741;fill-opacity:1;stroke:#15331c;stroke-width:.587;stroke-dasharray:none;paint-order:normal"/></g></svg>