<svg xmlns="http://www.w3.org/2000/svg" width="360.274" height="172.522" viewBox="0 0 95.322 45.646"><path d="M7932.215 3347.473h82.9c1.5 0 2.707 1.208 2.707 2.708v4.022c0 1.5-1.208 2.708-2.708 2.708h-82.9a2.7 2.7 0 0 1-2.707-2.708v-4.022c0-1.5 1.208-2.708 2.708-2.708" style="fill:#4d351f;fill-opacity:1;fill-rule:evenodd;stroke:#21150c;stroke-width:2.11667;stroke-linecap:round;stroke-linejoin:round;stroke-opacity:1" transform="translate(-7925.412 -3345.145)"/><path d="M7936.509 3355.95h80.46c1.5 0 2.707 1.207 2.707 2.707v4.023c0 1.5-1.208 2.707-2.708 2.707h-80.46a2.7 2.7 0 0 1-2.707-2.707v-4.023c0-1.5 1.208-2.707 2.708-2.707M7936.446 3371.184h80.46c1.5 0 2.707 1.208 2.707 2.708v4.022c0 1.5-1.208 2.708-2.708 2.708h-80.46a2.7 2.7 0 0 1-2.707-2.708v-4.022c0-1.5 1.208-2.708 2.708-2.708" style="fill:#442e1b;fill-opacity:1;fill-rule:evenodd;stroke:#21150c;stroke-width:2.11667;stroke-linecap:round;stroke-linejoin:round;stroke-opacity:1" transform="translate(-7925.412 -3345.145)"/><path d="M7929.178 3363.037h80.459c1.5 0 2.708 1.208 2.708 2.708v4.023c0 1.5-1.208 2.707-2.708 2.707h-80.46a2.7 2.7 0 0 1-2.707-2.707v-4.023c0-1.5 1.207-2.708 2.707-2.708" style="fill:#442e1b;fill-opacity:1;fill-rule:evenodd;stroke:#21150c;stroke-width:2.11667;stroke-linecap:round;stroke-linejoin:round;stroke-opacity:1" transform="translate(-7925.412 -3345.145)"/><path d="M7933.796 3379.194h80.722c1.5 0 2.707 1.208 2.707 2.708v4.022c0 1.5-1.207 2.708-2.707 2.708h-80.722a2.7 2.7 0 0 1-2.708-2.708v-4.022c0-1.5 1.208-2.708 2.708-2.708" style="fill:#4d351f;fill-opacity:1;fill-rule:evenodd;stroke:#21150c;stroke-width:2.11667;stroke-linecap:round;stroke-linejoin:round;stroke-opacity:1" transform="translate(-7925.412 -3345.145)"/><path d="M7929.843 3353.888h82.78c1.5 0 2.708 1.208 2.708 2.708v4.022c0 1.5-1.208 2.708-2.708 2.708h-82.78a2.7 2.7 0 0 1-2.708-2.708v-4.022c0-1.5 1.208-2.708 2.708-2.708M7930.091 3371.33h83.323c1.5 0 2.707 1.207 2.707 2.707v4.286c0 1.5-1.207 2.708-2.707 2.708h-83.323a2.7 2.7 0 0 1-2.708-2.708v-4.286c0-1.5 1.208-2.707 2.708-2.707" style="fill:#5b3e24;fill-opacity:1;fill-rule:evenodd;stroke:#21150c;stroke-width:2.11667;stroke-linecap:round;stroke-linejoin:round;stroke-opacity:1" transform="translate(-7925.412 -3345.145)"/><path d="M7932.423 3362.376h83.323c1.5 0 2.707 1.208 2.707 2.708v4.286c0 1.5-1.207 2.707-2.707 2.707h-83.323a2.7 2.7 0 0 1-2.707-2.707v-4.286c0-1.5 1.207-2.708 2.707-2.708" style="fill:#6d4a2c;fill-opacity:1;fill-rule:evenodd;stroke:#21150c;stroke-width:2.11667;stroke-linecap:round;stroke-linejoin:round;stroke-opacity:1" transform="translate(-7925.412 -3345.145)"/><path d="M7971.395 3346.203h5.379v43.53h-5.38z" style="color:#000;fill:#8a725c;fill-rule:evenodd;stroke-linecap:round;stroke-linejoin:round;-inkscape-stroke:none" transform="translate(-7925.412 -3345.145)"/><path d="M7971.336 3372.745h5.494v16.985h-5.494zM7971.241 3345.313h5.494v16.201h-5.494z" style="fill:#7f6955;fill-opacity:1;stroke:none;stroke-width:2.24896;stroke-linecap:round;stroke-linejoin:round;stroke-dasharray:none;stroke-opacity:1" transform="translate(-7925.412 -3345.145)"/><path d="M7971.394 3345.145a1.06 1.06 0 0 0-1.059 1.059v43.529a1.06 1.06 0 0 0 1.06 1.059h5.378a1.06 1.06 0 0 0 1.059-1.059v-43.53a1.06 1.06 0 0 0-1.059-1.058zm1.059 2.115h3.264v41.414h-3.264z" style="color:#000;fill:#27211b;fill-opacity:1;fill-rule:evenodd;stroke-linecap:round;stroke-linejoin:round;-inkscape-stroke:none" transform="translate(-7925.412 -3345.145)"/></svg>