<?xml version="1.0" encoding="UTF-8" standalone="no"?>
<!-- Created with Inkscape (http://www.inkscape.org/) -->

<svg
   width="463.20825"
   height="59.172943"
   viewBox="0 0 122.55718 15.656174"
   version="1.1"
   id="svg1"
   inkscape:version="1.4 (86a8ad7, 2024-10-11)"
   sodipodi:docname="log_2.svg"
   xmlns:inkscape="http://www.inkscape.org/namespaces/inkscape"
   xmlns:sodipodi="http://sodipodi.sourceforge.net/DTD/sodipodi-0.dtd"
   xmlns="http://www.w3.org/2000/svg"
   xmlns:svg="http://www.w3.org/2000/svg">
  <sodipodi:namedview
     id="namedview1"
     pagecolor="#ffffff"
     bordercolor="#000000"
     borderopacity="0.25"
     inkscape:showpageshadow="2"
     inkscape:pageopacity="0.0"
     inkscape:pagecheckerboard="0"
     inkscape:deskcolor="#d1d1d1"
     inkscape:document-units="mm"
     inkscape:zoom="0.68862935"
     inkscape:cx="184.42432"
     inkscape:cy="-190.95904"
     inkscape:window-width="1920"
     inkscape:window-height="991"
     inkscape:window-x="-9"
     inkscape:window-y="-9"
     inkscape:window-maximized="1"
     inkscape:current-layer="layer1" />
  <defs
     id="defs1" />
  <g
     inkscape:label="Στρώση 1"
     inkscape:groupmode="layer"
     id="layer1"
     transform="translate(-56.086821,-198.97135)">
    <g
       id="g19-37-5-7"
       transform="translate(132.02194,360.63172)">
      <rect
         style="fill:#5f4630;fill-opacity:1;stroke:#301e11;stroke-width:1.85208;stroke-linecap:round;stroke-linejoin:round;stroke-dasharray:none;stroke-opacity:1"
         id="rect1-2-6-2-4-8"
         width="120.7051"
         height="13.804094"
         x="-75.009079"
         y="-160.73433"
         ry="2.8985364" />
      <rect
         style="fill:#6a4e35;fill-opacity:1;stroke:none;stroke-width:1.85208;stroke-linecap:round;stroke-linejoin:round;stroke-dasharray:none;stroke-opacity:1"
         id="rect2-2-6-9-0-8"
         width="120.7051"
         height="7.315351"
         x="-75.009079"
         y="-157.48996" />
      <g
         id="g16-7-3-5">
        <path
           style="fill:#413021;fill-opacity:1;stroke:none;stroke-width:1.85208;stroke-linecap:round;stroke-linejoin:round;stroke-dasharray:none;stroke-opacity:1"
           d="m -75.743131,-151.25836 c 3.199998,-0.86433 12.827293,-0.16317 9.601811,-0.11113 -3.926939,0.0634 -8.129542,0.12429 -9.601811,0.11113 z"
           id="path6-4-7-7-53-4-9" />
        <path
           style="fill:#413021;fill-opacity:1;stroke:none;stroke-width:1.85208;stroke-linecap:round;stroke-linejoin:round;stroke-dasharray:none;stroke-opacity:1"
           d="m 29.055168,-149.55565 c 5.204919,-0.86433 20.864083,-0.16317 15.617713,-0.11113 -6.387317,0.0634 -13.223012,0.12429 -15.617713,0.11113 z"
           id="path6-73-3-8-4-1-7" />
        <path
           style="fill:#413021;fill-opacity:1;stroke:none;stroke-width:1.85208;stroke-linecap:round;stroke-linejoin:round;stroke-dasharray:none;stroke-opacity:1"
           d="m 32.139934,-152.53454 c 4.272091,-0.86433 17.124811,-0.16317 12.818698,-0.11113 -5.242578,0.0634 -10.853177,0.12429 -12.818698,0.11113 z"
           id="path6-67-2-7-4-32-2-1" />
        <path
           style="fill:#413021;fill-opacity:1;stroke:none;stroke-width:1.85208;stroke-linecap:round;stroke-linejoin:round;stroke-dasharray:none;stroke-opacity:1"
           d="m 28.383791,-157.76243 c 5.204919,-0.86433 20.864083,-0.16317 15.617713,-0.11113 -6.387317,0.0634 -13.223012,0.12429 -15.617713,0.11113 z"
           id="path6-28-9-1-11-2-3" />
        <path
           style="fill:#413021;fill-opacity:1;stroke:none;stroke-width:1.85208;stroke-linecap:round;stroke-linejoin:round;stroke-dasharray:none;stroke-opacity:1"
           d="m 29.515224,-154.18633 c 5.204919,-0.86433 20.864083,-0.16317 15.617713,-0.11113 -6.387317,0.0634 -13.223012,0.12429 -15.617713,0.11113 z"
           id="path6-23-0-7-3-9-4" />
        <path
           style="fill:#413021;fill-opacity:1;stroke:none;stroke-width:1.85208;stroke-linecap:round;stroke-linejoin:round;stroke-dasharray:none;stroke-opacity:1"
           d="m -65.670659,-158.88454 c 5.204919,-0.86433 20.864083,-0.16317 15.617713,-0.11113 -6.387317,0.0634 -13.223012,0.12429 -15.617713,0.11113 z"
           id="path6-7-2-1-2-8-71" />
        <path
           style="fill:#413021;fill-opacity:1;stroke:none;stroke-width:1.85208;stroke-linecap:round;stroke-linejoin:round;stroke-dasharray:none;stroke-opacity:1"
           d="m -75.913081,-154.16518 c 5.204919,-0.86433 20.864083,-0.16317 15.617713,-0.11113 -6.387317,0.0634 -13.223012,0.12429 -15.617713,0.11113 z"
           id="path6-46-3-8-53-2-3" />
        <path
           style="fill:#413021;fill-opacity:1;stroke:none;stroke-width:1.85208;stroke-linecap:round;stroke-linejoin:round;stroke-dasharray:none;stroke-opacity:1"
           d="m -73.774386,-157.39932 c 5.204919,-0.86433 20.864083,-0.16317 15.617713,-0.11113 -6.387317,0.0634 -13.223012,0.12429 -15.617713,0.11113 z"
           id="path6-5-9-7-5-2-7" />
        <path
           style="fill:#413021;fill-opacity:1;stroke:none;stroke-width:1.85208;stroke-linecap:round;stroke-linejoin:round;stroke-dasharray:none;stroke-opacity:1"
           d="m -72.814409,-148.3012 c 5.204919,-0.86433 20.864083,-0.16317 15.617713,-0.11113 -6.387317,0.0634 -13.223012,0.12429 -15.617713,0.11113 z"
           id="path6-51-9-8-1-7-1" />
        <path
           style="fill:#413021;fill-opacity:1;stroke:none;stroke-width:1.85208;stroke-linecap:round;stroke-linejoin:round;stroke-dasharray:none;stroke-opacity:1"
           d="m -43.356137,-150.776 c 5.204919,-0.86433 20.864083,-0.16317 15.617713,-0.11113 -6.387317,0.0634 -13.223012,0.12429 -15.617713,0.11113 z"
           id="path6-19-7-7-2-8-2" />
        <path
           style="fill:#413021;fill-opacity:1;stroke:none;stroke-width:1.85208;stroke-linecap:round;stroke-linejoin:round;stroke-dasharray:none;stroke-opacity:1"
           d="m -37.323779,-148.53848 c 5.204919,-0.86433 20.864083,-0.16317 15.617713,-0.11113 -6.387317,0.0634 -13.223012,0.12429 -15.617713,0.11113 z"
           id="path6-35-0-7-22-5-7" />
        <path
           style="fill:#413021;fill-opacity:1;stroke:none;stroke-width:1.85208;stroke-linecap:round;stroke-linejoin:round;stroke-dasharray:none;stroke-opacity:1"
           d="m -33.475654,-152.38327 c 5.204919,-0.86433 20.864083,-0.16317 15.617713,-0.11113 -6.387317,0.0634 -13.223012,0.12429 -15.617713,0.11113 z"
           id="path6-58-3-4-64-8-5" />
        <path
           style="fill:#413021;fill-opacity:1;stroke:none;stroke-width:1.85208;stroke-linecap:round;stroke-linejoin:round;stroke-dasharray:none;stroke-opacity:1"
           d="m -48.167116,-158.19188 c 5.204919,-0.86433 20.864083,-0.16317 15.617713,-0.11113 -6.387317,0.0634 -13.223012,0.12429 -15.617713,0.11113 z"
           id="path6-60-9-4-0-3-3" />
        <path
           style="fill:#413021;fill-opacity:1;stroke:none;stroke-width:1.85208;stroke-linecap:round;stroke-linejoin:round;stroke-dasharray:none;stroke-opacity:1"
           d="m -62.700612,-156.0256 c 5.204919,-0.86433 20.864083,-0.16317 15.617713,-0.11113 -6.387317,0.0634 -13.223012,0.12429 -15.617713,0.11113 z"
           id="path6-60-9-3-9-70-9-4" />
        <path
           style="fill:#413021;fill-opacity:1;stroke:none;stroke-width:1.85208;stroke-linecap:round;stroke-linejoin:round;stroke-dasharray:none;stroke-opacity:1"
           d="m -58.262896,-152.52164 c 5.204919,-0.86433 20.864083,-0.16317 15.617713,-0.11113 -6.387317,0.0634 -13.223012,0.12429 -15.617713,0.11113 z"
           id="path6-60-9-5-1-3-4-4" />
        <path
           style="fill:#413021;fill-opacity:1;stroke:none;stroke-width:1.85208;stroke-linecap:round;stroke-linejoin:round;stroke-dasharray:none;stroke-opacity:1"
           d="m -29.461144,-158.55435 c 5.204919,-0.86433 20.8640827,-0.16317 15.617713,-0.11113 -6.387317,0.0634 -13.223012,0.12429 -15.617713,0.11113 z"
           id="path6-32-8-5-4-4-5" />
        <path
           style="fill:#413021;fill-opacity:1;stroke:none;stroke-width:1.85208;stroke-linecap:round;stroke-linejoin:round;stroke-dasharray:none;stroke-opacity:1"
           d="m -26.21711,-155.42004 c 5.204919,-0.86433 20.8640827,-0.16317 15.617713,-0.11113 -6.387317,0.0634 -13.223012,0.12429 -15.617713,0.11113 z"
           id="path6-67-65-5-0-6-5" />
        <path
           style="fill:#413021;fill-opacity:1;stroke:none;stroke-width:1.85208;stroke-linecap:round;stroke-linejoin:round;stroke-dasharray:none;stroke-opacity:1"
           d="m -39.194603,-157.01585 c 5.204919,-0.86433 20.864083,-0.16317 15.617713,-0.11113 -6.387317,0.0634 -13.223012,0.12429 -15.617713,0.11113 z"
           id="path6-67-6-7-5-0-9-1" />
        <path
           style="fill:#413021;fill-opacity:1;stroke:none;stroke-width:1.85208;stroke-linecap:round;stroke-linejoin:round;stroke-dasharray:none;stroke-opacity:1"
           d="m -24.742626,-150.06132 c 5.204919,-0.86433 20.864083,-0.16317 15.6177127,-0.11113 -6.3873167,0.0634 -13.2230117,0.12429 -15.6177127,0.11113 z"
           id="path6-10-6-8-5-8-4" />
        <path
           style="fill:#413021;fill-opacity:1;stroke:none;stroke-width:1.85208;stroke-linecap:round;stroke-linejoin:round;stroke-dasharray:none;stroke-opacity:1"
           d="m -14.50238,-153.43374 c 5.2049187,-0.86433 20.8640824,-0.16317 15.6177124,-0.11113 -6.3873167,0.0634 -13.2230114,0.12429 -15.6177124,0.11113 z"
           id="path6-56-2-2-31-5-1" />
        <path
           style="fill:#413021;fill-opacity:1;stroke:none;stroke-width:1.85208;stroke-linecap:round;stroke-linejoin:round;stroke-dasharray:none;stroke-opacity:1"
           d="m -11.567425,-158.41931 c 5.2049187,-0.86433 20.8640825,-0.16317 15.6177125,-0.11113 -6.387317,0.0634 -13.2230118,0.12429 -15.6177125,0.11113 z"
           id="path6-78-7-9-0-6-26" />
        <path
           style="fill:#413021;fill-opacity:1;stroke:none;stroke-width:1.85208;stroke-linecap:round;stroke-linejoin:round;stroke-dasharray:none;stroke-opacity:1"
           d="m -7.4533403,-156.52161 c 5.2049195,-0.86433 20.8640833,-0.16317 15.6177135,-0.11113 -6.387317,0.0634 -13.2230125,0.12429 -15.6177135,0.11113 z"
           id="path6-17-0-8-6-6-6" />
        <path
           style="fill:#413021;fill-opacity:1;stroke:none;stroke-width:1.85208;stroke-linecap:round;stroke-linejoin:round;stroke-dasharray:none;stroke-opacity:1"
           d="m -8.7124883,-148.52017 c 5.2049193,-0.86433 20.8640833,-0.16317 15.6177135,-0.11113 -6.387317,0.0634 -13.2230125,0.12429 -15.6177135,0.11113 z"
           id="path6-49-3-2-7-0-3" />
        <path
           style="fill:#413021;fill-opacity:1;stroke:none;stroke-width:1.85208;stroke-linecap:round;stroke-linejoin:round;stroke-dasharray:none;stroke-opacity:1"
           d="m -6.3799163,-151.80771 c 5.2049195,-0.86433 20.8640833,-0.16317 15.6177137,-0.11113 -6.387317,0.0634 -13.2230124,0.12429 -15.6177137,0.11113 z"
           id="path6-50-9-0-5-7-3" />
        <path
           style="fill:#413021;fill-opacity:1;stroke:none;stroke-width:1.85208;stroke-linecap:round;stroke-linejoin:round;stroke-dasharray:none;stroke-opacity:1"
           d="m -0.9673386,-150.20807 c 5.204919,-0.86433 20.8640826,-0.16317 15.6177126,-0.11113 -6.3873166,0.0634 -13.2230116,0.12429 -15.6177126,0.11113 z"
           id="path6-0-9-7-00-2-0" />
        <path
           style="fill:#413021;fill-opacity:1;stroke:none;stroke-width:1.85208;stroke-linecap:round;stroke-linejoin:round;stroke-dasharray:none;stroke-opacity:1"
           d="m 1.1318789,-154.87932 c 5.204919,-0.86433 20.8640831,-0.16317 15.6177131,-0.11113 -6.387317,0.0634 -13.2230121,0.12429 -15.6177131,0.11113 z"
           id="path6-2-9-4-45-7-0" />
        <path
           style="fill:#413021;fill-opacity:1;stroke:none;stroke-width:1.85208;stroke-linecap:round;stroke-linejoin:round;stroke-dasharray:none;stroke-opacity:1"
           d="m 9.4708773,-158.52603 c 5.2049187,-0.86433 20.8640827,-0.16317 15.6177127,-0.11113 -6.387317,0.0634 -13.223012,0.12429 -15.6177127,0.11113 z"
           id="path6-2-3-1-8-4-2-8" />
        <path
           style="fill:#413021;fill-opacity:1;stroke:none;stroke-width:1.85208;stroke-linecap:round;stroke-linejoin:round;stroke-dasharray:none;stroke-opacity:1"
           d="m 19.068936,-156.16578 c 5.204919,-0.86433 20.864083,-0.16317 15.617713,-0.11113 -6.387317,0.0634 -13.223012,0.12429 -15.617713,0.11113 z"
           id="path6-26-7-5-9-6-1" />
        <path
           style="fill:#413021;fill-opacity:1;stroke:none;stroke-width:1.85208;stroke-linecap:round;stroke-linejoin:round;stroke-dasharray:none;stroke-opacity:1"
           d="m 10.528645,-153.17327 c 5.20492,-0.86433 20.864083,-0.16317 15.617713,-0.11113 -6.387317,0.0634 -13.223012,0.12429 -15.617713,0.11113 z"
           id="path6-676-2-8-5-4-3" />
        <path
           style="fill:#413021;fill-opacity:1;stroke:none;stroke-width:1.85208;stroke-linecap:round;stroke-linejoin:round;stroke-dasharray:none;stroke-opacity:1"
           d="m 12.408555,-148.71164 c 5.20492,-0.86433 20.864083,-0.16317 15.617713,-0.11113 -6.387317,0.0634 -13.223012,0.12429 -15.617713,0.11113 z"
           id="path6-355-3-3-6-7-8" />
        <path
           style="fill:#413021;fill-opacity:1;stroke:none;stroke-width:1.85208;stroke-linecap:round;stroke-linejoin:round;stroke-dasharray:none;stroke-opacity:1"
           d="m 18.092343,-151.57678 c 5.204919,-0.86433 20.864083,-0.16317 15.617713,-0.11113 -6.387317,0.0634 -13.223012,0.12429 -15.617713,0.11113 z"
           id="path6-45-6-0-4-1-1" />
        <path
           style="fill:#413021;fill-opacity:1;stroke:none;stroke-width:1.85208;stroke-linecap:round;stroke-linejoin:round;stroke-dasharray:none;stroke-opacity:1"
           d="m -60.424696,-149.64751 c 5.204919,-0.86433 20.864083,-0.16317 15.617713,-0.11113 -6.387317,0.0634 -13.223012,0.12429 -15.617713,0.11113 z"
           id="path6-60-9-1-2-82-3-6" />
        <path
           style="fill:#413021;fill-opacity:1;stroke:none;stroke-width:1.85208;stroke-linecap:round;stroke-linejoin:round;stroke-dasharray:none;stroke-opacity:1"
           d="m -45.416889,-155.15243 c 5.204919,-0.86433 20.864083,-0.16317 15.617713,-0.11113 -6.387317,0.0634 -13.223012,0.12429 -15.617713,0.11113 z"
           id="path6-60-9-18-2-16-2-9" />
      </g>
      <rect
         style="fill:none;fill-opacity:1;stroke:#261c14;stroke-width:1.85208;stroke-linecap:round;stroke-linejoin:round;stroke-dasharray:none;stroke-opacity:1"
         id="rect1-9-5-6-8-1-80"
         width="120.7051"
         height="13.804094"
         x="-75.009079"
         y="-160.73433"
         ry="2.8985364" />
    </g>
  </g>
</svg>
