<?xml version="1.0" encoding="UTF-8" standalone="no"?>
<!-- Created with Inkscape (http://www.inkscape.org/) -->

<svg
   width="175"
   height="175"
   viewBox="0 0 46.302082 46.302083"
   version="1.1"
   id="svg1"
   xml:space="preserve"
   inkscape:version="1.4 (86a8ad7, 2024-10-11)"
   sodipodi:docname="rock_nsd.svg"
   inkscape:export-filename="rock_nsd.png"
   inkscape:export-xdpi="96"
   inkscape:export-ydpi="96"
   xmlns:inkscape="http://www.inkscape.org/namespaces/inkscape"
   xmlns:sodipodi="http://sodipodi.sourceforge.net/DTD/sodipodi-0.dtd"
   xmlns="http://www.w3.org/2000/svg"
   xmlns:svg="http://www.w3.org/2000/svg"><sodipodi:namedview
     id="namedview1"
     pagecolor="#ffffff"
     bordercolor="#000000"
     borderopacity="0.25"
     inkscape:showpageshadow="2"
     inkscape:pageopacity="0.0"
     inkscape:pagecheckerboard="0"
     inkscape:deskcolor="#d1d1d1"
     inkscape:document-units="px"
     inkscape:zoom="4"
     inkscape:cx="79.5"
     inkscape:cy="88.375"
     inkscape:window-width="1920"
     inkscape:window-height="1009"
     inkscape:window-x="-8"
     inkscape:window-y="-8"
     inkscape:window-maximized="1"
     inkscape:current-layer="layer1"
     showguides="false"><inkscape:page
       x="0"
       y="0"
       width="46.302082"
       height="46.302082"
       id="page2"
       margin="0"
       bleed="0" /></sodipodi:namedview><defs
     id="defs1" /><g
     inkscape:label="Layer 1"
     inkscape:groupmode="layer"
     id="layer1"><g
       id="g3"
       transform="translate(-1.2678003e-5)"><path
         style="fill:#787878;fill-opacity:1;stroke:none;stroke-width:3.7042;stroke-linecap:round;stroke-linejoin:round;stroke-dasharray:none;stroke-opacity:1;paint-order:normal"
         d="M 4.657118,39.82145 1.3854709,17.20545 9.0112284,3.5960754 29.951696,2.4884101 43.246575,6.5258365 45.733,33.793688 25.268163,43.81369 Z"
         id="path2702"
         sodipodi:nodetypes="cccccccc" /><path
         id="path2704"
         style="fill:#919191;fill-opacity:1;stroke:none;stroke-width:3.7042;stroke-linecap:round;stroke-linejoin:round;stroke-dasharray:none;stroke-opacity:1;paint-order:normal"
         d="M 4.657118,39.82145 25.268163,43.81369 45.733,33.793688 43.526198,5.5953994 37.780697,24.712688 31.338129,31.915949 20.672187,33.273483 Z" /><path
         id="path2706"
         style="fill:#5f5f5f;fill-opacity:1;stroke:none;stroke-width:3.7042;stroke-linecap:round;stroke-linejoin:round;stroke-dasharray:none;stroke-opacity:1;paint-order:normal"
         d="M 29.951696,2.4884101 9.0112284,3.5960754 1.3854709,17.20545 4.657118,39.82145 8.8350526,21.622318 16.017051,11.476235 Z" /><path
         style="fill:none;fill-opacity:1;stroke:#333333;stroke-width:2.77814;stroke-linecap:round;stroke-linejoin:round;stroke-dasharray:none;stroke-opacity:1;paint-order:normal"
         d="M 25.268163,43.81369 4.657118,39.82145 1.3854709,17.20545 9.0112284,3.5960754 29.951696,2.4884101 43.246575,6.5258365 44.916637,34.890807 Z"
         id="path2708" /><rect
         style="fill:#000000;fill-opacity:0;stroke:none;stroke-width:3.70417;stroke-linecap:round;stroke-linejoin:miter;stroke-dasharray:none;stroke-opacity:1;paint-order:normal"
         id="rect2804-5"
         width="46.302086"
         height="46.302086"
         x="4.7473145e-06"
         y="-3.166504e-06" /><g
         id="g1"
         style="fill:#808080;fill-opacity:1"
         transform="matrix(1.4510026,0,0,1.4510026,-210.10231,-15.728129)"><path
           style="fill:#777777;fill-opacity:1;fill-rule:nonzero;stroke:none;stroke-width:0.910564;stroke-linejoin:round;stroke-dasharray:none;stroke-opacity:1"
           d="m 166.22406,20.936191 c -0.68675,9.03437 -3.0013,9.823166 -5.199,11.286438 -2.19828,-1.425557 -4.51339,-2.23999 -5.20461,-11.272517 1.81633,-0.120544 3.6544,-0.19825 5.20149,-1.376848 1.54775,1.148891 3.38573,1.247243 5.20212,1.362927 z"
           id="path109207-3-1-8-1"
           sodipodi:nodetypes="ccccc" /><path
           id="path109209-5-5-1-4"
           style="fill:#666666;fill-opacity:1;fill-rule:nonzero;stroke:none;stroke-width:9.88779e-09;stroke-linejoin:round;stroke-dasharray:none;stroke-opacity:1"
           d="m 158.97125,20.390843 5.5e-4,2.969034 -3.22551,0.0039 0.11523,0.975506 3.1105,-0.0039 0.002,6.863699 0.90145,0.505041 -0.002,-7.369741 6.10271,-0.0079 0.2068,-0.975506 -6.30973,0.0079 -5.5e-4,-3.291062 z"
           sodipodi:nodetypes="ccccccccccccc" /></g><path
         style="fill:none;fill-opacity:1;fill-rule:nonzero;stroke:#666666;stroke-width:1.32123;stroke-linejoin:round;stroke-dasharray:none;stroke-opacity:1"
         d="m 31.035425,14.650337 c -0.99648,13.108895 -4.354894,14.25344 -7.543762,16.376651 -3.18971,-2.068486 -6.548941,-3.250231 -7.551903,-16.356452 2.6355,-0.174909 5.302544,-0.287661 7.547376,-1.99781 2.245789,1.667044 4.912703,1.809753 7.548289,1.977611 z"
         id="path109207-3-1-8-1-7"
         sodipodi:nodetypes="ccccc" /></g></g></svg>
