<svg xmlns="http://www.w3.org/2000/svg" width="689.427" height="315.285" viewBox="0 0 182.411 83.419"><g transform="rotate(90 -7609.335 4980.097) scale(.93512)"><rect width="8.212" height="79.64" x="2996.184" y="-13458.614" rx="2.068" ry="2.068" style="fill:#4d4d4d;fill-opacity:1;stroke:#1a1a1a;stroke-width:2.82940678;stroke-dasharray:none;stroke-opacity:1;paint-order:normal;stop-color:#000" transform="rotate(-90)"/><rect width="11.553" height="32.501" x="-13461.956" y="-2990.407" rx="2.5" ry="2.5" style="fill:#333;fill-opacity:1;stroke:#181818;stroke-width:1.9017;stroke-linecap:square;stroke-linejoin:round;stroke-dasharray:none;stroke-opacity:1;paint-order:normal;stop-color:#000"/><path d="M13457.125 2958.159h2.521v31.491h-2.521z" style="fill:#181818;fill-opacity:1;stroke:none;stroke-width:.796452;stroke-linecap:square;stroke-linejoin:round;stroke-dasharray:none;stroke-opacity:1;paint-order:normal;stop-color:#000" transform="scale(-1)"/><rect width="11.553" height="32.501" x="13374.69" y="-2990.424" rx="2.5" ry="2.5" style="fill:#333;fill-opacity:1;stroke:#181818;stroke-width:1.9017;stroke-linecap:square;stroke-linejoin:round;stroke-dasharray:none;stroke-opacity:1;paint-order:normal;stop-color:#000" transform="scale(-1 1)"/><path d="M-13379.521 2958.176h2.521v31.491h-2.521z" style="fill:#181818;fill-opacity:1;stroke:none;stroke-width:.796452;stroke-linecap:square;stroke-linejoin:round;stroke-dasharray:none;stroke-opacity:1;paint-order:normal;stop-color:#000" transform="scale(1 -1)"/><rect width="11.552" height="32.747" x="-13461.912" y="-2865.1" rx="2.519" ry="2.519" style="fill:#333;fill-opacity:1;stroke:#181818;stroke-width:1.90883;stroke-linecap:square;stroke-linejoin:round;stroke-dasharray:none;stroke-opacity:1;paint-order:normal;stop-color:#000"/><path d="M13457.083 2832.607h2.521v31.73h-2.521z" style="fill:#181818;fill-opacity:1;stroke:none;stroke-width:.799435;stroke-linecap:square;stroke-linejoin:round;stroke-dasharray:none;stroke-opacity:1;paint-order:normal;stop-color:#000" transform="scale(-1)"/><rect width="11.552" height="32.747" x="13374.654" y="-2865.117" rx="2.519" ry="2.519" style="fill:#333;fill-opacity:1;stroke:#181818;stroke-width:1.90883;stroke-linecap:square;stroke-linejoin:round;stroke-dasharray:none;stroke-opacity:1;paint-order:normal;stop-color:#000" transform="scale(-1 1)"/><path d="M-13379.483 2832.624h2.521v31.73h-2.521z" style="fill:#181818;fill-opacity:1;stroke:none;stroke-width:.799435;stroke-linecap:square;stroke-linejoin:round;stroke-dasharray:none;stroke-opacity:1;paint-order:normal;stop-color:#000" transform="scale(1 -1)"/><rect width="10.055" height="80.488" x="2814.251" y="-13458.244" rx="2.286" ry="2.286" style="fill:#4d4d4d;fill-opacity:1;stroke:#1a1a1a;stroke-width:2.82940678;stroke-dasharray:none;stroke-opacity:1;paint-order:normal;stop-color:#000" transform="rotate(-90)"/><rect width="2.355" height="46.561" x="-3002.5" y="-13441.389" rx="1.585" ry="1.585" style="fill:gray;fill-opacity:1;stroke:#1a1a1a;stroke-width:2.42068;stroke-dasharray:none;stroke-opacity:1;paint-order:markers stroke fill;stop-color:#000" transform="matrix(0 1 1 0 0 0)"/><rect width="11.737" height="1.864" x="-13454.275" y="-3002.681" rx=".583" ry=".583" style="fill:#d9d96d;fill-opacity:.45;stroke:none;stroke-width:1.72138;stroke-linecap:square;stroke-linejoin:round;stroke-dasharray:none;stroke-opacity:1;paint-order:fill markers stroke;stop-color:#000"/><rect width="11.501" height="1.864" x="-13393.704" y="-3002.679" rx=".583" ry=".583" style="fill:#d9d96d;fill-opacity:.45;stroke:none;stroke-width:1.704;stroke-linecap:square;stroke-linejoin:round;stroke-dasharray:none;stroke-opacity:1;paint-order:fill markers stroke;stop-color:#000"/><rect width="13.096" height="1.864" x="-13395.399" y="-2817.254" rx=".583" ry=".583" style="fill:#b55753;fill-opacity:1;stroke:none;stroke-width:1.81834;stroke-linecap:square;stroke-linejoin:round;stroke-dasharray:none;stroke-opacity:1;paint-order:fill markers stroke;stop-color:#000"/><rect width="13.096" height="1.864" x="-13454.581" y="-2817.255" rx=".583" ry=".583" style="fill:#b55753;fill-opacity:1;stroke:none;stroke-width:1.81834;stroke-linecap:square;stroke-linejoin:round;stroke-dasharray:none;stroke-opacity:1;paint-order:fill markers stroke;stop-color:#000"/><rect width="180.284" height="75.42" x="-2999.128" y="13380.567" rx="9.604" ry="4.073" style="fill:#733226;fill-opacity:1;stroke:#121212;stroke-width:2.82940678;stroke-dasharray:none;stroke-opacity:1;paint-order:normal;stop-color:#000" transform="rotate(90)"/><rect width="180.28" height="64.961" x="-2999.126" y="-13450.93" rx="9.604" ry="3.508" style="fill:#813627;fill-opacity:1;stroke-width:1.8187;paint-order:markers stroke fill;stop-color:#000" transform="matrix(0 1 1 0 0 0)"/><rect width="180.28" height="56.204" x="-2999.063" y="-13446.53" rx="9.604" ry="3.035" style="fill:#733226;fill-opacity:1;stroke-width:1.69169;paint-order:markers stroke fill;stop-color:#000" transform="matrix(0 1 1 0 0 0)"/><rect width="90.413" height="65.049" x="-2909.186" y="-13450.994" rx="4.816" ry="3.513" style="fill:#813627;fill-opacity:1;stroke-width:1.28884;paint-order:markers stroke fill;stop-color:#000" transform="matrix(0 1 1 0 0 0)"/><rect width="179.511" height="75.506" x="-2998.778" y="13380.245" rx="9.563" ry="4.078" style="fill:none;fill-opacity:1;stroke:#121212;stroke-width:2.00887881;stroke-dasharray:none;stroke-opacity:1;paint-order:normal;stop-color:#000" transform="rotate(90 0 0)"/><rect width="83.689" height="56.204" x="-2904.322" y="-13446.661" rx="4.458" ry="3.035" style="fill:#5f2920;fill-opacity:1;stroke-width:1.15261;paint-order:markers stroke fill;stop-color:#000" transform="matrix(0 1 1 0 0 0)"/><rect width="83.31" height="6.075" x="-2903.973" y="-13440.791" ry="0" style="fill:#4b1d1b;fill-opacity:1;stroke-width:3.9178;paint-order:markers stroke fill;stop-color:#000" transform="matrix(0 1 1 0 0 0)"/><rect width="83.31" height="6.075" x="-2903.934" y="-13428.22" ry="0" style="fill:#4b1d1b;fill-opacity:1;stroke-width:3.9178;paint-order:markers stroke fill;stop-color:#000" transform="matrix(0 1 1 0 0 0)"/><rect width="83.31" height="6.075" x="-2903.981" y="-13415.553" ry="0" style="fill:#4b1d1b;fill-opacity:1;stroke-width:3.9178;paint-order:markers stroke fill;stop-color:#000" transform="matrix(0 1 1 0 0 0)"/><rect width="83.31" height="6.075" x="-2903.926" y="-13402.685" ry="0" style="fill:#4b1d1b;fill-opacity:1;stroke-width:3.9178;paint-order:markers stroke fill;stop-color:#000" transform="matrix(0 1 1 0 0 0)"/><rect width="75.432" height="5.646" x="13380.57" y="-2909.604" rx="1.562" ry="1.562" style="fill:#666;fill-opacity:1;stroke-width:3.59391;paint-order:markers stroke fill;stop-color:#000" transform="scale(-1 1)"/><rect width="74.691" height="47.946" x="-13455.719" y="-2955.005" rx="2.853" ry="2.853" style="fill:#733226;fill-opacity:1;stroke:#171717;stroke-width:1.82719;stroke-linejoin:miter;stroke-dasharray:none;stroke-opacity:1;stop-color:#000"/><path d="M-13449.785-2938.289h63.083l5.047-15.657h-73.315z" style="opacity:1;fill:#735f59;fill-opacity:1;stroke:#171717;stroke-width:1.82633;stroke-linejoin:round;stroke-dasharray:none;stroke-opacity:1;stop-color:#000"/><rect width="24.059" height="6.015" x="-13415.188" y="-2948.472" rx="1.2" ry="4.073" style="fill:#64534f;fill-opacity:1;stroke:#1f1f1f;stroke-width:1.81551;stroke-linecap:round;stroke-linejoin:round;stroke-dasharray:none;stroke-opacity:1;stop-color:#000"/><ellipse cx="-13435.165" cy="-2939.498" rx="10.517" ry="3.714" style="fill:gray;fill-opacity:1;stroke:#1f1f1f;stroke-width:1.66258;stroke-linecap:round;stroke-linejoin:round;stroke-dasharray:none;stroke-opacity:1;stop-color:#000"/><path d="m-13449.213-2939.833-4.457-13.636h70.893l-4.354 13.628z" style="opacity:1;fill:#0094b2;fill-opacity:.298039;stroke:#056;stroke-width:1.21828;stroke-linecap:square;stroke-linejoin:round;stroke-dasharray:none;stroke-opacity:.8;stop-color:#000"/><path d="M-13450.485-2908.348h-3.936v-41.765l3.754 12.301z" style="opacity:1;fill:#0094b2;fill-opacity:.298039;stroke:#056;stroke-width:1.21873;stroke-linecap:round;stroke-linejoin:round;stroke-dasharray:none;stroke-opacity:.8;stop-color:#000"/><path d="M-13385.689-2908.46h3.936v-41.728l-3.754 12.29z" style="fill:#0094b2;fill-opacity:.298039;stroke:#056;stroke-width:1.21824;stroke-linecap:round;stroke-linejoin:round;stroke-dasharray:none;stroke-opacity:.8;stop-color:#000"/><rect width="62.808" height="31.774" x="-13449.455" y="-2938.514" rx="1.187" ry="1.187" style="fill:#813627;fill-opacity:1;stroke:#171717;stroke-width:1.23113;stroke-linecap:square;stroke-linejoin:round;stroke-dasharray:none;stroke-opacity:1;stop-color:#000"/><path d="M2920.261-13448.859h6.68v61.61h-6.68z" style="fill:#733226;fill-opacity:1;stroke:none;stroke-width:1.81338;stroke-linecap:square;stroke-linejoin:round;stroke-dasharray:none;stroke-opacity:1;paint-order:normal;stop-color:#000" transform="rotate(-90)"/></g></svg>