<?xml version="1.0" encoding="UTF-8" standalone="no"?>
<!-- Created with Inkscape (http://www.inkscape.org/) -->

<svg
   width="200"
   height="200.026"
   viewBox="0 0 52.916666 52.923546"
   version="1.1"
   id="svg1"
   xml:space="preserve"
   inkscape:version="1.4 (86a8ad7, 2024-10-11)"
   sodipodi:docname="nsd_classifiedcrate.svg"
   xmlns:inkscape="http://www.inkscape.org/namespaces/inkscape"
   xmlns:sodipodi="http://sodipodi.sourceforge.net/DTD/sodipodi-0.dtd"
   xmlns="http://www.w3.org/2000/svg"
   xmlns:svg="http://www.w3.org/2000/svg"><sodipodi:namedview
     id="namedview1"
     pagecolor="#ffffff"
     bordercolor="#000000"
     borderopacity="0.25"
     inkscape:showpageshadow="2"
     inkscape:pageopacity="0.0"
     inkscape:pagecheckerboard="0"
     inkscape:deskcolor="#d1d1d1"
     inkscape:document-units="px"
     inkscape:zoom="1.4142136"
     inkscape:cx="120.91526"
     inkscape:cy="187.73685"
     inkscape:window-width="1920"
     inkscape:window-height="1009"
     inkscape:window-x="-8"
     inkscape:window-y="-8"
     inkscape:window-maximized="1"
     inkscape:current-layer="layer1" /><defs
     id="defs1"><rect
       x="-16.276962"
       y="-98.61924"
       width="131.17317"
       height="62.235443"
       id="rect9" /><inkscape:path-effect
       effect="fillet_chamfer"
       id="path-effect1863"
       is_visible="true"
       lpeversion="1"
       nodesatellites_param="F,0,0,1,0,0,0,1 @ F,0,0,1,0,0,0,1 @ F,0,0,1,0,0,0,1 @ F,0,0,1,0,0,0,1 @ F,0,0,1,0,0,0,1 @ F,0,0,1,0,0,0,1 @ F,0,0,1,0,0,0,1 @ F,0,0,1,0,0,0,1"
       unit="px"
       method="auto"
       mode="F"
       radius="0"
       chamfer_steps="1"
       flexible="false"
       use_knot_distance="true"
       apply_no_radius="true"
       apply_with_radius="true"
       only_selected="false"
       hide_knots="false"
       satellites_param="F,0,0,1,0,0,0,1 @ F,0,0,1,0,0,0,1 @ F,0,0,1,0,0,0,1 @ F,0,0,1,0,0,0,1 @ F,0,0,1,0,0,0,1 @ F,0,0,1,0,0,0,1 @ F,0,0,1,0,0,0,1 @ F,0,0,1,0,0,0,1" /><inkscape:path-effect
       effect="bspline"
       id="path-effect35040"
       is_visible="true"
       lpeversion="1"
       weight="33.333333"
       steps="2"
       helper_size="0"
       apply_no_weight="true"
       apply_with_weight="true"
       only_selected="false"
       uniform="false" /><inkscape:path-effect
       effect="bspline"
       id="path-effect34310"
       is_visible="true"
       lpeversion="1"
       weight="33.333333"
       steps="2"
       helper_size="0"
       apply_no_weight="true"
       apply_with_weight="true"
       only_selected="false"
       uniform="false" /><inkscape:path-effect
       effect="bspline"
       id="path-effect20365"
       is_visible="true"
       lpeversion="1"
       weight="33.333333"
       steps="2"
       helper_size="0"
       apply_no_weight="true"
       apply_with_weight="true"
       only_selected="false"
       uniform="false" /><inkscape:path-effect
       effect="bspline"
       id="path-effect20361"
       is_visible="true"
       lpeversion="1"
       weight="33.333333"
       steps="2"
       helper_size="0"
       apply_no_weight="true"
       apply_with_weight="true"
       only_selected="false"
       uniform="false" /><inkscape:perspective
       sodipodi:type="inkscape:persp3d"
       inkscape:vp_x="0 : -225.64123 : 1"
       inkscape:vp_y="0 : 999.99993 : 0"
       inkscape:vp_z="744.09449 : -225.64123 : 1"
       inkscape:persp3d-origin="372.04724 : -401.03491 : 1"
       id="perspective2669" /><inkscape:perspective
       sodipodi:type="inkscape:persp3d"
       inkscape:vp_x="0 : -731.82227 : 1"
       inkscape:vp_y="0 : 999.99993 : 0"
       inkscape:vp_z="40 : -731.82227 : 1"
       inkscape:persp3d-origin="20 : -738.48893 : 1"
       id="perspective18" /><inkscape:perspective
       sodipodi:type="inkscape:persp3d"
       inkscape:vp_x="0 : -225.64123 : 1"
       inkscape:vp_y="0 : 999.99993 : 0"
       inkscape:vp_z="744.09449 : -225.64123 : 1"
       inkscape:persp3d-origin="372.04724 : -401.03491 : 1"
       id="perspective2669-6" /><inkscape:perspective
       sodipodi:type="inkscape:persp3d"
       inkscape:vp_x="0 : -225.64123 : 1"
       inkscape:vp_y="0 : 999.99993 : 0"
       inkscape:vp_z="744.09449 : -225.64123 : 1"
       inkscape:persp3d-origin="372.04724 : -401.03491 : 1"
       id="perspective2669-2" /><inkscape:perspective
       sodipodi:type="inkscape:persp3d"
       inkscape:vp_x="0 : -225.64123 : 1"
       inkscape:vp_y="0 : 999.99993 : 0"
       inkscape:vp_z="744.09449 : -225.64123 : 1"
       inkscape:persp3d-origin="372.04724 : -401.03491 : 1"
       id="perspective2669-64" /><inkscape:path-effect
       effect="fillet_chamfer"
       id="path-effect1863-9"
       is_visible="true"
       lpeversion="1"
       nodesatellites_param="F,0,0,1,0,0,0,1 @ F,0,0,1,0,0,0,1 @ F,0,0,1,0,0,0,1 @ F,0,0,1,0,0,0,1 @ F,0,0,1,0,0,0,1 @ F,0,0,1,0,0,0,1 @ F,0,0,1,0,0,0,1 @ F,0,0,1,0,0,0,1"
       unit="px"
       method="auto"
       mode="F"
       radius="0"
       chamfer_steps="1"
       flexible="false"
       use_knot_distance="true"
       apply_no_radius="true"
       apply_with_radius="true"
       only_selected="false"
       hide_knots="false"
       satellites_param="F,0,0,1,0,0,0,1 @ F,0,0,1,0,0,0,1 @ F,0,0,1,0,0,0,1 @ F,0,0,1,0,0,0,1 @ F,0,0,1,0,0,0,1 @ F,0,0,1,0,0,0,1 @ F,0,0,1,0,0,0,1 @ F,0,0,1,0,0,0,1" /><inkscape:path-effect
       effect="bspline"
       id="path-effect35040-8"
       is_visible="true"
       lpeversion="1"
       weight="33.333333"
       steps="2"
       helper_size="0"
       apply_no_weight="true"
       apply_with_weight="true"
       only_selected="false"
       uniform="false" /><inkscape:path-effect
       effect="bspline"
       id="path-effect34310-6"
       is_visible="true"
       lpeversion="1"
       weight="33.333333"
       steps="2"
       helper_size="0"
       apply_no_weight="true"
       apply_with_weight="true"
       only_selected="false"
       uniform="false" /><inkscape:path-effect
       effect="bspline"
       id="path-effect20365-5"
       is_visible="true"
       lpeversion="1"
       weight="33.333333"
       steps="2"
       helper_size="0"
       apply_no_weight="true"
       apply_with_weight="true"
       only_selected="false"
       uniform="false" /><inkscape:path-effect
       effect="bspline"
       id="path-effect20361-0"
       is_visible="true"
       lpeversion="1"
       weight="33.333333"
       steps="2"
       helper_size="0"
       apply_no_weight="true"
       apply_with_weight="true"
       only_selected="false"
       uniform="false" /><inkscape:perspective
       sodipodi:type="inkscape:persp3d"
       inkscape:vp_x="0 : -225.64123 : 1"
       inkscape:vp_y="0 : 999.99993 : 0"
       inkscape:vp_z="744.09449 : -225.64123 : 1"
       inkscape:persp3d-origin="372.04724 : -401.03491 : 1"
       id="perspective2669-28" /><inkscape:perspective
       sodipodi:type="inkscape:persp3d"
       inkscape:vp_x="0 : -731.82227 : 1"
       inkscape:vp_y="0 : 999.99993 : 0"
       inkscape:vp_z="40 : -731.82227 : 1"
       inkscape:persp3d-origin="20 : -738.48893 : 1"
       id="perspective18-6" /><inkscape:perspective
       sodipodi:type="inkscape:persp3d"
       inkscape:vp_x="0 : -225.64123 : 1"
       inkscape:vp_y="0 : 999.99993 : 0"
       inkscape:vp_z="744.09449 : -225.64123 : 1"
       inkscape:persp3d-origin="372.04724 : -401.03491 : 1"
       id="perspective2669-6-0" /><inkscape:perspective
       sodipodi:type="inkscape:persp3d"
       inkscape:vp_x="0 : -225.64123 : 1"
       inkscape:vp_y="0 : 999.99993 : 0"
       inkscape:vp_z="744.09449 : -225.64123 : 1"
       inkscape:persp3d-origin="372.04724 : -401.03491 : 1"
       id="perspective2669-2-2" /><inkscape:perspective
       sodipodi:type="inkscape:persp3d"
       inkscape:vp_x="0 : -225.64123 : 1"
       inkscape:vp_y="0 : 999.99993 : 0"
       inkscape:vp_z="744.09449 : -225.64123 : 1"
       inkscape:persp3d-origin="372.04724 : -401.03491 : 1"
       id="perspective2669-64-4" /><rect
       x="-16.276962"
       y="-98.61924"
       width="131.17317"
       height="62.235443"
       id="rect9-0" /></defs><g
     inkscape:label="Layer 1"
     inkscape:groupmode="layer"
     id="layer1"><g
       id="g4"
       transform="matrix(1.0810836,0,0,1.0812289,-2.0816469,-2.5402846)"><path
         style="fill:#d96300;fill-opacity:1;stroke:none;stroke-width:1.5658;stroke-linecap:butt;stroke-linejoin:miter;stroke-miterlimit:4;stroke-dasharray:none;stroke-opacity:1"
         d="m 9.77242,10.196236 h 33.152 v 33.151999 h -33.152 z"
         id="path2-8" /><path
         style="fill:#404040;fill-opacity:1;stroke-width:0;stroke-linecap:round"
         d="m 2.90642,3.330236 v 46.985999 h 46.986 V 3.329236 Z m 7.927,7.927 h 31.132 v 31.131999 h -31.13 z"
         id="path3-2"
         sodipodi:nodetypes="cccccccccc" /><path
         style="fill:none;fill-opacity:1;stroke:none;stroke-width:1.96165;stroke-linecap:butt;stroke-linejoin:bevel;stroke-miterlimit:4;stroke-dasharray:none;stroke-opacity:1"
         d="m 9.77242,10.196236 h 33.152 v 33.151999 h -33.152 z"
         id="path4-4" /><path
         style="fill:#2e2e2e;fill-opacity:1;stroke:#1a1a1a;stroke-width:1.96165;stroke-linecap:butt;stroke-linejoin:miter;stroke-miterlimit:4;stroke-dasharray:none;stroke-opacity:1"
         d="m 10.83342,11.257236 h 31.132 v 31.131999 h -31.132 z"
         id="path7-55"
         sodipodi:nodetypes="ccccc" /><path
         style="fill:none;fill-opacity:1;stroke:#1a1a1a;stroke-width:1.96165;stroke-linecap:round;stroke-linejoin:round;stroke-miterlimit:4;stroke-dasharray:none;stroke-opacity:1"
         d="m 2.90642,3.330236 h 46.986 v 46.985999 h -46.986 z"
         id="path8-1"
         sodipodi:nodetypes="ccccc" /><path
         style="fill:none;stroke:#1a1a1a;stroke-width:1.96165;stroke-linecap:butt;stroke-linejoin:miter;stroke-miterlimit:4;stroke-dasharray:none;stroke-opacity:1"
         d="m 41.96542,11.257236 h 7.846 m -7.846,31.131999 h 7.846 m -46.824,0 h 7.846 m -7.846,-31.131999 h 7.846"
         id="path9-71"
         sodipodi:nodetypes="cccccccc" /><path
         style="fill:#323232;fill-opacity:1;fill-rule:nonzero;stroke:#1a1a1a;stroke-width:1.65407;stroke-linejoin:round;stroke-dasharray:none;stroke-opacity:1"
         d="m 35.848673,17.809542 c -1.247512,16.41123 -5.451957,17.844104 -9.444152,20.502184 -3.993261,-2.589571 -8.198718,-4.069015 -9.454353,-20.476896 3.299428,-0.218972 6.638347,-0.360127 9.448674,-2.50109 2.811553,2.086998 6.150302,2.265659 9.449831,2.475802 z"
         id="path109207-3-1"
         sodipodi:nodetypes="ccccc" /><path
         id="path109209-5-5"
         style="fill:#1a1a1a;fill-opacity:1;fill-rule:nonzero;stroke:none;stroke-width:1.79615e-08;stroke-linejoin:round;stroke-dasharray:none;stroke-opacity:1"
         d="m 22.673699,17.194953 0.001,5.017295 -5.650326,0.0071 4e-4,1.772038 5.650336,-0.0071 0.003,12.468135 1.63752,-0.0019 -0.003,-12.468135 11.46184,-0.01442 -4e-4,-1.772039 -11.46184,0.01442 -10e-4,-5.017298 z"
         sodipodi:nodetypes="ccccccccccccc" /><path
         sodipodi:type="star"
         style="fill:#666666;fill-opacity:1;fill-rule:evenodd;stroke:#1a1a1a;stroke-width:2.23759;stroke-linecap:round;stroke-linejoin:round;stroke-miterlimit:29;stroke-dasharray:none;stroke-opacity:1"
         id="path5-27"
         inkscape:flatsided="false"
         sodipodi:sides="6"
         sodipodi:cx="38.645"
         sodipodi:cy="-9.1070747"
         sodipodi:r1="3.5019555"
         sodipodi:r2="3.9347813"
         sodipodi:arg1="1.0471976"
         sodipodi:arg2="1.5707963"
         inkscape:rounded="0.14"
         inkscape:randomized="0"
         d="m 40.395978,-6.0742922 c -0.238807,0.1378755 -1.475226,0.9019988 -1.750977,0.9019988 -0.275752,0 -1.512171,-0.7641234 -1.750978,-0.901999 -0.238808,-0.1378755 -1.518768,-0.8265841 -1.656643,-1.0653916 -0.137876,-0.2388075 -0.09434,-1.6916397 -0.09434,-1.9673909 0,-0.2757511 -0.04354,-1.7285831 0.09434,-1.9673901 0.137875,-0.238808 1.417835,-0.927517 1.656643,-1.065392 0.238807,-0.137876 1.475226,-0.901999 1.750977,-0.901999 0.275752,0 1.512171,0.764123 1.750978,0.901999 0.238808,0.137875 1.518767,0.826584 1.656643,1.065392 0.137876,0.238807 0.09434,1.6916393 0.09434,1.9673904 0,0.2757511 0.04354,1.728583 -0.09434,1.9673904 -0.137876,0.2388075 -1.417835,0.9275164 -1.656643,1.065392 z"
         transform="matrix(0.46387822,0.26782021,-0.26782021,0.46387822,-13.507371,1.1175979)" /><path
         sodipodi:type="star"
         style="fill:#666666;fill-opacity:1;fill-rule:evenodd;stroke:#1a1a1a;stroke-width:2.23759;stroke-linecap:round;stroke-linejoin:round;stroke-miterlimit:29;stroke-dasharray:none;stroke-opacity:1"
         id="path5-27-6"
         inkscape:flatsided="false"
         sodipodi:sides="6"
         sodipodi:cx="38.645"
         sodipodi:cy="-9.1070747"
         sodipodi:r1="3.5019555"
         sodipodi:r2="3.9347813"
         sodipodi:arg1="1.0471976"
         sodipodi:arg2="1.5707963"
         inkscape:rounded="0.14"
         inkscape:randomized="0"
         d="m 40.395978,-6.0742922 c -0.238807,0.1378755 -1.475226,0.9019988 -1.750977,0.9019988 -0.275752,0 -1.512171,-0.7641234 -1.750978,-0.901999 -0.238808,-0.1378755 -1.518768,-0.8265841 -1.656643,-1.0653916 -0.137876,-0.2388075 -0.09434,-1.6916397 -0.09434,-1.9673909 0,-0.2757511 -0.04354,-1.7285831 0.09434,-1.9673901 0.137875,-0.238808 1.417835,-0.927517 1.656643,-1.065392 0.238807,-0.137876 1.475226,-0.901999 1.750977,-0.901999 0.275752,0 1.512171,0.764123 1.750978,0.901999 0.238808,0.137875 1.518767,0.826584 1.656643,1.065392 0.137876,0.238807 0.09434,1.6916393 0.09434,1.9673904 0,0.2757511 0.04354,1.728583 -0.09434,1.9673904 -0.137876,0.2388075 -1.417835,0.9275164 -1.656643,1.065392 z"
         transform="matrix(0.46387822,0.26782021,-0.26782021,0.46387822,-0.48486932,1.1175979)" /><path
         sodipodi:type="star"
         style="fill:#666666;fill-opacity:1;fill-rule:evenodd;stroke:#1a1a1a;stroke-width:2.23759;stroke-linecap:round;stroke-linejoin:round;stroke-miterlimit:29;stroke-dasharray:none;stroke-opacity:1"
         id="path5-27-4"
         inkscape:flatsided="false"
         sodipodi:sides="6"
         sodipodi:cx="38.645"
         sodipodi:cy="-9.1070747"
         sodipodi:r1="3.5019555"
         sodipodi:r2="3.9347813"
         sodipodi:arg1="1.0471976"
         sodipodi:arg2="1.5707963"
         inkscape:rounded="0.14"
         inkscape:randomized="0"
         d="m 40.395978,-6.0742922 c -0.238807,0.1378755 -1.475226,0.9019988 -1.750977,0.9019988 -0.275752,0 -1.512171,-0.7641234 -1.750978,-0.901999 -0.238808,-0.1378755 -1.518768,-0.8265841 -1.656643,-1.0653916 -0.137876,-0.2388075 -0.09434,-1.6916397 -0.09434,-1.9673909 0,-0.2757511 -0.04354,-1.7285831 0.09434,-1.9673901 0.137875,-0.238808 1.417835,-0.927517 1.656643,-1.065392 0.238807,-0.137876 1.475226,-0.901999 1.750977,-0.901999 0.275752,0 1.512171,0.764123 1.750978,0.901999 0.238808,0.137875 1.518767,0.826584 1.656643,1.065392 0.137876,0.238807 0.09434,1.6916393 0.09434,1.9673904 0,0.2757511 0.04354,1.728583 -0.09434,1.9673904 -0.137876,0.2388075 -1.417835,0.9275164 -1.656643,1.065392 z"
         transform="matrix(0.46387822,0.26782021,-0.26782021,0.46387822,12.537632,1.1175979)" /><path
         sodipodi:type="star"
         style="fill:#666666;fill-opacity:1;fill-rule:evenodd;stroke:#1a1a1a;stroke-width:2.23759;stroke-linecap:round;stroke-linejoin:round;stroke-miterlimit:29;stroke-dasharray:none;stroke-opacity:1"
         id="path5-27-1-5"
         inkscape:flatsided="false"
         sodipodi:sides="6"
         sodipodi:cx="38.645"
         sodipodi:cy="-9.1070747"
         sodipodi:r1="3.5019555"
         sodipodi:r2="3.9347813"
         sodipodi:arg1="1.0471976"
         sodipodi:arg2="1.5707963"
         inkscape:rounded="0.14"
         inkscape:randomized="0"
         d="m 40.395978,-6.0742922 c -0.238807,0.1378755 -1.475226,0.9019988 -1.750977,0.9019988 -0.275752,0 -1.512171,-0.7641234 -1.750978,-0.901999 -0.238808,-0.1378755 -1.518768,-0.8265841 -1.656643,-1.0653916 -0.137876,-0.2388075 -0.09434,-1.6916397 -0.09434,-1.9673909 0,-0.2757511 -0.04354,-1.7285831 0.09434,-1.9673901 0.137875,-0.238808 1.417835,-0.927517 1.656643,-1.065392 0.238807,-0.137876 1.475226,-0.901999 1.750977,-0.901999 0.275752,0 1.512171,0.764123 1.750978,0.901999 0.238808,0.137875 1.518767,0.826584 1.656643,1.065392 0.137876,0.238807 0.09434,1.6916393 0.09434,1.9673904 0,0.2757511 0.04354,1.728583 -0.09434,1.9673904 -0.137876,0.2388075 -1.417835,0.9275164 -1.656643,1.065392 z"
         transform="matrix(0.46387822,0.26782021,-0.26782021,0.46387822,-0.48486932,40.317247)" /><path
         sodipodi:type="star"
         style="fill:#666666;fill-opacity:1;fill-rule:evenodd;stroke:#1a1a1a;stroke-width:2.23759;stroke-linecap:round;stroke-linejoin:round;stroke-miterlimit:29;stroke-dasharray:none;stroke-opacity:1"
         id="path5-27-3-5"
         inkscape:flatsided="false"
         sodipodi:sides="6"
         sodipodi:cx="38.645"
         sodipodi:cy="-9.1070747"
         sodipodi:r1="3.5019555"
         sodipodi:r2="3.9347813"
         sodipodi:arg1="1.0471976"
         sodipodi:arg2="1.5707963"
         inkscape:rounded="0.14"
         inkscape:randomized="0"
         d="m 40.395978,-6.0742922 c -0.238807,0.1378755 -1.475226,0.9019988 -1.750977,0.9019988 -0.275752,0 -1.512171,-0.7641234 -1.750978,-0.901999 -0.238808,-0.1378755 -1.518768,-0.8265841 -1.656643,-1.0653916 -0.137876,-0.2388075 -0.09434,-1.6916397 -0.09434,-1.9673909 0,-0.2757511 -0.04354,-1.7285831 0.09434,-1.9673901 0.137875,-0.238808 1.417835,-0.927517 1.656643,-1.065392 0.238807,-0.137876 1.475226,-0.901999 1.750977,-0.901999 0.275752,0 1.512171,0.764123 1.750978,0.901999 0.238808,0.137875 1.518767,0.826584 1.656643,1.065392 0.137876,0.238807 0.09434,1.6916393 0.09434,1.9673904 0,0.2757511 0.04354,1.728583 -0.09434,1.9673904 -0.137876,0.2388075 -1.417835,0.9275164 -1.656643,1.065392 z"
         transform="matrix(0.46387822,0.26782021,-0.26782021,0.46387822,12.537632,40.317247)" /><g
         id="g2"
         transform="translate(0,-3.0237129)"><path
           sodipodi:type="star"
           style="fill:#666666;fill-opacity:1;fill-rule:evenodd;stroke:#1a1a1a;stroke-width:2.23759;stroke-linecap:round;stroke-linejoin:round;stroke-miterlimit:29;stroke-dasharray:none;stroke-opacity:1"
           id="path5-27-1-3"
           inkscape:flatsided="false"
           sodipodi:sides="6"
           sodipodi:cx="38.645"
           sodipodi:cy="-9.1070747"
           sodipodi:r1="3.5019555"
           sodipodi:r2="3.9347813"
           sodipodi:arg1="1.0471976"
           sodipodi:arg2="1.5707963"
           inkscape:rounded="0.14"
           inkscape:randomized="0"
           d="m 40.395978,-6.0742922 c -0.238807,0.1378755 -1.475226,0.9019988 -1.750977,0.9019988 -0.275752,0 -1.512171,-0.7641234 -1.750978,-0.901999 -0.238808,-0.1378755 -1.518768,-0.8265841 -1.656643,-1.0653916 -0.137876,-0.2388075 -0.09434,-1.6916397 -0.09434,-1.9673909 0,-0.2757511 -0.04354,-1.7285831 0.09434,-1.9673901 0.137875,-0.238808 1.417835,-0.927517 1.656643,-1.065392 0.238807,-0.137876 1.475226,-0.901999 1.750977,-0.901999 0.275752,0 1.512171,0.764123 1.750978,0.901999 0.238808,0.137875 1.518767,0.826584 1.656643,1.065392 0.137876,0.238807 0.09434,1.6916393 0.09434,1.9673904 0,0.2757511 0.04354,1.728583 -0.09434,1.9673904 -0.137876,0.2388075 -1.417835,0.9275164 -1.656643,1.065392 z"
           transform="matrix(-0.26782021,0.46387822,-0.46387822,-0.26782021,52.051105,3.4338904)" /><path
           sodipodi:type="star"
           style="fill:#666666;fill-opacity:1;fill-rule:evenodd;stroke:#1a1a1a;stroke-width:2.23759;stroke-linecap:round;stroke-linejoin:round;stroke-miterlimit:29;stroke-dasharray:none;stroke-opacity:1"
           id="path5-27-4-4"
           inkscape:flatsided="false"
           sodipodi:sides="6"
           sodipodi:cx="38.645"
           sodipodi:cy="-9.1070747"
           sodipodi:r1="3.5019555"
           sodipodi:r2="3.9347813"
           sodipodi:arg1="1.0471976"
           sodipodi:arg2="1.5707963"
           inkscape:rounded="0.14"
           inkscape:randomized="0"
           d="m 40.395978,-6.0742922 c -0.238807,0.1378755 -1.475226,0.9019988 -1.750977,0.9019988 -0.275752,0 -1.512171,-0.7641234 -1.750978,-0.901999 -0.238808,-0.1378755 -1.518768,-0.8265841 -1.656643,-1.0653916 -0.137876,-0.2388075 -0.09434,-1.6916397 -0.09434,-1.9673909 0,-0.2757511 -0.04354,-1.7285831 0.09434,-1.9673901 0.137875,-0.238808 1.417835,-0.927517 1.656643,-1.065392 0.238807,-0.137876 1.475226,-0.901999 1.750977,-0.901999 0.275752,0 1.512171,0.764123 1.750978,0.901999 0.238808,0.137875 1.518767,0.826584 1.656643,1.065392 0.137876,0.238807 0.09434,1.6916393 0.09434,1.9673904 0,0.2757511 0.04354,1.728583 -0.09434,1.9673904 -0.137876,0.2388075 -1.417835,0.9275164 -1.656643,1.065392 z"
           transform="matrix(-0.26782021,0.46387822,-0.46387822,-0.26782021,52.051105,15.528741)" /></g><g
         id="g3"
         transform="translate(0,3.0232124)"><path
           sodipodi:type="star"
           style="fill:#666666;fill-opacity:1;fill-rule:evenodd;stroke:#1a1a1a;stroke-width:2.23759;stroke-linecap:round;stroke-linejoin:round;stroke-miterlimit:29;stroke-dasharray:none;stroke-opacity:1"
           id="path5-27-1-3-7"
           inkscape:flatsided="false"
           sodipodi:sides="6"
           sodipodi:cx="38.645"
           sodipodi:cy="-9.1070747"
           sodipodi:r1="3.5019555"
           sodipodi:r2="3.9347813"
           sodipodi:arg1="1.0471976"
           sodipodi:arg2="1.5707963"
           inkscape:rounded="0.14"
           inkscape:randomized="0"
           d="m 40.395978,-6.0742922 c -0.238807,0.1378755 -1.475226,0.9019988 -1.750977,0.9019988 -0.275752,0 -1.512171,-0.7641234 -1.750978,-0.901999 -0.238808,-0.1378755 -1.518768,-0.8265841 -1.656643,-1.0653916 -0.137876,-0.2388075 -0.09434,-1.6916397 -0.09434,-1.9673909 0,-0.2757511 -0.04354,-1.7285831 0.09434,-1.9673901 0.137875,-0.238808 1.417835,-0.927517 1.656643,-1.065392 0.238807,-0.137876 1.475226,-0.901999 1.750977,-0.901999 0.275752,0 1.512171,0.764123 1.750978,0.901999 0.238808,0.137875 1.518767,0.826584 1.656643,1.065392 0.137876,0.238807 0.09434,1.6916393 0.09434,1.9673904 0,0.2757511 0.04354,1.728583 -0.09434,1.9673904 -0.137876,0.2388075 -1.417835,0.9275164 -1.656643,1.065392 z"
           transform="matrix(-0.26782021,0.46387822,-0.46387822,-0.26782021,12.9836,-2.6135349)" /><path
           sodipodi:type="star"
           style="fill:#666666;fill-opacity:1;fill-rule:evenodd;stroke:#1a1a1a;stroke-width:2.23759;stroke-linecap:round;stroke-linejoin:round;stroke-miterlimit:29;stroke-dasharray:none;stroke-opacity:1"
           id="path5-27-4-4-2"
           inkscape:flatsided="false"
           sodipodi:sides="6"
           sodipodi:cx="38.645"
           sodipodi:cy="-9.1070747"
           sodipodi:r1="3.5019555"
           sodipodi:r2="3.9347813"
           sodipodi:arg1="1.0471976"
           sodipodi:arg2="1.5707963"
           inkscape:rounded="0.14"
           inkscape:randomized="0"
           d="m 40.395978,-6.0742922 c -0.238807,0.1378755 -1.475226,0.9019988 -1.750977,0.9019988 -0.275752,0 -1.512171,-0.7641234 -1.750978,-0.901999 -0.238808,-0.1378755 -1.518768,-0.8265841 -1.656643,-1.0653916 -0.137876,-0.2388075 -0.09434,-1.6916397 -0.09434,-1.9673909 0,-0.2757511 -0.04354,-1.7285831 0.09434,-1.9673901 0.137875,-0.238808 1.417835,-0.927517 1.656643,-1.065392 0.238807,-0.137876 1.475226,-0.901999 1.750977,-0.901999 0.275752,0 1.512171,0.764123 1.750978,0.901999 0.238808,0.137875 1.518767,0.826584 1.656643,1.065392 0.137876,0.238807 0.09434,1.6916393 0.09434,1.9673904 0,0.2757511 0.04354,1.728583 -0.09434,1.9673904 -0.137876,0.2388075 -1.417835,0.9275164 -1.656643,1.065392 z"
           transform="matrix(-0.26782021,0.46387822,-0.46387822,-0.26782021,12.9836,9.4813157)" /></g><path
         sodipodi:type="star"
         style="fill:#666666;fill-opacity:1;fill-rule:evenodd;stroke:#1a1a1a;stroke-width:2.23759;stroke-linecap:round;stroke-linejoin:round;stroke-miterlimit:29;stroke-dasharray:none;stroke-opacity:1"
         id="path5-2-6"
         inkscape:flatsided="false"
         sodipodi:sides="6"
         sodipodi:cx="38.645"
         sodipodi:cy="-9.1070747"
         sodipodi:r1="3.5019555"
         sodipodi:r2="3.9347813"
         sodipodi:arg1="1.0471976"
         sodipodi:arg2="1.5707963"
         inkscape:rounded="0.14"
         inkscape:randomized="0"
         d="m 40.395978,-6.0742922 c -0.238807,0.1378755 -1.475226,0.9019988 -1.750977,0.9019988 -0.275752,0 -1.512171,-0.7641234 -1.750978,-0.901999 -0.238808,-0.1378755 -1.518768,-0.8265841 -1.656643,-1.0653916 -0.137876,-0.2388075 -0.09434,-1.6916397 -0.09434,-1.9673909 0,-0.2757511 -0.04354,-1.7285831 0.09434,-1.9673901 0.137875,-0.238808 1.417835,-0.927517 1.656643,-1.065392 0.238807,-0.137876 1.475226,-0.901999 1.750977,-0.901999 0.275752,0 1.512171,0.764123 1.750978,0.901999 0.238808,0.137875 1.518767,0.826584 1.656643,1.065392 0.137876,0.238807 0.09434,1.6916393 0.09434,1.9673904 0,0.2757511 0.04354,1.728583 -0.09434,1.9673904 -0.137876,0.2388075 -1.417835,0.9275164 -1.656643,1.065392 z"
         transform="matrix(0.46387822,0.26782021,-0.26782021,0.46387822,25.560134,1.1175979)" /><path
         sodipodi:type="star"
         style="fill:#666666;fill-opacity:1;fill-rule:evenodd;stroke:#1a1a1a;stroke-width:2.23759;stroke-linecap:round;stroke-linejoin:round;stroke-miterlimit:29;stroke-dasharray:none;stroke-opacity:1"
         id="path5-1-1"
         inkscape:flatsided="false"
         sodipodi:sides="6"
         sodipodi:cx="38.645"
         sodipodi:cy="-9.1070747"
         sodipodi:r1="3.5019555"
         sodipodi:r2="3.9347813"
         sodipodi:arg1="1.0471976"
         sodipodi:arg2="1.5707963"
         inkscape:rounded="0.14"
         inkscape:randomized="0"
         d="m 40.395978,-6.0742922 c -0.238807,0.1378755 -1.475226,0.9019988 -1.750977,0.9019988 -0.275752,0 -1.512171,-0.7641234 -1.750978,-0.901999 -0.238808,-0.1378755 -1.518768,-0.8265841 -1.656643,-1.0653916 -0.137876,-0.2388075 -0.09434,-1.6916397 -0.09434,-1.9673909 0,-0.2757511 -0.04354,-1.7285831 0.09434,-1.9673901 0.137875,-0.238808 1.417835,-0.927517 1.656643,-1.065392 0.238807,-0.137876 1.475226,-0.901999 1.750977,-0.901999 0.275752,0 1.512171,0.764123 1.750978,0.901999 0.238808,0.137875 1.518767,0.826584 1.656643,1.065392 0.137876,0.238807 0.09434,1.6916393 0.09434,1.9673904 0,0.2757511 0.04354,1.728583 -0.09434,1.9673904 -0.137876,0.2388075 -1.417835,0.9275164 -1.656643,1.065392 z"
         transform="matrix(0.46387822,0.26782021,-0.26782021,0.46387822,-13.507371,40.317247)" /><path
         sodipodi:type="star"
         style="fill:#666666;fill-opacity:1;fill-rule:evenodd;stroke:#1a1a1a;stroke-width:2.23759;stroke-linecap:round;stroke-linejoin:round;stroke-miterlimit:29;stroke-dasharray:none;stroke-opacity:1"
         id="path5-7-4"
         inkscape:flatsided="false"
         sodipodi:sides="6"
         sodipodi:cx="38.645"
         sodipodi:cy="-9.1070747"
         sodipodi:r1="3.5019555"
         sodipodi:r2="3.9347813"
         sodipodi:arg1="1.0471976"
         sodipodi:arg2="1.5707963"
         inkscape:rounded="0.14"
         inkscape:randomized="0"
         d="m 40.395978,-6.0742922 c -0.238807,0.1378755 -1.475226,0.9019988 -1.750977,0.9019988 -0.275752,0 -1.512171,-0.7641234 -1.750978,-0.901999 -0.238808,-0.1378755 -1.518768,-0.8265841 -1.656643,-1.0653916 -0.137876,-0.2388075 -0.09434,-1.6916397 -0.09434,-1.9673909 0,-0.2757511 -0.04354,-1.7285831 0.09434,-1.9673901 0.137875,-0.238808 1.417835,-0.927517 1.656643,-1.065392 0.238807,-0.137876 1.475226,-0.901999 1.750977,-0.901999 0.275752,0 1.512171,0.764123 1.750978,0.901999 0.238808,0.137875 1.518767,0.826584 1.656643,1.065392 0.137876,0.238807 0.09434,1.6916393 0.09434,1.9673904 0,0.2757511 0.04354,1.728583 -0.09434,1.9673904 -0.137876,0.2388075 -1.417835,0.9275164 -1.656643,1.065392 z"
         transform="matrix(0.46387822,0.26782021,-0.26782021,0.46387822,25.560134,40.317247)" /><path
         style="fill:#000000;fill-opacity:0.2;fill-rule:evenodd;stroke:none;stroke-width:1.05833;stroke-linecap:round;stroke-linejoin:round;stroke-miterlimit:29;stroke-dasharray:none;stroke-opacity:1"
         d="m 34.975219,18.560676 c 0,0 -3.540334,23.642865 -14.375299,12.8079 0,0 0.918049,3.336325 5.776989,5.933732 6.782274,-3.633763 7.523521,-9.729239 8.59831,-18.741632 z"
         id="path6"
         sodipodi:nodetypes="cccc" /></g></g></svg>
