<svg xmlns="http://www.w3.org/2000/svg" width="153.385" height="156.965" viewBox="0 0 40.583 41.53"><path d="m2053.22 3461.632-24.922-25.373a2.7 2.7 0 0 1 .034-3.83l3.058-3.003a2.7 2.7 0 0 1 3.829.034l24.922 25.374a2.7 2.7 0 0 1-.034 3.829l-3.058 3.003a2.7 2.7 0 0 1-3.829-.034" style="fill:#6d4a2c;fill-opacity:1;fill-rule:evenodd;stroke:#21150c;stroke-width:2.11667;stroke-linecap:round;stroke-linejoin:round;stroke-opacity:1" transform="rotate(-15.99 -11152.633 8939.363)"/><path d="M2044.65 3446.617c-.112-1.985.253-3.134 1.674-4.109.937-.641 1.61.111 2.648.955 1.355 1.1 2.048 2.047 3.393 3.377.792.778 2.685 1.981 3.138 3.018.8 1.83-1.649 2.477-2.075 2.843-.675.58-.89.478-1.869.064-.8-.339-1.624-.42-2.158-1.058-.522-.622-1.217-2.45-1.858-2.839-.697-.422-2.84-1.33-2.892-2.252z" style="fill:#38451e;fill-opacity:1;stroke:#273116;stroke-width:.729;stroke-linecap:square;stroke-linejoin:round;stroke-dasharray:none;stroke-opacity:1;paint-order:fill markers stroke;stop-color:#000" transform="rotate(-15.99 -11152.633 8939.363)"/><path fill="#f06" d="M3201.066 2289.269c.444 1.03.247.738-.48 1.26-.734.513-2.193.056-3.102-.548-.908-.618-1.251-1.384-2.266-2.018-1.006-.64-2.67-1.145-3.16-2.107-.489-.976.202-2.399 1.289-3.253 1.094-.846 1.672-.164 2.394.634.827.768 2.12 2.32 2.932 3.156.849.831 1.961 1.85 2.393 2.876z" style="fill:#38451e;fill-opacity:1;stroke:#2c3719;stroke-width:.729;stroke-dasharray:none;stroke-opacity:1" transform="rotate(164.01 1762.097 929.265)"/><path d="m2053.22 3461.632-24.922-25.373a2.7 2.7 0 0 1 .034-3.83l3.058-3.003a2.7 2.7 0 0 1 3.829.034l24.922 25.374a2.7 2.7 0 0 1-.034 3.829l-3.058 3.003a2.7 2.7 0 0 1-3.829-.034" style="fill:#6d4a2c;fill-opacity:1;fill-rule:evenodd;stroke:#21150c;stroke-width:2.11667;stroke-linecap:round;stroke-linejoin:round;stroke-opacity:1" transform="rotate(19.279 11113.686 -4226.761)"/><path d="M2044.65 3446.617c-.112-1.985.253-3.134 1.674-4.109.937-.641 1.61.111 2.648.955 1.355 1.1 2.048 2.047 3.393 3.377.792.778 2.685 1.981 3.138 3.018.8 1.83-1.649 2.477-2.075 2.843-.675.58-.89.478-1.869.064-.8-.339-1.624-.42-2.158-1.058-.522-.622-1.217-2.45-1.858-2.839-.697-.422-2.84-1.33-2.892-2.252z" style="fill:#38451e;fill-opacity:1;stroke:#273116;stroke-width:.729;stroke-linecap:square;stroke-linejoin:round;stroke-dasharray:none;stroke-opacity:1;paint-order:fill markers stroke;stop-color:#000" transform="rotate(19.279 11113.686 -4226.761)"/><path fill="#f06" d="M3201.066 2289.269c.444 1.03.247.738-.48 1.26-.734.513-2.193.056-3.102-.548-.908-.618-1.251-1.384-2.266-2.018-1.006-.64-2.67-1.145-3.16-2.107-.489-.976.202-2.399 1.289-3.253 1.094-.846 1.672-.164 2.394.634.827.768 2.12 2.32 2.932 3.156.849.831 1.961 1.85 2.393 2.876z" style="fill:#38451e;fill-opacity:1;stroke:#2c3719;stroke-width:.729;stroke-dasharray:none;stroke-opacity:1" transform="rotate(-160.721 1411.322 1419.58)"/></svg>