<svg xmlns="http://www.w3.org/2000/svg" width="320.277" height="105.751" viewBox="0 0 84.74 27.98"><path d="M1.5 1.5v24.98h81.74V1.5Z" style="fill:#603b26;fill-opacity:1;stroke:#311e14;stroke-width:3;stroke-dasharray:none;stroke-opacity:1"/><g fill="#7e5925" style="stroke-linecap:round"><path stroke="#2d2110" stroke-width="1.5" d="m45.22 16.654.005-5.423-38.274-.033-.005 5.423Z"/><path stroke="#251b0e" stroke-width="1.3" d="m9.212 19.886.01-11.95-2.707-.002-.01 11.95zm12.114.01.01-11.95-2.707-.002-.01 11.95zm12.115.01.01-11.95-2.708-.001-.01 11.95zm12.114.012.01-11.95-2.707-.003-.01 11.95z"/></g><g fill-rule="evenodd" stroke-width="1.058" style="stroke-linecap:round;stroke-linejoin:round" transform="scale(.99982 -.99982) rotate(89.95 161.11 -900.883)"><path fill="#286c23" fill-opacity=".75" stroke="#0f280d" d="M1040.167-779.138h6.785l5.445 1.61v1.61l-5.445 1.609h-6.785z"/><path fill="#b4a959" stroke="#232110" d="M1042.668-779.138h2.172v4.829h-2.172zm6.414 4.224 3.306-.886.08.7h2.745v-3.142h-2.744v.7l-3.387-.99z"/><circle cx="1048.798" cy="-776.723" r="1.015" fill="#892323" stroke="#290a0a"/></g><g fill-rule="evenodd" style="stroke-linecap:round;stroke-linejoin:round" transform="scale(.99982 -.99982) rotate(89.95 153.127 -909.051)"><g stroke-width="1.058"><path fill="#692516" fill-opacity=".75" stroke="#2a0f09" d="M1040.434-771.562h8.041c.583 1.648 1.555 2.066 3.175 2.066v1.466c-1.625 0-2.474.541-3.175 2.066h-8.04z"/><path fill="#333" stroke="#1a1a1a" d="M1042.123-771.562h5.063v5.598h-5.063z"/><path fill="#323232" stroke="#1a1a1a" d="M1050.634-769.832c1.46 0 2.257.151 3.385.529v1.08c-1.195.308-2.008.529-3.385.529z"/><path fill="#323232" stroke="#1a1a1a" d="M1053.433-769.915h1.898v2.304h-1.898z"/></g><path fill="#333" stroke="#b2b2b2" stroke-width=".529" d="M1043.138-770.447v3.368m.856-3.368v3.368"/><ellipse cx="1045.546" cy="-768.763" fill="#333" stroke="#b2b2b2" stroke-width=".529" rx=".629" ry="1.281"/></g><g fill-rule="evenodd" style="stroke-linecap:round;stroke-linejoin:round"><path fill="#875412" fill-opacity=".75" stroke="#2d1c06" stroke-width="1.058" d="m28.393 22.465.006-7.196-1.69-7.41h-1.695l-1.702 7.405-.006 7.197z"/><path fill="#2f6a2f" stroke="#102310" stroke-width="1.058" d="m27.431 11.012.002-2.874c.184-.4.183-.85.001-1.262l.001-.972-3.122-.002-.001.97c-.206.38-.197.82-.001 1.263l-.003 2.874z"/><g fill="#a5a5a5"><path stroke="#1a1a1a" stroke-width=".529" d="m27.689 11.287.002-1.888-3.652-.004-.001 1.889z"/><path stroke="#666" stroke-width=".397" d="m25.929 10.02 1.198.002m-.001.598-2.438-.002"/></g><path fill="#2f6a2f" stroke="#102310" stroke-width="1.058" d="m28.396 18.608.002-2.483-5.09 2.6-.001 2.483z"/></g><g fill="#7e5925" style="stroke-linecap:round"><path stroke="#2d2110" stroke-width="1.5" d="m77.93 16.425.005-5.423-26.058-.023-.005 5.423z"/><path stroke="#251b0e" stroke-width="1.3" d="m54.138 19.668.01-11.95-2.707-.002-.01 11.95zm12.113.01.01-11.95-2.707-.002-.01 11.95zm12.115.01.01-11.95-2.707-.001-.01 11.95z"/></g><g fill-rule="evenodd" style="stroke-linecap:round;stroke-linejoin:round" transform="scale(.99982 -.99982) rotate(89.95 175.485 -886.457)"><g stroke-width="1.058"><path fill="#692516" fill-opacity=".75" stroke="#2a0f09" d="M1040.434-771.562h8.041c.583 1.648 1.555 2.066 3.175 2.066v1.466c-1.625 0-2.474.541-3.175 2.066h-8.04z"/><path fill="#333" stroke="#1a1a1a" d="M1042.123-771.562h5.063v5.598h-5.063z"/><path fill="#323232" stroke="#1a1a1a" d="M1050.634-769.832c1.46 0 2.257.151 3.385.529v1.08c-1.195.308-2.008.529-3.385.529z"/><path fill="#323232" stroke="#1a1a1a" d="M1053.433-769.915h1.898v2.304h-1.898z"/></g><path fill="#333" stroke="#b2b2b2" stroke-width=".529" d="M1043.138-770.447v3.368m.856-3.368v3.368"/><ellipse cx="1045.546" cy="-768.763" fill="#333" stroke="#b2b2b2" stroke-width=".529" rx=".629" ry="1.281"/></g><g fill-rule="evenodd" style="stroke-linecap:round;stroke-linejoin:round"><path fill="#875412" fill-opacity=".75" stroke="#2d1c06" stroke-width="1.058" d="m73.319 22.247.006-7.196-1.69-7.41H69.94l-1.702 7.405-.007 7.196z"/><path fill="#2f6a2f" stroke="#102310" stroke-width="1.058" d="m72.356 10.793.003-2.874c.184-.4.183-.848 0-1.261l.002-.972-3.123-.003v.972c-.207.38-.197.82-.002 1.262l-.002 2.874z"/><g fill="#a5a5a5"><path stroke="#1a1a1a" stroke-width=".529" d="m72.615 11.069.001-1.89-3.651-.002-.002 1.889z"/><path stroke="#666" stroke-width=".397" d="M70.856 9.803h1.197m-.001.599-2.438-.002"/></g><path fill="#2f6a2f" stroke="#102310" stroke-width="1.058" d="m73.322 18.39.002-2.483-5.09 2.6-.002 2.483z"/></g></svg>