<svg xmlns="http://www.w3.org/2000/svg" xml:space="preserve" width="378.506" height="144.275" viewBox="0 0 100.146 38.173"><path d="M126.168 204.059a.972.972 0 0 0-.974-.975.972.972 0 0 0-.974.975v4.431h-8.67v-4.431a.972.972 0 0 0-.974-.975.972.972 0 0 0-.974.975v5.456c.024.517.41.924.888.924h10.788c.477 0 .864-.407.888-.924v-.05zm60.055 0a.972.972 0 0 0-.975-.975.972.972 0 0 0-.973.975v4.431h-8.67v-4.431a.972.972 0 0 0-.974-.975.972.972 0 0 0-.974.975v5.456c.024.517.41.924.888.924h10.788c.477 0 .864-.407.888-.924v-.05z" style="display:inline;fill:gray;fill-opacity:1;stroke:#2e2e2e;stroke-width:.926039;stroke-miterlimit:4;stroke-dasharray:none;stroke-opacity:1" transform="translate(-99.84 -172.73)"/><g transform="rotate(180 105.079 87.738) scale(1.51402)"><rect width="66.146" height="22.49" x="72.662" y="93.411" rx="2.3" ry="2.184" style="display:inline;fill:#172646;fill-opacity:1;stroke-width:.142823"/><rect width="62.177" height="18.521" x="74.646" y="95.395" rx=".964" ry=".864" style="display:inline;fill:#2f4b88;fill-opacity:1;stroke-width:.180231"/></g><g transform="rotate(-150 100.388 85.244) scale(1.51402)"><rect width="5.892" height="9.525" x="95.244" y="82.555" rx=".174" ry=".187" style="fill:none;fill-opacity:1;stroke:#0e272f;stroke-width:.925719;stroke-linecap:round;stroke-linejoin:round;stroke-miterlimit:4;stroke-dasharray:none;stroke-opacity:1"/><rect width="2.944" height="8.354" x="97.847" y="83.145" rx=".176" ry=".166" style="fill:#30839e;fill-opacity:1;stroke:#c8c8c8;stroke-width:.906619;stroke-linecap:round;stroke-linejoin:round;stroke-miterlimit:4;stroke-dasharray:none;stroke-opacity:1"/><rect width="5.892" height="9.525" x="94.572" y="82.555" rx=".175" ry=".175" style="fill:#30839e;fill-opacity:1;stroke:#13343f;stroke-width:.925719;stroke-linecap:round;stroke-linejoin:round;stroke-miterlimit:4;stroke-dasharray:none;stroke-opacity:1"/></g><path d="m33.062 10.888.443 1.653-23.085 6.185-.443-1.652z" style="fill:#862e2e;fill-opacity:1;stroke:#371313;stroke-width:1;stroke-linecap:square;stroke-miterlimit:5;stroke-dasharray:none;stroke-opacity:1"/><path d="m9.971 17.052.454 1.695s-1.578.447-2.365.84c-.787.394-2.235 1.525-2.235 1.525s.296-1.08.581-1.655c.284-.576.579-1.114 1.2-1.564.621-.449 2.365-.84 2.365-.84Zm25.979-6.938s1.468-.25 1.11-2.04c-.36-1.79-2.438-3.688-2.438-3.688 4.756.815 5.622 5.783 2.883 7.082l-4.141 1.11-.443-1.652z" style="fill:#5a5a5a;stroke:#252525;stroke-linecap:square;stroke-miterlimit:5"/><g style="stroke-width:6.0121;stroke-dasharray:none"><path d="M216.93 232.877c1.103 1.14 3.309 3.42 5.44 5.645 2.13 2.224 4.186 4.392 5.906 6.167a171.402 171.402 0 0 0 4.523 4.523c1.42 1.365 2.878 2.71 3.707 3.488.828.778 1.027.988 1.093 1.396.066.407-.001 1.012-.38 1.694-.38.682-1.072 1.441-2.359 2.714s-3.17 3.059-4.534 4.356c-1.364 1.296-2.209 2.103-2.915 2.694-.706.59-1.272.965-1.786 1.162-.514.197-.975.216-1.37.125-.393-.091-.72-.293-1.478-1.133-.76-.84-1.95-2.32-3.943-4.563s-4.788-5.249-8.117-8.774c-3.328-3.525-7.189-7.569-11.156-11.762a1318.5 1318.5 0 0 1-11.69-12.496 1014.54 1014.54 0 0 1-10.373-11.454 1520.18 1520.18 0 0 1-10.052-11.334c-2.79-3.19-4.605-5.331-7.27-8.414a786.14 786.14 0 0 0-9.02-10.268c-2.838-3.16-5-5.456-7.93-8.241-2.929-2.786-6.627-6.061-8.951-8.27-2.325-2.21-3.275-3.353-4.14-4.544a52.718 52.718 0 0 1-2.123-3.208c-.48-.778-.662-1.095-.514-1.513.15-.417.63-.936 2.19-2.425 1.561-1.489 4.203-3.948 5.71-5.25 1.509-1.3 1.883-1.445 2.22-1.353.336.09.633.417.95.763.317.346.654.711 1.139 1.11.485.398 1.119.83 1.695 1.296.576.466 1.095.966 1.806 1.763.71.797 1.613 1.892 2.468 2.93.855 1.037 1.662 2.016 2.546 3.068.883 1.052 1.844 2.176 3.006 3.569 1.162 1.392 2.526 3.054 3.736 4.432 1.21 1.379 2.267 2.474 3.348 3.602 1.08 1.129 2.185 2.291 3.583 3.67 1.397 1.378 3.088 2.972 4.884 4.672 1.796 1.7 3.698 3.506 6.378 6.028 2.68 2.521 6.137 5.758 8.952 8.5 2.814 2.742 4.985 4.99 7.27 7.247 2.287 2.257 4.688 4.524 7.574 7.415 2.887 2.892 6.258 6.407 9.159 9.447 2.9 3.04 5.33 5.605 6.872 7.256 1.54 1.652 2.192 2.391 2.518 2.76.326.37.326.37 1.429 1.51z" style="font-variation-settings:&quot;opsz&quot;32,&quot;wght&quot;700;fill:#9f6849;fill-opacity:1;stroke:#5e3d2a;stroke-width:6.0121;stroke-dasharray:none;stroke-opacity:1" transform="translate(34.396 -8.806) scale(.12674)"/><path d="M133.56 155.79c.758-.776 2.184-2.166 3.05-3.014.867-.849 1.174-1.156 1.228-1.417.054-.262-.144-.479-.767-1.12-.623-.64-1.67-1.706-2.42-2.5-.749-.794-1.2-1.318-1.344-2.076-.145-.758.018-1.751.56-2.627.54-.875 1.462-1.634 2.734-2.266 1.273-.631 2.898-1.137 4.496-1.543a40.743 40.743 0 0 1 4.748-.92 46.978 46.978 0 0 1 4.648-.362 50.655 50.655 0 0 1 4.098.036c1.246.063 2.365.172 3.385.262 1.02.09 1.94.162 2.51.009.568-.153.785-.533.803-.92.018-.389-.163-.786-.569-1.22-.406-.433-1.038-.902-2.356-1.507-1.318-.604-3.321-1.345-5.894-2.013a59.34 59.34 0 0 0-8.846-1.57c-3.132-.307-6.255-.325-8.602-.235-2.347.09-3.918.289-5.534.632a35.67 35.67 0 0 0-4.684 1.345c-1.408.514-2.564 1.056-3.936 1.977-1.372.92-2.96 2.22-4.477 3.475-1.517 1.255-2.96 2.464-4.18 3.484-1.218 1.02-2.21 1.85-2.86 2.69-.65.84-.958 1.688-1.22 2.555-.261.866-.478 1.75-.83 2.635-.352.885-.84 1.77-1.471 2.59-.632.822-1.408 1.58-2.148 2.258-.74.677-1.445 1.272-2.167 1.733-.722.46-1.462.785-1.995 1.092-.532.307-.857.596-1.814 1.498-.957.903-2.545 2.42-3.358 3.232-.812.812-.848.92-.875 1.21-.027.288-.046.757.018 1.128.063.37.207.64.695 1.245a36.029 36.029 0 0 0 2.31 2.546 60.734 60.734 0 0 0 2.997 2.807c.849.74 1.39 1.155 1.806 1.49.415.333.704.586 1.065.721a1.82 1.82 0 0 0 1.2.019c.406-.136.786-.425 1.264-.83a48.92 48.92 0 0 0 1.616-1.454 94.583 94.583 0 0 0 1.543-1.48c.443-.434.786-.777 1.02-1.11.235-.335.361-.66.443-1.066.08-.406.117-.893.315-1.561.2-.668.56-1.517 1.02-2.302a12.37 12.37 0 0 1 1.661-2.194 19.327 19.327 0 0 1 2.067-1.895c.705-.56 1.39-1.03 2.077-1.39a7.748 7.748 0 0 1 2.03-.75c.66-.135 1.291-.153 1.86.018.569.172 1.074.533 1.733 1.084.659.55 1.471 1.29 2.257 2.022.785.73 1.543 1.453 2.03 1.868.488.415.705.524 1.03.298.325-.226.758-.785 1.624-1.76.867-.975 2.167-2.365 2.862-3.141.695-.777.785-.94 1.543-1.716z" style="font-variation-settings:&quot;opsz&quot;32,&quot;wght&quot;700;fill:#5a5a5a;fill-opacity:1;stroke:#252525;stroke-width:6.0121;stroke-dasharray:none;stroke-opacity:1" transform="translate(34.396 -8.806) scale(.12674)"/></g><g style="stroke-width:1.0527" transform="matrix(0 .95006 -.94981 0 2837.676 -1461.346)"><circle cx="2262.46" cy="2383.182" r="1.137" style="fill:gray;fill-opacity:1;stroke:#2e2e2e;stroke-width:.723912;stroke-linecap:round;stroke-linejoin:round;stroke-opacity:1" transform="rotate(15.004) skewX(.008)"/><rect width="2.175" height=".327" x="2261.4" y="2382.996" rx=".187" ry=".186" style="fill:#2e2e2e;fill-opacity:1;fill-rule:evenodd;stroke:none;stroke-width:3.38307;stroke-linecap:round;stroke-dasharray:none;stroke-opacity:1;paint-order:stroke fill markers;stop-color:#000" transform="rotate(15.004) skewX(.008)"/><rect width="2.175" height=".327" x="2382.072" y="-2262.633" rx=".186" ry=".187" style="fill:#2e2e2e;fill-opacity:1;fill-rule:evenodd;stroke:none;stroke-width:3.38307;stroke-linecap:round;stroke-dasharray:none;stroke-opacity:1;paint-order:stroke fill markers;stop-color:#000" transform="rotate(104.996) skewX(-.008)"/><circle cx="743.486" cy="3188.842" r="1.137" style="fill:gray;fill-opacity:1;stroke:#2e2e2e;stroke-width:.723912;stroke-linecap:round;stroke-linejoin:round;stroke-opacity:1" transform="rotate(-15.004) skewX(-.008)"/><rect width="2.175" height=".327" x="742.426" y="3188.656" rx=".187" ry=".186" style="fill:#2e2e2e;fill-opacity:1;fill-rule:evenodd;stroke:none;stroke-width:3.38307;stroke-linecap:round;stroke-dasharray:none;stroke-opacity:1;paint-order:stroke fill markers;stop-color:#000" transform="rotate(-15.004) skewX(-.008)"/><rect width="2.175" height=".327" x="3187.732" y="-743.66" rx=".186" ry=".187" style="fill:#2e2e2e;fill-opacity:1;fill-rule:evenodd;stroke:none;stroke-width:3.38307;stroke-linecap:round;stroke-dasharray:none;stroke-opacity:1;paint-order:stroke fill markers;stop-color:#000" transform="rotate(75.004) skewX(.008)"/><circle cx="2827.783" cy="1811.115" r="1.137" style="fill:gray;fill-opacity:1;stroke:#2e2e2e;stroke-width:.723912;stroke-linecap:round;stroke-linejoin:round;stroke-opacity:1" transform="rotate(30.007) skewX(.013)"/><rect width="2.175" height=".327" x="2826.724" y="1810.929" rx=".187" ry=".186" style="fill:#2e2e2e;fill-opacity:1;fill-rule:evenodd;stroke:none;stroke-width:3.38307;stroke-linecap:round;stroke-dasharray:none;stroke-opacity:1;paint-order:stroke fill markers;stop-color:#000" transform="rotate(30.007) skewX(.013)"/><rect width="2.175" height=".327" x="1810.005" y="-2827.957" rx=".186" ry=".187" style="fill:#2e2e2e;fill-opacity:1;fill-rule:evenodd;stroke:none;stroke-width:3.38307;stroke-linecap:round;stroke-dasharray:none;stroke-opacity:1;paint-order:stroke fill markers;stop-color:#000" transform="rotate(119.993) skewX(-.013)"/><ellipse cx="-999.385" cy="3218.037" rx="1.138" ry="1.137" style="fill:gray;fill-opacity:1;stroke:#2e2e2e;stroke-width:.723912;stroke-linecap:round;stroke-linejoin:round;stroke-opacity:1" transform="rotate(-45.008)"/><rect width="2.175" height=".327" x="-1000.445" y="3217.851" rx=".187" ry=".186" style="fill:#2e2e2e;fill-opacity:1;fill-rule:evenodd;stroke:none;stroke-width:3.38307;stroke-linecap:round;stroke-dasharray:none;stroke-opacity:1;paint-order:stroke fill markers;stop-color:#000" transform="rotate(-45.008)"/><rect width="2.175" height=".327" x="3216.927" y="999.211" rx=".186" ry=".187" style="fill:#2e2e2e;fill-opacity:1;fill-rule:evenodd;stroke:none;stroke-width:3.38307;stroke-linecap:round;stroke-dasharray:none;stroke-opacity:1;paint-order:stroke fill markers;stop-color:#000" transform="rotate(45.008)"/></g><g style="display:inline" transform="scale(-1 1) rotate(36.661 226.624 169.339)"><path d="M141.767-44.092s-.073-.072-.145 0 0 .145 0 .145l-.109.109s-.072-.073-.145 0c-.072.072 0 .144 0 .144l-.108.11s-.073-.073-.145 0c-.073.071 0 .144 0 .144l-.109.109s-.072-.073-.145 0c-.072.072 0 .144 0 .144l-.109.11s-.072-.073-.145 0c-.072.071 0 .144 0 .144l-.108.109s-.073-.073-.145 0c-.073.072 0 .144 0 .144l-.109.11s-.072-.073-.145 0c-.072.071 0 .144 0 .144l-.108.109s-.073-.073-.145 0c-.073.072 0 .144 0 .144s-.182.182.18.544c.363.362.544.18.544.18s.073.073.145 0c.073-.072 0-.144 0-.144l.109-.109s.072.073.145 0c.072-.072 0-.145 0-.145l.109-.108s.072.072.144 0c.073-.073 0-.145 0-.145l.11-.109s.072.073.144 0c.073-.072 0-.145 0-.145l.109-.108s.072.072.145 0c.072-.073 0-.145 0-.145l.108-.109s.073.073.145 0c.073-.072 0-.145 0-.145l.11-.108s.072.072.144 0c.072-.073 0-.145 0-.145l.109-.109s.072.073.145 0c.072-.072 0-.145 0-.145l.108-.108s.073.072.145 0c.073-.073 0-.145 0-.145l.109-.109s.072.073.145 0c.072-.072 0-.145 0-.145l.109-.108s.072.072.145 0c.072-.073 0-.145 0-.145l.108-.109s.073.073.145 0c.073-.072 0-.145 0-.145l3.84-3.838s.907-.906-.47-2.282-2.283-.47-2.283-.47l2.03 2.027-4.602 4.6s-.073-.073-.145 0c-.073.072 0 .144 0 .144z" style="display:inline;fill:#4d4d4d;fill-opacity:1;stroke:#262626;stroke-width:.529167;stroke-linecap:round;stroke-miterlimit:5;stroke-dasharray:none;stroke-opacity:1" transform="translate(-301.332 282.717) scale(1.63627)"/><path d="m143.397-46.084-.326.326 1.16 1.16.326-.327zm-.688.688-.326.326 1.16 1.16.325-.327z" style="display:inline;fill:#737373;fill-opacity:1;stroke:#262626;stroke-width:.264583;stroke-linecap:round;stroke-miterlimit:5;stroke-dasharray:none;stroke-opacity:1" transform="translate(-301.332 282.717) scale(1.63627)"/><path d="m143.18-45.65-.362.363.942.942.362-.363z" style="display:inline;fill:#737373;fill-opacity:1;stroke:#262626;stroke-width:.264583;stroke-linecap:round;stroke-miterlimit:5;stroke-dasharray:none;stroke-opacity:1" transform="translate(-301.332 282.717) scale(1.63627)"/><path d="m143.483-49.789-1.268 1.267-1.123 1.992-8.95 8.945s-.833.833-.145 1.521c.689.688 1.522-.145 1.522-.145l7.972-7.967s.253.109.76.109c.508 0 .689-.326.689-.326l-.689-.688 1.16-1.159 1.522 1.521s.253.254 1.16-.652c.905-.905.651-1.159.651-1.159zm-9.927 12.168c.18.181 0 .362 0 .362l-.725.725s-.181.18-.362 0c-.182-.182 0-.363 0-.363l.724-.724s.181-.181.363 0z" style="display:inline;fill:#e50000;fill-opacity:1;stroke:#600;stroke-width:.529167;stroke-linecap:round;stroke-miterlimit:5;stroke-dasharray:none;stroke-opacity:1" transform="translate(-301.332 282.717) scale(1.63627)"/><path d="M145.881-49.234h-.29v-.29h-.29v-.29h-.29v-.29h-.289v-.29h-.29v-.289h-.29l.037-.253.217-.218 1.993 1.992.217.218s.218.217 0 .434c-.217.217-.435 0-.435 0-.108-.109 0-.434 0-.434h-.29zm-1.905-1.133v.29h.29v.29h.29v.29h.29v.29h.29v.29h.29v.289h.29v.29l-.218.217-2.03-2.028.218-.217z" style="display:inline;fill:#262626;fill-opacity:1;stroke:#4d4d4d;stroke-width:0;stroke-linecap:round;stroke-miterlimit:5;stroke-dasharray:none;stroke-opacity:1" transform="translate(-301.332 282.717) scale(1.63627)"/><path d="M134.013-38.08s.254.253.507 0l6.812-6.809s.254-.253 0-.507c-.253-.253-.507 0-.507 0l-6.812 6.809s-.254.253 0 .507z" style="display:inline;fill:#900000;fill-opacity:1;stroke:#333;stroke-width:0;stroke-linecap:round;stroke-miterlimit:5;stroke-dasharray:none;stroke-opacity:1" transform="translate(-301.332 282.717) scale(1.63627)"/><path d="M140.136-42.028s-.072.073.073.218c.145.144.217.072.217.072l1.124-1.123s.072-.072-.073-.217c-.145-.145-.217-.072-.217-.072z" style="display:inline;fill:gray;fill-opacity:1;stroke:#333;stroke-width:0;stroke-linecap:round;stroke-miterlimit:5;stroke-dasharray:none;stroke-opacity:1" transform="translate(-301.332 282.717) scale(1.63627)"/><circle cx="67.036" cy="-135.81" r=".102" style="display:inline;fill:#595959;fill-opacity:1;stroke:#262626;stroke-width:.264583;stroke-linecap:round;stroke-miterlimit:5;stroke-dasharray:none;stroke-opacity:1" transform="scale(1.63667 1.63586) rotate(45 -300.674 -135.832)"/></g></svg>