<?xml version="1.0" encoding="UTF-8" standalone="no"?>
<!-- Created with Inkscape (http://www.inkscape.org/) -->

<svg
   width="90.999992"
   height="90.999992"
   viewBox="0 0 24.07708 24.077081"
   version="1.1"
   id="svg1"
   inkscape:version="1.3 (0e150ed6c4, 2023-07-21)"
   xml:space="preserve"
   sodipodi:docname="water_overlay.svg"
   xmlns:inkscape="http://www.inkscape.org/namespaces/inkscape"
   xmlns:sodipodi="http://sodipodi.sourceforge.net/DTD/sodipodi-0.dtd"
   xmlns="http://www.w3.org/2000/svg"
   xmlns:svg="http://www.w3.org/2000/svg"><sodipodi:namedview
     id="namedview1"
     pagecolor="#c3c3c3"
     bordercolor="#000000"
     borderopacity="0.25"
     inkscape:showpageshadow="2"
     inkscape:pageopacity="0.0"
     inkscape:pagecheckerboard="true"
     inkscape:deskcolor="#767676"
     inkscape:document-units="px"
     inkscape:zoom="4.2974749"
     inkscape:cx="31.762838"
     inkscape:cy="16.637677"
     inkscape:window-width="1440"
     inkscape:window-height="830"
     inkscape:window-x="0"
     inkscape:window-y="0"
     inkscape:window-maximized="1"
     inkscape:current-layer="layer1" /><defs
     id="defs1" /><g
     inkscape:label="Layer 1"
     inkscape:groupmode="layer"
     id="layer1"
     transform="translate(-123.04897,-185.60121)"><path
       id="path846"
       style="fill:#ffffff;fill-opacity:0.6;stroke:none;stroke-width:0.263802;stroke-linecap:round;stroke-linejoin:round;stroke-miterlimit:10;stroke-dasharray:none;stroke-opacity:1"
       d="m 135.08751,185.60121 a 12.038541,12.038541 0 0 0 -12.03854,12.03854 12.038541,12.038541 0 0 0 12.03854,12.03854 12.038541,12.038541 0 0 0 12.03854,-12.03854 12.038541,12.038541 0 0 0 -12.03854,-12.03854 z m 0,4.53744 a 7.5012742,7.5012742 0 0 1 7.5011,7.5011 7.5012742,7.5012742 0 0 1 -7.5011,7.5011 7.5012742,7.5012742 0 0 1 -7.5011,-7.5011 7.5012742,7.5012742 0 0 1 7.5011,-7.5011 z" /></g></svg>
