<svg xmlns="http://www.w3.org/2000/svg" xml:space="preserve" width="91" height="91" viewBox="0 0 24.077 24.077"><path d="M135.088 185.601a12.04 12.04 0 0 0-12.039 12.039 12.04 12.04 0 0 0 12.039 12.038 12.04 12.04 0 0 0 12.038-12.038 12.04 12.04 0 0 0-12.038-12.039m0 4.538a7.5 7.5 0 0 1 7.5 7.5 7.5 7.5 0 0 1-7.5 7.502 7.5 7.5 0 0 1-7.502-7.501 7.5 7.5 0 0 1 7.502-7.501" style="fill:#fff;fill-opacity:.6;stroke:none;stroke-width:.263802;stroke-linecap:round;stroke-linejoin:round;stroke-miterlimit:10;stroke-dasharray:none;stroke-opacity:1" transform="translate(-123.049 -185.601)"/></svg>