<svg xmlns="http://www.w3.org/2000/svg" xml:space="preserve" width="718.613" height="785.973"><path fill="#7f6241" d="m550.542 565.386 14.572 24.906 12.453-7.285c6.878-4.024 9.19-12.86 5.166-19.74-4.024-6.877-12.86-9.19-19.738-5.167z" style="fill:#8c6334;fill-opacity:1;stroke-width:1.85124"/><ellipse cx="780.445" cy="193.272" fill="#ab9255" rx="16.832" ry="8.416" style="fill:#bc994d;fill-opacity:1;stroke-width:1.85124" transform="scale(1 -1)rotate(-59.669)"/><path fill="#77a37a" d="M526.591 608.581c.887-14.476 14.641-42.927 29.136-30.081 13.305 14.074-14.689 28.734-29.13 30.089h.002z" style="fill:#ca8321;fill-opacity:.917647;stroke-width:1.85124"/><path fill="#5f926a" d="M501.256 579.371c14.127-12.547 52.94-26.117 54.458-.87-.706 25.28-39.934 12.967-54.458.882q.003.002.002.002-.003.001-.002.002z" style="fill:#ca8321;fill-opacity:.917647;stroke-width:1.85124"/><path fill="#7f6241" d="m232.72 168.936 8.348 27.621-13.81 4.176c-7.627 2.305-15.678-2.01-17.984-9.637s2.008-15.68 9.635-17.985z" style="fill:#8c6334;fill-opacity:1;stroke-width:1.85124"/><ellipse cx="243.471" cy="-170.281" fill="#ab9255" rx="16.832" ry="8.416" style="fill:#bc994d;fill-opacity:1;stroke-width:1.85124" transform="rotate(73.182)"/><path fill="#77a37a" d="M280.676 180.754c-11.216-9.194-41.429-18.46-41.868.902 1.269 19.326 31.055 8.773 41.869-.893v.002c-.004-.003 0 0 0 0z" style="fill:#ca8321;fill-opacity:.917647;stroke-width:1.85124"/><path fill="#5f926a" d="M276.492 142.314c-18.807 1.824-55.152 21.05-37.675 39.333 19.014 16.676 36.665-20.458 37.683-39.324v.003c.002-.003.002 0 .002 0z" style="fill:#ca8321;fill-opacity:.917647;stroke-width:1.85124"/><path fill="#7f6241" d="m541.784 194.064-28.517 4.404-2.204-14.258c-1.216-7.875 4.181-15.244 12.057-16.46 7.875-1.217 15.244 4.18 16.46 12.054z" style="fill:#8c6334;fill-opacity:1;stroke-width:1.85124"/><ellipse cx="-491.382" cy="-270.889" fill="#ab9255" rx="16.832" ry="8.416" style="fill:#bc994d;fill-opacity:1;stroke-width:1.85124" transform="rotate(171.22)"/><path fill="#77a37a" d="M523.377 239.896c10.672-9.82 24.072-38.44 4.961-41.583-19.314-1.445-13.03 29.524-4.97 41.583h-.001c.004-.003.004 0 0 0z" style="fill:#ca8321;fill-opacity:.917647;stroke-width:1.85124"/><path fill="#5f926a" d="M562.024 241.128c.823-18.877-13.131-57.553-33.679-42.804-19.17 16.495 15.131 39.165 33.67 42.81h-.004c.003.003 0 0 0 0z" style="fill:#ca8321;fill-opacity:.917647;stroke-width:1.85124"/><path fill="#7f6241" d="m191.481 362.651-26.005 12.506-6.253-13.002c-3.454-7.182-.432-15.801 6.75-19.255 7.181-3.453 15.801-.431 19.254 6.749z" style="fill:#8c6334;fill-opacity:1;stroke-width:1.85124"/><ellipse cx="-.97" cy="-406.203" fill="#ab9255" rx="16.832" ry="8.416" style="fill:#bc994d;fill-opacity:1;stroke-width:1.85124" transform="rotate(154.317)"/><path fill="#77a37a" d="M187.194 411.856c7.357-12.499 11.856-43.78-7.343-41.23-18.9 4.233-3.883 32.037 7.334 41.232q.002 0 0 0z" style="fill:#ca8321;fill-opacity:.917647;stroke-width:1.85124"/><path fill="#5f926a" d="M224.53 401.798c-4.7-18.301-29.296-51.249-44.668-31.163-13.547 21.356 25.863 33.074 44.661 31.172-.003 0-.004-.004-.004 0 .004.002 0 .001 0 0z" style="fill:#ca8321;fill-opacity:.917647;stroke-width:1.85124"/><path fill="#3a4f3f" d="M380.855 785.973c89.973 0 162.91-72.937 162.91-162.91 0-89.972-72.937-162.909-162.91-162.909-89.972 0-162.909 72.937-162.909 162.91 0 89.972 72.937 162.909 162.91 162.909" opacity=".95" style="fill:#bb791f;fill-opacity:.85098;stroke-width:1.85124"/><path fill="#3a4f3f" d="M555.703 700.29c89.973 0 162.91-72.937 162.91-162.91 0-89.972-72.937-162.909-162.91-162.909-89.972 0-162.909 72.937-162.909 162.91 0 89.972 72.937 162.909 162.91 162.909M162.909 555.277c89.972 0 162.91-72.937 162.91-162.91 0-89.972-72.938-162.909-162.91-162.909S0 302.395 0 392.369c0 89.972 72.937 162.91 162.909 162.91" opacity=".95" style="fill:#bb791f;fill-opacity:.85098;stroke-width:1.85124"/><path fill="#3a4f3f" d="M212.737 362.957c89.973 0 162.91-72.937 162.91-162.909s-72.937-162.91-162.91-162.91c-89.972 0-162.909 72.938-162.909 162.91s72.937 162.91 162.91 162.91" opacity=".95" style="fill:#bb791f;fill-opacity:.85098;stroke-width:1.85124"/><path fill="#3a4f3f" d="M410.85 351.736c97.64 0 176.793-78.74 176.793-175.868C587.643 78.738 508.49 0 410.849 0c-97.64 0-176.793 78.739-176.793 175.868s79.153 175.868 176.793 175.868" opacity=".95" style="fill:#bb791f;fill-opacity:.85098;stroke-width:1.85124"/><path fill="#3a4f3f" d="M574.582 437.815c72.08 0 130.513-58.433 130.513-130.513S646.662 176.79 574.582 176.79 444.07 235.222 444.07 307.302s58.433 130.513 130.512 130.513" opacity=".95" style="fill:#bb791f;fill-opacity:.85098;stroke-width:1.85124"/><path fill="#485e52" d="M205.49 720.99c80.28 0 145.362-64.334 145.362-143.693 0-79.357-65.082-143.69-145.363-143.69-80.28 0-145.363 64.333-145.363 143.69 0 79.36 65.083 143.693 145.363 143.693" opacity=".85" style="opacity:.8;fill:#b26f14;fill-opacity:.85098;stroke-width:3.34167"/><path fill="#485e52" d="M369.398 454.678c43.963 0 79.603-35.64 79.603-79.603s-35.64-79.604-79.603-79.604c-43.964 0-79.604 35.64-79.604 79.604s35.64 79.603 79.604 79.603M177.398 691.678c43.963 0 79.603-35.64 79.603-79.603s-35.64-79.603-79.603-79.603c-43.964 0-79.604 35.64-79.604 79.603s35.64 79.603 79.604 79.603" opacity=".85" style="opacity:.8;fill:#b26f14;fill-opacity:.85098;stroke-width:1.85124"/><path fill="#485e52" d="M437.398 516.678c43.963 0 79.603-35.64 79.603-79.603s-35.64-79.604-79.603-79.604c-43.964 0-79.604 35.64-79.604 79.604s35.64 79.603 79.604 79.603" opacity=".85" style="opacity:.8;fill:#b26f14;fill-opacity:.85098;stroke-width:1.85124"/><path fill="#485e52" d="M396.576 295.1c74.685 0 135.23-59.85 135.23-133.677 0-73.826-60.545-133.676-135.23-133.676s-135.23 59.85-135.23 133.676c0 73.827 60.545 133.676 135.23 133.676" opacity=".85" style="opacity:.8;fill:#b26f14;fill-opacity:.85098;stroke-width:3.10875"/><path fill="#5f926a" d="M452.044 106.472c13.288 5.814 35.27 28.516 18.222 37.707-17.794 7.65-21.928-23.68-18.231-37.704h-.003c.003.001 0 0 0 .003z" style="fill:#ca8321;fill-opacity:.917647;stroke-width:1.85124"/><path fill="#77a37a" d="M492.214 169.615c-11.765-1.518-33.785-14.303-21.943-25.43 12.737-10.087 22.165 13.566 21.949 25.425 0 .001-.003 0 0 0z" style="fill:#ca8321;fill-opacity:.917647;stroke-width:1.85124"/><path fill="#587e60" d="M523.78 133.98v.002c-11.767 14.784-47.676 34.809-53.501 10.197-3.642-25.029 37.117-19.624 53.498-10.208v-.003c-.003.002 0 .004 0 0 .004.001 0 .003 0 .004z" style="fill:#d5871f;fill-opacity:.921341;stroke-width:1.85124"/><path fill="#5f926a" d="M143.357 411.924c-13.953-3.96-38.809-23.475-23.163-34.891 16.593-9.99 24.935 20.49 23.172 34.886h.003c-.003-.001 0 0 0-.004z" style="fill:#ca8321;fill-opacity:.917647;stroke-width:1.85124"/><path fill="#77a37a" d="M95.002 354.805c11.861-.09 35.411 9.594 25.186 22.223-11.252 11.72-23.799-10.437-25.192-22.217 0 0 .003 0 0 0z" style="fill:#ca8321;fill-opacity:.917647;stroke-width:1.85124"/><path fill="#587e60" d="M68.556 394.39v-.003c9.654-16.241 42.518-40.948 51.625-17.352 7 24.304-34.116 24.472-51.622 17.362v.003c.003-.002 0-.004 0 0-.003 0 0-.003 0-.004z" style="fill:#d5871f;fill-opacity:.921341;stroke-width:1.85124"/><path fill="#485e52" d="M628.956 483.954c43.963 0 79.603-35.64 79.603-79.604s-35.64-79.603-79.603-79.603c-43.964 0-79.604 35.64-79.604 79.603 0 43.964 35.64 79.604 79.604 79.604" opacity=".85" style="opacity:.8;fill:#b26f14;fill-opacity:.85098;stroke-width:1.85124"/><path fill="#485e52" d="M546.62 638.447c62.366 0 112.925-50.144 112.925-112s-50.559-112-112.925-112-112.926 50.144-112.926 112 50.56 112 112.926 112" opacity=".85" style="opacity:.8;fill:#bb791f;fill-opacity:.85098;stroke-width:1.85124"/><path fill="#5f926a" d="M504.673 481.816c.185 14.504-11.424 43.895-26.83 32.158-14.31-13.052 12.523-29.746 26.823-32.164l-.001-.002c0 .003 0 0-.003 0z" style="fill:#ca8321;fill-opacity:.917647;stroke-width:1.85124"/><path fill="#77a37a" d="M463.73 544.461c-3.472-11.342-.911-36.676 14.11-30.48 14.444 7.44-3.211 25.787-14.104 30.484q0-.001 0 0z" style="fill:#ca8321;fill-opacity:.917647;stroke-width:1.85124"/><path fill="#587e60" d="m509.215 558.51-.003.003c-18.321-4.619-51.379-29.065-31.364-44.527 21.297-13.645 33.19 25.713 31.373 44.52h.003c-.002-.003 0 0 0 0s-.003 0 0 0z" style="fill:#d5871f;fill-opacity:.921341;stroke-width:1.85124"/><path fill="#77a37a" d="M350.46 635.901c12.095-8.003 29.865-34.135 11.495-40.27-18.84-4.491-17.548 27.084-11.503 40.268 0-.003 0 0 0 0z" style="fill:#ca8321;fill-opacity:.917647;stroke-width:1.85124"/><path fill="#5f926a" d="M388.424 643.246c3.809-18.508-3.834-58.906-26.46-47.604-21.546 13.246 8.724 41.068 26.451 47.61q.002-.001.003 0v.003z" style="fill:#d5871f;fill-opacity:.921341;stroke-width:1.85124"/><path fill="#77a37a" d="M281.275 84.616c-12.094 8.003-29.864 34.135-11.494 40.27 18.84 4.491 17.548-27.083 11.503-40.268 0 .003 0 0 0 0z" style="fill:#ca8321;fill-opacity:.917647;stroke-width:1.85124"/><path fill="#5f926a" d="M243.312 77.27c-3.809 18.51 3.834 58.907 26.46 47.605 21.546-13.246-8.724-41.068-26.451-47.61q-.001.001-.003 0v-.002z" style="fill:#d5871f;fill-opacity:.921341;stroke-width:1.85124"/><path fill="#77a37a" d="M98.225 216.553c9.12 11.275 36.827 26.472 41.182 7.6 2.674-19.182-28.634-14.884-41.181-7.61q.001 0 0 0z" style="fill:#ca8321;fill-opacity:.917647;stroke-width:1.85124"/><path fill="#5f926a" d="M94.533 255.044c18.787 2.025 58.273-9.435 44.864-30.88-15.24-20.185-40.049 12.6-44.87 30.871q.001.002 0 .003h-.003z" style="fill:#d5871f;fill-opacity:.921341;stroke-width:1.85124"/><path fill="#77a37a" d="M648.536 396.085c1.992-14.365-5.864-44.974-22.612-35.25-15.826 11.166 8.717 31.073 22.605 35.255q-.002-.002 0 0z" style="fill:#ca8321;fill-opacity:.917647;stroke-width:1.85124"/><path fill="#5f926a" d="M679.147 372.46c-11.367-15.094-46.728-36.071-53.209-11.624-4.308 24.923 36.579 20.609 53.208 11.635-.002-.002.002-.002.002-.002l.002.002z" style="fill:#d5871f;fill-opacity:.921341;stroke-width:1.85124"/><path fill="#77a37a" d="M239.494 368.636c9.12 11.276 36.828 26.473 41.183 7.602 2.673-19.183-28.634-14.885-41.182-7.61.003-.001 0 0 0 0z" style="fill:#ca8321;fill-opacity:.917647;stroke-width:1.85124"/><path fill="#5f926a" d="M235.803 407.127c18.787 2.026 58.273-9.435 44.864-30.88-15.24-20.184-40.05 12.601-44.871 30.872.003 0 0 .003 0 .003h-.002z" style="fill:#d5871f;fill-opacity:.921341;stroke-width:1.85124"/></svg>