<svg xmlns="http://www.w3.org/2000/svg" xml:space="preserve" width="30.404" height="16" viewBox="0 0 8.044 4.233"><g style="stroke-width:1.09224"><path d="m5.43 1.021.015-.046h.144c.062 0 .1.014.115.027a.23.23 0 0 1 .082.108h.043v.045h.05L6.995.89 6.738.82l.828-.814L5.096.6l.098.119-.098.102.121.157-.075.087h.213l.02-.043zM1.145.411V.44l-.002.034H.995L.951.556S.703.654.483.883A.4.4 0 0 0 .407.814L.347.773C.287.758.249.75.197.773H.2.193h.003L.133.765l-.022.05a.4.4 0 0 1-.05.039l.01.06-.02.039.042.051.008.006c.012.024.022.015.045.03.032.02.07.026.106.02.083.054.127.007.23.003h1.313l.054-.054h.12L1.97.944h.2l.002.066h.15l.091.054h2.464v-.08h.038V.66h-.038V.584h-.044L4.81.517s-.05-.072-.1-.072a1 1 0 0 0-.094.006l-.013.026-.036.001-.019.033H1.521L1.444.49h-.067l-.05-.012-.1-.005V.412Zm-.582.749c-.152 0-.281.04-.366.075l-.165.176s-.083.177.122.243c.204.066.188-.078.365.194 0 0 .127.183-.045.493S-.08 3.559.098 3.697h.81c.062-.21.166-.471.38-.89.035-.07.028-.276-.049-.343-.028-.024-.046-.012-.09-.014-.255-.013-.597-.29-.135-.637 0 0-.32-.11-.183-.358.156-.279.467-.187.54-.08.113-.097.171-.146.29-.213ZM.89 3.84h-.56v.15h.521z" style="fill:#d8d8d8;fill-opacity:1;fill-rule:evenodd;stroke:none;stroke-width:.069575;stroke-linecap:round;stroke-linejoin:round;stroke-miterlimit:29;stroke-dasharray:none;stroke-opacity:1" transform="translate(.001)scale(.91555)"/><path d="M7.566.006 5.096.6l.098.119-.098.102.121.157-.121.14 2.212.947-.57-.577 1.185-.37L6.738.82ZM1.145.412v.027l-.002.034H.995L.951.556S.703.654.483.883A.4.4 0 0 0 .407.814L.347.773C.287.758.249.75.197.773H.2.193h.003L.133.765l-.022.05a.4.4 0 0 1-.05.039l.01.06-.02.039.042.051.008.006c.012.024.022.015.045.03.032.02.07.026.106.02.083.054.127.007.23.003h4.395v-.08h.038V.66h-.038V.584h-.044L4.81.517s-.05-.072-.1-.072a1 1 0 0 0-.094.006l-.013.026-.036.001-.019.033H1.521L1.444.49h-.067l-.05-.012-.1-.005V.412Zm-.582.748c-.152 0-.281.04-.366.075l-.165.176s-.083.177.122.243c.204.066.188-.078.365.194 0 0 .127.183-.045.493S-.08 3.559.098 3.697h1.545s.08.009.08-.14c0-.147.175-.895.175-.895s.044-.35.493-.35c.448 0 .764.05 1.345-.625 0 0 .194-.26.62-.26l.255-.1s.082-.126.204-.154q0 0 .003-.013zm2.714.345c.039.005.15.1.15.1.143.204-.1.359-.1.359-.272.216-.621.266-.81.25-.188-.018-.364.005-.398-.294-.028-.255.194-.326.264-.342.029.017.062.05.072.11 0 0 .11.408.404.388 0 0 .205-.057.088-.057-.15-.006-.241-.057-.331-.217-.069-.123-.064-.186-.034-.243l.473-.032Zm-1.402 2.24-.167.095H.332v.15h1.683Z" style="fill:#d8d8d8;fill-opacity:1;fill-rule:evenodd;stroke:none;stroke-width:.069575;stroke-linecap:round;stroke-linejoin:round;stroke-miterlimit:29;stroke-dasharray:none;stroke-opacity:1" transform="translate(.806 .587)scale(.91555)"/></g></svg>