<svg xmlns="http://www.w3.org/2000/svg" width="16.489" height="16" fill="none"><path fill="#d9d9d9" d="M8.307 9.161a.913.913 0 0 0 0-1.83.913.913 0 0 0-.912.916c0 .505.409.914.912.914"/><path fill="#d9d9d9" fill-rule="evenodd" d="M7.7 3.99 8.325 0l.625 3.988.127.023 1.319-2.467-.567 2.683.016.006.015.006 1.771-1.75-1.033 2.137q.064.042.127.087l3.712-3.13-2.74 3.907 1.491-.69-1.208 1.32.058.105 3.918-.407-3.427 2.28.002.071 2.898.855-2.879.32 3.94 2.607-4.445-1.271 1.104 1.969-2.126-1.082a4 4 0 0 1-.18.137l1.15 3.675-2.555-2.462.191 1.856-1.027-2.091L7.76 16l-.61-3.595-.165-.061-1.945 2.774.556-3.548-3.186 2.274 2.276-3.218L0 12.216l3.904-2.788-2.134-.09 2.38-.628-.007-.097L.822 7.091l3.584-.372.001-.003L2.805 6l1.785.293.067-.127-2.84-2.18 3.678 1.085.034-.035-.897-2.199 1.683 1.616L5.836 1.4l1.81 2.602zm2.47 4.257c0 1.032-.834 1.87-1.863 1.87a1.867 1.867 0 0 1-1.863-1.87c0-1.033.834-1.87 1.863-1.87 1.03 0 1.863.837 1.863 1.87" clip-rule="evenodd"/></svg>