<svg xmlns="http://www.w3.org/2000/svg" width="26.393" height="16" fill="none"><path fill="#d9d9d9" d="m16.892 5.872.81 1.698s-.583.262-.888.343c-.303.082-.938.146-.938.146l-.083-1.892-.395.106-.164-.608L.352 9.652C.3 9.667.236 9.632.176 9.56a.8.8 0 0 1-.143-.3.8.8 0 0 1-.026-.331c.014-.095.052-.155.105-.17L14.995 4.77l-.163-.608.313-.084s-.145-.917-.352-1.602C14.585 1.79 13.829 0 13.829 0s.89.809 1.402 1.647c.511.837 1.112 2.11 1.112 2.11l.314-.084.565 2.11zM19.006 12.065l4.014 2.795-2.707-4.1 6.08-1.061-7.81-1.53c-.436 1.127-2.197 1.772-3.244.72l-1.035 5.508 2.18-3.183L18.079 16z"/></svg>