<svg xmlns="http://www.w3.org/2000/svg" width="982.099" height="523.442" viewBox="0 0 519.694 276.988"><defs><clipPath id="a" clipPathUnits="userSpaceOnUse"><path d="m-3505.418-1309.435-110.524 109.778v289.298l110.247 110.042.277.207v-232.05l-80.222-79.061 80.222-78.504z" style="fill:#505053;fill-opacity:1;stroke:#262626;stroke-width:2;stroke-linecap:round;stroke-linejoin:round;stroke-opacity:1;stop-color:#000"/></clipPath><clipPath id="b" clipPathUnits="userSpaceOnUse"><path d="M-3604.422-1309.435v288.892l83.894 85.768-83.894 85.768v48.235l.278-.206 110.972-109.404v-289.142z" style="fill:#505053;fill-opacity:1;stroke:#262626;stroke-width:2;stroke-linecap:round;stroke-linejoin:round;stroke-opacity:1;stop-color:#000"/></clipPath><clipPath id="c" clipPathUnits="userSpaceOnUse"><path d="M-3689.1-606.092h202.232l-108.24-108.112-109.436 108.112z" style="fill:#505053;fill-opacity:1;stroke:#262626;stroke-width:2;stroke-linecap:round;stroke-linejoin:round;stroke-opacity:1;stop-color:#000"/></clipPath><clipPath id="d" clipPathUnits="userSpaceOnUse"><path d="M-3892.418-639.027v-143.969l76.863 77.056-76.863 77.907z" style="fill:#505053;fill-opacity:1;stroke:#262626;stroke-width:2;stroke-linecap:round;stroke-linejoin:round;stroke-opacity:1;stop-color:#000"/></clipPath><clipPath id="e" clipPathUnits="userSpaceOnUse"><path d="m-3583.367-663.383-80.264-80.083h107.658c25.973 25.953 53.353 54.625 78.83 80.083z" style="fill:#505053;fill-opacity:1;stroke:#262626;stroke-width:2;stroke-linecap:round;stroke-linejoin:round;stroke-opacity:1;stop-color:#000"/></clipPath><clipPath id="f" clipPathUnits="userSpaceOnUse"><path d="m-3583.367-755.627-80.264 80.083h107.658c25.973-25.953 53.353-54.625 78.83-80.083z" style="fill:#505053;fill-opacity:1;stroke:#262626;stroke-width:2;stroke-linecap:round;stroke-linejoin:round;stroke-opacity:1;stop-color:#000"/></clipPath><clipPath id="g" clipPathUnits="userSpaceOnUse"><path d="M-3103.752-1052.68h127.041l-67.995-67.669-68.747 67.668z" style="fill:#505053;fill-opacity:1;stroke:#262626;stroke-width:2;stroke-linecap:round;stroke-linejoin:round;stroke-opacity:1;stop-color:#000"/></clipPath><clipPath id="h" clipPathUnits="userSpaceOnUse"><path d="m-3011.635-1118.019 71.946 71.66h-141.994c-26.633-25.625.641.603-73.978-71.66z" style="fill:#505053;fill-opacity:1;stroke:#262626;stroke-width:2;stroke-linecap:round;stroke-linejoin:round;stroke-opacity:1;stop-color:#000"/></clipPath></defs><path fill="#7caee4" fill-opacity=".367" fill-rule="evenodd" d="M-26.088-230.501h202.404V27.177H-26.088Z" style="fill:#519cec;fill-opacity:.217311;stroke-width:.558641;stroke-linecap:round" transform="translate(173.037 130.969)"/><path d="m-8.049-220.607-19.03 22.585v7.645l25.473-30.23zm4.825 5.939-19.03 22.584v7.647l25.472-30.231zm43.71 16.628-25.473 30.231h6.443l19.03-22.584zm4.824 5.94-25.473 30.23h6.443l19.03-22.584zm-53.359 26.06-19.03 22.585v7.646l25.473-30.23zm4.825 5.94-19.03 22.584v7.646L3.217-160.1zm43.71 16.628-25.473 30.23h6.443l19.03-22.584zm4.824 5.94-25.473 30.23h6.443l19.03-22.585z" style="fill:#efefef;fill-opacity:.5;stroke-width:.558642;stroke-linecap:round" transform="translate(173.037 130.969)"/><g style="stroke-width:.819217"><path fill="#666" fill-rule="evenodd" d="M-4105.748-1792.04c0 .547.265.99.592.99h2.37c.158 0 .308-.104.42-.29s.172-.437.172-.7v-90.764c0-.546-.265-.989-.592-.989h-2.37c-.328 0-.593.443-.593.99z" style="stroke-width:.457646;stroke-linecap:round" transform="matrix(-.99075 0 0 -1.50396 -3883.995 -2798.124)"/><path stroke="#1d1d1d" stroke-linejoin="round" stroke-width="1.831" d="M-4105.798-1791.907c0 .546.278.989.621.989h2.486v0c.165 0 .323-.103.44-.29.116-.185.181-.437.181-.7v-90.763c0-.546-.278-.99-.621-.99h-2.486c-.343 0-.621.444-.621.99z" style="fill:none;stroke-linecap:round" transform="matrix(-.99075 0 0 -1.50396 -3883.995 -2798.124)"/></g><g style="stroke-width:.819217"><path fill="#666" fill-rule="evenodd" d="M-4105.748-1792.04c0 .547.265.99.592.99h2.37c.158 0 .308-.104.42-.29s.172-.437.172-.7v-90.764c0-.546-.265-.989-.592-.989h-2.37c-.328 0-.593.443-.593.99z" style="stroke-width:.457646;stroke-linecap:round" transform="matrix(-.99075 0 0 -1.50396 -3756.369 -2667.723)"/><path stroke="#1d1d1d" stroke-linejoin="round" stroke-width="1.831" d="M-4105.798-1791.907c0 .546.278.989.621.989h2.486v0c.165 0 .323-.103.44-.29.116-.185.181-.437.181-.7v-90.763c0-.546-.278-.99-.621-.99h-2.486c-.343 0-.621.444-.621.99z" style="fill:none;stroke-linecap:round" transform="matrix(-.99075 0 0 -1.50396 -3756.369 -2667.723)"/></g><path d="m119.577-90.206-19.03 22.584v7.646l25.473-30.23zm4.825 5.939-19.03 22.584v7.647l25.472-30.231zm43.71 16.628L142.64-37.408h6.443l19.03-22.585zm4.824 5.94-25.473 30.23h6.443l19.03-22.584zm-53.359 26.06-19.03 22.585v7.646l25.473-30.23zm4.825 5.94-19.03 22.584V.53l25.472-30.23zm43.71 16.628L142.64 17.16h6.443l19.03-22.584zm4.824 5.94-25.473 30.23h6.443L172.936.513z" style="fill:#efefef;fill-opacity:.5;stroke-width:.558642;stroke-linecap:round" transform="translate(173.037 130.969)"/><path d="M-59.747-404.31v293.437h-112.29V91.774h112.29v53.245h263.695V-93.444h141.709v-183.605h-141.71V-404.31zm38.408 190.672h60.812v44.875h-60.812zm336.017 1.532v52.034l-25.776-26.017 25.558-25.797zm-336.017 52.995h60.812v44.875h-60.812zm127.59 75.812h60.811v44.875H106.25zm0 54.527h60.811v44.874H106.25z" style="fill:#7d5e40;fill-opacity:1;stroke:#453221;stroke-width:1.99999;stroke-linecap:round;stroke-linejoin:round;stroke-dasharray:none;stroke-opacity:1;stop-color:#000" transform="translate(173.037 130.969)"/><path d="M-50.224-395.653v293.89H-162.82V82.607h112.596v53.263h244.892V-102.6h142.275v-166.072H194.669v-126.981zm28.885 182.015h60.812v44.875h-60.812zm336.017 1.532v52.034l-25.776-26.017 25.558-25.797zm-336.017 52.995h60.812v44.875h-60.812zm127.59 75.812h60.811v44.875H106.25zm0 54.527h60.811v44.874H106.25z" style="fill:#9c7754;fill-opacity:1;stroke:#453221;stroke-width:2;stroke-linecap:round;stroke-linejoin:round;stroke-dasharray:none;stroke-opacity:1;stop-color:#000" transform="translate(173.037 130.969)"/><path d="M-46.224-392.105v294.046h-112.68V78.77h112.68v53.241h237.015v-238.265h142.648v-159.101H190.791v-126.75zm24.885 178.467h60.812v44.875h-60.812zm336.017 1.532v52.034l-25.776-26.017 25.558-25.797zm-336.017 52.995h60.812v44.875h-60.812zm127.59 75.812h60.811v44.875H106.25zm0 54.527h60.811v44.874H106.25z" style="fill:#6d6d6f;fill-opacity:1;stroke:#262626;stroke-width:2;stroke-linecap:round;stroke-linejoin:miter;stroke-dasharray:none;stroke-opacity:1;stop-color:#000" transform="translate(173.037 130.969)"/><g clip-path="url(#a)" style="stroke-width:1.00466" transform="matrix(.99075 0 0 1 3831.217 1055.773)"><path d="M-3600.397-1331.728h11.49v539.325h-11.49z" style="fill:#5f5f62;fill-opacity:1;stroke:#262626;stroke-width:2.0093;stroke-linecap:round;stroke-linejoin:miter;stroke-opacity:1;stop-color:#000"/><path d="M-3588.971-1331.729v539.326h11.49v-116.3h-7.602v-44.874h7.603v-9.652h-7.603v-44.874h7.603v-323.626z" style="fill:#555558;fill-opacity:1;stroke:#262626;stroke-width:2.0093;stroke-linecap:round;stroke-linejoin:miter;stroke-opacity:1;stop-color:#000"/><path d="M-3623.288-1331.728h11.49v539.325h-11.49z" style="fill:#5f5f62;fill-opacity:1;stroke:#262626;stroke-width:2.0093;stroke-linecap:round;stroke-linejoin:miter;stroke-opacity:1;stop-color:#000"/><path d="M-3611.862-1331.728h11.49v539.325h-11.49z" style="fill:#555558;fill-opacity:1;stroke:#262626;stroke-width:2.0093;stroke-linecap:round;stroke-linejoin:miter;stroke-opacity:1;stop-color:#000"/><path d="M-3554.716-1331.729v323.626h11.49v-323.626zm0 368.5v9.652h11.49v-9.652zm0 54.526v116.3h11.49v-116.3z" style="fill:#5f5f62;fill-opacity:1;stroke:#262626;stroke-width:2.0093;stroke-linecap:round;stroke-linejoin:miter;stroke-opacity:1;stop-color:#000"/><path d="M-3543.29-1331.729v323.626h11.49v-323.626zm0 368.5v9.652h11.49v-9.652zm0 54.526v116.3h11.49v-116.3z" style="fill:#555558;fill-opacity:1;stroke:#262626;stroke-width:2.0093;stroke-linecap:round;stroke-linejoin:miter;stroke-opacity:1;stop-color:#000"/><path d="M-3577.607-1331.729v323.626h11.49v-323.626zm0 368.5v9.652h11.49v-9.652zm0 54.526v116.3h11.49v-116.3z" style="fill:#5f5f62;fill-opacity:1;stroke:#262626;stroke-width:2.0093;stroke-linecap:round;stroke-linejoin:miter;stroke-opacity:1;stop-color:#000"/><path d="M-3566.182-1331.729v323.626h11.491v-323.626zm0 368.5v9.652h11.491v-9.652zm0 54.526v116.3h11.491v-116.3z" style="fill:#555558;fill-opacity:1;stroke:#262626;stroke-width:2.0093;stroke-linecap:round;stroke-linejoin:miter;stroke-opacity:1;stop-color:#000"/><path d="M-3509.076-1331.728h11.49v539.325h-11.49z" style="fill:#5f5f62;fill-opacity:1;stroke:#262626;stroke-width:2.0093;stroke-linecap:round;stroke-linejoin:miter;stroke-opacity:1;stop-color:#000"/><path d="M-3497.65-1331.728h11.49v539.325h-11.49z" style="fill:#555558;fill-opacity:1;stroke:#262626;stroke-width:2.0093;stroke-linecap:round;stroke-linejoin:miter;stroke-opacity:1;stop-color:#000"/><path d="M-3531.967-1331.729v323.626h8.264v44.874h-8.264v9.652h8.264v44.874h-8.264v116.3h11.49v-539.326z" style="fill:#5f5f62;fill-opacity:1;stroke:#262626;stroke-width:2.0093;stroke-linecap:round;stroke-linejoin:miter;stroke-opacity:1;stop-color:#000"/><path d="M-3520.541-1331.728h11.49v539.325h-11.49z" style="fill:#555558;fill-opacity:1;stroke:#262626;stroke-width:2.0093;stroke-linecap:round;stroke-linejoin:miter;stroke-opacity:1;stop-color:#000"/></g><g clip-path="url(#b)" style="stroke-width:1.00466" transform="matrix(.99075 0 0 1 3703.772 1055.773)"><path d="M-3600.397-1331.728h11.49v539.325h-11.49z" style="fill:#5f5f62;fill-opacity:1;stroke:#262626;stroke-width:2.0093;stroke-linecap:round;stroke-linejoin:miter;stroke-opacity:1;stop-color:#000"/><path d="M-3588.971-1331.729v539.326h11.49v-246.638h-7.747v-44.874h7.748v-9.653h-7.748v-44.874h7.748v-193.287z" style="fill:#555558;fill-opacity:1;stroke:#262626;stroke-width:2.0093;stroke-linecap:round;stroke-linejoin:miter;stroke-opacity:1;stop-color:#000"/><path d="M-3623.288-1331.728h11.49v539.325h-11.49z" style="fill:#5f5f62;fill-opacity:1;stroke:#262626;stroke-width:2.0093;stroke-linecap:round;stroke-linejoin:miter;stroke-opacity:1;stop-color:#000"/><path d="M-3611.862-1331.728h11.49v539.325h-11.49z" style="fill:#555558;fill-opacity:1;stroke:#262626;stroke-width:2.0093;stroke-linecap:round;stroke-linejoin:miter;stroke-opacity:1;stop-color:#000"/><path d="M-3554.716-1331.729v193.287h11.49v-193.287zm0 238.161v9.653h11.49v-9.653zm0 54.527v246.638h11.49v-246.638z" style="fill:#5f5f62;fill-opacity:1;stroke:#262626;stroke-width:2.0093;stroke-linecap:round;stroke-linejoin:miter;stroke-opacity:1;stop-color:#000"/><path d="M-3543.29-1331.729v193.287h11.49v-193.287zm0 238.161v9.653h11.49v-9.653zm0 54.527v246.638h11.49v-246.638z" style="fill:#555558;fill-opacity:1;stroke:#262626;stroke-width:2.0093;stroke-linecap:round;stroke-linejoin:miter;stroke-opacity:1;stop-color:#000"/><path d="M-3577.607-1331.729v193.287h11.49v-193.287zm0 238.161v9.653h11.49v-9.653zm0 54.527v246.638h11.49v-246.638z" style="fill:#5f5f62;fill-opacity:1;stroke:#262626;stroke-width:2.0093;stroke-linecap:round;stroke-linejoin:miter;stroke-opacity:1;stop-color:#000"/><path d="M-3566.182-1331.729v193.287h11.491v-193.287zm0 238.161v9.653h11.491v-9.653zm0 54.527v246.638h11.491v-246.638z" style="fill:#555558;fill-opacity:1;stroke:#262626;stroke-width:2.0093;stroke-linecap:round;stroke-linejoin:miter;stroke-opacity:1;stop-color:#000"/><path d="M-3509.076-1331.728h11.49v539.325h-11.49z" style="fill:#5f5f62;fill-opacity:1;stroke:#262626;stroke-width:2.0093;stroke-linecap:round;stroke-linejoin:miter;stroke-opacity:1;stop-color:#000"/><path d="M-3497.65-1331.728h11.49v539.325h-11.49z" style="fill:#555558;fill-opacity:1;stroke:#262626;stroke-width:2.0093;stroke-linecap:round;stroke-linejoin:miter;stroke-opacity:1;stop-color:#000"/><path d="M-3531.967-1331.729v193.287h8.119v44.874h-8.119v9.653h8.119v44.874h-8.119v246.638h11.49v-539.326z" style="fill:#5f5f62;fill-opacity:1;stroke:#262626;stroke-width:2.0093;stroke-linecap:round;stroke-linejoin:miter;stroke-opacity:1;stop-color:#000"/><path d="M-3520.541-1331.728h11.49v539.325h-11.49z" style="fill:#555558;fill-opacity:1;stroke:#262626;stroke-width:2.0093;stroke-linecap:round;stroke-linejoin:miter;stroke-opacity:1;stop-color:#000"/></g><g clip-path="url(#c)" style="stroke-width:1.00466" transform="matrix(.99075 0 0 1 3807.55 863.936)"><path d="M602.32-3729.577h11.49v282.68h-11.49z" style="fill:#5f5f62;fill-opacity:1;stroke:#262626;stroke-width:2.00931;stroke-linecap:round;stroke-linejoin:miter;stroke-opacity:1;stop-color:#000" transform="rotate(-90)"/><path d="M613.746-3729.577h11.49v282.68h-11.49z" style="fill:#555558;fill-opacity:1;stroke:#262626;stroke-width:2.00931;stroke-linecap:round;stroke-linejoin:miter;stroke-opacity:1;stop-color:#000" transform="rotate(-90)"/><path d="M579.428-3729.577h11.49v282.68h-11.49z" style="fill:#5f5f62;fill-opacity:1;stroke:#262626;stroke-width:2.00931;stroke-linecap:round;stroke-linejoin:miter;stroke-opacity:1;stop-color:#000" transform="rotate(-90)"/><path d="M590.854-3729.577h11.49v282.68h-11.49z" style="fill:#555558;fill-opacity:1;stroke:#262626;stroke-width:2.00931;stroke-linecap:round;stroke-linejoin:miter;stroke-opacity:1;stop-color:#000" transform="rotate(-90)"/><path d="M648-3729.577h11.49v282.68H648z" style="fill:#5f5f62;fill-opacity:1;stroke:#262626;stroke-width:2.00931;stroke-linecap:round;stroke-linejoin:miter;stroke-opacity:1;stop-color:#000" transform="rotate(-90)"/><path d="M659.426-3729.577h11.49v282.68h-11.49z" style="fill:#555558;fill-opacity:1;stroke:#262626;stroke-width:2.00931;stroke-linecap:round;stroke-linejoin:miter;stroke-opacity:1;stop-color:#000" transform="rotate(-90)"/><path d="M625.109-3729.577h11.49v282.68h-11.49z" style="fill:#5f5f62;fill-opacity:1;stroke:#262626;stroke-width:2.00931;stroke-linecap:round;stroke-linejoin:miter;stroke-opacity:1;stop-color:#000" transform="rotate(-90)"/><path d="M636.535-3729.577h11.49v282.68h-11.49z" style="fill:#555558;fill-opacity:1;stroke:#262626;stroke-width:2.00931;stroke-linecap:round;stroke-linejoin:miter;stroke-opacity:1;stop-color:#000" transform="rotate(-90)"/><path d="M693.641-3729.577h11.49v282.68h-11.49z" style="fill:#5f5f62;fill-opacity:1;stroke:#262626;stroke-width:2.00931;stroke-linecap:round;stroke-linejoin:miter;stroke-opacity:1;stop-color:#000" transform="rotate(-90)"/><path d="M705.067-3729.577h11.49v282.68h-11.49z" style="fill:#555558;fill-opacity:1;stroke:#262626;stroke-width:2.00931;stroke-linecap:round;stroke-linejoin:miter;stroke-opacity:1;stop-color:#000" transform="rotate(-90)"/><path d="M670.75-3729.577h11.49v282.68h-11.49z" style="fill:#5f5f62;fill-opacity:1;stroke:#262626;stroke-width:2.00931;stroke-linecap:round;stroke-linejoin:miter;stroke-opacity:1;stop-color:#000" transform="rotate(-90)"/><path d="M682.175-3729.577h11.49v282.68h-11.49z" style="fill:#555558;fill-opacity:1;stroke:#262626;stroke-width:2.00931;stroke-linecap:round;stroke-linejoin:miter;stroke-opacity:1;stop-color:#000" transform="rotate(-90)"/></g><g clip-path="url(#d)" style="stroke-width:1.00466" transform="matrix(.99075 0 0 1 3876.062 826.846)"><path d="M-3925.173-803.846h9.975v187.888h-9.975z" style="fill:#5a5a5d;fill-opacity:1;stroke:#262626;stroke-width:2.00931;stroke-linecap:round;stroke-linejoin:miter;stroke-opacity:1;stop-color:#000"/><path d="M-3915.236-803.846h9.978v187.888h-9.978z" style="fill:#505053;fill-opacity:1;stroke:#262626;stroke-width:2.00931;stroke-linecap:round;stroke-linejoin:miter;stroke-opacity:1;stop-color:#000"/><path d="M-3905.28-803.846h9.975v187.888h-9.975z" style="fill:#5a5a5d;fill-opacity:1;stroke:#262626;stroke-width:2.00931;stroke-linecap:round;stroke-linejoin:miter;stroke-opacity:1;stop-color:#000"/><path d="M-3895.343-803.846h9.978v187.888h-9.978z" style="fill:#555558;fill-opacity:1;stroke:#262626;stroke-width:2.00931;stroke-linecap:round;stroke-linejoin:miter;stroke-opacity:1;stop-color:#000"/><path d="M-3885.339-803.846h9.975v187.888h-9.975z" style="fill:#5d5d60;fill-opacity:1;stroke:#262626;stroke-width:2.00931;stroke-linecap:round;stroke-linejoin:miter;stroke-opacity:1;stop-color:#000"/><path d="M-3875.401-803.846h9.978v187.888h-9.978z" style="fill:#555558;fill-opacity:1;stroke:#262626;stroke-width:2.00931;stroke-linecap:round;stroke-linejoin:miter;stroke-opacity:1;stop-color:#000"/><path d="M-3865.446-803.846h9.975v187.888h-9.975z" style="fill:#5d5d60;fill-opacity:1;stroke:#262626;stroke-width:2.00931;stroke-linecap:round;stroke-linejoin:miter;stroke-opacity:1;stop-color:#000"/><path d="M-3855.508-803.846h9.978v187.888h-9.978z" style="fill:#555558;fill-opacity:1;stroke:#262626;stroke-width:2.00931;stroke-linecap:round;stroke-linejoin:miter;stroke-opacity:1;stop-color:#000"/><path d="M-3845.534-803.846h9.975v187.888h-9.975z" style="fill:#5d5d60;fill-opacity:1;stroke:#262626;stroke-width:2.00931;stroke-linecap:round;stroke-linejoin:miter;stroke-opacity:1;stop-color:#000"/><path d="M-3835.597-803.846h9.978v187.888h-9.978z" style="fill:#555558;fill-opacity:1;stroke:#262626;stroke-width:2.00931;stroke-linecap:round;stroke-linejoin:miter;stroke-opacity:1;stop-color:#000"/><path d="M-3825.548-803.846h9.975v187.888h-9.975z" style="fill:#5d5d60;fill-opacity:1;stroke:#262626;stroke-width:2.00931;stroke-linecap:round;stroke-linejoin:miter;stroke-opacity:1;stop-color:#000"/><path d="M-3815.611-803.846h9.978v187.888h-9.978z" style="fill:#505053;fill-opacity:1;stroke:#262626;stroke-width:2.00931;stroke-linecap:round;stroke-linejoin:miter;stroke-opacity:1;stop-color:#000"/></g><g clip-path="url(#e)" style="stroke-width:1.00466" transform="matrix(.99075 0 0 1 3651.849 781.933)"><path d="M650.132-3734.217h9.975v278.938h-9.975z" style="fill:#5a5a5d;fill-opacity:1;stroke:#262626;stroke-width:2.00931;stroke-linecap:round;stroke-linejoin:miter;stroke-opacity:1;stop-color:#000" transform="rotate(-90)"/><path d="M660.07-3734.217h9.978v278.938h-9.978z" style="fill:#505053;fill-opacity:1;stroke:#262626;stroke-width:2.00931;stroke-linecap:round;stroke-linejoin:miter;stroke-opacity:1;stop-color:#000" transform="rotate(-90)"/><path d="M670.025-3734.217H680v278.938h-9.975z" style="fill:#5d5d60;fill-opacity:1;stroke:#262626;stroke-width:2.00931;stroke-linecap:round;stroke-linejoin:miter;stroke-opacity:1;stop-color:#000" transform="rotate(-90)"/><path d="M679.962-3734.217h9.978v278.938h-9.978z" style="fill:#555558;fill-opacity:1;stroke:#262626;stroke-width:2.00931;stroke-linecap:round;stroke-linejoin:miter;stroke-opacity:1;stop-color:#000" transform="rotate(-90)"/><path d="M689.967-3734.217h9.975v278.938h-9.975z" style="fill:#5d5d60;fill-opacity:1;stroke:#262626;stroke-width:2.00931;stroke-linecap:round;stroke-linejoin:miter;stroke-opacity:1;stop-color:#000" transform="rotate(-90)"/><path d="M699.904-3734.217h9.978v278.938h-9.978z" style="fill:#555558;fill-opacity:1;stroke:#262626;stroke-width:2.00931;stroke-linecap:round;stroke-linejoin:miter;stroke-opacity:1;stop-color:#000" transform="rotate(-90)"/><path d="M709.859-3734.217h9.975v278.938h-9.975z" style="fill:#5d5d60;fill-opacity:1;stroke:#262626;stroke-width:2.00931;stroke-linecap:round;stroke-linejoin:miter;stroke-opacity:1;stop-color:#000" transform="rotate(-90)"/><path d="M719.797-3734.217h9.978v278.938h-9.978z" style="fill:#555558;fill-opacity:1;stroke:#262626;stroke-width:2.00931;stroke-linecap:round;stroke-linejoin:miter;stroke-opacity:1;stop-color:#000" transform="rotate(-90)"/><path d="M729.771-3734.217h9.975v278.938h-9.975z" style="fill:#5d5d60;fill-opacity:1;stroke:#262626;stroke-width:2.00931;stroke-linecap:round;stroke-linejoin:miter;stroke-opacity:1;stop-color:#000" transform="rotate(-90)"/><path d="M739.708-3734.217h9.978v278.938h-9.978z" style="fill:#555558;fill-opacity:1;stroke:#262626;stroke-width:2.00931;stroke-linecap:round;stroke-linejoin:miter;stroke-opacity:1;stop-color:#000" transform="rotate(-90)"/><path d="M749.757-3734.217h9.975v278.938h-9.975z" style="fill:#5a5a5d;fill-opacity:1;stroke:#262626;stroke-width:2.00931;stroke-linecap:round;stroke-linejoin:miter;stroke-opacity:1;stop-color:#000" transform="rotate(-90)"/><path d="M759.695-3734.217h9.978v278.938h-9.978z" style="fill:#505053;fill-opacity:1;stroke:#262626;stroke-width:2.00931;stroke-linecap:round;stroke-linejoin:miter;stroke-opacity:1;stop-color:#000" transform="rotate(-90)"/></g><g clip-path="url(#f)" style="stroke-width:1.00466" transform="matrix(.99075 0 0 1 3651.849 878.947)"><path d="M650.132-3734.217h9.975v278.938h-9.975z" style="fill:#5a5a5d;fill-opacity:1;stroke:#262626;stroke-width:2.00931;stroke-linecap:round;stroke-linejoin:miter;stroke-opacity:1;stop-color:#000" transform="rotate(-90)"/><path d="M660.07-3734.217h9.978v278.938h-9.978z" style="fill:#505053;fill-opacity:1;stroke:#262626;stroke-width:2.00931;stroke-linecap:round;stroke-linejoin:miter;stroke-opacity:1;stop-color:#000" transform="rotate(-90)"/><path d="M670.025-3734.217H680v278.938h-9.975z" style="fill:#646468;fill-opacity:1;stroke:#262626;stroke-width:2.00931;stroke-linecap:round;stroke-linejoin:miter;stroke-opacity:1;stop-color:#000" transform="rotate(-90)"/><path d="M679.962-3734.217h9.978v278.938h-9.978z" style="fill:#555558;fill-opacity:1;stroke:#262626;stroke-width:2.00931;stroke-linecap:round;stroke-linejoin:miter;stroke-opacity:1;stop-color:#000" transform="rotate(-90)"/><path d="M689.967-3734.217h9.975v278.938h-9.975z" style="fill:#5d5d60;fill-opacity:1;stroke:#262626;stroke-width:2.00931;stroke-linecap:round;stroke-linejoin:miter;stroke-opacity:1;stop-color:#000" transform="rotate(-90)"/><path d="M699.904-3734.217h9.978v278.938h-9.978z" style="fill:#555558;fill-opacity:1;stroke:#262626;stroke-width:2.00931;stroke-linecap:round;stroke-linejoin:miter;stroke-opacity:1;stop-color:#000" transform="rotate(-90)"/><path d="M709.859-3734.217h9.975v278.938h-9.975z" style="fill:#5d5d60;fill-opacity:1;stroke:#262626;stroke-width:2.00931;stroke-linecap:round;stroke-linejoin:miter;stroke-opacity:1;stop-color:#000" transform="rotate(-90)"/><path d="M719.797-3734.217h9.978v278.938h-9.978z" style="fill:#555558;fill-opacity:1;stroke:#262626;stroke-width:2.00931;stroke-linecap:round;stroke-linejoin:miter;stroke-opacity:1;stop-color:#000" transform="rotate(-90)"/><path d="M729.771-3734.217h9.975v278.938h-9.975z" style="fill:#5d5d60;fill-opacity:1;stroke:#262626;stroke-width:2.00931;stroke-linecap:round;stroke-linejoin:miter;stroke-opacity:1;stop-color:#000" transform="rotate(-90)"/><path d="M739.708-3734.217h9.978v278.938h-9.978z" style="fill:#555558;fill-opacity:1;stroke:#262626;stroke-width:2.00931;stroke-linecap:round;stroke-linejoin:miter;stroke-opacity:1;stop-color:#000" transform="rotate(-90)"/><path d="M749.757-3734.217h9.975v278.938h-9.975z" style="fill:#5d5d60;fill-opacity:1;stroke:#262626;stroke-width:2.00931;stroke-linecap:round;stroke-linejoin:miter;stroke-opacity:1;stop-color:#000" transform="rotate(-90)"/><path d="M759.695-3734.217h9.978v278.938h-9.978z" style="fill:#555558;fill-opacity:1;stroke:#262626;stroke-width:2.00931;stroke-linecap:round;stroke-linejoin:miter;stroke-opacity:1;stop-color:#000" transform="rotate(-90)"/></g><g clip-path="url(#g)" style="stroke-width:1.00466" transform="matrix(0 -1 .99075 0 1543.807 -3100.076)"><path d="M1013.297-3166.624h9.975v242.569h-9.975z" style="fill:#5d5d60;fill-opacity:1;stroke:#262626;stroke-width:2.00931;stroke-linecap:round;stroke-linejoin:miter;stroke-opacity:1;stop-color:#000" transform="rotate(-90)"/><path d="M1023.234-3166.624h9.978v242.569h-9.978z" style="fill:#555558;fill-opacity:1;stroke:#262626;stroke-width:2.00931;stroke-linecap:round;stroke-linejoin:miter;stroke-opacity:1;stop-color:#000" transform="rotate(-90)"/><path d="M1033.189-3166.624h9.975v242.569h-9.975z" style="fill:#5d5d60;fill-opacity:1;stroke:#262626;stroke-width:2.00931;stroke-linecap:round;stroke-linejoin:miter;stroke-opacity:1;stop-color:#000" transform="rotate(-90)"/><path d="M1053.105-2924.055v-242.57h-9.978v242.57z" style="fill:#555558;fill-opacity:1;stroke:#262626;stroke-width:2.00931;stroke-linecap:round;stroke-linejoin:miter;stroke-opacity:1;stop-color:#000" transform="rotate(-90)"/><path d="M1053.131-3166.624h9.975v242.569h-9.975z" style="fill:#5d5d60;fill-opacity:1;stroke:#262626;stroke-width:2.00931;stroke-linecap:round;stroke-linejoin:miter;stroke-opacity:1;stop-color:#000" transform="rotate(-90)"/><path d="M1073.047-2924.055v-101.98l-6.877 6.877-.22.22v-52.035l7.097 7.098v-102.75h-9.978v242.57z" style="fill:#555558;fill-opacity:1;stroke:#262626;stroke-width:2.00931;stroke-linecap:round;stroke-linejoin:miter;stroke-opacity:1;stop-color:#000" transform="rotate(-90)"/><path d="M1083-2924.055v-111.933l-9.976 9.976v101.957zm0-129.868v-112.701h-9.976v102.726z" style="fill:#5d5d60;fill-opacity:1;stroke:#262626;stroke-width:2.00931;stroke-linecap:round;stroke-linejoin:miter;stroke-opacity:1;stop-color:#000" transform="rotate(-90)"/><path d="M1092.94-2924.055v-242.57h-9.979v112.665l9.006 9.005-9.006 9.005v111.895z" style="fill:#555558;fill-opacity:1;stroke:#262626;stroke-width:2.00931;stroke-linecap:round;stroke-linejoin:miter;stroke-opacity:1;stop-color:#000" transform="rotate(-90)"/><path d="M1092.935-3166.624h9.975v242.569h-9.975z" style="fill:#5d5d60;fill-opacity:1;stroke:#262626;stroke-width:2.00931;stroke-linecap:round;stroke-linejoin:miter;stroke-opacity:1;stop-color:#000" transform="rotate(-90)"/><path d="M1102.873-3166.624h9.978v242.569h-9.978z" style="fill:#555558;fill-opacity:1;stroke:#262626;stroke-width:2.00931;stroke-linecap:round;stroke-linejoin:miter;stroke-opacity:1;stop-color:#000" transform="rotate(-90)"/><path d="M1112.921-3166.624h9.975v242.569h-9.975z" style="fill:#5d5d60;fill-opacity:1;stroke:#262626;stroke-width:2.00931;stroke-linecap:round;stroke-linejoin:miter;stroke-opacity:1;stop-color:#000" transform="rotate(-90)"/><path d="M1122.859-3166.624h9.978v242.569h-9.978z" style="fill:#555558;fill-opacity:1;stroke:#262626;stroke-width:2.00931;stroke-linecap:round;stroke-linejoin:miter;stroke-opacity:1;stop-color:#000" transform="rotate(-90)"/></g><path d="M-152.974 56.85V-87.117l76.153 77.055-76.153 77.908zM-71.417-12.418l-79.522-80.083h106.663c25.732 25.953 52.86 54.625 78.1 80.083zM-71.417-7.649l-79.522 80.083h106.663c25.732-25.953 52.86-54.625 78.1-80.083Z" style="fill:none;fill-opacity:1;stroke:#262626;stroke-width:2;stroke-linecap:round;stroke-linejoin:round;stroke-opacity:1;stop-color:#000" transform="translate(173.037 130.969)"/><g clip-path="url(#h)" style="stroke-width:1.00466" transform="matrix(.99075 0 0 1 3413.378 1065.056)"><path d="M1013.297-3166.624h9.975v242.569h-9.975z" style="fill:#5d5d60;fill-opacity:1;stroke:#262626;stroke-width:2.00931;stroke-linecap:round;stroke-linejoin:miter;stroke-opacity:1;stop-color:#000" transform="rotate(-90)"/><path d="M1023.234-3166.624h9.978v242.569h-9.978z" style="fill:#555558;fill-opacity:1;stroke:#262626;stroke-width:2.00931;stroke-linecap:round;stroke-linejoin:miter;stroke-opacity:1;stop-color:#000" transform="rotate(-90)"/><path d="M1033.189-3166.624h9.975v242.569h-9.975z" style="fill:#5d5d60;fill-opacity:1;stroke:#262626;stroke-width:2.00931;stroke-linecap:round;stroke-linejoin:miter;stroke-opacity:1;stop-color:#000" transform="rotate(-90)"/><path d="M1043.127-3166.624h9.978v242.569h-9.978z" style="fill:#555558;fill-opacity:1;stroke:#262626;stroke-width:2.00931;stroke-linecap:round;stroke-linejoin:miter;stroke-opacity:1;stop-color:#000" transform="rotate(-90)"/><path d="M1053.131-3166.624h9.975v242.569h-9.975z" style="fill:#5d5d60;fill-opacity:1;stroke:#262626;stroke-width:2.00931;stroke-linecap:round;stroke-linejoin:miter;stroke-opacity:1;stop-color:#000" transform="rotate(-90)"/><path d="M1063.069-3166.624h9.978v242.569h-9.978z" style="fill:#555558;fill-opacity:1;stroke:#262626;stroke-width:2.00931;stroke-linecap:round;stroke-linejoin:miter;stroke-opacity:1;stop-color:#000" transform="rotate(-90)"/><path d="M1073.024-3166.624h9.975v242.569h-9.975z" style="fill:#5d5d60;fill-opacity:1;stroke:#262626;stroke-width:2.00931;stroke-linecap:round;stroke-linejoin:miter;stroke-opacity:1;stop-color:#000" transform="rotate(-90)"/><path d="M1082.961-3166.624h9.978v242.569h-9.978z" style="fill:#555558;fill-opacity:1;stroke:#262626;stroke-width:2.00931;stroke-linecap:round;stroke-linejoin:miter;stroke-opacity:1;stop-color:#000" transform="rotate(-90)"/><path d="M1092.935-3166.624h9.975v242.569h-9.975z" style="fill:#5d5d60;fill-opacity:1;stroke:#262626;stroke-width:2.00931;stroke-linecap:round;stroke-linejoin:miter;stroke-opacity:1;stop-color:#000" transform="rotate(-90)"/><path d="M1102.873-3166.624h9.978v242.569h-9.978z" style="fill:#555558;fill-opacity:1;stroke:#262626;stroke-width:2.00931;stroke-linecap:round;stroke-linejoin:miter;stroke-opacity:1;stop-color:#000" transform="rotate(-90)"/><path d="M1112.921-3166.624h9.975v242.569h-9.975z" style="fill:#5d5d60;fill-opacity:1;stroke:#262626;stroke-width:2.00931;stroke-linecap:round;stroke-linejoin:miter;stroke-opacity:1;stop-color:#000" transform="rotate(-90)"/><path d="M1132.837-3166.624h-9.978v190.318l9.978 9.978zm0 213.654h-9.978v28.915h9.978z" style="fill:#555558;fill-opacity:1;stroke:#262626;stroke-width:2.00931;stroke-linecap:round;stroke-linejoin:miter;stroke-opacity:1;stop-color:#000" transform="rotate(-90)"/></g><path d="m256.556-183.932 71.28 71.66h-140.68c-26.387-25.624.635.603-73.294-71.66zM327.824-127.293v-127.04l-67.042 67.995 67.042 68.747zM-40.355-384.63v288.892L42.763-9.97l-83.118 85.768v48.235l.275-.206L69.866 14.423V-274.72z" style="fill:none;fill-opacity:1;stroke:#262626;stroke-width:2;stroke-linecap:round;stroke-linejoin:round;stroke-opacity:1;stop-color:#000" transform="translate(173.037 130.969)"/><path d="M185.178-384.63 75.676-274.853V14.446l109.227 110.042.275.206v-232.05l-79.48-79.06 79.48-78.504zM-20.472 126.875H179.89L72.652 18.763-35.773 126.875Z" style="fill:none;fill-opacity:1;stroke:#262626;stroke-width:2;stroke-linecap:round;stroke-linejoin:round;stroke-opacity:1;stop-color:#000" transform="translate(173.037 130.969)"/><path d="M-152.974-87.118V67.845l76.152-77.907zm81.556 79.47-79.522 80.082h106.663C-18.544 46.482 8.583 17.81 33.825-7.649Zm144.07 26.411L-35.773 126.874H179.89Z" style="opacity:.21;fill:#000;fill-opacity:1;stroke:#000;stroke-width:2;stroke-linecap:round;stroke-linejoin:round;stroke-opacity:1;stop-color:#000" transform="translate(173.037 130.969)"/><path d="M-40.355-384.607v288.893L42.763-9.946l-83.118 85.768v48.235l.275-.207L69.866 14.447v-289.143zm19.016 170.993h60.812v44.875h-60.812zm135.2 29.706c73.93 72.263 46.908 46.036 73.295 71.66h140.68l-71.28-71.66zm-135.2 24.821h60.812v44.874h-60.812zm-129.6 66.61 79.522 80.083H33.825c-25.242-25.459-52.37-54.13-78.102-80.083Z" style="opacity:.13;fill:#000;fill-opacity:1;stroke:#000;stroke-width:2;stroke-linecap:round;stroke-linejoin:round;stroke-opacity:1;stop-color:#000" transform="translate(173.037 130.969)"/></svg>