<?xml version="1.0" encoding="UTF-8" standalone="no"?>
<!-- Generator: Adobe Illustrator 27.0.0, SVG Export Plug-In . SVG Version: 6.00 Build 0)  -->

<svg
   version="1.1"
   id="Layer_1"
   x="0px"
   y="0px"
   viewBox="0 0 119.5 22.806547"
   xml:space="preserve"
   sodipodi:docname="ak47_world.svg"
   width="119.5"
   height="22.806547"
   inkscape:version="1.3 (0e150ed6c4, 2023-07-21)"
   xmlns:inkscape="http://www.inkscape.org/namespaces/inkscape"
   xmlns:sodipodi="http://sodipodi.sourceforge.net/DTD/sodipodi-0.dtd"
   xmlns="http://www.w3.org/2000/svg"
   xmlns:svg="http://www.w3.org/2000/svg"><defs
   id="defs1" /><sodipodi:namedview
   id="namedview1"
   pagecolor="#505050"
   bordercolor="#eeeeee"
   borderopacity="1"
   inkscape:showpageshadow="0"
   inkscape:pageopacity="0"
   inkscape:pagecheckerboard="0"
   inkscape:deskcolor="#505050"
   inkscape:zoom="1.69375"
   inkscape:cx="53.726937"
   inkscape:cy="6.199262"
   inkscape:window-width="1920"
   inkscape:window-height="1009"
   inkscape:window-x="1912"
   inkscape:window-y="-8"
   inkscape:window-maximized="1"
   inkscape:current-layer="Layer_1" />&#10;<style
   type="text/css"
   id="style1">&#10;	.st0{fill:#7D521B;stroke:#261A08;stroke-width:3;stroke-linecap:round;stroke-linejoin:round;stroke-miterlimit:11.3386;}&#10;	.st1{fill:#434343;stroke:#000000;stroke-width:3;stroke-linecap:round;stroke-linejoin:round;stroke-miterlimit:11.3386;}&#10;	.st2{fill:#1A1A1A;}&#10;	.st3{fill:#171717;}&#10;	.st4{fill:#3C3C3C;stroke:#171717;stroke-width:3;stroke-linecap:round;stroke-linejoin:round;stroke-miterlimit:11.3386;}&#10;	.st5{fill:#505050;stroke:#171717;stroke-width:3;stroke-linecap:round;stroke-linejoin:round;stroke-miterlimit:11.3386;}&#10;	.st6{fill:none;stroke:#171717;stroke-width:3;stroke-linecap:round;stroke-linejoin:round;stroke-miterlimit:11.3386;}&#10;</style>&#10;<g
   id="layer1"
   transform="translate(-381.4,-372.99345)">&#10;	<path
   id="rect2023"
   class="st0"
   d="m 408.9,379.7 v 5 c 0,1 -0.5,1.9 -1.1,1.9 H 384 c -0.6,0 -1.1,-0.8 -1.1,-1.9 v -5 c 0,-1 0.5,-1.9 1.1,-1.9 h 23.8 c 0.6,0 1.1,0.9 1.1,1.9 z" />&#10;	<path
   id="rect2077"
   class="st1"
   d="M 452.9,388.2 H 401.3 L 400,386 v -7.5 l 1.3,-2.3 h 51.6 z" />&#10;	<path
   id="path2637"
   class="st2"
   d="m 404.4,375.5 -3.8,0.1 v 13.8 l 3.8,0.1 v -4.3 l 1.6,-1 v -4.1 l -1.6,-1 z" />&#10;	<path
   id="path2938"
   class="st3"
   d="m 440.5,389.5 v 5.8 c 0,0.1 0,0.1 0,0.2 l -0.1,0.1 c -0.1,0.1 -0.2,0.2 -0.3,0.2 h -0.9 c -0.1,0 -0.2,-0.1 -0.3,-0.2 l -0.1,-0.1 c 0,0 0,-0.1 0,-0.2 V 394 c -0.1,-0.5 0,-1 -0.3,-1.4 -0.7,-1 -1.8,-1.3 -2.4,-1.8 -0.3,-0.3 -0.2,-1 -0.5,-1.3 z" />&#10;	<rect
   id="rect5115"
   x="479"
   y="378.89999"
   class="st4"
   width="20.4"
   height="6.6999998" />&#10;	<path
   id="rect983"
   class="st5"
   d="M 449.3,376.4 V 388 h -12 v -2.8 l 7.6,-1.6 v -2.7 l -7.6,-1.6 v -2.8 h 12 z" />&#10;	<path
   id="path1772"
   class="st6"
   d="M 452.9,388.2 H 401.3 L 400,386 v -7.5 l 1.3,-2.3 h 51.6 z" />&#10;	<path
   id="rect5006"
   class="st0"
   d="m 485.9,380.5 v 3.4 c 0,2.6 -1.8,4.8 -4.5,4.9 l -26,1.3 c -1.3,0 -2.4,-1 -2.4,-2.3 v -11 c 0,-1.3 1.1,-2.4 2.4,-2.3 l 26,1.3 c 2.6,0 4.5,2.1 4.5,4.7 z" />&#10;</g>&#10;</svg>
