<?xml version="1.0" encoding="UTF-8" standalone="no"?>
<svg
   id="svg1"
   viewBox="0 0 122.76872 22.806982"
   version="1.1"
   sodipodi:docname="ak47_world.svg"
   xml:space="preserve"
   inkscape:version="1.1.2 (0a00cf5339, 2022-02-04)"
   width="122.76871"
   height="22.806982"
   xmlns:inkscape="http://www.inkscape.org/namespaces/inkscape"
   xmlns:sodipodi="http://sodipodi.sourceforge.net/DTD/sodipodi-0.dtd"
   xmlns="http://www.w3.org/2000/svg"
   xmlns:svg="http://www.w3.org/2000/svg"><g
     id="g928"
     transform="matrix(1.3266069,0,0,1.3460744,-0.41788378,-0.19778033)"
     style="stroke-width:0.748332"><path
       id="rect2023-2"
       class="cls-6"
       d="m 37.7375,5.31375 v 3.7 c 0,0.77 -0.69,1.4 -1.53,1.4 h -33.24 c -0.85,0 -1.53,-0.64 -1.53,-1.4 v -3.7 c 0,-0.77 0.69,-1.4 1.53,-1.4 h 33.24 c 0.85,0 1.53,0.61 1.53,1.4 z" /><path
       id="rect2077-2"
       class="cls-5"
       d="m 57.030305,11.560261 h -36.07 l -0.87,-1.69 v -5.56 l 0.87,-1.69 h 36.07 z" /><path
       id="path2637-2"
       class="cls-2"
       d="m 23.110305,2.090261 -2.65,0.08 v 10.24 l 2.65,0.08 v -3.17 l 1.14,-0.71 v -3.04 l -1.14,-0.71 z"
       style="stroke-width:0.748332" /><path
       id="path2938-2"
       class="cls-1"
       d="m 48.350305,12.460261 0.03,4.29 c 0,0.05 0,0.08 -0.03,0.13 l -0.03,0.08 c -0.05,0.08 -0.13,0.13 -0.21,0.13 h -0.61 c -0.08,0 -0.16,-0.05 -0.21,-0.13 l -0.03,-0.08 c 0,0 -0.03,-0.08 -0.03,-0.13 v -0.95 c -0.03,-0.4 -0.03,-0.74 -0.24,-1.06 -0.53,-0.74 -1.27,-0.93 -1.69,-1.35 -0.24,-0.24 -0.16,-0.71 -0.37,-0.93 h 3.41 z"
       style="stroke-width:0.748332" /><rect
       id="rect5115-2"
       class="cls-4"
       x="75.342094"
       y="4.6620498"
       width="16.393812"
       height="4.836422" /><path
       id="rect983-2"
       class="cls-3"
       d="m 54.510305,2.780261 v 8.6 h -8.36 v -2.09 l 5.32,-1.19 v -2.04 l -5.32,-1.19 v -2.09 z" /><path
       id="path1772-2"
       class="cls-7"
       d="m 57.030305,11.560261 h -36.07 l -0.87,-1.69 v -5.56 l 0.87,-1.69 h 36.07 z" /><path
       id="rect5006-2"
       class="cls-6"
       d="m 80.050305,5.820261 v 2.51 c 0,1.96 -1.3,3.57 -3.15,3.62 l -18.2,0.93 c -0.93,0.03 -1.69,-0.74 -1.69,-1.72 v -8.17 c 0,-0.98 0.77,-1.75 1.69,-1.72 l 18.2,0.93 c 1.85,0.08 3.15,1.67 3.15,3.62 z" /><g
       id="g2"
       transform="matrix(0,7.5169631,-3.8917588,0,590.73896,-775.72388)"
       style="stroke:#1a1a1a;stroke-width:0.131771;stroke-dasharray:none;stroke-opacity:1"><path
         style="fill:none;stroke:#1a1a1a;stroke-width:0.131771;stroke-linecap:round;stroke-linejoin:miter;stroke-dasharray:none;stroke-opacity:1"
         d="m 104.3899,140.23528 v 5.20212"
         id="path1"
         sodipodi:nodetypes="cc" /><path
         style="fill:none;stroke:#1a1a1a;stroke-width:0.131771;stroke-linecap:round;stroke-linejoin:miter;stroke-dasharray:none;stroke-opacity:1"
         d="m 103.89042,140.23528 v 5.20212"
         id="path2"
         sodipodi:nodetypes="cc" /></g></g><sodipodi:namedview
     id="namedview1"
     pagecolor="#505050"
     bordercolor="#ffffff"
     borderopacity="1"
     inkscape:showpageshadow="0"
     inkscape:pageopacity="0"
     inkscape:pagecheckerboard="1"
     inkscape:deskcolor="#505050"
     inkscape:zoom="8.0000004"
     inkscape:cx="41.374998"
     inkscape:cy="6.4999997"
     inkscape:window-width="2560"
     inkscape:window-height="1372"
     inkscape:window-x="0"
     inkscape:window-y="0"
     inkscape:window-maximized="1"
     inkscape:current-layer="svg1"
     inkscape:pageshadow="0"
     showgrid="false" /><defs
     id="defs1"><style
       id="style1">
      .cls-1 {
        fill: #171717;
      }

      .cls-2 {
        fill: #1a1a1a;
      }

      .cls-3 {
        fill: #505050;
        stroke-width: 1.5px;
      }

      .cls-3, .cls-4, .cls-5, .cls-6, .cls-7 {
        stroke-linecap: round;
        stroke-linejoin: round;
      }

      .cls-3, .cls-4, .cls-5, .cls-7 {
        stroke: #171717;
      }

      .cls-4 {
        fill: #3c3c3c;
      }

      .cls-4, .cls-5, .cls-6, .cls-7 {
        stroke-width: 3px;
      }

      .cls-5 {
        fill: #434343;
      }

      .cls-6 {
        fill: #7d521b;
        stroke: #261a08;
      }

      .cls-7 {
        fill: none;
      }
    </style><inkscape:path-effect
       effect="fillet_chamfer"
       id="path-effect5681"
       is_visible="true"
       lpeversion="1"
       nodesatellites_param="F,0,0,1,0,0.13022528,0,1 @ F,0,0,1,0,0.40340994,0,1 @ F,0,0,1,0,0.40340994,0,1 @ F,0,1,1,0,0.13022528,0,1"
       unit="px"
       method="auto"
       mode="F"
       radius="0"
       chamfer_steps="1"
       flexible="false"
       use_knot_distance="true"
       apply_no_radius="true"
       apply_with_radius="true"
       only_selected="false"
       hide_knots="false"
       satellites_param="" /><inkscape:path-effect
       effect="fillet_chamfer"
       id="path-effect5679"
       is_visible="true"
       lpeversion="1"
       nodesatellites_param="F,0,0,1,0,0,0,1 @ F,0,0,1,0,0,0,1 @ F,0,0,1,0,0,0,1 @ F,0,0,1,0,0.30813358,0,1 @ F,0,1,1,0,0.30813358,0,1 @ F,0,0,1,0,0,0,1"
       unit="px"
       method="auto"
       mode="F"
       radius="0"
       chamfer_steps="1"
       flexible="false"
       use_knot_distance="true"
       apply_no_radius="true"
       apply_with_radius="true"
       only_selected="false"
       hide_knots="false"
       satellites_param="" /><inkscape:path-effect
       effect="fillet_chamfer"
       id="path-effect5009"
       is_visible="true"
       lpeversion="1"
       nodesatellites_param="F,0,1,1,0,0.2234803,0,1 @ F,0,0,1,0,0.2234803,0,1 @ F,0,0,1,0,0,0,1 @ F,0,0,1,0,0,0,1"
       unit="px"
       method="auto"
       mode="F"
       radius="0"
       chamfer_steps="1"
       flexible="false"
       use_knot_distance="true"
       apply_no_radius="true"
       apply_with_radius="true"
       only_selected="false"
       hide_knots="false"
       satellites_param="" /><inkscape:path-effect
       effect="fillet_chamfer"
       id="path-effect3009"
       is_visible="true"
       lpeversion="1"
       nodesatellites_param="F,0,0,1,0,0,0,1 @ F,0,1,1,0,0.012714645,0,1 @ F,0,0,1,0,0.032170229,0,1 @ F,0,0,1,0,0.032170229,0,1 @ F,0,0,1,0,0.012714645,0,1 @ F,0,0,1,0,0,0,1 @ F,0,0,1,0,0,0,1 @ F,0,0,1,0,0,0,1 @ F,0,0,1,0,0,0,1"
       unit="px"
       method="auto"
       mode="F"
       radius="0"
       chamfer_steps="1"
       flexible="false"
       use_knot_distance="true"
       apply_no_radius="true"
       apply_with_radius="true"
       only_selected="false"
       hide_knots="false"
       satellites_param="" /></defs></svg>
