<?xml version="1.0" encoding="utf-8"?>
<!-- Generator: Adobe Illustrator 27.0.0, SVG Export Plug-In . SVG Version: 6.00 Build 0)  -->
<svg version="1.1" id="Layer_1" xmlns="http://www.w3.org/2000/svg" xmlns:xlink="http://www.w3.org/1999/xlink" x="0px" y="0px"
	 viewBox="0 0 640 480" style="enable-background:new 0 0 640 480;" xml:space="preserve">
<style type="text/css">
	.st0{fill:#7D521B;stroke:#261A08;stroke-width:3;stroke-linecap:round;stroke-linejoin:round;stroke-miterlimit:11.3386;}
	.st1{fill:#434343;stroke:#000000;stroke-width:3;stroke-linecap:round;stroke-linejoin:round;stroke-miterlimit:11.3386;}
	.st2{fill:#1A1A1A;}
	.st3{fill:#171717;}
	.st4{fill:#3C3C3C;stroke:#171717;stroke-width:3;stroke-linecap:round;stroke-linejoin:round;stroke-miterlimit:11.3386;}
	.st5{fill:#505050;stroke:#171717;stroke-width:3;stroke-linecap:round;stroke-linejoin:round;stroke-miterlimit:11.3386;}
	.st6{fill:none;stroke:#171717;stroke-width:3;stroke-linecap:round;stroke-linejoin:round;stroke-miterlimit:11.3386;}
</style>
<g id="layer1" transform="translate(-115.22744,-139.00789)">
	<path id="rect2023" class="st0" d="M408.9,379.7v5c0,1-0.5,1.9-1.1,1.9H384c-0.6,0-1.1-0.8-1.1-1.9v-5c0-1,0.5-1.9,1.1-1.9h23.8
		C408.4,377.8,408.9,378.7,408.9,379.7z"/>
	<path id="rect2077" class="st1" d="M452.9,388.2h-51.6L400,386v-7.5l1.3-2.3h51.6V388.2z"/>
	<path id="path2637" class="st2" d="M404.4,375.5l-3.8,0.1v13.8l3.8,0.1v-4.3l1.6-1v-4.1l-1.6-1V375.5z"/>
	<path id="path2938" class="st3" d="M440.5,389.5l0,5.8c0,0.1,0,0.1,0,0.2l-0.1,0.1c-0.1,0.1-0.2,0.2-0.3,0.2h-0.9
		c-0.1,0-0.2-0.1-0.3-0.2l-0.1-0.1c0,0,0-0.1,0-0.2V394c-0.1-0.5,0-1-0.3-1.4c-0.7-1-1.8-1.3-2.4-1.8c-0.3-0.3-0.2-1-0.5-1.3
		L440.5,389.5z"/>
	<rect id="rect5115" x="479" y="378.9" class="st4" width="20.4" height="6.7"/>
	<path id="rect983" class="st5" d="M449.3,376.4V388h-12v-2.8l7.6-1.6v-2.7l-7.6-1.6v-2.8H449.3z"/>
	<path id="path1772" class="st6" d="M452.9,388.2h-51.6L400,386v-7.5l1.3-2.3h51.6V388.2z"/>
	<path id="rect5006" class="st0" d="M485.9,380.5v3.4c0,2.6-1.8,4.8-4.5,4.9l-26,1.3c-1.3,0-2.4-1-2.4-2.3v-11
		c0-1.3,1.1-2.4,2.4-2.3l26,1.3C484,375.8,485.9,377.9,485.9,380.5L485.9,380.5z"/>
</g>
</svg>