<?xml version="1.0" encoding="UTF-8" standalone="no" ?>
<!DOCTYPE svg PUBLIC "-//W3C//DTD SVG 1.1//EN" "http://www.w3.org/Graphics/SVG/1.1/DTD/svg11.dtd">
<svg xmlns="http://www.w3.org/2000/svg" xmlns:xlink="http://www.w3.org/1999/xlink" version="1.1" width="110" height="110" viewBox="0 0 110 110" xml:space="preserve">
<desc>Created with Fabric.js 5.3.0</desc>
<defs>
</defs>
<g transform="matrix(1.2307722687 0 0 1.2307722687 18.8597359214 86.3607155295)" id="yruLZWkiuXN_6jw3t8Sgs" clip-path="url(#CLIPPATH_161)"  >
<clipPath id="CLIPPATH_161" >
	<rect id="rect72" x="-55" y="-55" rx="0" ry="0" width="110" height="110" />
</clipPath>
<path style="stroke: none; stroke-width: 1; stroke-dasharray: none; stroke-linecap: butt; stroke-dashoffset: 0; stroke-linejoin: miter; stroke-miterlimit: 4; fill: rgb(198,101,16); fill-rule: nonzero; opacity: 1;"  transform=" translate(-40.3448579156, -68.2729199148)" d="M 35.553 64.5871 C 35.4602 64.4264 35.347899999999996 64.16990000000001 35.347899999999996 64.16990000000001 L 43.0937 60.39910000000001 C 43.0937 60.39910000000001 43.8604 61.67540000000001 43.9222 61.78250000000001 C 43.9841 61.889600000000016 43.9984 61.96610000000001 43.9377 62.10270000000001 C 43.7913 62.432000000000016 43.7317 62.36440000000001 43.599 62.69110000000001 C 43.46619999999999 63.01770000000001 43.4477 63.17120000000001 43.4488 63.420400000000015 C 43.4767 63.65430000000001 43.7038 71.59260000000002 44.0787 71.37610000000001 C 44.0787 71.37610000000001 44.6674 71.5361 45.0607 72.27310000000001 C 45.45399999999999 73.01000000000002 45.3197 73.58750000000002 45.3197 73.58750000000002 C 45.3197 73.58750000000002 44.5834 74.47670000000002 43.5432 75.14870000000002 C 42.1661 75.97950000000002 41.4265 76.12080000000002 41.4265 76.12080000000002 C 41.4265 76.12080000000002 40.537499999999994 76.31270000000002 39.7637 75.65260000000002 C 38.9898 74.99260000000002 38.6505 73.72460000000002 38.6505 73.72460000000002 C 38.3618 71.89380000000003 37.9041 68.25420000000003 37.6449 66.66420000000002 C 37.6449 66.66420000000002 37.5819 66.30780000000003 37.4582 66.09360000000002 C 37.4582 66.09360000000002 37.2329 65.64140000000002 36.491699999999994 65.22340000000003 C 35.750499999999995 64.80540000000002 35.754 64.93520000000002 35.553 64.58710000000002 z" stroke-linecap="round" />
</g>
<g transform="matrix(1.2307722687 0 0 1.2307722687 18.8597359214 86.3607155295)" id="11XqjrBTN6t4F3K3Mw57z" clip-path="url(#CLIPPATH_162)"  >
<clipPath id="CLIPPATH_162" >
	<rect id="rect72" x="-55" y="-55" rx="0" ry="0" width="110" height="110" />
</clipPath>
<path style="stroke: rgb(77,55,25); stroke-width: 1.14284; stroke-dasharray: none; stroke-linecap: butt; stroke-dashoffset: 0; stroke-linejoin: miter; stroke-miterlimit: 3.99393; fill: rgb(163,76,76); fill-opacity: 0; fill-rule: nonzero; opacity: 1;"  transform=" translate(0, 0)" d="M -4.99696 -4.10302 C -4.99696 -4.10302 -4.884659999999999 -3.84652 -4.79186 -3.6858199999999997 M -4.99696 -4.10302 L -4.79186 -3.6858199999999997 M -4.99696 -4.10302 L 2.7488400000000004 -7.87382 C 2.7488400000000004 -7.87382 3.5155400000000006 -6.59752 3.5773400000000004 -6.49042 C 3.6392400000000005 -6.38332 3.6535400000000005 -6.30682 3.5928400000000003 -6.1702200000000005 C 3.4464400000000004 -5.840920000000001 3.3868400000000003 -5.90852 3.2541400000000005 -5.5818200000000004 C 3.1213400000000004 -5.2552200000000004 3.1028400000000005 -5.10172 3.1039400000000006 -4.85252 C 3.1318400000000004 -4.61862 3.3589400000000005 3.31968 3.7338400000000007 3.10318 C 3.7338400000000007 3.10318 4.322540000000001 3.26318 4.715840000000001 4.00018 C 5.109140000000001 4.737080000000001 4.974840000000001 5.31458 4.974840000000001 5.31458 C 4.974840000000001 5.31458 4.238540000000001 6.20378 3.1983400000000013 6.875780000000001 C 1.8212400000000013 7.706580000000001 1.0816400000000015 7.847880000000001 1.0816400000000015 7.847880000000001 C 1.0816400000000015 7.847880000000001 0.19264000000000148 8.03978 -0.5811599999999986 7.3796800000000005 C -1.3550599999999986 6.71968 -1.6943599999999985 5.4516800000000005 -1.6943599999999985 5.4516800000000005 C -1.9830599999999985 3.6208800000000005 -2.4407599999999983 -0.018719999999999182 -2.6999599999999986 -1.608719999999999 C -2.6999599999999986 -1.608719999999999 -2.7629599999999988 -1.965119999999999 -2.8866599999999987 -2.179319999999999 C -2.8866599999999987 -2.179319999999999 -3.1119599999999985 -2.6315199999999987 -3.8531599999999986 -3.049519999999999 C -4.594359999999998 -3.467519999999999 -4.590859999999998 -3.337719999999999 -4.791859999999999 -3.6858199999999988" stroke-linecap="round" />
</g>
<g transform="matrix(1.2307722687 0 0 1.2307722687 36.6436556872 55.4142146333)" id="XqvbCO1iRxFtuLTHQI7HX" clip-path="url(#CLIPPATH_163)"  >
<clipPath id="CLIPPATH_163" >
	<rect id="rect72" x="-55" y="-55" rx="0" ry="0" width="110" height="110" />
</clipPath>
<path style="stroke: none; stroke-width: 1; stroke-dasharray: none; stroke-linecap: butt; stroke-dashoffset: 0; stroke-linejoin: miter; stroke-miterlimit: 4; fill: rgb(72,72,72); fill-rule: nonzero; opacity: 1;"  transform=" translate(-54.7942570595, -43.12895)" d="M 60.3988 41.4572 L 50.062 47.4251 L 49.3199 46.1397 C 48.8859 45.1406 49.6716 44.151399999999995 49.725199999999994 44.1205 L 58.883599999999994 38.8328 z" stroke-linecap="round" />
</g>
<g transform="matrix(1.2307722687 0 0 1.2307722687 71.2868094317 35.3171804122)" id="M5_OXN4pKus104NpjLt6v" clip-path="url(#CLIPPATH_164)"  >
<clipPath id="CLIPPATH_164" >
	<rect id="rect72" x="-55" y="-55" rx="0" ry="0" width="110" height="110" />
</clipPath>
<path style="stroke: rgb(50,50,50); stroke-width: 1.14284; stroke-dasharray: none; stroke-linecap: butt; stroke-dashoffset: 0; stroke-linejoin: miter; stroke-miterlimit: 3.99393; fill: rgb(58,58,58); fill-rule: nonzero; opacity: 1;"  transform=" translate(-82.94175, -26.80015)" d="M 80.7179 24.5127 L 82.2123 27.148999999999997 L 83.8897 30.108099999999997 L 85.16560000000001 29.371499999999997 L 83.46490000000001 26.4258 L 84.00050000000002 26.1166 L 82.48530000000002 23.492199999999997 z" stroke-linecap="round" />
</g>
<g transform="matrix(1.2307722687 0 0 1.2307722687 48.9656466437 71.8972091646)" id="omntGx2zaiNW3CWFoeTfa" clip-path="url(#CLIPPATH_165)"  >
<clipPath id="CLIPPATH_165" >
	<rect id="rect72" x="-55" y="-55" rx="0" ry="0" width="110" height="110" />
</clipPath>
<path style="stroke: rgb(50,50,50); stroke-width: 1.14284; stroke-dasharray: none; stroke-linecap: butt; stroke-dashoffset: 0; stroke-linejoin: miter; stroke-miterlimit: 3.99393; fill: rgb(147,75,34); fill-rule: nonzero; opacity: 1;"  transform=" translate(-64.80585, -56.52135)" d="M 51.8948 52.4393 C 55.1663 56.74250000000001 58.2347 59.3444 61.8499 61.256 C 65.86749999999999 63.3805 70.1377 65.1832 77.184 65.3282 L 77.7169 56.665499999999994 C 73.3552 56.470099999999995 70.386 55.665299999999995 67.58869999999999 54.336499999999994 C 64.75119999999998 52.98859999999999 62.06919999999999 51.12389999999999 59.31179999999999 47.714499999999994 z" stroke-linecap="round" />
</g>
<g transform="matrix(1.2307722687 0 0 1.2307722687 52.3422703629 68.1927692517)" id="KivnTfxxX5Ls6brdfem4j" clip-path="url(#CLIPPATH_166)"  >
<clipPath id="CLIPPATH_166" >
	<rect id="rect72" x="-55" y="-55" rx="0" ry="0" width="110" height="110" />
</clipPath>
<path style="stroke: rgb(50,50,50); stroke-width: 0.571422; stroke-dasharray: none; stroke-linecap: butt; stroke-dashoffset: 0; stroke-linejoin: miter; stroke-miterlimit: 3.99393; fill: rgb(186,95,14); fill-rule: nonzero; opacity: 1;"  transform=" translate(-67.54935, -53.5115)" d="M 77.7389 59.0586 C 72.9357 58.8231 69.2197 57.6235 65.833 56.0658 C 62.6853 54.618 59.9542 52.4266 57.2292 49.3776 L 59.4477 47.9644 C 62.210899999999995 51.3868 64.898 53.2564 67.7413 54.607 C 70.5386 55.9358 73.5077 56.7407 77.86949999999999 56.936 z" stroke-linecap="round" />
</g>
<g transform="matrix(1.2307722687 0 0 1.2307722687 24.6499180848 74.591734467)" id="ecSiAXnCpltSWo6yKeTYU" clip-path="url(#CLIPPATH_167)"  >
<clipPath id="CLIPPATH_167" >
	<rect id="rect72" x="-55" y="-55" rx="0" ry="0" width="110" height="110" />
</clipPath>
<path style="stroke: rgb(50,50,50); stroke-width: 0.571422; stroke-dasharray: none; stroke-linecap: butt; stroke-dashoffset: 0; stroke-linejoin: miter; stroke-miterlimit: 3.99393; fill: rgb(54,54,54); fill-rule: nonzero; opacity: 1;"  transform=" translate(-45.0493693111, -58.7106464042)" d="M 42.5942 58.7003 L 45.1061 57.1002 C 44.595099999999995 58.158500000000004 44.87 58.8798 45.1975 59.3031 C 45.525999999999996 59.7275 45.9214 60.0991 47.278099999999995 59.8515 C 47.5365 59.804300000000005 47.617 60.1912 47.287499999999994 60.238800000000005 C 45.668299999999995 60.4727 45.035399999999996 60.25790000000001 44.21719999999999 58.9408 C 43.56769999999999 59.2216 43.19639999999999 59.1511 42.594199999999994 58.700300000000006 z" stroke-linecap="round" />
</g>
<g transform="matrix(1.2307722687 0 0 1.2307722687 27.7475523259 73.4803278684)" id="AR-gFPNCgP9eQ0CLKITRH" clip-path="url(#CLIPPATH_168)"  >
<clipPath id="CLIPPATH_168" >
	<rect id="rect72" x="-55" y="-55" rx="0" ry="0" width="110" height="110" />
</clipPath>
<path style="stroke: rgb(50,50,50); stroke-width: 0.571422; stroke-dasharray: none; stroke-linecap: butt; stroke-dashoffset: 0; stroke-linejoin: miter; stroke-miterlimit: 3.99393; fill: rgb(55,55,55); fill-rule: nonzero; opacity: 1;"  transform=" translate(-47.5661909198, -57.8076307718)" d="M 48.9022 54.6833 L 51.355000000000004 53.1208 L 52.8442 55.6394 C 53.0298 55.9607 52.826 56.721000000000004 52.5047 56.906600000000005 L 51.1657 57.67960000000001 C 51.4749 58.21520000000001 51.0189 59.15690000000001 50.670700000000004 59.35790000000001 L 45.8629 62.34790000000001 C 45.247 62.70350000000001 44.144600000000004 62.34020000000001 43.95910000000001 62.01890000000001 L 42.217600000000004 58.94150000000001 L 42.505100000000006 58.75840000000001 L 44.0949 61.51200000000001 C 44.373200000000004 61.99400000000001 45.2716 62.18950000000001 45.726800000000004 61.92660000000001 L 50.3894 59.05610000000001 C 50.8179 58.808800000000005 50.956700000000005 58.12160000000001 50.8176 57.88060000000001 z" stroke-linecap="round" />
</g>
<g transform="matrix(1.2307722687 0 0 1.2307722687 6.6444960281 72.0679788169)" id="08K8JLDtDcqvhn-GZG88M" clip-path="url(#CLIPPATH_169)"  >
<clipPath id="CLIPPATH_169" >
	<rect id="rect72" x="-55" y="-55" rx="0" ry="0" width="110" height="110" />
</clipPath>
<path style="stroke: rgb(50,50,50); stroke-width: 0.571422; stroke-dasharray: none; stroke-linecap: butt; stroke-dashoffset: 0; stroke-linejoin: miter; stroke-miterlimit: 3.99393; fill: rgb(64,64,64); fill-rule: nonzero; opacity: 1;"  transform=" translate(-30.42, -56.6601)" d="M 30.9745 55.733 L 30.6485 57.2102 L 29.865499999999997 57.5872 L 30.009299999999996 56.290200000000006 z" stroke-linecap="round" />
</g>
<g transform="matrix(1.2307722687 0 0 1.2307722687 48.4561069245 53.4107019957)" id="oFQMXqzJfOUUBfj1an9Bd" clip-path="url(#CLIPPATH_170)"  >
<clipPath id="CLIPPATH_170" >
	<rect id="rect72" x="-55" y="-55" rx="0" ry="0" width="110" height="110" />
</clipPath>
<path style="stroke: rgb(50,50,50); stroke-width: 0.571422; stroke-dasharray: none; stroke-linecap: butt; stroke-dashoffset: 0; stroke-linejoin: miter; stroke-miterlimit: 3.99393; fill: rgb(59,59,59); fill-rule: nonzero; opacity: 1;"  transform=" translate(-64.39185, -41.5011)" d="M 62.4863 39.2539 L 63.2361 38.821000000000005 L 66.2974 44.123200000000004 L 65.33109999999999 44.181200000000004 z" stroke-linecap="round" />
</g>
<g transform="matrix(1.2307722687 0 0 1.2307722687 52.3535319292 43.8525883956)" id="vIK_57KvARsK82Vdk_j8f" clip-path="url(#CLIPPATH_171)"  >
<clipPath id="CLIPPATH_171" >
	<rect id="rect72" x="-55" y="-55" rx="0" ry="0" width="110" height="110" />
</clipPath>
<path style="stroke: none; stroke-width: 1; stroke-dasharray: none; stroke-linecap: butt; stroke-dashoffset: 0; stroke-linejoin: miter; stroke-miterlimit: 4; fill: rgb(59,59,59); fill-rule: nonzero; opacity: 1;"  transform=" translate(-67.5585, -33.7351518688)" d="M 66.9613 31.6703 C 66.6275 31.6488 66.2341 32.0187 66.3887 32.286500000000004 L 66.5742 32.607800000000005 L 66.14580000000001 32.8552 L 67.8465 35.800900000000006 L 68.97120000000001 35.15160000000001 z" stroke-linecap="round" />
</g>
<g transform="matrix(1.2307722687 0 0 1.2307722687 52.3574088619 43.8840275631)" id="2oCJ_xJdla1Uf66291-rX" clip-path="url(#CLIPPATH_172)"  >
<clipPath id="CLIPPATH_172" >
	<rect id="rect72" x="-55" y="-55" rx="0" ry="0" width="110" height="110" />
</clipPath>
<path style="stroke: none; stroke-width: 1; stroke-dasharray: none; stroke-linecap: butt; stroke-dashoffset: 0; stroke-linejoin: miter; stroke-miterlimit: 4; fill: rgb(50,50,50); fill-rule: nonzero; opacity: 1;"  transform=" translate(-67.56165, -33.7606961292)" d="M 66.3903 32.2859 L 66.514 32.2145 z M 66.96289999999999 31.6697 L 67.08659999999999 31.5982 L 67.04829999999998 31.532 L 66.97209999999998 31.5271 z M 66.57669999999999 32.6087 L 66.64809999999999 32.7324 L 66.77179999999998 32.661 L 66.70039999999999 32.5373 z M 66.1505 32.8547 L 66.0791 32.731 L 65.9554 32.8024 L 66.0268 32.9261 z M 67.85119999999999 35.8004 L 67.72749999999999 35.8718 L 67.79889999999999 35.9955 L 67.92259999999999 35.9241 z M 68.27969999999999 35.553000000000004 L 68.35109999999999 35.676700000000004 L 68.47479999999999 35.60530000000001 L 68.40339999999999 35.48160000000001 z M 68.27879999999999 35.55160000000001 L 68.20739999999999 35.42790000000001 L 68.0837 35.499300000000005 L 68.15509999999999 35.623000000000005 z M 68.97279999999999 35.15090000000001 L 69.04419999999999 35.27470000000001 L 69.16789999999999 35.20320000000001 L 69.09649999999999 35.07950000000001 z M 66.514 32.2145 C 66.48479999999999 32.1639 66.4922 32.0747 66.5955 31.9692 C 66.6947 31.868000000000002 66.83800000000001 31.8048 66.9537 31.8122 L 66.9721 31.5271 C 66.7539 31.513 66.5337 31.624100000000002 66.3914 31.7693 C 66.2532 31.910400000000003 66.14110000000001 32.14 66.26660000000001 32.3573 z M 66.7004 32.5373 L 66.514 32.2145 L 66.2666 32.3573 L 66.4529 32.6801 z M 66.2219 32.9784 L 66.6481 32.7324 L 66.5052 32.485 L 66.0791 32.731 z M 67.9749 35.729 L 66.27420000000001 32.7833 L 66.02680000000001 32.9261 L 67.7275 35.8718 z M 68.2082 35.4293 L 67.77980000000001 35.6767 L 67.9226 35.924099999999996 L 68.3511 35.6767 z M 68.1551 35.623 L 68.156 35.624399999999994 L 68.4034 35.48159999999999 L 68.4026 35.48009999999999 z M 68.9013 35.0272 L 68.2074 35.4279 L 68.3503 35.6753 L 69.0442 35.2747 z M 66.8391 31.7411 L 68.8491 35.2224 L 69.0965 35.0795 L 67.0866 31.598200000000002 z" stroke-linecap="round" />
</g>
<g transform="matrix(1.2307722687 0 0 1.2307722687 24.7875561955 63.6880812097)" id="FgEKEH8C2CqblKVkg8Hsw" clip-path="url(#CLIPPATH_173)"  >
<clipPath id="CLIPPATH_173" >
	<rect id="rect72" x="-55" y="-55" rx="0" ry="0" width="110" height="110" />
</clipPath>
<path style="stroke: none; stroke-width: 1; stroke-dasharray: none; stroke-linecap: butt; stroke-dashoffset: 0; stroke-linejoin: miter; stroke-miterlimit: 4; fill: rgb(32,32,32); fill-rule: evenodd; opacity: 1;"  transform=" translate(-45.1612, -49.85145)" d="M 40.6517 51.7147 L 49.5073 46.4591 L 50.063900000000004 47.4232 L 40.258500000000005 53.2438 z" stroke-linecap="round" />
</g>
<g transform="matrix(1.2307722687 0 0 1.2307722687 17.2736914951 78.0671936249)" id="stzB_57F01pthE-D-8twR" clip-path="url(#CLIPPATH_174)"  >
<clipPath id="CLIPPATH_174" >
	<rect id="rect72" x="-55" y="-55" rx="0" ry="0" width="110" height="110" />
</clipPath>
<path style="stroke: rgb(50,50,50); stroke-width: 1.14284; stroke-dasharray: none; stroke-linecap: butt; stroke-dashoffset: 0; stroke-linejoin: miter; stroke-miterlimit: 3.99393; fill: rgb(64,64,64); fill-rule: nonzero; opacity: 1;"  transform=" translate(-39.0562, -61.53445)" d="M 35.0203 63.5263 L 42.2849 58.8986 L 43.0921 60.3992 L 35.347100000000005 64.1703 z" stroke-linecap="round" />
</g>
<g transform="matrix(1.2307722687 0 0 1.2307722687 41.6169243273 58.8899087397)" id="HR2o1zt93cs-2YEgrt1dE"  >
<path style="stroke: rgb(50,50,50); stroke-width: 0.285711; stroke-dasharray: none; stroke-linecap: butt; stroke-dashoffset: 0; stroke-linejoin: miter; stroke-miterlimit: 4; fill: rgb(54,54,54); fill-rule: nonzero; opacity: 1;"  transform=" translate(-5.937, -1.17339)" d="M 0 2.34678 L 0 0 L 11.874 0 L 11.874 2.34678 z" stroke-linecap="round" />
</g>
<g transform="matrix(1.2307722687 0 0 1.2307722687 33.9673381917 73.247498934)" id="zj9x_kcsHpVm5MRzaII0c" clip-path="url(#CLIPPATH_175)"  >
<clipPath id="CLIPPATH_175" >
	<rect id="rect72" x="-55" y="-55" rx="0" ry="0" width="110" height="110" />
</clipPath>
<path style="stroke: rgb(50,50,50); stroke-width: 0.571422; stroke-dasharray: none; stroke-linecap: butt; stroke-dashoffset: 0; stroke-linejoin: miter; stroke-miterlimit: 3.99393; fill: rgb(53,53,53); fill-rule: nonzero; opacity: 1;"  transform=" translate(-52.6197544619, -57.6184577296)" d="M 51.9643 57.2179 L 52.2366 57.3107 L 52.916900000000005 58.489 C 53.0251 58.676399999999994 53.335100000000004 58.5331 53.26500000000001 58.288 L 52.726000000000006 56.662099999999995 C 52.663000000000004 56.770799999999994 52.58710000000001 56.858399999999996 52.5033 56.9068 z" stroke-linecap="round" />
</g>
<g transform="matrix(1.2307722687 0 0 1.2307722687 70.1743717887 37.0544368931)" id="lv_-PEFrjhRhB7wdfFExp" clip-path="url(#CLIPPATH_176)"  >
<clipPath id="CLIPPATH_176" >
	<rect id="rect72" x="-55" y="-55" rx="0" ry="0" width="110" height="110" />
</clipPath>
<path style="stroke: rgb(50,50,50); stroke-width: 1.14284; stroke-dasharray: none; stroke-linecap: butt; stroke-dashoffset: 0; stroke-linejoin: miter; stroke-miterlimit: 3.99393; fill: rgb(59,59,59); fill-rule: nonzero; opacity: 1;"  transform=" translate(-82.0378966461, -28.2116674067)" d="M 84.5756 31.3186 C 84.7147 31.5596 84.1617 32.2716 83.82379999999999 32.1811 L 79.47819999999999 24.4069 C 80.06739999999999 24.0668 80.59379999999999 24.2984 80.71749999999999 24.5126 z" stroke-linecap="round" />
</g>
<g transform="matrix(1.2307722687 0 0 1.2307722687 85.2768131941 30.5258455088)" id="ICkhVs4Ad-MfzFjmzHvPx" clip-path="url(#CLIPPATH_177)"  >
<clipPath id="CLIPPATH_177" >
	<rect id="rect72" x="-55" y="-55" rx="0" ry="0" width="110" height="110" />
</clipPath>
<path style="stroke: rgb(50,50,50); stroke-width: 1.14284; stroke-dasharray: none; stroke-linecap: butt; stroke-dashoffset: 0; stroke-linejoin: miter; stroke-miterlimit: 3.99393; fill: rgb(57,57,57); fill-rule: nonzero; opacity: 1;"  transform=" translate(-94.3086, -22.9072)" d="M 103.262 16.4962 L 84.1152 27.550800000000002 L 85.1357 29.3182 L 104.502 18.1371 L 104.128 17.9958 z" stroke-linecap="round" />
</g>
<g transform="matrix(1.2307722687 0 0 1.2307722687 102.1653471881 20.5245285147)" id="Lj8eu7fXIx2Qclwb7KKMo" clip-path="url(#CLIPPATH_178)"  >
<clipPath id="CLIPPATH_178" >
	<rect id="rect72" x="-55" y="-55" rx="0" ry="0" width="110" height="110" />
</clipPath>
<path style="stroke: rgb(50,50,50); stroke-width: 0.571422; stroke-dasharray: none; stroke-linecap: butt; stroke-dashoffset: 0; stroke-linejoin: miter; stroke-miterlimit: 4; fill: rgb(55,55,55); fill-rule: nonzero; opacity: 1;"  transform=" translate(-108.0305, -14.78115)" d="M 107.898 16.3942 L 108.642 15.675400000000002 L 108.58 15.5683 L 109.062 15.290000000000001 L 109.124 15.397100000000002 L 109.55199999999999 15.149800000000003 L 108.40799999999999 13.168100000000003 L 107.97999999999999 13.415500000000003 L 108.07199999999999 13.576200000000004 L 107.58999999999999 13.854500000000003 L 107.49799999999999 13.693800000000003 L 107.28299999999999 13.817500000000003 L 107.09799999999998 13.496100000000002 L 106.50899999999999 13.836300000000001 L 107.71499999999999 15.925 z" stroke-linecap="round" />
</g>
<g transform="matrix(1.2307722687 0 0 1.2307722687 86.6243857512 32.2887421678)" id="jqYsISwPKXzSYYncWvWZw" clip-path="url(#CLIPPATH_179)"  >
<clipPath id="CLIPPATH_179" >
	<rect id="rect72" x="-55" y="-55" rx="0" ry="0" width="110" height="110" />
</clipPath>
<path style="stroke: rgb(50,50,50); stroke-width: 0.571422; stroke-dasharray: none; stroke-linecap: butt; stroke-dashoffset: 0; stroke-linejoin: miter; stroke-miterlimit: 3.99393; fill: rgb(56,56,56); fill-rule: nonzero; opacity: 1;"  transform=" translate(-95.4035, -24.33955)" d="M 84.3922 30.992 L 106.66 17.8229 C 106.538 17.793 106.40899999999999 17.7478 106.271 17.6871 L 105.835 17.7332 L 84.14699999999999 30.5595 z" stroke-linecap="round" />
</g>
<g transform="matrix(1.2307722687 0 0 1.2307722687 79.9447384945 30.172552329)" id="gBoIGSYnO0yMUUf0KF3ik" clip-path="url(#CLIPPATH_180)"  >
<clipPath id="CLIPPATH_180" >
	<rect id="rect72" x="-55" y="-55" rx="0" ry="0" width="110" height="110" />
</clipPath>
<path style="stroke: rgb(50,50,50); stroke-width: 1.14284; stroke-dasharray: none; stroke-linecap: butt; stroke-dashoffset: 0; stroke-linejoin: miter; stroke-miterlimit: 3.99393; fill: rgb(60,60,60); fill-rule: nonzero; opacity: 1;"  transform=" translate(-89.9763, -22.62015)" d="M 82.582 23.6533 L 84.00439999999999 26.117 L 90.5118 22.36 C 91.0217 22.3155 91.42559999999999 22.5822 91.7503 23.1445 L 92.9253 25.1798 C 93.16439999999999 25.5939 93.6699 25.7496 94.05439999999999 25.5276 C 94.439 25.3056 94.55689999999998 24.7899 94.31779999999999 24.375799999999998 L 97.3706 22.6132 L 95.97919999999999 20.2031 C 95.97919999999999 20.2031 94.5063 21.0535 92.73939999999999 20.4669 C 90.97249999999998 19.8802 90.4283 19.1233 90.4283 19.1233 z" stroke-linecap="round" />
</g>
<g transform="matrix(1.2307722687 0 0 1.2307722687 98.6296851077 19.3099181644)" id="MGw7tZ62L1cRpWnyXto4V" clip-path="url(#CLIPPATH_181)"  >
<clipPath id="CLIPPATH_181" >
	<rect id="rect72" x="-55" y="-55" rx="0" ry="0" width="110" height="110" />
</clipPath>
<path style="stroke: none; stroke-width: 1; stroke-dasharray: none; stroke-linecap: butt; stroke-dashoffset: 0; stroke-linejoin: miter; stroke-miterlimit: 4; fill: rgb(60,60,60); fill-rule: evenodd; opacity: 1;"  transform=" translate(-105.1577816504, -13.7942815263)" d="M 102.243 10.5858 L 102.984 16.0134 L 104.128 17.995 L 104.539 18.1505 L 105.362 17.782400000000003 L 106.271 17.686300000000003 C 107.182 18.088800000000003 107.737 17.811200000000003 108.093 16.884300000000003 L 107.717 15.923300000000003 L 104.176 9.790890000000003 C 104.176 9.790890000000003 103.637 9.227570000000004 102.84400000000001 9.524510000000003 C 102.051 9.821450000000002 102.24300000000001 10.585800000000003 102.24300000000001 10.585800000000003 z M 104.567 14.9209 L 105.79899999999999 14.2097 C 106.01299999999999 14.086 106.02 13.9748 105.91199999999999 13.7873 L 105.526 13.1178 C 105.27799999999999 12.689400000000001 105.109 12.644100000000002 104.681 12.8915 L 103.717 13.4481 C 103.556 13.5408 103.202 14.1024 103.473 14.571 C 103.728 15.0129 104.407 15.0137 104.567 14.9209 z" stroke-linecap="round" />
</g>
<g transform="matrix(1.2307722687 0 0 1.2307722687 28.0659027489 64.8804533836)" id="LzFH2bJCmPDWyFy8rAqFh" clip-path="url(#CLIPPATH_182)"  >
<clipPath id="CLIPPATH_182" >
	<rect id="rect72" x="-55" y="-55" rx="0" ry="0" width="110" height="110" />
</clipPath>
<path style="stroke: none; stroke-width: 1; stroke-dasharray: none; stroke-linecap: butt; stroke-dashoffset: 0; stroke-linejoin: miter; stroke-miterlimit: 4; fill: rgb(66,66,66); fill-rule: nonzero; opacity: 1;"  transform=" translate(-47.82485, -50.82025)" d="M 40.2576 53.2452 L 50.0631 47.424499999999995 L 60.3998 41.456599999999995 L 59.5649 40.01049999999999 L 62.0822 38.557199999999995 L 65.34440000000001 44.20759999999999 L 51.336200000000005 53.13099999999999 L 51.26520000000001 53.83579999999999 L 49.19610000000001 55.13759999999999 L 48.268600000000006 55.08519999999999 L 34.22760000000001 64.02959999999999 L 30.30530000000001 59.15309999999999 L 30.84390000000001 58.83329999999999 L 30.45020000000001 58.105299999999986 L 31.50660000000001 53.31789999999999 C 31.58580000000001 53.00009999999999 31.66940000000001 52.83849999999999 31.90610000000001 52.58739999999999 L 57.536800000000014 37.61089999999999 L 58.03160000000001 38.467899999999986 L 58.51360000000001 38.189599999999984 L 58.88470000000001 38.83229999999998 L 49.726200000000006 44.11989999999998 C 49.6726 44.15079999999998 48.886900000000004 45.13999999999998 49.32090000000001 46.13919999999998 L 49.50650000000001 46.46049999999998 L 40.65080000000001 51.71609999999998 z" stroke-linecap="round" />
</g>
<g transform="matrix(1.2307722687 0 0 1.2307722687 60.4249364674 38.9195277654)" id="gR1mE_kPhq-_J2lo4BV75" clip-path="url(#CLIPPATH_183)"  >
<clipPath id="CLIPPATH_183" >
	<rect id="rect72" x="-55" y="-55" rx="0" ry="0" width="110" height="110" />
</clipPath>
<path style="stroke: rgb(51,36,17); stroke-width: 1.14284; stroke-dasharray: none; stroke-linecap: butt; stroke-dashoffset: 0; stroke-linejoin: miter; stroke-miterlimit: 3.99393; fill: rgb(177,101,33); fill-rule: nonzero; opacity: 1;"  transform=" translate(-74.1165, -29.72705)" d="M 66.8379 31.457 L 79.4788 24.4087 L 81.39510000000001 27.837 L 79.78200000000001 28.7683 L 79.38220000000001 28.5706 L 76.06160000000001 30.4878 L 76.03290000000001 30.9328 L 73.67630000000001 32.2934 L 73.27660000000002 32.0957 L 69.58100000000002 34.2293 L 69.55230000000002 34.6743 L 68.90960000000001 35.0454 z" stroke-linecap="round" />
</g>
<g transform="matrix(1.2307722687 0 0 1.2307722687 98.6296851077 19.3099181644)" id="MLf5CVXI-1VL5Fo_NtSaU" clip-path="url(#CLIPPATH_184)"  >
<clipPath id="CLIPPATH_184" >
	<rect id="rect72" x="-55" y="-55" rx="0" ry="0" width="110" height="110" />
</clipPath>
<path style="stroke: rgb(50,50,50); stroke-width: 1.14284; stroke-dasharray: none; stroke-linecap: butt; stroke-dashoffset: 0; stroke-linejoin: miter; stroke-miterlimit: 4; fill: none; fill-rule: evenodd; opacity: 1;"  transform=" translate(-105.1577816504, -13.7942815263)" d="M 102.243 10.5858 L 102.984 16.0134 L 104.128 17.995 L 104.539 18.1505 L 105.362 17.782400000000003 L 106.271 17.686300000000003 C 107.182 18.088800000000003 107.737 17.811200000000003 108.093 16.884300000000003 L 107.717 15.923300000000003 L 104.176 9.790890000000003 C 104.176 9.790890000000003 103.637 9.227570000000004 102.84400000000001 9.524510000000003 C 102.051 9.821450000000002 102.24300000000001 10.585800000000003 102.24300000000001 10.585800000000003 z" stroke-linecap="round" />
</g>
<g transform="matrix(1.2307722687 0 0 1.2307722687 98.0355455499 19.385545377)" id="MRgLvxNZr_SAZxCByNEJM" clip-path="url(#CLIPPATH_185)"  >
<clipPath id="CLIPPATH_185" >
	<rect id="rect72" x="-55" y="-55" rx="0" ry="0" width="110" height="110" />
</clipPath>
<path style="stroke: rgb(50,50,50); stroke-width: 0.571422; stroke-dasharray: none; stroke-linecap: butt; stroke-dashoffset: 0; stroke-linejoin: miter; stroke-miterlimit: 4; fill: none; fill-rule: evenodd; opacity: 1;"  transform=" translate(-104.6750444513, -13.8557284849)" d="M 104.565 14.9213 L 105.797 14.2101 C 106.011 14.086400000000001 106.018 13.975100000000001 105.91 13.787700000000001 L 105.523 13.118200000000002 C 105.276 12.689700000000002 105.107 12.6445 104.678 12.891800000000002 L 103.714 13.448400000000001 C 103.554 13.541200000000002 103.2 14.102800000000002 103.47 14.5714 C 103.725 15.013200000000001 104.404 15.014000000000001 104.565 14.9213 z" stroke-linecap="round" />
</g>
<g transform="matrix(1.2307722687 0 0 1.2307722687 59.7085902258 46.8163588196)" id="xU7jgn6b0lTXtm3f0UXDj" clip-path="url(#CLIPPATH_186)"  >
<clipPath id="CLIPPATH_186" >
	<rect id="rect72" x="-55" y="-55" rx="0" ry="0" width="110" height="110" />
</clipPath>
<path style="stroke: rgb(51,36,17); stroke-width: 1.14284; stroke-dasharray: none; stroke-linecap: butt; stroke-dashoffset: 0; stroke-linejoin: miter; stroke-miterlimit: 3.99393; fill: rgb(198,112,35); fill-rule: nonzero; opacity: 1;"  transform=" translate(-73.5344701153, -36.1432093943)" d="M 63.236 38.8202 L 68.0027 36.0681 L 67.9718 36.0145 L 69.7392 34.994099999999996 L 70.10799999999999 35.1382 L 73.80359999999999 33.004599999999996 L 73.86319999999999 32.613099999999996 L 76.21979999999999 31.252599999999994 L 76.58859999999999 31.396699999999996 L 79.90919999999998 29.479499999999994 L 79.96879999999999 29.087999999999994 L 81.5756 28.160399999999996 L 83.8257 32.1814 C 83.88759999999999 32.2885 83.5405 32.7388 83.246 32.9088 C 78.8493 35.7035 76.369 37.2006 71.8433 39.8135 C 71.8433 39.8135 70.284 41.0708 69.6829 41.8232 C 69.5999 41.9271 69.4965 42.0717 69.3789 42.236 C 69.0124 42.7484 68.5087 43.4526 68.0597 43.7118 C 67.3635 44.1138 66.95880000000001 44.138999999999996 66.2972 44.1224 z" stroke-linecap="round" />
</g>
<g transform="matrix(1.2307722687 0 0 1.2307722687 45.8015772954 46.5149811814)" id="5_Rm0CUWK7Ybshtzmd613" clip-path="url(#CLIPPATH_187)"  >
<clipPath id="CLIPPATH_187" >
	<rect id="rect72" x="-55" y="-55" rx="0" ry="0" width="110" height="110" />
</clipPath>
<path style="stroke: rgb(50,50,50); stroke-width: 0.571422; stroke-dasharray: none; stroke-linecap: butt; stroke-dashoffset: 0; stroke-linejoin: miter; stroke-miterlimit: 3.99393; fill: rgb(73,73,73); fill-rule: evenodd; opacity: 1;"  transform=" translate(-62.23505, -35.8983406678)" d="M 62.4193 33.5076 L 59.158699999999996 35.3901 C 58.973699999999994 35.2835 58.7384 35.27569999999999 58.5402 35.3902 C 58.341899999999995 35.5046 58.231 35.7123 58.2308 35.9258 L 57.3558 36.431000000000004 L 57.170300000000005 36.109700000000004 L 56.4688 36.193400000000004 L 57.0634 37.099700000000006 L 57.286 37.114000000000004 L 58.482 36.423500000000004 C 58.6394 36.539500000000004 58.8461 36.57600000000001 59.0365 36.5153 L 59.0021 36.6231 L 57.475699999999996 37.504400000000004 L 58.032199999999996 38.468500000000006 L 58.5143 38.190200000000004 L 59.565599999999996 40.011100000000006 L 62.0828 38.55780000000001 L 62.4848 39.25410000000001 L 68.0013 36.069100000000006 L 65.9914 32.58780000000001 L 65.9379 32.61870000000001 L 65.6132 32.05640000000001 C 65.4895 31.84210000000001 65.05170000000001 31.702200000000012 64.81060000000001 31.84130000000001 L 63.793000000000006 32.42890000000001 L 63.916700000000006 32.64310000000001 L 63.379000000000005 32.95360000000001 C 63.18300000000001 32.77550000000001 62.9042 32.72780000000001 62.682700000000004 32.855700000000006 C 62.4611 32.9836 62.36300000000001 33.248900000000006 62.41930000000001 33.507600000000004 z M 59.4657 35.977 L 61.3028 34.7949 L 59.464099999999995 35.8565 C 59.468599999999995 35.896699999999996 59.4691 35.937099999999994 59.4657 35.977 z" stroke-linecap="round" />
</g>
<g transform="matrix(1.2307722687 0 0 1.2307722687 29.699691397 61.7897380624)" id="5VbJhdxkqSKWGwamH1seD" clip-path="url(#CLIPPATH_188)"  >
<clipPath id="CLIPPATH_188" >
	<rect id="rect72" x="-55" y="-55" rx="0" ry="0" width="110" height="110" />
</clipPath>
<path style="stroke: rgb(50,50,50); stroke-width: 1.14284; stroke-dasharray: none; stroke-linecap: butt; stroke-dashoffset: 0; stroke-linejoin: miter; stroke-miterlimit: 3.99393; fill: none; fill-rule: evenodd; opacity: 1;"  transform=" translate(-49.1523, -48.30905)" d="M 65.9901 32.5879 L 57.4743 37.5045 L 57.5362 37.6116 L 31.9055 52.588 C 31.6687 52.8391 31.5851 53.0007 31.506 53.3185 L 30.4495 58.106 L 30.8433 58.834 L 30.3046 59.1537 L 34.2269 64.03020000000001 L 48.2679 55.08590000000001 L 49.1954 55.13820000000001 L 51.2646 53.836500000000015 L 51.3356 53.131700000000016 L 65.3438 44.2082 L 62.4835 39.2541 L 68 36.0692 Z M 40.257 53.2459 L 50.0624 47.4252 L 60.39919999999999 41.4573 L 58.88399999999999 38.832899999999995 L 49.7255 44.120599999999996 C 49.672 44.1515 48.8863 45.140699999999995 49.320299999999996 46.139799999999994 L 49.505799999999994 46.46119999999999 L 40.65019999999999 51.71679999999999 z" stroke-linecap="round" />
</g>
<g transform="matrix(1.2307722687 0 0 1.2307722687 24.1777739955 67.8211336446)" id="8oKDlLZbyAERt1QvU6x7A" clip-path="url(#CLIPPATH_189)"  >
<clipPath id="CLIPPATH_189" >
	<rect id="rect72" x="-55" y="-55" rx="0" ry="0" width="110" height="110" />
</clipPath>
<path style="stroke: none; stroke-width: 1; stroke-dasharray: none; stroke-linecap: butt; stroke-dashoffset: 0; stroke-linejoin: miter; stroke-miterlimit: 4; fill: rgb(64,64,64); fill-rule: nonzero; opacity: 1;"  transform=" translate(-44.6657531854, -53.2095468146)" d="M 41.4272 51.9467 L 40.5049 54.1217 L 38.2402 54.8718 C 38.119 54.9093 38 54.9609 37.8855 55.027 C 37.0573 55.5052 36.7735 56.5642 37.2517 57.3924 C 37.7298 58.220600000000005 38.7889 58.504400000000004 39.6171 58.0262 C 39.684 57.987500000000004 39.7489 57.944100000000006 39.8086 57.8982 L 49.326299999999996 51.528000000000006 L 49.45719999999999 51.630900000000004 L 51.66439999999999 50.3209 L 51.48029999999999 50.0598 L 51.39739999999999 49.796600000000005 L 52.312099999999994 49.34 L 51.881099999999996 48.1606 z" stroke-linecap="round" />
</g>
<g transform="matrix(1.2307722687 0 0 1.2307722687 24.1777739955 67.8211336446)" id="ZuUWYqAYTOHNT6lvEGM46" clip-path="url(#CLIPPATH_190)"  >
<clipPath id="CLIPPATH_190" >
	<rect id="rect72" x="-55" y="-55" rx="0" ry="0" width="110" height="110" />
</clipPath>
<path style="stroke: rgb(50,50,50); stroke-width: 0.571422; stroke-dasharray: none; stroke-linecap: butt; stroke-dashoffset: 0; stroke-linejoin: miter; stroke-miterlimit: 3.99393; fill: none; fill-rule: nonzero; opacity: 1;"  transform=" translate(-44.6657531854, -53.2095468146)" d="M 41.4272 51.9467 L 40.5049 54.1217 L 38.2402 54.8718 C 38.119 54.9093 38 54.9609 37.8855 55.027 C 37.0573 55.5052 36.7735 56.5642 37.2517 57.3924 C 37.7298 58.220600000000005 38.7889 58.504400000000004 39.6171 58.0262 C 39.684 57.987500000000004 39.7489 57.944100000000006 39.8086 57.8982 L 49.3309 51.5249 L 49.4572 51.630900000000004 L 51.6644 50.3209 L 51.4803 50.0598 L 51.3974 49.796600000000005 L 52.3121 49.34 L 51.8811 48.1606 z" stroke-linecap="round" />
</g>
<g transform="matrix(1.2307722687 0 0 1.2307722687 48.4922693629 44.8473871023)" id="0dFrj4_Y1Ax2XnEOmLqju" clip-path="url(#CLIPPATH_191)"  >
<clipPath id="CLIPPATH_191" >
	<rect id="rect72" x="-55" y="-55" rx="0" ry="0" width="110" height="110" />
</clipPath>
<path style="stroke: rgb(50,50,50); stroke-width: 0.571422; stroke-dasharray: none; stroke-linecap: butt; stroke-dashoffset: 0; stroke-linejoin: miter; stroke-miterlimit: 3.99393; fill: rgb(77,77,77); fill-rule: nonzero; opacity: 1;"  transform=" translate(-64.4212319087, -34.5434238228)" d="M 65.9264 33.5833 C 66.1002 33.38 66.1364 33.0813 65.99510000000001 32.8365 C 65.81580000000001 32.5259 65.41860000000001 32.4195 65.108 32.598800000000004 C 65.0004 32.660900000000005 64.9173 32.7492 64.8621 32.851000000000006 L 63.650099999999995 35.083000000000006 L 63.3122 34.9924 L 62.760299999999994 35.953700000000005 L 62.999399999999994 36.2441 C 63.254 36.561400000000006 63.52289999999999 36.656000000000006 63.97089999999999 36.5045 z" stroke-linecap="round" />
</g>
</svg>