<svg width="381" height="43" viewBox="0 0 381 43" fill="none" xmlns="http://www.w3.org/2000/svg">
<path d="M84.2881 2.51709C84.2881 2.00337 84.7045 1.58691 85.2183 1.58691H133.775C134.289 1.58691 134.705 2.00337 134.705 2.51709V39.9097C134.705 40.4234 134.289 40.8399 133.775 40.8399H85.2183C84.7045 40.8399 84.2881 40.4234 84.2881 39.9097V2.51709Z" fill="#4F5254" stroke="#161718" stroke-width="3"/>
<path d="M87.9541 2.96216C87.9541 2.79092 88.0929 2.6521 88.2642 2.6521H130.731C130.902 2.6521 131.041 2.79092 131.041 2.96216V11.4463C131.041 11.6175 130.902 11.7563 130.731 11.7563H88.2642C88.0929 11.7563 87.9541 11.6175 87.9541 11.4463V2.96216Z" fill="#343637" stroke="#161718" stroke-width="1.5"/>
<path d="M130.113 8.31117C129.054 9.09356 124.628 9.73225 118.771 9.98465V5.91211C124.628 6.1645 129.054 6.80319 130.113 7.58559V8.31117Z" fill="#9D6F1B" stroke="#271C07" stroke-width="1.5"/>
<path d="M90.3354 11.0869L89.8722 11.0869L89.6875 10.7999L89.6875 5.09712L89.8722 4.8101L90.3354 4.8101L90.3354 11.0869Z" fill="#DE8C3F" stroke="#271607" stroke-width="1.5"/>
<path d="M91.2573 11.0869L112.053 10.8225L113.759 10.1345L118.77 10.1345L118.77 5.76252L113.759 5.76252L112.053 5.07466L91.2573 4.81016L90.6426 5.09862L90.6426 10.8225L91.2573 11.0869Z" fill="#DE8C3F" stroke="#271607" stroke-width="1.5"/>
<rect width="0.307009" height="5.30888" transform="matrix(1 -4.37114e-08 -4.37114e-08 -1 90.3359 10.6035)" fill="#C87322" stroke="#271607" stroke-width="1.5"/>
<path d="M130.113 7.20887C129.054 7.99127 124.628 8.62996 118.771 8.88235V4.80981C124.628 5.06221 129.054 5.7009 130.113 6.48329V7.20887Z" fill="#A6761C" stroke="#271C07" stroke-width="1.5"/>
<path d="M90.3354 9.98437L89.8722 9.98437L89.6875 9.69736L89.6875 3.99458L89.8722 3.70756L90.3354 3.70756L90.3354 9.98437Z" fill="#E09148" stroke="#271607" stroke-width="1.5"/>
<path d="M91.2573 9.98437L112.053 9.71993L113.759 9.03201L118.77 9.03201L118.77 4.65998L113.759 4.65998L112.053 3.97213L91.2573 3.70762L90.6426 3.99608L90.6426 9.71993L91.2573 9.98437Z" fill="#E09148" stroke="#271607" stroke-width="1.5"/>
<rect width="0.307009" height="5.30888" transform="matrix(1 -4.37114e-08 -4.37114e-08 -1 90.3359 9.50122)" fill="#D17824" stroke="#271607" stroke-width="1.5"/>
<rect width="5.06009" height="2.83521" transform="matrix(-4.37114e-08 -1 -1 4.37114e-08 116.936 9.33057)" fill="#3D3D3D" stroke="#171717" stroke-width="1.5"/>
<rect width="6.9225" height="2.83521" transform="matrix(-4.37114e-08 -1 -1 4.37114e-08 105.458 10.2617)" fill="#3D3D3D" stroke="#171717" stroke-width="1.5"/>
<path fill-rule="evenodd" clip-rule="evenodd" d="M103.109 11.7561H104.973V10.2614H103.109V11.7561Z" fill="#363636" stroke="#171717" stroke-width="1.5"/>
<path fill-rule="evenodd" clip-rule="evenodd" d="M116.491 11.7561L116.491 9.33012L114.543 9.33012L114.543 11.7561L116.491 11.7561Z" fill="#363636" stroke="#171717" stroke-width="1.5"/>
<path fill-rule="evenodd" clip-rule="evenodd" d="M113.72 11.009L113.72 3.43633L106.578 3.43633L106.578 11.009L113.72 11.009Z" fill="#3B3B3B" stroke="#171717" stroke-width="1.5"/>
<path d="M130.113 12.8095C129.054 13.5919 124.628 14.2305 118.771 14.4829V10.4104C124.628 10.6628 129.054 11.3015 130.113 12.0839V12.8095Z" fill="#AE7C1E" stroke="#271C07" stroke-width="1.5"/>
<path d="M90.3354 15.585L89.8722 15.585L89.6875 15.2979L89.6875 9.59516L89.8722 9.30815L90.3354 9.30815L90.3354 15.585Z" fill="#E1954F" stroke="#271607" stroke-width="1.5"/>
<path d="M91.2573 15.585L112.053 15.3205L113.759 14.6326L118.77 14.6326L118.77 10.2606L113.759 10.2606L112.053 9.57271L91.2573 9.30821L90.6426 9.59667L90.6426 15.3205L91.2573 15.585Z" fill="#E1954F" stroke="#271607" stroke-width="1.5"/>
<rect width="0.307009" height="5.30888" transform="matrix(1 -4.37114e-08 -4.37114e-08 -1 90.3359 15.1016)" fill="#DA7C25" stroke="#271607" stroke-width="1.5"/>
<rect width="5.06009" height="2.83521" transform="matrix(-4.37114e-08 -1 -1 4.37114e-08 116.936 14.9302)" fill="#404040" stroke="#171717" stroke-width="1.5"/>
<rect width="6.9225" height="2.83521" transform="matrix(-4.37114e-08 -1 -1 4.37114e-08 105.458 15.8618)" fill="#404040" stroke="#171717" stroke-width="1.5"/>
<path fill-rule="evenodd" clip-rule="evenodd" d="M115.347 17.3562L115.347 16.2818L104.951 16.2818L104.951 17.3562L115.347 17.3562Z" fill="#383838" stroke="#171717" stroke-width="1.5"/>
<path fill-rule="evenodd" clip-rule="evenodd" d="M103.109 17.3562H104.973V15.8615H103.109V17.3562Z" fill="#383838" stroke="#171717" stroke-width="1.5"/>
<path fill-rule="evenodd" clip-rule="evenodd" d="M113.72 24.929L113.72 17.3562L106.578 17.3562L106.578 24.929L113.72 24.929Z" fill="#404040" stroke="#171717" stroke-width="1.5"/>
<path fill-rule="evenodd" clip-rule="evenodd" d="M116.491 17.3562L116.491 14.9302L114.543 14.9302L114.543 17.3562L116.491 17.3562Z" fill="#383838" stroke="#171717" stroke-width="1.5"/>
<path fill-rule="evenodd" clip-rule="evenodd" d="M113.72 16.9026L113.72 9.32988L106.578 9.32988L106.578 16.9026L113.72 16.9026Z" fill="#3D3D3D" stroke="#171717" stroke-width="1.5"/>
<path d="M92.6729 28.4929H127.228V30.0517C127.228 30.3942 126.951 30.6718 126.608 30.6718H93.293C92.9505 30.6718 92.6729 30.3942 92.6729 30.0517V28.4929Z" fill="#595B5E" stroke="#161718" stroke-width="1.5"/>
<path d="M209.796 13.9341H223.625V28.4923H209.796V13.9341Z" fill="#A2A6A9" stroke="#161718" stroke-width="3"/>
<rect x="163.538" y="15.835" width="72.73" height="10.7574" fill="#464749"/>
<path d="M218.575 21.2136C218.575 20.1167 219.161 19.2275 219.883 19.2275H233.543C234.266 19.2275 235.915 20.1167 235.915 21.2136C235.915 22.3105 234.266 23.1997 233.543 23.1997H219.883C219.161 23.1997 218.575 22.3105 218.575 21.2136Z" fill="#414244"/>
<path d="M218.575 25.5397C218.575 25.0651 219.161 24.6804 219.883 24.6804H233.543C234.266 24.6804 235.915 25.0651 235.915 25.5397C235.915 26.0142 234.266 26.3989 233.543 26.3989H219.883C219.161 26.3989 218.575 26.0142 218.575 25.5397Z" fill="#414244"/>
<path d="M218.575 16.8871C218.575 16.4125 219.161 16.0278 219.883 16.0278H233.543C234.266 16.0278 235.915 16.4125 235.915 16.8871C235.915 17.3616 234.266 17.7463 233.543 17.7463H219.883C219.161 17.7463 218.575 17.3616 218.575 16.8871Z" fill="#414244"/>
<path d="M163.534 12.946H139.249C139.101 12.946 138.955 12.9671 138.813 13.0085L135.645 13.9364V28.4938L138.814 29.4193C138.955 29.4605 139.101 29.4815 139.248 29.4815H163.534V12.946Z" fill="#505254" stroke="#161718" stroke-width="3"/>
<rect x="149.786" y="13.9341" width="13.7516" height="14.5582" fill="#464749" stroke="#161718" stroke-width="3"/>
<path d="M54.499 13.9341H149.789V28.4923H54.499V13.9341Z" fill="#484A4C" stroke="#161718" stroke-width="3"/>
<rect x="71.0195" y="18.3232" width="92.52" height="5.78011" fill="#393A3C"/>
<rect width="1.10636" height="11.1404" transform="matrix(1 0 0 -1 273.217 26.7837)" fill="#414244" stroke="#161718" stroke-width="3"/>
<path d="M133.183 28.4929H136.226C135.863 32.7321 135.857 34.3968 135.857 37.5703C135.857 37.6658 135.798 37.7526 135.708 37.7867L135.631 37.816C135.153 37.9983 134.624 37.9983 134.146 37.816C134.006 37.7629 133.906 37.6393 133.882 37.4919L133.46 34.8456C133.275 33.6914 133.183 32.5244 133.183 31.3555V28.4929Z" fill="#5E6164" stroke="#161718" stroke-width="1.5"/>
<rect x="347.779" y="9.83105" width="7.65" height="22.7645" fill="#393A3C" stroke="#161718" stroke-width="3"/>
<rect x="328.26" y="9.83105" width="19.52" height="22.7645" fill="#37383A" stroke="#161718" stroke-width="3"/>
<rect x="321.68" y="9.83105" width="6.58" height="22.7645" fill="#393A3C" stroke="#161718" stroke-width="3"/>
<rect x="283.033" y="9.83105" width="38.65" height="22.7645" fill="#3E3F41" stroke="#161718" stroke-width="3"/>
<rect x="292.341" y="9.83105" width="10.44" height="22.7645" fill="#393A3C" stroke="#161718" stroke-width="3"/>
<path d="M274.323 9.98608C274.323 9.90046 274.393 9.83105 274.478 9.83105H283.034V32.5955H274.478C274.393 32.5955 274.323 32.5261 274.323 32.4405V9.98608Z" fill="#393A3C" stroke="#161718" stroke-width="3"/>
<path fill-rule="evenodd" clip-rule="evenodd" d="M355.43 9.83105H359.963L362.143 11.4642H378.37C378.778 11.4642 379.108 11.7945 379.108 12.2019V30.2247C379.108 30.6321 378.789 30.9623 378.382 30.9623C374.29 30.9623 364.224 30.9623 362.143 30.9623L359.963 32.5955H355.43V9.83105Z" fill="#343537" stroke="#161718" stroke-width="3"/>
<path d="M1.58984 15.863C1.58984 15.0068 2.28393 14.3127 3.14013 14.3127H13.4004V28.115H3.14013C2.28393 28.115 1.58984 27.4209 1.58984 26.5647V15.863Z" fill="#34383C" stroke="#151719" stroke-width="3"/>
<path d="M13.4014 14.3127H21.5061V28.115H13.4014V14.3127Z" fill="#3F454A" stroke="#151719" stroke-width="3"/>
<path d="M21.5049 14.0891C21.5049 14.0035 21.5743 13.9341 21.6599 13.9341H54.4983V28.4923H21.6599C21.5743 28.4923 21.5049 28.4229 21.5049 28.3373V14.0891Z" fill="#414244" stroke="#161717" stroke-width="3"/>
<rect x="74.8857" y="18.3232" width="1.7613" height="5.78011" fill="#414244"/>
<rect x="78.5752" y="18.3232" width="1.7613" height="5.78011" fill="#414244"/>
<rect x="82.2666" y="18.3232" width="1.7613" height="5.78011" fill="#414244"/>
<rect x="85.959" y="18.3232" width="1.7613" height="5.78011" fill="#414244"/>
<rect x="89.6504" y="18.3232" width="1.7613" height="5.78011" fill="#414244"/>
<rect x="93.3398" y="18.3232" width="1.7613" height="5.78011" fill="#414244"/>
<rect x="97.0312" y="18.3232" width="1.7613" height="5.78011" fill="#414244"/>
<rect x="100.724" y="18.3232" width="1.7613" height="5.78011" fill="#414244"/>
<rect x="104.413" y="18.3232" width="1.7613" height="5.78011" fill="#414244"/>
<rect x="108.104" y="18.3232" width="1.7613" height="5.78011" fill="#414244"/>
<rect x="111.796" y="18.3232" width="1.7613" height="5.78011" fill="#414244"/>
<rect x="115.488" y="18.3232" width="1.7613" height="5.78011" fill="#414244"/>
<rect x="119.178" y="18.3232" width="1.7613" height="5.78011" fill="#414244"/>
<rect x="122.869" y="18.3232" width="1.7613" height="5.78011" fill="#414244"/>
<rect x="126.561" y="18.3232" width="1.7613" height="5.78011" fill="#414244"/>
<rect x="130.253" y="18.3232" width="1.7613" height="5.78011" fill="#414244"/>
<rect x="133.942" y="18.3232" width="1.7613" height="5.78011" fill="#414244"/>
<rect x="137.634" y="18.3232" width="1.7613" height="5.78011" fill="#414244"/>
<rect x="141.325" y="18.3232" width="1.7613" height="5.78011" fill="#414244"/>
<rect x="145.018" y="18.3232" width="1.7613" height="5.78011" fill="#414244"/>
<rect x="148.706" y="18.3232" width="1.7613" height="5.78011" fill="#414244"/>
<rect x="152.398" y="18.3232" width="1.7613" height="5.78011" fill="#414244"/>
<rect x="156.09" y="18.3232" width="1.7613" height="5.78011" fill="#414244"/>
<rect x="159.779" y="18.3232" width="1.7613" height="5.78011" fill="#414244"/>
<rect x="164.544" y="18.3232" width="1.7613" height="5.78011" fill="#B3B5B7"/>
<path d="M113.664 29.3984C113.664 29.2272 113.803 29.0884 113.974 29.0884H141.115C141.287 29.0884 141.425 29.2272 141.425 29.3984V31.3278C141.425 31.499 141.287 31.6378 141.115 31.6378H113.974C113.803 31.6378 113.664 31.499 113.664 31.3278V29.3984Z" fill="#5C5E61" stroke="#161718" stroke-width="1.5"/>
<path d="M113.153 29.7998L113.664 29.7998V30.9256H113.553L112.201 32.0322L100.37 32.0321V30.9063H111.794L113.153 29.7998Z" fill="#57595C" stroke="#161718" stroke-width="1.5"/>
<path d="M97.873 30.6716H105.863V32.5012H97.873V30.6716Z" fill="#545759" stroke="#161718" stroke-width="1.5"/>
<rect x="71.0195" y="18.3232" width="92.52" height="5.78011" stroke="#161718" stroke-width="1.5"/>
<rect width="36.94" height="9.98812" transform="matrix(1 0 0 -1 236.273 26.2075)" fill="#434547"/>
<rect x="252.595" y="20.0583" width="20.15" height="2.31037" rx="1.15518" fill="#414344"/>
<rect x="252.595" y="22.7615" width="20.15" height="1.84141" rx="0.920705" fill="#414344"/>
<rect x="252.595" y="17.8237" width="20.15" height="1.84141" rx="0.920705" fill="#414344"/>
<rect x="252.595" y="16.5618" width="20.15" height="0.869557" rx="0.434779" fill="#414344"/>
<rect x="252.595" y="24.9958" width="20.15" height="0.869557" rx="0.434779" fill="#414344"/>
<rect width="36.94" height="9.98812" transform="matrix(1 0 0 -1 236.273 26.2075)" stroke="#161718" stroke-width="3"/>
<path d="M241.525 16.0266C241.525 15.941 241.595 15.8716 241.68 15.8716H253.86C253.946 15.8716 254.015 15.941 254.015 16.0266V26.3997C254.015 26.4854 253.946 26.5548 253.86 26.5548H241.68C241.595 26.5548 241.525 26.4854 241.525 26.3997V16.0266Z" fill="#393B3C" stroke="#161718" stroke-width="1.5"/>
<rect x="163.538" y="15.835" width="72.73" height="10.7574" stroke="#161718" stroke-width="3"/>
<path d="M176.606 13.1035C176.394 12.9999 176.161 12.946 175.925 12.946H163.538V29.4814H175.926C176.162 29.4814 176.394 29.4278 176.606 29.3247L178.31 28.4938V13.9364L176.606 13.1035Z" fill="#A8ABAE" stroke="#161718" stroke-width="3"/>
<path d="M163.54 13.9341H209.8V28.4923H163.54V13.9341Z" fill="#B0B3B5"/>
<rect x="163.54" y="18.3232" width="46.26" height="5.78011" fill="#9DA1A4"/>
<path d="M195.835 24.1038H198.417V28.4928H195.835V24.1038Z" fill="#938582" stroke="#191615" stroke-width="1.5"/>
<rect x="168.235" y="18.3232" width="1.7613" height="5.78011" fill="#B3B5B7"/>
<rect x="171.928" y="18.3232" width="1.7613" height="5.78011" fill="#B3B5B7"/>
<rect x="175.619" y="18.3232" width="1.7613" height="5.78011" fill="#B3B5B7"/>
<rect x="179.309" y="18.3232" width="1.7613" height="5.78011" fill="#B3B5B7"/>
<rect x="183" y="18.3232" width="1.7613" height="5.78011" fill="#B3B5B7"/>
<rect x="186.692" y="18.3232" width="1.7613" height="5.78011" fill="#B3B5B7"/>
<rect x="190.384" y="18.3232" width="1.7613" height="5.78011" fill="#B3B5B7"/>
<rect x="194.073" y="18.3232" width="1.7613" height="5.78011" fill="#B3B5B7"/>
<rect x="197.765" y="18.3232" width="1.7613" height="5.78011" fill="#B3B5B7"/>
<rect x="201.457" y="18.3232" width="1.7613" height="5.78011" fill="#B3B5B7"/>
<rect x="205.146" y="18.3232" width="1.7613" height="5.78011" fill="#B3B5B7"/>
<rect x="163.54" y="18.3232" width="46.26" height="5.78011" stroke="#161718" stroke-width="1.5"/>
<path d="M163.54 13.9341H209.8V28.4923H163.54V13.9341Z" stroke="#161718" stroke-width="3"/>
<path d="M209.8 16.8428H237.26V25.5839H209.8V16.8428Z" fill="#4A4D4F" stroke="#161718" stroke-width="1.5"/>
<path d="M237.265 16.8428H248.746C249.003 16.8428 249.211 17.051 249.211 17.3079V25.1188C249.211 25.3756 249.003 25.5839 248.746 25.5839H237.265V16.8428Z" fill="#3B3D3F" stroke="#161718" stroke-width="1.5"/>
</svg>
