<svg width="110" height="110" viewBox="0 0 110 110" fill="none" xmlns="http://www.w3.org/2000/svg">
<path d="M30.4434 68.0137L38.8218 63.1764L40.141 65.4612C40.2192 65.5966 40.1728 65.7698 40.0374 65.8479L32.1492 70.4022C32.0138 70.4803 31.8407 70.4339 31.7625 70.2985L30.4434 68.0137Z" fill="#545759" stroke="#323334" stroke-width="0.566194"/>
<path d="M38.9531 54.6182L39.1843 54.4867C39.2584 54.4446 39.3526 54.4702 39.3952 54.544L40.2711 56.061L42.5558 54.7419L41.6076 53.0995C40.7231 53.6063 39.8382 54.1124 38.9531 54.6182Z" fill="#464749"/>
<path d="M40.0429 55.6672L39.6504 54.9873L41.6174 53.8517L41.8044 54.1756C41.9105 54.3594 41.8491 54.5943 41.6666 54.7027L40.0429 55.6672Z" fill="#434446"/>
<rect width="0.212302" height="2.13776" transform="matrix(-0.866025 0.5 0.5 0.866025 72.875 37.874)" fill="#414244" stroke="#323334" stroke-width="0.283097"/>
<rect x="57.3789" y="44.3633" width="0.916176" height="1.39719" transform="rotate(-30 57.3789 44.3633)" fill="#393B3C" stroke="#323334" stroke-width="0.283097"/>
<path fill-rule="evenodd" clip-rule="evenodd" d="M41.666 53.2021L58.0722 43.73L58.9107 45.1824L42.5045 54.6545L41.666 53.2021ZM55.9845 45.5421C56.0461 45.6488 56.0096 45.7851 55.903 45.8467C55.7963 45.9083 55.6599 45.8717 55.5983 45.7651C55.5367 45.6584 55.5732 45.522 55.68 45.4604C55.7866 45.3988 55.923 45.4354 55.9845 45.5421ZM56.3131 46.557C56.4197 46.4954 56.4562 46.359 56.3946 46.2524C56.333 46.1457 56.1967 46.1091 56.0901 46.1707C55.9833 46.2323 55.9468 46.3687 56.0084 46.4753C56.07 46.582 56.2063 46.6186 56.3131 46.557ZM57.1061 44.8946C57.1677 45.0012 57.1311 45.1377 57.0244 45.1992C56.9177 45.2609 56.7813 45.2243 56.7197 45.1176C56.6582 45.0109 56.6947 44.8746 56.8014 44.8129C56.908 44.7514 57.0445 44.7879 57.1061 44.8946ZM57.4345 45.9095C57.5411 45.8479 57.5778 45.7115 57.5162 45.6048C57.4546 45.4982 57.3181 45.4617 57.2115 45.5232C57.1047 45.5848 57.0682 45.7212 57.1298 45.8279C57.1914 45.9346 57.3278 45.9711 57.4345 45.9095ZM58.0406 44.355C58.1022 44.4617 58.0656 44.5981 57.959 44.6597C57.8522 44.7213 57.7159 44.6847 57.6543 44.5781C57.5927 44.4714 57.6292 44.335 57.736 44.2734C57.8426 44.2118 57.9791 44.2483 58.0406 44.355ZM58.3691 45.3699C58.4757 45.3084 58.5123 45.1719 58.4507 45.0653C58.3891 44.9586 58.2527 44.9221 58.146 44.9837C58.0393 45.0453 58.0028 45.1817 58.0644 45.2883C58.126 45.395 58.2623 45.4316 58.3691 45.3699Z" fill="#4A4D4F"/>
<path fill-rule="evenodd" clip-rule="evenodd" d="M41.666 53.2021L58.0722 43.73L58.9107 45.1824L42.5045 54.6545L41.666 53.2021Z" stroke="#323334" stroke-width="0.566194"/>
<rect width="14.765" height="1.91664" transform="matrix(-0.866025 0.5 0.5 0.866025 72.7441 38.0771)" fill="#434547"/>
<rect x="65.5645" y="43.0723" width="7.81884" height="0.443342" rx="0.221671" transform="rotate(-30 65.5645 43.0723)" fill="#414344"/>
<rect x="65.8262" y="43.5225" width="7.81884" height="0.353352" rx="0.176676" transform="rotate(-30 65.8262 43.5225)" fill="#414344"/>
<rect x="65.3496" y="42.7021" width="7.81884" height="0.353352" rx="0.176676" transform="rotate(-30 65.3496 42.7021)" fill="#414344"/>
<rect x="65.2285" y="42.4922" width="7.81884" height="0.166861" rx="0.0834307" transform="rotate(-30 65.2285 42.4922)" fill="#414344"/>
<rect x="66.0391" y="43.8936" width="7.81884" height="0.166861" rx="0.0834307" transform="rotate(-30 66.0391 43.8936)" fill="#414344"/>
<rect width="14.765" height="1.91664" transform="matrix(-0.866025 0.5 0.5 0.866025 72.7441 38.0771)" stroke="#323334" stroke-width="0.566194"/>
<rect x="42.8496" y="55.251" width="19.7137" height="2.06425" transform="rotate(-30 42.8496 55.251)" fill="#464749"/>
<path d="M56.0031 48.8506C55.8978 48.6683 55.9603 48.4352 56.1426 48.33L59.5905 46.3393C59.7727 46.2341 60.2744 46.1414 60.3796 46.3237C60.4849 46.506 60.1538 46.8942 59.9716 46.9994L56.5237 48.9901C56.3414 49.0953 56.1083 49.0328 56.0031 48.8506Z" fill="#414244"/>
<path d="M56.4164 49.5696C56.3709 49.4907 56.4818 49.3414 56.664 49.2362L60.1119 47.2456C60.2942 47.1403 60.7475 46.9639 60.793 47.0427C60.8386 47.1216 60.4591 47.4259 60.2768 47.5311L56.8289 49.5218C56.6466 49.627 56.462 49.6484 56.4164 49.5696Z" fill="#414244"/>
<path d="M55.5863 48.1311C55.5408 48.0522 55.6517 47.903 55.834 47.7977L59.2819 45.8071C59.4641 45.7018 59.9174 45.5254 59.9629 45.6042C60.0085 45.6831 59.629 45.9874 59.4467 46.0927L55.9988 48.0833C55.8166 48.1886 55.6319 48.2099 55.5863 48.1311Z" fill="#414244"/>
<rect x="42.8496" y="55.251" width="19.7137" height="2.06425" transform="rotate(-30 42.8496 55.251)" stroke="#323334" stroke-width="0.566194"/>
<path fill-rule="evenodd" clip-rule="evenodd" d="M10.8022 78.0904C10.7634 78.1088 10.7469 78.155 10.7651 78.1938L11.0883 78.8771C11.0934 78.8878 11.1006 78.8968 11.1091 78.9038C11.1315 78.9224 11.1636 78.9274 11.1917 78.9141L11.5198 78.7589C11.5585 78.7406 11.5751 78.6943 11.5568 78.6556L11.2336 77.9722C11.2153 77.9335 11.169 77.9169 11.1303 77.9352L10.8022 78.0904ZM11.2942 78.7064C11.3604 78.675 11.3888 78.5959 11.3574 78.5297C11.3261 78.4634 11.247 78.4351 11.1807 78.4664C11.1145 78.4978 11.0862 78.5769 11.1175 78.6431C11.1488 78.7094 11.228 78.7377 11.2942 78.7064Z" fill="#414344" stroke="#323334" stroke-width="0.283097"/>
<path d="M20.7637 68.4597L20.9492 68.8134L37.3332 59.2495L36.0565 57.0382L24.8874 63.4409C24.7035 63.5463 24.6383 63.78 24.7413 63.9654L25.2615 64.9023C25.3861 65.1267 25.3054 65.4096 25.0812 65.5345L20.9492 67.8372C20.7287 67.96 20.6464 68.2362 20.7637 68.4597Z" fill="#343637"/>
<rect x="24.4688" y="63.9688" width="3.23607" height="0.386289" transform="rotate(-30 24.4688 63.9688)" fill="#414344" stroke="#323334" stroke-width="0.283097"/>
<path d="M36.0417 57.0128L27.3628 62.0236C27.3085 62.087 27.2689 62.1626 27.2482 62.2452L26.8298 63.9168C26.8038 64.0204 26.8218 64.1302 26.8795 64.2202L27.4019 65.048L37.3337 59.2505L36.0417 57.0128Z" fill="#4D4F51"/>
<path d="M36.9515 58.5886L36.6939 58.5066L34.911 59.5359L34.743 59.2448L34.8212 58.666L31.7304 60.3861C31.7321 60.4077 31.7371 60.429 31.7461 60.4487C32.2154 61.4782 31.1285 62.4635 30.2643 63.0026C29.5572 63.4436 28.2207 64.2422 27.849 64.3212C27.7311 64.3463 27.5923 64.3624 27.4962 64.2765C27.3828 64.1751 27.3286 63.9535 27.4352 63.7518C27.4415 63.7398 27.4476 63.728 27.4536 63.7162L27.4345 63.7311L26.8187 64.0359C26.823 64.1006 26.8435 64.1639 26.8792 64.2196L27.5042 65.2253L37.4361 59.4279L36.9515 58.5886Z" fill="#464749"/>
<path d="M27.3933 62.3354C27.5882 62.8249 27.7341 63.1912 27.4377 63.7518C27.3311 63.9535 27.3853 64.1751 27.4987 64.2765C27.5948 64.3624 27.7336 64.3463 27.8515 64.3213C28.2232 64.2423 29.5598 63.4436 30.2668 63.0026C31.131 62.4635 32.2179 61.4782 31.7487 60.4488C31.7322 60.4126 31.729 60.3713 31.7353 60.3321C31.7889 60.0023 31.4701 59.7565 31.321 59.755L27.4149 61.9944C27.3797 62.0952 27.3695 62.2756 27.3933 62.3354Z" fill="#404244"/>
<path d="M6.09994 80.6479L4.73324 78.2807L37.3352 59.2499L36.6882 58.1291L42.5563 54.7412L44.6952 58.4458C44.759 58.5564 44.7218 58.6978 44.6117 58.7625L25.5751 69.9679L6.62795 80.7907C6.44265 80.8965 6.20664 80.8327 6.09994 80.6479Z" fill="#4D4F51"/>
<path d="M30.7128 71.7508L30.4037 70.7066L30.8076 70.5297L30.9698 71.6953C30.9923 71.8568 30.7591 71.9072 30.7128 71.7508Z" fill="#343637" stroke="#323334" stroke-width="0.283097"/>
<path d="M26.7469 71.2528C26.1534 71.3322 25.6676 70.9915 25.4554 70.5139L25.082 70.7295C25.402 71.2837 26.0882 71.8086 26.8258 71.487C26.962 71.4277 26.894 71.2332 26.7469 71.2528Z" fill="#3E4041" stroke="#323334" stroke-width="0.283097"/>
<path d="M28.9802 70.876L29.5423 69.5261L29.3991 69.4665L28.837 70.8164C28.8103 70.8804 28.763 70.9336 28.7025 70.9676L25.3212 72.8662C25.2438 72.9096 25.1459 72.8794 25.1064 72.8L24.8151 72.214L24.6762 72.283L24.9675 72.869C25.0465 73.0279 25.2424 73.0882 25.3971 73.0014L28.7785 71.1028C28.8692 71.0519 28.9402 70.972 28.9802 70.876Z" fill="#45484A" stroke="#323334" stroke-width="0.283097"/>
<path d="M28.7307 68.4059L30.1879 70.9297L30.899 70.5192L29.3157 67.6963L28.4023 68.2236L28.7307 68.4059Z" fill="#434547" stroke="#323334" stroke-width="0.283097"/>
<path d="M20.8661 73.6939L20.5987 73.2307L24.3614 71.0583L24.7943 72.1265C24.8518 72.2686 24.8466 72.4284 24.7799 72.5665L24.6896 72.7535C24.5429 73.0571 24.511 73.4035 24.6 73.7287L25.3392 76.4324C25.4203 76.7289 25.5523 77.009 25.7294 77.2601C26.0647 77.7357 25.8862 78.3989 25.3575 78.642L24.6359 78.9737C23.9 79.312 23.0359 78.9128 22.8165 78.1332L21.8663 74.7564C21.7566 74.3664 21.468 74.0462 21.0933 73.8921C20.9983 73.853 20.9175 73.7829 20.8661 73.6939Z" fill="#4C3A34" stroke="#3D2E29" stroke-width="0.566194"/>
<path d="M24.6513 71.7702L24.3623 71.0571L20.5996 73.2295L20.729 73.4537L24.6513 71.7702Z" fill="#423F3E" stroke="#353231" stroke-width="0.566194"/>
<rect x="10.8574" y="83.5586" width="3.58861" height="0.337092" transform="rotate(-30 10.8574 83.5586)" fill="#414344" stroke="#323334" stroke-width="0.283097"/>
<path d="M43.2053 55.867L44.1116 57.4368L38.7103 60.7088C38.5039 60.8338 38.3128 60.9825 38.1409 61.1518L37.9008 61.3883C37.8556 61.4328 37.7791 61.4072 37.7697 61.3445L37.7214 61.0203C37.707 60.924 37.6747 60.8313 37.626 60.747L36.9285 59.5389L43.2053 55.867Z" fill="#505254" stroke="#323334" stroke-width="0.283097"/>
<path d="M41.4085 52.7587L41.6062 53.1013C33.6963 57.6328 25.7608 62.1201 17.8362 66.6259L17.7702 66.5117L17.8036 66.387L41.4085 52.7587Z" fill="#393B3C" stroke="#323334" stroke-width="0.283097"/>
<rect x="11.4062" y="83.6309" width="2.71498" height="0.365195" transform="rotate(-30 11.4062 83.6309)" fill="#393B3C" stroke="#323334" stroke-width="0.283097"/>
<ellipse cx="38.7912" cy="61.3717" rx="0.383308" ry="0.383308" transform="rotate(-30 38.7912 61.3717)" fill="#5C5E61"/>
<ellipse cx="28.5607" cy="67.0075" rx="0.383308" ry="0.383308" transform="rotate(-30 28.5607 67.0075)" fill="#57595C"/>
<ellipse cx="26.8576" cy="68.4437" rx="0.171731" ry="0.171731" transform="rotate(-30 26.8576 68.4437)" fill="#707376"/>
<ellipse cx="13.8861" cy="74.8507" rx="0.368396" ry="0.368396" transform="rotate(-30 13.8861 74.8507)" fill="#5C5E61"/>
<ellipse cx="11.4153" cy="77.0343" rx="0.368396" ry="0.368396" transform="rotate(-30 11.4153 77.0343)" fill="#5C5E61"/>
<ellipse cx="12.1478" cy="75.8526" rx="0.368396" ry="0.368396" transform="rotate(-30 12.1478 75.8526)" fill="#5C5E61"/>
<ellipse cx="43.7092" cy="58.5339" rx="0.383308" ry="0.383308" transform="rotate(-30 43.7092 58.5339)" fill="#5C5E61"/>
<ellipse cx="42.2795" cy="57.5885" rx="0.383308" ry="0.383308" transform="rotate(-30 42.2795 57.5885)" fill="#5C5E61"/>
<ellipse cx="40.5119" cy="58.6091" rx="0.383308" ry="0.383308" transform="rotate(-30 40.5119 58.6091)" fill="#5C5E61"/>
<path d="M4.86659 78.8054L3.09634 75.4194L1.15222 76.5008C0.432446 76.9012 0.151248 77.7944 0.511857 78.5349L0.702965 78.9273C0.872329 79.2751 1.10526 79.5882 1.38974 79.8503L1.60625 80.0498C2.67434 81.0339 3.54865 82.2094 4.18394 83.5155L4.8407 84.8656C5.31681 85.8444 6.52767 86.2074 7.46369 85.6519L13.1786 82.2605C13.5664 82.0304 13.98 81.8468 14.4108 81.7135L16.0433 81.2084C16.7629 80.9858 16.7745 79.9715 16.0602 79.7324L15.9915 79.7094C15.3943 79.5096 14.9558 78.9969 14.8509 78.3759L14.4993 76.2942L11.654 77.9195L11.8904 78.0591C12.0739 78.1674 12.2047 78.3464 12.2521 78.5541L12.5083 79.6757C12.6512 80.3016 12.3724 80.948 11.819 81.2735L9.80734 82.4569C9.58001 82.5906 9.28709 82.5088 9.16195 82.2766L7.95293 80.0336L6.62803 80.7904C6.44273 80.8962 6.20672 80.8324 6.10002 80.6476L4.99431 78.7324L4.86659 78.8054Z" fill="#3F454A"/>
<path d="M1.72561 76.1819L2.5228 77.8843L3.06834 79.0187L7.47942 85.6426C6.5434 86.198 5.31681 85.8444 4.8407 84.8656L4.18394 83.5155C3.54865 82.2094 2.67434 81.0339 1.60625 80.0498L1.38974 79.8503C1.10526 79.5882 0.872329 79.2751 0.702965 78.9273L0.511857 78.5349C0.151248 77.7944 0.432445 76.9012 1.15222 76.5008L1.72561 76.1819Z" fill="#34383C" stroke="#2F3337" stroke-width="0.283097"/>
<path d="M29.3301 67.7561L30.8986 70.5604C30.97 70.6881 31.1401 70.7189 31.2518 70.6245L36.4243 66.2491C36.6169 66.0862 36.7959 65.9079 36.9596 65.7159L38.8468 63.5028C39.0718 63.2391 39.1147 62.8654 38.9554 62.5575L38.7701 62.1995L29.3301 67.7561Z" fill="#505254" stroke="#323334" stroke-width="0.566194"/>
<path d="M57.998 43.6035L60.5465 42.1322C60.6948 42.0465 60.8845 42.0974 60.9701 42.2457L61.734 43.5688C61.8411 43.7542 62.0782 43.8177 62.2636 43.7107L62.659 43.4824C62.6961 43.461 62.7435 43.4737 62.7649 43.5108L64.0891 45.8044L62.0135 47.0028L60.8104 44.919C60.7152 44.7541 60.4354 44.5381 60.2546 44.6424L59.0121 45.3599L57.998 43.6035Z" fill="#3B3D3F" stroke="#323334" stroke-width="0.566194"/>
<path d="M52.4189 46.4008L52.895 46.5827L41.606 53.1004L41.4082 52.7578L52.4189 46.4008Z" fill="#9DA1A4" stroke="#313335" stroke-width="0.283097"/>
<path fill-rule="evenodd" clip-rule="evenodd" d="M56.1844 47.6562C56.7842 48.5959 57.0796 49.1463 57.5022 50.1873L46.7763 56.3799L47.0323 56.8234L46.8137 57.2837L44.7222 58.4912L41.6094 53.0996L52.8988 46.5817L56.1844 47.6562ZM51.2248 49.1121C51.1507 49.1549 51.1253 49.2498 51.1681 49.3239L51.2607 49.4844C51.3035 49.5586 51.3984 49.584 51.4725 49.5412L53.1653 48.5638C53.2395 48.521 53.2649 48.4262 53.2221 48.352L53.1294 48.1916C53.0866 48.1174 52.9918 48.092 52.9176 48.1348L51.2248 49.1121ZM48.7777 50.704C48.7349 50.6299 48.7603 50.535 48.8344 50.4922L50.5272 49.5149C50.6014 49.4721 50.6962 49.4975 50.739 49.5716L50.8317 49.7321C50.8745 49.8063 50.8491 49.9011 50.7749 49.9439L49.0821 50.9213C49.008 50.9641 48.9131 50.9387 48.8703 50.8645L48.7777 50.704ZM46.444 51.8723C46.3699 51.9151 46.3445 52.01 46.3873 52.0841L46.4799 52.2446C46.5227 52.3188 46.6176 52.3442 46.6917 52.3014L48.3845 51.324C48.4587 51.2812 48.4841 51.1864 48.4413 51.1122L48.3486 50.9517C48.3058 50.8776 48.211 50.8522 48.1368 50.895L46.444 51.8723ZM43.9969 53.4642C43.9541 53.3901 43.9795 53.2952 44.0536 53.2524L45.7464 52.2751C45.8206 52.2323 45.9154 52.2577 45.9582 52.3318L46.0509 52.4923C46.0937 52.5665 46.0683 52.6613 45.9941 52.7041L44.3013 53.6814C44.2272 53.7243 44.1323 53.6989 44.0895 53.6247L43.9969 53.4642ZM56.1724 49.3863C56.3166 49.303 56.3661 49.1186 56.2828 48.9744C56.1995 48.8301 56.0151 48.7807 55.8708 48.864C55.7266 48.9472 55.6771 49.1317 55.7604 49.2759C55.8437 49.4202 56.0281 49.4696 56.1724 49.3863ZM46.254 54.6575C46.2112 54.5833 46.2366 54.4885 46.3108 54.4457L48.0036 53.4683C48.0777 53.4255 48.1726 53.4509 48.2154 53.5251L48.308 53.6856C48.3508 53.7597 48.3254 53.8546 48.2513 53.8974L46.5585 54.8747C46.4843 54.9175 46.3895 54.8921 46.3467 54.8179L46.254 54.6575ZM48.6444 53.2774C48.6016 53.2032 48.627 53.1084 48.7012 53.0656L50.394 52.0882C50.4681 52.0454 50.563 52.0708 50.6058 52.145L50.6984 52.3055C50.7412 52.3796 50.7158 52.4745 50.6417 52.5173L48.9489 53.4946C48.8747 53.5374 48.7799 53.512 48.7371 53.4379L48.6444 53.2774ZM51.0916 51.6855C51.0174 51.7283 50.992 51.8231 51.0348 51.8973L51.1275 52.0578C51.1703 52.1319 51.2651 52.1573 51.3393 52.1145L53.0321 51.1372C53.1062 51.0944 53.1316 50.9995 53.0888 50.9254L52.9962 50.7649C52.9534 50.6907 52.8585 50.6653 52.7843 50.7081L51.0916 51.6855ZM53.482 50.3054C53.4078 50.3482 53.3824 50.443 53.4252 50.5172L53.5179 50.6777C53.5607 50.7518 53.6555 50.7772 53.7297 50.7344L55.4225 49.7571C55.4966 49.7143 55.522 49.6194 55.4792 49.5453L55.3866 49.3848C55.3438 49.3106 55.2489 49.2852 55.1747 49.3281L53.482 50.3054ZM52.7867 52.4537C52.7653 52.4166 52.778 52.3692 52.8151 52.3478L54.6425 51.2927C54.6795 51.2713 54.727 51.284 54.7484 51.3211L54.8196 51.4445C54.841 51.4815 54.8283 51.529 54.7912 51.5504L52.9638 52.6054C52.9267 52.6268 52.8793 52.6141 52.8579 52.577L52.7867 52.4537ZM50.4243 53.7281C50.3872 53.7495 50.3745 53.7969 50.3959 53.834L50.4671 53.9573C50.4886 53.9944 50.536 54.0071 50.5731 53.9857L52.4004 52.9307C52.4375 52.9093 52.4502 52.8618 52.4288 52.8248L52.3576 52.7014C52.3362 52.6643 52.2888 52.6516 52.2517 52.673L50.4243 53.7281Z" fill="#B0B3B5"/>
<path fill-rule="evenodd" clip-rule="evenodd" d="M57.103 49.2749C57.2319 49.5461 57.359 49.8393 57.5003 50.1874L47.1839 56.1436L48.056 54.7162C48.1911 54.4951 48.3795 54.3114 48.6039 54.1818L57.103 49.2749ZM52.7849 52.4537C52.7635 52.4166 52.7762 52.3692 52.8132 52.3478L54.6406 51.2927C54.6777 51.2713 54.7251 51.284 54.7465 51.3211L54.8178 51.4445C54.8392 51.4815 54.8265 51.529 54.7894 51.5504L52.962 52.6054C52.9249 52.6268 52.8775 52.6141 52.8561 52.577L52.7849 52.4537ZM50.4225 53.7281C50.3854 53.7495 50.3727 53.7969 50.3941 53.834L50.4653 53.9573C50.4867 53.9944 50.5341 54.0071 50.5712 53.9857L52.3986 52.9307C52.4357 52.9093 52.4484 52.8619 52.427 52.8248L52.3558 52.7014C52.3344 52.6643 52.287 52.6516 52.2499 52.673L50.4225 53.7281Z" fill="#A2A6A9"/>
<path fill-rule="evenodd" clip-rule="evenodd" d="M43.2374 53.0156L53.844 46.8918L56.0366 47.6089L43.9835 54.5678L43.0915 53.7408L43.0528 53.7047C42.9041 53.5868 42.9231 53.1971 43.2374 53.0156ZM51.1674 49.3248C51.1245 49.2506 51.1499 49.1557 51.2241 49.1129L52.9169 48.1356C52.991 48.0928 53.0859 48.1182 53.1287 48.1924L53.2213 48.3528C53.2642 48.427 53.2388 48.5218 53.1646 48.5647L51.4718 49.542C51.3977 49.5848 51.3028 49.5594 51.26 49.4852L51.1674 49.3248ZM48.8337 50.493C48.7595 50.5358 48.7341 50.6307 48.777 50.7049L48.8696 50.8653C48.9124 50.9395 49.0073 50.9649 49.0814 50.9221L50.7742 49.9448C50.8484 49.9019 50.8738 49.8071 50.8309 49.7329L50.7383 49.5725C50.6955 49.4983 50.6006 49.4729 50.5265 49.5157L48.8337 50.493ZM46.3866 52.0849C46.3437 52.0108 46.3691 51.9159 46.4433 51.8731L48.1361 50.8958C48.2102 50.853 48.3051 50.8784 48.3479 50.9526L48.4406 51.113C48.4834 51.1872 48.458 51.282 48.3838 51.3248L46.691 52.3022C46.6169 52.345 46.522 52.3196 46.4792 52.2454L46.3866 52.0849ZM44.0529 53.2532C43.9788 53.296 43.9533 53.3909 43.9962 53.465L44.0888 53.6255C44.1316 53.6997 44.2265 53.7251 44.3006 53.6823L45.9934 52.7049C46.0676 52.6621 46.093 52.5673 46.0502 52.4931L45.9575 52.3327C45.9147 52.2585 45.8199 52.2331 45.7457 52.2759L44.0529 53.2532Z" fill="#A2A6A9" stroke="#313335" stroke-width="0.283097"/>
<path d="M43.073 53.7246L44.4266 54.9795L43.1259 55.7304L42.2441 54.2031L43.073 53.7246Z" fill="#9DA1A4"/>
<rect x="43.125" y="55.7305" width="2.83469" height="1.71993" transform="rotate(-30 43.125 55.7305)" fill="#A8ABAE"/>
<path d="M46.4393 55.8034L43.9844 57.2207L44.7186 58.4924L46.8101 57.2849L47.0287 56.8246L46.4393 55.8034Z" fill="#A0A3A6"/>
<path d="M43.073 53.7246L44.4266 54.9795L45.5808 54.3131L46.4408 55.8026L47.0302 56.8238L46.8116 57.2841L44.7201 58.4916L43.9859 57.2199L43.1259 55.7304L42.2441 54.2031L43.073 53.7246Z" stroke="#313335" stroke-width="0.283097"/>
<path d="M49.7852 47.9229L50.2143 47.6751L51.505 49.9108C51.5265 49.9479 51.5137 49.9953 51.4767 50.0167L51.1819 50.1869C51.1448 50.2083 51.0974 50.1956 51.0759 50.1586L49.7852 47.9229Z" fill="#938582" stroke="#37312F" stroke-width="0.283097"/>
<rect x="18.1191" y="65.8633" width="0.338737" height="0.295478" transform="rotate(-30 18.1191 65.8633)" fill="#414244" stroke="#323334" stroke-width="0.283097"/>
<rect x="11.6973" y="83.8838" width="0.338737" height="0.295478" transform="rotate(-30 11.6973 83.8838)" fill="#414244" stroke="#323334" stroke-width="0.283097"/>
<rect x="18.7344" y="65.5088" width="0.338737" height="0.295478" transform="rotate(-30 18.7344 65.5088)" fill="#414244" stroke="#323334" stroke-width="0.283097"/>
<rect x="12.3125" y="83.5293" width="0.338737" height="0.295478" transform="rotate(-30 12.3125 83.5293)" fill="#414244" stroke="#323334" stroke-width="0.283097"/>
<rect x="19.3477" y="65.1553" width="0.338737" height="0.295478" transform="rotate(-30 19.3477 65.1553)" fill="#414244" stroke="#323334" stroke-width="0.283097"/>
<rect x="12.9258" y="83.1758" width="0.338737" height="0.295478" transform="rotate(-30 12.9258 83.1758)" fill="#414244" stroke="#323334" stroke-width="0.283097"/>
<rect x="19.9629" y="64.8008" width="0.338737" height="0.295478" transform="rotate(-30 19.9629 64.8008)" fill="#414244" stroke="#323334" stroke-width="0.283097"/>
<rect x="13.541" y="82.8213" width="0.338737" height="0.295478" transform="rotate(-30 13.541 82.8213)" fill="#414244" stroke="#323334" stroke-width="0.283097"/>
<rect x="20.5723" y="64.4463" width="0.338737" height="0.295478" transform="rotate(-30 20.5723 64.4463)" fill="#414244" stroke="#323334" stroke-width="0.283097"/>
<rect x="21.1875" y="64.0928" width="0.338737" height="0.295478" transform="rotate(-30 21.1875 64.0928)" fill="#414244" stroke="#323334" stroke-width="0.283097"/>
<rect x="21.8008" y="63.7383" width="0.338737" height="0.295478" transform="rotate(-30 21.8008 63.7383)" fill="#414244" stroke="#323334" stroke-width="0.283097"/>
<rect x="22.416" y="63.3848" width="0.338737" height="0.295478" transform="rotate(-30 22.416 63.3848)" fill="#414244" stroke="#323334" stroke-width="0.283097"/>
<rect x="23.0293" y="63.0303" width="0.338737" height="0.295478" transform="rotate(-30 23.0293 63.0303)" fill="#414244" stroke="#323334" stroke-width="0.283097"/>
<rect x="23.6406" y="62.6768" width="0.338737" height="0.295478" transform="rotate(-30 23.6406 62.6768)" fill="#414244" stroke="#323334" stroke-width="0.283097"/>
<rect x="24.2539" y="62.3223" width="0.338737" height="0.295478" transform="rotate(-30 24.2539 62.3223)" fill="#414244" stroke="#323334" stroke-width="0.283097"/>
<rect x="24.8672" y="61.9688" width="0.338737" height="0.295478" transform="rotate(-30 24.8672 61.9688)" fill="#414244" stroke="#323334" stroke-width="0.283097"/>
<rect x="25.4824" y="61.6143" width="0.338737" height="0.295478" transform="rotate(-30 25.4824 61.6143)" fill="#414244" stroke="#323334" stroke-width="0.283097"/>
<rect x="26.0938" y="61.2598" width="0.338737" height="0.295478" transform="rotate(-30 26.0938 61.2598)" fill="#414244" stroke="#323334" stroke-width="0.283097"/>
<rect x="26.709" y="60.9062" width="0.338737" height="0.295478" transform="rotate(-30 26.709 60.9062)" fill="#414244" stroke="#323334" stroke-width="0.283097"/>
<rect x="27.3223" y="60.5518" width="0.338737" height="0.295478" transform="rotate(-30 27.3223 60.5518)" fill="#414244" stroke="#323334" stroke-width="0.283097"/>
<rect x="27.9355" y="60.1982" width="0.338737" height="0.295478" transform="rotate(-30 27.9355 60.1982)" fill="#414244" stroke="#323334" stroke-width="0.283097"/>
<rect x="28.5469" y="59.8428" width="0.338737" height="0.295478" transform="rotate(-30 28.5469 59.8428)" fill="#414244" stroke="#323334" stroke-width="0.283097"/>
<rect x="29.1621" y="59.4893" width="0.338737" height="0.295478" transform="rotate(-30 29.1621 59.4893)" fill="#414244" stroke="#323334" stroke-width="0.283097"/>
<rect x="29.7754" y="59.1348" width="0.338737" height="0.295478" transform="rotate(-30 29.7754 59.1348)" fill="#414244" stroke="#323334" stroke-width="0.283097"/>
<rect x="30.3906" y="58.7793" width="0.338737" height="0.295478" transform="rotate(-30 30.3906 58.7793)" fill="#414244" stroke="#323334" stroke-width="0.283097"/>
<rect x="31" y="58.4258" width="0.338737" height="0.295478" transform="rotate(-30 31 58.4258)" fill="#414244" stroke="#323334" stroke-width="0.283097"/>
<rect x="31.6152" y="58.0713" width="0.338737" height="0.295478" transform="rotate(-30 31.6152 58.0713)" fill="#414244" stroke="#323334" stroke-width="0.283097"/>
<rect x="32.2285" y="57.7178" width="0.338737" height="0.295478" transform="rotate(-30 32.2285 57.7178)" fill="#414244" stroke="#323334" stroke-width="0.283097"/>
<rect x="32.8438" y="57.3633" width="0.338737" height="0.295478" transform="rotate(-30 32.8438 57.3633)" fill="#414244" stroke="#323334" stroke-width="0.283097"/>
<rect x="33.457" y="57.0098" width="0.338737" height="0.295478" transform="rotate(-30 33.457 57.0098)" fill="#414244" stroke="#323334" stroke-width="0.283097"/>
<rect x="34.0684" y="56.6553" width="0.338737" height="0.295478" transform="rotate(-30 34.0684 56.6553)" fill="#414244" stroke="#323334" stroke-width="0.283097"/>
<rect x="34.6816" y="56.3018" width="0.338737" height="0.295478" transform="rotate(-30 34.6816 56.3018)" fill="#414244" stroke="#323334" stroke-width="0.283097"/>
<rect x="35.2949" y="55.9473" width="0.338737" height="0.295478" transform="rotate(-30 35.2949 55.9473)" fill="#414244" stroke="#323334" stroke-width="0.283097"/>
<rect x="35.9102" y="55.5928" width="0.338737" height="0.295478" transform="rotate(-30 35.9102 55.5928)" fill="#414244" stroke="#323334" stroke-width="0.283097"/>
<rect x="36.5215" y="55.2393" width="0.338737" height="0.295478" transform="rotate(-30 36.5215 55.2393)" fill="#414244" stroke="#323334" stroke-width="0.283097"/>
<rect x="37.1367" y="54.8848" width="0.338737" height="0.295478" transform="rotate(-30 37.1367 54.8848)" fill="#414244" stroke="#323334" stroke-width="0.283097"/>
<rect x="37.75" y="54.5312" width="0.338737" height="0.295478" transform="rotate(-30 37.75 54.5312)" fill="#414244" stroke="#323334" stroke-width="0.283097"/>
<rect x="38.3633" y="54.1768" width="0.338737" height="0.295478" transform="rotate(-30 38.3633 54.1768)" fill="#414244" stroke="#323334" stroke-width="0.283097"/>
<rect x="38.9746" y="53.8232" width="0.338737" height="0.295478" transform="rotate(-30 38.9746 53.8232)" fill="#414244" stroke="#323334" stroke-width="0.283097"/>
<rect x="39.5898" y="53.4688" width="0.338737" height="0.295478" transform="rotate(-30 39.5898 53.4688)" fill="#414244" stroke="#323334" stroke-width="0.283097"/>
<rect x="40.2031" y="53.1152" width="0.338737" height="0.295478" transform="rotate(-30 40.2031 53.1152)" fill="#414244" stroke="#323334" stroke-width="0.283097"/>
<rect x="40.8184" y="52.7607" width="0.338737" height="0.295478" transform="rotate(-30 40.8184 52.7607)" fill="#414244" stroke="#323334" stroke-width="0.283097"/>
<rect x="41.4297" y="52.4062" width="0.338737" height="0.295478" transform="rotate(-30 41.4297 52.4062)" fill="#B2B5B8" stroke="#313335" stroke-width="0.283097"/>
<rect x="42.041" y="52.0527" width="0.338737" height="0.295478" transform="rotate(-30 42.041 52.0527)" fill="#B2B5B8" stroke="#313335" stroke-width="0.283097"/>
<rect x="42.6562" y="51.6973" width="0.338737" height="0.295478" transform="rotate(-30 42.6562 51.6973)" fill="#B2B5B8" stroke="#313335" stroke-width="0.283097"/>
<rect x="43.2695" y="51.3438" width="0.338737" height="0.295478" transform="rotate(-30 43.2695 51.3438)" fill="#B2B5B8" stroke="#313335" stroke-width="0.283097"/>
<rect x="43.8828" y="50.9893" width="0.338737" height="0.295478" transform="rotate(-30 43.8828 50.9893)" fill="#B2B5B8" stroke="#313335" stroke-width="0.283097"/>
<rect x="44.4961" y="50.6357" width="0.338737" height="0.295478" transform="rotate(-30 44.4961 50.6357)" fill="#B2B5B8" stroke="#313335" stroke-width="0.283097"/>
<rect x="45.1113" y="50.2803" width="0.338737" height="0.295478" transform="rotate(-30 45.1113 50.2803)" fill="#B2B5B8" stroke="#313335" stroke-width="0.283097"/>
<rect x="45.7227" y="49.9258" width="0.338737" height="0.295478" transform="rotate(-30 45.7227 49.9258)" fill="#B2B5B8" stroke="#313335" stroke-width="0.283097"/>
<rect x="46.3379" y="49.5723" width="0.338737" height="0.295478" transform="rotate(-30 46.3379 49.5723)" fill="#B2B5B8" stroke="#313335" stroke-width="0.283097"/>
<rect x="46.9492" y="49.2178" width="0.338737" height="0.295478" transform="rotate(-30 46.9492 49.2178)" fill="#B2B5B8" stroke="#313335" stroke-width="0.283097"/>
<rect x="47.5645" y="48.8643" width="0.338737" height="0.295478" transform="rotate(-30 47.5645 48.8643)" fill="#B2B5B8" stroke="#313335" stroke-width="0.283097"/>
<rect x="48.1777" y="48.5098" width="0.338737" height="0.295478" transform="rotate(-30 48.1777 48.5098)" fill="#B2B5B8" stroke="#313335" stroke-width="0.283097"/>
<rect x="48.793" y="48.1562" width="0.338737" height="0.295478" transform="rotate(-30 48.793 48.1562)" fill="#B2B5B8" stroke="#313335" stroke-width="0.283097"/>
<rect x="49.4023" y="47.8018" width="0.338737" height="0.295478" transform="rotate(-30 49.4023 47.8018)" fill="#B2B5B8" stroke="#313335" stroke-width="0.283097"/>
<rect x="50.0176" y="47.4482" width="0.338737" height="0.295478" transform="rotate(-30 50.0176 47.4482)" fill="#B2B5B8" stroke="#313335" stroke-width="0.283097"/>
<rect x="50.6309" y="47.0938" width="0.338737" height="0.295478" transform="rotate(-30 50.6309 47.0938)" fill="#B2B5B8" stroke="#313335" stroke-width="0.283097"/>
<rect x="51.2461" y="46.7393" width="0.338737" height="0.295478" transform="rotate(-30 51.2461 46.7393)" fill="#B2B5B8" stroke="#313335" stroke-width="0.283097"/>
<path d="M35.1983 64.3979L37.9749 65.1418C38.486 65.2788 38.7894 65.8042 38.6524 66.3154L37.9513 68.9319L34.1106 71.1493L32.0477 67.5764C31.9781 67.4558 31.9546 67.3141 31.9816 67.1775L32.1367 66.3921C32.1689 66.2295 32.2697 66.0886 32.4133 66.0057L35.1983 64.3979Z" fill="#595B5E" stroke="#323334" stroke-width="0.283097"/>
<ellipse cx="38.0197" cy="65.8974" rx="0.336121" ry="0.336121" transform="rotate(-30 38.0197 65.8974)" fill="#4D4F51"/>
<path d="M33.632 71.7558C33.5526 71.6183 33.5997 71.4425 33.7372 71.3631L38.3198 68.7174C38.4573 68.638 38.6331 68.6851 38.7125 68.8226L39.1356 69.5554L34.0551 72.4886L33.632 71.7558Z" fill="#4F5254" stroke="#323334" stroke-width="0.566194"/>
<path d="M34.0586 72.4873L39.139 69.5541L42.4261 75.2475C42.6907 75.7058 42.5337 76.2918 42.0754 76.5564L38.6546 78.5314C38.1963 78.796 37.6103 78.639 37.3457 78.1807L34.0586 72.4873Z" fill="#6A895B" stroke="#2F3D29" stroke-width="0.566194"/>
<ellipse cx="38.2433" cy="73.8709" rx="0.476952" ry="0.476952" transform="rotate(-30 38.2433 73.8709)" fill="#4D534B" stroke="#323630" stroke-width="0.283097"/>
<path fill-rule="evenodd" clip-rule="evenodd" d="M35.1456 71.537L36.0449 71.0178L36.185 71.2605L37.0173 70.7799L36.8772 70.5373L37.7765 70.0181L37.9166 70.2607C38.5982 71.5458 39.2369 73.0114 39.3582 74.0067C39.411 74.4398 39.2066 74.9227 38.939 75.0773C38.6713 75.2318 38.1508 75.1674 37.8021 74.9052C37.0008 74.3024 36.0509 73.0165 35.2788 71.7837L35.1456 71.537ZM37.3284 72.4193C37.1499 72.7291 37.3323 73.2532 37.6578 73.8662C37.9615 74.4378 38.2421 74.557 38.5733 74.5091C38.5828 74.5077 38.592 74.5048 38.6004 74.5005C38.6116 74.4948 38.6217 74.4866 38.6298 74.4765C38.8368 74.2136 38.8739 73.911 38.5307 73.3622C38.1626 72.7738 37.8 72.3538 37.4424 72.3535C37.3954 72.3534 37.3518 72.3786 37.3284 72.4193Z" fill="#646B61" stroke="#323630" stroke-width="0.283097"/>
<path d="M3.99837 77.1469L3.03268 75.2998C2.97463 75.1888 3.01496 75.0517 3.12389 74.9898L15.0825 68.1938L16.1133 70.1523L3.99837 77.1469Z" fill="#414344"/>
<path d="M42.554 54.7414L41.6066 53.1005C36.6915 55.9163 17.4122 66.8663 3.1233 74.9907C3.0144 75.0526 2.9741 75.1897 3.03214 75.3007L4.86463 78.8057L4.9924 78.7327L6.0981 80.6479C6.20481 80.8327 6.44081 80.8965 6.62612 80.7907L25.5733 69.9679L44.6099 58.7625C44.7199 58.6978 44.7572 58.5564 44.6933 58.4458L42.554 54.7414Z" stroke="#323334" stroke-width="0.566194"/>
<path d="M4.86659 78.8054L3.09634 75.4194L1.15222 76.5008C0.432446 76.9012 0.151248 77.7944 0.511857 78.5349L0.702965 78.9273C0.872329 79.2751 1.10526 79.5882 1.38974 79.8503L1.60625 80.0498C2.67434 81.0339 3.54865 82.2094 4.18394 83.5155L4.8407 84.8656C5.31681 85.8444 6.52767 86.2074 7.46369 85.6519L13.1786 82.2605C13.5664 82.0304 13.98 81.8468 14.4108 81.7135L16.0433 81.2084C16.7629 80.9858 16.7745 79.9715 16.0602 79.7324L15.9915 79.7094C15.3943 79.5096 14.9558 78.9969 14.8509 78.3759L14.4993 76.2942L11.654 77.9195L11.8904 78.0591C12.0739 78.1674 12.2047 78.3464 12.2521 78.5541L12.5083 79.6757C12.6512 80.3016 12.3724 80.948 11.819 81.2735L9.80734 82.4569C9.58001 82.5906 9.28709 82.5088 9.16195 82.2766L7.95293 80.0336L6.62803 80.7904C6.44273 80.8962 6.20672 80.8324 6.10002 80.6476L4.99431 78.7324L4.86659 78.8054Z" stroke="#2F3337" stroke-width="0.566194"/>
<path d="M33.6801 68.409C33.4685 68.0423 33.5941 67.5735 33.9607 67.3618V67.3618C34.3274 67.1502 34.7962 67.2758 35.0079 67.6424L36.3014 69.8829L34.9737 70.6495L33.6801 68.409Z" fill="#545759" stroke="#323334" stroke-width="0.283097"/>
<path d="M36.0417 57.0128L27.3628 62.0236C27.3085 62.087 27.2689 62.1626 27.2482 62.2452L26.8298 63.9168C26.8038 64.0204 26.8218 64.1302 26.8795 64.2202L27.4019 65.048L37.3337 59.2505L36.0417 57.0128Z" stroke="#323334" stroke-width="0.283097"/>
<path d="M6.09994 80.6479L4.73324 78.2807L37.3352 59.2499L36.6882 58.1291L42.5563 54.7412L44.6952 58.4458C44.759 58.5564 44.7218 58.6978 44.6117 58.7625L25.5751 69.9679L6.62795 80.7907C6.44265 80.8965 6.20664 80.8327 6.09994 80.6479Z" stroke="#323334" stroke-width="0.566194"/>
<path d="M36.8983 58.7942L40.5209 56.8141C40.5973 56.7723 40.6244 56.6759 40.5809 56.6005L39.3941 54.545C39.3515 54.4712 39.2573 54.4456 39.1832 54.4877L3.1233 74.9907C3.0144 75.0526 2.9741 75.1897 3.03214 75.3007L4.86463 78.8057L17.2241 71.7457L17.4192 71.4059L21.0264 69.4547C21.1384 69.3942 21.1808 69.2548 21.1217 69.1421L20.7639 68.46C20.6466 68.2366 20.7289 67.9604 20.9493 67.8375L25.0814 65.5349C25.3056 65.4099 25.3863 65.127 25.2617 64.9027L24.7612 63.9999C24.6582 63.8145 24.7036 63.5466 24.8876 63.4412L35.5274 57.3441C35.7127 57.2379 35.9491 57.3016 36.0559 57.4866L36.7939 58.765C36.815 58.8015 36.8613 58.8144 36.8983 58.7942Z" fill="#484A4C" stroke="#323334" stroke-width="0.566194"/>
<path d="M34.9844 64.1152L35.7248 64.3136L34.707 68.1122C34.6522 68.3166 34.442 68.438 34.2376 68.3832V68.3832C34.0331 68.3284 33.9118 68.1182 33.9666 67.9138L34.9844 64.1152Z" fill="#57595C"/>
<rect x="36.1309" y="59.1025" width="0.584516" height="0.952227" rx="0.155068" transform="rotate(-30 36.1309 59.1025)" fill="#5E6164" stroke="#323334" stroke-width="0.283097"/>
<path d="M26.5389 69.8367L26.1758 69.2077L25.1644 69.7487L24.9593 69.6192L24.2674 69.976L24.2372 70.2841L19.6629 72.925L20.0379 73.4806C20.0604 73.514 20.1048 73.5246 20.14 73.5049L26.5096 69.9431C26.5474 69.922 26.5606 69.8741 26.5389 69.8367Z" fill="#5C5E61" stroke="#323334" stroke-width="0.283097"/>
<ellipse cx="24.7893" cy="70.222" rx="0.171731" ry="0.171731" transform="rotate(-30 24.7893 70.222)" fill="#707376"/>
<path d="M56.1844 47.6562C56.7842 48.5959 57.0796 49.1463 57.5022 50.1873L46.7763 56.3799L47.0323 56.8234L46.8137 57.2837L44.7222 58.4912L41.6094 53.0996L52.8988 46.5817L56.1844 47.6562Z" stroke="#313335" stroke-width="0.566194"/>
<path d="M55.986 45.5424C56.0476 45.6491 56.0111 45.7855 55.9045 45.847C55.7977 45.9087 55.6614 45.8721 55.5998 45.7654C55.5382 45.6587 55.5747 45.5224 55.6815 45.4607C55.7881 45.3992 55.9244 45.4358 55.986 45.5424Z" stroke="#323334" stroke-width="0.283097"/>
<path d="M56.3146 46.5573C56.4212 46.4957 56.4577 46.3594 56.3961 46.2527C56.3345 46.146 56.1982 46.1094 56.0915 46.171C55.9848 46.2326 55.9483 46.369 56.0099 46.4757C56.0715 46.5824 56.2078 46.6189 56.3146 46.5573Z" stroke="#323334" stroke-width="0.283097"/>
<path d="M57.1076 44.8949C57.1692 45.0016 57.1325 45.138 57.0259 45.1996C56.9192 45.2612 56.7828 45.2246 56.7212 45.118C56.6596 45.0113 56.6961 44.8749 56.8029 44.8133C56.9095 44.7517 57.046 44.7882 57.1076 44.8949Z" stroke="#323334" stroke-width="0.283097"/>
<path d="M57.436 45.9098C57.5426 45.8483 57.5792 45.7118 57.5176 45.6052C57.4561 45.4985 57.3196 45.462 57.213 45.5235C57.1062 45.5852 57.0697 45.7216 57.1313 45.8282C57.1929 45.9349 57.3292 45.9715 57.436 45.9098Z" stroke="#323334" stroke-width="0.283097"/>
<path d="M58.0421 44.3553C58.1037 44.462 58.0671 44.5985 57.9605 44.66C57.8537 44.7216 57.7174 44.6851 57.6558 44.5784C57.5942 44.4717 57.6307 44.3354 57.7374 44.2737C57.8441 44.2122 57.9805 44.2487 58.0421 44.3553Z" stroke="#323334" stroke-width="0.283097"/>
<path d="M58.3705 45.3703C58.4771 45.3087 58.5138 45.1723 58.4522 45.0656C58.3906 44.9589 58.2541 44.9224 58.1475 44.984C58.0408 45.0456 58.0043 45.182 58.0658 45.2887C58.1274 45.3953 58.2638 45.4319 58.3705 45.3703Z" stroke="#323334" stroke-width="0.283097"/>
<path d="M56.1713 49.3873C56.3155 49.304 56.3649 49.1196 56.2817 48.9754C56.1984 48.8311 56.0139 48.7817 55.8697 48.865C55.7254 48.9483 55.676 49.1327 55.7593 49.2769C55.8426 49.4212 56.027 49.4706 56.1713 49.3873Z" stroke="#313335" stroke-width="0.283097"/>
<path d="M46.2529 54.6585C46.2101 54.5843 46.2355 54.4895 46.3097 54.4467L48.0024 53.4693C48.0766 53.4265 48.1714 53.4519 48.2143 53.5261L48.3069 53.6866C48.3497 53.7607 48.3243 53.8556 48.2501 53.8984L46.5574 54.8757C46.4832 54.9185 46.3884 54.8931 46.3456 54.8189L46.2529 54.6585Z" stroke="#313335" stroke-width="0.283097"/>
<path d="M48.6433 53.2784C48.6005 53.2042 48.6259 53.1094 48.7001 53.0666L50.3928 52.0892C50.467 52.0464 50.5618 52.0718 50.6047 52.146L50.6973 52.3065C50.7401 52.3806 50.7147 52.4755 50.6405 52.5183L48.9478 53.4956C48.8736 53.5384 48.7788 53.513 48.7359 53.4389L48.6433 53.2784Z" stroke="#313335" stroke-width="0.283097"/>
<path d="M51.0905 51.6865C51.0163 51.7293 50.9909 51.8241 51.0337 51.8983L51.1263 52.0588C51.1692 52.1329 51.264 52.1583 51.3382 52.1155L53.0309 51.1382C53.1051 51.0954 53.1305 51.0005 53.0877 50.9264L52.9951 50.7659C52.9522 50.6917 52.8574 50.6663 52.7832 50.7092L51.0905 51.6865Z" stroke="#313335" stroke-width="0.283097"/>
<path d="M53.4809 50.3064C53.4067 50.3492 53.3813 50.444 53.4241 50.5182L53.5167 50.6787C53.5596 50.7528 53.6544 50.7782 53.7286 50.7354L55.4213 49.7581C55.4955 49.7153 55.5209 49.6204 55.4781 49.5463L55.3855 49.3858C55.3426 49.3116 55.2478 49.2862 55.1736 49.3291L53.4809 50.3064Z" stroke="#313335" stroke-width="0.283097"/>
<path d="M52.7856 52.4547C52.7642 52.4176 52.7769 52.3702 52.814 52.3488L54.6413 51.2937C54.6784 51.2723 54.7258 51.285 54.7472 51.3221L54.8185 51.4455C54.8399 51.4825 54.8272 51.53 54.7901 51.5514L52.9627 52.6064C52.9256 52.6278 52.8782 52.6151 52.8568 52.578L52.7856 52.4547Z" stroke="#313335" stroke-width="0.283097"/>
<path d="M50.4232 53.7291C50.3861 53.7505 50.3734 53.7979 50.3948 53.835L50.466 53.9583C50.4874 53.9954 50.5349 54.0081 50.5719 53.9867L52.3993 52.9317C52.4364 52.9103 52.4491 52.8628 52.4277 52.8258L52.3565 52.7024C52.3351 52.6653 52.2877 52.6526 52.2506 52.674L50.4232 53.7291Z" stroke="#313335" stroke-width="0.283097"/>
<ellipse cx="34.3389" cy="68.0137" rx="0.288104" ry="0.288104" transform="rotate(-30 34.3389 68.0137)" fill="#4D4F51"/>
<path d="M34.9844 64.1152L35.7248 64.3136L34.707 68.1122C34.6522 68.3166 34.442 68.438 34.2376 68.3832V68.3832C34.0331 68.3284 33.9118 68.1182 33.9666 67.9138L34.9844 64.1152Z" stroke="#323334" stroke-width="0.283097"/>
<path fill-rule="evenodd" clip-rule="evenodd" d="M35.6271 58.7627C35.7367 58.3538 36.157 58.1111 36.5659 58.2207L37.3063 58.4191C37.7153 58.5287 37.9579 58.949 37.8484 59.3579L36.658 63.8005C36.5484 64.2094 36.1281 64.4521 35.7192 64.3425L34.9787 64.1441C34.5698 64.0346 34.3271 63.6142 34.4367 63.2053L35.6271 58.7627ZM36.4171 58.776L37.1575 58.9744C37.2598 59.0018 37.3204 59.1069 37.2931 59.2091L36.1027 63.6517C36.0753 63.7539 35.9702 63.8146 35.868 63.7872L35.1275 63.5888C35.0253 63.5614 34.9646 63.4563 34.992 63.3541L36.1824 58.9115C36.2098 58.8093 36.3149 58.7486 36.4171 58.776Z" fill="#5C5F61" stroke="#323334" stroke-width="0.283097"/>
<rect x="100.146" y="20.8428" width="1.85119" height="4.36833" transform="rotate(-30 100.146 20.8428)" fill="#393A3C" stroke="#323334" stroke-width="0.566194"/>
<rect x="95.2402" y="23.6748" width="5.66553" height="4.36833" transform="rotate(-30 95.2402 23.6748)" fill="#37383A" stroke="#323334" stroke-width="0.566194"/>
<rect x="93.4824" y="24.6895" width="2.02937" height="4.36833" transform="rotate(-30 93.4824 24.6895)" fill="#393A3C" stroke="#323334" stroke-width="0.566194"/>
<rect x="73.7637" y="36.0732" width="22.7673" height="4.36833" transform="rotate(-30 73.7637 36.0732)" fill="#3E3F41" stroke="#323334" stroke-width="0.566194"/>
<rect x="81.127" y="31.8213" width="6.99199" height="4.36833" transform="rotate(-30 81.127 31.8213)" fill="#393A3C" stroke="#323334" stroke-width="0.566194"/>
<path d="M72.3537 36.9695C72.3342 36.9356 72.3458 36.8924 72.3797 36.8728L73.7659 36.0725L75.9501 39.8555L74.5638 40.6559C74.53 40.6754 74.4867 40.6638 74.4671 40.63L72.3537 36.9695Z" fill="#393A3C" stroke="#323334" stroke-width="0.566194"/>
<path fill-rule="evenodd" clip-rule="evenodd" d="M101.75 19.916L102.503 19.4811L103.022 19.5433L107.149 17.1608C107.167 17.1502 107.189 17.147 107.209 17.1517L107.643 17.251C107.665 17.2562 107.685 17.2705 107.697 17.2907L109.181 19.8619C109.193 19.882 109.195 19.9061 109.189 19.9283L109.058 20.3532C109.052 20.3734 109.038 20.3905 109.02 20.401L104.893 22.7836L104.688 23.2641L103.934 23.6991L101.75 19.916ZM103.016 19.9658C102.776 20.1044 102.694 20.4114 102.832 20.6514L103.838 22.3942C103.977 22.6342 104.284 22.7165 104.524 22.5779L105.087 22.2529C105.327 22.1143 105.409 21.8073 105.271 21.5672L104.265 19.8245C104.126 19.5844 103.819 19.5022 103.579 19.6408L103.016 19.9658ZM104.536 19.6679C104.397 19.4278 104.479 19.1209 104.719 18.9823L105.147 18.7355C105.387 18.5969 105.694 18.6792 105.832 18.9193L106.839 20.662C106.977 20.9021 106.895 21.209 106.655 21.3476L106.227 21.5944C105.987 21.733 105.68 21.6507 105.542 21.4107L104.536 19.6679ZM106.33 18.0526C106.09 18.1912 106.007 18.4982 106.146 18.7382L107.152 20.481C107.291 20.7211 107.598 20.8033 107.838 20.6647L108.265 20.418C108.505 20.2794 108.587 19.9724 108.449 19.7324L107.443 17.9896C107.304 17.7495 106.997 17.6673 106.757 17.8059L106.33 18.0526Z" fill="#343537"/>
<path d="M101.75 19.916L102.503 19.4811L103.022 19.5433L107.149 17.1608C107.167 17.1502 107.189 17.147 107.209 17.1517L107.643 17.251C107.665 17.2562 107.685 17.2705 107.697 17.2907L109.181 19.8619C109.193 19.882 109.195 19.9061 109.189 19.9283L109.058 20.3532C109.052 20.3734 109.038 20.3905 109.02 20.401L104.893 22.7836L104.688 23.2641L103.934 23.6991L101.75 19.916Z" stroke="#323334" stroke-width="0.566194"/>
<path d="M103.015 19.9668C102.775 20.1054 102.692 20.4124 102.831 20.6524L103.837 22.3952C103.976 22.6353 104.283 22.7175 104.523 22.5789L105.086 22.2539C105.326 22.1153 105.408 21.8083 105.27 21.5683L104.263 19.8255C104.125 19.5854 103.818 19.5032 103.578 19.6418L103.015 19.9668Z" stroke="#323334" stroke-width="0.283097"/>
<path d="M104.535 19.6689C104.396 19.4289 104.478 19.1219 104.718 18.9833L105.146 18.7366C105.386 18.598 105.693 18.6802 105.831 18.9203L106.837 20.663C106.976 20.9031 106.894 21.2101 106.654 21.3487L106.226 21.5954C105.986 21.734 105.679 21.6517 105.541 21.4117L104.535 19.6689Z" stroke="#323334" stroke-width="0.283097"/>
<path d="M106.328 18.0536C106.088 18.1922 106.006 18.4992 106.145 18.7393L107.151 20.482C107.29 20.7221 107.597 20.8043 107.837 20.6657L108.264 20.419C108.504 20.2804 108.586 19.9734 108.448 19.7334L107.441 17.9906C107.303 17.7505 106.996 17.6683 106.756 17.8069L106.328 18.0536Z" stroke="#323334" stroke-width="0.283097"/>
</svg>
