<?xml version="1.0" encoding="UTF-8" standalone="no"?>
<svg
   width="310.81699"
   height="25"
   fill="none"
   version="1.1"
   viewBox="0 0 310.81699 25"
   xml:space="preserve"
   id="svg160"
   sodipodi:docname="arx160_world.svg"
   inkscape:version="1.1.2 (0a00cf5339, 2022-02-04)"
   xmlns:inkscape="http://www.inkscape.org/namespaces/inkscape"
   xmlns:sodipodi="http://sodipodi.sourceforge.net/DTD/sodipodi-0.dtd"
   xmlns="http://www.w3.org/2000/svg"
   xmlns:svg="http://www.w3.org/2000/svg"><defs
     id="defs164" /><sodipodi:namedview
     id="namedview162"
     pagecolor="#505050"
     bordercolor="#ffffff"
     borderopacity="1"
     inkscape:pageshadow="0"
     inkscape:pageopacity="0"
     inkscape:pagecheckerboard="1"
     showgrid="false"
     width="310.817px"
     inkscape:zoom="5.6568543"
     inkscape:cx="70.357125"
     inkscape:cy="-41.7193"
     inkscape:window-width="2560"
     inkscape:window-height="1372"
     inkscape:window-x="0"
     inkscape:window-y="0"
     inkscape:window-maximized="1"
     inkscape:current-layer="svg160" /><g
     transform="matrix(0.39313129,0,0,0.39313129,714.46456,162.97258)"
     id="g158"><g
       fill="#46422f"
       stroke="#46422f"
       stroke-linecap="round"
       stroke-linejoin="round"
       id="g16"><g
         stroke-width="4"
         id="g10"><rect
           x="-1783.3"
           y="-365.17001"
           width="17.790001"
           height="4.4443998"
           ry="0.90676999"
           id="rect2" /><rect
           x="-1783.3"
           y="-365.17001"
           width="9.5018997"
           height="5.8189001"
           ry="1.1872"
           id="rect4" /><rect
           x="-1803.1"
           y="-364.57999"
           width="5.4773998"
           height="5.8189001"
           ry="0"
           id="rect6" /><rect
           x="-1803.1"
           y="-402.48001"
           width="5.4773998"
           height="5.8189001"
           ry="0"
           id="rect8" /></g><path
         d="m -1726.2,-400.48 15.731,-1.5 v 7.3189 h -15.731 z"
         stroke-width="4"
         id="path12" /><path
         d="m -1726.2,-361.01 15.731,1.5 v -7.3189 h -15.731 z"
         stroke-width="4"
         id="path14" /></g><path
       d="m -1443.8,-403.07 h -162.41 l -36.83,6 h -196.32 v 32.899 h 196.32 l 36.83,6 h 162.41 z"
       fill="#847648"
       id="path18" /><path
       d="m -1643,-366.67 h 199.24 v 8.5 l -162.41,-10e-6 z"
       fill="#6e613a"
       stroke-linecap="round"
       stroke-linejoin="round"
       stroke-width="4"
       id="path20" /><path
       d="m -1643,-394.57 h 199.24 v -8.5 l -162.41,10e-6 z"
       fill="#6e613a"
       stroke-linecap="round"
       stroke-linejoin="round"
       stroke-width="4"
       id="path22" /><rect
       x="-1965"
       y="-397.07001"
       width="125.65"
       height="32.898998"
       ry="0"
       fill="#74673e"
       id="rect24" /><path
       d="m -1839.3,-355.38 c 2.6705,0 4.8368,-2.1652 4.8368,-4.8363 0,-2.6712 -2.1663,-4.8365 -4.8368,-4.8365 -2.6705,0 -4.8369,2.1653 -4.8369,4.8365 0,2.6711 2.1664,4.8363 4.8369,4.8363 z"
       fill="#46422f"
       stroke="#46422f"
       stroke-linecap="round"
       stroke-linejoin="round"
       stroke-width="2"
       id="path26" /><g
       transform="translate(-1125.1,-662.79)"
       stroke-linecap="round"
       stroke-linejoin="round"
       id="g32"><path
         d="m -134.58,275.22 -45.868,0.013 -2.935,2.2535 h -3.6246 l -3.1585,-1.2535 h -111.07 v 11.876 h 111.07 l 3.1585,-1.2016 h 3.6246 l 2.935,2.2016 45.868,-2e-4"
         fill="#424242"
         stroke="#333333"
         stroke-width="2"
         id="path28" /><path
         d="m -134.58,275.22 -45.868,0.0126 -2.935,1.7539 h -3.6246 l -3.1585,-0.7535 -87.31,-3.4e-4 v -1.0002 l -23.76,3.6e-4 v 13.876 h 23.76 v -1 h 87.31 l 3.1585,-0.7016 h 3.6246 l 2.935,1.7016 45.868,-2e-4 z"
         fill="none"
         stroke="#3b3b3b"
         stroke-width="8"
         id="path30" /></g><g
       stroke="#46422f"
       stroke-linecap="round"
       stroke-linejoin="round"
       id="g40"><rect
         x="-1638.7"
         y="-402.48001"
         width="5.4773998"
         height="5.8189001"
         ry="0"
         fill="#46422f"
         stroke-width="4"
         id="rect34" /><rect
         x="-1638.7"
         y="-364.57999"
         width="5.4773998"
         height="5.8189001"
         ry="0"
         fill="#46422f"
         stroke-width="4"
         id="rect36" /><path
         d="m -2042.3,-396.07 20.297,-1 v 32.899 l -20.297,-1 z"
         fill="#74673e"
         stroke-width="8"
         id="path38" /></g><rect
       x="-1853"
       y="-397.07001"
       width="13.683"
       height="32.898998"
       ry="0"
       fill="#7b6d42"
       id="rect42" /><g
       stroke-linecap="round"
       stroke-linejoin="round"
       id="g50"><rect
         x="-1965"
         y="-397.07001"
         width="125.65"
         height="32.898998"
         ry="0"
         fill="none"
         stroke="#46422f"
         stroke-width="8"
         id="rect44" /><rect
         transform="scale(-1,1)"
         x="1965"
         y="-395.42001"
         width="57.051998"
         height="29.598"
         ry="0"
         fill="#74673e"
         stroke="#46422f"
         stroke-width="8"
         id="rect46" /><rect
         x="-1657.2"
         y="-412.54999"
         width="3.1856"
         height="13.231"
         ry="0.95164001"
         fill="#3b3b3b"
         stroke="#3b3b3b"
         stroke-width="4"
         id="rect48" /></g><path
       d="m -1443.8,-403.07 h -162.41 c -12.761,0 -24.536,6 -36.83,6 h -196.32 v 32.899 h 196.32 c 12.294,0 24.069,6 36.83,6 h 162.41 z"
       fill="none"
       stroke="#46422f"
       stroke-linecap="round"
       stroke-linejoin="round"
       stroke-width="8"
       id="path52" /><g
       id="g92"><rect
         x="-1443.8"
         y="-397.07001"
         width="18.563"
         height="32.898998"
         ry="0"
         fill="#847648"
         stroke="#46422f"
         stroke-linecap="round"
         stroke-linejoin="round"
         stroke-width="8"
         id="rect54" /><g
         transform="translate(-1179.6,-561.7)"
         fill="#46422f"
         stroke-width="8.93"
         id="g72"><path
           d="m -321.4,202.33 h -4.007 c -1.206,0 -2.185,1.2191 -2.185,2.7228 v 2.9664 c 0,1.5037 0.979,2.7228 2.185,2.7228 h 4.007 c 1.207,0 2.186,-1.2191 2.186,-2.7228 v -2.9664 c 0,-1.5037 -0.979,-2.7228 -2.186,-2.7228 z"
           id="path56" /><path
           d="m -305.44,202.33 h -4.007 c -1.207,0 -2.185,1.2191 -2.185,2.7228 v 2.9664 c 0,1.5037 0.978,2.7228 2.185,2.7228 h 4.007 c 1.207,0 2.185,-1.2191 2.185,-2.7228 v -2.9664 c 0,-1.5037 -0.978,-2.7228 -2.185,-2.7228 z"
           id="path58" /><path
           d="m -289.48,202.33 h -4.007 c -1.207,0 -2.185,1.2191 -2.185,2.7228 v 2.9664 c 0,1.5037 0.978,2.7228 2.185,2.7228 h 4.007 c 1.207,0 2.185,-1.2191 2.185,-2.7228 v -2.9664 c 0,-1.5037 -0.978,-2.7228 -2.185,-2.7228 z"
           id="path60" /><path
           d="m -273.51,202.33 h -4.007 c -1.207,0 -2.185,1.2191 -2.185,2.7228 v 2.9664 c 0,1.5037 0.978,2.7228 2.185,2.7228 h 4.007 c 1.207,0 2.185,-1.2191 2.185,-2.7228 v -2.9664 c 0,-1.5037 -0.978,-2.7228 -2.185,-2.7228 z"
           id="path62" /><path
           d="m -385.26,202.33 h -4.007 c -1.206,0 -2.185,1.2191 -2.185,2.7228 v 2.9664 c 0,1.5037 0.979,2.7228 2.185,2.7228 h 4.007 c 1.207,0 2.186,-1.2191 2.186,-2.7228 v -2.9664 c 0,-1.5037 -0.979,-2.7228 -2.186,-2.7228 z"
           id="path64" /><path
           d="m -369.29,202.33 h -4.007 c -1.207,0 -2.185,1.2191 -2.185,2.7228 v 2.9664 c 0,1.5037 0.978,2.7228 2.185,2.7228 h 4.007 c 1.207,0 2.185,-1.2191 2.185,-2.7228 v -2.9664 c 0,-1.5037 -0.978,-2.7228 -2.185,-2.7228 z"
           id="path66" /><path
           d="m -353.33,202.33 h -4.007 c -1.207,0 -2.185,1.2191 -2.185,2.7228 v 2.9664 c 0,1.5037 0.978,2.7228 2.185,2.7228 h 4.007 c 1.207,0 2.185,-1.2191 2.185,-2.7228 v -2.9664 c 0,-1.5037 -0.978,-2.7228 -2.185,-2.7228 z"
           id="path68" /><path
           d="m -337.37,202.33 h -4.007 c -1.207,0 -2.186,1.2191 -2.186,2.7228 v 2.9664 c 0,1.5037 0.979,2.7228 2.186,2.7228 h 4.007 c 1.206,0 2.185,-1.2191 2.185,-2.7228 v -2.9664 c 0,-1.5037 -0.979,-2.7228 -2.185,-2.7228 z"
           id="path70" /></g><g
         transform="translate(-1179.6,-612.6)"
         fill="#46422f"
         stroke-width="8.93"
         id="g90"><path
           d="m -321.4,202.33 h -4.007 c -1.206,0 -2.185,1.2191 -2.185,2.7228 v 2.9664 c 0,1.5037 0.979,2.7228 2.185,2.7228 h 4.007 c 1.207,0 2.186,-1.2191 2.186,-2.7228 v -2.9664 c 0,-1.5037 -0.979,-2.7228 -2.186,-2.7228 z"
           id="path74" /><path
           d="m -305.44,202.33 h -4.007 c -1.207,0 -2.185,1.2191 -2.185,2.7228 v 2.9664 c 0,1.5037 0.978,2.7228 2.185,2.7228 h 4.007 c 1.207,0 2.185,-1.2191 2.185,-2.7228 v -2.9664 c 0,-1.5037 -0.978,-2.7228 -2.185,-2.7228 z"
           id="path76" /><path
           d="m -289.48,202.33 h -4.007 c -1.207,0 -2.185,1.2191 -2.185,2.7228 v 2.9664 c 0,1.5037 0.978,2.7228 2.185,2.7228 h 4.007 c 1.207,0 2.185,-1.2191 2.185,-2.7228 v -2.9664 c 0,-1.5037 -0.978,-2.7228 -2.185,-2.7228 z"
           id="path78" /><path
           d="m -273.51,202.33 h -4.007 c -1.207,0 -2.185,1.2191 -2.185,2.7228 v 2.9664 c 0,1.5037 0.978,2.7228 2.185,2.7228 h 4.007 c 1.207,0 2.185,-1.2191 2.185,-2.7228 v -2.9664 c 0,-1.5037 -0.978,-2.7228 -2.185,-2.7228 z"
           id="path80" /><path
           d="m -385.26,202.33 h -4.007 c -1.206,0 -2.185,1.2191 -2.185,2.7228 v 2.9664 c 0,1.5037 0.979,2.7228 2.185,2.7228 h 4.007 c 1.207,0 2.186,-1.2191 2.186,-2.7228 v -2.9664 c 0,-1.5037 -0.979,-2.7228 -2.186,-2.7228 z"
           id="path82" /><path
           d="m -369.29,202.33 h -4.007 c -1.207,0 -2.185,1.2191 -2.185,2.7228 v 2.9664 c 0,1.5037 0.978,2.7228 2.185,2.7228 h 4.007 c 1.207,0 2.185,-1.2191 2.185,-2.7228 v -2.9664 c 0,-1.5037 -0.978,-2.7228 -2.185,-2.7228 z"
           id="path84" /><path
           d="m -353.33,202.33 h -4.007 c -1.207,0 -2.185,1.2191 -2.185,2.7228 v 2.9664 c 0,1.5037 0.978,2.7228 2.185,2.7228 h 4.007 c 1.207,0 2.185,-1.2191 2.185,-2.7228 v -2.9664 c 0,-1.5037 -0.978,-2.7228 -2.185,-2.7228 z"
           id="path86" /><path
           d="m -337.37,202.33 h -4.007 c -1.207,0 -2.186,1.2191 -2.186,2.7228 v 2.9664 c 0,1.5037 0.979,2.7228 2.186,2.7228 h 4.007 c 1.206,0 2.185,-1.2191 2.185,-2.7228 v -2.9664 c 0,-1.5037 -0.979,-2.7228 -2.185,-2.7228 z"
           id="path88" /></g></g><g
       fill="#6e613a"
       stroke-width="8.93"
       id="g142"><path
         d="m -1501,-389.32 h -4.007 c -1.206,0 -2.185,1.2191 -2.185,2.7228 v 11.966 c 0,1.5037 0.979,2.7228 2.185,2.7228 h 4.007 c 1.207,0 2.186,-1.2191 2.186,-2.7228 v -11.966 c 0,-1.5037 -0.979,-2.7228 -2.186,-2.7228 z"
         id="path94" /><path
         d="m -1485.1,-389.32 h -4.007 c -1.207,0 -2.185,1.2191 -2.185,2.7228 v 11.966 c 0,1.5037 0.978,2.7228 2.185,2.7228 h 4.007 c 1.207,0 2.185,-1.2191 2.185,-2.7228 v -11.966 c 0,-1.5037 -0.978,-2.7228 -2.185,-2.7228 z"
         id="path96" /><path
         d="m -1469.1,-389.32 h -4.007 c -1.207,0 -2.185,1.2191 -2.185,2.7228 v 11.966 c 0,1.5037 0.978,2.7228 2.185,2.7228 h 4.007 c 1.207,0 2.185,-1.2191 2.185,-2.7228 v -11.966 c 0,-1.5037 -0.978,-2.7228 -2.185,-2.7228 z"
         id="path98" /><path
         d="m -1453.1,-389.32 h -4.007 c -1.207,0 -2.185,1.2191 -2.185,2.7228 v 11.966 c 0,1.5037 0.978,2.7228 2.185,2.7228 h 4.007 c 1.207,0 2.185,-1.2191 2.185,-2.7228 v -11.966 c 0,-1.5037 -0.978,-2.7228 -2.185,-2.7228 z"
         id="path100" /><path
         d="m -1564.9,-389.32 h -4.007 c -1.206,0 -2.185,1.2191 -2.185,2.7228 v 11.966 c 0,1.5037 0.979,2.7228 2.185,2.7228 h 4.007 c 1.207,0 2.186,-1.2191 2.186,-2.7228 v -11.966 c 0,-1.5037 -0.979,-2.7228 -2.186,-2.7228 z"
         id="path102" /><path
         d="m -1548.9,-389.32 h -4.007 c -1.207,0 -2.185,1.2191 -2.185,2.7228 v 11.966 c 0,1.5037 0.978,2.7228 2.185,2.7228 h 4.007 c 1.207,0 2.185,-1.2191 2.185,-2.7228 v -11.966 c 0,-1.5037 -0.978,-2.7228 -2.185,-2.7228 z"
         id="path104" /><path
         d="m -1532.9,-389.32 h -4.007 c -1.207,0 -2.185,1.2191 -2.185,2.7228 v 11.966 c 0,1.5037 0.978,2.7228 2.185,2.7228 h 4.007 c 1.207,0 2.185,-1.2191 2.185,-2.7228 v -11.966 c 0,-1.5037 -0.978,-2.7228 -2.185,-2.7228 z"
         id="path106" /><path
         d="m -1517,-389.32 h -4.007 c -1.207,0 -2.186,1.2191 -2.186,2.7228 v 11.966 c 0,1.5037 0.979,2.7228 2.186,2.7228 h 4.007 c 1.206,0 2.185,-1.2191 2.185,-2.7228 v -11.966 c 0,-1.5037 -0.979,-2.7228 -2.185,-2.7228 z"
         id="path108" /><path
         d="m -1628.7,-389.32 h -4.007 c -1.206,0 -2.185,1.2191 -2.185,2.7228 v 11.966 c 0,1.5037 0.979,2.7228 2.185,2.7228 h 4.007 c 1.207,0 2.186,-1.2191 2.186,-2.7228 v -11.966 c 0,-1.5037 -0.979,-2.7228 -2.186,-2.7228 z"
         id="path110" /><path
         d="m -1612.8,-389.32 h -4.007 c -1.207,0 -2.185,1.2191 -2.185,2.7228 v 11.966 c 0,1.5037 0.978,2.7228 2.185,2.7228 h 4.007 c 1.207,0 2.185,-1.2191 2.185,-2.7228 v -11.966 c 0,-1.5037 -0.978,-2.7228 -2.185,-2.7228 z"
         id="path112" /><path
         d="m -1596.8,-389.32 h -4.007 c -1.207,0 -2.185,1.2191 -2.185,2.7228 v 11.966 c 0,1.5037 0.978,2.7228 2.185,2.7228 h 4.007 c 1.207,0 2.185,-1.2191 2.185,-2.7228 v -11.966 c 0,-1.5037 -0.978,-2.7228 -2.185,-2.7228 z"
         id="path114" /><path
         d="m -1580.8,-389.32 h -4.007 c -1.207,0 -2.185,1.2191 -2.185,2.7228 v 11.966 c 0,1.5037 0.978,2.7228 2.185,2.7228 h 4.007 c 1.207,0 2.185,-1.2191 2.185,-2.7228 v -11.966 c 0,-1.5037 -0.978,-2.7228 -2.185,-2.7228 z"
         id="path116" /><path
         d="m -1692.6,-389.32 h -4.007 c -1.206,0 -2.185,1.2191 -2.185,2.7228 v 11.966 c 0,1.5037 0.979,2.7228 2.185,2.7228 h 4.007 c 1.207,0 2.186,-1.2191 2.186,-2.7228 v -11.966 c 0,-1.5037 -0.979,-2.7228 -2.186,-2.7228 z"
         id="path118" /><path
         d="m -1676.6,-389.32 h -4.007 c -1.207,0 -2.185,1.2191 -2.185,2.7228 v 11.966 c 0,1.5037 0.978,2.7228 2.185,2.7228 h 4.007 c 1.207,0 2.185,-1.2191 2.185,-2.7228 v -11.966 c 0,-1.5037 -0.978,-2.7228 -2.185,-2.7228 z"
         id="path120" /><path
         d="m -1660.7,-389.32 h -4.007 c -1.207,0 -2.185,1.2191 -2.185,2.7228 v 11.966 c 0,1.5037 0.978,2.7228 2.185,2.7228 h 4.007 c 1.207,0 2.185,-1.2191 2.185,-2.7228 v -11.966 c 0,-1.5037 -0.978,-2.7228 -2.185,-2.7228 z"
         id="path122" /><path
         d="m -1644.7,-389.32 h -4.007 c -1.207,0 -2.186,1.2191 -2.186,2.7228 v 11.966 c 0,1.5037 0.979,2.7228 2.186,2.7228 h 4.007 c 1.206,0 2.185,-1.2191 2.185,-2.7228 v -11.966 c 0,-1.5037 -0.979,-2.7228 -2.185,-2.7228 z"
         id="path124" /><path
         d="m -1756.4,-389.32 h -4.007 c -1.206,0 -2.185,1.2191 -2.185,2.7228 v 11.966 c 0,1.5037 0.979,2.7228 2.185,2.7228 h 4.007 c 1.207,0 2.186,-1.2191 2.186,-2.7228 v -11.966 c 0,-1.5037 -0.979,-2.7228 -2.186,-2.7228 z"
         id="path126" /><path
         d="m -1740.5,-389.32 h -4.007 c -1.207,0 -2.185,1.2191 -2.185,2.7228 v 11.966 c 0,1.5037 0.978,2.7228 2.185,2.7228 h 4.007 c 1.207,0 2.185,-1.2191 2.185,-2.7228 v -11.966 c 0,-1.5037 -0.978,-2.7228 -2.185,-2.7228 z"
         id="path128" /><path
         d="m -1724.5,-389.32 h -4.007 c -1.207,0 -2.185,1.2191 -2.185,2.7228 v 11.966 c 0,1.5037 0.978,2.7228 2.185,2.7228 h 4.007 c 1.207,0 2.185,-1.2191 2.185,-2.7228 v -11.966 c 0,-1.5037 -0.978,-2.7228 -2.185,-2.7228 z"
         id="path130" /><path
         d="m -1708.5,-389.32 h -4.007 c -1.207,0 -2.185,1.2191 -2.185,2.7228 v 11.966 c 0,1.5037 0.978,2.7228 2.185,2.7228 h 4.007 c 1.207,0 2.185,-1.2191 2.185,-2.7228 v -11.966 c 0,-1.5037 -0.978,-2.7228 -2.185,-2.7228 z"
         id="path132" /><path
         d="m -1820.3,-389.32 h -4.007 c -1.206,0 -2.185,1.2191 -2.185,2.7228 v 11.966 c 0,1.5037 0.979,2.7228 2.185,2.7228 h 4.007 c 1.207,0 2.186,-1.2191 2.186,-2.7228 v -11.966 c 0,-1.5037 -0.979,-2.7228 -2.186,-2.7228 z"
         id="path134" /><path
         d="m -1804.3,-389.32 h -4.007 c -1.207,0 -2.185,1.2191 -2.185,2.7228 v 11.966 c 0,1.5037 0.978,2.7228 2.185,2.7228 h 4.007 c 1.207,0 2.185,-1.2191 2.185,-2.7228 v -11.966 c 0,-1.5037 -0.978,-2.7228 -2.185,-2.7228 z"
         id="path136" /><path
         d="m -1788.4,-389.32 h -4.007 c -1.207,0 -2.185,1.2191 -2.185,2.7228 v 11.966 c 0,1.5037 0.978,2.7228 2.185,2.7228 h 4.007 c 1.207,0 2.185,-1.2191 2.185,-2.7228 v -11.966 c 0,-1.5037 -0.978,-2.7228 -2.185,-2.7228 z"
         id="path138" /><path
         d="m -1772.4,-389.32 h -4.007 c -1.207,0 -2.186,1.2191 -2.186,2.7228 v 11.966 c 0,1.5037 0.979,2.7228 2.186,2.7228 h 4.007 c 1.206,0 2.185,-1.2191 2.185,-2.7228 v -11.966 c 0,-1.5037 -0.979,-2.7228 -2.185,-2.7228 z"
         id="path140" /></g><path
       d="m -1810.3,-387.83 h 38.043 v 1.9524 h -5.6142 v 10.321 h 5.6142 v 2.1502 h -38.043 z"
       fill="#847648"
       id="path144" /><rect
       x="-1809.8"
       y="-387.82999"
       width="9.8238001"
       height="14.424"
       ry="0"
       fill="#6e613a"
       stroke="#46422f"
       stroke-linecap="round"
       stroke-linejoin="round"
       stroke-width="4"
       id="rect146" /><path
       d="m -1810.3,-387.83 h 38.043 v 1.4524 h -7.1142 v 11.321 h 7.1142 v 1.6502 h -38.043 z"
       fill="none"
       stroke="#46422f"
       stroke-linecap="round"
       stroke-linejoin="round"
       stroke-width="4"
       id="path148" /><path
       d="m -1491,-387.83 h 38.043 v 1.9524 h -5.6142 v 10.321 h 5.6142 v 2.1502 H -1491 Z"
       fill="#847648"
       id="path150" /><rect
       x="-1490.5"
       y="-387.82999"
       width="9.8238001"
       height="14.424"
       ry="0"
       fill="#6e613a"
       stroke="#46422f"
       stroke-linecap="round"
       stroke-linejoin="round"
       stroke-width="4"
       id="rect152" /><path
       d="m -1491,-387.83 h 38.043 v 1.4524 h -7.1142 v 11.321 h 7.1142 v 1.6502 H -1491 Z"
       fill="none"
       stroke="#46422f"
       stroke-linecap="round"
       stroke-linejoin="round"
       stroke-width="4"
       id="path154" /><circle
       cx="-1485.6"
       cy="-380.62"
       r="1.4857"
       fill="#424242"
       id="circle156" /></g></svg>
