<svg width="111" height="110" viewBox="0 0 111 110" fill="none" xmlns="http://www.w3.org/2000/svg">
<g clip-path="url(#clip0_619_1196)">
<rect width="110" height="110" transform="translate(0.0175781)" fill="white" fill-opacity="0.01"/>
<path d="M85.4007 31.7552L84.3086 32.3857L85.3978 34.2723L86.4899 33.6417L85.4007 31.7552Z" fill="#55554D" stroke="#363630" stroke-width="1.4031" stroke-miterlimit="3.99393" stroke-linecap="round"/>
<path d="M83.0895 33.0929L85.3967 31.7608C85.3967 31.7608 86.4115 31.1648 85.4761 29.6007C84.5406 28.0366 80.8691 31.092 80.8691 31.092L83.0895 33.0929Z" fill="#55554D" stroke="#363630" stroke-width="1.4031" stroke-miterlimit="3.99393" stroke-linecap="round"/>
<path d="M74.7873 26.5003L74.1179 25.6636C73.8987 25.3891 73.9497 24.983 74.2315 24.7555L74.9978 24.1429C75.1305 24.036 75.2907 23.9698 75.4586 23.9518L79.6475 23.4796C80.0736 23.432 80.4519 23.726 80.5054 24.1447L80.686 25.5695L74.7873 26.5003Z" fill="#464640" stroke="#353530" stroke-width="1.4031" stroke-miterlimit="3.99393" stroke-linecap="round"/>
<path d="M83.0869 33.0913C83.0869 33.0913 81.0099 34.4949 79.607 35.4092C79.967 35.152 80.1881 35.0263 80.1881 35.0263L79.4594 33.7641L62.3574 43.64C61.1939 44.3117 59.7061 43.9131 59.0344 42.7496L56.5658 38.4739L40.2154 47.9138C38.9504 47.8515 36.7629 47.8696 35.502 48.5977L74.3615 26.1621L80.5989 25.2322C80.5989 25.2322 81.9956 27.097 80.4481 27.2755C80.2468 27.2986 80.1377 27.5236 80.2522 27.6904C80.8924 28.6169 82.4197 30.943 83.01 32.8178C83.0391 32.9103 83.0658 33.0022 83.0869 33.0913Z" fill="#55554D" stroke="#363630" stroke-width="1.4031" stroke-miterlimit="3.99393" stroke-linecap="round"/>
<path d="M63.7668 45.2725L64.9063 44.6146C64.9357 45.5604 65.2469 46.7384 66.3203 47.8081C66.361 47.8484 66.385 47.8984 66.3931 47.9499C66.3989 47.987 66.3964 48.0248 66.3859 48.0605C66.3685 48.1198 66.3294 48.1734 66.2696 48.2079L63.7549 49.6598C63.698 49.5691 63.6535 49.4911 63.6216 49.4324C63.581 49.3579 63.5607 49.3143 63.5607 49.3143C62.2594 47.0602 63.5674 45.4849 63.7308 45.3014C63.7419 45.2888 63.7531 45.2804 63.7668 45.2725Z" fill="#4B4B44" stroke="#363630" stroke-width="1.4031" stroke-miterlimit="3.99393"/>
<path d="M88.0701 21.4047L79.3242 26.4541L81.3122 29.8974L90.0581 24.848L88.0701 21.4047Z" fill="#55554D" stroke="#363630" stroke-width="1.4031" stroke-miterlimit="3.99393" stroke-linecap="round"/>
<path d="M29.1173 73.89L32.0189 74.3837L34.5997 68.6813L29.1173 73.89Z" fill="#55554D" stroke="#363630" stroke-width="1.4031" stroke-miterlimit="3.99393" stroke-linecap="round"/>
<path d="M35.4984 71.4743C35.4984 71.4743 44.1415 82.0022 45.951 83.2561C45.951 83.2561 46.929 84.182 47.233 84.9786C47.537 85.7752 48.8493 85.0175 48.8493 85.0175L55.3976 78.3226C55.3976 78.3226 56.8905 77.811 54.5017 75.9641C52.1129 74.1171 45.6079 66.3474 44.6644 64.2432L41.5641 63.3842L35.065 69.1576L35.4984 71.4743Z" fill="#484841" stroke="#363630" stroke-width="1.4031" stroke-miterlimit="3.99393" stroke-linecap="round"/>
<path d="M83.2769 35.5004L88.0038 32.7713C88.0038 32.7713 90.6441 38.1407 92.2766 39.6811C93.9092 41.2214 94.8548 44.1466 94.8548 44.1466C94.8548 44.1466 96.1167 46.1885 96.8683 46.4168C97.6198 46.6452 95.1762 48.7162 95.1762 48.7162C95.1762 48.7162 91.9589 51.236 90.8127 49.2508C89.6666 47.2656 87.5836 43.2999 86.7496 40.6383C85.9157 37.9767 83.5429 36.6591 83.5429 36.6591C83.5429 36.6591 82.2137 36.1142 83.2769 35.5004Z" fill="#6E6E4A" stroke="#3D3D28" stroke-width="1.4031" stroke-miterlimit="3.99393" stroke-linecap="round"/>
<path d="M62.3594 43.6398C61.196 44.3116 59.7081 43.9129 59.0364 42.7494L56.5678 38.4737L3.88477 68.8903C-0.946857 71.6799 3.45102 75.7895 3.45102 75.7895L20.1932 92.3031L27.552 88.0544C29.7058 86.8109 27.7324 85.4836 27.7324 85.4836C25.1872 84.853 26.928 81.9645 26.928 81.9645C26.928 81.9645 31.2853 73.1059 32.7707 71.1081C34.2585 69.1109 35.2643 71.2957 35.4362 71.4384C35.6081 71.5811 44.0064 64.0156 44.2284 63.8105C44.4505 63.6053 45.3715 62.2756 44.7208 60.9907C44.0725 59.7063 45.2592 58.6505 45.2592 58.6505C45.2592 58.6505 47.0724 56.7187 50.4023 53.7451C52.8157 51.5902 54.6923 52.0764 54.6923 52.0764C54.6923 52.0764 56.2801 52.964 55.8947 57.0284C55.3665 62.6029 59.1095 68.2652 59.5119 68.7235C59.9142 69.1818 61.1651 68.5527 66.3217 65.6667C71.4792 62.7822 71.8343 59.507 71.8343 59.507C71.8343 59.507 73.0839 52.155 73.8773 45.1596C74.6706 38.1642 80.1901 35.0262 80.1901 35.0262L79.4614 33.764L62.3594 43.6398ZM71.8652 45.5436L69.714 58.9915C69.6949 59.1569 69.7367 60.718 67.071 62.2571C64.2716 63.8733 64.1225 61.6365 64.1225 61.6365C64.1225 61.6365 63.3905 54.3634 63.2197 52.7487C63.0702 51.3322 63.7019 51.0162 63.8596 50.9596C63.8895 50.9483 63.9171 50.9365 63.9445 50.9207L64.3561 50.683C64.4381 50.6357 64.4548 50.5207 64.3864 50.4549C63.8364 49.9057 63.5612 49.3132 63.5612 49.3132C62.2598 47.0592 63.6111 45.3616 63.8064 45.2488L68.2662 42.6739C68.6657 42.4433 69.1339 42.3492 69.5889 42.4288C72.5215 42.9411 71.8996 45.4103 71.8652 45.5436Z" fill="#6E6E4A"/>
<path d="M71.8643 45.5421L71.8652 45.5436M71.8652 45.5436L69.714 58.9915C69.6949 59.1569 69.7367 60.718 67.071 62.2571C64.2716 63.8733 64.1225 61.6365 64.1225 61.6365C64.1225 61.6365 63.3905 54.3634 63.2197 52.7487C63.0702 51.3322 63.7019 51.0162 63.8596 50.9596C63.8895 50.9483 63.9171 50.9365 63.9445 50.9207L64.3561 50.683C64.4381 50.6357 64.4548 50.5207 64.3864 50.4549C63.8364 49.9057 63.5612 49.3132 63.5612 49.3132C62.2598 47.0592 63.6111 45.3616 63.8064 45.2488L68.2662 42.6739C68.6657 42.4433 69.1339 42.3492 69.5889 42.4288C72.5215 42.9411 71.8996 45.4103 71.8652 45.5436ZM62.3594 43.6398C61.196 44.3116 59.7081 43.9129 59.0364 42.7494L56.5678 38.4737L3.88477 68.8903C-0.946857 71.6799 3.45102 75.7895 3.45102 75.7895L20.1932 92.3031L27.552 88.0544C29.7058 86.8109 27.7324 85.4836 27.7324 85.4836C25.1872 84.853 26.928 81.9645 26.928 81.9645C26.928 81.9645 31.2853 73.1059 32.7707 71.1081C34.2585 69.1109 35.2643 71.2957 35.4362 71.4384C35.6081 71.5811 44.0064 64.0156 44.2284 63.8105C44.4505 63.6053 45.3715 62.2756 44.7208 60.9907C44.0725 59.7063 45.2592 58.6505 45.2592 58.6505C45.2592 58.6505 47.0724 56.7187 50.4023 53.7451C52.8157 51.5902 54.6923 52.0764 54.6923 52.0764C54.6923 52.0764 56.2801 52.964 55.8947 57.0284C55.3665 62.6029 59.1095 68.2652 59.5119 68.7235C59.9142 69.1818 61.1651 68.5527 66.3217 65.6667C71.4792 62.7822 71.8343 59.507 71.8343 59.507C71.8343 59.507 73.0839 52.155 73.8773 45.1596C74.6706 38.1642 80.1901 35.0262 80.1901 35.0262L79.4614 33.764L62.3594 43.6398Z" stroke="#3D3D28" stroke-width="1.4031" stroke-miterlimit="3.99393" stroke-linecap="round"/>
<path d="M2.10938 74.0586L2.46015 74.6662L26.9403 60.5325L26.5895 59.925L2.10938 74.0586Z" fill="#4F4F35"/>
<path d="M4.55469 77.2803L4.90546 77.8878L42.515 56.174L42.1642 55.5664L4.55469 77.2803Z" fill="#4F4F35"/>
<path d="M36.5962 52.1387L25.8151 58.3632C25.5936 58.4911 25.5177 58.7743 25.6456 58.9957L26.4594 60.4053C26.5872 60.6267 26.8704 60.7026 27.0919 60.5747L37.873 54.3502C38.0945 54.2224 38.1704 53.9392 38.0425 53.7177L37.2287 52.3082C37.1009 52.0867 36.8177 52.0109 36.5962 52.1387Z" fill="#464640" stroke="#353530" stroke-width="0.701549" stroke-miterlimit="3.99393" stroke-linecap="round"/>
<path d="M71.0714 32.8221L62.0142 38.0513C61.2944 38.4668 61.0478 39.3872 61.4633 40.1069C61.8789 40.8267 62.8001 41.0748 63.5199 40.6592L72.5771 35.4301C73.2968 35.0145 73.5425 34.0927 73.127 33.3729C72.7114 32.6532 71.7911 32.4066 71.0714 32.8221Z" fill="#464640" stroke="#353530" stroke-width="0.701549" stroke-miterlimit="3.99393" stroke-linecap="round"/>
<path d="M88.8757 24.2817L81.0078 28.8242L82.3057 31.0722L90.1736 26.5296L88.8757 24.2817Z" fill="#55554D" stroke="#363630" stroke-width="1.4031" stroke-miterlimit="3.99393" stroke-linecap="round"/>
<path d="M41.5859 55.2656L44.2911 53.7038L45.0733 55.0587C45.3136 55.4748 45.1711 56.0067 44.7549 56.247L43.5216 56.9591C43.1251 57.1879 42.6172 57.0518 42.3883 56.6554L41.5859 55.2656Z" fill="#464640" stroke="#353530" stroke-width="0.701549" stroke-miterlimit="3.99393" stroke-linecap="round"/>
<path d="M103.22 13.4449L88.4121 21.9941L89.7538 24.3181L104.562 15.7688L103.22 13.4449Z" fill="#55554D" stroke="#363630" stroke-width="1.4031" stroke-miterlimit="3.99393" stroke-linecap="round"/>
<path d="M100.099 14.6111L99.1052 15.1846C98.9651 15.2655 98.9171 15.4446 98.998 15.5847L100.508 18.2003C100.589 18.3403 100.768 18.3883 100.908 18.3075L101.902 17.7339C102.042 17.6531 102.09 17.4739 102.009 17.3338L100.499 14.7183C100.418 14.5782 100.239 14.5302 100.099 14.6111Z" fill="#55554D" stroke="#363630" stroke-width="1.4031" stroke-miterlimit="3.99393" stroke-linecap="round"/>
<path d="M106.053 11.1734L102.239 13.3754C101.972 13.5294 101.881 13.8705 102.035 14.1373L103.28 16.2941C103.434 16.5609 103.775 16.6523 104.042 16.4983L107.856 14.2963C108.123 14.1423 108.214 13.8012 108.06 13.5344L106.815 11.3776C106.661 11.1108 106.32 11.0194 106.053 11.1734Z" fill="#55554D" stroke="#363630" stroke-width="1.4031" stroke-miterlimit="3.99393" stroke-linecap="round"/>
<path d="M91.6436 25.6793L90.1748 26.5273L88.877 24.2793L90.1498 23.5444C90.1498 23.5444 90.8055 23.4595 91.3273 24.3632C91.8491 25.267 91.6436 25.6793 91.6436 25.6793Z" fill="#97978C" stroke="#363630" stroke-width="1.4031" stroke-miterlimit="3.99393" stroke-linecap="round"/>
<path d="M1.67617 71.1543C1.59883 71.0308 1.51853 70.9759 1.50286 71.1207C1.39834 72.0762 0.93231 74.6539 3.49228 77.1271C6.63035 80.1596 17.4463 90.2644 18.8339 92.2257C18.9532 92.3552 19.6175 92.962 21.1288 92.0895L21.3536 91.9597C21.4432 91.908 21.4585 91.7837 21.3812 91.7129C19.6203 90.0765 3.73249 74.4002 1.67617 71.1543Z" fill="#464640" stroke="#353530" stroke-width="1.4031" stroke-miterlimit="3.99393" stroke-linecap="round"/>
<path d="M71.513 26.6513L34.6934 47.9092L35.1932 48.775L72.0129 27.5171L71.513 26.6513Z" fill="#464640" stroke="#353530" stroke-width="0.701549" stroke-miterlimit="3.99393" stroke-linecap="round"/>
</g>
<defs>
<clipPath id="clip0_619_1196">
<rect width="110" height="110" fill="white" transform="translate(0.0175781)"/>
</clipPath>
</defs>
</svg>
