<?xml version="1.0" encoding="UTF-8" standalone="no"?>
<svg
   version="1.1"
   width="118.2952"
   height="20.199181"
   viewBox="0 0 118.29519 20.199181"
   id="svg186"
   sodipodi:docname="aug_topdown.svg"
   inkscape:version="1.3 (0e150ed, 2023-07-21)"
   xmlns:inkscape="http://www.inkscape.org/namespaces/inkscape"
   xmlns:sodipodi="http://sodipodi.sourceforge.net/DTD/sodipodi-0.dtd"
   xmlns="http://www.w3.org/2000/svg"
   xmlns:svg="http://www.w3.org/2000/svg">
  <defs
     id="defs190" />
  <sodipodi:namedview
     id="namedview188"
     pagecolor="#ffffff"
     bordercolor="#999999"
     borderopacity="1"
     inkscape:showpageshadow="0"
     inkscape:pageopacity="0"
     inkscape:pagecheckerboard="0"
     inkscape:deskcolor="#d1d1d1"
     showgrid="false"
     inkscape:zoom="7.1540879"
     inkscape:cx="57.100221"
     inkscape:cy="-7.7578024"
     inkscape:window-width="1440"
     inkscape:window-height="900"
     inkscape:window-x="0"
     inkscape:window-y="0"
     inkscape:window-maximized="0"
     inkscape:current-layer="g184" />
  <g
     transform="translate(-188.05253,-168.15994)"
     id="g184">
    <path
       d="m 265.98196,176.11143 c -2.93425,0.25735 -5.10431,2.84466 -4.84697,5.77892 0.25735,2.93425 2.84465,5.10432 5.77891,4.84698 2.93425,-0.25735 5.10432,-2.84466 4.84698,-5.77892 -0.25735,-2.93425 -2.84466,-5.10432 -5.77892,-4.84698 z"
       fill="#74744e"
       stroke="#3d3d28"
       stroke-width="2"
       stroke-linecap="butt"
       id="path132"
       style="mix-blend-mode:normal;fill-rule:nonzero;stroke:#1c1c12;stroke-linejoin:miter;stroke-miterlimit:10;stroke-dasharray:none;stroke-dashoffset:0;stroke-opacity:1" />
    <path
       d="m 272.72888,185.58629 c -2.60966,0 -14.42857,0 -14.42857,0 v -4.14286 h 16.42857 c 0,0 0,1.32184 0,2 0,0.70197 -1.0284,2.14286 -2,2.14286 z"
       fill="#515151"
       stroke="#333333"
       stroke-width="1"
       stroke-linecap="butt"
       id="path134"
       style="mix-blend-mode:normal;fill-rule:nonzero;stroke:#171717;stroke-linejoin:miter;stroke-miterlimit:10;stroke-dasharray:none;stroke-dashoffset:0;stroke-opacity:1" />
    <path
       d="m 258.77173,180.65994 h -4.66666 v -11.5 h 4.66666 z"
       fill="#515151"
       stroke="#333333"
       stroke-width="2"
       stroke-linecap="butt"
       id="path136"
       style="mix-blend-mode:normal;fill-rule:nonzero;stroke:#181818;stroke-linejoin:miter;stroke-miterlimit:10;stroke-dasharray:none;stroke-dashoffset:0;stroke-opacity:1" />
    <path
       d="m 238.10189,187.35912 c -4.64182,0 -41.03421,0 -41.03421,0 v -11.65158 c 0,0 36.39239,0 41.03422,0 0.70559,0 1.21929,0.60199 1.21929,1.51824 0,2.48501 0,7.28169 0,8.65041 0,0.71541 -0.5137,1.48293 -1.21929,1.48293 z"
       fill="#74744e"
       stroke="#3d3d28"
       stroke-width="1.7768"
       stroke-linecap="butt"
       id="path138"
       style="mix-blend-mode:normal;fill-rule:nonzero;stroke:#1d1d13;stroke-width:2;stroke-linejoin:miter;stroke-miterlimit:10;stroke-dasharray:none;stroke-dashoffset:0;stroke-opacity:1" />
    <path
       d="m 258.01505,186.26393 -34.16667,-0.66666 v -8.33333 l 34.17623,-0.68805 5.59192,2.21033 0.0724,5.11171 z"
       fill="#515151"
       stroke="#333333"
       stroke-width="2"
       stroke-linecap="butt"
       id="path140"
       style="mix-blend-mode:normal;fill-rule:nonzero;stroke:#171717;stroke-linejoin:miter;stroke-miterlimit:10;stroke-dasharray:none;stroke-dashoffset:0;stroke-opacity:1" />
    <path
       d="m 277.94793,183.42439 h -17.16666 v -4 h 17.16666 z"
       fill="#515151"
       stroke="#333333"
       stroke-width="2"
       stroke-linecap="butt"
       id="path142"
       style="mix-blend-mode:normal;fill-rule:nonzero;stroke:#181818;stroke-linejoin:miter;stroke-miterlimit:10;stroke-dasharray:none;stroke-dashoffset:0;stroke-opacity:1" />
    <path
       d="m 292.24182,183.52384 h -14.5362 v -4.15128 h 14.5362 z"
       fill="#515151"
       stroke="#333333"
       stroke-width="1.51538"
       stroke-linecap="butt"
       id="path144"
       style="mix-blend-mode:normal;fill-rule:nonzero;stroke:#181818;stroke-width:2;stroke-linejoin:miter;stroke-miterlimit:10;stroke-dasharray:none;stroke-dashoffset:0;stroke-opacity:1" />
    <path
       d="m 303.4999,183.94819 h -8.91848 v -5 h 8.82757 c 0.57995,0 1.93824,0.39872 1.93823,2.50573 0.0323,2.01213 -1.30908,2.49427 -1.84732,2.49427 z"
       fill="#515151"
       stroke="#333333"
       stroke-width="2"
       stroke-linecap="butt"
       id="path146"
       style="mix-blend-mode:normal;fill-rule:nonzero;stroke:#181818;stroke-linejoin:miter;stroke-miterlimit:10;stroke-dasharray:none;stroke-dashoffset:0;stroke-opacity:1"
       sodipodi:nodetypes="sccscs" />
    <path
       d="m 197.10535,187.27444 c 0,0 -5.27271,0 -6.63696,0 -0.60815,0 -1.31886,-0.63297 -1.31886,-1.25181 0,-1.32901 0,-6.44194 0,-8.92891 0,-0.83529 0.71071,-1.37435 1.31886,-1.37435 1.36425,0 6.63696,0 6.63696,0 z"
       fill="#515151"
       stroke="#333333"
       stroke-width="2.04417"
       stroke-linecap="butt"
       id="path148"
       style="mix-blend-mode:normal;fill-rule:nonzero;stroke:#171717;stroke-linejoin:miter;stroke-miterlimit:10;stroke-dasharray:none;stroke-dashoffset:0;stroke-opacity:1" />
    <path
       d="m 247.02937,183.75485 h -7.5 v -4.66666 h 7.5 z"
       fill="#515151"
       stroke="#333333"
       stroke-width="1"
       stroke-linecap="butt"
       id="path150"
       style="mix-blend-mode:normal;fill-rule:nonzero;stroke:#171717;stroke-linejoin:miter;stroke-miterlimit:10;stroke-dasharray:none;stroke-dashoffset:0;stroke-opacity:1" />
    <path
       d="m 242.8627,183.42152 c -1.10457,0 -2,-0.89543 -2,-2 0,-1.10457 0.89543,-2 2,-2 1.10457,0 2,0.89543 2,2 0,1.10457 -0.89543,2 -2,2 z"
       fill="#515151"
       stroke="#333333"
       stroke-width="1"
       stroke-linecap="butt"
       id="path152"
       style="mix-blend-mode:normal;fill-rule:nonzero;stroke:#171717;stroke-linejoin:miter;stroke-miterlimit:10;stroke-dasharray:none;stroke-dashoffset:0;stroke-opacity:1" />
    <path
       d="m 291.50262,184.00415 v -5.075 h 3 v 5.075 z"
       fill="#515151"
       stroke="#333333"
       stroke-width="2"
       stroke-linecap="butt"
       id="path154"
       style="mix-blend-mode:normal;fill-rule:nonzero;stroke:#171717;stroke-linejoin:miter;stroke-miterlimit:10;stroke-dasharray:none;stroke-dashoffset:0;stroke-opacity:1" />
    <path
       d="m 208.98407,182.44265 v -2.21179 c 0,-0.2954 0.67385,-0.79167 1.52674,-0.79167 h 25.38322 c 0,0 0.63481,1.35153 0.63481,2.01197 0,0.64061 -0.63481,1.89299 -0.63481,1.89299 h -25.38322 c -0.85289,0 -1.52674,-0.38742 -1.52674,-0.9015 z"
       fill="#434343"
       stroke="#323232"
       stroke-linecap="butt"
       id="path156"
       style="mix-blend-mode:normal;fill-rule:nonzero;stroke:#171717;stroke-width:1.57445;stroke-linejoin:miter;stroke-miterlimit:10;stroke-dasharray:none;stroke-dashoffset:0;stroke-opacity:1"
       sodipodi:nodetypes="ssscscss" />
    <path
       d="m 212.23743,179.55196 v 3.34609"
       fill="none"
       stroke="#323232"
       stroke-linecap="round"
       id="path166"
       style="mix-blend-mode:normal;fill-rule:nonzero;stroke:#171717;stroke-width:1.63508;stroke-linejoin:miter;stroke-miterlimit:10;stroke-dasharray:none;stroke-dashoffset:0;stroke-opacity:1" />
    <path
       d="m 215.79543,179.46391 v 3.34608"
       fill="none"
       stroke="#323232"
       stroke-linecap="round"
       id="path168"
       style="mix-blend-mode:normal;fill-rule:nonzero;stroke:#171717;stroke-width:1.63508;stroke-linejoin:miter;stroke-miterlimit:10;stroke-dasharray:none;stroke-dashoffset:0;stroke-opacity:1" />
    <path
       d="m 219.23482,179.64001 v 3.34609"
       fill="none"
       stroke="#323232"
       stroke-linecap="round"
       id="path170"
       style="mix-blend-mode:normal;fill-rule:nonzero;stroke:#171717;stroke-width:1.63508;stroke-linejoin:miter;stroke-miterlimit:10;stroke-dasharray:none;stroke-dashoffset:0;stroke-opacity:1" />
    <path
       d="m 222.79282,179.39369 v 3.34609"
       fill="none"
       stroke="#323232"
       stroke-linecap="round"
       id="path172"
       style="mix-blend-mode:normal;fill-rule:nonzero;stroke:#171717;stroke-width:1.63508;stroke-linejoin:miter;stroke-miterlimit:10;stroke-dasharray:none;stroke-dashoffset:0;stroke-opacity:1" />
    <path
       d="m 226.23221,179.55196 v 3.34609"
       fill="none"
       stroke="#323232"
       stroke-linecap="round"
       id="path174"
       style="mix-blend-mode:normal;fill-rule:nonzero;stroke:#171717;stroke-width:1.63508;stroke-linejoin:miter;stroke-miterlimit:10;stroke-dasharray:none;stroke-dashoffset:0;stroke-opacity:1" />
    <path
       d="m 229.79021,179.46391 v 3.34608"
       fill="none"
       stroke="#323232"
       stroke-linecap="round"
       id="path176"
       style="mix-blend-mode:normal;fill-rule:nonzero;stroke:#171717;stroke-width:1.63508;stroke-linejoin:miter;stroke-miterlimit:10;stroke-dasharray:none;stroke-dashoffset:0;stroke-opacity:1" />
    <path
       d="m 233.22961,179.64001 v 3.34609"
       fill="none"
       stroke="#323232"
       stroke-linecap="round"
       id="path178"
       style="mix-blend-mode:normal;fill-rule:nonzero;stroke:#171717;stroke-width:1.63508;stroke-linejoin:miter;stroke-miterlimit:10;stroke-dasharray:none;stroke-dashoffset:0;stroke-opacity:1" />
  </g>
</svg>
