<?xml version="1.0" encoding="UTF-8"?>
<svg id="Layer_2" data-name="Layer 2" xmlns="http://www.w3.org/2000/svg" width="120.7" height="27.34" viewBox="0 0 120.7 27.34">
  <defs>
    <style>
      .cls-1 {
        fill: #434343;
        stroke-width: 1.5px;
      }

      .cls-1, .cls-2, .cls-3, .cls-4, .cls-5, .cls-6 {
        stroke-miterlimit: 12.06;
      }

      .cls-1, .cls-4, .cls-6 {
        stroke: #171717;
      }

      .cls-2 {
        stroke: #1d1d13;
      }

      .cls-2, .cls-3 {
        fill: #74744e;
      }

      .cls-2, .cls-3, .cls-4, .cls-5, .cls-6 {
        stroke-width: 3px;
      }

      .cls-3 {
        stroke: #1c1c12;
      }

      .cls-4, .cls-5 {
        fill: #515151;
      }

      .cls-5 {
        stroke: #181818;
      }

      .cls-7 {
        fill: #2b2b2b;
      }

      .cls-6 {
        fill: none;
      }
    </style>
  </defs>
  <g id="Le_aug_an_saf" data-name="Le aug an saf">
    <g id="g184">
      <g id="g182">
        <g id="g872">
          <path id="path132" class="cls-3" d="M92.6,9.51c-4.5,.4-7.8,4.4-7.4,8.9s4.4,7.8,8.9,7.4,7.8-4.4,7.4-8.9-4.4-7.8-8.9-7.4Z"/>
          <path id="path136" class="cls-2" d="M85.37,15.51h-1.74c-1.16,0-2.13-.73-2.13-1.56V3.06c0-.83,.97-1.56,2.13-1.56h1.74c1.16,0,2.13,.73,2.13,1.56V13.95c0,.83-.97,1.56-2.13,1.56Z"/>
          <path id="path138" class="cls-2" d="M73.41,25.51H5.92c-1.33,0-2.42-1.08-2.42-2.42V11.93c0-1.33,1.08-2.42,2.42-2.42H73.5c1.1,0,2,.9,2,2v11.86c0,1.02-.9,2.14-2.09,2.14Z"/>
          <path id="path140" class="cls-4" d="M92.01,25.76l-15.51-1.19V10.75l15.51-1.19,2.49,3.68v8.55l-2.49,3.97Z"/>
          <path id="path148" class="cls-4" d="M10.5,25.51H3.02c-.71,0-1.52-.82-1.52-1.73V11.45c0-1.12,.81-1.94,1.52-1.94h7.48V25.51Z"/>
          <g id="g180">
            <path id="path156" class="cls-1" d="M38,19.59v-3.38c0-.44,.5-1.2,1.4-1.2h32.5c1.2,0,2.4,.65,2.6,1.64,.2,.55,.2,1.09,.2,1.42s0,.87-.2,1.31c-.2,.87-1.2,1.64-2.6,1.64H39.4c-.9,0-1.4-.55-1.4-1.42h0Z"/>
          </g>
          <path id="path144" class="cls-5" d="M114.5,20.51h-20v-6h20v6Z"/>
          <path id="path146" class="cls-5" d="M118.5,21.51h-4.42c-.32,0-.58-.26-.58-.58v-6.84c0-.32,.26-.58,.58-.58h4.42c.2,0,.69,.67,.69,4.1,.1,3.15-.49,3.91-.69,3.91h0Z"/>
        </g>
      </g>
    </g>
  </g>
  <rect id="rect19" class="cls-7" x="39.7" y="15.61" width="2.8" height="4.1"/>
  <rect id="rect21" class="cls-7" x="65.8" y="15.61" width="2.8" height="4.1"/>
  <rect id="rect23" class="cls-7" x="60.5" y="15.61" width="2.8" height="4.1"/>
  <rect id="rect25" class="cls-7" x="55.3" y="15.61" width="2.8" height="4.1"/>
  <rect id="rect27" class="cls-7" x="50.1" y="15.61" width="2.8" height="4.1"/>
  <rect id="rect29" class="cls-7" x="44.9" y="15.61" width="2.8" height="4.1"/>
  <rect id="rect31" class="cls-7" x="71" y="15.61" width="2.8" height="4.1"/>
  <path id="path156-2" class="cls-6" d="M38.2,19.11v-3.1c0-.4,.5-1.1,1.4-1.1h32.5c1.2,0,2.4,.6,2.6,1.5,.2,.5,.2,1,.2,1.3s0,.8-.2,1.2c-.2,.8-1.2,1.5-2.6,1.5H39.6c-.9,0-1.4-.5-1.4-1.3Z"/>
</svg>