<?xml version="1.0" encoding="utf-8"?>
<!-- Generator: Adobe Illustrator 27.0.0, SVG Export Plug-In . SVG Version: 6.00 Build 0)  -->
<svg version="1.1" id="Layer_1" xmlns="http://www.w3.org/2000/svg" xmlns:xlink="http://www.w3.org/1999/xlink" x="0px" y="0px"
	 viewBox="0 0 640 480" style="enable-background:new 0 0 640 480;" xml:space="preserve">
<style type="text/css">
	.st0{fill:#74744E;stroke:#1C1C12;stroke-width:3;stroke-miterlimit:12.0579;}
	.st1{fill:#515151;stroke:#181818;stroke-width:3;stroke-miterlimit:12.0579;}
	.st2{fill:#74744E;stroke:#1D1D13;stroke-width:3;stroke-miterlimit:12.0579;}
	.st3{fill:#515151;stroke:#171717;stroke-width:3;stroke-miterlimit:12.0579;}
	.st4{fill:#434343;stroke:#171717;stroke-width:3;stroke-miterlimit:12.0579;}
	.st5{fill:none;stroke:#171717;stroke-width:3;stroke-linecap:round;stroke-miterlimit:12.0579;}
</style>
<g id="g184_00000095297768458324861200000012832937747400235192_" transform="translate(-138.35253,-167.3)">
	<g id="g182_00000047046465003080261550000003812973371644356754_">
		
			<g id="g872_00000065753053105486886080000017315756575611024291_" transform="matrix(1.205788,0,0,1.205788,-28.471287,-34.428328)">
			<path id="path132_00000077309566836421365320000002638077150587183788_" class="st0" d="M441.6,366.3c-3.7,0.3-6.5,3.6-6.2,7.4
				c0.3,3.7,3.6,6.5,7.3,6.2s6.5-3.6,6.2-7.4C448.7,368.7,445.4,365.9,441.6,366.3L441.6,366.3z"/>
			<path id="path136_00000027596803294771425430000006527652141830489273_" class="st1" d="M435.7,371.1h-4.3v-13.5h4.3V371.1z"/>
			<path id="path138_00000141416519184527561920000016909214685773792165_" class="st2" d="M425.4,379.6c-6.6,0-58.1,0-58.1,0v-12.9
				c0,0,51.5,0,58.1,0c1,0,1.7,0.7,1.7,1.7c0,2.8,0,8.1,0,9.6C427.1,378.8,426.4,379.6,425.4,379.6L425.4,379.6z"/>
			<path id="path140_00000067925259329744151430000004782176497088395183_" class="st3" d="M438.6,378.8l-10.8-0.8v-9.8l10.8-0.8
				l1.8,2.6l0,6L438.6,378.8z"/>
			<path id="path148_00000088847722779218499020000005244337060982234550_" class="st3" d="M367.2,379.7c0,0-4.9,0-6.2,0
				c-0.6,0-1.2-0.7-1.2-1.4c0-1.5,0-7.2,0-10c0-0.9,0.7-1.5,1.2-1.5c1.3,0,6.2,0,6.2,0V379.7z"/>
			<g id="g180_00000176730417351180550460000010971138123750996659_">
				<path id="path156_00000013873020652730722770000001247890174548984448_" class="st4" d="M409,374.5c0-1,0-2.1,0-2.6
					c0-0.3,0.3-0.9,0.6-0.9h15.6c0.6,0,1.1,0.5,1.2,1.2c0,0.4,0.1,0.8,0.1,1.1c0,0.3,0,0.6-0.1,1c-0.1,0.7-0.6,1.2-1.2,1.2h-15.6
					C409.3,375.5,409,375.1,409,374.5z"/>
				<path id="path172_00000037661935834079645890000001701904274098656654_" class="st5" d="M413.4,371.7v3.4"/>
				<path id="path174_00000160868672191006336500000003249988590147216062_" class="st5" d="M417.6,371.7v3.4"/>
				<path id="path176_00000073692264024368179070000008245970638085599890_" class="st5" d="M422,371.6v3.4"/>
			</g>
			<path id="path144_00000104697363323776479060000016302825937962313109_" class="st1" d="M454.5,375.1h-13.6v-4.3h13.6V375.1z"/>
			<path id="path146_00000039109842658919592830000016959616913573163427_" class="st1" d="M457,375.9c-0.5,0-3.6,0-3.6,0V370
				c0,0,3,0,3.6,0c0.2,0,0.5,0.5,0.5,2.9C457.5,375.4,457.2,375.9,457,375.9z"/>
		</g>
	</g>
</g>
</svg>