<svg width="110" height="110" viewBox="0 0 110 110" fill="none" xmlns="http://www.w3.org/2000/svg">
<g clip-path="url(#clip0_2459_903)">
<path d="M48.3661 30.9075L26.5024 43.6833C27.702 45.7611 27.702 45.7611 25.6508 46.9453L26.181 47.8637C26.4976 48.412 26.4392 49.4824 26.0699 50.2476C25.0865 51.9656 25.6178 54.3446 26.5684 55.8357C27.0957 56.6628 27.7514 57.6033 28.3062 58.1873C28.4958 57.9524 28.7051 57.7133 28.9363 57.4703C29.5436 57.5677 30.2669 57.5342 31.1639 57.4047C32.4118 57.6761 33.431 57.723 34.7737 56.9478L36.7819 60.426L38.1025 59.6635L29.813 45.3057C29.7102 45.1278 29.7712 44.9002 29.9492 44.7975L45.1127 36.0437C45.4686 35.8382 45.9237 35.9602 46.1291 36.316L53.6742 49.3847C53.9782 49.9112 53.8044 50.5828 53.2869 50.8968L57.6323 48.388C57.465 47.6296 57.1962 46.8763 56.8627 46.109C56.1944 44.5717 56.1716 43.755 56.1491 42.8895L49.5595 31.4759C49.353 31.1183 48.9126 30.592 48.3661 30.9075Z" fill="#A7A49F"/>
<path d="M79.9609 22.8408L81.8611 21.7437L84.1316 25.6763L82.2314 26.7734L79.9609 22.8408Z" fill="#A7A4A0" stroke="#353331" stroke-width="1.4882" stroke-miterlimit="20" stroke-linecap="round" stroke-linejoin="round"/>
<path d="M54.0802 39.3088L59.3353 36.2745C59.3353 36.2745 60.0313 36.4496 60.4932 37.2497C60.9552 38.0499 60.7589 38.7401 60.7589 38.7401L55.5038 41.7745L54.0802 39.3088Z" fill="#A7A4A0" stroke="#353331" stroke-width="1.4882" stroke-miterlimit="20" stroke-linecap="round" stroke-linejoin="round"/>
<path d="M43.5923 72.0851C40.7384 70.5242 39.9842 68.9957 39.8908 65.4072L38.0447 65.8098L36.5065 67.2844C37.3902 68.0729 37.7933 68.232 38.8674 68.1714C39.4996 70.7738 41.006 72.1085 43.3845 72.9124C43.9285 73.0963 44.2075 72.4216 43.5923 72.0851Z" fill="#65625D" stroke="#353331" stroke-width="1.4882" stroke-miterlimit="3.99393"/>
<path d="M22.048 60.1744C23.8403 60.8879 25.5835 60.7784 28.4467 59.9632L26.3617 64.7857C25.5183 64.8938 24.9668 64.9427 24.1118 64.8962C23.1149 64.842 22.6378 64.6928 22.1597 64.8202C22.133 64.8273 22.0533 64.8688 22.0315 64.8858C21.6911 65.1523 21.5157 65.3142 21.2377 65.5859C21.1495 65.672 21.0472 65.7435 20.9364 65.7974C18.6139 66.9276 17.5273 67.8871 16.4069 70.2242C16.3735 70.2937 16.2925 70.3278 16.2201 70.3013L15.4906 70.0337C15.4251 70.0097 15.3849 69.9435 15.396 69.8746C15.6155 68.5117 16.5005 66.9263 17.183 65.8854C18.2579 64.2462 17.8288 61.5728 15.6086 60.0384L15.745 58.4312C15.7486 58.3899 15.7852 58.3594 15.8265 58.3635L17.2418 58.5042C17.2657 58.5066 17.2869 58.5203 17.2989 58.541L17.6426 59.1364C17.6768 59.1956 17.7363 59.2359 17.804 59.2457L20.1074 59.5785C20.151 59.5848 20.1796 59.6274 20.1689 59.6702L20.0494 60.1484L20.3448 60.2325L20.4731 59.9834L21.7079 60.0915C21.8247 60.1017 21.939 60.131 22.048 60.1744Z" fill="#726F6A" stroke="#353331" stroke-width="1.4882" stroke-miterlimit="3.99393"/>
<path d="M33.9298 39.4452L34.0185 38.8646L23.8184 44.6473L22.9233 44.9068L22.5082 44.1879C22.4876 44.1523 22.4421 44.1401 22.4065 44.1606L21.6328 44.6073C21.5949 44.6292 21.584 44.6788 21.6091 44.7146L23.8937 47.9639C23.9159 47.9954 23.9584 48.0048 23.9918 47.9855L24.4616 47.7143C24.4781 47.7048 24.4903 47.6893 24.4957 47.6711L24.5799 47.3889L27.0251 45.9772C27.0607 45.9567 27.0728 45.9112 27.0523 45.8756L26.4243 44.7878L27.0401 44.4323L33.9298 39.4452Z" fill="#4D4B47" stroke="#353331" stroke-width="1.4882"/>
<path fill-rule="evenodd" clip-rule="evenodd" d="M39.1946 73.6631C38.371 72.5273 35.9119 71.8839 34.0471 72.9227C34.7933 72.4752 36.5201 71.1128 37.6963 69.9367C36.7355 67.8167 38.1799 66.6379 40.2739 65.0603L49.6211 57.7646C48.3315 59.5138 48.4151 60.7936 48.9794 61.5697C49.3697 62.1066 49.722 62.5382 50.0648 62.958C50.4225 63.3962 50.7699 63.8216 51.1391 64.3406C52.9489 66.8848 51.3044 70.4164 49.7961 71.2872L43.1699 75.1128C42.4776 75.5125 40.4888 75.448 39.1946 73.6631ZM48.6766 62.9526L50.3834 65.0583C51.6679 66.643 51.2489 68.9983 49.4968 70.0429L43.2483 73.768C42.2665 74.3533 41.0012 74.1024 40.317 73.1868L38.3448 70.5476C37.3757 69.2508 37.6208 67.4172 38.8966 66.4205L44.0138 62.4224C45.4527 61.2983 47.5269 61.5341 48.6766 62.9526Z" fill="#989590" stroke="#353331" stroke-width="1.4882" stroke-miterlimit="3.99393" stroke-linecap="round"/>
<path d="M50.2832 32.7314L95.0455 6.88792C95.1834 6.80832 95.3784 6.88804 95.4812 7.06599L98.7806 12.7807C98.8833 12.9587 98.8548 13.1675 98.7169 13.2471L53.9547 39.0906L50.2832 32.7314Z" fill="#ABA9A5" stroke="#353331" stroke-width="2.9764" stroke-miterlimit="3.99393" stroke-linecap="round"/>
<path d="M52.9453 37.3418L83.6469 19.6162L85.9174 23.5488L55.2158 41.2744L52.9453 37.3418Z" fill="#989590" stroke="#353331" stroke-width="2.9764" stroke-miterlimit="3.99393" stroke-linecap="round"/>
<path d="M29.9927 45.3466C29.8899 45.1687 29.9509 44.9411 30.1288 44.8384L44.3393 36.634C44.6952 36.4285 45.1503 36.5504 45.3558 36.9063L52.7485 49.7108C52.954 50.0667 52.832 50.5218 52.4761 50.7273L38.2656 58.9317C38.0877 59.0344 37.8601 58.9735 37.7574 58.7955L29.9927 45.3466Z" fill="#8E8A85"/>
<path d="M48.1025 41.6618L50.047 45.0298L45.5077 47.6506C44.9064 48.0028 41.6479 49.2263 40.9586 48.0317C40.2693 46.8371 42.9615 44.635 43.5631 44.2826L48.1025 41.6618Z" fill="#75716B"/>
<path d="M45.5517 37.2477L46.8313 39.4641L42.292 42.0849C41.69 42.4359 38.5289 43.828 38.0754 43.0418C37.6219 42.2556 40.41 40.2197 41.0124 39.8685L45.5517 37.2477Z" fill="#75716B"/>
<path d="M51.3154 47.2292L52.595 49.4456L48.0557 52.0664C47.4536 52.4173 44.2925 53.8094 43.839 53.0232C43.3856 52.2371 46.1737 50.2011 46.776 49.85L51.3154 47.2292Z" fill="#75716B"/>
<path d="M36.353 43.3548L34.043 44.6885L34.294 45.1233L34.6291 44.9299L35.1084 45.7599C35.1084 45.7599 35.4968 46.4326 36.3167 45.9593C37.1366 45.4859 36.7482 44.8132 36.7482 44.8132L36.2689 43.9831L36.6041 43.7896L36.353 43.3548Z" fill="#75716B"/>
<path d="M42.1167 53.3372L39.8066 54.6709L40.0577 55.1057L40.3928 54.9123L40.8721 55.7424C40.8721 55.7424 41.2604 56.4151 42.0803 55.9417C42.9003 55.4683 42.5119 54.7956 42.5119 54.7956L42.0326 53.9655L42.3677 53.7721L42.1167 53.3372Z" fill="#75716B"/>
<path d="M38.8296 47.6399L36.5195 48.9736L37.0583 49.9069L37.3935 49.7134L38.0501 50.8508C38.0501 50.8508 38.5823 51.7725 39.4022 51.2991C40.2221 50.8258 39.6899 49.904 39.6899 49.904L39.0333 48.7667L39.3684 48.5732L38.8296 47.6399Z" fill="#75716B"/>
<path d="M32.4512 49.874L32.5685 49.8063L35.183 54.3348L35.0657 54.4025L32.4512 49.874Z" fill="#5B5753"/>
<path d="M48.0157 41.5097L48.8508 41.0276L50.9269 44.6234L50.0917 45.1056L48.0157 41.5097Z" fill="#585550"/>
<path d="M94.9424 7.19541L85.1471 12.8507L84.6965 12.0703C84.6385 11.9698 84.654 11.8431 84.7345 11.7595L88.0876 8.27661C88.1045 8.25902 88.1238 8.2439 88.145 8.2317L93.5951 5.08507C93.6485 5.05425 93.7168 5.07254 93.7476 5.12592L94.9424 7.19541Z" fill="#4D4B47" stroke="#353331" stroke-width="1.4882"/>
<path d="M89.3069 7.56252L93.5826 5.09397L92.3106 2.89073C92.1564 2.62381 91.8151 2.53235 91.5482 2.68646L90.5678 3.25251C90.5124 3.28448 90.4707 3.3357 90.4507 3.39641L89.1961 7.19644C89.1729 7.26693 89.1808 7.34401 89.2179 7.4083L89.3069 7.56252Z" fill="#43413D" stroke="#353331" stroke-width="1.4882"/>
<path d="M48.1094 40.834L48.5789 40.5629L51.1935 45.0914L50.7239 45.3625L48.1094 40.834Z" fill="#635F5A"/>
<rect x="45.3887" y="36.9668" width="0.964459" height="4.21754" transform="rotate(-30 45.3887 36.9668)" fill="#8E8B85"/>
<path d="M30.2585 49.2521L29.901 48.6328L31.2747 47.8397L37.0162 57.7842L35.6958 58.5465L34.7729 56.948C33.8032 57.5078 32.9947 57.6348 32.1544 57.5622C32.0775 57.5555 31.9989 57.5485 31.9188 57.5402C31.6755 57.5088 31.4274 57.4625 31.1695 57.4066C30.371 57.1848 29.4696 56.6239 28.543 55.019C27.3333 52.9237 27.7767 50.8522 28.3437 50.4921L30.2585 49.2521Z" fill="#9D9A95"/>
<path d="M31.1678 57.4041C30.3693 57.1823 29.4678 56.6214 28.5413 55.0166C27.3315 52.9212 27.7749 50.8497 28.3419 50.4896C25.9861 51.9858 25.1804 53.2817 26.5179 55.5985C27.5561 57.3969 28.7103 57.7596 31.1678 57.4041Z" fill="#8E8B85"/>
<path d="M23.1949 107.922L38.036 99.3538C27.5471 85.8743 24.6853 78.3283 33.9959 72.9528L29.9442 65.9351L22.9578 69.9687C13.6183 75.3609 14.5287 92.9122 23.1949 107.922Z" fill="#BDAA8D"/>
<path d="M26.4683 63.2166C26.511 61.8125 26.6939 59.8282 28.9369 57.4708C29.5442 57.5682 30.2674 57.5347 31.1644 57.4052C32.4123 57.6766 33.4316 57.7234 34.7742 56.9483L36.7824 60.4265L57.6328 48.3885C57.8315 49.2889 57.8872 50.1967 57.7381 51.1432L52.6689 54.0698C52.6593 55.0285 52.3762 55.5533 51.5209 56.2826L40.2744 65.0607C38.1804 66.6383 36.736 67.8172 37.6967 69.9371C36.4928 71.1411 34.7117 72.5403 33.9962 72.9533L29.9446 65.9359L22.9582 69.9695C22.5778 70.1891 22.2145 70.4288 21.868 70.6877C26.1993 66.9757 26.415 64.9709 26.4683 63.2166Z" fill="#B1AEAA"/>
<path d="M21.9148 87.1071C22.5573 86.7362 22.7774 85.9146 22.4065 85.2722C22.0355 84.6297 21.214 84.4096 20.5715 84.7805C19.929 85.1514 19.7089 85.973 20.0798 86.6155C20.4508 87.2579 21.2723 87.478 21.9148 87.1071Z" fill="#504E4A"/>
<path d="M21.5651 87.2461L20.2742 85.0102C20.3594 84.9215 20.4584 84.8434 20.5703 84.7788C20.6821 84.7142 20.7993 84.6676 20.9186 84.6381L22.2095 86.874C22.1243 86.9626 22.0253 87.0408 21.9135 87.1054C21.8016 87.1699 21.6845 87.2166 21.5651 87.2461Z" fill="#3D3B39"/>
<path d="M32.2758 64.4645C32.767 64.1809 32.9353 63.5528 32.6517 63.0616C32.3681 62.5704 31.74 62.4021 31.2488 62.6857C30.7576 62.9693 30.5893 63.5974 30.8729 64.0886C31.1565 64.5798 31.7846 64.7481 32.2758 64.4645Z" fill="#7F7B76"/>
<path d="M39.5756 63.3334C39.9749 63.1028 40.1118 62.5922 39.8812 62.1928C39.6506 61.7935 39.14 61.6567 38.7407 61.8872C38.3413 62.1178 38.2045 62.6284 38.435 63.0278C38.6656 63.4271 39.1763 63.5639 39.5756 63.3334Z" fill="#7F7B76"/>
<path d="M26.5029 43.6828L48.3666 30.907C48.9131 30.5915 49.3535 31.1178 49.56 31.4754L56.1496 42.889C56.1721 43.7545 56.1949 44.5712 56.8632 46.1085C57.1967 46.8758 57.4656 47.6291 57.6329 48.3875C57.8316 49.2879 57.8873 50.1957 57.7382 51.1421L52.669 54.0688C52.6593 55.0275 52.3763 55.5522 51.5209 56.2815L49.6218 57.7644C48.3322 59.5137 48.4158 60.7934 48.98 61.5696C49.3703 62.1063 49.7228 62.5381 50.0655 62.9579L50.0655 62.9579L50.0656 62.958C50.4232 63.396 50.7706 63.8215 51.1397 64.3405C52.9495 66.8847 51.3051 70.4162 49.7967 71.2871L43.1706 75.1127C42.4783 75.5124 40.4895 75.4479 39.1952 73.6629C38.094 72.1442 35.4887 72.0888 33.9963 72.9523L29.9446 65.9349L22.9582 69.9685C22.5779 70.1881 22.2146 70.4278 21.8681 70.6867C26.1994 66.9747 26.4151 64.9699 26.4684 63.2156C26.5066 61.9562 26.6577 60.2302 28.3067 58.1868C27.7519 57.6028 27.0962 56.6623 26.5689 55.8353C25.6183 54.3441 25.087 51.9651 26.0704 50.2472C26.4397 49.4819 26.4981 48.4115 26.1815 47.8632L25.6513 46.9448C27.7025 45.7606 27.7025 45.7606 26.5029 43.6828Z" stroke="#353331" stroke-width="2.9764" stroke-miterlimit="3.99393" stroke-linecap="round"/>
<path d="M53.6742 49.3846C53.9782 49.9111 53.8044 50.5827 53.2869 50.8967L38.1025 59.6634L29.813 45.3056C29.7102 45.1276 29.7712 44.9001 29.9492 44.7974L45.1127 36.0435C45.4686 35.8381 45.9237 35.96 46.1291 36.3159L53.6742 49.3846Z" stroke="#353331" stroke-width="1.4882" stroke-miterlimit="3.99393" stroke-linecap="round"/>
<path d="M23.1949 107.922L38.036 99.3538C27.5471 85.8743 24.6853 78.3283 33.9959 72.9528L29.9442 65.9351L22.9578 69.9687C13.6183 75.3609 14.5287 92.9122 23.1949 107.922Z" stroke="#413625" stroke-width="2.9764" stroke-miterlimit="3.99393" stroke-linecap="round"/>
<path d="M29.9927 45.3466C29.8899 45.1687 29.9509 44.9411 30.1288 44.8384L44.3393 36.634C44.6952 36.4285 45.1503 36.5504 45.3558 36.9063L52.7485 49.7108C52.954 50.0667 52.832 50.5218 52.4761 50.7273L38.2656 58.9317C38.0877 59.0344 37.8601 58.9735 37.7574 58.7955L29.9927 45.3466Z" stroke="#353331" stroke-width="1.4882"/>
</g>
<defs>
<clipPath id="clip0_2459_903">
<rect width="110" height="110" fill="white"/>
</clipPath>
</defs>
</svg>
