<?xml version="1.0" encoding="utf-8"?>
<!-- Generator: Adobe Illustrator 27.0.0, SVG Export Plug-In . SVG Version: 6.00 Build 0)  -->
<svg version="1.1" id="Layer_1" xmlns="http://www.w3.org/2000/svg" xmlns:xlink="http://www.w3.org/1999/xlink" x="0px" y="0px"
	 viewBox="0 0 640 480" style="enable-background:new 0 0 640 480;" xml:space="preserve">
<style type="text/css">
	.st0{fill:#898989;stroke:#171717;stroke-width:3;stroke-miterlimit:7.4698;}
	.st1{fill:#3A3A3A;stroke:#2D2D2D;stroke-width:3;stroke-miterlimit:7.4698;}
	.st2{fill:#404040;stroke:#171717;stroke-width:3;stroke-miterlimit:7.4698;}
	.st3{fill:#898989;stroke:#161616;stroke-width:3;stroke-miterlimit:7.4698;}
	.st4{fill:none;stroke:#171717;stroke-width:2;stroke-linecap:round;stroke-miterlimit:7.4698;}
	.st5{fill:#2E2E2E;stroke:#171717;stroke-width:3;stroke-miterlimit:7.4698;}
	.st6{fill:#2E2E2E;stroke:#161616;stroke-width:3;stroke-miterlimit:7.4698;}
	.st7{fill:#313131;stroke:#171717;stroke-width:3;stroke-miterlimit:7.4698;}
	.st8{fill:#5D5D5D;stroke:#171717;stroke-width:3;stroke-miterlimit:7.4698;}
	.st9{fill:none;stroke:#171717;stroke-width:3;stroke-miterlimit:7.4698;}
</style>
<g id="g170_00000078028333593883907320000002567397900584141453_" transform="translate(-137.23512,-165.77792)">
	<g id="g168_00000177464650882688230330000010521763730818323585_">
		
			<g id="g858_00000068676650790399492790000017494734622026707382_" transform="matrix(0.74698158,0,0,0.74698158,34.686616,41.944867)">
			<path id="path132_00000029038701078532077530000005794634465120852393_" class="st0" d="M564.7,497.5c0,0-0.2,0.9-0.3,1.2
				c0,0.1-0.3,0.3-0.5,0.3c-0.1,0-1.1,0-1.3,0c-0.2,0-0.5-0.2-0.5-0.3c-0.1-0.3-0.4-1.2-0.4-1.2H564.7z"/>
			<path id="path134_00000140716451572538736030000007523317199947204254_" class="st1" d="M554.3,491.2c0,3.8-2.9,7-6.4,7
				c-3.6,0-6.4-3.1-6.4-7C541.4,487.4,554.3,487.4,554.3,491.2z"/>
			<path id="path136_00000106864390928411187670000001494177488805605773_" class="st2" d="M535.4,485.7v11l-0.8-0.5l-1.3-1
				l-1.9-2.5l0-3.4l1.8-2.5l1.2-0.7L535.4,485.7z"/>
			<path id="path142_00000069398624297117904750000017084885798469121926_" class="st3" d="M617.6,494.7c-0.1,2.8-1.5,3.5-1.9,3.5
				c-2.1,0-17.7,0-17.7,0v-7.1c0,0,15.9,0,17.9,0C616.3,491.1,617.5,491.7,617.6,494.7L617.6,494.7z"/>
			<path id="path144_00000173156229566614544620000001864347340398828465_" class="st2" d="M601,486.1c0,0,1.3,2.5,1.3,8.5
				c0,6.2-1.3,8.1-1.3,8.1h-11.6l-2.4,0.8c0,0-50.2,0.3-53.3,0.3c-0.3,0-0.5-0.6-0.5-1.3c0-2.1,0-12.5,0-16.1c0-0.8,0.1-1.3,0.4-1.3
				c2.7,0,53.4,0.1,53.4,0.1l2.3,0.9L601,486.1z"/>
			<path id="path146_00000039103775737826601030000017313781979673149327_" class="st4" d="M539.9,490.7l62,0.4"/>
			<path id="path148_00000027564205270472185060000011213529589735151489_" class="st4" d="M540,497.7l62,0.4"/>
			<path id="path150_00000089550911542532613950000009484768598525315456_" class="st5" d="M602.3,495.5c-0.1,0.2-0.1,0.4-0.2,0.4
				c-0.5,0-2.4,0-3.2,0c-0.1,0-0.2-0.2-0.3-0.4c-0.1-0.3-0.1-0.6-0.1-0.8c0-0.2,0-0.5,0.1-0.8c0.1-0.3,0.2-0.5,0.3-0.5
				c0.8,0,2.8,0,3.2,0c0.1,0,0.2,0.3,0.2,0.6c0.1,0.3,0,0.6,0,0.8C602.3,494.7,602.3,495.3,602.3,495.5L602.3,495.5z"/>
			<path id="path152_00000049193149777039753190000009587446212272690871_" class="st6" d="M601.8,499.9c0,0-0.1,0.9-0.2,1.3
				c-0.1,0.4-0.5,1.5-0.5,1.5h-0.9v-2.8L601.8,499.9z"/>
			<path id="path154_00000067221274153167078380000016059007839314496416_" class="st5" d="M600.1,488.9v-2.8h0.9
				c0,0,0.4,1.1,0.5,1.5c0.1,0.4,0.2,1.3,0.2,1.3H600.1z"/>
			<path id="path156_00000026846029337580888470000015248062027468556673_" class="st7" d="M573.6,503.4l-12.1,0.1l0-4.7
				c0,0,2.5-3.8,6.2-3.9C573.1,494.7,573.6,503.4,573.6,503.4L573.6,503.4z"/>
			<path id="path158_00000163788106520447435310000000575212007630358190_" class="st8" d="M539.8,491c0,1.3-0.5,2.5-1.3,2.8
				c-0.1,0.1-0.4,0.1-0.4,0.1v-5.7c0,0,0.3,0,0.4,0.1C539.3,488.6,539.8,489.6,539.8,491L539.8,491z"/>
			<path id="path160_00000142898176732495105310000000104732640250210480_" class="st8" d="M538.4,488.6c0,1.2,0,4.1,0,4.8
				c0,0.2-0.2,0.4-0.3,0.4c-0.2,0-0.8,0-0.8,0v-5.7c0,0,0.5,0,0.7,0C538.1,488.1,538.4,488.3,538.4,488.6L538.4,488.6z"/>
			<path id="path162_00000014620900790610081480000000455907625130739114_" class="st2" d="M531.4,489.3v3.4h-1.8v-3.4H531.4z"/>
			<path id="path166_00000048498030590284413910000002934838219709738893_" class="st9" d="M540.4,487.5c0,1.6,0,6.2,0,7
				c0,0.2-0.2,0.4-0.4,0.4c-0.4,0-1.9,0-2.5,0c-0.2,0-0.3-0.1-0.3-0.4c0-1.4,0-6.2,0-7.1c0-0.3,0.1-0.5,0.3-0.5c0.7,0,2.2,0,2.5,0
				C540.2,487,540.4,487.1,540.4,487.5z"/>
		</g>
	</g>
</g>
</svg>