<svg width="111" height="110" viewBox="0 0 111 110" fill="none" xmlns="http://www.w3.org/2000/svg">
<g clip-path="url(#clip0_619_1197)">
<path d="M46.5254 61.5664L48.3632 60.5053C48.3046 61.8612 48.7418 62.9552 49.8548 63.1645C50.0727 63.2055 50.0096 63.6009 49.7493 63.5483C48.3552 63.2668 47.7566 62.8049 47.5575 61.8216C47.1678 61.9877 46.6293 61.735 46.5254 61.5664Z" fill="#B85F14" stroke="#5C300A" stroke-width="0.519136" stroke-miterlimit="3.99393"/>
<rect x="105.609" y="23.8584" width="2.92013" height="1.5574" transform="rotate(-30 105.609 23.8584)" fill="#1F6BAD"/>
<rect x="105.609" y="23.8584" width="2.92013" height="1.5574" transform="rotate(-30 105.609 23.8584)" stroke="#0F3657" stroke-width="0.519136" stroke-miterlimit="3.99393"/>
<path fill-rule="evenodd" clip-rule="evenodd" d="M103.725 21.7991L103.35 24.2637L102.339 24.8477L102.714 22.3831L103.725 21.7991ZM98.2642 27.2001L98.6396 24.7354L97.628 25.3195L97.2526 27.7841L98.2642 27.2001ZM93.5536 27.6718L93.1783 30.1364L92.1667 30.7205L92.5421 28.2558L93.5536 27.6718ZM88.0923 33.0728L88.4677 30.6081L87.4562 31.1922L87.0808 33.6568L88.0923 33.0728ZM83.3818 33.5445L83.0064 36.0091L81.9949 36.5932L82.3702 34.1285L83.3818 33.5445Z" fill="#FF9133" stroke="#5C300A" stroke-width="0.519136" stroke-miterlimit="3.99393"/>
<rect x="9.29102" y="75.4219" width="28.4702" height="3.8935" transform="rotate(-30 9.29102 75.4219)" fill="#3A76AC" stroke="#0F3857" stroke-width="1.03827" stroke-miterlimit="3.99393"/>
<rect x="35.1855" y="53.3535" width="0.389351" height="1.94675" transform="rotate(-30 35.1855 53.3535)" fill="#1F507A"/>
<rect x="35.1855" y="53.3535" width="0.389351" height="1.94675" transform="rotate(-30 35.1855 53.3535)" stroke="#0F3857" stroke-width="0.519136" stroke-miterlimit="3.99393"/>
<path d="M101.407 15.1196L103.285 14.4789L105.238 17.343L102.204 19.0951L102.719 17.3916L101.407 15.1196Z" fill="#1F6BAD" stroke="#0F3657" stroke-width="0.519136" stroke-miterlimit="3.99393"/>
<path d="M45.6691 62.3612L45.1074 62.6855L46.9439 65.8663C47.1231 66.1767 47.3901 66.0583 47.7005 65.8791L52.7086 62.9876C53.019 62.8084 53.0635 62.4359 52.9461 62.1012L51.6891 58.8856L51.1268 59.2102L52.1892 62.0886C52.3158 62.4652 52.3571 62.4413 52.0467 62.6205L47.713 65.1226C47.4026 65.3018 47.3603 65.2904 47.1811 64.9801L45.6691 62.3612Z" fill="#245D8F" stroke="#0F3857" stroke-width="0.519136" stroke-miterlimit="3.99393"/>
<rect x="53.4824" y="50.2441" width="10.7072" height="2.92013" rx="0.584028" transform="rotate(-30 53.4824 50.2441)" fill="#423224"/>
<rect x="53.4824" y="50.2441" width="10.7072" height="2.92013" rx="0.584028" transform="rotate(-30 53.4824 50.2441)" fill="#2E78B7"/>
<path d="M78.5959 38.5563L77.6226 36.8704L107.127 19.8362L107.248 16.3526C107.259 16.2349 107.167 16.2117 107.039 16.2858L63.0312 40.7988L67.8981 49.2285L97.2306 32.2934L106.736 25.9196C106.826 25.8565 106.857 25.7994 106.881 25.6621L107.004 22.1549L78.5959 38.5563Z" fill="url(#paint0_linear_619_1197)"/>
<rect x="66.9629" y="47.6084" width="26.0865" height="0.292013" transform="rotate(-30 66.9629 47.6084)" fill="#B35200"/>
<path fill-rule="evenodd" clip-rule="evenodd" d="M63.0317 40.7981L36.0585 56.3711L38.6774 66.0986L67.8986 49.2278L63.0317 40.7981ZM53.7365 50.0985C53.5968 50.1791 53.549 50.3577 53.6296 50.4974L54.7977 52.5205C54.8783 52.6602 55.0569 52.708 55.1966 52.6274L63.9635 47.5658C64.1031 47.4852 64.151 47.3066 64.0703 47.1669L62.9023 45.1438C62.8217 45.0041 62.6431 44.9563 62.5034 45.0369L53.7365 50.0985Z" fill="url(#paint1_linear_619_1197)"/>
<path fill-rule="evenodd" clip-rule="evenodd" d="M63.0317 40.7981L36.0585 56.3711L38.6774 66.0986L67.8986 49.2278L63.0317 40.7981ZM53.7365 50.0985C53.5968 50.1791 53.549 50.3577 53.6296 50.4974L54.7977 52.5205C54.8783 52.6602 55.0569 52.708 55.1966 52.6274L63.9635 47.5658C64.1031 47.4852 64.151 47.3066 64.0703 47.1669L62.9023 45.1438C62.8217 45.0041 62.6431 44.9563 62.5034 45.0369L53.7365 50.0985Z" fill="url(#paint2_linear_619_1197)"/>
<rect x="61.7324" y="46.043" width="0.486689" height="1.94675" transform="rotate(-30 61.7324 46.043)" fill="#296BA3"/>
<path d="M36.0576 56.3717L34.2292 57.8769L33.7796 58.1365L37.3278 66.8779L38.6766 66.0992L36.0576 56.3717Z" fill="#296BA3" stroke="#0F3857" stroke-width="1.03827" stroke-miterlimit="3.99393"/>
<path d="M1.93219 78.5491C1.55974 78.7642 1.43441 79.2444 1.65226 79.6217L8.8674 92.1187C9.08525 92.496 9.56378 92.6276 9.93623 92.4125L10.4722 92.1031C10.7825 91.924 10.9289 91.5535 10.827 91.2055L8.19641 82.22L23.9703 73.1129C24.3428 72.8979 24.4681 72.4177 24.2502 72.0404L21.8835 67.9411C21.6657 67.5638 21.1872 67.4323 20.8147 67.6473L1.93219 78.5491Z" fill="#2687D9"/>
<path fill-rule="evenodd" clip-rule="evenodd" d="M8.19906 82.2201L10.6179 90.4823L21.911 74.3035L8.19906 82.2201ZM13.4042 84.4283C13.9628 84.1057 14.1508 83.3854 13.8241 82.8195C13.4973 82.2535 12.7795 82.0561 12.2208 82.3787C11.6621 82.7012 11.4742 83.4215 11.8009 83.9875C12.1277 84.5535 12.8455 84.7508 13.4042 84.4283Z" fill="#296BA3" stroke="#143552" stroke-width="0.519136" stroke-miterlimit="3.99393"/>
<path d="M45.4251 62.2011L38.6814 66.0946C38.818 66.696 39.8756 66.2886 39.8918 66.9088L40.5879 78.6955C40.6307 79.0421 40.8422 79.2438 41.1174 79.1284C44.1517 77.8565 45.8447 77.0969 48.8648 75.6862C49.0457 75.6096 49.0413 74.9761 49.0098 74.7869C48.9751 74.5782 48.8223 74.0756 48.442 74.0411C47.5529 73.9602 46.7081 73.4613 46.7896 72.6381L47.1188 65.5531C47.145 65.4443 47.1784 65.2378 47.1317 65.157L45.4251 62.2011Z" fill="#2279C3" stroke="#0F3857" stroke-width="1.03827" stroke-miterlimit="3.99393"/>
<rect x="36.0762" y="56.0596" width="30.8438" height="0.259567" transform="rotate(-30 36.0762 56.0596)" fill="#7A491F"/>
<rect x="35.9453" y="55.835" width="0.61572" height="0.25925" transform="rotate(-30 35.9453 55.835)" fill="#A36229" stroke="#5C300A" stroke-width="0.519136" stroke-miterlimit="3.99393"/>
<rect x="37.1426" y="55.1455" width="0.61572" height="0.25925" transform="rotate(-30 37.1426 55.1455)" fill="#A36229" stroke="#5C300A" stroke-width="0.519136" stroke-miterlimit="3.99393"/>
<rect x="38.3379" y="54.4551" width="0.61572" height="0.25925" transform="rotate(-30 38.3379 54.4551)" fill="#A36229" stroke="#5C300A" stroke-width="0.519136" stroke-miterlimit="3.99393"/>
<rect x="39.5312" y="53.7666" width="0.61572" height="0.25925" transform="rotate(-30 39.5312 53.7666)" fill="#A36229" stroke="#5C300A" stroke-width="0.519136" stroke-miterlimit="3.99393"/>
<rect x="40.7266" y="53.0762" width="0.61572" height="0.25925" transform="rotate(-30 40.7266 53.0762)" fill="#A36229" stroke="#5C300A" stroke-width="0.519136" stroke-miterlimit="3.99393"/>
<rect x="41.9238" y="52.3857" width="0.61572" height="0.25925" transform="rotate(-30 41.9238 52.3857)" fill="#A36229" stroke="#5C300A" stroke-width="0.519136" stroke-miterlimit="3.99393"/>
<rect x="56.2617" y="44.1055" width="0.61572" height="0.25925" transform="rotate(-30 56.2617 44.1055)" fill="#A36229" stroke="#5C300A" stroke-width="0.519136" stroke-miterlimit="3.99393"/>
<rect x="44.3125" y="51.0068" width="0.61572" height="0.25925" transform="rotate(-30 44.3125 51.0068)" fill="#A36229" stroke="#5C300A" stroke-width="0.519136" stroke-miterlimit="3.99393"/>
<rect x="49.0938" y="48.2471" width="0.61572" height="0.25925" transform="rotate(-30 49.0938 48.2471)" fill="#A36229" stroke="#5C300A" stroke-width="0.519136" stroke-miterlimit="3.99393"/>
<rect x="43.1172" y="51.6953" width="0.61572" height="0.25925" transform="rotate(-30 43.1172 51.6953)" fill="#A36229" stroke="#5C300A" stroke-width="0.519136" stroke-miterlimit="3.99393"/>
<rect x="45.5098" y="50.3164" width="0.61572" height="0.25925" transform="rotate(-30 45.5098 50.3164)" fill="#A36229" stroke="#5C300A" stroke-width="0.519136" stroke-miterlimit="3.99393"/>
<rect x="46.7012" y="49.627" width="0.61572" height="0.25925" transform="rotate(-30 46.7012 49.627)" fill="#A36229" stroke="#5C300A" stroke-width="0.519136" stroke-miterlimit="3.99393"/>
<rect x="47.8965" y="48.9365" width="0.61572" height="0.25925" transform="rotate(-30 47.8965 48.9365)" fill="#A36229" stroke="#5C300A" stroke-width="0.519136" stroke-miterlimit="3.99393"/>
<rect x="50.2871" y="47.5576" width="0.61572" height="0.25925" transform="rotate(-30 50.2871 47.5576)" fill="#A36229" stroke="#5C300A" stroke-width="0.519136" stroke-miterlimit="3.99393"/>
<rect x="51.4824" y="46.8652" width="0.61572" height="0.25925" transform="rotate(-30 51.4824 46.8652)" fill="#A36229" stroke="#5C300A" stroke-width="0.519136" stroke-miterlimit="3.99393"/>
<rect x="52.6738" y="46.1758" width="0.61572" height="0.25925" transform="rotate(-30 52.6738 46.1758)" fill="#A36229" stroke="#5C300A" stroke-width="0.519136" stroke-miterlimit="3.99393"/>
<rect x="53.8691" y="45.4863" width="0.61572" height="0.25925" transform="rotate(-30 53.8691 45.4863)" fill="#A36229" stroke="#5C300A" stroke-width="0.519136" stroke-miterlimit="3.99393"/>
<rect x="55.0645" y="44.7959" width="0.61572" height="0.25925" transform="rotate(-30 55.0645 44.7959)" fill="#A36229" stroke="#5C300A" stroke-width="0.519136" stroke-miterlimit="3.99393"/>
<rect x="57.459" y="43.416" width="0.61572" height="0.25925" transform="rotate(-30 57.459 43.416)" fill="#A36229" stroke="#5C300A" stroke-width="0.519136" stroke-miterlimit="3.99393"/>
<rect x="58.6523" y="42.7266" width="0.61572" height="0.25925" transform="rotate(-30 58.6523 42.7266)" fill="#A36229" stroke="#5C300A" stroke-width="0.519136" stroke-miterlimit="3.99393"/>
<rect x="59.8477" y="42.0371" width="0.61572" height="0.25925" transform="rotate(-30 59.8477 42.0371)" fill="#A36229" stroke="#5C300A" stroke-width="0.519136" stroke-miterlimit="3.99393"/>
<rect x="61.041" y="41.3467" width="0.61572" height="0.25925" transform="rotate(-30 61.041 41.3467)" fill="#A36229" stroke="#5C300A" stroke-width="0.519136" stroke-miterlimit="3.99393"/>
<rect x="62.125" y="40.7227" width="0.61572" height="0.25925" transform="rotate(-30 62.125 40.7227)" fill="#A36229" stroke="#5C300A" stroke-width="0.519136" stroke-miterlimit="3.99393"/>
<path d="M36.0818 55.6097C35.9385 55.3614 36.0236 55.0439 36.2719 54.9006L38.295 53.7325C38.6674 53.5175 39.1437 53.6451 39.3587 54.0176L39.4885 54.2423L36.3414 56.0593L36.0818 55.6097Z" fill="#245D8F"/>
<path d="M36.0818 55.6097C35.9385 55.3614 36.0236 55.0439 36.2719 54.9006L38.295 53.7325C38.6674 53.5175 39.1437 53.6451 39.3587 54.0176L39.4885 54.2423L36.3414 56.0593L36.0818 55.6097Z" stroke="#0F3857" stroke-width="0.519136" stroke-miterlimit="3.99393"/>
<rect x="64.8457" y="42.3721" width="12.9784" height="2.59567" transform="rotate(-30 64.8457 42.3721)" fill="#3386CC"/>
<path d="M32.0677 59.1247L33.7786 58.1369L37.3269 66.8783L36.2029 67.5272L34.8273 65.5268L32.5754 61.6263L32.0677 59.1247Z" fill="#2D5C86" stroke="#0F3857" stroke-width="1.03827" stroke-miterlimit="3.99393"/>
<path d="M104.923 18.3188L107.195 17.852L107.145 19.2687L105.61 19.1298L105.147 20.5188L103.986 21.4555L102.209 22.2152L103.836 21.4092L104.825 20.5049L104.925 19.5251L102.599 21.7096L101.181 22.1178L101.256 22.6637L100.727 22.9879L100.658 23.3585L100.597 22.9145L100.991 22.6072L100.863 22.1991L99.7634 22.526L99.3152 23.5437L98.4273 24.4672L99.2087 23.491L99.1788 22.8635L97.3202 24.4044L96.9014 24.5056L96.6946 25.1174L96.1823 25.1433L95.9614 25.5408L96.1474 24.9986L96.4962 24.9444L96.4826 24.6068L95.6451 24.8092L95.2538 25.1179L94.9411 25.1252L95.2424 25.0417L95.3583 24.8843L93.9699 25.214L95.6962 24.5716L95.5292 24.4004L94.9589 24.1925L95.5569 24.2342L96.1251 24.4194L97.1467 24.1039L97.3607 23.9132L97.2155 23.8642L96.999 23.848L97.2577 23.7655L97.5051 23.7679L98.1738 23.1412L97.488 22.948L97.0012 23.1566L97.5848 22.6886L98.5483 22.7901L99.1578 22.2188L99.5614 22.0692L99.3015 21.7259L98.868 21.5987L99.4456 21.4917L99.9651 21.9196L102.235 21.0783L101.504 20.863L100.302 21.1196L101.384 20.6548L102.69 20.7096L103.527 19.813L102.868 19.6383L102.322 19.8203L101.192 19.6793L102.189 19.5901L103.007 19.1795L104.18 19.1462L104.923 18.3188Z" fill="url(#paint3_linear_619_1197)"/>
<path d="M105.372 24.6429L106.962 23.3241L106.903 25.0209L105.998 25.7275L104.941 26.194L104.613 26.9104L104.02 27.1198L104.444 26.78L104.403 26.3699L103.875 26.5416L102.45 27.4165L102.098 27.9791L101.668 28.1456L102.062 27.8563L102.103 27.6485L101.513 28.0175L100.361 28.4022L100.031 28.8447L99.5451 29.0414L99.8616 28.7934L99.785 28.5946L99.2091 28.7869L98.7284 29.0816L98.5392 29.3702L98.1186 29.5886L98.4437 29.3764L98.4276 29.2661L96.8632 30.2254L97.7416 29.3762L97.659 29.3455L97.4636 29.4583L97.6646 29.2428L97.9432 29.1814L98.7532 28.3984L98.6394 28.359L98.3036 28.4197L98.1382 28.2186L98.3611 28.3036L98.7602 28.1317L99.0232 28.1374L100.169 27.7213L99.8101 27.5499L99.6961 27.5227L99.5047 27.7019L99.3069 27.7181L99.4383 27.6817L99.5821 27.4954L99.3541 27.441L99.0197 27.5445L99.3974 27.3149L99.9683 27.2023L100.162 27.2801L100.242 27.0629L100.419 26.9423L100.311 27.0516L100.355 27.3578L100.741 27.5133L101.314 27.3052L102.378 26.4946L102.048 26.4396L101.564 26.5375L101.336 26.8509L101.424 26.5044L101.98 26.1531L102.213 26.1371L102.168 25.8853L101.948 25.7489L102.245 25.7425L102.445 26.1212L102.911 26.0893L103.443 25.6839L104.407 25.1634L104.167 24.9421L103.529 25.1333L103.192 24.7645L103.561 24.887L104.241 24.4945L104.889 24.9031L105.372 24.6429Z" fill="url(#paint4_linear_619_1197)"/>
<path d="M62.9811 48.6521C62.9811 48.4523 63.1974 48.3274 63.3705 48.4273L65.0252 49.3827C65.1983 49.4826 65.1983 49.7324 65.0252 49.8323L63.3705 50.7876C63.1974 50.8875 62.9811 50.7626 62.9811 50.5628L62.9811 48.6521Z" fill="#8A470F"/>
<path d="M63.1435 48.9345C63.1435 48.7346 63.3598 48.6098 63.5328 48.7097L64.7009 49.384C64.8739 49.4839 64.8739 49.7337 64.7009 49.8336L63.5328 50.508C63.3598 50.6079 63.1435 50.483 63.1435 50.2832L63.1435 48.9345Z" fill="#FF7400"/>
<path d="M63.3804 48.8912C63.3189 48.9267 63.299 49.0061 63.3364 49.0664L63.7529 49.7375C63.7815 49.7836 63.8416 49.7986 63.8885 49.7715C63.9355 49.7444 63.9525 49.6849 63.9269 49.6371L63.554 48.9408C63.5205 48.8782 63.4418 48.8557 63.3804 48.8912Z" fill="#0F518A"/>
<path d="M64.0386 50.0314C64.0851 50.0045 64.1011 49.945 64.0742 49.8984C64.0473 49.8519 63.9878 49.8359 63.9413 49.8628C63.8947 49.8897 63.8787 49.9492 63.9056 49.9958C63.9325 50.0423 63.992 50.0583 64.0386 50.0314Z" fill="#0F518A"/>
<path d="M44.8113 63.9051C44.7366 63.7757 44.6475 63.7553 44.5222 63.8276L41.1898 65.7515C41.0518 65.8312 41.0245 65.8884 41.0173 66.0262L41.5705 75.5638C41.5914 75.8491 41.7052 75.9226 41.905 75.8072L45.3543 73.8158C45.4696 73.7492 45.5262 73.6762 45.5403 73.5211L45.9144 65.8846C45.9162 65.8391 45.9047 65.7989 45.8844 65.7638L44.8113 63.9051Z" fill="#1E6CAE"/>
<path d="M1.93219 78.5491C1.55974 78.7642 1.43441 79.2444 1.65226 79.6217L8.86741 92.1187C9.08525 92.496 9.56378 92.6276 9.93623 92.4125L10.4722 92.1031C10.7825 91.924 10.9289 91.5535 10.827 91.2055L8.19641 82.22L23.9703 73.1129C24.3428 72.8979 24.4681 72.4177 24.2502 72.0404L21.8835 67.9411C21.6657 67.5638 21.1872 67.4323 20.8147 67.6473L1.93219 78.5491Z" stroke="#0F3857" stroke-width="1.03827" stroke-miterlimit="3.99393"/>
<path fill-rule="evenodd" clip-rule="evenodd" d="M63.0317 40.7981L36.0585 56.3711L38.6774 66.0986L67.8986 49.2278L63.0317 40.7981Z" stroke="url(#paint5_linear_619_1197)" stroke-width="1.03827" stroke-miterlimit="3.99393"/>
<rect x="53.4824" y="50.2441" width="10.7072" height="2.92013" rx="0.584028" transform="rotate(-30 53.4824 50.2441)" stroke="#0F3857" stroke-width="0.519136" stroke-miterlimit="3.99393"/>
<rect x="64.8457" y="42.3721" width="12.9784" height="2.59567" transform="rotate(-30 64.8457 42.3721)" stroke="#0F3657" stroke-width="0.519136" stroke-miterlimit="3.99393"/>
<path d="M78.5959 38.5563L77.6226 36.8704L107.127 19.8362L107.248 16.3526C107.259 16.2349 107.167 16.2117 107.039 16.2858L63.0312 40.7988L67.8981 49.2285L97.2306 32.2934L106.736 25.9196C106.826 25.8565 106.857 25.7994 106.881 25.6621L107.004 22.1549L78.5959 38.5563Z" stroke="#5C300A" stroke-width="1.03827" stroke-miterlimit="3.99393"/>
<path d="M74.9529 41.3877C74.4849 41.6579 74.3234 42.2544 74.5922 42.7199L75.7823 44.7814C76.0511 45.2469 76.6484 45.4053 77.1164 45.1351L88.3817 38.6311C89.4184 38.0325 90.0305 37.7301 90.1922 37.853C90.4802 38.0721 90.6748 38.2008 90.9357 38.0502C91.1965 37.8996 91.2865 37.5672 91.1367 37.3077L89.3441 34.2029C89.0753 33.7373 88.4781 33.5789 88.0101 33.8491L74.9529 41.3877Z" fill="#296BA3"/>
<rect x="88.9512" y="33.5244" width="0.973378" height="3.8935" transform="rotate(-30 88.9512 33.5244)" fill="#E6771A"/>
<ellipse cx="89.6193" cy="33.7033" rx="0.243205" ry="0.243204" transform="rotate(-30 89.6193 33.7033)" fill="#B86014"/>
<ellipse cx="90.6682" cy="35.5197" rx="0.243205" ry="0.243204" transform="rotate(-30 90.6682 35.5197)" fill="#B86014"/>
<rect x="89.2836" y="33.6135" width="0.486689" height="3.40681" transform="rotate(-30 89.2836 33.6135)" stroke="#5C300A" stroke-width="0.486689" stroke-miterlimit="3.99393"/>
<path d="M74.9529 41.3877C74.4849 41.6579 74.3234 42.2544 74.5922 42.7199L75.7823 44.7814C76.0511 45.2469 76.6484 45.4053 77.1164 45.1351L88.3817 38.6311C89.4184 38.0325 90.0305 37.7301 90.1922 37.853C90.4802 38.0721 90.6748 38.2008 90.9357 38.0502C91.1965 37.8996 91.2865 37.5672 91.1367 37.3077L89.3441 34.2029C89.0753 33.7373 88.4781 33.5789 88.01 33.8491L74.9529 41.3877Z" stroke="#0F3657" stroke-width="0.519136" stroke-miterlimit="3.99393"/>
</g>
<defs>
<linearGradient id="paint0_linear_619_1197" x1="65.6301" y1="45.3002" x2="109.088" y2="19.828" gradientUnits="userSpaceOnUse">
<stop stop-color="#FF7500"/>
<stop offset="1" stop-color="#B85F14"/>
</linearGradient>
<linearGradient id="paint1_linear_619_1197" x1="65.4651" y1="45.0129" x2="33.8105" y2="57.6689" gradientUnits="userSpaceOnUse">
<stop stop-color="#E66B00"/>
<stop offset="1" stop-color="#996333"/>
</linearGradient>
<linearGradient id="paint2_linear_619_1197" x1="33.8105" y1="57.6689" x2="65.4651" y2="45.013" gradientUnits="userSpaceOnUse">
<stop offset="1.05967e-09" stop-color="#1A88E6" stop-opacity="0.7"/>
<stop offset="1" stop-color="#008AFF" stop-opacity="0"/>
</linearGradient>
<linearGradient id="paint3_linear_619_1197" x1="108.479" y1="20.0757" x2="95.3721" y2="27.6428" gradientUnits="userSpaceOnUse">
<stop stop-color="#0088FF"/>
<stop offset="1" stop-color="#0088FF" stop-opacity="0.5"/>
</linearGradient>
<linearGradient id="paint4_linear_619_1197" x1="108.479" y1="20.0757" x2="95.3721" y2="27.6428" gradientUnits="userSpaceOnUse">
<stop stop-color="#0088FF"/>
<stop offset="1" stop-color="#0088FF" stop-opacity="0.5"/>
</linearGradient>
<linearGradient id="paint5_linear_619_1197" x1="33.8105" y1="57.6689" x2="65.4651" y2="45.013" gradientUnits="userSpaceOnUse">
<stop stop-color="#0F3857"/>
<stop offset="1" stop-color="#663000"/>
</linearGradient>
<clipPath id="clip0_619_1197">
<rect width="110" height="110" fill="white" transform="translate(0.0175781)"/>
</clipPath>
</defs>
</svg>
