<svg width="110" height="110" viewBox="0 0 110 110" fill="none" xmlns="http://www.w3.org/2000/svg">
<g clip-path="url(#clip0_1485_481)">
<path d="M40.846 46.7622L62.3689 34.3353C62.5116 34.2529 62.9373 34.5281 63.2066 34.9945L64.2375 36.7801C64.5068 37.2465 64.5322 37.7527 64.3895 37.8351L42.8666 50.262L40.846 46.7622Z" fill="#4D4033" stroke="#3D3329" stroke-width="2.6228"/>
<path d="M76.9142 24.5017L62.6577 32.7327C62.4636 32.8448 62.3486 33.0413 62.3316 33.2485C62.3214 33.3764 62.3485 33.5086 62.4177 33.6284L65.0258 38.1457C65.207 38.4596 65.6079 38.5668 65.9215 38.3857L80.178 30.1547L76.9142 24.5017Z" fill="#AA5E13"/>
<path d="M80.1778 30.155L76.9141 24.502L81.5387 21.8319C81.8523 21.6509 82.2532 21.7581 82.4344 22.0719L85.0425 26.5892C85.095 26.6802 85.1231 26.7778 85.1291 26.8757C85.1441 27.1162 85.0254 27.3562 84.8025 27.485L80.1778 30.155Z" fill="#A55C12"/>
<path d="M62.6577 32.7327L81.5388 21.8317C81.8524 21.6506 82.2533 21.7578 82.4345 22.0717L85.0426 26.589C85.0951 26.6799 85.1232 26.7776 85.1292 26.8754C85.1442 27.1159 85.0255 27.356 84.8026 27.4847L65.9215 38.3857C65.6079 38.5668 65.207 38.4596 65.0258 38.1457L62.4177 33.6284C62.3485 33.5086 62.3214 33.3764 62.3316 33.2485C62.3486 33.0413 62.4636 32.8448 62.6577 32.7327Z" stroke="#5C330A" stroke-width="2.6228"/>
<path d="M45.9678 63.4285C44.1081 63.738 43.0601 63.736 41.1814 63.7403L40.7823 63.1562L39.0651 63.5967L39.042 61.5202L40.3254 60.7792C42.4678 61.5408 43.5559 61.8861 45.7256 62.5229C45.936 62.5846 46.066 62.8671 46.1291 63.0701C46.1813 63.2378 46.0796 63.4098 45.9678 63.4285Z" fill="#43382D"/>
<path d="M39.042 61.5202L39.0651 63.5967L40.7823 63.1562L41.1814 63.7403C43.0601 63.736 44.1081 63.738 45.9678 63.4285C46.0796 63.4098 46.1813 63.2378 46.1291 63.0701C46.066 62.8671 45.936 62.5846 45.7256 62.5229C43.5559 61.8861 42.4678 61.5408 40.3254 60.7792M39.042 61.5202L40.3254 60.7792L40.3254 60.7792M39.042 61.5202L40.3254 60.7792" stroke="#3D3329" stroke-width="1.3114"/>
<path d="M45.7462 63.4227C43.3207 62.486 42.2264 61.5576 40.8717 59.0027C38.9054 59.8633 38.1854 60.6661 37.9206 62.9034C38.8873 63.2631 39.4504 63.2119 40.4724 62.8909C42.2694 64.2841 43.4338 64.4346 45.6551 64.12C45.8086 64.0982 45.9365 63.9757 45.9699 63.8329C46.0068 63.6756 45.9332 63.4949 45.7462 63.4227Z" fill="#4F4235" stroke="#3D3329" stroke-width="1.3114"/>
<rect x="31.9746" y="94.3662" width="11.842" height="1.61146" transform="rotate(-30 31.9746 94.3662)" fill="#473B2F"/>
<rect x="42.9277" y="51.458" width="4.22116" height="0.695464" transform="rotate(-30 42.9277 51.458)" fill="#41362B"/>
<rect x="29.4316" y="60.0527" width="8.03637" height="0.920327" transform="rotate(-30 29.4316 60.0527)" fill="#41362B"/>
<path fill-rule="evenodd" clip-rule="evenodd" d="M35.9916 56.6469L36.3203 56.077L65.1699 39.4207C65.2533 39.5603 65.3322 39.6903 65.4071 39.8138C65.8762 40.587 66.1889 41.1025 66.4645 42.1119C66.49 42.2051 66.4245 42.2778 66.3631 42.3459C66.3014 42.4145 66.2438 42.4784 66.2874 42.5539C66.6451 43.1734 66.0936 43.6039 65.7557 43.8332C64.7692 44.5026 63.3278 45.4138 61.7122 46.411L61.332 45.7524L59.9819 46.5319L60.3832 47.227C58.3141 48.4914 56.0962 49.8221 54.2459 50.9323C53.1729 51.5761 52.2234 52.1458 51.4983 52.5853C50.1451 53.4056 49.6901 55.2118 50.4813 56.5821L51.5055 58.3561C51.9603 59.1438 52.7284 59.8104 53.429 60.3905C54.0743 60.9249 53.9348 61.3493 53.1444 61.7818L43.9426 67.207C43.3153 67.5768 42.6306 67.698 41.9074 67.7827L41.0382 67.8427C40.4292 67.914 40.1025 68.1446 39.7833 68.5672C39.775 68.5781 39.7668 68.589 39.7586 68.5998C39.4193 69.0474 39.1673 69.3798 39.5776 71.5391L41.9994 85.8272C42.9645 87.3321 43.1586 88.0017 42.6603 88.7502C42.3509 89.215 31.5133 95.5405 31.2662 95.6436C30.945 95.7777 30.7559 95.7129 30.5348 95.3956C29.4535 95.471 28.8677 95.3829 27.9085 95.1094C25.8398 92.1889 25.7518 86.067 25.6985 82.3512C25.6845 81.3805 25.6729 80.574 25.629 80.0317C25.6226 79.9526 25.6161 79.8721 25.6095 79.7904C25.4545 77.8651 25.2428 75.237 24.5806 72.8604C24.0121 70.8199 22.6405 69.2204 20.8082 68.9854C19.7702 68.8523 19.3314 68.7182 17.4511 69.5853C17.2742 69.6668 16.8638 69.7241 16.5754 69.2342C16.287 68.7443 16.0802 68.1646 16.5807 67.8757L16.4066 67.5742L29.6319 59.9385L29.814 60.2539L30.4519 60.4376L33.1682 58.8694L32.9117 58.425L35.9916 56.6469ZM43.9556 57.1102L45.2406 56.3683C46.7122 55.5187 48.5938 56.0229 49.4434 57.4944L50.0734 58.5856C50.9017 60.0203 50.4101 61.8549 48.9754 62.6833L43.4468 65.8752C42.5715 66.3806 41.4693 66.454 40.516 66.1179C38.8945 65.5464 38.2568 63.7906 38.6951 62.1282C39.0138 60.9195 39.5045 60.0512 40.617 59.4813L41.9845 58.6918C42.3659 58.4964 42.6583 58.2383 42.9697 57.9634C43.0362 57.9047 43.1036 57.8452 43.1729 57.7854L43.9556 57.1102ZM41.8893 54.1583C41.8264 54.1686 41.7837 54.2279 41.794 54.2908L42.1921 56.7267C42.2023 56.7896 42.2617 56.8322 42.3245 56.822L42.9214 56.7244C42.9843 56.7142 43.027 56.6548 43.0167 56.592L42.6186 54.156C42.6083 54.0931 42.549 54.0505 42.4861 54.0607L41.8893 54.1583Z" fill="#86592D"/>
<path d="M55.375 50.2135C54.753 50.5857 54.1594 50.941 53.6114 51.2697C52.7071 49.5974 52.1477 48.7053 51.0938 47.5469L65.1693 39.4204C65.2527 39.56 65.3316 39.69 65.4064 39.8135C65.8756 40.5867 66.1883 41.1021 66.4639 42.1116C66.4893 42.2048 66.4239 42.2775 66.3625 42.3456C66.3007 42.4141 66.2431 42.478 66.2867 42.5536C66.6444 43.1731 66.093 43.6036 65.7551 43.8328C64.8098 44.4743 63.3531 45.3877 61.7041 46.3976L61.3314 45.7521L59.9813 46.5316L60.3724 47.209C58.7126 48.2159 56.9526 49.2693 55.375 50.2135Z" fill="#83572C"/>
<path d="M32.7448 50.6884L32.9472 50.5716C32.9682 50.5594 32.9742 50.5445 32.9833 50.5276C32.9926 50.5102 33.0052 50.4908 33.0409 50.4702L40.4568 46.0901L43.2069 50.8535L43.3815 51.9982L35.9711 56.2766L32.7448 50.6884Z" fill="#534537"/>
<path d="M61.2521 33.7327C61.0545 33.8514 60.8745 33.9597 60.7053 34.0615C60.411 34.2386 60.1537 34.4033 59.8938 34.5696C59.5346 34.7994 59.1708 35.0323 58.6982 35.3051L40.4387 46.0552L41.1882 47.3535C41.7192 48.2731 41.6755 49.5391 40.7108 50.0961L36.1969 52.7021C36.1272 52.7424 36.0104 52.7041 35.8923 52.6652C35.7908 52.6319 35.6883 52.5982 35.6139 52.614C35.4493 52.6488 35.2829 52.6841 35.144 52.7643L33.8471 53.5131L32.2656 50.7739L13.6552 61.4723C13.1997 61.7353 13.3981 62.2821 13.4997 62.4579L15.9336 66.7403L15.9802 66.7134C16.0538 66.6709 16.1479 66.6961 16.1904 66.7697L16.234 66.8453C16.2496 66.8724 16.2473 66.9061 16.2282 66.9308L16.1208 67.0697L16.4073 67.5739L40.8745 53.4478L40.7046 53.1535C40.6535 53.065 40.6838 52.9519 40.7723 52.9009L43.2555 51.4672L43.2923 51.3014L46.7417 49.8479L46.8149 50.0181L65.2325 39.3847L62.1827 34.2316C61.9628 33.8507 61.601 33.5233 61.2521 33.7327Z" fill="#CC6600"/>
<path d="M32.0947 58.516L30.5547 59.4051L30.6636 59.5937L30.5643 59.9702L30.049 60.2677C29.8014 60.4107 29.7165 60.7273 29.8595 60.975L30.206 61.5751C30.3489 61.8228 30.6656 61.9076 30.9132 61.7646L32.7577 60.6997C33.0053 60.5568 33.0902 60.2401 32.9472 59.9925L32.0947 58.516Z" fill="#7A6652"/>
<path d="M58.6616 35.3451L58.4959 34.2399C58.4739 34.1271 58.526 34.0127 58.6255 33.9553L59.2625 33.5875C59.3106 33.5597 59.3684 33.5541 59.421 33.5721L60.7582 34.1347L58.6616 35.3451Z" fill="#AD5700" stroke="#663300" stroke-width="1.3114"/>
<rect x="42.9531" y="56.0693" width="0.892602" height="2.103" transform="rotate(170.78 42.9531 56.0693)" fill="#5C4D3E"/>
<path d="M41.7344 54.496L42.6758 54.181L42.688 54.2175L41.8581 54.4952L42.7332 54.4961L42.7331 54.5152L42.7393 54.5336L41.9095 54.8113L42.7845 54.8123L42.7845 54.8315L42.7906 54.8496L41.9606 55.1274L42.8358 55.1284L42.8358 55.1475L42.8419 55.1658L42.0121 55.4435L42.8871 55.4445L42.8871 55.4636L42.8932 55.4819L42.0637 55.7595L42.9385 55.7605L42.9384 55.7797L42.9446 55.7981L42.1147 56.0758L42.9898 56.0767L42.9898 56.0957L42.9959 56.1141L42.1661 56.3917L43.0411 56.3927L43.0411 56.4121L43.0471 56.4301L42.1058 56.7451L42.0936 56.7087L42.9232 56.431L42.0485 56.4301L42.0485 56.4109L42.0424 56.3926L42.8717 56.1151L41.9971 56.1141L41.9971 56.0948L41.991 56.0766L42.8212 55.7988L41.9458 55.7978L41.9458 55.7786L41.9397 55.7604L42.7694 55.4828L41.8945 55.4818L41.8945 55.4625L41.8884 55.4443L42.7181 55.1667L41.8431 55.1657L41.8432 55.1465L41.837 55.1282L42.6665 54.8506L41.7918 54.8496L41.7919 54.8303L41.7858 54.8122L42.6157 54.5344L41.7405 54.5335L41.7405 54.5142L41.7344 54.496Z" fill="#806B56"/>
<path d="M28.8883 55.3528C28.6447 54.9309 28.7893 54.3914 29.2112 54.1478L32.9614 51.9826L33.8435 53.5104L30.0933 55.6757C29.6714 55.9192 29.1319 55.7747 28.8883 55.3528V55.3528Z" fill="#4D4033"/>
<path d="M29.2766 54.11L30.1587 55.6379L30.0933 55.6757C29.6714 55.9192 29.1319 55.7747 28.8883 55.3527C28.6447 54.9309 28.7893 54.3914 29.2112 54.1478L29.2766 54.11Z" fill="#43382D"/>
<path d="M33.2044 53.8794L32.3223 52.3516L32.9608 51.9829L33.8429 53.5107L33.2044 53.8794Z" fill="#4F4235"/>
<path d="M33.4948 51.9862L32.7458 50.6888C32.6937 50.5987 32.4904 50.6431 32.2643 50.7736L33.097 52.2158L33.4948 51.9862Z" fill="#C76300"/>
<ellipse cx="59.657" cy="34.2335" rx="0.176404" ry="0.176404" transform="rotate(-30 59.657 34.2335)" fill="#A35200"/>
<ellipse cx="39.9472" cy="57.9597" rx="0.706263" ry="0.706263" transform="rotate(-30 39.9472 57.9597)" fill="#5C4D3E"/>
<rect x="16.1758" y="60.8301" width="0.926335" height="5.95641" transform="rotate(-30 16.1758 60.8301)" fill="#BD5E00"/>
<rect x="49.1621" y="41.7832" width="0.926335" height="5.95641" transform="rotate(-30 49.1621 41.7832)" fill="#BD5E00"/>
<path d="M17.3537 59.889L15.4105 61.0109L15.1855 59.1419L16.0601 58.6369L17.3537 59.889Z" fill="#AD5700" stroke="#663300" stroke-width="1.3114"/>
<path d="M21.1557 57.9528L20.3535 58.416L23.3317 63.5744L24.134 63.1113L21.1557 57.9528Z" fill="#BD5E00"/>
<path d="M54.144 38.9079L53.3418 39.3711L56.32 44.5295L57.1222 44.0663L54.144 38.9079Z" fill="#BD5E00"/>
<path d="M19.7651 58.7575L18.9629 59.2207L21.9411 64.3791L22.7433 63.916L19.7651 58.7575Z" fill="#BD5E00"/>
<path d="M52.7534 39.7107L51.9512 40.1738L54.9294 45.3323L55.7316 44.8691L52.7534 39.7107Z" fill="#BD5E00"/>
<path d="M18.3706 59.5612L17.5684 60.0244L20.5466 65.1828L21.3488 64.7197L18.3706 59.5612Z" fill="#BD5E00"/>
<path d="M51.3589 40.5163L50.5566 40.9795L53.5349 46.1379L54.3371 45.6747L51.3589 40.5163Z" fill="#BD5E00"/>
<path d="M22.5522 57.1482L21.75 57.6113L24.7282 62.7698L25.5304 62.3066L22.5522 57.1482Z" fill="#BD5E00"/>
<path d="M55.5386 38.1023L54.7363 38.5654L57.7145 43.7239L58.5168 43.2607L55.5386 38.1023Z" fill="#BD5E00"/>
<path d="M23.9429 56.3454L23.1406 56.8086L26.1188 61.967L26.9211 61.5038L23.9429 56.3454Z" fill="#BD5E00"/>
<path d="M56.9331 37.2986L56.1309 37.7617L59.1091 42.9201L59.9113 42.457L56.9331 37.2986Z" fill="#BD5E00"/>
<path d="M25.3354 55.5398L24.5332 56.0029L27.5114 61.1614L28.3136 60.6982L25.3354 55.5398Z" fill="#BD5E00"/>
<path d="M58.3257 36.4939L57.5234 36.957L60.5017 42.1155L61.3039 41.6523L58.3257 36.4939Z" fill="#BD5E00"/>
<path d="M41.343 92.3699L33.2696 97.2639C32.9275 97.4614 32.6587 97.2477 32.5621 97.0803C32.43 96.8515 32.3677 95.7811 32.6021 95.6458C32.6021 95.6458 42.1283 89.8405 42.3385 89.6163C42.5222 89.4205 42.7513 89.0414 42.9081 88.6154C42.938 88.5342 43.0443 88.5119 43.0956 88.5816C43.4837 89.1083 43.5157 89.6892 43.318 90.2533C43.0702 90.9605 42.5577 91.7682 41.343 92.3699Z" fill="#534537" stroke="#3D3329" stroke-width="1.3114"/>
<path d="M25.1436 72.8675L25.8111 72.7307C26.3241 72.6256 26.6547 72.1246 26.5496 71.6117C26.4445 71.0987 25.9435 70.7682 25.4306 70.8732L24.763 71.01L25.1436 72.8675Z" fill="#774F28"/>
<ellipse cx="25.7203" cy="71.7234" rx="0.474378" ry="0.474378" transform="rotate(-30 25.7203 71.7234)" fill="#6B4724"/>
<path d="M62.395 34.5961L62.1794 34.2319C61.9594 33.851 61.5977 33.5236 61.2488 33.733L60.702 34.0618C60.4077 34.2389 60.1503 34.4036 59.8905 34.5699L59.8889 34.5708C59.5302 34.8003 59.1668 35.0329 58.6949 35.3054L40.4353 46.0555L40.9632 46.9698L62.395 34.5961Z" fill="#D16900"/>
<path d="M32.7902 51.6885L13.6545 62.7365L13.4963 62.4582C13.3948 62.2824 13.1963 61.7356 13.6519 61.4726L32.2623 50.7742L32.7902 51.6885Z" fill="#D16900"/>
<path d="M51.0444 52.9237C48.8644 53.8998 47.5921 54.6342 45.7202 56.142C47.0986 55.6362 48.682 56.1787 49.4413 57.4937L50.0712 58.5849C50.8996 60.0196 50.408 61.8542 48.9733 62.6826L43.4447 65.8745C42.5693 66.3799 41.4672 66.4533 40.5138 66.1172C39.3694 65.7138 38.715 64.7203 38.5832 63.5862C38.4491 65.9384 38.704 67.3249 39.3937 69.3659C39.4539 68.9982 39.5952 68.8118 39.7562 68.5995C39.7644 68.5886 39.7728 68.5775 39.7812 68.5664C40.1004 68.1438 40.4271 67.9133 41.0361 67.8419L41.9053 67.7819C42.6285 67.6972 43.3132 67.5761 43.9405 67.2062L53.1423 61.781C53.9327 61.3486 54.0722 60.9242 53.4269 60.3898C52.7263 59.8097 51.9582 59.1431 51.5034 58.3554L50.4792 56.5814C49.7839 55.3771 50.0511 53.8362 51.0444 52.9237Z" fill="#7E542A"/>
<path d="M52.7324 49.4482L64.0328 42.924L65.9421 42.281C66.1288 42.2181 66.2712 42.4518 66.1299 42.589L64.6617 44.0133L61.4108 45.8902L61.331 45.752L59.9809 46.5315L60.0607 46.6697L53.3614 50.5376L52.7324 49.4482Z" fill="#684523"/>
<path d="M26.7999 92.7462C25.8017 89.5837 25.7393 85.2399 25.6978 82.3507C25.6839 81.38 25.6723 80.5735 25.6284 80.0311C25.622 79.952 25.6155 79.8716 25.6089 79.7898C25.4815 78.2082 25.3159 76.1523 24.8938 74.1512L26.0981 73.9854C27.0808 78.2217 27.3977 80.6595 27.2878 85.124C27.2103 88.2735 27.5413 89.9549 28.0986 92.7147L26.7999 92.7462Z" fill="#7E542A"/>
<path d="M39.4796 70.9807C39.5069 71.152 39.5394 71.3376 39.5777 71.5392L41.7753 84.5045L40.6622 85.0088L38.3932 71.1587L39.4796 70.9807Z" fill="#7E542A"/>
<path d="M34.3949 67.401L34.9682 70.0907L37.0486 69.6474L36.969 69.274L38.4128 68.9663L37.9191 66.6499L34.3949 67.401Z" fill="#744D27"/>
<path d="M34.7271 68.9559L34.969 70.0909L35.9604 69.8796L38.6781 86.0583C38.713 86.266 38.6271 86.4759 38.4561 86.5988C35.5931 88.6569 33.7191 89.6993 30.5673 90.9983C30.2319 91.1365 29.858 90.917 29.8172 90.5565C29.6077 88.7012 29.5308 87.0062 29.4579 85.3978C29.4111 84.3659 29.3659 83.3697 29.2883 82.3897L28.3033 73.0245C28.2767 72.7717 28.4263 72.5332 28.6643 72.4442C31.2804 71.4665 32.9385 70.6512 34.7271 68.9559Z" fill="#7E542A"/>
<path fill-rule="evenodd" clip-rule="evenodd" d="M42.9836 52.7993L41.5463 53.5336C40.9695 53.841 40.3834 54.6734 40.5522 55.3048L41.2622 57.961C41.3389 58.248 41.6706 58.3801 41.9236 58.2243L44.0171 56.9357C44.3366 56.739 44.5126 56.3745 44.4678 56.002L44.1366 53.2471C44.0777 52.7567 43.4196 52.567 42.9836 52.7993ZM41.7924 54.2906C41.7821 54.2277 41.8248 54.1684 41.8877 54.1581L42.4846 54.0606C42.5474 54.0503 42.6068 54.0929 42.617 54.1558L43.0151 56.5918C43.0254 56.6547 42.9827 56.714 42.9199 56.7243L42.323 56.8218C42.2601 56.8321 42.2008 56.7894 42.1905 56.7265L41.7924 54.2906Z" fill="#83572C"/>
<path d="M34.2434 53.2808L33.3613 51.7529L32.9635 51.9826L33.8456 53.5104L34.2434 53.2808Z" fill="#4D4033"/>
<rect x="27.2852" y="47.9375" width="21.1746" height="1.10395" transform="rotate(-30 27.2852 47.9375)" fill="#794715"/>
<rect x="30.2324" y="45.3135" width="1.50915" height="0.798866" transform="rotate(-30 30.2324 45.3135)" fill="#94571A"/>
<rect x="32.8047" y="43.8271" width="1.50915" height="0.798866" transform="rotate(-30 32.8047 43.8271)" fill="#94571A"/>
<rect x="35.3809" y="42.3408" width="1.50915" height="0.798866" transform="rotate(-30 35.3809 42.3408)" fill="#94571A"/>
<rect x="37.9551" y="40.8545" width="1.50915" height="0.798866" transform="rotate(-30 37.9551 40.8545)" fill="#94571A"/>
<rect width="1.50915" height="0.798866" transform="matrix(0.866025 -0.5 -0.5 -0.866025 57.6992 52.4414)" fill="#94571A"/>
<rect x="40.5293" y="39.3682" width="1.50915" height="0.798866" transform="rotate(-30 40.5293 39.3682)" fill="#94571A"/>
<rect width="1.50915" height="0.798866" transform="matrix(0.866025 -0.5 -0.5 -0.866025 60.2793 50.9521)" fill="#94571A"/>
<path d="M44.4124 37.1273L43.1055 37.8818L43.5049 38.5737L45.6239 37.3503L45.5418 37.2082L44.4124 37.1273Z" fill="#94571A"/>
<path d="M63.9515 48.8333L62.6445 49.5879L62.2451 48.8961L64.3641 47.6727L64.4461 47.8148L63.9515 48.8333Z" fill="#94571A"/>
<path d="M28.9626 46.0465L27.6556 46.8011L27.2187 47.8244L27.2842 47.9379L29.362 46.7383L28.9626 46.0465Z" fill="#94571A"/>
<path d="M56.5128 53.1276L53.9154 54.6272L52.8106 54.494L52.7451 54.3804L56.1134 52.4357L56.5128 53.1276Z" fill="#94571A"/>
<path d="M46.8928 39.2088L46.1766 38.3065L31.8379 46.585L33.4531 46.9682L39.2453 43.6241C39.303 43.5737 39.3673 43.5275 39.4383 43.4865L42.4141 41.7684C42.4726 41.7346 42.5344 41.7079 42.5981 41.6884L46.8928 39.2088Z" fill="#8B5219"/>
<path d="M35.9916 56.6469L36.3203 56.077L65.1699 39.4207C65.253 39.5598 65.3315 39.6893 65.4062 39.8123L65.4071 39.8138C65.8762 40.587 66.1889 41.1025 66.4645 42.1119C66.49 42.2051 66.4245 42.2778 66.3631 42.3459C66.3014 42.4145 66.2438 42.4784 66.2874 42.5539C66.6451 43.1734 66.0936 43.6039 65.7557 43.8332C64.7692 44.5026 63.3278 45.4138 61.7122 46.411L61.332 45.7524L59.9819 46.5319L60.3832 47.227C58.3141 48.4914 56.0962 49.8221 54.2459 50.9323L54.245 50.9328C53.1724 51.5764 52.2232 52.1459 51.4983 52.5853C50.1451 53.4056 49.6901 55.2118 50.4813 56.5821L51.5055 58.3561C51.9603 59.1438 52.7284 59.8104 53.429 60.3905C54.0743 60.9249 53.9348 61.3493 53.1444 61.7818L43.9426 67.207C43.3153 67.5768 42.6306 67.698 41.9074 67.7827L41.0382 67.8427C40.4292 67.914 40.1025 68.1446 39.7833 68.5672L39.7586 68.5998C39.4193 69.0474 39.1673 69.3798 39.5776 71.5391L41.9994 85.8272C42.9645 87.3321 43.1586 88.0017 42.6603 88.7502C42.3509 89.215 31.5133 95.5405 31.2662 95.6436C30.945 95.7777 30.7559 95.7129 30.5348 95.3956C29.4535 95.471 28.8677 95.3829 27.9085 95.1094C25.8398 92.1889 25.7518 86.067 25.6985 82.3512C25.6845 81.3805 25.6729 80.574 25.629 80.0317L25.6095 79.7904C25.4545 77.8651 25.2428 75.237 24.5806 72.8604C24.0121 70.8199 22.6405 69.2204 20.8082 68.9854C19.7702 68.8523 19.3314 68.7182 17.4511 69.5853C17.2742 69.6668 16.8638 69.7241 16.5754 69.2342C16.287 68.7443 16.0802 68.1646 16.5807 67.8757L16.4066 67.5742L29.6319 59.9385L29.814 60.2539L30.4519 60.4376L33.1682 58.8694L32.9117 58.425L35.9916 56.6469Z" stroke="#4D3319" stroke-width="2.6228"/>
<path d="M43.9553 57.1097L45.2403 56.3678C46.7118 55.5182 48.5934 56.0224 49.443 57.494L50.073 58.5851C50.9014 60.0198 50.4098 61.8544 48.975 62.6828L43.4465 65.8747C42.5711 66.3801 41.4689 66.4535 40.5156 66.1174C38.8942 65.5459 38.2565 63.7901 38.6948 62.1277C39.0135 60.9191 39.5042 60.0508 40.6166 59.4808L41.9841 58.6913C42.3655 58.4959 42.6579 58.2378 42.9694 57.9629L42.9694 57.9629C43.0359 57.9042 43.1033 57.8447 43.1726 57.785L43.9553 57.1097Z" stroke="#4D3319" stroke-width="1.3114"/>
<path d="M41.8889 54.1578C41.826 54.1681 41.7834 54.2274 41.7937 54.2903L42.1917 56.7262C42.202 56.7891 42.2613 56.8318 42.3242 56.8215L42.9211 56.7239C42.984 56.7137 43.0266 56.6544 43.0163 56.5915L42.6183 54.1555C42.608 54.0926 42.5487 54.05 42.4858 54.0603L41.8889 54.1578Z" stroke="#4D3319" stroke-width="1.3114"/>
<rect width="13.4147" height="1.57739" transform="matrix(0.866025 -0.5 -0.5 -0.866025 52.7441 54.3789)" fill="#794715"/>
<path d="M51.0387 51.1411L62.8458 44.3242L63.5739 46.3067L51.9565 53.0141L51.0387 51.1411Z" fill="#8B5219"/>
<ellipse cx="60.9981" cy="46.7384" rx="0.643425" ry="0.643425" transform="rotate(-30 60.9981 46.7384)" fill="#7E4A16"/>
<path d="M33.0408 50.4702L40.4567 46.0901L41.1856 47.3527C41.7166 48.2724 41.6729 49.5383 40.7082 50.0953L36.1943 52.7014C36.1246 52.7417 36.0078 52.7033 35.8897 52.6645C35.7882 52.6311 35.6857 52.5975 35.6113 52.6132C35.4467 52.648 35.2803 52.6834 35.1414 52.7636L34.2411 53.2803L30.093 55.6752C29.948 55.759 29.7891 55.7968 29.633 55.7933C29.3352 55.7867 29.0479 55.6292 28.888 55.3523C28.6445 54.9305 28.789 54.391 29.2109 54.1474L33.359 51.7525L32.7447 50.6884L32.9471 50.5716C32.9657 50.5608 32.9725 50.5479 32.9801 50.5333L32.9832 50.5276C32.9925 50.5102 33.0051 50.4908 33.0408 50.4702Z" stroke="#3D3329" stroke-width="1.3114"/>
<path d="M60.7033 34.0605C60.8725 33.9587 61.0525 33.8503 61.2501 33.7317C61.5969 33.5309 61.9624 33.8522 62.1808 34.2305L65.2305 39.3836L46.8129 50.017L46.7397 49.8469L43.2904 51.3004L43.382 51.9979L16.4053 67.5728L16.1188 67.0686L16.2262 66.9298C16.2453 66.905 16.2476 66.8713 16.232 66.8442L16.1884 66.7687C16.1459 66.6951 16.0518 66.6699 15.9782 66.7123L15.9316 66.7393L13.4977 62.4569C13.3961 62.281 13.1978 61.7342 13.6533 61.4712L32.2638 50.773C32.4899 50.6424 32.6932 50.598 32.7453 50.6881L32.9477 50.5713C32.9663 50.5605 32.9762 50.5418 32.9838 50.5272C32.9931 50.5099 33.0057 50.4905 33.0414 50.4699L40.4573 46.0898L40.4367 46.0541L58.9011 35.1843C59.2762 34.9624 59.5864 34.7654 59.891 34.5705C60.1508 34.4042 60.409 34.2376 60.7033 34.0605Z" stroke="#663300" stroke-width="2.6228"/>
<path d="M33.4512 46.9678L51.0385 51.1408L62.8457 44.3239L48.1622 40.2446C47.7879 40.1406 47.456 39.9206 47.2145 39.6162L46.8908 39.2084L42.5962 41.6879C42.7426 41.6431 42.8992 41.6365 43.0508 41.6705L55.1285 44.3809C56.272 44.6375 56.505 46.1646 55.4901 46.7505L52.1658 48.6698C51.8817 48.8338 51.5439 48.8771 51.2276 48.7899L39.7092 45.6164C38.7922 45.3638 38.5741 44.2086 39.2433 43.6237L33.4512 46.9678Z" fill="#9C5C1C"/>
<path d="M30.2302 45.3146L31.5372 44.56L31.9366 45.2519L33.2044 44.5199L32.8049 43.8281L34.1119 43.0735L34.5113 43.7653L35.779 43.0335L35.3796 42.3416L36.6865 41.5871L37.0859 42.2789L38.3536 41.547L37.9542 40.8552L39.2611 40.1006L39.6606 40.7924L40.9283 40.0605L40.5289 39.3686L41.8359 38.6141L42.2353 39.3059L43.503 38.574L43.1035 37.8822L44.4105 37.1276L45.5399 37.2085L46.174 38.3069L46.8899 39.209L47.2136 39.6168C47.4552 39.9211 47.787 40.1411 48.1613 40.2451L62.8448 44.3245L63.5731 46.307L64.3617 47.6733L64.4438 47.8154L63.9491 48.8339L62.6422 49.5885L62.2428 48.8967L61.1862 49.5066L61.5857 50.1985L60.2787 50.9531L59.8793 50.2612L58.606 50.9964L59.0054 51.6882L57.6984 52.4428L57.299 51.7509L56.1127 52.4359L56.5121 53.1277L53.9146 54.6274L52.8099 54.4941L52.7444 54.3806L51.9556 53.0143L51.0376 51.1414L31.8353 46.5854L27.8363 48.8942L27.2843 47.9382L27.2187 47.8244L27.6556 46.8011L28.9626 46.0465L29.362 46.7383L30.6296 46.0064L30.2302 45.3146Z" stroke="#57330F" stroke-width="1.3114"/>
<path d="M2.99168 47.5052C2.67806 47.6862 2.57061 48.0872 2.75168 48.4009L7.20165 56.1084C7.38271 56.4221 7.78373 56.5295 8.09735 56.3484L9.71504 55.4145L4.60937 46.5712L2.99168 47.5052Z" fill="#854A0F"/>
<rect x="16.2812" y="40.5039" width="0.970664" height="9.04638" transform="rotate(-30 16.2812 40.5039)" fill="#A05912"/>
<rect x="17.5391" y="40.7412" width="1.1842" height="7.37705" transform="rotate(-30 17.5391 40.7412)" fill="#81470E"/>
<path d="M57.2795 15.9887C57.5931 15.8076 57.9941 15.915 58.1752 16.2286L62.7742 24.1944C62.9553 24.508 62.8478 24.909 62.5342 25.0901L56.3623 28.6535L47.9496 31.8365L22.3111 46.6389L18.5061 40.0485L44.1447 25.2461L51.1076 19.5521L57.2795 15.9887Z" fill="#8B4D0F"/>
<path d="M16.1521 51.697L9.71309 55.4146L4.60742 46.5713L11.0465 42.8537L16.4357 40.7733L20.6484 48.07L16.1521 51.697Z" fill="#8E4F10"/>
<rect x="54.5176" y="17.583" width="0.474087" height="10.5095" transform="rotate(-30 54.5176 17.583)" fill="#CCAA00"/>
<path d="M34.0114 30.1781L27.3732 34.0106L27.1204 34.8856L31.1574 41.8779C34.4102 40.485 36.1122 39.5016 38.9326 37.3889L34.8956 30.3966L34.0114 30.1781Z" fill="#9D5711"/>
<rect x="26.875" y="32.834" width="7.35001" height="1.26889" transform="rotate(-30 26.875 32.834)" fill="#A65C12"/>
<rect x="26.4863" y="32.4482" width="7.6376" height="0.527431" transform="rotate(-30 26.4863 32.4482)" fill="#A95E13"/>
<path d="M31.4497 28.6648L27.3429 31.0359L26.7217 32.3126L32.866 28.7652L31.4497 28.6648Z" fill="#B26314"/>
<ellipse cx="33.0651" cy="36.2035" rx="3.675" ry="3.67501" transform="rotate(-30 33.0651 36.2035)" fill="#A95E13"/>
<ellipse cx="33.0646" cy="36.2031" rx="2.28636" ry="2.28636" transform="rotate(-30 33.0646 36.2031)" fill="#B26314"/>
<path d="M31.4492 28.6643L27.3424 31.0354L26.7212 32.312L26.4861 32.4481L26.7498 32.9049L26.8744 32.8329L27.5086 33.9314L27.3723 34.0104L27.1195 34.8854L27.2018 35.028L18.5061 40.0484L18.5644 40.1493L17.5389 40.7414L17.1213 40.0183L16.2807 40.5036L16.4361 40.7729L11.047 42.8532L2.99018 47.5048C2.67656 47.6859 2.56911 48.0869 2.75018 48.4005L7.20015 56.1081C7.38121 56.4217 7.78223 56.5291 8.09585 56.3481L16.1526 51.6965L20.6489 48.0695L20.8039 48.338L21.6445 47.8527L21.2274 47.1301L22.2529 46.538L22.3111 46.6388L31.0068 41.6184L31.1565 41.8777C34.4093 40.4848 36.1114 39.5014 38.9317 37.3887L38.782 37.1294L47.9496 31.8364L56.3623 28.6534L62.5342 25.09C62.8478 24.909 62.9553 24.508 62.7742 24.1943L58.1752 16.2286C57.9941 15.915 57.5931 15.8075 57.2795 15.9886L51.1076 19.5521L44.1447 25.246L34.977 30.539L34.8947 30.3964L34.0105 30.1779L33.8739 30.2564L33.2397 29.1579L33.3641 29.0861L33.1004 28.6293L32.8654 28.7647L31.4492 28.6643Z" stroke="#5C330A" stroke-width="2.6228"/>
<rect x="24.1191" y="41.3682" width="5.12981" height="4.66687" transform="rotate(-30 24.1191 41.3682)" fill="#634221"/>
<rect x="37.0293" y="33.915" width="5.12981" height="4.66687" transform="rotate(-30 37.0293 33.915)" fill="#634221"/>
<rect x="26.2246" y="45.541" width="5.65498" height="3.1579" transform="rotate(-30 26.2246 45.541)" fill="#593B1E"/>
<rect x="39.1348" y="38.0879" width="5.65498" height="3.1579" transform="rotate(-30 39.1348 38.0879)" fill="#593B1E"/>
<rect x="21.7852" y="37.3262" width="5.12981" height="4.66687" transform="rotate(-30 21.7852 37.3262)" fill="#634221"/>
<rect x="34.6934" y="29.873" width="5.12981" height="4.66687" transform="rotate(-30 34.6934 29.873)" fill="#634221"/>
<rect width="5.12981" height="0.438457" transform="matrix(0.866025 -0.5 -0.5 -0.866025 24.1191 41.3682)" fill="#6B4724"/>
<rect width="5.12981" height="0.438457" transform="matrix(0.866025 -0.5 -0.5 -0.866025 37.0293 33.915)" fill="#6B4724"/>
<rect width="5.12981" height="0.438241" transform="matrix(0.866025 -0.5 -0.5 -0.866025 24.3379 41.7471)" fill="#6B4724"/>
<rect width="5.12981" height="0.438241" transform="matrix(0.866025 -0.5 -0.5 -0.866025 37.248 34.2939)" fill="#6B4724"/>
<path d="M26.2265 34.7618L21.784 37.3267L26.4507 45.4098L26.2234 45.541L27.8023 48.2759L32.6997 45.4484L31.1207 42.7136L30.8933 42.8449L26.2265 34.7618Z" stroke="#4D3319" stroke-width="1.3114"/>
<path d="M39.1368 27.3086L34.6943 29.8735L39.361 37.9566L39.1335 38.0879L40.7125 40.8227L45.6098 37.9953L44.0309 35.2604L43.8036 35.3917L39.1368 27.3086Z" stroke="#4D3319" stroke-width="1.3114"/>
<path d="M63.2385 52.7622L84.7615 40.3353C84.9042 40.2529 85.3299 40.5281 85.5991 40.9945L86.6301 42.7801C86.8994 43.2465 86.9248 43.7527 86.7821 43.8351L65.2592 56.262L63.2385 52.7622Z" fill="#4D4033" stroke="#3D3329" stroke-width="2.6228"/>
<path d="M99.3068 30.5017L85.0503 38.7327C84.8562 38.8448 84.7412 39.0413 84.7242 39.2485C84.714 39.3764 84.7411 39.5086 84.8103 39.6284L87.4183 44.1457C87.5996 44.4596 88.0005 44.5668 88.314 44.3857L102.571 36.1547L99.3068 30.5017Z" fill="#AA5E13"/>
<path d="M102.57 36.155L99.3066 30.502L103.931 27.8319C104.245 27.6509 104.646 27.7581 104.827 28.0719L107.435 32.5892C107.488 32.6802 107.516 32.7778 107.522 32.8757C107.537 33.1162 107.418 33.3562 107.195 33.485L102.57 36.155Z" fill="#A55C12"/>
<path d="M85.0503 38.7327L103.931 27.8317C104.245 27.6506 104.646 27.7578 104.827 28.0717L107.435 32.589C107.488 32.6799 107.516 32.7776 107.522 32.8754C107.537 33.1159 107.418 33.356 107.195 33.4847L88.314 44.3857C88.0005 44.5668 87.5996 44.4596 87.4183 44.1457L84.8103 39.6284C84.7411 39.5086 84.714 39.3764 84.7242 39.2485C84.7412 39.0413 84.8562 38.8448 85.0503 38.7327Z" stroke="#5C330A" stroke-width="2.6228"/>
<path d="M68.3604 69.4285C66.5007 69.738 65.4526 69.736 63.574 69.7403L63.1748 69.1562L61.4577 69.5967L61.4346 67.5202L62.718 66.7792C64.8603 67.5408 65.9484 67.8861 68.1182 68.5229C68.3285 68.5846 68.4585 68.8671 68.5217 69.0701C68.5738 69.2378 68.4722 69.4098 68.3604 69.4285Z" fill="#43382D"/>
<path d="M61.4346 67.5202L61.4577 69.5967L63.1748 69.1562L63.574 69.7403C65.4526 69.736 66.5007 69.738 68.3604 69.4285C68.4722 69.4098 68.5738 69.2378 68.5217 69.0701C68.4585 68.8671 68.3285 68.5846 68.1182 68.5229C65.9484 67.8861 64.8603 67.5408 62.718 66.7792M61.4346 67.5202L62.718 66.7792L62.718 66.7792M61.4346 67.5202L62.718 66.7792" stroke="#3D3329" stroke-width="1.3114"/>
<path d="M68.1387 69.4236C65.7133 68.487 64.619 67.5586 63.2643 65.0037C61.298 65.8642 60.578 66.6671 60.3132 68.9044C61.2798 69.2641 61.843 69.2129 62.8649 68.8919C64.662 70.2851 65.8264 70.4356 68.0477 70.121C68.2012 70.0992 68.329 69.9766 68.3625 69.8339C68.3994 69.6766 68.3257 69.4959 68.1387 69.4236Z" fill="#4F4235" stroke="#3D3329" stroke-width="1.3114"/>
<rect x="54.3672" y="100.366" width="11.842" height="1.61146" transform="rotate(-30 54.3672 100.366)" fill="#473B2F"/>
<rect x="65.3203" y="57.458" width="4.22116" height="0.695464" transform="rotate(-30 65.3203 57.458)" fill="#41362B"/>
<rect x="51.8242" y="66.0527" width="8.03637" height="0.920327" transform="rotate(-30 51.8242 66.0527)" fill="#41362B"/>
<path fill-rule="evenodd" clip-rule="evenodd" d="M58.3842 62.6469L58.7129 62.077L87.5625 45.4207C87.6459 45.5603 87.7247 45.6903 87.7996 45.8138C88.2688 46.587 88.5815 47.1025 88.8571 48.1119C88.8825 48.2051 88.8171 48.2778 88.7557 48.3459C88.6939 48.4145 88.6363 48.4784 88.68 48.5539C89.0376 49.1734 88.4862 49.6039 88.1483 49.8332C87.1618 50.5026 85.7204 51.4138 84.1048 52.411L83.7246 51.7524L82.3745 52.5319L82.7758 53.227C80.7067 54.4914 78.4888 55.8221 76.6385 56.9323C75.5655 57.5761 74.616 58.1458 73.8909 58.5853C72.5377 59.4056 72.0827 61.2118 72.8739 62.5821L73.8981 64.3561C74.3529 65.1438 75.121 65.8104 75.8216 66.3905C76.4669 66.9249 76.3274 67.3493 75.5369 67.7818L66.3352 73.207C65.7079 73.5768 65.0232 73.698 64.3 73.7827L63.4307 73.8427C62.8218 73.914 62.4951 74.1446 62.1759 74.5672C62.1676 74.5781 62.1594 74.589 62.1512 74.5998C61.8119 75.0474 61.5599 75.3798 61.9702 77.5391L64.392 91.8272C65.3571 93.3321 65.5512 94.0017 65.0529 94.7502C64.7435 95.215 53.9059 101.541 53.6588 101.644C53.3376 101.778 53.1485 101.713 52.9274 101.396C51.8461 101.471 51.2603 101.383 50.3011 101.109C48.2323 98.1889 48.1444 92.067 48.091 88.3512C48.0771 87.3805 48.0655 86.574 48.0216 86.0317C48.0152 85.9526 48.0087 85.8721 48.0021 85.7904C47.847 83.8651 47.6354 81.237 46.9732 78.8604C46.4047 76.8199 45.0331 75.2204 43.2008 74.9854C42.1628 74.8523 41.724 74.7182 39.8437 75.5853C39.6668 75.6668 39.2563 75.7241 38.9679 75.2342C38.6795 74.7443 38.4728 74.1646 38.9733 73.8757L38.7992 73.5742L52.0245 65.9385L52.2066 66.2539L52.8445 66.4376L55.5608 64.8694L55.3043 64.425L58.3842 62.6469ZM66.3482 63.1102L67.6332 62.3683C69.1047 61.5187 70.9864 62.0229 71.836 63.4944L72.4659 64.5856C73.2943 66.0203 72.8027 67.8549 71.368 68.6833L65.8394 71.8752C64.964 72.3806 63.8618 72.454 62.9085 72.1179C61.2871 71.5464 60.6494 69.7906 61.0877 68.1282C61.4064 66.9195 61.8971 66.0512 63.0096 65.4813L64.3771 64.6918C64.7584 64.4964 65.0509 64.2383 65.3623 63.9634C65.4288 63.9047 65.4962 63.8452 65.5655 63.7854L66.3482 63.1102ZM64.2818 60.1583C64.2189 60.1686 64.1763 60.2279 64.1866 60.2908L64.5846 62.7267C64.5949 62.7896 64.6542 62.8322 64.7171 62.822L65.314 62.7244C65.3769 62.7142 65.4195 62.6548 65.4093 62.592L65.0112 60.156C65.0009 60.0931 64.9416 60.0505 64.8787 60.0607L64.2818 60.1583Z" fill="#86592D"/>
<path d="M77.7675 56.2135C77.1456 56.5857 76.552 56.941 76.004 57.2697C75.0997 55.5974 74.5403 54.7053 73.4863 53.5469L87.5619 45.4204C87.6452 45.56 87.7241 45.69 87.799 45.8135C88.2682 46.5867 88.5809 47.1021 88.8565 48.1116C88.8819 48.2048 88.8164 48.2775 88.7551 48.3456C88.6933 48.4141 88.6357 48.478 88.6793 48.5536C89.037 49.1731 88.4855 49.6036 88.1477 49.8328C87.2024 50.4743 85.7457 51.3877 84.0966 52.3976L83.724 51.7521L82.3739 52.5316L82.765 53.209C81.1052 54.2159 79.3452 55.2693 77.7675 56.2135Z" fill="#83572C"/>
<path d="M55.1373 56.6884L55.3397 56.5716C55.3608 56.5594 55.3668 56.5445 55.3759 56.5276C55.3852 56.5102 55.3978 56.4908 55.4334 56.4702L62.8493 52.0901L65.5995 56.8535L65.774 57.9982L58.3637 62.2766L55.1373 56.6884Z" fill="#534537"/>
<path d="M83.6447 39.7327C83.447 39.8514 83.267 39.9597 83.0979 40.0615C82.8036 40.2386 82.5462 40.4033 82.2864 40.5696C81.9272 40.7994 81.5633 41.0323 81.0908 41.3051L62.8312 52.0552L63.5808 53.3535C64.1117 54.2731 64.0681 55.5391 63.1034 56.0961L58.5895 58.7021C58.5197 58.7424 58.403 58.7041 58.2849 58.6652C58.1834 58.6319 58.0809 58.5982 58.0065 58.614C57.8419 58.6488 57.6755 58.6841 57.5366 58.7643L56.2397 59.5131L54.6582 56.7739L36.0478 67.4723C35.5922 67.7353 35.7907 68.2821 35.8922 68.4579L38.3261 72.7403L38.3728 72.7134C38.4463 72.6709 38.5405 72.6961 38.5829 72.7697L38.6266 72.8453C38.6422 72.8724 38.6399 72.9061 38.6208 72.9308L38.5134 73.0697L38.7999 73.5739L63.2671 59.4478L63.0971 59.1535C63.0461 59.065 63.0764 58.9519 63.1648 58.9009L65.648 57.4672L65.6849 57.3014L69.1343 55.8479L69.2075 56.0181L87.6251 45.3847L84.5753 40.2316C84.3554 39.8507 83.9936 39.5233 83.6447 39.7327Z" fill="#CC6600"/>
<path d="M54.4854 64.516L52.9453 65.4051L53.0542 65.5937L52.955 65.9702L52.4396 66.2677C52.192 66.4107 52.1071 66.7273 52.2501 66.975L52.5966 67.5751C52.7396 67.8228 53.0562 67.9076 53.3039 67.7646L55.1483 66.6997C55.3959 66.5568 55.4808 66.2401 55.3378 65.9925L54.4854 64.516Z" fill="#7A6652"/>
<path d="M81.0542 41.3451L80.8885 40.2399C80.8665 40.1271 80.9186 40.0127 81.0181 39.9553L81.6551 39.5875C81.7032 39.5597 81.761 39.5541 81.8135 39.5721L83.1508 40.1347L81.0542 41.3451Z" fill="#AD5700" stroke="#663300" stroke-width="1.3114"/>
<rect x="65.3457" y="62.0693" width="0.892602" height="2.103" transform="rotate(170.78 65.3457 62.0693)" fill="#5C4D3E"/>
<path d="M64.127 60.496L65.0683 60.181L65.0805 60.2175L64.2507 60.4952L65.1257 60.4961L65.1257 60.5152L65.1319 60.5336L64.3021 60.8113L65.1771 60.8123L65.1771 60.8315L65.1832 60.8496L64.3531 61.1274L65.2284 61.1284L65.2284 61.1475L65.2345 61.1658L64.4047 61.4435L65.2797 61.4445L65.2797 61.4636L65.2858 61.4819L64.4562 61.7595L65.331 61.7605L65.331 61.7797L65.3371 61.7981L64.5073 62.0758L65.3824 62.0767L65.3823 62.0957L65.3885 62.1141L64.5587 62.3917L65.4337 62.3927L65.4337 62.4121L65.4397 62.4301L64.4984 62.7451L64.4862 62.7087L65.3158 62.431L64.441 62.4301L64.4411 62.4109L64.4349 62.3926L65.2643 62.1151L64.3897 62.1141L64.3897 62.0948L64.3836 62.0766L65.2138 61.7988L64.3383 61.7978L64.3384 61.7786L64.3323 61.7604L65.162 61.4828L64.287 61.4818L64.2871 61.4625L64.281 61.4443L65.1107 61.1667L64.2357 61.1657L64.2357 61.1465L64.2296 61.1282L65.0591 60.8506L64.1844 60.8496L64.1844 60.8303L64.1783 60.8122L65.0082 60.5344L64.1331 60.5335L64.1331 60.5142L64.127 60.496Z" fill="#806B56"/>
<path d="M51.2809 61.3528C51.0373 60.9309 51.1819 60.3914 51.6038 60.1478L55.354 57.9826L56.2361 59.5104L52.4859 61.6757C52.064 61.9192 51.5245 61.7747 51.2809 61.3528V61.3528Z" fill="#4D4033"/>
<path d="M51.6692 60.11L52.5513 61.6379L52.4859 61.6757C52.0639 61.9192 51.5245 61.7747 51.2809 61.3527C51.0373 60.9309 51.1818 60.3914 51.6038 60.1478L51.6692 60.11Z" fill="#43382D"/>
<path d="M55.5969 59.8794L54.7148 58.3516L55.3534 57.9829L56.2355 59.5107L55.5969 59.8794Z" fill="#4F4235"/>
<path d="M55.8874 57.9862L55.1383 56.6888C55.0863 56.5987 54.883 56.6431 54.6569 56.7736L55.4895 58.2158L55.8874 57.9862Z" fill="#C76300"/>
<ellipse cx="82.0496" cy="40.2335" rx="0.176404" ry="0.176404" transform="rotate(-30 82.0496 40.2335)" fill="#A35200"/>
<ellipse cx="62.3398" cy="63.9597" rx="0.706263" ry="0.706263" transform="rotate(-30 62.3398 63.9597)" fill="#5C4D3E"/>
<rect x="38.5684" y="66.8301" width="0.926335" height="5.95641" transform="rotate(-30 38.5684 66.8301)" fill="#BD5E00"/>
<rect x="71.5547" y="47.7832" width="0.926335" height="5.95641" transform="rotate(-30 71.5547 47.7832)" fill="#BD5E00"/>
<path d="M39.7463 65.889L37.8031 67.0109L37.578 65.1419L38.4526 64.6369L39.7463 65.889Z" fill="#AD5700" stroke="#663300" stroke-width="1.3114"/>
<path d="M43.5483 63.9528L42.7461 64.416L45.7243 69.5744L46.5265 69.1113L43.5483 63.9528Z" fill="#BD5E00"/>
<path d="M76.5366 44.9079L75.7344 45.3711L78.7126 50.5295L79.5148 50.0663L76.5366 44.9079Z" fill="#BD5E00"/>
<path d="M42.1577 64.7575L41.3555 65.2207L44.3337 70.3791L45.1359 69.916L42.1577 64.7575Z" fill="#BD5E00"/>
<path d="M75.146 45.7107L74.3438 46.1738L77.322 51.3323L78.1242 50.8691L75.146 45.7107Z" fill="#BD5E00"/>
<path d="M40.7632 65.5612L39.9609 66.0244L42.9392 71.1828L43.7414 70.7197L40.7632 65.5612Z" fill="#BD5E00"/>
<path d="M73.7514 46.5163L72.9492 46.9795L75.9274 52.1379L76.7297 51.6747L73.7514 46.5163Z" fill="#BD5E00"/>
<path d="M44.9448 63.1482L44.1426 63.6113L47.1208 68.7698L47.923 68.3066L44.9448 63.1482Z" fill="#BD5E00"/>
<path d="M77.9311 44.1023L77.1289 44.5654L80.1071 49.7239L80.9094 49.2607L77.9311 44.1023Z" fill="#BD5E00"/>
<path d="M46.3354 62.3454L45.5332 62.8086L48.5114 67.967L49.3136 67.5038L46.3354 62.3454Z" fill="#BD5E00"/>
<path d="M79.3257 43.2986L78.5234 43.7617L81.5017 48.9201L82.3039 48.457L79.3257 43.2986Z" fill="#BD5E00"/>
<path d="M47.728 61.5398L46.9258 62.0029L49.904 67.1614L50.7062 66.6982L47.728 61.5398Z" fill="#BD5E00"/>
<path d="M80.7182 42.4939L79.916 42.957L82.8942 48.1155L83.6965 47.6523L80.7182 42.4939Z" fill="#BD5E00"/>
<path d="M63.7356 98.3699L55.6622 103.264C55.3201 103.461 55.0513 103.248 54.9547 103.08C54.8226 102.851 54.7602 101.781 54.9947 101.646C54.9947 101.646 64.5208 95.8405 64.7311 95.6163C64.9148 95.4205 65.1438 95.0414 65.3007 94.6154C65.3306 94.5342 65.4368 94.5119 65.4882 94.5816C65.8763 95.1083 65.9083 95.6892 65.7106 96.2533C65.4628 96.9605 64.9503 97.7682 63.7356 98.3699Z" fill="#534537" stroke="#3D3329" stroke-width="1.3114"/>
<path d="M47.5362 78.8675L48.2037 78.7307C48.7166 78.6256 49.0472 78.1246 48.9421 77.6117C48.8371 77.0987 48.3361 76.7682 47.8231 76.8732L47.1556 77.01L47.5362 78.8675Z" fill="#774F28"/>
<ellipse cx="48.1129" cy="77.7234" rx="0.474378" ry="0.474378" transform="rotate(-30 48.1129 77.7234)" fill="#6B4724"/>
<path d="M84.7876 40.5961L84.572 40.2319C84.352 39.851 83.9903 39.5236 83.6414 39.733L83.0945 40.0618C82.8003 40.2389 82.5429 40.4036 82.2831 40.5699L82.2815 40.5708C81.9228 40.8003 81.5593 41.0329 81.0875 41.3054L62.8279 52.0555L63.3558 52.9698L84.7876 40.5961Z" fill="#D16900"/>
<path d="M55.1828 57.6885L36.047 68.7365L35.8889 68.4582C35.7874 68.2824 35.5889 67.7356 36.0444 67.4726L54.6549 56.7742L55.1828 57.6885Z" fill="#D16900"/>
<path d="M73.437 58.9237C71.257 59.8998 69.9847 60.6342 68.1128 62.142C69.4912 61.6362 71.0746 62.1787 71.8338 63.4937L72.4638 64.5849C73.2922 66.0196 72.8006 67.8542 71.3658 68.6826L65.8373 71.8745C64.9619 72.3799 63.8597 72.4533 62.9064 72.1172C61.7619 71.7138 61.1076 70.7203 60.9758 69.5862C60.8416 71.9384 61.0966 73.3249 61.7863 75.3659C61.8465 74.9982 61.9878 74.8118 62.1487 74.5995C62.157 74.5886 62.1654 74.5775 62.1738 74.5664C62.493 74.1438 62.8197 73.9133 63.4286 73.8419L64.2979 73.7819C65.0211 73.6972 65.7058 73.5761 66.3331 73.2062L75.5348 67.781C76.3253 67.3486 76.4648 66.9242 75.8195 66.3898C75.1189 65.8097 74.3508 65.1431 73.896 64.3554L72.8718 62.5814C72.1765 61.3771 72.4436 59.8362 73.437 58.9237Z" fill="#7E542A"/>
<path d="M75.125 55.4482L86.4254 48.924L88.3347 48.281C88.5214 48.2181 88.6638 48.4518 88.5225 48.589L87.0543 50.0133L83.8034 51.8902L83.7236 51.752L82.3735 52.5315L82.4533 52.6697L75.7539 56.5376L75.125 55.4482Z" fill="#684523"/>
<path d="M49.1925 98.7462C48.1943 95.5837 48.1319 91.2399 48.0904 88.3507C48.0764 87.38 48.0649 86.5735 48.0209 86.0311C48.0145 85.952 48.008 85.8716 48.0015 85.7898C47.8741 84.2082 47.7085 82.1523 47.2864 80.1512L48.4906 79.9854C49.4733 84.2217 49.7903 86.6595 49.6804 91.124C49.6029 94.2735 49.9338 95.9549 50.4912 98.7147L49.1925 98.7462Z" fill="#7E542A"/>
<path d="M61.8703 76.9807C61.8975 77.152 61.93 77.3376 61.9683 77.5392L64.1659 90.5045L63.0528 91.0088L60.7838 77.1587L61.8703 76.9807Z" fill="#7E542A"/>
<path d="M56.7875 73.401L57.3607 76.0907L59.4412 75.6474L59.3616 75.274L60.8053 74.9663L60.3117 72.6499L56.7875 73.401Z" fill="#744D27"/>
<path d="M57.1197 74.9559L57.3616 76.0909L58.353 75.8796L61.0707 92.0583C61.1055 92.266 61.0196 92.4759 60.8486 92.5988C57.9857 94.6569 56.1117 95.6993 52.9599 96.9983C52.6244 97.1365 52.2506 96.917 52.2098 96.5565C52.0002 94.7012 51.9234 93.0062 51.8504 91.3978C51.8037 90.3659 51.7585 89.3697 51.6809 88.3897L50.6959 79.0245C50.6693 78.7717 50.8188 78.5332 51.0569 78.4442C53.673 77.4665 55.3311 76.6512 57.1197 74.9559Z" fill="#7E542A"/>
<path fill-rule="evenodd" clip-rule="evenodd" d="M65.3762 58.7993L63.9389 59.5336C63.3621 59.841 62.776 60.6734 62.9448 61.3048L63.6548 63.961C63.7315 64.248 64.0631 64.3801 64.3162 64.2243L66.4097 62.9357C66.7292 62.739 66.9051 62.3745 66.8604 62.002L66.5292 59.2471C66.4703 58.7567 65.8122 58.567 65.3762 58.7993ZM64.185 60.2906C64.1747 60.2277 64.2174 60.1684 64.2802 60.1581L64.8771 60.0606C64.94 60.0503 64.9993 60.0929 65.0096 60.1558L65.4077 62.5918C65.418 62.6547 65.3753 62.714 65.3124 62.7243L64.7155 62.8218C64.6527 62.8321 64.5933 62.7894 64.5831 62.7265L64.185 60.2906Z" fill="#83572C"/>
<path d="M56.636 59.2808L55.7539 57.7529L55.3561 57.9826L56.2382 59.5104L56.636 59.2808Z" fill="#4D4033"/>
<rect x="49.6777" y="53.9375" width="21.1746" height="1.10395" transform="rotate(-30 49.6777 53.9375)" fill="#794715"/>
<rect x="52.625" y="51.3135" width="1.50915" height="0.798866" transform="rotate(-30 52.625 51.3135)" fill="#94571A"/>
<rect x="55.1973" y="49.8271" width="1.50915" height="0.798866" transform="rotate(-30 55.1973 49.8271)" fill="#94571A"/>
<rect x="57.7734" y="48.3418" width="1.50915" height="0.798866" transform="rotate(-30 57.7734 48.3418)" fill="#94571A"/>
<rect x="60.3477" y="46.8545" width="1.50915" height="0.798866" transform="rotate(-30 60.3477 46.8545)" fill="#94571A"/>
<rect width="1.50915" height="0.798866" transform="matrix(0.866025 -0.5 -0.5 -0.866025 80.0898 58.4414)" fill="#94571A"/>
<rect x="62.9219" y="45.3682" width="1.50915" height="0.798866" transform="rotate(-30 62.9219 45.3682)" fill="#94571A"/>
<rect width="1.50915" height="0.798866" transform="matrix(0.866025 -0.5 -0.5 -0.866025 82.6719 56.9521)" fill="#94571A"/>
<path d="M66.805 43.1273L65.498 43.8818L65.8975 44.5737L68.0164 43.3503L67.9344 43.2082L66.805 43.1273Z" fill="#94571A"/>
<path d="M86.3441 54.8333L85.0371 55.5879L84.6377 54.8961L86.7566 53.6727L86.8387 53.8148L86.3441 54.8333Z" fill="#94571A"/>
<path d="M51.3551 52.0465L50.0482 52.8011L49.6112 53.8244L49.6768 53.9379L51.7546 52.7383L51.3551 52.0465Z" fill="#94571A"/>
<path d="M78.9054 59.1276L76.3079 60.6272L75.2032 60.494L75.1377 60.3804L78.506 58.4357L78.9054 59.1276Z" fill="#94571A"/>
<path d="M69.2854 45.2088L68.5692 44.3065L54.2305 52.585L55.8457 52.9682L61.6378 49.6241C61.6956 49.5737 61.7599 49.5275 61.8309 49.4865L64.8067 47.7684C64.8652 47.7346 64.927 47.7079 64.9907 47.6884L69.2854 45.2088Z" fill="#8B5219"/>
<path d="M58.3842 62.6469L58.7129 62.077L87.5625 45.4207C87.6455 45.5598 87.7241 45.6893 87.7987 45.8123L87.7996 45.8138C88.2688 46.587 88.5815 47.1025 88.8571 48.1119C88.8825 48.2051 88.8171 48.2778 88.7557 48.3459C88.6939 48.4145 88.6364 48.4784 88.68 48.5539C89.0376 49.1734 88.4862 49.6039 88.1483 49.8332C87.1618 50.5026 85.7204 51.4138 84.1048 52.411L83.7246 51.7524L82.3745 52.5319L82.7758 53.227C80.7067 54.4914 78.4888 55.8221 76.6385 56.9323L76.6375 56.9328C75.565 57.5764 74.6158 58.1459 73.8909 58.5853C72.5377 59.4056 72.0827 61.2118 72.8739 62.5821L73.8981 64.3561C74.3529 65.1438 75.121 65.8104 75.8216 66.3905C76.4669 66.9249 76.3274 67.3493 75.5369 67.7818L66.3352 73.207C65.7079 73.5768 65.0232 73.698 64.3 73.7827L63.4307 73.8427C62.8218 73.914 62.4951 74.1446 62.1759 74.5672L62.1512 74.5998C61.8119 75.0474 61.5599 75.3798 61.9702 77.5391L64.392 91.8272C65.3571 93.3321 65.5512 94.0017 65.0529 94.7502C64.7435 95.215 53.9059 101.541 53.6588 101.644C53.3376 101.778 53.1485 101.713 52.9274 101.396C51.8461 101.471 51.2603 101.383 50.3011 101.109C48.2323 98.1889 48.1444 92.067 48.091 88.3512C48.0771 87.3805 48.0655 86.574 48.0216 86.0317L48.0021 85.7904C47.847 83.8651 47.6354 81.237 46.9732 78.8604C46.4047 76.8199 45.0331 75.2204 43.2008 74.9854C42.1628 74.8523 41.724 74.7182 39.8437 75.5853C39.6668 75.6668 39.2563 75.7241 38.9679 75.2342C38.6795 74.7443 38.4728 74.1646 38.9733 73.8757L38.7992 73.5742L52.0245 65.9385L52.2066 66.2539L52.8445 66.4376L55.5608 64.8694L55.3043 64.425L58.3842 62.6469Z" stroke="#4D3319" stroke-width="2.6228"/>
<path d="M66.3478 63.1097L67.6329 62.3678C69.1044 61.5182 70.986 62.0224 71.8356 63.494L72.4656 64.5851C73.2939 66.0198 72.8024 67.8544 71.3676 68.6828L65.8391 71.8747C64.9637 72.3801 63.8615 72.4535 62.9082 72.1174C61.2868 71.5459 60.649 69.7901 61.0874 68.1277C61.406 66.9191 61.8968 66.0508 63.0092 65.4808L64.3767 64.6913C64.7581 64.4959 65.0505 64.2378 65.3619 63.9629L65.362 63.9629C65.4285 63.9042 65.4959 63.8447 65.5652 63.785L66.3478 63.1097Z" stroke="#4D3319" stroke-width="1.3114"/>
<path d="M64.2815 60.1578C64.2186 60.1681 64.176 60.2274 64.1862 60.2903L64.5843 62.7262C64.5946 62.7891 64.6539 62.8318 64.7168 62.8215L65.3137 62.7239C65.3766 62.7137 65.4192 62.6544 65.4089 62.5915L65.0108 60.1555C65.0006 60.0926 64.9413 60.05 64.8784 60.0603L64.2815 60.1578Z" stroke="#4D3319" stroke-width="1.3114"/>
<rect width="13.4147" height="1.57739" transform="matrix(0.866025 -0.5 -0.5 -0.866025 75.1367 60.3799)" fill="#794715"/>
<path d="M73.4312 57.1411L85.2384 50.3242L85.9665 52.3067L74.3491 59.0141L73.4312 57.1411Z" fill="#8B5219"/>
<ellipse cx="83.3907" cy="52.7384" rx="0.643425" ry="0.643425" transform="rotate(-30 83.3907 52.7384)" fill="#7E4A16"/>
<path d="M55.4333 56.4702L62.8492 52.0901L63.5782 53.3527C64.1091 54.2724 64.0655 55.5383 63.1008 56.0953L58.5869 58.7014C58.5171 58.7417 58.4004 58.7033 58.2823 58.6645C58.1808 58.6311 58.0783 58.5975 58.0039 58.6132C57.8393 58.648 57.6729 58.6834 57.534 58.7636L56.6337 59.2803L52.4856 61.6752C52.3406 61.759 52.1816 61.7968 52.0256 61.7933C51.7278 61.7867 51.4405 61.6292 51.2806 61.3523C51.0371 60.9305 51.1816 60.391 51.6035 60.1474L55.7516 57.7525L55.1372 56.6884L55.3396 56.5716C55.3583 56.5608 55.3651 56.5479 55.3727 56.5333L55.3758 56.5276C55.3851 56.5102 55.3977 56.4908 55.4333 56.4702Z" stroke="#3D3329" stroke-width="1.3114"/>
<path d="M83.0959 40.0605C83.2651 39.9587 83.4451 39.8503 83.6427 39.7317C83.9894 39.5309 84.355 39.8522 84.5734 40.2305L87.6231 45.3836L69.2055 56.017L69.1323 55.8469L65.6829 57.3004L65.7746 57.9979L38.7979 73.5728L38.5114 73.0686L38.6188 72.9298C38.6379 72.905 38.6402 72.8713 38.6246 72.8442L38.5809 72.7687C38.5385 72.6951 38.4444 72.6699 38.3708 72.7123L38.3242 72.7393L35.8902 68.4569C35.7887 68.281 35.5903 67.7342 36.0459 67.4712L54.6564 56.773C54.8825 56.6424 55.0857 56.598 55.1379 56.6881L55.3403 56.5713C55.3589 56.5605 55.3688 56.5418 55.3764 56.5272C55.3857 56.5099 55.3983 56.4905 55.4339 56.4699L62.8499 52.0898L62.8293 52.0541L81.2937 41.1843C81.6688 40.9624 81.979 40.7654 82.2836 40.5705C82.5434 40.4042 82.8016 40.2376 83.0959 40.0605Z" stroke="#663300" stroke-width="2.6228"/>
<path d="M55.8438 52.9678L73.4311 57.1408L85.2383 50.3239L70.5548 46.2446C70.1804 46.1406 69.8486 45.9206 69.6071 45.6162L69.2834 45.2084L64.9887 47.6879C65.1351 47.6431 65.2918 47.6365 65.4434 47.6705L77.5211 50.3809C78.6645 50.6375 78.8975 52.1646 77.8827 52.7505L74.5584 54.6698C74.2743 54.8338 73.9364 54.8771 73.6202 54.7899L62.1018 51.6164C61.1848 51.3638 60.9666 50.2086 61.6359 49.6237L55.8438 52.9678Z" fill="#9C5C1C"/>
<path d="M52.6228 51.3146L53.9297 50.56L54.3292 51.2519L55.597 50.5199L55.1975 49.8281L56.5045 49.0735L56.9039 49.7653L58.1716 49.0335L57.7721 48.3416L59.0791 47.5871L59.4785 48.2789L60.7462 47.547L60.3467 46.8552L61.6537 46.1006L62.0531 46.7924L63.3209 46.0605L62.9215 45.3686L64.2285 44.6141L64.6279 45.3059L65.8955 44.574L65.4961 43.8822L66.8031 43.1276L67.9324 43.2085L68.5666 44.3069L69.2825 45.209L69.6062 45.6168C69.8477 45.9211 70.1795 46.1411 70.5539 46.2451L85.2374 50.3245L85.9656 52.307L86.7543 53.6733L86.8363 53.8154L86.3417 54.8339L85.0348 55.5885L84.6353 54.8967L83.5788 55.5066L83.9783 56.1985L82.6713 56.9531L82.2719 56.2612L80.9985 56.9964L81.398 57.6882L80.091 58.4428L79.6916 57.7509L78.5053 58.4359L78.9047 59.1277L76.3072 60.6274L75.2025 60.4941L75.137 60.3806L74.3481 59.0143L73.4302 57.1414L54.2279 52.5854L50.2289 54.8942L49.6769 53.9382L49.6112 53.8244L50.0482 52.8011L51.3551 52.0465L51.7546 52.7383L53.0222 52.0064L52.6228 51.3146Z" stroke="#57330F" stroke-width="1.3114"/>
<path d="M25.3843 53.5052C25.0706 53.6862 24.9632 54.0872 25.1443 54.4009L29.5942 62.1084C29.7753 62.4221 30.1763 62.5295 30.4899 62.3484L32.1076 61.4145L27.0019 52.5712L25.3843 53.5052Z" fill="#854A0F"/>
<rect x="38.6738" y="46.5039" width="0.970664" height="9.04638" transform="rotate(-30 38.6738 46.5039)" fill="#A05912"/>
<rect x="39.9316" y="46.7412" width="1.1842" height="7.37705" transform="rotate(-30 39.9316 46.7412)" fill="#81470E"/>
<path d="M79.6721 21.9887C79.9857 21.8076 80.3867 21.915 80.5678 22.2286L85.1668 30.1944C85.3479 30.508 85.2404 30.909 84.9268 31.0901L78.7549 34.6535L70.3422 37.8365L44.7037 52.6389L40.8987 46.0485L66.5372 31.2461L73.5002 25.5521L79.6721 21.9887Z" fill="#8B4D0F"/>
<path d="M38.5447 57.697L32.1057 61.4146L27 52.5713L33.4391 48.8537L38.8283 46.7733L43.041 54.07L38.5447 57.697Z" fill="#8E4F10"/>
<rect x="76.9102" y="23.583" width="0.474087" height="10.5095" transform="rotate(-30 76.9102 23.583)" fill="#CCAA00"/>
<path d="M56.404 36.1781L49.7658 40.0106L49.5129 40.8856L53.5499 47.8779C56.8027 46.485 58.5048 45.5016 61.3251 43.3889L57.2881 36.3966L56.404 36.1781Z" fill="#9D5711"/>
<rect x="49.2676" y="38.834" width="7.35001" height="1.26889" transform="rotate(-30 49.2676 38.834)" fill="#A65C12"/>
<rect x="48.8789" y="38.4482" width="7.6376" height="0.527431" transform="rotate(-30 48.8789 38.4482)" fill="#A95E13"/>
<path d="M53.8423 34.6648L49.7355 37.0359L49.1143 38.3126L55.2585 34.7652L53.8423 34.6648Z" fill="#B26314"/>
<ellipse cx="55.4576" cy="42.2035" rx="3.675" ry="3.67501" transform="rotate(-30 55.4576 42.2035)" fill="#A95E13"/>
<ellipse cx="55.4572" cy="42.2031" rx="2.28636" ry="2.28636" transform="rotate(-30 55.4572 42.2031)" fill="#B26314"/>
<path d="M53.8418 34.6643L49.735 37.0354L49.1138 38.312L48.8786 38.4481L49.1424 38.9049L49.267 38.8329L49.9012 39.9314L49.7649 40.0104L49.5121 40.8854L49.5944 41.028L40.8987 46.0484L40.957 46.1493L39.9315 46.7414L39.5139 46.0183L38.6733 46.5036L38.8287 46.7729L33.4396 48.8532L25.3828 53.5048C25.0691 53.6859 24.9617 54.0869 25.1428 54.4005L29.5927 62.1081C29.7738 62.4217 30.1748 62.5291 30.4884 62.3481L38.5452 57.6965L43.0414 54.0695L43.1965 54.338L44.0371 53.8527L43.62 53.1301L44.6455 52.538L44.7037 52.6388L53.3993 47.6184L53.5491 47.8777C56.8018 46.4848 58.5039 45.5014 61.3243 43.3887L61.1745 43.1294L70.3422 37.8364L78.7549 34.6534L84.9268 31.09C85.2404 30.909 85.3479 30.508 85.1668 30.1943L80.5678 22.2286C80.3867 21.915 79.9857 21.8075 79.6721 21.9886L73.5002 25.5521L66.5372 31.246L57.3696 36.539L57.2872 36.3964L56.4031 36.1779L56.2665 36.2564L55.6323 35.1579L55.7567 35.0861L55.493 34.6293L55.258 34.7647L53.8418 34.6643Z" stroke="#5C330A" stroke-width="2.6228"/>
<rect x="46.5117" y="47.3682" width="5.12981" height="4.66687" transform="rotate(-30 46.5117 47.3682)" fill="#634221"/>
<rect x="59.4219" y="39.915" width="5.12981" height="4.66687" transform="rotate(-30 59.4219 39.915)" fill="#634221"/>
<rect x="48.6172" y="51.541" width="5.65498" height="3.1579" transform="rotate(-30 48.6172 51.541)" fill="#593B1E"/>
<rect x="61.5273" y="44.0879" width="5.65498" height="3.1579" transform="rotate(-30 61.5273 44.0879)" fill="#593B1E"/>
<rect x="44.1777" y="43.3262" width="5.12981" height="4.66687" transform="rotate(-30 44.1777 43.3262)" fill="#634221"/>
<rect x="57.0859" y="35.873" width="5.12981" height="4.66687" transform="rotate(-30 57.0859 35.873)" fill="#634221"/>
<rect width="5.12981" height="0.438457" transform="matrix(0.866025 -0.5 -0.5 -0.866025 46.5117 47.3682)" fill="#6B4724"/>
<rect width="5.12981" height="0.438457" transform="matrix(0.866025 -0.5 -0.5 -0.866025 59.4219 39.915)" fill="#6B4724"/>
<rect width="5.12981" height="0.438241" transform="matrix(0.866025 -0.5 -0.5 -0.866025 46.7305 47.748)" fill="#6B4724"/>
<rect width="5.12981" height="0.438241" transform="matrix(0.866025 -0.5 -0.5 -0.866025 59.6406 40.2939)" fill="#6B4724"/>
<path d="M48.6191 40.7618L44.1766 43.3267L48.8433 51.4098L48.616 51.541L50.1949 54.2759L55.0923 51.4484L53.5133 48.7136L53.2859 48.8449L48.6191 40.7618Z" stroke="#4D3319" stroke-width="1.3114"/>
<path d="M61.5294 33.3086L57.0869 35.8735L61.7536 43.9566L61.5261 44.0879L63.1051 46.8227L68.0024 43.9953L66.4235 41.2604L66.1962 41.3917L61.5294 33.3086Z" stroke="#4D3319" stroke-width="1.3114"/>
</g>
<defs>
<clipPath id="clip0_1485_481">
<rect width="110" height="110" fill="white"/>
</clipPath>
</defs>
</svg>
