<svg width="110" height="110" viewBox="0 0 110 110" fill="none" xmlns="http://www.w3.org/2000/svg">
<g clip-path="url(#clip0_2628_2633)">
<path d="M6.87808 57.1256L6.55588 55.64L7.47722 55.1081L6.22292 54.5018L5.57813 54.874L6.87808 57.1256Z" fill="#3D3D43" stroke="#303036" stroke-width="2.34019" stroke-miterlimit="3.99393"/>
<path d="M44.7366 41.4653L48.6211 39.1384L48.9426 35.3849L81.6212 16.4571L86.9044 25.608L54.1729 44.4441L50.7626 42.8476L46.8048 45.0474L44.7366 41.4653Z" fill="#3E3E41"/>
<path d="M79.1339 17.8992L84.4131 27.0431L55.0777 43.9249L49.8459 34.8631L79.1339 17.8992Z" fill="#39393C" stroke="#323234" stroke-width="1.1701" stroke-miterlimit="3.99393" stroke-linecap="square"/>
<path d="M44.7366 41.4653L48.6211 39.1384L48.9426 35.3849L81.6212 16.4571L86.9044 25.608L54.1729 44.4441L50.7626 42.8476L46.8048 45.0474L44.7366 41.4653Z" stroke="#323234" stroke-width="2.34019" stroke-miterlimit="3.99393"/>
<path d="M10.0549 66.071L6.5826 65.0121L6.24736 64.006L6.0962 63.9637L5.11061 66.5329C3.19277 67.5479 2.31627 69.1618 1.92998 70.5469C1.89899 70.6889 2.0349 70.7037 2.07614 70.586C2.93111 68.598 5.86713 66.7466 8.90538 68.0616" fill="#494950" stroke="#303036" stroke-width="1.1701" stroke-miterlimit="3.99393"/>
<path fill-rule="evenodd" clip-rule="evenodd" d="M31.0543 58.3881L23.8789 45.96L38.1513 37.7205L40.5831 38.5529L40.9594 38.335L43.6492 39.5832L46.8538 45.1338L33.6412 52.7621L34.3786 54.0305L33.7515 55.2146L34.1333 55.9085L32.6948 56.7786L32.0966 57.5409L31.1577 58.1503L31.0543 58.3881ZM41.761 40.3963L35.8154 43.829L31.4673 42.2887L37.3838 38.8978L41.761 40.3963ZM30.7985 42.6722L35.1489 44.2138L28.6101 47.989C28.3453 48.1418 27.8803 48.0686 27.5974 47.6131L26.2495 45.2787L30.7985 42.6722Z" fill="#4F4F55"/>
<path fill-rule="evenodd" clip-rule="evenodd" d="M23.8789 45.96L26.9633 51.3023L44.5522 41.1473L43.6489 39.5828L40.9591 38.3346L40.5825 38.552L38.1513 37.7205L23.8789 45.96ZM37.3835 38.8974L31.467 42.2882L35.8151 43.8285L41.7608 40.3958L37.3835 38.8974ZM35.1486 44.2133L30.7982 42.6717L26.2493 45.2783L27.5971 47.6127C27.88 48.0682 28.3451 48.1414 28.6098 47.9885L35.1486 44.2133Z" fill="#464649"/>
<path d="M33.9896 38.1708L35.1901 37.4778L37.7042 37.979L33.6561 40.3161L33.2053 39.5354L34.3844 38.8546L33.9896 38.1708Z" fill="#3C3C3E" stroke="#303036" stroke-width="1.1701" stroke-miterlimit="3.99393"/>
<path fill-rule="evenodd" clip-rule="evenodd" d="M6.55676 55.6406L7.62509 60.5665L8.71806 62.2354C9.60731 63.8469 9.06928 67.5649 7.76464 68.6443L9.42186 71.5147L30.8865 58.7716L31.0543 58.3868L23.7407 45.7194L22.0057 46.7248L21.7121 46.2163L7.70019 54.3042L7.993 54.8114L6.55676 55.6406ZM26.9549 57.0126L14.7 64.088L9.81935 55.6345L11.6639 54.5696L10.7839 53.0454L21.1944 47.0349L26.9549 57.0126Z" fill="#55555E"/>
<path d="M23.9819 68.7387C24.5425 68.5526 24.3594 68.538 23.6578 68.6232C22.9561 68.7084 21.7092 68.3349 21.0695 67.6618C20.536 67.1006 20.1375 66.0476 20.4163 64.7211L18.9989 65.5394C20.3298 68.2096 22.4623 69.2432 23.9819 68.7387Z" fill="#464653" stroke="#303036" stroke-width="1.1701" stroke-miterlimit="3.99393"/>
<path d="M14.703 64.0907L26.9567 57.016L22.1209 48.6402L9.86719 55.7148L14.703 64.0907Z" fill="#61616B"/>
<path d="M22.6558 49.5697L13.9646 54.5876C13.2226 55.016 12.9684 55.9648 13.3968 56.7068C13.8252 57.4488 14.7739 57.703 15.5159 57.2746L24.2072 52.2567L22.6558 49.5697Z" fill="#404040"/>
<path d="M24.8082 53.2943L16.1169 58.3122C15.3749 58.7406 15.1207 59.6894 15.5491 60.4314C15.9775 61.1734 16.9263 61.4276 17.6683 60.9992L26.3595 55.9813L24.8082 53.2943Z" fill="#404040"/>
<path d="M14.5742 63.8724L14.6603 61.9215L11.7658 56.9082L10.0333 56.0073L10.424 56.684L9.48325 57.2141L9.92814 57.9847L7.38171 59.4476L7.62475 60.5682L7.9163 61.0134L10.7493 59.4069L13.254 63.7453L14.1891 63.2055L14.5742 63.8724Z" fill="#404040"/>
<path d="M12.2838 64.8019C12.5663 64.6388 12.6631 64.2776 12.5 63.9951C12.3369 63.7126 11.9757 63.6158 11.6932 63.7789C11.4107 63.942 11.3139 64.3032 11.477 64.5857C11.6401 64.8682 12.0013 64.965 12.2838 64.8019Z" fill="#3D3D43"/>
<path d="M10.7955 61.5441C11.078 61.381 11.1748 61.0198 11.0117 60.7373C10.8486 60.4548 10.4874 60.358 10.2049 60.5211C9.92237 60.6842 9.82558 61.0454 9.98868 61.3279C10.1518 61.6104 10.513 61.7072 10.7955 61.5441Z" fill="#3D3D43"/>
<path d="M28.6334 56.8097C28.9159 56.6466 29.0127 56.2854 28.8496 56.0029C28.6865 55.7204 28.3253 55.6236 28.0428 55.7867C27.7603 55.9498 27.6635 56.311 27.8266 56.5935C27.9897 56.8761 28.3509 56.9728 28.6334 56.8097Z" fill="#3D3D43"/>
<path d="M30.2507 56.9974L8.34181 69.6465L9.42153 71.5166L30.8862 58.7735L31.0539 58.3887L30.2507 56.9974Z" fill="#61616B"/>
<path d="M33.7558 52.9574L34.3799 54.031L33.753 55.2154L34.135 55.9095L32.6961 56.779L32.0981 57.5416L31.1595 58.1514L31.0559 58.389L29.3808 55.4876L33.7558 52.9574Z" fill="#3D3D43"/>
<path d="M31.213 55.8244C31.4038 55.7143 31.4692 55.4703 31.359 55.2796C31.2489 55.0888 31.005 55.0234 30.8142 55.1336C30.6234 55.2437 30.558 55.4877 30.6682 55.6784C30.7783 55.8692 31.0223 55.9346 31.213 55.8244Z" fill="#3D3D43"/>
<path d="M26.1701 47.5051C26.3609 47.395 26.4262 47.151 26.3161 46.9602C26.2059 46.7695 25.962 46.7041 25.7712 46.8142C25.5804 46.9244 25.5151 47.1683 25.6252 47.3591C25.7354 47.5499 25.9793 47.6152 26.1701 47.5051Z" fill="#3D3D43"/>
<rect x="34.6836" y="52.1611" width="0.817902" height="1.15296" transform="rotate(-30 34.6836 52.1611)" fill="#3D3D43" stroke="#303036" stroke-width="1.1701" stroke-miterlimit="3.99393"/>
<rect x="36.5957" y="51.0576" width="0.817902" height="1.15296" transform="rotate(-30 36.5957 51.0576)" fill="#3D3D43" stroke="#303036" stroke-width="1.1701" stroke-miterlimit="3.99393"/>
<rect x="38.5039" y="49.9561" width="0.817902" height="1.15296" transform="rotate(-30 38.5039 49.9561)" fill="#3D3D43" stroke="#303036" stroke-width="1.1701" stroke-miterlimit="3.99393"/>
<rect x="40.416" y="48.8516" width="0.817902" height="1.15296" transform="rotate(-30 40.416 48.8516)" fill="#3D3D43" stroke="#303036" stroke-width="1.1701" stroke-miterlimit="3.99393"/>
<rect x="42.3262" y="47.749" width="0.817902" height="1.15296" transform="rotate(-30 42.3262 47.749)" fill="#3D3D43" stroke="#303036" stroke-width="1.1701" stroke-miterlimit="3.99393"/>
<rect x="44.2363" y="46.6455" width="0.817902" height="1.15296" transform="rotate(-30 44.2363 46.6455)" fill="#3D3D43" stroke="#303036" stroke-width="1.1701" stroke-miterlimit="3.99393"/>
<rect x="46.1465" y="45.5439" width="0.817902" height="1.15296" transform="rotate(-30 46.1465 45.5439)" fill="#3D3D43" stroke="#303036" stroke-width="1.1701" stroke-miterlimit="3.99393"/>
<rect x="23.1426" y="44.6797" width="0.817902" height="1.48776" transform="rotate(-30 23.1426 44.6797)" fill="#3D3D43" stroke="#303036" stroke-width="1.1701" stroke-miterlimit="3.99393"/>
<rect x="25.002" y="43.6064" width="0.817902" height="1.48776" transform="rotate(-30 25.002 43.6064)" fill="#3D3D43" stroke="#303036" stroke-width="1.1701" stroke-miterlimit="3.99393"/>
<rect x="26.8613" y="42.5332" width="0.817902" height="1.48776" transform="rotate(-30 26.8613 42.5332)" fill="#3D3D43" stroke="#303036" stroke-width="1.1701" stroke-miterlimit="3.99393"/>
<rect x="28.7227" y="41.458" width="0.817902" height="1.48776" transform="rotate(-30 28.7227 41.458)" fill="#3D3D43" stroke="#303036" stroke-width="1.1701" stroke-miterlimit="3.99393"/>
<rect x="30.5801" y="40.3848" width="0.817902" height="1.48776" transform="rotate(-30 30.5801 40.3848)" fill="#3D3D43" stroke="#303036" stroke-width="1.1701" stroke-miterlimit="3.99393"/>
<path d="M18.389 73.7896L17.9694 70.11C18.0493 70.2053 18.1283 70.3007 18.2044 70.3925C18.438 70.6743 18.643 70.9216 18.7552 71.0284C19.1672 71.4209 19.8946 71.6724 20.3524 71.6582C20.9455 71.6397 21.73 71.591 22.3818 71.3657C22.9679 71.1631 23.4835 70.8265 23.9976 70.4746C25.3423 69.554 27.425 67.8336 28.1863 66.8667C28.4879 66.4836 28.643 66.1734 28.7365 65.8093C28.8292 65.4479 28.8182 65.0788 28.703 64.6391C28.4802 63.7893 27.7925 62.7609 26.6069 61.316L27.6129 60.7187C28.7688 62.1458 29.4427 63.2587 29.6953 64.2225C29.8328 64.7473 29.7627 65.43 29.6425 65.8984C29.523 66.3639 29.2329 66.8337 28.8977 67.2595C27.5907 68.9197 26.1843 69.8608 24.9554 70.6832C24.754 70.8179 24.5528 70.9531 24.3528 71.09C23.8999 71.4001 23.2437 71.8275 22.5699 72.0604C21.8919 72.2948 21.2493 72.4644 20.6508 72.573C20.1827 72.6578 19.6626 72.7528 19.3489 72.9339C19.0862 73.0856 18.6878 73.4488 18.389 73.7896Z" fill="#464653" stroke="#303036" stroke-width="1.1701" stroke-miterlimit="3.99393"/>
<path fill-rule="evenodd" clip-rule="evenodd" d="M6.55654 55.641L7.62486 60.5669L8.71783 62.2358C9.60709 63.8473 9.06906 67.5653 7.76442 68.6447L9.42163 71.5151L30.8863 58.772L31.054 58.3872L23.7405 45.7198L22.0055 46.7252L21.5656 45.9634L7.55371 54.0513L7.99278 54.8118L6.55654 55.641ZM26.9547 57.013L14.6997 64.0884L9.81912 55.6349L11.6637 54.57L10.7837 53.0458L21.1941 47.0353L26.9547 57.013Z" stroke="#303036" stroke-width="1.1701" stroke-miterlimit="3.99393"/>
<path d="M14.703 64.0907L26.9567 57.016L22.1209 48.6402L9.86719 55.7148L14.703 64.0907Z" stroke="#303036" stroke-width="1.1701" stroke-miterlimit="3.99393"/>
<path fill-rule="evenodd" clip-rule="evenodd" d="M23.8789 45.96L26.9633 51.3023L44.5522 41.1473L43.6489 39.5828L40.9591 38.3346L40.5825 38.552L38.1513 37.7205L23.8789 45.96ZM37.3835 38.8974L31.467 42.2882L35.8151 43.8285L41.7608 40.3958L37.3835 38.8974ZM35.1486 44.2133L30.7982 42.6717L26.2493 45.2783L27.5971 47.6127C27.88 48.0682 28.3451 48.1414 28.6098 47.9885L35.1486 44.2133Z" stroke="#303036" stroke-width="1.1701" stroke-miterlimit="3.99393"/>
<path d="M40.6028 39.6948L34.2973 43.3353C33.6876 43.6873 33.4787 44.4669 33.8307 45.0766L34.3812 46.03C34.7332 46.6397 35.5128 46.8486 36.1225 46.4966L42.428 42.8561C43.0377 42.5041 43.2466 41.7245 42.8946 41.1148L42.3441 40.1614C41.9921 39.5517 41.2125 39.3428 40.6028 39.6948Z" fill="#3D3D43"/>
<path d="M40.6331 39.6749L41.2638 40.7674L42.2771 40.1823L42.08 39.8409C41.6894 39.4964 41.113 39.4163 40.6331 39.6749Z" fill="#35353B"/>
<path d="M43.0376 41.4995L42.8405 41.1581L41.8271 41.7431L42.4585 42.8366C42.9224 42.5503 43.1401 42.009 43.0376 41.4995Z" fill="#35353B"/>
<path d="M41.6197 43.3209L40.9883 42.2274L39.975 42.8124L40.6063 43.9059L41.6197 43.3209Z" fill="#35353B"/>
<path d="M39.7675 44.3902L39.1362 43.2967L38.1229 43.8818L38.7542 44.9752L39.7675 44.3902Z" fill="#35353B"/>
<path d="M37.9154 45.4595L37.2841 44.366L36.2708 44.9511L36.9021 46.0446L37.9154 45.4595Z" fill="#35353B"/>
<path d="M36.0634 46.5288L35.432 45.4353L34.4187 46.0204L34.5701 46.2826C34.9529 46.6751 35.5588 46.7871 36.0634 46.5288Z" fill="#35353B"/>
<path d="M33.704 44.7824L33.8554 45.0446L34.8687 44.4596L34.2379 43.3671C33.762 43.6749 33.5555 44.2546 33.704 44.7824Z" fill="#35353B"/>
<path d="M35.0767 42.8829L35.7074 43.9754L36.7208 43.3903L36.09 42.2978L35.0767 42.8829Z" fill="#35353B"/>
<path d="M36.9288 41.8135L37.5596 42.906L38.5729 42.321L37.9421 41.2285L36.9288 41.8135Z" fill="#35353B"/>
<path d="M38.7809 40.7442L39.4117 41.8367L40.425 41.2517L39.7943 40.1592L38.7809 40.7442Z" fill="#35353B"/>
<path d="M36.8695 46.0642L42.4263 42.856C42.5803 42.767 42.7088 42.6507 42.8091 42.5168L41.8568 44.1663L38.0296 46.376L36.8695 46.0642Z" fill="#37373E"/>
<path d="M41.1225 43.5547L40.0008 44.2023C39.886 44.2686 39.8467 44.4153 39.9129 44.5301C39.9792 44.6448 40.1259 44.6841 40.2407 44.6179L41.3624 43.9703C41.4771 43.904 41.5165 43.7573 41.4502 43.6425C41.384 43.5278 41.2372 43.4884 41.1225 43.5547Z" fill="#53535F"/>
<path d="M34.8014 44.3097C35.0839 44.1466 35.1807 43.7854 35.0176 43.5029C34.8545 43.2204 34.4932 43.1236 34.2107 43.2867C33.9282 43.4498 33.8314 43.811 33.9945 44.0935C34.1576 44.3761 34.5189 44.4728 34.8014 44.3097Z" fill="#53535F"/>
<path d="M34.2973 43.3353L40.6028 39.6948C41.2125 39.3428 41.9921 39.5517 42.3441 40.1614L42.8946 41.1148C43.1577 41.5706 43.1074 42.1214 42.8104 42.5175L41.8584 44.1664L38.0312 46.376L36.8713 46.0643L36.1225 46.4966C35.5128 46.8486 34.7332 46.6397 34.3812 46.03L33.8307 45.0766C33.4787 44.4669 33.6876 43.6873 34.2973 43.3353Z" stroke="#303036" stroke-width="1.1701" stroke-miterlimit="3.99393"/>
<path d="M6.55676 55.6406L7.62509 60.5665L8.71806 62.2354C9.60731 63.8469 9.06928 67.5649 7.76464 68.6443L9.42186 71.5147L30.8865 58.7716L31.1587 58.1507L32.0976 57.5413L32.6958 56.779L34.1343 55.9089L33.7524 55.215L34.3796 54.0309L33.6421 52.7625L46.8548 45.1342L43.6502 39.5836L40.9603 38.3354L40.584 38.5533L38.1523 37.7209L23.8799 45.9604L23.7408 45.7194L22.0057 46.7248L21.7121 46.2163L7.70019 54.3042L7.993 54.8114L6.55676 55.6406Z" stroke="#303036" stroke-width="2.34019" stroke-miterlimit="3.99393"/>
<path d="M17.7755 66.4943C17.8211 66.4678 17.8705 66.44 17.9208 66.4137L18.289 66.2093L18.3531 66.3204C18.3748 66.3577 18.3651 66.428 18.3089 66.5447C17.7805 67.6407 17.8406 68.3329 17.9114 69.1489C17.9362 69.4348 17.9623 69.736 17.9649 70.075L18.4041 73.9265C16.3801 75.0159 16.3753 75.3809 17.0812 77.1649L20.0739 86.5651C20.2727 87.13 19.6661 87.4853 18.8034 87.9906C18.7101 88.0452 18.6137 88.1017 18.5151 88.1603L13.0188 91.2396C11.9267 91.8722 11.7692 91.9411 11.6562 91.7541C11.6387 91.7248 11.6222 91.6894 11.6033 91.649C11.5904 91.6212 11.5763 91.591 11.56 91.5589C8.19019 84.8906 8.3555 80.2876 8.43742 78.0063C8.4524 77.5891 8.4646 77.2496 8.45188 76.9893C8.43158 76.4042 8.23881 75.7413 7.87243 75.1324C7.05283 73.7689 5.36291 72.6753 2.7898 73.33C2.38526 73.4377 2.15487 73.4916 2.12209 73.442C2.07896 73.3629 2.49421 73.0424 3.45057 72.3043L3.604 72.1859C4.97589 70.9856 6.36586 69.8016 7.76517 68.6438C7.84372 68.5788 7.91948 68.5043 7.99233 68.4212C8.01791 68.4585 8.04708 68.4939 8.081 68.5255L9.42215 71.5139L17.7755 66.4943Z" fill="#4B4B4E"/>
<path d="M16.6582 75.6995C16.6698 76.0719 16.8312 76.5277 17.0829 77.1639L20.0757 86.5641C20.2745 87.129 19.6679 87.4843 18.8052 87.9896C18.7118 88.0443 18.6155 88.1007 18.5168 88.1593L13.0206 91.2387C11.9284 91.8713 11.771 91.9401 11.6579 91.7532C11.6404 91.7239 11.6239 91.6885 11.6051 91.6481C11.5921 91.6203 11.5781 91.5901 11.5618 91.5579C8.19196 84.8897 8.35726 80.2866 8.43919 78.0053C8.45417 77.5882 8.46636 77.2486 8.45364 76.9883C8.4349 76.448 8.26906 75.8413 7.95523 75.2721L16.6582 75.6995Z" fill="#373739"/>
<path d="M8.2499 75.9409L16.7701 76.3057C16.811 76.4426 16.862 76.5904 16.9216 76.7513L8.37446 76.3854C8.34257 76.2386 8.30106 76.0898 8.2499 75.9409Z" fill="#3E3E41"/>
<path d="M8.45666 77.3387C8.4581 77.2099 8.45699 77.0936 8.45192 76.9899C8.45088 76.9598 8.44938 76.9295 8.44742 76.8991L17.1145 77.2701L17.2563 77.7153L8.45666 77.3387Z" fill="#3E3E41"/>
<path d="M8.42762 78.2871C8.43089 78.1901 8.43424 78.0967 8.43747 78.0069C8.43941 77.9528 8.4413 77.9 8.4431 77.8486L17.421 78.2329L17.5628 78.6781L8.42762 78.2871Z" fill="#3E3E41"/>
<path d="M8.40682 79.2359C8.40787 79.0837 8.41016 78.9374 8.4132 78.797L17.7275 79.1957L17.8693 79.6409L8.40682 79.2359Z" fill="#3E3E41"/>
<path d="M8.41806 80.186C8.4133 80.0352 8.41015 79.8886 8.4083 79.7464L18.0341 80.1585L18.1758 80.6037L8.41806 80.186Z" fill="#3E3E41"/>
<path d="M8.46786 81.1379C8.45683 80.9876 8.44757 80.8408 8.43985 80.6975L18.3406 81.1213L18.4824 81.5666L8.46786 81.1379Z" fill="#3E3E41"/>
<path d="M8.55825 82.0914C8.54083 81.9415 8.52525 81.7944 8.51135 81.6502L18.6471 82.0841L18.7889 82.5294L8.55825 82.0914Z" fill="#3E3E41"/>
<path d="M8.68965 83.0467C8.66587 82.897 8.64396 82.7496 8.62379 82.6047L18.9537 83.0469L19.0954 83.4922L8.68965 83.0467Z" fill="#3E3E41"/>
<path d="M8.86187 84.0038C8.83179 83.8541 8.80359 83.7065 8.77718 83.561L19.2602 84.0097L19.4019 84.455L8.86187 84.0038Z" fill="#3E3E41"/>
<path d="M9.07441 84.9626C9.03813 84.8128 9.00374 84.6649 8.97114 84.519L19.5667 84.9725L19.7085 85.4178L9.07441 84.9626Z" fill="#3E3E41"/>
<path d="M9.32671 85.923C9.28433 85.7732 9.24383 85.6251 9.20513 85.4787L19.8732 85.9353L20.015 86.3806L9.32671 85.923Z" fill="#3E3E41"/>
<path d="M9.61813 86.8852C9.56975 86.7353 9.52324 86.5869 9.47854 86.44L20.0983 86.8946C20.0637 87.0462 19.9637 87.1851 19.8144 87.3217L9.61813 86.8852Z" fill="#3E3E41"/>
<path d="M9.94808 87.849C9.89379 87.699 9.84137 87.5503 9.79074 87.4031L19.123 87.8026C19.0215 87.8635 18.9146 87.9261 18.8034 87.9912C18.7101 88.0459 18.6138 88.1023 18.5151 88.1609L18.4243 88.2118L9.94808 87.849Z" fill="#3E3E41"/>
<path d="M17.7755 66.4943C17.8211 66.4678 17.8705 66.44 17.9208 66.4137L18.289 66.2093L18.3531 66.3204C18.3748 66.3577 18.3651 66.428 18.3089 66.5447C17.7805 67.6407 17.8406 68.3329 17.9114 69.1489C17.9362 69.4348 17.9623 69.736 17.9649 70.075L18.4041 73.9265C16.3801 75.0159 16.3753 75.3809 17.0812 77.1649L20.0739 86.5651C20.2727 87.13 19.6661 87.4853 18.8034 87.9906C18.7101 88.0452 18.6137 88.1017 18.5151 88.1603L13.0188 91.2396C11.9267 91.8722 11.7692 91.9411 11.6562 91.7541C11.6387 91.7248 11.6222 91.6894 11.6033 91.649C11.5904 91.6212 11.5763 91.591 11.56 91.5589C8.19019 84.8906 8.3555 80.2876 8.43742 78.0063C8.4524 77.5891 8.4646 77.2496 8.45188 76.9893C8.43158 76.4042 8.23881 75.7413 7.87243 75.1324C7.05283 73.7689 5.36291 72.6753 2.7898 73.33C2.38526 73.4377 2.15487 73.4916 2.12209 73.442C2.07896 73.3629 2.49421 73.0424 3.45057 72.3043L3.604 72.1859C4.97589 70.9856 6.36586 69.8016 7.76517 68.6438C7.84372 68.5788 7.91948 68.5043 7.99233 68.4212C8.01791 68.4585 8.04708 68.4939 8.081 68.5255L9.42215 71.5139L17.7755 66.4943Z" stroke="#323234" stroke-width="2.34019" stroke-miterlimit="29"/>
<path d="M12.5941 76.5023C13.0192 76.2568 13.1648 75.7133 12.9194 75.2881C12.674 74.863 12.1304 74.7174 11.7053 74.9628C11.2802 75.2083 11.1345 75.7518 11.3799 76.177C11.6254 76.6021 12.169 76.7477 12.5941 76.5023Z" fill="#434346"/>
<path d="M14.8324 86.1488C15.2575 85.9033 15.4031 85.3597 15.1577 84.9346C14.9122 84.5095 14.3687 84.3639 13.9436 84.6093C13.5184 84.8547 13.3728 85.3983 13.6182 85.8234C13.8637 86.2485 14.4073 86.3942 14.8324 86.1488Z" fill="#434346"/>
<path d="M27.3546 62.9762L27.0324 61.4906L27.9538 60.9586L26.6995 60.3523L26.0547 60.7246L27.3546 62.9762Z" fill="#3D3D43" stroke="#303036" stroke-width="2.34019" stroke-miterlimit="3.99393"/>
<path d="M65.2132 47.3159L69.0976 44.989L69.4192 41.2355L102.098 22.3077L107.381 31.4586L74.6495 50.2947L71.2391 48.6981L67.2813 50.898L65.2132 47.3159Z" fill="#3E3E41"/>
<path d="M99.6104 23.7498L104.89 32.8937L75.5542 49.7754L70.3224 40.7137L99.6104 23.7498Z" fill="#39393C" stroke="#323234" stroke-width="1.1701" stroke-miterlimit="3.99393" stroke-linecap="square"/>
<path d="M65.2132 47.3159L69.0976 44.989L69.4192 41.2355L102.098 22.3077L107.381 31.4586L74.6495 50.2947L71.2391 48.6981L67.2813 50.898L65.2132 47.3159Z" stroke="#323234" stroke-width="2.34019" stroke-miterlimit="3.99393"/>
<path d="M30.5315 71.9216L27.0592 70.8627L26.7239 69.8565L26.5728 69.8143L25.5872 72.3835C23.6693 73.3985 22.7928 75.0124 22.4065 76.3975C22.3756 76.5395 22.5115 76.5542 22.5527 76.4366C23.4077 74.4486 26.3437 72.5972 29.3819 73.9122" fill="#494950" stroke="#303036" stroke-width="1.1701" stroke-miterlimit="3.99393"/>
<path fill-rule="evenodd" clip-rule="evenodd" d="M51.5309 64.2387L44.3555 51.8105L58.6279 43.5711L61.0596 44.4035L61.4359 44.1856L64.1257 45.4338L67.3304 50.9844L54.1177 58.6127L54.8551 59.8811L54.228 61.0652L54.6099 61.7591L53.1714 62.6292L52.5732 63.3915L51.6343 64.0009L51.5309 64.2387ZM62.2376 46.2469L56.2919 49.6796L51.9439 48.1393L57.8603 44.7484L62.2376 46.2469ZM51.275 48.5228L55.6255 50.0644L49.0866 53.8395C48.8219 53.9924 48.3568 53.9192 48.0739 53.4637L46.7261 51.1293L51.275 48.5228Z" fill="#4F4F55"/>
<path fill-rule="evenodd" clip-rule="evenodd" d="M44.3555 51.8105L47.4399 57.1529L65.0288 46.9979L64.1255 45.4334L61.4357 44.1852L61.0591 44.4026L58.6279 43.5711L44.3555 51.8105ZM57.8601 44.748L51.9436 48.1388L56.2917 49.6791L62.2373 46.2464L57.8601 44.748ZM55.6252 50.0639L51.2748 48.5223L46.7258 51.1289L48.0737 53.4632C48.3566 53.9187 48.8216 53.992 49.0864 53.8391L55.6252 50.0639Z" fill="#464649"/>
<path d="M54.4662 44.0214L55.6666 43.3283L58.1807 43.8296L54.1327 46.1667L53.6819 45.3859L54.861 44.7052L54.4662 44.0214Z" fill="#3C3C3E" stroke="#303036" stroke-width="1.1701" stroke-miterlimit="3.99393"/>
<path fill-rule="evenodd" clip-rule="evenodd" d="M27.0333 61.4912L28.1017 66.417L29.1946 68.086C30.0839 69.6974 29.5458 73.4154 28.2412 74.4949L29.8984 77.3653L51.363 64.6222L51.5308 64.2374L44.2173 51.57L42.4822 52.5754L42.1886 52.0669L28.1768 60.1548L28.4696 60.6619L27.0333 61.4912ZM47.4315 62.8631L35.1765 69.9386L30.2959 61.4851L32.1404 60.4201L31.2605 58.896L41.6709 52.8855L47.4315 62.8631Z" fill="#55555E"/>
<path d="M44.4585 74.5893C45.0191 74.4032 44.836 74.3886 44.1343 74.4738C43.4326 74.559 42.1858 74.1855 41.5461 73.5124C41.0126 72.9511 40.6141 71.8982 40.8929 70.5717L39.4755 71.39C40.8063 74.0602 42.9389 75.0938 44.4585 74.5893Z" fill="#464653" stroke="#303036" stroke-width="1.1701" stroke-miterlimit="3.99393"/>
<path d="M35.1796 69.9413L47.4333 62.8666L42.5975 54.4907L30.3438 61.5654L35.1796 69.9413Z" fill="#61616B"/>
<path d="M43.1324 55.4203L34.4412 60.4382C33.6992 60.8666 33.4449 61.8154 33.8733 62.5574C34.3017 63.2994 35.2505 63.5536 35.9925 63.1252L44.6837 58.1073L43.1324 55.4203Z" fill="#404040"/>
<path d="M45.2847 59.1449L36.5935 64.1628C35.8515 64.5912 35.5973 65.54 36.0257 66.282C36.4541 67.024 37.4028 67.2782 38.1448 66.8498L46.8361 61.8319L45.2847 59.1449Z" fill="#404040"/>
<path d="M35.0507 69.723L35.1368 67.7721L32.2424 62.7588L30.5098 61.8579L30.9005 62.5346L29.9598 63.0647L30.4047 63.8353L27.8583 65.2982L28.1013 66.4188L28.3929 66.864L31.2258 65.2575L33.7306 69.5959L34.6657 69.0561L35.0507 69.723Z" fill="#404040"/>
<path d="M32.7604 70.6525C33.0429 70.4894 33.1397 70.1282 32.9766 69.8457C32.8135 69.5632 32.4522 69.4664 32.1697 69.6295C31.8872 69.7926 31.7904 70.1538 31.9535 70.4363C32.1166 70.7188 32.4779 70.8156 32.7604 70.6525Z" fill="#3D3D43"/>
<path d="M31.2721 67.3947C31.5546 67.2316 31.6514 66.8704 31.4883 66.5879C31.3252 66.3054 30.9639 66.2086 30.6814 66.3717C30.3989 66.5348 30.3021 66.896 30.4652 67.1785C30.6283 67.461 30.9896 67.5578 31.2721 67.3947Z" fill="#3D3D43"/>
<path d="M49.11 62.6603C49.3925 62.4972 49.4893 62.136 49.3262 61.8535C49.1631 61.571 48.8018 61.4742 48.5193 61.6373C48.2368 61.8004 48.14 62.1616 48.3031 62.4441C48.4662 62.7266 48.8275 62.8234 49.11 62.6603Z" fill="#3D3D43"/>
<path d="M50.7272 62.848L28.8184 75.4971L29.8981 77.3672L51.3627 64.6241L51.5305 64.2393L50.7272 62.848Z" fill="#61616B"/>
<path d="M54.2323 58.808L54.8565 59.8816L54.2296 61.066L54.6115 61.7601L53.1727 62.6296L52.5746 63.3922L51.6361 64.002L51.5325 64.2396L49.8574 61.3382L54.2323 58.808Z" fill="#3D3D43"/>
<path d="M51.6896 61.675C51.8804 61.5649 51.9458 61.3209 51.8356 61.1302C51.7255 60.9394 51.4815 60.874 51.2907 60.9842C51.1 61.0943 51.0346 61.3382 51.1447 61.529C51.2549 61.7198 51.4988 61.7852 51.6896 61.675Z" fill="#3D3D43"/>
<path d="M46.6466 53.3557C46.8374 53.2455 46.9028 53.0016 46.7926 52.8108C46.6825 52.62 46.4385 52.5547 46.2478 52.6648C46.057 52.775 45.9916 53.0189 46.1018 53.2097C46.2119 53.4005 46.4559 53.4658 46.6466 53.3557Z" fill="#3D3D43"/>
<rect x="55.1602" y="58.0117" width="0.817902" height="1.15296" transform="rotate(-30 55.1602 58.0117)" fill="#3D3D43" stroke="#303036" stroke-width="1.1701" stroke-miterlimit="3.99393"/>
<rect x="57.0723" y="56.9082" width="0.817902" height="1.15296" transform="rotate(-30 57.0723 56.9082)" fill="#3D3D43" stroke="#303036" stroke-width="1.1701" stroke-miterlimit="3.99393"/>
<rect x="58.9805" y="55.8066" width="0.817902" height="1.15296" transform="rotate(-30 58.9805 55.8066)" fill="#3D3D43" stroke="#303036" stroke-width="1.1701" stroke-miterlimit="3.99393"/>
<rect x="60.8926" y="54.7021" width="0.817902" height="1.15296" transform="rotate(-30 60.8926 54.7021)" fill="#3D3D43" stroke="#303036" stroke-width="1.1701" stroke-miterlimit="3.99393"/>
<rect x="62.8027" y="53.5996" width="0.817902" height="1.15296" transform="rotate(-30 62.8027 53.5996)" fill="#3D3D43" stroke="#303036" stroke-width="1.1701" stroke-miterlimit="3.99393"/>
<rect x="64.7129" y="52.4961" width="0.817902" height="1.15296" transform="rotate(-30 64.7129 52.4961)" fill="#3D3D43" stroke="#303036" stroke-width="1.1701" stroke-miterlimit="3.99393"/>
<rect x="66.623" y="51.3945" width="0.817902" height="1.15296" transform="rotate(-30 66.623 51.3945)" fill="#3D3D43" stroke="#303036" stroke-width="1.1701" stroke-miterlimit="3.99393"/>
<rect x="43.6191" y="50.5303" width="0.817902" height="1.48776" transform="rotate(-30 43.6191 50.5303)" fill="#3D3D43" stroke="#303036" stroke-width="1.1701" stroke-miterlimit="3.99393"/>
<rect x="45.4785" y="49.457" width="0.817902" height="1.48776" transform="rotate(-30 45.4785 49.457)" fill="#3D3D43" stroke="#303036" stroke-width="1.1701" stroke-miterlimit="3.99393"/>
<rect x="47.3379" y="48.3838" width="0.817902" height="1.48776" transform="rotate(-30 47.3379 48.3838)" fill="#3D3D43" stroke="#303036" stroke-width="1.1701" stroke-miterlimit="3.99393"/>
<rect x="49.1992" y="47.3086" width="0.817902" height="1.48776" transform="rotate(-30 49.1992 47.3086)" fill="#3D3D43" stroke="#303036" stroke-width="1.1701" stroke-miterlimit="3.99393"/>
<rect x="51.0566" y="46.2354" width="0.817902" height="1.48776" transform="rotate(-30 51.0566 46.2354)" fill="#3D3D43" stroke="#303036" stroke-width="1.1701" stroke-miterlimit="3.99393"/>
<path d="M38.8656 79.6402L38.4459 75.9605C38.5258 76.0559 38.6049 76.1513 38.6809 76.243C38.9146 76.5249 39.1196 76.7722 39.2317 76.879C39.6437 77.2715 40.3712 77.523 40.8289 77.5087C41.422 77.4903 42.2066 77.4416 42.8583 77.2163C43.4444 77.0136 43.9601 76.6771 44.4741 76.3252C45.8189 75.4046 47.9016 73.6842 48.6628 72.7173C48.9645 72.3342 49.1195 72.024 49.213 71.6598C49.3058 71.2985 49.2948 70.9294 49.1795 70.4897C48.9568 69.6399 48.2691 68.6115 47.0834 67.1666L48.0894 66.5693C49.2454 67.9964 49.9192 69.1093 50.1719 70.0731C50.3094 70.5979 50.2393 71.2806 50.119 71.749C49.9995 72.2145 49.7095 72.6843 49.3743 73.11C48.0672 74.7702 46.6608 75.7114 45.4319 76.5337C45.2305 76.6685 45.0294 76.8036 44.8294 76.9405C44.3765 77.2507 43.7203 77.6781 43.0464 77.911C42.3685 78.1454 41.7259 78.315 41.1273 78.4235C40.6592 78.5084 40.1392 78.6034 39.8255 78.7845C39.5628 78.9362 39.1643 79.2994 38.8656 79.6402Z" fill="#464653" stroke="#303036" stroke-width="1.1701" stroke-miterlimit="3.99393"/>
<path fill-rule="evenodd" clip-rule="evenodd" d="M27.0331 61.4916L28.1014 66.4175L29.1944 68.0864C30.0837 69.6978 29.5456 73.4158 28.241 74.4953L29.8982 77.3657L51.3628 64.6226L51.5306 64.2378L44.2171 51.5704L42.482 52.5758L42.0422 51.814L28.0303 59.9019L28.4693 60.6623L27.0331 61.4916ZM47.4313 62.8635L35.1763 69.939L30.2957 61.4855L32.1402 60.4205L31.2602 58.8964L41.6707 52.8859L47.4313 62.8635Z" stroke="#303036" stroke-width="1.1701" stroke-miterlimit="3.99393"/>
<path d="M35.1796 69.9413L47.4333 62.8666L42.5975 54.4907L30.3438 61.5654L35.1796 69.9413Z" stroke="#303036" stroke-width="1.1701" stroke-miterlimit="3.99393"/>
<path fill-rule="evenodd" clip-rule="evenodd" d="M44.3555 51.8105L47.4399 57.1529L65.0288 46.9979L64.1255 45.4334L61.4357 44.1852L61.0591 44.4026L58.6279 43.5711L44.3555 51.8105ZM57.8601 44.748L51.9436 48.1388L56.2917 49.6791L62.2373 46.2464L57.8601 44.748ZM55.6252 50.0639L51.2748 48.5223L46.7258 51.1289L48.0737 53.4632C48.3566 53.9187 48.8216 53.992 49.0864 53.8391L55.6252 50.0639Z" stroke="#303036" stroke-width="1.1701" stroke-miterlimit="3.99393"/>
<path d="M61.0794 45.5454L54.7739 49.1859C54.1642 49.5379 53.9553 50.3175 54.3073 50.9272L54.8577 51.8806C55.2097 52.4903 55.9894 52.6992 56.5991 52.3472L62.9046 48.7067C63.5142 48.3547 63.7231 47.5751 63.3711 46.9654L62.8207 46.012C62.4687 45.4023 61.6891 45.1934 61.0794 45.5454Z" fill="#3D3D43"/>
<path d="M61.1096 45.5255L61.7404 46.618L62.7537 46.0329L62.5566 45.6915C62.166 45.347 61.5896 45.2668 61.1096 45.5255Z" fill="#35353B"/>
<path d="M63.5141 47.3501L63.317 47.0086L62.3037 47.5937L62.935 48.6872C63.399 48.4009 63.6166 47.8596 63.5141 47.3501Z" fill="#35353B"/>
<path d="M62.0962 49.1715L61.4649 48.078L60.4516 48.663L61.0829 49.7565L62.0962 49.1715Z" fill="#35353B"/>
<path d="M60.2441 50.2408L59.6128 49.1473L58.5995 49.7323L59.2308 50.8258L60.2441 50.2408Z" fill="#35353B"/>
<path d="M58.392 51.3101L57.7607 50.2166L56.7473 50.8017L57.3787 51.8952L58.392 51.3101Z" fill="#35353B"/>
<path d="M56.5399 52.3794L55.9086 51.2859L54.8953 51.871L55.0467 52.1332C55.4295 52.5257 56.0354 52.6377 56.5399 52.3794Z" fill="#35353B"/>
<path d="M54.1805 50.633L54.3319 50.8952L55.3453 50.3102L54.7145 49.2177C54.2385 49.5255 54.032 50.1052 54.1805 50.633Z" fill="#35353B"/>
<path d="M55.5532 48.7334L56.184 49.8259L57.1973 49.2409L56.5666 48.1484L55.5532 48.7334Z" fill="#35353B"/>
<path d="M57.4054 47.6641L58.0361 48.7566L59.0494 48.1716L58.4187 47.0791L57.4054 47.6641Z" fill="#35353B"/>
<path d="M59.2575 46.5948L59.8882 47.6873L60.9016 47.1022L60.2708 46.0097L59.2575 46.5948Z" fill="#35353B"/>
<path d="M57.3461 51.9147L62.9028 48.7066C63.0569 48.6176 63.1854 48.5013 63.2857 48.3674L62.3333 50.0169L58.5061 52.2265L57.3461 51.9147Z" fill="#37373E"/>
<path d="M61.599 49.4053L60.4773 50.0529C60.3626 50.1191 60.3232 50.2659 60.3895 50.3806C60.4558 50.4954 60.6025 50.5347 60.7173 50.4685L61.8389 49.8209C61.9537 49.7546 61.993 49.6079 61.9268 49.4931C61.8605 49.3783 61.7138 49.339 61.599 49.4053Z" fill="#53535F"/>
<path d="M55.2779 50.1603C55.5604 49.9972 55.6572 49.636 55.4941 49.3535C55.331 49.071 54.9698 48.9742 54.6873 49.1373C54.4048 49.3004 54.308 49.6616 54.4711 49.9441C54.6342 50.2266 54.9954 50.3234 55.2779 50.1603Z" fill="#53535F"/>
<path d="M54.7739 49.1859L61.0794 45.5454C61.6891 45.1934 62.4687 45.4023 62.8207 46.012L63.3711 46.9654C63.6343 47.4212 63.584 47.972 63.287 48.3681L62.335 50.017L58.5078 52.2266L57.3479 51.9149L56.5991 52.3472C55.9894 52.6992 55.2097 52.4903 54.8577 51.8806L54.3073 50.9272C53.9553 50.3175 54.1642 49.5379 54.7739 49.1859Z" stroke="#303036" stroke-width="1.1701" stroke-miterlimit="3.99393"/>
<path d="M27.0333 61.4912L28.1017 66.417L29.1946 68.086C30.0839 69.6974 29.5458 73.4154 28.2412 74.4949L29.8984 77.3653L51.363 64.6222L51.6353 64.0013L52.5741 63.3919L53.1724 62.6296L54.6109 61.7595L54.229 61.0656L54.8561 59.8815L54.1187 58.6131L67.3313 50.9848L64.1267 45.4342L61.4369 44.186L61.0606 44.4039L58.6288 43.5715L44.3564 51.8109L44.2173 51.57L42.4822 52.5754L42.1886 52.0669L28.1768 60.1548L28.4696 60.6619L27.0333 61.4912Z" stroke="#303036" stroke-width="2.34019" stroke-miterlimit="3.99393"/>
<path d="M38.2521 72.3449C38.2976 72.3184 38.3471 72.2906 38.3973 72.2643L38.7655 72.0599L38.8297 72.171C38.8513 72.2082 38.8417 72.2786 38.7855 72.3952C38.2571 73.4913 38.3171 74.1835 38.3879 74.9995C38.4127 75.2854 38.4388 75.5865 38.4414 75.9256L38.8807 79.7771C36.8567 80.8664 36.8518 81.2315 37.5577 83.0154L40.5505 92.4157C40.7493 92.9806 40.1427 93.3359 39.28 93.8412C39.1866 93.8958 39.0903 93.9522 38.9916 94.0109L33.4954 97.0902C32.4032 97.7228 32.2458 97.7917 32.1327 97.6047C32.1152 97.5754 32.0987 97.54 32.0799 97.4996C32.0669 97.4718 32.0529 97.4416 32.0366 97.4094C28.6668 90.7412 28.8321 86.1382 28.914 83.8568C28.929 83.4397 28.9412 83.1002 28.9284 82.8399C28.9081 82.2547 28.7154 81.5919 28.349 80.983C27.5294 79.6195 25.8395 78.5259 23.2664 79.1806C22.8618 79.2882 22.6314 79.3422 22.5987 79.2926C22.5555 79.2135 22.9708 78.893 23.9271 78.1549L24.0806 78.0365C25.4525 76.8362 26.8424 75.6522 28.2417 74.4944C28.3203 74.4294 28.396 74.3549 28.4689 74.2718C28.4945 74.3091 28.5236 74.3445 28.5576 74.3761L29.8987 77.3644L38.2521 72.3449Z" fill="#4B4B4E"/>
<path d="M37.1348 81.55C37.1464 81.9225 37.3077 82.3783 37.5595 83.0145L40.5522 92.4147C40.751 92.9796 40.1444 93.3349 39.2817 93.8402C39.1884 93.8949 39.092 93.9513 38.9934 94.0099L33.4972 97.0893C32.405 97.7219 32.2475 97.7907 32.1345 97.6037C32.117 97.5745 32.1005 97.5391 32.0816 97.4987C32.0687 97.4708 32.0546 97.4407 32.0384 97.4085C28.6685 90.7403 28.8338 86.1372 28.9157 83.8559C28.9307 83.4387 28.9429 83.0992 28.9302 82.8389C28.9115 82.2985 28.7456 81.6919 28.4318 81.1227L37.1348 81.55Z" fill="#373739"/>
<path d="M28.7265 81.7915L37.2467 82.1562C37.2876 82.2932 37.3385 82.441 37.3981 82.6019L28.851 82.236C28.8191 82.0892 28.7776 81.9404 28.7265 81.7915Z" fill="#3E3E41"/>
<path d="M28.9332 83.1892C28.9347 83.0605 28.9336 82.9442 28.9285 82.8405C28.9274 82.8104 28.9259 82.7801 28.924 82.7497L37.5911 83.1207L37.7328 83.5659L28.9332 83.1892Z" fill="#3E3E41"/>
<path d="M28.9042 84.1377C28.9074 84.0407 28.9108 83.9473 28.914 83.8575C28.916 83.8034 28.9179 83.7506 28.9197 83.6992L37.8976 84.0835L38.0393 84.5287L28.9042 84.1377Z" fill="#3E3E41"/>
<path d="M28.8834 85.0865C28.8844 84.9343 28.8867 84.7879 28.8898 84.6476L38.2041 85.0463L38.3459 85.4915L28.8834 85.0865Z" fill="#3E3E41"/>
<path d="M28.8946 86.0366C28.8899 85.8858 28.8867 85.7392 28.8849 85.597L38.5106 86.0091L38.6524 86.4543L28.8946 86.0366Z" fill="#3E3E41"/>
<path d="M28.9444 86.9884C28.9334 86.8382 28.9241 86.6914 28.9164 86.5481L38.8172 86.9719L38.9589 87.4171L28.9444 86.9884Z" fill="#3E3E41"/>
<path d="M29.0348 87.942C29.0174 87.7921 29.0018 87.645 28.9879 87.5008L39.1237 87.9347L39.2654 88.3799L29.0348 87.942Z" fill="#3E3E41"/>
<path d="M29.1662 88.8973C29.1424 88.7475 29.1205 88.6002 29.1004 88.4553L39.4302 88.8975L39.572 89.3427L29.1662 88.8973Z" fill="#3E3E41"/>
<path d="M29.3384 89.8544C29.3083 89.7046 29.2802 89.557 29.2537 89.4116L39.7367 89.8603L39.8785 90.3056L29.3384 89.8544Z" fill="#3E3E41"/>
<path d="M29.551 90.8131C29.5147 90.6634 29.4803 90.5155 29.4477 90.3695L40.0433 90.8231L40.185 91.2684L29.551 90.8131Z" fill="#3E3E41"/>
<path d="M29.8033 91.7736C29.7609 91.6238 29.7204 91.4757 29.6817 91.3292L40.3498 91.7859L40.4916 92.2312L29.8033 91.7736Z" fill="#3E3E41"/>
<path d="M30.0947 92.7358C30.0463 92.5859 29.9998 92.4375 29.9551 92.2906L40.5749 92.7452C40.5402 92.8968 40.4403 93.0357 40.291 93.1723L30.0947 92.7358Z" fill="#3E3E41"/>
<path d="M30.4246 93.6996C30.3704 93.5496 30.3179 93.4009 30.2673 93.2537L39.5996 93.6532C39.4981 93.7141 39.3912 93.7767 39.28 93.8418C39.1867 93.8965 39.0903 93.9529 38.9917 94.0115L38.9008 94.0624L30.4246 93.6996Z" fill="#3E3E41"/>
<path d="M38.2521 72.3449C38.2976 72.3184 38.3471 72.2906 38.3973 72.2643L38.7655 72.0599L38.8297 72.171C38.8513 72.2082 38.8417 72.2786 38.7855 72.3952C38.2571 73.4913 38.3171 74.1835 38.3879 74.9995C38.4127 75.2854 38.4388 75.5865 38.4414 75.9256L38.8807 79.7771C36.8567 80.8664 36.8518 81.2315 37.5577 83.0154L40.5505 92.4157C40.7493 92.9806 40.1427 93.3359 39.28 93.8412C39.1866 93.8958 39.0903 93.9522 38.9916 94.0109L33.4954 97.0902C32.4032 97.7228 32.2458 97.7917 32.1327 97.6047C32.1152 97.5754 32.0987 97.54 32.0799 97.4996C32.0669 97.4718 32.0529 97.4416 32.0366 97.4094C28.6668 90.7412 28.8321 86.1382 28.914 83.8568C28.929 83.4397 28.9412 83.1002 28.9284 82.8399C28.9081 82.2547 28.7154 81.5919 28.349 80.983C27.5294 79.6195 25.8395 78.5259 23.2664 79.1806C22.8618 79.2882 22.6314 79.3422 22.5987 79.2926C22.5555 79.2135 22.9708 78.893 23.9271 78.1549L24.0806 78.0365C25.4525 76.8362 26.8424 75.6522 28.2417 74.4944C28.3203 74.4294 28.396 74.3549 28.4689 74.2718C28.4945 74.3091 28.5236 74.3445 28.5576 74.3761L29.8987 77.3644L38.2521 72.3449Z" stroke="#323234" stroke-width="2.34019" stroke-miterlimit="29"/>
<path d="M33.0706 82.3529C33.4957 82.1074 33.6414 81.5638 33.396 81.1387C33.1505 80.7136 32.6069 80.568 32.1818 80.8134C31.7567 81.0588 31.6111 81.6024 31.8565 82.0275C32.1019 82.4526 32.6455 82.5983 33.0706 82.3529Z" fill="#434346"/>
<path d="M35.3089 91.9993C35.734 91.7539 35.8797 91.2103 35.6342 90.7852C35.3888 90.3601 34.8452 90.2145 34.4201 90.4599C33.995 90.7053 33.8494 91.2489 34.0948 91.674C34.3402 92.0991 34.8838 92.2448 35.3089 91.9993Z" fill="#434346"/>
</g>
<defs>
<clipPath id="clip0_2628_2633">
<rect width="110" height="110" fill="white"/>
</clipPath>
</defs>
</svg>
