<svg width="110" height="110" viewBox="0 0 110 110" fill="none" xmlns="http://www.w3.org/2000/svg">
<g clip-path="url(#clip0_1485_350)">
<path d="M75.3424 6.43201L73.0156 7.77539L76.1502 13.2046L78.477 11.8612L75.3424 6.43201Z" fill="#5C5C5C" stroke="#333333" stroke-width="3.58058" stroke-miterlimit="3.99393"/>
<path d="M78.6732 14.4377L77.5098 15.1094L78.3606 16.583L79.524 15.9113L78.6732 14.4377Z" fill="#5C5C5C" stroke="#333333" stroke-width="3.58058" stroke-miterlimit="3.99393"/>
<path d="M5.30012 42.7346L6.81255 41.8614L9.27542 46.1272L5.704 46.1209L5.30012 42.7346Z" fill="#5C5C5C" stroke="#333333" stroke-width="3.58058" stroke-miterlimit="3.99393"/>
<path d="M43.1167 47.0659L43.1603 48.1266C43.1843 48.5264 43.6021 48.8023 43.9735 48.6395L45.5427 48.0438C45.659 47.9766 45.8202 47.987 45.9649 48.0586C46.9496 48.4208 51.4538 49.5949 53.1601 48.6097C55.0991 47.4902 49.0753 48.0725 49.0753 48.0725C49.0753 48.0725 48.8775 49.7896 44.4156 45.6438C40.3164 41.8574 42.5957 46.074 43.0211 46.8109C43.0659 46.8884 43.1107 46.966 43.1167 47.0659Z" fill="#4D4D4D" stroke="#333333" stroke-width="1.79029" stroke-miterlimit="3.99393"/>
<path d="M68.9156 9.62661L67.9601 7.07591L69.3949 6.24749L71.6418 6.9151C71.9477 6.99705 72.0328 7.41324 71.7226 7.59236L68.9156 9.62661Z" fill="#5C5C5C" stroke="#333333" stroke-width="3.58058" stroke-miterlimit="3.99393"/>
<path d="M30.841 90.5549L30.4932 94.7888C30.4932 94.7888 29.2019 96.6719 31.3648 95.9402C33.5277 95.2085 46.3852 88.8194 46.3852 88.8194C46.3852 88.8194 47.7125 87.536 47.0408 86.3726L45.3392 83.4253L30.841 90.5549Z" fill="#525252" stroke="#333333" stroke-width="3.58058" stroke-miterlimit="3.99393"/>
<path d="M42.6389 46.1504C42.6389 46.1504 48.0051 51.3253 50.9436 50.1458C53.8821 48.9663 50.8149 48.669 50.8149 48.669C50.8149 48.669 47.7564 47.8495 45.9052 43.7475C44.054 39.6456 42.4589 43.1519 42.4589 43.1519L42.6389 46.1504Z" fill="#4F4F4F" stroke="#333333" stroke-width="1.79029" stroke-miterlimit="3.99393"/>
<path d="M3.67533 45.7415L71.0365 6.8505C72.0835 6.24598 73.4293 6.60657 74.0338 7.65363L78.3102 15.0606L6.95473 56.2577L2.81264 49.0834C2.07978 47.9036 2.51193 46.4132 3.67533 45.7415Z" fill="#474747"/>
<path d="M9.04821 55.0488C8.57063 55.3245 6.60988 57.5424 7.03529 58.2792C7.46069 59.016 10.5543 57.747 10.8482 57.629C11.3598 57.4237 21.2497 54.7778 20.4757 74.3045C19.6881 93.2702 24.4246 92.9658 24.9407 92.8747C24.9795 92.8523 25.0019 92.8911 25.0407 92.8687L28.102 93.0661C28.1631 93.0825 28.2407 93.0377 28.3019 93.0541L49.3783 83.8846C49.6722 83.7666 49.7257 83.3221 49.4751 83.1565C48.3664 82.4005 46.2206 80.7438 45.6217 78.4526C44.954 75.684 46.1469 74.1679 46.49 73.8665C46.5287 73.8441 46.5675 73.8217 46.6451 73.7769C46.9001 73.6813 47.6206 73.3171 46.1869 73.1624C44.6085 72.9362 44.145 69.8945 44.127 69.5946C44.127 69.5946 44.1046 69.5559 44.1434 69.5335C44.1314 69.3336 44.1638 67.8671 45.0569 66.369C45.3104 65.9125 45.258 65.3739 44.9341 64.9921C43.8954 63.7304 42.0447 60.9726 43.1181 58.8017C44.4226 56.1354 48.5369 55.8282 49.2366 55.7862L65.4467 46.4273C65.4467 46.4273 67.0143 45.4706 66.313 45.1515L65.5506 44.8161C65.5506 44.8161 65.5282 44.7773 65.4894 44.7997C65.3223 44.6894 63.8854 43.8127 61.5793 39.8183C59.2731 35.824 60.7731 33.4067 61.1042 32.9054C61.1205 32.8442 61.1981 32.7994 61.2369 32.777L76.2836 24.0898C76.4775 23.9779 76.5818 23.7108 76.4475 23.4781C76.3355 23.2842 76.3787 23.0008 76.6114 22.8664L77.7748 22.1947C77.9687 22.0828 78.2522 22.126 78.3865 22.3586C78.4984 22.5525 78.7655 22.6569 78.9982 22.5225L80.1228 21.8732C80.1616 21.8508 80.2004 21.8285 80.2392 21.8061C80.5046 21.5494 81.377 20.3736 80.3918 18.6672L78.6006 15.5648C78.4887 15.3709 78.2216 15.2666 77.9889 15.4009L9.04821 55.0488ZM59.4545 47.8703L48.9839 53.9156C48.9839 53.9156 43.8968 54.0604 42.5534 51.7336L41.5459 49.9885C41.5459 49.9885 38.9711 45.5288 53.5436 37.6324C53.5436 37.6324 56.4221 35.4534 59.5567 40.8826C62.6913 46.3118 59.4545 47.8703 59.4545 47.8703Z" fill="#5C5C5C"/>
<path d="M59.455 47.8702L48.9843 53.9154C48.9843 53.9154 43.8973 54.0603 42.5539 51.7335L41.5464 49.9884C41.5464 49.9884 38.9715 45.5287 53.5441 37.6323C53.5441 37.6323 56.4226 35.4533 59.5572 40.8825C62.6917 46.3117 59.455 47.8702 59.455 47.8702Z" stroke="#333333" stroke-width="1.79029" stroke-miterlimit="3.99393"/>
<path d="M9.04793 55.0486C8.57035 55.3244 6.6096 57.5422 7.03501 58.2791C7.46041 59.0159 10.554 57.7468 10.8479 57.6289C11.3595 57.4235 21.2494 54.7777 20.4755 74.3043C19.6879 93.2701 24.431 92.8501 24.9404 92.8745L28.1017 93.066C28.1628 93.0824 28.2404 93.0376 28.3016 93.054L49.3781 83.8844C49.6719 83.7665 49.7255 83.3219 49.4748 83.1564C48.3661 82.4004 46.2204 80.7437 45.6214 78.4524C44.9537 75.6838 46.1466 74.1678 46.4897 73.8663C46.5284 73.8439 46.5672 73.8215 46.6448 73.7768C46.8999 73.6812 47.6203 73.317 46.1866 73.1623C44.6082 72.936 44.1611 69.8332 44.1431 69.5333C44.1311 69.3334 44.1635 67.867 45.0566 66.3689C45.3101 65.9123 45.2577 65.3738 44.9338 64.992C43.8951 63.7303 42.0444 60.9725 43.1178 58.8015C44.4223 56.1352 48.5367 55.8281 49.2363 55.7861L65.4464 46.4272C65.4464 46.4272 67.014 45.4704 66.3127 45.1514L65.5503 44.816C65.5503 44.816 65.5279 44.7772 65.4891 44.7996C65.322 44.6893 63.8851 43.8125 61.579 39.8182C59.2728 35.8238 60.7728 33.4066 61.1039 32.9052C61.1203 32.8441 61.1978 32.7993 61.2366 32.7769L76.2833 24.0897C76.4772 23.9777 76.5815 23.7107 76.4472 23.478C76.3353 23.2841 76.3784 23.0006 76.6111 22.8663L77.7745 22.1946C77.9684 22.0827 78.2519 22.1258 78.3862 22.3585C78.4982 22.5524 78.7652 22.6568 78.9979 22.5224L80.1225 21.8731C80.1613 21.8507 80.2001 21.8283 80.2389 21.8059C80.5043 21.5493 81.3767 20.3734 80.3915 18.6671L78.6004 15.5647C78.4884 15.3708 78.2213 15.2665 77.9887 15.4008L9.04793 55.0486Z" stroke="#333333" stroke-width="3.58058" stroke-miterlimit="3.99393"/>
<path d="M9.04796 55.0486C8.57038 55.3243 6.60964 57.5422 7.03504 58.279C7.46044 59.0159 10.5541 57.7468 10.8479 57.6289C11.3595 57.4235 21.2495 54.7776 20.4755 74.3043C19.6879 93.27 24.431 92.8501 24.9405 92.8745L28.3016 93.0539L49.3781 83.8844C49.6719 83.7665 49.7255 83.3219 49.4748 83.1564C48.3662 82.4004 46.2204 80.7437 45.6214 78.4524C44.9537 75.6838 46.2712 73.9925 46.6448 73.7767C46.8999 73.6812 47.6203 73.317 46.1866 73.1623C44.6082 72.936 44.1612 69.8332 44.1432 69.5333C44.1312 69.3334 44.1635 67.867 45.0566 66.3689C45.3101 65.9123 45.2577 65.3738 44.9339 64.992C43.8952 63.7302 42.0444 60.9725 43.1178 58.8015C44.4223 56.1352 48.5367 55.8281 49.2363 55.7861L65.4464 46.4272C65.4464 46.4272 67.014 45.4704 66.3127 45.1514L65.4891 44.7996C65.322 44.6893 63.8851 43.8125 61.579 39.8182C59.2729 35.8238 60.7729 33.4066 61.1039 32.9052C61.1203 32.8441 61.1978 32.7993 61.2366 32.7769L76.2833 24.0897C76.4772 23.9777 76.5815 23.7107 76.4472 23.478C76.3353 23.2841 76.3784 23.0006 76.6111 22.8663L77.7745 22.1946C77.9684 22.0827 78.2519 22.1258 78.3862 22.3585C78.4982 22.5524 78.7652 22.6568 78.9979 22.5224L80.1225 21.8731C80.1613 21.8507 80.2001 21.8283 80.2389 21.8059C80.5043 21.5493 81.3767 20.3734 80.3915 18.6671L78.6004 15.5647C78.4884 15.3708 78.2213 15.2665 77.9887 15.4008L9.04796 55.0486Z" stroke="#333333" stroke-width="3.58058" stroke-miterlimit="3.99393"/>
<path d="M20.6684 51.4433L33.078 44.2786C33.9312 43.786 35.0323 44.081 35.5248 44.9342C36.0174 45.7873 35.7224 46.8884 34.8692 47.381L22.4596 54.5457C21.6064 55.0383 20.5053 54.7432 20.0128 53.8901C19.5202 53.0369 19.8152 51.9359 20.6684 51.4433Z" fill="#4D4D4D"/>
<path d="M34.9213 60.2763L41.5264 58.0141L41.1449 54.6666L34.186 56.0473L34.9213 60.2763Z" fill="#525252"/>
<path d="M33.3954 29.1525C33.3954 29.1525 35.0902 34.3271 38.1927 32.5359L46.2589 27.8789C46.2589 27.8789 47.6474 26.6119 46.5667 24.6505C45.486 22.6891 45.2457 22.3625 45.2457 22.3625" fill="#404040" stroke="#333333" stroke-width="1.79029" stroke-miterlimit="3.99393"/>
<path d="M7.47817 45.6136L5.92773 46.5088L9.73398 53.1014L11.2844 52.2063L7.47817 45.6136Z" fill="#424242"/>
<path d="M9.41763 44.4945L7.86719 45.3896L11.6734 51.9823L13.2239 51.0871L9.41763 44.4945Z" fill="#424242"/>
<path d="M11.3571 43.3754L9.80664 44.2705L13.6129 50.8631L15.1633 49.968L11.3571 43.3754Z" fill="#424242"/>
<path d="M13.2965 42.2552L11.7461 43.1504L15.5523 49.743L17.1028 48.8479L13.2965 42.2552Z" fill="#424242"/>
<path d="M15.2321 41.1361L13.6816 42.0312L17.4879 48.6239L19.0383 47.7287L15.2321 41.1361Z" fill="#424242"/>
<path d="M17.1735 40.016L15.623 40.9111L19.4293 47.5037L20.9797 46.6086L17.1735 40.016Z" fill="#424242"/>
<path d="M19.111 38.8968L17.5605 39.792L21.3668 46.3846L22.9172 45.4895L19.111 38.8968Z" fill="#424242"/>
<path d="M21.0524 37.7777L19.502 38.6729L23.3082 45.2655L24.8586 44.3703L21.0524 37.7777Z" fill="#424242"/>
<path d="M25.7913 66.5827L39.0965 60.9692L42.1915 82.4504L28.1706 89.5112C28.1706 89.5112 24.3141 89.1007 25.0935 77.0167C25.8728 64.9328 25.7913 66.5827 25.7913 66.5827Z" fill="#525252"/>
<path d="M3.67533 45.7415L71.0365 6.8505C72.0835 6.24598 73.4293 6.60657 74.0338 7.65363L78.3102 15.0606L6.95473 56.2577L2.81264 49.0834C2.07978 47.9036 2.51193 46.4132 3.67533 45.7415Z" stroke="#333333" stroke-width="3.58058" stroke-miterlimit="3.99393"/>
<path d="M34.563 31.4289C35.3562 32.513 36.5406 33.4128 38.08 32.5962L29.5804 37.5061C28.766 37.9763 27.7709 37.7752 27.3903 37.116C26.9873 36.4179 27.3331 35.4944 28.1475 35.0242L33.3828 32.0016C33.6743 31.8333 34.1084 31.6126 34.563 31.4289Z" fill="#4F4F4F" stroke="#333333" stroke-width="1.79029" stroke-miterlimit="3.99393"/>
<path d="M101.104 13.3353L98.7773 14.6787L101.912 20.1079L104.239 18.7645L101.104 13.3353Z" fill="#5C5C5C" stroke="#333333" stroke-width="3.58058" stroke-miterlimit="3.99393"/>
<path d="M104.435 21.341L103.271 22.0127L104.122 23.4863L105.286 22.8146L104.435 21.341Z" fill="#5C5C5C" stroke="#333333" stroke-width="3.58058" stroke-miterlimit="3.99393"/>
<path d="M31.0618 49.6379L32.5743 48.7647L35.0371 53.0305L31.4657 53.0242L31.0618 49.6379Z" fill="#5C5C5C" stroke="#333333" stroke-width="3.58058" stroke-miterlimit="3.99393"/>
<path d="M68.8784 53.9693L68.922 55.0299C68.946 55.4297 69.3638 55.7056 69.7352 55.5429L71.3044 54.9471C71.4208 54.8799 71.5819 54.8903 71.7266 54.9619C72.7113 55.3241 77.2155 56.4982 78.9218 55.513C80.8608 54.3936 74.8371 54.9758 74.8371 54.9758C74.8371 54.9758 74.6392 56.693 70.1773 52.5471C66.0781 48.7607 68.3575 52.9774 68.7829 53.7142C68.8276 53.7917 68.8724 53.8693 68.8784 53.9693Z" fill="#4D4D4D" stroke="#333333" stroke-width="1.79029" stroke-miterlimit="3.99393"/>
<path d="M94.6774 16.5299L93.7218 13.9792L95.1567 13.1508L97.4035 13.8184C97.7094 13.9004 97.7946 14.3166 97.4843 14.4957L94.6774 16.5299Z" fill="#5C5C5C" stroke="#333333" stroke-width="3.58058" stroke-miterlimit="3.99393"/>
<path d="M56.6027 97.4582L56.255 101.692C56.255 101.692 54.9636 103.575 57.1266 102.844C59.2895 102.112 72.1469 95.7227 72.1469 95.7227C72.1469 95.7227 73.4742 94.4393 72.8025 93.2759L71.1009 90.3287L56.6027 97.4582Z" fill="#525252" stroke="#333333" stroke-width="3.58058" stroke-miterlimit="3.99393"/>
<path d="M68.4006 53.0537C68.4006 53.0537 73.7668 58.2286 76.7053 57.0491C79.6438 55.8697 76.5766 55.5723 76.5766 55.5723C76.5766 55.5723 73.5181 54.7528 71.6669 50.6509C69.8157 46.549 68.2206 50.0552 68.2206 50.0552L68.4006 53.0537Z" fill="#4F4F4F" stroke="#333333" stroke-width="1.79029" stroke-miterlimit="3.99393"/>
<path d="M29.4371 52.6448L96.7982 13.7538C97.8453 13.1493 99.191 13.5099 99.7955 14.557L104.072 21.9639L32.7164 63.1611L28.5744 55.9867C27.8415 54.807 28.2736 53.3165 29.4371 52.6448Z" fill="#474747"/>
<path d="M34.8099 61.9521C34.3323 62.2278 32.3716 64.4457 32.797 65.1825C33.2224 65.9193 36.316 64.6503 36.6099 64.5323C37.1215 64.327 47.0114 61.6811 46.2375 81.2078C45.4499 100.174 50.1863 99.8692 50.7024 99.778C50.7412 99.7556 50.7636 99.7944 50.8024 99.772L53.8637 99.9694C53.9248 99.9858 54.0024 99.941 54.0636 99.9574L75.1401 90.7879C75.4339 90.67 75.4875 90.2254 75.2368 90.0599C74.1281 89.3039 71.9824 87.6471 71.3834 85.3559C70.7157 82.5873 71.9086 81.0712 72.2517 80.7698C72.2904 80.7474 72.3292 80.725 72.4068 80.6802C72.6619 80.5847 73.3823 80.2204 71.9486 80.0657C70.3702 79.8395 69.9068 76.7978 69.8888 76.498C69.8888 76.498 69.8664 76.4592 69.9051 76.4368C69.8931 76.2369 69.9255 74.7704 70.8186 73.2724C71.0721 72.8158 71.0197 72.2772 70.6959 71.8954C69.6571 70.6337 67.8064 67.8759 68.8798 65.705C70.1843 63.0387 74.2987 62.7315 74.9983 62.6895L91.2084 53.3306C91.2084 53.3306 92.776 52.3739 92.0747 52.0549L91.3123 51.7194C91.3123 51.7194 91.2899 51.6807 91.2511 51.703C91.084 51.5927 89.6471 50.716 87.341 46.7216C85.0348 42.7273 86.5348 40.3101 86.8659 39.8087C86.8823 39.7475 86.9598 39.7027 86.9986 39.6804L102.045 30.9931C102.239 30.8812 102.344 30.6141 102.209 30.3814C102.097 30.1875 102.14 29.9041 102.373 29.7697L103.537 29.0981C103.73 28.9861 104.014 29.0293 104.148 29.262C104.26 29.4559 104.527 29.5602 104.76 29.4259L105.885 28.7766C105.923 28.7542 105.962 28.7318 106.001 28.7094C106.266 28.4527 107.139 27.2769 106.154 25.5706L104.362 22.4681C104.25 22.2742 103.983 22.1699 103.751 22.3042L34.8099 61.9521ZM85.2162 54.7737L74.7456 60.8189C74.7456 60.8189 69.6585 60.9637 68.3151 58.6369L67.3076 56.8918C67.3076 56.8918 64.7328 52.4321 79.3053 44.5357C79.3053 44.5357 82.1839 42.3567 85.3184 47.7859C88.453 53.2152 85.2162 54.7737 85.2162 54.7737Z" fill="#5C5C5C"/>
<path d="M85.2167 54.7735L74.7461 60.8188C74.7461 60.8188 69.659 60.9636 68.3156 58.6368L67.3081 56.8917C67.3081 56.8917 64.7333 52.432 79.3058 44.5356C79.3058 44.5356 82.1843 42.3566 85.3189 47.7858C88.4535 53.215 85.2167 54.7735 85.2167 54.7735Z" stroke="#333333" stroke-width="1.79029" stroke-miterlimit="3.99393"/>
<path d="M34.8097 61.9519C34.3321 62.2277 32.3713 64.4456 32.7967 65.1824C33.2221 65.9192 36.3158 64.6502 36.6096 64.5322C37.1212 64.3269 47.0112 61.681 46.2372 81.2076C45.4496 100.173 50.1927 99.7534 50.7022 99.7779L53.8634 99.9693C53.9246 99.9857 54.0021 99.9409 54.0633 99.9573L75.1398 90.7878C75.4336 90.6698 75.4872 90.2252 75.2365 90.0597C74.1279 89.3037 71.9821 87.647 71.3831 85.3558C70.7154 82.5872 71.9084 81.0711 72.2514 80.7696C72.2902 80.7472 72.3289 80.7249 72.4065 80.6801C72.6616 80.5845 73.382 80.2203 71.9483 80.0656C70.3699 79.8394 69.9229 76.7365 69.9049 76.4367C69.8929 76.2368 69.9252 74.7703 70.8183 73.2722C71.0718 72.8156 71.0194 72.2771 70.6956 71.8953C69.6569 70.6336 67.8061 67.8758 68.8795 65.7049C70.184 63.0386 74.2984 62.7314 74.998 62.6894L91.2081 53.3305C91.2081 53.3305 92.7757 52.3737 92.0745 52.0547L91.312 51.7193C91.312 51.7193 91.2896 51.6805 91.2509 51.7029C91.0837 51.5926 89.6468 50.7159 87.3407 46.7215C85.0346 42.7272 86.5346 40.3099 86.8656 39.8086C86.882 39.7474 86.9595 39.7026 86.9983 39.6802L102.045 30.993C102.239 30.8811 102.343 30.614 102.209 30.3813C102.097 30.1874 102.14 29.904 102.373 29.7696L103.536 29.0979C103.73 28.986 104.014 29.0292 104.148 29.2618C104.26 29.4557 104.527 29.5601 104.76 29.4257L105.884 28.7764C105.923 28.754 105.962 28.7317 106.001 28.7093C106.266 28.4526 107.138 27.2767 106.153 25.5704L104.362 22.468C104.25 22.2741 103.983 22.1698 103.75 22.3041L34.8097 61.9519Z" stroke="#333333" stroke-width="3.58058" stroke-miterlimit="3.99393"/>
<path d="M34.8097 61.9519C34.3321 62.2277 32.3714 64.4455 32.7968 65.1824C33.2222 65.9192 36.3158 64.6501 36.6096 64.5322C37.1212 64.3268 47.0112 61.681 46.2372 81.2076C45.4496 100.173 50.1927 99.7534 50.7022 99.7778L54.0633 99.9573L75.1398 90.7878C75.4337 90.6698 75.4872 90.2252 75.2365 90.0597C74.1279 89.3037 71.9821 87.647 71.3832 85.3558C70.7154 82.5872 72.0329 80.8958 72.4065 80.6801C72.6616 80.5845 73.382 80.2203 71.9483 80.0656C70.3699 79.8393 69.9229 76.7365 69.9049 76.4367C69.8929 76.2368 69.9252 74.7703 70.8184 73.2722C71.0718 72.8156 71.0194 72.2771 70.6956 71.8953C69.6569 70.6336 67.8061 67.8758 68.8796 65.7048C70.184 63.0385 74.2984 62.7314 74.998 62.6894L91.2081 53.3305C91.2081 53.3305 92.7757 52.3737 92.0745 52.0547L91.2509 51.7029C91.0837 51.5926 89.6468 50.7158 87.3407 46.7215C85.0346 42.7272 86.5346 40.3099 86.8656 39.8086C86.882 39.7474 86.9595 39.7026 86.9983 39.6802L102.045 30.993C102.239 30.8811 102.343 30.614 102.209 30.3813C102.097 30.1874 102.14 29.904 102.373 29.7696L103.536 29.0979C103.73 28.986 104.014 29.0292 104.148 29.2618C104.26 29.4557 104.527 29.5601 104.76 29.4257L105.884 28.7764C105.923 28.754 105.962 28.7317 106.001 28.7093C106.266 28.4526 107.138 27.2767 106.153 25.5704L104.362 22.468C104.25 22.2741 103.983 22.1698 103.75 22.3041L34.8097 61.9519Z" stroke="#333333" stroke-width="3.58058" stroke-miterlimit="3.99393"/>
<path d="M46.4301 58.3466L58.8398 51.1819C59.6929 50.6893 60.794 50.9843 61.2866 51.8375C61.7791 52.6907 61.4841 53.7917 60.6309 54.2843L48.2213 61.449C47.3681 61.9416 46.2671 61.6466 45.7745 60.7934C45.2819 59.9402 45.5769 58.8392 46.4301 58.3466Z" fill="#4D4D4D"/>
<path d="M60.683 67.1797L67.2881 64.9174L66.9066 61.5699L59.9477 62.9506L60.683 67.1797Z" fill="#525252"/>
<path d="M59.1571 36.0559C59.1571 36.0559 60.852 41.2304 63.9544 39.4393L72.0206 34.7822C72.0206 34.7822 73.4091 33.5152 72.3284 31.5538C71.2477 29.5924 71.0074 29.2658 71.0074 29.2658" fill="#404040" stroke="#333333" stroke-width="1.79029" stroke-miterlimit="3.99393"/>
<path d="M33.2399 52.517L31.6895 53.4121L35.4957 60.0047L37.0461 59.1096L33.2399 52.517Z" fill="#424242"/>
<path d="M35.1793 51.3978L33.6289 52.293L37.4352 58.8856L38.9856 57.9904L35.1793 51.3978Z" fill="#424242"/>
<path d="M37.1188 50.2787L35.5684 51.1738L39.3746 57.7664L40.925 56.8713L37.1188 50.2787Z" fill="#424242"/>
<path d="M39.0583 49.1586L37.5078 50.0537L41.3141 56.6463L42.8645 55.7512L39.0583 49.1586Z" fill="#424242"/>
<path d="M40.9938 48.0394L39.4434 48.9346L43.2496 55.5272L44.8 54.632L40.9938 48.0394Z" fill="#424242"/>
<path d="M42.9352 46.9193L41.3848 47.8145L45.191 54.4071L46.7415 53.5119L42.9352 46.9193Z" fill="#424242"/>
<path d="M44.8727 45.8002L43.3223 46.6953L47.1285 53.2879L48.679 52.3928L44.8727 45.8002Z" fill="#424242"/>
<path d="M46.8141 44.681L45.2637 45.5762L49.0699 52.1688L50.6204 51.2736L46.8141 44.681Z" fill="#424242"/>
<path d="M51.553 73.4861L64.8583 67.8726L67.9532 89.3537L53.9323 96.4145C53.9323 96.4145 50.0759 96.004 50.8552 83.9201C51.6345 71.8361 51.553 73.4861 51.553 73.4861Z" fill="#525252"/>
<path d="M29.4371 52.6448L96.7982 13.7538C97.8453 13.1493 99.191 13.5099 99.7955 14.557L104.072 21.9639L32.7164 63.1611L28.5744 55.9867C27.8415 54.807 28.2736 53.3165 29.4371 52.6448Z" stroke="#333333" stroke-width="3.58058" stroke-miterlimit="3.99393"/>
<path d="M60.3247 38.3322C61.1179 39.4163 62.3023 40.3161 63.8417 39.4995L55.3421 44.4094C54.5278 44.8796 53.5326 44.6785 53.152 44.0193C52.749 43.3212 53.0948 42.3977 53.9092 41.9275L59.1445 38.9049C59.436 38.7366 59.8701 38.5159 60.3247 38.3322Z" fill="#4F4F4F" stroke="#333333" stroke-width="1.79029" stroke-miterlimit="3.99393"/>
</g>
<defs>
<clipPath id="clip0_1485_350">
<rect width="110" height="110" fill="white"/>
</clipPath>
</defs>
</svg>
