<svg xmlns="http://www.w3.org/2000/svg" xmlns:xlink="http://www.w3.org/1999/xlink" xml:space="preserve" width="101.658" height="93.729" viewBox="0 0 26.897 24.799"><defs><clipPath id="e" clipPathUnits="userSpaceOnUse"><path fill="#fff" d="M7.1-54.041h116.687V62.646H7.1z" style="stroke-width:1.06079" transform="rotate(30)"/></clipPath><clipPath id="d" clipPathUnits="userSpaceOnUse"><path fill="#fff" d="M7.1-54.041h116.687V62.646H7.1z" style="stroke-width:1.06079" transform="rotate(30)"/></clipPath><clipPath id="c" clipPathUnits="userSpaceOnUse"><path fill="#fff" d="M7.1-54.041h116.687V62.646H7.1z" style="stroke-width:1.06079" transform="rotate(30)"/></clipPath><clipPath id="b" clipPathUnits="userSpaceOnUse"><path fill="#fff" d="M7.1-54.041h116.687V62.646H7.1z" style="stroke-width:1.06079" transform="rotate(30)"/></clipPath><linearGradient id="a"><stop offset=".507" style="stop-color:#3a3a3a;stop-opacity:1"/><stop offset=".507" style="stop-color:#474747;stop-opacity:1"/></linearGradient><linearGradient xlink:href="#a" id="f" x1="22.04" x2="22.036" y1="-58.083" y2="-59.278" gradientTransform="translate(18.873 34.601)scale(.52051)" gradientUnits="userSpaceOnUse"/></defs><path fill="#5c5c5c" stroke="#333" stroke-miterlimit="3.994" stroke-width="4.647" d="M58.666 3.554H56.51v4.02h2.156zM57.728 9.949h-1.584v1.091h1.584z" style="stroke-width:2.11667;stroke-linecap:round;stroke-linejoin:round;stroke-dasharray:none" transform="scale(.47914)rotate(-15 51.54 20.5)"/><path fill="#5c5c5c" stroke="#333" stroke-miterlimit="3.994" stroke-width="4.647" d="M7.183.694h1.12v3.159L6.32 2.703Z" style="stroke-width:1.10175;stroke-linecap:round;stroke-linejoin:round;stroke-dasharray:none" transform="scale(.47914)rotate(-15 51.54 20.5)"/><path fill="#4d4d4d" stroke="#333" stroke-miterlimit="3.994" stroke-width="2.324" d="m26.724 15.713-.316.603c-.115.23.029.517.287.546l1.062.172c.087 0 .173.058.23.144.43.517 2.556 2.613 3.82 2.613 1.435 0-2.097-1.608-2.097-1.608s-.66.89-1.809-2.843c-1.062-3.417-1.149-.345-1.149.2 0 .058 0 .116-.028.173z" style="stroke-width:1.05833;stroke-dasharray:none" transform="scale(.47914)rotate(-15 51.54 20.5)"/><path fill="#5c5c5c" stroke="#333" stroke-miterlimit="3.994" stroke-width="4.647" d="m53.128 2.357.287-1.723h1.062l1.034 1.091a.234.234 0 0 1-.172.402z" style="stroke-width:1.10175;stroke-linecap:round;stroke-linejoin:round;stroke-dasharray:none" transform="scale(.47914)rotate(-15 51.54 20.5)"/><path fill="#525252" stroke="#333" stroke-miterlimit="3.994" stroke-width="4.647" d="m12.673 70.27-2.979 4.303s-2.537 1.214.22 1.766c2.76.552 25.683 1.655 25.683 1.655s2.484-.552 2.484-2.207v-4.192z" clip-path="url(#b)" style="stroke-width:4.06652;stroke-dasharray:none" transform="scale(.2494)rotate(-11.952 113.813 55.362)"/><path fill="#4f4f4f" stroke="#333" stroke-miterlimit="3.994" stroke-width="2.324" d="M26.826 15.124s1.32 4.595 3.33 4.882.402-.861.402-.861-1.435-1.436-1.148-4.308-1.723-1.436-1.723-1.436z" style="stroke-width:1.05833;stroke-dasharray:none" transform="scale(.47914)rotate(-15 51.54 20.5)"/><path fill="#474747" d="M5.32 2.403h49.878a1.41 1.41 0 0 1 1.407 1.407v5.485H3.769V3.983c-.029-.89.69-1.58 1.55-1.58" style="stroke-width:.55211;stroke-dasharray:none" transform="scale(.47914)rotate(-15 51.54 20.5)"/><path fill="#5c5c5c" d="M13.784 18.966c-.68 0-4.137 1.159-4.137 2.207s4.082 1.6 4.468 1.655c.673.096 12.854 3.366 0 23.723C1.592 66.3 6.833 68.894 7.44 69.115c.055 0 .055.055.11.055l3.145 2.096c.055.055.166.055.22.11l28.136 3.2c.386.056.717-.386.551-.717-.717-1.49-1.986-4.579-1.213-7.392.993-3.366 3.2-4.248 3.751-4.359h.22c.332.056 1.325.11-.11-.938-1.544-1.213-.165-4.744 0-5.075 0 0 0-.055.056-.055.11-.22 1.048-1.766 2.923-2.814.552-.33.828-.938.718-1.545-.331-1.986-.607-6.068 1.875-7.723 3.034-2.041 7.613.165 8.386.552h23.06s2.261-.056 1.71-.828l-.607-.827s0-.056-.055-.056c-.11-.22-1.104-2.04-1.104-7.723s3.09-7.338 3.752-7.669c.055-.055.165-.055.22-.055h21.405c.276 0 .552-.22.552-.552 0-.275.22-.551.551-.551h1.655c.276 0 .552.22.552.551 0 .276.22.552.552.552h1.765c.441-.11 2.096-.827 2.097-3.255l-.166-4.579a.553.553 0 0 0-.552-.551zm58.201 23.392H57.09s-5.516-2.98-5.516-6.29v-2.482s0-6.344 20.411-5.793c0 0 4.414-.551 4.414 7.172 0 7.724-4.414 7.393-4.414 7.393" clip-path="url(#c)" style="stroke-width:1.06079" transform="scale(.2494)rotate(-15 96.597 53.486)"/><path stroke="#333" stroke-miterlimit="3.994" stroke-width="1.209" d="M35.611 21.47h-7.753s-2.871-1.55-2.871-3.273v-1.292s0-3.302 10.624-3.015c0 0 2.297-.287 2.297 3.733s-2.297 3.848-2.297 3.848z" style="fill:none" transform="scale(.47914)rotate(-15 51.54 20.5)"/><path fill="#525252" d="m20.372 21.407 1.218.114.118-.557 2.304.23.358-1.726-3.685-.452z" style="fill:#444;fill-opacity:1;stroke:#333;stroke-width:1.05833;stroke-linecap:round;stroke-linejoin:round;stroke-dasharray:none;stroke-opacity:1" transform="scale(.47914)rotate(-15 51.54 20.5)"/><path fill="#404040" d="M27.143 2.72s-.718 3.418 1.58 3.418h5.972s1.177-.259 1.206-1.695 0-1.694 0-1.694" style="stroke-width:1.05833;stroke-dasharray:none" transform="scale(.47914)rotate(-15 51.54 20.5)"/><path stroke="#333" stroke-miterlimit="3.994" stroke-width="2.19" d="M27.143 2.72s-.718 3.418 1.58 3.418h5.972s1.177-.259 1.206-1.695 0-1.694 0-1.694z" style="fill:none;stroke-width:1.05833;stroke-dasharray:none" transform="scale(.47914)rotate(-15 51.54 20.5)"/><path fill="#424242" d="M19.778 3.025h-1.59v6.337h1.59zM8.297 3.025H6.708v6.337h1.59zM10.593 3.025H9.004v6.337h1.59zM12.89 3.025H11.3v6.337h1.59zM15.186 3.025h-1.59v6.337h1.59zM17.482 3.025h-1.59v6.337h1.59z" style="fill:#3d3d3d;fill-opacity:1;stroke:none;stroke-width:1.05833;stroke-dasharray:none;stroke-opacity:1" transform="scale(.47914)rotate(-15 51.54 20.5)"/><path fill="#525252" d="m24.54 41.588 15.887 2.6-8.164 24.433-19.309-1.104s-3.862-2.813 4.413-15.226 7.172-10.703 7.172-10.703" clip-path="url(#d)" style="fill:#4e4e4e;fill-opacity:1;stroke:none;stroke-width:1.06071;stroke-linecap:round;stroke-linejoin:round;stroke-dasharray:none;stroke-opacity:1" transform="scale(.2494)rotate(-15 96.597 53.486)"/><path fill="#424242" d="M53.669 2.689h-1.59v6.336h1.59zM42.188 2.689H40.6v6.336h1.59zM44.485 2.689h-1.59v6.336h1.59zM46.78 2.689h-1.589v6.336h1.59zM49.077 2.689h-1.59v6.336h1.59zM51.373 2.689h-1.59v6.336h1.59z" style="fill:#3d3d3d;fill-opacity:1;stroke:none;stroke-width:1.05833;stroke-dasharray:none;stroke-opacity:1" transform="scale(.47914)rotate(-15 51.54 20.5)"/><path stroke="#333" stroke-miterlimit="3.994" stroke-width="4.647" d="M5.32 2.403h49.878a1.41 1.41 0 0 1 1.407 1.407v5.485H3.769V3.983c-.029-.89.69-1.58 1.55-1.58" style="fill:none;stroke-width:2.11667;stroke-linecap:round;stroke-linejoin:round;stroke-dasharray:none" transform="scale(.47914)rotate(-15 51.54 20.5)"/><path fill="#4f4f4f" stroke="#333" stroke-miterlimit="3.994" stroke-width="2.19" d="M27.063 4.358c.093.857.462 1.736 1.578 1.776l-6.294.002c-.603 0-1.091-.431-1.091-.92 0-.516.488-.918 1.091-.918h3.877c.215 0 .527.017.839.06z" style="stroke-width:1.05833;stroke-dasharray:none" transform="scale(.47914)rotate(-15 51.54 20.5)"/><path stroke="#333" stroke-miterlimit="3.994" stroke-width="4.647" d="M9.647 21.173c0-1.048 3.458-2.206 4.137-2.207h97.811c.331 0 .552.276.552.552l.166 4.58c0 2.427-1.656 3.144-2.097 3.254h-1.765a.553.553 0 0 1-.552-.552.553.553 0 0 0-.552-.551h-1.655a.553.553 0 0 0-.551.551.553.553 0 0 1-.552.552H83.871c-4.972 1.41-4.69 12.678-2.01 16.33.55.772-2.594 1.318-2.594 1.318H56.012c-.773-.386-3.477-2.42-8.19-1.042-2.482 1.655-3.316 4.49-1.875 7.723a1.48 1.48 0 0 1-.718 1.545c-1.875 1.048-2.813 2.593-2.923 2.814-.056 0-.056.055-.056.055-.165.331-1.544 3.862 0 5.075.88 1.049-.526 2.187-.526 2.187-.552.11-2.758.993-3.751 4.358-.773 2.814.912 4.655 1.63 6.144.165.331-.166.773-.552.718-13.475-2.145-24.638-1.58-31.5-5.407-6-3.824 4.593-19.325 6.564-22.62 12.854-20.356.673-23.626 0-23.722-.386-.055-4.468-.607-4.468-1.655" clip-path="url(#e)" style="fill:none;stroke-width:4.06652;stroke-linecap:round;stroke-linejoin:round;stroke-dasharray:none" transform="scale(.2494)rotate(-15 96.597 53.486)"/><path d="m40.782 13.334.869-2.118h14.47s-.006 1.805-.814 2.022-1.152 0-1.152 0l-.488-.36H52.7l-.51.38z" style="fill:#474747;fill-opacity:1;fill-rule:evenodd;stroke:#333;stroke-width:1.05833;stroke-linecap:round;stroke-linejoin:round;stroke-miterlimit:29;stroke-dasharray:none;stroke-opacity:1" transform="scale(.47914)rotate(-15 51.54 20.5)"/><path d="m27.443 10.417-.715 4.014s1.353-.587 3.114-.868c0 0 .99-.966.99-3.14z" style="fill:#525252;fill-opacity:1;fill-rule:evenodd;stroke:none;stroke-width:.550872;stroke-linecap:round;stroke-linejoin:round;stroke-miterlimit:29;stroke-dasharray:none;stroke-opacity:1" transform="scale(.47914)rotate(-15 51.54 20.5)"/><path d="M30.053 2.974h1.735v2.118h-1.735z" style="fill:url(#f);fill-rule:evenodd;stroke:#333;stroke-width:1.05833;stroke-linecap:round;stroke-linejoin:round;stroke-miterlimit:29;stroke-dasharray:none;stroke-opacity:1" transform="matrix(.47913 .0025 -.0025 .47913 -1.7 6.726)"/><path d="M47.223-6.219h1.387v2.296h-1.387zM48.92-6.219h1.387v2.296H48.92zM50.617-6.219h1.387v2.296h-1.387zM52.314-6.219h1.387v2.296h-1.387zM54.011-6.219h1.387v2.296h-1.387zM55.708-6.219h1.387v2.296h-1.387zM57.405-6.219h1.387v2.296h-1.387z" style="fill:#565656;fill-opacity:1;fill-rule:evenodd;stroke:none;stroke-width:.729883;stroke-linecap:round;stroke-linejoin:round;stroke-miterlimit:29;stroke-dasharray:none;stroke-opacity:1" transform="scale(.2494)rotate(-15 169.826 1.228)"/><path d="M15.685 9.602v1.372s.108.559.56.559h1.497s.587-.108.587-.586V9.602Z" style="fill:#464646;fill-opacity:1;fill-rule:evenodd;stroke:#333;stroke-width:1.05833;stroke-linecap:round;stroke-linejoin:round;stroke-miterlimit:29;stroke-dasharray:none;stroke-opacity:1" transform="scale(.47914)rotate(-15 51.54 20.5)"/><path d="m14.967 11.579.96.613h2.147l.972-.541v1.782h-4.079z" style="fill:#4d4d4d;fill-opacity:1;fill-rule:evenodd;stroke:#333;stroke-width:1.05833;stroke-linecap:round;stroke-linejoin:round;stroke-miterlimit:29;stroke-dasharray:none;stroke-opacity:1" transform="scale(.47914)rotate(-15 51.54 20.5)"/><path d="M34.632 21.594h3.084v.369h-3.084zM34.632 21.092h3.084v.369h-3.084zM34.632 20.59h3.084v.369h-3.084z" style="fill:#393939;fill-opacity:1;fill-rule:evenodd;stroke:none;stroke-width:.417783;stroke-linecap:round;stroke-linejoin:round;stroke-miterlimit:29;stroke-dasharray:none;stroke-opacity:1" transform="scale(.24486)rotate(-15 99.926 51.483)"/><ellipse cx="35.504" cy="25.84" rx="7.35" ry="2.912" style="fill:#505050;fill-opacity:1;fill-rule:evenodd;stroke:none;stroke-width:1.05833;stroke-linecap:round;stroke-linejoin:round;stroke-miterlimit:29;stroke-dasharray:none;stroke-opacity:1" transform="rotate(-8.6 45.3 31.069)scale(.30181)"/></svg>