<svg width="111" height="110" viewBox="0 0 111 110" fill="none" xmlns="http://www.w3.org/2000/svg">
<g clip-path="url(#clip0_619_1202)">
<rect width="110" height="110" transform="translate(0.0175781)" fill="white" fill-opacity="0.01"/>
<path d="M91.9618 1.92748L89.2246 3.50781L92.9118 9.89424L95.649 8.3139L91.9618 1.92748Z" fill="#5C5C5C" stroke="#333333" stroke-width="2.10704" stroke-miterlimit="3.99393"/>
<path d="M95.8764 11.3446L94.5078 12.1348L95.5086 13.8682L96.8772 13.0781L95.8764 11.3446Z" fill="#5C5C5C" stroke="#333333" stroke-width="2.10704" stroke-miterlimit="3.99393"/>
<path d="M9.5522 44.6346L11.3314 43.6074L14.2285 48.6253L10.0272 48.618L9.5522 44.6346Z" fill="#5C5C5C" stroke="#333333" stroke-width="2.10704" stroke-miterlimit="3.99393"/>
<path d="M54.0358 49.7256L54.087 50.9733C54.1153 51.4436 54.6067 51.7681 55.0436 51.5766L56.8896 50.8758C57.0265 50.7968 57.216 50.809 57.3863 50.8932C58.5446 51.3192 63.8432 52.7002 65.8505 51.5413C68.1315 50.2243 61.0453 50.9094 61.0453 50.9094C61.0453 50.9094 60.8125 52.9294 55.5638 48.0527C50.7418 43.5988 53.423 48.5588 53.9234 49.4256C53.9761 49.5168 54.0287 49.608 54.0358 49.7256Z" fill="#4D4D4D" stroke="#333333" stroke-width="1.053" stroke-miterlimit="3.99393"/>
<path d="M84.3771 5.69407L83.2531 2.69364L84.941 1.7191L87.5842 2.50436C87.944 2.60076 88.0441 3.09033 87.6792 3.30104C87.7248 3.2747 84.3771 5.69407 84.3771 5.69407Z" fill="#5C5C5C" stroke="#333333" stroke-width="2.10704" stroke-miterlimit="3.99393"/>
<path d="M39.6022 100.886L39.193 105.866C39.193 105.866 37.6739 108.081 40.2183 107.22C42.7626 106.36 57.8879 98.8435 57.8879 98.8435C57.8879 98.8435 59.4493 97.3338 58.6592 95.9653L56.6576 92.4983L39.6022 100.886Z" fill="#5C5C5C" stroke="#333333" stroke-width="2.10704" stroke-miterlimit="3.99393"/>
<path d="M53.4719 48.6598C53.4719 48.6598 59.7844 54.747 63.2412 53.3594C66.698 51.9719 63.0898 51.6222 63.0898 51.6222C63.0898 51.6222 59.4919 50.6582 57.3144 45.8331C55.1369 41.008 53.2603 45.1326 53.2603 45.1326L53.4719 48.6598Z" fill="#5C5C5C" stroke="#333333" stroke-width="1.053" stroke-miterlimit="3.99393"/>
<path d="M7.64646 48.1863L86.8889 2.43565C88.1207 1.7245 89.7037 2.14862 90.4148 3.38029L95.4452 12.0932L11.5039 60.5568L6.63151 52.1176C5.76944 50.7298 6.27785 48.9765 7.64646 48.1863Z" fill="#474747"/>
<path d="M13.965 59.1245C13.4032 59.4489 11.0966 62.0579 11.597 62.9246C12.0974 63.7913 15.7366 62.2984 16.0823 62.1597C16.6841 61.9181 28.3184 58.8054 27.4073 81.7751C26.4802 104.085 32.052 103.727 32.6591 103.62C32.7048 103.593 32.7311 103.639 32.7767 103.613L36.3779 103.845C36.4499 103.864 36.5411 103.811 36.6131 103.831L61.407 93.0435C61.7526 92.9048 61.8157 92.3818 61.5208 92.1871C60.2166 91.2979 57.6925 89.3491 56.988 86.6539C56.2026 83.3971 57.606 81.6137 58.0095 81.259C58.0551 81.2327 58.1007 81.2064 58.192 81.1537C58.492 81.0413 59.3395 80.6128 57.653 80.4309C55.7962 80.1648 55.2512 76.5868 55.23 76.2341C55.23 76.2341 55.2037 76.1885 55.2493 76.1621C55.2352 75.927 55.2733 74.2019 56.324 72.4397C56.6221 71.9026 56.5605 71.2691 56.1796 70.82C54.9577 69.3358 52.7807 66.0918 54.0435 63.538C55.5781 60.4016 60.4181 60.0401 61.2411 59.9907L80.3104 48.981C80.3104 48.981 82.1545 47.8555 81.3296 47.4803L80.4327 47.0857C80.4327 47.0857 80.4064 47.0401 80.3607 47.0665C80.1642 46.9367 78.4739 45.9054 75.7611 41.2068C73.0484 36.5082 74.813 33.6647 75.2025 33.075C75.2217 33.003 75.313 32.9503 75.3586 32.924L93.0593 22.7045C93.2874 22.5728 93.4101 22.2587 93.2521 21.9849C93.1204 21.7569 93.1712 21.4234 93.4449 21.2654L94.8135 20.4752C95.0417 20.3435 95.3751 20.3943 95.5331 20.668C95.6648 20.8961 95.979 21.0188 96.2527 20.8608L97.5757 20.097C97.6213 20.0706 97.6669 20.0443 97.7125 20.0179C98.0248 19.716 99.0511 18.3328 97.8922 16.3256L95.7853 12.6763C95.6536 12.4482 95.3394 12.3254 95.0657 12.4835L13.965 59.1245ZM73.2614 50.6787L60.9439 57.7902C60.9439 57.7902 54.9597 57.9608 53.3794 55.2237L52.1943 53.1709C52.1943 53.1709 49.1655 47.925 66.3084 38.6357C66.3084 38.6357 69.6946 36.0724 73.3818 42.4589C77.069 48.8453 73.2614 50.6787 73.2614 50.6787Z" fill="#5C5C5C"/>
<path d="M61.0142 60.0558C61.0862 60.0751 61.1774 60.0224 61.223 59.9961M73.2433 50.6841L60.9258 57.7956C60.9258 57.7956 54.9416 57.9661 53.3613 55.2291L52.1762 53.1763C52.1762 53.1763 49.1474 47.9303 66.2903 38.6411C66.2903 38.6411 69.6765 36.0778 73.3637 42.4643C77.0509 48.8507 73.2433 50.6841 73.2433 50.6841Z" stroke="#333333" stroke-width="1.053" stroke-miterlimit="3.99393"/>
<path d="M13.965 59.1245C13.4032 59.4489 11.0966 62.0579 11.597 62.9246C12.0974 63.7913 15.7366 62.2984 16.0823 62.1597C16.6841 61.9181 28.3184 58.8054 27.4073 81.7751C26.4802 104.085 32.052 103.727 32.6591 103.62C32.7048 103.593 32.7311 103.639 32.7767 103.613L36.3779 103.845C36.4499 103.864 36.5411 103.811 36.6131 103.831L61.407 93.0435C61.7526 92.9048 61.8157 92.3818 61.5208 92.1871C60.2166 91.2979 57.6925 89.3491 56.988 86.6539C56.2026 83.3971 57.606 81.6137 58.0095 81.259C58.0551 81.2327 58.1007 81.2064 58.192 81.1537C58.492 81.0413 59.3395 80.6128 57.653 80.4309C55.7962 80.1648 55.2512 76.5868 55.23 76.2341C55.23 76.2341 55.2037 76.1885 55.2493 76.1621C55.2352 75.927 55.2733 74.2019 56.324 72.4397C56.6221 71.9026 56.5605 71.2691 56.1796 70.82C54.9577 69.3358 52.7807 66.0918 54.0435 63.538C55.5781 60.4016 60.4181 60.0401 61.2411 59.9907L80.3104 48.981C80.3104 48.981 82.1545 47.8555 81.3296 47.4803L80.4327 47.0857C80.4327 47.0857 80.4064 47.0401 80.3607 47.0665C80.1642 46.9367 78.4739 45.9054 75.7611 41.2068C73.0484 36.5082 74.813 33.6647 75.2025 33.075C75.2217 33.003 75.313 32.9503 75.3586 32.924L93.0593 22.7045C93.2874 22.5728 93.4101 22.2587 93.2521 21.9849C93.1204 21.7569 93.1712 21.4234 93.4449 21.2654L94.8135 20.4752C95.0417 20.3435 95.3751 20.3943 95.5331 20.668C95.6648 20.8961 95.979 21.0188 96.2527 20.8608L97.5757 20.097C97.6213 20.0706 97.6669 20.0443 97.7125 20.0179C98.0248 19.716 99.0511 18.3328 97.8922 16.3256L95.7853 12.6763C95.6536 12.4482 95.3394 12.3254 95.0657 12.4835L13.965 59.1245Z" stroke="#333333" stroke-width="2.10704" stroke-miterlimit="3.99393"/>
<path d="M27.6315 54.8781L42.23 46.4496C43.2336 45.8702 44.5288 46.2172 45.1082 47.2208C45.6877 48.2244 45.3406 49.5196 44.3369 50.099L29.7384 58.5275C28.7348 59.1069 27.4395 58.7599 26.8601 57.7563C26.2807 56.7528 26.6278 55.4575 27.6315 54.8781Z" fill="#4D4D4D"/>
<path d="M44.3996 65.2725L52.1697 62.6112L51.721 58.6735L43.5348 60.2978L44.3996 65.2725Z" fill="#525252"/>
<path d="M42.5925 28.6731C42.5925 28.6731 44.5862 34.76 48.2358 32.6529L57.7248 27.1744C57.7248 27.1744 59.3582 25.684 58.087 23.3768C56.8157 21.0696 56.5331 20.6854 56.5331 20.6854" fill="#404040" stroke="#333333" stroke-width="1.053" stroke-miterlimit="3.99393"/>
<path d="M12.1149 48.0231L10.291 49.0762L14.7683 56.8311L16.5922 55.7781L12.1149 48.0231Z" fill="#424242"/>
<path d="M14.402 46.7067L12.5781 47.7598L17.0554 55.5147L18.8794 54.4617L14.402 46.7067Z" fill="#424242"/>
<path d="M16.6774 45.3893L14.8535 46.4424L19.3308 54.1973L21.1547 53.1443L16.6774 45.3893Z" fill="#424242"/>
<path d="M18.9645 44.072L17.1406 45.125L21.6179 52.8799L23.4419 51.8269L18.9645 44.072Z" fill="#424242"/>
<path d="M21.2497 42.7556L19.4258 43.8086L23.9031 51.5635L25.727 50.5105L21.2497 42.7556Z" fill="#424242"/>
<path d="M23.5251 41.4382L21.7012 42.4912L26.1785 50.2462L28.0024 49.1931L23.5251 41.4382Z" fill="#424242"/>
<path d="M25.8102 40.1218L23.9863 41.1748L28.4636 48.9297L30.2876 47.8767L25.8102 40.1218Z" fill="#424242"/>
<path d="M28.0876 38.8044L26.2637 39.8574L30.741 47.6124L32.5649 46.5593L28.0876 38.8044Z" fill="#424242"/>
<path d="M33.6693 72.694L49.3212 66.0902L52.9613 91.359L36.4675 99.6653C36.4675 99.6653 31.9308 99.1825 32.848 84.9678C33.7652 70.7531 33.6693 72.694 33.6693 72.694Z" fill="#525252"/>
<path d="M7.64646 48.1863L86.8889 2.43565C88.1207 1.7245 89.7037 2.14862 90.4148 3.38029L95.4452 12.0932L11.5039 60.5568L6.63151 52.1176C5.76944 50.7298 6.27785 48.9765 7.64646 48.1863Z" stroke="#333333" stroke-width="2.10704" stroke-miterlimit="3.99393"/>
<path d="M43.9818 31.3409C44.9149 32.6162 46.3081 33.6746 48.1191 32.714L48.1213 32.7158L38.1203 38.4899C37.1623 39.043 35.9917 38.8065 35.544 38.031C35.0699 37.2099 35.4767 36.1235 36.4347 35.5704L42.5935 32.0147C42.9364 31.8167 43.447 31.5571 43.9818 31.3409Z" fill="#4F4F4F" stroke="#333333" stroke-width="1.05352" stroke-miterlimit="3.99393"/>
</g>
<defs>
<clipPath id="clip0_619_1202">
<rect width="110" height="110" fill="white" transform="translate(0.0175781)"/>
</clipPath>
</defs>
</svg>
