<?xml version="1.0" encoding="UTF-8" standalone="no"?>
<!-- Generator: Adobe Illustrator 27.0.0, SVG Export Plug-In . SVG Version: 6.00 Build 0)  -->

<svg
   version="1.1"
   id="Layer_1"
   x="0px"
   y="0px"
   viewBox="0 0 59.308987 15.5"
   xml:space="preserve"
   sodipodi:docname="g19_world.svg"
   width="59.308987"
   height="15.5"
   inkscape:version="1.3 (0e150ed6c4, 2023-07-21)"
   xmlns:inkscape="http://www.inkscape.org/namespaces/inkscape"
   xmlns:sodipodi="http://sodipodi.sourceforge.net/DTD/sodipodi-0.dtd"
   xmlns="http://www.w3.org/2000/svg"
   xmlns:svg="http://www.w3.org/2000/svg"><defs
   id="defs1" /><sodipodi:namedview
   id="namedview1"
   pagecolor="#505050"
   bordercolor="#eeeeee"
   borderopacity="1"
   inkscape:showpageshadow="0"
   inkscape:pageopacity="0"
   inkscape:pagecheckerboard="0"
   inkscape:deskcolor="#505050"
   inkscape:zoom="1.7234375"
   inkscape:cx="23.499547"
   inkscape:cy="2.6110607"
   inkscape:window-width="1920"
   inkscape:window-height="1009"
   inkscape:window-x="1912"
   inkscape:window-y="-8"
   inkscape:window-maximized="1"
   inkscape:current-layer="Layer_1" />&#10;<style
   type="text/css"
   id="style1">&#10;	.st0{fill:#474747;stroke:#171717;stroke-width:3;}&#10;	.st1{fill:#252525;}&#10;	.st2{fill:#787878;stroke:#171717;stroke-width:1.3238;}&#10;	.st3{fill:#787878;}&#10;	.st4{fill:#252525;stroke:#171717;stroke-width:3;}&#10;	.st5{fill:#787878;stroke:#171717;stroke-width:3;}&#10;	.st6{fill:#FF3700;}&#10;	.st7{fill:#474747;stroke:#171717;stroke-width:1.3238;}&#10;</style>&#10;<path
   id="rect2_00000098931913707348489870000011831891576008535477_"
   class="st0"
   d="m 57.808987,5 v 5.5 c 0,0.4 -0.3,0.7 -0.6,0.7 h -31.5 c -0.3,0 -0.6,-0.3 -0.6,-0.7 V 5 c 0,-0.4 0.3,-0.7 0.6,-0.7 h 31.4 c 0.4,0 0.7,0.3 0.7,0.7 z" />&#10;<path
   id="path4_00000039833462700447381230000016899295656883885752_"
   class="st0"
   d="M 28.708987,2.9" />&#10;<path
   id="path4_00000083049759251064411250000014739646383967781261_"
   class="st0"
   d="M 28.808987,12.7 H 2.7089868 l -1.1,-1.2 -0.1,-7.3 1.4,-1.3 H 28.908987" />&#10;<path
   id="path4_00000179604590528550899020000008450383865451189408_"
   class="st0"
   d="m 28.708987,2.9 h 25.8 l 1.3,1.3 v 7.2 l -1.2,1.3 h -25.8" />&#10;<path
   id="path6_00000014613135306451555520000001035406582318694301_"
   class="st1"
   d="m 53.508987,8.7 -0.3,0.4 h -2.9 l -0.3,-0.3 V 6.9 l 0.3,-0.3 h 2.9 l 0.3,0.3 z" />&#10;<path
   id="path8_00000032626762698619728780000001620870155874979240_"
   class="st2"
   d="m 9.7089868,8.6 -0.3,0.4 h -2.1 l -0.3,-0.3 v -5 l 0.4,-0.4 h 2 l 0.4,0.3 z" />&#10;<path
   id="rect10_00000028314281632801812650000007838970393212335291_"
   class="st1"
   d="m 47.708987,6.9 v 1.9 c 0,0.4 -0.3,0.7 -0.6,0.7 h -5.5 c -0.3,0 -0.6,-0.3 -0.6,-0.7 V 6.9 c 0,-0.4 0.3,-0.7 0.6,-0.7 h 5.5 c 0.3,0.1 0.6,0.4 0.6,0.7 z" />&#10;<path
   id="path12_00000029756203842183479520000010092293194071344538_"
   class="st3"
   d="m 38.808987,6.2 v 3.3 c 0,0.5 -0.2,0.9 -0.5,0.9 h -4.6 c -0.3,0 -0.5,-0.4 -0.5,-0.9 h -1.3 c 0,0 -0.2,0 -0.2,-0.1 -0.1,-0.1 0,-0.4 0,-0.4 V 6.9 c 0,0 0,-0.3 0.1,-0.5 0.1,-0.1 0.2,-0.1 0.2,-0.1 h 1.3 c 0,-0.5 0.2,-0.9 0.5,-0.9 h 4.6 c 0.2,-0.1 0.4,0.3 0.4,0.8 z" />&#10;<path
   class="st4"
   d="m 20.308987,2.5 h -5 v 10.4 h 5 c 0,0 0.4,1.1 1.7,1.1 1.1,0 1.7,-1.1 1.7,-1.1 h 4.2 V 2.5 h -4.3 c 0,0 -0.4,-1 -1.7,-1 -1.2,0 -1.6,1 -1.6,1 z"
   id="path1" />&#10;<ellipse
   id="ellipse16_00000128469624152057504860000007179575873537554060_"
   class="st5"
   cx="21.908998"
   cy="3.1999969"
   rx="0.80000001"
   ry="0.69999999" />&#10;<ellipse
   id="ellipse18_00000157999762338354057030000007491133161121001119_"
   class="st5"
   cx="22.008974"
   cy="12"
   rx="0.80000001"
   ry="0.69999999" />&#10;<path
   id="rect20_00000092428816184255342270000004226610925956813698_"
   class="st6"
   d="m 50.708987,7.2 v 1.1 c 0,0.8 -0.4,1.5 -0.9,1.5 v 0 c -0.5,0 -0.9,-0.7 -0.9,-1.5 V 7.2 c 0,-0.8 0.4,-1.5 0.9,-1.5 v 0 c 0.5,0.1 0.9,0.7 0.9,1.5 z" />&#10;<path
   id="path22_00000022560274955323062600000017632622851091949206_"
   class="st7"
   d="m 10.708987,6.8 -0.3,0.4 H 6.2089868 l -0.3,-0.3 V 5.6 l 0.4,-0.4 h 4.1000002 l 0.4,0.3 z" />&#10;</svg>
