<svg width="111" height="110" viewBox="0 0 111 110" fill="none" xmlns="http://www.w3.org/2000/svg">
<g clip-path="url(#clip0_619_1194)">
<path fill-rule="evenodd" clip-rule="evenodd" d="M102.334 19.7518L89.1769 27.2865C88.7311 27.2225 88.2619 27.2135 87.8236 27.2767C86.4499 27.4746 85.6882 27.7921 84.5188 28.2795C84.4242 28.3189 84.3268 28.3595 84.2263 28.4012L58.474 43.3551L58.5243 43.4423L58.184 43.6388C58.1439 43.6619 58.1143 43.6894 58.0977 43.723C57.8665 43.3724 57.4254 42.7306 57.0508 42.293L101.069 17.5607L101.579 17.0772L107.787 13.4926C107.957 13.3947 108.637 13.4216 109.173 14.3506C109.71 15.2796 109.386 15.8747 109.218 15.9715L103.01 19.5561L102.334 19.7518ZM107.357 16.012C108.098 15.5842 108.584 15.0384 108.442 14.7929C108.301 14.5474 107.585 14.6953 106.844 15.1231C106.103 15.5509 105.617 16.0967 105.759 16.3421C105.901 16.5876 106.616 16.4398 107.357 16.012ZM107.938 13.9186C108.008 14.0408 107.465 14.4866 106.724 14.9144C105.983 15.3422 105.325 15.59 105.254 15.4679C105.184 15.3457 105.727 14.8999 106.468 14.4721C107.209 14.0443 107.867 13.7965 107.938 13.9186ZM107.733 16.663C108.474 16.2352 109.018 15.7894 108.947 15.6672C108.877 15.5451 108.219 15.7928 107.478 16.2207C106.737 16.6485 106.193 17.0943 106.264 17.2165C106.334 17.3386 106.992 17.0908 107.733 16.663Z" fill="#3E3B38"/>
<rect x="38.0762" y="52.041" width="20.143" height="0.759864" transform="rotate(-30 38.0762 52.041)" fill="#3E3B38" stroke="#38332E" stroke-width="0.496968" stroke-miterlimit="3.99393"/>
<path fill-rule="evenodd" clip-rule="evenodd" d="M38.4255 52.6432C36.6501 54.0146 35.799 54.8844 34.5888 56.6496L35.5472 57.8674L38.0713 60.4014L38.3149 60.6035L45.2448 56.5366C45.784 56.2054 46.1299 56.1137 46.8014 56.0684L60.5517 47.9856C60.4956 47.8724 60.4323 47.7507 60.3611 47.6176L58.2518 43.9642C58.1708 43.8239 57.0859 42.1607 56.6151 41.8739L38.4255 52.6432ZM46.7823 48.962C46.7575 48.7508 46.7874 48.4423 47.0014 48.3187L54.236 44.1419C54.45 44.0183 54.7237 44.0916 54.8473 44.3057L55.8431 46.0304C55.9667 46.2444 55.8933 46.5182 55.6793 46.6417L47.6147 51.2978C47.511 51.3577 47.4208 51.3555 47.313 51.3294L42.8376 53.9133C42.6236 54.0369 42.3498 53.9635 42.2262 53.7494C42.1027 53.5354 42.176 53.2617 42.3901 53.1381L46.5033 50.7633C46.6123 50.7003 46.8853 50.199 46.8777 49.8281L46.7823 48.962Z" fill="#4B4744"/>
<path d="M12.1678 93.9274L12.2576 93.7676C12.5861 93.768 12.766 93.5351 13.0241 93.2012L13.0402 93.1802C12.7139 93.173 12.4753 93.1383 12.3821 93.0367C11.9212 92.5611 11.4874 92.117 11.0762 91.696L11.0761 91.6959C7.87596 88.4199 6.0467 86.5473 3.49658 82.1303C3.14165 81.5156 3.20331 80.696 3.81322 80.4715C3.72204 80.2981 3.55786 80.1358 3.34433 80.2026C2.82761 80.3642 2.44678 80.6172 2.03916 81.1C2.03916 81.1 2.04608 81.1109 2.05945 81.1319C2.04618 81.111 2.0393 81.1002 2.0393 81.1002C1.29445 81.6748 0.963311 82.7855 1.39299 83.3477L1.89649 84.0152C2.09857 84.1287 2.16659 84.2244 2.22044 84.4447L2.74624 85.1417C2.96423 85.2545 3.0488 85.3541 3.10911 85.6228L3.60694 86.2828C3.84516 86.3572 3.9642 86.4259 3.98191 86.7272L4.44092 87.3696C4.74738 87.4188 4.85152 87.5077 4.82191 87.795L5.34728 88.5039C5.56679 88.5571 5.62944 88.6263 5.59713 88.8411L6.17838 89.6254C6.36296 89.6921 6.45322 89.7493 6.47019 89.9727L7.06273 90.7831C7.27172 90.857 7.32974 90.9529 7.3598 91.1894L7.88929 91.9136C8.03519 92.0057 8.09831 92.0734 8.12772 92.2641L8.67924 93.0435C8.87133 93.1305 8.93808 93.2156 8.99007 93.4192L9.45053 94.0024C9.89771 94.5534 10.6121 94.8042 11.2545 94.4548L12.1678 93.9274Z" fill="#433D37"/>
<path d="M3.49834 82.1309C3.14341 81.5162 3.20507 80.6966 3.81498 80.4721L7.08481 77.938C7.08923 77.7845 7.13629 77.6607 7.29944 77.5207L24.6395 64.0375C24.8365 63.8866 24.9103 63.8461 25.1469 63.7751C25.3673 63.709 25.5321 63.6163 25.7284 63.4631L29.6604 60.3788C29.7417 60.3174 29.7753 60.3045 29.8155 60.3517C29.802 60.5271 29.8109 60.6371 29.848 60.8467L31.4317 65.4821C31.6182 66.0184 31.7996 66.1692 32.1131 66.3115C30.5553 67.5401 29.8151 68.3503 28.7564 70.0222L24.5566 76.5713C24.3327 76.8741 24.203 77.0452 23.9608 77.3566L13.3524 88.7344C13.1313 88.9988 13.0916 89.1615 13.1925 89.4852L13.8075 91.1756C13.9456 91.554 13.9085 91.8854 13.7242 92.2079L13.1894 92.8738C13.185 93.026 13.1446 93.0883 13.042 93.1808C12.7157 93.1736 12.477 93.1389 12.3839 93.0373C8.33595 88.8598 6.37617 87.1155 3.49834 82.1309Z" fill="#49423B"/>
<path d="M35.5483 57.8677L38.0723 60.4017L39.3684 61.4769C40.4459 61.5815 40.9826 61.7698 41.7555 62.4624C41.5905 62.589 41.5682 62.6598 41.6216 62.7522C41.6574 62.8143 41.4866 63.0293 41.4488 63.0756C41.1119 63.4887 40.8071 64.0492 40.6628 64.6325C40.4985 65.2966 40.5243 65.9775 40.6301 66.2754C40.6944 66.4564 40.6976 66.5709 40.6718 66.7733C40.6362 67.0532 40.7767 67.5826 40.9463 68.0645L40.9522 68.081C40.9982 68.2116 41.018 68.2675 41.0018 68.3972C40.9698 68.6538 41.1127 69.1406 41.3232 69.5886C41.3888 69.7281 41.3983 69.8073 41.3895 69.9597C41.3684 70.3245 41.5126 70.702 41.7458 71.1433C41.8244 71.2922 41.8548 71.3732 41.8549 71.5604C41.8551 71.7476 41.9124 71.9913 41.9857 72.1182C41.9857 72.1182 42.4972 72.9861 42.8353 73.4296C43.1006 73.7776 43.7202 74.051 44.0125 74.1539C44.0966 74.1835 44.1262 74.2013 44.1469 74.2489C44.21 74.394 44.0578 74.6437 43.9166 74.7431C43.6173 74.9537 41.354 76.1153 39.8796 76.8719C39.224 77.2084 38.7244 77.4648 38.6228 77.5219C38.293 77.7075 37.155 78.2956 36.8192 78.0687C36.6781 77.9734 36.456 77.035 36.4604 76.984C36.4631 76.952 36.4659 76.9212 36.4685 76.8914C36.4993 76.5456 36.5171 76.346 36.3686 75.9773C36.326 75.8714 36.2475 75.7553 36.1848 75.6625C36.1308 75.5825 36.0884 75.5198 36.0904 75.4955C36.1082 75.2845 36.0781 74.4912 35.8321 73.9119C35.7775 73.7832 35.7867 73.7111 35.8081 73.5969C35.8572 73.3338 35.8493 72.8252 35.7392 72.3703C35.7363 72.3583 35.7333 72.3473 35.7304 72.3367C35.7143 72.2768 35.7031 72.2353 35.7415 72.1528C35.802 72.0224 35.7509 71.8431 35.6991 71.6617C35.6925 71.6385 35.6859 71.6152 35.6794 71.5919L35.6751 71.5763C35.6576 71.5134 35.6553 71.5051 35.6624 71.4465C35.7161 71.009 35.7077 70.7237 35.5987 70.3447C35.5587 70.2059 35.5438 70.136 35.5757 69.9622C35.6927 69.3257 35.7144 68.9628 35.6301 68.2986C35.6208 67.2611 35.1627 66.6095 34.44 66.2374C33.7173 65.8653 32.8868 65.7559 32.1129 66.3111C31.7994 66.1688 31.618 66.0179 31.4314 65.4817L29.8478 60.8463C29.8106 60.6367 29.8018 60.5267 29.8152 60.3513C29.7751 60.3041 29.8928 60.1559 29.9711 60.0909L34.4302 56.5961C34.4819 56.5559 34.5165 56.5624 34.5662 56.62L35.5483 57.8677Z" fill="#413B35"/>
<path d="M16.412 85.454L17.0811 86.102C17.0811 86.102 17.3548 86.2547 17.6907 85.8844C18.0265 85.514 17.8237 85.3351 17.8237 85.3351L17.1401 84.6731L16.412 85.454Z" fill="#3E3832" stroke="#38332E" stroke-width="0.496968" stroke-miterlimit="3.99393"/>
<path d="M41.7951 59.2678C40.6812 59.9429 39.9839 60.3655 38.7515 60.9653L38.3147 60.6029L45.2446 56.536C45.7838 56.2048 46.1297 56.1131 46.8012 56.0678L60.5515 47.985C60.8237 48.5347 60.9272 48.884 60.9614 49.3654L60.4282 49.6732L57.8109 50.5184L47.3493 56.6856C47.3023 56.7127 47.2348 56.702 47.1537 56.6783C46.7858 56.571 46.2927 56.6823 45.7158 56.9927L42.2027 59.021C42.0602 59.1071 41.9248 59.1892 41.7951 59.2678Z" fill="#45423F" stroke="#38332E" stroke-width="0.496968" stroke-miterlimit="3.99393"/>
<path fill-rule="evenodd" clip-rule="evenodd" d="M41.7955 59.2693C41.9252 59.1907 42.0606 59.1086 42.2031 59.0225L45.7162 56.9942C46.2932 56.6838 46.7863 56.5725 47.1541 56.6798C47.2352 56.7035 47.3027 56.7143 47.3497 56.6871L50.0332 55.1052C49.4999 56.6104 48.9544 57.6796 48.3269 58.9098C48.1106 59.3338 47.8845 59.777 47.6458 60.2638C47.2816 61.0063 45.9533 62.0947 45.1014 62.504C44.2201 62.9275 42.8514 63.0975 41.715 62.4947C41.7272 62.4845 41.7405 62.4739 41.7548 62.4629C40.9819 61.7704 40.4452 61.5821 39.3676 61.4775L38.752 60.9668C39.9843 60.367 40.6817 59.9444 41.7955 59.2693ZM41.9906 59.635C43.0981 59.186 43.6598 58.8496 44.5819 58.139C44.7 58.0479 45.8519 57.8657 46.4196 58.5466C46.9873 59.2274 46.9873 59.5298 46.8691 60.0267C46.7509 60.5235 46.4493 61.1561 45.1993 61.8679C44.1378 62.4725 43.3279 62.4617 42.694 62.3732C42.0601 62.2847 41.6624 61.7493 41.464 61.4077C41.2656 61.066 41.2329 59.9423 41.9906 59.635Z" fill="#3E3B38"/>
<path fill-rule="evenodd" clip-rule="evenodd" d="M41.7955 59.2693C41.9252 59.1907 42.0606 59.1086 42.2031 59.0225L45.7162 56.9942C46.2932 56.6838 46.7862 56.5725 47.1541 56.6798C47.2352 56.7035 47.3027 56.7143 47.3497 56.6871L50.0332 55.1052C49.4999 56.6104 48.9544 57.6796 48.3269 58.9098C48.1106 59.3338 47.8845 59.777 47.6458 60.2638C47.2816 61.0063 45.9533 62.0947 45.1014 62.504C44.2201 62.9275 42.8514 63.0975 41.715 62.4947C41.7272 62.4845 41.7405 62.4739 41.7548 62.4629C40.9819 61.7704 40.4452 61.5821 39.3676 61.4775L38.752 60.9668C39.9843 60.367 40.6817 59.9444 41.7955 59.2693Z" stroke="#38332E" stroke-width="0.993935" stroke-miterlimit="3.99393"/>
<path d="M43.4899 58.9063C43.0555 59.1703 42.6083 59.3852 41.9922 59.635C41.4332 59.8617 41.3044 60.5328 41.355 61.0064L41.4699 60.94C41.5634 60.9255 41.6421 60.9173 41.6732 60.9874C42.2001 62.1757 42.5773 62.2546 43.2706 62.3215C43.3142 62.3257 43.3336 62.2706 43.2901 62.2488C43.1575 62.1824 43.0959 62.1314 43.0152 62.0132C42.1734 61.5272 42.0616 60.8948 42.134 60.4186C42.206 59.9456 42.6285 59.4934 43.4899 58.9063Z" fill="#383633" stroke="#38332E" stroke-width="0.496968" stroke-miterlimit="3.99393"/>
<path d="M46.7263 50.4313C46.8114 50.2481 46.883 50.0205 46.8791 49.828L46.7836 48.962C46.7588 48.7507 46.7887 48.4422 47.0028 48.3186L54.2373 44.1418C54.4514 44.0182 54.7251 44.0915 54.8487 44.3056L55.8444 46.0303C55.968 46.2443 55.8947 46.5181 55.6806 46.6417L47.616 51.2978C47.5123 51.3576 47.4221 51.3554 47.3143 51.3293L46.6257 51.7269L46.1781 50.9517L46.5047 50.7632C46.5571 50.7329 46.6475 50.6012 46.7263 50.4313Z" fill="#3D3B38"/>
<path d="M46.6238 51.7275L46.1763 50.9523L42.3896 53.1385C42.1755 53.2621 42.1021 53.5358 42.2257 53.7499C42.3493 53.964 42.6231 54.0373 42.8371 53.9137L46.6238 51.7275Z" fill="#383633"/>
<rect x="37.8848" y="51.7148" width="0.902" height="0.377467" transform="rotate(-30 37.8848 51.7148)" fill="#484541" stroke="#38332E" stroke-width="0.496968" stroke-miterlimit="3.99393"/>
<rect x="39.166" y="50.9736" width="0.902" height="0.377467" transform="rotate(-30 39.166 50.9736)" fill="#484541" stroke="#38332E" stroke-width="0.496968" stroke-miterlimit="3.99393"/>
<rect x="40.4492" y="50.2344" width="0.902" height="0.377467" transform="rotate(-30 40.4492 50.2344)" fill="#484541" stroke="#38332E" stroke-width="0.496968" stroke-miterlimit="3.99393"/>
<rect x="41.7305" y="49.4932" width="0.902" height="0.377467" transform="rotate(-30 41.7305 49.4932)" fill="#484541" stroke="#38332E" stroke-width="0.496968" stroke-miterlimit="3.99393"/>
<rect x="43.0117" y="48.7549" width="0.902" height="0.377467" transform="rotate(-30 43.0117 48.7549)" fill="#484541" stroke="#38332E" stroke-width="0.496968" stroke-miterlimit="3.99393"/>
<rect x="44.2949" y="48.0137" width="0.902" height="0.377467" transform="rotate(-30 44.2949 48.0137)" fill="#484541" stroke="#38332E" stroke-width="0.496968" stroke-miterlimit="3.99393"/>
<rect x="45.5781" y="47.2734" width="0.902" height="0.377467" transform="rotate(-30 45.5781 47.2734)" fill="#484541" stroke="#38332E" stroke-width="0.496968" stroke-miterlimit="3.99393"/>
<rect x="46.8574" y="46.5342" width="0.902" height="0.377467" transform="rotate(-30 46.8574 46.5342)" fill="#484541" stroke="#38332E" stroke-width="0.496968" stroke-miterlimit="3.99393"/>
<rect x="48.1406" y="45.7939" width="0.902" height="0.377467" transform="rotate(-30 48.1406 45.7939)" fill="#484541" stroke="#38332E" stroke-width="0.496968" stroke-miterlimit="3.99393"/>
<rect x="49.4219" y="45.0547" width="0.902" height="0.377467" transform="rotate(-30 49.4219 45.0547)" fill="#484541" stroke="#38332E" stroke-width="0.496968" stroke-miterlimit="3.99393"/>
<rect x="50.7031" y="44.3135" width="0.902" height="0.377467" transform="rotate(-30 50.7031 44.3135)" fill="#484541" stroke="#38332E" stroke-width="0.496968" stroke-miterlimit="3.99393"/>
<rect x="51.9844" y="43.5732" width="0.902" height="0.377467" transform="rotate(-30 51.9844 43.5732)" fill="#484541" stroke="#38332E" stroke-width="0.496968" stroke-miterlimit="3.99393"/>
<rect x="53.2676" y="42.834" width="0.902" height="0.377467" transform="rotate(-30 53.2676 42.834)" fill="#484541" stroke="#38332E" stroke-width="0.496968" stroke-miterlimit="3.99393"/>
<rect x="54.5488" y="42.0938" width="0.902" height="0.377467" transform="rotate(-30 54.5488 42.0938)" fill="#484541" stroke="#38332E" stroke-width="0.496968" stroke-miterlimit="3.99393"/>
<path d="M41.0099 48.5069C40.8641 48.2544 41.5657 47.031 41.7686 46.9138L42.4185 46.5386C42.5808 46.4449 42.7982 46.3732 43.1377 46.2639C44.0769 45.9615 45.4904 45.6123 45.5337 45.6064C45.6952 45.5847 45.8519 45.5897 45.9046 45.681L46.8903 47.3881L41.9956 50.2141L41.0099 48.5069Z" fill="#4B4744" stroke="#38332E" stroke-width="0.496968" stroke-miterlimit="3.99393"/>
<path d="M60.9113 49.3783L60.7998 48.6259L58.1386 43.9526C58.0461 43.7923 58.0784 43.6996 58.1858 43.6376L58.5261 43.4411C59.9265 45.6327 60.6855 46.8791 61.8632 49.2212L61.2796 49.5581C61.178 49.6168 61.0282 49.5807 60.9113 49.3783Z" fill="#43403C" stroke="#38332E" stroke-width="0.496968" stroke-miterlimit="3.99393"/>
<path d="M61.86 49.2174L91.7054 31.7039C91.8535 31.6184 92.184 30.7305 91.9532 30.1144C91.9532 30.1144 91.5474 28.8031 91.1186 28.1685C90.6898 27.534 89.1214 27.089 87.8243 27.2759C86.4505 27.4739 85.6889 27.7913 84.5195 28.2788C84.4248 28.3182 84.3275 28.3588 84.227 28.4005L58.4747 43.3544L58.525 43.4416C59.9245 45.6318 60.6834 46.8781 61.86 49.2174Z" fill="#46423F"/>
<path d="M92.0307 30.6366C92.034 30.4568 92.0121 30.2762 91.9515 30.1144C91.9515 30.1144 91.5457 28.8031 91.1169 28.1686C90.9413 27.9087 90.5744 27.6806 90.1133 27.5146L95.0829 24.7277C95.1969 24.662 96.0497 24.8949 96.6596 25.9512C97.2694 27.0076 96.9615 27.6825 96.832 27.7573L92.6714 30.3458C92.4375 30.4921 92.2471 30.5823 92.0307 30.6366Z" fill="#3D3B38" stroke="#38332E" stroke-width="0.993935" stroke-miterlimit="3.99393"/>
<path fill-rule="evenodd" clip-rule="evenodd" d="M102.334 19.7518L89.1769 27.2865C88.7311 27.2225 88.2619 27.2135 87.8236 27.2767C86.4499 27.4746 85.6882 27.7921 84.5188 28.2795C84.4242 28.3189 84.3268 28.3595 84.2263 28.4012L58.474 43.3551L58.5243 43.4423L58.184 43.6388C58.1439 43.6619 58.1143 43.6894 58.0977 43.723C57.8665 43.3724 57.4254 42.7306 57.0508 42.293L101.069 17.5607L101.579 17.0772L107.787 13.4926C107.957 13.3947 108.637 13.4216 109.173 14.3506C109.71 15.2796 109.386 15.8747 109.218 15.9715L103.01 19.5561L102.334 19.7518Z" stroke="#38332E" stroke-width="0.993935" stroke-miterlimit="3.99393"/>
<path fill-rule="evenodd" clip-rule="evenodd" d="M96.2114 17.9357L96.2402 18.0495L96.4679 18.9513L96.3862 19.2779L96.4756 20.2054L101.069 17.6282L100.486 17.0073C100.392 16.9171 100.337 16.8704 100.2 16.8609L99.5676 16.163C99.5669 16.152 99.566 16.141 99.5648 16.13C99.5185 15.6973 99.0768 15.2553 98.7283 15.4565L96.6123 16.6781C96.2619 16.8805 96.0713 17.3424 96.2114 17.9357ZM97.1045 17.6186C96.8953 17.7394 96.8236 18.007 96.9444 18.2162C97.0652 18.4255 97.3328 18.4972 97.542 18.3764L99.4247 17.2894C99.634 17.1686 99.7057 16.901 99.5849 16.6918C99.4641 16.4825 99.1965 16.4108 98.9873 16.5316L97.1045 17.6186Z" fill="#3B3835"/>
<path fill-rule="evenodd" clip-rule="evenodd" d="M98.7283 15.4565C99.0768 15.2553 99.5185 15.6973 99.5648 16.13C99.566 16.141 99.5669 16.152 99.5676 16.163L100.2 16.8609C100.337 16.8704 100.392 16.9171 100.486 17.0073L101.069 17.6282L96.4756 20.2054L96.3862 19.2779L96.4679 18.9512L96.2114 17.9357C96.0713 17.3424 96.2619 16.8805 96.6123 16.6781L98.7283 15.4565Z" stroke="#38332E" stroke-width="0.496968" stroke-miterlimit="3.99393"/>
<path fill-rule="evenodd" clip-rule="evenodd" d="M97.1035 17.6192C96.8942 17.74 96.8226 18.0075 96.9434 18.2168C97.0642 18.426 97.3317 18.4977 97.541 18.3769L99.4237 17.2899C99.6329 17.1691 99.7046 16.9015 99.5838 16.6923C99.463 16.4831 99.1955 16.4113 98.9862 16.5322L97.1035 17.6192Z" stroke="#38332E" stroke-width="0.496968" stroke-miterlimit="3.99393"/>
<path d="M2.03917 81.1C1.29432 81.6746 0.963311 82.7855 1.39299 83.3477L1.89649 84.0152C2.09858 84.1287 2.16659 84.2244 2.22044 84.4447L2.74624 85.1417C2.96423 85.2545 3.0488 85.3541 3.10911 85.6228L3.60694 86.2828C3.84516 86.3572 3.9642 86.4259 3.98191 86.7272L4.44092 87.3696C4.74738 87.4188 4.85152 87.5077 4.82191 87.795L5.34728 88.5039C5.56679 88.5571 5.62945 88.6263 5.59713 88.8411L6.17838 89.6254C6.36297 89.6921 6.45322 89.7493 6.47019 89.9727L7.06273 90.7831C7.27172 90.857 7.32974 90.9529 7.3598 91.1894L7.88929 91.9136C8.03519 92.0057 8.09831 92.0734 8.12772 92.2641L8.67924 93.0435C8.87133 93.1305 8.93808 93.2156 8.99007 93.4192L9.45053 94.0024C9.89771 94.5534 10.6121 94.8042 11.2545 94.4548L12.1678 93.9275L12.2577 93.7676C12.5861 93.768 12.766 93.5351 13.0241 93.2012L13.0403 93.1802C12.714 93.173 12.4753 93.1383 12.3821 93.0367C11.9212 92.561 11.4873 92.1168 11.0761 91.6959C7.87597 88.4199 6.04671 86.5473 3.49659 82.1303C3.14166 81.5156 3.16913 80.6367 3.77904 80.4123C3.68786 80.2388 3.55787 80.1358 3.34434 80.2026C2.82762 80.3642 2.44679 80.6172 2.03917 81.1ZM2.03917 81.1L2.03887 81.0995" stroke="#38332E" stroke-width="0.993935" stroke-miterlimit="3.99393"/>
<path d="M3.49834 82.1309C3.14341 81.5162 3.20507 80.6966 3.81498 80.4721L7.08481 77.938C7.08923 77.7845 7.13629 77.6607 7.29944 77.5207L24.6395 64.0375C24.8365 63.8866 24.9103 63.8461 25.1469 63.7751C25.3673 63.709 25.5321 63.6163 25.7284 63.4631L29.6604 60.3788C29.7417 60.3174 29.7753 60.3045 29.8155 60.3517C29.802 60.5271 29.8109 60.6371 29.848 60.8467L31.4317 65.4821C31.6182 66.0184 31.7996 66.1692 32.1131 66.3115C30.5553 67.5401 29.8151 68.3503 28.7564 70.0222L24.5566 76.5713C24.3327 76.8741 24.203 77.0452 23.9608 77.3566L13.3524 88.7344C13.1313 88.9988 13.0916 89.1615 13.1925 89.4852L13.8075 91.1756C13.9456 91.554 13.9085 91.8854 13.7242 92.2079L13.1894 92.8738C13.185 93.026 13.1446 93.0883 13.042 93.1808C12.7157 93.1736 12.477 93.1389 12.3839 93.0373C8.33595 88.8598 6.37617 87.1155 3.49834 82.1309Z" stroke="#38332E" stroke-width="0.993935" stroke-miterlimit="3.99393"/>
<path d="M35.5483 57.8677L38.0723 60.4017L39.3684 61.4769C40.4459 61.5815 40.9826 61.7698 41.7555 62.4624C41.5905 62.589 41.5683 62.6598 41.6216 62.7522C41.6574 62.8143 41.4866 63.0293 41.4488 63.0756C41.1119 63.4887 40.8071 64.0492 40.6628 64.6325C40.4985 65.2966 40.5243 65.9775 40.6301 66.2754C40.6944 66.4564 40.6976 66.5709 40.6718 66.7733C40.6362 67.0532 40.7767 67.5826 40.9463 68.0645L40.9522 68.081C40.9982 68.2116 41.018 68.2676 41.0018 68.3972C40.9698 68.6538 41.1127 69.1406 41.3232 69.5886C41.3888 69.7281 41.3983 69.8073 41.3895 69.9597C41.3684 70.3245 41.5126 70.702 41.7458 71.1433C41.8244 71.2922 41.8548 71.3732 41.8549 71.5604C41.8551 71.7476 41.9124 71.9913 41.9857 72.1182C41.9857 72.1182 42.4972 72.9861 42.8353 73.4296C43.1006 73.7776 43.7202 74.051 44.0125 74.1539C44.0966 74.1835 44.1262 74.2013 44.1469 74.2489C44.21 74.394 44.0578 74.6437 43.9166 74.7431C43.6173 74.9537 41.354 76.1152 39.8797 76.8719C39.224 77.2083 38.7244 77.4648 38.6228 77.5219C38.293 77.7075 37.155 78.2956 36.8192 78.0687C36.6781 77.9734 36.456 77.035 36.4604 76.9841C36.4631 76.952 36.4659 76.9212 36.4685 76.8915C36.4993 76.5456 36.5171 76.346 36.3686 75.9773C36.326 75.8714 36.2475 75.7553 36.1848 75.6625C36.1308 75.5825 36.0884 75.5198 36.0904 75.4955C36.1082 75.2845 36.0781 74.4912 35.8321 73.9119C35.7775 73.7832 35.7867 73.7111 35.8081 73.5969C35.8572 73.3338 35.8493 72.8252 35.7392 72.3703C35.7363 72.3583 35.7333 72.3473 35.7304 72.3367C35.7143 72.2768 35.7031 72.2354 35.7415 72.1528C35.802 72.0224 35.7509 71.8431 35.6992 71.6617C35.6925 71.6385 35.6859 71.6152 35.6794 71.5919L35.6751 71.5763C35.6576 71.5134 35.6553 71.5051 35.6624 71.4465C35.7161 71.009 35.7077 70.7237 35.5987 70.3447C35.5587 70.2059 35.5438 70.136 35.5757 69.9622C35.6927 69.3257 35.7144 68.9628 35.6301 68.2986C35.6208 67.2611 35.1628 66.6095 34.44 66.2374C33.7173 65.8653 32.8868 65.7559 32.1129 66.3111C31.7994 66.1688 31.618 66.0179 31.4314 65.4817L30.1644 61.7733L29.8477 60.8463C29.8106 60.6367 29.8018 60.5267 29.8152 60.3513C29.7751 60.3041 29.8928 60.1559 29.9711 60.0909L34.4302 56.5961C34.4819 56.556 34.5165 56.5624 34.5662 56.62L35.5483 57.8677Z" stroke="#38332E" stroke-width="0.993935" stroke-miterlimit="3.99393"/>
<path fill-rule="evenodd" clip-rule="evenodd" d="M38.4255 52.6432C36.6501 54.0146 35.799 54.8844 34.5888 56.6496L35.5472 57.8674L38.0713 60.4014L38.3149 60.6035L38.7517 60.9659C39.9841 60.3662 40.6815 59.9435 41.7953 59.2685C41.9249 59.1899 42.0606 59.1077 42.2029 59.0216L45.716 56.9933C46.2929 56.6829 46.786 56.5716 47.1539 56.679C47.235 56.7026 47.3025 56.7134 47.3495 56.6863L57.8112 50.519L60.4285 49.6739L60.9616 49.3661C60.9275 48.8846 60.8239 48.5353 60.5517 47.9856C60.4956 47.8724 60.4323 47.7507 60.3611 47.6176L58.2518 43.9642C58.1708 43.8239 57.0859 42.1607 56.6151 41.8739L38.4255 52.6432Z" stroke="#38332E" stroke-width="0.993935" stroke-miterlimit="3.99393"/>
<path d="M44.5824 58.1383C43.6604 58.8489 43.0986 59.1853 41.9912 59.6344C41.2335 59.9416 41.2662 61.0654 41.4646 61.407C41.663 61.7486 42.0607 62.284 42.6946 62.3725C43.3285 62.461 44.1384 62.4718 45.1998 61.8673C46.4499 61.1554 46.7514 60.5228 46.8696 60.026C46.9879 59.5292 46.9879 59.2268 46.4202 58.5459C45.8524 57.865 44.7006 58.0472 44.5824 58.1383Z" stroke="#38332E" stroke-width="0.496968" stroke-miterlimit="3.99393"/>
<path d="M46.7841 48.9621C46.7593 48.7508 46.7892 48.4423 47.0033 48.3187L54.2378 44.1419C54.4519 44.0183 54.7256 44.0916 54.8492 44.3057L55.8449 46.0304C55.9685 46.2444 55.8952 46.5182 55.6811 46.6418L47.6165 51.2979C47.5129 51.3577 47.4226 51.3555 47.3148 51.3294L42.8395 53.9133C42.6254 54.0369 42.3517 53.9635 42.2281 53.7495C42.1045 53.5354 42.1778 53.2617 42.3919 53.1381L46.5052 50.7633C46.6142 50.7004 46.8871 50.199 46.8796 49.8281L46.7841 48.9621Z" stroke="#38332E" stroke-width="0.496968" stroke-miterlimit="3.99393"/>
<path d="M61.86 49.2174L91.7054 31.7039C91.8535 31.6184 92.184 30.7305 91.9532 30.1144C91.9532 30.1144 91.5474 28.8031 91.1186 28.1685C90.6898 27.534 89.1214 27.089 87.8243 27.2759C86.4505 27.4739 85.6889 27.7913 84.5195 28.2788C84.4248 28.3182 84.3275 28.3588 84.227 28.4005L58.4747 43.3544L58.525 43.4416C59.9245 45.6318 60.6834 46.8781 61.86 49.2174Z" stroke="#38332E" stroke-width="0.993935" stroke-miterlimit="3.99393"/>
<path d="M107.358 16.0124C108.099 15.5845 108.585 15.0387 108.443 14.7933C108.301 14.5478 107.585 14.6956 106.844 15.1235C106.104 15.5513 105.618 16.0971 105.759 16.3425C105.901 16.588 106.617 16.4402 107.358 16.0124Z" stroke="#38332E" stroke-width="0.496967" stroke-miterlimit="3.99393"/>
<path d="M107.938 13.919C108.009 14.0411 107.465 14.487 106.724 14.9148C105.983 15.3426 105.325 15.5904 105.255 15.4682C105.184 15.3461 105.728 14.9003 106.469 14.4724C107.21 14.0446 107.868 13.7969 107.938 13.919Z" stroke="#38332E" stroke-width="0.496967" stroke-miterlimit="3.99393"/>
<path d="M107.734 16.6634C108.475 16.2356 109.018 15.7897 108.948 15.6676C108.877 15.5454 108.219 15.7932 107.478 16.221C106.737 16.6488 106.194 17.0947 106.264 17.2168C106.335 17.339 106.993 17.0912 107.734 16.6634Z" stroke="#38332E" stroke-width="0.496967" stroke-miterlimit="3.99393"/>
</g>
<defs>
<clipPath id="clip0_619_1194">
<rect width="110" height="110" fill="white" transform="translate(0.0175781)"/>
</clipPath>
</defs>
</svg>
