<?xml version="1.0" encoding="UTF-8" standalone="no"?>
<svg
   width="110"
   height="110"
   viewBox="0 0 110 110"
   fill="none"
   version="1.1"
   id="svg94"
   sodipodi:docname="hp18.svg"
   inkscape:version="1.1.2 (0a00cf5339, 2022-02-04)"
   xmlns:inkscape="http://www.inkscape.org/namespaces/inkscape"
   xmlns:sodipodi="http://sodipodi.sourceforge.net/DTD/sodipodi-0.dtd"
   xmlns="http://www.w3.org/2000/svg"
   xmlns:svg="http://www.w3.org/2000/svg">
  <defs
     id="defs98" />
  <sodipodi:namedview
     id="namedview96"
     pagecolor="#505050"
     bordercolor="#ffffff"
     borderopacity="1"
     inkscape:pageshadow="0"
     inkscape:pageopacity="0"
     inkscape:pagecheckerboard="1"
     showgrid="false"
     inkscape:zoom="5.1290944"
     inkscape:cx="107.62134"
     inkscape:cy="56.540195"
     inkscape:window-width="2560"
     inkscape:window-height="1372"
     inkscape:window-x="0"
     inkscape:window-y="0"
     inkscape:window-maximized="1"
     inkscape:current-layer="svg94" />
  <g
     id="g961"
     transform="matrix(0.10832322,-0.06254044,0.06254044,0.10832322,-5.728817,74.592148)">
    <path
       fill-rule="evenodd"
       clip-rule="evenodd"
       d="M 964.351,57.3038 842.315,56.8733 c -2.85,-2.2406 -6.085,-4.1916 -9.394,-5.5153 -10.372,-4.1486 -16.959,-5.001 -27.072,-6.3096 -0.818,-0.106 -1.66,-0.215 -2.528,-0.3287 l -239.687,0.5984 v 0.8099 h -3.162 c -0.373,0 -0.69,0.0721 -0.941,0.2398 -0.201,-3.3742 -0.693,-9.6235 -1.543,-14.1813 l 406.363,4.7529 5.496,-1.3207 h 57.703 c 1.58,0 6.21,2.9242 6.21,11.5585 0,8.6341 -4.65,11.4801 -6.21,11.4801 h -57.703 z m 50.059,-5.8541 c 6.89,0 12.47,-1.8493 12.47,-4.1309 0,-2.2812 -5.58,-4.1305 -12.47,-4.1305 -6.88,0 -12.47,1.8493 -12.47,4.1305 0,2.2816 5.59,4.1309 12.47,4.1309 z m 12.47,-12.2564 c 0,1.1353 -5.58,2.0557 -12.47,2.0557 -6.88,0 -12.47,-0.9204 -12.47,-2.0557 0,-1.1351 5.59,-2.0555 12.47,-2.0555 6.89,0 12.47,0.9204 12.47,2.0555 z m -12.47,18.3071 c 6.89,0 12.47,-0.9204 12.47,-2.0555 0,-1.1354 -5.58,-2.0557 -12.47,-2.0557 -6.88,0 -12.47,0.9203 -12.47,2.0557 0,1.1351 5.59,2.0555 12.47,2.0555 z"
       fill="#3b3835"
       id="path2" />
    <rect
       x="386.48001"
       y="23.7686"
       width="162.127"
       height="6.1160102"
       fill="#3e3b38"
       stroke="#38332e"
       stroke-width="4"
       id="rect4" />
    <path
       fill-rule="evenodd"
       clip-rule="evenodd"
       d="m 386.509,29.3848 c -17.893,2.4141 -27.327,5.0522 -42.866,12.4856 l 1.78,12.346 7.395,27.8213 0.885,2.3893 64.672,-0.4598 c 5.091,-0.1386 7.871,0.6147 12.734,3.0006 l 128.374,-1.0037 c 0.065,-1.0149 0.114,-2.1178 0.153,-3.3326 V 48.6773 c 0,-1.3039 -0.869,-17.264 -2.996,-21.1578 z m 73.066,7.9715 c 0.677,-1.5723 2.127,-3.6022 4.117,-3.6022 h 67.237 c 1.99,0 3.602,1.6127 3.602,3.6022 v 16.0293 c 0,1.9895 -1.613,3.6022 -3.602,3.6022 h -74.952 c -0.964,0 -1.584,-0.3782 -2.23,-0.9939 h -41.594 c -1.989,0 -3.602,-1.6128 -3.602,-3.6025 0,-1.9894 1.613,-3.6022 3.602,-3.6022 h 38.228 c 1.014,0 4.934,-2.3962 6.374,-5.0117 z"
       fill="#4b4744"
       id="path6" />
    <path
       d="m 37.3408,211.485 1.2696,-0.753 c 2.2882,1.324 4.4791,0.426 7.6218,-0.864 l 0.197,-0.081 c -2.2456,-1.363 -3.7693,-2.566 -4.0099,-3.649 -1.2984,-5.17 -2.5351,-10.011 -3.7072,-14.6 l -5e-4,-0.002 c -9.1224,-35.714 -14.337,-56.129 -14.337,-97.1796 0,-5.7135 3.7282,-11.1785 8.8828,-10.2884 0.0625,-1.5761 -0.4291,-3.3675 -2.1862,-3.7613 -4.2522,-0.953 -7.9247,-0.7226 -12.7091,1.0027 0,0 0.0046,0.1035 0.0129,0.3042 -0.0083,-0.1993 -0.0129,-0.302 -0.0129,-0.302 C 10.8579,82.319 4.07967,88.7287 4.81221,94.3767 l 0.82338,6.6793 c 0.952,1.604 1.04083,2.545 0.52976,4.297 l 0.85984,6.975 c 1.06558,1.663 1.25454,2.697 0.5934,4.813 l 0.81412,6.604 c 1.361,1.478 1.91439,2.435 0.8251,4.607 l 0.61443,6.325 c 1.93816,1.576 2.30616,2.615 0.94346,4.499 l 0.8092,7.056 c 1.316,1.254 1.4742,1.988 0.3848,3.355 l 0.8953,7.806 c 1.0179,1.208 1.4171,1.97 0.6362,3.596 l 0.8688,8.033 c 1.1595,1.356 1.1779,2.258 0.4355,4.028 l 0.7763,7.179 c 0.6467,1.229 0.814,1.955 0.2514,3.403 l 0.708,7.652 c 0.9886,1.379 1.1115,2.241 0.6546,3.869 l 0.8625,5.919 c 0.8996,5.64 4.8702,10.263 10.7541,10.413 z"
       fill="#433d37"
       id="path8" />
    <path
       d="m 24.375,94.3563 c 0,-5.7134 3.7282,-11.1784 8.8828,-10.2882 l 32.9905,-4.5049 c 0.6488,-1.0527 1.4748,-1.7257 3.1756,-2.0452 L 244.554,53.3172 c 1.98,-0.2594 2.658,-0.2445 4.593,0.2129 1.803,0.4261 3.324,0.4434 5.309,0.1654 l 39.82,-5.6748 c 0.814,-0.1014 1.1,-0.0557 1.19,0.435 -0.8,1.1684 -1.181,1.9709 -1.765,3.581 l -7.616,38.6844 c -0.857,4.4889 -0.2,6.2701 1.412,8.5237 -15.803,2.2942 -24.223,4.9632 -38.331,12.3572 l -55.631,28.748 c -2.779,1.21 -4.371,1.88 -7.313,3.077 L 66.4874,180.043 c -2.6054,0.953 -3.5369,1.927 -4.1357,4.59 l -2.5162,14.258 c -0.5604,3.193 -2.1523,5.354 -4.735,6.86 l -6.4078,2.49 c -0.6433,1.043 -1.1751,1.314 -2.2631,1.546 -2.2456,-1.363 -3.7693,-2.566 -4.0099,-3.649 C 31.0159,160.728 24.375,140.683 24.375,94.3563 Z"
       fill="#49423b"
       id="path10" />
    <path
       d="m 345.423,54.2178 7.396,27.8208 4.707,12.7106 c 7.09,5.0657 10.074,8.5388 12.674,16.4758 -1.66,0.219 -2.1,0.623 -2.1,1.481 0,0.578 -2.056,1.389 -2.506,1.56 -4.011,1.523 -8.391,4.203 -11.744,7.689 -3.818,3.968 -6.379,8.818 -6.84,11.32 -0.28,1.52 -0.719,2.332 -1.713,3.638 -1.374,1.808 -2.526,6.064 -3.283,10.105 l -0.025,0.139 c -0.205,1.096 -0.293,1.565 -0.927,2.404 -1.256,1.66 -2.219,5.628 -2.554,9.598 -0.105,1.237 -0.357,1.827 -1.032,2.853 -1.615,2.459 -2.129,5.67 -2.28,9.684 -0.05,1.355 -0.165,2.042 -0.917,3.347 -0.753,1.306 -1.334,3.235 -1.334,4.414 0,0 0.073,8.109 0.645,12.561 0.449,3.494 3.667,7.892 5.291,9.786 0.467,0.545 0.602,0.788 0.554,1.204 -0.144,1.265 -2.21,2.393 -3.594,2.517 -2.934,0.264 -23.385,-0.748 -36.707,-1.408 -5.924,-0.293 -10.438,-0.516 -11.376,-0.527 -3.046,-0.033 -13.345,-0.514 -14.773,-3.447 -0.6,-1.232 1.629,-8.667 1.864,-9.004 0.148,-0.213 0.291,-0.416 0.429,-0.613 1.607,-2.287 2.534,-3.607 2.983,-6.774 0.129,-0.91 0.049,-2.034 -0.014,-2.934 -0.055,-0.775 -0.098,-1.383 0.014,-1.544 0.973,-1.399 3.956,-7.05 4.573,-12.078 0.137,-1.117 0.491,-1.582 1.099,-2.292 1.402,-1.637 3.394,-5.214 4.456,-8.828 0.028,-0.095 0.052,-0.184 0.075,-0.269 0.128,-0.483 0.217,-0.816 0.817,-1.238 0.947,-0.665 1.312,-2.12 1.681,-3.593 0.048,-0.189 0.095,-0.378 0.144,-0.566 l 0.032,-0.126 c 0.131,-0.509 0.149,-0.577 0.435,-0.956 2.134,-2.834 3.224,-4.856 3.989,-7.936 0.28,-1.129 0.457,-1.676 1.379,-2.759 3.377,-3.966 4.989,-6.408 7.074,-11.377 4.111,-7.27 3.541,-13.655 0,-19.158 -3.54,-5.502 -8.889,-9.6062 -16.518,-8.8512 -1.612,-2.2536 -2.269,-4.0352 -1.412,-8.5241 l 7.616,-38.684 c 0.585,-1.6101 0.965,-2.4126 1.765,-3.581 -0.09,-0.4907 1.328,-1.05 2.135,-1.1882 l 45.146,-6.4149 c 0.522,-0.072 0.737,0.1124 0.852,0.7138 z"
       fill="#413b35"
       id="path12" />
    <path
       d="m 101.014,169.484 2.056,7.209 c 0,0 1.293,2.167 5.125,0.937 3.831,-1.231 3.138,-3.293 3.138,-3.293 l -2.101,-7.366 z"
       fill="#3e3832"
       stroke="#38332e"
       stroke-width="4"
       id="path14" />
    <path
       d="m 383.336,89.1277 c -10.481,0.223 -17.043,0.3626 -28.046,-0.4162 l -1.587,-4.2838 64.672,-0.4597 c 5.091,-0.1386 7.871,0.6146 12.734,3.0006 l 128.374,-1.0037 c -0.314,4.9268 -0.998,7.7781 -2.698,11.2715 h -4.954 l -21.646,-4.642 -97.742,0.8867 c -0.436,0 -0.864,-0.3465 -1.334,-0.838 -2.132,-2.2289 -6.017,-3.4371 -11.288,-3.5954 h -32.65 c -1.34,0.0269 -2.614,0.054 -3.835,0.08 z"
       fill="#45423f"
       stroke="#38332e"
       stroke-width="4"
       id="path16" />
    <path
       fill-rule="evenodd"
       clip-rule="evenodd"
       d="m 383.337,89.1272 c 1.221,-0.026 2.495,-0.0531 3.835,-0.08 h 32.65 c 5.271,0.1582 9.156,1.3665 11.288,3.5953 0.47,0.4915 0.898,0.838 1.334,0.838 l 25.072,-0.2274 c -9.775,8.3459 -17.88,13.6039 -27.205,19.6529 -3.214,2.085 -6.574,4.265 -10.197,6.697 -5.526,3.71 -19.166,5.951 -26.751,5.376 -7.847,-0.595 -18.072,-4.918 -23.567,-13.693 0.126,-0.022 0.261,-0.043 0.405,-0.062 -2.601,-7.937 -5.584,-11.4102 -12.674,-16.4759 l -2.236,-6.0372 c 11.004,0.7788 17.566,0.6392 28.046,0.4163 z m -0.111,3.3345 c 9.526,1.3268 14.796,1.2428 24.082,0 1.191,-0.1593 9.953,3.2058 11.17,10.2363 1.217,7.031 0,9.139 -2.823,12.126 -2.824,2.988 -7.472,6.184 -19.05,6.115 -9.831,-0.058 -15.434,-3.393 -19.496,-6.561 -4.062,-3.167 -4.68,-8.5 -4.688,-11.68 -0.008,-3.1792 4.287,-11.144 10.805,-10.2363 z"
       fill="#3e3b38"
       id="path18" />
    <path
       fill-rule="evenodd"
       clip-rule="evenodd"
       d="m 383.337,89.1272 c 1.221,-0.026 2.495,-0.0531 3.835,-0.08 h 32.65 c 5.271,0.1582 9.156,1.3665 11.288,3.5953 0.47,0.4915 0.898,0.838 1.334,0.838 l 25.072,-0.2274 c -9.775,8.3459 -17.88,13.6039 -27.205,19.6529 -3.214,2.085 -6.574,4.265 -10.197,6.697 -5.526,3.71 -19.166,5.951 -26.751,5.376 -7.847,-0.595 -18.072,-4.918 -23.567,-13.693 0.126,-0.022 0.261,-0.043 0.405,-0.062 -2.601,-7.937 -5.584,-11.4102 -12.674,-16.4759 l -2.236,-6.0372 c 11.004,0.7788 17.566,0.6392 28.046,0.4163 z"
       stroke="#38332e"
       stroke-width="8"
       id="path20" />
    <path
       d="m 396.596,93.4101 c -4.089,0.0918 -8.072,-0.2097 -13.372,-0.9479 -4.808,-0.6697 -8.407,3.4899 -9.96,6.9944 h 1.068 c 0.71,0.2755 1.292,0.5347 1.226,1.1494 -1.109,10.402 1.202,12.471 5.766,15.727 0.287,0.205 0.644,-0.101 0.429,-0.428 -0.657,-0.997 -0.882,-1.6 -0.968,-2.749 -3.912,-6.775 -2.146,-11.633 0.275,-14.661 2.405,-3.0079 7.17,-4.4594 15.536,-5.0849 z"
       fill="#383633"
       stroke="#38332e"
       stroke-width="4"
       id="path22" />
    <path
       fill-rule="evenodd"
       clip-rule="evenodd"
       d="m 453.263,47.3686 c 1.33,-0.9349 2.745,-2.2333 3.493,-3.5904 l 2.82,-6.4211 c 0.677,-1.5723 2.127,-3.6022 4.116,-3.6022 h 67.238 c 1.989,0 3.602,1.6127 3.602,3.6022 v 16.0293 c 0,1.9895 -1.613,3.6022 -3.602,3.6022 h -74.952 c -0.964,0 -1.584,-0.3782 -2.23,-0.9939 h -0.485 v 0 h -5.915 V 48.79 h 3.034 c 0.488,0 1.648,-0.5544 2.881,-1.4213 z"
       fill="#3d3b38"
       id="path24" />
    <path
       d="M 447.347,55.9947 V 48.79 h -35.194 c -1.989,0 -3.602,1.6128 -3.602,3.6022 0,1.9897 1.613,3.6025 3.602,3.6025 z"
       fill="#282624"
       id="path26" />
    <rect
       x="386.48001"
       y="20.730499"
       width="7.2600298"
       height="3.0381701"
       fill="#484541"
       stroke="#38332e"
       stroke-width="4"
       id="rect28" />
    <rect
       x="398.39301"
       y="20.730499"
       width="7.2600298"
       height="3.0381701"
       fill="#484541"
       stroke="#38332e"
       stroke-width="4"
       id="rect30" />
    <rect
       x="410.30701"
       y="20.730499"
       width="7.2600298"
       height="3.0381701"
       fill="#484541"
       stroke="#38332e"
       stroke-width="4"
       id="rect32" />
    <rect
       x="422.21899"
       y="20.730499"
       width="7.2600298"
       height="3.0381701"
       fill="#484541"
       stroke="#38332e"
       stroke-width="4"
       id="rect34" />
    <rect
       x="434.13101"
       y="20.730499"
       width="7.2600298"
       height="3.0381701"
       fill="#484541"
       stroke="#38332e"
       stroke-width="4"
       id="rect36" />
    <rect
       x="446.04501"
       y="20.730499"
       width="7.2600298"
       height="3.0381701"
       fill="#484541"
       stroke="#38332e"
       stroke-width="4"
       id="rect38" />
    <rect
       x="457.957"
       y="20.730499"
       width="7.2600298"
       height="3.0381701"
       fill="#484541"
       stroke="#38332e"
       stroke-width="4"
       id="rect40" />
    <rect
       x="469.871"
       y="20.730499"
       width="7.2600298"
       height="3.0381701"
       fill="#484541"
       stroke="#38332e"
       stroke-width="4"
       id="rect42" />
    <rect
       x="481.78299"
       y="20.730499"
       width="7.2600298"
       height="3.0381701"
       fill="#484541"
       stroke="#38332e"
       stroke-width="4"
       id="rect44" />
    <rect
       x="493.69501"
       y="20.730499"
       width="7.2600298"
       height="3.0381701"
       fill="#484541"
       stroke="#38332e"
       stroke-width="4"
       id="rect46" />
    <rect
       x="505.60901"
       y="20.730499"
       width="7.2600298"
       height="3.0381701"
       fill="#484541"
       stroke="#38332e"
       stroke-width="4"
       id="rect48" />
    <rect
       x="517.521"
       y="20.730499"
       width="7.2600298"
       height="3.0381701"
       fill="#484541"
       stroke="#38332e"
       stroke-width="4"
       id="rect50" />
    <rect
       x="529.43402"
       y="20.730499"
       width="7.2600298"
       height="3.0381701"
       fill="#484541"
       stroke="#38332e"
       stroke-width="4"
       id="rect52" />
    <rect
       x="541.34802"
       y="20.730499"
       width="7.2600298"
       height="3.0381701"
       fill="#484541"
       stroke="#38332e"
       stroke-width="4"
       id="rect54" />
    <path
       d="m 421.164,10.9575 c 0,-2.34684 9.814,-8.05125 11.699,-8.05125 h 6.04 c 1.509,0 3.313,0.37544 6.119,0.97966 7.764,1.67152 19.022,4.92591 19.348,5.05951 1.213,0.49824 2.285,1.16428 2.285,2.01208 V 26.824 h -45.491 z"
       fill="#4b4744"
       stroke="#38332e"
       stroke-width="4"
       id="path56" />
    <path
       d="m 556.367,97.1123 2.251,-5.6934 0.257,-43.285 c 0,-1.4897 0.599,-2.006 1.597,-2.006 h 3.163 c 0.941,20.9122 1.216,32.6548 0,53.7198 h -5.424 c -0.944,0 -1.844,-0.8549 -1.844,-2.7354 z"
       fill="#43403c"
       stroke="#38332e"
       stroke-width="4"
       id="path58" />
    <path
       d="m 563.635,99.8096 278.518,-1.9672 c 1.377,0 7.254,-4.8589 8.124,-10.0825 0,0 2.449,-10.7736 2.013,-16.9222 -0.435,-6.1486 -9.576,-15.5621 -19.37,-19.4797 -10.372,-4.1487 -16.959,-5.001 -27.072,-6.3096 -0.819,-0.1059 -1.66,-0.2148 -2.529,-0.3287 l -239.686,0.5985 v 0.81 c 0.941,20.8994 1.215,32.6405 0.002,53.6814 z"
       fill="#46423f"
       id="path60" />
    <path
       d="m 848.729,91.7181 c 0.747,-1.24 1.321,-2.5865 1.549,-3.9582 0,0 2.449,-10.7737 2.014,-16.9223 -0.179,-2.5187 -1.818,-5.5852 -4.364,-8.5974 l 45.856,0.5739 c 1.059,0 6.066,5.0557 6.066,14.8733 0,9.8176 -4.863,13.283 -6.066,13.283 L 854.365,92.27 c -2.219,0.0777 -3.909,-0.0596 -5.636,-0.5519 z"
       fill="#3d3b38"
       stroke="#38332e"
       stroke-width="8"
       id="path62" />
    <path
       fill-rule="evenodd"
       clip-rule="evenodd"
       d="M 964.351,57.3038 842.315,56.8733 c -2.85,-2.2406 -6.085,-4.1916 -9.394,-5.5153 -10.372,-4.1486 -16.959,-5.001 -27.072,-6.3096 -0.818,-0.106 -1.66,-0.215 -2.528,-0.3287 l -239.687,0.5984 v 0.8099 h -3.162 c -0.373,0 -0.69,0.0721 -0.941,0.2398 -0.201,-3.3742 -0.693,-9.6235 -1.543,-14.1813 l 406.363,4.7529 5.496,-1.3207 h 57.703 c 1.58,0 6.21,2.9242 6.21,11.5585 0,8.6341 -4.65,11.4801 -6.21,11.4801 h -57.703 z"
       stroke="#38332e"
       stroke-width="8"
       id="path64" />
    <path
       d="m 797.175,47.6847 c 9.631,-0.0291 14.733,0.4568 24.387,4.6268 11.613,4.8644 20.134,10.0647 27.715,18.2725 1.586,1.7167 1.379,3.1285 1.004,5.69 l -10e-4,0.0116 1.838,0.2374 c 0.197,-2.0302 0.29,-4.0261 0.172,-5.6853 -0.435,-6.1486 -9.576,-15.5621 -19.37,-19.4797 -10.372,-4.1487 -16.959,-5.001 -27.072,-6.3096 l -0.002,-2e-4 c -0.818,-0.1058 -1.659,-0.2147 -2.527,-0.3285 l -239.686,0.5985 v 0.81 c 0.057,1.2748 0.112,2.5156 0.164,3.7265 l 31.414,0.4264 c -0.046,-1.263 4.95,-2.2832 7.644,-2.2832 z"
       fill="#43403d"
       stroke="#38332e"
       stroke-width="4"
       id="path66" />
    <path
       fill-rule="evenodd"
       clip-rule="evenodd"
       d="m 928.974,20.0084 -0.257,0.9086 -2.042,7.2023 -1.884,1.9479 -3.109,6.8247 42.387,0.5201 -1.565,-6.674 c -0.29,-1.0064 -0.484,-1.5517 -1.405,-2.1715 l -1.597,-7.4084 c 0.04,-0.0792 0.078,-0.1596 0.114,-0.2411 1.418,-3.2026 0.118,-8.0615 -3.12,-8.0615 H 936.83 c -3.257,0 -6.445,2.4531 -7.856,7.1529 z m 7.502,1.3837 c -1.945,0 -3.521,1.5765 -3.521,3.5213 0,1.9447 1.576,3.5212 3.521,3.5212 h 17.498 c 1.945,0 3.521,-1.5765 3.521,-3.5212 0,-1.9448 -1.576,-3.5213 -3.521,-3.5213 z"
       fill="#33302e"
       id="path68" />
    <path
       fill-rule="evenodd"
       clip-rule="evenodd"
       d="m 956.496,12.8555 c 3.238,0 4.538,4.8589 3.12,8.0615 -0.036,0.0815 -0.074,0.1621 -0.114,0.2412 l 1.597,7.4082 c 0.921,0.6201 1.115,1.1651 1.405,2.1714 l 1.565,6.6743 -42.387,-0.52 3.109,-6.8247 1.884,-1.9482 2.299,-8.1109 c 1.411,-4.6997 4.599,-7.1528 7.856,-7.1528 z"
       stroke="#38332e"
       stroke-width="4"
       id="path70" />
    <path
       fill-rule="evenodd"
       clip-rule="evenodd"
       d="m 936.476,21.3926 c -1.944,0 -3.521,1.5766 -3.521,3.5215 0,1.9443 1.577,3.521 3.521,3.521 h 17.498 c 1.945,0 3.522,-1.5767 3.522,-3.521 0,-1.9449 -1.577,-3.5215 -3.522,-3.5215 z"
       stroke="#38332e"
       stroke-width="4"
       id="path72" />
    <path
       d="M 18.3621,81.3094 C 10.8579,82.3168 4.07967,88.7287 4.81221,94.3767 l 0.82338,6.6793 c 0.952,1.604 1.04083,2.545 0.52976,4.297 l 0.85984,6.975 c 1.06558,1.663 1.25454,2.697 0.5934,4.813 l 0.81412,6.604 c 1.361,1.478 1.91439,2.435 0.8251,4.607 l 0.61443,6.325 c 1.93816,1.576 2.30616,2.615 0.94346,4.499 l 0.8092,7.056 c 1.316,1.254 1.4742,1.988 0.3848,3.355 l 0.8953,7.806 c 1.0179,1.208 1.4171,1.97 0.6362,3.596 l 0.8688,8.033 c 1.1595,1.356 1.1779,2.258 0.4355,4.028 l 0.7763,7.179 c 0.6467,1.229 0.814,1.955 0.2514,3.403 l 0.708,7.652 c 0.9886,1.379 1.1115,2.241 0.6546,3.87 l 0.8625,5.918 c 0.8996,5.64 4.8702,10.263 10.7541,10.413 h 8.4884 l 1.2696,-0.753 c 2.2882,1.325 4.4792,0.426 7.6218,-0.864 l 0.1971,-0.081 c -2.2456,-1.363 -3.7694,-2.566 -4.01,-3.649 -1.2985,-5.171 -2.5353,-10.013 -3.7076,-14.602 -9.1224,-35.714 -14.337,-56.129 -14.337,-97.1796 0,-5.7135 3.7282,-11.7288 8.8828,-10.8386 0.0625,-1.5761 -0.4291,-2.8173 -2.1862,-3.2111 -4.2522,-0.953 -7.9247,-0.7226 -12.7092,1.0027 z m 0,0 v -0.0047"
       stroke="#38332e"
       stroke-width="8"
       id="path74" />
    <path
       d="m 24.375,94.3563 c 0,-5.7134 3.7282,-11.1784 8.8828,-10.2882 l 32.9905,-4.5049 c 0.6488,-1.0527 1.4748,-1.7257 3.1756,-2.0452 L 244.554,53.3172 c 1.98,-0.2594 2.658,-0.2445 4.593,0.2129 1.803,0.4261 3.324,0.4434 5.309,0.1654 l 39.82,-5.6748 c 0.814,-0.1014 1.1,-0.0557 1.19,0.435 -0.8,1.1684 -1.181,1.9709 -1.765,3.581 l -7.616,38.6844 c -0.857,4.4889 -0.2,6.2701 1.412,8.5237 -15.803,2.2942 -24.223,4.9632 -38.331,12.3572 l -55.631,28.748 c -2.779,1.21 -4.371,1.88 -7.313,3.077 L 66.4874,180.043 c -2.6054,0.953 -3.5369,1.927 -4.1357,4.59 l -2.5162,14.258 c -0.5604,3.193 -2.1523,5.354 -4.735,6.86 l -6.4078,2.49 c -0.6433,1.043 -1.1751,1.314 -2.2631,1.546 -2.2456,-1.363 -3.7693,-2.566 -4.0099,-3.649 C 31.0159,160.728 24.375,140.683 24.375,94.3563 Z"
       stroke="#38332e"
       stroke-width="8"
       id="path76" />
    <path
       d="m 345.423,54.2178 7.396,27.8208 4.707,12.7107 c 7.09,5.0656 10.074,8.5387 12.674,16.4757 -1.66,0.219 -2.1,0.623 -2.1,1.481 0,0.578 -2.056,1.389 -2.506,1.56 -4.011,1.523 -8.391,4.203 -11.744,7.689 -3.818,3.968 -6.379,8.818 -6.84,11.32 -0.28,1.52 -0.719,2.332 -1.713,3.638 -1.374,1.808 -2.526,6.064 -3.283,10.105 l -0.025,0.139 c -0.205,1.096 -0.293,1.565 -0.927,2.404 -1.256,1.66 -2.219,5.628 -2.554,9.598 -0.105,1.237 -0.357,1.827 -1.032,2.853 -1.615,2.459 -2.129,5.67 -2.28,9.684 -0.05,1.355 -0.165,2.042 -0.917,3.347 -0.753,1.306 -1.334,3.235 -1.334,4.414 0,0 0.073,8.109 0.645,12.561 0.449,3.494 3.667,7.892 5.291,9.786 0.467,0.545 0.602,0.788 0.554,1.204 -0.144,1.265 -2.21,2.393 -3.594,2.517 -2.934,0.264 -23.384,-0.748 -36.706,-1.407 -5.925,-0.294 -10.439,-0.517 -11.377,-0.528 -3.046,-0.033 -13.345,-0.514 -14.773,-3.447 -0.6,-1.232 1.629,-8.667 1.864,-9.004 0.148,-0.213 0.291,-0.416 0.429,-0.613 1.607,-2.287 2.534,-3.607 2.983,-6.774 0.129,-0.91 0.049,-2.034 -0.014,-2.934 -0.055,-0.775 -0.098,-1.383 0.014,-1.544 0.973,-1.399 3.956,-7.05 4.573,-12.078 0.137,-1.117 0.491,-1.582 1.099,-2.292 1.402,-1.637 3.394,-5.214 4.456,-8.828 0.028,-0.095 0.052,-0.184 0.075,-0.269 0.128,-0.483 0.217,-0.816 0.817,-1.237 0.947,-0.666 1.312,-2.121 1.681,-3.594 0.048,-0.189 0.095,-0.378 0.144,-0.566 l 0.032,-0.126 c 0.131,-0.509 0.149,-0.577 0.435,-0.956 2.134,-2.834 3.224,-4.856 3.989,-7.936 0.28,-1.129 0.457,-1.676 1.379,-2.759 3.377,-3.966 4.989,-6.408 7.074,-11.377 4.111,-7.27 3.541,-13.655 0,-19.158 -3.54,-5.502 -8.889,-9.6062 -16.518,-8.8511 -1.612,-2.2537 -2.269,-4.0353 -1.412,-8.5242 l 6.093,-30.9475 1.523,-7.7365 c 0.584,-1.6101 0.965,-2.4126 1.765,-3.581 -0.09,-0.4907 1.328,-1.05 2.135,-1.1882 l 45.146,-6.4149 c 0.522,-0.072 0.737,0.1124 0.852,0.7138 z"
       stroke="#38332e"
       stroke-width="8"
       id="path78" />
    <path
       fill-rule="evenodd"
       clip-rule="evenodd"
       d="m 386.509,29.3848 c -17.893,2.4141 -27.327,5.0522 -42.866,12.4856 l 1.78,12.346 7.395,27.8213 0.885,2.3893 1.587,4.2841 c 11.003,0.7788 17.566,0.6391 28.046,0.4162 1.219,-0.026 2.496,-0.0531 3.835,-0.08 h 32.65 c 5.271,0.1582 9.156,1.3665 11.288,3.5954 0.47,0.4914 0.898,0.8379 1.334,0.8379 l 97.742,-0.8866 21.646,4.642 h 4.955 c 1.699,-3.4935 2.383,-6.345 2.697,-11.2719 0.065,-1.0149 0.114,-2.1178 0.153,-3.3326 V 48.6773 c 0,-1.3039 -0.869,-17.264 -2.996,-21.1578 z"
       stroke="#38332e"
       stroke-width="8"
       id="path80" />
    <path
       d="m 407.307,92.4622 c -9.286,1.2428 -14.556,1.3268 -24.083,0 -6.517,-0.9077 -10.812,7.0571 -10.804,10.2368 0.008,3.179 0.626,8.512 4.688,11.68 4.062,3.168 9.664,6.503 19.496,6.561 11.578,0.068 16.226,-3.128 19.049,-6.115 2.824,-2.987 4.041,-5.095 2.824,-12.126 -1.217,-7.031 -9.979,-10.3961 -11.17,-10.2368 z"
       stroke="#38332e"
       stroke-width="4"
       id="path82" />
    <path
       d="m 459.575,37.3561 c 0.677,-1.5723 2.127,-3.6022 4.117,-3.6022 h 67.237 c 1.99,0 3.602,1.6128 3.602,3.6022 v 16.0294 c 0,1.9894 -1.613,3.6022 -3.602,3.6022 h -74.952 c -0.963,0 -1.584,-0.3782 -2.23,-0.994 h -41.594 c -1.989,0 -3.602,-1.6128 -3.602,-3.6025 0,-1.9894 1.613,-3.6022 3.602,-3.6022 h 38.228 c 1.014,0 4.934,-2.3962 6.374,-5.0117 z"
       stroke="#38332e"
       stroke-width="4"
       id="path84" />
    <path
       d="m 563.635,99.8096 278.518,-1.9672 c 1.377,0 7.254,-4.8589 8.124,-10.0825 0,0 2.449,-10.7736 2.013,-16.9222 -0.435,-6.1486 -9.576,-15.5621 -19.37,-19.4797 -10.372,-4.1487 -16.959,-5.001 -27.072,-6.3096 -0.819,-0.1059 -1.66,-0.2148 -2.529,-0.3287 l -239.686,0.5985 v 0.81 c 0.941,20.8994 1.215,32.6405 0.002,53.6814 z"
       stroke="#38332e"
       stroke-width="8"
       id="path86" />
    <path
       d="m 1014.41,51.4496 c 6.89,0 12.47,-1.8493 12.47,-4.1309 0,-2.2812 -5.58,-4.1305 -12.47,-4.1305 -6.88,0 -12.47,1.8493 -12.47,4.1305 0,2.2816 5.59,4.1309 12.47,4.1309 z"
       stroke="#38332e"
       stroke-width="4"
       id="path88" />
    <path
       d="m 1026.88,39.1932 c 0,1.1353 -5.58,2.0557 -12.47,2.0557 -6.88,0 -12.47,-0.9204 -12.47,-2.0557 0,-1.1351 5.59,-2.0555 12.47,-2.0555 6.89,0 12.47,0.9204 12.47,2.0555 z"
       stroke="#38332e"
       stroke-width="4"
       id="path90" />
    <path
       d="m 1014.41,57.5003 c 6.89,0 12.47,-0.9204 12.47,-2.0555 0,-1.1354 -5.58,-2.0558 -12.47,-2.0558 -6.88,0 -12.47,0.9204 -12.47,2.0558 0,1.1351 5.59,2.0555 12.47,2.0555 z"
       stroke="#38332e"
       stroke-width="4"
       id="path92" />
  </g>
</svg>
