<svg width="46" height="17" viewBox="0 0 46 17" fill="none" xmlns="http://www.w3.org/2000/svg">
<path d="M32.948 5.44981C34.3212 7.50786 34.3462 8.68394 32.948 10.8193L37.4152 16.1455V11.6115L43.2881 14.0883L39.5793 9.27839L45.3744 6.5837L38.3044 5.8883L43.0853 0.585844L36.7069 4.20749V0.145508L32.948 5.44981Z" fill="#D9D9D9"/>
<path d="M32.4824 7.47796C32.4824 7.47796 31.1262 8.98773 30.2323 9.40973C29.0731 9.95691 27.3808 10.0704 26.444 10.0704C25.7402 10.0704 17.4424 10.0898 14.0929 10.0977C14.0141 10.8301 13.9028 11.4815 13.8144 11.555C13.6607 11.6829 13.4792 11.6248 13.421 11.5351C13.3627 11.4454 13.5008 10.5397 13.5008 10.5397L13.3012 10.0602L11.5189 10.1935C11.5144 10.1614 11.5094 10.1258 11.5041 10.087L11.0535 10.0938C11.0603 10.1439 11.0667 10.1886 11.0722 10.2269L9.50016 10.3443C9.4983 10.3326 9.49445 10.3082 9.48915 10.273C9.48323 10.2336 9.47549 10.1808 9.46671 10.1174L9.01605 10.1242C9.03754 10.2798 9.05343 10.3773 9.05343 10.3773L8.01104 10.4553L7.46246 10.4364C7.46246 10.4364 7.4447 10.324 7.42139 10.148L6.96914 10.1547C6.98393 10.2694 6.99696 10.3611 7.00555 10.418L5.41314 10.3584C5.40809 10.3261 5.39848 10.2634 5.38652 10.1783L4.93562 10.1851C4.94533 10.254 4.95341 10.3076 4.95865 10.3414L3.35992 10.2817C3.35671 10.2599 3.35317 10.2355 3.34937 10.2087L2.89837 10.2155C2.90083 10.2329 2.9032 10.2493 2.90543 10.2647L1.96207 10.2295L1.95887 10.2295C1.83491 10.5518 1.25462 10.5426 0.99653 10.5386H0.996477C0.581883 10.5386 0.432373 9.9271 0.432373 8.84932C0.432361 7.77154 0.585735 7.09907 1.00033 7.09907C1.26024 7.09449 1.83529 7.08438 1.95879 7.40486L2.8545 7.34618L2.85076 7.38964L3.30305 7.38182L3.3085 7.31903L4.90722 7.22298C4.9038 7.26021 4.89981 7.30439 4.89548 7.35431L5.34757 7.34651C5.35285 7.2862 5.35753 7.23515 5.36123 7.19584L6.96044 7.09979C6.95885 7.1158 6.95087 7.19642 6.94008 7.31899L7.3924 7.31119C7.40499 7.16781 7.41395 7.07893 7.41395 7.07893L7.95479 7.04013L9.00054 7.07361C8.99824 7.09691 8.99081 7.1727 8.98101 7.28373L9.43362 7.27593C9.44192 7.1825 9.44837 7.11604 9.45116 7.08767L11.0363 7.13812L11.0319 7.18514C11.0301 7.20412 11.0282 7.22529 11.0261 7.24842L11.4783 7.2406C11.4814 7.20678 11.4841 7.17726 11.4864 7.15266L13.2729 7.20959L13.4867 6.74833C13.4867 6.74833 13.2787 5.59079 13.421 5.50866C13.5632 5.42653 13.6931 5.41595 13.8144 5.52863C13.8843 5.59358 13.9989 6.24946 14.0834 6.98677L24.9007 7.04029C24.9007 7.04029 27.4932 7.36893 28.7913 7.44844C30.0894 7.52796 32.4824 7.47796 32.4824 7.47796Z" fill="#D9D9D9"/>
</svg>
