<svg xmlns="http://www.w3.org/2000/svg" xml:space="preserve" width="108.263" height="98.91" viewBox="0 0 28.645 26.17"><g transform="translate(86.213 -198.402)"><g style="fill:#53514f;fill-opacity:1"><path d="M68.558 220.67s-2.231-.119-3.255.249c-1.328.476-2.734 1.705-3.463 2.434s-9.917 9.873-9.917 9.873l2.424 2.423 8.65-8.736s1.762-2.274 2.71-3.346c.95-1.072 2.85-2.896 2.85-2.896" style="color:#000;fill:#53514f;fill-opacity:1;stroke-linecap:round;-inkscape-stroke:none" transform="translate(-127.422 -21.7)"/></g><path fill="#3c3936" d="M-67.43 205.783a.73.73 0 0 1 .48-.215.6.6 0 0 1 .461.174.6.6 0 0 1 .175.462.73.73 0 0 1-.216.48l-4.345 4.345a.8.8 0 0 1-.223.154.7.7 0 0 1-.257.062.6.6 0 0 1-.253-.04.6.6 0 0 1-.344-.344.6.6 0 0 1-.04-.252.7.7 0 0 1 .062-.257.8.8 0 0 1 .154-.223z" style="display:inline;fill:#141414;fill-opacity:.52;stroke:none;stroke-width:.266001;stroke-dasharray:none"/><path d="M-73.688 210.49s9.494-11.282 12.885-11.5c3.392-.219.047.187-4.035 3.92-2.881 2.634-8.202 8.204-8.202 8.204z" style="fill:#151515;fill-opacity:.521154;stroke-width:1.1;stroke-linecap:round;stroke-opacity:0;paint-order:fill markers stroke"/><path d="M-60.121 198.407c-.71.017-1.535.06-2.184.293-1.495.536-2.905 1.804-3.666 2.565-.721.721-9.916 9.87-9.916 9.87l-.39.39 3.204 3.205 9.063-9.155.02-.025s1.77-2.282 2.687-3.319c.912-1.03 2.82-2.863 2.82-2.863l.914-.879-1.265-.068s-.579-.03-1.287-.014zm-.051 1.11c-.63.615-1.287 1.23-1.955 1.986-.969 1.095-2.658 3.278-2.7 3.332l-8.25 8.334-1.644-1.645c.67-.666 8.82-8.774 9.527-9.482.698-.698 2.099-1.89 3.26-2.307.359-.128 1.117-.198 1.762-.218" style="color:#000;fill:#211e1e;fill-opacity:1;stroke-linecap:round;-inkscape-stroke:none"/><path d="m-75.721 211.699 2.414 2.414-1.82 1.821-.58-.58-.694.694.58.58-.633.633-1.128 1.128-.63-.63-.692.68.646.645-1.755 1.755-1.076-1.077-.66.644 1.074 1.075-1.43 1.43v0l-2.413-2.415 1.422-1.436 1.705 1.704.354-.95-1.431-1.431 1.754-1.754 1.885 1.885.64-.733-1.834-1.833 1.128-1.128.632-.633 1.88 1.88.694-.694-1.853-1.853z" style="fill:#77533c;fill-opacity:1;stroke:#21140d;stroke-width:1.1;stroke-linecap:square;stroke-linejoin:round;stroke-opacity:1;paint-order:fill markers stroke"/><path fill="#2b2723" stroke="#191715" stroke-linecap="round" stroke-linejoin="round" stroke-width="1.663" d="M-71.878 215.019c.007-.182-1.266-1.853-2.052-2.639-.785-.786-2.42-2.072-2.639-2.052s-.315.207-.29.322c.024.115.837.712.837.712l.217.529s.706.728 1.099 1.12 1.098 1.12 1.098 1.12l.526.194s.739 1.062.913 1.016.284-.14.291-.322z" style="fill:none;fill-opacity:1;stroke:#201d1d;stroke-width:1.1;stroke-linecap:round;stroke-linejoin:miter;stroke-dasharray:none;stroke-opacity:1"/><rect width="3.064" height=".889" x="93.079" y="217.561" rx="0" style="fill:#2e2e2e;fill-opacity:1;stroke:none;stroke-width:1.1;stroke-linecap:round;stroke-linejoin:miter;stroke-dasharray:none;stroke-opacity:1;paint-order:fill markers stroke" transform="rotate(44.127)"/><path d="M-83.977 220.354c-.565-.373-.942-.221-1-.203-.19.059-.337.151-.464.244-.253.186-.449.406-.502.459a.98.98 0 0 0-.27.703c.014.244.104.44.214.625.22.37.552.723.982 1.152.43.43.795.773 1.17 1.002.187.115.383.21.627.233a.97.97 0 0 0 .73-.262h.002c.05-.05.27-.245.457-.498a1.5 1.5 0 0 0 .246-.463c.018-.056.245-.401-.255-1.035zm1.13 2.686c-.032.214-.188.382-.338.402-.561-.321-1.596-1.364-1.869-1.822.014-.212.151-.39.38-.406.503.269 1.596 1.306 1.827 1.826" style="color:#000;display:inline;fill:#201d1d;fill-opacity:1;-inkscape-stroke:none"/></g></svg>