<?xml version="1.0" encoding="UTF-8" standalone="no"?>
<!-- Created with Inkscape (http://www.inkscape.org/) -->

<svg
   width="192.09042"
   height="25.796438"
   viewBox="0 0 50.823923 6.8253076"
   version="1.1"
   id="svg1"
   xml:space="preserve"
   sodipodi:docname="l115a1_world.svg"
   xmlns:inkscape="http://www.inkscape.org/namespaces/inkscape"
   xmlns:sodipodi="http://sodipodi.sourceforge.net/DTD/sodipodi-0.dtd"
   xmlns="http://www.w3.org/2000/svg"
   xmlns:svg="http://www.w3.org/2000/svg"><sodipodi:namedview
     id="namedview1"
     pagecolor="#505050"
     bordercolor="#ffffff"
     borderopacity="1"
     inkscape:showpageshadow="0"
     inkscape:pageopacity="0"
     inkscape:pagecheckerboard="1"
     inkscape:deskcolor="#505050"
     inkscape:document-units="mm"
     showguides="false" /><defs
     id="defs1"><inkscape:path-effect
       effect="mirror_symmetry"
       start_point="97.29225,174.29901"
       end_point="104.41947,174.20332"
       center_point="100.85586,174.25117"
       id="path-effect56"
       is_visible="true"
       lpeversion="1.2"
       lpesatellites=""
       mode="free"
       discard_orig_path="false"
       fuse_paths="false"
       oposite_fuse="false"
       split_items="false"
       split_open="false"
       link_styles="false" /><inkscape:path-effect
       effect="mirror_symmetry"
       start_point="47.380207,174.238"
       end_point="52.659615,174.26722"
       center_point="50.019911,174.25261"
       id="path-effect32"
       is_visible="true"
       lpeversion="1.2"
       lpesatellites=""
       mode="free"
       discard_orig_path="false"
       fuse_paths="false"
       oposite_fuse="false"
       split_items="false"
       split_open="false"
       link_styles="false" /><inkscape:path-effect
       effect="mirror_symmetry"
       start_point="48.736423,174.419"
       end_point="67.806807,174.36176"
       center_point="58.271615,174.39038"
       id="path-effect21"
       is_visible="true"
       lpeversion="1.2"
       lpesatellites=""
       mode="free"
       discard_orig_path="false"
       fuse_paths="false"
       oposite_fuse="false"
       split_items="false"
       split_open="false"
       link_styles="false" /><style
       id="style1">
      .cls-1, .cls-2, .cls-3, .cls-4, .cls-5, .cls-6, .cls-7, .cls-8, .cls-9 {
        stroke: #171200;
        stroke-miterlimit: 11.3386;
      }

      .cls-1, .cls-2, .cls-3, .cls-4, .cls-5, .cls-8 {
        stroke-linecap: round;
        stroke-width: 1.5px;
      }

      .cls-1, .cls-4, .cls-5, .cls-6, .cls-7, .cls-8, .cls-9 {
        fill-rule: evenodd;
      }

      .cls-1, .cls-9 {
        fill: #883c2b;
      }

      .cls-2 {
        fill: none;
      }

      .cls-3 {
        fill: #4f4644;
      }

      .cls-10 {
        fill: #171414;
      }

      .cls-11 {
        fill: #171717;
      }

      .cls-12 {
        fill: #262121;
      }

      .cls-4 {
        fill: #766866;
      }

      .cls-5 {
        fill: #8d857c;
      }

      .cls-6 {
        fill: #9a9088;
      }

      .cls-6, .cls-7, .cls-9 {
        stroke-linecap: square;
        stroke-width: 3px;
      }

      .cls-7 {
        fill: #3d3d3d;
      }

      .cls-8 {
        fill: #5b5553;
      }
    </style><style
       id="style1-4">
      .cls-1 {
        fill: #181616;
        stroke-miterlimit: 15.12;
      }

      .cls-1, .cls-2, .cls-3, .cls-4, .cls-5, .cls-6, .cls-7, .cls-8, .cls-9, .cls-10, .cls-11 {
        stroke-width: 3px;
      }

      .cls-1, .cls-4, .cls-6, .cls-7, .cls-10 {
        stroke: #181616;
      }

      .cls-2 {
        stroke: #181716;
      }

      .cls-2, .cls-4 {
        fill: #716d69;
      }

      .cls-3, .cls-5 {
        fill: #79391d;
        stroke: #251109;
      }

      .cls-4, .cls-5, .cls-6, .cls-7, .cls-12, .cls-13 {
        fill-rule: evenodd;
      }

      .cls-6 {
        fill: #4d4946;
      }

      .cls-7 {
        fill: #3e3b38;
      }

      .cls-12 {
        fill: #793a1d;
      }

      .cls-13 {
        fill: #544e4e;
      }

      .cls-8 {
        stroke: #251209;
      }

      .cls-8, .cls-9, .cls-10, .cls-11 {
        fill: none;
      }

      .cls-9 {
        stroke: #44403d;
      }

      .cls-11 {
        stroke: #524e4b;
      }
    </style><style
       id="style1-48">
      .cls-1 {
        fill: #242424;
      }

      .cls-1, .cls-2 {
        stroke: #171717;
        stroke-width: 2px;
      }

      .cls-1, .cls-2, .cls-3, .cls-4, .cls-5, .cls-6, .cls-7 {
        stroke-miterlimit: 5.89;
      }

      .cls-2 {
        fill: #464646;
      }

      .cls-8 {
        fill: #23262a;
      }

      .cls-9, .cls-7 {
        fill: #2a2f33;
      }

      .cls-3 {
        fill: #272c22;
      }

      .cls-3, .cls-4, .cls-5, .cls-6, .cls-7 {
        stroke-width: 3px;
      }

      .cls-3, .cls-5 {
        stroke: #171a14;
      }

      .cls-4, .cls-5 {
        fill: #424b3b;
      }

      .cls-4, .cls-6 {
        stroke: #161a14;
      }

      .cls-6 {
        fill: #404c39;
      }

      .cls-7 {
        stroke: #24282b;
      }
    </style><style
       id="style2">
      .cls-1 {
        fill: #242424;
      }

      .cls-2 {
        fill: #242423;
      }

      .cls-3 {
        fill: #46494b;
      }

      .cls-4 {
        fill: #636565;
      }

      .cls-5 {
        fill: #37393b;
      }

      .cls-5, .cls-6, .cls-7, .cls-8, .cls-9, .cls-10 {
        stroke-linecap: round;
      }

      .cls-5, .cls-6, .cls-7, .cls-8, .cls-9, .cls-10, .cls-11, .cls-12 {
        stroke-width: 3px;
      }

      .cls-5, .cls-7, .cls-9 {
        stroke: #151617;
      }

      .cls-6 {
        fill: #3f4949;
      }

      .cls-6, .cls-8, .cls-10 {
        stroke: #141717;
      }

      .cls-7 {
        fill: #242526;
      }

      .cls-8 {
        fill: #3d3d3d;
      }

      .cls-9 {
        fill: #323836;
      }

      .cls-10 {
        fill: #33393a;
      }

      .cls-11 {
        fill: #454a4a;
        stroke: #151717;
      }

      .cls-11, .cls-12 {
        stroke-miterlimit: 10;
      }

      .cls-12 {
        fill: #9b9d9e;
        stroke: #171717;
      }
    </style><inkscape:path-effect
       effect="mirror_symmetry"
       start_point="47.380207,174.238"
       end_point="52.659615,174.26722"
       center_point="50.019911,174.25261"
       id="path-effect32-7"
       is_visible="true"
       lpeversion="1.2"
       lpesatellites=""
       mode="free"
       discard_orig_path="false"
       fuse_paths="false"
       oposite_fuse="false"
       split_items="false"
       split_open="false"
       link_styles="false" /><inkscape:path-effect
       effect="mirror_symmetry"
       start_point="48.736423,174.419"
       end_point="67.806807,174.36176"
       center_point="58.271615,174.39038"
       id="path-effect21-9"
       is_visible="true"
       lpeversion="1.2"
       lpesatellites=""
       mode="free"
       discard_orig_path="false"
       fuse_paths="false"
       oposite_fuse="false"
       split_items="false"
       split_open="false"
       link_styles="false" /></defs><g
     inkscape:label="Layer 1"
     inkscape:groupmode="layer"
     id="layer1"
     transform="translate(-49.559573,-171.94656)"><path
       style="fill:#565b3e;fill-opacity:1;stroke:none;stroke-width:0.79375;stroke-dasharray:none;stroke-opacity:1"
       d="m 60.804557,172.73158 v 2.97656 l 3.522265,0.36381 17.363281,-0.42995 0.04961,-2.61276 -17.644401,-0.678 z"
       id="path75" /><path
       style="fill:#333333;fill-opacity:1;stroke:none;stroke-width:1;stroke-dasharray:none;stroke-opacity:1"
       d="m 51.365218,172.68883 -1.254563,-0.0234 v 3.24114 l 1.450507,0.0585 z"
       id="path49"
       sodipodi:nodetypes="ccccc" /><path
       style="fill:none;stroke:#171717;stroke-width:0.79153;stroke-dasharray:none;stroke-opacity:1"
       d="m 51.548663,172.66528 -0.572142,-0.001 c -0.180347,-0.0299 -0.309366,-0.0755 -0.420257,-0.0734 -0.356366,0.006 -0.674002,0.27256 -0.672392,0.60934 l -0.0043,1.51148 m 1.651427,1.14506 -0.572118,-0.005 c -0.180667,0.0279 -0.310183,0.0721 -0.421044,0.0687 -0.356277,-0.01 -0.670943,-0.28001 -0.665606,-0.61675 l 0.01243,-1.51144"
       id="path32"
       inkscape:path-effect="#path-effect32"
       inkscape:original-d="m 51.548663,172.66528 -0.572142,-0.001 c -0.180347,-0.0299 -0.309366,-0.0755 -0.420257,-0.0734 -0.356366,0.006 -0.674002,0.27256 -0.672392,0.60934 l -0.0043,1.51148"
       sodipodi:nodetypes="ccccc"
       transform="matrix(0.99864846,0,0,1.0069782,0.15005163,-1.1615306)" /><path
       style="fill:#333333;fill-opacity:1;stroke:none;stroke-width:0.853075;stroke-dasharray:none;stroke-opacity:1"
       d="m 59.092132,172.86451 c 0,0 -0.136145,2.94314 0,2.91156 0.136144,-0.0316 1.971912,0 1.971912,0 v -2.99342 z"
       id="path55" /><path
       style="fill:#171717;fill-opacity:1;stroke:#171717;stroke-width:0.79375;stroke-dasharray:none;stroke-opacity:1"
       d="m 58.611484,172.8715 h 2.154275"
       id="path52"
       sodipodi:nodetypes="cc" /><path
       style="fill:#575c3d;fill-opacity:1;stroke:none;stroke-width:0.79375;stroke-dasharray:none;stroke-opacity:1"
       d="m 51.345702,172.6489 v 3.14193 l 7.995378,0.0827 0.05788,-3.07579 z"
       id="path53"
       sodipodi:nodetypes="ccccc" /><path
       style="fill:#4d4d4d;fill-opacity:1;stroke:#171717;stroke-width:0.79375;stroke-dasharray:none;stroke-opacity:1"
       d="m 59.260505,175.7135 h 1.47628"
       id="path52-9"
       sodipodi:nodetypes="cc" /><path
       style="fill:none;stroke:#1a1c12;stroke-width:0.79375;stroke-dasharray:none;stroke-opacity:1"
       d="m 52.449323,174.77026 v -1.97167 l 3.314189,-0.0351 c 0.632174,0.0264 3.489698,0.21303 4.617458,0.20873 v 1.70681 m -7.933823,-0.63357 0.01184,1.97163 3.31434,0.0152 c 0.632004,-0.0302 3.488357,-0.23398 4.616122,-0.23645 l -0.01025,-1.70678"
       id="path21"
       inkscape:path-effect="#path-effect21"
       inkscape:original-d="m 52.449323,174.77026 v -1.97167 l 3.314189,-0.0351 c 0.632174,0.0264 3.489698,0.21303 4.617458,0.20873 v 1.70681"
       transform="translate(-0.98519533,-0.0931288)"
       sodipodi:nodetypes="ccccc" /><circle
       style="fill:#171717;fill-opacity:1;stroke:none;stroke-width:0.483608;stroke-dasharray:none;stroke-opacity:1"
       id="path54"
       cx="60.49617"
       cy="172.51021"
       r="0.40251812" /><path
       style="fill:none;fill-opacity:1;stroke:#171717;stroke-width:0.79375;stroke-dasharray:none;stroke-opacity:1"
       d="m 80.601068,175.12454 4.798567,0.89564"
       id="path77-1"
       sodipodi:nodetypes="cc" /><path
       style="fill:none;fill-opacity:1;stroke:#171717;stroke-width:0.79375;stroke-dasharray:none;stroke-opacity:1"
       d="m 80.608627,173.56065 4.798567,-0.89564"
       id="path77"
       sodipodi:nodetypes="cc" /><path
       style="fill:none;stroke:#1a1c12;stroke-width:0.79375;stroke-dasharray:none;stroke-opacity:1"
       d="m 37.632656,174.77026 -0.0058,-0.82936 c -0.02061,-0.40912 0.213254,-0.73828 0.599269,-0.74684 l 17.52574,-0.61767 c 0.632174,0.0264 1.905624,0.39611 3.033384,0.39181 l 0.0083,1.71083 m -21.162802,-0.54463 -8.21e-4,0.82938 c -0.01815,0.40924 0.217682,0.73699 0.603742,0.74323 l 17.529132,0.51245 c 0.632004,-0.0302 1.903212,-0.40754 3.030977,-0.41001 l -0.002,-1.71085"
       id="path21-4"
       inkscape:path-effect="#path-effect21-9"
       inkscape:original-d="m 37.632656,174.77026 -0.0058,-0.82936 c -0.02061,-0.40912 0.213254,-0.73828 0.599269,-0.74684 l 17.52574,-0.61767 c 0.632174,0.0264 1.905624,0.39611 3.033384,0.39181 l 0.0083,1.71083"
       transform="matrix(-1,0,0,1,119.67831,-0.10207114)"
       sodipodi:nodetypes="cccccc" /><path
       style="fill:#999999;fill-opacity:1;stroke:#171717;stroke-width:0.78906;stroke-dasharray:none;stroke-opacity:1"
       d="m 64.737601,173.67781 h -2.082109 c -0.917329,0.0183 -0.907241,1.34362 0,1.32442 h 2.086249"
       id="path61"
       sodipodi:nodetypes="cccc" /><path
       style="fill:#333333;fill-opacity:1;stroke:none;stroke-width:1;stroke-dasharray:none;stroke-opacity:1"
       d="m 51.494773,174.07681 6.250717,0.041 -0.10082,1.47742 c -0.01845,-3.5e-4 -6.145544,-0.0294 -6.145544,-0.0294 z"
       id="path50"
       sodipodi:nodetypes="ccccc" /><path
       style="fill:none;stroke:#171717;stroke-width:0.79153;stroke-dasharray:none;stroke-opacity:1"
       d="m 56.645458,174.37919 -4.1e-4,-0.2511 c -2.54e-4,-0.40857 -0.314772,-0.62877 -0.597838,-0.62981 l -5.490963,-0.009 c -0.356366,0.006 -0.674002,0.27256 -0.672392,0.60934 l -0.0043,0.44927 m 6.766898,-0.34851 -0.0032,0.25108 c -0.0048,0.40854 -0.321713,0.62524 -0.604773,0.62315 l -5.490726,-0.0518 c -0.356278,-0.01 -0.670944,-0.28 -0.665606,-0.61675 l 6.73e-4,-0.44929"
       id="path32-7"
       inkscape:path-effect="#path-effect32-7"
       inkscape:original-d="m 56.645458,174.37919 -4.1e-4,-0.2511 c -2.54e-4,-0.40857 -0.314772,-0.62877 -0.597838,-0.62981 l -5.490963,-0.009 c -0.356366,0.006 -0.674002,0.27256 -0.672392,0.60934 l -0.0043,0.44927"
       sodipodi:nodetypes="cccccc"
       transform="matrix(0.99864846,0,0,1.0069782,1.3203321,-0.69705379)" /><path
       style="fill:#333333;fill-opacity:1;stroke:none;stroke-width:0.79375;stroke-dasharray:none;stroke-opacity:1"
       d="m 94.865647,173.7332 1.520094,-0.61973 c 0,0 3.405389,-0.0421 3.332517,0 -0.07287,0.0421 0.0713,2.29924 0,2.28014 -0.07131,-0.0191 -3.25651,0.0526 -3.30913,0 -0.05262,-0.0526 -1.473322,-0.61973 -1.473322,-0.61973 z"
       id="path57" /><path
       style="fill:#333333;fill-opacity:1;stroke:#171717;stroke-width:0.396875;stroke-dasharray:none;stroke-opacity:1"
       d="m 85.450188,175.76326 -0.121864,0.52829 0.583891,0.13469 -0.01541,0.0539 c 0.07043,-0.0141 0.314299,-0.11096 0.358542,-0.21475 0.02285,-0.12753 -0.07107,-0.34659 -0.192669,-0.43929 l -0.02314,0.0745 z"
       id="path78-2"
       sodipodi:nodetypes="cccccccc" /><rect
       style="fill:#333333;fill-opacity:1;stroke:#171717;stroke-width:0.79375;stroke-dasharray:none;stroke-opacity:1"
       id="rect55"
       width="30.995876"
       height="1.3037689"
       x="63.943699"
       y="173.68047"
       ry="0" /><path
       style="fill:#262626;fill-opacity:1;stroke:none;stroke-width:0.79375;stroke-dasharray:none;stroke-opacity:1"
       d="m 96.485977,173.60257 c -0.5424,0.66557 -0.470461,0.64376 0,1.39733 l -1.345417,-0.32203 v -1.06704 z"
       id="path58"
       sodipodi:nodetypes="ccccc" /><path
       style="fill:none;fill-opacity:1;stroke:#171717;stroke-width:0.79375;stroke-dasharray:none;stroke-opacity:1"
       d="m 98.549022,173.69896 1.473798,-0.49076 h 3.63891 l 0.0248,1.15281 m -5.121852,0.50409 1.486442,0.45102 3.6376,-0.0977 -0.006,-1.15306"
       id="path56"
       inkscape:path-effect="#path-effect56"
       inkscape:original-d="m 98.549022,173.69896 1.473798,-0.49076 h 3.63891 l 0.0248,1.15281"
       sodipodi:nodetypes="cccc"
       transform="translate(-3.7041668,0.03307292)" /><path
       style="fill:#333333;fill-opacity:1;stroke:#171717;stroke-width:0.396875;stroke-dasharray:none;stroke-opacity:1"
       d="m 63.002109,177.19635 0.94876,-1.14628 c 0.06096,-0.0744 0.144097,-0.20181 0.150387,-0.38256 l -3.4e-5,-1.16056 h 0.678196 l -0.02894,1.20745 c -0.0032,0.23762 -0.05662,0.36125 -0.190386,0.54665 l -1.124788,1.31916 z"
       id="path60"
       sodipodi:nodetypes="ccccccccc" /><g
       id="g58"
       transform="translate(-10.003737,-15.703752)"><path
         id="path12-2-8"
         class="cls-1"
         d="m 83.682416,190.37299 v -0.68527 c 0,-0.0847 -0.07673,-0.15346 -0.171979,-0.15346 h -8.355541 c -0.09525,0 -0.171979,0.0688 -0.171979,0.15346 v 0.68527 c 0,0.0847 0.07673,0.15346 0.171979,0.15346 h 8.355541 c 0.09525,0 0.171979,-0.0688 0.171979,-0.15346 z"
         style="fill:#4d4d4d;fill-opacity:1;fill-rule:evenodd;stroke:#171717;stroke-width:0.529167px;stroke-linecap:round;stroke-miterlimit:5.89" /><path
         id="path14-5-0"
         class="cls-1"
         d="m 75.393021,189.53955 c 0.0053,0.0132 0,0.0503 0,0.0503 v 0.87577 c 0,0 0.01058,0.037 0,0.0476 -0.01058,0.0185 -0.04762,0.0238 -0.04762,0.0238 l -0.767292,0.12965 -1.013354,0.0132 c -0.04233,0 -0.07673,-0.0291 -0.07673,-0.0661 v -1.16417 c 0,-0.037 0.0344,-0.0661 0.07673,-0.0661 l 1.010708,-0.0106 0.772584,0.14552 c 0,0 0.03969,0.0106 0.04233,0.0185 h 0.0026 z"
         style="fill:#4d4d4d;fill-opacity:1;fill-rule:evenodd;stroke:#171717;stroke-width:0.529167px;stroke-linecap:round;stroke-miterlimit:5.89" /><path
         id="path16-1-3"
         class="cls-1"
         d="m 81.10802,190.62699 c -0.0079,-0.0212 0,-0.0741 0,-0.0741 v -1.04775 c 0,0 -0.01852,-0.0529 -0.0053,-0.0688 0.02117,-0.0265 0.08467,0 0.08467,0 l 2.680229,-0.3175 1.254125,-0.008 c 0.07408,0 0.132292,0.0423 0.132292,0.0979 l 0.0079,1.63777 c 0,0.0529 -0.05821,0.0979 -0.132291,0.0979 H 83.899332 L 81.17677,190.6375 c 0,0 -0.06615,0 -0.07144,-0.008 v 0 z"
         style="fill:#4d4d4d;fill-opacity:1;fill-rule:evenodd;stroke:#171717;stroke-width:0.529167px;stroke-linecap:round;stroke-miterlimit:5.89" /><path
         id="path18-2"
         class="cls-1"
         d="m 78.643856,190.02903 c 0,0.42598 0.386292,0.77259 0.862542,0.77259 0.47625,0 0.862541,-0.34661 0.862541,-0.77259 0,-0.42598 -0.386291,-0.77258 -0.862541,-0.77258 -0.47625,0 -0.862542,0.3466 -0.862542,0.77258 z"
         style="fill:#4d4d4d;fill-opacity:1;fill-rule:evenodd;stroke:#171717;stroke-width:0.529167px;stroke-linecap:round;stroke-miterlimit:5.89" /><path
         id="path20-0"
         class="cls-2"
         d="m 82.203395,190.69578 v -1.3335 c 0,-0.10318 -0.0926,-0.1852 -0.206375,-0.1852 h -0.66675 c -0.116417,0 -0.206375,0.082 -0.206375,0.1852 v 1.33615 c 0,0.10319 0.0926,0.18521 0.206375,0.18521 h 0.66675 c 0.116417,0 0.206375,-0.082 0.206375,-0.18521 v 0 z"
         style="fill:#262626;fill-opacity:1;stroke:#171717;stroke-width:0.529167px;stroke-linecap:round;stroke-miterlimit:5.89" /><path
         id="path22-1"
         class="cls-2"
         d="m 77.863703,190.55291 v -1.04775 c 0,-0.10319 -0.0926,-0.18521 -0.206375,-0.18521 h -0.66675 c -0.116417,0 -0.206375,0.082 -0.206375,0.18521 v 1.04775 c 0,0.10319 0.0926,0.18521 0.206375,0.18521 h 0.66675 c 0.116417,0 0.206375,-0.082 0.206375,-0.18521 z"
         style="fill:#262626;fill-opacity:1;stroke:#171717;stroke-width:0.529167px;stroke-linecap:round;stroke-miterlimit:5.89" /></g><circle
       style="fill:#404040;fill-opacity:1;stroke:#171717;stroke-width:0.396875;stroke-dasharray:none;stroke-opacity:1"
       id="path59"
       cx="62.767208"
       cy="177.81651"
       r="0.75691879" /><path
       style="fill:#333333;fill-opacity:1;stroke:#171717;stroke-width:0.396875;stroke-dasharray:none;stroke-opacity:1"
       d="m 85.457747,172.92193 -0.121864,-0.52829 0.583891,-0.13469 -0.01541,-0.0539 c 0.07043,0.0141 0.314299,0.11096 0.358542,0.21475 0.02285,0.12753 -0.07107,0.34659 -0.192669,0.43929 l -0.02314,-0.0745 z"
       id="path78"
       sodipodi:nodetypes="cccccccc" /></g></svg>
