<svg width="111" height="110" viewBox="0 0 111 110" fill="none" xmlns="http://www.w3.org/2000/svg">
<g clip-path="url(#clip0_616_1148)">
<path d="M37.9694 53.742L39.3157 52.9647L39.4615 53.2172L40.3029 52.7314L40.1571 52.4789L41.3351 51.7988L41.4809 52.0512L42.4906 51.4683L42.3449 51.2158L43.2705 50.6815L43.4162 50.9339L44.1735 50.4967L44.0278 50.2442L44.7851 49.807L44.9308 50.0594L45.6039 49.6708L45.4582 49.4184L46.1313 49.0297L46.2771 49.2822L47.0344 48.8449L48.4432 51.285L31.951 60.8067L30.5422 58.3667L31.2995 57.9295L31.1538 57.677L31.8269 57.2884L31.9727 57.5408L32.6458 57.1522L32.5001 56.8998L33.2574 56.4625L33.4031 56.715L34.1604 56.2777L34.0147 56.0253L34.9402 55.4909L35.086 55.7433L36.0957 55.1604L35.95 54.9079L37.128 54.2278L37.2737 54.4802L38.1152 53.9944L37.9694 53.742Z" fill="#585450" stroke="#363330" stroke-width="0.773016" stroke-miterlimit="3.99393"/>
<path d="M88.9807 32.6972L87.7188 33.4258L89.5158 36.5384L90.7777 35.8098L88.9807 32.6972Z" fill="#423F3C" stroke="#363331" stroke-width="0.773016" stroke-miterlimit="3.99393"/>
<path d="M12.8383 83.2796L12.5859 83.717C12.507 83.8523 12.5524 84.0281 12.6877 84.107L13.6775 84.6768C13.6399 84.7911 13.6215 84.9201 13.6416 85.0595C13.652 85.1322 13.6592 85.2067 13.6662 85.2794C13.709 85.7256 13.7455 86.1057 14.4995 85.5739C15.3765 84.9554 14.758 84.0784 14.758 84.0784C14.758 84.0784 14.7283 83.9176 14.4637 83.9732C14.4428 83.9094 14.3996 83.8527 14.3374 83.8164L13.2283 83.1778C13.093 83.0989 12.9172 83.1443 12.8383 83.2796Z" fill="#403A35" stroke="#38332F" stroke-width="0.386508" stroke-miterlimit="3.99393"/>
<path d="M9.09618 87.6814L10.8632 86.6612C11.0062 86.5786 11.1788 86.6249 11.2614 86.7679L11.5043 87.1886C11.5868 87.3316 11.5406 87.5042 11.3976 87.5867L9.63054 88.6069C9.48749 88.6895 9.31495 88.6433 9.23237 88.5003L8.98948 88.0796C8.91176 87.9449 8.95314 87.764 9.09618 87.6814Z" fill="#403A35" stroke="#38332F" stroke-width="0.773016" stroke-miterlimit="3.99393"/>
<path d="M3.56041 78.835L4.76428 78.0054C4.99016 77.8525 5.28926 77.9042 5.44211 78.1301L6.0522 79.0119C6.20504 79.2378 6.15334 79.5369 5.92746 79.6897L4.72359 80.5194C4.49771 80.6722 4.1986 80.6205 4.04576 80.3947L3.43567 79.5129C3.28283 79.287 3.34294 78.983 3.56041 78.835Z" fill="#403A35" stroke="#38332F" stroke-width="0.773016" stroke-miterlimit="3.99393"/>
<path d="M26.8015 61.4167L26.2969 61.708L26.8795 62.7172L27.3841 62.4258L26.8015 61.4167Z" fill="#403A35" stroke="#38332F" stroke-width="0.777266" stroke-miterlimit="3.99393"/>
<path d="M19.985 69.1711C19.985 69.1711 16.3746 71.0985 14.6156 73.9203C12.8565 76.7421 11.0815 75.9607 11.0815 75.9607L0.904884 82.6439C0.904884 82.6439 -0.108658 83.4534 0.587219 84.3867C1.2831 85.3199 2.87463 87.3964 4.76795 90.9478L5.31202 91.8901C5.31202 91.8901 5.63628 92.7238 6.67827 91.8081C7.72027 90.8924 10.0865 88.0342 10.0865 88.0342L11.4139 86.7966C11.4139 86.7966 14.2071 79.6644 22.8585 73.8955L19.985 69.1711Z" fill="#815232" stroke="#492F1D" stroke-width="0.773016" stroke-miterlimit="3.99393"/>
<path d="M50.0473 48.8142L88.8376 26.4186C88.8376 26.4186 90.0851 25.6646 91.4089 25.2369C92.7326 24.8092 95.0757 23.2321 95.0757 23.2321L104.584 17.7423L108.082 23.8003L95.7797 30.903C95.7797 30.903 94.9906 31.2464 94.6315 31.7903C94.2724 32.3342 90.7869 34.4587 90.7869 34.4587C90.7869 34.4587 90.3176 34.6175 88.8872 35.4433L53.9675 55.6042L50.0473 48.8142Z" fill="#494746" stroke="#343332" stroke-width="0.773016" stroke-miterlimit="3.99393"/>
<path d="M34.6081 67.6041C34.6081 67.6041 34.6044 68.4139 34.993 69.0871C35.3817 69.7602 35.6827 69.6986 35.6827 69.6986C35.6827 69.6986 35.7668 69.65 35.5855 69.5303C35.4042 69.4106 34.9445 69.0029 34.941 68.2196C34.9375 67.4363 34.9469 67.3748 34.9469 67.3748L34.5643 67.5284L34.6081 67.6041Z" fill="#36383A" stroke="#313234" stroke-width="0.386508" stroke-miterlimit="3.99393"/>
<path d="M38.2868 64.8275C38.2868 64.8275 41.7891 68.1343 44.0254 66.9553C46.2617 65.7764 45.5782 63.8151 45.5782 63.8151L44.1354 61.3162L38.2868 64.8275Z" fill="#403A35" stroke="#38332F" stroke-width="0.773016" stroke-miterlimit="3.99393"/>
<path d="M37.8805 64.6678L24.8157 72.5473L25.9841 72.4337C25.9841 72.4337 29.5633 69.6941 30.2182 73.3547C30.8731 77.0152 31.2036 78.1706 31.2036 78.1706C31.2036 78.1706 31.2817 79.4718 32.2203 79.1543L35.5054 78.0429C35.5054 78.0429 36.6478 77.4955 35.6797 76.596C35.6797 76.596 35.1714 76.1042 35.1679 75.3209C35.1645 74.5376 34.7689 72.2979 34.7689 72.2979C34.7689 72.2979 34.1374 71.2041 35.1471 70.6211L37.2507 69.4066C37.2507 69.4066 37.6714 69.1637 37.7521 68.3319C37.8328 67.5 38.5059 67.1113 38.5059 67.1113L37.923 66.1017C37.923 66.1017 37.8179 65.22 38.2231 65.0085C38.6282 64.797 37.8805 64.6678 37.8805 64.6678ZM37.0694 69.2869L34.9658 70.5014C34.9658 70.5014 33.8234 71.0489 33.1919 69.955C32.5604 68.8612 33.8581 67.9998 33.8581 67.9998L35.4736 67.0671C35.4736 67.0671 36.8142 66.6296 37.3486 67.5552C37.8829 68.4807 37.0778 69.2821 37.0694 69.2869Z" fill="#403A35" stroke="#38332F" stroke-width="0.773016" stroke-miterlimit="3.99393"/>
<path d="M87.0164 26.5736L86.3655 25.4462C86.2878 25.3115 86.334 25.139 86.4686 25.0613L87.4952 24.4686C87.6298 24.3909 87.8024 24.4371 87.8801 24.5717L88.531 25.6992L93.1799 33.7513L91.6653 34.6257L87.0164 26.5736Z" fill="#414447" stroke="#313335" stroke-width="0.773016" stroke-miterlimit="3.99393"/>
<path d="M54.3097 46.0955L52.7109 47.0186L56.8886 54.2545L58.4874 53.3315L54.3097 46.0955Z" fill="#414447" stroke="#313335" stroke-width="0.773016" stroke-miterlimit="3.99393"/>
<path d="M103.726 18.0132L104.23 17.7217C104.508 17.5614 104.866 17.6574 105.027 17.9351L108.136 23.32C108.296 23.5976 108.2 23.956 107.922 24.1163L107.417 24.4078C107.14 24.5681 106.781 24.4721 106.621 24.1944L103.512 18.8095C103.352 18.5319 103.448 18.1735 103.726 18.0132Z" fill="#414447" stroke="#313335" stroke-width="0.773016" stroke-miterlimit="3.99393"/>
<path d="M94.9766 23.0654L97.2484 21.7538L101.183 28.569C101.183 28.569 101.531 28.7832 101.092 29.1491C100.652 29.515 101.005 29.8725 101.005 29.8725C101.005 29.8725 101.273 30.2787 100.805 30.5374C100.337 30.7962 100.153 30.4765 100.153 30.4765C100.153 30.4765 99.9456 29.9231 99.609 30.1174C99.2724 30.3117 98.9114 29.8807 98.9114 29.8807L94.9766 23.0654Z" fill="#414447" stroke="#313335" stroke-width="0.773016" stroke-miterlimit="3.99393"/>
<path d="M50.1012 48.525L48.25 49.5938L52.4277 56.8297L54.2789 55.761L50.1012 48.525Z" fill="#414447" stroke="#313335" stroke-width="0.773016" stroke-miterlimit="3.99393"/>
<path fill-rule="evenodd" clip-rule="evenodd" d="M26.9794 60.8643L26.7438 61.0003C26.7186 61.0149 26.7079 61.0547 26.7225 61.08L27.4706 62.3757L19.4769 66.9908C19.4769 66.9908 19.4193 68.1347 19.9819 69.1674C20.1911 69.5516 20.6482 70.3106 21.1378 71.109L17.9877 73.5834C17.709 73.8003 17.6674 74.1946 17.8843 74.4732C18.1049 74.7385 18.4956 74.7934 18.7742 74.5765L21.8073 72.194C22.3812 73.1192 22.8589 73.8785 22.8589 73.8785L44.1557 61.5828C44.1557 61.5828 44.7212 62.7371 45.2616 62.3129C45.802 61.8887 45.8471 61.1896 45.8471 61.1896C45.8471 61.1896 45.9446 60.348 47.2825 59.5756L52.6677 56.4664L49.6268 51.1993L32.5456 61.0611L31.8461 59.8495L27.8071 62.1814L27.059 60.8857C27.0445 60.8604 27.0046 60.8497 26.9794 60.8643ZM36.2302 64.7226L24.4501 71.5238L24.11 70.9349L35.8902 64.1336L36.2302 64.7226Z" fill="#403A35" stroke="#38332F" stroke-width="0.773016" stroke-miterlimit="3.99393"/>
<path d="M43.1507 65.44C43.7084 65.118 43.9212 64.4426 43.6261 63.9315C43.331 63.4203 42.6396 63.2669 42.082 63.5889C41.5243 63.9109 41.3115 64.5862 41.6066 65.0974C41.9017 65.6086 42.593 65.7619 43.1507 65.44Z" fill="#7F797B" stroke="#615C5E" stroke-width="0.773016" stroke-miterlimit="3.99393"/>
<path fill-rule="evenodd" clip-rule="evenodd" d="M26.1745 61.6668L19.1643 65.7702L20.0955 65.9619L19.2697 66.4386L20.047 67.7848L27.5105 63.4757L26.6653 62.0117C26.6653 62.0117 26.6584 61.9922 26.6337 61.9764L26.5063 61.7557C26.4383 61.6379 26.2923 61.5988 26.1745 61.6668Z" fill="#544944" stroke="#39312D" stroke-width="0.773016" stroke-miterlimit="3.99393"/>
<path fill-rule="evenodd" clip-rule="evenodd" d="M62.9322 52.2908L58.4202 52.8316C58.4202 52.8316 57.5919 53.8259 58.2219 54.3147C58.4811 54.5158 58.9758 54.7271 59.4684 54.9061C59.0382 55.1924 58.4803 55.6562 58.6947 56.0275C58.7384 56.1032 58.8193 56.1462 58.9158 56.1578C59.591 56.2392 61.3052 55.1037 61.3052 55.1037L63.7435 53.6959L63.9766 54.0998L65.0284 53.4925L64.8001 53.0971L71.5064 49.2252L71.657 49.486L74.0214 48.1209L73.8708 47.8601L86.9552 40.3059L86.1391 38.8923L73.0547 46.4466L72.909 46.1942L70.5445 47.5593L70.6903 47.8117L63.984 51.6835L63.095 50.1438L62.0432 50.7511L62.9322 52.2908Z" fill="#494746" stroke="#343332" stroke-width="0.773016" stroke-miterlimit="3.99393"/>
<path d="M79.1305 31.4526L82.025 29.7815L85.6246 36.0162C85.6246 36.0162 87.1401 38.058 86.6436 38.3447C86.1472 38.6313 86.4632 38.9649 86.4632 38.9649L86.9441 39.7979C86.9441 39.7979 87.4087 40.214 86.3569 40.8212C85.6333 41.239 85.2467 40.7442 85.2467 40.7442L84.7635 39.9462C84.7635 39.9462 84.621 39.6022 84.175 39.8597C83.7751 40.0906 82.9239 38.1335 82.7301 37.6873L79.1305 31.4526Z" fill="#414447" stroke="#313335" stroke-width="0.773016" stroke-miterlimit="3.99393"/>
<path d="M35.8887 64.1348L38.7496 62.483L39.3325 63.4927L37.5655 64.5129L37.3226 64.0922L36.2287 64.7237L35.8887 64.1348Z" fill="#403A35" stroke="#38332F" stroke-width="0.777266" stroke-miterlimit="3.99393" stroke-linecap="round"/>
<path d="M21.6795 66.7289L31.1354 61.3818C31.1354 61.3818 31.5243 61.045 31.3786 60.7926L31.2329 60.5402C31.2329 60.5402 31.0525 60.3638 31.3302 60.2035L31.6163 60.0383C31.6163 60.0383 31.7603 59.8991 31.9546 60.2357L32.489 61.1612L48.6511 51.9422L49.0345 52.6063L49.797 52.1781L52.1352 56.3252L48.0963 58.657C48.4138 59.5956 47.3555 60.0944 47.3555 60.0944L44.4231 55.2322L22.2016 67.8859L21.6002 66.7859L21.6844 66.7373L21.6795 66.7289Z" fill="#464548" stroke="#323234" stroke-width="0.386508" stroke-miterlimit="3.99393"/>
<path d="M34.2706 61.8745L40.1355 58.4884C40.3963 58.3378 40.7365 58.4218 40.892 58.6911L41.1689 59.1707C41.3195 59.4315 41.2354 59.7717 40.9661 59.9272L35.1013 63.3132C34.8405 63.4638 34.5003 63.3798 34.3448 63.1106L34.0679 62.631C33.9125 62.3617 34.0014 62.0299 34.2706 61.8745Z" fill="#858585" stroke="#575757" stroke-width="0.386508" stroke-miterlimit="3.99393"/>
<path d="M32.1876 69.1889L29.638 70.6609C29.638 70.6609 29.1098 70.8537 29.7283 71.7306C30.3468 72.6076 30.5576 73.9443 30.5576 73.9443L31.4329 78.3751C31.4329 78.3751 31.3878 79.0743 32.2778 78.6726C33.1678 78.2709 35.1777 77.6714 35.1777 77.6714C35.1777 77.6714 35.9966 77.5352 35.4527 77.1761C34.9088 76.817 34.5818 76.4449 34.5818 76.4449C34.5818 76.4449 34.2903 75.9401 34.5523 75.2279L34.1758 71.8553C34.1758 71.8553 34.2216 71.3128 34.3892 71.059C34.6286 70.6964 33.5443 70.7615 33.5443 70.7615C33.5443 70.7615 32.2041 70.1891 32.8607 68.8003L32.1876 69.1889Z" fill="#815232" stroke="#492F1D" stroke-width="0.773016" stroke-miterlimit="3.99393"/>
<path d="M39.1473 63.6558C39.4725 63.4681 39.5839 63.0524 39.3962 62.7273C39.2085 62.4021 38.7927 62.2908 38.4676 62.4785C38.1425 62.6662 38.0311 63.0819 38.2188 63.407C38.4065 63.7321 38.8222 63.8435 39.1473 63.6558Z" fill="#6B6B6B" stroke="#333333" stroke-width="0.773016" stroke-miterlimit="3.99393"/>
</g>
<defs>
<clipPath id="clip0_616_1148">
<rect width="110" height="110" fill="white" transform="translate(0.0175781)"/>
</clipPath>
</defs>
</svg>
