<?xml version="1.0" encoding="UTF-8" standalone="no"?>
<svg
   width="110"
   height="110"
   viewBox="0 0 110 110"
   fill="none"
   version="1.1"
   id="svg65"
   sodipodi:docname="lewis_gun.svg"
   inkscape:version="1.1.2 (0a00cf5339, 2022-02-04)"
   xmlns:inkscape="http://www.inkscape.org/namespaces/inkscape"
   xmlns:sodipodi="http://sodipodi.sourceforge.net/DTD/sodipodi-0.dtd"
   xmlns="http://www.w3.org/2000/svg"
   xmlns:svg="http://www.w3.org/2000/svg">
  <sodipodi:namedview
     id="namedview67"
     pagecolor="#505050"
     bordercolor="#ffffff"
     borderopacity="1"
     inkscape:pageshadow="0"
     inkscape:pageopacity="0"
     inkscape:pagecheckerboard="1"
     showgrid="false"
     inkscape:zoom="7.9181818"
     inkscape:cx="54.936854"
     inkscape:cy="54.936854"
     inkscape:window-width="2560"
     inkscape:window-height="1372"
     inkscape:window-x="0"
     inkscape:window-y="0"
     inkscape:window-maximized="1"
     inkscape:current-layer="svg65" />
  <g
     clip-path="url(#clip0_616_1148)"
     id="g58"
     transform="matrix(1.0059358,0,0,1.0059358,-0.35992913,-0.2582951)">
    <path
       d="m 38.5894,53.7325 1.357,-0.7835 0.1469,0.2545 0.8482,-0.4897 -0.1469,-0.2544 1.1874,-0.6856 0.1469,0.2545 1.0178,-0.5876 -0.1469,-0.2545 0.9329,-0.5386 0.1469,0.2544 0.7634,-0.4407 -0.1469,-0.2544 0.7633,-0.4408 0.1469,0.2545 0.6785,-0.3917 -0.1469,-0.2545 0.6785,-0.3917 0.1469,0.2544 0.7634,-0.4407 1.4201,2.4596 -16.6238,9.5977 -1.42,-2.4596 0.7633,-0.4407 -0.1469,-0.2545 0.6785,-0.3917 0.1469,0.2545 0.6785,-0.3918 -0.1469,-0.2544 0.7633,-0.4408 0.147,0.2545 0.7633,-0.4407 -0.1469,-0.2545 0.933,-0.5386 0.1469,0.2544 1.0178,-0.5876 -0.147,-0.2544 1.1875,-0.6856 0.1469,0.2545 0.8481,-0.4897 z"
       fill="#585450"
       stroke="#363330"
       stroke-width="0.625"
       stroke-miterlimit="3.99393"
       id="path2" />
    <path
       d="m 90.0086,32.5194 -1.2723,0.7345 1.8118,3.1382 1.2723,-0.7345 z"
       fill="#423f3c"
       stroke="#363331"
       stroke-width="0.625"
       stroke-miterlimit="3.99393"
       id="path4" />
    <path
       d="m 13.2565,83.5041 -0.2543,0.4409 c -0.0796,0.1364 -0.0339,0.3135 0.1025,0.3931 l 0.9977,0.5744 c -0.0379,0.1152 -0.0564,0.2453 -0.0361,0.3858 0.0105,0.0732 0.0177,0.1484 0.0248,0.2217 0.0431,0.4498 0.0799,0.8329 0.8399,0.2968 0.884,-0.6234 0.2606,-1.5074 0.2606,-1.5074 0,0 -0.03,-0.1621 -0.2967,-0.1061 -0.0211,-0.0643 -0.0646,-0.1215 -0.1272,-0.1581 l -1.1181,-0.6437 c -0.1364,-0.0795 -0.3135,-0.0338 -0.3931,0.1026 z"
       fill="#403a35"
       stroke="#38332f"
       stroke-width="0.3125"
       stroke-miterlimit="3.99393"
       id="path6" />
    <path
       d="m 9.48882,87.9429 1.78108,-1.0283 c 0.1442,-0.0832 0.3181,-0.0366 0.4014,0.1076 l 0.2448,0.424 c 0.0833,0.1442 0.0367,0.3181 -0.1075,0.4014 l -1.7811,1.0283 C 9.88328,88.9592 9.70937,88.9126 9.62612,88.7684 L 9.38128,88.3443 C 9.30293,88.2086 9.34463,88.0262 9.48882,87.9429 Z"
       fill="#403a35"
       stroke="#38332f"
       stroke-width="0.625"
       stroke-miterlimit="3.99393"
       id="path8" />
    <path
       d="m 3.90871,79.0265 1.21346,-0.8363 c 0.22769,-0.1541 0.52918,-0.102 0.68326,0.1257 l 0.61498,0.8889 C 6.57448,79.4325 6.52238,79.734 6.29469,79.888 L 5.08123,80.7243 C 4.85354,80.8784 4.55205,80.8263 4.39797,80.5986 L 3.78299,79.7097 C 3.62892,79.482 3.6895,79.1756 3.90871,79.0265 Z"
       fill="#403a35"
       stroke="#38332f"
       stroke-width="0.625"
       stroke-miterlimit="3.99393"
       id="path10" />
    <path
       d="m 27.3357,61.4671 -0.5086,0.2936 0.5873,1.0172 0.5086,-0.2936 z"
       fill="#403a35"
       stroke="#38332f"
       stroke-width="0.628437"
       stroke-miterlimit="3.99393"
       id="path12" />
    <path
       d="m 20.4594,69.2827 c 0,0 -3.6393,1.9428 -5.4123,4.7872 -1.773,2.8443 -3.5622,2.0566 -3.5622,2.0566 L 1.2271,82.8631 c 0,0 -1.021623,0.816 -0.320162,1.7567 0.701462,0.9408 2.305762,3.034 4.214302,6.6139 l 0.54844,0.9499 c 0,0 0.32687,0.8404 1.37717,-0.0827 1.0503,-0.923 3.43535,-3.8041 3.43535,-3.8041 l 1.338,-1.2474 c 0,0 2.8154,-7.1894 11.5357,-13.0044 z"
       fill="#815232"
       stroke="#492f1d"
       stroke-width="0.625"
       stroke-miterlimit="3.99393"
       id="path14" />
    <path
       d="M 50.7621,48.7663 89.8618,26.1921 c 0,0 1.2575,-0.7599 2.5918,-1.191 1.3344,-0.4311 3.6961,-2.0208 3.6961,-2.0208 l 9.5843,-5.5337 3.526,6.1067 -12.4005,7.1594 c 0,0 -0.7953,0.3461 -1.1573,0.8943 -0.362,0.5483 -3.8753,2.6898 -3.8753,2.6898 0,0 -0.473,0.16 -1.9149,0.9924 L 54.7139,55.6109 Z"
       fill="#494746"
       stroke="#343332"
       stroke-width="0.625"
       stroke-miterlimit="3.99393"
       id="path16" />
    <path
       d="m 35.1991,67.7037 c 0,0 -0.0036,0.8163 0.3881,1.4948 0.3918,0.6786 0.6952,0.6165 0.6952,0.6165 0,0 0.0848,-0.049 -0.098,-0.1697 -0.1827,-0.1206 -0.6462,-0.5316 -0.6497,-1.3212 -0.0035,-0.7895 0.006,-0.8515 0.006,-0.8515 l -0.3856,0.1547 z"
       fill="#36383a"
       stroke="#313234"
       stroke-width="0.3125"
       stroke-miterlimit="3.99393"
       id="path18" />
    <path
       d="m 38.9103,64.9055 c 0,0 3.5304,3.3334 5.7845,2.145 2.2542,-1.1883 1.5651,-3.1653 1.5651,-3.1653 l -1.4543,-2.519 z"
       fill="#3d3833"
       stroke="#38332f"
       stroke-width="0.625"
       stroke-miterlimit="3.99393"
       id="path20" />
    <path
       d="m 38.5025,64.7466 -13.1691,7.9424 1.1778,-0.1146 c 0,0 3.6077,-2.7614 4.268,0.9286 0.6602,3.6899 0.9934,4.8546 0.9934,4.8546 0,0 0.0787,1.3116 1.0248,0.9915 l 3.3113,-1.1201 c 0,0 1.1516,-0.5518 0.1757,-1.4585 0,0 -0.5124,-0.4958 -0.5159,-1.2854 -0.0035,-0.7896 -0.4023,-3.0472 -0.4023,-3.0472 0,0 -0.6366,-1.1026 0.3812,-1.6903 l 2.1204,-1.2242 c 0,0 0.424,-0.2448 0.5053,-1.0833 0.0813,-0.8386 0.7599,-1.2303 0.7599,-1.2303 L 38.5453,66.192 c 0,0 -0.106,-0.8887 0.3025,-1.1019 0.4084,-0.2132 -0.3453,-0.3435 -0.3453,-0.3435 z m -0.8175,4.6562 -2.1204,1.2242 c 0,0 -1.1515,0.5517 -1.7881,-0.5509 -0.6366,-1.1026 0.6715,-1.9709 0.6715,-1.9709 l 1.6284,-0.9401 c 0,0 1.3513,-0.4409 1.89,0.492 0.5386,0.933 -0.2729,1.7408 -0.2814,1.7457 z"
       fill="#3d3833"
       id="path22" />
    <path
       d="m 88.0277,26.3464 -0.6562,-1.1366 c -0.0783,-0.1357 -0.0317,-0.3096 0.104,-0.3879 l 1.0347,-0.5974 c 0.1357,-0.0784 0.3096,-0.0318 0.388,0.1039 l 0.6561,1.1365 4.6863,8.1169 -1.5267,0.8814 z"
       fill="#414447"
       stroke="#313335"
       stroke-width="0.625"
       stroke-miterlimit="3.99393"
       id="path24" />
    <path
       d="m 55.0607,46.0257 -1.6115,0.9304 4.2113,7.2941 1.6115,-0.9304 z"
       fill="#414447"
       stroke="#313335"
       stroke-width="0.625"
       stroke-miterlimit="3.99393"
       id="path26" />
    <path
       d="m 104.873,17.7189 0.509,-0.2938 c 0.28,-0.1616 0.641,-0.0648 0.803,0.2151 l 3.134,5.4281 c 0.161,0.2799 0.065,0.6411 -0.215,0.8027 l -0.509,0.2938 c -0.28,0.1616 -0.641,0.0649 -0.803,-0.215 l -3.134,-5.4282 c -0.162,-0.2799 -0.065,-0.6411 0.215,-0.8027 z"
       fill="#414447"
       stroke="#313335"
       stroke-width="0.625"
       stroke-miterlimit="3.99393"
       id="path28" />
    <path
       d="m 96.0527,22.8115 2.29,-1.3221 3.9663,6.87 c 0,0 0.351,0.2159 -0.092,0.5847 -0.443,0.3689 -0.088,0.7293 -0.088,0.7293 0,0 0.27,0.4094 -0.201,0.6702 -0.471,0.2609 -0.657,-0.0614 -0.657,-0.0614 0,0 -0.209,-0.5579 -0.549,-0.362 -0.339,0.1958 -0.703,-0.2386 -0.703,-0.2386 z"
       fill="#414447"
       stroke="#313335"
       stroke-width="0.625"
       stroke-miterlimit="3.99393"
       id="path30" />
    <path
       d="m 50.8191,48.4745 -1.866,1.0773 4.2113,7.2941 1.8659,-1.0773 z"
       fill="#414447"
       stroke="#313335"
       stroke-width="0.625"
       stroke-miterlimit="3.99393"
       id="path32" />
    <path
       fill-rule="evenodd"
       clip-rule="evenodd"
       d="m 27.5125,60.9132 -0.2375,0.1371 c -0.0254,0.0147 -0.0362,0.0548 -0.0215,0.0802 l 0.7541,1.3062 -8.0574,4.6519 c 0,0 -0.058,1.1531 0.509,2.1941 0.2109,0.3873 0.6717,1.1523 1.1653,1.9572 l -3.1753,2.4941 c -0.2808,0.2187 -0.3228,0.6161 -0.1041,0.8969 0.2223,0.2675 0.6161,0.3229 0.897,0.1042 l 3.0573,-2.4015 c 0.5785,0.9326 1.06,1.698 1.06,1.698 L 44.826,61.6378 c 0,0 0.5701,1.1637 1.1148,0.7361 0.5448,-0.4276 0.5902,-1.1324 0.5902,-1.1324 0,0 0.0983,-0.8483 1.4468,-1.6269 l 5.4282,-3.134 -3.0654,-5.3094 -17.2175,9.9405 -0.7051,-1.2213 -4.0711,2.3504 -0.7541,-1.3061 c -0.0147,-0.0255 -0.0549,-0.0362 -0.0803,-0.0215 z m 9.3248,3.8894 -11.8741,6.8555 -0.3428,-0.5937 11.8741,-6.8555 z"
       fill="#433d37"
       stroke="#38332f"
       stroke-width="0.625"
       stroke-miterlimit="3.99393"
       id="path34" />
    <path
       d="m 43.8138,65.5244 c 0.5621,-0.3245 0.7766,-1.0053 0.4792,-1.5206 -0.2975,-0.5152 -0.9944,-0.6699 -1.5565,-0.3453 -0.5621,0.3245 -0.7766,1.0053 -0.4791,1.5206 0.2975,0.5152 0.9943,0.6698 1.5564,0.3453 z"
       fill="#7f797b"
       stroke="#615c5e"
       stroke-width="0.625"
       stroke-miterlimit="3.99393"
       id="path36" />
    <path
       fill-rule="evenodd"
       clip-rule="evenodd"
       d="m 26.701,61.7194 -7.066,4.1361 0.9385,0.1932 -0.8323,0.4806 0.7835,1.357 7.5231,-4.3435 -0.8521,-1.4757 c 0,0 -0.0069,-0.0197 -0.0318,-0.0356 L 27.0355,61.809 C 26.9669,61.6903 26.8197,61.6509 26.701,61.7194 Z"
       fill="#544944"
       stroke="#39312d"
       stroke-width="0.625"
       stroke-miterlimit="3.99393"
       id="path38" />
    <path
       fill-rule="evenodd"
       clip-rule="evenodd"
       d="m 63.754,52.2694 -4.548,0.545 c 0,0 -0.835,1.0023 -0.1999,1.4951 0.2612,0.2027 0.7599,0.4157 1.2565,0.5961 -0.4336,0.2886 -0.996,0.7562 -0.7799,1.1304 0.0441,0.0763 0.1257,0.1197 0.2229,0.1314 0.6806,0.082 2.4085,-1.0626 2.4085,-1.0626 l 2.4577,-1.419 0.235,0.4072 1.0602,-0.6121 -0.2301,-0.3987 6.7597,-3.9027 0.1518,0.2629 2.3833,-1.376 -0.1518,-0.2629 13.1887,-7.6145 -0.8226,-1.4249 -13.1888,7.6145 -0.1469,-0.2545 -2.3833,1.376 0.1469,0.2545 -6.7597,3.9027 -0.8961,-1.5521 -1.0602,0.6121 z"
       fill="#494746"
       stroke="#343332"
       stroke-width="0.625"
       stroke-miterlimit="3.99393"
       id="path40" />
    <path
       d="m 80.0785,31.2647 2.9177,-1.6845 3.6285,6.2848 c 0,0 1.5276,2.0583 1.0272,2.3472 -0.5004,0.2889 -0.1819,0.6252 -0.1819,0.6252 l 0.4848,0.8397 c 0,0 0.4684,0.4194 -0.5918,1.0315 -0.7294,0.4211 -1.1192,-0.0776 -1.1192,-0.0776 l -0.487,-0.8045 c 0,0 -0.1437,-0.3467 -0.5932,-0.0872 -0.4032,0.2327 -1.2612,-1.7401 -1.4565,-2.1898 z"
       fill="#414447"
       stroke="#313335"
       stroke-width="0.625"
       stroke-miterlimit="3.99393"
       id="path42" />
    <path
       d="m 36.4941,64.209 2.8837,-1.6649 0.5877,1.0178 -1.7811,1.0283 -0.2449,-0.4241 -1.1026,0.6366 z"
       fill="#403a35"
       stroke="#38332f"
       stroke-width="0.628437"
       stroke-miterlimit="3.99393"
       stroke-linecap="round"
       id="path44" />
    <path
       d="m 22.172,66.8221 9.5313,-5.3898 c 0,0 0.392,-0.3395 0.2451,-0.5939 l -0.1469,-0.2545 c 0,0 -0.1818,-0.1777 0.0981,-0.3393 l 0.2884,-0.1665 c 0,0 0.1451,-0.1404 0.341,0.1989 l 0.5387,0.933 16.291,-9.2926 0.3865,0.6694 0.7686,-0.4316 2.357,4.1805 -4.0711,2.3504 c 0.32,0.9461 -0.7467,1.4489 -0.7467,1.4489 l -2.956,-4.9013 -22.3987,12.7546 -0.6062,-1.1088 0.0848,-0.049 z"
       fill="#464548"
       stroke="#323234"
       stroke-width="0.3125"
       stroke-miterlimit="3.99393"
       id="path46" />
    <path
       d="m 34.8614,61.9289 5.9116,-3.4131 c 0.2629,-0.1518 0.6058,-0.0671 0.7625,0.2044 l 0.2792,0.4834 c 0.1518,0.2629 0.067,0.6059 -0.2044,0.7626 l -5.9116,3.413 c -0.2629,0.1518 -0.6058,0.0671 -0.7625,-0.2043 L 34.657,62.6915 C 34.5004,62.42 34.59,62.0856 34.8614,61.9289 Z"
       fill="#858585"
       stroke="#575757"
       stroke-width="0.3125"
       stroke-miterlimit="3.99393"
       id="path48" />
    <path
       d="m 39.7777,63.7251 c 0.3277,-0.1892 0.44,-0.6083 0.2508,-0.936 -0.1892,-0.3278 -0.6083,-0.4401 -0.936,-0.2509 -0.3278,0.1893 -0.4401,0.6083 -0.2509,0.9361 0.1893,0.3277 0.6083,0.44 0.9361,0.2508 z"
       fill="#6b6b6b"
       stroke="#333333"
       stroke-width="0.625"
       stroke-miterlimit="3.99393"
       id="path50" />
    <path
       d="m 25.3334,72.689 13.1691,-7.9424 c 0,0 0.7537,0.1303 0.3453,0.3435 -0.4085,0.2132 -0.3025,1.1019 -0.3025,1.1019 l 0.5877,1.0178 c 0,0 -0.6786,0.3917 -0.7599,1.2303 -0.0813,0.8385 -0.5053,1.0833 -0.5053,1.0833 l -2.1204,1.2242 c -1.0178,0.5877 -0.3812,1.6903 -0.3812,1.6903 0,0 0.3988,2.2576 0.4023,3.0472 0.0035,0.7896 0.5159,1.2854 0.5159,1.2854 0.9759,0.9067 -0.1757,1.4585 -0.1757,1.4585 l -3.3113,1.1201 c -0.9461,0.3201 -1.0248,-0.9915 -1.0248,-0.9915 0,0 -0.3332,-1.1647 -0.9934,-4.8546 -0.6603,-3.69 -4.268,-0.9286 -4.268,-0.9286 z"
       stroke="#38332f"
       stroke-width="0.625"
       stroke-miterlimit="3.99393"
       id="path52" />
    <path
       d="m 37.6849,69.4017 -2.1204,1.2242 c 0,0 -1.1515,0.5518 -1.7881,-0.5508 -0.6366,-1.1026 0.6715,-1.9709 0.6715,-1.9709 l 1.6284,-0.9402 c 0,0 1.3513,-0.4409 1.8899,0.4921 0.5387,0.933 -0.2728,1.7407 -0.2813,1.7456 z"
       stroke="#38332f"
       stroke-width="0.3125"
       stroke-miterlimit="3.99393"
       id="path54" />
    <path
       d="m 32.7634,69.3024 -2.5699,1.4838 c 0,0 -0.5324,0.1943 0.0911,1.0783 0.6234,0.884 0.8359,2.2314 0.8359,2.2314 l 0.8824,4.4664 c 0,0 -0.0454,0.7048 0.8517,0.2999 0.8971,-0.4049 2.9231,-1.0091 2.9231,-1.0091 0,0 0.8254,-0.1373 0.2771,-0.4993 -0.5482,-0.362 -0.8779,-0.7371 -0.8779,-0.7371 0,0 -0.2938,-0.5089 -0.0297,-1.2268 l -0.3796,-3.3996 c 0,0 0.0461,-0.5469 0.2151,-0.8027 0.2413,-0.3655 -0.8517,-0.2999 -0.8517,-0.2999 0,0 -1.3509,-0.5771 -0.6891,-1.977 z"
       fill="#815232"
       stroke="#492f1d"
       stroke-width="0.625"
       stroke-miterlimit="3.99393"
       id="path56" />
  </g>
  <defs
     id="defs63">
    <clipPath
       id="clip0_616_1148">
      <rect
         width="110"
         height="110"
         fill="white"
         id="rect60" />
    </clipPath>
  </defs>
</svg>
