<svg xmlns="http://www.w3.org/2000/svg" width="121.65" height="48.173" fill="none"><defs><clipPath id="a"><path fill="#fff" d="M0 0h110v110H0Z"/></clipPath></defs><g transform="rotate(15 176.316 56.612)"><g clip-path="url(#a)" transform="matrix(1.00132 0 0 1.00132 -.083 -.717)"><path fill="#454545" d="m91.454 33.397-.686-1.188.873-.866.198-.115a.6.6 0 0 1 .243-.076l.607-.052a.15.15 0 0 1 .14.073l.423.734-.063.23-.996.575.185.32-.724.419a.146.146 0 0 1-.2-.054"/><path fill="#4b4b4b" d="m92.27 32.131.244.422c.01.017.004.04-.014.05l-.276.16.156.27-.577.333a.22.22 0 0 1-.3-.08l-.308-.534zm.832-.481.149.257-.064.23-.283.163-.232-.402z"/><path stroke="#333" stroke-width=".493" d="m91.454 33.397-.686-1.188.873-.866.198-.115a.6.6 0 0 1 .243-.076l.607-.052a.15.15 0 0 1 .14.073l.423.734-.063.23-.996.575.185.32-.724.419a.146.146 0 0 1-.2-.054z"/><path fill="#4d4d4d" d="m47.027 64.843 7.1-4.1 3.345 5.794a.23.23 0 0 1-.055.294l-5.892 4.74a.46.46 0 0 1-.687-.128z"/><path fill="#444" stroke="#333" stroke-width=".493" d="m55.593 68.298.773-.622-3.562-6.17-.849.491zm-3.446 2.772.368-.296-3.94-6.825-.405.234zm-2.307-7.85.528-.305 2.99 5.178a.305.305 0 1 1-.528.305z"/><path stroke="#333" stroke-width=".985" d="m47.027 64.843 7.1-4.1 3.345 5.794a.23.23 0 0 1-.055.294l-5.892 4.74a.46.46 0 0 1-.687-.128z"/><path fill="#5a5a5a" d="m52.23 54.525.438.758c.179.31.115.503-.194 1.145-.31.643-.343.93-.185 1.204l1.566 2.711c.05.086.136.108.225.091a.24.24 0 0 1 .312.367l-6.426 5.552a.24.24 0 0 1-.34-.024c-.087-.1-.067-.258.034-.345l-1.634-2.829-1.277.738a1.8 1.8 0 0 0-.638.223l-2.123-3.678z"/><path stroke="#333" stroke-width=".493" d="m52.23 54.525.438.758c.179.31.115.503-.194 1.145-.31.643-.343.93-.185 1.204l1.566 2.711c.05.086.136.108.225.091a.24.24 0 0 1 .312.367l-6.426 5.552a.24.24 0 0 1-.34-.024c-.087-.1-.067-.258.034-.345l-1.634-2.829-1.277.738a1.8 1.8 0 0 0-.638.223l-2.123-3.678z"/><path fill="#5c5c5c" fill-rule="evenodd" d="m33.85 55.991-3.396 1.961a.114.114 0 0 0-.053.127l.444 1.765c.058.343-.17.764-.279.968a.4.4 0 0 0-.056.12l5.718-3.301a.894.894 0 0 1-.728-.875l-.005-1.486c-.002-.488.26-.938.685-1.177l10.16-5.724c.25-.141.541-.21.822-.147.548.121.86.355 1.138.837.276.479.221 1.147-.019 1.613l1.295-.748-.883-1.53a2.053 2.053 0 0 0-2.638-.84l-13.366 6.157a.123.123 0 0 0-.055.173zm.248.51-2.846 1.643.578 1.001 2.847-1.643z" clip-rule="evenodd"/><ellipse cx="33.38" cy="58.545" fill="#494949" rx=".152" ry=".153" transform="rotate(-30 33.38 58.545)"/><path fill="#616161" d="m33.975 53.118.452.785a.34.34 0 0 1 .046.188l-.063 1.217a.68.68 0 0 1-.341.557l-.218.126-1.217-2.107a.123.123 0 0 1 .055-.173z"/><path fill="#585858" d="m31.028 54.575 1.38-.584c.107-.045.206-.043.332.077l1.111 1.924-2.85 1.645-.765-1.326.399-1.287a.69.69 0 0 1 .393-.449"/><path fill="#494949" d="m41.454 65.639 1.084-.626c-.209.858-.253 1.354.097 1.924.325.529.497.615.944.84l.11.056c.085.042.102.096.08.161-.023.065-.086.102-.153.08-.808-.254-1.174-.446-1.527-.882-.353-.435-.628-.846-.635-1.553"/><path fill="#565656" d="m42.537 65.013-.386.223c-.144.746-.182 1.173.066 1.68.247.509.678.795 1.405 1.15.063.03.124-.007.147-.072s.005-.119-.08-.162c-.532-.27-.704-.325-1.054-.895s-.306-1.066-.098-1.924"/><path stroke="#333" stroke-width=".493" d="m41.454 65.639 1.084-.626c-.209.858-.253 1.354.097 1.924.325.529.497.615.944.84l.11.056c.085.042.102.096.08.161-.023.065-.086.102-.153.08-.808-.254-1.174-.446-1.527-.882-.353-.435-.628-.846-.635-1.553z"/><rect width=".484" height="2.392" x="87.465" y="34.897" fill="#5d5d5d" stroke="#333" stroke-width=".493" rx=".242" transform="rotate(-30 87.465 34.898)"/><path fill="#454545" stroke="#333" stroke-width=".493" d="m49.984 50.633 7.62-4.4 5.4-2.465 25.55-14.751.247.428-25.55 14.752-5.4 2.465-7.62 4.4z"/><path fill="#414141" stroke="#333" stroke-width=".985" d="m54.24 49.728-3.582 2.068 1.42 2.46 3.582-2.069 1.812-1.615 25.025-14.448 1.353-.438 1.818-1.05-.069-.119 17.607-10.165-1.087-1.882-17.606 10.165-.07-.12-1.818 1.05-1.056.953-25.024 14.448z"/><path fill="#545454" stroke="#333" stroke-width=".493" d="m83.682 31.194.483-.279c.183-.105.405-.061.497.099l2.167 3.752c.092.16.019.374-.163.48l-.484.279z"/><path fill="#616161" fill-rule="evenodd" d="m33.617 64.508-1.318.084-1.135-1.965 8.922-5.151-.47-.816 10.387-5.997 1.899 3.289zm7.322-6.224-.229-.397-.018.01a.73.73 0 0 1 .343-.813l7.305-4.217a.73.73 0 0 1 .73 1.266l-7.304 4.217a.73.73 0 0 1-.827-.066" clip-rule="evenodd"/><path fill="#676767" d="m45.181 57.41-.248-.4-.068.043.248.4zm.073-.04-.249-.4-.068.043.249.4z"/><path fill="#676767" d="m45.322 57.332-.248-.4-.068.042.248.4zm.07-.042-.248-.4-.068.043.248.4zm.071-.04-.249-.4-.067.042.248.4z"/><path fill="#676767" d="m45.531 57.21-.248-.4-.068.042.248.4zm.07-.041-.248-.4-.068.041.248.4zm.073-.04-.249-.4-.068.041.249.4z"/><path fill="#676767" d="m45.742 57.09-.248-.4-.068.041.248.4zm.07-.042-.248-.4-.068.041.248.4zm.068-.04-.248-.4-.067.041.248.4zm.07-.041-.247-.4-.068.041.248.4z"/><path fill="#676767" d="m46.02 56.928-.249-.4-.068.042.248.4zm.072-.041-.249-.4-.068.042.249.4zm.07-.041-.248-.4-.068.042.248.4z"/><path fill="#676767" d="m46.23 56.806-.248-.4-.068.042.248.4zm.07-.04-.248-.4-.068.042.249.4zm.07-.041-.247-.4-.068.042.248.4z"/><path fill="#676767" d="m46.44 56.685-.25-.4-.067.042.248.4zm.072-.041-.249-.4-.068.042.249.4z"/><path fill="#676767" d="m46.58 56.605-.248-.4-.068.042.248.4zm.07-.041-.248-.4-.068.042.248.4z"/><path fill="#494949" d="m8.656 75.53 1.79 3.1 20.531-11.853-1.79-3.101z"/><path fill="#4e4e4e" stroke="#333" stroke-width=".493" d="m42.32 69.057 4.87-2.812.168.292-4.87 2.811z"/><path fill="#535353" d="m35.776 69.118 3.597-2.077a.23.23 0 0 1 .312.084l1.684 2.917c.069.12.03.305-.06.43s-.08.264-.06.43l.146 1.402c.01.1.168.398.247.43.304.12.637.28.651.532.01.175-.138.257-.361.379a4 4 0 0 0-.327.194c-.228.154-.242.466-.242.466l-.105 3.805a.54.54 0 0 0 .271.47q.085.04.174.07c.182.063.327.025.39.309.062.287-.077.539-.3.752-.13.124-.553.28-.733.324l-5.108 1.449c-.252.05-.443-.182-.42-.476l.828-10.388c.005-.113-.133-.734-.584-1.502" style="fill:#474747;fill-opacity:1"/><rect width="9.896" height="1.461" x="40.402" y="57.449" fill="#393939" rx=".731" transform="rotate(-30 40.402 57.45)"/><path fill="#515151" d="M40.768 58.082a.73.73 0 0 1 .267-.998l7.305-4.217a.73.73 0 0 1 .73 1.265l-7.304 4.217a.73.73 0 0 1-.998-.267"/><path fill="#4c4c4c" d="M47.456 55.063a1.72 1.72 0 0 0-.73-1.266l-2.721 1.57a1.73 1.73 0 0 0 .73 1.266z"/><circle cx="45.588" cy="55.072" r=".232" fill="#454545" transform="rotate(-30 45.588 55.072)"/><path fill="#454545" d="m46.25 55.76-.014-.027a.232.232 0 1 0-.384.257Z"/><path fill="#5e5e5e" d="m30.872 62.12-.651.375 1.641 2.843c.057.098.506.213.969.262.503.054 1.031-.06 1.031-.06.018-.182.07-.348.147-.392l18.268-10.547-.375-.65-18.285 10.557-1.318.084z"/><path fill="#5e5e5e" d="m30.872 62.12-.651.375 1.641 2.843c.057.098.506.213.969.262.503.054 1.031-.06 1.031-.06.018-.182.07-.348.147-.392l18.268-10.547-.375-.65-18.285 10.557-1.318.084z"/><path fill="#5a5a5a" d="m30.22 62.496-1.207.875 2.664 4.615 2.602-1.502c-.184-.163-.319-.296-.392-.552a1.1 1.1 0 0 1-.026-.392s-.527.114-1.031.06c-.463-.05-.912-.164-.969-.262z"/><path fill="#5a5a5a" d="m30.22 62.496-1.207.875 2.664 4.615 2.602-1.502c-.184-.163-.319-.296-.392-.552a1.1 1.1 0 0 1-.026-.392s-.527.114-1.031.06c-.463-.05-.912-.164-.969-.262z"/><path fill="#555" stroke="#333" stroke-width=".493" d="M46.703 66.259c-.039.083.036.255.1.334a.62.62 0 0 0 .347.188c.138.023.287-.016.459-.162.171-.145.196-.385.149-.468l-1.73-2.997-1.278.738a1.79 1.79 0 0 1 1.814.877c.272.47.352 1.032.139 1.49z"/><path fill="#565656" stroke="#333" stroke-width=".493" d="M40.927 66.418a1.792 1.792 0 0 0 1.832 2.425c.083-.007.138.082.171.252.034.17-.042.325-.13.376l-1.188.686c-.08.046-.196-.03-.245-.114l-1.68-2.91z"/><path fill="#525252" d="M47.626 66.329a.247.247 0 0 1 .032-.344l6.418-5.548a.24.24 0 1 1 .315.364l-6.425 5.552a.24.24 0 0 1-.34-.024"/><circle cx="42.23" cy="69.252" r=".124" fill="#4d4d4d" transform="rotate(-30 42.23 69.252)"/><circle cx="47.25" cy="66.265" r=".186" fill="#4c4c4c" transform="rotate(-30 47.25 66.265)"/><rect width="1.068" height="1.757" x="43.592" y="61.567" fill="#525252" stroke="#333" stroke-width=".493" rx=".534" style="fill:#4d4d4d;fill-opacity:1" transform="rotate(-30 43.592 61.567)"/><circle cx="44.493" cy="62.061" r=".235" fill="#474747" transform="rotate(-30 44.493 62.06)"/><path fill="#656565" d="m31.165 62.627 8.922-5.151-.471-.816 10.388-5.997-.427-.738-19.31 11.148.093.161 1.226-.707.307.037.325.563-.12.285-1.226.708z"/><path fill="#656565" d="m31.165 62.627 8.922-5.151-.471-.816 10.388-5.997-.427-.738-19.31 11.148.093.161 1.226-.707.307.037.325.563-.12.285-1.226.708z"/><path fill="#595959" d="M40.91 56.801a.884.884 0 0 0 .541 1.645.73.73 0 0 1-.416-1.362l7.304-4.217a.73.73 0 1 1 .73 1.266c.483-.279.613-.811.369-1.234a.884.884 0 0 0-1.208-.324Z"/><path fill="#626262" stroke="#333" stroke-width=".493" d="M42.963 60.121a.417.417 0 0 0 .417.723l1.142-.659 1.126 1.951c.15.262-.055.523-.212.614l-1.078.622.144.25c.077.134.416.173.548.097l1.208-.697.59.56c.103.1.264.081.39.012.124-.07.197-.203.16-.33l-.319-.998-1.54-2.668 6.344-3.663-.417-.723z"/><path fill="#515151" stroke="#333" stroke-width=".493" d="M51.832 56.004a.588.588 0 1 0-.451-.781Z"/><path fill="#4a4a4a" d="m44.352 56.856-.26-.45a1 1 0 0 0-.237.475l-.147-.254a1 1 0 0 0-.237.476l-.147-.254a1 1 0 0 0-.237.476l-.147-.255a1 1 0 0 0-.237.476l-.147-.254a1 1 0 0 0-.237.476l-.147-.254a1 1 0 0 0-.237.476l-.147-.255a1 1 0 0 0-.237.476l-.147-.254a1 1 0 0 0-.232.454c.19.062.406.046.594-.062zm-3.202 1.547a.7.7 0 0 1-.211-.12q.034-.051.081-.104z"/><circle cx="42.099" cy="57.465" r=".254" fill="#454545" transform="rotate(-30 42.1 57.465)"/><path fill="#404040" d="m43.716 57.223-.285.165a.203.203 0 0 1-.1-.28.204.204 0 0 1 .385.115"/><path fill="#454545" fill-rule="evenodd" stroke="#333" stroke-width=".493" d="m86.973 34.624.841-.485a.15.15 0 0 0 .064-.075l.294.51a.534.534 0 0 1-.192.73.534.534 0 0 1-.729-.199z" clip-rule="evenodd"/><path fill="#404040" d="M87.886 34.762a.19.19 0 0 1-.069.26.19.19 0 0 1-.26-.07.19.19 0 0 1 .069-.26.19.19 0 0 1 .26.07"/><path fill="#484848" stroke="#333" stroke-width=".493" d="m50.473 51.478.147-.086 1.948 3.374-.147.085z"/><path fill="#515151" stroke="#333" stroke-width=".493" d="m50.787 50.905-.335.194 2.288 3.962.335-.193z"/><path fill="#575757" d="m50.182 49.858 3.341 5.789 1.436-1.224-3-5.196z"/><path fill="#4e4e4e" d="m50.45 49.763-.104.038 3.31 5.733.085-.072zm3.508 5.514-.085.072-3.258-5.644.105-.037zm.218-.186-.086.073-3.206-5.554.105-.038zm.217-.185-.085.073-3.155-5.465.105-.037zm.217-.185-.085.072-3.103-5.374.105-.038zm.217-.185-.085.072-3.051-5.285.105-.037z"/><path fill="#515151" stroke="#333" stroke-width=".493" d="m52.067 49.415 2.783 4.821.514-.206-2.861-4.957z"/><path fill="#4f4f4f" d="m39.157 71.543-1.494.048a.913.913 0 0 0-.882.877l-.269 6.864a.913.913 0 0 0 1.218.896l2.186-.777a.57.57 0 0 0 .38-.564l-.316-6.584a.8.8 0 0 0-.823-.76" style="fill:#404040;fill-opacity:1"/><path fill="#4d4d4d" d="m35.582 80.376.7-8.789.266.075-.323 8.8z"/><path fill="#535353" d="m31.662 58.856 2.847-1.644.167.29-2.846 1.643zm-.41-.712 2.847-1.644.167.29-2.847 1.644z"/><path fill="#4c4c4c" d="m31.604 58.328 2.477-1.43.244.421-2.478 1.43z"/><path fill="#464646" d="m32.629 57.736.105-.06.244.421-.106.061zm.346-.199.105-.06.244.421-.106.06zm.341-.198.106-.061.243.422-.105.06zm.307-.177.105-.06.244.421-.106.06zm.229-.131.105-.06.244.421-.106.06zm-1.459.842-.106.06.244.423.105-.061zm-.305.176-.106.06.244.422.105-.06zm-.231.133-.105.06.243.422.106-.06z"/><path stroke="#333" stroke-width=".493" d="m33.85 55.991-3.396 1.961a.114.114 0 0 0-.053.127l.444 1.765c.058.343-.17.764-.279.968a.4.4 0 0 0-.056.12l5.718-3.301a.894.894 0 0 1-.728-.875l-.005-1.486c-.002-.488.26-.938.685-1.177l10.16-5.724c.25-.141.541-.21.822-.147.548.121.86.355 1.138.837.276.479.221 1.147-.019 1.613l1.295-.748-.883-1.53a2.053 2.053 0 0 0-2.638-.84l-13.366 6.157a.123.123 0 0 0-.055.173zm.248.51-2.846 1.643.578 1.001 2.847-1.643z" clip-rule="evenodd"/><circle cx="31.83" cy="56.165" r="1.233" fill="#606060" stroke="#333" stroke-width=".493" transform="rotate(-30 31.83 56.165)"/><circle cx="31.829" cy="56.166" r=".837" fill="#686868" transform="rotate(-30 31.83 56.166)"/><circle cx="31.829" cy="56.167" r=".274" fill="#585858" transform="rotate(-30 31.83 56.167)"/><circle cx="32.109" cy="56.646" r=".044" fill="#525252" transform="rotate(-30 32.109 56.646)"/><circle cx="49.088" cy="57.067" r=".115" fill="#515151" transform="rotate(-30 49.088 57.067)"/><path fill="#676767" d="m45.134 57.435-.552-.84-.066.045.551.839z"/><path fill="#5c5c5c" d="m32.278 69.026-.6-1.04 2.602-1.502c-.184-.163-.319-.297-.392-.553s-.014-.706.12-.784l8.026-4.633 2.079 3.6-2.406 1.39a1.8 1.8 0 0 0-.779.914l-1.239.715-.005-.009a.23.23 0 0 0-.311-.084l-3.598 2.078c-.536-.623-1.196-.805-1.755-.837-.56-.032-.985.246-1.742.745"/><path fill="#545454" d="m38.772 65.006.017.03q-.018-.001-.035.002a.1.1 0 0 0-.029.011.06.06 0 0 0-.027.029.04.04 0 0 0 .003.033q.008.014.02.017t.037-.004l.017-.006a.1.1 0 0 1 .058-.003.07.07 0 0 1 .038.033q.017.03.008.058t-.047.049a.2.2 0 0 1-.069.022l-.018-.031a.2.2 0 0 0 .04-.003.1.1 0 0 0 .034-.012.06.06 0 0 0 .028-.03.04.04 0 0 0-.003-.035q-.01-.015-.023-.02a.1.1 0 0 0-.037.004l-.018.006a.1.1 0 0 1-.055.004.06.06 0 0 1-.035-.029.07.07 0 0 1-.008-.057.1.1 0 0 1 .042-.048l.028-.012zm.132-.052.033.129.061-.036zm-.033-.016.035-.02.192.178-.03.017-.05-.047-.075.044.017.065-.03.018zm.141-.081.127-.073.014.024-.097.057.033.058.089-.052.014.025-.089.051.063.11-.03.016zm.174-.1.128-.074.014.024-.1.058.035.058.094-.055.014.025-.094.054.048.085.102-.06.014.025-.13.076z"/><circle cx="34.607" cy="65.735" r=".696" fill="#545454" transform="rotate(-30 34.607 65.735)"/><circle cx="36.517" cy="64.222" r=".3" fill="#4f4f4f" transform="rotate(-30 36.517 64.222)"/><circle cx="40.934" cy="64.543" r=".309" fill="#4f4f4f" transform="rotate(-30 40.934 64.543)"/><circle cx="42.491" cy="62.184" r=".309" fill="#4f4f4f" transform="rotate(-30 42.491 62.184)"/><path fill="#545454" d="m35.683 66.922.05.085.034-.02q.025-.015.031-.03t-.006-.035q-.015-.027-.032-.03-.018-.005-.042.01zm-.048-.083.035.06.034-.02q.02-.012.026-.026a.03.03 0 0 0-.003-.026q-.01-.016-.023-.018t-.035.01zm-.043-.007.064-.037a.1.1 0 0 1 .06-.015.06.06 0 0 1 .04.03q.009.015.006.031a.05.05 0 0 1-.02.03.06.06 0 0 1 .044 0q.02.007.037.037.018.03.007.055-.011.027-.049.048l-.064.037zm.253.032-.077-.134.03-.017.084.147.014.022.009.009a.04.04 0 0 0 .02.005l.025-.008.018-.017a.04.04 0 0 0 .006-.02l-.002-.012-.013-.023-.084-.147.029-.017.077.133q.019.033.023.05a.1.1 0 0 1-.001.031.1.1 0 0 1-.014.025.1.1 0 0 1-.056.032.1.1 0 0 1-.03 0 .1.1 0 0 1-.027-.015.2.2 0 0 1-.031-.044m.256-.174h.026q.012.004.038.02l.064.043-.032.018-.057-.04a.1.1 0 0 0-.037-.018.04.04 0 0 0-.027.006l-.028.017.052.09-.029.018-.125-.216.06-.035a.1.1 0 0 1 .064-.016q.029.006.046.036a.06.06 0 0 1 .009.042.06.06 0 0 1-.024.035m-.111-.055.044.076.032-.018q.02-.012.026-.028.004-.015-.007-.034t-.027-.022q-.017-.004-.038.008zm.265-.175.017.029q-.018 0-.034.002a.1.1 0 0 0-.03.012.06.06 0 0 0-.027.028.04.04 0 0 0 .003.033q.01.015.02.017.013.002.038-.004l.017-.005a.1.1 0 0 1 .057-.004.07.07 0 0 1 .038.034q.017.03.008.058-.01.027-.046.048a.2.2 0 0 1-.069.022l-.018-.03q.023 0 .04-.003a.1.1 0 0 0 .033-.013.06.06 0 0 0 .029-.03.04.04 0 0 0-.004-.034q-.01-.017-.023-.02a.1.1 0 0 0-.037.004l-.018.005a.1.1 0 0 1-.055.005.06.06 0 0 1-.035-.03.07.07 0 0 1-.007-.057.1.1 0 0 1 .041-.047l.028-.013zm.035-.03.165-.096.014.025-.068.039.11.191-.029.017-.11-.191-.068.039zm.294-1.805.017.03q-.018-.001-.034.002a.1.1 0 0 0-.03.011.06.06 0 0 0-.026.029.04.04 0 0 0 .002.033q.01.014.02.017.014.003.038-.004l.017-.006a.1.1 0 0 1 .057-.003.07.07 0 0 1 .038.033q.018.031.008.059t-.046.048l-.033.014-.036.008-.018-.03a.2.2 0 0 0 .04-.004.1.1 0 0 0 .033-.012.06.06 0 0 0 .029-.03.04.04 0 0 0-.004-.035q-.01-.015-.023-.02a.1.1 0 0 0-.037.004l-.017.006a.1.1 0 0 1-.056.004.06.06 0 0 1-.035-.029.07.07 0 0 1-.007-.057.1.1 0 0 1 .041-.048l.028-.012zm.056-.043.129-.074.014.025-.099.057.034.058.094-.054.015.024-.095.055.048.084.102-.059.015.025-.132.076zm.156-.089.04-.022.1.088-.026-.132.04-.022.124.215-.027.016-.11-.19.027.135-.022.013-.104-.091.11.19-.027.016zm.203-.117.12-.07.014.025-.046.026.097.167.045-.026.014.025-.12.069-.014-.025.045-.026-.096-.167-.045.026z"/><circle cx="37.545" cy="65.72" r=".721" fill="#545454" transform="rotate(-30 37.545 65.72)"/><path fill="#4d4d4d" d="M36.97 66.154a.7.7 0 0 1-.088-.154l.577-.333.089.154z"/><path fill="#545454" d="m40.836 59.42 10.533-6.082.19.329-10.534 6.081z"/><path fill="#666" d="m40.807 58.723.145-.084 1.082 1.875-.145.084zm9.215-4.812.298-.172.367.635-.299.173z"/><path fill="#6a6a6a" d="m44.914 57.027.223.415-.07.038-.223-.416z"/><path fill="#6a6a6a" d="m44.983 56.987.222.415-.07.038-.223-.416zm.07-.041.223.415-.07.037-.223-.415zm.07-.041.223.415-.07.037-.223-.415z"/><path fill="#6a6a6a" d="m45.192 56.866.222.415-.07.037-.223-.415zm.072-.041.222.415-.07.037-.222-.415zm.07-.041.223.415-.07.037-.223-.415z"/><path fill="#6a6a6a" d="m45.4 56.744.223.416-.07.037-.223-.415zm.071-.041.222.415-.07.038-.222-.415zm.07-.041.223.416-.07.037-.223-.415zm.071-.039.222.416-.07.037-.223-.415zm.07-.04.222.415-.07.038-.222-.415zm.07-.041.223.415-.07.038-.223-.415z"/><path fill="#6a6a6a" d="m45.82 56.502.223.415-.07.038-.223-.415zm.07-.04.223.415-.07.038-.222-.415zm.073-.041.223.415-.07.038-.223-.415zm.071-.041.222.415-.07.038-.223-.415z"/><path fill="#6a6a6a" d="m46.102 56.34.222.415-.07.038-.222-.415zm.07-.04.223.415-.07.038-.223-.415zm.071-.04.222.414-.07.038-.223-.415z"/><path fill="#6a6a6a" d="m46.309 56.219.222.415-.07.038-.222-.415zm.072-.041.223.415-.07.038-.223-.415z"/><path fill="#6a6a6a" d="m46.45 56.14.222.415-.07.038-.223-.415z"/><path fill="#6b6b6b" stroke="#333" stroke-width=".493" d="m37.674 57.64 2.042-1.18.571.234.276.478a.884.884 0 0 0 .41 1.194l.174.3-2.088 1.373c-.273.172-.421.208-.562-.035l-.691-1.198z"/><path fill="#4d4d4d" d="M83.06 31.017 52.418 47.993a.456.456 0 0 0-.174.628l1.75 3.03 31.123-17.969-1.44-2.494a.456.456 0 0 0-.617-.171M56.215 54.574l30.097-17.922a.456.456 0 0 0 .161-.62l-1.356-2.349-31.123 17.97 1.592 2.757c.128.22.41.294.63.164"/><path fill="#4a4a4a" d="m55.262 50.92-.389.224 1.817 3.147.386-.23zm3.168 2.335-.386.23-1.806-3.128.388-.225zm1.353-.806-.386.23-1.795-3.11.389-.225zm1.354-.806-.386.23-1.784-3.092.389-.224zm1.354-.806-.386.23-1.774-3.074.389-.224zm1.354-.807-.386.23-1.763-3.054.389-.225zm1.354-.806-.386.23-1.753-3.036.389-.225zm1.354-.806-.386.23-1.742-3.018.389-.225zm1.354-.806-.386.23-1.732-3 .389-.224zm1.353-.806-.385.23-1.721-2.982.389-.224zM70.615 46l-.386.23-1.71-2.963.388-.225zm1.353-.807-.386.23-1.7-2.944.39-.225zm1.354-.806-.386.23-1.689-2.926.39-.225zm1.354-.807-.386.23-1.678-2.907.389-.224zm1.354-.805-.386.23-1.668-2.89.39-.224zm1.354-.807-.386.23-1.657-2.87.389-.225zm1.354-.806-.386.23-1.647-2.852.39-.225zm1.354-.806-.386.23-1.636-2.834.389-.225zm1.354-.806-.386.23-1.626-2.816.39-.224zm1.354-.807-.386.23-1.615-2.797.389-.224zm1.353-.806-.386.23-1.604-2.779.39-.224zm-30.862 9.572-.393.218 1.973 3.417.39-.225zm3.334 2.623-.389.224-1.96-3.393.394-.218zm1.365-.788-.39.224-1.945-3.369.393-.218zm1.364-.788-.389.225-1.931-3.346.393-.217zm1.364-.788-.389.225-1.917-3.321.393-.218zm1.365-.788-.389.225-1.903-3.297.392-.218zm1.364-.787-.388.224-1.89-3.273.393-.217zm1.365-.788-.389.224-1.876-3.248.393-.218zm1.364-.788-.388.225-1.862-3.225.393-.218zm1.365-.787-.389.224-1.848-3.2.393-.218zm1.365-.789-.39.225-1.833-3.176.393-.218zm1.364-.787-.389.224-1.82-3.152.393-.218zm1.365-.788-.39.224-1.805-3.128.392-.217zm1.364-.788-.389.225-1.792-3.104.393-.218zm1.365-.788-.39.225-1.778-3.08.393-.218zm1.364-.788-.389.225-1.764-3.056.393-.218zm1.365-.787-.39.224-1.75-3.032.393-.217zm1.364-.788-.389.224-1.736-3.007.393-.218zm1.365-.788-.39.225-1.722-2.984.393-.218zm1.364-.788-.389.225-1.708-2.96.392-.217zm1.364-.788-.388.225-1.695-2.935.393-.218z"/><path fill="#505050" stroke="#333" stroke-width=".493" d="m85.122 37.362 1.19-.71a.456.456 0 0 0 .162-.62l-2.796-4.843a.456.456 0 0 0-.617-.17l-1.213.671z"/><path fill="#484848" d="m85.459 34.275-.342-.592-31.123 17.97.294.509zm-.582-1.005-31.25 17.75.365.632 31.123-17.97z"/><path fill="#4b4b4b" fill-rule="evenodd" d="m84.418 30.591.668-5.334.033-.29c.079-.728.129-1.187.605-1.463.709-.409 1.356.102 1.572.477l4.524 7.591a.147.147 0 0 1-.052.202l-.87.502-.465-.048-1.365-2.365a.146.146 0 0 0-.2-.054l-2.313 1.336a.146.146 0 0 0-.054.2l1.124 1.947a1 1 0 0 1 .066.143l.189.528a.146.146 0 0 1-.065.176l-.885.51a.146.146 0 0 1-.2-.053zm4.291-1.926a.366.366 0 0 0 .134-.5l-.742-1.284-.742-1.285a.29.29 0 0 0-.4-.107l-1.18.68a.3.3 0 0 0-.144.221l-.39 3.467a.44.44 0 0 0 .656.43zm-1.85 1.828a.123.123 0 1 0-.123-.212.123.123 0 0 0 .123.212" clip-rule="evenodd"/><path fill="#4f4f4f" d="m90.346 29.1-1.29.746.011.017 1.136 1.967 1.316-.76zm-2.71 4.212-.012-.02-1.124-1.947-.009-.018-1.237.714 1.146 1.985z"/><path fill="#3c3c3c" d="m102.299 22.785 1.568-.905.725 1.254-1.569.906z"/><path fill="#454545" d="m103.061 21.505.59-.34 1.453 2.517-.59.34z"/><path fill="#3c3c3c" d="m102.902 21.846.268-.155 1.237 2.143-.268.154zm.856-.494.214-.124 1.237 2.143-.214.123z"/><path fill="#454545" d="m101.934 22.153.857-.495 1.454 2.518-.857.495zm2.338-1.323a.023.023 0 0 0-.031-.008l-.378.218 1.453 2.517.378-.218a.022.022 0 0 0 .008-.031zm4.492.71c.006.011.02.015.031.009l.596-.344a.115.115 0 0 0 .042-.156l-1.34-2.32a.113.113 0 0 0-.155-.041l-.596.344a.02.02 0 0 0-.008.03l.134.234c.113-.038.164-.035.179-.01s-.008.072-.098.15l.428.741c.122-.022.183-.001.21.044.026.046.013.11-.067.204z"/><path fill="#434343" d="m104.273 20.836 1.426 2.469 3.062-1.768-.641-1.112c-.154.181-.557.475-1.41.967-.818.472-1.383.641-1.453.52-.069-.12.36-.525 1.178-.997a13 13 0 0 1 1.098-.581c.199-.09.342-.138.444-.156l-.428-.741c-.171.151-.585.424-1.438.917-.818.472-1.354.692-1.394.624-.039-.069.419-.423 1.237-.895.853-.493 1.297-.714 1.513-.787l-.131-.228z"/><path fill="#424242" d="m53.97 51.613 31.124-17.969.046.08-31.124 17.968Z"/><circle cx="91.01" cy="31.708" r=".205" fill="#454545" transform="rotate(-30 91.01 31.708)"/><circle cx="87.166" cy="33.926" r=".205" fill="#454545" transform="rotate(-30 87.166 33.926)"/><path fill="#4b4b4b" d="m84.262 32.201.587-.339.658 1.14-.587.339z"/><path fill="#4f4f4f" d="m28.781 63.754.34-.196 1.925 3.336-.339.195z"/><path fill="#434343" d="m8.559 76.68.571-.33.844 1.461-.571.33z"/><rect width=".544" height=".804" x="11.418" y="90.461" fill="#636363" stroke="#333" stroke-width=".493" rx=".272" transform="rotate(-30 11.418 90.46)"/><path fill="#515151" d="m32.281 69.034-3.265-5.656L.97 79.566a.8.8 0 0 0-.26 1.14c3.153 4.65 5.154 7.371 8.714 11.782a.33.33 0 0 0 .428.082c.387-.229 1.133-.698 1.534-1.137 0 0 11.8-13.473 15.993-18.13 1.771-1.722 3.688-3.435 4.902-4.269"/><path fill="#494949" stroke="#333" stroke-width=".493" d="m1.596 79.205-.626.36a.8.8 0 0 0-.26 1.14c3.153 4.65 5.154 7.372 8.714 11.783a.33.33 0 0 0 .428.082c.226-.134.575-.35.905-.592-3.814-4.86-5.857-7.693-9.16-12.773Z"/><path fill="#4c4c4c" d="m29.017 63.379-.453.26 1.602 2.711.425-.245z"/><rect width=".464" height="1.887" fill="#5d5d5d" stroke="#333" stroke-width=".493" rx=".232" transform="rotate(-76.255 63.994 37.958)skewX(-.001)"/><path stroke="#333" stroke-width=".985" d="m32.281 69.034-3.265-5.656L.97 79.566a.8.8 0 0 0-.26 1.14c3.153 4.65 5.154 7.371 8.714 11.782a.33.33 0 0 0 .428.082c.387-.229 1.133-.698 1.534-1.137 0 0 11.8-13.473 15.993-18.13 1.771-1.722 3.688-3.435 4.902-4.269zm3.495.084 3.597-2.077a.23.23 0 0 1 .312.084l1.684 2.917c.069.12.03.305-.06.43s-.08.264-.06.43l.146 1.402c.01.1.168.398.247.43.304.12.637.28.651.532.01.175-.138.257-.361.379a4 4 0 0 0-.327.194c-.228.154-.242.466-.242.466l-.105 3.805a.54.54 0 0 0 .271.47q.085.04.174.07c.182.063.327.025.39.309.062.287-.077.539-.3.752-.13.124-.553.28-.733.324l-5.108 1.449c-.252.05-.443-.182-.42-.476l.828-10.388c.005-.113-.133-.734-.584-1.502z"/><path stroke="#333" stroke-width=".985" d="m30.872 62.12-.651.376-1.208.875 3.266 5.656c.757-.499 1.182-.776 1.741-.745s1.22.215 1.756.837l3.597-2.077a.23.23 0 0 1 .312.083l.005.01 1.239-.716a1.8 1.8 0 0 1 .406-.629q.163-.163.372-.285l2.407-1.39a1.8 1.8 0 0 1 .637-.223l1.277-.737 1.633 2.83c-.1.086-.12.243-.033.344a.24.24 0 0 0 .34.024l6.426-5.552a.24.24 0 0 0-.312-.367.24.24 0 0 1-.139-.012.2.2 0 0 1-.087-.08l-1.565-2.71c-.158-.274-.125-.561.185-1.204s.373-.836.194-1.146l-3.092-5.357-19.31 11.149z"/><circle cx="37.545" cy="65.72" r=".721" stroke="#333" stroke-width=".493" transform="rotate(-30 37.545 65.72)"/><path fill="#515151" stroke="#333" stroke-width=".493" d="m30.57 64.102.934-.54.712 1.233-.934.539z"/><path fill="#676767" stroke="#333" stroke-width=".493" d="m31.35 63.295 3.294-1.902s2.383-1.253 2.855-.434c.473.818-1.804 2.255-1.804 2.255l-3.294 1.902z"/><path fill="#555" stroke="#333" stroke-width=".493" d="M29.84 64.397a.393.393 0 0 1 .423-.323l.306.027.712 1.232.124.718a.396.396 0 0 1-.49.206c-.086-.032-.413-.532-.459-.611l-.57-.987a.4.4 0 0 1-.046-.262Z"/><path fill="#4e4e4e" stroke="#333" stroke-width=".493" d="m32.096 61.412.121-.284-.325-.564-.307-.037-.817.472.51.885z"/><path stroke="#333" stroke-width=".985" d="m31.002 57.636-.547.316a.114.114 0 0 0-.054.127l.445 1.765c.057.343-.17.764-.28.967-.036.069-.06.113-.055.12l5.717-3.3a.894.894 0 0 1-.728-.875l-.005-1.486c-.002-.488.26-.938.685-1.177l10.16-5.724c.25-.141.542-.21.823-.147.547.121.859.355 1.138.837.276.479.22 1.147-.02 1.613l1.296-.748-.884-1.53a2.053 2.053 0 0 0-2.638-.84L32.69 53.712a.123.123 0 0 0-.055.173l.102.176q0 .002-.002.001c-.123-.114-.221-.115-.326-.07l-1.38.584a.68.68 0 0 0-.394.449l-.399 1.286z"/><path fill="#545454" stroke="#333" stroke-width=".493" d="M29.52 61.716a.06.06 0 0 1 .026-.079l1.244-.718a.06.06 0 0 1 .08.017l.58.801a.062.062 0 0 1-.019.09l-1.42.82a.062.062 0 0 1-.087-.028z" style="fill:#616161;fill-opacity:1"/><path stroke="#333" stroke-width=".493" d="M40.587 58.01a.884.884 0 0 1 .323-1.209l7.32-4.226a.884.884 0 0 1 1.208.324c.244.423.114.955-.368 1.233l-7.304 4.218c-.378.218-.887.166-1.18-.34zm-8.309 11.016-.6-1.04 2.602-1.502c-.184-.163-.319-.297-.392-.553s-.014-.706.12-.784l8.026-4.633 2.079 3.6-2.406 1.39a1.8 1.8 0 0 0-.779.914l-1.239.715-.005-.009a.23.23 0 0 0-.311-.084l-3.598 2.078c-.536-.623-1.196-.805-1.755-.837-.56-.032-.985.246-1.742.745z"/><path stroke="#333" stroke-width=".985" d="m50.182 49.858 3.341 5.789 1.436-1.224-3-5.196zm52.609-28.199-.857.494 1.453 2.518.857-.495-.108-.187.268-.155.108.187.589-.34-.108-.187.214-.124.108.188.378-.218a.02.02 0 0 0 .011-.019l-.003-.013-.002-.004 3.061-1.768.003.005q.007.01.016.01.008.002.015-.002l.596-.344a.114.114 0 0 0 .042-.156l-1.339-2.32a.115.115 0 0 0-.143-.048l-.013.006-.596.344a.023.023 0 0 0-.009.032l.003.005-3.062 1.768-.003-.005a.02.02 0 0 0-.015-.011.02.02 0 0 0-.016.002l-.377.218.108.188-.214.123-.108-.187-.59.34.109.188-.268.154z"/><path stroke="#333" stroke-width=".493" d="M105.954 20.083c.853-.492 1.297-.714 1.514-.786.112-.038.163-.036.178-.01q.014.02-.015.064a.5.5 0 0 1-.082.087c-.171.15-.585.424-1.438.917-.818.472-1.354.692-1.394.624-.039-.069.419-.424 1.237-.896zm2.232.139c.027.046.014.11-.066.204-.154.18-.557.475-1.41.967-.818.472-1.383.641-1.453.52-.069-.12.36-.525 1.178-.997.483-.28.838-.465 1.098-.581a2 2 0 0 1 .444-.157c.122-.022.183-.001.209.044z"/><path stroke="#333" stroke-width=".985" d="M56.215 54.573 86.31 36.652a.456.456 0 0 0 .162-.62l-2.797-4.844a.456.456 0 0 0-.616-.171L52.418 47.993a.456.456 0 0 0-.174.628l3.342 5.788c.127.22.41.294.629.164z"/><path stroke="#333" stroke-width=".493" d="m53.627 51.02 31.25-17.75.58 1.004-31.171 17.887z"/><path stroke="#333" stroke-width=".985" d="m84.418 30.591.668-5.334.033-.29c.079-.728.129-1.187.605-1.463.709-.409 1.356.102 1.572.477l4.524 7.591a.147.147 0 0 1-.052.202l-.87.502-.465-.048-1.365-2.365a.146.146 0 0 0-.2-.054l-2.313 1.336a.146.146 0 0 0-.054.2l1.124 1.947a1 1 0 0 1 .066.143l.189.528a.146.146 0 0 1-.065.176l-.885.51a.146.146 0 0 1-.2-.053z"/><path stroke="#333" stroke-width=".493" d="M88.706 28.665a.366.366 0 0 0 .134-.5l-.647-1.12a.44.44 0 0 0-.6-.16l-.041.024a.29.29 0 0 1-.4-.107l-.398-.69a.44.44 0 0 0-.589-.166l-.388.224a.3.3 0 0 0-.145.22l-.389 3.467a.439.439 0 0 0 .655.429z"/><path fill="#464646" stroke="#333" stroke-width=".493" d="m87.595 26.886-.041.023a.29.29 0 0 1-.4-.107l-.398-.69a.44.44 0 0 0-.6-.16l.802-.463a.293.293 0 0 1 .4.108l.836 1.45a.44.44 0 0 0-.6-.161z"/><path fill="#5c5c5c" d="M43.319 61.114a.81.81 0 0 1-1.107-.29l-.734-1.27 8.852-5.11.733 1.27a.81.81 0 0 1-.302 1.104z"/><path fill="#575757" d="m45.968 58.715-.76-1.316-.148.086.76 1.315a.37.37 0 0 1-.136.507l-2.448 1.413a.37.37 0 0 1-.506-.136l-.645-1.117a.086.086 0 0 0-.148.085l.645 1.118c.15.259.48.348.74.198l2.448-1.413a.54.54 0 0 0 .198-.74m1.54-.889-.76-1.316-.148.086.76 1.315c.15.26.48.348.74.198l2.448-1.413a.54.54 0 0 0 .198-.74l-.645-1.117a.086.086 0 1 0-.148.085l.645 1.118a.37.37 0 0 1-.136.506l-2.448 1.413a.37.37 0 0 1-.506-.135"/><path fill="#626262" d="m46.549 57.227-.77.444a.057.057 0 0 0-.02.078l.654 1.133a.056.056 0 0 0 .078.021l.77-.444a.057.057 0 0 0 .02-.078l-.654-1.133a.057.057 0 0 0-.079-.021"/><path fill="#696969" d="m46.766 58.745.074.128c.034.06.11.08.17.045a.125.125 0 0 0 .047-.17l-.074-.128Z"/><path fill="#676767" d="m46.451 56.14-.068.04.752 1.235.068-.041z"/><path fill="#575757" d="m50.082 54.015-3.457 1.996.247.428 3.457-1.996zm-8.852 5.11 3.458-1.996.247.428-3.457 1.996z"/><path stroke="#333" stroke-width=".493" d="m46.623 56.011 3.459-1.996.98 1.7a.81.81 0 0 1-.302 1.102l-7.442 4.297a.81.81 0 0 1-1.106-.29l-.982-1.699 3.459-1.996.247.428 1.935-1.117z"/></g><path d="m42.893 61.043 8.79-5.075-.578-.202" style="opacity:.341837;fill:#5c5a64;stroke:#323036;stroke-width:.986305;stroke-linecap:butt;stroke-linejoin:round;stroke-dasharray:none"/><path d="m40.814 56.772 7.862-4.539" style="opacity:.341837;fill:#5c5a64;stroke:#323036;stroke-width:.986305;stroke-linecap:round;stroke-linejoin:round;stroke-dasharray:none"/><path d="m55.275 53.322 30.951-18.35M52.463 48.45 83.83 30.822M54.153 50.867l30.91-17.846" style="opacity:.497409;fill:#5c5a64;stroke:#333;stroke-width:1.2867;stroke-linecap:round;stroke-linejoin:round;stroke-dasharray:none;stroke-opacity:1"/><path d="m91.487 29.762 11.273-6.482" style="opacity:.497409;fill:#5c5a64;stroke:#323036;stroke-width:1.2867;stroke-linecap:square;stroke-linejoin:round;stroke-dasharray:none"/><path d="m48.585 66.232 5.78-5.147M36.817 68.077c.288.59.627 1.182.584 1.971l-.788 10.5M32.032 67.498l2.867-1.655c-.608-.163-.844-.787-.524-.972l7.553-4.38M9.543 91.358l.976-.933L26.38 72.293l4.983-4.354" style="opacity:.497409;fill:none;stroke:#333;stroke-width:1.2867;stroke-linecap:square;stroke-linejoin:round;stroke-dasharray:none;stroke-opacity:1"/><path d="m29.723 62.484 7.867-4.545" style="opacity:.497409;fill:none;stroke:#333;stroke-width:.601473;stroke-linecap:square;stroke-linejoin:round;stroke-dasharray:none;stroke-opacity:1"/><path d="m40.634 56.185 9.652-5.572" style="opacity:.497409;fill:none;stroke:#333;stroke-width:.600376;stroke-linecap:square;stroke-linejoin:round;stroke-dasharray:none;stroke-opacity:1"/><path d="m50.671 49.794 1.474-.519M53.34 54.255l1.185-1.017" style="opacity:.497409;fill:none;stroke:#333;stroke-width:1.2867;stroke-linecap:square;stroke-linejoin:round;stroke-dasharray:none;stroke-opacity:1"/><path d="m32.35 64.035 3.2-1.848c.691-.398 1.51-1.015 1.618-1.586" style="opacity:.497409;fill:#4d4d4d;fill-opacity:1;stroke:#333;stroke-width:.78604;stroke-linecap:square;stroke-linejoin:round;stroke-dasharray:none;stroke-opacity:1"/><path d="m31.848 64.013-.848.346c.23.397.187 1.5-.668.467" style="opacity:.497409;fill:#4d4d4d;fill-opacity:1;stroke:#333;stroke-width:.485642;stroke-linecap:square;stroke-linejoin:round;stroke-dasharray:none;stroke-opacity:1"/><path d="m86.503 32.98 4.583-2.647" style="opacity:.497409;fill:#404040;fill-opacity:1;stroke:#333;stroke-width:1.48697;stroke-linecap:square;stroke-linejoin:round;stroke-dasharray:none;stroke-opacity:1"/><circle cx="12.749" cy="77.194" r=".724" style="opacity:.227041;fill:#404040;fill-opacity:1;stroke:#333;stroke-width:1.48697;stroke-linecap:square;stroke-linejoin:round;stroke-dasharray:none;stroke-opacity:1" transform="rotate(-30)"/><path d="m40.842 58.01-2.993.108" style="opacity:1;fill:none;fill-opacity:1;stroke:#333;stroke-width:.485642;stroke-linecap:square;stroke-linejoin:round;stroke-dasharray:none;stroke-opacity:1"/><path d="m38.779 59.592-.935-1.392 2.93-.126z" style="opacity:.522959;fill:#333;fill-opacity:1;stroke:none;stroke-width:.485642;stroke-linecap:square;stroke-linejoin:round;stroke-dasharray:none;stroke-opacity:1"/><path d="m40.35 56.074.155.72.49 1.075-3.354-.022 2.368-1.733z" style="opacity:.369898;fill:#333;fill-opacity:1;stroke:none;stroke-width:.485642;stroke-linecap:square;stroke-linejoin:round;stroke-dasharray:none;stroke-opacity:1"/><path d="m1.229 79.992 27.81-16.056" style="opacity:.369898;fill:#616161;fill-opacity:1;stroke:#333;stroke-width:1.5871;stroke-linecap:square;stroke-linejoin:round;stroke-dasharray:none;stroke-opacity:1"/><path d="m35.045 57.172.154-3.634 10.747-6.205" style="opacity:.369898;fill:none;fill-opacity:1;stroke:#333;stroke-width:1.18657;stroke-linecap:square;stroke-linejoin:round;stroke-dasharray:none;stroke-opacity:1"/><path d="m29.873 61.705 1.102-.636-.395-.536" style="opacity:.369898;fill:none;fill-opacity:1;stroke:#333;stroke-width:.185245;stroke-linecap:square;stroke-linejoin:round;stroke-dasharray:none;stroke-opacity:1"/></g></svg>