<?xml version="1.0" encoding="UTF-8" standalone="no"?>
<svg
   width="110"
   height="110"
   viewBox="0 0 110 110"
   fill="none"
   version="1.1"
   id="svg79"
   sodipodi:docname="m1895.svg"
   inkscape:version="1.1.2 (0a00cf5339, 2022-02-04)"
   xmlns:inkscape="http://www.inkscape.org/namespaces/inkscape"
   xmlns:sodipodi="http://sodipodi.sourceforge.net/DTD/sodipodi-0.dtd"
   xmlns="http://www.w3.org/2000/svg"
   xmlns:svg="http://www.w3.org/2000/svg">
  <sodipodi:namedview
     id="namedview81"
     pagecolor="#505050"
     bordercolor="#ffffff"
     borderopacity="1"
     inkscape:pageshadow="0"
     inkscape:pageopacity="0"
     inkscape:pagecheckerboard="1"
     showgrid="false"
     inkscape:zoom="7.9181818"
     inkscape:cx="55.568312"
     inkscape:cy="52.663605"
     inkscape:window-width="2560"
     inkscape:window-height="1372"
     inkscape:window-x="0"
     inkscape:window-y="0"
     inkscape:window-maximized="1"
     inkscape:current-layer="svg79" />
  <g
     clip-path="url(#clip0_1243_369)"
     id="g72"
     transform="matrix(1.0225545,0,0,1.0225545,-6.1630469,-1.4248695)">
    <path
       d="m 92.3908,3.29633 c 2.6181,-1.46503 3.8031,-1.14139 5.0744,0.16521 l -6.2285,4.15952 c 0,0 -1.464,-2.85969 1.1541,-4.32473 z"
       fill="#404040"
       stroke="#333333"
       stroke-width="1.87539"
       stroke-miterlimit="3.99393"
       stroke-linecap="round"
       id="path2" />
    <path
       d="M 101.358,6.84249 71.3497,23.9825 68.2578,20.5209 91.2352,7.61993 97.4637,3.46041 98.8129,2.7931 Z"
       fill="#4d4d4d"
       stroke="#333333"
       stroke-width="1.87595"
       stroke-miterlimit="3.99393"
       stroke-linecap="round"
       id="path4" />
    <path
       fill-rule="evenodd"
       clip-rule="evenodd"
       d="m 62.0028,29.4133 9.3682,-5.2385 c 0,0 -2.1777,-3.4882 -2.2193,-3.7079 -0.0416,-0.2196 -0.4603,-0.6985 -0.6739,-0.6454 -0.2136,0.053 -8.9493,5.2717 -8.9493,5.2717 z"
       fill="#595959"
       stroke="#333333"
       stroke-width="1.87595"
       stroke-miterlimit="3.99393"
       stroke-linecap="round"
       id="path6" />
    <path
       fill-rule="evenodd"
       clip-rule="evenodd"
       d="m 36.2598,104.244 c 0,0 1.9273,2.373 2.9601,1.791 1.0327,-0.582 0.4909,-3.672 0.4909,-3.672 z"
       fill="#3d3d3d"
       stroke="#333333"
       stroke-width="0.937981"
       stroke-miterlimit="3.99393"
       stroke-linecap="round"
       id="path8" />
    <path
       fill-rule="evenodd"
       clip-rule="evenodd"
       d="m 47.0121,63.5068 c 0.0556,-0.0321 4.1093,-3.6057 4.1093,-3.6057 2.2852,-1.5123 2.5552,0.306 3.1177,1.5985 2.5734,7.32 6.57,5.7022 8.6923,3.7352 -7.2398,2.2271 -7.8856,-4.1634 -6.4357,-9.6928 l -1.0944,-0.5164 0.7827,-1.8038 -9.6434,5.7344 z"
       fill="#3d3d3d"
       stroke="#333333"
       stroke-width="0.937695"
       stroke-miterlimit="3.99393"
       stroke-linecap="round"
       id="path10" />
    <path
       fill-rule="evenodd"
       clip-rule="evenodd"
       d="m 39.0192,72.1128 c 2.1005,-1.8881 4.9145,-3.2635 7.7409,-1.1631 4.5797,3.4035 10.5044,2.0861 15.0157,-1.2876 4.6403,-3.4703 8.2861,-5.9642 5.4376,-13.7503 -2.8484,-7.7861 -3.0439,-8.2915 -3.0439,-8.2915 l -7.8604,5.154 1.4111,1.1036 c 4.1509,-2.3203 7.5633,-1.4475 8.6465,3.6157 1.26,5.8897 -2.463,12.0867 -10.6332,13.6171 -4.2699,0.8821 -11.1649,2.1643 -8.7422,-9.0744 -3.5416,2.8959 -6.5002,6.4934 -7.9721,10.0765 z"
       fill="#474747"
       id="path12" />
    <path
       d="m 56.3091,52.7743 7.8604,-5.154 c 0,0 0.1955,0.5054 3.0439,8.2915 2.8485,7.7861 -0.7973,10.28 -5.4376,13.7503 -4.5113,3.3737 -10.436,4.6911 -15.0157,1.2876 -2.8264,-2.1004 -5.6404,-0.725 -7.7409,1.1631 1.4719,-3.5831 4.4305,-7.1806 7.9721,-10.0765"
       stroke="#333333"
       stroke-width="1.87539"
       stroke-miterlimit="3.99393"
       stroke-linecap="round"
       id="path14" />
    <path
       fill-rule="evenodd"
       clip-rule="evenodd"
       d="m 61.6802,29.5663 c 0.071,0.1686 2.6761,4.4494 2.6761,4.4494 l 10.202,-5.8889 C 74.4432,27.5722 74.5571,26.9317 73.9976,26.5435 L 71.6328,23.649 Z"
       fill="#696969"
       stroke="#333333"
       stroke-width="1.87595"
       stroke-miterlimit="3.99393"
       stroke-linecap="round"
       id="path16" />
    <path
       d="m 54.3171,28.6512 -2.5156,1.4523 c -0.0878,0.0507 -0.1178,0.163 -0.0672,0.2507 l 8.6375,14.9605 c 0.0507,0.0878 0.1629,0.1179 0.2507,0.0672 l 2.5156,-1.4524 c 0.0877,-0.0506 0.1178,-0.1629 0.0671,-0.2507 L 54.5678,28.7184 c -0.0507,-0.0878 -0.1629,-0.1179 -0.2507,-0.0672 z"
       fill="#474747"
       stroke="#333333"
       stroke-width="0.937981"
       stroke-miterlimit="3.99393"
       stroke-linecap="round"
       id="path18" />
    <path
       fill-rule="evenodd"
       clip-rule="evenodd"
       d="m 27.753,61.1039 c 0.7547,-1.8476 1.105,-3.8451 2.7061,-5.4515 -0.428,-2.2817 -1.6664,-3.3857 -2.4998,-5.0782 -1.0136,-1.5472 -2.2866,-1.4358 -3.7043,-0.7684 -1.4177,0.6675 -3.0204,0.7284 -4.0832,0.7075 -1.0628,-0.021 -1.5427,0.0565 -2.3578,0.2482 l -0.2685,-0.9188 3.8602,-0.8668 c 2.4322,-0.341 3.5738,-1.4891 4.1546,-2.9879 l -0.8336,-3.9842 1.4033,-0.7447 0.6695,1.2503 1.7905,-0.9813 7.2525,14.172 z"
       fill="#595959"
       stroke="#333333"
       stroke-width="0.937981"
       stroke-miterlimit="3.99393"
       stroke-linecap="round"
       id="path20" />
    <path
       fill-rule="evenodd"
       clip-rule="evenodd"
       d="m 20.7938,64.9004 c 1.0112,3.0586 2.0305,6.2588 2.0484,9.8001 l 15.3402,-0.159 c 1.7006,-5.1191 4.7833,-9.4319 9.4321,-12.8313 0.7554,-3.5534 3.4837,-5.6714 6.6229,-7.4904 l 9.7735,-6.2974 c 1.4761,-1.439 0.7868,-2.5121 0.0975,-3.5852 -0.3313,-0.5159 -0.6627,-1.0318 -0.7535,-1.5884 -1.6603,-5.291 0.2981,-6.9691 2.6025,-8.3754 l -5.7676,-9.9898 c -1.6781,-0.4628 -5.1958,1.1249 -8.1244,2.6216 L 34.0197,37.2798 c -0.4911,0.2089 -0.9651,0.5175 -1.4336,0.8227 -0.9773,0.6364 -1.9311,1.2575 -2.968,0.9262 l -1.6869,0.965 4.7078,9.8817 c 1.7765,8.6349 -1.5263,10.4452 -11.8452,15.025 z m 33.3748,-36.8833 0.2331,-0.1407 9.9144,17.1722 -19.251,12.1098 -9.9842,-17.021 -0.5201,-3.0783 17.6565,-10.063 z"
       fill="#737373"
       stroke="#333333"
       stroke-width="1.87595"
       stroke-miterlimit="3.99393"
       stroke-linecap="round"
       id="path22" />
    <path
       fill-rule="evenodd"
       clip-rule="evenodd"
       d="m 46.9551,62.2053 c -2.3171,11.0563 4.5299,9.7825 8.7782,8.9049 8.1702,-1.5304 11.8932,-7.7274 10.6332,-13.6171 -1.0831,-5.0632 -4.4956,-5.936 -8.6465,-3.6157 l -1.3338,-1.0433 -2.1499,1.3853 c -3.1392,1.819 -5.8675,3.9369 -6.6229,7.4903 -0.223,0.1631 -0.4424,0.3283 -0.6583,0.4956 z"
       stroke="#333333"
       stroke-width="0.937695"
       stroke-miterlimit="3.99393"
       stroke-linecap="round"
       id="path24" />
    <path
       fill-rule="evenodd"
       clip-rule="evenodd"
       d="M 33.3992,71.2851 38.3619,58.1973 Z"
       fill="#696969"
       id="path26" />
    <path
       d="M 37.1311,73.1306 42.2255,59.0037 C 42.351,58.4338 42.0723,58.021 41.6774,57.6534 l -1.0923,0.3326 c 0,0 -1.3711,0.1465 -2.2232,0.2113 l -4.9627,13.0878 z"
       fill="#696969"
       id="path28" />
    <path
       fill-rule="evenodd"
       clip-rule="evenodd"
       d="M 33.3992,71.2851 38.3619,58.1973 Z"
       stroke="#333333"
       stroke-width="0.937981"
       stroke-miterlimit="3.99393"
       stroke-linecap="round"
       id="path30" />
    <path
       d="M 37.1311,73.1306 42.2255,59.0037 C 42.351,58.4338 42.0723,58.021 41.6774,57.6534 l -1.0923,0.3326 c 0,0 -1.3711,0.1465 -2.2232,0.2113 l -4.9627,13.0878 z"
       stroke="#333333"
       stroke-width="0.937981"
       stroke-miterlimit="3.99393"
       stroke-linecap="round"
       id="path32" />
    <path
       d="m 36.5126,70.7448 c 0.4142,-0.2392 0.5561,-0.7689 0.317,-1.1831 -0.2392,-0.4142 -0.7689,-0.5561 -1.1831,-0.317 -0.4142,0.2392 -0.5561,0.7688 -0.317,1.1831 0.2392,0.4142 0.7688,0.5561 1.1831,0.317 z"
       fill="#595959"
       id="path34" />
    <path
       d="m 29.7955,69.2172 c 0.5063,-0.2923 0.6798,-0.9396 0.3875,-1.4459 -0.2923,-0.5063 -0.9397,-0.6798 -1.446,-0.3875 -0.5063,0.2923 -0.6797,0.9397 -0.3874,1.446 0.2923,0.5063 0.9396,0.6797 1.4459,0.3874 z"
       fill="#595959"
       id="path36" />
    <path
       fill-rule="evenodd"
       clip-rule="evenodd"
       d="m 45.2113,55.3973 4.8246,-2.8625 -0.2556,-0.4561 11.1846,-6.6589 -9.2034,-16.025 -12.7032,7.3342 -0.5729,-0.4026 -3.0518,1.7227 c 3.0372,5.8719 6.3449,11.6351 9.7777,17.3482 z"
       fill="#595959"
       stroke="#333333"
       stroke-width="0.937695"
       stroke-miterlimit="3.99393"
       stroke-linecap="round"
       id="path38" />
    <path
       fill-rule="evenodd"
       clip-rule="evenodd"
       d="m 40.0768,44.1703 1.5834,-0.9142 2.1091,3.6529 c -0.3836,0.6482 -0.8306,1.0858 -1.6813,0.841 z"
       fill="#454545"
       stroke="#333333"
       stroke-width="0.937981"
       stroke-miterlimit="3.99393"
       stroke-linecap="round"
       id="path40" />
    <path
       fill-rule="evenodd"
       clip-rule="evenodd"
       d="m 43.862,50.7259 1.5834,-0.9141 1.5043,2.6055 c -0.4365,0.5564 -0.9059,0.9553 -1.6651,0.8689 z"
       fill="#454545"
       stroke="#333333"
       stroke-width="0.937981"
       stroke-miterlimit="3.99393"
       stroke-linecap="round"
       id="path42" />
    <path
       fill-rule="evenodd"
       clip-rule="evenodd"
       d="m 36.1843,37.4271 1.5834,-0.9142 1.5042,2.6055 c -0.4365,0.5565 -0.9058,0.9554 -1.6651,0.8689 z"
       fill="#454545"
       stroke="#333333"
       stroke-width="0.937981"
       stroke-miterlimit="3.99393"
       stroke-linecap="round"
       id="path44" />
    <path
       fill-rule="evenodd"
       clip-rule="evenodd"
       d="m 46.9041,38.3913 3.4209,-1.975 c 1.8491,-1.0676 3.6614,-1.3664 4.0635,-0.6699 0.4021,0.6964 -0.7628,2.1166 -2.6119,3.1841 l -3.4209,1.9751 c -1.8491,1.0676 -3.6614,1.3663 -4.0635,0.6699 -0.4021,-0.6965 0.7628,-2.1166 2.6119,-3.1842 z"
       fill="#454545"
       stroke="#333333"
       stroke-width="0.937981"
       stroke-miterlimit="3.99393"
       stroke-linecap="round"
       id="path46" />
    <path
       d="m 54.532,43.7044 -3.4208,1.975 c -1.8434,1.0643 -3.0954,2.3469 -2.7964,2.8647 0.299,0.5179 2.0357,0.0749 3.8791,-0.9894 l 3.4208,-1.975 c 1.8434,-1.0643 3.0954,-2.3468 2.7964,-2.8647 -0.299,-0.5178 -2.0357,-0.0749 -3.8791,0.9894 z"
       fill="#454545"
       stroke="#333333"
       stroke-width="0.937981"
       stroke-miterlimit="3.99393"
       stroke-linecap="round"
       id="path48" />
    <path
       fill-rule="evenodd"
       clip-rule="evenodd"
       d="m 51.1234,30.0904 c 0.6965,-0.4021 -0.7628,2.1166 -2.6119,3.1842 l -3.4208,1.975 c -1.8491,1.0676 -4.76,1.072 -4.0636,0.6699 z"
       fill="#454545"
       stroke="#333333"
       stroke-width="0.937981"
       stroke-miterlimit="3.99393"
       stroke-linecap="round"
       id="path50" />
    <path
       fill-rule="evenodd"
       clip-rule="evenodd"
       d="m 30.7033,104.819 c 5.4163,0.008 9.8957,-1.832 13.1827,-6.0248 -5.2456,-7.0408 -7.6092,-15.1735 -5.5835,-23.8259 -7.9385,-7.2554 -12.147,-3.3289 -15.5123,-0.1068 -1.0463,11.4019 2.875,20.8941 7.9131,29.9575 z"
       fill="#6d3713"
       stroke="#572c0f"
       stroke-width="1.87595"
       stroke-miterlimit="3.99393"
       stroke-linecap="round"
       id="path52" />
    <path
       fill-rule="evenodd"
       clip-rule="evenodd"
       d="m 31.5582,92.4773 2.7025,-5.1345 -4.4934,-3.0356 -2.6219,4.9213 z"
       fill="#643212"
       stroke="#572c0f"
       stroke-width="0.937981"
       stroke-miterlimit="3.99393"
       stroke-linecap="round"
       id="path54" />
    <path
       d="m 31.1058,88.9801 c 0.3491,-0.2015 0.4686,-0.6478 0.2671,-0.9968 -0.2015,-0.349 -0.6478,-0.4686 -0.9968,-0.2671 -0.349,0.2015 -0.4686,0.6478 -0.2671,0.9968 0.2015,0.349 0.6478,0.4686 0.9968,0.2671 z"
       fill="#88593a"
       stroke="#572c0f"
       stroke-width="0.937981"
       stroke-miterlimit="3.99393"
       stroke-linecap="round"
       id="path56" />
    <path
       fill-rule="evenodd"
       clip-rule="evenodd"
       d="m 39.1523,36.666 9.6762,16.118 z"
       fill="#474747"
       id="path58" />
    <path
       d="m 39.1523,36.666 9.6762,16.118"
       stroke="#333333"
       stroke-width="0.937981"
       stroke-miterlimit="3.99393"
       stroke-linecap="round"
       id="path60" />
    <path
       fill-rule="evenodd"
       clip-rule="evenodd"
       d="m 74.9378,27.82 4.7307,-2.6479 -0.6379,-0.9929 -4.7494,2.6958 z"
       fill="#4f4f4f"
       stroke="#333333"
       stroke-width="0.937981"
       stroke-miterlimit="3.99393"
       stroke-linecap="round"
       id="path62" />
    <path
       fill-rule="evenodd"
       clip-rule="evenodd"
       d="m 78.2752,23.9326 1.1265,2.0418 3.316,-1.6844 c -0.1565,-0.8886 -0.3366,-1.7655 -1.3038,-2.2544 z"
       fill="#454545"
       stroke="#333333"
       stroke-width="0.937981"
       stroke-miterlimit="3.99393"
       stroke-linecap="round"
       id="path64" />
    <path
       fill-rule="evenodd"
       clip-rule="evenodd"
       d="m 40.2912,58.029 c 0,0 -0.985,0.4201 -1.5116,0.1263 -0.5265,-0.2938 -1.0163,-1.3145 -0.9508,-1.8737 0.0656,-0.5592 0.8256,-0.9742 0.8256,-0.9742 z"
       fill="#595959"
       stroke="#333333"
       stroke-width="0.937981"
       stroke-miterlimit="3.99393"
       stroke-linecap="round"
       id="path66" />
    <path
       fill-rule="evenodd"
       clip-rule="evenodd"
       d="m 41.6242,57.5892 -0.8871,0.5103 -2.6196,-4.2531 c 0.8752,-1.4765 1.451,-2.9658 0.5248,-4.5439 l -5.0632,-8.223 3.8756,-2.2862 0.6748,1.2401 -2.2549,1.3478 6.9081,12.3181 1.1695,-0.5085 0.2235,0.371 -0.4712,0.2904 1.3102,2.2811 -0.8225,0.4158 -0.7602,-0.4566 -1.6103,0.9845 z"
       fill="#595959"
       stroke="#333333"
       stroke-width="0.937981"
       stroke-miterlimit="3.99393"
       stroke-linecap="round"
       id="path68" />
    <rect
       x="38.222698"
       y="105.565"
       width="1.28338"
       height="3.6610401"
       rx="0.641689"
       transform="rotate(-30,38.2227,105.565)"
       fill="#3d3d3d"
       stroke="#333333"
       stroke-width="0.937695"
       id="rect70" />
  </g>
  <defs
     id="defs77">
    <clipPath
       id="clip0_1243_369">
      <rect
         width="110"
         height="110"
         fill="white"
         id="rect74" />
    </clipPath>
  </defs>
</svg>
