<?xml version="1.0" encoding="UTF-8" standalone="no"?>
<svg
   id="Gray_bits"
   data-name="Gray bits"
   viewBox="0 0 110.00001 110"
   version="1.1"
   sodipodi:docname="eipis_garand_v3.svg"
   inkscape:version="1.1.2 (0a00cf5339, 2022-02-04)"
   xml:space="preserve"
   width="110"
   height="110"
   xmlns:inkscape="http://www.inkscape.org/namespaces/inkscape"
   xmlns:sodipodi="http://sodipodi.sourceforge.net/DTD/sodipodi-0.dtd"
   xmlns="http://www.w3.org/2000/svg"
   xmlns:svg="http://www.w3.org/2000/svg"><sodipodi:namedview
     id="namedview2"
     pagecolor="#505050"
     bordercolor="#000000"
     borderopacity="0.25"
     inkscape:showpageshadow="2"
     inkscape:pageopacity="0"
     inkscape:pagecheckerboard="true"
     inkscape:deskcolor="#d1d1d1"
     inkscape:zoom="8"
     inkscape:cx="61.125"
     inkscape:cy="49.875"
     inkscape:window-width="2560"
     inkscape:window-height="1372"
     inkscape:window-x="0"
     inkscape:window-y="0"
     inkscape:window-maximized="1"
     inkscape:current-layer="Gray_bits"
     inkscape:pageshadow="0"
     showgrid="false" /><defs
     id="defs1"><style
       id="style1">
      .cls-1 {
        fill: #1c1c1c;
      }

      .cls-2 {
        fill: #363636;
      }

      .cls-3 {
        fill: #3f3f3f;
      }

      .cls-4 {
        fill: #525252;
      }

      .cls-5 {
        fill: #282828;
      }

      .cls-6 {
        fill: #7d461f;
      }

      .cls-6, .cls-7, .cls-8, .cls-9, .cls-10, .cls-11, .cls-12, .cls-13, .cls-14, .cls-15, .cls-16, .cls-17, .cls-18, .cls-19, .cls-20, .cls-21 {
        stroke-miterlimit: 10;
      }

      .cls-6, .cls-7, .cls-15, .cls-16, .cls-17, .cls-18, .cls-19, .cls-20 {
        stroke-width: 4px;
      }

      .cls-6, .cls-7, .cls-18, .cls-21 {
        stroke: #512d13;
      }

      .cls-7 {
        fill: #854a21;
      }

      .cls-8 {
        fill: #404040;
      }

      .cls-8, .cls-9, .cls-10, .cls-11, .cls-12, .cls-13, .cls-14, .cls-21 {
        stroke-width: 2px;
      }

      .cls-8, .cls-9, .cls-12, .cls-14, .cls-15, .cls-20 {
        stroke: #333;
      }

      .cls-9 {
        fill: #292929;
      }

      .cls-10, .cls-11, .cls-13, .cls-16, .cls-17, .cls-19 {
        stroke: #363636;
      }

      .cls-10, .cls-15, .cls-16 {
        fill: #4a4a4a;
      }

      .cls-11, .cls-17 {
        fill: #666;
      }

      .cls-12 {
        fill: #4d4d4d;
      }

      .cls-13, .cls-14, .cls-19 {
        fill: #5f5f5f;
      }

      .cls-18 {
        fill: #70401b;
      }

      .cls-20 {
        fill: #494949;
      }

      .cls-21 {
        fill: none;
      }
    </style><style
       id="style1-1">
      .cls-1 {
        fill: #171717;
      }

      .cls-2 {
        fill: #1a1a1a;
      }

      .cls-3 {
        fill: #505050;
        stroke-width: 1.5px;
      }

      .cls-3, .cls-4, .cls-5, .cls-6, .cls-7 {
        stroke-linecap: round;
        stroke-linejoin: round;
      }

      .cls-3, .cls-4, .cls-5, .cls-7 {
        stroke: #171717;
      }

      .cls-4 {
        fill: #3c3c3c;
      }

      .cls-4, .cls-5, .cls-6, .cls-7 {
        stroke-width: 3px;
      }

      .cls-5 {
        fill: #434343;
      }

      .cls-6 {
        fill: #7d521b;
        stroke: #261a08;
      }

      .cls-7 {
        fill: none;
      }
    </style><inkscape:path-effect
       effect="fillet_chamfer"
       id="path-effect5681"
       is_visible="true"
       lpeversion="1"
       nodesatellites_param="F,0,0,1,0,0.13022528,0,1 @ F,0,0,1,0,0.40340994,0,1 @ F,0,0,1,0,0.40340994,0,1 @ F,0,1,1,0,0.13022528,0,1"
       unit="px"
       method="auto"
       mode="F"
       radius="0"
       chamfer_steps="1"
       flexible="false"
       use_knot_distance="true"
       apply_no_radius="true"
       apply_with_radius="true"
       only_selected="false"
       hide_knots="false"
       satellites_param="" /><inkscape:path-effect
       effect="fillet_chamfer"
       id="path-effect5679"
       is_visible="true"
       lpeversion="1"
       nodesatellites_param="F,0,0,1,0,0,0,1 @ F,0,0,1,0,0,0,1 @ F,0,0,1,0,0,0,1 @ F,0,0,1,0,0.30813358,0,1 @ F,0,1,1,0,0.30813358,0,1 @ F,0,0,1,0,0,0,1"
       unit="px"
       method="auto"
       mode="F"
       radius="0"
       chamfer_steps="1"
       flexible="false"
       use_knot_distance="true"
       apply_no_radius="true"
       apply_with_radius="true"
       only_selected="false"
       hide_knots="false"
       satellites_param="" /><inkscape:path-effect
       effect="fillet_chamfer"
       id="path-effect5009"
       is_visible="true"
       lpeversion="1"
       nodesatellites_param="F,0,1,1,0,0.2234803,0,1 @ F,0,0,1,0,0.2234803,0,1 @ F,0,0,1,0,0,0,1 @ F,0,0,1,0,0,0,1"
       unit="px"
       method="auto"
       mode="F"
       radius="0"
       chamfer_steps="1"
       flexible="false"
       use_knot_distance="true"
       apply_no_radius="true"
       apply_with_radius="true"
       only_selected="false"
       hide_knots="false"
       satellites_param="" /><inkscape:path-effect
       effect="fillet_chamfer"
       id="path-effect3009"
       is_visible="true"
       lpeversion="1"
       nodesatellites_param="F,0,0,1,0,0,0,1 @ F,0,1,1,0,0.012714645,0,1 @ F,0,0,1,0,0.032170229,0,1 @ F,0,0,1,0,0.032170229,0,1 @ F,0,0,1,0,0.012714645,0,1 @ F,0,0,1,0,0,0,1 @ F,0,0,1,0,0,0,1 @ F,0,0,1,0,0,0,1 @ F,0,0,1,0,0,0,1"
       unit="px"
       method="auto"
       mode="F"
       radius="0"
       chamfer_steps="1"
       flexible="false"
       use_knot_distance="true"
       apply_no_radius="true"
       apply_with_radius="true"
       only_selected="false"
       hide_knots="false"
       satellites_param="" /></defs><g
     id="g3465"
     transform="matrix(0.10235237,-0.05909317,0.05909317,0.10235237,-10.806361,65.884527)"><g
       id="Lower_grays"
       data-name="Lower grays"><g
         id="g144"><polygon
           id="polygon136"
           class="cls-15"
           points="358.58,225.14 371.22,215.71 368.72,217.25 " /><path
           id="path138"
           class="cls-16"
           d="m 333.12,222.25 -8.25,-9.44 c 0.5,0.6 7.65,8.94 8.25,9.44 z" /><path
           id="path140"
           class="cls-15"
           d="m 333.12,222.25 2.2,2.1 24.63168,0.37081 c 0,0 -17.43168,-0.67081 -22.33168,-0.67081 -1.5,0.1 -3,-0.6 -4.5,-1.8 z"
           sodipodi:nodetypes="ccccc" /><path
           id="path142"
           class="cls-9"
           d="m 310.22,194.45 5.4,7 c 0,0 -0.5,10.9 7.1,10.9 l 8.83664,8.09503 c -2.6,-2.9 -4.73664,-6.99503 -4.73664,-11.09503 -0.1,-7.2 4.5,-9.9 4.5,-9.9 l 0.9,-2.5 h 36.5 v 20.3 l -1.5,1.2 h 12.4 c 2.3,0 4.1,-1.8 4.1,-4.1 v -12.5 h 8.2 v -6.3 z m 11.5,16.2 c -2.5,0.4 -4.7,-1.8 -4.3,-4.3 0.2,-1.6 1.5,-2.9 3.1,-3.1 2.5,-0.4 4.7,1.8 4.3,4.3 -0.2,1.5 -1.5,2.8 -3.1,3.1 z m 54,6.3 c -2.9,0 -5.3,-3.2 -5.3,-7.1 0,-3.9 2.4,-7.1 5.3,-7.1 2.9,0 5.3,3.2 5.3,7.1 0,3.9 -2.4,7.1 -5.3,7.1 z"
           style="fill:#666666;fill-opacity:1;stroke-width:4;stroke-dasharray:none"
           sodipodi:nodetypes="ccccccccccssccccccccccsssss" /></g><path
         id="path146"
         class="cls-2"
         d="m 342.42,198.15 c -0.4,0 -0.8,0.3 -1,0.7 -0.9,1.6 -3.2,6.3 -3.2,11.5 0,5.2 1.2,8 1.6,8.8 0.1,0.2 0.2,0.3 0.3,0.4 l 2.44258,0.62753 0.2,-1.8 c 0,-0.2 0,-0.5 -0.1,-0.7 -0.6,-1.3 -2.5,-6.7 0.6,-10.2 2.1,-2.4 3.85742,-5.32753 6.25742,-7.42753 1,-0.8 0.3,-2.4 -1,-2.3 z"
         sodipodi:nodetypes="ccsscccccccc" /><polygon
         id="polygon148"
         class="cls-15"
         points="480.12,195.15 406.72,194.45 402.62,201.05 393.62,201.25 397.72,205.45 480.02,206.25 "
         style="stroke-width:8;stroke-dasharray:none" /><rect
         id="rect150"
         class="cls-16"
         x="754.71997"
         y="124.75"
         width="12.9"
         height="40.099998"
         style="stroke-width:8;stroke-dasharray:none" /></g><g
       id="Sight"><path
         id="path163"
         class="cls-15"
         d="m 308.02,153.85 3.5,-16.5 40.9,-4.8 c 0,0 3.4,1.3 3.6,-13 0.2,-14.3 13.8,-11.4 13.8,-11.4 0,0 6.7,14.1 24.8,14.1 0,0 7.6,0.2 9.7,-1.4 l 8.3,6.2 v 8.4 h 47.5 l 24.1,-6.3 36.8,-0.7 v 25.4 h -213"
         style="stroke-width:8;stroke-dasharray:none" /><path
         id="rect165"
         class="cls-4"
         d="m 356.52,140.15 h 122.6 c 1.5,0 2.7,1.2 2.7,2.7 v 0 c 0,1.5 -1.2,2.7 -2.7,2.7 h -122.6 c -1.5,0 -2.7,-1.2 -2.7,-2.7 v 0 c 0.1,-1.5 1.3,-2.7 2.7,-2.7 z"
         style="stroke:none" /><path
         id="path167"
         class="cls-1"
         d="m 410.62,128.95 h -22.3 c 0,0 -4.2,0.4 -4.2,4.2 0,3.8 1.9,4.6 3.3,4.6 1.4,0 4,-1.2 4,-2.5 h 10.1 l 1.8,1.6 h 7.2 v -7.9 z"
         style="fill:#3d3d3d;fill-opacity:1" /><circle
         id="circle169"
         class="cls-3"
         cx="369.50073"
         cy="127.81724"
         r="9"
         style="stroke:none;stroke-width:4;stroke-dasharray:none" /><circle
         id="circle171"
         class="cls-5"
         cx="369.50073"
         cy="127.81724"
         r="3.2"
         style="stroke:none" /><path
         id="path2"
         class="cls-15"
         d="m 308.02,153.85 3.5,-16.5 40.9,-4.8 c 0,0 3.4,1.3 3.6,-13 0.2,-14.3 13.8,-11.4 13.8,-11.4 0,0 6.7,14.1 24.8,14.1 0,0 7.6,0.2 9.7,-1.4 l 8.3,6.2 v 8.4 h 47.5 l 24.1,-6.3 36.8,-0.7 v 25.4 h -213"
         style="fill:none;stroke-width:8;stroke-dasharray:none" /></g><g
       id="Barel"><polygon
         id="polygon174"
         class="cls-15"
         points="948.92,143.75 949.92,128.75 955.72,128.75 955.72,143.75 " /><rect
         class="cls-15"
         x="997.51001"
         y="158.56"
         width="7.6199999"
         height="4.1999998"
         id="rect1" /><path
         id="rect176"
         class="cls-20"
         d="m 1055.22,107.75 h 3.1 c 5.1,0 9.2,4.1 9.2,9.2 v 16.6 c 0,5.1 -4.1,9.2 -9.2,9.2 h -3.1 c -5.1,0 -9.2,-4.1 -9.2,-9.2 v -16.6 c 0,-5.1 4.1,-9.2 9.2,-9.2 z"
         style="stroke-width:8;stroke-dasharray:none" /><rect
         class="cls-15"
         x="996.16998"
         y="165.45"
         width="10.04"
         height="1.4"
         id="rect2" /><path
         id="path178"
         class="cls-15"
         d="m 948.92,150.87569 h 132.7 c 0,0 3.2,1.57431 0,8.27431 h -133.6 z"
         sodipodi:nodetypes="ccccc"
         style="stroke-width:4;stroke-dasharray:none" /><polygon
         id="polygon180"
         class="cls-16"
         points="936.22,162.75 939.22,124.75 949.92,124.75 949.92,162.75 "
         style="stroke-width:8;stroke-dasharray:none" /><polygon
         id="polygon182"
         class="cls-15"
         points="1086.62,141.55 1087.92,133.65 1095.42,133.65 1095.42,141.55 " /><polygon
         id="polygon184"
         class="cls-15"
         points="1080.62,143.15 1081.62,130.95 1088.62,130.95 1088.62,143.15 " /><rect
         id="rect186"
         class="cls-15"
         x="955.71997"
         y="131.64999"
         width="125.7"
         height="11.1" /><rect
         id="rect188"
         class="cls-20"
         x="1049.22"
         y="129.64999"
         width="32.400002"
         height="18.4"
         style="stroke-width:8;stroke-dasharray:none" /><circle
         id="circle190"
         class="cls-17"
         cx="1056.72"
         cy="115.75"
         r="1.2" /><circle
         id="circle194"
         class="cls-20"
         cx="956.71997"
         cy="160.45"
         r="6.4000001" /></g><g
       id="Brown_bits"
       data-name="Brown bits"><path
         id="path197"
         class="cls-18"
         d="m 521.02,144.8 v 9.05 h -213 c 0,0 -58.7,34.8 -76.6,17 h -2.2 l -216.2,5.3 v 67 c 0,62 10.8,60.5 10.8,60.5 l 14.4,-1 165.6,-58.8 c 0,0 5.5,-5.1 48.8,4 0,0 33.1,-51.5 84.9,-48.4 51.8,3.1 64.1,2.4 64.1,2.4 l 5.1,-7.1 h 73.3 v 11.1 h 8.5 c 0,0 16.8,-8.2 25.2,-8.8 8.4,-0.6 216.4,-16.8 234.8,-18.3 0.8,-0.1 1.5,-0.5 2,-1.2 l 6.3,-10.8 c 0.3,-0.4 0.4,-0.9 0.4,-1.4 v -19.8"
         style="stroke-width:8;stroke-dasharray:none" /><path
         id="path197-2"
         data-name="path197"
         class="cls-7"
         d="m 757.22,145.55 v -22.5 h -236.2 v 21.75"
         style="fill:#854a21;fill-opacity:1;stroke:#522f14;stroke-width:8;stroke-dasharray:none;stroke-opacity:1" /><path
         id="path199"
         class="cls-6"
         d="m 766.92,123.05 h 174 c 0,0 2.4,3 2.4,27.4 0,0 1.9,13.5 -2.9,13.5 -4.8,0 -173.5,3.9 -173.5,3.9 z"
         style="fill:#70401b;fill-opacity:1;stroke:#522f14;stroke-width:8;stroke-dasharray:none;stroke-opacity:1" /><line
         class="cls-21"
         x1="754.32001"
         y1="145.55"
         x2="651.32001"
         y2="145.55"
         id="line2"
         style="stroke:#532e13;stroke-width:4;stroke-dasharray:none;stroke-opacity:1" /></g><g
       id="Gray_bits-2"
       data-name="Gray bits"><polyline
         class="cls-8"
         points="639.73 136.95 654.07 145.55 639.73 145.55"
         id="polyline2"
         style="stroke-width:4;stroke-dasharray:none" /><path
         id="path202"
         class="cls-15"
         d="m 16.12,176.05 c 0,-1.6 -15.6,-4.8 -14,29.8 1.6,33.4 5,94.1 15.2,95.9 l 5.6,1.7 c 0.2,0.1 0.4,-0.2 0.3,-0.4 -1.3,-1.8 -4.5,-8.3 -5.6,-27.5 -0.5,-9.3 -1.9,-24.5 -2.8,-41 -1.4,-27.6 -3.1,-54.9 1.3,-58.5 z"
         style="stroke-width:8;stroke-dasharray:none" /><rect
         id="rect204"
         class="cls-12"
         x="564.91998"
         y="121.85"
         width="9.6000004"
         height="18.6"
         style="stroke-width:4;stroke-dasharray:none" /><rect
         id="rect152"
         class="cls-11"
         x="751.12"
         y="144.85001"
         width="12.1"
         height="30.9"
         style="stroke-width:4;stroke-dasharray:none" /><path
         id="path206"
         class="cls-14"
         d="m 521.02,145.55 h -44.8 v -17.1 h 4.2 v 8.6 h 15.7 c 0,0 6.3,-2.3 6.5,-6.1 0.2,-3.8 2.5,-5.3 4.2,-5.3 h 11.8 c 0,0 2.4,-0.1 2.4,2.9 v 3"
         style="stroke-width:4;stroke-dasharray:none" /><path
         id="path206-2"
         data-name="path206"
         class="cls-12"
         d="m 521.02,131.55 c 0,5 4.9,5.4 4.9,5.4 h 113.44 c 0.92,0 1.66,0.74 1.66,1.66 v 6.94 c 0,0 -120,0 -120,0"
         style="stroke-width:4;stroke-dasharray:none" /><circle
         id="circle156"
         class="cls-13"
         cx="756.21997"
         cy="174.35001"
         r="6.4000001"
         style="stroke-width:4;stroke-dasharray:none" /><circle
         id="circle158"
         class="cls-10"
         cx="756.21997"
         cy="174.14999"
         r="1.6" /></g></g></svg>
