<svg width="111" height="110" viewBox="0 0 111 110" fill="none" xmlns="http://www.w3.org/2000/svg">
<g clip-path="url(#clip0_619_1200)">
<rect x="16.2109" y="84.8857" width="0.625557" height="3.12778" rx="0.312778" transform="rotate(-30 16.2109 84.8857)" fill="#4E4D55" stroke="#2E2E33" stroke-width="0.508903" stroke-miterlimit="3.99393"/>
<path d="M105.099 12.3304L107.544 16.5645L107.601 16.6644L106.735 17.1648C106.735 17.1648 106.024 16.672 105.366 16.5463C104.708 16.4206 104.14 16.4237 103.95 16.5332L101.973 17.6749C101.973 17.6749 101.756 17.8 101.827 18.0479C101.933 18.4199 101.771 18.5137 101.527 18.6545C101.283 18.7952 101.121 18.8891 100.852 18.6109C100.673 18.4255 100.456 18.5506 100.456 18.5506L99.3452 19.1918C98.9931 19.3951 98.7474 19.9704 98.8027 20.1913L99.8176 23.3254C99.91 23.7164 99.8053 24.0548 99.6042 24.207L100.12 25.1009L98.6034 25.9766L94.3184 18.5547L105.099 12.3304Z" fill="#65636E"/>
<path d="M106.069 14.0098L105.099 12.3304L94.3184 18.5547L95.288 20.2341L98.6034 25.9766L100.12 25.1009L99.6042 24.207C99.8053 24.0548 99.91 23.7164 99.8176 23.3254L98.8027 20.1913C98.7474 19.9704 98.9931 19.3951 99.3453 19.1918L100.456 18.5506C100.456 18.5506 100.673 18.4255 100.852 18.6109C101.121 18.8891 101.283 18.7952 101.527 18.6545C101.771 18.5137 101.933 18.4199 101.827 18.0479C101.756 17.8 101.973 17.6749 101.973 17.6749L103.95 16.5332C104.14 16.4237 104.708 16.4206 105.366 16.5463C106.024 16.672 106.735 17.1648 106.735 17.1648L107.601 16.6644L106.069 14.0098Z" stroke="#313036" stroke-width="1.01781" stroke-miterlimit="3.99393"/>
<rect x="105.227" y="12.5469" width="1.50075" height="2.50124" transform="rotate(-30 105.227 12.5469)" fill="#4F4E56" stroke="#313036" stroke-width="1.01781" stroke-miterlimit="3.99393"/>
<path d="M106.818 15.3086L107.788 16.9874L108.871 16.362C108.99 16.293 109.031 16.14 108.962 16.0204L108.243 14.7748C108.174 14.6552 108.021 14.6142 107.901 14.6833L106.818 15.3086Z" fill="#5C5A63" stroke="#313036" stroke-width="1.01781" stroke-miterlimit="3.99393"/>
<path d="M51.1367 43.8486L94.4766 18.8264L95.8215 21.1559L79.4336 30.6174L53.0134 47.0991L51.1367 43.8486Z" fill="#5C5A63" stroke="#313036" stroke-width="1.01781" stroke-miterlimit="3.99393"/>
<path d="M23.2374 65.5898C22.1137 66.2083 0.105916 82.7009 0.105916 82.7009C-0.0817435 82.8475 -0.0949999 83.1121 -0.0314655 83.2136L7.47491 95.2767C7.55311 95.4121 7.87509 95.4068 7.97925 95.2744L26.0318 74.5586C26.2557 74.3209 26.9986 73.856 27.4403 73.7454L32.4468 72.4079C31.7947 69.7145 31.8827 67.6503 32.7659 65.6143C33.5184 63.8797 35.1986 62.2234 37.532 60.0094L32.7413 54.9019C31.1271 56.6713 30.3487 57.7641 29.3917 59.7973C28.3716 61.9648 27.6007 63.5763 26.3547 64.2957C25.6504 64.7023 24.5803 64.8506 23.2374 65.5898Z" fill="#714225" stroke="#4E2E18" stroke-width="1.01781" stroke-miterlimit="3.99393"/>
<path d="M8.13122 95.099L0.122197 82.6878C-0.0654622 82.8344 -0.0952578 83.1114 -0.0317235 83.2129L7.47465 95.276C7.55285 95.4114 7.87483 95.4061 7.97899 95.2737L8.13122 95.099Z" fill="#504E56" stroke="#2F2E33" stroke-width="1.01781" stroke-miterlimit="3.99393"/>
<path d="M37.5314 60.0075L32.7406 54.9C33.9646 53.5794 35.6616 52.2024 36.0137 51.9991L50.668 43.5384C50.7877 43.4693 50.9407 43.5103 51.0098 43.63L54.6068 49.8601C54.6759 49.9798 54.6349 50.1328 54.5152 50.2019L52.8899 51.1403L52.7492 50.8965C52.611 50.6571 52.3049 50.5751 52.0656 50.7133L45.5104 54.4979C45.271 54.6361 45.189 54.9422 45.3272 55.1815L45.468 55.4253L37.5314 60.0075Z" fill="#6A6873"/>
<path fill-rule="evenodd" clip-rule="evenodd" d="M36.6469 60.8556C36.9308 60.582 37.2267 60.3002 37.5339 60.0087L44.0293 56.2586C43.1876 57.1922 42.8871 58.2709 43.1458 58.719L43.2709 58.9357C43.6775 59.6399 43.5466 60.7268 43.0632 61.0781C42.4858 61.4978 41.6247 62.0306 40.9775 62.2823C39.8272 62.7297 38.8476 62.284 38.5817 61.8236L38.3471 61.4172C38.1438 61.0651 37.2174 60.7306 36.6469 60.8556ZM42.7478 59.0932C43.1388 59.7704 42.8797 60.8229 41.7263 61.4527C41.6826 61.4765 41.6392 61.5004 41.596 61.5242C41.1436 61.7732 40.7186 62.007 40.3167 62.0137C39.6727 62.0243 39.2171 61.8901 38.9639 61.4223C38.6959 60.927 38.7482 60.4543 38.977 60.0062C39.2059 59.558 39.6114 59.1343 40.3021 58.7355C40.9105 58.3843 41.3832 58.3046 41.7514 58.3683C42.2328 58.4515 42.529 58.7143 42.7478 59.0932Z" fill="#504F57"/>
<path fill-rule="evenodd" clip-rule="evenodd" d="M36.6469 60.8556C36.9308 60.582 37.2267 60.3002 37.5339 60.0087L44.0293 56.2586C43.1876 57.1922 42.8871 58.2709 43.1458 58.719L43.2709 58.9357C43.6775 59.6399 43.5466 60.7268 43.0632 61.0781C42.4858 61.4978 41.6247 62.0306 40.9775 62.2823C39.8272 62.7297 38.8476 62.284 38.5817 61.8236L38.3471 61.4172C38.1438 61.0651 37.2174 60.7306 36.6469 60.8556Z" stroke="#313036" stroke-width="0.508903" stroke-miterlimit="3.99393"/>
<path fill-rule="evenodd" clip-rule="evenodd" d="M42.7459 59.0936C43.1369 59.7708 42.8778 60.8233 41.7245 61.4531C41.6808 61.4769 41.6373 61.5009 41.5941 61.5246C41.1417 61.7736 40.7167 62.0075 40.3149 62.0141C39.6709 62.0248 39.2153 61.8905 38.9621 61.4227C38.694 60.9274 38.7463 60.4547 38.9752 60.0066C39.204 59.5585 39.6095 59.1347 40.3002 58.736C40.9086 58.3847 41.3813 58.3051 41.7495 58.3687C42.231 58.4519 42.5271 58.7147 42.7459 59.0936Z" stroke="#313036" stroke-width="0.508903" stroke-miterlimit="3.99393"/>
<path d="M38.8303 60.3806C38.8636 60.254 38.9131 60.1292 38.9758 60.0062C39.1759 59.6145 39.5109 59.2415 40.0536 58.8874C39.48 59.6137 39.4579 60.1837 39.6302 60.6393C39.7648 60.9948 39.8773 61.2548 40.3284 61.5359C40.4975 61.6413 40.3328 61.9188 40.1941 61.8661C39.7153 61.6843 39.4315 61.5416 39.2065 61.281C39.0123 61.0561 38.9152 60.7733 38.8303 60.3806Z" fill="#3F3E44" stroke="#313036" stroke-width="0.508903" stroke-miterlimit="3.99393"/>
<rect x="53.1367" y="47.3154" width="34.1554" height="2.68989" transform="rotate(-30 53.1367 47.3154)" fill="#4C4B53" stroke="#313036" stroke-width="1.01781" stroke-miterlimit="3.99393"/>
<path d="M96.5563 17.047L97.1193 18.0222C97.3069 18.3472 97.3435 18.7234 96.6392 19.13L67.4932 35.9575L66.6141 37.1873L63.9054 38.7512L62.6699 36.6113L96.5563 17.047Z" fill="#65636E" stroke="#313036" stroke-width="0.508903" stroke-miterlimit="3.99393"/>
<rect x="64.7715" y="38.9385" width="18.6416" height="5.31723" transform="rotate(-30 64.7715 38.9385)" fill="#714225"/>
<path d="M67.9003 43.3472L83.1752 34.5555L80.4251 29.7924L65.1739 38.625L67.9003 43.3472Z" stroke="#4D2D19" stroke-width="0.508903" stroke-miterlimit="3.99393"/>
<path d="M81.5852 29.6565C81.3679 29.5802 81.1352 29.5667 80.9117 29.6168L83.5703 34.2217C83.7255 34.0532 83.8302 33.8449 83.8727 33.6186C83.9367 33.3083 83.8725 32.9936 83.7032 32.7003L82.2957 30.2624C82.1264 29.9692 81.8858 29.7562 81.5852 29.6565Z" fill="#65636E" stroke="#313036" stroke-width="0.508903" stroke-miterlimit="3.99393"/>
<path d="M64.7673 38.9381L67.4259 43.543C66.9802 43.677 66.6038 43.6204 66.4005 43.2682L64.4925 39.9636C64.2892 39.6114 64.4284 39.2571 64.7673 38.9381Z" fill="#65636E" stroke="#313036" stroke-width="0.508903" stroke-miterlimit="3.99393"/>
<path d="M83.2191 27.8518L81.9189 28.6025L82.607 29.7943L82.4987 29.8569L84.2502 32.8907L87.8258 30.8263L87.2628 29.8512L88.1296 29.3507L87.3163 27.9422C87.3163 27.9422 87.1287 27.6171 87.3118 26.9335C87.495 26.2499 88.1138 25.8204 88.1138 25.8204L88.02 25.6579L85.6363 27.0341L86.0742 27.7926L83.9072 29.0437L83.2191 27.8518Z" fill="#56555E" stroke="#2F2E33" stroke-width="0.508903" stroke-miterlimit="3.99393"/>
<path d="M32.7406 54.9001L37.5314 60.0075C37.2242 60.299 36.9283 60.5808 36.6444 60.8544C37.2148 60.7295 38.1413 61.0639 38.3446 61.4161L38.5792 61.8224C38.845 62.2829 39.8247 62.7285 40.9749 62.2811C41.6222 62.0294 42.4832 61.4966 43.0606 61.0769C43.544 60.7256 43.675 59.6388 43.2684 58.9345L43.1433 58.7178C42.8846 58.2697 43.1851 57.191 44.0268 56.2574L45.468 55.4253L45.3272 55.1815C45.189 54.9422 45.271 54.6361 45.5104 54.4979L52.0656 50.7133C52.3049 50.5751 52.611 50.6571 52.7492 50.8965L52.8899 51.1403L54.5152 50.2019C54.6349 50.1328 54.6759 49.9798 54.6068 49.8601L51.0098 43.63C50.9407 43.5103 50.7877 43.4693 50.668 43.5384L36.0137 51.9991C35.6616 52.2024 33.9646 53.5794 32.7406 54.9001Z" stroke="#313036" stroke-width="1.01781" stroke-miterlimit="3.99393"/>
<rect x="97.6523" y="23.4551" width="0.625557" height="4.41018" rx="0.312778" transform="rotate(-30 97.6523 23.4551)" fill="#4E4D55" stroke="#313036" stroke-width="0.508903" stroke-miterlimit="3.99393"/>
</g>
<defs>
<clipPath id="clip0_619_1200">
<rect width="110" height="110" fill="white" transform="translate(0.0859375)"/>
</clipPath>
</defs>
</svg>
