<?xml version="1.0" encoding="UTF-8" standalone="no"?>
<svg
   width="110"
   height="110"
   viewBox="0 0 110 110"
   fill="none"
   version="1.1"
   id="svg46"
   sodipodi:docname="m37.svg"
   inkscape:version="1.1.2 (0a00cf5339, 2022-02-04)"
   xmlns:inkscape="http://www.inkscape.org/namespaces/inkscape"
   xmlns:sodipodi="http://sodipodi.sourceforge.net/DTD/sodipodi-0.dtd"
   xmlns="http://www.w3.org/2000/svg"
   xmlns:svg="http://www.w3.org/2000/svg">
  <defs
     id="defs50" />
  <sodipodi:namedview
     id="namedview48"
     pagecolor="#505050"
     bordercolor="#ffffff"
     borderopacity="1"
     inkscape:pageshadow="0"
     inkscape:pageopacity="0"
     inkscape:pagecheckerboard="1"
     showgrid="false"
     inkscape:zoom="5.2453202"
     inkscape:cx="86.74399"
     inkscape:cy="55.287378"
     inkscape:window-width="2560"
     inkscape:window-height="1372"
     inkscape:window-x="0"
     inkscape:window-y="0"
     inkscape:window-maximized="1"
     inkscape:current-layer="svg46" />
  <g
     id="g889"
     transform="matrix(0.1100937,-0.06356263,0.06356263,0.1100937,-4.710254,76.691217)">
    <path
       d="m 998.55,5.89795 v 38.42875 0.9065 h -7.867 c 0,0 -2.899,-6.1461 -6.884,-9.5879 -3.985,-3.4419 -7.867,-5.6545 -9.588,-5.6545 h -17.947 c 0,0 -1.967,0 -2.458,1.9668 -0.738,2.9501 -2.213,2.9501 -4.425,2.9501 -2.213,0 -3.688,0 -4.426,-2.9501 -0.491,-1.9668 -2.458,-1.9668 -2.458,-1.9668 h -10.08 c -3.196,0 -7.129,2.9502 -7.621,4.6711 l -5.409,25.322 c -0.907,3.0249 -2.95,4.9169 -4.917,5.1628 v 8.1129 H 900.703 V 5.89801 Z"
       fill="#65636e"
       id="path2" />
    <path
       d="M 998.55,21.1404 V 5.89795 H 900.703 V 21.1404 73.2596 h 13.767 v -8.1129 c 1.967,-0.2459 4.01,-2.1379 4.917,-5.1628 l 5.409,-25.322 c 0.492,-1.7209 4.425,-4.6711 7.621,-4.6711 h 10.08 c 0,0 1.967,0 2.458,1.9668 0.738,2.9501 2.213,2.9501 4.426,2.9501 2.212,0 3.687,0 4.425,-2.9501 0.491,-1.9668 2.458,-1.9668 2.458,-1.9668 h 17.947 c 1.721,0 5.603,2.2126 9.588,5.6545 3.985,3.4418 6.884,9.5879 6.884,9.5879 h 7.867 z"
       stroke="#313036"
       stroke-width="8"
       id="path4" />
    <rect
       x="998.54901"
       y="7.8647499"
       width="11.8006"
       height="19.667601"
       fill="#4f4e56"
       stroke="#313036"
       stroke-width="8"
       id="rect6" />
    <path
       d="m 998.549,32.9409 v 15.2424 h 9.831 c 1.09,0 1.97,-0.8805 1.97,-1.9667 V 34.9077 c 0,-1.0862 -0.88,-1.9668 -1.97,-1.9668 z"
       fill="#5c5a63"
       stroke="#313036"
       stroke-width="8"
       id="path8" />
    <path
       d="M 507.35,8.3562 H 900.702 V 29.4989 H 751.966 L 507.35,37.8576 Z"
       fill="#5c5a63"
       stroke="#313036"
       stroke-width="8"
       id="path10" />
    <path
       d="M 232.003,46.7081 C 221.923,46.5024 7.3004,72.276 7.3004,72.276 5.44664,72.5368 4.31656,74.2858 4.35026,75.2262 L 8.03791,186.84 c 0,1.229 2.21259,2.458 3.44189,1.967 L 215.777,118.741 c 2.459,-0.738 9.342,-0.984 12.784,0 l 39.336,10.571 c 6.146,-20.897 14.857,-34.6014 28.871,-44.9895 11.939,-8.8505 29.886,-13.5215 54.47,-19.4218 L 338.7,11.3064 C 320.759,17.0069 311.165,21.3861 296.66,31.4657 281.198,42.2105 269.617,50.15 258.309,50.15 c -6.392,0 -14.26,-3.196 -26.306,-3.4419 z"
       fill="#714225"
       stroke="#331e10"
       stroke-width="8"
       id="path12" />
    <path
       d="M 13.2026,188.216 7.46178,72.2568 C 5.60801,72.5176 4.31665,74.2859 4.35034,75.2263 L 8.03799,186.84 c 0,1.229 2.21261,2.459 3.44191,1.967 z"
       fill="#504e56"
       stroke="#2f2e33"
       stroke-width="8"
       id="path14" />
    <rect
       x="108.342"
       y="150.455"
       width="4.9169102"
       height="24.584499"
       rx="2.4584501"
       fill="#4e4d55"
       stroke="#2e2e33"
       stroke-width="4"
       id="rect16" />
    <path
       d="M 351.237,64.9008 338.699,11.3065 C 352.221,7.12715 369.184,4.42285 372.38,4.42285 h 133.002 c 1.087,0 1.967,0.88057 1.967,1.96676 V 62.934 c 0,1.0862 -0.88,1.9668 -1.967,1.9668 h -14.75 v -2.2126 c 0,-2.1725 -1.761,-3.9335 -3.934,-3.9335 h -59.494 c -2.173,0 -3.934,1.761 -3.934,3.9335 v 2.2126 z"
       fill="#6a6873"
       id="path18" />
    <path
       fill-rule="evenodd"
       clip-rule="evenodd"
       d="m 341.871,67.1797 c 3.008,-0.7466 6.13,-1.502 9.366,-2.2788 h 58.953 c -9.399,3.0471 -15.684,9.2089 -15.684,13.2756 v 1.9668 c 0,6.392 -5.163,13.2756 -9.834,13.7673 -5.58,0.5874 -13.535,0.8301 -18.93,0 -9.588,-1.475 -14.505,-8.3587 -14.505,-12.5381 v -3.6877 c 0,-3.196 -4.992,-9.1137 -9.366,-10.5051 z m 48.455,11.9802 c 0,6.1461 -5.9,12.2923 -16.226,12.0464 -0.391,-0.0093 -0.781,-0.0173 -1.168,-0.0252 -4.059,-0.0833 -7.87,-0.1616 -10.632,-1.6957 -4.425,-2.4584 -6.999,-5.1627 -6.884,-9.3421 0.122,-4.4253 2.336,-7.4368 5.654,-9.588 3.319,-2.1511 7.745,-3.4418 14.014,-3.4418 5.521,0 9.052,1.3158 11.309,3.196 2.95,2.4584 3.933,5.411 3.933,8.8504 z"
       fill="#504f57"
       id="path20" />
    <path
       fill-rule="evenodd"
       clip-rule="evenodd"
       d="m 341.871,67.1797 c 3.008,-0.7466 6.13,-1.502 9.366,-2.2788 h 58.953 c -9.399,3.0471 -15.684,9.2089 -15.684,13.2756 v 1.9668 c 0,6.392 -5.163,13.2756 -9.834,13.7673 -5.58,0.5874 -13.535,0.8301 -18.93,0 -9.588,-1.475 -14.505,-8.3587 -14.505,-12.5381 v -3.6877 c 0,-3.196 -4.992,-9.1137 -9.366,-10.5051 z"
       stroke="#313036"
       stroke-width="4"
       id="path22" />
    <path
       fill-rule="evenodd"
       clip-rule="evenodd"
       d="m 390.328,79.16 c 0,6.1461 -5.9,12.2922 -16.226,12.0464 -0.391,-0.0093 -0.781,-0.0173 -1.168,-0.0253 -4.059,-0.0833 -7.87,-0.1615 -10.632,-1.6956 -4.426,-2.4585 -6.999,-5.1628 -6.884,-9.3422 0.121,-4.4252 2.335,-7.4368 5.654,-9.5879 3.319,-2.1512 7.744,-3.4419 14.013,-3.4419 5.522,0 9.053,1.3158 11.309,3.196 2.95,2.4585 3.934,5.4111 3.934,8.8505 z"
       stroke="#313036"
       stroke-width="4"
       id="path24" />
    <path
       d="m 358.61,72.5324 c 0.724,-0.7315 1.551,-1.3867 2.462,-1.9772 2.902,-1.881 6.651,-3.1041 11.738,-3.3816 -6.761,2.6907 -9.153,6.4853 -9.77,10.2653 -0.482,2.9501 -0.738,5.1627 1.229,8.8504 0.737,1.3826 -1.475,2.6248 -2.213,1.7209 -2.546,-3.1206 -3.918,-5.2082 -4.425,-7.867 -0.438,-2.2951 0.013,-4.6026 0.979,-7.6108 z"
       fill="#3f3e44"
       stroke="#313036"
       stroke-width="4"
       id="path26" />
    <rect
       x="507.35001"
       y="39.824501"
       width="268.46301"
       height="21.1427"
       fill="#4c4b53"
       stroke="#313036"
       stroke-width="8"
       id="rect28" />
    <path
       d="m 921.845,4.42285 v 8.85045 c 0,2.9501 -1.229,5.6544 -7.621,5.6544 H 649.695 l -10.817,4.9169 H 614.293 V 4.42285 Z"
       fill="#65636e"
       stroke="#313036"
       stroke-width="4"
       id="path30" />
    <rect
       x="619.45502"
       y="28.5156"
       width="146.524"
       height="41.793701"
       fill="#714225"
       id="rect32" />
    <path
       d="m 765.979,28.5156 c 3.933,1.2293 6.883,4.9169 6.883,9.8338 v 22.1261 c 0,4.4252 -2.212,8.1129 -6.883,9.8338 z"
       fill="#65636e"
       stroke="#313036"
       stroke-width="8"
       id="path34" />
    <path
       d="m 613.555,36.8744 c 0,-5.1628 1.037,-6.8614 5.9,-8.3588 v 41.7937 c -3.561,-0.8393 -5.9,-2.7043 -5.9,-5.9003 z"
       fill="#65636e"
       stroke="#313036"
       stroke-width="8"
       id="path36" />
    <path
       d="m 788.596,25.5654 h -11.8 v 10.8173 h -0.984 v 27.5347 h 32.452 v -8.8506 h 7.867 V 42.2829 c 0,0 0,-2.9502 3.934,-6.8837 3.933,-3.9335 9.834,-4.4252 9.834,-4.4252 v -1.4751 h -21.635 v 6.8838 h -19.668 z"
       fill="#56555e"
       stroke="#2f2e33"
       stroke-width="4"
       id="path38" />
    <path
       d="m 338.699,11.3066 12.538,53.5943 c -3.236,0.7768 -6.358,1.5322 -9.366,2.2787 4.374,1.3915 9.366,7.3092 9.366,10.5052 v 3.6877 c 0,4.1794 4.917,11.063 14.505,12.5381 5.395,0.83 13.35,0.5874 18.93,0 4.671,-0.4917 9.834,-7.3753 9.834,-13.7673 v -1.9668 c 0,-4.0668 6.285,-10.2285 15.684,-13.2756 h 13.08 v -2.2126 c 0,-2.1725 1.761,-3.9336 3.934,-3.9336 h 59.494 c 2.172,0 3.934,1.7611 3.934,3.9336 v 2.2126 h 14.75 c 1.087,0 1.967,-0.8806 1.967,-1.9668 V 6.38968 c 0,-1.0862 -0.88,-1.96677 -1.967,-1.96677 H 372.38 c -3.196,0 -20.159,2.7043 -33.681,6.88369 z"
       stroke="#313036"
       stroke-width="8"
       id="path40" />
    <rect
       x="623.34998"
       y="27.422899"
       width="139"
       height="44"
       stroke="#331e11"
       stroke-width="8"
       id="rect42" />
    <rect
       x="904.14502"
       y="52.362499"
       width="4.9169102"
       height="34.6642"
       rx="2.4584501"
       fill="#4e4d55"
       stroke="#313036"
       stroke-width="4"
       id="rect44" />
  </g>
</svg>
