<svg width="110" height="110" viewBox="0 0 110 110" fill="none" xmlns="http://www.w3.org/2000/svg">
<g clip-path="url(#clip0_619_1190)">
<path d="M39.6844 53.5334C39.6639 53.7542 39.6479 54.019 39.703 54.3005C39.7452 54.5348 39.7542 54.6953 39.5685 54.8025L34.901 57.4973C34.7252 57.5988 34.665 57.8235 34.7665 57.9993C34.868 58.175 35.0927 58.2353 35.2685 58.1338L40.2542 55.2553C40.2695 55.2818 40.2772 55.295 40.2877 55.2978C40.2981 55.3006 40.3114 55.293 40.3379 55.2777L47.0209 51.4192C47.3657 51.2202 47.39 50.7111 47.2675 50.4989L46.6704 49.4646C46.456 49.0934 45.9959 48.9701 45.3064 49.3682L40.9836 51.8639C40.5062 52.1395 39.7448 52.8819 39.6844 53.5334Z" fill="#333638"/>
<path d="M46.7562 51.5732L47.0215 51.4201C47.3138 51.2513 47.3758 50.8595 47.3133 50.6149L46.4805 51.0957L46.7562 51.5732Z" fill="#26292C"/>
<rect x="97.832" y="18.4062" width="0.980258" height="0.245064" transform="rotate(-30 97.832 18.4062)" fill="#A23E2B"/>
<path d="M98.1442 18.0861L97.932 18.2086L98.1464 18.58L98.0933 18.6107L98.1186 18.6544L98.7572 18.2902L98.73 18.2431L98.677 18.2737L98.4625 17.9023L98.2503 18.0248L98.4647 18.3962L98.3586 18.4575L98.1442 18.0861Z" fill="#323539"/>
<path d="M97.8471 18.8107L99.0277 18.1336L98.733 17.7457L97.6605 18.3649L97.8471 18.8107Z" stroke="#2F3337" stroke-width="0.417042"/>
<path d="M34.45 62.8496C33.6129 63.3133 33.5037 63.7868 33.4757 63.9083C33.441 64.0376 33.4283 64.1473 33.4312 64.2435C33.4941 64.1801 33.5643 64.1391 33.6248 64.1052C33.7402 64.0403 33.9507 64.0298 34.0014 64.2061C34.1893 64.7805 34.4386 64.959 34.9406 65.2202C35.005 65.2537 35.084 65.1495 35.0008 65.0794C34.2248 64.4262 34.1209 63.8952 34.45 62.8496Z" fill="#36393A" stroke="#313435" stroke-width="0.417042"/>
<path d="M50.0206 52.9408C47.8858 54.1387 46.0183 55.235 44.2623 56.2657C42.5985 57.2424 41.0349 58.1602 39.4391 59.05C37.4295 60.2103 35.5349 61.1609 33.3859 62.2392C32.5614 62.6529 31.6995 63.0854 30.7793 63.5557L31.421 64.2097C34.3246 62.7776 35.9297 61.9377 38.7805 60.4204C38.9396 60.3285 39.0518 60.4036 39.1569 60.5212C39.9939 59.9605 40.4785 59.6251 41.216 58.943C41.3058 58.5232 41.3627 58.2572 41.6983 58.0635L45.9529 55.5721L46.8688 54.8312C47.0818 54.6494 47.2737 54.4913 47.5206 54.4902L49.5192 54.6447L50.633 54.0016L50.0206 52.9408Z" fill="#424548"/>
<path fill-rule="evenodd" clip-rule="evenodd" d="M38.7832 60.4205C36.0496 61.8755 34.4614 62.7075 31.7754 64.0361L33.5369 65.3589C33.9076 65.6246 34.4169 65.6778 34.6399 65.6768C35.3805 65.6735 36.016 65.5188 36.9545 65.1538C37.3299 65.0077 37.6747 64.8087 37.9694 64.4617L39.2406 61.6415C39.7007 60.6904 40.0213 60.1975 40.7073 59.3955C40.2191 59.8055 39.789 60.0997 39.1597 60.5214C39.0545 60.4038 38.9423 60.3286 38.7832 60.4205ZM33.4773 63.9082C33.5056 63.7853 33.6172 63.3016 34.4828 62.8326C35.4028 62.3341 36.3004 62.1223 36.3332 62.1178C37.0875 62.0155 37.3709 62.2614 37.6158 62.6857C37.9388 63.2452 37.8975 63.8832 37.4296 64.3843C37.0896 64.7485 36.479 65.0039 35.7925 65.2235C35.2674 65.3914 34.8744 65.4707 34.4714 65.3851C34.089 65.3039 33.7927 65.0669 33.6561 64.8304C33.5113 64.5818 33.3531 64.3713 33.4773 63.9082Z" fill="#3C3F41"/>
<path d="M32.8901 64.6711L32.1164 64.1274L32.1907 63.7661L32.8581 63.4516L33.201 63.678L33.1554 64.518L32.8901 64.6711Z" fill="#353839"/>
<path d="M27.8052 60.3939L28.588 61.321L31.423 64.2103C31.423 64.2103 30.5658 64.6714 29.6615 65.2627C28.7374 65.867 28.1551 66.4507 27.8065 67.5006C27.4724 68.5067 27.5194 69.4315 27.7278 70.3041C28.0405 71.6129 28.6498 72.636 28.6498 72.636C28.711 72.742 28.6285 72.9665 28.4694 73.0584L24.2311 74.9042C24.0769 74.9693 24.0497 74.9448 23.9817 74.8835C23.9494 74.8543 23.908 74.8169 23.8393 74.7768C23.5986 74.6365 23.4086 74.6242 23.2424 74.6617C23.0711 74.7005 22.9025 74.7807 22.7161 75.0363L15.9571 83.8715L15.9744 83.6316L15.085 84.3572C14.9412 84.4756 14.877 84.548 14.874 84.7266L14.8833 85.1102L15.0135 85.1051L11.3305 89.9195L9.52848 92.1267C9.33573 92.3441 8.84607 92.4146 8.59398 92.1005C6.36217 89.2545 4.91164 87.4373 2.91435 85.0191C2.78825 84.8659 2.65924 84.7126 2.52808 84.5568C2.17362 84.1356 1.80345 83.6958 1.43244 83.1873C0.901503 82.4597 0.963606 81.7015 1.75721 81.055C4.09924 79.1471 5.51125 78.1765 7.99621 76.4887L19.9939 67.6265C20.3444 67.3783 20.5417 67.3084 20.8967 67.3528L21.4629 67.4149C21.9567 67.4127 22.3346 67.271 23.0276 66.5115C25.1774 64.1554 26.2162 62.8151 27.8052 60.3939Z" fill="#484A4B"/>
<path d="M27.8049 60.3933L28.5877 61.3204L30.7751 58.6784L30.1167 57.5381L27.8049 60.3933Z" fill="#4C5053"/>
<path d="M24.1379 74.0727L27.4245 72.5995C27.4245 72.5995 25.9936 70.5919 26.7926 68.0139C27.5915 65.436 30.1753 64.2575 30.2773 64.1279L28.2475 62.0821L27.6709 61.3896L23.1155 67.0959C22.7341 67.599 22.1663 68.8816 22.0676 69.7518L21.7076 73.3542C22.7176 73.2662 23.2743 73.4039 24.1379 74.0727Z" fill="#404344"/>
<path d="M6.78228 77.3144L6.87456 77.4742L7.4479 78.051C7.51547 78.1107 7.55449 78.109 7.62644 78.0541L17.8749 70.5105C18.0006 70.4068 18.0473 70.3501 18.0789 70.2513L18.4409 68.7721L7.9952 76.4879C7.56179 76.7823 7.16103 77.0549 6.78228 77.3144Z" fill="#464849" stroke="#323334" stroke-width="0.417042"/>
<path d="M11.3387 89.9052L11.3283 89.9188L9.5263 92.1261C9.33355 92.3434 8.84388 92.414 8.5918 92.0998C6.35999 89.2538 4.90946 87.4367 2.91217 85.0185C2.78607 84.8652 2.65706 84.7119 2.5259 84.5561C2.17144 84.135 1.80127 83.6952 1.43026 83.1867C0.89932 82.459 0.961424 81.7009 1.75503 81.0544C2.26802 80.6365 2.73638 80.2635 3.18118 79.9182C3.11661 80.1727 3.06101 80.3541 3.20763 80.5693C5.76414 84.3218 7.37507 86.2968 10.6201 89.5497C10.8215 89.7516 11.0478 89.8409 11.3387 89.9052Z" fill="#464749" stroke="#323334" stroke-width="0.417042"/>
<path fill-rule="evenodd" clip-rule="evenodd" d="M15.9728 83.6302L15.8905 84.7743C15.8721 84.9264 15.7018 85.0601 15.5385 85.0836L14.8813 85.1094L14.872 84.7256C14.875 84.547 14.9392 84.4746 15.0831 84.3561L15.9728 83.6302ZM15.6384 84.9198C15.7483 84.8564 15.786 84.7158 15.7225 84.606C15.6591 84.4961 15.5186 84.4584 15.4087 84.5219C15.2988 84.5853 15.2612 84.7258 15.3246 84.8357C15.388 84.9456 15.5286 84.9832 15.6384 84.9198Z" fill="#424446" stroke="#323334" stroke-width="0.417042"/>
<path d="M9.2636 92.2836C9.04116 92.3494 8.76214 92.3128 8.59172 92.1005C6.35991 89.2545 4.90938 87.4373 2.91209 85.0191C2.78599 84.8658 2.65698 84.7126 2.52582 84.5567C2.48358 84.5065 2.44111 84.4561 2.39844 84.4053C2.95197 84.2055 3.36948 84.2771 3.7047 84.7383L9.2636 92.2836Z" fill="#424445" stroke="#323334" stroke-width="0.417042"/>
<path d="M40.0456 55.0172C40.0297 55.0296 40.0127 55.0412 39.9947 55.0516C39.7896 55.17 39.5273 55.0997 39.4088 54.8946L38.9844 55.1396L39.352 55.7763L40.2009 55.2862L40.0456 55.0172Z" fill="#34393C"/>
<path d="M39.7042 54.3012C39.7464 54.5355 39.7553 54.6961 39.5696 54.8034L39.4104 54.8953C39.5289 55.1004 39.7911 55.1707 39.9963 55.0522C40.2014 54.9338 40.2717 54.6715 40.1532 54.4664C40.0586 54.3025 39.8721 54.2247 39.6964 54.2605C39.6989 54.274 39.7015 54.2875 39.7042 54.3012Z" fill="#323639"/>
<path d="M45.0421 49.5217L40.9846 51.8643C40.5072 52.1399 39.7458 52.8823 39.6854 53.5338C39.6659 53.7439 39.6505 53.9939 39.6965 54.2601C39.8721 54.2245 40.0584 54.3023 40.1529 54.4661C40.2609 54.6531 40.212 54.8877 40.0469 55.0173L40.2022 55.2863L40.2552 55.2557C40.2705 55.2822 40.2782 55.2954 40.2886 55.2982C40.2991 55.301 40.3124 55.2934 40.3389 55.2781L46.2794 51.8483L46.526 50.928L45.8523 49.7612L45.0421 49.5217Z" fill="#3B4144"/>
<path d="M46.4806 51.096L46.5254 50.9286L45.9128 49.8674L46.6556 49.4386L47.3295 50.6059L46.4806 51.096Z" fill="#323539" stroke="#2F3337" stroke-width="0.417042"/>
<path d="M46.0066 50.027L46.6881 49.492L46.8413 49.7573L46.1597 50.2923L46.0066 50.027Z" fill="#33373B"/>
<path d="M41.9046 57.943L45.9534 55.5722L46.8693 54.8312C47.0823 54.6494 47.2742 54.4914 47.5211 54.4903L47.9652 54.5246L48.3293 55.1552L41.9046 57.943Z" fill="#36393B" stroke="#313335" stroke-width="0.834085"/>
<rect x="47.1738" y="48.0078" width="0.306227" height="3.00103" rx="0.104261" transform="rotate(-30 47.1738 48.0078)" fill="#44474A"/>
<path d="M59.2615 41.8774L100.208 18.2366L101.311 20.1461L49.9151 49.8195L48.6289 47.5918L59.2615 41.8774Z" fill="#393C3F"/>
<path d="M47.5469 48.04C47.7143 48.0849 47.9949 47.9583 48.6316 47.5907L49.3668 48.864L48.3587 49.4461L47.5469 48.04Z" fill="#3E4143" stroke="#313335" stroke-width="0.417042"/>
<rect x="78.4199" y="34.6357" width="30.1328" height="2.38857" transform="rotate(-30 78.4199 34.6357)" fill="#373B3F" stroke="#303336" stroke-width="0.834085"/>
<path d="M76.3169 35.9556C76.7397 37.2265 76.8625 38.1255 76.6524 38.8028C76.6368 38.8532 76.6203 38.8999 76.6028 38.9436L79.7736 36.8594C79.671 35.5019 79.3646 34.9558 78.3649 34.4195L76.1121 35.5118C76.225 35.7557 76.3169 35.9556 76.3169 35.9556Z" fill="#41464B" stroke="#2F3337" stroke-width="0.834085"/>
<path d="M104.393 19.3574L105.832 21.8503L109.226 19.8905C109.373 19.8059 109.423 19.6186 109.338 19.4721L108.205 17.5097C108.121 17.3632 107.934 17.313 107.787 17.3976L104.393 19.3574Z" fill="#32363A" stroke="#2F3337" stroke-width="0.834085"/>
<rect x="100.209" y="18.2363" width="2.87951" height="2.20558" transform="rotate(-30 100.209 18.2363)" fill="#373A3C" stroke="#313335" stroke-width="0.417042"/>
<rect x="100.793" y="17.8994" width="0.735193" height="2.20558" transform="rotate(-30 100.793 17.8994)" fill="#343639"/>
<rect x="101.643" y="17.4092" width="0.735193" height="2.20558" transform="rotate(-30 101.643 17.4092)" fill="#343639"/>
<path d="M100.21 18.2363L99.8728 17.6529L49.9151 46.1424C49.4421 46.5707 49.1318 46.8068 48.4576 47.2314L47.4916 47.8245L47.5988 48.0101L48.4944 47.6692C48.5377 47.6446 48.5829 47.6187 48.6301 47.5915L54.0841 44.6603C54.2726 44.2116 54.448 43.9813 54.8683 43.6363L58.0813 41.8519C58.5838 41.6909 58.8418 41.7399 59.2255 41.8128C59.2616 41.8196 59.2989 41.8267 59.3376 41.8339L60.4639 41.1835C60.6493 40.7318 60.7925 40.3885 61.2107 40.0452L64.3177 38.3221C64.8202 38.1611 65.0781 38.2101 65.4618 38.283L65.4619 38.283C65.4684 38.2842 65.4749 38.2855 65.4814 38.2867L66.8445 37.4997C67.0129 37.093 67.164 36.7736 67.5531 36.4541L70.6335 34.7464C71.1434 34.583 71.3982 34.5808 71.7906 34.6441L73.1688 33.8484C73.3107 33.4924 73.4306 33.2189 73.7894 32.9243L77.082 31.0941C77.5486 30.9445 77.8016 30.9301 78.1419 30.9772L79.4806 30.2043C79.6225 29.8483 79.7423 29.5748 80.1012 29.2802L83.3938 27.45C83.8604 27.3004 84.1134 27.286 84.4537 27.3331L85.7924 26.5602C85.9342 26.2042 86.0541 25.9307 86.413 25.6361L89.7055 23.8059C90.1721 23.6563 90.4251 23.6419 90.7654 23.689L91.9598 22.9994C92.0874 22.6873 92.2159 22.4362 92.5432 22.1675L96.1805 20.1382C96.5998 20.0039 96.8466 19.9786 97.1393 20.009L100.21 18.2363Z" fill="#353839" stroke="#313435" stroke-width="0.417042"/>
<path d="M38.0641 60.5874L36.8438 61.292L37.4755 61.5286C37.5373 61.5549 37.588 61.5697 37.6541 61.5316C37.7202 61.4934 37.745 61.4171 37.7255 61.3489L38.0999 60.9558C38.1907 60.868 38.1866 60.7997 38.156 60.7466L38.0641 60.5874Z" fill="#575C5F"/>
<circle cx="37.4326" cy="61.2693" r="0.122203" transform="rotate(-30 37.4326 61.2693)" fill="#A2352B"/>
<path d="M27.8052 60.3939L28.588 61.321L31.423 64.2103C31.423 64.2103 30.5658 64.6714 29.6615 65.2627C28.7374 65.867 28.1551 66.4507 27.8065 67.5006C27.4724 68.5067 27.5194 69.4315 27.7278 70.3041C28.0405 71.6129 28.6498 72.636 28.6498 72.636C28.711 72.742 28.6285 72.9665 28.4694 73.0584L24.2311 74.9042C24.0769 74.9693 24.0497 74.9448 23.9817 74.8835C23.9494 74.8543 23.908 74.8169 23.8393 74.7768C23.5986 74.6365 23.4086 74.6242 23.2424 74.6617C23.0711 74.7005 22.9025 74.7807 22.7161 75.0363L15.9571 83.8715L15.9744 83.6316L15.085 84.3572C14.9412 84.4756 14.877 84.548 14.874 84.7266L14.8833 85.1102L15.0135 85.1051L11.3304 89.9195L9.52848 92.1267C9.33573 92.3441 8.84607 92.4146 8.59398 92.1005C6.36217 89.2545 4.91164 87.4373 2.91435 85.0191C2.78825 84.8659 2.65924 84.7126 2.52808 84.5568C2.17362 84.1356 1.80345 83.6958 1.43244 83.1873C0.901503 82.4597 0.963606 81.7015 1.75721 81.055C4.09924 79.1471 5.51125 78.1765 7.9962 76.4887L19.9939 67.6265C20.3444 67.3783 20.5417 67.3084 20.8967 67.3528L21.4629 67.4149C21.9567 67.4127 22.3346 67.271 23.0276 66.5115C25.1774 64.1554 26.2162 62.8151 27.8052 60.3939Z" stroke="#323334" stroke-width="0.834085"/>
<path d="M40.9836 51.8646L45.0411 49.522L45.8513 49.7614L46.525 50.9283L46.2784 51.8486L40.3379 55.2784C40.3113 55.2937 40.2981 55.3013 40.2876 55.2985C40.2772 55.2957 40.2695 55.2825 40.2542 55.2559L39.3526 55.7765L38.9851 55.14L39.5685 54.8032C39.7542 54.696 39.7452 54.5354 39.703 54.3012L39.6952 54.2605C39.6492 53.9942 39.6649 53.7442 39.6844 53.534C39.7448 52.8826 40.5062 52.1402 40.9836 51.8646Z" stroke="#313335" stroke-width="0.417042"/>
<path d="M34.9022 57.4978C34.7264 57.5993 34.6662 57.824 34.7676 57.9998C34.8691 58.1755 35.0939 58.2357 35.2696 58.1343L40.2554 55.2557C40.2707 55.2822 40.2784 55.2955 40.2888 55.2983C40.2993 55.3011 40.3125 55.2935 40.3391 55.2781L47.0221 51.4197C47.3669 51.2206 47.3912 50.7115 47.2687 50.4994L46.6869 49.4916L47.6946 48.9098L50.022 52.9408C47.8872 54.1387 46.0196 55.235 44.2637 56.2658C42.5999 57.2424 41.0363 58.1603 39.4405 59.0501C37.4308 60.2103 35.5363 61.1609 33.3872 62.2393C32.5628 62.6529 31.7009 63.0854 30.7807 63.5557L28.5874 61.3204L30.7748 58.6784L39.6856 53.5338C39.6651 53.7547 39.6491 54.0195 39.7042 54.301C39.7464 54.5352 39.7553 54.6958 39.5697 54.803L34.9022 57.4978Z" fill="#45484B"/>
<path d="M47.0305 47.804C46.9952 47.7936 46.9489 47.8203 46.8513 47.8766L30.1172 57.5381L30.7756 58.6784L39.6863 53.5338C39.7467 52.8824 40.5081 52.14 40.9855 51.8644L45.3083 49.3686C45.9978 48.9705 46.4579 49.0938 46.6723 49.4651L46.6876 49.4916L47.6954 48.9098L47.1288 47.9286C47.0853 47.8531 47.0624 47.8134 47.0305 47.804Z" fill="#474B4D"/>
<path d="M28.5877 61.3204L27.8049 60.3933L30.1167 57.5381L46.8509 47.8766C46.9485 47.8202 46.9948 47.7935 47.0301 47.8039C47.062 47.8133 47.0849 47.853 47.1284 47.9285L50.0222 52.9408L50.6347 54.0016L49.5209 54.6447L47.5223 54.4903C47.2754 54.4914 47.0835 54.6495 46.8705 54.8312L45.9546 55.5722L41.7 58.0635C41.3644 58.2572 41.3075 58.5232 41.2177 58.9431C40.4802 59.6252 39.9956 59.9605 39.1586 60.5213C39.0535 60.4037 38.9413 60.3285 38.7821 60.4204C35.9314 61.9377 34.3263 62.7776 31.4227 64.2097L30.781 63.5557L28.5877 61.3204Z" stroke="#313335" stroke-width="0.417042"/>
<path d="M27.8049 60.3933L28.5877 61.3204L30.781 63.5557L31.4227 64.2097L31.7744 64.036L33.5359 65.3587C33.9066 65.6244 34.4159 65.6777 34.6388 65.6767C35.3795 65.6734 36.015 65.5186 36.9535 65.1536C37.3289 65.0076 37.6736 64.8085 37.9684 64.4616L39.2396 61.6414C39.6997 60.6903 40.0165 60.2005 40.7025 59.3986C40.8647 59.2624 41.0333 59.1136 41.2177 58.9431C41.3075 58.5232 41.3644 58.2572 41.7 58.0635L45.9546 55.5722L46.8705 54.8312C47.0835 54.6495 47.2754 54.4914 47.5223 54.4903L49.5209 54.6447L50.6347 54.0016L50.0223 52.9408L47.1284 47.9285C47.0849 47.853 47.062 47.8133 47.0301 47.8039C46.9948 47.7935 46.9485 47.8202 46.8509 47.8766L30.1167 57.5381L27.8049 60.3933Z" stroke="#313335" stroke-width="0.834085"/>
<path d="M34.767 57.9996C34.6655 57.8238 34.7257 57.5991 34.9015 57.4976L39.569 54.8028C39.7546 54.6956 39.7457 54.535 39.7035 54.3008C39.6484 54.0193 39.6644 53.7545 39.6849 53.5336C39.7453 52.8822 40.5067 52.1398 40.9841 51.8642L45.3068 49.3684C45.9964 48.9703 46.4565 49.0936 46.6709 49.4649L47.268 50.4992C47.3905 50.7114 47.3662 51.2204 47.0214 51.4195L40.3384 55.2779C40.3118 55.2933 40.2986 55.3009 40.2881 55.2981C40.2777 55.2953 40.27 55.2821 40.2547 55.2555L35.2689 58.1341C35.0932 58.2355 34.8684 58.1753 34.767 57.9996Z" stroke="#313335" stroke-width="0.417042"/>
<path d="M33.4753 63.9079C33.5036 63.785 33.6151 63.3013 34.4808 62.8323C35.4007 62.3338 36.2984 62.122 36.3312 62.1176C37.0854 62.0152 37.3688 62.2611 37.6138 62.6854C37.9368 63.2449 37.8955 63.883 37.4276 64.3841C37.0876 64.7482 36.477 65.0036 35.7905 65.2232C35.2653 65.3911 34.8724 65.4704 34.4694 65.3848C34.087 65.3036 33.7906 65.0666 33.6541 64.8301C33.6429 64.811 33.6317 64.7921 33.6206 64.7733L33.6206 64.7733C33.4866 64.5476 33.3606 64.3353 33.4753 63.9079Z" stroke="#313335" stroke-width="0.417042"/>
<circle cx="38.7622" cy="58.151" r="0.199115" transform="rotate(-30 38.7622 58.151)" fill="#3C3F42"/>
<path d="M46.4317 54.2361C46.343 54.2873 45.7595 54.6242 45.7595 54.6242C45.6424 54.6918 45.4925 54.6517 45.4249 54.5345L45.1493 54.0571C45.0816 53.94 45.1218 53.7901 45.2389 53.7225C45.2389 53.7225 45.8224 53.3856 45.9112 53.3344C45.9999 53.2831 45.9231 53.0446 46.1773 52.8979L47.3441 52.2242C47.5492 52.1058 47.8114 52.176 47.9298 52.3811L48.2666 52.9645C48.385 53.1696 48.3148 53.4318 48.1097 53.5502L46.9428 54.2239C46.6886 54.3706 46.5205 54.1848 46.4317 54.2361Z" fill="#2F71AF"/>
<circle cx="45.7254" cy="54.043" r="0.35228" transform="rotate(-30 45.7254 54.043)" fill="#606569"/>
<circle cx="45.7262" cy="54.0421" r="0.168482" transform="rotate(-30 45.7262 54.0421)" fill="#4B4E52"/>
<path d="M46.4317 54.2361C46.343 54.2873 45.7595 54.6242 45.7595 54.6242C45.6424 54.6918 45.4925 54.6517 45.4249 54.5345L45.1493 54.0571C45.0816 53.94 45.1218 53.7901 45.2389 53.7225C45.2389 53.7225 45.8224 53.3856 45.9112 53.3344C45.9999 53.2831 45.9231 53.0446 46.1773 52.8979L47.3441 52.2242C47.5492 52.1058 47.8114 52.176 47.9298 52.3811L48.2666 52.9645C48.385 53.1696 48.3148 53.4318 48.1097 53.5502L46.9428 54.2239C46.6886 54.3706 46.5205 54.1848 46.4317 54.2361Z" stroke="#163450" stroke-width="0.417042"/>
<circle cx="44.4267" cy="52.0245" r="0.848536" transform="rotate(-30 44.4267 52.0245)" fill="#2C69A2" stroke="#163450" stroke-width="0.417042"/>
<path d="M47.226 48.0981C47.1972 48.0482 47.2143 47.9845 47.2641 47.9557L47.3487 47.9068C47.3986 47.878 47.4624 47.8951 47.4912 47.945L47.5462 48.0403C47.7136 48.0851 47.9941 47.9585 48.6306 47.5911L59.2632 41.8766L102.703 16.7966L103.805 18.7061L49.9167 49.8188L49.3655 48.864L48.3577 49.4459L48.8874 50.3634C48.9162 50.4132 48.8991 50.477 48.8492 50.5058L48.7646 50.5546C48.7148 50.5834 48.651 50.5664 48.6222 50.5165L47.226 48.0981Z" stroke="#303336" stroke-width="0.834085"/>
<path d="M48.3574 49.4463L69.5133 37.338C71.7312 36.157 72.9998 35.5373 75.3428 34.5735C75.5355 34.4942 75.6497 34.5538 75.704 34.6478C75.7652 34.7539 76.3175 35.9555 76.3175 35.9555L60.1269 44.8435C55.5906 46.2957 52.7866 47.8085 48.7555 50.1358L48.3574 49.4463Z" fill="#474B4D"/>
<path d="M48.7574 50.1359C48.9258 50.4277 48.928 50.5646 48.7831 50.7929L50.0386 52.9676C55.0509 50.0737 56.6369 48.8398 60.1288 44.8436C55.5925 46.2958 52.7884 47.8086 48.7574 50.1359Z" fill="#3F4245"/>
<path d="M60.1264 44.844C56.6345 48.8402 55.0485 50.0741 50.0363 52.9679L50.6334 54.0022L54.3402 52.2157L76.1845 39.4624C76.4058 39.3161 76.5485 39.1388 76.6526 38.8032C76.8627 38.126 76.7398 37.2269 76.317 35.956L60.1264 44.844Z" fill="#434648"/>
<path d="M73.6331 40.3689L56.4286 50.1958C56.3491 50.2418 56.3185 50.1887 56.3827 50.1163L61.3392 44.9209L75.298 37.2507C75.572 38.5294 75.3038 39.4043 73.6331 40.3689Z" fill="#3A3E40"/>
<path d="M48.357 49.4465L69.5129 37.3382C71.7308 36.1572 72.9994 35.5375 75.3424 34.5737C75.5351 34.4944 75.6493 34.554 75.7036 34.648C75.7648 34.7541 76.3172 35.9557 76.3172 35.9557C76.7399 37.2266 76.8627 38.1257 76.6527 38.803C76.5486 39.1385 76.4059 39.3158 76.1846 39.4622L54.3403 52.2154L50.6335 54.0019L48.7808 50.793C48.9257 50.5647 48.9235 50.4277 48.7551 50.136L48.357 49.4465Z" stroke="#313435" stroke-width="0.834085"/>
</g>
<defs>
<clipPath id="clip0_619_1190">
<rect width="110" height="110" fill="white"/>
</clipPath>
</defs>
</svg>
