<?xml version="1.0" encoding="UTF-8" standalone="no"?>
<svg
   width="110"
   height="110"
   viewBox="0 0 110 110"
   fill="none"
   version="1.1"
   id="svg67"
   sodipodi:docname="m3k.svg"
   inkscape:version="1.1.2 (0a00cf5339, 2022-02-04)"
   xmlns:inkscape="http://www.inkscape.org/namespaces/inkscape"
   xmlns:sodipodi="http://sodipodi.sourceforge.net/DTD/sodipodi-0.dtd"
   xmlns="http://www.w3.org/2000/svg"
   xmlns:svg="http://www.w3.org/2000/svg">
  <sodipodi:namedview
     id="namedview69"
     pagecolor="#505050"
     bordercolor="#ffffff"
     borderopacity="1"
     inkscape:pageshadow="0"
     inkscape:pageopacity="0"
     inkscape:pagecheckerboard="1"
     showgrid="false"
     inkscape:zoom="7.9181818"
     inkscape:cx="55.442021"
     inkscape:cy="54.936854"
     inkscape:window-width="2560"
     inkscape:window-height="1372"
     inkscape:window-x="0"
     inkscape:window-y="0"
     inkscape:window-maximized="1"
     inkscape:current-layer="svg67" />
  <g
     clip-path="url(#clip0_619_1190)"
     id="g60"
     transform="matrix(1.010087,0,0,1.010087,-0.62685135,-1.5373247)">
    <path
       fill-rule="evenodd"
       clip-rule="evenodd"
       d="m 28.4804,62.8007 -0.7812,-0.9252 c -1.5857,2.4162 -2.6224,3.7537 -4.7678,6.105 -0.6916,0.7579 -1.0687,0.8993 -1.5615,0.9015 l -0.565,-0.0619 c -0.3542,-0.0443 -0.5512,0.0254 -0.9009,0.2731 L 7.93098,77.9371 C 5.45115,79.6215 4.04205,80.59 1.70485,82.494 c -0.791974,0.6452 -0.853949,1.4018 -0.3241,2.1279 0.37024,0.5075 0.73965,0.9464 1.09338,1.3666 0.13089,0.1556 0.25963,0.3085 0.38547,0.4615 1.99318,2.4132 3.44071,4.2266 5.66793,7.0667 0.25157,0.3135 0.74023,0.2431 0.93257,0.0262 l 1.7983,-2.2027 3.6754,-4.8045 0.5257,-0.0206 c 0.1629,-0.0234 0.3329,-0.1568 0.3511,-0.3086 l 0.0649,-0.9017 6.7451,-8.8171 c 0.186,-0.255 0.3542,-0.3351 0.5252,-0.3738 0.1658,-0.0375 0.3554,-0.0252 0.5956,0.1149 0.0685,0.04 0.1099,0.0773 0.1422,0.1064 0.0678,0.0612 0.0949,0.0856 0.2488,0.0207 l 4.2295,-1.842 c 0.1588,-0.0917 0.2412,-0.3157 0.1801,-0.4216 0,0 -0.608,-1.0209 -0.9201,-2.327 -0.208,-0.8708 -0.2548,-1.7937 0.0786,-2.7978 0.3478,-1.0477 0.9289,-1.6302 1.8511,-2.2332 0.9025,-0.5901 1.7579,-1.0503 1.7579,-1.0503 z M 15.6431,86.0386 c 0.0633,0.1096 0.0257,0.2498 -0.0839,0.3131 -0.1096,0.0633 -0.2498,0.0257 -0.3131,-0.0839 -0.0633,-0.1096 -0.0257,-0.2498 0.0839,-0.3131 0.1096,-0.0633 0.2498,-0.0257 0.3131,0.0839 z"
       fill="#424446"
       id="path2" />
    <rect
       x="97.582001"
       y="19.9746"
       width="0.97781801"
       height="0.24445499"
       transform="rotate(-30,97.582,19.9746)"
       fill="#a23e2b"
       id="rect4" />
    <path
       d="m 97.8918,19.6547 -0.2119,0.1223 0.2141,0.3708 -0.053,0.0305 0.0252,0.0437 0.6375,-0.3635 -0.0272,-0.0471 -0.0529,0.0306 -0.2141,-0.3707 -0.2118,0.1223 0.214,0.3707 -0.1059,0.0612 z"
       fill="#333638"
       id="path6" />
    <path
       d="m 34.33,64.3258 c -0.8353,0.4628 -0.9444,0.9353 -0.9723,1.0565 -0.0346,0.1291 -0.0472,0.2385 -0.0443,0.3346 0.0627,-0.0632 0.1328,-0.1041 0.1931,-0.138 0.1152,-0.0647 0.3252,-0.0753 0.3758,0.1007 0.1876,0.5732 0.4364,0.7513 0.9374,1.0121 0.0643,0.0334 0.1431,-0.0707 0.06,-0.1406 -0.7744,-0.6519 -0.878,-1.1818 -0.5497,-2.2253 z"
       fill="#333638"
       id="path8" />
    <path
       d="m 34.33,64.3258 c -0.8353,0.4628 -0.9444,0.9353 -0.9723,1.0565 -0.0346,0.1291 -0.0472,0.2385 -0.0443,0.3346 0.0627,-0.0632 0.1328,-0.1041 0.1931,-0.138 0.1152,-0.0647 0.3252,-0.0753 0.3758,0.1007 0.1876,0.5732 0.4364,0.7513 0.9374,1.0121 0.0643,0.0334 0.1431,-0.0707 0.06,-0.1406 -0.7744,-0.6519 -0.878,-1.1818 -0.5497,-2.2253 z"
       stroke="#303436"
       stroke-width="0.416183"
       stroke-miterlimit="3.99393"
       id="path10" />
    <path
       fill-rule="evenodd"
       clip-rule="evenodd"
       d="m 38.6535,61.9026 c -2.7279,1.4519 -4.3129,2.2823 -6.9933,3.6081 l 1.7579,1.3201 c 0.3699,0.2651 0.8782,0.3183 1.1006,0.3173 0.7392,-0.0033 1.3733,-0.1577 2.3099,-0.522 0.3746,-0.1457 0.7187,-0.3444 1.0128,-0.6906 L 39.11,63.1211 c 0.4591,-0.9492 0.7791,-1.4411 1.4637,-2.2414 -0.4872,0.4092 -0.9164,0.7028 -1.5445,1.1235 -0.1049,-0.1173 -0.2169,-0.1923 -0.3757,-0.1006 z m -5.2949,3.4805 c 0.0282,-0.1227 0.1396,-0.6054 1.0034,-1.0735 0.918,-0.4974 1.8139,-0.7088 1.8466,-0.7132 0.7527,-0.1022 1.0355,0.1433 1.28,0.5667 0.3223,0.5583 0.2811,1.1951 -0.1859,1.6951 -0.3393,0.3635 -0.9486,0.6183 -1.6337,0.8374 -0.5241,0.1676 -0.9162,0.2467 -1.3184,0.1613 -0.3816,-0.081 -0.6773,-0.3175 -0.8136,-0.5535 -0.1445,-0.2481 -0.3024,-0.4582 -0.1784,-0.9203 0.0013,-0.005 -0.0018,0.0077 0,0 z"
       fill="#3c3f41"
       id="path12" />
    <path
       d="m 33.3593,65.3834 c 0.0282,-0.1227 0.1396,-0.6054 1.0034,-1.0734 0.9181,-0.4975 1.8139,-0.7088 1.8466,-0.7133 0.7527,-0.1022 1.0355,0.1433 1.28,0.5667 0.3223,0.5583 0.2811,1.1951 -0.1858,1.6952 -0.3394,0.3634 -0.9487,0.6182 -1.6338,0.8373 -0.524,0.1676 -0.9162,0.2467 -1.3184,0.1613 -0.3816,-0.081 -0.6773,-0.3175 -0.8136,-0.5535 -0.1445,-0.2481 -0.3024,-0.4582 -0.1784,-0.9203 z m 0,0 c -0.0018,0.0077 0.0013,-0.0049 0,0 z"
       stroke="#303436"
       stroke-width="0.416183"
       stroke-miterlimit="3.99393"
       id="path14" />
    <path
       d="M 11.2674,91.3264 11.257,91.34 9.45875,93.5427 C 9.2664,93.7596 8.77774,93.83 8.52617,93.5165 6.29896,90.6763 4.85143,88.863 2.85825,86.4497 2.73241,86.2968 2.60367,86.1438 2.47278,85.9883 2.11904,85.568 1.74964,85.1291 1.3794,84.6217 0.849549,83.8955 0.911524,83.139 1.70349,82.4938 c 0.51193,-0.4171 0.97389,-0.7955 1.42322,-1.1339 -0.0605,0.2369 -0.11349,0.4445 0.02639,0.6498 2.55124,3.7448 4.15886,5.7157 7.3972,8.9619 0.201,0.2015 0.4268,0.2906 0.7171,0.3548 z"
       fill="#464749"
       stroke="#313233"
       stroke-width="0.416183"
       stroke-miterlimit="3.99393"
       id="path16" />
    <path
       fill-rule="evenodd"
       clip-rule="evenodd"
       d="M 28.4812,62.7995 27.7,61.8743 30.0071,59.025 46.7068,49.3834 c 0.0974,-0.0562 0.1435,-0.0829 0.1788,-0.0725 0.0318,0.0094 0.0546,0.049 0.0981,0.1244 l 3.4991,6.0605 -1.1116,0.6418 -1.9945,-0.1541 c -0.2463,0.0011 -0.4378,0.1588 -0.6504,0.3402 l -0.914,0.7395 -4.2458,2.4861 c -0.3349,0.1934 -0.3917,0.4588 -0.4813,0.8778 -0.736,0.6807 -1.2196,1.0153 -2.0548,1.5749 -0.105,-0.1173 -0.217,-0.1923 -0.3758,-0.1006 -2.8449,1.5142 -4.4466,2.3523 -7.3443,3.7815 z m 11.0939,-7.0049 c -0.055,-0.2809 -0.039,-0.5452 -0.0186,-0.7656 0.0603,-0.6501 0.8201,-1.391 1.2965,-1.666 l 4.3139,-2.4906 c 0.6881,-0.3973 1.1473,-0.2743 1.3612,0.0962 l 0.5959,1.0322 c 0.1223,0.2117 0.098,0.7198 -0.2461,0.9184 l -6.6692,3.8505 c -0.0265,0.0153 -0.0397,0.0229 -0.0502,0.0201 -0.0104,-0.0028 -0.0181,-0.016 -0.0333,-0.0425 l -4.9755,2.8726 c -0.1754,0.1013 -0.3997,0.0412 -0.501,-0.1342 -0.1012,-0.1754 -0.0411,-0.3997 0.1343,-0.5009 l 4.6579,-2.6893 c 0.1852,-0.1069 0.1763,-0.2672 0.1342,-0.5009 z"
       fill="#44474b"
       id="path18" />
    <path
       d="m 39.5548,55.0298 c -0.0204,0.2204 -0.0364,0.4847 0.0186,0.7656 0.0421,0.2338 0.051,0.394 -0.1342,0.501 l -4.658,2.6892 c -0.1753,0.1013 -0.2354,0.3256 -0.1342,0.501 0.1013,0.1754 0.3256,0.2355 0.501,0.1342 l 4.9755,-2.8726 c 0.0152,0.0265 0.0229,0.0397 0.0333,0.0425 0.0105,0.0028 0.0237,-0.0049 0.0502,-0.0201 L 46.8762,52.92 c 0.3441,-0.1986 0.3684,-0.7066 0.2461,-0.9183 L 46.5264,50.9695 C 46.3125,50.599 45.8533,50.4759 45.1652,50.8732 l -4.3139,2.4906 c -0.4764,0.2751 -1.2362,1.016 -1.2965,1.666 z"
       fill="#242627"
       id="path20" />
    <path
       d="m 44.9018,51.0263 -4.0492,2.3378 c -0.4764,0.2751 -1.2362,1.016 -1.2965,1.666 -0.0195,0.2097 -0.0349,0.4592 0.0111,0.7249 l 0.0075,0.0407 c 0.0421,0.2338 0.051,0.394 -0.1343,0.501 l -0.5822,0.3361 0.3667,0.6352 0.8998,-0.5195 c 0.0153,0.0265 0.023,0.0397 0.0334,0.0425 0.0104,0.0028 0.0237,-0.0049 0.0501,-0.0201 l 5.9283,-3.4227 0.2013,-0.7514 0.2751,0.4764 0.2646,-0.1528 c 0.2917,-0.1684 0.3535,-0.5592 0.2911,-0.8033 l 0.0161,-0.0093 -0.6723,-1.1645 -0.741,0.4279 -0.0612,-0.1059 z"
       fill="#34373a"
       id="path22" />
    <path
       d="m 41.7735,59.4298 4.0404,-2.3659 0.914,-0.7394 c 0.2126,-0.1814 0.4041,-0.3392 0.6505,-0.3403 l 0.4432,0.0343 0.3633,0.6292 z"
       fill="#36393b"
       stroke="#2e3133"
       stroke-width="0.832366"
       stroke-miterlimit="3.99393"
       id="path24" />
    <path
       d="m 46.288,55.7299 c -0.0886,0.0512 -0.6709,0.3873 -0.6709,0.3873 -0.1169,0.0676 -0.2664,0.0275 -0.3339,-0.0894 l -0.2751,-0.4764 c -0.0675,-0.117 -0.0274,-0.2665 0.0895,-0.334 0,0 0.5823,-0.3361 0.6709,-0.3873 0.0885,-0.0511 0.0118,-0.2891 0.2655,-0.4356 l 1.1645,-0.6723 c 0.2046,-0.1182 0.4663,-0.048 0.5844,0.1566 l 0.3362,0.5822 c 0.1181,0.2047 0.048,0.4663 -0.1566,0.5845 l -1.1645,0.6723 c -0.2537,0.1464 -0.4214,-0.039 -0.51,0.0121 z"
       fill="#2d6da4"
       stroke="#163550"
       stroke-width="0.416183"
       stroke-miterlimit="3.99393"
       id="path26" />
    <path
       d="m 47.1194,49.4636 c -0.0498,0.0287 -0.0668,0.0924 -0.0381,0.1421 l 1.3934,2.4134 c 0.0287,0.0498 0.0924,0.0668 0.1421,0.0381 l 0.0845,-0.0487 c 0.0497,-0.0288 0.0668,-0.0924 0.038,-0.1422 l -0.5286,-0.9156 1.0057,-0.5806 0.5501,0.9528 51.2895,-29.6123 -1.0997,-1.9055 -40.8626,23.592 -10.6107,5.7027 c -0.6352,0.3667 -0.9151,0.493 -1.0821,0.4483 L 47.346,49.4529 c -0.0288,-0.0497 -0.0924,-0.0668 -0.1422,-0.0381 z"
       fill="#3a3d40"
       id="path28" />
    <path
       d="M 48.21,50.9507 69.3223,38.8674 c 2.2133,-1.1786 3.4792,-1.797 5.8175,-2.7589 0.1922,-0.079 0.3062,-0.0196 0.3604,0.0742 0.0611,0.1059 0.6123,1.305 0.6123,1.305 0.4219,1.2683 0.5445,2.1655 0.3348,2.8414 -0.1038,0.3348 -0.2463,0.5118 -0.4671,0.6578 l -21.7993,12.727 -3.6991,1.7829 -1.8489,-3.2023 c 0.1446,-0.2279 0.1424,-0.3646 -0.0257,-0.6557 z"
       fill="#44484b"
       id="path30" />
    <rect
       x="78.210899"
       y="36.170898"
       width="30.0707"
       height="2.3836501"
       transform="rotate(-30,78.2109,36.1709)"
       fill="#373b3f"
       stroke="#303336"
       stroke-width="0.832366"
       stroke-miterlimit="3.99393"
       id="rect32" />
    <path
       d="m 76.113,37.4882 c 0.4219,1.2683 0.5445,2.1655 0.3348,2.8414 -0.0155,0.0502 -0.032,0.0969 -0.0494,0.1405 l 3.1642,-2.0799 c -0.1024,-1.3547 -0.4082,-1.8997 -1.4058,-2.4349 l -2.2482,1.09 c 0.1127,0.2435 0.2044,0.4429 0.2044,0.4429 z"
       fill="#43464a"
       stroke="#2c3033"
       stroke-width="0.832366"
       stroke-miterlimit="3.99393"
       id="path34" />
    <path
       d="m 104.131,20.9238 1.436,2.4878 3.388,-1.9558 c 0.146,-0.0844 0.196,-0.2713 0.112,-0.4175 l -1.131,-1.9584 c -0.085,-0.1462 -0.271,-0.1963 -0.418,-0.1119 z"
       fill="#333639"
       stroke="#303336"
       stroke-width="0.832366"
       stroke-miterlimit="3.99393"
       id="path36" />
    <rect
       x="99.955101"
       y="19.8057"
       width="2.8726001"
       height="2.20029"
       transform="rotate(-30,99.9551,19.8057)"
       fill="#373a3c"
       stroke="#303336"
       stroke-width="0.416183"
       stroke-miterlimit="3.99393"
       id="rect38" />
    <path
       d="M 99.9543,19.8056 99.6182,19.2234 49.7633,47.6542 c -0.4719,0.4274 -0.7816,0.6631 -1.4545,1.0868 l -0.9639,0.5918 0.107,0.1853 0.8937,-0.3402 c 0.0432,-0.0246 0.0883,-0.0504 0.1354,-0.0776 l 5.4428,-2.9252 c 0.1881,-0.4477 0.3632,-0.6775 0.7826,-1.0219 l 3.2064,-1.7806 c 0.5015,-0.1607 0.7589,-0.1118 1.1418,-0.0391 0.036,0.0069 0.0732,0.0139 0.1118,0.0211 l 1.1241,-0.649 c 0.1849,-0.4508 0.3279,-0.7934 0.7452,-1.136 l 3.1005,-1.7195 c 0.5015,-0.1608 0.759,-0.1118 1.1419,-0.0391 0.0065,0.0012 0.013,0.0025 0.0195,0.0037 l 1.3603,-0.7854 c 0.1681,-0.4059 0.3188,-0.7246 0.7071,-1.0434 l 3.0741,-1.7042 c 0.5088,-0.1631 0.7631,-0.1652 1.1547,-0.1021 l 1.3754,-0.7941 c 0.1416,-0.3552 0.2612,-0.6281 0.6193,-0.9221 l 3.2858,-1.8265 c 0.4656,-0.1492 0.7181,-0.1637 1.0577,-0.1167 l 1.336,-0.7713 c 0.1415,-0.3552 0.2611,-0.6281 0.6193,-0.9221 l 3.2858,-1.8265 c 0.4656,-0.1492 0.7181,-0.1637 1.0577,-0.1167 l 1.3359,-0.7713 c 0.1416,-0.3552 0.2612,-0.6281 0.6193,-0.9221 l 3.2858,-1.8265 C 89.9374,25.2145 90.1899,25.2 90.5295,25.247 l 1.1919,-0.6881 c 0.1274,-0.3114 0.2556,-0.562 0.5822,-0.8301 l 3.6299,-2.0252 c 0.4184,-0.1341 0.6647,-0.1593 0.9568,-0.1289 z"
       fill="#34373a"
       id="path40" />
    <path
       d="M 99.9543,19.8056 99.6182,19.2234 49.7633,47.6542 c -0.4719,0.4274 -0.7816,0.6631 -1.4545,1.0868 l -0.9639,0.5918 0.107,0.1853 0.8937,-0.3402 c 0.0432,-0.0246 0.0883,-0.0504 0.1354,-0.0776 l 5.4428,-2.9252 c 0.1881,-0.4477 0.3632,-0.6775 0.7826,-1.0219 l 3.2064,-1.7806 c 0.5015,-0.1607 0.7589,-0.1118 1.1418,-0.0391 0.036,0.0069 0.0732,0.0139 0.1118,0.0211 l 1.1241,-0.649 c 0.1849,-0.4508 0.3279,-0.7934 0.7452,-1.136 l 3.1005,-1.7195 c 0.5015,-0.1608 0.759,-0.1119 1.1418,-0.0391 h 10e-5 c 0.0065,0.0012 0.013,0.0025 0.0195,0.0037 l 1.3603,-0.7854 c 0.1681,-0.4059 0.3188,-0.7246 0.7071,-1.0434 l 3.0741,-1.7042 c 0.5088,-0.1631 0.7631,-0.1652 1.1547,-0.1021 l 1.3754,-0.7941 c 0.1416,-0.3552 0.2612,-0.6281 0.6193,-0.9221 l 3.2858,-1.8265 c 0.4656,-0.1492 0.7181,-0.1637 1.0577,-0.1167 l 1.336,-0.7713 c 0.1415,-0.3552 0.2611,-0.6281 0.6193,-0.9221 l 3.2858,-1.8265 c 0.4656,-0.1492 0.7181,-0.1637 1.0577,-0.1167 l 1.3359,-0.7713 c 0.1416,-0.3552 0.2612,-0.6281 0.6193,-0.9221 l 3.2858,-1.8265 C 89.9374,25.2145 90.1899,25.2 90.5295,25.247 l 1.1919,-0.6881 c 0.1274,-0.3114 0.2556,-0.562 0.5822,-0.8301 l 3.6299,-2.0252 c 0.4184,-0.1341 0.6647,-0.1593 0.9568,-0.1289 z"
       stroke="#303336"
       stroke-width="0.416183"
       stroke-miterlimit="3.99393"
       id="path42" />
    <path
       d="m 27.7,61.8743 0.7812,0.9252 2.8291,2.8834 0.351,-0.1734 1.7579,1.3201 c 0.3699,0.2651 0.8782,0.3183 1.1006,0.3173 0.7392,-0.0033 1.3733,-0.1577 2.3099,-0.522 0.3746,-0.1457 0.7187,-0.3444 1.0128,-0.6906 l 1.2686,-2.8144 c 0.4591,-0.9492 0.7754,-1.4379 1.46,-2.2382 0.1618,-0.1359 0.3301,-0.2844 0.5141,-0.4546 0.0896,-0.419 0.1464,-0.6844 0.4812,-0.8778 l 4.2459,-2.4861 0.914,-0.7395 c 0.2126,-0.1814 0.4041,-0.3391 0.6504,-0.3402 l 1.9945,0.1541 1.1116,-0.6418 -3.4991,-6.0605 c -0.0435,-0.0754 -0.0663,-0.115 -0.0981,-0.1243 -0.0353,-0.0105 -0.0814,0.0162 -0.1788,0.0724 L 30.0071,59.025 Z"
       stroke="#303336"
       stroke-width="0.832366"
       stroke-miterlimit="3.99393"
       id="path44" />
    <path
       d="m 39.7782,55.7585 v 0 l -6e-4,-0.003 C 39.7286,55.505 39.742,55.2652 39.762,55.049 c 0.0242,-0.2607 0.1957,-0.5679 0.4432,-0.8576 0.2438,-0.2853 0.535,-0.5231 0.7502,-0.6474 l 4.3138,-2.4906 c 0.322,-0.1859 0.5628,-0.2335 0.7295,-0.2134 0.1575,0.019 0.2706,0.1004 0.3475,0.2335 l 0.5959,1.0322 c 0.0293,0.0507 0.055,0.1764 0.0276,0.3213 -0.0264,0.1392 -0.0936,0.2528 -0.1975,0.3128 l -6.542,3.7771 -0.0306,-0.053 -0.1802,0.1041 -4.9755,2.8726 c -0.0759,0.0438 -0.1729,0.0178 -0.2167,-0.0581 -0.0438,-0.0759 -0.0178,-0.1729 0.0581,-0.2167 l 4.6579,-2.6892 c 0.1418,-0.0819 0.2252,-0.1986 0.2528,-0.3444 0.0237,-0.1253 0.0027,-0.2597 -0.0178,-0.3737 z"
       stroke="#303436"
       stroke-width="0.416183"
       stroke-miterlimit="3.99393"
       id="path46" />
    <circle
       cx="44.285"
       cy="53.523701"
       transform="rotate(-30,44.285,53.5237)"
       fill="#2c6ba2"
       stroke="#163550"
       stroke-width="0.416183"
       stroke-miterlimit="3.99393"
       id="ellipse48"
       r="0.84634399" />
    <path
       d="m 31.3105,65.6836 c 2.8977,-1.4291 4.4994,-2.2673 7.3443,-3.7815 0.1588,-0.0917 0.2708,-0.0167 0.3758,0.1007 0.8352,-0.5596 1.3188,-0.8943 2.0548,-1.575"
       stroke="#313335"
       stroke-width="0.416183"
       stroke-miterlimit="3.99393"
       id="path50" />
    <path
       d="M 48.21,50.9507 69.3223,38.8674 c 2.2133,-1.1786 3.4792,-1.797 5.8175,-2.7589 0.1922,-0.0791 0.3062,-0.0196 0.3604,0.0742 0.0611,0.1059 0.6123,1.305 0.6123,1.305 0.4219,1.2683 0.5445,2.1655 0.3348,2.8414 -0.1038,0.3348 -0.2463,0.5118 -0.4671,0.6578 l -21.7993,12.727 -3.6991,1.7829 -1.8489,-3.2023 c 0.1446,-0.2279 0.1424,-0.3646 -0.0257,-0.6557 z"
       stroke="#303436"
       stroke-width="0.832366"
       stroke-miterlimit="3.99393"
       id="path52" />
    <path
       d="m 47.0813,49.6057 c -0.0287,-0.0497 -0.0117,-0.1134 0.0381,-0.1421 l 0.0844,-0.0488 c 0.0498,-0.0287 0.1134,-0.0116 0.1422,0.0381 l 0.0549,0.0952 c 0.167,0.0447 0.4469,-0.0816 1.0821,-0.4483 l 10.6107,-5.7027 43.3503,-25.0283 1.1,1.9055 -27.9351,16.1285 c -0.0536,-0.1128 -0.0938,-0.1956 -0.1079,-0.22 -0.0542,-0.0939 -0.1682,-0.1533 -0.3605,-0.0742 -2.3382,0.9618 -3.6041,1.5803 -5.8175,2.7588 l -20.1066,11.5027 -1.0057,0.5806 0.3973,0.6882 c 0.0794,0.1375 0.1218,0.2406 0.1292,0.3351 -0.0087,0.0138 -0.0208,0.0257 -0.0359,0.0345 l -0.0845,0.0487 c -0.0497,0.0287 -0.1134,0.0117 -0.1421,-0.0381 z"
       stroke="#303336"
       stroke-width="0.832366"
       stroke-miterlimit="3.99393"
       id="path54" />
    <path
       d="m 97.5237,19.8699 0.8468,-0.489 0.3311,0.3655 -1.027,0.593 z"
       stroke="#303336"
       stroke-width="0.416183"
       stroke-miterlimit="3.99393"
       id="path56" />
    <path
       d="m 28.4804,62.8007 -0.7812,-0.9252 c -1.5857,2.4162 -2.6224,3.7537 -4.7678,6.105 -0.6916,0.7579 -1.0687,0.8993 -1.5615,0.9015 l -0.565,-0.0619 c -0.3542,-0.0443 -0.5512,0.0254 -0.9009,0.2731 L 7.93098,77.9371 C 5.45115,79.6215 4.04205,80.59 1.70485,82.494 c -0.791974,0.6452 -0.853949,1.4018 -0.3241,2.1279 0.37024,0.5075 0.73965,0.9464 1.09338,1.3666 h 10e-6 c 0.13088,0.1556 0.25962,0.3085 0.38546,0.4615 1.99318,2.4132 3.44071,4.2266 5.66793,7.0667 0.25157,0.3135 0.74022,0.2431 0.93257,0.0262 l 1.7983,-2.2027 3.6754,-4.8045 0.5257,-0.0206 c 0.1629,-0.0234 0.3329,-0.1568 0.3511,-0.3086 l 0.0649,-0.9017 6.7451,-8.8171 c 0.186,-0.255 0.3542,-0.3351 0.5252,-0.3738 0.1658,-0.0375 0.3554,-0.0252 0.5956,0.1149 0.0685,0.04 0.1099,0.0773 0.1422,0.1064 0.0678,0.0612 0.0949,0.0856 0.2488,0.0207 l 4.2295,-1.842 c 0.1588,-0.0917 0.2412,-0.3157 0.1801,-0.4216 0,0 -0.608,-1.0209 -0.9201,-2.327 -0.208,-0.8708 -0.2548,-1.7937 0.0786,-2.7978 0.3478,-1.0477 0.9289,-1.6302 1.8511,-2.2332 0.9025,-0.5901 1.7579,-1.0503 1.7579,-1.0503 z"
       stroke="#313233"
       stroke-width="0.832366"
       stroke-miterlimit="3.99393"
       id="path58" />
  </g>
  <defs
     id="defs65">
    <clipPath
       id="clip0_619_1190">
      <rect
         width="110"
         height="110"
         fill="#ffffff"
         transform="translate(0.0859375)"
         id="rect62"
         x="0"
         y="0" />
    </clipPath>
  </defs>
</svg>
