<svg width="110" height="110" viewBox="0 0 110 110" fill="none" xmlns="http://www.w3.org/2000/svg">
<g clip-path="url(#clip0_2940_3887)">
<path d="M104.281 15.4015L104.013 14.9365L104.577 14.0783C104.715 13.8813 104.843 13.8735 104.946 14.0715L105.356 14.781" fill="#37363A" stroke="#323135" stroke-width="0.578249"/>
<path d="M87.0488 31.3232L89.1503 30.11L90.2883 32.081L88.1868 33.2943L87.0488 31.3232Z" fill="#4C4B4F" stroke="#323135" stroke-width="1.1565"/>
<path d="M56 48.2695L86.6266 30.5872L88.2507 33.4002L57.633 51.0981L56 48.2695Z" fill="#4C4B4F"/>
<path d="M88.2507 33.4002L57.633 51.0981Z" fill="#4C4B4F"/>
<path d="M56 48.2695L86.6266 30.5872L88.2507 33.4002L57.633 51.0981L56 48.2695Z" stroke="#323135" stroke-width="1.1565"/>
<path d="M88.2507 33.4002L57.633 51.0981Z" stroke="#323135" stroke-width="1.1565"/>
<path d="M55.7676 47.8691L71.1875 38.9665L72.1556 40.6433L64.3804 45.1323L63.9733 45.0147L56.583 49.2815L55.7676 47.8691Z" fill="#3A393D" stroke="#323135" stroke-width="0.578251"/>
<path d="M66.9831 42.2056L68.9769 45.6591C69.0759 45.8381 69.2041 45.9472 69.435 45.8177L86.5647 35.9278L88.1403 34.8608C88.4735 34.5902 88.5019 34.1782 88.3305 33.8829L86.7152 31.0852C86.4361 30.6376 86.4145 30.5269 84.3116 31.7262L70.0309 39.9712C69.9639 40.2202 69.7672 40.5569 69.4925 40.7331L66.9831 42.2056Z" fill="#595959"/>
<path d="M84.407 31.6662C84.374 31.6849 84.3405 31.704 84.3064 31.7234L71.3613 39.1973L73.744 43.3241L86.5596 35.925L86.7798 35.7759L84.407 31.6662Z" fill="#4D4D4D"/>
<rect x="71.1152" y="39.3428" width="0.578251" height="4.76548" transform="rotate(-30 71.1152 39.3428)" fill="#3B3B3B"/>
<rect x="72.1172" y="38.7627" width="0.578251" height="4.76548" transform="rotate(-30 72.1172 38.7627)" fill="#3B3B3B"/>
<rect x="73.1211" y="38.1855" width="0.578251" height="4.76548" transform="rotate(-30 73.1211 38.1855)" fill="#3B3B3B"/>
<rect x="74.125" y="37.6055" width="0.578251" height="4.76548" transform="rotate(-30 74.125 37.6055)" fill="#3B3B3B"/>
<rect x="75.127" y="37.0254" width="0.578251" height="4.76548" transform="rotate(-30 75.127 37.0254)" fill="#3B3B3B"/>
<rect x="76.1289" y="36.4463" width="0.578251" height="4.76548" transform="rotate(-30 76.1289 36.4463)" fill="#3B3B3B"/>
<rect x="77.1328" y="35.8672" width="0.578251" height="4.76548" transform="rotate(-30 77.1328 35.8672)" fill="#3B3B3B"/>
<rect x="78.1348" y="35.2871" width="0.578251" height="4.76548" transform="rotate(-30 78.1348 35.2871)" fill="#3B3B3B"/>
<rect x="79.1406" y="34.707" width="0.578251" height="4.76548" transform="rotate(-30 79.1406 34.707)" fill="#3B3B3B"/>
<rect x="80.1426" y="34.1279" width="0.578251" height="4.76548" transform="rotate(-30 80.1426 34.1279)" fill="#3B3B3B"/>
<rect x="81.1484" y="33.5488" width="0.578251" height="4.76548" transform="rotate(-30 81.1484 33.5488)" fill="#3B3B3B"/>
<rect x="82.1523" y="32.9697" width="0.578251" height="4.76548" transform="rotate(-30 82.1523 32.9697)" fill="#3B3B3B"/>
<rect x="83.1562" y="32.3916" width="0.578251" height="4.76548" transform="rotate(-30 83.1562 32.3916)" fill="#3B3B3B"/>
<rect x="84.1602" y="31.8115" width="0.578251" height="4.76548" transform="rotate(-30 84.1602 31.8115)" fill="#3B3B3B"/>
<path d="M66.9831 42.2056L68.9769 45.6591C69.0759 45.8381 69.2041 45.9472 69.435 45.8177L86.5647 35.9278L88.1403 34.8608C88.4735 34.5902 88.5019 34.1782 88.3305 33.8829L86.7152 31.0852C86.4361 30.6376 86.4145 30.5269 84.3116 31.7262L70.0309 39.9712C69.9639 40.2202 69.7672 40.5569 69.4925 40.7331L66.9831 42.2056Z" stroke="#333333" stroke-width="1.1565"/>
<rect x="93.5098" y="28.6641" width="2.08381" height="0.74653" rx="0.373265" transform="rotate(-30 93.5098 28.6641)" fill="#37363A" stroke="#323135" stroke-width="0.578251"/>
<path d="M89.041 29.9268L90.5552 32.5494L93.5888 30.7979L93.9095 29.8502L94.5714 29.468C94.6377 28.8802 94.1247 28.1353 93.7178 27.9895L93.0559 28.3717L92.0768 28.1793L89.041 29.9268Z" fill="#3F3E42"/>
<path d="M93.9083 29.8496L94.5702 29.4674C94.6365 28.8796 94.1235 28.1347 93.7166 27.989L93.0547 28.3711L93.9083 29.8496Z" fill="#4C4B4F"/>
<path d="M89.041 29.9268L90.5552 32.5494L93.5888 30.7979L93.9095 29.8502L94.5714 29.468C94.6377 28.8802 94.1247 28.1353 93.7178 27.9895L93.0559 28.3717L92.0768 28.1793L89.041 29.9268Z" stroke="#323135" stroke-width="1.1565"/>
<path d="M89.6935 27.6558L88.2246 28.5039L88.8037 29.5069L90.2726 28.6589L89.6935 27.6558Z" fill="#444347"/>
<path d="M90.2736 28.6597L88.8047 29.5078L90.6389 32.6848L92.1078 31.8367L90.2736 28.6597Z" fill="#4C4B4F"/>
<path d="M87.9355 27.999L90.6394 32.6823L92.1083 31.8342L89.4086 27.1581" stroke="#323135" stroke-width="1.1565"/>
<path d="M54.4395 45.5693L107.445 15.2105L108.459 16.9778L55.6852 47.7271L54.4395 45.5693Z" fill="#4C4B4F"/>
<path d="M102.39 18.1055L106.869 15.5401L106.44 14.7965L106.195 14.9379L105.917 14.456L103.359 15.9324L102.454 17.3783L102.39 18.1055Z" fill="#3F3E42" stroke="#323135" stroke-width="0.578249"/>
<path d="M56.6987 44.2753L57.9348 46.4163L55.6852 47.7271L54.4395 45.5693L56.6987 44.2753Z" fill="#3F3E42" stroke="#323135" stroke-width="0.578251"/>
<path d="M54.4395 45.5693L107.445 15.2105L108.459 16.9778L55.6852 47.7271L54.4395 45.5693Z" stroke="#323135" stroke-width="1.1565"/>
<path d="M53.2827 67.0756L61.3467 60.7071L62.2294 61.7611L62.3495 62.9243C63.3467 62.6485 63.7328 63.1492 63.004 63.7838L56.7771 69.1629C56.3766 69.5471 56.1301 69.4273 55.6901 69.1574L54.488 68.4127L53.2827 67.0756Z" fill="#4D4D4D"/>
<path d="M55.3359 68.9375L62.3068 62.8607Z" fill="#404040"/>
<path d="M63.003 63.7828C63.7318 63.1482 63.304 62.5848 62.3068 62.8607L55.3359 68.9375L55.6892 69.1564C56.1292 69.4264 56.3756 69.5462 56.7761 69.1619L63.003 63.7828Z" fill="#404040"/>
<path d="M55.3359 68.9375L62.3068 62.8607Z" stroke="#333333" stroke-width="0.578251"/>
<path d="M63.003 63.7828C63.7318 63.1482 63.304 62.5848 62.3068 62.8607L55.3359 68.9375L55.6892 69.1564C56.1292 69.4264 56.3756 69.5462 56.7761 69.1619L63.003 63.7828Z" stroke="#333333" stroke-width="0.578251"/>
<path d="M54.7502 68.5761L54.4848 68.4117L54.029 67.9061L55.3444 66.8213C55.5523 66.6499 55.8598 66.6795 56.0313 66.8874C56.2027 67.0952 56.1731 67.4027 55.9653 67.5742L54.7502 68.5761Z" fill="#404040"/>
<rect x="56.0488" y="66.292" width="4.63757" height="0.897734" rx="0.404776" transform="rotate(-39.51 56.0488 66.292)" fill="#404040"/>
<path d="M61.9825 61.4637L62.2302 61.7594L62.2803 62.2449L60.8045 63.4619C60.6357 63.6011 60.3861 63.5771 60.2469 63.4083C60.1077 63.2395 60.1317 62.9899 60.3005 62.8507L61.9825 61.4637Z" fill="#404040"/>
<path d="M48.3423 58.031L47.2566 56.1301L54.6941 51.8358L55.2331 52.7694L55.3291 53.2666L55.7175 53.9139L56.2512 54.333L57.3353 56.1051C57.6043 56.5988 58.1026 56.7204 58.5296 56.8447L58.857 57.2503L50.4574 62.7195L48.3123 59.3158C47.96 58.7438 48.1034 58.4765 48.3389 58.0374L48.3423 58.031Z" fill="#3D3D3D"/>
<path d="M48.3423 58.031L47.2566 56.1301L54.6941 51.8358L55.2331 52.7694L55.3291 53.2666L55.7175 53.9139L56.2512 54.333L57.3353 56.1051C57.6043 56.5988 58.1026 56.7204 58.5296 56.8447L58.857 57.2503L50.4574 62.7195L48.3123 59.3158C47.96 58.7438 48.1034 58.4765 48.3389 58.0374L48.3423 58.031Z" fill="#3D3D3D"/>
<path d="M50.8707 59.1545L52.3977 61.457Z" fill="#383838"/>
<path d="M49.0351 60.4667L50.8707 59.1545L52.3977 61.457L50.456 62.7213L49.0351 60.4667Z" fill="#383838"/>
<path d="M50.8707 59.1545L52.3977 61.457Z" stroke="#333333" stroke-width="0.578251"/>
<path d="M49.0351 60.4667L50.8707 59.1545L52.3977 61.457L50.456 62.7213L49.0351 60.4667Z" stroke="#333333" stroke-width="0.578251"/>
<path d="M49.0364 60.4648L50.872 59.1526L48.4214 55.4574L47.2565 56.13L48.3423 58.0308L48.3388 58.0373C48.1033 58.4764 47.9599 58.7437 48.3122 59.3157L49.0364 60.4648Z" fill="#4D4D4D" stroke="#333333" stroke-width="0.578251"/>
<path d="M54.585 60.0333L50.7285 54.127L52.8375 52.9094L56.6491 58.6894L54.585 60.0333Z" fill="#383838" stroke="#333333" stroke-width="0.578251"/>
<path d="M50.0445 54.5203C50.0501 54.5312 50.0558 54.5423 50.0616 54.5535C50.2246 54.8702 50.4327 55.2744 50.0363 55.636L48.0516 57.5265L47.2545 56.1311L50.0445 54.5203Z" fill="#383838" stroke="#333333" stroke-width="0.578249"/>
<path d="M59.9165 61.8365L61.5299 60.5623L59.9539 58.6095L58.3938 59.8287C58.8538 60.5204 59.348 61.1411 59.9165 61.8365Z" fill="#454545" stroke="#333333" stroke-width="0.578251"/>
<path d="M58.3928 59.8283L59.9529 58.6091L58.857 57.2512L57.4396 58.1741C57.7496 58.7982 58.0624 59.3316 58.3928 59.8283Z" fill="#424242" stroke="#333333" stroke-width="0.578251"/>
<path d="M61.3467 60.7071L53.2827 67.0756L54.488 68.4127L55.3368 68.9385L55.6901 69.1574C56.1301 69.4273 56.3766 69.5471 56.7771 69.1629L63.004 63.7838C63.7328 63.1492 63.305 62.5858 62.3078 62.8617L62.2294 61.7611L61.3467 60.7071Z" stroke="#333333" stroke-width="1.1565"/>
<path d="M57.4361 58.1735C57.7461 58.7976 58.0589 59.331 58.3893 59.8278L56.4175 61.3688C56.0438 60.82 55.6934 60.2326 55.3464 59.5342L57.4361 58.1735Z" fill="#404040" stroke="#333333" stroke-width="0.578251"/>
<path d="M58.3922 59.8293C58.8523 60.521 59.3465 61.1416 59.9149 61.837L57.9622 63.3792C57.3866 62.6763 56.8855 62.0532 56.4204 61.3703L58.3922 59.8293Z" fill="#474747" stroke="#333333" stroke-width="0.578251"/>
<path d="M55.3484 59.5351C55.6954 60.2335 56.0458 60.8209 56.4195 61.3697L54.3865 62.9585C53.9751 62.3567 53.5917 61.7102 53.2109 60.9269L55.3484 59.5351Z" fill="#424242" stroke="#333333" stroke-width="0.578251"/>
<path d="M56.4197 61.3709C56.8848 62.0539 57.3859 62.677 57.9615 63.3799L55.9375 64.9783C55.3595 64.2723 54.855 63.6449 54.3867 62.9597L56.4197 61.3709Z" fill="#454545" stroke="#333333" stroke-width="0.578251"/>
<path d="M53.2126 60.9285L51.1942 62.2427C51.573 63.0233 52.022 63.7481 52.5032 64.4333L54.3882 62.9601C53.9769 62.3582 53.5935 61.7118 53.2126 60.9285Z" fill="#404040" stroke="#333333" stroke-width="0.578251"/>
<path d="M54.3876 62.9581L52.5026 64.4312C53.0027 65.1433 53.5375 65.8124 54.0647 66.4564L55.9383 64.9767C55.3603 64.2707 54.8558 63.6432 54.3876 62.9581Z" fill="#474747" stroke="#333333" stroke-width="0.578251"/>
<path d="M54.8067 63.4712C55.1667 63.2634 55.29 62.8031 55.0822 62.4431C54.8744 62.0831 54.4141 61.9598 54.0541 62.1676C53.6942 62.3755 53.5708 62.8358 53.7786 63.1957C53.9865 63.5557 54.4468 63.679 54.8067 63.4712Z" fill="#383838" stroke="#333333" stroke-width="0.578249"/>
<path d="M58.7872 60.4312C59.1472 60.2233 59.2705 59.763 59.0627 59.4031C58.8548 59.0431 58.3946 58.9198 58.0346 59.1276C57.6746 59.3354 57.5513 59.7957 57.7591 60.1557C57.9669 60.5156 58.4272 60.639 58.7872 60.4312Z" fill="#383838" stroke="#333333" stroke-width="0.578249"/>
<path d="M47.2566 56.1301L48.3423 58.031C48.1048 58.4739 47.9583 58.7409 48.3123 59.3158L53.2283 67.1163L61.5289 60.561L58.5296 56.8447C58.1026 56.7204 57.6043 56.5988 57.3353 56.1051L56.2512 54.3329L55.7175 53.9139L55.3291 53.2666L55.2331 52.7694L54.6941 51.8358" stroke="#333333" stroke-width="1.15668"/>
<path d="M49.7578 59.0146C49.9686 58.8929 50.0408 58.6234 49.9191 58.4126C49.7974 58.2019 49.5279 58.1297 49.3172 58.2514C49.1064 58.373 49.0342 58.6425 49.1559 58.8533C49.2776 59.0641 49.5471 59.1363 49.7578 59.0146Z" fill="#404040"/>
<path d="M36.6152 55.3984C34.9256 57.1937 32.6149 59.0106 31.5439 60.7868L35.2311 64.2874L47.8171 57.1025L47.2565 56.1315L54.694 51.8374C55.3134 51.4873 55.9218 51.5599 56.4446 52.0752L57.7612 51.3201L54.2412 45.2233L36.6152 55.3984Z" fill="#58555D"/>
<path d="M40.8551 52.9516L47.3912 49.1785C46.729 48.5932 45.6094 49.0508 44.0358 49.8006C41.8437 50.8903 41.4783 50.6798 40.7124 50.2384C40.6587 50.2075 40.6022 50.1745 40.545 50.1434C40.2652 49.991 40.0292 49.8625 39.189 50.1647C38.7602 50.3189 38.6338 50.5805 39.275 51.2897L40.8551 52.9516Z" fill="#3F3E42" stroke="#323135" stroke-width="0.578249"/>
<path d="M28.2772 65.8253L20.5773 70.9726L22.4193 73.7281L26.901 70.7321L27.1872 69.2919L29.5422 67.7176L28.2772 65.8253Z" fill="#3F3E42"/>
<path d="M27.1848 69.2914L21.8398 72.8643L22.4168 73.7275L26.8986 70.7316L27.1848 69.2914Z" fill="#37363A"/>
<path d="M28.2772 65.8253L20.5773 70.9726L22.4193 73.7281L26.901 70.7321L27.1872 69.2919L29.5422 67.7176L28.2772 65.8253Z" stroke="#323135" stroke-width="1.1565"/>
<path d="M27.5721 65.4971L26.5061 66.2756L28.4774 69.125L29.7168 68.1818" fill="#4D4D4D" stroke="#333333" stroke-width="0.578249"/>
<path d="M45.1241 60.8408C45.0401 60.1138 45.0868 59.2472 45.3079 58.5355L47.499 57.2847L47.8123 57.8273L46.9159 59.8063L45.1241 60.8408Z" fill="#4C4B4F" stroke="#323135" stroke-width="0.578249"/>
<path d="M31.543 60.7877L35.2301 64.2883L34.1934 65.0029L30.8753 61.918L31.543 60.7877Z" fill="#666666"/>
<path d="M34.224 69.2198C33.8699 68.4273 32.6039 66.1355 30.2027 67.7527L35.2292 64.2882L37.6277 62.919L39.2149 65.6682L37.7425 67.4402L39.821 77.532L40.2069 77.7923C40.3452 77.8657 40.281 77.9456 40.1769 77.9418L35.4168 78.6515C34.8324 77.4784 34.4166 75.8116 34.5226 74.1791C34.5895 73.0943 35.245 71.8201 34.224 69.2198Z" fill="#4D4D4D" stroke="#333333" stroke-width="0.578251"/>
<rect x="36.4316" y="78.4902" width="4.04487" height="0.57825" rx="0.289125" transform="rotate(-30 36.4316 78.4902)" fill="#3B3B3B"/>
<rect x="34.7578" y="78.0518" width="5.3893" height="0.57825" rx="0.289125" transform="rotate(-30 34.7578 78.0518)" fill="#3B3B3B"/>
<rect x="34.623" y="76.6982" width="5.16812" height="0.57825" rx="0.289125" transform="rotate(-30 34.623 76.6982)" fill="#3B3B3B"/>
<rect x="34.5879" y="75.292" width="4.8255" height="0.57825" rx="0.289125" transform="rotate(-30 34.5879 75.292)" fill="#3B3B3B"/>
<rect x="34.334" y="74.0215" width="4.53204" height="0.57825" rx="0.289125" transform="rotate(-30 34.334 74.0215)" fill="#3B3B3B"/>
<rect x="34.8691" y="70.8662" width="3.64876" height="0.57825" rx="0.289125" transform="rotate(-30 34.8691 70.8662)" fill="#3B3B3B"/>
<rect x="34.1562" y="69.9365" width="2.8927" height="0.57825" rx="0.289125" transform="rotate(-30 34.1562 69.9365)" fill="#3B3B3B"/>
<rect x="34.7188" y="72.3701" width="4.03908" height="0.57825" rx="0.289125" transform="rotate(-30 34.7188 72.3701)" fill="#3B3B3B"/>
<path d="M27.5543 65.5888L29.3695 64.4675L30.8758 61.9173L34.1939 65.0022L30.2042 67.7521L29.4382 68.3192L27.5543 65.5888Z" fill="#595959"/>
<path d="M27.5543 65.5888L29.3695 64.4675L30.8758 61.9173L34.1939 65.0022L30.2042 67.7521L29.4382 68.3192L27.5543 65.5888Z" fill="#595959" stroke="#333333" stroke-width="0.578251"/>
<path d="M36.2098 64.121C36.6014 64.5967 37.1745 64.7192 37.6661 64.5348C38.0473 64.3892 38.3333 64.4052 38.5423 64.4965L37.6308 62.9177L35.9863 63.8564L36.2098 64.121Z" fill="#404040"/>
<path d="M35.9865 63.8567L35.9863 63.8564M35.9863 63.8564L37.6308 62.9177L38.5423 64.4965C38.3333 64.4052 38.0473 64.3892 37.6661 64.5348C37.1745 64.7192 36.6014 64.5967 36.2098 64.121L35.9863 63.8564Z" stroke="#333333" stroke-width="0.578249"/>
<path d="M29.3697 64.4666L31.5438 60.786L35.231 64.2867L37.6294 62.9175L39.2167 65.6667L37.7443 67.4387L39.8228 77.5305L40.2087 77.7908C40.3469 77.8641 40.2827 77.9441 40.1787 77.9403L35.4185 78.65C34.8341 77.4768 34.4184 75.81 34.5244 74.1775C34.5912 73.0927 35.2467 71.8186 34.2258 69.2182C33.8717 68.4258 32.6056 66.1339 30.2045 67.7511L29.4385 68.3183L27.5546 65.5879L29.3697 64.4666Z" stroke="#333333" stroke-width="1.1565"/>
<path fill-rule="evenodd" clip-rule="evenodd" d="M22.9274 68.9396L5.80465 80.4995C5.63862 80.5462 5.50162 80.5547 5.38669 80.5618C5.24848 80.5704 5.14218 80.5769 5.05567 80.6457L3.4283 81.7537L0.937487 84.3632C0.672283 84.7174 0.750109 84.9228 1.08433 85.2118C3.0593 86.8814 4.64411 89.0796 6.29783 91.3734C7.14883 92.5538 8.01808 93.7595 8.96814 94.9315C9.41147 95.4784 9.87178 96.0441 10.5548 96.4177C11.3901 96.7958 12.2743 95.8974 12.541 95.3707L15.3088 90.1723C15.452 89.8885 15.9905 89.53 16.5193 89.2258L15.4403 87.316L16.3588 86.7518C16.5942 86.6018 16.6854 86.4588 16.7789 86.1467L18.0738 81.3659C18.2644 80.8071 18.4234 80.5766 19.233 80.1069L23.2591 77.6589C23.9824 77.2207 24.3075 76.7594 24.2843 76.0556L24.0675 73.187L25.2773 72.372L22.9274 68.9396ZM12.6042 88.3658L15.4057 86.7718C15.9326 86.4564 16.2287 86.0511 16.3992 85.4355L17.5525 81.3718C17.7317 80.9236 17.9538 80.6434 18.3705 80.3803L19.9494 79.4213L19.2413 78.1008L9.74328 84.2799L12.6042 88.3658ZM22.5583 77.284L21.9187 76.1762L23.192 75.4411C23.6906 76.2801 23.4951 76.7956 22.5583 77.284Z" fill="#383838"/>
<path d="M15.1912 86.8882C15.1912 86.8882 13.3693 87.9294 12.6021 88.3659L9.74122 84.28L8.37344 85.1698L11.255 88.8641C11.5061 89.2148 11.9189 89.1048 12.3543 88.8534L14.1182 87.835L15.3932 90.0433C15.6073 89.7851 16.0668 89.4853 16.5173 89.2262L15.1912 86.8882Z" fill="#404040"/>
<path d="M8.37549 85.1705L19.2412 78.1017L21.4745 76.3936L24.191 74.8253L24.0674 73.1878L25.2772 72.3728L22.9272 68.9404L5.8045 80.5003C5.63847 80.547 5.50147 80.5555 5.38654 80.5626C5.24833 80.5712 5.14202 80.5778 5.05552 80.6465L4.93132 80.755L8.37549 85.1705Z" fill="#595959"/>
<path d="M8.37384 85.1701L7.32881 83.8303L14.9172 78.6436L14.7843 78.4134L20.3442 74.5703L20.5504 74.8445L24.8878 71.8056L24.9014 71.8254L24.7394 72.7339L24.0661 73.1874L24.1897 74.8249L21.4732 76.3933L19.2397 78.1012L8.37384 85.1701Z" fill="#474747"/>
<path d="M15.3094 90.172C15.3379 90.1179 15.3571 90.0898 15.3963 90.0432L14.1217 87.8355L12.3578 88.8539C11.9224 89.1053 11.5096 89.2154 11.2585 88.8647L4.92075 80.7392L3.77781 81.5175C6.41265 85.3085 10.3452 90.8502 13.1328 94.2627L15.3094 90.172Z" fill="#4D4D4D" stroke="#333333" stroke-width="0.578251"/>
<path fill-rule="evenodd" clip-rule="evenodd" d="M21.4748 76.393L24.1914 74.8246L24.2844 76.0557C24.2987 76.4866 24.1824 76.8266 23.9241 77.126L19.9492 79.4209L19.2418 78.1L21.4748 76.393ZM22.5585 77.2842L21.9189 76.1764L23.1922 75.4412C23.6908 76.2803 23.4953 76.7958 22.5585 77.2842Z" fill="#404040" stroke="#333333" stroke-width="0.578251"/>
<path d="M15.2429 90.2873L14.9375 90.1238C14.4939 89.8239 13.8884 89.9109 13.6508 90.4327L12.9175 91.9819C12.7598 92.4347 13.1422 93.0232 13.4328 93.3324L13.536 93.4278L14.0205 92.5833L15.2429 90.2873Z" fill="#595959" stroke="#333333" stroke-width="0.578249"/>
<path d="M37.1749 56.087C35.4269 57.7612 33.3674 59.9165 32.1473 61.3372L32.1266 61.3399L31.5439 60.7868C32.258 59.6025 33.5231 58.4002 34.7878 57.1983C35.42 56.5975 36.052 55.9967 36.6152 55.3984L54.2412 45.2233L54.6788 45.9811L53.5209 46.6497C53.1332 46.1605 52.5798 46.1801 52.0366 46.4972L44.2236 51.0063C43.6125 51.3601 43.3618 51.9287 43.3748 52.5075L37.1749 56.087Z" fill="#4C4B4F"/>
<path d="M57.2194 50.3791L34.4375 63.5322L35.2322 64.2867L47.8095 57.1068L47.2576 56.1308L54.6951 51.8367C55.3146 51.4866 55.9229 51.5592 56.4457 52.0746L57.7623 51.3194L57.2194 50.3791Z" fill="#4C4B4F"/>
<path d="M46.4668 59.6142C46.6776 59.4925 46.7498 59.223 46.6281 59.0123C46.5064 58.8015 46.2369 58.7293 46.0261 58.851C45.8154 58.9726 45.7432 59.2421 45.8649 59.4529C45.9865 59.6637 46.256 59.7359 46.4668 59.6142Z" fill="#3F3D42"/>
<path d="M44.2228 51.0063C42.2255 52.1626 44.0784 55.6128 46.402 54.2159L52.9486 50.4363L53.2786 50.0731L53.8253 49.7575C54.4211 49.4199 54.6963 48.6412 54.4295 48.1945L53.6311 46.8117C53.2432 46.1595 52.6333 46.1484 52.0358 46.4972" fill="#3F3E42"/>
<path d="M36.7098 61.4444C36.8717 61.3509 36.9271 61.1439 36.8337 60.982C36.7402 60.8201 36.5332 60.7646 36.3713 60.8581C36.2094 60.9516 36.1539 61.1586 36.2474 61.3205C36.3408 61.4824 36.5479 61.5379 36.7098 61.4444Z" fill="#3F3D42"/>
<path d="M56.1805 50.6387C56.3424 50.5452 56.3978 50.3382 56.3044 50.1763C56.2109 50.0144 56.0039 49.959 55.842 50.0524C55.6801 50.1459 55.6246 50.3529 55.7181 50.5148C55.8115 50.6767 56.0186 50.7322 56.1805 50.6387Z" fill="#3E3D42"/>
<path d="M45.9282 55.8066C46.0464 55.7383 46.0869 55.5871 46.0187 55.4688C45.9504 55.3506 45.7992 55.3101 45.6809 55.3783C45.5627 55.4466 45.5221 55.5978 45.5904 55.7161C45.6587 55.8343 45.8099 55.8748 45.9282 55.8066Z" fill="#3F3D42"/>
<path d="M46.3676 56.8525C46.4859 56.7842 46.5264 56.633 46.4581 56.5147C46.3898 56.3965 46.2386 56.356 46.1204 56.4242C46.0021 56.4925 45.9616 56.6437 46.0299 56.762C46.0981 56.8802 46.2494 56.9207 46.3676 56.8525Z" fill="#3F3D42"/>
<path d="M12.6034 88.3672L15.405 86.7731C15.9318 86.4578 16.228 86.0525 16.3984 85.4369L17.5518 81.3732C17.7309 80.925 17.9531 80.6448 18.3697 80.3817L19.9487 79.4227L19.2406 78.1022L9.7425 84.2813L12.6034 88.3672Z" stroke="#333333" stroke-width="1.1565"/>
<path d="M13.2582 94.0238C10.4643 90.7685 6.67228 85.6839 3.77631 81.5171L3.4282 81.7542L0.937387 84.3636C0.672184 84.7178 0.750009 84.9232 1.08423 85.2122C3.0592 86.8818 4.64401 89.08 6.29773 91.3738C7.14873 92.5542 8.01798 93.7599 8.96804 94.9319C9.41137 95.4788 9.87168 96.0445 10.5547 96.4181C11.39 96.7962 12.2742 95.8978 12.5409 95.3711L13.2582 94.0238Z" fill="#404040" stroke="#333333" stroke-width="0.578251"/>
<path d="M36.6152 55.3984C34.9256 57.1937 32.6149 59.0106 31.5439 60.7868L35.2311 64.2874L47.8171 57.1025L47.2565 56.1315L54.694 51.8374C55.3134 51.4873 55.9218 51.5599 56.4446 52.0752L57.7612 51.3201L54.2412 45.2233L36.6152 55.3984Z" stroke="#323135" stroke-width="1.15668"/>
<path d="M23.6485 72.6988C23.559 72.5665 23.3793 72.5318 23.247 72.6213L20.9504 74.1749C20.8182 74.2644 20.7835 74.4441 20.873 74.5764L20.9305 74.6614C21.02 74.7936 21.1997 74.8283 21.332 74.7389L23.6285 73.1853C23.7608 73.0958 23.7955 72.916 23.706 72.7838L23.6485 72.6988Z" fill="#474747"/>
<path d="M11.627 80.8316C11.5375 80.6993 11.3578 80.6646 11.2255 80.7541L8.92896 82.3077C8.7967 82.3972 8.76201 82.5769 8.85149 82.7092L8.909 82.7942C8.99847 82.9265 9.17822 82.9611 9.31047 82.8717L11.607 81.3181C11.7393 81.2286 11.774 81.0488 11.6845 80.9166L11.627 80.8316Z" fill="#474747"/>
<path d="M14.6329 78.7974C14.5434 78.6651 14.3637 78.6304 14.2314 78.7199L11.9348 80.2735C11.8026 80.363 11.7679 80.5427 11.8573 80.675L11.9149 80.76C12.0043 80.8923 12.1841 80.927 12.3163 80.8375L14.6129 79.2839C14.7452 79.1944 14.7799 79.0147 14.6904 78.8824L14.6329 78.7974Z" fill="#474747"/>
<path d="M11.157 80.0238C11.3975 79.885 11.4799 79.5774 11.3411 79.3369C11.2022 79.0964 10.8947 79.014 10.6542 79.1529C10.4137 79.2917 10.3313 79.5993 10.4702 79.8398C10.609 80.0803 10.9165 80.1627 11.157 80.0238Z" fill="#404040"/>
<path d="M10.4275 80.1261C10.6331 80.3079 10.9309 80.3598 11.1903 80.2469C11.2011 80.3498 11.1563 80.4551 11.0647 80.5171L8.76813 82.0707C8.63587 82.1602 8.45612 82.1255 8.36665 81.9932L8.30914 81.9082C8.21967 81.7759 8.25435 81.5962 8.38661 81.5067L10.4275 80.1261Z" fill="#474747"/>
<path d="M11.4589 80.0441C11.6174 79.8513 11.6668 79.5851 11.5806 79.3448L13.6874 77.9196C13.8196 77.8301 13.9994 77.8648 14.0888 77.9971L14.1464 78.0821C14.2358 78.2143 14.2011 78.3941 14.0689 78.4836L11.7723 80.0372C11.6753 80.1028 11.5526 80.1016 11.4589 80.0441Z" fill="#474747"/>
<path d="M13.1452 77.119C13.2774 77.0295 13.4572 77.0642 13.5467 77.1964L13.6042 77.2815C13.6936 77.4137 13.659 77.5935 13.5267 77.6829L11.4321 79.0999C11.2524 78.9042 10.9778 78.8242 10.7223 78.8905C10.7287 78.8055 10.7725 78.7241 10.8486 78.6726L13.1452 77.119Z" fill="#474747"/>
<path d="M10.2556 79.8976C10.1284 79.6323 10.1782 79.3217 10.3665 79.1097C10.2916 79.0931 10.2103 79.1061 10.1418 79.1525L7.84523 80.7061C7.71297 80.7955 7.67828 80.9753 7.76775 81.1075L7.82526 81.1926C7.91474 81.3248 8.09448 81.3595 8.22674 81.27L10.2556 79.8976Z" fill="#474747"/>
<path d="M15.6863 76.9847C15.9268 76.8459 16.0092 76.5384 15.8704 76.2979C15.7315 76.0574 15.424 75.975 15.1835 76.1138C14.943 76.2527 14.8606 76.5602 14.9995 76.8007C15.1383 77.0412 15.4458 77.1236 15.6863 76.9847Z" fill="#404040"/>
<path d="M16.104 76.2867C16.2327 76.6126 16.1068 76.9923 15.7942 77.1728C15.5124 77.3355 15.1662 77.2858 14.9411 77.0733L14.3999 77.4395C14.2677 77.5289 14.233 77.7087 14.3224 77.8409L14.38 77.9259C14.4694 78.0582 14.6492 78.0929 14.7814 78.0034L17.078 76.4498C17.2103 76.3603 17.2449 76.1806 17.1555 76.0483L17.098 75.9633C17.0085 75.8311 16.8287 75.7964 16.6965 75.8859L16.104 76.2867Z" fill="#474747"/>
<path d="M16.1516 75.0851C16.2838 74.9956 16.4636 75.0303 16.553 75.1625L16.6106 75.2476C16.7 75.3798 16.6653 75.5596 16.5331 75.649L15.9454 76.0466C15.7212 75.8174 15.3624 75.7595 15.072 75.9272C14.7509 76.1125 14.6269 76.508 14.7732 76.8396L14.2365 77.2026C14.1042 77.2921 13.9245 77.2574 13.835 77.1252L13.7775 77.0402C13.688 76.9079 13.7227 76.7281 13.855 76.6387L16.1516 75.0851Z" fill="#474747"/>
<path d="M20.2137 73.9047C20.4542 73.7658 20.5366 73.4583 20.3977 73.2178C20.2589 72.9773 19.9514 72.8949 19.7109 73.0337C19.4704 73.1726 19.388 73.4801 19.5268 73.7206C19.6657 73.9611 19.9732 74.0435 20.2137 73.9047Z" fill="#404040"/>
<path d="M19.3073 73.7732C19.1892 73.5194 19.2318 73.2256 19.4016 73.0167C19.3211 72.9922 19.2306 73.003 19.1555 73.0538L16.8589 74.6074C16.7266 74.6969 16.692 74.8766 16.7814 75.0089L16.8389 75.0939C16.9284 75.2262 17.1082 75.2609 17.2404 75.1714L19.3073 73.7732Z" fill="#474747"/>
<path d="M19.4799 74.0023C19.6748 74.1789 19.9554 74.2369 20.2072 74.1455C20.2187 74.2488 20.1739 74.3549 20.0818 74.4172L17.7853 75.9708C17.653 76.0602 17.4733 76.0255 17.3838 75.8933L17.3263 75.8083C17.2368 75.676 17.2715 75.4963 17.4038 75.4068L19.4799 74.0023Z" fill="#474747"/>
<path d="M20.4926 73.9551C20.6722 73.7587 20.7306 73.4742 20.6361 73.22L22.7042 71.821C22.8365 71.7315 23.0162 71.7662 23.1057 71.8985L23.1632 71.9835C23.2527 72.1157 23.218 72.2955 23.0858 72.385L20.7892 73.9386C20.6979 74.0003 20.5839 74.0029 20.4926 73.9551Z" fill="#474747"/>
<path d="M22.1597 71.0192C22.2919 70.9297 22.4717 70.9644 22.5612 71.0967L22.6187 71.1817C22.7081 71.3139 22.6735 71.4937 22.5412 71.5832L20.4826 72.9758C20.293 72.7741 20.0014 72.6987 19.7373 72.7845C19.7453 72.7017 19.7888 72.623 19.8631 72.5728L22.1597 71.0192Z" fill="#474747"/>
<path d="M22.9274 68.9396L5.80465 80.4995C5.43895 80.6024 5.21411 80.5198 5.05567 80.6457L3.4283 81.7537L0.937487 84.3632C0.672283 84.7174 0.750109 84.9228 1.08433 85.2118C4.07562 87.7406 6.17189 91.482 8.96814 94.9315C9.41147 95.4784 9.87178 96.0441 10.5548 96.4177C11.3901 96.7958 12.2743 95.8974 12.541 95.3707L15.3088 90.1723C15.452 89.8885 15.9905 89.53 16.5193 89.2258L15.4403 87.316L16.3588 86.7518C16.5942 86.6018 16.6854 86.4588 16.7789 86.1467L18.0738 81.3659C18.2644 80.8071 18.4234 80.5766 19.233 80.1069L23.2591 77.6589C23.9824 77.2207 24.3075 76.7594 24.2843 76.0556L24.0675 73.187L25.2773 72.372L22.9274 68.9396Z" stroke="#333333" stroke-width="1.1565"/>
<path d="M18.2767 84.4957C18.2937 85.1643 18.7901 85.0864 19.1434 85.0317L19.6025 81.8202C19.6645 81.1237 20.1555 80.4351 21.092 79.8519L22.2528 79.1814L21.803 78.4044C20.7547 79.0211 19.8419 79.5052 18.93 79.9062C18.5626 80.0697 18.5004 80.3279 18.4775 80.6105L18.2767 84.4957Z" fill="#4D4D4D" stroke="#333333" stroke-width="0.578249"/>
<path d="M22.2798 79.9603C22.6064 79.7718 22.7182 79.3542 22.5297 79.0277C22.3412 78.7011 21.9236 78.5893 21.5971 78.7778C21.2706 78.9663 21.1587 79.3839 21.3472 79.7104C21.5357 80.0369 21.9533 80.1488 22.2798 79.9603Z" fill="#4D4D4D" stroke="#333333" stroke-width="0.578249"/>
<path d="M15.3491 80.6338L15.4396 80.9629C15.4833 81.132 15.5158 81.3023 15.5104 81.4711C15.5085 81.525 15.5029 81.5791 15.4923 81.6328C15.4495 81.8538 15.3256 82.0714 15.0578 82.2788L10.5901 85.4875L10.5983 85.4992L15.0666 82.2906C15.3366 82.0806 15.4629 81.8604 15.5066 81.6356C15.5504 81.4115 15.5116 81.1835 15.4536 80.9594L15.3619 80.6255L15.3491 80.6338Z" fill="#404040" stroke="#333333" stroke-width="0.578251"/>
<path d="M10.7177 85.7354C11.2621 85.421 11.4486 84.7249 11.1343 84.1805C10.82 83.6361 10.1239 83.4496 9.57949 83.7639C9.03508 84.0782 8.84855 84.7743 9.16286 85.3187C9.47718 85.8631 10.1733 86.0497 10.7177 85.7354Z" fill="#404040" stroke="#333333" stroke-width="0.578251"/>
<rect x="51.3711" y="48.5879" width="2.84622" height="0.57825" transform="rotate(-30 51.3711 48.5879)" fill="#37363A"/>
<path d="M44.2228 51.0063C42.2255 52.1626 44.0784 55.6128 46.402 54.2159L52.9486 50.4363L53.2786 50.0731L53.8253 49.7575C54.4211 49.4199 54.6963 48.6412 54.4295 48.1945L53.6311 46.8117C53.2432 46.1595 52.6333 46.1484 52.0358 46.4972" stroke="#323135" stroke-width="1.1565"/>
<path d="M39.9125 64.0715C39.5161 63.385 39.7998 62.4704 40.3795 61.5519L39.5561 62.0273C39.3268 63.0284 39.5235 63.8409 39.7786 64.1488C40.2465 64.7136 40.5916 64.8482 41.187 64.8486C41.2044 64.8486 41.2061 64.8261 41.189 64.8233C40.698 64.7436 40.3688 64.7215 39.9125 64.0715Z" fill="#37363A" stroke="#323135" stroke-width="0.578251"/>
<path fill-rule="evenodd" clip-rule="evenodd" d="M37.6289 62.9189L45.307 58.5358C45.0096 59.4933 45.0277 60.7314 45.2555 61.5324C45.5079 62.3563 45.5551 63.4646 44.2668 64.1887L41.8201 65.6013C41.0713 65.9767 39.5243 66.1733 38.7222 64.8126L37.6289 62.9189ZM38.8741 64.4239C39.5511 65.8088 40.8385 65.8101 41.5873 65.4346L44.034 64.0221C44.8649 63.5423 45.1727 62.9242 45.087 62.121C44.8527 60.3885 43.0849 60.1172 42.4212 60.5183L39.5106 62.1825C38.8314 62.5567 38.6713 64.0726 38.8741 64.4239Z" fill="#3F3E42" stroke="#323135" stroke-width="0.578251"/>
<path d="M32.4827 59.5258C33.1517 58.7533 33.9696 57.976 34.7873 57.1989C34.8333 57.1551 34.8794 57.1113 34.9255 57.0676L34.4379 56.6852L32.8738 57.5977L32.0389 59.1253L32.4827 59.5258Z" fill="#3F3E42" stroke="#323135" stroke-width="0.578249"/>
<path d="M51.1936 62.2418C51.5725 63.0224 52.0215 63.7472 52.5026 64.4324L51.8546 64.9388L50.4571 62.7214L51.1936 62.2418Z" fill="#424242" stroke="#333333" stroke-width="0.578251"/>
<path d="M52.5042 64.4326C53.0043 65.1447 53.5392 65.8138 54.0663 66.4578L53.2296 67.1185L51.8561 64.9391L52.5042 64.4326Z" fill="#454545" stroke="#333333" stroke-width="0.578251"/>
</g>
<defs>
<clipPath id="clip0_2940_3887">
<rect width="110" height="110" fill="white"/>
</clipPath>
</defs>
</svg>
