<?xml version="1.0" encoding="UTF-8" standalone="no"?>
<svg
   id="Layer_1"
   data-name="Layer 1"
   width="159.34457"
   height="45.074314"
   viewBox="0 0 159.34458 45.074315"
   version="1.1"
   sodipodi:docname="mg5_world.svg"
   inkscape:version="1.3.2 (1:1.3.2+202311252150+091e20ef0f)"
   xmlns:inkscape="http://www.inkscape.org/namespaces/inkscape"
   xmlns:sodipodi="http://sodipodi.sourceforge.net/DTD/sodipodi-0.dtd"
   xmlns="http://www.w3.org/2000/svg"
   xmlns:svg="http://www.w3.org/2000/svg">
  <sodipodi:namedview
     id="namedview1"
     pagecolor="#ffffff"
     bordercolor="#000000"
     borderopacity="0.25"
     inkscape:showpageshadow="2"
     inkscape:pageopacity="0.0"
     inkscape:pagecheckerboard="0"
     inkscape:deskcolor="#d1d1d1"
     inkscape:zoom="1.0686077"
     inkscape:cx="104.34138"
     inkscape:cy="-119.31413"
     inkscape:window-width="2560"
     inkscape:window-height="1368"
     inkscape:window-x="0"
     inkscape:window-y="0"
     inkscape:window-maximized="1"
     inkscape:current-layer="Layer_1" />
  <defs
     id="defs1">
    <style
       id="style1">
      .cls-1 {
        fill: #373430;
        stroke: #191716;
        stroke-width: 1.5px;
      }

      .cls-2 {
        fill: #191716;
      }

      .cls-3 {
        fill: #3d3e42;
        stroke: #161719;
      }

      .cls-3, .cls-4, .cls-5, .cls-6, .cls-7, .cls-8, .cls-9 {
        stroke-width: 3px;
      }

      .cls-4, .cls-5, .cls-8 {
        fill: #4e4a41;
      }

      .cls-4, .cls-6 {
        stroke: #181816;
      }

      .cls-5, .cls-9 {
        stroke: #1a1915;
      }

      .cls-6 {
        fill: #5e5d5a;
      }

      .cls-7 {
        fill: #676159;
        stroke: #191816;
      }

      .cls-8 {
        stroke: #191815;
      }

      .cls-8, .cls-9 {
        stroke-linecap: round;
      }

      .cls-9 {
        fill: #615c51;
      }
    </style>
  </defs>
  <rect
     style="fill:#5c5e28;fill-opacity:1;stroke:#20200e;stroke-width:3;stroke-linecap:round;stroke-linejoin:round;stroke-dasharray:none;stroke-opacity:1"
     id="rect3-8"
     width="24.16571"
     height="42.074314"
     x="56.287914"
     y="1.5"
     rx="4.0262837"
     ry="17.393551" />
  <path
     class="st0"
     d="m 156.91044,24.85572 -0.84917,0.50095 c -0.0425,0.0278 -0.0849,0.0278 -0.12741,0.0278 H 56.450466 c -0.16984,0 -0.29722,-0.16698 -0.29722,-0.3618 v -5.67746 c 0,-0.19482 0.12738,-0.3618 0.29722,-0.3618 h 99.164954 c 0.0637,0 0.10614,0.0278 0.14861,0.0557 l 0.91288,0.7236 c 0.0425,0.0278 0.10617,0.0557 0.14862,0.0557 h 0.72181 c 0.16985,0 0.29723,0.16698 0.29723,0.3618 v 4.28593 c 0,0.19481 -0.12738,0.3618 -0.29723,0.3618 h -0.53073 c -0.0211,0 -0.0637,0 -0.10617,0.0278 z"
     id="path2-1-9"
     style="fill:#4a4541;stroke:#191815;stroke-width:3;stroke-miterlimit:10;stroke-dasharray:none;stroke-opacity:1" />
  <rect
     style="fill:#8d7b55;fill-opacity:1;stroke:#21190d;stroke-width:3;stroke-linecap:round;stroke-linejoin:round;stroke-dasharray:none;stroke-opacity:1"
     id="rect43-5"
     width="35.43684"
     height="19.260305"
     x="23.552841"
     y="12.813118"
     rx="0"
     ry="5.5116224" />
  <rect
     style="fill:#bea26d;fill-opacity:1;stroke:#21190d;stroke-width:3;stroke-linecap:round;stroke-linejoin:round;stroke-dasharray:none;stroke-opacity:1"
     id="rect44-2"
     width="30.882032"
     height="18.156328"
     x="52.810425"
     y="13.375618"
     rx="0"
     ry="0" />
  <path
     id="rect44-7-2"
     style="fill:#bea26d;stroke:#21190d;stroke-width:3;stroke-linecap:round;stroke-linejoin:round;stroke-dasharray:none;stroke-opacity:1"
     d="m 94.019846,13.47302 v 0.003 h -10.32739 v 17.96034 h 10.40073 v -0.0102 L 107.89828,29.70308 V 14.92531 L 94.093186,13.48064 v -0.005 h -0.0418 z" />
  <rect
     style="fill:#8d7b55;fill-opacity:1;stroke:#1e1710;stroke-width:3;stroke-linecap:round;stroke-linejoin:round;stroke-dasharray:none;stroke-opacity:1"
     id="rect42-3"
     width="55.698193"
     height="10.813"
     x="1.5"
     y="16.925453"
     rx="0"
     ry="0" />
  <rect
     style="fill:#4f4b46;fill-opacity:1;stroke:#171717;stroke-width:1.5;stroke-linecap:round;stroke-linejoin:round;stroke-dasharray:none;stroke-opacity:1"
     id="rect40-5-7"
     width="4.8606606"
     height="11.798823"
     x="20.301361"
     y="16.432541"
     rx="0"
     ry="0" />
  <rect
     style="fill:#4a4541;fill-opacity:1;stroke:#191815;stroke-width:3;stroke-linecap:round;stroke-linejoin:round;stroke-dasharray:none;stroke-opacity:1"
     id="rect45-9"
     width="88.95388"
     height="7.6287479"
     x="48.219742"
     y="18.502861"
     rx="0"
     ry="0" />
  <path
     style="fill:#4a4541;stroke:#191815;stroke-width:3;stroke-linecap:square;stroke-linejoin:miter;stroke-dasharray:none;stroke-opacity:1"
     d="m 81.878116,18.57896 c -0.14808,7.25021 0,6.95628 0,6.95628 z"
     id="path8-0" />
  <path
     style="fill:#4a4541;stroke:#191815;stroke-width:3;stroke-linecap:square;stroke-linejoin:miter;stroke-dasharray:none;stroke-opacity:1"
     d="m 86.963916,18.57896 c -0.14808,7.2502 0,6.95628 0,6.95628 z"
     id="path8-5-2" />
  <path
     style="fill:#4a4541;stroke:#191815;stroke-width:3;stroke-linecap:square;stroke-linejoin:miter;stroke-dasharray:none;stroke-opacity:1"
     d="m 103.61755,18.21005 c -0.14808,7.2502 0,6.95628 0,6.95628 z"
     id="path8-54-3" />
  <path
     style="fill:#4a4541;stroke:#191815;stroke-width:3;stroke-linecap:square;stroke-linejoin:miter;stroke-dasharray:none;stroke-opacity:1"
     d="m 109.35073,18.29545 c -0.14808,7.2502 0,6.95628 0,6.95628 z"
     id="path8-5-1-9" />
  <path
     style="fill:#4a4541;stroke:#191815;stroke-width:3;stroke-linecap:square;stroke-linejoin:miter;stroke-dasharray:none;stroke-opacity:1"
     d="m 115.32566,18.23285 c -0.14808,7.2502 0,6.95628 0,6.95628 z"
     id="path8-8-9" />
  <path
     style="fill:#4a4541;stroke:#191815;stroke-width:3;stroke-linecap:square;stroke-linejoin:miter;stroke-dasharray:none;stroke-opacity:1"
     d="m 121.05883,18.31825 c -0.14808,7.2502 0,6.95628 0,6.95628 z"
     id="path8-5-8-7" />
  <rect
     style="fill:#4a4541;stroke:#171717;stroke-width:1.5;stroke-linecap:round;stroke-linejoin:round;stroke-dasharray:none;stroke-opacity:1"
     id="rect8-0"
     width="4.9693189"
     height="2.0765722"
     x="129.15184"
     y="21.301743"
     rx="0.8234278"
     ry="0.44918698" />
  <rect
     style="fill:#4a4541;fill-opacity:1;stroke:#171717;stroke-width:1.5;stroke-linecap:round;stroke-linejoin:round;stroke-dasharray:none;stroke-opacity:1"
     id="rect45-7-3"
     width="11.438267"
     height="13.554715"
     x="32.643646"
     y="15.665916"
     rx="0.11630496"
     ry="0.70513165" />
  <path
     id="rect1-7"
     style="fill:#4f4b46;fill-opacity:1;stroke:#171717;stroke-width:1.5;stroke-linecap:round;stroke-linejoin:round;stroke-dasharray:none;stroke-opacity:1"
     d="m 28.916366,16.08078 6.51917,3.40972 v 6.16999 l -6.51917,2.92262 z"
     sodipodi:nodetypes="ccccc" />
  <rect
     style="fill:#957840;fill-opacity:1;stroke:#211b0d;stroke-width:1.5;stroke-linecap:round;stroke-linejoin:round;stroke-dasharray:none;stroke-opacity:1"
     id="rect41-83-9"
     width="9.6865091"
     height="12.113812"
     x="33.942688"
     y="16.275047"
     rx="0"
     ry="0" />
  <rect
     style="fill:#b7944f;fill-opacity:1;stroke:none;stroke-width:1.39086;stroke-linecap:round;stroke-linejoin:round;stroke-dasharray:none;stroke-opacity:1"
     id="rect2-8"
     width="8.1892023"
     height="4.3951378"
     x="34.691341"
     y="20.245697"
     rx="0"
     ry="0" />
</svg>
