<svg width="110" height="110" viewBox="0 0 110 110" fill="none" xmlns="http://www.w3.org/2000/svg">
<g clip-path="url(#clip0_619_1200)">
<rect x="16.8633" y="85.8457" width="0.616325" height="3.08162" rx="0.308162" transform="rotate(-30 16.8633 85.8457)" fill="#4E4D55" stroke="#303036" stroke-width="0.501392"/>
<path d="M105.393 16.0154L94.7717 22.1478L93.8164 20.4932L104.438 14.3607L105.393 16.0154Z" fill="#63606B"/>
<path d="M106.903 18.6304L105.393 16.015L94.7715 22.1475L98.038 27.8052L99.5325 26.9424L99.024 26.0617C99.2221 25.9117 99.3253 25.5783 99.2342 25.1931L98.2343 22.1053C98.1798 21.8877 98.4219 21.3209 98.7689 21.1206L99.8631 20.4888C99.8631 20.4888 100.077 20.3656 100.253 20.5483C100.518 20.8223 100.678 20.7298 100.918 20.5912C101.159 20.4525 101.319 20.36 101.214 19.9936C101.144 19.7492 101.358 19.626 101.358 19.626L103.306 18.5012C103.493 18.3933 104.053 18.3902 104.701 18.5141C105.349 18.6379 106.049 19.1235 106.049 19.1235L106.903 18.6304Z" fill="#65636E"/>
<rect x="104.562" y="14.5732" width="1.47918" height="2.4653" transform="rotate(-30 104.562 14.5732)" fill="#504E56" stroke="#313036" stroke-width="1.00278"/>
<path d="M106.131 17.2959L107.086 18.9505L108.154 18.3342C108.272 18.2661 108.312 18.1154 108.244 17.9974L107.535 16.7698C107.467 16.6519 107.316 16.6115 107.198 16.6796L106.131 17.2959Z" fill="#5C5A63"/>
<path d="M106.131 17.2959L105.88 16.8617L105.446 17.1124L105.697 17.5466L106.131 17.2959ZM107.086 18.9505L106.652 19.2012L106.903 19.6354L107.337 19.3848L107.086 18.9505ZM107.52 18.6998L106.565 17.0452L105.697 17.5466L106.652 19.2012L107.52 18.6998ZM107.81 18.2481C107.739 18.1262 107.781 17.9704 107.903 17.9L108.404 18.7684C108.762 18.5619 108.885 18.1045 108.678 17.7467L107.81 18.2481ZM107.101 17.0205L107.81 18.2481L108.678 17.7467L107.969 16.5191L107.101 17.0205ZM107.449 17.1138C107.327 17.1842 107.171 17.1424 107.101 17.0205L107.969 16.5191C107.763 16.1614 107.305 16.0388 106.948 16.2454L107.449 17.1138ZM106.382 17.7301L107.449 17.1138L106.948 16.2454L105.88 16.8617L106.382 17.7301ZM107.903 17.9L106.835 18.5163L107.337 19.3848L108.404 18.7684L107.903 17.9Z" fill="#313036"/>
<path d="M51.2695 45.4131L93.9698 20.7601L95.2949 23.0552L79.1488 32.3771L53.1185 48.6156L51.2695 45.4131Z" fill="#5C5A63" stroke="#313036" stroke-width="1.00278"/>
<path d="M23.7851 66.8329C22.678 67.4423 0.99505 83.6914 0.99505 83.6914C0.81016 83.8359 0.7971 84.0966 0.859696 84.1966L8.25529 96.0816C8.33233 96.2151 8.64956 96.2098 8.75219 96.0794L26.5383 75.6693C26.759 75.4351 27.4908 74.977 27.9261 74.8681L32.8586 73.5503C32.2161 70.8967 32.3029 68.863 33.173 66.857C33.9144 65.148 35.5699 63.5161 37.8688 61.3348L33.1488 56.3027C31.5584 58.046 30.7915 59.1226 29.8487 61.1259C28.8436 63.2614 28.084 64.8491 26.8564 65.5578C26.1625 65.9584 25.1082 66.1046 23.7851 66.8329Z" fill="#714225" stroke="#4E2E18" stroke-width="1.00278"/>
<path d="M8.90128 95.9069L0.994164 83.691C0.809274 83.8355 0.796209 84.0962 0.858805 84.1962L8.2544 96.0813C8.33144 96.2147 8.64867 96.2095 8.7513 96.079L8.90128 95.9069Z" fill="#504E56" stroke="#313036" stroke-width="1.00278"/>
<path d="M37.8683 61.335L33.1482 56.3029C34.3541 55.0018 36.0261 53.6451 36.373 53.4448L50.811 45.109C50.9289 45.0409 51.0797 45.0813 51.1478 45.1992L54.6916 51.3374C54.7597 51.4553 54.7193 51.606 54.6014 51.6741L53.0002 52.5986L52.8615 52.3584C52.7253 52.1226 52.4238 52.0418 52.1879 52.1779L45.7295 55.9067C45.4937 56.0429 45.4129 56.3444 45.5491 56.5802L45.6877 56.8204L37.8683 61.335Z" fill="#6A6873"/>
<circle cx="36.0512" cy="56.5851" r="0.400611" transform="rotate(-30 36.0512 56.5851)" fill="#797683" stroke="#313036" stroke-width="0.501392"/>
<circle cx="37.4594" cy="58.9015" r="0.400611" transform="rotate(-30 37.4594 58.9015)" fill="#797683" stroke="#313036" stroke-width="0.501392"/>
<circle cx="45.8422" cy="54.5617" r="0.400611" transform="rotate(-30 45.8422 54.5617)" fill="#797683" stroke="#313036" stroke-width="0.501392"/>
<path fill-rule="evenodd" clip-rule="evenodd" d="M36.9924 62.1702C37.2722 61.9007 37.5637 61.623 37.8663 61.3358L44.2659 57.6411C43.4366 58.5609 43.1405 59.6237 43.3954 60.0652L43.5187 60.2787C43.9193 60.9725 43.7903 62.0434 43.314 62.3895C42.7451 62.803 41.8967 63.3279 41.2591 63.5759C40.1258 64.0167 39.1606 63.5776 38.8987 63.1239L38.6676 62.7236C38.4673 62.3767 37.5545 62.0471 36.9924 62.1702ZM43.0033 60.4339C43.3885 61.1011 43.1332 62.138 41.9969 62.7585C41.9538 62.782 41.911 62.8056 41.8685 62.829C41.4227 63.0743 41.004 63.3047 40.6081 63.3112C39.9736 63.3217 39.5247 63.1895 39.2753 62.7286C39.0111 62.2406 39.0627 61.7749 39.2882 61.3334C39.5136 60.8918 39.9131 60.4744 40.5937 60.0815C41.1931 59.7354 41.6588 59.6569 42.0216 59.7196C42.4959 59.8016 42.7877 60.0605 43.0033 60.4339Z" fill="#504F57"/>
<path d="M39.1459 61.7013C39.1786 61.5765 39.2274 61.4535 39.2893 61.3323C39.4865 60.9462 39.8167 60.5785 40.3515 60.2296C39.7862 60.9454 39.7644 61.5072 39.9343 61.9562C40.0669 62.3067 40.1778 62.5629 40.6224 62.84C40.7891 62.9438 40.6268 63.2173 40.4901 63.1654C40.0181 62.9862 39.7384 62.8456 39.5166 62.5888C39.3252 62.3671 39.2296 62.0884 39.1459 61.7013Z" fill="#3F3E44" stroke="#313036" stroke-width="0.501392"/>
<path d="M41.5566 59.2051C42.0607 59.2944 42.3433 59.4579 42.8008 60.0168L43.1211 59.8319C43.0707 59.3119 43.1628 59.0402 43.5437 58.5916L43.0123 58.3646L41.5566 59.2051Z" fill="#45444B"/>
<rect x="53.2441" y="48.8281" width="33.6513" height="2.6502" transform="rotate(-30 53.2441 48.8281)" fill="#4D4B53" stroke="#313036" stroke-width="1.00278"/>
<rect x="64.7051" y="40.5752" width="18.3665" height="5.23876" transform="rotate(-30 64.7051 40.5752)" fill="#714225"/>
<path d="M80.6113 31.3906C81.3586 30.9592 81.6667 31.493 81.9749 32.0267L83.3616 34.4286C83.639 34.909 83.978 35.4961 83.2307 35.9275L80.6113 31.3906Z" fill="#65636E" stroke="#313036" stroke-width="0.501392"/>
<path d="M64.5883 41.8527C64.2648 41.2922 64.0645 40.9453 64.705 40.5755L67.3243 45.1124C66.6838 45.4822 66.5143 45.1886 66.314 44.8417L64.5883 41.8527Z" fill="#65636E" stroke="#313036" stroke-width="0.501392"/>
<path d="M65.3457 40.2044L65.1855 40.2969L67.8049 44.8338L67.9651 44.7413L65.3457 40.2044Z" fill="#613920"/>
<path d="M68.9525 44.1712L68.7924 44.2637L66.173 39.7268L66.3331 39.6343L68.9525 44.1712Z" fill="#613920"/>
<path d="M69.9399 43.6011L69.7798 43.6936L67.1604 39.1567L67.3206 39.0642L69.9399 43.6011Z" fill="#613920"/>
<path d="M70.9274 43.031L70.7673 43.1235L68.1479 38.5866L68.308 38.4941L70.9274 43.031Z" fill="#613920"/>
<path d="M71.9148 42.4609L71.7547 42.5534L69.1353 38.0165L69.2954 37.924L71.9148 42.4609Z" fill="#613920"/>
<path d="M72.9023 41.8908L72.7421 41.9833L70.1228 37.4464L70.2829 37.3539L72.9023 41.8908Z" fill="#613920"/>
<path d="M73.8897 41.3207L73.7296 41.4132L71.1102 36.8763L71.2703 36.7838L73.8897 41.3207Z" fill="#613920"/>
<path d="M74.8772 40.7506L74.717 40.8431L72.0976 36.3062L72.2578 36.2137L74.8772 40.7506Z" fill="#613920"/>
<path d="M75.8646 40.1805L75.7045 40.273L73.0851 35.7361L73.2452 35.6436L75.8646 40.1805Z" fill="#613920"/>
<path d="M76.852 39.6104L76.6919 39.7029L74.0725 35.166L74.2327 35.0735L76.852 39.6104Z" fill="#613920"/>
<path d="M77.8395 39.0403L77.6794 39.1328L75.06 34.5959L75.2201 34.5034L77.8395 39.0403Z" fill="#613920"/>
<path d="M78.8269 38.4702L78.6668 38.5627L76.0474 34.0258L76.2075 33.9333L78.8269 38.4702Z" fill="#613920"/>
<path d="M79.8144 37.9001L79.6542 37.9926L77.0349 33.4557L77.195 33.3632L79.8144 37.9001Z" fill="#613920"/>
<path d="M80.8018 37.33L80.6417 37.4225L78.0223 32.8856L78.1824 32.7931L80.8018 37.33Z" fill="#613920"/>
<path d="M81.7893 36.7599L81.6291 36.8524L79.0097 32.3155L79.1699 32.223L81.7893 36.7599Z" fill="#613920"/>
<path d="M82.7767 36.1898L82.6166 36.2823L79.9972 31.7454L80.1573 31.6529L82.7767 36.1898Z" fill="#613920"/>
<rect x="82.168" y="31.6289" width="4.06774" height="3.45142" transform="rotate(-30 82.168 31.6289)" fill="#56545E" stroke="#313036" stroke-width="0.501392"/>
<rect x="81.5996" y="30.3936" width="1.47918" height="4.80733" transform="rotate(-30 81.5996 30.3936)" fill="#5E5C67" stroke="#313036" stroke-width="0.501392"/>
<path d="M85.2617 28.8477L86.8642 31.6232L87.7182 31.1301L86.9169 29.7424C86.9169 29.7424 86.732 29.4221 86.9125 28.7486C87.093 28.075 87.7027 27.6519 87.7027 27.6519L87.6102 27.4917L85.2617 28.8477Z" fill="#54535C" stroke="#313036" stroke-width="0.501392"/>
<path d="M97.5312 26.9248L99.0258 26.062L99.5342 26.9426L98.0397 27.8055L97.5312 26.9248Z" fill="#6D6B76"/>
<path d="M97.206 26.3634L95.6035 23.5879L98.2286 22.0723C98.2299 22.0837 98.2318 22.0945 98.2343 22.1046L99.2342 25.1924L97.206 26.3634Z" fill="#5F5C66"/>
<path d="M33.1482 56.3029L37.8683 61.335C37.5656 61.6222 37.2741 61.8998 36.9944 62.1694C37.5564 62.0463 38.4692 62.3758 38.6695 62.7228L38.9006 63.1231C39.1625 63.5768 40.1277 64.0159 41.261 63.5751C41.8987 63.327 42.747 62.8021 43.3159 62.3887C43.7922 62.0425 43.9212 60.9717 43.5206 60.2778L43.3973 60.0643C43.1424 59.6229 43.4385 58.5601 44.2678 57.6402L45.6877 56.8204L45.5491 56.5802C45.4129 56.3444 45.4937 56.0429 45.7295 55.9067L52.188 52.178C52.4238 52.0418 52.7253 52.1226 52.8615 52.3584L53.0002 52.5986L54.6014 51.6741C54.7193 51.606 54.7597 51.4553 54.6917 51.3374L51.1478 45.1992C51.0797 45.0813 50.9289 45.0409 50.811 45.109L36.373 53.4448C36.0261 53.6451 34.3541 55.0018 33.1482 56.3029Z" stroke="#313036" stroke-width="1.00278"/>
<circle cx="96.1963" cy="22.143" r="0.585508" transform="rotate(-30 96.1963 22.143)" fill="#6D6C75"/>
<circle cx="100.438" cy="19.6948" r="0.585508" transform="rotate(-30 100.438 19.6948)" fill="#6D6C75"/>
<circle cx="104.655" cy="17.2602" r="0.585508" transform="rotate(-30 104.655 17.2602)" fill="#6D6C75"/>
<path d="M105.393 16.0154L104.438 14.3607L93.8164 20.4932L94.7717 22.1478L98.0382 27.8056L99.5327 26.9427L99.0243 26.062C99.2224 25.9121 99.3255 25.5787 99.2345 25.1934L98.2345 22.1056C98.1801 21.888 98.4222 21.3212 98.7691 21.1209L99.8633 20.4892C99.8633 20.4892 100.077 20.3659 100.253 20.5486C100.518 20.8226 100.679 20.7302 100.919 20.5915C101.159 20.4528 101.319 20.3604 101.214 19.9939C101.144 19.7496 101.358 19.6263 101.358 19.6263L103.306 18.5015C103.493 18.3937 104.053 18.3906 104.701 18.5144C105.35 18.6383 106.049 19.1238 106.049 19.1238L106.903 18.6308L105.393 16.0154Z" stroke="#313036" stroke-width="1.00278"/>
<rect x="97.1016" y="25.3213" width="0.616325" height="4.34509" rx="0.308162" transform="rotate(-30 97.1016 25.3213)" fill="#4E4D55" stroke="#313036" stroke-width="0.501392"/>
<path fill-rule="evenodd" clip-rule="evenodd" d="M36.9924 62.1702C37.2722 61.9007 37.5637 61.623 37.8663 61.3358L44.2659 57.6411C43.4366 58.5609 43.1405 59.6237 43.3954 60.0652L43.5187 60.2787C43.9193 60.9725 43.7903 62.0434 43.314 62.3895C42.7451 62.803 41.8968 63.3279 41.2591 63.5759C40.1258 64.0167 39.1606 63.5776 38.8987 63.1239L38.6676 62.7236C38.4673 62.3767 37.5545 62.0471 36.9924 62.1702Z" stroke="#313036" stroke-width="0.501392"/>
<path fill-rule="evenodd" clip-rule="evenodd" d="M43.004 60.432C43.3892 61.0992 43.1339 62.1362 41.9976 62.7566C41.9546 62.7802 41.9118 62.8037 41.8692 62.8271C41.4235 63.0724 41.0048 63.3028 40.6088 63.3094C39.9743 63.3199 39.5255 63.1876 39.276 62.7267C39.0119 62.2387 39.0635 61.773 39.2889 61.3315C39.5144 60.89 39.9139 60.4725 40.5944 60.0796C41.1938 59.7335 41.6596 59.6551 42.0223 59.7178C42.4967 59.7998 42.7885 60.0587 43.004 60.432Z" stroke="#313036" stroke-width="0.501392"/>
<path d="M96.021 19.0077L96.5757 19.9684C96.7606 20.2887 96.7966 20.6593 96.1028 21.0599L67.3869 37.639L66.5208 38.8507L63.852 40.3915L62.6348 38.2832L96.021 19.0077Z" fill="#65636E" stroke="#313036" stroke-width="0.501392" stroke-miterlimit="3.99393"/>
<rect x="64.7051" y="40.5752" width="18.3665" height="5.23876" transform="rotate(-30 64.7051 40.5752)" stroke="#4D2D19" stroke-width="0.501392"/>
</g>
<defs>
<clipPath id="clip0_619_1200">
<rect width="110" height="110" fill="white"/>
</clipPath>
</defs>
</svg>
