<svg width="111" height="110" viewBox="0 0 111 110" fill="none" xmlns="http://www.w3.org/2000/svg">
<g clip-path="url(#clip0_619_1198)">
<path fill-rule="evenodd" clip-rule="evenodd" d="M61.3877 41.3593L62.8316 40.5257L65.0808 44.4214C65.1909 44.6121 65.1471 44.7251 65.0086 44.8627C62.6545 47.2026 54.9242 53.1913 54.2976 53.5531L46.3238 58.3021C44.8207 59.1027 42.1828 60.6928 39.6619 62.3663C39.6361 62.3833 39.6104 62.4004 39.5847 62.4175C39.5443 62.3659 39.4703 62.3537 39.4152 62.3909L37.6145 63.6086C37.5569 63.6475 37.5418 63.7257 37.5807 63.7833C35.3712 65.346 33.405 66.9187 32.4335 68.0289C23.4385 78.3075 18.4176 83.7844 8.90853 93.3437C8.63272 93.621 8.21823 93.7786 7.98846 93.5117C5.49468 90.6149 4.0161 89.0852 1.2726 86.3465C1.015 86.0894 0.898741 85.8722 1.12458 85.5239C1.73942 84.5756 2.3387 83.9148 3.57504 82.9104L18.6576 71.9141C19.412 71.3332 20.1214 71.1779 21.1401 71.2436C22.5163 71.3323 23.2036 71.1057 24.0889 70.1223L30.2758 61.9008C30.4852 61.6346 30.7105 61.3955 30.9557 61.254L35.9915 58.2739C36.1826 58.6049 36.6058 58.7184 36.9368 58.5272L43.2573 54.8781C43.5883 54.687 43.7017 54.2638 43.5106 53.9328L43.4636 53.8513L62.1988 42.7642L61.3877 41.3593ZM19.2513 77.4017C19.0729 77.5677 19.0629 77.8467 19.2289 78.025C19.3948 78.2034 19.6739 78.2134 19.8522 78.0475L20.9964 76.9826C21.1747 76.8167 21.1848 76.5376 21.0188 76.3593C20.8529 76.181 20.5738 76.171 20.3955 76.3369L19.2513 77.4017Z" fill="#713D25"/>
<path d="M60.0805 42.3687L61.4971 41.5508L62.1981 42.765L53.5345 47.892L53.0467 47.0471L53.4826 46.7955L53.5612 46.9317L60.4265 42.968L60.0805 42.3687Z" fill="#4F4C4A"/>
<path d="M42.6758 52.4893L51.557 47.3617L52.2885 48.6286L43.4625 53.852L42.6758 52.4893Z" fill="#4E4A48"/>
<path d="M53.0458 47.0464L51.5566 47.3613L52.2881 48.6283L53.5335 47.8913L53.0458 47.0464Z" fill="url(#paint0_linear_619_1198)"/>
<path d="M60.0801 42.3681L61.4968 41.5502L62.1978 42.7644L52.2887 48.6284L43.4332 53.8005L42.676 52.4891L51.5572 47.3615L53.0464 47.0466L53.4822 46.7949L53.5609 46.9311L60.4262 42.9675L60.0801 42.3681Z" stroke="#33312F" stroke-width="0.836206" stroke-miterlimit="3.99393"/>
<path d="M44.4401 62.4038C44.3684 62.4704 44.2836 62.5476 44.1868 62.6347C42.9746 63.7251 39.8831 66.3486 37.1165 68.5936C36.6762 68.9509 36.0662 69.3447 35.5522 69.5331C34.8627 69.7859 34.3212 69.7422 33.6468 69.2529C33.7619 68.8231 33.244 68.1777 32.5286 68.1549L32.4173 68.0457L32.4318 68.0292C32.7299 67.6885 33.122 67.3048 33.5862 66.8914C33.3556 67.6262 33.4771 68.0763 33.7996 68.5108C34.3468 69.2483 35.3613 69.2026 35.6474 69.0059C36.6354 68.3265 37.1618 67.9478 38.1987 67.1334C38.6014 66.817 38.9659 65.9276 38.5062 65.2123C37.9373 64.3271 36.9653 64.3067 36.5952 64.4999C36.9171 64.264 37.2434 64.021 37.579 63.7836C37.5401 63.726 37.5552 63.6478 37.6128 63.6089L39.4135 62.3912C39.4686 62.354 39.5426 62.3662 39.583 62.4178C40.6311 61.7221 41.7765 60.9895 42.7751 60.3733C44.1784 59.5074 45.4439 58.7701 46.3221 58.3023L49.1331 56.6282C47.7826 59.0062 46.7368 60.2724 44.4401 62.4038Z" fill="#4E4A48"/>
<rect x="98.7754" y="23.1582" width="9.78579" height="0.550479" transform="rotate(-30.5 98.7754 23.1582)" fill="#4A4645" stroke="#333130" stroke-width="0.418103" stroke-miterlimit="3.99393"/>
<path d="M100.774 22.1063C100.888 21.8577 100.895 21.6242 100.794 21.4047L100.423 20.6751L102.074 19.7218L102.388 20.2665C102.388 20.2665 102.512 20.4798 102.356 20.9024C102.22 21.2712 102.046 21.3718 101.828 21.4976L100.774 22.1063Z" fill="#54504E" stroke="#333130" stroke-width="0.836206" stroke-miterlimit="3.99393"/>
<path d="M33.5876 66.893L33.7871 66.9556L33.7889 66.9492L33.5876 66.893ZM33.5879 66.8918L33.4489 66.7357L33.403 66.7765L33.3865 66.8356L33.5879 66.8918ZM33.8009 68.5124L33.9688 68.3878L33.9688 68.3878L33.8009 68.5124ZM35.6487 69.0075L35.7671 69.1798L35.7671 69.1798L35.6487 69.0075ZM38.2 67.135L38.3291 67.2994L38.3291 67.2994L38.2 67.135ZM38.5075 65.2138L38.6834 65.1008L38.6834 65.1008L38.5075 65.2138ZM36.5965 64.5015L36.6112 64.7101L36.6547 64.707L36.6933 64.6869L36.5965 64.5015ZM36.5952 64.5016L36.5805 64.2931L36.5203 64.2974L36.4716 64.333L36.5952 64.5016ZM33.7889 66.9492C33.789 66.9488 33.7891 66.9485 33.7892 66.948L33.3865 66.8356C33.3864 66.8359 33.3863 66.8364 33.3862 66.8368L33.7889 66.9492ZM33.9688 68.3878C33.8212 68.189 33.7282 67.9985 33.6932 67.7819C33.6579 67.5639 33.6784 67.3015 33.787 66.9556L33.3881 66.8304C33.2661 67.2192 33.232 67.5492 33.2804 67.8486C33.3291 68.1494 33.4581 68.4012 33.633 68.637L33.9688 68.3878ZM35.5302 68.8353C35.4961 68.8587 35.415 68.8917 35.2869 68.9099C35.1638 68.9273 35.0139 68.9286 34.8552 68.9037C34.5376 68.8539 34.2022 68.7024 33.9688 68.3878L33.633 68.637C33.9469 69.0599 34.3923 69.2543 34.7903 69.3168C34.9894 69.348 35.181 69.3472 35.3456 69.3238C35.5053 69.3012 35.6582 69.2547 35.7671 69.1798L35.5302 68.8353ZM38.0709 66.9706C37.038 67.7818 36.5153 68.1579 35.5302 68.8353L35.7671 69.1798C36.7582 68.4983 37.2883 68.1169 38.3291 67.2994L38.0709 66.9706ZM38.3316 65.3269C38.5243 65.6267 38.5476 65.9668 38.4738 66.2754C38.3988 66.5894 38.2288 66.8465 38.0709 66.9706L38.3291 67.2994C38.5739 67.1071 38.7875 66.7613 38.8805 66.3726C38.9747 65.9786 38.9504 65.5163 38.6834 65.1008L38.3316 65.3269ZM36.6933 64.6869C36.8224 64.6194 37.1029 64.5738 37.426 64.6559C37.7396 64.7356 38.0782 64.9326 38.3316 65.3269L38.6834 65.1008C38.3679 64.6099 37.9361 64.3542 37.529 64.2507C37.1313 64.1496 36.7407 64.1904 36.4998 64.3162L36.6933 64.6869ZM36.61 64.7102C36.6104 64.7101 36.6106 64.7101 36.6112 64.7101L36.5818 64.293C36.5815 64.293 36.5809 64.2931 36.5805 64.2931L36.61 64.7102ZM36.4716 64.333C35.3224 65.1755 34.2741 66.0009 33.4489 66.7357L33.7269 67.0479C34.5387 66.3251 35.5755 65.5084 36.7188 64.6702L36.4716 64.333Z" fill="#33302F"/>
<path d="M32.5317 68.1551L32.3853 68.3043L32.4435 68.3615L32.5251 68.3641L32.5317 68.1551ZM32.4211 68.0465L32.2638 67.9088L32.1338 68.0574L32.2747 68.1957L32.4211 68.0465ZM33.65 69.2531L33.448 69.199L33.4108 69.3378L33.5272 69.4223L33.65 69.2531ZM35.5553 69.5333L35.4834 69.337L35.4834 69.337L35.5553 69.5333ZM37.1197 68.5938L36.988 68.4315L36.988 68.4315L37.1197 68.5938ZM44.19 62.6349L44.3298 62.7903L44.3298 62.7903L44.19 62.6349ZM44.4433 62.404L44.5855 62.5572L44.5855 62.5572L44.4433 62.404ZM49.1352 56.6302L49.317 56.7334L49.7074 56.0461L49.0283 56.4506L49.1352 56.6302ZM46.3256 58.3035L46.424 58.4882L46.4326 58.4831L46.3256 58.3035ZM39.6637 62.3677L39.5481 62.1936L39.548 62.1936L39.6637 62.3677ZM39.5866 62.419L39.4219 62.5478L39.5411 62.7002L39.7023 62.5931L39.5866 62.419ZM39.417 62.3924L39.2999 62.2192L39.2999 62.2192L39.417 62.3924ZM37.6163 63.61L37.7334 63.7832L37.7334 63.7832L37.6163 63.61ZM37.5684 63.757L37.3718 63.828L37.3724 63.8297L37.5684 63.757ZM37.5822 63.7838L37.409 63.9009L37.4091 63.9009L37.5822 63.7838ZM37.586 63.7893L37.7067 63.9599L37.8738 63.8417L37.7591 63.6722L37.586 63.7893ZM37.5857 63.7895L37.465 63.6188L37.2979 63.7371L37.4126 63.9066L37.5857 63.7895ZM37.5863 63.7903L37.707 63.9609L37.8742 63.8427L37.7595 63.6732L37.5863 63.7903ZM32.4353 68.0303L32.5926 68.168L32.5926 68.168L32.4353 68.0303ZM32.6782 68.0059L32.5676 67.8974L32.2747 68.1957L32.3853 68.3043L32.6782 68.0059ZM33.8519 69.3072C33.9356 68.9948 33.7853 68.6541 33.5548 68.4084C33.3168 68.1549 32.9578 67.9595 32.5384 67.9462L32.5251 68.3641C32.8211 68.3735 33.0788 68.5122 33.2499 68.6946C33.4283 68.8847 33.4795 69.0816 33.448 69.199L33.8519 69.3072ZM35.4834 69.337C35.1589 69.456 34.8864 69.4989 34.6244 69.4643C34.3625 69.4296 34.0907 69.3146 33.7727 69.0839L33.5272 69.4223C33.8836 69.6809 34.2198 69.8324 34.5696 69.8787C34.9193 69.925 35.2623 69.8634 35.6273 69.7296L35.4834 69.337ZM36.988 68.4315C36.5575 68.7808 35.9678 69.1594 35.4834 69.337L35.6273 69.7296C36.171 69.5303 36.8013 69.1214 37.2514 68.7561L36.988 68.4315ZM44.0502 62.4795C42.8417 63.5666 39.7532 66.1875 36.988 68.4315L37.2514 68.7561C40.0193 66.51 43.1139 63.8841 44.3298 62.7903L44.0502 62.4795ZM44.3011 62.2508C44.2304 62.3164 44.1464 62.3929 44.0502 62.4795L44.3298 62.7903C44.4271 62.7028 44.5128 62.6247 44.5855 62.5572L44.3011 62.2508ZM48.9535 56.5269C47.6159 58.8819 46.5846 60.1316 44.3011 62.2508L44.5855 62.5572C46.8942 60.4146 47.9545 59.1322 49.317 56.7334L48.9535 56.5269ZM49.0283 56.4506L46.2187 58.1239L46.4326 58.4831L49.2422 56.8098L49.0283 56.4506ZM46.2273 58.119C44.7164 58.9238 42.0725 60.5178 39.5481 62.1936L39.7793 62.5419C42.2968 60.8708 44.9286 59.2845 46.4239 58.488L46.2273 58.119ZM39.548 62.1936L39.4708 62.2449L39.7023 62.5931L39.7794 62.5418L39.548 62.1936ZM39.7512 62.2902C39.6436 62.1527 39.4467 62.12 39.2999 62.2192L39.5341 62.5656C39.4976 62.5902 39.4487 62.5821 39.4219 62.5478L39.7512 62.2902ZM39.2999 62.2192L37.4992 63.4368L37.7334 63.7832L39.5341 62.5656L39.2999 62.2192ZM37.4992 63.4368C37.3693 63.5247 37.3209 63.6873 37.3718 63.828L37.765 63.6859C37.7776 63.7208 37.7659 63.7612 37.7334 63.7832L37.4992 63.4368ZM37.7554 63.6667C37.759 63.672 37.7621 63.678 37.7644 63.6843L37.3724 63.8297C37.3816 63.8545 37.3938 63.8784 37.409 63.9009L37.7554 63.6667ZM37.7591 63.6722L37.7553 63.6666L37.4091 63.9009L37.4128 63.9065L37.7591 63.6722ZM37.7065 63.9601L37.7067 63.9599L37.4652 63.6187L37.465 63.6188L37.7065 63.9601ZM37.4126 63.9066L37.4131 63.9074L37.7595 63.6732L37.7589 63.6723L37.4126 63.9066ZM37.4656 63.6196C35.2564 65.1822 33.2676 66.7618 32.278 67.8927L32.5926 68.168C33.5461 67.0785 35.4973 65.5239 37.707 63.9609L37.4656 63.6196ZM32.278 67.8927C32.2733 67.8981 32.2685 67.9034 32.2638 67.9088L32.5785 68.1842C32.5832 68.1788 32.5879 68.1734 32.5926 68.168L32.278 67.8927Z" fill="#33302F"/>
<rect width="1.20037" height="0.838805" rx="0.209052" transform="matrix(-0.861629 0.507538 0.507538 0.861629 107.854 17.6455)" fill="#514D4B" stroke="#333130" stroke-width="0.418103" stroke-miterlimit="3.99393"/>
<rect x="99.6699" y="19.585" width="10.1294" height="1.32122" transform="rotate(-30 99.6699 19.585)" fill="#3E3B3A" stroke="#333130" stroke-width="0.836206" stroke-miterlimit="3.99393"/>
<path d="M30.6269 61.5059L30.2381 60.8325C30.1595 60.6962 30.1549 59.6818 30.9062 59.2843L35.1562 56.8306L35.9895 58.2739L30.9541 61.2546C30.8409 61.3199 30.732 61.406 30.6269 61.5059Z" fill="#807977" stroke="#333130" stroke-width="0.836206" stroke-miterlimit="3.99393"/>
<path d="M30.9336 61.2681L30.6712 60.5112C30.6198 60.3592 30.6659 60.1874 30.8409 60.05L34.0407 57.4761L35.1576 56.8312L35.9909 58.2745L30.9555 61.2552C30.9482 61.2594 30.9409 61.2637 30.9336 61.2681Z" fill="#55504F" stroke="#33312F" stroke-width="0.836206" stroke-miterlimit="3.99393"/>
<path d="M42.9137 52.8971L35.3945 57.2383L35.9922 58.2735C36.1833 58.6045 36.6066 58.7179 36.9376 58.5268L43.258 54.8777C43.589 54.6866 43.7025 54.2634 43.5113 53.9324L42.9137 52.8971Z" fill="#726C6A" stroke="#33302F" stroke-width="0.836206" stroke-miterlimit="3.99393"/>
<path fill-rule="evenodd" clip-rule="evenodd" d="M18.963 77.172C18.6376 77.4748 18.6193 77.984 18.9221 78.3094C19.2249 78.6348 19.7341 78.6531 20.0595 78.3503L21.2821 77.2125C21.6075 76.9097 21.6258 76.4005 21.323 76.0751C21.0202 75.7497 20.511 75.7314 20.1856 76.0342L18.963 77.172ZM19.25 77.4018C19.0717 77.5677 19.0616 77.8468 19.2276 78.0251C19.3935 78.2034 19.6726 78.2134 19.8509 78.0475L20.9951 76.9827C21.1735 76.8167 21.1835 76.5377 21.0176 76.3594C20.8516 76.181 20.5725 76.171 20.3942 76.3369L19.25 77.4018Z" fill="#544943" stroke="#332C29" stroke-width="0.418103" stroke-miterlimit="3.99393"/>
<path d="M29.6163 62.7754C29.226 62.2614 29.0656 61.8528 28.7806 60.9475C28.6936 60.6709 28.9115 60.5451 29.0686 60.8175L29.3674 61.3349C29.7615 61.3034 29.9532 61.1969 30.2388 60.8318L30.6275 61.505C30.505 61.6216 30.3876 61.757 30.2749 61.9003L29.6163 62.7754Z" fill="#8E8784" stroke="#333030" stroke-width="0.836206" stroke-miterlimit="3.99393"/>
<path d="M34.4001 66.1959C34.6496 65.9903 34.9121 65.7798 35.1855 65.5658L34.833 66.7154C34.6791 67.2039 34.8439 67.7742 35.5335 68.0546C35.8658 68.1896 35.6919 68.5806 35.4341 68.5115C34.9362 68.3781 34.6756 68.1546 34.5064 67.8484C34.3035 67.4814 34.2814 66.967 34.4001 66.1959Z" fill="#393635" stroke="#33302F" stroke-width="0.418103" stroke-miterlimit="3.99393"/>
<path fill-rule="evenodd" clip-rule="evenodd" d="M56.6365 43.7741L53.7862 45.2722L53.668 45.0545L52.5467 45.6634L52.6566 45.8658L52.4317 45.984C52.0043 46.1644 51.8272 46.1106 51.5535 45.9099L51.2266 46.0986C51.5327 46.5031 52.1186 46.7077 52.6991 46.4471L52.911 46.3344L53.0112 46.519L53.6808 46.1554L53.2923 46.4679L53.5597 46.9311L60.425 42.9674L60.0789 42.368L59.5591 42.1596C59.1136 42.0173 58.7752 42.249 58.746 42.7017C57.7106 42.9232 57.3883 43.1518 56.6365 43.7741ZM54.5289 45.4732L54.0374 45.7348L54.088 45.8279L54.5289 45.4732Z" fill="#55514F" stroke="#33312F" stroke-width="0.418103" stroke-miterlimit="3.99393"/>
<path d="M46.3097 53.3701C45.8943 53.6291 45.7564 54.1734 46.003 54.6006C46.2497 55.0278 46.7899 55.1805 47.222 54.9502L56.2667 49.7283C56.2667 49.7283 58.3372 48.5329 57.881 47.7428C57.4249 46.9528 55.3544 48.1482 55.3544 48.1482L46.3097 53.3701Z" fill="#643621" stroke="#331C11" stroke-width="0.418103" stroke-miterlimit="3.99393"/>
<path fill-rule="evenodd" clip-rule="evenodd" d="M63.6513 40.377L91.9517 23.7109L93.7919 26.8984L65.6961 43.9186L63.6513 40.377ZM85.0067 31.0432C84.8978 30.865 84.9539 30.6322 85.1321 30.5232L86.5906 29.6313C86.7688 29.5223 87.0016 29.5784 87.1106 29.7566C87.2196 29.9348 87.1634 30.1676 86.9852 30.2766L85.5267 31.1685C85.3485 31.2775 85.1157 31.2214 85.0067 31.0432Z" fill="#713D25"/>
<path fill-rule="evenodd" clip-rule="evenodd" d="M84.8175 30.4788C84.5436 30.6463 84.4573 31.0042 84.6248 31.2781C84.7923 31.5521 85.1502 31.6383 85.4241 31.4708L87.3014 30.3228C87.5753 30.1553 87.6616 29.7974 87.494 29.5235C87.3265 29.2495 86.9687 29.1633 86.6947 29.3308L84.8175 30.4788ZM85.1329 30.5241C84.9547 30.6331 84.8985 30.8659 85.0075 31.0441C85.1165 31.2223 85.3493 31.2784 85.5275 31.1694L86.986 30.2775C87.1642 30.1685 87.2203 29.9357 87.1114 29.7575C87.0024 29.5793 86.7696 29.5232 86.5914 29.6322L85.1329 30.5241Z" fill="#544943" stroke="#332C29" stroke-width="0.418103" stroke-miterlimit="3.99393"/>
<path d="M92.9183 23.1188L98.2108 19.9543L98.9028 21.153L100.249 20.3393L100.792 21.406C101.068 22.0095 100.533 22.7182 99.2023 23.5591L94.6799 26.1701L92.9183 23.1188Z" fill="#713D25" stroke="#331C11" stroke-width="0.836206" stroke-miterlimit="3.99393"/>
<path d="M104 14.251L104.926 13.7164L106.152 15.8406L105.226 16.3751L104 14.251Z" fill="#433F3E" stroke="#333130" stroke-width="0.836206" stroke-miterlimit="3.99393"/>
<path d="M98.903 21.1528L98.2109 19.9541L99.11 19.435C99.2734 19.3407 99.656 19.3741 99.7503 19.5375L100.249 20.3391L98.903 21.1528Z" fill="#4B4746" stroke="#332C29" stroke-width="0.836206" stroke-miterlimit="3.99393"/>
<path fill-rule="evenodd" clip-rule="evenodd" d="M61.3877 41.3593L62.8316 40.5257L65.0808 44.4214C65.1909 44.6121 65.1471 44.7251 65.0086 44.8627C62.6545 47.2026 54.9242 53.1913 54.2976 53.5531L46.3238 58.3021C44.8207 59.1027 42.1828 60.6928 39.6619 62.3663C39.6361 62.3833 39.6104 62.4004 39.5847 62.4175C39.5443 62.3659 39.4703 62.3537 39.4152 62.3909L37.6145 63.6086C37.5569 63.6475 37.5418 63.7257 37.5807 63.7833C35.3712 65.346 33.405 66.9187 32.4335 68.0289C23.4385 78.3075 18.4176 83.7844 8.90853 93.3437C8.63272 93.621 8.21823 93.7786 7.98846 93.5117C5.49468 90.6149 4.0161 89.0852 1.2726 86.3465C1.015 86.0894 0.898741 85.8722 1.12458 85.5239C1.73942 84.5756 2.3387 83.9148 3.57504 82.9104L18.6576 71.9141C19.412 71.3332 20.1214 71.1779 21.1401 71.2436C22.5163 71.3323 23.2036 71.1057 24.0889 70.1223L30.2758 61.9008C30.4852 61.6346 30.7105 61.3955 30.9557 61.254L35.9915 58.2739C36.1826 58.6049 36.6058 58.7184 36.9368 58.5272L43.2573 54.8781C43.5883 54.687 43.7017 54.2638 43.5106 53.9328L43.4636 53.8513L62.1988 42.7642L61.3877 41.3593Z" stroke="#331C11" stroke-width="0.836206" stroke-miterlimit="3.99393"/>
<path d="M8.58838 93.5755C8.36985 93.6799 8.13944 93.6876 7.98861 93.5124C5.49484 90.6155 4.01626 89.0858 1.27276 86.3472C1.01516 86.0901 0.898897 85.8729 1.12474 85.5246C1.54112 84.8823 1.95037 84.372 2.55519 83.7975L2.33914 84.8597L1.86141 85.3535C1.55865 85.7099 1.60798 85.8994 1.92771 86.2233C4.59673 88.9275 6.05475 90.576 8.58838 93.5755Z" fill="#544D4A" stroke="#332F2E" stroke-width="0.836206" stroke-miterlimit="3.99393"/>
<circle cx="37.3902" cy="57.1751" r="1.13205" transform="rotate(-30 37.3902 57.1751)" fill="#807977" stroke="#333130" stroke-width="0.836206" stroke-miterlimit="3.99393"/>
<path d="M63.6513 40.377L91.9517 23.7109L93.7919 26.8984L65.6961 43.9186L63.6513 40.377Z" stroke="#331C11" stroke-width="0.836206" stroke-miterlimit="3.99393"/>
<rect x="92.3691" y="25.9424" width="6.22863" height="0.817901" rx="0.40895" transform="rotate(-30 92.3691 25.9424)" fill="#514744" stroke="#332D2B" stroke-width="0.836206" stroke-miterlimit="3.99393"/>
<rect x="91.8926" y="23.6035" width="1.13248" height="3.90076" transform="rotate(-30 91.8926 23.6035)" fill="#4B423F" stroke="#332C29" stroke-width="0.836206" stroke-miterlimit="3.99393"/>
<path d="M64.8184 42.3936L65.1959 43.0474L68.6013 41.0813C68.7818 40.977 68.8437 40.7462 68.7394 40.5656C68.6352 40.3851 68.4043 40.3232 68.2238 40.4274L64.8184 42.3936Z" fill="#514744" stroke="#333333" stroke-width="0.836206" stroke-miterlimit="3.99393"/>
<path d="M62.8301 40.5254L63.5112 40.1322L65.7761 44.0552L65.095 44.4484L62.8301 40.5254Z" fill="#4B423F" stroke="#333333" stroke-width="0.836206" stroke-miterlimit="3.99393"/>
</g>
<defs>
<linearGradient id="paint0_linear_619_1198" x1="51.9184" y1="47.9879" x2="53.1716" y2="47.2644" gradientUnits="userSpaceOnUse">
<stop stop-color="#4E4A48"/>
<stop offset="1" stop-color="#4B4846"/>
</linearGradient>
<clipPath id="clip0_619_1198">
<rect width="110" height="110" fill="white" transform="translate(0.0859375)"/>
</clipPath>
</defs>
</svg>