<?xml version="1.0" encoding="UTF-8" standalone="no"?>
<svg
   id="Layer_2"
   data-name="Layer 2"
   viewBox="0 0 113.7101 22.44"
   version="1.1"
   sodipodi:docname="mp40_world.svg"
   width="113.71011"
   height="22.440001"
   inkscape:version="1.1.2 (0a00cf5339, 2022-02-04)"
   xmlns:inkscape="http://www.inkscape.org/namespaces/inkscape"
   xmlns:sodipodi="http://sodipodi.sourceforge.net/DTD/sodipodi-0.dtd"
   xmlns="http://www.w3.org/2000/svg"
   xmlns:svg="http://www.w3.org/2000/svg">
  <sodipodi:namedview
     id="namedview29"
     pagecolor="#505050"
     bordercolor="#ffffff"
     borderopacity="1"
     inkscape:pageshadow="0"
     inkscape:pageopacity="0"
     inkscape:pagecheckerboard="1"
     showgrid="false"
     inkscape:zoom="11.704186"
     inkscape:cx="56.817281"
     inkscape:cy="11.192577"
     inkscape:window-width="2560"
     inkscape:window-height="1372"
     inkscape:window-x="0"
     inkscape:window-y="0"
     inkscape:window-maximized="1"
     inkscape:current-layer="Layer_2" />
  <defs
     id="defs4">
    <style
       id="style2">
      .cls-1, .cls-2 {
        fill: #3f4242;
      }

      .cls-1, .cls-2, .cls-3, .cls-4, .cls-5 {
        stroke-width: 3px;
      }

      .cls-1, .cls-2, .cls-3, .cls-4, .cls-5, .cls-6 {
        stroke-miterlimit: 15.12;
      }

      .cls-1, .cls-3, .cls-5, .cls-6 {
        stroke: #171717;
      }

      .cls-2 {
        stroke: #161717;
      }

      .cls-3, .cls-6 {
        fill: #5c5c5c;
      }

      .cls-4 {
        fill: #7b6249;
        stroke: #1d1711;
      }

      .cls-5 {
        fill: #333334;
      }

      .cls-7 {
        fill: #161717;
      }

      .cls-6 {
        stroke-width: 1.5px;
      }
    </style>
  </defs>
  <g
     id="Layer_14"
     data-name="Layer 14"
     transform="translate(-0.00989527)">
    <g
       id="layer1">
      <rect
         class="cls-7"
         x="65.18"
         y="0"
         width="2.3599999"
         height="7.3299999"
         rx="1.1799999"
         ry="1.1799999"
         id="rect6" />
      <g
         id="g3892">
        <rect
           class="cls-4"
           x="34.380001"
           y="6.8499999"
           width="37.139999"
           height="14"
           rx="2.9400001"
           ry="2.9400001"
           id="rect8" />
        <path
           id="path2-0"
           class="cls-2"
           d="m 104.32,13.15 v 1.72 c 0,0.84 -0.19,1.52 -0.41,1.51 L 88.02,16.07 c -0.22,0 -0.4,-0.69 -0.4,-1.53 v -1.72 c 0,-0.84 0.19,-1.52 0.41,-1.51 l 15.89,0.31 c 0.22,0 0.4,0.69 0.4,1.53 z" />
        <path
           id="path6-5"
           class="cls-2"
           d="m 88.49,17.52 c 0.16,-0.03 0.46,-0.18 0.46,-0.18 l 2.51,-1.44 c 0,0 0.55,-0.15 0.69,-0.38 0.14,-0.24 0,-0.83 0,-0.83 v -2.01 c 0,0 0.09,-0.33 0.01,-0.46 -0.09,-0.15 -0.46,-0.25 -0.46,-0.25 l -2.79,-1.56 c 0,0 -0.25,-0.18 -0.4,-0.22 -0.08,-0.02 -0.24,0 -0.24,0 h -1.05 c 0,0 -0.56,-0.05 -0.74,0.16 -0.57,0.69 -0.04,0.66 -0.04,0.66 l -0.05,5.6 c 0,0 -0.19,0.66 0.08,0.78 0.28,0.13 0.65,0.14 0.65,0.14 h 1.02 c 0,0 0.23,0.03 0.34,0 v 0 z" />
        <path
           id="path8-6"
           class="cls-3"
           d="m 80.77,11.32 -0.02,5.11 c -0.01,2.49 -0.14,4.51 -0.29,4.51 L 70.09,20.88 c -0.15,0 -0.25,-2.02 -0.24,-4.52 l 0.02,-5.11 C 69.88,8.76 70.01,6.74 70.16,6.74 L 80.53,6.8 c 0.15,0 0.25,2.02 0.24,4.52 z" />
        <path
           id="path10-8"
           class="cls-2"
           d="m 86.19,16.04 0.03,-4.22 c 0,-0.12 -0.1,-0.23 -0.27,-0.31 -0.18,-0.08 -0.42,-0.13 -0.67,-0.13 L 39.11,11.22 c -1.95,0 -3.83,0.26 -5.22,0.73 -1.39,0.47 -2.17,1.12 -2.17,1.8 0,0.68 0.77,1.33 2.15,1.81 1.38,0.48 3.25,0.76 5.21,0.77 l 46.17,0.16 c 0.25,0 0.49,-0.05 0.67,-0.13 0.18,-0.08 0.28,-0.2 0.28,-0.31 v 0 z" />
        <path
           id="path12-88"
           class="cls-7"
           d="m 34.87,16.37 v 0.69 c 0,0.54 -0.49,0.97 -1.09,0.97 L 5.13,17.79 c -0.6,0 -1.09,-0.45 -1.08,-0.99 v -0.69 c 0,-0.54 0.49,-0.97 1.09,-0.97 l 28.65,0.24 c 0.6,0 1.09,0.45 1.08,0.99 z" />
        <path
           id="path14-8"
           class="cls-7"
           d="m 34.9,10.82 v 0.69 c 0,0.54 -0.49,0.97 -1.09,0.97 L 5.24,12.24 c -0.6,0 -1.08,-0.45 -1.08,-0.99 v -0.69 c 0,-0.54 0.49,-0.97 1.09,-0.97 l 28.57,0.24 c 0.6,0 1.08,0.45 1.08,0.99 z" />
        <path
           id="path16-4"
           class="cls-2"
           d="m 4.77,9.48 c 1.05,0 1.89,0.48 1.88,1.06 l -0.06,6.45 c 0,0.58 -0.86,1.05 -1.9,1.05 h -1.3 c -1.05,0 -1.89,-0.48 -1.88,-1.06 l 0.06,-6.45 c 0,-0.58 0.86,-1.05 1.9,-1.05 z" />
        <path
           id="path18-8"
           class="cls-1"
           d="m 41.13,17.27 0.05,-6.83 C 41.18,10.28 41.08,10.12 40.89,10 40.7,9.88 40.45,9.82 40.18,9.82 L 35.82,9.8 c -1.42,0 -2.79,0.41 -3.8,1.17 -1.01,0.75 -1.58,1.77 -1.59,2.84 0,1.07 0.55,2.1 1.55,2.86 1,0.76 2.36,1.19 3.78,1.2 l 4.36,0.02 c 0.27,0 0.52,-0.06 0.71,-0.18 0.19,-0.11 0.3,-0.27 0.3,-0.43 v 0 z" />
        <path
           id="path20-6"
           class="cls-5"
           d="m 43.25,10.44 -0.05,6.85 c 0,0.34 -0.4,0.61 -0.88,0.6 l -5.19,-0.02 c -0.49,0 -0.88,-0.28 -0.88,-0.61 l 0.05,-6.85 c 0,-0.34 0.4,-0.61 0.88,-0.6 l 5.19,0.02 c 0.49,0 0.88,0.28 0.88,0.61 z" />
        <path
           id="path24-9"
           class="cls-6"
           d="m 86.22,9.37 -0.06,8.97 c 0,0.69 -0.09,1.25 -0.19,1.25 h -3 c -0.1,-0.01 -0.18,-0.57 -0.17,-1.27 l 0.06,-8.97 c 0,-0.69 0.09,-1.25 0.19,-1.25 h 3 c 0.1,0.01 0.18,0.57 0.17,1.27 z" />
        <path
           id="path32"
           class="cls-2"
           d="m 112.22,11.96 v 3.85 c -0.01,0.77 -0.34,1.38 -0.73,1.38 l -6.58,-0.05 c -0.4,0 -0.71,-0.63 -0.71,-1.39 V 11.9 c 0.01,-0.77 0.34,-1.38 0.73,-1.38 l 6.58,0.05 c 0.4,0 0.71,0.63 0.71,1.39 z" />
        <path
           id="path36"
           class="cls-6"
           d="m 72.89,11.3 -0.03,5.11 c -0.02,2.49 -0.06,4.52 -0.1,4.52 H 69.9 c 0,0 -0.06,-2.03 -0.04,-4.53 l 0.03,-5.11 c 0.02,-2.49 0.06,-4.52 0.1,-4.52 h 2.86 c 0,0 0.06,2.03 0.04,4.53 z" />
        <path
           id="path38"
           class="cls-6"
           d="m 81.71,11.3 -0.03,5.11 c -0.02,2.49 -0.06,4.52 -0.1,4.52 h -2.86 c 0,0 -0.06,-2.03 -0.04,-4.53 l 0.03,-5.11 c 0.02,-2.49 0.06,-4.52 0.1,-4.52 h 2.86 c 0,0 0.06,2.03 0.04,4.53 z" />
      </g>
      <rect
         class="cls-7"
         x="108.02"
         y="10.1"
         width="2.29"
         height="7.5"
         id="rect24" />
    </g>
  </g>
</svg>
