<?xml version="1.0" encoding="UTF-8" standalone="no"?>
<svg
   viewBox="0 0 183.517 23"
   version="1.1"
   id="svg34"
   width="183.517"
   height="23"
   xmlns="http://www.w3.org/2000/svg"
   xmlns:svg="http://www.w3.org/2000/svg"
   xmlns:bx="https://boxy-svg.com">
  <defs
     id="defs38" />
  <g
     id="g871"
     transform="matrix(0,1.285347,-1.285347,0,182.39204,-1.3277635)">
    <rect
       style="fill:#5c5c5c;stroke:#171717;stroke-width:1.75px;stroke-opacity:1"
       x="7.3930001"
       y="40.863998"
       width="10.659"
       height="7.6440001"
       rx="1"
       ry="1"
       id="rect2" />
    <rect
       style="fill:#232323;stroke:#171717;stroke-width:1.75px;stroke-opacity:1"
       x="7.6830001"
       y="0.92299998"
       width="3.132"
       height="41.334999"
       rx="1"
       ry="1"
       id="rect4" />
    <path
       style="fill:#5c5c5c;stroke:#171717;stroke-width:3.5px;stroke-opacity:1"
       d="m 4.661,37.937 c 0.04,-0.202 0.234,-0.573 0.234,-0.573 l 1.814,-3.123 c 0,0 0.193,-0.688 0.473,-0.853 0.296,-0.174 1.029,0 1.029,0 h 2.507 c 0,0 0.412,-0.098 0.578,0 0.187,0.11 0.314,0.569 0.314,0.569 l 1.922,3.482 c 0,0 0.228,0.314 0.275,0.498 0.025,0.097 0,0.301 0,0.301 v 1.302 c 0,0 0.047,0.701 -0.215,0.917 -0.862,0.71 -0.824,0.047 -0.824,0.047 l -6.971,0.032 c 0,0 -0.819,0.232 -0.966,-0.101 C 4.675,40.081 4.661,39.63 4.661,39.63 v -1.27 c 0,0 -0.027,-0.285 0,-0.423 z"
       id="path6" />
    <rect
       style="fill:#5c5c5c;stroke:#171717;stroke-width:3.5px;stroke-opacity:1"
       x="4.652"
       y="39.328999"
       width="9.158"
       height="18.35"
       rx="1"
       ry="1"
       id="rect8" />
    <path
       style="fill:#5c5c5c;stroke:#171717;stroke-width:3.5px;stroke-opacity:1"
       d="m 4.63,54.919 h 9.504 a 1,1 0 0 1 1,1 v 48.844 a 5.752,7.8 0 0 1 -5.752,7.8 v 0 a 5.752,7.8 0 0 1 -5.752,-7.8 V 55.919 a 1,1 0 0 1 1,-1 z"
       bx:shape="rect 3.63 54.919 11.504 57.644 1 1 7.8 7.8 1@22c89bc8"
       id="path10" />
    <rect
       style="fill:#5c5c5c;stroke:#171717;stroke-width:1.75px;stroke-opacity:1"
       x="5.0560002"
       y="110.588"
       width="2.7049999"
       height="28.351"
       rx="1"
       ry="1"
       id="rect12" />
    <rect
       style="fill:#5c5c5c;stroke:#171717;stroke-width:1.75px;stroke-opacity:1"
       x="10.482"
       y="110.589"
       width="2.7049999"
       height="28.351"
       rx="1"
       ry="1"
       id="rect14" />
    <rect
       style="fill:#5c5c5c;stroke:#171717;stroke-width:1.75px;stroke-opacity:1"
       transform="rotate(90,40.198948,2.4309655)"
       x="176.10699"
       y="29.438999"
       width="2.687"
       height="8.1239996"
       rx="1"
       ry="1"
       id="rect16" />
    <path
       style="fill:#5c5c5c;stroke:#171717;stroke-width:3.5px;stroke-opacity:1"
       d="M 3.783,101.759 H 14.9 a 1,1 0 0 1 1,1 v 4.331 a 6.559,5.331 0 0 1 -6.558,5.33 v 0 a 6.559,5.331 0 0 1 -6.559,-5.33 v -4.331 a 1,1 0 0 1 1,-1 z"
       bx:shape="rect 2.783 101.759 13.117 10.661 1 1 7.8 7.8 1@1059c027"
       id="path18" />
    <rect
       style="fill:#232323;stroke:#171717;stroke-width:1.75px;stroke-opacity:1"
       x="2.7869999"
       y="83.089996"
       width="13.272"
       height="7.9000001"
       rx="1"
       ry="1"
       id="rect20" />
    <path
       d="m 2.839,84.713 c 0.299,1.703 13.338,1.363 13.111,0 v 4.169 c -0.37,-1.317 -13.481,-1.317 -13.111,0 z"
       style="fill:#5c5c5c;stroke:#171717;stroke-width:0.875px;stroke-opacity:1"
       id="path22" />
    <rect
       style="fill:#232323;stroke:#171717;stroke-width:1.75px;stroke-opacity:1"
       x="6.8140001"
       y="0"
       width="4.777"
       height="11.193"
       rx="1"
       ry="1"
       id="rect24" />
    <rect
       style="fill:#5c5c5c;stroke:#171717;stroke-width:0.775px;stroke-opacity:1"
       x="7.5219998"
       y="2.914"
       width="3.4890001"
       height="2.0539999"
       rx="0.5"
       ry="0.5"
       id="rect26" />
    <rect
       style="fill:#232323;stroke:#171717;stroke-width:0.875px;stroke-opacity:1"
       x="6.198"
       y="57.408001"
       width="6.381"
       height="17.698"
       rx="1"
       ry="1"
       id="rect28" />
    <circle
       style="fill:#5c5c5c;stroke:#171717;stroke-width:0.875px;stroke-opacity:1"
       cx="9.3170004"
       cy="62.021"
       id="ellipse30"
       r="2.5799999" />
    <circle
       style="fill:#5c5c5c;stroke:#171717;stroke-width:0.875px;stroke-opacity:1"
       cx="9.4289999"
       cy="69.940002"
       id="ellipse32"
       r="2.5799999" />
  </g>
</svg>
