<svg width="111" height="110" viewBox="0 0 111 110" fill="none" xmlns="http://www.w3.org/2000/svg">
<g clip-path="url(#clip0_619_1193)">
<path d="M84.4618 24.1512L84.423 24.1732L81.3864 23.7083L38.8789 48.25L41.5605 52.8947L67.257 38.8218L84.3718 28.9406L85.6832 26.3558L85.7217 26.3334L84.4618 24.1512Z" fill="#3E3E43" stroke="#313135" stroke-width="0.963856" stroke-miterlimit="3.99393" stroke-linecap="round"/>
<path d="M45.1436 57.3874C45.6443 56.7956 46.2784 56.5216 46.2784 56.5216L46.2793 56.5212C46.2801 56.7235 46.2999 56.9615 46.3613 57.1913C46.4325 57.458 46.5507 57.6818 46.7286 57.8401C46.8977 57.9906 47.172 58.1281 47.6497 58.1377C47.9891 58.1446 48.2587 58.4253 48.2519 58.7647C48.2451 59.1041 47.9644 59.3737 47.625 59.3669C46.8997 59.3523 46.3307 59.1317 45.9113 58.7585C45.5007 58.3931 45.2854 57.9278 45.1735 57.5084C45.1627 57.4679 45.1527 57.4276 45.1436 57.3874Z" fill="#35353B" stroke="#313136" stroke-width="0.481928" stroke-miterlimit="3.99393" stroke-linecap="round"/>
<path d="M50.7393 54.2742L52.9065 53.1827C52.49 53.5533 52.1627 53.9528 52.002 54.3548C51.847 54.7428 51.8378 55.1477 52.1029 55.6068C52.5425 56.3683 52.6316 57.1003 52.4698 57.7643C52.3128 58.409 51.9341 58.9302 51.5419 59.3242C51.1477 59.7201 50.3806 60.202 50.0492 60.3985C48.4621 61.3097 46.98 61.698 46.088 61.729C45.8656 61.7368 45.6672 61.7291 45.4934 61.7125C45.4266 61.0228 45.2284 60.9422 45.2284 60.9422C45.0738 60.7028 44.9493 60.4741 44.8512 60.2558L45.1339 60.3906C45.1624 60.4006 45.2374 60.4257 45.3126 60.4426C45.4625 60.4763 45.7073 60.5122 46.0453 60.5004C46.7181 60.477 47.9267 60.1894 49.374 59.3538C49.4508 59.3094 49.6081 59.2207 49.7456 59.1392C50.0239 58.9742 50.3741 58.7546 50.6707 58.4568C50.9692 58.157 51.1896 57.8255 51.2754 57.4733C51.3565 57.1403 51.3323 56.731 51.0382 56.2215C50.6505 55.5501 50.5888 54.885 50.7393 54.2742Z" fill="#3B3B40" stroke="#313136" stroke-width="0.481928" stroke-miterlimit="3.99393" stroke-linecap="square"/>
<rect x="7.44727" y="75.2568" width="29.6591" height="1.18567" transform="rotate(-30 7.44727 75.2568)" fill="#3B3B40" stroke="#313136" stroke-width="0.481928" stroke-miterlimit="3.99393"/>
<path d="M33.622 52.7023C33.622 52.7023 27.8035 60.6043 39.0496 63.1789C50.2957 65.7536 41.1341 54.434 41.1341 54.434L33.622 52.7023Z" fill="#3E3E43" stroke="#313135" stroke-width="0.963856" stroke-miterlimit="3.99393" stroke-linecap="round"/>
<path d="M38.443 47.56L34.4371 49.8728C34.4371 49.8728 32.7808 51.1839 33.5958 52.7185C34.4108 54.2531 34.8269 55.2196 35.6121 54.7663L40.9632 51.9252L38.443 47.56Z" fill="#3E3E43" stroke="#313135" stroke-width="0.963856" stroke-miterlimit="3.99393" stroke-linecap="round"/>
<path d="M97.8603 19.4485L99.2587 21.8707C99.3356 22.0037 99.526 21.9648 99.5597 21.8388L100.993 17.9592C101.053 17.8179 100.866 17.6777 100.748 17.7811L97.9934 19.3717C97.9135 19.4178 97.6912 19.1557 97.8603 19.4485Z" fill="#3B3B40" stroke="#313135" stroke-width="0.963856" stroke-miterlimit="3.99393" stroke-linecap="round"/>
<path d="M35.8439 48.6907C35.6795 48.4076 35.3166 48.3114 35.0335 48.4759C34.7504 48.6403 34.6542 49.0032 34.8187 49.2863L37.6691 54.1929L38.6943 53.5974L35.8439 48.6907Z" fill="#38383D" stroke="#313135" stroke-width="0.481928" stroke-miterlimit="3.99393" stroke-linecap="round"/>
<path d="M96.3848 17.0166L105.035 12.0222L106.503 14.5641L97.8524 19.5585L96.3848 17.0166Z" fill="#38383D" stroke="#313135" stroke-width="0.963856" stroke-miterlimit="3.99393" stroke-linecap="round"/>
<path d="M101.278 11.9382L100.701 10.8161C100.594 10.6298 100.669 10.3912 100.842 10.2913L102.399 9.39235C102.585 9.28478 102.824 9.35996 102.924 9.53297L104.277 11.9992C104.384 12.1855 104.309 12.4241 104.136 12.524L101.9 13.8148C101.621 13.9762 100.592 14.4992 100.682 14.1634L101.319 12.1629C101.37 12.0979 101.324 12.018 101.278 11.9382Z" fill="#3E3E43" stroke="#313135" stroke-width="0.963856" stroke-miterlimit="3.99393" stroke-linecap="round"/>
<path d="M80.4922 26.1562L82.1558 25.1958C82.1558 25.1958 83.5373 25.9597 83.6233 27.7377L81.9598 28.6982" fill="#424248"/>
<path d="M80.4922 26.1562L82.1558 25.1958C82.1558 25.1958 83.5373 25.9597 83.6233 27.7377L81.9598 28.6982L80.4922 26.1562Z" stroke="#313136" stroke-width="0.481928" stroke-miterlimit="3.99393" stroke-linecap="round"/>
<path d="M106.752 11.0303L107.085 10.8382L108.552 13.3802L108.22 13.5722L107.889 13L106.172 13.9912L105.366 12.5938L107.082 11.6026L106.752 11.0303Z" fill="#36363A" stroke="#313135" stroke-width="0.963856" stroke-miterlimit="3.99393" stroke-linecap="round"/>
<path d="M83.6231 27.738C84.0992 27.7634 84.2054 28.3777 84.2054 28.3777L84.2609 28.7724L82.8632 29.5793L82.2559 28.5273L83.6231 27.738Z" fill="#424248" stroke="#313136" stroke-width="0.481928" stroke-miterlimit="3.99393" stroke-linecap="square"/>
<path d="M82.002 24.2205C82.002 24.2205 82.2934 24.6023 82.1569 25.1957L82.002 24.2205Z" fill="#424248"/>
<path d="M82.002 24.2205C82.002 24.2205 82.2934 24.6023 82.1569 25.1957L80.6984 26.0378L79.8984 24.6523L81.6631 23.6335L82.002 24.2205Z" fill="#424248"/>
<path d="M82.002 24.2205C82.002 24.2205 82.2934 24.6023 82.1569 25.1957L82.002 24.2205Z" stroke="#313136" stroke-width="0.481928" stroke-miterlimit="3.99393" stroke-linecap="square"/>
<path d="M82.002 24.2205C82.002 24.2205 82.2934 24.6023 82.1569 25.1957L80.6984 26.0378L79.8984 24.6523L81.6631 23.6335L82.002 24.2205Z" stroke="#313136" stroke-width="0.481928" stroke-miterlimit="3.99393" stroke-linecap="square"/>
<path d="M80.5889 40.7396L76.1172 43.3213L87.0742 62.2993L91.5458 59.7176L80.5889 40.7396Z" fill="#3E3E43" stroke="#313135" stroke-width="0.963856" stroke-miterlimit="3.99393" stroke-linecap="round"/>
<path d="M64.0608 31.9702L68.7249 40.0485C68.9321 40.4076 70.0713 41.4893 71.8413 40.4673C73.7045 39.3916 74.7313 41.8154 74.7313 41.8154C74.7313 41.8154 75.1306 43.6714 75.1087 44.0463C75.0909 44.1629 75.2461 44.1799 75.3382 44.1268C75.442 44.0668 80.3821 41.2146 81.54 40.5462C81.6198 40.5001 81.6116 40.3629 81.5276 40.3404C81.1876 40.1818 80.5588 39.7995 80.044 38.9079L77.7389 34.9153C77.6259 34.7196 77.7453 34.2195 78.28 33.1478C78.743 32.2594 78.1253 31.3739 78.1253 31.3739L74.8751 25.7444C74.8443 25.6911 74.7604 25.6686 74.7071 25.6994L73.6158 26.3294C73.5626 26.3602 73.5401 26.4441 73.5708 26.4974L76.1833 31.0223C76.214 31.0755 76.812 32.487 75.6408 33.1632L69.6949 36.5961C69.235 36.8616 68.5606 36.9671 67.723 35.5164L65.2796 31.2843C65.2489 31.2311 65.1649 31.2086 65.1117 31.2393L64.047 31.854C64.0526 31.833 64.0301 31.917 64.0608 31.9702Z" fill="#525258" stroke="#313135" stroke-width="0.963856" stroke-miterlimit="3.99393" stroke-linecap="round"/>
<path d="M77.7097 23.9485L78.7744 23.3338C78.9607 23.2263 79.1993 23.3014 79.2992 23.4745L83.1948 30.2219C83.3024 30.4082 83.2272 30.6468 83.0542 30.7467L81.9895 31.3614C81.8032 31.469 81.5646 31.3938 81.4647 31.2208L77.569 24.4733C77.4692 24.3003 77.4967 24.0715 77.7097 23.9485Z" fill="#525258" stroke="#313136" stroke-width="0.963856" stroke-miterlimit="3.99393" stroke-linecap="round"/>
<path d="M5.38024 75.5216C5.38024 75.5216 7.97375 73.6516 8.84201 75.1555C9.71027 76.6593 6.80419 77.6806 6.80419 77.6806C6.80419 77.6806 10.3448 82.1842 10.5314 82.9992C10.7257 83.8275 8.85071 83.1001 8.85071 83.1001C8.85071 83.1001 1.36344 74.0966 1.22347 73.4853C1.22347 73.4853 1.19505 72.6677 1.48302 71.8449C1.63545 71.402 2.26823 71.3916 2.45319 71.8349C2.77344 72.6969 3.56075 73.9991 5.38024 75.5216Z" fill="#3E3E43" stroke="#313135" stroke-width="0.963856" stroke-miterlimit="3.99393" stroke-linecap="round"/>
<path d="M35.9621 62.07C37.0352 61.4504 37.4029 60.0782 36.7833 59.0051C36.1637 57.932 34.7916 57.5643 33.7184 58.1838C32.6453 58.8034 32.2776 60.1756 32.8972 61.2487C33.5168 62.3218 34.889 62.6895 35.9621 62.07Z" fill="#525258" stroke="#313136" stroke-width="0.963856" stroke-miterlimit="3.99393" stroke-linecap="round"/>
<path d="M73.5591 36.4938C73.4121 36.5787 73.3618 36.7666 73.4466 36.9136C73.5315 37.0606 73.7195 37.111 73.8665 37.0261L76.2886 35.6277C76.4356 35.5428 76.486 35.3549 76.4011 35.2079C76.3163 35.0608 76.1283 35.0105 75.9813 35.0954L73.5591 36.4938Z" fill="#777781"/>
<path d="M74.274 37.7321C74.127 37.8169 74.0766 38.0049 74.1615 38.1519C74.2464 38.2989 74.4343 38.3493 74.5813 38.2644L77.0035 36.866C77.1505 36.7811 77.2009 36.5931 77.116 36.4461C77.0311 36.2991 76.8431 36.2488 76.6961 36.3336L74.274 37.7321Z" fill="#777781"/>
<path d="M75.0181 39.0778C74.8711 39.1626 74.8208 39.3506 74.9056 39.4976C74.9905 39.6446 75.1785 39.695 75.3255 39.6101L77.7476 38.2117C77.8946 38.1268 77.945 37.9388 77.8601 37.7918C77.7752 37.6448 77.5873 37.5945 77.4403 37.6793L75.0181 39.0778Z" fill="#777781"/>
<path d="M75.7232 40.3034C75.5762 40.3882 75.5258 40.5762 75.6107 40.7232C75.6956 40.8702 75.8835 40.9206 76.0306 40.8357L78.4527 39.4373C78.5997 39.3524 78.6501 39.1644 78.5652 39.0174C78.4803 38.8704 78.2924 38.8201 78.1454 38.9049L75.7232 40.3034Z" fill="#777781"/>
<path d="M75.9517 41.7145C75.8047 41.7994 75.7543 41.9873 75.8392 42.1343C75.9241 42.2813 76.1121 42.3317 76.2591 42.2468L79.6128 40.3105C79.7598 40.2257 79.8102 40.0377 79.7253 39.8907C79.6404 39.7437 79.4525 39.6933 79.3055 39.7782L75.9517 41.7145Z" fill="#777781"/>
<path d="M44.5815 58.5632C43.4654 58.8243 39.1976 61.1603 39.1976 61.1603L39.0144 61.2661C38.9036 61.6387 38.7966 62.3098 39.1674 62.9522C39.7207 63.9104 39.5457 64.4373 39.5457 64.4373C39.5457 64.4373 39.0636 69.5954 38.9587 71.2885C38.8538 72.9816 40.4132 73.0395 40.4132 73.0395L44.4009 73.0618C44.4009 73.0618 46.3057 72.3347 45.7898 71.1952C45.2662 70.0425 45.4394 69.1439 45.4394 69.1439C45.4394 69.1439 45.4843 63.8123 45.5125 62.4474C45.5541 61.0748 45.2295 60.9428 45.2295 60.9428C44.6099 59.9838 44.4738 59.1951 44.5815 58.5632Z" fill="#71553D" stroke="#423223" stroke-width="0.481928" stroke-miterlimit="3.99393" stroke-linecap="round"/>
<path d="M36.5346 56.7338C36.5346 56.7338 36.9012 56.877 37.7264 56.4007L59.3528 43.9146L59.61 43.0386L66.857 38.7481L66.9341 38.5013C66.9178 38.4803 66.909 38.4695 66.909 38.4695L66.0562 36.9922C65.9178 36.7527 65.6316 36.6872 65.4054 36.8179L36.6589 53.4146C36.5791 53.4607 36.5146 53.5335 36.4501 53.6062C36.3983 53.6814 36.3246 53.7867 36.2373 53.9112C35.9831 54.2741 35.6143 54.8005 35.3422 55.2218C34.8822 55.931 35.2683 56.1694 35.2683 56.1694C35.2683 56.1694 35.8478 56.4011 36.5254 56.7354L36.5346 56.7338Z" fill="#806145"/>
<path fill-rule="evenodd" clip-rule="evenodd" d="M38.4146 57.9581C38.22 57.6212 37.5768 57.3061 36.971 56.9638C36.8221 56.8843 36.6729 56.8082 36.5282 56.7368C36.5282 56.7368 36.904 56.8784 37.7291 56.402L59.3556 43.916L59.6128 43.04L67.0244 38.6544C67.3784 39.1101 71.2964 44.319 66.0693 47.0311C66.0693 47.0311 64.4785 48.0561 62.7312 48.1954C60.9916 48.348 56.151 51.5509 56.151 51.5509L46.2804 56.5221C46.2804 56.5221 44.8233 57.1517 44.5828 58.5636C43.4667 58.8247 39.0157 61.2665 39.0157 61.2665C39.142 59.8418 39.0548 59.0671 38.4146 57.9581Z" fill="#775A40" stroke="#423223" stroke-width="0.481928" stroke-miterlimit="3.99393" stroke-linecap="round"/>
<path d="M85.721 26.3329L84.4611 24.1506L96.4932 17.2036L97.738 19.3596L85.721 26.3329Z" fill="#3E3E43" stroke="#313135" stroke-width="0.963856" stroke-miterlimit="3.99393"/>
<path d="M65.592 47.0937C66.1212 46.7881 66.3025 46.1114 65.997 45.5822C65.6915 45.053 65.0148 44.8717 64.4856 45.1772C63.9564 45.4828 63.775 46.1595 64.0806 46.6887C64.3861 47.2179 65.0628 47.3992 65.592 47.0937Z" fill="#56422E"/>
<path d="M36.9693 56.9634C37.5751 57.3057 38.1675 57.6557 38.4129 57.9577C38.9993 58.6661 39.1239 60.9719 39.1239 60.9719C39.1239 60.9719 38.6138 61.9939 39.167 62.9522C39.7203 63.9104 39.5453 64.4372 39.5453 64.4372C39.5453 64.4372 39.0632 69.5954 38.9583 71.2885C38.8534 72.9816 40.4128 73.0395 40.4128 73.0395L44.4005 73.0618C44.4005 73.0618 46.3053 72.3347 45.7894 71.1952C45.2658 70.0424 45.439 69.1439 45.439 69.1439C45.439 69.1439 45.4839 63.8123 45.5121 62.4474C45.5537 61.0748 45.2291 60.9428 45.2291 60.9428C43.2253 57.841 46.2787 56.5217 46.2787 56.5217L56.1493 51.5504C56.1493 51.5504 60.9899 48.3476 62.7295 48.195C64.4768 48.0557 66.0676 47.0307 66.0676 47.0307C71.5293 44.1968 66.9101 38.4704 66.9101 38.4704L66.0572 36.9932C65.9189 36.7536 65.6327 36.6882 65.4065 36.8188L36.66 53.4156C36.5801 53.4617 36.5156 53.5344 36.4512 53.6072C36.2485 53.9016 35.7086 54.6569 35.3433 55.2228C34.8832 55.932 35.2693 56.1704 35.2693 56.1704C35.2693 56.1704 36.1229 56.5116 36.9693 56.9634Z" stroke="#423223" stroke-width="0.963856" stroke-miterlimit="3.99393" stroke-linecap="round"/>
</g>
<defs>
<clipPath id="clip0_619_1193">
<rect width="110" height="110" fill="white" transform="translate(0.0859375)"/>
</clipPath>
</defs>
</svg>