<?xml version="1.0" encoding="UTF-8" standalone="no"?>
<!-- Generator: Adobe Illustrator 27.0.0, SVG Export Plug-In . SVG Version: 6.00 Build 0)  -->

<svg
   version="1.1"
   id="Layer_1"
   x="0px"
   y="0px"
   viewBox="0 0 110 110"
   xml:space="preserve"
   sodipodi:docname="mp40.svg"
   width="110"
   height="110"
   inkscape:version="1.1.2 (0a00cf5339, 2022-02-04)"
   xmlns:inkscape="http://www.inkscape.org/namespaces/inkscape"
   xmlns:sodipodi="http://sodipodi.sourceforge.net/DTD/sodipodi-0.dtd"
   xmlns="http://www.w3.org/2000/svg"
   xmlns:svg="http://www.w3.org/2000/svg"><defs
   id="defs81" /><sodipodi:namedview
   id="namedview79"
   pagecolor="#505050"
   bordercolor="#ffffff"
   borderopacity="1"
   inkscape:pageshadow="0"
   inkscape:pageopacity="0"
   inkscape:pagecheckerboard="1"
   showgrid="false"
   height="281.8px"
   inkscape:zoom="6.8046876"
   inkscape:cx="24.982778"
   inkscape:cy="49.671641"
   inkscape:window-width="2560"
   inkscape:window-height="1372"
   inkscape:window-x="0"
   inkscape:window-y="0"
   inkscape:window-maximized="1"
   inkscape:current-layer="Layer_1" />
<style
   type="text/css"
   id="style2">
	.st0{fill:none;stroke:#333334;stroke-width:8;stroke-linecap:round;stroke-miterlimit:15.12;}
	.st1{fill:#3F4242;stroke:#313535;stroke-width:8;stroke-linecap:round;stroke-miterlimit:15.12;}
	.st2{fill:none;stroke:#313535;stroke-width:8;stroke-linecap:round;stroke-miterlimit:15.12;}
	.st3{fill:none;stroke:#333334;stroke-width:4;stroke-linecap:round;stroke-miterlimit:15.12;}
	.st4{fill:#545556;stroke:#333334;stroke-width:4;stroke-linecap:round;stroke-miterlimit:15.12;}
	.st5{fill:#545556;stroke:#333334;stroke-width:8;stroke-linecap:round;stroke-miterlimit:15.12;}
	.st6{fill:none;stroke:#7B7B7D;stroke-width:4;stroke-linecap:round;stroke-miterlimit:15.12;}
	.st7{fill:#806145;stroke:#423223;stroke-width:8;stroke-linecap:round;stroke-miterlimit:15.12;}
	.st8{fill:#806145;stroke:#423223;stroke-width:4;stroke-linecap:round;stroke-miterlimit:15.12;}
	.st9{fill:#423223;stroke:#423223;stroke-width:8;stroke-linecap:round;stroke-miterlimit:15.12;}
	.st10{fill:#FFFFFF;stroke:#000000;stroke-width:8;stroke-miterlimit:10;}
</style>





<g
   id="g1096"
   transform="translate(0.48071505,8.827502)"><path
     class="st0"
     d="m 45.281678,56.176698 c 0,0 -0.475389,2.750612 1.957228,2.79953"
     id="path4"
     style="stroke-width:1.243;stroke-miterlimit:15.12;stroke-dasharray:none" /><g
     id="Layer_3"
     transform="matrix(0.13457318,-0.07769586,0.07769586,0.13457318,-38.488811,23.026151)">
	<path
   class="st1"
   d="m 302.8,394.4 c 0,0 -58.5,25.6 -3.5,76.7 55,51.1 40.2,-42.5 40.2,-42.5 z"
   id="path6" />
	<path
   class="st1"
   d="m 350.9,381.1 h -34.3 c 0,0 -13.6,2 -14,13.3 -0.4,11.3 -1.2,18.1 4.7,18.1 l 39.4,1.4 v -32.8 z"
   id="path8" />
	<path
   class="st1"
   d="m 773,416 v 18.2 c 0,1 1.2,1.4 1.8,0.8 l 20.7,-17.2 c 0.8,-0.6 0.2,-2 -0.8,-1.8 H 774 c -0.6,0 -1,-2.2 -1,0 z"
   id="path10" />
	<line
   class="st2"
   x1="324.60001"
   y1="384.79999"
   x2="324.60001"
   y2="412.10001"
   id="line12" />
	<polygon
   class="st1"
   points="666.3,386.4 346.9,386.4 346.9,421.3 537.5,425.6 666.1,425.6 681.9,415.3 772.6,415.1 772.6,399.5 681.9,398.9 "
   id="polygon14" />
	<rect
   x="772.59998"
   y="397.5"
   class="st1"
   width="65"
   height="19.1"
   id="rect16" />
	<line
   class="st3"
   x1="623.09998"
   y1="408.39999"
   x2="640.70001"
   y2="408.39999"
   id="line18" />
	<path
   class="st1"
   d="m 816.7,384.8 0.4,-8.2 c 0,-1.4 1.2,-2.5 2.5,-2.5 h 11.7 c 1.4,0 2.5,1.2 2.5,2.5 l -0.4,18.3 c 0,1.4 -1.2,2.5 -2.5,2.5 h -16.8 c -2.1,0 -9.6,-0.4 -8,-2 l 10.1,-9.2 c 0.5,-0.2 0.5,-0.8 0.5,-1.4 z"
   id="path20" />
	<path
   class="st0"
   d="m 339.4,477.5 c 0,0 6.6,9.6 29.5,9.6 0,0 24.6,2.9 24.6,-16.2 0,-19.1 32.2,-15.8 32.2,-15.8"
   id="path22" />
	<path
   class="st3"
   d="m 653.3,397.3 h 12.5 c 0,0 5.3,8.8 0,19.1 h -12.5"
   id="path24" />
	<rect
   x="850.5"
   y="397.5"
   class="st1"
   width="2.5"
   height="19.1"
   id="rect26" />
	<rect
   x="841.09998"
   y="402.60001"
   class="st1"
   width="3.9000001"
   height="10.5"
   id="rect28" />
	<path
   class="st4"
   d="m 667,421.9 c 0,0 1.4,-2.7 -1.2,-3.9"
   id="path30" />
	<polyline
   class="st5"
   points="656.3,386.4 656.3,397.5 656.3,425.6  "
   id="polyline32" />
	<path
   class="st3"
   d="m 668.1,391.3 c 0,0 0.4,3.1 -2.3,6"
   id="path34" />
	<line
   class="st2"
   x1="681.90002"
   y1="401.79999"
   x2="681.90002"
   y2="413.29999"
   id="line36" />
	<line
   class="st2"
   x1="676"
   y1="396.10001"
   x2="676"
   y2="417.39999"
   id="line38" />
	<line
   class="st2"
   x1="818.70001"
   y1="416.39999"
   x2="818.70001"
   y2="398"
   id="line40" />
</g><g
     id="Nail_on_bits_idk"
     transform="matrix(0.13457318,-0.07769586,0.07769586,0.13457318,-38.488811,23.026151)">
	<rect
   x="572.79999"
   y="479.79999"
   class="st1"
   width="33.599998"
   height="142.60001"
   id="rect43" />
	<path
   class="st5"
   d="m 541.8,376.6 v 60.7 0.2 c 0.2,1.2 2.9,12.3 16.2,12.3 14,0 11.9,17 11.9,17 0,0 0.4,15 -4.1,15 -3.9,0 37.9,0 46.6,0 0.6,0 1,-0.8 0.6,-1.2 -1.4,-2 -3.7,-6.2 -3.7,-12.9 v -30 0 c 0,-0.2 2.3,-3.9 8.8,-8.2 5.5,-3.5 4.7,-9.6 4.9,-10.1 0,0 0,-0.2 0,-0.4 v -42.3 c 0,-0.4 -0.4,-0.8 -0.8,-0.8 H 614 c -0.4,0 -0.8,0.4 -0.8,0.8 v 34 0 c 0,0.4 -0.8,11.3 -9.6,11.3 -8.8,0 -43.9,-1 -45.1,-1 v 0 c -0.6,-0.2 -7.6,-1.6 -7.6,-12.5 v -31.8 c 0,-0.4 -0.4,-0.8 -0.8,-0.8 h -8 c 0.1,-0.1 -0.3,0.3 -0.3,0.7 z"
   id="path45" />
	<path
   class="st5"
   d="m 644.8,375.8 h 8 c 1.4,0 2.5,1.2 2.5,2.5 V 429 c 0,1.4 -1.2,2.5 -2.5,2.5 h -8 c -1.4,0 -2.5,-1.2 -2.5,-2.5 v -50.7 c 0,-1.3 0.9,-2.5 2.5,-2.5 z"
   id="path47" />
	<path
   class="st1"
   d="m 69.4,431.1 c 0,0 20.7,-2.1 20.7,9.2 0,11.3 -19.7,7.6 -19.7,7.6 0,0 5.3,36.9 3.7,42.1 -1.6,5.3 -9.8,-4.9 -9.8,-4.9 0,0 -12.9,-75.1 -11.7,-79 0,0 2.5,-4.7 6.8,-8.4 2.3,-2 5.9,0 5.5,3.1 -1,5.9 -0.8,15.8 4.5,30.3 z"
   id="path49" />
	<line
   class="st0"
   x1="274.89999"
   y1="440.20001"
   x2="81.900002"
   y2="440.20001"
   id="line51" />
	<circle
   class="st5"
   cx="285.5"
   cy="440.20001"
   r="14.6"
   id="circle53" />
</g><g
     id="Garnish"
     transform="matrix(0.13457318,-0.07769586,0.07769586,0.13457318,-38.488811,23.026151)">
	<line
   class="st6"
   x1="580.59998"
   y1="435"
   x2="598.79999"
   y2="435"
   id="line56" />
	<line
   class="st6"
   x1="580.59998"
   y1="444.29999"
   x2="598.79999"
   y2="444.29999"
   id="line58" />
	<line
   class="st6"
   x1="580.40002"
   y1="454.29999"
   x2="598.59998"
   y2="454.29999"
   id="line60" />
	<line
   class="st6"
   x1="580.40002"
   y1="463.5"
   x2="598.59998"
   y2="463.5"
   id="line62" />
	<line
   class="st6"
   x1="577.09998"
   y1="472.20001"
   x2="602.29999"
   y2="472.20001"
   id="line64" />
</g><g
     id="Wood"
     transform="matrix(0.13457318,-0.07769586,0.07769586,0.13457318,-38.488811,23.026151)">
	<path
   class="st7"
   d="m 307.8,429.3 c 2.3,3.9 4.5,7.8 4.9,10.3 1,5.9 -5.9,18.5 -5.9,18.5 l 0.1,0.8 c 0,0 -6.2,4.1 -6.2,11.3 0,7.2 -2.7,9.6 -2.7,9.6 0,0 -19.5,27.5 -25.6,36.7 -6.1,9.2 2.5,14.6 2.5,14.6 l 22.4,13.1 c 0,0 13.1,2.1 13.9,-6 0.8,-8.2 4.7,-12.7 4.7,-12.7 0,0 17.6,-29.9 22.2,-37.5 4.7,-7.6 3.3,-9.4 3.3,-9.4 -1.2,-24 20.3,-21.5 20.3,-21.5 l 71.8,4.1 c 0,0 37.7,-2.3 48,2.5 10.3,4.9 22.6,4.3 22.6,4.3 40,1.8 32.6,-45.5 32.6,-45.5 v -11.1 c 0,-1.8 -1.4,-3.1 -3.1,-3.1 h -216 c -0.6,0 -1.2,0.2 -1.8,0.4 -2.1,1 -7.6,3.5 -11.5,5.5 -4.9,2.5 -3.5,5.1 -3.5,5.1 0,0 3.7,4.7 7,10"
   id="path67" />
	<path
   class="st8"
   d="m 306.1,426.6 c 0,0 1.6,2 7.8,2 h 162.5 l 4.3,-4.1 54.8,-0.6 1.6,-1.2"
   id="path69" />
	<path
   class="st8"
   d="m 306.7,460.2 c -0.7,0 39.5,0.9 40.2,3.7"
   id="path71" />
	<circle
   class="st9"
   cx="501.20001"
   cy="459.60001"
   r="7.1999998"
   id="circle73" />
</g></g><path
   class="st10"
   d="M 16.063742,108.50123"
   id="path76" />
</svg>
