<svg xmlns="http://www.w3.org/2000/svg" xml:space="preserve" width="101.634" height="98.904" viewBox="0 0 26.891 26.168"><g style="display:inline" transform="matrix(1 0 0 1 86.213 -198.401)"><path d="M141.767-44.092s-.073-.072-.145 0 0 .145 0 .145l-.109.109s-.072-.073-.145 0c-.072.072 0 .144 0 .144l-.108.11s-.073-.073-.145 0c-.073.071 0 .144 0 .144l-.109.109s-.072-.073-.145 0c-.072.072 0 .144 0 .144l-.109.11s-.072-.073-.145 0c-.072.071 0 .144 0 .144l-.108.109s-.073-.073-.145 0c-.073.072 0 .144 0 .144l-.109.11s-.072-.073-.145 0c-.072.071 0 .144 0 .144l-.108.109s-.073-.073-.145 0c-.073.072 0 .144 0 .144s-.182.182.18.544c.363.362.544.18.544.18s.073.073.145 0c.073-.072 0-.144 0-.144l.109-.109s.072.073.145 0c.072-.072 0-.145 0-.145l.109-.108s.072.072.144 0c.073-.073 0-.145 0-.145l.11-.109s.072.073.144 0c.073-.072 0-.145 0-.145l.109-.108s.072.072.145 0c.072-.073 0-.145 0-.145l.108-.109s.073.073.145 0c.073-.072 0-.145 0-.145l.11-.108s.072.072.144 0c.072-.073 0-.145 0-.145l.109-.109s.072.073.145 0c.072-.072 0-.145 0-.145l.108-.108s.073.072.145 0c.073-.073 0-.145 0-.145l.109-.109s.072.073.145 0c.072-.072 0-.145 0-.145l.109-.108s.072.072.145 0c.072-.073 0-.145 0-.145l.108-.109s.073.073.145 0c.073-.072 0-.145 0-.145l3.84-3.838s.907-.906-.47-2.282-2.283-.47-2.283-.47l2.03 2.027-4.602 4.6s-.073-.073-.145 0c-.073.072 0 .144 0 .144z" style="display:inline;fill:#4d4d4d;fill-opacity:1;stroke:#262626;stroke-width:.529167;stroke-linecap:round;stroke-miterlimit:5;stroke-dasharray:none;stroke-opacity:1" transform="translate(-301.332 282.717) scale(1.63627)"/><path d="m143.397-46.084-.326.326 1.16 1.16.326-.327zm-.688.688-.326.326 1.16 1.16.325-.327z" style="display:inline;fill:#737373;fill-opacity:1;stroke:#262626;stroke-width:.264583;stroke-linecap:round;stroke-miterlimit:5;stroke-dasharray:none;stroke-opacity:1" transform="translate(-301.332 282.717) scale(1.63627)"/><path d="m143.18-45.65-.362.363.942.942.362-.363z" style="display:inline;fill:#737373;fill-opacity:1;stroke:#262626;stroke-width:.264583;stroke-linecap:round;stroke-miterlimit:5;stroke-dasharray:none;stroke-opacity:1" transform="translate(-301.332 282.717) scale(1.63627)"/><path d="m143.483-49.789-1.268 1.267-1.123 1.992-8.95 8.945s-.833.833-.145 1.521c.689.688 1.522-.145 1.522-.145l7.972-7.967s.253.109.76.109c.508 0 .689-.326.689-.326l-.689-.688 1.16-1.159 1.522 1.521s.253.254 1.16-.652c.905-.905.651-1.159.651-1.159zm-9.927 12.168c.18.181 0 .362 0 .362l-.725.725s-.181.18-.362 0c-.182-.182 0-.363 0-.363l.724-.724s.181-.181.363 0z" style="display:inline;fill:#e50000;fill-opacity:1;stroke:#600;stroke-width:.529167;stroke-linecap:round;stroke-miterlimit:5;stroke-dasharray:none;stroke-opacity:1" transform="translate(-301.332 282.717) scale(1.63627)"/><path d="M145.881-49.234h-.29v-.29h-.29v-.29h-.29v-.29h-.289v-.29h-.29v-.289h-.29l.037-.253.217-.218 1.993 1.992.217.218s.218.217 0 .434c-.217.217-.435 0-.435 0-.108-.109 0-.434 0-.434h-.29zM143.976-50.367v.29h.29v.29h.29v.29h.29v.29h.29v.29h.29v.289h.29v.29l-.218.217-2.03-2.028.218-.217z" style="display:inline;fill:#262626;fill-opacity:1;stroke:#4d4d4d;stroke-width:0;stroke-linecap:round;stroke-miterlimit:5;stroke-dasharray:none;stroke-opacity:1" transform="translate(-301.332 282.717) scale(1.63627)"/><path d="M134.013-38.08s.254.253.507 0l6.812-6.809s.254-.253 0-.507c-.253-.253-.507 0-.507 0l-6.812 6.809s-.254.253 0 .507z" style="display:inline;fill:#900000;fill-opacity:1;stroke:#333;stroke-width:0;stroke-linecap:round;stroke-miterlimit:5;stroke-dasharray:none;stroke-opacity:1" transform="translate(-301.332 282.717) scale(1.63627)"/><path d="M140.136-42.028s-.072.073.073.218c.145.144.217.072.217.072l1.124-1.123s.072-.072-.073-.217c-.145-.145-.217-.072-.217-.072z" style="display:inline;fill:gray;fill-opacity:1;stroke:#333;stroke-width:0;stroke-linecap:round;stroke-miterlimit:5;stroke-dasharray:none;stroke-opacity:1" transform="translate(-301.332 282.717) scale(1.63627)"/><circle cx="67.036" cy="-135.81" r=".102" style="display:inline;fill:#595959;fill-opacity:1;stroke:#262626;stroke-width:.264583;stroke-linecap:round;stroke-miterlimit:5;stroke-dasharray:none;stroke-opacity:1" transform="scale(1.63667 1.63586) rotate(45 -300.674 -135.832)"/></g></svg>