<?xml version="1.0" encoding="UTF-8" standalone="no"?>
<svg
   width="110"
   height="110"
   viewBox="0 0 110 110"
   fill="none"
   version="1.1"
   id="svg50"
   sodipodi:docname="pp19.svg"
   inkscape:version="1.3.2 (1:1.3.2+202311252150+091e20ef0f)"
   xmlns:inkscape="http://www.inkscape.org/namespaces/inkscape"
   xmlns:sodipodi="http://sodipodi.sourceforge.net/DTD/sodipodi-0.dtd"
   xmlns="http://www.w3.org/2000/svg"
   xmlns:svg="http://www.w3.org/2000/svg">
  <sodipodi:namedview
     id="namedview50"
     pagecolor="#505050"
     bordercolor="#ffffff"
     borderopacity="1"
     inkscape:showpageshadow="0"
     inkscape:pageopacity="0"
     inkscape:pagecheckerboard="1"
     inkscape:deskcolor="#d1d1d1"
     inkscape:zoom="7.6431815"
     inkscape:cx="50.110023"
     inkscape:cy="60.773122"
     inkscape:window-width="2560"
     inkscape:window-height="1368"
     inkscape:window-x="0"
     inkscape:window-y="0"
     inkscape:window-maximized="1"
     inkscape:current-layer="svg50" />
  <g
     clip-path="url(#clip0_1714_788)"
     id="g50"
     transform="matrix(1.0232126,0,0,1.0232126,-1.7606431,0.42728358)">
    <path
       d="m 73.7343,30.4708 c 0,0 0.9598,1.4451 1.1443,1.7647 0.1845,0.3196 0.5896,1.1147 0.5896,1.1147 l 0.6942,1.2023 c 0,0 1.1375,2.0505 1.3763,2.4641 0.2387,0.4136 0.3952,1.0752 0.3952,1.0752 l 0.9588,-0.5535 c 0,0 0.4967,-0.3119 0.1653,-0.9728 -0.3315,-0.6609 -2.0819,-3.7362 -2.0819,-3.7362 l 0.7332,-0.4233 -1.4219,-2.4628 -0.9208,0.5317 c 0,0 -0.4716,-0.643 -0.928,-0.3917 z"
       fill="#4a4a43"
       stroke="#363631"
       stroke-width="1.09257"
       stroke-miterlimit="3.99393"
       id="path1" />
    <path
       d="m 30.0878,61.8804 9.5253,-5.4992 0.1292,-0.7491 6.6626,-3.8466 c -0.0251,-0.18 -0.0211,-0.3729 -0.0103,-0.6126 0.0052,-0.1147 0.0222,-0.2503 0.0409,-0.3993 0.038,-0.3025 0.083,-0.6604 0.0501,-1.0126 -0.0164,-0.176 -0.0303,-0.3254 -0.0303,-0.415 0,-0.3572 0.3529,-0.5609 0.3529,-0.5609 l 4.4133,-2.5481 c 0.9635,-0.5562 1.5198,0.4073 1.5198,0.4073 l 0.9343,1.6181 4.0603,-2.3442 -0.3155,-0.5464 -2.6879,1.5518 -1.9404,-3.3607 -20.8123,12.016 c 0,0 -0.6122,0.3516 -0.701,0.9346 -0.026,0.1704 -0.1658,0.6582 -0.3427,1.2754 -0.4281,1.4934 -1.0733,3.7447 -0.8483,4.0915 z"
       fill="#6b6b61"
       id="path2" />
    <path
       fill-rule="evenodd"
       clip-rule="evenodd"
       d="m 78.5456,31.9222 -0.8366,0.483 -1.4219,-2.4628 0.8727,-0.5289 -0.2554,-0.5294 c -0.1386,-0.2834 -0.3985,-1.2112 -0.403,-1.6097 -0.0045,-0.3985 0.2493,-0.545 0.7663,-0.8435 0.517,-0.2985 0.7792,-0.3872 1.0635,-0.0249 0.1395,0.1777 0.3645,0.6079 0.6428,1.1403 0.2889,0.5526 0.6353,1.2151 1.0035,1.8196 0.7228,1.1869 1.5393,2.5578 1.5393,2.5578 l -2.2331,1.2769 z m 1.5979,-1.659 -0.7653,-1.3104 c -1.0635,0.614 -1.0855,0.6974 -0.9435,0.9434 0.0239,0.0412 0.0524,0.0994 0.0854,0.1664 0.1636,0.3329 0.4357,0.8863 0.7729,0.6916 z"
       fill="#57574f"
       id="path3" />
    <path
       d="m 32.4809,55.3091 -0.077,-1.3638 1.0225,-0.5904 0.601,1.041 z"
       fill="#5e5e55"
       stroke="#363631"
       stroke-width="0.546283"
       stroke-miterlimit="3.99393"
       id="path4" />
    <path
       d="m 34.3691,52.8105 0.601,1.0409 0.7909,-0.4566 -0.6009,-1.0409 z"
       fill="#5e5e55"
       stroke="#363631"
       stroke-width="0.546283"
       stroke-miterlimit="3.99393"
       id="path5" />
    <path
       d="m 36.0977,51.8125 0.6009,1.0409 0.791,-0.4567 -0.601,-1.0409 z"
       fill="#5e5e55"
       stroke="#363631"
       stroke-width="0.546283"
       stroke-miterlimit="3.99393"
       id="path6" />
    <path
       d="m 37.8262,50.8145 0.6009,1.0409 0.791,-0.4567 -0.601,-1.0409 z"
       fill="#5e5e55"
       stroke="#363631"
       stroke-width="0.546283"
       stroke-miterlimit="3.99393"
       id="path7" />
    <path
       d="m 39.5547,49.8174 0.6009,1.0409 0.791,-0.4567 -0.601,-1.0409 z"
       fill="#5e5e55"
       stroke="#363631"
       stroke-width="0.546283"
       stroke-miterlimit="3.99393"
       id="path8" />
    <path
       d="m 41.2812,48.8193 0.601,1.0409 0.7909,-0.4566 -0.6009,-1.0409 z"
       fill="#5e5e55"
       stroke="#363631"
       stroke-width="0.546283"
       stroke-miterlimit="3.99393"
       id="path9" />
    <path
       d="m 43.0117,47.8213 0.601,1.0409 0.7909,-0.4567 -0.6009,-1.0409 z"
       fill="#5e5e55"
       stroke="#363631"
       stroke-width="0.546283"
       stroke-miterlimit="3.99393"
       id="path10" />
    <path
       d="m 44.7363,46.8223 0.601,1.0409 0.7909,-0.4567 -0.6009,-1.0409 z"
       fill="#5e5e55"
       stroke="#363631"
       stroke-width="0.546283"
       stroke-miterlimit="3.99393"
       id="path11" />
    <path
       d="m 63.6973,47.2021 0.5251,0.9096 0.7909,-0.4567 -0.5251,-0.9095 z"
       fill="#505048"
       stroke="#363631"
       stroke-width="0.546283"
       stroke-miterlimit="3.99393"
       id="path12" />
    <path
       d="m 75.8477,40.1855 0.5251,0.9096 1.4556,-0.8405 -0.5251,-0.9095 z"
       fill="#505048"
       stroke="#363631"
       stroke-width="0.546283"
       stroke-miterlimit="3.99393"
       id="path13" />
    <path
       d="m 46.4648,45.8252 0.601,1.0409 0.791,-0.4567 -0.601,-1.0409 z"
       fill="#5e5e55"
       stroke="#363631"
       stroke-width="0.546283"
       stroke-miterlimit="3.99393"
       id="path14" />
    <path
       d="m 48.1934,44.8271 0.6009,1.0409 0.791,-0.4566 -0.601,-1.0409 z"
       fill="#5e5e55"
       stroke="#363631"
       stroke-width="0.546283"
       stroke-miterlimit="3.99393"
       id="path15" />
    <path
       d="m 65.4277,46.2041 0.5251,0.9095 0.791,-0.4566 -0.5251,-0.9096 z"
       fill="#505048"
       stroke="#363631"
       stroke-width="0.546283"
       stroke-miterlimit="3.99393"
       id="path16" />
    <path
       d="m 74.1211,41.1855 0.5251,0.9096 0.7909,-0.4567 -0.5251,-0.9095 z"
       fill="#505048"
       stroke="#363631"
       stroke-width="0.546283"
       stroke-miterlimit="3.99393"
       id="path17" />
    <path
       d="m 49.9219,43.8291 0.6009,1.0409 2.5206,-1.4552 -0.601,-1.0409 z"
       fill="#5e5e55"
       stroke="#363631"
       stroke-width="0.546283"
       stroke-miterlimit="3.99393"
       id="path18" />
    <path
       d="m 44.4238,59.6564 c 0.0758,0.2508 0.0882,0.2938 -0.1703,0.443 -0.2585,0.1493 -0.1665,0.1024 0.119,0.7272 0.2855,0.6247 0.4329,1.2505 1.2708,1.4847 0.6875,0.1921 1.5995,0.3173 1.5995,0.3173 0,0 -0.974,0.625 -1.8936,0.4541 -0.9196,-0.1709 -1.5148,-1.0932 -1.7465,-1.5923 -0.2318,-0.4991 -0.5981,-0.5258 -0.8707,-0.3684 -0.2726,0.1574 -0.5792,0.397 -0.6837,0.3571 -0.1045,-0.0399 -0.1852,-0.1688 -0.1852,-0.1688 z"
       fill="#43433f"
       stroke="#363631"
       stroke-width="0.546283"
       stroke-miterlimit="3.99393"
       id="path19" />
    <path
       d="m 52.4285,42.2862 -0.7566,-1.0342 0.8176,-0.2417 0.1854,0.2704 c 0,0 0.9429,-0.4787 1.0278,-0.6694 0.0848,-0.1908 0.0627,-0.4439 0.7746,-0.5004 0.7118,-0.0565 1.0666,-0.3323 1.7349,-0.7712 0.6682,-0.439 0.7903,-0.8109 1.2567,-0.832 0.4663,-0.0211 1.0398,0.4809 1.0398,0.4809 z"
       fill="#707065"
       stroke="#363631"
       stroke-width="0.546283"
       stroke-miterlimit="3.99393"
       id="path20" />
    <path
       d="m 52.8012,43.578 1.9316,3.3457 7.8583,-4.537 -2.4418,-4.2293 -7.3591,4.2487 0.5102,0.8837 z"
       fill="#53534b"
       stroke="#363631"
       stroke-width="1.09257"
       stroke-miterlimit="3.99393"
       id="path21" />
    <path
       d="m 51.6572,55.0108 c 1.6598,2.3755 2.2638,3.1611 2.2537,3.3173 -0.0101,0.1563 -0.1065,0.5754 0.4095,0.3402 0.5159,-0.2352 4.0882,-2.5358 4.7512,-2.9938 0.6631,-0.458 0.7646,-0.6295 0.378,-0.6695 -0.3865,-0.04 -0.9432,-0.4831 -1.2724,-0.9448 -0.3292,-0.4617 -0.7716,-0.9457 -0.4528,-1.3053 0.4191,-0.4725 1.3,-1.0263 1.3,-1.0263 l -0.6059,-1.0928 z"
       fill="#66665c"
       stroke="#363631"
       stroke-width="1.09257"
       stroke-miterlimit="3.99393"
       id="path22" />
    <path
       d="m 54.8728,58.3592 c 0,0 2.5035,-1.5429 3.2799,-2.0709 0.7764,-0.528 0.9642,-0.6631 0.9642,-0.6631 0,0 4.3502,5.0161 9.3411,8.7957 4.4863,3.3976 5.6852,4.0185 5.6852,4.0185 l -3.1409,4.6866 c 0,0 -1.1622,-1.0306 -1.5407,-1.3793 -0.3785,-0.3486 -2.0267,-1.9139 -2.6988,-2.3413 -0.6721,-0.4273 -5.4876,-4.347 -8.0658,-6.9707 -2.5782,-2.6236 -3.8242,-4.0755 -3.8242,-4.0755 z"
       fill="#474743"
       stroke="#363631"
       stroke-width="1.09257"
       stroke-miterlimit="3.99393"
       id="path23" />
    <path
       d="m 60.1484,38.1572 1.748,3.0276 13.5709,-7.8351 c -0.7822,-1.4394 -1.5018,-2.507 -1.7339,-2.8793 0,0 -1.5015,0.7857 -3.2232,1.7546 -1.7216,0.969 -4.3081,2.4371 -4.3081,2.4371 z"
       fill="#40403a"
       stroke="#363631"
       stroke-width="1.09257"
       stroke-miterlimit="3.99393"
       id="path24" />
    <path
       d="m 33.8294,66.4879 7.7151,-4.9807 c 0,0 1.5535,2.3868 1.7088,2.786 0.1552,0.3991 -0.0946,0.5309 -0.5563,0.8601 -0.4616,0.3292 -0.4217,0.8325 -0.2127,1.8023 0.2089,0.9697 1.5183,6.5807 1.822,7.6712 0.3038,1.0905 0.1822,1.0103 0.6348,1.6639 0.4526,0.6537 0.9159,1.0003 0.4456,1.51 -0.4702,0.5096 -0.9442,0.7958 -1.692,0.9768 -0.7477,0.1811 -3.2216,0.9326 -4.476,1.0176 -1.2543,0.085 -1.4353,-0.3369 -1.4176,-1.5002 0.0177,-1.1633 -0.3901,-7.7961 -0.3611,-8.5273 0.0291,-0.7312 -0.6514,-1.7796 -1.1375,-2.1006 -0.4861,-0.3209 -0.8478,-0.5132 -1.3081,-0.4856 -0.4603,0.0277 -0.6067,0.0997 -0.776,-0.1284 -0.1693,-0.2282 -0.389,-0.5651 -0.389,-0.5651 z"
       fill="#4b4b44"
       stroke="#363631"
       stroke-width="1.09257"
       stroke-miterlimit="3.99393"
       id="path25" />
    <path
       d="m 50.2458,55.9007 -2.5396,1.6354 c 0,0 1.3187,1.9726 2.0741,3.2896 0.0154,0.0288 0.0359,0.0717 0.0555,0.1255 0.3323,0.8143 -0.5748,1.3237 -2.2651,2.5829 -2.5153,1.7674 -2.7217,1.7821 -3.967,0.952 -0.1992,-0.1996 -0.4684,-0.4359 -0.4684,-0.4359 0,0 0.15,0.1784 0.1525,0.3239 l 0.0138,0.8062 c 1.1696,0.9729 2.0383,0.7407 2.889,0.2495 0.6972,-0.4025 2.5762,-1.7871 3.3859,-2.4062 0.8213,-0.628 1.0787,-1.0615 1.1199,-1.5989 0.02,-0.2606 -0.1642,-0.8703 -0.1642,-0.8703 l 0.4585,-0.3024 c 0,0 -0.6536,-0.0361 -1.0163,-0.4471 -0.3626,-0.411 -0.4546,-1.2542 -0.0217,-1.5355 0.433,-0.2812 0.803,-0.6389 0.8573,-0.9899 0.0543,-0.3509 -0.5642,-1.3788 -0.5642,-1.3788 z"
       fill="#53534c"
       stroke="#363631"
       stroke-width="0.546283"
       stroke-miterlimit="3.99393"
       id="path26" />
    <path
       d="M 51.6562,55.0096 50.246,55.899 c 0,0 0.3747,0.5732 0.517,1.0802 0.1422,0.5069 -0.1368,0.7619 -0.3768,0.9757 -0.24,0.2138 -0.6884,0.3599 -0.6992,0.786 -0.0109,0.4262 -0.0234,0.4585 0.1431,0.801 0.1664,0.3426 0.375,0.4977 0.6313,0.5942 0.2562,0.0964 0.5295,0.1142 0.5295,0.1142 0,0 1.6125,-1.0062 1.7448,-1.0701 0.1324,-0.0639 0.293,0.0191 0.4575,-0.0759 0.1645,-0.0949 0.7404,-0.4214 0.7404,-0.4214 0,0 -0.0529,-0.1135 -0.0199,-0.2517 0.0331,-0.1381 -0.1375,-0.3903 -0.2148,-0.5024 -0.0772,-0.1121 -2.0427,-2.9192 -2.0427,-2.9192 z"
       fill="#5e5e55"
       stroke="#363631"
       stroke-width="0.546283"
       stroke-miterlimit="3.99393"
       id="path27" />
    <path
       d="m 52.6719,59.2406 0.1392,1.6304 0.7248,-0.1148 -0.1445,-1.759 c -0.4068,0.2059 -0.674,0.221 -0.7195,0.2434 z"
       fill="#4a4a46"
       stroke="#363631"
       stroke-width="0.546283"
       stroke-miterlimit="3.99393"
       id="path28" />
    <path
       d="m 28.2109,62.9844 3.4167,5.6136 1.7473,-1.8243 -3.2774,-4.8785 z"
       fill="#4d4d46"
       stroke="#363631"
       stroke-width="1.09257"
       stroke-miterlimit="3.99393"
       id="path29" />
    <path
       d="M 28.348,63.2792 3.57078,78.6183 4.99305,79.9529 27.6387,65.6 29.1713,68.1242 9.99942,88.0275 10.5546,89.9101 c 0,0 2.8533,-2.3032 4.6338,-4.3769 1.7805,-2.0737 16.28,-17.1748 16.28,-17.1748 z"
       fill="#5c5c53"
       stroke="#363631"
       stroke-width="1.09257"
       stroke-miterlimit="3.99393"
       id="path30" />
    <path
       d="m 3.57149,78.6173 1.5308,1.5226 0.22445,0.2151 c 0,0 -0.2693,0.2933 -0.02276,0.6335 0.24654,0.3402 1.83169,2.4757 2.85865,4.3465 1.02695,1.8709 0.74019,1.6812 1.08262,1.8291 l 0.34241,0.148 1.17494,2.956 c 0,0 -0.4448,0.3808 -0.91804,0.5743 C 9.37133,91.0359 8.67756,89.9741 8.3979,89.3823 8.11823,88.7904 6.85008,86.2497 5.41307,84.0213 3.97606,81.7928 2.83629,80.7087 2.4752,80.0398 2.1141,79.371 2.27351,79.1912 2.61191,78.9958 l 0.88966,-0.5136 z"
       fill="#474741"
       stroke="#363631"
       stroke-width="1.09257"
       stroke-miterlimit="3.99393"
       id="path31" />
    <path
       d="m 77.7196,34.1156 0.9434,1.699 0.78,-0.4503 -0.1303,-0.2256 0.7145,-0.4125 0.3093,0.5357 2.344,-1.3534 -0.1411,-0.2444 -1.0223,-1.741 z"
       fill="#42423e"
       stroke="#363631"
       stroke-width="1.09257"
       stroke-miterlimit="3.99393"
       id="path32" />
    <path
       d="m 79.3791,28.953 0.7653,1.3103 -0.8504,0.491 c -0.4052,0.2339 -0.7162,-0.6119 -0.8583,-0.858 -0.1421,-0.246 -0.1201,-0.3293 0.9434,-0.9433 z"
       stroke="#363631"
       stroke-width="0.546283"
       stroke-miterlimit="3.99393"
       id="path33" />
    <path
       d="M 57.738,45.9182 30.0898,61.8809 33.3671,66.7593 59.8998,49.6627 Z"
       fill="#64645a"
       id="path34" />
    <path
       d="m 52.8882,51.4522 c -0.0633,0.0366 -0.1188,0.0852 -0.1633,0.1432 -0.0445,0.0579 -0.0771,0.1241 -0.0961,0.1947 -0.0189,0.0706 -0.0237,0.1442 -0.0141,0.2167 0.0095,0.0724 0.0332,0.1423 0.0698,0.2056 0.0365,0.0633 0.0852,0.1188 0.1431,0.1633 0.058,0.0445 0.1242,0.0771 0.1948,0.096 0.0706,0.0189 0.1442,0.0238 0.2167,0.0142 0.0724,-0.0095 0.1423,-0.0333 0.2056,-0.0698 l 1.5018,-0.8671 c 0.0633,-0.0365 0.1187,-0.0851 0.1632,-0.1431 0.0445,-0.058 0.0772,-0.1242 0.0961,-0.1948 0.0189,-0.0706 0.0237,-0.1442 0.0142,-0.2166 C 55.2104,50.922 55.1867,50.8521 55.1501,50.7889 55.1136,50.7256 55.065,50.6701 55.007,50.6256 54.949,50.5811 54.8829,50.5484 54.8123,50.5295 54.7417,50.5106 54.668,50.5058 54.5956,50.5153 54.5231,50.5249 54.4533,50.5486 54.39,50.5852 Z"
       fill="#515149"
       stroke="#363631"
       stroke-width="0.546283"
       stroke-miterlimit="3.99393"
       stroke-linecap="round"
       id="path35" />
    <path
       d="m 76.1608,34.551 -18.7409,10.8201 2.4856,4.3052 c 0,0 0.3307,0.4857 1.5542,0.1303 1.2236,-0.3555 1.2101,-0.7486 1.7161,-1.3917 0.506,-0.6431 0.7904,-1.4853 1.9035,-2.128 1.1783,-0.6803 10.7452,-6.2025 11.919,-6.9054 1.1547,-0.6917 1.0911,-1.453 0.7854,-1.9824 -0.1698,-0.294 -0.7227,-1.2966 -1.6229,-2.8481 z"
       fill="#46463f"
       stroke="#363631"
       stroke-width="1.09257"
       stroke-miterlimit="3.99393"
       id="path36" />
    <path
       d="m 74.0156,44.44 c -0.039,0.0313 -0.0781,0.062 -0.1171,0.0921 -0.0428,0.0329 -0.0854,0.0652 -0.128,0.0968 -0.0426,0.0315 -0.0851,0.0622 -0.1274,0.0923 -0.0423,0.0299 -0.0844,0.0596 -0.1262,0.0883 -0.042,0.0284 -0.0835,0.0566 -0.1247,0.0839 -0.0412,0.0274 -0.0822,0.054 -0.1227,0.0799 -0.0405,0.0258 -0.0804,0.0513 -0.12,0.0756 -0.0395,0.0246 -0.0786,0.0484 -0.117,0.0718 -0.0384,0.0233 -0.0764,0.0459 -0.1138,0.0675 -0.0745,0.0436 -0.1462,0.0845 -0.2148,0.1228 -0.0686,0.0384 -0.1343,0.0739 -0.1958,0.107 -0.0615,0.0331 -0.1193,0.0634 -0.1724,0.0914 -0.1064,0.056 -0.195,0.1016 -0.2608,0.1374 -0.0658,0.0356 -0.1666,0.0907 -0.2941,0.1594 -0.0637,0.0343 -0.1341,0.0719 -0.2104,0.1121 -0.0761,0.0403 -0.1584,0.0826 -0.2452,0.1271 -0.0868,0.0446 -0.1783,0.0909 -0.2737,0.1383 -0.0954,0.0473 -0.1948,0.0957 -0.2968,0.1444 -0.1021,0.0486 -0.2068,0.0976 -0.3134,0.1461 -0.0534,0.0242 -0.1072,0.0482 -0.1613,0.0721 -0.0542,0.0239 -0.1087,0.0474 -0.1634,0.0707 -0.0547,0.0234 -0.1095,0.0467 -0.1645,0.0693 -0.055,0.0226 -0.1099,0.0447 -0.165,0.0664 -0.055,0.0217 -0.1853,0.0863 -0.2402,0.107 -0.0548,0.0206 -0.1639,0.0598 -0.1639,0.0598 0.0466,0.086 0.2096,0.2809 0.2096,0.2809 0.6671,1.2789 2.2275,4.5595 2.9408,6.0478 0.1577,0.3344 0.2544,0.4206 1.3343,0.0807 1.08,-0.3399 2.799,-1.2616 3.1559,-1.503 0.3569,-0.2415 0.2287,-0.7704 -0.0517,-1.3174 -0.2683,-0.5236 -2.6077,-5.388 -2.8672,-5.8873 z"
       fill="#40403a"
       stroke="#363631"
       stroke-width="1.09257"
       stroke-miterlimit="3.99393"
       id="path37" />
    <path
       d="m 73.8628,41.2282 -6.5835,3.8185 c 0.3596,1.2812 2.2204,1.8298 2.2538,1.8106 l 0.091,-0.0397 c 0,0 0.1099,-0.0419 0.165,-0.0636 0.055,-0.0217 0.1099,-0.0438 0.1649,-0.0664 0.055,-0.0226 0.1099,-0.0459 0.1646,-0.0692 0.0546,-0.0234 0.1092,-0.047 0.1633,-0.0708 0.0541,-0.0239 0.108,-0.0479 0.1613,-0.0721 0.1067,-0.0485 0.2114,-0.0975 0.3134,-0.1461 0.102,-0.0487 0.2014,-0.0971 0.2968,-0.1444 0.0954,-0.0474 0.1869,-0.0938 0.2737,-0.1383 0.0868,-0.0446 0.169,-0.087 0.2453,-0.1271 0.0762,-0.0404 0.1466,-0.0778 0.2104,-0.1121 0.1274,-0.0687 0.2283,-0.1237 0.2941,-0.1594 0.0658,-0.0356 0.1542,-0.0815 0.2607,-0.1374 0.0533,-0.0277 0.1108,-0.0585 0.1724,-0.0914 0.0616,-0.0331 0.1272,-0.0686 0.1958,-0.107 0.0686,-0.0384 0.1403,-0.0792 0.2149,-0.1228 0.0372,-0.0218 0.0751,-0.0446 0.1137,-0.0675 0.0384,-0.0234 0.0775,-0.0471 0.117,-0.0718 0.0395,-0.0246 0.0797,-0.0496 0.1201,-0.0756 0.0405,-0.0258 0.0814,-0.0525 0.1226,-0.0799 0.0412,-0.0274 0.0828,-0.0553 0.1247,-0.0839 0.042,-0.0285 0.084,-0.0582 0.1263,-0.0883 0.0424,-0.0299 0.0847,-0.0608 0.1273,-0.0923 0.0426,-0.0315 0.0852,-0.0638 0.128,-0.0968 0,0 0.0781,-0.0608 0.1171,-0.0921 0,0 -0.0872,-0.1753 -0.0872,-0.1859 -0.0011,-0.2475 0.4193,-1.4472 0.3639,-1.9115 -0.0553,-0.4644 -0.4314,-1.1157 -0.4314,-1.1157 z"
       fill="#46463f"
       stroke="#363631"
       stroke-width="1.09257"
       stroke-miterlimit="3.99393"
       id="path38" />
    <path
       d="m 71.3945,44.8674 c 0.2268,-0.131 0.3045,-0.4209 0.1736,-0.6477 -0.1309,-0.2268 -0.4209,-0.3045 -0.6477,-0.1736 -0.2268,0.131 -0.3045,0.4209 -0.1736,0.6477 0.131,0.2268 0.421,0.3045 0.6477,0.1736 z"
       fill="#65655c"
       stroke="#363630"
       stroke-width="0.546283"
       stroke-miterlimit="3.99393"
       stroke-linecap="round"
       id="path39" />
    <path
       d="m 78.5456,31.9222 -0.8366,0.483 -1.4219,-2.4628 0.8727,-0.5289 -0.2554,-0.5294 c -0.1386,-0.2834 -0.3985,-1.2112 -0.403,-1.6097 -0.0045,-0.3985 0.2493,-0.545 0.7663,-0.8435 0.517,-0.2985 0.7792,-0.3872 1.0635,-0.0249 0.1395,0.1777 0.3645,0.6079 0.6428,1.1403 0.2889,0.5526 0.6353,1.2151 1.0035,1.8196 0.7228,1.1869 1.5393,2.5578 1.5393,2.5578 l -2.2331,1.2769 z"
       stroke="#363631"
       stroke-width="1.09257"
       stroke-miterlimit="3.99393"
       id="path40" />
    <path
       d="m 86.7726,26.7868 -6.2081,3.5843 2.7978,4.846 6.2355,-3.6001 0.0932,-0.2181 -2.624,-4.5448 z"
       fill="#44443d"
       stroke="#363631"
       stroke-width="1.09257"
       stroke-miterlimit="3.99393"
       id="path41" />
    <path
       d="m 100.322,19.2004 -13.2556,7.6531 2.624,4.5448 13.2556,-7.6531 z"
       fill="#505048"
       stroke="#363631"
       stroke-width="1.09257"
       stroke-miterlimit="3.99393"
       id="path42" />
    <path
       d="m 100.322,19.2002 2.624,4.5448 5.533,-3.1946 -2.624,-4.5448 z"
       fill="#4c4c44"
       stroke="#363631"
       stroke-width="1.09257"
       stroke-miterlimit="3.99393"
       id="path43" />
    <path
       d="m 46.4062,51.7851 -6.6626,3.8467 -0.1293,0.7491 6.9903,-4.0355 c -0.1147,-0.1987 -0.1724,-0.3721 -0.1984,-0.5603 z"
       fill="#3b3b35"
       id="path44" />
    <path
       d="m 30.9359,57.789 c -0.428,1.4934 -1.073,3.745 -0.8479,4.0917 L 33.3651,66.7592 59.8979,49.6626 57.4202,45.3719 54.7323,46.9237 52.792,43.563 31.9796,55.579 c 0,0 -0.6122,0.3516 -0.701,0.9346 -0.026,0.1704 -0.1658,0.6582 -0.3427,1.2754 z"
       stroke="#363631"
       stroke-width="1.09257"
       stroke-miterlimit="3.99393"
       id="path45" />
    <path
       d="m 30.0878,61.8804 9.5253,-5.4992 0.1292,-0.7491 6.6626,-3.8466 c -0.0251,-0.18 -0.0211,-0.3729 -0.0103,-0.6126 0.0052,-0.1147 0.0222,-0.2503 0.0409,-0.3993 0.038,-0.3025 0.083,-0.6604 0.0501,-1.0126 -0.0164,-0.176 -0.0303,-0.3254 -0.0303,-0.415 0,-0.3572 0.3529,-0.5609 0.3529,-0.5609 l 4.4133,-2.5481 c 0.9635,-0.5562 1.5198,0.4073 1.5198,0.4073 l 0.9343,1.6181 4.0603,-2.3442 -0.3155,-0.5464 -2.6879,1.5518 -1.9404,-3.3607 -20.8123,12.016 c 0,0 -0.6122,0.3516 -0.701,0.9346 -0.026,0.1704 -0.1658,0.6582 -0.3427,1.2754 -0.4281,1.4934 -1.0733,3.7447 -0.8483,4.0915 z"
       stroke="#363631"
       stroke-width="0.546283"
       stroke-miterlimit="3.99393"
       id="path46" />
    <path
       fill-rule="evenodd"
       clip-rule="evenodd"
       d="m 53.6761,48.2631 -7.0723,4.0832 c -0.2241,-0.3881 -0.2308,-0.6828 -0.2086,-1.1727 0.0157,-0.3476 0.14,-0.8861 0.091,-1.4119 -0.0164,-0.1761 -0.0303,-0.3254 -0.0303,-0.415 0,-0.3572 0.3529,-0.5609 0.3529,-0.5609 l 4.4133,-2.5481 c 0.9635,-0.5562 1.5198,0.4073 1.5198,0.4073 z"
       fill="#79796d"
       stroke="#363631"
       stroke-width="0.546283"
       stroke-miterlimit="3.99393"
       id="path47" />
    <path
       d="m 53.4391,48.2623 c 0.3808,-0.2199 0.5113,-0.7069 0.2914,-1.0877 -0.2199,-0.3809 -0.7069,-0.5114 -1.0878,-0.2915 -0.3808,0.2199 -0.5113,0.7069 -0.2914,1.0878 0.2199,0.3808 0.7069,0.5113 1.0878,0.2914 z"
       fill="#42423d"
       stroke="#363631"
       stroke-width="0.556169"
       stroke-miterlimit="3.99393"
       stroke-linecap="round"
       id="path48" />
    <path
       d="M 57.738,45.9182 30.0898,61.8809 33.3671,66.7593 59.8998,49.6627 Z"
       stroke="#363631"
       stroke-width="0.546283"
       stroke-miterlimit="3.99393"
       id="path49" />
    <path
       fill-rule="evenodd"
       clip-rule="evenodd"
       d="m 48.0228,52.542 c -0.5817,0.1965 -0.7405,0.5419 -0.8802,0.7997 -0.1397,0.2578 -0.3969,0.3121 -0.3969,0.3121 l -3.8331,1.2748 c -0.7562,0.2555 -1.0848,0.5774 -1.6417,0.9436 -0.5567,0.3663 -0.6863,1.0784 -0.8934,1.4725 -0.2072,0.394 -0.4719,0.4235 -2.0861,0.9689 -0.5185,0.2241 -0.7785,0.8083 -0.5979,1.3435 0.1919,0.568 0.8102,0.85 1.3782,0.658 0.0664,-0.0224 0.2659,-0.1218 0.325,-0.1559 l 12.0485,-7.6066 -0.3538,-1.0472 z"
       fill="#4c4c44"
       stroke="#363631"
       stroke-width="0.546283"
       stroke-miterlimit="3.99393"
       stroke-linecap="round"
       id="path50" />
  </g>
  <defs
     id="defs50">
    <clipPath
       id="clip0_1714_788">
      <rect
         width="110"
         height="110"
         fill="white"
         id="rect50" />
    </clipPath>
  </defs>
</svg>
