<svg width="110" height="110" viewBox="0 0 110 110" fill="none" xmlns="http://www.w3.org/2000/svg">
<g clip-path="url(#clip0_531_318)">
<path fill-rule="evenodd" clip-rule="evenodd" d="M47.4071 57.8246C47.0394 58.1735 46.7262 58.4813 46.4583 58.7581C47.0944 58.6408 48.089 59.0057 48.3106 59.3895L48.5712 59.8409C48.8666 60.3525 49.955 60.8477 51.233 60.3506C51.9521 60.0709 52.9087 59.479 53.5503 59.0127C54.0873 58.6224 54.2328 57.4148 53.7811 56.6324L53.6421 56.3916C53.3546 55.8938 53.6885 54.6953 54.6237 53.658L47.4071 57.8246ZM52.065 59.4288C53.3464 58.7292 53.6343 57.5598 53.1999 56.8074C52.9568 56.3864 52.6277 56.0944 52.0929 56.002C51.6838 55.9313 51.1585 56.0198 50.4826 56.41C49.7152 56.8531 49.2647 57.3238 49.0104 57.8217C48.7562 58.3196 48.698 58.8448 48.9959 59.3951C49.2772 59.9148 49.7834 60.064 50.4989 60.0522C50.9454 60.0448 51.4175 59.785 51.9202 59.5083C51.9681 59.482 52.0165 59.4553 52.065 59.4288Z" fill="#57524F"/>
<path d="M47.4074 57.8249L42.0847 52.1503C40.2913 54.1162 37.1826 57.7845 35.8007 59.5581C34.8117 60.8274 31.9898 63.3733 31.5948 65.0065C31.1168 66.9831 32.4741 68.2918 33.6893 69.0971C34.3533 69.5371 34.8 68.1355 36.1929 67.94C37.5857 67.7446 38.1916 68.7707 38.3063 69.6031C38.8147 73.2928 37.8704 77.6154 38.3354 79.2079C38.465 79.6515 38.6938 79.8596 39.0606 79.727C41.5127 78.8405 43.3054 78.2208 46.023 77.2637C46.6998 77.0253 47.1217 76.7066 46.9576 76.1697C46.7935 75.6329 45.8435 76.0243 45.7726 75.6336C45.0442 71.6209 44.179 64.83 44.5911 62.5584C44.9273 60.7056 44.8149 60.2848 47.4074 57.8249Z" fill="#282624" stroke="#363230" stroke-width="1.0379"/>
<path d="M62.5212 39.8691L104.37 15.7075L105.865 18.2957L93.9601 25.1688L64.6063 43.4806L62.5212 39.8691Z" fill="#635D5A" stroke="#363230" stroke-width="1.0379"/>
<path d="M47.4071 57.8249L42.0844 52.1503C43.4443 50.683 44.9614 49.3658 45.7209 48.9272L62.0024 39.5271C62.1353 39.4503 62.3053 39.4959 62.3821 39.6288L66.3785 46.5507C66.4552 46.6837 66.4097 46.8537 66.2767 46.9305L64.471 47.973L64.3146 47.7022C64.1611 47.4362 63.821 47.3451 63.5551 47.4986L56.2721 51.7035C56.0062 51.857 55.915 52.1971 56.0686 52.463L56.2249 52.7339L47.4071 57.8249Z" fill="#736C68"/>
<path d="M48.8489 58.238C48.8859 58.0973 48.9409 57.9586 49.0107 57.822C49.233 57.3866 49.6054 56.9719 50.2085 56.5784C49.571 57.3857 49.5464 58.0192 49.738 58.5256C49.8876 58.9208 50.0126 59.2097 50.514 59.5221C50.702 59.6393 50.5189 59.9477 50.3648 59.8892C49.8326 59.6871 49.5171 59.5285 49.267 59.2389C49.0512 58.9889 48.9433 58.6746 48.8489 58.238Z" fill="#44403E" stroke="#363230" stroke-width="0.518949"/>
<rect width="37.9479" height="2.98857" transform="matrix(0.866025 -0.5 0.5 0.866026 64.7454 43.7227)" fill="#534E4B" stroke="#363230" stroke-width="1.0379"/>
<path d="M77.538 35.8543C77.1732 35.2223 77.18 34.9411 77.6695 34.414L95.6062 24.0583C96.1746 23.9308 96.7964 24.1737 97.1439 24.7756L98.7077 27.4842C99.0204 28.0259 99.0102 28.6337 98.56 29.1745L80.6234 39.5302C80.1282 39.6791 79.71 39.6162 79.4841 39.2249L77.538 35.8543Z" fill="#282624" stroke="#363330" stroke-width="1.0379"/>
<path d="M96.7219 22.9315L98.1665 22.0975L98.931 23.4217L101.339 22.0316L100.852 21.1889L103.5 19.6599L103.605 19.8405C103.605 19.8405 102.917 20.3177 102.714 21.0772C102.51 21.8367 102.719 22.1979 102.719 22.1979L103.622 23.7628L102.659 24.3188L103.285 25.4023L99.3121 27.6958L97.3661 24.3252L97.4865 24.2557L96.7219 22.9315Z" fill="#5C5653" stroke="#363230" stroke-width="1.0379"/>
<path fill-rule="evenodd" clip-rule="evenodd" d="M46.4218 58.7663C46.7373 58.4623 47.066 58.1492 47.4073 57.8253L54.6239 53.6588C53.6887 54.6961 53.3549 55.8946 53.6423 56.3924L53.7813 56.6332C54.233 57.4157 54.0876 58.6232 53.5505 59.0135C52.909 59.4798 51.9523 60.0717 51.2332 60.3514C49.9552 60.8485 48.8668 60.3533 48.5714 59.8417L48.3108 59.3903C48.0849 58.9991 47.0556 58.6275 46.4218 58.7663ZM53.2001 56.8082C53.6345 57.5606 53.3466 58.73 52.0652 59.4297C52.0167 59.4562 51.9684 59.4827 51.9204 59.5091C51.4177 59.7858 50.9456 60.0456 50.4991 60.053C49.7836 60.0648 49.2774 59.9156 48.9961 59.3959C48.6982 58.8456 48.7564 58.3205 49.0107 57.8226C49.2649 57.3247 49.7154 56.8539 50.4828 56.4108C51.1588 56.0206 51.684 55.9321 52.0931 56.0028C52.628 56.0952 52.957 56.3872 53.2001 56.8082Z" stroke="#363230" stroke-width="0.518949"/>
<path fill-rule="evenodd" clip-rule="evenodd" d="M47.4071 57.8249L42.0844 52.1503C43.4443 50.683 44.9614 49.3658 45.7209 48.9272L62.0024 39.5271C62.1353 39.4503 62.3053 39.4959 62.3821 39.6288L66.3785 46.5507C66.4552 46.6837 66.4097 46.8537 66.2767 46.9305L64.471 47.973L64.3146 47.7022C64.1611 47.4362 63.821 47.3451 63.5551 47.4986L56.2721 51.7035C56.0062 51.857 55.915 52.1971 56.0686 52.463L56.225 52.7339L54.6238 53.6583C53.6886 54.6956 53.3547 55.8942 53.6421 56.392L53.7811 56.6328C54.2329 57.4152 54.0874 58.6228 53.5504 59.0131C52.9088 59.4794 51.9522 60.0713 51.233 60.351C49.9551 60.8481 48.8667 60.3529 48.5713 59.8413L48.3107 59.3899C48.0891 59.0061 47.0944 58.6412 46.4584 58.7585C46.7262 58.4817 47.0394 58.1737 47.4071 57.8249Z" stroke="#363230" stroke-width="1.0379"/>
<path d="M6.35057 77.3116C6.11637 76.906 6.25535 76.3873 6.661 76.1531L49.9375 51.1673C50.3432 50.9331 50.8619 51.0721 51.0961 51.4778V51.4778C51.3303 51.8834 51.1913 52.4021 50.7857 52.6363L17.09 72.0905C16.0956 72.6646 15.5968 73.824 15.8637 74.9407L17.548 81.9888C17.8148 83.1056 17.316 84.265 16.3217 84.8391L12.8373 86.8508C12.4316 87.085 11.913 86.946 11.6788 86.5403V86.5403C11.4446 86.1347 11.5835 85.616 11.9892 85.3818L14.3778 84.0027C15.3722 83.4286 15.871 82.2692 15.6041 81.1525L14.6898 77.3264C14.2864 75.6384 12.3717 74.8146 10.8687 75.6824L7.50912 77.6221C7.10347 77.8563 6.58477 77.7173 6.35057 77.3116V77.3116Z" fill="#3E3B38" stroke="#363230" stroke-width="1.0379"/>
<path d="M44.1636 57.1119L43.1536 57.695C43.0184 57.7731 42.8455 57.7268 42.7675 57.5915L41.6366 55.6329C41.5586 55.4977 41.6049 55.3248 41.7401 55.2467L42.7501 54.6636C42.6789 54.4731 42.7536 54.2535 42.9355 54.1485L48.3218 51.0387C48.5038 50.9337 48.7312 50.9788 48.8606 51.1357L49.6941 50.6545C49.8294 50.5764 50.0023 50.6227 50.0803 50.7579L51.2111 52.7166C51.2892 52.8518 51.2429 53.0247 51.1077 53.1027L50.2742 53.584C50.3453 53.7745 50.2707 53.994 50.0887 54.0991L44.7024 57.2089C44.5205 57.3139 44.293 57.2688 44.1636 57.1119Z" fill="#504B49" stroke="#363230" stroke-width="0.518949"/>
<path d="M1.87302 73.5738C4.72231 71.5372 6.69609 70.4268 9.88717 68.9585C10.3071 68.7652 10.8099 68.8726 11.087 69.2425C11.5699 69.8872 11.8531 70.4465 12.0967 71.2317L16.432 89.3691C16.5237 89.7527 16.391 90.1571 16.0823 90.4025C14.9021 91.3408 14.0012 91.8666 12.67 92.3974C12.2426 92.5678 11.7565 92.4187 11.4849 92.0472C6.94848 85.8423 4.62429 81.8441 1.53227 74.8232C1.33643 74.3785 1.47773 73.8564 1.87302 73.5738Z" fill="#302E2B" stroke="#363230" stroke-width="1.0379"/>
<rect width="8.76384" height="1.41352" transform="matrix(0.866025 -0.5 0.5 0.866026 45.314 48.5088)" fill="#5D5E55" stroke="#353630" stroke-width="0.518949"/>
<path d="M51.7888 42.7084C52.0489 42.5583 52.277 42.55 52.5528 42.608C52.6981 42.6385 52.8691 42.6921 53.0491 42.7493C53.2206 42.8039 53.4127 42.8649 53.623 42.9161C54.5264 43.1357 55.7122 43.1571 57.5821 42.0776L62.0489 39.4987C62.0489 39.4987 62.0564 39.4946 62.0775 39.4907C62.0997 39.4866 62.1305 39.484 62.1731 39.4839C62.2379 39.4837 62.3056 39.4887 62.3886 39.4949C62.4234 39.4974 62.4609 39.5002 62.502 39.5029C62.7532 39.5192 63.1058 39.5299 63.4252 39.3455L101.753 17.2172C101.926 17.1168 102.004 16.9414 102.046 16.8258C102.068 16.7671 102.089 16.6951 102.105 16.6423C102.123 16.5838 102.138 16.5348 102.155 16.4903C102.191 16.3959 102.218 16.3689 102.23 16.3612C102.231 16.3603 102.266 16.3339 102.399 16.3695L102.546 15.8233C102.315 15.7616 102.1 15.771 101.922 15.8873C101.755 15.9959 101.673 16.1648 101.626 16.2902C101.601 16.3557 101.581 16.4227 101.564 16.4792C101.547 16.537 101.531 16.5886 101.515 16.631C101.489 16.7032 101.47 16.7252 101.467 16.729L63.1425 38.8558C62.9836 38.9476 62.7866 38.9548 62.5387 38.9387C62.5111 38.9369 62.4818 38.9347 62.4515 38.9324C62.3602 38.9257 62.2597 38.9182 62.1716 38.9185C62.0546 38.9188 61.9018 38.9307 61.7662 39.009L57.2994 41.5879C55.5448 42.6009 54.5072 42.5491 53.7566 42.3667C53.5656 42.3202 53.3899 42.2644 53.215 42.2088C53.0397 42.1531 52.8469 42.092 52.6691 42.0547C52.2988 41.9768 51.9193 41.9802 51.5061 42.2188L51.7888 42.7084Z" fill="#702929" stroke="#4A1C1C" stroke-width="0.518949"/>
<path d="M45.4368 48.4381L42.2757 45.6402C42.1131 45.5051 42.1508 45.2459 42.3452 45.1628L50.7993 41.5461C50.9309 41.4898 51.0733 41.5481 51.1553 41.6647L52.781 44.1977L45.4368 48.4381Z" fill="#6F705C" stroke="#353630" stroke-width="0.518949"/>
<path fill-rule="evenodd" clip-rule="evenodd" d="M102.427 16.5852C102.39 16.5203 102.38 16.4431 102.399 16.3707L102.546 15.8245C102.565 15.7521 102.612 15.6904 102.677 15.6529L105.415 14.0721C105.55 13.994 105.723 14.0404 105.801 14.1756L107.887 17.7872C107.972 17.9356 107.907 18.1255 107.749 18.1903L104.42 19.5484C104.29 19.6018 104.139 19.5504 104.069 19.428L102.427 16.5852Z" fill="#6F705C"/>
<path fill-rule="evenodd" clip-rule="evenodd" d="M102.427 16.5852C102.39 16.5203 102.38 16.4431 102.399 16.3707L102.546 15.8245C102.565 15.7521 102.612 15.6904 102.677 15.6529L105.415 14.0721C105.55 13.994 105.723 14.0404 105.801 14.1756L107.887 17.7872C107.972 17.9356 107.907 18.1255 107.749 18.1903L104.42 19.5484C104.29 19.6018 104.139 19.5504 104.069 19.428L102.427 16.5852Z" stroke="#353630" stroke-width="1.0379"/>
</g>
<defs>
<clipPath id="clip0_531_318">
<rect width="110" height="110" fill="white"/>
</clipPath>
</defs>
</svg>
