<svg xmlns="http://www.w3.org/2000/svg" width="98.477" height="25.145" viewBox="0 0 26.055 6.653"><path d="m166.097 53.303 7.372-.003v3.838l-7.372.006-.999-.954-.644-.008v-1.914l.644-.005z" style="fill:#3e3e41;fill-opacity:1;stroke:none;stroke-linejoin:round" transform="translate(-147.942 -51.895)"/><path d="M166.646 53.234v4.178h6.13v-4.157z" style="fill:#323234;fill-opacity:1;stroke:none;stroke-width:.44509;stroke-linejoin:round;stroke-dasharray:none;stroke-opacity:1" transform="translate(-147.942 -51.895)"/><path stroke="#161617" stroke-miterlimit="29" stroke-width=".736" d="m166.257 53.188 7.373-.003v4.068l-7.373.006-.998-1.069-.644-.008v-1.914l.644-.005z" style="fill:none;stroke-linejoin:round" transform="translate(-147.942 -51.895)"/><path fill="#323234" stroke="#161617" stroke-miterlimit="29" stroke-width=".855" d="M.441 4.642c0 .523.468.892 1.89.928 1.372.021 1.505.077 3.19-.889l.062-2.786c-1.707-.784-1.81-.823-3.238-.817-1.326.006-1.912.3-1.917.828z"/><path d="m158.074 52.424-.016 5.85-4.964.016-.02-.907-.229-.286-.004-3.42.221-.234.007-1.03z" style="fill:#61616b;fill-opacity:1;stroke:none;stroke-linejoin:round" transform="translate(-147.942 -51.895)"/><path d="m153.395 53.378.317.317v2.948l-.422.423h-.436v-3.688z" style="fill:#323234;fill-opacity:1;stroke:none;stroke-width:.396875;stroke-linejoin:round;stroke-dasharray:none;stroke-opacity:1" transform="translate(-147.942 -51.895)"/><g fill="#404040" style="fill:#323234;fill-opacity:1"><path d="M157.783 57.955h-2.947c-.252 0-.456.306-.456.684 0 .377.204.684.456.684h2.947zM157.783 52.852h-2.947c-.252 0-.456.306-.456.684s.204.684.456.684h2.947z" style="fill:#323234;fill-opacity:1;stroke-width:.291017" transform="translate(-147.942 -52.76)"/></g><path stroke="#171717" stroke-miterlimit="29" stroke-width=".777" d="m158.06 52.294-.017 5.849-4.995.017v-1.044l-.109-.143-.108-.143-.004-3.284.22-.234v-1.028l5.012.01z" style="fill:none;stroke-linejoin:round" transform="translate(-147.942 -51.895)"/><path d="M150.612 54.33c.147-.006.344-.588.892-.625l.936.304h.448l.44.355 4.776.007.305-.356 5.656.007.525.723-.01 1.1-.534.784-5.637-.01-.305-.389-4.776-.012-.45.388h-.438l-.925.277c-.52.156-.875-.46-.907-.608-.132-.622-.704-1.92.003-1.946z" style="fill:#55555e;fill-opacity:1;stroke:none;stroke-linejoin:round" transform="translate(-147.942 -51.895)"/><g style="fill:#2f2f36;fill-opacity:1"><g style="fill:#464649;fill-opacity:1"><path d="M-127.947 54.197h-11.62" style="color:#000;fill:#464649;fill-opacity:1;stroke-linejoin:round;-inkscape-stroke:none" transform="matrix(-.40751 0 0 1 -40.612 -50.857)"/><path d="M-141.051 53.535v1.322h13.574v-1.322z" style="color:#000;fill:#464649;fill-opacity:1;stroke-width:1.1459;stroke-linejoin:round;-inkscape-stroke:none" transform="matrix(-.40751 0 0 1 -40.612 -50.857)"/></g><g style="fill:#242429;fill-opacity:1"><path d="M-138.005 53.53v1.334M-138.402 53.53v1.333h.795V53.53z" style="color:#000;fill:#242429;fill-opacity:1;stroke-linejoin:round;-inkscape-stroke:none" transform="matrix(-1 0 0 1 -123.825 -50.857)"/></g><g style="fill:#242429;fill-opacity:1"><path d="M-136.563 53.53v1.334M-136.96 53.53v1.333h.794V53.53z" style="color:#000;fill:#242429;fill-opacity:1;stroke-linejoin:round;-inkscape-stroke:none" transform="matrix(-1 0 0 1 -123.72 -50.857)"/></g><g style="fill:#242429;fill-opacity:1"><path d="M-135.12 53.53v1.334M-135.518 53.53v1.333h.795V53.53z" style="color:#000;fill:#242429;fill-opacity:1;stroke-linejoin:round;-inkscape-stroke:none" transform="matrix(-1 0 0 1 -123.612 -50.857)"/></g></g><path d="M158.976 54.693h5.462v1.082h-5.462z" class="cls-3" style="fill:none;fill-opacity:1;fill-rule:evenodd;stroke:#151518;stroke-width:.396875;stroke-linecap:round;stroke-linejoin:round;stroke-miterlimit:5.89;stroke-dasharray:none;stroke-opacity:1" transform="translate(-147.942 -51.895)"/><path d="M152.233 54.04h.88l.306.305h4.181l.435-.435h.74v2.784h-.728l-.347-.6h-4.21l-.494.494h-.752z" style="fill:#494950;fill-opacity:1;stroke:none;stroke-width:.396875;stroke-linejoin:round;stroke-dasharray:none;stroke-opacity:1" transform="translate(-147.942 -51.895)"/><path stroke="#151518" stroke-miterlimit="29" stroke-width=".794" d="M150.661 54.256c.168-.322.344-.587.892-.625l.913.305h.449l.439.355 4.388.007.306-.414 5.88.006.7.588-.01 1.505-.708.573-5.862-.011-.306-.388-4.388-.012-.45.388h-.438l-.902.277c-.517.16-.823-.332-.948-.609-.247-.548-.255-1.37.045-1.945z" style="fill:none;stroke-linejoin:round" transform="translate(-147.942 -51.895)"/><path fill="#e1b651" d="M152.24 54.263v1.918zM159.254 54.263v1.918z" style="stroke-width:.264583" transform="translate(-147.942 -51.895)"/><path d="M150.727 54.69c-.545.018-.988.137-1.27.343v.378c.28.16.665.33 1.276.342h.429v-.149h1.075v-.796h-1.075v-.117z" style="fill:#3c3c44;fill-opacity:1;stroke:#151518;stroke-width:.396875;stroke-linejoin:round;stroke-dasharray:none;stroke-opacity:1" transform="translate(-147.942 -51.895)"/><path stroke="#151518" stroke-linejoin="round" stroke-miterlimit="29" stroke-width=".794" d="M4.014 1.686v3.28M10.958 2.015v2.546"/><path fill="#242428" d="M160.03 54.986v.471zM160.612 54.986v.471z" style="stroke-width:.264583" transform="translate(-147.942 -51.895)"/><path d="M151.969 54.722h.698v1.024h-.698z" class="cls-3" style="fill:#242429;fill-opacity:1;fill-rule:evenodd;stroke:#151518;stroke-width:.396875;stroke-linecap:round;stroke-linejoin:round;stroke-miterlimit:5.89;stroke-dasharray:none;stroke-opacity:1" transform="translate(-147.942 -51.895)"/><path d="M163.7 55.48h-.556c-.138 0-.252-.253-.252-.253s.114-.254.252-.254h.555c.138 0 .253.254.253.254s-.115.253-.253.253" class="cls-10" style="fill:#151518;fill-opacity:1;fill-rule:evenodd;stroke:none;stroke-width:2.6086px;stroke-linecap:round" transform="translate(-147.942 -51.895)"/><path d="M166.58 57.335v-4.298M172.79 57.28v-4.076" style="fill:none;fill-opacity:1;stroke:#161617;stroke-width:.396875;stroke-linejoin:round;stroke-dasharray:none;stroke-opacity:1" transform="translate(-147.942 -51.895)"/></svg>