<svg width="123" height="22" viewBox="0 0 123 22" fill="none" xmlns="http://www.w3.org/2000/svg">
<path d="M88.9111 5.99974H87.7917V7.11914V12.6401V13.7595H88.9111H89.135C89.8784 13.7595 90.4783 13.1563 90.4783 12.4162V7.34302C90.4783 6.97734 90.3308 6.64487 90.0957 6.40439C89.8489 6.15138 89.5055 5.99974 89.135 5.99974H88.9111ZM88.4939 7.96853C88.4929 7.96747 88.4919 7.96641 88.4908 7.96535C88.3367 7.80555 88.2395 7.58464 88.2395 7.34302V12.4162C88.2395 11.9997 88.5242 11.6483 88.9111 11.5488V12.4162V12.6401H89.135H90.0305V12.4162V7.34302V7.11914L88.4939 7.96853Z" stroke="#1C1712" stroke-width="2.2388"/>
<path d="M112.737 5.42188H90.2544C89.9483 5.42188 89.6781 5.57579 89.5165 5.80929C89.417 5.95359 89.3589 6.1285 89.3589 6.31739V13.4413C89.3589 13.9363 89.7599 14.3368 90.2544 14.3368H112.737V5.42188Z" fill="#AA5E13"/>
<path d="M112.737 14.3368V5.42188H120.03C120.525 5.42188 120.926 5.82241 120.926 6.31739V13.4413C120.926 13.5847 120.893 13.7194 120.833 13.8392C120.686 14.1339 120.382 14.3368 120.03 14.3368H112.737Z" fill="#A55C12"/>
<path d="M90.2544 5.42188H120.03C120.525 5.42188 120.926 5.82241 120.926 6.31739V13.4413C120.926 13.5847 120.892 13.7194 120.833 13.8392C120.686 14.1339 120.382 14.3368 120.03 14.3368H90.2544C89.7599 14.3368 89.3589 13.9363 89.3589 13.4413V6.31739C89.3589 6.1285 89.417 5.95359 89.5165 5.80929C89.6781 5.57579 89.9483 5.42188 90.2544 5.42188Z" stroke="#291705" stroke-width="3.58208"/>
<rect x="5.62793" y="4.17188" width="83.2833" height="11.4179" rx="2.2388" fill="#CC6600"/>
<path d="M48.7457 4.39648H36.4841V7.79973H35.4146V11.9624H36.4841V15.3648H48.7457V4.39648Z" fill="#534537" stroke="#1C1712" stroke-width="2.2388"/>
<rect x="77.6128" y="8.60742" width="3.30447" height="2.54576" rx="0.44776" fill="#AD5700"/>
<rect x="8.93213" y="8.60742" width="3.30447" height="2.54576" fill="#A35200"/>
<path d="M8.93213 6.50831C8.93213 6.26102 9.1326 6.06055 9.37989 6.06055H11.7888C12.0361 6.06055 12.2366 6.26102 12.2366 6.50831V8.60631H8.93213V6.50831Z" fill="#AD5700"/>
<path d="M8.93213 11.1523H12.2366V13.2503C12.2366 13.4976 12.0361 13.6981 11.7888 13.6981H9.37989C9.1326 13.6981 8.93213 13.4976 8.93213 13.2503V11.1523Z" fill="#AD5700"/>
<path d="M89.135 7.11914H88.9111V12.6401H89.135C89.2588 12.6401 89.3589 12.5395 89.3589 12.4162V7.34302C89.3589 7.2818 89.3344 7.22671 89.2948 7.18648C89.2542 7.1445 89.1975 7.11914 89.135 7.11914Z" fill="#4D4033"/>
<rect x="5.62793" y="4.17188" width="83.2833" height="11.4179" rx="2.2388" stroke="#2E1700" stroke-width="4.4776"/>
<path d="M3.46486 16.6531C2.97027 16.6531 2.56934 16.2522 2.56934 15.7576V3.60255C2.56934 3.10797 2.97027 2.70703 3.46486 2.70703H6.01599V16.6531H3.46486Z" fill="#854A0F"/>
<rect width="1.32568" height="12.355" transform="matrix(1 0 0 -1 23.9653 15.8594)" fill="#A05912"/>
<rect width="1.61732" height="10.0752" transform="matrix(1 0 0 -1 25.291 14.7188)" fill="#81470E"/>
<path d="M89.1979 16.8571C89.6925 16.8572 90.0935 16.4562 90.0935 15.9616V3.39943C90.0935 2.90484 89.6925 2.50391 89.198 2.50391H79.4646L67.3408 4.48394H26.9082V14.8771H67.3408L79.4646 16.8569L89.1979 16.8571Z" fill="#8B4D0F"/>
<path d="M16.1707 2.70822H6.01611V16.6543H16.1707L23.9655 15.4347V3.92778L16.1707 2.70822Z" fill="#8E4F10"/>
<rect width="0.647481" height="14.3533" transform="matrix(1 0 0 -1 84.8442 16.8574)" fill="#CCAA00"/>
<path d="M51.9867 15.9648H41.5181L40.6216 15.1026V4.07554C45.4201 3.50181 48.1048 3.50264 52.8833 4.07554V15.1026L51.9867 15.9648Z" fill="#9D5711"/>
<rect width="10.0382" height="1.73298" transform="matrix(1 0 0 -1 41.7334 17.6973)" fill="#A65C12"/>
<rect width="10.431" height="0.720336" transform="matrix(1 0 0 -1 41.5371 18.418)" fill="#A95E13"/>
<path d="M49.9908 19.5039H43.5143L41.9077 18.4181H51.5973L49.9908 19.5039Z" fill="#B26314"/>
<ellipse cx="5.01912" cy="5.01912" rx="5.01912" ry="5.01912" transform="matrix(1 0 0 -1 41.7334 14.5039)" fill="#A95E13"/>
<ellipse cx="3.12258" cy="3.12258" rx="3.12258" ry="3.12258" transform="matrix(1 0 0 -1 43.6299 12.6074)" fill="#B26314"/>
<path d="M41.9079 18.4177L43.5145 19.5035H49.9909L51.5975 18.4177L51.9679 18.4173V17.697H51.7717V15.9646L51.9868 15.9643L52.8834 15.102V14.8771H67.341L79.4648 16.8572H89.1982C89.6927 16.8572 90.0937 16.4562 90.0937 15.9616V3.39942C90.0937 2.90484 89.6927 2.50391 89.1981 2.50391H79.4648L67.341 4.48394H52.8834V4.07496C48.1049 3.50207 45.4202 3.50124 40.6217 4.07496V4.48394H26.9084V4.6429H25.2912L25.2911 3.50341H23.9654V3.92687L16.1706 2.70732L3.46486 2.70732C2.97027 2.70732 2.56934 3.10826 2.56934 3.60284V15.7579C2.56934 16.2525 2.97027 16.6534 3.46486 16.6534H16.1706L23.9654 15.4339V15.8585H25.2911L25.2912 14.7181H26.9084V14.8771H40.6217V15.102L41.5182 15.9643L41.7334 15.9646V17.697H41.5369V18.4173L41.9079 18.4177ZM41.9079 18.4177L41.5182 18.4173" stroke="#291704" stroke-width="4.4776"/>
<path d="M39.651 3.50586H32.645V16.2532H39.651V3.50586Z" fill="#634221" stroke="#22170B" stroke-width="4.4776"/>
<path d="M60.0099 3.50586H53.0039V16.2532H60.0099V3.50586Z" fill="#634221" stroke="#22170B" stroke-width="4.4776"/>
</svg>
