<svg width="110" height="110" viewBox="0 0 110 110" fill="none" xmlns="http://www.w3.org/2000/svg">
<g clip-path="url(#clip0_616_1147)">
<path d="M72.3398 26.9971L73.021 26.6038L76.8354 33.2105L76.1566 33.6079L72.3398 26.9971Z" fill="#3C4049"/>
<path fill-rule="evenodd" clip-rule="evenodd" d="M73.0176 26.6035L89.9334 16.8372L93.6887 23.3416L76.832 33.2102L73.0176 26.6035ZM75.9792 25.8776C75.804 25.9787 75.7026 26.1716 75.7186 26.3733C75.7492 26.7574 76.1698 26.9785 76.5035 26.7858L76.9386 26.5346C77.1138 26.4335 77.2152 26.2406 77.1991 26.0389C77.1686 25.6548 76.748 25.4337 76.4142 25.6264L75.9792 25.8776ZM78.8974 24.538C78.8814 24.3363 78.9828 24.1434 79.158 24.0423L79.5931 23.7911C79.9268 23.5984 80.3474 23.8195 80.378 24.2036C80.394 24.4053 80.2926 24.5982 80.1174 24.6993L79.6823 24.9505C79.3486 25.1432 78.928 24.9221 78.8974 24.538ZM82.3368 22.207C82.1616 22.3081 82.0602 22.501 82.0762 22.7027C82.1068 23.0868 82.5274 23.3079 82.8611 23.1152L83.2962 22.864C83.4714 22.7629 83.5728 22.57 83.5568 22.3683C83.5262 21.9842 83.1056 21.7631 82.7719 21.9558L82.3368 22.207ZM85.2551 20.8674C85.239 20.6657 85.3404 20.4729 85.5156 20.3717L85.9507 20.1205C86.2844 19.9278 86.705 20.1489 86.7356 20.5331C86.7516 20.7347 86.6502 20.9276 86.475 21.0287L86.04 21.2799C85.7062 21.4726 85.2856 21.2516 85.2551 20.8674ZM88.6944 18.5364C88.5192 18.6376 88.4178 18.8305 88.4339 19.0321C88.4644 19.4163 88.885 19.6373 89.2188 19.4447L89.6539 19.1935C89.829 19.0923 89.9304 18.8994 89.9144 18.6978C89.8838 18.3136 89.4632 18.0925 89.1295 18.2852L88.6944 18.5364Z" fill="#3E434C"/>
<path fill-rule="evenodd" clip-rule="evenodd" d="M72.3398 26.9971L89.9369 16.8374L93.6922 23.3419L76.1566 33.6079L72.3398 26.9971ZM75.7221 26.3735C75.7061 26.1719 75.8075 25.979 75.9826 25.8778L76.4177 25.6266C76.7515 25.4339 77.1721 25.655 77.2026 26.0392C77.2187 26.2408 77.1173 26.4337 76.9421 26.5349L76.507 26.7861C76.1733 26.9787 75.7527 26.7577 75.7221 26.3735ZM79.1615 24.0425C78.9863 24.1437 78.8849 24.3366 78.9009 24.5382C78.9315 24.9224 79.3521 25.1435 79.6858 24.9508L80.1209 24.6996C80.2961 24.5984 80.3975 24.4055 80.3814 24.2039C80.3509 23.8197 79.9303 23.5987 79.5965 23.7913L79.1615 24.0425ZM82.0797 22.7029C82.0637 22.5013 82.1651 22.3084 82.3403 22.2072L82.7754 21.9561C83.1091 21.7634 83.5297 21.9844 83.5603 22.3686C83.5763 22.5702 83.4749 22.7631 83.2997 22.8643L82.8646 23.1155C82.5309 23.3082 82.1103 23.0871 82.0797 22.7029ZM85.5191 20.372C85.3439 20.4731 85.2425 20.666 85.2585 20.8677C85.2891 21.2518 85.7097 21.4729 86.0434 21.2802L86.4785 21.029C86.6537 20.9279 86.7551 20.735 86.7391 20.5333C86.7085 20.1492 86.2879 19.9281 85.9542 20.1208L85.5191 20.372ZM88.4374 19.0324C88.4213 18.8307 88.5227 18.6378 88.6979 18.5367L89.133 18.2855C89.4667 18.0928 89.8873 18.3139 89.9179 18.698C89.9339 18.8997 89.8325 19.0926 89.6573 19.1937L89.2223 19.4449C88.8885 19.6376 88.4679 19.4165 88.4374 19.0324Z" stroke="#2E3138" stroke-width="0.763677"/>
<rect x="57.2051" y="53.2197" width="0.393276" height="1.83529" transform="rotate(-30 57.2051 53.2197)" fill="#292C32" stroke="#2E3138" stroke-width="0.763677"/>
<path d="M56.9043 54.0742L57.5003 53.7301L57.8281 54.2977L57.232 54.6419L56.9043 54.0742Z" fill="#2C2F35" stroke="#2E3138" stroke-width="0.763677"/>
<rect x="65.2617" y="48.5664" width="0.131092" height="1.63865" transform="rotate(-30 65.2617 48.5664)" fill="#25272D"/>
<path d="M38.9922 47.7646L40.893 51.057L62.1653 38.7754C62.086 38.7016 62.0161 38.6149 61.9591 38.5161L61.3036 37.3808C61.1725 37.1537 60.9934 37.1057 60.7664 37.2368L55.6292 40.2028C55.2373 40.429 54.7362 40.2948 54.51 39.9029C54.2837 39.511 54.418 39.0099 54.8099 38.7837L68.8591 30.6724C69.392 30.3647 70.0735 30.5473 70.3812 31.0802L71.4955 33.0102C71.5525 33.109 71.5927 33.2129 71.617 33.3185L74.8949 31.426L72.9941 28.1336L38.9922 47.7646Z" fill="#454A54"/>
<path d="M54.5093 39.9019C54.283 39.5101 54.4173 39.009 54.8092 38.7827L68.8584 30.6714C69.3913 30.3637 70.0728 30.5463 70.3805 31.0793L71.4948 33.0093C71.8025 33.5422 71.6199 34.2237 71.0869 34.5314L63.4805 38.923C62.9475 39.2307 62.2661 39.0481 61.9584 38.5151L61.3029 37.3798C61.1718 37.1528 60.9927 37.1048 60.7657 37.2359L55.6285 40.2018C55.2366 40.4281 54.7355 40.2938 54.5093 39.9019Z" fill="#17191C"/>
<path d="M54.5112 39.9C54.285 39.5081 54.4192 39.007 54.8111 38.7808L68.8603 30.6695C69.3933 30.3617 70.0748 30.5444 70.3825 31.0773L71.4967 33.0073C71.8045 33.5403 71.6218 34.2217 71.0889 34.5294L63.4825 38.921C62.9495 39.2287 62.268 39.0461 61.9603 38.5132L61.3049 37.3779C61.1738 37.1508 60.9947 37.1028 60.7676 37.2339L55.6304 40.1999C55.2386 40.4261 54.7375 40.2919 54.5112 39.9Z" fill="#30343B"/>
<path d="M61.3032 37.3809L61.9587 38.5162C62.0157 38.6149 62.0855 38.7017 62.1649 38.7755L71.6165 33.3186C71.5923 33.213 71.5521 33.1091 71.4951 33.0103L70.5774 31.4209L64.2198 35.0915L64.4165 35.4321C64.869 36.2158 64.4869 37.2835 63.7031 37.736C62.9194 38.1885 62.0131 37.9549 61.3032 37.3809Z" fill="#33363E"/>
<path d="M71.6157 33.3185L62.1641 38.7754C62.513 39.0999 63.0458 39.1746 63.4799 38.9239L71.0864 34.5323C71.5205 34.2817 71.7222 33.7829 71.6157 33.3185Z" fill="#353940"/>
<path d="M60.1734 35.6857L61.0279 37.1656C60.949 37.157 60.8616 37.1805 60.7657 37.2359L55.6285 40.2018C55.2366 40.4281 54.7355 40.2938 54.5093 39.9019C54.283 39.5101 54.4173 39.009 54.8092 38.7827L60.1734 35.6857Z" fill="#33363E"/>
<path d="M64.101 42.4242L74.4605 36.4431C74.688 36.3118 74.9087 36.2142 75.1097 36.127C76.6276 35.5047 77.3937 36.0927 77.8234 36.6964C78.2243 37.2597 78.3785 38.1167 78.0751 38.4433L77.2999 39.29C78.7031 38.3906 79.2494 38.2458 80.2414 37.9615L77.0208 35.1097L76.1061 33.5252L62.8516 41.1777L64.101 42.4242Z" fill="#3C4049"/>
<rect width="13.6991" height="3.93276" transform="matrix(-0.866025 0.5 0.5 0.866025 89.1484 19.4092)" fill="#373B43"/>
<path d="M40.9506 53.975L43.6708 58.6865C43.6613 58.2012 43.6864 57.9385 43.9543 57.5389L48.1833 55.0973L53.6444 54.5933L74.108 42.7787L78.0765 38.4439C78.3799 38.1174 78.2257 37.2603 77.8248 36.6971C77.3307 36.0029 76.3919 35.3295 74.3768 36.4929L64.1024 42.4248L62.853 41.1784L42.1055 53.1569L42.0564 53.0717L41.7737 53.4998L40.9506 53.975Z" fill="#454A54"/>
<circle cx="76.511" cy="37.5686" r="1.40924" transform="rotate(-30 76.511 37.5686)" fill="#474C57"/>
<path d="M61.7697 54.1793L59.918 50.9721L57.6758 52.2666C59.011 54.4214 60.1131 55.1485 62.6381 55.6835C63.0697 55.775 63.1375 55.2438 62.8061 55.0568C62.1886 54.7082 62.0154 54.605 61.7697 54.1793Z" fill="#373B43" stroke="#2E3138" stroke-width="0.763677"/>
<path d="M26.665 57.2242L34.6688 52.6032L40.3714 62.4802L17.0411 75.9499C16.0066 76.5472 15.8355 78.1878 16.6591 79.6142C16.9492 80.1168 17.3241 80.5257 17.7333 80.8185L18.8708 88.8198C18.9115 89.288 18.9191 89.6245 18.7292 89.8855L17.1653 91.9615C16.947 92.2389 16.5377 92.5131 16.0835 92.7753L14.0116 93.9715C13.5007 94.2665 13.0402 94.0036 12.7405 93.343C9.40703 85.9961 7.28244 82.6437 1.84503 75.7168C0.904715 74.5189 0.960159 74.1841 1.81163 73.6925L18.7274 63.9262L19.1768 62.6071L27.1239 58.0189L26.665 57.2242Z" fill="#40454E"/>
<path d="M18.7769 88.1258L17.7382 80.8194C17.329 80.5266 16.9541 80.1177 16.664 79.6152C15.8404 78.1887 16.0115 76.5482 17.046 75.9509L23.6307 72.1492L19.9264 76.4828C19.2552 77.2866 18.8754 77.8086 18.8026 78.7967L18.7769 88.1258Z" fill="#373B43" stroke="#2E3138" stroke-width="0.763677"/>
<path d="M1.25925 74.1356C1.02604 74.4752 1.20093 74.8909 1.84942 75.717C7.28684 82.6439 9.41142 85.9963 12.7449 93.3432C13.0446 94.0038 13.5051 94.2667 14.016 93.9717L15.8897 92.8899C15.8753 92.865 15.861 92.8401 15.8467 92.8152C13.8015 89.2666 12.0838 86.2861 10.0532 83.4687C7.79923 80.3413 5.1598 77.4149 1.25925 74.1356Z" fill="#3A3E46" stroke="#2E3138" stroke-width="0.763677"/>
<path d="M8.25685 72.9243C8.00605 73.0691 7.92012 73.3898 8.06492 73.6406L11.9649 80.3956C12.1097 80.6464 12.4304 80.7323 12.6812 80.5875L13.8165 79.9321C14.0673 79.7873 14.0544 79.492 14.0084 79.2158L12.7568 71.0832C12.7228 70.7622 12.3155 70.5811 12.1168 70.6958L8.25685 72.9243Z" fill="#3C4049"/>
<rect x="4.16016" y="74.082" width="2.94957" height="4.26049" rx="1.14552" transform="rotate(-30 4.16016 74.082)" fill="#454A54"/>
<rect x="4.7168" y="74.1357" width="2.03193" height="3.60503" rx="0.954596" transform="rotate(-30 4.7168 74.1357)" fill="#3C4049"/>
<path d="M5.0652 74.4765C5.06352 74.6415 5.10468 74.8092 5.19321 74.9626L5.46969 75.4414L7.22938 74.4255L6.95291 73.9466C6.86437 73.7933 6.73973 73.6738 6.59593 73.5927C6.57496 73.5967 6.55424 73.6043 6.5347 73.6156L5.11562 74.4349C5.09608 74.4462 5.07918 74.4603 5.0652 74.4765Z" fill="#373B43"/>
<path d="M5.80078 76.0107L6.04451 76.4329C6.14927 76.6143 6.3046 76.7484 6.48247 76.8275C6.48685 76.8254 6.49118 76.8231 6.49546 76.8207L7.91454 76.0014C7.91882 75.9989 7.92297 75.9963 7.92698 75.9935C7.94739 75.7999 7.90896 75.5984 7.8042 75.4169L7.56047 74.9948L5.80078 76.0107Z" fill="#373B43"/>
<path d="M14.4317 70.7841C14.3035 70.0005 14.6736 69.2194 15.3612 68.8224L33.7371 58.2131C34.8934 57.5455 36.3603 58.2406 36.5758 59.5583L36.8445 61.2004C36.9726 61.9839 36.6025 62.765 35.9149 63.162L17.5391 73.7713C16.3828 74.4389 14.9159 73.7438 14.7003 72.4261L14.4317 70.7841Z" fill="#3C4049"/>
<rect width="9.17644" height="0.917644" transform="matrix(-0.866025 0.5 0.5 0.866025 26.6699 57.2266)" fill="#454A54"/>
<rect width="2.09747" height="0.524368" transform="matrix(-0.866025 0.5 0.5 0.866025 40.0332 62.6777)" fill="#3C4049"/>
<path d="M35.7975 50.5542L34.6731 52.6049L40.3756 62.482L43.5544 60.6467L44.0335 59.51L43.9667 59.1977L38.1816 49.1777L35.7975 50.5542Z" fill="#3C4049"/>
<path d="M37.834 55.0635L40.6438 53.4412L43.5882 58.541L40.7784 60.1633L37.834 55.0635Z" fill="#3E434C"/>
<rect width="1.50756" height="5.88874" transform="matrix(-0.866025 0.5 0.5 0.866025 37.834 55.0635)" fill="#373B43"/>
<rect width="1.50756" height="0.65546" transform="matrix(-0.866025 0.5 0.5 0.866025 39.1387 57.3271)" fill="#3A3E46"/>
<rect width="1.50756" height="0.65546" transform="matrix(-0.866025 0.5 0.5 0.866025 39.7266 58.3496)" fill="#3A3E46"/>
<rect width="1.50756" height="0.65546" transform="matrix(-0.866025 0.5 0.5 0.866025 38.5488 56.3076)" fill="#3A3E46"/>
<rect width="1.50756" height="0.65546" transform="matrix(-0.866025 0.5 0.5 0.866025 37.9102 55.1982)" fill="#3A3E46"/>
<rect width="1.50756" height="0.65546" transform="matrix(-0.866025 0.5 0.5 0.866025 40.3672 59.4561)" fill="#3A3E46"/>
<path d="M39.0919 47.9355L38.4529 46.8286L37.2324 47.5332L37.8715 48.6401L39.0919 47.9355Z" fill="#3E434C"/>
<path d="M39.7044 51.8175L37.8691 48.6387L39.0896 47.9341L40.9249 51.1129L39.7044 51.8175Z" fill="#434851"/>
<path d="M38.9922 47.7646L72.9941 28.1336L72.7319 27.6795L38.73 47.3105L38.9922 47.7646Z" fill="#40454E"/>
<path d="M37.8775 45.8332C37.648 45.4358 37.6609 44.6715 37.7744 44.606L38.3421 44.2783L39.7513 46.7191L38.7296 47.309L37.8775 45.8332Z" fill="#3A3E46"/>
<path d="M37.8789 45.834L38.3377 46.6287L39.3595 46.0388L38.9007 45.2441L37.8789 45.834Z" fill="#3E434C"/>
<rect x="38.8984" y="45.2441" width="37.0335" height="0.917644" transform="rotate(-30 38.8984 45.2441)" fill="#434851"/>
<rect width="21.0403" height="0.917644" transform="matrix(-0.866025 0.5 0.5 0.866025 89.4785 16.043)" fill="#434851"/>
<rect width="5.89914" height="0.458822" transform="matrix(0.866025 -0.5 -0.5 -0.866025 38.8984 45.2441)" fill="#373B43"/>
<rect x="38.2773" y="44.166" width="5.89914" height="0.786552" transform="rotate(-30 38.2773 44.166)" fill="#3E434C"/>
<rect x="46.1094" y="39.6426" width="0.917644" height="0.786552" transform="rotate(-30 46.1094 39.6426)" fill="#3E434C"/>
<rect x="47.8418" y="38.6426" width="0.917644" height="0.786552" transform="rotate(-30 47.8418 38.6426)" fill="#3E434C"/>
<rect x="49.5723" y="37.6445" width="0.917644" height="0.786552" transform="rotate(-30 49.5723 37.6445)" fill="#3E434C"/>
<rect x="51.3047" y="36.6436" width="0.917644" height="0.786552" transform="rotate(-30 51.3047 36.6436)" fill="#3E434C"/>
<rect x="53.0371" y="35.6436" width="0.917644" height="0.786552" transform="rotate(-30 53.0371 35.6436)" fill="#3E434C"/>
<rect x="54.7676" y="34.6445" width="0.917644" height="0.786552" transform="rotate(-30 54.7676 34.6445)" fill="#3E434C"/>
<rect x="56.4961" y="33.6455" width="0.917644" height="0.786552" transform="rotate(-30 56.4961 33.6455)" fill="#3E434C"/>
<rect x="58.2305" y="32.6465" width="0.917644" height="0.786552" transform="rotate(-30 58.2305 32.6465)" fill="#3E434C"/>
<rect x="59.9609" y="31.6445" width="0.917644" height="0.786552" transform="rotate(-30 59.9609 31.6445)" fill="#3E434C"/>
<rect x="61.6914" y="30.6465" width="0.917644" height="0.786552" transform="rotate(-30 61.6914 30.6465)" fill="#3E434C"/>
<rect x="63.4219" y="29.6465" width="0.917644" height="0.786552" transform="rotate(-30 63.4219 29.6465)" fill="#3E434C"/>
<rect x="65.1562" y="28.6475" width="0.917644" height="0.786552" transform="rotate(-30 65.1562 28.6475)" fill="#3E434C"/>
<rect x="66.8867" y="27.6484" width="0.917644" height="0.786552" transform="rotate(-30 66.8867 27.6484)" fill="#3E434C"/>
<rect x="75.7109" y="22.5498" width="0.917644" height="0.786552" transform="rotate(-30 75.7109 22.5498)" fill="#3E434C"/>
<rect x="77.4434" y="21.5518" width="0.917644" height="0.786552" transform="rotate(-30 77.4434 21.5518)" fill="#3E434C"/>
<rect x="79.1738" y="20.5527" width="0.917644" height="0.786552" transform="rotate(-30 79.1738 20.5527)" fill="#3E434C"/>
<rect x="80.9062" y="19.5537" width="0.917644" height="0.786552" transform="rotate(-30 80.9062 19.5537)" fill="#3E434C"/>
<rect x="84.4238" y="17.5205" width="5.11259" height="0.786552" transform="rotate(-30 84.4238 17.5205)" fill="#3E434C"/>
<rect x="68.5898" y="26.665" width="2.03193" height="0.786552" transform="rotate(-30 68.5898 26.665)" fill="#3E434C"/>
<rect x="70.6309" y="25.4854" width="4.78486" height="0.786552" transform="rotate(-30 70.6309 25.4854)" fill="#3E434C"/>
<rect width="27.9881" height="0.458822" transform="matrix(0.866025 -0.5 -0.5 -0.866025 46.7344 40.7217)" fill="#373B43"/>
<rect width="21.0403" height="0.458822" transform="matrix(0.866025 -0.5 -0.5 -0.866025 71.2539 26.5625)" fill="#373B43"/>
<rect width="38.0822" height="0.786552" transform="matrix(0.866025 -0.5 -0.5 -0.866025 39.75 46.7188)" fill="#373B43"/>
<path d="M39.4381 38.0471L39.1543 38.2109L41.514 42.298L42.2519 41.8719L42.1863 41.7584C42.1536 41.7016 42.1492 41.6285 42.2343 41.5793C42.3195 41.5302 42.3151 41.457 42.2823 41.4003L40.1193 37.6538L39.8922 37.7849L40.0561 38.0687C40.0923 38.1314 40.0708 38.2116 40.0081 38.2478L39.7811 38.3789C39.7184 38.4151 39.6382 38.3936 39.602 38.3309L39.4381 38.0471Z" fill="#4A4F5A"/>
<rect x="83.2422" y="14.4219" width="1.44201" height="3.2773" transform="rotate(-30 83.2422 14.4219)" fill="#474C57"/>
<rect width="0.392579" height="0.392579" transform="matrix(0.866025 -0.5 -0.5 -0.866025 83.6973 14.1592)" fill="#3E434C"/>
<path d="M84.8193 18.2027L82.0945 19.7759L81.7013 19.0947L80.9066 19.5536L81.2998 20.2347L80.3631 20.7755L79.9699 20.0944L79.1752 20.5532L79.5684 21.2343L78.6319 21.775L78.2386 21.0939L77.4439 21.5527L77.8372 22.2339L76.9007 22.7746L76.5074 22.0934L75.7127 22.5522L76.106 23.2334L75.1692 23.7742L74.776 23.093L70.6322 25.4855L71.7137 27.3587L89.9351 16.8386L89.2469 15.6465M84.8193 18.2027L84.426 17.5216L84.8801 17.2594L83.2414 14.4212L83.6954 14.1591L83.4988 13.8185L83.8394 13.6218L84.036 13.9624L84.4902 13.7002L86.1289 16.5384L88.8537 14.9653L89.2469 15.6465M84.8193 18.2027L89.2469 15.6465" stroke="#2E3138" stroke-width="0.763677"/>
<path d="M39.7051 51.8174L40.9505 53.9744L41.7735 53.4992L42.3388 52.6431L42.1094 52.2457L41.7121 52.4751L40.9255 51.1128L39.7051 51.8174Z" fill="#474C57"/>
<circle cx="44.7741" cy="53.5836" r="1.11428" transform="rotate(-30 44.7741 53.5836)" fill="#4A4F5A"/>
<path d="M61.4073 74.3777L54.9129 73.7651C54.2952 73.6016 53.9836 73.2042 53.7902 72.6725L52.8614 70.4084C52.6925 70.0735 52.5848 69.9003 52.2083 69.8015L48.8393 69.3636C48.8142 71.0399 49.1698 72.4697 49.5278 73.0899L50.5929 74.9347C50.8715 75.4172 51.2264 75.7042 51.8324 75.7706L59.8006 75.9384C60.7956 75.9513 61.1253 75.7528 61.3333 75.0535L61.4073 74.3777Z" fill="#373B43"/>
<path d="M46.0321 58.6473C47.2526 57.9427 48.1872 57.8572 48.969 58.1627C49.0863 58.2085 49.1651 58.2036 49.2935 58.1349L53.3574 55.9318C53.6129 55.7843 54.0548 55.7468 54.4967 55.7092C54.9386 55.6717 55.3805 55.6342 55.6359 55.4867L56.7428 54.8476L55.858 53.315L53.6442 54.5931L48.183 55.0971L43.954 57.5387C43.6861 57.9383 43.661 58.201 43.6705 58.6863L43.9983 59.2539C44.0898 59.4125 44.1246 59.5883 44.109 59.7577L46.0321 58.6473Z" fill="#40454E"/>
<path d="M56.7406 54.8476L55.6337 55.4866C55.3783 55.6341 54.9364 55.6717 54.4945 55.7092C54.0526 55.7467 53.6107 55.7843 53.3552 55.9317L49.2913 58.1348C49.1629 58.2036 49.0841 58.2085 48.9668 58.1627C48.1849 57.8572 47.2504 57.9427 46.0299 58.6473C46.4296 58.4166 47.164 58.5223 48.1121 58.8453C48.7716 59.07 49.3624 59.3723 49.6738 59.9115C50.0507 60.5643 50.1979 61.3454 50.1209 61.7348L49.0963 67.1702C48.9245 67.9174 48.8472 68.6627 48.8366 69.3648L52.2056 69.8027C52.5821 69.9014 52.6898 70.0747 52.8587 70.4095L53.7875 72.6737C53.9809 73.2053 54.2925 73.6027 54.9102 73.7662L61.4046 74.3789L61.5165 73.358C61.5221 73.2802 61.5073 73.2474 61.4341 73.2152L60.3986 72.9816C60.0036 72.833 59.9079 72.6453 59.9234 72.1586L59.7154 60.1311L60.5385 59.6559C60.775 59.5193 60.8458 59.0621 60.6025 58.5214C60.5568 58.4198 60.4922 58.3959 60.407 58.4451L59.9813 58.6909C59.811 58.7892 58.8053 58.4237 58.494 57.8845L56.7406 54.8476Z" fill="#3C4049" stroke="#2E3138" stroke-width="0.763677"/>
<path d="M59.8762 69.2241L59.8859 69.7885L55.7022 70.5435C55.5508 70.5708 55.4059 70.4703 55.3786 70.3189C55.3513 70.1674 55.4519 70.0226 55.6033 69.9952L59.8762 69.2241Z" fill="#353940"/>
<path d="M59.8554 68.0194L59.8651 68.5838L55.6958 69.3362C55.5444 69.3636 55.3995 69.263 55.3722 69.1116C55.3449 68.9602 55.4455 68.8153 55.5969 68.788L59.8554 68.0194Z" fill="#353940"/>
<path d="M59.8346 66.8175L59.8443 67.3819L55.6823 68.133C55.5309 68.1604 55.386 68.0598 55.3587 67.9084C55.3314 67.757 55.432 67.6121 55.5834 67.5848L59.8346 66.8175Z" fill="#353940"/>
<path d="M59.8138 65.6157L59.8235 66.1801L55.6689 66.9299C55.5174 66.9572 55.3726 66.8566 55.3452 66.7052C55.3179 66.5538 55.4185 66.4089 55.5699 66.3816L59.8138 65.6157Z" fill="#353940"/>
<path d="M59.793 64.4138L59.8027 64.9782L55.6554 65.7267C55.504 65.754 55.3591 65.6534 55.3317 65.502C55.3044 65.3506 55.405 65.2057 55.5564 65.1784L59.793 64.4138Z" fill="#353940"/>
<path d="M59.7722 63.2119L59.782 63.7763L55.6419 64.5235C55.4905 64.5508 55.3456 64.4502 55.3183 64.2988C55.2909 64.1474 55.3915 64.0025 55.5429 63.9752L59.7722 63.2119Z" fill="#353940"/>
<path d="M59.7507 61.9711L59.7605 62.5355L55.608 63.2849C55.4566 63.3122 55.3117 63.2116 55.2843 63.0602C55.257 62.9088 55.3576 62.764 55.509 62.7366L59.7507 61.9711Z" fill="#353940"/>
<path d="M56.6544 53.6486L56.2002 53.9108L58.2486 57.4586C58.7118 58.3264 59.6158 58.7127 60.3255 58.303L66.3993 54.7963C67.4494 54.19 68.0744 52.1262 67.5172 51.1612L65.7967 48.1811L65.3425 48.4433L67.0631 51.4234C67.4564 52.1046 66.7331 53.998 66.1371 54.3422L60.0633 57.8489C59.6091 58.1111 58.9976 57.7073 58.7027 57.1964L56.6544 53.6486Z" fill="#32363E" stroke="#2E3138" stroke-width="0.763677"/>
<path d="M65.5371 47.7266L67.5806 46.5467L68.1542 47.5401C68.5474 48.2213 68.1252 49.2597 67.6427 49.5383L66.848 49.9971L65.5371 47.7266Z" fill="#373B43" stroke="#2E3138" stroke-width="0.763677"/>
<path d="M67.0746 49.866C67.0993 49.9088 67.1233 49.9504 67.1467 49.991C67.4646 50.5422 67.6712 50.9005 68.049 51.4226C68.6652 52.274 69.0214 52.7376 69.7693 53.419C69.9473 53.5811 70.3545 53.3838 70.2518 53.1404L68.2729 47.8436C68.4277 48.4967 68.0573 49.2986 67.6423 49.5382L67.0746 49.866Z" fill="#33363E"/>
<path d="M68.1714 47.5719L68.1701 47.5684L68.1698 47.569C68.1703 47.5699 68.1708 47.5709 68.1714 47.5719Z" fill="#33363E"/>
<path d="M67.0746 49.866C67.0993 49.9088 67.1233 49.9504 67.1467 49.991C67.4646 50.5422 67.6712 50.9005 68.049 51.4226C68.6652 52.274 69.0214 52.7376 69.7693 53.419C69.9473 53.5811 70.3545 53.3838 70.2518 53.1404L68.2729 47.8436C68.4277 48.4967 68.0573 49.2986 67.6423 49.5382L67.0746 49.866Z" stroke="#2E3138" stroke-width="0.763677"/>
<path d="M68.1714 47.5719L68.1701 47.5684L68.1698 47.569C68.1703 47.5699 68.1708 47.5709 68.1714 47.5719Z" stroke="#2E3138" stroke-width="0.763677"/>
<circle cx="67.3006" cy="48.2959" r="0.458822" transform="rotate(-30 67.3006 48.2959)" fill="#33363E"/>
<path d="M67.5804 46.5481L74.1084 42.7792L74.5742 42.2703L77.7596 46.6125C78.0856 47.0214 77.9936 47.1164 77.7991 47.2709L71.8941 51.5883C71.6873 51.7438 71.5628 51.7429 71.3121 51.4324L67.5804 46.5481Z" fill="#40454E" stroke="#2E3238" stroke-width="1.52735"/>
<path d="M71.7535 51.6708L86.5867 71.8646L92.1668 67.9617L93.6369 69.4592L94.0419 69.1119L94.5323 69.6991L94.755 69.4949L77.8333 47.2415C77.8221 47.2507 77.8104 47.26 77.7983 47.2696L71.8934 51.5871C71.8428 51.6251 71.7972 51.6537 71.7535 51.6708Z" fill="#656D7B"/>
<rect x="73.5938" y="51.9062" width="5.30923" height="0.852098" transform="rotate(-35.2047 73.5938 51.9062)" fill="#5C6370"/>
<ellipse cx="78.4285" cy="53.3402" rx="1.08151" ry="1.08151" transform="rotate(-30 78.4285 53.3402)" fill="#5A606D"/>
<ellipse cx="86.6258" cy="64.6537" rx="1.08151" ry="1.08151" transform="rotate(-30 86.6258 64.6537)" fill="#5A606D"/>
<path d="M92.5046 68.308L88.2103 71.5335C88.0307 71.6695 88.001 71.8065 88.0096 72.1035L88.1668 73.719C88.328 73.6936 88.5251 73.5837 88.7918 73.3927L93.6592 70.0906C93.8982 69.9147 93.9178 69.752 93.636 69.4605L92.5046 68.308Z" fill="#555B68"/>
<path d="M86.5879 71.8654L92.1681 67.9625L92.5067 68.3074L88.2125 71.5329C88.0329 71.6689 88.0031 71.8059 88.0118 72.1029L88.1689 73.7184C87.8653 73.8099 87.8302 73.6551 87.6802 73.4296L86.5879 71.8654Z" fill="#5E6573"/>
<path d="M92.1681 67.9625L86.5879 71.8654L87.6802 73.4296C87.7019 73.4622 87.7212 73.4933 87.7392 73.5224C87.846 73.6946 87.9092 73.7966 88.1689 73.7184C88.3301 73.693 88.5272 73.583 88.7938 73.3921L93.6612 70.09C93.9003 69.9141 93.9198 69.7514 93.6381 69.4599L92.1681 67.9625Z" stroke="#2E3238" stroke-width="0.763677"/>
<path d="M71.7535 51.6708L86.5867 71.8646L87.6789 73.4289C87.7006 73.4615 87.7199 73.4926 87.7379 73.5217C87.8447 73.694 87.9079 73.7959 88.1676 73.7177C88.3288 73.6923 88.5259 73.5824 88.7925 73.3914L93.6599 70.0893C93.899 69.9134 93.9187 69.7507 93.6369 69.4592L94.0419 69.1119L94.5323 69.6991L94.755 69.4949L77.8333 47.2415C77.8221 47.2507 77.8104 47.26 77.7983 47.2696L71.8934 51.5871C71.8428 51.6251 71.7972 51.6537 71.7535 51.6708Z" stroke="#2E3238" stroke-width="1.52735"/>
<path d="M53.901 50.7691C54.0884 50.0698 53.6734 49.351 52.974 49.1636C52.2747 48.9762 51.5559 49.3912 51.3685 50.0906C51.2294 50.6098 51.4223 51.1398 51.8172 51.455L51.381 53.0827C51.3065 53.3609 51.4716 53.6468 51.7498 53.7213C52.0279 53.7959 52.3139 53.6308 52.3884 53.3526L52.8239 51.7274C53.3261 51.6539 53.7613 51.2906 53.901 50.7691Z" fill="#3E434C"/>
<path d="M53.3449 49.3267C53.8112 49.6269 54.0523 50.204 53.901 50.7683C53.8418 50.9893 53.7295 51.1819 53.5816 51.3361L54.6015 51.202L54.5508 49.8689L53.3449 49.3267Z" fill="#3A3E46"/>
<circle cx="55.5501" cy="47.9305" r="0.557141" transform="rotate(-30 55.5501 47.9305)" fill="#515662"/>
<circle cx="62.9813" cy="45.7956" r="0.65546" transform="rotate(-30 62.9813 45.7956)" fill="#515662"/>
<circle cx="76.5108" cy="37.5678" r="0.622687" transform="rotate(-30 76.5108 37.5678)" fill="#4C515C"/>
<rect x="66.4277" y="41.5361" width="6.03023" height="1.63865" rx="0.819325" transform="rotate(-30 66.4277 41.5361)" fill="#40454E"/>
<rect x="67.6406" y="43.6357" width="6.88233" height="1.63865" rx="0.819325" transform="rotate(-30 67.6406 43.6357)" fill="#40454E"/>
<path d="M40.8926 51.0566L41.7119 52.4758L42.1093 52.2463L42.3387 52.6437L42.056 53.0718L42.1052 53.1569L69.2954 37.4587C69.4945 37.8035 69.9227 37.929 70.2519 37.739C70.5811 37.5489 70.6865 37.1153 70.4874 36.7704L73.9725 34.7583C74.1946 34.9795 74.5354 35.0388 74.8083 34.8813C75.0811 34.7238 75.2002 34.3989 75.1197 34.096L76.1071 33.5259L74.8945 31.4256L71.6165 33.3182C71.7231 33.7826 71.5214 34.2813 71.0872 34.532L63.4808 38.9236C63.0466 39.1742 62.5138 39.0995 62.1649 38.7751L40.8926 51.0566Z" fill="#494F5A"/>
<path d="M90.4429 14.0472L88.8535 14.9648L93.6904 23.3425L99.1773 20.1303C100.029 19.6387 100.566 19.7826 101.058 20.6341L103.612 25.0577L105.318 21.6557L101.222 14.5602L90.4429 14.0472Z" fill="#454A54"/>
<path d="M92.7463 14.1563L89.4785 16.043L89.9373 16.8377L94.4418 14.237L92.7463 14.1563Z" fill="#3B4049"/>
<rect x="74.5039" y="27.8672" width="3.21175" height="3.93276" transform="rotate(-30 74.5039 27.8672)" fill="#3C4049"/>
<rect width="13.6991" height="1.5731" transform="matrix(-0.866025 0.5 0.5 0.866025 89.7402 20.4326)" fill="#353940"/>
<circle cx="76.8082" cy="28.579" r="0.917644" transform="rotate(-30 76.8082 28.579)" fill="#40454E"/>
<ellipse cx="76.8048" cy="28.5795" rx="0.393276" ry="0.393276" transform="rotate(-30 76.8048 28.5795)" fill="#3E434C"/>
<rect x="78.3066" y="25.6689" width="0.917644" height="1.17983" transform="rotate(-30 78.3066 25.6689)" fill="#3E434C"/>
<rect x="79.6855" y="28.0537" width="0.917644" height="1.17983" transform="rotate(-30 79.6855 28.0537)" fill="#3E434C"/>
<rect x="80.0938" y="24.6377" width="0.917644" height="1.17983" transform="rotate(-30 80.0938 24.6377)" fill="#3E434C"/>
<rect x="81.4746" y="27.0215" width="0.917644" height="1.17983" transform="rotate(-30 81.4746 27.0215)" fill="#3E434C"/>
<rect x="81.8848" y="23.6055" width="0.917644" height="1.17983" transform="rotate(-30 81.8848 23.6055)" fill="#3E434C"/>
<rect x="83.2598" y="25.9883" width="0.917644" height="1.17983" transform="rotate(-30 83.2598 25.9883)" fill="#3E434C"/>
<rect x="83.6738" y="22.5742" width="0.917644" height="1.17983" transform="rotate(-30 83.6738 22.5742)" fill="#3E434C"/>
<rect x="85.0488" y="24.957" width="0.917644" height="1.17983" transform="rotate(-30 85.0488 24.957)" fill="#3E434C"/>
<rect x="85.4629" y="21.54" width="0.917644" height="1.17983" transform="rotate(-30 85.4629 21.54)" fill="#3E434C"/>
<rect x="86.8359" y="23.9248" width="0.917644" height="1.17983" transform="rotate(-30 86.8359 23.9248)" fill="#3E434C"/>
<rect x="87.25" y="20.5098" width="0.917644" height="1.17983" transform="rotate(-30 87.25 20.5098)" fill="#3E434C"/>
<rect x="88.625" y="22.8916" width="0.917644" height="1.17983" transform="rotate(-30 88.625 22.8916)" fill="#3E434C"/>
<path d="M104.821 20.7937L101.418 14.8994L101.872 14.6372C102.269 14.4078 102.754 14.6577 103.082 15.2253L105.442 19.3124L104.821 20.7937Z" fill="#3E434C" stroke="#2E3138" stroke-width="1.52735"/>
<path d="M104.525 17.7231L108.158 15.6256L106.585 12.9009L102.938 15.0068C102.989 15.0732 103.037 15.1463 103.083 15.2255L104.525 17.7231Z" fill="#575E6A" stroke="#2E3138" stroke-width="1.52735"/>
<rect x="73.0391" y="37.1895" width="0.65546" height="2.03193" transform="rotate(-120 73.0391 37.1895)" fill="#474C57"/>
<path d="M40.6387 53.44L39.2105 50.9663C38.9752 50.5587 38.4541 50.4191 38.0465 50.6544L36.7125 51.4245C36.305 51.6598 36.1654 52.181 36.4007 52.5885L37.8289 55.0623L40.6387 53.44Z" fill="#40454E"/>
<path d="M40.7773 60.1621L41.1896 60.8762C41.4249 61.2837 41.946 61.4234 42.3536 61.1881L43.6876 60.4179C44.0951 60.1826 44.2347 59.6615 43.9994 59.2539L43.5872 58.5398L40.7773 60.1621Z" fill="#40454E"/>
<rect x="39.8809" y="39.6064" width="1.24537" height="1.24537" rx="0.381838" transform="rotate(-30 39.8809 39.6064)" fill="#535965"/>
<path d="M38.3431 44.2791L38.2776 44.1656L41.5132 42.2975L40.4789 40.5061C40.4125 40.4739 40.3547 40.4222 40.315 40.3535L40.0742 39.9363C40.0345 39.8676 40.0186 39.7917 40.0239 39.7181L39.1535 38.2105L39.4373 38.0466L39.6012 38.3304C39.6374 38.3931 39.7176 38.4146 39.7803 38.3784L40.0073 38.2473C40.07 38.2111 40.0915 38.131 40.0553 38.0683L39.8914 37.7844L40.1185 37.6533L40.9891 39.1612C41.0553 39.1934 41.1131 39.245 41.1527 39.3137L41.3935 39.7308C41.4331 39.7994 41.449 39.8753 41.4438 39.9488L42.2815 41.3998C42.3143 41.4566 42.3187 41.5297 42.2335 41.5789C42.1484 41.628 42.1528 41.7012 42.1856 41.7579L42.2511 41.8715L43.3864 41.2161L44.009 42.2946M38.3431 44.2791L37.7755 44.6069C37.6619 44.6724 37.6491 45.4367 37.8785 45.834L38.452 46.8274L37.2317 47.532L37.8707 48.6389L39.0912 47.9343L38.7307 47.3099L72.7325 27.6789L72.3392 26.9977L71.431 27.5221L70.3495 25.6489L68.5898 26.6648L68.9831 27.346L68.0748 27.8704L67.6816 27.1892L66.8869 27.648L67.2801 28.3292L66.3436 28.8699L65.9503 28.1887L65.1556 28.6476L65.5489 29.3287L64.6122 29.8695L64.2189 29.1884L63.4242 29.6472L63.8175 30.3284L62.881 30.8691L62.4877 30.1879L61.693 30.6467L62.0863 31.3279L61.1496 31.8687L60.7563 31.1875L59.9616 31.6463L60.3549 32.3275L59.4183 32.8682L59.0251 32.187L58.2304 32.6459L58.6236 33.327L57.6869 33.8678L57.2937 33.1867L56.499 33.6455L56.8922 34.3266L55.9557 34.8674L55.5624 34.1862L54.7677 34.645L55.161 35.3262L54.2243 35.867L53.831 35.1858L53.0363 35.6446L53.4296 36.3258L52.4931 36.8665L52.0998 36.1853L51.3051 36.6442L51.6984 37.3253L50.7617 37.8661L50.3684 37.185L49.5737 37.6438L49.967 38.325L49.0304 38.8657L48.6372 38.1845L47.8425 38.6433L48.2357 39.3245L47.299 39.8653L46.9058 39.1841L46.1111 39.6429L46.7337 40.7215L44.009 42.2946M38.3431 44.2791L38.9002 45.2441L44.009 42.2946" stroke="#2E3138" stroke-width="0.763677"/>
<ellipse cx="72.1752" cy="30.6852" rx="1.10623" ry="1.10623" transform="rotate(-30 72.1752 30.6852)" fill="#434851"/>
<path fill-rule="evenodd" clip-rule="evenodd" d="M75.787 33.8248C75.56 33.9559 75.5217 34.2345 75.8713 34.4951L81.3712 39.0397L82.6016 39.7314L88.7107 43.1656C88.9705 43.2979 89.1653 43.2763 89.9027 42.4774C89.9027 42.4774 90.6796 41.5539 91.8277 40.1885C91.8164 40.0542 91.8572 39.9157 91.9523 39.8058C92.0439 39.6998 92.1692 39.64 92.2985 39.6285L93.0147 38.7766C92.9976 38.6364 93.0376 38.4898 93.1373 38.3746C93.2335 38.2633 93.3666 38.203 93.5028 38.1959L94.2022 37.3637C94.1793 37.218 94.2182 37.0636 94.3222 36.9434C94.4227 36.8272 94.5636 36.7665 94.706 36.7641C94.9326 36.4944 95.1612 36.2223 95.3902 35.9497C95.3613 35.7991 95.3991 35.6372 95.5072 35.5122C95.6118 35.3913 95.76 35.3305 95.9082 35.333C96.1328 35.0656 96.3567 34.799 96.5785 34.5347C96.5436 34.3796 96.5802 34.2105 96.6922 34.081C96.8006 33.9557 96.9559 33.895 97.1095 33.9023C97.3325 33.6366 97.5523 33.3748 97.7672 33.1187C97.7263 32.9595 97.7615 32.7836 97.8771 32.6499C97.9891 32.5204 98.1511 32.4599 98.3096 32.4721C98.5329 32.2058 98.7489 31.9481 98.9559 31.7012C98.9093 31.5385 98.9431 31.3562 99.0621 31.2187C99.1773 31.0856 99.3453 31.0253 99.508 31.0421C99.7376 30.7679 99.9509 30.5131 100.144 30.2817C100.093 30.1161 100.125 29.9284 100.247 29.7875C100.365 29.6516 100.537 29.5916 100.703 29.6121C101.035 29.2144 101.244 28.9615 101.289 28.9023C102.566 27.246 103.516 26.5295 103.76 26.7572C104.335 27.2953 104.744 27.0211 104.482 26.567L101.057 20.6351C100.566 19.7836 100.029 19.6396 99.1772 20.1312L75.787 33.8248ZM87.5441 34.9838C87.3929 35.121 87.2361 35.2596 87.0761 35.3842C86.5773 35.7724 86.0473 36.0242 85.5595 35.6756L83.3195 33.8277C82.4993 33.1281 82.5821 32.5505 83.4292 31.9858L96.8352 23.6782C97.2428 23.4237 97.6821 23.6051 97.9217 23.9214C98.0999 24.1566 98.1671 24.4668 98.0679 24.705C98.0365 24.7805 97.9884 24.8487 97.922 24.9051L87.5441 34.9838Z" fill="#373B43"/>
<path d="M82.6023 39.7293L85.0014 37.3984C83.7256 36.4032 81.8405 34.8445 81.3615 33.9727C80.8723 33.082 81.1666 32.193 82.0408 31.6098L97.3181 22.4138C97.8006 22.1353 98.1588 22.2312 98.4374 22.7137L99.0406 23.7585L100.883 21.9684L100.365 21.071C100.086 20.5885 99.7283 20.4925 99.2458 20.7711L78.8673 32.5366C78.3344 32.8443 78.1518 33.5258 78.4595 34.0587L81.2996 38.9779L81.3719 39.0376L82.6023 39.7293Z" fill="#3A3E46"/>
<path d="M83.9405 40.4843L83.0567 41.7976L85.2539 43.2762L86.2565 41.7862L83.9405 40.4843Z" fill="#30343B"/>
<path d="M103.762 26.7558L100.957 21.8985L98.0699 24.7036C98.0385 24.7791 97.9904 24.8473 97.924 24.9037L87.5461 34.9824C87.395 35.1196 87.2382 35.2582 87.0781 35.3828L82.6036 39.73L88.7127 43.1642C88.9725 43.2965 89.1673 43.2749 89.9047 42.476C89.9047 42.476 90.6816 41.5525 91.8297 40.1871C91.8185 40.0528 91.8592 39.9143 91.9543 39.8043C92.046 39.6984 92.1712 39.6386 92.3006 39.6271C92.5293 39.355 92.7688 39.07 93.0167 38.7752C92.9996 38.635 93.0396 38.4884 93.1393 38.3732C93.2355 38.2619 93.3686 38.2016 93.5048 38.1945C93.7333 37.9226 93.967 37.6445 94.2042 37.3623C94.1812 37.2166 94.2202 37.0622 94.3242 36.942C94.4247 36.8258 94.5656 36.7651 94.708 36.7627C94.9346 36.493 95.1632 36.2209 95.3922 35.9483C95.3633 35.7977 95.4011 35.6358 95.5092 35.5108C95.6138 35.3899 95.762 35.3291 95.9103 35.3316C96.1348 35.0642 96.3587 34.7976 96.5805 34.5334C96.5456 34.3782 96.5822 34.2091 96.6942 34.0797C96.8026 33.9543 96.9579 33.8936 97.1115 33.9009C97.3345 33.6352 97.5543 33.3734 97.7692 33.1173C97.7282 32.9581 97.7635 32.7822 97.8791 32.6485C97.9911 32.519 98.1531 32.4585 98.3116 32.4707C98.5349 32.2044 98.751 31.9467 98.9579 31.6998C98.9113 31.5371 98.9451 31.3548 99.0641 31.2173C99.1793 31.0842 99.3473 31.0239 99.5101 31.0407C99.7396 30.7665 99.9529 30.5117 100.146 30.2803C100.095 30.1147 100.127 29.927 100.249 29.7861C100.367 29.6502 100.539 29.5902 100.705 29.6107C101.037 29.213 101.246 28.9601 101.291 28.9009C102.568 27.2446 103.518 26.5281 103.762 26.7558Z" fill="#32363E"/>
<path d="M99.5914 28.5333L100.76 29.5443C100.742 29.5663 100.723 29.5887 100.704 29.6116C100.538 29.5911 100.365 29.6511 100.248 29.787C100.126 29.9278 100.093 30.1156 100.145 30.2812C100.129 30.3008 100.112 30.3207 100.095 30.3407L98.9128 29.3178C98.6962 29.1304 98.6725 28.8029 98.8599 28.5863C99.0473 28.3697 99.3748 28.346 99.5914 28.5333Z" fill="#30343B"/>
<path d="M98.4064 29.9645L99.5688 30.97C99.549 30.9937 99.529 31.0175 99.5089 31.0416C99.3462 31.0248 99.1781 31.085 99.0629 31.2181C98.944 31.3557 98.9101 31.538 98.9567 31.7007C98.9387 31.7221 98.9207 31.7436 98.9026 31.7652L97.7279 30.749C97.5113 30.5616 97.4875 30.2341 97.6749 30.0175C97.8623 29.8008 98.1898 29.7771 98.4064 29.9645Z" fill="#30343B"/>
<path d="M97.2214 31.3957L98.3755 32.3939C98.3538 32.4197 98.3322 32.4456 98.3104 32.4715C98.1519 32.4593 97.9899 32.5199 97.878 32.6493C97.7623 32.783 97.7271 32.9589 97.768 33.1181C97.7483 33.1416 97.7286 33.1651 97.7088 33.1887L96.5429 32.1801C96.3263 31.9928 96.3026 31.6653 96.4899 31.4486C96.6773 31.232 97.0048 31.2083 97.2214 31.3957Z" fill="#30343B"/>
<path d="M96.0365 32.8269L97.1813 33.8172C97.1577 33.8453 97.134 33.8735 97.1103 33.9018C96.9567 33.8944 96.8014 33.9552 96.693 34.0805C96.581 34.21 96.5444 34.3791 96.5794 34.5342C96.5577 34.56 96.536 34.5858 96.5143 34.6116L95.3579 33.6113C95.1413 33.424 95.1176 33.0964 95.305 32.8798C95.4924 32.6632 95.8199 32.6395 96.0365 32.8269Z" fill="#30343B"/>
<path d="M94.8515 34.258L95.9867 35.24C95.9608 35.2708 95.935 35.3016 95.9091 35.3324C95.7608 35.33 95.6126 35.3908 95.508 35.5117C95.3999 35.6367 95.3621 35.7986 95.391 35.9492C95.3672 35.9775 95.3433 36.0059 95.3195 36.0343L94.173 35.0425C93.9563 34.8551 93.9326 34.5276 94.12 34.311C94.3074 34.0944 94.6349 34.0707 94.8515 34.258Z" fill="#30343B"/>
<path d="M93.6665 35.6892L94.7917 36.6625L94.7068 36.7636C94.5644 36.7659 94.4236 36.8266 94.3231 36.9428C94.2191 37.0631 94.1801 37.2175 94.203 37.3631L94.1244 37.4567L92.988 36.4737C92.7714 36.2863 92.7476 35.9588 92.935 35.7422C93.1224 35.5255 93.4499 35.5018 93.6665 35.6892Z" fill="#30343B"/>
<path d="M92.4816 37.1204L93.5965 38.0848L93.5036 38.1954C93.3675 38.2024 93.2343 38.2628 93.1381 38.374C93.0384 38.4892 92.9985 38.6358 93.0155 38.776L92.9291 38.8789L91.803 37.9048C91.5864 37.7175 91.5627 37.3899 91.7501 37.1733C91.9374 36.9567 92.2649 36.933 92.4816 37.1204Z" fill="#30343B"/>
<path d="M91.2966 38.5516L92.4011 39.507L92.2994 39.6279C92.17 39.6394 92.0448 39.6992 91.9531 39.8052C91.858 39.9151 91.8173 40.0536 91.8285 40.1879L91.7335 40.3009L90.618 39.336C90.4014 39.1486 90.3777 38.8211 90.5651 38.6045C90.7525 38.3879 91.08 38.3642 91.2966 38.5516Z" fill="#30343B"/>
<ellipse cx="81.871" cy="37.0863" rx="0.852098" ry="0.852098" transform="rotate(-30 81.871 37.0863)" fill="#3A3E46"/>
<path d="M100.713 20.7572C100.54 20.8568 100.481 21.0773 100.581 21.2497L103.76 26.7559C104.335 27.2939 104.745 27.0198 104.482 26.5657L101.205 20.8892C101.106 20.7168 100.885 20.6577 100.713 20.7572Z" fill="#353941"/>
<path d="M34.6688 52.6032L40.3714 62.4802L23.6259 72.1482L19.9216 76.4818C19.2504 77.2856 18.8706 77.8076 18.7977 78.7957L18.7721 88.1249L18.8156 88.2002L18.8708 88.8198C18.9115 89.288 18.9191 89.6245 18.7292 89.8855L17.1653 91.9615C16.947 92.2389 16.5377 92.5131 16.0835 92.7753L14.0116 93.9715C13.5007 94.2665 13.0402 94.0036 12.7405 93.343C9.40703 85.9961 7.28244 82.6437 1.84503 75.7168C0.904715 74.5189 0.960159 74.1841 1.81163 73.6925L18.7274 63.9262L19.1768 62.6071L18.718 61.8124L34.6688 52.6032Z" stroke="#2E3138" stroke-width="1.52735"/>
<path d="M46.0349 58.6475L46.0355 58.6472C46.4352 58.4169 47.1694 58.5227 48.117 58.8455C48.7766 59.0703 49.3674 59.3725 49.6787 59.9118C50.0556 60.5646 50.2028 61.3456 50.1258 61.735L49.1013 67.1704C48.9294 67.9176 48.8521 68.6629 48.8416 69.365C48.8165 71.0413 49.172 72.4711 49.53 73.0912L50.5951 74.9361C50.8737 75.4186 51.2286 75.7056 51.8346 75.772L59.8028 75.9398C60.7978 75.9527 61.1275 75.7541 61.3355 75.0549L61.5215 73.3582C61.527 73.2804 61.5122 73.2476 61.439 73.2154L60.4035 72.9819C60.0085 72.8332 59.9129 72.6456 59.9283 72.1588L59.7203 60.1313L60.5434 59.6561C60.78 59.5195 60.8508 59.0623 60.6074 58.5216C60.5617 58.42 60.4971 58.3961 60.412 58.4453L59.9862 58.6911C59.8159 58.7894 58.8103 58.4239 58.4989 57.8847L55.8607 53.3151L53.6469 54.5933L48.1857 55.0973L43.9568 57.5389C43.6888 57.9385 43.6637 58.2012 43.6733 58.6865L44.001 59.2541C44.0925 59.4127 44.1273 59.5884 44.1117 59.7579L46.0349 58.6475Z" stroke="#2E3138" stroke-width="1.52735"/>
<path d="M61.9584 38.5151C62.0154 38.6139 62.0852 38.7006 62.1646 38.7745C62.5136 39.0989 63.0463 39.1737 63.4805 38.923L71.087 34.5314C71.5211 34.2807 71.7228 33.782 71.6163 33.3176C71.592 33.2119 71.5518 33.108 71.4948 33.0093L70.3805 31.0793C70.0728 30.5463 69.3913 30.3637 68.8584 30.6714L54.8092 38.7827C54.4173 39.009 54.283 39.5101 54.5093 39.9019C54.7355 40.2938 55.2366 40.4281 55.6285 40.2018L60.7657 37.2359C60.9927 37.1048 61.1718 37.1528 61.3029 37.3798L61.9584 38.5151Z" stroke="#2E3138" stroke-width="0.763677"/>
<path d="M39.0901 47.9354L38.9918 47.7652L72.9938 28.1341L74.8946 31.4265L77.0221 35.1111L80.2426 37.963L80.1759 37.9821C79.2255 38.2542 78.6725 38.4125 77.3011 39.2915L74.1078 42.7795L53.6442 54.5941L48.1831 55.0981L43.9541 57.5397C43.6862 57.9394 43.6611 58.202 43.6706 58.6873L37.8698 48.64L39.0901 47.9354Z" stroke="#2E3138" stroke-width="1.52735"/>
<path d="M64.101 42.4242L74.4605 36.4431C74.688 36.3118 74.9087 36.2142 75.1097 36.127C76.6276 35.5047 77.3937 36.0927 77.8234 36.6964C78.2243 37.2597 78.3785 38.1167 78.0751 38.4433L77.2999 39.29C78.7031 38.3906 79.2494 38.2458 80.2414 37.9615L77.0208 35.1097L76.1061 33.5252L62.8516 41.1777L64.101 42.4242Z" stroke="#2E3138" stroke-width="0.763677"/>
<path d="M40.925 51.1138L40.8922 51.0571L62.1646 38.7756C62.5135 39.1 63.0463 39.1747 63.4804 38.9241L71.0869 34.5325C71.521 34.2818 71.7227 33.7831 71.6162 33.3187L74.8942 31.4261L76.1068 33.5264L75.1193 34.0965C75.1999 34.3994 75.0808 34.7243 74.8079 34.8818C74.5351 35.0393 74.1942 34.9801 73.9721 34.7588L70.4871 36.7709C70.6862 37.1158 70.5807 37.5494 70.2516 37.7395C69.9224 37.9295 69.4941 37.804 69.295 37.4592L42.1048 53.1574L42.0557 53.0723L41.7731 53.5002L40.95 53.9754L39.7046 51.8184L40.925 51.1138Z" stroke="#2E3138" stroke-width="0.763677"/>
<path d="M68.8317 30.9511L60.8351 35.6815L60.6913 36.1036L61.0325 36.7785L61.34 36.8916L61.4853 36.8077C61.7752 37.0405 61.9708 37.2412 62.3715 37.168C62.985 37.056 63.7479 36.6156 63.8973 36.2871C64.0778 35.8904 63.9969 35.6076 63.7992 35.2781L69.3725 31.8878L68.8317 30.9511Z" fill="#424751"/>
<path d="M68.4926 30.43C68.3985 30.4843 68.3663 30.6046 68.4206 30.6986L68.4534 30.7554L68.7739 30.5703L69.4949 31.8191L69.1744 32.0042L69.2071 32.061C69.2614 32.155 69.3817 32.1872 69.4757 32.1329L69.8163 31.9363C69.9104 31.882 69.9426 31.7617 69.8883 31.6677L69.1018 30.3053C69.0475 30.2113 68.9272 30.1791 68.8331 30.2334L68.4926 30.43Z" fill="#4C515D"/>
<path d="M68.7737 30.5708L69.4947 31.8196L69.1741 32.0047L68.4531 30.7559L68.7737 30.5708Z" fill="#474C57"/>
<path fill-rule="evenodd" clip-rule="evenodd" d="M37.2318 47.5327L35.3585 48.6142C35.1599 48.7289 35.454 49.9593 35.7981 50.5553L38.1822 49.1789L37.2318 47.5327ZM36.9126 49.7984C37.2261 49.6174 37.3335 49.2165 37.1525 48.903C36.9715 48.5895 36.5706 48.4821 36.2571 48.6631C35.9436 48.8441 35.8362 49.2449 36.0172 49.5584C36.1982 49.8719 36.5991 49.9794 36.9126 49.7984Z" fill="#353840" stroke="#2E3138" stroke-width="0.763677"/>
<path d="M39.2105 50.9663C38.9752 50.5587 38.4541 50.4191 38.0465 50.6544L36.7125 51.4245C36.305 51.6598 36.1654 52.181 36.4007 52.5885L40.7732 60.162L41.1855 60.8761C41.4208 61.2836 41.9419 61.4233 42.3495 61.188L43.6834 60.4178C44.091 60.1825 44.2306 59.6614 43.9953 59.2538L43.5831 58.5398L39.2105 50.9663Z" stroke="#2E3138" stroke-width="0.763677"/>
<path d="M35.3595 48.6136L37.2327 47.5321L43.9675 59.1973L44.0343 59.5097L43.5552 60.6463L40.3764 62.4816L34.6739 52.6046L35.7984 50.5538C35.4545 49.9575 35.1609 48.7283 35.3595 48.6136Z" stroke="#2E3138" stroke-width="1.52735"/>
<path fill-rule="evenodd" clip-rule="evenodd" d="M75.787 33.8248C75.56 33.9559 75.5217 34.2345 75.8713 34.4951L81.3712 39.0397L82.6016 39.7314L88.7107 43.1656C88.9705 43.2979 89.1653 43.2763 89.9027 42.4774C89.9027 42.4774 90.6796 41.5539 91.8277 40.1885C91.8164 40.0542 91.8572 39.9157 91.9523 39.8058C92.0439 39.6998 92.1692 39.64 92.2985 39.6285L93.0147 38.7766C92.9976 38.6364 93.0376 38.4898 93.1373 38.3746C93.2335 38.2633 93.3666 38.203 93.5028 38.1959L94.2022 37.3637C94.1793 37.218 94.2182 37.0636 94.3222 36.9434C94.4227 36.8272 94.5636 36.7665 94.706 36.7641C94.9326 36.4944 95.1612 36.2223 95.3902 35.9497C95.3613 35.7991 95.3991 35.6372 95.5072 35.5122C95.6118 35.3913 95.76 35.3305 95.9082 35.333C96.1328 35.0656 96.3567 34.799 96.5785 34.5347C96.5436 34.3796 96.5802 34.2105 96.6922 34.081C96.8006 33.9557 96.9559 33.895 97.1095 33.9023C97.3325 33.6366 97.5523 33.3748 97.7672 33.1187C97.7263 32.9595 97.7615 32.7836 97.8771 32.6499C97.9891 32.5204 98.1511 32.4599 98.3096 32.4721C98.5329 32.2058 98.7489 31.9481 98.9559 31.7012C98.9093 31.5385 98.9431 31.3562 99.0621 31.2187C99.1773 31.0856 99.3453 31.0253 99.508 31.0421C99.7376 30.7679 99.9509 30.5131 100.144 30.2817C100.093 30.1161 100.125 29.9284 100.247 29.7875C100.365 29.6516 100.537 29.5916 100.703 29.6121C101.035 29.2144 101.244 28.9615 101.289 28.9023C102.566 27.246 103.516 26.5295 103.76 26.7572C104.335 27.2953 104.744 27.0211 104.482 26.567L101.057 20.6351C100.566 19.7836 100.029 19.6396 99.1772 20.1312L75.787 33.8248ZM87.5441 34.9838C87.3929 35.121 87.2361 35.2596 87.0761 35.3842C86.5773 35.7724 86.0473 36.0242 85.5595 35.6756L83.3195 33.8277C82.4993 33.1281 82.5821 32.5505 83.4292 31.9858L96.8352 23.6782C97.2428 23.4237 97.6821 23.6051 97.9217 23.9214C98.0999 24.1566 98.1671 24.4668 98.0679 24.705C98.0365 24.7805 97.9884 24.8487 97.922 24.9051L87.5441 34.9838Z" stroke="#2E3138" stroke-width="1.52735"/>
<path d="M103.762 26.7558L100.957 21.8985L98.0699 24.7036C98.0385 24.7791 97.9904 24.8473 97.924 24.9037L87.5461 34.9824C87.395 35.1196 87.2382 35.2582 87.0781 35.3828L82.6036 39.73L88.7127 43.1642C88.9725 43.2965 89.1673 43.2749 89.9047 42.476C89.9047 42.476 90.6816 41.5525 91.8297 40.1871C91.8185 40.0528 91.8592 39.9143 91.9543 39.8043C92.046 39.6984 92.1712 39.6386 92.3006 39.6271C92.5293 39.355 92.7688 39.07 93.0167 38.7752C92.9996 38.635 93.0396 38.4884 93.1393 38.3732C93.2355 38.2619 93.3686 38.2016 93.5048 38.1945C93.7333 37.9226 93.967 37.6445 94.2042 37.3623C94.1812 37.2166 94.2202 37.0622 94.3242 36.942C94.4247 36.8258 94.5656 36.7651 94.708 36.7627C94.9346 36.493 95.1632 36.2209 95.3922 35.9483C95.3633 35.7977 95.4011 35.6358 95.5092 35.5108C95.6138 35.3899 95.762 35.3291 95.9103 35.3316C96.1348 35.0642 96.3587 34.7976 96.5805 34.5334C96.5456 34.3782 96.5822 34.2091 96.6942 34.0797C96.8026 33.9543 96.9579 33.8936 97.1115 33.9009C97.3345 33.6352 97.5543 33.3734 97.7692 33.1173C97.7282 32.9581 97.7635 32.7822 97.8791 32.6485C97.9911 32.519 98.1531 32.4585 98.3116 32.4707C98.5349 32.2044 98.751 31.9467 98.9579 31.6998C98.9113 31.5371 98.9451 31.3548 99.0641 31.2173C99.1793 31.0842 99.3473 31.0239 99.5101 31.0407C99.7396 30.7665 99.9529 30.5117 100.146 30.2803C100.095 30.1147 100.127 29.927 100.249 29.7861C100.367 29.6502 100.539 29.5902 100.705 29.6107C101.037 29.213 101.246 28.9601 101.291 28.9009C102.568 27.2446 103.518 26.5281 103.762 26.7558Z" stroke="#2E3138" stroke-width="0.763677"/>
<rect width="0.32773" height="2.16302" transform="matrix(-0.866025 0.5 0.5 0.866025 70.6309 25.4854)" fill="#32363E" stroke="#2E3138" stroke-width="0.763677"/>
<path d="M90.4429 14.0472L88.8535 14.9648L93.6904 23.3425L99.1773 20.1303C100.029 19.6387 100.566 19.7826 101.058 20.6341L103.612 25.0577L105.318 21.6557L101.222 14.5602L90.4429 14.0472Z" stroke="#2E3138" stroke-width="1.52735"/>
<rect x="89.1484" y="19.4092" width="3.40839" height="3.93276" transform="rotate(-30 89.1484 19.4092)" fill="#3C4049"/>
<circle cx="91.5113" cy="20.0908" r="0.917644" transform="rotate(-30 91.5113 20.0908)" fill="#40454E"/>
<ellipse cx="91.5118" cy="20.0912" rx="0.393276" ry="0.393276" transform="rotate(-30 91.5118 20.0912)" fill="#3E434C"/>
<rect x="74.5039" y="27.8672" width="20.3193" height="3.93276" transform="rotate(-30 74.5039 27.8672)" stroke="#2E3138" stroke-width="0.763677"/>
</g>
<defs>
<clipPath id="clip0_616_1147">
<rect width="110" height="110" fill="white"/>
</clipPath>
</defs>
</svg>
