<?xml version="1.0" encoding="UTF-8" standalone="no"?>
<!-- Created with Inkscape (http://www.inkscape.org/) -->

<svg
   width="33.122486mm"
   height="29.584726mm"
   viewBox="0 0 33.122486 29.584726"
   version="1.1"
   id="svg1"
   xml:space="preserve"
   sodipodi:docname="seax_temp.svg"
   inkscape:version="1.3.2 (091e20e, 2023-11-25, custom)"
   xmlns:inkscape="http://www.inkscape.org/namespaces/inkscape"
   xmlns:sodipodi="http://sodipodi.sourceforge.net/DTD/sodipodi-0.dtd"
   xmlns="http://www.w3.org/2000/svg"
   xmlns:svg="http://www.w3.org/2000/svg"><sodipodi:namedview
     id="namedview1"
     pagecolor="#505050"
     bordercolor="#eeeeee"
     borderopacity="1"
     inkscape:showpageshadow="0"
     inkscape:pageopacity="0"
     inkscape:pagecheckerboard="0"
     inkscape:deskcolor="#505050"
     inkscape:document-units="mm"
     inkscape:zoom="0.70710678"
     inkscape:cx="1460.8826"
     inkscape:cy="357.08892"
     inkscape:window-width="1920"
     inkscape:window-height="1017"
     inkscape:window-x="-8"
     inkscape:window-y="-8"
     inkscape:window-maximized="1"
     inkscape:current-layer="layer1"
     showguides="false" /><defs
     id="defs1" /><g
     inkscape:label="Layer 1"
     inkscape:groupmode="layer"
     id="layer1"
     transform="translate(69.056253,-86.518751)"><g
       id="g109"><rect
         style="display:inline;fill:#704122;fill-opacity:1;fill-rule:evenodd;stroke:#2b1a0e;stroke-width:1.1;stroke-linecap:round;stroke-linejoin:miter;stroke-dasharray:none;stroke-opacity:1"
         id="rect2-2"
         width="14.107388"
         height="2.2072144"
         x="-126.06544"
         y="32.137962"
         rx="2.5194237e-15"
         transform="rotate(-45)"
         ry="0" /><path
         id="rect7-73"
         style="fill:#b4a894;fill-opacity:1;stroke:#3d3b36;stroke-width:1.1;stroke-linecap:round;stroke-linejoin:miter;stroke-dasharray:none;stroke-opacity:1"
         d="m -55.295196,105.10237 17.59982,-17.599824 -6.735006,1.599971 -13.616836,13.210253 z"
         sodipodi:nodetypes="ccccc" /><path
         id="rect14-2"
         style="fill:#221f18;fill-opacity:0.463462;stroke-width:1.91395;stroke-linecap:round"
         d="m -39.449292,88.483732 -2.635717,0.627603 -13.799598,13.782065 -0.513487,0.50373 1.115679,0.92138 0.511705,-0.52415 14.608107,-14.608143 z"
         sodipodi:nodetypes="cccccccc" /><rect
         style="fill:#3e3b33;fill-opacity:1;stroke:none;stroke-width:1.5;stroke-linecap:round;stroke-linejoin:miter;stroke-dasharray:none;stroke-opacity:1"
         id="rect12-3"
         width="0.92252678"
         height="13.321125"
         x="-34.158791"
         y="99.533768"
         rx="2.5194235e-15"
         transform="matrix(-0.70710678,-0.70710678,-0.70710678,0.70710678,0,0)" /><path
         style="fill:#dac042;fill-opacity:1;fill-rule:evenodd;stroke:#33320a;stroke-width:1.1;stroke-linecap:round;stroke-linejoin:round;stroke-dasharray:none;stroke-opacity:1"
         d="m -63.843491,114.89144 c -0.445347,-2.31986 -2.257019,-3.70595 -4.085496,-4.20661 l 0.209926,1.25956 -0.787223,0.5127 0.803373,0.77108 -0.205891,0.7953 0.896223,0.89622 0.775117,-0.20185 0.730706,0.83567 0.549038,-0.79126 z"
         id="path2-4-3"
         sodipodi:nodetypes="ccccccccccc" /><path
         id="rect11-1"
         style="fill:#dac042;fill-opacity:1;stroke:#33320a;stroke-width:1.1;stroke-linecap:round;stroke-linejoin:round;stroke-dasharray:none;stroke-opacity:1"
         d="m -54.572903,105.80586 -4.196601,-4.1966 5e-6,10e-6 v 0 0 0 0 l -0.09381,2.70399 -1.616573,1.61657 1.560523,1.56053 1.632838,-1.63242 2.713682,-0.0521 v 0 0 0 0 z"
         sodipodi:nodetypes="ccccccccccccccccc" /><rect
         style="fill:#33320a;fill-opacity:1;stroke:none;stroke-width:1.15377;stroke-linecap:round;stroke-linejoin:miter;stroke-dasharray:none;stroke-opacity:1"
         id="rect13-2"
         width="3.3072205"
         height="0.99313188"
         x="-34.89518"
         y="117.2263"
         rx="2.2475877e-15"
         transform="matrix(-0.70710678,-0.70710678,-0.70710678,0.70710678,0,0)" /></g></g></svg>
