<svg width="110" height="110" viewBox="0 0 110 110" fill="none" xmlns="http://www.w3.org/2000/svg">
<g clip-path="url(#clip0_2940_3892)">
<path d="M97.9096 27.8786L97.0176 28.3936L98.8303 31.5333L99.7223 31.0183L97.9096 27.8786Z" fill="#524E4B"/>
<path d="M98.8354 29.484L97.9434 29.999L98.8294 31.5336L99.7214 31.0186L98.8354 29.484Z" fill="#45423F" stroke="#353331" stroke-width="0.461904" stroke-miterlimit="3.99393" stroke-linecap="round"/>
<path d="M61.7262 42.8143L54.6523 46.8984L55.1012 47.6758L62.1751 43.5917L61.7262 42.8143Z" fill="#404040"/>
<path d="M61.2271 41.9538L60.6211 42.3037L61.2479 43.3893L61.8539 43.0394L61.2271 41.9538Z" fill="#404040" stroke="#333333" stroke-width="0.461904" stroke-miterlimit="3.99393" stroke-linecap="round"/>
<path fill-rule="evenodd" clip-rule="evenodd" d="M53.9136 45.4497L54.7506 46.8995L58.0356 45.0029L58.459 45.7362L60.236 44.7102L59.916 44.156L61.2766 43.3704L60.272 41.6305C59.8518 41.513 59.6888 41.6556 59.5871 42.0259L58.7974 42.4819C58.5702 42.2861 58.2168 42.4858 58.2869 42.7766L57.9767 42.9557L57.8365 43.3328L57.2812 43.6534L54.9699 45.3457L53.9136 45.4497Z" fill="#454545"/>
<path d="M58.7557 42.5237C58.692 42.4133 58.5507 42.3754 58.4402 42.4392C58.3298 42.503 58.2919 42.6442 58.3557 42.7547C58.5094 43.0209 58.6648 43.2318 58.8808 43.3916C59.0971 43.5516 59.3547 43.646 59.6885 43.7156C59.8134 43.7416 59.9357 43.6614 59.9617 43.5366C59.9877 43.4117 59.9076 43.2894 59.7827 43.2634C59.4821 43.2008 59.2969 43.1249 59.1555 43.0202C59.0137 42.9153 58.8963 42.7672 58.7557 42.5237Z" fill="#383838"/>
<path d="M53.8212 48.1517L51.1035 49.7207L51.9915 51.2587L54.7091 49.6896L53.8212 48.1517Z" fill="#404040"/>
<path d="M53.7052 49.1185L51.2727 50.5229C51.1059 50.6192 51.0488 50.8325 51.145 50.9992L51.7649 52.0729C51.8612 52.2396 52.0744 52.2968 52.2412 52.2005L54.6738 50.796C54.8405 50.6997 54.8977 50.4865 54.8014 50.3197L54.1815 49.2461C54.0852 49.0793 53.872 49.0222 53.7052 49.1185Z" fill="#4D4D4D" stroke="#333333" stroke-width="0.461904" stroke-miterlimit="3.99393" stroke-linecap="round"/>
<path fill-rule="evenodd" clip-rule="evenodd" d="M40.5723 55.8008L51.1041 49.7202L51.9921 51.2582L41.4602 57.3387L40.5723 55.8008Z" fill="#7B6B47"/>
<path fill-rule="evenodd" clip-rule="evenodd" d="M39.9023 54.6416L53.0519 47.0497C53.1071 47.0178 53.1778 47.0367 53.2096 47.092L53.8212 48.1513L40.5717 55.8009L39.9023 54.6416Z" fill="#81714B" stroke="#413825" stroke-width="0.461904" stroke-miterlimit="3.99393"/>
<path d="M53.0519 47.0497L39.9023 54.6416L41.4597 57.339L51.9916 51.2584L51.1036 49.7205L53.8212 48.1513L53.2096 47.092C53.1778 47.0367 53.1071 47.0178 53.0519 47.0497Z" stroke="#413825" stroke-width="0.923808" stroke-miterlimit="3.99393"/>
<path d="M50.4894 50.7318L45.9934 53.3276C45.8266 53.4239 45.7586 53.6184 45.8415 53.762L45.9384 53.9297C46.0213 54.0733 46.2237 54.1117 46.3905 54.0154L50.8865 51.4196C51.0533 51.3233 51.1213 51.1289 51.0383 50.9853L50.9415 50.8175C50.8586 50.6739 50.6562 50.6355 50.4894 50.7318Z" fill="#706442"/>
<path d="M39.8998 54.6408L28.4469 61.2531L30.7904 65.3122L65.3816 45.341L62.8919 41.0288L61.5508 41.8031L62.6254 43.6644L57.9952 46.3377L57.602 46.2764L53.1279 48.8595L53.3625 49.2659L52.814 50.7808L46.9411 54.1715L45.0842 53.1939L40.5693 55.8006L39.8998 54.6408Z" fill="#4D4D4D"/>
<path d="M54.5303 46.6902L52.6016 47.8037L53.5701 49.4813L55.4988 48.3677L54.5303 46.6902Z" fill="#404040" stroke="#333333" stroke-width="0.461904" stroke-miterlimit="3.99393" stroke-linecap="round"/>
<path d="M40.0646 54.522L28.5449 61.1729L29.4575 62.7534L40.9771 56.1025L40.0646 54.522Z" fill="#404040"/>
<path d="M39.8998 54.6408L28.4469 61.2531L30.7904 65.3122L65.3816 45.341L62.8919 41.0288L61.5508 41.8031L62.6254 43.6644L57.9952 46.3377L57.602 46.2764L53.1279 48.8595L53.3625 49.2659L52.814 50.7808L46.9411 54.1715L45.0842 53.1939L40.5693 55.8006L39.8998 54.6408Z" stroke="#333333" stroke-width="0.923913" stroke-miterlimit="3.99393" stroke-linecap="round"/>
<path fill-rule="evenodd" clip-rule="evenodd" d="M48.1943 59.0604L51.5271 62.3694L55.2119 57.9466L55.3283 57.0823L57.9426 53.2954L55.7061 53.4854L48.1943 59.0604Z" fill="#424242"/>
<path d="M54.9122 58.3094L55.215 57.9459L55.3315 57.0815L57.9458 53.2947L55.7093 53.4846L52.2963 56.0176L54.9122 58.3094Z" fill="#4A4A4A"/>
<path d="M55.3018 57.2994L55.3312 57.0815L57.9455 53.2947L55.709 53.4846L53.1312 55.3977L55.3018 57.2994Z" fill="#474747"/>
<path fill-rule="evenodd" clip-rule="evenodd" d="M48.1943 59.0604L51.5271 62.3694L55.2119 57.9466L55.3283 57.0823L57.9426 53.2954L55.7061 53.4854L48.1943 59.0604Z" stroke="#333333" stroke-width="0.923913" stroke-miterlimit="3.99393" stroke-linecap="round"/>
<path d="M46.7017 61.2818C46.6906 61.219 46.6308 61.177 46.568 61.1881C46.5051 61.1991 46.4632 61.259 46.4742 61.3218C46.5394 61.6929 46.6549 61.9611 46.9616 62.1531C47.0157 62.1869 47.087 62.1705 47.1208 62.1164C47.1546 62.0623 47.1382 61.9911 47.0841 61.9573C46.8561 61.8146 46.7614 61.6217 46.7017 61.2818Z" fill="#404040" stroke="#333333" stroke-width="0.461904" stroke-miterlimit="3.99393" stroke-linecap="round"/>
<path d="M48.9221 59.953L49.1548 60.3559L48.71 60.6127L48.0744 60.4424L46.5879 61.3007L45.8438 60.0117L46.0413 59.8977L48.178 58.6641L48.9221 59.953Z" fill="#3B3B3B" stroke="#333333" stroke-width="0.923913" stroke-miterlimit="3.99393" stroke-linecap="round"/>
<path fill-rule="evenodd" clip-rule="evenodd" d="M37.3663 65.5124C37.1354 65.6212 36.9236 65.6354 36.9537 65.8888C37.0244 66.4896 37.2381 66.9933 37.4821 67.6967C37.726 68.4001 38.0423 68.7959 38.7643 68.9894C39.0127 69.0477 39.2219 69.1639 39.2488 69.0492C39.2676 68.9692 39.171 68.9173 38.9478 68.8285C38.2097 68.5348 38.0002 68.379 37.8359 67.9055C37.6717 67.432 37.6174 66.2966 38.0024 65.5656C38.0856 65.4076 37.597 65.4036 37.3663 65.5124Z" fill="#3B3B3B" stroke="#333333" stroke-width="0.461904" stroke-miterlimit="3.99393"/>
<path d="M41.5812 63.7302C41.5174 63.6197 41.3762 63.5819 41.2657 63.6456C41.1552 63.7094 41.1174 63.8507 41.1812 63.9611L42.4087 66.0873C42.682 66.5607 42.6997 67.0142 42.5587 67.4057C42.4157 67.8031 42.1023 68.1536 41.6867 68.3935L38.4651 70.2535C38.0384 70.4999 37.6085 70.4861 37.2198 70.3066C36.8235 70.1236 36.4674 69.7653 36.2279 69.326C35.9886 68.8871 35.8769 68.3878 35.9439 67.9357C36.0097 67.4916 36.2485 67.0819 36.7376 66.7995C36.8481 66.7357 36.8859 66.5945 36.8222 66.484C36.7584 66.3736 36.6171 66.3357 36.5067 66.3995C35.8906 66.7552 35.5726 67.2901 35.487 67.868C35.4025 68.4381 35.5449 69.0382 35.8223 69.5471C36.0996 70.0557 36.5229 70.4935 37.0261 70.7259C37.5367 70.9617 38.1262 70.9825 38.696 70.6535L41.9177 68.7935C42.4109 68.5088 42.8072 68.0792 42.9933 67.5622C43.1816 67.0393 43.1482 66.4443 42.8087 65.8564L41.5812 63.7302Z" fill="#404040" stroke="#333333" stroke-width="0.461904" stroke-miterlimit="3.99393" stroke-linecap="round"/>
<path fill-rule="evenodd" clip-rule="evenodd" d="M96.8195 29.2686C96.2722 29.9208 95.481 30.58 94.5741 31.1036C86.1447 36.1581 79.9145 40.253 72.9437 43.265L79.3401 37.2799L93.9129 28.8663C94.5869 28.4772 95.4838 28.0494 96.0834 27.9937L96.8195 29.2686Z" fill="#909090" stroke="#333333" stroke-width="0.923913" stroke-miterlimit="3.99393" stroke-linecap="round"/>
<path d="M97.9096 27.8786L97.0176 28.3936L98.8303 31.5333L99.7223 31.0183L97.9096 27.8786Z" stroke="#353331" stroke-width="0.461955" stroke-miterlimit="3.99393" stroke-linecap="round"/>
<path d="M101.665 24.6638L95.8848 28.001L96.7499 29.4995L102.53 26.1623L101.665 24.6638Z" fill="#5E5955" stroke="#353331" stroke-width="0.923913" stroke-miterlimit="3.99393" stroke-linecap="round"/>
<path d="M93.9246 29.6598L80.7942 37.2407C80.6759 37.3089 80.6354 37.4601 80.7037 37.5783C80.7719 37.6966 80.9231 37.7371 81.0414 37.6688L94.1718 30.088C94.29 30.0197 94.3305 29.8685 94.2622 29.7503C94.194 29.6321 94.0428 29.5915 93.9246 29.6598Z" fill="#757575"/>
<path fill-rule="evenodd" clip-rule="evenodd" d="M74.4727 37.0771L107.966 17.7396L109.065 19.6432L75.5717 38.9808L74.4727 37.0771Z" fill="#504B49" stroke="#353331" stroke-width="0.924057" stroke-miterlimit="3.99393" stroke-linecap="round"/>
<path fill-rule="evenodd" clip-rule="evenodd" d="M73.8086 34.9209L87.3282 27.1153L88.4273 29.019L74.9077 36.8245L73.8086 34.9209Z" fill="#423F3D"/>
<path d="M73.8086 34.9209L73.5776 34.5208L73.1775 34.7518L73.4085 35.1519L73.8086 34.9209ZM87.3282 27.1153L87.7284 26.8843L87.4973 26.4842L87.0972 26.7152L87.3282 27.1153ZM88.4273 29.019L88.6583 29.4191L89.0584 29.1881L88.8274 28.788L88.4273 29.019ZM74.9077 36.8245L74.5075 37.0555L74.7385 37.4557L75.1387 37.2247L74.9077 36.8245ZM74.0396 35.321L87.5592 27.5155L87.0972 26.7152L73.5776 34.5208L74.0396 35.321ZM86.9281 27.3463L88.0272 29.25L88.8274 28.788L87.7284 26.8843L86.9281 27.3463ZM88.1963 28.6188L74.6766 36.4244L75.1387 37.2247L88.6583 29.4191L88.1963 28.6188ZM75.3078 36.5935L74.2087 34.6899L73.4085 35.1519L74.5075 37.0555L75.3078 36.5935Z" fill="#353331"/>
<path d="M77.0391 32.4426L75.9062 33.0967L78.4141 37.4405L79.547 36.7864C79.6022 36.7546 79.6211 36.6839 79.5893 36.6287L77.1968 32.4849C77.1649 32.4297 77.0943 32.4107 77.0391 32.4426Z" fill="#757575" stroke="#353331" stroke-width="0.924057" stroke-miterlimit="3.99393" stroke-linecap="round"/>
<path d="M104.502 14.4404L103.199 15.1924L105.494 19.1668L106.796 18.4148L104.502 14.4404Z" fill="#504B49"/>
<path fill-rule="evenodd" clip-rule="evenodd" d="M29.7554 61.9631L31.8472 60.7555C32.0709 60.6263 32.355 60.7024 32.4842 60.9261L32.5361 61.016C32.6652 61.2398 32.5758 61.5031 32.3654 61.653L30.3891 63.0607C30.1787 63.2106 29.8813 63.1138 29.7521 62.8901L29.5847 62.6001C29.4555 62.3764 29.5317 62.0923 29.7554 61.9631Z" fill="#454545"/>
<path d="M30.8591 67.9423C31.1544 67.7718 31.2556 67.3942 31.0851 67.0989C30.9146 66.8036 30.537 66.7024 30.2417 66.8729C29.9464 67.0434 29.8452 67.421 30.0157 67.7163C30.1862 68.0116 30.5638 68.1128 30.8591 67.9423Z" fill="#424242" stroke="#333333" stroke-width="0.461955" stroke-miterlimit="3.99393" stroke-linecap="round"/>
<path d="M79.1133 37.4133L72.7125 43.5191L47.4331 60.3806L33.4234 68.4691C30.3198 70.261 29.887 72.6769 29.5061 74.8035C29.1181 76.9691 28.7839 78.8347 25.7379 79.4361C25.221 79.5381 24.4914 79.8746 24.1187 80.2473L8.90965 95.4561C8.79115 95.2555 8.67291 95.0548 8.55467 94.8541C6.49989 91.3665 4.44511 87.879 0.996161 84.8631L18.3826 73.4657C19.2705 72.8837 20.8505 72.3287 21.8835 72.0865C26.3074 71.0492 29.0759 68.2748 30.25 64.1667C31.9855 62.4981 33.8613 61.3142 45.5582 54.5611L47.4566 54.4161L52.3007 51.6193C53.4668 50.9461 53.8321 49.9173 53.6861 49.3725L63.5928 43.6529L77.935 35.3724L79.1133 37.4133Z" fill="#74382D"/>
<path fill-rule="evenodd" clip-rule="evenodd" d="M62.2728 41.3664L63.593 43.653L77.9352 35.3725L76.615 33.086C76.5193 32.9203 76.3075 32.8635 76.1418 32.9592L62.3996 40.8932C62.2339 40.9889 62.1772 41.2007 62.2728 41.3664ZM66.5236 41.4374L65.2026 42.2001C65.1114 42.2527 65.0801 42.3693 65.1328 42.4605C65.1854 42.5517 65.302 42.5829 65.3932 42.5303L66.7142 41.7676C66.8054 41.715 66.8367 41.5983 66.784 41.5072C66.7314 41.416 66.6148 41.3847 66.5236 41.4374ZM69.488 39.7259L70.809 38.9632C70.9002 38.9105 71.0168 38.9418 71.0695 39.033C71.1221 39.1242 71.0909 39.2408 70.9997 39.2934L69.6787 40.0561C69.5875 40.1087 69.4709 40.0775 69.4182 39.9863C69.3656 39.8951 69.3968 39.7785 69.488 39.7259ZM73.7736 37.2516L75.0946 36.4889C75.1858 36.4362 75.3024 36.4675 75.3551 36.5587C75.4077 36.6498 75.3765 36.7665 75.2853 36.8191L73.9643 37.5818C73.8731 37.6344 73.7565 37.6032 73.7038 37.512C73.6512 37.4208 73.6824 37.3042 73.7736 37.2516Z" fill="#6B3329" stroke="#49271D" stroke-width="0.461904" stroke-miterlimit="3.99393" stroke-linecap="round"/>
<path d="M66.9103 42.8702L59.2516 47.2919C58.9433 47.47 58.8377 47.8642 59.0157 48.1725C59.1937 48.4808 59.5879 48.5865 59.8962 48.4084L67.5549 43.9867C67.8632 43.8087 67.9688 43.4145 67.7908 43.1062C67.6128 42.7979 67.2186 42.6922 66.9103 42.8702Z" fill="#643026"/>
<path d="M56.8278 50.1522C57.1231 49.9817 57.2243 49.6041 57.0538 49.3089C56.8834 49.0136 56.5058 48.9124 56.2105 49.0829C55.9152 49.2534 55.814 49.631 55.9845 49.9263C56.155 50.2216 56.5325 50.3227 56.8278 50.1522Z" fill="#424242" stroke="#333333" stroke-width="0.461955" stroke-miterlimit="3.99393" stroke-linecap="round"/>
<path d="M102.097 20.5518L100.424 21.5176L102.156 24.5178L103.829 23.5521L102.097 20.5518Z" fill="#423F3D" stroke="#353331" stroke-width="0.924057" stroke-miterlimit="3.99393"/>
<path d="M103.935 25.6734C104.628 25.2734 104.934 24.5057 104.618 23.9587C104.302 23.4118 103.485 23.2926 102.792 23.6927C102.099 24.0927 101.793 24.8604 102.109 25.4074C102.425 25.9544 103.242 26.0735 103.935 25.6734Z" fill="#423F3D" stroke="#353331" stroke-width="0.924057" stroke-miterlimit="3.99393"/>
<path d="M98.9043 26.2598L99.7695 27.7583L100.396 27.3964L99.531 25.8979L98.9043 26.2598Z" fill="#403D3B"/>
<path d="M99.6621 25.8213L100.527 27.3198L101.154 26.958L100.289 25.4594L99.6621 25.8213Z" fill="#403D3B"/>
<path d="M100.422 25.3838L101.287 26.8823L101.914 26.5205L101.049 25.0219L100.422 25.3838Z" fill="#403D3B"/>
<path d="M101.665 24.6638L95.8848 28.001L96.7499 29.4995L102.53 26.1623L101.665 24.6638Z" stroke="#353331" stroke-width="0.923913" stroke-miterlimit="3.99393" stroke-linecap="round"/>
<path d="M103.573 25.0394C103.77 24.9257 103.837 24.6739 103.724 24.477C103.61 24.2801 103.358 24.2127 103.161 24.3264C102.964 24.4401 102.897 24.6918 103.011 24.8887C103.124 25.0857 103.376 25.1531 103.573 25.0394Z" fill="#3A3836"/>
<path d="M51.5445 49.4126C51.9174 49.1973 52.0451 48.7205 51.8299 48.3477C51.6146 47.9748 51.1378 47.8471 50.765 48.0624C50.3921 48.2776 50.2643 48.7544 50.4796 49.1272C50.6949 49.5001 51.1716 49.6278 51.5445 49.4126Z" fill="#615538" stroke="#413825" stroke-width="0.461904" stroke-miterlimit="3.99393"/>
<path d="M30.3472 62.6486C30.4728 62.5761 30.5158 62.4156 30.4433 62.29C30.3708 62.1645 30.2103 62.1215 30.0847 62.194C29.9592 62.2664 29.9162 62.427 29.9887 62.5525C30.0611 62.678 30.2217 62.7211 30.3472 62.6486Z" fill="#3B3B3B"/>
<path d="M31.2945 61.796C31.42 61.7236 31.463 61.563 31.3906 61.4375C31.3181 61.3119 31.1576 61.2689 31.032 61.3414C30.9065 61.4139 30.8634 61.5744 30.9359 61.7C31.0084 61.8255 31.1689 61.8685 31.2945 61.796Z" fill="#3B3B3B"/>
<path d="M105.734 16.5761L104.432 17.3281L105.493 19.1673L106.796 18.4152L105.734 16.5761Z" fill="#423F3D"/>
<path d="M104.502 14.4404L103.199 15.1924L105.494 19.1668L106.796 18.4148L104.502 14.4404Z" stroke="#353331" stroke-width="0.924057" stroke-miterlimit="3.99393" stroke-linecap="round"/>
<path d="M105.084 16.9516C105.3 16.8266 105.374 16.5495 105.249 16.3329C105.124 16.1162 104.847 16.042 104.631 16.1671C104.414 16.2922 104.34 16.5692 104.465 16.7858C104.59 17.0025 104.867 17.0767 105.084 16.9516Z" fill="#433F3D" stroke="#353331" stroke-width="0.461904" stroke-miterlimit="3.99393" stroke-linecap="round"/>
<path d="M58.7841 44.9915C58.926 44.9096 58.9747 44.7281 58.8927 44.5862C58.8108 44.4443 58.6293 44.3957 58.4874 44.4776C58.3455 44.5596 58.2969 44.741 58.3788 44.8829C58.4608 45.0248 58.6422 45.0735 58.7841 44.9915Z" fill="#383838"/>
<path fill-rule="evenodd" clip-rule="evenodd" d="M58.51 44.4428L59.6761 41.8745L60.4058 41.9502L59.711 43.2013C60.104 43.4181 59.9199 43.8266 59.487 43.5895L58.9099 44.6438L58.51 44.4428Z" fill="#4D4D4D"/>
<path d="M59.8155 43.613C59.8908 43.5695 59.9167 43.4732 59.8732 43.3978C59.8296 43.3225 59.7333 43.2967 59.6579 43.3402C59.5826 43.3837 59.5568 43.48 59.6003 43.5554C59.6438 43.6307 59.7401 43.6566 59.8155 43.613Z" fill="#383838"/>
<path d="M55.5902 44.8925L54.9704 45.3462L53.9141 45.4502L54.7511 46.9L57.9527 45.0516L57.5429 44.3419L55.8399 45.3251L55.5902 44.8925Z" fill="#383838"/>
<path fill-rule="evenodd" clip-rule="evenodd" d="M53.9136 45.4497L54.7506 46.8995L58.0356 45.0029L58.459 45.7362L60.236 44.7102L59.916 44.156L61.2766 43.3704L60.272 41.6305C59.8518 41.513 59.6888 41.6556 59.5871 42.0259L58.7974 42.4819C58.5702 42.2861 58.2168 42.4858 58.2869 42.7766L57.9767 42.9557L57.8365 43.3328L57.2812 43.6534L54.9699 45.3457L53.9136 45.4497Z" stroke="#333333" stroke-width="0.461955" stroke-miterlimit="3.99393" stroke-linecap="round"/>
<path d="M60.191 42.4089C60.3956 42.2908 60.4657 42.0291 60.3476 41.8245C60.2294 41.6199 59.9678 41.5498 59.7631 41.6679C59.5585 41.7861 59.4884 42.0477 59.6065 42.2524C59.7246 42.457 59.9863 42.5271 60.191 42.4089Z" fill="#3D3D3D"/>
<path d="M60.1892 42.4096C60.1719 42.4197 60.1541 42.4283 60.136 42.4357L59.7103 43.2023C60.1033 43.4191 59.9192 43.8276 59.4863 43.5905L58.9092 44.6448L58.5093 44.4437L59.5584 42.1332C59.5184 41.9556 59.5958 41.7652 59.7618 41.6693C59.9663 41.5513 60.2277 41.6213 60.3457 41.8258C60.4573 42.019 60.4087 42.2829 60.1892 42.4096Z" stroke="#333333" stroke-width="0.461904" stroke-miterlimit="3.99393" stroke-linecap="round"/>
<path fill-rule="evenodd" clip-rule="evenodd" d="M29.7554 61.9631L31.8472 60.7555C32.0709 60.6263 32.355 60.7024 32.4842 60.9261L32.5361 61.016C32.6652 61.2398 32.5758 61.5031 32.3654 61.653L30.3891 63.0607C30.1787 63.2106 29.8813 63.1138 29.7521 62.8901L29.5847 62.6001C29.4555 62.3764 29.5317 62.0923 29.7554 61.9631Z" stroke="#333333" stroke-width="0.461955" stroke-miterlimit="3.99393" stroke-linecap="round"/>
<path fill-rule="evenodd" clip-rule="evenodd" d="M63.5939 43.6534L62.2738 41.3669C62.1781 41.2013 62.2349 40.9894 62.4006 40.8937L76.1428 32.9597C76.3085 32.864 76.5203 32.9208 76.616 33.0865L79.1144 37.4138L72.7136 43.5196L47.4342 60.3811L33.4245 68.4696C30.3209 70.2615 29.8881 72.6774 29.5072 74.8041C29.1192 76.9696 28.785 78.8353 25.739 79.4366C25.2221 79.5386 24.4926 79.8751 24.1198 80.2479L8.91076 95.4566C8.79225 95.256 8.67402 95.0553 8.55578 94.8546C6.501 91.367 4.44622 87.8795 0.997267 84.8636L18.3837 73.4662C19.2716 72.8843 20.8516 72.3293 21.8846 72.0871C26.3085 71.0497 29.077 68.2753 30.2511 64.1672C31.9866 62.4987 33.8625 61.3148 45.5593 54.5616L47.4577 54.4166L52.3018 51.6199C53.4679 50.9466 53.8332 49.9178 53.6872 49.373L63.5939 43.6534Z" stroke="#49271D" stroke-width="0.923808" stroke-miterlimit="3.99393" stroke-linecap="round"/>
<path fill-rule="evenodd" clip-rule="evenodd" d="M87.3262 27.1172L87.9826 26.7382L89.6835 27.5675L91.2128 30.2163L89.6398 31.1245L87.3262 27.1172Z" fill="#3D3A38" stroke="#353331" stroke-width="0.924057" stroke-miterlimit="3.99393" stroke-linecap="round"/>
<path d="M54.2182 44.4633C54.1567 44.4461 54.093 44.482 54.0758 44.5434C54.0586 44.6048 54.0945 44.6685 54.1559 44.6857L54.8547 44.8812L57.8975 43.1692C57.9531 43.1379 57.9728 43.0675 57.9415 43.0119C57.9102 42.9563 57.8398 42.9366 57.7842 42.9679L54.8248 44.6331L54.2182 44.4633Z" fill="#3B3B3B" stroke="#333333" stroke-width="0.461904" stroke-miterlimit="3.99393" stroke-linecap="round"/>
<path d="M55.1715 44.0442L55.6191 44.8398L56.8325 44.1571L56.3849 43.3615L55.1715 44.0442Z" fill="#404040" stroke="#333333" stroke-width="0.461955" stroke-miterlimit="3.99393" stroke-linecap="round"/>
</g>
<defs>
<clipPath id="clip0_2940_3892">
<rect width="110" height="110" fill="white"/>
</clipPath>
</defs>
</svg>
