<svg xmlns="http://www.w3.org/2000/svg" width="62" height="72" fill="none"><path fill="#373225" stroke="#1B1913" stroke-miterlimit="3.994" stroke-width="4" d="M55.266 17.168a1.816 1.816 0 0 0 2.677 2.348 1.816 1.816 0 1 0-2.677-2.348Z"/><path fill="#4e4735" stroke="#1b1913" stroke-linecap="square" stroke-miterlimit="3.994" stroke-width="4" d="m53.38 14.95.46 1.396 1.426.822-5.47 3.988-1.695 5.13-2.162 3.745-8.454-4.88 2.162-3.745-6.056-3.497 10.066-8.572z" style="fill:#8b7f50;fill-opacity:1;stroke:#1f1c11;stroke-opacity:1"/><path fill="#4e4735" stroke="#1b1913" stroke-miterlimit="3.994" stroke-width="4" d="M41.46 17.448 30.089 9.196l-18.503 11.38 1.135 5.582 18.212-11.2 5.092 3.646z" style="fill:#8b7f50;fill-opacity:1;stroke:#1f1c11;stroke-opacity:1"/><rect width="36.757" height="42.381" x="31.531" y="3.031" rx="9.983" ry="21.191" style="fill:#8a4c70;fill-opacity:1;stroke:#1f1118;stroke-width:4;stroke-linecap:round;stroke-linejoin:round;stroke-opacity:1;stroke-dasharray:none" transform="rotate(30.073)"/><circle cx="41.673" cy="39.565" r="6.802" style="fill:#693a55;fill-opacity:1;stroke:none;stroke-width:4;stroke-linecap:round;stroke-linejoin:round;stroke-dasharray:none;stroke-opacity:1"/><circle cx="35.843" cy="44.264" r="4.318" style="fill:#693a55;fill-opacity:1;stroke:none;stroke-width:4;stroke-linecap:round;stroke-linejoin:round;stroke-dasharray:none;stroke-opacity:1"/><circle cx="17.274" cy="52.145" r="6.694" style="fill:#693a55;fill-opacity:1;stroke:none;stroke-width:4;stroke-linecap:round;stroke-linejoin:round;stroke-dasharray:none;stroke-opacity:1"/><circle cx="23.805" cy="55.869" r="4.049" style="fill:#693a55;fill-opacity:1;stroke:none;stroke-width:4;stroke-linecap:round;stroke-linejoin:round;stroke-dasharray:none;stroke-opacity:1"/><circle cx="17.652" cy="42.806" r="3.833" style="fill:#693a55;fill-opacity:1;stroke:none;stroke-width:4;stroke-linecap:round;stroke-linejoin:round;stroke-dasharray:none;stroke-opacity:1"/><circle cx="26.804" cy="29.969" r="3.833" style="fill:#693a55;fill-opacity:1;stroke:none;stroke-width:4;stroke-linecap:round;stroke-linejoin:round;stroke-dasharray:none;stroke-opacity:1"/><circle cx="34.547" cy="57.759" r="5.182" style="fill:#693a55;fill-opacity:1;stroke:none;stroke-width:4;stroke-linecap:round;stroke-linejoin:round;stroke-dasharray:none;stroke-opacity:1"/><rect width="36.757" height="42.381" x="31.531" y="3.031" rx="9.983" ry="21.191" style="fill:none;fill-opacity:1;stroke:#1f1118;stroke-width:4;stroke-linecap:round;stroke-linejoin:round;stroke-dasharray:none;stroke-opacity:1" transform="rotate(30.073)"/><path fill="#A0A599" fill-rule="evenodd" stroke="#21231F" stroke-miterlimit="3.994" stroke-width="2" d="M31.496 30.437c4.79 2.766 10.914 1.126 13.68-3.664S46.3 15.857 41.51 13.092c-4.79-2.766-10.916-1.124-13.681 3.666-2.766 4.79-1.124 10.914 3.666 13.68Zm1.74-3.012a6.535 6.535 0 1 0 6.534-11.319 6.535 6.535 0 0 0-6.535 11.319Z" clip-rule="evenodd"/></svg>