<svg width="110" height="110" viewBox="0 0 110 110" fill="none" xmlns="http://www.w3.org/2000/svg">
<g clip-path="url(#clip0_525_119)">
<path d="M24.4103 76.4685L16.5124 68.0484C13.8513 70.9654 12.568 72.7669 10.9904 76.1189C9.30868 79.6921 8.0377 82.3488 5.98355 83.5347C5.34005 83.9063 4.5113 84.147 3.52339 84.4952C3.25574 84.591 3.26918 84.7682 3.19879 85.045C1.50519 91.7045 2.99501 95.1214 7.4757 98.4868C8.03031 98.9034 8.24999 98.9663 8.77227 98.8465L15.6728 97.003C15.9004 96.9422 16.0006 96.799 15.9628 96.6388C14.9583 92.3297 15.1266 88.9969 16.553 85.7086C17.7935 82.849 20.5635 80.1184 24.4103 76.4685Z" fill="#282624" stroke="#363230" stroke-width="1.44321"/>
<path d="M46.8367 49.8262L106.297 15.4964L108.515 19.3368L93.4863 28.0135L49.9305 55.1849L46.8367 49.8262Z" fill="#635D5A" stroke="#363230" stroke-width="1.44321"/>
<path d="M24.4101 76.4683L16.5122 68.0482C18.5299 65.8711 20.7811 63.9166 21.9081 63.2657L46.0668 49.3177C46.2641 49.2037 46.5164 49.2714 46.6303 49.4686L52.5602 59.7395C52.6741 59.9368 52.6065 60.1891 52.4092 60.303L49.7298 61.8499L49.4978 61.448C49.27 61.0534 48.7654 60.9182 48.3708 61.146L37.5641 67.3853C37.1695 67.6131 37.0343 68.1176 37.2621 68.5123L37.4942 68.9142L24.4101 76.4683Z" fill="#736C68"/>
<path d="M26.5493 77.0807C26.6041 76.8719 26.6857 76.6661 26.7893 76.4633C27.1192 75.8172 27.6717 75.202 28.5667 74.6181C27.6208 75.8159 27.5842 76.756 27.8685 77.5073C28.0904 78.0937 28.276 78.5224 29.02 78.986C29.2989 79.1598 29.0273 79.6175 28.7985 79.5306C28.0088 79.2308 27.5407 78.9955 27.1697 78.5657C26.8494 78.1948 26.6893 77.7284 26.5493 77.0807Z" fill="#44403E" stroke="#363230" stroke-width="0.721606"/>
<rect width="56.3078" height="4.4345" transform="matrix(0.866025 -0.500001 0.499999 0.866026 50.1365 55.542)" fill="#534E4B" stroke="#363230" stroke-width="1.44321"/>
<rect width="30.7321" height="8.76587" transform="matrix(0.866025 -0.500001 0.499999 0.866026 69.3135 41.7305)" fill="#282624"/>
<path d="M95.9282 26.3643C96.7716 26.175 97.6942 26.5355 98.2099 27.4286L100.53 31.4476C100.994 32.2514 100.979 33.1533 100.311 33.9557L95.9282 26.3643Z" fill="#6E6763" stroke="#363230" stroke-width="1.44321"/>
<path d="M69.1185 43.8679C68.5771 42.9301 68.5873 42.5129 69.3137 41.7308L73.6966 49.3223C72.9618 49.5433 72.3413 49.4499 72.0061 48.8693L69.1185 43.8679Z" fill="#6E6763" stroke="#363230" stroke-width="1.44321"/>
<path d="M99.7274 23.4572L97.5839 24.6947L98.7183 26.6596L98.5397 26.7627L101.427 31.7642L107.322 28.361L106.394 26.7533L107.823 25.9283L106.482 23.6062C106.482 23.6062 106.173 23.0703 106.475 21.9433C106.777 20.8163 107.797 20.1082 107.797 20.1082L107.642 19.8403L103.712 22.1091L104.434 23.3595L100.862 25.4221L99.7274 23.4572Z" fill="#5C5653" stroke="#363230" stroke-width="0.721606"/>
<path fill-rule="evenodd" clip-rule="evenodd" d="M24.4101 76.4683L16.5122 68.0482C18.5299 65.8711 20.7811 63.9166 21.9081 63.2657L46.0668 49.3177C46.2641 49.2037 46.5164 49.2714 46.6303 49.4686L52.5602 59.7395C52.6741 59.9368 52.6065 60.1891 52.4092 60.303L49.7298 61.8499L49.4978 61.448C49.27 61.0534 48.7654 60.9182 48.3708 61.146L37.5641 67.3853C37.1695 67.6131 37.0343 68.1176 37.2621 68.5123L37.4942 68.9142L35.1184 70.286C33.7307 71.8251 33.2353 73.6035 33.6618 74.3422L33.868 74.6994C34.5383 75.8605 34.3225 77.6522 33.5256 78.2314C32.5736 78.9233 31.1541 79.8016 30.0871 80.2166C28.1908 80.9542 26.5758 80.2195 26.1375 79.4603L25.7508 78.7905C25.4157 78.2099 23.8883 77.6586 22.9479 77.8645C23.4159 77.4135 23.9036 76.9488 24.4101 76.4683Z" stroke="#363230" stroke-width="1.44321"/>
<path fill-rule="evenodd" clip-rule="evenodd" d="M22.9477 77.8641C23.4158 77.4131 23.9036 76.9485 24.41 76.468L35.1182 70.2856C33.7305 71.8247 33.2351 73.6031 33.6616 74.3418L33.8679 74.699C34.5382 75.8601 34.3223 77.6518 33.5254 78.231C32.5735 78.9229 31.154 79.8012 30.0869 80.2162C28.1907 80.9538 26.5757 80.2191 26.1374 79.4599L25.7506 78.7901C25.4155 78.2095 23.8881 77.6582 22.9477 77.8641ZM33.0055 74.9587C33.6501 76.0751 33.2229 77.8103 31.3215 78.8485C31.2495 78.8878 31.1779 78.9272 31.1067 78.9664C30.3608 79.3769 29.6602 79.7624 28.9977 79.7734C27.936 79.7909 27.1849 79.5696 26.7675 78.7984C26.3256 77.9818 26.4119 77.2026 26.7891 76.4638C27.1664 75.725 27.8348 75.0265 28.9735 74.3691C29.9765 73.79 30.7559 73.6587 31.3629 73.7636C32.1566 73.9008 32.6448 74.334 33.0055 74.9587Z" fill="#57524F"/>
<path fill-rule="evenodd" clip-rule="evenodd" d="M22.9477 77.8641C23.4158 77.4131 23.9036 76.9485 24.41 76.468L35.1182 70.2856C33.7305 71.8247 33.2351 73.6031 33.6616 74.3418L33.8679 74.699C34.5382 75.8601 34.3223 77.6518 33.5254 78.231C32.5735 78.9229 31.154 79.8012 30.0869 80.2162C28.1907 80.9538 26.5757 80.2191 26.1374 79.4599L25.7506 78.7901C25.4155 78.2095 23.8881 77.6582 22.9477 77.8641ZM33.0055 74.9587C33.6501 76.0751 33.2229 77.8103 31.3215 78.8485C31.2495 78.8878 31.1779 78.9272 31.1067 78.9664C30.3608 79.3769 29.6602 79.7624 28.9977 79.7734C27.936 79.7909 27.1849 79.5696 26.7675 78.7984C26.3256 77.9818 26.4119 77.2026 26.7891 76.4638C27.1664 75.725 27.8348 75.0265 28.9735 74.3691C29.9765 73.79 30.7559 73.6587 31.3629 73.7636C32.1566 73.9008 32.6448 74.334 33.0055 74.9587Z" stroke="#363230" stroke-width="0.721606"/>
<rect width="13.004" height="2.09741" transform="matrix(0.866025 -0.500001 0.499999 0.866026 21.304 62.6455)" fill="#5D5E55" stroke="#353630" stroke-width="0.721606"/>
<path d="M21.4866 62.5397L16.7962 58.3882C16.555 58.1878 16.6109 57.8031 16.8993 57.6798L29.4437 52.3133C29.639 52.2298 29.8502 52.3163 29.972 52.4892L32.3842 56.2478L21.4866 62.5397Z" fill="#6F705C" stroke="#353630" stroke-width="0.721606"/>
<rect width="29.1005" height="9.0727" transform="matrix(0.866025 -0.500001 0.499999 0.866026 69.9434 41.1895)" stroke="#363330" stroke-width="1.44321"/>
</g>
<defs>
<clipPath id="clip0_525_119">
<rect width="110" height="110" fill="white"/>
</clipPath>
</defs>
</svg>
