<?xml version="1.0" encoding="UTF-8" standalone="no"?>
<!-- Created with Inkscape (http://www.inkscape.org/) -->

<svg
   width="144.58105"
   height="144.55078"
   viewBox="0 0 38.253737 38.245728"
   version="1.1"
   id="svg1"
   xml:space="preserve"
   sodipodi:docname="squash.svg"
   inkscape:version="1.3 (0e150ed, 2023-07-21)"
   xmlns:inkscape="http://www.inkscape.org/namespaces/inkscape"
   xmlns:sodipodi="http://sodipodi.sourceforge.net/DTD/sodipodi-0.dtd"
   xmlns="http://www.w3.org/2000/svg"
   xmlns:svg="http://www.w3.org/2000/svg"><sodipodi:namedview
     id="namedview1"
     pagecolor="#505050"
     bordercolor="#eeeeee"
     borderopacity="1"
     inkscape:showpageshadow="0"
     inkscape:pageopacity="0"
     inkscape:pagecheckerboard="0"
     inkscape:deskcolor="#505050"
     inkscape:document-units="mm"
     inkscape:zoom="2.6365627"
     inkscape:cx="64.098608"
     inkscape:cy="57.650819"
     inkscape:window-width="1440"
     inkscape:window-height="847"
     inkscape:window-x="1"
     inkscape:window-y="25"
     inkscape:window-maximized="0"
     inkscape:current-layer="layer1"
     showguides="false" /><defs
     id="defs1" /><g
     inkscape:label="Layer 1"
     inkscape:groupmode="layer"
     id="layer1"
     transform="translate(83.305193,-154.36166)"><g
       id="g8"
       transform="translate(0.3931002,-0.73593425)"><path
         style="fill:#904325;fill-opacity:1;stroke:#31170c;stroke-width:1;stroke-linecap:round;stroke-linejoin:round;stroke-dasharray:none;stroke-opacity:1"
         d="m -65.457537,181.07575 c -0.309103,6.01218 -3.218235,11.36868 -8.925435,9.39329 -3.658104,-1.26616 -7.561184,-4.9468 -8.217171,-8.6816 -0.722868,-3.02059 3.170918,-6.67896 8.898968,-7.48449 6.277341,-0.667 9.385229,-15.62396 16.444706,-16.64049 2.049292,-0.29508 3.966977,0.36703 5.218015,1.19335 1.473257,1.03625 1.970239,2.95726 1.107912,3.88219 -0.855144,0.91724 -1.722418,0.3524 -4.024982,0.67998 -5.231678,0.7443 -10.650134,15.11612 -10.502013,17.65777 z"
         id="path1"
         sodipodi:nodetypes="csccscssc" /><path
         style="fill:none;fill-opacity:1;stroke:#31170c;stroke-width:1;stroke-linecap:round;stroke-linejoin:round;stroke-dasharray:none;stroke-opacity:1"
         d="m -80.539446,182.24961 c 0.796806,-6.83723 6.548617,-4.67986 10.371552,-7.14485 1.195524,-0.77086 1.704313,-1.74372 2.823366,-3.05384 2.267348,-3.13523 4.708413,-7.37869 6.914369,-10.02584"
         id="path2"
         sodipodi:nodetypes="cscc" /><path
         style="fill:none;fill-opacity:1;stroke:#31170c;stroke-width:1;stroke-linecap:round;stroke-linejoin:round;stroke-dasharray:none;stroke-opacity:1"
         d="m -67.575006,179.311 c 0.04844,2.62388 -0.470044,8.33277 -3.975762,9.3344"
         id="path3" /><path
         style="fill:#295416;fill-opacity:1;stroke:#0b1505;stroke-width:1;stroke-linecap:round;stroke-linejoin:round;stroke-dasharray:none;stroke-opacity:1"
         d="m -54.105373,158.12092 c -0.07898,-0.3132 0.549095,0.71857 0.262274,1.00539 -0.285216,0.28521 -0.82123,0.20926 -1.049095,0.43712 -0.635685,0.63568 1.556721,1.27753 1.70478,1.57364 -0.09377,1.29874 -2.340021,1.15697 -1.355083,2.1419 1.883132,1.88314 5.65259,-0.38231 4.983205,-3.05986 -0.28226,-1.12904 -4.059377,-3.80165 -4.546081,-2.09819 z"
         id="path4"
         sodipodi:nodetypes="cscccsc" /><path
         style="fill:none;fill-opacity:1;stroke:#0b1505;stroke-width:1;stroke-linecap:round;stroke-linejoin:round;stroke-dasharray:none;stroke-opacity:1"
         d="m -52.313169,159.78198 c 0.990558,0.25704 1.9817,0.75979 2.8413,1.00539"
         id="path5" /><path
         style="fill:none;fill-opacity:1;stroke:#0b1505;stroke-width:1;stroke-linecap:round;stroke-linejoin:round;stroke-dasharray:none;stroke-opacity:1"
         d="m -52.138321,162.44843 c 0.816631,-0.27528 1.616813,-0.6774 2.404179,-0.87424"
         id="path6" /><path
         style="fill:none;fill-opacity:1;stroke:#0b1505;stroke-width:1;stroke-linecap:round;stroke-linejoin:round;stroke-dasharray:none;stroke-opacity:1"
         d="m -49.559293,161.04964 c 0.914524,0.33354 2.52798,0.0754 3.103573,-1.26765"
         id="path7" /><path
         style="fill:none;fill-opacity:1;stroke:#31170c;stroke-width:1;stroke-linecap:round;stroke-linejoin:round;stroke-dasharray:none;stroke-opacity:1"
         d="m -70.066418,177.34116 c -2.36905,1.43383 -7.065158,0.30866 -8.341505,3.87476 -0.542231,1.51499 -0.497621,2.49446 -0.685048,3.15045"
         id="path8"
         sodipodi:nodetypes="csc" /></g></g></svg>
