<?xml version="1.0" encoding="UTF-8" standalone="no"?>
<!-- Generator: Adobe Illustrator 27.0.0, SVG Export Plug-In . SVG Version: 6.00 Build 0)  -->

<svg
   version="1.1"
   id="Layer_1"
   x="0px"
   y="0px"
   viewBox="0 0 110 110"
   xml:space="preserve"
   sodipodi:docname="sr25.svg"
   width="110"
   height="110"
   inkscape:version="1.1.2 (0a00cf5339, 2022-02-04)"
   xmlns:inkscape="http://www.inkscape.org/namespaces/inkscape"
   xmlns:sodipodi="http://sodipodi.sourceforge.net/DTD/sodipodi-0.dtd"
   xmlns="http://www.w3.org/2000/svg"
   xmlns:svg="http://www.w3.org/2000/svg"><defs
   id="defs80" />
<style
   type="text/css"
   id="style2">
	.st0{fill:#4D4D57;stroke:#2F2F36;stroke-width:8;stroke-linecap:round;stroke-miterlimit:11.3386;}
	.st1{fill:#686873;stroke:#2F2F36;stroke-width:8;stroke-linecap:round;stroke-miterlimit:11.3386;}
	.st2{fill:none;stroke:#2F2F36;stroke-width:4;stroke-linecap:round;stroke-miterlimit:11.3386;}
	.st3{fill:none;stroke:#2F2F36;stroke-width:8;stroke-linecap:round;stroke-miterlimit:11.3386;}
	.st4{fill:#2F2F36;stroke:#2F2F36;}
	.st5{fill:#3D3D45;stroke:#2F2F36;stroke-width:4;stroke-linecap:round;stroke-miterlimit:11.3386;}
	.st6{fill:#686873;stroke:#2F2F36;stroke-width:4;stroke-linecap:round;stroke-miterlimit:11.3386;}
	.st7{fill:#37373F;stroke:#2F2F36;}
	.st8{fill:#2F2F36;}
	.st9{fill:#3B3A3A;}
	.st10{fill:none;stroke:#2F2F36;stroke-width:8;stroke-miterlimit:11.3386;}
	.st11{fill:none;stroke:#2F2F36;stroke-width:6;stroke-linecap:round;stroke-miterlimit:11.3386;}
	.st12{fill:#575654;stroke:#2F2F36;stroke-width:8;stroke-linecap:round;stroke-miterlimit:11.3386;}
	.st13{fill:#333332;}
</style>
<sodipodi:namedview
   bordercolor="#999999"
   borderopacity="1"
   id="namedview697"
   inkscape:current-layer="Layer_1"
   inkscape:cx="58.18655"
   inkscape:cy="54.601596"
   inkscape:deskcolor="#d1d1d1"
   inkscape:pagecheckerboard="true"
   inkscape:pageopacity="0"
   inkscape:showpageshadow="0"
   inkscape:window-height="1372"
   inkscape:window-maximized="1"
   inkscape:window-width="2560"
   inkscape:window-x="0"
   inkscape:window-y="0"
   inkscape:zoom="7.2525352"
   pagecolor="#505050"
   showgrid="false"
   inkscape:pageshadow="0">
	</sodipodi:namedview>


<g
   id="Sights_and_barrel">
	
	
	
	
	
	
	
	
	
	
	
</g>

<g
   id="g980"
   transform="matrix(0.11039237,-0.06373506,0.06373506,0.11039237,-10.732407,68.276889)"><g
     id="Layer_3">
	<rect
   id="rect549"
   x="541.29999"
   y="101.3"
   class="st0"
   width="391.20001"
   height="48.599998" />
	<polygon
   id="polygon551"
   class="st1"
   points="524.2,276.3 524.2,197.3 447.7,216.3 447.7,290.5 " />
	<line
   id="line553"
   class="st2"
   x1="491.20001"
   y1="272.70001"
   x2="491.20001"
   y2="200.39999" />
	<line
   id="line555"
   class="st2"
   x1="458.39999"
   y1="214.3"
   x2="458.39999"
   y2="288.5" />
	<line
   id="line557"
   class="st2"
   x1="474.70001"
   y1="211.10001"
   x2="474.70001"
   y2="276" />
	<line
   id="line559"
   class="st3"
   x1="506.39999"
   y1="205.10001"
   x2="506.39999"
   y2="279.79999" />
	<path
   id="path561"
   class="st4"
   d="m 715.2,141.9 h -33.7 c -1.6,0 -2.9,-1.3 -2.9,-2.9 v -16.5 c 0,-1.6 1.3,-2.9 2.9,-2.9 h 33.7 c 1.6,0 2.9,1.3 2.9,2.9 V 139 c 0.1,1.6 -1.2,2.9 -2.9,2.9 z" />
	<path
   id="path563"
   class="st4"
   d="m 754.8,141.9 h -33.7 c -1.6,0 -2.9,-1.3 -2.9,-2.9 v -16.5 c 0,-1.6 1.3,-2.9 2.9,-2.9 h 33.7 c 1.6,0 2.9,1.3 2.9,2.9 V 139 c 0.1,1.6 -1.2,2.9 -2.9,2.9 z" />
	<path
   id="path565"
   class="st4"
   d="m 716.3,158.1 h -35.7 c -1.1,0 -1.9,-0.9 -1.9,-1.9 v -3.6 c 0,-1.1 0.9,-1.9 1.9,-1.9 h 35.7 c 1.1,0 1.9,0.9 1.9,1.9 v 3.6 c 0,1 -0.9,1.9 -1.9,1.9 z" />
	<path
   id="path567"
   class="st4"
   d="m 755.8,158.1 h -35.7 c -1.1,0 -1.9,-0.9 -1.9,-1.9 v -3.6 c 0,-1.1 0.9,-1.9 1.9,-1.9 h 35.7 c 1.1,0 1.9,0.9 1.9,1.9 v 3.6 c 0,1 -0.8,1.9 -1.9,1.9 z" />
	<rect
   id="rect569"
   x="734.59998"
   y="139.5"
   class="st4"
   width="6.6999998"
   height="13.9" />
	<rect
   id="rect571"
   x="695"
   y="138.60001"
   class="st4"
   width="6.6999998"
   height="13.9" />
	<path
   id="path573"
   class="st5"
   d="m 628.8,135.5 h -26.4 c -1.9,0 -3.4,-1.5 -3.4,-3.4 v -1.3 c 0,-1.9 1.5,-3.4 3.4,-3.4 h 26.4 c 1.9,0 3.4,1.5 3.4,3.4 v 1.3 c 0,1.9 -1.5,3.4 -3.4,3.4 z" />
	<path
   id="path575"
   class="st5"
   d="m 670.6,135.5 h -26.4 c -1.9,0 -3.4,-1.5 -3.4,-3.4 v -1.3 c 0,-1.9 1.5,-3.4 3.4,-3.4 h 26.4 c 1.9,0 3.4,1.5 3.4,3.4 v 1.3 c 0,1.9 -1.5,3.4 -3.4,3.4 z" />
	<path
   id="path577"
   class="st5"
   d="m 791.3,135.8 h -26.4 c -1.9,0 -3.4,-1.5 -3.4,-3.4 V 131 c 0,-1.9 1.5,-3.4 3.4,-3.4 h 26.4 c 1.9,0 3.4,1.5 3.4,3.4 v 1.3 c 0,2 -1.5,3.5 -3.4,3.5 z" />
	<path
   id="path579"
   class="st5"
   d="m 833.1,135.8 h -26.4 c -1.9,0 -3.4,-1.5 -3.4,-3.4 V 131 c 0,-1.9 1.5,-3.4 3.4,-3.4 h 26.4 c 1.9,0 3.4,1.5 3.4,3.4 v 1.3 c 0,2 -1.5,3.5 -3.4,3.5 z" />
	<path
   id="path581"
   class="st6"
   d="M 874.4,135.8 H 848 c -1.9,0 -3.4,-1.5 -3.4,-3.4 V 131 c 0,-1.9 1.5,-3.4 3.4,-3.4 h 26.4 c 1.9,0 3.4,1.5 3.4,3.4 v 1.3 c 0.1,2 -1.5,3.5 -3.4,3.5 z" />
	<path
   id="path583"
   class="st5"
   d="m 915.8,135.8 h -26.4 c -1.9,0 -3.4,-1.5 -3.4,-3.4 V 131 c 0,-1.9 1.5,-3.4 3.4,-3.4 h 26.4 c 1.9,0 3.4,1.5 3.4,3.4 v 1.3 c 0,2 -1.5,3.5 -3.4,3.5 z" />
	<polygon
   id="polygon585"
   class="st4"
   points="842,156.2 858.8,162.7 919.2,162.7 919.2,147.3 842,150 " />
	<path
   id="path587"
   class="st4"
   d="m 404.8,189.5 c 0,0 -4,11.3 3.1,18.8 7.1,7.5 6.9,2.7 6.9,2.7 0,0 -12.3,-13.6 0,-21.5 v -3.9 l -11.2,-0.5 z" />
	<path
   id="path589"
   class="st0"
   d="m 322.2,101.3 v 10.1 h -13 V 168 h 21.4 c 0,0 30.1,6.8 11.9,37.5 l -46.4,65.7 c 0,0 -6.5,3.6 17.1,9 23.6,5.4 37.8,10 38.4,3.6 0.6,-6.5 -5.4,-5.8 2.8,-18.5 8.2,-12.7 10.1,-21.9 16.6,-21.3 6.5,0.6 4.2,-2.6 4.2,-2.6 0,0 -6.5,-5.7 0.5,-14 7,-8.3 7,-8.3 7,-8.3 l 17,-0.6 c 0,0 4.4,0.5 7.5,2.2 2.4,1.3 5.2,1.6 7.9,1.1 l 30.3,-5.2 85,-16.3 -0.3,-30.8 c 0,0 -3,-3.6 6.7,-8.5 0,0 4.5,-1.3 4.5,-8 0,-6.7 0,-51.8 0,-51.8 H 322.2 Z m 117.8,116.4 -23.7,3.1 c 0,0 -24.2,-2.2 -24.5,-16.3 -0.3,-14.1 11.3,-14.5 11.3,-14.5 H 431 c 0,0 13.6,4.7 13.6,15.4 0,10.7 -4.6,12.3 -4.6,12.3 z" />
	<path
   id="path591"
   class="st7"
   d="m 392.1,215 -6.7,0.3 -1.4,-27.2 h 12.2 c 0,0 -3.3,2.6 -6.1,7.6 -1.9,3.3 -3,7.2 -1.7,11.9 0.6,2.2 2.4,6.2 3.7,7.4 z" />
	<path
   id="path593"
   class="st2"
   d="m 348.3,186.1 h 85.6 6.6 c 0,0 6.4,0.4 6.4,7.5 0,7.1 0,22.7 0,22.7" />
	<path
   id="path595"
   class="st2"
   d="M 385.2,217.4 V 192 c 0,0 -0.2,-5.9 -8.9,-5.9" />
	<path
   id="path597"
   class="st8"
   d="m 361.9,219 -7.5,-6 c 0,0 -5.8,-3.9 -11,2.5 -5.2,6.3 -30.4,42.3 -30.4,42.3 0,0 -6.5,9.9 4.8,14.1 11.3,4.2 17,3.9 17,3.9 0,0 3.4,2 7.7,-4.9 4.3,-6.9 24.2,-41.2 24.2,-41.2 0,0 3.2,-2.6 -4.8,-10.7 z" />
	<path
   id="path599"
   class="st9"
   d="M 390.8,200.5" />
	<path
   id="path601"
   class="st7"
   d="m 436.4,188.1 8.6,6.6 c 0,0 0.3,-5 -2.5,-6 -2.8,-1 -1.8,-0.6 -6.1,-0.6 z" />
	<circle
   id="circle603"
   class="st6"
   cx="355.79999"
   cy="157.7"
   r="5.5" />
	<circle
   id="circle605"
   class="st6"
   cx="536.09998"
   cy="157.2"
   r="6.1999998" />
	<line
   id="line607"
   class="st10"
   x1="454.29999"
   y1="157.2"
   x2="529.90002"
   y2="157.2" />
	<line
   id="line609"
   class="st2"
   x1="453.20001"
   y1="152.10001"
   x2="453.20001"
   y2="163.39999" />
</g><g
     id="Stock">
	<path
   id="path612"
   class="st8"
   d="m 306.9,115.4 h -5.6 v 34.9 H 293 V 162 c 0,0 -0.8,5.9 3.7,5.9 4.5,0 12.4,0.2 12.4,0.2 v -52.7 c 0,0 -2.2,0 -2.2,0 z" />
	<rect
   id="rect614"
   x="293"
   y="107.4"
   class="st8"
   width="12.8"
   height="47.099998" />
	<rect
   id="rect616"
   x="224.3"
   y="117.9"
   class="st1"
   width="68.699997"
   height="27.6" />
	<polygon
   id="polygon618"
   class="st6"
   points="248.4,145.6 222.3,145.6 222.3,153.4 235.8,153.4 " />
	<path
   id="path620"
   class="st0"
   d="M 220.3,115.4 44.6,114.2 c -7.2,0 -13.5,5.1 -14.7,12.2 -0.9,5.3 -0.8,12 2.2,19.2 7.3,17.2 10.7,90.9 10.7,95.9 0,4.3 7.9,6.8 10.1,7.4 0.3,0.1 0.7,0.1 1.1,0.1 h 24.4 c 5.6,0 9.4,-3.3 9.4,-11.1 0,-7.8 5.9,-10.7 5.9,-10.7 L 209.9,171 c 0.5,-0.3 1.2,-0.4 1.8,-0.4 h 8.6 c 2.2,0 4,-1.8 4,-4 v -47.1 c 0,-2.3 -1.8,-4.1 -4,-4.1 z m -72.4,65.5 c -3.4,3 -57.7,31.8 -57.7,31.8 0,0 -12.2,6.4 -13,-9.8 -0.8,-16.2 -2.4,-28.1 -2.4,-28.1 0,0 -3.6,-11.5 14.4,-11.5 h 61 v 11.5 c 0.1,0 1.1,3.1 -2.3,6.1 z" />
	<circle
   id="circle622"
   class="st6"
   cx="60.099998"
   cy="168.5"
   r="7.0999999" />
	<line
   id="line624"
   class="st2"
   x1="157.3"
   y1="161.3"
   x2="60.099998"
   y2="161.3" />
	<path
   id="path626"
   class="st2"
   d="M 157.3,190.5" />
	<path
   id="path628"
   class="st2"
   d="m 46.6,166.4 c 0,0 11.7,58 8.2,80.5" />
	<line
   id="line630"
   class="st2"
   x1="39.900002"
   y1="165.7"
   x2="53.200001"
   y2="165.7" />
	<line
   id="line632"
   class="st2"
   x1="32.200001"
   y1="136.3"
   x2="222.3"
   y2="136.3" />
	<line
   id="line634"
   class="st2"
   x1="93.099998"
   y1="136.3"
   x2="93.099998"
   y2="161.3" />
	<line
   id="line636"
   class="st2"
   x1="157.39999"
   y1="161.3"
   x2="222"
   y2="161.3" />
	<path
   id="path638"
   class="st11"
   d="M 233.3,210" />
	<path
   id="path642"
   class="st2"
   d="M 322.2,111.5" />
	<path
   id="path644"
   class="st2"
   d="m 320.3,111.5 v 15.1 c 0,2.1 1,4.1 2.7,5.4 l 22.7,17.1 c 0.9,0.7 2,1.1 3.1,1.1 h 192.4" />
	<path
   id="path646"
   class="st12"
   d="M 309.2,136.2" />
</g><path
     id="path649"
     class="st8"
     d="m 913.1,96.3 h -5.3 c -1.7,0 -3.1,-1.4 -3.1,-3.1 V 69.8 c 0,-1.7 1.4,-3.1 3.1,-3.1 h 5.3 c 1.7,0 3.1,1.4 3.1,3.1 v 23.4 c 0,1.7 -1.4,3.1 -3.1,3.1 z" /><path
     id="path651"
     class="st8"
     d="m 917.7,96.3 h -5.9 c -1.5,0 -2.8,-1.3 -2.8,-2.8 v -2.9 c 0,-1.7 1.3,-3 3,-3 h 5.7 z" /><polygon
     id="polygon653"
     class="st8"
     points="930.2,94.4 922.3,87.6 917.7,87.6 917.7,101.3 930.2,101.3 " /><rect
     id="rect655"
     x="932.5"
     y="122.1"
     class="st4"
     width="8.6999998"
     height="17.4" /><path
     id="path657"
     class="st4"
     d="M 952.3,144.6 H 940 v -27.3 h 12.5 c 3.6,0 6.4,2.9 6.4,6.4 v 14.2 c 0.1,3.7 -2.9,6.7 -6.6,6.7 z" /><path
     id="path659"
     class="st4"
     d="m 1012.9,129.6 v -6.8 c 0,-1.9 -1.5,-3.5 -3.5,-3.5 h -52.1 v 22.9 h 51.2 c 2.4,0 4.3,-1.9 4.3,-4.3 v -4.2 h -41.6 v -4.1 z" /><circle
     id="circle661"
     class="st6"
     cx="574.59998"
     cy="131.7"
     r="6" /><path
     id="path663"
     class="st8"
     d="m 352.9,68.9 v 32.4 H 375 v -7.7 l -5.2,-5.2 h -4.9 V 68.9 c 0,0 -3.4,-0.8 -3.4,-5.3 0,-4.5 0.1,-8.2 0.1,-8.2 h -5.9 v 14.1 z" /><circle
     id="circle665"
     class="st6"
     cx="356.5"
     cy="93.699997"
     r="6.3000002" /><path
     id="path667"
     class="st13"
     d="M 179.4,26.9" /><rect
     id="rect669"
     x="375"
     y="94.800003"
     class="st8"
     width="545.40002"
     height="6.8000002" /><g
     id="Garnish">
	<path
   id="path672"
   class="st6"
   d="m 474.7,137 h -40.8 v -13.1 c 0,-3 2.4,-5.4 5.4,-5.4 h 27.9 c 4.1,0 7.5,3.4 7.5,7.5 z" />
	<path
   id="path674"
   class="st6"
   d="m 523.4,137 h -35.1 v -12.3 c 0,-3 2.4,-5.4 5.4,-5.4 h 25.2 c 2.5,0 4.5,2 4.5,4.5 z" />
	<path
   id="path676"
   class="st2"
   d="m 414.1,150.2 v 8.5 c 0,0 -0.8,6.8 6.5,6.8 7.3,0 9.6,0 9.6,0 0,0 5.3,-0.5 5.3,-2 0,-1.5 6.8,-1.1 6.8,-1.1 0,0 6.3,0.7 6.3,6.3 0,5.6 0,7 0,7 0,0 -2.5,10.5 -8.8,10.5 v 0" />
	<line
   id="line678"
   class="st2"
   x1="433.29999"
   y1="150.89999"
   x2="433.29999"
   y2="165.10001" />
	<path
   id="path680"
   class="st8"
   d="m 425.2,129.1 h -13.6 c -2.5,0 -4.5,-2 -4.5,-4.5 V 111 c 0,-2.5 2,-4.5 4.5,-4.5 h 13.6 c 2.5,0 4.5,2 4.5,4.5 v 13.6 c -0.1,2.5 -2.1,4.5 -4.5,4.5 z" />
	<path
   id="path682"
   class="st2"
   d="m 432.4,137 v -17.7 c 0,0 -0.4,-4 6.6,-4 7,0 80.1,0 80.1,0 0,0 5.3,0.9 5.3,9 0,8.1 0,12.7 0,12.7" />
	<path
   id="path684"
   class="st2"
   d="M 474.7,137" />
	<line
   id="line686"
   class="st2"
   x1="474.70001"
   y1="137"
   x2="489.70001"
   y2="137" />
	<line
   id="line688"
   class="st2"
   x1="474.70001"
   y1="130.39999"
   x2="488.29999"
   y2="130.39999" />
</g><path
     class="st8"
     d="M 385.2,222.3 H 400 c 0,0 5.9,1 7.5,2.2 1.6,1.2 39.4,-4.5 39.4,-4.5 l 0.8,-6.4 -31.2,4.5 c 0,0 -13,-2.6 -24.4,-1.9 -11.4,0.7 -11.3,0.6 -11.3,0.6 z"
     id="path77" /></g>
</svg>
