<svg width="111" height="110" viewBox="0 0 111 110" fill="none" xmlns="http://www.w3.org/2000/svg">
<g clip-path="url(#clip0_619_1189)">
<rect width="110" height="110" transform="translate(0.0175781)" fill="white" fill-opacity="0.01"/>
<path d="M102.717 24.8044L101.377 25.5779L101.057 25.0224L100.24 25.494L99.1456 23.5989L99.9624 23.1273L99.6606 22.6046L101.022 21.8186C101.235 21.6956 101.476 21.6807 101.687 21.7538L107.357 18.4802C107.575 18.3544 107.839 18.4343 107.959 18.6413L108.386 19.3819L103.845 22.004L104.102 22.4505L108.633 19.8347L108.897 20.2921C109.048 20.5535 108.961 20.8799 108.699 21.0308L103.123 24.2503C103.078 24.4774 102.934 24.6789 102.717 24.8044Z" fill="#393941" stroke="#2F2F36" stroke-width="0.503043" stroke-miterlimit="3.99393"/>
<path d="M91.0448 32.3263L91.4346 33.0015L93.6731 32.6531L100.251 28.8551L99.283 27.1779L91.0448 32.3263Z" fill="#34343C" stroke="#2F2F36" stroke-width="0.503043" stroke-miterlimit="3.99393"/>
<path d="M55.2235 45.9198L55.2126 45.9261L58.2935 51.2624L46.542 58.0475L47.4823 59.6762C47.4823 59.6762 47.7437 59.5755 47.6179 59.3577C47.5487 59.2379 48.2893 58.8103 48.2893 58.8103C48.2893 58.8103 48.9755 58.4142 49.3716 59.1003L49.8118 59.8627C49.8118 59.8627 50.4649 60.994 49.5171 61.5412L49.511 61.5468L49.5836 61.5049C49.5836 61.5049 50.3058 61.146 50.7523 61.9193L52.1797 64.3916L60.2678 57.3984L58.2984 54.0628C58.2984 54.0628 57.8999 53.5019 58.4936 52.7157C58.4936 52.7157 58.902 52.2912 58.4807 51.5615L55.2235 45.9198Z" fill="#484851" stroke="#303036" stroke-width="0.503043" stroke-miterlimit="3.99393" stroke-linecap="round"/>
<path d="M45.9141 64.12C45.9141 64.12 46.189 65.6022 47.4338 65.9726C48.6787 66.343 48.3551 65.8328 48.3551 65.8328C48.3551 65.8328 46.1603 65.125 47.0032 63.4912L46.7837 63.1111L45.5723 63.8105L45.9141 64.12Z" fill="#393941" stroke="#2F2F36" stroke-width="0.503043" stroke-miterlimit="3.99393"/>
<path d="M40.1342 69.7794C40.1476 68.6125 39.9071 67.8269 39.5437 67.3032L42.5956 65.5412C43.5431 64.9941 43.9359 65.6241 43.9359 65.6241L45.6344 68.566L45.3676 68.7328L45.1271 70.0769C44.8867 71.421 45.953 71.6331 45.953 71.6331C45.953 71.6331 46.4047 71.837 45.6591 72.1804C45.1438 72.4176 45.162 73.0264 45.1913 74.0064C45.2044 74.4447 45.2197 74.9572 45.1905 75.544C45.1268 76.8238 45.3829 77.035 45.6617 77.265C45.7966 77.3762 45.9369 77.4919 46.0488 77.735C46.3331 78.3546 45.0718 78.7305 42.9242 79.3704C42.5253 79.4892 42.096 79.6172 41.6402 79.7575C38.7303 80.6533 39.2119 79.8525 39.2119 79.8525L40.1342 69.7794Z" fill="#43434C" stroke="#2F2F36" stroke-width="0.503043" stroke-miterlimit="3.99393" stroke-linecap="round"/>
<path d="M96.1116 21.3857L36.7109 55.6807L37.1385 56.4213L96.5392 22.1263L96.1116 21.3857Z" fill="#37373F" stroke="#2F2F36" stroke-width="0.503043" stroke-miterlimit="3.99393"/>
<path d="M31.7976 60.9273L32.7532 62.5824C32.8852 62.8111 33.1199 62.966 33.3868 63.0007L36.9344 63.4357C37.0764 63.4554 37.2214 63.4298 37.3412 63.3606L58.2959 51.2624L55.215 45.9261L31.3632 59.6969L32.0046 60.8078L31.7976 60.9273Z" fill="#51515C" stroke="#303036" stroke-width="0.503043" stroke-miterlimit="3.99393" stroke-linecap="round"/>
<path d="M97.8408 21.3308L55.2344 45.9297L58.2904 51.2228L100.897 26.624L97.8408 21.3308Z" fill="#4D4D57" stroke="#2F2F36" stroke-width="1.00609" stroke-miterlimit="3.99393" stroke-linecap="round"/>
<path d="M52.267 64.3398L56.9327 72.4211L64.3716 66.0642L59.404 57.4602L52.267 64.3398Z" fill="#686873" stroke="#2F2F36" stroke-width="1.00609" stroke-miterlimit="3.99393" stroke-linecap="round"/>
<path d="M60.8705 68.2923L56.3242 60.418" stroke="#2F2F36" stroke-width="0.503043" stroke-miterlimit="3.99393" stroke-linecap="round"/>
<path d="M53.3086 63.4512L57.9743 71.5324" stroke="#2F2F36" stroke-width="0.503043" stroke-miterlimit="3.99393" stroke-linecap="round"/>
<path d="M55.041 62.3486L59.2793 69.6895" stroke="#2F2F36" stroke-width="0.503043" stroke-miterlimit="3.99393" stroke-linecap="round"/>
<path d="M57.957 59.4297L62.6542 67.5654" stroke="#2F2F36" stroke-width="1.00609" stroke-miterlimit="3.99393" stroke-linecap="round"/>
<path d="M78.8388 38.1983L77.3685 39.0472C77.1942 39.1478 76.9709 39.0879 76.8703 38.9137L75.8327 37.1166C75.7321 36.9424 75.792 36.719 75.9662 36.6184L79.6366 34.4994C79.8108 34.3987 80.0342 34.4586 80.1348 34.6328L81.1723 36.4299C81.2838 36.5979 81.224 36.8212 81.0388 36.9281L79.5685 37.777L80.1218 38.7354L81.701 37.8236C81.8208 37.7544 81.9646 37.8021 82.0274 37.9111L82.2538 38.3031C82.3167 38.412 82.2862 38.5604 82.1664 38.6295L78.2782 40.8744C78.1584 40.9435 78.0147 40.8958 77.9518 40.7869L77.7254 40.3948C77.6562 40.275 77.704 40.1313 77.8129 40.0684L79.3921 39.1567L78.8388 38.1983Z" fill="#3E3E46" stroke="#2F2F36" stroke-width="0.503043" stroke-miterlimit="3.99393"/>
<path d="M74.5244 40.6885L73.054 41.5374C72.8798 41.638 72.6564 41.5782 72.5558 41.4039L71.5183 39.6069C71.4177 39.4326 71.4775 39.2093 71.6518 39.1087L75.3221 36.9896C75.4964 36.889 75.7197 36.9488 75.8203 37.1231L76.8578 38.9201C76.9693 39.0881 76.9095 39.3114 76.7244 39.4183L75.2541 40.2672L75.8074 41.2256L77.3975 40.3075C77.5173 40.2384 77.661 40.2861 77.7239 40.395L77.9503 40.7871C78.0131 40.896 77.9717 41.0506 77.8628 41.1135L73.9746 43.3583C73.8548 43.4275 73.7111 43.3798 73.6482 43.2709L73.4219 42.8788C73.3527 42.759 73.4004 42.6152 73.5093 42.5524L75.0777 41.6469L74.5244 40.6885Z" fill="#3E3E46" stroke="#2F2F36" stroke-width="0.503043" stroke-miterlimit="3.99393"/>
<path d="M66.9112 44.1529L64.0359 45.8129C63.829 45.9324 63.5713 45.8634 63.4518 45.6564L63.37 45.5148C63.2506 45.3079 63.3196 45.0502 63.5266 44.9307L66.4018 43.2707C66.6088 43.1512 66.8665 43.2203 66.9859 43.4272L67.0677 43.5688C67.1871 43.7757 67.1181 44.0334 66.9112 44.1529Z" fill="#3D3D45" stroke="#2F2F36" stroke-width="0.503043" stroke-miterlimit="3.99393" stroke-linecap="round"/>
<path d="M71.4639 41.524L68.5886 43.184C68.3817 43.3035 68.124 43.2344 68.0045 43.0275L67.9228 42.8859C67.8033 42.679 67.8724 42.4213 68.0793 42.3018L70.9546 40.6418C71.1615 40.5223 71.4192 40.5914 71.5387 40.7983L71.6204 40.9399C71.7399 41.1468 71.6708 41.4045 71.4639 41.524Z" fill="#3D3D45" stroke="#2F2F36" stroke-width="0.503043" stroke-miterlimit="3.99393" stroke-linecap="round"/>
<path d="M84.6284 33.9675L81.7531 35.6275C81.5462 35.747 81.2885 35.678 81.169 35.471L81.081 35.3185C80.9615 35.1116 81.0306 34.8539 81.2375 34.7344L84.1128 33.0744C84.3197 32.9549 84.5774 33.024 84.6969 33.2309L84.7786 33.3725C84.9044 33.5903 84.8353 33.848 84.6284 33.9675Z" fill="#3D3D45" stroke="#2F2F36" stroke-width="0.503043" stroke-miterlimit="3.99393" stroke-linecap="round"/>
<path d="M89.1831 31.3396L86.3078 32.9996C86.1009 33.1191 85.8432 33.05 85.7237 32.8431L85.6357 32.6906C85.5162 32.4837 85.5852 32.226 85.7922 32.1065L88.6675 30.4465C88.8744 30.327 89.1321 30.396 89.2516 30.603L89.3333 30.7446C89.4591 30.9624 89.39 31.2201 89.1831 31.3396Z" fill="#3D3D45" stroke="#2F2F36" stroke-width="0.503043" stroke-miterlimit="3.99393" stroke-linecap="round"/>
<path d="M93.6792 28.7438L90.8039 30.4039C90.597 30.5234 90.3393 30.4543 90.2198 30.2474L90.1318 30.0949C90.0123 29.888 90.0813 29.6303 90.2883 29.5108L93.1636 27.8508C93.3705 27.7313 93.6282 27.8003 93.7476 28.0073L93.8294 28.1489C93.966 28.3604 93.8861 28.6244 93.6792 28.7438Z" fill="#686873" stroke="#2F2F36" stroke-width="0.503043" stroke-miterlimit="3.99393" stroke-linecap="round"/>
<path d="M98.187 26.1394L95.3117 27.7994C95.1048 27.9189 94.8471 27.8498 94.7276 27.6429L94.6396 27.4904C94.5201 27.2835 94.5892 27.0258 94.7961 26.9063L97.6714 25.2463C97.8783 25.1268 98.136 25.1959 98.2555 25.4028L98.3372 25.5444C98.463 25.7622 98.3939 26.0199 98.187 26.1394Z" fill="#3D3D45" stroke="#2F2F36" stroke-width="0.503043" stroke-miterlimit="3.99393" stroke-linecap="round"/>
<path d="M51.5389 64.9476L51.4008 65.0672L51.091 65.3045L51.5552 64.9186C51.5493 64.93 51.5438 64.9396 51.5389 64.9476Z" fill="#45454E"/>
<path d="M51.9854 64.5609L51.5552 64.9186C51.6363 64.7617 51.7832 64.2786 51.246 63.3482C50.5732 62.1829 48.7964 62.5262 48.7964 62.5262L45.7578 64.2805C45.7578 64.2805 44.5196 65.0535 45.4388 66.5703C46.3581 68.0871 49.1321 66.805 49.1321 66.805L51.091 65.3045L49.0643 66.9894C48.8017 67.2136 48.4779 67.357 48.1348 67.3663C47.6902 67.3761 47.1796 67.5983 47.1796 67.5983L45.6325 68.5658L43.9341 65.624C43.9341 65.624 43.5413 64.994 42.5938 65.541L49.5859 61.5041C49.5859 61.5041 50.3081 61.1452 50.7545 61.9185L52.1819 64.3908L51.9854 64.5609Z" fill="#45454E"/>
<path d="M51.091 65.3045L51.4008 65.0672L51.5389 64.9476C51.5438 64.9396 51.5493 64.93 51.5552 64.9186M51.091 65.3045L51.5552 64.9186M51.091 65.3045L49.1321 66.805C49.1321 66.805 46.3581 68.0871 45.4388 66.5703C44.5196 65.0535 45.7578 64.2805 45.7578 64.2805L48.7964 62.5262C48.7964 62.5262 50.5732 62.1829 51.246 63.3482C51.7832 64.2786 51.6363 64.7617 51.5552 64.9186M51.091 65.3045L49.0643 66.9894C48.8017 67.2136 48.4779 67.357 48.1348 67.3663C47.6902 67.3761 47.1796 67.5983 47.1796 67.5983L45.6325 68.5658L43.9341 65.624C43.9341 65.624 43.5413 64.994 42.5938 65.541L49.5859 61.5041C49.5859 61.5041 50.3081 61.1452 50.7545 61.9185L52.1819 64.3908L51.9854 64.5609L51.5552 64.9186" stroke="#2F2F36" stroke-width="0.503043" stroke-miterlimit="3.99393" stroke-linecap="round"/>
<path d="M44.9878 60.1817L44.4525 59.256L37.3412 63.3617C37.2214 63.4309 37.0765 63.4565 36.9344 63.4368L33.3869 63.0018C33.12 62.9672 32.8853 62.8122 32.7533 62.5835L31.7977 60.9284L28.8244 62.645L32.0061 68.1559C32.0061 68.1559 32.29 68.8488 32.7801 68.5658C33.2702 68.2829 36.4785 66.4452 36.4785 66.4452C36.4785 66.4452 38.5078 65.8143 39.5421 67.3049L49.5135 61.5479L49.5196 61.5423C50.4674 60.9951 49.8143 59.8638 49.8143 59.8638L49.3741 59.1014C48.9779 58.4153 48.2918 58.8114 48.2918 58.8114C48.2918 58.8114 47.5512 59.239 47.6204 59.3588C47.7461 59.5766 47.1689 59.9099 47.1689 59.9099L46.1233 60.5136C45.3283 60.9726 44.9878 60.1817 44.9878 60.1817Z" fill="#4D4D57" stroke="#303036" stroke-width="0.503043" stroke-miterlimit="3.99393" stroke-linecap="round"/>
<path d="M43.095 70.0296L41.9009 69.8478C41.9009 69.8478 41.024 69.7877 40.8601 70.8117C40.6899 71.8249 40.209 77.3303 40.209 77.3303C40.209 77.3303 39.9883 78.8402 41.6184 78.5641C43.1132 78.311 43.7151 77.9199 43.7151 77.9199C43.7151 77.9199 44.2176 77.7318 44.2456 76.902L44.2906 70.8932C44.2906 70.8932 44.2331 70.2339 43.095 70.0296Z" fill="#40404A"/>
<path d="M38.9216 64.3375C39.2524 64.1465 39.3657 63.7235 39.1747 63.3927C38.9837 63.0619 38.5607 62.9485 38.2299 63.1395C37.899 63.3305 37.7857 63.7535 37.9767 64.0844C38.1677 64.4152 38.5907 64.5285 38.9216 64.3375Z" fill="#686873" stroke="#2F2F36" stroke-width="0.503043" stroke-miterlimit="3.99393" stroke-linecap="round"/>
<path d="M49.0497 56.8784C48.9802 56.7581 48.8264 56.7169 48.7061 56.7863C48.5858 56.8558 48.5446 57.0096 48.614 57.1299L49.3246 58.3606C49.394 58.4809 49.5479 58.5222 49.6682 58.4527C49.7885 58.3832 49.8297 58.2294 49.7602 58.1091L49.6219 57.8695L57.7576 53.1723L57.2546 52.301L49.1188 56.9982L49.0497 56.8784Z" fill="#3E3E47" stroke="#2F2F37" stroke-width="0.503043" stroke-miterlimit="3.99393" stroke-linecap="round"/>
<path d="M29.2342 63.353L21.752 67.6729L23.4874 70.6788L30.9697 66.3589L29.2342 63.353Z" fill="#686873" stroke="#2F2F36" stroke-width="1.00609" stroke-miterlimit="3.99393" stroke-linecap="round"/>
<path d="M23.7639 71.6649L25.2342 70.8161L26.116 69.1742L23.2734 70.8154L23.7639 71.6649Z" fill="#5E5E68" stroke="#2F2F36" stroke-width="0.503043" stroke-miterlimit="3.99393" stroke-linecap="round"/>
<path d="M21.1594 67.6514L1.94806 78.5688C1.16389 79.0216 0.798431 79.9732 1.11419 80.8219C1.34943 81.4557 1.78162 82.1792 2.56109 82.7747C4.43769 84.1889 9.44227 92.002 9.75668 92.5465C10.0271 93.0148 11.0447 92.7904 11.322 92.7174C11.361 92.7094 11.4045 92.6842 11.4481 92.6591L14.1056 91.1248C14.7155 90.7727 14.9218 90.1743 14.4314 89.3248C13.9409 88.4753 14.4011 87.7885 14.4011 87.7885L23.5228 74.3609C23.5584 74.2968 23.6284 74.2419 23.6937 74.2042L24.6304 73.6634C24.87 73.525 24.9528 73.2158 24.8145 72.9762L21.8528 67.8465C21.7082 67.596 21.399 67.5131 21.1594 67.6514ZM17.3928 79.3377C17.2111 79.8782 13.1082 86.4293 13.1082 86.4293C13.1082 86.4293 12.1819 87.8935 11.0761 86.1794C9.97028 84.4654 9.04775 83.2699 9.04775 83.2699C9.04775 83.2699 7.93254 82.2438 9.89296 81.112L16.5366 77.2762L17.2597 78.5287C17.2706 78.5224 17.5745 78.7972 17.3928 79.3377Z" fill="#4D4D57"/>
<path d="M17.1839 76.6126L6.59766 82.7246" stroke="#2F2F36" stroke-width="0.503043" stroke-miterlimit="3.99393" stroke-linecap="round"/>
<path d="M4.67188 84.4727L6.12041 83.6363" stroke="#2F2F36" stroke-width="0.503043" stroke-miterlimit="3.99393" stroke-linecap="round"/>
<path d="M17.1895 76.6055L24.2252 72.5434" stroke="#2F2F36" stroke-width="0.503043" stroke-miterlimit="3.99393" stroke-linecap="round"/>
<path d="M95.9138 21.7169L94.8356 22.3394C94.6505 22.4463 94.4099 22.3819 94.303 22.1967L92.8316 19.6482C92.7248 19.463 92.7892 19.2225 92.9743 19.1156L93.5516 18.7824C93.7367 18.6755 93.9772 18.7399 94.0841 18.925L95.2034 20.8637L95.8678 20.4802L97.1558 20.724L97.5897 21.4755L96.2283 22.2615L95.9138 21.7169Z" fill="#3E3E47" stroke="#2F2F36" stroke-width="0.503043" stroke-miterlimit="3.99393"/>
<path d="M61.1463 47.8008C61.5072 47.5924 61.6309 47.1309 61.4225 46.77C61.2141 46.4091 60.7527 46.2854 60.3918 46.4938C60.0309 46.7022 59.9072 47.1637 60.1156 47.5246C60.3239 47.8855 60.7854 48.0091 61.1463 47.8008Z" fill="#686873" stroke="#2F2F36" stroke-width="0.503043" stroke-miterlimit="3.99393" stroke-linecap="round"/>
<path d="M32.6731 54.2477L34.7104 57.7764L37.1174 56.3867L36.6332 55.5481L35.7399 55.3088L35.2062 55.6169L33.98 53.4931C33.98 53.4931 33.5594 53.6198 33.2765 53.1296C32.9935 52.6395 32.7718 52.2303 32.7718 52.2303L32.1292 52.6013L33.0158 54.1369L32.6731 54.2477Z" fill="#3E3E47" stroke="#303036" stroke-width="0.503043" stroke-miterlimit="3.99393"/>
<path d="M35.0234 57.4097C35.4023 57.191 35.5321 56.7064 35.3134 56.3274C35.0946 55.9485 34.61 55.8187 34.2311 56.0374C33.8521 56.2562 33.7223 56.7408 33.9411 57.1197C34.1599 57.4987 34.6444 57.6285 35.0234 57.4097Z" fill="#686873" stroke="#2F2F36" stroke-width="0.503043" stroke-miterlimit="3.99393" stroke-linecap="round"/>
<path d="M46.5859 58.124L47.4524 59.6247" stroke="#2F2F36" stroke-width="0.503043" stroke-miterlimit="3.99393" stroke-linecap="round"/>
<path d="M44.2055 56.1876L42.8553 56.9671C42.6072 57.1104 42.294 57.0265 42.1507 56.7783L41.3712 55.4282C41.2279 55.18 41.3118 54.8668 41.56 54.7235L42.9101 53.944C43.1583 53.8007 43.4715 53.8847 43.6148 54.1328L44.3943 55.483C44.5276 55.7369 44.4437 56.0501 44.2055 56.1876Z" fill="#393941" stroke="#2F2F36" stroke-width="0.503043" stroke-miterlimit="3.99393"/>
<path d="M45.6165 56.6651L44.5035 54.7374C44.5035 54.7374 44.2519 54.3018 44.9708 53.8867L53.6946 48.85C53.6946 48.85 54.2719 48.5168 54.8378 49.497C55.3471 50.3791 55.6364 50.8801 55.6364 50.8801" fill="#43434C"/>
<path d="M50.2227 54.0068L51.8563 53.0636" stroke="#2F2F36" stroke-width="0.503043" stroke-miterlimit="3.99393" stroke-linecap="round"/>
<path d="M51.7067 53.1517L50.2255 54.0068L49.8105 53.2881L51.2917 52.4329L51.7067 53.1517Z" fill="#3E3E46"/>
<path d="M45.8388 68.9257L47.4507 67.9951C47.4507 67.9951 48.1561 67.733 48.4059 67.7631C48.6556 67.7932 52.414 64.7955 52.414 64.7955L52.0987 64.0482L48.9836 66.5002C48.9836 66.5002 47.4043 67.0344 46.2067 67.8275C45.0091 68.6206 45.0137 68.6034 45.0137 68.6034L45.8388 68.9257Z" fill="#2F2F36"/>
<path d="M22.9092 69.6762L1.7087 81.9164C1.43374 81.5486 1.24398 81.1716 1.11419 80.8219C0.798431 79.9732 1.16389 79.0216 1.94806 78.5688L21.1594 67.6514C21.399 67.5131 21.7082 67.596 21.8528 67.8465L22.9092 69.6762Z" fill="#51515C" stroke="#2F2F36" stroke-width="0.503043" stroke-miterlimit="3.99393" stroke-linecap="round"/>
<path d="M21.1594 67.6514L1.94806 78.5688C1.16389 79.0216 0.798431 79.9732 1.11419 80.8219C1.34943 81.4557 1.78162 82.1792 2.56109 82.7747C4.43769 84.1889 9.44227 92.002 9.75668 92.5465C10.0271 93.0148 11.0447 92.7904 11.322 92.7174C11.361 92.7094 11.4045 92.6842 11.4481 92.6591L14.1056 91.1248C14.7155 90.7727 14.9218 90.1743 14.4314 89.3248C13.9409 88.4753 14.4011 87.7885 14.4011 87.7885L23.5228 74.3609C23.5584 74.2968 23.6284 74.2419 23.6937 74.2042L24.6304 73.6634C24.87 73.525 24.9528 73.2158 24.8145 72.9762L21.8528 67.8465C21.7082 67.596 21.399 67.5131 21.1594 67.6514ZM17.3928 79.3377C17.2111 79.8782 13.1082 86.4293 13.1082 86.4293C13.1082 86.4293 12.1819 87.8935 11.0761 86.1794C9.97028 84.4654 9.04775 83.2699 9.04775 83.2699C9.04775 83.2699 7.93254 82.2438 9.89296 81.112L16.5366 77.2762L17.2597 78.5287C17.4192 78.8049 17.4571 79.1463 17.3928 79.3377Z" stroke="#2F2F36" stroke-width="1.00609" stroke-miterlimit="3.99393" stroke-linecap="round"/>
<path d="M4.31606 84.6778L8.85101 82.0596C9.00208 81.7683 9.31263 81.4445 9.88932 81.1116L10.3141 80.8664L8.61632 77.9258L1.70508 81.916C1.92846 82.2148 2.20807 82.5074 2.55745 82.7743C3.00249 83.1097 3.62345 83.805 4.31606 84.6778Z" fill="#484851" stroke="#2F2F37" stroke-width="0.503043" stroke-miterlimit="3.99393" stroke-linecap="round"/>
<path d="M7.4943 84.2798C7.92137 84.0332 8.0677 83.4871 7.82113 83.0601C7.57456 82.633 7.02847 82.4867 6.6014 82.7332C6.17433 82.9798 6.02801 83.5259 6.27458 83.953C6.52114 84.38 7.06723 84.5264 7.4943 84.2798Z" fill="#686873" stroke="#2F2F36" stroke-width="0.503043" stroke-miterlimit="3.99393" stroke-linecap="round"/>
<path d="M10.4382 92.8353L11.3578 92.3044C10.3242 89.6338 5.40287 84.0526 5.40287 84.0526L4.31836 84.6787C6.54627 87.4864 9.5155 92.1316 9.75534 92.547C9.87693 92.7576 10.1496 92.8281 10.4382 92.8353Z" fill="#43434C" stroke="#2F2F36" stroke-width="0.503043" stroke-miterlimit="3.99393" stroke-linecap="round"/>
<path d="M32.0034 60.8084L31.362 59.6975L55.2247 45.9204L58.4819 51.5621C58.9032 52.2918 58.4948 52.7163 58.4948 52.7163C57.9011 53.5024 58.2996 54.0634 58.2996 54.0634L60.269 57.399L52.0364 64.5191L51.5542 64.92L51.09 65.3059L49.0633 66.9907C48.8007 67.215 48.4769 67.3583 48.1337 67.3677C47.6892 67.3774 47.1786 67.5997 47.1786 67.5997L45.3648 68.734L45.1243 70.0781C44.8838 71.4222 45.9502 71.6343 45.9502 71.6343C45.9502 71.6343 46.4019 71.8382 45.6562 72.1816C45.141 72.4189 45.1592 73.0276 45.1884 74.0076L45.1884 74.0076C45.2015 74.4459 45.2168 74.9585 45.1876 75.5452C45.1239 76.825 45.38 77.0362 45.6589 77.2662C45.7938 77.3774 45.934 77.4931 46.046 77.7362C46.3532 78.4034 45.069 78.7317 42.9213 79.3716C42.5225 79.4904 42.0931 79.6184 41.6374 79.7587C38.7275 80.6545 39.2091 79.8537 39.2091 79.8537L40.1313 69.7806C40.1831 65.2926 36.4773 66.4447 36.4773 66.4447C36.4773 66.4447 33.2689 68.2824 32.7788 68.5653C32.2887 68.8483 32.0048 68.1554 32.0048 68.1554L28.8231 62.6445L32.0034 60.8084Z" stroke="#303036" stroke-width="1.00609" stroke-miterlimit="3.99393" stroke-linecap="round"/>
<path d="M51.5541 64.9203C51.6352 64.7634 51.7821 64.2804 51.2449 63.35C50.5721 62.1846 48.7954 62.5279 48.7954 62.5279L45.7567 64.2823C45.7567 64.2823 44.5185 65.0552 45.4378 66.572C46.3571 68.0888 49.1311 66.8067 49.1311 66.8067L51.09 65.3062L51.5541 64.9203Z" stroke="#303036" stroke-width="0.503043" stroke-miterlimit="3.99393" stroke-linecap="round"/>
<path d="M58.5702 53.0202C58.9431 52.8049 59.0709 52.328 58.8556 51.9551C58.6403 51.5822 58.1634 51.4544 57.7905 51.6697C57.4176 51.885 57.2898 52.3619 57.5051 52.7348C57.7204 53.1078 58.1973 53.2355 58.5702 53.0202Z" fill="#686873" stroke="#2F2F36" stroke-width="0.503043" stroke-miterlimit="3.99393" stroke-linecap="round"/>
<path d="M50.2202 54.006L45.7766 56.5715L44.9528 55.1448C44.7642 54.818 44.8747 54.4057 45.2014 54.2171L48.2401 52.4627C48.6866 52.2049 49.2707 52.3614 49.5285 52.808L50.2202 54.006Z" fill="#4D4D57"/>
<path d="M55.5256 50.9443L51.7028 53.1514L50.9294 51.8118C50.7408 51.485 50.8512 51.0727 51.178 50.8841L53.9226 49.2995C54.1948 49.1423 54.5384 49.2343 54.6956 49.5066L55.5256 50.9443Z" fill="#4D4D57"/>
<path d="M45.6165 56.6651L44.5035 54.7374C44.5035 54.7374 44.2519 54.3018 44.9708 53.8867L53.6946 48.85C53.6946 48.85 54.2719 48.5168 54.8378 49.497C55.3471 50.3791 55.6364 50.8801 55.6364 50.8801" stroke="#2F2F36" stroke-width="0.503043" stroke-miterlimit="3.99393" stroke-linecap="round"/>
<path d="M47.4854 59.6766C47.3485 59.8058 47.1695 59.9092 47.1695 59.9092L46.124 60.5128C45.3289 60.9718 44.9885 60.181 44.9885 60.181L44.454 59.2552L46.5451 58.0479L47.4854 59.6766Z" fill="#43434C" stroke="#303036" stroke-width="0.503043"/>
</g>
<defs>
<clipPath id="clip0_619_1189">
<rect width="110" height="110" fill="white" transform="translate(0.0175781)"/>
</clipPath>
</defs>
</svg>
