<?xml version="1.0" encoding="UTF-8"?>
<svg id="Layer_2" data-name="Layer 2" xmlns="http://www.w3.org/2000/svg" viewBox="0 0 131.58 14.45">
  <defs>
    <style>
      .cls-1 {
        fill: #646b78;
      }

      .cls-2 {
        fill: #4d4d57;
      }

      .cls-2, .cls-3, .cls-4, .cls-5, .cls-6 {
        stroke-width: 3px;
      }

      .cls-2, .cls-3, .cls-4, .cls-5, .cls-6, .cls-7 {
        stroke-linejoin: round;
      }

      .cls-2, .cls-4, .cls-5, .cls-6, .cls-7 {
        stroke: #151518;
      }

      .cls-3 {
        fill: #2d2d34;
        stroke: #151519;
      }

      .cls-4 {
        fill: #2f2f36;
      }

      .cls-5 {
        fill: #474750;
      }

      .cls-6 {
        fill: #3e3e47;
      }

      .cls-7 {
        fill: #464956;
        stroke-width: 2px;
      }
    </style>
  </defs>
  <g id="Layer_6" data-name="Layer 6">
    <g id="layer1">
      <g id="g911">
        <rect id="rect17870" class="cls-5" x="16.5" y="3.42" width="113.58" height="7.21"/>
        <rect id="rect20102" class="cls-2" x="37.02" y="1.5" width="34.35" height="11.45"/>
        <rect id="rect24670" class="cls-2" x="70.59" y="1.98" width="42.24" height="10.43"/>
        <g id="g20821">
          <rect id="rect36327" class="cls-1" x="44.72" y="3.58" width="1.74" height="7.26"/>
          <rect id="rect36327-3" class="cls-1" x="48.5" y="3.62" width="1.74" height="7.26"/>
          <rect id="rect36327-3-8" class="cls-1" x="52.35" y="3.62" width="1.74" height="7.26"/>
          <rect id="rect36327-3-8-9" class="cls-1" x="56.19" y="3.62" width="1.74" height="7.26"/>
          <rect id="rect36327-3-3" class="cls-1" x="59.99" y="3.67" width="1.74" height="7.26"/>
          <rect id="rect36327-3-8-7" class="cls-1" x="63.84" y="3.67" width="1.74" height="7.26"/>
          <rect id="rect36327-3-8-9-1" class="cls-1" x="67.69" y="3.67" width="1.74" height="7.26"/>
        </g>
        <rect id="rect37257" class="cls-7" x="70.77" y="4.97" width="40.3" height="4.17"/>
        <rect id="rect36327-3-8-9-1-5" class="cls-1" x="73.96" y="5.8" width="1.74" height="2.51"/>
        <rect id="rect36327-3-8-9-1-5-6" class="cls-1" x="77.29" y="5.81" width="1.74" height="2.51"/>
        <rect id="rect36327-3-8-9-1-5-6-0" class="cls-1" x="80.65" y="5.81" width="1.74" height="2.51"/>
        <rect id="rect36327-3-8-9-1-5-1" class="cls-1" x="84.01" y="5.81" width="1.74" height="2.51"/>
        <rect id="rect36327-3-8-9-1-5-6-6" class="cls-1" x="87.35" y="5.82" width="1.74" height="2.51"/>
        <rect id="rect36327-3-8-9-1-5-6-0-2" class="cls-1" x="90.71" y="5.82" width="1.74" height="2.51"/>
        <rect id="rect36327-3-8-9-1-5-3" class="cls-1" x="94.15" y="5.81" width="1.74" height="2.51"/>
        <rect id="rect36327-3-8-9-1-5-6-5" class="cls-1" x="97.48" y="5.82" width="1.74" height="2.51"/>
        <rect id="rect36327-3-8-9-1-5-3-4-5" class="cls-1" x="100.99" y="5.81" width="1.74" height="2.51"/>
        <rect id="rect36327-3-8-9-1-5-6-5-0-5" class="cls-1" x="104.32" y="5.82" width="1.74" height="2.51"/>
        <rect id="rect36327-3-8-9-1-5-6-0-9-8-1" class="cls-1" x="107.68" y="5.82" width="1.74" height="2.51"/>
        <rect id="rect40490" class="cls-3" x="114.11" y="4.78" width="2.65" height="4.49"/>
        <rect id="rect45574" class="cls-2" x="1.5" y="1.92" width="27.53" height="10.37"/>
        <rect id="rect14302" class="cls-4" x="37.82" y="2.35" width="5.77" height="9.61"/>
        <rect id="rect15445" class="cls-6" x="38.22" y="5.2" width="5.04" height="4.14"/>
        <rect id="rect16229" class="cls-6" x="43.87" y="5.5" width="2.23" height="3.31"/>
      </g>
    </g>
  </g>
</svg>