<svg width="110" height="110" viewBox="0 0 110 110" fill="none" xmlns="http://www.w3.org/2000/svg">
<g clip-path="url(#clip0_619_1189)">
<path d="M52.5002 64.3762L57.1841 72.489L64.6522 66.1072L59.6653 57.4696L52.5002 64.3762Z" fill="#686873"/>
<path d="M53.3168 63.5892C53.3197 63.5954 53.3229 63.6014 53.3263 63.6074L58.0102 71.7202C58.0184 71.7343 58.0277 71.7474 58.038 71.7593L58.425 71.4286L53.7637 63.3549C53.7387 63.3116 53.7028 63.2785 53.6614 63.257L53.3168 63.5892Z" fill="#575760"/>
<path d="M63.2743 67.2847C63.2685 67.2217 63.2495 67.1595 63.2163 67.1019L58.799 59.451C58.6684 59.2248 58.3667 59.1544 58.1251 59.2939C57.8836 59.4333 57.7937 59.7298 57.9243 59.9561L62.3415 67.6069C62.408 67.722 62.5186 67.7967 62.6431 67.8241L63.2743 67.2847Z" fill="#575760"/>
<path d="M56.9365 60.5682C56.8668 60.4474 56.7124 60.4061 56.5916 60.4758C56.4708 60.5455 56.4295 60.6999 56.4992 60.8207L61.0632 68.7258C61.1329 68.8465 61.2873 68.8879 61.4081 68.8182C61.5289 68.7484 61.5702 68.594 61.5005 68.4732L56.9365 60.5682Z" fill="#575760"/>
<path d="M55.1567 62.1569C55.2775 62.0871 55.4319 62.1285 55.5016 62.2493L59.7564 69.6188C59.8261 69.7395 59.7848 69.894 59.664 69.9637C59.5432 70.0334 59.3888 69.9921 59.3191 69.8713L55.0643 62.5018C54.9945 62.381 55.0359 62.2266 55.1567 62.1569Z" fill="#575760"/>
<path d="M52.5002 64.3762L57.1841 72.489L64.6522 66.1072L59.6653 57.4696L52.5002 64.3762Z" stroke="#2F2F36" stroke-width="1.01002" stroke-miterlimit="3.99393" stroke-linecap="round"/>
<path d="M21.2667 67.6986L1.97994 78.6588C1.1927 79.1134 0.825797 80.0687 1.14278 80.9207C1.37894 81.557 1.81282 82.2833 2.59534 82.8811C4.47928 84.3009 9.50338 92.1443 9.81901 92.691C10.0905 93.1612 11.112 92.9358 11.3905 92.8625C11.4296 92.8545 11.4733 92.8293 11.5171 92.804L14.1849 91.2637C14.7972 90.9102 15.0044 90.3095 14.512 89.4567C14.0197 88.6039 14.4817 87.9143 14.4817 87.9143L23.6393 74.4342C23.6751 74.3699 23.7453 74.3147 23.8109 74.2769L24.7512 73.734C24.9917 73.5951 25.0749 73.2847 24.9361 73.0441L21.9628 67.8944C21.8177 67.6429 21.5072 67.5597 21.2667 67.6986ZM17.4852 79.4306C17.3028 79.9732 13.1837 86.5499 13.1837 86.5499C13.1837 86.5499 12.2538 88.0198 11.1436 86.2991C10.0335 84.5783 9.10741 83.3782 9.10741 83.3782C9.10741 83.3782 7.98784 82.3481 9.95595 81.2118L16.6257 77.361L17.3516 78.6184C17.3626 78.6121 17.6676 78.8879 17.4852 79.4306Z" fill="#4D4D57"/>
<path d="M16.6472 77.3489L17.3732 78.6063C17.5567 78.9242 17.6131 79.0218 17.5068 79.4184C17.3244 79.9611 13.2053 86.5378 13.2053 86.5378C13.2053 86.5378 12.2753 88.0077 11.1652 86.2869C10.0551 84.5662 9.12896 83.3661 9.12896 83.3661C9.12896 83.3661 8.58719 82.845 8.93511 82.1514L5.47112 84.1513C5.47112 84.1513 10.4117 89.7543 11.4493 92.4353L10.5261 92.9683C10.8805 92.9771 11.2588 92.8907 11.412 92.8504C11.4511 92.8424 11.4949 92.8172 11.5386 92.7919L14.2065 91.2516C14.8188 90.8981 15.026 90.2974 14.5336 89.4446C14.0412 88.5917 14.5033 87.9022 14.5033 87.9022L23.6609 74.4221C23.6966 74.3577 23.7668 74.3026 23.8324 74.2647L24.7728 73.7218C25.0133 73.583 25.0965 73.2725 24.9576 73.032L24.7493 72.6712L16.6472 77.3489Z" fill="#43434C" stroke="#2F2F36" stroke-width="0.505011" stroke-miterlimit="3.99393" stroke-linecap="round"/>
<path d="M103.146 24.6822L101.801 25.4587L101.479 24.9011L100.659 25.3745L99.5608 23.4721L100.381 22.9986L100.078 22.4738L101.445 21.6847C101.658 21.5612 101.901 21.5463 102.112 21.6197L107.805 18.3332C108.024 18.207 108.289 18.2872 108.409 18.4949L108.838 19.2384L104.278 21.8708L104.537 22.3191L109.086 19.693L109.351 20.1522C109.502 20.4146 109.414 20.7423 109.152 20.8938L103.554 24.126C103.509 24.3539 103.364 24.5562 103.146 24.6822Z" fill="#393941" stroke="#2F2F36" stroke-width="0.505011" stroke-miterlimit="3.99393"/>
<path d="M91.4283 32.2356L91.8196 32.9135L94.0669 32.5637L100.671 28.7508L99.6988 27.067L91.4283 32.2356Z" fill="#34343C" stroke="#2F2F36" stroke-width="0.505011" stroke-miterlimit="3.99393"/>
<path d="M55.4688 45.8815L55.4579 45.8878L58.5508 51.2449L46.7532 58.0566L47.6972 59.6916C47.6972 59.6916 47.9596 59.5906 47.8333 59.3719C47.7639 59.2516 48.5074 58.8224 48.5074 58.8224C48.5074 58.8224 49.1963 58.4247 49.5939 59.1135L50.0358 59.8788C50.0358 59.8788 50.6915 61.0145 49.74 61.5639L49.7339 61.5695L49.8067 61.5274C49.8067 61.5274 50.5318 61.1672 50.98 61.9435L52.4129 64.4254L60.5328 57.4048L58.5557 54.0562C58.5557 54.0562 58.1557 53.4931 58.7517 52.7039C58.7517 52.7039 59.1617 52.2777 58.7387 51.5451L55.4688 45.8815Z" fill="#484851" stroke="#303036" stroke-width="0.505011" stroke-miterlimit="3.99393" stroke-linecap="round"/>
<path d="M46.1185 64.1524C46.1185 64.1524 46.3945 65.6404 47.6442 66.0123C48.894 66.3841 48.5691 65.8719 48.5691 65.8719C48.5691 65.8719 46.3657 65.1614 47.2119 63.5212L46.9916 63.1396L45.7754 63.8418L46.1185 64.1524Z" fill="#393941" stroke="#2F2F36" stroke-width="0.505011" stroke-miterlimit="3.99393"/>
<path d="M40.3154 69.8365C40.3289 68.6651 40.0874 67.8764 39.7226 67.3506L42.7865 65.5817C43.7377 65.0325 44.132 65.665 44.132 65.665L45.8371 68.6183L45.5693 68.7858L45.3279 70.1351C45.0865 71.4845 46.157 71.6974 46.157 71.6974C46.157 71.6974 46.6105 71.9021 45.8619 72.2468C45.3446 72.485 45.3629 73.0962 45.3922 74.08C45.4054 74.52 45.4207 75.0345 45.3914 75.6236C45.3275 76.9084 45.5846 77.1204 45.8645 77.3513C45.9999 77.463 46.1407 77.5791 46.2531 77.8231C46.5385 78.4452 45.2723 78.8225 43.1162 79.465C42.7158 79.5843 42.2847 79.7127 41.8272 79.8536C38.9059 80.753 39.3894 79.949 39.3894 79.949L40.3154 69.8365Z" fill="#43434C" stroke="#2F2F36" stroke-width="0.505011" stroke-miterlimit="3.99393" stroke-linecap="round"/>
<path d="M96.5167 21.2501L36.8828 55.6797L37.3121 56.4232L96.9459 21.9935L96.5167 21.2501Z" fill="#37373F" stroke="#2F2F36" stroke-width="0.505011" stroke-miterlimit="3.99393"/>
<path d="M31.9486 60.9482L32.9078 62.6098C33.0404 62.8394 33.276 62.9949 33.5439 63.0297L37.1054 63.4664C37.248 63.4861 37.3935 63.4604 37.5138 63.391L58.5507 51.2453L55.4578 45.8882L31.5124 59.7131L32.1563 60.8283L31.9486 60.9482Z" fill="#51515C" stroke="#303036" stroke-width="0.505011" stroke-miterlimit="3.99393" stroke-linecap="round"/>
<path d="M98.2483 21.1972L55.4746 45.8926L58.5425 51.2063L101.316 26.5109L98.2483 21.1972Z" fill="#4D4D57" stroke="#2F2F36" stroke-width="1.01002" stroke-miterlimit="3.99393" stroke-linecap="round"/>
<path d="M79.1755 38.1305L77.6994 38.9827C77.5244 39.0837 77.3002 39.0236 77.1992 38.8487L76.1577 37.0446C76.0567 36.8697 76.1167 36.6455 76.2917 36.5445L79.9764 34.4171C80.1514 34.3161 80.3756 34.3761 80.4766 34.5511L81.5182 36.3551C81.6301 36.5238 81.57 36.748 81.3841 36.8553L79.908 37.7075L80.4635 38.6696L82.049 37.7543C82.1692 37.6848 82.3135 37.7327 82.3766 37.8421L82.6039 38.2357C82.667 38.345 82.6364 38.4939 82.5161 38.5634L78.6127 40.817C78.4924 40.8865 78.3481 40.8386 78.285 40.7292L78.0577 40.3356C77.9883 40.2153 78.0362 40.0711 78.1455 40.0079L79.7309 39.0926L79.1755 38.1305Z" fill="#3E3E46"/>
<path d="M79.1755 38.1305L79.3941 38.0042L79.2679 37.7855L79.0492 37.9118L79.1755 38.1305ZM81.5182 36.3551L81.2995 36.4814L81.3034 36.4882L81.3078 36.4948L81.5182 36.3551ZM79.908 37.7075L79.7818 37.4888L79.5631 37.6151L79.6894 37.8338L79.908 37.7075ZM80.4635 38.6696L80.2448 38.7959L80.3711 39.0146L80.5898 38.8883L80.4635 38.6696ZM79.7309 39.0926L79.8572 39.3113L80.0759 39.185L79.9496 38.9663L79.7309 39.0926ZM77.8256 39.2014L79.3017 38.3491L79.0492 37.9118L77.5731 38.764L77.8256 39.2014ZM76.9806 38.9749C77.1513 39.2706 77.5299 39.3721 77.8256 39.2014L77.5731 38.764C77.519 38.7953 77.4492 38.7766 77.4179 38.7224L76.9806 38.9749ZM75.939 37.1709L76.9806 38.9749L77.4179 38.7224L76.3763 36.9184L75.939 37.1709ZM76.1654 36.3258C75.8697 36.4965 75.7683 36.8752 75.939 37.1709L76.3763 36.9184C76.3451 36.8642 76.3638 36.7944 76.4179 36.7631L76.1654 36.3258ZM79.8502 34.1984L76.1654 36.3258L76.4179 36.7631L80.1027 34.6358L79.8502 34.1984ZM80.6953 34.4248C80.5245 34.1291 80.1459 34.0277 79.8502 34.1984L80.1027 34.6358C80.1569 34.6045 80.2266 34.6232 80.2579 34.6773L80.6953 34.4248ZM81.7368 36.2289L80.6953 34.4248L80.2579 34.6773L81.2995 36.4814L81.7368 36.2289ZM81.5104 37.074C81.8089 36.9016 81.9294 36.5181 81.7285 36.2155L81.3078 36.4948C81.322 36.5163 81.3252 36.5394 81.3189 36.5628C81.3124 36.5871 81.2943 36.6156 81.2579 36.6366L81.5104 37.074ZM80.0343 37.9262L81.5104 37.074L81.2579 36.6366L79.7818 37.4888L80.0343 37.9262ZM80.6822 38.5434L80.1267 37.5813L79.6894 37.8338L80.2448 38.7959L80.6822 38.5434ZM81.9227 37.5356L80.3373 38.451L80.5898 38.8883L82.1752 37.973L81.9227 37.5356ZM82.5953 37.7158C82.4668 37.4933 82.1712 37.3922 81.9227 37.5356L82.1752 37.973C82.1753 37.9729 82.1748 37.9732 82.1738 37.9735C82.1729 37.9738 82.1717 37.9741 82.1705 37.9742C82.1679 37.9745 82.1659 37.9742 82.1645 37.9738C82.1625 37.9732 82.16 37.9719 82.158 37.9683L82.5953 37.7158ZM82.8226 38.1094L82.5953 37.7158L82.158 37.9683L82.3852 38.3619L82.8226 38.1094ZM82.6423 38.782C82.8908 38.6386 82.9511 38.332 82.8226 38.1094L82.3852 38.3619C82.3831 38.3583 82.3832 38.3556 82.3837 38.3536C82.3841 38.3522 82.3849 38.3502 82.3864 38.3482C82.3871 38.3471 82.3879 38.3463 82.3887 38.3456C82.3894 38.3449 82.3899 38.3447 82.3898 38.3447L82.6423 38.782ZM78.7389 41.0357L82.6423 38.782L82.3898 38.3447L78.4864 40.5983L78.7389 41.0357ZM78.0663 40.8555C78.1948 41.078 78.4904 41.1792 78.7389 41.0357L78.4864 40.5983C78.4863 40.5984 78.4868 40.5981 78.4878 40.5978C78.4887 40.5975 78.4899 40.5972 78.4911 40.5971C78.4937 40.5968 78.4958 40.5971 78.4972 40.5975C78.4992 40.5981 78.5016 40.5994 78.5037 40.603L78.0663 40.8555ZM77.8391 40.4619L78.0663 40.8555L78.5037 40.603L78.2764 40.2094L77.8391 40.4619ZM78.0193 39.7892C77.7967 39.9177 77.6956 40.2134 77.8391 40.4619L78.2764 40.2094C78.2764 40.2093 78.2766 40.2097 78.277 40.2107C78.2773 40.2117 78.2775 40.2128 78.2777 40.2141C78.278 40.2166 78.2777 40.2187 78.2773 40.2201C78.2767 40.2221 78.2754 40.2245 78.2718 40.2266L78.0193 39.7892ZM79.6047 38.8739L78.0193 39.7892L78.2718 40.2266L79.8572 39.3113L79.6047 38.8739ZM78.9568 38.2567L79.5123 39.2188L79.9496 38.9663L79.3941 38.0042L78.9568 38.2567Z" fill="#2F2F36"/>
<path d="M74.8435 40.6304L73.3674 41.4827C73.1924 41.5837 72.9682 41.5236 72.8672 41.3487L71.8256 39.5446C71.7246 39.3697 71.7847 39.1455 71.9597 39.0445L75.6444 36.9171C75.8194 36.8161 76.0436 36.8761 76.1446 37.0511L77.1861 38.8551C77.2981 39.0238 77.238 39.248 77.0521 39.3553L75.5761 40.2075L76.1315 41.1696L77.7279 40.248C77.8481 40.1785 77.9924 40.2264 78.0556 40.3358L78.2828 40.7294C78.3459 40.8387 78.3043 40.9939 78.195 41.0571L74.2916 43.3107C74.1713 43.3801 74.027 43.3322 73.9639 43.2229L73.7366 42.8293C73.6672 42.709 73.7151 42.5647 73.8244 42.5016L75.399 41.5926L74.8435 40.6304Z" fill="#3E3E46" stroke="#2F2F36" stroke-width="0.505011" stroke-miterlimit="3.99393"/>
<path d="M67.2032 44.1089L64.3167 45.7755C64.1089 45.8954 63.8502 45.8261 63.7303 45.6184L63.6482 45.4762C63.5283 45.2685 63.5976 45.0098 63.8054 44.8899L66.6919 43.2233C66.8997 43.1034 67.1584 43.1727 67.2783 43.3804L67.3604 43.5225C67.4803 43.7303 67.411 43.989 67.2032 44.1089Z" fill="#3D3D45" stroke="#2F2F36" stroke-width="0.505011" stroke-miterlimit="3.99393" stroke-linecap="round"/>
<path d="M71.7735 41.4703L68.887 43.1368C68.6792 43.2568 68.4205 43.1874 68.3006 42.9797L68.2185 42.8376C68.0986 42.6298 68.1679 42.3711 68.3757 42.2512L71.2622 40.5846C71.47 40.4647 71.7287 40.534 71.8486 40.7417L71.9307 40.8839C72.0506 41.0916 71.9813 41.3503 71.7735 41.4703Z" fill="#3D3D45" stroke="#2F2F36" stroke-width="0.505011" stroke-miterlimit="3.99393" stroke-linecap="round"/>
<path d="M84.9869 33.8835L82.1003 35.5501C81.8926 35.67 81.6339 35.6007 81.5139 35.393L81.4256 35.2399C81.3056 35.0322 81.3749 34.7735 81.5827 34.6535L84.4693 32.987C84.677 32.867 84.9357 32.9363 85.0556 33.1441L85.1377 33.2862C85.264 33.5049 85.1946 33.7636 84.9869 33.8835Z" fill="#3D3D45" stroke="#2F2F36" stroke-width="0.505011" stroke-miterlimit="3.99393" stroke-linecap="round"/>
<path d="M89.5592 31.2449L86.6726 32.9114C86.4648 33.0314 86.2061 32.962 86.0862 32.7543L85.9978 32.6012C85.8779 32.3935 85.9472 32.1348 86.155 32.0149L89.0415 30.3483C89.2493 30.2284 89.508 30.2977 89.6279 30.5054L89.71 30.6475C89.8362 30.8662 89.7669 31.1249 89.5592 31.2449Z" fill="#3D3D45" stroke="#2F2F36" stroke-width="0.505011" stroke-miterlimit="3.99393" stroke-linecap="round"/>
<path d="M94.0748 28.6374L91.1882 30.304C90.9805 30.4239 90.7218 30.3546 90.6018 30.1469L90.5135 29.9938C90.3935 29.7861 90.4628 29.5274 90.6706 29.4074L93.5572 27.7409C93.7649 27.6209 94.0236 27.6902 94.1435 27.898L94.2256 28.0401C94.3628 28.2525 94.2825 28.5175 94.0748 28.6374Z" fill="#3D3D45" stroke="#2F2F36" stroke-width="0.505011" stroke-miterlimit="3.99393" stroke-linecap="round"/>
<path d="M98.6021 26.0232L95.7156 27.6897C95.5078 27.8097 95.2491 27.7404 95.1292 27.5326L95.0408 27.3796C94.9209 27.1718 94.9902 26.9131 95.1979 26.7932L98.0845 25.1266C98.2922 25.0067 98.5509 25.076 98.6709 25.2837L98.7529 25.4259C98.8792 25.6445 98.8099 25.9032 98.6021 26.0232Z" fill="#3D3D45" stroke="#2F2F36" stroke-width="0.505011" stroke-miterlimit="3.99393" stroke-linecap="round"/>
<path d="M51.7673 64.9852L51.6286 65.1053L51.3177 65.3435L51.7837 64.9561C51.7778 64.9675 51.7722 64.9772 51.7673 64.9852Z" fill="#45454E"/>
<path d="M52.2156 64.5971L51.7837 64.9561C51.8651 64.7986 52.0125 64.3137 51.4733 63.3796C50.7978 62.2097 49.0141 62.5544 49.0141 62.5544L45.9636 64.3156C45.9636 64.3156 44.7205 65.0916 45.6433 66.6143C46.5662 68.1371 49.3511 66.8499 49.3511 66.8499L51.3177 65.3435L49.283 67.035C49.0194 67.2601 48.6943 67.4041 48.3498 67.4134C47.9035 67.4233 47.3909 67.6464 47.3909 67.6464L45.8378 68.6176L44.1327 65.6643C44.1327 65.6643 43.7384 65.0318 42.7871 65.5811L49.8067 61.5283C49.8067 61.5283 50.5317 61.168 50.9799 61.9443L52.4129 64.4262L52.2156 64.5971Z" fill="#45454E"/>
<path d="M51.3177 65.3435L51.6286 65.1053L51.7673 64.9852C51.7722 64.9772 51.7778 64.9675 51.7837 64.9561M51.3177 65.3435L51.7837 64.9561M51.3177 65.3435L49.3511 66.8499C49.3511 66.8499 46.5662 68.1371 45.6433 66.6143C44.7205 65.0916 45.9636 64.3156 45.9636 64.3156L49.0141 62.5544C49.0141 62.5544 50.7978 62.2097 51.4733 63.3796C52.0125 64.3137 51.8651 64.7986 51.7837 64.9561M51.3177 65.3435L49.283 67.035C49.0194 67.2601 48.6943 67.4041 48.3498 67.4134C47.9035 67.4233 47.3909 67.6464 47.3909 67.6464L45.8378 68.6176L44.1327 65.6643C44.1327 65.6643 43.7384 65.0318 42.7871 65.5811L49.8067 61.5283C49.8067 61.5283 50.5317 61.168 50.9799 61.9443L52.4129 64.4262L52.2156 64.5971L51.7837 64.9561" stroke="#2F2F36" stroke-width="0.505011" stroke-miterlimit="3.99393" stroke-linecap="round"/>
<path d="M45.1918 60.1982L44.6545 59.2689L37.5152 63.3908C37.395 63.4602 37.2494 63.4859 37.1069 63.4662L33.5454 63.0295C33.2775 62.9947 33.0419 62.8392 32.9093 62.6096L31.95 60.948L28.965 62.6713L32.1592 68.2038C32.1592 68.2038 32.4441 68.8993 32.9362 68.6153C33.4282 68.3312 36.6491 66.4863 36.6491 66.4863C36.6491 66.4863 38.6864 65.8529 39.7247 67.3493L49.7352 61.5697C50.6868 61.0204 50.0372 59.8791 50.0372 59.8791L49.5953 59.1137C49.1976 58.4249 48.5088 58.8226 48.5088 58.8226C48.5088 58.8226 47.7653 59.2519 47.8347 59.3721C47.961 59.5908 47.3815 59.9254 47.3815 59.9254L46.3318 60.5314C45.5336 60.9922 45.1918 60.1982 45.1918 60.1982Z" fill="#4D4D57" stroke="#303036" stroke-width="0.505011" stroke-miterlimit="3.99393" stroke-linecap="round"/>
<path d="M43.2905 70.0855L42.0917 69.9029C42.0917 69.9029 41.2114 69.8426 41.0468 70.8707C40.8759 71.8877 40.3931 77.4147 40.3931 77.4147C40.3931 77.4147 40.1715 78.9305 41.808 78.6533C43.3086 78.3992 43.9129 78.0065 43.9129 78.0065C43.9129 78.0065 44.4175 77.8178 44.4455 76.9847L44.4908 70.9524C44.4908 70.9524 44.4331 70.2906 43.2905 70.0855Z" fill="#40404A"/>
<path d="M39.1004 64.3702C39.4326 64.1784 39.5464 63.7537 39.3546 63.4216C39.1629 63.0895 38.7382 62.9757 38.4061 63.1674C38.0739 63.3592 37.9601 63.7839 38.1519 64.116C38.3436 64.4481 38.7683 64.5619 39.1004 64.3702Z" fill="#686873" stroke="#2F2F36" stroke-width="0.505011" stroke-miterlimit="3.99393" stroke-linecap="round"/>
<path d="M29.3749 63.3819L21.8633 67.7188L23.6055 70.7364L31.1172 66.3996L29.3749 63.3819Z" fill="#686873" stroke="#2F2F36" stroke-width="1.01002" stroke-miterlimit="3.99393" stroke-linecap="round"/>
<path d="M23.885 71.7268L25.361 70.8746L26.2463 69.2264L23.3926 70.874L23.885 71.7268Z" fill="#5E5E68" stroke="#2F2F36" stroke-width="0.505011" stroke-miterlimit="3.99393" stroke-linecap="round"/>
<path d="M96.3173 21.5847L95.2348 22.2096C95.0489 22.3169 94.8075 22.2522 94.7002 22.0664L93.223 19.5079C93.1157 19.322 93.1804 19.0806 93.3663 18.9733L93.9458 18.6387C94.1317 18.5314 94.3731 18.5961 94.4804 18.7819L95.6041 20.7282L96.2711 20.3431L97.5641 20.5879L97.9997 21.3423L96.6329 22.1314L96.3173 21.5847Z" fill="#3E3E47" stroke="#2F2F36" stroke-width="0.505011" stroke-miterlimit="3.99393"/>
<path d="M61.4135 47.7702C61.7759 47.561 61.9 47.0977 61.6908 46.7354C61.4816 46.3731 61.0184 46.249 60.656 46.4582C60.2937 46.6673 60.1696 47.1306 60.3788 47.4929C60.5879 47.8552 61.0512 47.9794 61.4135 47.7702Z" fill="#686873" stroke="#2F2F36" stroke-width="0.505011" stroke-miterlimit="3.99393" stroke-linecap="round"/>
<path d="M32.8288 54.2446L34.874 57.7871L37.2904 56.392L36.8044 55.5501L35.9075 55.3098L35.3718 55.6191L34.1408 53.4871C34.1408 53.4871 33.7186 53.6142 33.4345 53.1222C33.1504 52.6302 32.9278 52.2193 32.9278 52.2193L32.2827 52.5918L33.1728 54.1334L32.8288 54.2446Z" fill="#3E3E47" stroke="#303036" stroke-width="0.505011" stroke-miterlimit="3.99393"/>
<path d="M35.1873 57.4174C35.5678 57.1978 35.6981 56.7113 35.4785 56.3309C35.2589 55.9505 34.7724 55.8202 34.392 56.0398C34.0115 56.2594 33.8812 56.7459 34.1008 57.1263C34.3205 57.5067 34.8069 57.6371 35.1873 57.4174Z" fill="#686873" stroke="#2F2F36" stroke-width="0.505011" stroke-miterlimit="3.99393" stroke-linecap="round"/>
<path d="M44.407 56.1913L43.0516 56.9739C42.8024 57.1177 42.488 57.0335 42.3442 56.7843L41.5617 55.4289C41.4178 55.1798 41.5021 54.8654 41.7512 54.7215L43.1066 53.939C43.3558 53.7951 43.6702 53.8794 43.8141 54.1285L44.5966 55.4839C44.7305 55.7388 44.6462 56.0532 44.407 56.1913Z" fill="#393941" stroke="#2F2F36" stroke-width="0.505011" stroke-miterlimit="3.99393"/>
<path d="M23.0234 69.7312L1.73961 82.0194C1.46357 81.6503 1.27308 81.2718 1.14278 80.9207C0.825797 80.0687 1.1927 79.1134 1.97994 78.6588L21.2667 67.6986C21.5072 67.5597 21.8177 67.6429 21.9628 67.8944L23.0234 69.7312Z" fill="#51515C" stroke="#2F2F36" stroke-width="0.505011" stroke-miterlimit="3.99393" stroke-linecap="round"/>
<path d="M4.36141 84.7911L8.91416 82.1626C9.06583 81.8702 9.3776 81.5452 9.95656 81.2109L10.383 80.9647L8.67861 78.0127L1.74023 82.0186C1.96448 82.3185 2.24519 82.6122 2.59594 82.8802C3.04272 83.2169 3.66611 83.9149 4.36141 84.7911Z" fill="#484851" stroke="#2F2F37" stroke-width="0.505011" stroke-miterlimit="3.99393" stroke-linecap="round"/>
<path d="M7.5516 84.3934C7.98035 84.1459 8.12725 83.5977 7.87972 83.1689C7.63219 82.7402 7.08396 82.5933 6.65522 82.8409C6.22647 83.0884 6.07957 83.6366 6.3271 84.0654C6.57463 84.4941 7.12286 84.641 7.5516 84.3934Z" fill="#686873" stroke="#2F2F36" stroke-width="0.505011" stroke-miterlimit="3.99393" stroke-linecap="round"/>
<path d="M10.505 92.9814L11.4283 92.4483C10.3906 89.7673 5.45009 84.1644 5.45009 84.1644L4.36133 84.793C6.59794 87.6116 9.57875 92.2749 9.81953 92.692C9.94159 92.9034 10.2154 92.9742 10.505 92.9814Z" fill="#3E3E46" stroke="#2F2F36" stroke-width="0.505011" stroke-miterlimit="3.99393" stroke-linecap="round"/>
<path d="M32.1571 60.828L31.5132 59.7128L55.4695 45.8816L58.7394 51.5452C59.1623 52.2778 58.7524 52.704 58.7524 52.704C58.1563 53.4932 58.5564 54.0563 58.5564 54.0563L60.5334 57.4049L52.2685 64.5529L51.7844 64.9554L51.3184 65.3428L49.2838 67.0343C49.0201 67.2594 48.695 67.4033 48.3506 67.4127C47.9043 67.4225 47.3916 67.6456 47.3916 67.6456L45.5707 68.7844L45.3293 70.1338C45.0879 71.4831 46.1584 71.696 46.1584 71.696C46.1584 71.696 46.6119 71.9007 45.8633 72.2454C45.346 72.4836 45.3643 73.0948 45.3936 74.0786C45.4068 74.5186 45.4221 75.0331 45.3928 75.6222C45.3289 76.907 45.586 77.119 45.8659 77.3499C46.0013 77.4616 46.1421 77.5777 46.2545 77.8217C46.5629 78.4915 45.2737 78.8211 43.1176 79.4636L43.1174 79.4636C42.7171 79.5829 42.2861 79.7113 41.8286 79.8522C38.9073 80.7516 39.3908 79.9476 39.3908 79.9476L40.3168 69.8351C40.3688 65.3296 36.6484 66.4862 36.6484 66.4862C36.6484 66.4862 33.4275 68.3311 32.9355 68.6152C32.4434 68.8993 32.1585 68.2037 32.1585 68.2037L28.9643 62.6712L32.1571 60.828Z" stroke="#303036" stroke-width="1.01002" stroke-miterlimit="3.99393" stroke-linecap="round"/>
<path d="M51.7828 64.9561C51.8642 64.7985 52.0117 64.3136 51.4725 63.3796C50.797 62.2097 49.0133 62.5543 49.0133 62.5543L45.9627 64.3156C45.9627 64.3156 44.7196 65.0916 45.6425 66.6143C46.5654 68.137 49.3503 66.8499 49.3503 66.8499L51.3168 65.3435L51.7828 64.9561Z" stroke="#303036" stroke-width="0.505011" stroke-miterlimit="3.99393" stroke-linecap="round"/>
<path d="M58.8278 53.0113C59.2022 52.7951 59.3305 52.3164 59.1144 51.942C58.8982 51.5676 58.4195 51.4393 58.0451 51.6555C57.6707 51.8716 57.5424 52.3504 57.7586 52.7248C57.9747 53.0991 58.4534 53.2274 58.8278 53.0113Z" fill="#686873" stroke="#2F2F36" stroke-width="0.505011" stroke-miterlimit="3.99393" stroke-linecap="round"/>
<path d="M47.6742 59.6498C47.5368 59.7796 47.3814 59.9254 47.3814 59.9254L46.3317 60.5314C45.5335 60.9922 45.1917 60.1982 45.1917 60.1982L44.6552 59.2689L46.7545 58.0568L47.6742 59.6498Z" fill="#43434C" stroke="#303036" stroke-width="0.505011"/>
<rect x="44.5078" y="54.2656" width="11.6266" height="2.07057" rx="1.03528" transform="rotate(-30 44.5078 54.2656)" fill="#393941" stroke="#303036" stroke-width="0.505011"/>
<path d="M45.8626 56.603L46.7905 58.2102C47.0346 58.6329 47.5751 58.7777 47.9978 58.5337L56.5263 53.6098C56.949 53.3657 57.0938 52.8252 56.8498 52.4025L55.9219 50.7953" fill="#43434C"/>
<path d="M51.9767 53.0732L50.4897 53.9318L50.9062 54.6533L52.3933 53.7948L51.9767 53.0732Z" fill="#3E3E46"/>
<path d="M50.4886 53.9349L46.0275 56.5105L46.8544 57.9428C47.0438 58.2708 47.4577 58.3817 47.7857 58.1923L50.8363 56.4311C51.2846 56.1722 51.4417 55.5859 51.1829 55.1376L50.4886 53.9349Z" fill="#4D4D57"/>
<path d="M55.8123 50.8587L51.9745 53.0745L52.7509 54.4193C52.9403 54.7474 53.3542 54.8583 53.6822 54.6689L56.4376 53.0781C56.7109 52.9202 56.8034 52.5753 56.6456 52.302L55.8123 50.8587Z" fill="#4D4D57"/>
<path d="M45.8626 56.603L46.7905 58.2102C47.0346 58.6329 47.5751 58.7777 47.9978 58.5337L56.5263 53.6098C56.949 53.3657 57.0938 52.8252 56.8498 52.4025L55.9219 50.7953" stroke="#303036" stroke-width="0.505011" stroke-miterlimit="3.99393" stroke-linecap="round"/>
<path d="M21.2667 67.6986L1.97994 78.6588C1.1927 79.1134 0.825797 80.0687 1.14278 80.9207C1.37894 81.557 1.81282 82.2833 2.59534 82.8811C4.47928 84.3009 9.50338 92.1443 9.81901 92.691C10.0905 93.1612 11.112 92.9358 11.3905 92.8625C11.4296 92.8545 11.4733 92.8293 11.5171 92.804L14.1849 91.2637C14.7972 90.9102 15.0044 90.3095 14.512 89.4567C14.0197 88.6039 14.4817 87.9143 14.4817 87.9143L23.6393 74.4342C23.6751 74.3699 23.7453 74.3147 23.8109 74.2769L24.7512 73.734C24.9917 73.5951 25.0749 73.2847 24.9361 73.0441L21.9628 67.8944C21.8177 67.6429 21.5072 67.5597 21.2667 67.6986ZM17.4852 79.4306C17.3028 79.9732 13.1837 86.5499 13.1837 86.5499C13.1837 86.5499 12.2538 88.0198 11.1436 86.2991C10.0335 84.5783 9.10741 83.3782 9.10741 83.3782C9.10741 83.3782 7.98784 82.3481 9.95595 81.2118L16.6257 77.361L17.3516 78.6184C17.5117 78.8957 17.5498 79.2383 17.4852 79.4306Z" stroke="#2F2F36" stroke-width="1.01002" stroke-miterlimit="3.99393" stroke-linecap="round"/>
</g>
<defs>
<clipPath id="clip0_619_1189">
<rect width="110" height="110" fill="white"/>
</clipPath>
</defs>
</svg>
