<?xml version="1.0" encoding="UTF-8" standalone="no"?>
<svg
   width="307.633"
   height="23"
   viewBox="0 0 307.633 23"
   fill="none"
   version="1.1"
   id="svg30"
   sodipodi:docname="tango_51_world.svg"
   inkscape:version="1.1.2 (0a00cf5339, 2022-02-04)"
   xmlns:inkscape="http://www.inkscape.org/namespaces/inkscape"
   xmlns:sodipodi="http://sodipodi.sourceforge.net/DTD/sodipodi-0.dtd"
   xmlns="http://www.w3.org/2000/svg"
   xmlns:svg="http://www.w3.org/2000/svg">
  <defs
     id="defs34" />
  <sodipodi:namedview
     id="namedview32"
     pagecolor="#505050"
     bordercolor="#ffffff"
     borderopacity="1"
     inkscape:pageshadow="0"
     inkscape:pageopacity="0"
     inkscape:pagecheckerboard="1"
     showgrid="false"
     inkscape:zoom="2.9328096"
     inkscape:cx="25.913718"
     inkscape:cy="92.402863"
     inkscape:window-width="2560"
     inkscape:window-height="1372"
     inkscape:window-x="0"
     inkscape:window-y="0"
     inkscape:window-maximized="1"
     inkscape:current-layer="svg30" />
  <g
     id="g865"
     transform="matrix(0,1.4723877,-1.4723877,0,307.81737,-0.18406319)">
    <path
       d="M 12.875,134.712 H 9.50803 v 0.739 H 12.875 Z"
       fill="#000000"
       id="path2" />
    <path
       d="m 14.4931,134.772 -1.7085,-0.435 c -0.5352,-0.136 -1.0795,0.187 -1.2158,0.722 l -0.0114,0.045 c -0.1363,0.535 0.1871,1.079 0.7223,1.216 l 1.7085,0.435 c 0.5352,0.136 1.0795,-0.187 1.2158,-0.723 l 0.0114,-0.044 c 0.1363,-0.535 -0.1871,-1.08 -0.7223,-1.216 z"
       fill="#000000"
       stroke="#000000"
       id="path4" />
    <path
       d="m 8.15502,54.437 h -4.432 c -0.55228,0 -1,0.4477 -1,1 v 105.417 c 0,0.552 0.44772,1 1,1 h 4.432 c 0.55229,0 1,-0.448 1,-1 V 55.437 c 0,-0.5523 -0.44771,-1 -1,-1 z"
       fill="#424b3b"
       stroke="#161a14"
       stroke-width="1.75"
       id="path6" />
    <path
       d="m 3.86401,144.975 h 4.405 c 0.552,0 1,0.448 1,1 l 1.01699,14.95 -0.017,46.26 c 0,0.552 -0.44799,1 -0.99999,1 h -6.405 c -0.552,0 -1,-0.448 -1,-1 l 0.034,-46.144 0.966,-15.066 c 0,-0.552 0.448,-1 1,-1 z"
       fill="#424b3b"
       stroke="#171a14"
       stroke-width="1.75"
       id="path8" />
    <path
       d="m 6.49603,1 h -1.143 c -0.27615,0 -0.5,0.22386 -0.5,0.5 v 133.373 c 0,0.276 0.22385,0.5 0.5,0.5 h 1.143 c 0.27614,0 0.5,-0.224 0.5,-0.5 V 1.5 c 0,-0.27614 -0.22386,-0.5 -0.5,-0.5 z"
       fill="#272c22"
       stroke="#171a14"
       stroke-width="1.75"
       id="path10" />
    <path
       d="M 8.30202,93.15 H 3.87003 c -0.55229,0 -1,0.4477 -1,1 v 48.311 c 0,0.552 0.44771,1 1,1 h 4.43199 c 0.55229,0 1,-0.448 1,-1 V 94.15 c 0,-0.5523 -0.44771,-1 -1,-1 z"
       fill="#242424"
       stroke="#171717"
       stroke-width="1.75"
       id="path12" />
    <path
       d="m 2.91503,141.067 c 0.094,-0.035 0.331,-0.001 0.331,-0.001 l 5.666,-0.014 c 0,0 0.23801,-0.046 0.31101,-0.002 0.114,0.07 0.14599,0.28 0.14599,0.28 l 0.84297,4.428 0.085,5.861 c 0,0.246 -0.193,0.447 -0.43196,0.447 H 2.34403 c -0.239,0 -0.432,-0.201 -0.432,-0.447 l -0.06199,-5.84 0.94099,-4.469 c 0,0 0.073,-0.224 0.124,-0.243 z"
       fill="#242424"
       stroke="#171717"
       stroke-width="1.75"
       id="path14" />
    <path
       d="m 9.11201,105.46 c -0.113,0.07 -0.39801,0.002 -0.39801,0.002 l -5.60299,0.029 c 0,0 -0.286,0.091 -0.373,0.002 -0.137,-0.139 0.012,-0.586 0.012,-0.586 l -1.705,-18.173 -0.045,-8.512 c 0,-0.496 0.23199,-0.899 0.51899,-0.899 l 8.77,-0.062 c 0.287,0 0.519,0.403 0.519,0.899 l 0.016,8.35 -1.664,18.461 c 0,0 0.01301,0.451 -0.04799,0.489 z"
       fill="#242424"
       stroke="#171717"
       stroke-width="1.75"
       id="path16" />
    <path
       d="m 5.95804,120.989 c 2.30247,0 4.16896,-1.867 4.16896,-4.169 0,-2.302 -1.86649,-4.169 -4.16896,-4.169 -2.30248,0 -4.16901,1.867 -4.16901,4.169 0,2.302 1.86653,4.169 4.16901,4.169 z"
       fill="#242424"
       stroke="#000000"
       stroke-width="1.75"
       id="path18" />
    <path
       d="M 9.68102,104.401 H 2.47601 c -0.55228,0 -1,0.448 -1,1 v 3.211 c 0,0.552 0.44772,1 1,1 h 7.20501 c 0.55228,0 0.99998,-0.448 0.99998,-1 v -3.211 c 0,-0.552 -0.4477,-1 -0.99998,-1 z"
       fill="#464646"
       stroke="#171717"
       stroke-width="1.75"
       id="path20" />
    <path
       d="m 8.91702,125.488 h -5.656 c -0.55229,0 -1,0.448 -1,1 v 3.211 c 0,0.552 0.44771,1 1,1 h 5.656 c 0.55229,0 1,-0.448 1,-1 v -3.211 c 0,-0.552 -0.44771,-1 -1,-1 z"
       fill="#464646"
       stroke="#171717"
       stroke-width="1.75"
       id="path22" />
    <path
       d="m 5.95101,119.525 c 1.47184,0 2.665,-1.193 2.665,-2.665 0,-1.472 -1.19316,-2.665 -2.665,-2.665 -1.47184,0 -2.665,1.193 -2.665,2.665 0,1.472 1.19316,2.665 2.665,2.665 z"
       fill="#5c5c5c"
       stroke="#171717"
       stroke-width="0.875"
       id="path24" />
    <path
       d="m 7.33001,1.39101 h -2.781 c -0.27614,0 -0.5,0.22385 -0.5,0.5 V 9.543 c 0,0.27614 0.22386,0.5 0.5,0.5 h 2.781 c 0.27614,0 0.5,-0.22386 0.5,-0.5 V 1.89101 c 0,-0.27615 -0.22386,-0.5 -0.5,-0.5 z"
       fill="#404c39"
       stroke="#161a14"
       stroke-width="1.75"
       id="path26" />
    <path
       d="m 3.17601,152.913 5.774,0.029 0.48001,7.922 H 2.77301 Z"
       fill="#2a2f33"
       id="path28" />
  </g>
</svg>
