<?xml version="1.0" encoding="UTF-8" standalone="no"?>
<svg
   viewBox="0 0 311.85231 24.000011"
   version="1.1"
   id="svg136"
   width="311.85229"
   height="24.000011"
   xmlns="http://www.w3.org/2000/svg"
   xmlns:svg="http://www.w3.org/2000/svg">
  <defs
     id="defs140" />
  <rect
     style="fill:#4c673d;stroke:#151d11;stroke-width:2.58725px;stroke-opacity:1"
     y="-176.15179"
     width="19.221048"
     height="7.7040901"
     rx="1.4784284"
     ry="1.4784284"
     id="rect2"
     x="1.293625"
     transform="rotate(90)" />
  <rect
     style="stroke:#000000;stroke-width:0px"
     x="13.298463"
     y="-87.74176"
     width="4.9778686"
     height="1.0925586"
     id="rect4"
     transform="rotate(90)" />
  <rect
     style="fill:#171717;fill-opacity:1;stroke:#171717;stroke-width:1.47843;stroke-opacity:1"
     x="-4.2540216"
     y="-90.408539"
     width="5.5633264"
     height="3.0248647"
     rx="1.4784285"
     ry="1.4784285"
     transform="rotate(104.28759)"
     id="rect6" />
  <rect
     style="fill:#3b4f30;stroke:#151d11;stroke-width:2.58725px;stroke-opacity:1"
     x="6.2241836"
     y="-198.05766"
     width="9.5092516"
     height="125.31012"
     rx="1.4784284"
     ry="1.4784284"
     id="rect8"
     transform="rotate(90)" />
  <rect
     style="fill:#404c39;stroke:#161a14;stroke-width:2.58725px;stroke-opacity:1"
     x="9.3732367"
     width="3.1682718"
     height="188.35474"
     rx="0.73921418"
     ry="0.73921418"
     id="rect10"
     y="-310.55865"
     transform="rotate(90)" />
  <path
     d="m 126.55356,15.669875 c -0.10349,-0.167063 -0.003,-0.588415 -0.003,-0.588415 l -0.0429,-8.2836339 c 0,0 -0.13454,-0.4228305 -0.003,-0.5514537 0.2055,-0.2025447 0.86636,0.017741 0.86636,0.017741 L 154.2385,3.743393 160.955,4.5979246 c 0.7333,0 1.32911,0.3429954 1.32911,0.7673043 V 16.527363 c 0,0.424309 -0.59581,0.767305 -1.32911,0.767305 l -6.38533,0.906276 -27.29327,-2.460105 c 0,0 -0.66677,0.01922 -0.72295,-0.07096 z"
     style="fill:#242424;stroke:#171717;stroke-width:2.58725px;stroke-opacity:1"
     id="path12" />
  <path
     d="m 75.525515,6.4326421 v 9.4693339 c 0,0.816092 -0.662336,1.478428 -1.478428,1.478428 L 51.944582,16.187313 2.7720534,17.380404 c -0.8160924,0 -1.4784284,-0.662336 -1.4784284,-1.478428 V 6.4326421 c 0,-0.8160925 0.662336,-1.4784284 1.4784284,-1.4784284 L 51.773084,6.2877561 74.047087,4.9542137 c 0.816092,0 1.478428,0.6623359 1.478428,1.4784284 z"
     style="fill:#404c39;fill-opacity:1;stroke:#161a14;stroke-width:2.58725px;stroke-opacity:1"
     id="path14" />
  <path
     d="m 97.755312,14.62018 c -0.12271,-0.0961 -0.128623,-0.342996 -0.128623,-0.342996 l -0.05174,-6.5509157 c 0,0 -0.034,-0.1389722 0.122709,-0.2143721 0.245419,-0.1182743 0.907755,-0.096098 0.907755,-0.096098 L 121.04056,7.3063947 c 0.87375,0 1.58487,0.1995878 1.58487,0.4464853 v 6.505085 c 0,0.246897 -0.71112,0.447964 -1.58487,0.447964 l -22.547512,-0.04435 c 0,0 -0.671207,0.01183 -0.737736,-0.0414 z"
     style="fill:#242424;stroke:#171717;stroke-width:2.58725px;stroke-opacity:1"
     id="path16" />
  <circle
     style="fill:#242424;stroke:#171717;stroke-width:2.58725px;stroke-opacity:1"
     cx="11.0069"
     cy="-121.67464"
     id="ellipse18"
     r="6.9648762"
     transform="rotate(90)" />
  <rect
     style="fill:#364031;stroke:#161a14;stroke-width:1.47843;stroke-opacity:1"
     x="8.4551315"
     y="-29.442896"
     width="5.4642715"
     height="24.055508"
     rx="1.4784284"
     ry="1.4784284"
     id="rect20"
     transform="rotate(90)" />
  <path
     d="m 53.501367,7.4527577 -0.0207,7.5355493 -1.555306,-0.0961 -1.30841,0.06949 -0.01331,-7.4438864 1.224138,0.020698 z"
     style="fill:#283024;stroke:#393939;stroke-width:0px;paint-order:fill"
     id="path22" />
  <path
     d="M 59.994625,7.0698448 60.016805,15.354957 53.48363,15.034138 53.46145,7.4557146 Z"
     style="fill:#364031;stroke:#393939;stroke-width:0px;paint-order:fill"
     id="path24" />
  <path
     d="m 44.148829,7.3492677 -0.06505,7.7558353 6.508042,-0.186282 0.0414,-7.3699654 z"
     style="fill:#364031;stroke:#393939;stroke-width:0px;paint-order:fill"
     id="path26" />
  <rect
     style="fill:#5c5c5c;stroke:#171717;stroke-width:2.58725px;stroke-opacity:1"
     x="90.410522"
     y="-81.580185"
     width="6.6854525"
     height="6.6854525"
     rx="1.4784284"
     ry="1.4784284"
     transform="rotate(45)"
     id="rect28" />
  <path
     d="m 100.4459,7.1186329 c 0.0517,0.1389723 0.001,0.4893598 0.001,0.4893598 l 0.0207,6.8983473 c 0,0 0.068,0.351865 0.003,0.459791 -0.10349,0.168541 -0.41396,0.21585 -0.41396,0.21585 l -3.589627,1.246315 -13.100354,-0.09018 c -0.363693,0 -0.660857,-0.285336 -0.660857,-0.638681 V 6.404552 c 0,-0.3533444 0.297164,-0.6386811 0.660857,-0.6386811 l 13.069307,-0.2217642 3.650244,1.3912011 c 0,0 0.33116,0.1079252 0.35925,0.1833251 z"
     style="fill:#242424;stroke:#171717;stroke-width:2.58725px;stroke-opacity:1"
     id="path30" />
  <rect
     style="fill:#464646;stroke:#171717;stroke-width:2.58725px;stroke-opacity:1"
     y="-139.94656"
     width="13.608933"
     height="7.7040901"
     rx="1.4784284"
     ry="1.4784284"
     x="4.3805833"
     id="rect32"
     transform="rotate(90)" />
  <rect
     style="fill:#464646;stroke:#171717;stroke-width:2.58725px;stroke-opacity:1"
     y="-111.72778"
     width="11.318848"
     height="7.7040901"
     rx="1.4784284"
     ry="1.4784284"
     x="5.5411496"
     id="rect34"
     transform="rotate(90)" />
</svg>
