<svg width="110" height="110" viewBox="0 0 110 110" fill="none" xmlns="http://www.w3.org/2000/svg">
<g clip-path="url(#clip0_619_1188)">
<path d="M41.9487 48.7022L44.4722 47.2452C44.7415 47.0898 45.0704 47.1526 45.2086 47.392L46.6483 49.8856C46.7865 50.1249 46.6765 50.4411 46.4071 50.5966L43.8836 52.0536C43.6143 52.2091 43.2855 52.1462 43.1473 51.9069L41.7076 49.4133C41.5694 49.1739 41.6794 48.8577 41.9487 48.7022Z" fill="#373B35" stroke="#323630" stroke-width="0.452159" stroke-miterlimit="3.99393"/>
<path d="M41.1428 69.5835C41.1428 69.5835 39.5516 69.6377 38.6805 68.1059L39.078 67.8498C39.078 67.8498 40.3105 69.3857 41.2724 69.1629C41.2724 69.1629 41.4386 69.2664 41.4163 69.4122C41.3941 69.5581 41.1428 69.5835 41.1428 69.5835Z" fill="#333D2E" stroke="#303A2C" stroke-width="0.452159" stroke-miterlimit="3.99393"/>
<path fill-rule="evenodd" clip-rule="evenodd" d="M37.9306 68.3044C38.0226 68.9228 38.2502 69.6977 38.5311 70.0411C38.8471 70.4273 39.2587 70.6396 39.707 70.7247C40.583 70.8909 41.608 70.5751 42.4523 70.1555C43.2815 69.7435 43.8498 69.3882 44.2093 68.9548C44.5829 68.5044 44.7078 67.9999 44.7291 67.3551C44.7357 67.1654 44.6967 66.9909 44.6287 66.8325C44.6031 65.852 44.3355 64.5167 44.2587 64.1536C42.5427 65.2901 41.3405 66.0769 40.8884 66.3512C39.4851 67.1979 38.6126 67.8022 37.9306 68.3044ZM38.5388 68.5491L42.5716 65.9715C42.6151 65.9874 42.6684 66.0077 42.729 66.0323C42.9022 66.1025 43.13 66.206 43.3544 66.3397C43.5808 66.4747 43.7909 66.6331 43.9394 66.8088C44.0866 66.9829 44.1599 67.157 44.1536 67.3353C44.1346 67.9106 44.0276 68.2719 43.7661 68.5871C43.4905 68.9194 43.0203 69.2302 42.196 69.6398C41.3868 70.0419 40.5029 70.2896 39.8144 70.1589C39.4804 70.0955 39.1959 69.9442 38.9768 69.6764C38.7763 69.4314 38.6159 69.0707 38.5388 68.5491Z" fill="#3A4635" stroke="#303A2C" stroke-width="0.452159" stroke-miterlimit="3.99393"/>
<path d="M42.7159 57.6896L42.9344 58.068C43.0668 58.2974 43.296 58.4178 43.4555 58.3257L49.49 54.8416C49.6397 54.7553 49.6599 54.4909 49.5275 54.2615L49.2917 53.8531L79.7578 36.0778C79.7578 36.0778 80.4142 35.5792 81.4112 37.1448C82.4123 38.6946 80.6054 39.7112 80.6054 39.7112C80.6054 39.7112 54.081 57.645 44.2699 64.1473C42.5478 65.2878 41.3413 66.0775 40.8883 66.3524C38.9779 67.505 38.0512 68.2084 37.2496 68.8168C36.764 69.1854 36.3244 69.5191 35.7398 69.8967C34.1899 70.8979 34.2741 75.9961 34.913 77.3561C35.5519 78.7162 33.5722 79.4335 33.5722 79.4335C33.5722 79.4335 30.1058 81.5147 28.8726 80.4845C27.6394 79.4542 26.4827 81.1594 26.4827 81.1594L13.5655 95.5726C13.4446 95.7089 13.3065 95.8152 13.147 95.9074L10.3967 97.4553C10.3967 97.4553 1.81699 88.5378 1.28779 87.1145C0.758596 85.6911 1.50472 85.1406 1.50472 85.1406C1.50472 85.1406 17.7102 75.1327 21.5148 72.3244C24.5093 70.1167 25.0443 70.6058 25.0443 70.6058C25.0443 70.6058 25.9063 71.2372 27.2051 71.2986C28.504 71.36 29.7018 69.7122 29.7018 69.7122L31.2899 67.3723C32.8726 64.7695 38.2741 60.2812 38.2741 60.2812L42.7159 57.6896Z" fill="#3F4C39"/>
<path d="M38.3926 67.9716C38.5385 67.7966 38.6923 67.5948 38.8661 67.3601C39.0567 67.0982 39.1813 67.0611 39.2414 67.0703C39.2318 67.0603 39.2205 67.0471 39.2075 67.03C38.5392 66.1259 36.5282 63.8544 33.8621 64.3963C33.8304 64.4027 33.7967 64.4111 33.7612 64.4214C33.5695 64.6166 33.3808 64.8127 33.1973 65.008C32.4072 65.8492 31.7138 66.6771 31.2919 67.371L29.7037 69.7109C29.7037 69.7109 29.6289 69.8139 29.4963 69.9674C29.1648 70.3512 28.4725 71.0509 27.6873 71.2468C27.5302 71.286 27.3633 71.3047 27.2009 71.2971C26.3175 71.2541 25.637 70.9477 25.2934 70.7571C25.0965 70.7427 24.7838 71.018 24.6674 71.1691C23.6395 72.6137 19.8804 78.5876 26.6157 80.4176C26.6703 80.4322 26.7228 80.4739 26.7734 80.5141C26.8538 80.5781 26.9296 80.6383 27.0021 80.5801C27.0503 80.5362 27.1147 80.4921 27.1914 80.4519C27.6372 80.1437 28.246 79.9581 28.8745 80.4832C29.0865 80.6603 29.3644 80.7454 29.6794 80.7651C29.7018 80.7665 29.7245 80.7675 29.7473 80.7683C29.973 80.762 30.2202 80.7392 30.4801 80.7019C31.6535 80.4793 32.9816 79.7689 33.4228 79.5197C33.52 79.4648 33.5741 79.4323 33.5741 79.4323C33.5741 79.4323 33.6979 79.3875 33.8735 79.2989C34.3564 79.0556 35.2317 78.4819 35.0051 77.6023C34.9845 77.5224 34.9548 77.4399 34.9149 77.3549C34.3559 76.1649 34.2216 72.1128 35.235 70.4477C35.3798 70.2098 35.548 70.0206 35.7417 69.8955C36.2532 69.565 36.6538 69.2682 37.0712 68.9523C37.1308 68.9072 37.1908 68.8617 37.2515 68.8156C37.5772 68.5684 37.9235 68.3056 38.348 68.0033C38.3628 67.9928 38.3776 67.9822 38.3926 67.9716Z" fill="#32393E"/>
<path d="M38.3926 67.9716C38.5385 67.7966 38.6923 67.5948 38.8661 67.3601C39.0567 67.0982 39.1813 67.0611 39.2414 67.0703M38.3926 67.9716C38.3776 67.9822 38.3628 67.9928 38.348 68.0033M38.3926 67.9716L38.348 68.0033M39.2414 67.0703C39.2694 67.0993 39.2836 67.1014 39.2836 67.0952C39.2837 67.0891 39.2696 67.0746 39.2414 67.0703ZM39.2414 67.0703C39.2318 67.0603 39.2205 67.0471 39.2075 67.03C38.5392 66.1259 36.5282 63.8544 33.8621 64.3963C33.8304 64.4027 33.7967 64.4111 33.7612 64.4214C33.5695 64.6166 33.3808 64.8127 33.1973 65.008C32.4072 65.8492 31.7138 66.6771 31.2919 67.371L29.7037 69.7109C29.7037 69.7109 29.6289 69.8139 29.4963 69.9674C29.1648 70.3512 28.4725 71.0509 27.6873 71.2468C27.5302 71.286 27.3633 71.3047 27.2009 71.2971M27.2009 71.2971C27.1989 71.297 27.203 71.2972 27.2009 71.2971ZM27.2009 71.2971C26.3175 71.2541 25.637 70.9477 25.2934 70.7571C25.0965 70.7427 24.7838 71.018 24.6674 71.1691C23.6395 72.6137 19.8804 78.5876 26.6157 80.4176C26.6703 80.4322 26.7228 80.4739 26.7734 80.5141C26.8538 80.5781 26.9296 80.6383 27.0021 80.5801C27.0503 80.5362 27.1147 80.4921 27.1914 80.4519C27.6372 80.1437 28.246 79.9581 28.8745 80.4832C29.0865 80.6603 29.3644 80.7454 29.6794 80.7651C29.7018 80.7665 29.7245 80.7675 29.7473 80.7683C29.973 80.762 30.2202 80.7392 30.4801 80.7019C31.6535 80.4793 32.9816 79.7689 33.4228 79.5197C33.52 79.4648 33.5742 79.4323 33.5742 79.4323C33.5742 79.4323 33.6979 79.3875 33.8735 79.2989C34.3564 79.0556 35.2317 78.4819 35.0051 77.6023C34.9845 77.5224 34.9548 77.4399 34.9149 77.3549C34.3559 76.1649 34.2216 72.1128 35.235 70.4477C35.3798 70.2098 35.548 70.0206 35.7417 69.8955C36.2532 69.565 36.6538 69.2682 37.0712 68.9523C37.1308 68.9072 37.1908 68.8617 37.2515 68.8156C37.5772 68.5684 37.9235 68.3056 38.348 68.0033" stroke="#2E3438" stroke-width="0.452159" stroke-miterlimit="3.99393"/>
<path d="M74.2781 44.8539L60.7861 54.6953L61.3291 55.4397L74.8211 45.5983L74.2781 44.8539Z" fill="#393E37" stroke="#323630" stroke-width="0.904319" stroke-miterlimit="3.99393"/>
<path d="M60.5105 54.3227L58.9287 55.4766L60.0825 57.0584L61.6643 55.9046L60.5105 54.3227Z" fill="#343833" stroke="#323630" stroke-width="0.904319" stroke-miterlimit="3.99393"/>
<path d="M73.0787 43.3507C73.5654 42.95 74.2972 43.0196 74.6979 43.5063L75.1547 44.0672C75.5554 44.554 75.4859 45.2857 74.9991 45.6864C74.5123 46.0872 73.7805 46.0176 73.3798 45.5308L72.923 44.97C72.5165 44.4732 72.5819 43.7572 73.0787 43.3507Z" fill="#4D673D" stroke="#304026" stroke-width="0.904319" stroke-miterlimit="3.99393"/>
<path d="M74.6456 45.2561C74.756 45.1923 74.7938 45.0512 74.7301 44.9408C74.6663 44.8303 74.5252 44.7925 74.4148 44.8563C74.3043 44.92 74.2665 45.0612 74.3303 45.1716C74.394 45.282 74.5352 45.3198 74.6456 45.2561Z" fill="#2F2F2D"/>
<path d="M42.1749 47.1346L43.0227 46.6451C43.282 46.4954 43.6124 46.5839 43.7621 46.8433L44.194 47.5913C44.3438 47.8507 44.2552 48.1811 43.9959 48.3308L43.1481 48.8203C42.8887 48.97 42.5583 48.8815 42.4086 48.6221L41.9767 47.8741C41.827 47.6147 41.9155 47.2843 42.1749 47.1346Z" fill="#353933" stroke="#323630" stroke-width="0.452159" stroke-miterlimit="3.99393"/>
<path d="M44.253 46.5214L41.3405 48.203L41.1735 47.9137C41.1735 47.9137 40.9125 47.692 41.6107 47.2889L43.3662 46.2754C43.3662 46.2754 43.9017 45.913 44.0399 46.1524L44.253 46.5214Z" fill="#373B35" stroke="#323630" stroke-width="0.452159" stroke-miterlimit="3.99393"/>
<path d="M80.5596 39.7424C79.6886 40.3312 66.7356 49.0875 55.8246 56.4188L54.5695 53.6526C54.5695 53.6526 53.999 52.4695 55.1315 51.8387C56.4397 51.11 78.41 38.0265 78.41 38.0265C78.41 38.0265 79.3135 37.5181 79.7987 38.3817C80.1695 39.0417 80.451 39.5471 80.5596 39.7424Z" fill="#32393E" stroke="#2E3438" stroke-width="0.452159" stroke-miterlimit="3.99393"/>
<path d="M28.2302 56.8894L29.8284 59.6576L29.3117 60.1217L26.4591 61.7687L24.7314 58.7764L27.6739 57.0775L28.2302 56.8894Z" fill="#3A3E38" stroke="#323630" stroke-width="0.904319" stroke-miterlimit="3.99393"/>
<path d="M42.7159 57.6896L42.9344 58.068C43.0668 58.2974 43.296 58.4178 43.4555 58.3257L49.49 54.8416C49.6397 54.7553 49.6599 54.4909 49.5275 54.2615L49.2917 53.8531L79.7578 36.0778C79.7578 36.0778 80.4142 35.5792 81.4112 37.1448C82.4123 38.6946 80.6054 39.7112 80.6054 39.7112C80.6054 39.7112 54.081 57.645 44.2699 64.1473C42.5478 65.2878 41.3413 66.0775 40.8883 66.3524C38.9779 67.505 38.0512 68.2084 37.2496 68.8168C36.764 69.1854 36.3244 69.5191 35.7398 69.8967C34.1899 70.8979 34.2741 75.9961 34.913 77.3561C35.5519 78.7162 33.5722 79.4335 33.5722 79.4335C33.5722 79.4335 30.1058 81.5147 28.8726 80.4845C27.6394 79.4542 26.4827 81.1594 26.4827 81.1594L13.5655 95.5726C13.4446 95.7089 13.3065 95.8152 13.147 95.9074L10.3967 97.4553C10.3967 97.4553 1.81699 88.5378 1.28779 87.1145C0.758596 85.6911 1.50472 85.1406 1.50472 85.1406C1.50472 85.1406 17.7102 75.1327 21.5148 72.3244C24.5093 70.1167 25.0443 70.6058 25.0443 70.6058C25.0443 70.6058 25.9063 71.2372 27.2051 71.2986C28.504 71.36 29.7018 69.7122 29.7018 69.7122L31.2899 67.3723C32.8726 64.7695 38.2741 60.2812 38.2741 60.2812L42.7159 57.6896Z" stroke="#303A2C" stroke-width="0.904319" stroke-miterlimit="3.99393"/>
<path d="M57.8499 38.447L57.6005 38.5909L50.2051 44.5593L35.3451 53.1387C35.3451 53.1387 35.0534 52.7486 34.5148 53.0595L33.0286 53.9176C33.0286 53.9176 32.4942 54.2128 32.7119 54.659L29.7295 56.3809L28.2275 56.889L29.8257 59.6572L31.008 58.5952L33.9604 56.8906C33.9604 56.8906 34.1907 57.2896 34.6994 56.9959L36.3452 56.0457C36.3452 56.0457 36.7541 55.8096 36.5238 55.4106L51.4263 46.8067L60.4511 43.5282L60.7005 43.3843L66.2588 40.1775L63.4083 35.2402L57.8499 38.447Z" fill="#3F433D" stroke="#323630" stroke-width="0.904319" stroke-miterlimit="3.99393"/>
<path fill-rule="evenodd" clip-rule="evenodd" d="M107.608 17.7904L103.105 20.3105C103.105 20.3105 101.562 21.4402 100.609 21.9773C99.6658 22.5086 58.7674 45.9751 58.7674 45.9751C58.7674 45.9751 52.3684 49.7493 47.9214 52.3434C47.1467 52.7957 46.4316 53.2137 45.8208 53.5707C44.8319 54.1487 44.1162 54.5669 43.8634 54.7129C43.5914 54.8636 43.3318 55.0102 43.0846 55.1497C42.8099 55.3048 42.5504 55.4513 42.3058 55.5855C38.0521 57.9616 38.0207 57.9532 38.0207 57.9532L35.6468 59.3238L35.421 59.9462L33.7552 60.9079C33.7552 60.9079 33.4595 61.2249 33.949 62.0727C34.4385 62.9206 34.9642 62.9097 34.9642 62.9097L35.8865 62.3771C37.2091 61.1654 38.2739 60.2806 38.2739 60.2806L42.7157 57.6891L42.9342 58.0674C43.0667 58.2969 43.2958 58.4173 43.4553 58.3251L49.4898 54.8411C49.6395 54.7547 49.6597 54.4903 49.5273 54.2609L49.2915 53.8525L79.7576 36.0773C79.7576 36.0773 80.1868 35.7512 80.8783 36.4543L102.852 23.4887C102.852 23.4887 104.504 22.8271 106.511 21.6953C108.517 20.5635 108.892 20.3604 108.892 20.3604C108.892 20.3604 109.299 20.0057 108.675 18.9028C108.072 17.7883 107.608 17.7904 107.608 17.7904ZM105.29 20.8707C105.399 21.0603 105.302 21.3293 105.067 21.4517C104.832 21.5742 104.566 21.5282 104.451 21.3288L104.278 21.0295C104.168 20.84 104.266 20.571 104.501 20.4485C104.736 20.3261 105.002 20.372 105.117 20.5715L105.29 20.8707ZM106.708 20.0787C106.817 20.2682 106.72 20.5372 106.485 20.6597C106.25 20.7822 105.984 20.7362 105.868 20.5367L105.696 20.2375C105.586 20.048 105.684 19.779 105.919 19.6565C106.154 19.534 106.42 19.58 106.535 19.7795L106.708 20.0787ZM108.13 19.2709C108.239 19.4605 108.142 19.7295 107.907 19.8519C107.672 19.9744 107.406 19.9285 107.291 19.729L107.118 19.4297C107.008 19.2402 107.106 18.9712 107.341 18.8487C107.576 18.7263 107.842 18.7722 107.957 18.9717L108.13 19.2709Z" fill="#3A4332"/>
<path d="M35.9847 61.0174L36.8427 62.5035C36.8673 62.5692 36.9614 62.8473 37.0361 63.5755C37.1265 64.308 37.2699 65.4088 37.3188 65.7929C37.3234 65.87 37.3023 65.9487 37.2383 65.9989C37.0419 66.1655 36.6153 66.6246 36.5638 67.5719L36.3928 70.2241C36.3905 70.3584 36.4953 70.4708 36.6296 70.4731L39.2338 70.4458C39.3623 70.438 39.4647 70.339 39.467 70.2047C39.4622 69.4362 39.5646 67.1029 38.5279 65.906C38.5279 65.906 37.6643 65.1013 38.2122 62.7103C38.2191 62.6531 38.2102 62.5917 38.1815 62.5419L36.9491 60.4074C36.88 60.2877 36.7284 60.2555 36.6245 60.3288L36.069 60.7027C35.9493 60.7718 35.9213 60.9077 35.9847 61.0174Z" fill="#353D2E" stroke="#333A2C" stroke-width="0.904319" stroke-miterlimit="3.99393"/>
<path d="M107.608 17.7904L103.105 20.3105C103.105 20.3105 101.562 21.4402 100.609 21.9773C99.6658 22.5086 58.7674 45.9751 58.7674 45.9751C58.7674 45.9751 52.3684 49.7493 47.9214 52.3434C47.1467 52.7957 46.4316 53.2137 45.8208 53.5707C44.8319 54.1487 44.1162 54.5669 43.8634 54.7129C43.5914 54.8636 43.3318 55.0102 43.0846 55.1497C42.8099 55.3048 42.5504 55.4513 42.3058 55.5855C38.0521 57.9616 38.0207 57.9532 38.0207 57.9532L35.6468 59.3238L35.421 59.9462L33.7552 60.9079C33.7552 60.9079 33.4595 61.2249 33.949 62.0727C34.4385 62.9206 34.9642 62.9097 34.9642 62.9097L35.8865 62.3771C37.2091 61.1654 38.2739 60.2806 38.2739 60.2806L42.7157 57.6891L42.9342 58.0674C43.0667 58.2969 43.2958 58.4173 43.4553 58.3251L49.4898 54.8411C49.6395 54.7547 49.6597 54.4903 49.5273 54.2609L49.2915 53.8525L79.7576 36.0773C79.7576 36.0773 80.1868 35.7512 80.8783 36.4543L102.852 23.4887C102.852 23.4887 104.504 22.8271 106.511 21.6953C108.517 20.5635 108.892 20.3604 108.892 20.3604C108.892 20.3604 109.299 20.0057 108.675 18.9028C108.072 17.7883 107.608 17.7904 107.608 17.7904Z" stroke="#333A2C" stroke-width="0.904319" stroke-miterlimit="3.99393"/>
<path d="M105.293 20.8702C105.403 21.0597 105.305 21.3288 105.07 21.4512C104.835 21.5737 104.569 21.5277 104.454 21.3283L104.281 21.029C104.172 20.8395 104.269 20.5705 104.504 20.448C104.739 20.3256 105.005 20.3715 105.12 20.571L105.293 20.8702Z" stroke="#333A2C" stroke-width="0.452159" stroke-miterlimit="3.99393"/>
<path d="M106.711 20.0782C106.82 20.2677 106.723 20.5367 106.488 20.6592C106.253 20.7817 105.987 20.7357 105.872 20.5362L105.699 20.237C105.59 20.0475 105.687 19.7785 105.922 19.656C106.157 19.5335 106.423 19.5795 106.538 19.779L106.711 20.0782Z" stroke="#333A2C" stroke-width="0.452159" stroke-miterlimit="3.99393"/>
<path d="M108.133 19.2704C108.243 19.46 108.145 19.729 107.91 19.8514C107.675 19.9739 107.409 19.9279 107.294 19.7285L107.121 19.4292C107.012 19.2397 107.109 18.9707 107.344 18.8482C107.579 18.7258 107.845 18.7717 107.96 18.9712L108.133 19.2704Z" stroke="#333A2C" stroke-width="0.452159" stroke-miterlimit="3.99393"/>
<path d="M48.5661 44.0844L46.8704 45.0634L49.053 48.8436L48.9433 48.907L49.5307 49.9244L49.1915 50.1202L48.9785 49.7511L47.7815 50.4422L48.726 52.078L52.6459 49.8148L51.7015 48.179L51.2127 48.4612L50.8384 47.8128L50.7486 47.8647L48.5661 44.0844Z" fill="#535850"/>
<path d="M37.9089 50.5033L36.2133 51.4823L38.2864 55.073L38.1867 55.1306L38.8202 56.2278L38.3214 56.5157L38.1141 56.1567L36.9172 56.8477L37.8616 58.4835L41.7815 56.2203L40.8371 54.5845L40.508 54.7746L40.0818 54.0365L39.9821 54.0941L37.9089 50.5033Z" fill="#535850"/>
<path d="M48.5661 44.0844L46.8704 45.0634L49.053 48.8436L48.9433 48.907L49.5307 49.9244L49.1915 50.1202L48.9785 49.7511L47.7815 50.4422L48.726 52.078L52.6459 49.8148L51.7015 48.179L51.2127 48.4612L50.8384 47.8128L50.7486 47.8647L48.5661 44.0844Z" stroke="#323630" stroke-width="0.904319" stroke-miterlimit="3.99393"/>
<path d="M37.9089 50.5033L36.2133 51.4823L38.2864 55.073L38.1867 55.1306L38.8202 56.2278L38.3214 56.5157L38.1141 56.1567L36.9172 56.8477L37.8616 58.4835L41.7815 56.2203L40.8371 54.5845L40.508 54.7746L40.0818 54.0365L39.9821 54.0941L37.9089 50.5033Z" stroke="#323630" stroke-width="0.904319" stroke-miterlimit="3.99393"/>
</g>
<defs>
<clipPath id="clip0_619_1188">
<rect width="110" height="110" fill="white"/>
</clipPath>
</defs>
</svg>
