<?xml version="1.0" encoding="UTF-8" standalone="no"?>
<!-- Created with Inkscape (http://www.inkscape.org/) -->

<svg width="110" height="110" viewBox="0 0 29.104166 29.104167" version="1.1" id="svg1" xmlns="http://www.w3.org/2000/svg" xmlns:svg="http://www.w3.org/2000/svg">
  <defs id="defs1" />
  <g id="g1" transform="matrix(0.10995459,-0.06348231,0.06348231,0.10995459,13.271788,15.446054)">
    <path style="fill:none;fill-rule:evenodd;stroke:#333333;stroke-width:1.058;stroke-linecap:round;stroke-linejoin:round;stroke-dasharray:none;stroke-opacity:1" d="m 95.70448,-16.981589 -0.0572,-8.906907 c 0.33515,-1.407304 0.51667,-2.531745 -0.32484,-4.212251 -1.382,-0.371801 -2.61942,0.28242 -4.19777,-1.120322 l 0.0911,4.831205 c 0.30371,-0.662114 0.96723,0.05148 0.65814,1.599456 l -1.5465,4.859134 0.23547,3.429486 z" id="path7" />
    <path style="fill:#454545;fill-opacity:1;fill-rule:evenodd;stroke:#323232;stroke-width:2.11667;stroke-linecap:round;stroke-linejoin:round;stroke-dasharray:none;stroke-opacity:1" d="m 5.60009,2.42165 c 1.01396,20.76748 4.80643,40.81933 10.35645,61.71847 l 16.684,-5.09172 C 26.1037,40.35011 20.9346,21.14548 21.69089,1.50712 Z" id="path3" />
    <path style="fill:#3d3d3d;fill-opacity:1;fill-rule:evenodd;stroke:#323232;stroke-width:2.11667;stroke-linecap:round;stroke-linejoin:round;stroke-dasharray:none;stroke-opacity:0.994565" d="m -106.59305,12.19864 c 0.85909,-10.80109 1.88459,-21.711649 -0.56322,-33.544753 l 62.098118,2.448231 -0.0487,18.444252 -17.52087,0.11092 c -11.586847,0.25187 -15.636747,4.6735 -22.234373,7.78866 0,0 -6.901685,3.27781 -10.602369,4.08152 -3.63161,0.78871 -11.128586,0.67117 -11.128586,0.67117 z" id="path1" />
    <path style="fill:#4d4d4d;fill-opacity:1;fill-rule:evenodd;stroke:#303430;stroke-width:2.11667;stroke-linecap:round;stroke-linejoin:round;stroke-dasharray:none;stroke-opacity:1" d="m -27.230341,10.16023 c -0.395101,1.66413 -0.797987,3.73689 -2.196178,4.99822 l -10.981558,15.54124 10.359391,3.30203 c 2.480033,0.50403 3.481143,0.16331 2.008679,-2.26536 l 6.633667,-14.01951 1.59595,-0.80997 -0.16066,-6.74599 z" id="path2" />
    <rect style="fill:#4d4d4d;fill-opacity:1;fill-rule:evenodd;stroke:#323232;stroke-width:2.11667;stroke-linecap:round;stroke-linejoin:round;stroke-dasharray:none;stroke-opacity:1" id="rect2" width="47.55703" height="3.5381835" x="96.958527" y="-6.5648012" />
    <path style="fill:#636363;fill-opacity:1;fill-rule:evenodd;stroke:#323232;stroke-width:2.11667;stroke-linecap:round;stroke-linejoin:round;stroke-dasharray:none;stroke-opacity:1" d="M -41.812347,2.37401 5.13246,2.54878 5.90147,13.22759 -2.64507,16.18131 c -1.06043,0.0681 -2.12088,0.13576 -3.18092,0.20972 2.7738,-2.17064 2.96747,-5.67114 -1.0137,-8.12707 l -8.2669,-0.13983 c -3.5079,3.0617 -2.34569,5.4195 -0.50633,8.20226 l -5.17337,-0.12233 -0.0355,-5.87774 -6.554097,-0.50681 C -31.814885,3.77954 -33.757099,7.10367 -41.497779,3.23046 Z" id="path4" />
    <path style="fill:none;fill-rule:evenodd;stroke:#303430;stroke-width:1.5875;stroke-linecap:round;stroke-linejoin:round;stroke-dasharray:none;stroke-opacity:1" d="m -15.21146,16.68815 9.63015,-3e-5" id="path5" />
    <path style="fill:#404040;fill-opacity:1;fill-rule:evenodd;stroke:#323232;stroke-width:2.11667;stroke-linecap:round;stroke-linejoin:round;stroke-dasharray:none;stroke-opacity:1" d="m 37.26796,0.81406 0.0657,-20.242875 h 52.73142 l -0.45834,18.028992 -7.24803,-0.102371 z" id="path6" />
    <rect style="fill:#4d4d4d;fill-opacity:1;fill-rule:evenodd;stroke:#323232;stroke-width:2.11667;stroke-linecap:round;stroke-linejoin:round;stroke-dasharray:none;stroke-opacity:1" id="rect7" width="6.3900247" height="16.167429" x="89.977768" y="-17.186193" ry="0" />
    <path style="fill:none;fill-rule:evenodd;stroke:#333333;stroke-width:2.11667;stroke-linecap:round;stroke-linejoin:round;stroke-dasharray:none;stroke-opacity:1" d="m 37.28734,-18.859715 c 0,0 -0.18538,18.055805 -0.18538,18.253535 0,0.19774 -5.47482,0.28425 -5.47482,0.28425 l -0.23486,2.91661 -9.34305,4.43671 -0.67972,-5.25238 -62.608264,-0.21009 -0.123593,-1.96501 -3.621044,-0.0247 0.247168,-18.48834 c 2.948486,0.162783 5.782174,-0.16035 8.589174,0.815662 l 7.291529,-11.54286 47.72861,1.952647 4.84453,9.318326 6.25342,-0.02472 2.57057,-0.346041 z" id="path8" />
    <path style="fill:none;fill-rule:evenodd;stroke:#333333;stroke-width:1.05833;stroke-linecap:round;stroke-linejoin:round;stroke-dasharray:none;stroke-opacity:1" d="m -22.889876,-26.815391 38.707616,0.946792 c 0.8217,0.243033 1.40882,0.84299 1.67125,1.645289 1.26225,2.449184 1.46863,4.788083 -0.15678,5.746862 l -43.812357,0.274887 c -6.338688,-4.2389 3.369734,-8.522615 3.590271,-8.61383 z" id="path9" />
    <path style="fill:#4a4a4a;fill-opacity:1;fill-rule:evenodd;stroke:#333333;stroke-width:1.05833;stroke-linecap:round;stroke-linejoin:round;stroke-dasharray:none;stroke-opacity:1" d="m 97.09953,-17.463055 4.2121,-0.05243 c 1.12043,0.702467 0.79244,1.980743 1.24091,2.971192 l 0.6292,0.05243 -0.11933,-1.240909 1.29035,0.05243 -0.0302,3.087535 -1.28063,0.006 v -0.838923 l -0.47189,0.05243 c -0.42028,0.915404 -0.45303,2.04974 -1.20596,2.674072 l -4.26453,0.104868 z" id="path10" />
    <path style="fill:none;fill-rule:evenodd;stroke:#333333;stroke-width:1.05833;stroke-linecap:round;stroke-linejoin:round;stroke-dasharray:none;stroke-opacity:1" d="m 105.57616,-16.886296 -2.00992,9.979704" id="path11" />
    <path style="fill:none;fill-rule:evenodd;stroke:#323232;stroke-width:1.05833;stroke-linecap:round;stroke-linejoin:round;stroke-dasharray:none;stroke-opacity:1" d="m 13.03992,52.49839 16.31325,-4.2019" id="path13" />
    <path style="fill:none;fill-rule:evenodd;stroke:#323232;stroke-width:1.05833;stroke-linecap:round;stroke-linejoin:round;stroke-dasharray:none;stroke-opacity:1" d="M 11.33444,44.46535 27.17807,41.62289" id="path14" />
    <path style="fill:none;fill-rule:evenodd;stroke:#323232;stroke-width:1.05833;stroke-linecap:round;stroke-linejoin:round;stroke-dasharray:none;stroke-opacity:1" d="M 25.39844,34.01004 9.30765,36.53118" id="path15" />
    <path style="fill:none;fill-rule:evenodd;stroke:#323232;stroke-width:1.05833;stroke-linecap:round;stroke-linejoin:round;stroke-dasharray:none;stroke-opacity:1" d="M 8.19538,28.77003 23.4458,26.91625" id="path16" />
    <path style="fill:none;fill-rule:evenodd;stroke:#323232;stroke-width:1.05833;stroke-linecap:round;stroke-linejoin:round;stroke-dasharray:none;stroke-opacity:1" d="M 7.45387,20.58868 22.80315,18.5866" id="path17" />
    <path style="fill:#666666;fill-opacity:1;fill-rule:evenodd;stroke:#333333;stroke-width:1.05833;stroke-linecap:round;stroke-linejoin:round;stroke-dasharray:none;stroke-opacity:1" d="m -7.9114,-10.677366 c 0,0 -0.28916,-0.767558 -0.0445,-0.697647 0.24469,0.06991 30.33183,-0.03532 30.33183,-0.03532 l -0.008,0.908107 -2.67641,0.02084 0.0787,8.542879 -25.40569,-0.05331 -0.17616,-8.712383 z" id="path18" />
    <path style="fill:none;fill-rule:evenodd;stroke:#333333;stroke-width:1.05833;stroke-linecap:round;stroke-linejoin:round;stroke-dasharray:none;stroke-opacity:1" d="m -4.28797,-9.038863 0.0175,5.155887 7.44545,-0.01748 -0.0874,-4.107234 7.67266,0.05243 0.10486,3.932457 7.49789,0.05243 -0.035,-4.509215" id="path19" />
    <rect style="fill:none;fill-rule:evenodd;stroke:#333333;stroke-width:1.05833;stroke-linecap:round;stroke-linejoin:round;stroke-dasharray:none;stroke-opacity:1" id="rect19" width="2.586683" height="2.6740708" x="5.6392965" y="-5.9977617" />
    <circle style="fill:#333333;fill-opacity:1;fill-rule:evenodd;stroke:#333333;stroke-width:1.05833;stroke-linecap:round;stroke-linejoin:round;stroke-dasharray:none;stroke-opacity:1" id="path20" cx="-27.55938" cy="-26.647535" r="1" />
    <path style="fill:#454545;fill-opacity:1;fill-rule:evenodd;stroke:#323232;stroke-width:1.05833;stroke-linecap:round;stroke-linejoin:round;stroke-dasharray:none;stroke-opacity:1" d="m 11.31601,2.57774 c 0.94549,20.34417 4.86242,39.90391 10.36772,59.35989 L 26.78719,60.2423 C 21.2312,41.07124 15.99725,21.87023 16.00352,2.18175 Z" id="path12" />
    <path style="fill:#3b3b3b;fill-opacity:1;fill-rule:evenodd;stroke:#333333;stroke-width:1.05833;stroke-linecap:round;stroke-linejoin:round;stroke-dasharray:none;stroke-opacity:1" d="m 46.25966,-6.130444 c 1.93985,0.01783 2.11643,-0.913798 2.96604,-1.483022 l 35.01681,0.174261 c 0.8072,-1.02776 1.06999,-1.908668 -0.11638,-2.843703 l -34.83355,0.09587 c -0.89263,-0.642318 -0.86821,-1.169219 -2.90461,-1.342689 -4.19726,0.759492 -2.65813,4.761787 -0.12831,5.399283 z" id="path21" />
    <path style="fill:none;fill-rule:evenodd;stroke:#333333;stroke-width:2.11667;stroke-linecap:round;stroke-linejoin:round;stroke-dasharray:none;stroke-opacity:1" d="m 44.33468,-13.950067 39.90134,-0.01748" id="path22" />
    <path style="fill:none;fill-rule:evenodd;stroke:#333333;stroke-width:2.11667;stroke-linecap:round;stroke-linejoin:round;stroke-dasharray:none;stroke-opacity:1" d="m 50.90625,-5.211271 33.52201,0.01747" id="path23" />
    <path style="fill:#333333;fill-opacity:1;fill-rule:evenodd;stroke:#333333;stroke-width:1.05833;stroke-linecap:round;stroke-linejoin:round;stroke-dasharray:none;stroke-opacity:1" d="m -12.49279,9.35478 c -1.39684,2.18212 -0.67707,4.07729 -0.24717,5.94445 -0.77444,-1.08672 -1.90664,-1.00317 -1.73019,-5.9568 z" id="path24" />
    <rect style="fill:none;fill-rule:evenodd;stroke:#333333;stroke-width:1.05833;stroke-linecap:round;stroke-linejoin:round;stroke-dasharray:none;stroke-opacity:1" id="rect26" width="2.1497433" height="3.1110108" x="92.275711" y="-22.356787" />
    <circle style="fill:none;fill-rule:evenodd;stroke:#333333;stroke-width:1.05833;stroke-linecap:round;stroke-linejoin:round;stroke-dasharray:none;stroke-opacity:1" id="path26" cx="-2.1207438" cy="8.5960417" r="1" />
    <path style="fill:none;fill-opacity:1;fill-rule:evenodd;stroke:#303430;stroke-width:1.05833;stroke-linecap:round;stroke-linejoin:round;stroke-dasharray:none;stroke-opacity:1" d="m -21.53923,6.72242 c -1.268836,-0.49585 -1.726748,-1.95949 0.0494,-2.54586 0.56025,-0.1111 1.21937,-0.067 1.77963,0.54378 l 3.31208,0.0989 0.0494,1.38415 -3.53454,-0.1977 c -0.30557,0.36009 -0.52355,0.92914 -1.65603,0.71676 z" id="path27" />
    <path style="fill:#999999;fill-opacity:1;fill-rule:evenodd;stroke:#333333;stroke-width:1.05833;stroke-linecap:round;stroke-linejoin:round;stroke-dasharray:none;stroke-opacity:1" d="m -36.097567,-13.248953 27.213467,0.420189 0.0741,5.981525 -29.709885,0.02472 c 3.422566,-1.67889 9.885962,-2.819119 2.422268,-6.426433 z" id="path28" />
    <path style="fill:#999999;fill-opacity:1;fill-rule:evenodd;stroke:#333333;stroke-width:1.05833;stroke-linecap:round;stroke-linejoin:round;stroke-dasharray:none;stroke-opacity:1" d="m 23.09975,-6.74837 8.28021,0.24717 c -2.22071,0.507001 -12.64292,-4.638946 -2.87954,-6.698318 -0.0123,0.111225 -5.41303,0.09887 -5.41303,0.09887 z" id="path29" />
    <rect style="fill:#999999;fill-opacity:1;fill-rule:evenodd;stroke:#333333;stroke-width:1.05833;stroke-linecap:round;stroke-linejoin:round;stroke-dasharray:none;stroke-opacity:1" id="rect30" width="20.343912" height="7.8998699" x="-35.835014" y="-6.7842531" rx="1.5" ry="1" />
    <path style="fill:#999999;fill-opacity:1;fill-rule:evenodd;stroke:#333333;stroke-width:0.790945;stroke-linecap:round;stroke-linejoin:round;stroke-opacity:1" d="M 22.913438,5.1684544 C 22.87252,5.1022477 22.819781,4.1704673 22.796238,3.0978306 22.74892,0.94195005 22.664621,0.61827468 22.114132,0.47879693 21.962909,0.44047997 20.771403,0.46247214 19.466343,0.5276787 16.816607,0.66006032 7.795395,0.67732968 -5.9922116,0.5764123 L -14.93978,0.51092264 V -2.8839143 -6.2787486 h 3.181438 c 2.7603896,0 3.2019977,-0.020558 3.3368003,-0.1553634 0.1296855,-0.1296855 0.1553633,-0.4483311 0.1553633,-1.9279287 v -1.7725653 h 0.9238695 0.9238667 l 0.064453,1.4088717 c 0.035449,0.7748772 0.069072,2.2541944 0.074721,3.2873658 0.0136,2.4853344 0.1033859,3.7919527 0.2675705,3.8933252 0.070847,0.043746 5.91403537,0.111461 12.9848582,0.1504791 11.6346125,0.064204 12.8787285,0.056081 13.0948025,-0.085497 l 0.23876,-0.1564402 v -4.1501853 -4.1501827 h 1.081175 1.081177 l 0.03109,1.7383548 c 0.0275,1.5376763 0.05161,1.7533435 0.208901,1.8681832 0.120198,0.087762 0.696802,0.1490424 1.779625,0.1891347 6.061363,0.2244382 6.916438,0.2434564 7.139159,0.1587765 0.317418,-0.1206817 0.415282,-0.5208534 0.205632,-0.840822 -0.141116,-0.2153682 -0.233143,-0.2464514 -0.729681,-0.2464514 -0.824484,0 -1.883162,-0.3221514 -3.233666,-0.9839934 -1.371462,-0.6721131 -2.36342,-1.4399418 -2.713995,-2.100784 -0.21521,-0.40567 -0.225216,-0.477835 -0.106119,-0.765352 0.245854,-0.593548 1.496648,-1.20763 3.44238,-1.690058 0.314558,-0.07799 0.44967,-0.171379 0.521576,-0.360508 0.116918,-0.307515 0.03985,-0.597196 -0.186572,-0.701252 -0.09148,-0.04204 -1.493597,-0.05312 -3.115812,-0.02461 -3.40919,0.0599 -3.229774,0.0019 -3.229774,1.043204 v 0.607547 l -5.800075,0.06563 c -3.19004,0.0361 -10.1029946,0.06564 -15.3621174,0.06564 H -8.242415 l -0.043868,-0.606496 c -0.029895,-0.41329 -0.096322,-0.644848 -0.2085234,-0.72689 -0.208788,-0.15267 -2.0621736,-0.19888 -16.5483176,-0.412599 -9.425431,-0.139057 -11.316054,-0.144738 -11.448989,-0.03441 -0.105108,0.08723 -0.149129,0.252373 -0.129513,0.485862 0.02844,0.338572 0.07261,0.377031 1.031428,0.898276 2.173703,1.18169 2.741879,1.894086 2.005094,2.5140505 -0.529955,0.4459261 -1.110522,0.7379917 -3.073773,1.5463202 -1.050718,0.4326096 -2.021623,0.8685239 -2.157566,0.9686978 -0.307573,0.2266421 -0.36609,0.5642874 -0.140925,0.8130937 0.151101,0.1669626 0.314249,0.1895792 1.367383,0.1895448 l 1.195811,-3.44e-5 v 3.3615021 3.36150213 l -1.889128,5.292e-5 -1.889128,5.027e-5 -0.06387,-0.61110547 c -0.123154,-1.17827465 -0.44616,-1.36625845 -2.34758,-1.36625845 h -1.302083 l 0.06269,-3.6334038 c 0.03448,-1.9983741 0.09144,-5.6534263 0.126589,-8.1223383 l 0.0639,-4.488931 2.23515,0.06485 c 2.282709,0.06624 3.238902,0.185216 4.569838,0.568637 1.26288,0.363813 0.994762,0.658051 4.580335,-5.026535 l 3.769767,-5.689695 -0.634095,1.32839 c -0.234416,0.491088 0.272455,0.885185 0.714917,1.215121 0.208103,0.15518 0.419831,0.203472 0.886865,0.202279 l 0.6135,-0.0016 -0.705128,0.705131 c -1.143238,1.143235 -1.722255,2.430415 -1.57498,3.501239 0.143613,1.044186 0.968455,2.222283 2.099681,2.998912 l 0.409842,0.281371 21.4353904,-0.113012 c 11.7894654,-0.06216 21.7690726,-0.137263 22.1769036,-0.166907 0.739868,-0.05378 0.742633,-0.05505 1.247413,-0.57287 0.709408,-0.727737 0.868547,-1.246272 0.802415,-2.614584 -0.05564,-1.151265 -0.245073,-1.817425 -0.936175,-3.292197 -0.475748,-1.015217 -0.874044,-1.481717 -1.540606,-1.80441 l -0.512297,-0.248013 -10.4305888,-0.25623 c -5.73682536,-0.140925 -14.5014895,-0.359051 -19.4770292,-0.48472 l -9.046437,-0.228491 -0.708451,0.324458 c -0.389647,0.178454 -1.1395,0.595382 -1.666338,0.926508 -0.526839,0.331123 -0.973326,0.602043 -0.992193,0.602043 -0.01886,0 0.05153,-0.189084 0.156427,-0.420187 0.238498,-0.525423 0.239921,-0.806223 0.0067,-1.319787 -0.347821,-0.765876 -1.241833,-1.11942 -2.014413,-0.796615 -0.401439,0.16773 -0.463037,0.0997 -0.194755,-0.215085 l 0.173019,-0.20301 8.20606,0.33981 c 11.4730979,0.475094 34.571961,1.420693 36.531788,1.495501 l 1.631323,0.06227 2.323404,4.494824 c 1.857613,3.593716 2.382864,4.532077 2.620004,4.680646 0.274458,0.171944 0.536864,0.185848 3.514109,0.18619 2.61099,2.64e-4 3.486933,-0.03539 4.646803,-0.189315 0.786117,-0.104325 2.203445,-0.213776 3.149621,-0.243221 l 1.720323,-0.05354 -0.07243,8.0784331 c -0.03984,4.4431399 -0.07988,8.0857909 -0.08899,8.0947814 -0.0091,0.009 -1.062101,0.048191 -2.33997,0.087109 -2.453415,0.074724 -2.745126,0.1300083 -2.981727,0.56510765 -0.06623,0.12178506 -0.167651,0.79613124 -0.225386,1.49854441 L 30.341845,1.86152 26.738699,3.575168 c -1.981729,0.942504 -3.636383,1.7136454 -3.677005,1.7136454 -0.04062,0 -0.107336,-0.054168 -0.148251,-0.1203722 z" id="path25" />
    <path d="m -26.328096,-4.151708 h 0.120561 q 0.04891,0 0.07507,0.01099 0.02644,0.01099 0.03952,0.03174 0.01336,0.02076 0.01791,0.05046 0.0048,0.0293 0.0048,0.09115 v 0.05738 q 0,0.06308 -0.0091,0.09197 -0.0091,0.02889 -0.03355,0.04436 -0.02417,0.01547 -0.06341,0.01547 h -0.03213 v 0.265327 h -0.119718 z m 0.119708,0.112723 v 0.167659 q 0.0051,4.08e-4 0.0088,4.08e-4 0.01649,0 0.02275,-0.0114 0.0065,-0.0118 0.0065,-0.04843 v -0.05412 q 0,-0.03377 -0.0074,-0.04395 -0.0074,-0.01018 -0.03071,-0.01018 z m 0.284059,0.0061 -0.0046,0.07081 q 0.02502,-0.07609 0.07251,-0.08057 v 0.190042 q -0.03156,0 -0.04635,0.01221 -0.01479,0.01221 -0.0182,0.03418 -0.0034,0.02157 -0.0034,0.100108 v 0.213237 h -0.114874 v -0.54001 z m 0.353438,0.189635 v 0.132255 q 0,0.07284 -0.0051,0.107025 -0.0051,0.03378 -0.02189,0.06348 -0.01678,0.0293 -0.04322,0.04354 -0.02616,0.01384 -0.06028,0.01384 -0.0381,0 -0.06454,-0.0118 -0.02645,-0.01221 -0.04123,-0.03622 -0.0145,-0.02442 -0.02076,-0.0586 -0.0063,-0.03459 -0.0063,-0.103363 v -0.13836 q 0,-0.07528 0.01137,-0.117605 0.01137,-0.04232 0.04094,-0.06796 0.02957,-0.02564 0.07563,-0.02564 0.03867,0 0.06625,0.01669 0.02786,0.01628 0.04293,0.04273 0.01507,0.02645 0.02047,0.05453 0.0057,0.02808 0.0057,0.08546 z m -0.114875,-0.0407 q 0,-0.04151 -0.0031,-0.05209 -0.0031,-0.01099 -0.01336,-0.01099 -0.01024,0 -0.01365,0.01099 -0.0034,0.01058 -0.0034,0.05209 v 0.243758 q 0,0.03825 0.0034,0.05005 0.0034,0.01139 0.01337,0.01139 0.01023,0 0.01336,-0.01058 0.0034,-0.01058 0.0034,-0.04558 z m 0.414003,-0.267767 v 0.658838 h -0.114874 v -0.03907 q -0.01649,0.02442 -0.03469,0.03663 -0.0182,0.01221 -0.0381,0.01221 -0.02673,0 -0.04635,-0.01994 -0.01962,-0.02035 -0.0253,-0.0468 -0.0054,-0.02645 -0.0054,-0.08627 v -0.25271 q 0,-0.06226 0.0054,-0.08831 0.0057,-0.02604 0.02559,-0.04558 0.0199,-0.01994 0.04749,-0.01994 0.02133,0 0.03896,0.01099 0.01792,0.01099 0.03241,0.03296 v -0.15301 z m -0.114874,0.254745 q 0,-0.0297 -0.0037,-0.03988 -0.0034,-0.01017 -0.01393,-0.01017 -0.01023,0 -0.01393,0.0094 -0.0034,0.009 -0.0034,0.0407 v 0.264512 q 0,0.03296 0.0034,0.04354 0.0034,0.01018 0.01308,0.01018 0.01109,0 0.01479,-0.0114 0.0037,-0.0118 0.0037,-0.05697 z m 0.419121,-0.135918 v 0.540011 h -0.116865 l 0.002,-0.04476 q -0.01194,0.02726 -0.02957,0.0411 -0.01734,0.01343 -0.04009,0.01343 -0.02588,0 -0.04293,-0.01302 -0.01706,-0.01302 -0.02531,-0.03459 -0.008,-0.02157 -0.01,-0.04476 -0.002,-0.0236 -0.002,-0.09319 V -4.03288 h 0.114875 v 0.367467 q 0,0.06308 0.0026,0.07488 0.0029,0.01181 0.01479,0.01181 0.0128,0 0.01507,-0.01221 0.0025,-0.01221 0.0025,-0.07854 v -0.363398 z m 0.295147,0.203878 h -0.108334 v -0.06226 q 0,-0.03255 -0.0037,-0.04395 -0.0037,-0.0118 -0.01365,-0.0118 -0.01,0 -0.01336,0.01017 -0.0034,0.01017 -0.0034,0.04558 v 0.254745 q 0,0.02889 0.0051,0.04354 0.0051,0.01425 0.01507,0.01425 0.01166,0 0.01564,-0.01506 0.0043,-0.01506 0.0043,-0.05697 v -0.0643 h 0.102363 q -2.84e-4,0.06471 -0.0034,0.09726 -0.0029,0.03214 -0.01905,0.06633 -0.01592,0.03378 -0.0418,0.05127 -0.02587,0.01709 -0.06398,0.01709 -0.04862,0 -0.07706,-0.0236 -0.02844,-0.02401 -0.04038,-0.06674 -0.01166,-0.04314 -0.01166,-0.122082 v -0.153418 q 0,-0.06877 0.0097,-0.103769 0.0097,-0.035 0.04123,-0.06226 0.03156,-0.02767 0.07677,-0.02767 0.04493,0 0.07677,0.02726 0.03185,0.02726 0.04237,0.06877 0.01052,0.04151 0.01052,0.117606 z m 0.155252,-0.275906 v 0.08505 h 0.031 v 0.08546 h -0.031 v 0.288929 q 0,0.05331 0.0037,0.05941 0.004,0.0061 0.03213,0.0061 v 0.08709 h -0.04635 q -0.03924,0 -0.05602,-0.0045 -0.01678,-0.0049 -0.02957,-0.02157 -0.01279,-0.01709 -0.01592,-0.03866 -0.0031,-0.02198 -0.0031,-0.102549 v -0.274279 h -0.02474 v -0.08546 h 0.02474 v -0.08512 z m 0.418836,0.261662 V -3.711 q 0,0.07284 -0.0051,0.107025 -0.0051,0.03377 -0.02189,0.06348 -0.01678,0.0293 -0.04322,0.04354 -0.02616,0.01384 -0.06028,0.01384 -0.0381,0 -0.06455,-0.0118 -0.02644,-0.01221 -0.04123,-0.03622 -0.0145,-0.02442 -0.02075,-0.0586 -0.0063,-0.03459 -0.0063,-0.103363 v -0.13836 q 0,-0.07528 0.01137,-0.117606 0.01137,-0.04232 0.04094,-0.06796 0.02957,-0.02564 0.07564,-0.02564 0.03867,0 0.06625,0.01669 0.02786,0.01628 0.04293,0.04273 0.01507,0.02645 0.02047,0.05453 0.0057,0.02808 0.0057,0.08546 z m -0.114874,-0.0407 q 0,-0.04151 -0.0031,-0.05209 -0.0031,-0.01099 -0.01337,-0.01099 -0.01023,0 -0.01365,0.01099 -0.0034,0.01058 -0.0034,0.05209 v 0.243758 q 0,0.03825 0.0034,0.05005 0.0034,0.0114 0.01337,0.0114 0.01023,0 0.01337,-0.01058 0.0034,-0.01058 0.0034,-0.04558 z m 0.299128,-0.267767 v 0.08342 q -0.03554,0 -0.04208,0.0049 -0.0063,0.0045 -0.0063,0.02645 v 0.01709 h 0.04834 v 0.08546 h -0.0273 v 0.441532 h -0.114874 v -0.441532 h -0.0236 v -0.08546 h 0.0236 q 0,-0.05331 0.0026,-0.07121 0.0026,-0.01791 0.01251,-0.03174 0.01024,-0.01425 0.02844,-0.02157 0.0182,-0.0073 0.05658,-0.0073 z m 0.407463,0.2873 h -0.119708 V -3.97918 q 0,-0.05005 -0.004,-0.06226 -0.0037,-0.01261 -0.01678,-0.01261 -0.01479,0 -0.01877,0.01506 -0.004,0.01506 -0.004,0.06511 v 0.30602 q 0,0.04802 0.004,0.06267 0.004,0.01465 0.01792,0.01465 0.01337,0 0.01734,-0.01465 0.0043,-0.01465 0.0043,-0.06877 v -0.08261 h 0.119708 v 0.02564 q 0,0.102142 -0.01023,0.144871 -0.01,0.04273 -0.04464,0.07487 -0.03441,0.03214 -0.08502,0.03214 -0.0526,0 -0.08672,-0.02726 -0.03412,-0.02726 -0.04521,-0.07528 -0.01109,-0.04842 -0.01109,-0.145278 V -3.91931 q 0,-0.07121 0.0034,-0.106618 0.0034,-0.03581 0.02019,-0.06877 0.01706,-0.03296 0.04692,-0.05168 0.03014,-0.01913 0.0691,-0.01913 0.05289,0 0.08729,0.0293 0.03441,0.0293 0.04521,0.07325 0.01081,0.04354 0.01081,0.135918 z m 0.299414,0.02116 v 0.132256 q 0,0.07284 -0.0051,0.107025 -0.0051,0.03378 -0.02189,0.06348 -0.01678,0.0293 -0.04322,0.04354 -0.02616,0.01384 -0.06028,0.01384 -0.0381,0 -0.06455,-0.0118 -0.02644,-0.01221 -0.04123,-0.03622 -0.0145,-0.02442 -0.02075,-0.0586 -0.0063,-0.03459 -0.0063,-0.103363 v -0.13836 q 0,-0.07528 0.01137,-0.117605 0.01137,-0.04232 0.04094,-0.06796 0.02957,-0.02564 0.07564,-0.02564 0.03867,0 0.06625,0.01669 0.02786,0.01628 0.04293,0.04273 0.01507,0.02645 0.02047,0.05453 0.0057,0.02808 0.0057,0.08546 z m -0.114875,-0.0407 q 0,-0.04151 -0.0031,-0.05209 -0.0031,-0.01099 -0.01337,-0.01099 -0.01023,0 -0.01365,0.01099 -0.0034,0.01058 -0.0034,0.05209 v 0.243757 q 0,0.03825 0.0034,0.05005 0.0034,0.01139 0.01337,0.01139 0.01023,0 0.01336,-0.01058 0.0034,-0.01058 0.0034,-0.04558 z m 0.267567,-0.267768 v 0.155859 q 0.01422,-0.0236 0.03156,-0.035 0.01763,-0.0118 0.0381,-0.0118 0.0236,0 0.04094,0.01058 0.01734,0.01058 0.02645,0.0297 0.0091,0.01913 0.01081,0.03744 0.002,0.01831 0.002,0.07813 v 0.243351 q 0,0.05942 -0.0057,0.08871 -0.0054,0.02889 -0.02588,0.05046 -0.02048,0.02116 -0.04863,0.02116 -0.02019,0 -0.03782,-0.01262 -0.01734,-0.01262 -0.03185,-0.03785 l -0.0074,0.0407 h -0.107481 v -0.658838 z m 0.03497,0.272244 q 0,-0.04192 -0.0037,-0.05453 -0.0037,-0.01302 -0.0145,-0.01302 -0.01052,0 -0.01365,0.01139 -0.0031,0.01099 -0.0031,0.05616 v 0.23277 q 0,0.04354 0.0034,0.05575 0.0037,0.01221 0.01422,0.01221 0.01081,0 0.01393,-0.01262 0.0034,-0.01261 0.0034,-0.06064 z m 0.267566,-0.272244 v 0.155859 q 0.01422,-0.0236 0.03156,-0.035 0.01763,-0.0118 0.0381,-0.0118 0.0236,0 0.04094,0.01058 0.01734,0.01058 0.02644,0.0297 0.0091,0.01913 0.01081,0.03744 0.002,0.01831 0.002,0.07813 v 0.243351 q 0,0.05942 -0.0057,0.08871 -0.0054,0.02889 -0.02588,0.05046 -0.02048,0.02116 -0.04863,0.02116 -0.02019,0 -0.03782,-0.01262 -0.01734,-0.01262 -0.03185,-0.03785 l -0.0074,0.0407 h -0.107481 v -0.658838 z m 0.03497,0.272244 q 0,-0.04192 -0.0037,-0.05453 -0.0037,-0.01302 -0.0145,-0.01302 -0.01052,0 -0.01365,0.01139 -0.0031,0.01099 -0.0031,0.05616 v 0.23277 q 0,0.04354 0.0034,0.05575 0.0037,0.01221 0.01422,0.01221 0.01081,0 0.01393,-0.01262 0.0034,-0.01261 0.0034,-0.06064 z m 0.393246,-0.153417 -0.03298,0.390664 q -0.0077,0.09278 -0.01308,0.126558 -0.0051,0.03378 -0.01734,0.05575 -0.01223,0.02198 -0.03412,0.03214 -0.02161,0.01058 -0.06938,0.01058 h -0.06966 v -0.08627 q 0.02672,0 0.03441,-0.0037 0.0077,-0.0041 0.0077,-0.0175 0,-0.0065 -0.0071,-0.05657 l -0.06284,-0.451695 h 0.104353 l 0.03753,0.364211 0.0182,-0.364211 z m 0.246241,-0.118827 v 0.658838 h -0.119708 v -0.658838 z m 0.161505,0.118827 -0.002,0.04965 q 0.0125,-0.0297 0.0304,-0.04436 0.0182,-0.01506 0.0418,-0.01506 0.0296,0 0.0483,0.01994 0.0188,0.01994 0.0242,0.05046 0.005,0.03011 0.005,0.100922 v 0.378455 h -0.11488 V -3.86682 q 0,-0.05575 -0.003,-0.06796 -0.003,-0.01221 -0.0142,-0.01221 -0.0122,0 -0.0154,0.01425 -0.003,0.01384 -0.003,0.07487 v 0.365026 h -0.114875 v -0.540011 z m 0.44158,0.203878 h -0.10833 v -0.06226 q 0,-0.03255 -0.004,-0.04395 -0.004,-0.0118 -0.0136,-0.0118 -0.01,0 -0.0134,0.01017 -0.003,0.01017 -0.003,0.04558 v 0.254745 q 0,0.02889 0.005,0.04354 0.005,0.01425 0.0151,0.01425 0.0117,0 0.0156,-0.01506 0.004,-0.01506 0.004,-0.05697 v -0.0643 h 0.10237 q -2.9e-4,0.06471 -0.003,0.09726 -0.003,0.03214 -0.019,0.06633 -0.0159,0.03377 -0.0418,0.05127 -0.0259,0.01709 -0.064,0.01709 -0.0487,0 -0.0771,-0.0236 -0.0284,-0.02401 -0.0404,-0.06674 -0.0117,-0.04314 -0.0117,-0.122082 V -3.84897 q 0,-0.06877 0.01,-0.10377 0.01,-0.035 0.0412,-0.06226 0.0316,-0.02767 0.0768,-0.02767 0.0449,0 0.0768,0.02726 0.0318,0.02726 0.0424,0.06877 0.0105,0.04151 0.0105,0.117606 z m 0.11061,0.201842 v 0.134291 h -0.0867 v -0.134291 z" id="text30" style="font-size:1.05833px;font-family:Impact;-inkscape-font-specification:Impact;fill:none;fill-rule:evenodd;stroke:#333333;stroke-width:0.0870822;stroke-linecap:round;stroke-linejoin:round;stroke-opacity:1" aria-label="Product of Cobby Inc." />
    <path style="fill:#4d4d4d;fill-opacity:1;fill-rule:evenodd;stroke:#333333;stroke-width:0.279641;stroke-linecap:round;stroke-linejoin:round;stroke-opacity:1" d="m 91.124446,-18.964932 c 0.0039,-0.698235 0.0019,-0.720085 -0.0859,-0.911664 l -0.08986,-0.196287 0.730427,-2.295472 c 0.475065,-1.492964 0.74513,-2.396513 0.772488,-2.584484 0.06104,-0.419391 0.02807,-1.118298 -0.06659,-1.411618 -0.09863,-0.305615 -0.263798,-0.54692 -0.462931,-0.676323 l -0.161375,-0.104865 -0.02127,-0.769014 c -0.0117,-0.422957 -0.02868,-1.103109 -0.03773,-1.511445 l -0.01646,-0.742432 0.16415,0.08295 c 0.469122,0.237048 1.094261,0.351867 2.121641,0.389678 0.365281,0.01344 0.734544,0.03434 0.820584,0.04644 l 0.156435,0.02201 0.101713,0.262162 c 0.277831,0.71609 0.375973,1.357207 0.307832,2.010921 -0.02341,0.224523 -0.08541,0.599286 -0.137797,0.832808 l -0.09525,0.424582 0.01275,3.923718 0.01275,3.923717 h -2.014786 -2.014783 z m 3.620024,0.165523 c 0.225055,-0.160533 0.222779,-0.140091 0.222779,-2.001871 0,-1.861783 0.0024,-1.841342 -0.222779,-2.001875 -0.108286,-0.07724 -0.121139,-0.07796 -1.391335,-0.07796 -1.248698,0 -1.284605,0.0019 -1.380728,0.07356 -0.05428,0.04046 -0.130149,0.126974 -0.168601,0.192252 -0.06677,0.113355 -0.07036,0.19137 -0.07997,1.735463 -0.01048,1.684298 -0.0021,1.804696 0.138295,1.983163 0.147505,0.187521 0.184838,0.191987 1.532136,0.183261 1.221311,-0.0079 1.242634,-0.0093 1.350203,-0.086 z" id="path30" />
  </g>
</svg>
