<svg width="110" height="110" viewBox="0 0 110 110" fill="none" xmlns="http://www.w3.org/2000/svg">
<g clip-path="url(#clip0_619_1201)">
<path d="M103.007 14.3475L103.719 15.5802C103.775 15.6769 103.889 15.7076 103.986 15.6517L105.726 14.6469C105.823 14.5911 105.853 14.4767 105.798 14.3801L105.044 13.0748C104.995 12.9902 104.893 12.9526 104.801 12.9894C104.625 13.075 104.309 13.1127 103.993 12.6503C103.951 12.5778 103.856 12.5522 103.789 12.575C103.377 12.6998 102.316 13.1511 103.007 14.3475Z" fill="#696256" stroke="#38352E" stroke-width="1.12442" stroke-miterlimit="3.99393" stroke-linecap="round"/>
<path d="M83.9501 31.6351L81.7871 27.8887L105.741 14.0588L107.904 17.8053L83.9501 31.6351Z" fill="#464239"/>
<path d="M81.7885 27.887L67.9141 35.8975L70.0771 39.6439L83.9515 31.6335L81.7885 27.887Z" fill="#4B463D" stroke="#38352E" stroke-width="1.12442" stroke-miterlimit="3.99393" stroke-linecap="round"/>
<path d="M54.2099 56.5402C54.2099 56.5402 57.5717 60.8837 64.8204 68.9452L70.9071 62.8528C70.9071 62.8528 61.9656 54.8179 59.5719 50.5601L54.2099 56.5402Z" fill="#4B463D"/>
<path d="M69.9103 61.9382C68.3283 63.8838 64.5138 67.433 63.9408 67.9633C64.2274 68.284 64.5206 68.6111 64.8204 68.9445L70.9071 62.8521C70.9071 62.8521 70.5301 62.5134 69.9103 61.9382Z" fill="#464239" stroke="#38352E" stroke-width="0.562208" stroke-miterlimit="3.99393" stroke-linecap="round"/>
<path d="M59.5723 55.2306C59.6986 55.1422 59.7294 54.9682 59.641 54.8419C59.5527 54.7156 59.3787 54.6848 59.2523 54.7732L55.1661 57.6319C55.0398 57.7203 55.009 57.8943 55.0974 58.0206C55.1858 58.1469 55.3598 58.1777 55.4861 58.0893L59.5723 55.2306Z" fill="#413C35"/>
<path d="M61.5396 57.7023C61.6589 57.6048 61.6766 57.4289 61.579 57.3096C61.4814 57.1903 61.3056 57.1726 61.1862 57.2702L57.366 60.3943C57.2467 60.4919 57.2291 60.6677 57.3267 60.7871C57.4242 60.9064 57.6001 60.924 57.7194 60.8264L61.5396 57.7023Z" fill="#413C35"/>
<path d="M63.6599 59.9371C63.7715 59.8307 63.7757 59.6541 63.6693 59.5425C63.563 59.4309 63.3863 59.4267 63.2747 59.5331L59.8446 62.8025C59.7331 62.9089 59.7288 63.0856 59.8352 63.1971C59.9415 63.3087 60.1182 63.3129 60.2298 63.2066L63.6599 59.9371Z" fill="#413C35"/>
<path d="M65.9456 62.4822C66.0531 62.3716 66.0506 62.1949 65.9401 62.0875C65.8296 61.98 65.6529 61.9825 65.5454 62.093L62.4008 65.3266C62.2933 65.4371 62.2958 65.6138 62.4063 65.7213C62.5168 65.8287 62.6935 65.8262 62.8009 65.7157L65.9456 62.4822Z" fill="#413C35"/>
<path d="M69.0502 61.2166C69.1526 61.1014 69.1422 60.925 69.027 60.8226C68.9117 60.7202 68.7353 60.7306 68.6329 60.8458L65.8978 63.9235C65.7954 64.0388 65.8058 64.2152 65.921 64.3176C66.0363 64.42 66.2127 64.4096 66.3151 64.2943L69.0502 61.2166Z" fill="#413C35"/>
<path d="M66.8682 58.9961C66.9694 58.8798 66.9571 58.7035 66.8408 58.6024C66.7245 58.5012 66.5482 58.5135 66.447 58.6298L63.4349 62.093C63.3338 62.2093 63.3461 62.3856 63.4624 62.4868C63.5787 62.5879 63.755 62.5756 63.8561 62.4593L66.8682 58.9961Z" fill="#413C35"/>
<path d="M64.677 56.8027C64.7857 56.6935 64.7853 56.5167 64.676 56.408C64.5667 56.2993 64.39 56.2998 64.2813 56.4091L60.9674 59.7403C60.8587 59.8496 60.8592 60.0263 60.9685 60.1351C61.0777 60.2438 61.2545 60.2433 61.3632 60.134L64.677 56.8027Z" fill="#413C35"/>
<path d="M62.7195 54.7679C62.842 54.6742 62.8653 54.4991 62.7716 54.3766C62.6779 54.2542 62.5027 54.2309 62.3803 54.3246L58.435 57.3437C58.3126 57.4373 58.2893 57.6125 58.383 57.7349C58.4766 57.8573 58.6518 57.8806 58.7742 57.787L62.7195 54.7679Z" fill="#413C35"/>
<path d="M54.2099 56.5402C54.2099 56.5402 57.5717 60.8837 64.8204 68.9452L70.9071 62.8528C70.9071 62.8528 61.9656 54.8179 59.5719 50.5601L54.2099 56.5402Z" stroke="#38352E" stroke-width="1.12442" stroke-miterlimit="3.99393" stroke-linecap="round"/>
<path d="M72.3559 30.7559C71.2682 31.3839 71.6572 32.4484 71.6572 32.4484L68.8491 33.8924C68.8491 33.8924 68.0877 34.332 67.914 34.9801L68.3117 35.669L75.0435 31.7824L74.4016 30.6706C74.4016 30.6706 73.4437 30.1279 72.3559 30.7559ZM73.2559 31.896C73.1592 31.9518 73.0188 31.904 72.956 31.7952C72.8932 31.6864 72.922 31.5409 73.0187 31.4851C73.1154 31.4293 73.2558 31.4771 73.3186 31.5859C73.3814 31.6946 73.3647 31.8332 73.2559 31.896Z" fill="#696256"/>
<path d="M100.06 17.3383L82.7773 27.3164L84.8008 30.8212L102.083 20.843L100.06 17.3383Z" fill="#3E3A32" stroke="#38352E" stroke-width="0.562208" stroke-miterlimit="3.99393" stroke-linecap="round"/>
<path d="M71.6572 32.4484C71.6572 32.4484 71.2682 31.3839 72.3559 30.7559C73.4437 30.1279 74.4016 30.6706 74.4016 30.6706L75.0435 31.7824L68.3117 35.669L67.914 34.9801C68.0877 34.332 68.8491 33.8924 68.8491 33.8924L71.6572 32.4484Z" stroke="#38352E" stroke-width="1.12442" stroke-miterlimit="3.99393" stroke-linecap="round"/>
<path d="M73.2545 31.8961C73.1578 31.9519 73.0174 31.9041 72.9546 31.7953C72.8918 31.6865 72.9205 31.541 73.0172 31.4852C73.1139 31.4294 73.2543 31.4772 73.3171 31.586C73.3799 31.6947 73.3632 31.8333 73.2545 31.8961Z" stroke="#38352E" stroke-width="0.562208" stroke-miterlimit="3.99393" stroke-linecap="round"/>
<path d="M66.2382 32.9978C66.1611 32.8643 65.9904 32.8185 65.8569 32.8956C65.7235 32.9727 65.6777 33.1434 65.7548 33.2769L66.1734 34.002C66.1914 34.033 66.2351 34.0832 66.2593 34.1047C66.3085 34.1483 66.3789 34.1927 66.4731 34.218C66.6651 34.2694 66.8987 34.2278 67.1777 34.0667L71.6494 31.485C71.7829 31.4079 71.8287 31.2372 71.7516 31.1037C71.6745 30.9702 71.5038 30.9245 71.3703 31.0016L66.8986 33.5833C66.7971 33.6419 66.726 33.666 66.6809 33.6752C66.6584 33.6798 66.6426 33.6807 66.6324 33.6804L66.2382 32.9978Z" fill="#433F37" stroke="#38352E" stroke-width="0.562208" stroke-miterlimit="3.99393" stroke-linecap="round"/>
<path d="M105.834 13.5214L106.426 13.1795C106.596 13.0818 106.805 13.138 106.903 13.3072L109.059 17.0416C109.157 17.2108 109.1 17.4205 108.931 17.5182L108.339 17.8601C108.17 17.9578 107.96 17.9016 107.862 17.7324L105.706 13.998C105.597 13.8358 105.665 13.6191 105.834 13.5214Z" fill="#696256" stroke="#38352E" stroke-width="1.12442" stroke-miterlimit="3.99393" stroke-linecap="round"/>
<path d="M66.67 35.8105L67.3831 35.3988C67.5523 35.3011 67.762 35.3573 67.8597 35.5265L70.2948 39.7443C70.3925 39.9135 70.3363 40.1232 70.1671 40.2209L69.4541 40.6326C69.2849 40.7303 69.0752 40.6741 68.9775 40.5049L66.5423 36.2871C66.4326 36.1249 66.5008 35.9082 66.67 35.8105Z" fill="#696256" stroke="#38352E" stroke-width="1.12442" stroke-miterlimit="3.99393" stroke-linecap="round"/>
<path d="M34.7263 53.6086L36.1525 52.7852C36.3217 52.6876 36.5504 52.7489 36.6481 52.918L37.4715 54.3441C37.5691 54.5133 37.5078 54.7421 37.3386 54.8398L35.9125 55.6631C35.7433 55.7608 35.5146 55.6995 35.4169 55.5303L34.5935 54.1043C34.4889 53.923 34.5571 53.7063 34.7263 53.6086Z" fill="#403D3A" stroke="#363330" stroke-width="1.12442" stroke-miterlimit="3.99393" stroke-linecap="round"/>
<path d="M38.9451 51.1729L41.8699 49.4843C42.027 49.3936 42.2367 49.4498 42.3274 49.6069L44.0159 52.5316C44.1067 52.6887 44.0505 52.8984 43.8934 52.9891L40.9686 54.6777C40.8115 54.7684 40.6018 54.7122 40.5111 54.5551L38.8225 51.6304C38.7197 51.4803 38.7759 51.2706 38.9451 51.1729Z" fill="#403D3A" stroke="#363330" stroke-width="1.12442" stroke-miterlimit="3.99393" stroke-linecap="round"/>
<path d="M44.3826 48.0342L47.2953 46.3526C47.4524 46.2619 47.6621 46.3181 47.7528 46.4752L49.4344 49.3878C49.5251 49.5449 49.4689 49.7546 49.3118 49.8453L46.3991 51.5269C46.242 51.6176 46.0323 51.5614 45.9416 51.4043L44.26 48.4918C44.1572 48.3416 44.2134 48.1319 44.3826 48.0342Z" fill="#403D3A" stroke="#363330" stroke-width="1.12442" stroke-miterlimit="3.99393" stroke-linecap="round"/>
<path d="M49.8821 44.8581L52.6739 43.2462C52.8673 43.1346 53.1272 43.194 53.2458 43.3994L54.8576 46.1912C54.9693 46.3845 54.9098 46.6444 54.7044 46.763L51.9126 48.3749C51.7192 48.4865 51.4593 48.4271 51.3407 48.2217L49.7289 45.4299C49.6102 45.2245 49.6887 44.9697 49.8821 44.8581Z" fill="#403D3A" stroke="#363330" stroke-width="1.12442" stroke-miterlimit="3.99393" stroke-linecap="round"/>
<path d="M19.863 73.8078C19.863 73.8078 22.9223 72.7988 23.576 75.7731C24.2296 78.7474 24.4731 79.7831 24.4731 79.7831C24.4731 79.7831 25.0685 82.0982 23.5271 83.0848C21.9857 84.0714 22.8893 84.8549 22.8893 84.8549L34.071 78.5442L32.0945 78.2189C32.0945 78.2189 29.5171 78.6113 28.8635 75.637C28.2098 72.6627 27.9245 71.5544 27.9245 71.5544C27.9245 71.5544 27.5682 69.6814 28.9256 68.9622C30.2829 68.243 24.4477 69.775 24.4477 69.775L19.863 73.8078Z" fill="#DA9F34" stroke="#533D13" stroke-width="1.12442" stroke-miterlimit="3.99393" stroke-linecap="round"/>
<path d="M40.8996 55.2325L32.1075 59.793L29.0786 61.4129C29.0786 61.4129 26.3459 66.1972 20.6377 69.4284C14.9225 72.6475 3.55012 78.9072 3.55012 78.9072C3.55012 78.9072 6.27332 82.5075 7.79355 85.336C9.31377 88.1645 11.2299 93.2137 11.2299 93.2137L37.8402 77.2862C37.8402 77.2862 40.0436 76.0786 41.161 76.6742L48.3191 72.9121C48.5195 72.8125 48.4957 72.5201 48.279 72.4518C47.6862 72.2623 46.8705 71.7986 46.6456 70.6555C46.2773 68.7894 45.1995 63.8524 45.1995 63.8524C45.1995 63.8524 45.0519 62.9547 45.5933 62.4971L40.8996 55.2325ZM39.3307 67.9498C40.262 70.7534 40.682 73.5747 38.4904 74.7838C36.5733 75.7617 17.2777 86.1608 17.2777 86.1608C17.2777 86.1608 15.416 87.1229 13.4931 85.6065C11.5702 84.0902 11.0038 83.6115 11.0038 83.6115C11.0038 83.6115 7.29275 80.5331 10.9813 78.5486L35.0829 65.6164C35.0829 65.6164 38.2062 63.7971 39.3307 67.9498Z" fill="#E0AD52" stroke="#533D13" stroke-width="1.12442" stroke-miterlimit="3.99393" stroke-linecap="round"/>
<path d="M3.5586 78.9192C3.5586 78.9192 6.62744 83.174 7.97834 85.6813C9.32923 88.1886 11.2383 93.2257 11.2383 93.2257L9.02104 94.4092C8.68775 94.5855 8.25951 94.4299 8.14363 94.0617C7.63315 92.5356 6.3479 88.8302 5.21518 86.7287C4.08245 84.6272 1.91882 81.9124 1.0505 80.8829C0.855626 80.657 0.928511 80.3088 1.18929 80.1743L3.5586 78.9192Z" fill="#4C473E" stroke="#38352E" stroke-width="1.12442" stroke-miterlimit="3.99393" stroke-linecap="round"/>
<path d="M45.936 55.8379C45.936 55.8379 45.5914 58.5448 48.1442 59.2876C48.4482 59.3761 48.8773 59.2851 48.5425 59.0058C47.8506 58.4285 46.7849 56.2129 46.7627 55.3606L45.936 55.8379Z" fill="#464139" stroke="#38342E" stroke-width="1.12442" stroke-miterlimit="3.99393" stroke-linecap="round"/>
<path fill-rule="evenodd" clip-rule="evenodd" d="M34.1382 63.359L32.2961 60.1685L31.3523 58.5058C31.3523 58.5058 32.4396 56.6212 32.6695 55.7633C32.8993 54.9055 33.3266 54.8361 33.3266 54.8361L55.2631 42.171L59.8953 50.1962C59.8953 50.1962 54.5041 56.2093 53.9883 56.9905L53.3005 58.0322L45.8151 62.3539L45.2893 62.1508L42.1495 59.9583L35.3936 63.8589C34.5476 64.3473 34.1382 63.359 34.1382 63.359ZM45.851 61.6804L51.9273 58.1723L49.8163 54.5651L43.7613 58.0609L45.851 61.6804Z" fill="#696256"/>
<path fill-rule="evenodd" clip-rule="evenodd" d="M45.8495 61.681L51.9258 58.1729L49.8147 54.5657L43.7598 58.0615L45.8495 61.681Z" stroke="#38342E" stroke-width="0.562208" stroke-miterlimit="3.99393" stroke-linecap="round"/>
<path d="M55.1906 42.0516L60.0873 50.1981C60.2199 50.4277 60.6894 50.1244 60.872 49.9384L69.1879 41.8178C69.312 41.6978 69.6187 41.3918 69.5401 41.2277L66.3398 35.8241C66.2403 35.6238 65.9855 35.5453 65.7921 35.657L55.3388 41.4988C55.1454 41.6105 55.079 41.8583 55.1906 42.0516Z" fill="#4B463D" stroke="#38352E" stroke-width="1.12442" stroke-miterlimit="3.99393" stroke-linecap="round"/>
<path d="M83.9501 31.6351L81.7871 27.8887L105.741 14.0588L107.904 17.8053L83.9501 31.6351Z" stroke="#38352E" stroke-width="1.12442" stroke-miterlimit="3.99393"/>
<path d="M42.7044 53.7536L47.5116 50.53L48.2206 51.7579L41.9667 55.3685L42.7044 53.7536Z" fill="#413C35" stroke="#38352E" stroke-width="0.562208" stroke-miterlimit="3.99393"/>
<path d="M46.7624 53.3231C47.031 53.2347 47.3204 53.3808 47.4088 53.6495C47.4971 53.9181 47.351 54.2076 47.0823 54.296L44.1492 55.2609C44.0516 55.293 43.9623 55.3461 43.8874 55.4164L42.9417 56.3054C43.0885 56.698 42.9347 57.1505 42.5597 57.367C42.1418 57.6083 41.6075 57.4651 41.3662 57.0472C41.125 56.6294 41.2681 56.095 41.686 55.8537C41.8007 55.7875 41.9243 55.7501 42.0481 55.7396L43.2384 54.6211C43.3881 54.4804 43.5667 54.3743 43.7617 54.3102L46.7624 53.3231Z" fill="#4C473E" stroke="#38342E" stroke-width="0.562208" stroke-miterlimit="3.99393"/>
<path d="M55.9906 43.6677L57.5916 46.3466L47.9919 51.889L47.0978 49.9927C46.8483 49.4636 47.0461 48.8317 47.5526 48.5393L55.9906 43.6677Z" fill="#4C463E" stroke="#38352E" stroke-width="0.562208" stroke-miterlimit="3.99393"/>
<path fill-rule="evenodd" clip-rule="evenodd" d="M34.1382 63.359L32.2961 60.1685L31.3523 58.5058C31.3523 58.5058 32.4396 56.6212 32.6695 55.7633C32.8993 54.9055 33.3266 54.8361 33.3266 54.8361L55.2625 42.1714L60.0404 50.1124C60.0404 50.1124 54.5041 56.2093 53.9883 56.9905L53.3005 58.0322L45.8151 62.3539L45.2893 62.1508L42.1495 59.9583L35.3936 63.8589C34.5476 64.3473 34.1382 63.359 34.1382 63.359Z" stroke="#38342E" stroke-width="1.12442" stroke-miterlimit="3.99393" stroke-linecap="round"/>
<rect x="55.7383" y="45.8535" width="0.636748" height="0.860731" transform="rotate(-30 55.7383 45.8535)" fill="#423D36"/>
</g>
<defs>
<clipPath id="clip0_619_1201">
<rect width="110" height="110" fill="white"/>
</clipPath>
</defs>
</svg>
