<svg xmlns="http://www.w3.org/2000/svg" xmlns:xlink="http://www.w3.org/1999/xlink" xml:space="preserve" width="64" height="64"><defs><linearGradient id="a"><stop offset="0" style="stop-color:#b70101;stop-opacity:1"/><stop offset="1" style="stop-color:#2b0000;stop-opacity:1"/></linearGradient><linearGradient xlink:href="#a" id="b" x1="139.748" x2="341.78" y1="176.739" y2="176.739" gradientUnits="userSpaceOnUse"/><linearGradient xlink:href="#a" id="c" x1="139.748" x2="341.78" y1="176.739" y2="176.739" gradientTransform="matrix(1.0197 0 0 1.0197 -5.373 -4.256)" gradientUnits="userSpaceOnUse"/><linearGradient xlink:href="#a" id="d" x1="139.748" x2="341.78" y1="176.739" y2="176.739" gradientTransform="matrix(1.0197 0 0 1.0197 -5.373 -4.256)" gradientUnits="userSpaceOnUse"/><linearGradient xlink:href="#a" id="f" x1="139.748" x2="341.78" y1="176.739" y2="176.739" gradientUnits="userSpaceOnUse"/><linearGradient xlink:href="#a" id="g" x1="139.748" x2="341.78" y1="176.739" y2="176.739" gradientUnits="userSpaceOnUse"/><linearGradient xlink:href="#a" id="h" x1="139.748" x2="341.78" y1="176.739" y2="176.739" gradientUnits="userSpaceOnUse"/><linearGradient xlink:href="#a" id="e" x1="139.748" x2="341.78" y1="176.739" y2="176.739" gradientUnits="userSpaceOnUse"/><linearGradient xlink:href="#a" id="j" x1="139.748" x2="341.78" y1="176.739" y2="176.739" gradientUnits="userSpaceOnUse"/><linearGradient xlink:href="#a" id="k" x1="139.748" x2="341.78" y1="176.739" y2="176.739" gradientUnits="userSpaceOnUse"/><linearGradient xlink:href="#a" id="l" x1="139.748" x2="341.78" y1="176.739" y2="176.739" gradientUnits="userSpaceOnUse"/><linearGradient xlink:href="#a" id="m" x1="139.748" x2="341.78" y1="176.739" y2="176.739" gradientUnits="userSpaceOnUse"/><linearGradient xlink:href="#a" id="n" x1="139.748" x2="341.78" y1="176.739" y2="176.739" gradientUnits="userSpaceOnUse"/><linearGradient xlink:href="#a" id="o" x1="139.748" x2="341.78" y1="176.739" y2="176.739" gradientUnits="userSpaceOnUse"/><linearGradient xlink:href="#a" id="p" x1="139.748" x2="341.78" y1="176.739" y2="176.739" gradientUnits="userSpaceOnUse"/><linearGradient xlink:href="#a" id="i" x1="139.748" x2="341.78" y1="176.739" y2="176.739" gradientUnits="userSpaceOnUse"/><linearGradient xlink:href="#a" id="r" x1="139.748" x2="341.78" y1="176.739" y2="176.739" gradientUnits="userSpaceOnUse"/><linearGradient xlink:href="#a" id="s" x1="139.748" x2="341.78" y1="176.739" y2="176.739" gradientUnits="userSpaceOnUse"/><linearGradient xlink:href="#a" id="t" x1="139.748" x2="341.78" y1="176.739" y2="176.739" gradientUnits="userSpaceOnUse"/><linearGradient xlink:href="#a" id="u" x1="139.748" x2="341.78" y1="176.739" y2="176.739" gradientUnits="userSpaceOnUse"/><linearGradient xlink:href="#a" id="v" x1="139.748" x2="341.78" y1="176.739" y2="176.739" gradientUnits="userSpaceOnUse"/><linearGradient xlink:href="#a" id="w" x1="139.748" x2="341.78" y1="176.739" y2="176.739" gradientUnits="userSpaceOnUse"/><linearGradient xlink:href="#a" id="x" x1="139.748" x2="341.78" y1="176.739" y2="176.739" gradientUnits="userSpaceOnUse"/><linearGradient xlink:href="#a" id="y" x1="139.748" x2="341.78" y1="176.739" y2="176.739" gradientUnits="userSpaceOnUse"/><linearGradient xlink:href="#a" id="z" x1="139.748" x2="341.78" y1="176.739" y2="176.739" gradientUnits="userSpaceOnUse"/><linearGradient xlink:href="#a" id="q" x1="139.748" x2="341.78" y1="176.739" y2="176.739" gradientUnits="userSpaceOnUse"/><linearGradient xlink:href="#a" id="B" x1="139.748" x2="341.78" y1="176.739" y2="176.739" gradientUnits="userSpaceOnUse"/><linearGradient xlink:href="#a" id="C" x1="139.748" x2="341.78" y1="176.739" y2="176.739" gradientUnits="userSpaceOnUse"/><linearGradient xlink:href="#a" id="D" x1="139.748" x2="341.78" y1="176.739" y2="176.739" gradientUnits="userSpaceOnUse"/><linearGradient xlink:href="#a" id="A" x1="139.748" x2="341.78" y1="176.739" y2="176.739" gradientUnits="userSpaceOnUse"/><linearGradient xlink:href="#a" id="E" x1="139.748" x2="341.78" y1="176.739" y2="176.739" gradientUnits="userSpaceOnUse"/><linearGradient xlink:href="#a" id="F" x1="139.748" x2="341.78" y1="176.739" y2="176.739" gradientUnits="userSpaceOnUse"/><linearGradient xlink:href="#a" id="G" x1="139.748" x2="341.78" y1="176.739" y2="176.739" gradientUnits="userSpaceOnUse"/><linearGradient xlink:href="#a" id="H" x1="139.748" x2="341.78" y1="176.739" y2="176.739" gradientTransform="matrix(1.0197 0 0 1.0197 -5.373 -4.256)" gradientUnits="userSpaceOnUse"/><linearGradient xlink:href="#a" id="J" x1="139.748" x2="341.78" y1="176.739" y2="176.739" gradientUnits="userSpaceOnUse"/><linearGradient xlink:href="#a" id="L" x1="139.748" x2="341.78" y1="176.739" y2="176.739" gradientUnits="userSpaceOnUse"/><linearGradient xlink:href="#a" id="M" x1="139.748" x2="341.78" y1="176.739" y2="176.739" gradientUnits="userSpaceOnUse"/><linearGradient xlink:href="#a" id="N" x1="139.748" x2="341.78" y1="176.739" y2="176.739" gradientUnits="userSpaceOnUse"/><linearGradient xlink:href="#a" id="K" x1="139.748" x2="341.78" y1="176.739" y2="176.739" gradientUnits="userSpaceOnUse"/><linearGradient xlink:href="#a" id="I" x1="139.748" x2="341.78" y1="176.739" y2="176.739" gradientUnits="userSpaceOnUse"/><linearGradient xlink:href="#a" id="P" x1="139.748" x2="341.78" y1="176.739" y2="176.739" gradientUnits="userSpaceOnUse"/><linearGradient xlink:href="#a" id="R" x1="139.748" x2="341.78" y1="176.739" y2="176.739" gradientUnits="userSpaceOnUse"/><linearGradient xlink:href="#a" id="S" x1="139.748" x2="341.78" y1="176.739" y2="176.739" gradientUnits="userSpaceOnUse"/><linearGradient xlink:href="#a" id="T" x1="139.748" x2="341.78" y1="176.739" y2="176.739" gradientUnits="userSpaceOnUse"/><linearGradient xlink:href="#a" id="Q" x1="139.748" x2="341.78" y1="176.739" y2="176.739" gradientUnits="userSpaceOnUse"/><linearGradient xlink:href="#a" id="O" x1="139.748" x2="341.78" y1="176.739" y2="176.739" gradientUnits="userSpaceOnUse"/><linearGradient xlink:href="#a" id="V" x1="139.748" x2="341.78" y1="176.739" y2="176.739" gradientUnits="userSpaceOnUse"/><linearGradient xlink:href="#a" id="U" x1="139.748" x2="341.78" y1="176.739" y2="176.739" gradientUnits="userSpaceOnUse"/><linearGradient xlink:href="#a" id="X" x1="139.748" x2="341.78" y1="176.739" y2="176.739" gradientUnits="userSpaceOnUse"/><linearGradient xlink:href="#a" id="W" x1="139.748" x2="341.78" y1="176.739" y2="176.739" gradientUnits="userSpaceOnUse"/><linearGradient xlink:href="#a" id="Z" x1="139.748" x2="341.78" y1="176.739" y2="176.739" gradientUnits="userSpaceOnUse"/><linearGradient xlink:href="#a" id="ab" x1="139.748" x2="341.78" y1="176.739" y2="176.739" gradientUnits="userSpaceOnUse"/><linearGradient xlink:href="#a" id="ac" x1="139.748" x2="341.78" y1="176.739" y2="176.739" gradientUnits="userSpaceOnUse"/><linearGradient xlink:href="#a" id="ad" x1="139.748" x2="341.78" y1="176.739" y2="176.739" gradientUnits="userSpaceOnUse"/><linearGradient xlink:href="#a" id="aa" x1="139.748" x2="341.78" y1="176.739" y2="176.739" gradientUnits="userSpaceOnUse"/><linearGradient xlink:href="#a" id="Y" x1="139.748" x2="341.78" y1="176.739" y2="176.739" gradientUnits="userSpaceOnUse"/></defs><g stroke-miterlimit="10" data-paper-data="{&quot;isPaintingLayer&quot;:true}" style="mix-blend-mode:normal;fill:url(#b);fill-opacity:1" transform="matrix(.27464 0 0 .27464 -33.95 -16.326)"><path d="m201.118 77.22-4.64-13.134h-46.65l-8.059 48.468 15.183 89.911H199.1z" style="fill:url(#c);fill-opacity:1;stroke:#141414;stroke-width:9.28227;stroke-linecap:round;stroke-linejoin:round;stroke-miterlimit:2;stroke-dasharray:none;stroke-opacity:1"/><path d="m279.148 77.597 4.641-13.134h46.65l8.059 48.468-15.183 89.911h-42.148z" style="mix-blend-mode:normal;fill:url(#d);fill-opacity:1;stroke:#141414;stroke-width:9.28227;stroke-linecap:round;stroke-linejoin:round;stroke-miterlimit:2;stroke-dasharray:none;stroke-opacity:1"/><g style="mix-blend-mode:normal;fill:url(#e);fill-opacity:1" transform="matrix(1.0197 0 0 1.0197 -5.373 -8.033)"><path d="m240.133 170.16-36.741-6.79-8.824 14.904 45.565 72.33 45.566-72.33-8.824-14.904z" style="fill:url(#f);fill-opacity:1;stroke:none;stroke-width:9.10298;stroke-linecap:round;stroke-linejoin:round;stroke-miterlimit:2;stroke-dasharray:none;stroke-opacity:1"/><path d="m239.546 170.16-36.154-6.79-8.824 14.904 45.565 17.566 45.566-17.566-9.411-14.904z" style="fill:url(#g);fill-opacity:1;stroke:none;stroke-width:9.10298;stroke-linecap:round;stroke-linejoin:round;stroke-miterlimit:2;stroke-dasharray:none;stroke-opacity:1"/><path d="m240.133 170.16-36.741-6.79-8.824 14.904 45.565 72.33 45.566-72.33-8.824-14.904z" style="mix-blend-mode:normal;fill:url(#h);fill-opacity:1;stroke:#141414;stroke-width:9.10298;stroke-linecap:round;stroke-linejoin:round;stroke-miterlimit:2;stroke-dasharray:none;stroke-opacity:1"/></g><g style="fill:url(#i);fill-opacity:1" transform="matrix(1.0197 0 0 1.0197 -4.087 -3.88)"><path d="m202.725 97.893.222 17.99 37.186 14.81 37.409-32.283.222-18.507h-75.262z" style="fill:url(#j);fill-opacity:1;stroke:#141414;stroke-width:9.10298;stroke-linecap:round;stroke-linejoin:round;stroke-miterlimit:2;stroke-dasharray:none;stroke-opacity:1"/><path d="m202.947 115.883-.445-35.98c26.805-6.3 51.775-5.833 75.262 0l-.444 37.013-37.187 13.778z" style="fill:url(#k);fill-opacity:1;stroke:#141414;stroke-width:9.10298;stroke-linecap:round;stroke-linejoin:round;stroke-miterlimit:2;stroke-dasharray:none;stroke-opacity:1"/><path d="m208.324 110.337-.38-27.369c22.928-4.792 44.288-4.438 64.38 0l-.381 28.155-31.81 10.48z" style="mix-blend-mode:normal;fill:url(#l);fill-opacity:1;stroke:none;stroke-width:7.343;stroke-linecap:round;stroke-linejoin:round;stroke-miterlimit:2;stroke-dasharray:none;stroke-opacity:1"/><path d="m202.947 115.883 37.186 14.81-36.741 32.677z" style="fill:url(#m);fill-opacity:1;stroke:#141414;stroke-width:9.10298;stroke-linecap:round;stroke-linejoin:round;stroke-miterlimit:2;stroke-dasharray:none;stroke-opacity:1"/><path d="m276.732 115.883-37.186 14.81 18.023 78.933 18.719-46.256z" style="mix-blend-mode:normal;fill:url(#n);fill-opacity:1;stroke:#141414;stroke-width:9.10298;stroke-linecap:round;stroke-linejoin:round;stroke-miterlimit:2;stroke-dasharray:none;stroke-opacity:1"/><ellipse cx="222.271" cy="153.132" rx="6.211" ry="14.707" style="fill:url(#o);fill-opacity:1;stroke:#141414;stroke-width:4.64252;stroke-linecap:round;stroke-linejoin:round;stroke-miterlimit:2;stroke-dasharray:none;stroke-opacity:1"/><ellipse cx="256.155" cy="153.132" rx="6.211" ry="14.707" style="mix-blend-mode:normal;fill:url(#p);fill-opacity:1;stroke:#141414;stroke-width:4.64252;stroke-linecap:round;stroke-linejoin:round;stroke-miterlimit:2;stroke-dasharray:none;stroke-opacity:1"/></g><g style="fill:url(#q);fill-opacity:1" transform="matrix(1.0197 0 0 1.0197 18.29 -131.668)"><rect width="183.651" height="60.305" x="125.498" y="343.976" rx="8.156" ry="8.156" style="fill:url(#r);fill-opacity:1;stroke:#131513;stroke-width:9.10298;stroke-linecap:round;stroke-linejoin:round;stroke-miterlimit:2;stroke-dasharray:none;stroke-opacity:1"/><rect width="182.732" height="19.258" x="125.498" y="343.976" rx="8.156" ry="8.156" style="fill:url(#s);fill-opacity:1;stroke:none;stroke-width:9.10298;stroke-linecap:round;stroke-linejoin:round;stroke-miterlimit:2;stroke-dasharray:none;stroke-opacity:1"/><rect width="182.732" height="19.258" x="125.958" y="383.757" rx="8.156" ry="8.156" style="mix-blend-mode:normal;fill:url(#t);fill-opacity:1;stroke:none;stroke-width:9.10298;stroke-linecap:round;stroke-linejoin:round;stroke-miterlimit:2;stroke-dasharray:none;stroke-opacity:1"/><rect width="182.732" height="19.258" x="125.958" y="353.605" rx="8.156" ry="8.156" style="mix-blend-mode:normal;fill:url(#u);fill-opacity:1;stroke:none;stroke-width:9.10298;stroke-linecap:round;stroke-linejoin:round;stroke-miterlimit:2;stroke-dasharray:none;stroke-opacity:1"/><rect width="182.732" height="38.516" x="125.958" y="353.605" rx="8.156" ry="8.156" style="mix-blend-mode:normal;fill:url(#v);fill-opacity:1;stroke:none;stroke-width:12.8736;stroke-linecap:round;stroke-linejoin:round;stroke-miterlimit:2;stroke-dasharray:none;stroke-opacity:1"/><rect width="182.732" height="19.258" x="125.958" y="363.867" rx="8.156" ry="8.156" style="mix-blend-mode:normal;fill:url(#w);fill-opacity:1;stroke:none;stroke-width:9.10298;stroke-linecap:round;stroke-linejoin:round;stroke-miterlimit:2;stroke-dasharray:none;stroke-opacity:1"/><rect width="183.651" height="60.305" x="125.498" y="343.976" rx="8.156" ry="8.156" style="mix-blend-mode:normal;fill:url(#x);fill-opacity:1;stroke:#131513;stroke-width:9.10298;stroke-linecap:round;stroke-linejoin:round;stroke-miterlimit:2;stroke-dasharray:none;stroke-opacity:1"/><rect width="11.506" height="79.012" x="170.044" y="334.623" rx="8.156" ry="8.156" style="fill:url(#y);fill-opacity:1;stroke:#181310;stroke-width:4.64252;stroke-linecap:round;stroke-linejoin:round;stroke-miterlimit:2;stroke-dasharray:none;stroke-opacity:1"/><rect width="11.506" height="79.012" x="259.086" y="333.357" rx="8.156" ry="8.156" style="mix-blend-mode:normal;fill:url(#z);fill-opacity:1;stroke:#181310;stroke-width:4.64252;stroke-linecap:round;stroke-linejoin:round;stroke-miterlimit:2;stroke-dasharray:none;stroke-opacity:1"/></g><g style="fill:url(#A);fill-opacity:1" transform="matrix(1.0197 0 0 1.0197 -5.373 -4.256)"><path d="m189.057 119.684-37.002-6.557v37.593c.56 2.703 10.112 2.67 12.241 2.863h49.522c2.13-.192 11.682-.16 12.241-2.863v-37.593z" style="mix-blend-mode:normal;fill:url(#B);fill-opacity:1;stroke:#121612;stroke-width:4.64252;stroke-linecap:round;stroke-linejoin:round;stroke-miterlimit:2;stroke-dasharray:none;stroke-opacity:1" transform="translate(2.948 94.33)"/><path d="m189.057 120.183-37.002.227v30.31c.56 2.703 10.112 2.67 12.241 2.863h49.522c2.13-.192 11.682-.16 12.241-2.863v-30.31z" style="mix-blend-mode:normal;fill:url(#C);fill-opacity:1;stroke:none;stroke-width:4.64252;stroke-linecap:round;stroke-linejoin:round;stroke-miterlimit:2;stroke-dasharray:none;stroke-opacity:1" transform="matrix(.77944 0 0 .89791 44.528 104.158)"/><path d="m189.057 120.183-37.002.227v15.745c.56 2.703 10.112 9.954 12.241 10.145 10.88 1.805 19.078 2.604 24.761 2.46 5.684.144 13.882-.655 24.761-2.46 2.13-.191 11.682-7.442 12.241-10.145V120.41z" style="mix-blend-mode:normal;fill:url(#D);fill-opacity:1;stroke:#121612;stroke-width:4.64252;stroke-linecap:round;stroke-linejoin:round;stroke-miterlimit:2;stroke-dasharray:none;stroke-opacity:1" transform="translate(2.948 75.31)"/></g><g style="fill:url(#b);fill-opacity:1" transform="translate(7.282)"><path d="m189.057 119.684-37.002-6.557v37.593c.56 2.703 10.112 2.67 12.241 2.863h49.522c2.13-.192 11.682-.16 12.241-2.863v-37.593z" style="mix-blend-mode:normal;fill:url(#E);fill-opacity:1;stroke:#121612;stroke-width:4.64252;stroke-linecap:round;stroke-linejoin:round;stroke-miterlimit:2;stroke-dasharray:none;stroke-opacity:1" transform="matrix(1.0197 0 0 1.0197 88.95 91.932)"/><path d="m189.057 120.183-37.002.227v30.31c.56 2.703 10.112 2.67 12.241 2.863h49.522c2.13-.192 11.682-.16 12.241-2.863v-30.31z" style="mix-blend-mode:normal;fill:url(#F);fill-opacity:1;stroke:none;stroke-width:4.64252;stroke-linecap:round;stroke-linejoin:round;stroke-miterlimit:2;stroke-dasharray:none;stroke-opacity:1" transform="matrix(.79479 0 0 .9156 131.349 101.953)"/><path d="m189.057 120.183-37.002.227v15.745c.56 2.703 10.112 9.954 12.241 10.145 10.88 1.805 19.078 2.604 24.761 2.46 5.684.144 13.882-.655 24.761-2.46 2.13-.191 11.682-7.442 12.241-10.145V120.41z" style="mix-blend-mode:normal;fill:url(#G);fill-opacity:1;stroke:#121612;stroke-width:4.64252;stroke-linecap:round;stroke-linejoin:round;stroke-miterlimit:2;stroke-dasharray:none;stroke-opacity:1" transform="matrix(1.0197 0 0 1.0197 88.95 72.536)"/></g><rect width="186.144" height="80.077" x="146.418" y="111.952" rx="8.317" ry="8.317" style="mix-blend-mode:normal;fill:url(#H);fill-opacity:1;stroke:#131513;stroke-width:9.28227;stroke-linecap:round;stroke-linejoin:round;stroke-miterlimit:2;stroke-dasharray:none;stroke-opacity:1"/><g style="mix-blend-mode:normal;fill:url(#I);fill-opacity:1" transform="matrix(1.0197 0 0 1.0197 -121.957 151.57)"><path d="m189.057 119.405-22.437-6.278v30.31c.56 2.704 10.112 2.672 12.241 2.863h20.392c2.13-.191 11.682-.16 12.242-2.863v-30.31z" style="mix-blend-mode:normal;fill:url(#J);fill-opacity:1;stroke:#121612;stroke-width:4.64252;stroke-linecap:round;stroke-linejoin:round;stroke-miterlimit:2;stroke-dasharray:none;stroke-opacity:1" transform="translate(107.57 -112.995)"/><g style="mix-blend-mode:normal;fill:url(#K);fill-opacity:1" transform="translate(95.797 -121.342)"><path d="m189.057 119.405-22.437-6.278v39.903c.56 2.704 10.112 2.671 12.241 2.863h20.392c2.13-.192 11.682-.16 12.242-2.863v-39.903z" style="fill:url(#L);fill-opacity:1;stroke:#121612;stroke-width:4.64252;stroke-linecap:round;stroke-linejoin:round;stroke-miterlimit:2;stroke-dasharray:none;stroke-opacity:1" transform="translate(11.774 -1.247)"/><path d="m189.057 120.198-18.316.212v30.31c.56 2.703 10.112 2.67 12.242 2.863h12.149c2.13-.192 11.681-.16 12.241-2.863v-30.31z" style="mix-blend-mode:normal;fill:url(#M);fill-opacity:1;stroke:none;stroke-width:4.64252;stroke-linecap:round;stroke-linejoin:round;stroke-miterlimit:2;stroke-dasharray:none;stroke-opacity:1" transform="matrix(.77944 0 0 .89791 54.085 6.576)"/><path d="m189.057 120.192-22.437.218v23.027c.56 2.704 10.112 2.672 12.241 2.863 10.879 1.805 4.513 2.604 10.196 2.46 5.684.144-.682-.655 10.196-2.46 2.13-.191 11.682-.16 12.242-2.863V120.41z" style="mix-blend-mode:normal;fill:url(#N);fill-opacity:1;stroke:#121612;stroke-width:4.64252;stroke-linecap:round;stroke-linejoin:round;stroke-miterlimit:2;stroke-dasharray:none;stroke-opacity:1" transform="translate(11.774 -20.268)"/></g></g><g style="mix-blend-mode:normal;fill:url(#O);fill-opacity:1" transform="matrix(1.0197 0 0 1.0197 -3.144 151.57)"><path d="m189.057 119.405-22.437-6.278v30.31c.56 2.704 10.112 2.672 12.241 2.863h20.392c2.13-.191 11.682-.16 12.242-2.863v-30.31z" style="mix-blend-mode:normal;fill:url(#P);fill-opacity:1;stroke:#121612;stroke-width:4.64252;stroke-linecap:round;stroke-linejoin:round;stroke-miterlimit:2;stroke-dasharray:none;stroke-opacity:1" transform="translate(107.57 -112.995)"/><g style="mix-blend-mode:normal;fill:url(#Q);fill-opacity:1" transform="translate(95.797 -121.342)"><path d="m189.057 119.405-22.437-6.278v39.903c.56 2.704 10.112 2.671 12.241 2.863h20.392c2.13-.192 11.682-.16 12.242-2.863v-39.903z" style="fill:url(#R);fill-opacity:1;stroke:#121612;stroke-width:4.64252;stroke-linecap:round;stroke-linejoin:round;stroke-miterlimit:2;stroke-dasharray:none;stroke-opacity:1" transform="translate(11.774 -1.247)"/><path d="m189.057 120.198-18.316.212v30.31c.56 2.703 10.112 2.67 12.242 2.863h12.149c2.13-.192 11.681-.16 12.241-2.863v-30.31z" style="mix-blend-mode:normal;fill:url(#S);fill-opacity:1;stroke:none;stroke-width:4.64252;stroke-linecap:round;stroke-linejoin:round;stroke-miterlimit:2;stroke-dasharray:none;stroke-opacity:1" transform="matrix(.77944 0 0 .89791 54.085 6.576)"/><path d="m189.057 120.192-22.437.218v23.027c.56 2.704 10.112 2.672 12.241 2.863 10.879 1.805 4.513 2.604 10.196 2.46 5.684.144-.682-.655 10.196-2.46 2.13-.191 11.682-.16 12.242-2.863V120.41z" style="mix-blend-mode:normal;fill:url(#T);fill-opacity:1;stroke:#121612;stroke-width:4.64252;stroke-linecap:round;stroke-linejoin:round;stroke-miterlimit:2;stroke-dasharray:none;stroke-opacity:1" transform="translate(11.774 -20.268)"/></g></g><g style="fill:url(#U);fill-opacity:1"><path d="m189.057 119.405-22.437-6.278v30.31c.56 2.704 10.112 2.672 12.241 2.863h20.392c2.13-.191 11.682-.16 12.242-2.863v-30.31z" style="mix-blend-mode:normal;fill:url(#V);fill-opacity:1;stroke:#121612;stroke-width:4.64252;stroke-linecap:round;stroke-linejoin:round;stroke-miterlimit:2;stroke-dasharray:none;stroke-opacity:1" transform="matrix(1.0197 0 0 1.0197 114.333 -28.92)"/></g><g style="mix-blend-mode:normal;fill:url(#W);fill-opacity:1"><path d="m189.057 119.405-22.437-6.278v30.31c.56 2.704 10.112 2.672 12.241 2.863h20.392c2.13-.191 11.682-.16 12.242-2.863v-30.31z" style="mix-blend-mode:normal;fill:url(#X);fill-opacity:1;stroke:#121612;stroke-width:4.64252;stroke-linecap:round;stroke-linejoin:round;stroke-miterlimit:2;stroke-dasharray:none;stroke-opacity:1" transform="matrix(1.0197 0 0 1.0197 -21.513 -25.586)"/></g><g style="mix-blend-mode:normal;fill:url(#Y);fill-opacity:1" transform="matrix(1.0197 0 0 1.0197 -62.55 150.358)"><path d="m189.057 119.405-22.437-6.278v30.31c.56 2.704 10.112 2.672 12.241 2.863h20.392c2.13-.191 11.682-.16 12.242-2.863v-30.31z" style="mix-blend-mode:normal;fill:url(#Z);fill-opacity:1;stroke:#121612;stroke-width:4.64252;stroke-linecap:round;stroke-linejoin:round;stroke-miterlimit:2;stroke-dasharray:none;stroke-opacity:1" transform="translate(107.57 -112.995)"/><g style="mix-blend-mode:normal;fill:url(#aa);fill-opacity:1" transform="translate(95.797 -121.342)"><path d="m189.057 119.405-22.437-6.278v39.903c.56 2.704 10.112 2.671 12.241 2.863h20.392c2.13-.192 11.682-.16 12.242-2.863v-39.903z" style="fill:url(#ab);fill-opacity:1;stroke:#121612;stroke-width:4.64252;stroke-linecap:round;stroke-linejoin:round;stroke-miterlimit:2;stroke-dasharray:none;stroke-opacity:1" transform="translate(11.774 -1.247)"/><path d="m189.057 120.198-18.316.212v30.31c.56 2.703 10.112 2.67 12.242 2.863h12.149c2.13-.192 11.681-.16 12.241-2.863v-30.31z" style="mix-blend-mode:normal;fill:url(#ac);fill-opacity:1;stroke:none;stroke-width:4.64252;stroke-linecap:round;stroke-linejoin:round;stroke-miterlimit:2;stroke-dasharray:none;stroke-opacity:1" transform="matrix(.77944 0 0 .89791 54.085 6.576)"/><path d="m189.057 120.192-22.437.218v23.027c.56 2.704 10.112 2.672 12.241 2.863 10.879 1.805 4.513 2.604 10.196 2.46 5.684.144-.682-.655 10.196-2.46 2.13-.191 11.682-.16 12.242-2.863V120.41z" style="mix-blend-mode:normal;fill:url(#ad);fill-opacity:1;stroke:#121612;stroke-width:4.64252;stroke-linecap:round;stroke-linejoin:round;stroke-miterlimit:2;stroke-dasharray:none;stroke-opacity:1" transform="translate(11.774 -20.268)"/></g></g></g></svg>