<svg xmlns="http://www.w3.org/2000/svg" xml:space="preserve" width="338.747" height="323.443" viewBox="0 0 81.479 77.798"><path d="m183.87 32.002-21.96 1.133h-.008a14.95 14.95 0 0 0-12.207 7.619l-5.973 10.648-.008.014c-1.57 2.872-2.104 6.186-1.689 9.38l.002.018 2.932 20.633c.972 6.286 5.73 11.406 11.96 12.545l17.78 3.506.031.006c3.165.553 6.414.131 9.328-1.264l.014-.006 18.953-9.3.025-.012c5.414-2.79 8.792-8.576 8.23-14.776l-2.138-23.656v-.002c-.56-6.065-4.766-11.131-10.488-12.955l-.02-.006-9.74-2.96-.039-.01c-1.487-.408-3.225-.703-5.08-.547zm.398 5.896c.847-.07 2.035.087 3.023.358h.002l9.566 2.908.002.002c3.509 1.12 6.058 4.199 6.397 7.865l2.139 23.647c.34 3.758-1.685 7.252-5.051 8.988l-.002.002-18.84 9.244c-1.811.866-3.74 1.122-5.75.772h-.006l-17.744-3.502-.022-.002c-3.675-.672-6.573-3.719-7.177-7.615l-.002-.004-2.918-20.526v-.006c-.26-2.008.109-4.124 1.013-5.777l5.953-10.611v-.002a9.01 9.01 0 0 1 7.381-4.604l21.989-1.133z" style="color:#000;fill:none;stroke:#045d94;stroke-width:12.0265;stroke-miterlimit:10;stroke-dasharray:none;stroke-opacity:1" transform="translate(-135.876 -25.953)"/><path d="m147.883 81.013-2.928-20.597c-.337-2.603.113-5.319 1.351-7.582l5.967-10.638a11.98 11.98 0 0 1 9.795-6.111l21.953-1.132c1.351-.113 2.815.113 4.053.453l9.682 2.942c4.616 1.472 7.994 5.546 8.444 10.412l2.139 23.652c.45 4.98-2.252 9.62-6.642 11.883l-18.914 9.28c-2.364 1.132-4.954 1.471-7.543 1.018l-17.788-3.508c-4.954-.905-8.781-4.98-9.57-10.072z" style="color:#000;fill:#585a66;stroke:#33334b;stroke-width:4.5;stroke-miterlimit:10;-inkscape-stroke:none" transform="translate(-135.876 -25.953)"/><path d="m166.346 92.783 11.146 2.15c1.125.226 2.251.113 3.264-.453l19.815-9.732c5.179-2.49 8.218-7.922 7.768-13.58l-.338-3.848c-.45-5.772-8.556-6.677-10.245-1.132a6.2 6.2 0 0 1-1.125 2.037l-7.318 8.148c-.788.905-2.027 1.585-3.265 1.698L173.1 79.768l-1.351.34-6.53 2.603c-4.616 2.037-3.94 9.166 1.126 10.072" style="fill:#3f414a;fill-opacity:1;stroke-width:1.12875" transform="translate(-135.876 -25.953)"/><path d="m171.525 35.745-11.596.566c-2.815.113-5.292 1.698-6.643 4.074l-8.33 14.826c-.45.792-.564 1.584-.45 2.49l1.575 11.203c.563 4.187 6.643 4.527 7.656.34l.563-2.377c.563-2.603 1.688-5.093 3.265-7.356l5.854-8.375c1.463-2.037 3.265-3.847 5.404-5.205l4.953-3.17c3.378-2.15 1.69-7.242-2.251-7.016" style="clip-rule:evenodd;fill:#707381;fill-opacity:1;fill-rule:evenodd;stroke-width:1.12875" transform="translate(-135.876 -25.953)"/><path d="m183.87 32.002-21.96 1.133h-.008a14.95 14.95 0 0 0-12.207 7.619l-5.973 10.648-.008.014c-1.57 2.872-2.104 6.186-1.689 9.38l.002.018 2.932 20.633c.972 6.286 5.73 11.406 11.96 12.545l17.78 3.506.031.006c3.165.553 6.414.131 9.328-1.264l.014-.006 18.953-9.3.025-.012c5.414-2.79 8.792-8.576 8.23-14.776l-2.138-23.656v-.002c-.56-6.065-4.766-11.131-10.488-12.955l-.02-.006-9.74-2.96-.039-.01c-1.487-.408-3.225-.703-5.08-.547zm.398 5.896c.847-.07 2.035.087 3.023.358h.002l9.566 2.908.002.002c3.509 1.12 6.058 4.199 6.397 7.865l2.139 23.647c.34 3.758-1.685 7.252-5.051 8.988l-.002.002-18.84 9.244c-1.811.866-3.74 1.122-5.75.772h-.006l-17.744-3.502-.022-.002c-3.675-.672-6.573-3.719-7.177-7.615l-.002-.004-2.918-20.526v-.006c-.26-2.008.109-4.124 1.013-5.777l5.953-10.611v-.002a9.01 9.01 0 0 1 7.381-4.604l21.989-1.133z" style="color:#000;fill:#33334b;stroke:none;stroke-width:4.5;stroke-miterlimit:10;-inkscape-stroke:none" transform="translate(-135.876 -25.953)"/></svg>