<svg xmlns="http://www.w3.org/2000/svg" width="224.252" height="321.276" viewBox="0 0 59.333 85.004"><g transform="translate(-71.162 -91.91)"><path d="M130.643 96.254c0-2.366-1.978-4.344-4.344-4.344H75.506c-2.367 0-4.344 1.978-4.344 4.344v76.16c0 2.366 1.977 4.344 4.344 4.344h50.793c2.366 0 4.344-1.978 4.344-4.344zm-4.647.303v75.556h-50.19V96.557Z" style="color:#000;fill:#341610;-inkscape-stroke:none;paint-order:markers stroke fill"/><path d="M128.32 96.255v76.16c0 1.12-.902 2.02-2.022 2.02H75.506a2.017 2.017 0 0 1-2.022-2.02v-76.16c0-1.12.902-2.022 2.022-2.022h50.792c1.12 0 2.021.902 2.021 2.022" style="color:#000;fill:#ececec;-inkscape-stroke:none;paint-order:markers stroke fill"/><rect width="58.885" height="55.761" x="115.651" y="72.948" rx="1.859" ry="0" style="display:inline;fill:#813627;fill-opacity:1;stroke-width:.357114;paint-order:markers stroke fill" transform="matrix(0 1 1 0 0 0)"/><rect width="21.729" height="15.198" x="-98.557" y="97.334" rx="0" ry="2.409" style="display:inline;fill:#e6e6e6;stroke:#ccc;stroke-width:2.91042;stroke-linejoin:round;stroke-dasharray:none;stroke-opacity:1" transform="scale(-1 1)"/><rect width="21.729" height="15.198" x="-125.123" y="97.334" rx="0" ry="2.409" style="display:inline;fill:#e6e6e6;stroke:#ccc;stroke-width:2.91042;stroke-linejoin:round;stroke-dasharray:none;stroke-opacity:1" transform="scale(-1 1)"/><path d="M75.506 91.91c-2.367 0-4.344 1.977-4.344 4.344v76.16c0 2.366 1.977 4.344 4.344 4.344h50.793c2.366 0 4.344-1.978 4.344-4.344v-76.16c0-2.367-1.978-4.344-4.344-4.344zm0 2.324h50.792c1.12 0 2.021.9 2.021 2.02v76.16c0 1.12-.901 2.022-2.02 2.022H75.505a2.017 2.017 0 0 1-2.022-2.022v-76.16c0-1.12.902-2.02 2.022-2.02" style="color:#000;fill:#341610;-inkscape-stroke:none;paint-order:markers stroke fill"/></g><path d="M36.792 75.758c4.37-4.712 4.171-20.6 9.58-22.385 6.74-2.223 1.21-11.2.053-16.332-1.698-7.519-10.987-13.833-18.756-10.347-8.677 4.014 4.968 17.126-12.66 22.514-4.47 4.777-12.367 8.062-9.345 16.665 1.996 5.682 9.281 14.597 14.29 14.546" style="fill:#4f1212;fill-opacity:.81960785;stroke:none;stroke-width:2.15691;stroke-linecap:square;stroke-linejoin:round;stroke-dasharray:none;stroke-opacity:1;paint-order:fill markers stroke;stop-color:#000"/><path d="M13.226 25.643c1.88 1.253 3.777 2.793 4.532 4.88.546 1.506-.88 2.878-2.45 3.033-2.431.24-4.277 2.331-6.781 2.15-1.393-.099-1.64-1.771-1.843-2.847-.225-1.179.362-2.024 1.183-2.883 1.034-1.084 2.162-2.026 3.502-2.729.74-.386 1.266-1.042 1.857-1.604" style="fill:#4f1212;fill-opacity:.82;stroke:none;stroke-width:3.5424;stroke-linecap:square;stroke-linejoin:round;stroke-dasharray:none;stroke-opacity:1;paint-order:fill markers stroke;stop-color:#000"/></svg>