<?xml version="1.0" encoding="UTF-8" standalone="no"?>
<!-- Created with Inkscape (http://www.inkscape.org/) -->

<svg
   width="176.73264"
   height="176.37788"
   viewBox="0 0 46.760508 46.666648"
   version="1.1"
   id="svg1"
   inkscape:version="1.4 (86a8ad7, 2024-10-11)"
   sodipodi:docname="pumpkin_airdrop.svg"
   xmlns:inkscape="http://www.inkscape.org/namespaces/inkscape"
   xmlns:sodipodi="http://sodipodi.sourceforge.net/DTD/sodipodi-0.dtd"
   xmlns="http://www.w3.org/2000/svg"
   xmlns:svg="http://www.w3.org/2000/svg">
  <sodipodi:namedview
     id="namedview1"
     pagecolor="#ffffff"
     bordercolor="#000000"
     borderopacity="0.25"
     inkscape:showpageshadow="2"
     inkscape:pageopacity="0.0"
     inkscape:pagecheckerboard="0"
     inkscape:deskcolor="#d1d1d1"
     inkscape:document-units="mm"
     inkscape:zoom="0.97386896"
     inkscape:cx="305.48258"
     inkscape:cy="313.69723"
     inkscape:window-width="1920"
     inkscape:window-height="991"
     inkscape:window-x="-9"
     inkscape:window-y="-9"
     inkscape:window-maximized="1"
     inkscape:current-layer="layer1" />
  <defs
     id="defs1" />
  <g
     inkscape:label="Στρώση 1"
     inkscape:groupmode="layer"
     id="layer1"
     transform="translate(-140.22916,-190.23542)">
    <g
       id="g30"
       transform="translate(37.030404,181.98574)">
      <g
         id="g57801"
         inkscape:label="pumpkin"
         transform="matrix(1.1260758,0.61107079,-0.60976104,1.1236622,100.56596,-201.56428)"
         inkscape:export-filename="topdownpumpkinnorock.png"
         inkscape:export-xdpi="96"
         inkscape:export-ydpi="96"
         style="stroke-width:1.36676;stroke-dasharray:none">
        <path
           style="fill:#b84b14;fill-opacity:1;stroke:#641100;stroke-width:1.53294;stroke-linejoin:round;stroke-dasharray:none;stroke-opacity:1"
           d="m 104.64852,150.56969 c -3.01123,5.21295 -5.916468,10.92929 -7.114548,14.78963 4.096898,4.13751 10.870008,3.93033 12.763058,0.56054 -1.44073,-6.08781 -4.0568,-12.15622 -5.64851,-15.35017 z"
           id="path57781"
           sodipodi:nodetypes="cccc" />
        <path
           style="fill:#b84b14;fill-opacity:1;stroke:#641100;stroke-width:1.53294;stroke-linejoin:round;stroke-dasharray:none;stroke-opacity:1"
           d="m 104.63463,150.59411 c -5.815374,1.55685 -11.830746,3.68225 -15.407589,5.56475 -0.02872,5.82261 4.826089,10.32777 8.547479,9.28355 3.28598,-5.32348 5.72716,-11.46434 6.86011,-14.8483 z"
           id="path57783"
           sodipodi:nodetypes="cccc" />
        <path
           style="fill:#b84b14;fill-opacity:1;stroke:#641100;stroke-width:1.53294;stroke-linejoin:round;stroke-dasharray:none;stroke-opacity:1"
           d="m 104.51115,150.49585 c -5.212948,-3.01123 -10.886168,-5.87335 -14.746507,-7.07143 -4.137515,4.0969 -3.973449,10.82689 -0.603654,12.71993 6.087808,-1.44073 12.156221,-4.0568 15.350161,-5.6485 z"
           id="path57785"
           sodipodi:nodetypes="cccc" />
        <path
           style="fill:#b84b14;fill-opacity:1;stroke:#641100;stroke-width:1.53294;stroke-linejoin:round;stroke-dasharray:none;stroke-opacity:1"
           d="m 104.65824,150.53162 c -1.55684,-5.81537 -3.55288,-11.83075 -5.435386,-15.40759 -5.82261,-0.0287 -10.457127,4.82609 -9.412904,8.54748 5.323481,3.28598 11.46433,5.72715 14.84829,6.86011 z"
           id="path57787"
           sodipodi:nodetypes="cccc" />
        <path
           style="fill:#b84b14;fill-opacity:1;stroke:#641100;stroke-width:1.53294;stroke-linejoin:round;stroke-dasharray:none;stroke-opacity:1"
           d="m 104.54091,150.5375 c 3.01124,-5.21294 5.9596,-11.10176 7.15768,-14.9621 -4.09692,-4.1375 -10.91313,-3.75786 -12.806174,-0.38806 1.440734,6.08781 4.056804,12.15621 5.648494,15.35016 z"
           id="path57789"
           sodipodi:nodetypes="cccc" />
        <path
           style="fill:#b84b14;fill-opacity:1;stroke:#641100;stroke-width:1.53294;stroke-linejoin:round;stroke-dasharray:none;stroke-opacity:1"
           d="m 104.54827,150.38277 c 5.81537,-1.55684 11.91698,-3.50977 15.49382,-5.39227 0.0287,-5.82262 -4.91232,-10.50025 -8.63371,-9.45602 -3.28598,5.32348 -5.72714,11.46433 -6.86011,14.84829 z"
           id="path57791"
           sodipodi:nodetypes="cccc" />
        <path
           style="fill:#b84b14;fill-opacity:1;stroke:#641100;stroke-width:1.53294;stroke-linejoin:round;stroke-dasharray:none;stroke-opacity:1"
           d="m 104.67175,150.43791 c 5.21294,3.01124 10.79993,5.83025 14.66027,7.02833 4.13751,-4.09692 4.05969,-10.78379 0.68989,-12.67682 -6.08781,1.44073 -12.15621,4.0568 -15.35016,5.64849 z"
           id="path57793"
           sodipodi:nodetypes="cccc" />
        <path
           style="fill:#b84b14;fill-opacity:1;stroke:#641100;stroke-width:1.53294;stroke-linejoin:round;stroke-dasharray:none;stroke-opacity:1"
           d="m 104.6109,150.40215 c 1.55683,5.81537 3.81158,12.00322 5.69408,15.58006 5.82263,0.0287 10.19844,-4.99856 9.1542,-8.71995 -5.32348,-3.28598 -11.46433,-5.72715 -14.84828,-6.86011 z"
           id="path57795"
           sodipodi:nodetypes="cccc" />
      </g>
      <circle
         style="fill:#b84b14;fill-opacity:1;fill-rule:evenodd;stroke:#530f00;stroke-width:1.96189;stroke-linecap:round;stroke-linejoin:round;stroke-miterlimit:29;stroke-dasharray:none;stroke-opacity:1"
         id="path9-81-1"
         cx="126.57907"
         cy="31.582909"
         r="8.0395241" />
      <g
         id="g21"
         transform="translate(0.25197104,-0.90658155)">
        <path
           d="m 125.37572,34.905199 h 1.88487 c 0.20161,0 0.36391,0.162307 0.36391,0.363911 v 1.901437 c 0,0.201605 -0.1623,0.363911 -0.36391,0.363911 h -1.88487 c -0.20161,0 -0.36392,-0.162306 -0.36392,-0.363911 V 35.26911 c 0,-0.201604 0.16231,-0.363911 0.36392,-0.363911 z"
           stroke-linejoin="round"
           stroke-width="0.765263"
           id="path8-5-7-3-6"
           style="fill:#530f00;fill-opacity:1" />
        <path
           d="m 127.82054,34.519986 2.90585,-3.09174 c -0.0143,-0.61005 -1.97931,-1.071238 -2.64255,-0.123915 l -0.94404,3.048233 -0.3591,-0.003 0.91395,-2.980509 c -0.47515,-0.875664 -2.21115,-0.716414 -2.72932,-0.04879 l 0.95205,3.043959 -0.40879,-0.0042 -0.94327,-3.017072 c -0.52797,-0.795474 -2.18088,-0.777075 -2.73805,-0.0059 l 3.08427,3.213833 -0.38414,0.309792 -3.06058,-3.4341 c 0.0661,-5.156757 9.42556,-5.466888 9.72056,0.02041 l -3.11608,3.308386 z"
           id="path9-52-6-2-1"
           style="fill:#530f00;fill-opacity:1;stroke-width:0.765263" />
      </g>
      <path
         style="fill:#9d4011;fill-opacity:1;fill-rule:evenodd;stroke:none;stroke-width:2.449;stroke-linecap:round;stroke-linejoin:round;stroke-miterlimit:29;stroke-dasharray:none;stroke-opacity:1"
         d="m 120.79077,10.490702 c 0,0 3.02421,2.082064 3.68959,5.136218 0.46263,2.123508 -1.42562,5.456037 -0.64751,7.368895 0,0 1.44153,-0.453141 2.42546,-0.350936 0,0 0.77414,-6.443284 2.08188,-11.419559 0,0 -3.06069,-1.6321341 -7.54942,-0.734618 z"
         id="path21"
         sodipodi:nodetypes="cscccc"
         inkscape:transform-center-x="2.1343918"
         inkscape:transform-center-y="-14.861691" />
      <path
         style="fill:#9d4011;fill-opacity:1;fill-rule:evenodd;stroke:none;stroke-width:2.449;stroke-linecap:round;stroke-linejoin:round;stroke-miterlimit:29;stroke-dasharray:none;stroke-opacity:1"
         d="m 121.6349,39.090605 c 0,0 -7.75792,8.008741 -3.90097,12.480572 0,0 -4.82317,-1.731018 -6.86344,-6.985419 0,0 6.41257,-4.070852 9.48695,-6.502411 0,0 0.67895,0.655499 1.27746,1.007258 z"
         id="path22"
         sodipodi:nodetypes="ccccc" />
      <path
         style="fill:#9d4011;fill-opacity:1;fill-rule:evenodd;stroke:none;stroke-width:2.449;stroke-linecap:round;stroke-linejoin:round;stroke-miterlimit:29;stroke-dasharray:none;stroke-opacity:1"
         d="m 135.77316,44.530852 c 0,0 -1.01775,-0.567165 -2.16365,0.243355 -1.14591,0.810519 -1.22976,1.732835 -1.76079,2.571302 -0.53103,0.838468 -1.70488,0.223592 -2.09617,1.621039 -0.39128,1.397447 -0.13974,2.515404 0.27949,2.878741 0.41923,0.363336 0.39468,1.143098 0.39468,1.143098 0,0 5.97769,-0.33258 7.73847,-4.664664 0,0 -1.30202,-2.367476 -2.39203,-3.792871 z"
         id="path24"
         sodipodi:nodetypes="cssssccc" />
      <path
         style="fill:#9d4011;fill-opacity:1;fill-rule:evenodd;stroke:none;stroke-width:2.449;stroke-linecap:round;stroke-linejoin:round;stroke-miterlimit:29;stroke-dasharray:none;stroke-opacity:1"
         d="m 145.37976,28.527753 c -0.44318,0.126776 -2.20736,0.983963 -2.52877,0.42726 -0.32142,-0.556702 -0.41577,-1.502682 -0.16176,-2.06888 0.25402,-0.5662 1.29481,-1.167105 0.79173,-2.038467 -0.50308,-0.87136 -1.56587,-2.097297 -0.68227,-2.187899 0.88359,-0.0906 2.02421,-0.07141 2.53378,0.699386 0.50957,0.770799 0.46992,1.98778 0.39182,2.355595 -0.0781,0.367816 0.2805,0.709416 0.41577,1.502682 0.13526,0.793268 -0.7603,1.310323 -0.7603,1.310323 z"
         id="path25" />
      <path
         style="fill:#9d4011;fill-opacity:1;fill-rule:evenodd;stroke:none;stroke-width:2.449;stroke-linecap:round;stroke-linejoin:round;stroke-miterlimit:29;stroke-dasharray:none;stroke-opacity:1"
         d="m 108.97781,31.695141 c 0.44719,0.111797 2.40361,0.251542 2.40361,0.894368 0,0.642824 -0.39128,1.509242 -0.89436,1.872578 -0.50308,0.363337 -1.70489,0.363337 -1.70489,1.3695 0,1.00616 0.30744,2.59925 -0.50308,2.235914 -0.81052,-0.363336 -1.78873,-0.950264 -1.84463,-1.872578 -0.0559,-0.922316 0.58693,-1.956427 0.83847,-2.235917 0.25154,-0.27949 0.11179,-0.754621 0.39128,-1.509242 0.27949,-0.754623 1.3136,-0.754623 1.3136,-0.754623 z"
         id="path25-2" />
      <path
         style="fill:#9d4011;fill-opacity:1;fill-rule:evenodd;stroke:none;stroke-width:2.449;stroke-linecap:round;stroke-linejoin:round;stroke-miterlimit:29;stroke-dasharray:none;stroke-opacity:1"
         d="m 140.80718,26.622256 c -0.11225,-0.984922 -0.35224,-2.033015 -2.17033,-0.755139 -1.81808,1.277872 -2.58032,1.854872 -1.66877,2.880364 0.91155,1.025491 2.41561,1.891457 2.74732,1.51738 0.33171,-0.374075 0.0893,-0.873059 -0.1112,-1.852691 -0.20048,-0.979628 1.49024,-1.134239 1.20298,-1.789914 z"
         id="path26"
         sodipodi:nodetypes="cssssc" />
      <path
         style="fill:#9d4011;fill-opacity:1;fill-rule:evenodd;stroke:none;stroke-width:1.80946;stroke-linecap:round;stroke-linejoin:round;stroke-miterlimit:29;stroke-dasharray:none;stroke-opacity:1"
         d="m 113.65516,35.454618 c -0.14602,0.08761 -0.40885,-0.05841 -0.58408,0.876117 -0.17522,0.934525 -0.37964,2.131883 0.11682,2.307108 0.49646,0.175222 0.87612,0.321241 1.78144,-0.116817 0.90532,-0.438057 1.37258,-0.438057 1.13895,-1.226563 -0.23363,-0.788503 0.0292,-1.314174 -0.70089,-1.547805 -0.7301,-0.233631 -0.81771,-0.23363 -1.05134,-0.23363 -0.23363,0 -0.7009,-0.05841 -0.7009,-0.05841 z"
         id="path27"
         sodipodi:nodetypes="cssssssc" />
      <path
         style="fill:#9d4011;fill-opacity:1;fill-rule:evenodd;stroke:none;stroke-width:2.449;stroke-linecap:round;stroke-linejoin:round;stroke-miterlimit:29;stroke-dasharray:none;stroke-opacity:1"
         d="m 130.32973,11.424336 c 0,0 3.29575,-2.1415417 8.74678,2.134675 0,0 2.33076,1.871615 3.30417,4.754329 0,0 -1.91177,1.014588 -3.45327,2.042259 0,0 -1.59648,-0.127345 -2.09956,-0.183243 -0.50308,-0.0559 -1.59309,0.195643 -2.48745,-0.614877 -0.89437,-0.810519 -0.97822,-1.397447 -1.73284,-1.509243 -0.75462,-0.111795 -1.50924,0.223592 -1.92848,0.167694 -0.41923,-0.0559 -1.09001,-0.419234 -1.2018,-0.642826 -0.1118,-0.223591 -0.22937,-1.397447 -0.22937,-1.397447 0.41502,-2.252969 1.08182,-4.751321 1.08182,-4.751321 z"
         id="path28"
         sodipodi:nodetypes="ccccssssscc" />
      <path
         style="fill:#9d4011;fill-opacity:1;fill-rule:evenodd;stroke:none;stroke-width:2.449;stroke-linecap:round;stroke-linejoin:round;stroke-miterlimit:29;stroke-dasharray:none;stroke-opacity:1"
         d="m 109.03185,28.181876 c 0,0 4.03163,0.988145 4.90119,0.988145 0,0 0.9091,-0.790515 0.0395,-1.581031 -0.86957,-0.790515 -1.26482,-0.474309 -1.14625,-1.699608 0.11858,-1.225299 -0.19763,-2.292495 -0.75099,-2.094866 -0.55336,0.197629 -1.2253,0.237155 -1.3834,1.067196 -0.1581,0.830041 0.19763,1.77866 -0.23715,2.134392 -0.43479,0.355732 -1.30435,0.474309 -1.38341,0.671938 -0.0791,0.197629 -0.0395,0.513834 -0.0395,0.513834 z"
         id="path29" />
      <path
         style="fill:#9d4011;fill-opacity:1;fill-rule:evenodd;stroke:none;stroke-width:2.449;stroke-linecap:round;stroke-linejoin:round;stroke-miterlimit:29;stroke-dasharray:none;stroke-opacity:1"
         d="m 115.96863,19.634428 c 0,0 -0.41503,0.68182 -0.17788,1.274707 0.23716,0.592886 0.27668,1.185773 0.079,1.936763 -0.19762,0.750989 -0.63241,1.067195 -0.079,1.699608 0.55336,0.632412 0.83004,0.671938 1.34388,0.553361 0.51384,-0.118577 0.98814,-0.395258 1.5415,0.03953 0.55337,0.434783 0.97827,0.612649 0.97827,0.612649 l 0.43308,-0.448758 c -1.84783,-2.371546 -4.11885,-5.66786 -4.11885,-5.66786 z"
         id="path30"
         sodipodi:nodetypes="csccssccc" />
    </g>
  </g>
</svg>
