<svg xmlns="http://www.w3.org/2000/svg" width="236.926" height="217.725" viewBox="0 0 62.687 57.606"><path d="m14.95 9.102-2.614 2.17-.846 3.288-3.382-.314-2.924 1.728-2.17-2.613-3.288-.847.314-3.381-1.728-2.924 2.613-2.17L1.772.75l3.381.314L8.077-.663l2.17 2.613 3.289.846-.314 3.382z" style="fill:#6d4a2c;fill-opacity:1;stroke:#312114;stroke-width:.79375;stroke-linejoin:round;stroke-dasharray:none;stroke-opacity:1" transform="matrix(1.6576 0 0 1.6576 19.89 16.114)"/><path fill="none" d="m14.95 9.102-2.614 2.17-.846 3.288-3.382-.314-2.924 1.728-2.17-2.613-3.288-.847.314-3.381-1.728-2.924 2.613-2.17L1.772.75l3.381.314L8.077-.663l2.17 2.613 3.289.846-.314 3.382z" style="fill:#5f4316;fill-opacity:0;fill-rule:nonzero;stroke:#312114;stroke-width:.30749;stroke-linejoin:miter;stroke-dasharray:none;stroke-opacity:1" transform="matrix(1.4263 0 0 1.4263 21.423 17.884)"/><path fill="none" d="m14.95 9.102-2.614 2.17-.846 3.288-3.382-.314-2.924 1.728-2.17-2.613-3.288-.847.314-3.381-1.728-2.924 2.613-2.17L1.772.75l3.381.314L8.077-.663l2.17 2.613 3.289.846-.314 3.382z" style="fill:#5f4316;fill-opacity:0;fill-rule:nonzero;stroke:#312114;stroke-width:.30749;stroke-linejoin:miter;stroke-dasharray:none;stroke-opacity:1" transform="matrix(1.28074 0 0 1.28074 22.389 18.999)"/><path fill="none" d="m14.95 9.102-2.614 2.17-.846 3.288-3.382-.314-2.924 1.728-2.17-2.613-3.288-.847.314-3.381-1.728-2.924 2.613-2.17L1.772.75l3.381.314L8.077-.663l2.17 2.613 3.289.846-.314 3.382z" style="fill:#5f4316;fill-opacity:0;fill-rule:nonzero;stroke:#312114;stroke-width:.30749;stroke-linejoin:miter;stroke-dasharray:none;stroke-opacity:1" transform="matrix(1.143 0 0 1.143 23.302 20.053)"/><path fill="none" d="m14.95 9.102-2.614 2.17-.846 3.288-3.382-.314-2.924 1.728-2.17-2.613-3.288-.847.314-3.381-1.728-2.924 2.613-2.17L1.772.75l3.381.314L8.077-.663l2.17 2.613 3.289.846-.314 3.382z" style="fill:#5f4316;fill-opacity:0;fill-rule:nonzero;stroke:#312114;stroke-width:.30749;stroke-linejoin:miter;stroke-dasharray:none;stroke-opacity:1" transform="matrix(1.00487 0 0 1.00487 24.218 21.11)"/><path fill="none" d="m14.95 9.102-2.614 2.17-.846 3.288-3.382-.314-2.924 1.728-2.17-2.613-3.288-.847.314-3.381-1.728-2.924 2.613-2.17L1.772.75l3.381.314L8.077-.663l2.17 2.613 3.289.846-.314 3.382z" style="fill:#5f4316;fill-opacity:0;fill-rule:nonzero;stroke:#312114;stroke-width:.30749;stroke-linejoin:miter;stroke-dasharray:none;stroke-opacity:1" transform="translate(25.256 22.309)scale(.84836)"/><path fill="none" d="m14.95 9.102-2.614 2.17-.846 3.288-3.382-.314-2.924 1.728-2.17-2.613-3.288-.847.314-3.381-1.728-2.924 2.613-2.17L1.772.75l3.381.314L8.077-.663l2.17 2.613 3.289.846-.314 3.382z" style="fill:#5f4316;fill-opacity:0;fill-rule:nonzero;stroke:#312114;stroke-width:.30749;stroke-linejoin:miter;stroke-dasharray:none;stroke-opacity:1" transform="matrix(.68315 0 0 .68315 26.351 23.573)"/><path fill="none" d="m14.95 9.102-2.614 2.17-.846 3.288-3.382-.314-2.924 1.728-2.17-2.613-3.288-.847.314-3.381-1.728-2.924 2.613-2.17L1.772.75l3.381.314L8.077-.663l2.17 2.613 3.289.846-.314 3.382z" style="fill:#5f4316;fill-opacity:0;fill-rule:nonzero;stroke:#312114;stroke-width:.30749;stroke-linejoin:miter;stroke-dasharray:none;stroke-opacity:1" transform="matrix(.56048 0 0 .56048 27.164 24.512)"/><path fill="none" d="m14.95 9.102-2.614 2.17-.846 3.288-3.382-.314-2.924 1.728-2.17-2.613-3.288-.847.314-3.381-1.728-2.924 2.613-2.17L1.772.75l3.381.314L8.077-.663l2.17 2.613 3.289.846-.314 3.382z" style="fill:#5f4316;fill-opacity:0;fill-rule:nonzero;stroke:#312114;stroke-width:.30749;stroke-linejoin:miter;stroke-dasharray:none;stroke-opacity:1" transform="matrix(.44855 0 0 .44855 27.907 25.37)"/><path fill="none" d="m14.95 9.102-2.614 2.17-.846 3.288-3.382-.314-2.924 1.728-2.17-2.613-3.288-.847.314-3.381-1.728-2.924 2.613-2.17L1.772.75l3.381.314L8.077-.663l2.17 2.613 3.289.846-.314 3.382z" style="fill:#5f4316;fill-opacity:0;fill-rule:nonzero;stroke:#312114;stroke-width:.30749;stroke-linejoin:miter;stroke-dasharray:none;stroke-opacity:1" transform="translate(28.645 26.222)scale(.33713)"/><path d="m14.95 9.102-2.614 2.17-.846 3.288-3.382-.314-2.924 1.728-2.17-2.613-3.288-.847.314-3.381-1.728-2.924 2.613-2.17L1.772.75l3.381.314L8.077-.663l2.17 2.613 3.289.846-.314 3.382z" style="fill:#312114;fill-opacity:1;fill-rule:nonzero;stroke:#4b2e00;stroke-width:0;stroke-linejoin:miter;stroke-dasharray:none;stroke-opacity:1" transform="matrix(.23694 0 0 .23694 29.31 26.99)"/><g style="fill:none"><path fill="#6d4a2c" stroke="#1b1917" stroke-linejoin="round" stroke-miterlimit="16" stroke-width="6.16" d="M27.733 63.425 24.253 33.9 45.48 3.08l-4.705 43.227 11.78 48.774-9.767 21.826Z" style="stroke:#312114;stroke-opacity:1" transform="rotate(45.001 6.76 16.108)scale(.23239)"/><path fill="#5f926a" d="M72.864 65.399c-5.334-7.781-22.519-19.061-26.313-7.048-2.72 12.3 17.801 11.125 26.312 7.054l.004.001z" style="fill:#588a42;fill-opacity:.898039;stroke-width:1.20417" transform="rotate(45.001 6.76 16.108)scale(.23239)"/><path fill="#587e60" d="m64.265 27.66-.004.008C52.662 31.733 32.677 49.506 46.55 58.351c14.596 7.591 19.995-18.602 17.717-30.679l.004-.008-.004.002z" style="fill:#609648;fill-opacity:.898039;stroke-width:1.20417" transform="rotate(45.001 6.76 16.108)scale(.23239)"/><path fill="#5f926a" d="M17.293 47.3c7.658-5.25 18.759-22.162 6.936-25.896-12.105-2.677-10.949 17.52-6.942 25.895l-.001.004z" style="fill:#588a42;fill-opacity:.898039;stroke-width:1.1851" transform="rotate(45.001 6.76 16.108)scale(.23239)"/><path fill="#587e60" d="m0 6.732.008.005c4 11.415 21.492 31.083 30.197 17.43C37.675 9.803 11.897 4.49.012 6.731l-.008-.005.002.005z" style="fill:#609648;fill-opacity:.898039;stroke-width:1.1851" transform="rotate(45.001 6.76 16.108)scale(.23239)"/><path fill="#77a37a" d="m40.891 37.243.001.005c-3.485 6.883-4.658 23.404 5.657 21.103 10.085-3.165.808-16.886-5.652-21.106l-.001-.003q0-.002 0 0c-.001-.002-.004.002-.005 0" style="fill:#588a42;fill-opacity:.898039;stroke-width:1.20417" transform="rotate(45.001 6.76 16.108)scale(.23239)"/></g><g style="fill:none"><path fill="#6d4a2c" stroke="#1b1917" stroke-linejoin="round" stroke-miterlimit="16" stroke-width="6.16" d="M27.733 63.425 24.253 33.9 45.48 3.08l-4.705 43.227 11.78 48.774-9.767 21.826Z" style="stroke:#312114;stroke-opacity:1" transform="matrix(.1255 -.1255 .1255 .1255 4.267 44.192)"/><path fill="#5f926a" d="M72.864 65.399c-5.334-7.781-22.519-19.061-26.313-7.048-2.72 12.3 17.801 11.125 26.312 7.054l.004.001z" style="fill:#588a42;fill-opacity:.898039;stroke-width:1.20417" transform="matrix(.1255 -.1255 .1255 .1255 4.267 44.192)"/><path fill="#587e60" d="m64.265 27.66-.004.008C52.662 31.733 32.677 49.506 46.55 58.351c14.596 7.591 19.995-18.602 17.717-30.679l.004-.008-.004.002z" style="fill:#609648;fill-opacity:.898039;stroke-width:1.20417" transform="matrix(.1255 -.1255 .1255 .1255 4.267 44.192)"/><path fill="#5f926a" d="M17.293 47.3c7.658-5.25 18.759-22.162 6.936-25.896-12.105-2.677-10.949 17.52-6.942 25.895l-.001.004z" style="fill:#588a42;fill-opacity:.898039;stroke-width:1.1851" transform="matrix(.1255 -.1255 .1255 .1255 4.267 44.192)"/><path fill="#587e60" d="m0 6.732.008.005c4 11.415 21.492 31.083 30.197 17.43C37.675 9.803 11.897 4.49.012 6.731l-.008-.005.002.005z" style="fill:#609648;fill-opacity:.898039;stroke-width:1.1851" transform="matrix(.1255 -.1255 .1255 .1255 4.267 44.192)"/><path fill="#77a37a" d="m40.891 37.243.001.005c-3.485 6.883-4.658 23.404 5.657 21.103 10.085-3.165.808-16.886-5.652-21.106l-.001-.003q0-.002 0 0c-.001-.002-.004.002-.005 0" style="fill:#588a42;fill-opacity:.898039;stroke-width:1.20417" transform="matrix(.1255 -.1255 .1255 .1255 4.267 44.192)"/></g><g style="fill:none"><path fill="#6d4a2c" stroke="#1b1917" stroke-linejoin="round" stroke-miterlimit="16" stroke-width="6.16" d="M27.733 63.425 24.253 33.9 45.48 3.08l-4.705 43.227 11.78 48.774-9.767 21.826Z" style="stroke:#312114;stroke-opacity:1" transform="matrix(-.2027 -.05431 .05431 -.2027 59.53 28.232)"/><path fill="#5f926a" d="M72.864 65.399c-5.334-7.781-22.519-19.061-26.313-7.048-2.72 12.3 17.801 11.125 26.312 7.054l.004.001z" style="fill:#588a42;fill-opacity:.898039;stroke-width:1.20417" transform="matrix(-.2027 -.05431 .05431 -.2027 59.53 28.232)"/><path fill="#587e60" d="m64.265 27.66-.004.008C52.662 31.733 32.677 49.506 46.55 58.351c14.596 7.591 19.995-18.602 17.717-30.679l.004-.008-.004.002z" style="fill:#609648;fill-opacity:.898039;stroke-width:1.20417" transform="matrix(-.2027 -.05431 .05431 -.2027 59.53 28.232)"/><path fill="#5f926a" d="M17.293 47.3c7.658-5.25 18.759-22.162 6.936-25.896-12.105-2.677-10.949 17.52-6.942 25.895l-.001.004z" style="fill:#588a42;fill-opacity:.898039;stroke-width:1.1851" transform="matrix(-.2027 -.05431 .05431 -.2027 59.53 28.232)"/><path fill="#587e60" d="m0 6.732.008.005c4 11.415 21.492 31.083 30.197 17.43C37.675 9.803 11.897 4.49.012 6.731l-.008-.005.002.005z" style="fill:#609648;fill-opacity:.898039;stroke-width:1.1851" transform="matrix(-.2027 -.05431 .05431 -.2027 59.53 28.232)"/><path fill="#77a37a" d="m40.891 37.243.001.005c-3.485 6.883-4.658 23.404 5.657 21.103 10.085-3.165.808-16.886-5.652-21.106l-.001-.003q0-.002 0 0c-.001-.002-.004.002-.005 0" style="fill:#588a42;fill-opacity:.898039;stroke-width:1.20417" transform="matrix(-.2027 -.05431 .05431 -.2027 59.53 28.232)"/></g></svg>