<svg xmlns="http://www.w3.org/2000/svg" xmlns:xlink="http://www.w3.org/1999/xlink" width="928.848" height="943.473" viewBox="0 0 245.758 249.627"><defs><pattern xlink:href="#a" id="c" x="0" y="0" patternTransform="matrix(.29328 0 0 .294 -3301.306 -1457.486)" preserveAspectRatio="xMidYMid"/><pattern id="a" width="338.127" height="182.912" patternTransform="translate(245 644)" patternUnits="userSpaceOnUse" preserveAspectRatio="xMidYMid"><path d="M0 0v182.912h338.127V0Z" style="fill:#543d2b;fill-opacity:1;stroke-width:5.1292;paint-order:markers stroke fill"/><rect width="39.616" height="163.381" x="-136.367" y="-291.733" rx="3.602" ry="3.602" style="fill:#644c33;fill-opacity:1;stroke-width:1.54049;paint-order:markers stroke fill" transform="rotate(90)scale(-1 1)"/><rect width="39.616" height="163.381" x="-90.502" y="-216.462" rx="3.602" ry="3.602" style="fill:#694c30;fill-opacity:1;stroke-width:1.54049;paint-order:markers stroke fill" transform="rotate(90)scale(-1 1)"/><rect width="39.616" height="163.381" x="-45.341" y="-246.04" rx="3.602" ry="3.602" style="fill:#644c33;fill-opacity:1;stroke-width:1.54049;paint-order:markers stroke fill" transform="rotate(90)scale(-1 1)"/><rect width="39.616" height="163.381" x="-182.912" y="-338.127" rx="3.602" ry="3.602" style="fill:#694c30;fill-opacity:1;stroke-width:1.54049;paint-order:markers stroke fill" transform="rotate(90)scale(-1 1)"/><rect width="39.616" height="163.381" x="-182.912" y="-169.083" rx="3.602" ry="3.602" style="fill:#644c33;fill-opacity:1;stroke-width:1.54049;paint-order:markers stroke fill" transform="rotate(90)scale(-1 1)"/><path d="M0 5.725v39.617h73.05a3.595 3.595 0 0 0 3.602-3.604V9.326a3.593 3.593 0 0 0-3.601-3.601zm255.648.001a3.593 3.593 0 0 0-3.601 3.602V41.74a3.593 3.593 0 0 0 3.601 3.602h82.479V5.726Z" style="fill:#694c30;fill-opacity:1;stroke-width:1.54049;paint-order:markers stroke fill"/><path d="M0 50.828v39.615h43.395a3.593 3.593 0 0 0 3.601-3.601V54.43a3.593 3.593 0 0 0-3.601-3.602zm226.148-.058a3.593 3.593 0 0 0-3.601 3.602v32.412a3.595 3.595 0 0 0 3.601 3.603h111.979V50.77Z" style="fill:#644c33;fill-opacity:1;stroke-width:1.54049;paint-order:markers stroke fill"/><path d="M0 96.727v39.617h118.332a3.595 3.595 0 0 0 3.602-3.604v-32.412a3.593 3.593 0 0 0-3.602-3.602zm301.754.011a3.593 3.593 0 0 0-3.602 3.602v32.412a3.595 3.595 0 0 0 3.602 3.603h36.373V96.738Z" style="fill:#694c30;fill-opacity:1;stroke-width:1.54049;paint-order:markers stroke fill"/></pattern></defs><path d="M84.999-56.235h240.234v244.574H84.999z" style="fill:url(#c);fill-opacity:1;stroke:#543d2b;stroke-width:4.99489;stroke-dasharray:none;stroke-opacity:1" transform="translate(-82.031 58.732)"/><path d="M177.942-53.382H82.031" style="fill:#543d2b;fill-opacity:1;stroke:#2f2116;stroke-width:10.5833;stroke-dasharray:none;stroke-opacity:1" transform="translate(-82.031 58.732)"/><path d="M87.46 45.013c-3.373 10.046-1.915 21.024-3.001 31.646-2.325 22.738 3.328-31.742 6.996 29.511.234 3.898 8.522 1.243 11.223 1.001 5.426-.486 11.201.618 16.224-2.004 3.055-1.595 4.615-5.07 8.191-5.916 4.568-1.08 2.874-5.608 2.643-8.917-1.276-18.24 10.999-16.65 13.94-23.11 1.78-3.91-6.143-4.609-9.273-5.821-6.323-2.45-12.328-5.515-18.106-9.036-4.858-2.961-9.712-5.892-14.395-9.139-3.629-2.515-10.003-11.43-11.607-6.653z" style="fill:#1d391d;fill-opacity:1;stroke:none;stroke-width:1.5;stroke-linecap:square;stroke-linejoin:round;stroke-dasharray:none;stroke-opacity:1;paint-order:fill markers stroke;stop-color:#000" transform="translate(-82.031 58.732)"/><path d="M87.323 14.08v176.815" style="fill:#543d2b;fill-opacity:1;stroke:#2f2116;stroke-width:10.5833;stroke-dasharray:none;stroke-opacity:1" transform="translate(-82.031 58.732)"/><path d="M265.498 187.872c10.046 3.374 21.3.538 31.92 1.625 22.74 2.325-34.33-5.257 26.924-8.925 3.897-.233 3.556-5.217 3.314-7.917-.486-5.427.618-11.202-2.004-16.225-1.595-3.054-5.07-4.614-5.916-8.19-1.08-4.569-5.608-2.875-8.918-2.643-18.238 1.275-16.648-11-23.109-13.941-3.91-1.78-4.609 6.144-5.821 9.273-2.45 6.323-5.515 12.329-9.036 18.106-2.961 4.859-5.892 9.713-9.139 14.396-2.515 3.628-11.43 10.002-6.654 11.607z" style="fill:#1d391d;fill-opacity:1;stroke:none;stroke-width:1.5;stroke-linecap:square;stroke-linejoin:round;stroke-dasharray:none;stroke-opacity:1;paint-order:fill markers stroke;stop-color:#000" transform="translate(-82.031 58.732)"/><path d="M236.738 185.603h91.034M322.48 190.895V99.86M322.48 32.36v-91.034" style="fill:#543d2b;fill-opacity:1;stroke:#2f2116;stroke-width:10.5833;stroke-dasharray:none;stroke-opacity:1" transform="translate(-82.031 58.732)"/><path d="M172.246-111.801h106.66v37.861h-106.66z" style="fill:#61452a;fill-opacity:1;stroke:#34251a;stroke-width:2.64583;stroke-dasharray:none;stroke-opacity:1" transform="rotate(30 -150.611 -123.706)"/><path d="m197.789 109.11-21.686 21.686 5.478-3.89-3.376 4.331 6.191-4.092-4.534 6.175 1.954-.768 4.465-2.497-3.852 7.067 21.685-21.686-5.884 4.395 4.552-5.728-.033-.033-4.878 2.766 3.136-4.507-.019-.017-4.44 2.458.45-1.667-3.41 2.718zM132.752 42.223l21.686 21.685-3.89-5.477 4.331 3.375-4.092-6.19 6.175 4.533-.768-1.954-2.497-4.464 7.067 3.851-21.686-21.685 4.395 5.884-5.728-4.552-.033.033 2.766 4.878-4.507-3.136-.017.019 2.458 4.44-1.667-.45 2.718 3.41z" style="fill:#61452a;fill-opacity:1;stroke:#34251a;stroke-width:2;stroke-linecap:round;stroke-miterlimit:4;stroke-dasharray:none;stroke-opacity:1" transform="translate(-82.031 58.732)"/><path d="M175.785-53.382h-91.48" style="fill:#543d2b;fill-opacity:1;stroke:#523b25;stroke-width:6.08542;stroke-dasharray:none;stroke-opacity:1" transform="translate(-82.031 58.732)"/><path d="M87.323 16.38V188.62M239.115 185.603h86.407" style="fill:#543d2b;fill-opacity:1;stroke:#523b25;stroke-width:6.08541;stroke-dasharray:none;stroke-opacity:1" transform="translate(-82.031 58.732)"/><path d="M322.48 188.646v-86.373M322.48 30.314v-86.926" style="fill:#543d2b;fill-opacity:1;stroke:#523b25;stroke-width:6.08542;stroke-dasharray:none;stroke-opacity:1" transform="translate(-82.031 58.732)"/><g style="fill:#34251a;fill-opacity:1;stroke:#211610;stroke-width:1.57844;stroke-dasharray:none;stroke-opacity:1"><path d="m3845.147 2152.825-7.007 2.576c-.193 1.99-.582 3.937-1.217 5.718l5.096-1.366 1.794 6.694 2.353-.63-1.794-6.694 5.097-1.366c-1.613-1.371-3.063-3.077-4.322-4.932z" style="fill:#34251a;fill-opacity:1;stroke:#211610;stroke-width:1.57844;stroke-dasharray:none;stroke-opacity:1;paint-order:stroke fill markers" transform="matrix(1.26825 0 0 1.2659 -4737.334 -2648.936)"/><path d="M3845.147 2152.825c1.259 1.855 2.709 3.56 4.322 4.932l-5.096 1.366 1.793 6.694-2.353.63-1.794-6.694-5.096 1.365c.635-1.78 1.024-3.728 1.217-5.717zM3837.704 2138.94c-.116 3.004-.096 6.199-1.197 10.541l1.628-.436c.078.845.125 1.708.143 2.577l2.488-.905c.914-.335 1.748-.662 2.532-.966a36 36 0 0 1-.916-1.844l1.628-.436c-3.124-3.21-4.705-5.987-6.306-8.53z" style="fill:#34251a;fill-opacity:1;stroke:#211610;stroke-width:1.57844;stroke-dasharray:none;stroke-opacity:1;paint-order:stroke fill markers" transform="matrix(1.26825 0 0 1.2659 -4737.334 -2648.936)"/><path d="m3851.425 2145.885-3.47 1.263.262.72c-1.19.594-1.552 1.448-3.52 2.165-1.012.368-2.281.892-3.668 1.4l-8.1 2.948c-.617.224-4.33 1.735-5.194 2.603l3.64 1.544s.035-1.465 2.168-2.25l15.642-5.751.47 1.29.33 2.39.256.035s1.114.171 2.182-.217c1.068-.389 1.812-1.236 1.812-1.236l.173-.194-1.27-2.007z" style="fill:#34251a;fill-opacity:1;stroke:#211610;stroke-width:1.57844;stroke-dasharray:none;stroke-opacity:1;paint-order:stroke fill markers" transform="matrix(1.26825 0 0 1.2659 -4737.334 -2648.936)"/></g><path d="m229.017 31.21.338 4.232 5.323 3.412-3.846 3.117 1.861-2.903-3.738-2.437-6.036-.857 4.409-.427.498-4.097-1.623-2.166 6.17.02-4.057.692z" style="display:inline;fill:#4f3822;fill-opacity:1;stroke:none;stroke-width:1.51859;stroke-linecap:round;stroke-linejoin:round;stroke-miterlimit:29;stroke-dasharray:none;stroke-opacity:1" transform="translate(-82.031 58.732)"/><path d="m140.381-17.658 4.736 4.034 9.049-1.98-.755 7.213-1.08-4.935-6.397 1.349-7.142 5.365 4.126-5.01-3.729-4.762-3.925-.56 6.414-6.373-3.487 4.92z" style="display:inline;fill:#42301c;fill-opacity:1;stroke:none;stroke-width:1.51859;stroke-linecap:round;stroke-linejoin:round;stroke-miterlimit:29;stroke-dasharray:none;stroke-opacity:1" transform="translate(-82.031 58.732)"/><path d="m275.747 37.508-9.01 3.92 10.653-.546 4.771 4.587-2.186-5.312 4.161-2.561-5.3-.257z" style="display:inline;fill:#4f3822;fill-opacity:1;stroke:none;stroke-width:2.64583;stroke-linecap:round;stroke-linejoin:round;stroke-miterlimit:29;stroke-dasharray:none;stroke-opacity:1" transform="translate(-82.031 58.732)"/><path d="m244.102 138.104 11.819 4.652-10.237-9.238-.168-8.556-2.858 6.855-6.145-1.464 4.61 5.08z" style="display:inline;fill:#42301c;fill-opacity:1;stroke:none;stroke-width:2.64584;stroke-linecap:round;stroke-linejoin:round;stroke-miterlimit:29;stroke-dasharray:none;stroke-opacity:1" transform="translate(-82.031 58.732)"/><text xml:space="preserve" x="216.766" y="-83.26" style="font-size:25.589px;text-align:start;writing-mode:lr-tb;direction:ltr;text-anchor:start;fill:#34251a;fill-opacity:1;stroke:#34251a;stroke-width:1.32292;stroke-dasharray:none;stroke-opacity:1" transform="rotate(30 -150.611 -123.706)"><tspan x="216.766" y="-83.26" style="stroke:#34251a;stroke-width:1.32292;stroke-dasharray:none;stroke-opacity:1">LMR</tspan></text></svg>