<?xml version="1.0" encoding="UTF-8" standalone="no"?>
<!-- Created with Inkscape (http://www.inkscape.org/) -->

<svg
   width="281.18002"
   height="559.30804"
   viewBox="0 0 74.395546 147.98359"
   version="1.1"
   id="svg49750"
   inkscape:version="1.1.2 (0a00cf5339, 2022-02-04)"
   sodipodi:docname="container_ceiling_open2_damaged.svg"
   xmlns:inkscape="http://www.inkscape.org/namespaces/inkscape"
   xmlns:sodipodi="http://sodipodi.sourceforge.net/DTD/sodipodi-0.dtd"
   xmlns="http://www.w3.org/2000/svg"
   xmlns:svg="http://www.w3.org/2000/svg">
  <sodipodi:namedview
     id="namedview49752"
     pagecolor="#505050"
     bordercolor="#000000"
     borderopacity="0.25"
     inkscape:showpageshadow="2"
     inkscape:pageopacity="0"
     inkscape:pagecheckerboard="true"
     inkscape:deskcolor="#d1d1d1"
     inkscape:document-units="px"
     showgrid="false"
     inkscape:zoom="1.0771772"
     inkscape:cx="60.342904"
     inkscape:cy="330.49344"
     inkscape:window-width="2560"
     inkscape:window-height="1372"
     inkscape:window-x="0"
     inkscape:window-y="0"
     inkscape:window-maximized="1"
     inkscape:current-layer="layer1"
     inkscape:pageshadow="0"
     units="px"
     width="281.18002px"
     height="559.30802px" />
  <defs
     id="defs49747" />
  <g
     inkscape:label="Слой 1"
     inkscape:groupmode="layer"
     id="layer1">
    <g
       id="g942"
       transform="translate(-1.8144232,1.2458549)"
       style="fill:#000000;fill-opacity:0.19914722;stroke:none">
      <path
         style="fill:#000000;fill-opacity:0.19914722;stroke:none;stroke-width:2.20392;stroke-dasharray:none;stroke-opacity:1;paint-order:markers stroke fill;stop-color:#000000"
         d="m 15.835082,68.87122 14.578992,6.79487 16.68902,-3.643642 13.33204,1.378685 -18.12775,-13.88519 -10.74234,4.923846 -4.98756,-2.658889 z"
         id="path940" />
    </g>
    <path
       id="rect1049-9-7-5-1-7-8"
       style="fill:#a1a1a1;fill-opacity:1;stroke-width:8.12629;paint-order:markers stroke fill;stop-color:#000000"
       d="M 0 0 L 0 559.30859 L 42.783203 559.30859 L 56.697266 535.30859 L 224.48242 535.30859 L 238.39648 559.30859 L 281.17969 559.30859 L 281.17969 0 L 238.39648 0 L 224.48242 24 L 56.697266 24 L 42.783203 0 L 0 0 z M 153.04492 229.65039 L 221.55859 282.13086 L 171.16992 276.91992 L 108.09375 290.69141 L 52.992188 265.00977 L 93.591797 238.21094 L 112.44336 248.25977 L 153.04492 229.65039 z "
       transform="scale(0.26458333)" />
    <path
       id="rect1049-9-7-2-9-5-4-02"
       style="fill:#e0e0e0;fill-opacity:1;stroke-width:7.46933;paint-order:markers stroke fill;stop-color:#000000"
       d="M 12.666016 13.873047 L 12.666016 545.43555 L 28.117188 545.43555 L 44.117188 521.43555 L 237.0625 521.43555 L 253.0625 545.43555 L 268.51367 545.43555 L 268.51367 13.873047 L 253.0625 13.873047 L 237.0625 37.873047 L 44.117188 37.873047 L 28.117188 13.873047 L 12.666016 13.873047 z M 153.04492 229.65039 L 221.55859 282.13086 L 171.16992 276.91992 L 108.09375 290.69141 L 52.992188 265.00977 L 93.591797 238.21094 L 112.44336 248.25977 L 153.04492 229.65039 z "
       transform="scale(0.26458333)" />
    <path
       id="rect24996-9-4-4-8"
       style="fill:#ffffff;stroke-width:2.96972;paint-order:markers stroke fill;stop-color:#000000"
       d="M 3.3511837,133.04686 H 71.044335 V 122.30973 H 3.3511837 Z"
       sodipodi:nodetypes="ccccc" />
    <path
       id="rect4123"
       style="fill:#ffffff;stroke-width:2.96972;paint-order:markers stroke fill;stop-color:#000000"
       d="M 3.3511837,111.5726 H 71.044335 V 100.83547 H 3.3511837 Z"
       sodipodi:nodetypes="ccccc" />
    <path
       id="rect4125"
       style="fill:#ffffff;stroke-width:2.96972;paint-order:markers stroke fill;stop-color:#000000"
       d="M 3.3511837,90.098335 H 71.044335 V 79.361206 H 3.3511837 Z"
       sodipodi:nodetypes="ccccc" />
    <path
       id="rect4127"
       style="fill:#ffffff;stroke-width:11.2241;paint-order:markers stroke fill;stop-color:#000000"
       d="M 12.666016 218.78516 L 12.666016 259.36719 L 61.541016 259.36719 L 93.591797 238.21094 L 112.44336 248.25977 L 153.04492 229.65039 L 191.83984 259.36719 L 268.51367 259.36719 L 268.51367 218.78516 L 12.666016 218.78516 z "
       transform="scale(0.26458333)" />
    <path
       id="rect4129"
       style="fill:#ffffff;stroke-width:2.96972;paint-order:markers stroke fill;stop-color:#000000"
       d="M 3.3511837,47.149822 H 71.044335 V 36.412693 H 3.3511837 Z"
       sodipodi:nodetypes="ccccc" />
    <path
       id="rect4131"
       style="fill:#ffffff;stroke-width:2.96972;paint-order:markers stroke fill;stop-color:#000000"
       d="M 3.3511837,25.675562 H 71.044335 V 14.938433 H 3.3511837 Z"
       sodipodi:nodetypes="ccccc" />
    <g
       id="g837"
       transform="translate(-1.8144232,1.2458549)">
      <path
         style="fill:#000000;fill-opacity:0;stroke:#a1a1a1;stroke-width:2.20392;stroke-dasharray:none;stroke-opacity:1;paint-order:markers stroke fill;stop-color:#000000"
         d="m 15.835082,68.87122 14.578992,6.79487 16.68902,-3.643642 13.33204,1.378685 -18.12775,-13.88519 -10.74234,4.923846 -4.98756,-2.658889 z"
         id="path30147-6-5" />
    </g>
  </g>
</svg>
