<?xml version="1.0" encoding="UTF-8" standalone="no"?>
<svg
   height="392.39258mm"
   viewBox="0 0 535.31934 392.39258"
   width="535.31934mm"
   version="1.1"
   id="svg103"
   xmlns="http://www.w3.org/2000/svg"
   xmlns:svg="http://www.w3.org/2000/svg">
  <defs
     id="defs103" />
  <clipPath
     id="a">
    <path
       d="M 0.47283936,167.15104 0.01188558,392.39259 H 187.51104 V 167.15104 Z m 41.02746964,3.14503 c 15.078075,1.2e-4 27.301216,12.30887 27.301176,27.49237 -0.02151,1.29065 -0.133207,2.57816 -0.334346,3.853 0.0298,0.52375 0.04653,1.04829 0.05013,1.57303 -6.9e-5,15.96476 -11.899538,28.90676 -26.578222,28.90676 -13.741048,-0.008 -25.211215,-11.40625 -26.455234,-26.28987 -0.822659,-2.60182 -1.255812,-5.31255 -1.285192,-8.04292 -4e-5,-15.1837 12.223417,-27.49253 27.301692,-27.49237 z m 46.168757,85.54103 h 77.891884 v 28.51712 H 87.669066 Z m -0.16278,42.85682 h 78.380744 v 28.67991 H 87.506286 Z"
       id="path1" />
  </clipPath>
  <clipPath
     id="b">
    <path
       d="M 0.01188558,0.21859131 V 167.15104 H 535.30376 V 0.21859131 Z M 165.73252,13.4953 c 0.0758,0.0091 0.15161,0.01841 0.22738,0.02791 3.86002,0.0308 7.70161,0.537599 11.43806,1.508951 1.27497,0.421529 2.53134,0.89756 3.76566,1.426787 18.78512,6.550096 31.42795,24.231523 31.57637,44.160611 -0.17228,19.351935 -12.13361,36.6316 -30.1625,43.573561 -1.72177,0.78222 -3.48904,1.45973 -5.29219,2.02882 -3.78235,0.98964 -7.67312,1.50294 -11.58224,1.52807 -0.23811,-0.0288 -0.476,-0.0595 -0.71365,-0.092 -3.73603,-0.0445 -7.4535,-0.53498 -11.07374,-1.46089 -2.04468,-0.6556 -4.04217,-1.45071 -5.97845,-2.3797 -17.53952,-7.181784 -29.06611,-24.207269 -29.24162,-43.191679 0.17393,-19.263876 12.03119,-36.482513 29.94339,-43.482617 1.701,-0.798417 3.44821,-1.494024 5.23224,-2.083077 3.87116,-1.025327 7.85717,-1.551169 11.86129,-1.564763 z m 327.52884,3.296957 c 15.07826,-1.67e-4 27.30172,12.308682 27.30169,27.492378 -0.0217,1.289791 -0.13367,2.576444 -0.33486,3.85041 0.0299,0.524785 0.0466,1.050359 0.0501,1.576134 -6e-5,15.964752 -11.89956,28.906758 -26.57822,28.906761 -13.74103,-0.0078 -25.21122,-11.406275 -26.45524,-26.289868 -0.82251,-2.602016 -1.2555,-5.312929 -1.28465,-8.043437 -3e-5,-15.183495 12.22311,-27.492258 27.30116,-27.492378 z m -83.17217,25.471314 h 29.66122 v 79.381719 h -29.66122 z m -220.8997,74.411479 h 78.38075 v 29.16876 h -78.38075 z"
       id="path2" />
  </clipPath>
  <path
     d="M 0.01188749,0.21859131 V 167.15104 H 535.30376 V 0.21859131 Z M 165.73252,13.4953 c 0.0758,0.0091 0.15161,0.01842 0.22738,0.02791 3.86002,0.0308 7.70161,0.537599 11.43806,1.508951 1.27497,0.421529 2.53134,0.89756 3.76566,1.426787 18.78512,6.550096 31.42795,24.231523 31.57637,44.160612 -0.17228,19.351935 -12.13361,36.6316 -30.1625,43.57356 -1.72177,0.78222 -3.48904,1.45973 -5.29219,2.02882 -3.78235,0.98964 -7.67312,1.50294 -11.58224,1.52807 -0.23811,-0.0288 -0.476,-0.0595 -0.71365,-0.092 -3.73603,-0.0445 -7.4535,-0.53498 -11.07374,-1.46089 -2.04468,-0.6556 -4.04217,-1.45071 -5.97845,-2.3797 -17.53952,-7.181783 -29.06611,-24.20727 -29.24162,-43.191679 0.17393,-19.263876 12.03119,-36.482513 29.94339,-43.482617 1.701,-0.798417 3.44821,-1.494024 5.23224,-2.083077 3.87116,-1.025327 7.85717,-1.551169 11.86129,-1.564763 z m 327.52884,3.296957 c 15.07827,-1.67e-4 27.30173,12.308681 27.3017,27.492378 -0.0218,1.28979 -0.13368,2.576445 -0.33487,3.850411 0.0299,0.524784 0.0466,1.050357 0.0501,1.576132 -6e-5,15.964752 -11.89956,28.90676 -26.57822,28.906762 -13.74104,-0.0078 -25.21123,-11.406275 -26.45524,-26.289868 -0.82251,-2.602015 -1.2555,-5.312928 -1.28467,-8.043437 -3e-5,-15.183494 12.22312,-27.492258 27.30117,-27.492378 z M 410.08918,42.26357 h 29.66124 v 79.38172 h -29.66124 z m -220.89969,74.41148 h 78.38074 v 29.16876 h -78.38074 z"
     fill="#4d4d4d"
     id="path3" />
  <g
     clip-path="url(#b)"
     fill="#606060"
     id="g6">
    <path
       d="M 5.38996,42.26373 V 67.611021 H 533.44802 V 42.26373 Z"
       stroke-width="0.366395"
       id="path4" />
    <path
       d="M 5.38996,2.57297 V 27.920255 H 533.44802 V 2.57297 Z"
       stroke-width="0.366395"
       id="path5" />
    <rect
       height="25.347065"
       stroke-width="0.564222"
       width="527.97382"
       x="3.3367569"
       y="121.64526"
       id="rect5" />
    <path
       d="M 5.38996,81.954497 V 107.30179 H 533.44802 V 81.954497 Z"
       stroke-width="0.366395"
       id="path6" />
  </g>
  <path
     d="M 0.47284127,167.15104 0.01188749,392.39259 H 187.51104 V 167.15104 Z m 41.02746973,3.14503 c 15.078075,1.2e-4 27.301216,12.30887 27.301176,27.49237 -0.0215,1.29065 -0.133207,2.57816 -0.334346,3.853 0.0298,0.52375 0.04653,1.04829 0.05013,1.57303 -7e-5,15.96476 -11.899538,28.90676 -26.578223,28.90676 -13.741046,-0.008 -25.211214,-11.40625 -26.455233,-26.28987 -0.822659,-2.60182 -1.255812,-5.31255 -1.285192,-8.04292 -4e-5,-15.1837 12.223417,-27.49253 27.301692,-27.49237 z m 46.168758,85.54103 h 77.891881 v 28.51712 H 87.669069 Z m -0.16278,42.85681 h 78.380741 v 28.67991 H 87.506289 Z"
     fill="#4d4d4d"
     id="path7" />
  <g
     clip-path="url(#a)"
     fill="#606060"
     stroke-width="0.320333"
     id="g11">
    <rect
       height="25.347065"
       width="170.18272"
       x="8.531642"
       y="201.02657"
       id="rect7" />
    <rect
       height="25.347065"
       width="170.18272"
       x="8.7931194"
       y="359.78873"
       id="rect8" />
    <rect
       height="25.347065"
       width="170.18272"
       x="8.9733534"
       y="320.09821"
       id="rect9" />
    <rect
       height="25.347065"
       width="170.18272"
       x="7.8691049"
       y="280.40765"
       id="rect10" />
    <rect
       height="25.347065"
       width="170.18272"
       x="8.531642"
       y="240.7171"
       id="rect11" />
    <path
       d="m 8.07605,161.3358 v 25.34729 h 170.1829 V 161.3358 Z"
       id="path11" />
  </g>
  <g
     fill="#323232"
     id="g19">
    <rect
       height="392.15024"
       ry="0"
       stroke-width="0.854171"
       transform="scale(-1)"
       width="10.067462"
       x="-10.06746"
       y="-392.15024"
       id="rect12" />
    <rect
       height="177.80597"
       ry="0"
       stroke-width="0.575164"
       transform="rotate(90)"
       width="10.067462"
       x="382.09409"
       y="-187.5126"
       id="rect13" />
    <rect
       height="158.72293"
       ry="0"
       stroke-width="0.543423"
       width="10.067462"
       x="278.54694"
       y="3.6591799"
       id="rect14" />
    <rect
       height="162.09052"
       ry="0"
       stroke-width="0.549158"
       width="10.067462"
       x="449.12506"
       y="2.162468"
       id="rect15" />
    <rect
       height="527.62878"
       ry="0"
       stroke-width="0.99079"
       transform="rotate(90)"
       width="10.067462"
       x="157.08337"
       y="-535.3042"
       id="rect16" />
    <rect
       height="164.59285"
       ry="0"
       stroke-width="0.55338"
       transform="scale(-1)"
       width="10.067462"
       x="-535.28906"
       y="-164.82184"
       id="rect17" />
    <rect
       height="526.52631"
       ry="0"
       stroke-width="0.989756"
       transform="rotate(90)"
       width="10.067462"
       x="0.002022"
       y="-535.31934"
       id="rect18" />
    <rect
       height="233.38997"
       ry="0"
       stroke-width="0.65896"
       transform="scale(-1)"
       width="10.067462"
       x="-187.52382"
       y="-390.46341"
       id="rect19" />
  </g>
  <rect
     fill="#4f4f4f"
     height="231.0956"
     ry="4.751204"
     transform="scale(-1)"
     width="6.2468281"
     x="-185.66591"
     y="-390.15216"
     id="rect20" />
  <rect
     fill="#4f4f4f"
     height="387.67352"
     ry="1.937281"
     width="6.2468281"
     x="1.7823159"
     y="2.4979401"
     id="rect21" />
  <rect
     fill="#4f4f4f"
     height="531.50568"
     ry="2.756187"
     transform="rotate(-90)"
     width="6.2468281"
     x="-8.0276718"
     y="1.801114"
     id="rect22" />
  <rect
     fill="#4f4f4f"
     height="163.52847"
     ry="1.508672"
     width="6.2468281"
     x="527.20117"
     y="1.779511"
     id="rect23" />
  <rect
     fill="#4f4f4f"
     height="530.78296"
     ry="4.8843188"
     transform="rotate(-90)"
     width="6.2628741"
     x="-165.30124"
     y="2.665067"
     id="rect24" />
  <rect
     fill="#4f4f4f"
     height="183.94781"
     ry="1.697055"
     transform="rotate(-90)"
     width="6.2468281"
     x="-390.17728"
     y="1.7538729"
     id="rect25" />
  <rect
     fill="#4f4f4f"
     height="162.38428"
     ry="1.4981149"
     transform="scale(-1)"
     width="6.2468281"
     x="-286.78793"
     y="-164.94389"
     id="rect26" />
  <rect
     fill="#4f4f4f"
     height="162.38428"
     ry="1.4981149"
     transform="scale(-1)"
     width="6.2468281"
     x="-457.37573"
     y="-164.39987"
     id="rect27" />
  <ellipse
     cx="26.201164"
     cy="-126.37849"
     fill="#a7a7aa"
     rx="26.995255"
     ry="26.398563"
     stroke-width="0.273231"
     transform="matrix(0.96592583,-0.25881905,-0.25881905,-0.96592583,0,0)"
     id="ellipse27" />
  <ellipse
     cx="26.201164"
     cy="-126.3785"
     fill="#cbcbcd"
     rx="25.056896"
     ry="24.50305"
     stroke-width="0.253612"
     transform="matrix(0.96592583,-0.25881905,-0.25881905,-0.96592583,0,0)"
     id="ellipse28" />
  <rect
     fill="#a7a7aa"
     height="2.619242"
     ry="0.32773799"
     stroke-width="0.385846"
     transform="rotate(-15)"
     width="51.324547"
     x="0.53889185"
     y="125.06888"
     id="rect28" />
  <rect
     fill="#a7a7aa"
     height="2.619242"
     ry="0.32773799"
     stroke-width="0.385846"
     transform="rotate(-105)"
     width="51.324547"
     x="-152.04077"
     y="24.891544"
     id="rect29" />
  <ellipse
     cx="64.522812"
     cy="-400.62106"
     fill="#a7a7aa"
     rx="9.9757795"
     ry="9.7552786"
     stroke-width="0.100969"
     transform="matrix(0.96592583,-0.25881903,-0.25881903,-0.96592583,0,0)"
     id="ellipse29" />
  <ellipse
     cx="64.522812"
     cy="-400.62106"
     fill="#cbcbcd"
     rx="7.0403442"
     ry="6.884728"
     stroke-width="0.071258"
     transform="matrix(0.96592583,-0.25881903,-0.25881903,-0.96592583,0,0)"
     id="ellipse30" />
  <ellipse
     cx="67.846779"
     cy="-20.889944"
     fill="#a7a7aa"
     rx="26.995255"
     ry="26.398563"
     stroke-width="0.273231"
     transform="matrix(0.95065326,0.31025535,0.31025535,-0.95065326,0,0)"
     id="ellipse31" />
  <ellipse
     cx="67.846779"
     cy="-20.889944"
     fill="#cbcbcd"
     rx="25.056896"
     ry="24.50305"
     stroke-width="0.253612"
     transform="matrix(0.95065326,0.31025535,0.31025535,-0.95065326,0,0)"
     id="ellipse32" />
  <rect
     fill="#a7a7aa"
     height="2.619242"
     ry="0.32773799"
     stroke-width="0.385846"
     transform="rotate(-118.70488)"
     width="51.324547"
     x="-89.409424"
     y="29.92939"
     id="rect32" />
  <rect
     fill="#a7a7aa"
     height="2.619242"
     ry="0.32773799"
     stroke-width="0.385846"
     transform="rotate(151.29512)"
     width="51.324547"
     x="-56.901283"
     y="-65.05677"
     id="rect33" />
  <g
     transform="translate(1.9073486e-6,-3.617895)"
     id="g37">
    <ellipse
       cx="106.59655"
       cy="203.96889"
       fill="#333333"
       rx="17.424461"
       ry="17.249634"
       stroke-width="0.483636"
       id="ellipse33" />
    <ellipse
       cx="106.59655"
       cy="203.96889"
       fill="#808080"
       rx="14.431043"
       ry="14.286249"
       stroke-width="0.40055"
       id="ellipse34" />
    <ellipse
       cx="106.59655"
       cy="203.96889"
       fill="#333333"
       rx="6.012053"
       ry="5.9517312"
       stroke-width="0.166871"
       id="ellipse35" />
    <g
       fill="#666666"
       stroke-width="0.393965"
       id="g36">
      <rect
         height="2.619242"
         ry="1.309621"
         width="23.94735"
         x="94.622871"
         y="202.65927"
         id="rect35" />
      <rect
         height="2.619242"
         ry="1.309621"
         transform="rotate(-90)"
         width="23.94735"
         x="-215.94257"
         y="105.28693"
         id="rect36" />
    </g>
  </g>
  <g
     transform="translate(1.9073486e-6,-3.584982)"
     id="g41">
    <ellipse
       cx="146.46992"
       cy="203.93597"
       fill="#333333"
       rx="17.424461"
       ry="17.249634"
       stroke-width="0.483636"
       id="ellipse37" />
    <ellipse
       cx="146.46992"
       cy="203.93597"
       fill="#808080"
       rx="14.431043"
       ry="14.286249"
       stroke-width="0.40055"
       id="ellipse38" />
    <ellipse
       cx="146.46992"
       cy="203.93597"
       fill="#333333"
       rx="6.012053"
       ry="5.9517312"
       stroke-width="0.166871"
       id="ellipse39" />
    <g
       fill="#666666"
       stroke-width="0.393965"
       id="g40">
      <rect
         height="2.619242"
         ry="1.309621"
         width="23.94735"
         x="134.49626"
         y="202.62636"
         id="rect39" />
      <rect
         height="2.619242"
         ry="1.309621"
         transform="rotate(-90)"
         width="23.94735"
         x="-215.90965"
         y="145.16031"
         id="rect40" />
    </g>
  </g>
  <ellipse
     cx="495.20584"
     cy="119.77724"
     fill="#333333"
     rx="17.424461"
     ry="17.249634"
     stroke-width="0.483636"
     id="ellipse41" />
  <ellipse
     cx="495.20584"
     cy="119.77724"
     fill="#808080"
     rx="14.431043"
     ry="14.286249"
     stroke-width="0.40055"
     id="ellipse42" />
  <ellipse
     cx="495.20584"
     cy="119.77724"
     fill="#333333"
     rx="6.012053"
     ry="5.9517312"
     stroke-width="0.166871"
     id="ellipse43" />
  <rect
     fill="#666666"
     height="2.619242"
     ry="1.309621"
     stroke-width="0.393965"
     width="23.94735"
     x="483.23215"
     y="118.46762"
     id="rect43" />
  <rect
     fill="#666666"
     height="2.619242"
     ry="1.309621"
     stroke-width="0.393965"
     transform="rotate(-90)"
     width="23.94735"
     x="-131.75092"
     y="493.89621"
     id="rect44" />
  <g
     id="g141">
    <ellipse
       cx="249.39207"
       cy="43.592812"
       fill="#333333"
       rx="17.424461"
       ry="17.249634"
       stroke-width="0.483636"
       id="ellipse44" />
    <ellipse
       cx="249.39207"
       cy="43.592812"
       fill="#808080"
       rx="14.431043"
       ry="14.286249"
       stroke-width="0.40055"
       id="ellipse45" />
    <ellipse
       cx="249.39207"
       cy="43.592812"
       fill="#333333"
       rx="6.012053"
       ry="5.9517312"
       stroke-width="0.166871"
       id="ellipse46" />
    <rect
       fill="#666666"
       height="2.619242"
       ry="1.309621"
       stroke-width="0.393965"
       width="23.94735"
       x="237.41841"
       y="42.283192"
       id="rect46" />
    <rect
       fill="#666666"
       height="2.619242"
       ry="1.309621"
       stroke-width="0.393965"
       transform="rotate(-90)"
       width="23.94735"
       x="-55.566486"
       y="248.08246"
       id="rect47" />
  </g>
  <g
     id="g142"
     transform="translate(0.09422302)">
    <ellipse
       cx="249.29785"
       cy="87.972885"
       fill="#333333"
       rx="17.424461"
       ry="17.249634"
       stroke-width="0.483636"
       id="ellipse47" />
    <ellipse
       cx="249.29785"
       cy="87.972885"
       fill="#808080"
       rx="14.431043"
       ry="14.286249"
       stroke-width="0.40055"
       id="ellipse48" />
    <ellipse
       cx="249.29785"
       cy="87.972878"
       fill="#333333"
       rx="6.012053"
       ry="5.9517312"
       stroke-width="0.166871"
       id="ellipse49" />
    <rect
       fill="#666666"
       height="2.619242"
       ry="1.309621"
       stroke-width="0.393965"
       width="23.94735"
       x="237.32419"
       y="86.663261"
       id="rect49" />
    <rect
       fill="#666666"
       height="2.619242"
       ry="1.309621"
       stroke-width="0.393965"
       transform="rotate(-90)"
       width="23.94735"
       x="-99.946556"
       y="247.98824"
       id="rect50" />
  </g>
  <g
     id="g138">
    <rect
       fill="#b3b3b3"
       height="100.0125"
       ry="8.7536821"
       stroke-width="0.704977"
       width="18.020269"
       x="301.47781"
       y="34.541859"
       id="rect51" />
    <rect
       fill="#808080"
       height="94.773743"
       ry="8.2951555"
       stroke-width="0.600267"
       width="13.786936"
       x="303.59448"
       y="36.647526"
       id="rect52" />
    <rect
       fill="#b3b3b3"
       height="98.22155"
       ry="0.65481001"
       stroke-width="0.393965"
       width="1.309621"
       x="309.83313"
       y="35.31303"
       id="rect53" />
  </g>
  <g
     id="g139"
     transform="translate(-0.78926086)">
    <rect
       fill="#b3b3b3"
       height="100.0125"
       ry="8.7536821"
       stroke-width="0.704977"
       width="18.020269"
       x="338.40796"
       y="34.536999"
       id="rect54" />
    <rect
       fill="#808080"
       height="94.773743"
       ry="8.2951555"
       stroke-width="0.600267"
       width="13.786936"
       x="340.52463"
       y="36.642666"
       id="rect55" />
    <rect
       fill="#b3b3b3"
       height="98.22155"
       ry="0.65481001"
       stroke-width="0.393965"
       width="1.309621"
       x="346.76328"
       y="35.30817"
       id="rect56" />
  </g>
  <g
     id="g140">
    <rect
       fill="#b3b3b3"
       height="100.0125"
       ry="8.7536821"
       stroke-width="0.704977"
       width="18.020269"
       x="373.75958"
       y="34.557873"
       id="rect57" />
    <rect
       fill="#808080"
       height="94.773743"
       ry="8.2951555"
       stroke-width="0.600267"
       width="13.786936"
       x="375.87625"
       y="36.66354"
       id="rect58" />
    <rect
       fill="#b3b3b3"
       height="98.22155"
       ry="0.65481001"
       stroke-width="0.393965"
       width="1.309621"
       x="382.1149"
       y="35.329044"
       id="rect59" />
  </g>
  <path
     d="m 409.11147,41.111313 v 81.686237 h 31.45389 V 41.111313 Z m 27.3928,3.125187 V 77.186344 H 413.01011 V 44.2365 Z m 0,41.024185 V 118.08343 H 413.01011 V 85.260685 Z"
     fill="#333333"
     stroke-width="0.330467"
     id="path59" />
  <g
     id="g105"
     transform="translate(-162.62782)">
    <rect
       height="4.1214676"
       width="30.556665"
       x="294.01978"
       y="261.26776"
       id="rect103"
       style="fill:#999999;stroke-width:0.495627" />
    <rect
       height="4.1214676"
       width="30.556665"
       x="294.01978"
       y="274.51871"
       id="rect104"
       style="fill:#999999;stroke-width:0.495627" />
    <rect
       height="4.1214676"
       width="30.556665"
       x="294.01978"
       y="267.89325"
       id="rect105"
       style="fill:#999999;stroke-width:0.495627" />
    <rect
       height="4.1214676"
       width="30.556665"
       x="253.54488"
       y="261.26776"
       id="rect102"
       style="fill:#999999;stroke-width:0.495627" />
    <path
       d="m 329.4909,254.38045 h -80.65968 v 31.45389 h 80.65968 z m -4.31498,27.3928 h -32.02027 v -23.49416 h 32.02027 z m -39.86682,0 h -31.89676 v -23.49416 h 31.89676 z"
       fill="#333333"
       stroke-width="0.325772"
       id="path8" />
    <path
       d="m 293.288,256.5972 c -1.20872,0 -2.18143,0.96259 -2.18143,2.15806 v 22.70479 c 0,1.19548 0.97271,2.15755 2.18143,2.15755 h 32.0202 c 1.20871,0 2.18143,-0.96206 2.18143,-2.15755 v -22.70479 c 0,-1.19547 -0.97272,-2.15806 -2.18143,-2.15806 z m 0.96982,2.77229 h 30.08371 v 21.19984 h -30.08371 z"
       fill="#666666"
       stroke-width="0.291788"
       id="path38" />
    <rect
       height="4.1214676"
       width="30.556665"
       x="253.54488"
       y="274.51871"
       id="rect48"
       style="fill:#999999;stroke-width:0.495627" />
    <rect
       height="4.1214676"
       width="30.556665"
       x="253.54488"
       y="267.89325"
       id="rect91"
       style="fill:#999999;stroke-width:0.495627" />
    <path
       d="m 253.01392,256.5972 c -1.20872,0 -2.18143,0.96259 -2.18143,2.15806 v 22.70479 c 0,1.19548 0.97271,2.15755 2.18143,2.15755 h 32.0202 c 1.20871,0 2.18143,-0.96206 2.18143,-2.15755 v -22.70479 c 0,-1.19547 -0.97272,-2.15806 -2.18143,-2.15806 z m 0.96982,2.77229 h 30.08371 v 21.19984 h -30.08371 z"
       fill="#666666"
       stroke-width="0.291788"
       id="path82" />
  </g>
  <g
     id="g111"
     transform="translate(-162.62782,42.791245)">
    <rect
       height="4.1214676"
       width="30.556665"
       x="294.01978"
       y="261.26776"
       id="rect106"
       style="fill:#999999;stroke-width:0.495627" />
    <rect
       height="4.1214676"
       width="30.556665"
       x="294.01978"
       y="274.51871"
       id="rect107"
       style="fill:#999999;stroke-width:0.495627" />
    <rect
       height="4.1214676"
       width="30.556665"
       x="294.01978"
       y="267.89325"
       id="rect108"
       style="fill:#999999;stroke-width:0.495627" />
    <rect
       height="4.1214676"
       width="30.556665"
       x="253.54488"
       y="261.26776"
       id="rect109"
       style="fill:#999999;stroke-width:0.495627" />
    <path
       d="m 329.4909,254.38045 h -80.65968 v 31.45389 h 80.65968 z m -4.31498,27.3928 h -32.02027 v -23.49416 h 32.02027 z m -39.86682,0 h -31.89676 v -23.49416 h 31.89676 z"
       fill="#333333"
       stroke-width="0.325772"
       id="path109" />
    <path
       d="m 293.288,256.5972 c -1.20872,0 -2.18143,0.96259 -2.18143,2.15806 v 22.70479 c 0,1.19548 0.97271,2.15755 2.18143,2.15755 h 32.0202 c 1.20871,0 2.18143,-0.96206 2.18143,-2.15755 v -22.70479 c 0,-1.19547 -0.97272,-2.15806 -2.18143,-2.15806 z m 0.96982,2.77229 h 30.08371 v 21.19984 h -30.08371 z"
       fill="#666666"
       stroke-width="0.291788"
       id="path110" />
    <rect
       height="4.1214676"
       width="30.556665"
       x="253.54488"
       y="274.51871"
       id="rect110"
       style="fill:#999999;stroke-width:0.495627" />
    <rect
       height="4.1214676"
       width="30.556665"
       x="253.54488"
       y="267.89325"
       id="rect111"
       style="fill:#999999;stroke-width:0.495627" />
    <path
       d="m 253.01392,256.5972 c -1.20872,0 -2.18143,0.96259 -2.18143,2.15806 v 22.70479 c 0,1.19548 0.97271,2.15755 2.18143,2.15755 h 32.0202 c 1.20871,0 2.18143,-0.96206 2.18143,-2.15755 v -22.70479 c 0,-1.19547 -0.97272,-2.15806 -2.18143,-2.15806 z m 0.96982,2.77229 h 30.08371 v 21.19984 h -30.08371 z"
       fill="#666666"
       stroke-width="0.291788"
       id="path111" />
  </g>
  <g
     id="g117"
     transform="translate(-60.985817,-138.84201)">
    <rect
       height="4.1214676"
       width="30.556665"
       x="294.01978"
       y="261.26776"
       id="rect112"
       style="fill:#999999;stroke-width:0.495627" />
    <rect
       height="4.1214676"
       width="30.556665"
       x="294.01978"
       y="274.51871"
       id="rect113"
       style="fill:#999999;stroke-width:0.495627" />
    <rect
       height="4.1214676"
       width="30.556665"
       x="294.01978"
       y="267.89325"
       id="rect114"
       style="fill:#999999;stroke-width:0.495627" />
    <rect
       height="4.1214676"
       width="30.556665"
       x="253.54488"
       y="261.26776"
       id="rect115"
       style="fill:#999999;stroke-width:0.495627" />
    <path
       d="m 329.4909,254.38045 h -80.65968 v 31.45389 h 80.65968 z m -4.31498,27.3928 h -32.02027 v -23.49416 h 32.02027 z m -39.86682,0 h -31.89676 v -23.49416 h 31.89676 z"
       fill="#333333"
       stroke-width="0.325772"
       id="path115" />
    <path
       d="m 293.288,256.5972 c -1.20872,0 -2.18143,0.96259 -2.18143,2.15806 v 22.70479 c 0,1.19548 0.97271,2.15755 2.18143,2.15755 h 32.0202 c 1.20871,0 2.18143,-0.96206 2.18143,-2.15755 v -22.70479 c 0,-1.19547 -0.97272,-2.15806 -2.18143,-2.15806 z m 0.96982,2.77229 h 30.08371 v 21.19984 h -30.08371 z"
       fill="#666666"
       stroke-width="0.291788"
       id="path116" />
    <rect
       height="4.1214676"
       width="30.556665"
       x="253.54488"
       y="274.51871"
       id="rect116"
       style="fill:#999999;stroke-width:0.495627" />
    <rect
       height="4.1214676"
       width="30.556665"
       x="253.54488"
       y="267.89325"
       id="rect117"
       style="fill:#999999;stroke-width:0.495627" />
    <path
       d="m 253.01392,256.5972 c -1.20872,0 -2.18143,0.96259 -2.18143,2.15806 v 22.70479 c 0,1.19548 0.97271,2.15755 2.18143,2.15755 h 32.0202 c 1.20871,0 2.18143,-0.96206 2.18143,-2.15755 v -22.70479 c 0,-1.19547 -0.97272,-2.15806 -2.18143,-2.15806 z m 0.96982,2.77229 h 30.08371 v 21.19984 h -30.08371 z"
       fill="#666666"
       stroke-width="0.291788"
       id="path117" />
  </g>
  <g
     id="g134"
     transform="translate(111.27543,-152.94951)">
    <rect
       height="4.1214676"
       width="30.556665"
       x="199.28777"
       y="-322.40262"
       id="rect132"
       style="fill:#999999;stroke-width:0.495627"
       transform="rotate(90)" />
    <rect
       height="4.1214676"
       width="30.556665"
       x="199.28777"
       y="-309.15167"
       id="rect133"
       style="fill:#999999;stroke-width:0.495627"
       transform="rotate(90)" />
    <rect
       height="4.1214676"
       width="30.556665"
       x="199.28777"
       y="-315.77713"
       id="rect134"
       style="fill:#999999;stroke-width:0.495627"
       transform="rotate(90)" />
    <path
       d="m 327.07319,198.75681 c 0,-1.20872 -0.96259,-2.18143 -2.15806,-2.18143 h -22.70479 c -1.19548,0 -2.15755,0.97271 -2.15755,2.18143 v 32.0202 c 0,1.20871 0.96206,2.18143 2.15755,2.18143 h 22.70479 c 1.19547,0 2.15806,-0.97272 2.15806,-2.18143 z m -2.77229,0.96982 v 30.08371 h -21.19984 v -30.08371 z"
       fill="#666666"
       stroke-width="0.291788"
       id="path134" />
  </g>
  <g
     id="g137"
     transform="translate(111.27543,-112.67544)">
    <rect
       height="4.1214676"
       width="30.556665"
       x="199.28777"
       y="-322.40262"
       id="rect135"
       style="fill:#999999;stroke-width:0.495627"
       transform="rotate(90)" />
    <rect
       height="4.1214676"
       width="30.556665"
       x="199.28777"
       y="-309.15167"
       id="rect136"
       style="fill:#999999;stroke-width:0.495627"
       transform="rotate(90)" />
    <rect
       height="4.1214676"
       width="30.556665"
       x="199.28777"
       y="-315.77713"
       id="rect137"
       style="fill:#999999;stroke-width:0.495627"
       transform="rotate(90)" />
    <path
       d="m 327.07319,198.75681 c 0,-1.20872 -0.96259,-2.18143 -2.15806,-2.18143 h -22.70479 c -1.19548,0 -2.15755,0.97271 -2.15755,2.18143 v 32.0202 c 0,1.20871 0.96206,2.18143 2.15755,2.18143 h 22.70479 c 1.19547,0 2.15806,-0.97272 2.15806,-2.18143 z m -2.77229,0.96982 v 30.08371 h -21.19984 v -30.08371 z"
       fill="#666666"
       stroke-width="0.291788"
       id="path137" />
  </g>
</svg>
