<?xml version="1.0" encoding="UTF-8" standalone="no"?>
<!-- Created with Inkscape (http://www.inkscape.org/) -->

<svg
   width="2023.1836"
   height="1482.1854"
   viewBox="0 0 2023.1835 1482.1854"
   version="1.1"
   id="SVGRoot"
   xml:space="preserve"
   sodipodi:docname="refinery_floor.svg"
   inkscape:version="1.3 (0e150ed6c4, 2023-07-21)"
   inkscape:export-filename="refinery_floor.png"
   inkscape:export-xdpi="96"
   inkscape:export-ydpi="96"
   xmlns:inkscape="http://www.inkscape.org/namespaces/inkscape"
   xmlns:sodipodi="http://sodipodi.sourceforge.net/DTD/sodipodi-0.dtd"
   xmlns:xlink="http://www.w3.org/1999/xlink"
   xmlns="http://www.w3.org/2000/svg"
   xmlns:svg="http://www.w3.org/2000/svg"><sodipodi:namedview
     id="namedview1"
     pagecolor="#ffffff"
     bordercolor="#000000"
     borderopacity="0.25"
     inkscape:showpageshadow="2"
     inkscape:pageopacity="0.0"
     inkscape:pagecheckerboard="0"
     inkscape:deskcolor="#d1d1d1"
     inkscape:zoom="0.35355339"
     inkscape:cx="958.8368"
     inkscape:cy="427.0925"
     inkscape:window-width="1440"
     inkscape:window-height="829"
     inkscape:window-x="0"
     inkscape:window-y="0"
     inkscape:window-maximized="1"
     inkscape:current-layer="SVGRoot" /><defs
     id="defs25399"><pattern
       xlink:href="#pattern286"
       preserveAspectRatio="xMidYMid"
       id="pattern5"
       patternTransform="translate(-3.5091886,1385.858)" /><pattern
       xlink:href="#pattern285"
       preserveAspectRatio="xMidYMid"
       id="pattern286"
       patternTransform="translate(55.487198,1385.3353)" /><pattern
       patternUnits="userSpaceOnUse"
       width="137.03201"
       height="138.00276"
       patternTransform="translate(55.487198,1385.6357)"
       preserveAspectRatio="xMidYMid"
       id="pattern285"><g
         id="g30273-44-1-8"
         transform="matrix(1.0103219,0,0,1.0599531,594.38346,-887.39954)"
         style="display:inline;fill:#4d4d4d"><rect
           style="fill:#3f2e16;fill-opacity:1;stroke-width:3.87564;paint-order:markers stroke fill"
           id="rect29065-7-7-6"
           width="135.63203"
           height="130.18782"
           x="-588.31097"
           y="837.21558"
           ry="0" /><rect
           style="fill:#9e7437;fill-opacity:1;stroke-width:1.164;paint-order:markers stroke fill"
           id="rect29067-9-53-04-8"
           width="29.376078"
           height="125.79742"
           x="-588.30646"
           y="837.23419"
           ry="3.0230179" /><rect
           style="fill:#9e7437;fill-opacity:1;stroke-width:0.977504;paint-order:markers stroke fill"
           id="rect29067-9-5-08-2-1"
           width="29.376078"
           height="88.716393"
           x="-553.76758"
           y="873.51941"
           ry="2.1319296" /><rect
           style="fill:#9e7437;fill-opacity:1;stroke-width:0.977504;paint-order:markers stroke fill"
           id="rect29067-9-5-0-78-2-8"
           width="29.376078"
           height="88.716393"
           x="-519.60651"
           y="837.49231"
           ry="2.1319296" /><rect
           style="fill:#9e7437;fill-opacity:1;stroke-width:0.487596;paint-order:markers stroke fill"
           id="rect29067-9-5-3-91-3-0"
           width="29.376078"
           height="22.074257"
           x="-553.77252"
           y="845.92029"
           ry="1.6795051" /><rect
           style="fill:#9e7437;fill-opacity:1;stroke-width:0.551714;paint-order:markers stroke fill"
           id="rect29067-9-5-3-3-2-3-7"
           width="29.376078"
           height="28.26144"
           x="-486.28641"
           y="908.38403"
           ry="2.1502528" /><rect
           style="fill:#9e7437;fill-opacity:1;stroke-width:0.570379;paint-order:markers stroke fill"
           id="rect29067-9-5-3-9-7-6-2"
           width="29.376078"
           height="30.205984"
           x="-486.23764"
           y="873.28827"
           ry="2.2982023" /><rect
           style="fill:#9e7437;fill-opacity:1;stroke-width:0.487596;paint-order:markers stroke fill"
           id="rect29067-9-5-3-19-8-4-7"
           width="29.376078"
           height="22.074257"
           x="-519.71161"
           y="931.2182"
           ry="1.6795051" /><rect
           style="fill:#9e7437;fill-opacity:1;stroke-width:0.487596;paint-order:markers stroke fill"
           id="rect29067-9-5-3-1-7-7-0"
           width="29.376078"
           height="22.074257"
           x="-553.80365"
           y="837.20966"
           ry="0" /><rect
           style="fill:#9e7437;fill-opacity:1;stroke-width:0.487596;paint-order:markers stroke fill"
           id="rect29067-9-5-3-1-3-1-2-27"
           width="29.376078"
           height="22.074257"
           x="-519.7771"
           y="945.32898"
           ry="0" /><rect
           style="fill:#9e7437;fill-opacity:1;stroke-width:0.972133;paint-order:markers stroke fill"
           id="rect29067-9-5-9-6-8-3"
           width="29.376078"
           height="87.744118"
           x="-553.75623"
           y="879.65717"
           ry="0" /><rect
           style="fill:#9e7437;fill-opacity:1;stroke-width:0.937232;paint-order:markers stroke fill"
           id="rect29067-9-5-9-1-2-3-1"
           width="29.376078"
           height="81.556931"
           x="-519.53564"
           y="837.23474"
           ry="0" /><rect
           style="fill:#9e7437;fill-opacity:1;stroke-width:0.657934;paint-order:markers stroke fill"
           id="rect29067-9-5-9-1-0-1-1-6"
           width="29.376078"
           height="40.191185"
           x="-486.31305"
           y="927.21228"
           ry="0" /><rect
           style="fill:#9e7437;fill-opacity:1;stroke-width:0.657934;paint-order:markers stroke fill"
           id="rect29067-9-5-9-1-0-0-8-74-0"
           width="29.376078"
           height="40.191185"
           x="-486.23987"
           y="837.20642"
           ry="0" /></g></pattern><radialGradient
       id="a"
       cx="141.73535"
       cy="145.99023"
       gradientTransform="matrix(1.0843338,-0.29054636,0.28193494,1.0521955,1076.747,28.818301)"
       gradientUnits="userSpaceOnUse"
       r="104.41504"><stop
         offset="0"
         stop-opacity=".9"
         id="stop2" /><stop
         offset="1"
         stop-opacity=".3"
         id="stop4" /></radialGradient></defs><rect
     style="fill:#5f5f63;fill-opacity:1;stroke-width:1.69323;paint-order:stroke fill markers"
     id="rect6"
     width="264.49551"
     height="169.27592"
     x="1440.9624"
     y="593.70093"
     ry="26.413177"
     rx="26.413177" /><rect
     style="fill:url(#pattern5);stroke:none"
     width="685.11328"
     height="545.27979"
     x="7.8832841"
     y="936.90558"
     id="rect1" /><rect
     style="display:inline;fill:#5f5f63;fill-opacity:1;stroke-width:1.8184;-inkscape-stroke:none;paint-order:markers stroke fill;stop-color:#000000"
     id="rect2"
     width="687.26538"
     height="918.6496"
     x="6.8073564"
     y="23.619974" /><rect
     style="display:inline;fill:#4c4c4c;fill-opacity:1;stroke-width:1.12073;-inkscape-stroke:none;paint-order:markers stroke fill;stop-color:#000000"
     id="rect3"
     width="273.22589"
     height="918.76575"
     x="6.8073564"
     y="23.619974" /><rect
     style="display:inline;fill:#5f5f63;fill-opacity:1;stroke-width:2.03915;-inkscape-stroke:none;paint-order:markers stroke fill;stop-color:#000000"
     id="rect4"
     width="1325.0579"
     height="631.91351"
     x="675.87012"
     y="0" /><rect
     style="display:inline;fill:#4c4c4c;fill-opacity:1;stroke-width:0.980543;-inkscape-stroke:none;paint-order:markers stroke fill;stop-color:#000000"
     id="rect5"
     width="295.47"
     height="607.66974"
     x="1705.458"
     y="24.243753" /><rect
     style="display:inline;fill:#323232;fill-opacity:1;stroke-width:3.22836;-inkscape-stroke:none;paint-order:markers stroke fill;stop-color:#000000"
     id="rect28992-2-4-1-0"
     width="38.050251"
     height="1482.1427"
     x="-38.050251"
     y="-1482.1427"
     ry="0"
     transform="scale(-1)" /><rect
     style="display:inline;fill:#323232;fill-opacity:1;stroke-width:2.17385;-inkscape-stroke:none;paint-order:markers stroke fill;stop-color:#000000"
     id="rect28992-2-4-1-0-9"
     width="38.050251"
     height="672.02258"
     x="1444.1351"
     y="-708.70898"
     ry="0"
     transform="rotate(90)" /><rect
     style="display:inline;fill:#323232;fill-opacity:1;stroke-width:1.30536;-inkscape-stroke:none;paint-order:markers stroke fill;stop-color:#000000"
     id="rect28992-2-4-1-0-9-6"
     width="38.050251"
     height="242.31953"
     x="904.33545"
     y="-280.0332"
     ry="0"
     transform="rotate(90)" /><rect
     style="display:inline;fill:#323232;fill-opacity:1;stroke-width:1.16321;-inkscape-stroke:none;paint-order:markers stroke fill;stop-color:#000000"
     id="rect28992-2-4-1-0-9-6-5"
     width="38.050251"
     height="192.41809"
     x="904.21936"
     y="-673.80927"
     ry="0"
     transform="rotate(90)" /><rect
     style="display:inline;fill:#323232;fill-opacity:1;stroke-width:2.27491;-inkscape-stroke:none;paint-order:markers stroke fill;stop-color:#000000"
     id="rect28992-2-4-1-0-8"
     width="38.050251"
     height="735.95911"
     x="593.70093"
     y="-1440.9624"
     ry="0"
     transform="rotate(90)" /><rect
     style="display:inline;fill:#323232;fill-opacity:1;stroke-width:1.49463;-inkscape-stroke:none;paint-order:markers stroke fill;stop-color:#000000"
     id="rect28992-2-4-1-0-8-8"
     width="38.050251"
     height="317.68256"
     x="593.86322"
     y="-2023.1405"
     ry="0"
     transform="rotate(90)" /><rect
     style="display:inline;fill:#323232;fill-opacity:1;stroke-width:2.09152;-inkscape-stroke:none;paint-order:markers stroke fill;stop-color:#000000"
     id="rect28992-2-4-1-0-5"
     width="38.050251"
     height="622.08319"
     x="-2023.1398"
     y="-622.94867"
     ry="0"
     transform="scale(-1)" /><rect
     style="display:inline;fill:#323232;fill-opacity:1;stroke-width:2.49056;-inkscape-stroke:none;paint-order:markers stroke fill;stop-color:#000000"
     id="rect28992-2-4-1-0-5-0"
     width="38.050251"
     height="882.10382"
     x="-708.75146"
     y="-1475.7672"
     ry="0"
     transform="scale(-1)" /><rect
     style="fill:#4f4f4f;fill-opacity:1;stroke:none;stroke-width:1.87964;stroke-opacity:1;-inkscape-stroke:none;paint-order:markers stroke fill;stop-color:#000000"
     id="rect31366"
     width="23.610058"
     height="402.56842"
     x="678.31775"
     y="599.74292"
     ry="7.4512048" /><rect
     style="display:inline;fill:#4f4f4f;fill-opacity:1;stroke:none;stroke-width:1.62848;stroke-opacity:1;-inkscape-stroke:none;paint-order:markers stroke fill;stop-color:#000000"
     id="rect31366-15"
     width="23.610058"
     height="302.17175"
     x="-624.81317"
     y="1714.1064"
     ry="6.212491"
     transform="rotate(-90)" /><rect
     style="display:inline;fill:#4f4f4f;fill-opacity:1;stroke:none;stroke-width:1.51391;stroke-opacity:1;-inkscape-stroke:none;paint-order:markers stroke fill;stop-color:#000000"
     id="rect31366-15-0"
     width="23.610058"
     height="261.14926"
     x="-934.28754"
     y="10.411994"
     ry="5.3690906"
     transform="rotate(-90)" /><rect
     style="display:inline;fill:#4f4f4f;fill-opacity:1;stroke:none;stroke-width:1.49627;stroke-opacity:1;-inkscape-stroke:none;paint-order:markers stroke fill;stop-color:#000000"
     id="rect31366-15-0-4"
     width="23.610058"
     height="255.09738"
     x="-701.72943"
     y="-1474.5908"
     ry="5.2446675"
     transform="scale(-1)" /><rect
     style="display:inline;fill:#4f4f4f;fill-opacity:1;stroke:none;stroke-width:1.36549;stroke-opacity:1;-inkscape-stroke:none;paint-order:markers stroke fill;stop-color:#000000"
     id="rect31366-15-0-3"
     width="23.610058"
     height="212.45352"
     x="-934.53986"
     y="489.59006"
     ry="4.3679318"
     transform="rotate(-90)" /><path
     id="rect18"
     d="M 33.164014,0 V 38.05079 H 1155.6868 L 1142.8529,10.49418 1114.2207,0 Z M 1442.082,0 1418.371,9.7167999 1402.4258,38.05079 h 620.7578 V 0 Z"
     sodipodi:nodetypes="cccccccccccc"
     style="fill:#323232;fill-opacity:1;stroke-width:3.77953" /><rect
     style="display:inline;fill:#4f4f4f;fill-opacity:1;stroke:none;stroke-width:3.58596;stroke-opacity:1;-inkscape-stroke:none;paint-order:markers stroke fill;stop-color:#000000"
     id="rect31366-1"
     width="23.610058"
     height="1465.2228"
     x="6.7362742"
     y="9.4410372"
     ry="7.3220072" /><path
     id="rect22"
     d="m 17.154244,6.7226601 c -5.77106,0 -10.4179698,4.6469099 -10.4179698,10.4179699 v 2.77539 c 0,5.77106 4.6469098,10.41601 10.4179698,10.41601 H 1142.413 l -7.7269,-14.84106 -25.8544,-8.7683099 z m 1431.938956,0 -22.719,8.3486999 -9.5077,15.26067 h 588.2936 c 5.7711,0 10.418,-4.64495 10.418,-10.41601 v -2.77539 c 0,-5.77106 -4.6469,-10.4179699 -10.418,-10.4179699 z"
     style="fill:#4f4f4f;fill-opacity:1;stroke-width:3.77953"
     sodipodi:nodetypes="sssscccscccssssc" /><rect
     style="display:inline;fill:#4f4f4f;fill-opacity:1;stroke:none;stroke-width:2.329;stroke-opacity:1;-inkscape-stroke:none;paint-order:markers stroke fill;stop-color:#000000"
     id="rect31366-1-94"
     width="23.610058"
     height="618.06036"
     x="1992.5714"
     y="6.7257128"
     ry="5.7020664" /><rect
     style="display:inline;fill:#4f4f4f;fill-opacity:1;stroke:none;stroke-width:2.56882;stroke-opacity:1;-inkscape-stroke:none;paint-order:markers stroke fill;stop-color:#000000"
     id="rect31366-1-6"
     width="23.610058"
     height="751.89996"
     x="-623.43256"
     y="678.99573"
     ry="6.9368353"
     transform="rotate(-90)" /><rect
     style="display:inline;fill:#4f4f4f;fill-opacity:1;stroke:none;stroke-width:2.47013;stroke-opacity:1;-inkscape-stroke:none;paint-order:markers stroke fill;stop-color:#000000"
     id="rect31366-1-6-4"
     width="23.610058"
     height="695.23584"
     x="-1474.6858"
     y="6.6287756"
     ry="6.4140668"
     transform="rotate(-90)" /><path
     d="m 1243.2681,31.086332 6.0944,57.095356 a 61.404756,59.8107 75 0 0 -0.6971,0.363749 l -34.4232,-29.075824 17.8091,40.187374 -29.0518,-16.001589 20.404,26.896602 a 61.404756,59.8107 75 0 0 -0.3391,0.60613 l -54.4937,-1.36701 47.013,19.48982 a 61.404756,59.8107 75 0 0 -0.4566,1.98135 l -25.5828,2.54437 24.6325,3.92288 a 61.404756,59.8107 75 0 0 -0.01,0.0547 l -47.8535,18.29722 51.2108,8.68402 a 61.404756,59.8107 75 0 0 0.4458,1.29923 l -30.3656,17.38614 29.6385,-6.61374 -43.3611,52.64194 58.4971,-39.07664 -19.4133,52.56719 35.3826,-42.94997 5.4264,50.77344 16.5004,-45.25852 a 61.404756,59.8107 75 0 0 2.4836,0.23795 l 21.6155,47.12335 -0.6501,-48.65298 21.7927,24.93781 -9.4503,-24.78112 44.1589,24.40841 -29.3169,-46.23331 a 61.404756,59.8107 75 0 0 1.9506,-2.54738 l 33.1818,7.03439 -22.4054,-22.98049 65.7147,1.10008 -63.6969,-21.30461 38.3542,-14.9847 -42.9371,-1.07694 a 61.404756,59.8107 75 0 0 -0.2844,-0.9702 l 38.6686,-43.918961 -52.3126,20.005031 a 61.404756,59.8107 75 0 0 -1.178,-1.22787 l 11.7451,-22.59303 -17.9426,14.972152 23.2495,-63.741361 -39.4571,56.639507 a 61.404756,59.8107 75 0 0 -2.0684,-0.73053 l 6.3325,-33.150368 -17.8798,30.556158 a 61.404756,59.8107 75 0 0 -0.4802,-0.05532 l -2.0848,-38.921216 -9.0256,38.720442 a 61.404756,59.8107 75 0 0 -1.8285,0.156264 z"
     fill="url(#a)"
     id="path7"
     style="opacity:0.8;fill:url(#a);stroke-width:2.34149" /><path
     style="opacity:1;fill:#575759;fill-opacity:1;stroke:#48484a;stroke-width:18.1492;stroke-opacity:1;paint-order:stroke fill markers"
     d="m 1134.1739,263.69848 -34,-47 27.7546,-8.84616 31,34.38169 z"
     id="path1"
     sodipodi:nodetypes="ccccc" /><path
     style="opacity:1;fill:#575759;fill-opacity:1;stroke:#48484a;stroke-width:18.1492;stroke-opacity:1;paint-order:stroke fill markers"
     d="m 1431.2441,184.14712 -30.4862,32.42026 -19.8927,-7.52493 21.7656,-24.59431 z"
     id="path2"
     sodipodi:nodetypes="ccccc" /><path
     style="opacity:1;fill:#575759;fill-opacity:1;stroke:#48484a;stroke-width:18.1492;stroke-opacity:1;paint-order:stroke fill markers"
     d="m 1096.9482,117.28205 -16.2668,-26.815927 15.3496,-22.484979 24.1383,21.237337 z"
     id="path3"
     sodipodi:nodetypes="ccccc" /></svg>
