<?xml version="1.0" encoding="UTF-8" standalone="no"?>
<!-- Created with Inkscape (http://www.inkscape.org/) -->

<svg
   width="623.61707"
   height="397.422"
   viewBox="0 0 164.99868 105.15124"
   version="1.1"
   id="svg1"
   inkscape:version="1.3.2 (1:1.3.2+202311252150+091e20ef0f)"
   sodipodi:docname="floor_oil_05.svg"
   xmlns:inkscape="http://www.inkscape.org/namespaces/inkscape"
   xmlns:sodipodi="http://sodipodi.sourceforge.net/DTD/sodipodi-0.dtd"
   xmlns="http://www.w3.org/2000/svg"
   xmlns:svg="http://www.w3.org/2000/svg">
  <sodipodi:namedview
     id="namedview1"
     pagecolor="#505050"
     bordercolor="#eeeeee"
     borderopacity="1"
     inkscape:showpageshadow="0"
     inkscape:pageopacity="0"
     inkscape:pagecheckerboard="0"
     inkscape:deskcolor="#505050"
     inkscape:document-units="mm"
     inkscape:zoom="1.0494603"
     inkscape:cx="146.74209"
     inkscape:cy="108.15083"
     inkscape:window-width="2560"
     inkscape:window-height="1368"
     inkscape:window-x="0"
     inkscape:window-y="0"
     inkscape:window-maximized="1"
     inkscape:current-layer="layer1" />
  <defs
     id="defs1" />
  <g
     inkscape:label="Calque 1"
     inkscape:groupmode="layer"
     id="layer1"
     transform="translate(-657.7969,-406.73023)">
    <path
       style="fill:#454545;fill-opacity:0.87841797;stroke:none;stroke-width:2.559;stroke-linecap:square;stroke-linejoin:round;stroke-dasharray:none;stroke-opacity:1;paint-order:fill markers stroke;stop-color:#000000"
       d="m 667.6743,453.93971 c 18.78388,-2.04038 19.62867,-56.25796 43.60763,-41.36227 17.6663,10.97427 36.65961,17.09757 53.75747,2.09955 14.19924,-12.45539 36.47304,-9.68491 50.47851,4.23189 15.97125,15.87014 0.64433,34.70485 0.85141,52.92619 0.30315,26.67459 -21.70175,34.79609 -40.04411,25.41381 -21.16863,-10.82795 -40.52687,23.39585 -51.88756,12.43996 -10.30009,-9.93308 -4.37613,-46.51392 -24.5643,-36.06874 -17.49229,9.05036 -55.06782,-14.53938 -37.51937,-18.79227 0,0 1.53595,-0.42524 2.31969,-0.56218 0.99108,-0.17317 3.00063,-0.32594 3.00063,-0.32594 z"
       id="path24103"
       sodipodi:nodetypes="sssssssssss" />
  </g>
</svg>
