<?xml version="1.0" encoding="UTF-8" standalone="no"?>
<!-- Created with Inkscape (http://www.inkscape.org/) -->

<svg
   width="127.02068mm"
   height="94.611694mm"
   viewBox="0 0 127.02068 94.611694"
   version="1.1"
   id="svg1"
   inkscape:version="1.3 (0e150ed6c4, 2023-07-21)"
   sodipodi:docname="floor_oil_01.svg"
   xmlns:inkscape="http://www.inkscape.org/namespaces/inkscape"
   xmlns:sodipodi="http://sodipodi.sourceforge.net/DTD/sodipodi-0.dtd"
   xmlns="http://www.w3.org/2000/svg"
   xmlns:svg="http://www.w3.org/2000/svg">
  <sodipodi:namedview
     id="namedview1"
     pagecolor="#505050"
     bordercolor="#eeeeee"
     borderopacity="1"
     inkscape:showpageshadow="0"
     inkscape:pageopacity="0"
     inkscape:pagecheckerboard="0"
     inkscape:deskcolor="#505050"
     inkscape:document-units="mm"
     inkscape:zoom="0.74208053"
     inkscape:cx="-165.75021"
     inkscape:cy="144.86298"
     inkscape:window-width="1920"
     inkscape:window-height="1009"
     inkscape:window-x="1912"
     inkscape:window-y="-8"
     inkscape:window-maximized="1"
     inkscape:current-layer="layer1" />
  <defs
     id="defs1" />
  <g
     inkscape:label="Calque 1"
     inkscape:groupmode="layer"
     id="layer1"
     transform="translate(-148.69588,-224.36666)">
    <path
       style="fill:#464646;fill-opacity:0.881041;stroke:none;stroke-width:1.5;stroke-linecap:square;stroke-linejoin:round;stroke-dasharray:none;stroke-opacity:1;paint-order:fill markers stroke;stop-color:#000000"
       d="m 156.6031,316.60259 c 2.4694,0 4.949,0.22358 7.4083,0 11.3898,-1.03542 -3.1697,-0.8477 8.4667,-3.175 2.0757,-0.4151 4.2333,0 6.35,0 12.9998,0 25.1799,-0.1303 38.1,2.11667 3.5499,0.61738 12.9416,3.20564 13.7583,2.11667 2.2921,-3.0561 -0.2013,-14.61532 1.0584,-15.875 0.499,-0.4989 1.411,0 2.1166,0 2.1167,0 4.2334,0 6.35,0 3.8807,0 7.7611,0 11.6417,0 0.9964,0 22.8052,-0.68247 23.2833,-2.11667 1.1406,-3.42175 0.5004,-28.13246 -1.0583,-32.80833 -1.3724,-4.11689 -10.0777,-12.24108 -10.5833,-13.75834 -0.2231,-0.66934 0.3156,-1.48561 0,-2.11666 -0.7888,-1.57766 -2.073,-2.85597 -3.175,-4.23334 -0.3117,-0.38957 -0.5594,-1.05833 -1.0584,-1.05833 -1.1155,0 -2.0928,0.78777 -3.175,1.05833 -6.2545,1.56361 -23.2447,0.61251 -28.575,-4.23333 -5.3813,-4.89215 -8.9466,-11.47998 -13.7583,-16.93333 -0.522,-0.59151 -1.5589,-1.61613 -2.1167,-1.05834 -4.6879,4.68786 -9.1842,22.87233 -12.7,29.63334 -2.8472,5.4751 -6.4413,10.5297 -9.525,15.875 -2.209,3.82878 -4.0073,7.89326 -6.35,11.64166 -1.1972,1.91553 -2.9204,3.45356 -4.2333,5.29167 -0.4585,0.64191 -0.5006,1.55887 -1.0583,2.11667 -0.2495,0.24945 -0.9007,-0.31555 -1.0584,0 -2.6593,5.31884 -2.3484,9.47237 -6.35,15.875 -4.0716,6.51457 -5.0755,3.38367 -9.525,6.35 -1.7481,1.16543 -2.7297,4.69026 -4.2333,5.29166 -2.2929,0.91713 -4.9638,-0.34922 -7.4083,0 -0.6985,0.0998 -0.6311,1.80113 0,2.11667 2.1558,1.07786 6.2103,-1.51765 7.4083,-2.11667 z"
       id="path62806" />
  </g>
</svg>
