<?xml version="1.0" encoding="UTF-8" standalone="no"?>
<!-- Created with Inkscape (http://www.inkscape.org/) -->

<svg
   width="174.10759mm"
   height="166.20685mm"
   viewBox="0 0 174.10759 166.20685"
   version="1.1"
   id="svg1"
   inkscape:version="1.3 (0e150ed6c4, 2023-07-21)"
   sodipodi:docname="floor_oil_04.svg"
   xmlns:inkscape="http://www.inkscape.org/namespaces/inkscape"
   xmlns:sodipodi="http://sodipodi.sourceforge.net/DTD/sodipodi-0.dtd"
   xmlns="http://www.w3.org/2000/svg"
   xmlns:svg="http://www.w3.org/2000/svg">
  <sodipodi:namedview
     id="namedview1"
     pagecolor="#505050"
     bordercolor="#eeeeee"
     borderopacity="1"
     inkscape:showpageshadow="0"
     inkscape:pageopacity="0"
     inkscape:pagecheckerboard="0"
     inkscape:deskcolor="#505050"
     inkscape:document-units="mm"
     inkscape:zoom="0.74208053"
     inkscape:cx="192.70146"
     inkscape:cy="272.88144"
     inkscape:window-width="1920"
     inkscape:window-height="1009"
     inkscape:window-x="1912"
     inkscape:window-y="-8"
     inkscape:window-maximized="1"
     inkscape:current-layer="layer1" />
  <defs
     id="defs1" />
  <g
     inkscape:label="Calque 1"
     inkscape:groupmode="layer"
     id="layer1"
     transform="translate(-53.710389,-76.200003)">
    <path
       style="fill:#333333;fill-opacity:1;stroke:none;stroke-width:2.559;stroke-linecap:square;stroke-linejoin:round;stroke-dasharray:none;stroke-opacity:1;paint-order:fill markers stroke;stop-color:#000000"
       d="m 71.0483,178.71016 c 5.9972,-3.8805 11.5127,-8.6336 17.9917,-11.64165 7.0055,-3.2526 25.2198,-2.11666 30.6916,-2.11666 25.3794,0 4.2972,-0.69848 29.6334,2.11666 1.4024,0.15582 2.8414,-0.23198 4.2333,0 4.5476,0.75793 7.039,7.47585 9.525,10.58335 0.6233,0.7791 1.2242,1.6704 2.1167,2.1167 2.1228,1.0614 13.9149,4.0031 16.9333,2.1166 3.4348,-2.1467 10.1178,-16.21714 10.5833,-16.93331 6.045,-9.29992 13.1683,-15.7157 13.7583,-27.51667 0.4285,-8.56882 1.7365,-24.95005 -3.175,-32.80833 -6.5181,-10.429 -23.5456,-20.04277 -35.9833,-16.93333 -18.1849,4.54622 -18.4611,8.97104 -40.2166,17.99166 -1.6535,0.68559 -17.2873,6.2084 -22.225,4.23333 -1.181,-0.47238 -2.0374,-1.54783 -3.175,-2.11666 -4.3265,-2.16324 -15.0992,-3.58997 -20.1084,-2.11667 -20.0082,5.88476 -21.0516,21.1359 -26.4583,39.15833 -0.418,1.39319 -2.2686,3.42649 -1.0583,4.23334 2.2354,1.49029 5.13,1.75106 7.4083,3.175 3.1376,0.52882 4.0575,3.7633 6.35,5.29166 0.2935,0.19569 0.8089,-0.24944 1.0583,0 2.5769,2.57683 -4.1813,13.96635 -3.175,17.99165 0.4989,1.9956 3.4518,2.2551 5.2917,3.175 z"
       id="path20767" />
    <path
       style="fill:#333333;fill-opacity:1;stroke:none;stroke-width:2.559;stroke-linecap:square;stroke-linejoin:round;stroke-dasharray:none;stroke-opacity:1;paint-order:fill markers stroke;stop-color:#000000"
       d="m 226.8879,95.10185 c -2.0996,0.41992 -1.7718,0.40952 -4.7625,0.52916 -3.7751,0.151 -9.7127,-0.53821 -8.9958,-5.55624 0.2144,-1.50157 1.5237,-2.84994 2.1166,-4.23334 0.9559,-2.23036 1.4137,-4.65386 2.3813,-6.87916 0.2251,-0.5179 0.7194,-0.87115 1.0583,-1.32292 0.3085,-0.4114 0.4301,-0.95927 0.7938,-1.32292 0.3701,-0.37018 3.4311,0.26035 3.4395,0.26459 0.5506,0.27527 3.5512,2.41641 4.2334,3.43958 0.4195,0.62939 0.1972,1.44285 0.2646,2.11667 0.1782,1.7826 0.6244,4.02126 0.2645,5.82083 -0.235,1.17515 -0.658,2.21779 -0.7937,3.43958 -0.1316,1.18396 0,2.52 0,3.70417 z"
       id="path21338" />
    <path
       style="fill:#333333;fill-opacity:1;stroke:none;stroke-width:2.559;stroke-linecap:square;stroke-linejoin:round;stroke-dasharray:none;stroke-opacity:1;paint-order:fill markers stroke;stop-color:#000000"
       d="m 100.6816,217.33936 c 0.8311,9.225 2.5392,15.7905 -5.8208,17.4625 -3.5657,0.7131 -7.1336,1.4959 -10.5833,2.6458 -3.6046,1.2015 -6.9788,3.0318 -10.5834,4.2334 -3.308,1.1026 -10.9804,0.9666 -13.7583,-0.5292 -3.4729,-1.87 -3.391,-13.9599 -2.1167,-16.9333 0.8056,-1.8797 4.1599,-4.6659 6.35,-5.2917 0.5088,-0.1454 1.1012,0.2084 1.5875,0 1.8485,-0.7923 3.4097,-2.2161 4.7625,-3.7042 1.0207,-1.1227 1.685,-2.5298 2.6459,-3.7041 1.3666,-1.6704 3.5024,-2.9985 4.7625,-4.7625 1.1684,-1.6358 0.572,-2.1453 2.1166,-3.175 0.4403,-0.2936 1.0584,0 1.5875,0 1.2347,0 2.517,-0.3393 3.7042,0 3.1766,0.9076 6.4305,3.9066 8.4667,6.35 0.4791,0.5748 0.9457,1.2024 1.5875,1.5875 0.3025,0.1815 0.7236,-0.1116 1.0583,0 0.7714,0.2571 3.9308,1.4358 4.2333,2.6458 0.2567,1.0267 0,2.1167 0,3.175 z"
       id="path21340" />
  </g>
</svg>
