<svg xmlns="http://www.w3.org/2000/svg" xml:space="preserve" width="72.844" height="70" viewBox="0 0 19.273 18.521"><path d="M-165.541-136.088s.925.432 1.895 1.353c1.072 1.016 2.805 3.438 3.676 4.203.836.733 1.305.52 1.305.52l1.13.11-1.727-1.302 1.882.589-1.528-1.336 2.476.782-1.612-1.097.77-.048.733-.136s-.654-.15-1.626-.866c-.912-.67-2.182-2.633-3.447-3.765-1.048-.939-2.204-1.083-2.204-1.083l.194.514.41.656-1.318-.37.569.728-1.093-.332.803.984-1.642-.495zM-172.213-129.375s-.17-1.006.036-2.328c.228-1.46 1.236-4.262 1.37-5.413.128-1.104-.037-1.705-.037-1.705l-.7 1.557-.175-1.335-.59.794-.347-.5-.516 1.116-.31-1.647-.324.513-.527-.525s.248.624.211 1.83c-.034 1.131-.927 3.292-1.14 4.975-.177 1.397.238 3.195.238 3.195l.337-1.352.442.917.31-1.244.434.881.306-.517.454 1.15.15-1.19zM-165.822-140.461s.57-.66 1.67-1.315c1.215-.723 4.013-1.828 4.933-2.42.883-.569 1.172-.994 1.172-.994l-1.443.482-.87.315.403-.94-1.204.698.065-.773-.884.338.325-.495.781-1.367s-.238.48-1.117 1.152c-.825.63-3.077 1.425-4.437 2.283-1.129.712-2.33 1.594-2.33 1.594l1.983-.607-1.05 1.06.877-.22.057.433 1.008-.62-.625 1.341.96-.606z" style="font-variation-settings:normal;opacity:.7;fill:#edf5f9;fill-opacity:1;stroke:#232323;stroke-width:.509828;stroke-linecap:square;stroke-linejoin:miter;stroke-miterlimit:4;stroke-dasharray:none;stroke-dashoffset:0;stroke-opacity:1" transform="translate(175.562 147.058)"/></svg>