<svg xmlns="http://www.w3.org/2000/svg" width="47.17" height="53.633" fill="none" viewBox="0 0 47.17 53.633"><path d="M29.351 3.337a10.52 10.52 0 0 0-6.556 2.318 17 17 0 0 0-2.451-.177A17.034 17.034 0 0 0 3.31 22.51 17.03 17.03 0 0 0 14.031 38.29a12.575 12.575 0 0 0 12.555 12.314 12.575 12.575 0 0 0 12.576-12.576 13 13 0 0 0-.123-1.73 12.58 12.58 0 0 0 7.078-11.29 12.58 12.58 0 0 0-6.262-10.872l.02-.276A10.524 10.524 0 0 0 29.35 3.337" style="fill:#8a4c70;fill-opacity:.50196081;stroke-width:.579;stroke-linecap:round;stroke-linejoin:round"/><defs><radialGradient id="a" cx="0" cy="0" r="1" gradientTransform="rotate(-48.346 40.674 -10.973)scale(24.7673 24.0332)" gradientUnits="userSpaceOnUse"><stop stop-opacity=".3"/><stop offset="1" stop-opacity=".2"/></radialGradient></defs><path fill="url(#a)" d="m11.751 19.926-7.707-9.37 10.2 6.56.304-.241-2.904-7.883 4.889 6.63.091-.048-.393-7.47 2.732 6.587q.225-.06.45-.111L19.8 0l3.3 13.951 1.427-4.726.552 5.351.35.08 6.91-9.607-1.724 12.244.163.137 7.704-4.797-5.03 7.1 13.718-3.637-11.727 7.437 6.624 1.455-6.674 2.612-.025.4-.024.275 10.545 4.756-10.63.82 4.547 3.278-6.744-1.871 5.767 8.514-9.29-5.81q-.23.13-.465.247l2.344 9.906-6.855-8.332-1.257 11.692-2.679-11.534-5.787 13.692 1.54-14.328-4.464 4.609 3.34-6.596-.229-.177L4.98 41.557l6.316-8.8-4.803 2.17 4.22-3.421-.15-.402L0 33.125l9.778-6.09-.01-.146-6.726-2.377 6.986-.55-7.811-5.024 9.453 1.132z" style="fill:url(#a)"/></svg>