<svg xmlns="http://www.w3.org/2000/svg" width="184.045" height="667.188" viewBox="0 0 48.695 176.527"><path d="M4529.226 1889.105h35.553v172.558h-35.553z" style="fill:#725940;fill-opacity:1;stroke:#3e3220;stroke-width:3.96875;stroke-dasharray:none;stroke-opacity:1" transform="translate(-4526.21 -1887.12)"/><path d="M4553.684 1891.254h9.066v168.241h-9.066z" style="fill:#6c543d;fill-opacity:1;stroke:none;stroke-width:1.2184;stroke-dasharray:none;stroke-opacity:1" transform="translate(-4526.21 -1887.12)"/><path d="M4546.798 1969.559h12.278v4.093h-12.278z" style="fill:#555;fill-opacity:1;stroke:#383838;stroke-width:.996;stroke-dasharray:none;stroke-opacity:1" transform="translate(-4526.21 -1887.12)"/><path d="M4531.24 1891.24h9.066v168.213h-9.066z" style="fill:#6c543d;fill-opacity:1;stroke:none;stroke-width:1.2183;stroke-dasharray:none;stroke-opacity:1" transform="translate(-4526.21 -1887.12)"/><path d="M4546.933 1984.145h12.278v4.093h-12.278zM4546.724 1922.179h12.278v4.093h-12.278zM4546.858 1936.765h12.278v4.093h-12.278z" style="fill:#555;fill-opacity:1;stroke:#383838;stroke-width:.996;stroke-dasharray:none;stroke-opacity:1" transform="translate(-4526.21 -1887.12)"/><path d="M-1939.163 4551.093h14.822v4.006h-14.822zM-1986.542 4551.167h14.822v4.006h-14.822z" style="fill:#555;fill-opacity:1;stroke:#383838;stroke-width:1.08269;stroke-dasharray:none;stroke-opacity:1" transform="rotate(-90 -3206.665 1319.545)"/><path d="M4546.78 2019.441h12.278v4.093h-12.278zM4546.915 2034.027h12.278v4.093h-12.278z" style="fill:#555;fill-opacity:1;stroke:#383838;stroke-width:.996;stroke-dasharray:none;stroke-opacity:1" transform="translate(-4526.21 -1887.12)"/><path d="M-2036.425 4551.149h14.822v4.006h-14.822z" style="fill:#555;fill-opacity:1;stroke:#383838;stroke-width:1.08269;stroke-dasharray:none;stroke-opacity:1" transform="rotate(-90 -3206.665 1319.545)"/><path d="m4541.91 1933.68-4.3 9.262 7.557-7.592 6.306.569-4.83-2.898 1.533-4.894-4.08 3.343z" style="display:inline;fill:#574634;fill-opacity:1;stroke:none;stroke-width:1.70826;stroke-linecap:round;stroke-linejoin:round;stroke-miterlimit:29;stroke-dasharray:none;stroke-opacity:1" transform="translate(-4526.21 -1887.12)"/><path d="M-11.189 6.652h-1.629c.166 1.133.143 2.214 0 3.445h1.63z" style="fill:#262626;fill-opacity:1;stroke:#171717;stroke-width:.79375;stroke-linecap:butt;stroke-linejoin:round;stroke-dasharray:none;stroke-opacity:1" transform="matrix(1.06438 0 0 1.06438 22.075 35.145)"/><path d="M-11.618 9.997h4.62c1.378-.504 2.866-.763 4.812 0v-3.44c-1.748.613-3.353.578-4.836 0h-4.596z" style="fill:#775426;fill-opacity:1;stroke:none;stroke-width:.79375;stroke-linecap:round;stroke-linejoin:round;stroke-dasharray:none;stroke-opacity:1" transform="matrix(1.06438 0 0 1.06438 22.075 35.145)"/><path d="M-7.156 6.964c.715 1.319.328 2.062 0 2.81h5.303V6.957Z" style="fill:#61441f;fill-opacity:1;stroke:none;stroke-width:.79375;stroke-linecap:round;stroke-linejoin:round;stroke-dasharray:none;stroke-opacity:1" transform="matrix(1.06438 0 0 1.06438 22.075 35.145)"/><path d="M-11.64 10.094h4.62c1.378-.504 2.866-.763 4.812 0v-3.44c-1.748.613-3.352.578-4.836 0h-4.595z" style="fill:none;fill-opacity:1;stroke:#23190b;stroke-width:.79375;stroke-linecap:round;stroke-linejoin:round;stroke-dasharray:none;stroke-opacity:1" transform="matrix(1.06438 0 0 1.06438 22.075 35.145)"/><path d="M13.7 7.466h9.676v1.852H13.7Z" class="cls-3" style="opacity:.997;isolation:isolate;fill:#393939;fill-opacity:1;fill-rule:evenodd;stroke:none;stroke-width:.79375px;stroke-linecap:round;stroke-linejoin:round;stroke-miterlimit:5.89;stroke-opacity:1" transform="matrix(1.06438 0 0 1.06438 22.075 35.145)"/><path d="m8.471 10.623 5.775-.529v-3.44L8.47 6.125Z" style="fill:#61441f;fill-opacity:1;stroke:#23190b;stroke-width:.79375;stroke-linecap:round;stroke-linejoin:round;stroke-dasharray:none;stroke-opacity:1" transform="matrix(1.06438 0 0 1.06438 22.075 35.145)"/><path d="m-2.869 9.582.597.53H7.915l.752-.53h2.286v-2.38H8.625l-.734-.53H-2.284l-.585.53z" style="fill:#474747;fill-opacity:1;stroke:none;stroke-width:.79375;stroke-linecap:round;stroke-linejoin:round;stroke-dasharray:none;stroke-opacity:1" transform="matrix(1.06438 0 0 1.06438 22.075 35.145)"/><path d="m-1.728 9.038.291.418h7.98l-.024-2.121h-7.967l-.28.446z" style="fill:#595959;fill-opacity:1;stroke:none;stroke-width:.79375;stroke-linecap:round;stroke-linejoin:round;stroke-dasharray:none;stroke-opacity:1" transform="matrix(1.06438 0 0 1.06438 22.075 35.145)"/><path d="m-2.75 9.565.598.827H8.034l.752-.827h2.287V7.184H8.744l-.733-.761H-2.164l-.586.76z" style="fill:none;fill-opacity:1;stroke:#171717;stroke-width:.79375;stroke-linecap:round;stroke-linejoin:round;stroke-dasharray:none;stroke-opacity:1" transform="matrix(1.06438 0 0 1.06438 22.075 35.145)"/><path d="M6.672 10.171v-3.52" style="fill:none;fill-opacity:1;stroke:#171717;stroke-width:.79375;stroke-linecap:butt;stroke-linejoin:round;stroke-dasharray:none;stroke-opacity:1" transform="matrix(1.06438 0 0 1.06438 22.075 35.145)"/><path d="M21.257 7.482h1.3V9.31h-1.3zM6.203 9.369h.77v1.827c-.225.14-.468.2-.77 0z" style="fill:#4d4d4d;stroke:#171717;stroke-width:.396875;stroke-linecap:round;stroke-linejoin:round;stroke-dasharray:none" transform="matrix(1.06438 0 0 1.06438 22.075 35.145)"/><path d="M13.7 7.448h9.676V9.3H13.7Z" class="cls-3" style="opacity:.997;isolation:isolate;fill:none;fill-opacity:1;fill-rule:evenodd;stroke:#171717;stroke-width:.79375px;stroke-linecap:round;stroke-linejoin:round;stroke-miterlimit:5.89;stroke-opacity:1" transform="matrix(1.06438 0 0 1.06438 22.075 35.145)"/><path d="M17.289 7.184h1.804v2.38h-1.804v-.34l-3.175-.006V7.513l3.175-.013Z" class="cls-3" style="opacity:.997;isolation:isolate;fill:#4d4d4d;fill-opacity:1;fill-rule:evenodd;stroke:#171717;stroke-width:.79375px;stroke-linecap:round;stroke-linejoin:round;stroke-miterlimit:5.89;stroke-opacity:1" transform="matrix(1.06438 0 0 1.06438 22.075 35.145)"/><path d="m14.221 6.652 1.027.282v2.91l-1.027.248z" class="cls-3" style="opacity:.997;isolation:isolate;fill:#393939;fill-opacity:1;fill-rule:evenodd;stroke:#171717;stroke-width:.79375px;stroke-linecap:round;stroke-linejoin:round;stroke-miterlimit:5.89;stroke-opacity:1" transform="matrix(1.06438 0 0 1.06438 22.075 35.145)"/><path d="m10.394 10.447 3.848-.355V6.661l-3.848-.364Z" style="fill:#775426;fill-opacity:1;stroke:#23190b;stroke-width:.79375;stroke-linecap:round;stroke-linejoin:round;stroke-dasharray:none;stroke-opacity:1" transform="matrix(1.06438 0 0 1.06438 22.075 35.145)"/><path d="M9.674 7.759v1.23c0 .027-.026.027-.026.027h-.612c-.027 0-.027-.027-.027-.027v-.238H7.77v.291c0 .027-.026.027-.026.027H7.4c-.026 0-.026-.027-.026-.027v-.29h-.477c-.026 0-.026-.027-.026-.027v-.701s0-.027.026-.027h.477v-.29s0-.027.026-.027h.344s.026 0 .026.026v.291h1.24V7.76s0-.026.027-.026h.612s.026 0 .026.026z" class="cls-8" style="fill:#595959;fill-opacity:1;fill-rule:evenodd;stroke:#161616;stroke-width:.396875px;stroke-linecap:round;stroke-miterlimit:15.1181;stroke-opacity:1" transform="matrix(1.06438 0 0 1.06438 22.075 35.145)"/><path d="M7.14 10.288H3.68v-.362c.009-.29.158-.488.508-.509h2.953z" style="fill:#393939;fill-opacity:1;stroke:#171717;stroke-width:.396875;stroke-linecap:butt;stroke-linejoin:round;stroke-dasharray:none;stroke-opacity:1" transform="matrix(1.06438 0 0 1.06438 22.075 35.145)"/><path d="m4541.642 1976.9.676 8.5 4.417 9.78.694 9.69-2.387-9.223-4.629-10.04z" style="fill:#574634;fill-opacity:1;stroke:#574634;stroke-width:.498948;stroke-linecap:butt;stroke-linejoin:miter;stroke-dasharray:none;stroke-opacity:1" transform="translate(-4526.21 -1887.12)"/><path d="m4553.585 2048.332 3.647-6.972-.614-8.021-1.271 6.48-2.23 5.98z" style="fill:#574634;fill-opacity:1;stroke:none;stroke-width:.318901px;stroke-linecap:butt;stroke-linejoin:miter;stroke-opacity:1" transform="translate(-4526.21 -1887.12)"/><path d="M-11.189 6.652h-1.629c.166 1.133.143 2.214 0 3.445h1.63z" style="fill:#262626;fill-opacity:1;stroke:#171717;stroke-width:.79375;stroke-linecap:butt;stroke-linejoin:round;stroke-dasharray:none;stroke-opacity:1" transform="matrix(1.06438 0 0 1.06438 23.392 82.893)"/><path d="M-11.618 9.997h4.62c1.378-.504 2.866-.763 4.812 0v-3.44c-1.748.613-3.353.578-4.836 0h-4.596z" style="fill:#775426;fill-opacity:1;stroke:none;stroke-width:.79375;stroke-linecap:round;stroke-linejoin:round;stroke-dasharray:none;stroke-opacity:1" transform="matrix(1.06438 0 0 1.06438 23.392 82.893)"/><path d="M-7.156 6.964c.715 1.319.328 2.062 0 2.81h5.303V6.957Z" style="fill:#61441f;fill-opacity:1;stroke:none;stroke-width:.79375;stroke-linecap:round;stroke-linejoin:round;stroke-dasharray:none;stroke-opacity:1" transform="matrix(1.06438 0 0 1.06438 23.392 82.893)"/><path d="M-11.64 10.094h4.62c1.378-.504 2.866-.763 4.812 0v-3.44c-1.748.613-3.352.578-4.836 0h-4.595z" style="fill:none;fill-opacity:1;stroke:#23190b;stroke-width:.79375;stroke-linecap:round;stroke-linejoin:round;stroke-dasharray:none;stroke-opacity:1" transform="matrix(1.06438 0 0 1.06438 23.392 82.893)"/><path d="M13.7 7.466h9.676v1.852H13.7Z" class="cls-3" style="opacity:.997;isolation:isolate;fill:#393939;fill-opacity:1;fill-rule:evenodd;stroke:none;stroke-width:.79375px;stroke-linecap:round;stroke-linejoin:round;stroke-miterlimit:5.89;stroke-opacity:1" transform="matrix(1.06438 0 0 1.06438 23.392 82.893)"/><path d="m8.471 10.623 5.775-.529v-3.44L8.47 6.125Z" style="fill:#61441f;fill-opacity:1;stroke:#23190b;stroke-width:.79375;stroke-linecap:round;stroke-linejoin:round;stroke-dasharray:none;stroke-opacity:1" transform="matrix(1.06438 0 0 1.06438 23.392 82.893)"/><path d="m-2.869 9.582.597.53H7.915l.752-.53h2.286v-2.38H8.625l-.734-.53H-2.284l-.585.53z" style="fill:#474747;fill-opacity:1;stroke:none;stroke-width:.79375;stroke-linecap:round;stroke-linejoin:round;stroke-dasharray:none;stroke-opacity:1" transform="matrix(1.06438 0 0 1.06438 23.392 82.893)"/><path d="m-1.728 9.038.291.418h7.98l-.024-2.121h-7.967l-.28.446z" style="fill:#595959;fill-opacity:1;stroke:none;stroke-width:.79375;stroke-linecap:round;stroke-linejoin:round;stroke-dasharray:none;stroke-opacity:1" transform="matrix(1.06438 0 0 1.06438 23.392 82.893)"/><path d="m-2.75 9.565.598.827H8.034l.752-.827h2.287V7.184H8.744l-.733-.761H-2.164l-.586.76z" style="fill:none;fill-opacity:1;stroke:#171717;stroke-width:.79375;stroke-linecap:round;stroke-linejoin:round;stroke-dasharray:none;stroke-opacity:1" transform="matrix(1.06438 0 0 1.06438 23.392 82.893)"/><path d="M6.672 10.171v-3.52" style="fill:none;fill-opacity:1;stroke:#171717;stroke-width:.79375;stroke-linecap:butt;stroke-linejoin:round;stroke-dasharray:none;stroke-opacity:1" transform="matrix(1.06438 0 0 1.06438 23.392 82.893)"/><path d="M21.257 7.482h1.3V9.31h-1.3zM6.203 9.369h.77v1.827c-.225.14-.468.2-.77 0z" style="fill:#4d4d4d;stroke:#171717;stroke-width:.396875;stroke-linecap:round;stroke-linejoin:round;stroke-dasharray:none" transform="matrix(1.06438 0 0 1.06438 23.392 82.893)"/><path d="M13.7 7.448h9.676V9.3H13.7Z" class="cls-3" style="opacity:.997;isolation:isolate;fill:none;fill-opacity:1;fill-rule:evenodd;stroke:#171717;stroke-width:.79375px;stroke-linecap:round;stroke-linejoin:round;stroke-miterlimit:5.89;stroke-opacity:1" transform="matrix(1.06438 0 0 1.06438 23.392 82.893)"/><path d="M17.289 7.184h1.804v2.38h-1.804v-.34l-3.175-.006V7.513l3.175-.013Z" class="cls-3" style="opacity:.997;isolation:isolate;fill:#4d4d4d;fill-opacity:1;fill-rule:evenodd;stroke:#171717;stroke-width:.79375px;stroke-linecap:round;stroke-linejoin:round;stroke-miterlimit:5.89;stroke-opacity:1" transform="matrix(1.06438 0 0 1.06438 23.392 82.893)"/><path d="m14.221 6.652 1.027.282v2.91l-1.027.248z" class="cls-3" style="opacity:.997;isolation:isolate;fill:#393939;fill-opacity:1;fill-rule:evenodd;stroke:#171717;stroke-width:.79375px;stroke-linecap:round;stroke-linejoin:round;stroke-miterlimit:5.89;stroke-opacity:1" transform="matrix(1.06438 0 0 1.06438 23.392 82.893)"/><path d="m10.394 10.447 3.848-.355V6.661l-3.848-.364Z" style="fill:#775426;fill-opacity:1;stroke:#23190b;stroke-width:.79375;stroke-linecap:round;stroke-linejoin:round;stroke-dasharray:none;stroke-opacity:1" transform="matrix(1.06438 0 0 1.06438 23.392 82.893)"/><path d="M9.674 7.759v1.23c0 .027-.026.027-.026.027h-.612c-.027 0-.027-.027-.027-.027v-.238H7.77v.291c0 .027-.026.027-.026.027H7.4c-.026 0-.026-.027-.026-.027v-.29h-.477c-.026 0-.026-.027-.026-.027v-.701s0-.027.026-.027h.477v-.29s0-.027.026-.027h.344s.026 0 .026.026v.291h1.24V7.76s0-.026.027-.026h.612s.026 0 .026.026z" class="cls-8" style="fill:#595959;fill-opacity:1;fill-rule:evenodd;stroke:#161616;stroke-width:.396875px;stroke-linecap:round;stroke-miterlimit:15.1181;stroke-opacity:1" transform="matrix(1.06438 0 0 1.06438 23.392 82.893)"/><path d="M7.14 10.288H3.68v-.362c.009-.29.158-.488.508-.509h2.953z" style="fill:#393939;fill-opacity:1;stroke:#171717;stroke-width:.396875;stroke-linecap:butt;stroke-linejoin:round;stroke-dasharray:none;stroke-opacity:1" transform="matrix(1.06438 0 0 1.06438 23.392 82.893)"/><path d="M-11.189 6.652h-1.629c.166 1.133.143 2.214 0 3.445h1.63z" style="fill:#262626;fill-opacity:1;stroke:#171717;stroke-width:.79375;stroke-linecap:butt;stroke-linejoin:round;stroke-dasharray:none;stroke-opacity:1" transform="matrix(1.06438 0 0 1.06438 20.992 132.062)"/><path d="M-11.618 9.997h4.62c1.378-.504 2.866-.763 4.812 0v-3.44c-1.748.613-3.353.578-4.836 0h-4.596z" style="fill:#775426;fill-opacity:1;stroke:none;stroke-width:.79375;stroke-linecap:round;stroke-linejoin:round;stroke-dasharray:none;stroke-opacity:1" transform="matrix(1.06438 0 0 1.06438 20.992 132.062)"/><path d="M-7.156 6.964c.715 1.319.328 2.062 0 2.81h5.303V6.957Z" style="fill:#61441f;fill-opacity:1;stroke:none;stroke-width:.79375;stroke-linecap:round;stroke-linejoin:round;stroke-dasharray:none;stroke-opacity:1" transform="matrix(1.06438 0 0 1.06438 20.992 132.062)"/><path d="M-11.64 10.094h4.62c1.378-.504 2.866-.763 4.812 0v-3.44c-1.748.613-3.352.578-4.836 0h-4.595z" style="fill:none;fill-opacity:1;stroke:#23190b;stroke-width:.79375;stroke-linecap:round;stroke-linejoin:round;stroke-dasharray:none;stroke-opacity:1" transform="matrix(1.06438 0 0 1.06438 20.992 132.062)"/><path d="M13.7 7.466h9.676v1.852H13.7Z" class="cls-3" style="opacity:.997;isolation:isolate;fill:#393939;fill-opacity:1;fill-rule:evenodd;stroke:none;stroke-width:.79375px;stroke-linecap:round;stroke-linejoin:round;stroke-miterlimit:5.89;stroke-opacity:1" transform="matrix(1.06438 0 0 1.06438 20.992 132.062)"/><path d="m8.471 10.623 5.775-.529v-3.44L8.47 6.125Z" style="fill:#61441f;fill-opacity:1;stroke:#23190b;stroke-width:.79375;stroke-linecap:round;stroke-linejoin:round;stroke-dasharray:none;stroke-opacity:1" transform="matrix(1.06438 0 0 1.06438 20.992 132.062)"/><path d="m-2.869 9.582.597.53H7.915l.752-.53h2.286v-2.38H8.625l-.734-.53H-2.284l-.585.53z" style="fill:#474747;fill-opacity:1;stroke:none;stroke-width:.79375;stroke-linecap:round;stroke-linejoin:round;stroke-dasharray:none;stroke-opacity:1" transform="matrix(1.06438 0 0 1.06438 20.992 132.062)"/><path d="m-1.728 9.038.291.418h7.98l-.024-2.121h-7.967l-.28.446z" style="fill:#595959;fill-opacity:1;stroke:none;stroke-width:.79375;stroke-linecap:round;stroke-linejoin:round;stroke-dasharray:none;stroke-opacity:1" transform="matrix(1.06438 0 0 1.06438 20.992 132.062)"/><path d="m-2.75 9.565.598.827H8.034l.752-.827h2.287V7.184H8.744l-.733-.761H-2.164l-.586.76z" style="fill:none;fill-opacity:1;stroke:#171717;stroke-width:.79375;stroke-linecap:round;stroke-linejoin:round;stroke-dasharray:none;stroke-opacity:1" transform="matrix(1.06438 0 0 1.06438 20.992 132.062)"/><path d="M6.672 10.171v-3.52" style="fill:none;fill-opacity:1;stroke:#171717;stroke-width:.79375;stroke-linecap:butt;stroke-linejoin:round;stroke-dasharray:none;stroke-opacity:1" transform="matrix(1.06438 0 0 1.06438 20.992 132.062)"/><path d="M21.257 7.482h1.3V9.31h-1.3zM6.203 9.369h.77v1.827c-.225.14-.468.2-.77 0z" style="fill:#4d4d4d;stroke:#171717;stroke-width:.396875;stroke-linecap:round;stroke-linejoin:round;stroke-dasharray:none" transform="matrix(1.06438 0 0 1.06438 20.992 132.062)"/><path d="M13.7 7.448h9.676V9.3H13.7Z" class="cls-3" style="opacity:.997;isolation:isolate;fill:none;fill-opacity:1;fill-rule:evenodd;stroke:#171717;stroke-width:.79375px;stroke-linecap:round;stroke-linejoin:round;stroke-miterlimit:5.89;stroke-opacity:1" transform="matrix(1.06438 0 0 1.06438 20.992 132.062)"/><path d="M17.289 7.184h1.804v2.38h-1.804v-.34l-3.175-.006V7.513l3.175-.013Z" class="cls-3" style="opacity:.997;isolation:isolate;fill:#4d4d4d;fill-opacity:1;fill-rule:evenodd;stroke:#171717;stroke-width:.79375px;stroke-linecap:round;stroke-linejoin:round;stroke-miterlimit:5.89;stroke-opacity:1" transform="matrix(1.06438 0 0 1.06438 20.992 132.062)"/><path d="m14.221 6.652 1.027.282v2.91l-1.027.248z" class="cls-3" style="opacity:.997;isolation:isolate;fill:#393939;fill-opacity:1;fill-rule:evenodd;stroke:#171717;stroke-width:.79375px;stroke-linecap:round;stroke-linejoin:round;stroke-miterlimit:5.89;stroke-opacity:1" transform="matrix(1.06438 0 0 1.06438 20.992 132.062)"/><path d="m10.394 10.447 3.848-.355V6.661l-3.848-.364Z" style="fill:#775426;fill-opacity:1;stroke:#23190b;stroke-width:.79375;stroke-linecap:round;stroke-linejoin:round;stroke-dasharray:none;stroke-opacity:1" transform="matrix(1.06438 0 0 1.06438 20.992 132.062)"/><path d="M9.674 7.759v1.23c0 .027-.026.027-.026.027h-.612c-.027 0-.027-.027-.027-.027v-.238H7.77v.291c0 .027-.026.027-.026.027H7.4c-.026 0-.026-.027-.026-.027v-.29h-.477c-.026 0-.026-.027-.026-.027v-.701s0-.027.026-.027h.477v-.29s0-.027.026-.027h.344s.026 0 .026.026v.291h1.24V7.76s0-.026.027-.026h.612s.026 0 .026.026z" class="cls-8" style="fill:#595959;fill-opacity:1;fill-rule:evenodd;stroke:#161616;stroke-width:.396875px;stroke-linecap:round;stroke-miterlimit:15.1181;stroke-opacity:1" transform="matrix(1.06438 0 0 1.06438 20.992 132.062)"/><path d="M7.14 10.288H3.68v-.362c.009-.29.158-.488.508-.509h2.953z" style="fill:#393939;fill-opacity:1;stroke:#171717;stroke-width:.396875;stroke-linecap:butt;stroke-linejoin:round;stroke-dasharray:none;stroke-opacity:1" transform="matrix(1.06438 0 0 1.06438 20.992 132.062)"/><path fill="#f06" d="M4527.844 1992.104c.715-1.993-.906-5.515.616-5.236 1.522.297 5.837 5.382 6.208 7.43.352 2.064-1.75 5.252-1.285 7.48.447 2.227 1.858 5.161 1.283 7.124-.593 1.982-3.17 2.973-5.537 2.657-2.366-.335-2.24-2.039-2.146-4.094-.071-2.158.241-6.006.273-8.236-.022-2.271-.136-5.153.588-7.125z" style="fill:#38451e;fill-opacity:1;stroke:#222b13;stroke-width:1.45326;stroke-dasharray:none;stroke-opacity:1" transform="translate(-4526.21 -1887.12)"/><path d="M4548.615 1901.866s-4.898-1.322-6.48-4.306c-1.013-1.913.598-4.236 2.42-6.539 1.332-1.682 2.442-.527 4.489-.946 2.001-.409 7.187-.598 6.423 2.556-.624 1.6-.773 3.242-1.947 4.309-1.064 2.158-3.812 3.623-4.905 4.926z" style="fill:#38451e;fill-opacity:1;stroke:#222b13;stroke-width:1.34248;stroke-linecap:square;stroke-linejoin:round;stroke-dasharray:none;stroke-opacity:1;paint-order:fill markers stroke;stop-color:#000" transform="translate(-4526.21 -1887.12)"/></svg>