<svg xmlns="http://www.w3.org/2000/svg" xml:space="preserve" width="90" height="90" viewBox="0 0 23.813 23.813"><defs><clipPath id="a" clipPathUnits="userSpaceOnUse"><circle cx="-85.466" cy="217.287" r="186.487" style="fill:red;stroke-width:93.3108" transform="rotate(90)"/></clipPath></defs><g clip-path="url(#a)" transform="matrix(0 -.06384 .06384 0 17.363 -1.966)"><path d="M-229.83 102.834c-115.75-6.016-199.575-121.22-170.558-234.407 37.433-146.023 221.464-191.885 322.75-80.431C35.859-87.117-60.224 111.648-229.83 102.834" style="fill:#8bd3fd"/><path d="M-229.83 102.475c-71.682-3.782-141.796-55.904-163.876-121.825-1.105-3.298-2.38-6.986-2.833-8.194-15.001-40.01-11.405-95.248 9.007-138.348 2.14-4.518 3.89-8.274 3.89-8.347 0-.072.895-1.606 1.987-3.407a519 519 0 0 0 4.633-7.862c11.573-20.057 39.161-47.914 58.329-58.896a985 985 0 0 0 7.9-4.606c2.717-1.6 6.123-3.424 7.57-4.056 1.447-.63 5.202-2.385 8.344-3.898 41.669-20.065 95.109-22.279 140.95-5.84 8.11 2.909 23.426 9.737 26.58 11.85.777.52 4.428 2.75 8.115 4.955 13.195 7.892 28.923 20.856 39.957 32.935 3.033 3.32 5.699 6.195 5.924 6.39 5.31 4.588 19.632 26.918 26.202 40.853 39.546 83.884 13.373 180.37-63.97 235.818-3.67 2.63-18.694 11.269-24.694 14.197-28.798 14.056-59.81 20.086-94.015 18.281M-261.847.237c1.78-1.4 1.486-3.737-1.287-10.198-3.128-7.29-3.222-7.74-3.122-15.033.187-13.776-2.325-15.035-24.428-12.24-4.851.613-12.63 1.44-17.286 1.84-17.99 1.54-24.334 4.806-21.182 10.9 2.167 4.19 6.613 6.182 24.004 10.754 10.062 2.645 16.286 4.82 27.478 9.603 12.262 5.24 14.083 5.743 15.823 4.374m108.978-133.56c41.195-5.26 53.318-12.722 35.117-21.615-16.056-7.844-30.34-8.326-64.394-2.172-12.508 2.26-11.468 2.096-15.533 2.45-9.803.85-12.99-.813-22.905-11.953-18.59-20.888-27.41-25.25-42.584-21.062-24.522 6.77-30.571 29.898-10.013 38.288 15.805 6.45 31.058 7.026 52.081 1.966 12.613-3.035 14.565-2.703 27.375 4.658 16.012 9.201 25.52 11.398 40.856 9.44m53.846-70.056c9.662-2.98 12.606-9.509 6.154-13.649-7.113-4.564-13.963-2.607-17.712 5.062-3.837 7.849 1.38 11.725 11.558 8.587" style="fill:#55affc"/><path d="M-229.83 102.475C-289.675 99.318-347.002 64.32-379.012 11.4c-4.622-7.64-13.096-24.645-13.096-26.278 0-.4-1.26-4.507-2.8-9.126-2.652-7.957-6.574-22.34-7.6-27.87-.259-1.395-.56-2.681-.669-2.858-1.693-2.74-3.334-31.462-2.31-40.464.197-1.746.494-4.842.659-6.879 1.63-20.202 8.054-43.344 17.666-63.645 2.13-4.5 3.873-8.308 3.873-8.463 0-.156 1.27-2.394 2.823-4.974s2.822-4.834 2.822-5.01c0-9.279 45.526-54.63 62.28-62.04.979-.432 3.252-1.68 5.052-2.77 3.695-2.241 7.237-4.087 7.842-4.087.224 0 3.443-1.495 7.154-3.322 6.22-3.063 20.18-8.426 25.27-9.71.872-.22 2.142-.629 2.821-.908 32.896-13.548 113.752-4.235 139.77 16.099.716.56 4.304 2.823 7.972 5.03 6.215 3.738 9.601 6.115 18.071 12.687 4.724 3.666 15.866 13.809 19.175 17.455a926 926 0 0 0 6.556 7.12c6.454 6.93 7.179 7.789 11.175 13.228 19.824 26.982 34.195 67.253 34.746 97.367.396 21.592.093 29.915-1.472 40.393-6.42 43.016-27.638 82.59-59.977 111.867-6.118 5.539-17.865 14.78-18.788 14.78-.193 0-.87.395-1.502.878-1.794 1.368-16.23 9.975-19.377 11.553-1.552.779-3.22 1.695-3.704 2.036-16.7 11.758-61.816 20.751-95.25 18.987M-261.321.712c1.908-1.19 1.523-4.425-1.312-11.025-2.888-6.722-3.214-8.425-3.098-16.184.19-12.685-2.937-14.123-24.777-11.395-4.754.594-12.453 1.406-17.11 1.806-17.131 1.47-23.11 3.947-22.67 9.398.453 5.622 5.51 8.478 23.023 13.001 10.849 2.802 17.785 5.17 27.93 9.533 13.788 5.932 15.545 6.406 18.014 4.866m109-133.489c41.102-5.272 53.54-13.032 35.646-22.24-16.525-8.503-30.652-9.07-65.873-2.641-24.753 4.517-25.41 4.328-39.352-11.274-8.82-9.87-14.762-15.18-19.925-17.802-25.607-13.011-60.958 21.193-36.637 35.448 14.443 8.465 34.338 10.05 57.158 4.553 12.88-3.102 14.593-2.802 27.965 4.896 15.754 9.07 25.007 11.114 41.018 9.06m52.469-69.729c11.891-2.946 14.757-11.654 5.312-16.144-6.056-2.878-11.553-1.402-15.198 4.081-6.298 9.473-1.802 14.96 9.886 12.063" style="fill:#34a2fd"/><path d="M-229.83 102.475C-289.675 99.318-347.002 64.32-379.012 11.4c-4.564-7.544-13.096-24.637-13.096-26.235 0-.377-.388-1.826-.861-3.218l-.862-2.533 2.537-2.018c11.093-8.824 10.134-13.133-4.973-22.351-5.32-3.246-5.554-3.438-5.833-4.763-.16-.76-.59-2.73-.956-4.38-2.308-10.398-3.547-31.318-2.433-41.098.2-1.746.496-4.842.66-6.879.749-9.266 4.852-31.14 6.342-33.802.49-.876 1.142 1.619 1.321 5.05.186 3.562-.147 5.007-2.662 11.531-6.956 18.053 14.607 11.162 23.907-7.64 3.959-8.004 8.353-14.238 18.345-26.029 11.241-13.264 12.601-18.07 6.687-23.63-7.04-6.616-17.859-6.414-29.075.541-3.955 2.453-3.93 2.594-.538-3.044 1.572-2.612 2.858-4.893 2.858-5.068 0-9.28 45.526-54.631 62.28-62.04.979-.433 3.252-1.68 5.052-2.771 5.542-3.36 7.238-4.093 10.294-4.441 5.116-.584 7.746-1.849 7.746-3.727 0-1.154 14.585-7.029 22.225-8.951.873-.22 2.143-.629 2.822-.908 32.896-13.548 113.752-4.235 139.77 16.099.716.56 4.304 2.823 7.972 5.03 6.235 3.75 15.151 9.953 14.805 10.3-.085.084-.996-.006-2.024-.201-8.505-1.613-12.473 1.384-15.176 11.463-1.544 5.755-2.81 9.119-4.922 13.069-.98 1.834-2.572 4.81-3.535 6.614-4.49 8.397-3.071 15.333 4.29 20.975 1.202.922 2.66 2.09 3.24 2.596l1.053.92-.858.553c-1.034.666-12.83 4.336-23.26 7.236-37.798 10.51-52.507 9.434-68.156-4.988-21.233-19.57-31.975-23.846-50.2-19.988-20.644 4.37-43.744 23.856-43.744 36.9 0 19.944 29.418 29.84 72.143 24.267 20.863-2.722 26.857-1.504 47.095 9.57 22.854 12.504 31.039 13.002 58.032 3.53 21.177-7.429 24.146-8.065 37.924-8.126 14.657-.065 18.023-1.483 19.82-8.349 2.16-8.26-2.294-13.703-17.976-21.962-14.896-7.845-29.466-17.352-28.302-18.47.194-.185 2.416-1.093 4.939-2.015 17.974-6.575 30.427-13.646 37.771-21.448l3.022-3.21.938 1.217c.516.67 1.666 2.012 2.555 2.982 20.784 22.69 39.648 71.63 40.25 104.422.395 21.592.092 29.915-1.473 40.393-6.42 43.016-27.638 82.59-59.977 111.867-6.118 5.539-17.865 14.78-18.788 14.78-.193 0-.87.395-1.502.878-1.794 1.368-16.23 9.975-19.377 11.553-1.552.779-3.22 1.695-3.704 2.036-16.7 11.758-61.816 20.751-95.25 18.987m11.507-27.403c8.146-1.735 9.981-3.85 7.866-9.064-2.146-5.29-1.625-7.112 3.664-12.823 9.222-9.959 6.791-16.993-9.984-28.89-16.485-11.691-17.82-13-23.122-22.654-1.119-2.038-3.893-6.641-6.166-10.23-10.53-16.636-9.846-24.247 3.887-43.216 3.76-5.194 7.578-10.857 9.793-14.528 4.543-7.529 5.74-7.901 21.896-6.82 16.669 1.116 26.61-1.219 30.665-7.202 7.257-10.71-25.243-8.588-44.87 2.93-2.577 1.512-4.356 1.992-11.31 3.054-10.266 1.568-15.592 4.37-24.253 12.762-13.005 12.6-25.983 17.397-50.36 18.616-36.03 1.8-44.578 8.515-34.865 27.388C-336.55 1.751-326.305 7.941-304.68 9.05c17.435.894 22.405 1.562 28.66 3.853 15.771 5.775 23.589 21.393 18.655 37.267-4.592 14.775 2.674 23.445 21.537 25.697 3.18.38 14.377-.128 17.504-.794m95.18-53.14c9.157-1.632 13.098-7.968 8.018-12.89-4.386-4.25-13.155-3.539-18.635 1.513-7.1 6.545-.709 13.395 10.617 11.377m63.9-85.587c8.954-2.765 17.48-15.848 12.375-18.986-4.278-2.628-25.358-3.262-31.975-.961-16.267 5.657 2.857 25.119 19.6 19.947m-176.895-176.522c11.988-2.1 23.298-9.9 19.483-13.437-4.214-3.904-32.684-5.326-44.336-2.213-14.374 3.84 8.835 18.455 24.853 15.65" style="fill:#3e63e0"/><path d="M-228.067 102.346c-71.228-3.964-137.152-50.554-163.3-115.406-.78-1.937-.629-2.056 10.019-7.904 17.226-9.46 17.385-9.417 25.965 7.082 11.39 21.905 19.887 26.84 49.176 28.565l12.208.72c25.449 1.505 35.481 13.409 27.27 32.356-3.52 8.121-3.084 13.574 1.681 21.003 4.68 7.294 16.251 10.544 37.51 10.534 23.405-.01 32.063-3.68 29.29-12.415-1.519-4.786-1.095-6.042 3.786-11.217 6.006-6.368 9.414-12.54 14.415-26.103 1.265-3.43.676-3.787-13.493-8.181-28.561-8.856-34.143-12.798-48.608-34.325-9.27-13.795-5.464-23.436 14.434-36.56 9.939-6.555 14.19-7.951 27.407-9.003 13.998-1.115 17.456-2.562 27.538-11.53 9.994-8.889 15.171-16.18 17.408-24.516 1.717-6.401 1.852-6.523 17.119-15.498 24.56-14.437 30.287-16.144 50.934-15.179 14.881.696 22.06-4.995 21.968-17.414-.063-8.574-3.81-14.335-15.358-23.62-11.604-9.33-11.557-12.063.413-24.045 3.801-3.805 7.626-7.887 8.5-9.07 2.107-2.856 1.9-2.961 6.554 3.305 18.87 25.4 31.086 57.502 35.265 92.666.294 2.478.903 2.156-8.482 4.479-13.272 3.285-15.23 3.523-31.927 3.896-43.05.961-49.984 18.294-13.734 34.335 18.495 8.185 26.3 7.71 42.31-2.571 9.557-6.139 12.221-7.092 11.834-4.234-7.645 56.37-32.558 101.163-73.09 131.414-6.964 5.197-6.058 4.847-10.053 3.881-14.135-3.417-24.704 3.049-22.18 13.569.366 1.524.358 1.915-.043 2.292-.791.744-10.085 4.954-13.89 6.292-1.94.683-5.82 2.055-8.623 3.05-13.56 4.814-32.83 8.473-49.408 9.381-10.277.563-10.17.563-20.815-.03m95.645-66.652c10.397-1.825 27.86-10.191 30.92-14.814 5.006-7.555-4.437-21.646-15.479-23.099-11.562-1.52-39.626 10.746-52.026 22.74-5.016 4.852-4.843 5.029 9.768 10.005 17.116 5.829 19.946 6.374 26.817 5.168m-235.697-71.007c-1.067-.57-3.925-2.343-6.35-3.943-2.506-1.652-7.989-4.674-12.7-7-9.555-4.718-14.842-7.587-15.593-8.463-1.953-2.278-4.032-38.972-2.383-42.057.202-.379 1.004-.54 2.935-.587 5.837-.145 11.508-2.941 20.282-9.998 9.215-7.413 12.314-11.518 15.185-20.115 4.32-12.936 12.293-22.63 24.962-30.356 11.27-6.87 13.3-6.368 22.16 5.485 13.97 18.69 27.197 24.991 54.188 25.817 8.412.257 10.086.046 21.492-2.718 25.817-6.254 30.08-5.49 56.012 10.052 16.148 9.677 19.835 12.57 19.835 15.558 0 4.39-14.413 8.407-47.339 13.195-32.065 4.663-39.569 8.017-52.896 23.645-12.067 14.15-22.69 18.35-51.283 20.276-17.493 1.178-23.024 2.51-35.628 8.576-8.437 4.06-9.713 4.322-12.88 2.633m180.27-135.197c-9.26-2.008-16.32-6.042-30.869-17.635-15.307-12.199-24.729-15.45-39.864-13.76-15.732 1.759-29.11 7.393-48.154 20.284-17.388 11.77-18.897 12.024-28.742 4.847-16.588-12.091-26.266-14.465-38.216-9.373-12.108 5.159 22.514-34.5 44.028-50.433 12.506-9.262 13.745-9.878 17.6-8.744 5.774 1.699 8.238 1.968 16.62 1.82 24.088-.43 22.37-.705 39.157 6.26 16.731 6.943 21.771 6.413 45.518-4.777 19.005-8.956 23.955-12.889 20.677-16.426-2.944-3.177-8.551-4.013-28.976-4.32-25.523-.383-49.114-2.509-47.356-4.267.623-.623 13.557-3.442 20.897-4.555 36.765-5.572 74.43-.031 108.48 15.959 11.7 5.495 11.833 5.683 9.528 13.501-.94 3.192-1.14 4.607-1.444 10.23-.656 12.15-1.492 15.089-6.937 24.384-4.935 8.424-5.306 9.279-7.316 16.856-1.414 5.329-2.73 8.353-4.564 10.494-6.125 7.145-27.687 12.341-40.068 9.655" style="fill:#32194d"/><path d="M-220.162 100.612c-.151-7.084-15.39-9.35-41.242-6.132-12.448 1.55-44.085-11.597-64.252-26.7-5.541-4.15-6.17-7.423-3.53-18.37 3.243-13.447 1.435-15.4-22.176-23.97-9.143-3.32-23.003-8.82-23.735-9.421-1.723-1.415-16.305-28.72-16.305-30.531 0-.31 16.719-9.578 20.46-11.341 4.126-1.944 6.456-1.345 9.278 2.389 2.159 2.855 2.462 3.372 6.334 10.812 11.654 22.39 20.304 26.697 57.06 28.41 27.305 1.273 38.939 11.55 32.3 28.535l-2.53 6.472c-3.461 8.847 1.406 20.183 10.555 24.585 13.246 6.373 48.32 6.259 58.043-.19 3.247-2.152 3.711-4.031 2.149-8.698-1.378-4.116-.82-5.64 3.9-10.664 5.195-5.528 7.448-8.985 9.89-15.175.612-1.553 1.972-4.823 3.023-7.269 3.29-7.657 3.365-7.575-11.143-12.119-29.866-9.354-32.815-11.312-47.557-31.567-11.31-15.538-8.704-24.585 10.868-37.744 11.088-7.455 14.606-8.697 27.566-9.733 16.25-1.299 20.376-3.284 32.952-15.854 8.143-8.14 11.52-13.298 13.407-20.476 1.676-6.378 1.966-6.655 14.98-14.31 27.036-15.903 29.962-16.784 53.794-16.187 12.332.308 18.634-3.568 20.81-12.8 2.478-10.505-1.812-18.67-15.576-29.653-10.77-8.593-10.636-11.305 1.136-23.005 3.708-3.687 7.423-7.616 8.254-8.731 1.876-2.518 1.653-2.553 4.053.636 19.66 26.12 34.568 64.347 36.797 94.35l.17 2.296-7.537 1.866c-13.704 3.392-18.003 3.95-30.441 3.952-45.94.005-53.356 20.091-13.528 36.634 17.092 7.098 24.776 6.37 40.686-3.855 2.43-1.56 5.8-3.562 7.49-4.448l3.072-1.61.113.944c.277 2.307-2.543 18.248-4.905 27.72C-45.794 1.04-71.093 39.566-104.015 64.03c-5.947 4.42-5.17 4.137-8.734 3.17-13.796-3.746-25.914 3.657-23.123 14.126l.506 1.898-5.34 2.557c-2.937 1.406-7.244 3.2-9.573 3.987a566 566 0 0 0-8.276 2.882c-15.031 5.396-39.876 9.447-58.399 9.52l-3.175.013zm89.11-64.588c10.2-2.103 26.292-9.917 29.751-14.447 5.354-7.012-2.53-21.16-13.362-23.982-11.174-2.91-40.077 8.85-54.291 22.091-6.137 5.717-5.784 6.14 9.503 11.393 17.24 5.925 20.714 6.53 28.399 4.945m-27.339-51.496c9.013-1.046 15.814-2.523 29.9-6.494 26.47-7.463 33.156-7.563 46.651-.694 12.323 6.273 16.621 6.346 23.989.41 9.294-7.489 5.618-10.985-13.976-13.294-7.833-.922-12.81-1.845-21.125-3.914-29.352-7.305-38.385-6.584-55.034 4.388-7.496 4.941-13.802 8.15-22.578 11.488-8.673 3.3-10.993 4.694-10.396 6.25.848 2.21 11.786 3.112 22.57 1.86m-207.614-19.554c-1.404-.426-3.127-1.39-6.347-3.551-4.743-3.183-9.525-5.844-16.904-9.406-8.676-4.188-13.05-6.684-13.413-7.655-1.57-4.191-3.008-28.244-2.286-38.236l.21-2.91h2.364c5.73 0 12.12-3.087 20.704-10.002 9.466-7.625 12.81-12.14 15.845-21.396 4.248-12.95 14.385-24.26 27.808-31.024 8.355-4.21 9.856-3.62 17.789 6.991 14.546 19.46 29.225 26.225 57.067 26.302 8.25.023 7.925.071 20.99-3.143 22.748-5.597 29-4.547 50.977 8.559 19.33 11.528 22.49 13.899 22.49 16.877 0 3.795-14.997 7.954-43.767 12.135-35.36 5.14-42.213 8.044-55.602 23.559-12.798 14.831-22.437 18.786-50.474 20.71-19.128 1.311-23.651 2.395-37.57 8.998-6.609 3.135-8.284 3.676-9.88 3.192m3.923-30.01c13.917-2.598 16.68-21.379 3.135-21.308-6.732.035-17.09 5.937-19.877 11.326-2.907 5.622 7.346 11.735 16.742 9.982m177.588-105.517c-9.715-1.022-18.38-5.628-33.691-17.91-26.51-21.262-50.087-19.541-89.082 6.502-16.886 11.277-18.549 11.598-27.162 5.245-17.751-13.095-26.983-15.234-40.9-9.478-2.179.902 10.558-16.254 18.907-25.467 10.447-11.527 26.746-25.33 37.617-31.855l3.426-2.056 4.653 1.177c7.278 1.842 11.998 2.14 22.088 1.393 12.261-.907 16.028-.329 26.705 4.101 23.885 9.91 27.315 9.536 59.443-6.484 22.748-11.344 17.853-17.885-13.405-17.912-19.857-.018-45.545-1.875-48.456-3.504-.858-.48 11.048-3.136 19.88-4.434 36.496-5.362 74.065.32 107.613 16.276 10.852 5.162 10.916 5.251 8.856 12.34-1.183 4.071-1.633 7.02-1.637 10.72-.01 10.592-1.311 14.958-7.633 25.618-3.634 6.127-4.739 8.744-6.489 15.369-3.44 13.022-12.03 18.508-31.918 20.383-4.29.405-4.756.404-8.815-.024m12.004-22.616c9.722-5.023 6.32-18.327-4.568-17.861-7.471.32-14.16 7.635-12.046 13.174 1.91 5 11.03 7.573 16.614 4.687m-134.56-13.526c13.922-1.942 28.208-7.473 25.897-10.027-2.314-2.557-21.658-2.762-31.165-.33-15.802 4.041-11.407 12.682 5.268 10.357" style="fill:#30003e"/><path d="M-152.73 86.01c-.526-8.805-.362-11.042 1.207-16.458 1.803-6.224-.18-10.07-6.134-11.896-9.94-3.05-20.297 2.337-19.42 10.1.654 5.773.26 7.435-2.386 10.081-7.388 7.389-21.997 8.734-68.712 6.325-23.011-1.187-33.521-6.092-39.5-18.436-4.925-10.166-4.746-12.737 1.502-21.534 3.951-5.563 4.278-6.266 4.294-9.24.036-6.5-3.438-7.935-28.56-11.807-34.04-5.247-41.675-8.135-54.505-20.615-8.467-8.235-11.007-9.376-18.18-8.164-2.808.474-3.556.5-3.895.138-.733-.785-4.374-8.89-4.109-9.147.44-.429 17.067-9.522 19.73-10.79 6.576-3.134 8.862-1.224 16.314 13.625 7.943 15.827 14.76 21.469 30.054 24.87 6.967 1.55 10.673 1.924 30.222 3.048 25.582 1.47 35.42 12.571 27.51 31.039-10.146 23.688 12.138 37.119 53.527 32.26 13.62-1.599 18.784-5.498 16.369-12.361-1.57-4.463-1.083-5.998 3.442-10.835 5.659-6.049 7.7-9.302 11.004-17.53.973-2.426 2.332-5.68 3.02-7.233 2.513-5.673 2.409-5.757-13.428-10.777-27.742-8.794-30.978-10.867-43.96-28.17-12.801-17.061-11.898-25.213 4.13-37.25 13.007-9.77 18.432-11.9 33.193-13.034 13.98-1.073 17.6-2.625 28.06-12.032 9.87-8.875 14.922-15.908 17.091-23.796 1.984-7.214 1.326-6.605 17.271-15.978 23.846-14.017 29.779-15.79 49.918-14.924 27.59 1.186 32.167-22.302 8.133-41.744-11.936-9.655-11.995-11.878-.613-23.134 3.531-3.492 7.356-7.508 8.5-8.924 1.143-1.416 2.194-2.448 2.334-2.293 1.118 1.232 5.635 7.66 5.635 8.018 0 .25-.541 1.628-1.203 3.062-4.226 9.157-3.125 15.373 4.585 25.89 8.538 11.646 9.212 14.789 6.28 29.28-1.882 9.307-2.818 11.946-5.667 15.965-5.35 7.55.933 9.252 21 5.689 7.292-1.295 6.58-1.775 7.539 5.079.906 6.467 1.311 5.672-3.553 6.975-14.647 3.924-19.112 4.531-36.213 4.924-41.568.954-50.134 17.543-17.462 33.816 21 10.46 29.803 10.277 47.373-.984 11.19-7.172 10.865-7.246 9.473 2.154-1.283 8.662-.776 7.765-5.407 9.548-19.09 7.35-26.573 7.133-55.678-1.622-14.506-4.363-19.205-6.136-29.628-11.176-19.236-9.303-25.46-8.08-34.756 6.828-9.16 14.69-19.45 18.923-46.03 18.935-29.924.015-40.589 13.601-22.43 28.577C-207.763 4.94-183.1 5.88-143.577-6.523c35.379-11.104 43.645-9.392 56.47 11.691 5.887 9.676 6.762 14.497 3.742 20.592-2.556 5.159-5.315 7.621-15.695 14.008-9.85 6.06-10.224 12.767-1.013 18.14 2.438 1.423 2.57 1.216-3.772 5.9l-5.6 4.137-3.48-.883c-14.829-3.762-26.054 3.671-22.946 15.195l.287 1.065-5.055 2.367c-4.95 2.317-10.47 4.499-11.383 4.499-.338 0-.526-1.107-.71-4.177m23.794-50.323c21.14-5.75 31.708-14.16 29.07-23.134-5.832-19.846-26.446-20.409-57.468-1.569-15.215 9.24-18.45 14.155-11.244 17.084 18.702 7.601 31.01 9.967 39.642 7.619m-238.353-71.395c-.805-.377-2.869-1.626-4.586-2.777-5.124-3.434-9.621-5.947-16.976-9.486-3.829-1.842-8.492-4.233-10.364-5.314l-3.402-1.964-.555-3.57c-.304-1.963-.662-4.494-.794-5.623l-.24-2.054 2.962 1.902c25.186 16.17 33.384 18.321 53.422 14.012 3.532-.76 10.451-2.099 15.376-2.975 37.178-6.618 45.645-10.628 48.85-23.136 1.818-7.098-.12-10.77-9.416-17.834-8.564-6.508-11.462-10.2-14.446-18.404-2.41-6.626-13.915-19.18-23.357-25.485-9.895-6.608-18.606-1.787-21.386 11.835-1.783 8.738-3.232 10.584-15.918 20.282-2.62 2.002-7.382 5.815-10.583 8.472-11.588 9.617-16.922 12.589-23.947 13.34l-2.512.268.046-3.549c.026-1.951.145-4.739.265-6.194l.218-2.646 1.24.108c11.878 1.035 32.186-15.678 37.39-30.769 4.913-14.25 14.533-25.09 28.487-32.093 7.763-3.897 9.242-3.254 17.37 7.544 17.76 23.595 43.196 31.327 76.556 23.273 26.717-6.45 33.241-4.797 66.5 16.849 15.409 10.03 8.672 13.683-37.572 20.375-32.697 4.732-40.437 8.065-53.26 22.935-13.052 15.135-22.234 18.97-50.28 20.996-19.512 1.41-24.687 2.629-37.68 8.876-7.49 3.6-8.944 3.958-11.408 2.806m154.074-64.246c19.535-1.901 22.535-10.418 6.492-18.429-12.155-6.069-21.567-3.613-25.423 6.633-3.44 9.14 3.27 13.32 18.93 11.796m26.297-71.125c-8.68-1.568-17.15-6.278-30.389-16.9-27.271-21.882-50.63-20.45-89.429 5.477-16.401 10.961-18.959 11.726-24.968 7.467-20.285-14.377-28.71-16.997-40.46-12.584-3.78 1.42-3.743 1.436-2.198-.98 12.427-19.426 37.105-43.788 55.555-54.843l3.274-1.962 4.487 1.098c6.563 1.606 9.918 1.946 16.648 1.69l11.475-.438c8.502-.323 12.09.525 24.628 5.82 18.24 7.703 23.387 7.326 46.28-3.39 20.953-9.81 25.744-13.565 22.88-17.936-2.434-3.715-8.539-4.65-33.287-5.098-17.821-.323-22.49-.562-31.38-1.607-4.768-.56-10.24-1.433-10.478-1.67-.427-.428 11.326-2.934 19.28-4.112 36.978-5.473 74.027.054 108.071 16.124 10.98 5.182 10.836 4.977 8.695 12.442-1.098 3.834-1.752 9.159-1.757 14.329-.007 7.08-1.5 11.56-7.018 21.056-4.211 7.249-5.134 9.412-6.952 16.296-2.562 9.703-4.981 12.456-14.079 16.026-9.321 3.657-20.892 5.138-28.878 3.695m15.782-8.597c7.56-1.934 13.743-7.291 17.82-15.442 12.251-24.49 12.989-30.926 4.56-39.798-9.71-10.223-26.096-8.571-54.44 5.49-20.232 10.037-27.928 12.52-34.593 11.161-2.888-.589-3.57-.904-18.147-8.39-12.825-6.585-17.605-7.489-31.22-5.901-5.23.61-9.433.781-23.813.975-24.533.33-24.751.434-32.774 15.606-6.533 12.352-5.67 16.609 4.355 21.488 10.943 5.327 17.643 5.112 35.439-1.137 17.342-6.09 47.897-14.1 59.705-15.652 9.473-1.245 16.035 2.121 30.289 15.539 12.379 11.652 31.708 18.903 42.819 16.061" style="fill:#280026"/></g></svg>