<?xml version="1.0" encoding="UTF-8" standalone="no"?>
<!-- Created with Inkscape (http://www.inkscape.org/) -->

<svg
   width="90.083839"
   height="90.021393"
   viewBox="0 0 23.834684 23.818161"
   version="1.1"
   id="svg5"
   inkscape:version="1.3.2 (1:1.3.2+202311252150+091e20ef0f)"
   sodipodi:docname="distant_shores_base.svg"
   inkscape:export-filename="distant_shores_base.svg"
   inkscape:export-xdpi="96"
   inkscape:export-ydpi="96"
   xmlns:inkscape="http://www.inkscape.org/namespaces/inkscape"
   xmlns:sodipodi="http://sodipodi.sourceforge.net/DTD/sodipodi-0.dtd"
   xmlns:xlink="http://www.w3.org/1999/xlink"
   xmlns="http://www.w3.org/2000/svg"
   xmlns:svg="http://www.w3.org/2000/svg">
  <sodipodi:namedview
     id="namedview7"
     pagecolor="#505050"
     bordercolor="#000000"
     borderopacity="0.25098039"
     inkscape:pageshadow="0"
     inkscape:pageopacity="0"
     inkscape:pagecheckerboard="1"
     inkscape:document-units="px"
     showgrid="false"
     units="px"
     inkscape:zoom="5.6568543"
     inkscape:cx="36.857941"
     inkscape:cy="78.57724"
     inkscape:window-width="2560"
     inkscape:window-height="1368"
     inkscape:window-x="0"
     inkscape:window-y="0"
     inkscape:window-maximized="1"
     inkscape:current-layer="layer1"
     showguides="false"
     inkscape:showpageshadow="true"
     inkscape:deskcolor="#505050"
     showborder="true"
     borderlayer="false"
     inkscape:rotation="90" />
  <defs
     id="defs2">
    <inkscape:path-effect
       effect="fillet_chamfer"
       id="path-effect7"
       is_visible="true"
       lpeversion="1"
       nodesatellites_param="F,0,0,1,0,0.43154648,0,1 @ F,0,0,1,0,0,0,1 @ F,0,0,1,0,0.77859054,0,1 @ F,0,0,1,0,1.9138981,0,1 @ F,0,0,1,0,1.5112129,0,1 @ F,0,0,1,0,0.66587871,0,1 @ F,0,0,1,0,1.0708811,0,1 @ F,0,0,1,0,0.54444834,0,1 @ F,0,0,1,0,0.48235885,0,1 @ F,0,0,1,0,0,0,1 @ F,0,0,1,0,0,0,1 @ F,0,0,1,0,0,0,1 @ F,0,0,1,0,0,0,1 @ F,0,0,1,0,0,0,1 @ F,0,0,1,0,0,0,1 @ F,0,0,1,0,0,0,1 @ F,0,0,1,0,0,0,1 @ F,0,0,1,0,0,0,1 @ F,0,0,1,0,0,0,1 @ F,0,0,1,0,0,0,1 @ F,0,0,1,0,0,0,1 @ F,0,0,1,0,0,0,1"
       radius="0"
       unit="px"
       method="auto"
       mode="F"
       chamfer_steps="1"
       flexible="false"
       use_knot_distance="true"
       apply_no_radius="true"
       apply_with_radius="true"
       only_selected="false"
       hide_knots="false" />
    <inkscape:path-effect
       effect="fillet_chamfer"
       id="path-effect6"
       is_visible="true"
       lpeversion="1"
       nodesatellites_param="F,0,0,1,0,0,0,1 @ F,0,0,1,0,0.46563066,0,1 @ F,0,0,1,0,0.46563066,0,1 @ F,0,0,1,0,0.66156991,0,1 @ F,0,0,1,0,0.50718353,0,1 @ F,0,0,1,0,0.62756724,0,1 @ F,0,0,1,0,0.58528587,0,1 @ F,0,0,1,0,0.81669036,0,1 @ F,0,0,1,0,0,0,1 @ F,0,0,1,0,0,0,1 @ F,0,0,1,0,0,0,1 @ F,0,0,1,0,0.44542361,0,1 @ F,0,0,1,0,0.44542361,0,1 @ F,0,0,1,0,0.93356033,0,1 @ F,0,0,1,0,0.48927905,0,1 @ F,0,0,1,0,0.7128533,0,1 @ F,0,0,1,0,0.81158211,0,1 @ F,0,0,1,0,0,0,1 @ F,0,0,1,0,0,0,1"
       radius="0"
       unit="px"
       method="auto"
       mode="F"
       chamfer_steps="1"
       flexible="false"
       use_knot_distance="true"
       apply_no_radius="true"
       apply_with_radius="true"
       only_selected="false"
       hide_knots="false" />
    <linearGradient
       id="linearGradient1"
       inkscape:collect="always">
      <stop
         style="stop-color:#006b74;stop-opacity:1;"
         offset="0"
         id="stop1" />
      <stop
         style="stop-color:#15888a;stop-opacity:0.78431374;"
         offset="0.42326334"
         id="stop3" />
      <stop
         style="stop-color:#4bcdbd;stop-opacity:0.3254902;"
         offset="0.50565434"
         id="stop4" />
      <stop
         style="stop-color:#73ffe3;stop-opacity:0;"
         offset="0.93699509"
         id="stop2" />
    </linearGradient>
    <linearGradient
       inkscape:collect="always"
       xlink:href="#linearGradient1"
       id="linearGradient2"
       x1="0.072333336"
       y1="11.954535"
       x2="23.884834"
       y2="11.954535"
       gradientUnits="userSpaceOnUse"
       gradientTransform="matrix(1.00093,0,0,1.0000014,0.38005596,-23.383391)" />
    <clipPath
       clipPathUnits="userSpaceOnUse"
       id="clipPath3">
      <g
         id="g6"
         transform="rotate(-180,11.904429,11.909081)">
        <g
           inkscape:label="Clip"
           id="use3"
           transform="rotate(180,11.904429,11.909081)"
           clip-path="url(#clipPath3)">
          <g
             id="g12"
             transform="rotate(180,11.904429,11.909081)">
            <circle
               style="fill:#ffb673;fill-opacity:1;stroke:none;stroke-width:0.260903;stroke-linecap:round;stroke-linejoin:round;stroke-miterlimit:10;stroke-dasharray:none;stroke-opacity:1"
               id="circle11"
               cx="11.906251"
               cy="11.906251"
               r="11.906251" />
            <ellipse
               style="fill:url(#linearGradient13);stroke:none;stroke-width:0.261024;stroke-linecap:round;stroke-linejoin:round;stroke-miterlimit:10;stroke-dasharray:none;stroke-opacity:1"
               id="ellipse11"
               cx="-11.424992"
               cy="-12.371656"
               transform="matrix(-0.99922366,0.03939653,-0.03946984,-0.99922076,0,0)"
               ry="11.906268"
               rx="11.917324" />
          </g>
        </g>
      </g>
    </clipPath>
    <linearGradient
       inkscape:collect="always"
       xlink:href="#linearGradient1"
       id="linearGradient13"
       gradientUnits="userSpaceOnUse"
       gradientTransform="matrix(1.00093,0,0,1.0000014,-23.414714,-24.326209)"
       x1="0.072333336"
       y1="11.954535"
       x2="23.884834"
       y2="11.954535" />
  </defs>
  <g
     inkscape:label="Layer 1"
     inkscape:groupmode="layer"
     id="layer1"
     transform="translate(0.01291253)">
    <circle
       style="fill:#ffb673;fill-opacity:1;stroke:none;stroke-width:0.260903;stroke-linecap:round;stroke-linejoin:round;stroke-miterlimit:10;stroke-dasharray:none;stroke-opacity:1"
       id="path846"
       cx="-11.907259"
       cy="11.901599"
       r="11.906251"
       transform="rotate(-90)" />
    <ellipse
       style="fill:url(#linearGradient2);stroke:none;stroke-width:0.261024;stroke-linecap:round;stroke-linejoin:round;stroke-miterlimit:10;stroke-dasharray:none;stroke-opacity:1"
       id="path846-7"
       cx="12.369779"
       cy="-11.428838"
       transform="matrix(0.03939653,0.99922366,-0.99922076,0.03946984,0,0)"
       ry="11.906268"
       rx="11.917324" />
    <path
       id="path2"
       clip-path="none"
       style="opacity:0.892453;fill:#dadfdf;fill-opacity:1;fill-rule:evenodd;stroke-width:4.16674;stroke-linecap:round;stroke-linejoin:round;stroke-dasharray:none"
       d="M 12.943203 6.1907195 C 12.784084 5.8252726 13.25857 6.0877821 12.218699 4.8497161 C 10.700083 2.7854255 12.12463 2.9801147 12.175808 2.1206835 L 11.1645 0.71973539 A 11.906251 11.917341 89.999867 0 0 11.126776 0.71870187 A 11.906251 11.917341 89.999867 0 0 9.7041238 0.86391265 C 9.7127854 0.90241774 9.7248293 0.95654188 9.7330626 0.99568756 C 9.7819552 1.2281495 9.6866462 1.5725793 9.5661477 1.7780688 C 8.8145881 3.0597253 9.6272156 3.7125456 10.027618 4.6357756 C 10.208153 5.0685892 10.275026 5.5243551 10.168178 5.937505 C 10.061777 6.3489269 9.7923006 6.9565347 9.7583841 7.384962 C 9.7217136 7.848177 10.670518 8.8921956 10.403823 9.7910168 C 10.33647 10.01801 10.241127 10.253506 10.14234 10.489682 C 9.822215 11.25503 10.162774 12.466976 10.377985 13.267807 C 10.722086 14.548263 10.314279 15.842849 10.034336 17.237591 C 9.9620012 17.597981 9.9863938 18.183087 10.097381 18.533636 C 10.166947 18.753356 10.240914 18.957369 10.319073 19.144451 C 10.546132 19.687939 10.959861 20.512655 11.028074 21.071982 C 11.040377 21.17286 11.034323 21.282036 10.997585 21.402712 C 10.910691 21.688138 10.678988 22.111508 10.674607 22.411952 C 10.67392 22.459082 10.674711 22.506623 10.677191 22.555096 C 10.69074 22.819927 10.800434 23.240274 10.838938 23.503875 L 10.981049 24.477976 A 11.906251 11.917341 89.999867 0 0 12.06677 24.5126 A 11.906251 11.917341 89.999867 0 0 12.827964 24.42785 L 12.900311 22.147886 L 12.687404 20.112868 L 12.431606 18.031341 L 12.77267 15.672312 C 12.77267 15.672312 12.690843 13.248265 12.516872 13.221298 C 11.701003 13.094831 13.099089 10.399889 12.861554 10.015809 C 12.189164 8.4407122 10.721123 7.0030358 12.943203 6.1907195 z "
       transform="rotate(-90,11.398753,12.107113)" />
    <path
       id="path2-2"
       clip-path="none"
       style="opacity:0.967925;fill:#cfd5d5;fill-opacity:1;fill-rule:evenodd;stroke-width:4.25607;stroke-linecap:round;stroke-linejoin:round;stroke-dasharray:none"
       d="M 13.964846 10.225616 C 13.944951 9.8380881 13.785312 9.3848561 13.625332 9.0892508 C 12.086622 6.2460799 13.589819 6.0692015 13.390721 4.4001311 C 11.872104 2.2463834 13.297169 2.4494345 13.348346 1.5527595 C 13.411781 1.2958138 13.436172 1.0732595 13.429995 0.87941558 A 11.906251 11.917341 89.999867 0 0 11.126776 0.71870187 A 11.906251 11.917341 89.999867 0 0 10.540765 0.75642566 C 9.8873767 1.9548031 10.251398 2.9499911 10.620864 3.81257 C 10.722078 4.0488715 10.998696 4.3376279 11.16295 4.533973 C 11.509259 4.9479444 11.283996 5.391709 11.107656 5.7938445 C 11.00484 6.0283112 10.737366 6.3435103 10.677708 6.5860443 C 10.6306 6.777557 10.681479 7.0094111 10.755222 7.2831594 C 10.850039 7.6351344 11.197759 8.0850182 11.354669 8.4102224 C 11.733953 9.1963086 11.136486 10.304295 10.937124 11.280848 C 10.881197 11.554799 11.013689 11.965379 11.152614 12.20844 C 12.112191 13.887293 11.541724 15.554835 11.194472 17.390036 C 11.130065 17.730422 11.152827 18.2825 11.251316 18.614768 C 11.386816 19.071894 11.53835 19.465522 11.708136 19.78679 C 11.858894 20.072054 12.119424 20.534775 12.08279 20.852358 C 12.06579 20.999731 12.034199 21.161406 12.001141 21.348968 C 11.922958 21.792558 11.582207 22.492132 11.728807 22.867222 C 11.793005 23.03148 11.883529 23.201969 11.941713 23.364866 L 12.178908 24.473325 C 12.188612 24.481679 12.19998 24.488451 12.209914 24.49658 A 11.906251 11.917341 89.999867 0 0 13.846507 24.301243 L 13.570038 22.904946 C 13.522297 22.663622 13.590473 22.298517 13.68941 22.073472 C 13.881203 21.637218 13.957224 21.200762 13.926605 20.764508 C 13.909399 20.519357 13.779683 20.140909 13.713698 19.904095 C 13.614969 19.549763 13.565537 19.157863 13.611379 18.777549 C 13.672476 18.270684 13.932194 17.491169 13.935907 16.975591 L 13.941591 16.181325 C 13.943538 15.911111 13.937909 15.473068 13.925572 15.20309 C 13.907678 14.811524 13.877287 14.257428 13.834104 13.821262 C 13.795907 13.435443 13.407734 12.896673 13.436713 12.54227 C 13.481135 11.998998 13.763277 11.191526 13.932806 10.583217 C 13.962425 10.476937 13.971477 10.354791 13.964846 10.225616 z "
       transform="rotate(-90,11.398753,12.107113)" />
  </g>
</svg>
