<svg xmlns="http://www.w3.org/2000/svg" xmlns:xlink="http://www.w3.org/1999/xlink" width="90" height="90"><defs><linearGradient id="a" x1="240" x2="240" y1="134.18" y2="222.864" gradientTransform="rotate(45 308.654 -126.6)scale(1.01484)" gradientUnits="userSpaceOnUse" spreadMethod="repeat"><stop offset="0" stop-color="#00e312" style="stop-color:#fff;stop-opacity:1"/><stop offset=".5" stop-color="#00e312" style="stop-color:#000;stop-opacity:1"/><stop offset="1" stop-color="#00e0e3" style="stop-color:#fff;stop-opacity:1"/></linearGradient><linearGradient id="b" x1="240" x2="240" y1="134.18" y2="222.864" gradientTransform="rotate(45 308.654 -126.6)scale(1.01484)" gradientUnits="userSpaceOnUse" spreadMethod="repeat"><stop offset="0" stop-color="#00e312" style="stop-color:#fff;stop-opacity:1"/><stop offset=".5" stop-color="#00e312" style="stop-color:#63ddd9;stop-opacity:1"/><stop offset="1" stop-color="#00e0e3" style="stop-color:#fff;stop-opacity:1"/></linearGradient><radialGradient xlink:href="#a" id="c" cx="44.58" cy="45.192" r="45" fx="44.58" fy="45.192" gradientTransform="translate(.376 -.075)" gradientUnits="userSpaceOnUse"/></defs><path fill="url(#b)" d="M13.18 13.18c17.574-17.573 46.066-17.573 63.64 0 17.573 17.574 17.573 46.066 0 63.64-17.574 17.573-46.066 17.573-63.64 0-17.573-17.574-17.573-46.066 0-63.64" style="mix-blend-mode:normal;fill:url(#b);fill-rule:nonzero;stroke-linejoin:miter;stroke-dasharray:none;stroke-dashoffset:0"/><path fill="url(#b)" d="M13.136 13.297c17.574-17.574 46.066-17.574 63.64 0s17.574 46.066 0 63.64-46.066 17.573-63.64 0c-17.573-17.574-17.573-46.066 0-63.64" style="opacity:.328221;mix-blend-mode:normal;fill:url(#c);fill-rule:nonzero;stroke-linejoin:miter;stroke-dasharray:none;stroke-dashoffset:0"/></svg>