<?xml version="1.0" encoding="UTF-8" standalone="no"?>
<svg
   version="1.1"
   width="90"
   height="90"
   viewBox="0 0 89.999996 89.999998"
   id="svg33"
   sodipodi:docname="military_camo_base.svg"
   inkscape:version="1.4.2 (1:1.4.2+202505120737+ebf0e940d0)"
   xmlns:inkscape="http://www.inkscape.org/namespaces/inkscape"
   xmlns:sodipodi="http://sodipodi.sourceforge.net/DTD/sodipodi-0.dtd"
   xmlns="http://www.w3.org/2000/svg"
   xmlns:svg="http://www.w3.org/2000/svg">
  <sodipodi:namedview
     id="namedview35"
     pagecolor="#505050"
     bordercolor="#ffffff"
     borderopacity="1"
     inkscape:pageshadow="0"
     inkscape:pageopacity="0"
     inkscape:pagecheckerboard="1"
     showgrid="false"
     inkscape:zoom="9.4019872"
     inkscape:cx="43.714163"
     inkscape:cy="43.448262"
     inkscape:window-width="2560"
     inkscape:window-height="1368"
     inkscape:window-x="0"
     inkscape:window-y="0"
     inkscape:window-maximized="1"
     inkscape:current-layer="svg33"
     inkscape:showpageshadow="2"
     inkscape:deskcolor="#d1d1d1" />
  <defs
     id="defs17" />
  <path
     d=""
     fill="#000000"
     stroke="none"
     stroke-width="0"
     stroke-linecap="butt"
     stroke-miterlimit="10"
     id="path19"
     style="mix-blend-mode:normal;fill-rule:nonzero;stroke-linejoin:miter;stroke-dasharray:none;stroke-dashoffset:0"
     clip-path="none" />
  <path
     d=""
     fill="#000000"
     stroke="none"
     stroke-width="0"
     stroke-linecap="butt"
     stroke-miterlimit="10"
     id="path21"
     style="mix-blend-mode:normal;fill-rule:nonzero;stroke-linejoin:miter;stroke-dasharray:none;stroke-dashoffset:0"
     clip-path="none" />
  <path
     d="M 13.180187,13.180197 C 30.753772,-4.3933879 59.24624,-4.3934028 76.819818,13.180175 118.42711,54.787476 54.787524,118.42715 13.180187,76.819807 c -17.5735862,-17.573585 -17.5735791,-46.066031 0,-63.63961 z"
     fill="url(#color-1)"
     stroke="none"
     stroke-width="0"
     stroke-linecap="butt"
     stroke-miterlimit="10"
     id="path23"
     style="mix-blend-mode:normal;fill:none;fill-opacity:1;fill-rule:nonzero;stroke-linejoin:miter;stroke-dasharray:none;stroke-dashoffset:0"
     sodipodi:nodetypes="ssss"
     clip-path="none" />
  <rect
     style="fill:none;stroke:none;stroke-width:1.02967"
     width="94.033752"
     height="91.326256"
     x="-1.0877432"
     y="-0.92313981"
     id="rect4"
     clip-path="none" />
  <path
     id="path5"
     clip-path="none"
     style="fill:#76835d;fill-opacity:1;stroke-width:0.343904"
     class="st1"
     d="M 89.205078 36.580078 C 88.882003 36.970112 88.458526 37.117217 87.914062 37.128906 C 85.994756 37.169576 84.204637 37.85486 82.728516 38.875 C 79.605281 41.030513 78.223747 41.98894 79.787109 45.744141 C 80.048833 46.377916 80.17412 47.078714 79.898438 47.722656 C 79.343584 49.024098 79.791888 50.125885 80.486328 51.207031 C 81.697236 52.230561 82.652275 51.471778 83.535156 50.736328 C 84.414547 50.004267 85.234902 49.194268 86.302734 48.726562 C 87.311243 48.282581 88.402598 48.254623 88.699219 49.488281 C 88.874541 50.215999 89.170704 50.834031 89.546875 51.376953 A 45 45 0 0 0 90 45 A 45 45 0 0 0 89.205078 36.580078 z " />
  <path
     id="path108"
     clip-path="none"
     style="fill:#5c674a;fill-opacity:1;stroke-width:0.343904"
     class="st0"
     d="M 85.402344 62.683594 C 83.17394 62.797526 81.194834 63.994673 79.951172 65.431641 C 77.99348 67.695608 75.799678 69.610564 73.5 71.474609 C 72.620609 72.189724 71.93997 73.268157 70.75 73.451172 C 66.632215 74.078169 62.914714 76.227256 58.699219 76.423828 C 56.6159 76.518725 54.3974 77.087044 52.736328 75.148438 C 52.397832 74.751905 51.807355 74.732369 51.273438 74.898438 C 48.617815 76.226993 46.266771 78.086765 43.429688 79.103516 C 42.885302 79.296699 42.417351 79.649021 42.019531 80.0625 C 40.689975 81.438503 39.048916 82.137583 37.119141 82.296875 C 36.002453 82.388382 34.94918 82.720954 34.261719 83.669922 C 33.808065 84.296919 33.591165 84.994501 33.978516 85.726562 C 34.369356 86.468791 35.029672 86.682386 35.867188 86.597656 C 36.959447 86.489206 38.062454 86.498626 39.158203 86.566406 C 41.346865 86.702447 43.746814 88.224677 44.660156 89.998047 A 45 45 0 0 0 45 90 A 45 45 0 0 0 86.371094 62.703125 C 86.043975 62.672711 85.720687 62.667318 85.402344 62.683594 z " />
  <path
     id="path109"
     clip-path="none"
     style="fill:#373f39;fill-opacity:1;stroke-width:0.343904"
     class="st20"
     d="M 80.054688 16.785156 C 78.62644 17.66089 76.919587 17.740323 75.478516 18.511719 C 74.791056 19.098045 74.037033 19.614107 73.921875 20.630859 C 73.841613 21.312082 73.282304 21.640917 72.636719 21.847656 C 71.63519 22.169629 70.598509 22.179405 69.558594 22.203125 C 67.890542 22.243795 66.216177 22.064575 64.558594 22.423828 C 62.384543 22.894923 62.003965 23.29164 61.644531 25.548828 C 61.46307 26.911274 62.172635 27.763743 63.324219 28.404297 C 64.60143 29.112633 66.021276 29.392299 67.410156 29.761719 C 68.139492 29.954902 68.872437 30.130468 69.472656 30.601562 C 70.802212 31.645428 70.627113 33.122029 69.074219 33.806641 C 68.390248 34.108277 67.633893 34.224558 66.939453 34.505859 C 64.758419 35.393822 63.982666 37.133147 64.802734 39.298828 C 65.019092 39.874987 65.393805 40.4023 65.453125 41.029297 C 65.547346 42.015546 65.051061 42.62287 64.039062 42.429688 C 62.17559 42.077213 60.265816 42.246426 58.402344 41.710938 C 56.339962 41.121221 54.148632 41.366329 52.023438 41.552734 C 50.624089 41.674744 49.448055 42.367735 49.029297 43.753906 C 48.582622 45.224807 49.455265 46.204349 50.634766 46.980469 C 50.781331 47.075366 50.917888 47.184801 51.064453 47.269531 C 52.369581 48.028705 52.656313 48.988025 52.035156 50.394531 C 51.20113 52.2823 51.583485 53.407027 53.248047 54.820312 C 53.603991 55.121948 54.033155 55.394084 53.869141 55.916016 C 53.523666 57.027664 54.226342 57.710666 54.878906 58.425781 C 56.044448 59.201905 57.230082 59.260324 58.4375 58.521484 C 58.786465 58.307966 59.152805 58.220299 59.582031 58.230469 C 61.742123 58.288084 62.726185 57.703655 63.410156 55.697266 C 63.759121 54.670347 64.370138 54.379828 65.34375 54.488281 C 66.547678 54.620459 67.733728 54.87403 68.90625 55.162109 C 71.77823 55.870446 74.384852 55.308614 76.757812 53.644531 C 77.347564 53.231052 77.962774 53.058136 78.681641 53.003906 C 79.934425 52.909009 80.903849 52.421499 80.949219 50.998047 C 80.949219 50.886205 80.945719 50.773952 80.949219 50.662109 C 80.977136 50.028334 80.341957 49.597185 80.310547 49.082031 C 80.27565 48.573655 80.803227 48.054905 80.921875 47.505859 C 81.023078 47.038154 80.966305 46.504298 80.847656 46.033203 C 80.669684 45.328255 80.408782 44.639805 80.119141 43.96875 C 79.787624 43.202797 79.815119 42.603155 80.376953 41.871094 C 80.848055 41.257654 81.577337 40.989876 81.996094 40.373047 C 82.516052 39.610483 83.39647 39.318352 84.181641 38.972656 C 84.760922 38.715079 85.371604 38.471445 85.964844 38.271484 C 86.613918 38.054577 87.387488 37.484844 88.015625 37.884766 C 88.518951 38.207348 88.973269 38.145971 89.476562 38.162109 A 45 45 0 0 0 80.054688 16.785156 z " />
  <path
     id="path110"
     clip-path="none"
     style="fill:#54483a;fill-opacity:1;stroke-width:0.343904"
     class="st19"
     d="M 87.601562 47.349609 C 87.475659 47.354074 87.354319 47.409324 87.193359 47.455078 C 85.780051 47.851611 84.575721 48.574874 83.623047 49.628906 C 82.935586 50.388081 82.053349 50.799872 81.191406 51.267578 C 80.985521 51.379421 80.942219 51.174399 80.949219 51.011719 C 79.856959 51.984411 79.854226 52.26068 78.060547 52.023438 C 77.83372 51.992936 77.645342 52.11972 77.439453 52.1875 C 76.87064 52.377293 76.500345 52.772872 76.126953 53.166016 C 75.701216 53.616776 75.164099 53.983566 74.591797 54.003906 C 74.054391 54.020852 73.621753 54.224154 73.185547 54.400391 C 72.26777 54.773201 71.2971 54.851616 70.382812 54.685547 C 69.164925 54.461862 67.964685 54.123157 66.736328 53.90625 C 65.710372 53.72662 64.719343 53.291082 63.644531 53.701172 C 62.817485 54.019754 62.2314 54.70113 62.566406 55.443359 C 62.939799 56.277095 62.576938 56.372764 61.945312 56.396484 C 61.568431 56.410041 61.459797 56.54154 61.466797 56.890625 C 61.470287 57.151591 61.578232 57.442963 61.382812 57.683594 C 60.636028 57.900501 60.011388 57.754754 59.599609 57.107422 C 59.222727 56.514312 58.871153 57.220069 58.511719 57.087891 C 58.455885 57.233625 58.416614 57.389306 58.339844 57.521484 C 58.015306 58.077308 57.412276 58.226222 56.857422 58.416016 C 56.375851 58.578696 56.163104 58.137518 55.876953 57.886719 C 55.534968 57.588472 55.506021 58.250571 55.212891 58.087891 C 53.687915 57.115202 52.230471 57.156159 50.708984 58.179688 C 49.058381 59.308281 47.264334 59.724418 45.306641 58.839844 C 44.793663 58.609377 44.192979 58.419351 43.617188 58.582031 C 42.381851 58.934505 41.212287 58.605233 40.029297 58.347656 C 39.181312 58.161252 38.343818 57.972374 37.460938 57.996094 C 35.234541 58.057099 34.100882 59.124818 34.324219 61.287109 C 34.523129 63.212158 33.90264 64.915998 33.365234 66.695312 C 32.81038 68.535633 31.121189 69.506123 30.189453 71.03125 C 30.049867 72.210682 29.865614 73.389501 30.441406 74.521484 C 32.835304 75.406058 35.134646 75.100792 37.375 74.033203 C 38.66966 73.416374 39.95612 73.193487 41.355469 73.783203 C 42.220901 74.149229 43.175009 74.087942 44.068359 73.806641 C 44.884937 73.549064 45.631678 73.664699 46.423828 73.912109 C 48.060473 74.420484 49.632963 75.166535 51.384766 75.285156 C 52.152489 75.217372 52.491896 75.744842 52.767578 76.287109 C 53.165398 77.073397 53.751311 77.375059 54.662109 77.324219 C 56.525581 77.222544 58.385825 77.267172 60.259766 77.046875 C 61.816149 76.86386 63.277553 76.527216 64.669922 75.9375 C 66.226305 75.276612 67.850516 74.911242 69.494141 74.636719 C 70.834165 74.413034 72.009773 74.036226 73.007812 73.070312 C 74.166376 71.948496 75.400236 70.88819 76.691406 69.912109 C 77.808093 69.068205 78.816939 68.190346 79.623047 67.03125 C 79.978991 66.519485 80.185614 65.831737 80.824219 65.509766 C 81.923458 64.96072 82.906436 64.235515 84.085938 63.794922 C 84.705734 63.563515 85.371545 63.458233 86.03125 63.480469 A 45 45 0 0 0 89.705078 50.144531 C 89.599185 49.826595 89.565204 49.47762 89.634766 49.072266 C 89.728987 48.533388 89.554621 48.120229 88.916016 47.960938 C 88.563561 47.869429 88.218495 47.676408 87.921875 47.462891 C 87.799737 47.373915 87.699487 47.346137 87.601562 47.349609 z " />
  <path
     id="path148"
     clip-path="none"
     style="fill:#373f39;fill-opacity:1;stroke-width:0.343904"
     class="st20"
     d="M 39.392578 72.582031 C 38.919901 72.59204 38.465398 72.667706 38.09375 72.816406 C 37.305089 73.131599 36.532801 73.488059 35.744141 73.806641 C 34.735632 74.213342 33.850203 74.568749 32.775391 73.982422 C 32.422937 73.792631 31.867717 73.909065 31.414062 73.953125 C 31.054628 73.987016 31.404594 74.660731 30.867188 74.613281 C 30.427492 74.74207 30.203435 75.064519 30.140625 75.474609 C 29.777702 77.823304 28.252696 79.255594 26.148438 80.201172 C 24.797944 80.807834 23.862999 81.69368 23.615234 83.167969 C 23.530962 83.667724 23.356843 84.039871 23.103516 84.3125 A 45 45 0 0 0 45 90 A 45 45 0 0 0 46.261719 89.982422 C 46.197349 89.946396 46.129249 89.922268 46.087891 89.904297 C 45.292252 89.551824 44.717402 89.060931 44.378906 88.244141 C 44.120672 87.630701 44.007886 86.674412 42.863281 87.087891 C 42.67833 86.68458 42.186829 86.777511 41.886719 86.509766 C 41.262072 85.957331 40.474105 85.726158 39.619141 85.736328 C 38.694384 85.746488 37.764601 85.71272 36.839844 85.75 C 36.295459 85.770335 35.751833 85.604616 35.210938 86.021484 C 34.861974 86.289228 34.188382 85.638431 34.359375 85.150391 C 34.621099 84.404773 34.894149 83.62241 35.839844 83.375 C 36.478449 83.208931 37.091836 83.021991 37.779297 83.025391 C 39.258908 83.035559 40.622638 82.4959 41.617188 81.496094 C 42.925806 80.181096 44.447545 79.282675 46.216797 78.818359 C 46.988009 78.618397 47.480172 78.195704 48.017578 77.724609 C 48.338626 77.443308 48.526761 77.026248 49.078125 76.955078 C 50.138978 76.819511 50.857829 76.158126 51.384766 75.287109 C 51.339398 75.08037 51.500969 74.698712 51.263672 74.695312 C 50.823977 74.691923 50.603028 74.349722 50.222656 74.248047 C 48.938466 73.902351 47.651898 73.514522 46.4375 72.982422 C 45.512743 72.579114 44.70249 72.430102 43.830078 72.996094 C 43.107721 73.463802 42.330611 73.426463 41.615234 73.046875 C 41.019813 72.731259 40.180373 72.56535 39.392578 72.582031 z " />
  <path
     class="st2"
     d="m 55.213531,58.08756 c -0.230317,0 -0.464123,0.02372 -0.69095,-0.0034 -1.465653,-0.176236 -2.700988,0.172848 -3.856061,1.14893 -0.663033,0.559213 -1.619197,0.779509 -2.550933,0.891352 -1.155073,0.138956 -1.402838,0.08473 -2.523015,-0.318582 -0.387351,-0.138956 -0.70142,-0.471095 -1.235336,-0.420257 -0.29662,0.02711 -0.628137,-0.274523 -0.882881,0.142345 -0.230317,0.372809 -0.638605,0.321971 -0.924757,0.233853 -1.193459,-0.366031 -2.481139,-0.362641 -3.632723,-0.813401 -0.851474,-0.332139 -1.6855,-0.12201 -2.519526,-0.159291 -0.408289,-0.01695 -1.371432,1.125205 -1.336535,1.542073 0.04536,0.525321 -0.118648,1.023529 0.219848,1.59291 0.544385,0.915076 -0.362923,1.843709 -0.29313,2.806234 -0.631627,0.349085 -0.04886,1.033697 -0.460634,1.504792 -0.331516,0.379587 -0.366413,0.999805 -0.575792,1.433619 -0.485061,0.999806 -1.148094,1.935217 -1.992589,2.74184 -0.341985,0.328749 -1.008508,-0.20674 -1.08528,0.498208 -1.98212,-0.09829 -3.824654,0.562603 -5.723023,0.94219 -2.118216,0.423646 -4.110805,0.342306 -5.64974,-1.542073 -0.931736,-1.138761 -2.07983,-2.111453 -3.562931,-2.602883 -0.216358,-0.07117 -0.39433,-0.233853 -0.579281,-0.36942 -1.353984,-0.986248 -2.903388,-1.969108 -2.446244,-3.897546 0.481572,-2.026725 1.989099,-3.263772 4.086378,-3.694197 1.695969,-0.349085 3.430324,-0.504987 5.140251,-0.782899 1.926286,-0.315193 2.222906,-0.664277 2.076341,-2.538489 -0.07677,-0.972692 0.04885,-1.908103 0.401309,-2.809623 0.59673,-1.538684 0.485061,-3.070589 0.06979,-4.629608 -0.352455,-1.321776 -0.924757,-2.487651 -2.393899,-2.833346 -1.462163,-0.345696 -2.369471,0.616829 -3.200007,1.582743 -1.001529,1.162485 -2.104258,2.233463 -3.088338,3.412895 -0.533916,0.637164 -1.116688,1.311609 -2.044934,1.481068 C 11.345166,52.580159 9.2827836,51.136372 7.1087328,50.021335 6.3096034,49.611245 5.6500599,48.885962 5.3185433,48.011556 4.7078548,46.398311 4.4984758,44.680001 3.6504912,43.107426 3.0746992,42.039837 3.9924766,40.606217 5.4406805,40.30797 7.5798347,39.870767 9.003611,38.579493 10.451815,37.176376 c 2.404367,-2.328361 5.394995,-3.877212 8.340258,-5.395561 2.770781,-1.43023 4.738942,0.05762 4.578419,3.10787 -0.06979,1.274328 -0.439696,2.548657 0.01745,3.84332 0.69444,1.972497 2.076341,2.592716 3.86304,1.450565 1.793679,-1.14554 3.618765,-1.694586 5.747451,-1.196378 0.757253,0.176237 1.517997,-0.05084 2.17405,-0.423646 1.870452,-1.057422 3.740903,-0.881185 5.688127,-0.203351 3.151152,1.091313 4.644721,0.508376 7.520191,-2.518154 1.497059,-1.538684 2.878959,-3.172264 4.292267,-4.778732 1.992588,-2.267355 4.306225,-4.178848 7.150288,-5.39556 0.767723,-0.32875 1.598259,-0.772731 2.359002,0.06101 0.04188,1.352279 1.127156,1.914881 2.142644,2.324971 1.235335,0.494819 2.57885,0.752396 3.894447,1.037086 1.702949,0.36942 2.718436,1.437008 3.339594,2.928244 0.07677,0.186404 0.0663,0.474484 -0.0349,0.647331 -0.59673,1.054033 -1.336535,1.962331 -2.680049,2.16907 -0.99106,0.152513 -2.292699,0.630386 -2.67656,1.037086 -0.30011,0.315193 -0.858454,0.508376 -0.837516,0.996417 0.02792,0.69478 -0.202399,1.399728 0.209379,2.097897 0.422248,0.715115 0.628137,1.545462 1.018978,2.280912 0.258234,0.484651 0.19891,0.820179 -0.188441,1.159096 -0.08724,0.07456 -0.164014,0.155902 -0.244276,0.237242 -1.18997,1.192989 -1.200439,1.220102 -2.854532,0.471095 -0.509488,-0.230463 -0.966632,-0.288079 -1.409818,-0.02711 -0.432716,0.254188 -0.910798,0.281301 -1.28768,0.105064 -1.919306,-0.887962 -3.946792,-1.033697 -6.023132,-0.945578 -0.635116,0.02711 -1.273722,-0.0034 -1.908838,0.0068 -0.998039,0.01695 -1.839044,0.376198 -2.502077,1.050643 -0.701419,0.711726 -0.722357,1.620024 0.02792,2.29108 0.568813,0.508376 1.221377,0.925244 1.839045,1.376004 0.03839,0.02711 0.129117,-0.02034 0.167503,0.0068 1.434245,0.918465 1.727376,1.809817 0.851474,3.273939 -0.638605,1.0642 -0.841005,2.053838 -0.244275,3.168875 0.160524,0.301636 0.338496,0.535489 0.69095,0.643943 1.053874,0.321971 1.702949,1.14215 2.414837,1.833541 -0.321048,0.616829 -0.865433,0.501597 -1.374921,0.528711 -0.328027,0.01695 -0.467613,0.355863 -0.244276,0.57277 0.191931,0.186404 0.331517,0.420257 0.680482,0.443981 0.436206,0.01695 0.212868,0.406701 0.265213,0.643943 z"
     id="path150"
     style="fill:#4c5a44;fill-opacity:1;stroke-width:0.343904"
     clip-path="none" />
  <path
     id="path151"
     clip-path="none"
     style="fill:#54483a;fill-opacity:1;stroke-width:0.343904"
     class="st19"
     d="M 58.195312 1.9785156 C 58.469082 2.3918103 58.831668 2.7618482 59.279297 3.0644531 C 60.109833 3.6236663 60.834759 4.2174497 61.201172 5.15625 C 61.445447 5.9933753 62.071293 6.5927311 62.570312 7.2773438 C 63.149594 8.073799 63.650743 8.9748572 63.015625 9.9238281 C 61.888469 11.611635 60.294702 12.896881 58.166016 12.65625 C 55.576698 12.364781 54.12773 13.649512 52.972656 15.5 C 52.250299 16.655707 51.329788 17.502253 50.083984 18.054688 C 49.735019 18.210589 49.382325 18.616547 49.001953 18.253906 C 48.649499 17.918378 48.955831 17.51849 49.109375 17.166016 C 50.512213 13.953082 48.924231 10.916745 45.410156 10.140625 C 44.513316 9.9440536 43.599001 9.7955516 42.677734 9.6972656 C 41.22953 9.544753 39.908482 9.1945957 38.896484 7.9609375 C 37.34359 6.0697801 35.485897 5.9348914 33.486328 7.4667969 C 31.996249 8.6089476 30.849666 10.134157 29.230469 11.154297 C 28.940833 11.337313 28.873539 11.720309 28.992188 12.076172 C 29.068958 12.530321 30.036139 13.229381 29.013672 13.388672 C 26.693056 13.751314 25.573101 15.543975 24.058594 16.869141 C 23.311809 17.523251 22.560436 18.112999 21.496094 18.136719 C 19.876897 18.173999 18.247399 18.279121 16.638672 18.085938 C 12.374322 17.577561 9.6174319 18.895875 7.65625 22.501953 C 6.973149 23.75989 6.1349924 24.74455 4.7207031 24.935547 A 45 45 0 0 0 2.6113281 29.892578 C 2.6753239 29.919929 2.7406913 29.945973 2.8085938 29.970703 C 3.471627 30.211334 4.1742841 30.174576 4.8652344 30.205078 C 6.7112582 30.286418 8.5702789 30.046366 10.402344 30.388672 C 13.110311 30.893659 15.149735 30.215827 16.845703 27.917969 C 17.986818 26.369118 19.691887 24.935376 21.855469 24.972656 C 24.148167 25.009937 26.406493 25.513838 28.748047 25.246094 C 30.234637 25.076635 30.618008 25.815516 29.888672 27.089844 C 29.344287 28.038812 29.183655 28.951418 30.083984 29.669922 C 31.200671 30.561274 31.29899 31.627554 31.005859 32.847656 C 30.85929 33.450928 30.775935 34.061423 30.796875 34.681641 C 30.863179 36.60669 32.028192 37.660269 34.03125 37.558594 C 35.196793 37.500978 36.321256 37.186917 37.392578 36.773438 C 40.397165 35.610953 43.409005 35.210907 46.507812 36.414062 C 47.345327 36.739423 48.199361 36.80318 48.953125 36.166016 C 49.776682 35.74237 50.436684 35.068229 50.904297 34.363281 C 51.340503 33.705782 51.867854 33.166579 52.429688 32.658203 C 53.012459 32.132881 53.265719 31.401757 53.855469 30.873047 C 54.972157 29.869852 56.002789 28.770317 57.269531 27.943359 C 58.780548 26.95711 60.346789 26.063412 62.171875 25.710938 C 62.751157 25.653322 62.436902 25.213058 62.513672 24.945312 C 62.712581 24.297981 62.778266 23.480064 63.636719 23.375 C 64.966275 23.212319 66.275052 22.856218 67.646484 23.001953 C 68.445613 23.086683 69.26574 22.973114 70.068359 23.027344 C 71.481667 23.118851 72.801174 22.782906 74.113281 22.345703 C 75.017104 22.044067 75.415138 21.667321 74.982422 20.958984 C 74.490381 20.15914 74.965461 19.911927 75.363281 19.488281 C 75.506357 19.332379 75.774302 19.248098 75.732422 18.966797 C 75.917373 17.011245 76.595415 15.129149 76.609375 13.146484 C 76.609686 13.089476 76.611722 13.033644 76.617188 12.978516 A 45 45 0 0 0 58.195312 1.9785156 z " />
  <path
     id="path152"
     clip-path="none"
     style="fill:#4c5a44;fill-opacity:1;stroke-width:0.343904"
     class="st2"
     d="M 75.708984 12.107422 C 75.700627 12.206995 75.701253 12.31076 75.710938 12.417969 C 75.780727 13.194089 75.925082 14.047924 75.673828 14.746094 C 75.426063 15.437484 75.380031 16.170453 75.111328 16.865234 C 74.881012 17.461728 74.559484 18.54562 75.728516 18.972656 C 76.58348 19.104834 77.310062 18.393617 78.189453 18.630859 C 79.01301 18.854544 79.592911 18.325758 79.847656 17.759766 C 80.018621 17.380693 80.143643 17.273107 80.451172 17.283203 A 45 45 0 0 0 75.708984 12.107422 z " />
  <path
     id="path153"
     clip-path="none"
     style="fill:#76835d;fill-opacity:1;stroke-width:0.343904"
     class="st1"
     d="M 21.542969 44.925781 C 21.43877 44.92647 21.329586 44.955065 21.210938 45.025391 C 20.219878 45.618496 19.073996 46.10348 18.466797 47.076172 C 18.072467 47.709947 17.546441 48.166603 17.068359 48.695312 C 16.722884 49.0749 16.213571 49.352778 15.990234 49.783203 C 15.484235 50.752506 14.67374 51.390581 13.822266 52.017578 C 12.464793 52.46156 11.066041 52.769426 9.7050781 53.216797 C 7.4577448 53.945469 5.6501552 53.434641 4.3066406 51.431641 C 3.5144905 50.24882 2.3352363 49.645333 0.82421875 49.509766 C 0.6188956 49.491191 0.4166517 49.466241 0.21875 49.433594 A 45 45 0 0 0 24.128906 84.867188 C 24.194372 84.695497 24.237794 84.504011 24.259766 84.298828 C 24.427269 82.773701 24.711006 81.33656 26.609375 80.892578 C 26.808285 80.848519 27.104085 80.72294 27.337891 80.583984 C 28.608123 79.838366 29.603918 78.852397 30.392578 77.628906 C 31.013735 76.669771 30.835777 75.639282 30.867188 74.619141 L 30.867188 70.908203 C 30.127381 69.972792 29.485066 69.554007 28.738281 69.933594 C 27.551801 70.536866 26.245648 70.630926 25.03125 71.041016 C 23.94597 71.410436 22.882702 71.118224 21.818359 71.240234 C 21.472884 71.277515 21.353623 70.942781 21.158203 70.759766 C 20.243915 69.898917 19.319391 69.040593 18.460938 68.128906 C 18.066607 67.712038 17.556753 67.335651 17.099609 67.244141 C 15.721198 66.96284 14.858453 66.056218 14 65.144531 C 13.651035 64.775111 13.219708 64.164971 13.505859 63.697266 C 14.102589 62.721184 14.468466 61.608328 15.742188 61.025391 C 16.656475 60.605134 17.57863 60.653947 18.433594 60.382812 C 19.114076 60.165905 19.74043 60.133753 20.396484 60.126953 C 21.076965 60.120175 21.617903 59.575831 22.34375 59.765625 C 23.017252 59.941862 23.576757 59.36558 24.285156 59.40625 C 24.770217 59.433363 25.321593 58.617004 25.283203 58.078125 C 25.248307 57.603642 25.346542 57.151873 25.091797 56.636719 C 24.798666 56.047003 24.919501 55.328281 25.177734 54.599609 C 25.599982 53.413399 26.248495 52.163 25.941406 50.888672 C 25.735517 50.024433 25.558285 49.132851 25.359375 48.275391 C 24.975513 46.607918 24.074431 45.677035 22.423828 45.25 C 22.117611 45.16866 21.855565 44.923716 21.542969 44.925781 z " />
  <path
     id="path156"
     clip-path="none"
     style="fill:#373f39;fill-opacity:1;stroke-width:0.343904"
     class="st20"
     d="M 20.847656 7.03125 A 45 45 0 0 0 4.34375 25.708984 C 4.7217442 25.708741 5.1002853 25.709892 5.4785156 25.716797 C 6.0752454 25.730353 6.6133793 25.473854 6.9414062 25.097656 C 7.5730325 24.372374 8.3584341 23.592754 8.546875 22.728516 C 8.9063086 21.057654 10.179276 20.397441 11.435547 19.648438 C 12.681352 18.90621 14.101067 18.397066 15.503906 18.695312 C 16.463559 18.898658 17.386336 18.926531 18.332031 18.957031 C 19.375436 18.994311 20.421022 18.912689 21.460938 18.980469 C 22.563667 19.051641 23.401236 18.670766 24.144531 17.908203 C 25.139081 16.884673 26.142115 15.861824 27.234375 14.943359 C 27.754332 14.50616 28.333473 13.89374 29.261719 14.490234 C 29.809594 14.842708 30.799222 14.181223 30.851562 13.5 C 30.893439 12.964511 30.966904 12.401355 30.771484 11.882812 L 29.128906 11.882812 C 28.9963 11.699798 28.905525 11.414355 28.703125 11.390625 C 26.905957 11.109324 25.993792 9.8391245 25.107422 8.4902344 C 24.660747 7.8090111 23.956787 7.2965851 23.136719 7.2050781 C 22.374521 7.1215817 21.61043 7.0548471 20.847656 7.03125 z " />
  <path
     id="path157"
     clip-path="none"
     style="fill:#5c674a;fill-opacity:1;stroke-width:0.343904"
     class="st0"
     d="M 45 0 A 45 45 0 0 0 19.640625 7.8261719 C 20.519641 7.8118704 21.400113 7.8560182 22.277344 7.8261719 C 23.282363 7.7922802 24.068248 8.2625968 24.525391 8.9980469 C 24.888315 9.5809843 25.431949 10.083142 25.630859 10.730469 C 25.906541 11.638767 26.644673 11.774241 27.398438 11.869141 C 27.963761 11.940321 28.549625 11.882812 29.128906 11.882812 C 29.164894 11.793847 29.218492 11.627617 29.253906 11.601562 L 29.255859 11.599609 L 29.257812 11.599609 L 29.259766 11.599609 L 29.261719 11.597656 C 30.266738 11.763725 30.820822 11.12424 31.414062 10.517578 C 32.010791 9.9041382 32.646291 9.3278819 33.25 8.7246094 C 33.836261 8.141672 34.453083 7.6699732 35.287109 7.3886719 C 36.511975 6.975193 37.075298 7.054365 37.902344 8.0507812 C 38.286205 8.5117084 38.781513 8.8566252 39.029297 9.453125 C 39.214248 9.9004955 39.856086 10.157575 40.253906 10.140625 C 41.286842 10.096565 42.203392 10.57422 43.236328 10.574219 C 44.122699 10.574219 45.051129 10.805786 45.9375 11.107422 C 47.162366 11.52429 47.961421 12.314074 48.603516 13.361328 C 49.067629 14.117113 49.097093 15.699694 48.601562 16.445312 C 48.221191 17.014692 47.815967 17.592788 47.599609 18.226562 C 47.449554 18.656986 47.423921 19.244319 48.013672 19.552734 C 48.477795 19.796758 49.027129 19.970064 49.417969 19.607422 C 50.269443 18.814356 51.259876 18.298934 52.324219 17.851562 C 52.540577 17.760055 52.662445 17.441516 52.8125 17.224609 C 53.615119 16.072291 54.21852 14.767272 55.394531 13.869141 C 55.935426 13.452273 56.588401 13.46168 57.181641 13.261719 C 58.088949 13.888705 58.95876 13.351276 59.873047 13.259766 C 60.944369 13.151313 61.603842 12.595 62.277344 11.9375 C 62.685632 11.537578 63.044522 11.073523 63.515625 10.761719 C 64.464809 10.131333 64.440004 9.1641597 64.199219 8.3710938 C 64.000309 7.7203729 63.643734 7.0061921 63.064453 6.4707031 C 62.617778 6.0572243 62.070447 5.7141987 61.826172 5.1210938 C 61.438821 4.8431821 61.006962 4.6907765 60.525391 4.7890625 C 59.129532 5.0771421 57.862679 4.5997117 56.679688 4.0371094 C 55.186117 3.3287727 53.720185 3.2720654 52.128906 3.5703125 C 50.432937 3.8855055 48.75795 4.4265823 46.992188 4.2910156 C 46.458272 4.2503456 45.906747 4.1652553 45.763672 3.5585938 C 45.641534 3.0400505 46.005071 2.7182278 46.423828 2.484375 C 47.389113 1.9496087 47.966999 1.1325307 47.960938 0.09765625 A 45 45 0 0 0 45 0 z M 16.332031 10.3125 A 45 45 0 0 0 15.132812 11.339844 C 15.916391 11.549746 16.571643 11.46002 17.351562 11.476562 C 16.954319 11.030175 16.583603 10.699879 16.332031 10.3125 z " />
  <path
     id="path158"
     clip-path="none"
     style="fill:#76835d;fill-opacity:1;stroke-width:0.343904"
     class="st1"
     d="M 47.21875 0.0546875 C 47.212667 0.091079575 47.205342 0.12813473 47.197266 0.1640625 C 47.043722 0.86223175 46.971139 1.7094449 45.927734 1.7636719 C 45.383349 1.7941745 45.176646 2.2447217 44.873047 2.5429688 C 43.993655 3.4038182 44.479222 5.0274027 45.728516 5.0917969 C 46.942914 5.152802 48.174664 5.2360338 49.441406 4.9140625 C 50.743045 4.5819236 52.10849 4.3362781 53.458984 4.1464844 C 54.219727 4.0380309 55.09103 3.9590535 55.722656 4.484375 C 56.37871 5.0334207 57.194908 5.1513736 57.927734 5.4394531 C 59.529479 6.0698374 60.007659 5.9554572 61.822266 5.1386719 C 62.070026 4.1117575 61.446261 3.4782147 60.734375 2.9257812 C 60.644756 2.854679 60.542934 2.7885985 60.4375 2.7304688 A 45 45 0 0 0 47.21875 0.0546875 z " />
  <path
     id="path160"
     clip-path="none"
     style="fill:#5c674a;fill-opacity:1;stroke-width:0.343904"
     class="st0"
     d="M 21.517578 23.990234 C 20.847184 24.010755 20.182011 24.204736 19.542969 24.660156 C 18.677536 25.280374 17.937417 26.096514 16.824219 26.421875 C 16.433379 26.537107 16.059665 26.975311 15.888672 27.517578 C 15.480383 28.815631 14.094635 29.730702 12.744141 29.757812 C 10.926034 29.791704 9.1578204 29.22898 7.3222656 29.398438 C 6.2300057 29.496718 5.1187704 29.388501 4.0195312 29.425781 C 3.5908144 29.440068 3.2106268 29.368261 2.8613281 29.208984 A 45 45 0 0 0 0 45 A 45 45 0 0 0 0.30859375 50.263672 C 0.455238 50.275733 0.60388762 50.284804 0.75390625 50.289062 C 2.1148689 50.326344 3.1086349 50.909087 3.6914062 51.875 C 4.1764673 52.678234 4.9101195 53.162411 5.4824219 53.830078 C 5.709249 54.091044 6.1115552 54.318183 6.4570312 54.355469 C 7.9157041 54.518149 9.3706262 54.307836 10.724609 53.816406 C 11.851766 53.406316 12.98837 52.922487 13.839844 52.017578 C 12.974411 52.071805 12.22095 51.895036 11.519531 51.322266 C 10.996084 50.891841 10.339648 50.523089 9.6835938 50.367188 C 9.0729053 50.221453 8.5879003 49.9468 8.0644531 49.662109 C 6.2742636 48.686028 5.726222 47.761043 5.8378906 45.785156 C 5.8623181 45.392012 5.7714892 45.085816 5.5097656 44.726562 C 5.108456 44.174128 4.6423232 43.656178 4.3457031 43.015625 C 4.1921581 42.690265 4.1346848 42.551979 4.28125 42.175781 C 4.6302148 41.284429 5.3106353 40.951231 6.1621094 40.900391 C 6.7797771 40.859721 7.2976446 40.548371 7.9257812 40.494141 C 8.6062627 40.436525 8.9552253 39.673416 9.4472656 39.222656 C 10.288271 38.449925 11.090088 37.640722 11.910156 36.847656 C 12.154431 36.610414 12.367441 36.28906 12.664062 36.173828 C 14.66014 35.38754 16.285853 34.050986 18.058594 32.925781 C 19.039185 32.305563 20.129066 31.913723 21.357422 32.103516 C 22.254262 32.242472 22.749091 32.973079 22.626953 33.884766 C 22.515284 34.704946 22.787167 35.664364 22.427734 36.332031 C 21.921735 37.27761 22.424191 37.983474 22.525391 38.796875 C 22.713832 40.318613 23.83792 41.093363 25.048828 41.794922 C 25.348937 41.967772 25.652156 41.877468 25.994141 41.765625 C 26.89447 41.477545 27.638397 40.975459 28.388672 40.443359 C 29.505359 39.650291 30.799767 39.183374 32.132812 39.617188 C 33.413514 40.034056 34.450968 39.897619 35.578125 39.226562 C 36.625019 38.602976 37.865551 38.172057 39.0625 38.595703 C 39.812774 38.860059 40.617069 39.008969 41.335938 39.375 C 41.915219 39.669857 42.623557 39.735349 43.216797 39.792969 C 43.789099 39.850584 44.471446 39.508967 45.148438 39.529297 C 45.650946 39.546243 45.942234 39.057037 46.210938 38.816406 C 47.156633 37.969113 48.537154 37.514388 48.962891 36.162109 C 47.692659 36.090936 46.563017 35.546867 45.373047 35.201172 C 43.279258 34.59451 41.226861 34.675279 39.167969 35.363281 C 37.642993 35.871657 36.10758 36.36622 34.554688 36.769531 C 33.706702 36.989827 32.810822 36.999349 32.060547 36.175781 C 31.275376 35.31832 31.483823 34.401463 31.724609 33.550781 C 31.850241 33.116967 31.898438 32.702024 31.898438 32.285156 C 31.894948 31.827618 32.342939 31.563696 32.287109 31.072266 C 32.213826 30.455437 32.303922 29.865001 31.414062 29.722656 C 31.13489 29.678597 30.933052 29.157341 30.650391 29.113281 C 30.238612 29.048887 30.091801 28.760106 29.830078 28.570312 C 30.248835 28.394075 30.102494 27.883094 30.4375 27.628906 C 30.800424 27.354383 31.106687 27.008955 31.427734 26.683594 C 32.143112 25.961701 32.133557 25.569437 31.289062 24.949219 C 30.908692 24.671307 30.507406 24.314394 29.980469 24.365234 C 28.926596 24.46691 27.844186 24.094682 26.800781 24.664062 C 26.458795 24.850466 25.764249 24.839437 25.474609 24.619141 C 24.975589 24.242943 24.49092 24.430545 24.005859 24.359375 C 23.573142 24.294981 23.146856 24.219384 22.724609 24.121094 C 22.322864 24.028315 21.919815 23.977922 21.517578 23.990234 z " />
</svg>
