<svg xmlns="http://www.w3.org/2000/svg" width="90" height="90"><defs><radialGradient id="a" cx="240" cy="180" r="16.75" gradientUnits="userSpaceOnUse"><stop offset="0" stop-color="#ffa000"/><stop offset="1" stop-color="#ffa000" stop-opacity="0"/></radialGradient><radialGradient id="b" cx="222.25" cy="166.25" r="16.75" gradientUnits="userSpaceOnUse"><stop offset="0" stop-color="#ffa000"/><stop offset="1" stop-color="#ffa000" stop-opacity="0"/></radialGradient><radialGradient id="c" cx="244" cy="156.5" r="21.25" gradientUnits="userSpaceOnUse"><stop offset="0" stop-color="#ffa000"/><stop offset="1" stop-color="#ffa000" stop-opacity="0"/></radialGradient><radialGradient id="d" cx="216" cy="196.75" r="21.25" gradientUnits="userSpaceOnUse"><stop offset="0" stop-color="#ffa000"/><stop offset="1" stop-color="#ffa000" stop-opacity="0"/></radialGradient><radialGradient id="e" cx="247.75" cy="207" r="14.5" gradientUnits="userSpaceOnUse"><stop offset="0" stop-color="#ffa000"/><stop offset="1" stop-color="#ffa000" stop-opacity="0"/></radialGradient><radialGradient id="f" cx="271.625" cy="181.375" r="17.375" gradientUnits="userSpaceOnUse"><stop offset="0" stop-color="#ffa000"/><stop offset="1" stop-color="#ffa000" stop-opacity="0"/></radialGradient><radialGradient id="g" cx="220.5" cy="148.5" r="16.25" gradientUnits="userSpaceOnUse"><stop offset="0" stop-color="#ffa000"/><stop offset="1" stop-color="#ffa000" stop-opacity="0"/></radialGradient><radialGradient id="h" cx="265.5" cy="154.5" r="16.25" gradientUnits="userSpaceOnUse"><stop offset="0" stop-color="#ffa000"/><stop offset="1" stop-color="#ffa000" stop-opacity="0"/></radialGradient><radialGradient id="i" cx="203.5" cy="177.5" r="14.5" gradientUnits="userSpaceOnUse"><stop offset="0" stop-color="#ffa000"/><stop offset="1" stop-color="#ffa000" stop-opacity="0"/></radialGradient></defs><g stroke-miterlimit="10" style="mix-blend-mode:normal;fill-rule:nonzero;stroke-linejoin:miter;stroke-dasharray:none;stroke-dashoffset:0"><path fill="#ffea00" d="M0 45C0 20.147 20.147 0 45 0s45 20.147 45 45-20.147 45-45 45S0 69.853 0 45"/><path fill="url(#a)" d="M223.25 180c0-9.25 7.5-16.75 16.75-16.75s16.75 7.5 16.75 16.75-7.5 16.75-16.75 16.75-16.75-7.5-16.75-16.75" style="fill:url(#a)" transform="translate(-198.562 -136.171)scale(1.01484)"/><path fill="#bb7f00" stroke="#ffc100" stroke-width="1.52226" d="M38.15 46.5a6.85 6.85 0 1 1 13.7 0 6.85 6.85 0 0 1-13.7 0z"/><path fill="url(#b)" d="M205.5 166.25c0-9.25 7.5-16.75 16.75-16.75S239 157 239 166.25 231.5 183 222.25 183s-16.75-7.5-16.75-16.75" style="fill:url(#b)" transform="translate(-198.562 -136.171)scale(1.01484)"/><path fill="#bb7f00" stroke="#ffc100" stroke-width="1.52226" d="M20.136 32.546a6.85 6.85 0 1 1 13.7 0 6.85 6.85 0 0 1-13.7 0z"/><path fill="url(#c)" d="M222.75 156.5c0-11.736 9.514-21.25 21.25-21.25s21.25 9.514 21.25 21.25-9.514 21.25-21.25 21.25a21.18 21.18 0 0 1-14.482-5.698 21.2 21.2 0 0 1-6.768-15.552" style="fill:url(#c)" transform="translate(-198.562 -136.171)scale(1.01484)"/><path fill="#bb7f00" stroke="#ffc100" stroke-width="1.52226" d="M40.369 22.651a8.69 8.69 0 1 1 17.38 0 8.69 8.69 0 0 1-17.38 0z"/><path fill="url(#d)" d="M198.917 194c-.886-1.993-2.149-2.856-1.773-4.682 1.647-8 9.3-13.818 18.856-13.818 11.736 0 21.25 9.514 21.25 21.25S233.736 216 222 216c-6.152 0-9.744-3.296-14.147-7.409-3.997-3.733-6.603-9.34-8.936-14.591" style="fill:url(#d)" transform="translate(-198.562 -136.171)scale(1.01484)"/><path fill="#bb7f00" stroke="#ffc100" stroke-width="1.52226" d="M11.953 63.499a8.69 8.69 0 1 1 17.381 0 8.69 8.69 0 0 1-17.38 0z"/><path fill="url(#e)" d="M233.25 207c0-8.008 6.492-14.5 14.5-14.5s14.5 6.492 14.5 14.5-6.492 14.5-14.5 14.5-14.5-6.492-14.5-14.5" style="fill:url(#e)" transform="translate(-198.562 -136.171)scale(1.01484)"/><path fill="#bb7f00" stroke="#ffc100" stroke-width="1.52226" d="M46.935 73.9a5.93 5.93 0 1 1 11.86 0 5.93 5.93 0 0 1-11.86 0z"/><path fill="url(#f)" d="M254.25 181.375c0-9.596 7.779-17.375 17.375-17.375s12.125 7.529 12.125 17.125-2.529 17.625-12.125 17.625-17.375-7.779-17.375-17.375" style="fill:url(#f)" transform="translate(-198.562 -136.171)scale(1.01484)"/><path fill="#bb7f00" stroke="#ffc100" stroke-width="1.52226" d="M69.989 47.895a7.106 7.106 0 1 1 14.211 0 7.106 7.106 0 0 1-14.211 0z"/><path fill="url(#g)" d="M206.75 153.75c0-5.475 3.455-8.005 7.321-10.968 3.146-2.41 6.976-5.032 11.429-5.032 8.975 0 11.25 1.775 11.25 10.75s-7.275 16.25-16.25 16.25-13.75-2.025-13.75-11" style="fill:url(#g)" transform="translate(-198.562 -136.171)scale(1.01484)"/><path fill="#bb7f00" stroke="#ffc100" stroke-width="1.52226" d="M18.565 14.533a6.646 6.646 0 1 1 13.291 0 6.646 6.646 0 0 1-13.291 0z"/><path fill="url(#h)" d="M256.352 141.07c2.605-1.775 3.305-1.258 5.001-.827 3.134.795 6.65 3.709 10.578 8.36 3.246 3.844 7.289 7.866 7.807 11.549.407 2.884-1.832 5.56-5.09 7.779-7.418 5.052-17.526 3.134-22.579-4.283-5.052-7.418-3.134-17.526 4.283-22.579" style="fill:url(#h)" transform="translate(-198.562 -136.171)scale(1.01484)"/><path fill="#bb7f00" stroke="#ffc100" stroke-width="1.52226" d="M64.233 20.622a6.646 6.646 0 1 1 13.291 0 6.646 6.646 0 0 1-13.291 0z"/><path fill="url(#i)" d="M196.25 178c0-8.008-.758-15 7.25-15s14.5 6.492 14.5 14.5-6.492 14.5-14.5 14.5-7.25-5.992-7.25-14" style="fill:url(#i)" transform="translate(-198.562 -136.171)scale(1.01484)"/><path fill="#bb7f00" stroke="#ffc100" stroke-width="1.52226" d="M2.028 43.963a5.93 5.93 0 1 1 11.86 0 5.93 5.93 0 0 1-11.86 0z"/></g></svg>