<?xml version="1.0" encoding="UTF-8" standalone="no"?>
<!-- Created with Inkscape (http://www.inkscape.org/) -->

<svg
   width="90"
   height="90"
   viewBox="0 0 23.812499 23.812501"
   version="1.1"
   id="svg912"
   xmlns="http://www.w3.org/2000/svg"
   xmlns:svg="http://www.w3.org/2000/svg">
  <defs
     id="defs909" />
  <g
     id="layer1">
    <g
       id="g833"
       transform="matrix(0,-1.3482888,1.3482888,0,-0.22836566,26.400372)">
      <path
         d="m 10.3162,0.307544 c 0.2599,-0.184227 0.6077,-0.184227 0.8676,0 l 1.366,0.968486 c 0.1463,0.10373 0.3249,0.1516 0.5035,0.13492 L 14.7206,1.25522 C 15.0377,1.2256 15.339,1.39953 15.4719,1.689 l 0.6988,1.52174 c 0.0748,0.16299 0.2056,0.29377 0.3686,0.36861 l 1.5217,0.69876 c 0.2895,0.13292 0.4634,0.43418 0.4338,0.75133 L 18.339,6.69668 c -0.0166,0.17858 0.0312,0.35722 0.135,0.50353 l 0.9685,1.36601 c 0.1842,0.25985 0.1842,0.60771 0,0.86756 L 18.474,10.7998 c -0.1038,0.1463 -0.1516,0.3249 -0.135,0.5035 l 0.1558,1.6673 c 0.0296,0.3171 -0.1443,0.6184 -0.4338,0.7513 l -1.5217,0.6988 c -0.163,0.0748 -0.2938,0.2056 -0.3686,0.3686 l -0.6988,1.5217 c -0.1329,0.2895 -0.4342,0.4634 -0.7513,0.4338 L 13.0533,16.589 c -0.1786,-0.0166 -0.3572,0.0312 -0.5035,0.135 l -1.366,0.9685 c -0.2599,0.1842 -0.6077,0.1842 -0.8676,0 L 8.95021,16.724 C 8.8039,16.6202 8.62526,16.5724 8.44668,16.589 L 6.77944,16.7448 C 6.46229,16.7744 6.16103,16.6005 6.02811,16.311 L 5.32935,14.7893 C 5.25451,14.6263 5.12373,14.4955 4.96074,14.4207 L 3.439,13.7219 C 3.14953,13.589 2.9756,13.2877 3.00522,12.9706 L 3.16095,11.3033 C 3.17763,11.1247 3.12976,10.9461 3.02603,10.7998 L 2.05754,9.43378 c -0.18422,-0.25985 -0.18422,-0.60771 0,-0.86756 L 3.02603,7.20021 C 3.12976,7.0539 3.17763,6.87526 3.16095,6.69668 L 3.00522,5.02944 C 2.9756,4.71229 3.14953,4.41103 3.439,4.27811 L 4.96074,3.57935 C 5.12373,3.50451 5.25451,3.37373 5.32935,3.21074 L 6.02811,1.689 C 6.16103,1.39953 6.46229,1.2256 6.77944,1.25522 L 8.44668,1.41095 C 8.62526,1.42763 8.8039,1.37976 8.95021,1.27603 Z"
         fill="#4790ff"
         id="path2" />
      <path
         d="m 7.9657875,8.03973 1.59099,1.59099 3.9774505,-3.97747 1.590999,1.59099 -3.977499,3.97746 -1.5909505,1.591 -3.18198,-3.18198 z"
         fill="#ffffff"
         id="path4" />
    </g>
  </g>
</svg>
