<svg xmlns="http://www.w3.org/2000/svg" xml:space="preserve" width="90" height="90" viewBox="0 0 23.813 23.813"><defs><clipPath id="a" clipPathUnits="userSpaceOnUse"><circle cx="295.963" cy="96.93" r="186.814" style="fill:red;stroke-width:334.563"/></clipPath></defs><g clip-path="url(#a)" transform="matrix(0 -.06373 .06373 0 5.729 30.769)"><path d="M283.783 285.089c-22.185-1.271-47.905-7.8-66.322-16.834-3.59-1.76-7.346-3.566-8.348-4.012-17.21-7.657-44.98-30.054-59.444-47.942-40.55-50.152-53.756-122.423-32.711-179.035.974-2.62 2.45-6.667 3.279-8.996C155.81-71.557 278.79-120.16 377.093-73.243 468.513-29.61 511.11 86.154 467.93 173.615c-1.15 2.328-2.87 5.98-3.822 8.114-2.777 6.22-10.553 18.896-16.65 27.141-38.167 51.617-98.96 79.926-163.675 76.219" style="fill:#fd9f53"/><path d="M283.43 284.729c-4.172-.243-10.283-.852-13.582-1.353-19.71-2.995-48.006-11.956-53.127-16.824-3.797-3.61-13.347-8.875-20.694-11.41-1.99-.687-3.945-1.423-4.342-1.635-1.42-.76-15.724-11.62-18.322-13.91a526 526 0 0 0-6.47-5.568c-31.967-27.053-56.275-78.985-58.99-126.03-1.328-23.017 5.013-66.14 10.85-73.783.214-.282 2.204.87 6.554 3.792 10.643 7.15 12.82 9.35 16.038 16.192 9.939 21.135 17.944 32.79 25.41 36.995 24.232 13.65 36.694 4.61 20.845-15.123-7.052-8.78-9.344-12.783-11.413-19.932-1.434-4.954-2.824-7.563-5.47-10.265-7.558-7.719-32.371-18.342-46.135-19.752-3.133-.321-3.121-.022-.236-6.217 1.381-2.967 3.054-6.561 3.716-7.988s1.204-2.752 1.204-2.944c0-5.017 26.6-39.677 38.12-49.672a685 685 0 0 0 6.447-5.656c2.274-2.04 2.472-2.191 11.878-9.068 82.76-60.507 199.754-42.538 261.15 40.109 5.311 7.15 14.536 21.788 15.813 25.092.344.89 2.047 4.635 3.785 8.323s3.521 7.723 3.964 8.966c.442 1.243.924 2.421 1.07 2.617.967 1.294 4.889 13.677 6.829 21.56 5.12 20.805 6.519 38.42 4.97 62.574-.606 9.452-5.614 33.944-8.354 40.853a624 624 0 0 0-2.81 7.301c-4.2 11.113-3.318 10.152-7.744 8.432-10.445-4.057-11.579-.018-1.831 6.52 2.632 1.765 2.613 1.429.33 6.038-11.96 24.15-39.334 56.496-54.96 64.944-.505.273-2.49 1.654-4.41 3.068-18.902 13.926-51.788 27.456-76.148 31.328-2.918.464-6.576 1.081-8.128 1.371-6.977 1.305-23.274 1.785-35.807 1.055m86.286-225.243c3.725-.95 6.567-2.062 16.196-6.341 9.667-4.296 12.386-5.395 24.137-9.759 32.675-12.132 38.335-19.173 21.079-26.221-12.288-5.02-17.035-4.722-37.625 2.355-26.377 9.066-39.149 16.178-45.493 25.331-5.871 8.47 8.328 18.044 21.706 14.635" style="fill:#fd5900"/><path d="M283.254 284.707c-10.004-.6-18.53-1.96-29.457-4.7-12.016-3.014-10.848-2.492-10.66-4.765.39-4.686-3.666-8.498-19.265-18.112-10.466-6.45-12.903-8.67-18.102-16.49-8.152-12.26-16.64-13.207-29.95-3.339-2.896 2.147-2.32 2.21-5.633-.627-1.528-1.31-3.596-3.016-4.595-3.792-31.756-24.672-61.917-96.373-57.875-137.584.19-1.94.447-6.226.57-9.525.31-8.244 3.134-28.046 4.001-28.046 1.973 0 10.594 13.443 13.802 21.52 3.45 8.688 4.445 9.547 16.758 14.458 21.088 8.412 25.418 12.072 27.72 23.44 5.303 26.178 35.579 31.71 56.82 10.381 7.66-7.69 7.702-13.479.184-25.172-1.372-2.135-3.863-6.5-5.535-9.702-4.278-8.19-5.413-9.894-10.931-16.404-6.716-7.922-8.799-11.665-10.795-19.403-3.363-13.03-5.247-14.62-31.96-26.942-13.022-6.007-18.715-8.317-27.443-11.131-9.54-3.077-13.406-4.533-13.406-5.05 0-.258.397-1.251.882-2.209.485-.957.882-1.998.882-2.314 0-6.424 31.782-46.314 43.039-54.02.873-.597 1.905-1.442 2.293-1.876.9-1.007 4.529-3.814 5.108-3.95.328-.078.426.658.386 2.894-.068 3.769.715 6.896 3.135 12.523 2.368 5.506 3.114 8.28 3.56 13.23.816 9.068 2.803 10.796 12.33 10.723 16.8-.13 32.99-8.85 31.946-17.207-.695-5.563-11.603-25.006-19.42-34.615-3.285-4.038-4.36-5.638-4.02-5.978 2.722-2.723 32.43-14.108 45.115-17.29 64.413-16.16 136.811 6.428 182.53 56.95 10.07 11.125 26.51 34.769 27.58 39.663.131.6 1.664 4.107 3.407 7.794 1.742 3.686 3.47 7.567 3.839 8.624s.906 2.28 1.193 2.718c8.091 12.35 13.974 53.726 12.005 84.437-.711 11.088-7.069 40.439-9.36 43.215-.16.194-.57 1.067-.908 1.94-1.045 2.691-.606 2.754-8.556-1.226-8.408-4.21-12.35-5.923-20.7-8.998-11.313-4.166-13.434-5.484-24.224-15.05-12.546-11.123-16.258-13.575-23.207-15.332-9.08-2.296-17.822 1.753-19.446 9.006-1.334 5.96 2.564 9.44 16.475 14.712 15.205 5.761 19.675 8.614 32.182 20.536 7.088 6.757 9.866 8.98 22.1 17.682a6069 6069 0 0 1 11.067 7.883l.837.606-2.182 4.229c-8.763 16.982-37.34 48.61-49.687 54.99-.637.33-2.765 1.783-4.729 3.23-4.256 3.135-3.851 3.075-4.83.714-6.523-15.738-37.435-18.086-49.655-3.771-11.113 13.018-13.932 25.036-6.893 29.392.645.4 1.042.854.882 1.01-.534.524-10.11 2.745-15.062 3.494-2.692.407-5.152.875-5.468 1.039-3.103 1.615-23.945 2.47-38.674 1.587m-54.873-81.123c30.2-2.439 26.533-17.96-4.702-19.902-17.205-1.07-24.212 3.04-20.183 11.838 3.364 7.348 9.426 9.313 24.885 8.064m142.217-134.18c3.383-.87 6.69-2.397 13.206-6.1 15.272-8.68 23.878-12.451 42.47-18.609 18.372-6.084 24.827-9.27 30.718-15.161 8.603-8.602 4.991-13.04-15.694-19.289-3.492-1.055-9.936-3.175-14.318-4.712-17.733-6.219-20.127-6.109-30.132 1.383-4.816 3.606-10.908 6.862-19.226 10.275-7.454 3.058-17.047 7.876-21.52 10.808-4.019 2.634-17.04 11.771-20.935 14.69-6.346 4.756-5.298 8.343 4.638 15.868 13.413 10.158 21.872 13.137 30.793 10.846m-48.186-99.3c20.533-3.463 25.07-7.76 24.44-23.149-.528-12.89-19.508-16.111-43.314-7.352-31.8 11.701-16.478 36.462 18.874 30.5" style="fill:#e42f00"/><path d="M283.43 284.729c-6.258-.365-13.25-1.199-20.726-2.472-1.378-.234-1.405-.455-.264-2.137 2.995-4.414-.25-7.894-14.29-15.327-23.458-12.418-30.126-19.68-34.238-37.296-2.71-11.612.44-14.705 18.737-18.4 26.523-5.354 37.057-14.698 25.381-22.51-16.783-11.228-60.886-11.466-63.88-.345-.721 2.677-.21 4.668 4.637 18.065 2.54 7.02 1.097 9.523-8.524 14.781-10.505 5.742-15.755 9.117-20.589 13.237-2.945 2.51-2.813 2.597-12.629-8.263-31.596-34.958-49.276-79.777-49.64-125.84-.045-5.637 33.92-1.187 44.99 5.895 4.883 3.123 6.764 6.165 8.945 14.465 3.172 12.075 6.731 17.266 16.361 23.864 13.08 8.962 21.934 8.526 43.993-2.165 26.615-12.9 41.514-13.471 64.205-2.464 10.736 5.208 17.513 6.371 22.417 3.847 4.793-2.466 4.582-5.941-.865-14.263-3.252-4.968-4.471-7.555-6.916-14.674-4.639-13.507-9.99-16.848-29.601-18.484-33.599-2.802-53.217-15.261-59.265-37.637-3.923-14.513-6.898-17.561-24.406-25.007-6.364-2.707-12.626-5.75-19.191-9.33-6.001-3.27-9.563-4.54-20.385-7.268-13.002-3.278-18.42-5.042-18.42-6 0-4.915 25.87-38.807 37.672-49.353 5.063-4.524 4.863-4.452 5.174-1.845.133 1.116.725 4.172 1.315 6.791 1.583 7.021 1.704 11.959.46 18.874-3.67 20.397 6.278 21.535 48.81 5.583 24.236-9.09 26.74-12.257 22.627-28.621-1.68-6.681-2.404-8.238-7.557-16.248-6.218-9.662-7.105-12.181-5.538-15.724 11.492-25.98 91.665-26.84 144.36-1.549 35.358 16.97 79.28 59.323 86.237 83.157.648 2.216-23.834-5.17-38.847-11.722-21.5-9.383-27.276-9.382-32.044.005-3.844 7.569-6.996 10.095-21.758 17.434-11.017 5.478-14.19 7.31-23.468 13.562-8.048 5.423-11.233 7.156-18.182 9.895-13.242 5.22-12.785 7.58 3.718 19.193 28.296 19.912 33.077 20.499 56.819 6.973 4.475-2.55 10.676-5.856 13.78-7.35 9.831-4.727 12.776-5.812 34.925-12.863 12.3-3.916 16.83-5.94 27.179-12.148 7.129-4.275 6.251-4.507 8.732 2.309 8.214 22.566 11.483 49.262 9.61 78.465-.732 11.422-7.653 43.039-9.421 43.039-.764 0-36.814-18.565-39.837-20.515-3.69-2.38-8.154-5.862-13.725-10.706-11.561-10.05-17.243-13.596-24.907-15.54-12.03-3.052-21.218 1.728-26.95 14.022-5.12 10.983-1.746 15.605 15.556 21.311 15.6 5.145 19.977 7.582 31.01 17.267 8.508 7.469 26.862 20.394 39.781 28.014 3.271 1.93 3.202 1.45.803 5.602-12.097 20.94-46.033 55.42-49.092 49.88-5.974-10.818-19.496-15.542-40.665-14.206-17.7 1.116-23.366 4.275-32.62 18.18-10.165 15.276-14.057 25.924-11.463 31.364 1.38 2.895-17.084 4.435-38.331 3.198m29.834-308.845c2.148-.19 8.657-1.062 14.464-1.937 26.578-4.007 28.385-5.08 29.427-17.467.204-2.425.593-5.838.865-7.585 1.514-9.742.69-13.835-3.667-18.204-8.117-8.14-22.03-7.614-47.463 1.795-33.032 12.22-37.915 17.02-29.93 29.421 7.009 10.887 19.01 15.508 36.304 13.977" style="fill:#a01f00"/><path d="M283.254 284.707c-13.435-.805-22.029-2.365-20.722-3.76 4.31-4.6.792-8.655-14.704-16.947-22.599-12.095-28.815-18.73-33.047-35.277-3.25-12.706-.826-15.162 19.035-19.291 23.712-4.93 35.094-13.967 26.937-21.39-8.439-7.68-25.342-11.298-46.82-10.02-20.923 1.244-23.655 4.928-16.959 22.866 4.141 11.092 3.74 11.974-8.441 18.578-8.878 4.813-15.283 9.02-20.109 13.207-1.946 1.689-2.395 1.35-11.386-8.61-30.017-33.251-47.105-74.195-49.286-118.094-.457-9.2-.603-8.546 2.03-9.138 8.337-1.876 30.306 1.552 39.446 6.155 7.053 3.551 9.298 6.554 11.454 15.319 3.114 12.656 8.37 19.78 19.409 26.303 11.853 7.005 20.862 6.281 40.545-3.256 16.291-7.895 20.878-9.42 30.896-10.277 11.697-1 21.562 1.036 33.486 6.908 11.455 5.642 17.558 6.824 22.942 4.442 5.855-2.59 5.85-6.17-.024-15.2-3.049-4.689-4.956-8.751-7.036-14.992-4.397-13.19-10.711-17.112-29.817-18.522-18.12-1.338-33.369-6.233-43.102-13.837-9.42-7.36-13.11-13.087-16.321-25.322-3.269-12.454-7.331-16.289-25.42-23.993-6.605-2.813-10.389-4.658-17.286-8.432-6.489-3.55-10.262-4.907-21.683-7.796-9.956-2.52-16.735-4.607-17.543-5.403-2.312-2.276 24.7-38.095 37.106-49.205 4.546-4.07 4.578-4.078 4.88-1.178.12 1.148.728 4.288 1.35 6.978 1.444 6.249 1.557 11.65.367 17.522-4.288 21.138 6.69 22.588 49.498 6.535 23.97-8.989 27.148-13.03 22.988-29.232-1.718-6.692-2.437-8.258-7.152-15.575-8.163-12.667-8.334-13.938-2.806-20.956 4.474-5.68 8.491-8.137 16.603-10.154 64.846-16.127 136.923 6.328 182.707 56.92 11.93 13.183 30.537 40.823 26.755 39.743-.34-.097-1.888-.517-3.44-.934-16.49-4.428-23.872-6.91-34.54-11.612-20.549-9.056-27.806-9.221-31.976-.73-4.094 8.337-7.324 11.037-21.33 17.828-10.377 5.031-12.13 6.037-23.102 13.247-9.564 6.284-13.48 8.413-20.316 11.043-12.754 4.907-11.98 7.972 5.048 19.993 27.578 19.47 33.254 20.241 55.484 7.541 4.948-2.826 11.425-6.331 14.393-7.788 9.523-4.675 13.843-6.272 35.702-13.192 11.998-3.8 16.549-5.825 26.81-11.937 4.948-2.946 6.62-3.785 6.912-3.466.906.989 4.858 13.44 6.804 21.434 4.963 20.381 6.348 38.222 4.819 62.066-.678 10.57-6.96 40.14-9.018 42.45-.227.256-27.888-13.641-36.928-18.554-4.14-2.249-9.435-6.228-17.244-12.956-24.726-21.303-41.526-21.877-51.652-1.765-6.032 11.981-2.578 17.01 15.874 23.11 14.979 4.952 19.49 7.474 30.367 16.98 8.925 7.798 23.794 18.317 39.062 27.632 2.754 1.68 3.584 2.355 3.42 2.783-4.429 11.54-35.921 46.513-48.759 54.147-.28.167-.727-.336-1.295-1.456-5.762-11.371-21.78-16.642-44.252-14.562-16.655 1.541-22.833 5.813-33.157 22.927-7.943 13.167-10.596 21.49-8.559 26.85.774 2.037.932 1.89-2.62 2.449-7.602 1.196-23.252 1.574-35.277.853M328.056-25.49c26.148-3.964 28.412-5.33 29.62-17.865.28-2.904.753-6.787 1.053-8.63 3.385-20.81-13.008-28.884-40.686-20.039-40.536 12.956-50.203 20.865-41.602 34.041 9.163 14.036 21.593 17.045 51.615 12.493" style="fill:#4c2117"/><path d="M285.852 284.357c-15.744-.874-23.688-2.33-22.57-4.138 2.949-4.772-.389-8.285-15.63-16.446-23.296-12.476-30.062-20.239-33.517-38.45-1.773-9.346 1.492-12.083 18.514-15.52 34.37-6.939 40.993-20.679 14.092-29.23-14.117-4.488-43.003-3.74-50.17 1.299-4.716 3.314-4.557 5.752 1.454 22.346 2.63 7.259 1.599 9.008-8.61 14.606-10.218 5.603-14.888 8.59-19.47 12.45-1.396 1.175-2.666 2.133-2.823 2.128-.685-.02-12.413-12.355-13.598-14.302-.168-.276.916-1.382 3.07-3.133 14.793-12.02 11.23-17.888-11.198-18.442l-8.035-.199-3.93-6.538c-15.128-25.174-25.36-61.765-25.334-90.6l.003-2.87 2.205-.376c13.125-2.239 37.29 3.18 44.677 10.02 2.794 2.586 3.893 4.887 5.72 11.972 2.863 11.11 6.925 17.16 15.732 23.434 13.582 9.676 23.044 9.426 44.908-1.189 27.12-13.165 41.522-13.754 64.558-2.638 21.187 10.224 32.628 4.592 22.396-11.025-3.246-4.953-4.784-8.177-7.064-14.804-4.853-14.106-10.313-17.52-30.678-19.18-32.697-2.666-52.248-15.068-58.176-36.901-4.068-14.984-7.184-18.134-25.785-26.068-6.712-2.863-10.829-4.866-17.815-8.668-6.59-3.587-9.845-4.75-21.66-7.735-9.595-2.424-16.192-4.424-16.937-5.133-.307-.294.73-2.125 6.877-12.154 3.906-6.37 13.242-18.732 18.65-24.694 2.64-2.91 5.352-5.945 6.025-6.742.673-.798 3.025-3.085 5.227-5.081 4.19-3.8 4.622-3.952 4.635-1.628.003.557.472 3.1 1.042 5.652 1.255 5.613 1.842 10.04 1.591 11.993-.103.798-.608 4.116-1.124 7.375-3.319 20.989 7.076 22.074 51.413 5.366 26.737-10.075 29.914-20.584 13.726-45.4-7.929-12.152-7.715-15.741 1.404-23.608 9.988-8.616 51.283-13.444 79.59-9.305 3.105.454 7.153 1.009 8.996 1.234 45.312 5.535 100.498 42.385 125.73 83.956 1.12 1.844 3.062 5.019 4.318 7.056 2.983 4.841 4.12 7.055 3.62 7.055-.485 0-16.672-4.572-21.837-6.168-4.807-1.485-8.58-2.97-16.58-6.529-20.293-9.025-27.158-8.98-31.877.204-4.03 7.847-6.9 10.243-19.917 16.632-11.343 5.568-14.448 7.341-24.147 13.79-9.51 6.322-12.288 7.857-18.957 10.47-14.457 5.663-13.938 8.36 4.048 21.01 27.75 19.515 33.089 20.11 56.983 6.342 3.783-2.18 9.578-5.278 12.876-6.884 10.037-4.888 12.938-5.962 35.278-13.069 12.394-3.942 17.402-6.178 27.504-12.278 3.098-1.87 5.747-3.284 5.887-3.141 2.26 2.298 11.436 39.157 10.085 40.509-.122.121-5.746-.223-12.5-.765-27.45-2.204-39.188-.78-54.019 6.557-17.57 8.692-13.05 13.347 24.158 24.876 10.433 3.233 13.666 4.441 22.072 8.248 10.17 4.606 12.895 4.581 19.558-.173l2.234-1.594v3.186c0 8.73-6.796 42.566-8.99 44.763-.27.27-37.156-18.757-39.893-20.578-3.72-2.476-6.826-4.93-13.324-10.533-9.39-8.094-12.469-10.308-18.004-12.943-15.4-7.332-27.543-3.206-34.64 11.772-5.485 11.575-1.953 16.324 16.779 22.569 14.992 4.998 19.049 7.285 30.22 17.037 2.685 2.344 6.23 5.343 7.88 6.665 3.169 2.54 21.948 15.17 29.104 19.574 2.328 1.434 4.424 2.777 4.658 2.986 1.777 1.591-20.84 30.589-30.991 39.734-1.604 1.445-4.59 4.201-6.636 6.125-3.288 3.09-9.56 8.08-10.71 8.52-.23.088-.807-.574-1.282-1.47-8.975-16.941-52.062-20.226-67.045-5.112-11.247 11.347-21.833 34.12-18.938 40.744.967 2.213-.314 2.406-23.396 3.517-1.65.08-6.91-.073-11.69-.338zm-.848-41.37c2.875-1.033 5.063-2.556 10.076-7.01 8.53-7.582 15.911-11.75 32.27-18.218 11.275-4.458 14.32-5.327 29.81-8.507 29.08-5.97 36.683-11.262 31.191-21.713-6.719-12.787-25.924-20.341-39.884-15.689-4.459 1.486-16.579 8.884-27.942 17.057-9.537 6.859-16.687 10.93-29.157 16.604-28.319 12.884-35.945 19.763-31.949 28.818 3.172 7.186 16.824 11.806 25.585 8.658m16.77-175.538c0-.618-1.338-1.608-2.174-1.608-1.006 0-1.17.773-.312 1.469.962.779 2.486.864 2.486.139m-15.102-37.907c9.437-2.445 18.983-10.594 18.983-16.204 0-5.906-7.357-7.8-30.339-7.811-25.44-.012-38.378 3.683-36.874 10.531 1.76 8.016 34.263 17.103 48.23 13.484m31.154-53.462c34.614-4.617 38.594-6.336 39.705-17.154.207-2.024.622-5.506.92-7.738 1.114-8.314 1.182-9.318.823-11.994-1.882-14.03-18.799-18.634-41.448-11.28-39.317 12.768-49.357 20.365-42.684 32.297 7.573 13.543 21.448 18.702 42.684 15.87" style="fill:#3e1700"/><path d="M284.312 284.163c-12.744-.628-21.624-2.296-20.658-3.881 3.004-4.928-.785-8.873-16.56-17.244-21.448-11.38-27.72-18.239-31.93-34.915-3.033-12.019-.743-14.23 18.867-18.217 31.34-6.372 38.93-18.706 17.262-28.052-15.676-6.762-50.033-6.098-56.53 1.093-2.961 3.278-2.687 5.896 1.96 18.714 3.647 10.062 3.238 10.928-8.105 17.154-9.826 5.393-15.323 8.97-19.802 12.888-2.02 1.766-1.91 1.796-5.074-1.387-3.592-3.613-4.505-2.338 8.916-12.45 13.746-10.358 15.886-19.88 6.2-27.589-5.322-4.237-7.212-4.542-29.773-4.803-18.318-.212-18.821-.236-19.226-.923-3.052-5.176-12.736-28.368-12.107-28.996.081-.082 1.685-.38 3.564-.662 22.555-3.388 25.61-6.616 24.167-25.534-1.344-17.624-11.066-24.118-32.84-21.936-4.446.445-4.073.867-4.374-4.934l-.25-4.804 1.343-.252c10.854-2.036 32.477 1.652 41.735 7.119 5.348 3.158 7.024 5.81 9.373 14.842 3.074 11.814 7.63 18.134 17.833 24.739 12.763 8.261 22.094 7.68 43.39-2.703 26.411-12.875 41.657-13.529 63.677-2.73 11.724 5.75 19.331 6.759 24.532 3.254 4.295-2.894 3.945-6.528-1.434-14.899-3.498-5.443-4.7-7.973-7.025-14.794-4.718-13.842-10.337-17.335-30.689-19.078-33.157-2.839-52.26-15.018-58.092-37.037-3.8-14.347-7.287-17.89-25.188-25.592-4.56-1.962-10.115-4.53-12.347-5.708-14.703-7.757-14.381-7.63-27.91-11.037-10.17-2.56-16.893-4.64-16.893-5.224 0-.206.98-2.029 2.176-4.05l2.176-3.676 1.374.22c10.902 1.743 14.977-1.11 20.888-14.626 2.718-6.213 3.728-10.308 3.886-15.753.15-5.139-.414-4.134 5.233-9.321 5.255-4.827 4.766-4.846 5.693.216.32 1.747.895 4.604 1.28 6.35.974 4.423.951 9.515-.066 14.464C168.412 4.573 179.45 6.335 222.4-9.7c24.152-9.016 27.908-13.27 24.56-27.823-1.97-8.56-2.692-10.214-8.071-18.465-7.813-11.985-7.952-13.23-2.256-20.188 4.458-5.446 7.82-7.436 16.022-9.487 5.67-1.417 22.231-4.24 22.634-3.856.082.077-1.354 1.609-3.19 3.403-5.471 5.349-6.307 8.786-2.91 11.974 5.52 5.18 16.313 3.608 36.538-5.322 17.208-7.599 20.129-8.646 23.212-8.324 8.505.889 33.262 8.54 43.23 13.359l4.602 2.225.426 1.845c.696 3.018.516 8.849-.456 14.775-3.368 20.522 1.876 26.957 29.81 36.575 11.467 3.948 18.707 6.726 30.162 11.572 5.045 2.134 11.54 4.7 14.433 5.703l5.262 1.822 2.764 4.553c3.105 5.112 3.142 5.212 1.794 4.89-10.453-2.5-26.83-7.812-34.13-11.07-23.189-10.35-31.128-10.748-35.198-1.764-3.638 8.03-6.936 10.786-21.36 17.843-10.536 5.154-13.348 6.77-23.086 13.267-8.675 5.788-12.295 7.777-19.084 10.486-14.703 5.866-13.925 8.832 5.947 22.675 16.59 11.557 24.639 15.117 33.128 14.651 5.903-.323 8.588-1.417 21.03-8.563 14.447-8.298 24.04-12.601 38.093-17.086 17.107-5.459 19.9-6.395 23.728-7.957 4.722-1.926 9.264-4.313 15.96-8.385 2.716-1.652 5.05-2.897 5.188-2.767.357.34 4.073 10.73 4.695 13.13.815 3.144.897 3.03-2.387 3.313-9.89.855-32.933 6.4-49.83 11.992-17.118 5.665-23.968 8.907-39.335 18.615-15.883 10.035-19.661 9.4-49.388-8.309-40.385-24.058-41.731-28.752-11.648-40.626 11.962-4.722 26.096-12.32 37.691-20.262 10.996-7.53 11.628-13.43 2.092-19.53-9.616-6.15-19.406-7.414-40.332-5.206-15.697 1.657-18.74 1.832-37.192 2.14-18.933.317-18.904.314-28.552 2.658-36.594 8.89-60.407 20.762-58.168 29 .552 2.031 3.088 4.192 9.312 7.938 7.605 4.576 10.722 6.962 16.691 12.78 10.847 10.569 13.434 14.007 13.441 17.862.015 8.832 2.594 10.746 20.62 15.303 13.625 3.444 18.31 4.894 37.087 11.478 34.975 12.264 37.136 13.969 34.023 26.839-1.941 8.023-.908 12.587 3.848 16.99 8.265 7.65 16.9 3.57 23.888-11.287 3.923-8.344 4.472-9.3 6.73-11.74 7.32-7.906 14.999-8.828 32.45-3.896 13.278 3.752 21.702 8.2 31.161 16.45 9.012 7.86 9.865 8.474 25.038 17.984 10.703 6.708 14.844 8.972 19.932 10.895l3.175 1.2-.042 1.279c-.04 1.213-1.604 6.55-2.206 7.523-.21.34-4.453-1.671-16.656-7.896-24.866-12.684-24.77-12.624-36.625-22.87-25.253-21.826-42.572-22.303-52.901-1.457-6.023 12.154-2.38 17.21 17.06 23.677 14.382 4.784 18.832 7.312 29.88 16.97 8.492 7.425 21.408 16.57 37.14 26.298 2.527 1.563 4.656 2.895 4.732 2.96.14.122-3.78 6.84-3.991 6.84-.065 0-.732-.26-1.483-.58-3.685-1.564-9.954-3.416-14.24-4.206-10.83-1.999-11.24-2.3-27.97-20.506-14.326-15.588-19.92-18.451-45.94-23.512-17.817-3.466-18.585-3.39-35.983 3.528-22.015 8.756-25.008 11.335-29.406 25.345-3.217 10.245-9.285 15.17-32.86 26.668-26.168 12.764-28.818 14.861-29.208 23.11-.567 12.02 9.933 23.328 26.808 28.873 24.142 7.931 37.779 7.909 45.093-.074 2.042-2.228 2.847-3.662 6.983-12.434 2.509-5.32 5.284-8.077 12.62-12.537 12.532-7.616 19.88-9.516 44.95-11.623 12.761-1.072 17.33-1.6 26.281-3.04 11.361-1.828 12.072-1.551 13.748 5.367 1.137 4.695 2.837 9.088 4.763 12.31l1.37 2.294-1.12 1.194c-4.22 4.495-8.876 7.075-9.733 5.395-5.457-10.696-19.8-15.726-41.353-14.503-18.198 1.033-24.179 4.409-33.99 19.185-9.44 14.215-13.737 26.008-11.4 31.293l.57 1.29-3.937.56c-7.833 1.116-20.872 1.46-32.865.87m-47.625-120.606c10.351-3.2 11.003-12.43.882-12.495-8.195-.054-20.888 8.908-16.86 11.903 2.374 1.766 11.131 2.09 15.978.592m82.726-187.303c34.265-4.91 37.376-6.284 38.472-17 .317-3.091 1.222-10.471 1.97-16.049.854-6.367-3.271-13.593-9.5-16.642-10.9-5.337-24.564-2.975-56.342 9.74-21.337 8.537-25.494 14.728-17.748 26.435 8.093 12.23 21.909 16.559 43.148 13.516" style="fill:#280800"/></g></svg>