<svg xmlns="http://www.w3.org/2000/svg" width="185" height="185" viewBox="0 0 48.948 48.948"><circle cx="23.758" cy="114.932" r="4.469" fill="none" style="fill:#6e460b;fill-opacity:0;stroke:#31220c;stroke-width:0;stroke-dasharray:none;stroke-opacity:1;paint-order:fill markers stroke"/><path d="M7.847 7.847h33.152v33.152H7.847z" style="fill:#d96300;fill-opacity:1;stroke:none;stroke-width:1.5658;stroke-linecap:butt;stroke-linejoin:miter;stroke-miterlimit:4;stroke-dasharray:none;stroke-opacity:1"/><path d="M.981.981v46.986h46.986V.98Zm7.927 7.927H40.04V40.04H8.91Z" style="fill:#d36b12;stroke-width:0;stroke-linecap:round;fill-opacity:1"/><path d="M7.847 7.847h33.152v33.152H7.847z" style="fill:none;fill-opacity:1;stroke:none;stroke-width:1.96165;stroke-linecap:butt;stroke-linejoin:bevel;stroke-miterlimit:4;stroke-dasharray:none;stroke-opacity:1"/><circle cx="5.056" cy="5.056" r="1.622" style="fill:gray;fill-opacity:1;stroke:#2e2e2e;stroke-width:.980823;stroke-linecap:round;stroke-linejoin:round;stroke-opacity:1"/><circle cx="43.892" cy="5.056" r="1.622" style="fill:gray;fill-opacity:1;stroke:#2e2e2e;stroke-width:.980823;stroke-linecap:round;stroke-linejoin:round;stroke-opacity:1"/><circle cx="5.056" cy="43.892" r="1.622" style="fill:gray;fill-opacity:1;stroke:#2e2e2e;stroke-width:.980823;stroke-linecap:round;stroke-linejoin:round;stroke-opacity:1"/><circle cx="43.892" cy="43.892" r="1.622" style="fill:gray;fill-opacity:1;stroke:#2e2e2e;stroke-width:.980823;stroke-linecap:round;stroke-linejoin:round;stroke-opacity:1"/><path d="M8.908 8.908H40.04V40.04H8.908z" style="fill:#454545;fill-opacity:1;stroke:#4a2404;stroke-width:1.96165;stroke-linecap:butt;stroke-linejoin:miter;stroke-miterlimit:4;stroke-dasharray:none;stroke-opacity:1"/><path d="M.981.981h46.986v46.986H.981z" style="fill:none;fill-opacity:1;stroke:#4a2404;stroke-width:1.96165;stroke-linecap:round;stroke-linejoin:round;stroke-miterlimit:4;stroke-dasharray:none;stroke-opacity:1"/><path d="M40.04 8.908h7.846M40.04 40.04h7.846m-46.824 0h7.846M1.062 8.908h7.846" style="fill:none;stroke:#4a2404;stroke-width:1.96165;stroke-linecap:butt;stroke-linejoin:miter;stroke-miterlimit:4;stroke-dasharray:none;stroke-opacity:1"/><path d="M24.474 12.725q-.903.002-1.774.122l-.743 2.222a10.8 10.8 0 0 0-3.2 1.325l-2.095-1.045a13 13 0 0 0-2.508 2.508l1.045 2.095a10.8 10.8 0 0 0-1.324 3.2l-2.223.744a13 13 0 0 0 0 3.546l2.223.743a10.8 10.8 0 0 0 1.324 3.2l-1.045 2.096a13 13 0 0 0 2.09 2.176q.098-.18.185-.365c.167-.366.318-.738.465-1.112q.19-.48.361-.968c.114-.303.187-.62.273-.931q.081-.313.167-.625l.072-.22a8.846 8.846 0 1 1 13.022.426c.112.37.224.738.344 1.104a60 60 0 0 1 .849 2.87l.304.152a13 13 0 0 0 2.508-2.507l-1.045-2.096a10.8 10.8 0 0 0 1.324-3.2l2.223-.743a13 13 0 0 0 0-3.546l-2.223-.743a10.8 10.8 0 0 0-1.325-3.2l1.046-2.096a13 13 0 0 0-2.508-2.508l-2.096 1.045a10.8 10.8 0 0 0-3.2-1.325l-.743-2.222q-.87-.121-1.773-.122z" style="fill:#a9a9b4;fill-opacity:1;stroke:#242429;stroke-width:.79375135;stroke-dasharray:none;stroke-opacity:1"/><path d="M24.72 19.028c-.04.004-.086.031-.141.094-.11.127-.258.397-.458.822s-.454 1.006-.69 1.55l-.63 1.438c-.172.389-.295.659-.405.933-.11.273-.209.551-.299.817q-.133.4-.249.756l-.208.634c-.058.176-.099.307-.078.45.02.143.102.298.176.482.073.184.139.397.147.564a.52.52 0 0 1-.119.38.9.9 0 0 1-.302.205c-.119.057-.25.114-.36.192s-.2.176-.282.286a1.7 1.7 0 0 0-.213.372.95.95 0 0 0-.085.425.46.46 0 0 0 .184.323c.106.086.253.152.376.262.122.11.22.266.22.409s-.098.274-.224.4a5 5 0 0 1-.426.36c-.143.11-.274.209-.392.323a2.2 2.2 0 0 0-.315.384c-.09.14-.163.286-.225.421-.061.135-.11.258-.175.405-.066.147-.148.319-.217.47-.07.151-.127.282-.188.434-.061.15-.127.322-.213.494s-.192.343-.274.49c-.081.148-.139.27-.196.389a19 19 0 0 1-.172.348 1.1 1.1 0 0 0-.13.368c-.017.139.008.302.143.38.135.077.38.07.699.04.319-.028.711-.077 1.067-.11.355-.033.674-.049.915-.073.242-.025.405-.058.65-.115.246-.057.573-.139.79-.253a.9.9 0 0 0 .412-.454c.09-.192.164-.43.237-.638.074-.208.148-.388.23-.584.081-.197.171-.41.228-.58.057-.173.082-.303.168-.41a.67.67 0 0 1 .793-.163.62.62 0 0 1 .27.253c.061.106.094.23.18.393s.225.368.351.6c.127.234.241.495.36.736.119.242.241.462.388.618s.32.245.564.327c.246.081.565.155.839.212s.502.098.8.143c.3.045.667.094.945.131s.466.062.642.053c.176-.008.34-.049.392-.106.054-.057-.004-.13-.098-.372-.094-.241-.225-.65-.4-1.165s-.397-1.137-.552-1.643c-.156-.507-.246-.9-.315-1.194-.07-.294-.119-.49-.18-.63a1 1 0 0 0-.245-.33 2.4 2.4 0 0 0-.425-.352c-.168-.103-.356-.168-.511-.237-.156-.07-.278-.144-.323-.23-.045-.085-.013-.183.073-.306s.225-.27.336-.409c.11-.139.192-.27.212-.454.02-.183-.02-.42-.04-.54-.021-.118-.021-.118-.058-.167a2 2 0 0 0-.184-.216.8.8 0 0 0-.298-.168c-.152-.057-.38-.13-.5-.237-.118-.106-.126-.245-.114-.38a.65.65 0 0 1 .127-.364c.082-.098.213-.164.286-.258.074-.094.09-.216-.02-.605-.11-.388-.348-1.042-.585-1.758a70 70 0 0 1-.662-2.13c-.188-.637-.327-1.136-.442-1.54a21 21 0 0 0-.277-.933c-.074-.216-.131-.339-.197-.408-.032-.035-.067-.057-.108-.054" style="fill:#a9a9b4;fill-opacity:1;stroke:#242429;stroke-width:.79375135;stroke-linecap:round;stroke-linejoin:round;stroke-miterlimit:10;stroke-dasharray:none;stroke-opacity:1"/></svg>