<svg xmlns="http://www.w3.org/2000/svg" xmlns:xlink="http://www.w3.org/1999/xlink" xml:space="preserve" width="185" height="185" viewBox="0 0 48.948 48.948"><defs><linearGradient xlink:href="#a" id="b" x1="112.28" x2="96.735" y1="85.87" y2="54.829" gradientTransform="translate(-16.765 -2.886)scale(.40778)" gradientUnits="userSpaceOnUse"/><linearGradient id="a"><stop offset=".538" style="stop-color:#008cff;stop-opacity:1"/><stop offset="1" style="stop-color:#a5d9ff;stop-opacity:1"/></linearGradient></defs><g style="stroke-width:.999993"><path d="M7.847 7.847h33.152v33.152H7.847Z" style="fill:#d96300;fill-opacity:1;stroke:none;stroke-width:1.56579;stroke-linecap:butt;stroke-linejoin:miter;stroke-miterlimit:4;stroke-dasharray:none;stroke-opacity:1"/><path d="M.981.981v46.986h46.986V.98Zm7.927 7.927H40.04V40.04H8.91Z" style="fill:#4084bf;fill-opacity:1;stroke-width:0;stroke-linecap:round"/><path d="M7.847 7.847h33.152v33.152H7.847Z" style="fill:none;fill-opacity:1;stroke:none;stroke-width:1.96164;stroke-linecap:butt;stroke-linejoin:bevel;stroke-miterlimit:4;stroke-dasharray:none;stroke-opacity:1"/><circle cx="5.056" cy="5.056" r="1.622" style="fill:gray;fill-opacity:1;stroke:#2e2e2e;stroke-width:.980816;stroke-linecap:round;stroke-linejoin:round;stroke-opacity:1"/><circle cx="43.892" cy="5.056" r="1.622" style="fill:gray;fill-opacity:1;stroke:#2e2e2e;stroke-width:.980816;stroke-linecap:round;stroke-linejoin:round;stroke-opacity:1"/><circle cx="5.056" cy="43.892" r="1.622" style="fill:gray;fill-opacity:1;stroke:#2e2e2e;stroke-width:.980816;stroke-linecap:round;stroke-linejoin:round;stroke-opacity:1"/><circle cx="43.892" cy="43.892" r="1.622" style="fill:gray;fill-opacity:1;stroke:#2e2e2e;stroke-width:.980816;stroke-linecap:round;stroke-linejoin:round;stroke-opacity:1"/><path d="M8.908 8.908H40.04V40.04H8.908Z" style="fill:#164c77;fill-opacity:1;stroke:#0c2943;stroke-width:1.96164;stroke-linecap:butt;stroke-linejoin:miter;stroke-miterlimit:4;stroke-dasharray:none;stroke-opacity:1"/><path d="M.981.981h46.986v46.986H.981Z" style="fill:none;fill-opacity:1;stroke:#0c2943;stroke-width:1.96164;stroke-linecap:round;stroke-linejoin:round;stroke-miterlimit:4;stroke-dasharray:none;stroke-opacity:1"/><path d="M40.04 8.908h7.846M40.04 40.04h7.846m-46.824 0h7.846M1.062 8.908h7.846" style="fill:none;stroke:#0c2943;stroke-width:1.96164;stroke-linecap:butt;stroke-linejoin:miter;stroke-miterlimit:4;stroke-dasharray:none;stroke-opacity:1"/><path d="M24.812 12.337c.362.41 1.086 1.233 1.76 2.04.675.805 1.3 1.594 1.908 2.406.609.811 1.2 1.644 1.738 2.505a29 29 0 0 1 1.392 2.506c.373.756.636 1.381.889 2.127.252.745.493 1.611.64 2.33a9 9 0 0 1 .204 1.907c0 .62-.055 1.289-.236 2.001a9 9 0 0 1-.844 2.106 7.7 7.7 0 0 1-1.25 1.65 9 9 0 0 1-1.689 1.37c-.63.39-1.32.685-2.034.905-.712.22-1.447.362-2.088.433a9 9 0 0 1-1.683.033 8 8 0 0 1-1.322-.214 8 8 0 0 1-1.096-.373 8 8 0 0 1-1.25-.647 12 12 0 0 1-1.551-1.167 9.5 9.5 0 0 1-1.152-1.24 5.2 5.2 0 0 1-.69-1.145 12.6 12.6 0 0 1-.625-1.71 6 6 0 0 1-.225-1.503 9.6 9.6 0 0 1 .104-1.721c.099-.69.274-1.535.559-2.423s.68-1.82 1.075-2.637a23 23 0 0 1 1.282-2.303 40 40 0 0 1 1.755-2.55 77 77 0 0 1 2.045-2.603c.63-.773 1.145-1.387 1.463-1.776.318-.39.439-.554.5-.636.06-.083.06-.083.421.329" style="fill:#212226;stroke:#121212;stroke-width:.944808;stroke-linecap:round;stroke-linejoin:round;stroke-miterlimit:10"/><path d="M17.554 33.312c.274.005.822.016 1.436 0 .614-.017 1.294-.06 2.001-.198.708-.137 1.442-.367 2.111-.608a13.4 13.4 0 0 0 1.908-.84 14.4 14.4 0 0 0 1.919-1.26 13.2 13.2 0 0 0 3.201-3.585c.46-.762.877-1.629 1.135-2.248s.356-.992.422-1.239.099-.367.165-.439c.065-.07.164-.093.246-.01.083.082.148.268.247.542s.23.636.4 1.223c.17.586.378 1.398.494 2.165a8.95 8.95 0 0 1-.406 4.353 8 8 0 0 1-.866 1.683 8 8 0 0 1-1.091 1.338 8.7 8.7 0 0 1-1.453 1.157c-.51.317-1.014.537-1.59.745-.575.208-1.222.406-1.858.51a9 9 0 0 1-1.88.088 10 10 0 0 1-1.854-.242 8.7 8.7 0 0 1-1.82-.663 9 9 0 0 1-1.535-.965c-.433-.34-.773-.68-.976-.877a3 3 0 0 0-.323-.29c-.055-.039-.099-.06-.148-.116-.05-.054-.104-.142-.132-.186-.027-.044-.027-.044.247-.038" style="fill:#0f0f0f;fill-opacity:1;stroke:#121212;stroke-width:.944808;stroke-linecap:round;stroke-linejoin:round;stroke-miterlimit:10;stroke-opacity:0"/><path d="M20.488 27.579c-.016-.203-.05-.609-.038-1.07.01-.46.065-.975.197-1.49a7.2 7.2 0 0 1 .603-1.536c.263-.504.581-.997.948-1.502a18 18 0 0 1 2.193-2.516c.335-.324.675-.642.85-.779.176-.137.187-.093.176.022s-.044.302-.039.614c.006.313.05.751.181 1.256.132.504.351 1.074.57 1.617.22.543.439 1.058.592 1.436.154.379.242.62.324.85s.159.45.22.543c.06.093.103.06.196-.143s.236-.575.313-.954a4.4 4.4 0 0 0 .06-1.173c-.027-.41-.093-.85-.104-1.052s.033-.17.17-.077.367.247.69.488c.324.241.741.57 1.12.96.378.389.717.838.953 1.216a4 4 0 0 1 .417.85c.05.164.016.186-.06.329-.077.142-.198.406-.384.767a9 9 0 0 1-.85 1.365c-.411.543-.981 1.168-1.64 1.799-.657.63-1.403 1.266-2.285 1.82a14 14 0 0 1-2.928 1.37 19 19 0 0 1-2.587.658c-.532.093-.565.06-.719-.098a13 13 0 0 1-.68-.751 6.6 6.6 0 0 1-.685-1.004 6.4 6.4 0 0 1-.532-1.283 9.7 9.7 0 0 1-.34-1.628 5.5 5.5 0 0 1 .022-1.337 7 7 0 0 1 .33-1.453 9 9 0 0 1 .745-1.568 6 6 0 0 1 .674-.932c.137-.148.148-.115.126.038-.022.154-.076.428-.104.757s-.027.712.017 1.168.131.98.241 1.354c.11.372.241.592.373.762.131.17.263.29.378.367s.214.11.263.126.05.016.033-.186" style="fill:url(#b);fill-opacity:1;stroke:none;stroke-width:.944808;stroke-linecap:round;stroke-linejoin:round;stroke-miterlimit:10"/><path d="M31.142 25.24c.082.21.248.629.347 1.18.1.553.133 1.237.1 1.827a6.8 6.8 0 0 1-.27 1.562 6 6 0 0 1-.641 1.479 7.3 7.3 0 0 1-1.457 1.777 9 9 0 0 1-2.19 1.374 5.6 5.6 0 0 1-1.833.469 7.2 7.2 0 0 1-1.82-.044 8.7 8.7 0 0 1-1.706-.48 6.3 6.3 0 0 1-1.076-.525 7 7 0 0 1-.679-.474c-.138-.11-.16-.144.122-.193.281-.05.866-.116 1.451-.238a10 10 0 0 0 1.915-.612 23 23 0 0 0 2.284-1.132 8.3 8.3 0 0 0 1.424-1.004c.425-.364.91-.817 1.374-1.313a13 13 0 0 0 1.264-1.567c.359-.53.634-1.049.828-1.408.193-.358.303-.557.37-.678.066-.122.088-.166.099-.188.01-.022.01-.022.094.188" style="fill:#0076d5;fill-opacity:1;stroke:#008cff;stroke-width:.952262;stroke-linecap:round;stroke-linejoin:round;stroke-miterlimit:10;stroke-opacity:0"/></g><path d="M156.855 163.353c5.228 3.676 12.75.21 13.547-7.117.929-8.563-9.359-11.576-12.172-10.522-2.554.96.945 6.24-1.135 8.562-.584.653-1.478.447-2.234.688-2.38.754-1.196 6.147 1.994 8.389zm-18.292 22.624c2.131 1.753 4.607 2.166 7.083 1.41 3.983-1.218 8.063-4.413 5.948-12.653-1.148-4.904-3.697-8.346-8.974-5.708-.16.088-8.457 5.948-8.148 9.903.171 2.2 1.96 5.295 4.091 7.048z" style="fill:#c9d1d9;fill-opacity:1;stroke:#a2a5c0;stroke-width:1.96162;stroke-dasharray:none;stroke-opacity:1" transform="translate(-124.266 -141.027)"/><path d="M157.405 181.576c-.344 1.341.55 3.129 1.444 4.092s1.788 1.1 3.06.722 2.923-1.272 3.679-2.338.619-2.304-.31-3.267c-2.31-2.394-7.191-1.866-7.873.791z" style="fill:#c9d1d9;fill-opacity:1;stroke:#a2a5c0;stroke-width:1.72853;stroke-miterlimit:4;stroke-dasharray:none;stroke-opacity:1" transform="rotate(93.066 196.268 49.872)scale(1.14906 1.12081)"/><path d="M133.921 151.8c4.355-.233 11.974-3.62 8.287-8.63-2.832-3.84-12.03-1.886-14.132-.756-2.303 1.238-2.785 3.37-2.957 4.676-.495 3.762 6.81 4.817 8.802 4.71z" style="fill:#c9d1d9;fill-opacity:1;stroke:#a2a5c0;stroke-width:3.04974;stroke-miterlimit:4;stroke-dasharray:none;stroke-opacity:1" transform="matrix(.39804 -.4477 .5583 .41143 -127.57 28.091)"/><path d="M132.365 146.3c-.128 1.976-.232 4.967 1.367 6.884 3.582 4.292 13.091 2.22 15.283-3.48 1.032-2.683.07-5.846-1.847-6.943-1.916-1.097-4.785-.127-7.338.156s-4.79-.118-5.986.163c-1.195.28-1.349 1.242-1.479 3.22z" style="fill:#c9d1d9;fill-opacity:1;stroke:#a2a5c0;stroke-width:1.96162;stroke-dasharray:none;stroke-opacity:1" transform="translate(-130.905 -140.455)"/></svg>