<svg xmlns="http://www.w3.org/2000/svg" xml:space="preserve" width="238.349" height="229.363" viewBox="0 0 63.063 60.686"><path d="M153.512 206.624c.23-.132-17.352-24.262-17.095-24.194.256.069-28.56 7.668-28.427 7.898s22.988-17.693 22.92-17.437c-.07.256-12.79-24.74-13.02-24.608-.23.133 22.815 19.17 22.558 19.1-.256-.068 28.728-6.256 28.596-6.486s-23.157 16.282-23.088 16.026 7.326 29.834 7.556 29.701z" style="fill:#372d20;fill-rule:evenodd;stroke:#000;stroke-width:2.11666;stroke-miterlimit:29;stroke-dasharray:none" transform="translate(-106.982 -146.935)"/><path d="M132.764 200.14c.273.074-1.318-23.25-1.177-23.005s-21.734-6.626-21.807-6.353c-.074.273 25.886-1.978 25.641-1.837-.244.141 9.686-20.915 9.413-20.988s.075 24.83-.066 24.585 18.092 10.023 18.165 9.75-21.087-1.655-20.843-1.796c.245-.142-9.599 19.572-9.326 19.645z" style="fill:#372d20;fill-rule:evenodd;stroke:#000;stroke-width:2.11666;stroke-miterlimit:29;stroke-dasharray:none" transform="translate(-106.982 -146.935)"/></svg>