<?xml version="1.0" encoding="UTF-8" standalone="no"?>
<!-- Created with Inkscape (http://www.inkscape.org/) -->

<svg
   width="281.12613"
   height="290.43399"
   viewBox="0 0 74.381287 76.843995"
   version="1.1"
   id="svg49750"
   inkscape:version="1.3.2 (091e20e, 2023-11-25, custom)"
   sodipodi:docname="container_ceiling_open2_damaged_1.svg"
   xmlns:inkscape="http://www.inkscape.org/namespaces/inkscape"
   xmlns:sodipodi="http://sodipodi.sourceforge.net/DTD/sodipodi-0.dtd"
   xmlns="http://www.w3.org/2000/svg"
   xmlns:svg="http://www.w3.org/2000/svg">
  <sodipodi:namedview
     id="namedview49752"
     pagecolor="#505050"
     bordercolor="#000000"
     borderopacity="0.25"
     inkscape:showpageshadow="2"
     inkscape:pageopacity="0"
     inkscape:pagecheckerboard="true"
     inkscape:deskcolor="#d1d1d1"
     inkscape:document-units="px"
     showgrid="false"
     inkscape:zoom="8.6174176"
     inkscape:cx="47.345971"
     inkscape:cy="265.27669"
     inkscape:window-width="1920"
     inkscape:window-height="1001"
     inkscape:window-x="-9"
     inkscape:window-y="-9"
     inkscape:window-maximized="1"
     inkscape:current-layer="layer1"
     inkscape:pageshadow="0"
     units="px"
     width="281.18002px"
     height="559.30802px"
     showguides="false" />
  <defs
     id="defs49747" />
  <g
     inkscape:label="Слой 1"
     inkscape:groupmode="layer"
     id="layer1"
     transform="translate(-0.01426065)">
    <g
       id="g942"
       transform="translate(-1.8144232,1.2458549)"
       style="fill:#000000;fill-opacity:0.199147;stroke:none">
      <path
         style="fill:#000000;fill-opacity:0.199147;stroke:none;stroke-width:2.20392;stroke-dasharray:none;stroke-opacity:1;paint-order:markers stroke fill;stop-color:#000000"
         d="m 15.835082,68.87122 14.578992,6.79487 16.68902,-3.643642 13.33204,1.378685 -18.12775,-13.88519 -10.74234,4.923846 -4.98756,-2.658889 z"
         id="path940" />
    </g>
    <path
       id="rect1049-9-7-5-1-7-8"
       style="fill:#a1a1a1;fill-opacity:1;stroke-width:2.15008;paint-order:markers stroke fill;stop-color:#000000"
       d="M 0,-3.6563131e-8 V 147.98373 h 11.319722 l 3.681429,-6.35 h 44.393155 l 3.681429,6.35 H 74.395459 V -3.6563131e-8 H 63.075735 L 59.394306,6.35 H 15.001151 L 11.319722,-3.6563131e-8 Z M 40.493135,60.761665 58.62071,74.647123 45.288707,73.268395 28.599804,76.912102 14.02085,70.117168 l 10.741979,-7.090524 4.98781,2.658753 z" />
    <path
       id="rect1049-9-7-2-9-5-4-02"
       style="fill:#e0e0e0;fill-opacity:1;stroke-width:1.97626;paint-order:markers stroke fill;stop-color:#000000"
       d="M 3.3512167,3.670577 V 144.31316 h 4.0881225 l 4.2333338,-6.35 h 51.050113 l 4.233333,6.35 h 4.088122 V 3.670577 h -4.088122 l -4.233333,6.35 H 11.672673 l -4.2333338,-6.35 z M 40.493135,60.761665 58.62071,74.647123 45.288707,73.268395 28.599804,76.912102 14.02085,70.117168 l 10.741979,-7.090524 4.98781,2.658753 z" />
    <path
       id="rect24996-9-4-4-8"
       style="fill:#ffffff;stroke-width:2.96972;paint-order:markers stroke fill;stop-color:#000000"
       d="M 3.3511837,133.04686 H 71.044335 V 122.30973 H 3.3511837 Z"
       sodipodi:nodetypes="ccccc" />
    <path
       id="rect4123"
       style="fill:#ffffff;stroke-width:2.96972;paint-order:markers stroke fill;stop-color:#000000"
       d="M 3.3511837,111.5726 H 71.044335 V 100.83547 H 3.3511837 Z"
       sodipodi:nodetypes="ccccc" />
    <path
       id="rect4125"
       style="fill:#ffffff;stroke-width:2.96972;paint-order:markers stroke fill;stop-color:#000000"
       d="M 3.3511837,90.098335 H 71.044335 V 79.361206 H 3.3511837 Z"
       sodipodi:nodetypes="ccccc" />
    <path
       id="rect4127"
       style="fill:#ffffff;stroke-width:2.96971;paint-order:markers stroke fill;stop-color:#000000"
       d="M 3.3512167,57.886907 V 68.624235 H 16.282727 l 8.480102,-5.597591 4.98781,2.658753 10.742496,-4.923732 10.264489,7.86257 H 71.044241 V 57.886907 Z" />
    <path
       id="rect4129"
       style="fill:#ffffff;stroke-width:2.96972;paint-order:markers stroke fill;stop-color:#000000"
       d="M 3.3511837,47.149822 H 71.044335 V 36.412693 H 3.3511837 Z"
       sodipodi:nodetypes="ccccc" />
    <path
       id="rect4131"
       style="fill:#ffffff;stroke-width:2.96972;paint-order:markers stroke fill;stop-color:#000000"
       d="M 3.3511837,25.675562 H 71.044335 V 14.938433 H 3.3511837 Z"
       sodipodi:nodetypes="ccccc" />
    <g
       id="g837"
       transform="translate(-1.8144232,1.2458549)">
      <path
         style="fill:#000000;fill-opacity:0;stroke:#a1a1a1;stroke-width:2.20392;stroke-dasharray:none;stroke-opacity:1;paint-order:markers stroke fill;stop-color:#000000"
         d="m 15.835082,68.87122 14.578992,6.79487 16.68902,-3.643642 13.33204,1.378685 -18.12775,-13.88519 -10.74234,4.923846 -4.98756,-2.658889 z"
         id="path30147-6-5" />
    </g>
  </g>
</svg>
