<?xml version="1.0" encoding="UTF-8" standalone="no"?>
<!-- Created with Inkscape (http://www.inkscape.org/) -->

<svg
   width="281.18002"
   height="284.54874"
   viewBox="0 0 74.395546 75.286855"
   version="1.1"
   id="svg49750"
   inkscape:version="1.3.2 (091e20e, 2023-11-25, custom)"
   sodipodi:docname="container_ceiling_open2_damaged_2.svg"
   xmlns:inkscape="http://www.inkscape.org/namespaces/inkscape"
   xmlns:sodipodi="http://sodipodi.sourceforge.net/DTD/sodipodi-0.dtd"
   xmlns="http://www.w3.org/2000/svg"
   xmlns:svg="http://www.w3.org/2000/svg">
  <sodipodi:namedview
     id="namedview49752"
     pagecolor="#505050"
     bordercolor="#000000"
     borderopacity="0.25"
     inkscape:showpageshadow="2"
     inkscape:pageopacity="0"
     inkscape:pagecheckerboard="true"
     inkscape:deskcolor="#d1d1d1"
     inkscape:document-units="px"
     showgrid="false"
     inkscape:zoom="8.6174176"
     inkscape:cx="47.926191"
     inkscape:cy="305.31188"
     inkscape:window-width="1920"
     inkscape:window-height="1001"
     inkscape:window-x="-9"
     inkscape:window-y="-9"
     inkscape:window-maximized="1"
     inkscape:current-layer="layer1"
     inkscape:pageshadow="0"
     units="px"
     width="281.18002px"
     height="559.30802px"
     showguides="false" />
  <defs
     id="defs49747" />
  <g
     inkscape:label="Слой 1"
     inkscape:groupmode="layer"
     id="layer1"
     transform="translate(0,0.86842104)">
    <g
       id="g942"
       transform="translate(-1.8144232,-72.308351)"
       style="fill:#000000;fill-opacity:0.199147;stroke:none">
      <path
         style="fill:#000000;fill-opacity:0.199147;stroke:none;stroke-width:2.20392;stroke-dasharray:none;stroke-opacity:1;paint-order:markers stroke fill;stop-color:#000000"
         d="m 15.835082,68.87122 14.578992,6.79487 16.68902,-3.643642 13.33204,1.378685 -18.12775,-13.88519 -10.74234,4.923846 -4.98756,-2.658889 z"
         id="path940" />
    </g>
    <path
       id="rect1049-9-7-5-1-7-8"
       style="fill:#a1a1a1;fill-opacity:1;stroke-width:2.15008;paint-order:markers stroke fill;stop-color:#000000"
       d="M 0,-73.554207 V 74.429247 h 11.319722 l 3.681429,-6.349964 h 44.393155 l 3.681429,6.349964 H 74.395459 V -73.554207 H 63.075735 l -3.681429,6.350003 H 15.001151 l -3.681429,-6.350003 z M 40.493135,-12.792536 58.62071,1.0929151 45.288707,-0.28581186 28.599804,3.3578929 14.02085,-3.437037 l 10.741979,-7.09052 4.98781,2.6587514 z" />
    <path
       id="rect1049-9-7-2-9-5-4-02"
       style="fill:#e0e0e0;fill-opacity:1;stroke-width:1.97626;paint-order:markers stroke fill;stop-color:#000000"
       d="M 3.3512167,-69.883628 V 70.758698 h 4.0881225 l 4.2333338,-6.349964 h 51.050113 l 4.233333,6.349964 h 4.088122 V -69.883628 h -4.088122 l -4.233333,6.350003 H 11.672673 l -4.2333338,-6.350003 z m 37.1419183,57.091092 12.355351,11.3063722 -7.314152,0.156439 -16.56609,0.08212 -14.947394,-2.1894319 10.741979,-7.0905203 4.98781,2.6587517 z"
       sodipodi:nodetypes="ccccccccccccccccccccc" />
    <path
       id="rect24996-9-4-4-8"
       style="fill:#ffffff;stroke-width:2.96972;paint-order:markers stroke fill;stop-color:#000000"
       d="M 3.3511837,59.492461 H 71.044335 V 48.755391 H 3.3511837 Z"
       sodipodi:nodetypes="ccccc" />
    <path
       id="rect4123"
       style="fill:#ffffff;stroke-width:2.96972;paint-order:markers stroke fill;stop-color:#000000"
       d="M 3.3511837,38.018324 H 71.044335 V 27.281254 H 3.3511837 Z"
       sodipodi:nodetypes="ccccc" />
    <path
       id="rect4125"
       style="fill:#ffffff;stroke-width:2.96972;paint-order:markers stroke fill;stop-color:#000000"
       d="M 3.3511837,16.544122 H 71.044335 V 5.8069954 H 3.3511837 Z"
       sodipodi:nodetypes="ccccc" />
    <path
       id="rect4127"
       style="fill:#ffffff;stroke-width:2.96971;paint-order:markers stroke fill;stop-color:#000000"
       d="M 3.3512167,-15.667294 V -4.9299691 H 16.282727 l 8.480102,-5.5975879 4.98781,2.6587514 10.742496,-4.9237304 10.264489,7.8625669 H 71.044241 V -15.667294 Z" />
    <path
       id="rect4129"
       style="fill:#ffffff;stroke-width:2.96972;paint-order:markers stroke fill;stop-color:#000000"
       d="M 3.3511837,-26.404379 H 71.044335 V -37.141508 H 3.3511837 Z"
       sodipodi:nodetypes="ccccc" />
    <path
       id="rect4131"
       style="fill:#ffffff;stroke-width:2.96972;paint-order:markers stroke fill;stop-color:#000000"
       d="M 3.3511837,-47.878639 H 71.044335 V -58.615768 H 3.3511837 Z"
       sodipodi:nodetypes="ccccc" />
    <g
       id="g837"
       transform="translate(-1.8144232,-72.308351)">
      <path
         style="fill:#000000;fill-opacity:0;stroke:#a1a1a1;stroke-width:2.20392;stroke-dasharray:none;stroke-opacity:1;paint-order:markers stroke fill;stop-color:#000000"
         d="M 42.307384,59.515943 31.565044,64.439789 26.577484,61.7809 Z"
         id="path30147-6-5"
         sodipodi:nodetypes="cccc" />
    </g>
  </g>
</svg>
