<?xml version="1.0" encoding="UTF-8" standalone="no"?>
<!-- Created with Inkscape (http://www.inkscape.org/) -->

<svg width="879.5733" height="1602.1925" viewBox="0 0 232.72044 423.91342" version="1.1" id="svg5" xml:space="preserve" sodipodi:docname="warehouse_ceiling.svg" inkscape:version="1.3.1 (91b66b0783, 2023-11-16, custom)" xmlns:inkscape="http://www.inkscape.org/namespaces/inkscape" xmlns:sodipodi="http://sodipodi.sourceforge.net/DTD/sodipodi-0.dtd" xmlns="http://www.w3.org/2000/svg" xmlns:svg="http://www.w3.org/2000/svg"><sodipodi:namedview id="namedview1" pagecolor="#ffffff" bordercolor="#000000" borderopacity="0.25" inkscape:showpageshadow="2" inkscape:pageopacity="0.0" inkscape:pagecheckerboard="0" inkscape:deskcolor="#d1d1d1" inkscape:document-units="mm" inkscape:zoom="0.38260073" inkscape:cx="440.4069" inkscape:cy="801.09623" inkscape:window-width="1440" inkscape:window-height="840" inkscape:window-x="0" inkscape:window-y="0" inkscape:window-maximized="1" inkscape:current-layer="svg5" /><defs id="defs2"><clipPath clipPathUnits="userSpaceOnUse" id="clipPath3"><path d="M 1.0583058,1.0583333 V 451.61274 H 247.44948 V 1.0583333 Z M 35.602966,44.357525 H 85.110505 V 68.329204 96.681867 H 65.694822 V 68.329204 H 35.602966 Z M 132.15759,188.18762 h 44.11903 v 23.97168 h -22.36364 v 28.35267 h -21.75539 z m 26.71804,167.80179 h 25.47093 v -23.97167 h 23.83353 v 52.32432 H 158.87563 Z M 44.299463,284.07434 h 43.30465 v 47.94364 28.35267 H 66.119595 V 336.39866 H 29.029536 V 308.04601 H 44.299463 Z M 190.59533,120.65355 H 151.71639 V 96.681869 h 16.7689 V 68.329204 h 44.01967 v 28.352663 h -21.90963 z" style="fill:#5f5f63;stroke:#333333;stroke-width:2.11667" id="path4" /></clipPath></defs><g id="g1" transform="matrix(0.93647117,0,0,0.93647117,1.37317e-7,1.5420238e-6)"><g id="g20" clip-path="url(#clipPath3)" transform="translate(2.8946632e-5)"><rect style="fill:#5f5f63;fill-opacity:1;stroke:#767676;stroke-width:4.072;stroke-linejoin:miter;stroke-dasharray:none;stroke-opacity:1" id="rect1514-3" width="240.57028" height="444.73376" x="3.96875" y="3.96875" /><rect style="fill:#767676;fill-opacity:1;stroke:none;stroke-width:1.21973;stroke-linejoin:miter;stroke-dasharray:none;stroke-opacity:1" id="rect21718" width="4.9570112" height="442.6683" x="121.77538" y="5.0481877" /><g id="g14" transform="translate(0,-2.7547338)"><rect style="fill:#767676;fill-opacity:1;stroke:none;stroke-width:2.59216;stroke-linejoin:miter;stroke-dasharray:none;stroke-opacity:1" id="rect21781" width="241.55948" height="4.3809752" x="3.4741509" y="23.140577" /><rect style="fill:#767676;fill-opacity:1;stroke:none;stroke-width:2.59216;stroke-linejoin:miter;stroke-dasharray:none;stroke-opacity:1" id="rect21781-1" width="241.55948" height="4.3809752" x="3.4741509" y="47.112259" /><rect style="fill:#767676;fill-opacity:1;stroke:none;stroke-width:2.59216;stroke-linejoin:miter;stroke-dasharray:none;stroke-opacity:1" id="rect21781-0" width="241.55948" height="4.3809752" x="3.4741509" y="71.083939" /><rect style="fill:#767676;fill-opacity:1;stroke:none;stroke-width:2.59216;stroke-linejoin:miter;stroke-dasharray:none;stroke-opacity:1" id="rect21781-0-4" width="241.55948" height="4.3809752" x="3.4741509" y="95.055626" /><rect style="fill:#767676;fill-opacity:1;stroke:none;stroke-width:2.59216;stroke-linejoin:miter;stroke-dasharray:none;stroke-opacity:1" id="rect21781-3" width="241.55948" height="4.3809752" x="3.4741509" y="119.02731" /><rect style="fill:#767676;fill-opacity:1;stroke:none;stroke-width:2.59216;stroke-linejoin:miter;stroke-dasharray:none;stroke-opacity:1" id="rect21781-1-0" width="241.55948" height="4.3809752" x="3.4741509" y="142.99899" /><rect style="fill:#767676;fill-opacity:1;stroke:none;stroke-width:2.59216;stroke-linejoin:miter;stroke-dasharray:none;stroke-opacity:1" id="rect21781-0-5" width="241.55948" height="4.3809752" x="3.4741509" y="166.97067" /><rect style="fill:#767676;fill-opacity:1;stroke:none;stroke-width:2.59216;stroke-linejoin:miter;stroke-dasharray:none;stroke-opacity:1" id="rect1" width="241.55948" height="4.3809752" x="3.4741509" y="214.91403" /><rect style="fill:#767676;fill-opacity:1;stroke:none;stroke-width:2.59216;stroke-linejoin:miter;stroke-dasharray:none;stroke-opacity:1" id="rect2" width="241.55948" height="4.3809752" x="3.4741509" y="238.88573" /><rect style="fill:#767676;fill-opacity:1;stroke:none;stroke-width:2.59216;stroke-linejoin:miter;stroke-dasharray:none;stroke-opacity:1" id="rect3" width="241.55948" height="4.3809752" x="3.4741509" y="262.85739" /><rect style="fill:#767676;fill-opacity:1;stroke:none;stroke-width:2.59216;stroke-linejoin:miter;stroke-dasharray:none;stroke-opacity:1" id="rect4" width="241.55948" height="4.3809752" x="3.4741509" y="286.82907" /><rect style="fill:#767676;fill-opacity:1;stroke:none;stroke-width:2.59216;stroke-linejoin:miter;stroke-dasharray:none;stroke-opacity:1" id="rect5" width="241.55948" height="4.3809752" x="3.4741509" y="310.80078" /><rect style="fill:#767676;fill-opacity:1;stroke:none;stroke-width:2.59216;stroke-linejoin:miter;stroke-dasharray:none;stroke-opacity:1" id="rect8" width="241.55948" height="4.3809752" x="3.4741509" y="334.77246" /><rect style="fill:#767676;fill-opacity:1;stroke:none;stroke-width:2.59216;stroke-linejoin:miter;stroke-dasharray:none;stroke-opacity:1" id="rect9" width="241.55948" height="4.3809752" x="3.4741509" y="358.74414" /><rect style="fill:#767676;fill-opacity:1;stroke:none;stroke-width:2.59216;stroke-linejoin:miter;stroke-dasharray:none;stroke-opacity:1" id="rect11" width="241.55948" height="4.3809752" x="3.4741509" y="406.6875" /><rect style="fill:#767676;fill-opacity:1;stroke:none;stroke-width:2.59216;stroke-linejoin:miter;stroke-dasharray:none;stroke-opacity:1" id="rect12" width="241.55948" height="4.3809752" x="3.4741509" y="382.71582" /><rect style="fill:#767676;fill-opacity:1;stroke:none;stroke-width:2.59216;stroke-linejoin:miter;stroke-dasharray:none;stroke-opacity:1" id="rect21781-0-4-2" width="241.55948" height="4.3809752" x="3.4741509" y="190.94235" /><rect style="fill:#767676;fill-opacity:1;stroke:none;stroke-width:2.59216;stroke-linejoin:miter;stroke-dasharray:none;stroke-opacity:1" id="rect14" width="241.55948" height="4.3809752" x="3.4741509" y="430.65918" /></g></g><path d="M 1.0583348,1.0583333 V 451.61274 H 247.44951 V 1.0583333 Z M 35.602995,44.357525 H 85.110534 V 68.329204 96.681867 H 65.694851 V 68.329204 H 35.602995 Z M 132.15762,188.18762 h 44.11903 v 23.97168 h -22.36364 v 28.35267 h -21.75539 z m 26.71804,167.80179 h 25.47093 v -23.97167 h 23.83353 v 52.32432 H 158.87566 Z M 44.299493,284.07434 h 43.30465 v 47.94364 28.35267 H 66.119624 V 336.39866 H 29.029565 V 308.04602 H 44.299493 Z M 190.59536,120.65355 H 151.71642 V 96.681869 h 16.7689 V 68.329204 h 44.01967 v 28.352663 h -21.90963 z" style="fill:none;stroke:#333333;stroke-width:2.11667" id="path2" /></g></svg>
