<?xml version="1.0" encoding="UTF-8" standalone="no"?>
<!-- Created with Inkscape (http://www.inkscape.org/) -->

<svg width="826.61652" height="1794.6071" viewBox="0 0 218.70895 474.82311" version="1.1" id="svg5" xml:space="preserve" sodipodi:docname="warehouse_floor.svg" inkscape:version="1.3.2 (091e20ef0f, 2023-11-25, custom)" xmlns:inkscape="http://www.inkscape.org/namespaces/inkscape" xmlns:sodipodi="http://sodipodi.sourceforge.net/DTD/sodipodi-0.dtd" xmlns:xlink="http://www.w3.org/1999/xlink" xmlns="http://www.w3.org/2000/svg" xmlns:svg="http://www.w3.org/2000/svg"><sodipodi:namedview id="namedview1" pagecolor="#ffffff" bordercolor="#000000" borderopacity="0.25" inkscape:showpageshadow="2" inkscape:pageopacity="0.0" inkscape:pagecheckerboard="0" inkscape:deskcolor="#d1d1d1" inkscape:document-units="mm" inkscape:zoom="0.34157895" inkscape:cx="323.49769" inkscape:cy="976.34822" inkscape:window-width="1440" inkscape:window-height="840" inkscape:window-x="0" inkscape:window-y="0" inkscape:window-maximized="1" inkscape:current-layer="svg5" /><defs id="defs2"><pattern xlink:href="#pattern82" preserveAspectRatio="xMidYMid" id="pattern6" patternTransform="matrix(0.265,0,0,0.265,132.81115,916.97601)" x="0" y="0" /><pattern patternUnits="userSpaceOnUse" width="124.99999" height="124.99999" patternTransform="translate(132.25235,1960.2316)" preserveAspectRatio="xMidYMid" id="pattern82"><rect style="fill:#5f5f63;stroke:#4c4c4c;stroke-width:5.81163;stroke-dasharray:none;stroke-opacity:1;paint-order:stroke fill markers" id="rect82" width="119.18836" height="119.18836" x="2.9058142" y="2.9058142" /></pattern></defs><g id="g1" transform="scale(0.93647047)"><rect style="opacity:1;fill:#502d16;fill-opacity:1;stroke:none;stroke-width:1.32292;stroke-dasharray:none;stroke-opacity:1;paint-order:normal" id="rect157" width="177.37642" height="330.94403" x="40.806793" y="106.04926" /><path id="path157" style="fill:url(#pattern6);fill-opacity:1;stroke:#4c4c4c;stroke-width:1.323;stroke-dasharray:none" d="M 98.041086,0.67045255 60.944126,9.0172296 13.181666,9.9448216 0.66149998,24.899465 V 477.06307 l 22.29683102,17.67541 49.839851,10.49238 44.884598,-8.06152 38.49946,9.18084 38.87308,-11.6117 23.12778,1.72858 14.70143,-19.40399 V 426.33956 24.899465 L 219.90031,6.2349706 162.96115,8.5536926 Z M 76.077052,114.60613 l 19.491317,3.44786 4.117061,19.50474 -34.100761,5.90197 -1.967321,-13.77125 z m 102.959088,276.08702 12.46022,17.70642 -7.8698,22.29683 -11.14816,-5.90197 -9.18135,-24.26415 z" /><g id="g89" transform="translate(-2.2895482,23.36743)"><ellipse style="fill:#5f5f63;fill-opacity:1;stroke:#555559;stroke-width:5.29167;stroke-linejoin:round;stroke-dasharray:none;stroke-opacity:1" id="path15325" cx="119.0625" cy="224.89583" rx="39.139004" ry="39.139008" /><path id="path29-4-6" style="fill:#323232;fill-opacity:0.196078;stroke:none;stroke-width:1.26235;stroke-dasharray:none;stroke-opacity:1" d="m 119.05066,196.28556 c -1.32848,0 -2.63465,0.0934 -3.9155,0.26846 l -1.6405,4.90664 c -2.53318,0.59911 -4.91291,1.59562 -7.06622,2.92585 l -4.62679,-2.30819 c -2.0892,1.5836 -3.95408,3.44826 -5.53716,5.53767 l 2.30818,4.62678 c -1.33025,2.15311 -2.32675,4.53355 -2.92535,7.06722 l -4.90763,1.64 c -0.17518,1.27962 -0.26797,2.58685 -0.26797,3.915 0,1.32817 0.0923,2.63519 0.26797,3.91501 l 4.90763,1.6405 c 0.59914,2.53369 1.59514,4.91338 2.92486,7.06672 l -2.3072,4.62677 c 1.34623,1.77658 2.89768,3.38855 4.61588,4.8056 0.14339,-0.26432 0.27903,-0.53285 0.40617,-0.80637 0.3683,-0.8073 0.70276,-1.62953 1.02827,-2.45482 0.27914,-0.70694 0.54392,-1.4193 0.79598,-2.13631 0.25127,-0.67039 0.41307,-1.36802 0.60182,-2.05706 0.12027,-0.46044 0.24298,-0.92003 0.36901,-1.37897 0.0526,-0.16185 0.10594,-0.32338 0.15949,-0.48492 -2.94353,-3.41949 -4.72386,-7.86983 -4.72386,-12.73615 0,-10.78772 8.74591,-19.53242 19.53292,-19.53242 10.7872,0 19.53293,8.7447 19.53293,19.53242 0,5.32644 -2.1326,10.15425 -5.58969,13.67775 0.24738,0.81372 0.49479,1.62764 0.7618,2.43499 0.627,1.97306 1.23148,3.95459 1.76483,5.95524 0.0355,0.1281 0.0716,0.25602 0.10798,0.38387 l 0.67165,0.33483 c 2.08889,-1.58383 3.95388,-3.44825 5.53717,-5.53768 l -2.3072,-4.62677 c 1.32972,-2.15334 2.32522,-4.53303 2.92487,-7.06672 l 4.90762,-1.6405 c 0.17519,-1.27982 0.26797,-2.58684 0.26797,-3.91501 0,-1.32815 -0.0929,-2.63538 -0.26847,-3.915 l -4.90762,-1.64 c -0.59965,-2.53367 -1.59535,-4.91411 -2.92486,-7.06722 l 2.30819,-4.62678 c -1.58436,-2.08941 -3.4495,-3.95407 -5.53816,-5.53767 l -4.62729,2.30819 c -2.15261,-1.33023 -4.53257,-2.32674 -7.06572,-2.92585 l -1.6405,-4.90664 c -1.28038,-0.17519 -2.58683,-0.26846 -3.9155,-0.26846 z" /><path id="path34308-7" style="fill:#323232;fill-opacity:0.196078;stroke:none;stroke-width:1.29147;stroke-linecap:round;stroke-linejoin:round;stroke-miterlimit:10;stroke-dasharray:none;stroke-opacity:1" d="m 119.59548,210.20312 c -0.0891,0.007 -0.19077,0.0677 -0.31268,0.20764 -0.24382,0.27982 -0.56873,0.87532 -1.01102,1.81409 -0.44231,0.93876 -1.00181,2.22059 -1.52532,3.42114 -0.52353,1.20051 -1.01118,2.31992 -1.3903,3.17744 -0.37912,0.85753 -0.64985,1.45328 -0.89359,2.05807 -0.24371,0.60479 -0.46039,1.21858 -0.65897,1.80531 -0.19859,0.58669 -0.37911,1.14616 -0.55061,1.6697 -0.1715,0.52354 -0.33374,1.01095 -0.46012,1.39909 -0.12636,0.38813 -0.21683,0.67719 -0.17161,0.99316 0.0452,0.31599 0.2259,0.65901 0.38837,1.0652 0.16244,0.40621 0.30678,0.8753 0.3248,1.24532 0.0179,0.37005 -0.0904,0.64087 -0.26184,0.8394 -0.17145,0.19854 -0.40599,0.32495 -0.66777,0.45133 -0.26171,0.12636 -0.55082,0.25287 -0.79458,0.42438 -0.24376,0.1715 -0.44212,0.38801 -0.62266,0.63175 -0.18056,0.24372 -0.34311,0.51458 -0.46949,0.82152 -0.12637,0.30693 -0.21664,0.65009 -0.1895,0.93897 0.0272,0.28889 0.17152,0.52336 0.40623,0.71288 0.23474,0.18949 0.55985,0.33409 0.83062,0.57785 0.27075,0.24376 0.48741,0.5868 0.48735,0.90265 -7e-5,0.31585 -0.21692,0.6047 -0.49674,0.8845 -0.2798,0.2798 -0.62275,0.55057 -0.93868,0.79428 -0.31593,0.24374 -0.60488,0.4604 -0.86662,0.71317 -0.26179,0.25276 -0.49642,0.54154 -0.69502,0.84847 -0.19859,0.30693 -0.36103,0.6317 -0.49643,0.9296 -0.1354,0.29788 -0.24363,0.56862 -0.38806,0.89358 -0.14441,0.32495 -0.32512,0.70427 -0.47856,1.03827 -0.15346,0.33397 -0.2796,0.62285 -0.41501,0.95682 -0.1354,0.33395 -0.27994,0.71305 -0.46949,1.09216 -0.18956,0.37909 -0.42427,0.75808 -0.6048,1.08306 -0.18053,0.32495 -0.30679,0.5958 -0.43317,0.85755 -0.12637,0.26177 -0.25291,0.5146 -0.37928,0.76735 -0.12637,0.25275 -0.2527,0.5055 -0.28877,0.81247 -0.0361,0.30695 0.0181,0.66798 0.31602,0.83938 0.29792,0.17142 0.83971,0.15339 1.54378,0.0902 0.70403,-0.0632 1.57031,-0.17174 2.35561,-0.24397 0.78528,-0.0722 1.4895,-0.10805 2.02205,-0.16225 0.53254,-0.0542 0.89352,-0.12637 1.4351,-0.25275 0.54159,-0.12637 1.26371,-0.307 1.74206,-0.5597 0.47834,-0.25272 0.71315,-0.57775 0.91173,-1.00195 0.19859,-0.42422 0.36088,-0.9478 0.52338,-1.40817 0.16247,-0.46035 0.32498,-0.85744 0.5055,-1.29071 0.18053,-0.43328 0.37914,-0.90255 0.50552,-1.28164 0.12636,-0.3791 0.18059,-0.66789 0.37019,-0.90266 0.18961,-0.23477 0.51468,-0.41542 0.8397,-0.47857 0.32502,-0.0633 0.64997,-0.009 0.91174,0.11744 0.26176,0.12644 0.46007,0.32501 0.59541,0.5597 0.13536,0.23466 0.20785,0.50558 0.39746,0.86663 0.18958,0.36106 0.49631,0.81222 0.77612,1.32675 0.2798,0.51451 0.53251,1.09233 0.79429,1.62491 0.26178,0.53255 0.53256,1.01977 0.85756,1.36275 0.32499,0.34297 0.70402,0.54175 1.2456,0.72225 0.54159,0.1805 1.24593,0.34282 1.85071,0.4692 0.60479,0.12635 1.11005,0.21672 1.76899,0.316 0.65895,0.0993 1.47151,0.20754 2.08531,0.28877 0.61382,0.0812 1.02884,0.13555 1.41695,0.11745 0.38812,-0.018 0.74928,-0.10838 0.86663,-0.2346 0.11736,-0.12627 -0.009,-0.28867 -0.21672,-0.82122 -0.20764,-0.53255 -0.49636,-1.4353 -0.88451,-2.57265 -0.38813,-1.13731 -0.87565,-2.50949 -1.21867,-3.6288 -0.34303,-1.11929 -0.54153,-1.98574 -0.69499,-2.63561 -0.15346,-0.64992 -0.26182,-1.0831 -0.39715,-1.39 -0.13536,-0.30692 -0.29783,-0.48762 -0.54154,-0.73133 -0.24371,-0.24373 -0.5686,-0.55042 -0.93868,-0.77613 -0.37008,-0.22571 -0.78545,-0.37024 -1.12846,-0.52368 -0.343,-0.15343 -0.61377,-0.31594 -0.71317,-0.5055 -0.0994,-0.18958 -0.0271,-0.40631 0.16256,-0.67714 0.18956,-0.27085 0.4964,-0.59578 0.7401,-0.90266 0.24371,-0.30688 0.42403,-0.59551 0.46919,-1.00165 0.0451,-0.40612 -0.045,-0.92987 -0.0902,-1.19172 -0.0451,-0.26186 -0.045,-0.26168 -0.12621,-0.3699 -0.0812,-0.10824 -0.24378,-0.32478 -0.40623,-0.47828 -0.16248,-0.15346 -0.32473,-0.24378 -0.65871,-0.37017 -0.33397,-0.1264 -0.83966,-0.28904 -1.10152,-0.52368 -0.26186,-0.23463 -0.2798,-0.54148 -0.25276,-0.83939 0.0272,-0.29789 0.0994,-0.58665 0.28001,-0.80337 0.18057,-0.21672 0.46929,-0.36125 0.63172,-0.56877 0.16245,-0.20752 0.19857,-0.47833 -0.045,-1.33582 -0.24367,-0.85749 -0.76717,-2.3016 -1.29073,-3.88124 -0.52355,-1.57966 -1.04712,-3.29463 -1.46234,-4.70278 -0.41524,-1.40814 -0.72226,-2.50933 -0.975,-3.40296 -0.25275,-0.89358 -0.45112,-1.57965 -0.61358,-2.05806 -0.16247,-0.47837 -0.28879,-0.74914 -0.43317,-0.90267 -0.0722,-0.0768 -0.14909,-0.1242 -0.23823,-0.11742 z" /></g></g><path id="rect1" style="fill:#4f4f4f;fill-opacity:1;stroke:#323232;stroke-width:1.85093;stroke-linejoin:round;stroke-dasharray:none;stroke-opacity:1" d="M 0.9255249 51.514685 L 0.9255249 58.6481 L 0.9255249 416.17511 L 0.9255249 423.30801 L 65.171216 423.30801 L 65.171216 416.17511 L 8.0548055 416.17511 L 8.0548055 58.6481 L 65.171216 58.6481 L 65.171216 51.514685 L 8.0548055 51.514685 L 0.9255249 51.514685 z " /><path id="path2" style="fill:#4f4f4f;fill-opacity:1;stroke:#323232;stroke-width:1.85093;stroke-linejoin:round;stroke-dasharray:none;stroke-opacity:1" d="m 217.78349,51.514685 v 7.133415 357.52701 7.1329 H 153.5378 v -7.1329 h 57.11641 V 58.6481 H 153.5378 v -7.133415 h 57.11641 z" /></svg>
