<svg xmlns="http://www.w3.org/2000/svg" width="745.332" height="626.937" viewBox="0 0 394.405 331.754"><path d="m2926.165 3501.24 15.92 4.645-15.92 3.668v.205l11.837 6.587-11.837 4.275v.11l10.684 6.186-3.28 3.791 9.49 2.159-16.894 7.833h67.168l-.215-.073h77.768v-38.958h-78.271l.718-.426z" style="fill:#47311c;fill-opacity:1;stroke:#21150c;stroke-width:4;stroke-dasharray:none;stroke-opacity:1" transform="translate(-2803.979 -3444.854)"/><path d="m2882.243 3540.056-8.323-4.644 8.323-3.668v-.206l-6.189-6.586 6.19-4.275v-.11l-5.587-6.187 1.715-3.79-4.962-2.16 8.834-7.832h-35.12l.112.073h-40.662v38.958h40.925l-.376.426z" style="fill:#47311c;fill-opacity:1;stroke:#21150c;stroke-width:4.00001;stroke-dasharray:none;stroke-opacity:1" transform="translate(-2803.979 -3444.854)"/><path d="M2805.979 3735.651h390.404v38.958h-390.404zM2805.979 3462.948h390.404v38.958h-390.404z" style="fill:#47311c;fill-opacity:1;stroke:#21150c;stroke-width:4;stroke-dasharray:none;stroke-opacity:1" transform="translate(-2803.979 -3444.854)"/><path d="M3006.614 3501.906h189.769v38.958h-189.769z" style="fill:#442f1c;fill-opacity:1;stroke:#21150c;stroke-width:4;stroke-dasharray:none;stroke-opacity:1" transform="translate(-2803.979 -3444.854)"/><path d="M2805.979 3540.863h390.404v38.958h-390.404z" style="fill:#442f1c;fill-opacity:1;stroke:#21150c;stroke-width:4;stroke-dasharray:none;stroke-opacity:1" transform="translate(-2803.979 -3444.854)"/><path d="m3051.663 3579.395 15.919 4.645-15.92 3.667v.206l11.838 6.587-11.837 4.275v.11l10.684 6.186-3.281 3.79 9.49 2.16-16.894 7.832h67.168l-.215-.073h77.768v-38.958h-78.27l.717-.426z" style="fill:#47311c;fill-opacity:1;stroke:#21150c;stroke-width:4;stroke-dasharray:none;stroke-opacity:1" transform="translate(-2803.979 -3444.854)"/><path d="m2921.39 3735.302-11.353-4.645 11.353-3.667v-.206l-8.442-6.587 8.442-4.275v-.11l-7.62-6.186 2.34-3.791-6.768-2.159 12.048-7.832h-47.903l.154.073h-55.463v38.958h55.821l-.512.425zM2805.979 3618.778h390.404v38.958h-390.404zM3004.256 3696.693h192.127v38.958h-192.127z" style="fill:#442f1c;fill-opacity:1;stroke:#21150c;stroke-width:4;stroke-dasharray:none;stroke-opacity:1" transform="translate(-2803.979 -3444.854)"/><path d="M2805.979 3657.736h390.404v38.958h-390.404zM2817.113 3579.24h179.617v38.958h-179.617z" style="fill:#47311c;fill-opacity:1;stroke:#21150c;stroke-width:4;stroke-dasharray:none;stroke-opacity:1" transform="translate(-2803.979 -3444.854)"/><path d="M2805.98 3455.432v317.664h10.8v-306.863h368.802v306.863h10.801V3455.43H2816.78Z" style="fill:#68482a;fill-opacity:1;stroke:#21150c;stroke-width:4;stroke-dasharray:none;stroke-opacity:1" transform="translate(-2803.979 -3444.854)"/><path d="M2997.097 3446.854h15.034v325.153h-15.034z" style="fill:#68482a;fill-opacity:1;stroke:#21150c;stroke-width:4;stroke-dasharray:none;stroke-opacity:1" transform="translate(-2803.979 -3444.854)"/><path d="M3105.701 3625.08c-3.472-3.661 46.007-19.904 41.438-10.446-4.629 9.582 16.772-5.672 14.43-3.243-3.829 3.972 9.662 47.956 4.304 45.47-11.934-5.538-27.563 26.528-33.148 31.81-3.305 3.123-1.192 6.45-5.062 8.506-4.242 2.253-17.51 8.408-21.786 5.058-3.411-2.672-19.84 1.424-3.605-19.851 6.318-8.28-9.888-7.89-5.032-15.314 1.885-2.871.604-19.84-2.766-20.433-5.579-.98 15.176-17.392 11.227-21.556zM2862.136 3629.285c-4.907 1.176 16.845-43.185 22.752-34.5 5.984 8.8 3.473-17.361 4.406-14.118 1.525 5.302 34.625 32.122 48.94 20.03 10.051-8.49 1.782 36.112 3.563 43.59 1.054 4.423 4.992 4.257 4.837 8.637-.17 4.8-12.554 12.758-17.593 14.786-4.02 1.618-10.396-10.21-25.57 4.532-7.471 7.258-24.885 1.065-28.886-6.851-1.544-3.068-12.212-14.573-14.41-11.95-3.64 4.34 7.542-25.494 1.961-24.156z" style="fill:#38451e;fill-opacity:1;stroke:#242d14;stroke-width:3.67;stroke-linecap:square;stroke-linejoin:round;stroke-dasharray:none;stroke-opacity:1;paint-order:fill markers stroke;stop-color:#000" transform="translate(-2803.979 -3444.854)"/></svg>