<svg xmlns="http://www.w3.org/2000/svg" xml:space="preserve" width="138.032" height="100.961" viewBox="0 0 36.521 26.713"><g transform="translate(-128.135 -226.301)"><ellipse cx="146.396" cy="242.298" rx="10.297" ry="9.927" style="fill:#d72828;fill-opacity:1;stroke:none;stroke-width:1.60677;stroke-linecap:round;stroke-linejoin:round;stroke-dasharray:none;stroke-opacity:1;paint-order:fill markers stroke"/><path d="M146.396 236.813a4.924 4.792 0 0 0-4.924 4.792 4.924 4.792 0 0 0 2.193 3.986v2.202h1.26v-1.615a4.924 4.792 0 0 0 .84.177v1.438h1.261v-1.435a4.924 4.792 0 0 0 .84-.179v1.614h1.26v-2.2a4.924 4.792 0 0 0 2.193-3.988 4.924 4.792 0 0 0-4.923-4.792zm-2.627 3.515a1.313 1.278 0 0 1 1.314 1.277 1.313 1.278 0 0 1-1.314 1.279 1.313 1.278 0 0 1-1.312-1.28 1.313 1.278 0 0 1 1.312-1.276zm5.253 0a1.313 1.278 0 0 1 1.314 1.277 1.313 1.278 0 0 1-1.314 1.279 1.313 1.278 0 0 1-1.313-1.28 1.313 1.278 0 0 1 1.313-1.276zm-2.626 2.3c.169 0 .336.284.673.852.674 1.136.675 1.135-.673 1.135-1.347 0-1.348 0-.674-1.135.337-.568.506-.852.674-.852z" style="fill:#631212;fill-opacity:1;stroke:#7b1616;stroke-width:.529167;stroke-linecap:round;stroke-miterlimit:4;stroke-dasharray:none;stroke-opacity:1"/><path d="m151.73 233.303 6.06-5.843 4.69-.73-8.502 8.378z" style="fill:#d72828;fill-opacity:1;stroke:none;stroke-width:.703286;stroke-linecap:round;stroke-linejoin:round;stroke-dasharray:none;stroke-opacity:1;paint-order:fill markers stroke"/><path d="m153.758 235.279 5.792-5.663 4.662-.8-8.654 8.802zm-12.696-1.976L135 227.46l-4.69-.73 8.503 8.378z" style="fill:#d72828;fill-opacity:1;stroke:none;stroke-width:.703286;stroke-linecap:round;stroke-linejoin:round;stroke-dasharray:none;stroke-opacity:1;paint-order:fill markers stroke"/><path d="m139.033 235.279-5.792-5.663-4.661-.8 8.653 8.802z" style="fill:#d72828;fill-opacity:1;stroke:none;stroke-width:.703286;stroke-linecap:round;stroke-linejoin:round;stroke-dasharray:none;stroke-opacity:1;paint-order:fill markers stroke"/><ellipse cx="141.75" cy="237.593" rx="1.706" ry="1.644" style="opacity:.180769;fill:#fff;fill-opacity:1;stroke:none;stroke-width:.873104;stroke-linecap:round;stroke-linejoin:round;stroke-dasharray:none;stroke-opacity:1;paint-order:fill markers stroke"/><ellipse cx="146.396" cy="242.298" rx="10.297" ry="9.927" style="fill:none;fill-opacity:1;stroke:#741616;stroke-width:1.60677;stroke-linecap:round;stroke-linejoin:round;stroke-dasharray:none;stroke-opacity:1;paint-order:fill markers stroke"/><path d="m151.965 233.077 5.826-5.617 4.689-.73-8.502 8.378z" style="fill:none;fill-opacity:1;stroke:#741616;stroke-width:.873104;stroke-linecap:round;stroke-linejoin:round;stroke-dasharray:none;stroke-opacity:1;paint-order:fill markers stroke"/><path d="m153.758 235.279 5.792-5.663 4.662-.8-8.654 8.802zm-12.931-2.202L135 227.46l-4.69-.73 8.503 8.378z" style="fill:none;fill-opacity:1;stroke:#741616;stroke-width:.873104;stroke-linecap:round;stroke-linejoin:round;stroke-dasharray:none;stroke-opacity:1;paint-order:fill markers stroke"/><path d="m139.033 235.279-5.792-5.663-4.661-.8 8.653 8.802z" style="fill:none;fill-opacity:1;stroke:#741616;stroke-width:.873104;stroke-linecap:round;stroke-linejoin:round;stroke-dasharray:none;stroke-opacity:1;paint-order:fill markers stroke"/></g></svg>