<?xml version="1.0" encoding="UTF-8" standalone="no"?>
<svg
   width="24"
   height="24"
   viewBox="0 0 6.3501334 6.3501333"
   version="1.1"
   id="svg1"
   sodipodi:docname="squad_icon.svg"
   inkscape:version="1.4.4 (1:1.4.4+202605061436+dcaf3e7d9e)"
   xmlns:inkscape="http://www.inkscape.org/namespaces/inkscape"
   xmlns:sodipodi="http://sodipodi.sourceforge.net/DTD/sodipodi-0.dtd"
   xmlns="http://www.w3.org/2000/svg"
   xmlns:svg="http://www.w3.org/2000/svg">
  <defs
     id="defs1">
    <inkscape:path-effect
       effect="powerclip"
       message=""
       id="path-effect12"
       is_visible="true"
       lpeversion="1"
       inverse="true"
       flatten="false"
       hide_clip="false" />
  </defs>
  <sodipodi:namedview
     id="namedview1"
     pagecolor="#505050"
     bordercolor="#ffffff"
     borderopacity="1"
     inkscape:showpageshadow="0"
     inkscape:pageopacity="0"
     inkscape:pagecheckerboard="1"
     inkscape:deskcolor="#505050"
     inkscape:zoom="16"
     inkscape:cx="4.375"
     inkscape:cy="-8.71875"
     inkscape:window-width="2560"
     inkscape:window-height="1368"
     inkscape:window-x="0"
     inkscape:window-y="0"
     inkscape:window-maximized="1"
     inkscape:current-layer="svg1" />
  <path
     id="circle12"
     style="fill:none;stroke:#ffffff;stroke-width:0.396883;stroke-linecap:round;stroke-dasharray:none"
     d="M 1.08984,2.5309261 A 0.44569916,0.44569916 0 0 1 0.64414082,2.9766252 0.44569916,0.44569916 0 0 1 0.19844167,2.5309261 0.44569916,0.44569916 0 0 1 0.64414082,2.0852269 0.44569916,0.44569916 0 0 1 1.08984,2.5309261 Z m 1.8867854,0 A 0.44569916,0.44569916 0 0 1 2.5309263,2.9766252 0.44569916,0.44569916 0 0 1 2.0852271,2.5309261 0.44569916,0.44569916 0 0 1 2.5309263,2.0852269 0.44569916,0.44569916 0 0 1 2.9766254,2.5309261 Z M 1.5875336,0.19844151 A 1.210783,1.210783 0 0 0 0.37676431,1.4092106 1.210783,1.210783 0 0 0 0.58567071,2.088958 0.44569916,0.44569916 0 0 1 0.64412503,2.0852585 0.44569916,0.44569916 0 0 1 1.0895619,2.5126903 1.210783,1.210783 0 0 0 1.5875336,2.6199799 1.210783,1.210783 0 0 0 2.0855053,2.5129369 0.44569916,0.44569916 0 0 1 2.530942,2.0852585 0.44569916,0.44569916 0 0 1 2.5893964,2.0892048 1.210783,1.210783 0 0 0 2.7983027,1.4092106 1.210783,1.210783 0 0 0 1.5875336,0.19844151 Z" />
  <path
     id="path2"
     style="fill:none;stroke:#ffffff;stroke-width:0.396883;stroke-linecap:round;stroke-dasharray:none"
     d="M 4.2649064,5.7059927 A 0.44569916,0.44569916 0 0 1 3.8192073,6.1516918 0.44569916,0.44569916 0 0 1 3.3735081,5.7059927 0.44569916,0.44569916 0 0 1 3.8192073,5.2602935 0.44569916,0.44569916 0 0 1 4.2649064,5.7059927 Z m 1.8867854,0 A 0.44569916,0.44569916 0 0 1 5.7059927,6.1516918 0.44569916,0.44569916 0 0 1 5.2602935,5.7059927 0.44569916,0.44569916 0 0 1 5.7059927,5.2602935 0.44569916,0.44569916 0 0 1 6.1516918,5.7059927 Z M 4.7626,3.3735082 a 1.210783,1.210783 0 0 0 -1.2107692,1.210769 1.210783,1.210783 0 0 0 0.2089064,0.6797474 0.44569916,0.44569916 0 0 1 0.058454,-0.0037 A 0.44569916,0.44569916 0 0 1 4.2646283,5.6877564 1.210783,1.210783 0 0 0 4.7626,5.795046 1.210783,1.210783 0 0 0 5.2605717,5.688003 0.44569916,0.44569916 0 0 1 5.7060084,5.2603246 0.44569916,0.44569916 0 0 1 5.7644624,5.2642746 1.210783,1.210783 0 0 0 5.9733687,4.5842804 1.210783,1.210783 0 0 0 4.7625996,3.3735114 Z" />
  <path
     id="path3"
     style="fill:none;stroke:#ffffff;stroke-width:0.396883;stroke-linecap:round;stroke-dasharray:none"
     d="M 4.2649064,2.530926 A 0.44569916,0.44569916 0 0 1 3.8192073,2.9766251 0.44569916,0.44569916 0 0 1 3.3735081,2.530926 0.44569916,0.44569916 0 0 1 3.8192073,2.0852268 0.44569916,0.44569916 0 0 1 4.2649064,2.530926 Z m 1.8867854,0 A 0.44569916,0.44569916 0 0 1 5.7059927,2.9766251 0.44569916,0.44569916 0 0 1 5.2602935,2.530926 0.44569916,0.44569916 0 0 1 5.7059927,2.0852268 0.44569916,0.44569916 0 0 1 6.1516918,2.530926 Z M 4.7626,0.19844151 A 1.210783,1.210783 0 0 0 3.5518308,1.4092105 1.210783,1.210783 0 0 0 3.7607372,2.0889579 0.44569916,0.44569916 0 0 1 3.8191912,2.0852579 0.44569916,0.44569916 0 0 1 4.2646283,2.5126897 1.210783,1.210783 0 0 0 4.7626,2.6199793 1.210783,1.210783 0 0 0 5.2605717,2.5129363 0.44569916,0.44569916 0 0 1 5.7060084,2.0852579 0.44569916,0.44569916 0 0 1 5.7644624,2.0892079 1.210783,1.210783 0 0 0 5.9733687,1.4092137 1.210783,1.210783 0 0 0 4.7625996,0.19844471 Z" />
  <path
     id="path4"
     style="fill:none;stroke:#ffffff;stroke-width:0.396883;stroke-linecap:round;stroke-dasharray:none"
     d="M 1.08984,5.7059927 A 0.44569916,0.44569916 0 0 1 0.64414082,6.1516918 0.44569916,0.44569916 0 0 1 0.19844167,5.7059927 0.44569916,0.44569916 0 0 1 0.64414082,5.2602935 0.44569916,0.44569916 0 0 1 1.08984,5.7059927 Z m 1.8867854,0 A 0.44569916,0.44569916 0 0 1 2.5309263,6.1516918 0.44569916,0.44569916 0 0 1 2.0852271,5.7059927 0.44569916,0.44569916 0 0 1 2.5309263,5.2602935 0.44569916,0.44569916 0 0 1 2.9766254,5.7059927 Z M 1.5875336,3.3735082 a 1.210783,1.210783 0 0 0 -1.21076929,1.210769 1.210783,1.210783 0 0 0 0.2089064,0.6797474 0.44569916,0.44569916 0 0 1 0.0584543,-0.0037 0.44569916,0.44569916 0 0 1 0.44543687,0.4274318 1.210783,1.210783 0 0 0 0.4979717,0.1072896 1.210783,1.210783 0 0 0 0.4979717,-0.107043 0.44569916,0.44569916 0 0 1 0.4454367,-0.4276784 0.44569916,0.44569916 0 0 1 0.058454,0.00395 1.210783,1.210783 0 0 0 0.2089063,-0.6799942 1.210783,1.210783 0 0 0 -1.2107691,-1.210769 z" />
</svg>
