<svg xmlns="http://www.w3.org/2000/svg" xml:space="preserve" width="174.918" height="123.881" viewBox="0 0 46.28 32.777"><path d="M108.611-125.996h44.428v27.129h-44.428z" style="fill:#764e0a;fill-opacity:1;fill-rule:evenodd;stroke:#2f1f04;stroke-width:1.85208;stroke-linecap:round;stroke-linejoin:round;stroke-dasharray:none;stroke-opacity:1" transform="matrix(1 0 0 -1 -107.685 -96.044)"/><path d="m7.23 22.832 3.734 4.538 26.658-15.658-3.734-4.537Z" style="fill:#764e0a;fill-opacity:1;fill-rule:evenodd;stroke:#2f1f04;stroke-width:1.78724;stroke-linecap:round;stroke-linejoin:round;stroke-opacity:1"/><path d="m9.36 11.781 3.734-4.537L39.752 22.9l-3.734 4.537z" style="fill:#764e0a;fill-opacity:1;fill-rule:evenodd;stroke:#2f1f04;stroke-width:1.78724;stroke-linecap:round;stroke-linejoin:round;stroke-opacity:1"/><path d="M4825.439 3386.03h44.166m-44.166 19.419h44.166" style="fill:none;fill-opacity:1;fill-rule:evenodd;stroke:#2f1f04;stroke-width:1.32292;stroke-linecap:round;stroke-linejoin:round;stroke-dasharray:none;stroke-opacity:1" transform="matrix(1 0 0 -1 -4824.382 3412.128)"/><path d="M113.224 127.895h6.23V96.97h-6.23zm28.972 0h6.231V96.97h-6.23z" style="fill:#764e0a;fill-opacity:1;fill-rule:evenodd;stroke:#2f1f04;stroke-width:1.85208;stroke-linecap:round;stroke-linejoin:round;stroke-opacity:1" transform="translate(-107.685 -96.044)"/><g transform="matrix(1 0 0 -1 -4795.3 3411.96)"><circle cx="4832.927" cy="3383.292" r="1.226" style="fill:#3b3b3b;fill-opacity:1;fill-rule:evenodd;stroke:#1a1a1a;stroke-width:1.32292;stroke-linecap:round;stroke-linejoin:round;stroke-dasharray:none;stroke-opacity:1"/><circle cx="4832.927" cy="3407.849" r="1.226" style="fill:#3b3b3b;fill-opacity:1;fill-rule:evenodd;stroke:#1a1a1a;stroke-width:1.32292;stroke-linecap:round;stroke-linejoin:round;stroke-dasharray:none;stroke-opacity:1"/></g><g transform="matrix(1 0 0 -1 -4824.274 3411.96)"><circle cx="4832.927" cy="3383.292" r="1.226" style="fill:#3b3b3b;fill-opacity:1;fill-rule:evenodd;stroke:#1a1a1a;stroke-width:1.32292;stroke-linecap:round;stroke-linejoin:round;stroke-dasharray:none;stroke-opacity:1"/><circle cx="4832.927" cy="3407.849" r="1.226" style="fill:#3b3b3b;fill-opacity:1;fill-rule:evenodd;stroke:#1a1a1a;stroke-width:1.32292;stroke-linecap:round;stroke-linejoin:round;stroke-dasharray:none;stroke-opacity:1"/><circle cx="4832.874" cy="3395.654" r="1.226" style="fill:#3b3b3b;fill-opacity:1;fill-rule:evenodd;stroke:#1a1a1a;stroke-width:1.32292;stroke-linecap:round;stroke-linejoin:round;stroke-dasharray:none;stroke-opacity:1"/><circle cx="4862.033" cy="3395.655" r="1.226" style="fill:#3b3b3b;fill-opacity:1;fill-rule:evenodd;stroke:#1a1a1a;stroke-width:1.32292;stroke-linecap:round;stroke-linejoin:round;stroke-dasharray:none;stroke-opacity:1"/><circle cx="4847.961" cy="3395.015" r="1.226" style="fill:#3b3b3b;fill-opacity:1;fill-rule:evenodd;stroke:#1a1a1a;stroke-width:1.32292;stroke-linecap:round;stroke-linejoin:round;stroke-dasharray:none;stroke-opacity:1"/></g></svg>