<svg xmlns="http://www.w3.org/2000/svg" width="676.19" height="622.764" viewBox="0 0 357.817 329.546"><g transform="translate(149.36 44.644)"><path d="M-59.097-41.791c-26.896 0-53.791.034-80.682.119h-6.63a.1.1 0 0 0-.098.103v323.482a.1.1 0 0 0 .098.103h6.253c.008 0 .011.01.017.01h82.746c.015.011.031.022.051.022h6.71a.1.1 0 0 0 .098-.102v-54.66h249.28c.015.01.03.022.05.022h6.71a.1.1 0 0 0 .098-.104V-41.587a.1.1 0 0 0-.098-.103h-5.863c-80.68.148-178.05-.106-258.74-.1zm-85.901 1.439h348.915v266.245H-50.534v.351c0 .057-.044-.102-.098-.102h-5.864c-80.68.148 78.09-.107-2.6-.1-26.897 0-53.792.034-80.683.119h-5.22zm0 267.832h92.777v-1.587h-92.777zm0-.204h4.842c.008 0 .011.01.017.01h87.918v53.348h-92.777z" style="display:inline;fill:#404368;fill-opacity:1;stroke:#1d1e2f;stroke-width:5.70656;stroke-dasharray:none;stroke-opacity:1;paint-order:markers stroke fill;stop-color:#000"/><path fill="#7caee4" fill-opacity=".367" fill-rule="evenodd" d="M-91.121-7.177h57.68v56.333h-57.68z" style="stroke-width:.586773"/><path fill="#efefef" fill-opacity=".633" fill-rule="evenodd" d="m-29.818 22.88-20.217 25.863h-6.844l27.06-34.618zm7.625 4.634-20.216 25.863h-6.845l27.061-34.619Zm-71.251-10.272L-73.228-8.62h6.844l-27.06 34.619zm-8.048-4.47 20.216-25.864h6.844l-27.06 34.62z" style="fill:#efefef;fill-opacity:.5;stroke-width:.586775"/><path fill="#7caee4" fill-opacity=".367" fill-rule="evenodd" d="M-91.121 64.475h57.68v56.333h-57.68z" style="stroke-width:.586773"/><path fill="#efefef" fill-opacity=".633" fill-rule="evenodd" d="m-29.818 94.533-20.217 25.863h-6.844l27.06-34.619zm7.625 4.634-20.216 25.863h-6.845l27.061-34.619Zm-71.251-10.272 20.216-25.863h6.844l-27.06 34.619zm-8.048-4.471 20.216-25.863h6.844l-27.06 34.619z" style="fill:#efefef;fill-opacity:.5;stroke-width:.586775"/><path fill="#7caee4" fill-opacity=".367" fill-rule="evenodd" d="M-91.121 135.053h57.68v56.333h-57.68z" style="stroke-width:.586773"/><path fill="#efefef" fill-opacity=".633" fill-rule="evenodd" d="m-29.818 165.11-20.217 25.864h-6.844l27.06-34.619zm7.625 4.635-20.216 25.863h-6.845l27.061-34.62zm-71.251-10.272 20.216-25.863h6.844l-27.06 34.618zm-8.048-4.471 20.216-25.863h6.844l-27.06 34.619z" style="fill:#efefef;fill-opacity:.5;stroke-width:.586775"/><g style="stroke-width:.985924" transform="matrix(1.02332 0 0 1.00531 -11.167 -1541.36)"><rect width="85.536" height="3.764" x="-128.243" y="1805.956" rx="0" ry="0" style="fill:#39385c;fill-opacity:1;stroke:#202037;stroke-width:1.77466;stroke-linejoin:miter;stroke-dasharray:none;stroke-opacity:1;stop-color:#000"/><rect width="85.536" height="3.764" x="-128.243" y="1798.28" rx="0" ry="0" style="fill:#39385c;fill-opacity:1;stroke:#202037;stroke-width:1.77466;stroke-linejoin:miter;stroke-dasharray:none;stroke-opacity:1;stop-color:#000"/><rect width="85.536" height="3.764" x="-128.243" y="1802.114" rx="0" ry="0" style="fill:#404368;fill-opacity:1;stroke:#202037;stroke-width:1.77466;stroke-linejoin:miter;stroke-dasharray:none;stroke-opacity:1;stop-color:#000"/><rect width="85.536" height="3.764" x="-128.243" y="1794.438" rx="0" ry="0" style="fill:#404368;fill-opacity:1;stroke:#202037;stroke-width:1.77466;stroke-linejoin:miter;stroke-dasharray:none;stroke-opacity:1;stop-color:#000"/><rect width="85.536" height="3.764" x="-128.243" y="1790.581" rx="0" ry="0" style="fill:#353455;fill-opacity:1;stroke:#202037;stroke-width:1.77466;stroke-linejoin:miter;stroke-dasharray:none;stroke-opacity:1;stop-color:#000"/><rect width="85.536" height="3.764" x="-128.243" y="1782.905" rx="0" ry="0" style="fill:#353455;fill-opacity:1;stroke:#202037;stroke-width:1.77466;stroke-linejoin:miter;stroke-dasharray:none;stroke-opacity:1;stop-color:#000"/><rect width="85.536" height="3.764" x="-128.243" y="1786.739" rx="0" ry="0" style="fill:#3b3e60;fill-opacity:1;stroke:#202037;stroke-width:1.77466;stroke-linejoin:miter;stroke-dasharray:none;stroke-opacity:1;stop-color:#000"/><rect width="85.536" height="3.764" x="-128.243" y="1779.063" rx="0" ry="0" style="fill:#3b3e60;fill-opacity:1;stroke:#202037;stroke-width:1.77466;stroke-linejoin:miter;stroke-dasharray:none;stroke-opacity:1;stop-color:#000"/><g style="stroke-width:.966693" transform="matrix(.9695 0 0 1.07291 -2.009 -163.344)"><rect width="88.227" height="3.508" x="-130.206" y="1806.751" rx="0" ry="0" style="fill:#31304e;fill-opacity:1;stroke:#202037;stroke-width:1.74005;stroke-linejoin:miter;stroke-dasharray:none;stroke-opacity:1;stop-color:#000"/><rect width="88.227" height="3.508" x="-130.206" y="1799.597" rx="0" ry="0" style="fill:#31304e;fill-opacity:1;stroke:#202037;stroke-width:1.74005;stroke-linejoin:miter;stroke-dasharray:none;stroke-opacity:1;stop-color:#000"/><rect width="88.227" height="3.508" x="-130.206" y="1803.17" rx="0" ry="0" style="fill:#363958;fill-opacity:1;stroke:#202037;stroke-width:1.74005;stroke-linejoin:miter;stroke-dasharray:none;stroke-opacity:1;stop-color:#000"/><rect width="88.227" height="3.508" x="-130.206" y="1796.016" rx="0" ry="0" style="fill:#363958;fill-opacity:1;stroke:#202037;stroke-width:1.74005;stroke-linejoin:miter;stroke-dasharray:none;stroke-opacity:1;stop-color:#000"/></g></g><rect width="89.391" height="44.729" x="-143.366" y="234.221" ry="0" style="fill:#000;fill-opacity:.08;stroke:none;stroke-width:8.11042;stroke-linecap:square;stroke-dasharray:none;stroke-opacity:1;stop-color:#000"/><path d="M-142.296 254.874c-2.364 9.45 9.301 20.33 22.477 13.743 2.784-1.392 3.99-5.077 6.422-6.293 3.06-1.53 6.667-2.05 9.761-3.597 4.653-2.326 5.863-5.757 9.12-9.376 4.93-5.477 17.733-8.193 14.127-19.009-.543-1.631-6.577-1.767-7.963-2.183-7.498-2.25-32.644-4.208-40.458-3.34-2.918.325-6.926 2.817-8.99 4.881-13.573 13.573-.275 14.513-4.496 25.174" style="fill:#c9d1d9;fill-opacity:1;stroke:#a2a5c0;stroke-width:3.70417;stroke-linecap:round;stroke-linejoin:round;stroke-miterlimit:0;stroke-dasharray:none"/><g style="stroke-width:.994185" transform="matrix(1.00513 0 0 1.00657 -13.296 -1543.348)"><g style="fill:#39385c;fill-opacity:1"><rect width="170.098" height="3.677" x="-41.907" y="-1503.369" rx="0" ry="0" style="fill:#39385c;fill-opacity:1;stroke:#202037;stroke-width:1.78952;stroke-linejoin:miter;stroke-dasharray:none;stroke-opacity:1;stop-color:#000" transform="scale(-1)"/><rect width="170.098" height="3.677" x="-41.907" y="-1510.869" rx="0" ry="0" style="fill:#39385c;fill-opacity:1;stroke:#202037;stroke-width:1.78952;stroke-linejoin:miter;stroke-dasharray:none;stroke-opacity:1;stop-color:#000" transform="scale(-1)"/><rect width="170.098" height="3.677" x="-41.907" y="-1518.376" rx="0" ry="0" style="fill:#39385c;fill-opacity:1;stroke:#202037;stroke-width:1.78952;stroke-linejoin:miter;stroke-dasharray:none;stroke-opacity:1;stop-color:#000" transform="scale(-1)"/><rect width="170.098" height="3.677" x="-41.907" y="-1525.881" rx="0" ry="0" style="fill:#39385c;fill-opacity:1;stroke:#202037;stroke-width:1.78952;stroke-linejoin:miter;stroke-dasharray:none;stroke-opacity:1;stop-color:#000" transform="scale(-1)"/><rect width="170.098" height="3.677" x="-41.907" y="-1586.01" rx="0" ry="0" style="fill:#39385c;fill-opacity:1;stroke:#202037;stroke-width:1.78952;stroke-linejoin:miter;stroke-dasharray:none;stroke-opacity:1;stop-color:#000" transform="scale(-1)"/><rect width="170.098" height="3.677" x="-41.907" y="-1593.539" rx="0" ry="0" style="fill:#39385c;fill-opacity:1;stroke:#202037;stroke-width:1.78952;stroke-linejoin:miter;stroke-dasharray:none;stroke-opacity:1;stop-color:#000" transform="scale(-1)"/><path d="M41.907 1597.361v3.677h-61.32v-3.55h-59.664v3.55h-49.127v-3.677zm0 7.507v3.677h-61.32v-3.677zm-120.984 0v3.677h-49.127v-3.677zm120.984 7.506v3.677h-61.32v-3.677zm-120.984 0v3.677h-49.127v-3.677zm120.984 7.499v3.677h-61.32v-3.677zm-120.984 0v3.677h-49.127v-3.677zm120.984 7.507v3.678h-61.32v-3.677zm-120.984 0v3.678h-49.127v-3.677zm120.984 7.603v3.677h-61.32v-3.677zm-120.984 0v3.677h-49.127v-3.677zm120.984 7.499v3.677h-61.32v-3.677zm-120.984 0v3.677h-49.127v-3.677zm120.984 7.508v3.677h-170.111v-3.677h49.127v2.884h59.664v-2.884z" style="fill:#39385c;fill-opacity:1;stroke:#202037;stroke-width:1.78952;stroke-linejoin:miter;stroke-dasharray:none;stroke-opacity:1;stop-color:#000"/><rect width="170.098" height="3.677" x="-41.907" y="-1661.172" rx="0" ry="0" style="fill:#39385c;fill-opacity:1;stroke:#202037;stroke-width:1.78952;stroke-linejoin:miter;stroke-dasharray:none;stroke-opacity:1;stop-color:#000" transform="scale(-1)"/><rect width="170.098" height="3.677" x="-41.907" y="-1668.672" rx="0" ry="0" style="fill:#39385c;fill-opacity:1;stroke:#202037;stroke-width:1.78952;stroke-linejoin:miter;stroke-dasharray:none;stroke-opacity:1;stop-color:#000" transform="scale(-1)"/><path d="M41.907 1672.503v3.677h-61.32v-3.677zm-120.984 0v3.677h-49.127v-3.677zm120.984 7.47v3.677h-61.32v-3.677zm-120.984 0v3.677h-49.127v-3.677zm120.984 7.499v3.678h-61.32v-3.678zm-120.984 0v3.678h-49.127v-3.678zm120.984 7.508v3.677h-61.32v-3.677zm-120.984 0v3.677h-49.127v-3.677zm120.984 7.505v3.678h-61.32v-3.678zm-120.984 0v3.678h-49.127v-3.678zm120.984 7.5v3.677h-61.32v-3.677zm-120.984 0v3.677h-49.127v-3.677zm120.984 7.507v3.678h-61.32v-3.678zm-120.984 0v3.678h-49.127v-3.678z" style="fill:#39385c;fill-opacity:1;stroke:#202037;stroke-width:1.78952;stroke-linejoin:miter;stroke-dasharray:none;stroke-opacity:1;stop-color:#000"/><rect width="170.098" height="3.677" x="-41.907" y="-1728.772" rx="0" ry="0" style="fill:#39385c;fill-opacity:1;stroke:#202037;stroke-width:1.78952;stroke-linejoin:miter;stroke-dasharray:none;stroke-opacity:1;stop-color:#000" transform="scale(-1)"/><rect width="170.098" height="3.677" x="-41.907" y="-1736.271" rx="0" ry="0" style="fill:#39385c;fill-opacity:1;stroke:#202037;stroke-width:1.78952;stroke-linejoin:miter;stroke-dasharray:none;stroke-opacity:1;stop-color:#000" transform="scale(-1)"/><rect width="170.098" height="3.677" x="-41.907" y="-1743.778" rx="0" ry="0" style="fill:#39385c;fill-opacity:1;stroke:#202037;stroke-width:1.78952;stroke-linejoin:miter;stroke-dasharray:none;stroke-opacity:1;stop-color:#000" transform="scale(-1)"/><path d="M41.718 1529.701v3.677h-61.32v-3.677zm-120.984 0v3.677h-49.127v-3.677zm120.984 7.47v3.677h-61.32v-3.677zm-120.984 0v3.677h-49.127v-3.677zm120.984 7.5v3.677h-61.32v-3.677zm-120.984 0v3.677h-49.127v-3.677zm120.984 7.508v3.676h-61.32v-3.676zm-120.984 0v3.676h-49.127v-3.676zm120.984 7.505v3.677h-61.32v-3.677zm-120.984 0v3.677h-49.127v-3.677zm120.984 7.5v3.677h-61.32v-3.677zm-120.984 0v3.677h-49.127v-3.677zm120.984 7.506v3.678h-61.32v-3.677zm-120.984 0v3.678h-49.127v-3.677z" style="fill:#39385c;fill-opacity:1;stroke:#202037;stroke-width:1.78952;stroke-linejoin:miter;stroke-dasharray:none;stroke-opacity:1;stop-color:#000"/><rect width="170.098" height="3.677" x="-41.907" y="-1751.284" rx="0" ry="0" style="fill:#39385c;fill-opacity:1;stroke:#202037;stroke-width:1.78952;stroke-linejoin:miter;stroke-dasharray:none;stroke-opacity:1;stop-color:#000" transform="scale(-1)"/><rect width="170.098" height="3.677" x="-213.468" y="1503.438" rx="0" ry="0" style="fill:#39385c;fill-opacity:1;stroke:#202037;stroke-width:1.78952;stroke-linejoin:miter;stroke-dasharray:none;stroke-opacity:1;stop-color:#000" transform="scale(-1 1)"/><rect width="170.098" height="3.677" x="-213.468" y="1495.938" rx="0" ry="0" style="fill:#39385c;fill-opacity:1;stroke:#202037;stroke-width:1.78952;stroke-linejoin:miter;stroke-dasharray:none;stroke-opacity:1;stop-color:#000" transform="scale(-1 1)"/><rect width="170.098" height="3.677" x="-213.468" y="1518.454" rx="0" ry="0" style="fill:#39385c;fill-opacity:1;stroke:#202037;stroke-width:1.78952;stroke-linejoin:miter;stroke-dasharray:none;stroke-opacity:1;stop-color:#000" transform="scale(-1 1)"/><rect width="170.098" height="3.677" x="-213.468" y="1510.954" rx="0" ry="0" style="fill:#39385c;fill-opacity:1;stroke:#202037;stroke-width:1.78952;stroke-linejoin:miter;stroke-dasharray:none;stroke-opacity:1;stop-color:#000" transform="scale(-1 1)"/><rect width="170.098" height="3.677" x="-213.468" y="1533.405" rx="0" ry="0" style="fill:#39385c;fill-opacity:1;stroke:#202037;stroke-width:1.78952;stroke-linejoin:miter;stroke-dasharray:none;stroke-opacity:1;stop-color:#000" transform="scale(-1 1)"/><rect width="170.098" height="3.677" x="-213.468" y="1525.905" rx="0" ry="0" style="fill:#39385c;fill-opacity:1;stroke:#202037;stroke-width:1.78952;stroke-linejoin:miter;stroke-dasharray:none;stroke-opacity:1;stop-color:#000" transform="scale(-1 1)"/><rect width="170.098" height="3.677" x="-213.468" y="1548.421" rx="0" ry="0" style="fill:#39385c;fill-opacity:1;stroke:#202037;stroke-width:1.78952;stroke-linejoin:miter;stroke-dasharray:none;stroke-opacity:1;stop-color:#000" transform="scale(-1 1)"/><rect width="170.098" height="3.677" x="-213.468" y="1540.921" rx="0" ry="0" style="fill:#39385c;fill-opacity:1;stroke:#202037;stroke-width:1.78952;stroke-linejoin:miter;stroke-dasharray:none;stroke-opacity:1;stop-color:#000" transform="scale(-1 1)"/><rect width="170.098" height="3.677" x="-213.468" y="1563.46" rx="0" ry="0" style="fill:#39385c;fill-opacity:1;stroke:#202037;stroke-width:1.78952;stroke-linejoin:miter;stroke-dasharray:none;stroke-opacity:1;stop-color:#000" transform="scale(-1 1)"/><rect width="170.098" height="3.677" x="-213.468" y="1555.961" rx="0" ry="0" style="fill:#39385c;fill-opacity:1;stroke:#202037;stroke-width:1.78952;stroke-linejoin:miter;stroke-dasharray:none;stroke-opacity:1;stop-color:#000" transform="scale(-1 1)"/><rect width="170.098" height="3.677" x="-213.468" y="1578.476" rx="0" ry="0" style="fill:#39385c;fill-opacity:1;stroke:#202037;stroke-width:1.78952;stroke-linejoin:miter;stroke-dasharray:none;stroke-opacity:1;stop-color:#000" transform="scale(-1 1)"/><rect width="170.098" height="3.677" x="-213.468" y="1570.977" rx="0" ry="0" style="fill:#39385c;fill-opacity:1;stroke:#202037;stroke-width:1.78952;stroke-linejoin:miter;stroke-dasharray:none;stroke-opacity:1;stop-color:#000" transform="scale(-1 1)"/><rect width="170.098" height="3.677" x="-213.468" y="1593.428" rx="0" ry="0" style="fill:#39385c;fill-opacity:1;stroke:#202037;stroke-width:1.78952;stroke-linejoin:miter;stroke-dasharray:none;stroke-opacity:1;stop-color:#000" transform="scale(-1 1)"/><rect width="170.098" height="3.677" x="-213.468" y="1585.928" rx="0" ry="0" style="fill:#39385c;fill-opacity:1;stroke:#202037;stroke-width:1.78952;stroke-linejoin:miter;stroke-dasharray:none;stroke-opacity:1;stop-color:#000" transform="scale(-1 1)"/><rect width="170.098" height="3.677" x="-213.468" y="1608.444" rx="0" ry="0" style="fill:#39385c;fill-opacity:1;stroke:#202037;stroke-width:1.78952;stroke-linejoin:miter;stroke-dasharray:none;stroke-opacity:1;stop-color:#000" transform="scale(-1 1)"/><rect width="170.098" height="3.677" x="-213.468" y="1600.944" rx="0" ry="0" style="fill:#39385c;fill-opacity:1;stroke:#202037;stroke-width:1.78952;stroke-linejoin:miter;stroke-dasharray:none;stroke-opacity:1;stop-color:#000" transform="scale(-1 1)"/><rect width="170.098" height="3.677" x="-213.468" y="1623.638" rx="0" ry="0" style="fill:#39385c;fill-opacity:1;stroke:#202037;stroke-width:1.78952;stroke-linejoin:miter;stroke-dasharray:none;stroke-opacity:1;stop-color:#000" transform="scale(-1 1)"/><rect width="170.098" height="3.677" x="-213.468" y="1616.139" rx="0" ry="0" style="fill:#39385c;fill-opacity:1;stroke:#202037;stroke-width:1.78952;stroke-linejoin:miter;stroke-dasharray:none;stroke-opacity:1;stop-color:#000" transform="scale(-1 1)"/><rect width="170.098" height="3.677" x="-213.468" y="1638.654" rx="0" ry="0" style="fill:#39385c;fill-opacity:1;stroke:#202037;stroke-width:1.78952;stroke-linejoin:miter;stroke-dasharray:none;stroke-opacity:1;stop-color:#000" transform="scale(-1 1)"/><rect width="170.098" height="3.677" x="-213.468" y="1631.155" rx="0" ry="0" style="fill:#39385c;fill-opacity:1;stroke:#202037;stroke-width:1.78952;stroke-linejoin:miter;stroke-dasharray:none;stroke-opacity:1;stop-color:#000" transform="scale(-1 1)"/><rect width="170.098" height="3.677" x="-213.468" y="1653.605" rx="0" ry="0" style="fill:#39385c;fill-opacity:1;stroke:#202037;stroke-width:1.78952;stroke-linejoin:miter;stroke-dasharray:none;stroke-opacity:1;stop-color:#000" transform="scale(-1 1)"/><rect width="170.098" height="3.677" x="-213.468" y="1646.106" rx="0" ry="0" style="fill:#39385c;fill-opacity:1;stroke:#202037;stroke-width:1.78952;stroke-linejoin:miter;stroke-dasharray:none;stroke-opacity:1;stop-color:#000" transform="scale(-1 1)"/><rect width="170.098" height="3.677" x="-213.468" y="1668.621" rx="0" ry="0" style="fill:#39385c;fill-opacity:1;stroke:#202037;stroke-width:1.78952;stroke-linejoin:miter;stroke-dasharray:none;stroke-opacity:1;stop-color:#000" transform="scale(-1 1)"/><rect width="170.098" height="3.677" x="-213.468" y="1661.122" rx="0" ry="0" style="fill:#39385c;fill-opacity:1;stroke:#202037;stroke-width:1.78952;stroke-linejoin:miter;stroke-dasharray:none;stroke-opacity:1;stop-color:#000" transform="scale(-1 1)"/><rect width="170.098" height="3.677" x="-213.468" y="1683.661" rx="0" ry="0" style="fill:#39385c;fill-opacity:1;stroke:#202037;stroke-width:1.78952;stroke-linejoin:miter;stroke-dasharray:none;stroke-opacity:1;stop-color:#000" transform="scale(-1 1)"/><rect width="170.098" height="3.677" x="-213.468" y="1676.161" rx="0" ry="0" style="fill:#39385c;fill-opacity:1;stroke:#202037;stroke-width:1.78952;stroke-linejoin:miter;stroke-dasharray:none;stroke-opacity:1;stop-color:#000" transform="scale(-1 1)"/><rect width="170.098" height="3.677" x="-213.468" y="1698.677" rx="0" ry="0" style="fill:#39385c;fill-opacity:1;stroke:#202037;stroke-width:1.78952;stroke-linejoin:miter;stroke-dasharray:none;stroke-opacity:1;stop-color:#000" transform="scale(-1 1)"/><rect width="170.098" height="3.677" x="-213.468" y="1691.177" rx="0" ry="0" style="fill:#39385c;fill-opacity:1;stroke:#202037;stroke-width:1.78952;stroke-linejoin:miter;stroke-dasharray:none;stroke-opacity:1;stop-color:#000" transform="scale(-1 1)"/><rect width="170.098" height="3.677" x="-213.468" y="1713.628" rx="0" ry="0" style="fill:#39385c;fill-opacity:1;stroke:#202037;stroke-width:1.78952;stroke-linejoin:miter;stroke-dasharray:none;stroke-opacity:1;stop-color:#000" transform="scale(-1 1)"/><rect width="170.098" height="3.677" x="-213.468" y="1706.129" rx="0" ry="0" style="fill:#39385c;fill-opacity:1;stroke:#202037;stroke-width:1.78952;stroke-linejoin:miter;stroke-dasharray:none;stroke-opacity:1;stop-color:#000" transform="scale(-1 1)"/><rect width="170.098" height="3.677" x="-213.468" y="1728.644" rx="0" ry="0" style="fill:#39385c;fill-opacity:1;stroke:#202037;stroke-width:1.78952;stroke-linejoin:miter;stroke-dasharray:none;stroke-opacity:1;stop-color:#000" transform="scale(-1 1)"/><rect width="170.098" height="3.677" x="-213.468" y="1721.144" rx="0" ry="0" style="fill:#39385c;fill-opacity:1;stroke:#202037;stroke-width:1.78952;stroke-linejoin:miter;stroke-dasharray:none;stroke-opacity:1;stop-color:#000" transform="scale(-1 1)"/><rect width="170.098" height="3.677" x="-213.479" y="-1740.03" rx="0" ry="0" style="fill:#39385c;fill-opacity:1;stroke:#202037;stroke-width:1.78952;stroke-linejoin:miter;stroke-dasharray:none;stroke-opacity:1;stop-color:#000" transform="scale(-1)"/><rect width="170.098" height="3.677" x="-213.479" y="-1747.537" rx="0" ry="0" style="fill:#39385c;fill-opacity:1;stroke:#202037;stroke-width:1.78952;stroke-linejoin:miter;stroke-dasharray:none;stroke-opacity:1;stop-color:#000" transform="scale(-1)"/></g><g style="stroke-width:.994185"><rect width="170.098" height="3.677" x="-41.907" y="-1499.615" rx="0" ry="0" style="fill:#404368;fill-opacity:1;stroke:#202037;stroke-width:1.78952;stroke-linejoin:miter;stroke-dasharray:none;stroke-opacity:1;stop-color:#000" transform="scale(-1)"/><rect width="170.098" height="3.677" x="-41.907" y="-1507.115" rx="0" ry="0" style="fill:#404368;fill-opacity:1;stroke:#202037;stroke-width:1.78952;stroke-linejoin:miter;stroke-dasharray:none;stroke-opacity:1;stop-color:#000" transform="scale(-1)"/><rect width="170.098" height="3.677" x="-41.907" y="-1514.622" rx="0" ry="0" style="fill:#404368;fill-opacity:1;stroke:#202037;stroke-width:1.78952;stroke-linejoin:miter;stroke-dasharray:none;stroke-opacity:1;stop-color:#000" transform="scale(-1)"/><rect width="170.098" height="3.677" x="-41.907" y="-1522.128" rx="0" ry="0" style="fill:#404368;fill-opacity:1;stroke:#202037;stroke-width:1.78952;stroke-linejoin:miter;stroke-dasharray:none;stroke-opacity:1;stop-color:#000" transform="scale(-1)"/><rect width="170.098" height="3.677" x="-41.907" y="-1589.785" rx="0" ry="0" style="fill:#404368;fill-opacity:1;stroke:#202037;stroke-width:1.78952;stroke-linejoin:miter;stroke-dasharray:none;stroke-opacity:1;stop-color:#000" transform="scale(-1)"/><rect width="170.098" height="3.677" x="-41.907" y="-1597.284" rx="0" ry="0" style="fill:#404368;fill-opacity:1;stroke:#202037;stroke-width:1.78952;stroke-linejoin:miter;stroke-dasharray:none;stroke-opacity:1;stop-color:#000" transform="scale(-1)"/><path d="M41.907 1601.115v3.677h-61.32v-3.677zm-120.984 0v3.677h-49.127v-3.677zm120.984 7.505v3.677h-61.32v-3.677zm-120.984 0v3.677h-49.127v-3.677zm120.984 7.5v3.677h-61.32v-3.677zm-120.984 0v3.677h-49.127v-3.677zm120.984 7.507v3.678h-61.32v-3.678zm-120.984 0v3.678h-49.127v-3.678zm120.984 7.602v3.678h-61.32v-3.678zm-120.984 0v3.678h-49.127v-3.678zm120.984 7.5v3.677h-61.32v-3.677zm-120.984 0v3.677h-49.127v-3.677zm120.984 7.507v3.678h-61.32v-3.678zm-120.984 0v3.678h-49.127v-3.678z" style="fill:#404368;fill-opacity:1;stroke:#202037;stroke-width:1.78952;stroke-linejoin:miter;stroke-dasharray:none;stroke-opacity:1;stop-color:#000"/><rect width="170.098" height="3.677" x="-41.907" y="-1657.419" rx="0" ry="0" style="fill:#404368;fill-opacity:1;stroke:#202037;stroke-width:1.78952;stroke-linejoin:miter;stroke-dasharray:none;stroke-opacity:1;stop-color:#000" transform="scale(-1)"/><rect width="170.098" height="3.677" x="-41.907" y="-1664.918" rx="0" ry="0" style="fill:#404368;fill-opacity:1;stroke:#202037;stroke-width:1.78952;stroke-linejoin:miter;stroke-dasharray:none;stroke-opacity:1;stop-color:#000" transform="scale(-1)"/><path d="M41.907 1668.749v3.677h-61.32v-3.677zm-120.984 0v3.677h-49.127v-3.677zm120.984 7.47v3.677h-61.32v-3.677zm-120.984 0v3.677h-49.127v-3.677zm120.984 7.5v3.677h-61.32v-3.677zm-120.984 0v3.677h-49.127v-3.677zm120.984 7.507v3.677h-61.32v-3.677zm-120.984 0v3.677h-49.127v-3.677zm120.984 7.505v3.678h-61.32v-3.678zm-120.984 0v3.678h-49.127v-3.678zm120.984 7.5v3.677h-61.32v-3.677zm-120.984 0v3.677h-49.127v-3.677zm120.984 7.507v3.678h-61.32v-3.678zm-120.984 0v3.678h-49.127v-3.678zm120.984 7.602v3.678h-170.111v-3.678h49.127v2.627h59.664v-2.627z" style="fill:#404368;fill-opacity:1;stroke:#202037;stroke-width:1.78952;stroke-linejoin:miter;stroke-dasharray:none;stroke-opacity:1;stop-color:#000"/><rect width="170.098" height="3.677" x="-41.907" y="-1732.517" rx="0" ry="0" style="fill:#404368;fill-opacity:1;stroke:#202037;stroke-width:1.78952;stroke-linejoin:miter;stroke-dasharray:none;stroke-opacity:1;stop-color:#000" transform="scale(-1)"/><rect width="170.098" height="3.677" x="-41.907" y="-1740.025" rx="0" ry="0" style="fill:#404368;fill-opacity:1;stroke:#202037;stroke-width:1.78952;stroke-linejoin:miter;stroke-dasharray:none;stroke-opacity:1;stop-color:#000" transform="scale(-1)"/><path d="M41.718 1525.948v3.677h-61.32v-3.677zm-120.984 0v3.677h-49.127v-3.677zm120.984 7.47v3.677h-61.32v-3.677zm-120.984 0v3.677h-49.127v-3.677zm120.984 7.5v3.677h-61.32v-3.677zm-120.984 0v3.677h-49.127v-3.677zm120.984 7.507v3.677h-61.32v-3.677zm-120.984 0v3.677h-49.127v-3.677zm120.984 7.505v3.678h-61.32v-3.678zm-120.984 0v3.678h-49.127v-3.678zm120.984 7.5v3.677h-61.32v-3.677zm-120.984 0v3.677h-49.127v-3.677zm120.984 7.507v3.678h-61.32v-3.678zm-120.984 0v3.678h-49.127v-3.678zm120.984 7.603v3.677h-170.111v-3.678h49.127v2.627h59.664v-2.627z" style="fill:#404368;fill-opacity:1;stroke:#202037;stroke-width:1.78952;stroke-linejoin:miter;stroke-dasharray:none;stroke-opacity:1;stop-color:#000"/><rect width="170.098" height="3.677" x="-41.907" y="-1747.53" rx="0" ry="0" style="fill:#404368;fill-opacity:1;stroke:#202037;stroke-width:1.78952;stroke-linejoin:miter;stroke-dasharray:none;stroke-opacity:1;stop-color:#000" transform="scale(-1)"/><rect width="170.098" height="3.677" x="-41.907" y="-1755.03" rx="0" ry="0" style="fill:#404368;fill-opacity:1;stroke:#202037;stroke-width:1.78952;stroke-linejoin:miter;stroke-dasharray:none;stroke-opacity:1;stop-color:#000" transform="scale(-1)"/><rect width="170.098" height="3.677" x="-213.468" y="1507.191" rx="0" ry="0" style="fill:#404368;fill-opacity:1;stroke:#202037;stroke-width:1.78952;stroke-linejoin:miter;stroke-dasharray:none;stroke-opacity:1;stop-color:#000" transform="scale(-1 1)"/><rect width="170.098" height="3.677" x="-213.468" y="1499.692" rx="0" ry="0" style="fill:#404368;fill-opacity:1;stroke:#202037;stroke-width:1.78952;stroke-linejoin:miter;stroke-dasharray:none;stroke-opacity:1;stop-color:#000" transform="scale(-1 1)"/><rect width="170.098" height="3.677" x="-213.468" y="1522.207" rx="0" ry="0" style="fill:#404368;fill-opacity:1;stroke:#202037;stroke-width:1.78952;stroke-linejoin:miter;stroke-dasharray:none;stroke-opacity:1;stop-color:#000" transform="scale(-1 1)"/><rect width="170.098" height="3.677" x="-213.468" y="1514.708" rx="0" ry="0" style="fill:#404368;fill-opacity:1;stroke:#202037;stroke-width:1.78952;stroke-linejoin:miter;stroke-dasharray:none;stroke-opacity:1;stop-color:#000" transform="scale(-1 1)"/><rect width="170.098" height="3.677" x="-213.468" y="1537.159" rx="0" ry="0" style="fill:#404368;fill-opacity:1;stroke:#202037;stroke-width:1.78952;stroke-linejoin:miter;stroke-dasharray:none;stroke-opacity:1;stop-color:#000" transform="scale(-1 1)"/><rect width="170.098" height="3.677" x="-213.468" y="1529.659" rx="0" ry="0" style="fill:#404368;fill-opacity:1;stroke:#202037;stroke-width:1.78952;stroke-linejoin:miter;stroke-dasharray:none;stroke-opacity:1;stop-color:#000" transform="scale(-1 1)"/><rect width="170.098" height="3.677" x="-213.468" y="1552.175" rx="0" ry="0" style="fill:#404368;fill-opacity:1;stroke:#202037;stroke-width:1.78952;stroke-linejoin:miter;stroke-dasharray:none;stroke-opacity:1;stop-color:#000" transform="scale(-1 1)"/><rect width="170.098" height="3.677" x="-213.468" y="1544.675" rx="0" ry="0" style="fill:#404368;fill-opacity:1;stroke:#202037;stroke-width:1.78952;stroke-linejoin:miter;stroke-dasharray:none;stroke-opacity:1;stop-color:#000" transform="scale(-1 1)"/><rect width="170.098" height="3.677" x="-213.468" y="1567.214" rx="0" ry="0" style="fill:#404368;fill-opacity:1;stroke:#202037;stroke-width:1.78952;stroke-linejoin:miter;stroke-dasharray:none;stroke-opacity:1;stop-color:#000" transform="scale(-1 1)"/><rect width="170.098" height="3.677" x="-213.468" y="1559.715" rx="0" ry="0" style="fill:#404368;fill-opacity:1;stroke:#202037;stroke-width:1.78952;stroke-linejoin:miter;stroke-dasharray:none;stroke-opacity:1;stop-color:#000" transform="scale(-1 1)"/><rect width="170.098" height="3.677" x="-213.468" y="1582.23" rx="0" ry="0" style="fill:#404368;fill-opacity:1;stroke:#202037;stroke-width:1.78952;stroke-linejoin:miter;stroke-dasharray:none;stroke-opacity:1;stop-color:#000" transform="scale(-1 1)"/><rect width="170.098" height="3.677" x="-213.468" y="1574.73" rx="0" ry="0" style="fill:#404368;fill-opacity:1;stroke:#202037;stroke-width:1.78952;stroke-linejoin:miter;stroke-dasharray:none;stroke-opacity:1;stop-color:#000" transform="scale(-1 1)"/><rect width="170.098" height="3.677" x="-213.468" y="1597.181" rx="0" ry="0" style="fill:#404368;fill-opacity:1;stroke:#202037;stroke-width:1.78952;stroke-linejoin:miter;stroke-dasharray:none;stroke-opacity:1;stop-color:#000" transform="scale(-1 1)"/><rect width="170.098" height="3.677" x="-213.468" y="1589.682" rx="0" ry="0" style="fill:#404368;fill-opacity:1;stroke:#202037;stroke-width:1.78952;stroke-linejoin:miter;stroke-dasharray:none;stroke-opacity:1;stop-color:#000" transform="scale(-1 1)"/><rect width="170.098" height="3.677" x="-213.468" y="1612.197" rx="0" ry="0" style="fill:#404368;fill-opacity:1;stroke:#202037;stroke-width:1.78952;stroke-linejoin:miter;stroke-dasharray:none;stroke-opacity:1;stop-color:#000" transform="scale(-1 1)"/><rect width="170.098" height="3.677" x="-213.468" y="1604.697" rx="0" ry="0" style="fill:#404368;fill-opacity:1;stroke:#202037;stroke-width:1.78952;stroke-linejoin:miter;stroke-dasharray:none;stroke-opacity:1;stop-color:#000" transform="scale(-1 1)"/><rect width="170.098" height="3.677" x="-213.468" y="1627.392" rx="0" ry="0" style="fill:#404368;fill-opacity:1;stroke:#202037;stroke-width:1.78952;stroke-linejoin:miter;stroke-dasharray:none;stroke-opacity:1;stop-color:#000" transform="scale(-1 1)"/><rect width="170.098" height="3.677" x="-213.468" y="1619.892" rx="0" ry="0" style="fill:#404368;fill-opacity:1;stroke:#202037;stroke-width:1.78952;stroke-linejoin:miter;stroke-dasharray:none;stroke-opacity:1;stop-color:#000" transform="scale(-1 1)"/><rect width="170.098" height="3.677" x="-213.468" y="1642.408" rx="0" ry="0" style="fill:#404368;fill-opacity:1;stroke:#202037;stroke-width:1.78952;stroke-linejoin:miter;stroke-dasharray:none;stroke-opacity:1;stop-color:#000" transform="scale(-1 1)"/><rect width="170.098" height="3.677" x="-213.468" y="1634.908" rx="0" ry="0" style="fill:#404368;fill-opacity:1;stroke:#202037;stroke-width:1.78952;stroke-linejoin:miter;stroke-dasharray:none;stroke-opacity:1;stop-color:#000" transform="scale(-1 1)"/><rect width="170.098" height="3.677" x="-213.468" y="1657.359" rx="0" ry="0" style="fill:#404368;fill-opacity:1;stroke:#202037;stroke-width:1.78952;stroke-linejoin:miter;stroke-dasharray:none;stroke-opacity:1;stop-color:#000" transform="scale(-1 1)"/><rect width="170.098" height="3.677" x="-213.468" y="1649.86" rx="0" ry="0" style="fill:#404368;fill-opacity:1;stroke:#202037;stroke-width:1.78952;stroke-linejoin:miter;stroke-dasharray:none;stroke-opacity:1;stop-color:#000" transform="scale(-1 1)"/><rect width="170.098" height="3.677" x="-213.468" y="1672.375" rx="0" ry="0" style="fill:#404368;fill-opacity:1;stroke:#202037;stroke-width:1.78952;stroke-linejoin:miter;stroke-dasharray:none;stroke-opacity:1;stop-color:#000" transform="scale(-1 1)"/><rect width="170.098" height="3.677" x="-213.468" y="1664.876" rx="0" ry="0" style="fill:#404368;fill-opacity:1;stroke:#202037;stroke-width:1.78952;stroke-linejoin:miter;stroke-dasharray:none;stroke-opacity:1;stop-color:#000" transform="scale(-1 1)"/><rect width="170.098" height="3.677" x="-213.468" y="1687.415" rx="0" ry="0" style="fill:#404368;fill-opacity:1;stroke:#202037;stroke-width:1.78952;stroke-linejoin:miter;stroke-dasharray:none;stroke-opacity:1;stop-color:#000" transform="scale(-1 1)"/><rect width="170.098" height="3.677" x="-213.468" y="1679.915" rx="0" ry="0" style="fill:#404368;fill-opacity:1;stroke:#202037;stroke-width:1.78952;stroke-linejoin:miter;stroke-dasharray:none;stroke-opacity:1;stop-color:#000" transform="scale(-1 1)"/><rect width="170.098" height="3.677" x="-213.468" y="1702.431" rx="0" ry="0" style="fill:#404368;fill-opacity:1;stroke:#202037;stroke-width:1.78952;stroke-linejoin:miter;stroke-dasharray:none;stroke-opacity:1;stop-color:#000" transform="scale(-1 1)"/><rect width="170.098" height="3.677" x="-213.468" y="1694.931" rx="0" ry="0" style="fill:#404368;fill-opacity:1;stroke:#202037;stroke-width:1.78952;stroke-linejoin:miter;stroke-dasharray:none;stroke-opacity:1;stop-color:#000" transform="scale(-1 1)"/><rect width="170.098" height="3.677" x="-213.468" y="1717.382" rx="0" ry="0" style="fill:#404368;fill-opacity:1;stroke:#202037;stroke-width:1.78952;stroke-linejoin:miter;stroke-dasharray:none;stroke-opacity:1;stop-color:#000" transform="scale(-1 1)"/><rect width="170.098" height="3.677" x="-213.468" y="1709.882" rx="0" ry="0" style="fill:#404368;fill-opacity:1;stroke:#202037;stroke-width:1.78952;stroke-linejoin:miter;stroke-dasharray:none;stroke-opacity:1;stop-color:#000" transform="scale(-1 1)"/><rect width="170.098" height="3.677" x="-213.468" y="1732.398" rx="0" ry="0" style="fill:#404368;fill-opacity:1;stroke:#202037;stroke-width:1.78952;stroke-linejoin:miter;stroke-dasharray:none;stroke-opacity:1;stop-color:#000" transform="scale(-1 1)"/><rect width="170.098" height="3.677" x="-213.468" y="1724.898" rx="0" ry="0" style="fill:#404368;fill-opacity:1;stroke:#202037;stroke-width:1.78952;stroke-linejoin:miter;stroke-dasharray:none;stroke-opacity:1;stop-color:#000" transform="scale(-1 1)"/><rect width="170.098" height="3.677" x="-213.479" y="-1743.783" rx="0" ry="0" style="fill:#404368;fill-opacity:1;stroke:#202037;stroke-width:1.78952;stroke-linejoin:miter;stroke-dasharray:none;stroke-opacity:1;stop-color:#000" transform="scale(-1)"/><rect width="170.098" height="3.677" x="-213.479" y="-1751.289" rx="0" ry="0" style="fill:#404368;fill-opacity:1;stroke:#202037;stroke-width:1.78952;stroke-linejoin:miter;stroke-dasharray:none;stroke-opacity:1;stop-color:#000" transform="scale(-1)"/></g><rect width="170.098" height="3.677" x="-213.479" y="-1755.042" rx="0" ry="0" style="fill:#39385c;fill-opacity:1;stroke:#202037;stroke-width:1.78952;stroke-linejoin:miter;stroke-dasharray:none;stroke-opacity:1;stop-color:#000" transform="scale(-1)"/></g><rect width="168.167" height="262.516" x="33.987" y="-38.474" ry="0" style="fill:#000;fill-opacity:.06;stroke:none;stroke-width:8.11042;stroke-linecap:square;stroke-dasharray:none;stroke-opacity:1;stop-color:#000"/><path d="M34.078-43.567v272.62h-9.483v-272.62z" style="display:inline;fill:#454572;stroke:#1c1c31;stroke-width:2.154;stroke-linejoin:round;stop-color:#000"/><path d="M30.987-43.767V228.49h-3.125V-43.767Z" style="display:inline;fill:#393960;stroke:#1d1c31;stroke-width:1.75441;stroke-linejoin:round;stop-color:#000"/><path d="M-49.488 236.15v46.787h-47.816c-1.126-12.781 19.332-11.413 22.365-17.48 1.686-3.371 1.742-8.352 2.571-12.083 3.51-15.79 8.16-13.018 22.88-17.224" style="fill:#c9d1d9;fill-opacity:1;stroke:#a2a5c0;stroke-width:3.70417;stroke-linecap:round;stroke-linejoin:round;stroke-miterlimit:0;stroke-dasharray:none"/><path d="M-48.748 234.678h-99.535v-9.483h99.535z" style="display:inline;fill:#454572;fill-opacity:1;stroke:#1c1c31;stroke-width:2.15401;stroke-linejoin:round;stop-color:#000"/><path d="M-49 231.587h-99.031v-3.125H-49Z" style="display:inline;fill:#393960;fill-opacity:1;stroke:#1d1c31;stroke-width:1.75441;stroke-linejoin:round;stop-color:#000"/><path d="M149.266-42.792c-15.26 5.173-40.049 37.627-24.05 39.458 27.463 9.357 23.118-3.01 44.472-3.725 4.151-.139 6.76 2.863 5.404 11.004-.664 3.979-5.694 8.742-8.23 11.755-22.103 26.27-18.875 3.664-48.641 45.313-17.322 24.236-47.6 12.932-67.238 27.898-49.816 37.965-17.412 108.039 16 139.366h73.201c4.39-8.702 14.767-17.442 16.925-23.915 10.31-30.93 15.319-63.549 40.09-86.863a105 105 0 0 1 9.406-7.842v-152.45ZM89.533 93.732c9.722-.225 21.562 3.987 27.862 12.807 10.6 14.84-22.827 31.03-27.429 39.577-5.85 10.865-.14 35.353-18.417 34.483-9.313-.444-16.931-2.436-21.943-10.58-17.345-28.186 26.877-41.967 24.686-67.79 1.398-5.464 7.68-8.323 15.241-8.497M58.24-33.188c18.27 8.096 6.711 17.163 13.74 25.176 8.04 7.82 18.709 19.867 8.341 31.937-11.767 13.312-28.034 23.925-41.756 4.459-5.778-8.278 5.86-22.124-6.53-35.507-5.593-6.78-13.325-11.416-17.774-19.291-3.403-10.983 33.571-10.677 43.977-6.774Zm39.48-4.7c-.364 5.939-2.707 10.95-5.55 15.925-2.91 5.094 3.573 20.315 9.893 13.995 4.277-4.277 18.014-43.893-4.343-29.92m-157.818-4.904c-9.119 10.743-4.856 13.558-21.255 21.757-10.529 5.265-25.01 1.687-34.986 9.17-7.495 5.62-12.72 48.091-15.443 57.426-2.302 7.892-7.404 13.825-15.726 15.443V-42.571Zm72.181 270.964h-53.095c.248-4.029-.984-8.559-.183-12.561.48-2.4 9.45-5.169 11.168-8.605 3.223-6.447 16.844-10.68 17.93-16.032l10.106-35.77c12.966-3.745 10.54 30.845 16.82 40.267 3.496 5.243 16.084 6.86 12.817 16.661-2.042 6.127-12.904 11.648-15.563 16.04m-128.942 5.731h-30.649V104.05c15.094 5.608 19.58 31.164 18.508 44.567-.268 3.352-2.008 6.627-3.11 9.772-3.66 10.46-4.33 19.06-2.22 29.613 4.845 9.687 16.317 13.8 23.838 21.321 2.368 2.368 9.433 15.738 5.626 19.544-3.651 3.652-8.272 2.908-11.993 5.035zM-4.55 126.966c5.66 22.637 7.33-9.143 14.835-19.176 15.178-20.292 21.009-51.057-5.065-59.7-28.443-9.429-15.185 57.272-9.77 78.876" style="fill:#c9d1d9;fill-opacity:1;stroke:#a2a5c0;stroke-width:3.70417;stroke-linecap:round;stroke-linejoin:round;stroke-miterlimit:0;stroke-dasharray:none"/></g></svg>