<svg width="394.444" height="848.623" viewBox="0 0 208.727 449.063" xmlns="http://www.w3.org/2000/svg">
    <g transform="translate(194.996 323.587)">
        <g transform="translate(1481.938 -323.846)">
            <path style="fill:#8c8c8c;fill-opacity:1;stroke:#212121;stroke-width:3.5;stroke-linecap:round;stroke-linejoin:miter;stroke-dasharray:none;stroke-opacity:1;paint-order:normal;stop-color:#000" d="M-1634.82 445.44v-52.451h-28.134V54.919h28.135V2.134h110.008v52.786h27.991v338.07h-27.991v52.45zm20.581-13.11h69.718v-30.56h-69.718zm0-386.528h69.718v-30.56h-69.718z"/>
            <rect style="fill:#999;fill-opacity:1;stroke:none;stroke-width:1.99998;stroke-linecap:round;stroke-linejoin:miter;stroke-opacity:1;paint-order:stroke fill markers;stop-color:#000" width="5.949" height="332.269" x="-1519.831" y="56.086" rx="0" ry="0"/>
            <rect style="fill:#999;fill-opacity:1;stroke:none;stroke-width:1.99998;stroke-linecap:round;stroke-linejoin:miter;stroke-opacity:1;paint-order:stroke fill markers;stop-color:#000" width="5.949" height="332.269" x="-1647.36" y="56.086" rx="0" ry="0"/>
            <rect style="fill:#999;fill-opacity:1;stroke:none;stroke-width:1.99998;stroke-linecap:round;stroke-linejoin:miter;stroke-opacity:1;paint-order:stroke fill markers;stop-color:#000" width="5.949" height="355.15" x="-1582.319" y="46.17" rx="0" ry="0"/>
            <path style="fill:none;fill-opacity:1;stroke:#4d4d4d;stroke-width:3.5;stroke-linecap:round;stroke-linejoin:miter;stroke-dasharray:none;stroke-opacity:1;paint-order:normal;stop-color:#000" d="M-1634.82 445.44v-52.451h-28.134V54.919h28.135V2.134h110.008v52.786h27.991v338.07h-27.991v52.45zm20.581-13.11h69.718v-30.56h-69.718zm0-386.528h69.718v-30.56h-69.718z"/>
            <path style="fill:#23345b;fill-opacity:1;stroke:#0d1626;stroke-width:3;stroke-linecap:round;stroke-linejoin:miter;stroke-dasharray:none;stroke-opacity:1;paint-order:normal;stop-color:#000" d="M-1636.58 1.759V54.05h-27.077v339.293h27.05v54.477h113.346v-54.297h27.144V54.05h-26.544V1.759Zm7.774 7.47h97.891v52.814h27.533V385.87h-26.932v54.6h-98.465c0-10.837-.318-40.64-.318-54.587h-27.232l-.047-323.947h27.57z"/>
        </g>
        <path style="fill:#c9d1d9;fill-opacity:1;stroke:#a2a5c0;stroke-width:4;stroke-linecap:round;stroke-linejoin:round;stroke-miterlimit:0;stroke-dasharray:none;stroke-opacity:1" d="M-21.444-167.507V-62.53c-2.48-1.177-3.881-2.761-4.999-5.37-3.096-7.225-1.783-14.659-7.449-21.134-10.021-11.453-27.197-14.799-27.197-32.74 0-10.714 33.599-17.268 22.287-21.59-.37-8.076 10.79-20.311 17.358-24.143z"/>
        <g transform="translate(1937.545 -3350.644)">
            <circle style="fill:#b3b3b3;fill-opacity:1;stroke:#474747;stroke-width:4;stroke-dasharray:none;stroke-opacity:1;paint-order:fill markers stroke;stop-color:#000" cx="-2078.98" cy="3380.086" r="21.594"/>
            <path style="fill:#474747;fill-opacity:1;stroke:#474747;stroke-width:4;stroke-linecap:square;stroke-linejoin:round;stroke-dasharray:none;stroke-opacity:1" d="m-2094.775 3391.862 31.59-23.552"/>
        </g>
        <ellipse style="fill:#b3b3b3;fill-opacity:1;stroke:#474747;stroke-width:4;stroke-linecap:round;stroke-dasharray:none;stroke-opacity:1;stop-color:#000" cx="-39.573" cy="44.019" rx="10.584" ry="10.577"/>
        <ellipse style="fill:#b3b3b3;fill-opacity:1;stroke:#474747;stroke-width:4;stroke-linecap:round;stroke-dasharray:none;stroke-opacity:1;stop-color:#000" cx="-156.521" cy="-244.447" rx="10.584" ry="10.577"/>
        <ellipse style="fill:#b3b3b3;fill-opacity:1;stroke:#474747;stroke-width:4;stroke-linecap:round;stroke-dasharray:none;stroke-opacity:1;stop-color:#000" cx="-39.573" cy="-244.073" rx="10.584" ry="10.577"/>
        <ellipse style="fill:none;fill-opacity:1;stroke:#262626;stroke-width:3.0894;stroke-dasharray:none;stroke-opacity:1;paint-order:fill markers stroke;stop-color:#000" cx="198.212" cy="-55.795" rx="21.32" ry="26.054" transform="rotate(-90)"/>
        <rect style="fill:none;fill-opacity:1;stroke:#262626;stroke-width:3.4165;stroke-dasharray:none;stroke-opacity:1;paint-order:fill markers stroke;stop-color:#000" width="41.056" height="6.555" x="-218.74" y="51.571" ry="0" transform="rotate(90)"/>
        <rect style="fill:#999;fill-opacity:1;stroke:#4d4d4d;stroke-width:2.77344;stroke-dasharray:none;stroke-opacity:1;paint-order:fill markers stroke;stop-color:#000" width="60.801" height="7.823" x="-49.436" y="-202.124" ry="2.973" rx="3.633"/>
        <ellipse style="fill:#b3b3b3;fill-opacity:1;stroke:#474747;stroke-width:4.40903;stroke-dasharray:none;stroke-opacity:1;paint-order:fill markers stroke;stop-color:#000" cx="-55.363" cy="-198.212" rx="18.437" ry="15.088"/>
        <path style="fill:#c9d1d9;fill-opacity:1;stroke:#a2a5c0;stroke-width:4.40999999;stroke-dasharray:none;stroke-opacity:1;paint-order:fill markers stroke;stop-color:#000;stroke-linejoin:round" d="M-55.363-213.3A18.437 15.088 0 0 0-73.8-198.212a18.437 15.088 0 0 0 6.516 11.496c2.96-1.945 4.87-5.525 7.427-7.885 4.405-4.066 10.15-6.697 14.724-10.567 1.135-.96 2.253-2.093 3.365-3.23a18.437 15.088 0 0 0-13.595-4.902z"/>
        <rect style="fill:#5c5c5c;fill-opacity:.948097;stroke:#454545;stroke-width:2.77344;stroke-dasharray:none;stroke-opacity:1;paint-order:fill markers stroke;stop-color:#000" width="15.6" height="4.597" x="190.394" y="7.747" ry="2.298" rx="1.881" transform="rotate(-90)"/>
        <rect style="fill:gray;fill-opacity:1;stroke:#4d4d4d;stroke-width:3.26754;stroke-dasharray:none;stroke-opacity:1;paint-order:fill markers stroke;stop-color:#000" width="29.401" height="50.054" x="52.199" y="-84.211" ry="2.701" rx="2.701" transform="rotate(-90)"/>
        <ellipse style="fill:#999;fill-opacity:1;stroke:#4d4d4d;stroke-width:3.49423;stroke-dasharray:none;stroke-opacity:1;paint-order:fill markers stroke;stop-color:#000" cx="66.9" cy="-57.124" rx="90.603" ry="16.011" transform="rotate(-90)"/>
        <path style="fill:#c9d1d9;fill-opacity:1;stroke:#a2a5c0;stroke-width:4;stroke-linejoin:round;stroke-dasharray:none;stroke-opacity:1;paint-order:fill markers stroke;stop-color:#000" d="M-68.008-134.906a16.011 90.603 0 0 0-3.664 27.605c10.69-3.887 5.631 8.302 11.11 11.04 5.79 2.896 12.961-.099 18.594 2.094a16.011 90.603 0 0 0-3.842-36.753c-.803.335-1.624.624-2.495.79-6.374 1.214-13.985-.872-19.703-4.776zm26.344 86.4c-10.043 5.176-22.199 7.865-31.132 3.025a16.011 90.603 0 0 0 5.499 48.25c.204-.158.41-.311.605-.485 9.181-8.161.763-7.625 16.129-13.386 1.366-.513 4.002-1.557 5.929-1.42a16.011 90.603 0 0 0 2.97-35.984z"/>
        <ellipse style="fill:#383838;fill-opacity:1;stroke:#262626;stroke-width:3.49423;stroke-dasharray:none;stroke-opacity:1;paint-order:fill markers stroke;stop-color:#000" cx="66.9" cy="-57.532" rx="9.339" ry="11.412" transform="rotate(-90)"/>
        <rect style="fill:none;fill-opacity:1;stroke:#262626;stroke-width:3.49423;stroke-dasharray:none;stroke-opacity:1;paint-order:fill markers stroke;stop-color:#000" width="37.578" height="7.491" x="38.823" y="-17.283" ry="2.973" transform="scale(-1)" rx="3.633"/>
        <rect style="fill:none;fill-opacity:1;stroke:#262626;stroke-width:3.49423;stroke-dasharray:none;stroke-opacity:1;paint-order:fill markers stroke;stop-color:#000" width="37.578" height="7.491" x="38.802" y="143.364" ry="2.973" transform="scale(-1)" rx="3.633"/>
        <rect style="fill:#b3b3b3;fill-opacity:1;stroke:#474747;stroke-width:4.40681;stroke-dasharray:none;stroke-opacity:1;paint-order:fill markers stroke;stop-color:#000" width="109.92" height="10.925" x="23.055" y="-39.985" ry="3.295" transform="matrix(-.31118 -.95035 .9768 -.21418 0 0)" rx="2.772"/>
        <path d="M-62.766 78.015h-69.464v30.567h69.464zm-2.658 26.62h-28.02v-22.83h28.02zm-34.886 0h-27.911v-22.83h27.911z" fill="#333"/>
        <g style="stroke-width:1.10003">
            <path style="fill:#999;stroke-width:.545207" transform="matrix(-.85037 0 0 -.9718 102.258 -211.423)" d="M199.288-322.403h30.557v4.121h-30.557zM199.288-309.152h30.557v4.121h-30.557zM199.288-315.777h30.557v4.121h-30.557z"/>
            <path d="M-66.76 106.428c1.028 0 1.855-.935 1.855-2.097V82.266c0-1.161-.827-2.096-1.855-2.096h-27.229c-1.027 0-1.855.935-1.855 2.096v22.065c0 1.162.828 2.097 1.855 2.097zm-.824-2.694h-25.583V83.132h25.583z" fill="#666"/>
        </g>
        <g style="stroke-width:1.10003">
            <path style="fill:#999;stroke-width:.545207" transform="matrix(-.85037 0 0 -.9718 68.01 -211.423)" d="M199.288-322.403h30.557v4.121h-30.557zM199.288-309.152h30.557v4.121h-30.557zM199.288-315.777h30.557v4.121h-30.557z"/>
            <path d="M-101.007 106.428c1.027 0 1.855-.935 1.855-2.097V82.266c0-1.161-.828-2.096-1.855-2.096h-27.23c-1.027 0-1.855.935-1.855 2.096v22.065c0 1.162.828 2.097 1.855 2.097zm-.825-2.694h-25.582V83.132h25.582z" fill="#666"/>
        </g>
        <path d="M-62.898-308.673h-69.464v30.567h69.464zm-2.658 26.62h-28.02v-22.831h28.02zm-34.886 0h-27.911v-22.831h27.911z" fill="#333"/>
        <g style="stroke-width:1.10003">
            <path style="fill:#999;stroke-width:.545207" transform="matrix(-.85037 0 0 -.9718 102.125 -598.111)" d="M199.288-322.403h30.557v4.121h-30.557zM199.288-309.152h30.557v4.121h-30.557zM199.288-315.777h30.557v4.121h-30.557z"/>
            <path d="M-66.892-280.26c1.028 0 1.855-.936 1.855-2.097v-22.065c0-1.162-.827-2.097-1.855-2.097H-94.12c-1.028 0-1.855.935-1.855 2.097v22.065c0 1.161.827 2.097 1.855 2.097zm-.824-2.694H-93.3v-20.602h25.583z" fill="#666"/>
        </g>
        <g style="stroke-width:1.10003">
            <path style="fill:#999;stroke-width:.545207" transform="matrix(-.85037 0 0 -.9718 67.877 -598.111)" d="M199.288-322.403h30.557v4.121h-30.557zM199.288-309.152h30.557v4.121h-30.557zM199.288-315.777h30.557v4.121h-30.557z"/>
            <path d="M-101.14-280.26c1.028 0 1.855-.936 1.855-2.097v-22.065c0-1.162-.827-2.097-1.855-2.097h-27.229c-1.028 0-1.855.935-1.855 2.097v22.065c0 1.161.827 2.097 1.855 2.097zm-.824-2.694h-25.583v-20.602h25.583z" fill="#666"/>
        </g>
        <ellipse style="fill:none;fill-opacity:1;stroke:#262626;stroke-width:2.71138;stroke-dasharray:none;stroke-opacity:1;paint-order:fill markers stroke;stop-color:#000" cx="200.655" cy="-144.017" rx="21.491" ry="19.908" transform="rotate(-90)"/>
        <rect style="fill:none;fill-opacity:1;stroke:#262626;stroke-width:3.27872;stroke-dasharray:none;stroke-opacity:1;paint-order:fill markers stroke;stop-color:#000" width="38.037" height="6.516" x="-219.762" y="144.651" ry="0" transform="rotate(90)"/>
        <rect style="fill:gray;fill-opacity:1;stroke:#4d4d4d;stroke-width:3.00478;stroke-dasharray:none;stroke-opacity:1;paint-order:fill markers stroke;stop-color:#000" width="38.593" height="14.466" x="181.303" y="-137.066" ry="5.497" rx="4.499" transform="rotate(-90)"/>
        <path style="fill:#c9d1d9;stroke:#a2a5c0;stroke-width:3.99999999;stroke-linecap:round;stroke-linejoin:round;stroke-miterlimit:0;stroke-dasharray:none" d="M-163.79-202.18c5.005 7.134 6.608 28.167 17.39 23.242 13.496-6.165 36.352-6.322 34.618 10.89-.331 3.29-.953 6.99-2.925 9.751-3.62 5.069-12.663 4.876-18.04 4.876-21.805 0-34.714-19.166-38.682-39.007-1.346-6.73 3.423-15.76 7.638-9.751z"/>
        <ellipse style="fill:#383838;fill-opacity:1;stroke:#262626;stroke-width:2.77344;stroke-dasharray:none;stroke-opacity:1;paint-order:fill markers stroke;stop-color:#000" cx="200.307" cy="-150.008" rx="7.413" ry="9.058" transform="rotate(-90)"/>
        <rect style="fill:#b3b3b3;fill-opacity:1;stroke:#474747;stroke-width:3.521;stroke-dasharray:none;stroke-opacity:1;paint-order:fill markers stroke;stop-color:#000" width="102.852" height="7.454" x="-6.524" y="-258.281" ry="3.047" transform="matrix(.8073 -.59014 .73251 .68075 0 0)" rx="3.051"/>
        <g transform="rotate(34.833 4319.734 4764.647)">
            <circle style="fill:#b3b3b3;fill-opacity:1;stroke:#474747;stroke-width:4;stroke-dasharray:none;stroke-opacity:1;paint-order:fill markers stroke;stop-color:#000" cx="-2079.122" cy="3379.633" r="21.594"/>
            <path style="fill:#474747;fill-opacity:1;stroke:#474747;stroke-width:4;stroke-linecap:square;stroke-linejoin:round;stroke-dasharray:none;stroke-opacity:1" d="m-2094.917 3391.409 31.59-23.553"/>
        </g>
        <path style="fill:#c9d1d9;stroke:#a2a5c0;stroke-width:3.99999999;stroke-linecap:round;stroke-linejoin:round;stroke-miterlimit:0;stroke-dasharray:none" d="M-157.452-105.15c10.896 2.492 22.5 5.409 33.806 3.575 21.828-3.54 25.613-43.881 35.593-27.305 10.923 18.143-2.937 71.172-28.442 70.375-17.568-.55-42.278-11.644-46.158-31.043-1.413-7.067-1.924-13.567 5.201-15.603z"/>
        <g transform="translate(722.71 -350.304)">
            <circle style="fill:gray;fill-opacity:1;stroke:#4d4d4d;stroke-width:3.508;stroke-linecap:square;stroke-linejoin:miter;stroke-dasharray:none;stroke-opacity:1;paint-order:fill markers stroke;stop-color:#000" cx="-130.351" cy="876.978" r="6.12" transform="rotate(66.128)"/>
            <ellipse style="fill:#b3b3b3;fill-opacity:1;stroke:#474747;stroke-width:4;stroke-linejoin:round;stroke-dasharray:none;stroke-opacity:1;stop-color:#000" cx="-725.711" cy="528.523" rx="12.474" ry="37.423" transform="rotate(21.128)"/>
            <rect style="fill:#999;fill-opacity:1;fill-rule:evenodd;stroke:#4d4d4d;stroke-width:2.99999;stroke-linecap:round;stroke-linejoin:round;stroke-miterlimit:20;stroke-dasharray:none;stroke-opacity:1" width="5.4" height="26.736" x="-531.215" y="723.469" rx="3.132" ry="3.132" transform="scale(1 -1) rotate(68.872)"/>
        </g>
        <path style="fill:#c9d1d9;stroke:#a2a5c0;stroke-width:3.99999999;stroke-linecap:round;stroke-linejoin:round;stroke-miterlimit:0;stroke-dasharray:none" d="M-126.847-267.315c7.39-4.565 17.34-.283 26.015-.283 8.25 0 24.88-5.15 32.519-.566 13.563 8.138 11.6 36.053-4.807 40.154-15.842 3.96-21.436-7.794-32.52-15.552-7.142-5-34.396-15.608-21.207-23.753zM-174.407-46.415l.016 108.453h26.868v20.846c6.862-3.77 11.862-11.91 20.232-14.421 7.246-2.174 16.063-2.3 22.731-6.11 38.056-21.747-38.294-58.217-47.662-66.483-8.11-7.156-6.744-17.64-11.244-26.641-2.898-5.796-9.009-10.754-10.94-15.644zm15.305 57.778a19.37 19.37 0 0 1 1.991.15c6.138 8.257 15.408 7.825 24.198 10.755 19.388 6.463 9.762 36.769-15.398 27.62-12.203-4.438-30.16-38.934-10.791-38.525zM-48.377 73.283v43.342l-18.834-.034c-.223-2.283 1.758-3.259 3.004-4.504 1.855-1.856 5.322.516 6.583-2.426 6.26-14.608-10.082-24.267 9.247-36.378z"/>
        <path style="fill:#c9d1d9;fill-opacity:1;stroke:#a2a5c0;stroke-width:3.99999999;stroke-linecap:round;stroke-linejoin:round;stroke-miterlimit:0;stroke-dasharray:none;stroke-opacity:1" d="M-24.71-194.3c2.183-2.641 3.215-6.61 5.675-7.824H-2.71c-1.267 2.767.693 4.987.693 7.823z"/>
        <path style="fill:#c9d1d9;fill-opacity:1;stroke:#a2a5c0;stroke-width:4;stroke-linecap:round;stroke-linejoin:round;stroke-miterlimit:0;stroke-dasharray:none;stroke-opacity:1" d="M-45.325-261.803h23.881v50.642c-10.645-4.9-7.453-20.853-11.582-30.142-1.331-2.996-17.13-2.77-12.299-20.5zM-134.098-314.617h-12.77v26.354c2.785-3.651 14.567-20.34 12.77-26.354zM-85.64 15.62c23.801 17.079 36.641 10.07 49.944 18.938 1.97 1.313 3.238 6.847 4.27 8.911 3.397 6.794-27.78 15.58-35.276 10.583-5.214-3.475-27.55-44.613-18.938-38.432zM-112.747-31.539c14.538-21.046 27.486-20.167 25.436 6.313.437 5.242 8.739 15.804-.928 18.566-5.176 1.48-28.385-11.637-24.508-24.879z"/>
    </g>
</svg>
