<svg width="585.864" height="947.826" viewBox="0 0 310.02 501.558" xmlns="http://www.w3.org/2000/svg">
    <g transform="translate(49.477 160.867)">
        <path style="fill:#999;fill-opacity:1;stroke:#09240a;stroke-width:3.2393;stroke-linecap:round;stroke-linejoin:round;stroke-dasharray:none;stroke-opacity:1" d="M-37.25 319.257c157.47 0 283.404-106.343 283.601-230.296C246.317-35.135 111.4-141.703-37.25-141.703V41.981h7.224v93.593h-7.224z"/>
        <path style="fill:#fff;fill-opacity:.1;stroke:none;stroke-width:2.61144;stroke-linecap:square;stroke-linejoin:miter;stroke-dasharray:none;stroke-opacity:1;paint-order:fill markers stroke;stop-color:#000" d="M-2.366-146.209v474.738H2.72v-474.738zm103.951 41.643v399.1h5.086v-399.1ZM205.873-9.38v189.184h5.086V-9.38Z"/>
        <ellipse style="fill:#b3b3b3;fill-opacity:1;stroke:#4d4d4d;stroke-width:3.5;stroke-linecap:round;stroke-dasharray:none;stroke-opacity:1;stop-color:#000" cx="-2.863" cy="239.726" rx="10.584" ry="10.577"/>
        <path style="fill:#c9d1d9;fill-opacity:1;stroke:#a2a5c0;stroke-width:3.92377;stroke-linecap:round;stroke-linejoin:round;stroke-opacity:1" d="M103.626 14.407c-.145 18.328-15.301 19.725-20.916 30.955-14.449 28.897 17.234 39.607 33.883 12.968 3.941-6.306.27-13.357 2.51-20.08 2.03-6.09 16.006-29.7-2.091-29.7-5.963 0-13.338-.25-13.386 5.857z"/>
        <g transform="rotate(-90 -981.786 -270.847)">
            <path style="fill:#999;fill-opacity:1;stroke:#4d4d4d;stroke-width:3.5;stroke-linecap:round;stroke-linejoin:round;stroke-dasharray:none;stroke-opacity:1;stop-color:#000" d="M-1407.016 794.659h24.342v39.386h-24.342zM-1300.75 794.659h24.342v39.386h-24.342z"/>
            <path style="fill:gray;fill-opacity:1;stroke:#595959;stroke-width:3.5;stroke-linecap:round;stroke-linejoin:round;stroke-dasharray:none;stroke-opacity:1;stop-color:#000" d="M-1422.358 706.354h161.665v69.694h-161.665z"/>
            <path style="fill:#999;fill-opacity:1;stroke:#4d4d4d;stroke-width:3.5;stroke-linecap:round;stroke-linejoin:round;stroke-dasharray:none;stroke-opacity:1;stop-color:#000" transform="matrix(0 1 1 0 0 0)" d="M748.608-1431.95h10.123v180.6h-10.123z"/>
            <path style="fill:#b3b3b3;fill-opacity:1;stroke:#474747;stroke-width:3.5;stroke-linecap:round;stroke-linejoin:round;stroke-dasharray:none;stroke-opacity:1;stop-color:#000" d="M-1354.1 714.037h24.342v54.394h-24.342z"/>
            <path style="fill:#b3b3b3;fill-opacity:1;stroke:#474747;stroke-width:3.49999;stroke-linecap:round;stroke-linejoin:round;stroke-dasharray:none;stroke-opacity:1;stop-color:#000" d="M-1449.86 743.085h30.87v20.954h-30.87z"/>
            <path style="fill:#b3b3b3;fill-opacity:1;stroke:#474747;stroke-width:3.49999;stroke-linecap:round;stroke-linejoin:round;stroke-dasharray:none;stroke-opacity:1;stop-color:#000" transform="scale(-1 1)" d="M1232.948 743.085h30.87v20.954h-30.87z"/>
            <path style="fill:#383838;fill-opacity:1;stroke:#262626;stroke-width:3.49999;stroke-linecap:round;stroke-linejoin:round;stroke-dasharray:none;stroke-opacity:1;stop-color:#000" d="M-1400.639 735.633h13.096v35.547h-13.096z"/>
            <path style="fill:#262626;fill-opacity:1;stroke:none;stroke-width:3.49999;stroke-linecap:round;stroke-linejoin:round;stroke-dasharray:none;stroke-opacity:1;stop-color:#000" d="M-1396.349 735.932h4.49v124.975h-4.49z"/>
            <path style="fill:#383838;fill-opacity:1;stroke:#262626;stroke-width:3.49999;stroke-linecap:round;stroke-linejoin:round;stroke-dasharray:none;stroke-opacity:1;stop-color:#000" transform="scale(-1 1)" d="M1282.553 735.633h13.096v35.547h-13.096z"/>
            <path style="fill:#262626;fill-opacity:1;stroke:none;stroke-width:3.49999;stroke-linecap:round;stroke-linejoin:round;stroke-dasharray:none;stroke-opacity:1;stop-color:#000" transform="scale(-1 1)" d="M1286.843 735.932h4.49v124.975h-4.49z"/>
            <path style="fill:#b3b3b3;fill-opacity:1;stroke:#4d4d4d;stroke-width:3.5;stroke-linecap:round;stroke-linejoin:round;stroke-dasharray:none;stroke-opacity:1;stop-color:#000" d="M-1413.875 714.037h10.123v54.394h-10.123zM-1279.264 714.037h10.123v54.394h-10.123z"/>
            <ellipse style="fill:#b3b3b3;fill-opacity:1;stroke:#474747;stroke-width:3.5;stroke-linecap:round;stroke-dasharray:none;stroke-opacity:1;stop-color:#000" cx="-1394.762" cy="857.594" rx="10.693" ry="10.673"/>
            <ellipse style="fill:#b3b3b3;fill-opacity:1;stroke:#474747;stroke-width:3.5;stroke-linecap:round;stroke-dasharray:none;stroke-opacity:1;stop-color:#000" cx="-1288.495" cy="857.594" rx="10.693" ry="10.673"/>
        </g>
        <path style="fill:#545e3b;fill-opacity:1;stroke:#24271b;stroke-width:3.239;stroke-linecap:round;stroke-linejoin:round;stroke-dasharray:none;stroke-opacity:1" d="m-47.634-159.118-.093 11.68h0V49.92h7.224v77.61h-7.224v202.351h.024l.07 9.06c170.143 0 306.212-114.901 306.426-248.83C258.756-43.97 121.96-159.117-47.633-159.117zm20.759 19.862C111.892-128.498 232.475-28.354 232.507 88.96c-.188 117.527-113.417 219.204-259.382 229.434Z"/>
        <path style="fill:#c9d1d9;stroke:#a2a5c0;stroke-width:3.5;stroke-linecap:round;stroke-linejoin:round;stroke-dasharray:none" d="M191.158 223.165c22.45-16.33 49.234-59.102 57.486-83.857 4.639-13.917.791-37.33-3.765-50.999-2.35-7.051 3.713-24.353-1.37-29.436-58.42-16.898-38.11-37.063-99.943 3.423-5.01 20.04 51.34 47.485 51.34 57.16 0 2.739-6.502 1.855-6.502 6.845 0 7.563 1.746 15.733 5.818 22.248.945 1.512 5.114 3.544 3.423 4.108-8.514 2.838-19.426 1.498-27.382 5.476-.043.021 6.904 13.483 2.738 16.087-7.81 4.882-34.679 2.956-35.254 4.107-.807 1.614 1.14 3.423 1.711 5.134 7.636 22.908 33.717 30.766 51.7 39.704zM-38.87 210.073l2.485 118.456c23.457-7.755 62.538 3.421 83.886-10.81 35.223-23.483 110.58-32.093 122.754-72.846-17.858 2.464-7.1-39.532-29.17-28.496-9.127 4.562-15.159 13.134-25.215 16.486-7.176 2.392-9.073-21.648-21.335-15.517-24.899 12.45-34.201 22.79-66.43 22.79-24.75 0-15.348-40.246-51.883-40.246-12.187 0-11.113 1.27-15.092 10.183z"/>
        <ellipse style="fill:#b3b3b3;fill-opacity:1;stroke:#4d4d4d;stroke-width:3.5;stroke-linecap:round;stroke-dasharray:none;stroke-opacity:1;stop-color:#000" cx="37.089" cy="239.726" rx="10.584" ry="10.577"/>
        <path style="fill:#c9d1d9;stroke:#a2a5c0;stroke-width:3.5;stroke-linecap:round;stroke-linejoin:round;stroke-dasharray:none" d="m-36.813-3.034-2.057-146.538c14.378-4.59 27.172 6.846 40.734 6.846 28.734 0 52.62 2.522 77.696 15.06 1.25.625 27.968 16.267 19.51 21.905-13.1 8.733-30.256 7.488-41.415 20.88-6.755 8.105 2.498 11.876-6.846 21.22-2.613 2.614-31.262 1.99-38.334 5.134-5.36 2.382-25.988 41.653-36.624 49.63-4.463 3.348-11.594 2.049-12.664 5.863z"/>
        <path style="fill:#23345b;fill-opacity:1;stroke:#0d1626;stroke-width:3.5;stroke-linecap:round;stroke-linejoin:round;stroke-dasharray:none;stroke-opacity:1" d="m-47.634-159.118-.093 11.68h0V49.92h7.224v77.61h-7.224v202.351c.032 0-.03 0 0 0l.093 9.06c170.144 0 306.213-114.901 306.427-248.83-.037-134.082-136.834-249.228-306.427-249.228zm20.759 19.862C111.892-128.498 232.475-28.354 232.507 88.96c-.188 117.527-113.417 219.204-259.382 229.434Z"/>
        <path style="fill:#c9d1d9;fill-opacity:1;stroke:#a2a5c0;stroke-width:3.5;stroke-linecap:round;stroke-linejoin:round;stroke-dasharray:none;stroke-opacity:1" d="M-10.235-157.153c.262 5.47.72 11.3 2.278 17.532.22.883.477 1.731.75 2.565a325.863 325.863 0 0 1 98.324 30.165c.157-.537.35-1.078.584-1.627 2.636-6.15 8.845-11.094 17.236-14.824-35.663-17.562-76.008-29.427-119.172-33.811zm-37.492 69.762v137.31h7.224v77.611h-7.224v86.622a148.854 148.854 0 0 1 20.852-5.277V-72.376c-7.52-3.787-14.497-8.821-20.852-15.015zm250.67 35.615a81.342 81.342 0 0 1-8.41 4.83c-6.265 3.133-11.53 3.937-16.176 4.917 26.684 29.629 45.012 64.233 51.507 101.32 19.284-20.393.48-40.507 10.406-53.224-9.323-20.59-21.938-40.026-37.326-57.843zm44.643 207.39c-5.412 2.497-10.627 5.454-14.333 10.086-21.368 26.71-32.616 52.03-58.211 60.907-20.649 22.26-46.07 41.556-75.145 56.657-2.32 6.57-15.312 15.836-13.908 21.449.72 2.883 2.829 4.88 5.382 6.636 75.79-31.908 133.096-88.753 156.215-155.735Zm-274.46 128.95c-7.366 2.363-14.62 3.96-20.853 2.798v42.52-.002l.094 9.061c27.965 0 54.981-3.16 80.653-8.942-1.274-6.732-2.375-13.62-3.933-20.322a335.737 335.737 0 0 1-55.962 8.718z"/>
        <ellipse style="fill:#b3b3b3;fill-opacity:1;stroke:#4d4d4d;stroke-width:3.5;stroke-linecap:round;stroke-dasharray:none;stroke-opacity:1;stop-color:#000" cx="203.601" cy="87.908" rx="10.693" ry="10.673"/>
        <ellipse style="fill:#b3b3b3;fill-opacity:1;stroke:#4d4d4d;stroke-width:3.5;stroke-linecap:round;stroke-dasharray:none;stroke-opacity:1;stop-color:#000" cx="37.089" cy="-62.545" rx="10.584" ry="10.577"/>
        <ellipse style="fill:#b3b3b3;fill-opacity:1;stroke:#4d4d4d;stroke-width:3.5;stroke-linecap:round;stroke-dasharray:none;stroke-opacity:1;stop-color:#000" cx="-2.863" cy="-62.545" rx="10.584" ry="10.577"/>
        <path style="fill:#c9d1d9;stroke:#a2a5c0;stroke-width:3.5;stroke-linecap:round;stroke-linejoin:round;stroke-dasharray:none" d="M103.52-74.271c17.376 24.369 40.72 33.134 58.87 48.26 28.112 23.427 7.413 29.58-16.086 31.147-15.111 1.008-50.919-7.974-57.16-26.697-2.485-7.454-1.043-15.636-3.08-23.275C75.747-72.087 91.91-90.55 103.52-74.27Z"/>
        <path style="fill:#c9d1d9;fill-opacity:1;stroke:#a2a5c0;stroke-width:3.92377;stroke-linecap:round;stroke-linejoin:round;stroke-opacity:1" d="M37.669 16.508H3.098v10.123h34.57c9.854-2.37-4.9-5.796 0-10.123zM18.769 77.125h27.928c-13.77 7.213-1.789 8.562.84 12.942 2.22 3.7 4.769 11.4 4.83 11.4h-12.18c-5.026-14.387-10.097-2.908-17.243-.9-8.677 2.722-5.613-16.517-4.175-23.442Z"/>
    </g>
</svg>
