<?xml version="1.0" encoding="UTF-8" standalone="no"?>
<svg width="2867.0811" height="1860.292" viewBox="0 0 758.582 492.202" version="1.1" id="svg851" sodipodi:docname="headquarters_second_floor_bottom.svg" inkscape:version="1.4 (e7c3feb100, 2024-10-09)" xml:space="preserve" xmlns:inkscape="http://www.inkscape.org/namespaces/inkscape" xmlns:sodipodi="http://sodipodi.sourceforge.net/DTD/sodipodi-0.dtd" xmlns="http://www.w3.org/2000/svg" xmlns:svg="http://www.w3.org/2000/svg"><sodipodi:namedview id="namedview851" pagecolor="#ffffff" bordercolor="#000000" borderopacity="0.25" inkscape:showpageshadow="2" inkscape:pageopacity="0.0" inkscape:pagecheckerboard="0" inkscape:deskcolor="#d1d1d1" inkscape:zoom="0.35355339" inkscape:cx="229.1026" inkscape:cy="-52.325902" inkscape:window-width="1920" inkscape:window-height="1001" inkscape:window-x="-9" inkscape:window-y="-9" inkscape:window-maximized="1" inkscape:current-layer="svg851" inkscape:document-units="mm" /><defs id="defs627"><clipPath clipPathUnits="userSpaceOnUse" id="clipPath1023"><path style="fill:#a98256;fill-opacity:1;stroke:none;stroke-width:0.264535" d="M 9.3807274,-17.098 V 358.30801 H 269.67273 V -17.098 Z" id="path1023" sodipodi:nodetypes="ccccc" /></clipPath></defs><path style="fill:#666666;fill-opacity:1;stroke-width:1.54755;stroke-linecap:square;paint-order:stroke fill markers" d="M 264.122,215.725 H 752.815 V 355.446 H 264.122 Z" id="path665" /><path fill="#7caee4" fill-opacity="0.367" d="m 91.558,373.784 h 253.058 v 101.82 H 91.558 Z" fill-rule="evenodd" style="stroke-width:0.586666" id="path666" /><path fill="#efefef" fill-opacity=".633" d="m 95.537,404.639 22.009,-26.486 h 7.45 l -29.459,35.453 z m -7.626,-5.308 22.008,-26.486 h 7.451 l -29.459,35.453 z" fill-rule="evenodd" style="fill:#efefef;fill-opacity:0.5;stroke-width:0.550574" id="path667" /><path fill="#efefef" fill-opacity=".633" d="m 193.916,405.369 22.513,-27.094 h 7.622 l -30.135,36.267 z m -7.801,-5.43 22.513,-27.094 h 7.622 l -30.135,36.267 z" fill-rule="evenodd" style="fill:#efefef;fill-opacity:0.5;stroke-width:0.563211" id="path668" /><path fill="#efefef" fill-opacity=".633" d="m 245.227,446.848 -21.7,26.114 h -7.345 l 29.045,-34.955 z m 7.519,5.233 -21.7,26.114 h -7.345 l 29.045,-34.954 z" fill-rule="evenodd" style="fill:#efefef;fill-opacity:0.5;stroke-width:0.54284" id="path669" /><path fill="#efefef" fill-opacity=".633" d="m 291.558,405.369 22.514,-27.094 h 7.622 l -30.136,36.267 z m -7.801,-5.43 22.514,-27.094 h 7.621 l -30.135,36.267 z" fill-rule="evenodd" style="fill:#efefef;fill-opacity:0.5;stroke-width:0.563211" id="path670" /><path fill="#efefef" fill-opacity=".633" d="m 342.762,446.401 -22.008,26.486 h -7.45 l 29.458,-35.452 z m 7.626,5.308 -22.008,26.486 h -7.45 l 29.458,-35.452 z" fill-rule="evenodd" style="fill:#efefef;fill-opacity:0.5;stroke-width:0.550574" id="path671" /><path stroke="#1d1d1d" stroke-width="3.207" stroke-linejoin="round" d="m 96.231,408.905 c -1.49,0 -2.698,0.227 -2.698,0.506 v 2.02 c 0,0.134 0.284,0.262 0.79,0.357 0.507,0.095 1.193,0.148 1.909,0.148 h 247.652 c 1.49,0 2.698,-0.226 2.698,-0.505 v -2.02 c 0,-0.28 -1.208,-0.506 -2.698,-0.506 z" fill-rule="evenodd" style="fill:#4d4d4d;fill-opacity:1;stroke-width:3.5;stroke-dasharray:none;paint-order:stroke fill markers" id="path672" /><path fill="#efefef" fill-opacity=".633" d="m 145.347,447.432 -21.295,25.628 h -7.21 l 28.505,-34.304 z m 7.378,5.136 -21.294,25.627 h -7.21 l 28.504,-34.303 z" fill-rule="evenodd" style="fill:#efefef;fill-opacity:0.5;stroke-width:0.532718" id="path673" /><path stroke="#1d1d1d" stroke-width="3.207" stroke-linejoin="round" d="m 96.231,439.769 c -1.49,0 -2.698,0.227 -2.698,0.505 v 2.02 c 0,0.135 0.284,0.263 0.79,0.358 0.507,0.095 1.193,0.148 1.909,0.148 h 247.652 c 1.49,0 2.698,-0.226 2.698,-0.505 v -2.02 c 0,-0.28 -1.208,-0.506 -2.698,-0.506 z" fill-rule="evenodd" style="fill:#4d4d4d;fill-opacity:1;stroke-width:3.5;stroke-dasharray:none;paint-order:stroke fill markers" id="path674" /><path style="fill:#737373;fill-opacity:1;stroke:#262626;stroke-width:2.5;stroke-linecap:round;stroke-linejoin:round;stroke-dasharray:none;stroke-opacity:1;stop-color:#000000" d="M 87.357,371.485 V 479.512 H 351.068 V 371.485 H 155.514 Z m 9.618,8.85 h 48.57 v 90.632 h -48.57 z m 98.002,0 h 48.57 v 90.632 h -48.57 z m 97.553,0 h 48.569 v 90.632 h -48.57 z" id="path675" /><path style="fill:#4d4d4d;fill-opacity:1;stroke:#1d1d1d;stroke-width:2.49954;stroke-linecap:round;stroke-linejoin:round;stroke-dasharray:none;stroke-opacity:1;stop-color:#000000" d="M 77.211,361.467 V 490.952 H 362.378 V 361.467 Z m 10.766,10.85 h 66.566 V 479.25 H 87.977 Z m 98.003,0 h 66.565 V 479.25 H 185.98 Z m 97.552,0 h 66.565 V 479.25 h -66.565 z" id="path676" /><path style="opacity:0.98;fill:#363636;fill-opacity:0.75;stroke:none;stroke-width:3.99927;stroke-linecap:round;stroke-dasharray:none;stroke-opacity:1;stop-color:#000000" d="m 139.893,347.931 c 1.442,-2.778 4.396,-4.109 6.792,-5.89 2.652,-1.974 6.057,-6.442 10.595,-3.82 0.713,0.411 2.287,3.555 2.342,3.647 2.29,3.772 5.549,8.55 9.967,8.562 0.928,0.003 1.77,-0.287 2.613,-0.53 4.616,-1.33 6.302,-1.822 10.034,-3.762 3.351,-1.743 6.606,-3.704 10.188,-5.075 3.916,-1.498 10.402,0.073 14.853,1.444 5.495,1.692 5.01,1.726 11.35,3.881 0.944,0.32 1.892,0.689 2.836,0.873 0.517,0.101 0.986,-0.083 1.5,-0.025 1.72,0.192 3.652,1.263 4.025,3.472 0.18,1.068 -0.1,2.051 -0.3,3.013 -0.527,2.534 -4.618,2.096 -5.596,4.374 -1.65,3.839 -6.37,14.235 -10.543,14.26 -35.704,0.215 -24.49,-0.282 -24.646,1.643 -0.134,1.655 1.744,16.053 -0.228,16.062 -0.86,0.004 -0.897,0.19 -1.782,-0.14 -0.644,-0.24 -1.125,-0.963 -1.723,-1.377 -4.212,-2.918 -7.218,-5.217 -11.747,-4.748 -3.692,0.383 -4.832,3.494 -6.405,6.369 -1.476,2.696 -2.93,5.352 -4.49,7.985 -1.459,2.465 -1.507,3.198 -3.434,5.153 -0.61,0.62 -1.348,1.09 -2.022,1.636 -0.052,-13.566 0.52,-18.232 0.822,-31.457 0.013,-0.565 -13.184,-1.966 -13.114,-2.537 0.498,-4.036 -0.722,-6.191 0.687,-10.055 0.154,-0.422 0.428,-0.772 0.532,-1.222 0.057,-0.244 -1.355,-0.73 -2.855,-1.65 -2.323,-1.423 -3.741,-1.993 -5.544,-4.222 -0.387,-0.479 -0.885,-0.896 -1.161,-1.436 -1.133,-2.21 -0.149,-3.588 1.006,-4.772 0.22,-0.226 0.42,-0.508 0.735,-0.595 0.222,-0.061 0.507,0.158 0.755,0.181 0.48,0.045 0.809,-0.504 1.122,-0.116 m 115.673,116.72 c 2.685,3.502 1.705,3.76 6.098,3.294 0.923,-0.098 1.729,-0.478 2.54,-0.81 4.444,-1.824 6.067,-2.495 9.567,-4.83 3.142,-2.095 6.166,-4.398 9.577,-6.15 0.888,-0.455 1.94,-0.754 3.09,-0.932 3.676,-0.572 -2.709,24.08 0.776,24.75 20.44,0.529 19.294,0.558 23.315,0.36 2.851,-0.14 -4.545,3.249 -5.954,4.236 -4.51,3.16 -3.638,2.529 -9.204,7.52 -1.904,1.708 -10.853,-0.582 -13.395,-0.44 -7.793,0.436 -41.557,0.331 -45.73,-0.295 0.057,-4.066 -1.39,-6.075 -0.408,-10.07 0.104,-0.437 0.341,-0.814 0.396,-1.272 0.03,-0.249 20.085,0.625 18.495,-0.126" id="path677" /><path style="fill:none;fill-opacity:1;stroke:#1d1d1d;stroke-width:2.49954;stroke-linecap:round;stroke-linejoin:round;stroke-dasharray:none;stroke-opacity:1;stop-color:#000000" d="M 77.211,361.467 V 490.952 H 362.378 V 361.467 Z m 10.766,10.85 h 66.566 V 479.25 H 87.977 Z m 98.003,0 h 66.565 V 479.25 H 185.98 Z m 97.552,0 h 66.565 V 479.25 h -66.565 z" id="path678" /><path style="opacity:0.9604;fill:#737373;fill-opacity:1;stroke-width:2.97943;stroke-linecap:square;stroke-linejoin:round;stop-color:#000000" d="m 751.345,209.005 v 27.601 H 252.783 v -27.601 z m 0,53.305 v 27.601 H 252.783 V 262.31 Z" id="path679" /><path style="opacity:0.98;fill:#363636;fill-opacity:0.75;stroke:none;stroke-width:3.99927;stroke-linecap:round;stroke-dasharray:none;stroke-opacity:1;stop-color:#000000" d="m 588.416,188.113 c 2.813,-1.373 5.979,-0.683 8.965,-0.688 3.305,-0.006 8.702,-1.569 10.786,3.24 0.328,0.754 -0.28,4.218 -0.29,4.324 -0.407,4.394 -0.633,10.173 2.91,12.814 0.744,0.554 1.593,0.823 2.414,1.13 4.501,1.679 6.148,2.289 10.301,2.952 3.73,0.595 7.514,0.958 11.208,1.99 4.038,1.126 8.314,6.251 11.073,10.003 3.407,4.632 2.998,4.37 6.808,9.876 0.567,0.82 1.11,1.68 1.758,2.39 0.356,0.39 0.842,0.52 1.22,0.872 1.268,1.179 2.183,3.19 1.167,5.187 -0.491,0.965 -1.301,1.589 -2.035,2.243 -1.932,1.722 -3.805,3.625 -5.947,4.872 -3.611,2.102 -13.623,0.39 -17.757,-0.172 -5.458,-0.743 -4.388,-0.614 -11.864,-0.73 -2.557,-0.04 -5.004,0.654 -7.533,0.935 -1.965,0.219 -3.93,0.332 -5.893,0.558 -1.65,0.19 -3.384,1.07 -4.974,-0.097 -0.694,-0.51 -1.454,-0.973 -1.968,-1.765 -0.375,-0.577 -0.33,-1.444 -0.564,-2.132 -1.646,-4.853 -2.693,-8.49 -6.61,-10.81 -3.195,-1.89 -5.963,-0.07 -8.939,1.303 -2.79,1.288 -5.54,2.556 -8.361,3.743 -2.64,1.111 -3.116,1.67 -5.828,2.095 -0.859,0.134 -1.732,0.073 -2.598,0.11 -2.668,0.113 -3.083,0.543 -4.134,-2.597 -0.17,-0.51 -0.448,-0.975 -0.537,-1.518 -0.787,-4.78 -0.301,-3.142 -0.3,-7.072 10e-4,-3.198 -0.187,-7.11 1.237,-9.909 0.427,-0.837 1.042,-1.481 1.563,-2.222 0.595,-0.847 1.094,-1.827 1.786,-2.54 3.293,-3.393 7.48,-5.333 10.75,-8.772 2.804,-2.946 3.106,-5.404 6.54,-7.67 0.375,-0.247 0.803,-0.365 1.154,-0.664 0.191,-0.163 -0.654,-1.394 -1.31,-3.025 -1.02,-2.527 -1.82,-3.83 -1.941,-6.694 -0.026,-0.615 -0.178,-1.246 -0.078,-1.845 0.406,-2.45 2.017,-2.971 3.65,-3.235 0.311,-0.05 0.64,-0.157 0.944,-0.04 0.215,0.083 0.313,0.429 0.499,0.595 0.359,0.322 0.95,0.077 0.97,0.575" id="path680" /><path style="opacity:0.9604;fill:#737373;fill-opacity:1;stroke-width:2.97943;stroke-linecap:square;stroke-linejoin:round;stop-color:#000000" d="m 751.345,316.242 v 27.601 H 252.783 v -27.601 z" id="path681" /><rect style="fill:#390e0e;fill-opacity:1;stroke-width:9.39962;stroke-linecap:square;stop-color:#000000" width="10.088" height="758.16901" x="-362.15497" y="-758.37299" ry="0" transform="matrix(0,-1,-1,0,0,0)" id="rect682" /><rect style="fill:#411010;fill-opacity:1;stroke-width:7.18265;stroke-linecap:square;stop-color:#000000" width="10.088" height="379.27899" x="0.19307031" y="-362.10901" ry="0" transform="scale(1,-1)" id="rect683" /><rect style="fill:#390e0e;fill-opacity:1;stroke-width:7.51608;stroke-linecap:square;stop-color:#000000" width="10.088" height="760.61902" x="-758.57904" y="-361.36298" ry="0" transform="scale(-1)" id="rect684" /><rect style="fill:#411010;fill-opacity:1;stroke-width:8.81679;stroke-linecap:square;stop-color:#000000" width="10.088" height="79.319" x="-17.223988" y="-79.52095" ry="0" transform="rotate(90)" id="rect685" /><rect style="fill:#501616;fill-opacity:1;stroke-width:19.089;stroke-linecap:square;stop-color:#000000" width="5.4050002" height="753.56403" x="354.41199" y="2.4850626" ry="0.69499999" rx="0.69499999" transform="matrix(0,1,1,0,0,0)" id="rect688" /><rect style="fill:#591919;fill-opacity:1;stroke-width:12.8334;stroke-linecap:square;stop-color:#000000" width="5.4050002" height="374.67401" x="2.4660196" y="-359.828" ry="0.69499999" rx="0.69499999" transform="scale(1,-1)" id="rect689" /><rect style="fill:#591919;fill-opacity:1;stroke-width:10.5276;stroke-linecap:square;stop-color:#000000" width="5.4050002" height="73.07" x="-14.908984" y="2.4201212" ry="0.69499999" rx="0.69499999" transform="matrix(0,1,1,0,0,0)" id="rect690" /><rect style="fill:#501616;fill-opacity:1;stroke-width:21.8071;stroke-linecap:square;stop-color:#000000" width="5.4050002" height="761.54102" x="-756.237" y="-403.45599" ry="0.69499999" rx="0.69499999" transform="scale(-1,1)" id="rect691" /><path fill="#7caee4" fill-opacity="0.367" d="M 282.608,45.665 H 505.554 V 196.381 H 282.608 Z" fill-rule="evenodd" style="stroke-width:0.669953" id="path691" /><path fill="#efefef" fill-opacity=".633" d="m 291.621,91.337 19.39,-39.206 h 6.564 l -25.954,52.479 z m -6.719,-7.857 19.39,-39.205 h 6.564 l -25.954,52.478 z" fill-rule="evenodd" style="fill:#efefef;fill-opacity:0.5;stroke-width:0.628738" id="path692" /><path fill="#efefef" fill-opacity=".633" d="m 371.715,92.417 19.834,-40.105 h 6.715 l -26.55,53.682 z m -6.873,-8.037 19.835,-40.105 h 6.714 l -26.549,53.682 z" fill-rule="evenodd" style="fill:#efefef;fill-opacity:0.5;stroke-width:0.643169" id="path693" /><path fill="#efefef" fill-opacity=".633" d="m 416.921,153.815 -19.118,38.655 h -6.472 l 25.59,-51.741 z m 6.624,7.747 -19.117,38.654 h -6.472 l 25.589,-51.74 z" fill-rule="evenodd" style="fill:#efefef;fill-opacity:0.5;stroke-width:0.619905" id="path694" /><path fill="#efefef" fill-opacity=".633" d="m 453.608,92.417 19.835,-40.105 h 6.714 l -26.549,53.682 z m -6.873,-8.037 19.836,-40.105 h 6.715 l -26.55,53.682 z" fill-rule="evenodd" style="fill:#efefef;fill-opacity:0.5;stroke-width:0.643169" id="path695" /><path fill="#efefef" fill-opacity=".633" d="m 498.719,153.155 -19.39,39.205 h -6.564 l 25.954,-52.479 z m 6.719,7.856 -19.39,39.205 h -6.564 l 25.954,-52.478 z" fill-rule="evenodd" style="fill:#efefef;fill-opacity:0.5;stroke-width:0.628738" id="path696" /><path fill="#efefef" fill-opacity=".633" d="m 335.504,154.68 -18.761,37.934 h -6.351 l 25.112,-50.776 z m 6.5,7.603 -18.76,37.934 h -6.352 l 25.112,-50.777 z" fill-rule="evenodd" style="fill:#efefef;fill-opacity:0.5;stroke-width:0.608347" id="path697" /><path fill="#7caee4" fill-opacity="0.367" d="M 520.345,45.665 H 743.291 V 196.381 H 520.345 Z" fill-rule="evenodd" style="stroke-width:0.669953" id="path698" /><path fill="#efefef" fill-opacity=".633" d="m 529.358,91.337 19.39,-39.206 h 6.564 L 529.358,104.61 Z M 522.64,83.48 542.03,44.275 h 6.563 L 522.64,96.753 Z" fill-rule="evenodd" style="fill:#efefef;fill-opacity:0.5;stroke-width:0.628738" id="path699" /><path fill="#efefef" fill-opacity=".633" d="m 609.452,92.417 19.835,-40.105 h 6.715 l -26.55,53.682 z m -6.873,-8.037 19.835,-40.105 h 6.715 l -26.55,53.682 z" fill-rule="evenodd" style="fill:#efefef;fill-opacity:0.5;stroke-width:0.643169" id="path700" /><path fill="#efefef" fill-opacity=".633" d="M 654.658,153.815 635.54,192.47 h -6.472 l 25.59,-51.741 z m 6.623,7.747 -19.116,38.654 h -6.472 l 25.589,-51.74 z" fill-rule="evenodd" style="fill:#efefef;fill-opacity:0.5;stroke-width:0.619905" id="path701" /><path fill="#efefef" fill-opacity=".633" d="M 691.345,92.417 711.18,52.312 h 6.715 l -26.55,53.682 z m -6.873,-8.037 19.835,-40.105 h 6.715 l -26.55,53.682 z" fill-rule="evenodd" style="fill:#efefef;fill-opacity:0.5;stroke-width:0.643169" id="path702" /><path fill="#efefef" fill-opacity=".633" d="m 736.456,153.155 -19.39,39.205 h -6.563 l 25.953,-52.479 z m 6.719,7.856 -19.39,39.205 h -6.564 l 25.954,-52.478 z" fill-rule="evenodd" style="fill:#efefef;fill-opacity:0.5;stroke-width:0.628738" id="path703" /><path stroke="#1d1d1d" stroke-width="5.221" stroke-linejoin="round" d="m 281.614,98.431 c -2.754,0 -4.986,0.325 -4.986,0.725 v 2.897 c 0,0.192 0.525,0.377 1.46,0.513 0.935,0.135 2.204,0.212 3.526,0.212 h 457.643 c 2.755,0 4.987,-0.325 4.987,-0.725 v -2.897 c 0,-0.4 -2.232,-0.725 -4.987,-0.725 z" fill-rule="evenodd" style="fill:#4d4d4d;fill-opacity:1;stroke-width:5;stroke-dasharray:none;paint-order:stroke fill markers" id="path704" /><path fill="#efefef" fill-opacity=".633" d="m 573.241,154.68 -18.76,37.934 h -6.352 l 25.112,-50.776 z m 6.5,7.603 -18.76,37.934 h -6.352 l 25.113,-50.777 z" fill-rule="evenodd" style="fill:#efefef;fill-opacity:0.5;stroke-width:0.608347" id="path705" /><path stroke="#1d1d1d" stroke-width="5.221" stroke-linejoin="round" d="m 281.614,142.697 c -2.754,0 -4.986,0.325 -4.986,0.725 v 2.898 c 0,0.192 0.525,0.376 1.46,0.512 0.935,0.136 2.204,0.212 3.526,0.212 h 457.643 c 2.755,0 4.987,-0.324 4.987,-0.725 v -2.897 c 0,-0.4 -2.232,-0.725 -4.987,-0.725 z" fill-rule="evenodd" style="fill:#4d4d4d;fill-opacity:1;stroke-width:5;stroke-dasharray:none;paint-order:stroke fill markers" id="path706" /><path style="fill:#737373;fill-opacity:1;stroke:#333333;stroke-width:3;stroke-linecap:round;stroke-linejoin:round;stroke-dasharray:none;stroke-opacity:1;stop-color:#000000" d="M 278.907,42.261 V 202.165 H 533.484 L 511.238,42.261 H 338.953 Z m 13.017,14.627 h 40.26 V 189.64 h -40.26 z m 80.52,0 h 40.26 V 189.64 h -40.26 z m 80.52,0 h 40.26 V 189.64 h -40.26 z" id="path707" /><path style="fill:#737373;fill-opacity:1;stroke:#333333;stroke-width:3;stroke-linecap:round;stroke-linejoin:round;stroke-dasharray:none;stroke-opacity:1;stop-color:#000000" d="m 516.644,42.261 2.842,159.904 H 748.975 V 42.261 H 576.69 Z m 16.84,14.627 h 40.26 V 189.64 h -40.26 z m 80.52,0 h 40.26 V 189.64 h -40.26 z m 80.52,0 h 40.26 V 189.64 h -40.26 z" id="path708" /><path style="fill:#4d4d4d;fill-opacity:1;stroke:#1d1d1d;stroke-width:2.9826;stroke-linecap:square;stroke-linejoin:round;stroke-dasharray:none;stroke-opacity:1;stop-color:#000000" d="M 269.96,27.953 V 219.637 H 757.086 V 20.317 27.953 H 508.688 Z m 7.967,16.06 h 67.255 v 158.3 h -67.255 z m 80.52,0 h 67.255 v 158.3 h -67.255 z m 80.52,0 h 67.254 v 158.3 h -67.255 z m 80.52,0 h 67.255 v 158.3 h -67.255 z m 80.52,0 h 67.254 v 158.3 h -67.254 z m 80.52,0 h 67.254 v 158.3 h -67.254 z" id="path709" /><path style="fill:none;fill-opacity:1;stroke:#421010;stroke-width:9.99817;stroke-linecap:round;stroke-dasharray:none;stroke-opacity:1;stop-color:#000000" d="M 286.141,-400.503 74.345,-12.283 H 5.085 V 357.392 H 263.802 V 21.795 h 489.745 v -422.298 z" id="path712" /><path style="fill:#606176;fill-opacity:1;stroke:#505062;stroke-width:2.43256;stroke-linecap:round;stroke-linejoin:miter;stroke-dasharray:none;stroke-opacity:1;stop-color:#000000" d="m 80.431,-245.478 -0.11,1.391 v 217.884 c 0,0.77 -0.976,1.39 -0.206,1.39 h 0.209 v 6.894 c 0,0.048 0.62,0 1.39,0 h 188.154 v 32.144 c 0,4.362 0.62,1.39 1.39,1.39 h 476.419 c 0.024,0 0,4.207 0,-3.734 v -132.862 c 0,-3.202 -0.054,-10.6 -0.054,-10.6 H 402.49 l -0.078,9.443 H 265.265 c -0.264,0 -0.508,-0.157 -0.718,-0.03 h -68.555 v -121.919 c 0,-0.77 0.132,-1.39 -1.39,-1.39 z" id="path719" /><g id="g1023" style="opacity:1" clip-path="url(#clipPath1023)" transform="translate(-5.9717274)"><path style="opacity:1;fill:#a98256;fill-opacity:1;stroke:#654e34;stroke-width:1.24975;stroke-linecap:square;stroke-dasharray:none;stroke-opacity:1" d="M -9.4438815,39.963615 H 7.5297537 V 100.07838 H -9.4438815 Z m 0,60.259605 H 7.5297537 v 60.11477 H -9.4438815 Z" id="path682" /><path style="opacity:1;fill:#9c774f;fill-opacity:1;stroke:#654e34;stroke-width:1.24975;stroke-linecap:square;stroke-dasharray:none;stroke-opacity:1" d="M -9.4438815,-80.732671 H 7.5297537 v 60.114768 H -9.4438815 Z" id="path683" /><path style="opacity:1;fill:#a98256;fill-opacity:1;stroke:#654e34;stroke-width:1.24975;stroke-linecap:square;stroke-dasharray:none;stroke-opacity:1" d="M -9.4438815,-20.328906 H 7.5297537 V 39.785862 H -9.4438815 Z" id="path684" /><g style="opacity:1;fill:#a98256;fill-opacity:1;stroke:#654e34;stroke-width:7.40346;stroke-dasharray:none;stroke-opacity:1" id="g714" transform="matrix(0.24995,0,0,0.24995,-264.67248,-317.62819)"><g style="fill:#a98256;fill-opacity:1;stroke:#654e34;stroke-width:7.40346;stroke-dasharray:none;stroke-opacity:1" id="g711"><path style="fill:#9c774f;fill-opacity:1;stroke:#654e34;stroke-width:7.40346;stroke-linecap:square;stroke-dasharray:none;stroke-opacity:1" d="m 1019.787,3527.605 h 100.551 v 356.117 h -100.551 z m 0,356.976 h 100.551 v 356.117 h -100.551 z m 0,-1043.194 h 100.551 v 356.117 h -100.551 z" transform="matrix(0.67536,0,0,0.67536,536.12,-840.6)" id="path710" /><path style="fill:#a98256;fill-opacity:1;stroke:#654e34;stroke-width:7.40346;stroke-linecap:square;stroke-dasharray:none;stroke-opacity:1" d="m 1019.787,3196.938 h 100.551 v 356.117 h -100.551 z" transform="matrix(0.67536,0,0,0.67536,536.12,-840.6)" id="path711" /></g><g style="fill:#a98256;fill-opacity:1;stroke:#654e34;stroke-width:7.40346;stroke-dasharray:none;stroke-opacity:1" id="g713"><path style="fill:#a98256;fill-opacity:1;stroke:#654e34;stroke-width:7.40346;stroke-linecap:square;stroke-dasharray:none;stroke-opacity:1" d="m 1124.573,3363.081 h 100.551 v 356.117 h -100.551 z m 0,356.975 h 100.551 v 356.117 h -100.551 z m 0,-1071.974 h 100.551 v 356.117 h -100.551 z m 0,357.829 h 100.551 v 356.117 h -100.551 z" transform="matrix(0.67536,0,0,0.67536,533.26,-840.637)" id="path713" /></g></g><g style="opacity:1;fill:#a98256;fill-opacity:1;stroke:#654e34;stroke-width:7.40346;stroke-dasharray:none;stroke-opacity:1" id="g718" transform="matrix(0.24995,0,0,0.24995,-264.67248,-317.62819)"><g style="fill:#a98256;fill-opacity:1;stroke:#654e34;stroke-width:7.40346;stroke-dasharray:none;stroke-opacity:1" id="g715"><path style="fill:#a98256;fill-opacity:1;stroke:#654e34;stroke-width:7.40346;stroke-linecap:square;stroke-dasharray:none;stroke-opacity:1" d="m 1019.787,3527.605 h 100.551 v 356.117 h -100.551 z m 0,356.976 h 100.551 v 356.117 h -100.551 z m 0,-1043.194 h 100.551 v 356.117 h -100.551 z" transform="matrix(0.67536,0,0,0.67536,400.304,-840.6)" id="path714" /><path style="fill:#a98256;fill-opacity:1;stroke:#654e34;stroke-width:7.40346;stroke-linecap:square;stroke-dasharray:none;stroke-opacity:1" d="m 1019.787,3196.938 h 100.551 v 356.117 h -100.551 z" transform="matrix(0.67536,0,0,0.67536,400.304,-840.6)" id="path715" /></g><g style="fill:#a98256;fill-opacity:1;stroke:#654e34;stroke-width:7.40346;stroke-dasharray:none;stroke-opacity:1" id="g717"><path style="fill:#a98256;fill-opacity:1;stroke:#654e34;stroke-width:7.40346;stroke-linecap:square;stroke-dasharray:none;stroke-opacity:1" d="m 1124.573,3363.081 h 100.551 v 356.117 h -100.551 z" transform="matrix(0.67536,0,0,0.67536,397.443,-840.637)" id="path716" /><path style="fill:#9c774f;fill-opacity:1;stroke:#654e34;stroke-width:7.40346;stroke-linecap:square;stroke-dasharray:none;stroke-opacity:1" d="m 1124.573,3720.056 h 100.551 v 356.117 h -100.551 z m 0,-1071.974 h 100.551 v 356.117 h -100.551 z m 0,357.829 h 100.551 v 356.117 h -100.551 z" transform="matrix(0.67536,0,0,0.67536,397.443,-840.637)" id="path717" /></g></g><g style="opacity:1;fill:#a98256;fill-opacity:1;stroke:#654e34;stroke-width:7.40346;stroke-dasharray:none;stroke-opacity:1" id="g724" transform="matrix(0.24995,0,0,0.24995,-264.67248,-317.62819)"><g style="fill:#a98256;fill-opacity:1;stroke:#654e34;stroke-width:7.40346;stroke-dasharray:none;stroke-opacity:1" id="g721"><path style="fill:#9c774f;fill-opacity:1;stroke:#654e34;stroke-width:7.40346;stroke-linecap:square;stroke-dasharray:none;stroke-opacity:1" d="m 1019.787,3527.605 h 100.551 v 356.117 h -100.551 z m 0,356.976 h 100.551 v 356.117 h -100.551 z m 0,-1043.194 h 100.551 v 356.117 h -100.551 z" transform="matrix(0.67536,0,0,0.67536,807.752,-840.6)" id="path720" /><path style="fill:#a98256;fill-opacity:1;stroke:#654e34;stroke-width:7.40346;stroke-linecap:square;stroke-dasharray:none;stroke-opacity:1" d="m 1019.787,3196.938 h 100.551 v 356.117 h -100.551 z" transform="matrix(0.67536,0,0,0.67536,807.752,-840.6)" id="path721" /></g><g style="fill:#a98256;fill-opacity:1;stroke:#654e34;stroke-width:7.40346;stroke-dasharray:none;stroke-opacity:1" id="g723"><path style="fill:#a98256;fill-opacity:1;stroke:#654e34;stroke-width:7.40346;stroke-linecap:square;stroke-dasharray:none;stroke-opacity:1" d="m 1124.573,3363.081 h 100.551 v 356.117 h -100.551 z m 0,356.975 h 100.551 v 356.117 h -100.551 z" transform="matrix(0.67536,0,0,0.67536,804.891,-840.637)" id="path722" /><path style="fill:#a98256;fill-opacity:1;stroke:#654e34;stroke-width:7.40346;stroke-linecap:square;stroke-dasharray:none;stroke-opacity:1" d="m 1124.573,2648.082 h 100.551 v 356.117 h -100.551 z m 0,357.829 h 100.551 v 356.117 h -100.551 z" transform="matrix(0.67536,0,0,0.67536,804.891,-840.637)" id="path723" /></g></g><g style="opacity:1;fill:#a98256;fill-opacity:1;stroke:#654e34;stroke-width:7.40346;stroke-dasharray:none;stroke-opacity:1" id="g734" transform="matrix(0.24995,0,0,0.24995,-264.67248,-317.62819)"><g style="fill:#a98256;fill-opacity:1;stroke:#654e34;stroke-width:7.40346;stroke-dasharray:none;stroke-opacity:1" id="g726"><path style="fill:#a98256;fill-opacity:1;stroke:#654e34;stroke-width:7.40346;stroke-linecap:square;stroke-dasharray:none;stroke-opacity:1" d="m 1019.787,3527.605 h 100.551 v 356.117 h -100.551 z m 0,356.976 h 100.551 v 356.117 h -100.551 z" transform="matrix(0.67536,0,0,0.67536,671.936,-840.6)" id="path724" /><path style="fill:#a98256;fill-opacity:1;stroke:#654e34;stroke-width:7.40346;stroke-linecap:square;stroke-dasharray:none;stroke-opacity:1" d="m 1019.787,2841.387 h 100.551 v 356.117 h -100.551 z" transform="matrix(0.67536,0,0,0.67536,671.936,-840.6)" id="path725" /><path style="fill:#9c774f;fill-opacity:1;stroke:#654e34;stroke-width:7.40346;stroke-linecap:square;stroke-dasharray:none;stroke-opacity:1" d="m 1019.787,3196.938 h 100.551 v 356.117 h -100.551 z" transform="matrix(0.67536,0,0,0.67536,671.936,-840.6)" id="path726" /></g><g style="fill:#a98256;fill-opacity:1;stroke:#654e34;stroke-width:7.40346;stroke-dasharray:none;stroke-opacity:1" id="g733"><path style="fill:#a98256;fill-opacity:1;stroke:#654e34;stroke-width:7.40346;stroke-linecap:square;stroke-dasharray:none;stroke-opacity:1" d="m 1124.573,3363.081 h 100.551 v 356.117 h -100.551 z" transform="matrix(0.67536,0,0,0.67536,669.075,-840.637)" id="path728" /><path style="fill:#9c774f;fill-opacity:1;stroke:#654e34;stroke-width:7.40346;stroke-linecap:square;stroke-dasharray:none;stroke-opacity:1" d="m 1124.573,3720.056 h 100.551 v 356.117 h -100.551 z" transform="matrix(0.67536,0,0,0.67536,669.075,-840.637)" id="path731" /><path style="fill:#9c774f;fill-opacity:1;stroke:#654e34;stroke-width:7.40346;stroke-linecap:square;stroke-dasharray:none;stroke-opacity:1" d="m 1124.573,2648.082 h 100.551 v 356.117 h -100.551 z m 0,357.829 h 100.551 v 356.117 h -100.551 z" transform="matrix(0.67536,0,0,0.67536,669.075,-840.637)" id="path733" /></g></g><g style="opacity:1;fill:#a98256;fill-opacity:1;stroke:#654e34;stroke-width:7.40346;stroke-dasharray:none;stroke-opacity:1" id="g742" transform="matrix(0.24995,0,0,0.24995,-264.67248,-317.62819)"><g style="fill:#a98256;fill-opacity:1;stroke:#654e34;stroke-width:7.40346;stroke-dasharray:none;stroke-opacity:1" id="g738"><path style="fill:#a98256;fill-opacity:1;stroke:#654e34;stroke-width:7.40346;stroke-linecap:square;stroke-dasharray:none;stroke-opacity:1" d="m 1019.787,3527.605 h 100.551 v 356.117 h -100.551 z" transform="matrix(0.67536,0,0,0.67536,1079.384,-840.6)" id="path736" /><path style="fill:#a98256;fill-opacity:1;stroke:#654e34;stroke-width:7.40346;stroke-linecap:square;stroke-dasharray:none;stroke-opacity:1" d="m 1019.787,3884.581 h 100.551 v 356.117 h -100.551 z m 0,-1043.194 h 100.551 v 356.117 h -100.551 z" transform="matrix(0.67536,0,0,0.67536,1079.384,-840.6)" id="path737" /><path style="fill:#a98256;fill-opacity:1;stroke:#654e34;stroke-width:7.40346;stroke-linecap:square;stroke-dasharray:none;stroke-opacity:1" d="m 1019.787,3196.938 h 100.551 v 356.117 h -100.551 z" transform="matrix(0.67536,0,0,0.67536,1079.384,-840.6)" id="path738" /></g><g style="fill:#a98256;fill-opacity:1;stroke:#654e34;stroke-width:7.40346;stroke-dasharray:none;stroke-opacity:1" id="g741"><path style="fill:#a98256;fill-opacity:1;stroke:#654e34;stroke-width:7.40346;stroke-linecap:square;stroke-dasharray:none;stroke-opacity:1" d="m 1124.573,3363.081 h 100.551 v 356.117 h -100.551 z" transform="matrix(0.67536,0,0,0.67536,1076.523,-840.637)" id="path739" /><path style="fill:#9c774f;fill-opacity:1;stroke:#654e34;stroke-width:7.40346;stroke-linecap:square;stroke-dasharray:none;stroke-opacity:1" d="m 1124.573,3720.056 h 100.551 v 356.117 h -100.551 z" transform="matrix(0.67536,0,0,0.67536,1076.523,-840.637)" id="path740" /><path style="fill:#a98256;fill-opacity:1;stroke:#654e34;stroke-width:7.40346;stroke-linecap:square;stroke-dasharray:none;stroke-opacity:1" d="m 1124.573,2648.082 h 100.551 v 356.117 h -100.551 z m 0,357.829 h 100.551 v 356.117 h -100.551 z" transform="matrix(0.67536,0,0,0.67536,1076.523,-840.637)" id="path741" /></g></g><g style="opacity:1;fill:#a98256;fill-opacity:1;stroke:#654e34;stroke-width:7.40346;stroke-dasharray:none;stroke-opacity:1" id="g745" transform="matrix(0.24995,0,0,0.24995,-264.67248,-317.62819)"><g style="fill:#a98256;fill-opacity:1;stroke:#654e34;stroke-width:7.40346;stroke-dasharray:none;stroke-opacity:1" id="g743"><path style="fill:#a98256;fill-opacity:1;stroke:#654e34;stroke-width:7.40346;stroke-linecap:square;stroke-dasharray:none;stroke-opacity:1" d="m 1019.787,3527.605 h 100.551 v 356.117 h -100.551 z m 0,356.976 h 100.551 v 356.117 h -100.551 z m 0,-1043.194 h 100.551 v 356.117 h -100.551 z" transform="matrix(0.67536,0,0,0.67536,943.568,-840.6)" id="path742" /><path style="fill:#9c774f;fill-opacity:1;stroke:#654e34;stroke-width:7.40346;stroke-linecap:square;stroke-dasharray:none;stroke-opacity:1" d="m 1019.787,3196.938 h 100.551 v 356.117 h -100.551 z" transform="matrix(0.67536,0,0,0.67536,943.568,-840.6)" id="path743" /></g><g style="fill:#a98256;fill-opacity:1;stroke:#654e34;stroke-width:7.40346;stroke-dasharray:none;stroke-opacity:1" id="g744"><path style="fill:#9c774f;fill-opacity:1;stroke:#654e34;stroke-width:7.40346;stroke-linecap:square;stroke-dasharray:none;stroke-opacity:1" d="m 1124.573,3363.081 h 100.551 v 356.117 h -100.551 z m 0,356.975 h 100.551 v 356.117 h -100.551 z m 0,-1071.974 h 100.551 v 356.117 h -100.551 z m 0,357.829 h 100.551 v 356.117 h -100.551 z" transform="matrix(0.67536,0,0,0.67536,940.707,-840.637)" id="path744" /></g></g><g style="opacity:1;fill:#a98256;fill-opacity:1;stroke:#654e34;stroke-width:7.40346;stroke-dasharray:none;stroke-opacity:1" id="g760" transform="matrix(0.24995,0,0,0.24995,-264.67248,-317.62819)"><g style="fill:#a98256;fill-opacity:1;stroke:#654e34;stroke-width:7.40346;stroke-dasharray:none;stroke-opacity:1" id="g747"><path style="fill:#9c774f;fill-opacity:1;stroke:#654e34;stroke-width:7.40346;stroke-linecap:square;stroke-dasharray:none;stroke-opacity:1" d="m 1019.787,3527.605 h 100.551 v 356.117 h -100.551 z m 0,356.976 h 100.551 v 356.117 h -100.551 z m 0,-1043.194 h 100.551 v 356.117 h -100.551 z" transform="matrix(0.67536,0,0,0.67536,1351.015,-840.6)" id="path746" /><path style="fill:#a98256;fill-opacity:1;stroke:#654e34;stroke-width:7.40346;stroke-linecap:square;stroke-dasharray:none;stroke-opacity:1" d="m 1019.787,3196.938 h 100.551 v 356.117 h -100.551 z" transform="matrix(0.67536,0,0,0.67536,1351.015,-840.6)" id="path747" /></g><g style="fill:#a98256;fill-opacity:1;stroke:#654e34;stroke-width:7.40346;stroke-dasharray:none;stroke-opacity:1" id="g759"><path style="fill:#a98256;fill-opacity:1;stroke:#654e34;stroke-width:7.40346;stroke-linecap:square;stroke-dasharray:none;stroke-opacity:1" d="m 1124.573,3363.081 h 100.551 v 356.117 h -100.551 z" transform="matrix(0.67536,0,0,0.67536,1348.155,-840.637)" id="path748" /><path style="fill:#9c774f;fill-opacity:1;stroke:#654e34;stroke-width:7.40346;stroke-linecap:square;stroke-dasharray:none;stroke-opacity:1" d="m 1124.573,3720.056 h 100.551 v 356.117 h -100.551 z" transform="matrix(0.67536,0,0,0.67536,1348.155,-840.637)" id="path756" /><path style="fill:#a98256;fill-opacity:1;stroke:#654e34;stroke-width:7.40346;stroke-linecap:square;stroke-dasharray:none;stroke-opacity:1" d="m 1124.573,2648.082 h 100.551 v 356.117 h -100.551 z m 0,357.829 h 100.551 v 356.117 h -100.551 z" transform="matrix(0.67536,0,0,0.67536,1348.155,-840.637)" id="path759" /></g></g><g style="opacity:1;fill:#a98256;fill-opacity:1;stroke:#654e34;stroke-width:7.40346;stroke-dasharray:none;stroke-opacity:1" id="g764" transform="matrix(0.24995,0,0,0.24995,-264.67248,-317.62819)"><g style="fill:#a98256;fill-opacity:1;stroke:#654e34;stroke-width:7.40346;stroke-dasharray:none;stroke-opacity:1" id="g761"><path style="fill:#a98256;fill-opacity:1;stroke:#654e34;stroke-width:7.40346;stroke-linecap:square;stroke-dasharray:none;stroke-opacity:1" d="m 1019.787,3527.605 h 100.551 v 356.117 h -100.551 z m 0,356.976 h 100.551 v 356.117 h -100.551 z m 0,-1043.194 h 100.551 v 356.117 h -100.551 z" transform="matrix(0.67536,0,0,0.67536,1215.2,-840.6)" id="path760" /><path style="fill:#9c774f;fill-opacity:1;stroke:#654e34;stroke-width:7.40346;stroke-linecap:square;stroke-dasharray:none;stroke-opacity:1" d="m 1019.787,3196.938 h 100.551 v 356.117 h -100.551 z" transform="matrix(0.67536,0,0,0.67536,1215.2,-840.6)" id="path761" /></g><g style="fill:#a98256;fill-opacity:1;stroke:#654e34;stroke-width:7.40346;stroke-dasharray:none;stroke-opacity:1" id="g763"><path style="fill:#a98256;fill-opacity:1;stroke:#654e34;stroke-width:7.40346;stroke-linecap:square;stroke-dasharray:none;stroke-opacity:1" d="m 1124.573,3363.081 h 100.551 v 356.117 h -100.551 z m 0,356.975 h 100.551 v 356.117 h -100.551 z" transform="matrix(0.67536,0,0,0.67536,1212.339,-840.637)" id="path762" /><path style="fill:#a98256;fill-opacity:1;stroke:#654e34;stroke-width:7.40346;stroke-linecap:square;stroke-dasharray:none;stroke-opacity:1" d="m 1124.573,2648.082 h 100.551 v 356.117 h -100.551 z m 0,357.829 h 100.551 v 356.117 h -100.551 z" transform="matrix(0.67536,0,0,0.67536,1212.339,-840.637)" id="path763" /></g></g><path style="opacity:1;fill:#a98256;fill-opacity:1;stroke:#654e34;stroke-width:1.24975;stroke-linecap:square;stroke-dasharray:none;stroke-opacity:1" d="M -9.4438815,276.10062 H 7.5297537 v 60.11477 H -9.4438815 Z m 0,60.25961 H 7.5297537 V 396.475 H -9.4438815 Z m 0,-180.95589 H 7.5297537 v 60.11477 H -9.4438815 Z m 0,60.40376 H 7.5297537 v 60.11477 H -9.4438815 Z" id="path899" /><g style="opacity:1;fill:#a98256;fill-opacity:1;stroke:#654e34;stroke-width:7.40346;stroke-dasharray:none;stroke-opacity:1" id="g911" transform="matrix(0.24995,0,0,0.24995,-264.67248,-317.62819)"><g style="fill:#a98256;fill-opacity:1;stroke:#654e34;stroke-width:7.40346;stroke-dasharray:none;stroke-opacity:1" id="g908"><path style="fill:#a98256;fill-opacity:1;stroke:#654e34;stroke-width:7.40346;stroke-linecap:square;stroke-dasharray:none;stroke-opacity:1" d="m 1019.787,3527.605 h 100.551 v 356.117 h -100.551 z m 0,356.976 h 100.551 v 356.117 h -100.551 z m 0,-1043.194 h 100.551 v 356.117 h -100.551 z" transform="matrix(0.67536,0,0,0.67536,536.12,104.137)" id="path907" /><path style="fill:#9c774f;fill-opacity:1;stroke:#654e34;stroke-width:7.40346;stroke-linecap:square;stroke-dasharray:none;stroke-opacity:1" d="m 1019.787,3196.938 h 100.551 v 356.117 h -100.551 z" transform="matrix(0.67536,0,0,0.67536,536.12,104.137)" id="path908" /></g><g style="fill:#a98256;fill-opacity:1;stroke:#654e34;stroke-width:7.40346;stroke-dasharray:none;stroke-opacity:1" id="g910"><path style="fill:#a98256;fill-opacity:1;stroke:#654e34;stroke-width:7.40346;stroke-linecap:square;stroke-dasharray:none;stroke-opacity:1" d="m 1124.573,3363.081 h 100.551 v 356.117 h -100.551 z m 0,356.975 h 100.551 v 356.117 h -100.551 z m 0,-1071.974 h 100.551 v 356.117 h -100.551 z" transform="matrix(0.67536,0,0,0.67536,533.26,104.1)" id="path909" /><path style="fill:#9c774f;fill-opacity:1;stroke:#654e34;stroke-width:7.40346;stroke-linecap:square;stroke-dasharray:none;stroke-opacity:1" d="m 1124.573,3005.911 h 100.551 v 356.117 h -100.551 z" transform="matrix(0.67536,0,0,0.67536,533.26,104.1)" id="path910" /></g></g><g style="opacity:1;fill:#a98256;fill-opacity:1;stroke:#654e34;stroke-width:7.40346;stroke-dasharray:none;stroke-opacity:1" id="g916" transform="matrix(0.24995,0,0,0.24995,-264.67248,-317.62819)"><g style="fill:#a98256;fill-opacity:1;stroke:#654e34;stroke-width:7.40346;stroke-dasharray:none;stroke-opacity:1" id="g913"><path style="fill:#a98256;fill-opacity:1;stroke:#654e34;stroke-width:7.40346;stroke-linecap:square;stroke-dasharray:none;stroke-opacity:1" d="m 1019.787,3527.605 h 100.551 v 356.117 h -100.551 z m 0,356.976 h 100.551 v 356.117 h -100.551 z" transform="matrix(0.67536,0,0,0.67536,400.304,104.137)" id="path911" /><path style="fill:#9c774f;fill-opacity:1;stroke:#654e34;stroke-width:7.40346;stroke-linecap:square;stroke-dasharray:none;stroke-opacity:1" d="m 1019.787,2841.387 h 100.551 v 356.117 h -100.551 z" transform="matrix(0.67536,0,0,0.67536,400.304,104.137)" id="path912" /><path style="fill:#a98256;fill-opacity:1;stroke:#654e34;stroke-width:7.40346;stroke-linecap:square;stroke-dasharray:none;stroke-opacity:1" d="m 1019.787,3196.938 h 100.551 v 356.117 h -100.551 z" transform="matrix(0.67536,0,0,0.67536,400.304,104.137)" id="path913" /></g><g style="fill:#a98256;fill-opacity:1;stroke:#654e34;stroke-width:7.40346;stroke-dasharray:none;stroke-opacity:1" id="g915"><path style="fill:#a98256;fill-opacity:1;stroke:#654e34;stroke-width:7.40346;stroke-linecap:square;stroke-dasharray:none;stroke-opacity:1" d="m 1124.573,3363.081 h 100.551 v 356.117 h -100.551 z m 0,356.975 h 100.551 v 356.117 h -100.551 z m 0,-1071.974 h 100.551 v 356.117 h -100.551 z" transform="matrix(0.67536,0,0,0.67536,397.443,104.1)" id="path914" /><path style="fill:#9c774f;fill-opacity:1;stroke:#654e34;stroke-width:7.40346;stroke-linecap:square;stroke-dasharray:none;stroke-opacity:1" d="m 1124.573,3005.911 h 100.551 v 356.117 h -100.551 z" transform="matrix(0.67536,0,0,0.67536,397.443,104.1)" id="path915" /></g></g><g style="opacity:1;fill:#a98256;fill-opacity:1;stroke:#654e34;stroke-width:7.40346;stroke-dasharray:none;stroke-opacity:1" id="g922" transform="matrix(0.24995,0,0,0.24995,-264.67248,-317.62819)"><g style="fill:#a98256;fill-opacity:1;stroke:#654e34;stroke-width:7.40346;stroke-dasharray:none;stroke-opacity:1" id="g918"><path style="fill:#a98256;fill-opacity:1;stroke:#654e34;stroke-width:7.40346;stroke-linecap:square;stroke-dasharray:none;stroke-opacity:1" d="m 1019.787,3527.605 h 100.551 v 356.117 h -100.551 z m 0,356.976 h 100.551 v 356.117 h -100.551 z m 0,-1043.194 h 100.551 v 356.117 h -100.551 z" transform="matrix(0.67536,0,0,0.67536,807.752,104.137)" id="path917" /><path style="fill:#9c774f;fill-opacity:1;stroke:#654e34;stroke-width:7.40346;stroke-linecap:square;stroke-dasharray:none;stroke-opacity:1" d="m 1019.787,3196.938 h 100.551 v 356.117 h -100.551 z" transform="matrix(0.67536,0,0,0.67536,807.752,104.137)" id="path918" /></g><g style="fill:#a98256;fill-opacity:1;stroke:#654e34;stroke-width:7.40346;stroke-dasharray:none;stroke-opacity:1" id="g921"><path style="fill:#a98256;fill-opacity:1;stroke:#654e34;stroke-width:7.40346;stroke-linecap:square;stroke-dasharray:none;stroke-opacity:1" d="m 1124.573,3363.081 h 100.551 v 356.117 h -100.551 z m 0,356.975 h 100.551 v 356.117 h -100.551 z" transform="matrix(0.67536,0,0,0.67536,804.891,104.1)" id="path919" /><path style="fill:#9c774f;fill-opacity:1;stroke:#654e34;stroke-width:7.40346;stroke-linecap:square;stroke-dasharray:none;stroke-opacity:1" d="m 1124.573,2648.082 h 100.551 v 356.117 h -100.551 z" transform="matrix(0.67536,0,0,0.67536,804.891,104.1)" id="path920" /><path style="fill:#a98256;fill-opacity:1;stroke:#654e34;stroke-width:7.40346;stroke-linecap:square;stroke-dasharray:none;stroke-opacity:1" d="m 1124.573,3005.911 h 100.551 v 356.117 h -100.551 z" transform="matrix(0.67536,0,0,0.67536,804.891,104.1)" id="path921" /></g></g><g style="opacity:1;fill:#a98256;fill-opacity:1;stroke:#654e34;stroke-width:7.40346;stroke-dasharray:none;stroke-opacity:1" id="g928" transform="matrix(0.24995,0,0,0.24995,-264.67248,-317.62819)"><g style="fill:#a98256;fill-opacity:1;stroke:#654e34;stroke-width:7.40346;stroke-dasharray:none;stroke-opacity:1" id="g923"><path style="fill:#a98256;fill-opacity:1;stroke:#654e34;stroke-width:7.40346;stroke-linecap:square;stroke-dasharray:none;stroke-opacity:1" d="m 1019.787,3527.605 h 100.551 v 356.117 h -100.551 z m 0,356.976 h 100.551 v 356.117 h -100.551 z m 0,-1043.194 h 100.551 v 356.117 h -100.551 z" transform="matrix(0.67536,0,0,0.67536,671.936,104.137)" id="path922" /><path style="fill:#a98256;fill-opacity:1;stroke:#654e34;stroke-width:7.40346;stroke-linecap:square;stroke-dasharray:none;stroke-opacity:1" d="m 1019.787,3196.938 h 100.551 v 356.117 h -100.551 z" transform="matrix(0.67536,0,0,0.67536,671.936,104.137)" id="path923" /></g><g style="fill:#a98256;fill-opacity:1;stroke:#654e34;stroke-width:7.40346;stroke-dasharray:none;stroke-opacity:1" id="g927"><path style="fill:#9c774f;fill-opacity:1;stroke:#654e34;stroke-width:7.40346;stroke-linecap:square;stroke-dasharray:none;stroke-opacity:1" d="m 1124.573,3363.081 h 100.551 v 356.117 h -100.551 z" transform="matrix(0.67536,0,0,0.67536,669.075,104.1)" id="path924" /><path style="fill:#a98256;fill-opacity:1;stroke:#654e34;stroke-width:7.40346;stroke-linecap:square;stroke-dasharray:none;stroke-opacity:1" d="m 1124.573,3720.056 h 100.551 v 356.117 h -100.551 z" transform="matrix(0.67536,0,0,0.67536,669.075,104.1)" id="path925" /><path style="fill:#9c774f;fill-opacity:1;stroke:#654e34;stroke-width:7.40346;stroke-linecap:square;stroke-dasharray:none;stroke-opacity:1" d="m 1124.573,2648.082 h 100.551 v 356.117 h -100.551 z" transform="matrix(0.67536,0,0,0.67536,669.075,104.1)" id="path926" /><path style="fill:#a98256;fill-opacity:1;stroke:#654e34;stroke-width:7.40346;stroke-linecap:square;stroke-dasharray:none;stroke-opacity:1" d="m 1124.573,3005.911 h 100.551 v 356.117 h -100.551 z" transform="matrix(0.67536,0,0,0.67536,669.075,104.1)" id="path927" /></g></g><g style="opacity:1;fill:#a98256;fill-opacity:1;stroke:#654e34;stroke-width:7.40346;stroke-dasharray:none;stroke-opacity:1" id="g933" transform="matrix(0.24995,0,0,0.24995,-264.67248,-317.62819)"><g style="fill:#a98256;fill-opacity:1;stroke:#654e34;stroke-width:7.40346;stroke-dasharray:none;stroke-opacity:1" id="g931"><path style="fill:#a98256;fill-opacity:1;stroke:#654e34;stroke-width:7.40346;stroke-linecap:square;stroke-dasharray:none;stroke-opacity:1" d="m 1019.787,3527.605 h 100.551 v 356.117 h -100.551 z m 0,356.976 h 100.551 v 356.117 h -100.551 z m 0,-1043.194 h 100.551 v 356.117 h -100.551 z" transform="matrix(0.67536,0,0,0.67536,1079.384,104.137)" id="path930" /><path style="fill:#9c774f;fill-opacity:1;stroke:#654e34;stroke-width:7.40346;stroke-linecap:square;stroke-dasharray:none;stroke-opacity:1" d="m 1019.787,3196.938 h 100.551 v 356.117 h -100.551 z" transform="matrix(0.67536,0,0,0.67536,1079.384,104.137)" id="path931" /></g><g style="fill:#a98256;fill-opacity:1;stroke:#654e34;stroke-width:7.40346;stroke-dasharray:none;stroke-opacity:1" id="g932"><path style="fill:#a98256;fill-opacity:1;stroke:#654e34;stroke-width:7.40346;stroke-linecap:square;stroke-dasharray:none;stroke-opacity:1" d="m 1124.573,3363.081 h 100.551 v 356.117 h -100.551 z m 0,356.975 h 100.551 v 356.117 h -100.551 z m 0,-1071.974 h 100.551 v 356.117 h -100.551 z m 0,357.829 h 100.551 v 356.117 h -100.551 z" transform="matrix(0.67536,0,0,0.67536,1076.523,104.1)" id="path932" /></g></g><g style="opacity:1;fill:#a98256;fill-opacity:1;stroke:#654e34;stroke-width:7.40346;stroke-dasharray:none;stroke-opacity:1" id="g937" transform="matrix(0.24995,0,0,0.24995,-264.67248,-317.62819)"><g style="fill:#a98256;fill-opacity:1;stroke:#654e34;stroke-width:7.40346;stroke-dasharray:none;stroke-opacity:1" id="g934"><path style="fill:#a98256;fill-opacity:1;stroke:#654e34;stroke-width:7.40346;stroke-linecap:square;stroke-dasharray:none;stroke-opacity:1" d="m 1019.787,3527.605 h 100.551 v 356.117 h -100.551 z m 0,356.976 h 100.551 v 356.117 h -100.551 z m 0,-1043.194 h 100.551 v 356.117 h -100.551 z" transform="matrix(0.67536,0,0,0.67536,943.568,104.137)" id="path933" /><path style="fill:#a98256;fill-opacity:1;stroke:#654e34;stroke-width:7.40346;stroke-linecap:square;stroke-dasharray:none;stroke-opacity:1" d="m 1019.787,3196.938 h 100.551 v 356.117 h -100.551 z" transform="matrix(0.67536,0,0,0.67536,943.568,104.137)" id="path934" /></g><g style="fill:#a98256;fill-opacity:1;stroke:#654e34;stroke-width:7.40346;stroke-dasharray:none;stroke-opacity:1" id="g936"><path style="fill:#a98256;fill-opacity:1;stroke:#654e34;stroke-width:7.40346;stroke-linecap:square;stroke-dasharray:none;stroke-opacity:1" d="m 1124.573,3363.081 h 100.551 v 356.117 h -100.551 z m 0,356.975 h 100.551 v 356.117 h -100.551 z m 0,-1071.974 h 100.551 v 356.117 h -100.551 z" transform="matrix(0.67536,0,0,0.67536,940.707,104.1)" id="path935" /><path style="fill:#9c774f;fill-opacity:1;stroke:#654e34;stroke-width:7.40346;stroke-linecap:square;stroke-dasharray:none;stroke-opacity:1" d="m 1124.573,3005.911 h 100.551 v 356.117 h -100.551 z" transform="matrix(0.67536,0,0,0.67536,940.707,104.1)" id="path936" /></g></g><g style="opacity:1;fill:#a98256;fill-opacity:1;stroke:#654e34;stroke-width:7.40346;stroke-dasharray:none;stroke-opacity:1" id="g943" transform="matrix(0.24995,0,0,0.24995,-264.67248,-317.62819)"><g style="fill:#a98256;fill-opacity:1;stroke:#654e34;stroke-width:7.40346;stroke-dasharray:none;stroke-opacity:1" id="g939"><path style="fill:#a98256;fill-opacity:1;stroke:#654e34;stroke-width:7.40346;stroke-linecap:square;stroke-dasharray:none;stroke-opacity:1" d="m 1019.787,3527.605 h 100.551 v 356.117 h -100.551 z m 0,356.976 h 100.551 v 356.117 h -100.551 z m 0,-1043.194 h 100.551 v 356.117 h -100.551 z" transform="matrix(0.67536,0,0,0.67536,1351.015,104.137)" id="path938" /><path style="fill:#9c774f;fill-opacity:1;stroke:#654e34;stroke-width:7.40346;stroke-linecap:square;stroke-dasharray:none;stroke-opacity:1" d="m 1019.787,3196.938 h 100.551 v 356.117 h -100.551 z" transform="matrix(0.67536,0,0,0.67536,1351.015,104.137)" id="path939" /></g><g style="fill:#a98256;fill-opacity:1;stroke:#654e34;stroke-width:7.40346;stroke-dasharray:none;stroke-opacity:1" id="g942"><path style="fill:#a98256;fill-opacity:1;stroke:#654e34;stroke-width:7.40346;stroke-linecap:square;stroke-dasharray:none;stroke-opacity:1" d="m 1124.573,3363.081 h 100.551 v 356.117 h -100.551 z m 0,356.975 h 100.551 v 356.117 h -100.551 z" transform="matrix(0.67536,0,0,0.67536,1348.155,104.1)" id="path940" /><path style="fill:#9c774f;fill-opacity:1;stroke:#654e34;stroke-width:7.40346;stroke-linecap:square;stroke-dasharray:none;stroke-opacity:1" d="m 1124.573,2648.082 h 100.551 v 356.117 h -100.551 z" transform="matrix(0.67536,0,0,0.67536,1348.155,104.1)" id="path941" /><path style="fill:#a98256;fill-opacity:1;stroke:#654e34;stroke-width:7.40346;stroke-linecap:square;stroke-dasharray:none;stroke-opacity:1" d="m 1124.573,3005.911 h 100.551 v 356.117 h -100.551 z" transform="matrix(0.67536,0,0,0.67536,1348.155,104.1)" id="path942" /></g></g><g style="opacity:1;fill:#a98256;fill-opacity:1;stroke:#654e34;stroke-width:7.40346;stroke-dasharray:none;stroke-opacity:1" id="g947" transform="matrix(0.24995,0,0,0.24995,-264.67248,-317.62819)"><g style="fill:#a98256;fill-opacity:1;stroke:#654e34;stroke-width:7.40346;stroke-dasharray:none;stroke-opacity:1" id="g945"><path style="fill:#a98256;fill-opacity:1;stroke:#654e34;stroke-width:7.40346;stroke-linecap:square;stroke-dasharray:none;stroke-opacity:1" d="m 1019.787,3527.605 h 100.551 v 356.117 h -100.551 z m 0,356.976 h 100.551 v 356.117 h -100.551 z" transform="matrix(0.67536,0,0,0.67536,1215.2,104.137)" id="path943" /><path style="fill:#9c774f;fill-opacity:1;stroke:#654e34;stroke-width:7.40346;stroke-linecap:square;stroke-dasharray:none;stroke-opacity:1" d="m 1019.787,2841.387 h 100.551 v 356.117 h -100.551 z" transform="matrix(0.67536,0,0,0.67536,1215.2,104.137)" id="path944" /><path style="fill:#a98256;fill-opacity:1;stroke:#654e34;stroke-width:7.40346;stroke-linecap:square;stroke-dasharray:none;stroke-opacity:1" d="m 1019.787,3196.938 h 100.551 v 356.117 h -100.551 z" transform="matrix(0.67536,0,0,0.67536,1215.2,104.137)" id="path945" /></g><g style="fill:#a98256;fill-opacity:1;stroke:#654e34;stroke-width:7.40346;stroke-dasharray:none;stroke-opacity:1" id="g946"><path style="fill:#a98256;fill-opacity:1;stroke:#654e34;stroke-width:7.40346;stroke-linecap:square;stroke-dasharray:none;stroke-opacity:1" d="m 1124.573,3363.081 h 100.551 v 356.117 h -100.551 z m 0,356.975 h 100.551 v 356.117 h -100.551 z m 0,-1071.974 h 100.551 v 356.117 h -100.551 z m 0,357.829 h 100.551 v 356.117 h -100.551 z" transform="matrix(0.67536,0,0,0.67536,1212.339,104.1)" id="path946" /></g></g></g><path style="fill:#505062;fill-opacity:1;stroke:none;stroke-width:0.699872;stroke-linecap:round;stroke-linejoin:miter;stroke-dasharray:none;stroke-opacity:1;stop-color:#000000" d="M 87.631,-237.212 V -26.465 H 277.799 V 7.87 h 463.057 v -34.865 h 10e-4 v -97.518 H 409.603 v 8.359 H 187.79 v -121.058 z" id="path727" /><path style="fill:#505062;fill-opacity:1;fill-rule:evenodd;stroke:none;stroke-width:4.23323;stroke-linecap:round;stroke-linejoin:round;stroke-opacity:1" d="m 72.257,-17.962 h 119.669 v 5.87 H 72.257 Z" id="path730" /><path style="fill:none;fill-opacity:1;stroke:#421010;stroke-width:9.99817;stroke-linecap:round;stroke-dasharray:none;stroke-opacity:1;stop-color:#000000" d="M 74.345,-400.764 H 5.201 V -189.62 H 74.345 V -12.545 H 5.085 V 357.132 H 263.802 V 21.534 h 489.745 v -422.298 z" id="path732" /><rect style="fill:#411010;fill-opacity:1;stroke-width:1.25707;stroke-linecap:square;stop-color:#000000" width="10.088" height="39.653999" x="258.81003" y="-17.502003" ry="0" id="rect732" /><rect style="fill:#591919;fill-opacity:1;stroke-width:2.1667;stroke-linecap:square;stop-color:#000000" width="5.4050002" height="7.5180001" x="261.12497" y="7.7529783" ry="0.69499999" rx="0.69499999" transform="scale(1,-1)" id="rect733" /><rect style="fill:#411010;fill-opacity:1;stroke-width:8.18087;stroke-linecap:square;stop-color:#000000" width="10.088" height="81.546997" x="-17.476002" y="-267.39902" ry="0" transform="rotate(90)" id="rect734" /><rect style="fill:#591919;fill-opacity:1;stroke-width:10.9094;stroke-linecap:square;stop-color:#000000" width="5.4050002" height="78.139" x="-15.160998" y="188.25496" ry="2.7019999" rx="2.7019999" transform="matrix(0,1,1,0,0,0)" id="rect735" /><rect style="fill:#591919;fill-opacity:1;stroke-width:10.9094;stroke-linecap:square;stop-color:#000000" width="5.4050002" height="73.884003" x="-15.160998" y="2.8800821" ry="2.7019999" rx="2.7019999" transform="matrix(0,1,1,0,0,0)" id="rect739" /><rect style="fill:#591919;fill-opacity:1;stroke-width:10.9094;stroke-linecap:square;stop-color:#000000" width="5.4050002" height="375.009" x="-7.7799845" y="-15.171008" ry="2.7019999" rx="2.7019999" transform="scale(-1,1)" id="rect740" /><rect style="fill:#591919;fill-opacity:1;stroke-width:10.9094;stroke-linecap:square;stop-color:#000000" width="5.4050002" height="263.81699" x="-359.84698" y="-266.23495" ry="2.7019999" rx="2.7019999" transform="matrix(0,-1,-1,0,0,0)" id="rect741" /><rect style="fill:#591919;fill-opacity:1;stroke-width:10.9094;stroke-linecap:square;stop-color:#000000" width="5.4050002" height="374.836" x="261.09006" y="-359.67297" ry="2.7019999" rx="2.7019999" transform="scale(1,-1)" id="rect742" /><rect style="fill:#591919;fill-opacity:1;stroke-width:10.9094;stroke-linecap:square;stop-color:#000000" width="5.4050002" height="59.741001" x="-756.27802" y="-35.665028" ry="2.7019999" rx="2.7019999" transform="scale(-1,1)" id="rect744" /><rect style="fill:#591919;fill-opacity:1;stroke-width:10.9094;stroke-linecap:square;stop-color:#000000" width="5.4050002" height="493.961" x="18.773022" y="262.31906" ry="2.7019999" rx="2.7019999" transform="matrix(0,1,1,0,0,0)" id="rect745" /><path d="M 719.278,322.106 V 269.111 H 288.766 v 52.995 z" style="fill:#4d4d4d;fill-opacity:1" id="path749" /><rect style="fill:#b3b3b3;fill-opacity:1;stroke:#494949;stroke-width:4.37888;stroke-linecap:round;stroke-linejoin:round;stroke-dasharray:none;stroke-opacity:1;stop-color:#000000" width="407.30301" height="32.752998" x="-707.60004" y="-316.29102" ry="0.85000002" transform="scale(-1)" rx="0.85000002" id="rect750" /><path style="font-size:34.7095px;font-family:'Russo One';-inkscape-font-specification:'Russo One';fill:#2e70a7;stroke:#2e70a7;stroke-width:1.54272;stroke-linecap:square" d="m 325.285,310.821 h -11.59 l 15.751,-18.92 h 11.888 l 15.752,18.92 h -11.591 l -2.675,-3.379 h -14.86 z m 5.35,-6.892 h 9.51 l -4.755,-6.352 z m 62.412,6.892 h -32.99 v -18.92 h 32.99 v 3.784 h -22.29 v 3.649 h 17.535 v 3.784 h -17.535 v 3.919 h 22.29 z m 40.419,-0.406 q -13.91,0.676 -25.56,0.676 -5.824,0 -8.559,-1.243 -2.734,-1.243 -2.734,-3.892 v -8.65 q 0,-2.837 2.794,-4.107 2.853,-1.298 9.094,-1.298 H 429.9 v 3.784 h -19.021 q -3.567,0 -3.567,1.622 v 8.649 q 0,0.621 0.773,1 0.832,0.351 2.2,0.351 6.835,0 12.482,-0.135 v -3.919 h -7.727 v -3.243 h 18.426 z m 25.559,0.406 h -21.398 v -3.784 h 5.35 v -11.352 h -5.35 v -3.784 h 21.398 v 3.784 h -5.35 v 11.352 h 5.35 z m 4.101,-3.92 q 16.287,0.406 22.052,0.406 1.368,0 2.14,-0.351 0.832,-0.379 0.832,-1 v -2.433 h -13.67 q -6.242,0 -9.095,-1.27 -2.794,-1.297 -2.794,-4.135 v -0.811 q 0,-2.838 2.794,-4.108 2.853,-1.298 9.094,-1.298 h 20.864 v 3.784 h -18.486 q -3.567,0 -3.567,1.622 v 0.54 q 0,1.622 3.567,1.622 h 10.699 q 5.825,0 8.56,1.243 2.734,1.244 2.734,3.892 v 1.352 q 0,2.649 -2.735,3.892 -2.734,1.243 -8.559,1.243 -3.031,0 -6.42,-0.054 l -5.468,-0.108 q -6.063,-0.135 -12.542,-0.378 z m 78.52,3.92 h -21.398 v -3.784 h 5.35 v -11.352 h -5.35 v -3.784 h 21.398 v 3.784 h -5.35 v 11.352 h 5.35 z m 41.608,0 H 571.96 l -14.265,-11.352 v 11.352 h -10.7 v -18.92 h 11.294 l 14.266,11.352 v -11.352 h 10.699 z m 30.314,-18.92 q 6.717,0 10.165,1.595 3.507,1.567 3.507,4.622 v 6.486 q 0,3.055 -3.507,4.65 -3.448,1.567 -10.165,1.567 h -23.181 v -18.92 z m 2.972,6.217 q 0,-2.433 -5.35,-2.433 h -10.104 v 11.352 h 10.105 q 5.35,0 5.35,-2.433 z m 14.86,8.649 h 10.7 v 4.054 h -10.7 z" aria-label="AEGIS IND." id="path750" /><path style="fill:#212226;stroke:none;stroke-width:1.29015;stroke-linecap:round;stroke-linejoin:round;stroke-miterlimit:10" d="m 676.951,288.555 c 0.675,0.411 2.024,1.234 3.28,2.04 a 83.86,83.86 0 0 1 3.557,2.407 c 1.134,0.812 2.238,1.645 3.24,2.506 a 31.36,31.36 0 0 1 2.595,2.507 c 0.695,0.756 1.186,1.381 1.656,2.127 0.47,0.746 0.92,1.613 1.195,2.331 0.276,0.719 0.378,1.289 0.378,1.908 0,0.62 -0.102,1.29 -0.44,2.002 -0.336,0.713 -0.909,1.47 -1.573,2.106 -0.664,0.636 -1.42,1.151 -2.33,1.65 -0.91,0.5 -1.972,0.982 -3.147,1.371 -1.175,0.39 -2.463,0.686 -3.791,0.905 -1.329,0.22 -2.698,0.362 -3.894,0.433 a 30.607,30.607 0 0 1 -3.137,0.033 26.425,26.425 0 0 1 -2.463,-0.214 c -0.726,-0.098 -1.36,-0.219 -2.044,-0.372 -0.685,-0.154 -1.42,-0.34 -2.33,-0.648 a 26.867,26.867 0 0 1 -2.892,-1.168 c -0.9,-0.433 -1.615,-0.871 -2.146,-1.239 -0.531,-0.367 -0.879,-0.664 -1.288,-1.146 -0.408,-0.482 -0.879,-1.152 -1.165,-1.711 a 3.578,3.578 0 0 1 -0.419,-1.503 c -0.03,-0.493 0.01,-1.03 0.195,-1.722 a 9.594,9.594 0 0 1 1.042,-2.424 c 0.532,-0.888 1.267,-1.82 2.003,-2.637 a 24.291,24.291 0 0 1 2.391,-2.304 c 0.92,-0.784 2.024,-1.65 3.27,-2.55 1.247,-0.899 2.637,-1.831 3.812,-2.605 1.176,-0.773 2.136,-1.387 2.729,-1.776 0.593,-0.39 0.817,-0.554 0.93,-0.636 0.112,-0.083 0.112,-0.083 0.786,0.329 z" id="path751" /><path style="fill:#0f0f0f;fill-opacity:1;stroke:#121212;stroke-width:1.29015;stroke-linecap:round;stroke-linejoin:round;stroke-miterlimit:10;stroke-opacity:0" d="m 663.421,309.536 c 0.511,0.005 1.533,0.016 2.678,0 a 41.757,41.757 0 0 0 3.73,-0.198 46.395,46.395 0 0 0 3.934,-0.608 38.547,38.547 0 0 0 3.556,-0.84 34.827,34.827 0 0 0 3.577,-1.26 25.251,25.251 0 0 0 3.178,-1.58 17.94,17.94 0 0 0 2.79,-2.007 17.777,17.777 0 0 0 2.115,-2.249 c 0.48,-0.62 0.664,-0.992 0.787,-1.239 0.123,-0.247 0.184,-0.367 0.307,-0.439 a 0.485,0.485 0 0 1 0.46,-0.01 c 0.154,0.082 0.276,0.268 0.46,0.542 0.184,0.275 0.43,0.637 0.746,1.223 0.317,0.587 0.705,1.399 0.92,2.166 0.214,0.768 0.256,1.492 0.123,2.227 a 5.632,5.632 0 0 1 -0.88,2.128 c -0.438,0.647 -1.01,1.195 -1.614,1.683 -0.603,0.488 -1.236,0.916 -2.033,1.338 -0.797,0.422 -1.758,0.84 -2.708,1.157 -0.95,0.318 -1.89,0.538 -2.964,0.746 a 34.238,34.238 0 0 1 -3.464,0.51 c -1.186,0.104 -2.35,0.116 -3.505,0.088 a 33.223,33.223 0 0 1 -3.455,-0.241 26.544,26.544 0 0 1 -3.392,-0.664 22.16,22.16 0 0 1 -2.862,-0.965 c -0.807,-0.34 -1.44,-0.68 -1.819,-0.877 -0.378,-0.198 -0.5,-0.252 -0.603,-0.29 -0.102,-0.04 -0.184,-0.062 -0.276,-0.116 -0.092,-0.055 -0.194,-0.143 -0.245,-0.187 -0.05,-0.044 -0.052,-0.043 0.459,-0.038 z" id="path752" /><path style="fill:#2d5c82;fill-opacity:1;stroke:#008cff;stroke-width:1.30033;stroke-linecap:round;stroke-linejoin:round;stroke-miterlimit:10;stroke-opacity:0" d="m 688.749,301.462 c 0.154,0.21 0.463,0.63 0.648,1.181 0.185,0.552 0.247,1.237 0.185,1.827 a 4.098,4.098 0 0 1 -0.504,1.562 c -0.258,0.475 -0.587,0.928 -1.194,1.48 -0.606,0.552 -1.491,1.203 -2.715,1.777 -1.224,0.574 -2.787,1.07 -4.084,1.375 a 18.155,18.155 0 0 1 -3.415,0.469 c -1.09,0.055 -2.242,0.055 -3.394,-0.044 a 27.827,27.827 0 0 1 -3.179,-0.48 17.562,17.562 0 0 1 -2.006,-0.525 16.709,16.709 0 0 1 -1.265,-0.475 c -0.257,-0.11 -0.298,-0.143 0.227,-0.193 0.524,-0.05 1.615,-0.116 2.705,-0.237 a 31.12,31.12 0 0 0 3.57,-0.613 64.145,64.145 0 0 0 4.258,-1.131 19.249,19.249 0 0 0 2.654,-1.005 32.473,32.473 0 0 0 2.561,-1.314 19.646,19.646 0 0 0 2.356,-1.567 c 0.668,-0.53 1.183,-1.05 1.543,-1.408 0.36,-0.359 0.565,-0.557 0.689,-0.679 0.123,-0.121 0.164,-0.165 0.185,-0.188 0.02,-0.022 0.02,-0.022 0.175,0.188 z" id="path753" /><rect style="fill:#4d4d4d;fill-opacity:1;stroke:#262626;stroke-width:3.5;stroke-linecap:round;stroke-linejoin:round;stroke-dasharray:none;stroke-opacity:1;stop-color:#000000" width="413.45499" height="10.642" x="-710.47003" y="-285.172" ry="0.354" transform="scale(-1)" rx="0.354" id="rect753" /><path style="fill:#3b77a9;fill-opacity:1;stroke:none;stroke-width:1.29015;stroke-linecap:round;stroke-linejoin:round;stroke-miterlimit:10" d="m 668.891,303.801 a 5.45,5.45 0 0 1 -0.073,-1.07 c 0.02,-0.46 0.123,-0.975 0.368,-1.491 0.245,-0.516 0.634,-1.031 1.124,-1.536 0.49,-0.504 1.083,-0.998 1.768,-1.502 a 30.32,30.32 0 0 1 2.156,-1.442 31.62,31.62 0 0 1 1.932,-1.075 c 0.623,-0.324 1.257,-0.642 1.584,-0.779 0.327,-0.137 0.348,-0.093 0.327,0.022 -0.02,0.115 -0.082,0.302 -0.072,0.614 0.01,0.313 0.092,0.752 0.337,1.256 0.246,0.505 0.654,1.075 1.063,1.618 0.409,0.543 0.818,1.058 1.104,1.437 0.286,0.378 0.45,0.62 0.603,0.85 0.153,0.23 0.296,0.45 0.409,0.543 0.112,0.093 0.194,0.06 0.367,-0.143 0.174,-0.203 0.44,-0.576 0.583,-0.955 0.143,-0.378 0.164,-0.762 0.113,-1.173 -0.051,-0.411 -0.174,-0.85 -0.194,-1.053 -0.02,-0.203 0.062,-0.17 0.317,-0.076 0.255,0.093 0.684,0.246 1.287,0.488 0.604,0.241 1.38,0.57 2.085,0.96 0.705,0.389 1.339,0.838 1.778,1.217 0.44,0.378 0.685,0.685 0.777,0.85 0.092,0.164 0.03,0.186 -0.113,0.329 -0.143,0.142 -0.368,0.406 -0.716,0.768 -0.347,0.362 -0.817,0.822 -1.583,1.365 -0.767,0.543 -1.83,1.168 -3.056,1.799 a 30.372,30.372 0 0 1 -4.261,1.82 c -1.646,0.554 -3.546,1.026 -5.457,1.372 a 61.438,61.438 0 0 1 -4.824,0.657 c -0.992,0.093 -1.053,0.06 -1.339,-0.098 a 21.276,21.276 0 0 1 -1.267,-0.752 c -0.47,-0.307 -0.9,-0.636 -1.278,-1.003 a 5.504,5.504 0 0 1 -0.991,-1.283 c -0.286,-0.51 -0.531,-1.124 -0.634,-1.629 -0.102,-0.505 -0.06,-0.9 0.041,-1.338 0.103,-0.439 0.266,-0.922 0.614,-1.453 0.347,-0.532 0.879,-1.114 1.39,-1.569 a 8.333,8.333 0 0 1 1.257,-0.932 c 0.255,-0.148 0.276,-0.115 0.235,0.039 -0.041,0.153 -0.143,0.427 -0.194,0.756 -0.051,0.33 -0.051,0.713 0.03,1.169 0.083,0.455 0.246,0.981 0.45,1.354 0.205,0.373 0.45,0.592 0.696,0.762 0.245,0.17 0.49,0.291 0.705,0.368 0.215,0.077 0.398,0.11 0.49,0.126 0.092,0.017 0.092,0.016 0.061,-0.187 z" id="path754" /><path style="fill:#cccccc;fill-opacity:1;fill-rule:evenodd;stroke:#666666;stroke-width:1.57066;stroke-linecap:round;stroke-linejoin:round;stroke-dasharray:none;stroke-opacity:1" d="m 154.3071,250.59627 17.7095,4.74823 -5.7004,21.28903 -17.7095,-4.74822 z" id="path755" /><text xml:space="preserve" style="font-size:3.40667px;font-family:'Corsiva Hebrew';-inkscape-font-specification:'Corsiva Hebrew';fill:#333333;fill-opacity:1;fill-rule:evenodd;stroke:#333333;stroke-width:0.0621574;stroke-linecap:round;stroke-linejoin:round;stroke-dasharray:none;stroke-opacity:1" x="218.96062" y="212.14389" transform="matrix(0.97279445,0.27585843,-0.28317838,0.94766459,0,0)" id="text755"><tspan style="font-style:normal;font-variant:normal;font-weight:400;font-stretch:normal;font-family:Arial;-inkscape-font-specification:Arial;fill:#333333;fill-opacity:1;stroke:#333333;stroke-width:0.0621574;stroke-dasharray:none;stroke-opacity:1" x="218.96062" y="212.14389" id="tspan755">0$  2 = 0</tspan></text><text xml:space="preserve" style="font-size:2.66409px;font-family:'Corsiva Hebrew';-inkscape-font-specification:'Corsiva Hebrew';fill:#a6433f;fill-opacity:1;fill-rule:evenodd;stroke:#a6433f;stroke-width:0.0785333;stroke-linecap:round;stroke-linejoin:round;stroke-dasharray:none;stroke-opacity:1" x="209.66751" y="227.65353" transform="matrix(0.97166744,0.23516938,-0.23497938,0.97228744,0,0)" id="text756"><tspan style="font-style:normal;font-variant:normal;font-weight:400;font-stretch:normal;font-family:Arial;-inkscape-font-specification:Arial;fill:#a6433f;fill-opacity:1;stroke:#a6433f;stroke-width:0.0785333;stroke-dasharray:none;stroke-opacity:1" x="209.66751" y="227.65353" id="tspan756">by HAZEL</tspan></text><path style="fill:#c9d1d9;fill-opacity:1;stroke:#a2a5c0;stroke-width:3;stroke-linecap:round;stroke-linejoin:round;stroke-dasharray:none;stroke-opacity:1" d="m 619.29,352.067 h 129.2 l -0.021,-72.216 c -5.337,1.216 -17.325,-4.636 -19.28,3.186 -2.988,11.95 5.682,38.225 -8.098,45.116 -30.57,15.285 -67.968,-9.093 -87.148,-2.7 -5.322,1.775 -6.482,11.652 -9.255,15.81 -3.144,4.717 -7.733,5.344 -5.398,10.804 z" id="path757" /><path style="fill:#c9d1d9;fill-opacity:1;stroke:#a2a5c0;stroke-width:3;stroke-linecap:round;stroke-linejoin:round;stroke-dasharray:none;stroke-opacity:1" d="M 583.814,353.217 H 440.753 c 7.171,-11.226 13.222,-11.751 25.45,-13.11 26.281,-2.92 51.857,6.035 77.507,3.47 10.73,-1.073 27.692,-8.636 38.561,-5.013 6.599,2.2 5.766,13.447 1.543,14.653 z M 268.468,229.051 v 103.344 c 22.323,-1.706 43.153,2.963 55.06,19.672 h 33.933 c -5.428,-6.52 -5.99,-15.637 -11.954,-21.6 -13.147,-13.148 -38.97,-7.4 -46.658,-30.464 4.703,-58.92 -1.606,-47.987 -30.38,-70.952 z m 167.272,-7.923 h 234.064 c -11.326,26.328 -34.438,56.231 -67.481,43.014 -17.192,-6.877 -14.262,-25.45 -45.116,-28.535 -19.062,-1.906 -34.575,16.695 -54.371,18.895 -20.237,2.248 -24.016,-17.456 -41.646,-17.738 -9.818,-0.157 -20.804,1.894 -25.45,-15.636 z M 77.211,372.845 v 118.107 h 141.9 c -24.847,-29.453 -108.66,2.666 -131.874,-8.941 -3.342,-1.671 -1.157,-19.356 -1.157,-21.98 0,-21.983 3.648,-43.664 0,-65.553 -1.407,-8.443 -7.13,-14.593 -8.869,-21.633 z m 285.167,27.031 v 91.076 H 303.09 c -1.335,-8.373 0.77,-10.098 8.098,-10.098 7.729,0 19.57,3.519 26.607,0 16.63,-8.315 9.413,-61.82 24.583,-80.978 z M 261.445,380.595 v 26.993 c 0,4.73 0.688,9.204 1.156,13.882 0.451,4.506 2.536,36.026 15.04,23.522 1.603,-1.603 1.156,-7.552 1.156,-9.64 0,-7.195 3.236,-40.958 1.542,-44.345 -2.208,-4.417 -13.765,-10.411 -18.894,-10.411 z M 269.96,27.953 h 173.598 c -44.236,14.916 -92.602,6.346 -138.758,6.346 -6.659,0 -23.362,-3.944 -27.283,3.898 -9.595,19.19 4.712,75.861 7.795,97.442 2.536,17.75 -9.771,33.06 -15.352,45.213 z M 431.865,219.637 H 318.052 c 13.023,-5.318 16.88,-26.957 28.843,-32.938 9.624,-4.812 27.18,14.613 35.47,17.929 12.446,4.979 26.716,3.06 38.586,7.016 5.194,1.731 6.344,6.356 10.914,7.993 z M 505.141,60.024 c -11.402,7.205 0.39,27.007 0.39,40.536 0,12.21 -2.573,24.481 -3.508,36.638 -0.27,3.502 -6.227,49.884 12.472,37.418 2.124,-1.416 7.364,-5.722 8.186,-8.185 3.95,-11.85 -1.56,-30.316 -1.56,-42.875 0,-17.34 7.2,-78.18 -15.98,-63.532 z M 663.387,27.953 h 92.85 V 219.637 H 637.722 c 10.097,-41.316 99.942,12.287 105.957,-29.82 0.82,-5.745 2.157,-11.612 -0.388,-15.84 -3.354,-9.766 -6.137,-19.642 -3.51,-30.153 7.185,-28.74 9.93,-35.521 5.068,-64.701 -0.712,-4.27 -1.558,-33.459 -1.558,-33.459 -23.837,-28.224 -93.313,31.112 -79.904,-17.71 z" id="path758" /><rect style="fill:#5c5c5c;fill-opacity:1;stroke:none;stroke-width:1.5;stroke-linecap:round;stroke-linejoin:round;stroke-dasharray:none;stroke-opacity:1;paint-order:stroke fill markers;stop-color:#000000" width="6.3470001" height="55.414001" x="752.62695" y="-93.237991" rx="0.40200001" ry="0.40200001" id="rect765" /><rect style="fill:#505062;fill-opacity:1;stroke:none;stroke-width:1.5;stroke-linecap:round;stroke-linejoin:round;stroke-dasharray:none;stroke-opacity:1;paint-order:stroke fill markers;stop-color:#000000" width="6.3470001" height="55.414001" x="747.43201" y="-93.237991" rx="0.40200001" ry="0.40200001" id="rect766" /><rect style="fill:#591919;fill-opacity:1;stroke-width:10.9094;stroke-linecap:square;stop-color:#000000" width="5.4050002" height="327.50299" x="71.737053" y="9.8099852" ry="2.7019999" rx="2.7019999" transform="scale(1,-1)" id="rect813" /><path style="fill:none;fill-opacity:1;stroke:none;stroke-width:0.264535" d="M 3.409,-17.098 V 358.308 H 263.701 V -17.098 Z" id="path11" /></svg>
