<?xml version="1.0" encoding="UTF-8" standalone="no"?>
<svg
   width="80.011322mm"
   height="247.30418mm"
   viewBox="0 0 80.010999 247.304"
   version="1.1"
   id="svg6"
   sodipodi:docname="headquarters_torture_window.svg"
   inkscape:version="1.3.2 (091e20e, 2023-11-25, custom)"
   xmlns:inkscape="http://www.inkscape.org/namespaces/inkscape"
   xmlns:sodipodi="http://sodipodi.sourceforge.net/DTD/sodipodi-0.dtd"
   xmlns="http://www.w3.org/2000/svg"
   xmlns:svg="http://www.w3.org/2000/svg">
  <defs
     id="defs6" />
  <sodipodi:namedview
     id="namedview6"
     pagecolor="#ffffff"
     bordercolor="#000000"
     borderopacity="0.25"
     inkscape:showpageshadow="2"
     inkscape:pageopacity="0.0"
     inkscape:pagecheckerboard="0"
     inkscape:deskcolor="#d1d1d1"
     inkscape:zoom="0.86124536"
     inkscape:cx="151.52476"
     inkscape:cy="467.3465"
     inkscape:window-width="1920"
     inkscape:window-height="1001"
     inkscape:window-x="-9"
     inkscape:window-y="-9"
     inkscape:window-maximized="1"
     inkscape:current-layer="svg6"
     inkscape:document-units="mm" />
  <g
     style="stroke-width:1.02723"
     id="g5">
    <path
       fill="#7caee4"
       fill-opacity="0.367"
       d="m -3665.476,825.223 h -61.697 v 180.254 h 61.697 z"
       fill-rule="evenodd"
       style="stroke-width:0.694588"
       transform="matrix(0.9685,0,0,-0.9785,3618.919,1018.432)"
       id="path1" />
    <path
       fill="#efefef"
       fill-opacity=".633"
       d="m -3720.825,978.056 25.62,31.468 h 8.673 l -34.293,-42.12 z m 8.877,-6.306 25.62,31.468 h 8.673 l -34.293,-42.121 z m 34.278,-110.823 -32.176,-37.958 h -8.674 l 40.85,48.611 z m 8.877,-6.307 -25.62,-31.467 h -8.673 l 34.293,42.12 z"
       fill-rule="evenodd"
       style="fill:#efefef;fill-opacity:0.5;stroke-width:0.660685"
       transform="matrix(0.9685,0,0,-0.9785,3618.919,1018.432)"
       id="path2" />
    <path
       stroke="#1d1d1d"
       stroke-width="5.221"
       stroke-linejoin="round"
       d="m -3669.37,869.067 c 0.35,0 0.633,0.325 0.633,0.725 v 2.897 a 0.782,0.782 0 0 1 -0.185,0.513 0.596,0.596 0 0 1 -0.448,0.212 h -58.123 c -0.35,0 -0.633,-0.325 -0.633,-0.725 v -2.897 c 0,-0.4 0.284,-0.725 0.633,-0.725 z m 0,43.306 c 0.35,0 0.633,0.324 0.633,0.724 v 2.898 a 0.782,0.782 0 0 1 -0.185,0.512 0.596,0.596 0 0 1 -0.448,0.212 h -58.123 c -0.35,0 -0.633,-0.324 -0.633,-0.724 v -2.898 c 0,-0.4 0.284,-0.724 0.633,-0.724 z m 0,40.925 c 0.35,0 0.633,0.324 0.633,0.724 v 2.898 a 0.782,0.782 0 0 1 -0.185,0.512 0.596,0.596 0 0 1 -0.448,0.212 h -58.123 c -0.35,0 -0.633,-0.324 -0.633,-0.724 v -2.898 c 0,-0.4 0.284,-0.724 0.633,-0.724 z"
       fill-rule="evenodd"
       style="fill:#4d4d4d;fill-opacity:1;stroke-width:5.13619;stroke-dasharray:none;paint-order:stroke fill markers"
       transform="matrix(0.9685,0,0,-0.9785,3618.919,1018.432)"
       id="path3" />
    <path
       style="fill:#737373;fill-opacity:1;stroke:#333333;stroke-width:3.0817;stroke-linecap:round;stroke-linejoin:round;stroke-dasharray:none;stroke-opacity:1;stop-color:#000000"
       d="m -3660.104,803.456 -2.842,221.15 h -69.911 v -221.15 h 60.046 z m -18.301,20.114 h -34.943 v 179.597 h 34.943 z"
       transform="matrix(0.9685,0,0,-0.9785,3618.919,1018.432)"
       id="path4" />
    <path
       style="fill:#4d4d4d;fill-opacity:1;stroke:#1d1d1d;stroke-width:3.06383;stroke-linecap:square;stroke-linejoin:round;stroke-dasharray:none;stroke-opacity:1;stop-color:#000000"
       d="m -3735.12,789.598 v 249.672 h 79.55 V 789.598 Z m 12.562,16.06 h 53.47 v 216.289 h -53.47 z"
       transform="matrix(0.9685,0,0,-0.9785,3618.919,1018.432)"
       id="path5" />
  </g>
  <path
     style="fill:#c9d1d9;stroke:#a2a5c0;stroke-width:3;stroke-linecap:round;stroke-linejoin:round;stroke-dasharray:none"
     d="M 1.483,1.499 H 65.594 C 54.61,25.376 8.407,12.256 1.484,37.052 Z m 77.044,41.544 v 96.214 C 50.86,129.744 66.78,107.299 66.78,87.036 66.78,67.156 55.74,45.851 78.527,43.043 Z M 1.483,181.667 v -58.014 c 7.285,12.76 19.918,37.564 6.746,50.736 -2.53,2.53 -5.812,4.454 -6.746,7.28 z m 0,25.976 v 38.162 h 77.044 v -60.58 c -5.735,-0.578 -10.095,-0.04 -11.71,5.122 -7.943,25.381 -8.051,41.898 -40.758,22.94 -6.31,-3.656 -17.53,-9.71 -24.576,-5.643 z"
     id="path6" />
</svg>
