<?xml version="1.0" encoding="UTF-8" standalone="no"?>
<svg
   height="192.88411"
   viewBox="0 0 83.076294 51.033917"
   width="313.98914"
   version="1.1"
   id="svg16"
   sodipodi:docname="porta_potty_ceiling_2.svg"
   inkscape:version="1.3 (0e150ed, 2023-07-21)"
   xmlns:inkscape="http://www.inkscape.org/namespaces/inkscape"
   xmlns:sodipodi="http://sodipodi.sourceforge.net/DTD/sodipodi-0.dtd"
   xmlns="http://www.w3.org/2000/svg"
   xmlns:svg="http://www.w3.org/2000/svg">
  <defs
     id="defs20" />
  <g
     id="g4"
     transform="translate(-62.912503,-25.135443)">
    <g
       id="g2"
       transform="matrix(0.94570261,0,0,0.94570261,62.990899,-26.214136)">
      <path
         d="M 1.3050963,106.68815 V 1.3478617 H 86.436889 V 106.68815 Z M 18.558143,28.306334 c 5.544449,0 10.039108,-4.313078 10.039108,-10.039252 0,-5.726161 -4.494659,-10.0387474 -10.039108,-10.0387474 -5.544459,0 -10.0391382,4.3125864 -10.0391382,10.0387474 0,5.726174 4.4946792,10.039252 10.0391382,10.039252 z"
         fill="#e7e7e7"
         stroke="#c2c2c2"
         stroke-width="2.65261"
         id="path8-6-7"
         style="mix-blend-mode:normal;fill-rule:nonzero;stroke-linecap:butt;stroke-linejoin:miter;stroke-miterlimit:10;stroke-dasharray:none;stroke-dashoffset:0" />
      <path
         d="m 86.436889,14.7834 v 7.465061 H 27.830431 c 0.49406,-1.225868 0.76682,-2.570725 0.76682,-3.981381 0,-1.222138 -0.20472,-2.394901 -0.58074,-3.48368 z"
         fill="#f4f4f4"
         stroke="#c2c2c2"
         stroke-width="2.65261"
         id="path14-0"
         style="mix-blend-mode:normal;fill-rule:nonzero;stroke-linecap:butt;stroke-linejoin:miter;stroke-miterlimit:10;stroke-dasharray:none;stroke-dashoffset:0" />
      <path
         d="M 1.3050863,22.248461 V 14.7834 h 7.7946684 c -0.3760099,1.088779 -0.5807499,2.261542 -0.5807499,3.48368 0,1.410656 0.27278,2.755513 0.7668399,3.981381 z"
         fill="#f4f4f4"
         stroke="#c2c2c2"
         stroke-width="2.65261"
         id="path16-8"
         style="mix-blend-mode:normal;fill-rule:nonzero;stroke-linecap:butt;stroke-linejoin:miter;stroke-miterlimit:10;stroke-dasharray:none;stroke-dashoffset:0" />
      <path
         d="M 1.3050837,93.251363 V 85.7863 H 86.436479 v 7.465063 z"
         fill="#f4f4f4"
         stroke="#c2c2c2"
         stroke-width="2.6526"
         id="path18-1"
         style="mix-blend-mode:normal;fill-rule:nonzero;stroke-linecap:butt;stroke-linejoin:miter;stroke-miterlimit:10;stroke-dasharray:none;stroke-dashoffset:0" />
      <path
         d="m 1.3050969,57.750532 v -7.46506 H 86.4369 v 7.46506 z"
         fill="#f4f4f4"
         stroke="#c2c2c2"
         stroke-width="2.65261"
         id="path20-2"
         style="mix-blend-mode:normal;fill-rule:nonzero;stroke-linecap:butt;stroke-linejoin:miter;stroke-miterlimit:10;stroke-dasharray:none;stroke-dashoffset:0" />
    </g>
    <g
       id="g3">
      <path
         style="fill:#c9d1d9;stroke:#a2a5c0;stroke-width:2.48708;stroke-linecap:round;stroke-linejoin:round;stroke-dasharray:none"
         d="m 89.136691,-24.93946 h 55.597799 v 35.450208 c -11.03658,3.429838 -6.56065,9.383998 -3.61771,16.741334 0.93284,2.332113 1.38029,7.696788 3.61771,8.546276 v 29.268067 c -1.62558,-0.181477 -3.33969,-0.320103 -4.78843,0.585361 -2.13886,1.336785 -3.95736,3.268782 -6.32191,4.214602 -12.11771,4.847089 -23.36819,-7.802089 -35.824111,-5.034107 -7.410884,1.646863 -3.105595,5.796293 -13.580383,9.848846 H 64.225132 V 36.500792 C 67.669163,30.950352 75.207561,27.583538 76.141669,20.110674 77.348834,10.45336 63.873408,-4.947058 73.630388,1.730328 91.875413,14.21668 104.70396,-12.026256 92.883004,-20.86462 c -1.713583,-1.281221 -3.102554,-1.562187 -3.746313,-4.07484 z"
         id="path2"
         sodipodi:nodetypes="cccsccssscccsssc" />
    </g>
  </g>
</svg>
