<svg xmlns="http://www.w3.org/2000/svg" width="313.769" height="386" viewBox="0 0 83.018 102.129"><g stroke="#c2c2c2" stroke-width="2.653"><path fill="#e7e7e7" d="M1.305 106.688V1.348h85.132v105.34Zm17.253-78.382c5.545 0 10.04-4.313 10.04-10.039S24.102 8.228 18.557 8.228 8.52 12.541 8.52 18.268c0 5.725 4.495 10.038 10.04 10.038z" style="mix-blend-mode:normal;fill-rule:nonzero;stroke-linecap:butt;stroke-linejoin:miter;stroke-miterlimit:10;stroke-dasharray:none;stroke-dashoffset:0" transform="matrix(.9457 0 0 .9457 .02 -.02)"/><path fill="#f4f4f4" d="M86.437 14.783v7.465H27.83c.494-1.225.767-2.57.767-3.98 0-1.223-.204-2.396-.58-3.485zM1.305 22.248v-7.465H9.1a10.7 10.7 0 0 0-.581 3.484c0 1.41.273 2.756.767 3.981zM1.305 93.251v-7.465h85.131v7.465zM1.305 57.75v-7.465h85.132v7.466z" style="mix-blend-mode:normal;fill-rule:nonzero;stroke-linecap:butt;stroke-linejoin:miter;stroke-miterlimit:10;stroke-dasharray:none;stroke-dashoffset:0" transform="matrix(.9457 0 0 .9457 .02 -.02)"/></g><path d="M26.166 1.254h55.598v35.45c-11.037 3.43-6.561 9.384-3.618 16.742.933 2.332 1.38 7.697 3.618 8.546V91.26c-1.626-.181-3.34-.32-4.789.586-2.139 1.336-3.957 3.268-6.322 4.214-12.117 4.847-23.368-7.802-35.824-5.034-7.41 1.647-3.105 5.796-13.58 9.849H1.254v-38.18c3.444-5.55 10.983-8.918 11.917-16.39 1.207-9.658-12.268-25.058-2.511-18.38C28.905 40.41 41.733 14.166 29.912 5.328 28.2 4.048 26.81 3.767 26.166 1.254" style="fill:#c9d1d9;stroke:#a2a5c0;stroke-width:2.48708;stroke-linecap:round;stroke-linejoin:round;stroke-dasharray:none"/></svg>