<svg width="724.747" height="766.266" viewBox="0 0 191.756 202.741" xmlns="http://www.w3.org/2000/svg">
    <g transform="translate(20.373 -75.935)">
        <path style="fill:#bfbfbf;fill-opacity:1;stroke:#585858;stroke-width:3.72301;stroke-linejoin:round;stroke-dasharray:none;stroke-opacity:1;stop-color:#000" d="M-2.817 81.203a2.618 2.618 0 0 0-2.623 2.624v186.501a2.618 2.618 0 0 0 2.624 2.624h156.335a2.618 2.618 0 0 0 2.624-2.624V83.827a2.618 2.618 0 0 0-2.624-2.624zm39.05 96.364h77.087v34.522H36.234Z"/>
        <path style="fill:#c9d1d9;fill-opacity:1;fill-rule:evenodd;stroke:none;stroke-width:3.72295;stroke-linejoin:round;stroke-dasharray:none;stroke-opacity:1" d="M-5.484 110.14V80.98h47.047l-6.977 14.49-13.058.537-11.091 9.84-12.165 5.366-3.756-2.147zM137.62 82.162v105.186l18.368 10.605V82.878ZM34.352 272.613l119.855.715v-44.185l-15.564 7.155-10.912-1.967"/>
        <path style="fill:#c9d1d9;fill-opacity:1;stroke:#a2a5c0;stroke-width:3.72295;stroke-miterlimit:10;stroke-dasharray:none;stroke-opacity:1" class="cls-21" d="M1107.967 1638.224c24.016 0 18.331-6.414 23.176-11.259 2.302-2.607 5.738-1.806 6.575-1.283 1.267.791 4.43 2.018 5.821 1.323a11.713 11.713 0 0 0 1.72-1.059c.576-.425 9.334-12.929 9.334-18.195" transform="translate(-1113.425 -1527.058)"/>
        <path style="fill:#c9d1d9;fill-opacity:1;fill-rule:evenodd;stroke:#a2a5c0;stroke-width:3.72295;stroke-linejoin:round;stroke-dasharray:none;stroke-opacity:1" d="M1250.282 1607.914c-.41 8.128-8.143 10.292-12.815 14.588-7.22 6.38-4.958 13.32-5.181 21.813-.545 8.428 5.806 12.785 10.225 18.678 3.25 5.63.946 16.556-4.86 25.494-8.374 22.428 11.2 33.485 31.766 39.673M1269.554 1754.336c-9.368 7.261-16.311 6.657-26.943 6.843-7.322-.793-12.012-5.13-17.502-8.615-11.13-3.242-17.527 2.38-26.176 6.953-6.398 5.26-14.033 4.39-21.54 5.453-15.654.94-14.047 7.188-16.77 19.496-2.787 7.696-8.546 7.438-13.77 14.997M1107.398 1759.116c19.563-.032 14.585-7.744 21.288-19.857 11.443-12.38 3.376-13.317 1.43-26.475-1.091-15.418-11.45-15.283-22.36-21.288" transform="translate(-1113.425 -1527.058)"/>
        <path style="fill:none;fill-opacity:1;stroke:#585858;stroke-width:3.72301;stroke-linejoin:round;stroke-dasharray:none;stroke-opacity:1;stop-color:#000" d="M-2.817 81.203a2.618 2.618 0 0 0-2.623 2.624v186.501a2.618 2.618 0 0 0 2.624 2.624h156.335a2.618 2.618 0 0 0 2.624-2.624V83.827a2.618 2.618 0 0 0-2.624-2.624zm39.05 96.364h77.087v34.522H36.234Z"/>
        <g transform="matrix(-1 0 0 1 1889.573 567.517)">
            <path style="fill:#999;fill-opacity:1;stroke:#595959;stroke-width:1.725;stroke-dasharray:none;stroke-opacity:1;paint-order:fill markers stroke;stop-color:#000" d="M1739.949-482.336h3.606v187.863h-3.606z"/>
            <circle style="fill:#a6a6a6;fill-opacity:1;stroke:#4d4d4d;stroke-width:3.508;stroke-linecap:square;stroke-linejoin:miter;stroke-dasharray:none;stroke-opacity:1;paint-order:fill markers stroke;stop-color:#000" cx="1741.898" cy="-296.714" r="6.12"/>
            <circle style="fill:#a6a6a6;fill-opacity:1;stroke:#4d4d4d;stroke-width:3.508;stroke-linecap:square;stroke-linejoin:miter;stroke-dasharray:none;stroke-opacity:1;paint-order:fill markers stroke;stop-color:#000" cx="1741.898" cy="-483.707" r="6.12"/>
            <circle style="fill:#a6a6a6;fill-opacity:1;stroke:#4d4d4d;stroke-width:3.508;stroke-linecap:square;stroke-linejoin:miter;stroke-dasharray:none;stroke-opacity:1;paint-order:fill markers stroke;stop-color:#000" cx="1741.898" cy="-391.884" r="6.12"/>
        </g>
        <circle style="fill:#b3b3b3;fill-opacity:1;stroke:#666;stroke-width:2.6009;stroke-dasharray:none;stroke-opacity:1;paint-order:fill markers stroke;stop-color:#000" cx="21.708" cy="251.87" r="10.368"/>
        <circle style="fill:#b3b3b3;fill-opacity:1;stroke:#666;stroke-width:2.6009;stroke-dasharray:none;stroke-opacity:1;paint-order:fill markers stroke;stop-color:#000" cx="128.969" cy="251.87" r="10.368"/>
        <g transform="translate(-1739.216 567.517)">
            <path style="fill:#999;fill-opacity:1;stroke:#595959;stroke-width:1.725;stroke-dasharray:none;stroke-opacity:1;paint-order:fill markers stroke;stop-color:#000" d="M1739.949-482.336h3.606v187.863h-3.606z"/>
            <circle style="fill:#a6a6a6;fill-opacity:1;stroke:#4d4d4d;stroke-width:3.508;stroke-linecap:square;stroke-linejoin:miter;stroke-dasharray:none;stroke-opacity:1;paint-order:fill markers stroke;stop-color:#000" cx="1742.117" cy="-296.714" r="6.12"/>
            <circle style="fill:#a6a6a6;fill-opacity:1;stroke:#4d4d4d;stroke-width:3.508;stroke-linecap:square;stroke-linejoin:miter;stroke-dasharray:none;stroke-opacity:1;paint-order:fill markers stroke;stop-color:#000" cx="1742.117" cy="-483.707" r="6.12"/>
            <circle style="fill:#a6a6a6;fill-opacity:1;stroke:#4d4d4d;stroke-width:3.508;stroke-linecap:square;stroke-linejoin:miter;stroke-dasharray:none;stroke-opacity:1;paint-order:fill markers stroke;stop-color:#000" cx="1742.117" cy="-391.884" r="6.12"/>
        </g>
        <g transform="translate(-1555.09 571.967)">
            <rect style="fill:#a6a6a6;fill-opacity:1;stroke:#4d4d4d;stroke-width:2.77344;stroke-dasharray:none;stroke-opacity:1;paint-order:fill markers stroke;stop-color:#000" width="30.427" height="60.742" x="1615.381" y="-475.432" ry="8.624" rx="8.661"/>
            <ellipse style="fill:#a6a6a6;fill-opacity:1;stroke:#4d4d4d;stroke-width:2.77336;stroke-dasharray:none;stroke-opacity:1;paint-order:fill markers stroke;stop-color:#000" cx="1630.595" cy="-443.871" rx="94.491" ry="16.86"/>
            <path style="fill:#c9d1d9;fill-opacity:1;fill-rule:evenodd;stroke:none;stroke-width:2.77336;stroke-linejoin:round;stroke-dasharray:none;stroke-opacity:1" d="m1693.51-431.972.142-10.98.716-14.312 20.214 6.261 9.397 4.577-1.327 7.373z"/>
            <path style="fill:none;fill-rule:evenodd;stroke:#a2a5c0;stroke-width:2.77336;stroke-linejoin:round;stroke-dasharray:none;stroke-opacity:1" d="M1695.739-457.008c-7.224 12.782 3.392 10.729-3.545 25.63"/>
            <path style="fill:#c9d1d9;fill-opacity:1;fill-rule:evenodd;stroke:none;stroke-width:2.77336;stroke-linejoin:round;stroke-dasharray:none;stroke-opacity:1" d="m1557.53-454.844 3.398 7.693-.716 14.31-20.214-6.26-3.578-4.83 1.074-3.578z"/>
            <path style="fill:none;fill-rule:evenodd;stroke:#a2a5c0;stroke-width:2.77336;stroke-linejoin:round;stroke-dasharray:none;stroke-opacity:1" d="M1557.82-454.222c4.556 8.573 2.393 14.076 2.336 20.731"/>
            <ellipse style="fill:none;fill-opacity:1;stroke:#4d4d4d;stroke-width:2.77336;stroke-dasharray:none;stroke-opacity:1;paint-order:fill markers stroke;stop-color:#000" cx="1630.595" cy="-443.871" rx="94.491" ry="16.86"/>
            <ellipse style="fill:#464646;fill-opacity:1;stroke:#161616;stroke-width:2.77344;stroke-dasharray:none;stroke-opacity:1;paint-order:fill markers stroke;stop-color:#000" cx="1630.595" cy="-444.3" rx="9.74" ry="12.017"/>
            <rect style="fill:none;fill-opacity:1;stroke:#404040;stroke-width:2.77344;stroke-dasharray:none;stroke-opacity:1;paint-order:fill markers stroke;stop-color:#000" width="32.071" height="9.639" x="1614.559" y="-479.488" ry="4.819" rx="4.84"/>
            <rect style="fill:#b3b3b3;fill-opacity:1;stroke:#666;stroke-width:3.51021;stroke-dasharray:none;stroke-opacity:1;paint-order:fill markers stroke;stop-color:#000" width="114.71" height="11.579" x="1531.734" y="-385.281" ry="4.4" transform="matrix(.9991 -.04262 -.11276 .99362 0 0)" rx="4.384"/>
            <rect style="fill:none;fill-opacity:1;stroke:#404040;stroke-width:2.77344;stroke-dasharray:none;stroke-opacity:1;paint-order:fill markers stroke;stop-color:#000" width="32.071" height="9.639" x="1614.559" y="-418.392" ry="4.819" rx="4.84"/>
        </g>
        <path d="M37.557 211.045h74.653v-32.85H37.558Zm2.857-28.609h30.112v24.537H40.414Zm37.491 0h29.997v24.537H77.905Z" fill="#333" style="stroke-width:.999996"/>
        <path style="fill:#999;stroke-width:.495627" d="M42.334 185.388H70.26v4.304H42.334zM42.334 199.227H70.26v4.304H42.334zM42.334 192.307H70.26v4.304H42.334z"/>
        <path d="M41.85 180.51c-1.106 0-1.995 1.005-1.995 2.254v23.712c0 1.25.89 2.254 1.994 2.254h29.263c1.105 0 1.994-1.005 1.994-2.254v-23.712c0-1.249-.89-2.254-1.994-2.254zm.885 2.895H70.23v22.141H42.735Z" fill="#666" style="stroke-width:.999996"/>
        <path style="fill:#999;stroke-width:.495627" d="M79.14 185.388h27.926v4.304H79.14zM79.14 199.227h27.926v4.304H79.14zM79.14 192.307h27.926v4.304H79.14z"/>
        <path d="M78.655 180.51c-1.104 0-1.993 1.005-1.993 2.254v23.712c0 1.25.889 2.254 1.993 2.254h29.263c1.105 0 1.994-1.005 1.994-2.254v-23.712c0-1.249-.889-2.254-1.994-2.254zm.887 2.895h27.493v22.141H79.542Z" fill="#666" style="stroke-width:.999996"/>
    </g>
</svg>
