<svg xmlns="http://www.w3.org/2000/svg" xmlns:xlink="http://www.w3.org/1999/xlink" width="858.412" height="958.106" viewBox="0 0 227.122 253.499"><defs><pattern xlink:href="#a" id="b" x="0" y="0" patternTransform="translate(-253.117 608.734)scale(.265)" preserveAspectRatio="xMidYMid"/><pattern id="a" width="338.127" height="182.912" patternTransform="translate(245 644)" patternUnits="userSpaceOnUse" preserveAspectRatio="xMidYMid"><path d="M0 0v182.912h338.127V0Z" style="fill:#543d2b;fill-opacity:1;stroke-width:5.1292;paint-order:markers stroke fill"/><rect width="39.616" height="163.381" x="-136.367" y="-291.733" rx="3.602" ry="3.602" style="fill:#644c33;fill-opacity:1;stroke-width:1.54049;paint-order:markers stroke fill" transform="scale(1 -1)rotate(90)"/><rect width="39.616" height="163.381" x="-90.502" y="-216.462" rx="3.602" ry="3.602" style="fill:#694c30;fill-opacity:1;stroke-width:1.54049;paint-order:markers stroke fill" transform="scale(1 -1)rotate(90)"/><rect width="39.616" height="163.381" x="-45.341" y="-246.04" rx="3.602" ry="3.602" style="fill:#644c33;fill-opacity:1;stroke-width:1.54049;paint-order:markers stroke fill" transform="scale(1 -1)rotate(90)"/><rect width="39.616" height="163.381" x="-182.912" y="-338.127" rx="3.602" ry="3.602" style="fill:#694c30;fill-opacity:1;stroke-width:1.54049;paint-order:markers stroke fill" transform="scale(1 -1)rotate(90)"/><rect width="39.616" height="163.381" x="-182.912" y="-169.083" rx="3.602" ry="3.602" style="fill:#644c33;fill-opacity:1;stroke-width:1.54049;paint-order:markers stroke fill" transform="scale(1 -1)rotate(90)"/><path d="M0 5.725v39.617h73.05a3.595 3.595 0 0 0 3.602-3.604V9.326a3.593 3.593 0 0 0-3.601-3.601zm255.648.001a3.593 3.593 0 0 0-3.601 3.602V41.74a3.593 3.593 0 0 0 3.601 3.602h82.479V5.726Z" style="fill:#694c30;fill-opacity:1;stroke-width:1.54049;paint-order:markers stroke fill"/><path d="M0 50.828v39.615h43.395a3.593 3.593 0 0 0 3.601-3.601V54.43a3.593 3.593 0 0 0-3.601-3.602zm226.148-.058a3.593 3.593 0 0 0-3.601 3.602v32.412a3.595 3.595 0 0 0 3.601 3.603h111.979V50.77Z" style="fill:#644c33;fill-opacity:1;stroke-width:1.54049;paint-order:markers stroke fill"/><path d="M0 96.727v39.617h118.332a3.595 3.595 0 0 0 3.602-3.604v-32.412a3.593 3.593 0 0 0-3.602-3.602zm301.754.011a3.593 3.593 0 0 0-3.602 3.602v32.412a3.595 3.595 0 0 0 3.602 3.603h36.373V96.738Z" style="fill:#694c30;fill-opacity:1;stroke-width:1.54049;paint-order:markers stroke fill"/></pattern></defs><g transform="translate(-444.596 -591.264)"><path d="M452.482 345.859v3.606h61.465v-3.606zm146.986 0v3.606h62.23v-3.606z" style="fill:#999;fill-opacity:1;stroke:#595959;stroke-width:1.725;stroke-dasharray:none;stroke-opacity:1;paint-order:fill markers stroke;stop-color:#000"/><path d="M557.59 662.143c-56.802 0-102.849 40.435-102.85 90.315s46.048 90.314 102.85 90.314 102.848-40.435 102.848-90.314c0-49.88-46.047-90.315-102.848-90.315zm-68.87 90.489h139.34v26.106H488.72Z" style="fill:#1f1f1f;fill-opacity:1;stroke:#0d0d0d;stroke-width:3.736;stroke-linecap:square;stroke-linejoin:miter;stroke-dasharray:none;stroke-opacity:1;paint-order:fill markers stroke;stop-color:#000"/><path d="M454.792 354.6h205.693v397.777H454.792z" style="fill:#262626;fill-opacity:1;stroke:#0d0d0d;stroke-width:3.723;stroke-linecap:round;stroke-linejoin:miter;stroke-dasharray:none;stroke-opacity:1;paint-order:normal;stop-color:#000"/><path d="M148.326 88.43c5.87 5.834 12.084 6.074 8.336 12.567-15.391 29.064-42.76 42.972-61.79 48.21-15.052 3.004-11.54-5.164-18.26-17.31l25.784-4.13z" style="opacity:1;fill:#c9d1d9;fill-opacity:1;fill-rule:evenodd;stroke:#a2a5c0;stroke-width:3.72295;stroke-linejoin:round;stroke-dasharray:none;stroke-opacity:1;paint-order:normal" transform="translate(494.43 689.16)"/><path d="M-39.638-327.312h50.215v128.201h-50.215z" style="fill:#c9d1d9;fill-opacity:1;fill-rule:evenodd;stroke:#a2a5c0;stroke-width:3.72295;stroke-linejoin:round;stroke-dasharray:none;stroke-opacity:1;paint-order:normal" transform="translate(494.43 689.16)"/><path d="M10.576-181.95v128.2c-25.375-17.357-50.459 9.191-50.459-12.467l.245-109.67c0-23.226 18.075 8.913 50.214-6.064zm105.02 79.546V25.798c25.376-17.357 50.459 9.19 50.459-12.468l-.244-109.67c0-23.226-18.076 8.914-50.215-6.064zm-5.056-80.311 5.056-153.482c25.376 17.357 50.459-9.19 50.459 12.468l-.244 109.67c0 23.226-23.132 16.366-55.271 31.344z" style="fill:#c9d1d9;fill-rule:evenodd;stroke:#a2a5c0;stroke-width:3.72295;stroke-linejoin:round" transform="translate(494.43 689.16)"/><path d="M-39.638 25.549H-4.68v69.915c-9.027 1.032-16.458 20.305-28.629-.775-4.122-9.61-6.38-20.28-6.38-31.391Z" style="opacity:1;fill:#c9d1d9;fill-rule:evenodd;stroke:#a2a5c0;stroke-width:3.72295;stroke-linejoin:round" transform="translate(494.43 689.16)"/><path d="M486.314 754.221h152.603v28.171H486.314z" style="fill:#1f1f1f;fill-opacity:1;stroke:none;stroke-width:4.323;stroke-linejoin:round;stroke-dasharray:none;stroke-opacity:1;stop-color:#000"/><path d="M542.606 751.837c2.186 34.662-5.765 39.636-36.535 53.727l-18.018-18.186-12.009-39.44Zm93.843 23.257-25.283 30.844c-4.981-5.965-15.667-6.228-12.135-17.192 5.112-10.223 9.9-10.222.885-21.237-4.715-5.798-12.05-8.125-9.86-19.467l52.713-2.781z" style="fill:#c9d1d9;fill-opacity:1;fill-rule:evenodd;stroke:#a2a5c0;stroke-width:3.175;stroke-linejoin:round;stroke-dasharray:none;stroke-opacity:1"/><path d="M467.893 748.544a70 70 0 0 0-.144 3.373c0 43.87 40.563 79.433 90.6 79.434s90.599-35.564 90.6-79.434a70 70 0 0 0-.144-3.373h-12.236c0 43.888-35.88 70.951-78.043 70.979-42.163-.028-78.542-26.4-78.542-70.979z" style="fill:#b3b3b3;fill-opacity:1;stroke:#6b6b6b;stroke-width:3.736;stroke-linecap:square;stroke-linejoin:miter;stroke-dasharray:none;stroke-opacity:1;paint-order:fill markers stroke;stop-color:#000"/><g style="opacity:.2" transform="translate(-455.558 1077.192)"><rect width="68.407" height="201.509" x="979" y="-709.768" rx="0" ry="0" style="opacity:1;fill:#000;fill-opacity:1;stroke:none;stroke-width:4.02299;stroke-linejoin:round;stop-color:#000"/><rect width="68.407" height="93.64" x="575.614" y="936.566" rx="0" ry="0" style="opacity:1;fill:#000;fill-opacity:1;stroke:none;stroke-width:4.02299;stroke-linejoin:round;stop-color:#000" transform="rotate(-90)"/></g><path d="M-26-76.009h178.87v387.117H-26Z" style="fill:url(#b);stroke:none;stroke-width:3.06256;stroke-linecap:round;stroke-linejoin:round;stroke-dasharray:none" transform="translate(495.218 439.392)"/><path d="M143.096 130.831c5.895-10.158-3.623-8.35 2.253-18.526 3.046-5.276-6.763-9.665-2.451-14.125 4.859-5.026 7.766-16.779 2.164-20.803-24.802-17.818-15.721-.409-34.147 6.227-19.153 5.25 3.527 22.086-1.25 36.797-3.592 11.064 17.334 5.4 33.431 10.43M-26.535-12.055c-1.18-5.375-.188-10.996-.188-16.464 0-4.564-.323-9.422.562-13.845 1.193-5.968-.722-21.506 2.432-26.237 2.48-3.719 30.954-14.19 33.373-12.578 10.258 6.84 10.505 34.912 4.82 49.536-1.597 4.11-7.086 8.867-11.145 10.627-10.73 4.652-29.441 10.843-29.854 8.96z" style="fill:#c9d1d9;stroke:#a2a5c0;stroke-width:3.175;stroke-linecap:round;stroke-linejoin:round;stroke-dasharray:none" transform="translate(495.218 439.392)"/><g style="opacity:.200429" transform="translate(757.757 387.533)"><rect width="68.407" height="205.923" x="-233.527" y="-20.108" rx="0" ry="0" style="fill:#000;fill-opacity:1;stroke:none;stroke-width:4.06681;stroke-linejoin:round;stop-color:#000"/><rect width="68.407" height="93.64" x="-114.046" y="-275.96" rx="0" ry="0" style="fill:#000;fill-opacity:1;stroke:none;stroke-width:4.02299;stroke-linejoin:round;stop-color:#000" transform="rotate(-90)"/></g><path d="M-27.38-70.507V309.5h12.16V-70.507Zm168.824 0V309.5h12.196V-70.507Z" style="fill:#b3b3b3;fill-opacity:1;stroke:#6b6b6b;stroke-width:3.723;stroke-linecap:round;stroke-linejoin:miter;stroke-dasharray:none;stroke-opacity:1;stop-color:#000" transform="translate(495.218 439.392)"/><path d="M451.139 353.806h213.036v11.473H451.139z" style="fill:#1f1f1f;fill-opacity:1;stroke:#0d0d0d;stroke-width:4.34859;stroke-linecap:square;stroke-linejoin:miter;stroke-dasharray:none;stroke-opacity:1;paint-order:fill markers stroke;stop-color:#000"/><path d="M445.966 442.24h21.596v50.782h-21.596z" style="fill:#404040;fill-opacity:1;fill-rule:evenodd;stroke:#595959;stroke-width:2.74169;stroke-linecap:round;stroke-linejoin:miter;stroke-dasharray:none;stroke-opacity:1;stop-color:#000"/><path d="M461.508 442.168h20.041v50.88h-20.041z" style="fill:#454545;fill-opacity:1;fill-rule:evenodd;stroke:#595959;stroke-width:2.64365;stroke-linecap:round;stroke-linejoin:miter;stroke-dasharray:none;stroke-opacity:1;stop-color:#000"/><path d="M446.242 352.343v75.163h3.606v-75.163zm0 156.138v228.947h3.606V508.48Z" style="fill:#999;fill-opacity:1;stroke:#595959;stroke-width:1.725;stroke-dasharray:none;stroke-opacity:1;paint-order:fill markers stroke;stop-color:#000"/><circle cx="-452.889" cy="739.024" r="6.12" style="fill:#a6a6a6;fill-opacity:1;stroke:#4d4d4d;stroke-width:3.508;stroke-linecap:square;stroke-linejoin:miter;stroke-dasharray:none;stroke-opacity:1;paint-order:fill markers stroke;stop-color:#000" transform="scale(-1 1)"/><circle cx="-452.766" cy="352.56" r="6.12" style="fill:#a6a6a6;fill-opacity:1;stroke:#4d4d4d;stroke-width:3.508;stroke-linecap:square;stroke-linejoin:miter;stroke-dasharray:none;stroke-opacity:1;paint-order:fill markers stroke;stop-color:#000" transform="scale(-1 1)"/><circle cx="-452.889" cy="663.862" r="6.12" style="fill:#a6a6a6;fill-opacity:1;stroke:#4d4d4d;stroke-width:3.508;stroke-linecap:square;stroke-linejoin:miter;stroke-dasharray:none;stroke-opacity:1;paint-order:fill markers stroke;stop-color:#000" transform="scale(-1 1)"/><circle cx="-452.889" cy="430.026" r="6.12" style="fill:#a6a6a6;fill-opacity:1;stroke:#4d4d4d;stroke-width:3.508;stroke-linecap:square;stroke-linejoin:miter;stroke-dasharray:none;stroke-opacity:1;paint-order:fill markers stroke;stop-color:#000" transform="scale(-1 1)"/><circle cx="-452.889" cy="505.187" r="6.12" style="fill:#a6a6a6;fill-opacity:1;stroke:#4d4d4d;stroke-width:3.508;stroke-linecap:square;stroke-linejoin:miter;stroke-dasharray:none;stroke-opacity:1;paint-order:fill markers stroke;stop-color:#000" transform="scale(-1 1)"/><circle cx="-452.889" cy="584.769" r="6.12" style="fill:#a6a6a6;fill-opacity:1;stroke:#4d4d4d;stroke-width:3.508;stroke-linecap:square;stroke-linejoin:miter;stroke-dasharray:none;stroke-opacity:1;paint-order:fill markers stroke;stop-color:#000" transform="scale(-1 1)"/><path d="M665.35 352.346h3.606V737.43h-3.606z" style="fill:#999;fill-opacity:1;stroke:#595959;stroke-width:1.725;stroke-dasharray:none;stroke-opacity:1;paint-order:fill markers stroke;stop-color:#000"/><circle cx="662.403" cy="739.024" r="6.12" style="fill:#a6a6a6;fill-opacity:1;stroke:#4d4d4d;stroke-width:3.508;stroke-linecap:square;stroke-linejoin:miter;stroke-dasharray:none;stroke-opacity:1;paint-order:fill markers stroke;stop-color:#000"/><circle cx="662.525" cy="352.56" r="6.12" style="fill:#a6a6a6;fill-opacity:1;stroke:#4d4d4d;stroke-width:3.508;stroke-linecap:square;stroke-linejoin:miter;stroke-dasharray:none;stroke-opacity:1;paint-order:fill markers stroke;stop-color:#000"/><circle cx="662.403" cy="663.862" r="6.12" style="fill:#a6a6a6;fill-opacity:1;stroke:#4d4d4d;stroke-width:3.508;stroke-linecap:square;stroke-linejoin:miter;stroke-dasharray:none;stroke-opacity:1;paint-order:fill markers stroke;stop-color:#000"/><circle cx="662.403" cy="430.026" r="6.12" style="fill:#a6a6a6;fill-opacity:1;stroke:#4d4d4d;stroke-width:3.508;stroke-linecap:square;stroke-linejoin:miter;stroke-dasharray:none;stroke-opacity:1;paint-order:fill markers stroke;stop-color:#000"/><circle cx="662.403" cy="505.187" r="6.12" style="fill:#a6a6a6;fill-opacity:1;stroke:#4d4d4d;stroke-width:3.736;stroke-linecap:square;stroke-linejoin:miter;stroke-dasharray:none;stroke-opacity:1;paint-order:fill markers stroke;stop-color:#000"/><circle cx="662.403" cy="584.769" r="6.12" style="fill:#a6a6a6;fill-opacity:1;stroke:#4d4d4d;stroke-width:3.508;stroke-linecap:square;stroke-linejoin:miter;stroke-dasharray:none;stroke-opacity:1;paint-order:fill markers stroke;stop-color:#000"/><circle cx="-514.241" cy="352.56" r="6.12" style="fill:#a6a6a6;fill-opacity:1;stroke:#4d4d4d;stroke-width:3.508;stroke-linecap:square;stroke-linejoin:miter;stroke-dasharray:none;stroke-opacity:1;paint-order:fill markers stroke;stop-color:#000" transform="scale(-1 1)"/><circle cx="-597.435" cy="352.56" r="6.12" style="fill:#a6a6a6;fill-opacity:1;stroke:#4d4d4d;stroke-width:3.508;stroke-linecap:square;stroke-linejoin:miter;stroke-dasharray:none;stroke-opacity:1;paint-order:fill markers stroke;stop-color:#000" transform="scale(-1 1)"/><ellipse cx="517.084" cy="783.19" rx="8.236" ry="7.947" style="fill:#262626;fill-opacity:1;stroke:#0d0d0d;stroke-width:4.201;stroke-dasharray:none;stroke-opacity:1;paint-order:fill markers stroke;stop-color:#000"/><ellipse cx="597.929" cy="783.19" rx="8.236" ry="7.947" style="fill:#262626;fill-opacity:1;stroke:#0d0d0d;stroke-width:4.201;stroke-dasharray:none;stroke-opacity:1;paint-order:fill markers stroke;stop-color:#000"/><ellipse cx="-1018.742" cy="19.624" rx="6.233" ry="14.01" style="fill:#1a1a1a;fill-opacity:1;stroke:#0d0d0d;stroke-width:4.02309;stroke-linecap:round;stroke-dasharray:none;stroke-opacity:1;stop-color:#000" transform="matrix(-.61946 -.78503 -.77919 .6268 0 0)"/><g transform="translate(495.4 439.392)"><path d="M-11.482 124.104c-4.154 0-6.036 3.344-6.036 7.499v176.16a7.48 7.48 0 0 0 7.497 7.5h145.938a7.48 7.48 0 0 0 7.497-7.5v-176.16c0-4.155-1.69-7.5-5.844-7.5h-3.353v180.719a2.454 2.454 0 0 1-2.46 2.46H-6.29a2.454 2.454 0 0 1-2.46-2.46V124.104z" style="fill:#b3b3b3;fill-opacity:1;stroke:#6b6b6b;stroke-width:2.523;stroke-linejoin:round;stroke-dasharray:none;stroke-opacity:1;stop-color:#000"/><rect width="115.343" height="8.228" x="3.879" y="307.088" rx="0" ry="0" style="fill:#0d0d0d;fill-opacity:1;stroke:none;stroke-width:.788686;stroke-linecap:square;stroke-linejoin:round;stroke-dasharray:none;stroke-opacity:1"/><rect width="7.732" height="5.449" x="57.486" y="308.553" rx=".636" ry=".636" style="fill:#1a1a1a;fill-opacity:1;stroke:none;stroke-width:.362527;stroke-linecap:square;stroke-linejoin:round;stroke-dasharray:none;stroke-opacity:1"/><rect width="47.583" height="2.44" x="6.915" y="308.546" rx=".624" ry=".624" style="fill:#1a1a1a;fill-opacity:1;stroke:none;stroke-width:.788685;stroke-linecap:square;stroke-linejoin:round;stroke-dasharray:none;stroke-opacity:1"/><rect width="47.583" height="2.44" x="68.458" y="308.546" rx=".624" ry=".624" style="fill:#1a1a1a;fill-opacity:1;stroke:none;stroke-width:.788685;stroke-linecap:square;stroke-linejoin:round;stroke-dasharray:none;stroke-opacity:1"/><path d="M90.813 124.087h43.338v8.607H90.813z" style="fill:#b3b3b3;fill-opacity:1;stroke:#6b6b6b;stroke-width:2.523;stroke-linejoin:round;stroke-dasharray:none;stroke-opacity:1;stop-color:#000"/><rect width="7.732" height="6.089" x="129.905" y="125.356" rx=".636" ry=".636" style="fill:#b3b3b3;fill-opacity:1;stroke:none;stroke-width:.362527;stroke-linecap:square;stroke-linejoin:round;stroke-dasharray:none;stroke-opacity:1"/><path d="M-34.852 124.087H8.486v8.607h-43.338z" style="fill:#b3b3b3;fill-opacity:1;stroke:#6b6b6b;stroke-width:2.523;stroke-linejoin:round;stroke-dasharray:none;stroke-opacity:1;stop-color:#000" transform="scale(-1 1)"/><rect width="7.732" height="6.089" x="4.239" y="125.356" rx=".636" ry=".636" style="fill:#b3b3b3;fill-opacity:1;stroke:none;stroke-width:.362527;stroke-linecap:square;stroke-linejoin:round;stroke-dasharray:none;stroke-opacity:1" transform="scale(-1 1)"/></g><rect width="49.389" height="6.948" x="-492.77" y="663.743" rx="0" ry="0" style="fill:#696141;fill-opacity:1;fill-rule:evenodd;stroke:#3f3a27;stroke-width:2.05201;stroke-linecap:round;stroke-linejoin:round;stroke-miterlimit:20;stroke-dasharray:none;stroke-opacity:1" transform="rotate(-90)"/><path d="m670.2 486.365-5.966 4.736v-2.777l5.966-4.899zm0-7.676-5.966 4.736v-2.776l5.966-4.9zm0-7.676-5.966 4.736v-2.776l5.966-4.9zm0-7.675-5.966 4.736v-2.777l5.966-4.9zm0-7.676-5.966 4.736v-2.776l5.966-4.9zm0-7.676-5.966 4.736v-2.776l5.966-4.9z" aria-label="\\\\\\" style="font-weight:700;font-size:11.7978px;font-family:&quot;Russo One&quot;;-inkscape-font-specification:&quot;Russo One Bold&quot;;fill:#3f3a27;fill-rule:evenodd;stroke-width:2.05201;stroke-linecap:round;stroke-linejoin:round;stroke-miterlimit:20"/><path d="M-96.588-88.518h19.595v50.909h-19.595z" style="fill:#404040;fill-opacity:1;fill-rule:evenodd;stroke:#595959;stroke-width:2.61481;stroke-linecap:round;stroke-linejoin:miter;stroke-dasharray:none;stroke-opacity:1;stop-color:#000" transform="rotate(90 27.519 466.911)"/><path d="M-83.681-88.619h16.345v51.13h-16.345z" style="fill:#454545;fill-opacity:1;fill-rule:evenodd;stroke:#595959;stroke-width:2.39332;stroke-linecap:round;stroke-linejoin:miter;stroke-dasharray:none;stroke-opacity:1;stop-color:#000" transform="rotate(90 27.519 466.911)"/></g></svg>