<svg xmlns="http://www.w3.org/2000/svg" width="227.933" height="291.046" viewBox="0 0 120.615 154.012"><path d="M3599.242-4518.531h109.915v143.312h-109.915z" style="fill:#395e2c;fill-opacity:1;stroke:#1b2b14;stroke-width:10.7;stroke-dasharray:none;stroke-opacity:1" transform="translate(-3593.892 4523.881)"/><path d="M3599.242-4518.531h109.915v143.312h-109.915z" style="fill:#395e2c;fill-opacity:1;stroke:#314f27;stroke-width:5;stroke-dasharray:none;stroke-opacity:1" transform="translate(-3593.892 4523.881)"/><path d="M4446.555 3658.183v48.312M4457.344 3658.183v48.312M4435.767 3658.183v48.312M4424.979 3662.07v44.425M4468.132 3662.328v44.425M4414.19 3672.896v33.4M4478.92 3673.435v33.4M4489.708 3681.418v25.669M4403.402 3680.498v25.67M4392.614 3691.68v14.81M4500.497 3692.57v14.81M4446.58 3650.477v-48.312M4435.79 3650.477v-48.312M4457.368 3650.477v-48.312M4468.156 3646.59v-44.425M4425.003 3646.332v-44.425M4478.944 3635.764v-33.4M4414.214 3635.225v-33.4M4403.426 3627.243v-25.67M4489.732 3628.162v-25.67M4500.52 3616.98v-14.81M4392.638 3616.09v-14.809" style="fill:purple;stroke:#243f1e;stroke-width:1.5;stroke-dasharray:none;stroke-opacity:1" transform="rotate(-90 464.995 4058.887)"/><path d="M4412.494 3634.86h-34.984M4471.113 3644.389h43.822M4479.95 3635.066h34.985M4489.485 3625.744h25.883M4497.354 3616.422h17.805" style="fill:none;stroke:#243f1e;stroke-width:1.5;stroke-dasharray:none;stroke-opacity:1" transform="rotate(-90 464.995 4058.887)"/><path d="m4518.52 3599.25-56.285 53.233" style="fill:#395e2c;fill-opacity:1;stroke:#314f27;stroke-width:4.99999;stroke-dasharray:none;stroke-opacity:1" transform="rotate(-90 464.995 4058.887)"/><path d="M4470.014 3664.686h44.94M4479.17 3674.008h35.765M4489.727 3683.33h25.883M4497.052 3692.79h17.805" style="fill:none;stroke:#243f1e;stroke-width:1.5;stroke-dasharray:none;stroke-opacity:1" transform="rotate(-90 464.995 4058.887)"/><path d="m4518.52 3709.688-56.285-53.234" style="fill:#395e2c;fill-opacity:1;stroke:#314f27;stroke-width:4.99999;stroke-dasharray:none;stroke-opacity:1" transform="rotate(-90 464.995 4058.887)"/><path d="M4421.332 3644.181h-43.822M4413.275 3673.801h-35.766M4402.718 3683.123h-25.883M4402.96 3625.537h-25.883M4395.392 3692.583h-17.804M4395.09 3616.215h-17.804" style="fill:none;stroke:#243f1e;stroke-width:1.5;stroke-dasharray:none;stroke-opacity:1" transform="rotate(-90 464.995 4058.887)"/><path d="m4374.737 3599.149 56.285 53.234" style="fill:#395e2c;fill-opacity:1;stroke:#314f27;stroke-width:4.99999;stroke-dasharray:none;stroke-opacity:1" transform="rotate(-90 464.995 4058.887)"/><path d="M4422.431 3664.479h-44.941" style="fill:none;stroke:#243f1e;stroke-width:1.5;stroke-dasharray:none;stroke-opacity:1" transform="rotate(-90 464.995 4058.887)"/><path d="m4374.737 3709.587 56.285-53.233" style="fill:#395e2c;fill-opacity:1;stroke:#314f27;stroke-width:4.99999;stroke-dasharray:none;stroke-opacity:1" transform="rotate(-90 464.995 4058.887)"/><path d="M4463.873 3654.537h-34.787" style="fill:#395e2c;fill-opacity:1;stroke:#314f27;stroke-width:7.2;stroke-dasharray:none;stroke-opacity:1" transform="rotate(-90 464.995 4058.887)"/><path d="M4428.572 3654.33h-51.089M4463.873 3654.537h51.088" style="fill:none;stroke:#243f1e;stroke-width:1.5;stroke-dasharray:none;stroke-opacity:1" transform="rotate(-90 464.995 4058.887)"/><path d="m4489.955 3629.985 25.545-24.167.107 24.322a6688 6688 0 0 1 0 48.657l-.107 24.335-25.392-24.03c-13.966-13.217-25.461-24.238-25.546-24.49-.084-.254 11.343-11.335 25.393-24.627zM4407.554 3682.264l25.447-24.08 13.554-.001h13.554l25.48 24.081 25.48 24.082-32.201.105c-17.71.058-46.727.058-64.48 0l-32.28-.105zM4403.18 3678.957l-25.546 24.167-.107-24.322a6688 6688 0 0 1 0-48.657l.107-24.335 25.392 24.03c13.966 13.217 25.462 24.237 25.546 24.49s-11.342 11.335-25.392 24.627zM4485.58 3626.677l-25.447 24.082h-27.108l-25.48-24.082-25.479-24.081 32.2-.106c17.71-.058 46.727-.058 64.481 0l32.28.106z" style="fill:none;fill-opacity:1;stroke:#1b2b14;stroke-width:2;stroke-dasharray:none;stroke-opacity:1" transform="rotate(-90 464.995 4058.887)"/></svg>