<svg xmlns="http://www.w3.org/2000/svg" xml:space="preserve" width="34.001" height="34.001" viewBox="0 0 8.996 8.996"><g transform="translate(6.507 -21.894)"><circle cx="-26.392" cy="-2.009" r="3.969" style="fill:#333;fill-opacity:1;stroke:#212121;stroke-width:1.05831;stroke-linecap:square;stroke-linejoin:bevel;stroke-miterlimit:4;stroke-dasharray:none;stroke-opacity:1" transform="rotate(-90)"/><g style="fill:#4d4d4d;fill-opacity:1;stroke:#212121;stroke-width:.529167;stroke-linecap:square;stroke-linejoin:miter;stroke-dasharray:none;stroke-opacity:1"><path d="m1.14 23.616.237-1 .239-1 .747.707.747.706-.985.294zM7.809 23.616l-.239-1-.238-1-.747.707-.747.706.985.294Z" style="fill:#4d4d4d;fill-opacity:1;fill-rule:evenodd;stroke:#212121;stroke-width:.529167;stroke-linecap:square;stroke-linejoin:miter;stroke-miterlimit:29;stroke-dasharray:none;stroke-opacity:1" transform="matrix(0 -1.18993 1.4638 0 -33.504 31.678)"/><path d="m2.686 22.932 1 .238 1 .239-.707.747-.706.024-.294-.263Z" style="fill:#4d4d4d;fill-opacity:1;fill-rule:evenodd;stroke:#212121;stroke-width:.529167;stroke-linecap:square;stroke-linejoin:miter;stroke-miterlimit:29;stroke-dasharray:none;stroke-opacity:1" transform="matrix(0 -1.18993 1.4638 0 -33.504 31.678)"/><path d="m6.262 22.932-1 .238-1 .239.706.747.707.024.293-.263z" style="fill:#4d4d4d;fill-opacity:1;fill-rule:evenodd;stroke:#212121;stroke-width:.529167;stroke-linecap:square;stroke-linejoin:miter;stroke-miterlimit:29;stroke-dasharray:none;stroke-opacity:1" transform="matrix(0 -1.18993 1.4638 0 -33.504 31.678)"/></g></g></svg>