<svg xmlns="http://www.w3.org/2000/svg" width="90" height="90" viewBox="0 0 23.812 23.813"><g stroke-miterlimit="10" stroke-width="0" style="mix-blend-mode:normal;fill-rule:nonzero;stroke-linejoin:miter;stroke-dasharray:none;stroke-dashoffset:0"><path fill="#e7e7e7" d="M23.812 11.907c0 6.57-5.33 11.894-11.906 11.894C5.331 23.801 0 18.476 0 11.907 0 5.34 5.33.014 11.906.014s11.906 5.325 11.906 11.893"/><path d="M14.906 23.433s-1.887-4.757-1.893-6.62c-.002-.542 1.94 2.272 2.043 1.53.453-3.225.893-11.183.893-11.183s.194 2.048.414 4.081c.1.923.206 1.843.302 2.567.343 2.591.15 8.938.15 8.938s-.892.366-1.242.487c-.257.088-.667.2-.667.2"/><path d="M13.67.147v15.259s-.827-7.115-1.036-8.812c-.104-.84-.998 6.425-1.174 4.998C11.08 8.512 11.688 0 11.688 0s.62.007.942.026c.338.02 1.04.12 1.04.12M18.99 2.338s-.356 10.6-.626 13.328c-.291 2.945-.47-5.112-.47-6.564 0-.389.086-3.105-.602-3.63-.668-.51-1.9 1.435-1.9.868 0-1.596 1.661-5.164 1.661-5.164s.697.36 1.03.559c.311.187.907.603.907.603"/><path d="M19.25 21.287s-.422.301-.62.429l-.527.34.052-5.296zM22.355 17.63s-.195.337-.436.702c-.236.36-.517.744-.702.98-.144.182-.341.426-.528.62-.288.3-.552.518-.552.518s-.864-4.282-.88-5.513c-.016-1.16 1.233 2.009 1.28 1.294.095-1.426.174-6.035.174-6.035z"/><path d="M20.994 4.21s2.114 8.66 1.873 9.546c-.06.224-2.782-6.547-2.782-6.322 0 1.53-.417 5.419-.417 5.419l.147-9.831s.469.414.678.625c.18.18.501.563.501.563M10.305.117s.234 7.433.097 12.168c-.036 1.229-.64 2.333-.637 3.166.008 2.907.604 8.262.604 8.262s-.61-.088-.891-.142c-.255-.049-.727-.198-.727-.198s-.895-5.315-.846-8.046c.014-.746.648-1.903.724-2.975.007-.11-.602-1.362-.855-2.773-.333-1.86-.333-3.997-.323-4.147.016-.249.45 1.364.888 2.391.229.539.6.916.607.781.25-4.317.194-8.287.194-8.287s.428-.092.629-.122zM12.83 23.754s-.714.059-1.042.059c-.294 0-.836-.06-.836-.06s-.43-6.302-.335-7.652c.076-1.06.674 1.88.721 1.215.076-1.078.236-6.327.714-4.581.479 1.746.777 11.019.777 11.019M15.483.54s-.734 4.5-.906 4.5-.13-4.764-.13-4.764.367.075.544.125z"/><path d="M8.04.663s.408 3.148.491 4.05c.06.653.133 2.121-.039 1.685-.206-.522-.83-2.721-1.203-2.534-.155.077-.617.96-.82 2.283-.183 1.193.138 2.793.048 4.06-.035.483.3 1.54.321 2.123.144 3.976-.7 2.057-.74 1.31-.058-1.075-.195-12.013-.195-12.013s.598-.328.928-.477c.157-.071.395-.197.618-.286.31-.123.59-.2.59-.2M5.975 22.237s.174-6.947.517-6.277c.431.841.971 6.98.971 6.98s-.483-.179-.729-.3c-.25-.123-.76-.403-.76-.403M5.327 21.86s-.628-.45-.912-.68c-.25-.203-.706-.63-.706-.63s-1.23-7.67-1.23-8.986c0-1.035 1.424 3.331 1.424 2.715 0-.984.294-5.465.648-3.944s.776 11.524.776 11.524"/><path d="M4.515 2.58s.574 5.317.538 6.592c-.015.535-1.325-.979-1.343-.457-.062 1.829-.154 3.254-.354 2.008-.477-2.974.224-7.35.224-7.35s.363-.337.527-.477c.145-.123.408-.317.408-.317M2.22 4.98s-.15 5.947-.258 7.36c-.1 1.308-.453-6.25-.453-6.25s.227-.375.344-.552zM1.613 17.913s-.439-.804-.61-1.181c-.142-.31-.349-.92-.349-.92s-.47-4.915-.15-4.015c.535 1.504 1.109 6.116 1.109 6.116"/></g></svg>