<?xml version="1.0" encoding="UTF-8" standalone="no"?>
<!-- Created with Inkscape (http://www.inkscape.org/) -->

<svg
   width="645.19379"
   height="629.47424"
   viewBox="0 0 170.70752 166.5484"
   version="1.1"
   id="svg1"
   inkscape:version="1.3.2 (1:1.3.2+202311252150+091e20ef0f)"
   sodipodi:docname="floor_oil_04.svg"
   xmlns:inkscape="http://www.inkscape.org/namespaces/inkscape"
   xmlns:sodipodi="http://sodipodi.sourceforge.net/DTD/sodipodi-0.dtd"
   xmlns="http://www.w3.org/2000/svg"
   xmlns:svg="http://www.w3.org/2000/svg">
  <sodipodi:namedview
     id="namedview1"
     pagecolor="#505050"
     bordercolor="#eeeeee"
     borderopacity="1"
     inkscape:showpageshadow="0"
     inkscape:pageopacity="0"
     inkscape:pagecheckerboard="0"
     inkscape:deskcolor="#505050"
     inkscape:document-units="mm"
     inkscape:zoom="1.0494604"
     inkscape:cx="99.098548"
     inkscape:cy="366.37877"
     inkscape:window-width="2560"
     inkscape:window-height="1368"
     inkscape:window-x="0"
     inkscape:window-y="0"
     inkscape:window-maximized="1"
     inkscape:current-layer="layer1" />
  <defs
     id="defs1" />
  <g
     inkscape:label="Calque 1"
     inkscape:groupmode="layer"
     id="layer1"
     transform="translate(-56.895591,-76.175855)">
    <path
       style="fill:#444444;fill-opacity:0.8799786;stroke:none;stroke-width:2.559;stroke-linecap:square;stroke-linejoin:round;stroke-dasharray:none;stroke-opacity:1;paint-order:fill markers stroke;stop-color:#000000"
       d="m 71.0483,178.71016 c 18.368514,-9.32704 35.92668,-12.83897 55.31011,-13.42729 18.38695,-0.55807 29.29151,8.80819 43.91097,16.25234 18.21367,9.2743 24.98355,-20.04675 32.93853,-32.7287 11.65182,-18.5755 5.40002,-50.213383 -17.45143,-59.052853 -26.19898,-10.134371 -46.34674,18.800313 -71.07893,19.442863 -18.721009,0.48638 -41.431418,-9.01542 -52.563142,14.44459 -7.349815,15.48967 -3.866,24.66918 6.452743,34.78316 4.539346,4.44927 -6.278341,24.73372 2.481149,20.28589 z"
       id="path20767"
       sodipodi:nodetypes="sssssssss" />
    <path
       style="fill:#444444;fill-opacity:0.8799786;stroke:none;stroke-width:2.559;stroke-linecap:square;stroke-linejoin:round;stroke-dasharray:none;stroke-opacity:1;paint-order:fill markers stroke;stop-color:#000000"
       d="m 226.8879,95.10185 c -3.8235,0.706011 -8.0412,1.066699 -11.64139,-0.636118 -2.59616,-1.22793 -2.71621,-4.677112 -1.08503,-6.772502 2.52545,-3.244165 1.95996,-8.100751 5.11515,-10.906791 1.75603,-1.561707 4.21984,0.236701 5.85878,1.338763 1.7968,1.208213 2.20875,2.979547 2.37068,5.051904 0.20411,2.612109 0.11392,5.158619 -0.53837,7.662694 -0.35981,1.381263 -0.11882,2.842508 -0.0798,4.26205 0,7e-6 1e-5,-10e-7 0,0 z"
       id="path21338"
       sodipodi:nodetypes="sssssssss" />
    <path
       style="fill:#444444;fill-opacity:0.8799786;stroke:none;stroke-width:2.559;stroke-linecap:square;stroke-linejoin:round;stroke-dasharray:none;stroke-opacity:1;paint-order:fill markers stroke;stop-color:#000000"
       d="m 100.6816,217.33936 c 0.61627,4.61595 1.488,9.64085 -0.69044,13.94884 -1.385178,2.73927 -4.533211,3.62931 -7.448285,3.95127 -7.807923,0.86235 -14.5791,5.60981 -22.225791,7.17139 -4.05177,0.82744 -8.944215,0.10436 -11.788832,-3.22795 -1.528012,-1.78998 -1.457177,-4.19651 -1.583243,-6.39347 -0.24561,-4.28027 0.330727,-9.23952 3.872714,-12.1425 2.170703,-1.77909 5.179415,-1.58762 7.377773,-3.3529 3.363236,-2.70068 6.109752,-5.93714 8.641125,-9.41758 2.112351,-2.90432 5.0406,-4.95004 8.379444,-4.26158 2.483994,0.51219 4.53089,2.13606 6.03731,4.17923 2.326938,3.15604 7.196144,3.40946 9.178145,6.93283 0.44016,0.78246 0.13249,1.73167 0.25008,2.61242 z"
       id="path21340"
       sodipodi:nodetypes="sssssssssssss" />
  </g>
</svg>
