<svg xmlns="http://www.w3.org/2000/svg" width="135.475" height="178.064" viewBox="0 0 35.845 47.113"><path d="M118.938 187.088c-3.986 5.885-12.082 9-19.652 8.666-4.986-.22-9.739-3.162-11.814-7.828-2.706-6.084-4.272-12.768-4.079-19.417.114-3.934 3.361-6.626 4.475-10.253 1.221-3.975 3.385-8.978 8.052-9.55 3.722-.455 6.196 2.97 8.711 5.146 2.851 2.465 3.368 6.717 1.968 10.563-1.044 2.867-.077 6.166.537 9.144.6 2.91 2.61 5.352 4.185 7.856 1.71 2.721 9.469 2.94 7.617 5.673" style="fill:#454545;fill-opacity:.88223374;stroke:none;stroke-width:2.559;stroke-linecap:square;stroke-linejoin:round;stroke-dasharray:none;stroke-opacity:1;paint-order:fill markers stroke;stop-color:#000" transform="translate(-83.377 -148.665)"/></svg>