<svg xmlns="http://www.w3.org/2000/svg" width="645.194" height="629.474" viewBox="0 0 170.708 166.548"><path d="M71.048 178.71c18.369-9.327 35.927-12.839 55.31-13.427 18.387-.558 29.292 8.808 43.911 16.252 18.214 9.275 24.984-20.047 32.939-32.728 11.652-18.576 5.4-50.214-17.452-59.053-26.199-10.135-46.346 18.8-71.078 19.443-18.721.486-41.432-9.016-52.564 14.444-7.35 15.49-3.866 24.67 6.453 34.783 4.54 4.45-6.278 24.734 2.481 20.286M226.888 95.102c-3.824.706-8.041 1.067-11.641-.636-2.597-1.228-2.717-4.677-1.086-6.773 2.526-3.244 1.96-8.1 5.116-10.907 1.756-1.561 4.22.237 5.858 1.34 1.797 1.207 2.21 2.979 2.371 5.051.204 2.612.114 5.159-.538 7.663-.36 1.381-.12 2.842-.08 4.262M100.682 217.34c.616 4.615 1.488 9.64-.69 13.948-1.386 2.74-4.534 3.63-7.45 3.951-7.807.863-14.578 5.61-22.225 7.172-4.052.827-8.944.104-11.789-3.228-1.528-1.79-1.457-4.197-1.583-6.394-.246-4.28.33-9.24 3.873-12.142 2.17-1.78 5.18-1.588 7.377-3.353 3.364-2.7 6.11-5.937 8.642-9.418 2.112-2.904 5.04-4.95 8.38-4.261 2.483.512 4.53 2.136 6.036 4.18 2.327 3.155 7.197 3.409 9.179 6.932.44.782.132 1.732.25 2.612" style="fill:#444;fill-opacity:.8799786;stroke:none;stroke-width:2.559;stroke-linecap:square;stroke-linejoin:round;stroke-dasharray:none;stroke-opacity:1;paint-order:fill markers stroke;stop-color:#000" transform="translate(-56.896 -76.176)"/></svg>