<svg xmlns="http://www.w3.org/2000/svg" width="547.541" height="581.75" fill="none"><path fill="#3a4f3f" d="M242.061 248.457c64.646 32.949 143.762 7.253 176.71-57.392s7.253-143.762-57.392-176.71-143.762-7.253-176.71 57.392-7.253 143.762 57.392 176.71m51.785 297.85c70.155 35.757 155.862 8.17 191.43-61.617 35.57-69.788 7.533-155.35-62.622-191.106-70.156-35.756-155.863-8.168-191.432 61.62-35.57 69.788-7.532 155.348 62.623 191.105Z" opacity=".95" style="fill:#365228;fill-opacity:.85097998;stroke-width:1.49293"/><path fill="#3a4f3f" d="M394.472 398.191c51.79 26.397 115.173 5.812 141.57-45.978s5.81-115.173-45.98-141.57-115.173-5.81-141.57 45.98-5.81 115.172 45.981 141.569z" opacity=".95" style="fill:#38562a;fill-opacity:.83529401;stroke-width:1.49293"/><path fill="#3a4f3f" fill-rule="evenodd" d="M224.48 249.737c27.977-42.699 21.25-100.758-18.082-136.179-43.418-39.104-110.124-35.817-148.994 7.34-26.2 29.09-33.064 68.87-21.46 103.686a122 122 0 0 0-5.136 5.364C-13.68 279.346-9.49 355.647 40.167 400.37s125.978 40.933 170.468-8.464c36.105-40.091 40.148-97.9 13.845-142.168z" clip-rule="evenodd" opacity=".95" style="fill:#365228;fill-opacity:.83529401;stroke-width:1.49293"/><path fill="#485e52" d="M320.032 180.956c44.81 22.839 99.502 5.325 122.154-39.12 22.651-44.442 4.687-98.987-40.123-121.826s-99.501-5.325-122.153 39.118-4.688 98.989 40.123 121.828zm-7.68 389.865c49.218 25.086 109.455 5.522 134.54-43.697 25.086-49.219 5.522-109.454-43.697-134.54s-109.454-5.522-134.54 43.696c-25.086 49.22-5.523 109.456 43.696 134.541M130.852 210.21c31.588 16.1 70.248 3.544 86.347-28.044 16.1-31.589 3.544-70.248-28.044-86.348-31.587-16.1-70.247-3.543-86.347 28.045s-3.543 70.247 28.044 86.347m318.361 189.071c31.955 16.287 70.911 3.884 87.012-27.705s3.246-70.399-28.71-86.686c-31.954-16.286-70.912-3.882-87.012 27.705-16.1 31.589-3.245 70.4 28.71 86.686" opacity=".85" style="opacity:.8;fill:#38562a;fill-opacity:.83529401;stroke-width:1.49293"/><path fill="#485e52" fill-rule="evenodd" d="M203.957 364.484c33.75 13.793 72.86-.107 89.541-32.837 17.598-34.527 3.577-76.934-31.317-94.719s-77.447-4.212-95.044 30.315a71 71 0 0 0-2.15 4.62 92 92 0 0 0-9.196-5.376c-44.81-22.839-99.653-5.027-122.492 39.784s-5.026 99.653 39.784 122.491c44.81 22.84 99.653 5.028 122.492-39.782a91.1 91.1 0 0 0 8.382-24.496" clip-rule="evenodd" opacity=".85" style="opacity:.8;fill:#3e632c;fill-opacity:.803922;stroke-width:1.49293"/><path fill="#5f926a" d="M265.596 229.703c-11.237-3.24-36.574-.487-30.735 14 7.095 13.915 25.804-3.387 30.738-13.992l.007-.003q-.007 0-.01-.005" style="fill:#507c3b;fill-opacity:.90114015;stroke-width:1.49293"/><path fill="#587e60" d="m227.619 200.37.002.011c-7.896 13.034-13.006 45.794 7.24 43.322 19.95-4.242 4.47-33.562-7.232-43.323v-.01l-.004.004q-.003-.004-.006-.005z" style="fill:#507c3b;fill-opacity:.90114015;stroke-width:1.49293"/><path fill="#77a37a" d="m212.805 227.966.005.003c2.092 9.334 13.992 26.068 22.05 15.734 7.154-10.976-12.539-16.795-22.047-15.74l-.005-.004c.001-.002.001.003 0 0 0 0 0 .005-.003.005z" style="fill:#507c3b;fill-opacity:.90114015;stroke-width:1.49293"/><path fill="#5f926a" d="M449.707 517.383c-8.818 7.684-32.948 15.886-33.771.288.556-15.61 24.822-7.824 33.771-.296h.006z" style="fill:#4c7538;fill-opacity:.90326703;stroke-width:1.49293"/><path fill="#77a37a" d="m402.587 541.249.003-.005c-2.045-9.346 1.678-29.538 13.345-23.572 11.12 6.928-4.275 20.516-13.339 23.573 0 .003-.007.003-.009.004" style="fill:#4c7538;fill-opacity:.90326703;stroke-width:1.49293"/><path fill="#587e60" d="m447.263 548.47-.007-.009c-15.205-1.015-44.967-15.633-31.323-30.793 14.925-13.903 30.052 15.603 31.328 30.786l.008.01h-.006z" style="fill:#4c7538;fill-opacity:.90114015;stroke-width:1.49293"/><path fill="#77a37a" d="M488.482 254.426c-11.155 3.52-30.733 19.835-17.852 28.67 13.61 7.663 19.617-17.104 17.858-28.667l.005-.004c-.004 0-.008.003-.01 0z" style="fill:#507c3b;fill-opacity:.90114015;stroke-width:1.49293"/><path fill="#5f926a" d="m460.68 240.303.001.011c-7.06 13.503-10.102 46.52 9.948 42.781 19.644-5.486 2.352-33.777-9.938-42.784l-.003-.01-.001.006q-.003-.005-.006-.005z" style="fill:#507c3b;fill-opacity:.90114015;stroke-width:1.49293"/><path fill="#77a37a" d="M103.093 400.913c11.62-1.32 33.957-13.59 23.005-24.725-11.892-10.126-22.527 13.033-23.012 24.72l-.005.005z" style="fill:#507c3b;fill-opacity:.90114015;stroke-width:1.49293"/><path fill="#5f926a" d="m127.68 420.093-.002-.01c9.513-11.905 18.818-43.73-1.579-43.894-20.332 1.627-8.771 32.702 1.57 43.894v.01l.005-.003.006.005z" style="fill:#507c3b;fill-opacity:.90114015;stroke-width:1.49293"/><path fill="#5f926a" d="M154 110.178c7.356-9.093 29.701-21.346 33.213-6.127 2.154 15.47-23.094 12.002-33.213 6.135h-.005z" style="fill:#4c7538;fill-opacity:.90326703;stroke-width:1.49293"/><path fill="#77a37a" d="m196.28 78.52-.003.006c3.63 8.85 3.459 29.383-9.063 25.526-12.154-4.9.66-20.948 9.057-25.528z" style="fill:#507c3b;fill-opacity:.90114015;stroke-width:1.49293"/><path fill="#587e60" d="m151.028 79.137.009.008c15.149-1.63 46.992 7.615 36.178 24.909-12.294 16.275-32.298-10.167-36.183-24.902l-.01-.008h.007z" style="fill:#507c3b;fill-opacity:.90114015;stroke-width:1.49293"/><path fill="#5f926a" d="M427.896 98.55c7.419 9.045 14.9 33.406-.716 33.766-15.587-1.019-7.084-25.044.708-33.766l.001-.006z" style="fill:#507c3b;fill-opacity:.90114015;stroke-width:1.49293"/><path fill="#587e60" d="m469.365 144.585-.01-.002c-13.87 6.312-47.002 7.55-42.175-12.267 6.55-19.317 33.856-.507 42.177 12.258l.01.002-.006.003q.004.003.004.006" style="fill:#507c3b;fill-opacity:.90114015;stroke-width:1.49293"/><path fill="#77a37a" d="m433.635 158.63-.002-.007c-7.897-5.399-19.037-22.65-6.453-26.307 12.845-2.584 10.958 17.864 6.459 26.306 0 0-.005.005-.004.008" style="fill:#507c3b;fill-opacity:.90114015;stroke-width:1.49293"/></svg>