<?xml version="1.0" encoding="UTF-8" standalone="no"?>
<!-- Created with Inkscape (http://www.inkscape.org/) -->

<svg
   width="63.999996"
   height="63.999996"
   viewBox="0 0 16.933332 16.933332"
   version="1.1"
   id="svg1"
   xmlns="http://www.w3.org/2000/svg"
   xmlns:svg="http://www.w3.org/2000/svg">
  <defs
     id="defs1" />
  <g
     id="layer1">
    <g
       id="layer2"
       transform="matrix(0.1431243,-0.08263285,0.08263285,0.1431243,-12.073518,14.718261)">
      <path
         style="fill:#896923;fill-opacity:1;stroke:#000000;stroke-width:2;stroke-linecap:square;stroke-linejoin:round;stroke-miterlimit:29;stroke-dasharray:none;stroke-opacity:1"
         d="m 108.19941,13.148055 h 1.475 v 30.756463 h -1.80277 v -3.878696 c 0,0 -0.007,-0.664309 -1.15063,-0.664309 -1.14382,0 -1.69012,0 -1.69012,0 V 17.627686 h 2.40371 c 0,0 0.76481,0 0.76481,-0.764814 0,-0.764815 0,-3.714817 0,-3.714817 z"
         id="path31" />
      <path
         style="fill:#333333;fill-opacity:1;stroke:#000000;stroke-width:2;stroke-linecap:square;stroke-linejoin:round;stroke-miterlimit:29;stroke-dasharray:none;stroke-opacity:1"
         d="m 116.71573,41.633004 h 14.48586 c 0,0 1.21714,-0.0016 1.05436,-0.608728 h 15.16981 v 6.943879 h -37.3542 v -4.094676 h 5.71709 c 0,0 0.76987,-0.07097 0.88828,-0.512843 0.1184,-0.441905 0.0388,-1.727632 0.0388,-1.727632 z"
         id="path39" />
      <path
         style="fill:#4d4d4d;fill-opacity:1;stroke:#000000;stroke-width:2;stroke-linecap:square;stroke-linejoin:round;stroke-miterlimit:29;stroke-dasharray:none;stroke-opacity:1"
         d="m 109.79121,47.947109 h 54.35645 v 10.816665 h -54.35645 z"
         id="path47" />
      <g
         id="g3"
         transform="translate(0.53360965,0.93498557)">
        <circle
           style="fill:#333333;fill-opacity:1;stroke:none;stroke-width:0.309032;stroke-linecap:square;stroke-linejoin:round;stroke-miterlimit:29;stroke-dasharray:none;stroke-opacity:1"
           id="path46"
           cx="121.64094"
           cy="52.420456"
           r="3.0710022" />
        <circle
           style="fill:#333333;fill-opacity:1;stroke:none;stroke-width:0.309032;stroke-linecap:square;stroke-linejoin:round;stroke-miterlimit:29;stroke-dasharray:none;stroke-opacity:1"
           id="path46-7"
           cx="151.23071"
           cy="52.420456"
           r="3.0710022" />
      </g>
      <g
         id="g72"
         style="fill:#99653d;fill-opacity:1">
        <path
           style="fill:#99653d;fill-opacity:1;stroke:#000000;stroke-width:2;stroke-linecap:square;stroke-linejoin:round;stroke-miterlimit:29;stroke-dasharray:none;stroke-opacity:1"
           d="m 148.37504,16.098057 h 3.16852 l 3.08605,-1.781726 h 16.79913 v 30.298377 l -16.38888,-0.05467 -3.2653,-1.922947 -3.39952,-0.109255 z"
           id="path25" />
        <path
           style="color:#000000;font-style:normal;font-variant:normal;font-weight:normal;font-stretch:normal;font-size:medium;line-height:normal;font-family:sans-serif;font-variant-ligatures:normal;font-variant-position:normal;font-variant-caps:normal;font-variant-numeric:normal;font-variant-alternates:normal;font-variant-east-asian:normal;font-feature-settings:normal;font-variation-settings:normal;text-indent:0;text-align:start;text-decoration-line:none;text-decoration-style:solid;text-decoration-color:#000000;letter-spacing:normal;word-spacing:normal;text-transform:none;writing-mode:lr-tb;direction:ltr;text-orientation:mixed;dominant-baseline:auto;baseline-shift:baseline;text-anchor:start;white-space:normal;shape-padding:0;shape-margin:0;inline-size:0;clip-rule:nonzero;display:inline;overflow:visible;visibility:visible;isolation:auto;mix-blend-mode:normal;color-interpolation:sRGB;color-interpolation-filters:linearRGB;solid-color:#000000;solid-opacity:1;fill:#99653d;fill-opacity:1;fill-rule:nonzero;stroke:#000000;stroke-width:12.9923;stroke-linecap:square;stroke-linejoin:round;stroke-miterlimit:29;stroke-dasharray:none;stroke-dashoffset:0;stroke-opacity:1;color-rendering:auto;image-rendering:auto;shape-rendering:auto;text-rendering:auto;enable-background:accumulate;stop-color:#000000"
           d="M 274.71098,282.48916 H 391.73716 V 471.64022 H 275.06454 Z"
           id="path29"
           transform="matrix(0.15451583,0,0,0.15336057,44.508842,-28.63238)" />
        <path
           style="fill:#99653d;fill-opacity:1;stroke:#000000;stroke-width:12.9437;stroke-linecap:square;stroke-linejoin:round;stroke-miterlimit:29;stroke-dasharray:none;stroke-opacity:1"
           d="m 272.65,282.25 h -38.6 a 2.8000001,2.8000001 135 0 0 -2.8,2.8 V 469.9 a 2.85,2.85 45 0 0 2.85,2.85 h 37.8 a 2.85,2.85 135 0 0 2.85,-2.85 V 284.35 a 2.1,2.1 45 0 0 -2.1,-2.1 z"
           id="path27"
           transform="matrix(0.15451583,0,0,0.15451583,44.67273,-29.135246)" />
        <path
           style="fill:#99653d;fill-opacity:1;stroke:#000000;stroke-width:2;stroke-linecap:square;stroke-linejoin:round;stroke-miterlimit:29;stroke-dasharray:none;stroke-opacity:1"
           d="m 106.19931,13.871902 c 0,0 -1.10648,-0.211011 -1.10648,0.638825 0,0.849836 0,3.157935 0,3.157935 h 2.21273 c 0,0 0.8809,0 0.8809,-0.880906 0,-0.880898 0,-2.888542 0,-2.888542 z"
           id="path33" />
        <path
           style="fill:#99653d;fill-opacity:1;stroke:#000000;stroke-width:2;stroke-linecap:square;stroke-linejoin:round;stroke-miterlimit:29;stroke-dasharray:none;stroke-opacity:1"
           d="m 107.82455,43.180679 h -2.2125 c 0,0 -0.62834,0.172449 -0.62834,-1.088309 0,-1.260766 0,-2.722106 0,-2.722106 h 1.8575 c 0,0 0.96967,0.01369 0.96967,0.969677 0,0.956014 0.0137,2.840738 0.0137,2.840738 z"
           id="path34" />
        <path
           style="fill:#99653d;fill-opacity:1;stroke:#000000;stroke-width:2;stroke-linecap:square;stroke-linejoin:round;stroke-miterlimit:29;stroke-dasharray:none;stroke-opacity:1"
           d="m 109.62732,13.530439 c 0,0 0.12278,-0.3198 0.5539,-0.3198 h 5.74262 c 0,0 0.82625,0.0773 0.82625,0.82625 v 6.777399 c 0,0 0,1.386215 -0.94427,1.386215 h -3.9187 v -1.388512 c 0,0 0.15452,-2.288762 -2.25014,-2.250136 z"
           id="path36" />
        <path
           style="fill:#99653d;fill-opacity:1;stroke:#000000;stroke-width:2;stroke-linecap:square;stroke-linejoin:round;stroke-miterlimit:29;stroke-dasharray:none;stroke-opacity:1"
           d="m 109.63578,43.581632 c 0,0 0.12277,0.319792 0.55391,0.319792 h 5.74261 c 0,0 0.82625,-0.0773 0.82625,-0.826242 v -7.219349 c 0,0 0,-0.944265 -0.94427,-0.944265 h -3.82213 l -0.0966,1.388504 c 0,0 -0.23177,1.97973 -2.25014,1.709332 z"
           id="path36-3" />
        <path
           style="fill:#99653d;fill-opacity:1;stroke:#000000;stroke-width:2;stroke-linecap:square;stroke-linejoin:round;stroke-miterlimit:29;stroke-dasharray:none;stroke-opacity:1"
           d="m 116.71573,19.498611 c 0,0 0.0927,-0.815878 2.03574,-0.815878 h 3.68135 c 0,0 2.31774,-0.188477 6.83733,-1.424605 0,0 2.12459,-0.347658 2.89717,0.03861 v 23.795438 c 0,0 0.0108,0.565616 -0.97968,0.565616 h -14.43327 v -5.66464 c 0,0 0.15451,-1.081608 -1.08162,-1.081608 h -3.747 V 22.163982 h 3.65861 c 0,0 1.2011,0.192766 1.17001,-1.081608 z"
           id="path37" />
        <path
           style="fill:#99653d;fill-opacity:1;stroke:#000000;stroke-width:1.98672;stroke-linecap:square;stroke-linejoin:round;stroke-miterlimit:29;stroke-dasharray:none;stroke-opacity:1"
           d="m 116.45366,13.281552 h 30.81833 v 2.77962 c 0,0 -3.76103,1.839851 -6.7421,1.839851 -2.98109,0 -8.09855,-0.137326 -8.13267,0.279616 v -0.833884 c 0,0 -0.54586,-0.486438 -3.13872,0 0,0 -3.95749,1.181339 -6.07272,1.320323 h -6.45188 c 0,0 0.40209,-5.246551 -0.28024,-5.385526 z"
           id="path38" />
        <path
           style="fill:#99653d;fill-opacity:1;stroke:#000000;stroke-width:2;stroke-linecap:square;stroke-linejoin:round;stroke-miterlimit:29;stroke-dasharray:none;stroke-opacity:1"
           d="m 109.66594,18.760485 c 0,0 2.24217,-0.24584 2.24217,2.280779 v 15.091432 c 0,0 0.04,2.153713 -2.26961,2.153713 z"
           id="path35" />
        <path
           style="fill:#99653d;fill-opacity:1;stroke:#000000;stroke-width:2;stroke-linecap:square;stroke-linejoin:round;stroke-miterlimit:29;stroke-dasharray:none;stroke-opacity:1"
           d="m 132.20595,18.030712 c 0,0 1.62241,-0.231772 8.34385,-0.15452 0,0 3.63113,-0.115886 6.68281,-1.854184 l 0.73308,0.196421 v 26.534816 l -0.52204,-0.301397 V 41.053566 H 132.3991 c 0,0 -0.0255,0.390081 -0.22522,0.390081 z"
           id="path48" />
      </g>
      <circle
         style="fill:#333333;fill-opacity:1;stroke:#000000;stroke-width:2;stroke-linecap:square;stroke-linejoin:round;stroke-miterlimit:29;stroke-dasharray:none;stroke-opacity:1"
         id="path49"
         cx="139.93173"
         cy="29.348991"
         r="7.2622442" />
      <circle
         style="fill:#5a5a5a;fill-opacity:1;stroke:none;stroke-width:0.218805;stroke-linecap:square;stroke-linejoin:round;stroke-miterlimit:29;stroke-dasharray:none;stroke-opacity:1"
         id="path49-8"
         cx="139.93173"
         cy="29.348991"
         r="5.1419129" />
      <path
         style="fill:#323232;fill-opacity:1;stroke:#000000;stroke-width:2;stroke-linecap:square;stroke-linejoin:round;stroke-miterlimit:29;stroke-dasharray:none;stroke-opacity:1"
         d="M 132.9399,13.31798 V 6.4806505 l 0.69532,-0.6953239 h 11.97497 l 0.67602,0.6760109 V 13.31798 Z"
         id="path50" />
      <path
         style="fill:#4d4d4d;fill-opacity:1;stroke:none;stroke-width:0.302855;stroke-linecap:square;stroke-linejoin:round;stroke-miterlimit:29;stroke-dasharray:none;stroke-opacity:1"
         d="m 133.96204,7.4402865 h 11.35952 l -0.0154,-0.6533749 h -11.33995 z"
         id="path51" />
      <path
         style="fill:#4d4d4d;fill-opacity:1;stroke:#000000;stroke-width:2;stroke-linecap:square;stroke-linejoin:round;stroke-miterlimit:29;stroke-dasharray:none;stroke-opacity:1"
         d="m 110.14881,13.24072 v -2.085964 h 21.13004 v 2.085964 z"
         id="path52" />
      <path
         style="fill:#333333;fill-opacity:1;stroke:#000000;stroke-width:2;stroke-linecap:square;stroke-linejoin:round;stroke-miterlimit:29;stroke-dasharray:none;stroke-opacity:1"
         d="m 110.16012,11.136408 -0.71938,-0.335505 V 3.7766228 l 6.85136,-1.5403969 h 9.61732 l 6.1429,1.5907246 v 6.9415135 l -0.7537,0.367422 z"
         id="path53" />
      <path
         style="fill:#4d4d4d;fill-opacity:1;stroke:none;stroke-width:0.298022;stroke-linecap:square;stroke-linejoin:round;stroke-miterlimit:29;stroke-dasharray:none;stroke-opacity:1"
         d="m 110.32676,4.5600728 20.76269,0.050694 -5.45592,-1.3736577 h -9.12761 z"
         id="path54" />
      <path
         style="fill:#444444;fill-opacity:1;stroke:none;stroke-width:0.479735;stroke-linecap:square;stroke-linejoin:round;stroke-miterlimit:29;stroke-dasharray:none;stroke-opacity:1"
         d="m 110.46935,9.4564564 h 20.59982 l -0.0381,0.8149816 -20.57777,-0.03542 z"
         id="path55" />
      <path
         style="fill:#666666;fill-opacity:1;stroke:none;stroke-width:0.298022;stroke-linecap:square;stroke-linejoin:round;stroke-miterlimit:29;stroke-dasharray:none;stroke-opacity:1"
         d="m 114.90457,3.6082495 h 12.02836 l -1.43527,-0.4097192 h -8.97999 z"
         id="path56" />
      <g
         id="g71"
         style="fill:#b97e50;fill-opacity:1">
        <path
           style="fill:#b97e50;fill-opacity:1;stroke:none;stroke-width:1.84328;stroke-linecap:square;stroke-linejoin:round;stroke-miterlimit:29;stroke-dasharray:none;stroke-opacity:1"
           d="m 123.91882,23.056138 5.46147,-1.271722 1.78802,-0.03936 v 15.145818 h -13.39147 c 0.13847,-1.440971 -0.0687,-2.446517 -1.59223,-2.94305 l -3.22432,-0.0358 v -10.70794 l 4.81653,-0.18816 z"
           id="path73" />
        <path
           style="fill:#b97e50;fill-opacity:1;stroke:none;stroke-width:0.236076;stroke-linecap:square;stroke-linejoin:round;stroke-miterlimit:29;stroke-dasharray:none;stroke-opacity:1"
           d="m 81.530842,19.317483 h 4.582599 v 19.753994 h -4.610039 z"
           id="path40" />
        <path
           style="fill:#b97e50;fill-opacity:1;stroke:none;stroke-width:0.25743;stroke-linecap:square;stroke-linejoin:round;stroke-miterlimit:29;stroke-dasharray:none;stroke-opacity:1"
           d="M 88.138463,19.788598 H 104.00938 V 38.600353 H 88.138463 Z"
           id="path41" />
        <path
           style="fill:#b97e50;fill-opacity:1;stroke:none;stroke-width:0.28592;stroke-linecap:square;stroke-linejoin:round;stroke-miterlimit:29;stroke-dasharray:none;stroke-opacity:1"
           d="m 152.24982,20.515603 2.97398,-1.524077 15.18535,0.03572 v 20.813357 l -14.97516,0.09891 -2.97652,-1.54082 -3.01534,-0.03572 V 20.572257 Z"
           id="path57" />
        <path
           style="fill:#b97e50;fill-opacity:1;stroke:none;stroke-width:1.83876;stroke-linecap:square;stroke-linejoin:round;stroke-miterlimit:29;stroke-dasharray:none;stroke-opacity:1"
           d="m 106.08835,21.533517 c 0,0 2.53774,0.190139 2.53774,-0.615784 V 36.13484 c 0,0 -0.0501,-0.617998 -2.54688,-0.617998 z"
           id="path72" />
      </g>
    </g>
  </g>
</svg>
