<?xml version="1.0" encoding="UTF-8" standalone="no"?>
<!-- Created with Inkscape (http://www.inkscape.org/) -->

<svg
   width="72"
   height="49.846001"
   viewBox="0 0 19.05 13.188422"
   version="1.1"
   id="svg5"
   inkscape:version="1.4.2 (1:1.4.2+202505120737+ebf0e940d0)"
   sodipodi:docname="545mm.svg"
   inkscape:export-filename="/home/desktopgeek/ammo.png"
   inkscape:export-xdpi="1500.0001"
   inkscape:export-ydpi="1500.0001"
   xml:space="preserve"
   xmlns:inkscape="http://www.inkscape.org/namespaces/inkscape"
   xmlns:sodipodi="http://sodipodi.sourceforge.net/DTD/sodipodi-0.dtd"
   xmlns="http://www.w3.org/2000/svg"
   xmlns:svg="http://www.w3.org/2000/svg"><sodipodi:namedview
     id="namedview7"
     pagecolor="#505050"
     bordercolor="#ffffff"
     borderopacity="1"
     inkscape:pageshadow="0"
     inkscape:pageopacity="0"
     inkscape:pagecheckerboard="1"
     inkscape:document-units="px"
     showgrid="false"
     units="px"
     inkscape:zoom="9.2144845"
     inkscape:cx="26.371524"
     inkscape:cy="2.9844317"
     inkscape:window-width="2560"
     inkscape:window-height="1368"
     inkscape:window-x="0"
     inkscape:window-y="0"
     inkscape:window-maximized="1"
     inkscape:current-layer="layer1"
     inkscape:showpageshadow="0"
     inkscape:deskcolor="#505050" /><defs
     id="defs2"><inkscape:path-effect
       effect="spiro"
       id="path-effect2050"
       is_visible="true"
       lpeversion="1" /><inkscape:path-effect
       effect="spiro"
       id="path-effect2046"
       is_visible="true"
       lpeversion="1" /><inkscape:path-effect
       effect="spiro"
       id="path-effect2050-3"
       is_visible="true"
       lpeversion="1" /></defs><g
     inkscape:label="Layer 1"
     inkscape:groupmode="layer"
     id="layer1"><rect
       style="fill:#e35d08;fill-opacity:1;stroke:#5e2808;stroke-width:0.711811;stroke-linecap:round;stroke-linejoin:round;stroke-miterlimit:10;stroke-opacity:1"
       id="rect846"
       width="18.338188"
       height="12.47665"
       x="0.35590601"
       y="0.35590601"
       ry="1.0990384"
       rx="1.0990384"
       inkscape:export-filename="/home/desktopgeek/Downloads/Ammo emojis/556mm_ammo.png"
       inkscape:export-xdpi="945.23077"
       inkscape:export-ydpi="945.23077" /><path
       d="m 5.2696223,8.9005618 q -1.0849589,0 -2.4038011,-0.1299352 V 7.893564 q 1.4357839,0.097451 2.1439308,0.097451 0.1494254,0 0.2338833,-0.084458 0.090955,-0.090955 0.090955,-0.2403801 v -0.324838 q 0,-0.3898056 -0.3898055,-0.3898056 H 3.060724 V 4.2878623 H 6.1791687 V 5.1974086 H 4.2301408 v 0.8445788 h 1.0394815 q 0.6366825,0 0.9355335,0.2923542 0.2988509,0.2858575 0.2988509,0.8770626 v 0.4547732 q 0,0.6366825 -0.2988509,0.9355334 -0.298851,0.298851 -0.9355335,0.298851 z M 6.8288472,7.8610802 H 7.998264 v 0.974514 H 6.8288472 Z m 3.8980548,0.064968 H 8.3231004 V 7.0165014 L 9.8823228,4.2878623 H 11.181675 L 9.6224524,7.0165014 h 1.1044496 v -0.974514 h 1.169416 v 0.974514 h 0.454774 v 0.9095464 h -0.454774 v 0.9095464 h -1.169416 z m 4.222891,0.974514 q -1.084959,0 -2.403801,-0.1299352 V 7.893564 q 1.435784,0.097451 2.143931,0.097451 0.149425,0 0.233883,-0.084458 0.09095,-0.090955 0.09095,-0.2403801 v -0.324838 q 0,-0.3898056 -0.389806,-0.3898056 h -1.88406 V 4.2878623 h 3.118445 v 0.9095463 h -1.949028 v 0.8445788 h 1.039481 q 0.636683,0 0.935534,0.2923542 0.298851,0.2858575 0.298851,0.8770626 v 0.4547732 q 0,0.6366825 -0.298851,0.9355334 -0.298851,0.298851 -0.935534,0.298851 z"
       id="text1"
       style="font-size:6.49676px;line-height:0.9;font-family:'Russo One';-inkscape-font-specification:'Russo One';text-align:center;letter-spacing:0px;word-spacing:0px;text-anchor:middle;fill:#5e2808;stroke-width:0.799684"
       aria-label="5.45" /><circle
       style="fill:#e35d08;fill-opacity:1;stroke:#5e2808;stroke-width:0.366346;stroke-linecap:round;stroke-linejoin:round;stroke-miterlimit:4;stroke-dasharray:none;stroke-opacity:1"
       id="path9697"
       cx="16.851923"
       cy="2.1980765"
       r="0.7326923" /><circle
       style="fill:#e35d08;fill-opacity:1;stroke:#5e2808;stroke-width:0.366346;stroke-linecap:round;stroke-linejoin:round;stroke-miterlimit:4;stroke-dasharray:none;stroke-opacity:1"
       id="path9697-6"
       cx="16.851923"
       cy="10.990384"
       r="0.7326923" /><circle
       style="fill:#e35d08;fill-opacity:1;stroke:#5e2808;stroke-width:0.366346;stroke-linecap:round;stroke-linejoin:round;stroke-miterlimit:4;stroke-dasharray:none;stroke-opacity:1"
       id="path9697-7"
       cx="2.1980765"
       cy="10.990384"
       r="0.7326923" /><circle
       style="fill:#e35d08;fill-opacity:1;stroke:#5e2808;stroke-width:0.366346;stroke-linecap:round;stroke-linejoin:round;stroke-miterlimit:4;stroke-dasharray:none;stroke-opacity:1"
       id="path9697-5"
       cx="2.1980765"
       cy="2.1980765"
       r="0.7326923" /></g></svg>
