<?xml version="1.0" encoding="UTF-8" standalone="no"?>
<!-- Created with Inkscape (http://www.inkscape.org/) -->

<svg
   width="28.802347"
   height="49.999992"
   viewBox="0 0 7.6206209 13.229164"
   version="1.1"
   id="svg1"
   inkscape:export-filename="gauze_horizontal.svg"
   inkscape:export-xdpi="96"
   inkscape:export-ydpi="96"
   sodipodi:docname="cola.svg"
   inkscape:version="1.4 (1:1.4+202410161351+e7c3feb100)"
   xmlns:inkscape="http://www.inkscape.org/namespaces/inkscape"
   xmlns:sodipodi="http://sodipodi.sourceforge.net/DTD/sodipodi-0.dtd"
   xmlns:xlink="http://www.w3.org/1999/xlink"
   xmlns="http://www.w3.org/2000/svg"
   xmlns:svg="http://www.w3.org/2000/svg">
  <sodipodi:namedview
     id="namedview1"
     pagecolor="#ffffff"
     bordercolor="#000000"
     borderopacity="0.25"
     inkscape:showpageshadow="2"
     inkscape:pageopacity="0.0"
     inkscape:pagecheckerboard="0"
     inkscape:deskcolor="#d1d1d1"
     inkscape:document-units="px"
     inkscape:zoom="10.386508"
     inkscape:cx="20.555512"
     inkscape:cy="31.098035"
     inkscape:window-width="2560"
     inkscape:window-height="1368"
     inkscape:window-x="0"
     inkscape:window-y="0"
     inkscape:window-maximized="1"
     inkscape:current-layer="layer1" />
  <defs
     id="defs1">
    <linearGradient
       id="linearGradient1"
       inkscape:collect="always">
      <stop
         style="stop-color:#ff8f1b;stop-opacity:1;"
         offset="0"
         id="stop1" />
      <stop
         style="stop-color:#ff5600;stop-opacity:1;"
         offset="1"
         id="stop2" />
    </linearGradient>
    <linearGradient
       inkscape:collect="always"
       xlink:href="#linearGradient1"
       id="linearGradient2"
       x1="113.63183"
       y1="-26.799469"
       x2="117.43888"
       y2="-20.954994"
       gradientUnits="userSpaceOnUse"
       gradientTransform="matrix(1.2277709,0,0,1.2056338,-34.642865,181.23208)" />
  </defs>
  <g
     inkscape:label="Layer 1"
     inkscape:groupmode="layer"
     id="layer1"
     transform="translate(-102.92619,-144.72572)">
    <path
       style="fill:#9d9fa1;fill-opacity:1;stroke:none;stroke-width:1.05833;stroke-linejoin:round;stroke-miterlimit:4;stroke-dasharray:none;stroke-opacity:1"
       d="m 103.84345,147.14677 0.75858,-1.6788 h 4.36822 l 0.75857,1.6788 z"
       id="path17321-5" />
    <path
       style="fill:#9d9fa1;fill-opacity:1;fill-rule:nonzero;stroke:none;stroke-width:1.05833;stroke-linejoin:round;stroke-miterlimit:4;stroke-dasharray:none;stroke-opacity:1"
       d="m 104.12953,156.38496 0.45321,0.86648 h 4.40358 l 0.45482,-0.86648 z"
       id="path17323-5" />
    <g
       aria-label="✦"
       transform="matrix(1.6369701,0,0,1.6397333,-81.4932,193.92903)"
       id="text24045-48-8-7-3-0"
       style="font-size:3.16802px;fill:#f3f3f3;stroke-width:0.645975;stroke-linejoin:round;stroke-dasharray:none" />
    <path
       style="fill:#9d9fa1;stroke-width:1.05833;stroke-linejoin:round;stroke-dasharray:none"
       d="m 103.45792,155.9215 0.69149,0.683 v 0.82359 h 5.1734 v -0.82359 l 0.69246,-0.683 v -8.74147 l -0.77427,-1.08675 0.22788,-0.84077 h -5.46459 l 0.22789,0.84077 -0.77426,1.08675 z"
       id="path5" />
    <path
       style="fill:url(#linearGradient2);fill-opacity:1;stroke:none;stroke-width:1.05833;stroke-linejoin:round;stroke-dasharray:none;stroke-opacity:1;paint-order:normal"
       d="m 103.45774,147.17896 h 6.55433 v 8.73745 c -1.81533,0 -4.75466,0 -6.55433,0 z"
       id="path17265-7"
       sodipodi:nodetypes="ccccc" />
    <path
       style="fill:#232323;stroke-width:1.05833;stroke-linejoin:round;stroke-dasharray:none"
       d="m 104.00503,144.72655 a 0.53159555,0.52684776 0 0 0 -0.51504,0.66356 l 0.16481,0.60027 -0.63039,0.88611 a 0.53159555,0.52684776 0 0 0 -0.0988,0.30421 v 8.74063 a 0.53159555,0.52684776 0 0 0 0.15658,0.37363 l 0.53563,0.52881 v 0.60435 a 0.53159555,0.52684776 0 0 0 0.5315,0.52676 h 5.17298 a 0.53159555,0.52684776 0 0 0 0.53151,-0.52676 v -0.60435 l 0.53558,-0.52881 a 0.53159555,0.52684776 0 0 0 0.15657,-0.37363 v -8.74063 a 0.53159555,0.52684776 0 0 0 -0.0968,-0.30421 l -0.6304,-0.88611 0.16275,-0.60027 a 0.53159555,0.52684776 0 0 0 -0.51297,-0.66356 z m 0.6922,1.05353 h 4.07698 l -0.0474,0.17559 a 0.53159555,0.52684776 0 0 0 0.0804,0.44101 l 0.67572,0.95144 v 8.35474 l -0.53564,0.52881 a 0.53159555,0.52684776 0 0 0 -0.15656,0.37364 v 0.29605 h -4.10995 v -0.29605 a 0.53159555,0.52684776 0 0 0 -0.15657,-0.37364 l -0.53563,-0.53085 v -8.3527 l 0.67778,-0.95144 a 0.53159555,0.52684776 0 0 0 0.0783,-0.44101 z"
       id="path6" />
    <path
       d="m 104.78004,151.54768 q 0.3925,0 0.74953,-0.14966 0.33931,-0.14205 0.63052,-0.4312 0.2836,-0.28155 0.42794,-0.63158 0.14683,-0.35003 0.14683,-0.75841 0,0.39823 0.13931,0.74319 0.1393,0.34496 0.43555,0.6468 0.27346,0.27901 0.63051,0.4312 0.3545,0.14966 0.74954,0.14966 -0.39504,0 -0.74954,0.14966 -0.35705,0.15218 -0.63051,0.4312 -0.29628,0.30184 -0.43555,0.6468 -0.13931,0.34497 -0.13931,0.74319 0,-0.40837 -0.14683,-0.75841 -0.14438,-0.35003 -0.42794,-0.63158 -0.29121,-0.28916 -0.63052,-0.4312 -0.35703,-0.14966 -0.74953,-0.14966 z"
       id="path831-5"
       style="font-size:3.16802px;fill:#f3f3f3;fill-opacity:1;stroke-width:1.05833;stroke-linejoin:round;stroke-dasharray:none" />
  </g>
</svg>
