<?xml version="1.0" encoding="UTF-8" standalone="no"?>
<!-- Created with Inkscape (http://www.inkscape.org/) -->

<svg
   width="27.986923"
   height="48.000004"
   viewBox="0 0 7.4048732 12.7"
   version="1.1"
   id="svg1104"
   xml:space="preserve"
   inkscape:version="1.3.2 (1:1.3.2+202311252150+091e20ef0f)"
   sodipodi:docname="cola.svg"
   xmlns:inkscape="http://www.inkscape.org/namespaces/inkscape"
   xmlns:sodipodi="http://sodipodi.sourceforge.net/DTD/sodipodi-0.dtd"
   xmlns:xlink="http://www.w3.org/1999/xlink"
   xmlns="http://www.w3.org/2000/svg"
   xmlns:svg="http://www.w3.org/2000/svg"><sodipodi:namedview
     id="namedview1106"
     pagecolor="#505050"
     bordercolor="#eeeeee"
     borderopacity="1"
     inkscape:showpageshadow="0"
     inkscape:pageopacity="0"
     inkscape:pagecheckerboard="true"
     inkscape:deskcolor="#505050"
     inkscape:document-units="px"
     showgrid="false"
     showguides="true"
     inkscape:zoom="11.313709"
     inkscape:cx="13.214057"
     inkscape:cy="30.273008"
     inkscape:window-width="2560"
     inkscape:window-height="1368"
     inkscape:window-x="0"
     inkscape:window-y="0"
     inkscape:window-maximized="1"
     inkscape:current-layer="g1"
     inkscape:pageshadow="0"
     units="px" /><defs
     id="defs1101"><linearGradient
       inkscape:collect="always"
       id="linearGradient25596"><stop
         style="stop-color:#ff8f1b;stop-opacity:1;"
         offset="0"
         id="stop25592" /><stop
         style="stop-color:#ff5600;stop-opacity:1;"
         offset="1"
         id="stop25594" /></linearGradient><linearGradient
       inkscape:collect="always"
       xlink:href="#linearGradient25596"
       id="linearGradient17991"
       x1="68.386719"
       y1="32.751953"
       x2="71.962891"
       y2="38.242188"
       gradientUnits="userSpaceOnUse"
       gradientTransform="matrix(1.5602408,0,0,1.5602408,6.0943433,-79.188077)" /></defs><g
     inkscape:label="Layer 1"
     inkscape:groupmode="layer"
     id="layer1"
     transform="translate(-111.83177,30.485153)"><g
       id="g1"
       transform="matrix(1.3875246,0,0,1.3625479,-43.571049,10.837824)"
       style="stroke-width:0.727284"><g
         id="g2"
         transform="matrix(0.75045961,0,0,0.75043718,27.963804,-7.5533967)"
         style="stroke-width:0.72685"><path
           style="fill:url(#linearGradient17991);fill-opacity:1;stroke:none;stroke-width:0.744331;stroke-linejoin:round;stroke-dasharray:none;stroke-opacity:1"
           d="m 112.79408,-28.087145 h 5.5797 v 8.566087 l -0.27274,0.271216 h -5.03574 l -0.27122,-0.271216 z"
           id="path17265" /><path
           style="fill:#9d9fa1;fill-opacity:1;stroke:none;stroke-width:0.744331;stroke-linejoin:round;stroke-miterlimit:4;stroke-dasharray:none;stroke-opacity:1"
           d="m 112.79408,-28.087145 0.71918,-1.605949 h 4.14135 l 0.71917,1.605949 z"
           id="path17321" /><path
           style="fill:#9d9fa1;fill-opacity:1;fill-rule:nonzero;stroke:none;stroke-width:0.744331;stroke-linejoin:round;stroke-miterlimit:4;stroke-dasharray:none;stroke-opacity:1"
           d="m 113.0653,-19.249842 0.42968,0.828878 h 4.17486 l 0.4312,-0.828878 z"
           id="path17323" /><g
           aria-label="✦"
           transform="matrix(1.5519486,0,0,1.5685776,-62.916492,16.665015)"
           id="text24045-48-8-7-3"
           style="font-size:3.16802px;fill:#f3f3f3;stroke-width:0.577572;stroke-linejoin:round"><path
             d="m 113.82279,-25.71343 q 0.23977,0 0.45788,-0.09127 0.20728,-0.08663 0.38517,-0.262971 0.17325,-0.171704 0.26142,-0.385174 0.0897,-0.21347 0.0897,-0.462519 0,0.242861 0.0851,0.453238 0.0851,0.210376 0.26607,0.394455 0.16706,0.170158 0.38517,0.262971 0.21656,0.09127 0.45788,0.09127 -0.24132,0 -0.45788,0.09127 -0.21811,0.09281 -0.38517,0.262971 -0.18099,0.184079 -0.26607,0.394455 -0.0851,0.210377 -0.0851,0.453237 0,-0.249048 -0.0897,-0.462518 -0.0882,-0.21347 -0.26142,-0.385174 -0.17789,-0.176345 -0.38517,-0.262971 -0.21811,-0.09127 -0.45788,-0.09127 z"
             id="path831"
             style="stroke-width:0.577572" /></g><path
           style="fill:none;fill-opacity:1;stroke:#232323;stroke-width:0.8974;stroke-linejoin:round;stroke-miterlimit:4;stroke-dasharray:none;stroke-opacity:1"
           d="m 112.4284,-19.698067 0.65527,0.653061 v 0.668684 h 4.90245 v -0.668684 l 0.65619,-0.653061 v -8.35829 l -0.73372,-1.039109 0.21595,-0.803914 h -5.17838 l 0.21595,0.803914 -0.73371,1.039109 z"
           id="path16453-1" /></g></g></g></svg>
