<?xml version="1.0" encoding="UTF-8" standalone="no"?>
<svg
   version="1.1"
   width="64"
   height="64"
   viewBox="0 0 64.000001 64.000002"
   id="svg92"
   sodipodi:docname="regular_helmet.svg"
   inkscape:version="1.4 (1:1.4+202410161351+e7c3feb100)"
   inkscape:export-filename="regular_helmet(Simplified).png"
   inkscape:export-xdpi="96"
   inkscape:export-ydpi="96"
   xmlns:inkscape="http://www.inkscape.org/namespaces/inkscape"
   xmlns:sodipodi="http://sodipodi.sourceforge.net/DTD/sodipodi-0.dtd"
   xmlns="http://www.w3.org/2000/svg"
   xmlns:svg="http://www.w3.org/2000/svg">
  <defs
     id="defs96" />
  <sodipodi:namedview
     id="namedview94"
     pagecolor="#505050"
     bordercolor="#ffffff"
     borderopacity="1"
     inkscape:pageshadow="0"
     inkscape:pageopacity="0"
     inkscape:pagecheckerboard="1"
     showgrid="false"
     inkscape:zoom="11.313708"
     inkscape:cx="41.233164"
     inkscape:cy="30.714951"
     inkscape:window-width="2560"
     inkscape:window-height="1368"
     inkscape:window-x="0"
     inkscape:window-y="0"
     inkscape:window-maximized="1"
     inkscape:current-layer="g1"
     inkscape:showpageshadow="0"
     inkscape:deskcolor="#505050" />
  <g
     id="g1">
    <path
       d="m 25.672939,49.560721 3.392267,1.907538 c 0,0 -2.904702,5.103211 -3.415773,5.974571 -0.107079,0.182567 -0.178539,0.278382 -0.30322,0.449407 -0.08481,0.116345 -0.451361,0.165728 -0.598327,0.08309 0,0 -1.968943,-1.04221 -2.279075,-1.216604 0.373231,-2.508758 1.761605,-5.023803 3.204128,-7.198 z"
       data-paper-data="{&quot;origRot&quot;:0,&quot;origPos&quot;:null}"
       fill="#7a7652"
       stroke="#59563c"
       stroke-width="0.945916"
       stroke-linecap="butt"
       id="path2"
       style="font-family:none;mix-blend-mode:normal;fill-rule:nonzero;stroke:#1f1e15;stroke-width:1.25;stroke-linejoin:miter;stroke-miterlimit:10;stroke-dasharray:none;stroke-dashoffset:0;stroke-opacity:1"
       sodipodi:nodetypes="ccsscsc" />
    <path
       d="m 30.570149,43.12924 c 0,0 2.625496,-2.273316 4.202058,-3.697602 0.613398,-0.55415 0.753149,-0.864572 1.377121,-1.406793 1.1122,-0.966478 3.144701,-2.476483 3.144701,-2.476483 l 2.475248,2.848775 c 0,0 -2.446826,1.841788 -3.861956,3.020627 -0.392875,0.327279 -0.37706,0.512416 -0.767583,0.842502 -0.221518,0.187235 -0.612081,0.291771 -0.834568,0.477857 -0.523398,0.437775 -0.57276,0.69472 -1.087736,1.142372 -0.860489,0.747998 -1.62233,1.154041 -2.502364,1.87894 -0.89138,0.734246 -2.02829,1.869698 -2.02829,1.869698 z"
       data-paper-data="{&quot;origRot&quot;:0,&quot;origPos&quot;:null}"
       fill="#7a7652"
       stroke="#59563c"
       stroke-width="0.945916"
       stroke-linecap="butt"
       id="path6"
       style="font-family:none;mix-blend-mode:normal;fill-rule:nonzero;stroke:#1f1e15;stroke-width:1.25;stroke-linejoin:miter;stroke-miterlimit:10;stroke-dasharray:none;stroke-dashoffset:0;stroke-opacity:1" />
    <path
       d="m 34.887524,51.954941 c 2.086358,-4.012471 2.598696,-5.501507 3.278308,-8.604861 0.218762,-0.733091 0.765298,-1.862224 0.765298,-1.862224 l 4.01369,0.777142 c -1.567482,6.054196 -3.17197,12.27495 -8.561143,16.116038 0,0 -2.210657,-1.288006 -2.428628,-2.477718 -0.194301,-1.060519 1.653414,-1.742311 2.932475,-3.948377 z"
       data-paper-data="{&quot;origPos&quot;:null,&quot;origRot&quot;:0,&quot;index&quot;:null}"
       fill="#736f4d"
       stroke="#59563c"
       stroke-width="0.945916"
       stroke-linecap="butt"
       id="path8"
       style="font-family:none;mix-blend-mode:normal;fill-rule:nonzero;stroke:#1f1e15;stroke-width:1.25;stroke-linejoin:miter;stroke-miterlimit:10;stroke-dasharray:none;stroke-dashoffset:0;stroke-opacity:1"
       sodipodi:nodetypes="cscccsc" />
    <path
       d="m 38.811428,41.921506 c 0,0 0.125424,-1.41228 0.148325,-1.716217 0.0077,-0.101313 -0.08612,-0.180428 -0.07537,-0.281368 0.05679,-0.533034 0.237768,-0.815074 0.285563,-1.349177 0.01521,-0.169913 -0.07616,-0.277349 -0.05717,-0.446811 0.02938,-0.262327 0.19688,-0.40238 0.221781,-0.665244 0.02983,-0.314871 -0.02314,-0.81866 -0.02314,-0.81866 l 4.049504,0.481565 c 0,0 0.178362,0.573766 0.164833,0.919115 -0.02552,0.651344 -0.236439,0.983789 -0.271904,1.633973 -0.01528,0.280319 0.02454,0.44373 -0.0019,0.722736 -0.0054,0.05667 -0.109466,0.087 -0.116345,0.143499 -0.07624,0.626421 0.0075,1.332306 -0.03778,1.634276 -0.01509,0.100658 -0.236906,0.223874 -0.236906,0.223874 z"
       data-paper-data="{&quot;origPos&quot;:null,&quot;origRot&quot;:0}"
       fill="#7a7652"
       stroke="#676345"
       stroke-width="0.947285"
       stroke-linecap="butt"
       id="path12"
       style="font-family:none;mix-blend-mode:normal;fill-rule:nonzero;stroke-linejoin:miter;stroke-miterlimit:10;stroke-dasharray:none;stroke-dashoffset:0" />
    <path
       d="m 28.664224,57.840886 c 1.048241,-0.966735 3.251979,-2.475685 4.13608,-3.315518 l 2.473806,3.242195 c -1.816039,1.703794 -3.069258,4.729756 -4.136081,3.315508 z"
       data-paper-data="{&quot;origPos&quot;:null,&quot;origRot&quot;:0}"
       fill="#7a7652"
       stroke="#59563c"
       stroke-width="0.945916"
       stroke-linecap="butt"
       id="path14"
       style="font-family:none;mix-blend-mode:normal;fill-rule:nonzero;stroke:#1f1e15;stroke-width:1.25;stroke-linejoin:miter;stroke-miterlimit:10;stroke-dasharray:none;stroke-dashoffset:0;stroke-opacity:1"
       sodipodi:nodetypes="ccccc" />
    <path
       d="m 26.737483,43.083791 c 0.06151,-0.641505 0.167322,-1.74503 0.274419,-2.861941 0.01739,-0.181198 0.362087,-0.433847 0.565345,-0.414354 2.552926,0.244815 5.876402,0.563522 6.54155,0.627306 0.221717,0.02126 0.530939,0.442268 0.507141,0.690472 -0.0714,0.744612 -0.150242,1.566895 -0.246405,2.569784 -0.02502,0.260848 -0.452219,0.631168 -0.700642,0.607345 -0.745273,-0.07146 -3.953002,-0.379078 -6.483124,-0.621705 -0.199354,-0.01913 -0.478789,-0.383075 -0.458286,-0.59691 z"
       data-paper-data="{&quot;origPos&quot;:null,&quot;origRot&quot;:0}"
       fill="#7a7652"
       stroke="#59563c"
       stroke-width="0.947285"
       stroke-linecap="butt"
       id="path16"
       style="font-family:none;mix-blend-mode:normal;fill-rule:nonzero;stroke-linejoin:miter;stroke-miterlimit:10;stroke-dasharray:none;stroke-dashoffset:0;stroke:#1f1f16;stroke-opacity:1" />
    <path
       d="m 25.842972,49.578472 c 2.505037,-6.758907 2.76709,-5.877025 4.305799,-10.059102 0.03374,-0.0917 0.310592,-0.143572 0.454297,-0.08496 1.129583,0.460666 2.495101,1.017555 2.894416,1.180404 0.133107,0.05428 0.265561,0.292732 0.217584,0.39124 -2.370275,4.866824 -1.348554,3.953883 -4.268387,10.042092 l 0.607832,6.520605 c 0,0 -2.021253,0.903267 -3.342135,0.364583 -0.546404,-0.222836 -0.869404,-8.354858 -0.869404,-8.354858 z"
       data-paper-data="{&quot;origRot&quot;:0,&quot;origPos&quot;:null}"
       fill="#7a7652"
       stroke="#59563c"
       stroke-width="0.945916"
       stroke-linecap="butt"
       id="path18"
       style="font-family:none;mix-blend-mode:normal;fill-rule:nonzero;stroke:#1f1e15;stroke-width:1.25;stroke-linejoin:miter;stroke-miterlimit:10;stroke-dasharray:none;stroke-dashoffset:0;stroke-opacity:1"
       sodipodi:nodetypes="cscssccscc" />
    <path
       d="m 27.497444,44.845557 c 0.279307,-0.760913 0.569246,-1.550795 0.715688,-1.949746 0.04881,-0.132985 0.299818,-0.27661 0.411659,-0.23555 0.335522,0.123174 2.278467,0.836447 3.736805,1.371816 0.140902,0.05172 0.306502,0.38576 0.249931,0.539882 -0.261205,0.711594 -0.449151,1.223625 -0.6693,1.823374 -0.07339,0.199916 -0.461836,0.411746 -0.637083,0.34741 0,0 -3.112,-1.142443 -3.574334,-1.312172 -0.154112,-0.05657 -0.296404,-0.41328 -0.233364,-0.585014 z"
       data-paper-data="{&quot;origPos&quot;:null,&quot;origRot&quot;:0}"
       fill="none"
       stroke="#6d6d6d"
       stroke-width="0.947285"
       stroke-linecap="butt"
       id="path20"
       style="font-family:none;mix-blend-mode:normal;fill-rule:nonzero;stroke-linejoin:miter;stroke-miterlimit:10;stroke-dasharray:none;stroke-dashoffset:0" />
    <path
       d="m 30.65396,41.668117 c 0,-0.369099 0.299198,-0.668313 0.668273,-0.668313 0.36908,0 0.668276,0.299214 0.668276,0.668313 0,0.369099 -0.299196,0.668314 -0.668276,0.668314 -0.369078,0 -0.668273,-0.299215 -0.668273,-0.668314 z"
       data-paper-data="{&quot;origPos&quot;:null}"
       fill="#5a5a5a"
       stroke="#484848"
       stroke-width="0.355232"
       stroke-linecap="butt"
       id="path22"
       style="font-family:none;mix-blend-mode:normal;fill-rule:nonzero;stroke-linejoin:miter;stroke-miterlimit:10;stroke-dasharray:none;stroke-dashoffset:0" />
    <path
       d="m 29.317411,44.655866 c 0,-0.369099 0.299196,-0.668313 0.668273,-0.668313 0.369078,0 0.668274,0.299214 0.668274,0.668313 0,0.3691 -0.299198,0.668314 -0.668274,0.668314 -0.369079,0 -0.668273,-0.299214 -0.668273,-0.668314 z"
       data-paper-data="{&quot;origPos&quot;:null}"
       fill="#5a5a5a"
       stroke="#484848"
       stroke-width="0.355232"
       stroke-linecap="butt"
       id="path24"
       style="font-family:none;mix-blend-mode:normal;fill-rule:nonzero;stroke-linejoin:miter;stroke-miterlimit:10;stroke-dasharray:none;stroke-dashoffset:0" />
    <path
       d="m 28.059483,47.722239 c 0,-0.3691 0.299197,-0.668313 0.668273,-0.668313 0.369078,0 0.668277,0.299213 0.668277,0.668313 0,0.3691 -0.299199,0.668315 -0.668277,0.668315 -0.369078,0 -0.668273,-0.299215 -0.668273,-0.668315 z"
       data-paper-data="{&quot;origPos&quot;:null}"
       fill="#5a5a5a"
       stroke="#484848"
       stroke-width="0.355232"
       stroke-linecap="butt"
       id="path26"
       style="font-family:none;mix-blend-mode:normal;fill-rule:nonzero;stroke-linejoin:miter;stroke-miterlimit:10;stroke-dasharray:none;stroke-dashoffset:0" />
    <path
       d="m 29.474652,45.874554 0.432412,-1.061437"
       data-paper-data="{&quot;origPos&quot;:null}"
       fill="none"
       stroke="#6d6d6d"
       stroke-width="0.947285"
       stroke-linecap="round"
       id="path28"
       style="font-family:none;mix-blend-mode:normal;fill-rule:nonzero;stroke-linejoin:miter;stroke-miterlimit:10;stroke-dasharray:none;stroke-dashoffset:0" />
    <path
       d="m 28.540465,58.460148 c 0.400045,-0.334121 0.625022,-0.522025 1.025069,-0.856151 0.280032,-0.233885 1.082947,-0.161764 1.316819,0.118283 0.701621,0.840144 1.539889,1.843919 2.525498,3.024122 0.334104,0.400067 0.449838,1.364443 0.189807,1.581625 -0.480055,0.400949 -0.750026,0.626431 -1.23008,1.027379 -0.380045,0.317417 -1.548012,0.12578 -1.915527,-0.314296 -0.68323,-0.818125 -1.094133,-1.310156 -1.750691,-2.09634 -0.218853,-0.262063 -0.34193,-0.409439 -0.560782,-0.671502 -0.28399,-0.340058 -0.02017,-1.46229 0.399887,-1.81312 z"
       data-paper-data="{&quot;origPos&quot;:null,&quot;origRot&quot;:0}"
       fill="none"
       stroke="#6d6d6d"
       stroke-width="0.947285"
       stroke-linecap="butt"
       id="path30"
       style="font-family:none;mix-blend-mode:normal;fill-rule:nonzero;stroke-linejoin:miter;stroke-miterlimit:10;stroke-dasharray:none;stroke-dashoffset:0" />
    <path
       d="m 23.208549,56.556749 c 1.663069,0 1.899047,-3.648682 3.643697,-6.288403 l 3.392268,1.907537 c -1.248574,2.135172 -2.399059,4.333405 -3.718995,6.423977 -1.152651,0.227415 -2.334284,-0.893075 -3.349124,-1.463739 -0.103378,-0.05813 -0.08296,-0.41084 0.03216,-0.579372 z"
       data-paper-data="{&quot;origRot&quot;:0,&quot;origPos&quot;:null}"
       fill="#7a7652"
       stroke="#59563c"
       stroke-width="0.945916"
       stroke-linecap="butt"
       id="path32"
       style="font-family:none;mix-blend-mode:normal;fill-rule:nonzero;stroke:#1f1e15;stroke-width:1.5;stroke-linejoin:miter;stroke-miterlimit:10;stroke-dasharray:none;stroke-dashoffset:0;stroke-opacity:1"
       sodipodi:nodetypes="sccscss" />
    <path
       d="m 29.18795,47.964547 c 0,0 -1.547439,-2.536865 -2.574593,-4.161236 -2.608814,-4.376987 -3.776585,-5.136527 -5.045752,-7.817792 l 2.950807,-1.951941 c 2.03852,3.322048 4.326971,6.46568 6.441037,9.738217 z"
       data-paper-data="{&quot;origRot&quot;:0,&quot;origPos&quot;:null}"
       fill="#7a7652"
       stroke="#59563c"
       stroke-width="0.945916"
       stroke-linecap="butt"
       id="path34"
       style="font-family:none;mix-blend-mode:normal;fill-rule:nonzero;stroke:#1f1e15;stroke-width:1.25;stroke-linejoin:miter;stroke-miterlimit:10;stroke-dasharray:none;stroke-dashoffset:0;stroke-opacity:1"
       sodipodi:nodetypes="cscccc" />
    <path
       d="m 31.749458,43.836863 c 2.916458,-2.557623 5.630498,-5.247428 8.72388,-7.580876 l 2.475246,2.848774 c -7.449433,5.619487 -3.562809,3.281398 -9.054205,7.362299 -0.89138,0.734246 -2.028291,1.869697 -2.028291,1.869697 z"
       data-paper-data="{&quot;origRot&quot;:0,&quot;origPos&quot;:null}"
       fill="#7a7652"
       stroke="#59563c"
       stroke-width="0.945916"
       stroke-linecap="butt"
       id="path36"
       style="font-family:none;mix-blend-mode:normal;fill-rule:nonzero;stroke:#1f1e15;stroke-width:1.25;stroke-linejoin:miter;stroke-miterlimit:10;stroke-dasharray:none;stroke-dashoffset:0;stroke-opacity:1"
       sodipodi:nodetypes="cccscc" />
    <path
       d="m 36.066832,52.662566 c 3.192181,-2.935685 3.014623,-5.560811 4.043606,-10.467084 l 4.013689,0.77714 c 0,0 -0.385405,1.037261 -0.568912,1.713388 -0.481884,3.292681 -1.761326,6.447926 -3.264339,9.403032 0,0 -4.250937,5.101092 -4.727891,4.999618 0,0 -2.210656,-1.288006 -2.428628,-2.477717 -0.194301,-1.060519 0.811868,-1.58646 2.932475,-3.948377 z"
       data-paper-data="{&quot;origPos&quot;:null,&quot;origRot&quot;:0,&quot;index&quot;:null}"
       fill="#736f4d"
       stroke="#59563c"
       stroke-width="0.945916"
       stroke-linecap="butt"
       id="path38"
       style="font-family:none;mix-blend-mode:normal;fill-rule:nonzero;stroke:#1f1e15;stroke-width:1.25;stroke-linejoin:miter;stroke-miterlimit:10;stroke-dasharray:none;stroke-dashoffset:0;stroke-opacity:1"
       sodipodi:nodetypes="cccsccsc" />
    <path
       d="m 38.617344,37.873766 c 0,-0.718839 0.200863,-1.799777 0.200863,-1.799777 l 7.476223,0.820261 c 0,0 -0.06076,0.918374 -0.255542,1.674819 -0.209757,0.814601 -1.057375,1.282288 -1.630532,1.313339 -1.71171,0.09272 -2.98296,0.59706 -4.884465,0.08752 -1.006852,-0.2698 -0.906547,-1.231184 -0.906547,-2.096167 z"
       data-paper-data="{&quot;origPos&quot;:null,&quot;origRot&quot;:0}"
       fill="none"
       stroke="#bcbcbc"
       stroke-width="0.945916"
       stroke-linecap="butt"
       id="path40"
       style="font-family:none;mix-blend-mode:normal;fill-rule:nonzero;stroke-width:1.50217;stroke-linejoin:miter;stroke-miterlimit:10;stroke-dasharray:none;stroke-dashoffset:0"
       sodipodi:nodetypes="sccssss" />
    <path
       d="m 39.990734,42.62913 c 0.07956,-2.621814 0.474161,-3.572782 0.499987,-5.277476 l 4.049505,0.481564 c 0.239831,1.686287 -0.254174,3.349916 -0.263091,5.053601 -0.01509,0.100657 -0.236906,0.223873 -0.236906,0.223873 z"
       data-paper-data="{&quot;origPos&quot;:null,&quot;origRot&quot;:0}"
       fill="#7a7652"
       stroke="#59563c"
       stroke-width="0.945916"
       stroke-linecap="butt"
       id="path42"
       style="font-family:none;mix-blend-mode:normal;fill-rule:nonzero;stroke:#1f1e15;stroke-width:1.25;stroke-linejoin:miter;stroke-miterlimit:10;stroke-dasharray:none;stroke-dashoffset:0;stroke-opacity:1"
       sodipodi:nodetypes="cccscc" />
    <path
       style="fill:#505d3e;stroke-width:0.999999;stroke-miterlimit:10"
       d="M 8.756036,23.941495 C 9.5984227,10.038811 21.900213,0.09603662 35.831002,1.357144 c 13.930787,1.2611097 24.185214,13.562701 22.797603,27.426621 -0.09134,0.912551 0.170695,1.420938 0.585676,2.244572 0.177189,0.50757 2.294155,0.949773 2.173393,1.475602 -0.0122,0.554656 -1.191248,1.134895 -2.394123,1.509977 -1.779741,0.554963 -2.880284,0.895841 -4.641545,1.507016 -8.874456,3.079531 -16.558978,2.395336 -25.623051,1.0993 0,0 -5.140328,-0.761305 -9.617894,-1.363613 -3.503402,-0.404387 -8.980933,-0.383524 -8.980933,-0.383524 0,0 -2.9176999,-0.04866 -5.1660388,-0.06087 -1.0968907,-0.006 -2.2459753,-0.0096 -2.3497473,-0.418783 -0.092309,-0.363971 0.7651704,-0.734627 1.7799766,-1.410113 1.003874,-0.668211 2.3337725,-1.211635 3.2103992,-2.037521 0.5507297,-0.518848 0.7999695,-0.821112 0.8091562,-1.571028 0.026028,-2.124189 -0.0047,0.29136 0.3421621,-5.433295 z"
       id="path3" />
    <path
       d="M 20.337395,31.675172 8.9486526,30.845258 c 0,0 0.2352011,-0.358696 0.3256872,-0.590658 0.1295351,-0.332067 0.1083925,-0.87978 0.1083925,-0.87978 z"
       data-paper-data="{&quot;origPos&quot;:null,&quot;origRot&quot;:0}"
       fill="#495539"
       stroke="none"
       stroke-width="0"
       id="path46"
       style="font-family:none;mix-blend-mode:normal;fill-rule:nonzero;stroke-linecap:butt;stroke-linejoin:miter;stroke-miterlimit:10;stroke-dasharray:none;stroke-dashoffset:0"
       sodipodi:nodetypes="ccscc" />
    <path
       d="m 48.88205,32.859842 8.868312,-2.675668 c 0,0 0.105187,0.264314 0.182594,0.429906 0.09576,0.204843 0.195222,0.524888 0.195222,0.524888 z"
       data-paper-data="{&quot;origPos&quot;:null}"
       fill="#495539"
       stroke="none"
       stroke-width="0"
       id="path48"
       style="font-family:none;mix-blend-mode:normal;fill-rule:nonzero;stroke-linecap:butt;stroke-linejoin:miter;stroke-miterlimit:10;stroke-dasharray:none;stroke-dashoffset:0"
       sodipodi:nodetypes="ccscc" />
    <path
       d="m 29.344837,59.078402 c 1.275242,-0.960098 2.505844,-2.113035 3.564591,-2.728915 0.273379,-0.159025 0.571491,-0.586601 0.571491,-0.586601 l 2.473806,3.242195 c -0.571131,1.030852 -4.043108,3.273778 -4.136081,3.315497 z"
       data-paper-data="{&quot;origPos&quot;:null,&quot;origRot&quot;:0}"
       fill="#7a7652"
       stroke="#59563c"
       stroke-width="0.945916"
       stroke-linecap="butt"
       id="path70"
       style="font-family:none;mix-blend-mode:normal;fill-rule:nonzero;stroke:#1f1e15;stroke-width:1.25;stroke-linejoin:miter;stroke-miterlimit:10;stroke-dasharray:none;stroke-dashoffset:0;stroke-opacity:1"
       sodipodi:nodetypes="cscccc" />
    <path
       d="m 27.916791,43.791416 c 0.06151,-0.641504 0.167323,-1.745031 0.274418,-2.861942 0.01738,-0.181199 0.362087,-0.433846 0.565346,-0.414353 2.552926,0.244814 5.876401,0.563521 6.54155,0.627306 0.221717,0.02126 0.530939,0.442269 0.507141,0.690472 -0.07139,0.744613 -0.150242,1.566894 -0.246405,2.569784 -0.02502,0.260847 -0.452219,0.631167 -0.700643,0.607345 -0.745271,-0.07146 -3.953,-0.379077 -6.483123,-0.621705 -0.199354,-0.01913 -0.478789,-0.383075 -0.458286,-0.59691 z"
       data-paper-data="{&quot;origPos&quot;:null,&quot;origRot&quot;:0}"
       fill="#7a7652"
       stroke="#59563c"
       stroke-width="0.945916"
       stroke-linecap="butt"
       id="path72"
       style="font-family:none;mix-blend-mode:normal;fill-rule:nonzero;stroke:#1f1e15;stroke-width:1.25;stroke-linejoin:miter;stroke-miterlimit:10;stroke-dasharray:none;stroke-dashoffset:0;stroke-opacity:1" />
    <path
       d="m 27.022279,50.286096 c 1.506749,-3.316174 2.990789,-6.659937 4.3058,-10.059101 0.138186,-0.375574 2.671962,0.641835 3.566297,1.486671 -2.370276,4.866826 -1.348556,3.953883 -4.268386,10.042093 l 0.607831,6.520604 c 0,0 -2.021253,0.903267 -3.342135,0.364582 -0.546404,-0.222834 -0.869405,-8.354857 -0.869405,-8.354857 z"
       data-paper-data="{&quot;origRot&quot;:0,&quot;origPos&quot;:null}"
       fill="#7a7652"
       stroke="#59563c"
       stroke-width="0.945916"
       stroke-linecap="butt"
       id="path74"
       style="font-family:none;mix-blend-mode:normal;fill-rule:nonzero;stroke:#1f1e15;stroke-width:1.25;stroke-linejoin:miter;stroke-miterlimit:10;stroke-dasharray:none;stroke-dashoffset:0;stroke-opacity:1"
       sodipodi:nodetypes="cssccscc" />
    <path
       d="m 28.676752,45.553182 c 0.279306,-0.760914 0.569247,-1.550796 0.715688,-1.949747 0.04881,-0.132984 0.299818,-0.276608 0.411658,-0.23555 0.335524,0.123174 2.278468,0.836449 3.736805,1.371816 0.140903,0.05172 0.306503,0.385761 0.249931,0.539883 -0.261202,0.711595 -0.449151,1.223625 -0.669299,1.823373 -0.07338,0.199915 -0.461836,0.411746 -0.637084,0.34741 0,0 -3.111999,-1.142442 -3.574334,-1.31217 -0.154112,-0.05657 -0.296402,-0.413282 -0.233363,-0.585015 z"
       data-paper-data="{&quot;origPos&quot;:null,&quot;origRot&quot;:0}"
       fill="none"
       stroke="#6d6d6d"
       stroke-width="0.947285"
       stroke-linecap="butt"
       id="path78"
       style="font-family:none;mix-blend-mode:normal;fill-rule:nonzero;stroke-linejoin:miter;stroke-miterlimit:10;stroke-dasharray:none;stroke-dashoffset:0" />
    <path
       d="m 31.833269,42.375741 c 0,-0.369099 0.299196,-0.668313 0.668274,-0.668313 0.369078,0 0.668275,0.299214 0.668275,0.668313 0,0.3691 -0.299197,0.668315 -0.668275,0.668315 -0.369081,0 -0.668274,-0.299215 -0.668274,-0.668315 z"
       data-paper-data="{&quot;origPos&quot;:null}"
       fill="#5a5a5a"
       stroke="#484848"
       stroke-width="0.355232"
       stroke-linecap="butt"
       id="path80"
       style="font-family:none;mix-blend-mode:normal;fill-rule:nonzero;stroke-linejoin:miter;stroke-miterlimit:10;stroke-dasharray:none;stroke-dashoffset:0" />
    <path
       d="m 30.496719,45.363491 c 0,-0.3691 0.299196,-0.668314 0.668273,-0.668314 0.369078,0 0.668275,0.299214 0.668275,0.668314 0,0.369099 -0.299199,0.668314 -0.668275,0.668314 -0.369079,0 -0.668273,-0.299215 -0.668273,-0.668314 z"
       data-paper-data="{&quot;origPos&quot;:null}"
       fill="#5a5a5a"
       stroke="#484848"
       stroke-width="0.355232"
       stroke-linecap="butt"
       id="path82"
       style="font-family:none;mix-blend-mode:normal;fill-rule:nonzero;stroke-linejoin:miter;stroke-miterlimit:10;stroke-dasharray:none;stroke-dashoffset:0" />
    <path
       d="m 29.238791,48.429864 c 0,-0.369099 0.299197,-0.668313 0.668273,-0.668313 0.369079,0 0.668278,0.299214 0.668278,0.668313 0,0.3691 -0.299199,0.668313 -0.668278,0.668313 -0.369078,0 -0.668273,-0.299213 -0.668273,-0.668313 z"
       data-paper-data="{&quot;origPos&quot;:null}"
       fill="#5a5a5a"
       stroke="#484848"
       stroke-width="0.355232"
       stroke-linecap="butt"
       id="path84"
       style="font-family:none;mix-blend-mode:normal;fill-rule:nonzero;stroke-linejoin:miter;stroke-miterlimit:10;stroke-dasharray:none;stroke-dashoffset:0" />
    <path
       d="m 30.65396,46.582178 0.432412,-1.061437"
       data-paper-data="{&quot;origPos&quot;:null}"
       fill="none"
       stroke="#6d6d6d"
       stroke-width="0.947285"
       stroke-linecap="round"
       id="path86"
       style="font-family:none;mix-blend-mode:normal;fill-rule:nonzero;stroke-linejoin:miter;stroke-miterlimit:10;stroke-dasharray:none;stroke-dashoffset:0" />
    <path
       style="fill:#586544;fill-opacity:1;stroke:none;stroke-width:0.501;stroke-linecap:round;stroke-linejoin:round;stroke-miterlimit:29;stroke-dasharray:none;stroke-opacity:1"
       d="m 9.4652606,28.449609 c 0,0 -1.1532312,-14.120085 8.5713134,-20.8528427 9.724545,-6.73275642 14.649154,-5.4859497 20.446478,-4.9248866 0,0 13.464755,2.3065923 18.327027,16.1461473 0,0 1.479392,5.508259 0.856023,9.547202 0,0 -5.2196,-21.8905888 -23.421953,-21.8905888 -18.202353,0 -24.7788884,21.9749688 -24.7788884,21.9749688 z"
       id="path1"
       sodipodi:nodetypes="cscccsc" />
    <path
       style="fill:#1b1f15;stroke-width:0.999999;stroke-miterlimit:10;fill-opacity:1"
       d="M 35.944223,0.11236825 C 21.360147,-1.2078789 8.3938014,9.2664963 7.5091533,23.866658 c -0.1729242,2.853956 -0.250385,3.649767 -0.287891,4.013193 -0.037506,0.363425 -0.043399,0.418515 -0.056411,1.480387 -0.00292,0.238553 -0.020039,0.235511 -0.04085,0.272345 -0.02081,0.03683 -0.119739,0.161796 -0.3754254,0.402682 -0.6165559,0.580868 -1.8786551,1.131203 -3.0461979,1.908357 -0.4600084,0.306196 -0.9049168,0.549273 -1.3130162,0.824815 -0.2040498,0.137771 -0.4033752,0.272988 -0.6244123,0.529127 -0.221037,0.256139 -0.5106901,0.815543 -0.3618089,1.402575 0.1609525,0.63471 0.6652025,0.951225 0.9881664,1.085488 0.3229637,0.134264 0.5957113,0.176338 0.8753441,0.210095 0.5592658,0.06751 1.1429575,0.06316 1.6903869,0.06614 2.2361718,0.01213 5.152859,0.06031 5.152859,0.06031 l 0.01167,0.002 0.01362,-0.002 c 0,0 5.45641,-0.01018 8.809853,0.373502 0.0037,4.26e-4 0.006,0.0015 0.0098,0.002 4.461717,0.600318 9.591827,1.359777 9.591827,1.359777 h 0.002 0.0039 c 9.101046,1.301323 17.070001,2.016071 26.209752,-1.155519 1.744896,-0.605495 2.823635,-0.93875 4.604311,-1.494005 0.665503,-0.207518 1.324375,-0.465278 1.902414,-0.803417 0.289019,-0.169069 0.559564,-0.352967 0.815042,-0.622502 0.228798,-0.241386 0.434838,-0.636196 0.494084,-1.120504 C 62.62497,32.23595 62.50992,31.797202 62.3428,31.57018 62.156825,31.317625 61.980147,31.191396 61.819471,31.083845 61.498119,30.868743 61.202067,30.743778 60.92273,30.618913 60.660885,30.501846 60.432799,30.397026 60.288519,30.321226 59.961435,29.682658 59.814931,29.481532 59.872244,28.908924 61.327934,14.364813 50.547021,1.4343128 35.944223,0.11236825 Z M 35.718579,2.6023765 c 13.258777,1.2002748 22.985274,12.8738175 21.665742,26.0575465 -0.112674,1.125713 0.26143,1.996186 0.6497,2.779862 4.12e-4,0.0012 0.0015,7.65e-4 0.002,0.002 0.280988,0.801569 0.706301,0.888626 1.009564,1.054363 0.05991,0.03274 0.11018,0.05005 0.169233,0.07976 -0.211511,0.08434 -0.363193,0.173361 -0.593289,0.24511 -1.778805,0.554671 -2.902548,0.902441 -4.680174,1.519294 -8.607261,2.986811 -16.004621,2.332874 -25.029008,1.04269 h -0.0059 c -0.0061,-9.03e-4 -5.141234,-0.761962 -9.628787,-1.365613 l -0.01167,-0.002 h -0.01167 c -3.655688,-0.421963 -9.128867,-0.392954 -9.128867,-0.392954 -0.02378,-3.96e-4 -2.3442041,-0.03244 -4.3358718,-0.05058 0.8211074,-0.454891 1.7725947,-0.867749 2.6727177,-1.715771 0.2950434,-0.277964 0.5945971,-0.562569 0.8383853,-0.994058 0.2437881,-0.43149 0.3574897,-0.961243 0.3637542,-1.472607 0.013017,-1.062316 0.00244,-0.861777 0.042795,-1.252785 C 9.747597,27.745628 9.8289773,26.887149 10.002916,24.016451 10.803041,10.811244 22.441081,1.400413 35.718583,2.6023805 Z"
       id="path4" />
  </g>
</svg>
