<?xml version="1.0" encoding="UTF-8" standalone="no"?>
<svg
   version="1.1"
   width="64"
   height="64"
   viewBox="0 0 63.999999 63.999998"
   id="svg259"
   sodipodi:docname="regular_pack.svg"
   inkscape:version="1.4 (1:1.4+202410161351+e7c3feb100)"
   inkscape:export-filename="regular_pack(Simplified).png"
   inkscape:export-xdpi="96"
   inkscape:export-ydpi="96"
   xmlns:inkscape="http://www.inkscape.org/namespaces/inkscape"
   xmlns:sodipodi="http://sodipodi.sourceforge.net/DTD/sodipodi-0.dtd"
   xmlns:xlink="http://www.w3.org/1999/xlink"
   xmlns="http://www.w3.org/2000/svg"
   xmlns:svg="http://www.w3.org/2000/svg">
  <sodipodi:namedview
     id="namedview261"
     pagecolor="#505050"
     bordercolor="#ffffff"
     borderopacity="1"
     inkscape:pageshadow="0"
     inkscape:pageopacity="0"
     inkscape:pagecheckerboard="1"
     showgrid="false"
     inkscape:zoom="15.960213"
     inkscape:cx="32.173756"
     inkscape:cy="33.865462"
     inkscape:window-width="2560"
     inkscape:window-height="1368"
     inkscape:window-x="0"
     inkscape:window-y="0"
     inkscape:window-maximized="1"
     inkscape:current-layer="svg259"
     inkscape:showpageshadow="0"
     inkscape:deskcolor="#505050"
     showguides="false" />
  <defs
     id="defs97">
    <linearGradient
       id="linearGradient18"
       inkscape:collect="always">
      <stop
         style="stop-color:#586647;stop-opacity:1;"
         offset="0"
         id="stop16" />
      <stop
         style="stop-color:#39432c;stop-opacity:1;"
         offset="1"
         id="stop18" />
    </linearGradient>
    <linearGradient
       id="linearGradient12"
       inkscape:collect="always">
      <stop
         style="stop-color:#586747;stop-opacity:1;"
         offset="0"
         id="stop13" />
      <stop
         style="stop-color:#3a452d;stop-opacity:1;"
         offset="1"
         id="stop15" />
    </linearGradient>
    <linearGradient
       x1="203.5132"
       y1="88.276344"
       x2="288.9285"
       y2="173.69164"
       gradientUnits="userSpaceOnUse"
       id="color-1"
       gradientTransform="matrix(0.27482022,0,0,0.27476955,-33.967574,-16.118971)">
      <stop
         offset="0"
         stop-color="#505d3e"
         id="stop2"
         style="stop-color:#596546;stop-opacity:1;" />
      <stop
         offset="1"
         stop-color="#404d2e"
         id="stop4"
         style="stop-color:#475633;stop-opacity:1;" />
    </linearGradient>
    <linearGradient
       x1="195.39374"
       y1="120.21913"
       x2="289.75659"
       y2="283.6604"
       gradientUnits="userSpaceOnUse"
       id="color-2"
       gradientTransform="matrix(0.27482022,0,0,0.27476955,-33.967574,-16.058861)">
      <stop
         offset="0"
         stop-color="#5f6e49"
         id="stop7"
         style="stop-color:#5f6e4a;stop-opacity:1;" />
      <stop
         offset="1"
         stop-color="#505d3e"
         id="stop9"
         style="stop-color:#475239;stop-opacity:1;" />
    </linearGradient>
    <linearGradient
       x1="197.29794"
       y1="104.65742"
       x2="197.29794"
       y2="105.82581"
       gradientUnits="userSpaceOnUse"
       id="color-3"
       gradientTransform="matrix(0.28640101,0,0,0.28640101,-36.925985,-19.210033)">
      <stop
         offset="0"
         stop-color="#c28b13"
         id="stop12" />
      <stop
         offset="1"
         stop-color="#cda537"
         id="stop14" />
    </linearGradient>
    <linearGradient
       x1="239.88084"
       y1="94.386742"
       x2="239.88084"
       y2="100.30099"
       gradientUnits="userSpaceOnUse"
       id="color-4"
       gradientTransform="matrix(0.28640101,0,0,0.28640101,-36.925985,-19.210033)">
      <stop
         offset="0"
         stop-color="#4f5c3d"
         id="stop17" />
      <stop
         offset="1"
         stop-color="#4f5c3d"
         stop-opacity="0"
         id="stop19" />
    </linearGradient>
    <linearGradient
       x1="244.08907"
       y1="94.159271"
       x2="244.08907"
       y2="103.03065"
       gradientUnits="userSpaceOnUse"
       id="color-5"
       gradientTransform="matrix(0.28640101,0,0,0.28640101,-36.925985,-19.210033)">
      <stop
         offset="0"
         stop-color="#4f5c3d"
         id="stop22" />
      <stop
         offset="1"
         stop-color="#4f5c3d"
         stop-opacity="0"
         id="stop24" />
    </linearGradient>
    <radialGradient
       cx="193.36298"
       cy="103.25812"
       r="4.7768998"
       gradientUnits="userSpaceOnUse"
       id="color-6"
       gradientTransform="matrix(0.28640101,0,0,0.28640101,-36.925985,-19.210033)">
      <stop
         offset="0"
         stop-color="#4f5c3d"
         id="stop27" />
      <stop
         offset="1"
         stop-color="#4f5c3d"
         stop-opacity="0"
         id="stop29" />
    </radialGradient>
    <radialGradient
       cx="285.93942"
       cy="102.57134"
       r="4.7768998"
       gradientUnits="userSpaceOnUse"
       id="color-7"
       gradientTransform="matrix(0.28640101,0,0,0.28640101,-36.925985,-19.210033)">
      <stop
         offset="0"
         stop-color="#4f5c3d"
         id="stop32" />
      <stop
         offset="1"
         stop-color="#4f5c3d"
         stop-opacity="0"
         id="stop34" />
    </radialGradient>
    <radialGradient
       cx="284.11526"
       cy="99.38237"
       r="4.7768998"
       gradientUnits="userSpaceOnUse"
       id="color-8"
       gradientTransform="matrix(0.28640101,0,0,0.28640101,-36.925985,-19.210033)">
      <stop
         offset="0"
         stop-color="#4f5c3d"
         id="stop37" />
      <stop
         offset="1"
         stop-color="#4f5c3d"
         stop-opacity="0"
         id="stop39" />
    </radialGradient>
    <radialGradient
       cx="195.62459"
       cy="99.832947"
       r="4.7768998"
       gradientUnits="userSpaceOnUse"
       id="color-9"
       gradientTransform="matrix(0.28640101,0,0,0.28640101,-36.925985,-19.210033)">
      <stop
         offset="0"
         stop-color="#4f5c3d"
         id="stop42" />
      <stop
         offset="1"
         stop-color="#4f5c3d"
         stop-opacity="0"
         id="stop44" />
    </radialGradient>
    <radialGradient
       cx="298.125"
       cy="147.075"
       r="2.5"
       gradientUnits="userSpaceOnUse"
       id="color-10"
       gradientTransform="matrix(0.28640101,0,0,0.28640101,-36.925985,-19.210033)">
      <stop
         offset="0"
         stop-color="#cccccc"
         id="stop47" />
      <stop
         offset="1"
         stop-color="#a4a4a4"
         id="stop49" />
    </radialGradient>
    <radialGradient
       cx="298.125"
       cy="147.075"
       r="2.5"
       gradientUnits="userSpaceOnUse"
       id="color-11"
       gradientTransform="matrix(0.28640101,0,0,0.28640101,-36.925985,-19.210033)">
      <stop
         offset="0"
         stop-color="#6d6d6d"
         id="stop52" />
      <stop
         offset="1"
         stop-color="#999999"
         id="stop54" />
    </radialGradient>
    <radialGradient
       cx="300.32501"
       cy="158.47501"
       r="2.5"
       gradientUnits="userSpaceOnUse"
       id="color-12"
       gradientTransform="matrix(0.28640101,0,0,0.28640101,-36.925985,-19.210033)">
      <stop
         offset="0"
         stop-color="#cccccc"
         id="stop57" />
      <stop
         offset="1"
         stop-color="#a4a4a4"
         id="stop59" />
    </radialGradient>
    <radialGradient
       cx="300.32501"
       cy="158.47501"
       r="2.5"
       gradientUnits="userSpaceOnUse"
       id="color-13"
       gradientTransform="matrix(0.28640101,0,0,0.28640101,-36.925985,-19.210033)">
      <stop
         offset="0"
         stop-color="#6d6d6d"
         id="stop62" />
      <stop
         offset="1"
         stop-color="#999999"
         id="stop64" />
    </radialGradient>
    <radialGradient
       cx="300.52499"
       cy="169.875"
       r="2.5"
       gradientUnits="userSpaceOnUse"
       id="color-14"
       gradientTransform="matrix(0.28640101,0,0,0.28640101,-36.925985,-19.210033)">
      <stop
         offset="0"
         stop-color="#cccccc"
         id="stop67" />
      <stop
         offset="1"
         stop-color="#a4a4a4"
         id="stop69" />
    </radialGradient>
    <radialGradient
       cx="300.52499"
       cy="169.875"
       r="2.5"
       gradientUnits="userSpaceOnUse"
       id="color-15"
       gradientTransform="matrix(0.28640101,0,0,0.28640101,-36.925985,-19.210033)">
      <stop
         offset="0"
         stop-color="#6d6d6d"
         id="stop72" />
      <stop
         offset="1"
         stop-color="#999999"
         id="stop74" />
    </radialGradient>
    <radialGradient
       cx="280.125"
       cy="216.075"
       r="2.5"
       gradientUnits="userSpaceOnUse"
       id="color-16"
       gradientTransform="matrix(0.28640101,0,0,0.28640101,-36.925985,-19.210033)">
      <stop
         offset="0"
         stop-color="#cccccc"
         id="stop77" />
      <stop
         offset="1"
         stop-color="#a4a4a4"
         id="stop79" />
    </radialGradient>
    <radialGradient
       cx="280.125"
       cy="216.075"
       r="2.5"
       gradientUnits="userSpaceOnUse"
       id="color-17"
       gradientTransform="matrix(0.28640101,0,0,0.28640101,-36.925985,-19.210033)">
      <stop
         offset="0"
         stop-color="#6d6d6d"
         id="stop82" />
      <stop
         offset="1"
         stop-color="#999999"
         id="stop84" />
    </radialGradient>
    <radialGradient
       cx="287.36047"
       cy="106.09766"
       r="4.7768998"
       gradientUnits="userSpaceOnUse"
       id="color-18"
       gradientTransform="matrix(0.28640101,0,0,0.28640101,-36.925985,-19.210033)">
      <stop
         offset="0"
         stop-color="#4f5c3d"
         id="stop87" />
      <stop
         offset="1"
         stop-color="#4f5c3d"
         stop-opacity="0"
         id="stop89" />
    </radialGradient>
    <radialGradient
       cx="192.14993"
       cy="104.78187"
       r="4.7768998"
       gradientUnits="userSpaceOnUse"
       id="color-19"
       gradientTransform="matrix(0.28640101,0,0,0.28640101,-36.925985,-19.210033)">
      <stop
         offset="0"
         stop-color="#4f5c3d"
         id="stop92" />
      <stop
         offset="1"
         stop-color="#4f5c3d"
         stop-opacity="0"
         id="stop94" />
    </radialGradient>
    <linearGradient
       inkscape:collect="always"
       xlink:href="#linearGradient12"
       id="linearGradient15"
       x1="9.555275"
       y1="34.956371"
       x2="10.281365"
       y2="61.397118"
       gradientUnits="userSpaceOnUse"
       gradientTransform="matrix(0.95956442,0,0,0.9593875,0.46561022,2.3108938)" />
    <linearGradient
       inkscape:collect="always"
       xlink:href="#linearGradient18"
       id="linearGradient16"
       x1="54.876842"
       y1="34.956371"
       x2="54.587963"
       y2="61.271809"
       gradientUnits="userSpaceOnUse"
       gradientTransform="matrix(0.95956442,0,0,0.9593875,2.4653609,2.3106816)" />
  </defs>
  <g
     id="g6"
     transform="translate(1)">
    <path
       d="M 5.3538726,58.195201 5.2336281,40.170319 c -0.00451,-0.676527 -0.083959,-1.734481 0.421943,-2.567838 0.5528531,-0.910698 3.5845137,-1.574541 4.1245357,-1.70738 1.2375902,-0.30443 4.2427822,-0.343659 4.2427822,-0.343659 l -0.05496,25.608522 h -3.66885 c -1.1035472,0 -4.9322173,-1.018249 -4.9452025,-2.964763 z"
       fill="#4d593c"
       stroke="#313826"
       stroke-width="1.56238"
       stroke-linecap="butt"
       stroke-linejoin="miter"
       id="path103"
       style="mix-blend-mode:normal;fill:url(#linearGradient15);fill-opacity:1;fill-rule:nonzero;stroke:#1b2015;stroke-width:1.25;stroke-miterlimit:10;stroke-dasharray:none;stroke-dashoffset:0;stroke-opacity:1"
       sodipodi:nodetypes="ssssccss" />
    <path
       d="m 7.7801525,37.815881 0.054964,14.068201"
       fill="none"
       stroke="#1f1f1f"
       stroke-width="0.852206"
       stroke-linecap="round"
       stroke-linejoin="miter"
       id="path173"
       style="mix-blend-mode:normal;fill-rule:nonzero;stroke:#2a3121;stroke-miterlimit:10;stroke-dasharray:none;stroke-dashoffset:0;stroke-opacity:1" />
    <g
       stroke="none"
       stroke-width="0"
       stroke-linecap="butt"
       stroke-linejoin="miter"
       id="g237"
       transform="matrix(0.27482022,0,0,0.27476955,-35.562431,-29.453343)"
       style="mix-blend-mode:normal;fill-rule:nonzero;stroke-miterlimit:10;stroke-dasharray:none;stroke-dashoffset:0">
      <path
         d="m 159.70926,250.01417 c -0.95869,0.008 -3.2238,0.0281 -3.69653,0.0322 -0.30274,0.003 -0.64477,-0.40786 -0.64819,-0.80115 -0.007,-0.77264 -0.0309,-3.54318 -0.0438,-5.02429 -0.005,-0.57052 0.40601,-0.95332 0.75544,-0.95637 0.45606,-0.004 2.5061,-0.0218 3.41059,-0.0297 0.61177,-0.005 1.08639,0.4402 1.09003,0.85858 0.007,0.81195 0.0321,3.68565 0.0445,5.10598 0.004,0.48978 -0.38033,0.81011 -0.91204,0.81474 z"
         fill="#000000"
         id="path229"
         style="stroke-width:0" />
      <path
         d="m 157.23493,248.04636 c 0,-0.25276 0,-0.51072 0,-0.66021 0,-0.24113 0.48271,-0.90029 0.72023,-0.90029 0.23252,0 0.69022,0.6379 0.69022,0.87028 0,0.15889 0,0.44619 0,0.72023 0,0.35632 -0.48271,0.69022 -0.72023,0.69022 -0.23252,0 -0.69022,-0.35468 -0.69022,-0.72023 z"
         fill="#000000"
         id="path231"
         style="stroke-width:0" />
      <path
         d="m 155.33479,258.26445 c 0.0807,-2.20669 0.30031,-8.20825 0.39692,-10.84909 0.0288,-0.78755 1.50438,-1.27621 2.23845,-1.27621 0.74113,0 2.25192,0.48803 2.28069,1.27467 0.0966,2.63945 0.31612,8.64072 0.39688,10.84793 0.0576,1.57348 -0.68509,3.65645 -2.76777,3.65645 -2.21896,0 -2.60271,-2.08116 -2.54517,-3.65374 z m 2.56834,2.4572 c 0.8176,0 1.4804,-0.6628 1.4804,-1.4804 0,-0.8176 -0.62325,-2.2316 -1.44086,-2.2316 -0.8176,0 -1.51994,1.414 -1.51994,2.2316 0,0.8176 0.66279,1.4804 1.4804,1.4804 z m -0.27687,-5.10206 c 0.22372,-0.002 0.19335,-0.006 0.59266,-0.009 0.28823,-0.002 0.51129,-0.25149 0.51038,-0.60957 -0.002,-0.86843 -0.006,-5.55099 -0.006,-5.77232 0,-0.584 -0.19666,-1.05743 -0.78066,-1.05743 -0.584,0 -0.78067,0.47343 -0.78067,1.05743 0,0.40965 -0.005,4.99778 -0.008,5.81225 -10e-4,0.34666 0.26615,0.58053 0.47218,0.57887 z"
         fill="#333333"
         id="path233"
         style="fill:#808080;fill-opacity:1;stroke-width:0;stroke:none" />
      <path
         d="m 157.29553,247.05662 c 0,-0.25276 0,-0.51072 0,-0.66021 0,-0.24113 0.48271,-0.90029 0.72023,-0.90029 0.23252,0 0.69022,0.6379 0.69022,0.87028 0,0.15889 0,0.44619 0,0.72023 0,0.35632 -0.48271,0.69022 -0.72023,0.69022 -0.23252,0 -0.69022,-0.35468 -0.69022,-0.72023 z"
         fill="#000000"
         id="path235"
         style="stroke-width:0" />
    </g>
  </g>
  <g
     id="g3"
     transform="translate(-0.99999955)">
    <path
       d="M 54.554171,61.159753 H 50.88532 L 50.83036,35.55123 c 0,0 3.005194,0.03923 4.242783,0.34366 0.540023,0.132838 2.66985,0.796681 3.222702,1.70738 0.505903,0.833357 0.482066,1.891297 0.482066,2.567837 V 58.19499 c 0,1.795729 -3.120188,2.964763 -4.223735,2.964763 z"
       data-paper-data="{&quot;index&quot;:null}"
       fill="#4d593c"
       stroke="#313826"
       stroke-width="1.56238"
       stroke-linecap="butt"
       stroke-linejoin="miter"
       id="path99"
       style="mix-blend-mode:normal;fill:url(#linearGradient16);fill-opacity:1;fill-rule:nonzero;stroke:#1b1e15;stroke-width:1.25;stroke-miterlimit:10;stroke-dasharray:none;stroke-dashoffset:0;stroke-opacity:1"
       sodipodi:nodetypes="cccsssssc" />
    <path
       d="m 56.477476,52.191487 0.05496,-14.123156"
       data-paper-data="{&quot;index&quot;:null}"
       fill="none"
       stroke="#1f1f1f"
       stroke-width="0.852206"
       stroke-linecap="round"
       stroke-linejoin="miter"
       id="path101"
       style="mix-blend-mode:normal;fill-rule:nonzero;stroke:#2a3121;stroke-miterlimit:10;stroke-dasharray:none;stroke-dashoffset:0;stroke-opacity:1" />
    <g
       stroke="none"
       stroke-width="0"
       stroke-linecap="butt"
       stroke-linejoin="miter"
       id="g247"
       transform="matrix(0.27482022,0,0,0.27476955,-32.457783,-29.049046)"
       style="mix-blend-mode:normal;fill-rule:nonzero;stroke-miterlimit:10;stroke-dasharray:none;stroke-dashoffset:0">
      <path
         d="m 325.40491,249.44895 c -0.95869,0.008 -3.2238,0.0281 -3.69653,0.0322 -0.30274,0.003 -0.64477,-0.40786 -0.64819,-0.80115 -0.007,-0.77264 -0.0309,-3.54317 -0.0438,-5.02429 -0.005,-0.57052 0.40601,-0.95332 0.75543,-0.95637 0.45607,-0.004 2.5061,-0.0218 3.41059,-0.0297 0.61177,-0.005 1.08638,0.4402 1.09003,0.85858 0.007,0.81195 0.0321,3.68564 0.0445,5.10598 0.004,0.48978 -0.38033,0.81011 -0.91204,0.81475 z"
         fill="#000000"
         id="path239"
         style="stroke-width:0" />
      <path
         d="m 322.93058,247.48114 c 0,-0.25276 0,-0.51072 0,-0.66021 0,-0.24113 0.48271,-0.90029 0.72023,-0.90029 0.23252,0 0.69022,0.6379 0.69022,0.87028 0,0.15889 0,0.44619 0,0.72023 0,0.35632 -0.48271,0.69022 -0.72023,0.69022 -0.23252,0 -0.69022,-0.35468 -0.69022,-0.72023 z"
         fill="#000000"
         id="path241"
         style="stroke-width:0" />
      <path
         d="m 321.03044,257.69923 c 0.0807,-2.20669 0.30031,-8.20825 0.39692,-10.84909 0.0288,-0.78755 1.50438,-1.27621 2.23845,-1.27621 0.74113,0 2.25192,0.48803 2.28069,1.27467 0.0966,2.63945 0.31612,8.64072 0.39688,10.84793 0.0576,1.57348 -0.68509,3.65645 -2.76777,3.65645 -2.21896,0 -2.60271,-2.08116 -2.54517,-3.65374 z m 2.56834,2.4572 c 0.8176,0 1.4804,-0.6628 1.4804,-1.4804 0,-0.8176 -0.62325,-2.2316 -1.44086,-2.2316 -0.8176,0 -1.51994,1.414 -1.51994,2.2316 0,0.8176 0.66279,1.4804 1.4804,1.4804 z m -0.27687,-5.10206 c 0.22372,-0.002 0.19335,-0.006 0.59266,-0.009 0.28823,-0.002 0.51129,-0.25149 0.51038,-0.60957 -0.002,-0.86843 -0.006,-5.55099 -0.006,-5.77232 0,-0.584 -0.19666,-1.05743 -0.78066,-1.05743 -0.584,0 -0.78067,0.47343 -0.78067,1.05743 0,0.40965 -0.005,4.99778 -0.008,5.81225 -0.001,0.34666 0.26615,0.58053 0.47218,0.57887 z"
         fill="#333333"
         id="path243"
         style="fill:#808080;fill-opacity:1;stroke-width:0;stroke:none" />
      <path
         d="m 322.99118,246.4914 c 0,-0.25276 0,-0.51072 0,-0.66021 0,-0.24113 0.48271,-0.90029 0.72023,-0.90029 0.23252,0 0.69022,0.6379 0.69022,0.87028 0,0.15889 0,0.44619 0,0.72023 0,0.35632 -0.48271,0.69022 -0.72023,0.69022 -0.23252,0 -0.69022,-0.35468 -0.69022,-0.72023 z"
         fill="#000000"
         id="path245"
         style="stroke-width:0" />
    </g>
  </g>
  <path
     d="M 11.142906,53.840063 V 24.482931 c 0,-5.070773 2.924047,-17.2552781 8.721951,-17.4202085 8.34147,-0.3943658 19.277952,0 24.248845,0 7.343165,0 8.72195,12.5652505 8.72195,17.7500635 v 29.192205 c 0,6.445137 -3.597882,8.745009 -4.633649,8.745009 l -33.780761,-10e-7 c -0.72863,0 -3.278333,-3.648518 -3.278333,-8.909936 z"
     fill="url(#color-1)"
     stroke="#333b27"
     stroke-width="2.00481"
     stroke-linecap="butt"
     stroke-linejoin="miter"
     id="path105"
     style="mix-blend-mode:normal;fill:url(#color-1);fill-rule:nonzero;stroke:#1a1e14;stroke-width:2.5;stroke-miterlimit:10;stroke-dasharray:none;stroke-dashoffset:0;stroke-opacity:1"
     sodipodi:nodetypes="cscssssssc" />
  <path
     d="M 12.211496,55.168122 V 30.15862 c 0,-4.31982 2.77578,-14.699866 8.279704,-14.84037 7.918519,-0.335962 18.300465,0 23.01931,0 6.970834,0 8.279703,10.704404 8.279703,15.121375 v 25.039019 c 0,4.404341 -2.795632,6.124625 -3.778849,6.132268 l -32.815298,0.255026 c -0.691665,0.0054 -2.984564,-2.215582 -2.984564,-6.697816 z"
     fill="url(#color-2)"
     stroke="none"
     stroke-width="0"
     stroke-linecap="butt"
     stroke-linejoin="miter"
     id="path107"
     style="mix-blend-mode:normal;fill:url(#color-2);fill-rule:nonzero;stroke-miterlimit:10;stroke-dasharray:none;stroke-dashoffset:0"
     sodipodi:nodetypes="cscssssssc" />
  <path
     d="m 12.739987,48.795468 c 0,0 -0.05024,-4.476116 -0.02922,-11.13545 0.281311,-7.215676 -1.520814,-16.772172 5.501065,-21.292969 0.710046,-0.382258 1.663858,-0.797368 2.371394,-0.849274 2.851918,-0.209229 7.137894,-0.473942 11.534731,-0.504453 4.362697,-0.03027 8.817178,0.414804 12.122901,0.702713 7.481421,0.651589 6.579517,11.475563 6.733975,13.993001 0.502072,8.182999 0.09539,18.455257 0.09539,18.455257"
     fill="none"
     stroke="#1f1f1f"
     stroke-width="0.852206"
     stroke-linecap="round"
     stroke-linejoin="miter"
     id="path109"
     style="mix-blend-mode:normal;fill-rule:nonzero;stroke:#252c1d;stroke-width:1.25;stroke-miterlimit:10;stroke-dasharray:none;stroke-dashoffset:0;stroke-opacity:1"
     sodipodi:nodetypes="ccsssssc" />
  <path
     style="mix-blend-mode:normal;fill:none;fill-opacity:1;fill-rule:nonzero;stroke:#252b1e;stroke-width:0.991856;stroke-linecap:round;stroke-linejoin:round;stroke-miterlimit:29;stroke-dasharray:none;stroke-dashoffset:0;stroke-opacity:1"
     d="m 21.715592,12.701429 c 0,0 12.320059,-2.263928 22.291382,0.789554"
     id="path2" />
  <g
     stroke="none"
     stroke-width="0"
     stroke-linecap="butt"
     stroke-linejoin="miter"
     id="g121"
     transform="matrix(0.27481195,-0.00213223,0.00213262,0.27476128,-33.07524,-15.854351)"
     style="mix-blend-mode:normal;fill-rule:nonzero;stroke-miterlimit:10;stroke-dasharray:none;stroke-dashoffset:0">
    <path
       d="m 195.62331,107.56346 c 0,-0.95872 0,-2.38671 0,-2.85946 0,-0.30275 0.41346,-0.64119 0.80677,-0.64119 0.77267,0 3.54331,0 5.02448,0 0.57054,0 0.94975,0.4143 0.94975,0.76374 0,0.45608 0,1.66899 0,2.57351 0,0.6118 -0.44966,1.08251 -0.86805,1.08251 -0.81198,0 -3.68578,0 -5.10617,0 -0.4898,0 -0.80677,-0.38738 -0.80677,-0.91911 z"
       fill="#000000"
       id="path113"
       style="stroke-width:0" />
    <path
       d="m 198.2784,107.26173 c 0,-0.25276 0,-0.51072 0,-0.66021 0,-0.24113 0.48271,-0.90029 0.72023,-0.90029 0.23252,0 0.69022,0.6379 0.69022,0.87028 0,0.15889 0,0.44619 0,0.72023 0,0.35632 -0.48271,0.69022 -0.72023,0.69022 -0.23252,0 -0.69022,-0.35468 -0.69022,-0.72023 z"
       fill="#000000"
       id="path115"
       style="stroke-width:0" />
    <path
       d="m 196.37826,117.47982 c 0.0807,-2.20669 0.30031,-8.20825 0.39692,-10.84909 0.0288,-0.78755 1.50438,-1.27621 2.23845,-1.27621 0.74113,0 2.25192,0.48803 2.28069,1.27467 0.0966,2.63945 0.31612,8.64072 0.39688,10.84793 0.0576,1.57348 -0.68509,3.65645 -2.76777,3.65645 -2.21896,0 -2.60271,-2.08116 -2.54517,-3.65374 z m 2.56834,2.4572 c 0.8176,0 1.4804,-0.6628 1.4804,-1.4804 0,-0.8176 -0.62325,-2.2316 -1.44086,-2.2316 -0.8176,0 -1.51994,1.414 -1.51994,2.2316 0,0.8176 0.66279,1.4804 1.4804,1.4804 z m -0.27687,-5.10206 c 0.22372,-0.002 0.19335,-0.006 0.59266,-0.009 0.28823,-0.002 0.51129,-0.25149 0.51038,-0.60957 -0.002,-0.86843 -0.006,-5.55099 -0.006,-5.77232 0,-0.584 -0.19666,-1.05743 -0.78066,-1.05743 -0.584,0 -0.78067,0.47343 -0.78067,1.05743 0,0.40965 -0.005,4.99778 -0.008,5.81225 -0.001,0.34666 0.26615,0.58053 0.47218,0.57887 z"
       fill="#333333"
       id="path117"
       style="stroke-width:0;fill:#808080;fill-opacity:1;stroke:none" />
    <path
       d="m 198.339,106.27199 c 0,-0.25276 0,-0.51072 0,-0.66021 0,-0.24113 0.48271,-0.90029 0.72023,-0.90029 0.23252,0 0.69022,0.6379 0.69022,0.87028 0,0.15889 0,0.44619 0,0.72023 0,0.35632 -0.48271,0.69022 -0.72023,0.69022 -0.23252,0 -0.69022,-0.35468 -0.69022,-0.72023 z"
       fill="#000000"
       id="path119"
       style="stroke-width:0" />
  </g>
  <path
     d="m 17.646,35.11591 c 0,-3.202005 0.27482,-7.629627 0.27482,-9.479401 0,-1.635436 2.052828,-3.767453 4.101096,-3.767453 h 20.420936 c 2.337157,0 3.614884,2.13202 3.614884,3.767453 0,1.735299 0.274821,5.739258 0.274821,8.87175 0,3.009038 -1.053334,4.253577 -4.011257,4.253577 H 21.292595 c -2.474122,0 -3.646595,-1.563862 -3.646595,-3.645923 z"
     fill="#3c452e"
     stroke="none"
     stroke-width="0.284069"
     stroke-linecap="butt"
     stroke-linejoin="miter"
     id="path147"
     style="mix-blend-mode:normal;fill-rule:nonzero;stroke-miterlimit:10;stroke-dasharray:none;stroke-dashoffset:0"
     sodipodi:nodetypes="ssssssssss" />
  <path
     d="m 17.773964,55.000986 c 0,-3.437392 0.274821,-8.190496 0.274821,-10.176249 0,-1.755663 2.052827,-4.044408 4.101096,-4.044408 h 20.420936 c 2.337156,0 3.614884,2.288748 3.614884,4.044408 0,1.862862 0.27482,6.16116 0.27482,9.523927 0,4.082855 -1.381838,5.046957 -9.707981,5.118831 l -9.84782,0.08501 c -8.326943,0.07188 -9.130756,-1.083753 -9.130756,-4.55152 z"
     fill="#3c452e"
     stroke="none"
     stroke-width="0.284069"
     stroke-linecap="butt"
     stroke-linejoin="miter"
     id="path151"
     style="mix-blend-mode:normal;fill-rule:nonzero;stroke-miterlimit:10;stroke-dasharray:none;stroke-dashoffset:0"
     sodipodi:nodetypes="sssssssss" />
  <g
     id="g5"
     transform="matrix(0.95956442,0,0,0.9593875,1.1251845,2.3108938)"
     style="stroke-width:1.03375;stroke:#1f2518;stroke-opacity:1">
    <path
       style="fill:none;fill-opacity:1;stroke:#1f2518;stroke-width:1.30279;stroke-linecap:round;stroke-linejoin:round;stroke-miterlimit:29;stroke-dasharray:none;stroke-opacity:1"
       d="m 18.866794,49.407695 c 0,0 13.355109,3.557412 26.631553,0"
       id="path3" />
    <path
       style="fill:none;fill-opacity:1;stroke:#1f2518;stroke-width:1.30279;stroke-linecap:round;stroke-linejoin:round;stroke-miterlimit:29;stroke-dasharray:none;stroke-opacity:1"
       d="m 18.866794,52.843217 c 0,0 13.355109,3.557412 26.631553,0"
       id="path3-1" />
    <path
       style="fill:none;fill-opacity:1;stroke:#1f2518;stroke-width:1.30279;stroke-linecap:round;stroke-linejoin:round;stroke-miterlimit:29;stroke-dasharray:none;stroke-opacity:1"
       d="m 18.866794,56.276822 c 0,0 13.355108,3.557413 26.631553,0"
       id="path3-5-2-4" />
    <path
       style="fill:none;fill-opacity:1;stroke:#1f2518;stroke-width:1.30279;stroke-linecap:round;stroke-linejoin:round;stroke-miterlimit:29;stroke-dasharray:none;stroke-opacity:1"
       d="m 19.199966,45.970884 c 0,0 13.020952,3.468402 25.965208,0"
       id="path3-6" />
    <path
       style="fill:none;fill-opacity:1;stroke:#1f2518;stroke-width:1.30279;stroke-linecap:round;stroke-linejoin:round;stroke-miterlimit:29;stroke-dasharray:none;stroke-opacity:1"
       d="m 20.841923,42.727212 c 0,0 11.374145,3.029741 22.681295,0"
       id="path3-7" />
  </g>
  <g
     id="g4"
     transform="matrix(0.95956442,0,0,0.9593875,1.4652874,2.3108938)"
     style="stroke-width:1.03375;stroke:#1f2518;stroke-opacity:1">
    <path
       style="fill:none;fill-opacity:1;stroke:#1f2518;stroke-width:1.30279;stroke-linecap:round;stroke-linejoin:round;stroke-miterlimit:29;stroke-dasharray:none;stroke-opacity:1"
       d="M 19.173953,35.178952 H 44.693254"
       id="path4" />
    <path
       style="fill:none;fill-opacity:1;stroke:#1f2518;stroke-width:1.30279;stroke-linecap:round;stroke-linejoin:round;stroke-miterlimit:29;stroke-dasharray:none;stroke-opacity:1"
       d="M 19.173953,32.40825 H 44.693254"
       id="path4-0" />
    <path
       style="fill:none;fill-opacity:1;stroke:#1f2518;stroke-width:1.30279;stroke-linecap:round;stroke-linejoin:round;stroke-miterlimit:29;stroke-dasharray:none;stroke-opacity:1"
       d="M 19.173953,29.403523 H 44.693254"
       id="path4-0-7" />
    <g
       id="g2">
      <path
         style="fill:none;fill-opacity:1;stroke:#1f2518;stroke-width:1.30279;stroke-linecap:round;stroke-linejoin:round;stroke-miterlimit:29;stroke-dasharray:none;stroke-opacity:1"
         d="M 20.416633,26.71976 H 44.70369"
         id="path4-9" />
      <path
         style="fill:none;fill-opacity:1;stroke:#1f2518;stroke-width:1.30279;stroke-linecap:round;stroke-linejoin:round;stroke-miterlimit:29;stroke-dasharray:none;stroke-opacity:1"
         d="M 20.416633,23.853035 H 44.70369"
         id="path4-8" />
    </g>
  </g>
  <path
     d="m 17.836052,31.756202 c 0,0 -0.867158,-7.032857 1.35728,-8.788429 1.926462,-1.520402 7.893964,-1.456075 13.334338,-1.400719 5.444871,0.0554 11.699288,-0.745253 13.048211,2.871367 1.379381,3.698281 0.765286,8.434258 0.765286,8.434258"
     fill="none"
     stroke="#1f1f1f"
     stroke-width="0.852206"
     stroke-linecap="round"
     stroke-linejoin="miter"
     id="path167"
     style="mix-blend-mode:normal;fill-rule:nonzero;stroke:#252c1d;stroke-miterlimit:10;stroke-dasharray:none;stroke-dashoffset:0;stroke-opacity:1"
     sodipodi:nodetypes="csssc" />
  <path
     d="m 17.964017,52.600442 c 0,0 -0.416292,-8.44838 1.778136,-10.540499 1.265115,-1.206134 7.112822,-1.673026 12.552748,-1.566542 5.432668,0.106342 11.408444,0.212825 12.324975,1.437034 1.744918,2.330684 1.849255,11.168696 1.849255,11.168696"
     fill="none"
     stroke="#1f1f1f"
     stroke-width="0.852206"
     stroke-linecap="round"
     stroke-linejoin="miter"
     id="path169"
     style="mix-blend-mode:normal;fill-rule:nonzero;stroke:#252c1d;stroke-width:1.25;stroke-miterlimit:10;stroke-dasharray:none;stroke-dashoffset:0;stroke-opacity:1"
     sodipodi:nodetypes="csssc" />
  <g
     stroke="none"
     stroke-width="0"
     stroke-linecap="butt"
     stroke-linejoin="miter"
     id="g197"
     transform="matrix(0.27482022,0,0,0.27476955,-33.967573,-16.118971)"
     style="mix-blend-mode:normal;fill-rule:nonzero;stroke-miterlimit:10;stroke-dasharray:none;stroke-dashoffset:0">
    <path
       d="m 232.62331,115.26113 c 0,-0.95872 0,-3.22392 0,-3.69667 0,-0.30275 0.41346,-0.64119 0.80677,-0.64119 0.77267,0 3.54331,0 5.02448,0 0.57054,0 0.94975,0.4143 0.94975,0.76374 0,0.45608 0,2.5062 0,3.41072 0,0.6118 -0.44966,1.08251 -0.86805,1.08251 -0.81198,0 -3.68578,0 -5.10617,0 -0.4898,0 -0.80677,-0.38738 -0.80677,-0.91911 z"
       fill="#000000"
       id="path189"
       style="stroke-width:0" />
    <path
       d="m 235.2784,114.9594 c 0,-0.25276 0,-0.51072 0,-0.66021 0,-0.24113 0.48271,-0.90029 0.72023,-0.90029 0.23252,0 0.69022,0.6379 0.69022,0.87028 0,0.15889 0,0.44619 0,0.72023 0,0.35632 -0.48271,0.69022 -0.72023,0.69022 -0.23252,0 -0.69022,-0.35468 -0.69022,-0.72023 z"
       fill="#000000"
       id="path191"
       style="stroke-width:0" />
    <path
       d="m 233.37826,125.17749 c 0.0807,-2.20669 0.30031,-8.20825 0.39692,-10.84909 0.0288,-0.78755 1.50438,-1.27621 2.23845,-1.27621 0.74113,0 2.25192,0.48803 2.28069,1.27467 0.0966,2.63945 0.31612,8.64072 0.39688,10.84793 0.0576,1.57348 -0.68509,3.65645 -2.76777,3.65645 -2.21896,0 -2.60271,-2.08116 -2.54517,-3.65374 z m 2.56834,2.4572 c 0.8176,0 1.4804,-0.6628 1.4804,-1.4804 0,-0.8176 -0.62325,-2.2316 -1.44086,-2.2316 -0.8176,0 -1.51994,1.414 -1.51994,2.2316 0,0.8176 0.66279,1.4804 1.4804,1.4804 z m -0.27687,-5.10206 c 0.22372,-0.002 0.19335,-0.006 0.59266,-0.009 0.28823,-0.002 0.51129,-0.25149 0.51038,-0.60957 -0.002,-0.86843 -0.006,-5.55099 -0.006,-5.77232 0,-0.584 -0.19666,-1.05743 -0.78066,-1.05743 -0.584,0 -0.78067,0.47343 -0.78067,1.05743 0,0.40965 -0.005,4.99778 -0.008,5.81225 -0.001,0.34666 0.26615,0.58053 0.47218,0.57887 z"
       fill="#333333"
       id="path193"
       style="stroke-width:0;fill:#808080;fill-opacity:1;stroke:none" />
    <path
       d="m 235.339,113.96966 c 0,-0.25276 0,-0.51072 0,-0.66021 0,-0.24113 0.48271,-0.90029 0.72023,-0.90029 0.23252,0 0.69022,0.6379 0.69022,0.87028 0,0.15889 0,0.44619 0,0.72023 0,0.35632 -0.48271,0.69022 -0.72023,0.69022 -0.23252,0 -0.69022,-0.35468 -0.69022,-0.72023 z"
       fill="#000000"
       id="path195"
       style="stroke-width:0" />
  </g>
  <g
     stroke="none"
     stroke-width="0"
     stroke-linecap="butt"
     stroke-linejoin="miter"
     id="g207"
     transform="matrix(0.27482022,0,0,0.27476955,-33.967573,-16.118971)"
     style="mix-blend-mode:normal;fill-rule:nonzero;stroke-miterlimit:10;stroke-dasharray:none;stroke-dashoffset:0">
    <path
       d="m 239.94889,115.3309 c 0,-0.95872 0,-3.22392 0,-3.69667 0,-0.30275 0.41346,-0.64119 0.80677,-0.64119 0.77267,0 3.54331,0 5.02448,0 0.57054,0 0.94975,0.4143 0.94975,0.76374 0,0.45608 0,2.5062 0,3.41072 0,0.6118 -0.44966,1.08251 -0.86805,1.08251 -0.81198,0 -3.68578,0 -5.10617,0 -0.4898,0 -0.80677,-0.38738 -0.80677,-0.91911 z"
       fill="#000000"
       id="path199"
       style="stroke-width:0" />
    <path
       d="m 242.60398,115.02917 c 0,-0.25276 0,-0.51072 0,-0.66021 0,-0.24113 0.48271,-0.90029 0.72023,-0.90029 0.23252,0 0.69022,0.6379 0.69022,0.87028 0,0.15889 0,0.44619 0,0.72023 0,0.35632 -0.48271,0.69022 -0.72023,0.69022 -0.23252,0 -0.69022,-0.35468 -0.69022,-0.72023 z"
       fill="#000000"
       id="path201"
       style="stroke-width:0" />
    <path
       d="m 240.70384,125.24726 c 0.0807,-2.20669 0.30031,-8.20825 0.39692,-10.84909 0.0288,-0.78755 1.50438,-1.27621 2.23845,-1.27621 0.74113,0 2.25192,0.48803 2.28069,1.27467 0.0966,2.63945 0.31612,8.64072 0.39688,10.84793 0.0576,1.57348 -0.68509,3.65645 -2.76777,3.65645 -2.21896,0 -2.60271,-2.08116 -2.54517,-3.65374 z m 2.56834,2.4572 c 0.8176,0 1.4804,-0.6628 1.4804,-1.4804 0,-0.8176 -0.62325,-2.2316 -1.44086,-2.2316 -0.8176,0 -1.51994,1.414 -1.51994,2.2316 0,0.8176 0.66279,1.4804 1.4804,1.4804 z m -0.27687,-5.10206 c 0.22372,-0.002 0.19335,-0.006 0.59266,-0.009 0.28823,-0.002 0.51129,-0.25149 0.51038,-0.60957 -0.002,-0.86843 -0.006,-5.55099 -0.006,-5.77232 0,-0.584 -0.19666,-1.05743 -0.78066,-1.05743 -0.584,0 -0.78067,0.47343 -0.78067,1.05743 0,0.40965 -0.005,4.99778 -0.008,5.81225 -0.001,0.34666 0.26615,0.58053 0.47218,0.57887 z"
       fill="#333333"
       id="path203"
       style="stroke-width:0;fill:#808080;fill-opacity:1;stroke:none" />
    <path
       d="m 242.66458,114.03943 c 0,-0.25276 0,-0.51072 0,-0.66021 0,-0.24113 0.48271,-0.90029 0.72023,-0.90029 0.23252,0 0.69022,0.6379 0.69022,0.87028 0,0.15889 0,0.44619 0,0.72023 0,0.35632 -0.48271,0.69022 -0.72023,0.69022 -0.23252,0 -0.69022,-0.35468 -0.69022,-0.72023 z"
       fill="#000000"
       id="path205"
       style="stroke-width:0" />
  </g>
  <g
     stroke="none"
     stroke-width="0"
     stroke-linecap="butt"
     stroke-linejoin="miter"
     id="g217"
     transform="matrix(0.27482022,0,0,0.27476955,-33.967573,-15.427693)"
     style="mix-blend-mode:normal;fill-rule:nonzero;stroke-miterlimit:10;stroke-dasharray:none;stroke-dashoffset:0">
    <path
       d="m 190.05708,174.62287 c -0.95868,0.008 -3.2238,0.0281 -3.69653,0.0322 -0.30274,0.003 -0.64477,-0.40786 -0.6482,-0.80115 -0.007,-0.77264 -0.0309,-3.54318 -0.0438,-5.02429 -0.005,-0.57052 0.40601,-0.95332 0.75544,-0.95637 0.45606,-0.004 2.5061,-0.0218 3.41059,-0.0297 0.61178,-0.005 1.08639,0.44021 1.09003,0.85858 0.007,0.81195 0.0321,3.68564 0.0445,5.10598 0.004,0.48978 -0.38034,0.81011 -0.91205,0.81475 z"
       fill="#000000"
       id="path209"
       style="stroke-width:0" />
    <path
       d="m 187.58275,172.65506 c 0,-0.25276 0,-0.51072 0,-0.66021 0,-0.24113 0.48271,-0.90029 0.72023,-0.90029 0.23252,0 0.69022,0.6379 0.69022,0.87028 0,0.15889 0,0.44619 0,0.72023 0,0.35632 -0.48271,0.69022 -0.72023,0.69022 -0.23252,0 -0.69022,-0.35468 -0.69022,-0.72023 z"
       fill="#000000"
       id="path211"
       style="stroke-width:0" />
    <path
       d="m 185.68261,182.87315 c 0.0807,-2.20669 0.30031,-8.20825 0.39692,-10.84909 0.0288,-0.78755 1.50438,-1.27621 2.23845,-1.27621 0.74113,0 2.25192,0.48803 2.28069,1.27467 0.0966,2.63945 0.31612,8.64072 0.39688,10.84793 0.0576,1.57348 -0.68509,3.65645 -2.76777,3.65645 -2.21896,0 -2.60271,-2.08116 -2.54517,-3.65374 z m 2.56834,2.4572 c 0.8176,0 1.4804,-0.6628 1.4804,-1.4804 0,-0.8176 -0.62325,-2.2316 -1.44086,-2.2316 -0.8176,0 -1.51994,1.414 -1.51994,2.2316 0,0.8176 0.66279,1.4804 1.4804,1.4804 z m -0.27687,-5.10206 c 0.22372,-0.002 0.19335,-0.006 0.59266,-0.009 0.28823,-0.002 0.51129,-0.25149 0.51038,-0.60957 -0.002,-0.86843 -0.006,-5.55099 -0.006,-5.77232 0,-0.584 -0.19666,-1.05743 -0.78066,-1.05743 -0.584,0 -0.78067,0.47343 -0.78067,1.05743 0,0.40965 -0.005,4.99778 -0.008,5.81225 -0.001,0.34666 0.26615,0.58053 0.47218,0.57887 z"
       fill="#333333"
       id="path213"
       style="stroke-width:0;fill:#808080;fill-opacity:1;stroke:none" />
    <path
       d="m 187.64335,171.66532 c 0,-0.25276 0,-0.51072 0,-0.66021 0,-0.24113 0.48271,-0.90029 0.72023,-0.90029 0.23252,0 0.69022,0.6379 0.69022,0.87028 0,0.15889 0,0.44619 0,0.72023 0,0.35632 -0.48271,0.69022 -0.72023,0.69022 -0.23252,0 -0.69022,-0.35468 -0.69022,-0.72023 z"
       fill="#000000"
       id="path215"
       style="stroke-width:0" />
  </g>
  <g
     stroke="none"
     stroke-width="0"
     stroke-linecap="butt"
     stroke-linejoin="miter"
     id="g227"
     transform="matrix(0.27482022,0,0,0.27476955,-33.967573,-15.367581)"
     style="mix-blend-mode:normal;fill-rule:nonzero;stroke-miterlimit:10;stroke-dasharray:none;stroke-dashoffset:0">
    <path
       d="m 190.70925,250.57939 c -0.95869,0.008 -3.2238,0.0281 -3.69653,0.0322 -0.30274,0.003 -0.64477,-0.40786 -0.64819,-0.80115 -0.007,-0.77264 -0.0309,-3.54318 -0.0438,-5.02429 -0.005,-0.57052 0.40601,-0.95332 0.75544,-0.95637 0.45606,-0.004 2.5061,-0.0218 3.41059,-0.0297 0.61177,-0.005 1.08639,0.44021 1.09003,0.85858 0.007,0.81195 0.0321,3.68564 0.0445,5.10598 0.004,0.48978 -0.38033,0.81011 -0.91204,0.81474 z"
       fill="#000000"
       id="path219"
       style="stroke-width:0" />
    <path
       d="m 188.23492,248.61158 c 0,-0.25276 0,-0.51072 0,-0.66021 0,-0.24113 0.48271,-0.90029 0.72023,-0.90029 0.23252,0 0.69022,0.6379 0.69022,0.87028 0,0.15889 0,0.44619 0,0.72023 0,0.35632 -0.48271,0.69022 -0.72023,0.69022 -0.23252,0 -0.69022,-0.35468 -0.69022,-0.72023 z"
       fill="#000000"
       id="path221"
       style="stroke-width:0" />
    <path
       d="m 186.33478,258.82967 c 0.0807,-2.20669 0.30031,-8.20825 0.39692,-10.84909 0.0288,-0.78755 1.50438,-1.27621 2.23845,-1.27621 0.74113,0 2.25192,0.48803 2.28069,1.27467 0.0966,2.63945 0.31612,8.64072 0.39688,10.84793 0.0576,1.57348 -0.68509,3.65645 -2.76777,3.65645 -2.21896,0 -2.60271,-2.08116 -2.54517,-3.65374 z m 2.56834,2.4572 c 0.8176,0 1.4804,-0.6628 1.4804,-1.4804 0,-0.8176 -0.62325,-2.2316 -1.44086,-2.2316 -0.8176,0 -1.51994,1.414 -1.51994,2.2316 0,0.8176 0.66279,1.4804 1.4804,1.4804 z m -0.27687,-5.10206 c 0.22372,-0.002 0.19335,-0.006 0.59266,-0.009 0.28823,-0.002 0.51129,-0.25149 0.51038,-0.60957 -0.002,-0.86843 -0.006,-5.55099 -0.006,-5.77232 0,-0.584 -0.19666,-1.05743 -0.78066,-1.05743 -0.584,0 -0.78067,0.47343 -0.78067,1.05743 0,0.40965 -0.005,4.99778 -0.008,5.81225 -0.001,0.34666 0.26615,0.58053 0.47218,0.57887 z"
       fill="#333333"
       id="path223"
       style="stroke-width:0;fill:#808080;fill-opacity:1;stroke:none" />
    <path
       d="m 188.29552,247.62184 c 0,-0.25276 0,-0.51072 0,-0.66021 0,-0.24113 0.48271,-0.90029 0.72023,-0.90029 0.23252,0 0.69022,0.6379 0.69022,0.87028 0,0.15889 0,0.44619 0,0.72023 0,0.35632 -0.48271,0.69022 -0.72023,0.69022 -0.23252,0 -0.69022,-0.35468 -0.69022,-0.72023 z"
       fill="#000000"
       id="path225"
       style="stroke-width:0" />
  </g>
  <g
     id="g1"
     transform="matrix(1.5066256,0,0,1.545671,-10.496374,-12.887611)"
     style="stroke-width:0.655298">
    <path
       d="m 19.814412,27.492796 c 0,-0.90328 0,-2.271415 0,-2.679002 0,-0.263145 0.345996,-0.54954 0.687052,-0.54954 0.72509,0 3.498166,0 4.946763,0 0.537892,0 0.893165,0.220398 0.893165,0.54954 0,0.77644 0,2.15802 0,2.679002 0,0.390146 -0.237765,0.893001 -0.618344,0.893001 -1.320276,0 -4.359295,0 -5.152879,0 -0.369958,0 -0.755757,-0.309478 -0.755757,-0.893001 z"
       fill="#2a2a2a"
       stroke="#1b1b1b"
       stroke-width="0.651521"
       stroke-linecap="butt"
       stroke-linejoin="miter"
       id="path153"
       style="mix-blend-mode:normal;fill-rule:nonzero;stroke-miterlimit:10;stroke-dasharray:none;stroke-dashoffset:0;stroke-width:0.65136615" />
    <g
       fill="#80808c"
       stroke="#404046"
       stroke-width="0.338707"
       id="g253"
       transform="matrix(0.27482022,0,0,0.27476955,-34.511207,-15.708689)"
       style="mix-blend-mode:normal;fill-rule:nonzero;stroke-miterlimit:10;stroke-dasharray:none;stroke-dashoffset:0">
      <path
         d="m 210.66858,148.11865 0.30859,0.92298 c 0.47651,0.1127 0.9242,0.30015 1.32912,0.55038 l 0.87043,-0.43419 c 0.3929,0.29789 0.74375,0.64865 1.04178,1.04168 l -0.43419,0.87034 c 0.25009,0.40502 0.43739,0.8528 0.55019,1.3294 l 0.92317,0.3085 c 0.033,0.24071 0.0505,0.48661 0.0505,0.73645 0,0.24984 -0.0174,0.4957 -0.0504,0.73645 l -0.92317,0.30859 c -0.1128,0.47661 -0.30006,0.92425 -0.55019,1.32931 l 0.434,0.87034 c -0.29783,0.39304 -0.64865,0.74375 -1.04159,1.04168 l -0.12634,-0.063 c -0.007,-0.0241 -0.0136,-0.0481 -0.0203,-0.0722 -0.10033,-0.37634 -0.21404,-0.74908 -0.33198,-1.12023 -0.0502,-0.15187 -0.0968,-0.30497 -0.1433,-0.45804 0.65031,-0.6628 1.05147,-1.57095 1.05147,-2.5729 0,-2.02926 -1.64515,-3.67422 -3.67431,-3.67422 -2.02913,0 -3.67431,1.64495 -3.67431,3.67422 0,0.9154 0.3349,1.75254 0.8886,2.39578 -0.0101,0.0304 -0.0201,0.0608 -0.03,0.0912 -0.0237,0.0863 -0.0468,0.17278 -0.0694,0.2594 -0.0355,0.12961 -0.0659,0.26084 -0.11321,0.38695 -0.0474,0.13488 -0.0972,0.26888 -0.14973,0.40186 -0.0612,0.15524 -0.12415,0.30991 -0.19343,0.46177 -0.0239,0.0514 -0.0494,0.10196 -0.0764,0.15169 -0.32321,-0.26656 -0.61505,-0.56978 -0.86829,-0.90397 l 0.434,-0.87034 c -0.25013,-0.40506 -0.43749,-0.8527 -0.55019,-1.32931 l -0.92317,-0.30859 c -0.033,-0.24075 -0.0504,-0.48661 -0.0504,-0.73645 0,-0.24984 0.0174,-0.49574 0.0504,-0.73645 l 0.92317,-0.3085 c 0.1126,-0.4766 0.30005,-0.92439 0.55028,-1.3294 l -0.43419,-0.87034 c 0.29779,-0.39304 0.64859,-0.74379 1.04159,-1.04168 l 0.87034,0.43419 c 0.40506,-0.25023 0.8527,-0.43768 1.32922,-0.55038 l 0.30859,-0.92298 c 0.24094,-0.0329 0.48664,-0.0505 0.73654,-0.0505 0.24994,0 0.49569,0.0175 0.73654,0.0505 z"
         stroke-linecap="butt"
         stroke-linejoin="miter"
         id="path249"
         style="stroke-width:0.338707" />
      <path
         d="m 210.03453,150.68617 c 0.0168,-0.001 0.0312,0.008 0.0448,0.0221 0.0272,0.0289 0.0509,0.0798 0.0815,0.1698 0.0306,0.09 0.0679,0.21905 0.11542,0.38714 0.0475,0.1681 0.1053,0.37524 0.18341,0.64013 0.0781,0.26488 0.1766,0.58748 0.27508,0.88463 0.0985,0.29715 0.19696,0.56879 0.2428,0.7301 0.0458,0.1613 0.039,0.21224 0.008,0.25128 -0.0306,0.039 -0.0849,0.0662 -0.11883,0.10699 -0.034,0.0408 -0.0476,0.0951 -0.0527,0.15112 -0.005,0.056 -0.002,0.11376 0.0476,0.1579 0.0493,0.0441 0.14438,0.0747 0.20721,0.0985 0.0628,0.0238 0.0933,0.0408 0.1239,0.0696 0.0306,0.0289 0.0611,0.0696 0.0764,0.09 0.0153,0.0204 0.0153,0.0203 0.0237,0.0696 0.008,0.0493 0.0255,0.14778 0.017,0.22417 -0.008,0.0764 -0.0424,0.13069 -0.0883,0.18842 -0.0458,0.0577 -0.10356,0.11885 -0.13922,0.1698 -0.0357,0.051 -0.0493,0.0917 -0.0306,0.12738 0.0187,0.0357 0.0696,0.0662 0.13415,0.0951 0.0645,0.0289 0.14266,0.056 0.21227,0.0985 0.0696,0.0425 0.13073,0.10015 0.17657,0.146 0.0458,0.0458 0.0764,0.0798 0.10187,0.13757 0.0255,0.0577 0.0458,0.13922 0.0747,0.26147 0.0289,0.12225 0.0662,0.28523 0.13073,0.49578 0.0645,0.21055 0.15623,0.46867 0.22924,0.68261 0.073,0.21394 0.12732,0.38376 0.16638,0.48394 0.0391,0.10018 0.0628,0.13073 0.0408,0.15448 -0.0221,0.0237 -0.09,0.0407 -0.16302,0.0441 -0.073,0.003 -0.15108,-0.007 -0.26654,-0.0221 -0.11546,-0.0153 -0.26831,-0.0357 -0.39227,-0.0543 -0.12395,-0.0187 -0.219,-0.0357 -0.33276,-0.0594 -0.11376,-0.0238 -0.24626,-0.0543 -0.34814,-0.0883 -0.10188,-0.034 -0.17317,-0.0713 -0.23431,-0.13586 -0.0611,-0.0645 -0.11207,-0.15617 -0.16131,-0.25634 -0.0492,-0.10018 -0.0968,-0.20887 -0.14941,-0.30566 -0.0526,-0.0968 -0.11033,-0.18165 -0.146,-0.24957 -0.0357,-0.0679 -0.0493,-0.11888 -0.0748,-0.16302 -0.0255,-0.0441 -0.0628,-0.0815 -0.112,-0.10528 -0.0492,-0.0238 -0.11037,-0.034 -0.17151,-0.0221 -0.0611,0.0119 -0.12229,0.0459 -0.15795,0.09 -0.0357,0.0442 -0.0459,0.0985 -0.0696,0.1698 -0.0238,0.0713 -0.0611,0.15958 -0.0951,0.24109 -0.034,0.0815 -0.0645,0.1562 -0.0951,0.24279 -0.0306,0.0866 -0.0611,0.18509 -0.0984,0.26489 -0.0374,0.0798 -0.0815,0.14094 -0.17151,0.18847 -0.09,0.0475 -0.22582,0.0815 -0.32769,0.10528 -0.10188,0.0238 -0.16978,0.0374 -0.26996,0.0476 -0.10018,0.0102 -0.23265,0.0169 -0.38036,0.0305 -0.14772,0.0136 -0.31068,0.034 -0.44311,0.0459 -0.13244,0.0119 -0.23436,0.0153 -0.2904,-0.017 -0.056,-0.0322 -0.0662,-0.10016 -0.0594,-0.1579 0.007,-0.0577 0.0306,-0.10529 0.0543,-0.15283 0.0238,-0.0475 0.0476,-0.0951 0.0713,-0.14434 0.0238,-0.0492 0.0475,-0.10019 0.0815,-0.16131 0.034,-0.0611 0.0781,-0.13242 0.11377,-0.20373 0.0357,-0.0713 0.0628,-0.14263 0.0883,-0.20544 0.0255,-0.0628 0.0492,-0.11716 0.0781,-0.17999 0.0289,-0.0628 0.0629,-0.13418 0.09,-0.19531 0.0272,-0.0611 0.0475,-0.11206 0.073,-0.16809 0.0255,-0.056 0.056,-0.11713 0.0934,-0.17487 0.0374,-0.0577 0.0815,-0.11206 0.13074,-0.1596 0.0492,-0.0476 0.10359,-0.0883 0.16302,-0.13415 0.0594,-0.0458 0.12394,-0.0968 0.17657,-0.14941 0.0526,-0.0526 0.0934,-0.10697 0.0934,-0.16638 1e-5,-0.0594 -0.0407,-0.12394 -0.0917,-0.1698 -0.0509,-0.0459 -0.11209,-0.073 -0.15625,-0.1087 -0.0442,-0.0357 -0.0713,-0.0798 -0.0764,-0.1341 -0.005,-0.0543 0.0119,-0.11889 0.0357,-0.17663 0.0238,-0.0577 0.0543,-0.10869 0.0883,-0.15453 0.034,-0.0459 0.0713,-0.0866 0.11713,-0.11884 0.0459,-0.0323 0.10024,-0.0561 0.14947,-0.0798 0.0492,-0.0238 0.0934,-0.0476 0.12561,-0.0849 0.0323,-0.0374 0.0526,-0.0883 0.0493,-0.1579 -0.003,-0.0696 -0.0305,-0.15784 -0.0611,-0.23426 -0.0306,-0.0764 -0.0645,-0.14093 -0.073,-0.20037 -0.008,-0.0594 0.009,-0.11381 0.0323,-0.18682 0.0238,-0.073 0.0543,-0.1647 0.0865,-0.26318 0.0323,-0.0985 0.0662,-0.20372 0.10357,-0.31409 0.0374,-0.11037 0.0781,-0.22583 0.12396,-0.33959 0.0459,-0.11377 0.0968,-0.22583 0.16809,-0.38714 0.0713,-0.16131 0.16305,-0.37188 0.26153,-0.5977 0.0985,-0.22583 0.20372,-0.46696 0.28693,-0.64355 0.0832,-0.17659 0.14432,-0.28861 0.19018,-0.34125 0.0229,-0.0263 0.0421,-0.0377 0.0588,-0.0391 z"
         stroke-linecap="round"
         stroke-linejoin="round"
         id="path251"
         style="stroke-width:0.338707" />
    </g>
  </g>
  <path
     style="fill:#586644;fill-opacity:1;stroke:#1a1f15;stroke-width:1.25;stroke-linejoin:round;stroke-miterlimit:29;stroke-dasharray:none;stroke-opacity:1"
     d="m 21.962006,7.3442163 c 0,0 1.828931,-6.71921615 10.255556,-6.71921615 8.426625,0 10.479086,6.80983865 10.479086,6.80983865 H 38.61568 c 0,0 -0.60097,-3.3083461 -6.378731,-3.3083461 -5.777762,0 -6.419842,3.3320765 -6.419842,3.3320765 z"
     id="path1"
     sodipodi:nodetypes="csccscc" />
</svg>
