<svg xmlns="http://www.w3.org/2000/svg" xmlns:xlink="http://www.w3.org/1999/xlink" xml:space="preserve" width="73" height="73" viewBox="0 0 19.315 19.315"><defs><linearGradient id="a"><stop offset="0" style="stop-color:#d828c9;stop-opacity:1"/><stop offset="1" style="stop-color:#681360;stop-opacity:1"/></linearGradient><linearGradient xlink:href="#a" id="b" x1="3.735" x2="13.551" y1="10.647" y2="10.647" gradientUnits="userSpaceOnUse"/></defs><path d="M5.741 14.403c-.375-.463-3.613 2.77-3.613 2.77 3.23-3.23 2.758-3.625 2.758-3.625Z" style="fill:#18181b;fill-opacity:1;fill-rule:evenodd;stroke:#242424;stroke-width:.529167;stroke-linecap:round;stroke-linejoin:round;stroke-miterlimit:29;stroke-dasharray:none;stroke-opacity:1"/><g style="stroke-width:4.6166528;stroke-dasharray:none;fill:none"><path d="M9.81 25.002a6.175 6.175 0 1 1 0 12.35 6.175 6.175 0 0 1 0-12.35m16.375 0a6.175 6.175 0 1 1 0 12.35 6.175 6.175 0 0 1 0-12.35" style="fill:none;fill-opacity:1;fill-rule:evenodd;stroke:#242424;stroke-width:4.61665;stroke-linecap:round;stroke-linejoin:round;stroke-miterlimit:29;stroke-dasharray:none;stroke-opacity:1" transform="rotate(45 10.335 17.755)scale(.22924)"/></g><path d="m10.922 8.373 4.386-4.386s1.234-.994-.08-2.309l.32-.32 2.41 2.408-.322.321s-1.032-1.396-2.328-.1z" style="fill:#9e9eb2;fill-opacity:1;fill-rule:evenodd;stroke:#242424;stroke-width:1.05833;stroke-linecap:round;stroke-linejoin:round;stroke-miterlimit:29;stroke-dasharray:none;stroke-opacity:1"/><path d="M10.635 6.553s.861-.785 1.874.227c1.012 1.013.227 1.874.227 1.874l-6.372 6.372-2.1-2.1Z" style="fill:url(#b);fill-opacity:1;fill-rule:evenodd;stroke:#242424;stroke-width:1.05833;stroke-linecap:round;stroke-linejoin:round;stroke-miterlimit:29;stroke-dasharray:none;stroke-opacity:1"/><path d="M11.964 9.416s1.495-1.685.545-2.636c-.95-.95-2.63.55-2.63.55Z" style="fill:#9e9eb2;fill-opacity:1;fill-rule:evenodd;stroke:#242424;stroke-width:1.05833;stroke-linecap:round;stroke-linejoin:round;stroke-miterlimit:29;stroke-dasharray:none;stroke-opacity:1"/></svg>