<?xml version="1.0" encoding="UTF-8" standalone="no"?>
<!-- Created with Inkscape (http://www.inkscape.org/) -->

<svg
   width="31"
   height="80"
   viewBox="0 0 8.2020831 21.166667"
   version="1.1"
   id="svg1"
   xml:space="preserve"
   inkscape:version="1.4 (86a8ad7, 2024-10-11)"
   sodipodi:docname="Vaccine_Injector.svg"
   inkscape:export-filename="Vaccine_Injector.png"
   inkscape:export-xdpi="96"
   inkscape:export-ydpi="96"
   xmlns:inkscape="http://www.inkscape.org/namespaces/inkscape"
   xmlns:sodipodi="http://sodipodi.sourceforge.net/DTD/sodipodi-0.dtd"
   xmlns:xlink="http://www.w3.org/1999/xlink"
   xmlns="http://www.w3.org/2000/svg"
   xmlns:svg="http://www.w3.org/2000/svg"><sodipodi:namedview
     id="namedview1"
     pagecolor="#ffffff"
     bordercolor="#000000"
     borderopacity="0.25"
     inkscape:showpageshadow="2"
     inkscape:pageopacity="0.0"
     inkscape:pagecheckerboard="0"
     inkscape:deskcolor="#d1d1d1"
     inkscape:document-units="px"
     inkscape:zoom="8.1336326"
     inkscape:cx="12.171683"
     inkscape:cy="40.756697"
     inkscape:window-width="1920"
     inkscape:window-height="1009"
     inkscape:window-x="-8"
     inkscape:window-y="-8"
     inkscape:window-maximized="1"
     inkscape:current-layer="layer1" /><defs
     id="defs1"><linearGradient
       id="linearGradient1"
       inkscape:collect="always"><stop
         style="stop-color:#00cccc;stop-opacity:1;"
         offset="0"
         id="stop1" /><stop
         style="stop-color:#2e6b6b;stop-opacity:1;"
         offset="1"
         id="stop2" /></linearGradient><linearGradient
       inkscape:collect="always"
       xlink:href="#linearGradient1"
       id="linearGradient2"
       x1="27.200344"
       y1="8.5922174"
       x2="31.275658"
       y2="15.650868"
       gradientUnits="userSpaceOnUse" /></defs><g
     inkscape:label="Layer 1"
     inkscape:groupmode="layer"
     id="layer1"><g
       id="g1"
       transform="translate(-24.616576,-0.1684986)"
       style="stroke:#232323;stroke-opacity:1"><g
         id="g4"
         transform="matrix(0.19266014,0,0,0.19266014,25.315206,-0.37796677)"
         style="stroke-width:5.49327;stroke-dasharray:none;stroke:#232323;stroke-opacity:1"><path
           id="path1"
           style="fill:#17171a;fill-opacity:1;fill-rule:evenodd;stroke:#232323;stroke-width:5.49327;stroke-linecap:round;stroke-linejoin:round;stroke-miterlimit:29;stroke-dasharray:none;stroke-opacity:1"
           d="m 7.1093513,23.190006 a 7.98703,7.98703 0 0 0 -7.98710921,7.987109 7.98703,7.98703 0 0 0 7.98710921,7.986593 7.98703,7.98703 0 0 0 7.9871097,-7.986593 7.98703,7.98703 0 0 0 -7.9871097,-7.987109 z m 0,1.811775 A 6.174933,6.174933 0 0 1 13.284168,31.177115 6.174933,6.174933 0 0 1 7.1093513,37.351932 6.174933,6.174933 0 0 1 0.93453459,31.177115 6.174933,6.174933 0 0 1 7.1093513,25.001781 Z" /><path
           id="path1-5"
           style="fill:#17171a;fill-opacity:1;fill-rule:evenodd;stroke:#232323;stroke-width:5.49327;stroke-linecap:round;stroke-linejoin:round;stroke-miterlimit:29;stroke-dasharray:none;stroke-opacity:1"
           d="m 28.210992,23.190006 c -4.411177,-4.4e-5 -7.987153,3.575932 -7.987109,7.987109 2.41e-4,4.410975 3.576134,7.986637 7.987109,7.986593 4.410975,4.4e-5 7.986869,-3.575618 7.98711,-7.986593 4.4e-5,-4.411177 -3.575933,-7.987153 -7.98711,-7.987109 z m 0,1.811775 c 3.410433,6.4e-5 6.175038,2.764901 6.174817,6.175334 -6.4e-5,3.410231 -2.764586,6.174754 -6.174817,6.174818 -3.410231,-6.5e-5 -6.174752,-2.764587 -6.174816,-6.174818 -2.21e-4,-3.410432 2.764384,-6.175269 6.174816,-6.175334 z"
           sodipodi:nodetypes="cccccccccc" /></g><path
         style="fill:#9e9eb2;fill-opacity:1;fill-rule:evenodd;stroke:#232323;stroke-width:1.05833;stroke-linecap:round;stroke-linejoin:round;stroke-miterlimit:29;stroke-dasharray:none;stroke-opacity:1"
         d="m 27.92224,7.7170711 -2e-6,-5.4730103 c 0,0 -0.08457,-1.0638326 -0.964081,-1.0638326 V 0.79851495 l 3.518921,-1.3e-7 V 1.1802286 c 0,0 -0.922882,0.1088857 -0.922882,1.3240684 l 10e-7,5.2127741 z"
         id="path2"
         sodipodi:nodetypes="ccccccscc" /><path
         style="fill:url(#linearGradient2);fill-rule:evenodd;stroke:#232323;stroke-width:1.05833;stroke-linecap:round;stroke-linejoin:round;stroke-miterlimit:29;stroke-dasharray:none;stroke-opacity:1"
         d="m 27.469273,7.3651391 c 0,0 0.04487,-0.9784318 1.248344,-0.9784317 1.203478,2e-7 1.248344,0.9784315 1.248344,0.9784315 v 9.5481421 h -2.496688 z"
         id="path3"
         sodipodi:nodetypes="czcccc" /><path
         style="fill:#18181b;fill-opacity:1;fill-rule:evenodd;stroke:#232323;stroke-width:1.05833;stroke-linecap:round;stroke-linejoin:round;stroke-miterlimit:29;stroke-dasharray:none;stroke-opacity:1"
         d="m 28.208318,16.918363 c 0,0 0.515612,-0.241367 0.515612,3.79404 0,0 0.0026,-3.84667 0.500999,-3.794041"
         id="path6"
         sodipodi:nodetypes="ccc" /><g
         id="g5"
         style="stroke-width:5.49327;stroke-dasharray:none;stroke:#232323;stroke-opacity:1"
         transform="matrix(0.19266014,0,0,0.19266014,25.018986,-0.10805438)"><path
           style="fill:#44444d;fill-opacity:1;fill-rule:evenodd;stroke:#232323;stroke-width:5.49327;stroke-linecap:round;stroke-linejoin:round;stroke-miterlimit:29;stroke-dasharray:none;stroke-opacity:1"
           d="m 12.74116,88.443953 2.111894,2.40141 h 8.941651 l 1.849211,-2.309049 z"
           id="path5"
           sodipodi:nodetypes="ccccc" /></g><path
         style="fill:#9e9eb2;fill-opacity:1;fill-rule:evenodd;stroke:#232323;stroke-width:1.05833;stroke-linecap:round;stroke-linejoin:round;stroke-miterlimit:29;stroke-dasharray:none;stroke-opacity:1"
         d="m 29.942616,7.3131506 c 0,0 -0.109686,-0.9867508 -1.239454,-0.9867508 -1.129769,6e-7 -1.239455,0.9867505 -1.239455,0.9867505 z"
         id="path11"
         sodipodi:nodetypes="czc" /></g><path
       style="fill:#4d4d4d;fill-rule:evenodd;stroke:#232323;stroke-width:1.05833;stroke-linecap:round;stroke-linejoin:round;stroke-miterlimit:29"
       d="M 4.5216063,8.7504464 H 5.3348447"
       id="path4"
       sodipodi:nodetypes="cc" /><path
       style="fill:#4d4d4d;fill-rule:evenodd;stroke:#232323;stroke-width:1.05833;stroke-linecap:round;stroke-linejoin:round;stroke-miterlimit:29"
       d="M 4.5216063,15.220061 H 5.3348447"
       id="path4-8"
       sodipodi:nodetypes="cc" /><path
       style="fill:#4d4d4d;fill-rule:evenodd;stroke:#232323;stroke-width:1.05833;stroke-linecap:round;stroke-linejoin:round;stroke-miterlimit:29"
       d="M 4.5216063,13.602657 H 5.3348447"
       id="path4-1"
       sodipodi:nodetypes="cc" /><path
       style="fill:#4d4d4d;fill-rule:evenodd;stroke:#232323;stroke-width:1.05833;stroke-linecap:round;stroke-linejoin:round;stroke-miterlimit:29"
       d="M 4.5216063,11.985254 H 5.3348447"
       id="path4-2"
       sodipodi:nodetypes="cc" /><path
       style="fill:#4d4d4d;fill-rule:evenodd;stroke:#232323;stroke-width:1.05833;stroke-linecap:round;stroke-linejoin:round;stroke-miterlimit:29"
       d="M 4.5216063,10.36785 H 5.3348447"
       id="path4-23"
       sodipodi:nodetypes="cc" /></g></svg>
