<?xml version="1.0" encoding="UTF-8" standalone="no"?>
<svg version="1.1" width="64" height="64" viewBox="0 0 64.000001 64.000001" id="svg53" sodipodi:docname="4x_scope.svg" inkscape:version="1.3 (0e150ed6c4, 2023-07-21)" xmlns:inkscape="http://www.inkscape.org/namespaces/inkscape" xmlns:sodipodi="http://sodipodi.sourceforge.net/DTD/sodipodi-0.dtd" xmlns="http://www.w3.org/2000/svg" xmlns:svg="http://www.w3.org/2000/svg">
  <sodipodi:namedview id="namedview55" pagecolor="#505050" bordercolor="#ffffff" borderopacity="1" inkscape:pageshadow="0" inkscape:pageopacity="0" inkscape:pagecheckerboard="1" showgrid="false" inkscape:zoom="15.244592" inkscape:cx="25.254857" inkscape:cy="37.160718" inkscape:window-width="1440" inkscape:window-height="830" inkscape:window-x="0" inkscape:window-y="0" inkscape:window-maximized="1" inkscape:current-layer="svg53" inkscape:showpageshadow="2" inkscape:deskcolor="#d1d1d1" />
  <defs id="defs17">
    <linearGradient x1="168.23801" y1="181.40793" x2="212.96559" y2="181.40793" gradientUnits="userSpaceOnUse" id="color-1" gradientTransform="matrix(0.49276807,-0.28449978,0.28449978,0.49276807,-134.88451,10.502157)">
      <stop offset="0" stop-color="#9f9f9f" id="stop2" />
      <stop offset="1" stop-color="#dbdbdb" id="stop4" />
    </linearGradient>
    <radialGradient cx="234.97382" cy="181.82343" r="25.835449" gradientUnits="userSpaceOnUse" id="color-2" gradientTransform="matrix(0.49276807,-0.28449978,0.28449978,0.49276807,-134.88451,10.502157)">
      <stop offset="0" stop-color="#dbdbdb" id="stop7" />
      <stop offset="1" stop-color="#9f9f9f" id="stop9" />
    </radialGradient>
    <linearGradient x1="263.87292" y1="181.6638" x2="296.09949" y2="181.6638" gradientUnits="userSpaceOnUse" id="color-3" gradientTransform="matrix(0.49276807,-0.28449978,0.28449978,0.49276807,-134.88451,10.502157)">
      <stop offset="0" stop-color="#dbdbdb" id="stop12" />
      <stop offset="1" stop-color="#9f9f9f" id="stop14" />
    </linearGradient>
  </defs>
  <path d="m 40.984837,25.474313 -1.657831,-2.871448 3.54349,-2.045835 1.657831,2.871448 z" fill="#313131" stroke-width="0.853499" id="path19" style="mix-blend-mode:normal;fill-rule:nonzero;stroke:#141414;stroke-linecap:butt;stroke-linejoin:miter;stroke-miterlimit:10;stroke-dasharray:none;stroke-dashoffset:0;stroke-opacity:1" />
  <path d="m 37.52906,21.889809 c -0.270326,-0.468219 -0.552003,-0.956099 -0.709184,-1.228343 -0.234191,-0.405632 -0.175266,-1.228968 0.515979,-1.628059 0.481868,-0.278207 2.366682,-1.366404 3.190467,-1.842017 0.921648,-0.532114 1.591806,-0.129707 1.825995,0.27592 0.137322,0.237849 0.446718,0.77374 0.683502,1.183861 0.394578,0.68343 0.236037,1.53671 -0.474988,1.947221 -0.465158,0.268559 -2.375689,1.371605 -3.125022,1.804232 -0.893038,0.515596 -1.547348,0.109696 -1.906753,-0.512813 z" fill="#151515" stroke-width="0.853499" id="path21" style="mix-blend-mode:normal;fill-rule:nonzero;stroke:#141414;stroke-linecap:butt;stroke-linejoin:miter;stroke-miterlimit:10;stroke-dasharray:none;stroke-dashoffset:0;stroke-opacity:1;fill:#2c2c2c;fill-opacity:1;stroke-width:0.853" />
  <path d="m 22.670241,36.192211 -1.657831,-2.871448 3.54349,-2.045835 1.657831,2.871448 z" fill="#313131" stroke-width="0.853499" id="path23" style="mix-blend-mode:normal;fill-rule:nonzero;stroke:#141414;stroke-linecap:butt;stroke-linejoin:miter;stroke-miterlimit:10;stroke-dasharray:none;stroke-dashoffset:0;stroke-opacity:1" />
  <path d="m 19.214465,32.607706 c -0.270326,-0.468218 -0.552004,-0.956098 -0.709184,-1.228343 -0.234192,-0.405631 -0.175267,-1.228968 0.515978,-1.628058 0.481868,-0.278207 2.366682,-1.366405 3.190467,-1.842017 0.921648,-0.532114 1.591806,-0.129707 1.825995,0.27592 0.137322,0.237849 0.446718,0.773739 0.683502,1.18386 0.394578,0.68343 0.236037,1.536711 -0.474988,1.947221 -0.465158,0.26856 -2.375689,1.371605 -3.125021,1.804233 -0.893039,0.515596 -1.547349,0.109696 -1.906754,-0.512813 z" fill="#151515" stroke-width="0.853499" id="path25" style="mix-blend-mode:normal;fill-rule:nonzero;stroke:#141414;stroke-linecap:butt;stroke-linejoin:miter;stroke-miterlimit:10;stroke-dasharray:none;stroke-dashoffset:0;stroke-opacity:1;fill:#2c2c2c;fill-opacity:1" />
  <path d="m 44.874637,32.882257 -2.106493,-3.648554 4.033563,-2.328778 2.106493,3.648553 z" fill="#151515" stroke-width="1.4225" id="path27" style="mix-blend-mode:normal;fill-rule:nonzero;stroke:#141414;stroke-linecap:butt;stroke-linejoin:miter;stroke-miterlimit:10;stroke-dasharray:none;stroke-dashoffset:0;stroke-opacity:1" />
  <path d="m 26.398809,43.381228 -2.106493,-3.648553 4.033562,-2.328779 2.106494,3.648553 z" fill="#151515" stroke-width="1.4225" id="path29" style="mix-blend-mode:normal;fill-rule:nonzero;stroke:#141414;stroke-linecap:butt;stroke-linejoin:miter;stroke-miterlimit:10;stroke-dasharray:none;stroke-dashoffset:0;stroke-opacity:1" />
  <path d="m 31.023425,30.592613 c 0,0 -1.184654,-2.051882 -1.601031,-2.773067 -0.266311,-0.461266 0.0543,-1.543952 0.605516,-1.862196 0.384251,-0.221847 1.107752,-0.639561 1.764657,-1.018825 0.734943,-0.42432 1.775202,-0.127327 2.041511,0.333934 0.416377,0.721186 1.601031,2.773067 1.601031,2.773067 z" fill="#151515" stroke-width="0.14225" id="path31" style="mix-blend-mode:normal;fill-rule:nonzero;stroke:#141414;stroke-linecap:butt;stroke-linejoin:miter;stroke-miterlimit:10;stroke-dasharray:none;stroke-dashoffset:0;stroke-opacity:1;fill:#2c2c2c;fill-opacity:1;stroke-width:0.853" />
  <path d="M 5.0369579,52.470665 C 4.2190861,51.78248 3.0244625,50.635236 2.2170522,49.23676 1.3833881,47.792812 0.92405355,45.710554 0.72980464,44.639856 0.6522497,44.21239 0.91791205,43.772396 1.2323227,43.590871 l 6.6226846,-3.823609 3.6246657,-0.61851 1.902496,-0.2608 1.851848,-2.036475 2.366973,-1.367229 1.817353,0.464015 3.144317,5.446117 -0.756787,1.308027 -2.459634,1.548295 -2.801621,0.705758 -0.957881,1.306048 -2.404139,2.732525 c 0,0 -5.043183,2.91169 -6.2335382,3.598942 -0.4778372,0.275879 -1.3779017,0.326291 -1.9119959,-0.123115 z" fill="url(#color-1)" stroke-width="1.4225" id="path33" style="mix-blend-mode:normal;fill:url(#color-1);fill-rule:nonzero;stroke:#141414;stroke-linecap:butt;stroke-linejoin:miter;stroke-miterlimit:10;stroke-dasharray:none;stroke-dashoffset:0;stroke-opacity:1" sodipodi:nodetypes="csssccccccccccccscc" />
  <path d="m 22.56266,41.39438 -3.144317,-5.446117 25.461769,-14.70036 3.144317,5.446117 z" fill="url(#color-2)" stroke-width="1.4225" id="path35" style="mix-blend-mode:normal;fill:url(#color-2);fill-rule:nonzero;stroke:#141414;stroke-linecap:butt;stroke-linejoin:miter;stroke-miterlimit:10;stroke-dasharray:none;stroke-dashoffset:0;stroke-opacity:1" />
  <path d="m 56.209916,24.321003 -5.750153,1.975358 -2.435334,0.397659 -3.144317,-5.446117 1.416517,-2.162314 4.585786,-3.992099 6.551115,-3.782288 c 0.345938,-0.199728 1.041995,-0.151226 1.557246,0.284637 0.785349,0.664355 1.942851,1.77127 2.782479,3.126428 0.798202,1.288301 1.26078,3.148327 1.490325,4.32009 0.129017,0.658613 -0.268869,1.361489 -0.697074,1.608713 -1.149877,0.663876 -6.356593,3.669928 -6.356593,3.669928 z" data-paper-data="{&quot;index&quot;:null}" fill="url(#color-3)" stroke-width="1.4225" id="path37" style="mix-blend-mode:normal;fill:url(#color-3);fill-rule:nonzero;stroke:#141414;stroke-linecap:butt;stroke-linejoin:miter;stroke-miterlimit:10;stroke-dasharray:none;stroke-dashoffset:0;stroke-opacity:1" sodipodi:nodetypes="ccccccssssscc" />
  <path d="m 58.826838,21.99356 -4.603761,-7.973948 1.638616,-0.946056 4.603762,7.973948 z" fill="#000000" stroke-width="0.14225" id="path39" style="mix-blend-mode:normal;fill-rule:nonzero;stroke:#141414;stroke-linecap:butt;stroke-linejoin:miter;stroke-miterlimit:10;stroke-dasharray:none;stroke-dashoffset:0;stroke-opacity:1;fill:#141414;fill-opacity:1" />
  <path d="m 9.3889379,50.406842 -3.0549159,-5.29127 1.7646566,-1.018825 3.0549164,5.29127 z" fill="#000000" stroke-width="0.14225" id="path41" style="mix-blend-mode:normal;fill-rule:nonzero;stroke:#141414;stroke-linecap:butt;stroke-linejoin:miter;stroke-miterlimit:10;stroke-dasharray:none;stroke-dashoffset:0;stroke-opacity:1;fill:#141414;fill-opacity:1" />
  <path d="M 6.4566181,52.023117 1.8694888,44.077975 3.6341454,43.05915 8.2212748,51.004291 Z" fill="#000000" stroke-width="0.14225" id="path43" style="mix-blend-mode:normal;fill-rule:nonzero;stroke:#141414;stroke-linecap:butt;stroke-linejoin:miter;stroke-miterlimit:10;stroke-dasharray:none;stroke-dashoffset:0;stroke-opacity:1;fill:#141414;fill-opacity:1" />
  <path d="m 31.4331,32.617341 c -0.884004,-1.531139 -0.359397,-3.488999 1.171742,-4.373003 1.531139,-0.884003 3.488999,-0.359396 4.373002,1.171743 0.884004,1.531139 0.359397,3.488999 -1.171742,4.373002 -1.531139,0.884003 -3.488999,0.359396 -4.373002,-1.171742 z" fill="#a7a7a7" stroke-width="0.853499" id="path45" style="mix-blend-mode:normal;fill-rule:nonzero;stroke:#141414;stroke-linecap:butt;stroke-linejoin:miter;stroke-miterlimit:10;stroke-dasharray:none;stroke-dashoffset:0;stroke-opacity:1" />
  <path d="m 22.637873,45.976051 c -0.194538,-0.33695 -0.118006,-0.589879 0.187677,-0.654422 0.375494,-0.07928 0.894018,-0.225428 1.340377,-0.483134 0.557262,-0.321735 0.754465,-0.93981 1.420283,-1.32422 0.490876,-0.283408 1.396414,-0.302 2.235115,-0.786225 0.531248,-0.306716 0.904976,-1.026707 1.546323,-1.39699 0.702116,-0.405366 1.555711,-0.39397 2.361155,-0.858993 0.568019,-0.327946 1.065687,-1.119495 1.672408,-1.469785 0.654973,-0.378149 1.547782,-0.389393 2.235115,-0.786224 0.662261,-0.382357 1.118186,-1.149806 1.798448,-1.542555 0.793228,-0.45797 1.81298,-0.542505 2.613236,-1.004532 0.760016,-0.438796 1.300628,-1.255139 2.050528,-1.688093 0.725172,-0.418679 1.660193,-0.454293 2.361155,-0.858994 0.779086,-0.449805 1.32034,-1.266518 2.050528,-1.688093 0.613832,-0.354396 1.482683,-0.351807 2.109075,-0.713455 0.685746,-0.395915 1.124228,-1.153293 1.672408,-1.469785 0.836986,-0.483234 1.773081,-0.519469 2.361155,-0.858994 0.645694,-0.372791 1.074656,-0.759761 1.336333,-1.043001 0.236165,-0.255633 0.488746,-0.162349 0.700243,0.203974 0.311638,0.539774 0.751005,1.30078 1.017878,1.763016 0.42397,0.734338 0.263174,2.706657 -1.337544,3.630831 -6.623557,3.824113 -23.966795,13.837236 -27.334638,15.781661 -1.109709,0.640691 -2.786149,0.0385 -3.175607,-0.63606 0,0 -0.86424,-1.496873 -1.221651,-2.115927 z" fill="#2c2c2c" stroke-width="1.4225" id="path47" style="mix-blend-mode:normal;fill-rule:nonzero;stroke:#141414;stroke-linecap:butt;stroke-linejoin:miter;stroke-miterlimit:10;stroke-dasharray:none;stroke-dashoffset:0;stroke-opacity:1" />
</svg>
