<?xml version="1.0" encoding="UTF-8" standalone="no"?>
<svg
   version="1.1"
   width="64"
   height="64"
   viewBox="0 0 64 64.000001"
   id="svg55"
   sodipodi:docname="8x_scope.svg"
   inkscape:version="1.1.2 (0a00cf5339, 2022-02-04)"
   xmlns:inkscape="http://www.inkscape.org/namespaces/inkscape"
   xmlns:sodipodi="http://sodipodi.sourceforge.net/DTD/sodipodi-0.dtd"
   xmlns="http://www.w3.org/2000/svg"
   xmlns:svg="http://www.w3.org/2000/svg">
  <sodipodi:namedview
     id="namedview57"
     pagecolor="#505050"
     bordercolor="#ffffff"
     borderopacity="1"
     inkscape:pageshadow="0"
     inkscape:pageopacity="0"
     inkscape:pagecheckerboard="1"
     showgrid="false"
     inkscape:zoom="11.886566"
     inkscape:cx="32.137122"
     inkscape:cy="22.882977"
     inkscape:window-width="2560"
     inkscape:window-height="1372"
     inkscape:window-x="0"
     inkscape:window-y="0"
     inkscape:window-maximized="1"
     inkscape:current-layer="svg55" />
  <defs
     id="defs17">
    <linearGradient
       x1="149.88675"
       y1="179.12709"
       x2="206.19997"
       y2="179.12709"
       gradientUnits="userSpaceOnUse"
       id="color-1">
      <stop
         offset="0"
         stop-color="#d89200"
         id="stop2" />
      <stop
         offset="1"
         stop-color="#ffd852"
         id="stop4" />
    </linearGradient>
    <radialGradient
       cx="233.49757"
       cy="179.54852"
       r="32.527519"
       gradientUnits="userSpaceOnUse"
       id="color-2">
      <stop
         offset="0"
         stop-color="#ffd852"
         id="stop7" />
      <stop
         offset="1"
         stop-color="#d89200"
         id="stop9" />
    </radialGradient>
    <linearGradient
       x1="270.29364"
       y1="179.44923"
       x2="310.86774"
       y2="179.44923"
       gradientUnits="userSpaceOnUse"
       id="color-3">
      <stop
         offset="0"
         stop-color="#ffd852"
         id="stop12" />
      <stop
         offset="1"
         stop-color="#d89200"
         id="stop14" />
    </linearGradient>
  </defs>
  <g
     transform="matrix(0.38857314,-0.22434281,0.22434281,0.38857314,-98.547507,13.727202)"
     id="g53">
    <g
       data-paper-data="{&quot;isPaintingLayer&quot;:true}"
       fill-rule="nonzero"
       stroke="#000000"
       stroke-linecap="butt"
       stroke-linejoin="miter"
       stroke-miterlimit="10"
       stroke-dasharray="none"
       stroke-dashoffset="0"
       style="mix-blend-mode:normal"
       id="g51">
      <path
         d="m 252.56191,178.30902 v -5.82718 h 7.19099 v 5.82718 z"
         fill="#313131"
         stroke-width="1.5"
         id="path19" />
      <path
         d="m 250.452,170.79522 c 0,-0.95018 0,-1.94026 0,-2.49274 0,-0.82317 0.81318,-2.02452 2.21596,-2.02452 0.97788,0 4.80283,0 6.47458,0 1.87035,0 2.53673,1.20136 2.53673,2.02452 0,0.48268 0,1.57019 0,2.40247 0,1.38692 -0.99111,2.54631 -2.43403,2.54631 -0.94397,0 -4.82111,0 -6.34177,0 -1.81229,0 -2.45148,-1.19275 -2.45148,-2.45604 z"
         fill="#151515"
         stroke-width="1.5"
         id="path21" />
      <path
         d="m 214.94245,178.20194 v -5.82718 h 7.19099 v 5.82718 z"
         fill="#313131"
         stroke-width="1.5"
         id="path23" />
      <path
         d="m 212.83254,170.68814 c 0,-0.95018 0,-1.94026 0,-2.49274 0,-0.82317 0.81318,-2.02452 2.21596,-2.02452 0.97788,0 4.80283,0 6.47458,0 1.87035,0 2.53673,1.20136 2.53673,2.02452 0,0.48268 0,1.57019 0,2.40247 0,1.38692 -0.99111,2.54631 -2.43403,2.54631 -0.94397,0 -4.82111,0 -6.34177,0 -1.81229,0 -2.45148,-1.19275 -2.45148,-2.45604 z"
         fill="#151515"
         stroke-width="1.5"
         id="path25" />
      <path
         d="m 206.74145,191.75985 c 0,-0.68379 0.33874,-1.0015 0.86071,-0.83112 0.64117,0.2093 1.5588,0.4425 2.46462,0.4425 1.13088,0 1.97415,-0.76743 3.32533,-0.76743 0.99616,0 2.39074,0.76743 4.09276,0.76743 1.07809,0 2.27959,-0.76743 3.58111,-0.76743 1.42484,0 2.71401,0.76743 4.34854,0.76743 1.15271,0 2.60573,-0.76743 3.83698,-0.76743 1.32917,0 2.69792,0.76743 4.09276,0.76743 1.34396,0 2.71227,-0.76743 4.09276,-0.76743 1.60974,0 3.2361,0.76743 4.8601,0.76743 1.54234,0 3.08251,-0.76743 4.60432,-0.76743 1.47163,0 2.92604,0.76743 4.34854,0.76743 1.58104,0 3.12251,-0.76743 4.60432,-0.76743 1.24568,0 2.56581,0.76743 3.83698,0.76743 1.39162,0 2.72453,-0.76743 3.83698,-0.76743 1.69854,0 3.15513,0.76743 4.34854,0.76743 1.31034,0 2.30327,-0.21203 2.95044,-0.41318 0.58408,-0.18155 0.88654,0.18238 0.88654,0.92578 0,1.09539 0,2.63974 0,3.57778 0,1.49023 -1.97788,4.35083 -5.2263,4.35083 -13.44153,0 -48.63707,0 -55.47161,0 -2.25199,0 -4.27439,-2.38969 -4.27439,-3.75861 0,0 -3e-5,-3.0377 -3e-5,-4.29398 z"
         fill="#2c2c2c"
         stroke-width="2.5"
         id="path27" />
      <g
         id="g49">
        <path
           d="m 252.09467,191.37115 v -12.29712 h 8.18552 v 12.29712 z"
           fill="#151515"
           stroke-width="2"
           id="path29" />
        <path
           d="m 214.74839,191.11535 v -12.29712 h 8.18552 v 12.29712 z"
           fill="#151515"
           stroke-width="2"
           id="path31" />
        <path
           d="m 231.65128,177.99996 c 0,0 0,-5.24257 0,-7.08521 0,-1.17854 1.8122,-2.89853 3.22056,-2.89853 0.98176,0 2.83032,0 4.50871,0 1.87779,0 3.54261,1.72001 3.54261,2.89853 0,1.84264 0,7.08521 0,7.08521 z"
           fill="#151515"
           stroke-width="0.25"
           id="path33" />
        <path
           d="m 155.7015,185.97381 c -0.55761,-1.58164 -1.13237,-3.89355 -1.13237,-6.70391 0,-3.18605 0.62823,-5.64318 1.20829,-7.23284 0.49742,-1.36321 2.06802,-2.0885 3.17327,-2.0885 3.29583,0 19.68586,0 19.68586,0 l 9.61606,2.82493 5.79225,1.60507 5.80167,-1.85361 6.04836,-0.002 3.56702,2.57836 -0.10435,8.43796 -3.39084,2.24822 -6.42625,0.24571 -6.14944,-1.74716 -5.13854,1.44297 -9.61606,2.5764 c 0,0 -16.36678,-1e-5 -19.66979,-1e-5 -1.1121,0 -2.73985,-0.84188 -3.26514,-2.33183 z"
           fill="url(#color-1)"
           stroke-width="2.5"
           id="path35"
           style="fill:url(#color-1)" />
        <path
           d="m 208.86406,184.11896 v -8.69549 c 0,0 0.18469,0 3.58255,0 9.90914,0 58.21053,0 58.21053,0 v 8.69549 z"
           fill="url(#color-2)"
           stroke-width="2.5"
           id="path37"
           style="fill:url(#color-2)" />
        <path
           d="m 286.35848,188.62768 -10.59464,-2.5764 -5.13854,-1.44286 -0.33167,-9.65919 5.47022,-2.10215 10.59464,-2.5764 c 0,0 17.29944,0 20.27902,0 1.31234,0 2.02461,0.771 2.47414,2.00395 0.60665,1.66386 1.31426,4.20306 1.31426,6.99524 0,2.82489 -0.80446,5.68079 -1.43324,7.48158 -0.49195,1.40892 -1.60071,1.87631 -3.09304,1.87631 -3.35897,-1e-5 -19.54115,-8e-5 -19.54115,-8e-5 z"
           data-paper-data="{&quot;index&quot;:null}"
           fill="url(#color-3)"
           stroke-width="2.5"
           id="path39"
           style="fill:url(#color-3)" />
        <path
           d="m 297.35452,188.04151 v -16.4589 h 4.18668 v 16.4589 z"
           fill="#000000"
           stroke-width="0.25"
           id="path41" />
        <path
           d="m 166.39845,186.81438 v -8.29986 h 4.50871 v 8.29986 z"
           fill="#000000"
           stroke-width="0.25"
           id="path43" />
        <path
           d="m 158.99121,187.31977 v -16.0591 h 4.50871 v 16.0591 z"
           fill="#000000"
           stroke-width="0.25"
           id="path45" />
        <path
           d="m 231.97332,179.9323 c 0,-2.84587 2.30703,-5.15289 5.15289,-5.15289 2.84587,0 5.15289,2.30703 5.15289,5.15289 0,2.84587 -2.30703,5.15289 -5.15289,5.15289 -2.84587,0 -5.15289,-2.30703 -5.15289,-5.15289 z"
           fill="#ffbd52"
           stroke-width="1.5"
           id="path47" />
      </g>
    </g>
  </g>
</svg>
