<svg width="80" height="51" viewBox="0 0 80 51" fill="none" xmlns="http://www.w3.org/2000/svg">
<path d="M78.4326 22.9119V9.37109L58.4162 9.37109V22.9119H78.4326Z" fill="#8B8C8E" stroke="#383838" stroke-width="2" stroke-miterlimit="0" stroke-linecap="round" stroke-linejoin="round"/>
<path d="M78.4326 40.7848V34.8628H56.8499V40.7848H78.4326Z" fill="#8B8C8E" stroke="#383838" stroke-width="2" stroke-miterlimit="0" stroke-linecap="round" stroke-linejoin="round"/>
<path d="M67.2506 1.59375H45.8601C43.5659 1.59375 41.7061 3.45356 41.7061 5.74775V44.4078C41.7061 46.702 43.5659 48.5618 45.8601 48.5618H67.2506C69.5448 48.5618 71.4046 46.702 71.4046 44.4078V5.74775C71.4046 3.45356 69.5448 1.59375 67.2506 1.59375Z" fill="#BC8052" stroke="#5C3B24" stroke-width="3" stroke-miterlimit="0" stroke-linecap="round" stroke-linejoin="round"/>
<path d="M45.7816 1.5H6.24873C3.95454 1.5 2.09473 3.35981 2.09473 5.654V44.502C2.09473 46.7962 3.95454 48.656 6.24873 48.656H45.7816C48.0758 48.656 49.9356 46.7962 49.9356 44.502V5.654C49.9356 3.35981 48.0758 1.5 45.7816 1.5Z" fill="#4D4D4D" stroke="#2E2E2E" stroke-width="3" stroke-miterlimit="0" stroke-linecap="round" stroke-linejoin="round"/>
<path d="M6.32324 19.9725C6.32324 19.9725 35.979 33.6377 35.9833 33.6394L37.67 34.3978C36.8252 31.4581 35.2169 24.89 35.1514 24.869C37.0738 25.5559 45.7061 28.5119 45.7061 28.6393V20.21L41.6338 19.3548L26.8739 15.7578L28.9984 23.4702L6.32324 19.9725Z" fill="#B89C47" stroke="#433A1A" stroke-width="2" stroke-linecap="round" stroke-linejoin="round"/>
</svg>
