<svg xmlns="http://www.w3.org/2000/svg" xmlns:xlink="http://www.w3.org/1999/xlink" xml:space="preserve" width="70" height="48.193" viewBox="0 0 18.521 12.751"><defs><linearGradient id="a"><stop offset="0" style="stop-color:#cd0000;stop-opacity:1"/><stop offset="1" style="stop-color:#7d0001;stop-opacity:1"/></linearGradient><linearGradient xlink:href="#a" id="b" x1="84.169" x2="90.717" y1="-23.82" y2="-17.272" gradientTransform="matrix(1.09838 0 0 1.09704 -7.734 2.563)" gradientUnits="userSpaceOnUse"/></defs><g style="stroke-width:1.09708"><path d="M80.276-25.774h16.07v11.594h-16.07Z" style="fill:#f3f3f3;stroke-width:1.09708;stroke-linejoin:round" transform="matrix(.91429 0 0 .90876 -71.481 24)"/><path d="M-14.5-90.61h1.686v4.597H-14.5z" style="fill:#f3f3f3;fill-opacity:1;stroke:#242424;stroke-width:.870802;stroke-linecap:round;stroke-linejoin:round;stroke-miterlimit:10;stroke-dasharray:none" transform="matrix(0 .90876 -.91429 0 -71.481 24)"/><path d="M84.181-25.774h8.26v11.594h-8.26z" style="fill:url(#b);stroke:none;stroke-width:1.16107;stroke-linecap:round;stroke-linejoin:round;stroke-dasharray:none;stroke-opacity:1" transform="matrix(.91429 0 0 .90876 -71.481 24)"/><path fill="#f3f3f3" fill-rule="evenodd" d="M85.61-20.846h1.837v-1.846h1.729v1.846h1.837v1.738h-1.837v1.846h-1.73v-1.846H85.61z" style="stroke:none;stroke-width:0;stroke-linecap:square;stroke-miterlimit:10;stroke-dasharray:none" transform="matrix(.91429 0 0 .90876 -71.481 24)"/><path d="M96.5-21.938h1.505v3.922H96.5M80.123-21.938h-1.505v3.922h1.505" style="fill:none;stroke:#232323;stroke-width:.870802;stroke-linecap:round;stroke-linejoin:round;stroke-dasharray:none;stroke-opacity:1" transform="matrix(.91429 0 0 .90876 -71.481 24)"/><path d="M80.275-26.41a.638.637 0 0 0-.637.636v11.594a.638.637 0 0 0 .637.637h16.07a.638.637 0 0 0 .64-.637v-11.594a.638.637 0 0 0-.64-.636zm.64 1.273h14.793v10.32H80.915Z" style="fill:#232323;stroke-width:1.09708;stroke-linejoin:round" transform="matrix(.91429 0 0 .90876 -71.481 24)"/></g></svg>