<svg xmlns="http://www.w3.org/2000/svg" xmlns:xlink="http://www.w3.org/1999/xlink" xml:space="preserve" width="64" height="59.107"><defs><linearGradient id="a"><stop offset=".278" style="stop-color:#312323;stop-opacity:1"/><stop offset="1" style="stop-color:#2e2e2e;stop-opacity:0"/></linearGradient><linearGradient id="c"><stop offset="0" style="stop-color:#757575;stop-opacity:1"/><stop offset="1" style="stop-color:#757575;stop-opacity:0"/></linearGradient><linearGradient xlink:href="#a" id="d" x1="-26.309" x2="-13.128" y1="7.941" y2="7.941" gradientTransform="rotate(-90 -8.749 -3.096)" gradientUnits="userSpaceOnUse"/><linearGradient xlink:href="#a" id="e" x1="-26.309" x2="-13.128" y1="7.941" y2="7.941" gradientTransform="rotate(-90 -8.749 -3.096)" gradientUnits="userSpaceOnUse"/><radialGradient xlink:href="#c" id="f" cx="38.7" cy="49.088" r="2.7" fx="38.7" fy="49.088" gradientTransform="matrix(1 0 0 1.51415 11.859 -28.554)" gradientUnits="userSpaceOnUse"/></defs><g transform="matrix(1.02658 0 0 1.02658 -4.368 -5.871)"><path d="m23.15 29.516-19.033-.703 3.29 24.25 15.743 9.76 15.744-9.76 3.289-24.25z" style="fill:#232323;fill-opacity:1;stroke:#1a1a1a;stroke-width:2.461;stroke-linecap:round;stroke-linejoin:round;stroke-miterlimit:2;stroke-dasharray:none;stroke-opacity:1" transform="translate(15.605 3.078)scale(.8339)"/><path d="m22.95 54.857-9.245-7.063-2.84-2.01-2.3-1.512c-2.92 1.534-2.447 5.098.76 6.417 1.32.407 1.86-.003 2.43-.012l6.627 5.483c.515 1.89 3.368 4.363 4.925 5.852 1.558-1.489 4.41-3.962 4.926-5.852l6.626-5.483c.57.01 1.111.42 2.43.012 3.207-1.319 3.68-4.883.76-6.417l-2.299 1.512-2.84 2.01-9.246 7.063" style="fill:#282828;fill-opacity:1;stroke:none;stroke-width:1.8731;stroke-linecap:round;stroke-linejoin:round;stroke-miterlimit:2;stroke-dasharray:none;stroke-opacity:1" transform="translate(11.745 -.766)"/><path d="M9.047 44.336c-3.043 1.69-1.814 4.935 2.873 4.111l11.387 8.35 11.386-8.35c4.688.824 5.918-2.421 2.875-4.111l-1.341 1.393-3.317 1.796-9.601 7.159-.002 1.363v-1.363l-9.602-7.159-3.316-1.796z" style="fill:#434343;fill-opacity:1;stroke:none;stroke-width:.936171;stroke-linecap:round;stroke-linejoin:round;stroke-miterlimit:2;stroke-dasharray:none;stroke-opacity:1" transform="translate(11.745 -.766)"/><path d="m11.92 48.447.167 1.56 7.024 6.452v-2.707zm22.774 0-.167 1.56-7.023 6.452v-2.707z" style="fill:#333;fill-opacity:1;stroke:none;stroke-width:.936171;stroke-linecap:round;stroke-linejoin:round;stroke-miterlimit:2;stroke-dasharray:none;stroke-opacity:1" transform="translate(11.745 -.766)"/><path d="M7.854 48.705c1.238.465 2.258 1.365 4.15.522l.083.78H8.615Zm30.907 0c-1.238.465-2.259 1.365-4.15.522l-.084.78H38Z" style="fill:#262626;fill-opacity:1;stroke:none;stroke-width:.936171;stroke-linecap:round;stroke-linejoin:round;stroke-miterlimit:2;stroke-dasharray:none;stroke-opacity:1" transform="translate(11.745 -.766)"/><path d="M19.111 53.752c.119.742 2.272 3.555 4.196 4.6v-3.108zm4.196 4.6c1.923-1.045 4.079-3.858 4.197-4.6l-4.195 1.492z" style="fill:#434343;fill-opacity:1;stroke:none;stroke-width:.936171;stroke-linecap:round;stroke-linejoin:round;stroke-miterlimit:2;stroke-dasharray:none;stroke-opacity:1" transform="translate(11.745 -.766)"/><path d="m23.164 53.899-9.698-7.35c-1.275.157-1.53.17-2.745-.344-1.486-.614-1.007-.625-1.562-1.705-2.92 1.534-2.138 4.488 1.07 5.807.725.353.93.377 1.526.37l6.626 5.215c.852 1.721 3.624 5.47 4.76 7.17m.31-9.163 9.697-7.35c1.276.157 1.53.17 2.745-.344 1.486-.614 1.008-.625 1.562-1.705 2.92 1.534 2.138 4.488-1.069 5.807-.725.353-.93.377-1.527.37l-6.626 5.215c-.852 1.721-3.623 5.47-4.759 7.17" style="fill:none;fill-opacity:1;stroke:#1a1a1a;stroke-width:2;stroke-linecap:round;stroke-linejoin:round;stroke-miterlimit:2;stroke-dasharray:none;stroke-opacity:1" transform="translate(11.745 -.766)"/><path d="M19.79 54.194c0 .075-.087.136-.195.136s-.195-.06-.195-.136c0-.075.087-.135.195-.135s.195.06.195.135m7.035 0c0 .075.087.136.195.136.107 0 .194-.06.194-.136 0-.075-.087-.135-.194-.135s-.195.06-.195.135" style="fill:#131313;fill-opacity:1;stroke:none;stroke-width:.381464;stroke-linecap:round;stroke-linejoin:round;stroke-miterlimit:2;stroke-dasharray:none;stroke-opacity:1" transform="translate(11.745 -.766)"/><path d="M22.815 56.856c0 .084-.087.152-.195.152-.107 0-.194-.068-.194-.152 0-.085.087-.153.194-.153s.195.068.195.153m.984 0c0 .084.088.152.195.152s.195-.068.195-.152c0-.085-.087-.153-.195-.153s-.195.068-.195.153" style="fill:#131313;fill-opacity:1;stroke:none;stroke-width:.404381;stroke-linecap:round;stroke-linejoin:round;stroke-miterlimit:2;stroke-dasharray:none;stroke-opacity:1" transform="translate(11.745 -.766)"/><path d="M22.154 57.768c0 .131-.069.237-.153.237s-.153-.106-.153-.237c0-.13.069-.236.153-.236s.153.106.153.236m2.307 0c0 .131.068.237.153.237s.152-.106.152-.237c0-.13-.068-.236-.152-.236-.085 0-.153.106-.153.236" style="fill:#131313;fill-opacity:1;stroke:none;stroke-width:.4459;stroke-linecap:round;stroke-linejoin:round;stroke-miterlimit:2;stroke-dasharray:none;stroke-opacity:1" transform="translate(11.745 -.766)"/><path d="M19.454 55.187c0 .13-.046.237-.102.237-.057 0-.102-.107-.102-.237 0-.131.045-.237.102-.237s.102.106.102.237m7.706 0c0 .13.046.237.103.237s.102-.107.102-.237c0-.131-.046-.237-.102-.237-.057 0-.103.106-.103.237" style="fill:#131313;fill-opacity:1;stroke:none;stroke-width:.364878;stroke-linecap:round;stroke-linejoin:round;stroke-miterlimit:2;stroke-dasharray:none;stroke-opacity:1" transform="translate(11.745 -.766)"/><path d="M18.327 54.08c0 .113-.05.204-.11.204-.062 0-.111-.091-.111-.203s.05-.204.11-.204c.061 0 .111.091.111.204m9.96 0c0 .113.05.204.111.204s.11-.091.11-.203-.049-.204-.11-.204c-.06 0-.11.091-.11.204M13.03 50.044c0 .112-.05.203-.111.203-.062 0-.111-.09-.111-.203 0-.112.05-.203.11-.203.062 0 .111.091.111.203m20.555 0c0 .112.05.203.111.203s.11-.09.11-.203c0-.112-.049-.203-.11-.203s-.11.091-.11.203" style="fill:#131313;fill-opacity:1;stroke:none;stroke-width:.351594;stroke-linecap:round;stroke-linejoin:round;stroke-miterlimit:2;stroke-dasharray:none;stroke-opacity:1" transform="translate(11.745 -.766)"/><path d="m-31.769 37.604-12.147-9.28-3.732-2.641-5.141-2.497c-3.837 2.015-1.095 7.209 3.118 8.942 1.733.535 2.444-.004 3.193-.016l8.706 7.204c.657 2.409 4.203 3.846 6.283 5.716 2.08-1.87 5.627-3.307 6.283-5.716l8.707-7.204c.748.012 1.46.55 3.192.016 4.214-1.733 6.956-6.927 3.119-8.942l-5.141 2.497-3.732 2.64-12.147 9.28" style="fill:#282828;fill-opacity:1;stroke:none;stroke-width:2.461;stroke-linecap:round;stroke-linejoin:round;stroke-miterlimit:2;stroke-dasharray:none;stroke-opacity:1" transform="matrix(.70133 0 0 .7145 56.993 19.413)"/><path d="M-52.79 23.186c-3.997 2.22.372 7.078 6.53 5.996l14.772 10.982 14.771-10.982c6.158 1.082 10.527-3.776 6.53-5.996l-4.516 2.425-4.358 2.36-12.427 9.265-12.43-9.265-4.355-2.36z" style="fill:#434343;fill-opacity:1;stroke:none;stroke-width:1.23;stroke-linecap:round;stroke-linejoin:round;stroke-miterlimit:2;stroke-dasharray:none;stroke-opacity:1" transform="matrix(.70133 0 0 .7145 56.993 19.413)"/><path d="m-46.26 29.181.218 2.051 9.228 8.477v-3.557zm29.543 0-.219 2.051-9.227 8.477v-3.557z" style="fill:#333;fill-opacity:1;stroke:none;stroke-width:1.23;stroke-linecap:round;stroke-linejoin:round;stroke-miterlimit:2;stroke-dasharray:none;stroke-opacity:1" transform="matrix(.70133 0 0 .7145 56.993 19.413)"/><path d="M-51.604 29.521c1.627.61 2.967 1.793 5.453.686l.11 1.025h-4.563zm40.23 0c-1.626.61-2.967 1.793-5.452.686l-.11 1.025h4.563z" style="fill:#262626;fill-opacity:1;stroke:none;stroke-width:1.23;stroke-linecap:round;stroke-linejoin:round;stroke-miterlimit:2;stroke-dasharray:none;stroke-opacity:1" transform="matrix(.70133 0 0 .7145 56.993 19.413)"/><path d="M-36.814 36.152c.154.967 2.816 3.626 5.326 5.008 2.51-1.382 5.17-4.041 5.324-5.008l-5.324 1.893z" style="fill:#434343;fill-opacity:1;stroke:none;stroke-width:1.23;stroke-linecap:round;stroke-linejoin:round;stroke-miterlimit:2;stroke-dasharray:none;stroke-opacity:1" transform="matrix(.70133 0 0 .7145 56.993 19.413)"/><path d="M-31.457 46.385c1.491-2.234 5.133-5.16 6.252-7.422l8.706-6.851c.784.009 1.052-.023 2.006-.487 4.213-1.733 8.142-6.425 4.305-8.44-.728 1.42-3 2.244-4.953 3.051-1.596.676-1.93.659-3.607.453-3.848 3.12-8.77 10.51-12.74 10.88-3.972-.37-8.894-7.76-12.742-10.88-1.676.206-2.01.223-3.607-.453-1.952-.807-4.224-1.632-4.953-3.051-3.837 2.015.092 6.707 4.306 8.44.953.464 1.222.496 2.006.487l8.705 6.85c1.12 2.263 4.761 5.19 6.253 7.423" style="fill:none;fill-opacity:1;stroke:#1a1a1a;stroke-width:2.461;stroke-linecap:round;stroke-linejoin:round;stroke-miterlimit:2;stroke-dasharray:none;stroke-opacity:1" transform="matrix(.70133 0 0 .7145 56.993 19.413)"/><path d="M-35.922 36.733c0 .099-.114.179-.256.179-.141 0-.256-.08-.256-.179s.115-.178.256-.178.256.08.256.178m8.866 0c0 .099.115.179.256.179s.256-.08.256-.179-.114-.178-.256-.178c-.141 0-.256.08-.256.178" style="fill:#131313;fill-opacity:1;stroke:none;stroke-width:.501192;stroke-linecap:round;stroke-linejoin:round;stroke-miterlimit:2;stroke-dasharray:none;stroke-opacity:1" transform="matrix(.70133 0 0 .7145 56.993 19.413)"/><path d="M-31.947 40.23c0 .11-.114.2-.256.2-.14 0-.256-.09-.256-.2s.115-.201.256-.201.256.09.256.2m.916 0c0 .11.115.2.256.2s.256-.09.256-.2-.114-.201-.256-.201c-.141 0-.256.09-.256.2" style="fill:#131313;fill-opacity:1;stroke:none;stroke-width:.531301;stroke-linecap:round;stroke-linejoin:round;stroke-miterlimit:2;stroke-dasharray:none;stroke-opacity:1" transform="matrix(.70133 0 0 .7145 56.993 19.413)"/><path d="M-32.816 41.429c0 .172-.09.311-.2.311s-.201-.14-.201-.311c0-.172.09-.311.2-.311s.201.14.201.311m2.655 0c0 .172.09.311.2.311s.2-.14.2-.311c0-.172-.089-.311-.2-.311-.11 0-.2.14-.2.311" style="fill:#131313;fill-opacity:1;stroke:none;stroke-width:.585851;stroke-linecap:round;stroke-linejoin:round;stroke-miterlimit:2;stroke-dasharray:none;stroke-opacity:1" transform="matrix(.70133 0 0 .7145 56.993 19.413)"/><path d="M-36.363 38.037c0 .172-.06.311-.134.311s-.134-.14-.134-.311c0-.172.06-.311.134-.311s.134.139.134.31m9.748 0c0 .172.06.311.135.311.074 0 .134-.14.134-.311 0-.172-.06-.311-.134-.311s-.135.139-.135.31" style="fill:#131313;fill-opacity:1;stroke:none;stroke-width:.4794;stroke-linecap:round;stroke-linejoin:round;stroke-miterlimit:2;stroke-dasharray:none;stroke-opacity:1" transform="matrix(.70133 0 0 .7145 56.993 19.413)"/><path d="M-37.844 36.584c0 .147-.065.267-.145.267s-.146-.12-.146-.267.066-.267.146-.267.145.12.145.267m12.71 0c0 .147.065.267.146.267s.145-.12.145-.267-.065-.267-.145-.267-.146.12-.146.267m-19.67-5.304c0 .148-.065.267-.146.267s-.145-.12-.145-.267.065-.267.145-.267.146.12.146.267m26.63 0c0 .148.066.267.146.267s.146-.12.146-.267-.065-.267-.146-.267-.145.12-.145.267" style="fill:#131313;fill-opacity:1;stroke:none;stroke-width:.461947;stroke-linecap:round;stroke-linejoin:round;stroke-miterlimit:2;stroke-dasharray:none;stroke-opacity:1" transform="matrix(.70133 0 0 .7145 56.993 19.413)"/><path d="m-4.276 5.451-2.337-.861-1.235 1.21.706 2.303m-2.505 3.905-2.403.652-.306 1.703 1.91 1.467" style="fill:#262626;fill-opacity:1;stroke:#1a1a1a;stroke-width:1.02569;stroke-linecap:square;stroke-linejoin:round;stroke-miterlimit:2;stroke-dasharray:none;stroke-opacity:1" transform="rotate(5.176 -93.2 207.827)"/><path d="m-3.383 17.804 2.013-6.415-.683-6.42-2.356-.051c-3.696 3.298-6.254 6.655-6.227 12.406z" style="fill:#312323;fill-opacity:1;stroke:none;stroke-width:2.05222;stroke-linecap:round;stroke-linejoin:round;stroke-miterlimit:2;stroke-dasharray:none;stroke-opacity:1" transform="rotate(5.176 -93.2 207.827)"/><path d="M-9.917 17.324c.095-5.318 2.31-9.37 6.227-12.406l2.215.683c-3.104 3.464-7.94 4.892-7.356 10.769z" style="fill:#4f3737;fill-opacity:1;stroke:none;stroke-width:2.05222;stroke-linecap:round;stroke-linejoin:round;stroke-miterlimit:2;stroke-dasharray:none;stroke-opacity:1" transform="rotate(5.176 -93.2 207.827)"/><path d="M-2.664 17.804-.65 11.39l-.683-6.42-2.357-.051c-3.695 3.298-6.253 6.655-6.227 12.406z" style="fill:none;fill-opacity:1;stroke:#1a1a1a;stroke-width:2.05222;stroke-linecap:round;stroke-linejoin:round;stroke-miterlimit:2;stroke-dasharray:none;stroke-opacity:1" transform="rotate(5.176 -93.2 207.827)"/><g transform="translate(16.701 11.285)"><path d="M-2.012 2.284h8.6L6 13.464h-7.243z" style="fill:#513a3a;fill-opacity:1;stroke:#1a1a1a;stroke-width:2;stroke-linecap:round;stroke-linejoin:round;stroke-miterlimit:2;stroke-dasharray:none;stroke-opacity:1"/><rect width="9.208" height="1.608" x="-2.316" y="2.284" rx="1.811" ry="1.68" style="fill:#715151;fill-opacity:1;stroke:none;stroke-width:1.58906;stroke-linecap:round;stroke-linejoin:round;stroke-miterlimit:2;stroke-dasharray:none;stroke-opacity:1"/><path d="M-2.012 2.284h8.6L6 13.464h-7.243z" style="fill:url(#d);stroke:#1a1a1a;stroke-width:2;stroke-linecap:round;stroke-linejoin:round;stroke-miterlimit:2;stroke-dasharray:none;stroke-opacity:1"/><rect width="4.595" height="10.283" rx="1.811" ry="1.68" style="fill:#3f3f3f;fill-opacity:1;stroke:#1a1a1a;stroke-width:1;stroke-linecap:round;stroke-linejoin:round;stroke-miterlimit:2;stroke-dasharray:none;stroke-opacity:1"/><ellipse cx="2.288" cy="6.571" rx="1.018" ry="1.889" style="fill:#411313;fill-opacity:1;stroke:#1a1a1a;stroke-width:1.00068;stroke-linecap:round;stroke-linejoin:round;stroke-miterlimit:2;stroke-dasharray:none;stroke-opacity:1"/><path d="M2.922 3.417v-8.483H1.654v8.424" style="fill:#5b5b5b;fill-opacity:1;stroke:#1a1a1a;stroke-width:1;stroke-linecap:round;stroke-linejoin:round;stroke-miterlimit:2;stroke-dasharray:none;stroke-opacity:1"/></g><path d="m-4.276 5.451-2.337-.861-1.235 1.21.706 2.303m-2.505 3.905-2.403.652-.306 1.703 1.91 1.467" style="fill:#262626;fill-opacity:1;stroke:#1a1a1a;stroke-width:1.02569;stroke-linecap:square;stroke-linejoin:round;stroke-miterlimit:2;stroke-dasharray:none;stroke-opacity:1" transform="scale(-1 1)rotate(5.176 -129.773 -575.894)"/><path d="m-3.383 17.804 2.013-6.415-.683-6.42-2.356-.051c-3.696 3.298-6.254 6.655-6.227 12.406z" style="fill:#312323;fill-opacity:1;stroke:none;stroke-width:2.05222;stroke-linecap:round;stroke-linejoin:round;stroke-miterlimit:2;stroke-dasharray:none;stroke-opacity:1" transform="scale(-1 1)rotate(5.176 -129.773 -575.894)"/><path d="M-9.917 17.324c.095-5.318 2.31-9.37 6.227-12.406l2.215.683c-3.104 3.464-7.94 4.892-7.356 10.769z" style="fill:#4f3737;fill-opacity:1;stroke:none;stroke-width:2.05222;stroke-linecap:round;stroke-linejoin:round;stroke-miterlimit:2;stroke-dasharray:none;stroke-opacity:1" transform="scale(-1 1)rotate(5.176 -129.773 -575.894)"/><path d="M-2.664 17.804-.65 11.39l-.683-6.42-2.357-.051c-3.695 3.298-6.253 6.655-6.227 12.406z" style="fill:none;fill-opacity:1;stroke:#1a1a1a;stroke-width:2.05222;stroke-linecap:round;stroke-linejoin:round;stroke-miterlimit:2;stroke-dasharray:none;stroke-opacity:1" transform="scale(-1 1)rotate(5.176 -129.773 -575.894)"/><g transform="matrix(-1 0 0 1 53.139 11.285)"><path d="M-2.012 2.284h8.6L6 13.464h-7.243z" style="fill:#513a3a;fill-opacity:1;stroke:#1a1a1a;stroke-width:2;stroke-linecap:round;stroke-linejoin:round;stroke-miterlimit:2;stroke-dasharray:none;stroke-opacity:1"/><rect width="9.208" height="1.608" x="-2.316" y="2.284" rx="1.811" ry="1.68" style="fill:#715151;fill-opacity:1;stroke:none;stroke-width:1.58906;stroke-linecap:round;stroke-linejoin:round;stroke-miterlimit:2;stroke-dasharray:none;stroke-opacity:1"/><path d="M-2.012 2.284h8.6L6 13.464h-7.243z" style="fill:url(#e);stroke:#1a1a1a;stroke-width:2;stroke-linecap:round;stroke-linejoin:round;stroke-miterlimit:2;stroke-dasharray:none;stroke-opacity:1"/><rect width="4.595" height="10.283" rx="1.811" ry="1.68" style="fill:#3f3f3f;fill-opacity:1;stroke:#1a1a1a;stroke-width:1;stroke-linecap:round;stroke-linejoin:round;stroke-miterlimit:2;stroke-dasharray:none;stroke-opacity:1"/><ellipse cx="2.288" cy="6.571" rx="1.018" ry="1.889" style="fill:#411313;fill-opacity:1;stroke:#1a1a1a;stroke-width:1.00068;stroke-linecap:round;stroke-linejoin:round;stroke-miterlimit:2;stroke-dasharray:none;stroke-opacity:1"/><path d="M2.922 3.417v-8.483H1.654v8.424" style="fill:#5b5b5b;fill-opacity:1;stroke:#1a1a1a;stroke-width:1;stroke-linecap:round;stroke-linejoin:round;stroke-miterlimit:2;stroke-dasharray:none;stroke-opacity:1"/></g><path d="m23.15 45.974-12.147-9.28-1.92-3.704-4.833-1.965c-3.837 2.015-3.215 7.74.998 9.473 1.733.534 2.445-.004 3.193-.016l8.706 7.204c.677 2.483 3.957 3.965 6.003 5.922m0-7.634 12.147-9.28 1.92-3.704 4.833-1.965c3.837 2.015 3.215 7.74-.998 9.473-1.733.534-2.445-.004-3.193-.016l-8.706 7.204c-.677 2.483-3.957 3.965-6.003 5.922" style="fill:#303030;fill-opacity:1;stroke:none;stroke-width:2.461;stroke-linecap:round;stroke-linejoin:round;stroke-miterlimit:2;stroke-dasharray:none;stroke-opacity:1" transform="matrix(.79789 0 0 .83563 16.408 -.45)"/><path d="m-49.17 11.069 4.125 1.677 1.92 3.703 12.147 9.28v2.624l-14.49-10.693c-6.16 1.083-7.7-4.37-3.702-6.591m36.386 0-4.125 1.677-1.92 3.703-12.147 9.28v2.624l14.49-10.693c6.159 1.083 7.7-4.37 3.702-6.591" style="fill:#4d4d4d;fill-opacity:1;stroke:none;stroke-width:1.23;stroke-linecap:round;stroke-linejoin:round;stroke-miterlimit:2;stroke-dasharray:none;stroke-opacity:1" transform="matrix(.79789 0 0 .83563 59.595 16.172)"/><path d="m-45.469 17.66.219 2.05 9.228 8.478V24.63Zm28.983 0-.218 2.05-9.228 8.478V24.63Z" style="fill:#3b3b3b;fill-opacity:1;stroke:none;stroke-width:1.23;stroke-linecap:round;stroke-linejoin:round;stroke-miterlimit:2;stroke-dasharray:none;stroke-opacity:1" transform="matrix(.79789 0 0 .83563 59.595 16.172)"/><path d="M-50.812 18c1.626.61 2.967 1.792 5.453.686l.109 1.025h-4.562zm39.67 0c-1.627.61-2.968 1.792-5.453.686l-.11 1.025h4.563z" style="fill:#262626;fill-opacity:1;stroke:none;stroke-width:1.23;stroke-linecap:round;stroke-linejoin:round;stroke-miterlimit:2;stroke-dasharray:none;stroke-opacity:1" transform="matrix(.79789 0 0 .83563 59.595 16.172)"/><path d="M-36.022 24.63c.155.975 2.516 3.734 5.044 5.106v-3.082zm10.09 0c-.156.975-2.517 3.734-5.044 5.106v-3.082z" style="fill:#4d4d4d;fill-opacity:1;stroke:none;stroke-width:1.23;stroke-linecap:round;stroke-linejoin:round;stroke-miterlimit:2;stroke-dasharray:none;stroke-opacity:1" transform="matrix(.79789 0 0 .83563 59.595 16.172)"/><path d="m-30.978 25.73-12.147-9.28-1.92-3.704-4.833-1.965c-3.837 2.015-3.215 7.74.998 9.473 1.733.535 2.445.349 3.194.337l8.705 6.85c.677 2.484 3.956 3.966 6.003 5.923m.002-7.634 12.147-9.28 1.92-3.704 4.833-1.965c3.837 2.015 3.215 7.74-.999 9.473-1.733.535-2.445.349-3.193.337l-8.706 6.85c-.676 2.484-3.956 3.966-6.002 5.923" style="fill:none;fill-opacity:1;stroke:#1a1a1a;stroke-width:2.461;stroke-linecap:round;stroke-linejoin:round;stroke-miterlimit:2;stroke-dasharray:none;stroke-opacity:1" transform="matrix(.79789 0 0 .83563 59.595 16.172)"/><path d="M-44.786 14.77c0 1.038-1.212 1.88-2.707 1.88s-2.707-.842-2.707-1.88c0-1.036 1.212-1.877 2.707-1.877s2.707.84 2.707 1.878m27.617 0c0 1.038 1.212 1.88 2.707 1.88s2.707-.842 2.707-1.88c0-1.036-1.212-1.877-2.707-1.877s-2.707.84-2.707 1.878" style="display:inline;fill:#411313;fill-opacity:1;stroke:#1a1a1a;stroke-width:.6;stroke-linecap:round;stroke-linejoin:round;stroke-miterlimit:2;stroke-dasharray:none;stroke-opacity:1" transform="matrix(.79789 0 0 .83563 59.595 16.172)"/><path d="M-43.272 21.494c0 .201-.376.364-.84.364s-.84-.163-.84-.364c0-.202.376-.365.84-.365s.84.163.84.365m30.167-5.169c.067.19.476.22.913.065s.737-.434.67-.624-.476-.218-.913-.064-.737.434-.67.623" style="display:inline;fill:#6d2020;fill-opacity:1;stroke:none;stroke-width:.147234;stroke-linecap:round;stroke-linejoin:round;stroke-miterlimit:2;stroke-dasharray:none;stroke-opacity:1" transform="matrix(.78643 .14111 -.13474 .82363 59.596 16.172)"/><path d="M-35.13 25.212c0 .099-.115.178-.256.178s-.256-.08-.256-.178c0-.099.115-.179.256-.179s.256.08.256.179m8.306 0c0 .099.114.178.255.178s.256-.08.256-.178c0-.099-.114-.179-.256-.179-.14 0-.255.08-.255.179" style="fill:#131313;fill-opacity:1;stroke:none;stroke-width:.501192;stroke-linecap:round;stroke-linejoin:round;stroke-miterlimit:2;stroke-dasharray:none;stroke-opacity:1" transform="matrix(.79789 0 0 .83563 59.595 16.172)"/><path d="M-31.155 28.708c0 .111-.114.2-.256.2-.141 0-.256-.089-.256-.2 0-.11.115-.2.256-.2s.256.09.256.2m.355 0c0 .111.115.2.256.2s.256-.089.256-.2c0-.11-.114-.2-.256-.2-.14 0-.256.09-.256.2" style="fill:#131313;fill-opacity:1;stroke:none;stroke-width:.531301;stroke-linecap:round;stroke-linejoin:round;stroke-miterlimit:2;stroke-dasharray:none;stroke-opacity:1" transform="matrix(.79789 0 0 .83563 59.595 16.172)"/><path d="M-45.29 17.101c0 .13-.149.234-.333.234s-.333-.105-.333-.234.15-.234.333-.234.334.105.334.234m28.625 0c0 .13.15.234.333.234s.333-.105.333-.234-.149-.234-.333-.234-.333.105-.333.234" style="fill:#131313;fill-opacity:1;stroke:none;stroke-width:.654464;stroke-linecap:round;stroke-linejoin:round;stroke-miterlimit:2;stroke-dasharray:none;stroke-opacity:1" transform="matrix(.79789 0 0 .83563 59.595 16.172)"/><path d="M-32.024 29.908c0 .172-.09.31-.2.31-.112 0-.201-.138-.201-.31s.09-.311.2-.311.2.139.2.31m2.094 0c0 .172.09.31.2.31s.201-.138.201-.31-.09-.311-.2-.311-.201.139-.201.31" style="fill:#131313;fill-opacity:1;stroke:none;stroke-width:.585851;stroke-linecap:round;stroke-linejoin:round;stroke-miterlimit:2;stroke-dasharray:none;stroke-opacity:1" transform="matrix(.79789 0 0 .83563 59.595 16.172)"/><path d="M-35.571 26.516c0 .171-.06.31-.134.31s-.135-.139-.135-.31c0-.172.06-.311.135-.311.074 0 .134.139.134.31m9.188 0c0 .171.06.31.134.31s.134-.139.134-.31c0-.172-.06-.311-.134-.311s-.134.139-.134.31" style="fill:#131313;fill-opacity:1;stroke:none;stroke-width:.4794;stroke-linecap:round;stroke-linejoin:round;stroke-miterlimit:2;stroke-dasharray:none;stroke-opacity:1" transform="matrix(.79789 0 0 .83563 59.595 16.172)"/><path d="M-37.052 25.062c0 .148-.065.267-.145.267s-.146-.12-.146-.267.065-.267.146-.267.145.12.145.267m12.15 0c0 .148.065.267.145.267s.145-.12.145-.267-.065-.267-.145-.267-.146.12-.146.267m-19.109-5.302c0 .147-.066.266-.146.266s-.145-.12-.145-.267.065-.267.145-.267.146.12.146.267m26.07 0c0 .147.065.266.145.266s.146-.12.146-.267-.065-.267-.146-.267-.145.12-.145.267" style="fill:#131313;fill-opacity:1;stroke:none;stroke-width:.461947;stroke-linecap:round;stroke-linejoin:round;stroke-miterlimit:2;stroke-dasharray:none;stroke-opacity:1" transform="matrix(.79789 0 0 .83563 59.595 16.172)"/><path d="M-49.582 12.82c0 .129-.15.233-.333.233-.185 0-.334-.104-.334-.233 0-.13.15-.234.334-.234s.333.104.333.234m37.21 0c0 .129.149.233.333.233s.333-.104.333-.233c0-.13-.149-.234-.333-.234s-.333.104-.333.234m-37.183 3.745c0 .13-.149.234-.333.234s-.333-.105-.333-.234.15-.234.333-.234.333.105.333.234m37.155 0c0 .13.15.234.333.234s.334-.105.334-.234-.15-.234-.334-.234-.333.105-.333.234" style="fill:#131313;fill-opacity:1;stroke:none;stroke-width:.654464;stroke-linecap:round;stroke-linejoin:round;stroke-miterlimit:2;stroke-dasharray:none;stroke-opacity:1" transform="matrix(.79789 0 0 .83563 59.595 16.172)"/><path d="M43.55 46.773c1.202 3.97 4.87 9.02 8.79 9.12l.148-3.495c-2.445.448-4.768-1.907-5.945-5.625z" style="fill:#3c443c;fill-opacity:1;stroke:#181c18;stroke-width:.409;stroke-linecap:round;stroke-linejoin:round;stroke-miterlimit:2;stroke-dasharray:none;stroke-opacity:1" transform="rotate(-4.17 -167.923 41.281)"/><path fill="#353b35" stroke="#303630" stroke-miterlimit="3.994" stroke-width=".409" d="m48.072 53.161 2.593-1.497 1.104 1.913-2.592 1.497z" clip-path="url(#clipPath624)" style="stroke:#181b18;stroke-opacity:1" transform="rotate(25.831 107.381 27.71)"/><path fill="#353b35" stroke="#303630" stroke-miterlimit="3.994" stroke-width=".409" d="m49.178 55.074 2.593-1.497 1.104 1.913-2.593 1.497z" clip-path="url(#clipPath623)" style="stroke:#181b18;stroke-opacity:1" transform="rotate(25.831 107.381 27.71)"/><path fill="#353b35" stroke="#303630" stroke-miterlimit="3.994" stroke-width=".409" d="m50.28 56.987 2.592-1.497 1.104 1.913-2.592 1.497z" clip-path="url(#clipPath622)" style="stroke:#181b18;stroke-opacity:1" transform="rotate(25.831 107.381 27.71)"/><path fill="#a18245" d="m47.095 53.615-.089.05.031.177.572.99.138.116.088-.051-.054-.093 3.356-1.983.328-.371.835-.482-.436-.755-.835.481-.486.1-3.394 1.914z" clip-path="url(#clipPath614)" transform="rotate(25.831 107.381 27.71)"/><path fill="#b3914c" d="M54.14 50.363a.09.09 0 0 0-.073-.046c-.336-.002-1.217.363-2.188.923l.405.702c.97-.56 1.727-1.141 1.893-1.434a.09.09 0 0 0-.003-.086z" clip-path="url(#clipPath613)" transform="rotate(25.831 107.381 27.71)"/><path fill="#862c2c" d="M52.057 51.14q-.09.048-.178.1l.405.701.176-.103z" clip-path="url(#clipPath612)" transform="rotate(25.831 107.381 27.71)"/><path fill="#70695c" d="m47.037 53.842.572.99.138.116.088-.051-.74-1.282-.089.05z" clip-path="url(#clipPath611)" transform="rotate(25.831 107.381 27.71)"/><path stroke="#473a1f" stroke-width=".409" d="m47.006 53.666.089-.051.054.093 3.394-1.915.486-.099.835-.481.015.027c.971-.56 1.852-.925 2.188-.923.032 0 .058.019.074.046l.033.058c.016.027.02.06.004.087-.167.292-.923.873-1.894 1.433l.016.027-.835.482-.328.372-3.356 1.982.054.093-.088.051-.138-.115-.572-.99z" clip-path="url(#clipPath610)" style="fill:none;stroke:#241d0f;stroke-opacity:1" transform="rotate(25.831 107.381 27.71)"/><path fill="#a18245" d="m49.302 57.443-.089.05.032.177.571.99.138.116.088-.05-.054-.094 3.356-1.982.328-.372.835-.482-.436-.755-.835.481-.486.1-3.394 1.914z" clip-path="url(#clipPath609)" transform="rotate(25.831 107.381 27.71)"/><path fill="#b3914c" d="M56.348 54.192a.09.09 0 0 0-.074-.047c-.336-.002-1.217.363-2.188.923l.405.702c.97-.56 1.727-1.141 1.894-1.433a.09.09 0 0 0-.004-.087Z" clip-path="url(#clipPath608)" transform="rotate(25.831 107.381 27.71)"/><path fill="#862c2c" d="m54.264 54.967-.178.101.405.701.176-.103z" clip-path="url(#clipPath607)" transform="rotate(25.831 107.381 27.71)"/><path fill="#70695c" d="m49.245 57.67.571.991.138.115.088-.05-.74-1.283-.089.05z" clip-path="url(#clipPath606)" transform="rotate(25.831 107.381 27.71)"/><path stroke="#473a1f" stroke-width=".409" d="m49.213 57.494.089-.051.054.093 3.394-1.915.486-.098.835-.482.015.027c.971-.56 1.852-.925 2.188-.923.032 0 .058.02.074.046l.034.058a.09.09 0 0 1 .003.087c-.167.293-.923.873-1.894 1.434l.016.026-.835.482-.328.372-3.356 1.982.054.093-.088.051-.138-.115-.571-.99z" clip-path="url(#clipPath605)" style="fill:none;stroke:#241d0f;stroke-opacity:1" transform="rotate(25.831 107.381 27.71)"/><path fill="#3c443c" stroke="#303630" stroke-linecap="round" stroke-miterlimit="3.994" stroke-width=".409" d="m50.666 51.663.645 1.117.772-.446-.645-1.117z" clip-path="url(#clipPath598)" style="stroke:#181b18;stroke-opacity:1" transform="rotate(25.831 107.381 27.71)"/><path fill="#3c443c" stroke="#303630" stroke-linecap="round" stroke-miterlimit="3.994" stroke-width=".409" d="m52.875 55.49.645 1.116.772-.446-.645-1.116z" clip-path="url(#clipPath596)" style="stroke:#181b18;stroke-opacity:1" transform="rotate(25.831 107.381 27.71)"/><path fill="#a18245" d="m48.196 55.528-.088.05.031.177.572.99.137.116.089-.05-.054-.094 3.355-1.982.329-.372.834-.482-.436-.755-.834.481-.486.1-3.395 1.914z" clip-path="url(#clipPath604)" transform="rotate(25.831 107.381 27.71)"/><path fill="#b3914c" d="M55.242 52.277a.09.09 0 0 0-.073-.047c-.337-.002-1.218.363-2.188.923l.405.702c.97-.56 1.727-1.141 1.893-1.434a.09.09 0 0 0-.003-.086z" clip-path="url(#clipPath603)" transform="rotate(25.831 107.381 27.71)"/><path fill="#862c2c" d="m53.158 53.052-.178.101.405.702.177-.104z" clip-path="url(#clipPath602)" transform="rotate(25.831 107.381 27.71)"/><path fill="#70695c" d="m48.139 55.755.572.99.137.116.089-.05-.74-1.283-.09.05z" clip-path="url(#clipPath601)" transform="rotate(25.831 107.381 27.71)"/><path fill="#426b2e" d="m54.459 53.165-.346-.599c.477-.214.858-.337 1.054-.336a.08.08 0 0 1 .052.02.1.1 0 0 1 .021.026l.034.058c.015.027.019.06.003.087-.097.17-.394.439-.818.744" clip-path="url(#clipPath600)" transform="rotate(25.831 107.381 27.71)"/><path stroke="#473a1f" stroke-width=".409" d="m48.108 55.579.088-.051.054.093 3.394-1.915.487-.099.834-.481.016.027c.97-.56 1.851-.925 2.188-.923.031 0 .058.019.073.046l.034.058c.016.027.019.06.003.087-.166.292-.922.873-1.893 1.433l.015.027-.834.482-.329.372-3.355 1.982.054.093-.089.051-.137-.115-.572-.99z" clip-path="url(#clipPath599)" style="fill:none;stroke:#241d0f;stroke-opacity:1" transform="rotate(25.831 107.381 27.71)"/><path fill="#3c443c" stroke="#303630" stroke-linecap="round" stroke-miterlimit="3.994" stroke-width=".409" d="m51.77 53.576.644 1.117.772-.446-.644-1.117z" clip-path="url(#clipPath597)" style="stroke:#181b18;stroke-opacity:1" transform="rotate(25.831 107.381 27.71)"/><path fill="#3c443c" stroke="#303630" stroke-linecap="round" stroke-miterlimit="3.994" stroke-width=".409" d="m48.324 55.382.806 1.395.772-.446-.805-1.395z" clip-path="url(#clipPath595)" style="stroke:#181b18;stroke-opacity:1" transform="rotate(25.831 107.381 27.71)"/><path fill="#a18245" d="m49.302 57.443-.089.05.032.177.571.99.138.116.088-.05-.054-.094 3.356-1.982.328-.372.835-.482-.436-.755-.835.481-.486.1-3.394 1.914z" clip-path="url(#clipPath609-9-8-0-4)" transform="rotate(-57.149 36.397 47.33)"/><path fill="#b3914c" d="M56.348 54.192a.09.09 0 0 0-.074-.047c-.336-.002-1.217.363-2.188.923l.405.702c.97-.56 1.727-1.141 1.894-1.433a.09.09 0 0 0-.004-.087Z" clip-path="url(#clipPath608-2-5-4-5)" transform="rotate(-57.149 36.397 47.33)"/><path fill="#862c2c" d="m54.264 54.967-.178.101.405.701.176-.103z" clip-path="url(#clipPath607-1-8-5-8)" transform="rotate(-57.149 36.397 47.33)"/><path fill="#70695c" d="m49.245 57.67.571.991.138.115.088-.05-.74-1.283-.089.05z" clip-path="url(#clipPath606-0-3-5-3)" transform="rotate(-57.149 36.397 47.33)"/><path stroke="#473a1f" stroke-width=".409" d="m49.213 57.494.089-.051.054.093 3.394-1.915.486-.098.835-.482.015.027c.971-.56 1.852-.925 2.188-.923.032 0 .058.02.074.046l.034.058a.09.09 0 0 1 .003.087c-.167.293-.923.873-1.894 1.434l.016.026-.835.482-.328.372-3.356 1.982.054.093-.088.051-.138-.115-.571-.99z" clip-path="url(#clipPath605-6-8-1-8)" style="fill:none;stroke:#241d0f;stroke-opacity:1" transform="rotate(-57.149 36.397 47.33)"/><path fill="#3c443c" stroke="#303630" stroke-linecap="round" stroke-miterlimit="3.994" stroke-width=".409" d="m52.875 55.49.645 1.116.772-.446-.645-1.116z" clip-path="url(#clipPath596-8-8-8-3)" style="stroke:#181b18;stroke-opacity:1" transform="rotate(-57.149 36.397 47.33)"/><path fill="#3c443c" stroke="#303630" stroke-linecap="round" stroke-miterlimit="3.994" stroke-width=".409" d="m49.43 57.295.805 1.395.773-.446-.806-1.395z" clip-path="url(#clipPath593-6-4-7-8)" style="stroke:#181b18;stroke-opacity:1" transform="rotate(-57.149 36.397 47.33)"/><path fill="#a18245" d="m48.196 55.528-.088.05.031.177.572.99.137.116.089-.05-.054-.094 3.355-1.982.329-.372.834-.482-.436-.755-.834.481-.486.1-3.395 1.914z" clip-path="url(#clipPath604-3-1-4-9)" transform="rotate(-48.05 33.417 46.534)"/><path fill="#b3914c" d="M55.242 52.277a.09.09 0 0 0-.073-.047c-.337-.002-1.218.363-2.188.923l.405.702c.97-.56 1.727-1.141 1.893-1.434a.09.09 0 0 0-.003-.086z" clip-path="url(#clipPath603-12-8-6-0)" transform="rotate(-48.05 33.417 46.534)"/><path fill="#862c2c" d="m53.158 53.052-.178.101.405.702.177-.104z" clip-path="url(#clipPath602-2-1-7-4)" transform="rotate(-48.05 33.417 46.534)"/><path fill="#70695c" d="m48.139 55.755.572.99.137.116.089-.05-.74-1.283-.09.05z" clip-path="url(#clipPath601-2-7-7-8)" transform="rotate(-48.05 33.417 46.534)"/><path fill="#426b2e" d="m54.459 53.165-.346-.599c.477-.214.858-.337 1.054-.336a.08.08 0 0 1 .052.02.1.1 0 0 1 .021.026l.034.058c.015.027.019.06.003.087-.097.17-.394.439-.818.744" clip-path="url(#clipPath600-77-7-0-9)" transform="rotate(-48.05 33.417 46.534)"/><path stroke="#473a1f" stroke-width=".409" d="m48.108 55.579.088-.051.054.093 3.394-1.915.487-.099.834-.481.016.027c.97-.56 1.851-.925 2.188-.923.031 0 .058.019.073.046l.034.058c.016.027.019.06.003.087-.166.292-.922.873-1.893 1.433l.015.027-.834.482-.329.372-3.355 1.982.054.093-.089.051-.137-.115-.572-.99z" clip-path="url(#clipPath599-8-0-5-0)" style="fill:none;stroke:#241d0f;stroke-opacity:1" transform="rotate(-48.05 33.417 46.534)"/><path fill="#3c443c" stroke="#303630" stroke-linecap="round" stroke-miterlimit="3.994" stroke-width=".409" d="m51.77 53.576.644 1.117.772-.446-.644-1.117z" clip-path="url(#clipPath597-0-3-6-5)" style="stroke:#181b18;stroke-opacity:1" transform="rotate(-48.05 33.417 46.534)"/><path fill="#3c443c" stroke="#303630" stroke-linecap="round" stroke-miterlimit="3.994" stroke-width=".409" d="m48.324 55.382.806 1.395.772-.446-.805-1.395z" clip-path="url(#clipPath595-2-6-8-2)" style="stroke:#181b18;stroke-opacity:1" transform="rotate(-48.05 33.417 46.534)"/><path fill="#a18245" d="m49.302 57.443-.089.05.032.177.571.99.138.116.088-.05-.054-.094 3.356-1.982.328-.372.835-.482-.436-.755-.835.481-.486.1-3.394 1.914z" clip-path="url(#clipPath609-9-8-0)" transform="rotate(-32.338 19.697 50.924)"/><path fill="#b3914c" d="M56.348 54.192a.09.09 0 0 0-.074-.047c-.336-.002-1.217.363-2.188.923l.405.702c.97-.56 1.727-1.141 1.894-1.433a.09.09 0 0 0-.004-.087Z" clip-path="url(#clipPath608-2-5-4)" transform="rotate(-32.338 19.697 50.924)"/><path fill="#862c2c" d="m54.264 54.967-.178.101.405.701.176-.103z" clip-path="url(#clipPath607-1-8-5)" transform="rotate(-32.338 19.697 50.924)"/><path fill="#70695c" d="m49.245 57.67.571.991.138.115.088-.05-.74-1.283-.089.05z" clip-path="url(#clipPath606-0-3-5)" transform="rotate(-32.338 19.697 50.924)"/><path stroke="#473a1f" stroke-width=".409" d="m49.213 57.494.089-.051.054.093 3.394-1.915.486-.098.835-.482.015.027c.971-.56 1.852-.925 2.188-.923.032 0 .058.02.074.046l.034.058a.09.09 0 0 1 .003.087c-.167.293-.923.873-1.894 1.434l.016.026-.835.482-.328.372-3.356 1.982.054.093-.088.051-.138-.115-.571-.99z" clip-path="url(#clipPath605-6-8-1)" style="fill:none;stroke:#241d0f;stroke-opacity:1" transform="rotate(-32.338 19.697 50.924)"/><path fill="#3c443c" stroke="#303630" stroke-linecap="round" stroke-miterlimit="3.994" stroke-width=".409" d="m52.875 55.49.645 1.116.772-.446-.645-1.116z" clip-path="url(#clipPath596-8-8-8)" style="stroke:#181b18;stroke-opacity:1" transform="rotate(-32.338 19.697 50.924)"/><path fill="#3c443c" stroke="#303630" stroke-linecap="round" stroke-miterlimit="3.994" stroke-width=".409" d="m49.43 57.295.805 1.395.773-.446-.806-1.395z" clip-path="url(#clipPath593-6-4-7)" style="stroke:#181b18;stroke-opacity:1" transform="rotate(-32.338 19.697 50.924)"/><path fill="#a18245" d="m48.196 55.528-.088.05.031.177.572.99.137.116.089-.05-.054-.094 3.355-1.982.329-.372.834-.482-.436-.755-.834.481-.486.1-3.395 1.914z" clip-path="url(#clipPath604-3-1-4)" transform="rotate(-23.24 8.237 51.252)"/><path fill="#b3914c" d="M55.242 52.277a.09.09 0 0 0-.073-.047c-.337-.002-1.218.363-2.188.923l.405.702c.97-.56 1.727-1.141 1.893-1.434a.09.09 0 0 0-.003-.086z" clip-path="url(#clipPath603-12-8-6)" transform="rotate(-23.24 8.237 51.252)"/><path fill="#862c2c" d="m53.158 53.052-.178.101.405.702.177-.104z" clip-path="url(#clipPath602-2-1-7)" transform="rotate(-23.24 8.237 51.252)"/><path fill="#70695c" d="m48.139 55.755.572.99.137.116.089-.05-.74-1.283-.09.05z" clip-path="url(#clipPath601-2-7-7)" transform="rotate(-23.24 8.237 51.252)"/><path fill="#426b2e" d="m54.459 53.165-.346-.599c.477-.214.858-.337 1.054-.336a.08.08 0 0 1 .052.02.1.1 0 0 1 .021.026l.034.058c.015.027.019.06.003.087-.097.17-.394.439-.818.744" clip-path="url(#clipPath600-77-7-0)" transform="rotate(-23.24 8.237 51.252)"/><path stroke="#473a1f" stroke-width=".409" d="m48.108 55.579.088-.051.054.093 3.394-1.915.487-.099.834-.481.016.027c.97-.56 1.851-.925 2.188-.923.031 0 .058.019.073.046l.034.058c.016.027.019.06.003.087-.166.292-.922.873-1.893 1.433l.015.027-.834.482-.329.372-3.355 1.982.054.093-.089.051-.137-.115-.572-.99z" clip-path="url(#clipPath599-8-0-5)" style="fill:none;stroke:#241d0f;stroke-opacity:1" transform="rotate(-23.24 8.237 51.252)"/><path fill="#3c443c" stroke="#303630" stroke-linecap="round" stroke-miterlimit="3.994" stroke-width=".409" d="m51.77 53.576.644 1.117.772-.446-.644-1.117z" clip-path="url(#clipPath597-0-3-6)" style="stroke:#181b18;stroke-opacity:1" transform="rotate(-23.24 8.237 51.252)"/><path fill="#3c443c" stroke="#303630" stroke-linecap="round" stroke-miterlimit="3.994" stroke-width=".409" d="m48.324 55.382.806 1.395.772-.446-.805-1.395z" clip-path="url(#clipPath595-2-6-8)" style="stroke:#181b18;stroke-opacity:1" transform="rotate(-23.24 8.237 51.252)"/><path fill="#a18245" d="m49.302 57.443-.089.05.032.177.571.99.138.116.088-.05-.054-.094 3.356-1.982.328-.372.835-.482-.436-.755-.835.481-.486.1-3.394 1.914z" clip-path="url(#clipPath609-9-8)" transform="rotate(-14.737 -26.58 62.788)"/><path fill="#b3914c" d="M56.348 54.192a.09.09 0 0 0-.074-.047c-.336-.002-1.217.363-2.188.923l.405.702c.97-.56 1.727-1.141 1.894-1.433a.09.09 0 0 0-.004-.087Z" clip-path="url(#clipPath608-2-5)" transform="rotate(-14.737 -26.58 62.788)"/><path fill="#862c2c" d="m54.264 54.967-.178.101.405.701.176-.103z" clip-path="url(#clipPath607-1-8)" transform="rotate(-14.737 -26.58 62.788)"/><path fill="#70695c" d="m49.245 57.67.571.991.138.115.088-.05-.74-1.283-.089.05z" clip-path="url(#clipPath606-0-3)" transform="rotate(-14.737 -26.58 62.788)"/><path stroke="#473a1f" stroke-width=".409" d="m49.213 57.494.089-.051.054.093 3.394-1.915.486-.098.835-.482.015.027c.971-.56 1.852-.925 2.188-.923.032 0 .058.02.074.046l.034.058a.09.09 0 0 1 .003.087c-.167.293-.923.873-1.894 1.434l.016.026-.835.482-.328.372-3.356 1.982.054.093-.088.051-.138-.115-.571-.99z" clip-path="url(#clipPath605-6-8)" style="fill:none;stroke:#241d0f;stroke-opacity:1" transform="rotate(-14.737 -26.58 62.788)"/><path fill="#3c443c" stroke="#303630" stroke-linecap="round" stroke-miterlimit="3.994" stroke-width=".409" d="m52.875 55.49.645 1.116.772-.446-.645-1.116z" clip-path="url(#clipPath596-8-8)" style="stroke:#181b18;stroke-opacity:1" transform="rotate(-14.737 -26.58 62.788)"/><path fill="#3c443c" stroke="#303630" stroke-linecap="round" stroke-miterlimit="3.994" stroke-width=".409" d="m49.43 57.295.805 1.395.773-.446-.806-1.395z" clip-path="url(#clipPath593-6-4)" style="stroke:#181b18;stroke-opacity:1" transform="rotate(-14.737 -26.58 62.788)"/><path fill="#a18245" d="m48.196 55.528-.088.05.031.177.572.99.137.116.089-.05-.054-.094 3.355-1.982.329-.372.834-.482-.436-.755-.834.481-.486.1-3.395 1.914z" clip-path="url(#clipPath604-3)" transform="rotate(19.472 115.533 26.405)"/><path fill="#b3914c" d="M55.242 52.277a.09.09 0 0 0-.073-.047c-.337-.002-1.218.363-2.188.923l.405.702c.97-.56 1.727-1.141 1.893-1.434a.09.09 0 0 0-.003-.086z" clip-path="url(#clipPath603-12)" transform="rotate(19.472 115.533 26.405)"/><path fill="#862c2c" d="m53.158 53.052-.178.101.405.702.177-.104z" clip-path="url(#clipPath602-2)" transform="rotate(19.472 115.533 26.405)"/><path fill="#70695c" d="m48.139 55.755.572.99.137.116.089-.05-.74-1.283-.09.05z" clip-path="url(#clipPath601-2)" transform="rotate(19.472 115.533 26.405)"/><path fill="#426b2e" d="m54.459 53.165-.346-.599c.477-.214.858-.337 1.054-.336a.08.08 0 0 1 .052.02.1.1 0 0 1 .021.026l.034.058c.015.027.019.06.003.087-.097.17-.394.439-.818.744" clip-path="url(#clipPath600-77)" transform="rotate(19.472 115.533 26.405)"/><path stroke="#473a1f" stroke-width=".409" d="m48.108 55.579.088-.051.054.093 3.394-1.915.487-.099.834-.481.016.027c.97-.56 1.851-.925 2.188-.923.031 0 .058.019.073.046l.034.058c.016.027.019.06.003.087-.166.292-.922.873-1.893 1.433l.015.027-.834.482-.329.372-3.355 1.982.054.093-.089.051-.137-.115-.572-.99z" clip-path="url(#clipPath599-8)" style="fill:none;stroke:#241d0f;stroke-opacity:1" transform="rotate(19.472 115.533 26.405)"/><path fill="#3c443c" stroke="#303630" stroke-linecap="round" stroke-miterlimit="3.994" stroke-width=".409" d="m51.77 53.576.644 1.117.772-.446-.644-1.117z" clip-path="url(#clipPath597-0)" style="stroke:#181b18;stroke-opacity:1" transform="rotate(19.472 115.533 26.405)"/><path fill="#3c443c" stroke="#303630" stroke-linecap="round" stroke-miterlimit="3.994" stroke-width=".409" d="m48.324 55.382.806 1.395.772-.446-.805-1.395z" clip-path="url(#clipPath595-2)" style="stroke:#181b18;stroke-opacity:1" transform="rotate(19.472 115.533 26.405)"/><path fill="#a18245" d="m48.196 55.528-.088.05.031.177.572.99.137.116.089-.05-.054-.094 3.355-1.982.329-.372.834-.482-.436-.755-.834.481-.486.1-3.395 1.914z" clip-path="url(#clipPath604-3-1)" transform="rotate(-5.639 -144.717 85.481)"/><path fill="#b3914c" d="M55.242 52.277a.09.09 0 0 0-.073-.047c-.337-.002-1.218.363-2.188.923l.405.702c.97-.56 1.727-1.141 1.893-1.434a.09.09 0 0 0-.003-.086z" clip-path="url(#clipPath603-12-8)" transform="rotate(-5.639 -144.717 85.481)"/><path fill="#862c2c" d="m53.158 53.052-.178.101.405.702.177-.104z" clip-path="url(#clipPath602-2-1)" transform="rotate(-5.639 -144.717 85.481)"/><path fill="#70695c" d="m48.139 55.755.572.99.137.116.089-.05-.74-1.283-.09.05z" clip-path="url(#clipPath601-2-7)" transform="rotate(-5.639 -144.717 85.481)"/><path fill="#426b2e" d="m54.459 53.165-.346-.599c.477-.214.858-.337 1.054-.336a.08.08 0 0 1 .052.02.1.1 0 0 1 .021.026l.034.058c.015.027.019.06.003.087-.097.17-.394.439-.818.744" clip-path="url(#clipPath600-77-7)" transform="rotate(-5.639 -144.717 85.481)"/><path stroke="#473a1f" stroke-width=".409" d="m48.108 55.579.088-.051.054.093 3.394-1.915.487-.099.834-.481.016.027c.97-.56 1.851-.925 2.188-.923.031 0 .058.019.073.046l.034.058c.016.027.019.06.003.087-.166.292-.922.873-1.893 1.433l.015.027-.834.482-.329.372-3.355 1.982.054.093-.089.051-.137-.115-.572-.99z" clip-path="url(#clipPath599-8-0)" style="fill:none;stroke:#241d0f;stroke-opacity:1" transform="rotate(-5.639 -144.717 85.481)"/><path fill="#3c443c" stroke="#303630" stroke-linecap="round" stroke-miterlimit="3.994" stroke-width=".409" d="m51.77 53.576.644 1.117.772-.446-.644-1.117z" clip-path="url(#clipPath597-0-3)" style="stroke:#181b18;stroke-opacity:1" transform="rotate(-5.639 -144.717 85.481)"/><path fill="#3c443c" stroke="#303630" stroke-linecap="round" stroke-miterlimit="3.994" stroke-width=".409" d="m48.324 55.382.806 1.395.772-.446-.805-1.395z" clip-path="url(#clipPath595-2-6)" style="stroke:#181b18;stroke-opacity:1" transform="rotate(-5.639 -144.717 85.481)"/><path fill="#3c443c" stroke="#303630" stroke-linecap="round" stroke-miterlimit="3.994" stroke-width=".409" d="m47.219 53.468.805 1.395.773-.446-.806-1.395z" clip-path="url(#clipPath594)" style="stroke:#181b18;stroke-opacity:1" transform="rotate(25.831 107.381 27.71)"/><path fill="#3c443c" stroke="#303630" stroke-linecap="round" stroke-miterlimit="3.994" stroke-width=".409" d="m49.43 57.295.805 1.395.773-.446-.806-1.395z" clip-path="url(#clipPath593)" style="stroke:#181b18;stroke-opacity:1" transform="rotate(25.831 107.381 27.71)"/><path fill="#a18245" d="m49.302 57.443-.089.05.032.177.571.99.138.116.088-.05-.054-.094 3.356-1.982.328-.372.835-.482-.436-.755-.835.481-.486.1-3.394 1.914z" clip-path="url(#clipPath609-9)" transform="rotate(5.2 300.658 -23.002)"/><path fill="#b3914c" d="M56.348 54.192a.09.09 0 0 0-.074-.047c-.336-.002-1.217.363-2.188.923l.405.702c.97-.56 1.727-1.141 1.894-1.433a.09.09 0 0 0-.004-.087Z" clip-path="url(#clipPath608-2)" transform="rotate(5.2 300.658 -23.002)"/><path fill="#862c2c" d="m54.264 54.967-.178.101.405.701.176-.103z" clip-path="url(#clipPath607-1)" transform="rotate(5.2 300.658 -23.002)"/><path fill="#70695c" d="m49.245 57.67.571.991.138.115.088-.05-.74-1.283-.089.05z" clip-path="url(#clipPath606-0)" transform="rotate(5.2 300.658 -23.002)"/><path stroke="#473a1f" stroke-width=".409" d="m49.213 57.494.089-.051.054.093 3.394-1.915.486-.098.835-.482.015.027c.971-.56 1.852-.925 2.188-.923.032 0 .058.02.074.046l.034.058a.09.09 0 0 1 .003.087c-.167.293-.923.873-1.894 1.434l.016.026-.835.482-.328.372-3.356 1.982.054.093-.088.051-.138-.115-.571-.99z" clip-path="url(#clipPath605-6)" style="fill:none;stroke:#241d0f;stroke-opacity:1" transform="rotate(5.2 300.658 -23.002)"/><path fill="#3c443c" stroke="#303630" stroke-linecap="round" stroke-miterlimit="3.994" stroke-width=".409" d="m52.875 55.49.645 1.116.772-.446-.645-1.116z" clip-path="url(#clipPath596-8)" style="stroke:#181b18;stroke-opacity:1" transform="rotate(5.2 300.658 -23.002)"/><path fill="#3c443c" stroke="#303630" stroke-linecap="round" stroke-miterlimit="3.994" stroke-width=".409" d="m49.43 57.295.805 1.395.773-.446-.806-1.395z" clip-path="url(#clipPath593-6)" style="stroke:#181b18;stroke-opacity:1" transform="rotate(5.2 300.658 -23.002)"/><g transform="translate(11.745 -.766)"><path d="M15.733 12.728c6.616 1.388 8.246 1.523 14.862 0l.042 10.526-13.53.873z" style="fill:#262626;fill-opacity:1;stroke:#1a1a1a;stroke-width:2.05222;stroke-linecap:square;stroke-linejoin:miter;stroke-miterlimit:2;stroke-dasharray:none;stroke-opacity:1"/><path d="M23.797 14.924 15.952 12.7l-1.763-3.675-5.295 2.414-1.31 5.123-5.205 6.373c-.552 4.741 6.306 5.429 9.27 10.538l12.148 9.28 12.147-9.28c2.965-5.11 9.823-5.797 9.27-10.538l-5.204-6.373-1.31-5.123-5.295-2.414-1.763 3.675Z" style="fill:#434343;fill-opacity:1;stroke:none;stroke-width:2.461;stroke-linecap:round;stroke-linejoin:round;stroke-miterlimit:2;stroke-dasharray:none;stroke-opacity:1" transform="translate(3.32 4.132)scale(.8339)"/><path d="M23.15 23.18c.557.023 1.389-.483 1.626-2.364l14.587-3.909-1.31-5.122-7.694-2.414-1.392 2.565c1.219 5.205-3.858 2.545-5.817 3.78-1.959-1.235-7.036 1.425-5.817-3.78l-1.392-2.565-7.694 2.414-1.31 5.122 14.587 3.91c.238 1.88 1.069 2.386 1.626 2.363" style="fill:#646464;fill-opacity:1;stroke:none;stroke-width:1.2;stroke-linecap:round;stroke-linejoin:round;stroke-miterlimit:2;stroke-dasharray:none;stroke-opacity:1" transform="translate(3.86 3.844)scale(.8339)"/><path d="M12.751 18.827c1.488-1.049 1.746.032 2.262.669.743-1.356 1.704-2.316 1.567-3.47-1.56.872-3.083 1.59-3.829 2.801" style="fill:#525252;fill-opacity:1;stroke:none;stroke-width:1.00068;stroke-linecap:round;stroke-linejoin:round;stroke-miterlimit:2;stroke-dasharray:none;stroke-opacity:1"/><path d="M13.836 18.556c1.646-2.18 2.082-2.127 2.744-2.53.198.641-.369 1.825-1.567 3.47z" style="fill:#5d5d5d;fill-opacity:1;stroke:none;stroke-width:1.00068;stroke-linecap:round;stroke-linejoin:round;stroke-miterlimit:2;stroke-dasharray:none;stroke-opacity:1"/><ellipse cx="23.175" cy="21.002" rx="1.24" ry="1.758" style="fill:#454545;fill-opacity:1;stroke:none;stroke-width:1.33419;stroke-linecap:round;stroke-linejoin:round;stroke-miterlimit:2;stroke-dasharray:none;stroke-opacity:1"/><path d="M33.598 18.827c-1.488-1.049-1.746.032-2.262.669-.743-1.356-1.704-2.316-1.567-3.47 1.56.872 3.083 1.59 3.829 2.801" style="fill:#525252;fill-opacity:1;stroke:none;stroke-width:1.00068;stroke-linecap:round;stroke-linejoin:round;stroke-miterlimit:2;stroke-dasharray:none;stroke-opacity:1"/><path d="M32.513 18.556c-1.646-2.18-2.082-2.127-2.744-2.53-.197.641.369 1.825 1.567 3.47z" style="fill:#5d5d5d;fill-opacity:1;stroke:none;stroke-width:1.00068;stroke-linecap:round;stroke-linejoin:round;stroke-miterlimit:2;stroke-dasharray:none;stroke-opacity:1"/><path d="M23.15 23.18c.557.023 1.389-.483 1.626-2.364l14.587-3.909-1.31-5.122-7.694-2.414-1.392 4.964-5.817 1.382-5.817-1.382-1.392-4.964-7.694 2.414-1.31 5.122 14.587 3.91c.238 1.88 1.069 2.386 1.626 2.363" style="fill:none;fill-opacity:1;stroke:#1a1a1a;stroke-width:1.2;stroke-linecap:round;stroke-linejoin:round;stroke-miterlimit:2;stroke-dasharray:none;stroke-opacity:1" transform="translate(3.86 3.844)scale(.8339)"/><path d="m23.797 15.587-5.817-1.598-1.392-4.964-7.694 2.414-1.31 5.123-3.79 3.95c-4.923 6.312 6.31 9.087 7.856 12.96l12.147 9.281 12.147-9.28c1.547-3.874 12.78-6.649 7.856-12.962l-3.79-3.949-1.31-5.123-7.694-2.414-1.392 4.964Z" style="fill:none;fill-opacity:1;stroke:#1a1a1a;stroke-width:2.461;stroke-linecap:round;stroke-linejoin:round;stroke-miterlimit:2;stroke-dasharray:none;stroke-opacity:1" transform="translate(3.32 4.132)scale(.8339)"/><path d="M8.408 18.564 4.43 22.531c.252.952 1.034 2.02.416 3.445l5.6 2.967c2.701 1.47 2.866 2.718 2.822 3.946l10.183 7.58V24.582c-1.285.157-2.34.13-2.813-2.64l-6.11-1.749c-1.063 5.183-5.25 4.04-4.716-1.173zM20.04 30.051c.674 0 1.574 1.08 1.574 2.332 0 1.25-.9 2.197-1.574 2.197s-1.75-.66-1.75-1.91c-.001-1.252 1.076-2.62 1.75-2.62m17.853-11.487 3.978 3.967c-.252.952-1.034 2.02-.416 3.445l-5.6 2.967c-2.701 1.47-2.866 2.718-2.822 3.946l-10.183 7.58V24.582c1.285.157 2.34.13 2.813-2.64l6.11-1.749c1.063 5.183 5.25 4.04 4.716-1.173zM26.26 30.051c-.674 0-1.574 1.08-1.574 2.332 0 1.25.9 2.197 1.574 2.197s1.75-.66 1.75-1.91c.001-1.252-1.076-2.62-1.75-2.62" style="fill:#343434;fill-opacity:1;stroke:none;stroke-width:2.461;stroke-linecap:round;stroke-linejoin:round;stroke-miterlimit:2;stroke-dasharray:none;stroke-opacity:1" transform="translate(3.86 3.844)scale(.8339)"/><path d="m8.096 18.814-3.979 3.967c.252.952 1.347 1.77.73 3.195l5.286 3.217c2.702 1.47 2.867 2.718 2.822 3.946l10.184 7.58V24.982c-1.293.123-2.432-.476-2.987-2.838l-5.937-1.7c-1.026 5.196-5.516 4.031-5.416-1.377Zm11.63 11.487c.675 0 1.53 1.036 1.53 2.287s-.856 2.242-1.53 2.242c-.679.232-1.516-.729-1.438-2.16 0-1.252.764-2.37 1.439-2.37m18.478-11.487 3.979 3.967c-.252.952-1.347 1.77-.73 3.195l-5.286 3.217c-2.702 1.47-2.867 2.718-2.822 3.946l-10.184 7.58V24.982c1.293.123 2.432-.476 2.987-2.838l5.937-1.7c1.026 5.196 5.516 4.031 5.416-1.377zM26.575 30.3c-.675 0-1.53 1.036-1.53 2.287s.856 2.242 1.53 2.242c.679.232 1.516-.729 1.438-2.16 0-1.252-.764-2.37-1.439-2.37" style="display:inline;fill:#8a8a8a;fill-opacity:1;stroke:none;stroke-width:2.461;stroke-linecap:round;stroke-linejoin:round;stroke-miterlimit:2;stroke-dasharray:none;stroke-opacity:1" transform="translate(3.86 3.844)scale(.8339)"/><path d="m4.117 22.781 3.979-3.967.703.253c.083 4.833 2.837 5.507 4.227 4.01l-.07 10.062c-.88-3.89-5.506-6.13-8.11-7.163.462-1.108-.36-2.028-.729-3.195m38.066 0-3.979-3.967-.703.253c-.083 4.833-2.837 5.507-4.227 4.01l.07 10.062c.88-3.89 5.506-6.13 8.11-7.163-.462-1.108.36-2.028.729-3.195" style="fill:#7b7b7b;fill-opacity:1;stroke:none;stroke-width:2.461;stroke-linecap:round;stroke-linejoin:round;stroke-miterlimit:2;stroke-dasharray:none;stroke-opacity:1" transform="translate(3.86 3.844)scale(.8339)"/><path d="m4.117 22.781 3.979-3.967 1.078.342c-.356 2.603.326 3.191.97 4.025l-.011 6.012c-1.867-.983-2.988-2-5.287-3.217.462-1.108-.36-2.028-.729-3.195m38.066 0-3.979-3.967-1.078.342c.356 2.603-.326 3.191-.97 4.025l.011 6.012c1.867-.983 2.988-2 5.287-3.217-.462-1.108.36-2.028.729-3.195" style="fill:#707070;fill-opacity:1;stroke:none;stroke-width:2.461;stroke-linecap:round;stroke-linejoin:round;stroke-miterlimit:2;stroke-dasharray:none;stroke-opacity:1" transform="translate(3.86 3.844)scale(.8339)"/><path d="m7.13 19.775.36 7.81-2.644-1.609c.405-1.008-.232-1.893-.729-3.195Zm32.04 0-.36 7.81 2.644-1.609c-.405-1.008.232-1.893.729-3.195z" style="fill:#666;fill-opacity:1;stroke:none;stroke-width:2.461;stroke-linecap:round;stroke-linejoin:round;stroke-miterlimit:2;stroke-dasharray:none;stroke-opacity:1" transform="translate(3.86 3.844)scale(.8339)"/><path d="M13.026 23.076c.698-.777.985-1.69 1.189-2.633l2.968.85L17 36.13l-4.045-2.99Zm20.248 0c-.698-.777-.985-1.69-1.189-2.633l-2.968.85.183 14.836 4.045-2.99z" style="fill:gray;fill-opacity:.28481;stroke:none;stroke-width:2.461;stroke-linecap:round;stroke-linejoin:round;stroke-miterlimit:2;stroke-dasharray:none;stroke-opacity:1" transform="translate(3.86 3.844)scale(.8339)"/><path d="M23.164 23.174v16.61" style="fill:#4c4c4c;fill-opacity:1;stroke:#1a1a1a;stroke-width:1.00068;stroke-linecap:round;stroke-linejoin:round;stroke-miterlimit:2;stroke-dasharray:none;stroke-opacity:1"/><ellipse cx="13.836" cy="20.445" rx="1.018" ry="1.889" style="fill:#312323;fill-opacity:1;stroke:#1a1a1a;stroke-width:1.00068;stroke-linecap:round;stroke-linejoin:round;stroke-miterlimit:2;stroke-dasharray:none;stroke-opacity:1"/><ellipse cx="-32.513" cy="20.445" rx="1.018" ry="1.889" style="fill:#312323;fill-opacity:1;stroke:#1a1a1a;stroke-width:1.00068;stroke-linecap:round;stroke-linejoin:round;stroke-miterlimit:2;stroke-dasharray:none;stroke-opacity:1" transform="scale(-1 1)"/><ellipse cx="-26.031" cy="30.712" rx="1.018" ry="1.889" style="fill:#343434;fill-opacity:1;stroke:#1a1a1a;stroke-width:1.001;stroke-linecap:round;stroke-linejoin:round;stroke-miterlimit:2;stroke-dasharray:none;stroke-opacity:1" transform="scale(-1 1)"/><ellipse cx="20.319" cy="30.712" rx="1.018" ry="1.889" style="fill:#343434;fill-opacity:1;stroke:#1a1a1a;stroke-width:1.00068;stroke-linecap:round;stroke-linejoin:round;stroke-miterlimit:2;stroke-dasharray:none;stroke-opacity:1"/></g><path d="m21.238 42.687 2.05 6.626-5.551 9.94c-2.05-1.94-1.959-4.428-.852-9.774.46-2.192 1.372-6.235 4.353-6.792" style="fill:#434343;fill-opacity:1;stroke:#1a1a1a;stroke-width:2;stroke-linecap:round;stroke-linejoin:round;stroke-miterlimit:2;stroke-dasharray:none;stroke-opacity:1"/><g style="display:inline"><path d="m43.944 42.074-3.395-1.117-1.902-3.766" style="fill:#585858;fill-opacity:1;fill-rule:nonzero;stroke:#1a1a1a;stroke-width:1.23;stroke-linecap:round;stroke-linejoin:round;stroke-miterlimit:2;stroke-dasharray:none;stroke-opacity:1" transform="matrix(-1 0 0 1 60.73 19.062)"/><path d="m41.231 29.333-2.584 7.858 3.395 1.116 1.902 3.767 2.584-7.858-1.902-3.766z" style="fill:#38382c;fill-opacity:1;fill-rule:nonzero;stroke:#1a1a1a;stroke-width:1.23;stroke-linecap:square;stroke-linejoin:round;stroke-miterlimit:2;stroke-dasharray:none;stroke-opacity:1" transform="matrix(-1 0 0 1 60.73 19.062)"/><path d="m44.626 30.45-2.584 7.857" style="fill:#585858;fill-opacity:1;fill-rule:nonzero;stroke:#1a1a1a;stroke-width:1.23;stroke-linecap:round;stroke-linejoin:round;stroke-miterlimit:2;stroke-dasharray:none;stroke-opacity:1" transform="matrix(-1 0 0 1 60.73 19.062)"/><path d="m38.647 37.191 3.395 1.116 1.902 3.767-3.395-1.117z" style="fill:#282820;fill-opacity:1;fill-rule:nonzero;stroke:#1a1a1a;stroke-width:1.23;stroke-linecap:round;stroke-linejoin:round;stroke-miterlimit:2;stroke-dasharray:none;stroke-opacity:1" transform="matrix(-1 0 0 1 60.73 19.062)"/><path d="m44.626 30.45-2.584 7.857-3.395-1.116 2.584-7.858z" style="fill:#4b4b3c;fill-opacity:1;fill-rule:nonzero;stroke:#1a1a1a;stroke-width:1.23;stroke-linecap:round;stroke-linejoin:round;stroke-miterlimit:2;stroke-dasharray:none;stroke-opacity:1" transform="matrix(-1 0 0 1 60.73 19.062)"/><path d="m44.965 32.515.731 1.455-.299.913-.777-1.306z" style="fill:#282820;fill-opacity:1;fill-rule:nonzero;stroke:none;stroke-width:1.23;stroke-linecap:round;stroke-linejoin:round;stroke-miterlimit:2;stroke-dasharray:none;stroke-opacity:1" transform="matrix(-1 0 0 1 60.73 19.062)"/><path d="m40.28 32.847-.867 2.575 3.395 1.117 1.902 3.766 1.053-3.188-1.677-3.03z" style="fill:#424235;fill-opacity:1;fill-rule:nonzero;stroke:#1a1a1a;stroke-width:1.23;stroke-linecap:square;stroke-linejoin:round;stroke-miterlimit:2;stroke-dasharray:none;stroke-opacity:1" transform="matrix(-1 0 0 1 60.73 19.062)"/><path d="m42.588 36.485.746-2.106" style="fill:#1a1a1a;fill-opacity:1;fill-rule:nonzero;stroke:#1a1a1a;stroke-width:1.23;stroke-linecap:round;stroke-linejoin:round;stroke-miterlimit:2;stroke-dasharray:none;stroke-opacity:1" transform="matrix(-1 0 0 1 60.73 19.062)"/></g><g style="display:inline"><path d="m43.944 42.074-3.395-1.117-1.902-3.766" style="fill:#585858;fill-opacity:1;fill-rule:nonzero;stroke:#1a1a1a;stroke-width:1.23;stroke-linecap:round;stroke-linejoin:round;stroke-miterlimit:2;stroke-dasharray:none;stroke-opacity:1" transform="matrix(-1 0 0 1 63.64 12.732)"/><path d="m41.231 29.333-2.584 7.858 3.395 1.116 1.902 3.767 2.584-7.858-1.902-3.766z" style="fill:#38382c;fill-opacity:1;fill-rule:nonzero;stroke:#1a1a1a;stroke-width:1.23;stroke-linecap:square;stroke-linejoin:round;stroke-miterlimit:2;stroke-dasharray:none;stroke-opacity:1" transform="matrix(-1 0 0 1 63.64 12.732)"/><path d="m44.626 30.45-2.584 7.857" style="fill:#585858;fill-opacity:1;fill-rule:nonzero;stroke:#1a1a1a;stroke-width:1.23;stroke-linecap:round;stroke-linejoin:round;stroke-miterlimit:2;stroke-dasharray:none;stroke-opacity:1" transform="matrix(-1 0 0 1 63.64 12.732)"/><path d="m38.647 37.191 3.395 1.116 1.902 3.767-3.395-1.117z" style="fill:#282820;fill-opacity:1;fill-rule:nonzero;stroke:#1a1a1a;stroke-width:1.23;stroke-linecap:round;stroke-linejoin:round;stroke-miterlimit:2;stroke-dasharray:none;stroke-opacity:1" transform="matrix(-1 0 0 1 63.64 12.732)"/><path d="m44.626 30.45-2.584 7.857-3.395-1.116 2.584-7.858z" style="fill:#4b4b3c;fill-opacity:1;fill-rule:nonzero;stroke:#1a1a1a;stroke-width:1.23;stroke-linecap:round;stroke-linejoin:round;stroke-miterlimit:2;stroke-dasharray:none;stroke-opacity:1" transform="matrix(-1 0 0 1 63.64 12.732)"/><path d="m44.965 32.515.731 1.455-.299.913-.777-1.306z" style="fill:#282820;fill-opacity:1;fill-rule:nonzero;stroke:none;stroke-width:1.23;stroke-linecap:round;stroke-linejoin:round;stroke-miterlimit:2;stroke-dasharray:none;stroke-opacity:1" transform="matrix(-1 0 0 1 63.64 12.732)"/><path d="m40.28 32.847-.867 2.575 3.395 1.117 1.902 3.766 1.053-3.188-1.677-3.03z" style="fill:#424235;fill-opacity:1;fill-rule:nonzero;stroke:#1a1a1a;stroke-width:1.23;stroke-linecap:square;stroke-linejoin:round;stroke-miterlimit:2;stroke-dasharray:none;stroke-opacity:1" transform="matrix(-1 0 0 1 63.64 12.732)"/><path d="m42.588 36.485.746-2.106" style="fill:#1a1a1a;fill-opacity:1;fill-rule:nonzero;stroke:#1a1a1a;stroke-width:1.23;stroke-linecap:round;stroke-linejoin:round;stroke-miterlimit:2;stroke-dasharray:none;stroke-opacity:1" transform="matrix(-1 0 0 1 63.64 12.732)"/></g><rect width="3.399" height="6.175" x="48.853" y="42.686" rx="1.811" ry="1.68" style="fill:#404040;fill-opacity:1;stroke:#1a1a1a;stroke-width:2;stroke-linecap:round;stroke-linejoin:round;stroke-miterlimit:2;stroke-dasharray:none;stroke-opacity:1"/><rect width="3.399" height="6.175" x="48.859" y="42.685" rx="1.811" ry="1.68" style="fill:url(#f);stroke:#1a1a1a;stroke-width:2;stroke-linecap:round;stroke-linejoin:round;stroke-miterlimit:2;stroke-dasharray:none;stroke-opacity:1"/></g></svg>