<?xml version="1.0" encoding="UTF-8" standalone="no"?>
<!-- Created with Inkscape (http://www.inkscape.org/) -->

<svg
   width="32.547306"
   height="64.000008"
   viewBox="0 0 8.6114751 16.933334"
   version="1.1"
   id="svg5"
   xml:space="preserve"
   sodipodi:docname="stun_grenade.svg"
   inkscape:version="1.1.2 (0a00cf5339, 2022-02-04)"
   xmlns:inkscape="http://www.inkscape.org/namespaces/inkscape"
   xmlns:sodipodi="http://sodipodi.sourceforge.net/DTD/sodipodi-0.dtd"
   xmlns="http://www.w3.org/2000/svg"
   xmlns:svg="http://www.w3.org/2000/svg"><sodipodi:namedview
     id="namedview7"
     pagecolor="#505050"
     bordercolor="#000000"
     borderopacity="0.25"
     inkscape:showpageshadow="2"
     inkscape:pageopacity="0"
     inkscape:pagecheckerboard="true"
     inkscape:deskcolor="#d1d1d1"
     inkscape:document-units="px"
     showgrid="false"
     showguides="true"
     inkscape:zoom="16.000001"
     inkscape:cx="8.3749996"
     inkscape:cy="15.374999"
     inkscape:window-width="2560"
     inkscape:window-height="1372"
     inkscape:window-x="0"
     inkscape:window-y="0"
     inkscape:window-maximized="1"
     inkscape:current-layer="g77498"
     inkscape:pageshadow="0"
     units="px" /><defs
     id="defs2" /><g
     inkscape:label="Layer 1"
     inkscape:groupmode="layer"
     id="layer1"
     transform="translate(149.63549,-178.52385)"><g
       id="g77498"><g
         id="g935"
         transform="matrix(1.817316,0,0,1.817316,122.29948,-145.9104)"><g
           id="g954"><rect
             style="fill:#3e4035;fill-opacity:1;stroke:none;stroke-width:0.463;stroke-linecap:square;stroke-linejoin:round;stroke-dasharray:none;stroke-opacity:1;stop-color:#000000"
             id="rect68528-1"
             width="1.6"
             height="4.6181402"
             x="-147.49164"
             y="181.64987" /><path
             id="rect62899-6-1-2"
             style="fill:#8f8265;fill-opacity:1;stroke:none;stroke-width:0.463002;stroke-linecap:square;stroke-linejoin:round;stroke-dasharray:none;stroke-opacity:1;stop-color:#000000"
             d="m -147.32191,181.64987 v 4.61814 h 0.63028 0.63023 v -4.61814 h -0.63023 z"
             sodipodi:nodetypes="ccccccc" /><path
             id="rect62899-0-9-5-3"
             style="fill:#ff2a2a;fill-opacity:1;stroke:none;stroke-width:0.463002;stroke-linecap:square;stroke-linejoin:round;stroke-dasharray:none;stroke-opacity:1;stop-color:#000000"
             d="m -147.32191,185.2513 v 1.01671 h 0.63028 0.63023 v -1.01671 h -0.63023 z"
             sodipodi:nodetypes="ccccccc" /><path
             id="path62342-6-2"
             style="fill:#575946;fill-opacity:1;stroke:none;stroke-width:0.463021;stroke-linecap:square;stroke-linejoin:round;stroke-dasharray:none;stroke-opacity:1;stop-color:#000000"
             d="m -147.82129,181.6497 v 0.46198 c 0,0 0.13981,0.29537 0.14056,0.45372 7.7e-4,0.16341 -0.14056,0.46974 -0.14056,0.46974 v 0.46199 c 0,0 0.13981,0.29537 0.14056,0.45372 7.7e-4,0.1634 -0.14056,0.46974 -0.14056,0.46974 v 0.46199 c 0,0 0.13981,0.29536 0.14056,0.45371 7.7e-4,0.16341 -0.14056,0.46974 -0.14056,0.46974 v 0.46199 h 1.12965 1.12965 v -0.46199 c 0,0 -0.14134,-0.30633 -0.14055,-0.46974 7.6e-4,-0.15835 0.14055,-0.45371 0.14055,-0.45371 v -0.46199 c 0,0 -0.14134,-0.30634 -0.14055,-0.46974 7.6e-4,-0.15835 0.14055,-0.45372 0.14055,-0.45372 v -0.46199 c 0,0 -0.14134,-0.30633 -0.14055,-0.46974 7.6e-4,-0.15835 0.14055,-0.45372 0.14055,-0.45372 v -0.46198 h -1.12965 z m 0.70902,0.60978 a 0.3062115,0.3062115 0 0 1 0.30644,0.30592 0.3062115,0.3062115 0 0 1 -0.30644,0.30645 0.3062115,0.3062115 0 0 1 -0.30593,-0.30645 0.3062115,0.3062115 0 0 1 0.30593,-0.30592 z m 0.84128,0 a 0.3062115,0.3062115 0 0 1 0.30592,0.30592 0.3062115,0.3062115 0 0 1 -0.30592,0.30645 0.3062115,0.3062115 0 0 1 -0.30645,-0.30645 0.3062115,0.3062115 0 0 1 0.30645,-0.30592 z m -0.84128,1.38544 a 0.3062115,0.3062115 0 0 1 0.30644,0.30593 0.3062115,0.3062115 0 0 1 -0.30644,0.30644 0.3062115,0.3062115 0 0 1 -0.30593,-0.30644 0.3062115,0.3062115 0 0 1 0.30593,-0.30593 z m 0.84128,0 a 0.3062115,0.3062115 0 0 1 0.30592,0.30593 0.3062115,0.3062115 0 0 1 -0.30592,0.30644 0.3062115,0.3062115 0 0 1 -0.30645,-0.30644 0.3062115,0.3062115 0 0 1 0.30645,-0.30593 z m -0.84128,1.38545 a 0.3062115,0.3062115 0 0 1 0.30644,0.30592 0.3062115,0.3062115 0 0 1 -0.30644,0.30645 0.3062115,0.3062115 0 0 1 -0.30593,-0.30645 0.3062115,0.3062115 0 0 1 0.30593,-0.30592 z m 0.84128,0 a 0.3062115,0.3062115 0 0 1 0.30592,0.30592 0.3062115,0.3062115 0 0 1 -0.30592,0.30645 0.3062115,0.3062115 0 0 1 -0.30645,-0.30645 0.3062115,0.3062115 0 0 1 0.30645,-0.30592 z" /><path
             id="rect7865-9-3-4"
             style="fill:#999999;fill-opacity:1;stroke-width:0.506114;stroke-linecap:square;stroke-linejoin:round;stop-color:#000000"
             d="m -147.58925,183.45321 v 1.0113 h 1.79524 v -1.0113 z m 1.31827,0.1912 a 0.30618358,0.30618358 0 0 1 0.30592,0.30644 0.30618358,0.30618358 0 0 1 -0.30592,0.30592 0.30618358,0.30618358 0 0 1 -0.30644,-0.30592 0.30618358,0.30618358 0 0 1 0.30644,-0.30644 z m -0.84129,5.1e-4 a 0.30618358,0.30618358 0 0 1 0.30644,0.30593 0.30618358,0.30618358 0 0 1 -0.30644,0.30644 0.30618358,0.30618358 0 0 1 -0.30593,-0.30644 0.30618358,0.30618358 0 0 1 0.30593,-0.30593 z" /><path
             style="color:#000000;fill:#202020;stroke-linecap:square;stroke-linejoin:round;-inkscape-stroke:none"
             d="m -147.82147,181.41768 c -0.1278,5.9e-4 -0.23095,0.10462 -0.23046,0.23242 v 0.46094 c -3.2e-4,0.0344 0.007,0.0684 0.0215,0.0996 0,0 0.0313,0.0647 0.0625,0.14843 0.0312,0.0838 0.0546,0.19505 0.0547,0.20704 6e-5,0.0145 -0.0232,0.12969 -0.0547,0.21679 -0.0315,0.0871 -0.0644,0.15625 -0.0644,0.15625 -0.0132,0.0301 -0.0199,0.0628 -0.0195,0.0957 v 0.46289 c -2e-5,0.0337 0.007,0.067 0.0215,0.0976 0,0 0.0313,0.0666 0.0625,0.15039 0.0312,0.0838 0.0546,0.19505 0.0547,0.20703 6e-5,0.0145 -0.0232,0.12775 -0.0547,0.21485 -0.0315,0.0871 -0.0644,0.15625 -0.0644,0.15625 -0.0132,0.0301 -0.0199,0.0628 -0.0195,0.0957 v 0.46289 c -3.2e-4,0.0344 0.007,0.0684 0.0215,0.0996 0,0 0.0313,0.0647 0.0625,0.14844 0.0312,0.0838 0.0546,0.19504 0.0547,0.20703 7e-5,0.0145 -0.0232,0.1297 -0.0547,0.2168 -0.0315,0.0871 -0.0644,0.15429 -0.0644,0.15429 -0.0135,0.0308 -0.0202,0.0641 -0.0195,0.0977 v 0.46094 c -4.9e-4,0.1278 0.10267,0.23183 0.23047,0.23242 h 1.12889 1.13087 c 0.1278,-5.9e-4 0.23096,-0.10462 0.23047,-0.23242 v -0.46094 c 6.7e-4,-0.0336 -0.006,-0.0669 -0.0195,-0.0977 0,0 -0.0329,-0.0672 -0.0644,-0.15429 -0.0315,-0.0871 -0.0548,-0.20229 -0.0547,-0.2168 5e-5,-0.012 0.0234,-0.12327 0.0547,-0.20703 0.0312,-0.0838 0.0625,-0.14844 0.0625,-0.14844 0.0145,-0.0312 0.0218,-0.0652 0.0215,-0.0996 v -0.46289 c 3.8e-4,-0.0329 -0.006,-0.0656 -0.0195,-0.0957 0,0 -0.0329,-0.0692 -0.0644,-0.15625 -0.0315,-0.0871 -0.0548,-0.20034 -0.0547,-0.21485 6e-5,-0.012 0.0234,-0.12327 0.0547,-0.20703 0.0312,-0.0838 0.0625,-0.15039 0.0625,-0.15039 0.0142,-0.0306 0.0215,-0.0639 0.0215,-0.0976 v -0.46289 c 3.8e-4,-0.0329 -0.006,-0.0656 -0.0195,-0.0957 0,0 -0.0329,-0.0692 -0.0644,-0.15625 -0.0315,-0.0871 -0.0548,-0.20228 -0.0547,-0.21679 6e-5,-0.012 0.0234,-0.12328 0.0547,-0.20704 0.0312,-0.0838 0.0625,-0.14843 0.0625,-0.14843 0.0145,-0.0312 0.0218,-0.0652 0.0215,-0.0996 v -0.46094 c 4.9e-4,-0.1278 -0.10267,-0.23183 -0.23047,-0.23242 h -1.13086 z m 0.23242,0.46289 h 0.89648 0.89843 v 0.18945 c -0.0139,0.0308 -0.0278,0.0569 -0.0547,0.12891 -0.0386,0.10351 -0.0833,0.21887 -0.084,0.36523 -7.1e-4,0.1489 0.0433,0.27004 0.082,0.37696 0.028,0.0775 0.0432,0.10833 0.0566,0.13867 v 0.37304 c -0.0137,0.0304 -0.0275,0.0579 -0.0547,0.13086 -0.0386,0.10352 -0.0833,0.21888 -0.084,0.36524 -7.1e-4,0.1489 0.0433,0.27003 0.082,0.37695 0.028,0.0775 0.0432,0.10833 0.0566,0.13867 v 0.375 c -0.0139,0.0308 -0.0278,0.0569 -0.0547,0.12891 -0.0386,0.10352 -0.0833,0.22082 -0.084,0.36719 -7.1e-4,0.1489 0.0433,0.26808 0.082,0.375 0.028,0.0775 0.0432,0.10833 0.0566,0.13867 v 0.1875 h -0.89844 -0.89648 v -0.1875 c 0.0134,-0.0303 0.0286,-0.0612 0.0566,-0.13867 0.0387,-0.10692 0.0827,-0.2261 0.082,-0.375 -7e-4,-0.14637 -0.0454,-0.26367 -0.084,-0.36719 -0.0268,-0.072 -0.0408,-0.0981 -0.0547,-0.12891 v -0.375 c 0.0134,-0.0303 0.0286,-0.0612 0.0566,-0.13867 0.0387,-0.10692 0.0827,-0.22805 0.082,-0.37695 -7e-4,-0.14636 -0.0454,-0.26172 -0.084,-0.36524 -0.0272,-0.0729 -0.041,-0.10049 -0.0547,-0.13086 v -0.37304 c 0.0134,-0.0303 0.0286,-0.0612 0.0566,-0.13867 0.0387,-0.10692 0.0827,-0.22806 0.082,-0.37696 -7e-4,-0.14636 -0.0454,-0.26172 -0.084,-0.36523 -0.0268,-0.072 -0.0408,-0.0981 -0.0547,-0.12891 z"
             id="path62342-6"
             sodipodi:nodetypes="ccccscsccccscsccccscscccccccccsscccccsscccccssccccccccccccscccssccccscccccccsscccsscccsscc" /><path
             id="path62226-7-8-1"
             style="fill:#575946;fill-opacity:1;stroke:#202020;stroke-width:0.463001;stroke-linecap:square;stroke-linejoin:round;stroke-dasharray:none;stroke-opacity:1;stop-color:#000000"
             inkscape:transform-center-x="0.7354288"
             inkscape:transform-center-y="-0.071906543"
             d="m -147.82106,180.3074 -0.34108,0.23969 v 0.43145 0.43145 l 0.34108,0.2397 h 1.12977 1.12981 l 0.34107,-0.2397 v -0.43145 -0.43145 l -0.34107,-0.23969 h -1.12981 z"
             sodipodi:nodetypes="ccccccccccccc" /><path
             id="path62226-7-9-4-4"
             style="fill:#3e4035;fill-opacity:1;stroke:#202020;stroke-width:0.463001;stroke-linecap:square;stroke-linejoin:round;stroke-dasharray:none;stroke-opacity:1;stop-color:#000000"
             inkscape:transform-center-x="0.73542793"
             inkscape:transform-center-y="-0.071906242"
             d="m -147.22616,180.3074 -0.34107,0.23969 v 0.43145 0.43145 l 0.34107,0.2397 h 1.06976 l 0.34108,-0.2397 v -0.43145 -0.43145 l -0.34108,-0.23969 z"
             sodipodi:nodetypes="ccccccccccc" /><path
             id="path62226-7-7"
             style="fill:#575946;fill-opacity:1;stroke:#202020;stroke-width:0.463001;stroke-linecap:square;stroke-linejoin:round;stroke-dasharray:none;stroke-opacity:1;stop-color:#000000"
             inkscape:transform-center-x="0.73542793"
             inkscape:transform-center-y="-0.071911032"
             d="m -147.82108,186.26783 -0.34106,0.2397 v 0.43145 0.43145 l 0.34106,0.23969 h 1.1298 1.12979 l 0.34108,-0.23969 v -0.43145 -0.43145 l -0.34108,-0.2397 h -1.12979 z"
             sodipodi:nodetypes="ccccccccccccc" /><path
             id="rect6161-9-7-5"
             style="fill:#4e4735;fill-opacity:1;stroke:#202020;stroke-width:0.463021;stroke-linecap:square;stroke-linejoin:round;stroke-dasharray:none;stroke-opacity:1;stop-color:#000000"
             d="m -146.28419,178.85632 0.12779,0.11393 h 0.40101 l -0.5288,0.7208 0.12779,0.61635 c 0,0 -1.12185,0 -1.13716,0 h -0.81469 l 0.51632,-1.45108 z"
             sodipodi:nodetypes="ccccccccc" /><path
             id="path7971-5-4-2"
             style="fill:#202020;stroke-width:0;stroke-linecap:square;stroke-linejoin:round;stop-color:#000000"
             d="m -146.19701,178.97025 a 0.441614,0.44640118 0 0 0 0.44162,0.4464 0.441614,0.44640118 0 0 0 0.44162,-0.4464 0.441614,0.44640118 0 0 0 -0.44162,-0.4464 0.441614,0.44640118 0 0 0 -0.44162,0.4464 z" /><path
             style="isolation:isolate;fill:#4e4735;fill-opacity:1;stroke:#202020;stroke-width:0.463021;stroke-linejoin:round;stroke-dasharray:none;stroke-opacity:1"
             inkscape:connector-curvature="0"
             id="path6-4-4-9"
             d="m -147.89116,179.6973 -1.51282,0.62489 v 4.41568 l 0.6232,0.22803 v -4.37584 l 0.67253,-0.28266 z"
             sodipodi:nodetypes="ccccccc" /><path
             id="path62226-7-9-4-4-98"
             style="fill:#3e4035;fill-opacity:1;stroke:#202020;stroke-width:0.463001;stroke-linecap:square;stroke-linejoin:round;stroke-dasharray:none;stroke-opacity:1;stop-color:#000000"
             inkscape:transform-center-x="0.73542793"
             inkscape:transform-center-y="-0.071906242"
             d="m -147.22616,186.26783 -0.34107,0.23969 v 0.43145 0.43145 l 0.34107,0.2397 h 1.06976 l 0.34108,-0.2397 v -0.43145 -0.43145 l -0.34108,-0.23969 z"
             sodipodi:nodetypes="ccccccccccc" /><path
             id="rect79968"
             style="opacity:1;fill:#c08567;fill-opacity:1;stroke-width:0.23151;stroke-linecap:square;stroke-linejoin:round;stop-color:#000000"
             d="m -149.17206,183.26628 h 0.16015 v 1.3685 l -0.16015,-0.0586 z"
             sodipodi:nodetypes="ccccc" /><path
             style="isolation:isolate;fill:#9d9fa1;fill-opacity:1;stroke:#202020;stroke-width:0.23151;stroke-dasharray:none;stroke-opacity:1"
             inkscape:connector-curvature="0"
             id="path8-7-5-6"
             d="m -147.61936,179.36033 a 1.1645042,1.1666796 0 0 0 -0.55483,0.15587 1.1645042,1.1666796 0 0 0 -0.42626,1.59382 1.1645042,1.1666796 0 0 0 1.59071,0.42708 1.1645042,1.1666796 0 0 0 0.42625,-1.59385 1.1645042,1.1666796 0 0 0 -1.03591,-0.58292 z m 0.004,0.42153 a 0.75181423,0.75321868 0 0 1 0.66887,0.3765 0.75181423,0.75321868 0 0 1 -0.27516,1.02889 0.75181423,0.75321868 0 0 1 -1.02691,-0.27567 0.75181423,0.75321868 0 0 1 0.2751,-1.02903 0.75181423,0.75321868 0 0 1 0.3581,-0.10069 z" /><path
             style="color:#000000;fill:#9d9fa1;stroke-width:0.23151;stroke-linecap:square;stroke-linejoin:round;-inkscape-stroke:none"
             d="m -146.68008,179.25533 -1.01623,2.51118 2.68274,-0.37542 z m 0.11237,0.80297 0.803,1.02881 -1.29275,0.1809 z"
             id="path75383" /><path
             style="color:#000000;fill:#202020;stroke-linecap:square;stroke-linejoin:round;-inkscape-stroke:none"
             d="m -146.69582,179.14052 a 0.11576657,0.11576657 0 0 0 -0.0905,0.0718 l -1.0173,2.51092 a 0.11576657,0.11576657 0 0 0 0.12272,0.15834 l 2.68285,-0.37543 a 0.11576657,0.11576657 0 0 0 0.0765,-0.18622 l -1.66747,-2.13522 a 0.11576657,0.11576657 0 0 0 -0.10676,-0.0442 z m 0.0479,0.34237 1.42033,1.82072 -2.28632,0.31995 z m 0.0644,0.46036 a 0.11576657,0.11576657 0 0 0 -0.0905,0.0718 l -0.49153,1.20869 a 0.11576657,0.11576657 0 0 0 0.12468,0.15807 l 1.29209,-0.18081 a 0.11576657,0.11576657 0 0 0 0.0746,-0.18595 l -0.8025,-1.02761 a 0.11576657,0.11576657 0 0 0 -0.10676,-0.0442 z m 0.0479,0.34236 0.55757,0.71479 -0.8975,0.12559 z"
             id="path75385" /></g></g></g></g></svg>
