<?xml version="1.0" encoding="UTF-8" standalone="no"?>
<!-- Generator: Adobe Illustrator 27.0.0, SVG Export Plug-In . SVG Version: 6.00 Build 0)  -->

<svg version="1.1" id="Layer_1" x="0px" y="0px" viewBox="0 0 45.535633 64.000002" xml:space="preserve" sodipodi:docname="tablets.svg" width="45.535633" height="64" inkscape:version="1.3 (0e150ed6c4, 2023-07-21)" xmlns:inkscape="http://www.inkscape.org/namespaces/inkscape" xmlns:sodipodi="http://sodipodi.sourceforge.net/DTD/sodipodi-0.dtd" xmlns="http://www.w3.org/2000/svg" xmlns:svg="http://www.w3.org/2000/svg"><defs id="defs36">&#10;	&#10;&#10;		&#10;		&#10;		&#10;		&#10;		&#10;		&#10;		&#10;		&#10;		&#10;		&#10;		&#10;		&#10;	</defs><sodipodi:namedview id="namedview34" pagecolor="#505050" bordercolor="#ffffff" borderopacity="1" inkscape:pageshadow="0" inkscape:pageopacity="0" inkscape:pagecheckerboard="1" showgrid="false" inkscape:zoom="5.6568543" inkscape:cx="-2.7400388" inkscape:cy="23.599689" inkscape:window-width="1440" inkscape:window-height="830" inkscape:window-x="0" inkscape:window-y="0" inkscape:window-maximized="1" inkscape:current-layer="Layer_1" inkscape:showpageshadow="2" inkscape:deskcolor="#d1d1d1" />&#10;<style type="text/css" id="style2">&#10;	.st0{fill:#A0ABB8;stroke:#000000;stroke-width:25;stroke-miterlimit:10;}&#10;	.st1{fill:#C4C4C4;}&#10;	.st2{fill:#FF7300;}&#10;	.st3{fill:#FFFFFF;}&#10;</style>&#10;&#10;<g id="Layer_2_00000012438235742420490570000004933091950338048652_" transform="matrix(0.14712644,0,0,0.14712644,-36.914024,-11.902529)">&#10;	<path class="st0" d="m 313.6,93.4 h 184.1 c 27.7,0 50.2,24.6 50.2,54.9 v 300.2 c 0,30.3 -22.5,54.9 -50.2,54.9 H 313.6 c -27.7,0 -50.2,-24.6 -50.2,-54.9 V 148.3 c 0,-30.3 22.5,-54.9 50.2,-54.9 z" id="path4" style="stroke:#21262c;stroke-opacity:1" />&#10;</g><path class="st1" d="m 6.6133333,25.195403 v -13.02069 c 0,-2.8395402 2.5305747,-5.1494253 5.6496557,-5.1494253 h 2.721839 c 3.11908,0 5.649655,2.3098851 5.649655,5.1494253 v 13.02069 c 0,2.83954 -2.530575,5.149425 -5.649655,5.149425 H 12.262989 C 9.143908,30.330116 6.6133333,28.034943 6.6133333,25.195403 Z" id="path7" style="stroke-width:0.147126" /><path class="st1" d="m 24.90115,51.825288 v -13.02069 c 0,-2.83954 2.530575,-5.149425 5.649655,-5.149425 h 2.721839 c 3.119081,0 5.649656,2.309885 5.649656,5.149425 v 13.02069 c 0,2.839541 -2.530575,5.149426 -5.649656,5.149426 h -2.721839 c -3.11908,0 -5.649655,-2.309885 -5.649655,-5.149426 z" id="path9" style="stroke-width:0.147126" /><path class="st1" d="M 24.90115,25.210115 V 12.174713 c 0,-2.8395405 2.530575,-5.1494255 5.649655,-5.1494255 h 2.721839 c 3.119081,0 5.649656,2.309885 5.649656,5.1494255 v 13.02069 c 0,2.83954 -2.530575,5.149425 -5.649656,5.149425 h -2.721839 c -3.11908,-0.01471 -5.649655,-2.295172 -5.649655,-5.134713 z" id="path11" style="stroke-width:0.147126" /><path class="st1" d="m 6.6133333,51.825289 v -13.02069 c 0,-2.839541 2.5305747,-5.149426 5.6496557,-5.149426 h 2.721839 c 3.11908,0 5.649655,2.309885 5.649655,5.149426 v 13.02069 c 0,2.83954 -2.530575,5.149425 -5.649655,5.149425 H 12.262989 C 9.143908,56.960001 6.6133333,54.664829 6.6133333,51.825289 Z" id="path13" style="stroke-width:0.147126" />&#10;<g id="g3" transform="matrix(1,0,0,-1,24.144618,37.639522)"><path id="rect1" style="opacity:1;fill:#008aff;fill-opacity:1;stroke:none;stroke-width:5.12376;stroke-linecap:round;stroke-dasharray:none;stroke-opacity:1;paint-order:markers fill stroke" d="m -14.713812,18.955441 v -6.170155 c 0,-2.322976 1.870126,-4.1931019 4.193102,-4.1931019 v 0 c 2.3229769,0 4.1931028,1.8701259 4.1931028,4.1931019 v 6.170155" /><path id="path1" style="opacity:1;fill:#ff7300;fill-opacity:1;stroke:none;stroke-width:5.12376;stroke-linecap:round;stroke-dasharray:none;stroke-opacity:1;paint-order:markers fill stroke" d="m -6.3276072,18.955441 v 6.1682 c 0,2.322977 -1.8701259,4.193103 -4.1931028,4.193103 -2.322976,0 -4.193102,-1.870126 -4.193102,-4.193103 v -6.1682" /></g><g id="g5" transform="translate(42.432435,-0.2694063)"><path id="path3" style="opacity:1;fill:#008aff;fill-opacity:1;stroke:none;stroke-width:5.12376;stroke-linecap:round;stroke-dasharray:none;stroke-opacity:1;paint-order:markers fill stroke" d="m -14.713812,18.955441 v -6.170155 c 0,-2.322976 1.870126,-4.1931019 4.193102,-4.1931019 v 0 c 2.3229769,0 4.1931028,1.8701259 4.1931028,4.1931019 v 6.170155" /><path id="path5" style="opacity:1;fill:#ff7300;fill-opacity:1;stroke:none;stroke-width:5.12376;stroke-linecap:round;stroke-dasharray:none;stroke-opacity:1;paint-order:markers fill stroke" d="m -6.3276072,18.955441 v 6.1682 c 0,2.322977 -1.8701259,4.193103 -4.1931028,4.193103 -2.322976,0 -4.193102,-1.870126 -4.193102,-4.193103 v -6.1682" /></g><g id="g8" transform="rotate(180,1.5515993,32.134704)"><path id="path6" style="opacity:1;fill:#008aff;fill-opacity:1;stroke:none;stroke-width:5.12376;stroke-linecap:round;stroke-dasharray:none;stroke-opacity:1;paint-order:markers fill stroke" d="m -14.713812,18.955441 v -6.170155 c 0,-2.322976 1.870126,-4.1931019 4.193102,-4.1931019 v 0 c 2.3229769,0 4.1931028,1.8701259 4.1931028,4.1931019 v 6.170155" /><path id="path8" style="opacity:1;fill:#ff7300;fill-opacity:1;stroke:none;stroke-width:5.12376;stroke-linecap:round;stroke-dasharray:none;stroke-opacity:1;paint-order:markers fill stroke" d="m -6.3276072,18.955441 v 6.1682 c 0,2.322977 -1.8701259,4.193103 -4.1931028,4.193103 -2.322976,0 -4.193102,-1.870126 -4.193102,-4.193103 v -6.1682" /></g><g id="g12" transform="matrix(-1,0,0,1,21.391015,26.360479)"><path id="path10" style="opacity:1;fill:#008aff;fill-opacity:1;stroke:none;stroke-width:5.12376;stroke-linecap:round;stroke-dasharray:none;stroke-opacity:1;paint-order:markers fill stroke" d="m -14.713812,18.955441 v -6.170155 c 0,-2.322976 1.870126,-4.1931019 4.193102,-4.1931019 v 0 c 2.3229769,0 4.1931028,1.8701259 4.1931028,4.1931019 v 6.170155" /><path id="path12" style="opacity:1;fill:#ff7300;fill-opacity:1;stroke:none;stroke-width:5.12376;stroke-linecap:round;stroke-dasharray:none;stroke-opacity:1;paint-order:markers fill stroke" d="m -6.3276072,18.955441 v 6.1682 c 0,2.322977 -1.8701259,4.193103 -4.1931028,4.193103 -2.322976,0 -4.193102,-1.870126 -4.193102,-4.193103 v -6.1682" /></g></svg>
