<svg xmlns="http://www.w3.org/2000/svg" width="467.207" height="283.434" viewBox="0 0 123.615 74.992"><g style="fill:none"><path fill="#313335" d="M-655.475-8.076h1855.716v603.567H-655.475z" style="fill:#262626;fill-opacity:1;stroke-width:1.18603" transform="matrix(.06661 0 0 .12425 43.663 1.003)"/><path fill="#4b4f53" d="M17.486 1.034h1831.89v585.304H17.486z" style="fill:#4b4b4b;fill-opacity:1;stroke-width:1.18819" transform="matrix(.066 0 0 .1231 .203 1.343)"/><path fill="#6d7379" stroke="#313335" stroke-width="10.645" d="M196.513 588.493 21.355 450.458v-43.75l236.614 181.785ZM21.355 275.085v-43.748l482.962 357.156h-61.454zm0-219.119 729.307 532.527h-61.454L21.355 99.715ZM181.178-2.858l815.834 591.35h-61.455L119.723-2.857Zm1000.724 591.35L366.068-2.857h61.455l815.834 591.35ZM673.872-2.857l815.828 591.35h-61.454L612.418-2.857Zm1000.722 591.35L858.764-2.857h61.453l815.831 591.35ZM1166.567-2.857l679.549 492.217v54.32L1105.11-2.858Zm246.344 0 433.205 316.847v43.748L1351.456-2.858Zm246.348 0 186.857 141.475v43.748L1597.806-2.858Z" style="fill:#606060;fill-opacity:1;stroke:#262626;stroke-opacity:1" transform="matrix(.066 0 0 .1231 .203 1.343)"/></g></svg>