<svg xmlns="http://www.w3.org/2000/svg" xml:space="preserve" width="90" height="90" viewBox="0 0 23.813 23.813"><path d="M8.248.347c-.105.34-.321.724-.547 1.068-.016-.55-.306-.906-.306-.906-.17.55-.625 1.21-.949 1.635-.23-.584-.71-.816-.71-.816.073.561-.06 1.337-.175 1.86-.244-.388-.576-.549-.576-.549.058.442-.012 1.017-.1 1.497a1.6 1.6 0 0 0-.775-.583c.106.34.147.78.155 1.191-.324-.443-.764-.569-.764-.569.115.37.152.853.156 1.294-.322-.325-.68-.41-.68-.41.194.533.232 1.319.233 1.855-.323-.325-.681-.41-.681-.41.166.456.217 1.098.23 1.61-.397-.315-.81-.34-.81-.34.176.31.31.73.408 1.13-.412-.362-.869-.388-.869-.388.3.522.475 1.358.562 1.884-.228.04-.386.118-.386.118.258.284.506.705.714 1.117-.499-.263-.943-.14-.943-.14.415.457.804 1.27 1.042 1.827-.622-.056-1.04.33-1.04.33.533.208 1.168.742 1.584 1.13-.454.058-.744.324-.744.324.42.164.902.53 1.292.868-.548.109-.86.514-.86.514.35.062.76.244 1.13.444-.537.114-.842.512-.842.512.38.067.828.275 1.223.495-.432.172-.664.504-.664.504.56.068 1.279.428 1.758.7-.433.173-.665.505-.665.505.48.059 1.075.331 1.537.58-.455.254-.659.676-.659.676.354-.028.787.045 1.187.146-.504.249-.727.714-.727.714.923-.075 2.391.545 2.391.545l.183-1.048a3 3 0 0 0-.564-.256l.106-.604c-.367-.21-.69-.314-.973-.349l.129-.384c-.494-.418-.926-.587-1.289-.62l.197-.585A3 3 0 0 0 5.453 18l.15-.392a3.4 3.4 0 0 0-.503-.393l.216-.563a3 3 0 0 0-.701-.505l.206-.358c-.404-.533-.794-.808-1.142-.932l.3-.521c-.27-.359-.536-.6-.787-.759l.306-.216a4.3 4.3 0 0 0-.222-.657l.452-.32c-.093-.993-.386-1.513-.722-1.772a3.4 3.4 0 0 0-.05-.565l.51-.134c0-.41-.06-.742-.158-1.01l.352-.03c.105-.605.046-1.06-.089-1.4l.537-.044c.054-.312.065-.584.043-.821l.37-.012q.071-.33.08-.605l.528-.018c.07-.312.093-.586.082-.825l.366.05c.233-.567.273-1.023.215-1.385l.535.075c.156-.381.226-.713.237-1l.301.195q.246-.23.41-.45l.443.288c1.497-1.392.53-2.573.53-2.573M18.434.413c.105.34.32.724.547 1.068.015-.55.306-.906.306-.906.17.55.624 1.21.948 1.635.23-.583.711-.816.711-.816-.074.561.06 1.337.175 1.86.244-.388.576-.549.576-.549-.059.442.011 1.017.1 1.497.325-.454.774-.583.774-.583-.106.34-.146.78-.155 1.192a1.6 1.6 0 0 1 .765-.57c-.115.37-.152.854-.156 1.294.322-.325.68-.409.68-.409-.194.532-.232 1.318-.233 1.854.322-.325.68-.41.68-.41-.165.456-.217 1.098-.229 1.61.396-.315.81-.339.81-.339-.177.31-.311.729-.409 1.13.413-.363.87-.39.87-.39-.3.523-.475 1.359-.562 1.886.228.039.385.117.385.117-.258.284-.505.706-.713 1.118.498-.264.943-.141.943-.141-.415.457-.805 1.27-1.043 1.827a1.45 1.45 0 0 1 1.041.33c-.533.208-1.168.742-1.584 1.13.454.058.744.324.744.324-.42.164-.903.53-1.292.868.548.11.86.514.86.514-.35.062-.76.244-1.131.444.538.114.843.512.843.512-.38.067-.828.275-1.224.495.432.172.664.504.664.504-.56.068-1.278.429-1.757.701.432.172.665.505.665.505-.48.058-1.075.33-1.538.579.455.254.66.676.66.676-.354-.028-.788.045-1.188.147.504.248.728.713.728.713-.924-.074-2.392.545-2.392.545l-.183-1.048q.303-.17.565-.256l-.106-.604c.367-.209.69-.314.973-.349l-.13-.384c.495-.417.926-.587 1.29-.619l-.197-.586c.254-.215.493-.365.714-.463l-.15-.393a3.4 3.4 0 0 1 .502-.393l-.215-.563c.248-.231.482-.394.7-.505l-.206-.357c.404-.533.794-.808 1.143-.932l-.301-.522c.271-.359.537-.6.788-.758l-.307-.216q.098-.375.222-.658l-.451-.32c.093-.993.385-1.513.722-1.772q.004-.312.05-.565l-.51-.133c0-.411.06-.743.157-1.012l-.351-.029c-.105-.604-.046-1.06.088-1.4l-.537-.044a3.2 3.2 0 0 1-.043-.82l-.369-.013a3.4 3.4 0 0 1-.081-.605l-.528-.018a3.2 3.2 0 0 1-.081-.825l-.366.051c-.233-.567-.273-1.024-.216-1.386l-.534.075a3 3 0 0 1-.238-1l-.3.195a3.4 3.4 0 0 1-.41-.45l-.443.288c-1.497-1.392-.53-2.573-.53-2.573" style="fill:#333;fill-opacity:1;fill-rule:evenodd;stroke:none;stroke-width:.527635;stroke-linecap:square;stroke-linejoin:miter;stroke-miterlimit:29;stroke-dasharray:none;stroke-opacity:1" transform="rotate(-90 12.62 12.628)"/><path d="m13.173.009-.002.004c-.56.338-1.482.575-2.064.7-.063-.225-.164-.378-.164-.378-.297.28-.748.559-1.192.798.254-.52.08-.957.08-.957-.478.45-1.357.9-1.961 1.18C7.88.725 7.416.333 7.416.333c-.19.55-.556 2.603-.556 2.603.38-.299.628-.582.784-.845l.267.291a5 5 0 0 0 .718-.27l.395.43c1.105-.166 1.663-.497 1.925-.854q.349-.026.63-.092l.19.503c.302-.02.806-.904 1.12-1.515h.532c.281.611.737 1.496 1.039 1.515l.191-.503q.28.066.629.092c.262.357.82.688 1.925.853l.395-.43q.306.147.718.271l.267-.291c.156.263.406.546.785.845 0 0-.367-2.052-.556-2.603 0 0-.466.393-.455 1.021-.604-.279-1.482-.729-1.96-1.18 0 0-.175.438.08.958-.445-.24-.896-.518-1.193-.798 0 0-.1.153-.164.379-.58-.125-1.384-.36-1.944-.697z" style="fill:#333;fill-opacity:1;fill-rule:evenodd;stroke:none;stroke-width:.560895;stroke-linecap:square;stroke-linejoin:miter;stroke-miterlimit:29;stroke-dasharray:none;stroke-opacity:1" transform="rotate(-90 12.62 12.628)"/><path d="M23.855 10.994c0 5.847-3.222 12.827-10.518 12.827-7.344 0-10.519-6.98-10.519-12.827S7.528.407 13.337.407s10.518 4.74 10.518 10.587" style="fill:#4d4d4d;stroke-width:.231242;stroke-linecap:round;stroke-linejoin:round;stroke-miterlimit:10" transform="rotate(-90 12.62 12.628)"/><g transform="matrix(0 -.97216 .9785 0 .444 24.835)"><path d="M13.283 17.514c-4.586.023-3.74 5.638-3.74 5.638s1.379.653 3.752.653c2.9 0 3.753-.653 3.753-.653s.846-5.615-3.74-5.638h-.025" style="fill:#726c65;fill-opacity:1;fill-rule:evenodd;stroke:none;stroke-width:.536622;stroke-linecap:square;stroke-linejoin:miter;stroke-miterlimit:29;stroke-dasharray:none;stroke-opacity:1"/><g transform="translate(-1.183 -.608)"><path d="M7.414 4.806c.961-.258 4.635 2.676 4.635 2.676l-3.884.478-3.427 1.48s1.834-4.409 2.676-4.634" style="fill:#666;fill-opacity:1;fill-rule:evenodd;stroke-width:1.96189;stroke-linecap:round;stroke-linejoin:round;stroke-miterlimit:29"/><ellipse cx="3.614" cy="9.387" rx="1.775" ry=".804" style="fill:gray;fill-opacity:1;fill-rule:evenodd;stroke-width:3.18365;stroke-linecap:round;stroke-linejoin:round;stroke-miterlimit:29" transform="matrix(.94927 -.31448 .4821 .87612 0 0)"/><path d="M7.414 4.806c.961-.258 4.635 2.676 4.635 2.676L7.9 7.08 4.738 9.44s1.834-4.409 2.676-4.634" style="fill:#333;fill-opacity:1;fill-rule:evenodd;stroke-width:1.96189;stroke-linecap:round;stroke-linejoin:round;stroke-miterlimit:29"/></g><g transform="matrix(-1 0 0 1 27.771 -.608)"><path d="M7.414 4.806c.961-.258 4.635 2.676 4.635 2.676l-3.884.478-3.427 1.48s1.834-4.409 2.676-4.634" style="fill:#666;fill-opacity:1;fill-rule:evenodd;stroke-width:1.96189;stroke-linecap:round;stroke-linejoin:round;stroke-miterlimit:29"/><ellipse cx="3.614" cy="9.387" rx="1.775" ry=".804" style="fill:gray;fill-opacity:1;fill-rule:evenodd;stroke-width:3.18365;stroke-linecap:round;stroke-linejoin:round;stroke-miterlimit:29" transform="matrix(.94927 -.31448 .4821 .87612 0 0)"/><path d="M7.414 4.806c.961-.258 4.635 2.676 4.635 2.676L7.9 7.08 4.738 9.44s1.834-4.409 2.676-4.634" style="fill:#333;fill-opacity:1;fill-rule:evenodd;stroke-width:1.96189;stroke-linecap:round;stroke-linejoin:round;stroke-miterlimit:29"/></g><path d="M20.938 15.803c-.704.704-5.352 0-5.352 0s1.493-.853 3.682-1.554c.972-2.096 1.67-3.798 1.67-3.798s.616 4.736 0 5.352M7.02 15.803c.705.704 5.353 0 5.353 0s-1.494-.853-3.682-1.554c-.972-2.096-1.67-3.798-1.67-3.798s-.616 4.736 0 5.352" style="fill:#580000;fill-opacity:1;fill-rule:evenodd;stroke-width:1.96189;stroke-linecap:round;stroke-linejoin:round;stroke-miterlimit:29" transform="translate(-.685 -.397)"/><ellipse cx="13.296" cy="20.867" rx="1.014" ry="2.891" style="fill:#635d58;fill-opacity:1;fill-rule:evenodd;stroke:none;stroke-width:.527287;stroke-linecap:square;stroke-linejoin:miter;stroke-miterlimit:29;stroke-dasharray:none;stroke-opacity:1"/><path d="M10.363 23.105s-.22-2.22 2.922-2.22c3.141 0 2.943 2.242 2.943 2.242s-.406.678-2.933.678c-2.455.07-2.932-.7-2.932-.7" style="fill:#333;fill-opacity:1;fill-rule:evenodd;stroke:none;stroke-width:.702923;stroke-linecap:square;stroke-linejoin:miter;stroke-miterlimit:29;stroke-dasharray:none;stroke-opacity:1"/><path d="M7.342 20.74s.78-.965 3.604-.965v.21s-2.49-.095-3.531.946z" style="fill:#333;fill-opacity:1;fill-rule:evenodd;stroke:none;stroke-width:.257104;stroke-linecap:square;stroke-linejoin:miter;stroke-miterlimit:29;stroke-dasharray:none;stroke-opacity:1" transform="translate(0 .364)"/><path d="M8.07 20.016s.665-.966 3.074-.966v.21s-2.124-.095-3.012.946z" style="fill:#333;fill-opacity:1;fill-rule:evenodd;stroke:none;stroke-width:.237477;stroke-linecap:square;stroke-linejoin:miter;stroke-miterlimit:29;stroke-dasharray:none;stroke-opacity:1" transform="translate(0 .364)"/><path d="M8.202 21.051s.467-.579 2.16-.579v.126s-1.492-.057-2.117.568z" style="fill:#333;fill-opacity:1;fill-rule:evenodd;stroke:none;stroke-width:.154162;stroke-linecap:square;stroke-linejoin:miter;stroke-miterlimit:29;stroke-dasharray:none;stroke-opacity:1" transform="translate(0 .364)"/><path d="M7.342 20.74s.78-.965 3.604-.965v.21s-2.49-.095-3.531.946z" style="fill:#333;fill-opacity:1;fill-rule:evenodd;stroke:none;stroke-width:.257104;stroke-linecap:square;stroke-linejoin:miter;stroke-miterlimit:29;stroke-dasharray:none;stroke-opacity:1" transform="matrix(-1 0 0 1 26.788 .364)"/><path d="M8.07 20.016s.665-.966 3.074-.966v.21s-2.124-.095-3.012.946z" style="fill:#333;fill-opacity:1;fill-rule:evenodd;stroke:none;stroke-width:.237477;stroke-linecap:square;stroke-linejoin:miter;stroke-miterlimit:29;stroke-dasharray:none;stroke-opacity:1" transform="matrix(-1 0 0 1 26.788 .364)"/><path d="M8.202 21.051s.467-.579 2.16-.579v.126s-1.492-.057-2.117.568z" style="fill:#333;fill-opacity:1;fill-rule:evenodd;stroke:none;stroke-width:.154162;stroke-linecap:square;stroke-linejoin:miter;stroke-miterlimit:29;stroke-dasharray:none;stroke-opacity:1" transform="matrix(-1 0 0 1 26.788 .364)"/></g></svg>