<svg xmlns="http://www.w3.org/2000/svg" width="177.133" height="116.383" viewBox="0 0 46.866 30.793"><path d="m447.445 635.34 3.614.06-2.103 2.386-3.793-1.179zM467.542 637.754l-1.42-.353 1.394-3.095.241 1.879 1.65.706zM459.389 628.58l-1.046-.775 1.767-1.109.94.232-1.465 4.876zM460.348 608.81l1.14 1.324-.72 2.365-2.175-1.325z" style="fill:#23301d;fill-opacity:1;stroke:#252f1d;stroke-width:1.32292;stroke-linecap:square;stroke-opacity:1" transform="translate(-437.227 -607.751)"/><path d="m459.095 618.455.564 4.257 2.254.95.74 4.826 3.019 3.074 4.737-2.376.835 1.666a1.826 1.826 0 0 0 2.45.813l8.641-4.336a1.99 1.99 0 0 0 .887-2.674l-6.444-12.844a1.99 1.99 0 0 0-2.674-.887zM441.793 613.644a1.99 1.99 0 0 0-2.211 1.746l-1.68 14.272a1.99 1.99 0 0 0 1.746 2.211l9.6 1.13a1.826 1.826 0 0 0 2.026-1.6l.218-1.85 5.368.63-.673-4.523 1.358-4.107-1.451-2.385 2.48-3.549z" style="fill:#3e5130;fill-opacity:1;stroke:#252f1d;stroke-width:1.32292;stroke-linecap:square;stroke-linejoin:miter;stroke-miterlimit:5;stroke-dasharray:none;stroke-opacity:1" transform="translate(-437.227 -607.751)"/><path d="m442.281 616.969 1.406.386 1.619-.719 1.482 13.496-1.288-.987-1.736 1.32zM473.772 612.894l1.2.828 1.766-.146-3.04 13.232-.892-1.356-2.074.675z" style="fill:#4f683d;fill-opacity:1;stroke:#232f1d;stroke-width:1.32292;stroke-linecap:square;stroke-dasharray:none;stroke-opacity:1" transform="translate(-437.227 -607.751)"/><path d="M436.744 638.638h3.463a.986.986 45 0 1 .986.986v1.428l-2.68-.888-2.777.888v-1.405a1.01 1.01 135 0 1 1.008-1.009" style="fill:#595959;fill-opacity:1;stroke-width:1.32292;stroke-linecap:square" transform="rotate(-169.884 201.297 351.563)"/><path d="M436.744 638.638h3.463a.986.986 45 0 1 .986.986v1.428l-2.68-.888-2.777.888v-1.405a1.01 1.01 135 0 1 1.008-1.009" style="fill:#595959;fill-opacity:1;stroke-width:1.32292;stroke-linecap:square" transform="rotate(50.105 907.527 -131.837)"/></svg>