<svg xmlns="http://www.w3.org/2000/svg" width="219.409" height="67.556" viewBox="0 0 58.052 17.874"><path d="m53.08 10.941 4.707-1.261-1.654-1.323-.941-6.457-.809-.747.882-.888-4.708 1.26 2.13.864-.539 2.706 1.775 1.87z" style="fill:#666;fill-opacity:1;stroke:#292929;stroke-width:.529167;stroke-linecap:round;stroke-linejoin:round;stroke-opacity:1"/><path d="M32.282 16.838h1.022L35.4 15.39l2.276 1.448h.832V15.09l-.49-1.59.49-1.39v-1.5l-.001.15-2.161 1.293-1.005-1.444h-3.06l2.474.654-2.065 1.06 1.731 2.003z" style="fill:#666;fill-opacity:1;stroke:#292929;stroke-width:.529167;stroke-linecap:round;stroke-linejoin:round;stroke-miterlimit:4;stroke-dasharray:none;stroke-opacity:1"/><path d="m26.31 7.191-2.75-1.868L22.322.285l-.838 4.418-3.665-.561-.466 1.072-1.937-.942 3.988 6.907.954-2.269 1.474.32 1.579-2.097z" style="fill:#666;fill-opacity:1;stroke:#292929;stroke-width:.529167;stroke-linecap:round;stroke-linejoin:round;stroke-opacity:1"/><path d="m6.603 17.61 1.77-2.441 1.89-1.675 3.126.198-4.192-3.358-1.291-3.4-1.787-1.386.93-2.835L.266 6.631l2.193.624.67 2.242 3.232 2.299z" style="fill:#666;fill-opacity:1;stroke:#292929;stroke-width:.529167;stroke-linecap:round;stroke-linejoin:round;stroke-miterlimit:4;stroke-dasharray:none;stroke-opacity:1"/><path d="m35.506 1.187-1.423 5.311 2.815-.727 2.053 1.381 2.829 1.409-.071-2.692 1.494-2.62-1.446 1.287-2.403-2.318-2.526.666z" style="fill:#666;fill-opacity:1;stroke:#292929;stroke-width:.529;stroke-linecap:round;stroke-linejoin:round;stroke-opacity:1"/></svg>