<svg xmlns="http://www.w3.org/2000/svg" width="69.716" height="65.612" viewBox="0 0 18.446 17.36"><path d="M-2734.229-441.971c1.056-1.061 2.983-2.87 4.765-2.628 1.329.185 1.692-.27 2.116-.58l3.13-2.715c.33-.637.956-.116.65.315.661.939.818 1.748.172 2.52l-1.381 2.183c-.496.696-.24 1.71 1.586.818l.653-.343.244-.525.264.27.252-.138c.38 1.261-.247 1.395-.975 1.989-1.775 1.132-4.174 2.886-2.805 6.472l-.304-.157c-.149 1.143-.05 1.674.712 2.572-8.74-1.724-13.01-1.622-13.021-1.62.578-.693 1.067-1.228.905-2.303 0 0-.413.414-.634.45.882-.978 1.262-2.088.963-3.503-1.162-.766-1.825-1.617-2.127-2.56 2.084-.09 3.487-.248 4.835-.517" style="fill:#666;fill-opacity:1;stroke:none;stroke-width:.79375;stroke-dasharray:none;stroke-opacity:1" transform="matrix(1.01879 0 0 1.01879 2790.899 456.885)"/><path d="m-2723.762-447.94.783 1.801-1.21 1.893c.566-.884-1.167-2.234-2.351-1.345z" style="fill:#404040;fill-opacity:1;stroke:none;stroke-width:.79375;stroke-linecap:round;stroke-linejoin:round;stroke-dasharray:none;stroke-opacity:1" transform="matrix(1.01879 0 0 1.01879 2790.899 456.885)"/><path d="M-2730.737-433.274c.142-.846.237-1.755.567-2.34-.093 1.059.137 1.864.343 2.688l.29.02c-.159-1.164.067-5.06 2.277-6.956-.764 1.297-.876 2.324-.963 3.347.578-1.348 1.452-2.548 3.208-3.307-2.567 2.36-2.719 4.789-1.902 7.243l-.944-.062a6.6 6.6 0 0 1-.401-1.982c-.096.663-.015 1.342.125 2.027l-1.74.017z" style="fill:#4d4d4d;fill-opacity:1;stroke:none;stroke-width:.79375;stroke-linecap:round;stroke-linejoin:round;stroke-dasharray:none;stroke-opacity:1" transform="matrix(1.01879 0 0 1.01879 2790.899 456.885)"/><path d="M-2738.495-441.204c2.123 1.974 4.265 1.942 6.42.678l-1.065 1.18-1.8.983-1.942-.514-2-1.813z" style="fill:#404040;fill-opacity:1;stroke:none;stroke-width:.79375;stroke-linecap:round;stroke-linejoin:round;stroke-dasharray:none;stroke-opacity:1" transform="matrix(1.01879 0 0 1.01879 2790.899 456.885)"/><path d="M-2736.537-437.825c.632.254 1.263.51 2.35-.088-.81 1.565-.646 2.972-.011 4.303l.555.1c-.152-.813-.127-1.48.017-2.058.082.08.236.152.474.216-.758-1.559-.444-2.471-.17-3.409l-3.344.223z" style="fill:#4d4d4d;fill-opacity:1;stroke:none;stroke-width:.79375;stroke-linecap:round;stroke-linejoin:round;stroke-dasharray:none;stroke-opacity:1" transform="matrix(1.01879 0 0 1.01879 2790.899 456.885)"/><path d="M-2734.193-441.939c1.056-1.06 2.983-2.87 4.765-2.628 1.329.185 1.692-.269 2.116-.579l3.13-2.715c.33-.638.956-.116.65.314.661.939.818 1.749.172 2.52l-1.381 2.184c-.496.695-.24 1.709 1.586.817l.653-.343.244-.525.264.27.252-.138c.38 1.262-.247 1.395-.975 1.989-1.775 1.132-4.174 2.886-2.805 6.472l-.304-.157c-.149 1.143-.05 1.674.712 2.572-8.74-1.724-13.01-1.621-13.021-1.62.578-.693 1.067-1.227.905-2.303 0 0-.413.415-.634.451.882-.98 1.262-2.089.963-3.503-1.162-.767-1.824-1.617-2.127-2.56 2.084-.091 3.487-.248 4.835-.518z" style="fill:none;fill-opacity:1;stroke:#171717;stroke-width:.605717;stroke-dasharray:none;stroke-opacity:1" transform="matrix(1.01879 0 0 1.01879 2790.899 456.885)"/><path d="M-2730.78-441.048c-.314-2.427.483-3.07 3.161-3.062-.733.543-2.781 2.189-3.161 3.062z" style="fill:#b81414;fill-opacity:1;stroke:#171717;stroke-width:.605717;stroke-linejoin:round;stroke-dasharray:none;stroke-opacity:1" transform="matrix(1.01879 0 0 1.01879 2790.899 456.885)"/><path d="M-2737.12-439.012c2.397 1.346 3.66.157 5.019-1.199" style="fill:none;fill-opacity:1;stroke:#171717;stroke-width:.605717;stroke-linecap:round;stroke-linejoin:round;stroke-dasharray:none;stroke-opacity:1" transform="matrix(1.01879 0 0 1.01879 2790.899 456.885)"/><path d="M-2732.407-433.828c.575-1.573.913-3.551 2.315-5.506-2.123 1.37-2.962 3.668-2.315 5.506" style="fill:#4d4d4d;fill-opacity:1;stroke:none;stroke-width:.79375;stroke-linecap:round;stroke-linejoin:round;stroke-dasharray:none;stroke-opacity:1" transform="matrix(1.01879 0 0 1.01879 2790.899 456.885)"/></svg>