<?xml version="1.0" encoding="UTF-8" standalone="no"?>
<!-- Created with Inkscape (http://www.inkscape.org/) -->

<svg
   width="81.674507"
   height="56.552441"
   viewBox="0 0 21.609711 14.962831"
   version="1.1"
   id="svg1"
   inkscape:export-filename="perk_berserker.svg"
   inkscape:export-xdpi="96"
   inkscape:export-ydpi="96"
   sodipodi:docname="perk_sabot_rounds.svg"
   xml:space="preserve"
   xmlns:inkscape="http://www.inkscape.org/namespaces/inkscape"
   xmlns:sodipodi="http://sodipodi.sourceforge.net/DTD/sodipodi-0.dtd"
   xmlns="http://www.w3.org/2000/svg"
   xmlns:svg="http://www.w3.org/2000/svg"><sodipodi:namedview
     id="namedview1"
     pagecolor="#505050"
     bordercolor="#ffffff"
     borderopacity="1"
     inkscape:showpageshadow="0"
     inkscape:pageopacity="0"
     inkscape:pagecheckerboard="1"
     inkscape:deskcolor="#505050"
     inkscape:document-units="mm" /><defs
     id="defs1" /><g
     inkscape:label="Layer 1"
     inkscape:groupmode="layer"
     id="layer1"
     transform="translate(-146.04457,-139.47398)"><g
       id="g114"
       transform="matrix(0.85313851,0,0,0.85313851,2446.3742,621.45081)"><path
         style="fill:#8f3d3d;fill-opacity:1;stroke:#200e0e;stroke-width:0.79375;stroke-linecap:round;stroke-linejoin:miter;stroke-dasharray:none;stroke-opacity:1"
         d="m -2687.9827,-554.49848 -1.3886,-4.21174 6.3551,-2.09543 2.3515,0.22344 0.8456,2.56448 -1.7297,1.40721 z"
         id="path94-2-0-0-4"
         sodipodi:nodetypes="ccccccc" /><g
         id="g104"
         style="stroke-width:0.702367;stroke-dasharray:none"
         transform="matrix(1.1301077,0,0,1.1301077,284.29076,-5.7124262)"><path
           style="fill:#4d4d4d;fill-opacity:1;stroke:none;stroke-width:0.702367;stroke-linecap:round;stroke-linejoin:miter;stroke-dasharray:none;stroke-opacity:1"
           d="m -2632.7026,-489.48519 v 3.91232 h 8.9664 l 7.3027,-1.96897 -7.0723,-1.92207 z"
           id="path92-5-4"
           sodipodi:nodetypes="cccccc" /><path
           style="fill:#666666;fill-opacity:1;stroke:none;stroke-width:0.702367;stroke-linecap:round;stroke-linejoin:miter;stroke-dasharray:none;stroke-opacity:1"
           d="m -2632.627,-488.58515 8.9484,0.0204 6.3507,1.1863 -0.1433,-0.42952 -6.136,-1.59536 -9.1017,0.0614 z"
           id="path95"
           sodipodi:nodetypes="ccccccc" /><path
           style="fill:#333333;fill-opacity:1;stroke:none;stroke-width:0.702367;stroke-linecap:round;stroke-linejoin:miter;stroke-dasharray:none;stroke-opacity:1"
           d="m -2632.6151,-486.42191 8.9484,-0.0204 6.3507,-1.1863 -0.1433,0.42952 -6.136,1.59536 -9.1017,-0.0614 z"
           id="path95-3"
           sodipodi:nodetypes="ccccccc" /><path
           style="fill:none;fill-opacity:1;stroke:#171717;stroke-width:0.702367;stroke-linecap:round;stroke-linejoin:miter;stroke-dasharray:none;stroke-opacity:1"
           d="m -2632.798,-489.43566 v 3.91232 h 8.9664 l 7.427,-1.98058 -7.1966,-1.91046 z"
           id="path92-7"
           sodipodi:nodetypes="cccccc" /></g><path
         style="fill:#8f3d3d;fill-opacity:1;stroke:none;stroke-width:0.79375;stroke-linecap:round;stroke-linejoin:miter;stroke-dasharray:none;stroke-opacity:1"
         d="m -2695.3772,-552.25305 h 2.453 l -0.1634,-0.52911 0.1634,-0.58038 h -0.4653 v -1.1904 h 0.4768 v -0.77078 l 0.286,-0.89893 -0.286,-1.00374 0.3923,-0.82683 -0.3923,-0.93205 h -0.4536 v -1.19603 h 0.4536 l 0.188,-0.56875 -0.188,-0.56385 h -2.453 v 1.71478 l -0.5984,0.24271 -0.011,5.30478 0.5976,0.31212 z"
         id="path93-0-5"
         sodipodi:nodetypes="ccccccccccccccccccccccc"
         inkscape:transform-center-x="7.5536893"
         inkscape:transform-center-y="1.7789075" /><path
         style="fill:#6b2e2e;fill-opacity:1;stroke:none;stroke-width:0.79375;stroke-linecap:round;stroke-linejoin:miter;stroke-dasharray:none;stroke-opacity:1"
         d="m -2694.9341,-559.4682 v 6.01647 l -1.0702,-0.57851 v -5.29333 z"
         id="path105-0" /><path
         style="fill:none;fill-opacity:1;stroke:#200e0e;stroke-width:0.79375;stroke-linecap:round;stroke-linejoin:miter;stroke-dasharray:none;stroke-opacity:1"
         d="m -2695.3191,-552.06824 h 2.453 l -0.1634,-0.52912 0.1634,-0.58038 h -0.4653 v -1.19039 h 0.4768 v -0.77078 l 0.286,-0.89894 -0.286,-1.00374 0.3923,-0.82683 -0.3923,-0.97543 h -0.4536 v -1.15264 h 0.4536 l 0.1879,-0.56875 -0.1879,-0.56385 h -2.453 v 1.71478 l -0.5984,0.24271 -0.011,5.30478 0.5976,0.31211 z"
         id="path93-0"
         sodipodi:nodetypes="ccccccccccccccccccccccc" /><path
         style="fill:#8f3d3d;fill-opacity:1;stroke:#200e0e;stroke-width:0.79375;stroke-linecap:round;stroke-linejoin:miter;stroke-dasharray:none;stroke-opacity:1"
         d="m -2689.3775,-552.43231 -0.5896,0.31087 v 0.7335 l 5.8142,3.31241 2.3493,0.24674 0.1312,-0.23025 z"
         id="path94-3"
         sodipodi:nodetypes="ccccccc" /><path
         style="fill:#8f3d3d;fill-opacity:1;stroke:#200e0e;stroke-width:0.79375;stroke-linecap:round;stroke-linejoin:miter;stroke-dasharray:none;stroke-opacity:1"
         d="m -2689.5453,-560.76579 -0.024,-0.61018 -0.4582,-0.49105 6.1307,-2.68161 2.3622,0.002 0.1062,0.24279 z"
         id="path94-2-4"
         sodipodi:nodetypes="ccccccc" /><path
         style="fill:#8f3d3d;fill-opacity:1;stroke:#200e0e;stroke-width:0.79375;stroke-linecap:round;stroke-linejoin:miter;stroke-dasharray:none;stroke-opacity:1"
         d="m -2690.6984,-554.93608 0.9517,-1.17104 -0.021,-1.11592 0.8278,-0.64754 -0.087,-1.17383 6.1991,2.5197 1.6469,1.69332 -1.0167,2.50157 -2.2293,-0.0481 z"
         id="path94-2-0-0"
         sodipodi:nodetypes="cccccccccc" /></g></g></svg>
