<svg xmlns="http://www.w3.org/2000/svg" width="254.842" height="291.706" viewBox="0 0 67.427 77.18"><path d="M565.831 111.611h13.062v54.8h-13.062z" style="fill:#775b3c;fill-opacity:1;stroke:#3b2b1e;stroke-width:2.01371;stroke-dasharray:none;stroke-opacity:1" transform="matrix(1.00292 0 0 .99994 -514.172 -100.044)"/><path d="M552.793 111.611h13.038v54.8h-13.038z" style="fill:#684e34;fill-opacity:1;stroke:#3b2b1e;stroke-width:2.01371;stroke-dasharray:none;stroke-opacity:1" transform="matrix(1.00292 0 0 .99994 -514.172 -100.044)"/><path d="M539.755 111.611h13.038v54.8h-13.038z" style="fill:#58422c;fill-opacity:1;stroke:#3b2b1e;stroke-width:2.01371;stroke-dasharray:none;stroke-opacity:1" transform="matrix(1.00292 0 0 .99994 -514.172 -100.044)"/><path d="M526.717 111.611h13.038v54.8h-13.038z" style="fill:#4d3926;fill-opacity:1;stroke:#3b2b1e;stroke-width:2.01371;stroke-dasharray:none;stroke-opacity:1" transform="matrix(1.00292 0 0 .99994 -514.172 -100.044)"/><path d="M513.679 111.611h13.038v54.8h-13.038z" style="fill:#473422;fill-opacity:1;stroke:#3b2b1e;stroke-width:2.01371;stroke-dasharray:none;stroke-opacity:1" transform="matrix(1.00292 0 0 .99994 -514.172 -100.044)"/><path d="m1329.7 156.511 69.102.036" style="fill:#d9dc76;fill-opacity:1;stroke:#261b12;stroke-width:10.5833;stroke-dasharray:none;stroke-opacity:1" transform="matrix(1.00292 0 0 .99994 -1335.47 -151.208)"/><path d="M1329.048 223.109h69.734" style="fill:#d9dc76;fill-opacity:1;stroke:#261b12;stroke-width:10.603;stroke-dasharray:none;stroke-opacity:1" transform="matrix(1.00292 0 0 .99994 -1335.47 -151.208)"/><path d="M1337.225 156.511h59.165" style="fill:#d9dc76;fill-opacity:1;stroke:#4f3924;stroke-width:6.08542;stroke-dasharray:none;stroke-opacity:1" transform="matrix(1.00292 0 0 .99994 -1335.47 -151.208)"/><path d="M1336.285 223.109h60.087" style="fill:#d9dc76;fill-opacity:1;stroke:#4f3924;stroke-width:6.14447;stroke-dasharray:none;stroke-opacity:1" transform="matrix(1.00292 0 0 .99994 -1335.47 -151.208)"/></svg>