<svg xmlns="http://www.w3.org/2000/svg" width="250" height="250" viewBox="0 0 66.146 66.146"><path d="M127.129 82.976V148H62.106V82.976Z" style="baseline-shift:baseline;display:inline;overflow:visible;vector-effect:none;fill:#4b4b4b;stroke-width:.558533;stop-color:#000" transform="translate(-61.545 -82.414)"/><path d="m67.202 82.976-5.096 5.096v3.385l8.481-8.48zm14.629 0-19.725 19.725v3.386l23.11-23.11zm14.63 0L62.106 117.33v3.386l37.74-37.74zm14.629 0L62.106 131.96v3.385l52.37-52.369Zm14.63 0L62.105 146.59v1.41h1.976l63.047-63.047v-1.976zm1.409 13.22-51.803 51.803h3.385L127.13 99.58Zm0 14.63-37.174 37.173h3.386l33.788-33.788Zm0 14.628L104.585 148h3.385l19.159-19.159zm0 14.63-7.915 7.915h3.386l4.529-4.53z" style="fill:#606060;stroke:#262626;stroke-width:.561561" transform="translate(-61.545 -82.414)"/><path d="M127.69 82.414H61.546v66.146h66.146zm-1.123 1.124v63.9h-63.9v-63.9Z" style="baseline-shift:baseline;display:inline;overflow:visible;vector-effect:none;fill:#262626;stroke-width:.558533;stop-color:#000" transform="translate(-61.545 -82.414)"/></svg>