<svg xmlns="http://www.w3.org/2000/svg" width="273.124" height="214.255" viewBox="0 0 72.264 56.688"><g transform="matrix(.88178 0 0 1.00295 -55.787 -106.067)"><path d="m100.295 152.334.03-.095 7.464 1.758 3.525-3.097-9.568-8.412-3.158 1.603-3.836 3.371z" style="fill:#ececec;fill-opacity:1;stroke:#5e5e5e;stroke-width:.984716;stroke-linecap:round;stroke-linejoin:round;stroke-miterlimit:4;stroke-dasharray:none;stroke-opacity:1"/><path d="m85.29 147.683 5.95-2.932-1.564 3.22 5.906-3.878-2.6 4.256 5.605-4.258-7.35 8.82 20.848-18.33-2.549.123-2.68.126.587-1.943-3.16.223 1.856-3.758zm33.452-3.282-.33-6.122 3.089 4.576-1.79-7.343 2.41 3.027-1.01-5.254 3.59 6.75.275-.807 1.889 3.259-7.631-25.039s1.883 9.53 1.928 9.674c.043.144-4.037-7.154-4.037-7.154l.234 5.498-2.262-4.325-.17 4.822-3.815-6.602z" style="fill:#785a2e;fill-opacity:1;stroke:#302412;stroke-width:.562695;stroke-linecap:square;stroke-miterlimit:4;stroke-dasharray:none;stroke-opacity:1"/><path d="m112.085 134.581 6.586-3.795-2.466 3.972 7.658-5.682-3.518 4.612 2.69-1.412-2.779 3.946-2.226 3.586 20.85-18.33-3.398-.246-2.341.316.33-1.935-2.872.937 2.335-4.3z" style="fill:#785a2e;fill-opacity:1;stroke:#302412;stroke-width:.562695;stroke-linecap:square;stroke-miterlimit:4;stroke-dasharray:none;stroke-opacity:1"/><path d="M70.522 126.42a3.528 3.102 0 0 0 3.53 3.101 3.528 3.102 0 0 0 3.51-2.809 3.528 3.102 0 0 0 3.449-3.099 3.528 3.102 0 0 0-3.528-3.102 3.528 3.102 0 0 0-3.513 2.807 3.528 3.102 0 0 0-3.447 3.101z" style="fill:#f1df9f;fill-opacity:1;stroke:#46390a;stroke-width:.984716;stroke-linecap:square;stroke-miterlimit:4;stroke-dasharray:none;stroke-opacity:1"/><ellipse cx="-150.047" cy="115.793" rx="3.102" ry="3.528" style="fill:#f1df9f;fill-opacity:1;stroke:#46390a;stroke-width:.984716;stroke-linecap:square;stroke-miterlimit:4;stroke-dasharray:none;stroke-opacity:1" transform="rotate(-90)"/><path d="M117.638 111.89a1.26 1.108 0 0 0 1.226 1.106 3.528 3.102 0 0 0-.182.985 3.528 3.102 0 0 0 3.528 3.102 3.528 3.102 0 0 0 3.529-3.102 3.528 3.102 0 0 0-3.529-3.102 3.528 3.102 0 0 0-2.131.63 1.26 1.108 0 0 0-1.183-.727 1.26 1.108 0 0 0-1.258 1.108z" style="fill:#f1df9f;fill-opacity:1;stroke:#46390a;stroke-width:.984716;stroke-linecap:square;stroke-miterlimit:4;stroke-dasharray:none;stroke-opacity:1"/><path d="M78.055 146.761a3.07 4.366 0 0 0 1.638 3.862 3.708 3.26 0 0 0-.091.719 3.708 3.26 0 0 0 3.707 3.259 3.708 3.26 0 0 0 3.708-3.26 3.708 3.26 0 0 0-2.985-3.193 3.07 4.366 0 0 0 .161-1.387 3.07 4.366 0 0 0-3.07-4.366 3.07 4.366 0 0 0-3.068 4.366z" style="fill:#f1df9f;fill-opacity:1;stroke:#46390a;stroke-width:.562695;stroke-linecap:square;stroke-miterlimit:4;stroke-dasharray:none;stroke-opacity:1"/><ellipse cx="-141.169" cy="132.126" rx="4.018" ry="4.57" style="fill:#f1df9f;fill-opacity:1;stroke:#46390a;stroke-width:.984716;stroke-linecap:square;stroke-miterlimit:4;stroke-dasharray:none;stroke-opacity:1" transform="rotate(-90)"/><path d="M96.721 137.226a2.924 2.57 0 0 0 1.284 2.125 5.212 4.582 0 0 0-.614 2.137 5.212 4.582 0 0 0 5.213 4.582 5.212 4.582 0 0 0 5.211-4.582 5.212 4.582 0 0 0-1.994-3.6 1.84 3.234 0 0 0 .095-1.016 1.84 3.234 0 0 0-1.84-3.234 1.84 3.234 0 0 0-1.784 2.498 2.924 2.57 0 0 0-2.647-1.481 2.924 2.57 0 0 0-2.923 2.57z" style="fill:#f1df9f;fill-opacity:1;stroke:#46390a;stroke-width:.984716;stroke-linecap:square;stroke-miterlimit:4;stroke-dasharray:none;stroke-opacity:1"/><g transform="matrix(-.25882 -.84923 1.09866 -.25881 -6.973 276.524)"><rect width="30.006" height="18.466" x="104.854" y="95.088" rx="3.001" ry="2.638" style="display:inline;fill:#ccc;stroke-width:.103987"/><rect width="25.505" height="14.509" x="107.105" y="97.066" rx="1.5" ry="1.319" style="display:inline;fill:#e6e6e6;stroke-width:.104565"/></g><g transform="matrix(.7071 -.62167 .80427 .7071 -76.648 121.267)"><rect width="30.006" height="18.466" x="104.854" y="95.088" rx="3.001" ry="2.638" style="display:inline;fill:#ccc;stroke-width:.103987"/><rect width="25.505" height="14.509" x="107.105" y="97.066" rx="1.5" ry="1.319" style="display:inline;fill:#e6e6e6;stroke-width:.104565"/></g><path d="m125.52 127.807-12.326 10.837-6.918-6.083 4.795 15.734 7.671-3.895 9.334-8.205z" style="fill:#1e6065;fill-opacity:1;stroke:#0d2a2b;stroke-width:.984716;stroke-linecap:square;stroke-linejoin:round;stroke-miterlimit:4;stroke-dasharray:none;stroke-opacity:1"/><path d="m142.448 125.651 2.278-3.468-2.844-9.328.341-.082-6.356-3.227-4.175 6.358h2.795v5.705z" style="fill:#1e6065;fill-opacity:1;stroke:#0d2a2b;stroke-width:.984716;stroke-linecap:round;stroke-linejoin:round;stroke-miterlimit:4;stroke-dasharray:none;stroke-opacity:1"/><path d="m123.061 158.337 2.756 2.424 1.911-1.681 6.093-9.279-2.375-2.088h-3.44l-4.945 4.348z" style="fill:#ececec;fill-opacity:1;stroke:#5e5e5e;stroke-width:.984716;stroke-linecap:round;stroke-linejoin:round;stroke-miterlimit:4;stroke-dasharray:none;stroke-opacity:1"/></g></svg>