<svg width="35" height="17" viewBox="0 0 35 17" fill="none" xmlns="http://www.w3.org/2000/svg">
<path d="M19.846 5.04493V5.26885L1.87302 5.24048V3.82394C1.86325 3.52114 2.10745 3.28671 2.40048 3.28671H2.86794L3.03539 2.896H3.41634V3.28671L18.7129 3.28671L18.7617 2.99367H19.1231L19.4019 3.28795C19.6201 3.30363 19.7985 3.46651 19.8379 3.67742H20.2269V5.04493H19.846Z" fill="#D9D9D9"/>
<path fill-rule="evenodd" clip-rule="evenodd" d="M1.66788 6.02173C1.66788 5.84228 2.2427 5.66939 2.3686 5.63178L19.9827 5.65959V5.92404H19.8459V6.53943C19.8459 6.96922 19.5529 7.0962 19.4748 7.11574H19.1622C19.1036 7.11574 19.0645 7.0669 19.0645 7.01806C19.0645 6.95945 19.0157 6.92038 18.9668 6.92038H18.6738C18.6152 6.92038 18.5761 6.96922 18.5761 7.01806C18.5761 7.07666 18.5273 7.11574 18.4784 7.11574H14.6885C14.6787 7.11574 14.6592 7.11574 14.6494 7.1255C14.5322 7.18411 13.9852 7.47715 13.9852 8.48324C13.9852 9.46578 14.1545 9.79942 14.1806 9.85075L14.2978 10.007C14.3955 10.1438 13.995 10.1536 13.995 10.1536H9.91199C9.77524 10.0852 8.96451 9.69446 8.42727 10.0559C7.98772 10.3489 8.03656 11.0717 8.09516 11.4234C8.1147 11.5308 8.06586 11.6383 7.96818 11.6969C7.63607 11.8825 7.46025 12.1657 7.44071 12.2048C7.41141 12.2634 7.16721 12.8886 7.44071 13.1035C7.69468 13.2891 7.47431 13.2803 7.42118 13.2695C7.32357 13.2496 6.93278 13.4453 6.75696 14.0412C6.62021 14.5393 6.84487 15.0863 6.97185 15.3501C7.00116 15.4087 6.94255 15.4868 6.87418 15.4771L6.16112 15.396V15.692C6.16112 15.985 5.77041 16.0827 5.77041 16.0827C5.77041 16.0827 2.64468 15.8873 2.15628 15.7896C1.66789 15.692 2.11721 15.4771 2.11721 15.4771L2.46441 14.9756L1.89255 14.9105C1.88766 14.9056 1.88034 14.9032 1.87301 14.9008C1.86568 14.8983 1.85836 14.8959 1.85347 14.891L1.2967 14.5198C1.29182 14.5198 1.28938 14.5174 1.28694 14.5149C1.28449 14.5125 1.28205 14.51 1.27717 14.51C1.16972 14.471 0.24177 14.0119 2.45908 10.515C4.735 6.91061 2.56838 6.33905 2.45908 6.31477C2.4506 6.31288 2.43158 6.30975 2.40509 6.30538C2.22061 6.27498 1.66788 6.1839 1.66788 6.02173ZM9.59941 8.04369L9.70686 7.83856C9.71663 7.81903 9.71663 7.79949 9.71663 7.77996C9.71663 7.74864 9.71746 7.69283 9.72059 7.62729C9.71796 7.61852 9.71663 7.61389 9.71663 7.61389L9.7218 7.60355L9.7223 7.5946L9.72265 7.58857L9.72344 7.57567C9.09149 7.86826 9.09149 8.21951 9.09149 8.21951V8.65906C9.09149 9.24514 10.0683 9.77261 10.0683 9.77261H12.7056C12.7056 9.77261 13.487 9.83121 13.487 8.46371C13.487 7.0962 12.7056 7.19388 12.7056 7.19388C11.7955 7.16928 11.1145 7.22211 10.6051 7.31494C10.6062 7.37387 10.6033 7.44066 10.5957 7.51621C10.5396 8.07779 10.6771 8.47793 10.8042 8.71665C11.0661 8.84071 11.8455 9.22561 11.4358 9.22561C11.356 9.22561 11.266 9.20102 11.1716 9.15984C11.2269 9.24729 11.1978 9.32417 10.8497 9.27444C10.4693 9.2201 10.1615 8.71233 9.96324 8.27244L9.69709 8.22928C9.60918 8.21951 9.56034 8.12183 9.59941 8.04369Z" fill="#D9D9D9"/>
<path d="M21.0352 3.49394L32.4884 0.0827637L29.4931 2.32237L34.0308 4.02139L29.4931 5.77069L32.4884 9.29902L21.0352 5.08727L21.318 4.60263L21.0352 4.24172L21.4185 3.83561L21.0352 3.49394Z" fill="#D9D9D9"/>
</svg>
