<svg width="93" height="17" viewBox="0 0 93 17" fill="none" xmlns="http://www.w3.org/2000/svg">
<path d="M87.1839 5.15108L91.5475 5.75356L90.1484 4.68217L92.5564 4.36373L90.4307 3.4612L92.5564 1.97704L90.1484 2.38221L91.8561 0.786774L87.1839 3.07913L87.8885 3.56406L87.1839 4.08019L87.8885 4.68217L87.1839 5.15108Z" fill="#D9D9D9"/>
<path fill-rule="evenodd" clip-rule="evenodd" d="M50.5633 3.30479C50.4622 3.25198 50.3469 3.20806 50.2079 3.17792L47.6147 3.13471C47.491 3.15517 47.3875 3.17737 47.2948 3.20524L42.6019 3.06231C43.0516 3.04 43.3111 3.00318 43.7034 2.91861L82.86 3.12711V3.09149H82.9032V3.04827H82.7735V2.87539H82.9032V2.78895H83.0761V2.87539H83.1625V2.78895H83.3354V2.87539H83.465V3.04827H83.3354V3.09149H83.3786V3.12987L84.2862 3.13471V3.31582H78.7743L78.2139 3.30758C78.1983 3.31016 78.1831 3.31291 78.1681 3.31582H75.9388C75.9267 3.31306 75.9143 3.31032 75.9017 3.30758L73.2437 3.26436C73.1648 3.2774 73.0951 3.2947 73.0316 3.31582H70.7957C70.7836 3.31306 70.7712 3.31032 70.7586 3.30758L68.1006 3.26436C68.0217 3.2774 67.952 3.2947 67.8886 3.31582H65.6527C65.6405 3.31306 65.6282 3.31032 65.6155 3.30758L62.9575 3.26436C62.8787 3.2774 62.8089 3.2947 62.7455 3.31582H60.5902C60.5296 3.29783 60.4624 3.28091 60.386 3.26436L57.9009 3.22114C57.7735 3.2422 57.6653 3.27435 57.5674 3.31582H55.5647C55.4813 3.27873 55.3845 3.24715 55.2645 3.22114L52.7578 3.17792C52.5891 3.20581 52.4541 3.25314 52.332 3.31582H50.9255L50.5633 3.30479ZM83.0761 3.04827H83.1625V3.09149H83.0761V3.04827Z" fill="#D9D9D9"/>
<path d="M41.3696 3.16377V5.13643C41.37 5.17671 41.4028 5.20923 41.4431 5.20923H41.5121C41.5235 5.20922 41.5343 5.20661 41.544 5.20197C41.5674 5.18967 41.5857 5.16396 41.5857 5.13566V4.38806H42.1125V3.34737C41.8013 3.33851 41.6535 3.31061 41.5857 3.24275V3.16506C41.5857 3.12443 41.5527 3.09149 41.5121 3.09149H41.4431C41.4029 3.09149 41.3702 3.12373 41.3696 3.16377Z" fill="#D9D9D9"/>
<path d="M58.7869 4.45289L42.4068 4.38806V3.3508L50.921 3.61012H84.2862V5.16601H63.5077C63.5148 5.07799 63.5194 4.99313 63.5194 4.99313C63.5194 4.95819 63.5071 4.93491 63.5004 4.91677C63.4747 4.87072 63.4208 4.83312 63.3249 4.82026C61.5529 4.58255 60.559 4.51371 58.7869 4.45289Z" fill="#D9D9D9"/>
<path d="M84.5805 5.16601V3.61011L86.3175 3.61012V5.16601L84.5805 5.16601Z" fill="#D9D9D9"/>
<path d="M41.6289 3.09149L42.1125 3.07841V3.32076L41.6289 3.24275V3.09149Z" fill="#D9D9D9"/>
<path d="M65.3153 5.94395C65.2882 5.89471 65.2586 5.84439 65.2266 5.79268L63.4644 5.6653C63.4568 5.74903 63.4498 5.82602 63.4443 5.88579L63.433 6.00878C63.2821 6.7437 63.0984 7.26877 62.8453 7.62402C62.7796 7.71631 62.7092 7.79714 62.6334 7.8672C62.6061 7.89246 62.5795 7.91523 62.5534 7.93573L65.2266 7.78077C65.2515 7.72887 65.275 7.67849 65.297 7.6295C65.614 6.92324 65.6237 6.50385 65.3153 5.94395Z" fill="#D9D9D9"/>
<path d="M65.6179 7.6295C65.7551 7.30219 65.8344 7.00865 65.8351 6.71786C65.8357 6.44613 65.7678 6.19719 65.6463 5.94395H86.1529V7.6295H65.6179Z" fill="#D9D9D9"/>
<path d="M86.4472 7.80238H89.2132C89.3325 7.80238 89.4293 7.70563 89.4293 7.58628V5.98717C89.4293 5.86782 89.3325 5.77107 89.2132 5.77107H86.4472V7.80238Z" fill="#D9D9D9"/>
<path d="M27.5827 2.897H41.0752L41.0752 7.97525H40.462L39.5544 7.35338V7.86721L34.6444 7.30406L34.4761 7.30509C34.2027 7.30509 34.0741 7.44755 33.8711 7.67244C33.6995 7.71129 33.545 7.74261 33.3989 7.76845C33.2988 7.78614 33.2026 7.80127 33.1075 7.8145C32.7816 7.85982 32.4687 7.88285 32.0558 7.91042C32.033 7.80145 31.991 7.71594 31.8613 7.71594L26.3029 7.45295C26.2125 7.44713 26.1205 7.44115 26.0268 7.43501L25.3147 4.67133L25.163 3.82598L27.5827 2.897Z" fill="#D9D9D9"/>
<path d="M32.4314 8.17914C32.2059 8.29902 31.982 8.43885 31.7101 8.62354L29.9381 9.89851C29.6356 10.0066 29.3546 10.0066 29.0737 9.96334C28.3713 9.85528 27.9284 9.72563 27.4746 9.46632C27.338 9.38826 27.0455 9.17602 26.9128 8.88286L26.4312 7.75364L28.1874 7.83673C27.7645 8.27663 27.6895 8.62869 27.9068 9.22861C27.9329 9.30081 27.8479 9.33666 27.8204 9.29344C27.6058 8.95677 27.5165 8.75979 27.6043 8.34262C27.6355 8.21701 27.5032 8.14922 27.4098 8.14813C27.3609 8.14756 27.3035 8.14781 27.2428 8.16439C27.1686 8.30238 27.1701 8.42617 27.1716 8.55531C27.1718 8.57074 27.172 8.58631 27.1721 8.60193C27.1721 8.79462 27.2695 9.04404 27.4746 9.22859C27.6907 9.42307 27.9588 9.51329 28.339 9.59594C28.836 9.704 29.2992 9.76336 29.6355 9.66077C30.0983 9.51961 30.3487 9.14425 30.3487 8.68837C30.3487 8.35689 30.2692 8.11314 29.8246 7.9142L31.7752 8.00649L31.8201 8.22112L32.0754 8.20407C32.2016 8.19564 32.3193 8.18759 32.4314 8.17914Z" fill="#D9D9D9"/>
<path d="M25.7221 7.43035L25.0284 4.73947L25.027 4.73415L24.8886 3.96319C23.2214 4.79194 22.1199 5.23248 20.0841 5.87913C19.3926 6.09877 19.1117 6.052 18.8092 5.87913L18.485 5.64142C18.2838 5.48905 18.1385 5.46214 17.8367 5.49015L7.37768 6.67285C7.00895 6.69983 6.66787 6.72499 6.34483 6.74995C4.9276 6.85947 3.85784 6.96508 2.3256 7.2032C2.20464 7.222 2.08081 7.24162 1.95367 7.26214C1.41884 7.34846 1.11332 7.61833 1.02255 8.0145C0.992306 8.14656 0.985911 8.29266 1.00285 8.45067C1.04452 8.83968 1.10461 9.1959 1.16483 9.53663C1.17299 9.58274 1.18113 9.62856 1.18925 9.67414L1.19395 9.70065C1.20069 9.73851 1.20739 9.77621 1.21402 9.81378C1.22391 9.86977 1.23367 9.92547 1.2432 9.98094C1.24963 10.0184 1.25598 10.0557 1.26217 10.093C1.62954 12.2756 1.87485 13.8979 2.2346 16.4246C2.26381 16.6145 2.42143 16.7353 2.58057 16.7736C2.6274 16.7849 2.67437 16.789 2.71824 16.7856C2.74579 16.7835 2.77212 16.7785 2.79644 16.7704L4.67647 16.0572L8.62598 14.4145L8.95519 14.5878C9.06323 14.631 9.21451 14.6094 9.27934 14.523L9.6379 13.9936L16.8859 10.979C17.09 10.8886 17.2213 10.899 17.3397 10.9358C17.4545 10.9715 17.5663 11.046 17.6638 11.2167C17.6917 11.2654 17.7038 11.3029 17.7133 11.3321C17.7332 11.3936 17.7411 11.4181 17.8583 11.4328L21.0998 11.8002C21.2294 11.8002 21.3591 11.6921 21.3591 11.6057C21.3591 11.6057 21.3477 10.7655 21.6184 9.85529C21.7989 9.24849 22.0965 8.66676 22.6557 8.16974C23.2391 7.65111 23.801 7.49985 24.5789 7.45663C25.0277 7.43169 25.4506 7.42865 25.7221 7.43035Z" fill="#D9D9D9"/>
<path d="M59.0988 4.75849C60.6455 4.81594 61.6082 4.88848 63.2172 5.10278L63.1972 5.35092L63.1713 5.63888C63.1628 5.73312 63.1549 5.81881 63.1492 5.88094L63.1414 5.96536C62.9535 6.87382 62.7262 7.38045 62.4336 7.65115C62.4114 7.67166 62.3908 7.68923 62.3716 7.70434L61.8603 8.10614L44.2653 8.19135L41.3696 7.97525L41.3696 5.49616C41.3696 5.49616 41.4558 5.50357 41.5121 5.50352C41.7152 5.50352 41.88 5.33883 41.88 5.13566V4.68236L58.7813 4.74717C58.8899 4.7509 58.9956 4.75466 59.0988 4.75849Z" fill="#D9D9D9"/>
</svg>
