<svg width="69" height="17" viewBox="0 0 69 17" fill="none" xmlns="http://www.w3.org/2000/svg">
<path d="M15.8386 1.00176H16.2048L16.2365 0.843002L16.2366 0.842561L16.356 0.842566V0.484375H18.2664V0.842566L18.4654 0.842566V0.484375H19.0226V0.842566L19.2215 0.842566V0.484375H19.7787V0.842566L19.9777 0.842566V0.484375H20.5349V0.842566L20.7339 0.842566V0.484375H21.2911V0.842566L21.4901 0.842566V0.484375H22.0473V0.842565L22.2463 0.842565V0.484375H22.8034V0.842565L23.0024 0.842565V0.484375H23.5596V0.842565L23.7586 0.842565V0.484375H24.3158V0.842565L24.5148 0.842565V0.484375H25.072V0.842565L25.271 0.842565V0.484375H25.8282V0.842565L26.0272 0.842565V0.484375H26.5843V0.842565L26.7833 0.842565V0.484375H27.3405V0.842565L27.5395 0.842565V0.484375H28.0967V0.842564L28.2957 0.842564V0.484375H28.8529V0.842564L29.0519 0.842564V0.484375H29.6091V0.842564L29.808 0.842564V0.484375H30.3652V0.842564L30.5642 0.842564V0.484375H31.1214V0.842564L31.3204 0.842564V0.484375H31.8776V0.842564L32.0766 0.842564V0.484375H32.6338V0.842564L32.8328 0.842564V0.484375H33.39V0.842564L33.5889 0.842564V0.484375H34.1461V0.842564L34.3451 0.842564V0.484375H34.9023V0.842563L35.1013 0.842563V0.484375H35.6585V0.842563L35.8575 0.842563V0.484375H36.4147V0.842563L36.6137 0.842563V0.484375H37.1708V0.842563L37.3698 0.842563V0.484375H37.927V0.842563L38.126 0.842563V0.484375H38.6832V0.842563L38.8822 0.842563V0.484375H39.4394V0.842563L39.6384 0.842563V0.484375H40.1956V0.842563L40.3946 0.842563V0.484375H40.9517V0.842562L41.1507 0.842562V0.484375H41.7079V0.842562L41.9069 0.842562V0.484375H42.4641V0.842562L42.6631 0.842562V0.484375H43.2203V0.842562L43.4193 0.842562V0.484375H43.9765V0.842562L44.1754 0.842562V0.484375H44.7326V0.842562L44.9316 0.842562V0.484375H45.4888V0.842562L45.6878 0.842562V0.484375H46.245V0.842562L46.444 0.842562V0.484375H47.0012V0.842562L47.2002 0.842562V0.484375H47.7573V0.842561L47.9564 0.842561V0.484375H48.5135V0.842561L48.7125 0.842561V0.484375H49.2697V0.842561L49.4687 0.842561V0.484375H50.0259V0.842561L50.2249 0.842561V0.484375H50.7821V0.842561L50.9811 0.842561V0.484375H51.5382V0.842561L51.7372 0.842561V0.484375H52.2944V0.842561L52.4934 0.842561V0.484375H53.0506V0.842561L53.2496 0.842561V0.484375H53.8068V0.922164L43.2004 0.922161V1.32015L42.5636 1.97684L33.8477 1.97684C33.7216 1.8309 33.3979 1.6266 33.1114 1.97684V3.90709L33.39 4.06628V4.62347L33.1114 4.92196V5.89154C32.9458 5.92165 32.7742 5.96343 32.6363 6.00346L32.6013 5.97528C32.5915 5.74816 32.4884 5.55575 32.3649 5.41375C32.232 5.26088 32.0451 5.1134 31.9136 5.1134H18.7623C17.838 5.1365 17.2332 4.84373 16.8516 4.47986C16.4694 4.11536 16.302 3.67227 16.2639 3.38028L16.2233 1.48935L16.2143 1.47935L15.6397 1.47935V1.32015H14.9631V0.842561H15.8386V1.00176Z" fill="#D9D9D9"/>
<path fill-rule="evenodd" clip-rule="evenodd" d="M53.6675 5.57865L53.9461 4.66327L53.7421 1.17609H43.4543V1.33032L44.0845 1.35772C44.1399 1.4344 44.2153 1.55811 44.2153 1.63854L43.9168 1.97684H42.9173L42.6711 2.23076L33.7315 2.23076L33.6555 2.14282C33.6165 2.0977 33.551 2.05155 33.4917 2.04011C33.4666 2.03529 33.444 2.03665 33.4204 2.04568C33.4066 2.05098 33.3879 2.06069 33.3653 2.0791V3.75973L33.6439 3.91892V4.72356L33.3653 5.02205V6.25517L36.2356 6.25523C36.3815 6.06288 36.7888 5.65824 37.2505 5.57865H53.6675ZM35.0814 4.79317C35.117 4.76384 35.1619 4.7292 35.2148 4.70308H35.5323C35.5727 4.72356 35.6149 4.7529 35.6585 4.79317L35.0814 5.86775C34.9421 5.90755 34.6556 5.90755 34.6237 5.58915L35.0814 4.79317ZM36.1361 4.82358C36.189 4.78004 36.2623 4.72482 36.3519 4.70308H36.506C36.5702 4.7188 36.6395 4.7556 36.7132 4.82358L36.1361 5.89815C35.9968 5.93795 35.7102 5.93795 35.6784 5.61956L36.1361 4.82358ZM42.1457 2.2776V3.07132H41.5278L41.9252 2.41463C41.9495 2.37249 42.0247 2.2921 42.1457 2.2776ZM41.5073 2.55392C41.4544 2.64181 41.3143 2.87532 41.1998 3.07132H40.3737L40.7712 2.41462C40.7977 2.36819 40.8865 2.27533 41.0298 2.27533H41.4078C41.4743 2.32839 41.567 2.45442 41.5073 2.55392ZM40.3528 2.55477C40.2994 2.64359 40.1596 2.87632 40.0457 3.07132L39.2195 3.07132L39.617 2.41462C39.6436 2.36819 39.7324 2.27533 39.8757 2.27533H40.2538C40.3201 2.32839 40.4125 2.45527 40.3528 2.55477ZM39.1991 2.55392C39.146 2.64239 39.0056 2.87608 38.8915 3.07132H38.0654L38.4628 2.41462C38.4894 2.36819 38.5783 2.27533 38.7215 2.27533H39.0996C39.1659 2.32836 39.2586 2.45445 39.1991 2.55392ZM38.0453 2.5534C37.9925 2.64127 37.8519 2.8753 37.7374 3.07132H36.9112L37.3087 2.41462C37.3352 2.36819 37.4241 2.27533 37.5674 2.27533L37.9455 2.27533C38.0118 2.32839 38.105 2.4539 38.0453 2.5534ZM36.8911 2.5534C36.8383 2.64127 36.6977 2.8753 36.5832 3.07132H36.4147L36.1361 2.79272H35.9257L36.1545 2.41462C36.1811 2.36819 36.2699 2.27533 36.4132 2.27533H36.7913C36.8576 2.32839 36.9508 2.4539 36.8911 2.5534ZM35.758 2.53402C35.7279 2.58415 35.6612 2.69526 35.6031 2.79272H34.7808L35.0217 2.39472C35.0483 2.34829 35.1371 2.25543 35.2804 2.25543H35.6585C35.7248 2.30849 35.8177 2.43452 35.758 2.53402ZM44.6132 1.47935L44.6716 1.39975H45.6122L45.5485 1.47935H44.6132ZM46.3644 1.49925L46.4374 1.39975H47.3793L47.2997 1.49925H46.3644ZM48.1156 1.49925L48.1885 1.39975H49.1304L49.0508 1.49925H48.1156ZM49.8667 1.49925L49.9397 1.39975H50.8816L50.802 1.49925H49.8667ZM51.6179 1.49925L51.6908 1.39975H52.6327L52.5531 1.49925L51.6179 1.49925ZM47.6622 2.71312H45.5071C45.2576 2.92007 45.4033 3.11774 45.5071 3.19071H47.6622C47.9185 2.97468 47.7418 2.79424 47.6622 2.71312ZM45.5071 1.91714H47.6622C47.7418 1.99826 47.9185 2.1787 47.6622 2.39472H45.5071C45.4033 2.32176 45.2576 2.12409 45.5071 1.91714ZM50.6472 2.71312H48.492C48.2425 2.92007 48.3882 3.11774 48.492 3.19071H50.6472C50.9035 2.97468 50.7268 2.79424 50.6472 2.71312ZM48.492 1.91714L50.6472 1.91714C50.7268 1.99826 50.9035 2.1787 50.6472 2.39472H48.492C48.3882 2.32176 48.2425 2.12409 48.492 1.91714ZM53.4331 2.71312H51.278C51.0284 2.92007 51.1741 3.11774 51.278 3.19071H53.4331C53.6894 2.97468 53.5127 2.79424 53.4331 2.71312ZM51.278 1.91714H53.4331C53.5127 1.99826 53.6894 2.1787 53.4331 2.39472H51.278C51.1741 2.32176 51.0284 2.12409 51.278 1.91714ZM44.9714 2.09623C44.7486 1.90519 44.4807 2.01663 44.3745 2.09623L43.9168 2.89221C43.9168 3.00365 44.1026 3.13764 44.1954 3.19071H44.7326C44.9078 3.19071 44.9647 3.07131 44.9714 3.01161V2.09623ZM43.0213 3.2305C43.2852 3.2305 43.4989 3.01668 43.4989 2.75292C43.4989 2.48915 43.2852 2.27533 43.0213 2.27533C42.7574 2.27533 42.5437 2.48915 42.5437 2.75292C42.5437 3.01668 42.7574 3.2305 43.0213 3.2305ZM37.6882 5.30005L37.6882 4.74287H38.1658L38.8225 5.30005H37.6882ZM38.922 4.74287L39.5787 5.30005H40.4145L39.7578 4.74287H38.922ZM41.1308 5.30005L40.4742 4.74287H41.3099L41.9666 5.30005H41.1308ZM42.0263 4.74287L42.683 5.30005H43.5188L42.8621 4.74287H42.0263ZM44.2352 5.30005L43.5785 4.74287H44.4143L45.0709 5.30005H44.2352ZM45.1306 4.74287L45.7873 5.30005H46.6231L45.9664 4.74287H45.1306ZM47.837 4.74287H46.6231L47.4191 5.37965C47.7375 5.39557 47.8302 5.2669 47.837 5.20056V4.74287ZM50.4637 4.88216H48.3145C48.1713 4.9936 48.2548 5.1276 48.3145 5.18066H50.4637C50.6229 5.04136 50.5365 4.94186 50.4637 4.88216ZM53.4084 4.88216H51.2593C51.116 4.9936 51.1996 5.1276 51.2593 5.18066H53.4084C53.5676 5.04136 53.4812 4.94186 53.4084 4.88216Z" fill="#D9D9D9"/>
<path d="M54.0235 1.63855L54.0421 1.95694H54.364V2.47433H54.0724L54.091 2.79272H54.961V1.63855H54.0235Z" fill="#D9D9D9"/>
<path d="M54.1259 3.38971L54.1994 4.70308H59.2592V4.82247H61.09V4.74287H62.6422V4.34488H61.09V3.7877L62.6422 3.7877V3.38971H61.09V3.31011H59.2592V3.38971H54.1259Z" fill="#D9D9D9"/>
<path fill-rule="evenodd" clip-rule="evenodd" d="M14.6845 1.71814C15.0346 1.53659 15.567 1.50997 15.9137 1.52427L15.9714 1.58875L16.0103 3.39897C16.0535 3.74386 16.2454 4.25269 16.6763 4.66362C17.1104 5.07759 17.7802 5.3916 18.7654 5.36732H31.8796C31.9533 5.39112 32.0717 5.46356 32.1733 5.58037C32.2792 5.70213 32.3542 5.85762 32.3477 6.03164L32.3453 6.10027C31.9298 6.25692 31.6878 6.43616 31.599 6.53382V8.22528L31.7184 8.34468V8.88196L31.365 8.94317L25.5238 9.93747C25.4792 9.94517 25.4329 9.95306 25.3852 9.96107C24.6144 10.0905 23.4732 10.255 23.3606 10.255C23.2949 10.255 22.9338 10.2102 22.5001 10.1563C22.1501 10.1128 21.7528 10.0635 21.4256 10.0271V8.0485L21.4009 7.9967C21.3596 7.90984 21.2844 7.78313 21.1851 7.67177C21.0939 7.56942 20.9389 7.43072 20.7335 7.41492C20.5371 7.39981 19.6593 7.40577 19.1126 7.41187C19.009 7.11245 18.8123 6.75165 18.4977 6.45696C18.1006 6.08504 17.5225 5.82616 16.7424 5.92367L16.4923 5.95494L16.5567 6.50281C16.47 6.50291 16.3627 6.50065 16.2366 6.49402C15.9341 6.4781 15.434 6.23533 15.2217 6.11593L13.8948 4.98891V1.71815L14.6845 1.71814ZM23.1683 7.70789L23.1218 7.84719C22.8963 8.08599 22.5607 8.73073 23.0223 9.39935C23.0223 9.4259 22.9945 9.46303 22.883 9.39935C22.7444 9.32015 22.3694 9.0439 22.5814 7.70789H22.0244C21.7442 7.77929 21.6692 8.019 21.6692 8.14568C21.6559 8.39773 21.6373 8.97748 21.6692 9.27995C21.701 9.58242 21.9876 9.73764 22.1269 9.77744C22.4253 9.81724 23.09 9.89684 23.3606 9.89684C23.7012 9.89684 24.8531 9.69784 25.0322 9.63814C25.1502 9.59878 25.2674 9.5117 25.3346 9.45256C25.3405 9.18778 25.3373 8.86246 25.3108 8.54367C25.263 7.97057 24.8929 7.74769 24.7138 7.70789H23.1683ZM15.7789 1.79774C15.905 1.87734 16.1013 2.12011 15.8784 2.45443C15.8718 2.46106 15.8426 2.4783 15.7789 2.49422C15.7153 2.51014 14.9962 2.50085 14.6447 2.49422C14.5783 2.42126 14.4656 2.22359 14.5452 2.01664C14.6248 1.80968 15.4008 1.78447 15.7789 1.79774Z" fill="#D9D9D9"/>
<path d="M67.8371 3.58301L66.4762 4.52235L67.6034 5.30553L63.0818 4.85227L63.3553 4.40104L63.0818 3.93886L63.2468 3.47473L63.0818 3.23272L68.0659 1.95694L66.5293 2.98087L67.8371 3.58301Z" fill="#D9D9D9"/>
<path d="M31.4053 9.1939L32.366 15.1697C32.3993 15.3897 32.1941 15.5408 32.0856 15.578L27.5451 16.3976C27.2005 16.4706 26.578 16.5541 26.4722 16.3874C26.3664 16.2207 26.2736 15.8288 26.2654 15.5533L26.1463 14.7663L26.2644 14.7484L25.567 10.1877L31.4053 9.1939Z" fill="#D9D9D9"/>
<path d="M21.1717 9.99634C21.162 9.99634 21.1515 9.9966 21.1402 9.99714C20.9744 10.0052 20.6491 10.0762 20.4553 10.3147C20.2484 10.5694 19.7058 13.1537 19.4603 14.414L19.7787 14.7324C19.7787 14.9394 19.5001 15.0973 19.3608 15.1503C18.7639 15.1503 17.249 14.7138 16.445 14.4367C16.1769 14.3444 15.9879 14.2698 15.9381 14.2349C15.7988 14.1374 15.7916 14.0328 15.8097 13.9771C15.8123 13.9691 15.8154 13.9621 15.8187 13.9563L15.9381 13.4788C16.2307 11.6122 17.1844 9.84311 17.7915 8.93676C17.8783 8.80728 17.9579 8.69541 18.0276 8.60337C17.9161 7.83923 17.225 7.34306 16.8933 7.19051L16.7739 6.17563C16.8498 6.16389 16.9574 6.15851 17.0274 6.15727C18.2499 6.13559 18.7987 7.13331 18.9231 7.6681C19.4338 7.66145 20.5071 7.65218 20.714 7.6681C20.921 7.68402 21.1054 7.96659 21.1717 8.10589V9.99634Z" fill="#D9D9D9"/>
<path fill-rule="evenodd" clip-rule="evenodd" d="M13.6409 5.12097V1.71815L13.3313 1.71815C13.3313 1.72855 13.3329 1.73906 13.3346 1.74967C13.3468 1.82842 13.3598 1.91256 12.7144 1.99674C12.5761 1.90871 12.2208 1.73724 11.8587 1.71962V1.55895L2.36187 1.55895L2.35086 1.45059H1.83599C1.71057 1.41621 1.38844 1.44233 1.10327 1.82181C0.818107 2.20128 1.15608 6.18713 1.36071 8.13263L1.83599 9.63815H3.18259L3.57007 9.51875L5.06639 6.99152L11.0517 6.07614L11.6559 4.19325H11.8587V3.7678H12.3164L12.7144 5.12097H13.6409ZM3.62037 5.33986C3.62037 5.20796 3.51346 5.10106 3.38158 5.10106C3.2497 5.10106 3.14279 5.20796 3.14279 5.33986V7.5288C3.14279 7.6607 3.2497 7.7676 3.38158 7.7676C3.51346 7.7676 3.62037 7.6607 3.62037 7.5288V5.33986Z" fill="#D9D9D9"/>
</svg>
