<svg width="43" height="17" viewBox="0 0 43 17" fill="none" xmlns="http://www.w3.org/2000/svg">
<path d="M15.8816 0.390991H15.7868V0.89464C15.7748 0.912298 15.7678 0.933602 15.7678 0.956539V1.09589C15.7678 1.11883 15.7748 1.14013 15.7868 1.15779V1.75623L14.706 1.75624V1.79415H14.5164C14.4784 1.79415 14.3647 1.98377 14.3647 2.1165V2.44833H14.1779L14.1779 5.93596C14.1831 5.93323 14.1885 5.93052 14.194 5.92779H15.6067L17.0478 6.59145H18.394C18.4169 7.32442 18.5878 7.66599 19.143 8.16527C19.2379 8.25059 19.3317 8.12734 19.2758 8.03254C19.1715 7.85589 19.143 7.80499 19.143 7.66278V6.59145H21.0202V6.74315H20.8686L20.8685 6.7621H20.8306V7.23614H20.8685L20.8686 7.73863C20.8686 7.96617 20.4135 8.33593 20.2144 8.33593H18.1855C18.1618 8.33593 18.1394 8.33129 18.1186 8.32282C18.0494 8.29461 17.9972 8.22386 17.9674 8.13998C17.9489 8.08791 17.939 8.0308 17.939 7.97565V7.12238H18.138V7.29303H18.2518V6.7621H18.138V6.93276H17.939V6.81237H16.9993L15.5582 6.14871H14.2509C14.2347 6.15933 14.225 6.16837 14.2174 6.17675C14.2064 6.18884 14.1948 6.20482 14.1779 6.23288V6.36391C14.1779 6.41338 14.1702 6.4612 14.1558 6.50612H14.5547C14.6881 6.50641 14.8567 6.63909 15.0473 6.85692C15.18 7.00861 15.2843 7.16978 15.2843 7.34992C15.2843 7.56798 15.2082 7.78496 15.1326 7.87136L14.0897 9.08491C13.9386 9.24724 13.8114 9.42279 13.7072 9.59716C13.4585 10.0135 13.3408 10.4231 13.3408 10.6303V11.2465C13.3408 11.4077 13.3882 11.531 13.5304 11.6352L15.1366 12.6082L15.9339 12.8947C15.9601 12.8778 15.9865 12.8562 16.0144 12.8298L16.3064 12.4316C16.319 12.413 16.32 12.4026 16.3064 12.3839L16.0807 12.1757C16.0033 12.0813 16.0064 12.0204 16.0807 11.9007L17.7683 8.85737H18.0432C18.0687 8.85737 18.0946 8.84657 18.1186 8.82623C18.1693 8.78337 18.2117 8.69817 18.2234 8.58242C18.2266 8.55036 18.2139 8.53502 18.1854 8.53502H18.0432C18.027 8.53502 17.999 8.51558 17.9674 8.4836C17.8886 8.40393 17.7873 8.24641 17.7873 8.11786V8.01965C17.7928 8.18973 17.8634 8.3352 17.9733 8.41698C18.0162 8.44898 18.0652 8.47123 18.1186 8.48139C18.1402 8.48549 18.1625 8.48762 18.1855 8.48762H20.2144C20.5652 8.48762 21.0202 8.06098 21.0202 7.73863V7.34991H21.0961L21.096 7.39222C21.0959 7.57599 21.0959 7.69557 21.115 7.88084C21.1462 8.18328 21.1684 8.35093 21.2572 8.62982C21.2784 8.69619 21.4089 8.70567 21.4184 8.62982L21.6888 7.01663C21.6968 6.98971 21.7019 6.95149 21.7028 6.92328V6.59148L23.8835 6.59144L25.1879 6.1795C25.4885 6.16554 25.663 6.17694 25.8221 6.20504L25.3183 4.85273C25.2809 4.76291 25.2616 4.64602 25.3179 4.53655C25.3795 4.41686 25.4976 4.37033 25.5986 4.37007L25.9502 4.36794H25.7294V2.60288L25.2932 2.60289V1.75624H24.8315V1.98378H24.5281V1.75624H24.2627V1.98378H23.9498V1.75624H23.6843V1.98378H23.3715V1.75624H23.106V1.98378H22.7931V1.75624H22.5277V1.98378H22.2148V1.75624H21.9493V1.98378H21.6365V1.75624H21.371V1.98378H21.0581V1.75624H20.7927V1.98378H20.4798V1.75624H20.2143V1.98378H19.9015V1.75624H19.636V1.98378H19.3231V1.75624H19.0577V1.98378H18.7448V1.75624H18.4794V1.98378H18.1665V1.75624H17.901V1.98378H17.5882V1.75624H17.3227V2.1165H16.4125V1.75624L16.0333 1.75623V1.71831C16.0333 1.69935 16.0428 1.68038 16.0712 1.68038C16.0997 1.68038 16.1091 1.66142 16.1091 1.64246V1.15779C16.1211 1.14014 16.1281 1.11883 16.1281 1.09589V0.956539C16.1281 0.933596 16.1211 0.912291 16.1091 0.894633V0.390991H16.0333V0.485797C16.0333 0.506745 16.0163 0.523721 15.9954 0.523721H15.9195C15.8986 0.523721 15.8816 0.506745 15.8816 0.485797V0.390991Z" fill="#D9D9D9"/>
<path fill-rule="evenodd" clip-rule="evenodd" d="M33.4394 4.32267L25.9503 4.36794V2.38195L25.5142 2.38196L25.5142 1.75624H26.8983V1.98378H27.2112V1.75624H27.4767V1.98378H27.7895V1.75624H28.055V1.98378H28.3679V1.75624H28.6333V1.98378H28.9462V1.75624H29.2117V1.98378H30.1218V1.75624L30.2735 1.75623V0.808147H30.4252V0.694375H30.539V0.808147H30.6907V1.75623L32.1317 1.75624L34.7579 3.44382L34.7579 3.55758H34.9096C35.0238 3.55758 35.1029 3.65585 35.1228 3.80408H36.3412V4.71424H35.1277L35.1277 5.24517L34.7579 5.5265L34.7579 5.81403L34.0592 6.27402L34.0592 4.94179C34.0592 4.77778 34.0278 4.60551 33.9021 4.47981C33.7764 4.35411 33.6034 4.32267 33.4394 4.32267ZM26.7972 2.62846C26.7387 2.62846 26.6854 2.66213 26.6603 2.71496C26.6241 2.79099 26.6571 2.87589 26.7234 2.9129H27.016C27.0432 2.89786 27.0656 2.87453 27.0795 2.84536C27.1274 2.74469 27.054 2.62846 26.9426 2.62846H26.7972ZM27.7221 2.71496C27.7473 2.66213 27.8006 2.62846 27.8591 2.62846H28.0044C28.1159 2.62846 28.1893 2.74469 28.1414 2.84536C28.1275 2.87453 28.105 2.89786 28.0778 2.9129H27.7853C27.7189 2.87589 27.6859 2.79099 27.7221 2.71496ZM31.2634 2.9129C31.2906 2.89786 31.3131 2.87453 31.3269 2.84536C31.3749 2.74469 31.3014 2.62846 31.19 2.62846H31.0446C30.9861 2.62846 30.9328 2.66213 30.9077 2.71496C30.8715 2.79099 30.9045 2.87589 30.9708 2.9129H31.2634ZM30.2016 2.9129C30.2287 2.89786 30.2512 2.87453 30.2651 2.84536C30.313 2.74469 30.2396 2.62846 30.1281 2.62846H29.9828C29.9243 2.62846 29.871 2.66213 29.8458 2.71496C29.8096 2.79099 29.8426 2.87589 29.909 2.9129H30.2016ZM29.1397 2.9129C29.1669 2.89786 29.1893 2.87453 29.2032 2.84536C29.2511 2.74469 29.1778 2.62846 29.0663 2.62846H28.9209C28.8624 2.62846 28.8091 2.66213 28.784 2.71496C28.7478 2.79099 28.7808 2.87589 28.8471 2.9129H29.1397Z" fill="#D9D9D9"/>
<path fill-rule="evenodd" clip-rule="evenodd" d="M13.3313 2.44833H13.957L13.957 6.36391C13.957 6.41688 13.9403 6.46594 13.9119 6.50612C13.8672 6.56922 13.7937 6.61042 13.7105 6.61042H13.6942L13.6441 6.64835L12.5823 6.64834V3.349L13.1606 2.99789C13.1607 2.79873 13.2649 2.44833 13.3313 2.44833ZM13.5493 2.96978C13.6541 2.96978 13.7389 2.88488 13.7389 2.78016C13.7389 2.67544 13.6541 2.59054 13.5493 2.59054C13.4446 2.59054 13.3597 2.67544 13.3597 2.78016C13.3597 2.88488 13.4446 2.96978 13.5493 2.96978Z" fill="#D9D9D9"/>
<path d="M24.0983 6.75528L23.9175 6.81237H21.7317L21.9313 8.35489C21.9448 8.44151 21.966 8.47286 22.008 8.47897L22.8026 15.6836L22.85 16.2334L22.8505 16.241L22.8508 16.2493C22.851 16.2542 22.8512 16.259 22.8513 16.2636L22.8514 16.2652C22.8532 16.3238 22.8543 16.3585 22.9307 16.3765C22.9747 16.3934 23.04 16.3944 23.1344 16.3852L24.8315 16.2619C24.9168 16.2524 24.9453 16.2145 24.9168 16.1007L25.0685 16.0723L25.1065 16.2903L25.1918 16.2714L24.1712 8.2486C24.2268 8.23936 24.2662 8.22952 24.2437 8.07994L24.0983 6.75528Z" fill="#D9D9D9"/>
<path d="M12.3614 3.34901V6.80003H11.8617V6.64834H6.9886L5.43374 7.19822C5.14932 7.30252 4.97867 7.37836 4.81749 7.61538L3.46165 9.94891L3.38588 10.1373C3.32837 10.2605 3.28159 10.3459 3.19627 10.3838L2.50417 10.6777C2.40935 10.7156 2.26715 10.7251 2.11545 10.7251H1.42335C1.25269 10.7251 1.17536 10.5926 1.19582 10.3838C1.42158 8.07913 1.3767 6.93179 1.02407 4.45076L1.01568 4.3919C0.97271 4.09113 0.989012 3.96171 1.09656 3.91035C1.14495 3.88724 1.21184 3.87994 1.3001 3.87994H6.95067L7.25406 3.61447V3.34901H12.3614Z" fill="#D9D9D9"/>
<path fill-rule="evenodd" clip-rule="evenodd" d="M26.6792 7.43804L26.2441 6.70414L25.5236 4.77005C25.4737 4.6542 25.5236 4.58991 25.5995 4.58991L33.4401 4.54251C33.7245 4.54251 33.8383 4.65628 33.8383 4.94071L33.8383 6.92221C33.8383 7.05924 33.7222 7.0802 33.6509 6.9222C33.6482 6.91623 33.6456 6.91004 33.643 6.90356C33.6403 6.89674 33.6375 6.88899 33.6349 6.88158C33.6332 6.87662 33.6313 6.87055 33.6297 6.86532C33.6275 6.85811 33.6233 6.85166 33.6174 6.84612C33.6036 6.83334 33.5793 6.82555 33.5514 6.82215C33.4172 6.80587 33.1201 6.87271 32.7006 7.04546C32.6806 7.05368 32.5916 7.08679 32.4511 7.1385C32.4192 7.11376 32.35 7.10277 32.3079 7.11751C32.2609 7.13395 32.2245 7.17952 32.2142 7.2254C32.1323 7.25539 32.042 7.28839 31.9448 7.32387C31.9138 7.29242 31.8496 7.28902 31.8075 7.30361C31.7578 7.32086 31.723 7.36164 31.7111 7.40913L31.4377 7.50877C31.4377 7.50877 31.3742 7.46485 31.2994 7.4922C31.2246 7.51956 31.2083 7.5923 31.2083 7.5923L30.9302 7.6935C30.9302 7.6935 30.8683 7.65787 30.813 7.67314C30.7577 7.68842 30.7185 7.73399 30.7057 7.77515L30.4223 7.87817C30.4223 7.87817 30.354 7.84909 30.3052 7.86218C30.2564 7.87527 30.2178 7.91582 30.2033 7.95773L29.9141 8.06282C29.9141 8.06282 29.8576 8.02724 29.7872 8.05164C29.7167 8.07603 29.7011 8.14016 29.7011 8.14016L29.4055 8.24749C29.3848 8.23544 29.3324 8.22776 29.3014 8.23544C29.2581 8.24806 29.2143 8.28713 29.1993 8.32237L28.8966 8.43221C28.8723 8.41818 28.8124 8.41588 28.7841 8.42573C28.7493 8.43779 28.7085 8.47233 28.6977 8.5044C28.2125 8.68042 27.8843 8.79941 27.8843 8.79941C27.584 8.89288 27.5321 8.87014 27.4861 8.79941L27.0711 8.09922L26.6044 8.32747L26.2678 7.63923L26.6792 7.43804ZM28.2022 6.61685C28.2603 6.6088 28.3196 6.59676 28.3773 6.58423L32.4351 5.56031C32.4459 5.55834 32.4562 5.55531 32.4659 5.55132C32.4784 5.54617 32.49 5.53941 32.5006 5.5313C32.5599 5.48595 32.588 5.39852 32.5773 5.31382C32.5631 5.19993 32.4792 5.09095 32.3403 5.09574L27.78 5.23795C27.4861 5.25691 27.3818 5.38964 27.4861 5.68355L27.7801 6.47048C27.8518 6.6284 28.0211 6.64197 28.2022 6.61685Z" fill="#D9D9D9"/>
<path d="M37.0974 3.77014L41.9452 1.94141L40.037 3.42719L42.5611 4.44328L40.7778 4.92243L41.9452 6.46403L37.0974 4.75119L37.3621 4.55205L37.0974 4.1546L37.3621 3.97591L37.0974 3.77014Z" fill="#D9D9D9"/>
</svg>
