<svg xmlns="http://www.w3.org/2000/svg" xmlns:xlink="http://www.w3.org/1999/xlink" width="708.925" height="629.385" viewBox="0 0 187.57 166.525"><defs><pattern xlink:href="#a" id="b" x="70" y="40" patternTransform="matrix(.25 0 0 .25 16864.689 10769.01)" preserveAspectRatio="xMidYMid"/><pattern id="a" width="1233.415" height="1237.102" patternTransform="translate(16864.689 10769.01)" patternUnits="userSpaceOnUse" preserveAspectRatio="xMidYMid"><g style="fill:#4d4d4d;fill-opacity:1;stroke:#404040;stroke-width:7;stroke-dasharray:none;stroke-opacity:1"><g style="fill:#4d4d4d;fill-opacity:1;stroke:#404040;stroke-width:7;stroke-dasharray:none;stroke-opacity:1"><g style="fill:#4d4d4d;fill-opacity:1;stroke:#404040;stroke-width:7;stroke-dasharray:none;stroke-opacity:1"><g style="fill:#4d4d4d;fill-opacity:1;stroke:#404040;stroke-width:7;stroke-dasharray:none;stroke-opacity:1"><g style="fill:#4d4d4d;fill-opacity:1;stroke:#404040;stroke-width:7;stroke-dasharray:none;stroke-opacity:1"><path d="M3872 4527h171.056v171.056H3872zm-176 0h171.056v171.056H3696zm176 177.056h171.056v171.056H3872zm-176 0h171.056v171.056H3696z" style="fill:#4d4d4d;fill-opacity:1;stroke:#404040;stroke-width:7;stroke-linecap:square;stroke-linejoin:miter;stroke-dasharray:none;stroke-opacity:1" transform="translate(-2606.42 -3638.903)scale(.87277)"/></g><g style="fill:#4d4d4d;fill-opacity:1;stroke:#404040;stroke-width:7;stroke-dasharray:none;stroke-opacity:1"><path d="M3872 4527h171.056v171.056H3872zm-176 0h171.056v171.056H3696zm176 177.056h171.056v171.056H3872zm-176 0h171.056v171.056H3696z" style="fill:#4d4d4d;fill-opacity:1;stroke:#404040;stroke-width:7;stroke-linecap:square;stroke-linejoin:miter;stroke-dasharray:none;stroke-opacity:1" transform="translate(-2606.42 -3947.96)scale(.87277)"/></g></g><g style="fill:#4d4d4d;fill-opacity:1;stroke:#404040;stroke-width:7;stroke-dasharray:none;stroke-opacity:1"><g style="fill:#4d4d4d;fill-opacity:1;stroke:#404040;stroke-width:7;stroke-dasharray:none;stroke-opacity:1"><path d="M3872 4527h171.056v171.056H3872zm-176 0h171.056v171.056H3696zm176 177.056h171.056v171.056H3872zm-176 0h171.056v171.056H3696z" style="fill:#4d4d4d;fill-opacity:1;stroke:#404040;stroke-width:7;stroke-linecap:square;stroke-linejoin:miter;stroke-dasharray:none;stroke-opacity:1" transform="translate(-2606.42 -3020.788)scale(.87277)"/></g><g style="fill:#4d4d4d;fill-opacity:1;stroke:#404040;stroke-width:7;stroke-dasharray:none;stroke-opacity:1"><path d="M3872 4527h171.056v171.056H3872zm-176 0h171.056v171.056H3696zm176 177.056h171.056v171.056H3872zm-176 0h171.056v171.056H3696z" style="fill:#4d4d4d;fill-opacity:1;stroke:#404040;stroke-width:7;stroke-linecap:square;stroke-linejoin:miter;stroke-dasharray:none;stroke-opacity:1" transform="translate(-2606.42 -3329.846)scale(.87277)"/></g></g></g><g style="fill:#4d4d4d;fill-opacity:1;stroke:#404040;stroke-width:7;stroke-dasharray:none;stroke-opacity:1"><g style="fill:#4d4d4d;fill-opacity:1;stroke:#404040;stroke-width:7;stroke-dasharray:none;stroke-opacity:1"><g style="fill:#4d4d4d;fill-opacity:1;stroke:#404040;stroke-width:7;stroke-dasharray:none;stroke-opacity:1"><path d="M3872 4527h171.056v171.056H3872zm-176 0h171.056v171.056H3696zm176 177.056h171.056v171.056H3872zm-176 0h171.056v171.056H3696z" style="fill:#4d4d4d;fill-opacity:1;stroke:#404040;stroke-width:7;stroke-linecap:square;stroke-linejoin:miter;stroke-dasharray:none;stroke-opacity:1" transform="translate(-2298.284 -3638.903)scale(.87277)"/></g><g style="fill:#4d4d4d;fill-opacity:1;stroke:#404040;stroke-width:7;stroke-dasharray:none;stroke-opacity:1"><path d="M3872 4527h171.056v171.056H3872zm-176 0h171.056v171.056H3696zm176 177.056h171.056v171.056H3872zm-176 0h171.056v171.056H3696z" style="fill:#4d4d4d;fill-opacity:1;stroke:#404040;stroke-width:7;stroke-linecap:square;stroke-linejoin:miter;stroke-dasharray:none;stroke-opacity:1" transform="translate(-2298.284 -3947.96)scale(.87277)"/></g></g><g style="fill:#4d4d4d;fill-opacity:1;stroke:#404040;stroke-width:7;stroke-dasharray:none;stroke-opacity:1"><g style="fill:#4d4d4d;fill-opacity:1;stroke:#404040;stroke-width:7;stroke-dasharray:none;stroke-opacity:1"><path d="M3872 4527h171.056v171.056H3872zm-176 0h171.056v171.056H3696zm176 177.056h171.056v171.056H3872zm-176 0h171.056v171.056H3696z" style="fill:#4d4d4d;fill-opacity:1;stroke:#404040;stroke-width:7;stroke-linecap:square;stroke-linejoin:miter;stroke-dasharray:none;stroke-opacity:1" transform="translate(-2298.284 -3020.788)scale(.87277)"/></g><g style="fill:#4d4d4d;fill-opacity:1;stroke:#404040;stroke-width:7;stroke-dasharray:none;stroke-opacity:1"><path d="M3872 4527h171.056v171.056H3872zm-176 0h171.056v171.056H3696zm176 177.056h171.056v171.056H3872zm-176 0h171.056v171.056H3696z" style="fill:#4d4d4d;fill-opacity:1;stroke:#404040;stroke-width:7;stroke-linecap:square;stroke-linejoin:miter;stroke-dasharray:none;stroke-opacity:1" transform="translate(-2298.284 -3329.846)scale(.87277)"/></g></g></g></g><g style="fill:#4d4d4d;fill-opacity:1;stroke:#404040;stroke-width:7;stroke-dasharray:none;stroke-opacity:1"><g style="fill:#4d4d4d;fill-opacity:1;stroke:#404040;stroke-width:7;stroke-dasharray:none;stroke-opacity:1"><g style="fill:#4d4d4d;fill-opacity:1;stroke:#404040;stroke-width:7;stroke-dasharray:none;stroke-opacity:1"><g style="fill:#4d4d4d;fill-opacity:1;stroke:#404040;stroke-width:7;stroke-dasharray:none;stroke-opacity:1"><path d="M3872 4527h171.056v171.056H3872zm-176 0h171.056v171.056H3696zm176 177.056h171.056v171.056H3872zm-176 0h171.056v171.056H3696z" style="fill:#4d4d4d;fill-opacity:1;stroke:#404040;stroke-width:7;stroke-linecap:square;stroke-linejoin:miter;stroke-dasharray:none;stroke-opacity:1" transform="translate(-3222.691 -3638.903)scale(.87277)"/></g><g style="fill:#4d4d4d;fill-opacity:1;stroke:#404040;stroke-width:7;stroke-dasharray:none;stroke-opacity:1"><path d="M3872 4527h171.056v171.056H3872zm-176 0h171.056v171.056H3696zm176 177.056h171.056v171.056H3872zm-176 0h171.056v171.056H3696z" style="fill:#4d4d4d;fill-opacity:1;stroke:#404040;stroke-width:7;stroke-linecap:square;stroke-linejoin:miter;stroke-dasharray:none;stroke-opacity:1" transform="translate(-3222.691 -3947.96)scale(.87277)"/></g></g><g style="fill:#4d4d4d;fill-opacity:1;stroke:#404040;stroke-width:7;stroke-dasharray:none;stroke-opacity:1"><g style="fill:#4d4d4d;fill-opacity:1;stroke:#404040;stroke-width:7;stroke-dasharray:none;stroke-opacity:1"><path d="M3872 4527h171.056v171.056H3872zm-176 0h171.056v171.056H3696zm176 177.056h171.056v171.056H3872zm-176 0h171.056v171.056H3696z" style="fill:#4d4d4d;fill-opacity:1;stroke:#404040;stroke-width:7;stroke-linecap:square;stroke-linejoin:miter;stroke-dasharray:none;stroke-opacity:1" transform="translate(-3222.691 -3020.788)scale(.87277)"/></g><g style="fill:#4d4d4d;fill-opacity:1;stroke:#404040;stroke-width:7;stroke-dasharray:none;stroke-opacity:1"><path d="M3872 4527h171.056v171.056H3872zm-176 0h171.056v171.056H3696zm176 177.056h171.056v171.056H3872zm-176 0h171.056v171.056H3696z" style="fill:#4d4d4d;fill-opacity:1;stroke:#404040;stroke-width:7;stroke-linecap:square;stroke-linejoin:miter;stroke-dasharray:none;stroke-opacity:1" transform="translate(-3222.691 -3329.846)scale(.87277)"/></g></g></g><g style="fill:#4d4d4d;fill-opacity:1;stroke:#404040;stroke-width:7;stroke-dasharray:none;stroke-opacity:1"><g style="fill:#4d4d4d;fill-opacity:1;stroke:#404040;stroke-width:7;stroke-dasharray:none;stroke-opacity:1"><g style="fill:#4d4d4d;fill-opacity:1;stroke:#404040;stroke-width:7;stroke-dasharray:none;stroke-opacity:1"><path d="M3872 4527h171.056v171.056H3872zm-176 0h171.056v171.056H3696zm176 177.056h171.056v171.056H3872zm-176 0h171.056v171.056H3696z" style="fill:#4d4d4d;fill-opacity:1;stroke:#404040;stroke-width:7;stroke-linecap:square;stroke-linejoin:miter;stroke-dasharray:none;stroke-opacity:1" transform="translate(-2914.556 -3638.903)scale(.87277)"/></g><g style="fill:#4d4d4d;fill-opacity:1;stroke:#404040;stroke-width:7;stroke-dasharray:none;stroke-opacity:1"><path d="M3872 4527h171.056v171.056H3872zm-176 0h171.056v171.056H3696zm176 177.056h171.056v171.056H3872zm-176 0h171.056v171.056H3696z" style="fill:#4d4d4d;fill-opacity:1;stroke:#404040;stroke-width:7;stroke-linecap:square;stroke-linejoin:miter;stroke-dasharray:none;stroke-opacity:1" transform="translate(-2914.556 -3947.96)scale(.87277)"/></g></g><g style="fill:#4d4d4d;fill-opacity:1;stroke:#404040;stroke-width:7;stroke-dasharray:none;stroke-opacity:1"><g style="fill:#4d4d4d;fill-opacity:1;stroke:#404040;stroke-width:7;stroke-dasharray:none;stroke-opacity:1"><path d="M3872 4527h171.056v171.056H3872zm-176 0h171.056v171.056H3696zm176 177.056h171.056v171.056H3872zm-176 0h171.056v171.056H3696z" style="fill:#4d4d4d;fill-opacity:1;stroke:#404040;stroke-width:7;stroke-linecap:square;stroke-linejoin:miter;stroke-dasharray:none;stroke-opacity:1" transform="translate(-2914.556 -3020.788)scale(.87277)"/></g><g style="fill:#4d4d4d;fill-opacity:1;stroke:#404040;stroke-width:7;stroke-dasharray:none;stroke-opacity:1"><path d="M3872 4527h171.056v171.056H3872zm-176 0h171.056v171.056H3696zm176 177.056h171.056v171.056H3872zm-176 0h171.056v171.056H3696z" style="fill:#4d4d4d;fill-opacity:1;stroke:#404040;stroke-width:7;stroke-linecap:square;stroke-linejoin:miter;stroke-dasharray:none;stroke-opacity:1" transform="translate(-2914.556 -3329.846)scale(.87277)"/></g></g></g></g></g></pattern><pattern xlink:href="#b" id="g" patternTransform="matrix(.25 0 0 .25 16872.213 10769.01)"/><pattern xlink:href="#c" id="h" x="0" y="0" patternTransform="matrix(.28618 0 0 .2845 74.204 647.692)" preserveAspectRatio="none"/><pattern xlink:href="#d" id="c" x="-50" y="-9" patternTransform="matrix(.28444 0 0 .2845 -113.842 894.46)" preserveAspectRatio="xMidYMid"/><pattern id="d" width="182.946" height="185.223" patternTransform="translate(38.264 563.397)" patternUnits="userSpaceOnUse" preserveAspectRatio="xMidYMid"><path d="M90.679 0h92.267v92.612H90.679z" style="display:inline;fill:gray;fill-opacity:1;stroke:none;stroke-width:1.74803;stroke-linecap:round;stroke-linejoin:round"/><path d="M90.679 92.611h92.267v92.612H90.679z" style="display:inline;fill:#dcdcdc;fill-opacity:1;stroke:none;stroke-width:1.74803;stroke-linecap:round;stroke-linejoin:round"/><path d="M0 92.611h92.267v92.612H0z" style="display:inline;fill:gray;fill-opacity:1;stroke:none;stroke-width:1.74803;stroke-linecap:round;stroke-linejoin:round"/><path d="M0 0h92.267v92.612H0z" style="display:inline;fill:#dcdcdc;fill-opacity:1;stroke:none;stroke-width:1.74803;stroke-linecap:round;stroke-linejoin:round"/></pattern><pattern xlink:href="#e" id="i" x="20" y="12" patternTransform="rotate(180 70.228 -413.14)scale(.265)" preserveAspectRatio="none"/><pattern xlink:href="#f" id="e" x="0" y="10" patternTransform="translate(-5060.812 -921.43)scale(.265)" preserveAspectRatio="xMidYMid"/><pattern id="f" width="182.946" height="185.223" patternTransform="translate(38.264 563.397)" patternUnits="userSpaceOnUse" preserveAspectRatio="xMidYMid"><path d="M90.679 0h92.267v92.612H90.679z" style="display:inline;fill:gray;fill-opacity:1;stroke:none;stroke-width:1.74803;stroke-linecap:round;stroke-linejoin:round"/><path d="M90.679 92.611h92.267v92.612H90.679z" style="display:inline;fill:#dcdcdc;fill-opacity:1;stroke:none;stroke-width:1.74803;stroke-linecap:round;stroke-linejoin:round"/><path d="M0 92.611h92.267v92.612H0z" style="display:inline;fill:gray;fill-opacity:1;stroke:none;stroke-width:1.74803;stroke-linecap:round;stroke-linejoin:round"/><path d="M0 0h92.267v92.612H0z" style="display:inline;fill:#dcdcdc;fill-opacity:1;stroke:none;stroke-width:1.74803;stroke-linecap:round;stroke-linejoin:round"/></pattern></defs><g transform="rotate(180 59.939 69.626)"><rect width="9.989" height="58.912" x="-301.721" y="79.261" rx="2.686" ry="2.686" style="fill:#362b26;fill-opacity:1;stroke-width:.970411;stroke-linecap:square;stop-color:#000" transform="scale(-1 1)"/><rect width="53.047" height="3.742" x="-135.24" y="-299.57" rx="1.113" ry="1.113" style="display:inline;fill:#93836c;fill-opacity:1;stroke-width:.223198" transform="scale(1 -1)rotate(90)"/></g><g transform="translate(-114.15 -194.15)"><rect width="9.989" height="58.912" x="-301.721" y="145.718" rx="2.686" ry="2.686" style="fill:#362b26;fill-opacity:1;stroke-width:.970411;stroke-linecap:square;stop-color:#000" transform="scale(-1 1)"/><rect width="53.047" height="3.742" x="-201.698" y="-299.57" rx="1.113" ry="1.113" style="display:inline;fill:#93836c;fill-opacity:1;stroke-width:.223198" transform="scale(1 -1)rotate(90)"/></g><g transform="rotate(-90 -30.395 164.678)"><rect width="9.989" height="58.912" x="-301.721" y="74.948" rx="2.686" ry="2.686" style="fill:#362b26;fill-opacity:1;stroke-width:.970411;stroke-linecap:square;stop-color:#000" transform="scale(-1 1)"/><rect width="53.047" height="3.742" x="-130.928" y="-299.57" rx="1.113" ry="1.113" style="display:inline;fill:#93836c;fill-opacity:1;stroke-width:.223198" transform="scale(1 -1)rotate(90)"/></g><g style="fill:url(#b);fill-opacity:1"><path d="M4485.352 3090.624h254.277v61.045h-254.277z" style="fill:url(#g);fill-opacity:1;fill-rule:evenodd;stroke:#404040;stroke-width:3.175;stroke-linecap:round;stroke-linejoin:round;stroke-dasharray:none;stroke-opacity:1" transform="translate(-4562.066 -2987.008)"/></g><path d="M208.179 342.81h37.767v37.766h-37.767zm37.767 0h37.766v37.766h-37.766zm-37.767 37.766h37.767v26.864h-37.767zm37.767 0h37.766v26.864h-37.766zm37.766-37.766h37.767v37.766h-37.767zm37.768 0h37.766v37.766H321.48zm-37.768 37.766h37.767v26.864h-37.767zm37.768 0h37.766v26.864H321.48z" style="fill:#595959;fill-rule:evenodd;stroke:#404040;stroke-width:2.38125;stroke-linejoin:round" transform="translate(-218.695 -242.214)"/><path d="M359.246 380.576h37.767v26.864h-37.767ZM132.645 342.81h37.767v37.766h-37.767zm37.767 0h37.767v37.766h-37.767zm-37.767 37.766h37.767v26.864h-37.767zm37.767 0h37.767v26.864h-37.767zm188.834-37.766h37.767v37.766h-37.767Z" style="fill:#595959;fill-rule:evenodd;stroke:#404040;stroke-width:2.38125;stroke-linejoin:round" transform="translate(-218.695 -242.214)"/><g style="fill:#753f38;fill-opacity:1;stroke:#573229;stroke-width:2.38125;stroke-dasharray:none;stroke-opacity:1"><path d="M4385.26 3090.286h91.946v61.383h-91.946z" style="fill:#83473f;fill-opacity:1;fill-rule:evenodd;stroke:#562f29;stroke-width:2.38125;stroke-linecap:round;stroke-linejoin:round;stroke-dasharray:none;stroke-opacity:1" transform="translate(-4557.805 -2986.443)"/></g><path d="M560.17 1132.77v-13.224h45.973v13.224z" style="fill:#78413a;fill-opacity:1;fill-rule:evenodd;stroke:#562f29;stroke-width:1.5875;stroke-linecap:round;stroke-linejoin:round;stroke-dasharray:none;stroke-opacity:1" transform="translate(-732.715 -978.399)"/><path d="M606.143 1132.77v-13.224h45.973v13.224zm-45.973 10.855v-10.855h22.251v10.855zm0-24.079v-13.225h22.251v13.224zm22.251 24.079v-10.855h47.444v10.855zm0-24.079v-13.225h47.444v13.224z" style="fill:#83473f;fill-opacity:1;fill-rule:evenodd;stroke:#562f29;stroke-width:1.5875;stroke-linecap:round;stroke-linejoin:round;stroke-dasharray:none;stroke-opacity:1" transform="translate(-732.715 -978.399)"/><path d="M629.865 1143.625v-10.855h22.251v10.855zm0-24.079v-13.225h22.251v13.224zm-69.695-13.225v-13.224h45.973v13.224z" style="fill:#78413a;fill-opacity:1;fill-rule:evenodd;stroke:#562f29;stroke-width:1.5875;stroke-linecap:round;stroke-linejoin:round;stroke-dasharray:none;stroke-opacity:1" transform="translate(-732.715 -978.399)"/><path d="M606.143 1106.321v-13.224h45.973v13.224zm-45.973-13.224v-10.855h22.251v10.855z" style="fill:#83473f;fill-opacity:1;fill-rule:evenodd;stroke:#562f29;stroke-width:1.5875;stroke-linecap:round;stroke-linejoin:round;stroke-dasharray:none;stroke-opacity:1" transform="translate(-732.715 -978.399)"/><path d="M582.421 1093.097v-10.855h47.444v10.855z" style="fill:#78413a;fill-opacity:1;fill-rule:evenodd;stroke:#562f29;stroke-width:1.5875;stroke-linecap:round;stroke-linejoin:round;stroke-dasharray:none;stroke-opacity:1" transform="translate(-732.715 -978.399)"/><path d="M629.865 1093.097v-10.855h22.251v10.855z" style="fill:#83473f;fill-opacity:1;fill-rule:evenodd;stroke:#562f29;stroke-width:1.5875;stroke-linecap:round;stroke-linejoin:round;stroke-dasharray:none;stroke-opacity:1" transform="translate(-732.715 -978.399)"/><g style="fill:none;fill-opacity:1;stroke:#573229;stroke-width:2.38125;stroke-dasharray:none;stroke-opacity:1"><path d="M4385.26 3090.286h91.946v61.383h-91.946z" style="fill:none;fill-opacity:1;fill-rule:evenodd;stroke:#562f29;stroke-width:2.38125;stroke-linecap:round;stroke-linejoin:round;stroke-dasharray:none;stroke-opacity:1" transform="translate(-4557.805 -2986.443)"/></g><path d="M55.381 348.784h59.5" style="fill:#504030;fill-opacity:1;fill-rule:evenodd;stroke:#504030;stroke-width:1.85208;stroke-linecap:round;stroke-linejoin:round;stroke-dasharray:none;stroke-opacity:1" transform="translate(-218.695 -242.214)"/><path d="M176.762 355.63a9.97 9.97 0 0 0-4.984 1.334 9.97 9.97 0 0 0-3.626 3.612 15.7 15.7 0 0 0-5.676 1.944 15.664 15.664 0 0 0-5.733 21.397 15.664 15.664 0 0 0 21.397 5.734 15.664 15.664 0 0 0 6.987-18.636 9.97 9.97 0 0 0 .267-10.402 9.97 9.97 0 0 0-8.632-4.984zm130.668 9.617a13.14 13.14 0 0 0-8.8 3.84 13.14 13.14 0 0 0 0 18.582 13.14 13.14 0 0 0 7.813 3.765 8.4 8.4 0 0 0 1.57 2.194 8.36 8.36 0 0 0 11.826 0 8.36 8.36 0 0 0 .577-11.186 13.14 13.14 0 0 0-3.202-13.356 13.14 13.14 0 0 0-9.784-3.84m54.463 2.724a8.4 8.4 0 0 0-1.856.247 8.36 8.36 0 0 0-4.465 2.847 13.14 13.14 0 0 0-11.47-2.566 13.14 13.14 0 0 0-9.57 15.93 13.14 13.14 0 0 0 15.93 9.569 13 13 0 0 0 3.18-1.251 8.36 8.36 0 0 0 6.896 1.324 8.36 8.36 0 0 0 6.09-10.137 8 8 0 0 0-.147-.505 8.36 8.36 0 0 0 3.693-9.121 8.36 8.36 0 0 0-8.281-6.337" style="opacity:.6;fill:#3b3b3b;fill-opacity:1;fill-rule:evenodd;stroke:none;stroke-width:1.79751;stroke-linecap:round;stroke-linejoin:round;stroke-dasharray:none;stroke-opacity:1" transform="translate(-218.695 -242.214)"/><path d="M48.47 86.52h342.415v261.774H48.47Z" style="fill:#6d5841;fill-opacity:1;fill-rule:evenodd;stroke:#504030;stroke-width:2.11667;stroke-linecap:round;stroke-linejoin:round;stroke-dasharray:none;stroke-opacity:1" transform="translate(-218.695 -242.214)"/><path d="M932.532 489.784h13.225v23.42h-13.225zm26.449 0h13.224v23.42h-13.224zm26.449 0h13.224v23.42H985.43zm26.449 0h13.224v23.42h-13.224zm26.448 0h13.225v23.42h-13.225zm26.449 0H1078v23.42h-13.224zm26.449 0h13.224v23.42h-13.224zm26.449 0h13.224v23.42h-13.224z" style="fill:#705a43;fill-opacity:1;fill-rule:evenodd;stroke:#504030;stroke-width:1.5875;stroke-linecap:round;stroke-linejoin:round;stroke-dasharray:none;stroke-opacity:1" transform="translate(-1102.889 -645.478)"/><path d="M932.532 513.203h13.225v47.444h-13.225zm26.449 0h13.224v47.444h-13.224zm26.449 0h13.224v47.444H985.43zm26.449 0h13.224v47.444h-13.224zm26.448 0h13.225v47.444h-13.225z" style="fill:#705a43;fill-opacity:1;fill-rule:evenodd;stroke:#504030;stroke-width:1.5875;stroke-linecap:round;stroke-linejoin:round;stroke-dasharray:none;stroke-opacity:1" transform="translate(-1102.889 -645.478)"/><path d="M1064.776 513.203H1078v47.444h-13.224z" style="fill:#66533d;fill-opacity:1;fill-rule:evenodd;stroke:#504030;stroke-width:1.5875;stroke-linecap:round;stroke-linejoin:round;stroke-dasharray:none;stroke-opacity:1" transform="translate(-1102.889 -645.478)"/><path d="M1091.225 513.203h13.224v47.444h-13.224zm26.449 0h13.224v47.444h-13.224zm-185.142 47.444h13.225v47.444h-13.225zm26.449 0h13.224v47.444h-13.224zm26.449 0h13.224v47.444H985.43zm26.449 0h13.224v47.444h-13.224z" style="fill:#705a43;fill-opacity:1;fill-rule:evenodd;stroke:#504030;stroke-width:1.5875;stroke-linecap:round;stroke-linejoin:round;stroke-dasharray:none;stroke-opacity:1" transform="translate(-1102.889 -645.478)"/><path d="M1038.327 560.647h13.225v47.444h-13.225z" style="fill:#66533d;fill-opacity:1;fill-rule:evenodd;stroke:#504030;stroke-width:1.5875;stroke-linecap:round;stroke-linejoin:round;stroke-dasharray:none;stroke-opacity:1" transform="translate(-1102.889 -645.478)"/><path d="M1064.776 560.647H1078v47.444h-13.224zm26.449 0h13.224v47.444h-13.224zm26.449 0h13.224v47.444h-13.224zm-185.142 47.444h13.225v47.444h-13.225zm26.449 0h13.224v47.444h-13.224z" style="fill:#705a43;fill-opacity:1;fill-rule:evenodd;stroke:#504030;stroke-width:1.5875;stroke-linecap:round;stroke-linejoin:round;stroke-dasharray:none;stroke-opacity:1" transform="translate(-1102.889 -645.478)"/><path d="M985.43 608.091h13.224v47.444H985.43z" style="fill:#66533d;fill-opacity:1;fill-rule:evenodd;stroke:#504030;stroke-width:1.5875;stroke-linecap:round;stroke-linejoin:round;stroke-dasharray:none;stroke-opacity:1" transform="translate(-1102.889 -645.478)"/><path d="M1011.879 608.091h13.224v47.444h-13.224zm26.448 0h13.225v47.444h-13.225zm26.449 0H1078v47.444h-13.224z" style="fill:#705a43;fill-opacity:1;fill-rule:evenodd;stroke:#504030;stroke-width:1.5875;stroke-linecap:round;stroke-linejoin:round;stroke-dasharray:none;stroke-opacity:1" transform="translate(-1102.889 -645.478)"/><path d="M1091.225 608.091h13.224v47.444h-13.224zm26.449 0h13.224v47.444h-13.224z" style="fill:#66533d;fill-opacity:1;fill-rule:evenodd;stroke:#504030;stroke-width:1.5875;stroke-linecap:round;stroke-linejoin:round;stroke-dasharray:none;stroke-opacity:1" transform="translate(-1102.889 -645.478)"/><path d="M945.757 489.784h13.224v47.141h-13.224z" style="fill:#705a43;fill-opacity:1;fill-rule:evenodd;stroke:#504030;stroke-width:1.5875;stroke-linecap:round;stroke-linejoin:round;stroke-dasharray:none;stroke-opacity:1" transform="translate(-1102.889 -645.478)"/><path d="M972.206 489.784h13.224v47.141h-13.224Zm26.448 0h13.225v47.141h-13.225z" style="fill:#66533d;fill-opacity:1;fill-rule:evenodd;stroke:#504030;stroke-width:1.5875;stroke-linecap:round;stroke-linejoin:round;stroke-dasharray:none;stroke-opacity:1" transform="translate(-1102.889 -645.478)"/><path d="M1025.103 489.784h13.224v47.141h-13.224zm26.449 0h13.224v47.141h-13.224zm26.448 0h13.225v47.141H1078z" style="fill:#705a43;fill-opacity:1;fill-rule:evenodd;stroke:#504030;stroke-width:1.5875;stroke-linecap:round;stroke-linejoin:round;stroke-dasharray:none;stroke-opacity:1" transform="translate(-1102.889 -645.478)"/><path d="M1104.45 489.784h13.223v47.141h-13.224z" style="fill:#66533d;fill-opacity:1;fill-rule:evenodd;stroke:#504030;stroke-width:1.5875;stroke-linecap:round;stroke-linejoin:round;stroke-dasharray:none;stroke-opacity:1" transform="translate(-1102.889 -645.478)"/><path d="M1130.898 489.784h13.224v47.141h-13.224z" style="fill:#705a43;fill-opacity:1;fill-rule:evenodd;stroke:#504030;stroke-width:1.5875;stroke-linecap:round;stroke-linejoin:round;stroke-dasharray:none;stroke-opacity:1" transform="translate(-1102.889 -645.478)"/><path d="M945.757 536.925h13.224v47.444h-13.224z" style="fill:#66533d;fill-opacity:1;fill-rule:evenodd;stroke:#504030;stroke-width:1.5875;stroke-linecap:round;stroke-linejoin:round;stroke-dasharray:none;stroke-opacity:1" transform="translate(-1102.889 -645.478)"/><path d="M972.206 536.925h13.224v47.444h-13.224Zm26.448 0h13.225v47.444h-13.225z" style="fill:#705a43;fill-opacity:1;fill-rule:evenodd;stroke:#504030;stroke-width:1.5875;stroke-linecap:round;stroke-linejoin:round;stroke-dasharray:none;stroke-opacity:1" transform="translate(-1102.889 -645.478)"/><path d="M1025.103 536.925h13.224v47.444h-13.224z" style="fill:#66533d;fill-opacity:1;fill-rule:evenodd;stroke:#504030;stroke-width:1.5875;stroke-linecap:round;stroke-linejoin:round;stroke-dasharray:none;stroke-opacity:1" transform="translate(-1102.889 -645.478)"/><path d="M1051.552 536.925h13.224v47.444h-13.224z" style="fill:#705a43;fill-opacity:1;fill-rule:evenodd;stroke:#504030;stroke-width:1.5875;stroke-linecap:round;stroke-linejoin:round;stroke-dasharray:none;stroke-opacity:1" transform="translate(-1102.889 -645.478)"/><path d="M1078 536.925h13.225v47.444H1078z" style="fill:#66533d;fill-opacity:1;fill-rule:evenodd;stroke:#504030;stroke-width:1.5875;stroke-linecap:round;stroke-linejoin:round;stroke-dasharray:none;stroke-opacity:1" transform="translate(-1102.889 -645.478)"/><path d="M1104.45 536.925h13.223v47.444h-13.224z" style="fill:#705a43;fill-opacity:1;fill-rule:evenodd;stroke:#504030;stroke-width:1.5875;stroke-linecap:round;stroke-linejoin:round;stroke-dasharray:none;stroke-opacity:1" transform="translate(-1102.889 -645.478)"/><path d="M1130.898 536.925h13.224v47.444h-13.224z" style="fill:#66533d;fill-opacity:1;fill-rule:evenodd;stroke:#504030;stroke-width:1.5875;stroke-linecap:round;stroke-linejoin:round;stroke-dasharray:none;stroke-opacity:1" transform="translate(-1102.889 -645.478)"/><path d="M945.757 584.37h13.224v47.443h-13.224z" style="fill:#705a43;fill-opacity:1;fill-rule:evenodd;stroke:#504030;stroke-width:1.5875;stroke-linecap:round;stroke-linejoin:round;stroke-dasharray:none;stroke-opacity:1" transform="translate(-1102.889 -645.478)"/><path d="M972.206 584.37h13.224v47.443h-13.224Zm26.448 0h13.225v47.443h-13.225z" style="fill:#66533d;fill-opacity:1;fill-rule:evenodd;stroke:#504030;stroke-width:1.5875;stroke-linecap:round;stroke-linejoin:round;stroke-dasharray:none;stroke-opacity:1" transform="translate(-1102.889 -645.478)"/><path d="M1025.103 584.37h13.224v47.443h-13.224z" style="fill:#705a43;fill-opacity:1;fill-rule:evenodd;stroke:#504030;stroke-width:1.5875;stroke-linecap:round;stroke-linejoin:round;stroke-dasharray:none;stroke-opacity:1" transform="translate(-1102.889 -645.478)"/><path d="M1051.552 584.37h13.224v47.443h-13.224z" style="fill:#66533d;fill-opacity:1;fill-rule:evenodd;stroke:#504030;stroke-width:1.5875;stroke-linecap:round;stroke-linejoin:round;stroke-dasharray:none;stroke-opacity:1" transform="translate(-1102.889 -645.478)"/><path d="M1078 584.37h13.225v47.443H1078zm26.45 0h13.223v47.443h-13.224zm26.448 0h13.224v47.443h-13.224z" style="fill:#705a43;fill-opacity:1;fill-rule:evenodd;stroke:#504030;stroke-width:1.5875;stroke-linecap:round;stroke-linejoin:round;stroke-dasharray:none;stroke-opacity:1" transform="translate(-1102.889 -645.478)"/><path d="M945.757 631.813h13.224v47.444h-13.224z" style="fill:#66533d;fill-opacity:1;fill-rule:evenodd;stroke:#504030;stroke-width:1.5875;stroke-linecap:round;stroke-linejoin:round;stroke-dasharray:none;stroke-opacity:1" transform="translate(-1102.889 -645.478)"/><path d="M972.206 631.813h13.224v47.444h-13.224Zm26.448 0h13.225v47.444h-13.225zm26.449 0h13.224v47.444h-13.224zm26.449 0h13.224v47.444h-13.224z" style="fill:#705a43;fill-opacity:1;fill-rule:evenodd;stroke:#504030;stroke-width:1.5875;stroke-linecap:round;stroke-linejoin:round;stroke-dasharray:none;stroke-opacity:1" transform="translate(-1102.889 -645.478)"/><path d="M1078 631.813h13.225v47.444H1078z" style="fill:#66533d;fill-opacity:1;fill-rule:evenodd;stroke:#504030;stroke-width:1.5875;stroke-linecap:round;stroke-linejoin:round;stroke-dasharray:none;stroke-opacity:1" transform="translate(-1102.889 -645.478)"/><path d="M1104.45 631.813h13.223v47.444h-13.224z" style="fill:#705a43;fill-opacity:1;fill-rule:evenodd;stroke:#504030;stroke-width:1.5875;stroke-linecap:round;stroke-linejoin:round;stroke-dasharray:none;stroke-opacity:1" transform="translate(-1102.889 -645.478)"/><path d="M1130.898 631.813h13.224v47.444h-13.224z" style="fill:#66533d;fill-opacity:1;fill-rule:evenodd;stroke:#504030;stroke-width:1.5875;stroke-linecap:round;stroke-linejoin:round;stroke-dasharray:none;stroke-opacity:1" transform="translate(-1102.889 -645.478)"/><path d="M932.532 655.535h13.225v47.444h-13.225zm26.449 0h13.224v47.444h-13.224zm26.449 0h13.224v47.444H985.43zm26.449 0h13.224v47.444h-13.224zm26.448 0h13.225v47.444h-13.225zm26.449 0H1078v47.444h-13.224zm26.449 0h13.224v47.444h-13.224zm26.449 0h13.224v47.444h-13.224z" style="fill:#705a43;fill-opacity:1;fill-rule:evenodd;stroke:#504030;stroke-width:1.5875;stroke-linecap:round;stroke-linejoin:round;stroke-dasharray:none;stroke-opacity:1" transform="translate(-1102.889 -645.478)"/><path d="M932.532 702.98h13.225v48.577h-13.225z" style="fill:#66533d;fill-opacity:1;fill-rule:evenodd;stroke:#504030;stroke-width:1.5875;stroke-linecap:round;stroke-linejoin:round;stroke-dasharray:none;stroke-opacity:1" transform="translate(-1102.889 -645.478)"/><path d="M958.981 702.98h13.224v48.577h-13.224zm26.449 0h13.224v48.577H985.43zm26.449 0h13.224v48.577h-13.224zm26.448 0h13.225v48.577h-13.225zm26.449 0H1078v48.577h-13.224zm26.449 0h13.224v48.577h-13.224z" style="fill:#705a43;fill-opacity:1;fill-rule:evenodd;stroke:#504030;stroke-width:1.5875;stroke-linecap:round;stroke-linejoin:round;stroke-dasharray:none;stroke-opacity:1" transform="translate(-1102.889 -645.478)"/><path d="M1117.674 702.98h13.224v48.577h-13.224z" style="fill:#66533d;fill-opacity:1;fill-rule:evenodd;stroke:#504030;stroke-width:1.5875;stroke-linecap:round;stroke-linejoin:round;stroke-dasharray:none;stroke-opacity:1" transform="translate(-1102.889 -645.478)"/><path d="M945.757 679.257h13.224v47.444h-13.224z" style="fill:#705a43;fill-opacity:1;fill-rule:evenodd;stroke:#504030;stroke-width:1.5875;stroke-linecap:round;stroke-linejoin:round;stroke-dasharray:none;stroke-opacity:1" transform="translate(-1102.889 -645.478)"/><path d="M972.206 679.257h13.224v47.444h-13.224Z" style="fill:#66533d;fill-opacity:1;fill-rule:evenodd;stroke:#504030;stroke-width:1.5875;stroke-linecap:round;stroke-linejoin:round;stroke-dasharray:none;stroke-opacity:1" transform="translate(-1102.889 -645.478)"/><path d="M998.654 679.257h13.225v47.444h-13.225zm26.449 0h13.224v47.444h-13.224z" style="fill:#705a43;fill-opacity:1;fill-rule:evenodd;stroke:#504030;stroke-width:1.5875;stroke-linecap:round;stroke-linejoin:round;stroke-dasharray:none;stroke-opacity:1" transform="translate(-1102.889 -645.478)"/><path d="M1051.552 679.257h13.224v47.444h-13.224z" style="fill:#66533d;fill-opacity:1;fill-rule:evenodd;stroke:#504030;stroke-width:1.5875;stroke-linecap:round;stroke-linejoin:round;stroke-dasharray:none;stroke-opacity:1" transform="translate(-1102.889 -645.478)"/><path d="M1078 679.257h13.225v47.444H1078z" style="fill:#705a43;fill-opacity:1;fill-rule:evenodd;stroke:#504030;stroke-width:1.5875;stroke-linecap:round;stroke-linejoin:round;stroke-dasharray:none;stroke-opacity:1" transform="translate(-1102.889 -645.478)"/><path d="M1104.45 679.257h13.223v47.444h-13.224z" style="fill:#66533d;fill-opacity:1;fill-rule:evenodd;stroke:#504030;stroke-width:1.5875;stroke-linecap:round;stroke-linejoin:round;stroke-dasharray:none;stroke-opacity:1" transform="translate(-1102.889 -645.478)"/><path d="M1130.898 679.257h13.224v47.444h-13.224zm-185.141 47.444h13.224v24.856h-13.224zm26.449 0h13.224v24.856h-13.224Z" style="fill:#705a43;fill-opacity:1;fill-rule:evenodd;stroke:#504030;stroke-width:1.5875;stroke-linecap:round;stroke-linejoin:round;stroke-dasharray:none;stroke-opacity:1" transform="translate(-1102.889 -645.478)"/><path d="M998.654 726.701h13.225v24.856h-13.225z" style="fill:#66533d;fill-opacity:1;fill-rule:evenodd;stroke:#504030;stroke-width:1.5875;stroke-linecap:round;stroke-linejoin:round;stroke-dasharray:none;stroke-opacity:1" transform="translate(-1102.889 -645.478)"/><path d="M1025.103 726.701h13.224v24.856h-13.224zm26.449 0h13.224v24.856h-13.224zm26.448 0h13.225v24.856H1078zm26.45 0h13.223v24.856h-13.224zm26.448 0h13.224v24.856h-13.224zm13.224-71.166h13.225v47.444h-13.225z" style="fill:#705a43;fill-opacity:1;fill-rule:evenodd;stroke:#504030;stroke-width:1.5875;stroke-linecap:round;stroke-linejoin:round;stroke-dasharray:none;stroke-opacity:1" transform="translate(-1102.889 -645.478)"/><path d="M1170.571 655.535h13.224v47.444h-13.224z" style="fill:#66533d;fill-opacity:1;fill-rule:evenodd;stroke:#504030;stroke-width:1.5875;stroke-linecap:round;stroke-linejoin:round;stroke-dasharray:none;stroke-opacity:1" transform="translate(-1102.889 -645.478)"/><path d="M1197.02 655.535h13.224v47.444h-13.224zm26.449 0h13.224v47.444h-13.224z" style="fill:#705a43;fill-opacity:1;fill-rule:evenodd;stroke:#504030;stroke-width:1.5875;stroke-linecap:round;stroke-linejoin:round;stroke-dasharray:none;stroke-opacity:1" transform="translate(-1102.889 -645.478)"/><path d="M1249.917 655.535h13.225v47.444h-13.225z" style="fill:#66533d;fill-opacity:1;fill-rule:evenodd;stroke:#504030;stroke-width:1.5875;stroke-linecap:round;stroke-linejoin:round;stroke-dasharray:none;stroke-opacity:1" transform="translate(-1102.889 -645.478)"/><path d="M1144.122 702.98h13.225v48.577h-13.225zm26.449 0h13.224v48.577h-13.224zm26.449 0h13.224v48.577h-13.224z" style="fill:#705a43;fill-opacity:1;fill-rule:evenodd;stroke:#504030;stroke-width:1.5875;stroke-linecap:round;stroke-linejoin:round;stroke-dasharray:none;stroke-opacity:1" transform="translate(-1102.889 -645.478)"/><path d="M1223.469 702.98h13.224v48.577h-13.224z" style="fill:#66533d;fill-opacity:1;fill-rule:evenodd;stroke:#504030;stroke-width:1.5875;stroke-linecap:round;stroke-linejoin:round;stroke-dasharray:none;stroke-opacity:1" transform="translate(-1102.889 -645.478)"/><path d="M1249.917 702.98h13.225v48.577h-13.225z" style="fill:#705a43;fill-opacity:1;fill-rule:evenodd;stroke:#504030;stroke-width:1.5875;stroke-linecap:round;stroke-linejoin:round;stroke-dasharray:none;stroke-opacity:1" transform="translate(-1102.889 -645.478)"/><path d="M1157.347 679.257h13.224v47.444h-13.224z" style="fill:#66533d;fill-opacity:1;fill-rule:evenodd;stroke:#504030;stroke-width:1.5875;stroke-linecap:round;stroke-linejoin:round;stroke-dasharray:none;stroke-opacity:1" transform="translate(-1102.889 -645.478)"/><path d="M1183.796 679.257h13.224v47.444h-13.224z" style="fill:#705a43;fill-opacity:1;fill-rule:evenodd;stroke:#504030;stroke-width:1.5875;stroke-linecap:round;stroke-linejoin:round;stroke-dasharray:none;stroke-opacity:1" transform="translate(-1102.889 -645.478)"/><path d="M1210.244 679.257h13.225v47.444h-13.225z" style="fill:#66533d;fill-opacity:1;fill-rule:evenodd;stroke:#504030;stroke-width:1.5875;stroke-linecap:round;stroke-linejoin:round;stroke-dasharray:none;stroke-opacity:1" transform="translate(-1102.889 -645.478)"/><path d="M1236.693 679.257h13.224v47.444h-13.224z" style="fill:#705a43;fill-opacity:1;fill-rule:evenodd;stroke:#504030;stroke-width:1.5875;stroke-linecap:round;stroke-linejoin:round;stroke-dasharray:none;stroke-opacity:1" transform="translate(-1102.889 -645.478)"/><path d="M1263.142 679.257h12.07v47.444h-12.07z" style="fill:#66533d;fill-opacity:1;fill-rule:evenodd;stroke:#504030;stroke-width:1.5875;stroke-linecap:round;stroke-linejoin:round;stroke-dasharray:none;stroke-opacity:1" transform="translate(-1102.889 -645.478)"/><path d="M1157.347 726.701h13.224v24.856h-13.224z" style="fill:#705a43;fill-opacity:1;fill-rule:evenodd;stroke:#504030;stroke-width:1.5875;stroke-linecap:round;stroke-linejoin:round;stroke-dasharray:none;stroke-opacity:1" transform="translate(-1102.889 -645.478)"/><path d="M1183.796 726.701h13.224v24.856h-13.224z" style="fill:#66533d;fill-opacity:1;fill-rule:evenodd;stroke:#504030;stroke-width:1.5875;stroke-linecap:round;stroke-linejoin:round;stroke-dasharray:none;stroke-opacity:1" transform="translate(-1102.889 -645.478)"/><path d="M1210.244 726.701h13.225v24.856h-13.225z" style="fill:#705a43;fill-opacity:1;fill-rule:evenodd;stroke:#504030;stroke-width:1.5875;stroke-linecap:round;stroke-linejoin:round;stroke-dasharray:none;stroke-opacity:1" transform="translate(-1102.889 -645.478)"/><path d="M1236.693 726.701h13.224v24.856h-13.224z" style="fill:#66533d;fill-opacity:1;fill-rule:evenodd;stroke:#504030;stroke-width:1.5875;stroke-linecap:round;stroke-linejoin:round;stroke-dasharray:none;stroke-opacity:1" transform="translate(-1102.889 -645.478)"/><path d="M1263.142 726.701h12.07v24.856h-12.07z" style="fill:#705a43;fill-opacity:1;fill-rule:evenodd;stroke:#504030;stroke-width:1.5875;stroke-linecap:round;stroke-linejoin:round;stroke-dasharray:none;stroke-opacity:1" transform="translate(-1102.889 -645.478)"/><path d="M1144.122 489.784h13.225v23.42h-13.225z" style="fill:#66533d;fill-opacity:1;fill-rule:evenodd;stroke:#504030;stroke-width:1.5875;stroke-linecap:round;stroke-linejoin:round;stroke-dasharray:none;stroke-opacity:1" transform="translate(-1102.889 -645.478)"/><path d="M1170.571 489.784h13.224v23.42h-13.224zm26.449 0h13.224v23.42h-13.224z" style="fill:#705a43;fill-opacity:1;fill-rule:evenodd;stroke:#504030;stroke-width:1.5875;stroke-linecap:round;stroke-linejoin:round;stroke-dasharray:none;stroke-opacity:1" transform="translate(-1102.889 -645.478)"/><path d="M1223.469 489.784h13.224v23.42h-13.224z" style="fill:#66533d;fill-opacity:1;fill-rule:evenodd;stroke:#504030;stroke-width:1.5875;stroke-linecap:round;stroke-linejoin:round;stroke-dasharray:none;stroke-opacity:1" transform="translate(-1102.889 -645.478)"/><path d="M1249.917 489.784h13.225v23.42h-13.225zm-105.795 23.419h13.225v47.444h-13.225zm26.449 0h13.224v47.444h-13.224zm26.449 0h13.224v47.444h-13.224zm26.449 0h13.224v47.444h-13.224z" style="fill:#705a43;fill-opacity:1;fill-rule:evenodd;stroke:#504030;stroke-width:1.5875;stroke-linecap:round;stroke-linejoin:round;stroke-dasharray:none;stroke-opacity:1" transform="translate(-1102.889 -645.478)"/><path d="M1249.917 513.203h13.225v47.444h-13.225zm-105.795 47.444h13.225v47.444h-13.225zm26.449 0h13.224v47.444h-13.224zm26.449 0h13.224v47.444h-13.224zm26.449 0h13.224v47.444h-13.224zm26.448 0h13.225v47.444h-13.225zm-105.795 47.444h13.225v47.444h-13.225zm26.449 0h13.224v47.444h-13.224zm26.449 0h13.224v47.444h-13.224zm26.449 0h13.224v47.444h-13.224zm26.448 0h13.225v47.444h-13.225z" style="fill:#705a43;fill-opacity:1;fill-rule:evenodd;stroke:#504030;stroke-width:1.5875;stroke-linecap:round;stroke-linejoin:round;stroke-dasharray:none;stroke-opacity:1" transform="translate(-1102.889 -645.478)"/><path d="M1157.347 489.784h13.224v47.141h-13.224z" style="fill:#66533d;fill-opacity:1;fill-rule:evenodd;stroke:#504030;stroke-width:1.5875;stroke-linecap:round;stroke-linejoin:round;stroke-dasharray:none;stroke-opacity:1" transform="translate(-1102.889 -645.478)"/><path d="M1183.796 489.784h13.224v47.141h-13.224z" style="fill:#705a43;fill-opacity:1;fill-rule:evenodd;stroke:#504030;stroke-width:1.5875;stroke-linecap:round;stroke-linejoin:round;stroke-dasharray:none;stroke-opacity:1" transform="translate(-1102.889 -645.478)"/><path d="M1210.244 489.784h13.225v47.141h-13.225z" style="fill:#66533d;fill-opacity:1;fill-rule:evenodd;stroke:#504030;stroke-width:1.5875;stroke-linecap:round;stroke-linejoin:round;stroke-dasharray:none;stroke-opacity:1" transform="translate(-1102.889 -645.478)"/><path d="M1236.693 489.784h13.224v47.141h-13.224z" style="fill:#705a43;fill-opacity:1;fill-rule:evenodd;stroke:#504030;stroke-width:1.5875;stroke-linecap:round;stroke-linejoin:round;stroke-dasharray:none;stroke-opacity:1" transform="translate(-1102.889 -645.478)"/><path d="M1263.142 489.784h12.07v47.141h-12.07z" style="fill:#66533d;fill-opacity:1;fill-rule:evenodd;stroke:#504030;stroke-width:1.5875;stroke-linecap:round;stroke-linejoin:round;stroke-dasharray:none;stroke-opacity:1" transform="translate(-1102.889 -645.478)"/><path d="M1157.347 536.925h13.224v47.444h-13.224z" style="fill:#705a43;fill-opacity:1;fill-rule:evenodd;stroke:#504030;stroke-width:1.5875;stroke-linecap:round;stroke-linejoin:round;stroke-dasharray:none;stroke-opacity:1" transform="translate(-1102.889 -645.478)"/><path d="M1183.796 536.925h13.224v47.444h-13.224z" style="fill:#66533d;fill-opacity:1;fill-rule:evenodd;stroke:#504030;stroke-width:1.5875;stroke-linecap:round;stroke-linejoin:round;stroke-dasharray:none;stroke-opacity:1" transform="translate(-1102.889 -645.478)"/><path d="M1210.244 536.925h13.225v47.444h-13.225z" style="fill:#705a43;fill-opacity:1;fill-rule:evenodd;stroke:#504030;stroke-width:1.5875;stroke-linecap:round;stroke-linejoin:round;stroke-dasharray:none;stroke-opacity:1" transform="translate(-1102.889 -645.478)"/><path d="M1236.693 536.925h13.224v47.444h-13.224z" style="fill:#66533d;fill-opacity:1;fill-rule:evenodd;stroke:#504030;stroke-width:1.5875;stroke-linecap:round;stroke-linejoin:round;stroke-dasharray:none;stroke-opacity:1" transform="translate(-1102.889 -645.478)"/><path d="M1263.142 536.925h12.07v47.444h-12.07z" style="fill:#705a43;fill-opacity:1;fill-rule:evenodd;stroke:#504030;stroke-width:1.5875;stroke-linecap:round;stroke-linejoin:round;stroke-dasharray:none;stroke-opacity:1" transform="translate(-1102.889 -645.478)"/><path d="M1157.347 584.37h13.224v47.443h-13.224z" style="fill:#66533d;fill-opacity:1;fill-rule:evenodd;stroke:#504030;stroke-width:1.5875;stroke-linecap:round;stroke-linejoin:round;stroke-dasharray:none;stroke-opacity:1" transform="translate(-1102.889 -645.478)"/><path d="M1183.796 584.37h13.224v47.443h-13.224z" style="fill:#705a43;fill-opacity:1;fill-rule:evenodd;stroke:#504030;stroke-width:1.5875;stroke-linecap:round;stroke-linejoin:round;stroke-dasharray:none;stroke-opacity:1" transform="translate(-1102.889 -645.478)"/><path d="M1210.244 584.37h13.225v47.443h-13.225z" style="fill:#66533d;fill-opacity:1;fill-rule:evenodd;stroke:#504030;stroke-width:1.5875;stroke-linecap:round;stroke-linejoin:round;stroke-dasharray:none;stroke-opacity:1" transform="translate(-1102.889 -645.478)"/><path d="M1236.693 584.37h13.224v47.443h-13.224z" style="fill:#705a43;fill-opacity:1;fill-rule:evenodd;stroke:#504030;stroke-width:1.5875;stroke-linecap:round;stroke-linejoin:round;stroke-dasharray:none;stroke-opacity:1" transform="translate(-1102.889 -645.478)"/><path d="M1263.142 584.37h12.07v47.443h-12.07z" style="fill:#66533d;fill-opacity:1;fill-rule:evenodd;stroke:#504030;stroke-width:1.5875;stroke-linecap:round;stroke-linejoin:round;stroke-dasharray:none;stroke-opacity:1" transform="translate(-1102.889 -645.478)"/><path d="M1157.347 631.813h13.224v47.444h-13.224z" style="fill:#705a43;fill-opacity:1;fill-rule:evenodd;stroke:#504030;stroke-width:1.5875;stroke-linecap:round;stroke-linejoin:round;stroke-dasharray:none;stroke-opacity:1" transform="translate(-1102.889 -645.478)"/><path d="M1183.796 631.813h13.224v47.444h-13.224z" style="fill:#66533d;fill-opacity:1;fill-rule:evenodd;stroke:#504030;stroke-width:1.5875;stroke-linecap:round;stroke-linejoin:round;stroke-dasharray:none;stroke-opacity:1" transform="translate(-1102.889 -645.478)"/><path d="M1210.244 631.813h13.225v47.444h-13.225z" style="fill:#705a43;fill-opacity:1;fill-rule:evenodd;stroke:#504030;stroke-width:1.5875;stroke-linecap:round;stroke-linejoin:round;stroke-dasharray:none;stroke-opacity:1" transform="translate(-1102.889 -645.478)"/><path d="M1236.693 631.813h13.224v47.444h-13.224z" style="fill:#66533d;fill-opacity:1;fill-rule:evenodd;stroke:#504030;stroke-width:1.5875;stroke-linecap:round;stroke-linejoin:round;stroke-dasharray:none;stroke-opacity:1" transform="translate(-1102.889 -645.478)"/><path d="M1263.142 631.813h12.07v47.444h-12.07z" style="fill:#705a43;fill-opacity:1;fill-rule:evenodd;stroke:#504030;stroke-width:1.5875;stroke-linecap:round;stroke-linejoin:round;stroke-dasharray:none;stroke-opacity:1" transform="translate(-1102.889 -645.478)"/><path d="m137.223 261.333 115.206.76v88.764H142.066Z" style="fill:url(#h);fill-rule:evenodd;stroke:#504030;stroke-width:1.85208;stroke-linecap:round;stroke-linejoin:round" transform="translate(-218.695 -242.214)"/><path d="M11859.766 2507.988h28.348v25.948h-28.348z" style="display:inline;fill:#4d4d4d;stroke-width:.481827;stroke-opacity:.575758;paint-order:markers stroke fill;stop-color:#000" transform="translate(-11900.223 -2688.89)"/><path d="M11861.218 2509.455h24.573v23.151h-24.573z" style="display:inline;fill:#666;stroke-width:.42989;stroke-opacity:.575758;paint-order:markers stroke fill;stop-color:#000" transform="translate(-11900.223 -2688.89)"/><path d="M11887.108 2507.987h27.542v25.948h-27.542z" style="display:inline;fill:#4d4d4d;stroke-width:.481827;stroke-opacity:.575758;paint-order:markers stroke fill;stop-color:#000" transform="translate(-11900.223 -2688.89)"/><path d="M11888.431 2509.454h24.573v23.151h-24.573z" style="display:inline;fill:#666;stroke-width:.42989;stroke-opacity:.575758;paint-order:markers stroke fill;stop-color:#000" transform="translate(-11900.223 -2688.89)"/><path d="M173.173 88.416h74.831" style="fill:#504030;fill-opacity:1;fill-rule:evenodd;stroke:#504030;stroke-width:2.11668;stroke-linecap:round;stroke-linejoin:round;stroke-dasharray:none;stroke-opacity:1" transform="translate(-218.695 -242.214)"/><path d="M394.322 174.023H260.869V91.318h133.453z" style="fill:url(#i);fill-rule:evenodd;stroke:#504030;stroke-width:1.85208;stroke-linecap:round;stroke-linejoin:round" transform="translate(-218.695 -242.214)"/><path d="M254.372 88.907v79.974h7.517V88.907Zm-86.232 59.707v37.37H52.903v7.516h122.754v-44.886zm-32.351 111.164v89.061h7.517v-81.544h48.263v-7.517zm112.683 0v89.061h7.517v-89.061z" style="display:inline;fill:#afa08c" transform="translate(-218.695 -242.214)"/><path d="m-128.464 611.355.242-260.289h123.19m63.77 0h155.455v260.289H-64.435" style="fill:none;fill-rule:evenodd;stroke:#3e322d;stroke-width:10.5833;stroke-linecap:square;stroke-opacity:1" transform="translate(-39.975 -505.099)"/><path d="m-128.467 611.358.07-44.212m.035-63.5.065-67.344.051-63.5.022-21.733h45.846m63.5 0h13.86m63.5 0h155.71v103.483m0 63.5v93.306h-278.63" style="fill:none;fill-opacity:0;fill-rule:evenodd;stroke:#a08f78;stroke-width:6.08542489;stroke-linecap:square;stroke-linejoin:miter;stroke-dasharray:none;stroke-opacity:1" transform="translate(-39.975 -505.099)"/><path d="m199.547 888.627-51.206.535-.188 2.041H84.834c-.616 0-1.112-.552-1.112 0v74.56c0 .552.496.997 1.112.997h114.713c.616 0 1.112-.445 1.112-.997v-76.14c0-.551-.496-1.002-1.112-.996" style="fill:#484848;fill-rule:evenodd;stroke-width:6.08542;stroke-linecap:square" transform="translate(-40.16 -867.79)"/><path d="M148.982 889.58h50.01" style="fill:#575552;fill-rule:evenodd;stroke:#333;stroke-width:2.11667;stroke-linecap:round;stroke-linejoin:round;stroke-opacity:1" transform="translate(-40.16 -867.79)"/><path d="M149.996 899.034a6.73 6.73 0 0 0-5.785 3.298 5.353 5.353 0 1 0-2.357 10.159 5.35 5.35 0 0 0 3.805-1.592 6.73 6.73 0 0 0 4.337 1.59 6.728 6.728 0 0 0 0-13.455m-43.13 32.295a4.846 4.846 0 0 0-4.846 4.846q0 .258.03.516a6.73 6.73 0 0 0-3.643 5.974 6.728 6.728 0 1 0 12.38-3.648c.6-.827.924-1.821.925-2.842a4.846 4.846 0 0 0-4.846-4.846m59.868 20.093a6.728 6.728 0 1 0 0 13.456 6.728 6.728 0 0 0 0-13.456" style="fill:#424242;fill-opacity:1;fill-rule:evenodd;stroke:none;stroke-width:6.08542;stroke-linecap:square;stroke-dasharray:none;stroke-opacity:1" transform="translate(-40.16 -867.79)"/><path d="M203.836 889.948v73.558H84.056V900.69l-.063-10.682 60.408-.06" style="fill:none;fill-opacity:.486275;fill-rule:evenodd;stroke:#262626;stroke-width:10.5104;stroke-linecap:square;stroke-linejoin:miter;stroke-dasharray:none;stroke-opacity:1" transform="translate(-40.16 -867.79)"/><path d="M203.836 890.008v73.498H83.993v-73.498h60.453" style="fill:none;fill-opacity:.486275;fill-rule:evenodd;stroke:#595959;stroke-width:6.04348;stroke-linecap:square;stroke-linejoin:miter;stroke-dasharray:none;stroke-opacity:1" transform="translate(-40.16 -867.79)"/></svg>