<?xml version="1.0" encoding="UTF-8" standalone="no"?>
<!-- Created with Inkscape (http://www.inkscape.org/) -->

<svg
   width="265.31186"
   height="220.812395"
   viewBox="0 0 140.39419 116.84656"
   version="1.1"
   id="svg1"
   xmlns="http://www.w3.org/2000/svg"
   xmlns:svg="http://www.w3.org/2000/svg">
  <defs
     id="defs1" />
  <g
     id="layer1"
     transform="translate(-58.208156,-52.387481)">
    <g
       id="g4"
       transform="translate(-3045.5934,-1238.2927)">
      <path
         style="fill:#273140;fill-opacity:1;stroke:#171717;stroke-width:2.3;stroke-linecap:round;stroke-linejoin:round;stroke-dasharray:none;stroke-opacity:1"
         d="m 3147.4272,1317.7662 -6.1026,8.7183 2.6154,6.7564 15.6927,-3.0512 -3.0514,-4.359 2.6154,-5.4488 z"
         id="path107-0" />
      <path
         style="fill:#273140;fill-opacity:1;stroke:#171717;stroke-width:2.3;stroke-linecap:round;stroke-linejoin:round;stroke-dasharray:none;stroke-opacity:1"
         d="m 3183.6129,1307.557 11.8039,11.308 -5.7304,1.5708 3.5419,7.015 -1.0419,10.2244 -24.395,-23.3702 4.9042,-4.4889 z"
         id="path22-6" />
      <path
         style="fill:#273140;fill-opacity:1;stroke:#171717;stroke-width:2.3;stroke-linecap:round;stroke-linejoin:round;stroke-dasharray:none;stroke-opacity:1"
         d="m 3188.8382,1300.1121 -3.2692,4.141 h 2.3974 l 6.1029,-3.4872 -0.218,-8.936 z"
         id="path104-9" />
      <path
         style="fill:#273140;fill-opacity:1;stroke:#171717;stroke-width:2.3;stroke-linecap:round;stroke-linejoin:round;stroke-dasharray:none;stroke-opacity:1"
         d="m 3144.8118,1307.0865 -3.2692,6.1029 h 6.7564 l 3.2695,-2.8334 z"
         id="path103-5" />
      <path
         style="fill:#273140;fill-opacity:1;stroke:#171717;stroke-width:2.3;stroke-linecap:round;stroke-linejoin:round;stroke-dasharray:none;stroke-opacity:1"
         d="m 3172.4917,1331.4973 -6.9744,3.7052 0.8718,1.9616 h 10.4619 l 0.6538,-6.5386 z"
         id="path102-52" />
      <g
         id="g34"
         transform="translate(-75.067829,76.708656)">
        <path
           style="fill:#273140;fill-opacity:1;stroke:#171717;stroke-width:2.3;stroke-linecap:round;stroke-linejoin:round;stroke-dasharray:none;stroke-opacity:1"
           d="m 3205.0588,1257.6219 h 8.0643 v 4.5771 z"
           id="path101-9" />
        <path
           style="fill:#273140;fill-opacity:1;stroke:#171717;stroke-width:2.3;stroke-linecap:round;stroke-linejoin:round;stroke-dasharray:none;stroke-opacity:1"
           d="m 3238.2313,1274.9338 -8.5915,2.3257 13.5572,6.5035 11.2089,-2.987 7.4622,7.2216 7.2268,-0.104 0.7144,9.4429 37.5008,17.1816 10.8036,-3.6929 -7.8546,-6.0988 7.6819,-2.652 -75.7927,-36.3578 -5.3396,2.5926 z"
           id="path28" />
        <path
           style="fill:#273140;fill-opacity:1;stroke:#171717;stroke-width:2.3;stroke-linecap:round;stroke-linejoin:round;stroke-dasharray:none;stroke-opacity:1"
           d="m 3285.8088,1268.3324 -1.5555,11.0614 h 15.7277 l -3.2838,-3.4567 7.0861,-12.271 -17.2832,-2.9381 -6.7404,6.3947 z"
           id="path31" />
        <path
           style="fill:#273140;fill-opacity:1;stroke:#171717;stroke-width:2.3;stroke-linecap:round;stroke-linejoin:round;stroke-dasharray:none;stroke-opacity:1"
           d="m 3252.6329,1306.4006 -4.148,4.3207 1.2098,0.5186 6.7405,0.1728 v -3.111 h 7.2589 l -11.9254,-8.8143 z"
           id="path32" />
        <path
           style="fill:#273140;fill-opacity:1;stroke:#171717;stroke-width:2.3;stroke-linecap:round;stroke-linejoin:round;stroke-dasharray:none;stroke-opacity:1"
           d="m 3183.81,1305.4061 13.6439,-12.738 4.8183,2.1219 1.9118,-2.2577 4.364,4.6743 -2.3521,-13.4096 4.4216,-4.1281 7.3126,7.8326 0.1101,3.9169 5.7782,-0.9022 0.7596,9.931 2.3086,3.9923 11.5737,1.2534 -4.69,11.9449 -12.8859,12.0303 -2.4092,-1.061 1.363,-11.2031 -12.7596,11.9124 -16.1585,-17.3076 -7.0577,6.1165 -3.1259,-5.121 z"
           id="path30" />
        <path
           style="fill:#273140;fill-opacity:1;stroke:#171717;stroke-width:2.3;stroke-linecap:round;stroke-linejoin:round;stroke-dasharray:none;stroke-opacity:1"
           d="m 3190.388,1259.328 -2.2182,6.6044 -8.1505,2.075 11.4536,14.4708 -1.1182,-13.2609 7.7499,-0.6536 -1.081,-4.5919 8.611,-0.7261 z"
           id="path33" />
      </g>
    </g>
  </g>
</svg>
