<svg xmlns="http://www.w3.org/2000/svg" xml:space="preserve" width="281.18" height="279.654" viewBox="0 0 74.396 73.992"><path d="M13.17 40.919h48.056v70.652H13.17Z" style="fill:#000;fill-opacity:.196078;stroke-width:2.48164;stroke-linecap:square;paint-order:fill markers stroke"/><path d="m6.847 6.847-.002 134.289h5.221l3.574-5.761h43.105l3.583 5.76h5.221V6.848zm13.374 31.839L36.09 63.68l22.077 12.784-17.248 10.918-14.073 23.702-11.59-21.403 5.794-22.697z" style="fill:#e0e0e0;fill-opacity:1;stroke:none;stroke-width:1.71147;stroke-linecap:square;stroke-linejoin:bevel;stroke-miterlimit:4;stroke-dasharray:none"/><path d="M3.351 14.937v10.737h67.693V14.937zm0 21.474v10.738H20.47l-.248-8.463 5.373 8.463h45.45V36.41zm0 21.475v10.736h17.28l.418-1.638-.266-9.098zm29.06 0 3.678 5.794 8.536 4.942h26.42V57.886zM3.351 79.36v10.737H15.48l-.226-.416L17.89 79.36zm50.24 0-12.673 8.022-1.612 2.715h31.738V79.36zm-50.24 21.474v10.736h67.693v-10.736H32.93l-6.085 10.25-5.551-10.25zm0 21.474v10.738h67.693v-10.738z" style="fill:#fff;stroke-width:2.96972;paint-order:markers stroke fill;stop-color:#000"/><path d="M1.086 1.086v145.811h13.972l3.575-5.761h37.131l3.574 5.762H73.31V1.086v0zm5.761 5.76h60.702v134.29h-5.22l-3.584-5.761H15.64l-3.574 5.76h-5.22Z" style="fill:#d9d9d9;fill-opacity:1;stroke:#696969;stroke-width:2.17171344;stroke-linecap:round;stroke-linejoin:round;stroke-dasharray:none;stroke-opacity:1"/><path fill="none" d="M26.844 111.084 15.254 89.68l5.795-22.697-.828-28.298L36.09 63.68l22.077 12.785-17.248 10.917z" style="fill:#000;fill-opacity:0;stroke:#696969;stroke-width:2.25751;stroke-dasharray:none;stroke-opacity:1;paint-order:markers stroke fill;stop-color:#000"/></svg>