<?xml version="1.0" encoding="UTF-8" standalone="no"?>
<!-- Created with Inkscape (http://www.inkscape.org/) -->

<svg
   width="281.18002"
   height="279.65399"
   viewBox="0 0 74.395546 73.991787"
   version="1.1"
   id="svg49750"
   inkscape:version="1.3.2 (1:1.3.2+202311252150+091e20ef0f)"
   sodipodi:docname="container_ceiling_4.svg"
   xmlns:inkscape="http://www.inkscape.org/namespaces/inkscape"
   xmlns:sodipodi="http://sodipodi.sourceforge.net/DTD/sodipodi-0.dtd"
   xmlns="http://www.w3.org/2000/svg"
   xmlns:svg="http://www.w3.org/2000/svg">
  <sodipodi:namedview
     id="namedview49752"
     pagecolor="#505050"
     bordercolor="#000000"
     borderopacity="0.25"
     inkscape:showpageshadow="2"
     inkscape:pageopacity="0"
     inkscape:pagecheckerboard="true"
     inkscape:deskcolor="#d1d1d1"
     inkscape:document-units="px"
     showgrid="false"
     inkscape:zoom="32"
     inkscape:cx="121.3125"
     inkscape:cy="273.10937"
     inkscape:window-width="2560"
     inkscape:window-height="1368"
     inkscape:window-x="0"
     inkscape:window-y="0"
     inkscape:window-maximized="1"
     inkscape:current-layer="layer1"
     inkscape:pageshadow="0"
     units="px"
     width="281.18002px"
     height="559.30802px" />
  <defs
     id="defs49747" />
  <g
     inkscape:label="Слой 1"
     inkscape:groupmode="layer"
     id="layer1">
    <rect
       style="fill:#000000;fill-opacity:0.196078;stroke-width:2.48164;stroke-linecap:square;paint-order:fill markers stroke"
       id="rect1"
       width="48.054726"
       height="34.665237"
       x="13.170411"
       y="39.32555" />
    <g
       id="g1"
       transform="translate(4.5291432e-5)">
      <path
         id="rect1049-9-7-5-1-7-8"
         style="fill:#a1a1a1;fill-opacity:1;stroke-width:8.12629;paint-order:markers stroke fill;stop-color:#000000"
         d="m 0,0 v 559.30859 h 42.783203 l 13.914063,-24 H 224.48242 l 13.91406,24 h 42.78321 V 0 Z m 81.980469,133.44922 59.970701,94.46484 83.44141,48.32032 -65.1875,41.26171 -53.19336,89.58008 -43.806642,-80.89258 21.904297,-85.78125 z"
         transform="scale(0.26458333)" />
      <path
         id="rect1049-9-7-2-9-5-4-02"
         style="fill:#e0e0e0;fill-opacity:1;stroke-width:7.46933;paint-order:markers stroke fill;stop-color:#000000"
         d="M 12.666016,13.873047 V 545.43555 h 15.451172 l 16,-24 H 237.0625 l 16,24 h 15.45117 V 13.873047 Z m 69.314453,119.576173 59.970701,94.46484 83.44141,48.32032 -65.1875,41.26171 -53.19336,89.58008 -43.806642,-80.89258 21.904297,-85.78125 z"
         transform="scale(0.26458333)" />
      <path
         id="rect24996-9-4-4-8"
         style="fill:#ffffff;stroke-width:2.96972;paint-order:markers stroke fill;stop-color:#000000"
         d="M 3.3511837,133.04686 H 71.044335 V 122.30973 H 3.3511837 Z"
         sodipodi:nodetypes="ccccc" />
      <path
         id="rect4123"
         style="fill:#ffffff;stroke-width:11.2241;paint-order:markers stroke fill;stop-color:#000000"
         d="m 12.666016,381.11133 v 40.58008 H 268.51367 V 381.11133 H 122.42969 l -15.41797,25.96484 -14.060548,-25.96484 z"
         transform="scale(0.26458333)" />
      <path
         id="rect4125"
         style="fill:#ffffff;stroke-width:11.2241;paint-order:markers stroke fill;stop-color:#000000"
         d="m 12.666016,299.94727 v 40.58203 h 58.308593 l -7.769531,-14.34571 6.699219,-26.23632 z m 175.263674,0 -27.72461,17.54882 -13.67774,23.03321 h 121.98633 v -40.58203 z"
         transform="scale(0.26458333)" />
      <path
         id="rect4127"
         style="fill:#ffffff;stroke-width:11.2241;paint-order:markers stroke fill;stop-color:#000000"
         d="m 12.666016,218.78516 v 40.58203 h 67.601562 l 4.841797,-18.96485 -0.632813,-21.61718 z m 123.490234,0 5.79492,9.1289 54.31445,31.45313 h 72.24805 v -40.58203 z"
         transform="scale(0.26458333)" />
      <path
         id="rect4129"
         style="fill:#ffffff;stroke-width:11.2241;paint-order:markers stroke fill;stop-color:#000000"
         d="m 12.666016,137.62305 v 40.58007 h 70.623046 l -1.185546,-40.58007 z m 71.964843,0 25.761721,40.58007 h 158.12109 v -40.58007 z"
         transform="scale(0.26458333)" />
      <path
         id="rect4131"
         style="fill:#ffffff;stroke-width:2.96972;paint-order:markers stroke fill;stop-color:#000000"
         d="M 3.3511837,25.675562 H 71.044335 V 14.938433 H 3.3511837 Z"
         sodipodi:nodetypes="ccccc" />
      <path
         style="fill:#000000;fill-opacity:0;stroke:#a1a1a1;stroke-width:2.25751;stroke-dasharray:none;stroke-opacity:1;paint-order:markers stroke fill;stop-color:#000000"
         d="m 28.313413,107.70562 -11.59029,-21.403061 5.79518,-22.696102 -0.82786,-28.298198 15.86765,24.994219 22.07684,12.784621 -17.24749,10.91706 z"
         id="path31039-1-8" />
    </g>
  </g>
</svg>
