<svg xmlns="http://www.w3.org/2000/svg" width="281.18" height="279.687" viewBox="0 0 74.396 74.001"><path d="M71.045 1.085v140.643H3.352v-36.169l20.375-13.81-5.933-3.477 5.8-10.568-10.16-9.38 9.93-13.009L3.351 37.53V1.085Z" style="baseline-shift:baseline;display:inline;overflow:visible;vector-effect:none;fill:#e0e0e0;paint-order:markers stroke fill;stop-color:#000"/><path d="M71.045 12.351H3.352v10.737h67.693Zm0 21.474v10.737h-59.78L3.353 37.53v-3.705zm0 21.474v10.738H15.182l8.183-10.722-.018-.016zm0 21.475v10.737H18.213l5.383-9.807-1.007-.93zm0 21.474v10.737H3.352v-3.426h.001l10.786-7.311Zm0 21.474H3.352v10.737h67.693Z" style="fill:#fff;stroke-width:2.96972;paint-order:markers stroke fill;stop-color:#000"/><path d="M72.132 0v142.814H2.266v-37.832l19.428-13.168-5.36-3.138 5.9-10.75L11.97 68.45l9.918-12.994-19.625-17.44V0ZM69.96 2.17H4.436v34.873L24.84 55.172l-9.942 13.025 10.057 9.285-5.7 10.387 6.507 3.813-21.323 14.453v34.508H69.96Z" style="baseline-shift:baseline;display:inline;overflow:visible;vector-effect:none;fill:#696969;paint-order:markers stroke fill;stop-color:#000"/><path d="M1.086 1.086v41.493l5.76 5.12.001-40.852H67.55v134.289H6.845v-39.41l-5.76 3.903v41.268H73.31V1.087z" style="fill:#d8d8d8;fill-opacity:1;stroke:#696969;stroke-width:2.17175;stroke-linecap:round;stroke-linejoin:round;stroke-dasharray:none;stroke-opacity:1"/></svg>