<svg xmlns="http://www.w3.org/2000/svg" xml:space="preserve" width="281.18" height="279.654" viewBox="0 0 74.396 73.992"><path d="M13.17 39.327h48.056v34.665H13.17z" style="fill:#000;fill-opacity:.196078;stroke-width:2.48164;stroke-linecap:square;paint-order:fill markers stroke"/><path d="m6.845 6.848.002 134.289H67.55V6.848h-5.22l-3.584 5.761H15.64l-3.574-5.76zm33.768 49.838L58.74 70.572l-13.332-1.38-16.688 3.644-14.58-6.795 10.743-7.09 4.987 2.659z" style="fill:#e0e0e0;fill-opacity:1;stroke:none;stroke-width:1.71147;stroke-linecap:square;stroke-linejoin:bevel;stroke-miterlimit:4;stroke-dasharray:none"/><path d="M3.351 14.938v10.738h67.693V14.938zm0 21.475V47.15h67.693V36.413zm0 21.474v10.737h16.331l-5.542-2.583 10.743-7.09 4.987 2.659 8.123-3.723zm38.83 0 14.016 10.737h14.847V57.887zM3.351 79.361v10.737h67.693V79.36zm0 21.474v10.738h67.693v-10.738zm0 21.475v10.737h67.693V122.31z" style="fill:#fff;stroke-width:2.96972;paint-order:markers stroke fill;stop-color:#000"/><path d="M1.086 146.898V1.087h13.972l3.575 5.76h37.131l3.574-5.761H73.31v145.812zm5.761-5.761h60.702V6.847h-5.22l-3.584 5.762H15.64l-3.574-5.761h-5.22Z" style="fill:#d9d9d9;fill-opacity:1;stroke:#696969;stroke-width:2.17175;stroke-linecap:round;stroke-linejoin:round;stroke-dasharray:none;stroke-opacity:1"/><path fill="none" d="m14.14 66.041 14.58 6.795 16.688-3.644 13.332 1.38-18.127-13.886L29.87 61.61l-4.987-2.66z" style="fill:#000;fill-opacity:0;stroke:#696969;stroke-width:2.20392;stroke-dasharray:none;stroke-opacity:1;paint-order:markers stroke fill;stop-color:#000"/></svg>