<svg xmlns="http://www.w3.org/2000/svg" width="178.156" height="1470.531" viewBox="0 0 47.137 389.078"><g transform="translate(-80.797 196.585)"><path d="M94.153 550.879h32.774v16.862H94.153zM94.153 367.47h32.774v16.862H94.153zM94.153 184.061h32.774v16.862H94.153zM94.153-182.756h32.774v16.862H94.153zM94.153.653h32.774v16.862H94.153z" style="fill:#4d4d4d;fill-opacity:1;stroke:#262626;stroke-width:2.01454;stroke-linecap:square;stroke-linejoin:round;stroke-dasharray:none;stroke-opacity:1"/><path d="M-411.116 521.193h-100.502V510.99h100.502z" style="display:inline;fill:#333;fill-opacity:1;stroke-width:.289576;paint-order:markers stroke fill;stop-color:#000" transform="matrix(0 7.49298 -1 0 605.142 3649.189)"/><path d="M-511.618 512.867h100.502v6.449h-100.502z" style="display:inline;fill:gray;stroke-width:.22925;paint-order:markers stroke fill;stop-color:#000" transform="matrix(0 7.49298 -1 0 605.142 3649.189)"/><path d="M-411.116 521.193h-100.502V510.99h100.502z" style="display:inline;fill:#333;fill-opacity:1;stroke-width:.289576;paint-order:markers stroke fill;stop-color:#000" transform="matrix(0 7.49298 -1 0 617.313 3649.189)"/><path d="M-511.618 512.867h100.502v6.449h-100.502z" style="display:inline;fill:gray;stroke-width:.22925;paint-order:markers stroke fill;stop-color:#000" transform="matrix(0 7.49298 -1 0 617.313 3649.189)"/><path d="M-411.116 521.193h-100.502V510.99h100.502z" style="display:inline;fill:#333;fill-opacity:1;stroke-width:.289576;paint-order:markers stroke fill;stop-color:#000" transform="matrix(0 7.49298 -1 0 611.227 3649.189)"/><path d="M-511.618 512.867h100.502v6.449h-100.502z" style="display:inline;fill:#8e8e8e;fill-opacity:1;stroke-width:.22925;paint-order:markers stroke fill;stop-color:#000" transform="matrix(0 7.49298 -1 0 611.227 3649.189)"/><rect width="28.677" height="28.677" x="80.797" y="552.893" rx="3.105" ry="3.105" style="fill:#2e2e2e;fill-opacity:1;stroke:none;stroke-width:.752999;stroke-linecap:round;stroke-linejoin:round"/><rect width="25.19" height="25.19" x="82.541" y="554.637" rx="2.728" ry="2.728" style="fill:#737373;fill-opacity:1;stroke:none;stroke-width:.661431;stroke-linecap:round;stroke-linejoin:round"/><rect width="28.677" height="28.677" x="80.797" y="-196.585" rx="3.105" ry="3.105" style="fill:#2e2e2e;fill-opacity:1;stroke:none;stroke-width:.752999;stroke-linecap:round;stroke-linejoin:round"/><rect width="25.19" height="25.19" x="82.541" y="-194.842" rx="2.728" ry="2.728" style="fill:#737373;fill-opacity:1;stroke:none;stroke-width:.661431;stroke-linecap:round;stroke-linejoin:round"/></g></svg>