<svg xmlns="http://www.w3.org/2000/svg" xmlns:xlink="http://www.w3.org/1999/xlink" width="315.387" height="280.085" viewBox="0 0 166.892 148.211"><defs><pattern xlink:href="#a" id="b" x="0" y="0" patternTransform="matrix(.1 0 0 .1 -7579.309 11668.907)" preserveAspectRatio="xMidYMid"/><pattern id="a" width="633.869" height="1283.504" patternTransform="translate(-7579.309 11668.907)" patternUnits="userSpaceOnUse"><path d="M426.308 1073.332h203.403v206.014H426.308zM215.062 1073.332h203.403v206.014H215.062zM4.157 1073.332H207.56v206.014H4.157zM426.308 859.612h203.403v206.014H426.308zM215.062 859.612h203.403v206.014H215.062zM4.157 859.612H207.56v206.014H4.157zM426.308 645.604h203.403v206.014H426.308zM215.062 645.604h203.403v206.014H215.062zM4.157 645.604H207.56v206.014H4.157zM426.308 431.884h203.403v206.014H426.308zM215.062 431.884h203.403v206.014H215.062zM4.157 431.884H207.56v206.014H4.157zM426.308 217.876h203.403V423.89H426.308zM215.062 217.876h203.403V423.89H215.062zM4.157 217.876H207.56V423.89H4.157zM426.308 4.157h203.403v206.014H426.308zM215.062 4.157h203.403v206.014H215.062zM4.157 4.157H207.56v206.014H4.157z" style="fill:#595959;fill-opacity:1;stroke:#3e3e3e;stroke-width:8.31492;stroke-dasharray:none;stroke-opacity:1;paint-order:fill markers stroke;stop-color:#000"/></pattern></defs><path d="M-8056.412-1533.99h158.75v119.556h-158.75z" style="fill:url(#b);fill-opacity:1;stroke-width:1.90027" transform="translate(8061.456 1539.165)"/><path d="M-8056.412-1533.99h158.75v119.556h-158.75z" style="fill:#000;fill-opacity:.250825;stroke-width:1.90027" transform="translate(8061.456 1539.165)"/><g style="display:inline"><path d="M22.065 306.075h27.542v25.948H22.065z" style="fill:#4d4d4d;stroke-width:.481827;stroke-opacity:.575758;paint-order:markers stroke fill;stop-color:#000" transform="rotate(180 89.415 227.143)"/><path d="M23.387 307.542H47.96v23.151H23.387z" style="display:inline;fill:#666;stroke-width:.42989;stroke-opacity:.575758;paint-order:markers stroke fill;stop-color:#000" transform="rotate(180 89.415 227.143)"/></g><g style="display:inline"><path d="M49.405 306.176h27.542v25.948H49.405z" style="display:inline;fill:#4d4d4d;stroke-width:.481827;stroke-opacity:.575758;paint-order:markers stroke fill;stop-color:#000" transform="rotate(180 89.415 227.194)"/><path d="M50.728 307.643h24.573v23.151H50.728z" style="display:inline;fill:#666;stroke-width:.42989;stroke-opacity:.575758;paint-order:markers stroke fill;stop-color:#000" transform="rotate(180 89.415 227.194)"/></g><path d="M-8060.397-1538.107h164.775v126.252h-8.467v-117.797h-147.841v109.195h91.248v8.467h-99.715z" style="fill:#404040;fill-opacity:1;stroke:#1a1a1a;stroke-width:2.11667;stroke-linecap:square;stroke-linejoin:miter;stroke-miterlimit:24.5;stroke-dasharray:none;stroke-opacity:1;paint-order:markers fill stroke;stop-color:#000" transform="translate(8061.456 1539.165)"/></svg>