<svg xmlns="http://www.w3.org/2000/svg" width="237.763" height="328.805" viewBox="0 0 125.816 173.992"><g transform="translate(-82.396 40.432)"><rect width="9.989" height="58.912" x="-208.212" y="4.511" ry="2.686" style="fill:#333;fill-opacity:1;stroke-width:.970411;stroke-linecap:square;stop-color:#000" transform="scale(-1 1)"/><rect width="53.047" height="3.742" x="-60.491" y="-206.062" ry="1.113" style="display:inline;fill:#656565;fill-opacity:1;stroke-width:.223198" transform="scale(1 -1)rotate(90)"/><path d="M-36.074-195.496h148.139v109.752H-36.074z" style="fill:#999;fill-opacity:1;stroke:none;stroke-width:1.95875;stroke-linecap:square;stroke-linejoin:round;stroke-dasharray:none;stroke-opacity:1;paint-order:fill markers stroke;stop-color:#000" transform="rotate(90)"/><path d="M-40.432-199.92h9.26v117.508h-9.26z" style="fill:#4a4a4a;fill-opacity:1;stroke:none;stroke-width:2.08922;stroke-linecap:square;stroke-linejoin:round;stroke-dasharray:none;stroke-opacity:1;paint-order:fill markers stroke;stop-color:#000" transform="rotate(90)"/><path d="M106.403-137.311h9.26v54.915h-9.26z" style="fill:#4a4a4a;fill-opacity:1;stroke:none;stroke-width:1.42823;stroke-linecap:square;stroke-linejoin:round;stroke-dasharray:none;stroke-opacity:1;paint-order:fill markers stroke;stop-color:#000" transform="rotate(90)"/><path d="M84.669 108.71h50.737v4.809H84.669z" style="fill:#737373;fill-opacity:1;stroke:none;stroke-width:6.71799;stroke-linecap:square;stroke-opacity:1;paint-order:normal;stop-color:#000"/><path d="M190.659-32.51h9.26v147.935h-9.26z" style="fill:#4a4a4a;fill-opacity:1;stroke:none;stroke-width:2.34415;stroke-linecap:square;stroke-linejoin:round;stroke-dasharray:none;stroke-opacity:1;paint-order:fill markers stroke;stop-color:#000"/><path d="M82.396-33.178h9.26v141.849h-9.26z" style="fill:#4a4a4a;fill-opacity:1;stroke:none;stroke-width:2.29543;stroke-linecap:square;stroke-linejoin:round;stroke-dasharray:none;stroke-opacity:1;paint-order:fill markers stroke;stop-color:#000"/><path d="M-113.508 84.637h151.7v4.809h-151.7z" style="fill:#737373;fill-opacity:1;stroke:none;stroke-width:11.6163;stroke-linecap:square;stroke-opacity:1;paint-order:normal;stop-color:#000" transform="rotate(-90)"/><path d="M-196.911 33.382H-86.03v4.809h-110.881z" style="fill:#737373;fill-opacity:1;stroke:none;stroke-width:9.9313;stroke-linecap:square;stroke-opacity:1;paint-order:normal;stop-color:#000" transform="scale(-1)"/><path d="M-4.511 192.886H38.18v4.809H-4.511z" style="fill:#737373;fill-opacity:1;stroke:none;stroke-width:6.16233;stroke-linecap:square;stroke-opacity:1;paint-order:normal;stop-color:#000" transform="rotate(-90)"/><path d="M-113.51 192.94h53.016v4.809h-53.016z" style="fill:#737373;fill-opacity:1;stroke:none;stroke-width:6.8672;stroke-linecap:square;stroke-opacity:1;paint-order:normal;stop-color:#000" transform="rotate(-90)"/><rect width="53.348" height="32.081" x="137.311" y="101.48" rx="2" ry="1.125" style="fill:#999;fill-opacity:1;stroke:none;stroke-width:.959754;stroke-linecap:square;stroke-linejoin:bevel;stroke-opacity:.847059"/></g></svg>