<?xml version="1.0" encoding="UTF-8" standalone="no"?>
<!-- Created with Inkscape (http://www.inkscape.org/) -->

<svg
   width="137.58788"
   height="528.64935"
   viewBox="0 0 36.403458 139.87181"
   version="1.1"
   id="svg1"
   inkscape:version="1.3.2 (091e20e, 2023-11-25, custom)"
   sodipodi:docname="ship_thing_v2.svg"
   xmlns:inkscape="http://www.inkscape.org/namespaces/inkscape"
   xmlns:sodipodi="http://sodipodi.sourceforge.net/DTD/sodipodi-0.dtd"
   xmlns="http://www.w3.org/2000/svg"
   xmlns:svg="http://www.w3.org/2000/svg">
  <sodipodi:namedview
     id="namedview1"
     pagecolor="#ffffff"
     bordercolor="#000000"
     borderopacity="0.25"
     inkscape:showpageshadow="2"
     inkscape:pageopacity="0.0"
     inkscape:pagecheckerboard="0"
     inkscape:deskcolor="#d1d1d1"
     inkscape:document-units="mm"
     inkscape:zoom="0.71713664"
     inkscape:cx="208.46794"
     inkscape:cy="49.502421"
     inkscape:window-width="1920"
     inkscape:window-height="1001"
     inkscape:window-x="-9"
     inkscape:window-y="-9"
     inkscape:window-maximized="1"
     inkscape:current-layer="layer1" />
  <defs
     id="defs1" />
  <g
     inkscape:label="Στρώση 1"
     inkscape:groupmode="layer"
     id="layer1"
     transform="translate(-49.741518,-223.8375)">
    <g
       id="g6"
       transform="translate(-3332.5541,-1109.6821)">
      <path
         style="fill:#303d4f;fill-opacity:1;stroke:none;stroke-width:2.3;stroke-linejoin:round;stroke-dasharray:none"
         d="m 3383.7723,1369.8051 h 11.3502 v -7.249 h 9.9369 v 7.5277 h 12.5809 v -15.1673 c 0,0 -0.5925,-20.6398 -17.0252,-20.6398 -16.4327,0 -17.0252,20.6398 -17.0252,20.6398 z"
         id="path7-4"
         sodipodi:nodetypes="ccccccczcc" />
      <path
         style="fill:#273140;fill-opacity:1;stroke:none;stroke-width:2.3;stroke-linejoin:round;stroke-dasharray:none;stroke-opacity:1"
         d="m 3387.6539,1370.2309 h 6.0633 l 0.7522,-7.4191 h 10.7318 l 0.3647,7.4191 h 8.0204 l -0.5292,85.6381 c 0,0 1.0729,15.898 -12.7017,15.898 -13.7744,0 -12.7015,-15.898 -12.7015,-15.898 z"
         id="path38-8-4"
         sodipodi:nodetypes="ccccccczcc" />
      <path
         style="fill:#2e3a4b;fill-opacity:1;stroke:none;stroke-width:2.3;stroke-linejoin:round;stroke-dasharray:none;stroke-opacity:1"
         d="m 3391.8978,1370.1554 h 2.7189 l 0.5058,-7.5329 h 11.3399 l 0.2452,7.5329 h 2.6284 l -0.3559,86.5611 c 0,0 0.7216,10.6906 -8.5411,10.6906 -9.2627,0 -8.5412,-10.6906 -8.5412,-10.6906 z"
         id="path38-8-4-9"
         sodipodi:nodetypes="ccccccczcc" />
      <path
         style="fill:none;fill-opacity:1;stroke:#171717;stroke-width:2.3;stroke-linejoin:round;stroke-dasharray:none;stroke-opacity:1"
         d="m 3383.4637,1355.8671 c 0,0 -1.2192,-21.1975 17.0336,-21.1975 18.2528,0 17.0337,21.1975 17.0337,21.1975 v 14.1557 h -4.332 v 86.3206 c 0,0 1.0729,15.898 -12.7017,15.898 -13.7745,0 -12.7016,-15.898 -12.7016,-15.898 v -86.3206 h -4.332 z"
         id="path38-0"
         sodipodi:nodetypes="czcccczcccc" />
      <path
         style="fill:#344256;fill-opacity:1;stroke:none;stroke-width:2.3;stroke-linejoin:round;stroke-dasharray:none"
         d="m 3388.2672,1369.8185 h 6.8553 v -7.196 h 11.3399 v 7.4003 h 6.6343 v -11.1195 c 0,0 2.8023,-20.0261 -12.4816,-20.0261 -15.2839,0 -12.4816,20.0261 -12.4816,20.0261 z"
         id="path7-4-9"
         sodipodi:nodetypes="ccccccczcc" />
      <path
         style="fill:none;stroke:#171717;stroke-width:2.3;stroke-linejoin:round;stroke-dasharray:none"
         d="m 3385.0801,1370.0228 h 9.8007 v -7.4003 h 11.5816 v 7.4003 h 9.6877"
         id="path1-62"
         sodipodi:nodetypes="cccccc" />
    </g>
  </g>
</svg>
