<svg xmlns="http://www.w3.org/2000/svg" xmlns:xlink="http://www.w3.org/1999/xlink" width="147.275" height="396.1" viewBox="0 0 77.933 209.603"><defs><pattern xlink:href="#a" id="b" x="0" y="0" patternTransform="translate(424.967 -507.09)scale(.265)" preserveAspectRatio="xMidYMid"/><pattern id="a" width="50.131" height="50.123" patternTransform="translate(424.967 -507.09)" patternUnits="userSpaceOnUse" preserveAspectRatio="xMidYMid" style="fill:#000"><path d="M112.444-120.907v-13.26h13.26v13.26z" style="fill:#fff;fill-opacity:1;stroke:none;stroke-width:41.1118;stroke-linecap:square;stroke-linejoin:miter;stroke-dasharray:none;stroke-opacity:1;stop-color:#000" transform="matrix(3.7795 0 0 3.7795 -424.967 507.092)"/><path fill="#d9d9d9" d="M112.44-127.53c2.915-2.94 3.158-5.299 3.158-5.299s-1.291.136-3.157 1.388zm6.577 4.537a15 15 0 0 1 1.753 2.084h-3.94c-2.912-2.936-3.155-5.291-3.155-5.291s2.383.25 5.342 3.207m-2.194-11.176h3.941c1.322 1.923 1.46 3.266 1.46 3.266s-2.44-.306-5.4-3.266m8.877 2.726v3.903c-2.96 2.96-5.4 3.263-5.4 3.263s.25-2.386 3.21-5.346a14.8 14.8 0 0 1 2.19-1.82" style="fill:#dadada;fill-opacity:1;stroke-width:3.77951" transform="matrix(3.7795 0 0 3.7795 -424.967 507.092)"/></pattern></defs><path d="M1.582 0h74.77c.876 0 1.581.706 1.581 1.582v206.439c0 .876-.705 1.582-1.582 1.582H1.582A1.58 1.58 0 0 1 0 208.021V1.582C0 .706.706 0 1.582 0" style="baseline-shift:baseline;display:inline;overflow:visible;vector-effect:none;fill:url(#b);stroke:none;stroke-width:2.27499;stroke-linecap:round;stroke-linejoin:round;stroke-dasharray:none;stroke-opacity:1;stop-color:#000"/><path d="M36.671 0h136.26v2.117H36.671z" style="fill:#d8d8d8;fill-opacity:1;fill-rule:evenodd;stroke:none;stroke-width:4.34339;stroke-linejoin:round" transform="matrix(0 1 1 0 0 0)"/><path d="M7.613-209.603h62.706v2.117H7.613z" style="fill:#d8d8d8;fill-opacity:1;fill-rule:evenodd;stroke:none;stroke-width:4.34339;stroke-linejoin:round" transform="scale(1 -1)"/><path d="M36.671 75.816h136.26v2.117H36.671z" style="fill:#d8d8d8;fill-opacity:1;fill-rule:evenodd;stroke:none;stroke-width:4.34339;stroke-linejoin:round" transform="matrix(0 1 1 0 0 0)"/><path d="M1.138 1.137v77.338H7.17V7.172h63.588v71.303h6.036V1.137Zm0 129.99v77.338H7.17v-77.338zm69.623 0v77.338h6.035v-77.338z" style="vector-effect:none;fill:#d9d9d9;fill-opacity:1;stroke:#696969;stroke-width:2.275;stroke-linecap:round;stroke-linejoin:round;stroke-dasharray:none;stroke-opacity:1;stop-color:#000;stop-opacity:1"/></svg>