<svg xmlns="http://www.w3.org/2000/svg" width="147.276" height="396.1" viewBox="0 0 77.934 209.603"><path d="M-6758.822-1191.868h63.588v195.258h-9.669l-3.146-5.684H-6746l-3.147 5.684h-9.676z" style="fill:#b5b5b5;stroke:#1f1f1f;stroke-width:2.27501;stroke-linecap:round;stroke-linejoin:round" transform="translate(6765.995 1199.04)"/><path d="M-6758.822-1008.095v11.485h63.588v-11.486zM-6758.822-1019.581h63.588v-11.486h-63.588zM-6758.822-1042.553h63.588v-11.486h-63.588zM-6758.822-1065.524h63.588v-11.486h-63.588zM-6758.822-1088.496h63.588v-11.486h-63.588zM-6758.822-1111.467h63.588v-11.486h-63.588zM-6758.822-1134.439h63.588v-11.486h-63.588zM-6758.822-1157.41h63.588v-11.486h-63.588zM-6758.822-1180.382h63.588v-11.486h-63.588z" style="fill:#989898;fill-opacity:1;stroke-width:2.96971;paint-order:markers stroke fill;stop-color:#000" transform="translate(6765.995 1199.04)"/><path d="M-6764.857-1197.903v80.472l6.035 3.745v38.897l-6.035 3.744v80.47h14.636l3.745-6.035h38.897l3.744 6.036h14.636v-80.47l-6.035-3.745v-38.897l6.035-3.745v-80.472h0zm6.035 6.035h63.588v71.303l-6.035 3.745v45.153l6.035 3.754v71.303h-5.469l-3.754-6.035h-45.154l-3.744 6.035h-5.469v-71.303l6.036-3.754v-45.154l-6.036-3.744z" style="fill:#909090;fill-opacity:1;stroke:#1f1f1f;stroke-width:2.275;stroke-linecap:round;stroke-linejoin:round;stroke-dasharray:none;stroke-opacity:1" transform="translate(6765.995 1199.04)"/></svg>