<svg xmlns="http://www.w3.org/2000/svg" xmlns:xlink="http://www.w3.org/1999/xlink" xml:space="preserve" width="64" height="64"><defs><linearGradient id="b"><stop offset="0" style="stop-color:#ff0101;stop-opacity:1"/><stop offset="1" style="stop-color:#810000;stop-opacity:1"/></linearGradient><linearGradient xlink:href="#b" id="c" x1="11.997" x2="52.004" y1="11.997" y2="52.004" gradientUnits="userSpaceOnUse"/></defs><g style="fill:url(#c);fill-opacity:1"><path d="m21.285 4.882-1.274-3.607H7.199l-2.214 13.31 4.17 24.694h11.576ZM42.715 4.985l1.275-3.607h12.812l2.213 13.311-4.17 24.694H43.27Z" style="mix-blend-mode:normal;fill:url(#c);fill-opacity:1;stroke:#141414;stroke-width:2.54928;stroke-linecap:round;stroke-linejoin:round;stroke-miterlimit:2;stroke-dasharray:none;stroke-opacity:1"/><path d="m31.824 29.121-10.29-1.901-2.47 4.174 12.76 20.256 12.76-20.256-2.47-4.174Z" style="mix-blend-mode:normal;fill:url(#c);fill-opacity:1;stroke:none;stroke-width:2.54929;stroke-linecap:round;stroke-linejoin:round;stroke-miterlimit:2;stroke-dasharray:none;stroke-opacity:1"/><path d="M31.66 29.121 21.533 27.22l-2.47 4.174 12.76 4.919 12.76-4.92-2.635-4.173z" style="mix-blend-mode:normal;fill:url(#c);fill-opacity:1;stroke:none;stroke-width:2.54929;stroke-linecap:round;stroke-linejoin:round;stroke-miterlimit:2;stroke-dasharray:none;stroke-opacity:1"/><path d="m31.824 29.121-10.29-1.901-2.47 4.174 12.76 20.256 12.76-20.256-2.47-4.174ZM21.7 10.023l.063 5.038 10.414 4.148 10.476-9.04.062-5.184H21.638Z" style="mix-blend-mode:normal;fill:url(#c);fill-opacity:1;stroke:#141414;stroke-width:2.54929;stroke-linecap:round;stroke-linejoin:round;stroke-miterlimit:2;stroke-dasharray:none;stroke-opacity:1"/><path d="m21.763 15.061-.125-10.076c7.507-1.764 14.5-1.633 21.077 0l-.124 10.366-10.414 3.858Z" style="mix-blend-mode:normal;fill:url(#c);fill-opacity:1;stroke:#141414;stroke-width:2.54929;stroke-linecap:round;stroke-linejoin:round;stroke-miterlimit:2;stroke-dasharray:none;stroke-opacity:1"/><path d="m23.269 13.508-.107-7.664c6.421-1.342 12.403-1.243 18.03 0l-.107 7.884-8.908 2.935z" style="mix-blend-mode:normal;fill:url(#c);fill-opacity:1;stroke:none;stroke-width:2.05641;stroke-linecap:round;stroke-linejoin:round;stroke-miterlimit:2;stroke-dasharray:none;stroke-opacity:1"/><path d="m21.763 15.061 10.414 4.148-10.29 9.151z" style="mix-blend-mode:normal;fill:url(#c);fill-opacity:1;stroke:#141414;stroke-width:2.54929;stroke-linecap:round;stroke-linejoin:round;stroke-miterlimit:2;stroke-dasharray:none;stroke-opacity:1"/><path d="M42.426 15.061 32.013 19.21l5.047 22.105 5.242-12.954Z" style="mix-blend-mode:normal;fill:url(#c);fill-opacity:1;stroke:#141414;stroke-width:2.54929;stroke-linecap:round;stroke-linejoin:round;stroke-miterlimit:2;stroke-dasharray:none;stroke-opacity:1"/><ellipse cx="27.175" cy="25.493" rx="1.739" ry="4.119" style="mix-blend-mode:normal;fill:url(#c);fill-opacity:1;stroke:#141414;stroke-width:1.30014;stroke-linecap:round;stroke-linejoin:round;stroke-miterlimit:2;stroke-dasharray:none;stroke-opacity:1"/><ellipse cx="36.664" cy="25.493" rx="1.739" ry="4.119" style="mix-blend-mode:normal;fill:url(#c);fill-opacity:1;stroke:#141414;stroke-width:1.30014;stroke-linecap:round;stroke-linejoin:round;stroke-miterlimit:2;stroke-dasharray:none;stroke-opacity:1"/><rect width="51.432" height="16.888" x="6.219" y="43.843" rx="2.284" ry="2.284" style="mix-blend-mode:normal;fill:url(#c);fill-opacity:1;stroke:#131513;stroke-width:2.54929;stroke-linecap:round;stroke-linejoin:round;stroke-miterlimit:2;stroke-dasharray:none;stroke-opacity:1"/><rect width="51.174" height="5.393" x="6.219" y="43.843" rx="2.284" ry="2.284" style="mix-blend-mode:normal;fill:url(#c);fill-opacity:1;stroke:none;stroke-width:2.54929;stroke-linecap:round;stroke-linejoin:round;stroke-miterlimit:2;stroke-dasharray:none;stroke-opacity:1"/><rect width="51.174" height="5.393" x="6.348" y="54.984" rx="2.284" ry="2.284" style="mix-blend-mode:normal;fill:url(#c);fill-opacity:1;stroke:none;stroke-width:2.54929;stroke-linecap:round;stroke-linejoin:round;stroke-miterlimit:2;stroke-dasharray:none;stroke-opacity:1"/><rect width="51.174" height="5.393" x="6.348" y="46.54" rx="2.284" ry="2.284" style="mix-blend-mode:normal;fill:url(#c);fill-opacity:1;stroke:none;stroke-width:2.54929;stroke-linecap:round;stroke-linejoin:round;stroke-miterlimit:2;stroke-dasharray:none;stroke-opacity:1"/><rect width="51.174" height="10.786" x="6.348" y="46.54" rx="2.284" ry="2.284" style="mix-blend-mode:normal;fill:url(#c);fill-opacity:1;stroke:none;stroke-width:3.60526;stroke-linecap:round;stroke-linejoin:round;stroke-miterlimit:2;stroke-dasharray:none;stroke-opacity:1"/><rect width="51.174" height="5.393" x="6.348" y="49.414" rx="2.284" ry="2.284" style="mix-blend-mode:normal;fill:url(#c);fill-opacity:1;stroke:none;stroke-width:2.54929;stroke-linecap:round;stroke-linejoin:round;stroke-miterlimit:2;stroke-dasharray:none;stroke-opacity:1"/><rect width="51.432" height="16.888" x="6.219" y="43.843" rx="2.284" ry="2.284" style="mix-blend-mode:normal;fill:url(#c);fill-opacity:1;stroke:#131513;stroke-width:2.54929;stroke-linecap:round;stroke-linejoin:round;stroke-miterlimit:2;stroke-dasharray:none;stroke-opacity:1"/><rect width="3.222" height="22.127" x="18.694" y="41.224" rx="2.284" ry="2.284" style="mix-blend-mode:normal;fill:url(#c);fill-opacity:1;stroke:#181310;stroke-width:1.30014;stroke-linecap:round;stroke-linejoin:round;stroke-miterlimit:2;stroke-dasharray:none;stroke-opacity:1"/><rect width="3.222" height="22.127" x="43.63" y="40.869" rx="2.284" ry="2.284" style="mix-blend-mode:normal;fill:url(#c);fill-opacity:1;stroke:#181310;stroke-width:1.30014;stroke-linecap:round;stroke-linejoin:round;stroke-miterlimit:2;stroke-dasharray:none;stroke-opacity:1"/><path d="M18.345 42.44 7.983 40.604V51.13c.157.757 2.832.748 3.428.802H25.28c.596-.054 3.271-.045 3.428-.802V40.604Z" style="mix-blend-mode:normal;fill:url(#c);fill-opacity:1;stroke:#121612;stroke-width:1.30014;stroke-linecap:round;stroke-linejoin:round;stroke-miterlimit:2;stroke-dasharray:none;stroke-opacity:1"/><path d="m18.312 41.896-8.077.057v7.622c.123.68 2.208.671 2.672.72h10.81c.465-.049 2.55-.04 2.672-.72v-7.622z" style="mix-blend-mode:normal;fill:url(#c);fill-opacity:1;stroke:none;stroke-width:1.08767;stroke-linecap:round;stroke-linejoin:round;stroke-miterlimit:2;stroke-dasharray:none;stroke-opacity:1"/><path d="m18.345 37.253-10.362.064v4.409c.157.757 2.832 2.788 3.428 2.841 3.047.506 5.343.73 6.934.689 1.592.04 3.888-.183 6.935-.689.596-.053 3.271-2.084 3.428-2.841v-4.41zM45.425 42.44l-10.363-1.837v10.528c.157.757 2.832.748 3.428.802H52.36c.596-.054 3.272-.045 3.428-.802V40.603Z" style="mix-blend-mode:normal;fill:url(#c);fill-opacity:1;stroke:#121612;stroke-width:1.30014;stroke-linecap:round;stroke-linejoin:round;stroke-miterlimit:2;stroke-dasharray:none;stroke-opacity:1"/><path d="m45.391 41.896-8.077.057v7.621c.123.68 2.208.672 2.672.72h10.81c.465-.048 2.55-.04 2.672-.72v-7.621z" style="mix-blend-mode:normal;fill:url(#c);fill-opacity:1;stroke:none;stroke-width:1.08767;stroke-linecap:round;stroke-linejoin:round;stroke-miterlimit:2;stroke-dasharray:none;stroke-opacity:1"/><path d="m45.425 37.253-10.363.063v4.41c.157.757 2.832 2.787 3.428 2.84 3.047.506 5.343.73 6.935.69 1.591.04 3.887-.184 6.934-.69.596-.053 3.272-2.083 3.428-2.84v-4.41z" style="mix-blend-mode:normal;fill:url(#c);fill-opacity:1;stroke:#121612;stroke-width:1.30014;stroke-linecap:round;stroke-linejoin:round;stroke-miterlimit:2;stroke-dasharray:none;stroke-opacity:1"/><rect width="51.123" height="21.992" x="6.262" y="14.42" rx="2.284" ry="2.284" style="mix-blend-mode:normal;fill:url(#c);fill-opacity:1;stroke:#131513;stroke-width:2.54928;stroke-linecap:round;stroke-linejoin:round;stroke-miterlimit:2;stroke-dasharray:none;stroke-opacity:1"/><path d="m15.626 27.096-6.283-1.758v8.488c.157.758 2.832.749 3.428.802h5.71c.597-.053 3.272-.045 3.429-.802v-8.488z" style="mix-blend-mode:normal;fill:url(#c);fill-opacity:1;stroke:#121612;stroke-width:1.30014;stroke-linecap:round;stroke-linejoin:round;stroke-miterlimit:2;stroke-dasharray:none;stroke-opacity:1"/><path d="M15.627 24.41 9.343 22.65v11.175c.157.757 2.832.748 3.428.802h5.71c.597-.054 3.272-.045 3.43-.802V22.651Z" style="mix-blend-mode:normal;fill:url(#c);fill-opacity:1;stroke:#121612;stroke-width:1.30014;stroke-linecap:round;stroke-linejoin:round;stroke-miterlimit:2;stroke-dasharray:none;stroke-opacity:1"/><path d="m15.798 23.386-3.998.053v7.622c.122.68 2.207.671 2.672.72h2.652c.465-.048 2.55-.04 2.672-.72v-7.622z" style="mix-blend-mode:normal;fill:url(#c);fill-opacity:1;stroke:none;stroke-width:1.08767;stroke-linecap:round;stroke-linejoin:round;stroke-miterlimit:2;stroke-dasharray:none;stroke-opacity:1"/><path d="m15.627 19.303-6.284.061v6.449c.157.757 2.832.748 3.428.802 3.047.505 1.264.729 2.856.689 1.591.04-.191-.184 2.855-.69.596-.053 3.271-.044 3.428-.801v-6.449zM48.257 27.096l-6.283-1.758v8.488c.156.758 2.831.749 3.428.802h5.71c.597-.053 3.272-.045 3.429-.802v-8.488z" style="mix-blend-mode:normal;fill:url(#c);fill-opacity:1;stroke:#121612;stroke-width:1.30014;stroke-linecap:round;stroke-linejoin:round;stroke-miterlimit:2;stroke-dasharray:none;stroke-opacity:1"/><path d="m48.257 24.41-6.283-1.759v11.175c.157.757 2.832.748 3.428.802h5.71c.597-.054 3.272-.045 3.43-.802V22.651Z" style="mix-blend-mode:normal;fill:url(#c);fill-opacity:1;stroke:#121612;stroke-width:1.30014;stroke-linecap:round;stroke-linejoin:round;stroke-miterlimit:2;stroke-dasharray:none;stroke-opacity:1"/><path d="m48.429 23.386-3.998.053v7.622c.122.68 2.207.671 2.672.72h2.652c.465-.048 2.55-.04 2.672-.72v-7.622z" style="mix-blend-mode:normal;fill:url(#c);fill-opacity:1;stroke:none;stroke-width:1.08767;stroke-linecap:round;stroke-linejoin:round;stroke-miterlimit:2;stroke-dasharray:none;stroke-opacity:1"/><path d="m48.257 19.303-6.283.061v6.449c.157.757 2.832.748 3.428.802 3.047.505 1.264.729 2.855.689 1.592.04-.19-.184 2.856-.69.596-.053 3.271-.044 3.428-.801v-6.449zM50.396 9.17l-6.284-1.757V15.9c.157.757 2.832.748 3.429.802h5.71c.597-.054 3.272-.045 3.429-.802V7.413ZM13.087 10.086 6.804 8.328v8.489c.156.757 2.832.748 3.428.801h5.71c.597-.053 3.272-.044 3.429-.801V8.328ZM31.942 26.763l-6.284-1.758v8.489c.157.757 2.832.748 3.428.801h5.711c.597-.053 3.272-.044 3.429-.801v-8.489z" style="mix-blend-mode:normal;fill:url(#c);fill-opacity:1;stroke:#121612;stroke-width:1.30014;stroke-linecap:round;stroke-linejoin:round;stroke-miterlimit:2;stroke-dasharray:none;stroke-opacity:1"/><path d="m31.942 24.077-6.283-1.759v11.175c.156.758 2.831.748 3.428.802h5.71c.597-.054 3.272-.045 3.429-.802V22.318Z" style="mix-blend-mode:normal;fill:url(#c);fill-opacity:1;stroke:#121612;stroke-width:1.30014;stroke-linecap:round;stroke-linejoin:round;stroke-miterlimit:2;stroke-dasharray:none;stroke-opacity:1"/><path d="m32.114 23.053-3.998.053v7.622c.122.68 2.207.672 2.672.72h2.652c.465-.048 2.55-.04 2.672-.72v-7.622z" style="mix-blend-mode:normal;fill:url(#c);fill-opacity:1;stroke:none;stroke-width:1.08767;stroke-linecap:round;stroke-linejoin:round;stroke-miterlimit:2;stroke-dasharray:none;stroke-opacity:1"/><path d="m31.942 18.97-6.283.061v6.449c.156.757 2.831.748 3.428.802 3.046.505 1.264.729 2.855.689 1.592.04-.19-.184 2.855-.69.597-.053 3.272-.044 3.429-.801v-6.449z" style="mix-blend-mode:normal;fill:url(#c);fill-opacity:1;stroke:#121612;stroke-width:1.30014;stroke-linecap:round;stroke-linejoin:round;stroke-miterlimit:2;stroke-dasharray:none;stroke-opacity:1"/></g></svg>