<?xml version="1.0" encoding="UTF-8" standalone="no"?>
<!-- Created with Inkscape (http://www.inkscape.org/) -->

<svg
   width="68.784866"
   height="56.416527"
   viewBox="0 0 18.199329 14.926873"
   version="1.1"
   id="svg1"
   inkscape:version="1.3.2 (091e20e, 2023-11-25, custom)"
   sodipodi:docname="tent_ceiling_particle_1.svg"
   xmlns:inkscape="http://www.inkscape.org/namespaces/inkscape"
   xmlns:sodipodi="http://sodipodi.sourceforge.net/DTD/sodipodi-0.dtd"
   xmlns="http://www.w3.org/2000/svg"
   xmlns:svg="http://www.w3.org/2000/svg">
  <sodipodi:namedview
     id="namedview1"
     pagecolor="#ffffff"
     bordercolor="#000000"
     borderopacity="0.25"
     inkscape:showpageshadow="2"
     inkscape:pageopacity="0.0"
     inkscape:pagecheckerboard="0"
     inkscape:deskcolor="#d1d1d1"
     inkscape:document-units="mm"
     inkscape:zoom="2.0283687"
     inkscape:cx="86.029723"
     inkscape:cy="-43.63112"
     inkscape:window-width="1920"
     inkscape:window-height="1001"
     inkscape:window-x="-9"
     inkscape:window-y="-9"
     inkscape:window-maximized="1"
     inkscape:current-layer="layer1" />
  <defs
     id="defs1" />
  <g
     inkscape:label="Στρώση 1"
     inkscape:groupmode="layer"
     id="layer1"
     transform="translate(-150.54789,-104.24583)">
    <path
       style="fill:#808080;fill-opacity:1;stroke:#404040;stroke-width:0.92604;stroke-linecap:round;stroke-linejoin:round;stroke-dasharray:none;stroke-opacity:1;stop-color:#000000"
       d="m 155.21161,106.97198 c -0.3979,0.27849 -0.82945,0.51418 -1.19355,0.83548 -0.3172,0.27982 -0.55575,0.63772 -0.83555,0.95485 -0.82775,0.93815 -1.8121,1.80196 -2.02895,3.10323 -0.0984,0.58996 -0.0972,1.19264 -0.11945,1.79033 -0.0375,1.00981 -0.0901,1.80406 0.3581,2.74517 0.66625,1.39899 1.27055,1.43226 2.62585,1.43226 0.93955,0 1.83595,0.0822 2.7452,-0.23871 2.17,-0.76591 1.6812,-0.36969 3.7739,-1.2314 1.685,-0.69379 3.1746,0.0503 4.29685,1.3129 1.0988,1.23616 1.67385,0.0647 3.00155,0.99642 0.4892,0.3433 0.37915,-1.51608 0.38575,-1.55534 0.0395,-0.23547 0,-0.47742 0,-0.71613 0,-0.2785 0.10715,-0.57842 0,-0.83549 -0.53365,-1.2809 -1.37625,-2.23203 -2.1484,-3.34195 -2.0574,-2.9575 0.1918,0.0967 -2.0291,-2.86452 -0.358,-0.47742 -0.72415,-0.94891 -1.0741,-1.43226 -1.3258,-1.83081 -0.8842,-1.74538 -2.2677,-2.62581 -1.5239,-0.96972 -2.9418,-0.68241 -4.00145,0.3773 -1.0923,0.86543 -0.65425,0.37778 -1.48895,1.29367 z"
       id="path39420"
       sodipodi:nodetypes="cssssssssssssssssscc" />
  </g>
</svg>
