<svg xmlns="http://www.w3.org/2000/svg" width="125" height="125" viewBox="0 0 33.073 33.073"><path d="m30.436 17.687-16.45 4.408 1.957.06-.929.597-.33.475 1.982-.168-.258.725.224.219-1.754.892 3.405-.337-1.146.89-1.916 1.256 16.45-4.408-3.867.178 3.461-1.504-2.336.085-.097-.961-1.795-.092 3.636-1.43-2.616.338z" style="fill:#2687d9;fill-opacity:1;stroke:#1b5e98;stroke-width:.529167;stroke-linecap:round;stroke-miterlimit:4;stroke-dasharray:none;stroke-opacity:1"/><path d="m1.011 16.464 8.516 14.75-.786-2.683 2.064 1.91-1.244-4.192 2.684 3.343L11.2 26.05l2.46 2.78-8.515-14.75.463 3.418L3.71 15.07l1.18 3.16-.08 1.001-2.8-3.344-.014.008.694 2.25zM28.44.753 16.397 12.797l3.666-2.62-2.634 3.51 4.15-2.75-2.986 4.056.014.014 4.144-2.753-2.98 3.917L31.815 4.128l-3.942 2.53 2.16-3.252-3.394 2.608-.171-.355 1.907-2.478-.447-.451-.76.404z" style="fill:#2687d9;stroke:#1b5e98;stroke-width:.529167;stroke-linecap:round;stroke-miterlimit:4;stroke-dasharray:none;stroke-opacity:1;fill-opacity:1"/><path d="m13.772 2.89 8.516 14.749-.12-1.532.911.314.131-.853.902.351.056-1.097.849.546-.345-1.847 1.749 1.732L17.905.503l.595 2.838.238 1.69-.529-.102.048.57-2.08-2.414-.987-.416-.18 1.048zM7.939 8.67V25.7l.907-2.871.898 1.94.3-1.718.667.13.007 1.367 1.322-1.744.671 2.897V8.67l-.934.301-.539.43-.732 5.839-.162-4.754-.294-.456-.599.388-.349 4.37z" style="fill:#2687d9;stroke:#1b5e98;stroke-width:.529167;stroke-linecap:round;stroke-miterlimit:4;stroke-dasharray:none;stroke-opacity:1;fill-opacity:1"/><g style="stroke-width:.4252;stroke-miterlimit:4;stroke-dasharray:none" transform="rotate(103.807 33.166 1.767)scale(.74275)"><path d="M69.881 16.536v5.17l.662 1.146.661-1.146v-5.17z" style="fill:gray;fill-opacity:1;stroke:#2e2e2e;stroke-width:.4252;stroke-linecap:butt;stroke-linejoin:round;stroke-miterlimit:4;stroke-dasharray:none;stroke-opacity:1;paint-order:normal"/><rect width="3.137" height=".702" x="68.974" y="15.825" rx="1.569" ry=".351" style="fill:gray;fill-opacity:1;stroke:#2e2e2e;stroke-width:.4252;stroke-linecap:round;stroke-miterlimit:4;stroke-dasharray:none;stroke-opacity:1"/></g><g style="stroke-width:.4252;stroke-miterlimit:4;stroke-dasharray:none" transform="rotate(-19.375 37.559 78.796)scale(.74275)"><path d="M69.881 16.536v5.17l.662 1.146.661-1.146v-5.17z" style="fill:gray;fill-opacity:1;stroke:#2e2e2e;stroke-width:.4252;stroke-linecap:butt;stroke-linejoin:round;stroke-miterlimit:4;stroke-dasharray:none;stroke-opacity:1;paint-order:normal"/><rect width="3.137" height=".702" x="68.974" y="15.825" rx="1.569" ry=".351" style="fill:gray;fill-opacity:1;stroke:#2e2e2e;stroke-width:.4252;stroke-linecap:round;stroke-miterlimit:4;stroke-dasharray:none;stroke-opacity:1"/></g></svg>