<svg xmlns="http://www.w3.org/2000/svg" width="237.878" height="147.966" viewBox="0 0 62.938 39.149"><g transform="translate(-126.11 -155.127)"><path d="M146.69 128.676c.967 1.543 2.333 2.8 3.807 3.87 1.473 1.068 3.064 1.963 4.616 2.916s3.077 1.972 4.37 3.253c1.295 1.281 2.354 2.844 2.812 4.606.47 1.81.276 3.768-.446 5.492-.723 1.725-1.958 3.216-3.46 4.33-3.002 2.228-6.94 2.9-10.664 2.574-7.45-.653-14.145-4.925-21.531-6.096-1.192-.189-2.395-.296-3.589-.474-3.719-.557-7.383-1.846-10.37-4.131s-5.248-5.628-5.818-9.345c-.285-1.859-.145-3.788.462-5.568.606-1.78 1.684-3.405 3.127-4.611 1.442-1.207 3.249-1.984 5.122-2.145 1.874-.16 3.805.306 5.366 1.354 1.392.933 2.447 2.273 3.635 3.454.594.591 1.228 1.148 1.942 1.585.715.437 1.514.753 2.348.833 1.426.137 2.845-.423 4.027-1.234s2.173-1.864 3.206-2.857 2.141-1.95 3.463-2.506a5.6 5.6 0 0 1 2.086-.46c.717-.01 1.44.146 2.069.491.857.472 1.492 1.265 1.998 2.103.505.838.902 1.737 1.422 2.566z" style="opacity:.599918;fill:#5081d7;fill-opacity:1;stroke:#2354b3;stroke-width:.529167;stroke-linecap:square;stroke-opacity:1" transform="translate(22.006 37.937)"/><path fill="none" d="M163.487 168.598a3.163 3.163 0 0 1 3.164-3.163h18.913a3.163 3.163 0 0 1 3.163 3.163v12.653a3.163 3.163 0 0 1-3.163 3.163H166.65a3.163 3.163 0 0 1-3.164-3.163z" style="stroke:none;stroke-width:.488332;stroke-linecap:square;stroke-miterlimit:10"/><path d="m154.993 158.581 2.718 6.439 1.478-1.787.248-1.67 2.632.644.825-.304 1.256.399-.174-.411-1.979-2.011.183-2.244-.748-1.773-1.135 3.258-2.417-.821-.432 1.079zM126.998 160.791l3.961 1.2-2.846 2.274.184.574 3.54.752-2.797 1.564 4.003-1.285 1.612-2.006 3.115.49-2.218-2.416.973-1.466-1.228-.397.431-2.085-2.427 2.904-5.522-.353z" style="fill:#e5e0db;fill-opacity:1;stroke:#272727;stroke-width:.529167;stroke-linecap:square;stroke-dasharray:none;stroke-opacity:1"/><path fill="#666" fill-rule="evenodd" d="M77.955 145.875h3.615v8.274h-3.615z" style="stroke:none;stroke-width:.488332;stroke-linecap:square;stroke-miterlimit:10" transform="rotate(125.956 120.514 183.76)"/><path stroke="#272727" stroke-linejoin="round" stroke-width="1.953" d="M77.955 145.875h3.615v8.274h-3.615z" style="fill:none;stroke-miterlimit:10" transform="rotate(125.956 120.514 183.76)"/><path fill="#666" fill-rule="evenodd" d="M88.989 139.353c0-2.285 1.787-4.138 3.991-4.138 1.059 0 2.074.436 2.822 1.212a4.22 4.22 0 0 1 1.17 2.926c0 2.285-1.788 4.137-3.992 4.137s-3.991-1.852-3.991-4.137" style="stroke:none;stroke-width:.488332;stroke-linecap:square;stroke-miterlimit:10" transform="translate(91.1 35.13)"/><path stroke="#272727" stroke-linejoin="round" stroke-width="1.953" d="M88.989 139.353c0-2.285 1.787-4.138 3.991-4.138 1.059 0 2.074.436 2.822 1.212a4.22 4.22 0 0 1 1.17 2.926c0 2.285-1.788 4.137-3.992 4.137s-3.991-1.852-3.991-4.137z" style="fill:none;stroke-miterlimit:10" transform="translate(91.1 35.13)"/><path fill="#900" fill-rule="evenodd" d="M90.865 139.352c0-1.125.947-2.038 2.115-2.038.56 0 1.099.215 1.495.597s.62.9.62 1.441c0 1.126-.947 2.038-2.115 2.038s-2.115-.912-2.115-2.038" style="stroke:none;stroke-width:.488332;stroke-linecap:square;stroke-miterlimit:10" transform="translate(91.1 35.13)"/><path fill="#666" fill-rule="evenodd" d="M105.087 139.353c0-2.285 1.787-4.138 3.991-4.138 1.059 0 2.074.436 2.823 1.212a4.22 4.22 0 0 1 1.169 2.926c0 2.285-1.787 4.137-3.992 4.137s-3.99-1.852-3.99-4.137" style="stroke:none;stroke-width:.488332;stroke-linecap:square;stroke-miterlimit:10" transform="translate(72.902 21.223)"/><path stroke="#272727" stroke-linejoin="round" stroke-width="1.953" d="M105.087 139.353c0-2.285 1.787-4.138 3.991-4.138 1.059 0 2.074.436 2.823 1.212a4.22 4.22 0 0 1 1.169 2.926c0 2.285-1.787 4.137-3.992 4.137s-3.99-1.852-3.99-4.137z" style="fill:none;stroke-miterlimit:10" transform="translate(72.902 21.223)"/><path fill="#3c78d8" fill-rule="evenodd" d="M106.964 139.352c0-1.125.943-2.038 2.107-2.038.559 0 1.094.215 1.49.597s.617.9.617 1.441c0 1.126-.944 2.038-2.107 2.038s-2.107-.912-2.107-2.038" style="stroke:none;stroke-width:.488332;stroke-linecap:square;stroke-miterlimit:10" transform="translate(72.902 21.223)"/><path fill="#e5e0db" stroke="#272727" stroke-linecap="round" stroke-width=".529" d="m135.066 174.844-3.327 2.011-3.94-.296 1.485 2.625-.114 1.536.344 3.107 1.135-1.688 1.463.244 1.545-.928 3.125.657-.906-1.818-2.943-2.252z" style="stroke-width:.529167;stroke-dasharray:none"/><path fill="#e5e0db" stroke="#272727" stroke-linecap="round" stroke-width=".529" d="m173.462 192.228-1.839-1.506-1.683-1.453-.033-1.64-.34-1.774-1.255 2.532-2.561.656-2.556.706 1.92.626 1.266.568-.135 1.278.666 1.083 1.603.623.39-1.246 1.902.202.148-.978.9.2.81.61zM153.579 178.829l-5.03.335 1.182.47-.838 1.518.697 2.085-.704.956 5.028-.335-1.491-.659.784-1.509-.99-1.876z"/><circle cx="150.352" cy="162.69" r="2.44" style="opacity:.599918;fill:#5081d7;fill-opacity:1;stroke:#2354b3;stroke-width:.529167;stroke-linecap:square;stroke-opacity:1"/><ellipse cx="234.85" cy="36.815" rx="3.36" ry="2.076" style="opacity:.599918;fill:#5081d7;fill-opacity:1;stroke:#2354b3;stroke-width:.529167;stroke-linecap:square;stroke-opacity:1" transform="rotate(34.531)"/></g></svg>