<?xml version="1.0" encoding="UTF-8" standalone="no"?>
<!-- Created with Inkscape (http://www.inkscape.org/) -->

<svg
   width="171.13577"
   height="92.947159"
   viewBox="0 0 45.279672 24.592269"
   version="1.1"
   id="svg1"
   inkscape:version="1.3.2 (091e20e, 2023-11-25, custom)"
   sodipodi:docname="cooler_residue.svg"
   xmlns:inkscape="http://www.inkscape.org/namespaces/inkscape"
   xmlns:sodipodi="http://sodipodi.sourceforge.net/DTD/sodipodi-0.dtd"
   xmlns="http://www.w3.org/2000/svg"
   xmlns:svg="http://www.w3.org/2000/svg">
  <sodipodi:namedview
     id="namedview1"
     pagecolor="#505050"
     bordercolor="#ffffff"
     borderopacity="1"
     inkscape:showpageshadow="0"
     inkscape:pageopacity="0"
     inkscape:pagecheckerboard="1"
     inkscape:deskcolor="#505050"
     inkscape:document-units="px"
     inkscape:zoom="4.2368967"
     inkscape:cx="83.78774"
     inkscape:cy="50.154633"
     inkscape:window-width="1920"
     inkscape:window-height="1001"
     inkscape:window-x="-9"
     inkscape:window-y="-9"
     inkscape:window-maximized="1"
     inkscape:current-layer="layer1" />
  <defs
     id="defs1" />
  <g
     inkscape:label="Layer 1"
     inkscape:groupmode="layer"
     id="layer1"
     transform="translate(-135.91919,-185.90042)">
    <path
       id="path12-90"
       style="color:#000000;fill:#808080;stroke-linecap:round;stroke-linejoin:round;stroke-miterlimit:11.3386;-inkscape-stroke:none;fill-opacity:1"
       d="m 150.09156,202.35733 -0.99065,1.99078 c -0.26209,0.5267 -0.13574,1.30909 0.47199,1.61151 l 6.15508,3.06286 c 0.60773,0.30242 1.30803,-0.0686 1.57014,-0.59531 l 0.99064,-1.99078 -1.29032,-0.64208 -0.89763,1.80386 -5.61655,-2.79489 0.89763,-1.80386 z" />
    <path
       id="path1"
       style="color:#000000;fill:#808080;stroke-linecap:round;stroke-linejoin:round;stroke-miterlimit:11.3386;-inkscape-stroke:none;fill-opacity:1"
       d="m 172.45278,202.97562 1.4259,1.70627 c 0.37725,0.45143 1.14459,0.64967 1.66547,0.21438 l 5.27544,-4.40861 c 0.52088,-0.43529 0.46207,-1.22562 0.0848,-1.67706 l -1.42591,-1.70627 -1.10592,0.9242 1.29203,1.54606 -4.81388,4.02289 -1.29203,-1.54607 z" />
    <path
       id="rect935"
       style="fill:#357d99;fill-opacity:1;stroke:#14313c;stroke-width:0.820302;stroke-linecap:round;stroke-miterlimit:4;stroke-dasharray:none;stroke-opacity:1"
       d="m 172.1855,186.19044 -14.91338,14.91345 3.76686,-2.67477 -2.32129,2.97838 4.2574,-2.81411 -3.11771,4.24609 1.34361,-0.52793 3.07013,-1.71747 -2.6487,4.86013 14.91338,-14.91345 -4.04669,3.02257 3.13018,-3.93908 -0.0227,-0.0227 -3.35449,1.90213 2.15702,-3.09961 -0.0125,-0.0125 -3.05428,1.69028 0.31041,-1.14649 -2.34508,1.86928 z" />
    <path
       id="rect2"
       style="fill:#357d99;fill-opacity:1;stroke:#14313c;stroke-width:0.820208;stroke-linecap:square;stroke-linejoin:miter;stroke-dasharray:none;stroke-opacity:1;paint-order:fill markers stroke"
       d="m 137.57251,190.46678 -0.18563,3.70938 -1.06872,-1.72333 4.26975,17.94493 0.4419,-3.1324 1.28572,2.43661 -0.10433,-5.39013 1.56582,2.98881 0.3886,-2.22679 0.65743,1.59544 -0.0727,-3.60966 1.55594,4.00095 -4.20468,-17.67144 -0.58016,0.13804 -0.82118,3.46273 -0.72004,-1.00578 0.0808,3.49406 z" />
    <path
       id="rect3"
       style="fill:#357d99;fill-opacity:1;stroke:#14313c;stroke-width:0.820208;stroke-linecap:square;stroke-linejoin:miter;stroke-dasharray:none;stroke-opacity:1;paint-order:fill markers stroke"
       d="m 167.82702,194.44686 -2.2012,-1.63958 1.81263,-0.10613 -17.92521,-5.53423 2.41019,1.76847 -2.75298,0.30526 3.46622,2.49093 -2.45661,-0.26575 1.30429,1.27937 -2.26019,-0.59018 2.0234,1.44297 -2.68377,-0.28503 17.90646,5.52841 -0.47731,-0.51403 -1.9626,-1.29658 1.29357,-0.60225 -1.34459,-1.97921 z" />
    <path
       style="fill:#343434;fill-opacity:1;stroke:#6f6f6f;stroke-width:0.718528;stroke-linecap:round;stroke-linejoin:round;stroke-dasharray:none;stroke-opacity:1"
       d="m 145.44873,196.51547 5.23123,2.19657"
       id="path161-6-3"
       sodipodi:nodetypes="cc" />
    <path
       style="fill:#343434;fill-opacity:1;stroke:#6f6f6f;stroke-width:0.718528;stroke-linecap:round;stroke-linejoin:round;stroke-dasharray:none;stroke-opacity:1"
       d="m 167.69178,187.24915 -5.23123,2.19657"
       id="path161-6-3-4"
       sodipodi:nodetypes="cc" />
  </g>
</svg>
