<svg xmlns="http://www.w3.org/2000/svg" xml:space="preserve" width="224.901" height="141.43" viewBox="0 0 59.505 37.42"><g transform="translate(-137.656 -259.611)"><g transform="rotate(-9.679 6847.365 15193.161)"><path d="M2744.408-635.302h11.113v15.346h-11.113z" style="fill:#cbcbcb;fill-opacity:1;stroke:#333;stroke-width:1.2;stroke-linecap:round;stroke-linejoin:round;stroke-dasharray:none;stroke-opacity:1;stop-color:#000"/><rect width="4.397" height=".608" x="2745.752" y="-633.428" rx=".033" ry=".033" style="fill:#4d4d4d;fill-opacity:1;stroke:none;stroke-width:1.19372;stroke-linecap:round;stroke-linejoin:round;stroke-miterlimit:5;stroke-dasharray:none;stroke-opacity:1;paint-order:fill markers stroke"/><rect width="8.419" height=".608" x="2745.728" y="-631.955" rx=".033" ry=".033" style="fill:#4d4d4d;fill-opacity:1;stroke:none;stroke-width:1.19372;stroke-linecap:round;stroke-linejoin:round;stroke-miterlimit:5;stroke-dasharray:none;stroke-opacity:1;paint-order:fill markers stroke"/><rect width="3.438" height=".608" x="2745.727" y="-629.357" rx=".033" ry=".033" style="fill:#4d4d4d;fill-opacity:1;stroke:none;stroke-width:1.19372;stroke-linecap:round;stroke-linejoin:round;stroke-miterlimit:5;stroke-dasharray:none;stroke-opacity:1;paint-order:fill markers stroke"/><rect width="8.419" height=".608" x="2745.744" y="-630.669" rx=".033" ry=".033" style="fill:#4d4d4d;fill-opacity:1;stroke:none;stroke-width:1.19372;stroke-linecap:round;stroke-linejoin:round;stroke-miterlimit:5;stroke-dasharray:none;stroke-opacity:1;paint-order:fill markers stroke"/></g><rect width="3.69" height="3.69" x="325.341" y="-72.206" rx="0" ry="0" style="fill:#525252;fill-opacity:1;stroke:#262626;stroke-width:1.32292;stroke-linecap:round;stroke-linejoin:round;stroke-dasharray:none;stroke-opacity:1;stop-color:#000" transform="matrix(.70515 .70906 .7091 -.7051 -32.226 12.155)"/><g transform="rotate(-54.679 2333.78 2303.282)"><path d="M2744.408-635.302h11.113v15.346h-11.113z" style="fill:#cbcbcb;fill-opacity:1;stroke:#333;stroke-width:1.2;stroke-linecap:round;stroke-linejoin:round;stroke-dasharray:none;stroke-opacity:1;stop-color:#000"/><rect width="4.397" height=".608" x="2745.752" y="-633.428" rx=".033" ry=".033" style="fill:#4d4d4d;fill-opacity:1;stroke:none;stroke-width:1.19372;stroke-linecap:round;stroke-linejoin:round;stroke-miterlimit:5;stroke-dasharray:none;stroke-opacity:1;paint-order:fill markers stroke"/><rect width="8.419" height=".608" x="2745.728" y="-631.955" rx=".033" ry=".033" style="fill:#4d4d4d;fill-opacity:1;stroke:none;stroke-width:1.19372;stroke-linecap:round;stroke-linejoin:round;stroke-miterlimit:5;stroke-dasharray:none;stroke-opacity:1;paint-order:fill markers stroke"/><rect width="3.438" height=".608" x="2745.727" y="-629.357" rx=".033" ry=".033" style="fill:#4d4d4d;fill-opacity:1;stroke:none;stroke-width:1.19372;stroke-linecap:round;stroke-linejoin:round;stroke-miterlimit:5;stroke-dasharray:none;stroke-opacity:1;paint-order:fill markers stroke"/><rect width="8.419" height=".608" x="2745.744" y="-630.669" rx=".033" ry=".033" style="fill:#4d4d4d;fill-opacity:1;stroke:none;stroke-width:1.19372;stroke-linecap:round;stroke-linejoin:round;stroke-miterlimit:5;stroke-dasharray:none;stroke-opacity:1;paint-order:fill markers stroke"/></g><g transform="rotate(-129.679 1662.996 434.058)"><path d="M2744.408-635.302h11.113v15.346h-11.113z" style="fill:#cbcbcb;fill-opacity:1;stroke:#333;stroke-width:1.2;stroke-linecap:round;stroke-linejoin:round;stroke-dasharray:none;stroke-opacity:1;stop-color:#000"/><rect width="4.397" height=".608" x="2745.752" y="-633.428" rx=".033" ry=".033" style="fill:#4d4d4d;fill-opacity:1;stroke:none;stroke-width:1.19372;stroke-linecap:round;stroke-linejoin:round;stroke-miterlimit:5;stroke-dasharray:none;stroke-opacity:1;paint-order:fill markers stroke"/><rect width="8.419" height=".608" x="2745.728" y="-631.955" rx=".033" ry=".033" style="fill:#4d4d4d;fill-opacity:1;stroke:none;stroke-width:1.19372;stroke-linecap:round;stroke-linejoin:round;stroke-miterlimit:5;stroke-dasharray:none;stroke-opacity:1;paint-order:fill markers stroke"/><rect width="3.438" height=".608" x="2745.727" y="-629.357" rx=".033" ry=".033" style="fill:#4d4d4d;fill-opacity:1;stroke:none;stroke-width:1.19372;stroke-linecap:round;stroke-linejoin:round;stroke-miterlimit:5;stroke-dasharray:none;stroke-opacity:1;paint-order:fill markers stroke"/><rect width="8.419" height=".608" x="2745.744" y="-630.669" rx=".033" ry=".033" style="fill:#4d4d4d;fill-opacity:1;stroke:none;stroke-width:1.19372;stroke-linecap:round;stroke-linejoin:round;stroke-miterlimit:5;stroke-dasharray:none;stroke-opacity:1;paint-order:fill markers stroke"/></g><path d="m200.985 258.786-4.042-2.21-7.818 13.541 2.048-.549-.825 3.357 2.106-1.505z" style="fill:#4d4d4d;fill-opacity:1;stroke:#262626;stroke-width:1.85208;stroke-linecap:round;stroke-linejoin:round;stroke-dasharray:none;stroke-opacity:1" transform="translate(-32.226 12.155)"/><g transform="rotate(-120 152.187 270.959)"><rect width="8.47" height="14.096" x="141.833" y="276.957" rx="0" ry="0" style="fill:none;fill-opacity:1;stroke:#27180c;stroke-width:1.85209;stroke-linecap:round;stroke-linejoin:round;stroke-miterlimit:4;stroke-dasharray:none;stroke-opacity:1" transform="rotate(.048)"/><rect width="4.357" height="12.363" x="145.437" y="277.836" rx="0" ry="0" style="fill:#30839e;fill-opacity:1;stroke:#c8c8c8;stroke-width:1.85209;stroke-linecap:round;stroke-linejoin:round;stroke-miterlimit:4;stroke-dasharray:none;stroke-opacity:1" transform="rotate(.048)"/><rect width="8.719" height="14.096" x="140.591" y="276.964" rx="0" ry="0" style="fill:#c3793c;fill-opacity:1;stroke:#4e3018;stroke-width:1.85209;stroke-linecap:round;stroke-linejoin:round;stroke-miterlimit:4;stroke-dasharray:none;stroke-opacity:1" transform="rotate(.048)"/><g style="stroke-width:1.85208;stroke-dasharray:none" transform="rotate(179.647 -62.284 77.78)"><rect width="2.112" height="1.006" x="-267.423" y="-126.067" rx="0" ry="0" style="opacity:.985;fill:#616161;fill-opacity:1;stroke:#333;stroke-width:.79375;stroke-linecap:round;stroke-linejoin:round;stroke-dasharray:none;stroke-opacity:1;stop-color:#000"/><rect width="2.112" height="1.006" x="-267.423" y="-134.641" rx="0" ry="0" style="opacity:.985;fill:#616161;fill-opacity:1;stroke:#333;stroke-width:.79375;stroke-linecap:round;stroke-linejoin:round;stroke-dasharray:none;stroke-opacity:1;stop-color:#000"/><g transform="translate(0 -.052)"><rect width="2.257" height="4.513" x="-268.093" y="-132.055" rx="0" ry="0" style="opacity:.985;fill:#ccc;fill-opacity:1;stroke:#333;stroke-width:.79375;stroke-linecap:round;stroke-linejoin:round;stroke-dasharray:none;stroke-opacity:1;stop-color:#000"/><path d="M-266.548-128.247v-2.88" style="fill:#4d4d4d;fill-opacity:1;fill-rule:evenodd;stroke:#4d4d4d;stroke-width:.3175;stroke-linecap:square;stroke-linejoin:miter;stroke-dasharray:none;stroke-opacity:1" transform="translate(-.125 -.111)"/><path d="M-266.96-130.815v1.3M-266.96-128.312v-.52" style="fill:#4d4d4d;fill-opacity:1;fill-rule:evenodd;stroke:#4d4d4d;stroke-width:.3175;stroke-linecap:square;stroke-linejoin:miter;stroke-dasharray:none;stroke-opacity:1" transform="translate(-.298 -.235)"/></g></g></g><path d="M215.39 258.694c-1.3 2.23-2.63 3.846-4.325-1.582l-5.711 14.555 1.943-.848-.315 3.442 1.857-1.802z" style="fill:#5e5e5e;fill-opacity:1;stroke:#262626;stroke-width:1.85208;stroke-linecap:round;stroke-linejoin:round;stroke-dasharray:none;stroke-opacity:1" transform="translate(-32.226 12.155)"/><g style="stroke-width:1.25152;stroke-dasharray:none" transform="rotate(69.164 44.03 229.436)scale(1.47987)"><rect width="5.723" height="9.525" x="94.872" y="83.152" rx="0" ry="0" style="fill:none;fill-opacity:1;stroke:#0c2127;stroke-width:1.25152;stroke-linecap:round;stroke-linejoin:round;stroke-miterlimit:4;stroke-dasharray:none;stroke-opacity:1"/><rect width="2.944" height="8.354" x="97.307" y="83.746" rx="0" ry="0" style="fill:#30839e;fill-opacity:1;stroke:#c8c8c8;stroke-width:1.25152;stroke-linecap:round;stroke-linejoin:round;stroke-miterlimit:4;stroke-dasharray:none;stroke-opacity:1"/><rect width="5.892" height="9.525" x="94.032" y="83.157" rx="0" ry="0" style="fill:#3c86c3;fill-opacity:1;stroke:#18364e;stroke-width:1.25152;stroke-linecap:round;stroke-linejoin:round;stroke-miterlimit:4;stroke-dasharray:none;stroke-opacity:1"/></g><g style="stroke-width:1.85208;stroke-dasharray:none" transform="rotate(-111.237 94.763 -71.998)"><rect width="2.112" height="1.006" x="-267.423" y="-126.067" rx="0" ry="0" style="opacity:.985;fill:#616161;fill-opacity:1;stroke:#333;stroke-width:.79375;stroke-linecap:round;stroke-linejoin:round;stroke-dasharray:none;stroke-opacity:1;stop-color:#000"/><rect width="2.112" height="1.006" x="-267.423" y="-134.641" rx="0" ry="0" style="opacity:.985;fill:#616161;fill-opacity:1;stroke:#333;stroke-width:.79375;stroke-linecap:round;stroke-linejoin:round;stroke-dasharray:none;stroke-opacity:1;stop-color:#000"/><g transform="translate(0 -.052)"><rect width="2.257" height="4.513" x="-268.093" y="-132.055" rx="0" ry="0" style="opacity:.985;fill:#ccc;fill-opacity:1;stroke:#333;stroke-width:.79375;stroke-linecap:round;stroke-linejoin:round;stroke-dasharray:none;stroke-opacity:1;stop-color:#000"/><path d="M-266.548-128.247v-2.88" style="fill:#4d4d4d;fill-opacity:1;fill-rule:evenodd;stroke:#4d4d4d;stroke-width:.3175;stroke-linecap:square;stroke-linejoin:miter;stroke-dasharray:none;stroke-opacity:1" transform="translate(-.125 -.111)"/><path d="M-266.96-130.815v1.3M-266.96-128.312v-.52" style="fill:#4d4d4d;fill-opacity:1;fill-rule:evenodd;stroke:#4d4d4d;stroke-width:.3175;stroke-linecap:square;stroke-linejoin:miter;stroke-dasharray:none;stroke-opacity:1" transform="translate(-.298 -.235)"/></g></g><path d="m187.45 269.41-4.076-3.176-2.17-.293 1.853 3.164-1.38 3.325 2.767.996c2.185.72 1.99 3.24 1.97 5.626l4.359-2.757 4.637 2.94z" style="fill:#5e5e5e;fill-opacity:1;stroke:#262626;stroke-width:1.85208;stroke-linecap:round;stroke-linejoin:round;stroke-dasharray:none;stroke-opacity:1" transform="translate(-32.226 12.155)"/><path d="m172.552 267.235 51.196-6.563-5.72 2.19 1.839.82-2.445 3.014-39.585 4.909.908-1.85-3.29-.524.938-1.077z" style="fill:#5e5e5e;fill-opacity:1;stroke:#262626;stroke-width:1.85208;stroke-linecap:round;stroke-linejoin:round;stroke-dasharray:none;stroke-opacity:1" transform="translate(-32.226 12.155)"/><rect width="3.69" height="3.69" x="320.26" y="-56.954" rx="0" ry="0" style="fill:#525252;fill-opacity:1;stroke:#262626;stroke-width:1.32292;stroke-linecap:round;stroke-linejoin:round;stroke-dasharray:none;stroke-opacity:1;stop-color:#000" transform="matrix(.70515 .70906 .7091 -.7051 0 0)"/><path d="M138.926 273.678c.08.562.597.951 1.16.872.562-.08.95-.597.871-1.16l-.653-4.618 9.038-1.278.653 4.62c.08.562.596.95 1.159.871.562-.08.951-.596.872-1.159l-.797-5.635-.008-.052c-.1-.534-.564-.902-1.061-.832l-11.158 1.577-.089.013c-.497.07-.84.552-.79 1.094l.007.052zM192.356 276.01a1.024 1.024 0 0 0-1.45 0 1.023 1.023 0 0 0 0 1.45l3.298 3.298-6.454 6.455-3.298-3.299a1.023 1.023 0 0 0-1.45 0 1.024 1.024 0 0 0 0 1.45l4.023 4.024.038.037c.402.366.994.382 1.35.026l7.967-7.967.063-.064c.356-.355.34-.947-.026-1.349l-.037-.038z" style="display:inline;fill:gray;fill-opacity:1;stroke:#2e2e2e;stroke-width:.926042;stroke-miterlimit:4;stroke-dasharray:none;stroke-opacity:1"/></g></svg>