<svg xmlns="http://www.w3.org/2000/svg" xml:space="preserve" width="158" height="149" viewBox="0 0 41.804 39.423"><path d="M7.46 22.406S5.03 33.42 11.943 32.584c6.912-.836 9.418-3.646 11.849-8.279 2.43-4.633 5.469-7.367 10.71-3.57 5.24 3.798 19.064 8.507 8.658-2.506s-15.19-12.38-17.621-7.596c-2.43 4.786-1.747 12.76-5.925 12.609-4.177-.152-3.774-4.172-5.62-4.254-3.418-.152-3.57 7.292-3.57 7.292" style="fill:none;fill-opacity:1;fill-rule:evenodd;stroke:#1e1e7b;stroke-width:1.0414;stroke-linecap:round;stroke-linejoin:round;stroke-miterlimit:29;stroke-dasharray:none;stroke-opacity:1" transform="translate(-5.67 -4.83)"/><path d="M45.7 23.598s2.43-11.013-4.482-10.178c-6.911.836-9.418 3.646-11.848 8.28-2.43 4.632-5.469 7.367-10.71 3.569-5.24-3.798-19.064-8.507-8.658 2.506 10.405 11.014 15.19 12.38 17.62 7.596s1.748-12.76 5.925-12.608c4.178.151 3.775 4.17 5.62 4.253 3.419.152 3.57-7.292 3.57-7.292" style="fill:none;fill-opacity:1;fill-rule:evenodd;stroke:#5c180a;stroke-width:1.0414;stroke-linecap:round;stroke-linejoin:round;stroke-miterlimit:29;stroke-dasharray:none;stroke-opacity:1" transform="translate(-5.67 -4.83)"/><path d="M26.111 37.519s11.998-.95 9.148-7.302-6.278-7.91-11.424-8.856-8.66-3.034-6.589-9.166 2.462-20.73-4.965-7.524-7.31 18.182-2.02 19.082c5.291.9 12.703-2.121 13.799 1.913 1.095 4.034-2.863 4.843-2.393 6.63.87 3.309 8.023 1.244 8.023 1.244" style="fill:none;fill-opacity:1;fill-rule:evenodd;stroke:#2e7b1e;stroke-width:1.0414;stroke-linecap:round;stroke-linejoin:round;stroke-miterlimit:29;stroke-dasharray:none;stroke-opacity:1" transform="translate(-.191 1.288)"/><path d="M136.353 208.54c0 1.515-1.478 1.377-2.742 2.09-1.402.552-2.667-.959-2.742-2.09-.102-1.51 1.227-2.742 2.742-2.742a2.74 2.74 0 0 1 2.742 2.742z" style="opacity:1;fill:#212226;fill-opacity:1;stroke:#333;stroke-width:0;stroke-linejoin:round" transform="rotate(90 294.233 83.753)scale(1.75)"/><path d="M136.353 208.54c0 1.515-.152.588-1.372 1.534-1.402.551.275-.824.2-1.954-.102-1.512-2.088-2.322-.574-2.322 1.014.877 1.746 1.228 1.746 2.742z" style="fill:#1c1d20;fill-opacity:1;stroke:#333;stroke-width:0;stroke-linejoin:round" transform="rotate(90 294.233 83.753)scale(1.75)"/><path d="M131.937 208.567c0 1.515.947 2.206.184 2.041-.454-.286-.845-.94-1.252-2.068.256-1.248.2-1.304 1.07-2.174 1.672-.568-.001.687-.001 2.201z" style="fill:#26272c;fill-opacity:1;stroke:#333;stroke-width:0;stroke-linejoin:round" transform="rotate(90 294.233 83.753)scale(1.75)"/><path fill="none" d="M136.353 208.54c0 1.515-1.478 1.377-2.742 2.09-1.402.552-2.667-.959-2.742-2.09-.102-1.51 1.227-2.742 2.742-2.742a2.74 2.74 0 0 1 2.742 2.742z" style="fill:#666;fill-opacity:0;stroke:#111113;stroke-width:.681914;stroke-linejoin:round;stroke-dasharray:none;stroke-opacity:1" transform="rotate(90 294.233 83.753)scale(1.75)"/><path d="m131.323 204.321 3.409 1.078 1.01 4.209-4.37-1.02s-.82-4.511-.049-4.267" style="fill:#26272c;fill-opacity:1;stroke:none;stroke-width:0;stroke-linecap:butt;stroke-linejoin:round;stroke-dasharray:none;stroke-opacity:1" transform="rotate(75 342.605 58.735)scale(1.75)"/><path d="m134.732 205.4 1.01 4.208-4.37-1.02.835-2.545z" style="fill:#212226;fill-opacity:1;stroke:#333;stroke-width:0;stroke-linecap:butt;stroke-linejoin:round;stroke-dasharray:none" transform="rotate(75 342.605 58.735)scale(1.75)"/><path d="m135.237 207.504.504 2.104-2.184-.51.309-1.209z" style="fill:#1c1d20;fill-opacity:1;stroke:#333;stroke-width:0;stroke-linecap:butt;stroke-linejoin:round;stroke-dasharray:none" transform="rotate(75 342.605 58.735)scale(1.75)"/><path fill="none" d="m131.323 204.321 3.409 1.078s1.14 4.086 1.01 4.209c-.131.122-4.37-1.02-4.37-1.02s-.557-4.267-.049-4.267z" style="fill:#999;fill-opacity:0;stroke:#111113;stroke-width:.595086;stroke-linecap:butt;stroke-linejoin:round;stroke-dasharray:none;stroke-opacity:1" transform="rotate(75 342.605 58.735)scale(1.75)"/><path d="m131.323 204.321 3.409 1.078 1.01 4.209-4.37-1.02s-.82-4.511-.049-4.267" style="fill:#26272c;fill-opacity:1;stroke:none;stroke-width:0;stroke-linecap:butt;stroke-linejoin:round;stroke-dasharray:none;stroke-opacity:1" transform="rotate(-105 -3.295 261.752)scale(1.75)"/><path d="m134.732 205.4 1.01 4.208-4.37-1.02.835-2.545z" style="fill:#212226;fill-opacity:1;stroke:#333;stroke-width:0;stroke-linecap:butt;stroke-linejoin:round;stroke-dasharray:none" transform="rotate(-105 -3.295 261.752)scale(1.75)"/><path d="m135.237 207.504.504 2.104-2.184-.51.309-1.209z" style="fill:#1c1d20;fill-opacity:1;stroke:#333;stroke-width:0;stroke-linecap:butt;stroke-linejoin:round;stroke-dasharray:none" transform="rotate(-105 -3.295 261.752)scale(1.75)"/><path fill="none" d="m131.323 204.321 3.409 1.078s1.14 4.086 1.01 4.209c-.131.122-4.37-1.02-4.37-1.02s-.557-4.267-.049-4.267z" style="fill:#999;fill-opacity:0;stroke:#111113;stroke-width:.595086;stroke-linecap:butt;stroke-linejoin:round;stroke-dasharray:none;stroke-opacity:1" transform="rotate(-105 -3.295 261.752)scale(1.75)"/><path d="m3.92 6.606 7.842-3.384-2.095 2.74L19.335.912 7.197 12.943l-5.962 2.9 5.962-7.25Z" style="fill:#26272c;fill-opacity:1;fill-rule:evenodd;stroke:#111113;stroke-width:1.0414;stroke-linecap:round;stroke-linejoin:round;stroke-miterlimit:29;stroke-dasharray:none;stroke-opacity:1" transform="translate(-.697 1.995)"/><path d="M9.318 6.337 7.197 7.976 5.022 6.673l5.129-2.202-.887 1.195s-.268.35.054.671" style="fill:#1c1d20;fill-opacity:1;fill-rule:evenodd;stroke:none;stroke-width:1.0414;stroke-linecap:round;stroke-linejoin:round;stroke-miterlimit:29;stroke-dasharray:none;stroke-opacity:1" transform="translate(-.697 1.995)"/><path d="M14.286 4.135 3.222 14.34l4.203-5.21s.779-.63-.228-1.154l2.121-1.639s.322.336.833-.026c.449-.32 4.135-2.176 4.135-2.176" style="fill:#212226;fill-opacity:1;fill-rule:evenodd;stroke:none;stroke-width:1.0414;stroke-linecap:round;stroke-linejoin:round;stroke-miterlimit:29;stroke-dasharray:none;stroke-opacity:1" transform="translate(-.697 1.995)"/><path d="m3.92 6.606 7.842-3.384-2.095 2.74L19.335.912 7.197 12.943l-5.962 2.9 5.962-7.25Z" style="fill:#26272c;fill-opacity:1;fill-rule:evenodd;stroke:#111113;stroke-width:1.0414;stroke-linecap:round;stroke-linejoin:round;stroke-miterlimit:29;stroke-dasharray:none;stroke-opacity:1" transform="rotate(90 11.483 27.137)"/><path d="M9.318 6.337 7.197 7.976 5.022 6.673l5.129-2.202-.887 1.195s-.268.35.054.671" style="fill:#1c1d20;fill-opacity:1;fill-rule:evenodd;stroke:none;stroke-width:1.0414;stroke-linecap:round;stroke-linejoin:round;stroke-miterlimit:29;stroke-dasharray:none;stroke-opacity:1" transform="rotate(90 11.483 27.137)"/><path d="M14.286 4.135 3.222 14.34l4.203-5.21s.779-.63-.228-1.154l2.121-1.639s.322.336.833-.026c.449-.32 4.135-2.176 4.135-2.176" style="fill:#212226;fill-opacity:1;fill-rule:evenodd;stroke:none;stroke-width:1.0414;stroke-linecap:round;stroke-linejoin:round;stroke-miterlimit:29;stroke-dasharray:none;stroke-opacity:1" transform="rotate(90 11.483 27.137)"/><path d="m-9.138 17.906 10.417-2.791.57 2.127-3.805 2.197-.604 2.255-2.582-.692 1.12 4.182-2.954.792zM-5.566 19.675l.575 1.816M-3.977 19.106l.574 1.816M-2.504 18.308l.499 1.285M-1.026 17.397l.308.904" style="fill:#999;fill-opacity:1;fill-rule:evenodd;stroke:#111113;stroke-width:1.0414;stroke-linecap:round;stroke-linejoin:round;stroke-miterlimit:29;stroke-dasharray:none;stroke-opacity:1" transform="translate(24.512 -10.308)"/><g><circle cx="21.685" cy="9.988" r="1.937" style="fill:#999;fill-opacity:1;fill-rule:evenodd;stroke:#111113;stroke-width:1.0414;stroke-linecap:round;stroke-linejoin:round;stroke-miterlimit:29;stroke-opacity:1"/><circle cx="21.685" cy="9.988" r=".879" style="fill:#666;fill-opacity:1;fill-rule:evenodd;stroke:none;stroke-width:.472603;stroke-linecap:round;stroke-linejoin:round;stroke-miterlimit:29;stroke-opacity:1"/></g><path d="m-2.417 25.125.61-2.275 1.491 1.493 1.978-1.978h3.156L3.643 26.75zM2.317 22.786l-.342 1.253" style="fill:#999;fill-opacity:1;fill-rule:evenodd;stroke:#111113;stroke-width:1.0414;stroke-linecap:round;stroke-linejoin:round;stroke-miterlimit:29;stroke-dasharray:none;stroke-opacity:1" transform="translate(23.116 -10.737)"/></svg>