<svg xmlns="http://www.w3.org/2000/svg" width="435" height="46.926" viewBox="0 0 115.094 12.416"><path d="M66.146 5.248c0-.568-.458-1.026-1.026-1.026s-1.025.458-1.025 1.026v4.665h-9.128V5.248c0-.568-.457-1.026-1.025-1.026s-1.026.458-1.026 1.026v5.69l.001.053c.025.544.433.973.935.973H65.21c.503 0 .91-.43.935-.973l.001-.052z" style="display:inline;fill:gray;fill-opacity:1;stroke:#2e2e2e;stroke-width:.926041;stroke-miterlimit:4;stroke-dasharray:none;stroke-opacity:1" transform="rotate(15 66.105 -7.753)"/><path d="m7.174 1.385 4.218 2.52-3.657-.46 2.809 1.215-2.902-.157 4.389 1.455-4.177-.367 1.856.786-3.82-.198 19.174 5.138-4.455-2.279 3.749-.095-3.978-1.235 3.156.133-2.975-1.257 5.788-.06ZM58.405 1.28l5.606 2.667-4.12-.198 5.294 1.628-3.873-.505 2.575 1.183-3.79-.723 2.652 1.271-5.628-.53 19.175 5.138-.919-1.37-2.419-.993 2.55-.163-1.905-.916 2.735-.254-1.951-.822 3.193-.276ZM87.764 6.398l4.641-.02-2.999 1.462 3.471-.769L89.34 9.08l4.78-.822-3.976 1.38 1.28.098-2.376 1.455 19.175-5.138-4.592.032 1.73-.969-3.663.534 4.794-1.825-3.106.695 1.69-1.163-2.368.321 4.23-2.418zM31.854 6.453l4.54.024-2.812 1.368 4.113-.771L34.09 8.42l4.76-.636-3.924 1.35 2.273-.182-4.06 2.294 19.175-5.138-1.74-.64-5.106.907 4.355-1.823-3.8.448 4.311-1.415-3.951.334 4.646-2.604Z" style="fill:#a29e99;fill-opacity:1;stroke:#423f3c;stroke-width:.555625;stroke-linecap:square;stroke-linejoin:miter;stroke-miterlimit:4;stroke-dasharray:none;stroke-opacity:1"/></svg>