<svg xmlns="http://www.w3.org/2000/svg" xml:space="preserve" width="208.289" height="70.472" viewBox="0 0 55.11 18.646"><path d="m113.887 229.777.59-3.302-.545-1.7-1.763-.334 1.14-2.859 2.828.396 1.505-1.019.979.702.658 6.689-2.443-1.538zM138.316 216.199l-3.014 2.559-5.561-.38-1.18-2.007-2.072 2.094.857-2.723-.756-1.653.855-.85 11.183.661-1.796 1.283z" style="fill:#666;fill-opacity:1;stroke:#292929;stroke-width:.529167;stroke-linecap:square;stroke-linejoin:round;stroke-miterlimit:29;stroke-dasharray:none;stroke-opacity:1" transform="translate(-83.783 -211.395)"/><path d="m130.568 227.564.585 1.217-8.525-6.302 1.698-.077-.405-.85 2.042.7-2.251-2.54 1.728.156.246-.742 9.29 6.83-1.57.101.39 1.25-1.187-1.162-1.255.102.058 1.428z" style="fill:#2d492c;fill-opacity:1;stroke:#232f23;stroke-width:.529;stroke-linecap:square;stroke-linejoin:miter;stroke-miterlimit:29;stroke-dasharray:none;stroke-opacity:1" transform="translate(-83.783 -211.395)"/><path d="m106.568 213.619 2.313-.957.323-1.03 2.152 2.996 2.81 1.335-1.315 2.16-2.867-.659-.22 2.7-1.28-2.313-3.59-2.733 2.784.962z" style="fill:#666;fill-opacity:1;stroke:#292929;stroke-width:.471419;stroke-linecap:square;stroke-linejoin:round;stroke-miterlimit:29;stroke-dasharray:none;stroke-opacity:1" transform="translate(-83.783 -211.395)"/><path d="m100.322 217.885-4.928 1.45-3.858 4.034-3.568 1.873-.12-3.307-3.8-.038.845-2.884 5.9-1.81 5.427-5.182-.266 2.869z" style="fill:#666;fill-opacity:1;stroke:#292929;stroke-width:.529167;stroke-linecap:square;stroke-linejoin:round;stroke-miterlimit:29;stroke-dasharray:none;stroke-opacity:1" transform="translate(-83.783 -211.395)"/><path d="m99.11 208.666 5.483 5.482M99 212.302l5.483 5.482M97.993 213.314l4-3.935M103.847 214.949l1.45-1.413M99.068 216.015l5.848-5.848" style="fill:#666;fill-opacity:1;stroke:#8c8c8c;stroke-width:.926042;stroke-linecap:square;stroke-linejoin:round;stroke-miterlimit:29;stroke-dasharray:none;stroke-opacity:1" transform="rotate(.685 16890.55 -6781.964)"/><path fill="#999" stroke="#292929" stroke-linecap="square" stroke-miterlimit="29" stroke-width=".926" d="m43.343 15.58-.677-2.384-2.768 1.21 1.495 2.381 4.968-2.149c.411-.187.522-.176.445-.346-.067-.16-.16-.126-.508.02z"/></svg>