<?xml version="1.0" encoding="UTF-8" standalone="no"?>
<!-- Created with Inkscape (http://www.inkscape.org/) -->

<svg
   width="224.58226"
   height="200.30286"
   viewBox="0 0 59.420721 52.996797"
   version="1.1"
   id="svg1"
   inkscape:export-filename="bridgebase.svg"
   inkscape:export-xdpi="96"
   inkscape:export-ydpi="96"
   sodipodi:docname="aaaa.svg"
   xml:space="preserve"
   inkscape:version="1.3.2 (091e20e, 2023-11-25)"
   xmlns:inkscape="http://www.inkscape.org/namespaces/inkscape"
   xmlns:sodipodi="http://sodipodi.sourceforge.net/DTD/sodipodi-0.dtd"
   xmlns="http://www.w3.org/2000/svg"
   xmlns:svg="http://www.w3.org/2000/svg"><sodipodi:namedview
     id="namedview1"
     pagecolor="#ffffff"
     bordercolor="#000000"
     borderopacity="0.25"
     inkscape:showpageshadow="2"
     inkscape:pageopacity="0.0"
     inkscape:pagecheckerboard="0"
     inkscape:deskcolor="#d1d1d1"
     inkscape:document-units="px"
     inkscape:zoom="0.41613561"
     inkscape:cx="210.26799"
     inkscape:cy="569.52588"
     inkscape:window-width="1312"
     inkscape:window-height="449"
     inkscape:window-x="0"
     inkscape:window-y="25"
     inkscape:window-maximized="0"
     inkscape:current-layer="layer1" /><defs
     id="defs1" /><g
     inkscape:label="Layer 1"
     inkscape:groupmode="layer"
     id="layer1"
     transform="translate(-39.608205,-135.71644)"><path
       style="fill:#b50000;fill-opacity:1;stroke:#0084c8;stroke-width:0.5;stroke-linecap:round;stroke-linejoin:round;stroke-dasharray:none;stroke-opacity:1"
       d="m 82.506063,144.93129 -0.327403,4.00162"
       id="path6" /><path
       style="fill:none;fill-opacity:1;stroke:#dc0000;stroke-width:0.5;stroke-linecap:round;stroke-linejoin:round;stroke-dasharray:none;stroke-opacity:1"
       d="m 78.65839,146.1423 1.401895,3.7623 0.990646,0.0469"
       id="path7" /><path
       opacity="0.95"
       d="m 107.7979,137.0667 c 20.8337,0 37.7229,-16.8008 37.7229,-37.5255 0,-20.7247 -16.8892,-37.5254 -37.7229,-37.5254 -20.8338,0 -37.723,16.8007 -37.723,37.5254 0,20.7247 16.8892,37.5255 37.723,37.5255 z"
       fill="#3a4f3f"
       id="path8-0"
       style="fill:#668958;fill-opacity:0.85;stroke-width:0.395004;stroke-dasharray:none" /><path
       opacity="0.85"
       d="m 115.1055,140.6217 c 14.6163,0 26.4653,-11.849 26.4653,-26.4653 0,-14.6164 -11.849,-26.4653 -26.4653,-26.4653 -14.6164,0 -26.4654,11.8489 -26.4654,26.4653 0,14.6163 11.849,26.4653 26.4654,26.4653 z"
       fill="#485e52"
       id="path16-6"
       style="opacity:0.8;fill:#668958;fill-opacity:0.803922;stroke-width:0.395004;stroke-dasharray:none" /><path
       opacity="0.85"
       fill-rule="evenodd"
       clip-rule="evenodd"
       d="m 64.7625,105.0049 c 9.6132,-0.8034 17.1626,-8.779 17.1626,-18.4989 0,-10.2531 -8.4002,-18.5652 -18.7628,-18.5652 -10.3621,0 -18.7627,8.3121 -18.7627,18.5652 0,0.4531 0.017,0.9026 0.049,1.3474 -0.9227,-0.107 -1.8617,-0.1623 -2.8136,-0.1623 -13.3073,0 -24.0953,10.7879 -24.0953,24.0953 0,13.3073 10.788,24.0952 24.0953,24.0952 13.3073,0 24.0953,-10.7879 24.0953,-24.0952 0,-2.3547 -0.3378,-4.6307 -0.9674,-6.7815 z"
       fill="#485e52"
       id="path22-9"
       style="opacity:0.8;fill:#668958;fill-opacity:0.803922;stroke-width:0.395004;stroke-dasharray:none" /><path
       sodipodi:type="star"
       style="fill:#a46028;fill-opacity:1;stroke:#312114;stroke-width:0.79375;stroke-linejoin:round;stroke-dasharray:none;stroke-opacity:1"
       id="path1620"
       inkscape:flatsided="false"
       sodipodi:sides="8"
       sodipodi:cx="6.6306486"
       sodipodi:cy="7.655385"
       sodipodi:r1="8.4433117"
       sodipodi:r2="6.7546492"
       sodipodi:arg1="0.17219081"
       sodipodi:arg2="0.5648899"
       inkscape:rounded="0"
       inkscape:randomized="0"
       d="M 14.949099,9.1020719 12.335946,11.271303 11.489719,14.560379 8.1080634,14.24648 5.1839617,15.973835 3.0147308,13.360683 -0.27434587,12.514455 0.03955379,9.1327998 -1.6878013,6.2086981 0.92535078,4.0394672 1.7715784,0.75039054 5.1532339,1.0642902 8.0773355,-0.66306492 10.246566,1.9500872 l 3.289077,0.8462276 -0.3139,3.3816555 z"
       transform="matrix(1.6576083,0,0,1.6576083,59.022513,150.78618)"
       inkscape:export-filename="../Code/suroi-dev/client/public/img/game/shared/residues/loot_tree_residue.svg"
       inkscape:export-xdpi="96"
       inkscape:export-ydpi="96" /><path
       sodipodi:type="star"
       style="fill:#848484;fill-opacity:1;fill-rule:nonzero;stroke:#242221;stroke-width:0.420666;stroke-linejoin:miter;stroke-dasharray:none;stroke-opacity:1"
       id="path1620-8"
       inkscape:flatsided="false"
       sodipodi:sides="8"
       sodipodi:cx="6.6306486"
       sodipodi:cy="7.655385"
       sodipodi:r1="8.4433117"
       sodipodi:r2="6.7546492"
       sodipodi:arg1="0.17219081"
       sodipodi:arg2="0.5648899"
       inkscape:rounded="0"
       inkscape:randomized="0"
       d="M 14.949099,9.1020719 12.335946,11.271303 11.489719,14.560379 8.1080634,14.24648 5.1839617,15.973835 3.0147308,13.360683 -0.27434587,12.514455 0.03955379,9.1327998 -1.6878013,6.2086981 0.92535078,4.0394672 1.7715784,0.75039054 5.1532339,1.0642902 8.0773355,-0.66306492 10.246566,1.9500872 l 3.289077,0.8462276 -0.3139,3.3816555 z"
       transform="matrix(1.4263092,0,0,1.4263092,60.556175,152.55687)" /><path
       d="m 46.638041,149.58985 4.279365,-5.42334 8.553236,-1.57643 -7.876501,6.33003 -6.078834,9.95027 -5.19149,1.9817 z"
       fill="#6d4a2c"
       stroke="#1b1917"
       stroke-width="1.4314"
       stroke-miterlimit="16"
       stroke-linejoin="round"
       id="path4-3"
       style="fill:#a46028;fill-opacity:1;stroke:#312114;stroke-opacity:1"
       sodipodi:nodetypes="ccccccc" /><path
       d="m 53.729725,157.33038 c 0.40208,-2.15524 -0.568295,-6.83259 -3.165789,-5.4821 -2.468284,1.57429 1.097014,4.75333 3.164602,5.4829 l 3.78e-4,7.7e-4 c 3.78e-4,-3.8e-4 6.25e-4,-0.001 8.05e-4,-0.002 z"
       fill="#5f926a"
       id="path46-67"
       style="fill:#588a42;fill-opacity:0.898039;stroke-width:0.279834" /><path
       d="m 58.518083,149.71599 -0.0022,6e-4 c -2.573756,-1.23809 -8.7783,-1.60138 -7.952175,2.13151 1.151035,3.64584 6.342463,0.22894 7.952565,-2.12991 l 0.0022,-6.1e-4 c -3.95e-4,0 -9.53e-4,-2e-4 -0.0012,-4e-4 3.78e-4,-3.7e-4 3.78e-4,-7.7e-4 8.06e-4,-0.001 z"
       fill="#587e60"
       id="path48-5"
       style="fill:#609648;fill-opacity:0.898039;stroke-width:0.279834" /><path
       d="m 47.572047,145.22474 c 2.121101,0.39571 6.724347,-0.55929 5.395254,-3.11563 -1.549346,-2.42918 -4.678029,1.07963 -5.396032,3.11446 l -7.72e-4,3.8e-4 c 3.78e-4,3.8e-4 0.0014,6.1e-4 0.0015,7.7e-4 z"
       fill="#5f926a"
       id="path46-6-3"
       style="fill:#588a42;fill-opacity:0.898039;stroke-width:0.275403" /><path
       d="m 51.396709,135.71683 6.07e-4,0.002 c -1.218485,2.53297 -1.576027,8.63922 2.097731,7.82618 3.588072,-1.1328 0.225314,-6.24198 -2.096173,-7.82657 l -6.07e-4,-0.002 c 0,3.8e-4 -1.89e-4,9.5e-4 -3.79e-4,0.001 -3.8e-4,-3.8e-4 -7.58e-4,-3.8e-4 -0.0012,-7.9e-4 z"
       fill="#587e60"
       id="path48-7-5"
       style="fill:#609648;fill-opacity:0.898039;stroke-width:0.275403" /><path
       d="m 53.102463,147.44973 -5.75e-4,9.7e-4 c -1.703701,0.5584 -4.611264,3.0805 -2.538136,4.39735 2.17721,1.13719 2.907563,-2.64201 2.53932,-4.39696 l 3.78e-4,-7.7e-4 c 3.94e-4,0 0,0 0,0 0,-3.9e-4 -9.54e-4,-2e-4 -9.7e-4,-5.8e-4 z"
       fill="#77a37a"
       id="path50-6"
       style="fill:#588a42;fill-opacity:0.898039;stroke-width:0.279834" /><path
       d="m 54.839807,183.3443 -4.141996,-3.26831 -1.20398,-6.53241 4.834469,6.01557 7.599379,4.64262 1.513492,3.96493 z"
       fill="#6d4a2c"
       stroke="#1b1917"
       stroke-width="1.09321"
       stroke-miterlimit="16"
       stroke-linejoin="round"
       id="path4-3-7"
       style="fill:#a46028;fill-opacity:1;stroke:#312114;stroke-opacity:1"
       sodipodi:nodetypes="ccccccc" /><path
       d="m 60.751529,177.92813 c -1.646038,-0.30709 -5.218298,0.43402 -4.186879,2.41782 1.202339,1.88512 3.630291,-0.83783 4.187484,-2.41692 l 5.89e-4,-2.9e-4 c -2.88e-4,-2.9e-4 -0.0011,-4.7e-4 -0.0012,-6.1e-4 z"
       fill="#5f926a"
       id="path46-67-9"
       style="fill:#588a42;fill-opacity:0.898039;stroke-width:0.213719" /><path
       d="m 54.936142,174.27108 4.64e-4,0.002 c -0.945574,1.96567 -1.223037,6.7043 1.62791,6.07336 2.784453,-0.87909 0.17485,-4.84397 -1.626694,-6.07366 l -4.64e-4,-0.002 c 0,3e-4 -1.51e-4,7.2e-4 -3.02e-4,8.8e-4 -2.88e-4,-2.9e-4 -5.9e-4,-2.9e-4 -9.16e-4,-6.2e-4 z"
       fill="#587e60"
       id="path48-5-2"
       style="fill:#609648;fill-opacity:0.898039;stroke-width:0.213719" /><path
       d="m 51.506017,182.63096 c 0.302218,-1.61996 -0.427151,-5.13562 -2.37952,-4.12054 -1.855251,1.18329 0.824554,3.57277 2.378629,4.12114 l 2.89e-4,5.9e-4 c 2.88e-4,-2.9e-4 4.64e-4,-0.001 5.89e-4,-0.001 z"
       fill="#5f926a"
       id="path46-6-3-0"
       style="fill:#588a42;fill-opacity:0.898039;stroke-width:0.210335" /><path
       d="m 44.244487,179.70993 0.0016,-4.6e-4 c 1.934522,0.9306 6.598082,1.20367 5.977137,-1.60211 -0.865161,-2.74034 -4.767224,-0.17208 -5.977435,1.60092 l -0.0016,4.6e-4 c 2.89e-4,0 7.24e-4,1.5e-4 8.7e-4,2.9e-4 -2.9e-4,2.9e-4 -2.9e-4,5.8e-4 -6.03e-4,8.9e-4 z"
       fill="#587e60"
       id="path48-7-5-2"
       style="fill:#609648;fill-opacity:0.898039;stroke-width:0.210335" /><path
       d="m 53.205322,178.40719 7.41e-4,4.4e-4 c 0.426466,1.30117 2.352688,3.52178 3.358415,1.93846 0.868509,-1.66281 -2.017802,-2.22061 -3.358117,-1.93937 l -5.9e-4,-2.9e-4 c 0,-3e-4 0,0 0,0 -3.01e-4,0 -1.51e-4,7.3e-4 -4.39e-4,7.4e-4 z"
       fill="#77a37a"
       id="path50-6-3"
       style="fill:#588a42;fill-opacity:0.898039;stroke-width:0.213719" /><path
       d="m 96.486628,148.54262 -0.897906,6.17323 -5.976981,5.09453 3.301543,-8.50636 0.261225,-10.52579 3.165081,-3.89364 z"
       fill="#6d4a2c"
       stroke="#1b1917"
       stroke-width="1.29254"
       stroke-miterlimit="16"
       stroke-linejoin="round"
       id="path4-3-5"
       style="fill:#a46028;fill-opacity:1;stroke:#312114;stroke-opacity:1"
       sodipodi:nodetypes="ccccccc" /><path
       d="m 87.446036,145.69129 c 0.65865,1.86697 3.529294,5.08659 4.950826,2.85774 1.219446,-2.34553 -3.003984,-3.22187 -4.950256,-2.85889 l -6.44e-4,-4.4e-4 c -1.25e-4,4.7e-4 1.35e-4,0.001 7.5e-5,0.002 z"
       fill="#5f926a"
       id="path46-67-92"
       style="fill:#588a42;fill-opacity:0.898039;stroke-width:0.252687" /><path
       d="m 87.139343,153.80776 0.0014,-0.001 c 2.5717,-0.19383 7.587755,-2.71105 5.256331,-5.25723 -2.546198,-2.3314 -5.063248,2.68456 -5.257354,5.25617 l -0.0014,0.001 c 3.08e-4,-1.8e-4 8.34e-4,-2.7e-4 0.0011,-2.1e-4 -1.25e-4,4.7e-4 5.3e-5,7.8e-4 -8.8e-5,0.001 z"
       fill="#587e60"
       id="path48-5-28"
       style="fill:#609648;fill-opacity:0.898039;stroke-width:0.252687" /><path
       d="m 97.727048,152.37789 c -1.837388,0.64822 -5.006003,3.47338 -2.812461,4.87239 2.308369,1.20013 3.170826,-2.95639 2.813596,-4.87183 l 4.34e-4,-6.4e-4 c -4.66e-4,-1.3e-4 -0.0013,1.4e-4 -0.0015,8e-5 z"
       fill="#5f926a"
       id="path46-6-3-9"
       style="fill:#588a42;fill-opacity:0.898039;stroke-width:0.248686" /><path
       d="m 99.028889,161.54 -0.0014,-0.001 c -0.190754,-2.53096 -2.668092,-7.46754 -5.173932,-5.17306 -2.294462,2.50586 2.642024,4.98303 5.17289,5.17407 l 0.0014,0.001 c -1.71e-4,-2.9e-4 -2.81e-4,-8.2e-4 -2.18e-4,-0.001 4.69e-4,1.3e-4 7.64e-4,-4e-5 0.0013,9e-5 z"
       fill="#587e60"
       id="path48-7-5-7"
       style="fill:#609648;fill-opacity:0.898039;stroke-width:0.248686" /><path
       d="m 92.397625,153.13488 1.2e-5,-0.001 c 1.080202,-1.20589 2.215233,-4.49095 -5.3e-4,-4.58474 -2.216037,0.0937 -1.080892,3.37884 -5.72e-4,4.58497 l 5.3e-5,7.7e-4 c -3.08e-4,1.8e-4 0,0 0,0 1.78e-4,3.1e-4 8.34e-4,-2.7e-4 0.001,1e-5 z"
       fill="#77a37a"
       id="path50-6-36"
       style="fill:#588a42;fill-opacity:0.898039;stroke-width:0.252687" /><path
       style="fill:#474747;fill-opacity:1;stroke:#2d2d2d;stroke-width:1.5;stroke-linejoin:round;stroke-dasharray:none;stroke-opacity:1"
       d="m 84.251021,141.91511 v 5.79004 l -4.372073,-1.2998 -2.008791,2.12695 -2.245119,-1.53613 v -4.95532 c 8.603787,-0.19467 5.759252,-0.12574 8.625983,-0.12574 z"
       id="path3"
       sodipodi:nodetypes="ccccccc" /><g
       id="g10905"
       transform="matrix(0.41531899,-0.20925489,0.20925489,0.41531899,54.477792,157.26624)"
       style="fill:#717171;fill-opacity:1;stroke:none"><path
         id="path29-4-6"
         style="fill:#717171;fill-opacity:1;stroke:none;stroke-width:0.571703;stroke-dasharray:none;stroke-opacity:1"
         d="m 24.473731,12.725321 c -0.601652,0 -1.193201,0.04228 -1.773287,0.121581 l -0.742962,2.222162 c -1.147252,0.271331 -2.225006,0.722638 -3.200217,1.325088 l -2.09542,-1.045353 c -0.946179,0.717195 -1.790763,1.561679 -2.507723,2.507949 l 1.045353,2.09542 c -0.602459,0.975116 -1.053761,2.053195 -1.324862,3.200664 l -2.22261,0.742741 c -0.07934,0.579525 -0.12136,1.171553 -0.12136,1.773061 0,0.601512 0.0418,1.193448 0.12136,1.773065 l 2.22261,0.742962 c 0.271344,1.147482 0.722421,2.225218 1.324636,3.200443 l -1.044905,2.095415 c 0.609695,0.804591 1.312329,1.53463 2.090484,2.1764 0.06494,-0.11971 0.126369,-0.241322 0.183947,-0.365199 0.166801,-0.365617 0.318274,-0.737992 0.465697,-1.111757 0.126417,-0.320166 0.246332,-0.642786 0.36049,-0.96751 0.113798,-0.303615 0.187073,-0.619562 0.272555,-0.93162 0.05447,-0.208531 0.110043,-0.416671 0.167122,-0.624524 0.02383,-0.0733 0.04798,-0.146455 0.07223,-0.219613 -1.333093,-1.548651 -2.139385,-3.564158 -2.139385,-5.768062 0,-4.885643 3.960929,-8.846022 8.846247,-8.846022 4.885408,0 8.846251,3.960379 8.846251,8.846022 0,2.412287 -0.965831,4.598749 -2.531507,6.194504 0.112035,0.368525 0.224084,0.737137 0.34501,1.102779 0.283963,0.893576 0.557725,1.790993 0.799273,2.697058 0.01606,0.05802 0.03243,0.115951 0.0489,0.173851 l 0.304183,0.151646 c 0.94604,-0.717298 1.790672,-1.561678 2.507727,-2.507953 l -1.044905,-2.095415 c 0.602215,-0.975225 1.053066,-2.052961 1.32464,-3.200443 l 2.22261,-0.742962 c 0.07934,-0.579617 0.12136,-1.171553 0.12136,-1.773065 0,-0.601508 -0.04206,-1.193536 -0.121586,-1.773061 l -2.222609,-0.742741 c -0.271574,-1.147469 -0.722517,-2.225548 -1.324637,-3.200664 l 1.045353,-2.09542 c -0.717537,-0.94627 -1.562243,-1.790754 -2.508174,-2.507949 l -2.095646,1.045353 c -0.974895,-0.60245 -2.052752,-1.053757 -3.199991,-1.325088 L 26.24702,12.846902 c -0.579868,-0.07934 -1.171548,-0.121581 -1.773289,-0.121581 z" /><path
         id="path34308-7"
         style="fill:#717171;fill-opacity:1;stroke:none;stroke-width:0.584895;stroke-linecap:round;stroke-linejoin:round;stroke-miterlimit:10;stroke-dasharray:none;stroke-opacity:1"
         d="m 24.720477,19.028429 c -0.04036,0.0032 -0.0864,0.03067 -0.14161,0.09404 -0.110424,0.126727 -0.257572,0.396422 -0.45788,0.821581 -0.200317,0.425153 -0.45371,1.005681 -0.690801,1.549398 -0.237101,0.543698 -0.457953,1.050667 -0.629652,1.439029 -0.1717,0.388365 -0.29431,0.658175 -0.404696,0.932078 -0.110375,0.273902 -0.208507,0.551878 -0.298443,0.817604 -0.08994,0.265706 -0.171693,0.519082 -0.249365,0.75619 -0.07767,0.237102 -0.151145,0.457845 -0.208381,0.633632 -0.05723,0.17578 -0.0982,0.306692 -0.07772,0.449791 0.02047,0.143106 0.102307,0.298457 0.175885,0.482417 0.07357,0.183966 0.138941,0.396411 0.147099,0.563991 0.0081,0.167591 -0.04094,0.290243 -0.118582,0.380154 -0.07765,0.08992 -0.183872,0.147166 -0.302426,0.204403 -0.118527,0.05723 -0.249463,0.114522 -0.359856,0.192197 -0.110399,0.07767 -0.200233,0.175725 -0.282,0.286114 -0.08177,0.110379 -0.15539,0.233048 -0.212627,0.372056 -0.05723,0.139007 -0.09811,0.294422 -0.08582,0.425253 0.0123,0.130832 0.07768,0.237021 0.183977,0.322851 0.106312,0.08582 0.25355,0.151306 0.376178,0.261706 0.122621,0.110396 0.220744,0.265754 0.220715,0.408801 -3.1e-5,0.143042 -0.09824,0.273859 -0.224967,0.400579 -0.126719,0.126716 -0.282036,0.249344 -0.425117,0.359719 -0.143081,0.110386 -0.273944,0.208511 -0.392484,0.322988 -0.118561,0.114473 -0.224821,0.245259 -0.314767,0.384263 -0.08994,0.139004 -0.163506,0.286092 -0.224827,0.421005 -0.06132,0.134909 -0.110337,0.257523 -0.175749,0.404692 -0.0654,0.147169 -0.147242,0.318955 -0.216736,0.47022 -0.0695,0.151252 -0.126628,0.282084 -0.187952,0.433338 -0.06132,0.151239 -0.126783,0.322931 -0.212627,0.494624 -0.08585,0.171685 -0.192146,0.343332 -0.273906,0.490505 -0.08176,0.147172 -0.138944,0.269828 -0.196178,0.388379 -0.05723,0.118554 -0.114539,0.233055 -0.171772,0.347521 -0.05723,0.114467 -0.114445,0.228937 -0.130783,0.367955 -0.01635,0.139014 0.0082,0.302523 0.143123,0.38015 0.134927,0.07763 0.380298,0.06947 0.69916,0.04085 0.318847,-0.02862 0.711177,-0.07779 1.066833,-0.110494 0.355644,-0.0327 0.674576,-0.04894 0.915762,-0.07348 0.241185,-0.02453 0.404667,-0.05724 0.649944,-0.114473 0.245277,-0.05723 0.572318,-0.139029 0.788956,-0.253481 0.21664,-0.114449 0.32298,-0.261653 0.412916,-0.45377 0.08994,-0.192125 0.16344,-0.429247 0.237031,-0.637744 0.07358,-0.20849 0.14718,-0.388327 0.228936,-0.584549 0.08176,-0.196227 0.171707,-0.408753 0.228943,-0.580441 0.05723,-0.17169 0.08179,-0.302479 0.167657,-0.408805 0.08587,-0.106322 0.233095,-0.188138 0.380291,-0.216739 0.147197,-0.02865 0.294366,-0.0041 0.412917,0.05319 0.118547,0.05726 0.208361,0.14719 0.269657,0.253481 0.0613,0.106273 0.09413,0.228971 0.180001,0.392487 0.08586,0.163521 0.224775,0.367846 0.351498,0.60087 0.126719,0.233017 0.241168,0.494705 0.359726,0.7359 0.118557,0.241186 0.241192,0.461852 0.388379,0.617173 0.147186,0.155331 0.318843,0.245354 0.56412,0.327099 0.24528,0.08175 0.564268,0.155261 0.838167,0.212498 0.273899,0.05723 0.50273,0.09815 0.801156,0.143116 0.298429,0.04496 0.666432,0.094 0.944415,0.130786 0.27799,0.03679 0.46595,0.06138 0.64172,0.05319 0.175773,-0.0082 0.339342,-0.04908 0.392487,-0.106245 0.05315,-0.05719 -0.0041,-0.130738 -0.09815,-0.371926 -0.09404,-0.24119 -0.224796,-0.650039 -0.400584,-1.165131 -0.17578,-0.51507 -0.396575,-1.136518 -0.551923,-1.643438 -0.155355,-0.506915 -0.245256,-0.899323 -0.314756,-1.19364 -0.0695,-0.294342 -0.118572,-0.490526 -0.179865,-0.629516 -0.0613,-0.139 -0.134881,-0.22084 -0.245256,-0.331212 -0.110372,-0.110382 -0.257513,-0.249281 -0.425117,-0.351501 -0.167605,-0.102224 -0.355722,-0.167679 -0.511067,-0.237168 -0.155344,-0.06949 -0.277972,-0.143088 -0.322987,-0.228936 -0.04502,-0.08586 -0.01226,-0.184012 0.07362,-0.306671 0.08585,-0.122663 0.224813,-0.269819 0.335184,-0.408805 0.110372,-0.138979 0.192038,-0.269699 0.212491,-0.453634 0.02044,-0.183928 -0.0204,-0.421131 -0.04086,-0.53972 -0.02044,-0.118592 -0.0204,-0.118508 -0.05716,-0.16752 -0.03675,-0.04902 -0.110403,-0.147093 -0.183977,-0.21661 C 27.436413,27.793146 27.36293,27.75224 27.211676,27.695 27.060423,27.637756 26.8314,27.564098 26.712807,27.457829 26.594215,27.351566 26.586088,27.2126 26.598334,27.077678 c 0.0123,-0.134912 0.04504,-0.265688 0.126814,-0.363835 0.08178,-0.09815 0.212535,-0.163608 0.286102,-0.257593 0.07357,-0.09398 0.08993,-0.216627 -0.0204,-0.604978 -0.110357,-0.388348 -0.347444,-1.042366 -0.584557,-1.757772 -0.237111,-0.715409 -0.47423,-1.4921 -0.662281,-2.129834 -0.188054,-0.637733 -0.3271,-1.136449 -0.441566,-1.541165 -0.114466,-0.404692 -0.204308,-0.715409 -0.277885,-0.932075 -0.07358,-0.216648 -0.13079,-0.339276 -0.196178,-0.408807 -0.0327,-0.03477 -0.06752,-0.05625 -0.107891,-0.05318 z" /></g></g></svg>
