<svg xmlns="http://www.w3.org/2000/svg" width="125" height="125" viewBox="0 0 33.073 33.073"><path d="m29.449 19.203-14.75 8.516 2.683-.786-1.91 2.063 4.192-1.244-3.343 2.685 3.543-1.046-2.779 2.46 14.75-8.515-3.419.463 2.427-1.897-3.159 1.18-1.002-.08 3.344-2.8-.008-.014-2.25.693zM24.032 2.196 11.99 14.24l3.666-2.62-2.634 3.51 4.15-2.75-2.986 4.056.014.014 4.144-2.753-2.98 3.917L27.407 5.571 23.465 8.1l2.16-3.252-3.394 2.608-.171-.355 1.907-2.478-.447-.451-.76.404zM1.628 13.968l8.515 14.75-.12-1.532.912.314.13-.853.903.351.055-1.097.85.545-.346-1.846 1.749 1.731-8.515-14.749.594 2.838.238 1.689-.528-.1.047.57-2.08-2.415-.987-.417-.18 1.049Z" style="fill:#763800;stroke:#2e1600;stroke-width:.529167;stroke-linecap:round;stroke-miterlimit:4;stroke-dasharray:none;fill-opacity:1;stroke-opacity:1"/></svg>