<svg xmlns="http://www.w3.org/2000/svg" width="259.244" height="40.204" viewBox="0 0 68.592 10.637"><path d="m60.423 165.958 3.564 4.618 4.696-1.961-2.782-3.606-5.144.692zM99.555 169.693l4.174 2.912 4.058-3.416.2-2.319-.994-1.18-4.294 2.01-.192.254-2.563 1.411zM111.837 163.304l1.342 5.009 6.652-.06 7.59 3.876.928-3.463-1.296-1.285zM78.652 167.827l1.308 2.669 4.357.295.245-3.611-2.077-2.38-3.611-.245z" style="fill:#5ea69a;fill-opacity:.854902;stroke:#2e544d;stroke-width:.529167;stroke-linecap:square;stroke-opacity:1" transform="translate(-60.052 -162.301)"/><path d="M87.685 170.843c.064.086.179.12.276.167l1.535-.016.407.803.42.033-.006.847.338-.972.809-.029-.463-1.194.417-.37.469-.062 1.274-.134.365-1.074 1.167-.522 1.11-1.95 1.664-.818-1.175-.03.34-1.33.702.386-1.692-1.692-.598 1.528-1.92 1.01.35 1.299-1.813 1.33-.702-.395-.976 2.326z" style="fill:#785a2e;fill-opacity:1;stroke:#302412;stroke-width:.654087;stroke-linecap:square;stroke-opacity:1" transform="translate(-60.052 -162.301)"/></svg>