<svg xmlns="http://www.w3.org/2000/svg" width="175" height="175"><radialGradient id="a" cx="141.735" cy="145.99" r="104.415" gradientTransform="matrix(.47943 0 0 .46522 19.547 19.582)" gradientUnits="userSpaceOnUse"><stop offset="0" stop-opacity=".9"/><stop offset="1" stop-opacity=".3"/></radialGradient><path fill="url(#a)" d="m87.99 38.924-3.796 24.227a25.544 26.225 0 0 0-.328.073l-10.987-15.8 2.905 18.548-10.216-9.813 5.444 13.351a25.544 26.225 0 0 0-.207.213l-22.329-6.588 17.24 13.237a25.544 26.225 0 0 0-.407.767L54.474 75.36l9.728 4.34a25.544 26.225 0 0 0-.007.022L42.43 81.982l20.166 9.243a25.544 26.225 0 0 0 .04.585L48.19 95.626l12.958.548-23.706 16.923 28.45-9.654-13.819 19.54 19.344-13.808-3.374 21.546 11.81-16.847a25.544 26.225 0 0 0 .998.373l3.708 21.829 5.11-20.143 6.234 12.697-1.16-11.268 15.52 14.95L103.277 110a25.544 26.225 0 0 0 1.086-.835l12.91 6.57-6.702-11.957 26.987 7.718-23.921-15.83 17.478-1.942-17.594-5.19a25.544 26.225 0 0 0-.01-.432l20.807-13.843-23.792 2.47a25.544 26.225 0 0 0-.35-.637l7.342-8.022-9.057 4.193L125.1 48.537l-22.538 19.004a25.544 26.225 0 0 0-.772-.53l6.276-12.975-10.753 10.628a25.544 26.225 0 0 0-.192-.075l3.442-16.287-8.003 14.976a25.544 26.225 0 0 0-.772-.138z" style="fill:url(#a)"/><path d="m12.905 50.965 7.02 4.053 5.296-3.291-2.105 5.133 1.646.95 5.005-5.727-1.768 7.597 1.078.622 4.849-5.836-2.708 7.072 5.11 2.95.57-.986-3.09-4.643 5.878-1.241-2.122-3.751 1.333-4.71-1.088-3.59 5.488.307s3.75-2.254 3.633-2.389c-.118-.135-2.265-5.385-2.265-5.385l4.154-1.438 3.234.535-4.834-5.39 3.165-4.516-1.354-1.846 4.361.743 4.495.961.323-.56-8.234-4.753-4.478 1.404 1.063-3.376-1.423-.821-2.315 2.966-.574-3.617-2.897 2.055.939-4.203-5.504-3.178-.979 6.109 3.624 6.016-2.246 2.265 3.591 5.487-9.988-1.242 4.767 6.922-11.845-2.91-.104.181 1.415 2.62-1.802 2.968 5.793 5.31-11.164-.925-.123.213 6.163 5.286zM156.801 34.976l-23.838 6.387 1.233 4.604 4.888 1.865 1.839 6.946 4.037-1.535-.87 6.27-1.865 4.108 5.184 2.649.831 4.19-2.089 4.413 5.42 3.16-.904 4.381-2.02 2.017-3.578 2.112.67 2.5 23.838-6.388-9.222-1.977 7.33-5.084-.985-3.677-2.076-.034s-3.309-.794-3.527-.782c-.22.012-.89-3.507-.89-3.507l-6.574-1.142 9.868-6.473-.74-2.762-9.283-.134 5.444-5.116-2.058-3.658 2.962-2.046-.589-2.198-8.108.116zM52.19 129.42l-5.786 10.021 4.048 4.77-2.544.91-.148 5.788-7.358-1.072-2.621 4.54 5.343 3.084 7.276-4.333s.885 2.443.847 2.808 3.171-.061 3.42-.092c.248-.03 3.523-1.653 3.523-1.653l.348 3.23-.603 3.22.78 2.11-.04 3.689 4.062 2.345 2.063-3.574-3.142-2.604 3.226-3.581-1.464-4.41 5.923 2.726 1.454-2.519-7.066-6.479 10.236.989 3.178-5.504-4.244-2.45-1.61 1.657-2.959-4.295-.022-.013-5.32 4.376-.898-7.199.085-.718-2.8-1.617-5.167 6.257.71-8.83z" style="fill:#666;fill-opacity:1;stroke:#292929;stroke-width:2.5;stroke-linecap:square;stroke-linejoin:round;stroke-miterlimit:4;stroke-dasharray:none;stroke-opacity:1"/></svg>