<svg xmlns="http://www.w3.org/2000/svg" width="165.713" height="244.713" viewBox="0 0 43.845 64.747"><path d="m125.631 216.346 3.86.882-1.975.69 3.175-.004-3.188 1.217 3.543.19.21.714-2.87.186.722.638-3.477.492h16.912l-1.866-1.103-2.105.27-.52-.588-2.504-.788 6.436-.104-2.399-.489 1.87-.676-2.07-.43 3.158-1.097zM117.423 190.073l3.474.056-.8.972 1.021.189-1.77 1.155 1.915.018.332.372-.27.566-.875.464-1.731 1.043 16.335-4.377-1.591-.512-1.588.252-1.315-.266 1.88-1.224-3.094.315 4.169-1.822-1.97.028 2.214-1.605zM125.026 199.015l-2.776 4.743-.869.394.354-2.131-.757 1.026-.563.74.662-2.4-.96 1.318.874-2.901-.772.598-.028-2.683-4.377 16.335.986-.348.53-.565.492-1.432.454.765 1.434-2.782-1.093 4.068 1.028-.1 1.004-2.12v3.81zM133.358 194.583l1.17 3.824-1.21-1.169.812 2.416-1.29-1.416-1.072-.67.063.734.819 1.623.095 1.066-1.859-2.271-1.863-1.635 8.456 14.646-.734-2.833.736.51-1.457-4.017 2.694 3.504-1.112-2.587 2.108 2.293-.894-2.59 2.993 3.218z" style="fill:#785a2e;fill-opacity:1;stroke:#302412;stroke-width:.529167;stroke-linecap:square;stroke-linejoin:miter;stroke-miterlimit:4;stroke-dasharray:none;stroke-opacity:1" transform="translate(-108.728 -171.155)"/><path d="m129.469 202.498 3.315 2.027-2.432-.077 2.446 1.263-2.225-.132 4.341 1.76-1.915-.066.026.583-1.64-.39-1.9-.877-1.311.743 16.335 4.377-.467-.796-.96-.588-.949-.09-.32-1.006-1.193-1.118 3.554 1.138.357-.9-2.77-1.393 4.043-.081z" style="fill:#785a2e;fill-opacity:1;stroke:#302412;stroke-width:.529167;stroke-linecap:square;stroke-linejoin:miter;stroke-miterlimit:4;stroke-dasharray:none;stroke-opacity:1" transform="translate(-108.728 -171.155)"/></svg>