<svg xmlns="http://www.w3.org/2000/svg" xml:space="preserve" width="71.585" height="65.563" fill="none" stroke-linecap="square" stroke-miterlimit="10"><path fill="#4b2817" fill-rule="evenodd" d="M38.59 66.924a7.688 7.688 0 0 1 15.375 0 7.688 7.688 0 1 1-15.375 0" clip-path="url(#clipPath106)" style="fill:#8a8a75;fill-opacity:1;stroke-width:.234916" transform="translate(-12.719 -9.135)"/><path fill="#4b2817" fill-rule="evenodd" d="M45.19 34.449a7.688 7.688 0 0 1 15.375 0 7.688 7.688 0 0 1-15.375 0" clip-path="url(#clipPath105)" style="fill:#8a8a75;fill-opacity:1;stroke-width:.234916" transform="translate(-12.719 -9.135)"/><path fill="#4b2817" fill-rule="evenodd" d="M35.07 49.568c0-7.478 6.089-13.54 13.6-13.54a13.63 13.63 0 0 1 9.615 3.966 13.5 13.5 0 0 1 3.984 9.574c0 7.478-6.089 13.54-13.6 13.54S35.07 57.046 35.07 49.568" clip-path="url(#clipPath104)" style="fill:#8a8a75;fill-opacity:1;stroke-width:.234916" transform="translate(-12.719 -9.135)"/><path fill="#5c2f19" fill-rule="evenodd" d="m33.597 16.087.733 5.247 3.824.965 3.31 4.534 3.619 3.764 5.53-3.13 3.174-4.923-.695-6.759-2.166-4.883-4.74 2.682-7.053 1.755z" clip-path="url(#clipPath89)" style="fill:#333;fill-opacity:1;stroke:#0d0d0d;stroke-width:2.5;stroke-dasharray:none;stroke-opacity:1" transform="translate(-12.719 -9.135)"/><path fill="#5c2f19" fill-rule="evenodd" d="m39.069 72.388 1.587-19.041-5.049-.577-5.481-2.308-8.078 19.185 6.635 1.875z" clip-path="url(#clipPath77)" style="fill:#404040;fill-opacity:1;stroke:#0d0d0d;stroke-width:2.5;stroke-dasharray:none;stroke-opacity:1" transform="translate(-12.719 -9.135)"/><path fill="#4b2817" fill-rule="evenodd" d="M17.433 31.01a7.688 7.688 0 1 1 15.375 0 7.688 7.688 0 1 1-15.375 0" clip-path="url(#clipPath66)" style="fill:#8a8a75;fill-opacity:1;stroke-width:.234916" transform="translate(-12.719 -9.135)"/><path fill="#4b2817" fill-rule="evenodd" d="M12.72 27.966c0-2.564 2.02-4.643 4.513-4.643a4.45 4.45 0 0 1 3.191 1.36 4.7 4.7 0 0 1 1.322 3.283c0 2.564-2.02 4.643-4.513 4.643s-4.514-2.079-4.514-4.643" clip-path="url(#clipPath65)" style="fill:#8a8a75;fill-opacity:1;stroke-width:.234916" transform="translate(-12.719 -9.135)"/><path fill="#4b2817" fill-rule="evenodd" d="M69.04 20.547c0-2.564 2.02-4.642 4.513-4.642a4.45 4.45 0 0 1 3.191 1.36 4.7 4.7 0 0 1 1.322 3.282c0 2.565-2.02 4.643-4.513 4.643s-4.514-2.078-4.514-4.643" clip-path="url(#clipPath64)" style="fill:#8a8a75;fill-opacity:1;stroke-width:.234916" transform="translate(-12.719 -9.135)"/><path fill="#4b2817" fill-rule="evenodd" d="M64.99 37.729c0-3.423 2.698-6.198 6.026-6.198a5.94 5.94 0 0 1 4.26 1.816 6.28 6.28 0 0 1 1.765 4.382c0 3.424-2.697 6.198-6.025 6.198s-6.027-2.774-6.027-6.198" clip-path="url(#clipPath64)" style="fill:#8a8a75;fill-opacity:1;stroke-width:.313615" transform="translate(-12.719 -9.135)"/><path fill="#4b2817" fill-rule="evenodd" d="M73.541 40.784c0-2.564 2.02-4.643 4.513-4.643a4.45 4.45 0 0 1 3.191 1.36 4.7 4.7 0 0 1 1.322 3.283c0 2.564-2.02 4.643-4.513 4.643s-4.514-2.079-4.514-4.643" clip-path="url(#clipPath65)" style="fill:#8a8a75;fill-opacity:1;stroke-width:.234916" transform="translate(-12.719 -9.135)"/><g style="fill:none;stroke-linecap:square;stroke-miterlimit:10"><path d="M12.96 21.277c.549 1.097.155 3.412 1.04 4.296 1.74 1.742 4.17 2.52 6.253 3.674 2.52-2.048 5.218-4.186 7.261-6.93 2.334-3.136 5.983-11.198 7.467-13.985-6.52-2.188-9.814-1.025-9.264-3.226" style="fill:#333;fill-opacity:1;stroke:none;stroke-width:3;stroke-linecap:round;stroke-linejoin:round;stroke-dasharray:none;stroke-opacity:1" transform="translate(35.104 34.816)"/><path d="M14 23.973c5.717-4.662 11.642-10.52 14.461-17.83" style="fill:none;stroke:#ac8239;stroke-width:3;stroke-linecap:round;stroke-linejoin:round;stroke-dasharray:none;stroke-opacity:1" transform="translate(35.104 34.816)"/><path d="m25.717 5.106-9.147-3.63L2.316 12.747l10.644 8.53z" style="fill:#404040;fill-opacity:1;stroke:none;stroke-width:3;stroke-linejoin:round;stroke-dasharray:none;stroke-opacity:1" transform="translate(35.104 34.816)"/><path d="M16.57 1.476c-5.167 4.272-13 8.843-14.254 11.271 2.799 3.415 8.671 4.584 10.644 8.53.549 1.097.155 3.412 1.04 4.296 1.74 1.742 4.17 2.52 6.253 3.674 2.52-2.048 5.218-4.186 7.261-6.93 2.334-3.136 3.783-4.907 5.267-7.694 1.419-2.663 1.65-4.09 2.2-6.291-6.434-1.916-12.444-4.521-18.41-6.856" style="fill:none;fill-opacity:1;stroke:#0d0d0d;stroke-width:3;stroke-linecap:round;stroke-linejoin:round;stroke-dasharray:none;stroke-opacity:1" transform="translate(35.104 34.816)"/><path d="M12.96 21.277c5.943-5.2 9.969-9.17 12.757-16.17" style="fill:none;stroke:#0d0d0d;stroke-width:3;stroke-linecap:round;stroke-linejoin:round;stroke-dasharray:none;stroke-opacity:1" transform="translate(35.104 34.816)"/></g></svg>