<svg xmlns="http://www.w3.org/2000/svg" xml:space="preserve" width="111.132" height="113.985" viewBox="0 0 29.404 30.159"><path d="m17.952 21.998 4.317-4.316 5.225 5.225.303 2.12-4.392 2.12-3.332-.303.303-2.423-1.97.303z" style="fill:#bfbfbf;fill-opacity:1;stroke:#333;stroke-width:1.32292;stroke-linecap:round;stroke-linejoin:round;stroke-dasharray:none;stroke-opacity:1" transform="translate(-13.484 -14.643)"/><path d="M30.22 17.909h9.239v8.784l-2.424-.757V24.27l-1.514 1.06-.909-1.97h-3.9379999999999997l-.303-1.968.758-.909zM22.799 21.998l2.12 3.938 2.726-3.332c.353 2.222.217 5.013 2.878 4.543l2.726-2.12c2.566.686 3.083 2.396 2.423 4.695l1.212 3.332-2.272 3.938 1.666 2.726-4.998.757-5.3 1.363-1.515-3.938-4.998-1.211-2.12-5.301 2.726 1.514c5.34-6.8 1.817-7.27 2.726-10.904" style="fill:#a6a6a6;fill-opacity:1;stroke:#333;stroke-width:1.32292;stroke-linecap:round;stroke-linejoin:round;stroke-dasharray:none;stroke-opacity:1" transform="translate(-13.484 -14.643)"/><path fill="#5081d7" d="M32.602 19.004a3.4 3.4 0 0 1 1.93.485 4.14 4.14 0 0 1 1.405 1.422c.696 1.153.858 2.565.711 3.904-1.137 1.45 3.288 2.511 3.066 3.934-.104.666-5.446 1.246-4.079 2.524.533.499.296 1.444.7 2.052.528.796 1.333 1.357 2.055 1.983.361.313.707.648.986 1.036s.49.833.558 1.306c.064.446-.002.91-.191 1.32-.19.41-.5.762-.885.997-.522.32-1.159.417-1.77.366-.61-.05-1.2-.24-1.773-.458-.572-.218-1.133-.467-1.72-.646-.585-.178-1.204-.284-1.811-.208-.661.083-1.362 1.194-1.841.732-.713-.687-1.622-.06-1.646 1.132-.028 1.365-1.345 4.604-2.773 2.503-.508-.746-.297-1.67-.044-1.737.322-.086.742-1.068.481-1.275-.607.57-2.651 2.217-2.008.016.1-.34-.2-.683-.205-1.038-.01-.71.212-1.404.493-2.056s.624-1.278.876-1.941c.252-.664.413-1.382.31-2.084-.132-.897-.687-1.691-1.382-2.274-.695-.582-1.525-.978-2.358-1.337-.833-.358-1.683-.69-2.455-1.165-.772-.477-1.471-1.116-1.854-1.938a4 4 0 0 1-.345-1.788c.016-.613.15-1.218.35-1.797.399-1.158 1.052-2.209 1.603-3.302.34-.674.644-1.37 1.064-1.997s.97-1.193 1.668-1.482c.435-.18.914-.247 1.385-.214.47.033.93.164 1.358.362.855.397 1.565 1.054 2.175 1.773.257.303.5.62.781.902.28.282.604.53.978.668.339.124.708.151 1.067.117.36-.033.711-.126 1.055-.236.687-.22 1.364-.515 2.085-.56" opacity=".6" style="stroke:none" transform="translate(-13.484 -14.643)"/><path d="M37.31 20.653v5.832l4.917 1.317v-4.554l-4.495-2.595zM23.734 38.087l-3.052-1.753-2.598 2.585v1.603l.755.752 2.843-1.633c.575-.317 1.2-.905 1.802-1.306zM40.15 32.712l-3.388.923.04 4.572-2.62 5.217 2.342.638.869-.89c3.367-2.875 4.235-6.374 2.757-10.46zM15.922 30.53l3.388-.923c-2.936-1.524-1.43-3.048-.04-4.572 3.16-2.196 5.446-4.218 2.62-5.217l-2.342-.638-.869.89c-5.945 1.73-5.106 5.987-2.757 10.46zM29.964 17.09l-1.715-1.71-3.443.92.765 2.846 2.232 1.285 2.854-.763zM30.572 33.297l-1.715-1.71-3.443.92.765 2.845 2.232 1.285 2.854-.762z" style="fill:#0094b2;fill-opacity:.301961;stroke:#005666;stroke-width:1.32292;stroke-linecap:square;stroke-dasharray:none;stroke-opacity:1" transform="translate(-13.484 -14.643)"/></svg>