<svg xmlns="http://www.w3.org/2000/svg" xml:space="preserve" width="311.195" height="352.61" viewBox="0 0 82.337 93.295"><path d="m2.005 4.984 2.68 3.204-3.796-.422.755 1.577 16.925 9.127-.857-2.478 3.174.071-1.427-3.634 2.63-.802L5.294 2.57 6.423 4.79z" style="fill:#1c71d8;stroke:#0d3565;stroke-width:1.05833;stroke-linecap:square;stroke-linejoin:miter;stroke-miterlimit:10"/><path d="m29.322 10.199-6.965 4.436 2.189-6.321-2.848.633L4.662 33.344l-3.214 7.181 9.033-2.867-1.612 5.364 5.805-5.475-.42 7.492L35.35 14.825l-1.31-3.975-6.517 6.411z" style="fill:#e7e7e7;stroke:#c2c2c2;stroke-width:1.5875;stroke-linecap:square;stroke-dasharray:none"/><path d="m39.642 37.37-2.61 3.261-.339-3.804-1.396 1.052-5.595 18.397 2.258-1.33.56 3.125 3.278-2.119 1.308 2.42 5.552-18.254-1.95 1.544z" style="fill:#1c71d8;stroke:#0d3565;stroke-width:1.05833;stroke-linecap:square;stroke-linejoin:miter;stroke-miterlimit:10"/><path d="m50.618 27.561.622 8.316-5.775-3.085-.869 3.607 21.698 21.193 4.829.254-2.143-4.05 7.326-.506-5.756-5.653 9.44 1.523-26.87-26.244 2.797 9.385z" style="fill:#f4f4f4;fill-opacity:1;stroke:#c2c2c2;stroke-width:1.5875;stroke-linecap:square;stroke-dasharray:none"/><path d="m26.873 78.349-1.159-1.989 1.46-.994-1.162-1.306-18.79-4.082 1.64 2.839-2.853.941 2.813 2.01-3.087 1.76 18.644 4.05-1.046-1.775zM51.921 3.3l.564 3.08-3.598-2.435.348 2.584L62.47 20.48l.558-2.436 2.394.873-.162-3.037 2.688-.803L54.817 1.234l-.173 2.397z" style="fill:#1c71d8;stroke:#0d3565;stroke-width:1.05833;stroke-linecap:square;stroke-linejoin:miter;stroke-miterlimit:10"/><path d="m59.097 64.335-7.035-.33 3.613-5.573-4.043.655-25.029 17.13-3.27 3.586 7.895.753-2.154 4.687 5.22-.18-2.103 6.236 30.996-21.214-7.546.02z" style="fill:#f4f4f4;fill-opacity:1;stroke:#c2c2c2;stroke-width:1.5875;stroke-linecap:square;stroke-dasharray:none"/><path d="M-820.308 542.734c.103 1.325 1.175 3.188 2.454 4.244s2.764 1.304 4.25.848c1.485-.455 2.97-1.614 3.588-3.022.62-1.408.372-3.063-.02-4.595s-.928-2.94-1.877-3.581c-.95-.642-2.31-.518-3.507.144-1.196.663-2.227 1.863-3.176 2.857s-1.815 1.78-1.712 3.105z" style="fill:#c9d1d9;fill-opacity:1;stroke:#a2a5c0;stroke-width:1.858;stroke-dasharray:none;stroke-opacity:1" transform="translate(880.074 -498.155)"/><path d="M-868.997 510.19c-3.1-.78-4.6 1.274-7.244 5.718-2.643 4.445-6.43 11.278-5.005 17.652 1.426 6.374 8.065 12.287 16.19 14.496 8.126 2.21 17.738.716 23.307-4.287 5.569-5.002 7.093-13.513 3.96-18.36s-10.923-6.028-17.167-8.426-10.942-6.012-14.041-6.793z" style="fill:#c9d1d9;fill-opacity:1;stroke:#a2a5c0;stroke-width:1.958;stroke-dasharray:none;stroke-opacity:1" transform="translate(891.727 -495.902)"/><path d="M-845.536 574.894a46 46 0 0 1-2.674.934c-1.254.396-2.533.739-3.843.849s-2.66-.022-3.867-.545c-1.206-.524-2.257-1.465-2.765-2.678a4.1 4.1 0 0 1-.31-1.928c.058-.655.29-1.296.684-1.823.359-.481.837-.856 1.29-1.25.452-.394.893-.826 1.14-1.373.247-.544.281-1.164.195-1.755-.087-.59-.289-1.157-.5-1.714-.213-.558-.437-1.113-.573-1.694s-.178-1.195-.026-1.772a2.95 2.95 0 0 1 .968-1.491 3.55 3.55 0 0 1 1.623-.746c1.185-.22 2.42.122 3.462.726 2.083 1.21 3.428 3.362 5.295 4.883.586.477 1.22.89 1.807 1.366s1.132 1.025 1.472 1.7c.308.607.436 1.297.422 1.978-.013.681-.165 1.355-.393 1.997a8.7 8.7 0 0 1-3.407 4.336z" style="fill:#c9d1d9;fill-opacity:1;stroke:#a2a5c0;stroke-width:1.809;stroke-dasharray:none;stroke-opacity:1" transform="translate(880.074 -498.155)"/></svg>