<?xml version="1.0" encoding="UTF-8" standalone="no"?>
<!-- Created with Inkscape (http://www.inkscape.org/) -->

<svg
   width="55.870621mm"
   height="56.134476mm"
   viewBox="0 0 55.870621 56.134476"
   version="1.1"
   id="svg1"
   inkscape:version="1.3.2 (091e20e, 2023-11-25, custom)"
   sodipodi:docname="hay_bale_residue.svg"
   xmlns:inkscape="http://www.inkscape.org/namespaces/inkscape"
   xmlns:sodipodi="http://sodipodi.sourceforge.net/DTD/sodipodi-0.dtd"
   xmlns="http://www.w3.org/2000/svg"
   xmlns:svg="http://www.w3.org/2000/svg">
  <sodipodi:namedview
     id="namedview1"
     pagecolor="#ffffff"
     bordercolor="#000000"
     borderopacity="0.25"
     inkscape:showpageshadow="2"
     inkscape:pageopacity="0.0"
     inkscape:pagecheckerboard="0"
     inkscape:deskcolor="#d1d1d1"
     inkscape:document-units="mm"
     inkscape:zoom="2.0283687"
     inkscape:cx="66.555946"
     inkscape:cy="136.80944"
     inkscape:window-width="1920"
     inkscape:window-height="1001"
     inkscape:window-x="-9"
     inkscape:window-y="-9"
     inkscape:window-maximized="1"
     inkscape:current-layer="layer1" />
  <defs
     id="defs1" />
  <g
     inkscape:label="Στρώση 1"
     inkscape:groupmode="layer"
     id="layer1"
     transform="translate(-98.600075,-122.59599)">
    <rect
       style="fill:#6d3a1d;fill-opacity:1;stroke:#331b0f;stroke-width:1.5;stroke-linecap:round;stroke-dasharray:none;stroke-opacity:1;stop-color:#000000"
       id="rect25607"
       width="3.8991339"
       height="54.838272"
       x="10.281013"
       y="-223.07458"
       transform="rotate(139.00543)" />
    <rect
       style="fill:#6d3a1d;fill-opacity:1;stroke:#331b0f;stroke-width:0.862577;stroke-linecap:round;stroke-dasharray:none;stroke-opacity:1;stop-color:#000000"
       id="rect25607-1"
       width="2.2030444"
       height="32.09531"
       x="-112.89297"
       y="-153.01088"
       transform="matrix(-0.9993185,-0.0369126,-0.17955995,-0.98374703,0,0)" />
    <path
       style="fill:#c8ae54;fill-opacity:1;stroke:none;stroke-width:3.68216;stroke-linecap:round;stroke-dasharray:none;stroke-opacity:1;stop-color:#000000"
       d="m 139.77964,140.65562 c -3.87426,-3.83072 -3.77599,-4.46056 -8.86244,-6.45623 -0.97082,-0.38052 -2.06764,-0.47926 -3.15184,-0.57509 -1.12449,-0.0999 -3.49715,0.65368 -4.33345,-0.65603 -0.15177,-0.23459 -0.11241,-0.64755 -0.15429,-0.98068 -0.19701,-1.58143 0.003,-2.55153 0.95358,-4.36123 0.25451,-0.48452 0.80866,-1.77886 1.37425,-1.97907 0.15499,-0.0557 0.27704,0.044 0.42401,0.0424 0.15772,-9.7e-4 0.35526,-0.14383 0.49683,-0.0992 0.22306,0.0689 0.40765,0.21413 0.61208,0.32151 0.81409,0.42761 1.69354,0.73973 2.44348,1.28349 0.46877,0.34009 0.7808,0.91278 1.18865,1.34493 0.50177,0.53153 1.70266,1.44932 1.93905,2.45915 0.0798,0.34165 -0.0691,0.81662 -0.0828,1.21658 -0.0142,0.29629 0.0152,0.58125 -0.021,0.88963 -0.15645,1.30001 -1.10755,3.9334 -0.82713,4.96712 0.0531,0.19816 0.22443,0.27277 0.36174,0.37035 0.96138,0.68268 2.23608,0.87357 3.29251,1.36932 1.87552,0.8809 3.59881,2.06061 5.57451,2.74779 0.63217,0.22046 1.32325,0.30188 1.9689,0.4937 0.16696,0.0471 3.43049,1.4357 3.87521,1.316 1.34945,-0.36125 2.78475,-1.23895 3.90671,-0.64962"
       id="path25595" />
    <path
       style="fill:#c8ae54;fill-opacity:1;stroke:none;stroke-width:3.73703;stroke-linecap:round;stroke-dasharray:none;stroke-opacity:1;stop-color:#000000"
       d="m 143.87669,158.85647 c -7.71988,-5.78181 -8.71553,-6.25999 -18.39569,-6.1549 -6.28703,0.0685 -1.17617,2.6605 -6.5987,1.78204 -1.94478,-0.31551 -3.44672,-2.7793 -5.19829,-3.72537 -0.48514,-0.26114 -0.99989,-0.32397 -1.50054,-0.48595 -0.4809,-0.1553 -2.06183,-0.24377 -0.29898,-1.29542 0.38642,-0.23092 0.78976,-0.40575 1.19874,-0.48617 0.69527,-0.13716 1.399,-0.13931 2.09991,-0.16221 1.03232,-0.0298 2.06606,-0.0434 3.09979,0 1.46669,0.0639 2.94043,0.0594 4.39867,0.32397 4.13916,0.75141 7.82141,1.79414 11.69685,3.88692 2.23671,1.20766 4.49174,2.38471 6.69883,3.72536 0.78553,0.47705 3.16044,2.24629 3.99955,1.94357 0.34269,-0.12334 0.66847,-0.30659 0.99989,-0.48548"
       id="path25581" />
    <path
       style="fill:#c8ae54;fill-opacity:1;stroke:none;stroke-width:3.52187;stroke-linecap:round;stroke-dasharray:none;stroke-opacity:1;stop-color:#000000"
       d="m 127.25251,172.24346 c 3.6152,0.056 7.189,-0.53633 10.65539,-1.92781 1.11423,-0.4472 2.18966,-1.21402 3.30259,-1.67479 1.97183,-0.81578 3.95733,-1.51734 5.94983,-2.15538 2.42622,-0.77574 4.94453,-0.73298 7.3072,-2.05798 0.0179,-0.002 -0.0449,0.004 -0.0627,0.006 -0.14791,0.0142 -0.29356,0.0615 -0.44465,0.0427 -1.26699,-0.0794 -0.80204,-0.12738 -2.24657,-0.69011 -2.08072,-0.80974 -4.1332,-1.3062 -6.16852,-1.44452 -1.04641,-0.0719 -3.37668,-0.0595 -4.34251,0.18994 -0.64979,0.16765 -1.26836,0.59473 -1.90596,0.86115 -1.10644,0.46241 -2.28689,0.89836 -3.43078,1.0081 -1.79204,0.17191 -0.70561,6.8e-4 -1.97133,-0.48987 -0.50475,-0.19722 -0.98507,-0.0172 -1.48278,-0.0844 -0.73625,-0.10169 -1.49404,-0.44693 -2.22593,-0.46545 -0.92591,-0.0228 -1.59293,0.21982 -2.49935,0.69239 -0.54471,0.28224 -0.73427,0.52248 -1.29098,0.57589"
       id="path25583" />
    <path
       style="fill:#c8ae54;fill-opacity:1;stroke:none;stroke-width:1.67642;stroke-linecap:round;stroke-dasharray:none;stroke-opacity:1;stop-color:#000000"
       d="m 107.27331,149.32579 c 0.21834,-0.41928 0.38868,-0.90379 0.65557,-1.25844 1.48845,-1.9777 2.58159,-2.71838 4.33701,-4.23808 0.70579,-0.60998 1.40668,-1.2327 2.11418,-1.83628 0.48988,-0.41935 1.00662,-0.77275 1.48034,-1.23017 2.53783,-2.44798 -0.84297,0.33453 1.91643,-2.06834 0.81565,-0.71028 1.75533,-1.0719 2.53594,-1.86942 0.58438,-0.59747 0.527,-0.83447 1.06669,-1.60007 1.04782,-1.48589 0.82303,-1.23869 1.64699,-1.9234 0.0521,-0.0434 -0.10957,0.0911 -0.16468,0.13684 -0.12291,0.1022 -0.23573,0.24062 -0.36993,0.30742 -0.37681,0.18801 -0.78458,0.19786 -1.17105,0.33878 -1.23333,0.44944 -2.06464,1.7303 -3.09609,2.81078 -0.47567,0.49815 -0.94926,1.00568 -1.45166,1.4442 -1.14743,1.00161 -2.64389,1.98673 -3.78175,3.14263 -0.85178,0.86516 -1.43694,2.11574 -2.37687,2.84706 -0.33455,0.26015 -0.66716,0.52535 -1.01001,0.75992 -0.41709,0.28623 -0.86459,0.47146 -1.28445,0.75047 -0.67834,0.45045 -1.31826,0.987 -1.93204,1.60554 -0.33585,0.3384 -0.62085,0.72156 -0.9352,1.09405 -0.26545,0.31458 -0.0899,-0.0248 -0.22332,0.26497"
       id="path25579" />
  </g>
</svg>
