<?xml version="1.0" encoding="UTF-8" standalone="no"?>
<!-- Created with Inkscape (http://www.inkscape.org/) -->

<svg
   width="240"
   height="240"
   viewBox="0 0 63.500002 63.500007"
   version="1.1"
   id="svg1062"
   inkscape:version="1.3 (0e150ed6c4, 2023-07-21)"
   sodipodi:docname="oak_tree_fall_residue.svg"
   xmlns:inkscape="http://www.inkscape.org/namespaces/inkscape"
   xmlns:sodipodi="http://sodipodi.sourceforge.net/DTD/sodipodi-0.dtd"
   xmlns="http://www.w3.org/2000/svg"
   xmlns:svg="http://www.w3.org/2000/svg"
   xmlns:rdf="http://www.w3.org/1999/02/22-rdf-syntax-ns#"
   xmlns:cc="http://creativecommons.org/ns#"
   xmlns:dc="http://purl.org/dc/elements/1.1/">
  <sodipodi:namedview
     id="namedview1064"
     pagecolor="#505050"
     bordercolor="#ffffff"
     borderopacity="1"
     inkscape:pageshadow="0"
     inkscape:pageopacity="0"
     inkscape:pagecheckerboard="1"
     inkscape:document-units="px"
     showgrid="false"
     units="px"
     inkscape:zoom="2.1946698"
     inkscape:cx="110.49498"
     inkscape:cy="126.89836"
     inkscape:window-width="1920"
     inkscape:window-height="1094"
     inkscape:window-x="-11"
     inkscape:window-y="-11"
     inkscape:window-maximized="1"
     inkscape:current-layer="layer1"
     inkscape:showpageshadow="2"
     inkscape:deskcolor="#505050" />
  <defs
     id="defs1059" />
  <g
     inkscape:label="Layer 1"
     inkscape:groupmode="layer"
     id="layer1"
     transform="translate(8.3393664,10.854856)">
    <path
       sodipodi:type="star"
       style="fill:#4d3f36;fill-opacity:1;stroke:#29180d;stroke-width:0.79375;stroke-linejoin:round;stroke-dasharray:none;stroke-opacity:1"
       id="path1620"
       inkscape:flatsided="false"
       sodipodi:sides="8"
       sodipodi:cx="6.6306486"
       sodipodi:cy="7.655385"
       sodipodi:r1="8.4433117"
       sodipodi:r2="6.7546492"
       sodipodi:arg1="0.17219081"
       sodipodi:arg2="0.5648899"
       inkscape:rounded="0"
       inkscape:randomized="0"
       d="M 14.949099,9.1020719 12.335946,11.271303 11.489719,14.560379 8.1080634,14.24648 5.1839617,15.973835 3.0147308,13.360683 -0.27434587,12.514455 0.03955379,9.1327998 -1.6878013,6.2086981 0.92535078,4.0394672 1.7715784,0.75039054 5.1532339,1.0642902 8.0773355,-0.66306492 10.246566,1.9500872 l 3.289077,0.8462276 -0.3139,3.3816555 z"
       transform="matrix(1.6576083,0,0,1.6576083,12.419618,8.2055165)" />
    <path
       sodipodi:type="star"
       style="fill:#5f4316;fill-opacity:0;fill-rule:nonzero;stroke:#29180d;stroke-width:0.30749;stroke-linejoin:miter;stroke-dasharray:none;stroke-opacity:1"
       id="path1620-8"
       inkscape:flatsided="false"
       sodipodi:sides="8"
       sodipodi:cx="6.6306486"
       sodipodi:cy="7.655385"
       sodipodi:r1="8.4433117"
       sodipodi:r2="6.7546492"
       sodipodi:arg1="0.17219081"
       sodipodi:arg2="0.5648899"
       inkscape:rounded="0"
       inkscape:randomized="0"
       d="M 14.949099,9.1020719 12.335946,11.271303 11.489719,14.560379 8.1080634,14.24648 5.1839617,15.973835 3.0147308,13.360683 -0.27434587,12.514455 0.03955379,9.1327998 -1.6878013,6.2086981 0.92535078,4.0394672 1.7715784,0.75039054 5.1532339,1.0642902 8.0773355,-0.66306492 10.246566,1.9500872 l 3.289077,0.8462276 -0.3139,3.3816555 z"
       transform="matrix(1.4263092,0,0,1.4263092,13.953281,9.9762002)" />
    <path
       sodipodi:type="star"
       style="fill:#5f4316;fill-opacity:0;fill-rule:nonzero;stroke:#29180d;stroke-width:0.30749;stroke-linejoin:miter;stroke-dasharray:none;stroke-opacity:1"
       id="path1620-8-5"
       inkscape:flatsided="false"
       sodipodi:sides="8"
       sodipodi:cx="6.6306486"
       sodipodi:cy="7.655385"
       sodipodi:r1="8.4433117"
       sodipodi:r2="6.7546492"
       sodipodi:arg1="0.17219081"
       sodipodi:arg2="0.5648899"
       inkscape:rounded="0"
       inkscape:randomized="0"
       d="M 14.949099,9.1020719 12.335946,11.271303 11.489719,14.560379 8.1080634,14.24648 5.1839617,15.973835 3.0147308,13.360683 -0.27434587,12.514455 0.03955379,9.1327998 -1.6878013,6.2086981 0.92535078,4.0394672 1.7715784,0.75039054 5.1532339,1.0642902 8.0773355,-0.66306492 10.246566,1.9500872 l 3.289077,0.8462276 -0.3139,3.3816555 z"
       transform="matrix(1.2807363,0,0,1.2807363,14.918523,11.090617)" />
    <path
       sodipodi:type="star"
       style="fill:#5f4316;fill-opacity:0;fill-rule:nonzero;stroke:#29180d;stroke-width:0.30749;stroke-linejoin:miter;stroke-dasharray:none;stroke-opacity:1"
       id="path1620-8-5-7"
       inkscape:flatsided="false"
       sodipodi:sides="8"
       sodipodi:cx="6.6306486"
       sodipodi:cy="7.655385"
       sodipodi:r1="8.4433117"
       sodipodi:r2="6.7546492"
       sodipodi:arg1="0.17219081"
       sodipodi:arg2="0.5648899"
       inkscape:rounded="0"
       inkscape:randomized="0"
       d="M 14.949099,9.1020719 12.335946,11.271303 11.489719,14.560379 8.1080634,14.24648 5.1839617,15.973835 3.0147308,13.360683 -0.27434587,12.514455 0.03955379,9.1327998 -1.6878013,6.2086981 0.92535078,4.0394672 1.7715784,0.75039054 5.1532339,1.0642902 8.0773355,-0.66306492 10.246566,1.9500872 l 3.289077,0.8462276 -0.3139,3.3816555 z"
       transform="matrix(1.1429956,0,0,1.1429956,15.831834,12.145075)" />
    <path
       sodipodi:type="star"
       style="fill:#5f4316;fill-opacity:0;fill-rule:nonzero;stroke:#29180d;stroke-width:0.30749;stroke-linejoin:miter;stroke-dasharray:none;stroke-opacity:1"
       id="path1620-8-5-7-3"
       inkscape:flatsided="false"
       sodipodi:sides="8"
       sodipodi:cx="6.6306486"
       sodipodi:cy="7.655385"
       sodipodi:r1="8.4433117"
       sodipodi:r2="6.7546492"
       sodipodi:arg1="0.17219081"
       sodipodi:arg2="0.5648899"
       inkscape:rounded="0"
       inkscape:randomized="0"
       d="M 14.949099,9.1020719 12.335946,11.271303 11.489719,14.560379 8.1080634,14.24648 5.1839617,15.973835 3.0147308,13.360683 -0.27434587,12.514455 0.03955379,9.1327998 -1.6878013,6.2086981 0.92535078,4.0394672 1.7715784,0.75039054 5.1532339,1.0642902 8.0773355,-0.66306492 10.246566,1.9500872 l 3.289077,0.8462276 -0.3139,3.3816555 z"
       transform="matrix(1.0048732,0,0,1.0048732,16.747675,13.202455)" />
    <path
       sodipodi:type="star"
       style="fill:#5f4316;fill-opacity:0;fill-rule:nonzero;stroke:#29180d;stroke-width:0.30749;stroke-linejoin:miter;stroke-dasharray:none;stroke-opacity:1"
       id="path1620-8-5-7-3-2"
       inkscape:flatsided="false"
       sodipodi:sides="8"
       sodipodi:cx="6.6306486"
       sodipodi:cy="7.655385"
       sodipodi:r1="8.4433117"
       sodipodi:r2="6.7546492"
       sodipodi:arg1="0.17219081"
       sodipodi:arg2="0.5648899"
       inkscape:rounded="0"
       inkscape:randomized="0"
       d="M 14.949099,9.1020719 12.335946,11.271303 11.489719,14.560379 8.1080634,14.24648 5.1839617,15.973835 3.0147308,13.360683 -0.27434587,12.514455 0.03955379,9.1327998 -1.6878013,6.2086981 0.92535078,4.0394672 1.7715784,0.75039054 5.1532339,1.0642902 8.0773355,-0.66306492 10.246566,1.9500872 l 3.289077,0.8462276 -0.3139,3.3816555 z"
       transform="matrix(0.84836116,0,0,0.84836116,17.785451,14.400615)" />
    <path
       sodipodi:type="star"
       style="fill:#5f4316;fill-opacity:0;fill-rule:nonzero;stroke:#29180d;stroke-width:0.30749;stroke-linejoin:miter;stroke-dasharray:none;stroke-opacity:1"
       id="path1620-8-5-7-3-2-7"
       inkscape:flatsided="false"
       sodipodi:sides="8"
       sodipodi:cx="6.6306486"
       sodipodi:cy="7.655385"
       sodipodi:r1="8.4433117"
       sodipodi:r2="6.7546492"
       sodipodi:arg1="0.17219081"
       sodipodi:arg2="0.5648899"
       inkscape:rounded="0"
       inkscape:randomized="0"
       d="M 14.949099,9.1020719 12.335946,11.271303 11.489719,14.560379 8.1080634,14.24648 5.1839617,15.973835 3.0147308,13.360683 -0.27434587,12.514455 0.03955379,9.1327998 -1.6878013,6.2086981 0.92535078,4.0394672 1.7715784,0.75039054 5.1532339,1.0642902 8.0773355,-0.66306492 10.246566,1.9500872 l 3.289077,0.8462276 -0.3139,3.3816555 z"
       transform="matrix(0.68314932,0,0,0.68314932,18.880913,15.665375)" />
    <path
       sodipodi:type="star"
       style="fill:#5f4316;fill-opacity:0;fill-rule:nonzero;stroke:#29180d;stroke-width:0.30749;stroke-linejoin:miter;stroke-dasharray:none;stroke-opacity:1"
       id="path1620-8-5-7-3-2-7-0"
       inkscape:flatsided="false"
       sodipodi:sides="8"
       sodipodi:cx="6.6306486"
       sodipodi:cy="7.655385"
       sodipodi:r1="8.4433117"
       sodipodi:r2="6.7546492"
       sodipodi:arg1="0.17219081"
       sodipodi:arg2="0.5648899"
       inkscape:rounded="0"
       inkscape:randomized="0"
       d="M 14.949099,9.1020719 12.335946,11.271303 11.489719,14.560379 8.1080634,14.24648 5.1839617,15.973835 3.0147308,13.360683 -0.27434587,12.514455 0.03955379,9.1327998 -1.6878013,6.2086981 0.92535078,4.0394672 1.7715784,0.75039054 5.1532339,1.0642902 8.0773355,-0.66306492 10.246566,1.9500872 l 3.289077,0.8462276 -0.3139,3.3816555 z"
       transform="matrix(0.56047966,0,0,0.56047966,19.694292,16.604459)" />
    <path
       sodipodi:type="star"
       style="fill:#5f4316;fill-opacity:0;fill-rule:nonzero;stroke:#29180d;stroke-width:0.30749;stroke-linejoin:miter;stroke-dasharray:none;stroke-opacity:1"
       id="path1620-8-5-7-3-2-7-0-0"
       inkscape:flatsided="false"
       sodipodi:sides="8"
       sodipodi:cx="6.6306486"
       sodipodi:cy="7.655385"
       sodipodi:r1="8.4433117"
       sodipodi:r2="6.7546492"
       sodipodi:arg1="0.17219081"
       sodipodi:arg2="0.5648899"
       inkscape:rounded="0"
       inkscape:randomized="0"
       d="M 14.949099,9.1020719 12.335946,11.271303 11.489719,14.560379 8.1080634,14.24648 5.1839617,15.973835 3.0147308,13.360683 -0.27434587,12.514455 0.03955379,9.1327998 -1.6878013,6.2086981 0.92535078,4.0394672 1.7715784,0.75039054 5.1532339,1.0642902 8.0773355,-0.66306492 10.246566,1.9500872 l 3.289077,0.8462276 -0.3139,3.3816555 z"
       transform="matrix(0.44855257,0,0,0.44855257,20.436441,17.461304)" />
    <path
       sodipodi:type="star"
       style="fill:#5f4316;fill-opacity:0;fill-rule:nonzero;stroke:#29180d;stroke-width:0.30749;stroke-linejoin:miter;stroke-dasharray:none;stroke-opacity:1"
       id="path1620-8-5-7-3-2-7-0-0-8"
       inkscape:flatsided="false"
       sodipodi:sides="8"
       sodipodi:cx="6.6306486"
       sodipodi:cy="7.655385"
       sodipodi:r1="8.4433117"
       sodipodi:r2="6.7546492"
       sodipodi:arg1="0.17219081"
       sodipodi:arg2="0.5648899"
       inkscape:rounded="0"
       inkscape:randomized="0"
       d="M 14.949099,9.1020719 12.335946,11.271303 11.489719,14.560379 8.1080634,14.24648 5.1839617,15.973835 3.0147308,13.360683 -0.27434587,12.514455 0.03955379,9.1327998 -1.6878013,6.2086981 0.92535078,4.0394672 1.7715784,0.75039054 5.1532339,1.0642902 8.0773355,-0.66306492 10.246566,1.9500872 l 3.289077,0.8462276 -0.3139,3.3816555 z"
       transform="matrix(0.33713147,0,0,0.33713147,21.175236,18.314275)" />
    <path
       sodipodi:type="star"
       style="fill:#312114;fill-opacity:1;fill-rule:nonzero;stroke:#29180d;stroke-width:0;stroke-linejoin:miter;stroke-dasharray:none;stroke-opacity:1"
       id="path1620-8-5-7-3-2-7-0-0-8-4"
       inkscape:flatsided="false"
       sodipodi:sides="8"
       sodipodi:cx="6.6306486"
       sodipodi:cy="7.655385"
       sodipodi:r1="8.4433117"
       sodipodi:r2="6.7546492"
       sodipodi:arg1="0.17219081"
       sodipodi:arg2="0.5648899"
       inkscape:rounded="0"
       inkscape:randomized="0"
       d="M 14.949099,9.1020719 12.335946,11.271303 11.489719,14.560379 8.1080634,14.24648 5.1839617,15.973835 3.0147308,13.360683 -0.27434587,12.514455 0.03955379,9.1327998 -1.6878013,6.2086981 0.92535078,4.0394672 1.7715784,0.75039054 5.1532339,1.0642902 8.0773355,-0.66306492 10.246566,1.9500872 l 3.289077,0.8462276 -0.3139,3.3816555 z"
       transform="matrix(0.23693543,0,0,0.23693543,21.8396,19.081314)" />
    <path
       d="m -1.0051793,4.2371932 3.528272,-6.559364 8.7862303,-3.275063 -7.1777683,8.195477 -4.59134302,11.7027058 -5.14104098,3.075979 z"
       fill="#6d4a2c"
       stroke="#1b1917"
       stroke-width="5.83269"
       stroke-miterlimit="16"
       stroke-linejoin="round"
       id="path4"
       style="fill:#4d3f36;fill-opacity:1;stroke:#29180d;stroke-width:1.32292;stroke-dasharray:none;stroke-opacity:1"
       sodipodi:nodetypes="ccccccc" />
    <path
       d="m 7.9735257,11.657174 c 0.02341,-2.3635991 -1.882545,-7.1480871 -4.387591,-5.2279201 -2.325962,2.13359 2.054642,4.8414551 4.38648,5.2289831 l 5.46e-4,7.49e-4 c 3.34e-4,-4.77e-4 3.75e-4,-0.0016 5.5e-4,-0.0019 z"
       fill="#5f926a"
       id="path46"
       style="fill:#e5711a;fill-opacity:0.894118;stroke-width:0.301696" />
    <path
       d="m 11.63202,2.6761689 -0.0022,10e-4 c -2.9644663,-0.83271 -9.6201303,-0.05686 -8.0441433,3.751867 1.904659,3.6554561 6.7769453,-0.944324 8.0448523,-3.750266 l 0.0022,-10e-4 c -4.06e-4,7.3e-5 -10e-4,-2.3e-5 -0.0013,-2.1e-4 3.34e-4,-4.78e-4 2.63e-4,-8.84e-4 6.13e-4,-0.0015 z"
       fill="#587e60"
       id="path48"
       style="fill:#e52b23;fill-opacity:0.898039;stroke-width:0.301696" />
    <path
       d="m -0.83071332,-0.0431361 c 2.32615302,0.02304 7.03484102,-1.852721 5.14509702,-4.31808 -2.09979,-2.289111 -4.76475502,2.022091 -5.14614202,4.316987 l -7.39e-4,5.48e-4 c 4.77e-4,3.34e-4 0.0016,3.84e-4 0.0017,5e-4 z"
       fill="#5f926a"
       id="path46-6"
       style="fill:#e5711a;fill-opacity:0.894118;stroke-width:0.296918" />
    <path
       d="m 1.4500877,-10.854152 10e-4,0.0022 c -0.81951302,2.9174959 -0.05595,9.4677159 3.692433,7.9166969 3.597546,-1.874487 -0.929362,-6.6695822 -3.69085,-7.9174009 l -0.001,-0.0022 c 7e-5,4.02e-4 -2.5e-5,10e-4 -2.14e-4,0.0013 -4.75e-4,-3.32e-4 -8.76e-4,-2.61e-4 -0.0014,-6.25e-4 z"
       fill="#587e60"
       id="path48-7"
       style="fill:#e52b23;fill-opacity:0.898039;stroke-width:0.296918" />
    <path
       d="m 5.4577337,1.2838649 -4.38e-4,0.0012 c -1.704343,0.911827 -4.319262,4.133999 -1.871593,5.144043 2.524542,0.799796 2.59247,-3.349488 1.872938,-5.143854 l 2.62e-4,-8.83e-4 c 4.05e-4,-7.1e-5 0,0 0,0 -7.1e-5,-4.05e-4 -0.001,-2.3e-5 -0.0011,-4.5e-4 z"
       fill="#77a37a"
       id="path50"
       style="fill:#e5711a;fill-opacity:0.894118;stroke-width:0.301696" />
    <path
       d="m 53.275704,45.928443 c -1.501358,-1.825671 -6.036815,-4.265677 -6.721532,-1.184531 -0.410345,3.129526 4.685975,2.388072 6.721364,1.18606 l 9e-4,2.22e-4 c -5.1e-5,-5.8e-4 -7.16e-4,-0.0014 -8.06e-4,-0.0018 z"
       fill="#5f926a"
       id="path46-15"
       style="fill:#e5711a;fill-opacity:0.894118;stroke-width:0.301696" />
    <path
       d="m 50.305394,36.696959 -10e-4,0.0022 c -2.806169,1.26763 -7.405996,6.140143 -3.750518,8.044772 3.808736,1.575951 4.584442,-5.079531 3.752089,-8.044001 l 10e-4,-0.0022 c -2.64e-4,3.18e-4 -7.81e-4,6.26e-4 -0.0011,6.68e-4 -5.2e-5,-5.79e-4 -3.67e-4,-8.45e-4 -4.92e-4,-0.0015 z"
       fill="#587e60"
       id="path48-2"
       style="fill:#e52b23;fill-opacity:0.898039;stroke-width:0.301696" />
    <path
       d="m 44.680662,39.599148 4.54e-4,0.0012 c -0.719492,1.79403 -0.651463,5.943194 1.872804,5.143602 2.44801,-1.010065 -0.167063,-4.232264 -1.871652,-5.144322 l -3.71e-4,-8.66e-4 c 2.66e-4,-3.15e-4 0,0 0,0 -3.14e-4,-2.65e-4 -7.8e-4,6.26e-4 -0.0012,3.76e-4 z"
       fill="#77a37a"
       id="path50-6"
       style="fill:#efac3f;fill-opacity:0.901961;stroke-width:0.301696" />
    <path
       d="m 49.311059,5.5180903 0.393277,6.0418237 -4.646283,6.042677 1.417837,-8.741852 -1.876038,-10.0455142 2.219101,-4.335172 z"
       fill="#6d4a2c"
       stroke="#1b1917"
       stroke-width="5.83269"
       stroke-miterlimit="16"
       stroke-linejoin="round"
       id="path4-6"
       style="fill:#4d3f36;fill-opacity:1;stroke:#29180d;stroke-width:1.07541;stroke-dasharray:none;stroke-opacity:1"
       sodipodi:nodetypes="ccccccc" />
    <path
       d="m 40.152875,4.6354725 c 1.00204,1.639516 4.37702,4.1168327 5.276803,1.7139834 C 46.114064,3.876622 41.927655,3.896918 40.153182,4.6342609 l -6.99e-4,-2.81e-4 c -2.4e-5,4.729e-4 4.28e-4,0.00126 4.23e-4,0.00153 z"
       fill="#5f926a"
       id="path46-1"
       style="fill:#e5711a;fill-opacity:0.894118;stroke-width:0.245251" />
    <path
       d="m 41.499562,12.402837 0.0011,-0.0017 C 43.903049,11.698175 48.157149,8.2962169 45.429979,6.3494326 42.542253,4.6498953 41.164844,9.9197803 41.4995,12.400339 l -0.0011,0.0017 c 2.48e-4,-2.26e-4 6.99e-4,-4.15e-4 9.75e-4,-4.22e-4 -2.3e-5,4.73e-4 2.01e-4,7.22e-4 2.52e-4,0.0013 z"
       fill="#587e60"
       id="path48-8"
       style="fill:#efac3f;fill-opacity:0.901961;stroke-width:0.245251" />
    <path
       d="m 51.262599,8.9088429 c -1.613542,0.986166 -4.05161,4.3076771 -1.68683,5.1932041 2.433658,0.673541 2.413685,-3.446542 1.688021,-5.1929017 l 2.74e-4,-6.967e-4 c -4.73e-4,-2.44e-5 -0.0012,4.122e-4 -0.0014,4.195e-4 z"
       fill="#5f926a"
       id="path46-6-4"
       style="fill:#e5711a;fill-opacity:0.894118;stroke-width:0.241367" />
    <path
       d="m 54.347373,17.344313 -0.0017,-0.0011 c -0.691848,-2.36431 -4.039913,-6.551012 -5.955853,-3.867048 -1.672612,2.841979 3.513784,4.197565 5.955044,3.868211 l 0.0017,0.0011 c -2.21e-4,-2.47e-4 -4.13e-4,-7e-4 -4.2e-4,-9.75e-4 4.7e-4,2.3e-5 7.17e-4,-1.98e-4 0.0012,-1.75e-4 z"
       fill="#587e60"
       id="path48-7-6"
       style="fill:#e52b23;fill-opacity:0.898039;stroke-width:0.241367" />
    <path
       d="m 46.355796,10.702937 -2.18e-4,-9.75e-4 C 47.137736,9.3391722 47.552389,5.9914107 45.4299,6.349497 c -2.084915,0.5361446 -0.344332,3.4258615 0.924671,4.352914 l 2e-4,7.22e-4 c -2.48e-4,2.24e-4 0,0 0,0 2.24e-4,2.48e-4 7e-4,-4.15e-4 9.76e-4,-1.67e-4 z"
       fill="#77a37a"
       id="path50-1"
       style="fill:#e5711a;fill-opacity:0.894118;stroke-width:0.245251" />
    <path
       id="path36"
       class="st5"
       d="m 32.441441,-4.4133493 v 0 c 2.921273,0.03673 8.832769,-2.307379 6.446293,-5.409804 -2.643199,-2.8732117 -5.978518,2.525723 -6.446293,5.409804 z"
       style="fill:#8d6753;fill-opacity:0.8978;stroke-width:0.139345" />
    <path
       id="path38"
       class="st4"
       d="m 41.07622,-5.1152243 v 0 c 0.526543,-1.748334 0.118644,-5.6665687 -2.188486,-4.707929 -2.229664,1.157221 0.504756,3.986053 2.188486,4.707929 z"
       style="fill:#845b45;fill-opacity:0.8971;stroke-width:0.139345" />
    <path
       id="path36-5"
       class="st5"
       d="m 0.77895931,29.553398 v 0 C -1.0706608,27.291963 -6.666188,24.27026 -7.5087872,28.092606 c -0.5019912,3.871673 5.7777348,2.956308 8.28774651,1.460792 z"
       style="fill:#8d6753;fill-opacity:0.8978;stroke-width:0.139345" />
    <path
       id="path38-1"
       class="st4"
       d="m -5.3090359,23.389931 v 0 c -1.6777581,0.72045 -4.417106,3.551514 -2.1997513,4.702675 2.3196831,0.964174 2.7290427,-2.948851 2.1997513,-4.702675 z"
       style="fill:#845b45;fill-opacity:0.8971;stroke-width:0.139345" />
    <path
       d="M 16.655838,45.931256 9.5834427,43.595608 4.832425,35.511572 l 9.317376,5.645591 12.322197,2.489436 3.921983,4.528796 z"
       fill="#6d4a2c"
       stroke="#1b1917"
       stroke-width="5.83269"
       stroke-miterlimit="16"
       stroke-linejoin="round"
       id="path4-60"
       style="fill:#4d3f36;fill-opacity:1;stroke:#29180d;stroke-width:1.32292;stroke-dasharray:none;stroke-opacity:1"
       sodipodi:nodetypes="ccccccc" />
    <path
       d="m 21.882829,35.892381 c -2.331754,0.38738 -6.712593,3.095197 -4.3866,5.228754 2.505078,1.920131 4.411119,-2.864138 4.38784,-5.227844 l 6.44e-4,-6.67e-4 c -5.28e-4,-2.46e-4 -0.0016,-6.6e-5 -0.002,-1.44e-4 z"
       fill="#5f926a"
       id="path46-8"
       style="fill:#e5711a;fill-opacity:0.894118;stroke-width:0.301696" />
    <path
       d="m 12.402971,33.849004 0.0014,0.002 c -0.305283,3.064025 1.614524,9.48385 5.091721,7.270428 3.269183,-2.510488 -2.106781,-6.510008 -5.090267,-7.271405 l -0.0014,-0.002 c 1.42e-4,3.89e-4 1.52e-4,9.87e-4 2.5e-5,0.0013 -5.31e-4,-2.45e-4 -9.17e-4,-1.05e-4 -0.0016,-2.51e-4 z"
       fill="#587e60"
       id="path48-4"
       style="fill:#e52b23;fill-opacity:0.898039;stroke-width:0.301696" />
    <path
       d="m 11.88911,46.594602 c -0.381241,-2.294813 -3.0461611,-6.606244 -5.145916,-4.317106 -1.8897091,2.465391 2.8187623,4.341236 5.145021,4.318324 l 6.68e-4,6.33e-4 c 2.45e-4,-5.29e-4 9.3e-5,-0.0016 1.98e-4,-0.0018 z"
       fill="#5f926a"
       id="path46-6-5"
       style="fill:#d92921;fill-opacity:0.901961;stroke-width:0.296918" />
    <path
       d="m 0.8462804,46.225764 0.00195,-0.0014 C 3.8637099,46.52481 10.181827,44.635413 8.0034702,41.213308 5.5327537,37.995916 1.5965964,43.286712 0.847262,46.222929 l -0.00195,0.0014 c 3.842e-4,-1.39e-4 9.885e-4,-1.49e-4 0.00128,-2.1e-5 -2.437e-4,5.25e-4 -1.051e-4,9.08e-4 -3.712e-4,0.0015 z"
       fill="#587e60"
       id="path48-7-60"
       style="fill:#e52b23;fill-opacity:0.898039;stroke-width:0.296918" />
    <path
       d="m 12.103974,40.17126 0.0013,2.04e-4 c 1.193927,1.520115 4.821226,3.535783 5.390894,0.949906 0.349261,-2.625072 -3.748784,-1.971453 -5.390944,-0.951263 l -9.15e-4,-1.04e-4 c -1.41e-4,-3.86e-4 0,0 0,0 -3.86e-4,1.39e-4 1.5e-4,9.89e-4 -2.82e-4,0.0012 z"
       fill="#77a37a"
       id="path50-2"
       style="fill:#e5711a;fill-opacity:0.894118;stroke-width:0.301696" />
    <path
       id="path36-0"
       class="st5"
       d="m 45.199416,29.700835 v 0 c -2.883269,0.471102 -8.297905,3.806119 -5.408956,6.447002 3.101972,2.370577 5.449104,-3.525509 5.408956,-6.447002 z"
       style="fill:#8d6753;fill-opacity:0.8978;stroke-width:0.139345" />
    <path
       id="path38-5"
       class="st4"
       d="m 36.817699,31.891461 v 0 c -0.21495,1.813205 0.867148,5.601083 2.972761,4.256376 1.994842,-1.526817 -1.189258,-3.837844 -2.972761,-4.256376 z"
       style="fill:#845b45;fill-opacity:0.8971;stroke-width:0.139345" />
  </g>
  <metadata
     id="metadata6004">
    <rdf:RDF>
      <cc:Work
         rdf:about="">
        <dc:creator>
          <cc:Agent>
            <dc:title>Radians</dc:title>
          </cc:Agent>
        </dc:creator>
      </cc:Work>
    </rdf:RDF>
  </metadata>
</svg>
