<?xml version="1.0" encoding="UTF-8" standalone="no"?>
<!-- Created with Inkscape (http://www.inkscape.org/) -->

<svg
   width="141.87297"
   height="136.88297"
   viewBox="0 0 37.537223 36.216953"
   version="1.1"
   id="svg5"
   inkscape:version="1.3.2 (091e20e, 2023-11-25, custom)"
   sodipodi:docname="plumpkin_residue.svg"
   xmlns:inkscape="http://www.inkscape.org/namespaces/inkscape"
   xmlns:sodipodi="http://sodipodi.sourceforge.net/DTD/sodipodi-0.dtd"
   xmlns="http://www.w3.org/2000/svg"
   xmlns:svg="http://www.w3.org/2000/svg"
   xmlns:rdf="http://www.w3.org/1999/02/22-rdf-syntax-ns#"
   xmlns:cc="http://creativecommons.org/ns#"
   xmlns:dc="http://purl.org/dc/elements/1.1/">
  <sodipodi:namedview
     id="namedview7"
     pagecolor="#505050"
     bordercolor="#ffffff"
     borderopacity="1"
     inkscape:pageshadow="0"
     inkscape:pageopacity="0"
     inkscape:pagecheckerboard="1"
     inkscape:document-units="px"
     showgrid="false"
     units="px"
     width="100px"
     inkscape:zoom="2.8284271"
     inkscape:cx="74.069435"
     inkscape:cy="63.816387"
     inkscape:window-width="1920"
     inkscape:window-height="1001"
     inkscape:window-x="-9"
     inkscape:window-y="-9"
     inkscape:window-maximized="1"
     inkscape:current-layer="layer1"
     inkscape:showpageshadow="2"
     inkscape:deskcolor="#505050" />
  <defs
     id="defs2" />
  <g
     inkscape:label="Layer 1"
     inkscape:groupmode="layer"
     id="layer1"
     transform="translate(12.17646,10.087525)">
    <path
       id="path11-8-2-1"
       style="fill:#382f2f;fill-opacity:1;fill-rule:evenodd;stroke:#2c2c2c;stroke-width:0.613856;stroke-linejoin:round;stroke-opacity:1"
       d="m -10.563872,7.9953629 c 0.487695,-0.7835262 3.135014,-2.9433435 3.7049914,-2.6380945 0.552159,0.2956966 -0.1228592,3.5117789 -0.6105417,4.2953095 -1.5074051,2.4218191 -4.6018527,0.7646371 -3.0944497,-1.657215 z"
       sodipodi:nodetypes="ssss" />
    <path
       id="path11-8-2-1-9"
       style="fill:#382f2f;fill-opacity:1;fill-rule:evenodd;stroke:#2c2c2c;stroke-width:0.613856;stroke-linejoin:round;stroke-opacity:1"
       d="m 20.390695,15.818667 c 0.844682,-0.452374 4.301558,-1.095004 4.630626,-0.566314 0.318785,0.512197 -1.999354,2.984322 -2.844044,3.436684 -2.610902,1.398245 -4.397481,-1.472128 -1.786582,-2.87037 z"
       sodipodi:nodetypes="ssss" />
    <path
       id="path11-8-2-1-2"
       style="fill:#382f2f;fill-opacity:1;fill-rule:evenodd;stroke:#2c2c2c;stroke-width:0.613856;stroke-linejoin:round;stroke-opacity:1"
       d="m 5.2210739,22.475332 c 0.9165379,0.309441 3.669295,2.352716 3.4442002,2.926378 -0.2180653,0.555757 -3.7497524,0.497583 -4.6662934,0.188156 -2.8329868,-0.95646 -1.6109079,-4.07099 1.2220932,-3.114534 z"
       sodipodi:nodetypes="ssss" />
    <path
       style="fill:#ef9c3f;fill-opacity:0;fill-rule:evenodd;stroke:#85954c;stroke-width:2.04346;stroke-linecap:round;stroke-linejoin:round;stroke-dasharray:none;stroke-opacity:1"
       d="M -4.155563,0.78780365 C -2.011051,-3.6765415 3.4637018,-9.7397426 9.6691321,-7.8210508 11.990058,-7.1034304 10.642572,-2.8703092 11.119274,-1.543761 12.805217,3.147816 26.042866,-0.48800508 22.237036,9.3966605 20.053286,15.068392 10.350731,15.777167 8.2189881,9.8450382"
       id="path12" />
    <path
       id="path46"
       style="fill:#424a26;fill-opacity:1;stroke-width:0.162789"
       d="m 13.472316,-10.087525 -8.29e-4,7.69e-4 c -0.827921,0.2690906 -1.958736,0.9996502 -2.615687,1.8043317 -0.216152,-0.231494 -0.45102,-0.4284194 -0.663867,-0.5573671 v -7.688e-4 h -8.29e-4 v 7.688e-4 c -0.4891593,0.8961805 -0.6530555,3.0472457 0.794817,2.7476278 0.0059,0.00283 0.01155,0.00494 0.0174,0.00769 0.0055,0.034779 0.0087,0.071107 0.02072,0.1068604 0.529268,1.5650674 2.944244,0.095999 3.693125,-0.9171573 v -7.718e-4 c -0.393278,-0.1745289 -0.969323,-0.3076884 -1.551509,-0.3513335 0.365097,-0.9113041 0.459891,-2.0856691 0.306656,-2.8391122 l 8.29e-4,-0.0015 z"
       sodipodi:nodetypes="cccccccccscccccc" />
    <path
       id="path46-5"
       style="fill:#424a26;fill-opacity:1;stroke-width:0.209563"
       d="m 17.957544,-3.4481514 1.32e-4,0.00139 c -0.399038,0.97999 -0.558044,2.61891049 -0.246171,3.88569776 -0.424968,0.006159 -0.828679,0.0580837 -1.141891,0.14604598 l -8.23e-4,-6.3524e-4 -6.83e-4,7.5649e-4 8.15e-4,6.339e-4 c 0.547984,1.18902871 2.699247,3.11888911 3.578786,1.54654941 0.0085,-0.00342 0.01524,-0.00686 0.02234,-0.00992 0.04144,0.023741 0.08282,0.050946 0.130728,0.069456 2.101831,0.8107851 2.538355,-2.61391038 2.080914,-4.1372963 l -8.22e-4,-6.525e-4 c -0.511031,0.2155204 -1.129253,0.6322687 -1.657397,1.12869163 C 20.05674,-1.9054777 18.886678,-2.9639417 17.958875,-3.4472286 l -7.95e-4,-0.00177 z"
       sodipodi:nodetypes="cccccccccscccccc" />
    <path
       id="path46-9"
       style="fill:#424a26;fill-opacity:1;stroke-width:0.315608"
       d="m -12.17646,-4.3320388 0.0016,0.00149 c 0.56244,1.4889097 2.08939,3.52252973 3.7712619,4.70396899 -0.483847,0.3887199 -0.8954429,0.81110001 -1.1649576,1.19387571 h -0.0016 l -5e-7,0.00149 h 0.0016 c 1.8731158,0.8796895 6.369077,1.1744325 5.7428428,-1.42937245 0.00593,-0.0106518 0.010361,-0.0207443 0.01607,-0.0312845 0.072693,-0.0098038 0.1486214,-0.01558647 0.2233488,-0.03726501 3.27116249,-0.95181888 0.2006486,-5.29483194 -1.916959,-6.64159384 l -0.0016,-7e-6 c -0.3647879,0.7072604 -0.6431052,1.7432001 -0.7343282,2.7901842 -1.9047253,-0.6565793 -4.3592772,-0.8270533 -5.9340572,-0.5514797 l -0.0032,-0.00149 z"
       sodipodi:nodetypes="cccccccccscccccc" />
    <path
       id="path46-1"
       style="fill:#424a26;fill-opacity:1;stroke-width:0.162789"
       d="m 20.344983,14.966506 8.24e-4,-7.66e-4 c 0.827935,-0.269077 1.958734,-0.999651 2.615688,-1.804338 0.21612,0.231518 0.451075,0.428392 0.663878,0.557367 l -6e-6,7.75e-4 8.26e-4,-7e-6 v -7.66e-4 c 0.489183,-0.896176 0.653063,-3.047242 -0.794816,-2.747632 -0.0063,-0.0027 -0.01155,-0.0051 -0.01761,-0.0079 -0.0055,-0.03472 -0.0087,-0.07116 -0.02077,-0.106801 -0.529266,-1.565068 -2.944242,-0.096 -3.693124,0.91716 l 1e-6,7.71e-4 c 0.393272,0.174525 0.969322,0.307689 1.551506,0.351333 -0.365088,0.9113 -0.459885,2.085665 -0.306649,2.839112 l -7.44e-4,0.0013 z"
       sodipodi:nodetypes="cccccccccscccccc" />
    <path
       id="path11-8-2-1-9-2"
       style="fill:#382f2f;fill-opacity:1;fill-rule:evenodd;stroke:#2c2c2c;stroke-width:0.613856;stroke-linejoin:round;stroke-opacity:1"
       d="M 8.6892031,5.7800222 C 7.7726701,6.089468 4.2480013,6.1655214 4.0229081,5.5918629 3.8048428,5.0361012 6.5505639,2.9749158 7.4671066,2.6654864 10.300105,1.7090354 11.522187,4.8235825 8.6892031,5.7800222 Z"
       sodipodi:nodetypes="ssss" />
    <path
       id="path11-8-2-1-9-2-6"
       style="fill:#382f2f;fill-opacity:1;fill-rule:evenodd;stroke:#2c2c2c;stroke-width:0.613856;stroke-linejoin:round;stroke-opacity:1"
       d="m 3.4513828,15.811779 c -1.12e-5,-0.904731 1.1284477,-4.003003 1.786581,-4.003003 0.6375979,9e-6 1.7865906,3.098268 1.7865793,4.003002 -3.2e-6,2.796497 -3.5731763,2.796483 -3.5731603,10e-7 z"
       sodipodi:nodetypes="ssss" />
    <path
       style="fill:#8a4c70;fill-opacity:1;stroke:#2f1d2f;stroke-width:0.753849;stroke-linejoin:round;stroke-dasharray:none;stroke-opacity:1"
       d="M 3.2977447,8.7434599 C 0.74771871,5.8234358 -0.49461576,5.7285186 -3.0366614,5.3639898 -5.4086898,7.5379639 -5.3146388,11.109203 -3.3827379,12.113733 0.1073805,11.349208 2.1245119,11.350945 3.2977447,8.7434599 Z"
       id="path3-8"
       sodipodi:nodetypes="cccc" />
    <path
       style="fill:#8a4c70;fill-opacity:1;stroke:#2f1d2f;stroke-width:0.753849;stroke-linejoin:round;stroke-dasharray:none;stroke-opacity:1"
       d="m 0.11423765,14.105347 c -3.83029535,1.224009 -4.35135685,2.27442 -5.59006405,4.365522 1.3910641,2.811114 5.04107875,3.95057 6.7194678,2.610205 0.4191878,-3.303634 1.1108457,-5.061265 -1.1293975,-6.975721 z"
       id="path3-8-3"
       sodipodi:nodetypes="cccc" />
    <path
       style="fill:#8a4c70;fill-opacity:1;stroke:#2f1d2f;stroke-width:0.753849;stroke-linejoin:round;stroke-dasharray:none;stroke-opacity:1"
       d="M 13.04521,3.451079 C 12.272836,7.1400128 12.993,8.0837938 14.325973,10.124418 17.646051,10.412511 20.534894,8.0501395 20.122682,6.031676 17.247894,4.0431224 15.952739,2.6086881 13.045216,3.4510775 Z"
       id="path3-8-5"
       sodipodi:nodetypes="cccc" />
    <path
       style="fill:#8a4c70;fill-opacity:1;stroke:#2f1d2f;stroke-width:0.753849;stroke-linejoin:round;stroke-dasharray:none;stroke-opacity:1"
       d="m 10.064222,16.485102 c -0.7723699,3.688929 -0.05219,4.632718 1.280763,6.673337 3.320079,0.288094 6.208922,-2.074275 5.796711,-4.092741 -2.874789,-1.988554 -4.169943,-3.422988 -7.077466,-2.580599 z"
       id="path3-8-8"
       sodipodi:nodetypes="cccc" />
  </g>
  <metadata
     id="metadata13">
    <rdf:RDF>
      <cc:Work
         rdf:about="">
        <dc:creator>
          <cc:Agent>
            <dc:title>Radians</dc:title>
          </cc:Agent>
        </dc:creator>
      </cc:Work>
    </rdf:RDF>
  </metadata>
</svg>
