<svg width="40" height="17" viewBox="0 0 40 17" fill="none" xmlns="http://www.w3.org/2000/svg">
<path d="M24.9125 5.24944L39.0679 0.258789V2.13428L24.9125 6.07757V5.24944Z" fill="#D9D9D9"/>
<path d="M26.4935 8.30198L35.8943 7.06911V8.41544L26.4935 8.6102V8.30198Z" fill="#D9D9D9"/>
<path d="M0.86377 6.75099L12.0567 7.85808L12.3206 7.34579L1.45783 5.24944L0.86377 6.75099Z" fill="#D9D9D9"/>
<path d="M11.5927 12.7034L3.81993 16.2588L3.16062 14.7515L11.3006 12.2204L11.5927 12.7034Z" fill="#D9D9D9"/>
<path d="M28.2154 16.2588L28.7561 14.8519L27.5665 14.3833V15.4971L28.2154 16.2588Z" fill="#D9D9D9"/>
<path d="M6.09988 3.7913L7.64509 5.24944L6.09988 5.79353L5.72991 4.55302L6.09988 3.7913Z" fill="#D9D9D9"/>
<path d="M32.3178 10.1536L33.2971 10.8283L31.6431 11.4159V10.8283L32.3178 10.1536Z" fill="#D9D9D9"/>
<path d="M36.3078 5.53783L35.002 6.10369L34.6755 4.97198H35.8943L36.3078 5.53783Z" fill="#D9D9D9"/>
<path d="M13.8082 16.2588L15.0487 15.323L13.8082 15.4971V16.2588Z" fill="#D9D9D9"/>
<path d="M9.60381 11.3373L7.64509 12.0337L6.77456 10.7279L8.47211 10.8585L9.60381 11.3373Z" fill="#D9D9D9"/>
<path d="M4.4281 9.27911V8.05985L3.47523 9.27911L3.9472 10.2203L4.4281 9.27911Z" fill="#D9D9D9"/>
<path d="M19.2416 10.0076C19.6425 10.0076 19.9676 9.68145 19.9676 9.2791C19.9676 8.87675 19.6425 8.55058 19.2416 8.55058C18.8407 8.55058 18.5156 8.87675 18.5156 9.2791C18.5156 9.68145 18.8407 10.0076 19.2416 10.0076Z" fill="#D9D9D9"/>
<path fill-rule="evenodd" clip-rule="evenodd" d="M18.7581 5.88906L19.2561 2.71142L19.754 5.88758C19.7879 5.89306 19.8216 5.89908 19.8552 5.90563L20.905 3.94142L20.4535 6.07757C20.4578 6.07924 20.4621 6.08093 20.4663 6.08262C20.4704 6.08425 20.4746 6.08588 20.4787 6.08753L21.8891 4.69343L21.0659 6.39531C21.1 6.41785 21.1338 6.44102 21.1672 6.46482L24.1233 3.97225L21.9412 7.08407L23.1291 6.53409L22.1661 7.58626C22.1817 7.61388 22.1971 7.64172 22.212 7.66978L25.3325 7.34579L22.6035 9.16152C22.6041 9.18038 22.6046 9.19926 22.6049 9.21813L24.9125 9.89891L22.62 10.1536L25.7576 12.2299L22.2179 11.2176L23.097 12.7858L21.4036 11.9242C21.3571 11.962 21.3096 11.9985 21.2611 12.0337L22.1771 14.9603L20.1417 12.9994L20.2937 14.4773L19.4761 12.812L18.8059 15.4539L18.3195 12.5908C18.2756 12.5755 18.2319 12.5592 18.1886 12.5419L16.6397 14.7515L17.0822 11.9256L14.545 13.7366L16.3575 11.1737L12.6259 12.44L15.7352 10.2203L14.0357 10.1485L15.9307 9.64799C15.9287 9.62243 15.9269 9.59684 15.9255 9.57123L13.2805 8.35891L16.135 8.06267L16.1359 8.05985L14.86 7.49047L16.2811 7.7237C16.2983 7.68987 16.3162 7.65633 16.3345 7.62311L14.0733 5.88697L17.002 6.75099C17.0046 6.74827 17.0073 6.74555 17.0099 6.74285C17.0114 6.7413 17.0129 6.73975 17.0144 6.73821C17.0165 6.73601 17.0187 6.73381 17.0208 6.73161C17.0236 6.72877 17.0264 6.72594 17.0292 6.72311L16.3151 4.97198L17.655 6.25898L17.2741 3.82634L18.7151 5.89864C18.7294 5.89535 18.7437 5.89216 18.7581 5.88906ZM20.7256 9.27911C20.7256 10.1016 20.0612 10.7683 19.2416 10.7683C18.422 10.7683 17.7576 10.1016 17.7576 9.27911C17.7576 8.45663 18.422 7.78987 19.2416 7.78987C20.0612 7.78987 20.7256 8.45663 20.7256 9.27911Z" fill="#D9D9D9"/>
</svg>
