<svg width="71" height="17" viewBox="0 0 71 17" fill="none" xmlns="http://www.w3.org/2000/svg">
<path d="M62.9585 4.50522L69.1549 2.08496L67.2156 4.22382L70.6687 5.84937L66.9305 6.1433L69.8762 8.3789L62.9585 5.96207L63.3369 5.48701L62.9585 5.29699L63.2419 4.8536L62.9585 4.50522Z" fill="#D9D9D9"/>
<path fill-rule="evenodd" clip-rule="evenodd" d="M19.7537 1.06C19.7537 0.731595 18.5465 0.760981 18.2696 0.974472L17.997 1.25427V2.02629H18.1252V2.22233L17.6778 2.27073L17.3232 3.60287H21.1366V3.55139H26.5596V3.60287H28.0453V3.28524C28.0453 3.28524 28.032 3.27758 28.0071 3.26539V2.25488C28.0071 2.16302 27.9002 1.98478 27.7472 1.8563C27.5943 1.72781 27.4347 1.66945 27.2821 1.65306L19.7537 1.06ZM26.8997 3.15535C27.0142 3.12557 27.1517 3.10246 27.3025 3.10246C27.3262 3.10246 27.3497 3.10303 27.3727 3.10411V2.28534C27.3727 2.22197 27.2381 1.98478 27.0589 1.98478L20.8233 2.07294C20.6787 2.07294 20.4936 2.23815 20.4936 2.39259L20.4936 2.77626C20.5737 2.78489 20.7078 2.84391 20.8701 2.94352C21.0155 3.03278 21.1274 3.11747 21.162 3.15535L26.8997 3.15535Z" fill="#D9D9D9"/>
<path fill-rule="evenodd" clip-rule="evenodd" d="M48.7494 4.46479V3.5377L50.3007 1.4609C50.4212 1.31712 50.5987 1.19833 50.7661 1.20882C51.0375 1.22582 51.2968 1.44362 51.3094 1.5931L51.3979 4.46479H48.7494ZM50.051 2.35344C50.085 2.30313 50.1417 2.27299 50.2024 2.27299H50.4659V2.95262C50.4659 3.00309 50.5068 3.04401 50.5573 3.04401H50.9882V3.7514C50.9882 3.90283 50.8655 4.02558 50.7141 4.02558H49.208C49.0859 4.02558 49.0134 3.88915 49.0817 3.78799L50.051 2.35344Z" fill="#D9D9D9"/>
<path d="M48.7494 5.81677V4.68958H59.5417V5.81677H48.7494Z" fill="#D9D9D9"/>
<path fill-rule="evenodd" clip-rule="evenodd" d="M48.5246 6.25875H48.159V6.54207H48.5246V6.67916L48.3412 6.67916V6.87718H48.067V6.67916H47.7104V6.87718H47.4362V6.67916H47.0796V6.87718H46.8055V6.67916H46.4489V6.87718H46.1747V6.67916H45.8181V6.87718H45.5439V6.67916H45.1873V6.87718H44.9131V6.67916H44.5565V6.87718H44.2823V6.67916H43.9257V6.87718H43.6515V6.67916H43.2949V6.87718H43.0207V6.67916H42.6641V6.87718H42.3899V6.67916H42.0333V6.87718H41.7591V6.67916H41.4025V6.87718H41.1284V6.67916H40.7717V6.87718H40.4976V6.67916H40.141V6.87718H39.8668V6.67916L39.7964 6.67916V7.21229H39.7043V7.23685C39.7043 7.30416 39.6497 7.35871 39.5824 7.35871C39.5151 7.35871 39.4606 7.30416 39.4606 7.23685V7.21229H38.8708V7.23685C38.8708 7.30416 38.8162 7.35871 38.7489 7.35871C38.6816 7.35871 38.627 7.30416 38.627 7.23685V7.21229H38.0373V7.23685C38.0373 7.30416 37.9827 7.35871 37.9154 7.35871C37.8481 7.35871 37.7936 7.30416 37.7936 7.23685V7.21229H37.2038V7.23685C37.2038 7.30416 37.1492 7.35871 37.0819 7.35871C37.0146 7.35871 36.9601 7.30416 36.9601 7.23685V7.21229H36.3703V7.23685C36.3703 7.30416 36.3158 7.35871 36.2485 7.35871C36.1812 7.35871 36.1266 7.30416 36.1266 7.23685V7.21229H35.5368V7.23685C35.5368 7.30416 35.4823 7.35871 35.415 7.35871C35.3477 7.35871 35.2931 7.30416 35.2931 7.23685V7.21229H34.7034V7.23685C34.7034 7.30416 34.6488 7.35871 34.5815 7.35871C34.5142 7.35871 34.4596 7.30416 34.4596 7.23685V7.21229H33.8699V7.23685C33.8699 7.30416 33.8153 7.35871 33.748 7.35871C33.6807 7.35871 33.6262 7.30416 33.6262 7.23685V7.21229H33.0364V7.23685C33.0364 7.30416 32.9818 7.35871 32.9145 7.35871C32.8473 7.35871 32.7927 7.30416 32.7927 7.23685V7.21229H32.2029V7.23685C32.2029 7.30416 32.1484 7.35871 32.0811 7.35871C32.0138 7.35871 31.9592 7.30416 31.9592 7.23685V7.21229H31.3694V7.23685C31.3694 7.30416 31.3149 7.35871 31.2476 7.35871C31.1803 7.35871 31.1257 7.30416 31.1257 7.23685V7.21229H30.536V7.23685C30.536 7.30416 30.4814 7.35871 30.4141 7.35871C30.3468 7.35871 30.2922 7.30416 30.2922 7.23685V7.21229H29.5908L29.5908 6.70053L29.5452 6.69403V3.89163H29.5908V3.31282H29.7742V3.1148H30.0483V3.31282H30.4049V3.1148H30.6791V3.31282H31.0357V3.1148H31.3099V3.31282H31.6665V3.1148H31.9407V3.31282H32.2973V3.1148H32.5715V3.31282H32.9281V3.1148H33.2023V3.31282H33.5589V3.1148H33.8331V3.31282H34.1897V3.1148H34.4639V3.31282H34.8205V3.1148H35.0947V3.31282H35.4513V3.1148H35.7254V3.31282H36.082V3.1148H36.3562V3.31282H36.7128V3.1148H36.987V3.31282H37.3436V3.1148H37.6178V3.31282H37.9744V3.1148H38.2486V3.31282H38.6052V3.1148H38.8794V3.31282H39.236V3.1148H39.5102V3.31282H39.8668V3.1148H40.141V3.31282H40.4976V3.1148H40.7717V3.31282H41.1284V3.1148H41.4025V3.31282H41.7591V3.1148H42.0333V3.31282H42.3899V3.1148H42.6641V3.31282H43.0207V3.1148H43.2949V3.31282H43.6515V3.1148H43.9257V3.31282H44.2823V3.1148H44.5565V3.31282H44.9131V3.1148H45.1873V3.31282H45.5439V3.1148H45.8181V3.31282H46.1747V3.1148H46.4489V3.31282H46.8055V3.1148H47.0796V3.31282H47.4362V3.1148H47.7104V3.31282H48.067V3.1148H48.3412V3.31282L48.5246 3.31282V3.4956L48.159 3.4956V3.76978H48.5246V4.46479H48.5238L48.5246 6.25875ZM45.9352 4.6402C46.0899 4.48545 46.2519 4.43193 46.3455 4.41342H45.6567V4.7839H45.827C45.8563 4.73214 45.8919 4.68347 45.9352 4.6402ZM44.6881 4.1697C44.6784 3.98252 44.4709 3.83297 44.2162 3.83297C43.9616 3.83297 43.754 3.98252 43.7444 4.1697H44.6881ZM43.5913 4.1697C43.5817 3.98252 43.3741 3.83297 43.1195 3.83297C42.8648 3.83297 42.6573 3.98252 42.6476 4.1697H43.5913ZM42.1397 4.1697C42.1301 3.98252 41.9226 3.83297 41.6679 3.83297C41.4132 3.83297 41.2057 3.98252 41.196 4.1697H42.1397ZM40.4783 3.83297C40.733 3.83297 40.9405 3.98252 40.9502 4.1697H40.0064C40.0161 3.98252 40.2237 3.83297 40.4783 3.83297ZM39.7043 6.04407C39.7043 6.14013 39.8068 6.22267 39.9533 6.25875H40.2843C40.4308 6.22267 40.5333 6.14013 40.5333 6.04407C40.5333 5.91479 40.3477 5.80999 40.1188 5.80999C39.8899 5.80999 39.7043 5.91479 39.7043 6.04407ZM40.9005 6.04407C40.9005 6.14013 41.003 6.22267 41.1495 6.25875H41.4805C41.627 6.22267 41.7295 6.14013 41.7295 6.04407C41.7295 5.91479 41.5439 5.80999 41.315 5.80999C41.0861 5.80999 40.9005 5.91479 40.9005 6.04407ZM42.0967 6.04407C42.0967 6.14013 42.1992 6.22267 42.3457 6.25875H42.6767C42.8232 6.22267 42.9257 6.14013 42.9257 6.04407C42.9257 5.91479 42.7401 5.80999 42.5112 5.80999C42.2823 5.80999 42.0967 5.91479 42.0967 6.04407ZM43.2929 6.04407C43.2929 6.14013 43.3954 6.22267 43.5419 6.25875H43.8729C44.0194 6.22267 44.1219 6.14013 44.1219 6.04407C44.1219 5.91479 43.9363 5.80999 43.7074 5.80999C43.4785 5.80999 43.2929 5.91479 43.2929 6.04407ZM44.4891 6.04407C44.4891 6.14013 44.5916 6.22267 44.7381 6.25875H45.0691C45.2156 6.22267 45.3181 6.14013 45.3181 6.04407C45.3181 5.91479 45.1325 5.80999 44.9036 5.80999C44.6747 5.80999 44.4891 5.91479 44.4891 6.04407ZM45.6853 6.04407C45.6853 6.14013 45.7878 6.22267 45.9343 6.25875H46.2653C46.4118 6.22267 46.5143 6.14013 46.5143 6.04407C46.5143 5.91479 46.3287 5.80999 46.0998 5.80999C45.8709 5.80999 45.6853 5.91479 45.6853 6.04407ZM46.8815 6.04407C46.8815 6.14013 46.9839 6.22267 47.1305 6.25875H47.4615C47.608 6.22267 47.7104 6.14013 47.7104 6.04407C47.7104 5.91479 47.5249 5.80999 47.296 5.80999C47.0671 5.80999 46.8815 5.91479 46.8815 6.04407Z" fill="#D9D9D9"/>
<path d="M48.7494 6.04155H49.164L49.1641 6.57962C49.1641 6.64806 49.1295 6.70842 49.0768 6.74412V7.34939C49.0768 7.40827 49.029 7.45601 48.9701 7.45601C48.9112 7.45601 48.8635 7.40827 48.8635 7.34939V6.75023C48.8066 6.71614 48.7671 6.65378 48.7571 6.57962L48.7494 6.51266V6.04155Z" fill="#D9D9D9"/>
<path d="M50.7651 6.04155V6.27391H50.7462V6.60902C50.7462 6.66844 50.7462 6.76135 50.9543 6.76135H51.3555V6.43424C51.3638 6.46848 51.4138 6.51078 51.4589 6.51078H51.7585C51.8333 6.51078 51.9222 6.41833 51.9222 6.35303V6.15986C51.9222 6.12875 51.9103 6.09408 51.883 6.07376L51.839 6.04155H50.7651Z" fill="#D9D9D9"/>
<path fill-rule="evenodd" clip-rule="evenodd" d="M59.7665 5.95514H60.0291L60.0291 5.84852H60.1814V5.95514H60.5165V5.84852H60.6384V5.95514H61.0099C61.1113 5.93399 61.2891 5.91996 61.4914 5.91996C61.6937 5.91996 61.8715 5.93399 61.973 5.95514H62.3444V4.5233H61.973C61.8715 4.54447 61.6937 4.55849 61.4914 4.55849C61.2891 4.55849 61.1113 4.54447 61.0098 4.5233H60.6384V4.62993H60.5165L60.5165 4.5233H60.1814V4.62993H60.0291L60.0291 4.5233H59.7665V5.95514ZM61.004 4.68922C60.9577 4.68922 60.9202 4.72673 60.9202 4.77299C60.9202 4.81926 60.9577 4.85677 61.004 4.85677H61.9788C62.0251 4.85677 62.0626 4.81926 62.0626 4.77299C62.0626 4.72673 62.0251 4.68922 61.9788 4.68922H61.004ZM60.9202 5.70545C60.9202 5.65918 60.9577 5.62167 61.004 5.62167H61.9788C62.0251 5.62167 62.0626 5.65918 62.0626 5.70545C62.0626 5.75172 62.0251 5.78923 61.9788 5.78923H61.004C60.9577 5.78923 60.9202 5.75172 60.9202 5.70545ZM61.0573 5.10213C60.9816 5.10213 60.9202 5.16351 60.9202 5.23923C60.9202 5.31494 60.9816 5.37632 61.0573 5.37632H61.9255C62.0013 5.37632 62.0626 5.31494 62.0626 5.23923C62.0626 5.16351 62.0013 5.10213 61.9255 5.10213H61.0573Z" fill="#D9D9D9"/>
<path fill-rule="evenodd" clip-rule="evenodd" d="M17.1493 3.82793L28.1322 3.82766V3.89163H28.1816V4.13535H28.1322L28.1323 4.35531H28.1816V6.27458H28.1323L28.1323 6.75353C28.1323 6.9297 28.0576 6.99659 27.7672 7.19444C27.4768 7.39228 27.3921 7.50649 27.3921 7.66253V9.32569C27.3921 9.37459 27.4237 9.40514 27.4658 9.4201C27.5295 9.40901 27.5904 9.45094 27.6026 9.51462C27.6147 9.57837 27.5734 9.63996 27.5101 9.65305L23.3982 10.4397C23.3597 10.4465 23.3222 10.4339 23.2958 10.4088C23.2661 10.4349 23.2271 10.4568 23.1811 10.4652C23.072 10.485 22.9985 10.464 22.9299 10.4071H20.559C20.5256 10.4643 20.47 10.4971 20.4279 10.4971H19.8832C19.8941 10.464 19.9008 10.4275 19.9008 10.3883V8.73363C19.9008 8.63929 19.8618 8.55752 19.7982 8.49961C19.7423 8.44862 19.6778 8.4253 19.6321 8.4134C19.5472 8.39127 19.454 8.3914 19.4093 8.39146L17.4523 8.39147C17.3453 8.12415 17.1581 7.94748 16.9745 7.82708C16.7857 7.70324 16.5843 7.68991 16.2731 7.7036V4.47552L16.4382 4.45839C16.404 4.42058 16.3832 4.37047 16.3832 4.31551V4.04133C16.3832 3.92356 16.4787 3.82808 16.5965 3.82808H17.0514L17.1493 3.84878V3.82793ZM22.4273 8.53745C22.3771 8.5362 22.3082 8.53556 22.3082 8.53556H21.499C21.2022 8.84735 21.0628 9.04748 21.0718 9.375C21.0802 9.68049 21.1316 9.75895 21.301 10.0167C21.3264 10.0556 21.3207 10.083 21.2951 10.1052C21.2694 10.1273 21.2334 10.1273 21.21 10.1018C20.9281 9.79407 20.8192 9.62228 20.776 9.34952C20.7331 9.0788 20.717 8.83726 20.8841 8.53717C20.6939 8.54859 20.5199 8.62025 20.3809 8.73333C20.182 8.89522 20.0549 9.14201 20.0549 9.41849C20.0549 9.77305 20.2639 10.0788 20.5654 10.2193C20.5757 10.224 20.5832 10.2314 20.5882 10.2413H22.8422C22.838 10.19 22.8498 10.1119 22.8835 10.0883C23.0869 9.94572 23.1911 9.68635 23.1911 9.41849C23.1911 9.04568 22.9601 8.72684 22.6333 8.59736C22.5682 8.57155 22.499 8.54717 22.4273 8.53745Z" fill="#D9D9D9"/>
<path d="M28.4064 3.59319L29.3204 3.76168V6.71675L28.4064 6.88526V3.59319Z" fill="#D9D9D9"/>
<path d="M27.4168 9.89975C27.5872 12.1632 27.8845 13.4831 28.6732 15.7552L25.2381 16.8135L24.8929 16.6999C24.1227 14.3426 23.8071 12.9762 23.611 10.6278L27.4168 9.89975Z" fill="#D9D9D9"/>
<path d="M17.518 8.61625C17.518 9.10172 17.4467 9.3223 17.397 9.40095L14.5783 13.5919C14.496 13.7119 14.5206 13.8573 14.6403 13.8984L17.1764 14.5385C17.2639 14.5635 17.5054 14.5499 17.645 14.516C17.7927 14.48 17.9138 14.4068 17.9578 14.2689C18.0012 14.1327 17.9412 14.0628 17.8793 13.9906C17.8594 13.9674 17.8394 13.9439 17.8224 13.918C17.7883 13.8657 17.7635 13.7637 17.8224 13.6511L18.6576 12.1567C18.6576 12.1567 18.6628 12.1486 18.6727 12.1363C18.7022 12.0994 18.774 12.0246 18.8756 12.0176C18.937 12.0133 18.9924 12.0139 19.0418 12.0149C19.0489 12.015 19.0558 12.0152 19.0626 12.0153C19.1879 12.0182 19.2713 12.02 19.3102 11.9426C19.3662 11.8316 19.2637 11.6816 19.1636 11.5552C19.1377 11.5224 19.1431 11.3564 19.1636 11.3112L19.4131 10.7253C19.4452 10.6494 19.4753 10.588 19.5446 10.5568C19.6137 10.5257 19.6758 10.4562 19.676 10.3886V8.73363C19.676 8.61625 19.4988 8.61625 19.4029 8.61625L17.518 8.61625Z" fill="#D9D9D9"/>
<path d="M16.0483 7.71581V4.49885L0.739494 4.38389C0.538427 4.38389 0.248809 4.62947 0.166524 4.83168C0.154769 4.86057 0.147245 4.88858 0.144815 4.91485C-0.0968326 7.52806 0.0164956 8.96737 0.511178 11.605C0.525624 11.682 0.782695 12.0424 1.14485 12.0862C1.36933 12.081 1.64958 12.0295 1.97381 11.9419V12.5181C1.97381 12.5812 2.02496 12.6323 2.08805 12.6323C2.15115 12.6323 2.20229 12.5812 2.20229 12.5181V11.8767C2.73352 11.7181 3.38348 11.4795 4.15631 11.1958C5.06295 10.863 6.13888 10.468 7.39035 10.0674L12.3261 8.45357C13.7632 8.01974 14.5766 7.84658 16.0483 7.71581Z" fill="#D9D9D9"/>
</svg>
