<svg xmlns="http://www.w3.org/2000/svg" width="525" height="582.155" fill="none"><path fill="#3a4f3f" d="M122.432 425.39c66.512 0 120.432-53.736 120.432-120.023s-53.92-120.024-120.432-120.024C55.919 185.343 2 239.08 2 305.367S55.92 425.39 122.432 425.39" opacity=".95" style="stroke-width:1;fill:#592148;fill-opacity:.9;font-variation-settings:normal;opacity:.9;vector-effect:none;stroke-linecap:butt;stroke-linejoin:miter;stroke-miterlimit:4;stroke-dasharray:none;stroke-dashoffset:0;stroke-opacity:1;-inkscape-stroke:none;stop-color:#000;stop-opacity:1"/><path fill="#3a4f3f" d="M258.02 253.173c70.15 0 127.016-56.676 127.016-126.587S328.17 0 258.02 0 131.004 56.675 131.004 126.586s56.867 126.587 127.016 126.587m11.379 328.982c66.513 0 120.432-53.736 120.432-120.023s-53.92-120.024-120.432-120.024c-66.513 0-120.432 53.736-120.432 120.024 0 66.287 53.92 120.023 120.432 120.023" opacity=".95" style="stroke-width:1;fill:#592148;fill-opacity:.9;font-variation-settings:normal;opacity:.9;vector-effect:none;stroke-linecap:butt;stroke-linejoin:miter;stroke-miterlimit:4;stroke-dasharray:none;stroke-dashoffset:0;stroke-opacity:1;-inkscape-stroke:none;stop-color:#000;stop-opacity:1"/><path fill="#3a4f3f" d="M406.568 392.73C473.081 392.73 527 338.994 527 272.707s-53.919-120.024-120.432-120.024-120.432 53.737-120.432 120.024 53.92 120.023 120.432 120.023" opacity=".95" style="stroke-width:1;fill:#592148;fill-opacity:.9;font-variation-settings:normal;opacity:.9;vector-effect:none;stroke-linecap:butt;stroke-linejoin:miter;stroke-miterlimit:4;stroke-dasharray:none;stroke-dashoffset:0;stroke-opacity:1;-inkscape-stroke:none;stop-color:#000;stop-opacity:1"/><path fill="#485e52" d="M148.56 263.724c45.769 0 82.871-36.92 82.871-82.465 0-45.544-37.102-82.465-82.872-82.465s-82.873 36.921-82.873 82.465 37.104 82.465 82.873 82.465zm115.123 303.732c45.77 0 82.873-36.92 82.873-82.464s-37.104-82.466-82.873-82.466-82.874 36.922-82.874 82.466 37.104 82.464 82.874 82.464m153.5-208.203c45.77 0 82.873-36.92 82.873-82.465 0-45.543-37.103-82.465-82.873-82.465s-82.873 36.922-82.873 82.465 37.104 82.465 82.873 82.465M278.382 137.854c30.888 0 55.928-24.858 55.928-55.522s-25.04-55.521-55.928-55.521c-30.89 0-55.931 24.858-55.931 55.521 0 30.664 25.04 55.522 55.93 55.522zM84.873 432.736c45.77 0 82.873-36.92 82.873-82.464 0-45.546-37.103-82.466-82.873-82.466S2 304.726 2 350.272c0 45.544 37.104 82.464 82.873 82.464" opacity=".85" style="stroke-width:1;fill:#722d63;fill-opacity:.8;opacity:.8;font-variation-settings:normal;vector-effect:none;stroke-linecap:butt;stroke-linejoin:miter;stroke-miterlimit:4;stroke-dasharray:none;stroke-dashoffset:0;stroke-opacity:1;-inkscape-stroke:none;stop-color:#000;stop-opacity:1"/><path fill="#77a37a" d="M12.31 413.159c15.837 2.817 50.094-4.59 40.026-23.564-11.703-18.013-34.807 8.342-40.031 23.556l-.008.004z" style="stroke-width:1;fill:#893881;fill-opacity:.9;font-variation-settings:normal;opacity:1;vector-effect:none;stroke-linecap:butt;stroke-linejoin:miter;stroke-miterlimit:4;stroke-dasharray:none;stroke-dashoffset:0;stroke-opacity:1;-inkscape-stroke:none;stop-color:#000;stop-opacity:1"/><path fill="#5f926a" d="m37.195 448.088.004-.015c17.209-11.96 41.957-50.26 15.138-58.478-27.439-5.831-24.391 39.665-15.15 58.474l-.005.015.007-.006.005.01z" style="stroke-width:1;fill:#9b3e8e;fill-opacity:.9;font-variation-settings:normal;opacity:1;vector-effect:none;stroke-linecap:butt;stroke-linejoin:miter;stroke-miterlimit:4;stroke-dasharray:none;stroke-dashoffset:0;stroke-opacity:1;-inkscape-stroke:none;stop-color:#000;stop-opacity:1"/><path fill="#5f926a" d="M307.432 472.74c-3.745 15.644-24.227 44.084-37.598 27.273-11.832-17.926 21.56-28.572 37.592-27.28l.008-.007-.002.015z" style="stroke-width:1;fill:#893881;fill-opacity:.9;font-variation-settings:normal;opacity:1;vector-effect:none;stroke-linecap:butt;stroke-linejoin:miter;stroke-miterlimit:4;stroke-dasharray:none;stroke-dashoffset:0;stroke-opacity:1;-inkscape-stroke:none;stop-color:#000;stop-opacity:1"/><path fill="#587e60" d="m291.444 556.437-.006-.013c-18.442-9.954-47.33-45.233-21.604-56.411 26.612-8.874 28.69 36.68 21.616 56.405l.006.015-.008-.004q0 .005-.004.008" style="stroke-width:1;fill:#9b3e8e;fill-opacity:.9;font-variation-settings:normal;opacity:1;vector-effect:none;stroke-linecap:butt;stroke-linejoin:miter;stroke-miterlimit:4;stroke-dasharray:none;stroke-dashoffset:0;stroke-opacity:1;-inkscape-stroke:none;stop-color:#000;stop-opacity:1"/><path fill="#77a37a" d="m246.362 528.953.006-.008c-.645-13.14 9.001-39.682 23.466-28.932 13.506 11.931-10.47 26.854-23.46 28.938 0 0-.008 0-.012.002" style="stroke-width:1;fill:#893881;fill-opacity:.9;font-variation-settings:normal;opacity:1;vector-effect:none;stroke-linecap:butt;stroke-linejoin:miter;stroke-miterlimit:4;stroke-dasharray:none;stroke-dashoffset:0;stroke-opacity:1;-inkscape-stroke:none;stop-color:#000;stop-opacity:1"/><path fill="#5f926a" d="m204.335 35.948-.002.008c-13.266 9.094-32.498 38.396-12.015 44.866 20.973 4.638 18.968-30.353 12.026-44.863l-.008-.01z" style="stroke-width:1;fill:#893881;fill-opacity:.9;font-variation-settings:normal;opacity:1;vector-effect:none;stroke-linecap:butt;stroke-linejoin:miter;stroke-miterlimit:4;stroke-dasharray:none;stroke-dashoffset:0;stroke-opacity:1;-inkscape-stroke:none;stop-color:#000;stop-opacity:1"/><path fill="#587e60" d="m162.101 28.5.007.014c-3.885 20.593 5.322 65.253 30.209 52.31 23.652-15.08-10.421-45.385-30.198-52.316l-.007-.014v.01l-.01-.004z" style="stroke-width:1;fill:#9b3e8e;fill-opacity:.9;font-variation-settings:normal;opacity:1;vector-effect:none;stroke-linecap:butt;stroke-linejoin:miter;stroke-miterlimit:4;stroke-dasharray:none;stroke-dashoffset:0;stroke-opacity:1;-inkscape-stroke:none;stop-color:#000;stop-opacity:1"/><path fill="#77a37a" d="m156.326 90.472.008-.003c11.738 5.943 39.907 7.943 35.982-9.645-5.395-17.195-28.79-1.377-35.984 9.637z" style="stroke-width:1;fill:#893881;fill-opacity:.9;font-variation-settings:normal;opacity:1;vector-effect:none;stroke-linecap:butt;stroke-linejoin:miter;stroke-miterlimit:4;stroke-dasharray:none;stroke-dashoffset:0;stroke-opacity:1;-inkscape-stroke:none;stop-color:#000;stop-opacity:1"/><path fill="#5f926a" d="M212.493 262.24c7.328 14.32 10.266 49.245-10.826 45.17-20.648-5.924-2.204-35.726 10.815-45.173l.002-.006c.002.002.006.008.008.008z" style="stroke-width:1;fill:#893881;fill-opacity:.9;font-variation-settings:normal;opacity:1;vector-effect:none;stroke-linecap:butt;stroke-linejoin:miter;stroke-miterlimit:4;stroke-dasharray:none;stroke-dashoffset:0;stroke-opacity:1;-inkscape-stroke:none;stop-color:#000;stop-opacity:1"/><path fill="#77a37a" d="m228.705 333.05-.006-.006c-13.15-.372-38.867-12.044-27.032-25.632 12.94-12.543 25.964 12.514 27.038 25.626z" style="stroke-width:1;fill:#893881;fill-opacity:.9;font-variation-settings:normal;opacity:1;vector-effect:none;stroke-linecap:butt;stroke-linejoin:miter;stroke-miterlimit:4;stroke-dasharray:none;stroke-dashoffset:0;stroke-opacity:1;-inkscape-stroke:none;stop-color:#000;stop-opacity:1"/><path fill="#587e60" d="m253.173 275.821-.017.006c-6.402 19.955-35.787 54.825-51.492 31.585-13.602-24.534 30.796-34.93 51.486-31.595l.014-.008-.002.008q.006 0 .01.004z" style="stroke-width:1;fill:#9b3e8e;fill-opacity:.9;font-variation-settings:normal;opacity:1;vector-effect:none;stroke-linecap:butt;stroke-linejoin:miter;stroke-miterlimit:4;stroke-dasharray:none;stroke-dashoffset:0;stroke-opacity:1;-inkscape-stroke:none;stop-color:#000;stop-opacity:1"/><path fill="#5f926a" d="M513.86 286.492c-9.096-13.268-38.397-32.5-44.867-12.018-4.638 20.974 30.353 18.97 44.865 12.028l.006.002z" style="stroke-width:1;fill:#893881;fill-opacity:.9;font-variation-settings:normal;opacity:1;vector-effect:none;stroke-linecap:butt;stroke-linejoin:miter;stroke-miterlimit:4;stroke-dasharray:none;stroke-dashoffset:0;stroke-opacity:1;-inkscape-stroke:none;stop-color:#000;stop-opacity:1"/><path fill="#587e60" d="m499.198 222.145-.008.014c-19.777 6.93-53.851 37.235-30.198 52.315 24.886 12.944 34.093-31.717 30.208-52.309l.008-.014-.008.004z" style="stroke-width:1;fill:#9b3e8e;fill-opacity:.9;font-variation-settings:normal;opacity:1;vector-effect:none;stroke-linecap:butt;stroke-linejoin:miter;stroke-miterlimit:4;stroke-dasharray:none;stroke-dashoffset:0;stroke-opacity:1;-inkscape-stroke:none;stop-color:#000;stop-opacity:1"/><path fill="#77a37a" d="m459.343 238.484.002.008c-5.942 11.736-7.941 39.906 9.646 35.982 17.196-5.396 1.378-28.792-9.637-35.986l-.002-.006q.001-.002 0 0c-.002-.002-.006.004-.008.002z" style="stroke-width:1;fill:#893881;fill-opacity:.9;font-variation-settings:normal;opacity:1;vector-effect:none;stroke-linecap:butt;stroke-linejoin:miter;stroke-miterlimit:4;stroke-dasharray:none;stroke-dashoffset:0;stroke-opacity:1;-inkscape-stroke:none;stop-color:#000;stop-opacity:1"/></svg>