<?xml version="1.0" encoding="UTF-8" standalone="no"?>
<svg height="124.41629" viewBox="0 0 64.240943 32.918478" width="242.80042" version="1.1" id="svg11" sodipodi:docname="porta_potty_toilet_open.svg" inkscape:version="1.3.1 (91b66b0783, 2023-11-16, custom)" xmlns:inkscape="http://www.inkscape.org/namespaces/inkscape" xmlns:sodipodi="http://sodipodi.sourceforge.net/DTD/sodipodi-0.dtd" xmlns="http://www.w3.org/2000/svg" xmlns:svg="http://www.w3.org/2000/svg">
  <sodipodi:namedview id="namedview1" pagecolor="#ffffff" bordercolor="#000000" borderopacity="0.25" inkscape:showpageshadow="2" inkscape:pageopacity="0.0" inkscape:pagecheckerboard="0" inkscape:deskcolor="#d1d1d1" inkscape:document-units="mm" inkscape:zoom="2.9042696" inkscape:cx="129.63673" inkscape:cy="66.626046" inkscape:window-width="1440" inkscape:window-height="840" inkscape:window-x="0" inkscape:window-y="0" inkscape:window-maximized="1" inkscape:current-layer="svg11" />
  <defs id="defs11" />
  <g id="g1" transform="scale(0.93646466)">
    <path id="path2" style="fill:#5e5e5e;stroke:#3f3f3f;stroke-width:2.11667;stroke-linecap:round;stroke-linejoin:round;stroke-miterlimit:10;stroke-dasharray:none;stroke-opacity:1" d="M 1.0583349,1.0583349 V 22.212083 H 31.613576 c 1.465535,6.86259 6.142564,11.881445 11.686109,11.881445 5.543653,0 10.220672,-5.018647 11.686108,-11.881445 H 67.541099 V 1.0583349 Z" />
    <path d="m 34.459474,17.765175 c 0,-7.099942 3.957864,-12.8555768 8.840137,-12.8555768 4.882272,0 8.840137,5.7556388 8.840137,12.8555768 0,7.099942 -3.957865,12.85558 -8.840137,12.85558 -4.882273,0 -8.840137,-5.755638 -8.840137,-12.85558 z" stroke="#14192b" stroke-linejoin="round" stroke-width="2.20248" id="path6" style="fill:#364676;fill-opacity:1;stroke:#3f3f3f;stroke-width:1.5875;stroke-miterlimit:10;stroke-dasharray:none;stroke-opacity:1" />
    <path d="M 1.0583349,1.0583349 H 16.11669 c 0.705712,0 1.433275,0.1167476 1.44941,1.2906414 0.01613,1.1738948 -0.67898,3.517 -1.983811,5.4467688 -1.30483,1.9297688 -3.219122,3.4454519 -5.566915,4.3534609 -2.3477948,0.908008 -7.5551432,1.262685 -8.9570391,1.08076 z" fill="#757575" stroke="#3f3f3f" stroke-linecap="round" stroke-linejoin="round" stroke-width="2.06604" id="path7" style="stroke-miterlimit:10" />
    <path d="m 3.8530244,6.2156993 c 0,-1.7594836 1.4263453,-3.1858289 3.1858289,-3.1858289 1.7594842,0 3.1858287,1.4263453 3.1858287,3.1858289 0,1.7594836 -1.4263445,3.1858289 -3.1858287,3.1858289 -1.7594836,0 -3.1858289,-1.4263453 -3.1858289,-3.1858289 z" fill="#222222" stroke="#3f3f3f" stroke-linecap="round" stroke-linejoin="round" stroke-width="1.26591" id="path8" style="stroke-miterlimit:10" />
    <path d="M 34.034017,6.7294133 V 3.5166386 h 4.724672 v 3.2127747 z" fill="#424242" stroke="#000" stroke-width="1.10271" id="path9" style="stroke:#0f0f0f;stroke-miterlimit:10;stroke-opacity:1" />
    <path d="M 48.019044,6.8554048 V 3.6426257 h 4.724673 v 3.2127791 z" fill="#424242" stroke="#000" stroke-width="1.10271" id="path10" style="stroke:#0f0f0f;stroke-miterlimit:10;stroke-opacity:1" />
    <path d="m 34.002867,4.6348684 c 0,0 0,-1.0983413 0,-1.5986728 0,-0.442717 0.567641,-1.2516757 1.20343,-1.2516757 h 16.45617 c 0.687105,0 1.091478,0.731266 1.091478,1.152533 v 1.6978155 z" fill="#1e1e1e" stroke="#000" stroke-width="2.20248" id="path11" style="stroke:#0e0e0e;stroke-width:2.11667;stroke-miterlimit:10;stroke-dasharray:none;stroke-opacity:1" />
    <path d="m 38.902466,13.971507 c 0,-3.599454 1.968669,-6.5173856 4.397145,-6.5173856 2.428476,0 4.397145,2.9179336 4.397145,6.5173856 0,3.599454 -1.968669,6.517388 -4.397145,6.517388 -2.428476,0 -4.397145,-2.917934 -4.397145,-6.517388 z" fill="url(#a)" stroke="#14192b" stroke-linejoin="round" stroke-width="2.20248" id="path12" style="fill:#2e3d67;fill-opacity:1;stroke:none;stroke-miterlimit:10;stroke-opacity:1" />
  </g>
</svg>
