<svg xmlns="http://www.w3.org/2000/svg" xml:space="preserve" width="200" height="200.026" viewBox="0 0 52.917 52.924"><path d="M9.772 10.196h33.152v33.152H9.772z" style="fill:#d96300;fill-opacity:1;stroke:none;stroke-width:1.5658;stroke-linecap:butt;stroke-linejoin:miter;stroke-miterlimit:4;stroke-dasharray:none;stroke-opacity:1" transform="matrix(1.08108 0 0 1.08123 -2.082 -2.54)"/><path d="M2.906 3.33v46.986h46.986V3.33Zm7.927 7.927h31.132V42.39h-31.13z" style="fill:#404040;fill-opacity:1;stroke-width:0;stroke-linecap:round" transform="matrix(1.08108 0 0 1.08123 -2.082 -2.54)"/><path d="M9.772 10.196h33.152v33.152H9.772z" style="fill:none;fill-opacity:1;stroke:none;stroke-width:1.96165;stroke-linecap:butt;stroke-linejoin:bevel;stroke-miterlimit:4;stroke-dasharray:none;stroke-opacity:1" transform="matrix(1.08108 0 0 1.08123 -2.082 -2.54)"/><path d="M10.833 11.257h31.132V42.39H10.833z" style="fill:#2e2e2e;fill-opacity:1;stroke:#1a1a1a;stroke-width:1.96165;stroke-linecap:butt;stroke-linejoin:miter;stroke-miterlimit:4;stroke-dasharray:none;stroke-opacity:1" transform="matrix(1.08108 0 0 1.08123 -2.082 -2.54)"/><path d="M2.906 3.33h46.986v46.986H2.906z" style="fill:none;fill-opacity:1;stroke:#1a1a1a;stroke-width:1.96165;stroke-linecap:round;stroke-linejoin:round;stroke-miterlimit:4;stroke-dasharray:none;stroke-opacity:1" transform="matrix(1.08108 0 0 1.08123 -2.082 -2.54)"/><path d="M41.965 11.257h7.846M41.965 42.39h7.846m-46.824 0h7.846M2.987 11.257h7.846" style="fill:none;stroke:#1a1a1a;stroke-width:1.96165;stroke-linecap:butt;stroke-linejoin:miter;stroke-miterlimit:4;stroke-dasharray:none;stroke-opacity:1" transform="matrix(1.08108 0 0 1.08123 -2.082 -2.54)"/><path d="M35.849 17.81c-1.248 16.41-5.452 17.844-9.444 20.502-3.994-2.59-8.2-4.07-9.455-20.477 3.3-.22 6.639-.36 9.449-2.501 2.811 2.087 6.15 2.265 9.45 2.476z" style="fill:#323232;fill-opacity:1;fill-rule:nonzero;stroke:#1a1a1a;stroke-width:1.65407;stroke-linejoin:round;stroke-dasharray:none;stroke-opacity:1" transform="matrix(1.08108 0 0 1.08123 -2.082 -2.54)"/><path d="M22.674 17.195v5.017l-5.65.007v1.772l5.651-.007.003 12.468 1.638-.001-.003-12.469 11.461-.014v-1.772l-11.462.014v-5.017z" style="fill:#1a1a1a;fill-opacity:1;fill-rule:nonzero;stroke:none;stroke-width:1.79615e-08;stroke-linejoin:round;stroke-dasharray:none;stroke-opacity:1" transform="matrix(1.08108 0 0 1.08123 -2.082 -2.54)"/><path d="M40.396-6.074c-.239.138-1.475.902-1.751.902s-1.512-.764-1.751-.902-1.519-.827-1.657-1.066c-.137-.238-.094-1.691-.094-1.967s-.044-1.729.094-1.967c.138-.24 1.418-.928 1.657-1.066s1.475-.902 1.751-.902 1.512.764 1.751.902 1.519.827 1.657 1.066c.137.238.094 1.691.094 1.967s.044 1.729-.094 1.967c-.138.24-1.418.928-1.657 1.066" style="fill:#666;fill-opacity:1;fill-rule:evenodd;stroke:#1a1a1a;stroke-width:2.23759;stroke-linecap:round;stroke-linejoin:round;stroke-miterlimit:29;stroke-dasharray:none;stroke-opacity:1" transform="matrix(.5015 .28957 -.28954 .50156 -16.684 -1.332)"/><path d="M40.396-6.074c-.239.138-1.475.902-1.751.902s-1.512-.764-1.751-.902-1.519-.827-1.657-1.066c-.137-.238-.094-1.691-.094-1.967s-.044-1.729.094-1.967c.138-.24 1.418-.928 1.657-1.066s1.475-.902 1.751-.902 1.512.764 1.751.902 1.519.827 1.657 1.066c.137.238.094 1.691.094 1.967s.044 1.729-.094 1.967c-.138.24-1.418.928-1.657 1.066" style="fill:#666;fill-opacity:1;fill-rule:evenodd;stroke:#1a1a1a;stroke-width:2.23759;stroke-linecap:round;stroke-linejoin:round;stroke-miterlimit:29;stroke-dasharray:none;stroke-opacity:1" transform="matrix(.5015 .28957 -.28954 .50156 -2.606 -1.332)"/><path d="M40.396-6.074c-.239.138-1.475.902-1.751.902s-1.512-.764-1.751-.902-1.519-.827-1.657-1.066c-.137-.238-.094-1.691-.094-1.967s-.044-1.729.094-1.967c.138-.24 1.418-.928 1.657-1.066s1.475-.902 1.751-.902 1.512.764 1.751.902 1.519.827 1.657 1.066c.137.238.094 1.691.094 1.967s.044 1.729-.094 1.967c-.138.24-1.418.928-1.657 1.066" style="fill:#666;fill-opacity:1;fill-rule:evenodd;stroke:#1a1a1a;stroke-width:2.23759;stroke-linecap:round;stroke-linejoin:round;stroke-miterlimit:29;stroke-dasharray:none;stroke-opacity:1" transform="matrix(.5015 .28957 -.28954 .50156 11.473 -1.332)"/><path d="M40.396-6.074c-.239.138-1.475.902-1.751.902s-1.512-.764-1.751-.902-1.519-.827-1.657-1.066c-.137-.238-.094-1.691-.094-1.967s-.044-1.729.094-1.967c.138-.24 1.418-.928 1.657-1.066s1.475-.902 1.751-.902 1.512.764 1.751.902 1.519.827 1.657 1.066c.137.238.094 1.691.094 1.967s.044 1.729-.094 1.967c-.138.24-1.418.928-1.657 1.066" style="fill:#666;fill-opacity:1;fill-rule:evenodd;stroke:#1a1a1a;stroke-width:2.23759;stroke-linecap:round;stroke-linejoin:round;stroke-miterlimit:29;stroke-dasharray:none;stroke-opacity:1" transform="matrix(.5015 .28957 -.28954 .50156 -2.606 41.052)"/><path d="M40.396-6.074c-.239.138-1.475.902-1.751.902s-1.512-.764-1.751-.902-1.519-.827-1.657-1.066c-.137-.238-.094-1.691-.094-1.967s-.044-1.729.094-1.967c.138-.24 1.418-.928 1.657-1.066s1.475-.902 1.751-.902 1.512.764 1.751.902 1.519.827 1.657 1.066c.137.238.094 1.691.094 1.967s.044 1.729-.094 1.967c-.138.24-1.418.928-1.657 1.066" style="fill:#666;fill-opacity:1;fill-rule:evenodd;stroke:#1a1a1a;stroke-width:2.23759;stroke-linecap:round;stroke-linejoin:round;stroke-miterlimit:29;stroke-dasharray:none;stroke-opacity:1" transform="matrix(.5015 .28957 -.28954 .50156 11.473 41.052)"/><path d="M40.396-6.074c-.239.138-1.475.902-1.751.902s-1.512-.764-1.751-.902-1.519-.827-1.657-1.066c-.137-.238-.094-1.691-.094-1.967s-.044-1.729.094-1.967c.138-.24 1.418-.928 1.657-1.066s1.475-.902 1.751-.902 1.512.764 1.751.902 1.519.827 1.657 1.066c.137.238.094 1.691.094 1.967s.044 1.729-.094 1.967c-.138.24-1.418.928-1.657 1.066" style="fill:#666;fill-opacity:1;fill-rule:evenodd;stroke:#1a1a1a;stroke-width:2.23759;stroke-linecap:round;stroke-linejoin:round;stroke-miterlimit:29;stroke-dasharray:none;stroke-opacity:1" transform="matrix(-.28954 .50156 -.5015 -.28957 54.19 -2.097)"/><path d="M40.396-6.074c-.239.138-1.475.902-1.751.902s-1.512-.764-1.751-.902-1.519-.827-1.657-1.066c-.137-.238-.094-1.691-.094-1.967s-.044-1.729.094-1.967c.138-.24 1.418-.928 1.657-1.066s1.475-.902 1.751-.902 1.512.764 1.751.902 1.519.827 1.657 1.066c.137.238.094 1.691.094 1.967s.044 1.729-.094 1.967c-.138.24-1.418.928-1.657 1.066" style="fill:#666;fill-opacity:1;fill-rule:evenodd;stroke:#1a1a1a;stroke-width:2.23759;stroke-linecap:round;stroke-linejoin:round;stroke-miterlimit:29;stroke-dasharray:none;stroke-opacity:1" transform="matrix(-.28954 .50156 -.5015 -.28957 54.19 10.98)"/><path d="M40.396-6.074c-.239.138-1.475.902-1.751.902s-1.512-.764-1.751-.902-1.519-.827-1.657-1.066c-.137-.238-.094-1.691-.094-1.967s-.044-1.729.094-1.967c.138-.24 1.418-.928 1.657-1.066s1.475-.902 1.751-.902 1.512.764 1.751.902 1.519.827 1.657 1.066c.137.238.094 1.691.094 1.967s.044 1.729-.094 1.967c-.138.24-1.418.928-1.657 1.066" style="fill:#666;fill-opacity:1;fill-rule:evenodd;stroke:#1a1a1a;stroke-width:2.23759;stroke-linecap:round;stroke-linejoin:round;stroke-miterlimit:29;stroke-dasharray:none;stroke-opacity:1" transform="matrix(-.28954 .50156 -.5015 -.28957 11.955 -2.097)"/><path d="M40.396-6.074c-.239.138-1.475.902-1.751.902s-1.512-.764-1.751-.902-1.519-.827-1.657-1.066c-.137-.238-.094-1.691-.094-1.967s-.044-1.729.094-1.967c.138-.24 1.418-.928 1.657-1.066s1.475-.902 1.751-.902 1.512.764 1.751.902 1.519.827 1.657 1.066c.137.238.094 1.691.094 1.967s.044 1.729-.094 1.967c-.138.24-1.418.928-1.657 1.066" style="fill:#666;fill-opacity:1;fill-rule:evenodd;stroke:#1a1a1a;stroke-width:2.23759;stroke-linecap:round;stroke-linejoin:round;stroke-miterlimit:29;stroke-dasharray:none;stroke-opacity:1" transform="matrix(-.28954 .50156 -.5015 -.28957 11.955 10.98)"/><path d="M40.396-6.074c-.239.138-1.475.902-1.751.902s-1.512-.764-1.751-.902-1.519-.827-1.657-1.066c-.137-.238-.094-1.691-.094-1.967s-.044-1.729.094-1.967c.138-.24 1.418-.928 1.657-1.066s1.475-.902 1.751-.902 1.512.764 1.751.902 1.519.827 1.657 1.066c.137.238.094 1.691.094 1.967s.044 1.729-.094 1.967c-.138.24-1.418.928-1.657 1.066" style="fill:#666;fill-opacity:1;fill-rule:evenodd;stroke:#1a1a1a;stroke-width:2.23759;stroke-linecap:round;stroke-linejoin:round;stroke-miterlimit:29;stroke-dasharray:none;stroke-opacity:1" transform="matrix(.5015 .28957 -.28954 .50156 25.551 -1.332)"/><path d="M40.396-6.074c-.239.138-1.475.902-1.751.902s-1.512-.764-1.751-.902-1.519-.827-1.657-1.066c-.137-.238-.094-1.691-.094-1.967s-.044-1.729.094-1.967c.138-.24 1.418-.928 1.657-1.066s1.475-.902 1.751-.902 1.512.764 1.751.902 1.519.827 1.657 1.066c.137.238.094 1.691.094 1.967s.044 1.729-.094 1.967c-.138.24-1.418.928-1.657 1.066" style="fill:#666;fill-opacity:1;fill-rule:evenodd;stroke:#1a1a1a;stroke-width:2.23759;stroke-linecap:round;stroke-linejoin:round;stroke-miterlimit:29;stroke-dasharray:none;stroke-opacity:1" transform="matrix(.5015 .28957 -.28954 .50156 -16.684 41.052)"/><path d="M40.396-6.074c-.239.138-1.475.902-1.751.902s-1.512-.764-1.751-.902-1.519-.827-1.657-1.066c-.137-.238-.094-1.691-.094-1.967s-.044-1.729.094-1.967c.138-.24 1.418-.928 1.657-1.066s1.475-.902 1.751-.902 1.512.764 1.751.902 1.519.827 1.657 1.066c.137.238.094 1.691.094 1.967s.044 1.729-.094 1.967c-.138.24-1.418.928-1.657 1.066" style="fill:#666;fill-opacity:1;fill-rule:evenodd;stroke:#1a1a1a;stroke-width:2.23759;stroke-linecap:round;stroke-linejoin:round;stroke-miterlimit:29;stroke-dasharray:none;stroke-opacity:1" transform="matrix(.5015 .28957 -.28954 .50156 25.551 41.052)"/><path d="M34.975 18.56S31.435 42.205 20.6 31.37c0 0 .918 3.336 5.777 5.933 6.782-3.633 7.523-9.729 8.598-18.741" style="fill:#000;fill-opacity:.2;fill-rule:evenodd;stroke:none;stroke-width:1.05833;stroke-linecap:round;stroke-linejoin:round;stroke-miterlimit:29;stroke-dasharray:none;stroke-opacity:1" transform="matrix(1.08108 0 0 1.08123 -2.082 -2.54)"/></svg>