<svg xmlns="http://www.w3.org/2000/svg" xmlns:xlink="http://www.w3.org/1999/xlink" width="1583.563" height="426.068" viewBox="0 0 418.984 112.731"><defs><pattern xlink:href="#a" id="c" x="0" y="0" patternTransform="matrix(1.75727 1.47897 -1.4854 1.74967 -8431.367 -3460.13)" preserveAspectRatio="xMidYMid"/><pattern id="a" width="3" height="10" x="0" y="0" patternTransform="scale(2)" patternUnits="userSpaceOnUse" preserveAspectRatio="xMidYMid" style="fill:#727272"><path d="M0 0h2v10H0z" style="stroke:none;fill:#727272"/></pattern></defs><g transform="translate(232.04 -181.769)"><path d="M-180.493-192.809h406.098v10.042h-406.098z" style="fill:#828282;fill-opacity:1;stroke:#442f25;stroke-width:1.996;stroke-dasharray:none;stroke-opacity:1" transform="scale(-1)"/><path d="M-180.493-192.809h406.098v10.042h-406.098z" style="fill:url(#c);fill-opacity:1;stroke:#423a30;stroke-width:1.996;stroke-dasharray:none;stroke-opacity:1" transform="scale(-1)"/><path d="M-179.934-250.135h83.763v19.122h-83.763z" style="fill:#5b4f43;fill-opacity:1;stroke:#423a30;stroke-width:2;stroke-dasharray:none;stroke-opacity:1" transform="scale(-1)"/><path d="M-95.835-250.135H15.494v19.122H-95.835z" style="fill:#564c41;fill-opacity:1;stroke:#423a30;stroke-width:2;stroke-dasharray:none;stroke-opacity:1" transform="scale(-1)"/><path d="M-179.934-231.013h83.763v19.122h-83.763z" style="fill:#5b4f43;fill-opacity:1;stroke:#423a30;stroke-width:2;stroke-dasharray:none;stroke-opacity:1" transform="scale(-1)"/><path d="M-130.148-231.013H15.494v19.122h-145.642z" style="fill:#564c41;fill-opacity:1;stroke:#423a30;stroke-width:2;stroke-dasharray:none;stroke-opacity:1" transform="scale(-1)"/><path d="M-41.017-231.013h193.314v19.122H-41.017zM-179.935-211.891h72.362v19.122h-72.362zM-107.573-211.891h154.9v19.122h-154.9z" style="fill:#5b4f43;fill-opacity:1;stroke:#423a30;stroke-width:2;stroke-dasharray:none;stroke-opacity:1" transform="scale(-1)"/><path d="M15.621-250.135h89.781v19.122H15.621z" style="fill:#5b4f43;fill-opacity:1;stroke:#423a30;stroke-width:2;stroke-dasharray:none;stroke-opacity:1" transform="scale(-1)"/><path d="M105.762-250.135h119.327v19.122H105.762z" style="fill:#564c41;fill-opacity:1;stroke:#423a30;stroke-width:2;stroke-dasharray:none;stroke-opacity:1" transform="scale(-1)"/><path d="M152.297-231.013h72.793v19.122h-72.793zM-179.934-268.604h83.763v19.122h-83.763z" style="fill:#5b4f43;fill-opacity:1;stroke:#423a30;stroke-width:2;stroke-dasharray:none;stroke-opacity:1" transform="scale(-1)"/><path d="M-130.148-268.604H15.494v19.122h-145.642z" style="fill:#564c41;fill-opacity:1;stroke:#423a30;stroke-width:2;stroke-dasharray:none;stroke-opacity:1" transform="scale(-1)"/><path d="M-41.017-268.604H99.594v19.122H-41.017z" style="fill:#5b4f43;fill-opacity:1;stroke:#423a30;stroke-width:2;stroke-dasharray:none;stroke-opacity:1" transform="scale(-1)"/><path d="M68.985-268.604H225.09v19.122H68.985z" style="fill:#5b4f43;fill-opacity:1;stroke:#423a30;stroke-width:2;stroke-dasharray:none;stroke-opacity:1" transform="scale(-1)"/><path d="M15.62-211.891h89.781v19.122H15.62zM105.762-211.891H225.09v19.122H105.762z" style="fill:#564c41;fill-opacity:1;stroke:#423a30;stroke-width:2;stroke-dasharray:none;stroke-opacity:1" transform="scale(-1)"/><path d="M-179.934-287.726h83.763v19.122h-83.763zM-95.834-287.726H47.328v19.122H-95.834z" style="fill:#5b4f43;fill-opacity:1;stroke:#423a30;stroke-width:2;stroke-dasharray:none;stroke-opacity:1" transform="scale(-1)"/><path d="M15.621-287.726h89.781v19.122H15.621zM105.763-287.726h119.328v19.122H105.763z" style="fill:#564c41;fill-opacity:1;stroke:#423a30;stroke-width:2;stroke-dasharray:none;stroke-opacity:1" transform="scale(-1)"/><path d="M-227.429 190.736h4.97v97.929h-4.97zM177.837 191.59h4.97v97.929h-4.97z" style="fill:#6d6d6d;fill-opacity:1;stroke:#343434;stroke-width:2;stroke-opacity:1"/><path d="M-290.211 82.005h4.97v97.929h-4.97zM-288.763-223.212h4.97v97.929h-4.97z" style="fill:#6d6d6d;fill-opacity:1;stroke:#343434;stroke-width:2;stroke-opacity:1" transform="rotate(-90)"/><circle cx="-225.266" cy="192.108" r="5.773" style="fill:#6d6d6d;fill-opacity:1;stroke:#343434;stroke-width:2;stroke-opacity:1"/><path d="M-152.263 191.18h18.225v10.553h-18.225z" style="fill:#6d6d6d;fill-opacity:1;stroke:#343434;stroke-width:2;stroke-opacity:1"/><circle cx="-143.151" cy="191.77" r="5.773" style="fill:#6d6d6d;fill-opacity:1;stroke:#343434;stroke-width:2;stroke-opacity:1"/><path d="M-63.119 191.18h18.225v10.553h-18.225z" style="fill:#6d6d6d;fill-opacity:1;stroke:#343434;stroke-width:2;stroke-opacity:1"/><circle cx="-54.006" cy="191.77" r="5.773" style="fill:#6d6d6d;fill-opacity:1;stroke:#343434;stroke-width:2;stroke-opacity:1"/><circle cx="-225.016" cy="286.279" r="5.773" style="fill:#6d6d6d;fill-opacity:1;stroke:#343434;stroke-width:2;stroke-opacity:1"/><circle cx="180.171" cy="287.163" r="5.773" style="fill:#6d6d6d;fill-opacity:1;stroke:#343434;stroke-width:2;stroke-opacity:1"/><circle cx="-121.965" cy="286.279" r="5.773" style="fill:#6d6d6d;fill-opacity:1;stroke:#343434;stroke-width:2;stroke-opacity:1"/><circle cx="77.534" cy="287.726" r="5.773" style="fill:#6d6d6d;fill-opacity:1;stroke:#343434;stroke-width:2;stroke-opacity:1"/><circle cx="180.126" cy="192.747" r="5.773" style="fill:#6d6d6d;fill-opacity:1;stroke:#343434;stroke-width:2;stroke-opacity:1"/><path d="M-88.16 263.07c7.328.457 14.413-2.487 21.715-3.665 3.225-.52-1.329-4.855-.082-6.893 1.144-1.87 4.069-1.596 6.122-2.21 3.38-1.01 6.733-2.122 10.082-3.237 2.567-.856 1.676-3.56 1.03-5.323-1.298-3.544-1.594-7.607-4.25-10.498-1.615-1.758-4.22-2.179-5.427-4.42-1.542-2.864-4.269-.918-6.442-.17-2.923 1.006-6.243 1.492-9.258.648-3.46-.968-5.26-5.257-8.706-5.833-2.935-.49-1.982 4.938-2.233 7.25-.505 4.67-1.48 9.238-2.8 13.736-1.11 3.782-2.201 7.556-3.534 11.271-1.033 2.88-5.856 8.744-2.371 8.961z" style="fill:#42372d;fill-opacity:.762732;stroke:none;stroke-width:.507799;stroke-linecap:square;stroke-linejoin:round;stroke-dasharray:none;stroke-opacity:1;paint-order:fill markers stroke;stop-color:#000"/></g></svg>