<?xml version="1.0" encoding="UTF-8" standalone="no"?>
<!-- Created with Inkscape (http://www.inkscape.org/) -->

<svg
   width="65.386879"
   height="53.775749"
   viewBox="0 0 17.300278 14.228168"
   version="1.1"
   id="svg1"
   xml:space="preserve"
   inkscape:version="1.4 (86a8ad7, 2024-10-11)"
   sodipodi:docname="experimental_forcefield.svg"
   inkscape:export-filename="Experimental_Forcefield.png"
   inkscape:export-xdpi="96"
   inkscape:export-ydpi="96"
   xmlns:inkscape="http://www.inkscape.org/namespaces/inkscape"
   xmlns:sodipodi="http://sodipodi.sourceforge.net/DTD/sodipodi-0.dtd"
   xmlns:xlink="http://www.w3.org/1999/xlink"
   xmlns="http://www.w3.org/2000/svg"
   xmlns:svg="http://www.w3.org/2000/svg"><sodipodi:namedview
     id="namedview1"
     pagecolor="#ffffff"
     bordercolor="#000000"
     borderopacity="0.25"
     inkscape:showpageshadow="2"
     inkscape:pageopacity="0.0"
     inkscape:pagecheckerboard="0"
     inkscape:deskcolor="#d1d1d1"
     inkscape:document-units="px"
     inkscape:zoom="7.9999999"
     inkscape:cx="35.4375"
     inkscape:cy="18.3125"
     inkscape:window-width="1920"
     inkscape:window-height="991"
     inkscape:window-x="-9"
     inkscape:window-y="-9"
     inkscape:window-maximized="1"
     inkscape:current-layer="layer1"><inkscape:page
       x="0"
       y="0"
       width="17.300278"
       height="14.228168"
       id="page2"
       margin="0"
       bleed="0" /></sodipodi:namedview><defs
     id="defs1"><linearGradient
       id="linearGradient67"
       inkscape:collect="always"><stop
         style="stop-color:#cccccc;stop-opacity:0;"
         offset="0.31456953"
         id="stop68" /><stop
         style="stop-color:#cccccc;stop-opacity:1;"
         offset="1"
         id="stop69" /></linearGradient><radialGradient
       inkscape:collect="always"
       xlink:href="#linearGradient67"
       id="radialGradient69"
       cx="23.612562"
       cy="-2.2354033"
       fx="23.612562"
       fy="-2.2354033"
       r="3.6112947"
       gradientTransform="matrix(1.9432925,0,0,5.5357249,-23.362931,9.8932056)"
       gradientUnits="userSpaceOnUse" /></defs><g
     inkscape:label="Layer 1"
     inkscape:groupmode="layer"
     id="layer1"
     transform="translate(0.04967041,0.08249409)"><g
       id="g71"
       transform="matrix(0.8239183,0,0,0.8811578,-17.118302,-3.1245594)"><path
         id="path2-6"
         style="fill:#4f70b3;fill-opacity:1;fill-rule:evenodd;stroke:none;stroke-width:0.661458;stroke-linecap:round;stroke-linejoin:round;stroke-miterlimit:29;stroke-dasharray:none;stroke-opacity:1"
         d="m 25.70851,7.1768228 2.307353,3.6411212 -3.472657,-2.2003823 c 0.517835,10.1999173 6.512264,10.5647293 6.512264,10.5647293 0,0 3.336551,-0.20552 5.246192,-4.545459 l -2.557467,-2.563667 3.144511,0.929142 c 0.438772,-1.531813 0.715202,-3.4419544 0.715202,-5.8254842 H 31.05547 Z" /><path
         style="fill:#718bc1;fill-opacity:1;fill-rule:evenodd;stroke:none;stroke-width:0.661458;stroke-linecap:round;stroke-linejoin:round;stroke-miterlimit:29;stroke-dasharray:none;stroke-opacity:1"
         d="m 29.630167,7.2964581 c 0,0 -1.403247,1.1413531 -1.824197,3.3162589 0,0 -1.302463,4.826743 2.243445,8.372651 0,0 -5.353711,-1.796597 -5.470641,-10.1454285 l 0.02339,-0.2572469 3.34421,2.1281334 -2.174906,-3.5079123 z"
         id="path70"
         sodipodi:nodetypes="cccccccc" /><path
         style="fill:#3e588e;fill-opacity:1;fill-rule:evenodd;stroke:none;stroke-width:0.661458;stroke-linecap:round;stroke-linejoin:round;stroke-miterlimit:29;stroke-dasharray:none;stroke-opacity:1"
         d="m 32.201866,7.1795277 c 0,0 2.075486,0.6017633 2.075486,5.1130403 l -0.414303,-0.178577 0.429662,0.701097 c 0,0 0.02762,4.572996 -2.300549,5.917165 0,0 0.748355,0.397563 2.899874,-1.870887 l 1.262849,-2.478925 -2.221678,-2.245064 2.946646,0.771741 c 0,0 0.841899,-3.2272795 0.724969,-5.7295904 z"
         id="path71"
         sodipodi:nodetypes="ccccccccccc" /><path
         id="path2"
         style="fill:none;fill-opacity:1;fill-rule:evenodd;stroke:#110e20;stroke-width:0.834375;stroke-linecap:round;stroke-linejoin:round;stroke-miterlimit:29;stroke-dasharray:none;stroke-opacity:1"
         d="m 25.708508,7.1768228 2.307353,3.6411212 -3.472657,-2.2003823 c 0.517835,10.1999173 6.512264,10.5647293 6.512264,10.5647293 0,0 3.336551,-0.20552 5.246192,-4.545459 l -2.557467,-2.563667 3.144511,0.929142 c 0.438772,-1.531813 0.715202,-3.4419544 0.715202,-5.8254842 h -6.548438 z" /><path
         sodipodi:type="star"
         style="fill:url(#radialGradient69);fill-rule:evenodd;stroke:none;stroke-width:0.264583;stroke-linecap:round;stroke-linejoin:round;stroke-miterlimit:29;stroke-dasharray:none;stroke-opacity:1"
         id="path4"
         inkscape:flatsided="false"
         sodipodi:sides="10"
         sodipodi:cx="24.672396"
         sodipodi:cy="-2.2489583"
         sodipodi:r1="3.6304965"
         sodipodi:r2="2.1419928"
         sodipodi:arg1="0.52359878"
         sodipodi:arg2="0.83775805"
         inkscape:rounded="-1.3530843e-16"
         inkscape:randomized="0"
         d="m 27.816498,-0.43371008 -1.710829,-0.22343739 0.04338,1.72481267 -1.252757,-1.1863648 -0.978722,1.4209027 -0.316174,-1.69614127 -1.626988,0.57425613 0.741177,-1.55804936 -1.653801,-0.4917367 1.515424,-0.8248356 -1.048917,-1.3699029 1.710829,0.2234374 -0.04338,-1.7248127 1.252757,1.1863648 0.978721,-1.4209027 0.316174,1.6961413 1.626988,-0.5742562 -0.741176,1.5580494 1.6538,0.4917367 -1.515423,0.8248356 z"
         transform="matrix(1.3068576,0,0,1.3068576,-1.320131,16.118625)" /><path
         id="rect2"
         style="fill:#e5e5e5;fill-opacity:1;fill-rule:evenodd;stroke:#181818;stroke-width:0.834375;stroke-linecap:round;stroke-linejoin:round;stroke-miterlimit:29;stroke-dasharray:none;stroke-opacity:1"
         d="m 31.21658,12.402642 -7.103513,2.569198 c 0,0 0.678126,1.989498 1.670313,2.816321 l 5.306896,-4.167588 4.838704,3.877448 1.418992,-1.824184 z"
         sodipodi:nodetypes="ccccccc" /><path
         id="path69"
         style="fill:#4f70b3;fill-rule:evenodd;stroke:#13131d;stroke-width:0.834375;stroke-linecap:round;stroke-linejoin:round;stroke-miterlimit:29;stroke-dasharray:none;stroke-opacity:1"
         inkscape:transform-center-y="0.21681335"
         d="M 25.468439,8.3035956 21.133575,5.6510877 22.915151,3.8695114 Z"
         sodipodi:nodetypes="cccc"
         inkscape:transform-center-x="-0.216813" /><path
         id="path69-5"
         style="fill:#4f70b3;fill-rule:evenodd;stroke:#13131d;stroke-width:0.834375;stroke-linecap:round;stroke-linejoin:round;stroke-miterlimit:29;stroke-dasharray:none;stroke-opacity:1"
         inkscape:transform-center-y="0.077242849"
         d="m 36.423135,13.660903 4.873677,1.440181 -1.259765,2.181976 z"
         sodipodi:nodetypes="cccc"
         inkscape:transform-center-x="0.49609351" /></g><g
       id="g72"
       transform="matrix(0.8239183,0,0,0.8811578,0.01146376,-0.00923069)"><path
         id="path2-2"
         style="fill:#cdb435;fill-opacity:1;fill-rule:evenodd;stroke:none;stroke-width:0.661458;stroke-linecap:round;stroke-linejoin:round;stroke-miterlimit:29;stroke-dasharray:none;stroke-opacity:1"
         d="m 35.92898,17.498021 c 1.631423,1.234935 2.958935,0.861155 2.958935,0.861155 0,0 0.09148,-1.450404 -1.539943,-2.685339 l -0.709498,0.912093 z"
         sodipodi:nodetypes="ccccc"
         transform="translate(-20.790612,-3.5354948)" /><path
         style="fill:#a48f28;fill-opacity:1;fill-rule:evenodd;stroke:none;stroke-width:0.661458;stroke-linecap:round;stroke-linejoin:round;stroke-miterlimit:29;stroke-dasharray:none;stroke-opacity:1"
         d="m 15.742708,13.675651 c 0,0 0.360442,0.606231 2.075325,0.892968 l 0.08268,0.214975 -2.273763,-0.396875 -0.272851,-0.570508 z"
         id="path72"
         sodipodi:nodetypes="cccccc" /><path
         style="fill:#d7c25b;fill-opacity:1;fill-rule:evenodd;stroke:none;stroke-width:0.661458;stroke-linecap:round;stroke-linejoin:round;stroke-miterlimit:29;stroke-dasharray:none;stroke-opacity:1"
         d="m 37.141331,16.284361 c 0,0 0.678872,0.191221 1.399674,1.773493 l 0.229048,0.02423 -0.971845,-2.093567 -0.621688,-0.115894 z"
         id="path72-2"
         sodipodi:nodetypes="cccccc"
         transform="translate(-20.790612,-3.5354948)" /><path
         id="path2-2-9"
         style="fill:none;fill-opacity:1;fill-rule:evenodd;stroke:#20200e;stroke-width:0.834375;stroke-linecap:round;stroke-linejoin:round;stroke-miterlimit:29;stroke-dasharray:none;stroke-opacity:1"
         d="m 15.138716,13.96307 c 1.631423,1.234935 2.958935,0.861155 2.958935,0.861155 0,0 0.09148,-1.450404 -1.539943,-2.685339 l -0.709498,0.912093 z"
         sodipodi:nodetypes="ccccc" /></g></g></svg>
