<svg xmlns="http://www.w3.org/2000/svg" width="85.379" height="64.076" viewBox="0 0 22.59 16.953"><g transform="matrix(1.04967 0 0 1.04967 2780.11 513.793)"><path d="m-2633.532-483.865.994 1.696.269 1.742-1.497 2.14-1.146-3.274z" style="fill:#4d4d4d;fill-opacity:1;stroke:none;stroke-width:.794001;stroke-linecap:butt;stroke-linejoin:miter;stroke-dasharray:none;stroke-dashoffset:0;stroke-opacity:1"/><path d="M-2633.739-483.982c1.376 1.941 1.856 3.662-.057 5.614" style="fill:none;fill-opacity:1;stroke:#171717;stroke-width:.658909;stroke-linecap:butt;stroke-linejoin:miter;stroke-dasharray:none;stroke-dashoffset:0;stroke-opacity:1"/><path d="m-2642.075-483.68-.772 1.52-.268 1.742 1.32 1.952 1.322-3.087z" style="fill:#4d4d4d;fill-opacity:1;stroke:none;stroke-width:.794001;stroke-linecap:butt;stroke-linejoin:miter;stroke-dasharray:none;stroke-dashoffset:0;stroke-opacity:1"/><path d="M-2642.027-482.185c-.393 1.069-.297 2.211.48 3.456l.776-1.232.033-1.637z" style="opacity:1;fill:#333;fill-opacity:1;stroke:none;stroke-width:.79375;stroke-linecap:butt;stroke-linejoin:miter;stroke-dasharray:none;stroke-dashoffset:0;stroke-opacity:1"/><path d="M-2633.635-482.127c.392 1.068.296 2.21-.48 3.456l-.777-1.232-.033-1.637z" style="fill:#333;fill-opacity:1;stroke:none;stroke-width:.79375;stroke-linecap:butt;stroke-linejoin:miter;stroke-dasharray:none;stroke-dashoffset:0;stroke-opacity:1"/><path d="M-2641.937-483.98c-1.377 1.941-1.856 3.662.056 5.614" style="fill:none;fill-opacity:1;stroke:#171717;stroke-width:.658909;stroke-linecap:butt;stroke-linejoin:miter;stroke-dasharray:none;stroke-dashoffset:0;stroke-opacity:1"/><path d="M-2638.578-486.284c-1.84.057-2.754 1.216-3.472 2.158l.148.149c1.763 1.77 1.431 3.55.162 5.311l-.442.4c.223 1.719 1.474 2.845 3.043 4.176.565.432.65.46.063-.074-1.795-1.602-1.47-2.776-1.487-4.07 0-.064 0-.07.025 0 .766 1.83 1.558 2.82 2.68 3.429.799-.51 1.617-1.18 2.877-3.434.021-.035.022-.033.02.007-.158 1.166-.171 3.061-1.686 4.091-.494.338-.42.424.02.177 2.382-1.687 2.599-2.443 3.112-4.37l-.141-.195c-1.109-1.57-2.292-3.124-.04-5.369l.095-.224c-.701-.981-1.84-2.077-3.63-2.162-.414.112-.819.104-1.304.006z" style="fill:#8f3d3d;fill-opacity:1;stroke:none;stroke-width:.79375;stroke-linecap:butt;stroke-linejoin:miter;stroke-dasharray:none;stroke-dashoffset:0;stroke-opacity:1"/><path d="M-2640.388-475.428c-.012-1.409-1.047-2.061-.024-4.76l-1.956 2.179z" style="opacity:1;fill:#6b2e2e;fill-opacity:1;stroke:none;stroke-width:.79375;stroke-linecap:butt;stroke-linejoin:miter;stroke-dasharray:none;stroke-dashoffset:0;stroke-opacity:1"/><path d="M-2635.29-474.817c.172-2.232 1.16-2.664.136-5.364l1.781 2.121z" style="fill:#6b2e2e;fill-opacity:1;stroke:none;stroke-width:.79375;stroke-linecap:butt;stroke-linejoin:miter;stroke-dasharray:none;stroke-dashoffset:0;stroke-opacity:1"/><path d="M-2638.567-486.18c-1.839.058-2.754 1.217-3.472 2.159l.149.149c1.762 1.77 1.493 3.63.137 5.3l-.418.412c.223 1.718 1.474 2.844 3.043 4.175.565.432.65.46.063-.074-1.795-1.603-1.47-2.776-1.487-4.07 0-.064 0-.07.025-.001.766 1.831 1.558 2.822 2.68 3.43.799-.51 1.57-1.191 2.83-3.446.022-.035.023-.033.02.007-.157 1.166-.124 3.073-1.639 4.103-.494.338-.42.424.02.177 2.382-1.687 2.599-2.443 3.112-4.37l-.141-.195c-1.109-1.57-2.292-3.124-.04-5.369l.095-.224c-.7-.981-1.84-2.077-3.63-2.162-.414.112-.819.104-1.304.006z" style="fill:none;fill-opacity:1;stroke:#200e0e;stroke-width:.658909;stroke-linecap:butt;stroke-linejoin:miter;stroke-dasharray:none;stroke-dashoffset:0;stroke-opacity:1"/><g style="stroke-width:1.29262;stroke-dasharray:none"><path d="M-2627.647-498.12c.303-13.04 20.792-13.41 21.12.276 2.187 2.362 1.33.846.222.84-1.197.016-4.084 1.081-5.033 1.483-2.888 1.022-7.793.555-10.8-.044-1.5-.216-4.048-1.242-4.859-1.226-.99.062-3.542.31-.65-1.329" style="fill:#424d33;fill-opacity:1;stroke:none;stroke-width:1.29262;stroke-linecap:round;stroke-dasharray:none;stroke-opacity:1" transform="matrix(.50975 0 0 .50975 -1303.831 -228.832)"/><path d="M-2625.944-496.701c.58-7.29 4.355-8.483 9.645-10.92l-2.14-.259-4.373 1.665-2.694 1.868-1.988 4.344-.98 3.308z" style="fill:#353d29;fill-opacity:1;stroke:none;stroke-width:1.29262;stroke-linecap:round;stroke-linejoin:round;stroke-dasharray:none;stroke-opacity:1" transform="matrix(.50975 0 0 .50975 -1303.831 -228.832)"/><path d="M-2627.705-498.143c.43-13.03 20.871-12.947 21.007-.112 2.187 2.362.751 1.316-.357 1.31-1.198.016-3.991 1-4.94 1.4-2.889 1.023-7.673.74-10.272-.043-1.418-.481-4.047-1.242-4.858-1.226-.99.062-2.922.44-.58-1.329z" style="fill:none;fill-opacity:1;stroke:#181c12;stroke-width:1.29262;stroke-linecap:round;stroke-dasharray:none;stroke-opacity:1" transform="matrix(.50975 0 0 .50975 -1303.831 -228.832)"/></g><circle cx="-2639.356" cy="-483.691" r="1.429" style="opacity:1;fill:#353d29;fill-opacity:1;stroke:none;stroke-width:.928024;stroke-linecap:butt;stroke-linejoin:miter;stroke-dasharray:none;stroke-dashoffset:0;stroke-opacity:1"/><circle cx="-2636.367" cy="-483.64" r="1.429" style="fill:#353d29;fill-opacity:1;stroke:none;stroke-width:.928024;stroke-linecap:butt;stroke-linejoin:miter;stroke-dasharray:none;stroke-dashoffset:0;stroke-opacity:1"/><path d="m-2639.853-483.605-1.277-3.855c-.183-.53-.748-.495-1.161-.103l-5.192 5.08c-.58.51-.922.274-.66-.618.183-.665.365-1.4 1.457-1.977 2.088-1.163 2.637-2.335 3.77-3.498.864-.85 2.527-.426 2.835.686l1.099 3.887c.242.737-.649.937-.871.398zM-2635.832-483.601l1.359-3.973c.183-.53.748-.494 1.161-.102l5.192 5.08c.58.51.922.274.66-.619-.183-.664-.365-1.399-1.457-1.976-2.088-1.164-2.637-2.335-3.77-3.499-.864-.85-2.527-.425-2.835.686l-1.18 4.005c-.243.736.648.937.87.398z" style="fill:#6b2e2e;fill-opacity:1;stroke:#200e0e;stroke-width:.658909;stroke-linecap:butt;stroke-linejoin:miter;stroke-dasharray:none;stroke-dashoffset:0;stroke-opacity:1"/></g></svg>