<?xml version="1.0" encoding="UTF-8" standalone="no"?>
<svg
   width="50.75811"
   height="71.121346"
   viewBox="0 0 13.429922 18.817575"
   version="1.1"
   id="svg14"
   sodipodi:docname="overdrive.svg"
   inkscape:version="1.4 (86a8ad7, 2024-10-11)"
   xmlns:inkscape="http://www.inkscape.org/namespaces/inkscape"
   xmlns:sodipodi="http://sodipodi.sourceforge.net/DTD/sodipodi-0.dtd"
   xmlns="http://www.w3.org/2000/svg"
   xmlns:svg="http://www.w3.org/2000/svg">
  <defs
     id="defs14" />
  <sodipodi:namedview
     id="namedview14"
     pagecolor="#ffffff"
     bordercolor="#000000"
     borderopacity="0.25"
     inkscape:showpageshadow="2"
     inkscape:pageopacity="0.0"
     inkscape:pagecheckerboard="0"
     inkscape:deskcolor="#d1d1d1"
     inkscape:zoom="4.7963632"
     inkscape:cx="-10.111828"
     inkscape:cy="69.114866"
     inkscape:window-width="1920"
     inkscape:window-height="991"
     inkscape:window-x="-9"
     inkscape:window-y="-9"
     inkscape:window-maximized="1"
     inkscape:current-layer="svg14" />
  <g
     id="g2"
     style="stroke-width:1.10175"
     transform="matrix(0.87880106,0,0,0.84129135,20.411532,4.0749175)">
    <path
       style="fill:#ffffff;fill-opacity:1;stroke:#d90000;stroke-width:0.437263;stroke-linecap:round;stroke-linejoin:round;stroke-miterlimit:10.8;stroke-dasharray:none;stroke-opacity:1;paint-order:fill markers stroke"
       d="m -21.208305,-0.91043617 -1.540318,1.2706138 0.711544,1.11365857 -0.660719,1.3214382 1.931332,1.2197893 -0.711543,-1.4739119 0.406596,-1.3214384 -0.543489,-0.84408814 z"
       id="path15"
       sodipodi:nodetypes="ccccccccc" />
    <path
       style="fill:#ffffff;fill-opacity:1;stroke:#d90000;stroke-width:0.437263;stroke-linecap:round;stroke-linejoin:round;stroke-miterlimit:10.8;stroke-dasharray:none;stroke-opacity:1;paint-order:fill markers stroke"
       d="m -10.825628,4.9298955 1.1181392,1.4824973 -0.3557722,1.0508167 0.4065968,1.2666569 -1.1181398,1.3333236 0.101649,-1.4666557 -0.355771,-1.3333234 0.55907,-0.7999936 z"
       id="path17"
       sodipodi:nodetypes="ccccccccc" />
    <path
       style="fill:#ffffff;fill-opacity:1;stroke:#d90000;stroke-width:0.437263;stroke-linecap:round;stroke-linejoin:round;stroke-miterlimit:10.8;stroke-dasharray:none;stroke-opacity:1;paint-order:fill markers stroke"
       d="m -18.637027,6.5562909 -3.544165,-0.040271 -0.826747,2.1749022 0.813193,0.8640173 -0.813193,1.4739116 2.439578,0.813193 -1.219789,-1.372263 1.11814,-1.2197889 -1.11814,-0.7115437 0.203298,-1.1181401 z"
       id="path26"
       sodipodi:nodetypes="ccccccccccc" />
    <path
       style="fill:#ffffff;fill-opacity:1;stroke:#d90000;stroke-width:0.437263;stroke-linecap:round;stroke-linejoin:round;stroke-miterlimit:10.8;stroke-dasharray:none;stroke-opacity:1;paint-order:fill markers stroke"
       d="m -12.457207,11.130501 1.365661,1.070562 -0.106749,1.173537 0.977395,0.703725 -0.813193,0.609894 0.355772,1.016491 -2.032982,0.355771 1.219789,0.914842 2.0838068,-0.864017 -0.508246,-1.168964 0.8640177,-0.914841 -1.0745335,-0.985785 -0.181801,-1.558108 z"
       id="path27"
       sodipodi:nodetypes="cccccccccccccc" />
    <rect
       style="fill:#bf1a1a;fill-opacity:1;stroke:none;stroke-width:0.697289;stroke-linecap:round;stroke-linejoin:round;stroke-miterlimit:10.8;stroke-dasharray:none;stroke-opacity:1;paint-order:fill markers stroke"
       id="rect18"
       width="7.8930731"
       height="15.841991"
       x="-19.923223"
       y="-0.95047438" />
    <rect
       style="fill:#871212;fill-opacity:1;stroke:none;stroke-width:0.697289;stroke-linecap:round;stroke-linejoin:round;stroke-miterlimit:10.8;stroke-dasharray:none;stroke-opacity:1;paint-order:fill markers stroke"
       id="rect19"
       width="3.049473"
       height="1.7280346"
       x="-17.501423"
       y="-2.6784873"
       rx="0.25412273"
       ry="0.25412273" />
    <path
       style="fill:#ffffff;fill-opacity:1;stroke:#d90000;stroke-width:0.437263;stroke-linecap:round;stroke-linejoin:round;stroke-miterlimit:10.8;stroke-dasharray:none;stroke-opacity:1;paint-order:fill markers stroke"
       d="m -21.702084,-2.6365968 2.439577,0.7051912 -1.568931,-2.1854564 z"
       id="path19"
       sodipodi:nodetypes="cccc" />
    <path
       style="fill:#ffffff;fill-opacity:1;stroke:#d90000;stroke-width:0.437263;stroke-linecap:round;stroke-linejoin:round;stroke-miterlimit:10.8;stroke-dasharray:none;stroke-opacity:1;paint-order:fill markers stroke"
       d="m -19.872401,-4.4662805 1.321438,2.3315767 -0.145845,-2.4904037 z"
       id="path20"
       sodipodi:nodetypes="cccc" />
    <path
       style="fill:#ffffff;fill-opacity:1;stroke:#d90000;stroke-width:0.437263;stroke-linecap:round;stroke-linejoin:round;stroke-miterlimit:10.8;stroke-dasharray:none;stroke-opacity:1;paint-order:fill markers stroke"
       d="m -11.073116,-2.7382459 -2.13463,0.7051912 0.857388,-2.33793 z"
       id="path21"
       sodipodi:nodetypes="cccc" />
    <g
       id="g26"
       transform="translate(0.00763488,0.05247851)"
       style="stroke-width:1.10175">
      <rect
         style="fill:#ffcccc;fill-opacity:1;stroke:none;stroke-width:0.437262;stroke-linecap:round;stroke-linejoin:round;stroke-miterlimit:10.8;stroke-dasharray:none;stroke-opacity:1;paint-order:fill markers stroke"
         id="rect22"
         width="6.3530688"
         height="3.0324013"
         x="-19.160856"
         y="-7.5255848e-05"
         rx="0.38009813"
         ry="0.44222525" />
      <rect
         style="fill:#ff5353;fill-opacity:1;stroke:none;stroke-width:0.437262;stroke-linecap:round;stroke-linejoin:round;stroke-miterlimit:10.8;stroke-dasharray:none;stroke-opacity:1;paint-order:fill markers stroke"
         id="rect23"
         width="6.3530688"
         height="3.0324013"
         x="-19.160856"
         y="3.601203"
         rx="0.38009813"
         ry="0.44222525" />
      <rect
         style="fill:#990000;fill-opacity:1;stroke:none;stroke-width:0.437262;stroke-linecap:round;stroke-linejoin:round;stroke-miterlimit:10.8;stroke-dasharray:none;stroke-opacity:1;paint-order:fill markers stroke"
         id="rect24"
         width="6.3530688"
         height="3.0324013"
         x="-19.160856"
         y="7.2024813"
         rx="0.38009813"
         ry="0.44222525" />
      <rect
         style="fill:#330000;fill-opacity:1;stroke:none;stroke-width:0.437262;stroke-linecap:round;stroke-linejoin:round;stroke-miterlimit:10.8;stroke-dasharray:none;stroke-opacity:1;paint-order:fill markers stroke"
         id="rect25"
         width="6.3530688"
         height="3.0324013"
         x="-19.160856"
         y="10.80376"
         rx="0.38009813"
         ry="0.44222525" />
    </g>
    <rect
       style="fill:none;fill-opacity:1;stroke:#2e0000;stroke-width:0.697289;stroke-linecap:round;stroke-linejoin:round;stroke-miterlimit:10.8;stroke-dasharray:none;stroke-opacity:1;paint-order:fill markers stroke"
       id="rect27"
       width="7.8930731"
       height="15.841991"
       x="-19.923223"
       y="-0.95047438"
       rx="0.45742095"
       ry="0.45742095" />
    <path
       style="fill:#ffffff;fill-opacity:1;stroke:#d90000;stroke-width:0.437263;stroke-linecap:round;stroke-linejoin:round;stroke-miterlimit:10.8;stroke-dasharray:none;stroke-opacity:1;paint-order:fill markers stroke"
       d="m -21.854557,14.255875 v 2.388754 l 1.321438,-0.203298 0.609895,0.864018 2.032982,-0.406597 1.016491,0.254123 1.321438,-1.372263 -1.67721,0.609895 -0.864017,-0.406597 -1.321438,0.406597 -0.609895,-0.813193 -1.168965,0.152474 z"
       id="path16"
       sodipodi:nodetypes="ccccccccccccc" />
    <path
       style="fill:#ffffff;fill-opacity:1;stroke:#2e0000;stroke-width:0.697289;stroke-linecap:round;stroke-linejoin:round;stroke-miterlimit:10.8;stroke-dasharray:none;stroke-opacity:1;paint-order:fill markers stroke"
       d="m -17.475999,3.0824829 h 3.710192 l -1.219789,2.2362802 1.372263,-0.4065964 -1.473912,2.2362802 1.219789,-0.3557718 -3.35442,3.9134889 0.762368,-3.2527698 -1.423086,0.6607191 0.762367,-2.6428767 -1.21979,0.355772 z"
       id="path22"
       sodipodi:nodetypes="cccccccccccc" />
    <g
       id="g28"
       transform="translate(-0.01777795)"
       style="stroke-width:1.10175">
      <path
         id="rect28"
         style="fill:#000000;fill-opacity:0.2;stroke:none;stroke-width:0.697289;stroke-linecap:round;stroke-linejoin:round;stroke-miterlimit:10.8;stroke-dasharray:none;paint-order:fill markers stroke"
         d="m -19.923223,-0.95047438 h 1.67721 c 0,0 -0.517515,0.76669125 -0.508245,1.86524044 l 0.101649,12.04541794 c 0.0086,1.022528 0.406596,1.931333 0.406596,1.931333 h -1.67721 z"
         sodipodi:nodetypes="ccssccc" />
      <path
         id="path28"
         style="fill:#000000;fill-opacity:0.2;stroke:none;stroke-width:0.697289;stroke-linecap:round;stroke-linejoin:round;stroke-miterlimit:10.8;stroke-dasharray:none;paint-order:fill markers stroke"
         d="m -19.923223,-0.95047438 h 1.67721 c 0,0 -0.517515,0.76669125 -0.508245,1.86524044 l 0.101649,12.04541794 c 0.0086,1.022528 0.406596,1.931333 0.406596,1.931333 h -1.67721 z"
         sodipodi:nodetypes="ccssccc"
         transform="matrix(-1,0,0,1,-31.917818,0)" />
    </g>
    <path
       style="fill:#ffffff;fill-opacity:1;stroke:#d90000;stroke-width:0.437263;stroke-linecap:round;stroke-linejoin:round;stroke-miterlimit:10.8;stroke-dasharray:none;stroke-opacity:1;paint-order:fill markers stroke"
       d="m -11.365038,-0.35584743 1.6263865,1.16896447 0.2541228,1.11814016 -0.8640183,-0.3049472 -1.575561,0.7115434 -1.11814,-0.8640172 -1.067315,1.0164909 1.016491,10e-8 1.321438,0.9148419 1.67721,-0.9148419 1.9313335,1.0164914 -0.8131923,-3.04947317 z"
       id="path18"
       sodipodi:nodetypes="ccccccccccccc" />
    <g
       id="g31"
       transform="translate(-0.02004424)"
       style="stroke-width:1.10175">
      <rect
         style="fill:#000000;fill-opacity:0.2;stroke:none;stroke-width:0.697289;stroke-linecap:round;stroke-linejoin:round;stroke-miterlimit:10.8;stroke-dasharray:none;stroke-opacity:1;paint-order:fill markers stroke"
         id="rect29"
         width="0.60196787"
         height="1.5004275"
         x="-17.367224"
         y="-2.5786548"
         rx="0"
         ry="0" />
      <rect
         style="fill:#000000;fill-opacity:0.2;stroke:none;stroke-width:0.697289;stroke-linecap:round;stroke-linejoin:round;stroke-miterlimit:10.8;stroke-dasharray:none;stroke-opacity:1;paint-order:fill markers stroke"
         id="rect31"
         width="0.60196787"
         height="1.5004275"
         x="-15.148028"
         y="-2.5786548"
         rx="0"
         ry="0" />
    </g>
    <rect
       style="fill:none;fill-opacity:1;stroke:#2e0000;stroke-width:0.697289;stroke-linecap:round;stroke-linejoin:round;stroke-miterlimit:10.8;stroke-dasharray:none;stroke-opacity:1;paint-order:fill markers stroke"
       id="rect30"
       width="3.049473"
       height="1.7280346"
       x="-17.501423"
       y="-2.6784873"
       rx="0.25412273"
       ry="0.25412273" />
  </g>
</svg>
