<?xml version="1.0" encoding="UTF-8" standalone="no"?>
<!-- Created with Inkscape (http://www.inkscape.org/) -->

<svg
   width="82.832298"
   height="45.413643"
   viewBox="0 0 21.916045 12.015693"
   version="1.1"
   id="svg1"
   inkscape:export-filename="perk_cqc.svg"
   inkscape:export-xdpi="96"
   inkscape:export-ydpi="96"
   sodipodi:docname="perk_second_wind.svg"
   xmlns:inkscape="http://www.inkscape.org/namespaces/inkscape"
   xmlns:sodipodi="http://sodipodi.sourceforge.net/DTD/sodipodi-0.dtd"
   xmlns="http://www.w3.org/2000/svg"
   xmlns:svg="http://www.w3.org/2000/svg">
  <sodipodi:namedview
     id="namedview1"
     pagecolor="#505050"
     bordercolor="#ffffff"
     borderopacity="1"
     inkscape:showpageshadow="0"
     inkscape:pageopacity="0"
     inkscape:pagecheckerboard="1"
     inkscape:deskcolor="#505050"
     inkscape:document-units="mm" />
  <defs
     id="defs1" />
  <g
     inkscape:label="Layer 1"
     inkscape:groupmode="layer"
     id="layer1"
     transform="translate(-147.70848,-141.49501)">
    <g
       id="g134"
       transform="matrix(0.86747653,0,0,0.86747653,2437.6957,587.44558)">
      <path
         style="fill:#b2b2b2;fill-opacity:1;stroke:none;stroke-width:0.793999;stroke-linecap:round;stroke-linejoin:miter;stroke-dasharray:none;stroke-dashoffset:0;stroke-opacity:1"
         d="m -2620.0382,-503.98524 v 2.62578 l 4.9945,-5.47432 -5.0605,-5.67594 v 2.46739 l -6.0121,0.003 -6.0713,-0.01 c 0.6316,-3.39563 -2.9656,-4.15783 -4.3541,-2.56233 -1.3401,1.53989 -0.1091,4.55746 2.0847,4.55797 l 8.179,0.0363 -0.011,-0.0246 -10.2655,-0.007 c -2.1829,-0.0211 -3.8191,2.74797 -2.1606,4.53631 1.186,1.27875 4.6174,1.115 4.43,-2.49732 l 7.9854,-0.0136 -0.01,0.0226 -4.3996,-0.007 c -2.3129,-0.0103 -3.8795,2.57518 -2.1714,4.56881 1.3136,1.5332 4.7366,0.96332 4.4408,-2.52982 l 2.2382,-0.0134 z"
         id="path130-5"
         sodipodi:nodetypes="cccccccsccccsccccsccc" />
      <path
         style="fill:#999999;fill-opacity:1;stroke:none;stroke-width:0.793999;stroke-linecap:round;stroke-linejoin:miter;stroke-dasharray:none;stroke-dashoffset:0;stroke-opacity:1"
         d="m -2637.2582,-505.78733 h 3.0032 l -0.343,1.2803 -1.3731,1.73825 -1.9613,-0.12258 -1.3177,-1.07258 -0.2911,-1.425 0.4903,-1.44032 1.3024,-0.99597 11.4306,-0.19919 -1.5048,0.86884 h -8.3783 c -2.9096,0.062 -2.9111,3.08363 -1.2105,3.56705 1.7006,0.48342 2.2385,-1.33459 1.2277,-1.65705 -0.5999,0.15412 -0.3611,0.24644 -0.6148,0.71471 l -0.5976,-0.27581 z"
         id="path133"
         sodipodi:nodetypes="cccccccccccczcccc" />
      <path
         style="fill:#999999;fill-opacity:1;stroke:none;stroke-width:0.793999;stroke-linecap:round;stroke-linejoin:miter;stroke-dasharray:none;stroke-dashoffset:0;stroke-opacity:1"
         d="m -2631.4055,-503.76511 h 3.0032 l -0.343,1.2803 -1.3731,1.73825 -1.9613,-0.12258 -1.3177,-1.07258 -0.2911,-1.425 0.4903,-1.44032 1.3024,-0.99597 5.6098,-0.19919 -1.5048,0.86884 h -2.5575 c -2.9096,0.062 -2.9111,3.08363 -1.2105,3.56705 1.7006,0.48342 2.2385,-1.33459 1.2277,-1.65705 -0.5999,0.15412 -0.3611,0.24644 -0.6148,0.71471 l -0.5976,-0.27581 z"
         id="path133-9"
         sodipodi:nodetypes="cccccccccccczcccc" />
      <path
         style="fill:#999999;fill-opacity:1;stroke:none;stroke-width:0.793999;stroke-linecap:round;stroke-linejoin:miter;stroke-dasharray:none;stroke-dashoffset:0;stroke-opacity:1"
         d="m -2634.9135,-510.23517 h 3.0032 l -0.343,-1.2803 -1.3731,-1.73825 -1.9613,0.12258 -1.3177,1.07258 -0.2911,1.425 0.4903,1.44032 1.3024,0.99597 8.9719,0.19919 -1.5048,-0.86884 h -5.9196 c -2.9096,-0.062 -2.9111,-3.08363 -1.2105,-3.56705 1.7006,-0.48342 2.2385,1.33459 1.2277,1.65705 -0.5999,-0.15412 -0.3611,-0.24644 -0.6148,-0.71471 l -0.5976,0.27581 z"
         id="path133-9-8"
         sodipodi:nodetypes="cccccccccccczcccc" />
      <path
         style="fill:#999999;fill-opacity:1;stroke:none;stroke-width:0.793999;stroke-linecap:round;stroke-linejoin:miter;stroke-dasharray:none;stroke-dashoffset:0;stroke-opacity:1"
         d="m -2620.1212,-510.73043 4.5953,3.76515 0.1637,-0.54957 -4.6539,-5.44896 z"
         id="path134"
         sodipodi:nodetypes="ccccc" />
      <path
         style="fill:#999999;fill-opacity:1;stroke:none;stroke-width:0.793999;stroke-linecap:round;stroke-linejoin:miter;stroke-dasharray:none;stroke-dashoffset:0;stroke-opacity:1"
         d="m -2620.0729,-503.31866 4.5603,-3.96393 0.1637,0.54957 -4.6539,5.44896 z"
         id="path134-3"
         sodipodi:nodetypes="ccccc" />
      <path
         style="fill:none;fill-opacity:1;stroke:#171717;stroke-width:0.793999;stroke-linecap:round;stroke-linejoin:miter;stroke-dasharray:none;stroke-dashoffset:0;stroke-opacity:1"
         d="m -2620.08,-503.97521 v 2.60108 l 4.9945,-5.73074 -4.9943,-5.89091 v 2.96348 l -6.0783,0.003 -6.0713,-0.01 c 0.6316,-3.39563 -2.8955,-4.094 -4.3541,-2.56233 -1.5334,1.61017 -0.2576,4.61145 2.0847,4.55797 l 8.179,0.0363 -0.011,-0.0246 -10.2655,-0.007 c -2.1829,-0.0211 -3.8191,2.74797 -2.1606,4.53631 1.186,1.27875 4.6174,1.115 4.43,-2.49732 l 7.9854,-0.0136 -0.01,0.0226 -4.3996,-0.007 c -2.3129,-0.0103 -3.8795,2.57518 -2.1714,4.56881 1.3136,1.5332 4.7366,0.96332 4.4408,-2.52982 l 2.2382,-0.0134 z"
         id="path130"
         sodipodi:nodetypes="cccccccsccccsccccsccc" />
      <path
         style="fill:none;fill-opacity:1;stroke:#171717;stroke-width:0.793999;stroke-linecap:round;stroke-linejoin:miter;stroke-dasharray:none;stroke-dashoffset:0;stroke-opacity:1"
         d="m -2632.0173,-510.03687 h -2.2754 c -0.7445,-4.1e-4 -1.0709,-0.69899 -0.7874,-1.14904 0.2835,-0.45005 0.9425,-0.4842 1.1461,0.0174"
         id="path132"
         sodipodi:nodetypes="cczc" />
      <path
         style="fill:none;fill-opacity:1;stroke:#171717;stroke-width:0.793999;stroke-linecap:round;stroke-linejoin:miter;stroke-dasharray:none;stroke-dashoffset:0;stroke-opacity:1"
         d="m -2634.1147,-506.00117 h -2.5788 c -0.7445,4.1e-4 -1.0709,0.69899 -0.7874,1.14904 0.2835,0.45005 0.9425,0.4842 1.1461,-0.0174"
         id="path132-0"
         sodipodi:nodetypes="cczc" />
      <path
         style="fill:none;fill-opacity:1;stroke:#171717;stroke-width:0.793999;stroke-linecap:round;stroke-linejoin:miter;stroke-dasharray:none;stroke-dashoffset:0;stroke-opacity:1"
         d="m -2628.2667,-503.96017 h -2.5029 c -0.7445,4.1e-4 -1.0709,0.69899 -0.7874,1.14904 0.2835,0.45005 0.9425,0.4842 1.1461,-0.0174"
         id="path132-0-8"
         sodipodi:nodetypes="cczc" />
    </g>
  </g>
</svg>
