<?xml version="1.0" encoding="UTF-8" standalone="no"?>
<!-- Created with Inkscape (http://www.inkscape.org/) -->

<svg
   width="236.92624"
   height="217.72469"
   viewBox="0 0 62.686737 57.60633"
   version="1.1"
   id="svg1062"
   inkscape:version="1.2.2 (732a01da63, 2022-12-09)"
   sodipodi:docname="tree_oak_residue.svg"
   xmlns:inkscape="http://www.inkscape.org/namespaces/inkscape"
   xmlns:sodipodi="http://sodipodi.sourceforge.net/DTD/sodipodi-0.dtd"
   xmlns="http://www.w3.org/2000/svg"
   xmlns:svg="http://www.w3.org/2000/svg"
   xmlns:rdf="http://www.w3.org/1999/02/22-rdf-syntax-ns#"
   xmlns:cc="http://creativecommons.org/ns#"
   xmlns:dc="http://purl.org/dc/elements/1.1/">
  <sodipodi:namedview
     id="namedview1064"
     pagecolor="#505050"
     bordercolor="#ffffff"
     borderopacity="1"
     inkscape:pageshadow="0"
     inkscape:pageopacity="0"
     inkscape:pagecheckerboard="1"
     inkscape:document-units="px"
     showgrid="false"
     units="px"
     inkscape:zoom="1.5518659"
     inkscape:cx="15.465254"
     inkscape:cy="64.116365"
     inkscape:window-width="1280"
     inkscape:window-height="658"
     inkscape:window-x="-6"
     inkscape:window-y="-6"
     inkscape:window-maximized="1"
     inkscape:current-layer="layer1"
     inkscape:showpageshadow="2"
     inkscape:deskcolor="#505050" />
  <defs
     id="defs1059" />
  <g
     inkscape:label="Layer 1"
     inkscape:groupmode="layer"
     id="layer1"
     transform="translate(8.3393664,10.640721)">
    <path
       sodipodi:type="star"
       style="fill:#6d4a2c;fill-opacity:1;stroke:#312114;stroke-width:0.79375;stroke-linejoin:round;stroke-dasharray:none;stroke-opacity:1"
       id="path1620"
       inkscape:flatsided="false"
       sodipodi:sides="8"
       sodipodi:cx="6.6306486"
       sodipodi:cy="7.655385"
       sodipodi:r1="8.4433117"
       sodipodi:r2="6.7546492"
       sodipodi:arg1="0.17219081"
       sodipodi:arg2="0.5648899"
       inkscape:rounded="0"
       inkscape:randomized="0"
       d="M 14.949099,9.1020719 12.335946,11.271303 11.489719,14.560379 8.1080634,14.24648 5.1839617,15.973835 3.0147308,13.360683 -0.27434587,12.514455 0.03955379,9.1327998 -1.6878013,6.2086981 0.92535078,4.0394672 1.7715784,0.75039054 5.1532339,1.0642902 8.0773355,-0.66306492 10.246566,1.9500872 l 3.289077,0.8462276 -0.3139,3.3816555 z"
       transform="matrix(1.6576083,0,0,1.6576083,11.550334,5.4728147)" />
    <path
       sodipodi:type="star"
       style="fill:#5f4316;fill-opacity:0;fill-rule:nonzero;stroke:#312114;stroke-width:0.30749;stroke-linejoin:miter;stroke-dasharray:none;stroke-opacity:1"
       id="path1620-8"
       inkscape:flatsided="false"
       sodipodi:sides="8"
       sodipodi:cx="6.6306486"
       sodipodi:cy="7.655385"
       sodipodi:r1="8.4433117"
       sodipodi:r2="6.7546492"
       sodipodi:arg1="0.17219081"
       sodipodi:arg2="0.5648899"
       inkscape:rounded="0"
       inkscape:randomized="0"
       d="M 14.949099,9.1020719 12.335946,11.271303 11.489719,14.560379 8.1080634,14.24648 5.1839617,15.973835 3.0147308,13.360683 -0.27434587,12.514455 0.03955379,9.1327998 -1.6878013,6.2086981 0.92535078,4.0394672 1.7715784,0.75039054 5.1532339,1.0642902 8.0773355,-0.66306492 10.246566,1.9500872 l 3.289077,0.8462276 -0.3139,3.3816555 z"
       transform="matrix(1.4263092,0,0,1.4263092,13.083996,7.2434982)" />
    <path
       sodipodi:type="star"
       style="fill:#5f4316;fill-opacity:0;fill-rule:nonzero;stroke:#312114;stroke-width:0.30749;stroke-linejoin:miter;stroke-dasharray:none;stroke-opacity:1"
       id="path1620-8-5"
       inkscape:flatsided="false"
       sodipodi:sides="8"
       sodipodi:cx="6.6306486"
       sodipodi:cy="7.655385"
       sodipodi:r1="8.4433117"
       sodipodi:r2="6.7546492"
       sodipodi:arg1="0.17219081"
       sodipodi:arg2="0.5648899"
       inkscape:rounded="0"
       inkscape:randomized="0"
       d="M 14.949099,9.1020719 12.335946,11.271303 11.489719,14.560379 8.1080634,14.24648 5.1839617,15.973835 3.0147308,13.360683 -0.27434587,12.514455 0.03955379,9.1327998 -1.6878013,6.2086981 0.92535078,4.0394672 1.7715784,0.75039054 5.1532339,1.0642902 8.0773355,-0.66306492 10.246566,1.9500872 l 3.289077,0.8462276 -0.3139,3.3816555 z"
       transform="matrix(1.2807363,0,0,1.2807363,14.04924,8.357915)" />
    <path
       sodipodi:type="star"
       style="fill:#5f4316;fill-opacity:0;fill-rule:nonzero;stroke:#312114;stroke-width:0.30749;stroke-linejoin:miter;stroke-dasharray:none;stroke-opacity:1"
       id="path1620-8-5-7"
       inkscape:flatsided="false"
       sodipodi:sides="8"
       sodipodi:cx="6.6306486"
       sodipodi:cy="7.655385"
       sodipodi:r1="8.4433117"
       sodipodi:r2="6.7546492"
       sodipodi:arg1="0.17219081"
       sodipodi:arg2="0.5648899"
       inkscape:rounded="0"
       inkscape:randomized="0"
       d="M 14.949099,9.1020719 12.335946,11.271303 11.489719,14.560379 8.1080634,14.24648 5.1839617,15.973835 3.0147308,13.360683 -0.27434587,12.514455 0.03955379,9.1327998 -1.6878013,6.2086981 0.92535078,4.0394672 1.7715784,0.75039054 5.1532339,1.0642902 8.0773355,-0.66306492 10.246566,1.9500872 l 3.289077,0.8462276 -0.3139,3.3816555 z"
       transform="matrix(1.1429956,0,0,1.1429956,14.96255,9.4123729)" />
    <path
       sodipodi:type="star"
       style="fill:#5f4316;fill-opacity:0;fill-rule:nonzero;stroke:#312114;stroke-width:0.30749;stroke-linejoin:miter;stroke-dasharray:none;stroke-opacity:1"
       id="path1620-8-5-7-3"
       inkscape:flatsided="false"
       sodipodi:sides="8"
       sodipodi:cx="6.6306486"
       sodipodi:cy="7.655385"
       sodipodi:r1="8.4433117"
       sodipodi:r2="6.7546492"
       sodipodi:arg1="0.17219081"
       sodipodi:arg2="0.5648899"
       inkscape:rounded="0"
       inkscape:randomized="0"
       d="M 14.949099,9.1020719 12.335946,11.271303 11.489719,14.560379 8.1080634,14.24648 5.1839617,15.973835 3.0147308,13.360683 -0.27434587,12.514455 0.03955379,9.1327998 -1.6878013,6.2086981 0.92535078,4.0394672 1.7715784,0.75039054 5.1532339,1.0642902 8.0773355,-0.66306492 10.246566,1.9500872 l 3.289077,0.8462276 -0.3139,3.3816555 z"
       transform="matrix(1.0048732,0,0,1.0048732,15.87839,10.469753)" />
    <path
       sodipodi:type="star"
       style="fill:#5f4316;fill-opacity:0;fill-rule:nonzero;stroke:#312114;stroke-width:0.30749;stroke-linejoin:miter;stroke-dasharray:none;stroke-opacity:1"
       id="path1620-8-5-7-3-2"
       inkscape:flatsided="false"
       sodipodi:sides="8"
       sodipodi:cx="6.6306486"
       sodipodi:cy="7.655385"
       sodipodi:r1="8.4433117"
       sodipodi:r2="6.7546492"
       sodipodi:arg1="0.17219081"
       sodipodi:arg2="0.5648899"
       inkscape:rounded="0"
       inkscape:randomized="0"
       d="M 14.949099,9.1020719 12.335946,11.271303 11.489719,14.560379 8.1080634,14.24648 5.1839617,15.973835 3.0147308,13.360683 -0.27434587,12.514455 0.03955379,9.1327998 -1.6878013,6.2086981 0.92535078,4.0394672 1.7715784,0.75039054 5.1532339,1.0642902 8.0773355,-0.66306492 10.246566,1.9500872 l 3.289077,0.8462276 -0.3139,3.3816555 z"
       transform="matrix(0.84836116,0,0,0.84836116,16.916166,11.667913)" />
    <path
       sodipodi:type="star"
       style="fill:#5f4316;fill-opacity:0;fill-rule:nonzero;stroke:#312114;stroke-width:0.30749;stroke-linejoin:miter;stroke-dasharray:none;stroke-opacity:1"
       id="path1620-8-5-7-3-2-7"
       inkscape:flatsided="false"
       sodipodi:sides="8"
       sodipodi:cx="6.6306486"
       sodipodi:cy="7.655385"
       sodipodi:r1="8.4433117"
       sodipodi:r2="6.7546492"
       sodipodi:arg1="0.17219081"
       sodipodi:arg2="0.5648899"
       inkscape:rounded="0"
       inkscape:randomized="0"
       d="M 14.949099,9.1020719 12.335946,11.271303 11.489719,14.560379 8.1080634,14.24648 5.1839617,15.973835 3.0147308,13.360683 -0.27434587,12.514455 0.03955379,9.1327998 -1.6878013,6.2086981 0.92535078,4.0394672 1.7715784,0.75039054 5.1532339,1.0642902 8.0773355,-0.66306492 10.246566,1.9500872 l 3.289077,0.8462276 -0.3139,3.3816555 z"
       transform="matrix(0.68314932,0,0,0.68314932,18.011628,12.932673)" />
    <path
       sodipodi:type="star"
       style="fill:#5f4316;fill-opacity:0;fill-rule:nonzero;stroke:#312114;stroke-width:0.30749;stroke-linejoin:miter;stroke-dasharray:none;stroke-opacity:1"
       id="path1620-8-5-7-3-2-7-0"
       inkscape:flatsided="false"
       sodipodi:sides="8"
       sodipodi:cx="6.6306486"
       sodipodi:cy="7.655385"
       sodipodi:r1="8.4433117"
       sodipodi:r2="6.7546492"
       sodipodi:arg1="0.17219081"
       sodipodi:arg2="0.5648899"
       inkscape:rounded="0"
       inkscape:randomized="0"
       d="M 14.949099,9.1020719 12.335946,11.271303 11.489719,14.560379 8.1080634,14.24648 5.1839617,15.973835 3.0147308,13.360683 -0.27434587,12.514455 0.03955379,9.1327998 -1.6878013,6.2086981 0.92535078,4.0394672 1.7715784,0.75039054 5.1532339,1.0642902 8.0773355,-0.66306492 10.246566,1.9500872 l 3.289077,0.8462276 -0.3139,3.3816555 z"
       transform="matrix(0.56047966,0,0,0.56047966,18.825007,13.871757)" />
    <path
       sodipodi:type="star"
       style="fill:#5f4316;fill-opacity:0;fill-rule:nonzero;stroke:#312114;stroke-width:0.30749;stroke-linejoin:miter;stroke-dasharray:none;stroke-opacity:1"
       id="path1620-8-5-7-3-2-7-0-0"
       inkscape:flatsided="false"
       sodipodi:sides="8"
       sodipodi:cx="6.6306486"
       sodipodi:cy="7.655385"
       sodipodi:r1="8.4433117"
       sodipodi:r2="6.7546492"
       sodipodi:arg1="0.17219081"
       sodipodi:arg2="0.5648899"
       inkscape:rounded="0"
       inkscape:randomized="0"
       d="M 14.949099,9.1020719 12.335946,11.271303 11.489719,14.560379 8.1080634,14.24648 5.1839617,15.973835 3.0147308,13.360683 -0.27434587,12.514455 0.03955379,9.1327998 -1.6878013,6.2086981 0.92535078,4.0394672 1.7715784,0.75039054 5.1532339,1.0642902 8.0773355,-0.66306492 10.246566,1.9500872 l 3.289077,0.8462276 -0.3139,3.3816555 z"
       transform="matrix(0.44855257,0,0,0.44855257,19.567157,14.728601)" />
    <path
       sodipodi:type="star"
       style="fill:#5f4316;fill-opacity:0;fill-rule:nonzero;stroke:#312114;stroke-width:0.30749;stroke-linejoin:miter;stroke-dasharray:none;stroke-opacity:1"
       id="path1620-8-5-7-3-2-7-0-0-8"
       inkscape:flatsided="false"
       sodipodi:sides="8"
       sodipodi:cx="6.6306486"
       sodipodi:cy="7.655385"
       sodipodi:r1="8.4433117"
       sodipodi:r2="6.7546492"
       sodipodi:arg1="0.17219081"
       sodipodi:arg2="0.5648899"
       inkscape:rounded="0"
       inkscape:randomized="0"
       d="M 14.949099,9.1020719 12.335946,11.271303 11.489719,14.560379 8.1080634,14.24648 5.1839617,15.973835 3.0147308,13.360683 -0.27434587,12.514455 0.03955379,9.1327998 -1.6878013,6.2086981 0.92535078,4.0394672 1.7715784,0.75039054 5.1532339,1.0642902 8.0773355,-0.66306492 10.246566,1.9500872 l 3.289077,0.8462276 -0.3139,3.3816555 z"
       transform="matrix(0.33713147,0,0,0.33713147,20.305951,15.581573)" />
    <path
       sodipodi:type="star"
       style="fill:#312114;fill-opacity:1;fill-rule:nonzero;stroke:#4b2e00;stroke-width:0;stroke-linejoin:miter;stroke-dasharray:none;stroke-opacity:1"
       id="path1620-8-5-7-3-2-7-0-0-8-4"
       inkscape:flatsided="false"
       sodipodi:sides="8"
       sodipodi:cx="6.6306486"
       sodipodi:cy="7.655385"
       sodipodi:r1="8.4433117"
       sodipodi:r2="6.7546492"
       sodipodi:arg1="0.17219081"
       sodipodi:arg2="0.5648899"
       inkscape:rounded="0"
       inkscape:randomized="0"
       d="M 14.949099,9.1020719 12.335946,11.271303 11.489719,14.560379 8.1080634,14.24648 5.1839617,15.973835 3.0147308,13.360683 -0.27434587,12.514455 0.03955379,9.1327998 -1.6878013,6.2086981 0.92535078,4.0394672 1.7715784,0.75039054 5.1532339,1.0642902 8.0773355,-0.66306492 10.246566,1.9500872 l 3.289077,0.8462276 -0.3139,3.3816555 z"
       transform="matrix(0.23693543,0,0,0.23693543,20.970315,16.348612)" />
    <path
       d="M -3.1114906,2.7709572 0.07094148,-1.2622123 6.4317207,-2.4345578 0.57420784,2.2728895 -3.9464346,9.6726024 -7.8071864,11.146329 Z"
       fill="#6d4a2c"
       stroke="#1b1917"
       stroke-width="1.06449"
       stroke-miterlimit="16"
       stroke-linejoin="round"
       id="path4"
       style="opacity:0.9;stroke:#312114;stroke-opacity:1"
       sodipodi:nodetypes="ccccccc" />
    <path
       d="M 2.162376,8.5273548 C 2.4613915,6.924565 1.7397521,3.446163 -0.19192309,4.4504814 -2.0275109,5.6212302 0.62389256,7.9853898 2.161494,8.5279427 l 2.813e-4,5.738e-4 c 2.805e-4,-2.804e-4 4.585e-4,-0.00102 5.936e-4,-0.00115 z"
       fill="#5f926a"
       id="path46"
       style="opacity:0.9;fill:#588a42;fill-opacity:1;stroke:#173114;stroke-width:0.39687503;stroke-dasharray:none;stroke-opacity:1" />
    <path
       d="m 5.7233318,2.864761 -0.00157,4.625e-4 C 3.8077365,1.9444935 -0.80639221,1.6743196 -0.19202709,4.4503613 0.66396097,7.1616559 4.5246664,4.6206185 5.7220508,2.8664076 l 0.00157,-4.633e-4 c -2.934e-4,-6e-7 -7.084e-4,-1.466e-4 -8.349e-4,-2.73e-4 2.81e-4,-2.81e-4 2.808e-4,-5.746e-4 5.922e-4,-8.862e-4 z"
       fill="#587e60"
       id="path48"
       style="opacity:0.9;fill:#609648;fill-opacity:1;stroke:#173114;stroke-width:0.39687503;stroke-dasharray:none;stroke-opacity:1" />
    <path
       d="m -2.4168992,-0.47523963 c 1.57739705,0.29427693 5.0006905,-0.41592876 4.0122852,-2.31700077 -1.15220204,-1.8065071 -3.4789068,0.8028895 -4.0128647,2.31613216 l -5.736e-4,2.8134e-4 c 2.805e-4,2.8052e-4 0.00102,4.5762e-4 0.00116,5.9287e-4 z"
       fill="#5f926a"
       id="path46-6"
       style="opacity:0.9;fill:#588a42;fill-opacity:1;stroke:#173114;stroke-width:0.39687503;stroke-dasharray:none;stroke-opacity:1" />
    <path
       d="m 0.42738497,-7.5459807 4.6935e-4,0.0016 C -0.4782953,-5.6606842 -0.744188,-1.1196553 1.9878733,-1.7242859 4.6562199,-2.5667073 2.1554398,-6.3662481 0.42902097,-7.5446615 l -4.6951e-4,-0.0016 c 1.6e-7,2.812e-4 -1.4085e-4,7.05e-4 -2.8139e-4,8.457e-4 -2.8219e-4,-2.821e-4 -5.6326e-4,-2.823e-4 -8.7955e-4,-5.985e-4 z"
       fill="#587e60"
       id="path48-7"
       style="opacity:0.9;fill:#609648;fill-opacity:1;stroke:#173114;stroke-width:0.39687503;stroke-dasharray:none;stroke-opacity:1" />
    <path
       d="m 1.6959016,1.1794167 -4.075e-4,7.014e-4 C 0.42850293,1.59538 -1.7337609,3.4709915 -0.1920398,4.4502947 1.4270839,5.2959836 1.9702253,2.4855092 1.6963733,1.1804087 l 2.809e-4,-5.751e-4 c 2.938e-4,5e-7 0,0 0,0 5e-7,-2.927e-4 -7.08e-4,-1.466e-4 -7.001e-4,-4.075e-4 z"
       fill="#77a37a"
       id="path50"
       style="opacity:0.9;fill:#588a42;fill-opacity:1;stroke:#173114;stroke-width:0.39687503;stroke-dasharray:none;stroke-opacity:1" />
    <path
       d="m 47.548122,2.8449937 0.829941,7.0392167 -5.061604,7.3489786 1.121954,-10.3067012 -2.808689,-11.6289614 2.32867,-5.2040789 z"
       fill="#6d4a2c"
       stroke="#1b1917"
       stroke-width="1.46862"
       stroke-miterlimit="16"
       stroke-linejoin="round"
       id="path4-5"
       style="opacity:0.9;stroke:#312114;stroke-opacity:1"
       sodipodi:nodetypes="ccccccc" />
    <path
       d="m 36.787493,2.3742582 c 1.271905,1.8553163 5.369276,4.5446913 6.273961,1.6804666 0.648588,-2.9328484 -4.244369,-2.6526274 -6.273676,-1.6819007 l -8.33e-4,-2.837e-4 c 10e-7,5.468e-4 5.48e-4,0.00145 5.48e-4,0.0017 z"
       fill="#5f926a"
       id="path46-83"
       style="opacity:0.9;fill:#588a42;fill-opacity:1;stroke:#173114;stroke-width:0.39687503;stroke-dasharray:none;stroke-opacity:1" />
    <path
       d="m 38.837757,11.372341 0.0011,-0.0021 C 41.604297,10.401265 46.369201,6.1634981 43.061675,4.0546647 39.581593,2.2447106 38.294184,8.489966 38.8374,11.369408 l -0.0011,0.0021 c 2.89e-4,-2.85e-4 8.37e-4,-5.49e-4 0.0011,-5.47e-4 10e-7,5.48e-4 2.87e-4,8.34e-4 2.87e-4,0.0014 z"
       fill="#587e60"
       id="path48-41"
       style="opacity:0.9;fill:#609648;fill-opacity:1;stroke:#173114;stroke-width:0.39687503;stroke-dasharray:none;stroke-opacity:1" />
    <path
       d="m 50.037355,6.6894487 c -1.825923,1.2517545 -4.472688,5.2842113 -1.653844,6.1745663 2.886383,0.638311 2.6106,-4.1771261 1.655258,-6.174286 l 2.84e-4,-8.306e-4 c -5.47e-4,0 -0.0014,5.468e-4 -0.0017,5.485e-4 z"
       fill="#5f926a"
       id="path46-6-7"
       style="opacity:0.9;fill:#588a42;fill-opacity:1;stroke:#173114;stroke-width:0.39687503;stroke-dasharray:none;stroke-opacity:1" />
    <path
       d="m 54.160498,16.362104 -0.0021,-0.0011 C 53.204753,13.63936 49.03412,8.949941 46.958697,12.205066 c -1.781294,3.424949 4.365018,4.691963 7.198841,4.15735 l 0.0021,0.0011 c -2.73e-4,-2.74e-4 -5.51e-4,-8.25e-4 -5.52e-4,-0.0011 5.52e-4,0 8.26e-4,-2.75e-4 0.0014,-2.75e-4 z"
       fill="#587e60"
       id="path48-7-4"
       style="opacity:0.9;fill:#609648;fill-opacity:1;stroke:#173114;stroke-width:0.39687503;stroke-dasharray:none;stroke-opacity:1" />
    <path
       d="m 44.410883,9.0875052 -2.9e-4,-0.00108 c 0.83091,-1.6411293 1.110557,-5.5803 -1.34884,-5.0316331 C 40.657193,4.8093236 42.86911,8.0809606 44.409452,9.087 l 2.91e-4,8.348e-4 c -2.91e-4,2.845e-4 0,0 0,0 2.85e-4,2.821e-4 8.32e-4,-5.468e-4 0.0011,-2.845e-4 z"
       fill="#77a37a"
       id="path50-9"
       style="opacity:0.9;fill:#588a42;fill-opacity:1;stroke:#173114;stroke-width:0.39687503;stroke-dasharray:none;stroke-opacity:1" />
    <path
       d="M 10.343832,41.544182 6.1613459,38.24393 4.9455971,31.64766 l 4.8817281,6.074371 7.6736668,4.688006 1.528287,4.003687 z"
       fill="#6d4a2c"
       stroke="#1b1917"
       stroke-width="1.1039"
       stroke-miterlimit="16"
       stroke-linejoin="round"
       id="path4-6"
       style="opacity:0.9;stroke:#312114;stroke-opacity:1"
       sodipodi:nodetypes="ccccccc" />
    <path
       d="m 16.313344,36.075065 c -1.66213,-0.310086 -5.269309,0.43827 -4.227808,2.44146 1.214093,1.903547 3.665778,-0.846017 4.228418,-2.440546 l 5.95e-4,-2.9e-4 c -2.91e-4,-2.92e-4 -0.0011,-4.76e-4 -0.0012,-6.16e-4 z"
       fill="#5f926a"
       id="path46-8"
       style="opacity:0.9;fill:#588a42;fill-opacity:1;stroke:#173114;stroke-width:0.39687503;stroke-dasharray:none;stroke-opacity:1" />
    <path
       d="m 10.441109,32.382274 4.79e-4,0.0016 c -0.9548171,1.984884 -1.234993,6.769837 1.643823,6.132728 2.811674,-0.88768 0.17656,-4.891316 -1.642594,-6.13303 l -4.81e-4,-0.0016 c -10e-7,3.05e-4 -1.53e-4,7.36e-4 -2.83e-4,8.65e-4 -2.92e-4,-2.9e-4 -5.97e-4,-2.9e-4 -9.19e-4,-6.13e-4 z"
       fill="#587e60"
       id="path48-4"
       style="opacity:0.9;fill:#609648;fill-opacity:1;stroke:#173114;stroke-width:0.39687503;stroke-dasharray:none;stroke-opacity:1" />
    <path
       d="M 6.9774534,40.823875 C 7.2826256,39.188078 6.5461257,35.638049 4.5746725,36.663046 2.7012844,37.857907 5.4072867,40.27075 6.9765536,40.824478 l 2.912e-4,5.93e-4 c 2.911e-4,-2.91e-4 4.737e-4,-0.0011 6.152e-4,-0.0012 z"
       fill="#5f926a"
       id="path46-6-1"
       style="opacity:0.9;fill:#588a42;fill-opacity:1;stroke:#173114;stroke-width:0.39687503;stroke-dasharray:none;stroke-opacity:1" />
    <path
       d="m -0.35506271,37.87429 0.001644,-4.87e-4 C 1.6000308,38.8135 6.3091789,39.089235 5.6821634,36.256029 4.8085545,33.488894 0.86834567,36.082257 -0.35369508,37.872592 l -0.001644,4.87e-4 c 2.9113e-4,0 7.3197e-4,1.47e-4 8.7666e-4,2.93e-4 -2.9265e-4,2.93e-4 -2.9265e-4,5.84e-4 -6.2016e-4,9.11e-4 z"
       fill="#587e60"
       id="path48-7-2"
       style="opacity:0.9;fill:#609648;fill-opacity:1;stroke:#173114;stroke-width:0.39687503;stroke-dasharray:none;stroke-opacity:1" />
  </g>
  <metadata
     id="metadata6004">
    <rdf:RDF>
      <cc:Work
         rdf:about="">
        <dc:creator>
          <cc:Agent>
            <dc:title>Radians</dc:title>
          </cc:Agent>
        </dc:creator>
      </cc:Work>
    </rdf:RDF>
  </metadata>
</svg>
