<svg xmlns="http://www.w3.org/2000/svg" width="255.204" height="260.868" viewBox="0 0 67.523 69.021"><g style="stroke:#372915;stroke-width:2.36953;stroke-linecap:round;stroke-dasharray:none;stroke-opacity:1"><path fill="#5d4523" fill-rule="evenodd" stroke="none" d="M7810.996 1828.379v-4.705h85.203v4.705z" style="stroke:none;stroke-width:2.36953;stroke-linecap:round;stroke-miterlimit:10;stroke-dasharray:none;stroke-opacity:1" transform="matrix(.78162 0 0 -.78162 -6104.33 1487.987)"/><path fill="#5d4523" fill-rule="evenodd" d="M7811.085 1895.448v-4.705h75.83v4.705z" style="stroke:#372915;stroke-width:2.36953;stroke-linecap:round;stroke-miterlimit:10;stroke-dasharray:none;stroke-opacity:1" transform="matrix(.78162 0 0 -.78162 -6104.33 1487.987)"/><g stroke="#2e2910" stroke-linecap="butt" stroke-linejoin="round" stroke-width="1.669"><path d="M7810.996 1828.379v-4.705h83.67v4.705zM7811.085 1895.448v-4.705h75.83v4.705z" style="fill:none;stroke:#372915;stroke-width:2.36953;stroke-linecap:round;stroke-miterlimit:10;stroke-dasharray:none;stroke-opacity:1" transform="matrix(.78162 0 0 -.78162 -6104.33 1487.987)"/></g><g fill-rule="evenodd" style="stroke:#372915;stroke-width:2.36953;stroke-linecap:round;stroke-dasharray:none;stroke-opacity:1"><path fill="#785a2e" d="M7846.865 1927.085v15.087h-85.936v-15.087zM7846.865 1947.346v15.087h-85.936v-15.087z" style="stroke:#372915;stroke-width:2.36953;stroke-linecap:round;stroke-miterlimit:10;stroke-dasharray:none;stroke-opacity:1" transform="matrix(0 .78162 .78162 0 -1492.375 -6065.197)"/><path fill="#765628" d="M7846.865 1967.607v15.087h-85.936v-15.087z" style="stroke:#372915;stroke-width:2.36953;stroke-linecap:round;stroke-miterlimit:10;stroke-dasharray:none;stroke-opacity:1" transform="matrix(0 .78162 .78162 0 -1492.375 -6065.197)"/></g></g></svg>