<?xml version="1.0" encoding="UTF-8" standalone="no"?>
<svg
   xml:space="preserve"
   width="100"
   height="100"
   version="1.1"
   id="svg10"
   sodipodi:docname="bush_residue.svg"
   inkscape:version="1.4 (86a8ad7, 2024-10-11)"
   xmlns:inkscape="http://www.inkscape.org/namespaces/inkscape"
   xmlns:sodipodi="http://sodipodi.sourceforge.net/DTD/sodipodi-0.dtd"
   xmlns="http://www.w3.org/2000/svg"
   xmlns:svg="http://www.w3.org/2000/svg"><defs
     id="defs10" /><sodipodi:namedview
     id="namedview10"
     pagecolor="#ffffff"
     bordercolor="#000000"
     borderopacity="0.25"
     inkscape:showpageshadow="2"
     inkscape:pageopacity="0.0"
     inkscape:pagecheckerboard="0"
     inkscape:deskcolor="#d1d1d1"
     inkscape:zoom="7.73"
     inkscape:cx="42.690815"
     inkscape:cy="56.209573"
     inkscape:window-width="1920"
     inkscape:window-height="991"
     inkscape:window-x="-9"
     inkscape:window-y="-9"
     inkscape:window-maximized="1"
     inkscape:current-layer="g10" /><g
     style="opacity:1"
     id="g10"><path
       d="m 68.311794,88.955974 c -2.980824,-3.133158 -1.088056,-9.658173 3.222909,-10.79003 7.419482,-1.9493 22.812936,6.057731 20.590402,11.702075 -2.219412,5.644173 -18.743527,4.414975 -23.813311,-0.912045"
       style="fill:#215101;fill-opacity:0.92549;stroke:none;stroke-width:0;stroke-linejoin:round;stroke-dasharray:none"
       id="path1" /><path
       d="M 71.450746,88.697343 C 65.129521,87.269406 60.228297,76.614997 63.439603,70.987251 c 5.527934,-9.68817 31.674831,-8.500871 33.265498,-3.6419 1.587545,4.859141 -14.502915,23.780133 -25.254355,21.351992"
       style="fill:#325e17;fill-opacity:0.92549;stroke:none;stroke-width:0;stroke-linejoin:round;stroke-dasharray:none"
       id="path2" /><path
       d="m 71.801809,75.510296 c -2.290964,3.266854 -8.297114,2.593578 -9.950418,-1.202097 -2.840461,-6.534937 4.540192,-21.643787 7.107712,-20.953877 2.570642,0.689741 6.737066,16.594354 2.84106,22.154498"
       style="fill:#478623;fill-opacity:0.93;stroke:none;stroke-width:0;stroke-linejoin:round;stroke-dasharray:none"
       id="path3" /><path
       d="M-4877.982-2021.819c-.859 1.757-3.923 1.983-5.083.334-1.996-2.838-1.027-10.627 1.717-10.575s4.826 7.252 3.366 10.241"
       style="fill:#215101;fill-opacity:0.92549002;stroke:none;stroke-width:0;stroke-linejoin:round;stroke-dasharray:none"
       transform="matrix(2.21076 0 0 2.21076 10817.634 4536.018)"
       id="path4" /><path
       d="M-4878.586-2023.109c.391 2.905-3.354 6.662-6.246 6.187-4.98-.816-8.597-12.09-6.787-13.53s12.368 2.401 13.033 7.343"
       style="fill:#325e18;fill-opacity:0.92549002;stroke:none;stroke-width:0;stroke-linejoin:round;stroke-dasharray:none"
       transform="matrix(2.21076 0 0 2.21076 10817.634 4536.018)"
       id="path5" /><path
       d="M-4884.233-2021.18c1.746.456 2.407 3.11 1.058 4.408-2.322 2.235-9.891 1.487-10.004.289s5.974-5.471 8.946-4.696"
       style="fill:#478523;fill-opacity:0.92549002;stroke:none;stroke-width:0;stroke-linejoin:round;stroke-dasharray:none"
       transform="matrix(2.21076 0 0 2.21076 10817.634 4536.018)"
       id="path6" /><path
       d="M 45.681878,52.140351 64.20627,35.915439 M 35.871709,16.651127 45.78636,52.13824 36.527499,87.032248"
       style="fill:none;fill-opacity:0.92549;stroke:#452f1c;stroke-width:7.58145;stroke-linecap:round;stroke-dasharray:none;stroke-opacity:1"
       id="path7" /><path
       d="M-4861.994-2032.071c-1.95-.155-3.282-2.923-2.173-4.606 1.91-2.898 9.512-4.85 10.469-2.278s-4.98 7.148-8.296 6.884"
       style="fill:#225101;fill-opacity:0.92549002;stroke:none;stroke-width:0;stroke-linejoin:round;stroke-dasharray:none"
       transform="matrix(2.21076 0 0 2.21076 10817.634 4536.018)"
       id="path8" /><path
       d="M-4861.015-2033.105c-2.56 1.428-7.427-.68-8.045-3.545-1.065-4.932 8.099-12.428 10.102-11.272s2.298 12.388-2.057 14.817"
       style="fill:#305917;fill-opacity:0.92549002;stroke:none;stroke-width:0;stroke-linejoin:round;stroke-dasharray:none"
       transform="matrix(2.21076 0 0 2.21076 10817.634 4536.018)"
       id="path9" /><path
       d="M-4864.88-2037.653c.217 1.793-2.01 3.38-3.712 2.6-2.931-1.342-5.008-8.659-3.934-9.202 1.074-.544 7.279 3.553 7.646 6.602"
       style="fill:#458122;fill-opacity:0.92549002;stroke:none;stroke-width:0;stroke-linejoin:round;stroke-dasharray:none"
       transform="matrix(2.21076 0 0 2.21076 10817.634 4536.018)"
       id="path10" /></g></svg>
