<svg xmlns="http://www.w3.org/2000/svg" xml:space="preserve" width="100" height="100"><g style="opacity:1"><path d="M68.312 88.956c-2.981-3.133-1.088-9.658 3.223-10.79 7.42-1.95 22.813 6.058 20.59 11.702-2.22 5.644-18.743 4.415-23.813-.912" style="fill:#215101;fill-opacity:.92549;stroke:none;stroke-width:0;stroke-linejoin:round;stroke-dasharray:none"/><path d="M71.45 88.697c-6.32-1.428-11.222-12.082-8.01-17.71 5.528-9.688 31.674-8.5 33.265-3.642 1.588 4.86-14.503 23.78-25.254 21.352" style="fill:#325e17;fill-opacity:.92549;stroke:none;stroke-width:0;stroke-linejoin:round;stroke-dasharray:none"/><path d="M71.802 75.51c-2.291 3.267-8.297 2.594-9.95-1.202-2.841-6.535 4.54-21.644 7.107-20.954 2.57.69 6.737 16.595 2.841 22.155" style="fill:#478623;fill-opacity:.93;stroke:none;stroke-width:0;stroke-linejoin:round;stroke-dasharray:none"/><path d="M-4877.982-2021.819c-.859 1.757-3.923 1.983-5.083.334-1.996-2.838-1.027-10.627 1.717-10.575s4.826 7.252 3.366 10.241" style="fill:#215101;fill-opacity:.92549002;stroke:none;stroke-width:0;stroke-linejoin:round;stroke-dasharray:none" transform="translate(10817.634 4536.018)scale(2.21076)"/><path d="M-4878.586-2023.109c.391 2.905-3.354 6.662-6.246 6.187-4.98-.816-8.597-12.09-6.787-13.53s12.368 2.401 13.033 7.343" style="fill:#325e18;fill-opacity:.92549002;stroke:none;stroke-width:0;stroke-linejoin:round;stroke-dasharray:none" transform="translate(10817.634 4536.018)scale(2.21076)"/><path d="M-4884.233-2021.18c1.746.456 2.407 3.11 1.058 4.408-2.322 2.235-9.891 1.487-10.004.289s5.974-5.471 8.946-4.696" style="fill:#478523;fill-opacity:.92549002;stroke:none;stroke-width:0;stroke-linejoin:round;stroke-dasharray:none" transform="translate(10817.634 4536.018)scale(2.21076)"/><path d="m45.682 52.14 18.524-16.225M35.872 16.651l9.914 35.487-9.259 34.894" style="fill:none;fill-opacity:.92549;stroke:#452f1c;stroke-width:7.58145;stroke-linecap:round;stroke-dasharray:none;stroke-opacity:1"/><path d="M-4861.994-2032.071c-1.95-.155-3.282-2.923-2.173-4.606 1.91-2.898 9.512-4.85 10.469-2.278s-4.98 7.148-8.296 6.884" style="fill:#225101;fill-opacity:.92549002;stroke:none;stroke-width:0;stroke-linejoin:round;stroke-dasharray:none" transform="translate(10817.634 4536.018)scale(2.21076)"/><path d="M-4861.015-2033.105c-2.56 1.428-7.427-.68-8.045-3.545-1.065-4.932 8.099-12.428 10.102-11.272s2.298 12.388-2.057 14.817" style="fill:#305917;fill-opacity:.92549002;stroke:none;stroke-width:0;stroke-linejoin:round;stroke-dasharray:none" transform="translate(10817.634 4536.018)scale(2.21076)"/><path d="M-4864.88-2037.653c.217 1.793-2.01 3.38-3.712 2.6-2.931-1.342-5.008-8.659-3.934-9.202 1.074-.544 7.279 3.553 7.646 6.602" style="fill:#458122;fill-opacity:.92549002;stroke:none;stroke-width:0;stroke-linejoin:round;stroke-dasharray:none" transform="translate(10817.634 4536.018)scale(2.21076)"/></g></svg>