<svg xmlns="http://www.w3.org/2000/svg" width="112.525" height="78.594" viewBox="0 0 29.772 20.795"><path d="m84.4 104.087 6.45-1.73-3.746 2.584 3.266-1.145-3.213 2.336 2.056-.384-2.586 2.196 15.429-8.907-1.069.066-4.254 1.286 4.13-2.147-3.89.943 2.521-1.475-.608-.307-2.946 1.003 3.889-3.226z" style="fill:#a87e5a;fill-opacity:1;stroke:#63462c;stroke-width:.529167;stroke-linecap:square;stroke-opacity:1" transform="translate(-82.925 -94.95)"/><path d="m99.697 94.951-15.43 8.907.202.484 4.969-1.334-2.485 1.715.238.466 1.569-.55-1.758 1.279.203.475 1.078-.202-1.826 1.551.303.432 15.428-8.908-.15-.492-1.098.066-1.56.47 1.606-.834-.185-.491-2.137.517 1.383-.808-1.14-.577-1.694.577 2.785-2.311z" style="color:#000;fill:#185b68;stroke-linecap:square;-inkscape-stroke:none;fill-opacity:.60000002" transform="translate(-82.925 -94.95)"/><path d="m84.938 98.772 3.455 2.065-1.768.568 2.792.904.939 1.19-2.07-.16-3.108-.795-1.393.53 17.208 4.61-.39-1.123-4.557-2.057 3.18.346-2.06-1.519 4.98.052zm27.53 1.413-2.659 2.522.344-1.53-1.32 1.827 1.19-3.115-1.333 1.533-.798-.057.694-1.356.025-2.051-8.907 15.428s2.523-2.483 2.486-2.395-.214 1.681-.214 1.681l.745-1.138 1.272-2.17-.336 1.736 1.549-2.082-1.38 3.68 1.365-1.583-1.63 4.498z" style="fill:#a87e5a;fill-opacity:1;stroke:#63462c;stroke-width:.529167;stroke-linecap:square;stroke-opacity:1" transform="translate(-82.925 -94.95)"/><path d="m85.006 98.516-.203.482 2.953 1.766-1.994.64 3.498 1.131.516.654-1.446-.113-3.168-.809-2.236.85 18.48 4.951-.591-1.701-3.147-1.42 2.506.272-2.192-1.616 4.16.044.073-.52zm23.883-1.566-9.414 16.304.414.32s.63-.62 1.255-1.228q.372-.361.68-.656l-.017.144c-.05.41-.094.809-.094.809l.484.173.748-1.142.493-.842-.042.217.473.209.432-.58-.723 1.927.45.266.423-.492-1.138 3.144.478.223 8.906-15.43-.41-.324-2.027 1.924.152-.68-.472-.212-.143.195.472-1.235-.447-.27-1.246 1.435-.267-.02.54-1.055z" style="color:#000;fill:#185b68;stroke-linecap:square;-inkscape-stroke:none;fill-opacity:.60000002" transform="translate(-82.925 -94.95)"/></svg>