<svg xmlns="http://www.w3.org/2000/svg" width="58.288" height="58.288" viewBox="0 0 15.422 15.422"><path d="m14.95 9.102-2.215 2.422-1.245 3.036-3.279.148-3.027 1.266-2.422-2.214-3.036-1.246-.147-3.278-1.267-3.027L.526 3.787 1.772.75 5.05.603 8.077-.663 10.5 1.55l3.037 1.245.147 3.279Z" style="fill:#6d4a2c;fill-opacity:1;stroke:#2b1e12;stroke-width:.842599;stroke-linejoin:round;stroke-dasharray:none;stroke-opacity:1" transform="scale(-.86987)rotate(79.816 8.76 -9.868)"/><path d="m14.95 9.102-2.215 2.422-1.245 3.036-3.279.148-3.027 1.266-2.422-2.214-3.036-1.246-.147-3.278-1.267-3.027L.526 3.787 1.772.75 5.05.603 8.077-.663 10.5 1.55l3.037 1.245.147 3.279Z" style="fill:#48321e;fill-opacity:1;stroke:#48321e;stroke-width:3.50677;stroke-linejoin:round;stroke-dasharray:none;stroke-opacity:1" transform="matrix(-.0667 -.3713 .3713 -.0667 5.31 10.684)"/></svg>