<?xml version="1.0" encoding="UTF-8" standalone="no"?>
<!-- Created with Inkscape (http://www.inkscape.org/) -->

<svg
   width="62.725834mm"
   height="36.881458mm"
   viewBox="0 0 62.725834 36.881458"
   version="1.1"
   id="svg1"
   inkscape:version="1.3.2 (091e20e, 2023-11-25, custom)"
   sodipodi:docname="aegis_golden_case.svg"
   xmlns:inkscape="http://www.inkscape.org/namespaces/inkscape"
   xmlns:sodipodi="http://sodipodi.sourceforge.net/DTD/sodipodi-0.dtd"
   xmlns="http://www.w3.org/2000/svg"
   xmlns:svg="http://www.w3.org/2000/svg">
  <sodipodi:namedview
     id="namedview1"
     pagecolor="#ffffff"
     bordercolor="#000000"
     borderopacity="0.25"
     inkscape:showpageshadow="2"
     inkscape:pageopacity="0.0"
     inkscape:pagecheckerboard="0"
     inkscape:deskcolor="#d1d1d1"
     inkscape:document-units="mm"
     inkscape:zoom="0.71713664"
     inkscape:cx="118.52692"
     inkscape:cy="69.024502"
     inkscape:window-width="1920"
     inkscape:window-height="1001"
     inkscape:window-x="-9"
     inkscape:window-y="-9"
     inkscape:window-maximized="1"
     inkscape:current-layer="layer1" />
  <defs
     id="defs1">
    <inkscape:path-effect
       effect="bspline"
       id="path-effect9094"
       is_visible="true"
       lpeversion="1"
       weight="33.333333"
       steps="2"
       helper_size="0"
       apply_no_weight="true"
       apply_with_weight="true"
       only_selected="false"
       uniform="false" />
    <inkscape:path-effect
       effect="bspline"
       id="path-effect9098"
       is_visible="true"
       lpeversion="1"
       weight="33.333333"
       steps="2"
       helper_size="0"
       apply_no_weight="true"
       apply_with_weight="true"
       only_selected="false"
       uniform="false" />
    <inkscape:path-effect
       effect="bspline"
       id="path-effect9102"
       is_visible="true"
       lpeversion="1"
       weight="33.333333"
       steps="2"
       helper_size="0"
       apply_no_weight="true"
       apply_with_weight="true"
       only_selected="false"
       uniform="false" />
  </defs>
  <g
     inkscape:label="Στρώση 1"
     inkscape:groupmode="layer"
     id="layer1"
     transform="translate(-73.818756,-130.175)">
    <g
       id="g9090"
       transform="translate(478.89655,-407.59611)">
      <path
         id="path9046"
         class="st0"
         d="m -377.7951,568.923 h 8.3173 c 0.2906,0 0.5085,0.218 0.5085,0.5085 v 3.9226 c 0,0.2906 -0.2179,0.5085 -0.5085,0.5085 h -8.3173 c -0.2906,0 -0.5085,-0.2179 -0.5085,-0.5085 v -3.9226 c 0.036,-0.2905 0.2542,-0.5085 0.5085,-0.5085 z"
         style="fill:none;stroke:#1a1a1a;stroke-width:1.57994;stroke-linecap:round;stroke-linejoin:round;stroke-miterlimit:11.3386;stroke-opacity:1" />
      <path
         id="path9048"
         class="st5"
         d="m -395.5362,570.4546 h 3.3032 c 0.5082,0 0.8893,0.3811 0.8893,0.8892 v 1.1434 c 0,0.5083 -0.3811,0.8894 -0.8893,0.8894 h -3.3032 c -0.5081,0 -0.8892,-0.3811 -0.8892,-0.8894 v -1.1434 c 0,-0.5081 0.3811,-0.8892 0.8892,-0.8892 z"
         style="fill:#a38e28;fill-opacity:1;stroke:#1a1a1a;stroke-width:1.36243;stroke-linecap:round;stroke-linejoin:round;stroke-miterlimit:11.3386;stroke-dasharray:none;stroke-opacity:1" />
      <path
         id="path9050"
         class="st5"
         d="m -353.9301,570.4547 h 3.3029 c 0.5084,0 0.8893,0.381 0.8893,0.889 v 1.1434 c 0,0.5082 -0.3809,0.8892 -0.8893,0.8892 h -3.3029 c -0.5084,0 -0.8894,-0.381 -0.8894,-0.8892 v -1.1434 c 0,-0.508 0.381,-0.889 0.8894,-0.889 z"
         style="fill:#a38e28;fill-opacity:1;stroke:#1a1a1a;stroke-width:1.36235;stroke-linecap:round;stroke-linejoin:round;stroke-miterlimit:11.3386;stroke-dasharray:none;stroke-opacity:1" />
      <rect
         style="fill:#a38e28;fill-opacity:1;stroke:#0d0d0d;stroke-width:2.10792;stroke-linejoin:round;stroke-dasharray:none;stroke-opacity:1;stop-color:#000000"
         id="rect9052"
         width="60.617912"
         height="32.366848"
         x="-404.02383"
         y="538.82507"
         rx="1.3311523"
         ry="1.3311523" />
      <rect
         style="fill:#1a1a1a;fill-opacity:1;stroke:none;stroke-width:1.90879;stroke-linejoin:round;stroke-dasharray:none;stroke-opacity:1;stop-color:#000000"
         id="rect9054"
         width="56.387859"
         height="28.53153"
         x="-401.87906"
         y="540.85559"
         rx="0.23978189"
         ry="0.23978184" />
      <circle
         style="fill:#0f0f0f;fill-opacity:1;fill-rule:evenodd;stroke:#a38e28;stroke-width:0.834395;stroke-linecap:round;stroke-dasharray:none;stroke-opacity:1;paint-order:normal;stop-color:#000000"
         id="circle9056"
         cx="-373.70352"
         cy="555.17126"
         r="9.8475266" />
      <g
         id="g9064"
         transform="matrix(0.60954481,0,0,0.60954481,-1222.0182,-1700.6148)">
        <path
           style="fill:#0f0f0f;fill-opacity:1;stroke:#a38e28;stroke-width:0.944967;stroke-linecap:round;stroke-linejoin:round;stroke-miterlimit:10;stroke-dasharray:none;stroke-opacity:1"
           d="m 1392.0465,3688.2 c 0.3619,0.4112 1.0856,1.2336 1.7599,2.0395 0.6743,0.8059 1.2993,1.5953 1.9079,2.4067 0.6085,0.8114 1.2005,1.6446 1.7378,2.5054 0.5372,0.8607 1.0197,1.7488 1.3924,2.5054 0.3728,0.7565 0.636,1.3815 0.8882,2.1271 0.2522,0.7456 0.4933,1.6117 0.6413,2.3299 0.148,0.7182 0.2029,1.2883 0.2029,1.9078 0,0.6195 -0.055,1.2884 -0.2358,2.0011 -0.1809,0.7126 -0.4879,1.4691 -0.8443,2.1051 -0.3563,0.6359 -0.762,1.1512 -1.2499,1.6501 -0.4879,0.4988 -1.0581,0.9813 -1.6885,1.3705 -0.6305,0.3893 -1.3211,0.6853 -2.0338,0.9046 -0.7127,0.2193 -1.4473,0.3618 -2.0888,0.4331 -0.6414,0.071 -1.1896,0.071 -1.683,0.033 -0.4934,-0.038 -0.932,-0.1151 -1.3212,-0.2138 -0.3893,-0.099 -0.7292,-0.2193 -1.0965,-0.3728 -0.3673,-0.1534 -0.762,-0.3398 -1.2499,-0.6468 -0.488,-0.307 -1.0691,-0.7346 -1.5515,-1.1677 -0.4825,-0.4331 -0.8662,-0.8717 -1.1513,-1.239 -0.2851,-0.3673 -0.4715,-0.6634 -0.6908,-1.1458 -0.2193,-0.4824 -0.4715,-1.1513 -0.625,-1.7105 -0.1535,-0.5592 -0.2084,-1.0087 -0.2248,-1.5021 -0.016,-0.4934 0.01,-1.0306 0.1043,-1.7214 0.099,-0.6908 0.2741,-1.535 0.5592,-2.4232 0.2851,-0.8881 0.6799,-1.8202 1.0746,-2.637 0.3947,-0.8169 0.7894,-1.5186 1.2828,-2.3025 0.4934,-0.784 1.0855,-1.6502 1.7543,-2.5493 0.6689,-0.8991 1.4144,-1.8311 2.0449,-2.6041 0.6305,-0.773 1.1458,-1.387 1.4638,-1.7763 0.318,-0.3892 0.4385,-0.5536 0.4989,-0.6359 0.06,-0.082 0.06,-0.082 0.4219,0.329 z"
           id="path9058"
           inkscape:path-effect="#path-effect9094"
           inkscape:original-d="m 1391.6847,3687.7888 c 0.7237,0.8224 1.4474,1.6448 2.1709,2.467 0.6251,0.7896 1.2501,1.579 1.875,2.3683 0.5922,0.8335 1.1842,1.6667 1.7762,2.4999 0.4826,0.8883 0.965,1.7764 1.4473,2.6644 0.2633,0.6251 0.5264,1.2501 0.7895,1.8749 0.2413,0.8664 0.4825,1.7325 0.7236,2.5986 0.055,0.5703 0.1098,1.1404 0.1645,1.7105 -0.055,0.6689 -0.1096,1.3378 -0.1645,2.0065 -0.3069,0.7567 -0.6139,1.5132 -0.921,2.2696 -0.4056,0.5155 -0.8113,1.0308 -1.2171,1.546 -0.57,0.4826 -1.1402,0.965 -1.7104,1.4473 -0.6907,0.2962 -1.3814,0.5922 -2.0723,0.8882 -0.7345,0.1426 -1.4691,0.2851 -2.2039,0.4276 -0.5481,10e-5 -1.0963,10e-5 -1.6446,0 -0.4385,-0.077 -0.8771,-0.1534 -1.3158,-0.2303 -0.3398,-0.1205 -0.6797,-0.2411 -1.0197,-0.3618 -0.3946,-0.1863 -0.7893,-0.3727 -1.1841,-0.5592 -0.5811,-0.4275 -1.1622,-0.8551 -1.7434,-1.2828 -0.3837,-0.4385 -0.7674,-0.8771 -1.1513,-1.3158 -0.1863,-0.2959 -0.3727,-0.592 -0.5592,-0.8881 -0.252,-0.6687 -0.5042,-1.3376 -0.7565,-2.0065 -0.055,-0.4495 -0.1095,-0.899 -0.1645,-1.3486 0.022,-0.5372 0.044,-1.0744 0.066,-1.6118 0.1756,-0.8442 0.351,-1.6884 0.5263,-2.5328 0.3948,-0.9319 0.7896,-1.8639 1.1842,-2.796 0.3948,-0.7016 0.7895,-1.4033 1.1841,-2.1051 0.5922,-0.8661 1.1843,-1.7323 1.7763,-2.5986 0.7457,-0.9319 1.4913,-1.8639 2.2367,-2.796 0.5155,-0.6139 1.0308,-1.2279 1.546,-1.842 0.1208,-0.1644 0.2414,-0.3288 0.3619,-0.4934 z" />
        <path
           style="fill:#a38e28;fill-opacity:1;stroke:none;stroke-width:0.944815;stroke-linecap:round;stroke-linejoin:round;stroke-miterlimit:10"
           d="m 1387.6069,3703.2502 c -0.016,-0.2028 -0.05,-0.6085 -0.039,-1.069 0.011,-0.4605 0.066,-0.9758 0.1972,-1.4912 0.1316,-0.5154 0.3399,-1.0307 0.6031,-1.5351 0.2632,-0.5044 0.5811,-0.9978 0.9484,-1.5022 0.3674,-0.5043 0.784,-1.0196 1.1568,-1.4417 0.3728,-0.4222 0.7017,-0.7511 1.0361,-1.0746 0.3345,-0.3234 0.6744,-0.6414 0.8499,-0.7784 0.1754,-0.137 0.1865,-0.093 0.1754,0.022 -0.011,0.1151 -0.044,0.3015 -0.039,0.614 0.01,0.3125 0.049,0.7511 0.1809,1.2555 0.1316,0.5043 0.3509,1.0744 0.5702,1.6172 0.2192,0.5427 0.4386,1.0581 0.5921,1.4364 0.1535,0.3783 0.2412,0.6194 0.3234,0.8497 0.082,0.2303 0.159,0.4495 0.2193,0.5426 0.06,0.093 0.1043,0.06 0.1974,-0.1428 0.093,-0.2028 0.2357,-0.5757 0.3124,-0.9539 0.077,-0.3782 0.088,-0.762 0.06,-1.1732 -0.027,-0.4111 -0.093,-0.8497 -0.104,-1.0525 -0.011,-0.2028 0.033,-0.1697 0.17,-0.077 0.137,0.093 0.3672,0.2467 0.6907,0.4879 0.3235,0.2413 0.7401,0.5702 1.1184,0.9595 0.3782,0.3892 0.7181,0.8387 0.9538,1.217 0.2358,0.3783 0.3674,0.6853 0.4166,0.8498 0.049,0.1644 0.016,0.1864 -0.061,0.329 -0.077,0.1425 -0.1975,0.4057 -0.3839,0.7675 -0.1864,0.3618 -0.4385,0.8223 -0.8497,1.3651 -0.4112,0.5427 -0.9813,1.1677 -1.6392,1.7982 -0.6579,0.6304 -1.4034,1.2663 -2.286,1.82 -0.8827,0.5538 -1.9023,1.0252 -2.9275,1.3706 -1.0252,0.3454 -2.0558,0.5647 -2.5877,0.6578 -0.5319,0.093 -0.5649,0.06 -0.7184,-0.099 -0.1535,-0.159 -0.4276,-0.4441 -0.6798,-0.7511 -0.2522,-0.307 -0.4825,-0.6359 -0.6853,-1.0032 -0.2029,-0.3673 -0.3783,-0.773 -0.5318,-1.2828 -0.1535,-0.5099 -0.2851,-1.1239 -0.3399,-1.6283 -0.055,-0.5044 -0.033,-0.8991 0.022,-1.3377 0.055,-0.4386 0.1426,-0.921 0.329,-1.4528 0.1864,-0.5318 0.4715,-1.1129 0.7456,-1.5679 0.2741,-0.4551 0.5372,-0.784 0.6743,-0.932 0.1371,-0.148 0.1481,-0.115 0.1262,0.039 -0.022,0.1536 -0.077,0.4277 -0.1042,0.7566 -0.027,0.329 -0.027,0.7128 0.016,1.1678 0.044,0.455 0.1316,0.9813 0.2413,1.3541 0.1096,0.3728 0.2412,0.5921 0.3728,0.7621 0.1316,0.1699 0.2632,0.2905 0.3784,0.3673 0.1152,0.077 0.2137,0.1097 0.263,0.1262 0.049,0.017 0.05,0.016 0.034,-0.1868 z"
           id="path9060"
           inkscape:path-effect="#path-effect9098"
           inkscape:original-d="m 1387.6234,3703.453 c -0.033,-0.4056 -0.066,-0.8113 -0.099,-1.2171 0.055,-0.5152 0.1097,-1.0305 0.1644,-1.546 0.2085,-0.5152 0.4168,-1.0305 0.625,-1.546 0.3181,-0.4933 0.6361,-0.9867 0.9539,-1.4802 0.4168,-0.5152 0.8334,-1.0305 1.25,-1.546 0.329,-0.3288 0.6579,-0.6577 0.9868,-0.9868 0.34,-0.3178 0.6799,-0.6358 1.0197,-0.9539 0.011,0.044 0.022,0.088 0.033,0.1316 -0.033,0.1865 -0.066,0.3729 -0.099,0.5592 0.044,0.4387 0.088,0.8773 0.1316,1.3157 0.2194,0.5703 0.4387,1.1404 0.6578,1.7105 0.2194,0.5154 0.4387,1.0308 0.6579,1.546 0.088,0.2413 0.1755,0.4825 0.2632,0.7236 0.077,0.2194 0.1536,0.4387 0.2302,0.6579 0.044,-0.033 0.088,-0.066 0.1316,-0.099 0.1426,-0.3727 0.2852,-0.7455 0.4276,-1.1184 0.011,-0.3836 0.022,-0.7674 0.033,-1.1512 -0.066,-0.4385 -0.1315,-0.8771 -0.1973,-1.3158 0.044,0.033 0.088,0.066 0.1315,0.099 0.2304,0.1536 0.4606,0.3071 0.6908,0.4605 0.4168,0.3291 0.8334,0.658 1.2499,0.9868 0.3401,0.4497 0.6799,0.8992 1.0197,1.3487 0.1317,0.3071 0.2633,0.6141 0.3948,0.921 -0.033,0.022 -0.066,0.044 -0.099,0.066 -0.1205,0.2632 -0.2411,0.5264 -0.3619,0.7894 -0.252,0.4606 -0.5042,0.9211 -0.7565,1.3815 -0.5701,0.6251 -1.1402,1.2501 -1.7105,1.875 -0.7455,0.636 -1.491,1.2719 -2.2367,1.9078 -1.0196,0.4716 -2.0393,0.943 -3.0591,1.4144 -1.0306,0.2194 -2.0612,0.4387 -3.092,0.6579 -0.033,-0.033 -0.066,-0.066 -0.099,-0.099 -0.274,-0.285 -0.5481,-0.5701 -0.8223,-0.8552 -0.2302,-0.3289 -0.4604,-0.6578 -0.6908,-0.9868 -0.1753,-0.4056 -0.3507,-0.8113 -0.5263,-1.2171 -0.1314,-0.6139 -0.263,-1.2279 -0.3947,-1.842 0.022,-0.3947 0.044,-0.7894 0.066,-1.1842 0.088,-0.4823 0.1755,-0.9648 0.2631,-1.4473 0.2852,-0.581 0.5703,-1.1621 0.8553,-1.7434 0.2632,-0.3288 0.5264,-0.6577 0.7894,-0.9868 0.011,0.033 0.022,0.066 0.033,0.099 -0.055,0.2742 -0.1095,0.5483 -0.1645,0.8223 2e-4,0.3839 2e-4,0.7677 0,1.1513 0.088,0.5264 0.1756,1.0527 0.2632,1.5789 0.1317,0.2194 0.2632,0.4387 0.3947,0.6579 0.1317,0.1207 0.2633,0.2413 0.3947,0.3618 0.099,0.033 0.1975,0.066 0.2961,0.099 z" />
        <path
           style="fill:#a38e28;fill-opacity:1;stroke:none;stroke-width:0;stroke-linecap:round;stroke-linejoin:miter;stroke-miterlimit:10;stroke-dasharray:none;stroke-opacity:0"
           d="m 1398.7265,3702.0316 c 0.069,0.1605 0.2064,0.4813 0.3016,0.9465 0.095,0.4652 0.1481,1.0724 0.1329,1.6001 -0.015,0.5277 -0.098,0.9734 -0.2202,1.4017 -0.1219,0.4283 -0.2824,0.8378 -0.5873,1.3423 -0.305,0.5045 -0.7535,1.1026 -1.3651,1.6625 -0.6117,0.5599 -1.386,1.0811 -2.044,1.4016 -0.658,0.3206 -1.1993,0.4403 -1.7749,0.5122 -0.5757,0.072 -1.1857,0.096 -1.7987,0.031 -0.613,-0.064 -1.2289,-0.2175 -1.6974,-0.3616 -0.4684,-0.1441 -0.7893,-0.2793 -1.0778,-0.4255 -0.2886,-0.1463 -0.5448,-0.3037 -0.6846,-0.3972 -0.1397,-0.093 -0.1613,-0.1207 0.1149,-0.1762 0.2762,-0.055 0.8514,-0.137 1.4251,-0.2678 0.5738,-0.1308 1.1458,-0.3107 1.8716,-0.6198 0.7258,-0.3091 1.6054,-0.7472 2.2208,-1.0963 0.6154,-0.349 0.9666,-0.609 1.3751,-0.9499 0.4084,-0.3409 0.874,-0.7628 1.3166,-1.2232 0.4425,-0.4604 0.862,-0.9593 1.2001,-1.4452 0.3381,-0.4858 0.5948,-0.9586 0.7747,-1.2857 0.1799,-0.327 0.2829,-0.5084 0.3444,-0.619 0.061,-0.1106 0.082,-0.1523 0.092,-0.1716 0.01,-0.019 0.012,-0.02 0.08,0.1408 z"
           id="path9062"
           inkscape:path-effect="#path-effect9102"
           inkscape:original-d="m 1398.6577,3701.8711 c 0.1378,0.3209 0.2754,0.6417 0.4127,0.9626 0.053,0.6096 0.1059,1.2168 0.1587,1.8252 -0.083,0.4471 -0.1658,0.8928 -0.2494,1.3389 -0.1604,0.4106 -0.3207,0.8201 -0.482,1.2299 -0.4487,0.5993 -0.8972,1.1974 -1.3465,1.7956 -0.7742,0.5218 -1.5485,1.043 -2.3235,1.5639 -0.5412,0.1203 -1.0826,0.2395 -1.6239,0.3591 -0.61,0.023 -1.22,0.048 -1.8301,0.072 -0.6159,-0.1531 -1.2318,-0.3062 -1.848,-0.4591 -0.3207,-0.1352 -0.6415,-0.2704 -0.9626,-0.4055 -0.256,-0.1574 -0.5123,-0.3147 -0.7685,-0.4721 -0.024,-0.029 -0.046,-0.056 -0.068,-0.086 0.5755,-0.082 1.1508,-0.1627 1.7261,-0.245 0.5721,-0.1799 1.1441,-0.3598 1.7159,-0.5397 0.8798,-0.4382 1.7595,-0.8763 2.639,-1.3146 0.3512,-0.2599 0.7025,-0.5198 1.0535,-0.7797 0.466,-0.4218 0.9315,-0.8438 1.3971,-1.2658 0.4195,-0.4988 0.8391,-0.9977 1.2583,-1.4966 0.257,-0.4728 0.5138,-0.9456 0.7703,-1.4186 0.1032,-0.1811 0.2061,-0.3625 0.309,-0.5438 0.02,-0.04 0.042,-0.081 0.06,-0.1204 z"
           sodipodi:nodetypes="scccccccccccccccccccccs" />
      </g>
      <rect
         style="fill:#0d0d0d;fill-opacity:1;fill-rule:evenodd;stroke:none;stroke-width:0.708223;stroke-linecap:round;stroke-dasharray:none;stroke-opacity:1;paint-order:stroke fill markers;stop-color:#000000"
         id="rect9066"
         width="2.688308"
         height="28.532"
         x="-395.16946"
         y="540.85559" />
      <rect
         style="fill:#a38e28;fill-opacity:1;fill-rule:evenodd;stroke:#a38e28;stroke-width:0.338378;stroke-linecap:round;stroke-dasharray:none;stroke-opacity:1;paint-order:stroke fill markers;stop-color:#000000"
         id="rect9068"
         width="0.60615313"
         height="28.886415"
         x="-394.13089"
         y="540.74231" />
      <rect
         style="fill:#0d0d0d;fill-opacity:1;fill-rule:evenodd;stroke:none;stroke-width:0.708223;stroke-linecap:round;stroke-dasharray:none;stroke-opacity:1;paint-order:stroke fill markers;stop-color:#000000"
         id="rect9070"
         width="2.688308"
         height="28.532"
         x="-353.68253"
         y="540.85559" />
      <rect
         style="fill:#a38e28;fill-opacity:1;fill-rule:evenodd;stroke:#a38e28;stroke-width:0.338378;stroke-linecap:round;stroke-dasharray:none;stroke-opacity:1;paint-order:stroke fill markers;stop-color:#000000"
         id="rect9072"
         width="0.60615313"
         height="28.886415"
         x="-352.64395"
         y="540.74231" />
      <rect
         style="fill:#0d0d0d;fill-opacity:1;fill-rule:evenodd;stroke:none;stroke-width:0.810663;stroke-linecap:round;stroke-dasharray:none;stroke-opacity:1;paint-order:stroke fill markers;stop-color:#000000"
         id="rect9074"
         width="3.9522483"
         height="5.027935"
         x="-359.19205"
         y="563.35754"
         rx="1.3311523"
         ry="1.3311523" />
      <path
         style="fill:#050505;fill-opacity:1;fill-rule:evenodd;stroke:#a38e28;stroke-width:0.66117;stroke-linecap:round;stroke-dasharray:none;stroke-opacity:1;paint-order:stroke fill markers;stop-color:#000000"
         d="m -357.5859,565.4993 -0.4545,1.6961 h 1.6316 l -0.4632,-1.7287 z"
         id="path9076" />
      <circle
         style="fill:#050505;fill-opacity:1;fill-rule:evenodd;stroke:#a38e28;stroke-width:0.66117;stroke-linecap:round;stroke-dasharray:none;stroke-opacity:1;paint-order:stroke fill markers;stop-color:#000000"
         id="circle9078"
         cx="-357.22379"
         cy="565.34558"
         r="0.82807624" />
      <path
         style="fill:#050505;fill-opacity:1;fill-rule:evenodd;stroke:none;stroke-width:0.66117;stroke-linecap:round;stroke-dasharray:none;stroke-opacity:1;paint-order:stroke fill markers;stop-color:#000000"
         d="m -357.5859,565.4993 -0.4545,1.6961 h 1.6316 l -0.4632,-1.7287 z"
         id="path9080" />
      <rect
         style="fill:#0d0d0d;fill-opacity:1;fill-rule:evenodd;stroke:none;stroke-width:0.810663;stroke-linecap:round;stroke-dasharray:none;stroke-opacity:1;paint-order:stroke fill markers;stop-color:#000000"
         id="rect9082"
         width="3.9522483"
         height="5.027935"
         x="-391.04385"
         y="563.35754"
         rx="1.3311523"
         ry="1.3311523" />
      <path
         style="fill:#050505;fill-opacity:1;fill-rule:evenodd;stroke:#a38e28;stroke-width:0.66117;stroke-linecap:round;stroke-dasharray:none;stroke-opacity:1;paint-order:stroke fill markers;stop-color:#000000"
         d="m -389.4377,565.4993 -0.4545,1.6961 h 1.6316 l -0.4632,-1.7287 z"
         id="path9084" />
      <circle
         style="fill:#050505;fill-opacity:1;fill-rule:evenodd;stroke:#a38e28;stroke-width:0.66117;stroke-linecap:round;stroke-dasharray:none;stroke-opacity:1;paint-order:stroke fill markers;stop-color:#000000"
         id="circle9086"
         cx="-389.07559"
         cy="565.34558"
         r="0.82807624" />
      <path
         style="fill:#050505;fill-opacity:1;fill-rule:evenodd;stroke:none;stroke-width:0.66117;stroke-linecap:round;stroke-dasharray:none;stroke-opacity:1;paint-order:stroke fill markers;stop-color:#000000"
         d="m -389.4377,565.4993 -0.4545,1.6961 h 1.6316 l -0.4632,-1.7287 z"
         id="path9088" />
    </g>
  </g>
</svg>
