<?xml version="1.0" encoding="UTF-8" standalone="no"?>
<!-- Created with Inkscape (http://www.inkscape.org/) -->

<svg
   width="193.3385"
   height="193.3385"
   viewBox="0 0 51.154145 51.154145"
   version="1.1"
   id="svg1"
   inkscape:version="1.3.2 (1:1.3.2+202311252150+091e20ef0f)"
   sodipodi:docname="ammo_crate.svg"
   xmlns:inkscape="http://www.inkscape.org/namespaces/inkscape"
   xmlns:sodipodi="http://sodipodi.sourceforge.net/DTD/sodipodi-0.dtd"
   xmlns="http://www.w3.org/2000/svg"
   xmlns:svg="http://www.w3.org/2000/svg">
  <sodipodi:namedview
     id="namedview1"
     pagecolor="#505050"
     bordercolor="#ffffff"
     borderopacity="1"
     inkscape:showpageshadow="0"
     inkscape:pageopacity="0"
     inkscape:pagecheckerboard="1"
     inkscape:deskcolor="#d1d1d1"
     inkscape:document-units="px"
     inkscape:zoom="4.187009"
     inkscape:cx="108.55004"
     inkscape:cy="72.724945"
     inkscape:window-width="2560"
     inkscape:window-height="1372"
     inkscape:window-x="0"
     inkscape:window-y="0"
     inkscape:window-maximized="1"
     inkscape:current-layer="layer1" />
  <defs
     id="defs1">
    <inkscape:path-effect
       effect="tiling"
       id="path-effect18244"
       is_visible="true"
       lpeversion="1"
       unit="px"
       seed="1;1"
       lpesatellites=""
       num_rows="4"
       num_cols="2"
       gapx="25"
       gapy="18"
       offset="0"
       offset_type="false"
       scale="0"
       rotate="0"
       mirrorrowsx="false"
       mirrorrowsy="true"
       mirrorcolsx="true"
       mirrorcolsy="false"
       mirrortrans="false"
       shrink_interp="false"
       split_items="false"
       link_styles="false"
       interpolate_scalex="false"
       interpolate_scaley="true"
       interpolate_rotatex="false"
       interpolate_rotatey="true"
       random_scale="false"
       random_rotate="false"
       random_gap_y="false"
       random_gap_x="false"
       transformorigin="translate(0.7238179,137.29238)" />
  </defs>
  <g
     inkscape:label="Layer 1"
     inkscape:groupmode="layer"
     id="layer1"
     transform="translate(-69.585359,-168.19759)">
    <g
       id="g19018"
       transform="translate(-1198.3391,-685.91886)">
      <g
         inkscape:label="Calque 1"
         id="g18214"
         transform="matrix(0.78639545,0,0,0.78639545,1116.5368,758.48396)">
        <rect
           style="fill:#9e7437;fill-opacity:1;stroke:#402e16;stroke-width:2.26367;stroke-linecap:square;stroke-dasharray:none;stroke-opacity:1;paint-order:normal;stop-color:#000000"
           id="rect18198"
           width="9.6520319"
           height="62.78521"
           x="125.89856"
           y="-256.42535"
           ry="1.8002967"
           transform="rotate(90)"
           rx="1.8002967" />
        <rect
           style="fill:#9e7437;fill-opacity:1;stroke:#402e16;stroke-width:2.26367;stroke-linecap:square;stroke-dasharray:none;stroke-opacity:1;paint-order:normal;stop-color:#000000"
           id="rect18200"
           width="9.6520319"
           height="62.78521"
           x="141.77527"
           y="-256.42535"
           ry="1.8002967"
           transform="rotate(90)"
           rx="1.8002967" />
        <rect
           style="fill:#9e7437;fill-opacity:1;stroke:#402e16;stroke-width:2.26367;stroke-linecap:square;stroke-dasharray:none;stroke-opacity:1;paint-order:normal;stop-color:#000000"
           id="rect18202"
           width="9.6520319"
           height="62.78521"
           x="156.99548"
           y="-256.42535"
           ry="1.8002967"
           transform="rotate(90)"
           rx="1.8002967" />
        <rect
           style="fill:#9e7437;fill-opacity:1;stroke:#402e16;stroke-width:2.26367;stroke-linecap:square;stroke-dasharray:none;stroke-opacity:1;paint-order:normal;stop-color:#000000"
           id="rect18204"
           width="9.6520319"
           height="62.78521"
           x="172.71558"
           y="-256.42535"
           ry="1.8002967"
           transform="rotate(90)"
           rx="1.8002967" />
        <rect
           style="fill:#9e7437;fill-opacity:1;stroke:#402e16;stroke-width:2.26367;stroke-linecap:square;stroke-dasharray:none;stroke-opacity:1;paint-order:normal;stop-color:#000000"
           id="rect18206"
           width="9.6520319"
           height="62.78521"
           x="-253.26727"
           y="-185.5257"
           ry="1.8002967"
           transform="scale(-1)"
           rx="1.8002967" />
        <rect
           style="fill:#9e7437;fill-opacity:1;stroke:#402e16;stroke-width:2.26367;stroke-linecap:square;stroke-dasharray:none;stroke-opacity:1;paint-order:normal;stop-color:#000000"
           id="rect18208"
           width="9.6520319"
           height="62.78521"
           x="-237.39056"
           y="-185.5257"
           ry="1.8002967"
           transform="scale(-1)"
           rx="1.8002967" />
        <rect
           style="fill:#9e7437;fill-opacity:1;stroke:#402e16;stroke-width:2.26367;stroke-linecap:square;stroke-dasharray:none;stroke-opacity:1;paint-order:normal;stop-color:#000000"
           id="rect18210"
           width="9.6520319"
           height="62.78521"
           x="-222.17035"
           y="-185.5257"
           ry="1.8002967"
           transform="scale(-1)"
           rx="1.8002967" />
        <rect
           style="fill:#9e7437;fill-opacity:1;stroke:#402e16;stroke-width:2.26367;stroke-linecap:square;stroke-dasharray:none;stroke-opacity:1;paint-order:normal;stop-color:#000000"
           id="rect18212"
           width="9.6520319"
           height="62.78521"
           x="-206.45026"
           y="-185.5257"
           ry="1.8002967"
           transform="scale(-1)"
           rx="1.8002967" />
      </g>
      <g
         id="g18240"
         transform="matrix(0,-0.27024059,0.26804678,0,1239.8262,901.77762)"
         inkscape:path-effect="#path-effect18244"
         class="UnoptimicedTransforms">
        <path
           style="fill:#5d6c53;fill-opacity:1;stroke:#3e4837;stroke-width:3.70365;stroke-linecap:butt;stroke-linejoin:bevel;stroke-dasharray:none;stroke-opacity:1;paint-order:fill markers stroke"
           id="path18216"
           width="75.671349"
           height="37.306767"
           x="3.7592044"
           y="119.34602"
           sodipodi:type="rect"
           d="M 3.7592044,119.34602 H 79.430553 v 37.30677 H 3.7592044 Z m 157.9572756,0 v 37.30677 H 86.045136 V 119.34602 Z M 3.7592044,198.72206 V 161.41529 H 79.430553 v 37.30677 z m 157.9572756,0 H 86.045136 V 161.41529 H 161.71648 Z M 3.7592044,203.48456 H 79.430553 v 37.30676 H 3.7592044 Z m 157.9572756,0 v 37.30676 H 86.045136 V 203.48456 Z M 3.7592044,282.86059 V 245.55382 H 79.430553 v 37.30677 z m 157.9572756,0 H 86.045136 v -37.30677 h 75.671344 z" />
        <path
           style="fill:#3e4837;fill-opacity:1;stroke:none;stroke-width:11.1728;stroke-linecap:butt;stroke-linejoin:bevel;stroke-dasharray:none;stroke-opacity:1;paint-order:fill markers stroke"
           id="circle18218"
           d="m 74.996665,126.73772 c 0,1.30199 -1.055474,2.35746 -2.357467,2.35746 -1.301993,0 -2.357467,-1.05547 -2.357467,-2.35746 0,-1.302 1.055474,-2.35747 2.357467,-2.35747 1.301993,0 2.357467,1.05547 2.357467,2.35747 z m 15.482359,0 c 0,-1.302 1.055474,-2.35747 2.357467,-2.35747 1.301993,0 2.357467,1.05547 2.357467,2.35747 0,1.30199 -1.055474,2.35746 -2.357467,2.35746 -1.301993,0 -2.357467,-1.05547 -2.357467,-2.35746 z m -15.482359,64.59264 c 0,1.302 -1.055474,2.35747 -2.357467,2.35747 -1.301993,0 -2.357467,-1.05547 -2.357467,-2.35747 0,-1.30199 1.055474,-2.35746 2.357467,-2.35746 1.301993,0 2.357467,1.05547 2.357467,2.35746 z m 15.482359,0 c 0,-1.30199 1.055474,-2.35746 2.357467,-2.35746 1.301993,0 2.357467,1.05547 2.357467,2.35746 0,1.302 -1.055474,2.35747 -2.357467,2.35747 -1.301993,0 -2.357467,-1.05547 -2.357467,-2.35747 z m -15.482359,19.54589 c 0,1.30199 -1.055474,2.35747 -2.357467,2.35747 -1.301993,0 -2.357467,-1.05548 -2.357467,-2.35747 0,-1.30199 1.055474,-2.35747 2.357467,-2.35747 1.301993,0 2.357467,1.05548 2.357467,2.35747 z m 15.482359,0 c 0,-1.30199 1.055474,-2.35747 2.357467,-2.35747 1.301993,0 2.357467,1.05548 2.357467,2.35747 0,1.30199 -1.055474,2.35747 -2.357467,2.35747 -1.301993,0 -2.357467,-1.05548 -2.357467,-2.35747 z M 74.996665,275.4689 c 0,1.30199 -1.055474,2.35746 -2.357467,2.35746 -1.301993,0 -2.357467,-1.05547 -2.357467,-2.35746 0,-1.302 1.055474,-2.35747 2.357467,-2.35747 1.301993,0 2.357467,1.05547 2.357467,2.35747 z m 15.482359,0 c 0,-1.302 1.055474,-2.35747 2.357467,-2.35747 1.301993,0 2.357467,1.05547 2.357467,2.35747 0,1.30199 -1.055474,2.35746 -2.357467,2.35746 -1.301993,0 -2.357467,-1.05547 -2.357467,-2.35746 z"
           sodipodi:type="arc"
           sodipodi:cx="72.639198"
           sodipodi:cy="126.73772"
           sodipodi:rx="2.3574672"
           sodipodi:ry="2.3574672" />
        <path
           style="fill:#3e4837;fill-opacity:1;stroke:none;stroke-width:11.1728;stroke-linecap:butt;stroke-linejoin:bevel;stroke-dasharray:none;stroke-opacity:1;paint-order:fill markers stroke"
           id="circle18220"
           d="m 74.996665,149.26109 c 0,1.302 -1.055474,2.35747 -2.357467,2.35747 -1.301993,0 -2.357467,-1.05547 -2.357467,-2.35747 0,-1.30199 1.055474,-2.35746 2.357467,-2.35746 1.301993,0 2.357467,1.05547 2.357467,2.35746 z m 15.482359,0 c 0,-1.30199 1.055474,-2.35746 2.357467,-2.35746 1.301993,0 2.357467,1.05547 2.357467,2.35746 0,1.302 -1.055474,2.35747 -2.357467,2.35747 -1.301993,0 -2.357467,-1.05547 -2.357467,-2.35747 z m -15.482359,19.5459 c 0,1.30199 -1.055474,2.35746 -2.357467,2.35746 -1.301993,0 -2.357467,-1.05547 -2.357467,-2.35746 0,-1.302 1.055474,-2.35747 2.357467,-2.35747 1.301993,0 2.357467,1.05547 2.357467,2.35747 z m 15.482359,0 c 0,-1.302 1.055474,-2.35747 2.357467,-2.35747 1.301993,0 2.357467,1.05547 2.357467,2.35747 0,1.30199 -1.055474,2.35746 -2.357467,2.35746 -1.301993,0 -2.357467,-1.05547 -2.357467,-2.35746 z m -15.482359,64.59264 c 0,1.30199 -1.055474,2.35746 -2.357467,2.35746 -1.301993,0 -2.357467,-1.05547 -2.357467,-2.35746 0,-1.302 1.055474,-2.35747 2.357467,-2.35747 1.301993,0 2.357467,1.05547 2.357467,2.35747 z m 15.482359,0 c 0,-1.302 1.055474,-2.35747 2.357467,-2.35747 1.301993,0 2.357467,1.05547 2.357467,2.35747 0,1.30199 -1.055474,2.35746 -2.357467,2.35746 -1.301993,0 -2.357467,-1.05547 -2.357467,-2.35746 z m -15.482359,19.54589 c 0,1.30199 -1.055474,2.35747 -2.357467,2.35747 -1.301993,0 -2.357467,-1.05548 -2.357467,-2.35747 0,-1.30199 1.055474,-2.35747 2.357467,-2.35747 1.301993,0 2.357467,1.05548 2.357467,2.35747 z m 15.482359,0 c 0,-1.30199 1.055474,-2.35747 2.357467,-2.35747 1.301993,0 2.357467,1.05548 2.357467,2.35747 0,1.30199 -1.055474,2.35747 -2.357467,2.35747 -1.301993,0 -2.357467,-1.05548 -2.357467,-2.35747 z"
           sodipodi:type="arc"
           sodipodi:cx="72.639198"
           sodipodi:cy="149.26109"
           sodipodi:rx="2.3574672"
           sodipodi:ry="2.3574672" />
        <path
           style="fill:#3e4837;fill-opacity:1;stroke:none;stroke-width:6.20699;stroke-linecap:butt;stroke-linejoin:bevel;stroke-dasharray:none;stroke-opacity:1;paint-order:fill markers stroke"
           id="path18222"
           width="9.8710108"
           height="30.73226"
           x="1.9073786"
           y="122.77095"
           rx="3.1431141"
           ry="3.1431141"
           sodipodi:type="rect"
           d="m 5.0504926,122.77095 h 3.5847826 c 1.7412848,0 3.1431138,1.40183 3.1431138,3.14311 v 24.44604 c 0,1.74128 -1.401829,3.14311 -3.1431138,3.14311 H 5.0504926 c -1.7412852,0 -3.143114,-1.40183 -3.143114,-3.14311 v -24.44604 c 0,-1.74128 1.4018288,-3.14311 3.143114,-3.14311 z m 155.3747074,0 c 1.74128,0 3.14311,1.40183 3.14311,3.14311 v 24.44604 c 0,1.74128 -1.40183,3.14311 -3.14311,3.14311 h -3.58479 c -1.74128,0 -3.14311,-1.40183 -3.14311,-3.14311 v -24.44604 c 0,-1.74128 1.40183,-3.14311 3.14311,-3.14311 z M 5.0504926,195.29713 c -1.7412852,0 -3.143114,-1.40183 -3.143114,-3.14311 v -24.44604 c 0,-1.74128 1.4018288,-3.14311 3.143114,-3.14311 h 3.5847826 c 1.7412848,0 3.1431138,1.40183 3.1431138,3.14311 v 24.44604 c 0,1.74128 -1.401829,3.14311 -3.1431138,3.14311 z m 155.3747074,0 h -3.58479 c -1.74128,0 -3.14311,-1.40183 -3.14311,-3.14311 v -24.44604 c 0,-1.74128 1.40183,-3.14311 3.14311,-3.14311 h 3.58479 c 1.74128,0 3.14311,1.40183 3.14311,3.14311 v 24.44604 c 0,1.74128 -1.40183,3.14311 -3.14311,3.14311 z M 5.0504926,206.90948 h 3.5847826 c 1.7412848,0 3.1431138,1.40183 3.1431138,3.14312 v 24.44603 c 0,1.74128 -1.401829,3.14311 -3.1431138,3.14311 H 5.0504926 c -1.7412852,0 -3.143114,-1.40183 -3.143114,-3.14311 V 210.0526 c 0,-1.74129 1.4018288,-3.14312 3.143114,-3.14312 z m 155.3747074,0 c 1.74128,0 3.14311,1.40183 3.14311,3.14312 v 24.44603 c 0,1.74128 -1.40183,3.14311 -3.14311,3.14311 h -3.58479 c -1.74128,0 -3.14311,-1.40183 -3.14311,-3.14311 V 210.0526 c 0,-1.74129 1.40183,-3.14312 3.14311,-3.14312 z M 5.0504926,279.43566 c -1.7412852,0 -3.143114,-1.40183 -3.143114,-3.14311 v -24.44603 c 0,-1.74129 1.4018288,-3.14312 3.143114,-3.14312 h 3.5847826 c 1.7412848,0 3.1431138,1.40183 3.1431138,3.14312 v 24.44603 c 0,1.74128 -1.401829,3.14311 -3.1431138,3.14311 z m 155.3747074,0 h -3.58479 c -1.74128,0 -3.14311,-1.40183 -3.14311,-3.14311 v -24.44603 c 0,-1.74129 1.40183,-3.14312 3.14311,-3.14312 h 3.58479 c 1.74128,0 3.14311,1.40183 3.14311,3.14312 v 24.44603 c 0,1.74128 -1.40183,3.14311 -3.14311,3.14311 z" />
        <g
           id="g18238"
           transform="translate(-1.6088994,22.604595)"
           style="fill:#3e4837;stroke:#3e4837">
          <path
             style="fill:#3e4837;fill-opacity:1;stroke:#3e4837;stroke-width:1;stroke-linecap:square;stroke-linejoin:bevel;stroke-dasharray:none;stroke-opacity:1;paint-order:fill markers stroke"
             id="path18224"
             width="6.4869537"
             height="6.4870777"
             x="19.357199"
             y="112.15133"
             sodipodi:type="rect"
             d="m 19.357199,112.15133 h 6.486953 v 6.48708 h -6.486953 z m 129.979091,0 v 6.48708 h -6.48695 v -6.48708 z M 19.357199,160.70756 v -6.48708 h 6.486953 v 6.48708 z m 129.979091,0 h -6.48695 v -6.48708 h 6.48695 z m -129.979091,35.5823 h 6.486953 v 6.48708 h -6.486953 z m 129.979091,0 v 6.48708 h -6.48695 v -6.48708 z M 19.357199,244.84609 v -6.48707 h 6.486953 v 6.48707 z m 129.979091,0 h -6.48695 v -6.48707 h 6.48695 z" />
          <path
             style="fill:#3e4837;fill-opacity:1;stroke:#3e4837;stroke-width:1;stroke-linecap:square;stroke-linejoin:bevel;stroke-dasharray:none;stroke-opacity:1;paint-order:fill markers stroke"
             id="path18226"
             width="6.4870777"
             height="6.4870777"
             x="60.563286"
             y="112.15133"
             sodipodi:type="rect"
             d="m 60.563286,112.15133 h 6.487078 v 6.48708 h -6.487078 z m 47.566914,0 v 6.48708 h -6.48708 v -6.48708 z m -47.566914,48.55623 v -6.48708 h 6.487078 v 6.48708 z m 47.566914,0 h -6.48708 v -6.48708 h 6.48708 z m -47.566914,35.5823 h 6.487078 v 6.48708 h -6.487078 z m 47.566914,0 v 6.48708 h -6.48708 v -6.48708 z m -47.566914,48.55623 v -6.48707 h 6.487078 v 6.48707 z m 47.566914,0 h -6.48708 v -6.48707 h 6.48708 z" />
          <path
             style="fill:#3e4837;fill-opacity:1;stroke:#3e4837;stroke-width:1;stroke-linecap:square;stroke-linejoin:bevel;stroke-dasharray:none;stroke-opacity:1;paint-order:fill markers stroke"
             id="path18228"
             width="20.872131"
             height="6.4869537"
             x="32.767651"
             y="112.15138"
             sodipodi:type="rect"
             d="m 32.767651,112.15138 h 20.872131 v 6.48696 H 32.767651 Z m 103.158189,0 v 6.48696 h -20.87213 v -6.48696 z M 32.767651,160.70751 v -6.48696 h 20.872131 v 6.48696 z m 103.158189,0 h -20.87213 v -6.48696 h 20.87213 z M 32.767651,196.28992 h 20.872131 v 6.48695 H 32.767651 Z m 103.158189,0 v 6.48695 h -20.87213 v -6.48695 z M 32.767651,244.84604 v -6.48695 h 20.872131 v 6.48695 z m 103.158189,0 h -20.87213 v -6.48695 h 20.87213 z" />
          <path
             style="fill:#3e4837;fill-opacity:1;stroke:#3e4837;stroke-width:2;stroke-linecap:round;stroke-linejoin:bevel;stroke-dasharray:none;stroke-opacity:1;paint-order:fill markers stroke"
             d="m 25.844152,112.15133 6.923499,5e-5 m 103.158189,0 6.9235,-5e-5 m -110.081689,48.55618 -6.923499,5e-5 m 117.005188,0 -6.9235,-5e-5 m -110.081688,35.58235 6.923499,5e-5 m 103.158189,0 6.9235,-5e-5 m -110.081689,48.55618 -6.923499,5e-5 m 117.005188,0 -6.9235,-5e-5"
             id="path18230"
             inkscape:original-d="m 25.844152,112.15133 6.923499,5e-5" />
          <path
             style="fill:#3e4837;fill-opacity:1;stroke:#3e4837;stroke-width:2;stroke-linecap:round;stroke-linejoin:bevel;stroke-dasharray:none;stroke-opacity:1;paint-order:fill markers stroke"
             d="m 25.844152,118.63829 6.923499,5e-5 m 103.158189,0 6.9235,-5e-5 m -110.081689,35.58226 -6.923499,5e-5 m 117.005188,0 -6.9235,-5e-5 m -110.081688,48.55627 6.923499,5e-5 m 103.158189,0 6.9235,-5e-5 m -110.081689,35.58226 -6.923499,5e-5 m 117.005188,0 -6.9235,-5e-5"
             id="path18232"
             inkscape:original-d="m 25.844152,118.63829 6.923499,5e-5" />
          <path
             style="fill:#3e4837;fill-opacity:1;stroke:#3e4837;stroke-width:2;stroke-linecap:round;stroke-linejoin:bevel;stroke-dasharray:none;stroke-opacity:1;paint-order:fill markers stroke"
             d="m 53.639787,112.15128 6.923499,5e-5 m 47.566914,0 6.9235,-5e-5 m -54.490414,48.55628 -6.923499,5e-5 m 61.413913,0 -6.9235,-5e-5 m -54.490413,35.58225 6.923499,5e-5 m 47.566914,0 6.9235,-5e-5 m -54.490414,48.55628 -6.923499,5e-5 m 61.413913,0 -6.9235,-5e-5"
             id="path18234"
             inkscape:original-d="m 53.639787,112.15128 6.923499,5e-5" />
          <path
             style="fill:#3e4837;fill-opacity:1;stroke:#3e4837;stroke-width:2;stroke-linecap:round;stroke-linejoin:bevel;stroke-dasharray:none;stroke-opacity:1;paint-order:fill markers stroke"
             d="m 53.639787,118.63824 6.923499,5e-5 m 47.566914,0 6.9235,-5e-5 m -54.490414,35.58236 -6.923499,5e-5 m 61.413913,0 -6.9235,-5e-5 m -54.490413,48.55617 6.923499,5e-5 m 47.566914,0 6.9235,-5e-5 m -54.490414,35.58236 -6.923499,5e-5 m 61.413913,0 -6.9235,-5e-5"
             id="path18236"
             inkscape:original-d="m 53.639787,118.63824 6.923499,5e-5" />
        </g>
      </g>
    </g>
  </g>
</svg>
