<?xml version="1.0" encoding="UTF-8" standalone="no"?>
<svg
   width="224.252"
   height="321.276"
   viewBox="0 0 59.333342 85.004277"
   version="1.1"
   id="svg22844"
   inkscape:version="1.3 (0e150ed, 2023-07-21)"
   sodipodi:docname="bed.svg"
   xmlns:inkscape="http://www.inkscape.org/namespaces/inkscape"
   xmlns:sodipodi="http://sodipodi.sourceforge.net/DTD/sodipodi-0.dtd"
   xmlns="http://www.w3.org/2000/svg"
   xmlns:svg="http://www.w3.org/2000/svg"
   xmlns:rdf="http://www.w3.org/1999/02/22-rdf-syntax-ns#"
   xmlns:cc="http://creativecommons.org/ns#"
   xmlns:dc="http://purl.org/dc/elements/1.1/">
  <defs
     id="defs22838" />
  <sodipodi:namedview
     id="base"
     pagecolor="#505050"
     bordercolor="#666666"
     borderopacity="1.0"
     inkscape:pageopacity="0"
     inkscape:pageshadow="2"
     inkscape:zoom="2.6498137"
     inkscape:cx="114.72505"
     inkscape:cy="163.21902"
     inkscape:document-units="px"
     inkscape:current-layer="g1335"
     inkscape:document-rotation="0"
     showgrid="false"
     inkscape:window-width="1440"
     inkscape:window-height="900"
     inkscape:window-x="0"
     inkscape:window-y="0"
     inkscape:window-maximized="0"
     fit-margin-top="0"
     fit-margin-left="0"
     fit-margin-right="0"
     fit-margin-bottom="0"
     inkscape:pagecheckerboard="1"
     units="px"
     height="320.331px"
     inkscape:showpageshadow="0"
     inkscape:deskcolor="#505050" />
  <metadata
     id="metadata22841">
    <rdf:RDF>
      <cc:Work
         rdf:about="">
        <dc:format>image/svg+xml</dc:format>
        <dc:type
           rdf:resource="http://purl.org/dc/dcmitype/StillImage" />
      </cc:Work>
    </rdf:RDF>
  </metadata>
  <g
     inkscape:label="Layer 1"
     inkscape:groupmode="layer"
     id="layer1"
     transform="translate(-72.661755,-93.410835)">
    <g
       id="g1335"
       transform="translate(1.5000004,1.4999997)">
      <path
         style="color:#000000;fill:#341610;-inkscape-stroke:none;paint-order:markers stroke fill"
         d="m 130.64258,96.253906 c 0,-2.366362 -1.97739,-4.34375 -4.34375,-4.34375 H 75.505859 c -2.366362,0 -4.34375,1.977388 -4.34375,4.34375 v 76.160154 c 0,2.36636 1.977388,4.34375 4.34375,4.34375 h 50.792971 c 2.36636,0 4.34375,-1.97739 4.34375,-4.34375 z m -4.64649,0.302735 V 172.11328 H 75.806641 V 96.556641 Z"
         id="path3" />
      <path
         style="color:#000000;fill:#ececec;-inkscape-stroke:none;paint-order:markers stroke fill"
         d="m 128.31941,96.254765 v 76.159775 c 0,1.11984 -0.90153,2.02137 -2.02136,2.02137 H 75.505681 c -1.119837,0 -2.021367,-0.90153 -2.021367,-2.02137 V 96.254765 c 0,-1.119837 0.90153,-2.021367 2.021367,-2.021367 h 50.792369 c 1.11983,0 2.02136,0.90153 2.02136,2.021367 z"
         id="path4" />
      <rect
         style="display:inline;fill:#813627;fill-opacity:1;stroke-width:0.357114;paint-order:markers stroke fill"
         id="rect6922-4"
         width="58.884827"
         height="55.761215"
         x="115.65094"
         y="72.947815"
         ry="0"
         transform="matrix(0,1,1,0,0,0)"
         rx="1.8587538" />
      <rect
         style="display:inline;fill:#e6e6e6;stroke:#cccccc;stroke-width:2.91042;stroke-linejoin:round;stroke-dasharray:none;stroke-opacity:1"
         id="rect6918-8"
         width="21.728539"
         height="15.198049"
         x="-98.557137"
         y="97.333839"
         rx="0"
         ry="2.4092338"
         transform="scale(-1,1)" />
      <rect
         style="display:inline;fill:#e6e6e6;stroke:#cccccc;stroke-width:2.91042;stroke-linejoin:round;stroke-dasharray:none;stroke-opacity:1"
         id="rect6918-8-2"
         width="21.728539"
         height="15.198049"
         x="-125.12295"
         y="97.333839"
         rx="0"
         ry="2.4092338"
         transform="scale(-1,1)" />
      <g
         id="g6926"
         transform="matrix(0,-0.87428209,-1.044722,0,225.04307,133.12296)" />
      <path
         id="path3-4"
         style="color:#000000;fill:#341610;-inkscape-stroke:none;paint-order:markers stroke fill"
         d="m 75.505859,91.910281 c -2.36636,0 -4.34392,1.977045 -4.34392,4.343401 v 76.160208 c 0,2.36636 1.97756,4.34392 4.34392,4.34392 h 50.792771 c 2.36636,0 4.34392,-1.97756 4.34392,-4.34392 V 96.253682 c 0,-2.366356 -1.97756,-4.343401 -4.34392,-4.343401 z m 0,2.323373 h 50.792251 c 1.11983,0 2.02107,0.901228 2.02107,2.021068 v 76.159688 c 0,1.11984 -0.90124,2.02158 -2.02107,2.02158 H 75.505859 c -1.11984,0 -2.02158,-0.90174 -2.02158,-2.02158 V 96.254722 c 0,-1.11984 0.90174,-2.021068 2.02158,-2.021068 z" />
    </g>
  </g>
</svg>
