<?xml version="1.0" encoding="UTF-8" standalone="no"?>
<svg
   version="1.1"
   viewBox="0 0 148 308.33231"
   fill="none"
   stroke="none"
   stroke-linecap="square"
   stroke-miterlimit="10"
   id="svg27"
   sodipodi:docname="couch.svg"
   width="148"
   height="308.33231"
   inkscape:version="1.3.2 (1:1.3.2+202311252150+091e20ef0f)"
   xmlns:inkscape="http://www.inkscape.org/namespaces/inkscape"
   xmlns:sodipodi="http://sodipodi.sourceforge.net/DTD/sodipodi-0.dtd"
   xmlns="http://www.w3.org/2000/svg"
   xmlns:svg="http://www.w3.org/2000/svg">
  <defs
     id="defs27" />
  <sodipodi:namedview
     id="namedview27"
     pagecolor="#505050"
     bordercolor="#ffffff"
     borderopacity="1"
     inkscape:showpageshadow="0"
     inkscape:pageopacity="0"
     inkscape:pagecheckerboard="1"
     inkscape:deskcolor="#505050"
     inkscape:zoom="2.9275001"
     inkscape:cx="72.24594"
     inkscape:cy="157.98462"
     inkscape:window-width="2560"
     inkscape:window-height="1368"
     inkscape:window-x="0"
     inkscape:window-y="0"
     inkscape:window-maximized="1"
     inkscape:current-layer="svg27" />
  <g
     id="g1"
     transform="matrix(0,0.40672855,-0.40672855,0,148,0)">
    <path
       fill="#550000"
       d="m 98.13662,487.6483 v 0 c -8.648186,0 -15.658928,-7.01074 -15.658928,-15.65891 v -205.1861 c 0,-4.15301 1.649773,-8.13592 4.586395,-11.07254 2.936615,-2.93661 6.919525,-4.58638 11.072533,-4.58638 h 596.87115 c 8.64819,0 15.65894,7.01073 15.65894,15.65892 v 205.1861 0 c 0,8.64817 -7.01075,15.65891 -15.65894,15.65891 z"
       fill-rule="evenodd"
       id="path3"
       clip-path="url(#clipPath52)"
       transform="translate(-20.887138,-216.32571)" />
    <path
       stroke="#550000"
       stroke-width="12"
       stroke-linejoin="round"
       stroke-linecap="butt"
       d="m 98.13662,487.6483 v 0 c -8.648186,0 -15.658928,-7.01074 -15.658928,-15.65891 v -205.1861 c 0,-4.15301 1.649773,-8.13592 4.586395,-11.07254 2.936615,-2.93661 6.919525,-4.58638 11.072533,-4.58638 h 596.87115 c 8.64819,0 15.65894,7.01073 15.65894,15.65892 v 205.1861 0 c 0,8.64817 -7.01075,15.65891 -15.65894,15.65891 z"
       fill-rule="evenodd"
       id="path4"
       clip-path="url(#clipPath51)"
       transform="translate(-20.887138,-216.32571)" />
    <path
       fill="#990000"
       d="m 129.40692,481.8363 v 0 c -12.78297,0 -23.14562,-10.36264 -23.14562,-23.1456 V 274.99768 c 0,-6.13861 2.43855,-12.02579 6.7792,-16.36643 4.34064,-4.34063 10.22782,-6.77919 16.36642,-6.77919 h 243.28357 c 12.78296,0 23.1456,10.36266 23.1456,23.14562 V 458.6907 c 0,12.78296 -10.36264,23.1456 -23.1456,23.1456 z"
       fill-rule="evenodd"
       id="path5"
       clip-path="url(#clipPath50)"
       transform="translate(-20.887138,-216.32571)" />
    <path
       stroke="#550000"
       stroke-width="12"
       stroke-linejoin="round"
       stroke-linecap="butt"
       d="m 129.40692,481.8363 v 0 c -12.78297,0 -23.14562,-10.36264 -23.14562,-23.1456 V 274.99768 c 0,-6.13861 2.43855,-12.02579 6.7792,-16.36643 4.34064,-4.34063 10.22782,-6.77919 16.36642,-6.77919 h 243.28357 c 12.78296,0 23.1456,10.36266 23.1456,23.14562 V 458.6907 c 0,12.78296 -10.36264,23.1456 -23.1456,23.1456 z"
       fill-rule="evenodd"
       id="path6"
       clip-path="url(#clipPath49)"
       transform="translate(-20.887138,-216.32571)" />
    <path
       fill="#990000"
       d="m 26.887138,239.09216 v 0 c 0,-7.34366 5.953205,-13.29686 13.296856,-13.29686 h 53.185818 v 0 c 3.526543,0 6.908658,1.40091 9.402298,3.89456 2.49364,2.49364 3.89455,5.87575 3.89455,9.4023 v 321.81573 c 0,7.34363 -5.9532,13.29687 -13.296848,13.29687 H 40.183994 c -7.343651,0 -13.296856,-5.95324 -13.296856,-13.29687 z"
       fill-rule="evenodd"
       id="path7"
       clip-path="url(#clipPath48)"
       transform="translate(-20.887138,-216.32571)" />
    <path
       stroke="#550000"
       stroke-width="12"
       stroke-linejoin="round"
       stroke-linecap="butt"
       d="m 26.887138,239.09216 v 0 c 0,-7.34366 5.953205,-13.29686 13.296856,-13.29686 h 53.185818 v 0 c 3.526543,0 6.908658,1.40091 9.402298,3.89456 2.49364,2.49364 3.89455,5.87575 3.89455,9.4023 v 321.81573 c 0,7.34363 -5.9532,13.29687 -13.296848,13.29687 H 40.183994 c -7.343651,0 -13.296856,-5.95324 -13.296856,-13.29687 z"
       fill-rule="evenodd"
       id="path8"
       clip-path="url(#clipPath47)"
       transform="translate(-20.887138,-216.32571)" />
    <path
       fill="#990000"
       d="m 692.82153,235.62257 v 0 c 0,-7.34366 5.95325,-13.29686 13.29688,-13.29686 h 53.18579 v 0 c 3.52655,0 6.90869,1.40091 9.40234,3.89456 2.49359,2.49364 3.89453,5.87575 3.89453,9.4023 V 503.1706 c 0,7.34366 -5.95319,13.29687 -13.29687,13.29687 h -53.18579 c -7.34363,0 -13.29688,-5.95321 -13.29688,-13.29687 z"
       fill-rule="evenodd"
       id="path9"
       clip-path="url(#clipPath46)"
       transform="translate(-20.887138,-216.32571)" />
    <path
       stroke="#550000"
       stroke-width="12"
       stroke-linejoin="round"
       stroke-linecap="butt"
       d="m 692.82153,235.62257 v 0 c 0,-7.34366 5.95325,-13.29686 13.29688,-13.29686 h 53.18579 v 0 c 3.52655,0 6.90869,1.40091 9.40234,3.89456 2.49359,2.49364 3.89453,5.87575 3.89453,9.4023 V 503.1706 c 0,7.34366 -5.95319,13.29687 -13.29687,13.29687 h -53.18579 c -7.34363,0 -13.29688,-5.95321 -13.29688,-13.29687 z"
       fill-rule="evenodd"
       id="path10"
       clip-path="url(#clipPath45)"
       transform="translate(-20.887138,-216.32571)" />
    <path
       fill="#990000"
       d="m 430.34912,481.8363 v 0 c -14.67932,0 -26.57928,-11.89993 -26.57928,-26.57925 V 278.43134 c 0,-7.04926 2.80032,-13.80979 7.78488,-18.79438 4.98459,-4.98459 11.74514,-7.78489 18.7944,-7.78489 h 236.41626 c 14.67932,0 26.57928,11.89994 26.57928,26.57927 v 176.82571 c 0,14.67932 -11.89996,26.57925 -26.57928,26.57925 z"
       fill-rule="evenodd"
       id="path11"
       clip-path="url(#clipPath44)"
       transform="translate(-20.887138,-216.32571)" />
    <path
       stroke="#550000"
       stroke-width="12"
       stroke-linejoin="round"
       stroke-linecap="butt"
       d="m 430.34912,481.8363 v 0 c -14.67932,0 -26.57928,-11.89993 -26.57928,-26.57925 V 278.43134 c 0,-7.04926 2.80032,-13.80979 7.78488,-18.79438 4.98459,-4.98459 11.74514,-7.78489 18.7944,-7.78489 h 236.41626 c 14.67932,0 26.57928,11.89994 26.57928,26.57927 v 176.82571 c 0,14.67932 -11.89996,26.57925 -26.57928,26.57925 z"
       fill-rule="evenodd"
       id="path12"
       clip-path="url(#clipPath43)"
       transform="translate(-20.887138,-216.32571)" />
    <path
       fill="#550000"
       d="m 111.06979,494.02026 v 0 c -2.65565,0 -4.80849,-2.15283 -4.80849,-4.8085 v -19.2334 0 c 0,-1.2753 0.5066,-2.49835 1.40837,-3.40012 0.90177,-0.90176 2.12483,-1.40838 3.40012,-1.40838 h 576.9342 c 2.6557,0 4.80853,2.15283 4.80853,4.8085 v 19.2334 c 0,2.65567 -2.15283,4.8085 -4.80853,4.8085 z"
       fill-rule="evenodd"
       id="path13"
       clip-path="url(#clipPath42)"
       transform="translate(-20.887138,-216.32571)" />
    <path
       fill="#990000"
       d="m 40.2576,574.19904 v 0 c -7.384235,0 -13.370344,-5.98608 -13.370344,-13.3703 v -53.4798 0 c 0,-3.54605 1.408657,-6.94684 3.916084,-9.45425 2.507426,-2.50745 5.908224,-3.91611 9.45426,-3.91611 h 719.338 c 7.38422,0 13.37036,5.98612 13.37036,13.37036 v 53.4798 c 0,7.38422 -5.98614,13.3703 -13.37036,13.3703 z"
       fill-rule="evenodd"
       id="path14"
       clip-path="url(#clipPath41)"
       transform="translate(-20.887138,-216.32571)" />
    <path
       stroke="#550000"
       stroke-width="12"
       stroke-linejoin="round"
       stroke-linecap="butt"
       d="m 40.2576,574.19904 v 0 c -7.384235,0 -13.370344,-5.98608 -13.370344,-13.3703 v -53.4798 0 c 0,-3.54605 1.408657,-6.94684 3.916084,-9.45425 2.507426,-2.50745 5.908224,-3.91611 9.45426,-3.91611 h 719.338 c 7.38422,0 13.37036,5.98612 13.37036,13.37036 v 53.4798 c 0,7.38422 -5.98614,13.3703 -13.37036,13.3703 z"
       fill-rule="evenodd"
       id="path15"
       clip-path="url(#clipPath40)"
       transform="translate(-20.887138,-216.32571)" />
    <path
       fill="#550000"
       d="m 249.58177,348.66583 c 0,-3.96713 2.65155,-11.6763 5.61533,-16.61612 2.96379,-4.93982 7.40983,-10.17853 12.16734,-13.0228 4.75748,-2.84424 12.39996,-5.01581 16.37765,-4.04275 3.97773,0.97305 7.72245,5.16565 7.48865,9.8811 -0.23376,4.71546 -4.9136,13.39694 -8.89133,18.41168 -3.97772,5.01471 -10.45126,9.58072 -14.97497,11.67667 -4.52374,2.09592 -9.20355,1.94684 -12.16734,0.89886 -2.96378,-1.04797 -5.61533,-3.21951 -5.61533,-7.18664 z"
       fill-rule="evenodd"
       id="path16"
       clip-path="url(#clipPath39)"
       transform="translate(-20.887138,-216.32571)" />
    <path
       fill="#550000"
       d="m 268.35852,365.33014 c 4.11359,0.39114 11.84589,3.68344 16.67584,7.00082 4.82993,3.31739 9.82364,8.07978 12.3038,12.90351 2.48017,4.8237 3.97837,12.33615 2.57718,16.03881 -1.40118,3.70267 -6.11776,6.86536 -10.98422,6.17716 -4.86648,-0.6882 -13.40704,-6.01328 -18.21466,-10.30634 -4.80765,-4.29306 -8.90393,-10.92532 -10.63119,-15.45202 -1.72724,-4.52667 -1.11124,-8.98108 0.26764,-11.70807 1.37887,-2.72699 3.89205,-5.04504 8.00561,-4.65387 z"
       fill-rule="evenodd"
       id="path17"
       clip-path="url(#clipPath38)"
       transform="translate(-20.887138,-216.32571)" />
    <path
       fill="#550000"
       d="m 255.13545,385.22504 c -0.44563,3.94373 -3.94751,11.3331 -7.44868,15.93716 -3.50119,4.60407 -8.50946,9.3519 -13.5584,11.6872 -5.04892,2.33533 -12.89023,3.70343 -16.73517,2.32461 -3.84495,-1.37881 -7.0966,-5.93408 -6.33452,-10.59753 0.76209,-4.66345 6.3895,-12.80957 10.90706,-17.38321 4.51755,-4.57364 11.46581,-8.44299 16.19828,-10.05856 4.73246,-1.61557 9.36793,-0.98322 12.1965,0.36517 2.82858,1.34839 5.22056,3.78143 4.77493,7.72516 z"
       fill-rule="evenodd"
       id="path18"
       clip-path="url(#clipPath37)"
       transform="translate(-20.887138,-216.32571)" />
    <path
       fill="#550000"
       d="m 233.20839,368.20145 c -4.05115,-0.78787 -11.397,-4.81265 -15.85284,-8.58105 -4.45583,-3.76844 -8.92252,-8.99027 -10.88218,-14.02948 -1.95967,-5.03919 -2.65942,-12.65806 -0.87579,-16.20578 1.78365,-3.5477 6.80872,-6.23688 11.57762,-5.08051 4.76892,1.15634 12.70487,7.28177 17.03583,12.01868 4.33096,4.73687 7.70804,11.73193 8.94995,16.40265 1.2419,4.67071 0.16025,9.04241 -1.49852,11.62164 -1.65875,2.57925 -4.40291,4.64172 -8.45407,3.85385 z"
       fill-rule="evenodd"
       id="path19"
       clip-path="url(#clipPath36)"
       transform="translate(-20.887138,-216.32571)" />
    <path
       fill="#990000"
       d="m 229.69963,367.53488 v 0 c 0,-12.21237 10.64134,-22.11243 23.7681,-22.11243 v 0 c 13.12675,0 23.76808,9.90006 23.76808,22.11243 v 0 c 0,12.21234 -10.64133,22.11243 -23.76808,22.11243 v 0 c -13.12676,0 -23.7681,-9.90009 -23.7681,-22.11243 z"
       fill-rule="evenodd"
       id="path20"
       clip-path="url(#clipPath35)"
       transform="translate(-20.887138,-216.32571)" />
    <path
       fill="#550000"
       d="m 246.34004,367.53488 v 0 c 0,-3.65427 3.19118,-6.61664 7.12769,-6.61664 v 0 c 3.9365,0 7.12767,2.96237 7.12767,6.61664 v 0 c 0,3.65427 -3.19117,6.61661 -7.12767,6.61661 v 0 c -3.93651,0 -7.12769,-2.96234 -7.12769,-6.61661 z"
       fill-rule="evenodd"
       id="path21"
       clip-path="url(#clipPath34)"
       transform="translate(-20.887138,-216.32571)" />
    <path
       fill="#550000"
       d="m 547.08704,348.66583 c 0,-3.96713 2.65155,-11.6763 5.6153,-16.61612 2.9638,-4.93982 7.40985,-10.17853 12.16735,-13.0228 4.75751,-2.84424 12.39997,-5.01581 16.37769,-4.04275 3.97772,0.97305 7.72241,5.16565 7.48865,9.8811 -0.23383,4.71546 -4.91364,13.39694 -8.89136,18.41168 -3.97772,5.01471 -10.45129,9.58072 -14.97498,11.67667 -4.52374,2.09592 -9.20355,1.94684 -12.16735,0.89886 -2.96375,-1.04797 -5.6153,-3.21951 -5.6153,-7.18664 z"
       fill-rule="evenodd"
       id="path22"
       clip-path="url(#clipPath33)"
       transform="translate(-20.887138,-216.32571)" />
    <path
       fill="#550000"
       d="m 565.8638,365.33014 c 4.11359,0.39114 11.84589,3.68344 16.67584,7.00082 4.82996,3.31739 9.82367,8.07978 12.30383,12.90351 2.48017,4.8237 3.97834,12.33615 2.57715,16.03881 -1.40118,3.70267 -6.11773,6.86536 -10.98425,6.17716 -4.86645,-0.6882 -13.40698,-6.01328 -18.21466,-10.30634 -4.80762,-4.29306 -8.90387,-10.92532 -10.63116,-15.45202 -1.72724,-4.52667 -1.11121,-8.98108 0.26763,-11.70807 1.37891,-2.72699 3.89203,-5.04504 8.00562,-4.65387 z"
       fill-rule="evenodd"
       id="path23"
       clip-path="url(#clipPath32)"
       transform="translate(-20.887138,-216.32571)" />
    <path
       fill="#550000"
       d="m 552.6407,385.22504 c -0.44562,3.94373 -3.94751,11.3331 -7.44867,15.93716 -3.50116,4.60407 -8.50946,9.3519 -13.55841,11.6872 -5.04889,2.33533 -12.8902,3.70343 -16.73517,2.32461 -3.84494,-1.37881 -7.09659,-5.93408 -6.3345,-10.59753 0.76208,-4.66345 6.38949,-12.80957 10.90707,-17.38321 4.51752,-4.57364 11.46582,-8.44299 16.19824,-10.05856 4.73249,-1.61557 9.36792,-0.98322 12.19654,0.36517 2.82855,1.34839 5.22052,3.78143 4.7749,7.72516 z"
       fill-rule="evenodd"
       id="path24"
       clip-path="url(#clipPath31)"
       transform="translate(-20.887138,-216.32571)" />
    <path
       fill="#550000"
       d="m 530.7136,368.20145 c -4.05115,-0.78787 -11.39697,-4.81265 -15.85284,-8.58105 -4.45581,-3.76844 -8.92252,-8.99027 -10.88218,-14.02948 -1.95965,-5.03919 -2.65942,-12.65806 -0.87576,-16.20578 1.78363,-3.5477 6.80872,-6.23688 11.57764,-5.08051 4.76886,1.15634 12.70483,7.28177 17.03583,12.01868 4.33093,4.73687 7.708,11.73193 8.94989,16.40265 1.24194,4.67071 0.16027,9.04241 -1.49848,11.62164 -1.65875,2.57925 -4.40295,4.64172 -8.4541,3.85385 z"
       fill-rule="evenodd"
       id="path25"
       clip-path="url(#clipPath30)"
       transform="translate(-20.887138,-216.32571)" />
    <path
       fill="#990000"
       d="m 527.2049,367.53488 v 0 c 0,-12.21237 10.6413,-22.11243 23.76807,-22.11243 v 0 c 13.12677,0 23.76812,9.90006 23.76812,22.11243 v 0 c 0,12.21234 -10.64135,22.11243 -23.76812,22.11243 v 0 c -13.12677,0 -23.76807,-9.90009 -23.76807,-22.11243 z"
       fill-rule="evenodd"
       id="path26"
       clip-path="url(#clipPath29)"
       transform="translate(-20.887138,-216.32571)" />
    <path
       fill="#550000"
       d="m 543.8453,367.53488 v 0 c 0,-3.65427 3.19116,-6.61664 7.12769,-6.61664 v 0 c 3.93652,0 7.12768,2.96237 7.12768,6.61664 v 0 c 0,3.65427 -3.19116,6.61661 -7.12768,6.61661 v 0 c -3.93653,0 -7.12769,-2.96234 -7.12769,-6.61661 z"
       fill-rule="evenodd"
       id="path27"
       clip-path="url(#clipPath28)"
       transform="translate(-20.887138,-216.32571)" />
  </g>
</svg>
