<?xml version="1.0" encoding="UTF-8" standalone="no"?>
<!-- Created with Inkscape (http://www.inkscape.org/) -->

<svg
   width="62.931828mm"
   height="33.421852mm"
   viewBox="0 0 62.931828 33.421852"
   version="1.1"
   id="svg1"
   inkscape:version="1.3.2 (091e20e, 2023-11-25, custom)"
   sodipodi:docname="fire_hatchet_case.svg"
   xmlns:inkscape="http://www.inkscape.org/namespaces/inkscape"
   xmlns:sodipodi="http://sodipodi.sourceforge.net/DTD/sodipodi-0.dtd"
   xmlns:xlink="http://www.w3.org/1999/xlink"
   xmlns="http://www.w3.org/2000/svg"
   xmlns:svg="http://www.w3.org/2000/svg">
  <sodipodi:namedview
     id="namedview1"
     pagecolor="#ffffff"
     bordercolor="#000000"
     borderopacity="0.25"
     inkscape:showpageshadow="2"
     inkscape:pageopacity="0.0"
     inkscape:pagecheckerboard="0"
     inkscape:deskcolor="#d1d1d1"
     inkscape:document-units="mm"
     inkscape:zoom="1.4342733"
     inkscape:cx="115.04084"
     inkscape:cy="73.556414"
     inkscape:window-width="1920"
     inkscape:window-height="1001"
     inkscape:window-x="-9"
     inkscape:window-y="-9"
     inkscape:window-maximized="1"
     inkscape:current-layer="layer1" />
  <defs
     id="defs1">
    <pattern
       inkscape:collect="always"
       xlink:href="#Strips1_1"
       preserveAspectRatio="xMidYMid"
       id="pattern18"
       patternTransform="matrix(1.4142136,1.4142136,-1.4142136,1.4142136,0,0)"
       x="0.45"
       y="0" />
    <pattern
       inkscape:collect="always"
       patternUnits="userSpaceOnUse"
       width="2"
       height="10"
       patternTransform="translate(0,0) scale(2,2)"
       preserveAspectRatio="xMidYMid"
       id="Strips1_1"
       style="fill:#e19a9a"
       inkscape:stockid="Stripes 01 (1:1)"
       inkscape:isstock="true"
       inkscape:label="Stripes 01 (1:1)">
      <rect
   style="stroke:none"
   x="0"
   y="-0.5"
   width="1"
   height="11"
   id="rect134" />

    </pattern>
  </defs>
  <g
     inkscape:label="Στρώση 1"
     inkscape:groupmode="layer"
     id="layer1"
     transform="translate(-228.33542,-115.62292)">
    <g
       id="g24"
       transform="translate(-90.347003,-103.83605)">
      <path
         id="rect20"
         style="fill:#adad38;stroke:#3a3a13;stroke-width:1.588;stroke-linecap:round;stroke-linejoin:round;stroke-miterlimit:5"
         d="m 376.69268,224.71915 h 1.02884 c 0.90186,0 1.6279,0.72604 1.6279,1.62789 l -0.27132,2.598 0.31553,2.89467 -0.28309,3.88764 0.41148,5.06923 -0.46037,5.6363 c -0.0734,0.89886 -0.43827,1.62789 -1.34013,1.62789 h -1.02884 c -0.90185,0 -1.62789,-0.72604 -1.62789,-1.62789 l 0.0626,-7.26725 -0.30525,-5.97068 0.51399,-4.43079 -0.27132,-2.41712 c -0.1006,-0.89622 0.72604,-1.62789 1.62789,-1.62789 z"
         sodipodi:nodetypes="sssccccsssscccsss" />
      <g
         id="g19"
         transform="translate(0.56272173)">
        <rect
           style="fill:#727272;fill-opacity:1;stroke:#272727;stroke-width:1.5875;stroke-linecap:round;stroke-linejoin:round;stroke-miterlimit:5;stroke-dasharray:none;stroke-opacity:1"
           id="rect18"
           width="3.3104773"
           height="31.834351"
           x="323.93579"
           y="220.25272" />
        <rect
           style="fill:#727272;fill-opacity:1;stroke:#272727;stroke-width:1.5875;stroke-linecap:round;stroke-linejoin:round;stroke-miterlimit:5;stroke-dasharray:none;stroke-opacity:1"
           id="rect18-2"
           width="3.3104773"
           height="31.834351"
           x="365.54733"
           y="220.25272" />
      </g>
      <path
         id="rect21"
         style="fill:#727272;stroke:#272727;stroke-width:1.588;stroke-linecap:round;stroke-linejoin:round;stroke-miterlimit:5"
         d="m 375.25381,245.37488 c 0,0 0.40396,0.9496 1.96927,0.9496 1.56532,0 1.81101,-0.9496 1.81101,-0.9496 0.81234,-0.39172 1.78616,0.72604 1.78616,1.62789 v 0.0696 c 0,0.90185 -0.72604,1.62789 -1.62789,1.62789 0,0 -0.8404,0.83656 -1.96928,0.83656 -1.12887,0 -1.96927,-0.83656 -1.96927,-0.83656 -0.83006,-0.35261 -1.62789,-0.72604 -1.62789,-1.62789 v -0.0696 c 0,-0.90185 0.72604,-1.62789 1.62789,-1.62789 z"
         sodipodi:nodetypes="szsssszssss" />
      <rect
         style="fill:#c32020;fill-opacity:1;stroke:#480f0f;stroke-width:1.876;stroke-linecap:round;stroke-linejoin:round;stroke-miterlimit:5;stroke-dasharray:none;stroke-opacity:1"
         id="rect1"
         width="54.6782"
         height="24.692102"
         x="319.62042"
         y="223.82384" />
      <g
         id="g18"
         style="display:inline">
        <rect
           style="fill:#727272;fill-opacity:1;stroke:#272727;stroke-width:1.5875;stroke-linecap:round;stroke-linejoin:round;stroke-miterlimit:5;stroke-dasharray:none;stroke-opacity:1"
           id="rect2"
           width="48.746346"
           height="9.1342878"
           x="322.58636"
           y="226.9794" />
        <rect
           style="fill:url(#pattern18);fill-opacity:1;stroke:none;stroke-width:1.5875;stroke-linecap:round;stroke-linejoin:round;stroke-miterlimit:5;stroke-dasharray:none;stroke-opacity:1"
           id="rect3"
           width="50.333858"
           height="4.4125204"
           x="321.7926"
           y="241.7937" />
      </g>
      <g
         data-paper-data="{&quot;isPaintingLayer&quot;:true}"
         fill-rule="nonzero"
         stroke-linecap="butt"
         stroke-linejoin="miter"
         stroke-miterlimit="10"
         stroke-dasharray="none"
         stroke-dashoffset="0"
         style="mix-blend-mode:normal"
         id="g6"
         transform="matrix(0.3021049,0,0,0.3021049,232.20718,170.67923)">
        <path
           d="m 368.73114,201.13773 c 0,-0.7742 -0.0111,-1.84406 0.262,-2.81351 0.36326,-1.29079 1.16128,-2.4036 1.16128,-2.4036 0,0 -1.82432,6.72028 3.51976,4.92246 2.05996,-0.693 0.96811,-4.20449 0.69979,-6.83703 -0.15821,-1.55219 0.85987,-2.85715 0.85987,-2.85715 0,0 0.0111,1.28854 0.55877,2.59336 0.43286,1.03177 1.59732,3.30136 3.42593,3.02571 4.53372,-0.68342 4.1003,-6.0625 4.1003,-6.0625 0,0 2.03018,3.32417 1.97955,6.56131 -0.0484,3.09239 -1.76951,4.10773 0.50154,5.77997 3.48358,2.56508 4.76275,-4.84409 4.76275,-4.84409 0,0 0.39175,1.91909 0.39175,2.93506 0,6.13679 -4.97485,11.11165 -11.11164,11.11165 -6.1368,0 -11.11165,-4.97486 -11.11165,-11.11165 z"
           fill="#f17a23"
           stroke="#bd5f1c"
           stroke-width="1.16656"
           id="path2"
           style="fill:#a8a8a8;fill-opacity:1;stroke:none" />
      </g>
    </g>
  </g>
</svg>
