<svg width="274" height="554" viewBox="0 0 274 554" fill="none" xmlns="http://www.w3.org/2000/svg">
<path fill-rule="evenodd" clip-rule="evenodd" d="M268.631 480.82H5.55078V486.99C7.27078 488.03 8.86064 489.22 10.1606 490.52C16.3206 496.67 19.9108 509.43 19.0408 510.3C18.4108 510.93 11.6108 509.24 5.55078 505.94V548.73C92.7108 548.73 181.191 548.73 268.631 548.73C268.631 533.04 268.631 505.21 268.631 480.82ZM242.721 501.43C248.881 507.58 261.641 511.18 262.511 510.3C263.381 509.43 259.791 496.68 253.631 490.52C247.481 484.36 234.651 480.84 233.851 481.64C233.041 482.45 236.571 495.27 242.721 501.43ZM162.331 531.86C168.491 525.71 172.081 512.95 171.211 512.08C170.341 511.21 157.581 514.8 151.421 520.95C145.271 527.11 141.751 539.93 142.551 540.74C143.351 541.54 156.181 538.02 162.331 531.86ZM120.991 501.42C127.141 507.58 139.901 511.17 140.771 510.3C141.641 509.43 138.051 496.67 131.901 490.52C125.741 484.36 112.921 480.84 112.111 481.64C111.311 482.44 114.831 495.27 120.991 501.42ZM40.6008 531.86C46.7508 525.7 50.3407 512.95 49.4707 512.07C48.6007 511.2 35.8407 514.79 29.6907 520.95C23.5307 527.11 20.0108 539.93 20.8108 540.73C21.6208 541.54 34.4408 538.01 40.6008 531.86ZM201.641 510.3C200.771 511.18 188.011 507.58 181.861 501.43C175.701 495.27 172.181 482.45 172.981 481.64C173.781 480.84 186.611 484.36 192.761 490.52C198.921 496.68 202.511 509.43 201.641 510.3ZM232.071 512.07C232.941 512.95 229.351 525.7 223.201 531.86C217.041 538.01 204.221 541.54 203.411 540.73C202.611 539.93 206.131 527.11 212.291 520.95C218.441 514.79 231.201 511.2 232.071 512.07ZM79.9006 510.3C79.0306 511.17 66.2806 507.58 60.1206 501.42C53.9606 495.27 50.4407 482.44 51.2407 481.64C52.0507 480.84 64.8708 484.36 71.0308 490.52C77.1808 496.67 80.7806 509.43 79.9006 510.3ZM110.341 512.08C111.211 512.95 107.621 525.71 101.471 531.86C95.3107 538.02 82.4907 541.54 81.6807 540.74C80.8807 539.93 84.4008 527.11 90.5608 520.95C96.7108 514.8 109.471 511.21 110.341 512.08Z" fill="#575757"/>
<path fill-rule="evenodd" clip-rule="evenodd" d="M268.631 480.82H5.55078V486.99C7.27078 488.03 8.86064 489.22 10.1606 490.52C16.3206 496.67 19.9108 509.43 19.0408 510.3C18.4108 510.93 11.6108 509.24 5.55078 505.94V547.85C6.01078 548.14 6.47064 548.43 6.91064 548.73C97.4706 548.73 178.551 548.73 268.631 548.73C268.631 533.04 268.631 505.21 268.631 480.82ZM242.721 501.43C248.881 507.58 261.641 511.18 262.511 510.3C263.381 509.43 259.791 496.68 253.631 490.52C247.481 484.36 234.651 480.84 233.851 481.64C233.041 482.45 236.571 495.27 242.721 501.43ZM162.331 531.86C168.491 525.71 172.081 512.95 171.211 512.08C170.341 511.21 157.581 514.8 151.421 520.95C145.271 527.11 141.751 539.93 142.551 540.74C143.351 541.54 156.181 538.02 162.331 531.86ZM120.991 501.42C127.141 507.58 139.901 511.17 140.771 510.3C141.641 509.43 138.051 496.67 131.901 490.52C125.741 484.36 112.921 480.84 112.111 481.64C111.311 482.44 114.831 495.27 120.991 501.42ZM40.6008 531.86C46.7508 525.7 50.3407 512.95 49.4707 512.07C48.6007 511.2 35.8407 514.79 29.6907 520.95C23.5307 527.11 20.0108 539.93 20.8108 540.73C21.6208 541.54 34.4408 538.01 40.6008 531.86ZM201.641 510.3C200.771 511.18 188.011 507.58 181.861 501.43C175.701 495.27 172.181 482.45 172.981 481.64C173.781 480.84 186.611 484.36 192.761 490.52C198.921 496.68 202.511 509.43 201.641 510.3ZM232.071 512.07C232.941 512.95 229.351 525.7 223.201 531.86C217.041 538.01 204.221 541.54 203.411 540.73C202.611 539.93 206.131 527.11 212.291 520.95C218.441 514.79 231.201 511.2 232.071 512.07ZM79.9006 510.3C79.0306 511.17 66.2806 507.58 60.1206 501.42C53.9606 495.27 50.4407 482.44 51.2407 481.64C52.0507 480.84 64.8708 484.36 71.0308 490.52C77.1808 496.67 80.7806 509.43 79.9006 510.3ZM110.341 512.08C111.211 512.95 107.621 525.71 101.471 531.86C95.3107 538.02 82.4907 541.54 81.6807 540.74C80.8807 539.93 84.4008 527.11 90.5608 520.95C96.7108 514.8 109.471 511.21 110.341 512.08Z" stroke="#262626" stroke-width="3"/>
<path fill-rule="evenodd" clip-rule="evenodd" d="M268.631 480.82H5.55078V486.99C7.27078 488.03 8.86064 489.22 10.1606 490.52C16.3206 496.67 19.9108 509.43 19.0408 510.3C18.4108 510.93 11.6108 509.24 5.55078 505.94V548.73C92.7108 548.73 181.191 548.73 268.631 548.73C268.631 533.04 268.631 505.21 268.631 480.82ZM242.721 501.43C248.881 507.58 261.641 511.18 262.511 510.3C263.381 509.43 259.791 496.68 253.631 490.52C247.481 484.36 234.651 480.84 233.851 481.64C233.041 482.45 236.571 495.27 242.721 501.43ZM162.331 531.86C168.491 525.71 172.081 512.95 171.211 512.08C170.341 511.21 157.581 514.8 151.421 520.95C145.271 527.11 141.751 539.93 142.551 540.74C143.351 541.54 156.181 538.02 162.331 531.86ZM120.991 501.42C127.141 507.58 139.901 511.17 140.771 510.3C141.641 509.43 138.051 496.67 131.901 490.52C125.741 484.36 112.921 480.84 112.111 481.64C111.311 482.44 114.831 495.27 120.991 501.42ZM40.6008 531.86C46.7508 525.7 50.3407 512.95 49.4707 512.07C48.6007 511.2 35.8407 514.79 29.6907 520.95C23.5307 527.11 20.0108 539.93 20.8108 540.73C21.6208 541.54 34.4408 538.01 40.6008 531.86ZM201.641 510.3C200.771 511.18 188.011 507.58 181.861 501.43C175.701 495.27 172.181 482.45 172.981 481.64C173.781 480.84 186.611 484.36 192.761 490.52C198.921 496.68 202.511 509.43 201.641 510.3ZM232.071 512.07C232.941 512.95 229.351 525.7 223.201 531.86C217.041 538.01 204.221 541.54 203.411 540.73C202.611 539.93 206.131 527.11 212.291 520.95C218.441 514.79 231.201 511.2 232.071 512.07ZM79.9006 510.3C79.0306 511.17 66.2806 507.58 60.1206 501.42C53.9606 495.27 50.4407 482.44 51.2407 481.64C52.0507 480.84 64.8708 484.36 71.0308 490.52C77.1808 496.67 80.7806 509.43 79.9006 510.3ZM110.341 512.08C111.211 512.95 107.621 525.71 101.471 531.86C95.3107 538.02 82.4907 541.54 81.6807 540.74C80.8807 539.93 84.4008 527.11 90.5608 520.95C96.7108 514.8 109.471 511.21 110.341 512.08Z" fill="#575757"/>
<path fill-rule="evenodd" clip-rule="evenodd" d="M268.631 480.82H5.55078V486.99C7.27078 488.03 8.86064 489.22 10.1606 490.52C16.3206 496.67 19.9108 509.43 19.0408 510.3C18.4108 510.93 11.6108 509.24 5.55078 505.94V547.85C6.01078 548.14 6.47064 548.43 6.91064 548.73C97.4706 548.73 178.551 548.73 268.631 548.73C268.631 533.04 268.631 505.21 268.631 480.82ZM242.721 501.43C248.881 507.58 261.641 511.18 262.511 510.3C263.381 509.43 259.791 496.68 253.631 490.52C247.481 484.36 234.651 480.84 233.851 481.64C233.041 482.45 236.571 495.27 242.721 501.43ZM162.331 531.86C168.491 525.71 172.081 512.95 171.211 512.08C170.341 511.21 157.581 514.8 151.421 520.95C145.271 527.11 141.751 539.93 142.551 540.74C143.351 541.54 156.181 538.02 162.331 531.86ZM120.991 501.42C127.141 507.58 139.901 511.17 140.771 510.3C141.641 509.43 138.051 496.67 131.901 490.52C125.741 484.36 112.921 480.84 112.111 481.64C111.311 482.44 114.831 495.27 120.991 501.42ZM40.6008 531.86C46.7508 525.7 50.3407 512.95 49.4707 512.07C48.6007 511.2 35.8407 514.79 29.6907 520.95C23.5307 527.11 20.0108 539.93 20.8108 540.73C21.6208 541.54 34.4408 538.01 40.6008 531.86ZM201.641 510.3C200.771 511.18 188.011 507.58 181.861 501.43C175.701 495.27 172.181 482.45 172.981 481.64C173.781 480.84 186.611 484.36 192.761 490.52C198.921 496.68 202.511 509.43 201.641 510.3ZM232.071 512.07C232.941 512.95 229.351 525.7 223.201 531.86C217.041 538.01 204.221 541.54 203.411 540.73C202.611 539.93 206.131 527.11 212.291 520.95C218.441 514.79 231.201 511.2 232.071 512.07ZM79.9006 510.3C79.0306 511.17 66.2806 507.58 60.1206 501.42C53.9606 495.27 50.4407 482.44 51.2407 481.64C52.0507 480.84 64.8708 484.36 71.0308 490.52C77.1808 496.67 80.7806 509.43 79.9006 510.3ZM110.341 512.08C111.211 512.95 107.621 525.71 101.471 531.86C95.3107 538.02 82.4907 541.54 81.6807 540.74C80.8807 539.93 84.4008 527.11 90.5608 520.95C96.7108 514.8 109.471 511.21 110.341 512.08Z" stroke="#262626" stroke-width="3"/>
<path d="M268.631 480.82H5.55078V548.73H268.631V480.82Z" stroke="#262626" stroke-width="10"/>
<path fill-rule="evenodd" clip-rule="evenodd" d="M268.631 412.91H5.55078V419.08C7.27078 420.12 8.86064 421.31 10.1606 422.61C16.3206 428.76 19.9108 441.52 19.0408 442.39C18.4108 443.02 11.6108 441.33 5.55078 438.03V480.82C92.7108 480.82 181.191 480.82 268.631 480.82C268.631 465.13 268.631 437.29 268.631 412.91ZM242.721 433.52C248.881 439.67 261.641 443.27 262.511 442.39C263.381 441.52 259.791 428.77 253.631 422.61C247.481 416.45 234.651 412.93 233.851 413.73C233.041 414.54 236.571 427.36 242.721 433.52ZM162.331 463.95C168.491 457.8 172.081 445.04 171.211 444.17C170.341 443.3 157.581 446.89 151.421 453.04C145.271 459.2 141.751 472.02 142.551 472.83C143.351 473.63 156.181 470.11 162.331 463.95ZM120.991 433.51C127.141 439.67 139.901 443.26 140.771 442.39C141.641 441.52 138.051 428.76 131.901 422.61C125.741 416.45 112.921 412.93 112.111 413.73C111.311 414.53 114.831 427.36 120.991 433.51ZM40.6008 463.95C46.7508 457.79 50.3407 445.04 49.4707 444.16C48.6007 443.29 35.8407 446.88 29.6907 453.04C23.5307 459.2 20.0108 472.02 20.8108 472.82C21.6208 473.63 34.4408 470.1 40.6008 463.95ZM201.641 442.39C200.771 443.27 188.011 439.67 181.861 433.52C175.701 427.36 172.181 414.54 172.981 413.73C173.781 412.93 186.611 416.45 192.761 422.61C198.921 428.77 202.511 441.52 201.641 442.39ZM232.071 444.16C232.941 445.04 229.351 457.79 223.201 463.95C217.041 470.1 204.221 473.63 203.411 472.82C202.611 472.02 206.131 459.2 212.291 453.04C218.441 446.88 231.201 443.29 232.071 444.16ZM79.9006 442.39C79.0306 443.26 66.2806 439.67 60.1206 433.51C53.9606 427.36 50.4407 414.53 51.2407 413.73C52.0507 412.93 64.8708 416.45 71.0308 422.61C77.1808 428.76 80.7806 441.52 79.9006 442.39ZM110.341 444.17C111.211 445.04 107.621 457.8 101.471 463.95C95.3107 470.11 82.4907 473.63 81.6807 472.83C80.8807 472.02 84.4008 459.2 90.5608 453.04C96.7108 446.89 109.471 443.3 110.341 444.17Z" fill="#575757"/>
<path fill-rule="evenodd" clip-rule="evenodd" d="M268.631 412.91H5.55078V419.08C7.27078 420.12 8.86064 421.31 10.1606 422.61C16.3206 428.76 19.9108 441.52 19.0408 442.39C18.4108 443.02 11.6108 441.33 5.55078 438.03V479.94C6.01078 480.23 6.47064 480.52 6.91064 480.82C97.4706 480.82 178.551 480.82 268.631 480.82C268.631 465.13 268.631 437.29 268.631 412.91ZM242.721 433.52C248.881 439.67 261.641 443.27 262.511 442.39C263.381 441.52 259.791 428.77 253.631 422.61C247.481 416.45 234.651 412.93 233.851 413.73C233.041 414.54 236.571 427.36 242.721 433.52ZM162.331 463.95C168.491 457.8 172.081 445.04 171.211 444.17C170.341 443.3 157.581 446.89 151.421 453.04C145.271 459.2 141.751 472.02 142.551 472.83C143.351 473.63 156.181 470.11 162.331 463.95ZM120.991 433.51C127.141 439.67 139.901 443.26 140.771 442.39C141.641 441.52 138.051 428.76 131.901 422.61C125.741 416.45 112.921 412.93 112.111 413.73C111.311 414.53 114.831 427.36 120.991 433.51ZM40.6008 463.95C46.7508 457.79 50.3407 445.04 49.4707 444.16C48.6007 443.29 35.8407 446.88 29.6907 453.04C23.5307 459.2 20.0108 472.02 20.8108 472.82C21.6208 473.63 34.4408 470.1 40.6008 463.95ZM201.641 442.39C200.771 443.27 188.011 439.67 181.861 433.52C175.701 427.36 172.181 414.54 172.981 413.73C173.781 412.93 186.611 416.45 192.761 422.61C198.921 428.77 202.511 441.52 201.641 442.39ZM232.071 444.16C232.941 445.04 229.351 457.79 223.201 463.95C217.041 470.1 204.221 473.63 203.411 472.82C202.611 472.02 206.131 459.2 212.291 453.04C218.441 446.88 231.201 443.29 232.071 444.16ZM79.9006 442.39C79.0306 443.26 66.2806 439.67 60.1206 433.51C53.9606 427.36 50.4407 414.53 51.2407 413.73C52.0507 412.93 64.8708 416.45 71.0308 422.61C77.1808 428.76 80.7806 441.52 79.9006 442.39ZM110.341 444.17C111.211 445.04 107.621 457.8 101.471 463.95C95.3107 470.11 82.4907 473.63 81.6807 472.83C80.8807 472.02 84.4008 459.2 90.5608 453.04C96.7108 446.89 109.471 443.3 110.341 444.17Z" stroke="#262626" stroke-width="3"/>
<path fill-rule="evenodd" clip-rule="evenodd" d="M268.631 412.91H5.55078V419.08C7.27078 420.12 8.86064 421.31 10.1606 422.61C16.3206 428.76 19.9108 441.52 19.0408 442.39C18.4108 443.02 11.6108 441.33 5.55078 438.03V480.82C92.7108 480.82 181.191 480.82 268.631 480.82C268.631 465.13 268.631 437.29 268.631 412.91ZM242.721 433.52C248.881 439.67 261.641 443.27 262.511 442.39C263.381 441.52 259.791 428.77 253.631 422.61C247.481 416.45 234.651 412.93 233.851 413.73C233.041 414.54 236.571 427.36 242.721 433.52ZM162.331 463.95C168.491 457.8 172.081 445.04 171.211 444.17C170.341 443.3 157.581 446.89 151.421 453.04C145.271 459.2 141.751 472.02 142.551 472.83C143.351 473.63 156.181 470.11 162.331 463.95ZM120.991 433.51C127.141 439.67 139.901 443.26 140.771 442.39C141.641 441.52 138.051 428.76 131.901 422.61C125.741 416.45 112.921 412.93 112.111 413.73C111.311 414.53 114.831 427.36 120.991 433.51ZM40.6008 463.95C46.7508 457.79 50.3407 445.04 49.4707 444.16C48.6007 443.29 35.8407 446.88 29.6907 453.04C23.5307 459.2 20.0108 472.02 20.8108 472.82C21.6208 473.63 34.4408 470.1 40.6008 463.95ZM201.641 442.39C200.771 443.27 188.011 439.67 181.861 433.52C175.701 427.36 172.181 414.54 172.981 413.73C173.781 412.93 186.611 416.45 192.761 422.61C198.921 428.77 202.511 441.52 201.641 442.39ZM232.071 444.16C232.941 445.04 229.351 457.79 223.201 463.95C217.041 470.1 204.221 473.63 203.411 472.82C202.611 472.02 206.131 459.2 212.291 453.04C218.441 446.88 231.201 443.29 232.071 444.16ZM79.9006 442.39C79.0306 443.26 66.2806 439.67 60.1206 433.51C53.9606 427.36 50.4407 414.53 51.2407 413.73C52.0507 412.93 64.8708 416.45 71.0308 422.61C77.1808 428.76 80.7806 441.52 79.9006 442.39ZM110.341 444.17C111.211 445.04 107.621 457.8 101.471 463.95C95.3107 470.11 82.4907 473.63 81.6807 472.83C80.8807 472.02 84.4008 459.2 90.5608 453.04C96.7108 446.89 109.471 443.3 110.341 444.17Z" fill="#545454"/>
<path fill-rule="evenodd" clip-rule="evenodd" d="M268.631 412.91H5.55078V419.08C7.27078 420.12 8.86064 421.31 10.1606 422.61C16.3206 428.76 19.9108 441.52 19.0408 442.39C18.4108 443.02 11.6108 441.33 5.55078 438.03V479.94C6.01078 480.23 6.47064 480.52 6.91064 480.82C97.4706 480.82 178.551 480.82 268.631 480.82C268.631 465.13 268.631 437.29 268.631 412.91ZM242.721 433.52C248.881 439.67 261.641 443.27 262.511 442.39C263.381 441.52 259.791 428.77 253.631 422.61C247.481 416.45 234.651 412.93 233.851 413.73C233.041 414.54 236.571 427.36 242.721 433.52ZM162.331 463.95C168.491 457.8 172.081 445.04 171.211 444.17C170.341 443.3 157.581 446.89 151.421 453.04C145.271 459.2 141.751 472.02 142.551 472.83C143.351 473.63 156.181 470.11 162.331 463.95ZM120.991 433.51C127.141 439.67 139.901 443.26 140.771 442.39C141.641 441.52 138.051 428.76 131.901 422.61C125.741 416.45 112.921 412.93 112.111 413.73C111.311 414.53 114.831 427.36 120.991 433.51ZM40.6008 463.95C46.7508 457.79 50.3407 445.04 49.4707 444.16C48.6007 443.29 35.8407 446.88 29.6907 453.04C23.5307 459.2 20.0108 472.02 20.8108 472.82C21.6208 473.63 34.4408 470.1 40.6008 463.95ZM201.641 442.39C200.771 443.27 188.011 439.67 181.861 433.52C175.701 427.36 172.181 414.54 172.981 413.73C173.781 412.93 186.611 416.45 192.761 422.61C198.921 428.77 202.511 441.52 201.641 442.39ZM232.071 444.16C232.941 445.04 229.351 457.79 223.201 463.95C217.041 470.1 204.221 473.63 203.411 472.82C202.611 472.02 206.131 459.2 212.291 453.04C218.441 446.88 231.201 443.29 232.071 444.16ZM79.9006 442.39C79.0306 443.26 66.2806 439.67 60.1206 433.51C53.9606 427.36 50.4407 414.53 51.2407 413.73C52.0507 412.93 64.8708 416.45 71.0308 422.61C77.1808 428.76 80.7806 441.52 79.9006 442.39ZM110.341 444.17C111.211 445.04 107.621 457.8 101.471 463.95C95.3107 470.11 82.4907 473.63 81.6807 472.83C80.8807 472.02 84.4008 459.2 90.5608 453.04C96.7108 446.89 109.471 443.3 110.341 444.17Z" stroke="#262626" stroke-width="3"/>
<path d="M268.631 412.91H5.55078V480.82H268.631V412.91Z" stroke="#262626" stroke-width="10"/>
<path fill-rule="evenodd" clip-rule="evenodd" d="M268.631 345.004H5.55078V351.165C7.27078 352.214 8.86064 353.396 10.1606 354.695C16.3206 360.852 19.9108 373.607 19.0408 374.479C18.4108 375.108 11.6108 373.417 5.55078 370.118V412.91C92.7108 412.91 181.191 412.91 268.631 412.91C268.631 397.218 268.631 369.385 268.631 345.004ZM242.721 365.608C248.881 371.764 261.641 375.355 262.511 374.483C263.381 373.611 259.791 360.856 253.631 354.699C247.481 348.543 234.651 345.021 233.851 345.824C233.041 346.628 236.571 359.452 242.721 365.608ZM162.331 396.042C168.491 389.886 172.081 377.13 171.211 376.258C170.341 375.386 157.581 378.977 151.421 385.133C145.271 391.289 141.751 404.11 142.551 404.92C143.351 405.72 156.181 402.198 162.331 396.042ZM120.991 365.604C127.141 371.761 139.901 375.351 140.771 374.479C141.641 373.607 138.051 360.852 131.901 354.695C125.741 348.539 112.921 345.017 112.111 345.82C111.311 346.624 114.831 359.448 120.991 365.604ZM40.6008 396.038C46.7508 389.882 50.3407 377.126 49.4707 376.254C48.6007 375.382 35.8407 378.973 29.6907 385.129C23.5307 391.285 20.0108 404.11 20.8108 404.91C21.6208 405.72 34.4408 402.194 40.6008 396.038ZM201.641 374.483C200.771 375.355 188.011 371.764 181.861 365.608C175.701 359.452 172.181 346.628 172.981 345.824C173.781 345.021 186.611 348.543 192.761 354.699C198.921 360.856 202.511 373.611 201.641 374.483ZM232.071 376.254C232.941 377.126 229.351 389.882 223.201 396.038C217.041 402.194 204.221 405.72 203.411 404.91C202.611 404.11 206.131 391.285 212.291 385.129C218.441 378.973 231.201 375.382 232.071 376.254ZM79.9006 374.479C79.0306 375.351 66.2806 371.761 60.1206 365.604C53.9606 359.448 50.4407 346.624 51.2407 345.82C52.0507 345.017 64.8708 348.539 71.0308 354.695C77.1808 360.852 80.7806 373.607 79.9006 374.479ZM110.341 376.258C111.211 377.13 107.621 389.886 101.471 396.042C95.3107 402.198 82.4907 405.72 81.6807 404.92C80.8807 404.11 84.4008 391.289 90.5608 385.133C96.7108 378.977 109.471 375.386 110.341 376.258Z" fill="#575757"/>
<path fill-rule="evenodd" clip-rule="evenodd" d="M268.631 345.004H5.55078V351.165C7.27078 352.214 8.86064 353.396 10.1606 354.695C16.3206 360.852 19.9108 373.607 19.0408 374.479C18.4108 375.108 11.6108 373.417 5.55078 370.118V412.03C6.01078 412.32 6.47064 412.61 6.91064 412.91C97.4706 412.91 178.551 412.91 268.631 412.91C268.631 397.218 268.631 369.385 268.631 345.004ZM242.721 365.608C248.881 371.764 261.641 375.355 262.511 374.483C263.381 373.611 259.791 360.856 253.631 354.699C247.481 348.543 234.651 345.021 233.851 345.824C233.041 346.628 236.571 359.452 242.721 365.608ZM162.331 396.042C168.491 389.886 172.081 377.13 171.211 376.258C170.341 375.386 157.581 378.977 151.421 385.133C145.271 391.289 141.751 404.11 142.551 404.92C143.351 405.72 156.181 402.198 162.331 396.042ZM120.991 365.604C127.141 371.761 139.901 375.351 140.771 374.479C141.641 373.607 138.051 360.852 131.901 354.695C125.741 348.539 112.921 345.017 112.111 345.82C111.311 346.624 114.831 359.448 120.991 365.604ZM40.6008 396.038C46.7508 389.882 50.3407 377.126 49.4707 376.254C48.6007 375.382 35.8407 378.973 29.6907 385.129C23.5307 391.285 20.0108 404.11 20.8108 404.91C21.6208 405.72 34.4408 402.194 40.6008 396.038ZM201.641 374.483C200.771 375.355 188.011 371.764 181.861 365.608C175.701 359.452 172.181 346.628 172.981 345.824C173.781 345.021 186.611 348.543 192.761 354.699C198.921 360.856 202.511 373.611 201.641 374.483ZM232.071 376.254C232.941 377.126 229.351 389.882 223.201 396.038C217.041 402.194 204.221 405.72 203.411 404.91C202.611 404.11 206.131 391.285 212.291 385.129C218.441 378.973 231.201 375.382 232.071 376.254ZM79.9006 374.479C79.0306 375.351 66.2806 371.761 60.1206 365.604C53.9606 359.448 50.4407 346.624 51.2407 345.82C52.0507 345.017 64.8708 348.539 71.0308 354.695C77.1808 360.852 80.7806 373.607 79.9006 374.479ZM110.341 376.258C111.211 377.13 107.621 389.886 101.471 396.042C95.3107 402.198 82.4907 405.72 81.6807 404.92C80.8807 404.11 84.4008 391.289 90.5608 385.133C96.7108 378.977 109.471 375.386 110.341 376.258Z" stroke="#262626" stroke-width="3"/>
<path fill-rule="evenodd" clip-rule="evenodd" d="M268.631 345.004H5.55078V351.165C7.27078 352.214 8.86064 353.396 10.1606 354.695C16.3206 360.852 19.9108 373.607 19.0408 374.479C18.4108 375.108 11.6108 373.417 5.55078 370.118V412.91C92.7108 412.91 181.191 412.91 268.631 412.91C268.631 397.218 268.631 369.385 268.631 345.004ZM242.721 365.608C248.881 371.764 261.641 375.355 262.511 374.483C263.381 373.611 259.791 360.856 253.631 354.699C247.481 348.543 234.651 345.021 233.851 345.824C233.041 346.628 236.571 359.452 242.721 365.608ZM162.331 396.042C168.491 389.886 172.081 377.13 171.211 376.258C170.341 375.386 157.581 378.977 151.421 385.133C145.271 391.289 141.751 404.11 142.551 404.92C143.351 405.72 156.181 402.198 162.331 396.042ZM120.991 365.604C127.141 371.761 139.901 375.351 140.771 374.479C141.641 373.607 138.051 360.852 131.901 354.695C125.741 348.539 112.921 345.017 112.111 345.82C111.311 346.624 114.831 359.448 120.991 365.604ZM40.6008 396.038C46.7508 389.882 50.3407 377.126 49.4707 376.254C48.6007 375.382 35.8407 378.973 29.6907 385.129C23.5307 391.285 20.0108 404.11 20.8108 404.91C21.6208 405.72 34.4408 402.194 40.6008 396.038ZM201.641 374.483C200.771 375.355 188.011 371.764 181.861 365.608C175.701 359.452 172.181 346.628 172.981 345.824C173.781 345.021 186.611 348.543 192.761 354.699C198.921 360.856 202.511 373.611 201.641 374.483ZM232.071 376.254C232.941 377.126 229.351 389.882 223.201 396.038C217.041 402.194 204.221 405.72 203.411 404.91C202.611 404.11 206.131 391.285 212.291 385.129C218.441 378.973 231.201 375.382 232.071 376.254ZM79.9006 374.479C79.0306 375.351 66.2806 371.761 60.1206 365.604C53.9606 359.448 50.4407 346.624 51.2407 345.82C52.0507 345.017 64.8708 348.539 71.0308 354.695C77.1808 360.852 80.7806 373.607 79.9006 374.479ZM110.341 376.258C111.211 377.13 107.621 389.886 101.471 396.042C95.3107 402.198 82.4907 405.72 81.6807 404.92C80.8807 404.11 84.4008 391.289 90.5608 385.133C96.7108 378.977 109.471 375.386 110.341 376.258Z" fill="#525252"/>
<path fill-rule="evenodd" clip-rule="evenodd" d="M268.631 345.004H5.55078V351.165C7.27078 352.214 8.86064 353.396 10.1606 354.695C16.3206 360.852 19.9108 373.607 19.0408 374.479C18.4108 375.108 11.6108 373.417 5.55078 370.118V412.03C6.01078 412.32 6.47064 412.61 6.91064 412.91C97.4706 412.91 178.551 412.91 268.631 412.91C268.631 397.218 268.631 369.385 268.631 345.004ZM242.721 365.608C248.881 371.764 261.641 375.355 262.511 374.483C263.381 373.611 259.791 360.856 253.631 354.699C247.481 348.543 234.651 345.021 233.851 345.824C233.041 346.628 236.571 359.452 242.721 365.608ZM162.331 396.042C168.491 389.886 172.081 377.13 171.211 376.258C170.341 375.386 157.581 378.977 151.421 385.133C145.271 391.289 141.751 404.11 142.551 404.92C143.351 405.72 156.181 402.198 162.331 396.042ZM120.991 365.604C127.141 371.761 139.901 375.351 140.771 374.479C141.641 373.607 138.051 360.852 131.901 354.695C125.741 348.539 112.921 345.017 112.111 345.82C111.311 346.624 114.831 359.448 120.991 365.604ZM40.6008 396.038C46.7508 389.882 50.3407 377.126 49.4707 376.254C48.6007 375.382 35.8407 378.973 29.6907 385.129C23.5307 391.285 20.0108 404.11 20.8108 404.91C21.6208 405.72 34.4408 402.194 40.6008 396.038ZM201.641 374.483C200.771 375.355 188.011 371.764 181.861 365.608C175.701 359.452 172.181 346.628 172.981 345.824C173.781 345.021 186.611 348.543 192.761 354.699C198.921 360.856 202.511 373.611 201.641 374.483ZM232.071 376.254C232.941 377.126 229.351 389.882 223.201 396.038C217.041 402.194 204.221 405.72 203.411 404.91C202.611 404.11 206.131 391.285 212.291 385.129C218.441 378.973 231.201 375.382 232.071 376.254ZM79.9006 374.479C79.0306 375.351 66.2806 371.761 60.1206 365.604C53.9606 359.448 50.4407 346.624 51.2407 345.82C52.0507 345.017 64.8708 348.539 71.0308 354.695C77.1808 360.852 80.7806 373.607 79.9006 374.479ZM110.341 376.258C111.211 377.13 107.621 389.886 101.471 396.042C95.3107 402.198 82.4907 405.72 81.6807 404.92C80.8807 404.11 84.4008 391.289 90.5608 385.133C96.7108 378.977 109.471 375.386 110.341 376.258Z" stroke="#262626" stroke-width="3"/>
<path d="M268.631 345.004H5.55078V412.91H268.631V345.004Z" stroke="#262626" stroke-width="10"/>
<path fill-rule="evenodd" clip-rule="evenodd" d="M268.631 277.094H5.55078V283.255C7.27078 284.304 8.86064 285.486 10.1606 286.785C16.3206 292.942 19.9108 305.697 19.0408 306.569C18.4108 307.198 11.6108 305.507 5.55078 302.208V345.003C92.7108 345.003 181.191 345.003 268.631 345.003C268.631 329.308 268.631 301.475 268.631 277.094ZM242.721 297.698C248.881 303.854 261.641 307.445 262.511 306.573C263.381 305.701 259.791 292.945 253.631 286.789C247.481 280.633 234.651 277.111 233.851 277.914C233.041 278.717 236.571 291.542 242.721 297.698ZM162.331 328.132C168.491 321.975 172.081 309.22 171.211 308.348C170.341 307.476 157.581 311.067 151.421 317.223C145.271 323.379 141.751 336.204 142.551 337.007C143.351 337.81 156.181 334.288 162.331 328.132ZM120.991 297.694C127.141 303.85 139.901 307.441 140.771 306.569C141.641 305.697 138.051 292.942 131.901 286.785C125.741 280.629 112.921 277.107 112.111 277.91C111.311 278.713 114.831 291.538 120.991 297.694ZM40.6008 328.128C46.7508 321.972 50.3407 309.216 49.4707 308.344C48.6007 307.472 35.8407 311.063 29.6907 317.219C23.5307 323.375 20.0108 336.2 20.8108 337.003C21.6208 337.806 34.4408 334.284 40.6008 328.128ZM201.641 306.573C200.771 307.445 188.011 303.854 181.861 297.698C175.701 291.542 172.181 278.717 172.981 277.914C173.781 277.111 186.611 280.633 192.761 286.789C198.921 292.945 202.511 305.701 201.641 306.573ZM232.071 308.344C232.941 309.216 229.351 321.972 223.201 328.128C217.041 334.284 204.221 337.806 203.411 337.003C202.611 336.2 206.131 323.375 212.291 317.219C218.441 311.063 231.201 307.472 232.071 308.344ZM79.9006 306.569C79.0306 307.441 66.2806 303.85 60.1206 297.694C53.9606 291.538 50.4407 278.713 51.2407 277.91C52.0507 277.107 64.8708 280.629 71.0308 286.785C77.1808 292.942 80.7806 305.697 79.9006 306.569ZM110.341 308.348C111.211 309.22 107.621 321.975 101.471 328.132C95.3107 334.288 82.4907 337.81 81.6807 337.007C80.8807 336.204 84.4008 323.379 90.5608 317.223C96.7108 311.067 109.471 307.476 110.341 308.348Z" fill="#575757"/>
<path fill-rule="evenodd" clip-rule="evenodd" d="M268.631 277.094H5.55078V283.255C7.27078 284.304 8.86064 285.486 10.1606 286.785C16.3206 292.942 19.9108 305.697 19.0408 306.569C18.4108 307.198 11.6108 305.507 5.55078 302.208V344.122C6.01078 344.406 6.47064 344.7 6.91064 345.003C97.4706 345.003 178.551 345.003 268.631 345.003C268.631 329.308 268.631 301.475 268.631 277.094ZM242.721 297.698C248.881 303.854 261.641 307.445 262.511 306.573C263.381 305.701 259.791 292.945 253.631 286.789C247.481 280.633 234.651 277.111 233.851 277.914C233.041 278.717 236.571 291.542 242.721 297.698ZM162.331 328.132C168.491 321.975 172.081 309.22 171.211 308.348C170.341 307.476 157.581 311.067 151.421 317.223C145.271 323.379 141.751 336.204 142.551 337.007C143.351 337.81 156.181 334.288 162.331 328.132ZM120.991 297.694C127.141 303.85 139.901 307.441 140.771 306.569C141.641 305.697 138.051 292.942 131.901 286.785C125.741 280.629 112.921 277.107 112.111 277.91C111.311 278.713 114.831 291.538 120.991 297.694ZM40.6008 328.128C46.7508 321.972 50.3407 309.216 49.4707 308.344C48.6007 307.472 35.8407 311.063 29.6907 317.219C23.5307 323.375 20.0108 336.2 20.8108 337.003C21.6208 337.806 34.4408 334.284 40.6008 328.128ZM201.641 306.573C200.771 307.445 188.011 303.854 181.861 297.698C175.701 291.542 172.181 278.717 172.981 277.914C173.781 277.111 186.611 280.633 192.761 286.789C198.921 292.945 202.511 305.701 201.641 306.573ZM232.071 308.344C232.941 309.216 229.351 321.972 223.201 328.128C217.041 334.284 204.221 337.806 203.411 337.003C202.611 336.2 206.131 323.375 212.291 317.219C218.441 311.063 231.201 307.472 232.071 308.344ZM79.9006 306.569C79.0306 307.441 66.2806 303.85 60.1206 297.694C53.9606 291.538 50.4407 278.713 51.2407 277.91C52.0507 277.107 64.8708 280.629 71.0308 286.785C77.1808 292.942 80.7806 305.697 79.9006 306.569ZM110.341 308.348C111.211 309.22 107.621 321.975 101.471 328.132C95.3107 334.288 82.4907 337.81 81.6807 337.007C80.8807 336.204 84.4008 323.379 90.5608 317.223C96.7108 311.067 109.471 307.476 110.341 308.348Z" stroke="#262626" stroke-width="3"/>
<path fill-rule="evenodd" clip-rule="evenodd" d="M268.631 277.094H5.55078V283.255C7.27078 284.304 8.86064 285.486 10.1606 286.785C16.3206 292.942 19.9108 305.697 19.0408 306.569C18.4108 307.198 11.6108 305.507 5.55078 302.208V345.003C92.7108 345.003 181.191 345.003 268.631 345.003C268.631 329.308 268.631 301.475 268.631 277.094ZM242.721 297.698C248.881 303.854 261.641 307.445 262.511 306.573C263.381 305.701 259.791 292.945 253.631 286.789C247.481 280.633 234.651 277.111 233.851 277.914C233.041 278.717 236.571 291.542 242.721 297.698ZM162.331 328.132C168.491 321.975 172.081 309.22 171.211 308.348C170.341 307.476 157.581 311.067 151.421 317.223C145.271 323.379 141.751 336.204 142.551 337.007C143.351 337.81 156.181 334.288 162.331 328.132ZM120.991 297.694C127.141 303.85 139.901 307.441 140.771 306.569C141.641 305.697 138.051 292.942 131.901 286.785C125.741 280.629 112.921 277.107 112.111 277.91C111.311 278.713 114.831 291.538 120.991 297.694ZM40.6008 328.128C46.7508 321.972 50.3407 309.216 49.4707 308.344C48.6007 307.472 35.8407 311.063 29.6907 317.219C23.5307 323.375 20.0108 336.2 20.8108 337.003C21.6208 337.806 34.4408 334.284 40.6008 328.128ZM201.641 306.573C200.771 307.445 188.011 303.854 181.861 297.698C175.701 291.542 172.181 278.717 172.981 277.914C173.781 277.111 186.611 280.633 192.761 286.789C198.921 292.945 202.511 305.701 201.641 306.573ZM232.071 308.344C232.941 309.216 229.351 321.972 223.201 328.128C217.041 334.284 204.221 337.806 203.411 337.003C202.611 336.2 206.131 323.375 212.291 317.219C218.441 311.063 231.201 307.472 232.071 308.344ZM79.9006 306.569C79.0306 307.441 66.2806 303.85 60.1206 297.694C53.9606 291.538 50.4407 278.713 51.2407 277.91C52.0507 277.107 64.8708 280.629 71.0308 286.785C77.1808 292.942 80.7806 305.697 79.9006 306.569ZM110.341 308.348C111.211 309.22 107.621 321.975 101.471 328.132C95.3107 334.288 82.4907 337.81 81.6807 337.007C80.8807 336.204 84.4008 323.379 90.5608 317.223C96.7108 311.067 109.471 307.476 110.341 308.348Z" fill="#4F4F4F"/>
<path fill-rule="evenodd" clip-rule="evenodd" d="M268.631 277.094H5.55078V283.255C7.27078 284.304 8.86064 285.486 10.1606 286.785C16.3206 292.942 19.9108 305.697 19.0408 306.569C18.4108 307.198 11.6108 305.507 5.55078 302.208V344.122C6.01078 344.406 6.47064 344.7 6.91064 345.003C97.4706 345.003 178.551 345.003 268.631 345.003C268.631 329.308 268.631 301.475 268.631 277.094ZM242.721 297.698C248.881 303.854 261.641 307.445 262.511 306.573C263.381 305.701 259.791 292.945 253.631 286.789C247.481 280.633 234.651 277.111 233.851 277.914C233.041 278.717 236.571 291.542 242.721 297.698ZM162.331 328.132C168.491 321.975 172.081 309.22 171.211 308.348C170.341 307.476 157.581 311.067 151.421 317.223C145.271 323.379 141.751 336.204 142.551 337.007C143.351 337.81 156.181 334.288 162.331 328.132ZM120.991 297.694C127.141 303.85 139.901 307.441 140.771 306.569C141.641 305.697 138.051 292.942 131.901 286.785C125.741 280.629 112.921 277.107 112.111 277.91C111.311 278.713 114.831 291.538 120.991 297.694ZM40.6008 328.128C46.7508 321.972 50.3407 309.216 49.4707 308.344C48.6007 307.472 35.8407 311.063 29.6907 317.219C23.5307 323.375 20.0108 336.2 20.8108 337.003C21.6208 337.806 34.4408 334.284 40.6008 328.128ZM201.641 306.573C200.771 307.445 188.011 303.854 181.861 297.698C175.701 291.542 172.181 278.717 172.981 277.914C173.781 277.111 186.611 280.633 192.761 286.789C198.921 292.945 202.511 305.701 201.641 306.573ZM232.071 308.344C232.941 309.216 229.351 321.972 223.201 328.128C217.041 334.284 204.221 337.806 203.411 337.003C202.611 336.2 206.131 323.375 212.291 317.219C218.441 311.063 231.201 307.472 232.071 308.344ZM79.9006 306.569C79.0306 307.441 66.2806 303.85 60.1206 297.694C53.9606 291.538 50.4407 278.713 51.2407 277.91C52.0507 277.107 64.8708 280.629 71.0308 286.785C77.1808 292.942 80.7806 305.697 79.9006 306.569ZM110.341 308.348C111.211 309.22 107.621 321.975 101.471 328.132C95.3107 334.288 82.4907 337.81 81.6807 337.007C80.8807 336.204 84.4008 323.379 90.5608 317.223C96.7108 311.067 109.471 307.476 110.341 308.348Z" stroke="#262626" stroke-width="3"/>
<path d="M268.631 277.094H5.55078V345.003H268.631V277.094Z" stroke="#262626" stroke-width="10"/>
<path fill-rule="evenodd" clip-rule="evenodd" d="M268.631 209.184H5.55078V215.345C7.27078 216.394 8.86064 217.576 10.1606 218.875C16.3206 225.031 19.9108 237.787 19.0408 238.659C18.4108 239.288 11.6108 237.597 5.55078 234.298V277.093C92.7108 277.093 181.191 277.093 268.631 277.093C268.631 261.398 268.631 233.565 268.631 209.184ZM242.721 229.788C248.881 235.944 261.641 239.535 262.511 238.663C263.381 237.791 259.791 225.035 253.631 218.879C247.481 212.723 234.651 209.201 233.851 210.004C233.041 210.807 236.571 223.632 242.721 229.788ZM162.331 260.222C168.491 254.065 172.081 241.31 171.211 240.438C170.341 239.566 157.581 243.156 151.421 249.313C145.271 255.469 141.751 268.293 142.551 269.097C143.351 269.9 156.181 266.378 162.331 260.222ZM120.991 229.784C127.141 235.94 139.901 239.531 140.771 238.659C141.641 237.787 138.051 225.031 131.901 218.875C125.741 212.719 112.921 209.197 112.111 210C111.311 210.803 114.831 223.628 120.991 229.784ZM40.6008 260.218C46.7508 254.061 50.3407 241.306 49.4707 240.434C48.6007 239.562 35.8407 243.153 29.6907 249.309C23.5307 255.465 20.0108 268.29 20.8108 269.093C21.6208 269.896 34.4408 266.374 40.6008 260.218ZM201.641 238.663C200.771 239.535 188.011 235.944 181.861 229.788C175.701 223.632 172.181 210.807 172.981 210.004C173.781 209.201 186.611 212.723 192.761 218.879C198.921 225.035 202.511 237.791 201.641 238.663ZM232.071 240.434C232.941 241.306 229.351 254.061 223.201 260.218C217.041 266.374 204.221 269.896 203.411 269.093C202.611 268.29 206.131 255.465 212.291 249.309C218.441 243.153 231.201 239.562 232.071 240.434ZM79.9006 238.659C79.0306 239.531 66.2806 235.94 60.1206 229.784C53.9606 223.628 50.4407 210.803 51.2407 210C52.0507 209.197 64.8708 212.719 71.0308 218.875C77.1808 225.031 80.7806 237.787 79.9006 238.659ZM110.341 240.438C111.211 241.31 107.621 254.065 101.471 260.222C95.3107 266.378 82.4907 269.9 81.6807 269.097C80.8807 268.293 84.4008 255.469 90.5608 249.313C96.7108 243.156 109.471 239.566 110.341 240.438Z" fill="#575757"/>
<path fill-rule="evenodd" clip-rule="evenodd" d="M268.631 209.184H5.55078V215.345C7.27078 216.394 8.86064 217.576 10.1606 218.875C16.3206 225.031 19.9108 237.787 19.0408 238.659C18.4108 239.288 11.6108 237.597 5.55078 234.298V276.212C6.01078 276.496 6.47064 276.79 6.91064 277.093C97.4706 277.093 178.551 277.093 268.631 277.093C268.631 261.398 268.631 233.565 268.631 209.184ZM242.721 229.788C248.881 235.944 261.641 239.535 262.511 238.663C263.381 237.791 259.791 225.035 253.631 218.879C247.481 212.723 234.651 209.201 233.851 210.004C233.041 210.807 236.571 223.632 242.721 229.788ZM162.331 260.222C168.491 254.065 172.081 241.31 171.211 240.438C170.341 239.566 157.581 243.156 151.421 249.313C145.271 255.469 141.751 268.293 142.551 269.097C143.351 269.9 156.181 266.378 162.331 260.222ZM120.991 229.784C127.141 235.94 139.901 239.531 140.771 238.659C141.641 237.787 138.051 225.031 131.901 218.875C125.741 212.719 112.921 209.197 112.111 210C111.311 210.803 114.831 223.628 120.991 229.784ZM40.6008 260.218C46.7508 254.061 50.3407 241.306 49.4707 240.434C48.6007 239.562 35.8407 243.153 29.6907 249.309C23.5307 255.465 20.0108 268.29 20.8108 269.093C21.6208 269.896 34.4408 266.374 40.6008 260.218ZM201.641 238.663C200.771 239.535 188.011 235.944 181.861 229.788C175.701 223.632 172.181 210.807 172.981 210.004C173.781 209.201 186.611 212.723 192.761 218.879C198.921 225.035 202.511 237.791 201.641 238.663ZM232.071 240.434C232.941 241.306 229.351 254.061 223.201 260.218C217.041 266.374 204.221 269.896 203.411 269.093C202.611 268.29 206.131 255.465 212.291 249.309C218.441 243.153 231.201 239.562 232.071 240.434ZM79.9006 238.659C79.0306 239.531 66.2806 235.94 60.1206 229.784C53.9606 223.628 50.4407 210.803 51.2407 210C52.0507 209.197 64.8708 212.719 71.0308 218.875C77.1808 225.031 80.7806 237.787 79.9006 238.659ZM110.341 240.438C111.211 241.31 107.621 254.065 101.471 260.222C95.3107 266.378 82.4907 269.9 81.6807 269.097C80.8807 268.293 84.4008 255.469 90.5608 249.313C96.7108 243.156 109.471 239.566 110.341 240.438Z" stroke="#262626" stroke-width="3"/>
<path fill-rule="evenodd" clip-rule="evenodd" d="M268.631 209.184H5.55078V215.345C7.27078 216.394 8.86064 217.576 10.1606 218.875C16.3206 225.031 19.9108 237.787 19.0408 238.659C18.4108 239.288 11.6108 237.597 5.55078 234.298V277.093C92.7108 277.093 181.191 277.093 268.631 277.093C268.631 261.398 268.631 233.565 268.631 209.184ZM242.721 229.788C248.881 235.944 261.641 239.535 262.511 238.663C263.381 237.791 259.791 225.035 253.631 218.879C247.481 212.723 234.651 209.201 233.851 210.004C233.041 210.807 236.571 223.632 242.721 229.788ZM162.331 260.222C168.491 254.065 172.081 241.31 171.211 240.438C170.341 239.566 157.581 243.156 151.421 249.313C145.271 255.469 141.751 268.293 142.551 269.097C143.351 269.9 156.181 266.378 162.331 260.222ZM120.991 229.784C127.141 235.94 139.901 239.531 140.771 238.659C141.641 237.787 138.051 225.031 131.901 218.875C125.741 212.719 112.921 209.197 112.111 210C111.311 210.803 114.831 223.628 120.991 229.784ZM40.6008 260.218C46.7508 254.061 50.3407 241.306 49.4707 240.434C48.6007 239.562 35.8407 243.153 29.6907 249.309C23.5307 255.465 20.0108 268.29 20.8108 269.093C21.6208 269.896 34.4408 266.374 40.6008 260.218ZM201.641 238.663C200.771 239.535 188.011 235.944 181.861 229.788C175.701 223.632 172.181 210.807 172.981 210.004C173.781 209.201 186.611 212.723 192.761 218.879C198.921 225.035 202.511 237.791 201.641 238.663ZM232.071 240.434C232.941 241.306 229.351 254.061 223.201 260.218C217.041 266.374 204.221 269.896 203.411 269.093C202.611 268.29 206.131 255.465 212.291 249.309C218.441 243.153 231.201 239.562 232.071 240.434ZM79.9006 238.659C79.0306 239.531 66.2806 235.94 60.1206 229.784C53.9606 223.628 50.4407 210.803 51.2407 210C52.0507 209.197 64.8708 212.719 71.0308 218.875C77.1808 225.031 80.7806 237.787 79.9006 238.659ZM110.341 240.438C111.211 241.31 107.621 254.065 101.471 260.222C95.3107 266.378 82.4907 269.9 81.6807 269.097C80.8807 268.293 84.4008 255.469 90.5608 249.313C96.7108 243.156 109.471 239.566 110.341 240.438Z" fill="#4D4D4D"/>
<path fill-rule="evenodd" clip-rule="evenodd" d="M268.631 209.184H5.55078V215.345C7.27078 216.394 8.86064 217.576 10.1606 218.875C16.3206 225.031 19.9108 237.787 19.0408 238.659C18.4108 239.288 11.6108 237.597 5.55078 234.298V276.212C6.01078 276.496 6.47064 276.79 6.91064 277.093C97.4706 277.093 178.551 277.093 268.631 277.093C268.631 261.398 268.631 233.565 268.631 209.184ZM242.721 229.788C248.881 235.944 261.641 239.535 262.511 238.663C263.381 237.791 259.791 225.035 253.631 218.879C247.481 212.723 234.651 209.201 233.851 210.004C233.041 210.807 236.571 223.632 242.721 229.788ZM162.331 260.222C168.491 254.065 172.081 241.31 171.211 240.438C170.341 239.566 157.581 243.156 151.421 249.313C145.271 255.469 141.751 268.293 142.551 269.097C143.351 269.9 156.181 266.378 162.331 260.222ZM120.991 229.784C127.141 235.94 139.901 239.531 140.771 238.659C141.641 237.787 138.051 225.031 131.901 218.875C125.741 212.719 112.921 209.197 112.111 210C111.311 210.803 114.831 223.628 120.991 229.784ZM40.6008 260.218C46.7508 254.061 50.3407 241.306 49.4707 240.434C48.6007 239.562 35.8407 243.153 29.6907 249.309C23.5307 255.465 20.0108 268.29 20.8108 269.093C21.6208 269.896 34.4408 266.374 40.6008 260.218ZM201.641 238.663C200.771 239.535 188.011 235.944 181.861 229.788C175.701 223.632 172.181 210.807 172.981 210.004C173.781 209.201 186.611 212.723 192.761 218.879C198.921 225.035 202.511 237.791 201.641 238.663ZM232.071 240.434C232.941 241.306 229.351 254.061 223.201 260.218C217.041 266.374 204.221 269.896 203.411 269.093C202.611 268.29 206.131 255.465 212.291 249.309C218.441 243.153 231.201 239.562 232.071 240.434ZM79.9006 238.659C79.0306 239.531 66.2806 235.94 60.1206 229.784C53.9606 223.628 50.4407 210.803 51.2407 210C52.0507 209.197 64.8708 212.719 71.0308 218.875C77.1808 225.031 80.7806 237.787 79.9006 238.659ZM110.341 240.438C111.211 241.31 107.621 254.065 101.471 260.222C95.3107 266.378 82.4907 269.9 81.6807 269.097C80.8807 268.293 84.4008 255.469 90.5608 249.313C96.7108 243.156 109.471 239.566 110.341 240.438Z" stroke="#262626" stroke-width="3"/>
<path d="M268.631 209.184H5.55078V277.093H268.631V209.184Z" stroke="#262626" stroke-width="10"/>
<path fill-rule="evenodd" clip-rule="evenodd" d="M268.631 141.273H5.55078V147.435C7.27078 148.484 8.86064 149.666 10.1606 150.965C16.3206 157.121 19.9108 169.877 19.0408 170.749C18.4108 171.378 11.6108 169.687 5.55078 166.388V209.183C92.7108 209.183 181.191 209.183 268.631 209.183C268.631 193.488 268.631 165.654 268.631 141.273ZM242.721 161.878C248.881 168.034 261.641 171.625 262.511 170.753C263.381 169.881 259.791 157.125 253.631 150.969C247.481 144.813 234.651 141.29 233.851 142.094C233.041 142.897 236.571 155.721 242.721 161.878ZM162.331 192.311C168.491 186.155 172.081 173.4 171.211 172.528C170.341 171.656 157.581 175.246 151.421 181.403C145.271 187.559 141.751 200.383 142.551 201.187C143.351 201.99 156.181 198.468 162.331 192.311ZM120.991 161.874C127.141 168.03 139.901 171.621 140.771 170.749C141.641 169.877 138.051 157.121 131.901 150.965C125.741 144.809 112.921 141.287 112.111 142.09C111.311 142.893 114.831 155.718 120.991 161.874ZM40.6008 192.308C46.7508 186.151 50.3407 173.396 49.4707 172.524C48.6007 171.652 35.8407 175.242 29.6907 181.399C23.5307 187.555 20.0108 200.379 20.8108 201.183C21.6208 201.986 34.4408 198.464 40.6008 192.308ZM201.641 170.753C200.771 171.625 188.011 168.034 181.861 161.878C175.701 155.721 172.181 142.897 172.981 142.094C173.781 141.29 186.611 144.813 192.761 150.969C198.921 157.125 202.511 169.881 201.641 170.753ZM232.071 172.524C232.941 173.396 229.351 186.151 223.201 192.308C217.041 198.464 204.221 201.986 203.411 201.183C202.611 200.379 206.131 187.555 212.291 181.399C218.441 175.242 231.201 171.652 232.071 172.524ZM79.9006 170.749C79.0306 171.621 66.2806 168.03 60.1206 161.874C53.9606 155.718 50.4407 142.893 51.2407 142.09C52.0507 141.287 64.8708 144.809 71.0308 150.965C77.1808 157.121 80.7806 169.877 79.9006 170.749ZM110.341 172.528C111.211 173.4 107.621 186.155 101.471 192.311C95.3107 198.468 82.4907 201.99 81.6807 201.187C80.8807 200.383 84.4008 187.559 90.5608 181.403C96.7108 175.246 109.471 171.656 110.341 172.528Z" fill="#575757"/>
<path fill-rule="evenodd" clip-rule="evenodd" d="M268.631 141.273H5.55078V147.435C7.27078 148.484 8.86064 149.666 10.1606 150.965C16.3206 157.121 19.9108 169.877 19.0408 170.749C18.4108 171.378 11.6108 169.687 5.55078 166.388V208.302C6.01078 208.586 6.47064 208.88 6.91064 209.183C97.4706 209.183 178.551 209.183 268.631 209.183C268.631 193.488 268.631 165.654 268.631 141.273ZM242.721 161.878C248.881 168.034 261.641 171.625 262.511 170.753C263.381 169.881 259.791 157.125 253.631 150.969C247.481 144.813 234.651 141.29 233.851 142.094C233.041 142.897 236.571 155.721 242.721 161.878ZM162.331 192.311C168.491 186.155 172.081 173.4 171.211 172.528C170.341 171.656 157.581 175.246 151.421 181.403C145.271 187.559 141.751 200.383 142.551 201.187C143.351 201.99 156.181 198.468 162.331 192.311ZM120.991 161.874C127.141 168.03 139.901 171.621 140.771 170.749C141.641 169.877 138.051 157.121 131.901 150.965C125.741 144.809 112.921 141.287 112.111 142.09C111.311 142.893 114.831 155.718 120.991 161.874ZM40.6008 192.308C46.7508 186.151 50.3407 173.396 49.4707 172.524C48.6007 171.652 35.8407 175.242 29.6907 181.399C23.5307 187.555 20.0108 200.379 20.8108 201.183C21.6208 201.986 34.4408 198.464 40.6008 192.308ZM201.641 170.753C200.771 171.625 188.011 168.034 181.861 161.878C175.701 155.721 172.181 142.897 172.981 142.094C173.781 141.29 186.611 144.813 192.761 150.969C198.921 157.125 202.511 169.881 201.641 170.753ZM232.071 172.524C232.941 173.396 229.351 186.151 223.201 192.308C217.041 198.464 204.221 201.986 203.411 201.183C202.611 200.379 206.131 187.555 212.291 181.399C218.441 175.242 231.201 171.652 232.071 172.524ZM79.9006 170.749C79.0306 171.621 66.2806 168.03 60.1206 161.874C53.9606 155.718 50.4407 142.893 51.2407 142.09C52.0507 141.287 64.8708 144.809 71.0308 150.965C77.1808 157.121 80.7806 169.877 79.9006 170.749ZM110.341 172.528C111.211 173.4 107.621 186.155 101.471 192.311C95.3107 198.468 82.4907 201.99 81.6807 201.187C80.8807 200.383 84.4008 187.559 90.5608 181.403C96.7108 175.246 109.471 171.656 110.341 172.528Z" stroke="#262626" stroke-width="3"/>
<path fill-rule="evenodd" clip-rule="evenodd" d="M268.631 141.273H5.55078V147.435C7.27078 148.484 8.86064 149.666 10.1606 150.965C16.3206 157.121 19.9108 169.877 19.0408 170.749C18.4108 171.378 11.6108 169.687 5.55078 166.388V209.183C92.7108 209.183 181.191 209.183 268.631 209.183C268.631 193.488 268.631 165.654 268.631 141.273ZM242.721 161.878C248.881 168.034 261.641 171.625 262.511 170.753C263.381 169.881 259.791 157.125 253.631 150.969C247.481 144.813 234.651 141.29 233.851 142.094C233.041 142.897 236.571 155.721 242.721 161.878ZM162.331 192.311C168.491 186.155 172.081 173.4 171.211 172.528C170.341 171.656 157.581 175.246 151.421 181.403C145.271 187.559 141.751 200.383 142.551 201.187C143.351 201.99 156.181 198.468 162.331 192.311ZM120.991 161.874C127.141 168.03 139.901 171.621 140.771 170.749C141.641 169.877 138.051 157.121 131.901 150.965C125.741 144.809 112.921 141.287 112.111 142.09C111.311 142.893 114.831 155.718 120.991 161.874ZM40.6008 192.308C46.7508 186.151 50.3407 173.396 49.4707 172.524C48.6007 171.652 35.8407 175.242 29.6907 181.399C23.5307 187.555 20.0108 200.379 20.8108 201.183C21.6208 201.986 34.4408 198.464 40.6008 192.308ZM201.641 170.753C200.771 171.625 188.011 168.034 181.861 161.878C175.701 155.721 172.181 142.897 172.981 142.094C173.781 141.29 186.611 144.813 192.761 150.969C198.921 157.125 202.511 169.881 201.641 170.753ZM232.071 172.524C232.941 173.396 229.351 186.151 223.201 192.308C217.041 198.464 204.221 201.986 203.411 201.183C202.611 200.379 206.131 187.555 212.291 181.399C218.441 175.242 231.201 171.652 232.071 172.524ZM79.9006 170.749C79.0306 171.621 66.2806 168.03 60.1206 161.874C53.9606 155.718 50.4407 142.893 51.2407 142.09C52.0507 141.287 64.8708 144.809 71.0308 150.965C77.1808 157.121 80.7806 169.877 79.9006 170.749ZM110.341 172.528C111.211 173.4 107.621 186.155 101.471 192.311C95.3107 198.468 82.4907 201.99 81.6807 201.187C80.8807 200.383 84.4008 187.559 90.5608 181.403C96.7108 175.246 109.471 171.656 110.341 172.528Z" fill="#4A4A4A"/>
<path fill-rule="evenodd" clip-rule="evenodd" d="M268.631 141.273H5.55078V147.435C7.27078 148.484 8.86064 149.666 10.1606 150.965C16.3206 157.121 19.9108 169.877 19.0408 170.749C18.4108 171.378 11.6108 169.687 5.55078 166.388V208.302C6.01078 208.586 6.47064 208.88 6.91064 209.183C97.4706 209.183 178.551 209.183 268.631 209.183C268.631 193.488 268.631 165.654 268.631 141.273ZM242.721 161.878C248.881 168.034 261.641 171.625 262.511 170.753C263.381 169.881 259.791 157.125 253.631 150.969C247.481 144.813 234.651 141.29 233.851 142.094C233.041 142.897 236.571 155.721 242.721 161.878ZM162.331 192.311C168.491 186.155 172.081 173.4 171.211 172.528C170.341 171.656 157.581 175.246 151.421 181.403C145.271 187.559 141.751 200.383 142.551 201.187C143.351 201.99 156.181 198.468 162.331 192.311ZM120.991 161.874C127.141 168.03 139.901 171.621 140.771 170.749C141.641 169.877 138.051 157.121 131.901 150.965C125.741 144.809 112.921 141.287 112.111 142.09C111.311 142.893 114.831 155.718 120.991 161.874ZM40.6008 192.308C46.7508 186.151 50.3407 173.396 49.4707 172.524C48.6007 171.652 35.8407 175.242 29.6907 181.399C23.5307 187.555 20.0108 200.379 20.8108 201.183C21.6208 201.986 34.4408 198.464 40.6008 192.308ZM201.641 170.753C200.771 171.625 188.011 168.034 181.861 161.878C175.701 155.721 172.181 142.897 172.981 142.094C173.781 141.29 186.611 144.813 192.761 150.969C198.921 157.125 202.511 169.881 201.641 170.753ZM232.071 172.524C232.941 173.396 229.351 186.151 223.201 192.308C217.041 198.464 204.221 201.986 203.411 201.183C202.611 200.379 206.131 187.555 212.291 181.399C218.441 175.242 231.201 171.652 232.071 172.524ZM79.9006 170.749C79.0306 171.621 66.2806 168.03 60.1206 161.874C53.9606 155.718 50.4407 142.893 51.2407 142.09C52.0507 141.287 64.8708 144.809 71.0308 150.965C77.1808 157.121 80.7806 169.877 79.9006 170.749ZM110.341 172.528C111.211 173.4 107.621 186.155 101.471 192.311C95.3107 198.468 82.4907 201.99 81.6807 201.187C80.8807 200.383 84.4008 187.559 90.5608 181.403C96.7108 175.246 109.471 171.656 110.341 172.528Z" stroke="#262626" stroke-width="3"/>
<path d="M268.631 141.273H5.55078V209.183H268.631V141.273Z" stroke="#262626" stroke-width="10"/>
<path fill-rule="evenodd" clip-rule="evenodd" d="M268.631 73.3633H5.55078V79.5253C7.27078 80.5733 8.86064 81.7553 10.1606 83.0553C16.3206 89.2113 19.9108 101.967 19.0408 102.839C18.4108 103.467 11.6108 101.777 5.55078 98.4783V141.273C92.7108 141.273 181.191 141.273 268.631 141.273C268.631 125.578 268.631 97.7443 268.631 73.3633ZM242.721 93.9683C248.881 100.124 261.641 103.715 262.511 102.843C263.381 101.971 259.791 89.2153 253.631 83.0593C247.481 76.9023 234.651 73.3803 233.851 74.1843C233.041 74.9873 236.571 87.8113 242.721 93.9683ZM162.331 124.401C168.491 118.245 172.081 105.489 171.211 104.617C170.341 103.745 157.581 107.336 151.421 113.492C145.271 119.649 141.751 132.473 142.551 133.276C143.351 134.08 156.181 130.558 162.331 124.401ZM120.991 93.9643C127.141 100.12 139.901 103.711 140.771 102.839C141.641 101.967 138.051 89.2113 131.901 83.0553C125.741 76.8983 112.921 73.3763 112.111 74.1803C111.311 74.9833 114.831 87.8073 120.991 93.9643ZM40.6008 124.397C46.7508 118.241 50.3407 105.485 49.4707 104.613C48.6007 103.741 35.8407 107.332 29.6907 113.489C23.5307 119.645 20.0108 132.469 20.8108 133.272C21.6208 134.076 34.4408 130.554 40.6008 124.397ZM201.641 102.843C200.771 103.715 188.011 100.124 181.861 93.9683C175.701 87.8113 172.181 74.9873 172.981 74.1843C173.781 73.3803 186.611 76.9023 192.761 83.0593C198.921 89.2153 202.511 101.971 201.641 102.843ZM232.071 104.613C232.941 105.485 229.351 118.241 223.201 124.397C217.041 130.554 204.221 134.076 203.411 133.272C202.611 132.469 206.131 119.645 212.291 113.489C218.441 107.332 231.201 103.741 232.071 104.613ZM79.9006 102.839C79.0306 103.711 66.2806 100.12 60.1206 93.9643C53.9606 87.8073 50.4407 74.9833 51.2407 74.1803C52.0507 73.3763 64.8708 76.8983 71.0308 83.0553C77.1808 89.2113 80.7806 101.967 79.9006 102.839ZM110.341 104.617C111.211 105.489 107.621 118.245 101.471 124.401C95.3107 130.558 82.4907 134.08 81.6807 133.276C80.8807 132.473 84.4008 119.649 90.5608 113.492C96.7108 107.336 109.471 103.745 110.341 104.617Z" fill="#575757"/>
<path fill-rule="evenodd" clip-rule="evenodd" d="M268.631 73.3633H5.55078V79.5253C7.27078 80.5733 8.86064 81.7553 10.1606 83.0553C16.3206 89.2113 19.9108 101.967 19.0408 102.839C18.4108 103.467 11.6108 101.777 5.55078 98.4783V140.392C6.01078 140.676 6.47064 140.97 6.91064 141.273C97.4706 141.273 178.551 141.273 268.631 141.273C268.631 125.578 268.631 97.7443 268.631 73.3633ZM242.721 93.9683C248.881 100.124 261.641 103.715 262.511 102.843C263.381 101.971 259.791 89.2153 253.631 83.0593C247.481 76.9023 234.651 73.3803 233.851 74.1843C233.041 74.9873 236.571 87.8113 242.721 93.9683ZM162.331 124.401C168.491 118.245 172.081 105.489 171.211 104.617C170.341 103.745 157.581 107.336 151.421 113.492C145.271 119.649 141.751 132.473 142.551 133.276C143.351 134.08 156.181 130.558 162.331 124.401ZM120.991 93.9643C127.141 100.12 139.901 103.711 140.771 102.839C141.641 101.967 138.051 89.2113 131.901 83.0553C125.741 76.8983 112.921 73.3763 112.111 74.1803C111.311 74.9833 114.831 87.8073 120.991 93.9643ZM40.6008 124.397C46.7508 118.241 50.3407 105.485 49.4707 104.613C48.6007 103.741 35.8407 107.332 29.6907 113.489C23.5307 119.645 20.0108 132.469 20.8108 133.272C21.6208 134.076 34.4408 130.554 40.6008 124.397ZM201.641 102.843C200.771 103.715 188.011 100.124 181.861 93.9683C175.701 87.8113 172.181 74.9873 172.981 74.1843C173.781 73.3803 186.611 76.9023 192.761 83.0593C198.921 89.2153 202.511 101.971 201.641 102.843ZM232.071 104.613C232.941 105.485 229.351 118.241 223.201 124.397C217.041 130.554 204.221 134.076 203.411 133.272C202.611 132.469 206.131 119.645 212.291 113.489C218.441 107.332 231.201 103.741 232.071 104.613ZM79.9006 102.839C79.0306 103.711 66.2806 100.12 60.1206 93.9643C53.9606 87.8073 50.4407 74.9833 51.2407 74.1803C52.0507 73.3763 64.8708 76.8983 71.0308 83.0553C77.1808 89.2113 80.7806 101.967 79.9006 102.839ZM110.341 104.617C111.211 105.489 107.621 118.245 101.471 124.401C95.3107 130.558 82.4907 134.08 81.6807 133.276C80.8807 132.473 84.4008 119.649 90.5608 113.492C96.7108 107.336 109.471 103.745 110.341 104.617Z" stroke="#262626" stroke-width="3"/>
<path fill-rule="evenodd" clip-rule="evenodd" d="M268.631 73.3633H5.55078V79.5253C7.27078 80.5733 8.86064 81.7553 10.1606 83.0553C16.3206 89.2113 19.9108 101.967 19.0408 102.839C18.4108 103.467 11.6108 101.777 5.55078 98.4783V141.273C92.7108 141.273 181.191 141.273 268.631 141.273C268.631 125.578 268.631 97.7443 268.631 73.3633ZM242.721 93.9683C248.881 100.124 261.641 103.715 262.511 102.843C263.381 101.971 259.791 89.2153 253.631 83.0593C247.481 76.9023 234.651 73.3803 233.851 74.1843C233.041 74.9873 236.571 87.8113 242.721 93.9683ZM162.331 124.401C168.491 118.245 172.081 105.489 171.211 104.617C170.341 103.745 157.581 107.336 151.421 113.492C145.271 119.649 141.751 132.473 142.551 133.276C143.351 134.08 156.181 130.558 162.331 124.401ZM120.991 93.9643C127.141 100.12 139.901 103.711 140.771 102.839C141.641 101.967 138.051 89.2113 131.901 83.0553C125.741 76.8983 112.921 73.3763 112.111 74.1803C111.311 74.9833 114.831 87.8073 120.991 93.9643ZM40.6008 124.397C46.7508 118.241 50.3407 105.485 49.4707 104.613C48.6007 103.741 35.8407 107.332 29.6907 113.489C23.5307 119.645 20.0108 132.469 20.8108 133.272C21.6208 134.076 34.4408 130.554 40.6008 124.397ZM201.641 102.843C200.771 103.715 188.011 100.124 181.861 93.9683C175.701 87.8113 172.181 74.9873 172.981 74.1843C173.781 73.3803 186.611 76.9023 192.761 83.0593C198.921 89.2153 202.511 101.971 201.641 102.843ZM232.071 104.613C232.941 105.485 229.351 118.241 223.201 124.397C217.041 130.554 204.221 134.076 203.411 133.272C202.611 132.469 206.131 119.645 212.291 113.489C218.441 107.332 231.201 103.741 232.071 104.613ZM79.9006 102.839C79.0306 103.711 66.2806 100.12 60.1206 93.9643C53.9606 87.8073 50.4407 74.9833 51.2407 74.1803C52.0507 73.3763 64.8708 76.8983 71.0308 83.0553C77.1808 89.2113 80.7806 101.967 79.9006 102.839ZM110.341 104.617C111.211 105.489 107.621 118.245 101.471 124.401C95.3107 130.558 82.4907 134.08 81.6807 133.276C80.8807 132.473 84.4008 119.649 90.5608 113.492C96.7108 107.336 109.471 103.745 110.341 104.617Z" fill="#474747"/>
<path fill-rule="evenodd" clip-rule="evenodd" d="M268.631 73.3633H5.55078V79.5253C7.27078 80.5733 8.86064 81.7553 10.1606 83.0553C16.3206 89.2113 19.9108 101.967 19.0408 102.839C18.4108 103.467 11.6108 101.777 5.55078 98.4783V140.392C6.01078 140.676 6.47064 140.97 6.91064 141.273C97.4706 141.273 178.551 141.273 268.631 141.273C268.631 125.578 268.631 97.7443 268.631 73.3633ZM242.721 93.9683C248.881 100.124 261.641 103.715 262.511 102.843C263.381 101.971 259.791 89.2153 253.631 83.0593C247.481 76.9023 234.651 73.3803 233.851 74.1843C233.041 74.9873 236.571 87.8113 242.721 93.9683ZM162.331 124.401C168.491 118.245 172.081 105.489 171.211 104.617C170.341 103.745 157.581 107.336 151.421 113.492C145.271 119.649 141.751 132.473 142.551 133.276C143.351 134.08 156.181 130.558 162.331 124.401ZM120.991 93.9643C127.141 100.12 139.901 103.711 140.771 102.839C141.641 101.967 138.051 89.2113 131.901 83.0553C125.741 76.8983 112.921 73.3763 112.111 74.1803C111.311 74.9833 114.831 87.8073 120.991 93.9643ZM40.6008 124.397C46.7508 118.241 50.3407 105.485 49.4707 104.613C48.6007 103.741 35.8407 107.332 29.6907 113.489C23.5307 119.645 20.0108 132.469 20.8108 133.272C21.6208 134.076 34.4408 130.554 40.6008 124.397ZM201.641 102.843C200.771 103.715 188.011 100.124 181.861 93.9683C175.701 87.8113 172.181 74.9873 172.981 74.1843C173.781 73.3803 186.611 76.9023 192.761 83.0593C198.921 89.2153 202.511 101.971 201.641 102.843ZM232.071 104.613C232.941 105.485 229.351 118.241 223.201 124.397C217.041 130.554 204.221 134.076 203.411 133.272C202.611 132.469 206.131 119.645 212.291 113.489C218.441 107.332 231.201 103.741 232.071 104.613ZM79.9006 102.839C79.0306 103.711 66.2806 100.12 60.1206 93.9643C53.9606 87.8073 50.4407 74.9833 51.2407 74.1803C52.0507 73.3763 64.8708 76.8983 71.0308 83.0553C77.1808 89.2113 80.7806 101.967 79.9006 102.839ZM110.341 104.617C111.211 105.489 107.621 118.245 101.471 124.401C95.3107 130.558 82.4907 134.08 81.6807 133.276C80.8807 132.473 84.4008 119.649 90.5608 113.492C96.7108 107.336 109.471 103.745 110.341 104.617Z" stroke="#262626" stroke-width="3"/>
<path d="M268.631 73.3633H5.55078V141.273H268.631V73.3633Z" stroke="#262626" stroke-width="10"/>
<path fill-rule="evenodd" clip-rule="evenodd" d="M268.631 5.45312H5.55078V11.6151C7.27078 12.6631 8.86064 13.8451 10.1606 15.1451C16.3206 21.3011 19.9108 34.0571 19.0408 34.9291C18.4108 35.5571 11.6108 33.8671 5.55078 30.5681V73.3621C92.7108 73.3621 181.191 73.3621 268.631 73.3621C268.631 57.6681 268.631 29.8341 268.631 5.45312ZM242.721 26.0571C248.881 32.2141 261.641 35.8051 262.511 34.9321C263.381 34.0601 259.791 21.3051 253.631 15.1491C247.481 8.99211 234.651 5.47013 233.851 6.27313C233.041 7.07713 236.571 19.9011 242.721 26.0571ZM162.331 56.4911C168.491 50.3352 172.081 37.5792 171.211 36.7072C170.341 35.8352 157.581 39.4262 151.421 45.5822C145.271 51.7392 141.751 64.5631 142.551 65.3661C143.351 66.1702 156.181 62.6471 162.331 56.4911ZM120.991 26.0541C127.141 32.2101 139.901 35.8011 140.771 34.9291C141.641 34.0571 138.051 21.3011 131.901 15.1451C125.741 8.98814 112.921 5.46614 112.111 6.27014C111.311 7.07314 114.831 19.8971 120.991 26.0541ZM40.6008 56.4871C46.7508 50.3311 50.3407 37.5751 49.4707 36.7031C48.6007 35.8311 35.8407 39.4221 29.6907 45.5781C23.5307 51.7351 20.0108 64.5591 20.8108 65.3621C21.6208 66.1661 34.4408 62.6441 40.6008 56.4871ZM201.641 34.9321C200.771 35.8051 188.011 32.2141 181.861 26.0571C175.701 19.9011 172.181 7.07713 172.981 6.27313C173.781 5.47013 186.611 8.99211 192.761 15.1491C198.921 21.3051 202.511 34.0601 201.641 34.9321ZM232.071 36.7031C232.941 37.5751 229.351 50.3311 223.201 56.4871C217.041 62.6441 204.221 66.1661 203.411 65.3621C202.611 64.5591 206.131 51.7351 212.291 45.5781C218.441 39.4221 231.201 35.8311 232.071 36.7031ZM79.9006 34.9291C79.0306 35.8011 66.2806 32.2101 60.1206 26.0541C53.9606 19.8971 50.4407 7.07314 51.2407 6.27014C52.0507 5.46614 64.8708 8.98814 71.0308 15.1451C77.1808 21.3011 80.7806 34.0571 79.9006 34.9291ZM110.341 36.7072C111.211 37.5792 107.621 50.3352 101.471 56.4911C95.3107 62.6471 82.4907 66.1702 81.6807 65.3661C80.8807 64.5631 84.4008 51.7392 90.5608 45.5822C96.7108 39.4262 109.471 35.8352 110.341 36.7072Z" fill="#575757"/>
<path fill-rule="evenodd" clip-rule="evenodd" d="M268.631 5.45312H5.55078V11.6151C7.27078 12.6631 8.86064 13.8451 10.1606 15.1451C16.3206 21.3011 19.9108 34.0571 19.0408 34.9291C18.4108 35.5571 11.6108 33.8671 5.55078 30.5681V72.4821C6.01078 72.7661 6.47064 73.0591 6.91064 73.3621C97.4706 73.3621 178.551 73.3621 268.631 73.3621C268.631 57.6681 268.631 29.8341 268.631 5.45312ZM242.721 26.0571C248.881 32.2141 261.641 35.8051 262.511 34.9321C263.381 34.0601 259.791 21.3051 253.631 15.1491C247.481 8.99211 234.651 5.47013 233.851 6.27313C233.041 7.07713 236.571 19.9011 242.721 26.0571ZM162.331 56.4911C168.491 50.3351 172.081 37.5792 171.211 36.7072C170.341 35.8352 157.581 39.4262 151.421 45.5822C145.271 51.7392 141.751 64.5631 142.551 65.3661C143.351 66.1701 156.181 62.6472 162.331 56.4911ZM120.991 26.0541C127.141 32.2101 139.901 35.8011 140.771 34.9291C141.641 34.0571 138.051 21.3011 131.901 15.1451C125.741 8.98814 112.921 5.46614 112.111 6.27014C111.311 7.07314 114.831 19.8971 120.991 26.0541ZM40.6008 56.4871C46.7508 50.3311 50.3407 37.5751 49.4707 36.7031C48.6007 35.8311 35.8407 39.4221 29.6907 45.5781C23.5307 51.7351 20.0108 64.5591 20.8108 65.3621C21.6208 66.1661 34.4408 62.6441 40.6008 56.4871ZM201.641 34.9321C200.771 35.8051 188.011 32.2141 181.861 26.0571C175.701 19.9011 172.181 7.07713 172.981 6.27313C173.781 5.47013 186.611 8.99211 192.761 15.1491C198.921 21.3051 202.511 34.0601 201.641 34.9321ZM232.071 36.7031C232.941 37.5751 229.351 50.3311 223.201 56.4871C217.041 62.6441 204.221 66.1661 203.411 65.3621C202.611 64.5591 206.131 51.7351 212.291 45.5781C218.441 39.4221 231.201 35.8311 232.071 36.7031ZM79.9006 34.9291C79.0306 35.8011 66.2806 32.2101 60.1206 26.0541C53.9606 19.8971 50.4407 7.07314 51.2407 6.27014C52.0507 5.46614 64.8708 8.98814 71.0308 15.1451C77.1808 21.3011 80.7806 34.0571 79.9006 34.9291ZM110.341 36.7072C111.211 37.5792 107.621 50.3351 101.471 56.4911C95.3107 62.6472 82.4907 66.1701 81.6807 65.3661C80.8807 64.5631 84.4008 51.7392 90.5608 45.5822C96.7108 39.4262 109.471 35.8352 110.341 36.7072Z" stroke="#262626" stroke-width="3"/>
<path fill-rule="evenodd" clip-rule="evenodd" d="M268.631 5.45312H5.55078V11.6151C7.27078 12.6631 8.86064 13.8451 10.1606 15.1451C16.3206 21.3011 19.9108 34.0571 19.0408 34.9291C18.4108 35.5571 11.6108 33.8671 5.55078 30.5681V73.3621C92.7108 73.3621 181.191 73.3621 268.631 73.3621C268.631 57.6681 268.631 29.8341 268.631 5.45312ZM242.721 26.0571C248.881 32.2141 261.641 35.8051 262.511 34.9321C263.381 34.0601 259.791 21.3051 253.631 15.1491C247.481 8.99211 234.651 5.47013 233.851 6.27313C233.041 7.07713 236.571 19.9011 242.721 26.0571ZM162.331 56.4911C168.491 50.3352 172.081 37.5792 171.211 36.7072C170.341 35.8352 157.581 39.4262 151.421 45.5822C145.271 51.7392 141.751 64.5631 142.551 65.3661C143.351 66.1702 156.181 62.6471 162.331 56.4911ZM120.991 26.0541C127.141 32.2101 139.901 35.8011 140.771 34.9291C141.641 34.0571 138.051 21.3011 131.901 15.1451C125.741 8.98814 112.921 5.46614 112.111 6.27014C111.311 7.07314 114.831 19.8971 120.991 26.0541ZM40.6008 56.4871C46.7508 50.3311 50.3407 37.5751 49.4707 36.7031C48.6007 35.8311 35.8407 39.4221 29.6907 45.5781C23.5307 51.7351 20.0108 64.5591 20.8108 65.3621C21.6208 66.1661 34.4408 62.6441 40.6008 56.4871ZM201.641 34.9321C200.771 35.8051 188.011 32.2141 181.861 26.0571C175.701 19.9011 172.181 7.07713 172.981 6.27313C173.781 5.47013 186.611 8.99211 192.761 15.1491C198.921 21.3051 202.511 34.0601 201.641 34.9321ZM232.071 36.7031C232.941 37.5751 229.351 50.3311 223.201 56.4871C217.041 62.6441 204.221 66.1661 203.411 65.3621C202.611 64.5591 206.131 51.7351 212.291 45.5781C218.441 39.4221 231.201 35.8311 232.071 36.7031ZM79.9006 34.9291C79.0306 35.8011 66.2806 32.2101 60.1206 26.0541C53.9606 19.8971 50.4407 7.07314 51.2407 6.27014C52.0507 5.46614 64.8708 8.98814 71.0308 15.1451C77.1808 21.3011 80.7806 34.0571 79.9006 34.9291ZM110.341 36.7072C111.211 37.5792 107.621 50.3352 101.471 56.4911C95.3107 62.6471 82.4907 66.1702 81.6807 65.3661C80.8807 64.5631 84.4008 51.7392 90.5608 45.5822C96.7108 39.4262 109.471 35.8352 110.341 36.7072Z" fill="#454545"/>
<path fill-rule="evenodd" clip-rule="evenodd" d="M268.631 5.45312H5.55078V11.6151C7.27078 12.6631 8.86064 13.8451 10.1606 15.1451C16.3206 21.3011 19.9108 34.0571 19.0408 34.9291C18.4108 35.5571 11.6108 33.8671 5.55078 30.5681V72.4821C6.01078 72.7661 6.47064 73.0591 6.91064 73.3621C97.4706 73.3621 178.551 73.3621 268.631 73.3621C268.631 57.6681 268.631 29.8341 268.631 5.45312ZM242.721 26.0571C248.881 32.2141 261.641 35.8051 262.511 34.9321C263.381 34.0601 259.791 21.3051 253.631 15.1491C247.481 8.99211 234.651 5.47013 233.851 6.27313C233.041 7.07713 236.571 19.9011 242.721 26.0571ZM162.331 56.4911C168.491 50.3351 172.081 37.5792 171.211 36.7072C170.341 35.8352 157.581 39.4262 151.421 45.5822C145.271 51.7392 141.751 64.5631 142.551 65.3661C143.351 66.1701 156.181 62.6472 162.331 56.4911ZM120.991 26.0541C127.141 32.2101 139.901 35.8011 140.771 34.9291C141.641 34.0571 138.051 21.3011 131.901 15.1451C125.741 8.98814 112.921 5.46614 112.111 6.27014C111.311 7.07314 114.831 19.8971 120.991 26.0541ZM40.6008 56.4871C46.7508 50.3311 50.3407 37.5751 49.4707 36.7031C48.6007 35.8311 35.8407 39.4221 29.6907 45.5781C23.5307 51.7351 20.0108 64.5591 20.8108 65.3621C21.6208 66.1661 34.4408 62.6441 40.6008 56.4871ZM201.641 34.9321C200.771 35.8051 188.011 32.2141 181.861 26.0571C175.701 19.9011 172.181 7.07713 172.981 6.27313C173.781 5.47013 186.611 8.99211 192.761 15.1491C198.921 21.3051 202.511 34.0601 201.641 34.9321ZM232.071 36.7031C232.941 37.5751 229.351 50.3311 223.201 56.4871C217.041 62.6441 204.221 66.1661 203.411 65.3621C202.611 64.5591 206.131 51.7351 212.291 45.5781C218.441 39.4221 231.201 35.8311 232.071 36.7031ZM79.9006 34.9291C79.0306 35.8011 66.2806 32.2101 60.1206 26.0541C53.9606 19.8971 50.4407 7.07314 51.2407 6.27014C52.0507 5.46614 64.8708 8.98814 71.0308 15.1451C77.1808 21.3011 80.7806 34.0571 79.9006 34.9291ZM110.341 36.7072C111.211 37.5792 107.621 50.3351 101.471 56.4911C95.3107 62.6472 82.4907 66.1701 81.6807 65.3661C80.8807 64.5631 84.4008 51.7392 90.5608 45.5822C96.7108 39.4262 109.471 35.8352 110.341 36.7072Z" stroke="#262626" stroke-width="3"/>
<path d="M268.631 5.45312H5.55078V73.3621H268.631V5.45312Z" stroke="#262626" stroke-width="10"/>
</svg>
