<?xml version="1.0" encoding="UTF-8" standalone="no"?>
<!-- Created with Inkscape (http://www.inkscape.org/) -->

<svg width="189.6384" height="498.88831" viewBox="0 0 50.17516 131.99752" version="1.1" id="svg1" inkscape:version="1.3.1 (91b66b0783, 2023-11-16, custom)" sodipodi:docname="forklift.svg" xmlns:inkscape="http://www.inkscape.org/namespaces/inkscape" xmlns:sodipodi="http://sodipodi.sourceforge.net/DTD/sodipodi-0.dtd" xmlns="http://www.w3.org/2000/svg" xmlns:svg="http://www.w3.org/2000/svg">
  <sodipodi:namedview id="namedview1" pagecolor="#505050" bordercolor="#eeeeee" borderopacity="1" inkscape:showpageshadow="0" inkscape:pageopacity="0" inkscape:pagecheckerboard="true" inkscape:deskcolor="#505050" inkscape:document-units="mm" inkscape:zoom="0.99999999" inkscape:cx="24.5" inkscape:cy="213.5" inkscape:window-width="1440" inkscape:window-height="840" inkscape:window-x="0" inkscape:window-y="0" inkscape:window-maximized="1" inkscape:current-layer="g29348-2-2-6" inkscape:pageshadow="0" showgrid="false" />
  <defs id="defs1" />
  <g inkscape:label="Calque 1" inkscape:groupmode="layer" id="layer1" transform="translate(-126.47075,-96.043753)">
    <g id="g29348-2-2-6" transform="matrix(0,-0.57297298,0.57297298,0,85.5834,339.12754)">
      <rect class="cls-20" x="307.42465" y="79.085922" width="71.172157" height="71.172157" id="rect579-7-9-19-7" style="fill:#474437;stroke:#1e1a10;stroke-width:4.21414px;stroke-miterlimit:10;stroke-opacity:1" />
      <rect class="cls-20" x="262.95532" y="79.558846" width="24.34837" height="71.172157" rx="7.4262528" ry="7.4262528" id="rect581-8-4-55-5" style="fill:#474437;stroke:#1e1a10;stroke-width:4.21414px;stroke-miterlimit:10;stroke-opacity:1" />
      <path class="cls-21" d="m 379.06504,79.085925 h 24.57313 c 10.21695,0 18.50476,8.297175 18.50476,18.504761 v 35.351964 c 0,9.81426 -7.96941,17.77431 -17.77431,17.77431 h -25.30358 z" id="path583-5-8-3-9" style="fill:#d4c07a;stroke:#1e1a10;stroke-width:4.21414px;stroke-miterlimit:10;stroke-opacity:1" />
      <rect class="cls-21" x="272.77505" y="79.558846" width="34.649605" height="71.172157" id="rect585-61-1-5-4" style="fill:#d4c07a;stroke:#1e1a10;stroke-width:4.21414px;stroke-miterlimit:10;stroke-opacity:1" />
      <path class="cls-18" d="m 372.45352,113.00508 v 31.36257 c 0,2.48166 -2.00405,4.48572 -4.48571,4.48572 h -29.79866 c -1.38599,0 -2.68769,-0.6368 -3.53988,-1.73248 l -4.33588,-5.59076 c -0.56189,-0.72109 -0.88966,-1.59201 -0.93648,-2.50976 -0.19666,-3.67098 -0.73045,-18.50476 -0.86156,-26.68955 0,0 0.58062,-16.791016 0.80537,-21.05198 0.0468,-0.908382 0.37459,-1.788669 0.93648,-2.509755 l 4.33588,-5.590761 c 0.85219,-1.086312 2.15389,-1.73248 3.53988,-1.73248 h 29.79866 c 2.48166,0 4.48572,2.013423 4.48572,4.485719 v 27.073517 z" id="path587-2-3-8-9" style="fill:#3e4d57;stroke:#12171c;stroke-width:4.21414px;stroke-miterlimit:10;stroke-opacity:1" />
      <path class="cls-19" d="m 353.66782,104.25839 c -1.7793,0.96457 -3.78336,1.42345 -5.80615,1.32043 -6.07773,-0.3184 -19.09474,-0.55252 -21.2299,3.01546 -2.80943,4.68238 -3.74591,20.76166 0,24.43265 2.94053,2.87498 16.23849,2.66896 21.84798,2.4442 1.40471,-0.0562 2.81879,0.14047 4.13922,0.62744 1.52645,0.57125 3.99875,1.16123 6.79881,0.59934 4.68238,-0.93647 14.04714,0 16.85657,-9.36475 2.03215,-6.78945 -0.35586,-14.06587 -1.82613,-17.55892 -0.64617,-1.53582 -1.62947,-2.89371 -2.88435,-3.98939 -2.6034,-2.27564 -7.58545,-5.56267 -13.08256,-3.73654 -1.40472,0.46824 -3.27767,1.40471 -4.79476,2.22881 z" id="path589-9-1-5-3" style="fill:#3f3e3c;stroke:#171717;stroke-width:4.21414px;stroke-miterlimit:10;stroke-opacity:1" />
      <path class="cls-11" d="m 346.17601,110.89801 c 1.35789,-0.44015 2.87499,-0.0936 3.83019,0.96457 1.17996,1.31106 2.36928,3.83018 2.36928,8.6624 0,4.2516 -0.91774,6.70516 -1.9385,8.12861 -1.02076,1.42344 -2.91244,1.91977 -4.51381,1.19869 -3.2683,-1.47963 -9.93601,-5.08507 -9.93601,-10.03902 0,-4.95396 7.02357,-7.90386 10.18885,-8.92462 z" id="path591-6-4-7-7" style="fill:#30302e;stroke-width:0.936476" />
      <path class="cls-16" d="m 307.42465,77.372174 v 75.545506 c 0,2.15389 1.75121,3.9051 3.9051,3.9051 h 85.84674 c 2.15389,0 3.9051,-1.75121 3.9051,-3.9051 V 77.372174 c 0,-2.153894 -1.75121,-3.905104 -3.9051,-3.905104 h -85.84674 c -2.15389,0 -3.9051,1.75121 -3.9051,3.905104 z m 39.17278,72.885906 h -28.72171 c -2.1539,0 -3.90511,-1.75121 -3.90511,-3.9051 v -24.97581 c 0,-2.15389 1.75121,-3.9051 3.90511,-3.9051 h 32.61745 v 28.87155 c 0,2.33918 -2.10963,3.91446 -3.89574,3.91446 z m 3.9051,-38.3955 h -32.61745 c -2.15389,0 -3.9051,-1.75121 -3.9051,-3.90511 V 82.981664 c 0,-2.153894 1.75121,-3.905104 3.9051,-3.905104 h 28.72171 c 2.1539,0 3.90511,1.75121 3.90511,3.905104 -0.0692,9.624525 0.10077,19.263536 -0.009,28.880916 z m 39.17278,38.3955 H 360.9536 c -2.15389,0 -3.9051,-1.75121 -3.9051,-3.9051 v -28.87155 h 32.61745 c 2.15389,0 3.9051,1.75121 3.9051,3.90511 v 24.9758 c 0,2.35024 -2.10058,3.89574 -3.89574,3.89574 z m 0,-38.3955 H 357.05786 V 82.991029 c 0,-2.153894 1.75121,-3.905104 3.90511,-3.905104 h 28.72171 c 2.15389,0 3.9051,1.75121 3.9051,3.905104 v 24.975811 c 0,2.15389 -1.75121,3.9051 -3.9051,3.9051 z" id="path593-4-1-6-9" style="fill:#919191;stroke:#171717;stroke-width:4.21414px;stroke-miterlimit:10;stroke-opacity:1" sodipodi:nodetypes="sssssssssssssscsscsssssccssscssssccssssscc" />
      <rect class="cls-17" x="195.98402" y="129.66031" width="56.188545" height="9.3647575" rx="2.8094273" ry="2.8094273" id="rect595-9-4-0-9" style="fill:#636363;stroke:#171717;stroke-width:4.21414px;stroke-miterlimit:10;stroke-opacity:1" />
      <rect class="cls-17" x="195.98402" y="91.264793" width="56.188545" height="9.3647575" rx="2.8094273" ry="2.8094273" id="rect597-7-6-76-9" style="fill:#636363;stroke:#171717;stroke-width:4.21414px;stroke-miterlimit:10;stroke-opacity:1" />
      <path class="cls-17" d="m 237.18896,83.499247 9.89855,31.484313 c 0.26222,0.84283 0.24349,1.74185 -0.0562,2.56594 l -9.69252,26.6521 c -0.0843,0.23412 -0.18729,0.45888 -0.3184,0.67427 -0.67426,1.1144 -2.80006,5.2349 2.05088,6.04963 4.19541,0.70236 17.26861,-0.69299 23.62728,-1.44217 2.01343,-0.23412 3.53052,-1.94787 3.53052,-3.98002 V 84.866502 c 0,-1.966599 -1.41408,-3.633526 -3.35259,-3.951928 -8.40955,-1.367255 -29.53167,-4.195412 -25.76703,2.584673 z" id="path599-9-3-85-1" style="fill:#636363;stroke:#171717;stroke-width:4.21414px;stroke-miterlimit:10;stroke-opacity:1" sodipodi:nodetypes="cccccccssccc" />
      <rect class="cls-17" x="233.44305" y="88.45536" width="13.110661" height="12.174185" rx="2.3505542" ry="2.3505542" id="rect601-80-8-6-6" style="fill:#636363;stroke:#171717;stroke-width:4.21414px;stroke-miterlimit:10;stroke-opacity:1" />
      <rect class="cls-17" x="233.44305" y="129.66031" width="13.110661" height="13.110661" rx="3.0060873" ry="3.0060873" id="rect603-31-5-77-7" style="fill:#636363;stroke:#171717;stroke-width:4.21414px;stroke-miterlimit:10;stroke-opacity:1" />
    </g>
  </g>
</svg>
