<?xml version="1.0" encoding="UTF-8" standalone="no"?>
<!-- Created with Inkscape (http://www.inkscape.org/) -->

<svg
   width="53.578705mm"
   height="140.95135mm"
   viewBox="0 0 53.578705 140.95135"
   version="1.1"
   id="svg1"
   inkscape:version="1.3 (0e150ed6c4, 2023-07-21)"
   sodipodi:docname="forklift.svg"
   xmlns:inkscape="http://www.inkscape.org/namespaces/inkscape"
   xmlns:sodipodi="http://sodipodi.sourceforge.net/DTD/sodipodi-0.dtd"
   xmlns="http://www.w3.org/2000/svg"
   xmlns:svg="http://www.w3.org/2000/svg">
  <sodipodi:namedview
     id="namedview1"
     pagecolor="#505050"
     bordercolor="#eeeeee"
     borderopacity="1"
     inkscape:showpageshadow="0"
     inkscape:pageopacity="0"
     inkscape:pagecheckerboard="0"
     inkscape:deskcolor="#505050"
     inkscape:document-units="mm"
     inkscape:zoom="0.74208053"
     inkscape:cx="-81.52754"
     inkscape:cy="198.76549"
     inkscape:window-width="1920"
     inkscape:window-height="1009"
     inkscape:window-x="1912"
     inkscape:window-y="-8"
     inkscape:window-maximized="1"
     inkscape:current-layer="layer1" />
  <defs
     id="defs1" />
  <g
     inkscape:label="Calque 1"
     inkscape:groupmode="layer"
     id="layer1"
     transform="translate(-126.47075,-96.043753)">
    <g
       id="g29348-2-2-6"
       transform="matrix(0,-0.57297298,0.57297298,0,85.5834,339.12754)">
      <g
         id="Layer_2-6-9-24-7"
         data-name="Layer 2">
        <rect
           class="cls-20"
           x="299.5"
           y="79.610001"
           width="76"
           height="76"
           id="rect579-7-9-19-7"
           style="fill:#474437;stroke:#1e1a10;stroke-width:4.5px;stroke-miterlimit:10;stroke-opacity:1" />
        <rect
           class="cls-20"
           x="254.5"
           y="79.610001"
           width="26"
           height="76"
           rx="7.9299998"
           ry="7.9299998"
           id="rect581-8-4-55-5"
           style="fill:#474437;stroke:#1e1a10;stroke-width:4.5px;stroke-miterlimit:10;stroke-opacity:1" />
        <path
           class="cls-21"
           d="m 376,79.61 h 26.24 c 10.91,0 19.76,8.86 19.76,19.76 v 37.75 c 0,10.48 -8.51,18.98 -18.98,18.98 H 376 Z"
           id="path583-5-8-3-9"
           style="fill:#d4c07a;stroke:#1e1a10;stroke-width:4.5px;stroke-miterlimit:10;stroke-opacity:1" />
        <rect
           class="cls-21"
           x="262.5"
           y="79.610001"
           width="37"
           height="76"
           id="rect585-61-1-5-4"
           style="fill:#d4c07a;stroke:#1e1a10;stroke-width:4.5px;stroke-miterlimit:10;stroke-opacity:1" />
        <path
           class="cls-18"
           d="m 368.94,115.83 v 33.49 c 0,2.65 -2.14,4.79 -4.79,4.79 h -31.82 c -1.48,0 -2.87,-0.68 -3.78,-1.85 l -4.63,-5.97 c -0.6,-0.77 -0.95,-1.7 -1,-2.68 -0.21,-3.92 -0.78,-19.76 -0.92,-28.5 0,0 0.62,-17.93 0.86,-22.48 0.05,-0.97 0.4,-1.91 1,-2.68 l 4.63,-5.97 c 0.91,-1.16 2.3,-1.85 3.78,-1.85 h 31.82 c 2.65,0 4.79,2.15 4.79,4.79 v 28.91 z"
           id="path587-2-3-8-9"
           style="fill:#3e4d57;stroke:#12171c;stroke-width:4.5px;stroke-miterlimit:10;stroke-opacity:1" />
        <path
           class="cls-19"
           d="m 348.88,106.49 c -1.9,1.03 -4.04,1.52 -6.2,1.41 -6.49,-0.34 -20.39,-0.59 -22.67,3.22 -3,5 -4,22.17 0,26.09 3.14,3.07 17.34,2.85 23.33,2.61 1.5,-0.06 3.01,0.15 4.42,0.67 1.63,0.61 4.27,1.24 7.26,0.64 5,-1 15,0 18,-10 2.17,-7.25 -0.38,-15.02 -1.95,-18.75 -0.69,-1.64 -1.74,-3.09 -3.08,-4.26 -2.78,-2.43 -8.1,-5.94 -13.97,-3.99 -1.5,0.5 -3.5,1.5 -5.12,2.38 z"
           id="path589-9-1-5-3"
           style="fill:#3f3e3c;stroke:#171717;stroke-width:4.5px;stroke-miterlimit:10;stroke-opacity:1" />
        <path
           class="cls-11"
           d="m 340.88,113.58 c 1.45,-0.47 3.07,-0.1 4.09,1.03 1.26,1.4 2.53,4.09 2.53,9.25 0,4.54 -0.98,7.16 -2.07,8.68 -1.09,1.52 -3.11,2.05 -4.82,1.28 -3.49,-1.58 -10.61,-5.43 -10.61,-10.72 0,-5.29 7.5,-8.44 10.88,-9.53 z"
           id="path591-6-4-7-7"
           style="fill:#30302e" />
        <path
           class="cls-16"
           d="m 299.5,77.78 v 80.67 c 0,2.3 1.87,4.17 4.17,4.17 h 91.67 c 2.3,0 4.17,-1.87 4.17,-4.17 V 77.78 c 0,-2.3 -1.87,-4.17 -4.17,-4.17 h -91.67 c -2.3,0 -4.17,1.87 -4.17,4.17 z m 41.83,77.83 h -30.67 c -2.3,0 -4.17,-1.87 -4.17,-4.17 v -26.67 c 0,-2.3 1.87,-4.17 4.17,-4.17 h 34.83 v 30.83 c 0,2.3 -1.87,4.17 -4.17,4.17 z m 4.17,-41 h -34.83 c -2.3,0 -4.17,-1.87 -4.17,-4.17 V 83.77 c 0,-2.3 1.87,-4.17 4.17,-4.17 h 30.67 c 2.3,0 4.17,1.87 4.17,4.17 v 30.83 z m 41.83,41 h -30.67 c -2.3,0 -4.17,-1.87 -4.17,-4.17 v -30.83 h 34.83 c 2.3,0 4.17,1.87 4.17,4.17 v 26.67 c 0,2.3 -1.87,4.17 -4.17,4.17 z m 0,-41 H 352.5 V 83.78 c 0,-2.3 1.87,-4.17 4.17,-4.17 h 30.67 c 2.3,0 4.17,1.87 4.17,4.17 v 26.67 c 0,2.3 -1.87,4.17 -4.17,4.17 z"
           id="path593-4-1-6-9"
           style="fill:#919191;stroke:#171717;stroke-width:4.5px;stroke-miterlimit:10;stroke-opacity:1" />
        <rect
           class="cls-17"
           x="180.5"
           y="134.61"
           width="60"
           height="10"
           rx="3"
           ry="3"
           id="rect595-9-4-0-9"
           style="fill:#636363;stroke:#171717;stroke-width:4.5px;stroke-miterlimit:10;stroke-opacity:1" />
        <rect
           class="cls-17"
           x="180.5"
           y="93.610001"
           width="60"
           height="10"
           rx="3"
           ry="3"
           id="rect597-7-6-76-9"
           style="fill:#636363;stroke:#171717;stroke-width:4.5px;stroke-miterlimit:10;stroke-opacity:1" />
        <path
           class="cls-17"
           d="m 224.5,84.61 10.57,33.62 c 0.28,0.9 0.26,1.86 -0.06,2.74 l -10.35,28.46 c -0.09,0.25 -0.2,0.49 -0.34,0.72 -0.72,1.19 -2.99,5.59 2.19,6.46 4.48,0.75 18.44,-0.74 25.23,-1.54 2.15,-0.25 3.77,-2.08 3.77,-4.25 V 86.07 c 0,-2.1 -1.51,-3.88 -3.58,-4.22 -8.98,-1.46 -31.44,-4.48 -27.42,2.76 z"
           id="path599-9-3-85-1"
           style="fill:#636363;stroke:#171717;stroke-width:4.5px;stroke-miterlimit:10;stroke-opacity:1" />
        <rect
           class="cls-17"
           x="220.5"
           y="86.610001"
           width="14"
           height="13"
           rx="2.51"
           ry="2.51"
           id="rect601-80-8-6-6"
           style="fill:#636363;stroke:#171717;stroke-width:4.5px;stroke-miterlimit:10;stroke-opacity:1" />
        <rect
           class="cls-17"
           x="220.5"
           y="136.61"
           width="14"
           height="14"
           rx="3.21"
           ry="3.21"
           id="rect603-31-5-77-7"
           style="fill:#636363;stroke:#171717;stroke-width:4.5px;stroke-miterlimit:10;stroke-opacity:1" />
      </g>
    </g>
  </g>
</svg>
