<?xml version="1.0" encoding="UTF-8" standalone="no"?>
<!-- Created with Inkscape (http://www.inkscape.org/) -->

<svg
   width="435"
   height="46.925999"
   viewBox="0 0 115.09376 12.415837"
   version="1.1"
   id="svg1120"
   inkscape:version="1.1.2 (0a00cf5339, 2022-02-04)"
   sodipodi:docname="garage_door.svg"
   xmlns:inkscape="http://www.inkscape.org/namespaces/inkscape"
   xmlns:sodipodi="http://sodipodi.sourceforge.net/DTD/sodipodi-0.dtd"
   xmlns="http://www.w3.org/2000/svg"
   xmlns:svg="http://www.w3.org/2000/svg">
  <sodipodi:namedview
     id="namedview1122"
     pagecolor="#505050"
     bordercolor="#ffffff"
     borderopacity="1"
     inkscape:pageshadow="0"
     inkscape:pageopacity="0"
     inkscape:pagecheckerboard="1"
     inkscape:document-units="px"
     showgrid="false"
     units="px"
     inkscape:zoom="3.1037318"
     inkscape:cx="207.81435"
     inkscape:cy="-37.696556"
     inkscape:window-width="2560"
     inkscape:window-height="1372"
     inkscape:window-x="0"
     inkscape:window-y="0"
     inkscape:window-maximized="1"
     inkscape:current-layer="layer1" />
  <defs
     id="defs1117" />
  <g
     inkscape:label="Layer 1"
     inkscape:groupmode="layer"
     id="layer1">
    <path
       id="rect521-5-8"
       style="display:inline;fill:#808080;fill-opacity:1;stroke:#2e2e2e;stroke-width:0.926041;stroke-miterlimit:4;stroke-dasharray:none;stroke-opacity:1"
       d="m 66.145727,5.248108 c 0,-0.568191 -0.457588,-1.025779 -1.025778,-1.025779 -0.568205,0 -1.025258,0.457588 -1.025258,1.025779 V 9.912926 H 54.967094 V 5.248108 c 0,-0.568191 -0.457068,-1.025779 -1.025272,-1.025779 -0.568191,0 -1.025779,0.457588 -1.025779,1.025779 v 5.690611 c 0,0.0178 0,0.03519 0.0014,0.05269 0.025,0.543414 0.432404,0.972553 0.934832,0.972553 h 11.268032 0.08993 c 0.502414,0 0.909844,-0.429139 0.934818,-0.972553 0.0014,-0.0175 0.0014,-0.03499 0.0014,-0.05269 z"
       sodipodi:nodetypes="cssccsssscscsccc" />
    <rect
       style="fill:#a29e99;fill-opacity:1;stroke:#423f3c;stroke-width:1.95537;stroke-linecap:round;stroke-linejoin:round;stroke-miterlimit:4;stroke-dasharray:none;stroke-opacity:1"
       id="rect1203"
       width="113.13838"
       height="5.9821262"
       x="0.97769165"
       y="0.97768623"
       rx="0.73397994"
       ry="0.63326776" />
  </g>
</svg>
