<?xml version="1.0" encoding="UTF-8" standalone="no"?>
<svg width="185.00032" height="185.00032" version="1.1" viewBox="0 0 48.948 48.948" id="svg30" sodipodi:docname="gold_airdrop_crate.svg" inkscape:version="1.3.1 (91b66b0783, 2023-11-16, custom)" inkscape:export-filename="/home/desktopgeek/Downloads/airdrop_crate_gold.png" inkscape:export-xdpi="531.37207" inkscape:export-ydpi="531.37207" xmlns:inkscape="http://www.inkscape.org/namespaces/inkscape" xmlns:sodipodi="http://sodipodi.sourceforge.net/DTD/sodipodi-0.dtd" xmlns="http://www.w3.org/2000/svg" xmlns:svg="http://www.w3.org/2000/svg">
  <defs id="defs34" />
  <sodipodi:namedview id="namedview32" pagecolor="#505050" bordercolor="#ffffff" borderopacity="1" inkscape:pageshadow="0" inkscape:pageopacity="0" inkscape:pagecheckerboard="1" inkscape:document-units="mm" showgrid="false" inkscape:zoom="4.7080999" inkscape:cx="66.587372" inkscape:cy="84.428965" inkscape:window-width="1440" inkscape:window-height="840" inkscape:window-x="0" inkscape:window-y="0" inkscape:window-maximized="1" inkscape:current-layer="svg30" inkscape:showpageshadow="2" inkscape:deskcolor="#d1d1d1" />
  <g stroke="#262673" stroke-linecap="round" stroke-linejoin="round" id="g8" transform="translate(-163.08,-234.76)">
    <rect x="164.06" y="235.74001" width="46.986" height="46.986" fill="#4059bf" stroke-width="1.9616" id="rect2" />
    <path d="m 175.72,243.82 -3.5786,3.5786 v 23.67 l 3.5781,3.5781 h 23.671 l 3.5776,-3.5776 v -23.671 L 199.39,243.82 Z" fill="#384b94" stroke-width="1.9616" id="path4" />
    <path d="m 199.39,243.82 -5.8746,5.8751 h -11.92 l -5.8746,-5.8741 -3.5786,3.5786 5.8751,5.8746 v 11.92 l -5.8751,5.8751 3.5786,3.577 5.8746,-5.8741 h 11.921 l 5.874,5.8741 3.5781,-3.5765 -5.874,-5.8751 v -11.922 l 5.874,-5.8741 z" fill="#4059bf" stroke-width="1.962" id="path6" />
  </g>
  <g transform="matrix(0.70664,0,0,0.70664,-28.52,-14.53)" fill="#262673" stroke-width="1.2893" id="g14">
    <path d="m 73.388,59.261 h 3.1756 c 0.33966,0 0.61311,0.27345 0.61311,0.61311 v 3.2035 c 0,0.33966 -0.27345,0.61311 -0.61311,0.61311 H 73.388 c -0.33966,0 -0.61311,-0.27345 -0.61311,-0.61311 v -3.2035 c 0,-0.33966 0.27345,-0.61311 0.61311,-0.61311 z" stroke-linejoin="round" stroke-width="1.2893" id="path10" />
    <path d="m 77.507,58.612 4.8957,-5.2089 C 82.37859,52.3753 79.068,51.5983 77.9506,53.19433 l -1.5905,5.1356 -0.60501,-0.0051 1.5398,-5.0215 c -0.80053,-1.4753 -3.7253,-1.207 -4.5983,-0.08224 l 1.604,5.1284 -0.68873,-0.0074 -1.5892,-5.0831 c -0.88952,-1.3402 -3.6743,-1.3092 -4.613,-0.0097 l 5.1963,5.4146 -0.64719,0.52193 -5.1564,-5.7857 c 0.1114,-8.688 15.88,-9.2105 16.377,0.03436 l -5.2499,5.5739 z" id="path12" />
  </g>
  <path d="M 0.98,0.98 V 12.639 H 9.0596 L 12.6382,9.0604 V 0.9798 Z m 35.328,0 v 8.0796 l 3.5786,3.5786 h 8.0801 V 0.9802 Z m 3.5791,35.328 -3.5786,3.5786 v 8.0801 h 11.658 v -11.659 z m -38.907,5.1e-4 v 11.658 h 11.659 v -8.0796 l -3.5786,-3.5786 z" fill="#7c776f" stroke="#333333" stroke-linecap="round" stroke-linejoin="round" stroke-width="1.962" id="path16" style="fill:#aa8534;fill-opacity:1;stroke:#5e4a1d;stroke-opacity:1" />
  <g fill="#808080" stroke="#2e2e2e" stroke-linecap="round" stroke-linejoin="round" stroke-width="0.98082" id="g26" transform="translate(-163.08,-234.76)" style="fill:#c49d46;fill-opacity:1;stroke:#4d3c19;stroke-opacity:1">
    <circle cx="169.89" cy="241.57001" r="1.6222" id="circle18" style="fill:#c49d46;fill-opacity:1;stroke:#4d3c19;stroke-opacity:1" />
    <circle transform="rotate(-90)" cx="-276.89999" cy="169.89" r="1.6222" id="circle20" style="fill:#c49d46;fill-opacity:1;stroke:#4d3c19;stroke-opacity:1" />
    <circle transform="scale(-1)" cx="-205.22" cy="-276.89999" r="1.6222" id="circle22" style="fill:#c49d46;fill-opacity:1;stroke:#4d3c19;stroke-opacity:1" />
    <circle transform="rotate(90)" cx="241.57001" cy="-205.22" r="1.6222" id="circle24" style="fill:#c49d46;fill-opacity:1;stroke:#4d3c19;stroke-opacity:1" />
  </g>
</svg>
