<?xml version="1.0" encoding="UTF-8" standalone="no"?>
<!-- Created with Inkscape (http://www.inkscape.org/) -->

<svg
   width="43.935833mm"
   height="64.806992mm"
   viewBox="0 0 43.935832 64.806993"
   version="1.1"
   id="svg38877"
   xml:space="preserve"
   sodipodi:docname="green_house_small_table.svg"
   inkscape:version="1.3.2 (091e20e, 2023-11-25, custom)"
   inkscape:export-filename="green_house_small_table.svg"
   inkscape:export-xdpi="96"
   inkscape:export-ydpi="96"
   xmlns:inkscape="http://www.inkscape.org/namespaces/inkscape"
   xmlns:sodipodi="http://sodipodi.sourceforge.net/DTD/sodipodi-0.dtd"
   xmlns="http://www.w3.org/2000/svg"
   xmlns:svg="http://www.w3.org/2000/svg"><sodipodi:namedview
     id="namedview1"
     pagecolor="#ffffff"
     bordercolor="#000000"
     borderopacity="0.25"
     inkscape:showpageshadow="2"
     inkscape:pageopacity="0.0"
     inkscape:pagecheckerboard="0"
     inkscape:deskcolor="#d1d1d1"
     inkscape:document-units="mm"
     inkscape:zoom="1.5554722"
     inkscape:cx="90.326267"
     inkscape:cy="207.01109"
     inkscape:window-width="1280"
     inkscape:window-height="778"
     inkscape:window-x="-6"
     inkscape:window-y="-6"
     inkscape:window-maximized="1"
     inkscape:current-layer="layer1" /><defs
     id="defs38874" /><g
     id="layer1"
     transform="rotate(-90,65.192658,730.26346)"><g
       id="g44685"
       transform="rotate(-90.08875,-73.736805,2710.6675)"><g
         id="g44661"
         transform="matrix(1,0,0,-1,1817.9429,3754.1188)"
         style="opacity:0.97"><rect
           style="display:inline;fill:#302412;fill-opacity:1;stroke-width:0.125008"
           id="rect44653"
           width="64.746979"
           height="43.844788"
           x="171.15483"
           y="-152.57288"
           rx="2.9699221"
           ry="2.5275857"
           transform="rotate(90)" /><rect
           style="display:inline;fill:#785a2e;fill-opacity:1;stroke-width:0.128916"
           id="rect44655"
           width="54.147556"
           height="39.876148"
           x="176.45454"
           y="-150.58856"
           rx="1.3229166"
           ry="1.3229166"
           transform="rotate(90)" /><rect
           style="display:inline;fill:#785a2e;fill-opacity:1;stroke-width:0.0959866"
           id="rect44657"
           width="1.5875"
           height="39.876148"
           x="173.13921"
           y="-150.58861"
           rx="0.79374999"
           ry="0.79374999"
           transform="rotate(90)" /><rect
           style="display:inline;fill:#785a2e;fill-opacity:1;stroke-width:0.0959866"
           id="rect44659"
           width="1.5875"
           height="39.876148"
           x="232.32994"
           y="-150.58861"
           rx="0.79374999"
           ry="0.79374999"
           transform="rotate(90)" /></g><circle
         style="fill:#0094b2;fill-opacity:0.3;fill-rule:evenodd;stroke:#005666;stroke-width:0.777939;stroke-linecap:round;stroke-linejoin:round;stroke-dasharray:none;stroke-opacity:0.8;stop-color:#000000"
         id="circle44663"
         cx="2537.5735"
         cy="3155.5227"
         r="4.2107244"
         transform="rotate(10.187414)" /><circle
         style="fill:#0094b2;fill-opacity:0.3;fill-rule:evenodd;stroke:#005666;stroke-width:0.777939;stroke-linecap:round;stroke-linejoin:round;stroke-dasharray:none;stroke-opacity:0.8;stop-color:#000000"
         id="circle44665"
         cx="2537.5735"
         cy="3155.5227"
         r="4.2107244"
         transform="rotate(10.187414)" /><circle
         style="fill:#b2b2b2;fill-opacity:1;fill-rule:evenodd;stroke:#808080;stroke-width:0.677984;stroke-linecap:round;stroke-linejoin:round;stroke-dasharray:none;stroke-opacity:1;stop-color:#000000"
         id="circle44667"
         cx="2537.5215"
         cy="3155.5259"
         r="1.908167"
         transform="rotate(10.187414)" /><g
         id="g44679"
         transform="matrix(0,-1,-1,0,2055.7017,3652.3683)"><ellipse
           style="fill:#9edfdd;fill-opacity:1;fill-rule:nonzero;stroke:#0e2b2a;stroke-width:0.925997;stroke-linecap:round;stroke-linejoin:round;stroke-miterlimit:4;stroke-dasharray:none;stroke-dashoffset:0;stroke-opacity:1;paint-order:normal"
           id="ellipse44669"
           cx="106.28225"
           cy="103.28164"
           rx="2.9541814"
           ry="2.9513478" /><path
           id="path44671"
           style="fill:#cb4431;fill-opacity:1;fill-rule:nonzero;stroke:#511b14;stroke-width:0.69453;stroke-linecap:round;stroke-linejoin:round;stroke-miterlimit:4;stroke-dasharray:none;stroke-dashoffset:0;stroke-opacity:1;paint-order:normal"
           d="m 107.78233,102.13367 a 1.1121366,1.1110913 0 0 0 -1.11196,1.11091 1.1121366,1.1110913 0 0 0 0.002,0.0581 1.1121366,1.1110913 0 0 0 -0.214,-0.0205 1.1121366,1.1110913 0 0 0 -1.11196,1.11091 1.1121366,1.1110913 0 0 0 0.78341,1.06056 1.1121366,1.1110913 0 0 0 -0.17801,0.60221 1.1121366,1.1110913 0 0 0 1.11195,1.1109 1.1121366,1.1110913 0 0 0 0.9058,-0.46618 1.1121366,1.1110913 0 0 0 0.81941,0.36026 1.1121366,1.1110913 0 0 0 1.11196,-1.1109 1.1121366,1.1110913 0 0 0 -0.2415,-0.69113 1.1121366,1.1110913 0 0 0 0.78603,-1.06253 1.1121366,1.1110913 0 0 0 -1.11196,-1.11093 1.1121366,1.1110913 0 0 0 -0.44112,0.0916 1.1121366,1.1110913 0 0 0 -1.11,-1.04356 z m 0.44112,2.13028 a 1.1121366,1.1110913 0 0 0 0.24019,0.62443 1.1121366,1.1110913 0 0 0 -0.57986,0.41716 1.1121366,1.1110913 0 0 0 -0.49086,-0.31058 1.1121366,1.1110913 0 0 0 0.17801,-0.60154 1.1121366,1.1110913 0 0 0 -0.002,-0.0589 1.1121366,1.1110913 0 0 0 0.21336,0.0205 1.1121366,1.1110913 0 0 0 0.44113,-0.0916 z" /><ellipse
           style="fill:#d3db57;fill-opacity:1;fill-rule:nonzero;stroke:#3c3f0d;stroke-width:0.463021;stroke-linecap:round;stroke-linejoin:round;stroke-miterlimit:4;stroke-dasharray:none;stroke-dashoffset:0;stroke-opacity:1;paint-order:normal"
           id="ellipse44673"
           cx="107.8959"
           cy="104.65038"
           rx="0.78642541"
           ry="0.78568619" /><path
           id="path44675"
           style="fill:#cb4431;fill-opacity:1;fill-rule:nonzero;stroke:#511b14;stroke-width:0.694531;stroke-linecap:round;stroke-linejoin:round;stroke-miterlimit:4;stroke-dasharray:none;stroke-dashoffset:0;stroke-opacity:1;paint-order:normal"
           d="m 106.49429,98.069887 a 1.1121367,1.1110913 0 0 0 -1.11197,1.11157 1.1121367,1.1110913 0 0 0 0.003,0.0582 1.1121367,1.1110913 0 0 0 -0.21401,-0.0209 1.1121367,1.1110913 0 0 0 -1.11195,1.111573 1.1121367,1.1110913 0 0 0 0.78341,1.06122 1.1121367,1.1110913 0 0 0 -0.17868,0.60155 1.1121367,1.1110913 0 0 0 1.11262,1.11092 1.1121367,1.1110913 0 0 0 0.90513,-0.46621 1.1121367,1.1110913 0 0 0 0.81941,0.36028 1.1121367,1.1110913 0 0 0 1.11262,-1.11091 1.1121367,1.1110913 0 0 0 -0.2415,-0.69114 1.1121367,1.1110913 0 0 0 0.78603,-1.06252 1.1121367,1.1110913 0 0 0 -1.11196,-1.110923 1.1121367,1.1110913 0 0 0 -0.44112,0.0915 1.1121367,1.1110913 0 0 0 -1.10999,-1.04422 z m 0.4411,2.130293 a 1.1121367,1.1110913 0 0 0 0.23889,0.62444 1.1121367,1.1110913 0 0 0 -0.57856,0.41782 1.1121367,1.1110913 0 0 0 -0.49151,-0.31059 1.1121367,1.1110913 0 0 0 0.17802,-0.60155 1.1121367,1.1110913 0 0 0 -0.001,-0.0595 1.1121367,1.1110913 0 0 0 0.21337,0.0216 1.1121367,1.1110913 0 0 0 0.4411,-0.0922 z" /><ellipse
           style="fill:#d3db57;fill-opacity:1;fill-rule:nonzero;stroke:#3c3f0d;stroke-width:0.463021;stroke-linecap:round;stroke-linejoin:round;stroke-miterlimit:4;stroke-dasharray:none;stroke-dashoffset:0;stroke-opacity:1;paint-order:normal"
           id="ellipse44677"
           cx="106.63796"
           cy="100.63244"
           rx="0.78642541"
           ry="0.78568619" /></g><path
         id="path44681"
         style="fill:#55d6ce;fill-opacity:1;fill-rule:nonzero;stroke:#0f3c39;stroke-width:0.694531;stroke-linecap:round;stroke-linejoin:round;stroke-miterlimit:4;stroke-dasharray:none;stroke-dashoffset:0;stroke-opacity:1;paint-order:normal"
         d="m 1950.7081,3545.7571 a 1.1110913,1.1121367 74.177279 0 0 -0.7668,1.3727 1.1110913,1.1121367 74.177279 0 0 0.016,0.056 1.1110913,1.1121367 74.177279 0 0 -0.2117,0.038 1.1110913,1.1121367 74.177279 0 0 -0.7667,1.3726 1.1110913,1.1121367 74.177279 0 0 1.0431,0.8074 1.1110913,1.1121367 74.177279 0 0 -0.01,0.6275 1.1110913,1.1121367 74.177279 0 0 1.3734,0.7655 1.1110913,1.1121367 74.177279 0 0 0.7436,-0.6954 1.1110913,1.1121367 74.177279 0 0 0.8868,0.123 1.1110913,1.1121367 74.177279 0 0 0.7676,-1.3722 1.1110913,1.1121367 74.177279 0 0 -0.4208,-0.5991 1.1110913,1.1121367 74.177279 0 0 0.4665,-1.2366 1.1110913,1.1121367 74.177279 0 0 -1.3728,-0.7656 1.1110913,1.1121367 74.177279 0 0 -0.3994,0.2082 1.1110913,1.1121367 74.177279 0 0 -1.3527,-0.7019 z m 1.0053,1.9293 a 1.1110913,1.1121367 74.177279 0 0 0.4,0.5357 1.1110913,1.1121367 74.177279 0 0 -0.4427,0.5597 1.1110913,1.1121367 74.177279 0 0 -0.5577,-0.1646 1.1110913,1.1121367 74.177279 0 0 0.01,-0.6273 1.1110913,1.1121367 74.177279 0 0 -0.018,-0.057 1.1110913,1.1121367 74.177279 0 0 0.2112,-0.037 1.1110913,1.1121367 74.177279 0 0 0.3993,-0.209 z" /><ellipse
         style="fill:#d3db57;fill-opacity:1;fill-rule:nonzero;stroke:#3c3f0d;stroke-width:0.463021;stroke-linecap:round;stroke-linejoin:round;stroke-miterlimit:4;stroke-dasharray:none;stroke-dashoffset:0;stroke-opacity:1;paint-order:normal"
         id="ellipse44683"
         cx="910.14673"
         cy="3945.8545"
         rx="0.78642541"
         ry="0.78568619"
         transform="rotate(-15.822721)" /></g></g></svg>
