<?xml version="1.0" encoding="UTF-8" standalone="no"?>
<!-- Created with Inkscape (http://www.inkscape.org/) -->

<svg
   width="203.98842"
   height="112.25542"
   viewBox="0 0 53.971935 29.700914"
   version="1.1"
   id="svg1"
   inkscape:version="1.3.2 (1:1.3.2+202311252150+091e20ef0f)"
   sodipodi:docname="gun_case.svg"
   xmlns:inkscape="http://www.inkscape.org/namespaces/inkscape"
   xmlns:sodipodi="http://sodipodi.sourceforge.net/DTD/sodipodi-0.dtd"
   xmlns="http://www.w3.org/2000/svg"
   xmlns:svg="http://www.w3.org/2000/svg">
  <sodipodi:namedview
     id="namedview1"
     pagecolor="#505050"
     bordercolor="#ffffff"
     borderopacity="1"
     inkscape:showpageshadow="0"
     inkscape:pageopacity="0"
     inkscape:pagecheckerboard="1"
     inkscape:deskcolor="#d1d1d1"
     inkscape:document-units="px"
     inkscape:zoom="1.0467522"
     inkscape:cx="166.70612"
     inkscape:cy="-22.450395"
     inkscape:window-width="2560"
     inkscape:window-height="1372"
     inkscape:window-x="0"
     inkscape:window-y="0"
     inkscape:window-maximized="1"
     inkscape:current-layer="layer1" />
  <defs
     id="defs1" />
  <g
     inkscape:label="Layer 1"
     inkscape:groupmode="layer"
     id="layer1"
     transform="translate(-60.854173,-154.5167)">
    <g
       id="g17909"
       transform="matrix(1.060281,0,0,1.060281,-1453.6482,-1180.9691)">
      <g
         inkscape:label="Layer 1"
         id="g17901"
         transform="matrix(1.2946898,0,0,1.2946898,1378.1609,1182.9871)">
        <path
           id="path17887"
           class="st0"
           d="m 55.417609,76.605054 h 6.058958 c 0.211667,0 0.370417,0.15875 0.370417,0.370417 v 2.8575 c 0,0.211667 -0.15875,0.370417 -0.370417,0.370417 h -6.058958 c -0.211666,0 -0.370416,-0.15875 -0.370416,-0.370417 v -2.8575 c 0.02646,-0.211667 0.185208,-0.370417 0.370416,-0.370417 z"
           style="fill:none;stroke:#727272;stroke-width:1.15094;stroke-linecap:round;stroke-linejoin:round;stroke-miterlimit:11.3386" />
        <path
           id="path17889"
           class="st5"
           d="m 46.871568,78.324846 h 1.375833 c 0.211667,0 0.370417,0.15875 0.370417,0.370417 v 0.47625 c 0,0.211666 -0.15875,0.370416 -0.370417,0.370416 h -1.375833 c -0.211667,0 -0.370417,-0.15875 -0.370417,-0.370416 v -0.47625 c 0,-0.211667 0.15875,-0.370417 0.370417,-0.370417 z"
           style="fill:#3a3a3a;stroke:#727272;stroke-width:1.5875;stroke-linecap:round;stroke-linejoin:round;stroke-miterlimit:11.3386" />
        <path
           id="path17891"
           class="st5"
           d="m 68.699692,78.324846 h 1.375834 c 0.211666,0 0.370416,0.15875 0.370416,0.370417 v 0.47625 c 0,0.211666 -0.15875,0.370416 -0.370416,0.370416 h -1.375834 c -0.211666,0 -0.370416,-0.15875 -0.370416,-0.370416 v -0.47625 c 0,-0.211667 0.15875,-0.370417 0.370416,-0.370417 z"
           style="fill:#3a3a3a;stroke:#727272;stroke-width:1.5875;stroke-linecap:round;stroke-linejoin:round;stroke-miterlimit:11.3386" />
        <path
           id="path17893"
           class="st21"
           d="m 46.051359,59.96276 h 3.01625 c 0.211667,0 0.370417,0.15875 0.370417,0.370417 v 0.846666 c 0,0.211667 -0.15875,0.370417 -0.370417,0.370417 h -3.01625 c -0.211666,0 -0.370416,-0.15875 -0.370416,-0.370417 v -0.846666 c 0,-0.211667 0.15875,-0.370417 0.370416,-0.370417 z"
           style="fill:#404040;stroke:#1f231c;stroke-width:1.5875;stroke-linecap:round;stroke-linejoin:round;stroke-miterlimit:11.3386" />
        <path
           id="path17895"
           class="st21"
           d="m 67.879484,61.523802 h 3.01625 c 0.211667,0 0.370417,-0.15875 0.370417,-0.370417 v -0.846667 c 0,-0.211666 -0.15875,-0.370416 -0.370417,-0.370416 h -3.01625 c -0.211667,0 -0.370417,0.15875 -0.370417,0.370416 v 0.846667 c 0,0.211667 0.15875,0.370417 0.370417,0.370417 z"
           style="fill:#404040;stroke:#1f231c;stroke-width:1.5875;stroke-linecap:round;stroke-linejoin:round;stroke-miterlimit:11.3386" />
        <path
           id="path17897"
           class="st22"
           d="m 42.241359,61.523802 h 32.437917 c 1.455208,0 2.645833,1.190625 2.645833,2.645833 v 11.482919 c 0,1.455209 -1.190625,2.645834 -2.645833,2.645834 H 42.241359 c -1.455208,0 -2.645833,-1.190625 -2.645833,-2.645834 V 64.169635 c 0,-1.455208 1.190625,-2.645833 2.645833,-2.645833 z"
           style="fill:#2e3726;stroke:#2e3726;stroke-width:1.5875;stroke-linecap:round;stroke-linejoin:round;stroke-miterlimit:11.3386" />
        <path
           id="path17899"
           class="st24"
           d="m 42.241359,61.523802 h 32.437917 c 1.455208,0 2.645833,1.190625 2.645833,2.645833 v 11.482919 c 0,1.455209 -1.190625,2.645834 -2.645833,2.645834 H 42.241359 c -1.455208,0 -2.645833,-1.190625 -2.645833,-2.645834 V 64.169635 c 0,-1.455208 1.190625,-2.645833 2.645833,-2.645833 z"
           style="fill:none;stroke:#1f231c;stroke-width:1.5875;stroke-linecap:round;stroke-linejoin:round;stroke-miterlimit:11.3386" />
      </g>
      <rect
         style="opacity:1;fill:#1f231c;fill-opacity:1;stroke:none;stroke-width:1.74171;stroke-opacity:1;stop-color:#000000"
         id="rect17903"
         width="40.511845"
         height="1.8619019"
         x="1433.6951"
         y="1265.8512"
         rx="0.87802291"
         ry="0.87802291" />
      <rect
         style="opacity:1;fill:#1f231c;fill-opacity:1;stroke:none;stroke-width:1.74171;stroke-opacity:1;stop-color:#000000"
         id="rect17905"
         width="40.511845"
         height="1.8619019"
         x="1433.6951"
         y="1272.017"
         rx="0.87802291"
         ry="0.87802291" />
      <rect
         style="opacity:1;fill:#1f231c;fill-opacity:1;stroke:none;stroke-width:1.74171;stroke-opacity:1;stop-color:#000000"
         id="rect17907"
         width="40.511845"
         height="1.8619019"
         x="1433.6951"
         y="1278.8341"
         rx="0.87802291"
         ry="0.87802291" />
    </g>
  </g>
</svg>
