<?xml version="1.0" encoding="UTF-8" standalone="no"?>
<svg
   width="250"
   height="141.905"
   viewBox="0 0 66.145836 37.545695"
   version="1.1"
   id="svg76803"
   inkscape:version="1.1.2 (0a00cf5339, 2022-02-04)"
   sodipodi:docname="drawer_large.svg"
   xmlns:inkscape="http://www.inkscape.org/namespaces/inkscape"
   xmlns:sodipodi="http://sodipodi.sourceforge.net/DTD/sodipodi-0.dtd"
   xmlns="http://www.w3.org/2000/svg"
   xmlns:svg="http://www.w3.org/2000/svg"
   xmlns:rdf="http://www.w3.org/1999/02/22-rdf-syntax-ns#"
   xmlns:cc="http://creativecommons.org/ns#"
   xmlns:dc="http://purl.org/dc/elements/1.1/">
  <defs
     id="defs76797" />
  <sodipodi:namedview
     id="base"
     pagecolor="#505050"
     bordercolor="#666666"
     borderopacity="1.0"
     inkscape:pageopacity="0"
     inkscape:pageshadow="2"
     inkscape:zoom="4.32"
     inkscape:cx="130.78704"
     inkscape:cy="54.861111"
     inkscape:document-units="px"
     inkscape:current-layer="layer2-9-6-7"
     inkscape:document-rotation="0"
     showgrid="false"
     fit-margin-top="0"
     fit-margin-left="0"
     fit-margin-right="0"
     fit-margin-bottom="0"
     inkscape:window-width="2560"
     inkscape:window-height="1372"
     inkscape:window-x="0"
     inkscape:window-y="0"
     inkscape:window-maximized="1"
     inkscape:pagecheckerboard="1"
     units="px" />
  <metadata
     id="metadata76800">
    <rdf:RDF>
      <cc:Work
         rdf:about="">
        <dc:format>image/svg+xml</dc:format>
        <dc:type
           rdf:resource="http://purl.org/dc/dcmitype/StillImage" />
      </cc:Work>
    </rdf:RDF>
  </metadata>
  <g
     inkscape:label="Layer 1"
     inkscape:groupmode="layer"
     id="layer1"
     transform="translate(-135.92232,-113.60408)">
    <g
       id="layer2-9-6-7"
       inkscape:label="Слой 2"
       style="display:inline"
       transform="matrix(-0.14069687,0,0,-0.14069687,394.52317,185.82642)">
      <g
         id="g2720"
         transform="translate(-0.40862072)">
        <path
           id="rect521-5-8-3"
           style="display:inline;fill:#808080;fill-opacity:1;stroke:#2e2e2e;stroke-width:6.58182;stroke-miterlimit:4;stroke-dasharray:none;stroke-opacity:1"
           d="m 1430.6394,297.48773 c 0,4.0384 3.2523,7.2907 7.2907,7.2907 4.0385,0 7.287,-3.2523 7.287,-7.2907 v -33.1551 h 64.8742 v 33.1551 c 0,4.0384 3.2486,7.2907 7.2871,7.2907 4.0384,0 7.2907,-3.2523 7.2907,-7.2907 v -40.4459 c 0,-0.1265 0,-0.2501 -0.01,-0.3745 -0.1777,-3.8623 -3.0733,-6.9124 -6.6443,-6.9124 h -80.0873 -0.6392 c -3.5709,0 -6.4667,3.0501 -6.6442,6.9124 -0.01,0.1244 -0.01,0.2487 -0.01,0.3745 z"
           sodipodi:nodetypes="cssccsssscscsccc" />
        <path
           id="rect521-5-8"
           style="display:inline;fill:#808080;fill-opacity:1;stroke:#2e2e2e;stroke-width:6.58182;stroke-miterlimit:4;stroke-dasharray:none;stroke-opacity:1"
           d="m 1682.0234,297.48773 c 0,4.0384 3.2523,7.2907 7.2907,7.2907 4.0385,0 7.287,-3.2523 7.287,-7.2907 v -33.1551 h 64.8742 v 33.1551 c 0,4.0384 3.2486,7.2907 7.2871,7.2907 4.0384,0 7.2907,-3.2523 7.2907,-7.2907 v -40.4459 c 0,-0.1265 0,-0.2501 -0.01,-0.3745 -0.1777,-3.8623 -3.0733,-6.9124 -6.6443,-6.9124 h -80.0873 -0.6392 c -3.5709,0 -6.4667,3.0501 -6.6442,6.9124 -0.01,0.1244 -0.01,0.2487 -0.01,0.3745 z"
           sodipodi:nodetypes="cssccsssscscsccc" />
      </g>
      <rect
         style="fill:#302412;fill-opacity:1;stroke-width:0.991957"
         id="rect764-8-7"
         width="470.1301"
         height="227.54297"
         x="1367.869"
         y="285.77582"
         rx="23.506504"
         ry="23.506504" />
      <rect
         style="fill:#785a2e;fill-opacity:1;stroke-width:1.03399"
         id="rect3048-0-2"
         width="441.9223"
         height="166.42606"
         x="1381.9739"
         y="332.78879"
         rx="9.4026022"
         ry="9.4026022" />
      <rect
         style="fill:#785a2e;fill-opacity:1;stroke-width:1.15878"
         id="rect3051-6-3"
         width="441.9223"
         height="18.805204"
         x="1381.9733"
         y="299.8797"
         ry="9.4026022"
         rx="9.4026022" />
      <rect
         style="fill:#5a4323;fill-opacity:1;stroke:none;stroke-width:15.4686;stroke-linecap:round;stroke-linejoin:round"
         id="rect2888-6"
         width="18.805204"
         height="441.9223"
         x="-425.40442"
         y="1381.9739"
         transform="rotate(-90)" />
      <rect
         style="display:inline;fill:#5a4323;fill-opacity:1;stroke:none;stroke-width:15.4686;stroke-linecap:round;stroke-linejoin:round"
         id="rect2888-6-6"
         width="18.805204"
         height="441.9223"
         x="-376.51089"
         y="1381.9739"
         transform="rotate(-90)" />
      <rect
         style="display:inline;fill:#5a4323;fill-opacity:1;stroke:none;stroke-width:15.4686;stroke-linecap:round;stroke-linejoin:round"
         id="rect2888-6-7"
         width="18.805204"
         height="441.9223"
         x="-474.29794"
         y="1381.9739"
         transform="rotate(-90)" />
    </g>
  </g>
</svg>
