<?xml version="1.0" encoding="UTF-8" standalone="no"?>
<svg
   width="1005.6899"
   height="985.64484"
   viewBox="0 0 1005.6899 985.64484"
   fill="none"
   version="1.1"
   id="svg52"
   sodipodi:docname="oak_tree_1 copy.svg"
   inkscape:version="1.3 (0e150ed, 2023-07-21)"
   xmlns:inkscape="http://www.inkscape.org/namespaces/inkscape"
   xmlns:sodipodi="http://sodipodi.sourceforge.net/DTD/sodipodi-0.dtd"
   xmlns="http://www.w3.org/2000/svg"
   xmlns:svg="http://www.w3.org/2000/svg">
  <defs
     id="defs56" />
  <sodipodi:namedview
     id="namedview54"
     pagecolor="#505050"
     bordercolor="#ffffff"
     borderopacity="1"
     inkscape:pageshadow="0"
     inkscape:pageopacity="0"
     inkscape:pagecheckerboard="1"
     showgrid="false"
     inkscape:zoom="1.5334507"
     inkscape:cx="981.44662"
     inkscape:cy="544.8496"
     inkscape:window-width="1440"
     inkscape:window-height="900"
     inkscape:window-x="0"
     inkscape:window-y="0"
     inkscape:window-maximized="0"
     inkscape:current-layer="svg52"
     height="609.877px"
     inkscape:showpageshadow="2"
     inkscape:deskcolor="#505050" />
  <g
     id="g10"
     transform="matrix(3.7795276,0,0,3.7795276,-4814.5448,-5063.0117)">
    <path
       style="fill:#8b511c;fill-opacity:1;stroke:#372516;stroke-width:2.381;stroke-linecap:square;stroke-linejoin:round;stroke-opacity:1"
       d="m 1386.0571,1374.3277 24.0421,46.8512 -1.8494,35.7549 32.0562,-28.3573 9.8634,-25.8915 21.5762,-2.4658 -16.028,6.7811 -3.6988,28.9738 -35.7549,29.5902 37.6043,-9.8634 17.2609,-20.9598 -8.014,27.7409 -22.1927,8.014 -24.0421,6.1647 25.7268,32.3351 28.3891,12.6242 22.02,2.1363 -20.787,8.3436 -35.4334,-12.0981 -27.9296,-34.0942 -11.7128,18.494 -28.9816,34.2987 18.5018,-41.0798 8.6305,-22.8092 -29.5903,-1.8494 -37.3651,8.4339 -19.3496,-19.5302 25.2751,10.4798 26.0721,-9.6747 33.1084,-2.6545 -1.8494,-37.6043 z"
       id="path27-90"
       sodipodi:nodetypes="cccccccccccccccccccccccccccccccc" />
    <path
       style="fill:#a25e21;fill-opacity:1;stroke:#372516;stroke-width:2.381;stroke-linecap:square;stroke-linejoin:round;stroke-opacity:1"
       d="m 1353.3419,1385.1919 6.7146,36.4005 24.0314,12.3691 14.8429,27.5654 11.3089,-6.3613 17.6701,-16.9633 2.1205,-38.8743 10.9555,39.5811 -16.9634,26.8586 17.6702,7.7749 15.9031,11.3089 39.5811,-5.3011 -38.5209,13.7827 -28.2722,-12.3691 -9.8954,0.7068 -5.4335,19.8348 17.1842,53.7614 -18.642,-12.9876 -11.3972,-34.015 -0.4417,-21.9993 -31.8063,20.4973 -43.4685,4.5943 34.9868,-14.4895 24.0314,-14.1362 -6.0078,-9.1884 -20.8508,-13.7827 -38.521,-15.9032 40.1113,5.1244 18.2003,6.1845 -9.1885,-15.9031 -20.144,-10.9555 z"
       id="path55-3"
       sodipodi:nodetypes="cccccccccccccccccccccccccccccccc" />
    <path
       opacity="0.95"
       d="m 1375.0341,1463.4855 c 34.2133,0 61.9486,-27.7353 61.9486,-61.9484 0,-34.2133 -27.7353,-61.9486 -61.9486,-61.9486 -34.2131,0 -61.9484,27.7353 -61.9484,61.9486 0,34.2131 27.7353,61.9484 61.9484,61.9484 z"
       fill="#3a4f3f"
       id="path6-28-0-0-1-5-4-9-83"
       style="fill:#ec1414;fill-opacity:0.85098;stroke-width:0.70396" />
    <path
       opacity="0.95"
       d="m 1488.9603,1483.4779 c 28.1538,0 50.9768,-22.823 50.9768,-50.9766 0,-28.1538 -22.823,-50.9768 -50.9768,-50.9768 -28.1535,0 -50.9766,22.823 -50.9766,50.9768 0,28.1536 22.8231,50.9766 50.9766,50.9766 z"
       fill="#3a4f3f"
       id="path6-28-0-0-1-5-4-9-8-10"
       style="fill:#ec1414;fill-opacity:0.85098;stroke-width:0.579281" />
    <path
       opacity="0.95"
       d="m 1447.3478,1434.3947 c 21.7155,0 39.3193,-17.6038 39.3193,-39.3191 0,-21.7155 -17.6038,-39.3193 -39.3193,-39.3193 -21.7153,0 -39.3191,17.6038 -39.3191,39.3193 0,21.7153 17.6038,39.3191 39.3191,39.3191 z"
       fill="#3a4f3f"
       id="path6-28-0-0-1-5-4-9-8-1-08"
       style="fill:#ec1414;fill-opacity:0.85098;stroke-width:0.446809" />
    <path
       opacity="0.95"
       d="m 1494.3976,1464.3581 c 17.5496,0 31.7762,-14.2267 31.7762,-31.7761 0,-17.5495 -14.2266,-31.7761 -31.7762,-31.7761 -17.5494,0 -31.776,14.2266 -31.776,31.7761 0,17.5494 14.2266,31.7761 31.776,31.7761 z"
       fill="#3a4f3f"
       id="path6-28-0-0-1-5-4-9-8-1-00-8-0"
       style="fill:#ec1414;fill-opacity:0.802395;stroke-width:0.361092" />
    <path
       opacity="0.95"
       d="m 1426.0921,1419.5483 c 17.5496,0 31.7762,-14.2267 31.7762,-31.7761 0,-17.5495 -14.2266,-31.7761 -31.7762,-31.7761 -17.5494,0 -31.776,14.2266 -31.776,31.7761 0,17.5494 14.2266,31.7761 31.776,31.7761 z"
       fill="#3a4f3f"
       id="path6-28-0-0-1-5-4-9-8-1-00-8-8-4"
       style="fill:#ec1414;fill-opacity:0.802395;stroke-width:0.361092" />
    <path
       opacity="0.95"
       d="m 1478.7281,1566.7147 c 30.0474,0 54.4055,-24.3581 54.4055,-54.4053 0,-30.0473 -24.3581,-54.4055 -54.4055,-54.4055 -30.0471,0 -54.4053,24.3582 -54.4053,54.4055 0,30.0472 24.3582,54.4053 54.4053,54.4053 z"
       fill="#3a4f3f"
       id="path6-28-0-0-1-5-4-9-8-0-8-7"
       style="fill:#ec1414;fill-opacity:0.85098;stroke-width:0.618243" />
    <path
       opacity="0.95"
       d="m 1404.3555,1600.3737 c 30.0474,0 54.4055,-24.3582 54.4055,-54.4054 0,-30.0473 -24.3581,-54.4054 -54.4055,-54.4054 -30.0471,0 -54.4053,24.3581 -54.4053,54.4054 0,30.0472 24.3582,54.4054 54.4053,54.4054 z"
       fill="#3a4f3f"
       id="path6-28-0-0-1-5-4-9-8-0-8-2-6"
       style="fill:#ec1414;fill-opacity:0.85098;stroke-width:0.618243" />
    <path
       opacity="0.95"
       d="m 1400.1013,1587.8808 c 17.5496,0 31.7762,-14.2266 31.7762,-31.776 0,-17.5495 -14.2266,-31.7762 -31.7762,-31.7762 -17.5494,0 -31.776,14.2267 -31.776,31.7762 0,17.5494 14.2266,31.776 31.776,31.776 z"
       fill="#3a4f3f"
       id="path6-28-0-0-1-5-4-9-8-1-00-8-6-1"
       style="fill:#ec1414;fill-opacity:0.802395;stroke-width:0.361092" />
    <path
       opacity="0.95"
       d="m 1484.0961,1537.7943 c 27.2071,0 49.2625,-22.0555 49.2625,-49.2623 0,-27.2069 -22.0554,-49.2624 -49.2625,-49.2624 -27.2068,0 -49.2622,22.0555 -49.2622,49.2624 0,27.2068 22.0554,49.2623 49.2622,49.2623 z"
       fill="#3a4f3f"
       id="path6-28-0-0-1-5-4-9-8-1-00-8-6-0-6"
       style="fill:#ec1414;fill-opacity:0.85098;stroke-width:0.5598" />
    <path
       opacity="0.95"
       d="m 1446.1021,1498.5101 c 27.2071,0 49.2625,-22.0555 49.2625,-49.2623 0,-27.2069 -22.0554,-49.2625 -49.2625,-49.2625 -27.2068,0 -49.2622,22.0556 -49.2622,49.2625 0,27.2068 22.0554,49.2623 49.2622,49.2623 z"
       fill="#3a4f3f"
       id="path6-28-0-0-1-5-4-9-8-1-00-8-6-0-4-1"
       style="fill:#ec1414;fill-opacity:0.802395;stroke-width:0.5598" />
    <path
       opacity="0.95"
       d="m 1352.9243,1452.0366 c 21.7155,0 39.3193,-17.6038 39.3193,-39.3191 0,-21.7155 -17.6038,-39.3193 -39.3193,-39.3193 -21.7153,0 -39.3191,17.6038 -39.3191,39.3193 0,21.7153 17.6038,39.3191 39.3191,39.3191 z"
       fill="#3a4f3f"
       id="path6-28-0-0-1-5-4-9-8-1-00-8-9-4"
       style="fill:#ec1414;fill-opacity:0.802395;stroke-width:0.446809" />
    <path
       opacity="0.95"
       d="m 1324.8249,1530.4484 c 28.1538,0 50.9768,-22.8231 50.9768,-50.9767 0,-28.1537 -22.823,-50.9768 -50.9768,-50.9768 -28.1535,0 -50.9766,22.8231 -50.9766,50.9768 0,28.1536 22.8231,50.9767 50.9766,50.9767 z"
       fill="#3a4f3f"
       id="path6-28-0-0-1-5-4-9-8-0-9"
       style="fill:#ec1414;fill-opacity:0.85098;stroke-width:0.579281" />
    <path
       opacity="0.95"
       d="m 1341.1052,1572.7658 c 21.7155,0 39.3193,-17.6038 39.3193,-39.3191 0,-21.7154 -17.6038,-39.3193 -39.3193,-39.3193 -21.7153,0 -39.3191,17.6039 -39.3191,39.3193 0,21.7153 17.6038,39.3191 39.3191,39.3191 z"
       fill="#3a4f3f"
       id="path6-28-0-0-1-5-4-9-8-1-0-6"
       style="fill:#ec1414;fill-opacity:0.85098;stroke-width:0.446809" />
    <path
       opacity="0.95"
       d="m 1321.3903,1498.192 c 21.7155,0 39.3193,-17.6038 39.3193,-39.3191 0,-21.7155 -17.6038,-39.3193 -39.3193,-39.3193 -21.7153,0 -39.3191,17.6038 -39.3191,39.3193 0,21.7153 17.6038,39.3191 39.3191,39.3191 z"
       fill="#3a4f3f"
       id="path6-28-0-0-1-5-4-9-8-1-0-0-4"
       style="fill:#ec1414;fill-opacity:0.85098;stroke-width:0.446809" />
    <path
       opacity="0.95"
       d="m 1339.0034,1530.4494 c 21.7155,0 39.3193,-17.6038 39.3193,-39.3192 0,-21.7154 -17.6038,-39.3192 -39.3193,-39.3192 -21.7153,0 -39.3191,17.6038 -39.3191,39.3192 0,21.7154 17.6038,39.3192 39.3191,39.3192 z"
       fill="#3a4f3f"
       id="path6-28-0-0-1-5-4-9-8-1-00-8-9-6-28"
       style="fill:#ec1414;fill-opacity:0.802395;stroke-width:0.446809" />
    <path
       opacity="0.95"
       d="m 1391.2185,1507.7279 c 21.7155,0 39.3193,-17.6038 39.3193,-39.3191 0,-21.7155 -17.6038,-39.3193 -39.3193,-39.3193 -21.7153,0 -39.3191,17.6038 -39.3191,39.3193 0,21.7153 17.6038,39.3191 39.3191,39.3191 z"
       fill="#3a4f3f"
       id="path6-28-0-0-1-5-4-9-8-1-00-8-9-6-2-4"
       style="fill:#ec1414;fill-opacity:0.85098;stroke-width:0.446809" />
    <g
       id="g55-7-4"
       transform="translate(102.575,1209.2031)">
      <path
         id="path1271-9-9-6-3-9"
         sodipodi:nodetypes="cc"
         class="st4"
         d="m 1207.946,244.97401 c 0.8622,-1.20796 2.0388,-2.76687 3.2261,-3.60099"
         style="clip-rule:evenodd;opacity:0.8;fill:#c93d2b;fill-opacity:0.921569;fill-rule:evenodd;stroke:#a4412d;stroke-width:2.38126;stroke-linecap:round;stroke-linejoin:round;stroke-miterlimit:45.3543;stroke-dasharray:none;enable-background:new" />
      <path
         id="path1273-6-6-2-7-8"
         inkscape:transform-center-x="8.1147597"
         inkscape:transform-center-y="-9.0536316"
         class="st5"
         d="m 1198.3771,255.65491 4.2646,-1.59791 1.055,1.24776 2.2515,-3.64902 0.8337,3.02986 0.549,-0.30579 2.1864,2.56387 1.0508,-3.32194 0.5766,0.4616 0.1791,-3.60777 4.2289,0.13048 -1.6612,-1.98339 0.6679,-0.25429 -2.4566,-2.20086 0.9461,-1.79288 -5.0739,0.59779 0.039,-5.10885 -1.6785,1.13673 -2.4566,-2.20085 -0.1797,0.69173 -2.1533,-1.43409 0.5485,4.17713 -3.5664,0.57305 0.5219,0.52263 -3.1869,1.40817 2.7879,1.8925 -0.2439,0.57919 3.103,0.49697 -3.3806,2.63745 1.3558,0.91208 z"
         style="fill:#ff382f;fill-opacity:0.94012;stroke-width:2.38126;stroke-miterlimit:45.3543;stroke-dasharray:none" />
    </g>
    <g
       id="g55-8-1"
       transform="rotate(-76.577007,2145.8351,775.75099)">
      <path
         id="path1271-9-9-6-7-0"
         sodipodi:nodetypes="cc"
         class="st4"
         d="m 1207.946,244.97401 c 0.8622,-1.20796 2.0388,-2.76687 3.2261,-3.60099"
         style="clip-rule:evenodd;opacity:0.8;fill:#c93d2b;fill-opacity:0.921569;fill-rule:evenodd;stroke:#a4412d;stroke-width:2.38126;stroke-linecap:round;stroke-linejoin:round;stroke-miterlimit:45.3543;stroke-dasharray:none;enable-background:new" />
      <path
         id="path1273-6-6-2-1-3"
         inkscape:transform-center-x="8.1147597"
         inkscape:transform-center-y="-9.0536316"
         class="st5"
         d="m 1198.3771,255.65491 4.2646,-1.59791 1.055,1.24776 2.2515,-3.64902 0.8337,3.02986 0.549,-0.30579 2.1864,2.56387 1.0508,-3.32194 0.5766,0.4616 0.1791,-3.60777 4.2289,0.13048 -1.6612,-1.98339 0.6679,-0.25429 -2.4566,-2.20086 0.9461,-1.79288 -5.0739,0.59779 0.039,-5.10885 -1.6785,1.13673 -2.4566,-2.20085 -0.1797,0.69173 -2.1533,-1.43409 0.5485,4.17713 -3.5664,0.57305 0.5219,0.52263 -3.1869,1.40817 2.7879,1.8925 -0.2439,0.57919 3.103,0.49697 -3.3806,2.63745 1.3558,0.91208 z"
         style="fill:#ff382f;fill-opacity:0.94012;stroke-width:2.38126;stroke-miterlimit:45.3543;stroke-dasharray:none" />
    </g>
    <g
       id="g55-6-7"
       transform="rotate(-96.042374,1926.935,753.01997)">
      <path
         id="path1271-9-9-6-79-43"
         sodipodi:nodetypes="cc"
         class="st4"
         d="m 1207.946,244.97401 c 0.8622,-1.20796 2.0388,-2.76687 3.2261,-3.60099"
         style="clip-rule:evenodd;opacity:0.8;fill:#c93d2b;fill-opacity:0.921569;fill-rule:evenodd;stroke:#a4412d;stroke-width:2.38126;stroke-linecap:round;stroke-linejoin:round;stroke-miterlimit:45.3543;stroke-dasharray:none;enable-background:new" />
      <path
         id="path1273-6-6-2-4-48"
         inkscape:transform-center-x="8.1147597"
         inkscape:transform-center-y="-9.0536316"
         class="st5"
         d="m 1198.3771,255.65491 4.2646,-1.59791 1.055,1.24776 2.2515,-3.64902 0.8337,3.02986 0.549,-0.30579 2.1864,2.56387 1.0508,-3.32194 0.5766,0.4616 0.1791,-3.60777 4.2289,0.13048 -1.6612,-1.98339 0.6679,-0.25429 -2.4566,-2.20086 0.9461,-1.79288 -5.0739,0.59779 0.039,-5.10885 -1.6785,1.13673 -2.4566,-2.20085 -0.1797,0.69173 -2.1533,-1.43409 0.5485,4.17713 -3.5664,0.57305 0.5219,0.52263 -3.1869,1.40817 2.7879,1.8925 -0.2439,0.57919 3.103,0.49697 -3.3806,2.63745 1.3558,0.91208 z"
         style="fill:#ff382f;fill-opacity:0.94012;stroke-width:2.38126;stroke-miterlimit:45.3543;stroke-dasharray:none" />
    </g>
    <g
       id="g55-6-3-1"
       transform="rotate(-23.519446,4420.486,290.0523)">
      <path
         id="path1271-9-9-6-79-9-2"
         sodipodi:nodetypes="cc"
         class="st4"
         d="m 1207.946,244.97401 c 0.8622,-1.20796 2.0388,-2.76687 3.2261,-3.60099"
         style="clip-rule:evenodd;opacity:0.8;fill:#c93d2b;fill-opacity:0.921569;fill-rule:evenodd;stroke:#a4412d;stroke-width:2.38126;stroke-linecap:round;stroke-linejoin:round;stroke-miterlimit:45.3543;stroke-dasharray:none;enable-background:new" />
      <path
         id="path1273-6-6-2-4-0-83"
         inkscape:transform-center-x="8.1147597"
         inkscape:transform-center-y="-9.0536316"
         class="st5"
         d="m 1198.3771,255.65491 4.2646,-1.59791 1.055,1.24776 2.2515,-3.64902 0.8337,3.02986 0.549,-0.30579 2.1864,2.56387 1.0508,-3.32194 0.5766,0.4616 0.1791,-3.60777 4.2289,0.13048 -1.6612,-1.98339 0.6679,-0.25429 -2.4566,-2.20086 0.9461,-1.79288 -5.0739,0.59779 0.039,-5.10885 -1.6785,1.13673 -2.4566,-2.20085 -0.1797,0.69173 -2.1533,-1.43409 0.5485,4.17713 -3.5664,0.57305 0.5219,0.52263 -3.1869,1.40817 2.7879,1.8925 -0.2439,0.57919 3.103,0.49697 -3.3806,2.63745 1.3558,0.91208 z"
         style="fill:#ff382f;fill-opacity:0.94012;stroke-width:2.38126;stroke-miterlimit:45.3543;stroke-dasharray:none" />
    </g>
    <g
       id="g55-6-3-2-9"
       transform="rotate(158.33464,1234.0997,853.23198)">
      <path
         id="path1271-9-9-6-79-9-6-9"
         sodipodi:nodetypes="cc"
         class="st4"
         d="m 1207.946,244.97401 c 0.8622,-1.20796 2.0388,-2.76687 3.2261,-3.60099"
         style="clip-rule:evenodd;opacity:0.8;fill:#c93d2b;fill-opacity:0.921569;fill-rule:evenodd;stroke:#a4412d;stroke-width:2.38126;stroke-linecap:round;stroke-linejoin:round;stroke-miterlimit:45.3543;stroke-dasharray:none;enable-background:new" />
      <path
         id="path1273-6-6-2-4-0-8-9"
         inkscape:transform-center-x="8.1147597"
         inkscape:transform-center-y="-9.0536316"
         class="st5"
         d="m 1198.3771,255.65491 4.2646,-1.59791 1.055,1.24776 2.2515,-3.64902 0.8337,3.02986 0.549,-0.30579 2.1864,2.56387 1.0508,-3.32194 0.5766,0.4616 0.1791,-3.60777 4.2289,0.13048 -1.6612,-1.98339 0.6679,-0.25429 -2.4566,-2.20086 0.9461,-1.79288 -5.0739,0.59779 0.039,-5.10885 -1.6785,1.13673 -2.4566,-2.20085 -0.1797,0.69173 -2.1533,-1.43409 0.5485,4.17713 -3.5664,0.57305 0.5219,0.52263 -3.1869,1.40817 2.7879,1.8925 -0.2439,0.57919 3.103,0.49697 -3.3806,2.63745 1.3558,0.91208 z"
         style="fill:#ff382f;fill-opacity:0.94012;stroke-width:2.38126;stroke-miterlimit:45.3543;stroke-dasharray:none" />
    </g>
    <g
       id="g55-6-3-2-8-6"
       transform="rotate(-168.29981,1425.3743,832.3746)">
      <path
         id="path1271-9-9-6-79-9-6-7-1"
         sodipodi:nodetypes="cc"
         class="st4"
         d="m 1207.946,244.97401 c 0.8622,-1.20796 2.0388,-2.76687 3.2261,-3.60099"
         style="clip-rule:evenodd;opacity:0.8;fill:#c93d2b;fill-opacity:0.921569;fill-rule:evenodd;stroke:#a4412d;stroke-width:2.38126;stroke-linecap:round;stroke-linejoin:round;stroke-miterlimit:45.3543;stroke-dasharray:none;enable-background:new" />
      <path
         id="path1273-6-6-2-4-0-8-1-7"
         inkscape:transform-center-x="8.1147597"
         inkscape:transform-center-y="-9.0536316"
         class="st5"
         d="m 1198.3771,255.65491 4.2646,-1.59791 1.055,1.24776 2.2515,-3.64902 0.8337,3.02986 0.549,-0.30579 2.1864,2.56387 1.0508,-3.32194 0.5766,0.4616 0.1791,-3.60777 4.2289,0.13048 -1.6612,-1.98339 0.6679,-0.25429 -2.4566,-2.20086 0.9461,-1.79288 -5.0739,0.59779 0.039,-5.10885 -1.6785,1.13673 -2.4566,-2.20085 -0.1797,0.69173 -2.1533,-1.43409 0.5485,4.17713 -3.5664,0.57305 0.5219,0.52263 -3.1869,1.40817 2.7879,1.8925 -0.2439,0.57919 3.103,0.49697 -3.3806,2.63745 1.3558,0.91208 z"
         style="fill:#ff382f;fill-opacity:0.94012;stroke-width:2.38126;stroke-miterlimit:45.3543;stroke-dasharray:none" />
    </g>
    <g
       id="g55-6-3-2-8-4-3"
       transform="rotate(104.59261,857.40215,875.16793)">
      <path
         id="path1271-9-9-6-79-9-6-7-9-9"
         sodipodi:nodetypes="cc"
         class="st4"
         d="m 1207.946,244.97401 c 0.8622,-1.20796 2.0388,-2.76687 3.2261,-3.60099"
         style="clip-rule:evenodd;opacity:0.8;fill:#c93d2b;fill-opacity:0.921569;fill-rule:evenodd;stroke:#a4412d;stroke-width:2.38126;stroke-linecap:round;stroke-linejoin:round;stroke-miterlimit:45.3543;stroke-dasharray:none;enable-background:new" />
      <path
         id="path1273-6-6-2-4-0-8-1-5-8"
         inkscape:transform-center-x="8.1147597"
         inkscape:transform-center-y="-9.0536316"
         class="st5"
         d="m 1198.3771,255.65491 4.2646,-1.59791 1.055,1.24776 2.2515,-3.64902 0.8337,3.02986 0.549,-0.30579 2.1864,2.56387 1.0508,-3.32194 0.5766,0.4616 0.1791,-3.60777 4.2289,0.13048 -1.6612,-1.98339 0.6679,-0.25429 -2.4566,-2.20086 0.9461,-1.79288 -5.0739,0.59779 0.039,-5.10885 -1.6785,1.13673 -2.4566,-2.20085 -0.1797,0.69173 -2.1533,-1.43409 0.5485,4.17713 -3.5664,0.57305 0.5219,0.52263 -3.1869,1.40817 2.7879,1.8925 -0.2439,0.57919 3.103,0.49697 -3.3806,2.63745 1.3558,0.91208 z"
         style="fill:#ff382f;fill-opacity:0.94012;stroke-width:2.38126;stroke-miterlimit:45.3543;stroke-dasharray:none" />
    </g>
    <g
       id="g55-6-3-2-8-4-4-4"
       transform="rotate(149.62883,1141.7151,863.3414)">
      <path
         id="path1271-9-9-6-79-9-6-7-9-0-0"
         sodipodi:nodetypes="cc"
         class="st4"
         d="m 1207.946,244.97401 c 0.8622,-1.20796 2.0388,-2.76687 3.2261,-3.60099"
         style="clip-rule:evenodd;opacity:0.8;fill:#c93d2b;fill-opacity:0.921569;fill-rule:evenodd;stroke:#a4412d;stroke-width:2.38126;stroke-linecap:round;stroke-linejoin:round;stroke-miterlimit:45.3543;stroke-dasharray:none;enable-background:new" />
      <path
         id="path1273-6-6-2-4-0-8-1-5-7-6"
         inkscape:transform-center-x="8.1147597"
         inkscape:transform-center-y="-9.0536316"
         class="st5"
         d="m 1198.3771,255.65491 4.2646,-1.59791 1.055,1.24776 2.2515,-3.64902 0.8337,3.02986 0.549,-0.30579 2.1864,2.56387 1.0508,-3.32194 0.5766,0.4616 0.1791,-3.60777 4.2289,0.13048 -1.6612,-1.98339 0.6679,-0.25429 -2.4566,-2.20086 0.9461,-1.79288 -5.0739,0.59779 0.039,-5.10885 -1.6785,1.13673 -2.4566,-2.20085 -0.1797,0.69173 -2.1533,-1.43409 0.5485,4.17713 -3.5664,0.57305 0.5219,0.52263 -3.1869,1.40817 2.7879,1.8925 -0.2439,0.57919 3.103,0.49697 -3.3806,2.63745 1.3558,0.91208 z"
         style="fill:#ff382f;fill-opacity:0.94012;stroke-width:2.38126;stroke-miterlimit:45.3543;stroke-dasharray:none" />
    </g>
    <g
       id="g55-6-3-2-8-4-4-6-3"
       transform="rotate(-11.589402,7436.3169,-117.08506)">
      <path
         id="path1271-9-9-6-79-9-6-7-9-0-4-4"
         sodipodi:nodetypes="cc"
         class="st4"
         d="m 1207.946,244.97401 c 0.8622,-1.20796 2.0388,-2.76687 3.2261,-3.60099"
         style="clip-rule:evenodd;opacity:0.8;fill:#c93d2b;fill-opacity:0.921569;fill-rule:evenodd;stroke:#a4412d;stroke-width:2.38126;stroke-linecap:round;stroke-linejoin:round;stroke-miterlimit:45.3543;stroke-dasharray:none;enable-background:new" />
      <path
         id="path1273-6-6-2-4-0-8-1-5-7-7-6"
         inkscape:transform-center-x="8.1147597"
         inkscape:transform-center-y="-9.0536316"
         class="st5"
         d="m 1198.3771,255.65491 4.2646,-1.59791 1.055,1.24776 2.2515,-3.64902 0.8337,3.02986 0.549,-0.30579 2.1864,2.56387 1.0508,-3.32194 0.5766,0.4616 0.1791,-3.60777 4.2289,0.13048 -1.6612,-1.98339 0.6679,-0.25429 -2.4566,-2.20086 0.9461,-1.79288 -5.0739,0.59779 0.039,-5.10885 -1.6785,1.13673 -2.4566,-2.20085 -0.1797,0.69173 -2.1533,-1.43409 0.5485,4.17713 -3.5664,0.57305 0.5219,0.52263 -3.1869,1.40817 2.7879,1.8925 -0.2439,0.57919 3.103,0.49697 -3.3806,2.63745 1.3558,0.91208 z"
         style="fill:#ff382f;fill-opacity:0.94012;stroke-width:2.38126;stroke-miterlimit:45.3543;stroke-dasharray:none" />
    </g>
    <g
       id="g55-6-3-2-8-4-4-6-6-9"
       transform="rotate(-86.345465,1972.379,715.60159)">
      <path
         id="path1271-9-9-6-79-9-6-7-9-0-4-2-7"
         sodipodi:nodetypes="cc"
         class="st4"
         d="m 1207.946,244.97401 c 0.8622,-1.20796 2.0388,-2.76687 3.2261,-3.60099"
         style="clip-rule:evenodd;opacity:0.8;fill:#c93d2b;fill-opacity:0.921569;fill-rule:evenodd;stroke:#a4412d;stroke-width:2.38126;stroke-linecap:round;stroke-linejoin:round;stroke-miterlimit:45.3543;stroke-dasharray:none;enable-background:new" />
      <path
         id="path1273-6-6-2-4-0-8-1-5-7-7-4-4"
         inkscape:transform-center-x="8.1147597"
         inkscape:transform-center-y="-9.0536316"
         class="st5"
         d="m 1198.3771,255.65491 4.2646,-1.59791 1.055,1.24776 2.2515,-3.64902 0.8337,3.02986 0.549,-0.30579 2.1864,2.56387 1.0508,-3.32194 0.5766,0.4616 0.1791,-3.60777 4.2289,0.13048 -1.6612,-1.98339 0.6679,-0.25429 -2.4566,-2.20086 0.9461,-1.79288 -5.0739,0.59779 0.039,-5.10885 -1.6785,1.13673 -2.4566,-2.20085 -0.1797,0.69173 -2.1533,-1.43409 0.5485,4.17713 -3.5664,0.57305 0.5219,0.52263 -3.1869,1.40817 2.7879,1.8925 -0.2439,0.57919 3.103,0.49697 -3.3806,2.63745 1.3558,0.91208 z"
         style="fill:#ff382f;fill-opacity:0.94012;stroke-width:2.38126;stroke-miterlimit:45.3543;stroke-dasharray:none" />
    </g>
    <g
       id="g55-6-3-2-8-4-4-6-6-5-9"
       transform="rotate(-20.178098,4895.7896,486.61251)">
      <path
         id="path1271-9-9-6-79-9-6-7-9-0-4-2-8-4"
         sodipodi:nodetypes="cc"
         class="st4"
         d="m 1207.946,244.97401 c 0.8622,-1.20796 2.0388,-2.76687 3.2261,-3.60099"
         style="clip-rule:evenodd;opacity:0.8;fill:#c93d2b;fill-opacity:0.921569;fill-rule:evenodd;stroke:#a4412d;stroke-width:2.38126;stroke-linecap:round;stroke-linejoin:round;stroke-miterlimit:45.3543;stroke-dasharray:none;enable-background:new" />
      <path
         id="path1273-6-6-2-4-0-8-1-5-7-7-4-9-1"
         inkscape:transform-center-x="8.1147597"
         inkscape:transform-center-y="-9.0536316"
         class="st5"
         d="m 1198.3771,255.65491 4.2646,-1.59791 1.055,1.24776 2.2515,-3.64902 0.8337,3.02986 0.549,-0.30579 2.1864,2.56387 1.0508,-3.32194 0.5766,0.4616 0.1791,-3.60777 4.2289,0.13048 -1.6612,-1.98339 0.6679,-0.25429 -2.4566,-2.20086 0.9461,-1.79288 -5.0739,0.59779 0.039,-5.10885 -1.6785,1.13673 -2.4566,-2.20085 -0.1797,0.69173 -2.1533,-1.43409 0.5485,4.17713 -3.5664,0.57305 0.5219,0.52263 -3.1869,1.40817 2.7879,1.8925 -0.2439,0.57919 3.103,0.49697 -3.3806,2.63745 1.3558,0.91208 z"
         style="fill:#ff382f;fill-opacity:0.94012;stroke-width:2.38126;stroke-miterlimit:45.3543;stroke-dasharray:none" />
    </g>
    <g
       id="g55-6-0-9"
       transform="rotate(-142.72826,1567.3666,827.31285)">
      <path
         id="path1271-9-9-6-79-4-6"
         sodipodi:nodetypes="cc"
         class="st4"
         d="m 1207.946,244.97401 c 0.8622,-1.20796 2.0388,-2.76687 3.2261,-3.60099"
         style="clip-rule:evenodd;opacity:0.8;fill:#c93d2b;fill-opacity:0.921569;fill-rule:evenodd;stroke:#a4412d;stroke-width:2.38126;stroke-linecap:round;stroke-linejoin:round;stroke-miterlimit:45.3543;stroke-dasharray:none;enable-background:new" />
      <path
         id="path1273-6-6-2-4-4-7"
         inkscape:transform-center-x="8.1147597"
         inkscape:transform-center-y="-9.0536316"
         class="st5"
         d="m 1198.3771,255.65491 4.2646,-1.59791 1.055,1.24776 2.2515,-3.64902 0.8337,3.02986 0.549,-0.30579 2.1864,2.56387 1.0508,-3.32194 0.5766,0.4616 0.1791,-3.60777 4.2289,0.13048 -1.6612,-1.98339 0.6679,-0.25429 -2.4566,-2.20086 0.9461,-1.79288 -5.0739,0.59779 0.039,-5.10885 -1.6785,1.13673 -2.4566,-2.20085 -0.1797,0.69173 -2.1533,-1.43409 0.5485,4.17713 -3.5664,0.57305 0.5219,0.52263 -3.1869,1.40817 2.7879,1.8925 -0.2439,0.57919 3.103,0.49697 -3.3806,2.63745 1.3558,0.91208 z"
         style="fill:#ff382f;fill-opacity:0.94012;stroke-width:2.38126;stroke-miterlimit:45.3543;stroke-dasharray:none" />
    </g>
  </g>
</svg>
