<?xml version="1.0" encoding="UTF-8" standalone="no"?>
<!-- Created with Inkscape (http://www.inkscape.org/) -->

<svg
   width="52.916mm"
   height="52.915981mm"
   viewBox="0 0 52.916 52.915981"
   version="1.1"
   id="svg5"
   xml:space="preserve"
   sodipodi:docname="rock_7.svg"
   inkscape:version="1.3-beta (12614ed929, 2023-05-28)"
   xmlns:inkscape="http://www.inkscape.org/namespaces/inkscape"
   xmlns:sodipodi="http://sodipodi.sourceforge.net/DTD/sodipodi-0.dtd"
   xmlns="http://www.w3.org/2000/svg"
   xmlns:svg="http://www.w3.org/2000/svg"><sodipodi:namedview
     id="namedview1"
     pagecolor="#505050"
     bordercolor="#ffffff"
     borderopacity="1"
     inkscape:showpageshadow="0"
     inkscape:pageopacity="0"
     inkscape:pagecheckerboard="1"
     inkscape:deskcolor="#505050"
     inkscape:document-units="mm"
     inkscape:zoom="2.3599999"
     inkscape:cx="41.737289"
     inkscape:cy="33.474577"
     inkscape:window-width="1440"
     inkscape:window-height="827"
     inkscape:window-x="0"
     inkscape:window-y="0"
     inkscape:window-maximized="1"
     inkscape:current-layer="svg5" /><defs
     id="defs2" /><g
     id="layer1"
     transform="matrix(1.9999743,0,0,1.9999743,-201.55081,-345.15354)"><g
       id="g3377"
       transform="translate(-0.26481154,-0.23943041)"><g
         id="g2724"
         transform="matrix(0.82201903,0,0,0.82067983,4.7366927,33.248982)"
         style="stroke-width:1.21752"><path
           style="fill:#808080;fill-opacity:1;stroke:none;stroke-width:2.57706;stroke-linecap:round;stroke-linejoin:round;stroke-dasharray:none;stroke-opacity:1;paint-order:normal"
           d="m 124.38731,197.74764 -6.26442,-13.73199 5.33734,-8.13863 12.64663,-3.29887 9.12394,2.35964 3.14618,11.16896 -3.77542,10.38242 -7.55085,3.30349 z"
           id="path1666" /><path
           id="path2153"
           style="opacity:1;fill:#666666;fill-opacity:1;stroke:none;stroke-width:2.57706;stroke-linecap:round;stroke-linejoin:round;stroke-dasharray:none;stroke-opacity:1;paint-order:normal"
           d="m 127.0521,192.26079 -6.15095,-0.35664 3.48616,5.84349 12.6634,2.04502 z" /><path
           id="path2570"
           style="opacity:1;fill:#999999;fill-opacity:1;stroke:none;stroke-width:2.57706;stroke-linecap:round;stroke-linejoin:round;stroke-dasharray:none;stroke-opacity:1;paint-order:normal"
           d="m 145.2308,174.93779 -9.12394,-2.35964 -1.4157,6.92173 5.5163,4.93315 8.16952,1.67372 z" /><path
           style="fill:none;fill-opacity:1;stroke:#333333;stroke-width:1.9328;stroke-linecap:round;stroke-linejoin:round;stroke-dasharray:none;stroke-opacity:1;paint-order:normal"
           d="m 124.38731,197.74764 -6.26442,-13.73199 5.33734,-8.13863 12.64663,-3.29887 9.12394,2.35964 3.14618,11.16896 -3.77542,10.38242 -7.55085,3.30349 z"
           id="path2572" /></g><path
         id="rect2804"
         style="fill-opacity:0;stroke-width:2.11667;stroke-linecap:round"
         d="m 101.04151,172.81842 h 26.45834 v 26.45833 h -26.45834 z" /></g></g><path
     style="fill:#505934;fill-opacity:1;stroke:none;stroke-width:2.59997;stroke-linecap:round;stroke-linejoin:round;stroke-miterlimit:10"
     d="m 30.824208,2.7100745 c 0.107839,-0.027566 0.323132,-0.082599 0.493226,-0.074727 0.170098,0.00788 0.294718,0.078181 0.437572,0.1852657 0.142859,0.1070846 0.303989,0.2507851 0.433083,0.4533705 0.129098,0.2025854 0.226457,0.4639057 0.223149,0.7625322 -0.0034,0.2986268 -0.106959,0.6348427 -0.187458,0.9533382 -0.0805,0.3184957 -0.137878,0.6191574 -0.184677,0.8345775 -0.0468,0.2154198 -0.08298,0.3456587 -0.153698,0.4565495 -0.07072,0.1108906 -0.176098,0.2028066 -0.333062,0.374636 -0.156958,0.1718298 -0.365381,0.4234675 -0.58701,0.68575 -0.221628,0.2622826 -0.456457,0.5352065 -0.693635,0.8387928 -0.237179,0.3035863 -0.47666,0.6377654 -0.656684,0.9258039 -0.180018,0.2880383 -0.30055,0.5298272 -0.404605,0.7574899 -0.104058,0.2276623 -0.191637,0.4411443 -0.251235,0.6775083 -0.0596,0.236365 -0.09128,0.49541 -0.119098,0.767911 -0.0278,0.272502 -0.05176,0.558427 -0.06546,0.748981 -0.0138,0.190556 -0.0172,0.2857 -0.09076,0.413612 -0.07358,0.12791 -0.217291,0.28905 -0.340464,0.456332 -0.123178,0.167282 -0.225715,0.340542 -0.275608,0.46467 -0.0499,0.124128 -0.04722,0.198697 -0.02706,0.286282 0.02016,0.08759 0.05762,0.188098 0.07744,0.370626 0.0198,0.182528 0.02222,0.447168 0.02496,0.623566 0.0028,0.176398 0.0058,0.264518 -0.0152,0.343112 -0.02106,0.07859 -0.06614,0.148036 -0.162338,0.205601 -0.0962,0.05756 -0.243925,0.103442 -0.479076,0.172748 -0.235151,0.0693 -0.557729,0.162022 -0.849935,0.250285 -0.292204,0.08826 -0.554005,0.172072 -0.811649,0.27949 -0.257647,0.107418 -0.51101,0.238447 -0.755921,0.420137 -0.24491,0.181689 -0.481163,0.413938 -0.704787,0.618582 -0.223681,0.204644 -0.434702,0.381704 -0.655097,0.582875 -0.220395,0.20117 -0.450102,0.426401 -0.697313,0.635251 -0.247209,0.208849 -0.511998,0.401366 -0.711169,0.527097 -0.199177,0.12573 -0.33286,0.184702 -0.480832,0.220463 -0.147978,0.03576 -0.31044,0.04822 -0.462958,0.05357 -0.152518,0.0053 -0.295136,0.0035 -0.408027,-0.02288 -0.112898,-0.02642 -0.196157,-0.07782 -0.281434,-0.183333 -0.08528,-0.105513 -0.172318,-0.265388 -0.246467,-0.44268 -0.07414,-0.177291 -0.135258,-0.372007 -0.173058,-0.577763 -0.03782,-0.205756 -0.05218,-0.42246 -0.06598,-0.720657 -0.0138,-0.298198 -0.02704,-0.677857 -0.04574,-1.019984 -0.0188,-0.342128 -0.04292,-0.64673 -0.03596,-0.932138 0.007,-0.285408 0.04518,-0.551459 0.145998,-0.870725 0.100839,-0.319265 0.264319,-0.691505 0.461476,-1.071773 0.197158,-0.380269 0.427967,-0.768446 0.551419,-1.023761 0.123459,-0.255315 0.139519,-0.378058 0.124739,-0.513205 -0.0148,-0.135147 -0.06066,-0.282872 -0.217477,-0.501434 -0.156818,-0.218561 -0.424851,-0.507865 -0.594329,-0.695392 -0.169478,-0.187527 -0.240343,-0.273282 -0.28206,-0.4890754 -0.04172,-0.2157939 -0.05382,-0.561548 -0.07664,-1.1173657 -0.02282,-0.5558176 -0.05636,-1.3216652 -0.05932,-1.7933861 -0.003,-0.4717212 0.0248,-0.6491673 0.119518,-0.8528849 0.09472,-0.2037178 0.256393,-0.4333652 0.43024,-0.6092223 0.173858,-0.1758578 0.359652,-0.2977392 0.586695,-0.4074932 0.227045,-0.1097546 0.495152,-0.2073591 0.847803,-0.3146968 0.352652,-0.1073366 0.78977,-0.2244185 1.254398,-0.3322723 0.464626,-0.1078526 0.956688,-0.2064901 1.42491,-0.3076956 0.46822,-0.1012047 0.912588,-0.2049638 1.444151,-0.3389263 0.531563,-0.1339623 1.150307,-0.2981135 1.650871,-0.4445719 0.500565,-0.1464581 0.882973,-0.2752044 1.131495,-0.3517498 0.248525,-0.076545 0.363066,-0.1009108 0.531749,-0.1305484 0.168678,-0.029638 0.391463,-0.064567 0.563499,-0.094341 0.172038,-0.029774 0.293358,-0.054375 0.381187,-0.067589 0.08784,-0.01322 0.142099,-0.0151 0.168938,-0.01604 0.02684,-9.372e-4 0.02692,-9.292e-4 0.134758,-0.028496 z"
     id="path4547" /><path
     style="fill:#596b22;fill-opacity:1;stroke:none;stroke-width:2.59997;stroke-linecap:round;stroke-linejoin:round;stroke-miterlimit:10"
     d="M 23.977748,5.2129259 C 24.4991,5.0724917 25.541424,4.7917283 26.358652,4.5765235 27.175879,4.3613185 27.76798,4.211674 28.275691,4.0751501 c 0.507714,-0.1365242 0.931034,-0.259911 1.278622,-0.3195045 0.347589,-0.059593 0.619244,-0.055507 0.833545,-0.042589 0.214301,0.01292 0.371173,0.034588 0.500948,0.057237 0.129778,0.02265 0.232409,0.046213 0.294296,0.071417 0.06188,0.025206 0.08316,0.051591 0.09304,0.1462382 0.0098,0.094649 0.0088,0.2576011 -0.0022,0.4276557 -0.011,0.1700538 -0.032,0.3472601 -0.111879,0.5875182 -0.07988,0.2402579 -0.218607,0.5437624 -0.415869,0.920565 -0.197257,0.3768025 -0.453054,0.8269416 -0.687599,1.2050451 -0.234543,0.3781035 -0.44785,0.6842146 -0.654389,0.9901091 -0.20654,0.3058944 -0.406287,0.6115293 -0.581617,0.9367443 -0.175318,0.3252151 -0.326202,0.669877 -0.436324,0.9180876 -0.110119,0.2482102 -0.179498,0.3999602 -0.259215,0.6437802 -0.07972,0.243819 -0.169818,0.579564 -0.266458,0.92233 -0.09664,0.342766 -0.199818,0.692543 -0.287111,1.011248 -0.0873,0.318703 -0.158698,0.606287 -0.214459,0.856021 -0.05576,0.249733 -0.09586,0.461544 -0.127718,0.618772 -0.03184,0.157228 -0.0554,0.259858 -0.180618,0.362418 -0.125198,0.102561 -0.352398,0.205523 -0.61968,0.326859 -0.267283,0.121336 -0.574643,0.261036 -0.855143,0.393016 -0.280499,0.131981 -0.534093,0.256227 -0.802722,0.43873 -0.268628,0.182503 -0.552097,0.423185 -0.861869,0.688554 -0.30977,0.265369 -0.645819,0.555404 -0.976131,0.814683 -0.330312,0.259279 -0.654932,0.487823 -0.920942,0.643042 -0.266013,0.155218 -0.473572,0.237131 -0.607935,0.272492 -0.134358,0.03536 -0.195857,0.02393 -0.244204,-0.08955 -0.04836,-0.113484 -0.08306,-0.329481 -0.112699,-0.691626 -0.02966,-0.362146 -0.0542,-0.870374 -0.06854,-1.280557 -0.0144,-0.410182 -0.0184,-0.722273 0.03264,-1.005905 0.05114,-0.283632 0.157617,-0.538493 0.321583,-0.897212 0.163958,-0.35872 0.385387,-0.821236 0.561959,-1.207513 0.176578,-0.386278 0.308286,-0.696323 0.375591,-0.90897 0.0673,-0.212647 0.0701,-0.328123 0.0068,-0.492169 -0.06318,-0.164046 -0.192803,-0.376716 -0.357357,-0.618738 -0.164556,-0.242023 -0.364089,-0.513352 -0.49928,-0.691918 -0.135188,-0.1785649 -0.206053,-0.2643214 -0.245981,-0.4292657 -0.03992,-0.1649439 -0.04846,-0.40901 -0.0521,-0.7075611 -0.0036,-0.2985514 -0.0024,-0.6515649 0.003,-0.9809806 0.0054,-0.3294158 0.0152,-0.6351999 0.04704,-0.8875422 0.03188,-0.2523424 0.08604,-0.4510898 0.178338,-0.627562 0.0923,-0.1764717 0.222689,-0.3303557 0.431909,-0.4667014 0.209221,-0.1363462 0.496947,-0.2549959 0.758562,-0.3455783 0.261614,-0.090583 0.497005,-0.1531081 0.644812,-0.1956095 0.147798,-0.042504 0.208131,-0.064981 0.238126,-0.076159 0.03,-0.01118 0.02984,-0.01114 0.551187,-0.1515741 z"
     id="path4758" /><path
     style="fill:#505934;fill-opacity:1;stroke:none;stroke-width:2.59997;stroke-linecap:round;stroke-linejoin:round;stroke-miterlimit:10"
     d="m 15.568359,8.7032107 c 0.112963,0.01674 0.338291,0.050117 0.557374,0.089781 0.219084,0.039663 0.431892,0.085565 0.644707,0.1335583 0.212815,0.047993 0.425628,0.098069 0.602976,0.152372 0.177347,0.054303 0.319228,0.1127246 0.427617,0.1942635 0.108389,0.081537 0.183502,0.1858597 0.248066,0.3214935 0.06457,0.1356323 0.118809,0.3025393 0.122827,0.444231 0.004,0.141693 -0.04189,0.258543 -0.131523,0.373134 -0.08964,0.11459 -0.223163,0.227256 -0.385799,0.325281 -0.162636,0.09803 -0.354582,0.181482 -0.598621,0.254519 -0.244039,0.07304 -0.540299,0.135628 -0.803206,0.198213 -0.262907,0.06259 -0.492409,0.125177 -0.642679,0.171074 -0.15027,0.0459 -0.221192,0.0751 -0.254691,0.169318 -0.0335,0.09422 -0.0293,0.252776 -0.02721,0.494795 0.0021,0.242019 0.0021,0.56749 -0.01674,0.782277 -0.01884,0.214787 -0.05638,0.319101 -0.15218,0.406523 -0.0958,0.08742 -0.250195,0.158362 -0.446314,0.245993 -0.196117,0.08763 -0.43396,0.191945 -0.684295,0.287923 -0.250335,0.09597 -0.513216,0.1836 -0.694627,0.227467 -0.18141,0.04387 -0.281549,0.04387 -0.394166,0.02103 -0.112617,-0.02283 -0.237796,-0.06873 -0.323488,-0.135293 -0.08569,-0.06656 -0.131598,-0.154204 -0.142228,-0.275313 -0.01062,-0.12111 0.0144,-0.275497 0.06655,-0.43834 0.05214,-0.162842 0.131424,-0.333923 0.191932,-0.484102 0.06051,-0.150178 0.10223,-0.279524 0.123144,-0.456767 0.02092,-0.177244 0.02092,-0.40257 0.01882,-0.669628 -0.0021,-0.267059 -0.0063,-0.575836 -0.0084,-0.945136 -0.0021,-0.369299 -0.0021,-0.7990867 0.01456,-1.0371549 0.01666,-0.2380679 0.05004,-0.2839691 0.139912,-0.3383154 0.08987,-0.054347 0.235921,-0.1169385 0.40284,-0.1857876 0.166917,-0.068851 0.354698,-0.1439622 0.573826,-0.2107175 0.219128,-0.066755 0.469489,-0.1251724 0.671953,-0.1501501 0.202464,-0.024978 0.35686,-0.01664 0.461202,-0.00826 0.104343,0.00838 0.158582,0.01672 0.204457,0.020846 0.04587,0.00412 0.08341,0.00412 0.101924,0.00412 0.0185,0 0.01852,4e-6 0.131479,0.01674 z"
     id="path4052" /><path
     style="fill:#596b22;fill-opacity:1;stroke:none;stroke-width:2.59997;stroke-linecap:round;stroke-linejoin:round;stroke-miterlimit:10"
     d="m 14.579324,9.6899938 c 0.137914,-0.022986 0.413322,-0.068887 0.659587,-0.083435 0.246266,-0.01454 0.463243,0.00214 0.690678,0.029292 0.227435,0.027148 0.465281,0.064703 0.65725,0.1169625 0.19197,0.052259 0.338014,0.1190225 0.412832,0.1921815 0.07482,0.073157 0.07902,0.1524272 0.02282,0.2167752 -0.0562,0.06435 -0.173048,0.114427 -0.289806,0.149912 -0.116759,0.03549 -0.233587,0.05635 -0.358815,0.08763 -0.125229,0.03128 -0.258757,0.07301 -0.400615,0.112657 -0.141858,0.03965 -0.29207,0.0772 -0.43195,0.129356 -0.13988,0.05216 -0.269226,0.118917 -0.411106,0.194028 -0.14188,0.07511 -0.296278,0.158568 -0.394482,0.265183 -0.0982,0.106615 -0.139935,0.235978 -0.171206,0.384178 -0.03127,0.148201 -0.05214,0.315108 -0.0751,0.469486 -0.02296,0.154378 -0.048,0.296251 -0.102257,0.431726 -0.05425,0.135474 -0.137704,0.264822 -0.260638,0.36485 -0.122933,0.100029 -0.285669,0.170964 -0.410682,0.200269 -0.125012,0.02931 -0.21263,0.01678 -0.254678,-0.0039 -0.04205,-0.02069 -0.03785,-0.04987 -0.02532,-0.125 0.01252,-0.07513 0.0334,-0.196142 0.05427,-0.350515 0.02088,-0.154372 0.04174,-0.342141 0.06052,-0.500716 0.01878,-0.158574 0.03546,-0.287932 0.05215,-0.425629 0.01668,-0.137696 0.03337,-0.283744 0.05215,-0.4298 0.01878,-0.146057 0.03964,-0.292096 0.05841,-0.419372 0.01878,-0.127277 0.03546,-0.235772 0.073,-0.348552 0.03754,-0.112781 0.09595,-0.229616 0.160696,-0.321532 0.06474,-0.091917 0.13567,-0.1586694 0.194162,-0.2046086 0.05849,-0.045939 0.104408,-0.070983 0.152536,-0.085559 0.04813,-0.01458 0.09822,-0.01876 0.123018,-0.020818 0.02479,-0.00206 0.02467,-0.00206 0.162589,-0.025049 z"
     id="path4194" /><path
     style="fill:#677c28;fill-opacity:1;stroke:none;stroke-width:2.59997;stroke-linecap:round;stroke-linejoin:round;stroke-miterlimit:10"
     d="m 15.426481,9.5815836 c 0.121309,0.01882 0.363332,0.056379 0.582402,0.087665 0.219071,0.031288 0.415187,0.056323 0.575865,0.093969 0.160678,0.037646 0.285857,0.087717 0.369211,0.1421422 0.08335,0.054425 0.125079,0.1128402 0.128987,0.1689432 0.0039,0.05611 -0.02947,0.110349 -0.123127,0.15613 -0.09366,0.04578 -0.248036,0.08333 -0.435808,0.127149 -0.187772,0.04382 -0.408925,0.09389 -0.613419,0.148126 -0.204493,0.05424 -0.392275,0.112658 -0.546731,0.173163 -0.154456,0.0605 -0.275469,0.123099 -0.373636,0.194094 -0.09817,0.07099 -0.17328,0.150282 -0.227451,0.200303 -0.05417,0.05002 -0.08755,0.07088 -0.1354,0.03785 -0.04785,-0.03303 -0.11044,-0.120666 -0.154311,-0.189497 -0.04387,-0.06883 -0.06891,-0.118903 -0.08159,-0.200329 -0.01268,-0.08143 -0.01268,-0.194089 -2.04e-4,-0.306823 0.01248,-0.112734 0.03751,-0.225392 0.07089,-0.33187 0.03337,-0.1064783 0.0751,-0.2066154 0.118947,-0.281838 0.04385,-0.075223 0.08977,-0.1253144 0.173441,-0.16083 0.08368,-0.035515 0.204689,-0.056379 0.288204,-0.064663 0.08352,-0.00828 0.129455,-0.0041 0.166942,-0.00416 0.03749,-5.88e-5 0.06668,-0.00424 0.08107,-0.00628 0.01438,-0.00206 0.01442,-0.00206 0.135722,0.01678 z"
     id="path4336" /><path
     style="fill:#505934;fill-opacity:1;stroke:none;stroke-width:2.59997;stroke-linecap:round;stroke-linejoin:round;stroke-miterlimit:10"
     d="m 47.240949,26.367318 c 0.300975,0.0209 0.902325,0.06268 1.478631,0.177497 0.576307,0.114839 1.127494,0.302534 1.606752,0.567441 0.479256,0.264909 0.886644,0.606746 1.113936,0.870013 0.227291,0.263264 0.274898,0.447848 0.268838,0.739254 -0.006,0.291405 -0.06558,0.689823 -0.191537,1.227715 -0.125959,0.537889 -0.318354,1.21531 -0.723923,2.422576 -0.405571,1.207267 -1.024287,2.944335 -1.599022,4.465251 -0.574734,1.520916 -1.105451,2.825618 -1.470811,3.683317 -0.365361,0.857701 -0.565356,1.268415 -0.765198,1.498122 -0.199837,0.229705 -0.400031,0.278673 -0.631426,0.33038 -0.231395,0.0517 -0.494011,0.106139 -0.919854,0.002 -0.425842,-0.104098 -1.015077,-0.367119 -1.623357,-0.667775 -0.60828,-0.300654 -1.235558,-0.638984 -1.575316,-0.923742 -0.339757,-0.284759 -0.391463,-0.516158 -0.477744,-0.783846 -0.08628,-0.267689 -0.207247,-0.571673 -0.420342,-0.851927 -0.213096,-0.280257 -0.518636,-0.536635 -0.850339,-0.822188 -0.331702,-0.285552 -0.689532,-0.60027 -0.892459,-0.849875 -0.202927,-0.249603 -0.250533,-0.434182 -0.199677,-0.572681 0.05086,-0.138498 0.200109,-0.230199 0.468634,-0.308712 0.268524,-0.07852 0.656015,-0.143878 1.090356,-0.213337 0.43434,-0.06946 0.915482,-0.143018 1.175087,-0.228507 0.259604,-0.0855 0.298242,-0.183238 0.375517,-0.378759 0.07728,-0.195517 0.193177,-0.488776 0.304006,-0.750152 0.110838,-0.261379 0.216587,-0.490834 0.226091,-0.743103 0.0096,-0.252271 -0.07752,-0.527775 -0.201382,-0.776456 -0.123878,-0.248681 -0.284838,-0.470528 -0.543061,-0.636864 -0.25822,-0.166338 -0.613902,-0.276772 -1.054478,-0.458376 -0.440576,-0.181597 -0.96601,-0.434476 -1.326983,-0.693751 -0.360973,-0.259275 -0.557255,-0.525219 -0.663093,-0.74408 -0.105839,-0.218859 -0.120839,-0.390547 -0.038,-0.523946 0.08284,-0.133398 0.263321,-0.227831 0.495692,-0.358263 0.232373,-0.130438 0.516647,-0.296858 0.701411,-0.43093 0.184757,-0.134079 0.270222,-0.235919 0.343059,-0.391581 0.07284,-0.155658 0.133119,-0.3654 0.254389,-0.509902 0.121258,-0.144498 0.303106,-0.223317 0.520413,-0.257964 0.21731,-0.03464 0.469784,-0.02528 0.788332,-0.06894 0.318546,-0.04366 0.703303,-0.140238 1.100908,-0.269414 0.397607,-0.129178 0.808122,-0.290916 1.169703,-0.471978 0.361583,-0.181058 0.674343,-0.381433 0.964374,-0.571955 0.290032,-0.190517 0.557348,-0.371203 0.790517,-0.493831 0.233167,-0.122639 0.431991,-0.187218 0.531214,-0.219438 0.09922,-0.03222 0.09918,-0.03224 0.400146,-0.0114 z"
     id="path3135" /><path
     style="fill:#596b22;fill-opacity:1;stroke:none;stroke-width:2.59997;stroke-linecap:round;stroke-linejoin:round;stroke-miterlimit:10"
     d="m 47.731723,27.842149 c 0.188278,-0.0086 0.564257,-0.02582 0.906749,0.023 0.342491,0.0488 0.651335,0.163338 0.893954,0.331006 0.242619,0.167678 0.419201,0.388159 0.506658,0.671425 0.08746,0.283267 0.08626,0.629388 0.0308,1.074583 -0.05546,0.445196 -0.165118,0.989555 -0.419872,1.853294 -0.254745,0.863737 -0.65454,2.046886 -1.053373,3.151327 -0.398835,1.104442 -0.79668,2.130139 -1.177947,3.075759 -0.381269,0.945618 -0.74594,1.811131 -0.980699,2.271921 -0.234757,0.460788 -0.339924,0.517173 -0.488012,0.530261 -0.148098,0.013 -0.339514,-0.0174 -0.615788,-0.118919 -0.276276,-0.101558 -0.637424,-0.274428 -1.167667,-0.581898 -0.530243,-0.30747 -1.22952,-0.749603 -1.828079,-1.208367 -0.598558,-0.458764 -1.096281,-0.934258 -1.366384,-1.233036 -0.270103,-0.298778 -0.312242,-0.420922 -0.312764,-0.515509 -5.24e-4,-0.09458 0.04086,-0.161138 0.264077,-0.220053 0.223215,-0.0589 0.627676,-0.110019 0.993129,-0.157718 0.365453,-0.0477 0.691869,-0.09198 0.94836,-0.303086 0.256488,-0.2111 0.443604,-0.589221 0.595408,-1.011373 0.151798,-0.422153 0.268293,-0.888471 0.276992,-1.329497 0.0088,-0.441025 -0.0906,-0.857005 -0.241882,-1.15051 -0.151278,-0.293502 -0.354988,-0.464434 -0.669964,-0.649301 -0.314976,-0.184878 -0.74129,-0.383497 -1.162561,-0.61399 -0.421272,-0.230493 -0.837439,-0.49292 -1.090818,-0.690875 -0.253377,-0.197958 -0.343703,-0.331594 -0.164378,-0.528532 0.179338,-0.196937 0.628478,-0.45643 1.021429,-0.640223 0.392951,-0.183798 0.729517,-0.291881 1.076692,-0.369406 0.347178,-0.07752 0.704817,-0.124538 1.052569,-0.194297 0.347751,-0.06976 0.685689,-0.162238 1.035764,-0.295126 0.350076,-0.132879 0.712395,-0.306134 1.087569,-0.511974 0.375173,-0.205839 0.763254,-0.444262 1.021314,-0.553221 0.258061,-0.108958 0.385661,-0.08868 0.50406,-0.08342 0.118398,0.0052 0.227619,-0.0044 0.281992,-0.0092 0.05438,-0.0048 0.05442,-0.0044 0.242683,-0.013 z"
     id="path3139" /><path
     style="fill:#677c28;fill-opacity:1;stroke:none;stroke-width:2.59997;stroke-linecap:round;stroke-linejoin:round;stroke-miterlimit:10"
     d="m 42.645035,29.412478 c 0.171857,-0.015 0.515049,-0.04504 0.805423,-0.09406 0.290374,-0.04902 0.528065,-0.116959 0.717161,-0.157058 0.189098,-0.0401 0.329528,-0.0524 0.483724,-0.04222 0.154198,0.0102 0.322064,0.04266 0.43895,0.123059 0.116879,0.0804 0.183078,0.208205 0.192098,0.313248 0.009,0.105038 -0.03876,0.187817 -0.105839,0.319454 -0.06708,0.131638 -0.153458,0.312107 -0.226927,0.412716 -0.07346,0.100599 -0.134538,0.121679 -0.310854,0.172478 -0.176318,0.0508 -0.467918,0.131338 -0.691019,0.186238 -0.223101,0.0549 -0.377703,0.08416 -0.473884,0.108238 -0.09618,0.02408 -0.133898,0.04314 -0.125759,0.137118 0.0082,0.09398 0.06214,0.262145 0.116839,0.438115 0.05468,0.175978 0.110059,0.359771 0.114759,0.504543 0.0046,0.144778 -0.04102,0.250941 -0.120179,0.33238 -0.07914,0.08144 -0.192037,0.138458 -0.28314,0.173958 -0.0911,0.0355 -0.160598,0.04944 -0.271759,0.03574 -0.111158,-0.0138 -0.26412,-0.05534 -0.480024,-0.142478 -0.215903,-0.08714 -0.494741,-0.219935 -0.796505,-0.389977 -0.301767,-0.170038 -0.626412,-0.377415 -0.856625,-0.538001 -0.230211,-0.160578 -0.365922,-0.274462 -0.470546,-0.347925 -0.104619,-0.07346 -0.178238,-0.106319 -0.130719,-0.189298 0.04752,-0.08296 0.216668,-0.215651 0.385117,-0.356125 0.168458,-0.140479 0.336252,-0.288773 0.521068,-0.422849 0.184817,-0.134078 0.386539,-0.253897 0.58433,-0.330112 0.197798,-0.07622 0.391447,-0.108878 0.507786,-0.126858 0.116338,-0.018 0.155338,-0.02132 0.193117,-0.03642 0.03778,-0.015 0.07474,-0.04192 0.09314,-0.05528 0.0184,-0.0134 0.0184,-0.0136 0.190278,-0.02864 z"
     id="path4040" /><path
     style="fill:#505934;fill-opacity:1;stroke:none;stroke-width:2.59997;stroke-linecap:round;stroke-linejoin:round;stroke-miterlimit:10"
     d="m 20.336173,41.920704 c 0.09684,-0.03874 0.290222,-0.116099 0.546625,-0.135339 0.256401,-0.0192 0.575489,0.0194 0.807532,0.111519 0.232041,0.0921 0.377077,0.237129 0.473558,0.454732 0.09648,0.217605 0.144818,0.50768 0.144738,0.788008 -8.8e-5,0.28033 -0.04844,0.551067 -0.116119,0.744286 -0.06768,0.193218 -0.154698,0.309255 -0.173837,0.411065 -0.0192,0.101819 0.0292,0.188818 0.08248,0.261287 0.05328,0.07248 0.111298,0.130498 0.09648,0.251215 -0.0148,0.120738 -0.101838,0.304438 -0.26119,0.439644 -0.159358,0.135198 -0.391413,0.222231 -0.623342,0.256151 -0.231929,0.03392 -0.463992,0.0146 -0.604197,1.12e-4 -0.140198,-0.0144 -0.188517,-0.02412 -0.280692,0.04836 -0.09218,0.07248 -0.227557,0.227195 -0.391857,0.367339 -0.164298,0.140139 -0.357691,0.265851 -0.575076,0.338394 -0.217386,0.07254 -0.459121,0.09188 -0.686284,0.06302 -0.227162,-0.02888 -0.439878,-0.106218 -0.599458,-0.188297 -0.159578,-0.08208 -0.265938,-0.169098 -0.391625,-0.260987 -0.125689,-0.0919 -0.27073,-0.188578 -0.391616,-0.241943 -0.120886,-0.05336 -0.217578,-0.06302 -0.275721,-0.0869 -0.05814,-0.02388 -0.07749,-0.06256 -0.125807,-0.0726 -0.04832,-0.01 -0.125672,0.0094 -0.207733,-1.78e-4 -0.08206,-0.0094 -0.16908,-0.04816 -0.251427,-0.139838 -0.08235,-0.0917 -0.159699,-0.236729 -0.232278,-0.405943 -0.07258,-0.169218 -0.140264,-0.362603 -0.150096,-0.546465 -0.0098,-0.183858 0.03851,-0.357911 0.188685,-0.454802 0.150172,-0.0969 0.401571,-0.116239 0.677074,-0.174278 0.275503,-0.05806 0.575251,-0.154738 0.855716,-0.227251 0.280465,-0.07252 0.541535,-0.120858 0.802481,-0.222391 0.260947,-0.101539 0.522022,-0.256249 0.720135,-0.425375 0.198114,-0.169117 0.333484,-0.352839 0.435035,-0.483409 0.101551,-0.130559 0.169226,-0.207912 0.232119,-0.270805 0.0629,-0.0629 0.120919,-0.111238 0.149898,-0.135398 0.02898,-0.02416 0.02898,-0.02418 0.125819,-0.06292 z"
     id="path2080" /><path
     style="fill:#596b22;fill-opacity:1;stroke:none;stroke-width:2.59997;stroke-linecap:round;stroke-linejoin:round;stroke-miterlimit:10"
     d="m 17.145324,44.299411 c 0.212936,-0.03872 0.638392,-0.116078 1.020296,-0.207947 0.381904,-0.09188 0.720331,-0.198238 0.995769,-0.343248 0.275439,-0.145018 0.488161,-0.328724 0.642815,-0.4882 0.154654,-0.159477 0.251351,-0.294856 0.377105,-0.430292 0.125759,-0.135438 0.280473,-0.270814 0.459534,-0.362703 0.179058,-0.0919 0.382113,-0.140239 0.580455,-0.101319 0.198337,0.03892 0.391729,0.164618 0.492961,0.33392 0.101239,0.169298 0.110899,0.382015 0.0915,0.546257 -0.0194,0.164238 -0.06776,0.280266 -0.135398,0.386515 -0.06764,0.106238 -0.154658,0.202941 -0.207869,0.314348 -0.0532,0.111398 -0.07254,0.237107 -0.06272,0.353241 0.0098,0.116139 0.0485,0.222493 0.08236,0.309518 0.03386,0.08702 0.06288,0.154718 0.07238,0.193098 0.0096,0.03838 -8.2e-5,0.04798 -0.144879,0.05282 -0.144798,0.0048 -0.4252,0.0048 -0.637919,3.6e-5 -0.21272,-0.0048 -0.357752,-0.0144 -0.493426,0.05322 -0.135678,0.0677 -0.261369,0.212728 -0.420818,0.343198 -0.159448,0.130478 -0.352842,0.246505 -0.531638,0.328692 -0.178796,0.08218 -0.343168,0.130538 -0.517085,0.09694 -0.173916,-0.0336 -0.357632,-0.149638 -0.507526,-0.251136 -0.149894,-0.101499 -0.265916,-0.188518 -0.401265,-0.270777 -0.135349,-0.08226 -0.290065,-0.159618 -0.420687,-0.193637 -0.130622,-0.03402 -0.236974,-0.02436 -0.343261,-0.04354 -0.106287,-0.0192 -0.21265,-0.06752 -0.270947,-0.130218 -0.0583,-0.0627 -0.06796,-0.140058 -0.06806,-0.188578 -9.1e-5,-0.04854 0.0096,-0.06784 0.03375,-0.106578 0.02419,-0.03874 0.06287,-0.09676 0.08225,-0.125839 0.01938,-0.02908 0.01938,-0.02906 0.232311,-0.06778 z"
     id="path2291" /><path
     style="fill:#505934;fill-opacity:1;stroke:none;stroke-width:2.59997;stroke-linecap:round;stroke-linejoin:round;stroke-miterlimit:10"
     d="m 12.155349,20.417036 c 0.512437,-0.05124 1.53683,-0.153678 2.335856,-0.245889 0.799026,-0.0922 1.372678,-0.174156 1.693738,-0.208208 0.32106,-0.03405 0.389355,-0.02039 0.416358,0.130046 0.027,0.150438 0.01336,0.437267 -3.2e-4,0.635298 -0.01368,0.198037 -0.02732,0.307292 -0.05123,0.471186 -0.0239,0.163898 -0.05805,0.382429 -0.119534,0.638486 -0.06148,0.256054 -0.150262,0.549709 -0.365299,0.826099 -0.215035,0.276391 -0.556491,0.535899 -0.815993,0.727115 -0.259502,0.191217 -0.43706,0.31414 -0.525897,0.399811 -0.08884,0.08568 -0.08884,0.133478 -0.08541,0.222265 0.0034,0.0888 0.01026,0.218557 0.0034,0.33459 -0.0069,0.116038 -0.02737,0.218451 -0.09904,0.330933 -0.07167,0.112479 -0.194592,0.235409 -0.334582,0.368572 -0.13999,0.133158 -0.297061,0.276576 -0.529261,0.488287 -0.2322,0.211712 -0.539515,0.491708 -0.72054,0.669332 -0.181026,0.177617 -0.235658,0.252744 -0.259499,0.328111 -0.02384,0.07536 -0.01702,0.150479 0.03099,0.246103 0.04801,0.09562 0.136784,0.211714 0.259794,0.31746 0.12301,0.105739 0.28009,0.201362 0.443985,0.314086 0.163896,0.112719 0.334613,0.242469 0.529274,0.365341 0.194661,0.122879 0.413191,0.238969 0.669292,0.375558 0.2561,0.136598 0.54976,0.29366 0.836594,0.4439 0.286833,0.150238 0.566835,0.293654 0.822937,0.419987 0.256102,0.126338 0.488298,0.235599 0.652146,0.338151 0.16385,0.102559 0.259468,0.198178 0.313871,0.297232 0.0544,0.09906 0.06805,0.201484 0.05089,0.320856 -0.01716,0.119379 -0.06498,0.255957 -0.181016,0.412875 -0.116041,0.156918 -0.300431,0.33448 -0.532591,0.525673 -0.232159,0.191198 -0.512155,0.396069 -0.781863,0.566787 -0.269709,0.170718 -0.529218,0.3073 -0.70668,0.385847 -0.177462,0.07854 -0.273079,0.09904 -0.474517,0.129778 -0.201438,0.03074 -0.508754,0.07172 -0.976541,0.105899 -0.467788,0.03416 -1.096075,0.06148 -1.673172,0.09904 -0.577097,0.03756 -1.102944,0.08536 -1.478514,0.09906 -0.375571,0.0138 -0.6009315,-0.0068 -0.7239019,-0.02704 C 9.6560667,32.249381 9.6356269,32.228941 9.5979134,32.140222 9.5601999,32.051504 9.5055646,31.894414 9.4508973,31.7066 9.396232,31.518782 9.3416007,31.300249 9.2971753,31.074868 9.2527518,30.849485 9.2186063,30.61729 9.1742408,30.378271 9.1298754,30.139254 9.0752441,29.893401 9.0138349,29.681704 8.9524363,29.470006 8.884143,29.292444 8.8057364,29.15581 8.72733,29.019177 8.6385461,28.923563 8.5020293,28.838058 8.3655124,28.752551 8.1811136,28.677426 7.9591411,28.615887 7.7371685,28.554347 7.4776646,28.506542 7.1976652,28.448507 6.9176658,28.390472 6.6171763,28.322178 6.4498485,28.274541 6.2825204,28.226904 6.248366,28.199576 6.1560592,28.059648 6.0637522,27.91972 5.9135097,27.667041 5.7803299,27.43826 5.64715,27.209479 5.5310525,27.004597 5.4115484,26.799714 5.2920443,26.594831 5.1691169,26.389951 5.1040677,26.222597 5.0390187,26.05524 5.0321927,25.925487 5.0833937,25.802291 5.1345947,25.679092 5.2438597,25.563 5.4146345,25.41272 c 0.1707758,-0.150278 0.4029712,-0.334672 0.6010514,-0.481518 0.1980795,-0.146838 0.3619776,-0.256111 0.5056145,-0.307278 0.1436382,-0.05116 0.266558,-0.04434 0.4440649,-0.05804 0.1775078,-0.0138 0.409703,-0.04786 0.6043429,-0.07516 0.1946395,-0.02732 0.3517176,-0.0478 0.5156227,-0.06828 0.1639059,-0.02048 0.3346397,-0.04096 0.5222213,-0.150219 0.1875816,-0.109238 0.3924616,-0.307296 0.5665515,-0.55986 0.1740898,-0.252567 0.3175052,-0.559883 0.5155708,-0.904823 0.1980655,-0.344937 0.4507455,-0.727372 0.6727265,-1.02791 0.221981,-0.300539 0.413197,-0.51907 0.563434,-0.69662 0.150236,-0.177557 0.259504,-0.314135 0.348392,-0.402998 0.08889,-0.08886 0.15717,-0.129839 0.215321,-0.157158 0.05815,-0.02732 0.105949,-0.04098 0.129679,-0.04776 0.02373,-0.0068 0.02368,-0.0068 0.536122,-0.05804 z"
     id="path308" /><path
     style="fill:#596b22;fill-opacity:1;stroke:none;stroke-width:2.59997;stroke-linecap:round;stroke-linejoin:round;stroke-miterlimit:10"
     d="m 12.110861,21.806774 c 0.14014,-0.05468 0.420146,-0.163958 0.737798,-0.242473 0.317652,-0.07852 0.672765,-0.126318 1.038153,-0.167278 0.365388,-0.04096 0.740991,-0.07512 1.003949,-0.09216 0.262957,-0.017 0.413201,-0.017 0.484601,-0.0102 0.0714,0.007 0.06455,0.02064 -0.08227,0.242535 -0.146814,0.221901 -0.433639,0.652141 -0.829742,1.225806 -0.396102,0.573663 -0.901461,1.290725 -1.314629,1.850716 -0.413168,0.559989 -0.734141,0.962912 -0.91856,1.243052 -0.18442,0.280143 -0.232222,0.437207 -0.238946,0.608072 -0.0067,0.170858 0.02742,0.355264 0.130043,0.553301 0.102616,0.198038 0.273351,0.409747 0.563658,0.679451 0.290306,0.269703 0.700056,0.597505 1.195195,0.976526 0.495139,0.379019 1.075621,0.80926 1.40341,1.058562 0.327788,0.249303 0.402912,0.317596 0.429941,0.361746 0.02703,0.04416 0.0066,0.0646 -0.08555,0.126018 -0.09213,0.06142 -0.256028,0.163858 -0.440357,0.256049 -0.18433,0.09218 -0.389209,0.174138 -0.611114,0.245855 -0.221905,0.07172 -0.46093,0.133178 -0.703317,0.174177 -0.242387,0.041 -0.488239,0.06148 -0.843349,0.07516 -0.355111,0.0136 -0.819496,0.02052 -1.232664,0.02052 -0.413168,8e-6 -0.775118,-0.0068 -0.980015,-0.03728 C 10.6122,30.924559 10.564384,30.869909 10.489198,30.757251 10.414008,30.644593 10.311579,30.473873 10.18179,30.228022 10.052,29.982173 9.8949274,29.661197 9.7549288,29.377779 9.6149302,29.094359 9.4920034,28.848504 9.3179764,28.626481 9.1439494,28.404457 8.9185821,28.206408 8.6898245,28.035618 8.4610668,27.864826 8.22888,27.721416 8.0035173,27.59504 7.7781546,27.468663 7.5596198,27.359395 7.3308075,27.209221 7.1019953,27.059047 6.8629751,26.867829 6.6819775,26.714193 6.5009798,26.560555 6.3780544,26.444459 6.3231103,26.345392 c -0.054943,-0.09906 -0.04129,-0.181018 0.092037,-0.280317 0.1333263,-0.0993 0.3860034,-0.215387 0.6625463,-0.369037 0.2765428,-0.153658 0.5770248,-0.344867 0.8844182,-0.501955 0.3073937,-0.157098 0.62154,-0.280015 0.8913202,-0.379039 0.2697801,-0.09902 0.4951426,-0.174138 0.6998334,-0.33113 0.2046907,-0.156978 0.3890834,-0.396009 0.6486146,-0.706767 0.259532,-0.31076 0.594162,-0.693193 0.877586,-1.010767 0.283425,-0.317572 0.515619,-0.570255 0.635427,-0.696607 0.119809,-0.126359 0.126609,-0.126359 0.150286,-0.140058 0.02368,-0.0136 0.06467,-0.04102 0.0851,-0.05464 0.02043,-0.0136 0.02045,-0.0136 0.160588,-0.0683 z"
     id="path1871" /><path
     style="fill:#677c28;fill-opacity:1;stroke:none;stroke-width:2.59997;stroke-linecap:round;stroke-linejoin:round;stroke-miterlimit:10"
     d="m 7.4019898,25.491203 c 0.1435062,-0.07858 0.4303397,-0.235663 0.6967331,-0.36201 0.2663931,-0.126338 0.5122492,-0.221959 0.7205783,-0.293662 0.2083291,-0.0717 0.3790647,-0.119518 0.5021308,-0.126138 0.1230664,-0.0066 0.1981994,0.02752 0.1978314,0.109398 -3.682e-4,0.08188 -0.075493,0.21165 -0.1915355,0.348146 -0.1160445,0.136498 -0.2731073,0.279902 -0.4574365,0.416453 -0.1843297,0.136558 -0.3960402,0.26631 -0.5599679,0.372175 -0.1639278,0.105859 -0.2800256,0.187817 -0.3551954,0.245899 -0.075169,0.05808 -0.1093186,0.09224 -0.085133,0.143698 0.024186,0.05146 0.1061446,0.119758 0.1640639,0.188117 0.057917,0.06836 0.092069,0.136679 0.091869,0.197878 -2.004e-4,0.06122 -0.034353,0.115858 -0.085391,0.156698 -0.051037,0.04086 -0.1193285,0.06818 -0.1191885,0.112858 1.4e-4,0.0447 0.068433,0.106159 0.1332463,0.181338 0.064813,0.07518 0.1262764,0.163958 0.1226665,0.238763 -0.0036,0.0748 -0.071903,0.136278 -0.1433202,0.156858 -0.071417,0.02058 -0.1465261,1.06e-4 -0.2455662,-0.0544 C 7.6893341,27.468773 7.5664101,27.379995 7.4195852,27.284346 7.2727591,27.188707 7.1020399,27.086268 6.9483498,26.977052 6.7946598,26.867833 6.6580786,26.751741 6.548778,26.649334 6.4394774,26.546935 6.3575224,26.458136 6.316294,26.369352 c -0.041227,-0.0888 -0.041227,-0.177578 0.027132,-0.266661 0.068361,-0.08908 0.2049448,-0.177858 0.3347779,-0.246173 0.1298324,-0.0683 0.2527594,-0.116118 0.3277938,-0.150238 0.075035,-0.03414 0.1023307,-0.0546 0.1365443,-0.07512 0.034213,-0.0205 0.075189,-0.041 0.095569,-0.05118 0.02038,-0.0102 0.020374,-0.0102 0.1638799,-0.0888 z"
     id="path1929" /><path
     style="fill:#677c28;fill-opacity:1;stroke:none;stroke-width:2.59997;stroke-linecap:round;stroke-linejoin:round;stroke-miterlimit:10"
     d="m 23.081034,11.604582 c 0.09882,0.0034 0.295906,0.01004 0.443774,0.06624 0.147858,0.05619 0.246561,0.161342 0.308138,0.278004 0.06158,0.116662 0.08642,0.244755 0.09066,0.465158 0.0042,0.220404 -0.012,0.533212 -0.02708,0.781495 -0.015,0.248283 -0.02904,0.432036 -0.05002,0.60923 -0.02098,0.177194 -0.04896,0.347859 -0.0488,0.439442 1.56e-4,0.09158 0.02776,0.104203 0.118398,0.08046 0.09064,-0.02374 0.244687,-0.08343 0.419601,-0.130242 0.174918,-0.04681 0.370589,-0.0808 0.551415,-0.05636 0.180817,0.02443 0.346607,0.106885 0.499401,0.206846 0.152798,0.09996 0.292643,0.217252 0.380903,0.319451 0.08826,0.102199 0.125239,0.189146 0.113539,0.240099 -0.0118,0.05096 -0.07228,0.06665 -0.192618,0.121755 -0.120338,0.0551 -0.30031,0.149628 -0.476903,0.244041 -0.176598,0.09441 -0.349776,0.188698 -0.51894,0.303238 -0.169158,0.114541 -0.334147,0.249265 -0.534803,0.432781 -0.200653,0.183516 -0.4369,0.415759 -0.710179,0.656073 -0.273278,0.240314 -0.58363,0.488724 -0.898512,0.703341 -0.314882,0.214617 -0.634374,0.395467 -0.868427,0.491925 -0.234055,0.09646 -0.382969,0.108449 -0.462222,0.08097 -0.07926,-0.02748 -0.08842,-0.09503 -0.09164,-0.186596 -0.0032,-0.09157 -4.26e-4,-0.207048 -0.02,-0.287788 -0.0196,-0.08074 -0.06184,-0.126787 -0.08812,-0.288796 -0.02626,-0.16201 -0.03598,-0.439968 -0.0594,-0.819268 -0.02342,-0.3793 -0.06058,-0.859935 -0.05096,-1.165887 0.0096,-0.305952 0.06614,-0.436907 0.166678,-0.667814 0.100538,-0.230908 0.245111,-0.561772 0.418294,-0.947953 0.173178,-0.386181 0.37498,-0.827646 0.523174,-1.151854 0.148198,-0.324209 0.242784,-0.53115 0.333187,-0.666814 0.0904,-0.135664 0.176418,-0.199765 0.260573,-0.22637 0.08416,-0.0266 0.165978,-0.01588 0.227721,0.0025 0.06174,0.01836 0.103359,0.04406 0.123858,0.05671 0.0205,0.01266 0.02044,0.01266 0.119259,0.01602 z"
     id="path4762" /><path
     style="fill:#505934;fill-opacity:1;stroke-width:0.519155;stroke-linecap:round;stroke-linejoin:round;stroke-miterlimit:10"
     d="m 33.123511,29.952626 c 0.182618,0 0.547751,0 0.848403,-0.102019 0.30065,-0.102019 0.536907,-0.306066 0.714089,-0.590623 0.177178,-0.284556 0.295312,-0.649679 0.386595,-0.961113 0.09128,-0.311436 0.155718,-0.569173 0.08596,-0.848369 -0.06976,-0.279197 -0.273799,-0.579889 -0.461712,-0.757129 -0.187918,-0.177237 -0.359738,-0.230937 -0.585283,-0.236337 -0.225547,-0.0054 -0.504763,0.03756 -0.719553,0.0805 -0.214787,0.04296 -0.365141,0.08592 -0.536963,0.128879 -0.171817,0.04296 -0.365127,0.08592 -0.547675,0.102038 -0.182557,0.0162 -0.354379,0.0054 -0.477929,0.03222 -0.123559,0.02684 -0.198738,0.09128 -0.268549,0.230923 -0.06982,0.139658 -0.134258,0.354425 -0.209421,0.62291 -0.07518,0.268483 -0.161078,0.590654 -0.247001,0.896721 -0.08592,0.306066 -0.171818,0.59602 -0.177138,0.783977 -0.0054,0.187958 0.06986,0.273877 0.230969,0.349012 0.161098,0.07514 0.408097,0.139578 0.660466,0.182518 0.252368,0.04294 0.510103,0.06442 0.665815,0.07516 0.155718,0.0108 0.209413,0.0108 0.268473,0.0108 0.05906,0 0.123498,0 0.155658,0 0.03216,0 0.03218,-2e-6 0.214797,-2e-6 z"
     id="path550" /><path
     style="fill:#677c28;fill-opacity:1;stroke-width:0.519155;stroke-linecap:round;stroke-linejoin:round;stroke-miterlimit:10"
     d="m 33.34904,27.171187 c 0.150418,0.02148 0.451104,0.06444 0.703481,0.145018 0.252377,0.08058 0.456418,0.198698 0.553003,0.338328 0.09658,0.139618 0.08584,0.300706 0.0751,0.456426 -0.0108,0.155718 -0.02148,0.306066 -0.08054,0.434887 -0.05906,0.128818 -0.166458,0.236213 -0.2953,0.322113 -0.128839,0.0859 -0.279197,0.150339 -0.450996,0.187938 -0.171798,0.0376 -0.365108,0.04834 -0.579901,0.07518 -0.214793,0.02684 -0.451052,0.0698 -0.698045,0.0913 -0.246993,0.02148 -0.504728,0.02148 -0.628284,-0.06974 -0.123558,-0.09124 -0.112819,-0.273801 -0.0806,-0.46175 0.03222,-0.187958 0.08592,-0.381257 0.177198,-0.574585 0.09128,-0.193337 0.220157,-0.386635 0.370525,-0.542373 0.150378,-0.155738 0.322194,-0.27387 0.429626,-0.332928 0.107439,-0.05906 0.150399,-0.05906 0.198698,-0.06444 0.04832,-0.0054 0.102019,-0.0162 0.128818,-0.02148 0.0268,-0.0054 0.0268,-0.0054 0.177198,0.0162 z"
     id="path601" /><path
     style="fill:#596b22;fill-opacity:1;stroke-width:0.519155;stroke-linecap:round;stroke-linejoin:round;stroke-miterlimit:10"
     d="m 32.484529,27.600802 c 0.05912,0.0645 0.177238,0.193357 0.257789,0.284648 0.08054,0.0913 0.123498,0.144978 0.204037,0.161018 0.08054,0.016 0.198678,-0.0054 0.300714,0.0054 0.102039,0.0108 0.187958,0.05374 0.252359,0.123578 0.0644,0.06984 0.107359,0.166498 0.134198,0.247029 0.02682,0.08054 0.03758,0.144978 0.06982,0.214779 0.03224,0.0698 0.08594,0.144979 0.139659,0.204028 0.0537,0.05904 0.107398,0.101998 0.02684,0.139538 -0.08056,0.03754 -0.295334,0.06976 -0.499381,0.107339 -0.204048,0.03758 -0.397355,0.08054 -0.553067,0.112758 -0.155718,0.03222 -0.273851,0.0537 -0.402697,0.04836 -0.128838,-0.0054 -0.268469,-0.03756 -0.381223,-0.0644 -0.112759,-0.02684 -0.198678,-0.04832 -0.230961,-0.134198 -0.03228,-0.08588 -0.0108,-0.236235 0.02678,-0.375861 0.03758,-0.139618 0.09128,-0.268503 0.155698,-0.408115 0.06444,-0.139618 0.139618,-0.289964 0.187937,-0.386619 0.04832,-0.09666 0.0698,-0.139598 0.107399,-0.187957 0.0376,-0.04836 0.0913,-0.102039 0.118138,-0.128899 0.02684,-0.02684 0.02684,-0.02688 0.08596,0.0376 z"
     id="path605" /><path
     style="fill:#677c28;fill-opacity:1;stroke:none;stroke-width:2.59997;stroke-linecap:round;stroke-linejoin:round;stroke-miterlimit:10"
     d="m 21.18328,42.326638 c 0.07532,0.0279 0.225349,0.08346 0.333578,0.161438 0.108219,0.07798 0.174898,0.177998 0.221999,0.289119 0.0471,0.111138 0.07488,0.233361 0.07476,0.355479 -1.14e-4,0.122119 -0.0279,0.244363 -0.06402,0.347054 -0.03612,0.102698 -0.08058,0.186037 -0.113898,0.244337 -0.03332,0.0583 -0.05556,0.09164 -0.072,0.100198 -0.0164,0.0086 -0.02752,-0.008 -0.07478,-0.08584 -0.04724,-0.07778 -0.130578,-0.216687 -0.188937,-0.316688 -0.05836,-0.1 -0.0917,-0.161118 -0.119339,-0.194697 -0.02764,-0.03356 -0.04988,-0.0391 -0.08334,-0.03644 -0.03346,0.0026 -0.0779,0.0138 -0.111478,0.04172 -0.03358,0.02794 -0.0558,0.0724 -0.122159,0.09452 -0.06636,0.02212 -0.177477,0.02212 -0.291346,0.011 -0.113858,-0.011 -0.230541,-0.03328 -0.322238,-0.072 -0.0917,-0.03872 -0.158378,-0.09428 -0.194717,-0.138678 -0.03634,-0.0444 -0.04186,-0.07772 0.0052,-0.161318 0.04716,-0.0836 0.147158,-0.216951 0.263984,-0.317058 0.116819,-0.100098 0.250173,-0.166778 0.364116,-0.216789 0.113938,-0.05 0.208403,-0.08334 0.275148,-0.102759 0.06674,-0.0194 0.105659,-0.02496 0.124879,-0.02768 0.0192,-0.0028 0.0192,-0.0028 0.0945,0.02502 z"
     id="path2847" /><path
     style="fill:#677c28;fill-opacity:1;stroke:none;stroke-width:2.59997;stroke-linecap:round;stroke-linejoin:round;stroke-miterlimit:10"
     d="m 42.084734,36.79814 c 0.096,-0.02808 0.287562,-0.08414 0.464954,-0.123199 0.177397,-0.03906 0.340511,-0.0612 0.479128,-0.04958 0.138618,0.0116 0.25259,0.05666 0.342837,0.147178 0.09026,0.0905 0.157138,0.226141 0.164658,0.358859 0.0076,0.132719 -0.04398,0.263007 -0.118158,0.403029 -0.07418,0.140018 -0.171098,0.289988 -0.248949,0.387093 -0.07786,0.0971 -0.136838,0.141558 -0.217167,0.164398 -0.08032,0.02284 -0.182378,0.02396 -0.253263,0.02234 -0.07088,-0.0016 -0.110459,-0.006 -0.124819,0.05822 -0.0144,0.0643 -0.0028,0.196857 0.0118,0.317464 0.0146,0.120598 0.03186,0.229051 0.0166,0.324466 -0.0152,0.09542 -0.06306,0.178197 -0.102039,0.224747 -0.039,0.04656 -0.06932,0.05702 -0.144218,0.0088 -0.0749,-0.04814 -0.194337,-0.155578 -0.432518,-0.362672 -0.238177,-0.207091 -0.595097,-0.513809 -0.80962,-0.718992 -0.214521,-0.205184 -0.286468,-0.30891 -0.346781,-0.413657 -0.06032,-0.104759 -0.108859,-0.210531 -0.135919,-0.29466 -0.02706,-0.08412 -0.0324,-0.146578 0.0304,-0.195578 0.0628,-0.049 0.193338,-0.084 0.32389,-0.118998 0.130558,-0.035 0.261086,-0.07 0.405111,-0.08644 0.144018,-0.0164 0.301398,-0.0144 0.40346,-0.0154 0.102059,-10e-4 0.148859,-0.005 0.171998,-0.007 0.02314,-0.002 0.02264,-0.0024 0.118639,-0.03042 z"
     id="path4044" /></svg>
