<?xml version="1.0" encoding="UTF-8" standalone="no"?>
<!-- Created with Inkscape (http://www.inkscape.org/) -->

<svg
   width="52.916mm"
   height="52.915981mm"
   viewBox="0 0 52.916 52.915981"
   version="1.1"
   id="svg5"
   xml:space="preserve"
   xmlns="http://www.w3.org/2000/svg"
   xmlns:svg="http://www.w3.org/2000/svg"><defs
     id="defs2" /><g
     id="layer1"
     transform="matrix(1.9999743,0,0,1.9999743,-201.55081,-345.15354)"><g
       id="g3377"
       transform="translate(-0.26481154,-0.23943041)"><g
         id="g2724"
         transform="matrix(0.82201903,0,0,0.82067983,4.7366927,33.248982)"
         style="stroke-width:1.21752"><path
           style="fill:#808080;fill-opacity:1;stroke:none;stroke-width:2.57706;stroke-linecap:round;stroke-linejoin:round;stroke-dasharray:none;stroke-opacity:1;paint-order:normal"
           d="m 124.38731,197.74764 -6.26442,-13.73199 5.33734,-8.13863 12.64663,-3.29887 9.12394,2.35964 3.14618,11.16896 -3.77542,10.38242 -7.55085,3.30349 z"
           id="path1666" /><path
           id="path2153"
           style="opacity:1;fill:#666666;fill-opacity:1;stroke:none;stroke-width:2.57706;stroke-linecap:round;stroke-linejoin:round;stroke-dasharray:none;stroke-opacity:1;paint-order:normal"
           d="m 127.0521,192.26079 -6.15095,-0.35664 3.48616,5.84349 12.6634,2.04502 z" /><path
           id="path2570"
           style="opacity:1;fill:#999999;fill-opacity:1;stroke:none;stroke-width:2.57706;stroke-linecap:round;stroke-linejoin:round;stroke-dasharray:none;stroke-opacity:1;paint-order:normal"
           d="m 145.2308,174.93779 -9.12394,-2.35964 -1.4157,6.92173 5.5163,4.93315 8.16952,1.67372 z" /><path
           style="fill:none;fill-opacity:1;stroke:#333333;stroke-width:1.9328;stroke-linecap:round;stroke-linejoin:round;stroke-dasharray:none;stroke-opacity:1;paint-order:normal"
           d="m 124.38731,197.74764 -6.26442,-13.73199 5.33734,-8.13863 12.64663,-3.29887 9.12394,2.35964 3.14618,11.16896 -3.77542,10.38242 -7.55085,3.30349 z"
           id="path2572" /></g><path
         id="rect2804"
         style="fill-opacity:0;stroke-width:2.11667;stroke-linecap:round"
         d="m 101.04151,172.81842 h 26.45834 v 26.45833 h -26.45834 z" /></g></g><path
     style="fill:#505934;fill-opacity:1;stroke:none;stroke-width:2.59997;stroke-linecap:round;stroke-linejoin:round;stroke-miterlimit:10"
     d="m 30.824208,2.7100745 c 0.817012,-0.339745 1.60237,0.5488529 1.58703,1.3264414 -0.09351,0.7286511 -0.301638,1.444613 -0.478565,2.1566407 -1.067265,1.3442132 -2.413909,2.5763231 -2.949861,4.2601694 -0.202873,0.655166 -0.107306,1.369023 -0.298956,2.01814 -0.755645,0.617445 -0.612013,1.468925 -0.538973,2.318453 -0.07878,0.775367 -1.175681,0.6149 -1.722171,0.920568 -0.877275,0.215314 -1.601217,0.769864 -2.224225,1.401529 -0.800728,0.641078 -1.468732,1.554236 -2.491998,1.839271 -0.902473,0.330206 -1.451534,-0.559313 -1.48295,-1.353262 -0.05075,-0.941943 -0.150382,-1.889119 -0.100668,-2.832052 0.132997,-1.087455 0.867101,-1.957453 1.250414,-2.95118 0.09906,-0.823365 -0.881328,-1.187546 -1.083336,-1.8974404 C 20.198184,8.7764129 20.131394,7.6241822 20.177104,6.479657 20.355976,5.545376 21.28591,5.0304845 22.138245,4.8223036 23.97991,4.2916392 25.885221,4.01648 27.719725,3.4544952 28.694589,3.1539181 29.666512,2.8277473 30.689443,2.7385693 l 0.134758,-0.028496 z"
     id="path4547" /><path
     style="fill:#596b22;fill-opacity:1;stroke:none;stroke-width:2.59997;stroke-linecap:round;stroke-linejoin:round;stroke-miterlimit:10"
     d="m 23.977748,5.2129259 c 1.811779,-0.4862891 3.624424,-0.9715126 5.442653,-1.4320414 0.583071,-0.066669 1.42894,-0.2155834 1.855741,0.2070643 0.09916,1.0895092 -0.590636,2.0129127 -1.0839,2.9214615 -0.651238,1.064992 -1.442172,2.0530063 -1.881726,3.2352807 -0.390754,0.992485 -0.624465,2.040888 -0.906737,3.06807 -0.121331,0.582658 -0.154097,1.318619 -0.874542,1.457666 -0.912041,0.397904 -1.837695,0.810172 -2.560188,1.515516 -0.800647,0.658102 -1.56826,1.426158 -2.562785,1.779676 -0.534704,-0.08065 -0.287269,-0.972818 -0.396918,-1.403441 -0.04498,-0.863771 -0.133988,-1.780987 0.325698,-2.561409 0.32908,-0.750981 0.739795,-1.472264 0.975906,-2.260026 0.01578,-0.655523 -0.564771,-1.135295 -0.888193,-1.659282 C 20.950033,9.5314016 21.180868,8.7483369 21.125849,8.0881382 21.14764,7.3625089 21.074583,6.4237959 21.784963,5.981848 22.457076,5.5859572 23.238815,5.4365039 23.977748,5.2129259 Z"
     id="path4758" /><path
     style="fill:#505934;fill-opacity:1;stroke:none;stroke-width:2.59997;stroke-linecap:round;stroke-linejoin:round;stroke-miterlimit:10"
     d="m 15.568359,8.7032107 c 0.651257,0.098106 1.302511,0.21968 1.931448,0.4175076 0.42328,0.1111411 0.668638,0.5546889 0.671292,0.9702057 -0.04634,0.388357 -0.427457,0.613124 -0.748693,0.767043 -0.635066,0.273305 -1.343401,0.313455 -1.983443,0.569704 -0.19731,0.184175 -0.0782,0.50143 -0.109917,0.741231 -0.018,0.323744 0.04058,0.67551 -0.108225,0.974946 -0.214459,0.24143 -0.549508,0.31611 -0.829674,0.45702 -0.429233,0.167069 -0.860454,0.374276 -1.324898,0.410539 -0.266307,-0.0081 -0.614025,-0.156018 -0.594418,-0.472484 0.0094,-0.534285 0.414769,-0.97212 0.398012,-1.51234 0.024,-0.861888 -0.04031,-1.72615 0.02232,-2.5868279 0.0275,-0.2922959 0.384123,-0.3198335 0.594947,-0.435219 0.581915,-0.2350551 1.214683,-0.4255091 1.847846,-0.3221976 0.07838,0.00291 0.15615,0.0059 0.233404,0.020872 z"
     id="path4052" /><path
     style="fill:#596b22;fill-opacity:1;stroke:none;stroke-width:2.59997;stroke-linecap:round;stroke-linejoin:round;stroke-miterlimit:10"
     d="m 14.579324,9.6899938 c 0.444656,-0.081624 0.90079,-0.1205008 1.350265,-0.054143 0.347266,0.04955 0.714562,0.083264 1.020652,0.26872 0.20665,0.1055172 0.07025,0.3383212 -0.109923,0.3695792 -0.265257,0.09507 -0.547368,0.131667 -0.814257,0.222878 -0.310525,0.07816 -0.617951,0.175782 -0.895862,0.338325 -0.222164,0.112201 -0.468463,0.255313 -0.531902,0.516062 -0.126898,0.412736 -0.06638,0.889366 -0.33224,1.25318 -0.16612,0.215528 -0.435933,0.357359 -0.708673,0.363246 -0.231777,-8.7e-5 -0.07445,-0.275049 -0.07896,-0.412977 0.09544,-0.693008 0.152207,-1.391739 0.273272,-2.081017 0.07073,-0.301218 0.244741,-0.6143022 0.542037,-0.7379856 0.09352,-0.023952 0.191222,-0.025152 0.285594,-0.045868 z"
     id="path4194" /><path
     style="fill:#677c28;fill-opacity:1;stroke:none;stroke-width:2.59997;stroke-linecap:round;stroke-linejoin:round;stroke-miterlimit:10"
     d="m 15.426481,9.5815836 c 0.398441,0.069651 0.803385,0.1028527 1.198151,0.1923861 0.166185,0.043519 0.353567,0.1013263 0.449328,0.2552243 0.04372,0.134326 -0.107251,0.216823 -0.217469,0.240138 -0.324204,0.101031 -0.66116,0.152712 -0.98695,0.248314 -0.321455,0.08853 -0.65357,0.183987 -0.923149,0.387969 -0.08177,0.06721 -0.153507,0.145893 -0.237648,0.21032 -0.137671,0.02713 -0.186041,-0.14613 -0.259075,-0.229427 -0.107932,-0.202513 -0.06829,-0.443927 -0.02561,-0.658823 0.04338,-0.185594 0.102337,-0.3785785 0.231231,-0.5234254 0.128691,-0.1103949 0.308841,-0.1236526 0.470728,-0.1317225 0.100455,-0.00259 0.201494,-0.014954 0.300458,0.00905 z"
     id="path4336" /><path
     style="fill:#505934;fill-opacity:1;stroke:none;stroke-width:2.59997;stroke-linecap:round;stroke-linejoin:round;stroke-miterlimit:10"
     d="m 47.240949,26.367318 c 1.580855,0.07394 3.331581,0.476326 4.338066,1.800545 0.305003,0.627466 0.004,1.346722 -0.112081,1.990386 -0.758437,2.733827 -1.786764,5.384897 -2.794525,8.034288 -0.526086,1.250337 -0.953608,2.55594 -1.638523,3.730823 -0.479031,0.615737 -1.413812,0.561698 -2.069242,0.287074 -0.997287,-0.427504 -2.028681,-0.857728 -2.870519,-1.555525 -0.478805,-0.588467 -0.486651,-1.476611 -1.164241,-1.940423 -0.520702,-0.521287 -1.221058,-0.914157 -1.557113,-1.590959 0.04978,-0.826499 1.283728,-0.614223 1.884658,-0.819712 0.800731,0.04424 1.340484,-0.445804 1.482559,-1.205175 0.332542,-0.556999 0.356043,-1.262927 -0.03438,-1.799847 -0.483442,-0.752125 -1.478006,-0.791822 -2.19008,-1.231955 -0.605612,-0.316504 -1.367821,-0.775029 -1.378627,-1.536664 0.355639,-0.59625 1.261949,-0.637062 1.584056,-1.288141 0.172019,-0.969282 1.246815,-0.733217 1.946617,-0.907177 1.270099,-0.26068 2.403922,-0.909231 3.460918,-1.634704 0.337729,-0.187031 0.712276,-0.405376 1.112457,-0.332834 z"
     id="path3135" /><path
     style="fill:#596b22;fill-opacity:1;stroke:none;stroke-width:2.59997;stroke-linecap:round;stroke-linejoin:round;stroke-miterlimit:10"
     d="m 47.731723,27.842149 c 0.826862,-0.06705 1.892677,0.06712 2.270432,0.92213 0.261208,0.849176 -0.03131,1.743544 -0.223548,2.577558 -0.835734,2.86942 -1.910514,5.665891 -3.085925,8.411972 -0.217783,0.47513 -0.475939,1.326915 -1.166545,1.015235 -1.140775,-0.407968 -2.152114,-1.109645 -3.131288,-1.810546 -0.607666,-0.480453 -1.228609,-0.97489 -1.680261,-1.610319 -0.173672,-0.607614 0.816055,-0.433683 1.201917,-0.558954 0.576189,-0.01239 1.145907,-0.304939 1.356295,-0.864599 0.445097,-0.957811 0.727142,-2.186516 0.09837,-3.129145 -0.537836,-0.600951 -1.36052,-0.808145 -2.020849,-1.241364 -0.313625,-0.279555 -1.228871,-0.516477 -0.942663,-1.042056 0.836394,-0.726626 1.943207,-1.029893 3.019859,-1.178728 1.155311,-0.175237 2.168222,-0.782908 3.17289,-1.338907 0.347633,-0.207378 0.750661,-0.100275 1.131312,-0.152277 z"
     id="path3139" /><path
     style="fill:#677c28;fill-opacity:1;stroke:none;stroke-width:2.59997;stroke-linecap:round;stroke-linejoin:round;stroke-miterlimit:10"
     d="m 42.645035,29.412478 c 0.171857,-0.015 0.515049,-0.04504 0.805423,-0.09406 0.290374,-0.04902 0.528065,-0.116959 0.717161,-0.157058 0.189098,-0.0401 0.329528,-0.0524 0.483724,-0.04222 0.154198,0.0102 0.322064,0.04266 0.43895,0.123059 0.116879,0.0804 0.183078,0.208205 0.192098,0.313248 0.009,0.105038 -0.03876,0.187817 -0.105839,0.319454 -0.06708,0.131638 -0.153458,0.312107 -0.226927,0.412716 -0.07346,0.100599 -0.134538,0.121679 -0.310854,0.172478 -0.176318,0.0508 -0.467918,0.131338 -0.691019,0.186238 -0.223101,0.0549 -0.377703,0.08416 -0.473884,0.108238 -0.09618,0.02408 -0.133898,0.04314 -0.125759,0.137118 0.0082,0.09398 0.06214,0.262145 0.116839,0.438115 0.05468,0.175978 0.110059,0.359771 0.114759,0.504543 0.0046,0.144778 -0.04102,0.250941 -0.120179,0.33238 -0.07914,0.08144 -0.192037,0.138458 -0.28314,0.173958 -0.0911,0.0355 -0.160598,0.04944 -0.271759,0.03574 -0.111158,-0.0138 -0.26412,-0.05534 -0.480024,-0.142478 -0.215903,-0.08714 -0.494741,-0.219935 -0.796505,-0.389977 -0.301767,-0.170038 -0.626412,-0.377415 -0.856625,-0.538001 -0.230211,-0.160578 -0.365922,-0.274462 -0.470546,-0.347925 -0.104619,-0.07346 -0.178238,-0.106319 -0.130719,-0.189298 0.04752,-0.08296 0.216668,-0.215651 0.385117,-0.356125 0.168458,-0.140479 0.336252,-0.288773 0.521068,-0.422849 0.184817,-0.134078 0.386539,-0.253897 0.58433,-0.330112 0.197798,-0.07622 0.391447,-0.108878 0.507786,-0.126858 0.116338,-0.018 0.155338,-0.02132 0.193117,-0.03642 0.03778,-0.015 0.07474,-0.04192 0.09314,-0.05528 0.0184,-0.0134 0.0184,-0.0136 0.190278,-0.02864 z"
     id="path4040" /><path
     style="fill:#505934;fill-opacity:1;stroke:none;stroke-width:2.59997;stroke-linecap:round;stroke-linejoin:round;stroke-miterlimit:10"
     d="m 20.336173,41.920704 c 0.477482,-0.201381 1.054593,-0.192515 1.512475,0.05549 0.396432,0.256796 0.45828,0.783015 0.459403,1.215867 4.49e-4,0.373057 -0.106985,0.735817 -0.279192,1.063949 -0.09466,0.248705 0.285817,0.399723 0.144125,0.652088 -0.1663,0.462207 -0.708302,0.625133 -1.156666,0.61399 -0.233936,0.0148 -0.52364,-0.12258 -0.686748,0.118748 -0.338267,0.363701 -0.776309,0.690253 -1.294925,0.691534 -0.479935,0.02127 -0.937092,-0.193328 -1.298692,-0.495746 -0.227223,-0.192956 -0.525053,-0.260771 -0.786491,-0.36975 -0.302925,0.074 -0.511318,-0.203752 -0.608805,-0.450619 -0.131221,-0.299493 -0.290977,-0.668829 -0.115022,-0.982321 0.180373,-0.244371 0.525007,-0.21214 0.789355,-0.285664 0.488979,-0.120935 0.973425,-0.260194 1.462163,-0.382257 0.545971,-0.158926 1.027435,-0.509362 1.351204,-0.976169 0.146613,-0.173319 0.28864,-0.384397 0.507816,-0.469136 z"
     id="path2080" /><path
     style="fill:#596b22;fill-opacity:1;stroke:none;stroke-width:2.59997;stroke-linecap:round;stroke-linejoin:round;stroke-miterlimit:10"
     d="m 17.145324,44.299411 c 0.682745,-0.133687 1.387233,-0.237749 2.016065,-0.551195 0.405103,-0.205005 0.713513,-0.546839 0.99666,-0.893093 0.276684,-0.313834 0.701827,-0.598467 1.137223,-0.470843 0.305626,0.08315 0.529642,0.378131 0.518252,0.696225 0.01832,0.277363 -0.104399,0.537795 -0.279712,0.745829 -0.192245,0.244265 -0.155677,0.580737 -0.02742,0.844653 0.175342,0.284442 -0.2827,0.15817 -0.433641,0.187982 -0.271272,0.02031 -0.566509,-0.06567 -0.819794,0.06328 -0.250227,0.171351 -0.446906,0.415039 -0.722379,0.552598 -0.261736,0.15182 -0.590077,0.299659 -0.886415,0.149962 -0.447388,-0.200934 -0.796028,-0.624365 -1.302879,-0.686527 -0.204979,-0.0049 -0.50661,-0.04929 -0.541803,-0.29755 -0.01061,-0.197856 0.149451,-0.348243 0.345845,-0.341325 z"
     id="path2291" /><path
     style="fill:#505934;fill-opacity:1;stroke:none;stroke-width:2.59997;stroke-linecap:round;stroke-linejoin:round;stroke-miterlimit:10"
     d="m 12.155349,20.417036 c 1.41175,-0.129082 2.81823,-0.310026 4.2263,-0.469297 0.501123,0.28689 0.108245,1.184103 0.08982,1.705477 -0.08161,0.705808 -0.547568,1.278901 -1.121799,1.663146 -0.556671,0.257294 -0.792389,0.691845 -0.762955,1.279562 -0.509805,0.72318 -1.315163,1.186117 -1.863474,1.879061 -0.103563,0.632301 0.708146,0.853989 1.097121,1.208005 1.034886,0.657898 2.175523,1.131963 3.233259,1.746446 0.614476,0.448357 -0.02179,1.176161 -0.459362,1.480856 -0.687423,0.535015 -1.443527,1.105328 -2.35145,1.134072 -1.288936,0.112938 -2.582632,0.173089 -3.873728,0.255969 C 9.6342163,32.505793 9.4147616,31.828265 9.332249,31.242247 9.151541,30.481936 9.1537303,29.629316 8.6756743,28.977761 8.0035384,28.419015 7.0446508,28.539276 6.2748209,28.201704 5.8329191,27.60704 5.4932177,26.934051 5.1310545,26.28704 4.8123708,25.612541 5.6866218,25.246963 6.0883906,24.877939 6.533738,24.468268 7.1639907,24.596997 7.7093386,24.47141 c 0.7287089,0.03624 1.359143,-0.412729 1.6521749,-1.065377 0.532783,-1.034891 1.2062845,-2.007302 2.0319015,-2.827676 0.221882,-0.158273 0.506854,-0.119572 0.761934,-0.161321 z"
     id="path308" /><path
     style="fill:#596b22;fill-opacity:1;stroke:none;stroke-width:2.59997;stroke-linecap:round;stroke-linejoin:round;stroke-miterlimit:10"
     d="m 12.110861,21.806774 c 0.97772,-0.404606 2.052243,-0.446251 3.094034,-0.515936 0.490642,-0.03455 -0.181355,0.51993 -0.233191,0.727351 -0.872811,1.308511 -1.80656,2.574618 -2.741543,3.838583 -0.339057,0.40074 -0.297151,1.003965 0.03799,1.392271 0.671577,0.79631 1.563397,1.363812 2.37642,2.003004 0.355478,0.29312 0.778911,0.525975 1.079885,0.872066 -0.381281,0.348241 -0.909717,0.528504 -1.404156,0.674057 -1.008564,0.254038 -2.060761,0.181025 -3.091299,0.186832 -0.536838,0.102405 -0.873685,-0.30172 -1.047212,-0.75698 C 9.774645,29.483256 9.503752,28.607814 8.775356,28.100936 8.0908598,27.566195 7.2454307,27.271897 6.6168449,26.658298 6.2247903,26.45814 6.2340665,26.002877 6.6927142,25.900938 c 0.7444515,-0.391803 1.4490227,-0.870375 2.2598496,-1.122113 0.7538057,-0.189201 1.1272392,-0.915258 1.6224982,-1.439273 0.424224,-0.474502 0.830758,-0.969914 1.290117,-1.409837 0.07261,-0.05859 0.159744,-0.09061 0.245682,-0.122941 z"
     id="path1871" /><path
     style="fill:#677c28;fill-opacity:1;stroke:none;stroke-width:2.59997;stroke-linecap:round;stroke-linejoin:round;stroke-miterlimit:10"
     d="m 7.4019898,25.491203 c 0.5684154,-0.313418 1.1567512,-0.609025 1.7904096,-0.764062 0.1217051,-0.04135 0.3901332,-0.03522 0.3130997,0.161396 -0.1271053,0.285774 -0.3769915,0.493116 -0.6180071,0.682032 -0.3220532,0.244985 -0.689786,0.426065 -0.9987108,0.688317 -0.085072,0.153026 0.181601,0.235505 0.2130062,0.376017 0.092551,0.157851 -0.080148,0.262321 -0.177451,0.349809 0.015968,0.129289 0.1661906,0.197892 0.2172502,0.316861 0.1365513,0.185076 -0.1413839,0.367931 -0.2998922,0.248723 C 7.5984242,27.419101 7.3785385,27.248705 7.1413473,27.106802 6.8576964,26.922724 6.5822907,26.715232 6.3664689,26.453006 c -0.093776,-0.108066 -0.109087,-0.284248 0.00564,-0.383666 0.2354886,-0.23469 0.5730182,-0.305841 0.8472788,-0.479951 0.061914,-0.03071 0.1217935,-0.06549 0.1825981,-0.09819 z"
     id="path1929" /><path
     style="fill:#677c28;fill-opacity:1;stroke:none;stroke-width:2.59997;stroke-linecap:round;stroke-linejoin:round;stroke-miterlimit:10"
     d="m 23.081034,11.604582 c 0.334341,-0.01974 0.730388,0.119125 0.806541,0.484576 0.08312,0.486926 0.0065,0.984607 -0.01686,1.474363 0.01752,0.248917 -0.15966,0.583779 -0.01133,0.771413 0.412069,-0.11004 0.866531,-0.322152 1.287941,-0.121826 0.276947,0.136511 0.554685,0.319678 0.714349,0.590465 0.02756,0.277042 -0.435373,0.282334 -0.617101,0.448934 -0.518376,0.248794 -0.965339,0.615861 -1.370794,1.019153 -0.679407,0.637451 -1.408795,1.256643 -2.277012,1.6182 -0.245611,0.145 -0.562529,0.03816 -0.473912,-0.285882 -0.0431,-0.269309 -0.154314,-0.528235 -0.138256,-0.809481 -0.01884,-0.615597 -0.119122,-1.233189 -0.0537,-1.848255 0.10086,-0.418931 0.322357,-0.797153 0.483285,-1.195014 0.298269,-0.647869 0.572925,-1.30789 0.901192,-1.941164 0.130246,-0.34076 0.494312,-0.320795 0.765605,-0.205445 z"
     id="path4762" /><path
     style="fill:#505934;fill-opacity:1;stroke-width:0.519155;stroke-linecap:round;stroke-linejoin:round;stroke-miterlimit:10"
     d="m 33.123511,29.952626 c 0.451773,0.0046 0.952033,-0.03861 1.295573,-0.367193 0.405528,-0.380481 0.551158,-0.940487 0.70132,-1.456577 0.09397,-0.308234 0.0992,-0.654292 -0.062,-0.941975 -0.168612,-0.313518 -0.412341,-0.649877 -0.786669,-0.715563 -0.562672,-0.0618 -1.109419,0.130632 -1.651842,0.249234 -0.266166,0.07148 -0.54453,0.03809 -0.813065,0.0856 -0.247659,0.07162 -0.298141,0.360211 -0.374476,0.570096 -0.158863,0.551881 -0.311242,1.10584 -0.458516,1.660883 -0.04101,0.191803 -0.111367,0.452579 0.07965,0.587283 0.315504,0.184978 0.689058,0.232498 1.045797,0.282136 0.339909,0.04485 0.682144,0.05007 1.024227,0.04607 z"
     id="path550" /><path
     style="fill:#677c28;fill-opacity:1;stroke-width:0.519155;stroke-linecap:round;stroke-linejoin:round;stroke-miterlimit:10"
     d="m 33.34904,27.171187 c 0.386087,0.05939 0.794863,0.116025 1.12119,0.347629 0.141457,0.09479 0.224118,0.261063 0.21711,0.430744 -0.01213,0.233248 -0.0036,0.487483 -0.140194,0.688882 -0.214251,0.292696 -0.581604,0.423165 -0.931193,0.454979 -0.402451,0.03221 -0.798625,0.120347 -1.202225,0.139239 -0.163957,-9.3e-5 -0.353099,0.01214 -0.487791,-0.09818 -0.120794,-0.12969 -0.07731,-0.321594 -0.05268,-0.478896 0.105454,-0.60473 0.482588,-1.17543 1.040632,-1.448811 0.117172,-0.03223 0.243469,-0.06202 0.365229,-0.04547 0.02332,0.0033 0.04672,0.0067 0.06992,0.0099 z"
     id="path601" /><path
     style="fill:#596b22;fill-opacity:1;stroke-width:0.519155;stroke-linecap:round;stroke-linejoin:round;stroke-miterlimit:10"
     d="m 32.484529,27.600802 c 0.122006,0.129219 0.235854,0.266199 0.359808,0.39338 0.105079,0.09659 0.256515,0.04254 0.383425,0.05602 0.167341,0.004 0.308494,0.126042 0.368589,0.277136 0.06528,0.14079 0.07599,0.305597 0.178054,0.42898 0.02867,0.07205 0.201475,0.155822 0.09554,0.224501 -0.191438,0.06739 -0.396692,0.08169 -0.594139,0.125287 -0.255658,0.04449 -0.506442,0.120338 -0.765626,0.142398 -0.20089,0.0094 -0.406403,-0.01515 -0.598257,-0.06848 -0.104288,-0.02515 -0.136176,-0.164134 -0.124556,-0.260894 0.02515,-0.339996 0.195138,-0.644592 0.339358,-0.946187 0.06533,-0.1303 0.122872,-0.269249 0.232583,-0.36988 0.044,-0.06254 0.08059,-0.07425 0.125221,-0.0023 z"
     id="path605" /><path
     style="fill:#677c28;fill-opacity:1;stroke:none;stroke-width:2.59997;stroke-linecap:round;stroke-linejoin:round;stroke-miterlimit:10"
     d="m 21.18328,42.326638 c 0.19015,0.06899 0.39288,0.15751 0.499172,0.340344 0.132406,0.217046 0.165906,0.489139 0.09237,0.732369 -0.04231,0.147323 -0.10775,0.289612 -0.197623,0.413844 -0.06826,0.0246 -0.09201,-0.107703 -0.135346,-0.152679 -0.08576,-0.138507 -0.163146,-0.282154 -0.25054,-0.419573 -0.04954,-0.0878 -0.176661,-0.04821 -0.22941,0.01482 -0.07579,0.100693 -0.213503,0.09159 -0.326099,0.08708 -0.20337,-0.01484 -0.428568,-0.04841 -0.573271,-0.207239 -0.07306,-0.06521 -0.01302,-0.1587 0.0299,-0.221492 0.126642,-0.194199 0.307594,-0.3512 0.519052,-0.446734 0.156766,-0.0713 0.317603,-0.143138 0.489489,-0.167011 0.02868,0.0036 0.05508,0.01732 0.08231,0.02627 z"
     id="path2847" /><path
     style="fill:#677c28;fill-opacity:1;stroke:none;stroke-width:2.59997;stroke-linecap:round;stroke-linejoin:round;stroke-miterlimit:10"
     d="m 42.084734,36.79814 c 0.096,-0.02808 0.287562,-0.08414 0.464954,-0.123199 0.177397,-0.03906 0.340511,-0.0612 0.479128,-0.04958 0.138618,0.0116 0.25259,0.05666 0.342837,0.147178 0.09026,0.0905 0.157138,0.226141 0.164658,0.358859 0.0076,0.132719 -0.04398,0.263007 -0.118158,0.403029 -0.07418,0.140018 -0.171098,0.289988 -0.248949,0.387093 -0.07786,0.0971 -0.136838,0.141558 -0.217167,0.164398 -0.08032,0.02284 -0.182378,0.02396 -0.253263,0.02234 -0.07088,-0.0016 -0.110459,-0.006 -0.124819,0.05822 -0.0144,0.0643 -0.0028,0.196857 0.0118,0.317464 0.0146,0.120598 0.03186,0.229051 0.0166,0.324466 -0.0152,0.09542 -0.06306,0.178197 -0.102039,0.224747 -0.039,0.04656 -0.06932,0.05702 -0.144218,0.0088 -0.0749,-0.04814 -0.194337,-0.155578 -0.432518,-0.362672 -0.238177,-0.207091 -0.595097,-0.513809 -0.80962,-0.718992 -0.214521,-0.205184 -0.286468,-0.30891 -0.346781,-0.413657 -0.06032,-0.104759 -0.108859,-0.210531 -0.135919,-0.29466 -0.02706,-0.08412 -0.0324,-0.146578 0.0304,-0.195578 0.0628,-0.049 0.193338,-0.084 0.32389,-0.118998 0.130558,-0.035 0.261086,-0.07 0.405111,-0.08644 0.144018,-0.0164 0.301398,-0.0144 0.40346,-0.0154 0.102059,-10e-4 0.148859,-0.005 0.171998,-0.007 0.02314,-0.002 0.02264,-0.0024 0.118639,-0.03042 z"
     id="path4044" /></svg>
