<?xml version="1.0" encoding="UTF-8" standalone="no"?>
<!-- Created with Inkscape (http://www.inkscape.org/) -->

<svg
   width="180"
   height="123.80711"
   viewBox="0 0 47.625 32.757297"
   version="1.1"
   id="svg1"
   inkscape:version="1.3.2 (1:1.3.2+202311252150+091e20ef0f)"
   sodipodi:docname="tear_gas_crate.svg"
   xmlns:inkscape="http://www.inkscape.org/namespaces/inkscape"
   xmlns:sodipodi="http://sodipodi.sourceforge.net/DTD/sodipodi-0.dtd"
   xmlns="http://www.w3.org/2000/svg"
   xmlns:svg="http://www.w3.org/2000/svg">
  <sodipodi:namedview
     id="namedview1"
     pagecolor="#505050"
     bordercolor="#ffffff"
     borderopacity="1"
     inkscape:showpageshadow="0"
     inkscape:pageopacity="0"
     inkscape:pagecheckerboard="1"
     inkscape:deskcolor="#d1d1d1"
     inkscape:document-units="px"
     inkscape:zoom="1.4803312"
     inkscape:cx="123.28322"
     inkscape:cy="-23.305595"
     inkscape:window-width="2560"
     inkscape:window-height="1372"
     inkscape:window-x="0"
     inkscape:window-y="0"
     inkscape:window-maximized="1"
     inkscape:current-layer="layer1" />
  <defs
     id="defs1" />
  <g
     inkscape:label="Layer 1"
     inkscape:groupmode="layer"
     id="layer1"
     transform="translate(-66.4104,-154.51667)">
    <g
       style="fill:none"
       id="g8359"
       transform="matrix(0.12087563,0,0,0.12087563,66.4104,154.51667)">
      <path
         d="M 7,7 H 193.886 388 V 57.2 H 7 Z m 0,50.2 h 381 v 52.2 H 7 Z m 0,52.2 h 381 v 52.2 H 7 Z m 0,52.2 h 381 v 52.2 H 7 Z m 0,52.2 H 388 V 266 H 7 Z"
         fill="#84612e"
         id="path8299" />
      <path
         d="M 388,57.2 V 7 H 193.886 7 v 50.2 m 381,0 H 7 m 381,0 v 52.2 M 7,57.2 v 52.2 m 381,0 H 7 m 381,0 v 52.2 M 7,109.4 v 52.2 m 381,0 H 7 m 381,0 v 52.2 M 7,161.6 v 52.2 m 381,0 H 7 m 381,0 V 266 H 7 v -52.2"
         stroke="#624822"
         stroke-width="9"
         stroke-linecap="round"
         stroke-linejoin="round"
         id="path8301" />
      <path
         d="m 230,217 c 0,20.435 -17.237,37 -38.5,37 -21.263,0 -38.5,-16.565 -38.5,-37 0,-20.435 17.237,-37 38.5,-37 21.263,0 38.5,16.565 38.5,37 z"
         fill="#939393"
         stroke="#353535"
         stroke-width="8"
         id="path8303" />
      <path
         d="M 204,185 H 195.321 179 V 212.64 237 h 25 v -18.148 z"
         fill="#565656"
         stroke="#353535"
         stroke-width="7.5"
         stroke-linecap="square"
         stroke-linejoin="round"
         id="path8305" />
      <path
         d="M 201,173 H 193.709 180 v 5.847 5.153 h 21 v -3.839 z"
         fill="#565656"
         stroke="#353535"
         stroke-width="6"
         stroke-linecap="square"
         stroke-linejoin="round"
         id="path8307" />
      <path
         d="m 205.563,185.581 0.323,24.83"
         stroke="#c6cecd"
         stroke-width="4"
         id="path8309" />
      <path
         d="m 366,217 c 0,20.435 -17.237,37 -38.5,37 -21.263,0 -38.5,-16.565 -38.5,-37 0,-20.435 17.237,-37 38.5,-37 21.263,0 38.5,16.565 38.5,37 z"
         fill="#939393"
         stroke="#353535"
         stroke-width="8"
         id="path8311" />
      <path
         d="M 340,184 H 331.321 315 V 211.64 236 h 25 v -18.148 z"
         fill="#565656"
         stroke="#353535"
         stroke-width="7.5"
         stroke-linecap="square"
         stroke-linejoin="round"
         id="path8313" />
      <path
         d="M 337,173 H 329.709 316 v 5.847 5.153 h 21 v -3.839 z"
         fill="#565656"
         stroke="#353535"
         stroke-width="6"
         stroke-linecap="square"
         stroke-linejoin="round"
         id="path8315" />
      <path
         d="m 341.563,185.581 0.323,24.83"
         stroke="#c6cecd"
         stroke-width="4"
         id="path8317" />
      <path
         d="M 366,61 C 366,81.4345 348.763,98 327.5,98 306.237,98 289,81.4345 289,61 289,40.5655 306.237,24 327.5,24 348.763,24 366,40.5655 366,61 Z"
         fill="#939393"
         stroke="#353535"
         stroke-width="8"
         id="path8319" />
      <path
         d="M 340,28 H 331.321 315 V 55.6396 80 h 25 V 61.8522 Z"
         fill="#565656"
         stroke="#353535"
         stroke-width="7.5"
         stroke-linecap="square"
         stroke-linejoin="round"
         id="path8321" />
      <path
         d="M 337,17 H 329.709 316 V 22.8468 28 h 21 v -3.839 z"
         fill="#565656"
         stroke="#353535"
         stroke-width="6"
         stroke-linecap="square"
         stroke-linejoin="round"
         id="path8323" />
      <path
         d="m 341.563,29.5814 0.323,24.8292"
         stroke="#c6cecd"
         stroke-width="4"
         id="path8325" />
      <path
         d="M 230,61 C 230,81.4345 212.763,98 191.5,98 170.237,98 153,81.4345 153,61 153,40.5655 170.237,24 191.5,24 212.763,24 230,40.5655 230,61 Z"
         fill="#939393"
         stroke="#353535"
         stroke-width="8"
         id="path8327" />
      <path
         d="M 204,28 H 195.321 179 V 55.6396 80 h 25 V 61.8522 Z"
         fill="#565656"
         stroke="#353535"
         stroke-width="7.5"
         stroke-linecap="square"
         stroke-linejoin="round"
         id="path8329" />
      <path
         d="M 201,17 H 193.709 180 V 22.8468 28 h 21 v -3.839 z"
         fill="#565656"
         stroke="#353535"
         stroke-width="6"
         stroke-linecap="square"
         stroke-linejoin="round"
         id="path8331" />
      <path
         d="m 205.563,29.5814 0.323,24.8292"
         stroke="#c6cecd"
         stroke-width="4"
         id="path8333" />
      <path
         d="M 94,217 C 94,237.435 76.763,254 55.5,254 34.237,254 17,237.435 17,217 17,196.565 34.237,180 55.5,180 76.763,180 94,196.565 94,217 Z"
         fill="#939393"
         stroke="#353535"
         stroke-width="8"
         id="path8335" />
      <path
         d="M 68,184 H 59.3206 43 V 211.64 236 h 25 v -18.148 z"
         fill="#565656"
         stroke="#353535"
         stroke-width="7.5"
         stroke-linecap="square"
         stroke-linejoin="round"
         id="path8337" />
      <path
         d="M 65,173 H 57.7093 44 v 5.847 5.153 h 21 v -3.839 z"
         fill="#565656"
         stroke="#353535"
         stroke-width="6"
         stroke-linecap="square"
         stroke-linejoin="round"
         id="path8339" />
      <path
         d="m 69.5627,185.581 0.3228,24.83"
         stroke="#c6cecd"
         stroke-width="4"
         id="path8341" />
      <path
         d="M 94,62 C 94,82.4345 76.763,99 55.5,99 34.237,99 17,82.4345 17,62 17,41.5655 34.237,25 55.5,25 76.763,25 94,41.5655 94,62 Z"
         fill="#939393"
         stroke="#353535"
         stroke-width="8"
         id="path8343" />
      <path
         d="M 68,29 H 59.3206 43 V 56.6396 81 H 68 V 62.8522 Z"
         fill="#565656"
         stroke="#353535"
         stroke-width="7.5"
         stroke-linecap="square"
         stroke-linejoin="round"
         id="path8345" />
      <path
         d="M 65,18 H 57.7093 44 V 23.8468 29 h 21 v -3.839 z"
         fill="#565656"
         stroke="#353535"
         stroke-width="6"
         stroke-linecap="square"
         stroke-linejoin="round"
         id="path8347" />
      <path
         d="m 69.5627,30.5814 0.3228,24.8292"
         stroke="#c6cecd"
         stroke-width="4"
         id="path8349" />
      <path
         d="m 4,121 h 380 v 28 H 4 Z"
         fill="#bd8b42"
         stroke="#3f2e16"
         stroke-width="8"
         id="path8351" />
      <path
         d="m 249,10 h 22 v 248 h -22 z"
         fill="#bd8b42"
         stroke="#3f2e16"
         stroke-width="8"
         id="path8353" />
      <path
         d="m 111,10 h 22 v 248 h -22 z"
         fill="#bd8b42"
         stroke="#3f2e16"
         stroke-width="8"
         id="path8355" />
      <rect
         x="4.5"
         y="4.5"
         width="385"
         height="262"
         stroke="#3f2e16"
         stroke-width="9"
         id="rect8357" />
    </g>
  </g>
</svg>
