<?xml version="1.0" encoding="UTF-8" standalone="no"?>
<svg
   version="1.1"
   width="206"
   height="206"
   viewBox="0 0 206 206"
   xml:space="preserve"
   id="svg218"
   sodipodi:docname="vibrant_bush.svg"
   inkscape:version="1.3 (0e150ed, 2023-07-21)"
   xmlns:inkscape="http://www.inkscape.org/namespaces/inkscape"
   xmlns:sodipodi="http://sodipodi.sourceforge.net/DTD/sodipodi-0.dtd"
   xmlns="http://www.w3.org/2000/svg"
   xmlns:svg="http://www.w3.org/2000/svg"><sodipodi:namedview
   id="namedview220"
   pagecolor="#505050"
   bordercolor="#eeeeee"
   borderopacity="1"
   inkscape:showpageshadow="0"
   inkscape:pageopacity="0"
   inkscape:pagecheckerboard="true"
   inkscape:deskcolor="#505050"
   showgrid="false"
   inkscape:zoom="2"
   inkscape:cx="103"
   inkscape:cy="101.75"
   inkscape:window-width="1440"
   inkscape:window-height="900"
   inkscape:window-x="0"
   inkscape:window-y="0"
   inkscape:window-maximized="0"
   inkscape:current-layer="svg218"
   showguides="true"
   inkscape:pageshadow="0" />&#10;<desc
   id="desc181">Created with Fabric.js 5.3.0</desc>&#10;<defs
   id="defs183" />&#10;&#10;<g
   id="g58"
   transform="matrix(0.89779748,0,0,0.89779746,-1290.4589,-13.788286)"><g
     transform="matrix(0.57362604,0,0,0.57362604,1552.086,130.08311)"
     id="TUpbIBcTeAz7rDdmaMSty-0-5-1"
     style="fill:#495b1e;fill-opacity:1">&#10;<path
   style="opacity:1;fill:#495b1e;fill-opacity:1;fill-rule:nonzero;stroke:#000000;stroke-width:0;stroke-linecap:butt;stroke-linejoin:miter;stroke-miterlimit:4;stroke-dasharray:none;stroke-dashoffset:0"
   vector-effect="non-scaling-stroke"
   d="m 253.44549,0.72556 c 21.65097,5.70355 9.94439,33.72049 33.0529,46.90606 23.1085,13.18558 43.29423,-10.15937 59.38112,5.83624 16.08688,15.99561 -8.36734,34.85531 4.96642,58.14622 13.33376,23.29092 42.36688,12.9313 48.36862,35.01743 6.00174,22.08613 -24.36166,26.57686 -24.36166,53.32708 0,26.75022 30.3634,31.70793 24.36166,53.6738 -6.00174,21.96587 -35.03486,10.94359 -48.36862,34.18968 -13.33376,23.24609 11.12047,42.71364 -4.96642,58.79469 -16.08688,16.08105 -36.27261,-7.63342 -59.38112,5.52951 -23.1085,13.16293 -11.40193,41.38385 -33.0529,47.12222 -21.65097,5.73838 -26.82947,-24.16872 -53.55098,-24.16872 -26.7215,0 -31.52212,29.90709 -53.33504,24.16872 C 124.74655,393.53011 135.85931,365.3092 112.64284,352.14627 89.42637,338.98334 69.61852,362.69781 53.69358,346.61676 37.76864,330.53571 62.16889,311.06816 48.94309,287.82207 35.7173,264.57598 6.79214,276.12193 0.7904,253.63239 c -6.00174,-22.48955 24.14573,-29.01828 24.14573,-55.7685 0,-26.75022 -30.14747,-29.66993 -24.14573,-51.23238 6.00174,-21.56245 34.92689,-11.72652 48.15269,-35.01743 13.2258,-23.29091 -11.61016,-42.15061 4.75049,-58.14622 16.36065,-15.99562 37.47564,7.34933 60.69211,-5.83624 23.21647,-13.18557 10.79657,-41.20251 32.17377,-46.90606 21.3772,-5.70355 26.61353,24.09185 53.33504,24.09185 26.72151,0 31.90001,-29.7954 53.55098,-24.09185 z m -16.03366,60.2364 c -15.15568,-3.99249 -18.78063,16.86429 -37.48568,16.86429 -18.70505,0 -22.37049,-20.85678 -37.33453,-16.86429 -14.96404,3.99249 -6.27011,23.60434 -22.52164,32.83424 -16.25153,9.2299 -31.03202,-7.11156 -42.48448,4.08537 -11.45246,11.19693 5.93271,24.39872 -3.32534,40.70236 -9.25806,16.30364 -29.50567,9.41848 -33.70688,24.5122 -4.20122,15.09372 16.90201,17.13751 16.90201,35.86267 0,18.72515 -21.10323,23.29527 -16.90201,39.03795 4.20122,15.74268 24.44883,7.66051 33.70688,23.93278 9.25806,16.27227 -7.82211,29.89955 3.32534,41.15629 11.14746,11.25674 25.01295,-5.3434 41.26448,3.87066 16.25153,9.21405 8.4726,28.96869 23.74164,32.98555 15.26904,4.01686 18.62948,-16.91811 37.33453,-16.91811 18.70505,0 22.33,20.93497 37.48568,16.91811 15.15568,-4.01686 6.96108,-23.7715 23.13703,-32.98555 16.17595,-9.21405 30.30597,7.38608 41.56679,-3.87066 11.26082,-11.25674 -5.85714,-24.88402 3.47649,-41.15629 9.33363,-16.27227 29.65682,-8.55667 33.85804,-23.93278 4.20122,-15.37611 -17.05316,-18.84651 -17.05316,-37.57166 0,-18.72515 21.25438,-21.86867 17.05316,-37.32895 -4.20122,-15.46029 -24.5244,-8.20856 -33.85804,-24.5122 -9.33363,-16.30364 7.78433,-29.50543 -3.47649,-40.70236 -11.26082,-11.19693 -25.39083,5.14454 -41.56679,-4.08537 -16.17595,-9.2299 -7.98135,-28.84176 -23.13703,-32.83424 z"
   stroke-linecap="round"
   id="path17029-5-5-7"
   transform="translate(-200,-200)" />&#10;</g><path
     style="fill:#435617;fill-opacity:1;fill-rule:nonzero;stroke:#000000;stroke-width:0;stroke-linecap:butt;stroke-linejoin:miter;stroke-miterlimit:4;stroke-dasharray:none;stroke-dashoffset:0"
     vector-effect="non-scaling-stroke"
     d="m 1599.6346,28.198572 c -11.0794,-5.10971 -16.6782,10.39043 -31.0187,7.86189 -14.3406,-2.52854 -14.331,-19.0144 -26.3433,-17.97637 -12.0121,1.03802 -7.9981,17.24916 -21.705,22.12851 -13.7075,4.87933 -22.8301,-9.64733 -33.1239,-2.61116 -10.2938,7.03618 1.2501,19.50757 -8.0518,30.75553 -9.3017,11.24797 -23.8941,3.23219 -29.1555,14.23602 -5.2611,11.00385 10.6415,15.42367 8.1103,29.779608 -2.5314,14.35595 -19.3283,15.00668 -18.2355,27.64419 1.0927,12.63722 17.7083,9.17802 22.6062,22.90496 4.8984,13.72696 -10.0388,21.8654 -3.0138,32.00252 7.0244,10.13713 19.8987,-0.71527 31.1128,8.54596 11.2137,9.26093 2.5793,23.35469 13.7426,28.49836 11.1631,5.14367 16.5696,-10.45224 30.9102,-7.92369 14.3404,2.52885 14.2896,19.06885 26.4521,18.03816 12.1621,-1.03099 8.5502,-17.28373 22.1973,-22.16123 13.6471,-4.8772 22.2362,9.75959 32.3911,2.65183 10.1551,-7.10807 -1.1265,-19.86949 8.2289,-31.08318 9.3554,-11.21371 23.8934,-2.55119 29.1931,-13.77131 5.2994,-11.22044 -10.5262,-16.75447 -7.9949,-31.11043 2.5312,-14.35594 19.2512,-13.89275 18.1201,-26.31337 -1.1307,-12.42091 -17.6922,-9.60846 -22.6439,-23.369668 -4.9519,-13.76121 9.9565,-21.56865 2.8368,-31.67517 -7.1197,-10.10653 -20.1616,0.51182 -31.3153,-8.75125 -11.154,-9.26307 -2.2201,-23.191 -13.2999,-28.30071 z"
     stroke-linecap="round"
     id="path17032-2-8-5" /><g
     transform="matrix(0.48501357,0.17653049,-0.17671494,0.48552032,1552.1112,130.08281)"
     id="DoV-uyDlkuLqFojr_yBQV-2-1-5"
     style="fill:#455617;fill-opacity:1">&#10;<path
   style="opacity:1;fill:#455617;fill-opacity:1;fill-rule:nonzero;stroke:#000000;stroke-width:0;stroke-linecap:butt;stroke-linejoin:miter;stroke-miterlimit:4;stroke-dasharray:none;stroke-dashoffset:0"
   vector-effect="non-scaling-stroke"
   transform="translate(9.1975e-6,1.45125e-5)"
   d="m 53.4582,-199.11381 c -21.65612,-5.69896 -26.83585,24.07243 -53.56371,24.07243 -26.72786,0 -31.96544,-29.77138 -53.34773,-24.07243 -21.38229,5.69896 -8.95943,33.6933 -32.18143,46.86825 -23.22199,13.17495 -44.34201,-10.15119 -60.70655,5.83153 -16.36454,15.98272 8.47732,34.82721 -4.75162,58.09935 -13.22894,23.27214 -42.16098,13.44413 -48.16415,34.9892 -6.00317,21.54507 24.15148,24.46243 24.15148,51.19108 0,26.72866 -30.15464,33.25213 -24.15148,55.72354 6.00317,22.47142 34.93521,10.93477 48.16415,34.16212 13.22894,23.22736 -11.17711,42.67921 4.75162,58.7473 15.92873,16.06809 35.74129,-7.62727 58.96328,5.52505 23.22199,13.15232 12.10659,41.35049 33.92469,47.08423 21.81811,5.73375 26.61987,-24.14924 53.34773,-24.14924 26.72786,0 31.9076,29.88299 53.56371,24.14924 21.65612,-5.73375 9.94676,-33.93191 33.06076,-47.08423 23.114,-13.15232 43.30454,10.54304 59.39525,-5.52505 16.09071,-16.06809 -8.36933,-35.51994 4.9676,-58.7473 13.33693,-23.22736 42.37696,-12.21396 48.38013,-34.16212 6.00317,-21.94816 -24.36746,-26.90188 -24.36746,-53.63053 0,-26.72866 30.37063,-31.21577 24.36746,-53.28409 -6.00317,-22.06832 -35.0432,-11.71706 -48.38013,-34.9892 -13.33693,-23.27214 11.12311,-42.11663 -4.9676,-58.09935 -16.09071,-15.98272 -36.28125,7.34341 -59.39525,-5.83153 -23.114,-13.17495 -11.40464,-41.1693 -33.06076,-46.86825 z"
   stroke-linecap="round"
   id="path17035-7-4-4" />&#10;</g><g
     transform="matrix(0.48746619,0,0,0.4879755,1552.086,130.08311)"
     id="McesWKx5qywez6Zdlah17-3-7-1"
     style="fill:#4c6d02;fill-opacity:1">&#10;<path
   style="opacity:1;fill:#4c6d02;fill-opacity:1;fill-rule:nonzero;stroke:#000000;stroke-width:0;stroke-linecap:butt;stroke-linejoin:miter;stroke-miterlimit:4;stroke-dasharray:none;stroke-dashoffset:0"
   vector-effect="non-scaling-stroke"
   transform="translate(9.1975e-6,1.45125e-5)"
   d="m 53.4582,-199.11381 c -21.65612,-5.69896 -26.83585,24.07243 -53.56371,24.07243 -26.72786,0 -31.96544,-29.77138 -53.34773,-24.07243 -21.38229,5.69896 -8.95943,33.6933 -32.18143,46.86825 -23.22199,13.17495 -44.34201,-10.15119 -60.70655,5.83153 -16.36454,15.98272 8.47732,34.82721 -4.75162,58.09935 -13.22894,23.27214 -42.16098,13.44413 -48.16415,34.9892 -6.00317,21.54507 24.15148,24.46243 24.15148,51.19108 0,26.72866 -30.15464,33.25213 -24.15148,55.72354 6.00317,22.47142 34.93521,10.93477 48.16415,34.16212 13.22894,23.22736 -11.17711,42.67921 4.75162,58.7473 15.92873,16.06809 35.74129,-7.62727 58.96328,5.52505 23.22199,13.15232 12.10659,41.35049 33.92469,47.08423 21.81811,5.73375 26.61987,-24.14924 53.34773,-24.14924 26.72786,0 31.9076,29.88299 53.56371,24.14924 21.65612,-5.73375 9.94676,-33.93191 33.06076,-47.08423 23.114,-13.15232 43.30454,10.54304 59.39525,-5.52505 16.09071,-16.06809 -8.36933,-35.51994 4.9676,-58.7473 13.33693,-23.22736 42.37696,-12.21396 48.38013,-34.16212 6.00317,-21.94816 -24.36746,-26.90188 -24.36746,-53.63053 0,-26.72866 30.37063,-31.21577 24.36746,-53.28409 -6.00317,-22.06832 -35.0432,-11.71706 -48.38013,-34.9892 -13.33693,-23.27214 11.12311,-42.11663 -4.9676,-58.09935 -16.09071,-15.98272 -36.28125,7.34341 -59.39525,-5.83153 -23.114,-13.17495 -11.40464,-41.1693 -33.06076,-46.86825 z"
   stroke-linecap="round"
   id="path17038-7-1-8" />&#10;</g><g
     transform="matrix(0.45182161,0.07966833,-0.07975158,0.4522937,1552.0937,130.08465)"
     id="S177hH-ZuUor6YhRJ3Dzy-9-3-8"
     style="fill:#4f6d02;fill-opacity:1">&#10;<path
   style="opacity:1;fill:#4f6d02;fill-opacity:1;fill-rule:nonzero;stroke:#000000;stroke-width:0;stroke-linecap:butt;stroke-linejoin:miter;stroke-miterlimit:4;stroke-dasharray:none;stroke-dashoffset:0"
   vector-effect="non-scaling-stroke"
   transform="translate(9.1975e-6,1.45125e-5)"
   d="m 53.4582,-199.11381 c -21.65612,-5.69896 -26.83585,24.07243 -53.56371,24.07243 -26.72786,0 -31.96544,-29.77138 -53.34773,-24.07243 -21.38229,5.69896 -8.95943,33.6933 -32.18143,46.86825 -23.22199,13.17495 -44.34201,-10.15119 -60.70655,5.83153 -16.36454,15.98272 8.47732,34.82721 -4.75162,58.09935 -13.22894,23.27214 -42.16098,13.44413 -48.16415,34.9892 -6.00317,21.54507 24.15148,24.46243 24.15148,51.19108 0,26.72866 -30.15464,33.25213 -24.15148,55.72354 6.00317,22.47142 34.93521,10.93477 48.16415,34.16212 13.22894,23.22736 -11.17711,42.67921 4.75162,58.7473 15.92873,16.06809 35.74129,-7.62727 58.96328,5.52505 23.22199,13.15232 12.10659,41.35049 33.92469,47.08423 21.81811,5.73375 26.61987,-24.14924 53.34773,-24.14924 26.72786,0 31.9076,29.88299 53.56371,24.14924 21.65612,-5.73375 9.94676,-33.93191 33.06076,-47.08423 23.114,-13.15232 43.30454,10.54304 59.39525,-5.52505 16.09071,-16.06809 -8.36933,-35.51994 4.9676,-58.7473 13.33693,-23.22736 42.37696,-12.21396 48.38013,-34.16212 6.00317,-21.94816 -24.36746,-26.90188 -24.36746,-53.63053 0,-26.72866 30.37063,-31.21577 24.36746,-53.28409 -6.00317,-22.06832 -35.0432,-11.71706 -48.38013,-34.9892 -13.33693,-23.27214 11.12311,-42.11663 -4.9676,-58.09935 -16.09071,-15.98272 -36.28125,7.34341 -59.39525,-5.83153 -23.114,-13.17495 -11.40464,-41.1693 -33.06076,-46.86825 z"
   stroke-linecap="round"
   id="path17041-0-8-3" />&#10;</g><g
     transform="matrix(0.40417798,0.14710873,-0.14726244,0.40460026,1552.1068,130.08281)"
     id="Ry_hy_izT_Tv2GBtfh1VD-2-4-5"
     style="fill:#5d781f;fill-opacity:1">&#10;<path
   style="opacity:1;fill:#5d781f;fill-opacity:1;fill-rule:nonzero;stroke:#000000;stroke-width:0;stroke-linecap:butt;stroke-linejoin:miter;stroke-miterlimit:4;stroke-dasharray:none;stroke-dashoffset:0"
   vector-effect="non-scaling-stroke"
   transform="translate(9.1975e-6,1.45125e-5)"
   d="m 53.4582,-199.11381 c -21.65612,-5.69896 -26.83585,24.07243 -53.56371,24.07243 -26.72786,0 -31.96544,-29.77138 -53.34773,-24.07243 -21.38229,5.69896 -8.95943,33.6933 -32.18143,46.86825 -23.22199,13.17495 -44.34201,-10.15119 -60.70655,5.83153 -16.36454,15.98272 8.47732,34.82721 -4.75162,58.09935 -13.22894,23.27214 -42.16098,13.44413 -48.16415,34.9892 -6.00317,21.54507 24.15148,24.46243 24.15148,51.19108 0,26.72866 -30.15464,33.25213 -24.15148,55.72354 6.00317,22.47142 34.93521,10.93477 48.16415,34.16212 13.22894,23.22736 -11.17711,42.67921 4.75162,58.7473 15.92873,16.06809 35.74129,-7.62727 58.96328,5.52505 23.22199,13.15232 12.10659,41.35049 33.92469,47.08423 21.81811,5.73375 26.61987,-24.14924 53.34773,-24.14924 26.72786,0 31.9076,29.88299 53.56371,24.14924 21.65612,-5.73375 9.94676,-33.93191 33.06076,-47.08423 23.114,-13.15232 43.30454,10.54304 59.39525,-5.52505 16.09071,-16.06809 -8.36933,-35.51994 4.9676,-58.7473 13.33693,-23.22736 42.37696,-12.21396 48.38013,-34.16212 6.00317,-21.94816 -24.36746,-26.90188 -24.36746,-53.63053 0,-26.72866 30.37063,-31.21577 24.36746,-53.28409 -6.00317,-22.06832 -35.0432,-11.71706 -48.38013,-34.9892 -13.33693,-23.27214 11.12311,-42.11663 -4.9676,-58.09935 -16.09071,-15.98272 -36.28125,7.34341 -59.39525,-5.83153 -23.114,-13.17495 -11.40464,-41.1693 -33.06076,-46.86825 z"
   stroke-linecap="round"
   id="path17044-3-8-2" />&#10;</g><g
     transform="matrix(0.34971788,0.06166469,-0.06172913,0.35008325,1552.0921,130.08432)"
     id="IJitezga8s3hNOGtiVHin-9-0-2"
     style="fill:#698c03;fill-opacity:1">&#10;<path
   style="opacity:1;fill:#698c03;fill-opacity:1;fill-rule:nonzero;stroke:#000000;stroke-width:0;stroke-linecap:butt;stroke-linejoin:miter;stroke-miterlimit:4;stroke-dasharray:none;stroke-dashoffset:0"
   vector-effect="non-scaling-stroke"
   transform="translate(9.1975e-6,1.45125e-5)"
   d="m 53.4582,-199.11381 c -21.65612,-5.69896 -26.83585,24.07243 -53.56371,24.07243 -26.72786,0 -31.96544,-29.77138 -53.34773,-24.07243 -21.38229,5.69896 -8.95943,33.6933 -32.18143,46.86825 -23.22199,13.17495 -44.34201,-10.15119 -60.70655,5.83153 -16.36454,15.98272 8.47732,34.82721 -4.75162,58.09935 -13.22894,23.27214 -42.16098,13.44413 -48.16415,34.9892 -6.00317,21.54507 24.15148,24.46243 24.15148,51.19108 0,26.72866 -30.15464,33.25213 -24.15148,55.72354 6.00317,22.47142 34.93521,10.93477 48.16415,34.16212 13.22894,23.22736 -11.17711,42.67921 4.75162,58.7473 15.92873,16.06809 35.74129,-7.62727 58.96328,5.52505 23.22199,13.15232 12.10659,41.35049 33.92469,47.08423 21.81811,5.73375 26.61987,-24.14924 53.34773,-24.14924 26.72786,0 31.9076,29.88299 53.56371,24.14924 21.65612,-5.73375 9.94676,-33.93191 33.06076,-47.08423 23.114,-13.15232 43.30454,10.54304 59.39525,-5.52505 16.09071,-16.06809 -8.36933,-35.51994 4.9676,-58.7473 13.33693,-23.22736 42.37696,-12.21396 48.38013,-34.16212 6.00317,-21.94816 -24.36746,-26.90188 -24.36746,-53.63053 0,-26.72866 30.37063,-31.21577 24.36746,-53.28409 -6.00317,-22.06832 -35.0432,-11.71706 -48.38013,-34.9892 -13.33693,-23.27214 11.12311,-42.11663 -4.9676,-58.09935 -16.09071,-15.98272 -36.28125,7.34341 -59.39525,-5.83153 -23.114,-13.17495 -11.40464,-41.1693 -33.06076,-46.86825 z"
   stroke-linecap="round"
   id="path17050-9-4-6" />&#10;</g><g
     transform="matrix(0.25757358,0.09374912,-0.09384708,0.25784271,1552.0994,130.08303)"
     id="1kFcPA1HgaNGKUZejsU0X-7-6-6"
     style="fill:#759b03;fill-opacity:1">&#10;<path
   style="opacity:1;fill:#759b03;fill-opacity:1;fill-rule:nonzero;stroke:#000000;stroke-width:0;stroke-linecap:butt;stroke-linejoin:miter;stroke-miterlimit:4;stroke-dasharray:none;stroke-dashoffset:0"
   vector-effect="non-scaling-stroke"
   transform="translate(9.1975e-6,1.45125e-5)"
   d="m 53.4582,-199.11381 c -21.65612,-5.69896 -26.83585,24.07243 -53.56371,24.07243 -26.72786,0 -31.96544,-29.77138 -53.34773,-24.07243 -21.38229,5.69896 -8.95943,33.6933 -32.18143,46.86825 -23.22199,13.17495 -44.34201,-10.15119 -60.70655,5.83153 -16.36454,15.98272 8.47732,34.82721 -4.75162,58.09935 -13.22894,23.27214 -42.16098,13.44413 -48.16415,34.9892 -6.00317,21.54507 24.15148,24.46243 24.15148,51.19108 0,26.72866 -30.15464,33.25213 -24.15148,55.72354 6.00317,22.47142 34.93521,10.93477 48.16415,34.16212 13.22894,23.22736 -11.17711,42.67921 4.75162,58.7473 15.92873,16.06809 35.74129,-7.62727 58.96328,5.52505 23.22199,13.15232 12.10659,41.35049 33.92469,47.08423 21.81811,5.73375 26.61987,-24.14924 53.34773,-24.14924 26.72786,0 31.9076,29.88299 53.56371,24.14924 21.65612,-5.73375 9.94676,-33.93191 33.06076,-47.08423 23.114,-13.15232 43.30454,10.54304 59.39525,-5.52505 16.09071,-16.06809 -8.36933,-35.51994 4.9676,-58.7473 13.33693,-23.22736 42.37696,-12.21396 48.38013,-34.16212 6.00317,-21.94816 -24.36746,-26.90188 -24.36746,-53.63053 0,-26.72866 30.37063,-31.21577 24.36746,-53.28409 -6.00317,-22.06832 -35.0432,-11.71706 -48.38013,-34.9892 -13.33693,-23.27214 11.12311,-42.11663 -4.9676,-58.09935 -16.09071,-15.98272 -36.28125,7.34341 -59.39525,-5.83153 -23.114,-13.17495 -11.40464,-41.1693 -33.06076,-46.86825 z"
   stroke-linecap="round"
   id="path17053-0-0-7" />&#10;</g><g
     transform="matrix(0.19685207,0,0,0.19705777,1552.086,130.08317)"
     id="eX7Qo5fc4ojT76FNSfMPg-3-3-8"
     style="fill:#7fae2e;fill-opacity:1">&#10;<path
   style="opacity:1;fill:#7fae2e;fill-opacity:1;fill-rule:nonzero;stroke:#000000;stroke-width:0;stroke-linecap:butt;stroke-linejoin:miter;stroke-miterlimit:4;stroke-dasharray:none;stroke-dashoffset:0"
   vector-effect="non-scaling-stroke"
   transform="translate(9.1975e-6,1.45125e-5)"
   d="m 53.4582,-199.11381 c -21.65612,-5.69896 -26.83585,24.07243 -53.56371,24.07243 -26.72786,0 -31.96544,-29.77138 -53.34773,-24.07243 -21.38229,5.69896 -8.95943,33.6933 -32.18143,46.86825 -23.22199,13.17495 -44.34201,-10.15119 -60.70655,5.83153 -16.36454,15.98272 8.47732,34.82721 -4.75162,58.09935 -13.22894,23.27214 -42.16098,13.44413 -48.16415,34.9892 -6.00317,21.54507 24.15148,24.46243 24.15148,51.19108 0,26.72866 -30.15464,33.25213 -24.15148,55.72354 6.00317,22.47142 34.93521,10.93477 48.16415,34.16212 13.22894,23.22736 -11.17711,42.67921 4.75162,58.7473 15.92873,16.06809 35.74129,-7.62727 58.96328,5.52505 23.22199,13.15232 12.10659,41.35049 33.92469,47.08423 21.81811,5.73375 26.61987,-24.14924 53.34773,-24.14924 26.72786,0 31.9076,29.88299 53.56371,24.14924 21.65612,-5.73375 9.94676,-33.93191 33.06076,-47.08423 23.114,-13.15232 43.30454,10.54304 59.39525,-5.52505 16.09071,-16.06809 -8.36933,-35.51994 4.9676,-58.7473 13.33693,-23.22736 42.37696,-12.21396 48.38013,-34.16212 6.00317,-21.94816 -24.36746,-26.90188 -24.36746,-53.63053 0,-26.72866 30.37063,-31.21577 24.36746,-53.28409 -6.00317,-22.06832 -35.0432,-11.71706 -48.38013,-34.9892 -13.33693,-23.27214 11.12311,-42.11663 -4.9676,-58.09935 -16.09071,-15.98272 -36.28125,7.34341 -59.39525,-5.83153 -23.114,-13.17495 -11.40464,-41.1693 -33.06076,-46.86825 z"
   stroke-linecap="round"
   id="path17056-9-2-4" />&#10;</g></g></svg>
