<?xml version="1.0" encoding="UTF-8"?>
<svg width="36.828mm" height="46.722mm" version="1.1" viewBox="0 0 36.828 46.722" xmlns="http://www.w3.org/2000/svg">
 <g transform="translate(-80.516 -93.601)">
  <g>
   <path transform="matrix(2.2274 0 0 2.2274 -65.158 91.251)" d="m81.51 16.781c0 1.6891-0.38607 2.9197-1.1582 3.6918-0.75606 0.75605-1.9786 1.1341-3.6677 1.1341h-6.0324c-1.6891 0-2.9197-0.37803-3.6918-1.1341-0.75606-0.77214-1.1341-2.0027-1.1341-3.6918v-7.7214c0-1.6891 0.37803-2.9116 1.1341-3.6677 0.77214-0.77214 2.0027-1.1582 3.6918-1.1582h6.0324c1.6891 0 2.9116 0.38607 3.6677 1.1582 0.77214 0.75605 1.1582 1.9786 1.1582 3.6677z" fill="#ff7300" stroke="#401d00" stroke-width=".85003"/>
   <path d="m105.7 128.63c0 3.7622-0.33339 6.5032-1.0002 8.2231-0.65289 1.684-1.7086 2.526-3.1672 2.526h-5.2092c-1.4586 0-2.5213-0.84202-3.188-2.526-0.65289-1.7199-0.97933-4.4609-0.97933-8.2231v-17.199c0-3.7622 0.32644-6.4853 0.97933-8.1694 0.66678-1.7199 1.7294-2.5798 3.188-2.5798h5.2092c1.4586 0 2.5143 0.85993 3.1672 2.5798 0.66677 1.684 1.0002 4.4072 1.0002 8.1694z" fill="none" stroke="#d45d00" stroke-width="1.8934"/>
   <path d="m116.4 128.63c0 3.7622-0.85993 6.5032-2.5798 8.2231-1.684 1.684-4.4071 2.526-8.1693 2.526h-13.436c-3.7622 0-6.5032-0.84201-8.2231-2.526-1.684-1.7199-2.526-4.4609-2.526-8.2231v-17.199c0-3.7622 0.84201-6.4853 2.526-8.1693 1.7199-1.7199 4.4609-2.5798 8.2231-2.5798h13.436c3.7622 0 6.4853 0.85993 8.1693 2.5798 1.7199 1.684 2.5798 4.4072 2.5798 8.1693z" fill="none" stroke="#401d00" stroke-width="1.8934"/>
  </g>
  <g>
   <path d="m101.53 100.58c-0.67191-1.1953 0.91787-2.3153 0.66856-3.5449-0.47501-2.3426-4.57-3.0981-6.3237-1.9344-0.0504 0.0335 0.12081 7e-3 0.18114 0.0117 0.35415 0.0268 0.7504 0.15263 1.0791 0.27975 1.1072 0.42814 1.6041 1.4565 1.2991 2.6304-0.29197 1.1239-2.4264 1.9083-2.1136 2.6544z" fill="#512606" stroke="#401d00" stroke-linecap="round" stroke-width="1.8934" style="paint-order:markers fill stroke"/>
   <ellipse cx="90.008" cy="117.5" rx="2.429" ry="2.4229" fill="#994500" style="paint-order:markers stroke fill"/>
   <ellipse transform="rotate(-90)" cx="-110.65" cy="106.83" rx="2.4229" ry="2.429" fill="#994500" style="paint-order:markers stroke fill"/>
  </g>
  <g stroke="#994500">
   <path d="m87.052 114.61c1.4345-1.8835 4.4637-1.7985 5.9984 0" fill="none" stroke-linecap="round" stroke-linejoin="round" stroke-width="1.9731" style="paint-order:markers fill stroke"/>
   <path d="m99.721 125.51c-2.7314 1.4885-6.6921 0.43856-9.7687-0.6838" fill="none" stroke-linecap="round" stroke-linejoin="round" stroke-width="1.9731" style="paint-order:markers fill stroke"/>
   <g transform="matrix(.065006 0 0 .064842 71.75 82.201)" fill="#ff7300" stroke-miterlimit="10" stroke-width="16.301">
    <path class="st0" d="m559.5 773.5s-2 1-17 7-48 20-105 10-47-153-32-175 0-64 0-64-8-18 7-19 28 26 28 26 12 27 15 55 14 31 42 28 113-27 136-5-108 33-108 33-19 5 2 7c11.9 1.1 63.5-2.9 68 12 7 23-8.6 22.5-13 26-1.6 1.3-1.9 4.2-1 6 3.8 7.2 8.5 20.5-5 27-1.2 0.6-2.5 2.8-2 4 2.2 5.4 12.1 17.2-15 22z"/>
    <path class="st1" d="m581.1 716.3s-47.2 5.8-55.9 0" stroke-linecap="round"/>
    <path class="st1" d="m574.6 748.7s-28.1 3.8-36.1-0.2" stroke-linecap="round"/>
   </g>
   <path d="m104.13 113.62c-1.8882-1.4309-1.803-4.4524 0-5.9832" fill="none" stroke-linecap="round" stroke-linejoin="round" stroke-width="1.9731" style="paint-order:markers fill stroke"/>
  </g>
 </g>
</svg>
