<svg xmlns="http://www.w3.org/2000/svg" width="512" height="512" viewBox="-26 -28 512 512"><defs><clipPath id="b"><circle cy="-15" r="9.5"/><circle cy="-15" r="9.5" transform="rotate(120)"/><circle cy="-15" r="9.5" transform="rotate(-120)"/></clipPath><mask id="a" width="60" height="60" x="-30" y="-30" maskUnits="userSpaceOnUse"><path fill="#fff" d="M-27-27h54v54h-54Z"/><path d="M2-23v-4h-4v4M-.5-6v4h1v-4"/><circle cy="-15" r="10.5"/><g transform="rotate(120)"><path d="M2-23v-4h-4v4M-.5-6v4h1v-4"/><circle cy="-15" r="10.5"/></g><g transform="rotate(-120)"><path d="M2-23v-4h-4v4M-.5-6v4h1v-4"/><circle cy="-15" r="10.5"/></g><circle r="3"/></mask></defs><g transform="translate(.006 .006)scale(.99997)"><circle cx="230" cy="228" r="240.7" stroke="#9dd5fb" stroke-linejoin="round" stroke-width="30.614"/><circle cx="230" cy="228" r="233.1" stroke="#f2f2f2" stroke-linejoin="round" stroke-width="24.491"/><g fill="#f2f2f2" mask="url(#a)" transform="translate(230 227.04)scale(7.6555)"><circle cy="-11" r="15"/><circle cy="-11" r="15" transform="rotate(120)"/><circle cy="-11" r="15" transform="rotate(-120)"/></g><circle r="11.75" stroke="#9dd5fb" stroke-width="3.5" clip-path="url(#b)" transform="translate(230 227.04)scale(7.6555)"/></g></svg>