<?xml version="1.0" encoding="UTF-8" standalone="no"?>
<svg
   xml:space="preserve"
   width="760.60498"
   height="288.28238"
   viewBox="0 0 201.24385 76.275149"
   version="1.1"
   id="svg11"
   sodipodi:docname="suroi.svg"
   inkscape:version="1.4.2 (1:1.4.2+202505120737+ebf0e940d0)"
   inkscape:export-filename="suroi.png"
   inkscape:export-xdpi="96"
   inkscape:export-ydpi="96"
   xmlns:inkscape="http://www.inkscape.org/namespaces/inkscape"
   xmlns:sodipodi="http://sodipodi.sourceforge.net/DTD/sodipodi-0.dtd"
   xmlns:xlink="http://www.w3.org/1999/xlink"
   xmlns="http://www.w3.org/2000/svg"
   xmlns:svg="http://www.w3.org/2000/svg"><sodipodi:namedview
     id="namedview11"
     pagecolor="#505050"
     bordercolor="#ffffff"
     borderopacity="1"
     inkscape:showpageshadow="0"
     inkscape:pageopacity="0"
     inkscape:pagecheckerboard="1"
     inkscape:deskcolor="#505050"
     inkscape:zoom="0.70710678"
     inkscape:cx="171.11984"
     inkscape:cy="-65.76093"
     inkscape:window-width="2560"
     inkscape:window-height="1368"
     inkscape:window-x="0"
     inkscape:window-y="0"
     inkscape:window-maximized="1"
     inkscape:current-layer="svg11" /><defs
     id="defs9"><linearGradient
       id="c"><stop
         offset=".35"
         style="stop-color:#006cc4;stop-opacity:1"
         id="stop1" /><stop
         offset=".603"
         style="stop-color:#008cff;stop-opacity:1"
         id="stop2" /></linearGradient><linearGradient
       id="b"><stop
         offset=".35"
         style="stop-color:#c05700;stop-opacity:1"
         id="stop3" /><stop
         offset=".598"
         style="stop-color:#ff7300;stop-opacity:1"
         id="stop4" /></linearGradient><linearGradient
       id="a"><stop
         offset=".346"
         style="stop-color:#d5d5d5;stop-opacity:1"
         id="stop5" /><stop
         offset=".6"
         style="stop-color:#fff;stop-opacity:1"
         id="stop6" /></linearGradient><linearGradient
       xlink:href="#a"
       id="d"
       x1="69.578003"
       x2="69.578003"
       y1="24.436001"
       y2="2.8510001"
       gradientUnits="userSpaceOnUse"
       gradientTransform="matrix(2.22739,0,0,2.22739,-18.872307,-5.758)" /><linearGradient
       xlink:href="#b"
       id="f"
       x1="94.710999"
       x2="94.710999"
       y1="24.472"
       y2="2.5869999"
       gradientUnits="userSpaceOnUse"
       gradientTransform="matrix(2.22739,0,0,2.22739,-18.872307,-5.758)" /><linearGradient
       xlink:href="#c"
       id="h"
       x1="91.754997"
       x2="91.754997"
       y1="34.622002"
       y2="26.597"
       gradientUnits="userSpaceOnUse"
       gradientTransform="translate(0.49999915)" /><filter
       id="e"
       width="1.1707549"
       height="1.2597477"
       x="-0.062353663"
       y="-0.09485174"
       style="color-interpolation-filters:sRGB"><feFlood
         flood-color="#000"
         flood-opacity=".498"
         result="flood"
         id="feFlood6" /><feComposite
         in="flood"
         in2="SourceGraphic"
         operator="in"
         result="composite1"
         id="feComposite6" /><feGaussianBlur
         in="composite1"
         result="blur"
         stdDeviation=".5"
         id="feGaussianBlur6" /><feOffset
         dx="1.2"
         dy="1.2"
         result="offset"
         id="feOffset6" /><feComposite
         in="SourceGraphic"
         in2="offset"
         result="composite2"
         id="feComposite7" /></filter><filter
       id="g"
       width="1.047009"
       height="1.5249344"
       x="-0.016453167"
       y="-0.18372703"
       style="color-interpolation-filters:sRGB"><feFlood
         flood-color="#000"
         flood-opacity=".498"
         result="flood"
         id="feFlood7" /><feComposite
         in="flood"
         in2="SourceGraphic"
         operator="in"
         result="composite1"
         id="feComposite8" /><feGaussianBlur
         in="composite1"
         result="blur"
         stdDeviation=".5"
         id="feGaussianBlur8" /><feOffset
         dx="1.2"
         dy="1.2"
         result="offset"
         id="feOffset8" /><feComposite
         in="SourceGraphic"
         in2="offset"
         result="composite2"
         id="feComposite9" /></filter><filter
       style="color-interpolation-filters:sRGB"
       inkscape:label="Drop Shadow"
       id="filter29"
       x="-0.030555882"
       y="-0.34120736"
       width="1.0611118"
       height="1.6824147"><feFlood
         result="flood"
         in="SourceGraphic"
         flood-opacity="1.000000"
         flood-color="rgb(0,0,0)"
         id="feFlood28" /><feGaussianBlur
         result="blur"
         in="SourceGraphic"
         stdDeviation="1.000000"
         id="feGaussianBlur28" /><feOffset
         result="offset"
         in="blur"
         dx="0.000000"
         dy="0.000000"
         id="feOffset28" /><feComposite
         result="comp1"
         operator="in"
         in="flood"
         in2="offset"
         id="feComposite28" /><feComposite
         result="comp2"
         operator="over"
         in="SourceGraphic"
         in2="comp1"
         id="feComposite29" /></filter><filter
       style="color-interpolation-filters:sRGB"
       inkscape:label="Drop Shadow"
       id="filter32"
       x="-0.026190581"
       y="-0.11748463"
       width="1.0523803"
       height="1.234973"><feFlood
         result="flood"
         in="SourceGraphic"
         flood-opacity="1.000000"
         flood-color="rgb(0,0,0)"
         id="feFlood31" /><feGaussianBlur
         result="blur"
         in="SourceGraphic"
         stdDeviation="1.500000"
         id="feGaussianBlur31" /><feOffset
         result="offset"
         in="blur"
         dx="0.000000"
         dy="0.000000"
         id="feOffset31" /><feComposite
         result="comp1"
         operator="in"
         in="flood"
         in2="offset"
         id="feComposite31" /><feComposite
         result="comp2"
         operator="over"
         in="SourceGraphic"
         in2="comp1"
         id="feComposite32" /></filter><filter
       style="color-interpolation-filters:sRGB"
       inkscape:label="Drop Shadow"
       id="filter55"
       x="-0.015130561"
       y="-0.067870542"
       width="1.0360207"
       height="1.1615854"><feFlood
         result="flood"
         in="SourceGraphic"
         flood-opacity="0.745098"
         flood-color="rgb(0,0,0)"
         id="feFlood54" /><feGaussianBlur
         result="blur"
         in="SourceGraphic"
         stdDeviation="0.700000"
         id="feGaussianBlur54" /><feOffset
         result="offset"
         in="blur"
         dx="1.000000"
         dy="1.000000"
         id="feOffset54" /><feComposite
         result="comp1"
         operator="in"
         in="flood"
         in2="offset"
         id="feComposite54" /><feComposite
         result="comp2"
         operator="over"
         in="SourceGraphic"
         in2="comp1"
         id="feComposite55" /></filter><filter
       style="color-interpolation-filters:sRGB"
       inkscape:label="Drop Shadow"
       id="filter57"
       x="-0.022094253"
       y="-0.24671916"
       width="1.0559408"
       height="1.6246719"><feFlood
         result="flood"
         in="SourceGraphic"
         flood-opacity="0.745098"
         flood-color="rgb(0,0,0)"
         id="feFlood55" /><feGaussianBlur
         result="blur"
         in="SourceGraphic"
         stdDeviation="0.700000"
         id="feGaussianBlur55" /><feOffset
         result="offset"
         in="blur"
         dx="1.000000"
         dy="1.000000"
         id="feOffset55" /><feComposite
         result="comp1"
         operator="in"
         in="flood"
         in2="offset"
         id="feComposite56" /><feComposite
         result="comp2"
         operator="over"
         in="SourceGraphic"
         in2="comp1"
         id="feComposite57" /></filter></defs><g
     id="g12"
     transform="translate(1.0690626,-1.0440425)"
     style="filter:url(#filter55)"><path
       d="m 12.678672,34.03655 q 14.723048,0.806315 19.939596,0.806315 1.236201,0 1.935602,-0.697173 0.75063,-0.752858 0.75063,-1.989059 V 27.318742 H 22.942486 q -5.641979,0 -8.221297,-2.525861 -2.52586,-2.579317 -2.52586,-8.223524 v -1.610403 q 0,-5.6442059 2.52586,-8.1700661 2.579318,-2.5793176 8.223524,-2.5793176 H 41.808479 V 11.733694 H 25.094144 q -3.22526,0 -3.22526,3.22526 v 1.073602 q 0,3.225261 3.22526,3.225261 h 9.673555 q 5.267777,0 7.74018,2.472403 2.472403,2.472403 2.472403,7.737953 v 2.68846 q 0,5.267777 -2.472403,7.74018 -2.472403,2.472403 -7.74018,2.472403 -2.73969,0 -5.804578,-0.109142 l -4.944806,-0.21383 A 334.1085,334.1085 0 0 1 12.678672,41.293386 Z M 74.003174,4.2095703 h 9.673555 V 31.617604 q 0,5.641979 -2.579318,8.221297 -2.52586,2.528087 -8.170066,2.528087 H 60.56533 q -5.644206,0 -8.223524,-2.528087 -2.52586,-2.579318 -2.52586,-8.221297 V 4.2095703 h 9.675782 V 31.617604 q 0,3.223034 3.223033,3.223034 h 8.063152 q 3.225261,0 3.225261,-3.223034 z m 16.121849,0 h 22.574597 q 5.64198,0 8.16784,2.5793176 2.58377,2.5258602 2.58154,8.1700661 v 4.835664 q 0,4.461462 -1.50571,6.933865 -1.45449,2.472403 -4.67752,3.278718 l 6.72004,11.822986 H 113.50594 L 107.32493,30.544002 H 99.800805 V 41.830187 H 90.125023 Z M 113.77322,14.956727 q 0,-3.225261 -3.22526,-3.225261 H 99.803032 v 11.286185 h 10.747158 q 3.22526,0 3.22526,-3.22526 z"
       style="font-size:24.1294px;line-height:1.25;font-family:'Russo One';-inkscape-font-specification:'Russo One';letter-spacing:0;word-spacing:0;fill:url(#d);fill-opacity:1;stroke:#1f1f1f;stroke-width:1.89328;stroke-linejoin:round;stroke-miterlimit:4;stroke-dasharray:none;stroke-opacity:1"
       id="path9" /><path
       d="m 153.0087,14.422153 q 0,-3.227488 -3.22526,-3.227488 h -9.13676 q -3.22526,0 -3.22526,3.225261 v 17.199906 q 0,3.223033 3.22526,3.223033 h 9.13676 q 3.22526,0 3.22526,-3.223033 z m 9.67355,17.195451 q 0,5.644206 -2.57932,8.223524 -2.52586,2.528088 -8.17006,2.528088 h -13.43562 q -5.6442,0 -8.22352,-2.528088 -2.52586,-2.579318 -2.52586,-8.221296 V 14.419926 q 0,-5.6419789 2.52586,-8.1678391 2.57932,-2.581545 8.22352,-2.581545 h 13.43562 q 5.6442,0 8.17006,2.581545 2.57932,2.5258602 2.57932,8.1678391 z m 23.1114,10.212583 h -19.34934 v -7.524123 h 4.83789 v -22.57237 h -4.83789 V 4.2095703 h 19.34934 v 7.5241237 h -4.83789 v 22.57237 h 4.83789 z"
       style="font-size:24.1294px;line-height:1.25;font-family:'Russo One';-inkscape-font-specification:'Russo One';letter-spacing:0;word-spacing:0;fill:url(#f);fill-opacity:1;stroke:#3d1b00;stroke-width:1.893;stroke-linejoin:round;stroke-miterlimit:4;stroke-dasharray:none;stroke-opacity:1"
       id="path10" /></g><g
     style="font-size:10.5833px;line-height:1.25;font-family:Jura;-inkscape-font-specification:Jura;letter-spacing:0;word-spacing:0;fill:#008cff;stroke:#00303c;stroke-width:0.4;filter:url(#filter57)"
     transform="matrix(2.22739,0,0,2.22739,-10.212937,-6.8020424)"
     id="g11"><path
       d="m 6.9649992,26.904 h 4.2329998 q 1.037,0 1.524,0.476 0.487,0.466 0.487,1.43 0,0.634 -0.275,1.036 -0.276,0.392 -0.678,0.55 0.857,0.233 1.164,1.144 0.106,0.328 0.106,0.762 0,1.037 -0.487,1.524 -0.486,0.486 -1.524,0.486 H 6.9649992 Z m 4.6559998,5.08 q 0,-0.635 -0.635,-0.635 H 8.8699992 v 1.482 h 2.1159998 q 0.635,0 0.635,-0.635 z m -0.317,-2.963 q 0,-0.635 -0.635,-0.635 H 8.8689992 v 1.481 h 1.7999998 q 0.635,0 0.635,-0.635 z m 4.498,5.291 h -2.064 l 2.804,-7.408 h 2.117 l 2.805,7.408 h -2.064 l -0.476,-1.323 h -2.646 z m 0.952,-2.698 h 1.693 l -0.846,-2.487 z m 8.096,2.698 h -1.905 v -5.926 h -2.222 v -1.482 h 6.35 v 1.482 h -2.223 z m 6.562,0 h -1.905 v -5.926 h -2.223 v -1.482 h 6.35 v 1.482 h -2.222 z m 4.868,-1.482 h 3.863 v 1.482 h -5.768 v -7.408 h 1.905 z m 10.478,1.482 h -5.874 v -7.408 h 5.874 v 1.482 h -3.969 v 1.429 h 3.122 v 1.481 h -3.121 v 1.535 h 3.969 z m 4.022,-7.408 h 4.444 q 1.112,0 1.609,0.508 0.508,0.498 0.508,1.609 v 0.952 q 0,0.879 -0.296,1.366 -0.286,0.486 -0.921,0.645 l 1.323,2.328 h -2.064 l -1.217,-2.222 h -1.482 v 2.222 h -1.904 z m 4.656,2.117 q 0,-0.635 -0.635,-0.635 h -2.117 v 2.222 h 2.117 q 0.635,0 0.635,-0.635 z m 7.726,-0.106 q 0,-0.635 -0.635,-0.635 h -1.8 q -0.634,0 -0.634,0.635 v 3.387 q 0,0.635 0.635,0.635 h 1.799 q 0.635,0 0.635,-0.635 z m 1.905,3.387 q 0,1.11 -0.508,1.619 -0.498,0.497 -1.609,0.497 h -2.646 q -1.11,0 -1.619,-0.497 -0.497,-0.508 -0.497,-1.62 v -3.386 q 0,-1.111 0.497,-1.609 0.508,-0.508 1.62,-0.508 h 2.645 q 1.111,0 1.609,0.508 0.508,0.498 0.508,1.609 z m 0,-5.398 h 2.01 l 1.747,3.598 1.746,-3.598 h 2.01 l -2.804,5.45 v 1.958 h -1.905 v -1.958 z m 8.413,7.408 h -2.063 l 2.804,-7.408 h 2.117 l 2.805,7.408 h -2.064 l -0.476,-1.323 h -2.646 z m 0.953,-2.698 h 1.693 l -0.846,-2.487 z m 7.144,1.216 h 3.863 v 1.482 h -5.768 v -7.408 h 1.905 z m 10.477,1.482 h -5.874 v -7.408 h 5.874 v 1.482 h -3.969 v 1.429 h 3.122 v 1.481 h -3.122 v 1.535 h 3.97 z"
       aria-label="BATTLE ROYALE"
       style="font-family:'Russo One';-inkscape-font-specification:'Russo One';fill:url(#h);stroke:#002933;stroke-linejoin:round;stroke-opacity:1"
       id="path11" /></g></svg>
