<svg xmlns="http://www.w3.org/2000/svg" xmlns:xlink="http://www.w3.org/1999/xlink" xml:space="preserve" width="185.065" height="185.015" viewBox="0 0 48.965 48.952"><defs><pattern xlink:href="#a" id="c" x=".25" y="0" patternTransform="scale(7.55906)rotate(45 -151.007 96.125)" preserveAspectRatio="xMidYMid"/><pattern id="a" width="2" height="10" patternTransform="scale(2)" patternUnits="userSpaceOnUse" preserveAspectRatio="xMidYMid" style="fill:#d9d9d9"><path d="M0-.5h1v11H0z" style="stroke:none"/></pattern><pattern xlink:href="#b" id="d" x=".25" y="0" patternTransform="scale(7.55906)rotate(45 -174.746 105.958)" preserveAspectRatio="xMidYMid"/><pattern id="b" width="2" height="10" patternTransform="scale(2)" patternUnits="userSpaceOnUse" preserveAspectRatio="xMidYMid" style="fill:#d9d9d9"><path d="M0-.5h1v11H0z" style="stroke:none"/></pattern></defs><path fill="#384b94" stroke="#262673" stroke-linecap="round" stroke-linejoin="round" stroke-width="1.962" d="m120.27 480.13-3.579 3.579v23.67l3.578 3.578h23.672l3.577-3.578v-23.67l-3.578-3.579Z" style="fill:#3d7b38;fill-opacity:1;stroke:#234620;stroke-opacity:1" transform="matrix(1 0 0 1 -107.622 -471.07)"/><path fill="#4059bf" stroke="#262673" stroke-linecap="round" stroke-linejoin="round" stroke-width="1.962" d="m143.93 480.13-5.875 5.875h-11.92l-5.874-5.874-3.579 3.579 5.875 5.874v11.92l-5.875 5.875 3.579 3.577 5.874-5.874h11.921l5.875 5.874 3.578-3.576-5.874-5.875v-11.922l5.874-5.874z" style="fill:#b94646;fill-opacity:1;stroke:#5d2323;stroke-opacity:1" transform="matrix(1 0 0 1 -107.622 -471.07)"/><g fill="#262673" stroke-width="1.289" style="fill:#5d2323;fill-opacity:1"><path d="M73.388 59.261h3.176c.34 0 .613.273.613.613v3.204c0 .34-.274.613-.613.613h-3.176a.61.61 0 0 1-.613-.613v-3.204c0-.34.273-.613.613-.613M77.507 58.612l4.896-5.209c-.024-1.028-3.335-1.805-4.452-.209l-1.59 5.136-.606-.005 1.54-5.022c-.8-1.475-3.725-1.207-4.598-.082L74.3 58.35l-.69-.007-1.588-5.083c-.89-1.34-3.675-1.31-4.613-.01l5.196 5.415-.647.522-5.157-5.786c.112-8.688 15.88-9.21 16.377.034l-5.25 5.574z" style="fill:#5d2323;fill-opacity:1" transform="matrix(.70664 0 0 .70664 -28.513 -14.52)"/></g><path fill="#7c776f" stroke="#444" stroke-width="7.414" d="m56.837 123.962 30.537 30.537h89.462l30.537-30.537zm-13.525 13.525v150.535l30.537-30.537v-89.461zm177.585 0-30.537 30.537v89.462l30.537 30.537zM87.374 271.01l-30.537 30.537H207.37l-30.537-30.537z" style="fill:#9f4c4c;fill-opacity:1;stroke:#452121;stroke-linecap:round;stroke-linejoin:round;stroke-opacity:1" transform="matrix(.26458 0 0 .26458 -10.472 -31.816)"/><g fill="#595651" stroke="#333" style="fill:#723636;fill-opacity:1;stroke:#452121;stroke-linecap:round;stroke-linejoin:round;stroke-opacity:1"><path d="M91.224 28.34h1.824l4.12 4.119-1.825 1.824-4.119-4.119zM115.18 28.34v1.824l-4.119 4.12-1.824-1.825 4.119-4.119zM91.224 52.292v-1.824l4.119-4.12 1.824 1.825-4.119 4.119zM115.18 52.292h-1.824l-4.12-4.119 1.825-1.824 4.119 4.119z" style="fill:#723636;fill-opacity:1;stroke:#452121;stroke-opacity:1" transform="matrix(1.9617 0 0 1.9617 -177.964 -54.61)"/></g><g transform="matrix(.26458 0 0 .26458 -10.317 -141.301)"><circle cx="205.031" cy="627.242" r="2.043" style="fill:#454545;fill-opacity:1;stroke:#333;stroke-width:6.55121;stroke-linecap:round;stroke-linejoin:round;stroke-dasharray:none;stroke-opacity:1;paint-order:fill markers stroke"/><circle cx="205.031" cy="658.991" r="2.043" style="fill:#454545;fill-opacity:1;stroke:#333;stroke-width:6.55121;stroke-linecap:round;stroke-linejoin:round;stroke-dasharray:none;stroke-opacity:1;paint-order:fill markers stroke"/><circle cx="205.031" cy="593.227" r="2.043" style="fill:#454545;fill-opacity:1;stroke:#333;stroke-width:6.55121;stroke-linecap:round;stroke-linejoin:round;stroke-dasharray:none;stroke-opacity:1;paint-order:fill markers stroke"/><circle cx="58.008" cy="627.242" r="2.043" style="fill:#454545;fill-opacity:1;stroke:#333;stroke-width:6.55121;stroke-linecap:round;stroke-linejoin:round;stroke-dasharray:none;stroke-opacity:1;paint-order:fill markers stroke"/><circle cx="58.008" cy="658.991" r="2.043" style="fill:#454545;fill-opacity:1;stroke:#333;stroke-width:6.55121;stroke-linecap:round;stroke-linejoin:round;stroke-dasharray:none;stroke-opacity:1;paint-order:fill markers stroke"/><circle cx="58.008" cy="593.227" r="2.043" style="fill:#454545;fill-opacity:1;stroke:#333;stroke-width:6.55121;stroke-linecap:round;stroke-linejoin:round;stroke-dasharray:none;stroke-opacity:1;paint-order:fill markers stroke"/><path d="M89.676 548.533h83.958v7.336H89.676z" style="fill:url(#c);fill-opacity:1;stroke:none;stroke-width:5.97131;stroke-linecap:round;stroke-linejoin:round;stroke-dasharray:none;stroke-opacity:1;paint-order:fill markers stroke"/><path d="M89.676 697.19h83.958v7.336H89.676z" style="fill:url(#d);fill-opacity:1;stroke:none;stroke-width:5.97131;stroke-linecap:round;stroke-linejoin:round;stroke-dasharray:none;stroke-opacity:1;paint-order:fill markers stroke"/></g></svg>