<svg xmlns="http://www.w3.org/2000/svg" width="335.678" height="392.937"><defs><clipPath id="a" clipPathUnits="userSpaceOnUse"><path d="M-876.541 373.053H134.837V-651.525H-876.541Z"/></clipPath><clipPath id="d" clipPathUnits="userSpaceOnUse"><path d="M-747.723 291.966H263.655V-732.612H-747.723Z"/></clipPath><clipPath id="c" clipPathUnits="userSpaceOnUse"><path d="M-795.212 381.64H216.166V-642.94H-795.212Z"/></clipPath><clipPath id="g" clipPathUnits="userSpaceOnUse"><path d="M-830.133 364.534H181.245V-660.044H-830.133Z"/></clipPath><clipPath id="h" clipPathUnits="userSpaceOnUse"><path d="M-814.566 327.01H196.812V-697.568H-814.566Z"/></clipPath><clipPath id="e" clipPathUnits="userSpaceOnUse"><path d="M-742.495 357.393H268.883V-667.185H-742.495Z"/></clipPath><clipPath id="b" clipPathUnits="userSpaceOnUse"><path d="M-775.31 346.139H236.068V-678.44H-775.31Z"/></clipPath><clipPath id="i" clipPathUnits="userSpaceOnUse"><path d="M-818.152 281.124H193.226V-743.454H-818.152Z"/></clipPath><clipPath id="f" clipPathUnits="userSpaceOnUse"><path d="M-745.465 340.506H265.913V-684.072H-745.465Z"/></clipPath></defs><path d="M0 0h-38.899zh38.899Z" style="fill:#5fbc6d;fill-opacity:1;fill-rule:nonzero;stroke:none" transform="matrix(1.33333 0 0 -1.33333 -12.912 503.06)"/><path d="m1026.295 552.186 27.357 28.683-3.362-58.407 14.463-70.29 65.51-.344 21.694-3.758 32.639 11.26-21.669-29.295-30.091-.133-62.28 7.976-9.087-89.35-34.77-23.56 16.281 37.01 3.063 72.415-75.345-16.463-54.444 3.382-22.078 17.041 84.848 8.305 47.35 23.308z" style="color:#000;fill:#a9a9a9;stroke-width:9;-inkscape-stroke:none" transform="translate(-882.441 -266.805)"/><path d="M1143.785 434.132c-.436.945-.019 2.138-.626 3.062-.746 1.79-2.717 2.447-4.425 2.952-1.577.399-3.05 1.387-3.697 2.926-.526 1.161-.68 2.644-.044 3.78.629.366 1.409 1.915 2.087 1.904 5.411-.92 10.817.13 16.225-.805 6.297 2.148 12.555 4.416 18.89 6.443.669.16 3.066-4.653 2.69-5.162-1.633-2.73-3.678-5.193-5.522-7.782-1.789-2.373-5.5-6.827-7.338-9.149-.802-.33-1.775-.088-2.641-.2-5.089-.122-10.18-.088-15.269-.094-.11.042-.22 2.083-.33 2.125z" style="fill:#c9d1d9;fill-opacity:1;stroke:#a2a5c0;stroke-width:4;stroke-miterlimit:4;stroke-dasharray:none;stroke-opacity:1" transform="translate(-882.441 -266.805)"/><path d="m935.218 423.291.177.261c1.13 1.694 2.083 3.5 3.182 5.215 1.1 1.714 2.368 3.355 4.002 4.57 2.96 2.202 6.966 2.793 10.537 1.868 3.57-.924 6.692-3.27 8.873-6.244 1.78-2.427 2.984-5.271 5.016-7.491 1.016-1.11 2.248-2.054 3.667-2.554 1.42-.5 3.039-.523 4.398.122 1.125.535 2.015 1.494 2.613 2.587.598 1.092.924 2.316 1.119 3.546.39 2.461.287 5.017 1.066 7.384.993 3.016 3.462 5.507 6.468 6.527 3.007 1.021 6.482.547 9.106-1.24 2.623-1.789 4.335-4.85 4.485-8.021s-1.266-6.38-3.71-8.407M1058.713 356.515a7 7 0 0 0-.578.217c-1.676.713-3.05 2.055-3.934 3.647s-1.298 3.422-1.337 5.242c-.078 3.642 1.286 7.15 2.785 10.47a115.4 115.4 0 0 0 8.024 14.79" style="fill:#c9d1d9;fill-opacity:1;stroke:#a2a5c0;stroke-width:4;stroke-linecap:butt;stroke-linejoin:miter;stroke-miterlimit:4;stroke-dasharray:none;stroke-opacity:1" transform="translate(-882.441 -266.805)"/><path d="m1016.29 312.479 22.23 50.535 2.78 65.736-70.255-15.35-56.447 3.506-32.157 24.82 95.33 9.33 44.1 21.71-.078 81.22 1.246 1.305 35.809 37.547-4.032-70.045 13.61-66.14 62.234-.327 20.924-3.625 45.254 15.611-31.635-42.767-32.644-.145-57.993 7.428-8.832-86.846zm20.82 24.978 20.095 13.617 9.342 91.854 66.566-8.526 27.54.123 11.7 15.82-20.023-6.906-22.467 3.891-68.783.361-15.316 74.442 2.693 46.77-17.66-18.516.08-83.221-50.6-24.906-74.367-7.28 12-9.261 52.441-3.258 80.434 17.574-3.344-79.094z" style="color:#000;fill:#252525;-inkscape-stroke:none;fill-opacity:1" transform="translate(-882.441 -266.805)"/><path d="m0 0 1.254.931c.314.234.686.376 1.076.412l2.046.185c.39.035.762.178 1.077.411l1.247.927c.516.384.832.981.857 1.624l.208 5.332a2.128 2.128 0 0 1-2.619 2.153l-1.069-.255a2.1 2.1 0 0 1-1.038-.594L.292 8.274a2 2 0 0 1-.286-.371l-3.093-5.091A2.12 2.12 0 0 1-3.393 1.6C-3.308-.097-1.364-1.014 0 0" clip-path="url(#a)" style="fill:#4d4d4d;fill-opacity:1;fill-rule:nonzero;stroke:none;stroke-width:.517503" transform="matrix(2.6526 0 0 -2.50255 214.157 277.841)"/><path d="m1161.094 271.304-76.276 61.864-3.243 67.709-35.532 33.516-16.476-64.378-65.802-36.17-57.728 12.513 39.673 20.174 42.8 36.878 23.766 45.621-42.055 26.99-27.78 40.193-38.253 17.639 56.14 10.23 37.868-36.297 51.928-25.053 28.954 18.224-7.363 62.992 16.772 33.83.12 39.342 12.676 18.122 27.723-63.067-10.5-32.676-4.534-54.362 47.794 23.334 44.408 64.385 7.445-37.361-25.144-69.356-66.993-10.505-20.796-24.446 29.97-38.66-3.643-58.03 24.168-30.807z" style="color:#000;fill:#ccc;stroke-width:9;stroke-linejoin:round;-inkscape-stroke:none" transform="translate(-882.441 -266.805)"/><path d="m0 0 5.1-4.616c.875-.792 1.821-1.274 2.638-1.343l9.08-.774c.482-.041.901.063 1.225.303l4.724 3.51c.977.726.934 2.559-.104 4.433L8.261 19.433c-1.24 2.242-8.285 11.406-9.777 11.04-4.917-1.21-5.049-10.803-6.517-11.975a1.56 1.56 0 0 1-.422-.536l-.458-.923c-.485-.979-.204-2.579.723-4.118l6.668-11.064A8.3 8.3 0 0 1 0 0" clip-path="url(#b)" style="fill:#4d4d4d;fill-opacity:1;fill-rule:nonzero;stroke:none;stroke-width:1.47725" transform="matrix(.75675 -.1593 -.07538 -.78539 172.263 183.662)"/><path d="m0 0 2.751-.364c4.327-.572 8.385 2.623 8.528 6.985l.004.15c.056 2.839-2.527 7.35-4.775 10.726a7.55 7.55 0 0 1-8.331 3.068 7.56 7.56 0 0 1-5.399-5.951l-.526-2.935a7.57 7.57 0 0 1 .559-4.459l1.292-2.847A7.56 7.56 0 0 1 0 0" clip-path="url(#c)" style="fill:#4d4d4d;fill-opacity:1;fill-rule:nonzero;stroke:none" transform="matrix(1.33333 0 0 -1.33333 140.276 228.006)"/><path d="m0 0 .73-.301a2.6 2.6 0 0 1 .686-.179l.69-.083C3.43-.722 4.699.136 4.963 1.443c.095.473.257.798.527.687.783-.324.91 1.943.91 1.943L4.118 7.144c-.32.431-.765.753-1.274.922l-.604.201a2.7 2.7 0 0 1-.609.124l-3.742.31A2.6 2.6 0 0 1-3.562 8.4l-.144-.077a2.615 2.615 0 0 1-.648-4.118L-.886.603C-.635.343-.334.138 0 0" clip-path="url(#d)" style="fill:#4d4d4d;fill-opacity:1;fill-rule:nonzero;stroke:none;stroke-width:.75444" transform="matrix(1.60507 0 0 -1.94597 81.862 265.895)"/><path d="m0 0 6.004-1.719a4.15 4.15 0 0 1 4.404 1.421l.627.795a4.15 4.15 0 0 1-.8 5.913L6.744 8.981a4.15 4.15 0 0 1-3.825.578L-.179 8.482a4.15 4.15 0 0 1-2.676-2.963l-.129-.544A4.15 4.15 0 0 1 0 0" clip-path="url(#e)" style="fill:#4d4d4d;fill-opacity:1;fill-rule:nonzero;stroke:none;stroke-width:.804217" transform="matrix(1.5276 0 0 -1.79938 95.134 220.486)"/><path d="m0 0-2.248 3.025q-.135.182-.301.336l-.41.379C-4.36 5.038-4.951 6.984-4.535 8.929l.041.191c.077.364.229.715.445 1.031l2.823 4.132c.761 1.115 2.183 1.609 3.398 1.182l.566-.199a2.5 2.5 0 0 0 1.115-.778l5.83-7.158c.949-1.165.651-2.944-.655-3.915l-4.092-.746C3.666 1.725.871-1.172 0 0" clip-path="url(#f)" style="fill:#4d4d4d;fill-opacity:1;fill-rule:nonzero;stroke:none;stroke-width:.876632" transform="matrix(-1.38947 .6117 .60837 1.39709 239.027 36.118)"/><path d="m0 0 4.679 5.027c1.607 1.726.032 5.785-2.838 7.311-3.308 1.439-9.18 5.862-12.433 8.408-1.431 1.12-2.982 1.375-3.959.649l-4.32-3.21c-.745-.554-1.053-1.61-.835-2.868l.173-1.005a6.56 6.56 0 0 1 1.187-2.765c.422-.568 1.082-1.669 2.113-3.697l1.744-3.43c.823-1.619 2.269-2.917 3.705-3.327l5.367-1.531q.429-.122.829-.132l2.933-.075C-.983-.662-.407-.438 0 0" clip-path="url(#g)" style="fill:#4d4d4d;fill-opacity:1;fill-rule:nonzero;stroke:none" transform="matrix(0 1.33333 1.33333 0 177.82 223.235)"/><path d="M0 0a3.9 3.9 0 0 1 2.414 2.906l1.248 6.571c.157.83.041 1.688-.33 2.445l-5.719 11.661a3.9 3.9 0 0 1-1.958 1.865l-2.386 1.028a3.9 3.9 0 0 1-3.87-.451l-5.528-4.108a3.268 3.268 0 0 1-.241-5.044 348 348 0 0 1 6.41-5.62c2.281-1.948 3.874-5.816 4.826-8.799A3.9 3.9 0 0 1 0 0" clip-path="url(#h)" style="fill:#4d4d4d;fill-opacity:1;fill-rule:nonzero;stroke:none;stroke-width:1.10864" transform="matrix(1.0225 .7231 1.07649 -.6533 255.761 238.363)"/><path d="m0 0 3.369.172q.078.005.157.003l4.76-.066a2.43 2.43 0 0 1 1.48.479l2.544 1.89a2.42 2.42 0 0 1 .922 2.461l-2.148 9.874a2.4 2.4 0 0 1-.423.931l-1.065 1.433a2.42 2.42 0 0 1-2.588.892l-2.888-.793a2.4 2.4 0 0 1-.804-.392L.581 14.851a2.42 2.42 0 0 1-.958-2.265l.171-1.285.279-3.189A2.4 2.4 0 0 0-.31 6.578l-1.845-2.835A2.423 2.423 0 0 1-.714.07C-.481.011-.24-.012 0 0" clip-path="url(#i)" style="fill:#4d4d4d;fill-opacity:1;fill-rule:nonzero;stroke:none;stroke-width:.879695" transform="matrix(.21348 -1.33993 -1.68747 -.16951 245.896 134.076)"/><path d="M1030.409 390.717c26.782 14.523-27.567 47.579-16.312 11.532 4.201-6.286 10.317-9.48 16.311-11.532" style="fill:#4d4d4d;fill-opacity:1;stroke:none;stroke-width:1px;stroke-linecap:round;stroke-linejoin:round;stroke-opacity:1" transform="translate(-882.441 -266.805)"/><path d="M1161.766 528.472c.805-2.41 2.753-4.367 5.084-5.378 2.331-1.01 5.008-1.11 7.47-.483s4.715 1.953 6.613 3.643 3.455 3.734 4.776 5.905c2.345 3.853 3.998 8.29 3.717 12.792-.14 2.25-.774 4.484-1.95 6.408s-2.907 3.527-4.97 4.436c-1.64.722-3.474.998-5.254.79a193 193 0 0 1-11.374-14.505c-1.426-2.01-2.827-4.07-3.702-6.373s-1.191-4.898-.41-7.235" style="fill:#4d4d4d;fill-opacity:1;stroke:none;stroke-width:1px;stroke-linecap:butt;stroke-linejoin:miter;stroke-opacity:1" transform="translate(-882.441 -266.805)"/><path d="M1108.629 538.082c-2.277.053-4.384 1.303-5.758 3.11-2.092 2.404-3.51 5.663-6.525 7.06-1.97.885-4.346.346-5.901-1.128-2.18-1.83-4.455-4.49-7.24-5.49-1.675-.684-3.657-.926-5.35-.197-.5.603-3.22.55-3.421 1.288-.732 6.653-.742 10.682-1.43 17.333 1.572 3.472 1.783 11.53 3.43 14.977 3.83 7.884 8.325 14.838 12.053 22.744.29 3.434 2.205 4.694 2.265 8.17-.116 19.289-11.473 20.353 2.866 39.365 1.44 1.988 3.027.314 4.621 2.18.497.529 4.312 1.425 4.5.798 2.596-5.46 5.422-10.467 7.864-15.999 5.382-12.419 11.333-23.555 16.714-35.974-.024-1.062-.548-5.784-.786-6.818-3.008-9.536-5.075-20.476-8.026-30.001-.534-2.98-.623-5.863-.928-8.877-.37-4.2-1.808-7.325-2.267-11.513-.39-.918-4.113-.597-4.952-.871a7 7 0 0 0-1.73-.157z" style="fill:#c9d1d9;fill-opacity:1;stroke:#a2a5c0;stroke-width:4;stroke-miterlimit:4;stroke-dasharray:none;stroke-opacity:1" transform="translate(-882.441 -266.805)"/><path d="M157.692 148.031c-5.384 5.385-16.891 3.2-24.322 4.858-.853.164-2.82 7.42-2.063 7.709 4.088 2.29 12.333 6.288 16.489 8.452 5.032 2.58 10.106 5.096 15.111 7.716 11.643 10.002 23.195 20.111 34.945 29.989.39.516 1.62-2.071 2.009-2.485 1.378-1.284 2.327-4.035 4.107-4.704 3.113-1.178 6.476-.72 9.725-1.1 2.892-.161 5.85-1.926 6.712-4.805.812-2.505-.564-5.162-2.457-6.785-2.867-2.637-6.824-4.013-9.087-7.307-2.496-3.5-2.078-10.655.841-13.783.403-.542 1.162-.902 1.315-1.576-.03-.695-.977-.78-1.416-1.165-10.467-5.812-20.974-11.55-31.463-17.321-1.312.002-2.605.515-3.91.722-5.511 1.195-12.547-2.403-16.536 1.585z" style="fill:#c9d1d9;fill-opacity:1;stroke:#a2a5c0;stroke-width:4;stroke-miterlimit:4;stroke-dasharray:none;stroke-opacity:1" transform="translate(-97.267 -76.327)"/><path d="M1170.258 485.651c-2.392 2.437-3.898 5.682-4.543 9.014-.593 3.985.045 8.186 2.118 11.674 2.825 4.905 7.843 8.014 12.913 10.204 5.335 2.222 10.83 4.054 16.188 6.178.622.155 1.583.837 2.034.056.075-.872-.544-1.665-.736-2.502-3.853-10.63-7.706-21.261-11.596-31.878-.45-.591-1.34-.367-1.98-.588-4.681-.764-9.368-1.488-14.053-2.23z" style="fill:#c9d1d9;fill-opacity:1;stroke:#a2a5c0;stroke-width:4;stroke-miterlimit:4;stroke-dasharray:none;stroke-opacity:1" transform="translate(-882.441 -266.805)"/><path d="M1161.686 266.844a4.5 4.5 0 0 0-3.426.965l-76.278 61.863a4.5 4.5 0 0 0-1.66 3.281l-3.154 65.897-28.658 27.03-14.584-56.98a4.5 4.5 0 0 0-2.192-2.828l-65.8-36.17a4.5 4.5 0 0 0-3.121-.455l-57.729 12.514a4.5 4.5 0 0 0-1.086 8.408l39.188 19.928 41.732 35.959 21.467 41.209-38.594 24.77a4.5 4.5 0 0 0-1.271 1.228l-27.08 39.18-37.135 17.123a4.5 4.5 0 0 0 1.076 8.513l56.14 10.23a4.5 4.5 0 0 0 3.92-1.177l37.354-35.803 49.04-23.66 24.444 15.385-7.033 60.172a4.5 4.5 0 0 0 .438 2.521l16.306 32.893.116 38.295a4.5 4.5 0 0 0 .812 2.564l12.678 18.123a4.5 4.5 0 0 0 7.806-.77l27.725-63.066a4.5 4.5 0 0 0 .164-3.187l-10.344-32.186-3.832-45.957 39.615 19.342 43.74 63.414a4.5 4.5 0 0 0 8.118-1.676l7.445-37.361a4.5 4.5 0 0 0-.183-2.412l-25.145-69.358a4.5 4.5 0 0 0-3.533-2.912l-65.344-10.246-17.346-20.39 27.73-35.77a4.5 4.5 0 0 0 .934-3.039l-3.535-56.32 23.11-29.46a4.5 4.5 0 0 0 .882-1.939l9.913-52.388a4.5 4.5 0 0 0-3.83-5.297m-7.297 15.693-7.426 39.24-23.49 29.944a4.5 4.5 0 0 0-.951 3.06l3.537 56.334-28.93 37.317a4.5 4.5 0 0 0 .129 5.673l20.797 24.446a4.5 4.5 0 0 0 2.73 1.53l64.365 10.093 23.81 65.674-5.12 25.699-38.37-55.629a4.5 4.5 0 0 0-1.73-1.49l-47.793-23.334a4.5 4.5 0 0 0-6.459 4.418l4.533 54.361a4.5 4.5 0 0 0 .2 1.004l9.978 31.05-23.816 54.18-7.281-10.41-.116-37.931a4.5 4.5 0 0 0-.466-1.987l-16.18-32.633 7.209-61.666a4.5 4.5 0 0 0-2.074-4.332l-28.953-18.222a4.5 4.5 0 0 0-4.352-.246l-51.93 25.052a4.5 4.5 0 0 0-1.158.805l-36.209 34.707L919 531.98l25.326-11.678a4.5 4.5 0 0 0 1.817-1.528l27.267-39.453 41.297-26.502a4.5 4.5 0 0 0 1.56-5.865L992.5 401.33a4.5 4.5 0 0 0-1.053-1.33l-42.8-36.877a4.5 4.5 0 0 0-.897-.603l-28.404-14.442 43.726-9.478 62.62 34.42 15.992 62.488a4.5 4.5 0 0 0 7.447 2.158l35.531-33.516a4.5 4.5 0 0 0 1.408-3.058l3.147-65.697z" style="color:#000;fill:#252525;stroke-linejoin:round;-inkscape-stroke:none;fill-opacity:1" transform="translate(-882.441 -266.805)"/><path d="M1028.901 443.81c.423-1.137 1.391-2.029 2.514-2.487s2.386-.51 3.578-.284c2.383.453 4.419 1.933 6.444 3.269 3.472 2.29 7.267 4.364 9.651 7.772 1.193 1.704 1.984 3.732 1.986 5.812a7.6 7.6 0 0 1-.61 3.037 6.5 6.5 0 0 1-1.852 2.472c-.805.653-1.765 1.089-2.738 1.447-.973.36-1.972.648-2.929 1.048-2.43 1.015-4.544 2.723-7.038 3.571-1.247.424-2.596.623-3.889.373a5.2 5.2 0 0 1-1.828-.718 4.3 4.3 0 0 1-1.37-1.398c-.562-.94-.707-2.087-.582-3.176.126-1.088.506-2.13.938-3.137.433-1.006.92-1.991 1.278-3.027.358-1.035.584-2.136.472-3.225-.106-1.03-.51-2.007-1.016-2.91-.507-.902-1.116-1.741-1.675-2.612-.558-.87-1.072-1.783-1.359-2.777s-.336-2.081.025-3.05zM1078.685 425.099c.2-.225.403-.448.597-.678 2.43-2.898 3.281-6.775 5.072-10.106.896-1.665 2.063-3.229 3.63-4.286a7.3 7.3 0 0 1 2.589-1.116 5.86 5.86 0 0 1 2.807.086 5.5 5.5 0 0 1 3.195 2.53 5.8 5.8 0 0 1 .623 4.039c-.257 1.22-.891 2.327-1.242 3.524-.175.598-.28 1.225-.221 1.846.058.62.286 1.237.71 1.694.438.47 1.051.743 1.674.901.622.159 1.266.214 1.9.321s1.27.272 1.808.623c.27.176.51.397.693.661.182.265.305.573.334.893a1.93 1.93 0 0 1-.169.951 2.7 2.7 0 0 1-.558.795c-.459.462-1.04.778-1.614 1.086s-1.157.62-1.622 1.075c-.233.228-.434.49-.572.786a1.95 1.95 0 0 0-.19.947c.02.325.135.639.292.924s.357.544.56.799.41.507.587.78c.176.275.32.573.384.892.115.575-.042 1.184-.358 1.677-.317.492-.781.877-1.289 1.17-1.014.585-2.193.818-3.252 1.32-1.161.55-2.152 1.414-2.991 2.387-.84.974-1.535 2.06-2.22 3.148s-1.363 2.184-2.172 3.183c-.808 1-1.755 1.905-2.88 2.526-1.368.755-2.97 1.062-4.525.918s-3.06-.732-4.332-1.638c-2.544-1.813-4.075-4.847-4.417-7.952s.423-6.263 1.785-9.074 3.299-5.306 5.384-7.632zM1105.13 336.59c1.23-.415 2.559-.56 3.839-.347s2.507.794 3.436 1.7c.93.907 1.546 2.144 1.64 3.438.095 1.295-.35 2.633-1.253 3.566-.63.65-1.444 1.087-2.143 1.662-.349.288-.672.614-.91.999-.237.385-.385.833-.37 1.286.02.567.293 1.099.637 1.551.343.453.758.846 1.122 1.282.62.743 1.089 1.62 1.294 2.564.205.945.136 1.958-.26 2.84s-1.13 1.62-2.034 1.96c-.453.17-.944.24-1.425.194a2.97 2.97 0 0 1-1.355-.475c-.496-.329-.877-.807-1.18-1.319-.304-.512-.536-1.062-.791-1.6-.255-.537-.537-1.07-.924-1.521-.388-.452-.891-.823-1.47-.963-.45-.11-.923-.076-1.38 0s-.908.193-1.368.25-.938.051-1.372-.113a1.7 1.7 0 0 1-.586-.365 1.34 1.34 0 0 1-.359-.586c-.1-.348-.037-.73.12-1.057.156-.326.4-.604.666-.85.532-.492 1.177-.89 1.547-1.513.209-.35.317-.754.349-1.16a4.5 4.5 0 0 0-.09-1.217c-.155-.8-.451-1.57-.586-2.374-.283-1.682.174-3.456 1.148-4.857.974-1.4 2.441-2.43 4.058-2.975zM980.188 494.727c-1.657-.374-3.152-1.38-4.179-2.734-1.026-1.354-1.59-3.04-1.655-4.737s.359-3.403 1.147-4.908c.789-1.505 1.935-2.812 3.28-3.85 2.691-2.074 6.112-3.04 9.503-3.254 3.391-.215 6.785.275 10.133.857 1.964.34 3.957.726 5.716 1.663.88.469 1.692 1.075 2.341 1.832.649.756 1.13 1.666 1.322 2.644.295 1.499-.095 3.051-.666 4.468s-1.326 2.758-1.81 4.206c-.345 1.031-.553 2.118-1.07 3.075-.258.478-.595.92-1.025 1.252s-.96.548-1.503.557c-.507.008-1.004-.163-1.442-.419-.438-.255-.822-.592-1.19-.94s-.725-.71-1.122-1.026c-.397-.315-.838-.585-1.327-.721a3 3 0 0 0-1.576.007 3.7 3.7 0 0 0-1.395.746c-.812.687-1.33 1.669-1.633 2.688-.606 2.04-.415 4.254-1.056 6.282-.374 1.182-1.038 2.285-1.977 3.095s-2.16 1.312-3.4 1.301c-1.239-.01-2.483-.56-3.256-1.53a3.7 3.7 0 0 1-.754-1.678 3.4 3.4 0 0 1 .194-1.826c.376-.929 1.15-1.626 1.76-2.42.305-.398.575-.83.723-1.308s.169-1.009-.016-1.474a2.13 2.13 0 0 0-.72-.904 3.4 3.4 0 0 0-1.049-.506c-.747-.225-1.537-.267-2.298-.438zM1036.84 516.244a4.96 4.96 0 0 1 3.15.033 4.96 4.96 0 0 1 2.485 1.937 4.98 4.98 0 0 1 .71 3.707 4.98 4.98 0 0 1-2.123 3.12 5 5 0 0 1-4.017.623 5 5 0 0 1-3.117-2.611 5 5 0 0 1-.089-4.065 5 5 0 0 1 3-2.744z" style="fill:#c9d1d9;fill-opacity:1;stroke:#a2a5c0;stroke-width:4;stroke-linecap:butt;stroke-linejoin:miter;stroke-miterlimit:4;stroke-dasharray:none;stroke-opacity:1" transform="translate(-882.441 -266.805)"/><path fill="none" d="M1094.137 487.176c-1.473-1.188-2.397-3.014-2.54-4.9s.483-3.81 1.665-5.287c1.182-1.478 2.9-2.504 4.749-2.902s3.818-.175 5.556.572 3.242 2.009 4.33 3.557c1.087 1.547 1.762 3.374 2.001 5.25.478 3.754-.803 7.612-3.084 10.631-.82 1.086-1.763 2.073-2.61 3.139-.846 1.065-1.605 2.23-1.986 3.536-.268.92-.341 1.887-.56 2.822-.11.467-.257.928-.477 1.354s-.517.817-.896 1.112c-.37.289-.812.48-1.272.57s-.937.082-1.397-.007c-.921-.177-1.76-.667-2.472-1.277-1.425-1.22-2.384-2.902-3.77-4.166-.953-.869-2.09-1.524-2.995-2.442-.453-.459-.846-.986-1.087-1.584-.24-.598-.322-1.27-.158-1.894.132-.5.416-.951.779-1.32.362-.368.8-.657 1.262-.887.924-.46 1.943-.694 2.91-1.057a6.8 6.8 0 0 0 1.388-.684c.43-.286.816-.646 1.094-1.082.278-.435.443-.95.425-1.466s-.228-1.031-.607-1.382c-.079-.073-.165-.139-.248-.207z" style="fill:#000;stroke:#a2a5c0;stroke-width:4;stroke-linecap:butt;stroke-linejoin:miter;stroke-opacity:1;fill-opacity:0;stroke-miterlimit:4;stroke-dasharray:none" transform="translate(-882.441 -266.805)"/></svg>