<svg xmlns="http://www.w3.org/2000/svg" xml:space="preserve" width="238.741" height="217.725" viewBox="0 0 63.167 57.606"><path d="m37.918 20.56-4.332 3.596-1.403 5.452-5.605-.52-4.847 2.863-3.596-4.331-5.452-1.403.52-5.606-2.863-4.847 4.332-3.595 1.402-5.452 5.606.52 4.847-2.863 3.596 4.331 5.452 1.403-.52 5.605z" style="fill:#ccc;fill-opacity:1;stroke:#333;stroke-width:1.31573;stroke-linejoin:round;stroke-dasharray:none;stroke-opacity:1" transform="translate(8.34 10.64)"/><path d="m35.994 20.226-3.728 3.094-1.207 4.691-4.823-.448-4.17 2.464L18.97 26.3l-4.69-1.207.447-4.823-2.464-4.171 3.727-3.094 1.207-4.691 4.824.448 4.17-2.464 3.094 3.727 4.692 1.207-.448 4.823z" style="fill:#c59069;fill-opacity:.4;fill-rule:nonzero;stroke:#312114;stroke-width:.438576;stroke-linejoin:miter;stroke-dasharray:none;stroke-opacity:1" transform="translate(8.34 10.64)"/><path d="m34.783 20.015-3.347 2.778-1.084 4.213-4.331-.402-3.745 2.212-2.778-3.347-4.213-1.083.402-4.331-2.212-3.745 3.347-2.779 1.084-4.212 4.33.402 3.746-2.212 2.778 3.346 4.212 1.084-.402 4.331z" style="fill:#c59069;fill-opacity:.4;fill-rule:nonzero;stroke:#312114;stroke-width:.393814;stroke-linejoin:miter;stroke-dasharray:none;stroke-opacity:1" transform="translate(8.34 10.64)"/><path d="m33.637 19.816-2.987 2.48-.967 3.759-3.865-.359-3.343 1.974-2.48-2.986-3.759-.968.36-3.865-1.975-3.342 2.987-2.48.967-3.759 3.865.359 3.342-1.975 2.48 2.987 3.76.968-.36 3.865z" style="fill:#c59069;fill-opacity:.4;fill-rule:nonzero;stroke:#312114;stroke-width:.35146;stroke-linejoin:miter;stroke-dasharray:none;stroke-opacity:1" transform="translate(8.34 10.64)"/><path d="m32.488 19.616-2.626 2.18-.85 3.305-3.399-.315-2.938 1.735-2.18-2.625-3.305-.85.316-3.399-1.736-2.938 2.626-2.18.85-3.305 3.398.315 2.939-1.736 2.18 2.626 3.304.85-.315 3.399z" style="fill:#c59069;fill-opacity:.4;fill-rule:nonzero;stroke:#312114;stroke-width:.308988;stroke-linejoin:miter;stroke-dasharray:none;stroke-opacity:1" transform="translate(8.34 10.64)"/><path d="m31.186 19.39-2.217 1.84-.718 2.79-2.869-.266-2.48 1.465-1.84-2.216-2.791-.718.266-2.87-1.465-2.48 2.217-1.84.718-2.79 2.868.266 2.481-1.466 1.84 2.217 2.79.718-.266 2.87z" style="fill:#c59069;fill-opacity:.4;fill-rule:nonzero;stroke:#312114;stroke-width:.260863;stroke-linejoin:miter;stroke-dasharray:none;stroke-opacity:1" transform="translate(8.34 10.64)"/><path d="m29.812 19.15-1.786 1.483-.578 2.247-2.31-.215-1.997 1.18-1.482-1.785-2.247-.578.214-2.31-1.18-1.998 1.785-1.482.578-2.247 2.31.215 1.998-1.18 1.482 1.785 2.247.578-.214 2.31z" style="fill:#c59069;fill-opacity:.4;fill-rule:nonzero;stroke:#312114;stroke-width:.210062;stroke-linejoin:miter;stroke-dasharray:none;stroke-opacity:1" transform="translate(8.34 10.64)"/><path d="m28.791 18.973-1.464 1.216-.475 1.844-1.895-.176-1.639.968-1.216-1.465-1.843-.474.176-1.895-.968-1.64 1.464-1.215.474-1.844 1.896.176 1.639-.968 1.216 1.465 1.843.474-.176 1.895z" style="fill:#c59069;fill-opacity:.4;fill-rule:nonzero;stroke:#312114;stroke-width:.172342;stroke-linejoin:miter;stroke-dasharray:none;stroke-opacity:1" transform="translate(8.34 10.64)"/><path d="m27.86 18.811-1.172.973-.38 1.476-1.516-.141-1.312.775-.973-1.172-1.475-.38.14-1.517-.774-1.311 1.172-.973.38-1.476 1.516.141 1.312-.775.973 1.172 1.475.38-.14 1.517z" style="fill:#c59069;fill-opacity:.4;fill-rule:nonzero;stroke:#312114;stroke-width:.137925;stroke-linejoin:miter;stroke-dasharray:none;stroke-opacity:1" transform="translate(8.34 10.64)"/><path d="m26.933 18.65-.88.731-.286 1.11-1.14-.106-.986.582-.731-.881L21.8 19.8l.106-1.14-.583-.986.881-.732.286-1.108 1.14.105.986-.582.73.881 1.11.285-.106 1.14z" style="fill:#c59069;fill-opacity:.4;fill-rule:nonzero;stroke:#312114;stroke-width:.103665;stroke-linejoin:miter;stroke-dasharray:none;stroke-opacity:1" transform="translate(8.34 10.64)"/><path d="m-1.524 2.771 3.182-4.033L8.02-2.435 2.162 2.273l-4.52 7.4-3.862 1.473z" style="color:#000;fill:#ccc;stroke-width:1.06449;stroke-linejoin:round;stroke-miterlimit:16;-inkscape-stroke:none" transform="translate(8.34 10.64)"/><path d="M-1.683 8.09c-.103-.2-.577-.725-.643-.942-.066-.167-.193-.322-.176-.512-.011-.133.113-.239.24-.236q.277-.001.555.001c.132-.098.253-.217.323-.367.09-.184.305-.312.51-.26.124.022.445.44.49.545z" style="fill:#4d4d4d;fill-opacity:1;stroke-width:.00555212" transform="translate(8.34 10.64)"/><path d="m7.923-2.957-6.36 1.172a.53.53 0 0 0-.323.193l-3.182 4.033a1 1 0 0 0-.047.069l-4.695 8.377a.532.532 0 0 0 .654.758l3.862-1.475a.53.53 0 0 0 .263-.22l4.473-7.321L8.353-2.02a.532.532 0 0 0-.43-.937m-1.882 1.43L1.828 1.857a.5.5 0 0 0-.121.14L-2.72 9.24l-2.318.885 3.957-7.057L1.953-.775Z" style="color:#000;fill:#333;stroke-linejoin:round;stroke-miterlimit:16;-inkscape-stroke:none" transform="translate(8.34 10.64)"/><path d="m49.136 2.845.83 7.04-5.062 7.348 1.122-10.307-2.809-11.628 2.329-5.205z" style="color:#000;fill:#ccc;stroke-width:1.46862;stroke-linejoin:round;stroke-miterlimit:16;-inkscape-stroke:none" transform="translate(8.34 10.64)"/><path d="M46.764-.691a.327.327 0 0 1-.252-.36c0-.191.082-.369.096-.557-.184-.064-.415-.037-.552-.2-.097-.125-.061-.297-.06-.444.046-.158.05-.332.144-.472.093-.108.226-.174.335-.265.164-.124.312-.267.461-.407.079-.071.117-.172.17-.26.078-.036.29-.005.235.125-.036.16-.188.289-.257.403.233.513.26 1.086.332 1.638q.026.24.045.484c.165-.003.257-.164.398-.203.082.006.261-.031.177.107-.076.219-.305.327-.519.365-.247.05-.501.06-.753.046M46.55 9.964c.096-.016.22-.042.299.03.198.175.28.439.334.689.037.202.053.424-.052.61-.205.389-.474.77-.868.986-.162.09-.38.155-.544.034-.174-.14-.21-.38-.215-.59 0-.444.138-.888.386-1.256.16-.23.383-.432.66-.503" style="fill:#4d4d4d;fill-opacity:1;stroke-width:.00555212" transform="translate(8.34 10.64)"/><path d="M45.6-10.639a.73.73 0 0 0-.723.432l-2.33 5.205a.73.73 0 0 0-.043.473l2.779 11.504-1.11 10.18a.734.734 0 0 0 1.336.495l5.06-7.35a.73.73 0 0 0 .126-.501l-.83-7.04a1 1 0 0 0-.022-.113l-3.59-12.751a.73.73 0 0 0-.654-.534m-.212 2.881 3.024 10.74.793 6.713-3.256 4.725.806-7.414a.7.7 0 0 0-.015-.252L43.99-4.631z" style="color:#000;fill:#333;stroke-linejoin:round;stroke-miterlimit:16;-inkscape-stroke:none" transform="translate(8.34 10.64)"/><path d="m12.576 40.083-4.692-2.524-2.343-6.285 5.863 5.134 8.37 3.285 2.201 3.677z" style="color:#000;fill:#ccc;stroke-width:1.1039;stroke-linejoin:round;stroke-miterlimit:16;-inkscape-stroke:none" transform="translate(8.34 10.64)"/><path d="M16.761 40.726c-.13-.03-.204-.082-.313-.225-.133-.173-.184-.212-.318-.238-.11-.02-.181-.06-.23-.123-.032-.043-.074-.298-.088-.54a12 12 0 0 0-.072-.815c-.014-.078-.012-.099.017-.142.046-.069.08-.07.138-.008.092.102.274.19.862.416.165.064.198.072.22.052a.25.25 0 0 1 .096-.035c.061-.011.073-.008.092.024.038.063.176.612.194.77.036.313-.039.614-.19.769-.056.057-.075.066-.186.09a.4.4 0 0 1-.222.005" style="fill:#4d4d4d;fill-opacity:1;stroke-width:.0157038" transform="translate(8.34 10.64)"/><path d="M11.416 37.99c-.123.03-.224.113-.323.188-.09.07-.38.203-.476.265l1.217.681c.025-.214-.046-.695-.125-.897-.044-.105-.122-.214-.24-.237a.2.2 0 0 0-.053 0" style="fill:#4d4d4d;fill-opacity:1;stroke-width:.00277606" transform="translate(8.34 10.64)"/><path d="M5.227 30.82a.55.55 0 0 0-.203.647l2.343 6.284a.55.55 0 0 0 .256.294l4.691 2.523a1 1 0 0 0 .08.035l9.399 3.287a.552.552 0 0 0 .656-.803l-2.2-3.678a.55.55 0 0 0-.272-.23l-8.282-3.25-5.79-5.07a.55.55 0 0 0-.678-.039m1.595 2.31 4.217 3.694a.6.6 0 0 0 .162.098l8.197 3.216 1.322 2.208-7.924-2.771-4.468-2.404z" style="color:#000;fill:#333;stroke-linejoin:round;stroke-miterlimit:16;-inkscape-stroke:none" transform="translate(8.34 10.64)"/><path d="M290.165 271.826c3.209 1.532 6.876 1.76 10.432 1.714s7.14-.338 10.648.251c1.753.295 3.48.814 5.043 1.66s2.963 2.028 3.947 3.51c.984 1.48 1.537 3.268 1.427 5.042s-.91 3.521-2.268 4.669c-1.29 1.09-3.003 1.592-4.691 1.658-1.689.065-3.367-.276-4.999-.713s-3.24-.972-4.895-1.309-3.381-.47-5.03-.098a8.7 8.7 0 0 0-4.053 2.187 9.2 9.2 0 0 0-2.42 3.926c-.923 2.969-.283 6.339 1.522 8.87 1.184 1.658 2.81 2.952 4.085 4.542.638.794 1.191 1.67 1.517 2.636s.414 2.028.134 3.008c-.26.91-.833 1.72-1.576 2.306s-1.65.953-2.585 1.097c-1.87.288-3.794-.31-5.405-1.303-3.221-1.988-5.284-5.412-8.27-7.74-2.316-1.807-5.115-2.894-7.947-3.673-2.833-.78-5.737-1.274-8.573-2.04-2.837-.765-5.644-1.824-7.986-3.597-2.343-1.772-4.193-4.335-4.63-7.24-.419-2.771.456-5.569 1.505-8.168 1.048-2.6 2.294-5.169 2.67-7.946.532-3.913-.706-7.819-1.292-11.724-.293-1.952-.423-3.951-.087-5.897s1.168-3.845 2.583-5.222c1.229-1.195 2.856-1.949 4.548-2.22 1.693-.27 3.444-.07 5.07.475 3.25 1.087 5.913 3.48 8.069 6.144 2.155 2.664 3.893 5.64 5.939 8.39 2.045 2.75 4.475 5.329 7.568 6.805z" style="fill:#c9d1d9;fill-opacity:1;stroke:#a2a5c0;stroke-width:4;stroke-linecap:butt;stroke-linejoin:miter;stroke-miterlimit:4;stroke-dasharray:none;stroke-opacity:1" transform="matrix(.26458 0 0 .26458 -65.965 -35.944)"/><path d="M311.031 342.16c.8-.972 1.988-1.595 3.233-1.784 1.244-.189 2.536.043 3.676.577s2.13 1.36 2.929 2.334c.798.973 1.408 2.09 1.88 3.258.943 2.334 1.331 4.847 1.848 7.31.516 2.464 1.19 4.955 2.613 7.032 1.047 1.528 2.454 2.765 3.815 4.021 1.36 1.257 2.71 2.575 3.597 4.2a9.3 9.3 0 0 1 .847 6.64 9.2 9.2 0 0 1-3.897 5.438c-1.777 1.145-3.952 1.64-6.057 1.44s-4.131-1.08-5.755-2.433c-1.625-1.354-2.848-3.17-3.557-5.161-.708-1.993-.907-4.156-.64-6.253.185-1.447.586-2.857.89-4.284s.512-2.899.306-4.343c-.236-1.656-1.006-3.192-1.92-4.593-.916-1.4-1.984-2.695-2.91-4.089-.925-1.393-1.717-2.916-1.99-4.566a6.8 6.8 0 0 1 .034-2.495 5.25 5.25 0 0 1 1.058-2.249z" style="fill:#c9d1d9;fill-opacity:1;stroke:#a2a5c0;stroke-width:4;stroke-linecap:butt;stroke-linejoin:miter;stroke-miterlimit:4;stroke-dasharray:none;stroke-opacity:1" transform="scale(.26458)rotate(80 376.222 104.366)"/><path d="M315.17 352.495c-.015.682-.235 1.347-.547 1.953-.311.607-.713 1.162-1.114 1.713-.402.55-.807 1.103-1.127 1.705s-.555 1.261-.589 1.942c-.041.83.217 1.653.601 2.39.385.737.893 1.4 1.391 2.065.499.666.993 1.342 1.343 2.096.35.753.553 1.597.436 2.42a3.53 3.53 0 0 1-1.116 2.078 4.07 4.07 0 0 1-2.148 1.001 4.8 4.8 0 0 1-2.365-.267 5.9 5.9 0 0 1-2.012-1.288c-1.155-1.112-1.87-2.617-2.285-4.166-.414-1.55-.547-3.158-.688-4.755-.164-1.854-.34-3.72-.147-5.571.195-1.851.79-3.709 2.003-5.12a6.1 6.1 0 0 1 2.22-1.65c.856-.365 1.813-.505 2.732-.357.918.147 1.794.59 2.426 1.273.631.683 1.007 1.608.986 2.538z" style="fill:#c9d1d9;fill-opacity:1;stroke:#a2a5c0;stroke-width:4;stroke-linecap:butt;stroke-linejoin:miter;stroke-miterlimit:4;stroke-dasharray:none;stroke-opacity:1" transform="scale(-.26458)rotate(-60 -333.364 509.155)"/><path d="M335.708 346.843c6.104 4.245 10.8 10.72 12.15 18.032.676 3.655.514 7.476-.572 11.031-1.087 3.556-3.105 6.836-5.862 9.33-2.516 2.278-5.57 3.858-8.572 5.44-3.003 1.581-6.034 3.22-8.47 5.583-3.296 3.2-5.276 7.503-8.195 11.05-1.459 1.773-3.182 3.373-5.24 4.392s-4.482 1.417-6.688.778c-2.08-.602-3.852-2.104-4.943-3.975-1.09-1.872-1.525-4.09-1.402-6.252.246-4.326 2.612-8.256 5.387-11.584s6.022-6.26 8.56-9.773c1.268-1.756 2.356-3.66 3.048-5.712s.982-4.263.655-6.404c-.405-2.651-1.714-5.062-2.918-7.458s-2.346-4.93-2.369-7.611c-.023-2.712 1.15-5.379 3.032-7.33 1.883-1.953 4.436-3.204 7.104-3.69 2.668-.487 5.443-.231 8.042.544 2.599.776 5.027 2.06 7.253 3.609z" style="fill:#c9d1d9;fill-opacity:1;stroke:#a2a5c0;stroke-width:4;stroke-linecap:butt;stroke-linejoin:miter;stroke-miterlimit:4;stroke-dasharray:none;stroke-opacity:1" transform="scale(.26458)rotate(80 440.162 99.852)"/><path d="M280.94 239.905c5.587-1.685 11.064-4.084 16.891-4.393 2.914-.155 5.895.238 8.544 1.462 2.648 1.225 4.943 3.327 6.1 6.006.682 1.58.958 3.322.876 5.04-.081 1.719-.515 3.413-1.197 4.992-1.363 3.159-3.684 5.819-6.254 8.107s-5.408 4.25-8.102 6.39-5.276 4.495-7.15 7.38c-2.824 4.34-3.877 9.762-3.061 14.876s3.46 9.889 7.241 13.427c1.522 1.424 3.235 2.671 4.49 4.335.629.831 1.136 1.767 1.387 2.778s.237 2.103-.14 3.074c-.337.864-.952 1.61-1.712 2.142a5.74 5.74 0 0 1-2.579.966c-1.84.228-3.71-.362-5.297-1.321-3.174-1.918-5.295-5.184-8.248-7.427-2.334-1.772-5.12-2.852-7.941-3.644-2.82-.791-5.711-1.316-8.533-2.104-2.821-.79-5.61-1.864-7.948-3.628s-4.204-4.29-4.716-7.174c-.49-2.764.277-5.597 1.293-8.214 1.015-2.617 2.29-5.156 2.884-7.9.813-3.761.296-7.661-.016-11.496-.313-3.835-.386-7.85 1.22-11.347.905-1.974 2.317-3.694 3.978-5.094 1.66-1.4 3.567-2.49 5.557-3.36 3.98-1.741 8.273-2.618 12.432-3.873z" style="fill:#c9d1d9;fill-opacity:1;stroke:#a2a5c0;stroke-width:4;stroke-linecap:butt;stroke-linejoin:miter;stroke-miterlimit:4;stroke-dasharray:none;stroke-opacity:1" transform="matrix(.26458 0 0 .26458 -22.11 -28.725)"/></svg>