<svg xmlns="http://www.w3.org/2000/svg" width="321.179" height="142.471" viewBox="0 0 84.979 37.695"><g transform="rotate(-90 6.507 117.272)"><path d="M86.084 114.617c0-1.944 1.53-3.851 3.703-3.851h30.287c2.172 0 3.705 1.907 3.705 3.851v77.278c0 1.944-1.533 3.85-3.705 3.85H89.787c-2.172 0-3.703-1.906-3.703-3.85zm4.996 1.147v74.984h27.701v-74.984z" style="color:#000;fill:#341610;-inkscape-stroke:none;paint-order:markers stroke fill"/><path d="M88.582 114.617v77.277c0 .75.537 1.353 1.205 1.353h30.288c.667 0 1.205-.604 1.205-1.353v-77.277c0-.749-.538-1.352-1.205-1.352H89.787c-.668 0-1.205.603-1.205 1.352" style="color:#000;fill:#ececec;-inkscape-stroke:none;paint-order:markers stroke fill"/><rect width="26.53" height="14.944" x="-118.197" y="116.272" rx="0" ry="2.369" style="display:inline;fill:#e6e6e6;stroke:#ccc;stroke-width:2.9128;stroke-linejoin:round;stroke-dasharray:none;stroke-opacity:1" transform="scale(-1 1)"/><rect width="58.885" height="33.915" x="134.362" y="87.973" rx="1.637" ry="0" style="display:inline;fill:#1e6065;fill-opacity:1;stroke-width:.27851;paint-order:markers stroke fill" transform="matrix(0 1 1 0 0 0)"/><path d="M89.787 110.766c-2.172 0-3.703 1.907-3.703 3.851v77.278c0 1.944 1.531 3.849 3.703 3.849h30.288c2.172 0 3.704-1.905 3.704-3.85v-77.277c0-1.944-1.532-3.851-3.704-3.851zm0 2.5h30.288c.667 0 1.205.602 1.205 1.351v77.277c0 .75-.538 1.352-1.205 1.352H89.788c-.668 0-1.206-.603-1.206-1.352v-77.277c0-.749.538-1.352 1.206-1.352" style="color:#000;fill:#0d2a2b;fill-opacity:1;-inkscape-stroke:none;paint-order:markers stroke fill"/></g></svg>