<?xml version="1.0" encoding="UTF-8" standalone="no"?>
<!-- Created with Inkscape (http://www.inkscape.org/) -->

<svg
   width="47.131725mm"
   height="64.70993mm"
   viewBox="0 0 47.131725 64.70993"
   version="1.1"
   id="svg1"
   inkscape:version="1.3 (0e150ed6c4, 2023-07-21)"
   sodipodi:docname="floor_oil_07.svg"
   xmlns:inkscape="http://www.inkscape.org/namespaces/inkscape"
   xmlns:sodipodi="http://sodipodi.sourceforge.net/DTD/sodipodi-0.dtd"
   xmlns="http://www.w3.org/2000/svg"
   xmlns:svg="http://www.w3.org/2000/svg">
  <sodipodi:namedview
     id="namedview1"
     pagecolor="#505050"
     bordercolor="#eeeeee"
     borderopacity="1"
     inkscape:showpageshadow="0"
     inkscape:pageopacity="0"
     inkscape:pagecheckerboard="0"
     inkscape:deskcolor="#505050"
     inkscape:document-units="mm"
     inkscape:zoom="0.74208053"
     inkscape:cx="-350.36629"
     inkscape:cy="-252.668"
     inkscape:window-width="1920"
     inkscape:window-height="1009"
     inkscape:window-x="1912"
     inkscape:window-y="-8"
     inkscape:window-maximized="1"
     inkscape:current-layer="layer1" />
  <defs
     id="defs1" />
  <g
     inkscape:label="Calque 1"
     inkscape:groupmode="layer"
     id="layer1"
     transform="translate(-197.37928,-215.37076)">
    <path
       style="fill:#454545;fill-opacity:0.884746;stroke:none;stroke-width:2.559;stroke-linecap:square;stroke-linejoin:round;stroke-dasharray:none;stroke-opacity:1;paint-order:fill markers stroke;stop-color:#000000"
       d="m 207.1767,274.6501 c -1.764,-0.8819 -3.7611,-1.4022 -5.2917,-2.6458 -3.7457,-3.0433 -5.1527,-9.1618 -4.2333,-13.7583 0.5408,-2.7041 2.6641,-5.3161 4.2333,-7.4084 0.6776,-0.9035 1.2592,-1.9108 2.1167,-2.6458 0.9586,-0.8217 4.4572,-1.3425 4.7625,-3.175 0.7641,-4.5844 -0.039,-10.0292 -1.5875,-14.2875 -0.4043,-1.112 -1.2475,-2.0416 -1.5875,-3.175 -0.562,-1.8733 1.2642,-6.8828 1.5875,-7.4083 1.8947,-3.079 18.3221,-4.9488 19.5792,-4.7625 0.3855,0.057 9.1754,7.0783 9.525,7.4083 0,0 5.5557,6.0844 6.35,7.4083 4.001,6.6684 0.8104,19.8796 -2.1167,25.9292 -1.2787,2.6426 -3.0176,5.0475 -4.7625,7.4083 -1.2224,1.6538 -3.4941,4.6575 -5.8208,5.8209 -1.4902,0.7451 -2.2358,0.4383 -3.7042,2.1166 -1.9333,2.2094 -2.9287,5.116 -4.7625,7.4084 -1.41,1.7624 -8.2685,1.0583 -11.1125,1.0583"
       id="path26893" />
  </g>
</svg>
