<svg xmlns="http://www.w3.org/2000/svg" xmlns:xlink="http://www.w3.org/1999/xlink" xml:space="preserve" width="1333.091" height="690.298" viewBox="0 0 352.714 182.641"><defs><pattern xlink:href="#a" id="b" patternTransform="translate(64.623 -114.399)scale(.26458)" preserveAspectRatio="xMidYMid"/><pattern id="a" width="194" height="180" patternTransform="translate(0 90)" patternUnits="userSpaceOnUse" preserveAspectRatio="xMidYMid"><path d="M87.395 148.65h51.329v47.625h-51.33Z" style="fill:#5b412f;stroke-width:.264583;stroke-linecap:square;stroke-linejoin:round;paint-order:stroke fill markers" transform="translate(-330.31 -561.827)scale(3.77953)"/><path d="M88.32 148.65v7.482c0 .487.284.601.636.257l7.915-7.739zm11.204 0-10.568 10.333c-.352.344-.635 1.012-.635 1.498v7.558c0 .486.283.6.635.256l20.092-19.645Zm17.546 0 20.093 19.645c.352.344.635.23.635-.256v-7.558c0-.486-.283-1.154-.635-1.498l-10.568-10.333zm12.177 0 7.916 7.74c.352.343.635.229.635-.258v-7.482zm-17.3.016c-.114-.047-.273.01-.449.183l-22.542 22.04c-.352.344-.635 1.012-.635 1.499v7.557c0 .486.283.6.635.257l22.542-22.04c.352-.345.635-1.013.635-1.5v-7.557c0-.243-.07-.393-.185-.44m2.224 0c-.115.046-.186.196-.186.44v7.557c0 .486.284 1.154.635 1.498l22.543 22.04c.352.345.635.23.635-.256v-7.557c0-.487-.283-1.155-.635-1.499l-22.543-22.04c-.175-.172-.334-.23-.45-.183m-2.223 11.906c-.115-.047-.274.01-.45.183l-22.542 22.04c-.352.344-.635 1.013-.635 1.499v7.557c0 .487.283.6.635.257l22.542-22.04c.352-.345.635-1.013.635-1.5v-7.556c0-.244-.07-.394-.185-.44m2.223 0c-.115.046-.186.196-.186.44v7.557c0 .486.284 1.154.635 1.498l22.543 22.04c.352.345.635.23.635-.256v-7.557c0-.486-.283-1.155-.635-1.499l-22.543-22.04c-.175-.172-.334-.23-.45-.183m-2.223 11.906c-.115-.046-.274.011-.45.183L88.955 194.7c-.352.345-.635 1.013-.635 1.5v.074h8.55l14.627-14.301c.352-.344.635-1.013.635-1.499v-7.557c0-.243-.07-.393-.185-.44m2.223 0c-.115.047-.186.197-.186.44v7.557c0 .486.284 1.155.635 1.499l14.627 14.301h8.55v-.075c0-.486-.282-1.154-.634-1.498l-22.543-22.04c-.175-.173-.334-.23-.45-.184m-2.223 11.906c-.115-.046-.274.011-.45.183l-11.974 11.708h9.524l2.45-2.395c.352-.344.635-1.012.635-1.499v-7.557c0-.243-.07-.393-.185-.44m2.223 0c-.115.047-.186.197-.186.44v7.557c0 .487.284 1.155.635 1.499l2.45 2.395h9.525l-11.975-11.708c-.175-.172-.334-.23-.45-.183" style="fill:#775b3c;stroke-width:.181404;stroke-linecap:square;stroke-linejoin:round;paint-order:stroke fill markers" transform="translate(-330.31 -561.827)scale(3.77953)"/></pattern></defs><g style="display:inline"><path d="M22.065 306.075h27.542v25.948H22.065Z" style="fill:#4d4d4d;stroke-width:.481827;stroke-opacity:.575758;paint-order:markers stroke fill;stop-color:#000" transform="translate(50.416 -149.382)"/><path d="M23.387 307.542H47.96v23.151H23.387Z" style="display:inline;fill:#666;stroke-width:.42989;stroke-opacity:.575758;paint-order:markers stroke fill;stop-color:#000" transform="translate(50.416 -149.382)"/></g><g style="display:inline"><path d="M49.405 306.176h27.542v25.948H49.405Z" style="display:inline;fill:#4d4d4d;stroke-width:.481827;stroke-opacity:.575758;paint-order:markers stroke fill;stop-color:#000" transform="translate(50.416 -149.485)"/><path d="M50.728 307.643h24.573v23.151H50.728Z" style="display:inline;fill:#666;stroke-width:.42989;stroke-opacity:.575758;paint-order:markers stroke fill;stop-color:#000" transform="translate(50.416 -149.485)"/></g><g style="display:inline"><path d="M22.065 306.075h27.542v25.948H22.065Z" style="fill:#4d4d4d;stroke-width:.481827;stroke-opacity:.575758;paint-order:markers stroke fill;stop-color:#000" transform="translate(215.075 -488.716)"/><path d="M23.387 307.542H47.96v23.151H23.387Z" style="display:inline;fill:#666;stroke-width:.42989;stroke-opacity:.575758;paint-order:markers stroke fill;stop-color:#000" transform="translate(215.075 -488.716)"/></g><g style="display:inline"><path d="M49.405 306.176h27.542v25.948H49.405Z" style="display:inline;fill:#4d4d4d;stroke-width:.481827;stroke-opacity:.575758;paint-order:markers stroke fill;stop-color:#000" transform="translate(215.075 -488.818)"/><path d="M50.728 307.643h24.573v23.151H50.728Z" style="display:inline;fill:#666;stroke-width:.42989;stroke-opacity:.575758;paint-order:markers stroke fill;stop-color:#000" transform="translate(215.075 -488.818)"/></g><path d="M16.556-155.598H340.98v311.193H16.556Z" style="fill:url(#b);stroke:none;stroke-width:1.70033"/><path d="M206.158 82.533h22.151v22.151h-22.151zm-22.151 22.151h22.151v22.151h-22.151z" style="display:inline;fill:gray;fill-opacity:1;stroke:none;stroke-width:.4625;stroke-linecap:round;stroke-linejoin:round"/><path d="M206.158 104.684h22.151v22.151h-22.151Zm-22.151-22.15h22.151v22.15h-22.151z" style="display:inline;fill:#dcdcdc;fill-opacity:1;stroke:none;stroke-width:.4625;stroke-linecap:round;stroke-linejoin:round"/><path d="M161.856 82.533h22.151v22.151h-22.151zm0 44.302h22.151v22.151h-22.151z" style="display:inline;fill:gray;fill-opacity:1;stroke:none;stroke-width:.4625;stroke-linecap:round;stroke-linejoin:round"/><path d="M161.856 104.684h22.151v22.151h-22.151z" style="display:inline;fill:#dcdcdc;fill-opacity:1;stroke:none;stroke-width:.4625;stroke-linecap:round;stroke-linejoin:round"/><path d="M206.158 38.231h22.151v22.151h-22.151zm-22.151 22.151h22.151v22.151h-22.151z" style="display:inline;fill:gray;fill-opacity:1;stroke:none;stroke-width:.4625;stroke-linecap:round;stroke-linejoin:round"/><path d="M206.158 60.382h22.151v22.151h-22.151zm-22.151-22.15h22.151v22.15h-22.151z" style="display:inline;fill:#dcdcdc;fill-opacity:1;stroke:none;stroke-width:.4625;stroke-linecap:round;stroke-linejoin:round"/><path d="M161.856 38.231h22.151v22.151h-22.151z" style="display:inline;fill:gray;fill-opacity:1;stroke:none;stroke-width:.4625;stroke-linecap:round;stroke-linejoin:round"/><path d="M161.856 60.382h22.151v22.151h-22.151zm22.151 66.453h22.151v22.151h-22.151z" style="display:inline;fill:#dcdcdc;fill-opacity:1;stroke:none;stroke-width:.4625;stroke-linecap:round;stroke-linejoin:round"/><path d="M206.158 126.835h22.151v22.151h-22.151z" style="display:inline;fill:gray;fill-opacity:1;stroke:none;stroke-width:.4625;stroke-linecap:round;stroke-linejoin:round"/><path fill-opacity=".906" d="M111.095-28.705H16.886v-7.517h94.209z" style="display:inline;opacity:.849994;fill:#afa08c;fill-opacity:1"/><path fill-opacity=".906" d="M165.696 35.605v116.007h-6.917V35.605Z" style="display:inline;opacity:.85018;fill:#afa08c;fill-opacity:.976848"/><path fill-opacity=".906" d="M231.729 35.815v116.007h-6.917V35.815Z" style="display:inline;opacity:.849865;fill:#afa08c;fill-opacity:1"/><rect width="9.989" height="58.912" y="11.297" rx="2.686" ry="2.686" style="fill:#3b332b;fill-opacity:1;stroke-width:.970411;stroke-linecap:square;stop-color:#000"/><rect width="53.047" height="3.742" x="-67.069" y="2.15" rx="1.113" ry="1.113" style="display:inline;fill:#a5947e;fill-opacity:1;stroke-width:.223198" transform="rotate(-90)"/><g transform="translate(50.993 -201.864)"><rect width="9.989" height="58.912" x="-301.721" y="88.755" rx="2.686" ry="2.686" style="fill:#3b332b;fill-opacity:1;stroke-width:.970411;stroke-linecap:square;stop-color:#000" transform="scale(-1 1)"/><rect width="53.047" height="3.742" x="-144.526" y="-299.57" rx="1.113" ry="1.113" style="display:inline;fill:#a5947e;fill-opacity:1;stroke-width:.223198" transform="scale(1 -1)rotate(90)"/></g><g transform="translate(50.993 -201.864)"><rect width="9.989" height="58.912" x="-301.705" y="254.093" rx="2.686" ry="2.686" style="fill:#3b332b;fill-opacity:1;stroke-width:.970411;stroke-linecap:square;stop-color:#000" transform="scale(-1 1)"/><rect width="53.047" height="3.742" x="-309.865" y="-299.554" rx="1.113" ry="1.113" style="display:inline;fill:#a5947e;fill-opacity:1;stroke-width:.223198" transform="scale(1 -1)rotate(90)"/></g><rect width="9.989" height="58.912" x="-168.541" y="-167.721" rx="2.686" ry="2.686" style="fill:#3b332b;fill-opacity:1;stroke-width:.970411;stroke-linecap:square;stop-color:#000" transform="rotate(90)"/><rect width="53.047" height="3.742" x="111.949" y="-166.39" rx="1.113" ry="1.113" style="display:inline;fill:#a5947e;fill-opacity:1;stroke-width:.223198"/><rect width="2.245" height="60.17" x="-156.72" y="234.395" rx="0" ry="0" style="fill:#644835;fill-opacity:1;stroke-width:2.043;stop-color:#000" transform="matrix(0 1 1 0 0 0)"/><rect width="2.245" height="60.17" x="154.473" y="69.736" rx="0" ry="0" style="fill:#644835;fill-opacity:1;stroke-width:2.043;stop-color:#000" transform="matrix(0 1 1 0 0 0)"/><g style="opacity:.849843"><path fill-opacity=".906" d="M-226.424-152.775h57.345v7.517h-57.345z" style="display:inline;fill:#afa08c;fill-opacity:1" transform="rotate(180 -.53 -90.74)"/><path fill-opacity=".906" d="M28.239-226.414h114.437v7.517H28.239Z" style="display:inline;opacity:1;fill:#afa08c;fill-opacity:1" transform="rotate(90 90.21 -91.269)"/><path d="M-155.358 216.44h12.683v12.636h-12.683z" style="fill:#afa08c;fill-opacity:1;stroke:none;stroke-width:2.25576;stroke-opacity:.905882;stop-color:#000" transform="rotate(-90 -91.269 -90.21)"/></g><path d="M18.458-161.032H8.029v318.91H18.5v-.009h55.127V147.4H18.5v-297.96h315.91v121.19h10.47v-131.705l-8.84.046c-14.176-.007-31.012.218-45.196.218 0 0-.013 12.271-.013 10.244l-53.293.004.117-10.47zM334.411-32.376v179.624h-207.43v10.47h207.43v.007h10.47V81.881h.002l.002-10.47h-.003V-32.774z" style="display:inline;fill:#453c31;fill-opacity:1;stroke-width:.684197;stroke-miterlimit:4;stroke-dasharray:none"/><path d="M166.858-158.862v5.841h67.261v-5.84zm127.414.11v5.842h42.525v39.911h5.841l-.009-45.834c-1.045.664-.019 4.102.007-.054-.075 1.22.017-.003 0-.003h-3.004c.104.007-.003 0-.006 0zm-284.04.055V10.68h5.841v-163.538h93.551v-5.84zm326.565 268.02v40.117H186.492a2 2 0 0 0-.257-.02h-56.668v5.841c71.023-.103 142.047.302 213.071 0l-.008-45.938zM10.323 69.58v85.814h60.765v-5.84H16.164V69.58Z" style="display:inline;fill:#afa08c;fill-opacity:1;stroke-width:.298414"/><path d="M336.616-55.376h5.893V52.927h-5.893z" style="display:inline;fill:#afa08c;fill-opacity:1;stroke-width:.2986;paint-order:markers stroke fill;stop-color:#000"/><g transform="translate(-7616.035 -2012.063)"><rect width="13.166" height="13.166" x="7831.152" y="1973.017" rx="1.08" ry="1.08" style="fill:#4a4134;fill-opacity:1;stroke:#453c31;stroke-width:2.69006;stroke-linecap:round;stroke-dasharray:none;stroke-opacity:1;paint-order:fill markers stroke;stop-color:#000"/><path d="M7832.177 1974.069h11.097v11.014h-11.097z" style="fill:#a3917b;fill-opacity:1;stroke:none;stroke-width:2.25041;stroke-linecap:round;stroke-linejoin:miter;stroke-dasharray:none;stroke-opacity:1;paint-order:fill markers stroke;stop-color:#000"/></g></svg>