<svg xmlns="http://www.w3.org/2000/svg" width="90.363" height="90.363" viewBox="0 0 23.908 23.908"><path d="M168.974 20.236h20.894V41.13h-20.894z" style="fill:#f1af01;fill-opacity:1;stroke:#260b08;stroke-width:3;stroke-linecap:square;stroke-linejoin:round;stroke-dasharray:none;stroke-opacity:1;stop-color:#000" transform="rotate(89.959 105.058 -62.475)"/><path d="M104.02 155c-4.917.507-3.738-5.781-3.833-6.408.227.302.471.587.803.76.407-1.233.194-2.407.295-3.61.635.377 1.106.821 1.094 1.458.68-.99.934-2.133.6-3.488.378.382.842.544.913.98.562-.78.537-1.93.912-2.59.097 1.221 1.562 1.969 1.66 3.238l.602-1.45c1.209 1.467 1.292 2.214 1.477 3.529.512-.052.632-.693.766-1.313 1.12 1.484.56 3.223.127 4.942.336-.015.538-.495.784-.82-.033 4.784-3.265 4.828-4.978 4.595 1.1-.958 2.552-1.19 2.804-3.49l-1.115.69c.211-.545.76-1.718.461-2.262-.338.669-.735 1.414-1.306 1.645.097-.665.445-1.41-.356-1.975-.157.956-.227 1.355-.85 1.923-.301-.552-.673-1.072-1.024-1.6-.347 1.036-.1 1.016-.034 2.03-.617-.703-.915-.541-1.063-1.686l-.114 1.906c-.298-.392-.93-.558-.93-.558s.404 2.54 1.745 3.314" style="fill:#1d1f1d;fill-opacity:1;fill-rule:evenodd;stroke:none;stroke-width:1.02794;stroke-linecap:round;stroke-linejoin:round;stroke-dasharray:none;stroke-opacity:1" transform="rotate(44.959 223.635 -32.38)"/></svg>