<svg height="59.173" viewBox="0 0 122.557 15.656" width="463.208" xmlns="http://www.w3.org/2000/svg"><g transform="matrix(-1 0 0 -1 46.622 -146.004)"><rect fill="#5f4630" height="13.804" ry="2.899" stroke="#301e11" stroke-linecap="round" stroke-linejoin="round" stroke-width="1.85208" width="120.705" x="-75.009" y="-160.734"/><path d="m-75.009-157.49h120.705v7.315h-120.705z" fill="#6a4e35"/><path d="m-75.743-151.258c3.2-.865 12.827-.164 9.602-.111-3.927.063-8.13.124-9.602.11m104.798 1.703c5.205-.864 20.864-.163 15.618-.11-6.387.063-13.223.124-15.618.11m3.085-2.979c4.272-.864 17.125-.163 12.819-.11-5.243.063-10.854.124-12.82.11m-3.755-5.227c5.205-.865 20.864-.164 15.618-.112-6.388.064-13.224.125-15.618.112m1.131 3.576c5.205-.865 20.864-.163 15.618-.111-6.387.063-13.223.124-15.618.11m-95.185-4.698c5.204-.864 20.863-.163 15.617-.11-6.387.063-13.223.124-15.618.11m-10.242 4.72c5.205-.865 20.864-.163 15.618-.111-6.388.063-13.223.124-15.618.11m2.139-3.234c5.205-.864 20.864-.162 15.617-.11-6.387.063-13.223.124-15.617.11m.96 9.099c5.205-.865 20.864-.163 15.617-.111-6.387.063-13.223.124-15.617.11m29.458-2.474c5.205-.864 20.864-.163 15.618-.111-6.388.063-13.223.124-15.618.111m6.032 2.238c5.205-.865 20.864-.164 15.618-.112-6.387.064-13.223.125-15.618.112m3.848-3.845c5.205-.865 20.864-.163 15.618-.111-6.387.063-13.223.124-15.618.11m-14.691-5.808c5.205-.864 20.864-.163 15.618-.111-6.388.063-13.223.124-15.618.111m-14.533 2.166c5.204-.864 20.863-.163 15.617-.11-6.387.063-13.223.124-15.618.11m4.438 3.504c5.205-.864 20.864-.163 15.618-.11-6.387.063-13.223.124-15.618.11m28.802-6.032c5.205-.865 20.864-.164 15.618-.111-6.388.063-13.223.124-15.618.11m3.244 3.135c5.205-.864 20.864-.163 15.618-.111-6.388.063-13.223.124-15.618.111m-12.978-1.596c5.205-.864 20.864-.163 15.618-.111-6.387.063-13.223.124-15.618.111m14.452 6.955c5.205-.865 20.864-.163 15.618-.111-6.387.063-13.223.124-15.618.11m10.241-3.372c5.205-.864 20.864-.163 15.617-.11-6.387.063-13.223.123-15.617.11m2.935-4.986c5.204-.864 20.864-.162 15.617-.11-6.387.063-13.223.124-15.617.11m4.114 1.898c5.205-.864 20.864-.163 15.617-.11-6.387.063-13.223.124-15.617.11m-1.259 8.002c5.204-.864 20.864-.163 15.617-.111-6.387.063-13.223.124-15.617.11m2.332-3.287c5.205-.864 20.864-.163 15.618-.11-6.388.063-13.223.123-15.618.11m5.413 1.6c5.205-.864 20.864-.163 15.617-.111-6.387.063-13.223.124-15.617.11m2.099-4.671c5.205-.864 20.864-.162 15.618-.11-6.388.063-13.223.124-15.618.11m8.338-3.646c5.206-.864 20.865-.163 15.619-.111-6.388.063-13.223.124-15.618.111m9.598 2.36c5.205-.864 20.864-.163 15.618-.11-6.388.062-13.223.123-15.618.11m-8.54 2.993c5.205-.865 20.864-.163 15.617-.111-6.387.063-13.223.124-15.617.11m1.88 4.462c5.204-.864 20.864-.163 15.617-.11-6.387.063-13.223.124-15.617.11m5.683-2.865c5.205-.864 20.864-.163 15.618-.11-6.387.062-13.223.123-15.618.11m-78.517 1.929c5.205-.864 20.864-.163 15.618-.11-6.387.063-13.223.124-15.618.11m15.008-5.504c5.205-.865 20.864-.164 15.618-.112-6.387.064-13.223.125-15.618.112" fill="#413021"/><rect fill="none" height="13.804" ry="2.899" stroke="#261c14" stroke-linecap="round" stroke-linejoin="round" stroke-width="1.85208" width="120.705" x="-75.009" y="-160.734"/></g><g fill="#38451e"><path d="m2827.857 2857.38c-.714 1.796-.599 1.201-2.121.95-1.521-.268-2.744-2.603-3.114-4.448-.353-1.862.162-3.215-.303-5.224-.447-2.007-1.858-4.652-1.283-6.421.593-1.787 3.17-2.68 5.537-2.396 2.365.303 2.24 1.838 2.146 3.691.07 1.946-.242 5.415-.273 7.425.022 2.047.136 4.645-.589 6.423z" stroke="#2c3719" stroke-width="1.587498" transform="matrix(0 -1 1 0 -2750.846 2829.606)"/><path d="m33.291 7.570316c2.73 1.6026327 3.751 2.896561 3.17 4.945829-.385 1.349758-2.24 1.281449-4.692 1.448281-3.197.218063-5.33 0-8.815.01379-2.044.0085-6.075.601644-8.014.102463-3.427-.881448-1.08-3.527762-1.001-4.2055963.123-1.0738952.536-1.1704473 2.35-1.6538644 1.484-.3954036 2.66-1.0298885 4.187-.9412183 1.49.086043 4.775 1.0548476 6.116.8387549 1.457-.2351403 5.43-1.2919584 6.698-.5477851z" stroke="#273116" stroke-linecap="square" stroke-linejoin="round" stroke-width="1.5875"/></g></svg>