<svg xmlns="http://www.w3.org/2000/svg" xmlns:xlink="http://www.w3.org/1999/xlink" width="308.42" height="346.118" viewBox="0 0 81.603 91.577"><defs><linearGradient xlink:href="#a" id="c" x1="14.663" x2="334.945" y1="228.144" y2="228.144" gradientTransform="matrix(0 -.22182 .22169 0 77.033 106.356)" gradientUnits="userSpaceOnUse" spreadMethod="pad"/><linearGradient id="a"><stop offset="0" style="stop-color:#363430;stop-opacity:1"/><stop offset="1" style="stop-color:#45433b;stop-opacity:1"/></linearGradient><linearGradient xlink:href="#b" id="d" x1="1365.238" x2="1434.008" y1="3699.814" y2="3699.814" gradientTransform="matrix(-.83836 0 0 -.83787 1301.625 3146.648)" gradientUnits="userSpaceOnUse"/><linearGradient id="b"><stop offset="0" style="stop-color:#000;stop-opacity:.4"/><stop offset="1" style="stop-color:#000;stop-opacity:.30000001"/></linearGradient></defs><path d="M80.321 31.097h74.84c.899 0 1.627.728 1.627 1.627v54.53s3.067 17.438-22.092 17.438-15.124-40.096-40.78-40.096c-12.395 0-15.198-27.694-15.22-31.868a1.62 1.62 0 0 1 1.625-1.631" class="cls-7" style="fill:#684f2c;fill-opacity:1;fill-rule:evenodd;stroke:none;stroke-width:3.403;stroke-linecap:round;stroke-linejoin:round;stroke-miterlimit:10;stroke-dasharray:none" transform="translate(-76.994 -14.817)"/><g style="fill:#a97c3d;fill-opacity:1;stroke:#291e0f;stroke-width:7.15891;stroke-dasharray:none;stroke-opacity:1"><path d="m187.595 98.13 145.072-83.806M334.209 8.56a5.97 5.97 0 0 0-4.527.598l-145.07 83.807a5.966 5.966 0 0 0-2.182 8.15 5.966 5.966 0 0 0 8.15 2.182L335.65 19.49a5.966 5.966 0 0 0 2.182-8.15 5.97 5.97 0 0 0-3.623-2.78" style="color:#000;fill:#a97c3d;fill-opacity:1;fill-rule:evenodd;stroke:#291e0f;stroke-width:7.15891;stroke-linecap:round;stroke-linejoin:round;stroke-dasharray:none;stroke-opacity:1" transform="matrix(0 -.22182 .22169 0 .039 91.539)"/></g><g style="fill:#a97c3d;fill-opacity:1;stroke:#291e0f;stroke-width:7.15891;stroke-dasharray:none;stroke-opacity:1"><path d="M189.1 94.994 334.172 178.8M187.559 89.23a5.97 5.97 0 0 0-3.625 2.78 5.966 5.966 0 0 0 2.181 8.15l145.073 83.807a5.966 5.966 0 0 0 8.15-2.182 5.966 5.966 0 0 0-2.182-8.15L192.084 89.828a5.97 5.97 0 0 0-4.525-.598" style="color:#000;fill:#a97c3d;fill-opacity:1;fill-rule:evenodd;stroke:#291e0f;stroke-width:7.15891;stroke-linecap:round;stroke-linejoin:round;stroke-dasharray:none;stroke-opacity:1" transform="matrix(0 -.22182 .22169 0 2.716 91.44)"/></g><g style="fill:#a97c3d;fill-opacity:1;stroke:#291e0f;stroke-width:7.15891;stroke-dasharray:none;stroke-opacity:1"><path d="m98.308 170.305 145.071 83.806M96.766 164.541a5.97 5.97 0 0 0-3.623 2.78 5.966 5.966 0 0 0 2.181 8.15l145.07 83.806a5.966 5.966 0 0 0 8.15-2.181 5.966 5.966 0 0 0-2.18-8.15l-145.071-83.807a5.97 5.97 0 0 0-4.527-.598" style="color:#000;fill:#a97c3d;fill-opacity:1;fill-rule:evenodd;stroke:#291e0f;stroke-width:7.15891;stroke-linecap:round;stroke-linejoin:round;stroke-dasharray:none;stroke-opacity:1" transform="matrix(0 -.22182 .22169 0 .039 91.539)"/></g><path d="M105.438 42.216H81.776c-.797 0-1.444.328-1.444.732v2.545c0 .405.647.733 1.444.733h25.258c.977 0 1.672-.483 1.375-.955l-1.596-2.545c-.19-.304-.747-.51-1.375-.51" class="cls-5" style="fill:#45403b;fill-rule:evenodd;stroke:#171615;stroke-width:2.59549px;stroke-linecap:round;stroke-linejoin:round;stroke-miterlimit:10" transform="translate(-76.994 -14.817)"/><path d="M80.321 31.097h74.84c.899 0 1.627.728 1.627 1.627v54.53c0 3.809 2.734 17.512-22.092 17.438-25.158-.075-15.124-40.096-40.78-40.096-12.395 0-15.198-27.694-15.22-31.868a1.62 1.62 0 0 1 1.625-1.631" class="cls-7" style="fill:none;fill-opacity:1;fill-rule:evenodd;stroke:#171615;stroke-width:3.403;stroke-linecap:round;stroke-linejoin:round;stroke-miterlimit:10;stroke-dasharray:none" transform="translate(-76.994 -14.817)"/><path d="M82.234 17v13.542c0 .652.317 1.18.708 1.18h71.194c.391 0 .709-.528.709-1.18V17c0-.652-.317-1.18-.709-1.18H82.942c-.39 0-.708.529-.708 1.18" class="cls-5" style="fill:#363430;fill-opacity:1;fill-rule:evenodd;stroke:#171615;stroke-width:2.00706;stroke-linecap:round;stroke-linejoin:round;stroke-miterlimit:10;stroke-dasharray:none" transform="translate(-76.994 -14.817)"/><path d="M102.355 37.694h-.94v-.248h.3v-.752h-.3v-.232q.066 0 .13-.009.066-.008.105-.027.046-.023.07-.062.027-.039.03-.096h.312v1.178h.293zm1.29-.712q0 .185-.03.323-.029.139-.094.231-.065.093-.169.14t-.255.048-.254-.047q-.104-.048-.17-.143-.065-.093-.095-.23t-.03-.32q0-.19.03-.323.03-.134.097-.23.067-.095.172-.141.105-.047.25-.047.154 0 .256.049.103.048.17.143.064.094.093.231.03.138.03.316m-.358 0q0-.263-.044-.37-.043-.106-.146-.106-.102 0-.146.107-.044.106-.044.371 0 .26.044.369t.146.108.146-.108q.044-.109.044-.37m1.585-.079q0 .182-.042.333-.042.15-.131.258-.092.11-.228.17-.136.058-.334.058-.067 0-.14-.009-.072-.009-.096-.015v-.28h.028q.027.013.075.029.05.015.137.015.07 0 .135-.018.065-.02.111-.06.05-.042.082-.105t.044-.157q-.077.048-.143.073t-.162.025q-.074 0-.141-.019-.067-.02-.123-.061-.073-.057-.116-.147t-.043-.234q0-.11.037-.204.038-.095.108-.165.069-.069.169-.108t.224-.039.22.035.165.107q.08.08.122.209.042.128.042.31m-.354-.053q0-.116-.02-.19-.019-.076-.054-.118-.025-.03-.057-.044-.03-.013-.067-.013-.031 0-.062.013-.03.013-.057.044-.025.028-.042.081t-.017.118q0 .069.017.113t.049.071q.03.026.07.036.039.01.086.01.04 0 .082-.01t.07-.023v-.03q.002-.02.002-.058m1.475.874q-.118 0-.224-.026t-.174-.06v-.283h.027l.055.04q.03.022.085.046.047.022.105.038.06.015.128.015.07 0 .124-.022t.054-.07q0-.037-.024-.056-.025-.019-.097-.036-.038-.01-.096-.02t-.104-.026q-.126-.039-.19-.115-.063-.078-.063-.203 0-.071.033-.135t.097-.113.158-.078q.094-.028.213-.028.113 0 .207.023.095.022.16.053v.271h-.027q-.017-.013-.054-.035-.038-.023-.073-.039-.042-.02-.095-.032-.051-.012-.106-.012-.072 0-.123.025-.05.025-.05.066 0 .036.025.057t.108.041l.099.021q.056.01.107.027.116.037.175.11.06.071.06.19 0 .076-.035.145t-.1.115q-.069.05-.162.078t-.223.028m1.676-.03h-.334v-.118q-.087.072-.16.11-.072.038-.172.038-.16 0-.25-.1-.089-.102-.089-.304v-.699h.337v.532q0 .083.004.136.005.053.02.089.016.033.047.05.033.018.09.018.036 0 .083-.018.05-.017.09-.046v-.76h.334zm.782.029q-.132 0-.243-.034-.11-.033-.191-.103-.08-.07-.125-.175-.045-.106-.045-.249 0-.154.049-.262.048-.108.131-.177.08-.067.189-.099.108-.032.226-.032.089 0 .178.02.088.02.178.066v.286h-.043q-.02-.019-.05-.042-.028-.023-.063-.042t-.082-.033q-.046-.015-.102-.015-.128 0-.198.09t-.07.24q0 .161.074.24.076.08.2.08.063 0 .11-.014.048-.015.083-.035.033-.02.057-.04l.041-.04h.043v.287l-.067.028q-.037.016-.076.027-.049.013-.092.02t-.112.008m1.58-.029h-.398l-.29-.467-.052.07v.397h-.334v-1.486h.334v.833l.317-.42h.395l-.376.463zm.431.03q-.118 0-.224-.026t-.174-.06v-.283h.027l.055.04q.03.022.085.046.047.022.105.038.06.015.128.015.07 0 .124-.022t.054-.07q0-.037-.024-.056-.025-.019-.097-.036-.038-.01-.096-.02t-.104-.026q-.126-.039-.19-.115-.063-.078-.063-.203 0-.071.033-.135t.097-.113.158-.078q.095-.028.213-.028.113 0 .207.023.095.022.16.053v.271h-.027q-.017-.013-.054-.035-.038-.023-.073-.039-.042-.02-.095-.032-.051-.012-.106-.012-.072 0-.123.025-.05.025-.05.066 0 .036.025.057t.108.041l.099.021q.056.01.108.027.115.037.174.11.06.071.06.19 0 .076-.035.145t-.1.115q-.069.05-.162.078t-.223.028m1.844-.31v-.223q-.085.008-.137.015t-.103.024q-.044.015-.07.047-.023.03-.023.082 0 .075.04.104.041.028.12.028.044 0 .09-.02t.083-.057m0 .166-.062.052q-.027.023-.072.046-.045.022-.088.033t-.119.012q-.142 0-.237-.096-.093-.095-.093-.24 0-.12.048-.193.047-.074.137-.117t.217-.061q.126-.017.271-.027v-.006q0-.088-.066-.122-.065-.034-.196-.034-.059 0-.138.022-.08.02-.155.054h-.028v-.259q.05-.014.16-.033t.224-.02q.277 0 .403.093.127.091.127.28v.73h-.333zm.99.135q-.204 0-.297-.084t-.093-.275v-.502h-.128v-.233h.128v-.306h.334v.306h.322v.233h-.321v.479q.001.042.016.075.013.034.047.054t.099.019q.027 0 .07-.011.043-.012.06-.021h.03v.235q-.055.015-.116.022-.061.009-.15.009m2.448-.021h-.355v-.943l-.26.609h-.243l-.259-.609v.943h-.336v-1.422h.412l.315.702.314-.702h.412zm1.305-.536q0 .265-.146.418-.144.151-.408.151-.263 0-.41-.151-.144-.153-.144-.418 0-.267.145-.418.146-.152.409-.152t.408.153.146.417m-.343.002q0-.095-.017-.158-.015-.064-.043-.103-.03-.04-.066-.055-.038-.016-.085-.016-.045 0-.082.014-.036.013-.067.053-.028.037-.045.102-.018.065-.018.163t.017.16q.016.06.042.096t.067.054.088.018q.04 0 .082-.018t.066-.051q.03-.041.045-.098.016-.059.016-.16m1.376.534h-.938v-.22l.512-.601h-.489v-.252h.904v.217l-.512.6h.523zm.764-.28v-.223q-.085.008-.137.015t-.104.024q-.044.015-.068.047-.024.03-.024.082 0 .075.04.104t.12.028q.044 0 .09-.02t.083-.057m0 .166-.062.052q-.027.023-.073.046-.045.022-.088.033t-.118.012q-.142 0-.237-.096-.093-.095-.093-.24 0-.12.047-.193.048-.074.138-.117t.217-.061q.126-.017.271-.027v-.006q0-.088-.066-.122-.065-.034-.196-.034-.059 0-.138.022-.08.02-.155.054h-.029v-.259q.05-.014.16-.033.112-.02.224-.02.277 0 .403.093.127.091.127.28v.73h-.332zm1.3-.642h-.028q-.019-.007-.055-.01-.036-.004-.08-.004-.053 0-.111.015-.057.016-.112.037v.718h-.334v-1.073h.334v.154l.063-.052q.041-.033.075-.052.036-.022.084-.037.048-.016.091-.016h.037l.036.003zm.539.777q-.205 0-.298-.084t-.093-.275v-.502h-.128v-.233h.128v-.306h.334v.306h.322v.233h-.322v.38l.001.099q.001.042.016.075.013.034.046.054.035.019.1.019.026 0 .07-.011.043-.012.06-.021h.03v.235q-.055.015-.116.022-.062.009-.15.009m2.089-.994q0 .1-.032.189-.031.09-.09.15-.037.037-.08.069-.044.031-.096.053t-.115.034q-.061.013-.138.013h-.187v.465h-.357v-1.422h.552q.123 0 .212.023.09.022.163.07.08.054.124.144.044.089.044.212m-.367.008q0-.06-.029-.103-.029-.044-.069-.06-.05-.022-.097-.025-.046-.004-.125-.004h-.05v.426h.119q.045-.002.079-.007.028-.005.06-.018.032-.015.05-.032.036-.035.048-.074.014-.038.014-.103m.873.965h-.335v-1.073h.335zm.01-1.225h-.354v-.261h.354zm.837.945v-.223q-.085.008-.137.015t-.103.024q-.044.015-.07.047-.023.03-.023.082 0 .075.04.104.041.028.12.028.044 0 .09-.02t.083-.057m0 .166-.062.052q-.026.023-.072.046-.045.022-.088.033t-.119.012q-.142 0-.237-.096-.093-.095-.093-.24 0-.12.048-.193.047-.074.137-.117t.217-.061q.126-.017.271-.027v-.006q0-.088-.066-.122-.065-.034-.195-.034-.06 0-.139.022-.08.02-.155.054h-.028v-.259q.05-.014.16-.033.111-.02.224-.02.277 0 .403.093.127.091.127.28v.73h-.333zm1.585.114h-.336v-.532q0-.065-.006-.129-.005-.065-.02-.095-.017-.037-.05-.052-.032-.016-.086-.016-.041 0-.083.015t-.09.049v.76h-.334v-1.073h.334v.119q.082-.07.16-.11.078-.038.173-.038.164 0 .25.104.088.103.088.3zm1.277-.536q0 .265-.145.418-.144.151-.409.151-.263 0-.409-.151-.145-.153-.145-.418 0-.267.145-.418.146-.152.409-.152.264 0 .409.153.145.152.145.417m-.343.002q0-.095-.016-.158-.015-.064-.043-.103-.03-.04-.067-.055-.037-.016-.085-.016-.045 0-.081.014-.037.013-.067.053-.029.037-.046.102t-.017.163.016.16q.016.06.042.096t.067.054.089.018q.04 0 .08-.018.043-.017.068-.051.03-.041.045-.098.015-.059.015-.16m1.726.562q-.32 0-.508-.193-.188-.194-.188-.545 0-.338.188-.538.189-.202.509-.202.085 0 .153.01t.13.026q.048.015.106.04.057.024.092.043v.339h-.036l-.065-.055q-.04-.032-.089-.063-.05-.03-.11-.051-.059-.022-.124-.022-.077 0-.142.024t-.122.085q-.054.054-.088.147-.034.092-.034.218 0 .133.036.224.035.09.092.145.056.053.123.077.07.024.137.024.07 0 .135-.023.064-.024.108-.052.047-.03.084-.06.036-.03.063-.055h.032v.334l-.09.042q-.052.023-.107.04-.066.02-.125.03t-.16.01m1.703-.564q0 .265-.145.418-.144.151-.409.151-.263 0-.409-.151-.145-.153-.145-.418 0-.267.145-.418.146-.152.409-.152.264 0 .409.153.145.152.145.417m-.343.002q0-.095-.016-.158-.015-.064-.043-.103-.03-.04-.067-.055-.037-.016-.085-.016-.045 0-.081.014-.037.013-.067.053-.029.037-.046.102t-.017.163.016.16q.016.06.042.096t.067.054.089.018q.04 0 .08-.018.043-.017.068-.051.03-.041.045-.098.015-.059.015-.16zm1.525.534h-.336v-.532q0-.065-.006-.129-.005-.065-.019-.095-.017-.037-.05-.052-.032-.016-.087-.016-.04 0-.083.015-.042.015-.09.049v.76h-.334v-1.073h.335v.119q.082-.07.16-.11.077-.038.172-.038.164 0 .251.104.087.103.087.3zm.774.029q-.133 0-.244-.034-.11-.033-.19-.103t-.126-.175q-.045-.106-.045-.249 0-.154.05-.262.048-.108.13-.177.081-.067.19-.099.108-.032.225-.032.09 0 .178.02.089.02.179.066v.286h-.043q-.02-.019-.05-.042-.029-.023-.063-.042-.036-.02-.082-.033-.046-.015-.102-.015-.128 0-.199.09-.07.089-.07.24 0 .161.075.24.075.08.2.08.062 0 .11-.014t.082-.035.058-.04l.04-.04h.044v.287l-.067.028q-.037.016-.077.027-.048.013-.091.02t-.112.008m1.054 0q-.303 0-.466-.146-.161-.145-.161-.413 0-.263.15-.42.152-.156.423-.156.246 0 .37.133.125.132.125.38v.12h-.733q.005.075.032.125.026.05.07.08.043.03.1.043t.126.012q.058 0 .114-.012.057-.014.104-.035.04-.018.075-.039t.057-.037h.036v.276l-.076.03q-.033.014-.093.028-.054.014-.112.022-.058.009-.14.009zm.111-.703q-.003-.106-.05-.162-.045-.055-.14-.055-.098 0-.154.058-.054.058-.06.159zm1.222-.082h-.028q-.019-.007-.055-.01-.037-.004-.08-.004-.053 0-.111.015-.058.016-.112.037v.718h-.334V36.62h.334v.154l.063-.052q.041-.033.075-.052.036-.022.084-.037.048-.016.091-.016h.037l.036.003zm.539.777q-.205 0-.298-.084t-.093-.275v-.502h-.128v-.233h.128v-.306h.334v.306h.322v.233h-.322v.38l.001.099q.001.042.016.075.013.034.046.054.035.019.1.019.026 0 .07-.011.043-.012.06-.021h.03v.235q-.055.015-.116.022-.062.009-.15.009m1.431-.557q0 .265-.145.418-.144.151-.409.151-.262 0-.408-.151-.146-.153-.146-.418 0-.267.146-.418.146-.152.408-.152.264 0 .41.153.144.152.144.417m-.343.002q0-.095-.016-.159-.015-.063-.043-.102-.03-.04-.067-.055-.037-.016-.085-.016-.045 0-.08.014-.037.013-.068.053-.028.037-.046.102t-.017.163.016.16q.017.06.042.096.027.037.067.054t.09.018q.04 0 .08-.018.042-.017.067-.051.03-.041.045-.099t.015-.16zm2.332.534h-.344l-.548-.991v.991h-.327v-1.422h.439l.453.815v-.815h.327zm1.299-.536q0 .265-.145.418-.145.151-.41.151-.262 0-.408-.151-.145-.153-.145-.418 0-.267.145-.418.146-.152.409-.152t.409.153.145.417m-.343.002q0-.095-.016-.159t-.043-.102q-.03-.04-.067-.055-.037-.016-.085-.016-.045 0-.081.014-.037.013-.067.053-.029.037-.046.102t-.017.163.016.16q.016.06.042.096t.067.054.089.018q.04 0 .08-.018.043-.017.068-.051.03-.041.045-.099t.015-.16zm.867.534h-.338v-.375h.338zm1.836 0h-.94v-.248h.3v-.752h-.3v-.232q.066 0 .13-.009.066-.008.105-.027.046-.023.07-.062.027-.039.03-.096h.312v1.178h.293zm1.308 0H142.3v-.232q.132-.105.237-.199.106-.093.187-.177.104-.11.15-.193.047-.083.047-.171 0-.1-.059-.152-.06-.054-.165-.054-.055 0-.103.014-.048.013-.098.034-.048.022-.083.045l-.051.034h-.028v-.31q.06-.029.188-.058t.247-.03q.253 0 .383.112t.13.317q0 .126-.059.247-.059.12-.197.26-.086.084-.167.151-.08.066-.117.094h.602z" aria-label="109 sucks at Mozart Piano Concerto No. 12" style="font-weight:700;font-size:1.95609px;font-family:Tahoma;-inkscape-font-specification:&quot;Tahoma Bold&quot;;fill:#f3a610;stroke-width:.0898875;stroke-linecap:square;stroke-linejoin:round" transform="matrix(1.01444 0 0 .98577 -76.994 -14.817)"/><path d="M100.169 33.357h54.792c.657 0 1.19.678 1.19 1.513v50.717c0 12.355 1.744 16.092-16.173 16.218-18.419.129-11.073-37.291-29.857-37.291-9.074 0-11.126-25.757-11.142-29.64 0-.837.531-1.517 1.19-1.517" class="cls-5" style="fill:url(#c);fill-rule:evenodd;stroke:#171615;stroke-width:2.59565;stroke-linecap:round;stroke-linejoin:round;stroke-miterlimit:10;stroke-dasharray:none" transform="translate(-76.994 -14.817)"/><path d="M100.169 33.357h54.792c.657 0 1.19.678 1.19 1.513v50.717s2.246 16.218-16.173 16.218-11.073-37.291-29.857-37.291c-9.074 0-11.126-25.757-11.142-29.64 0-.837.531-1.517 1.19-1.517" class="cls-5" style="fill:none;fill-rule:evenodd;stroke:#171615;stroke-width:2.59565;stroke-linecap:round;stroke-linejoin:round;stroke-miterlimit:10;stroke-dasharray:none" transform="translate(-76.994 -14.817)"/><path d="m99.603 42.474 2.44 9.114h54.607v-8.275l.41-1.532H99.408Z" style="fill:url(#d);fill-rule:evenodd;stroke:none;stroke-width:2.59564;stroke-linecap:round;stroke-linejoin:round;stroke-dasharray:none;stroke-opacity:1;stop-color:#000" transform="translate(-76.994 -14.817)"/><path d="M100.17 33.358h54.79c.658 0 1.191.677 1.191 1.512v50.717c0 9.29 1.556 16.271-16.173 16.218-18.419-.055-11.073-37.291-29.857-37.291-9.073 0-11.126-25.757-11.142-29.64 0-.837.531-1.516 1.19-1.516" class="cls-5" style="fill:none;fill-rule:evenodd;stroke:#171615;stroke-width:2.59564;stroke-linecap:round;stroke-linejoin:round;stroke-miterlimit:10;stroke-dasharray:none" transform="translate(-76.994 -14.817)"/><path d="M403.595 44.469h-44.613v285.525h44.613" class="cls-6" style="fill:#ccc;fill-opacity:1;fill-rule:evenodd;stroke:#171615;stroke-width:10.1746;stroke-linecap:round;stroke-linejoin:round;stroke-miterlimit:10;stroke-dasharray:none;stroke-opacity:1" transform="matrix(0 -.22182 .22169 0 1.431 91.568)"/><path d="M61.18 173.755v-9.929h65.737v9.93" style="fill:#d9d9d9;fill-opacity:1;fill-rule:evenodd;stroke:#171615;stroke-width:2.6;stroke-linejoin:round" transform="rotate(180 67.797 87.797)"/><path d="M147.896 16.858v9.521M144.794 16.858v9.521" style="fill:#ccc;fill-opacity:1;fill-rule:evenodd;stroke:#171615;stroke-width:.78;stroke-linecap:round;stroke-linejoin:round;stroke-dasharray:none;stroke-opacity:1" transform="translate(-76.994 -14.817)"/><path d="M141.687 16.143v10.216" style="fill:#ccc;fill-opacity:1;fill-rule:evenodd;stroke:#171615;stroke-width:.807829;stroke-linecap:round;stroke-linejoin:round;stroke-dasharray:none;stroke-opacity:1" transform="translate(-76.994 -14.817)"/><path d="M138.591 16.858v9.521M135.49 16.858v9.521M132.388 16.858v9.521" style="fill:#ccc;fill-opacity:1;fill-rule:evenodd;stroke:#171615;stroke-width:.78;stroke-linecap:round;stroke-linejoin:round;stroke-dasharray:none;stroke-opacity:1" transform="translate(-76.994 -14.817)"/><path d="M129.284 16.143v10.216" style="fill:#ccc;fill-opacity:1;fill-rule:evenodd;stroke:#171615;stroke-width:.807829;stroke-linecap:round;stroke-linejoin:round;stroke-dasharray:none;stroke-opacity:1" transform="translate(-76.994 -14.817)"/><path d="M126.185 16.858v9.521M123.084 16.858v9.521" style="fill:#ccc;fill-opacity:1;fill-rule:evenodd;stroke:#171615;stroke-width:.78;stroke-linecap:round;stroke-linejoin:round;stroke-dasharray:none;stroke-opacity:1" transform="translate(-76.994 -14.817)"/><path d="M119.982 16.143v10.216" style="fill:#ccc;fill-opacity:1;fill-rule:evenodd;stroke:#171615;stroke-width:.807829;stroke-linecap:round;stroke-linejoin:round;stroke-dasharray:none;stroke-opacity:1" transform="translate(-76.994 -14.817)"/><path d="M116.88 16.858v9.521" style="fill:#ccc;fill-opacity:1;fill-rule:evenodd;stroke:#171615;stroke-width:.78;stroke-linecap:round;stroke-linejoin:round;stroke-dasharray:none;stroke-opacity:1" transform="translate(-76.994 -14.817)"/><path d="M107.58 16.143v10.216" style="fill:#ccc;fill-opacity:1;fill-rule:evenodd;stroke:#171615;stroke-width:.807829;stroke-linecap:round;stroke-linejoin:round;stroke-dasharray:none;stroke-opacity:1" transform="translate(-76.994 -14.817)"/><path d="M104.475 16.858v9.521M101.373 16.858v9.521" style="fill:#ccc;fill-opacity:1;fill-rule:evenodd;stroke:#171615;stroke-width:.78;stroke-linecap:round;stroke-linejoin:round;stroke-dasharray:none;stroke-opacity:1" transform="translate(-76.994 -14.817)"/><path d="M98.277 16.143v10.216" style="fill:#ccc;fill-opacity:1;fill-rule:evenodd;stroke:#171615;stroke-width:.807829;stroke-linecap:round;stroke-linejoin:round;stroke-dasharray:none;stroke-opacity:1" transform="translate(-76.994 -14.817)"/><path d="M95.17 16.858v9.521M110.678 16.858v9.521M113.78 16.858v9.521" style="fill:#ccc;fill-opacity:1;fill-rule:evenodd;stroke:#171615;stroke-width:.78;stroke-linecap:round;stroke-linejoin:round;stroke-dasharray:none;stroke-opacity:1" transform="translate(-76.994 -14.817)"/><g style="stroke-width:1.17045"><path d="M336.091-13.447v42.95" style="fill:#ccc;fill-opacity:1;fill-rule:evenodd;stroke:#171615;stroke-width:3.51745;stroke-linecap:round;stroke-linejoin:round;stroke-dasharray:none;stroke-opacity:1" transform="matrix(.22176 0 0 .23785 -56.345 4.892)"/><path d="M3647.689-1370.619h2.267v6.795h-2.267z" style="fill:#171615;fill-opacity:1;fill-rule:evenodd;stroke:#171615;stroke-width:.269652;stroke-linecap:round;stroke-linejoin:round;stroke-dasharray:none;stroke-opacity:1" transform="matrix(-.83766 0 0 -.89948 3074.663 -1221.498)"/></g><g style="stroke-width:1.17045"><path d="M336.091-13.447v42.95" style="fill:#ccc;fill-opacity:1;fill-rule:evenodd;stroke:#171615;stroke-width:3.51745;stroke-linecap:round;stroke-linejoin:round;stroke-dasharray:none;stroke-opacity:1" transform="matrix(.22176 0 0 .23785 -59.15 4.892)"/><path d="M3647.689-1370.619h2.267v6.795h-2.267z" style="fill:#171615;fill-opacity:1;fill-rule:evenodd;stroke:#171615;stroke-width:.269652;stroke-linecap:round;stroke-linejoin:round;stroke-dasharray:none;stroke-opacity:1" transform="matrix(-.83766 0 0 -.89948 3071.858 -1221.498)"/></g><g style="stroke-width:1.17045"><path d="M336.091-13.447v42.95" style="fill:#ccc;fill-opacity:1;fill-rule:evenodd;stroke:#171615;stroke-width:3.51745;stroke-linecap:round;stroke-linejoin:round;stroke-dasharray:none;stroke-opacity:1" transform="matrix(.22176 0 0 .23785 -61.955 4.892)"/><path d="M3647.689-1370.619h2.267v6.795h-2.267z" style="fill:#171615;fill-opacity:1;fill-rule:evenodd;stroke:#171615;stroke-width:.269652;stroke-linecap:round;stroke-linejoin:round;stroke-dasharray:none;stroke-opacity:1" transform="matrix(-.83766 0 0 -.89948 3069.053 -1221.498)"/></g><g style="stroke-width:1.17045"><path d="M336.091-13.447v42.95" style="fill:#ccc;fill-opacity:1;fill-rule:evenodd;stroke:#171615;stroke-width:3.51745;stroke-linecap:round;stroke-linejoin:round;stroke-dasharray:none;stroke-opacity:1" transform="matrix(.22176 0 0 .23785 -3.637 5.083)"/><path d="M3647.689-1370.619h2.267v6.795h-2.267z" style="fill:#171615;fill-opacity:1;fill-rule:evenodd;stroke:#171615;stroke-width:.269652;stroke-linecap:round;stroke-linejoin:round;stroke-dasharray:none;stroke-opacity:1" transform="matrix(-.83766 0 0 -.89948 3127.37 -1221.308)"/></g><g style="stroke-width:1.17045"><path d="M336.091-13.447v42.95" style="fill:#ccc;fill-opacity:1;fill-rule:evenodd;stroke:#171615;stroke-width:3.51745;stroke-linecap:round;stroke-linejoin:round;stroke-dasharray:none;stroke-opacity:1" transform="matrix(.22176 0 0 .23785 -6.738 5.083)"/><path d="M3647.689-1370.619h2.267v6.795h-2.267z" style="fill:#171615;fill-opacity:1;fill-rule:evenodd;stroke:#171615;stroke-width:.269652;stroke-linecap:round;stroke-linejoin:round;stroke-dasharray:none;stroke-opacity:1" transform="matrix(-.83766 0 0 -.89948 3124.27 -1221.308)"/></g><g style="stroke-width:1.17045"><path d="M336.091-13.447v42.95" style="fill:#ccc;fill-opacity:1;fill-rule:evenodd;stroke:#171615;stroke-width:3.51745;stroke-linecap:round;stroke-linejoin:round;stroke-dasharray:none;stroke-opacity:1" transform="matrix(.22176 0 0 .23785 -12.94 5.083)"/><path d="M3647.689-1370.619h2.267v6.795h-2.267z" style="fill:#171615;fill-opacity:1;fill-rule:evenodd;stroke:#171615;stroke-width:.269652;stroke-linecap:round;stroke-linejoin:round;stroke-dasharray:none;stroke-opacity:1" transform="matrix(-.83766 0 0 -.89948 3118.069 -1221.308)"/></g><g style="stroke-width:1.17045"><path d="M336.091-13.447v42.95" style="fill:#ccc;fill-opacity:1;fill-rule:evenodd;stroke:#171615;stroke-width:3.51745;stroke-linecap:round;stroke-linejoin:round;stroke-dasharray:none;stroke-opacity:1" transform="matrix(.22176 0 0 .23785 -16.04 5.083)"/><path d="M3647.689-1370.619h2.267v6.795h-2.267z" style="fill:#171615;fill-opacity:1;fill-rule:evenodd;stroke:#171615;stroke-width:.269652;stroke-linecap:round;stroke-linejoin:round;stroke-dasharray:none;stroke-opacity:1" transform="matrix(-.83766 0 0 -.89948 3114.968 -1221.308)"/></g><g style="stroke-width:1.17045"><path d="M336.091-13.447v42.95" style="fill:#ccc;fill-opacity:1;fill-rule:evenodd;stroke:#171615;stroke-width:3.51745;stroke-linecap:round;stroke-linejoin:round;stroke-dasharray:none;stroke-opacity:1" transform="matrix(.22176 0 0 .23785 -19.141 5.083)"/><path d="M3647.689-1370.619h2.267v6.795h-2.267z" style="fill:#171615;fill-opacity:1;fill-rule:evenodd;stroke:#171615;stroke-width:.269652;stroke-linecap:round;stroke-linejoin:round;stroke-dasharray:none;stroke-opacity:1" transform="matrix(-.83766 0 0 -.89948 3111.867 -1221.308)"/></g><path d="M126.183 16.143v10.216" style="fill:#ccc;fill-opacity:1;fill-rule:evenodd;stroke:#171615;stroke-width:.807829;stroke-linecap:round;stroke-linejoin:round;stroke-dasharray:none;stroke-opacity:1" transform="translate(-76.994 -14.817)"/><path d="M-127.135-25.85h1.899v5.697h-1.899z" style="fill:#171615;fill-opacity:1;fill-rule:evenodd;stroke:#171615;stroke-width:.226;stroke-linecap:round;stroke-linejoin:round;stroke-dasharray:none;stroke-opacity:1" transform="rotate(180 -38.497 -7.408)"/><path d="M123.083 16.143v10.216" style="fill:#ccc;fill-opacity:1;fill-rule:evenodd;stroke:#171615;stroke-width:.807829;stroke-linecap:round;stroke-linejoin:round;stroke-dasharray:none;stroke-opacity:1" transform="translate(-76.994 -14.817)"/><path d="M-124.033-25.85h1.899v5.697h-1.899z" style="fill:#171615;fill-opacity:1;fill-rule:evenodd;stroke:#171615;stroke-width:.226;stroke-linecap:round;stroke-linejoin:round;stroke-dasharray:none;stroke-opacity:1" transform="rotate(180 -38.497 -7.408)"/><path d="M116.881 16.143v10.216" style="fill:#ccc;fill-opacity:1;fill-rule:evenodd;stroke:#171615;stroke-width:.807829;stroke-linecap:round;stroke-linejoin:round;stroke-dasharray:none;stroke-opacity:1" transform="translate(-76.994 -14.817)"/><path d="M-117.83-25.85h1.899v5.697h-1.899z" style="fill:#171615;fill-opacity:1;fill-rule:evenodd;stroke:#171615;stroke-width:.226;stroke-linecap:round;stroke-linejoin:round;stroke-dasharray:none;stroke-opacity:1" transform="rotate(180 -38.497 -7.408)"/><path d="M113.78 16.143v10.216" style="fill:#ccc;fill-opacity:1;fill-rule:evenodd;stroke:#171615;stroke-width:.807829;stroke-linecap:round;stroke-linejoin:round;stroke-dasharray:none;stroke-opacity:1" transform="translate(-76.994 -14.817)"/><path d="M-114.729-25.85h1.899v5.697h-1.899z" style="fill:#171615;fill-opacity:1;fill-rule:evenodd;stroke:#171615;stroke-width:.226;stroke-linecap:round;stroke-linejoin:round;stroke-dasharray:none;stroke-opacity:1" transform="rotate(180 -38.497 -7.408)"/><path d="M110.68 16.143v10.216" style="fill:#ccc;fill-opacity:1;fill-rule:evenodd;stroke:#171615;stroke-width:.807829;stroke-linecap:round;stroke-linejoin:round;stroke-dasharray:none;stroke-opacity:1" transform="translate(-76.994 -14.817)"/><path d="M-111.627-25.85h1.899v5.697h-1.899z" style="fill:#171615;fill-opacity:1;fill-rule:evenodd;stroke:#171615;stroke-width:.226;stroke-linecap:round;stroke-linejoin:round;stroke-dasharray:none;stroke-opacity:1" transform="rotate(180 -38.497 -7.408)"/><path d="M104.479 16.143v10.216" style="fill:#ccc;fill-opacity:1;fill-rule:evenodd;stroke:#171615;stroke-width:.807829;stroke-linecap:round;stroke-linejoin:round;stroke-dasharray:none;stroke-opacity:1" transform="translate(-76.994 -14.817)"/><path d="M-105.425-25.85h1.899v5.697h-1.899z" style="fill:#171615;fill-opacity:1;fill-rule:evenodd;stroke:#171615;stroke-width:.226;stroke-linecap:round;stroke-linejoin:round;stroke-dasharray:none;stroke-opacity:1" transform="rotate(180 -38.497 -7.408)"/><path d="M101.378 16.143v10.216" style="fill:#ccc;fill-opacity:1;fill-rule:evenodd;stroke:#171615;stroke-width:.807829;stroke-linecap:round;stroke-linejoin:round;stroke-dasharray:none;stroke-opacity:1" transform="translate(-76.994 -14.817)"/><path d="M-102.323-25.85h1.899v5.697h-1.899z" style="fill:#171615;fill-opacity:1;fill-rule:evenodd;stroke:#171615;stroke-width:.226;stroke-linecap:round;stroke-linejoin:round;stroke-dasharray:none;stroke-opacity:1" transform="rotate(180 -38.497 -7.408)"/></svg>