<svg xmlns="http://www.w3.org/2000/svg" width="242.8" height="124.416" viewBox="0 0 64.241 32.918"><path d="M1.058 1.058v21.154h30.556c1.465 6.863 6.142 11.882 11.686 11.882s10.22-5.02 11.686-11.882H67.54V1.058Z" style="fill:#5e5e5e;stroke:#3f3f3f;stroke-width:2.11667;stroke-linecap:round;stroke-linejoin:round;stroke-miterlimit:10;stroke-dasharray:none;stroke-opacity:1" transform="scale(.93646)"/><path stroke="#14192b" stroke-linejoin="round" stroke-width="2.202" d="M34.46 17.765c0-7.1 3.957-12.855 8.84-12.855 4.882 0 8.84 5.755 8.84 12.855s-3.958 12.856-8.84 12.856c-4.883 0-8.84-5.756-8.84-12.856z" style="fill:#364676;fill-opacity:1;stroke:#3f3f3f;stroke-width:1.5875;stroke-miterlimit:10;stroke-dasharray:none;stroke-opacity:1" transform="scale(.93646)"/><path fill="#757575" stroke="#3f3f3f" stroke-linecap="round" stroke-linejoin="round" stroke-width="2.066" d="M1.058 1.058h15.059c.705 0 1.433.117 1.45 1.291.015 1.174-.68 3.517-1.985 5.447s-3.219 3.445-5.567 4.353c-2.347.908-7.555 1.263-8.957 1.081z" style="stroke-miterlimit:10" transform="scale(.93646)"/><path fill="#222" stroke="#3f3f3f" stroke-linecap="round" stroke-linejoin="round" stroke-width="1.266" d="M3.853 6.216a3.186 3.186 0 1 1 6.372 0 3.186 3.186 0 0 1-6.372 0" style="stroke-miterlimit:10" transform="scale(.93646)"/><path fill="#424242" stroke="#000" stroke-width="1.103" d="M34.034 6.73V3.516h4.725v3.212zM48.019 6.855V3.643h4.725v3.212z" style="stroke:#0f0f0f;stroke-miterlimit:10;stroke-opacity:1" transform="scale(.93646)"/><path fill="#1e1e1e" stroke="#000" stroke-width="2.202" d="M34.003 4.635V3.036c0-.443.568-1.251 1.203-1.251h16.456c.688 0 1.092.73 1.092 1.152v1.698z" style="stroke:#0e0e0e;stroke-width:2.11667;stroke-miterlimit:10;stroke-dasharray:none;stroke-opacity:1" transform="scale(.93646)"/><path fill="url(#a)" d="M38.902 13.972c0-3.6 1.97-6.518 4.398-6.518s4.397 2.918 4.397 6.518-1.969 6.517-4.397 6.517-4.398-2.918-4.398-6.517" style="fill:#2e3d67;fill-opacity:1;stroke:none;stroke-miterlimit:10;stroke-opacity:1" transform="scale(.93646)"/></svg>