<?xml version="1.0" encoding="UTF-8" standalone="no"?>
<!-- Created with Inkscape (http://www.inkscape.org/) -->

<svg
   width="174.9176"
   height="123.88113"
   viewBox="0 0 46.280282 32.776883"
   version="1.1"
   id="svg1"
   xml:space="preserve"
   sodipodi:docname="rsh_crate.svg"
   xmlns:inkscape="http://www.inkscape.org/namespaces/inkscape"
   xmlns:sodipodi="http://sodipodi.sourceforge.net/DTD/sodipodi-0.dtd"
   xmlns="http://www.w3.org/2000/svg"
   xmlns:svg="http://www.w3.org/2000/svg"><sodipodi:namedview
     id="namedview1"
     pagecolor="#ffffff"
     bordercolor="#000000"
     borderopacity="0.25"
     inkscape:showpageshadow="2"
     inkscape:pageopacity="0.0"
     inkscape:pagecheckerboard="0"
     inkscape:deskcolor="#d1d1d1"
     inkscape:document-units="px" /><defs
     id="defs1"><clipPath
       id="clip0_2628_2470-7-7-8-32"><rect
         width="110"
         height="110"
         fill="#ffffff"
         id="rect69-35-2-5-6-3"
         x="0"
         y="0" /></clipPath></defs><g
     inkscape:label="Layer 1"
     inkscape:groupmode="layer"
     id="layer1"
     transform="translate(-107.68531,-96.043752)"><rect
       style="fill:#583928;fill-opacity:1;fill-rule:evenodd;stroke:#231710;stroke-width:1.85208;stroke-linecap:round;stroke-linejoin:round;stroke-dasharray:none;stroke-opacity:1"
       id="rect35-3-9-0-0-2"
       width="44.428204"
       height="27.128725"
       x="108.61134"
       y="98.868019" /><g
       id="g40-4-7-4-0-7"
       transform="translate(-4716.6967,-3283.3071)"><path
         style="fill:#513524;fill-opacity:1;fill-rule:evenodd;stroke:#231710;stroke-width:1.32292;stroke-linecap:round;stroke-linejoin:round;stroke-dasharray:none;stroke-opacity:1"
         d="m 4825.439,3386.0302 h 44.1661"
         id="path38-6-7-7-5-4" /><path
         style="fill:#513524;fill-opacity:1;fill-rule:evenodd;stroke:#231710;stroke-width:1.32292;stroke-linecap:round;stroke-linejoin:round;stroke-dasharray:none;stroke-opacity:1"
         d="m 4825.4389,3405.4485 h 44.1661"
         id="path38-9-5-2-3-1-8" /></g><path
       id="rect17-0-0-7-3-5"
       style="fill:#4d3223;fill-opacity:1;fill-rule:evenodd;stroke:#231710;stroke-width:1.85208;stroke-linecap:round;stroke-linejoin:round;stroke-opacity:1"
       d="m 113.2235,96.96979 h 6.2309 v 30.9248 h -6.2309 z"
       sodipodi:nodetypes="ccccc" /><path
       id="rect17-7-5-9-1-9-2"
       style="fill:#4d3223;fill-opacity:1;fill-rule:evenodd;stroke:#231710;stroke-width:1.85208;stroke-linecap:round;stroke-linejoin:round;stroke-opacity:1"
       d="m 142.1962,96.96979 h 6.231 v 30.9248 h -6.231 z"
       sodipodi:nodetypes="ccccc" /><g
       id="g41-6-7-0-5-1-7"
       transform="translate(-4687.6155,-3283.1385)"><circle
         style="fill:#3b3b3b;fill-opacity:1;fill-rule:evenodd;stroke:#1a1a1a;stroke-width:1.32292;stroke-linecap:round;stroke-linejoin:round;stroke-dasharray:none;stroke-opacity:1"
         id="path40-7-3-7-8-8-9"
         cx="4832.9272"
         cy="3383.292"
         r="1.2263108" /><circle
         style="fill:#3b3b3b;fill-opacity:1;fill-rule:evenodd;stroke:#1a1a1a;stroke-width:1.32292;stroke-linecap:round;stroke-linejoin:round;stroke-dasharray:none;stroke-opacity:1"
         id="path40-3-8-2-1-4-2-6"
         cx="4832.9272"
         cy="3407.8494"
         r="1.2263108" /></g><g
       id="g41-1-6-2-8-90"
       transform="translate(-4716.5883,-3283.1385)"><circle
         style="fill:#3b3b3b;fill-opacity:1;fill-rule:evenodd;stroke:#1a1a1a;stroke-width:1.32292;stroke-linecap:round;stroke-linejoin:round;stroke-dasharray:none;stroke-opacity:1"
         id="path40-4-0-8-6-20"
         cx="4832.9272"
         cy="3383.292"
         r="1.2263108" /><circle
         style="fill:#3b3b3b;fill-opacity:1;fill-rule:evenodd;stroke:#1a1a1a;stroke-width:1.32292;stroke-linecap:round;stroke-linejoin:round;stroke-dasharray:none;stroke-opacity:1"
         id="path40-3-7-9-5-6-1"
         cx="4832.9272"
         cy="3407.8494"
         r="1.2263108" /></g><g
       clip-path="url(#clip0_2628_2470-7-7-8-32)"
       id="g69-7-2-6-6"
       style="fill:#231710;fill-opacity:1;stroke:#231710;stroke-opacity:1"
       transform="matrix(0.16547329,0,0,0.16547329,121.7101,103.49916)"><path
         d="M 8.29658,57.9262 7.89824,56.0895 9.03728,55.4319 7.48661,54.6823 6.68945,55.1426 Z"
         fill="#3d3d43"
         stroke="#303036"
         stroke-width="2.89316"
         stroke-miterlimit="3.99393"
         id="path1-0-3-5"
         style="fill:#231710;fill-opacity:1;stroke:#231710;stroke-opacity:1" /><path
         d="m 55.1009,38.5647 4.8023,-2.8767 0.3975,-4.6404 40.4003,-23.4003 6.532,11.3131 -40.4661,23.287 -4.2162,-1.9738 -4.893,2.7197 z"
         fill="#3e3e41"
         id="path2-9-6-4"
         style="fill:#231710;fill-opacity:1;stroke:#231710;stroke-opacity:1" /><path
         d="M 97.6244,9.42972 104.151,20.7342 67.8839,41.605 61.4159,30.4021 Z"
         fill="#39393c"
         stroke="#323234"
         stroke-width="1.44658"
         stroke-miterlimit="3.99393"
         stroke-linecap="square"
         id="path3-0-1-2"
         style="fill:#231710;fill-opacity:1;stroke:#231710;stroke-opacity:1" /><path
         d="m 55.1009,38.5647 4.8023,-2.8767 0.3975,-4.6404 40.4003,-23.4003 6.532,11.3131 -40.4661,23.287 -4.2162,-1.9738 -4.893,2.7197 z"
         stroke="#323234"
         stroke-width="2.89316"
         stroke-miterlimit="3.99393"
         id="path4-7-6-5"
         style="fill:#231710;fill-opacity:1;stroke:#231710;stroke-opacity:1" /><path
         d="M 12.2226,68.9837 7.92974,67.6745 7.51529,66.4307 7.32841,66.3784 6.10993,69.5547 c -2.37101,1.2548 -3.45461,3.2501 -3.93218,4.9625 -0.03831,0.1755 0.12971,0.1937 0.1807,0.0483 1.05699,-2.4578 4.68677,-4.7466 8.44295,-3.1209"
         fill="#494950"
         stroke="#303036"
         stroke-width="1.44658"
         stroke-miterlimit="3.99393"
         id="path5-2-2-2"
         style="fill:#231710;fill-opacity:1;stroke:#231710;stroke-opacity:1" /><path
         fill-rule="evenodd"
         clip-rule="evenodd"
         d="m 38.1834,59.4869 -8.8709,-15.3648 17.6449,-10.1864 3.0063,1.0291 0.4652,-0.2694 3.3254,1.5432 3.9619,6.8621 -16.3347,9.4308 0.9117,1.5681 -0.7753,1.4639 0.4721,0.8579 -1.7784,1.0757 -0.7396,0.9424 -1.1607,0.7534 z M 51.42,37.2437 44.0695,41.4876 38.694,39.5833 46.0085,35.3912 Z m -13.5529,2.8137 5.3784,1.9059 -8.0839,4.6672 c -0.3273,0.189 -0.9023,0.0985 -1.252,-0.4647 l -1.6663,-2.886 z"
         fill="#4f4f55"
         id="path6-6-3-3"
         style="fill:#231710;fill-opacity:1;stroke:#231710;stroke-opacity:1" /><path
         fill-rule="evenodd"
         clip-rule="evenodd"
         d="m 29.3125,44.1221 3.8132,6.6046 21.745,-12.5545 -1.1167,-1.9342 -3.3254,-1.5431 -0.4655,0.2688 -3.0057,-1.028 z m 16.6957,-8.7314 -7.3146,4.192 5.3756,1.9043 7.3505,-4.2438 z m -2.763,6.572 -5.3784,-1.9058 -5.6238,3.2224 1.6663,2.886 c 0.3497,0.5631 0.9247,0.6536 1.252,0.4647 z"
         fill="#464649"
         id="path7-8-9-2"
         style="fill:#231710;fill-opacity:1;stroke:#231710;stroke-opacity:1" /><path
         d="m 41.8131,34.4905 1.4841,-0.8569 3.1082,0.6197 -5.0046,2.8894 -0.5573,-0.9653 1.4577,-0.8416 z"
         fill="#3c3c3e"
         stroke="#303036"
         stroke-width="1.44658"
         stroke-miterlimit="3.99393"
         id="path8-0-8-7-2"
         style="fill:#231710;fill-opacity:1;stroke:#231710;stroke-opacity:1" /><path
         fill-rule="evenodd"
         clip-rule="evenodd"
         d="m 7.89865,56.0885 1.32077,6.0898 1.35118,2.0633 c 1.0994,1.9922 0.4343,6.5888 -1.17866,7.9233 l 2.04876,3.5487 26.5366,-15.7542 0.2074,-0.4758 -9.0416,-15.6606 -2.1451,1.243 -0.3629,-0.6286 -17.32284,9.9989 0.362,0.627 z M 33.1168,57.7847 17.966,66.5319 11.9322,56.081 14.2125,54.7644 13.1246,52.8801 25.995,45.4494 Z"
         fill="#55555e"
         id="path9-0-0-7"
         style="fill:#231710;fill-opacity:1;stroke:#231710;stroke-opacity:1" /><path
         d="m 29.4421,72.2818 c 0.6931,-0.2302 0.4667,-0.2481 -0.4008,-0.1428 -0.8674,0.1053 -2.4089,-0.3565 -3.1998,-1.1886 -0.6595,-0.6939 -1.1522,-1.9957 -0.8075,-3.6356 l -1.7523,1.0117 c 1.6453,3.3011 4.2817,4.579 6.1604,3.9553 z"
         fill="#464653"
         stroke="#303036"
         stroke-width="1.44658"
         stroke-miterlimit="3.99393"
         id="path10-3-2-0"
         style="fill:#231710;fill-opacity:1;stroke:#231710;stroke-opacity:1" /><path
         d="M 17.9667,66.5357 33.1159,57.7893 27.1374,47.4343 11.9883,56.1807 Z"
         fill="#61616b"
         id="path11-9-0-8"
         style="fill:#231710;fill-opacity:1;stroke:#231710;stroke-opacity:1" /><path
         d="m 27.8023,48.5836 -10.7449,6.2035 c -0.9173,0.5297 -1.2316,1.7026 -0.702,2.62 0.5297,0.9173 1.7026,1.2316 2.62,0.702 l 10.7449,-6.2036 z"
         fill="#404040"
         id="path12-7-0-9"
         style="fill:#231710;fill-opacity:1;stroke:#231710;stroke-opacity:1" /><path
         d="m 30.4625,53.1881 -10.7449,6.2035 c -0.9173,0.5296 -1.2316,1.7026 -0.702,2.6199 0.5296,0.9174 1.7026,1.2317 2.6199,0.7021 L 32.3804,56.51 Z"
         fill="#404040"
         id="path13-2-0-0"
         style="fill:#231710;fill-opacity:1;stroke:#231710;stroke-opacity:1" /><path
         d="m 17.8121,66.2667 0.1065,-2.4118 -3.5784,-6.1979 -2.142,-1.1138 0.4831,0.8366 -1.163,0.6554 0.55,0.9527 -3.14815,1.8085 0.30046,1.3854 0.36045,0.5504 3.50234,-1.986 3.0967,5.3635 1.156,-0.6675 z"
         fill="#404040"
         id="path14-4-4-5"
         style="fill:#231710;fill-opacity:1;stroke:#231710;stroke-opacity:1" /><path
         d="m 14.9798,67.4133 c 0.3492,-0.2016 0.4689,-0.6482 0.2673,-0.9975 -0.2017,-0.3492 -0.6483,-0.4689 -0.9975,-0.2672 -0.3493,0.2016 -0.4689,0.6482 -0.2673,0.9975 0.2016,0.3492 0.6482,0.4689 0.9975,0.2672 z"
         fill="#3d3d43"
         id="path15-3-9-4"
         style="fill:#231710;fill-opacity:1;stroke:#231710;stroke-opacity:1" /><path
         d="m 13.138,63.387 c 0.3492,-0.2017 0.4689,-0.6483 0.2673,-0.9975 -0.2017,-0.3493 -0.6483,-0.4689 -0.9975,-0.2673 -0.3493,0.2016 -0.4689,0.6482 -0.2673,0.9975 0.2016,0.3492 0.6482,0.4689 0.9975,0.2673 z"
         fill="#3d3d43"
         id="path16-0-0-84"
         style="fill:#231710;fill-opacity:1;stroke:#231710;stroke-opacity:1" /><path
         d="m 35.1888,57.5344 c 0.3492,-0.2016 0.4689,-0.6482 0.2672,-0.9975 -0.2016,-0.3492 -0.6482,-0.4689 -0.9974,-0.2672 -0.3493,0.2016 -0.469,0.6482 -0.2673,0.9975 0.2016,0.3492 0.6482,0.4689 0.9975,0.2672 z"
         fill="#3d3d43"
         id="path17-1-2-4"
         style="fill:#231710;fill-opacity:1;stroke:#231710;stroke-opacity:1" /><path
         d="m 37.1893,57.7654 -27.0858,15.6379 1.3349,2.3121 26.5365,-15.7542 0.2074,-0.4758 z"
         fill="#61616b"
         id="path18-5-9-5"
         style="fill:#231710;fill-opacity:1;stroke:#231710;stroke-opacity:1" /><path
         d="m 41.5224,52.7714 0.7717,1.3273 -0.7751,1.4642 0.4722,0.8582 -1.7788,1.0749 -0.7394,0.9428 -1.1604,0.7539 -0.128,0.2938 -2.0709,-3.5869 z"
         fill="#3d3d43"
         id="path19-8-7-9"
         style="fill:#231710;fill-opacity:1;stroke:#231710;stroke-opacity:1" /><path
         d="m 38.3772,56.3175 c 0.2359,-0.1362 0.3167,-0.4377 0.1805,-0.6736 -0.1362,-0.2359 -0.4378,-0.3167 -0.6736,-0.1805 -0.2359,0.1362 -0.3167,0.4378 -0.1805,0.6736 0.1362,0.2359 0.4377,0.3167 0.6736,0.1805 z"
         fill="#3d3d43"
         id="path20-7-3-3"
         style="fill:#231710;fill-opacity:1;stroke:#231710;stroke-opacity:1" /><path
         d="m 32.1467,46.0304 c 0.2359,-0.1362 0.3167,-0.4378 0.1805,-0.6736 -0.1361,-0.2359 -0.4377,-0.3167 -0.6736,-0.1805 -0.2358,0.1362 -0.3166,0.4378 -0.1805,0.6736 0.1362,0.2359 0.4378,0.3167 0.6736,0.1805 z"
         fill="#3d3d43"
         id="path21-3-5-8"
         style="fill:#231710;fill-opacity:1;stroke:#231710;stroke-opacity:1" /><rect
         x="42.669899"
         y="51.788101"
         width="1.01117"
         height="1.42539"
         transform="rotate(-30,42.6699,51.7881)"
         fill="#3d3d43"
         stroke="#303036"
         stroke-width="1.44658"
         stroke-miterlimit="3.99393"
         id="rect21-45-4-4-6"
         style="fill:#231710;fill-opacity:1;stroke:#231710;stroke-opacity:1" /><rect
         x="45.0312"
         y="50.422901"
         width="1.01117"
         height="1.42539"
         transform="rotate(-30,45.0312,50.4229)"
         fill="#3d3d43"
         stroke="#303036"
         stroke-width="1.44658"
         stroke-miterlimit="3.99393"
         id="rect22-14-4-9-2"
         style="fill:#231710;fill-opacity:1;stroke:#231710;stroke-opacity:1" /><rect
         x="47.394501"
         y="49.060501"
         width="1.01117"
         height="1.42539"
         transform="rotate(-30,47.3945,49.0605)"
         fill="#3d3d43"
         stroke="#303036"
         stroke-width="1.44658"
         stroke-miterlimit="3.99393"
         id="rect23-2-7-7-6"
         style="fill:#231710;fill-opacity:1;stroke:#231710;stroke-opacity:1" /><rect
         x="49.753899"
         y="47.6973"
         width="1.01117"
         height="1.42539"
         transform="rotate(-30,49.7539,47.6973)"
         fill="#3d3d43"
         stroke="#303036"
         stroke-width="1.44658"
         stroke-miterlimit="3.99393"
         id="rect24-40-2-5-8"
         style="fill:#231710;fill-opacity:1;stroke:#231710;stroke-opacity:1" /><rect
         x="52.119099"
         y="46.332001"
         width="1.01117"
         height="1.42539"
         transform="rotate(-30,52.1191,46.332)"
         fill="#3d3d43"
         stroke="#303036"
         stroke-width="1.44658"
         stroke-miterlimit="3.99393"
         id="rect25-67-4-0-3"
         style="fill:#231710;fill-opacity:1;stroke:#231710;stroke-opacity:1" /><rect
         x="54.480499"
         y="44.9688"
         width="1.01117"
         height="1.42539"
         transform="rotate(-30,54.4805,44.9688)"
         fill="#3d3d43"
         stroke="#303036"
         stroke-width="1.44658"
         stroke-miterlimit="3.99393"
         id="rect26-1-9-0-3"
         style="fill:#231710;fill-opacity:1;stroke:#231710;stroke-opacity:1" /><rect
         x="56.841801"
         y="43.6064"
         width="1.01117"
         height="1.42539"
         transform="rotate(-30,56.8418,43.6064)"
         fill="#3d3d43"
         stroke="#303036"
         stroke-width="1.44658"
         stroke-miterlimit="3.99393"
         id="rect27-5-9-0-6"
         style="fill:#231710;fill-opacity:1;stroke:#231710;stroke-opacity:1" /><rect
         x="28.4004"
         y="42.538101"
         width="1.01117"
         height="1.8393"
         transform="rotate(-30,28.4004,42.5381)"
         fill="#3d3d43"
         stroke="#303036"
         stroke-width="1.44658"
         stroke-miterlimit="3.99393"
         id="rect28-91-4-6-9"
         style="fill:#231710;fill-opacity:1;stroke:#231710;stroke-opacity:1" /><rect
         x="30.7012"
         y="41.210899"
         width="1.01117"
         height="1.8393"
         transform="rotate(-30,30.7012,41.2109)"
         fill="#3d3d43"
         stroke="#303036"
         stroke-width="1.44658"
         stroke-miterlimit="3.99393"
         id="rect29-5-7-3-1"
         style="fill:#231710;fill-opacity:1;stroke:#231710;stroke-opacity:1" /><rect
         x="33"
         y="39.883801"
         width="1.01117"
         height="1.8393"
         transform="rotate(-30,33,39.8838)"
         fill="#3d3d43"
         stroke="#303036"
         stroke-width="1.44658"
         stroke-miterlimit="3.99393"
         id="rect30-00-5-6-0"
         style="fill:#231710;fill-opacity:1;stroke:#231710;stroke-opacity:1" /><rect
         x="35.298801"
         y="38.556599"
         width="1.01117"
         height="1.8393"
         transform="rotate(-30,35.2988,38.5566)"
         fill="#3d3d43"
         stroke="#303036"
         stroke-width="1.44658"
         stroke-miterlimit="3.99393"
         id="rect31-59-8-0-3"
         style="fill:#231710;fill-opacity:1;stroke:#231710;stroke-opacity:1" /><rect
         x="37.599602"
         y="37.2285"
         width="1.01117"
         height="1.8393"
         transform="rotate(-30,37.5996,37.2285)"
         fill="#3d3d43"
         stroke="#303036"
         stroke-width="1.44658"
         stroke-miterlimit="3.99393"
         id="rect32-4-7-0-94"
         style="fill:#231710;fill-opacity:1;stroke:#231710;stroke-opacity:1" /><path
         d="m 22.5253,78.5265 -0.5189,-4.5491 c 0.0988,0.1179 0.1966,0.2358 0.2906,0.3492 0.2888,0.3485 0.5423,0.6542 0.6809,0.7863 0.5094,0.4852 1.4087,0.7961 1.9746,0.7785 0.7333,-0.0228 1.7032,-0.083 2.509,-0.3616 0.7245,-0.2505 1.3621,-0.6666 1.9975,-1.1016 1.6626,-1.1382 4.2374,-3.265 5.1785,-4.4605 0.3729,-0.4736 0.5646,-0.857 0.6802,-1.3072 0.1147,-0.4467 0.1011,-0.9031 -0.0414,-1.4467 -0.2753,-1.0505 -1.1255,-2.3219 -2.5914,-4.1083 l 1.2437,-0.7384 c 1.4291,1.7643 2.2622,3.1401 2.5745,4.3317 0.1701,0.6488 0.0834,1.4928 -0.0653,2.0719 -0.1477,0.5755 -0.5063,1.1563 -0.9207,1.6826 -1.6159,2.0525 -3.3546,3.216 -4.8739,4.2327 -0.249,0.1666 -0.4977,0.3337 -0.7449,0.503 -0.56,0.3834 -1.3712,0.9117 -2.2043,1.1997 -0.8382,0.2898 -1.6326,0.4995 -2.3725,0.6337 -0.5788,0.1049 -1.2217,0.2223 -1.6095,0.4462 -0.3248,0.1875 -0.8174,0.6366 -1.1867,1.0579 z"
         fill="#464653"
         stroke="#303036"
         stroke-width="1.44658"
         stroke-miterlimit="3.99393"
         id="path32-3-9-0"
         style="fill:#231710;fill-opacity:1;stroke:#231710;stroke-opacity:1" /><path
         fill-rule="evenodd"
         clip-rule="evenodd"
         d="m 7.89783,56.0892 1.32077,6.0898 1.3512,2.0633 c 1.0994,1.9922 0.4342,6.5888 -1.17868,7.9233 l 2.04878,3.5487 26.5366,-15.7542 0.2074,-0.4758 -9.0417,-15.6606 -2.145,1.243 -0.5438,-0.9418 -17.32278,9.9989 0.54282,0.9402 z m 25.21807,1.6961 -15.1507,8.7473 -6.0339,-10.4509 2.2804,-1.3166 -1.0879,-1.8843 12.8704,-7.4307 z"
         stroke="#303036"
         stroke-width="1.44658"
         stroke-miterlimit="3.99393"
         id="path33-34-7-3-4"
         style="fill:#231710;fill-opacity:1;stroke:#231710;stroke-opacity:1" /><path
         d="M 17.9667,66.5357 33.1159,57.7893 27.1374,47.4343 11.9883,56.1807 Z"
         stroke="#303036"
         stroke-width="1.44658"
         stroke-miterlimit="3.99393"
         id="path34-0-1-87"
         style="fill:#231710;fill-opacity:1;stroke:#231710;stroke-opacity:1" /><path
         fill-rule="evenodd"
         clip-rule="evenodd"
         d="m 29.3125,44.1221 3.8132,6.6046 21.745,-12.5545 -1.1167,-1.9342 -3.3254,-1.5431 -0.4655,0.2688 -3.0057,-1.028 z m 16.6957,-8.7314 -7.3146,4.192 5.3756,1.9043 7.3505,-4.2438 z m -2.763,6.572 -5.3784,-1.9058 -5.6238,3.2224 1.6663,2.886 c 0.3497,0.5631 0.9247,0.6536 1.252,0.4647 z"
         stroke="#303036"
         stroke-width="1.44658"
         stroke-miterlimit="3.99393"
         id="path35-3-1-5"
         style="fill:#231710;fill-opacity:1;stroke:#231710;stroke-opacity:1" /><path
         d="m 49.9864,36.3744 -7.7954,4.5007 c -0.7538,0.4352 -1.012,1.399 -0.5769,2.1528 l 0.6806,1.1787 c 0.4351,0.7537 1.399,1.012 2.1527,0.5768 l 7.7955,-4.5007 c 0.7537,-0.4352 1.012,-1.399 0.5768,-2.1528 l -0.6805,-1.1786 c -0.4352,-0.7538 -1.399,-1.0121 -2.1528,-0.5769 z"
         fill="#3d3d43"
         id="path36-0-7-4"
         style="fill:#231710;fill-opacity:1;stroke:#231710;stroke-opacity:1" /><path
         d="m 50.0262,36.3517 0.7798,1.3506 1.2528,-0.7232 -0.2437,-0.4221 c -0.4829,-0.4259 -1.1956,-0.525 -1.7889,-0.2053 z"
         fill="#35353b"
         id="path37-3-0-6"
         style="fill:#231710;fill-opacity:1;stroke:#231710;stroke-opacity:1" /><path
         d="m 52.9989,38.6074 -0.2437,-0.4221 -1.2528,0.7233 0.7805,1.3519 c 0.5736,-0.354 0.8427,-1.0232 0.716,-1.6531 z"
         fill="#35353b"
         id="path38-4-6-1-0"
         style="fill:#231710;fill-opacity:1;stroke:#231710;stroke-opacity:1" /><path
         d="m 51.2459,40.8592 -0.7805,-1.3519 -1.2527,0.7233 0.7805,1.3519 z"
         fill="#35353b"
         id="path39-8-3-5"
         style="fill:#231710;fill-opacity:1;stroke:#231710;stroke-opacity:1" /><path
         d="m 48.9562,42.1812 -0.7805,-1.3519 -1.2528,0.7233 0.7805,1.3519 z"
         fill="#35353b"
         id="path40-44-6-5-7"
         style="fill:#231710;fill-opacity:1;stroke:#231710;stroke-opacity:1" /><path
         d="m 46.6664,43.5032 -0.7805,-1.3519 -1.2528,0.7233 0.7805,1.3519 z"
         fill="#35353b"
         id="path41-0-3-9"
         style="fill:#231710;fill-opacity:1;stroke:#231710;stroke-opacity:1" /><path
         d="m 44.3767,44.8252 -0.7805,-1.3519 -1.2528,0.7233 0.1872,0.3242 c 0.4733,0.4852 1.2224,0.6237 1.8461,0.3044 z"
         fill="#35353b"
         id="path42-2-3-6"
         style="fill:#231710;fill-opacity:1;stroke:#231710;stroke-opacity:1" /><path
         d="M 41.4598,42.6661 41.647,42.9903 42.8998,42.267 42.12,40.9164 c -0.5885,0.3805 -0.8438,1.0972 -0.6602,1.7497 z"
         fill="#35353b"
         id="path43-7-1-9"
         style="fill:#231710;fill-opacity:1;stroke:#231710;stroke-opacity:1" /><path
         d="m 43.1569,40.3177 0.7798,1.3506 1.2527,-0.7232 -0.7797,-1.3507 z"
         fill="#35353b"
         id="path44-9-3-4"
         style="fill:#231710;fill-opacity:1;stroke:#231710;stroke-opacity:1" /><path
         d="m 45.4466,38.9957 0.7798,1.3506 1.2528,-0.7232 -0.7798,-1.3507 z"
         fill="#35353b"
         id="path45-1-1-6"
         style="fill:#231710;fill-opacity:1;stroke:#231710;stroke-opacity:1" /><path
         d="m 47.7364,37.6737 0.7798,1.3506 1.2528,-0.7232 -0.7798,-1.3507 z"
         fill="#35353b"
         id="path46-6-0-9"
         style="fill:#231710;fill-opacity:1;stroke:#231710;stroke-opacity:1" /><path
         d="m 45.3718,44.2501 6.8698,-3.9662 c 0.1905,-0.11 0.3493,-0.2537 0.4733,-0.4193 l -1.1774,2.0393 -4.7315,2.7317 z"
         fill="#37373e"
         id="path47-7-1-6"
         style="fill:#231710;fill-opacity:1;stroke:#231710;stroke-opacity:1" /><path
         d="m 50.6319,41.1468 -1.3867,0.8006 c -0.1419,0.0819 -0.1905,0.2633 -0.1086,0.4052 0.0819,0.1419 0.2633,0.1905 0.4052,0.1086 l 1.3867,-0.8007 c 0.1419,-0.0819 0.1905,-0.2633 0.1086,-0.4052 -0.0819,-0.1418 -0.2633,-0.1905 -0.4052,-0.1085 z"
         fill="#53535f"
         id="path48-1-0-1"
         style="fill:#231710;fill-opacity:1;stroke:#231710;stroke-opacity:1" /><path
         d="m 42.8157,42.0813 c 0.3493,-0.2016 0.4689,-0.6482 0.2673,-0.9975 -0.2016,-0.3492 -0.6482,-0.4689 -0.9975,-0.2673 -0.3492,0.2017 -0.4689,0.6483 -0.2673,0.9975 0.2017,0.3493 0.6483,0.4689 0.9975,0.2673 z"
         fill="#53535f"
         id="path49-8-7-0"
         style="fill:#231710;fill-opacity:1;stroke:#231710;stroke-opacity:1" /><path
         d="m 42.191,40.8751 7.7954,-4.5007 c 0.7538,-0.4352 1.7176,-0.1769 2.1528,0.5769 l 0.6805,1.1786 c 0.3254,0.5636 0.2631,1.2445 -0.104,1.7342 l -1.177,2.0385 -4.7315,2.7318 -1.434,-0.3855 -0.9258,0.5345 c -0.7537,0.4352 -1.7176,0.1769 -2.1527,-0.5768 L 41.6141,43.0279 C 41.179,42.2741 41.4372,41.3103 42.191,40.8751 Z"
         stroke="#303036"
         stroke-width="1.44658"
         stroke-miterlimit="3.99393"
         id="path50-5-9-14"
         style="fill:#231710;fill-opacity:1;stroke:#231710;stroke-opacity:1" /><path
         d="m 7.89865,56.0885 1.32077,6.0898 1.35118,2.0633 c 1.0994,1.9922 0.4343,6.5888 -1.17866,7.9233 l 2.04876,3.5487 26.5366,-15.7542 0.3365,-0.7677 1.1607,-0.7533 0.7396,-0.9425 1.7784,-1.0757 -0.4721,-0.8579 0.7753,-1.4638 -0.9116,-1.5682 16.3347,-9.4308 -3.9619,-6.8621 -3.3254,-1.5431 -0.4652,0.2693 -3.0064,-1.029 -17.6448,10.1863 -0.172,-0.2979 -2.1451,1.243 -0.3629,-0.6286 -17.32284,9.9989 0.362,0.627 z"
         stroke="#303036"
         stroke-width="2.89316"
         stroke-miterlimit="3.99393"
         id="path51-8-4-3"
         style="fill:#231710;fill-opacity:1;stroke:#231710;stroke-opacity:1" /><path
         d="m 21.7686,69.5072 c 0.0563,-0.0328 0.1175,-0.0671 0.1796,-0.0996 l 0.4552,-0.2527 0.0793,0.1373 c 0.0268,0.0461 0.0149,0.1331 -0.0546,0.2772 -0.6533,1.3551 -0.5791,2.2109 -0.4915,3.2196 0.0306,0.3535 0.0629,0.7258 0.0661,1.145 l 0.5431,4.7615 c -2.5023,1.3468 -2.5083,1.7981 -1.6356,4.0036 l 3.6999,11.6215 c 0.2458,0.6983 -0.5041,1.1376 -1.5707,1.7622 -0.1154,0.0676 -0.2345,0.1374 -0.3565,0.2099 L 15.888,100.1 c -1.3502,0.782 -1.5449,0.867 -1.6847,0.636 -0.0216,-0.036 -0.042,-0.08 -0.0653,-0.13 -0.016,-0.035 -0.0334,-0.072 -0.0535,-0.112 C 9.91838,92.2504 10.1227,86.5597 10.224,83.7393 10.2425,83.2236 10.2576,82.8039 10.2419,82.482 10.2168,81.7587 9.97848,80.9392 9.52553,80.1864 8.51227,78.5007 6.42303,77.1487 3.24192,77.9581 2.74178,78.0912 2.45695,78.1579 2.41643,78.0966 2.36311,77.9988 2.87648,77.6026 4.05882,76.6901 L 4.2485,76.5436 c 1.69606,-1.4838 3.41447,-2.9476 5.14442,-4.379 0.09711,-0.0803 0.19078,-0.1725 0.28084,-0.2752 0.03162,0.0461 0.06769,0.0899 0.10963,0.1289 l 1.65801,3.6945 z"
         fill="#4b4b4e"
         id="path52-1-5-7"
         style="fill:#231710;fill-opacity:1;stroke:#231710;stroke-opacity:1" /><path
         d="m 20.3835,80.8883 c 0.0143,0.4605 0.2138,1.024 0.525,1.8105 l 3.6999,11.6214 c 0.2458,0.6984 -0.5041,1.1376 -1.5707,1.7623 -0.1154,0.0676 -0.2345,0.1374 -0.3564,0.2098 l -6.795,3.8067 c -1.3502,0.782 -1.5449,0.868 -1.6847,0.636 -0.0216,-0.036 -0.042,-0.08 -0.0653,-0.13 -0.016,-0.034 -0.0334,-0.071 -0.0535,-0.111 C 9.91669,92.2501 10.121,86.5594 10.2223,83.739 10.2409,83.2233 10.2559,82.8036 10.2402,82.4817 10.217,81.8137 10.012,81.0637 9.62403,80.36 Z"
         fill="#373739"
         id="path53-3-7-7"
         style="fill:#231710;fill-opacity:1;stroke:#231710;stroke-opacity:1" /><path
         d="m 9.99158,81.1866 10.53352,0.4509 c 0.0505,0.1694 0.1135,0.3521 0.1872,0.551 L 10.1456,81.7362 C 10.1061,81.5546 10.0548,81.3707 9.99158,81.1866 Z"
         fill="#3e3e41"
         id="path54-7-6-5"
         style="fill:#231710;fill-opacity:1;stroke:#231710;stroke-opacity:1" /><path
         d="m 10.2472,82.9146 c 0.0018,-0.1591 4e-4,-0.3029 -0.0059,-0.4311 -0.0013,-0.0372 -0.0031,-0.0747 -0.0055,-0.1123 l 10.715,0.4586 0.1752,0.5505 z"
         fill="#3e3e41"
         id="path55-0-7-5"
         style="fill:#231710;fill-opacity:1;stroke:#231710;stroke-opacity:1" /><path
         d="m 10.2113,84.0872 c 0.004,-0.1199 0.0082,-0.2354 0.0122,-0.3464 0.0024,-0.0669 0.0047,-0.1321 0.0069,-0.1958 l 11.0994,0.4752 0.1752,0.5504 z"
         fill="#3e3e41"
         id="path56-2-8-3"
         style="fill:#231710;fill-opacity:1;stroke:#231710;stroke-opacity:1" /><path
         d="m 10.1856,85.2602 c 0.0013,-0.1882 0.0041,-0.3691 0.0079,-0.5427 l 11.5152,0.493 0.1753,0.5504 z"
         fill="#3e3e41"
         id="path57-3-9-07"
         style="fill:#231710;fill-opacity:1;stroke:#231710;stroke-opacity:1" /><path
         d="m 10.1995,86.4348 c -0.0059,-0.1865 -0.0098,-0.3677 -0.0121,-0.5434 l 11.9003,0.5094 0.1752,0.5504 z"
         fill="#3e3e41"
         id="path58-2-1-8"
         style="fill:#231710;fill-opacity:1;stroke:#231710;stroke-opacity:1" /><path
         d="m 10.261,87.6116 c -0.0136,-0.1858 -0.0251,-0.3673 -0.0346,-0.5445 l 12.2402,0.524 0.1753,0.5504 z"
         fill="#3e3e41"
         id="path59-9-7-09"
         style="fill:#231710;fill-opacity:1;stroke:#231710;stroke-opacity:1" /><path
         d="M 10.3728,88.7904 C 10.3512,88.6051 10.332,88.4233 10.3148,88.245 l 12.5308,0.5364 0.1752,0.5504 z"
         fill="#3e3e41"
         id="path60-3-5-10"
         style="fill:#231710;fill-opacity:1;stroke:#231710;stroke-opacity:1" /><path
         d="M 10.5352,89.9715 C 10.5058,89.7863 10.4787,89.6042 10.4538,89.425 l 12.7707,0.5467 0.1753,0.5505 z"
         fill="#3e3e41"
         id="path61-8-5-4"
         style="fill:#231710;fill-opacity:1;stroke:#231710;stroke-opacity:1" /><path
         d="m 10.7481,91.1547 c -0.0371,-0.1851 -0.072,-0.3676 -0.1047,-0.5475 l 12.9601,0.5548 0.1752,0.5505 z"
         fill="#3e3e41"
         id="path62-3-3-5"
         style="fill:#231710;fill-opacity:1;stroke:#231710;stroke-opacity:1" /><path
         d="m 11.0109,92.34 c -0.0448,-0.1851 -0.0874,-0.3679 -0.1277,-0.5484 l 13.0993,0.5607 0.1752,0.5505 z"
         fill="#3e3e41"
         id="path63-8-2-8"
         style="fill:#231710;fill-opacity:1;stroke:#231710;stroke-opacity:1" /><path
         d="M 11.3228,93.5274 C 11.2704,93.3422 11.2204,93.1591 11.1725,92.978 l 13.1889,0.5646 0.1753,0.5505 z"
         fill="#3e3e41"
         id="path64-7-0-0"
         style="fill:#231710;fill-opacity:1;stroke:#231710;stroke-opacity:1" /><path
         d="m 11.6831,94.7169 c -0.0598,-0.1853 -0.1173,-0.3687 -0.1726,-0.5503 l 13.1292,0.562 c -0.0429,0.1874 -0.1665,0.3591 -0.351,0.5279 z"
         fill="#3e3e41"
         id="path65-0-3-6"
         style="fill:#231710;fill-opacity:1;stroke:#231710;stroke-opacity:1" /><path
         d="M 12.091,95.9085 C 12.0239,95.723 11.9591,95.5392 11.8965,95.3572 l 11.5374,0.4939 c -0.1254,0.0753 -0.2576,0.1527 -0.3951,0.2332 -0.1154,0.0676 -0.2345,0.1373 -0.3564,0.2098 l -0.1124,0.063 z"
         fill="#3e3e41"
         id="path66-8-4-1"
         style="fill:#231710;fill-opacity:1;stroke:#231710;stroke-opacity:1" /><path
         d="m 21.7686,69.5072 c 0.0563,-0.0328 0.1175,-0.0671 0.1796,-0.0996 l 0.4552,-0.2527 0.0793,0.1373 c 0.0268,0.0461 0.0149,0.1331 -0.0546,0.2772 -0.6533,1.3551 -0.5791,2.2109 -0.4915,3.2196 0.0306,0.3535 0.0629,0.7258 0.0661,1.145 l 0.5431,4.7615 c -2.5023,1.3468 -2.5083,1.7981 -1.6356,4.0036 l 3.6999,11.6215 c 0.2458,0.6983 -0.5041,1.1376 -1.5707,1.7622 -0.1154,0.0676 -0.2345,0.1374 -0.3565,0.2099 L 15.888,100.1 c -1.3502,0.782 -1.5449,0.867 -1.6847,0.636 -0.0216,-0.036 -0.042,-0.08 -0.0653,-0.13 -0.016,-0.035 -0.0334,-0.072 -0.0535,-0.112 C 9.91838,92.2504 10.1227,86.5597 10.224,83.7393 10.2425,83.2236 10.2576,82.8039 10.2419,82.482 10.2168,81.7587 9.97848,80.9392 9.52553,80.1864 8.51227,78.5007 6.42303,77.1487 3.24192,77.9581 2.74178,78.0912 2.45695,78.1579 2.41643,78.0966 2.36311,77.9988 2.87648,77.6026 4.05882,76.6901 L 4.2485,76.5436 c 1.69606,-1.4838 3.41447,-2.9476 5.14442,-4.379 0.09711,-0.0803 0.19078,-0.1725 0.28084,-0.2752 0.03162,0.0461 0.06769,0.0899 0.10963,0.1289 l 1.65801,3.6945 z"
         stroke="#323234"
         stroke-width="2.89316"
         stroke-miterlimit="29"
         id="path67-6-5-1"
         style="fill:#231710;fill-opacity:1;stroke:#231710;stroke-opacity:1" /><path
         d="m 15.361,81.8802 c 0.5255,-0.3035 0.7056,-0.9755 0.4022,-1.501 -0.3035,-0.5256 -0.9755,-0.7057 -1.501,-0.4022 -0.5256,0.3034 -0.7057,0.9754 -0.4022,1.501 0.3034,0.5255 0.9754,0.7056 1.501,0.4022 z"
         fill="#434346"
         id="path68-3-1-1"
         style="fill:#231710;fill-opacity:1;stroke:#231710;stroke-opacity:1" /><path
         d="m 18.1305,93.805 c 0.5256,-0.3035 0.7056,-0.9755 0.4022,-1.501 -0.3034,-0.5256 -0.9755,-0.7057 -1.501,-0.4022 -0.5256,0.3034 -0.7056,0.9754 -0.4022,1.501 0.3034,0.5255 0.9754,0.7056 1.501,0.4022 z"
         fill="#434346"
         id="path69-5-5-5"
         style="fill:#231710;fill-opacity:1;stroke:#231710;stroke-opacity:1" /></g></g></svg>
