<svg xmlns="http://www.w3.org/2000/svg" xmlns:xlink="http://www.w3.org/1999/xlink" width="559.069" height="281.38" viewBox="0 0 147.92 74.448"><defs><linearGradient xlink:href="#a" id="b" x1="112.28" x2="96.735" y1="85.87" y2="54.829" gradientTransform="matrix(0 .38963 -.39801 0 6418.851 -959.78)" gradientUnits="userSpaceOnUse"/><linearGradient id="a"><stop offset=".538" style="stop-color:#008cff;stop-opacity:1"/><stop offset="1" style="stop-color:#a5d9ff;stop-opacity:1"/></linearGradient></defs><g transform="translate(-69.32 -160.867)"><rect width="133.877" height="59.738" x="-210.271" y="-227.98" rx="13.703" ry="20.487" style="fill:#4d4d4d;fill-opacity:1;stroke:#191919;stroke-width:2.17958;stroke-linecap:round;stroke-linejoin:round;stroke-miterlimit:4;stroke-dasharray:none;stroke-opacity:1;paint-order:markers fill stroke" transform="scale(-1)"/><rect width="133.877" height="26.829" x="-210.271" y="-211.526" rx="0" ry="0" style="fill:#606060;fill-opacity:1;stroke:none;stroke-width:2.90612;stroke-linecap:round;stroke-linejoin:round;stroke-opacity:1;paint-order:markers fill stroke" transform="scale(-1)"/><rect width="133.877" height="59.738" x="-210.271" y="-227.98" rx="13.503" ry="20.487" style="fill:none;fill-opacity:1;stroke:#191919;stroke-width:2.17958;stroke-linecap:round;stroke-linejoin:round;stroke-miterlimit:4;stroke-dasharray:none;stroke-opacity:1;paint-order:markers fill stroke" transform="scale(-1)"/><path d="M70.141 161.734v4.641h.149v63.432h-.145v4.64H216.42v-4.64h-.083v-63.432h.08v-4.64zm4.415 4.641h137.517v48.552l-14.07 14.88H89.011l-14.455-15.289zm0 55.15 7.83 8.281h-7.83zm137.517.409v7.872h-7.445z" style="fill:#00538f;fill-opacity:1;stroke:#001a2d;stroke-width:1.68703;stroke-linecap:round;stroke-linejoin:round;stroke-dasharray:none;stroke-opacity:1;stop-color:#000"/><path d="m202.353 198.111 6.874-1.89v3.78zM84.311 198.111l-6.873-1.89v3.78z" style="fill:#191919;fill-opacity:1;stroke:#191919;stroke-width:2.90611;stroke-linecap:round;stroke-linejoin:round;stroke-opacity:1;paint-order:markers fill stroke"/><g transform="matrix(0 -.8301 .78492 0 866.22 5522.794)"><rect width="30.306" height="29.551" x="952.087" y="6399.583" rx="2.672" ry="2.729" style="fill:#4d4d4d;fill-opacity:1;stroke:#191919;stroke-width:1.49313;stroke-linecap:round;stroke-linejoin:round;stroke-miterlimit:4;stroke-dasharray:none;stroke-opacity:1;paint-order:markers fill stroke" transform="rotate(-90)"/><circle cx="5219.72" cy="3851.488" r="12.224" style="fill:#373737;fill-opacity:1;stroke:#191919;stroke-width:1.16148;stroke-linecap:round;stroke-linejoin:round;stroke-miterlimit:4;stroke-dasharray:none;stroke-opacity:1" transform="rotate(-45)"/><circle cx="5219.72" cy="3851.488" r="8.923" style="fill:#505050;fill-opacity:1;stroke:none;stroke-width:1.54894;stroke-linecap:round;stroke-linejoin:round;stroke-miterlimit:4;stroke-dasharray:none;stroke-opacity:1" transform="rotate(-45)"/><rect width="7.966" height="3.983" x="-6418.342" y="967.24" ry="0" style="fill:#373737;fill-opacity:1;stroke:#373737;stroke-width:2.45839;stroke-linecap:butt;stroke-linejoin:round;stroke-dasharray:none;stroke-opacity:1" transform="scale(-1)"/><circle cx="-2896.222" cy="5808.835" r=".387" style="fill:#181818;fill-opacity:1;stroke:none;stroke-width:2.45751;stroke-linecap:round;stroke-linejoin:round;stroke-miterlimit:4;stroke-dasharray:none;stroke-opacity:1" transform="rotate(-125.07)"/><circle cx="-2892.962" cy="5811.123" r=".387" style="fill:#181818;fill-opacity:1;stroke:none;stroke-width:2.45751;stroke-linecap:round;stroke-linejoin:round;stroke-miterlimit:4;stroke-dasharray:none;stroke-opacity:1" transform="rotate(-125.07)"/><circle cx="-2888.385" cy="5804.604" r=".387" style="fill:#181818;fill-opacity:1;stroke:none;stroke-width:2.45751;stroke-linecap:round;stroke-linejoin:round;stroke-miterlimit:4;stroke-dasharray:none;stroke-opacity:1" transform="rotate(-125.07)"/><circle cx="-2891.644" cy="5802.315" r=".387" style="fill:#181818;fill-opacity:1;stroke:none;stroke-width:2.45751;stroke-linecap:round;stroke-linejoin:round;stroke-miterlimit:4;stroke-dasharray:none;stroke-opacity:1" transform="rotate(-125.07)"/><path d="M-975.278-6416.999h2.763v6.305h-2.763z" style="fill:none;fill-opacity:1;stroke:#232323;stroke-width:.580743;stroke-linecap:round;stroke-linejoin:round;stroke-miterlimit:4;stroke-dasharray:none;stroke-opacity:1" transform="rotate(90.03)skewX(.004)"/></g><g transform="matrix(0 -.8301 .78492 0 866.22 5522.764)"><rect width="30.306" height="29.551" x="860.039" y="6399.51" rx="2.672" ry="2.729" style="fill:#4d4d4d;fill-opacity:1;stroke:#191919;stroke-width:1.49313;stroke-linecap:round;stroke-linejoin:round;stroke-miterlimit:4;stroke-dasharray:none;stroke-opacity:1;paint-order:markers fill stroke" transform="rotate(-90)"/><circle cx="5154.58" cy="3916.524" r="12.224" style="fill:#373737;fill-opacity:1;stroke:#191919;stroke-width:1.16148;stroke-linecap:round;stroke-linejoin:round;stroke-miterlimit:4;stroke-dasharray:none;stroke-opacity:1" transform="rotate(-45)"/><circle cx="5154.58" cy="3916.524" r="8.923" style="fill:#505050;fill-opacity:1;stroke:none;stroke-width:1.54894;stroke-linecap:round;stroke-linejoin:round;stroke-miterlimit:4;stroke-dasharray:none;stroke-opacity:1" transform="rotate(-45)"/><rect width="7.966" height="3.983" x="-6418.268" y="875.192" ry="0" style="fill:#373737;fill-opacity:1;stroke:#373737;stroke-width:2.45839;stroke-linecap:butt;stroke-linejoin:round;stroke-dasharray:none;stroke-opacity:1" transform="scale(-1)"/><circle cx="-2971.516" cy="5755.886" r=".387" style="fill:#181818;fill-opacity:1;stroke:none;stroke-width:2.45751;stroke-linecap:round;stroke-linejoin:round;stroke-miterlimit:4;stroke-dasharray:none;stroke-opacity:1" transform="rotate(-125.07)"/><circle cx="-2968.256" cy="5758.174" r=".387" style="fill:#181818;fill-opacity:1;stroke:none;stroke-width:2.45751;stroke-linecap:round;stroke-linejoin:round;stroke-miterlimit:4;stroke-dasharray:none;stroke-opacity:1" transform="rotate(-125.07)"/><circle cx="-2963.679" cy="5751.654" r=".387" style="fill:#181818;fill-opacity:1;stroke:none;stroke-width:2.45751;stroke-linecap:round;stroke-linejoin:round;stroke-miterlimit:4;stroke-dasharray:none;stroke-opacity:1" transform="rotate(-125.07)"/><circle cx="-2966.939" cy="5749.366" r=".387" style="fill:#181818;fill-opacity:1;stroke:none;stroke-width:2.45751;stroke-linecap:round;stroke-linejoin:round;stroke-miterlimit:4;stroke-dasharray:none;stroke-opacity:1" transform="rotate(-125.07)"/><path d="M-883.23-6416.974h2.763v6.305h-2.763z" style="fill:none;fill-opacity:1;stroke:#232323;stroke-width:.580743;stroke-linecap:round;stroke-linejoin:round;stroke-miterlimit:4;stroke-dasharray:none;stroke-opacity:1" transform="rotate(90.03)skewX(.004)"/></g><path d="M6403.993-920.054c-.402.346-1.204 1.038-1.99 1.682a56 56 0 0 1-2.35 1.823 35 35 0 0 1-2.445 1.66c-.84.514-1.707.975-2.446 1.33a16 16 0 0 1-2.076.85c-.727.24-1.573.47-2.274.612a9 9 0 0 1-1.862.194 8 8 0 0 1-1.953-.225 9 9 0 0 1-2.055-.807 7.5 7.5 0 0 1-1.61-1.194 8.7 8.7 0 0 1-1.338-1.614 8.3 8.3 0 0 1-.883-1.943 11 11 0 0 1-.423-1.996 8 8 0 0 1-.032-1.608c.038-.471.113-.89.209-1.262s.214-.697.364-1.048c.15-.35.332-.728.631-1.194.3-.466.717-1.022 1.14-1.483.423-.46.85-.827 1.21-1.1.358-.272.647-.45 1.118-.66.47-.21 1.123-.45 1.67-.597a6 6 0 0 1 1.465-.215 9.5 9.5 0 0 1 1.68.1c.675.094 1.499.262 2.366.534.867.273 1.776.65 2.574 1.027s1.482.754 2.247 1.226a39 39 0 0 1 2.488 1.676c.878.639 1.787 1.351 2.542 1.954.754.602 1.354 1.095 1.734 1.398.38.304.54.42.62.477.08.058.08.058-.32.403z" style="fill:#212226;stroke:none;stroke-width:1.41111;stroke-linecap:round;stroke-linejoin:round;stroke-miterlimit:10;stroke-dasharray:none" transform="matrix(0 -.83365 .78828 0 869.382 5542.05)"/><path d="M6389.116-924.186c.198-.015.594-.047 1.043-.036a6.7 6.7 0 0 1 1.456.189 7 7 0 0 1 1.498.576c.492.251.974.555 1.466.906a17.546 17.546 0 0 1 2.456 2.095c.316.32.626.645.76.812s.091.178-.02.168c-.113-.011-.295-.042-.6-.037a5.4 5.4 0 0 0-1.226.173c-.492.126-1.048.335-1.578.545s-1.033.419-1.402.565c-.37.147-.605.231-.83.31s-.438.151-.529.21c-.091.057-.059.099.139.188s.562.225.93.298c.37.073.745.084 1.146.058s.83-.09 1.027-.1c.198-.01.166.031.075.162-.09.131-.24.351-.476.66a9 9 0 0 1-.936 1.069c-.38.361-.819.686-1.188.911a4 4 0 0 1-.83.399c-.16.047-.182.015-.32-.058-.14-.073-.396-.188-.75-.366a9 9 0 0 1-1.332-.812c-.53-.393-1.14-.938-1.755-1.567-.615-.628-1.236-1.34-1.776-2.184-.54-.843-1.001-1.818-1.338-2.797a18 18 0 0 1-.642-2.473c-.091-.508-.06-.54.096-.686.155-.146.433-.408.732-.649.3-.241.621-.461.98-.655a6.3 6.3 0 0 1 1.252-.508 9.6 9.6 0 0 1 1.59-.325 5.4 5.4 0 0 1 1.305.021 6.8 6.8 0 0 1 1.418.315c.519.178 1.086.45 1.53.712s.765.513.91.644c.144.131.112.141-.037.12-.15-.02-.418-.073-.739-.1a6.5 6.5 0 0 0-1.14.016 8 8 0 0 0-1.321.231 2.1 2.1 0 0 0-.744.356 1.6 1.6 0 0 0-.358.362c-.075.11-.107.204-.123.251s-.017.047.181.031z" style="fill:url(#b);fill-opacity:1;stroke:none;stroke-width:3.08933;stroke-linecap:round;stroke-linejoin:round;stroke-miterlimit:10" transform="matrix(0 -.83365 .78828 0 869.382 5542.05)"/><path d="M6391.399-914.006c-.205.079-.614.237-1.153.332s-1.206.127-1.783.095a6.8 6.8 0 0 1-1.524-.258 6 6 0 0 1-1.443-.612 7 7 0 0 1-1.735-1.392 8.6 8.6 0 0 1-1.34-2.093 5.3 5.3 0 0 1-.459-1.75 6.8 6.8 0 0 1 .043-1.74c.097-.591.291-1.182.469-1.63s.34-.754.512-1.028.355-.517.463-.649c.107-.131.14-.153.189.116.048.27.113.828.231 1.387.119.56.29 1.118.598 1.83.307.712.749 1.576 1.104 2.183s.625.954.98 1.36c.356.406.797.87 1.282 1.313s1.013.865 1.53 1.207 1.023.607 1.373.791.544.29.663.354c.118.063.161.084.183.094s.022.01-.183.09" style="fill:#0076d5;fill-opacity:1;stroke:#008cff;stroke-width:3.11371;stroke-linecap:round;stroke-linejoin:round;stroke-miterlimit:10;stroke-opacity:0" transform="matrix(0 -.83365 .78828 0 869.382 5542.05)"/><g style="display:inline"><path d="M-69.782 194.98v31.455h80.66V194.98zm44.722 2.21H6.487c1.19 0 2.15.959 2.15 2.15v22.617c0 1.19-.96 2.15-2.15 2.15H-25.06c-1.19 0-2.15-.96-2.15-2.15V199.34c0-1.191.96-2.15 2.15-2.15m-40.034.026h31.547c1.19 0 2.15.96 2.15 2.15v22.617c0 1.19-.96 2.15-2.15 2.15h-31.547c-1.191 0-2.15-.96-2.15-2.15v-22.617c0-1.19.959-2.15 2.15-2.15" style="display:inline;fill:#333;stroke-width:.325772;paint-order:markers stroke fill;stop-color:#000" transform="matrix(-.56651 0 0 -.5737 172.36 296.982)"/><path d="M-65.201 197.209a2.157 2.157 0 0 0-2.173 2.15v22.617c0 1.19.969 2.149 2.173 2.149h31.897a2.156 2.156 0 0 0 2.173-2.15v-22.617c0-1.19-.97-2.15-2.173-2.15zm.966 2.761h29.968v21.118h-29.968z" style="fill:#666;stroke-width:.290663;paint-order:markers stroke fill;stop-color:#000" transform="matrix(-.56651 0 0 -.5737 172.36 296.982)"/><path d="M-25.458 197.133a2.165 2.165 0 0 0-2.182 2.158v22.705c0 1.195.973 2.157 2.182 2.157h32.02a2.165 2.165 0 0 0 2.181-2.157V199.29a2.165 2.165 0 0 0-2.181-2.158zm.97 2.772H5.595v21.2h-30.083Z" style="fill:#666;stroke-width:.291788;paint-order:markers stroke fill;stop-color:#000" transform="matrix(-.56651 0 0 -.5737 172.36 296.982)"/><path d="M-64.541 214.374h30.557v2.22h-30.557zM-64.549 204.754h30.557v2.22h-30.557zM-64.549 209.522h30.557v2.22h-30.557zM-64.544 219.321h30.557v2.22h-30.557zM-64.544 199.752h30.557v2.22h-30.557zM-24.924 214.118H5.633v2.22h-30.557zM-24.932 204.499H5.625v2.22h-30.557zM-24.932 209.267H5.625v2.22h-30.557zM-24.927 219.066H5.63v2.22h-30.557zM-24.928 199.496H5.629v2.22h-30.557z" style="fill:#999;stroke-width:.363772;paint-order:markers stroke fill;stop-color:#000" transform="matrix(-.56651 0 0 -.5737 172.36 296.982)"/></g><g style="display:inline"><path d="M-69.782 194.98v31.455h80.66V194.98zm44.722 2.21H6.487c1.19 0 2.15.959 2.15 2.15v22.617c0 1.19-.96 2.15-2.15 2.15H-25.06c-1.19 0-2.15-.96-2.15-2.15V199.34c0-1.191.96-2.15 2.15-2.15m-40.034.026h31.547c1.19 0 2.15.96 2.15 2.15v22.617c0 1.19-.96 2.15-2.15 2.15h-31.547c-1.191 0-2.15-.96-2.15-2.15v-22.617c0-1.19.959-2.15 2.15-2.15" style="display:inline;fill:#333;stroke-width:.325772;paint-order:markers stroke fill;stop-color:#000" transform="matrix(-.56651 0 0 -.5737 126.882 296.982)"/><path d="M-65.201 197.209a2.157 2.157 0 0 0-2.173 2.15v22.617c0 1.19.969 2.149 2.173 2.149h31.897a2.156 2.156 0 0 0 2.173-2.15v-22.617c0-1.19-.97-2.15-2.173-2.15zm.966 2.761h29.968v21.118h-29.968z" style="fill:#666;stroke-width:.290663;paint-order:markers stroke fill;stop-color:#000" transform="matrix(-.56651 0 0 -.5737 126.882 296.982)"/><path d="M-25.458 197.133a2.165 2.165 0 0 0-2.182 2.158v22.705c0 1.195.973 2.157 2.182 2.157h32.02a2.165 2.165 0 0 0 2.181-2.157V199.29a2.165 2.165 0 0 0-2.181-2.158zm.97 2.772H5.595v21.2h-30.083Z" style="fill:#666;stroke-width:.291788;paint-order:markers stroke fill;stop-color:#000" transform="matrix(-.56651 0 0 -.5737 126.882 296.982)"/><path d="M-64.541 214.374h30.557v2.22h-30.557zM-64.549 204.754h30.557v2.22h-30.557zM-64.549 209.522h30.557v2.22h-30.557zM-64.544 219.321h30.557v2.22h-30.557zM-64.544 199.752h30.557v2.22h-30.557zM-24.924 214.118H5.633v2.22h-30.557zM-24.932 204.499H5.625v2.22h-30.557zM-24.932 209.267H5.625v2.22h-30.557zM-24.927 219.066H5.63v2.22h-30.557zM-24.928 199.496H5.629v2.22h-30.557z" style="fill:#999;stroke-width:.363772;paint-order:markers stroke fill;stop-color:#000" transform="matrix(-.56651 0 0 -.5737 126.882 296.982)"/></g><g style="display:inline"><path d="M-69.782 194.98v31.455h80.66V194.98zm44.722 2.21H6.487c1.19 0 2.15.959 2.15 2.15v22.617c0 1.19-.96 2.15-2.15 2.15H-25.06c-1.19 0-2.15-.96-2.15-2.15V199.34c0-1.191.96-2.15 2.15-2.15m-40.034.026h31.547c1.19 0 2.15.96 2.15 2.15v22.617c0 1.19-.96 2.15-2.15 2.15h-31.547c-1.191 0-2.15-.96-2.15-2.15v-22.617c0-1.19.959-2.15 2.15-2.15" style="display:inline;fill:#333;stroke-width:.325772;paint-order:markers stroke fill;stop-color:#000" transform="matrix(-.56651 0 0 -.5737 81.461 296.982)"/><path d="M-65.201 197.209a2.157 2.157 0 0 0-2.173 2.15v22.617c0 1.19.969 2.149 2.173 2.149h31.897a2.156 2.156 0 0 0 2.173-2.15v-22.617c0-1.19-.97-2.15-2.173-2.15zm.966 2.761h29.968v21.118h-29.968z" style="fill:#666;stroke-width:.290663;paint-order:markers stroke fill;stop-color:#000" transform="matrix(-.56651 0 0 -.5737 81.461 296.982)"/><path d="M-25.458 197.133a2.165 2.165 0 0 0-2.182 2.158v22.705c0 1.195.973 2.157 2.182 2.157h32.02a2.165 2.165 0 0 0 2.181-2.157V199.29a2.165 2.165 0 0 0-2.181-2.158zm.97 2.772H5.595v21.2h-30.083Z" style="fill:#666;stroke-width:.291788;paint-order:markers stroke fill;stop-color:#000" transform="matrix(-.56651 0 0 -.5737 81.461 296.982)"/><path d="M-64.541 214.374h30.557v2.22h-30.557zM-64.549 204.754h30.557v2.22h-30.557zM-64.549 209.522h30.557v2.22h-30.557zM-64.544 219.321h30.557v2.22h-30.557zM-64.544 199.752h30.557v2.22h-30.557zM-24.924 214.118H5.633v2.22h-30.557zM-24.932 204.499H5.625v2.22h-30.557zM-24.932 209.267H5.625v2.22h-30.557zM-24.927 219.066H5.63v2.22h-30.557zM-24.928 199.496H5.629v2.22h-30.557z" style="fill:#999;stroke-width:.363772;paint-order:markers stroke fill;stop-color:#000" transform="matrix(-.56651 0 0 -.5737 81.461 296.982)"/></g></g></svg>