<?xml version="1.0" encoding="UTF-8" standalone="no"?>
<!-- Created with Inkscape (http://www.inkscape.org/) -->

<svg
   width="559.0694"
   height="281.37967"
   viewBox="0 0 147.92045 74.448366"
   version="1.1"
   id="svg1"
   xmlns:xlink="http://www.w3.org/1999/xlink"
   xmlns="http://www.w3.org/2000/svg"
   xmlns:svg="http://www.w3.org/2000/svg">
  <defs
     id="defs1">
    <linearGradient
       xlink:href="#linearGradient1789"
       id="linearGradient55384"
       gradientUnits="userSpaceOnUse"
       gradientTransform="matrix(0,0.38962708,-0.3980099,0,6418.8512,-959.7807)"
       x1="112.28025"
       y1="85.870453"
       x2="96.735085"
       y2="54.829021" />
    <linearGradient
       id="linearGradient1789">
      <stop
         style="stop-color:#008cff;stop-opacity:1;"
         offset="0.53793103"
         id="stop1785" />
      <stop
         style="stop-color:#a5d9ff;stop-opacity:1;"
         offset="1"
         id="stop1787" />
    </linearGradient>
  </defs>
  <g
     id="layer1"
     transform="translate(-69.320838,-160.86671)">
    <rect
       style="fill:#4d4d4d;fill-opacity:1;stroke:#191919;stroke-width:2.17958;stroke-linecap:round;stroke-linejoin:round;stroke-miterlimit:4;stroke-dasharray:none;stroke-opacity:1;paint-order:markers fill stroke"
       id="rect143256"
       width="133.8773"
       height="59.737686"
       x="-210.27109"
       y="-227.98015"
       rx="13.702639"
       ry="20.487316"
       transform="scale(-1)" />
    <rect
       style="fill:#606060;fill-opacity:1;stroke:none;stroke-width:2.90612;stroke-linecap:round;stroke-linejoin:round;stroke-opacity:1;paint-order:markers fill stroke"
       id="rect143258"
       width="133.87729"
       height="26.828903"
       x="-210.27109"
       y="-211.52586"
       rx="0"
       ry="0"
       transform="scale(-1)" />
    <rect
       style="fill:none;fill-opacity:1;stroke:#191919;stroke-width:2.17958;stroke-linecap:round;stroke-linejoin:round;stroke-miterlimit:4;stroke-dasharray:none;stroke-opacity:1;paint-order:markers fill stroke"
       id="rect143260"
       width="133.8773"
       height="59.737686"
       x="-210.27109"
       y="-227.98015"
       rx="13.502654"
       ry="20.487316"
       transform="scale(-1)" />
    <path
       id="rect143262"
       style="fill:#00538f;fill-opacity:1;stroke:#001a2d;stroke-width:1.68703;stroke-linecap:round;stroke-linejoin:round;stroke-dasharray:none;stroke-opacity:1;stop-color:#000000"
       d="m 70.141076,161.73423 v 4.64101 l 0.148802,5e-5 v 63.43125 h -0.145194 v 4.64112 l 146.276306,-6e-5 5e-5,-4.64106 h -0.0832 l 5e-5,-63.4313 h 0.0799 l 5e-5,-4.64106 z m 4.414922,4.64083 H 212.07267 v 48.55208 l -14.06942,14.87922 -108.991817,-6e-5 -14.455435,-15.28793 z m 0,55.1506 7.830582,8.28064 h -7.830582 z m 137.516672,0.40829 v 7.87235 h -7.44451 z" />
    <path
       id="path143266"
       style="fill:#191919;fill-opacity:1;stroke:#191919;stroke-width:2.90611;stroke-linecap:round;stroke-linejoin:round;stroke-opacity:1;paint-order:markers fill stroke"
       d="m 202.35315,198.11122 6.87373,-1.89012 v 3.78007 z" />
    <path
       id="path143268"
       style="fill:#191919;fill-opacity:1;stroke:#191919;stroke-width:2.90611;stroke-linecap:round;stroke-linejoin:round;stroke-opacity:1;paint-order:markers fill stroke"
       d="m 84.311432,198.11122 -6.87369,-1.89012 v 3.78007 z" />
    <g
       id="g143288"
       transform="matrix(0,-0.83009142,0.78491951,0,866.21992,5522.7939)">
      <rect
         style="fill:#4d4d4d;fill-opacity:1;stroke:#191919;stroke-width:1.49313;stroke-linecap:round;stroke-linejoin:round;stroke-miterlimit:4;stroke-dasharray:none;stroke-opacity:1;paint-order:markers fill stroke"
         id="rect143270"
         width="30.30621"
         height="29.55072"
         x="952.08698"
         y="6399.5835"
         rx="2.6720369"
         transform="rotate(-90)"
         ry="2.7292678" />
      <ellipse
         style="fill:#373737;fill-opacity:1;stroke:#191919;stroke-width:1.16148;stroke-linecap:round;stroke-linejoin:round;stroke-miterlimit:4;stroke-dasharray:none;stroke-opacity:1"
         id="ellipse143272"
         cx="5219.7197"
         cy="3851.488"
         rx="12.223697"
         ry="12.223695"
         transform="rotate(-45)" />
      <circle
         style="fill:#505050;fill-opacity:1;stroke:none;stroke-width:1.54894;stroke-linecap:round;stroke-linejoin:round;stroke-miterlimit:4;stroke-dasharray:none;stroke-opacity:1"
         id="circle143274"
         cx="5219.7197"
         cy="3851.488"
         transform="rotate(-45)"
         r="8.9228477" />
      <rect
         style="fill:#373737;fill-opacity:1;stroke:#373737;stroke-width:2.45839;stroke-linecap:butt;stroke-linejoin:round;stroke-dasharray:none;stroke-opacity:1"
         id="rect143276"
         width="7.9660149"
         height="3.9830074"
         x="-6418.3418"
         y="967.24005"
         ry="0"
         transform="scale(-1)" />
      <circle
         style="fill:#181818;fill-opacity:1;stroke:none;stroke-width:2.45751;stroke-linecap:round;stroke-linejoin:round;stroke-miterlimit:4;stroke-dasharray:none;stroke-opacity:1"
         id="circle143278"
         cx="-2896.2217"
         cy="5808.835"
         transform="rotate(-125.07029)"
         r="0.38723677" />
      <circle
         style="fill:#181818;fill-opacity:1;stroke:none;stroke-width:2.45751;stroke-linecap:round;stroke-linejoin:round;stroke-miterlimit:4;stroke-dasharray:none;stroke-opacity:1"
         id="circle143280"
         cx="-2892.9619"
         cy="5811.1235"
         transform="rotate(-125.07029)"
         r="0.38723677" />
      <circle
         style="fill:#181818;fill-opacity:1;stroke:none;stroke-width:2.45751;stroke-linecap:round;stroke-linejoin:round;stroke-miterlimit:4;stroke-dasharray:none;stroke-opacity:1"
         id="circle143282"
         cx="-2888.3848"
         cy="5804.6035"
         transform="rotate(-125.07029)"
         r="0.38723677" />
      <ellipse
         style="fill:#181818;fill-opacity:1;stroke:none;stroke-width:2.45751;stroke-linecap:round;stroke-linejoin:round;stroke-miterlimit:4;stroke-dasharray:none;stroke-opacity:1"
         id="ellipse143284"
         cx="-2891.6445"
         cy="5802.3149"
         transform="rotate(-125.07029)"
         rx="0.38723683"
         ry="0.38723677" />
      <rect
         style="fill:none;fill-opacity:1;stroke:#232323;stroke-width:0.580743;stroke-linecap:round;stroke-linejoin:round;stroke-miterlimit:4;stroke-dasharray:none;stroke-opacity:1"
         id="rect143286"
         width="2.7631333"
         height="6.3049736"
         x="-975.27795"
         y="-6416.999"
         transform="matrix(-5.268865e-4,0.99999986,-0.9999999,-4.5131798e-4,0,0)" />
    </g>
    <g
       id="g143308"
       transform="matrix(0,-0.83009142,0.78491951,0,866.21992,5522.7635)">
      <rect
         style="fill:#4d4d4d;fill-opacity:1;stroke:#191919;stroke-width:1.49313;stroke-linecap:round;stroke-linejoin:round;stroke-miterlimit:4;stroke-dasharray:none;stroke-opacity:1;paint-order:markers fill stroke"
         id="rect143290"
         width="30.30621"
         height="29.55072"
         x="860.03894"
         y="6399.5098"
         rx="2.6720369"
         transform="rotate(-90)"
         ry="2.7292678" />
      <ellipse
         style="fill:#373737;fill-opacity:1;stroke:#191919;stroke-width:1.16148;stroke-linecap:round;stroke-linejoin:round;stroke-miterlimit:4;stroke-dasharray:none;stroke-opacity:1"
         id="ellipse143292"
         cx="5154.5796"
         cy="3916.5239"
         rx="12.223697"
         ry="12.223695"
         transform="rotate(-45)" />
      <circle
         style="fill:#505050;fill-opacity:1;stroke:none;stroke-width:1.54894;stroke-linecap:round;stroke-linejoin:round;stroke-miterlimit:4;stroke-dasharray:none;stroke-opacity:1"
         id="circle143294"
         cx="5154.5796"
         cy="3916.5239"
         transform="rotate(-45)"
         r="8.9228477" />
      <rect
         style="fill:#373737;fill-opacity:1;stroke:#373737;stroke-width:2.45839;stroke-linecap:butt;stroke-linejoin:round;stroke-dasharray:none;stroke-opacity:1"
         id="rect143296"
         width="7.9660149"
         height="3.9830074"
         x="-6418.2681"
         y="875.19202"
         ry="0"
         transform="scale(-1)" />
      <circle
         style="fill:#181818;fill-opacity:1;stroke:none;stroke-width:2.45751;stroke-linecap:round;stroke-linejoin:round;stroke-miterlimit:4;stroke-dasharray:none;stroke-opacity:1"
         id="circle143298"
         cx="-2971.5159"
         cy="5755.8857"
         transform="rotate(-125.07029)"
         r="0.38723677" />
      <circle
         style="fill:#181818;fill-opacity:1;stroke:none;stroke-width:2.45751;stroke-linecap:round;stroke-linejoin:round;stroke-miterlimit:4;stroke-dasharray:none;stroke-opacity:1"
         id="circle143300"
         cx="-2968.2561"
         cy="5758.1743"
         transform="rotate(-125.07029)"
         r="0.38723677" />
      <circle
         style="fill:#181818;fill-opacity:1;stroke:none;stroke-width:2.45751;stroke-linecap:round;stroke-linejoin:round;stroke-miterlimit:4;stroke-dasharray:none;stroke-opacity:1"
         id="circle143302"
         cx="-2963.679"
         cy="5751.6543"
         transform="rotate(-125.07029)"
         r="0.38723677" />
      <ellipse
         style="fill:#181818;fill-opacity:1;stroke:none;stroke-width:2.45751;stroke-linecap:round;stroke-linejoin:round;stroke-miterlimit:4;stroke-dasharray:none;stroke-opacity:1"
         id="ellipse143304"
         cx="-2966.9387"
         cy="5749.3657"
         transform="rotate(-125.07029)"
         rx="0.38723683"
         ry="0.38723677" />
      <rect
         style="fill:none;fill-opacity:1;stroke:#232323;stroke-width:0.580743;stroke-linecap:round;stroke-linejoin:round;stroke-miterlimit:4;stroke-dasharray:none;stroke-opacity:1"
         id="rect143306"
         width="2.7631333"
         height="6.3049736"
         x="-883.22986"
         y="-6416.9736"
         transform="matrix(-5.268865e-4,0.99999986,-0.9999999,-4.5131798e-4,0,0)" />
    </g>
    <g
       id="g143316"
       transform="matrix(0,-0.83364761,0.78828218,0,869.3824,5542.0496)">
      <path
         style="fill:#212226;stroke:none;stroke-width:1.41111;stroke-linecap:round;stroke-linejoin:round;stroke-miterlimit:10;stroke-dasharray:none"
         d="m 6403.9929,-920.05364 c -0.4014,0.34577 -1.204,1.0372 -1.9906,1.68149 -0.7866,0.6443 -1.5571,1.24142 -2.3491,1.82288 -0.7919,0.58146 -1.6053,1.14724 -2.4454,1.66058 -0.8401,0.51334 -1.7069,0.97427 -2.4454,1.33047 -0.7384,0.3562 -1.3484,0.60764 -2.0762,0.84861 -0.7277,0.24096 -1.5731,0.47145 -2.2741,0.61287 -0.701,0.14142 -1.2575,0.19379 -1.8621,0.19378 -0.6047,-2e-5 -1.2575,-0.0524 -1.9531,-0.22525 -0.6956,-0.17287 -1.434,-0.46625 -2.0547,-0.80674 -0.6207,-0.34048 -1.1237,-0.7281 -1.6106,-1.19432 -0.487,-0.46622 -0.9578,-1.01092 -1.3377,-1.61331 -0.3799,-0.60239 -0.6689,-1.26237 -0.8829,-1.94336 -0.2141,-0.68098 -0.3532,-1.38288 -0.4227,-1.99577 -0.07,-0.61289 -0.07,-1.13669 -0.032,-1.60815 0.038,-0.47146 0.1124,-0.89043 0.2087,-1.26237 0.096,-0.37194 0.214,-0.69663 0.3638,-1.04763 0.1499,-0.351 0.3318,-0.7281 0.6314,-1.1943 0.2996,-0.46621 0.7171,-1.0215 1.1398,-1.48248 0.4227,-0.46098 0.8507,-0.82765 1.2092,-1.10008 0.3586,-0.27242 0.6475,-0.45049 1.1184,-0.66004 0.4709,-0.20955 1.1237,-0.45052 1.6695,-0.59721 0.5458,-0.14668 0.9846,-0.19905 1.4661,-0.21474 0.4816,-0.0157 1.006,0.005 1.6803,0.0996 0.6742,0.0943 1.4982,0.26189 2.3651,0.53426 0.8669,0.27238 1.7765,0.64955 2.5739,1.02673 0.7973,0.37718 1.4822,0.75433 2.2474,1.22578 0.7652,0.47146 1.6106,1.03716 2.4882,1.67625 0.8776,0.6391 1.7872,1.35146 2.5417,1.95386 0.7545,0.6024 1.3538,1.09478 1.7337,1.39858 0.3799,0.3038 0.5404,0.41903 0.6207,0.47669 0.08,0.0577 0.08,0.0576 -0.3211,0.40332 z"
         id="path143310" />
      <path
         style="fill:url(#linearGradient55384);fill-opacity:1;stroke:none;stroke-width:3.08933;stroke-linecap:round;stroke-linejoin:round;stroke-miterlimit:10"
         d="m 6389.1159,-924.18556 c 0.198,-0.0157 0.5939,-0.047 1.0434,-0.0365 0.4495,0.0105 0.9525,0.0629 1.4555,0.18859 0.5031,0.12571 1.0061,0.32478 1.4984,0.57623 0.4922,0.25145 0.9738,0.55525 1.4661,0.90623 0.4923,0.35099 0.9953,0.74909 1.4073,1.10528 0.412,0.35619 0.7331,0.6705 1.0488,0.99002 0.3157,0.31952 0.6261,0.64433 0.7597,0.81193 0.1336,0.16759 0.091,0.17795 -0.021,0.16739 -0.1121,-0.0106 -0.2943,-0.0419 -0.5992,-0.0366 -0.305,0.005 -0.7331,0.0473 -1.2254,0.17299 -0.4922,0.12574 -1.0487,0.33524 -1.5785,0.54476 -0.5297,0.20952 -1.0327,0.41905 -1.4019,0.56573 -0.3692,0.14667 -0.6047,0.23052 -0.8294,0.30909 -0.2247,0.0786 -0.4388,0.15192 -0.5297,0.20955 -0.091,0.0576 -0.059,0.0996 0.1389,0.18855 0.1979,0.089 0.5617,0.22518 0.9309,0.29846 0.3692,0.0733 0.7438,0.0836 1.1451,0.0574 0.4013,-0.0263 0.8294,-0.0891 1.0275,-0.0996 0.1981,-0.0104 0.166,0.0315 0.075,0.16252 -0.091,0.131 -0.2408,0.35098 -0.4762,0.66003 -0.2355,0.30905 -0.5565,0.70711 -0.9365,1.06856 -0.3799,0.36144 -0.8186,0.68615 -1.1879,0.9114 -0.3692,0.22525 -0.6688,0.35097 -0.8292,0.39834 -0.1603,0.0474 -0.1821,0.0153 -0.3211,-0.0578 -0.139,-0.0731 -0.3959,-0.18836 -0.749,-0.36646 -0.3531,-0.1781 -0.8026,-0.41909 -1.3324,-0.81196 -0.5297,-0.39287 -1.1397,-0.93765 -1.755,-1.56624 -0.6154,-0.62858 -1.2361,-1.34098 -1.7765,-2.18432 -0.5405,-0.84334 -1.0006,-1.81765 -1.3377,-2.79718 -0.3372,-0.97952 -0.5512,-1.96431 -0.6423,-2.47233 -0.091,-0.50803 -0.059,-0.53969 0.096,-0.68618 0.155,-0.1465 0.4332,-0.40837 0.7329,-0.64932 0.2996,-0.24095 0.6207,-0.46097 0.9792,-0.6548 0.3585,-0.19383 0.7545,-0.36147 1.2521,-0.50817 0.4977,-0.1467 1.097,-0.27243 1.5893,-0.32481 0.4923,-0.0524 0.8775,-0.0314 1.3056,0.021 0.4281,0.0524 0.899,0.13621 1.4181,0.31432 0.519,0.17811 1.0862,0.45047 1.5303,0.71241 0.4442,0.26194 0.7653,0.51338 0.9097,0.64428 0.1444,0.1309 0.1125,0.1412 -0.037,0.12017 -0.1497,-0.021 -0.4174,-0.0734 -0.7384,-0.0996 -0.3211,-0.0262 -0.6957,-0.0262 -1.1398,0.0157 -0.4441,0.0419 -0.9578,0.12571 -1.3217,0.2305 -0.3639,0.1048 -0.5779,0.23055 -0.7438,0.35626 -0.1658,0.12572 -0.2836,0.25145 -0.3583,0.36126 -0.075,0.1098 -0.1069,0.20446 -0.1229,0.25156 -0.016,0.0471 -0.017,0.047 0.1814,0.0313 z"
         id="path143312" />
      <path
         style="fill:#0076d5;fill-opacity:1;stroke:#008cff;stroke-width:3.11371;stroke-linecap:round;stroke-linejoin:round;stroke-miterlimit:10;stroke-opacity:0"
         d="m 6391.3987,-914.00627 c -0.2047,0.0791 -0.614,0.23733 -1.1527,0.33224 -0.5386,0.0949 -1.2064,0.12657 -1.7827,0.0949 -0.5764,-0.0316 -1.0611,-0.12651 -1.5243,-0.25832 -0.4632,-0.13182 -0.9049,-0.30056 -1.4435,-0.61165 -0.5386,-0.31109 -1.1741,-0.76455 -1.7343,-1.39197 -0.5601,-0.62743 -1.0449,-1.42894 -1.3411,-2.09326 -0.2962,-0.66432 -0.404,-1.19163 -0.4578,-1.75052 -0.054,-0.55888 -0.054,-1.14938 0.043,-1.73992 0.097,-0.59054 0.2909,-1.18114 0.4686,-1.62929 0.1777,-0.44816 0.3393,-0.75397 0.5117,-1.02816 0.1723,-0.27419 0.3555,-0.51675 0.4631,-0.64851 0.1077,-0.13175 0.1405,-0.15305 0.1889,0.11599 0.048,0.26904 0.113,0.82799 0.2315,1.38692 0.1185,0.55894 0.2908,1.11786 0.5978,1.82965 0.307,0.71179 0.7487,1.57651 1.1042,2.18285 0.3555,0.60635 0.6248,0.95427 0.9803,1.3603 0.3555,0.40603 0.7971,0.87001 1.2818,1.31293 0.4848,0.44293 1.0126,0.86471 1.5297,1.20744 0.517,0.34273 1.0234,0.60637 1.3735,0.79092 0.3501,0.18456 0.544,0.29001 0.6624,0.35324 0.1185,0.0632 0.1615,0.0842 0.1831,0.0947 0.022,0.0105 0.022,0.0103 -0.1832,0.0895 z"
         id="path143314" />
    </g>
    <g
       id="g143352"
       transform="matrix(-0.56651019,0,0,-0.57370093,172.35931,296.98166)"
       style="display:inline">
      <path
         id="path143326"
         style="display:inline;fill:#333333;stroke-width:0.325772;paint-order:markers stroke fill;stop-color:#000000"
         d="m -69.782308,194.98086 v 31.45389 h 80.65968 v -31.45389 z m 44.72234,2.20968 H 6.4869423 c 1.19086,0 2.14974,0.95836 2.14974,2.14923 v 22.61722 c 0,1.19087 -0.95888,2.14974 -2.14974,2.14974 H -25.059968 c -1.19087,0 -2.14974,-0.95887 -2.14974,-2.14974 v -22.61722 c 0,-1.19087 0.95887,-2.14923 2.14974,-2.14923 z m -40.03425,0.0258 h 31.54691 c 1.19087,0 2.14974,0.95888 2.14974,2.14974 v 22.61675 c 0,1.19086 -0.95887,2.14974 -2.14974,2.14974 h -31.54691 c -1.19087,0 -2.14974,-0.95888 -2.14974,-2.14974 v -22.61671 c 0,-1.19086 0.95887,-2.14974 2.14974,-2.14974 z" />
      <path
         id="path143328"
         style="fill:#666666;stroke-width:0.290663;paint-order:markers stroke fill;stop-color:#000000"
         d="m -65.201168,197.20863 c -1.20405,0 -2.17301,0.95888 -2.17301,2.14974 v 22.61722 c 0,1.19087 0.96896,2.14923 2.17301,2.14923 h 31.89671 c 1.20405,0 2.17302,-0.95836 2.17302,-2.14923 v -22.61722 c 0,-1.19086 -0.96897,-2.14974 -2.17302,-2.14974 z m 0.96608,2.76159 h 29.96769 v 21.11809 h -29.96769 z" />
      <path
         id="path143330"
         style="fill:#666666;stroke-width:0.291788;paint-order:markers stroke fill;stop-color:#000000"
         d="m -25.458268,197.13298 c -1.20872,0 -2.18143,0.96259 -2.18143,2.15806 v 22.70479 c 0,1.19548 0.97271,2.15755 2.18143,2.15755 H 6.5619323 c 1.20871,0 2.18143,-0.96207 2.18143,-2.15755 v -22.70479 c 0,-1.19547 -0.97272,-2.15806 -2.18143,-2.15806 z m 0.96982,2.77228 H 5.5952623 v 21.19985 H -24.488448 Z" />
      <rect
         style="fill:#999999;stroke-width:0.363772;paint-order:markers stroke fill;stop-color:#000000"
         id="rect143332"
         width="30.556665"
         height="2.2202444"
         x="-64.541"
         y="214.37361" />
      <rect
         style="fill:#999999;stroke-width:0.363772;paint-order:markers stroke fill;stop-color:#000000"
         id="rect143334"
         width="30.556665"
         height="2.2202444"
         x="-64.548813"
         y="204.75446" />
      <rect
         style="fill:#999999;stroke-width:0.363772;paint-order:markers stroke fill;stop-color:#000000"
         id="rect143336"
         width="30.556665"
         height="2.2202444"
         x="-64.548508"
         y="209.52229" />
      <rect
         style="fill:#999999;stroke-width:0.363772;paint-order:markers stroke fill;stop-color:#000000"
         id="rect143338"
         width="30.556665"
         height="2.2202444"
         x="-64.543839"
         y="219.32129" />
      <rect
         style="fill:#999999;stroke-width:0.363772;paint-order:markers stroke fill;stop-color:#000000"
         id="rect143340"
         width="30.556665"
         height="2.2202444"
         x="-64.544449"
         y="199.75175" />
      <rect
         style="fill:#999999;stroke-width:0.363772;paint-order:markers stroke fill;stop-color:#000000"
         id="rect143342"
         width="30.556665"
         height="2.2202444"
         x="-24.924486"
         y="214.11826" />
      <rect
         style="fill:#999999;stroke-width:0.363772;paint-order:markers stroke fill;stop-color:#000000"
         id="rect143344"
         width="30.556665"
         height="2.2202444"
         x="-24.932299"
         y="204.4991" />
      <rect
         style="fill:#999999;stroke-width:0.363772;paint-order:markers stroke fill;stop-color:#000000"
         id="rect143346"
         width="30.556665"
         height="2.2202444"
         x="-24.931993"
         y="209.26694" />
      <rect
         style="fill:#999999;stroke-width:0.363772;paint-order:markers stroke fill;stop-color:#000000"
         id="rect143348"
         width="30.556665"
         height="2.2202444"
         x="-24.927324"
         y="219.06593" />
      <rect
         style="fill:#999999;stroke-width:0.363772;paint-order:markers stroke fill;stop-color:#000000"
         id="rect143350"
         width="30.556665"
         height="2.2202444"
         x="-24.927935"
         y="199.4964" />
    </g>
    <g
       id="g143380"
       transform="matrix(-0.56651019,0,0,-0.57370093,126.88216,296.98158)"
       style="display:inline">
      <path
         id="path143354"
         style="display:inline;fill:#333333;stroke-width:0.325772;paint-order:markers stroke fill;stop-color:#000000"
         d="m -69.782308,194.98086 v 31.45389 h 80.65968 v -31.45389 z m 44.72234,2.20968 H 6.4869423 c 1.19086,0 2.14974,0.95836 2.14974,2.14923 v 22.61722 c 0,1.19087 -0.95888,2.14974 -2.14974,2.14974 H -25.059968 c -1.19087,0 -2.14974,-0.95887 -2.14974,-2.14974 v -22.61722 c 0,-1.19087 0.95887,-2.14923 2.14974,-2.14923 z m -40.03425,0.0258 h 31.54691 c 1.19087,0 2.14974,0.95888 2.14974,2.14974 v 22.61675 c 0,1.19086 -0.95887,2.14974 -2.14974,2.14974 h -31.54691 c -1.19087,0 -2.14974,-0.95888 -2.14974,-2.14974 v -22.61671 c 0,-1.19086 0.95887,-2.14974 2.14974,-2.14974 z" />
      <path
         id="path143356"
         style="fill:#666666;stroke-width:0.290663;paint-order:markers stroke fill;stop-color:#000000"
         d="m -65.201168,197.20863 c -1.20405,0 -2.17301,0.95888 -2.17301,2.14974 v 22.61722 c 0,1.19087 0.96896,2.14923 2.17301,2.14923 h 31.89671 c 1.20405,0 2.17302,-0.95836 2.17302,-2.14923 v -22.61722 c 0,-1.19086 -0.96897,-2.14974 -2.17302,-2.14974 z m 0.96608,2.76159 h 29.96769 v 21.11809 h -29.96769 z" />
      <path
         id="path143358"
         style="fill:#666666;stroke-width:0.291788;paint-order:markers stroke fill;stop-color:#000000"
         d="m -25.458268,197.13298 c -1.20872,0 -2.18143,0.96259 -2.18143,2.15806 v 22.70479 c 0,1.19548 0.97271,2.15755 2.18143,2.15755 H 6.5619323 c 1.20871,0 2.18143,-0.96207 2.18143,-2.15755 v -22.70479 c 0,-1.19547 -0.97272,-2.15806 -2.18143,-2.15806 z m 0.96982,2.77228 H 5.5952623 v 21.19985 H -24.488448 Z" />
      <rect
         style="fill:#999999;stroke-width:0.363772;paint-order:markers stroke fill;stop-color:#000000"
         id="rect143360"
         width="30.556665"
         height="2.2202444"
         x="-64.541"
         y="214.37361" />
      <rect
         style="fill:#999999;stroke-width:0.363772;paint-order:markers stroke fill;stop-color:#000000"
         id="rect143362"
         width="30.556665"
         height="2.2202444"
         x="-64.548813"
         y="204.75446" />
      <rect
         style="fill:#999999;stroke-width:0.363772;paint-order:markers stroke fill;stop-color:#000000"
         id="rect143364"
         width="30.556665"
         height="2.2202444"
         x="-64.548508"
         y="209.52229" />
      <rect
         style="fill:#999999;stroke-width:0.363772;paint-order:markers stroke fill;stop-color:#000000"
         id="rect143366"
         width="30.556665"
         height="2.2202444"
         x="-64.543839"
         y="219.32129" />
      <rect
         style="fill:#999999;stroke-width:0.363772;paint-order:markers stroke fill;stop-color:#000000"
         id="rect143368"
         width="30.556665"
         height="2.2202444"
         x="-64.544449"
         y="199.75175" />
      <rect
         style="fill:#999999;stroke-width:0.363772;paint-order:markers stroke fill;stop-color:#000000"
         id="rect143370"
         width="30.556665"
         height="2.2202444"
         x="-24.924486"
         y="214.11826" />
      <rect
         style="fill:#999999;stroke-width:0.363772;paint-order:markers stroke fill;stop-color:#000000"
         id="rect143372"
         width="30.556665"
         height="2.2202444"
         x="-24.932299"
         y="204.4991" />
      <rect
         style="fill:#999999;stroke-width:0.363772;paint-order:markers stroke fill;stop-color:#000000"
         id="rect143374"
         width="30.556665"
         height="2.2202444"
         x="-24.931993"
         y="209.26694" />
      <rect
         style="fill:#999999;stroke-width:0.363772;paint-order:markers stroke fill;stop-color:#000000"
         id="rect143376"
         width="30.556665"
         height="2.2202444"
         x="-24.927324"
         y="219.06593" />
      <rect
         style="fill:#999999;stroke-width:0.363772;paint-order:markers stroke fill;stop-color:#000000"
         id="rect143378"
         width="30.556665"
         height="2.2202444"
         x="-24.927935"
         y="199.4964" />
    </g>
    <g
       id="g143408"
       transform="matrix(-0.56651019,0,0,-0.57370093,81.461153,296.98158)"
       style="display:inline">
      <path
         id="path143382"
         style="display:inline;fill:#333333;stroke-width:0.325772;paint-order:markers stroke fill;stop-color:#000000"
         d="m -69.782308,194.98086 v 31.45389 h 80.65968 v -31.45389 z m 44.72234,2.20968 H 6.4869423 c 1.19086,0 2.14974,0.95836 2.14974,2.14923 v 22.61722 c 0,1.19087 -0.95888,2.14974 -2.14974,2.14974 H -25.059968 c -1.19087,0 -2.14974,-0.95887 -2.14974,-2.14974 v -22.61722 c 0,-1.19087 0.95887,-2.14923 2.14974,-2.14923 z m -40.03425,0.0258 h 31.54691 c 1.19087,0 2.14974,0.95888 2.14974,2.14974 v 22.61675 c 0,1.19086 -0.95887,2.14974 -2.14974,2.14974 h -31.54691 c -1.19087,0 -2.14974,-0.95888 -2.14974,-2.14974 v -22.61671 c 0,-1.19086 0.95887,-2.14974 2.14974,-2.14974 z" />
      <path
         id="path143384"
         style="fill:#666666;stroke-width:0.290663;paint-order:markers stroke fill;stop-color:#000000"
         d="m -65.201168,197.20863 c -1.20405,0 -2.17301,0.95888 -2.17301,2.14974 v 22.61722 c 0,1.19087 0.96896,2.14923 2.17301,2.14923 h 31.89671 c 1.20405,0 2.17302,-0.95836 2.17302,-2.14923 v -22.61722 c 0,-1.19086 -0.96897,-2.14974 -2.17302,-2.14974 z m 0.96608,2.76159 h 29.96769 v 21.11809 h -29.96769 z" />
      <path
         id="path143386"
         style="fill:#666666;stroke-width:0.291788;paint-order:markers stroke fill;stop-color:#000000"
         d="m -25.458268,197.13298 c -1.20872,0 -2.18143,0.96259 -2.18143,2.15806 v 22.70479 c 0,1.19548 0.97271,2.15755 2.18143,2.15755 H 6.5619323 c 1.20871,0 2.18143,-0.96207 2.18143,-2.15755 v -22.70479 c 0,-1.19547 -0.97272,-2.15806 -2.18143,-2.15806 z m 0.96982,2.77228 H 5.5952623 v 21.19985 H -24.488448 Z" />
      <rect
         style="fill:#999999;stroke-width:0.363772;paint-order:markers stroke fill;stop-color:#000000"
         id="rect143388"
         width="30.556665"
         height="2.2202444"
         x="-64.541"
         y="214.37361" />
      <rect
         style="fill:#999999;stroke-width:0.363772;paint-order:markers stroke fill;stop-color:#000000"
         id="rect143390"
         width="30.556665"
         height="2.2202444"
         x="-64.548813"
         y="204.75446" />
      <rect
         style="fill:#999999;stroke-width:0.363772;paint-order:markers stroke fill;stop-color:#000000"
         id="rect143392"
         width="30.556665"
         height="2.2202444"
         x="-64.548508"
         y="209.52229" />
      <rect
         style="fill:#999999;stroke-width:0.363772;paint-order:markers stroke fill;stop-color:#000000"
         id="rect143394"
         width="30.556665"
         height="2.2202444"
         x="-64.543839"
         y="219.32129" />
      <rect
         style="fill:#999999;stroke-width:0.363772;paint-order:markers stroke fill;stop-color:#000000"
         id="rect143396"
         width="30.556665"
         height="2.2202444"
         x="-64.544449"
         y="199.75175" />
      <rect
         style="fill:#999999;stroke-width:0.363772;paint-order:markers stroke fill;stop-color:#000000"
         id="rect143398"
         width="30.556665"
         height="2.2202444"
         x="-24.924486"
         y="214.11826" />
      <rect
         style="fill:#999999;stroke-width:0.363772;paint-order:markers stroke fill;stop-color:#000000"
         id="rect143400"
         width="30.556665"
         height="2.2202444"
         x="-24.932299"
         y="204.4991" />
      <rect
         style="fill:#999999;stroke-width:0.363772;paint-order:markers stroke fill;stop-color:#000000"
         id="rect143402"
         width="30.556665"
         height="2.2202444"
         x="-24.931993"
         y="209.26694" />
      <rect
         style="fill:#999999;stroke-width:0.363772;paint-order:markers stroke fill;stop-color:#000000"
         id="rect143404"
         width="30.556665"
         height="2.2202444"
         x="-24.927324"
         y="219.06593" />
      <rect
         style="fill:#999999;stroke-width:0.363772;paint-order:markers stroke fill;stop-color:#000000"
         id="rect143406"
         width="30.556665"
         height="2.2202444"
         x="-24.927935"
         y="199.4964" />
    </g>
  </g>
</svg>
