<svg xmlns="http://www.w3.org/2000/svg" width="140.645" height="127.673" viewBox="0 0 37.212 33.78"><g transform="translate(-2543.162 806.7)"><circle cx="2561.768" cy="-788.114" r="11.906" style="fill:#97866b;fill-opacity:1;stroke:#27221b;stroke-width:1.5;stroke-linecap:round;stroke-linejoin:round;stroke-miterlimit:10;stroke-dasharray:none;stroke-opacity:1"/><circle cx="2551.732" cy="-797.744" r="3.969" style="fill:#b4a894;fill-opacity:1;stroke:#27221b;stroke-width:1.5;stroke-linecap:round;stroke-miterlimit:4;stroke-dasharray:none;stroke-opacity:1"/><circle cx="2571.804" cy="-797.744" r="3.969" style="fill:#b4a894;fill-opacity:1;stroke:#27221b;stroke-width:1.5;stroke-linecap:round;stroke-miterlimit:4;stroke-dasharray:none;stroke-opacity:1"/><path d="M2552.64-805.708c-.972.007-8.734.52-8.48 15.08h35.216c.27-15.53-8.579-15.079-8.579-15.079h-18.059q0-.001-.099 0z" style="fill:#0094b2;fill-opacity:.582979;stroke:#005666;stroke-width:1.98438;stroke-linecap:square;stroke-linejoin:round;stroke-dasharray:none;stroke-opacity:.8"/><path d="M2544.16-799.927v26.015h35.216v-26.015h-2.863l-1.462 4.576h-2.047l-.73 3.087h-21.012l-.73-3.087h-2.047l-1.462-4.576z" style="fill:#7f7f7f;fill-opacity:1;stroke:#232323;stroke-width:1.98438;stroke-linecap:square;stroke-linejoin:round;stroke-dasharray:none;stroke-opacity:1"/><path d="M2548.485-795.35v21.438h26.566v-21.439h-2.047l-.73 3.087h-21.012l-.73-3.087z" style="fill:#909090;fill-opacity:1;stroke:none;stroke-width:1.5;stroke-linecap:square;stroke-linejoin:round;stroke-dasharray:none;stroke-opacity:1"/><circle cx="2572.881" cy="-796.713" r=".848" style="fill:none;fill-opacity:.301961;stroke:#00b8dd;stroke-width:.660932;stroke-linecap:square;stroke-linejoin:round;stroke-dasharray:none;stroke-opacity:.301961"/><path d="M2544.16-799.927v26.015h35.216v-26.015h-2.863l-1.462 4.576h-2.047l-.73 3.087h-21.012l-.73-3.087h-2.047l-1.462-4.576z" style="fill:none;fill-opacity:1;stroke:#232323;stroke-width:1.98438;stroke-linecap:square;stroke-linejoin:round;stroke-dasharray:none;stroke-opacity:1"/><path d="M2569.888-776.289a2.18 2.18 0 0 1-1.89-2.156 2 2 0 0 1 .032-.36 2 2 0 0 1-.327-.15 2.18 2.18 0 0 1-.922-2.716l.068.04a1.53 1.53 0 0 0 .677 1.818 1.53 1.53 0 0 0 .836.203 1.53 1.53 0 0 0 1.21-.702l.2.116a.4.4 0 0 0-.03.151.436.436 0 0 0 .363.43v.231a1.527 1.527 0 0 0-1.454 1.52 1.53 1.53 0 0 0 1.237 1.498zm.581 0v-.077a1.53 1.53 0 0 0 1.237-1.498 1.527 1.527 0 0 0-1.454-1.524v-.228a.436.436 0 0 0 .363-.429.4.4 0 0 0-.028-.15l.2-.117a1.53 1.53 0 0 0 1.208.702 1.53 1.53 0 0 0 .836-.203 1.53 1.53 0 0 0 .68-1.82l.07-.04a2.18 2.18 0 0 1-.927 2.718 2 2 0 0 1-.327.15 2 2 0 0 1 .033.36 2.18 2.18 0 0 1-1.89 2.156zm-.29-1.793c-.46 0-.883-.16-1.218-.427a1.4 1.4 0 0 1 .315-.395c.248.196.56.313.903.313s.657-.118.905-.315a1.4 1.4 0 0 1 .314.395 1.95 1.95 0 0 1-1.22.43zm-1.824-1.674a1 1 0 0 1-.116-.004 2 2 0 0 1-.024-.284c0-.827.517-1.536 1.244-1.824a1.4 1.4 0 0 1 .186.47 1.45 1.45 0 0 0-.904 1.561 1.4 1.4 0 0 1-.386.082zm3.647 0a1.4 1.4 0 0 1-.386-.082 1.45 1.45 0 0 0-.9-1.56 1.4 1.4 0 0 1 .185-.47 1.97 1.97 0 0 1 1.241 1.823q-.002.145-.024.284a1 1 0 0 1-.117.005zm-2.159-.566-.197-.114a1.527 1.527 0 0 0-.593-2.02 1.53 1.53 0 0 0-1.913.321l-.068-.04a2.18 2.18 0 0 1 2.812-.558 2 2 0 0 1 .296.206 2 2 0 0 1 .293-.206 2.18 2.18 0 0 1 2.812.56l-.068.038a1.53 1.53 0 0 0-1.913-.322 1.527 1.527 0 0 0-.59 2.02l-.2.114a.44.44 0 0 0-.336-.158.44.44 0 0 0-.335.16" style="fill:#b8b8b8;fill-opacity:1;stroke-width:.445789"/><rect width="2.43" height="1.256" x="2551.103" y="-790.355" ry=".628" style="fill:#d51a1a;fill-opacity:1;stroke:#1e1e1e;stroke-width:.661458;stroke-linecap:square;stroke-linejoin:round;stroke-dasharray:none;stroke-opacity:1"/><rect width="2.43" height="1.256" x="2554.648" y="-790.355" ry=".628" style="fill:#40b639;fill-opacity:1;stroke:#1e1e1e;stroke-width:.661;stroke-linecap:square;stroke-linejoin:round;stroke-dasharray:none;stroke-opacity:1"/><g transform="translate(-.22 -.367)"><circle cx="2551.751" cy="777.553" r="1.715" style="fill:#787878;fill-opacity:1;stroke:#3f3f3f;stroke-width:.660929;stroke-linecap:square;stroke-linejoin:round;stroke-dasharray:none;stroke-opacity:1" transform="scale(1 -1)"/><g stroke="#323232" stroke-linecap="round" stroke-width="9.861" style="fill:none;stroke-width:2.66454;stroke-dasharray:none"><path d="M8 7.528a6 6 0 1 0 8 0" style="stroke-width:2.66454;stroke-dasharray:none" transform="matrix(.14895 0 0 -.14895 2549.964 -775.766)"/><path stroke-linejoin="round" d="M12 6v7" style="stroke-width:2.66454;stroke-dasharray:none" transform="matrix(.14895 0 0 -.14895 2549.964 -775.766)"/></g></g><circle cx="2565.576" cy="-796.621" r="2.024" style="fill:none;fill-opacity:.301961;stroke:#00b8dd;stroke-width:.660929;stroke-linecap:square;stroke-linejoin:round;stroke-dasharray:none;stroke-opacity:.301961"/><circle cx="2551.237" cy="-800.66" r="2.024" style="fill:none;fill-opacity:.301961;stroke:#00b8dd;stroke-width:.660929;stroke-linecap:square;stroke-linejoin:round;stroke-dasharray:none;stroke-opacity:.301961"/><circle cx="2571.018" cy="-801.86" r="1.131" style="fill:none;fill-opacity:.301961;stroke:#00b8dd;stroke-width:.660932;stroke-linecap:square;stroke-linejoin:round;stroke-dasharray:none;stroke-opacity:.301961"/><circle cx="2558.308" cy="-801.801" r="1.131" style="fill:none;fill-opacity:.301961;stroke:#00b8dd;stroke-width:.660932;stroke-linecap:square;stroke-linejoin:round;stroke-dasharray:none;stroke-opacity:.301961"/><circle cx="2559.361" cy="-796.451" r=".848" style="fill:none;fill-opacity:.301961;stroke:#00b8dd;stroke-width:.660932;stroke-linecap:square;stroke-linejoin:round;stroke-dasharray:none;stroke-opacity:.301961"/></g></svg>