<?xml version="1.0" encoding="UTF-8" standalone="no"?>
<!-- Created with Inkscape (http://www.inkscape.org/) -->

<svg
   width="140.6452"
   height="127.67278"
   viewBox="0 0 37.212376 33.780088"
   version="1.1"
   id="svg1"
   inkscape:version="1.4 (86a8ad7, 2024-10-11)"
   sodipodi:docname="vat_1.svg"
   xmlns:inkscape="http://www.inkscape.org/namespaces/inkscape"
   xmlns:sodipodi="http://sodipodi.sourceforge.net/DTD/sodipodi-0.dtd"
   xmlns="http://www.w3.org/2000/svg"
   xmlns:svg="http://www.w3.org/2000/svg">
  <sodipodi:namedview
     id="namedview1"
     pagecolor="#ffffff"
     bordercolor="#000000"
     borderopacity="0.25"
     inkscape:showpageshadow="2"
     inkscape:pageopacity="0.0"
     inkscape:pagecheckerboard="0"
     inkscape:deskcolor="#d1d1d1"
     inkscape:document-units="mm"
     inkscape:zoom="0.68862935"
     inkscape:cx="-135.05088"
     inkscape:cy="108.18592"
     inkscape:window-width="1920"
     inkscape:window-height="991"
     inkscape:window-x="-9"
     inkscape:window-y="-9"
     inkscape:window-maximized="1"
     inkscape:current-layer="layer1" />
  <defs
     id="defs1" />
  <g
     inkscape:label="Στρώση 1"
     inkscape:groupmode="layer"
     id="layer1"
     transform="translate(-140.7265,-120.01957)">
    <g
       id="g144"
       transform="translate(-2402.4354,926.71982)">
      <g
         id="g112">
        <circle
           style="fill:#97866b;fill-opacity:1;stroke:#27221b;stroke-width:1.5;stroke-linecap:round;stroke-linejoin:round;stroke-miterlimit:10;stroke-dasharray:none;stroke-opacity:1"
           id="path846"
           cx="2561.7681"
           cy="-788.11444"
           r="11.90625" />
        <circle
           style="fill:#b4a894;fill-opacity:1;stroke:#27221b;stroke-width:1.5;stroke-linecap:round;stroke-miterlimit:4;stroke-dasharray:none;stroke-opacity:1"
           id="path292"
           cx="2551.7319"
           cy="-797.74353"
           r="3.96875" />
        <circle
           style="fill:#b4a894;fill-opacity:1;stroke:#27221b;stroke-width:1.5;stroke-linecap:round;stroke-miterlimit:4;stroke-dasharray:none;stroke-opacity:1"
           id="path292-9"
           cx="2571.8042"
           cy="-797.74353"
           r="3.96875" />
      </g>
      <path
         id="path109"
         style="fill:#0094b2;fill-opacity:0.582979;stroke:#005666;stroke-width:1.98438;stroke-linecap:square;stroke-linejoin:round;stroke-dasharray:none;stroke-opacity:0.8"
         d="m 2552.6392,-805.70792 c -0.9712,0.007 -8.7329,0.52025 -8.4791,15.08074 h 17.6077 17.6083 c 0.2708,-15.53119 -8.5788,-15.0797 -8.5788,-15.0797 h -3.5213 -11.0163 -3.5213 c 0,0 -0.034,-0.002 -0.099,-0.001 z" />
      <path
         id="rect108"
         style="fill:#7f7f7f;fill-opacity:1;stroke:#232323;stroke-width:1.98438;stroke-linecap:square;stroke-linejoin:round;stroke-dasharray:none;stroke-opacity:1"
         d="m 2544.1601,-799.92687 v 9.29969 16.71483 h 35.216 v -16.71483 -9.29969 h -2.8634 l -1.4619,4.57594 h -2.0464 l -0.7307,3.08715 h -21.0112 l -0.7312,-3.08715 h -2.0464 l -1.4614,-4.57594 z"
         sodipodi:nodetypes="ccccccccccccccc" />
      <path
         id="rect113"
         style="fill:#909090;fill-opacity:1;stroke:none;stroke-width:1.5;stroke-linecap:square;stroke-linejoin:round;stroke-dasharray:none;stroke-opacity:1"
         d="m 2548.4849,-795.35093 v 21.43849 h 26.5659 v -21.43849 h -2.0464 l -0.7307,3.08715 h -21.0112 l -0.7312,-3.08715 z" />
      <circle
         style="fill:none;fill-opacity:0.301961;stroke:#00b8dd;stroke-width:0.660932;stroke-linecap:square;stroke-linejoin:round;stroke-dasharray:none;stroke-opacity:0.301961"
         id="path141-3-2-5-1"
         cx="2572.8811"
         cy="-796.71252"
         r="0.84832269" />
      <path
         id="rect108-5"
         style="fill:none;fill-opacity:1;stroke:#232323;stroke-width:1.98438;stroke-linecap:square;stroke-linejoin:round;stroke-dasharray:none;stroke-opacity:1"
         d="m 2544.1601,-799.92687 v 9.29969 16.71483 h 35.216 v -16.71483 -9.29969 h -2.8634 l -1.4619,4.57594 h -2.0464 l -0.7307,3.08715 h -21.0112 l -0.7312,-3.08715 h -2.0464 l -1.4614,-4.57594 z"
         sodipodi:nodetypes="ccccccccccccccc" />
      <path
         style="fill:#b8b8b8;fill-opacity:1;stroke-width:0.445789"
         d="m 2569.8884,-776.28859 a 2.180996,2.180996 0 0 1 -1.89,-2.156 2.180996,2.180996 0 0 1 0.032,-0.36 2.180996,2.180996 0 0 1 -0.327,-0.15 2.180996,2.180996 0 0 1 -0.922,-2.71599 l 0.068,0.04 a 1.5269972,1.5269972 0 0 0 0.677,1.81799 1.5269972,1.5269972 0 0 0 0.836,0.203 1.5269972,1.5269972 0 0 0 1.209,-0.702 l 0.2,0.116 a 0.4359992,0.4359992 0 0 0 -0.029,0.151 0.4359992,0.4359992 0 0 0 0.363,0.43 v 0.231 a 1.5269972,1.5269972 0 0 0 -1.454,1.52 1.5269972,1.5269972 0 0 0 1.237,1.498 z m 0.581,0 v -0.077 a 1.5269972,1.5269972 0 0 0 1.237,-1.498 1.5269972,1.5269972 0 0 0 -1.454,-1.524 v -0.228 a 0.4359992,0.4359992 0 0 0 0.363,-0.429 0.4359992,0.4359992 0 0 0 -0.028,-0.151 l 0.2,-0.116 a 1.5269972,1.5269972 0 0 0 1.208,0.702 1.5269972,1.5269972 0 0 0 0.836,-0.203 1.5269972,1.5269972 0 0 0 0.68,-1.81999 l 0.07,-0.04 a 2.180996,2.180996 0 0 1 -0.927,2.71799 2.180996,2.180996 0 0 1 -0.327,0.15 2.180996,2.180996 0 0 1 0.033,0.36 2.180996,2.180996 0 0 1 -1.89,2.156 z m -0.29,-1.793 c -0.46,0 -0.883,-0.16 -1.218,-0.427 a 1.3809975,1.3809975 0 0 1 0.315,-0.395 c 0.248,0.196 0.56,0.313 0.903,0.313 0.343,0 0.657,-0.118 0.905,-0.315 a 1.3809975,1.3809975 0 0 1 0.314,0.395 1.9519964,1.9519964 0 0 1 -1.22,0.429 z m -1.824,-1.674 a 1.3809975,1.3809975 0 0 1 -0.116,-0.004 1.7769967,1.7769967 0 0 1 -0.024,-0.284 c 0,-0.827 0.517,-1.536 1.244,-1.82399 a 1.3809975,1.3809975 0 0 1 0.186,0.46999 1.4499973,1.4499973 0 0 0 -0.904,1.561 1.3809975,1.3809975 0 0 1 -0.386,0.082 z m 3.647,0 a 1.3809975,1.3809975 0 0 1 -0.386,-0.082 1.4499973,1.4499973 0 0 0 -0.9,-1.56 1.3809975,1.3809975 0 0 1 0.185,-0.46999 1.9669964,1.9669964 0 0 1 1.241,1.82299 c 0,0.097 -0.01,0.191 -0.024,0.284 a 1.3809975,1.3809975 0 0 1 -0.117,0.005 z m -2.159,-0.566 -0.197,-0.114 a 1.5269972,1.5269972 0 0 0 -0.593,-2.02099 1.5269972,1.5269972 0 0 0 -1.913,0.322 l -0.068,-0.04 a 2.180996,2.180996 0 0 1 2.812,-0.558 2.180996,2.180996 0 0 1 0.296,0.206 2.180996,2.180996 0 0 1 0.293,-0.206 2.180996,2.180996 0 0 1 2.812,0.559 l -0.068,0.039 a 1.5269972,1.5269972 0 0 0 -1.913,-0.322 1.5269972,1.5269972 0 0 0 -0.591,2.01899 l -0.2,0.115 a 0.4359992,0.4359992 0 0 0 -0.335,-0.158 0.4359992,0.4359992 0 0 0 -0.335,0.159 z"
         id="path1-49" />
      <rect
         style="fill:#d51a1a;fill-opacity:1;stroke:#1e1e1e;stroke-width:0.661458;stroke-linecap:square;stroke-linejoin:round;stroke-dasharray:none;stroke-opacity:1"
         id="rect116"
         width="2.4304631"
         height="1.2559236"
         x="2551.1033"
         y="-790.35492"
         ry="0.62796181" />
      <rect
         style="fill:#40b639;fill-opacity:1;stroke:#1e1e1e;stroke-width:0.661;stroke-linecap:square;stroke-linejoin:round;stroke-dasharray:none;stroke-opacity:1"
         id="rect116-5"
         width="2.4304631"
         height="1.2559236"
         x="2554.6482"
         y="-790.35492"
         ry="0.62796181" />
      <g
         id="g141"
         transform="translate(-0.21992426,-0.36654043)">
        <circle
           style="fill:#787878;fill-opacity:1;stroke:#3f3f3f;stroke-width:0.660929;stroke-linecap:square;stroke-linejoin:round;stroke-dasharray:none;stroke-opacity:1"
           id="path135"
           cx="2551.7512"
           cy="777.55347"
           r="1.7154928"
           transform="scale(1,-1)" />
        <g
           style="fill:none;stroke-width:2.66454;stroke-dasharray:none"
           id="g132"
           transform="matrix(0.14894727,0,0,-0.14894636,2549.964,-775.76615)">
          <path
             d="M 8,7.52771 C 6.7725,8.62635 6,10.2229 6,11.9999 c 0,3.3137 2.68629,6 6,6 3.3137,0 6,-2.6863 6,-6 0,-1.777 -0.7725,-3.37355 -2,-4.47219"
             stroke="#323232"
             stroke-width="9.86146"
             stroke-linecap="round"
             id="path1-79"
             style="stroke-width:2.66454;stroke-dasharray:none" />
          <path
             d="m 12,6 v 7"
             stroke="#323232"
             stroke-width="9.86146"
             stroke-linecap="round"
             stroke-linejoin="round"
             id="path2-53"
             style="stroke-width:2.66454;stroke-dasharray:none" />
        </g>
      </g>
      <circle
         style="fill:none;fill-opacity:0.301961;stroke:#00b8dd;stroke-width:0.660929;stroke-linecap:square;stroke-linejoin:round;stroke-dasharray:none;stroke-opacity:0.301961"
         id="path141"
         cx="2565.5762"
         cy="-796.62146"
         r="2.0240684" />
      <circle
         style="fill:none;fill-opacity:0.301961;stroke:#00b8dd;stroke-width:0.660929;stroke-linecap:square;stroke-linejoin:round;stroke-dasharray:none;stroke-opacity:0.301961"
         id="path141-4"
         cx="2551.2366"
         cy="-800.65979"
         r="2.0240684" />
      <circle
         style="fill:none;fill-opacity:0.301961;stroke:#00b8dd;stroke-width:0.660932;stroke-linecap:square;stroke-linejoin:round;stroke-dasharray:none;stroke-opacity:0.301961"
         id="path141-3"
         cx="2571.0176"
         cy="-801.86029"
         r="1.131097" />
      <circle
         style="fill:none;fill-opacity:0.301961;stroke:#00b8dd;stroke-width:0.660932;stroke-linecap:square;stroke-linejoin:round;stroke-dasharray:none;stroke-opacity:0.301961"
         id="path141-3-2"
         cx="2558.3076"
         cy="-801.80084"
         r="1.131097" />
      <circle
         style="fill:none;fill-opacity:0.301961;stroke:#00b8dd;stroke-width:0.660932;stroke-linecap:square;stroke-linejoin:round;stroke-dasharray:none;stroke-opacity:0.301961"
         id="path141-3-2-5"
         cx="2559.3611"
         cy="-796.45129"
         r="0.84832269" />
    </g>
  </g>
</svg>
