<svg xmlns="http://www.w3.org/2000/svg" xmlns:xlink="http://www.w3.org/1999/xlink" xml:space="preserve" width="459.36" height="860.578" viewBox="0 0 121.539 227.695"><defs><linearGradient xlink:href="#b" id="d" x1="395.333" x2="409.465" y1="500.151" y2="500.151" gradientTransform="matrix(.32179 0 0 .22148 -47.328 13.107)" gradientUnits="userSpaceOnUse"/><linearGradient id="b"><stop offset="0" style="stop-color:#666;stop-opacity:1"/><stop offset="1" style="stop-color:#b2b2b2;stop-opacity:1"/></linearGradient><pattern xlink:href="#a" id="c" x="0" y="0" patternTransform="translate(196.517 1899.133)scale(.265)" preserveAspectRatio="xMidYMid"/><pattern id="a" width="83.299" height="83.299" patternTransform="translate(196.517 1899.133)" patternUnits="userSpaceOnUse" preserveAspectRatio="xMidYMid"><path d="M0 0h83.299v83.299H0z" style="fill:#767676;fill-opacity:1;stroke-width:4.98414;stroke-linecap:round"/><path d="M9.879 0c4.69 3.634 8.13 4.044 8.13 4.044S17.776 2.447 16.552 0zm27.736 0c4.69 3.634 8.13 4.044 8.13 4.044S45.512 2.447 44.288 0zm27.724 0c4.69 3.634 8.13 4.044 8.13 4.044S73.235 2.447 72.012 0zM4.145.019S2.529.19 0 1.472v6.77C3.655 3.531 4.145.02 4.145.02m27.736 0s-2.806.289-6.823 3.048v-.004c-1.34.918-2.81 2.114-4.363 3.667-6.187 6.193-6.71 11.18-6.71 11.18s4.927-.51 11.068-6.598C31.239 5.122 31.88.02 31.88.02Zm27.724 0s-2.81.29-6.835 3.056v.004c-1.333.915-2.796 2.105-4.34 3.65-6.187 6.193-6.71 11.179-6.71 11.179s4.93-.51 11.073-6.602v-.011C58.965 5.112 59.605.019 59.605.019Zm23.694 1.4a23 23 0 0 0-2.782 1.648v-.004c-1.339.918-2.81 2.114-4.363 3.667-6.187 6.193-6.708 11.18-6.708 11.18s4.926-.51 11.066-6.597A32 32 0 0 0 83.3 8.107zM.116 13.884s.282 2.7 2.9 6.602h-.003c.937 1.396 2.176 2.948 3.811 4.582 6.193 6.194 11.185 6.717 11.185 6.717s-.635-5.102-6.822-11.293h.013C5.051 14.394.115 13.885.115 13.885Zm27.734 0s.284 2.7 2.901 6.602h-.002c.937 1.396 2.176 2.948 3.81 4.582 6.194 6.194 11.186 6.717 11.186 6.717s-.635-5.102-6.822-11.293h.013c-6.15-6.099-11.086-6.608-11.086-6.608Zm27.725 0s.283 2.7 2.9 6.602h-.002c.937 1.396 2.176 2.948 3.81 4.582 6.194 6.194 11.185 6.717 11.185 6.717s-.634-5.102-6.821-11.293h.013c-6.15-6.099-11.085-6.608-11.085-6.608ZM4.145 27.762s-1.616.17-4.145 1.452v6.771c3.655-4.711 4.145-8.223 4.145-8.223m27.736 0s-2.805.289-6.823 3.048v-.004c-1.34.918-2.81 2.112-4.363 3.666-6.187 6.193-6.71 11.18-6.71 11.18s4.93-.51 11.073-6.603c6.181-6.188 6.823-11.286 6.823-11.286zm27.724 0s-2.81.29-6.835 3.056v.004c-1.333.915-2.796 2.104-4.34 3.648-6.187 6.193-6.71 11.18-6.71 11.18s4.93-.51 11.073-6.602v-.012c6.172-6.182 6.812-11.275 6.812-11.275zm23.694 1.4c-.834.416-1.767.951-2.782 1.648v-.004c-1.339.918-2.81 2.112-4.363 3.666-6.187 6.193-6.708 11.18-6.708 11.18s4.929-.51 11.071-6.603A32 32 0 0 0 83.3 35.85zM.116 41.625s.282 2.703 2.904 6.608h.001c.936 1.393 2.172 2.943 3.803 4.574C13.017 59 18.01 59.523 18.01 59.523s-.634-5.1-6.818-11.289h.01C5.05 42.134.115 41.626.115 41.626m27.734 0s.283 2.703 2.905 6.608h.002c.936 1.393 2.172 2.943 3.803 4.574 6.193 6.193 11.185 6.715 11.185 6.715s-.635-5.1-6.818-11.289h.009c-6.15-6.1-11.086-6.608-11.086-6.608m27.725 0s.282 2.703 2.904 6.608h.002c.936 1.393 2.172 2.943 3.803 4.574 6.193 6.193 11.184 6.715 11.184 6.715s-.634-5.1-6.817-11.289h.009c-6.15-6.1-11.085-6.608-11.085-6.608M4.145 55.499S2.529 55.669 0 56.95v6.771C3.655 59.011 4.145 55.5 4.145 55.5m27.736 0s-2.806.289-6.823 3.048v-.004c-1.34.918-2.81 2.112-4.363 3.666-6.187 6.193-6.71 11.179-6.71 11.179s4.93-.51 11.073-6.602C31.239 60.598 31.88 55.5 31.88 55.5Zm27.724 0s-2.81.29-6.835 3.056v.004c-1.333.915-2.796 2.104-4.34 3.648-6.187 6.193-6.71 11.18-6.71 11.18s4.93-.51 11.073-6.602v-.012c6.172-6.182 6.812-11.275 6.812-11.275zm23.694 1.4a23 23 0 0 0-2.782 1.648v-.004c-1.339.918-2.81 2.112-4.363 3.666-6.187 6.193-6.708 11.179-6.708 11.179s4.929-.51 11.071-6.602a32 32 0 0 0 2.782-3.199zM.116 69.362s.282 2.7 2.9 6.602h-.003c.937 1.395 2.176 2.949 3.811 4.584a31 31 0 0 0 3.16 2.75h6.609c-.982-1.983-2.608-4.528-5.406-7.328h.013C5.051 69.871.115 69.363.115 69.363Zm27.734 0s.284 2.7 2.901 6.602h-.002c.937 1.395 2.176 2.949 3.81 4.584a31 31 0 0 0 3.16 2.75h6.61c-.982-1.983-2.608-4.528-5.406-7.328h.013c-6.15-6.1-11.086-6.608-11.086-6.608Zm27.725 0s.283 2.7 2.9 6.602h-.002c.937 1.395 2.176 2.949 3.81 4.584a31 31 0 0 0 3.16 2.75h6.61c-.982-1.983-2.608-4.528-5.406-7.328h.013c-6.15-6.1-11.085-6.608-11.085-6.608ZM4.145 83.24s-.186.034-.34.06h.327zm27.736 0-.34.06h.327zm27.724 0-.34.06h.327z" style="opacity:1;fill:gray;fill-opacity:1;stroke-width:.839747"/></pattern></defs><g transform="translate(-25.135 84.138)"><path d="M52.7 58.16h66.345v56.119H52.699Z" style="fill:#7bafe6;fill-opacity:.364706;fill-rule:evenodd;stroke:#171717;stroke-width:1.40144;stroke-linecap:round;stroke-linejoin:round;stroke-miterlimit:29;stroke-dasharray:none;stroke-opacity:1"/><path fill="#efefef" fill-opacity=".633" fill-rule="evenodd" d="m69.297 118.688-13.576-14.38.569-4.162 18.172 19.249z" style="fill:#efefef;fill-opacity:.5;stroke-width:.525118"/><path d="M38.86-36.048V130.87h.002v.002h94.554v-.002h.04V-36.048h-7.244v160.033H45.747V-36.048Z" style="opacity:1;fill:#5e5e5e;fill-opacity:1;fill-rule:evenodd;stroke:#272727;stroke-width:1.32292;stroke-dasharray:none;stroke-opacity:1;stop-color:#000"/><path d="M45.703-42.918V124h.002v.002h80.317V124h.04V-42.918h-7.244v160.034H52.59V-42.918Z" style="opacity:1;fill:#595959;fill-opacity:1;fill-rule:evenodd;stroke:#272727;stroke-width:1.32292;stroke-dasharray:none;stroke-opacity:1;stop-color:#000"/><path fill="#efefef" fill-opacity=".633" fill-rule="evenodd" d="m101.495 53.093 13.576 14.38-.57 4.162L96.33 52.386zM97.855 56.935l16.292 17.956-.57 4.162-20.887-22.825zM103.846 83.63l13.576 14.38-.569 4.162-18.172-19.249ZM98.208 85.66l16.292 17.957-.569 4.162-20.888-22.825zM72.937 86.12 56.645 68.165l.569-4.162 20.888 22.825ZM67.299 88.152l-13.576-14.38.569-4.163 18.172 19.249zM72.937 114.846 56.645 96.89l.569-4.162 20.888 22.825Z" style="fill:#efefef;fill-opacity:.5;stroke-width:.525118"/><path d="M53.749 5.766h63.233v52.635H53.749z" style="opacity:1;fill:#595959;fill-rule:evenodd;stroke:none;stroke-width:1.57968;stroke-linejoin:round;stroke-dasharray:none;stop-color:#000;fill-opacity:1"/><path d="M53.749 34.91h63.233v12.894H53.749z" style="opacity:1;fill:#666;fill-opacity:1;fill-rule:evenodd;stroke:none;stroke-width:.781848;stroke-linejoin:round;stroke-dasharray:none;stop-color:#000"/><path d="M30.802-29.138V137.78h.002v.002h108.792l1.249-.002h.04V-29.138h-7.244v160.033H38.937V-29.138Z" style="opacity:1;fill:#666;fill-opacity:1;fill-rule:evenodd;stroke:#272727;stroke-width:1.32292;stroke-dasharray:none;stroke-opacity:1;stop-color:#000"/><path d="M83.491-117.125h5.121v62.065h-5.121z" style="opacity:1;fill:#666;fill-opacity:1;fill-rule:evenodd;stroke:#272727;stroke-width:1.32292;stroke-dasharray:none;stroke-opacity:1;stop-color:#000" transform="rotate(90)"/><path d="M26.4-23.455V142.9h.002v.002h118.985v-.002h.04V-23.455h-5.12v161.237H31.52V-23.455Z" style="opacity:1;fill:#4d4d4d;fill-opacity:1;fill-rule:evenodd;stroke:#1d1d1d;stroke-width:1.32292;stroke-dasharray:none;stroke-opacity:1;stop-color:#000"/><path d="M52.051 4.326v112.946h.006v.02h67.63v-.02h.011V4.326h-5.12v51.393H57.172V4.326Zm5.121 56.513h57.406v51.332H57.172Z" style="opacity:1;fill:#4d4d4d;fill-opacity:1;fill-rule:evenodd;stroke:#1d1d1d;stroke-width:1.32292;stroke-linejoin:miter;stroke-dasharray:none;stroke-opacity:1;stop-color:#000"/><rect width="115.324" height="1.752" x="-80.7" y="-86.699" rx=".549" ry=".1" style="fill:#4d4d4d;fill-opacity:1;fill-rule:evenodd;stroke:none;stroke-width:.760364;stroke-linejoin:miter;stroke-dasharray:none;stroke-opacity:1;stop-color:#000" transform="rotate(90)"/><rect width="115.324" height="1.752" x="28.161" y="-23.914" rx=".549" ry=".1" style="fill:#4d4d4d;fill-opacity:1;fill-rule:evenodd;stroke:none;stroke-width:.760364;stroke-linejoin:miter;stroke-dasharray:none;stroke-opacity:1;stop-color:#000"/><circle cx="85.905" cy="-23.044" r="58.002" style="fill:url(#c);fill-opacity:1;stroke:#161616;stroke-width:1.414;stroke-linecap:round;stroke-linejoin:round;stroke-miterlimit:29;stroke-dasharray:none;stroke-opacity:1"/><rect width="115.324" height="1.752" x="-34.624" y="84.947" rx=".549" ry=".1" style="fill:#4d4d4d;fill-opacity:1;fill-rule:evenodd;stroke:none;stroke-width:.760364;stroke-linejoin:miter;stroke-dasharray:none;stroke-opacity:1;stop-color:#000" transform="rotate(-90)"/><rect width="115.324" height="1.752" x="28.161" y="-23.914" rx=".549" ry=".1" style="fill:#4d4d4d;fill-opacity:1;fill-rule:evenodd;stroke:none;stroke-width:.760364;stroke-linejoin:miter;stroke-dasharray:none;stroke-opacity:1;stop-color:#000"/><rect width="115.324" height="1.752" x="28.182" y="22.084" rx=".549" ry=".1" style="fill:#4d4d4d;fill-opacity:1;fill-rule:evenodd;stroke:none;stroke-width:.760364;stroke-linejoin:miter;stroke-dasharray:none;stroke-opacity:1;stop-color:#000" transform="rotate(-30)"/><rect width="115.324" height="1.752" x="5.201" y="61.93" rx=".549" ry=".1" style="fill:#4d4d4d;fill-opacity:1;fill-rule:evenodd;stroke:none;stroke-width:.760364;stroke-linejoin:miter;stroke-dasharray:none;stroke-opacity:1;stop-color:#000" transform="rotate(-60)"/><rect width="115.324" height="1.752" x="-34.702" y="-86.72" rx=".549" ry=".1" style="fill:#4d4d4d;fill-opacity:1;fill-rule:evenodd;stroke:none;stroke-width:.760364;stroke-linejoin:miter;stroke-dasharray:none;stroke-opacity:1;stop-color:#000" transform="rotate(60)"/><rect width="115.324" height="1.752" x="5.144" y="-63.739" rx=".549" ry=".1" style="fill:#4d4d4d;fill-opacity:1;fill-rule:evenodd;stroke:none;stroke-width:.760364;stroke-linejoin:miter;stroke-dasharray:none;stroke-opacity:1;stop-color:#000" transform="rotate(30)"/><circle cx="89.896" cy="-70.065" r="5.398" fill="#cbcbcd" stroke-width=".071" style="fill:#4d4d4d;fill-opacity:1;stroke:#1d1d1d;stroke-width:1.5875;stroke-dasharray:none;stroke-opacity:1" transform="scale(1 -1)rotate(15)"/><g transform="matrix(1.00044 0 0 .97465 -.007 2.157)"><rect width="30.692" height="23.379" x="70.559" y="117.051" rx=".425" ry=".523" style="fill:#666;fill-opacity:1;fill-rule:evenodd;stroke:#272727;stroke-width:1.05833;stroke-linecap:round;stroke-linejoin:round;stroke-miterlimit:29;stroke-dasharray:none;stroke-opacity:1"/><path d="m73.842 139.336 2.82-12.795h8.312l2.855 12.795z" style="baseline-shift:baseline;display:inline;overflow:visible;vector-effect:none;fill:#595959;fill-rule:evenodd;stroke-width:1.05833;stroke-linecap:round;stroke-linejoin:round;stroke-miterlimit:29;stroke-dasharray:none;stop-color:#000"/><path d="M75.698 121.325h10.551s-1.03-1.622-5.276-1.622-5.275 1.622-5.275 1.622M80.45 119.643l.527-1.314.52 1.297z" style="fill:#666;fill-opacity:1;fill-rule:evenodd;stroke:#272727;stroke-width:1.05833;stroke-linecap:round;stroke-linejoin:round;stroke-miterlimit:29;stroke-dasharray:none;stroke-opacity:1"/><rect width="10.784" height="5.427" x="75.582" y="121.166" rx=".851" ry=".586" style="fill:url(#d);fill-opacity:1;fill-rule:evenodd;stroke:#272727;stroke-width:1.05833;stroke-linecap:round;stroke-linejoin:round;stroke-miterlimit:29;stroke-dasharray:none;stroke-opacity:1"/><path d="M81.031 121.298v5.002" style="fill:#666;fill-opacity:1;fill-rule:evenodd;stroke:#272727;stroke-width:1.05833;stroke-linecap:round;stroke-linejoin:round;stroke-miterlimit:29;stroke-dasharray:none;stroke-opacity:1"/><path d="m86.365 122.123 11.711-2.234v7.9l-11.71-2.176z" style="fill:#999;fill-opacity:1;fill-rule:evenodd;stroke:#272727;stroke-width:1.05833;stroke-linecap:round;stroke-linejoin:round;stroke-miterlimit:29;stroke-dasharray:none;stroke-opacity:1"/><path d="M78.381 129.062c-.885 0-1.652.084-2.316.23l-.932 4.292h11.389l-.97-4.41a11 11 0 0 0-1.62-.112z" style="fill:#4d4d4d;fill-opacity:1;fill-rule:evenodd;stroke:none;stroke-width:1.92345;stroke-linecap:round;stroke-linejoin:round;stroke-miterlimit:29;stroke-dasharray:none;stroke-opacity:1"/><path d="M76.662 126.102c-.316 0-.585.151-.631.356l-2.82 12.364c-.057.252.242.71.631.71H87.83c.39 0 .689-.458.63-.71l-2.854-12.365c-.048-.204-.316-.355-.631-.355zm.55.835h7.213l2.662 11.529H74.583Z" style="baseline-shift:baseline;display:inline;overflow:visible;vector-effect:none;fill:#272727;fill-rule:evenodd;stroke-width:1.05833;stroke-linecap:round;stroke-linejoin:round;stroke-miterlimit:29;stroke-dasharray:none;stop-color:#000"/></g><circle cx="85.905" cy="-23.044" r="33.787" style="fill:#7d3030;fill-opacity:1;stroke:#290a0a;stroke-width:1.98437;stroke-linecap:round;stroke-linejoin:round;stroke-miterlimit:29;stroke-dasharray:none;stroke-opacity:1"/><rect width="4.24" height="6.861" x="83.785" y="-60.214" rx="1.323" ry="1.323" style="fill:#333;fill-opacity:1;fill-rule:evenodd;stroke:#1a1a1a;stroke-width:1.98437;stroke-linecap:round;stroke-linejoin:round;stroke-miterlimit:29;stroke-dasharray:none;stroke-opacity:1"/><rect width="4.24" height="6.861" x="-25.148" y="-123.091" rx="1.323" ry="1.323" style="fill:#333;fill-opacity:1;fill-rule:evenodd;stroke:#1a1a1a;stroke-width:1.98437;stroke-linecap:round;stroke-linejoin:round;stroke-miterlimit:29;stroke-dasharray:none;stroke-opacity:1" transform="rotate(90)"/><rect width="4.24" height="6.861" x="-88.025" y="-14.159" rx="1.323" ry="1.323" style="fill:#333;fill-opacity:1;fill-rule:evenodd;stroke:#1a1a1a;stroke-width:1.98437;stroke-linecap:round;stroke-linejoin:round;stroke-miterlimit:29;stroke-dasharray:none;stroke-opacity:1" transform="scale(-1)"/><rect width="4.24" height="6.861" x="20.907" y="48.718" rx="1.323" ry="1.323" style="fill:#333;fill-opacity:1;fill-rule:evenodd;stroke:#1a1a1a;stroke-width:1.98437;stroke-linecap:round;stroke-linejoin:round;stroke-miterlimit:29;stroke-dasharray:none;stroke-opacity:1" transform="rotate(-90)"/><g style="fill:#939399;fill-opacity:1"><g style="fill:#939399;fill-opacity:1"><path d="M165.374 118.192s4.292-1.268 9.41-1.268c5.117 0 9.408 1.268 9.408 1.268l-9.409 30.458z" style="fill:#5c1f1f;fill-opacity:1;stroke:#290a0a;stroke-width:1.56046;stroke-linecap:round;stroke-linejoin:round;stroke-miterlimit:29;stroke-dasharray:none;stroke-opacity:1" transform="matrix(1.0554 0 0 1.06405 -98.562 -181.022)"/><path d="M165.374 178.744s4.292 1.269 9.41 1.269c5.117 0 9.408-1.269 9.408-1.269l-9.409-30.457z" style="fill:#5c1f1f;fill-opacity:1;stroke:#290a0a;stroke-width:1.56046;stroke-linecap:round;stroke-linejoin:round;stroke-miterlimit:29;stroke-dasharray:none;stroke-opacity:1" transform="matrix(1.0554 0 0 1.06405 -98.562 -181.022)"/></g><g style="fill:#939399;fill-opacity:1"><path d="M165.374 118.192s4.292-1.268 9.41-1.268c5.117 0 9.408 1.268 9.408 1.268l-9.409 30.458z" style="fill:#5c1f1f;fill-opacity:1;stroke:#290a0a;stroke-width:1.56046;stroke-linecap:round;stroke-linejoin:round;stroke-miterlimit:29;stroke-dasharray:none;stroke-opacity:1" transform="matrix(0 1.06405 -1.0554 0 242.599 -209.022)"/><path d="M165.374 178.744s4.292 1.269 9.41 1.269c5.117 0 9.408-1.269 9.408-1.269l-9.409-30.457z" style="fill:#5c1f1f;fill-opacity:1;stroke:#290a0a;stroke-width:1.56046;stroke-linecap:round;stroke-linejoin:round;stroke-miterlimit:29;stroke-dasharray:none;stroke-opacity:1" transform="matrix(0 1.06405 -1.0554 0 242.599 -209.022)"/></g></g><circle cx="85.905" cy="-23.044" r="5.876" style="fill:#a9971d;fill-opacity:1;stroke:#262608;stroke-width:1.98437;stroke-linecap:round;stroke-linejoin:round;stroke-miterlimit:29;stroke-dasharray:none;stroke-opacity:1"/><circle cx="85.905" cy="-23.044" r="2.478" style="fill:#d5bb38;fill-opacity:1;stroke:#615614;stroke-width:1.65365;stroke-linecap:round;stroke-linejoin:round;stroke-miterlimit:29;stroke-dasharray:none;stroke-opacity:1"/><path d="M85.905-81.046c-32.034 0-58.002 25.968-58.002 58.002S53.87 34.958 85.905 34.958s58.002-25.968 58.002-58.002-25.969-58.003-58.002-58.002m0 3.125c30.307 0 54.876 24.57 54.876 54.877s-24.569 54.876-54.876 54.876c-30.308 0-54.877-24.569-54.877-54.876 0-30.308 24.57-54.877 54.877-54.877" style="fill:gray;fill-opacity:1;stroke:#2e2e2e;stroke-width:1.65365;stroke-linecap:round;stroke-linejoin:round;stroke-miterlimit:29;stroke-dasharray:none;stroke-opacity:1"/><g transform="matrix(1.10373 0 0 1.10961 -230.692 -305.415)"><circle cx="286.844" cy="203.185" r="3.018" style="fill:#4d4d4d;fill-opacity:1;stroke:#1a1a1a;stroke-width:1.49426;stroke-linecap:round;stroke-linejoin:round;stroke-miterlimit:29;stroke-dasharray:none;stroke-opacity:1"/><circle cx="286.844" cy="305.771" r="3.018" style="fill:#4d4d4d;fill-opacity:1;stroke:#1a1a1a;stroke-width:1.49426;stroke-linecap:round;stroke-linejoin:round;stroke-miterlimit:29;stroke-dasharray:none;stroke-opacity:1"/><circle cx="338.137" cy="254.478" r="3.018" style="fill:#4d4d4d;fill-opacity:1;stroke:#1a1a1a;stroke-width:1.49426;stroke-linecap:round;stroke-linejoin:round;stroke-miterlimit:29;stroke-dasharray:none;stroke-opacity:1"/><circle cx="235.551" cy="254.478" r="3.018" style="fill:#4d4d4d;fill-opacity:1;stroke:#1a1a1a;stroke-width:1.49426;stroke-linecap:round;stroke-linejoin:round;stroke-miterlimit:29;stroke-dasharray:none;stroke-opacity:1"/></g><g transform="matrix(.7669 -.79566 .7669 .79566 -329.234 2.708)"><circle cx="286.844" cy="203.185" r="3.018" style="fill:#4d4d4d;fill-opacity:1;stroke:#1a1a1a;stroke-width:1.49691;stroke-linecap:round;stroke-linejoin:round;stroke-miterlimit:29;stroke-dasharray:none;stroke-opacity:1"/><circle cx="286.844" cy="305.771" r="3.018" style="fill:#4d4d4d;fill-opacity:1;stroke:#1a1a1a;stroke-width:1.49691;stroke-linecap:round;stroke-linejoin:round;stroke-miterlimit:29;stroke-dasharray:none;stroke-opacity:1"/><circle cx="338.137" cy="254.478" r="3.018" style="fill:#4d4d4d;fill-opacity:1;stroke:#1a1a1a;stroke-width:1.49691;stroke-linecap:round;stroke-linejoin:round;stroke-miterlimit:29;stroke-dasharray:none;stroke-opacity:1"/><circle cx="235.551" cy="254.478" r="3.018" style="fill:#4d4d4d;fill-opacity:1;stroke:#1a1a1a;stroke-width:1.49691;stroke-linecap:round;stroke-linejoin:round;stroke-miterlimit:29;stroke-dasharray:none;stroke-opacity:1"/></g></g></svg>