<?xml version="1.0" encoding="UTF-8" standalone="no"?>
<svg
   width="329.94388"
   height="392.740845"
   viewBox="0 0 174.59502 207.82517"
   version="1.1"
   id="svg57"
   sodipodi:docname="river_hut_roof copy.svg"
   inkscape:export-filename="river_hut_roof copy.svg"
   inkscape:export-xdpi="96"
   inkscape:export-ydpi="96"
   xmlns:inkscape="http://www.inkscape.org/namespaces/inkscape"
   xmlns:sodipodi="http://sodipodi.sourceforge.net/DTD/sodipodi-0.dtd"
   xmlns="http://www.w3.org/2000/svg"
   xmlns:svg="http://www.w3.org/2000/svg">
  <defs
     id="defs57" />
  <sodipodi:namedview
     id="namedview57"
     pagecolor="#ffffff"
     bordercolor="#000000"
     borderopacity="0.25"
     inkscape:showpageshadow="2"
     inkscape:pageopacity="0.0"
     inkscape:pagecheckerboard="0"
     inkscape:deskcolor="#d1d1d1" />
  <path
     id="rect57-1-1-9-7-7-5-2"
     style="opacity:1;fill:#762a2a;fill-rule:evenodd;stroke:#381515;stroke-width:1.85208;stroke-linecap:round;stroke-linejoin:round"
     d="m 57.86786,0.92603999 h 9.29137 c 1.97654,0 3.56776,1.59122001 3.56776,3.56776001 v 63.13226 c 0,1.97654 -1.59122,3.56777 -3.56776,3.56777 h -9.29137 c -1.97655,0 -3.56777,-1.59123 -3.56777,-3.56777 V 4.4938 c 0,-1.97654 1.59122,-3.56776001 3.56777,-3.56776001 z"
     sodipodi:nodetypes="sssssssss" />
  <path
     id="rect57-1-1-9-7-7-5"
     style="opacity:1;fill:#762a2a;fill-rule:evenodd;stroke:#381515;stroke-width:1.85208;stroke-linecap:round;stroke-linejoin:round"
     d="m 57.86819,100.72099 h 9.29137 c 1.97654,0 3.56776,1.59122 3.56776,3.56776 v 98.66752 c 0,1.97654 -1.59122,3.56777 -3.56776,3.56777 h -9.29137 c -1.97655,0 -3.56777,-1.59123 -3.56777,-3.56777 v -98.66752 c 0,-1.97654 1.59122,-3.56776 3.56777,-3.56776 z"
     sodipodi:nodetypes="sssssssss" />
  <path
     id="rect57-1-1-9-7-7-5-0"
     style="opacity:1;fill:#762a2a;fill-rule:evenodd;stroke:#381515;stroke-width:1.85208;stroke-linecap:round;stroke-linejoin:round"
     d="m 41.44058,101.09602 h 9.29137 c 1.97654,0 3.56776,1.59122 3.56776,3.56776 v 98.66751 c 0,1.97654 -1.59122,3.56777 -3.56776,3.56777 h -9.29137 c -1.97655,0 -3.56777,-1.59123 -3.56777,-3.56777 v -98.66751 c 0,-1.97654 1.59122,-3.56776 3.56777,-3.56776 z"
     sodipodi:nodetypes="sssssssss" />
  <path
     id="rect57-1-1-9-7-7-5-0-4"
     style="opacity:1;fill:#762a2a;fill-rule:evenodd;stroke:#381515;stroke-width:1.85208;stroke-linecap:round;stroke-linejoin:round"
     d="m 25.01297,100.721 h 9.29137 c 1.97654,0 3.56776,1.59122 3.56776,3.56776 v 98.66751 c 0,1.97654 -1.59122,3.56777 -3.56776,3.56777 h -9.29137 c -1.97655,0 -3.56777,-1.59123 -3.56777,-3.56777 v -98.66751 c 0,-1.97654 1.59122,-3.56776 3.56777,-3.56776 z"
     sodipodi:nodetypes="sssssssss" />
  <path
     id="rect57-1-1-7"
     style="opacity:1;fill:#762a2a;fill-rule:evenodd;stroke:#381515;stroke-width:1.85208;stroke-linecap:round;stroke-linejoin:round"
     d="m 25.01297,71.99664 h 9.29137 c 1.97654,0 3.56776,1.59122 3.56776,3.56776 v 25.52413 c 0,1.97654 -1.59122,3.56777 -3.56776,3.56777 h -9.29137 c -1.97655,0 -3.56777,-1.59123 -3.56777,-3.56777 V 75.5644 c 0,-1.97654 1.59122,-3.56776 3.56777,-3.56776 z"
     sodipodi:nodetypes="sssssssss" />
  <path
     id="rect57-1-1-9-4"
     style="opacity:1;fill:#762a2a;fill-rule:evenodd;stroke:#381515;stroke-width:1.85208;stroke-linecap:round;stroke-linejoin:round"
     d="m 107.14986,0.92603999 h 9.29137 c 1.97654,0 3.56776,1.59122001 3.56776,3.56776001 v 134.79504 c 0,1.97654 -1.59122,3.56777 -3.56776,3.56777 h -9.29137 c -1.97655,0 -3.56777,-1.59123 -3.56777,-3.56777 V 4.4938 c 0,-1.97654 1.59122,-3.56776001 3.56777,-3.56776001 z"
     sodipodi:nodetypes="sssssssss" />
  <path
     id="rect57-1-1-9-4-5"
     style="opacity:1;fill:#762a2a;fill-rule:evenodd;stroke:#381515;stroke-width:1.85208;stroke-linecap:round;stroke-linejoin:round"
     d="m 74.29536,0.92603999 h 9.29137 c 1.97654,0 3.56776,1.59122001 3.56776,3.56776001 v 134.79504 c 0,1.97654 -1.59122,3.56777 -3.56776,3.56777 h -9.29137 c -1.97655,0 -3.56777,-1.59123 -3.56777,-3.56777 V 4.4938 c 0,-1.97654 1.59122,-3.56776001 3.56777,-3.56776001 z"
     sodipodi:nodetypes="sssssssss" />
  <path
     id="rect57-1-1-9-4-7"
     style="opacity:1;fill:#762a2a;fill-rule:evenodd;stroke:#381515;stroke-width:1.85208;stroke-linecap:round;stroke-linejoin:round"
     d="m 90.72236,0.92603999 h 9.29137 c 1.97654,0 3.56776,1.59122001 3.56776,3.56776001 v 127.98412 c 0,1.97654 -1.59122,3.56777 -3.56776,3.56777 h -9.29137 c -1.97655,0 -3.56777,-1.59123 -3.56777,-3.56777 V 4.4938 c 0,-1.97654 1.59122,-3.56776001 3.56777,-3.56776001 z"
     sodipodi:nodetypes="sssssssss" />
  <path
     id="rect57-0"
     style="opacity:1;fill:#762a2a;fill-rule:evenodd;stroke:#381515;stroke-width:1.85208;stroke-linecap:round;stroke-linejoin:round"
     d="m 8.58586,0.92611999 h 9.29137 c 1.97654,0 3.56776,1.59122001 3.56776,3.56776001 v 198.46239 c 0,1.97654 -1.59122,3.56777 -3.56776,3.56777 H 8.58586 c -1.97655,0 -3.56777,-1.59123 -3.56777,-3.56777 V 4.49388 c 0,-1.97654 1.59122,-3.56776001 3.56777,-3.56776001 z" />
  <path
     fill="#762a2a"
     d="m 117.27071,206.52404 c 0,0 2.738,-1.226 2.738,-2.738 v -19.687 a 2.738,2.738 0 0 0 -2.738,-2.738 h -10.951 a 2.738,2.738 0 0 0 -2.738,2.738 v 19.687 a 2.738,2.738 0 0 0 2.738,2.738 z"
     fill-rule="evenodd"
     style="opacity:1;fill:#76382a;fill-opacity:1;stroke:#381515;stroke-width:1.85208;stroke-linecap:square;stroke-miterlimit:10;stroke-dasharray:none;stroke-opacity:1"
     id="path43-2" />
  <path
     id="rect57-1-1-9-7"
     style="opacity:1;fill:#762a2a;fill-rule:evenodd;stroke:#381515;stroke-width:1.85208;stroke-linecap:round;stroke-linejoin:round"
     d="m 107.14953,181.5637 h 9.29137 c 1.97654,0 3.56776,1.59122 3.56776,3.56776 v 17.82481 c 0,1.97654 -1.59122,3.56777 -3.56776,3.56777 h -9.29137 c -1.97655,0 -3.56777,-1.59123 -3.56777,-3.56777 v -17.82481 c 0,-1.97654 1.59122,-3.56776 3.56777,-3.56776 z"
     sodipodi:nodetypes="sssssssss" />
  <path
     id="rect57-1-1-9-7-1"
     style="opacity:1;fill:#762a2a;fill-rule:evenodd;stroke:#381515;stroke-width:1.85208;stroke-linecap:round;stroke-linejoin:round"
     d="m 74.2948,181.5637 h 9.29137 c 1.97654,0 3.56776,1.59122 3.56776,3.56776 v 17.82481 c 0,1.97654 -1.59122,3.56777 -3.56776,3.56777 H 74.2948 c -1.97655,0 -3.56777,-1.59123 -3.56777,-3.56777 v -17.82481 c 0,-1.97654 1.59122,-3.56776 3.56777,-3.56776 z"
     sodipodi:nodetypes="sssssssss" />
  <path
     id="rect57-1-1-9-7-7"
     style="opacity:1;fill:#762a2a;fill-rule:evenodd;stroke:#381515;stroke-width:1.85208;stroke-linecap:round;stroke-linejoin:round"
     d="m 90.72236,162.01931 h 9.29137 c 1.97654,0 3.56776,1.59122 3.56776,3.56776 v 37.3692 c 0,1.97654 -1.59122,3.56777 -3.56776,3.56777 h -9.29137 c -1.97655,0 -3.56777,-1.59123 -3.56777,-3.56777 v -37.3692 c 0,-1.97654 1.59122,-3.56776 3.56777,-3.56776 z"
     sodipodi:nodetypes="sssssssss" />
  <path
     id="rect57-1-1-74"
     style="opacity:1;fill:#762a2a;fill-rule:evenodd;stroke:#381515;stroke-width:1.85208;stroke-linecap:round;stroke-linejoin:round"
     d="m 41.44036,0.92603999 h 9.29137 c 1.97654,0 3.56776,1.59122001 3.56776,3.56776001 v 50.39881 c 0,1.97654 -1.59122,3.56777 -3.56776,3.56777 h -9.29137 c -1.97655,0 -3.56777,-1.59123 -3.56777,-3.56777 V 4.4938 c 0,-1.97654 1.59122,-3.56776001 3.56777,-3.56776001 z"
     sodipodi:nodetypes="sssssssss" />
  <path
     id="rect57-1-2-7"
     style="opacity:1;fill:#762a2a;fill-rule:evenodd;stroke:#381515;stroke-width:1.85208;stroke-linecap:round;stroke-linejoin:round"
     d="m 123.57681,0.92603999 h 9.29137 c 1.97654,0 3.56776,1.59123001 3.56776,3.56777001 v 19.00933 c 0,1.97654 -1.59122,3.56777 -3.56776,3.56777 h -9.29137 c -1.97655,0 -3.56777,-1.59123 -3.56777,-3.56777 V 4.49381 c 0,-1.97654 1.59122,-3.56777001 3.56777,-3.56777001 z"
     sodipodi:nodetypes="sssssssss" />
  <path
     id="rect57-1-2"
     style="opacity:1;fill:#762a2a;fill-rule:evenodd;stroke:#381515;stroke-width:1.85208;stroke-linecap:round;stroke-linejoin:round"
     d="m 140.00491,0.92603999 h 9.29137 c 1.97654,0 3.56776,1.59123001 3.56776,3.56777001 V 38.3095 c 0,1.97654 -1.59122,3.56777 -3.56776,3.56777 h -9.29137 c -1.97655,0 -3.56777,-1.59123 -3.56777,-3.56777 V 4.49381 c 0,-1.97654 1.59122,-3.56777001 3.56777,-3.56777001 z"
     sodipodi:nodetypes="sssssssss" />
  <path
     id="rect57-1-2-9"
     style="opacity:1;fill:#762a2a;fill-rule:evenodd;stroke:#381515;stroke-width:1.85208;stroke-linecap:round;stroke-linejoin:round"
     d="m 25.01286,0.92603999 h 9.29137 c 1.97654,0 3.56776,1.59123001 3.56776,3.56777001 V 38.3095 c 0,1.97654 -1.59122,3.56777 -3.56776,3.56777 h -9.29137 c -1.97655,0 -3.56777,-1.59123 -3.56777,-3.56777 V 4.49381 c 0,-1.97654 1.59122,-3.56777001 3.56777,-3.56777001 z"
     sodipodi:nodetypes="sssssssss" />
  <path
     id="rect57"
     style="opacity:1;fill:#762a2a;fill-rule:evenodd;stroke:#381515;stroke-width:1.85208;stroke-linecap:round;stroke-linejoin:round"
     d="m 156.4319,0.92612999 h 9.29137 c 1.97654,0 3.56776,1.59122001 3.56776,3.56776001 v 198.46239 c 0,1.97654 -1.59122,3.56776 -3.56776,3.56776 h -9.29137 c -1.97655,0 -3.56777,-1.59122 -3.56777,-3.56776 V 4.49389 c 0,-1.97654 1.59122,-3.56776001 3.56777,-3.56776001 z" />
  <path
     id="rect57-1"
     style="opacity:1;fill:#762a2a;fill-rule:evenodd;stroke:#381515;stroke-width:1.85208;stroke-linecap:round;stroke-linejoin:round"
     d="m 140.00491,71.99664 h 9.29137 c 1.97654,0 3.56776,1.59122 3.56776,3.56776 v 127.39187 c 0,1.97654 -1.59122,3.56777 -3.56776,3.56777 h -9.29137 c -1.97655,0 -3.56777,-1.59123 -3.56777,-3.56777 V 75.5644 c 0,-1.97654 1.59122,-3.56776 3.56777,-3.56776 z"
     sodipodi:nodetypes="sssssssss" />
  <path
     id="rect57-1-1"
     style="opacity:1;fill:#762a2a;fill-rule:evenodd;stroke:#381515;stroke-width:1.85208;stroke-linecap:round;stroke-linejoin:round"
     d="m 123.57664,71.99664 h 9.29137 c 1.97654,0 3.56776,1.59122 3.56776,3.56776 v 55.43297 c 0,1.97654 -1.59122,3.56777 -3.56776,3.56777 h -9.29137 c -1.97655,0 -3.56777,-1.59123 -3.56777,-3.56777 V 75.5644 c 0,-1.97654 1.59122,-3.56776 3.56777,-3.56776 z"
     sodipodi:nodetypes="sssssssss" />
  <path
     id="rect57-1-1-9"
     style="opacity:1;fill:#762a2a;fill-rule:evenodd;stroke:#381515;stroke-width:1.85208;stroke-linecap:round;stroke-linejoin:round"
     d="m 123.57664,185.41335 h 9.29137 c 1.97654,0 3.56776,1.59122 3.56776,3.56776 v 13.97516 c 0,1.97654 -1.59122,3.56777 -3.56776,3.56777 h -9.29137 c -1.97655,0 -3.56777,-1.59123 -3.56777,-3.56777 v -13.97516 c 0,-1.97654 1.59122,-3.56776 3.56777,-3.56776 z"
     sodipodi:nodetypes="sssssssss" />
  <path
     d="m 171.85804,39.83204 c 0,0 -0.498,-1.11 -1.111,-1.11 H 3.84904 a 1.11,1.11 0 0 0 -1.112,1.11 v 4.445 c 0,0.614 0.498,1.11 1.112,1.11 h 166.898 c 0.613,0 1.11,-0.496 1.11,-1.11 z"
     style="opacity:1;fill:#612424;fill-opacity:1;fill-rule:evenodd;stroke:#381515;stroke-width:1.85208;stroke-miterlimit:10;stroke-dasharray:none;stroke-opacity:1"
     id="path56-0" />
  <path
     fill="#762a2a"
     d="m 173.66904,100.27004 c 0,-0.814 -0.659,-1.473 -1.472,-1.473 H 2.39804 a 1.473,1.473 0 0 0 -1.47200001,1.473 v 5.889 c 0,0.813 0.66000001,1.472 1.47200001,1.472 h 169.799 c 0.813,0 1.472,-0.659 1.472,-1.472 z"
     fill-rule="evenodd"
     style="opacity:1;fill:#612424;fill-opacity:1;stroke:#381515;stroke-width:1.85208;stroke-linecap:square;stroke-miterlimit:10;stroke-dasharray:none;stroke-opacity:1"
     id="path51-9" />
  <path
     d="m 171.85804,162.15304 c 0,0 -0.498,-1.111 -1.111,-1.111 H 3.84904 a 1.11,1.11 0 0 0 -1.112,1.111 v 4.445 c 0,0.613 0.498,1.11 1.112,1.11 h 166.898 c 0.613,0 1.11,-0.497 1.11,-1.11 z"
     style="opacity:1;fill:#612424;fill-opacity:1;fill-rule:evenodd;stroke:#381515;stroke-width:1.85208;stroke-miterlimit:10;stroke-dasharray:none;stroke-opacity:1"
     id="path54-2" />
</svg>
