<svg xmlns="http://www.w3.org/2000/svg" width="131.463" height="470.517" viewBox="0 0 69.566 248.982"><g fill-rule="evenodd" style="stroke:#372915;stroke-width:2.36953;stroke-linecap:round;stroke-dasharray:none;stroke-opacity:1"><path fill="#5d4523" d="M7899.37 1956.026h-4.705v-315.133h4.705zM7966.44 1957.068h-4.706v-315.474h4.705z" style="stroke:#372915;stroke-width:2.36953;stroke-linecap:round;stroke-miterlimit:10;stroke-dasharray:none;stroke-opacity:1" transform="matrix(.78162 0 0 -.78162 -6163.4 1530.616)"/><path fill="#785a2e" d="M7972.853 1699.499v15.087h-85.936v-15.087zM7972.853 1719.76v15.087h-85.936v-15.087z" style="stroke:#372915;stroke-width:2.36953;stroke-linecap:round;stroke-miterlimit:10;stroke-dasharray:none;stroke-opacity:1" transform="matrix(.78162 0 0 -.78162 -6163.4 1534.176)"/><path fill="#7e5c2a" d="M7972.853 1740.02v15.088h-85.936v-15.087z" style="stroke:#372915;stroke-width:2.36953;stroke-linecap:round;stroke-miterlimit:10;stroke-dasharray:none;stroke-opacity:1" transform="matrix(.78162 0 0 -.78162 -6163.4 1534.176)"/><path fill="#8e662a" d="M7972.853 1760.282v15.087h-85.936v-15.087zM7972.853 1780.543v15.087h-85.936v-15.087z" style="stroke:#372915;stroke-width:2.36953;stroke-linecap:round;stroke-miterlimit:10;stroke-dasharray:none;stroke-opacity:1" transform="matrix(.78162 0 0 -.78162 -6163.4 1534.176)"/><path fill="#785a2e" d="M7972.853 1800.804v15.087h-85.936v-15.087zM7972.853 1821.066v15.087h-85.936v-15.087z" style="stroke:#372915;stroke-width:2.36953;stroke-linecap:round;stroke-miterlimit:10;stroke-dasharray:none;stroke-opacity:1" transform="matrix(.78162 0 0 -.78162 -6163.4 1534.176)"/><path fill="#765628" d="M7972.853 1841.327v15.087h-85.936v-15.087zM7972.853 1861.588v15.087h-85.936v-15.087zM7972.853 1881.85v15.086h-85.936v-15.087z" style="stroke:#372915;stroke-width:2.36953;stroke-linecap:round;stroke-miterlimit:10;stroke-dasharray:none;stroke-opacity:1" transform="matrix(.78162 0 0 -.78162 -6163.4 1534.176)"/><path fill="#8e662a" d="M7972.853 1902.11v15.087h-85.936v-15.087z" style="stroke:#372915;stroke-width:2.36953;stroke-linecap:round;stroke-miterlimit:10;stroke-dasharray:none;stroke-opacity:1" transform="matrix(.78162 0 0 -.78162 -6163.4 1534.176)"/><path fill="#7e5c2a" d="M7972.853 1922.372v15.086h-85.936v-15.087z" style="stroke:#372915;stroke-width:2.36953;stroke-linecap:round;stroke-miterlimit:10;stroke-dasharray:none;stroke-opacity:1" transform="matrix(.78162 0 0 -.78162 -6163.4 1534.176)"/><path fill="#765628" d="M7972.853 1942.633v15.087h-85.936v-15.087z" style="stroke:#372915;stroke-width:2.36953;stroke-linecap:round;stroke-miterlimit:10;stroke-dasharray:none;stroke-opacity:1" transform="matrix(.78162 0 0 -.78162 -6163.4 1534.176)"/><path fill="#7e5c2a" d="m7972.465 1670.376.683 15.074-85.844 3.956-.683-15.074z" style="stroke:#372915;stroke-width:2.36953;stroke-linecap:round;stroke-miterlimit:10;stroke-dasharray:none;stroke-opacity:1" transform="matrix(.78162 0 0 -.78162 -6163.4 1530.616)"/><path fill="#765628" d="m7973.096 1651.258-.539 15.074-85.883-3.088.539-15.074z" style="stroke:#372915;stroke-width:2.36953;stroke-linecap:round;stroke-miterlimit:10;stroke-dasharray:none;stroke-opacity:1" transform="matrix(.78162 0 0 -.78162 -6163.4 1530.616)"/></g></svg>