<svg xmlns="http://www.w3.org/2000/svg" xml:space="preserve" id="svg1" width="299.75" height="580.66" x="0" y="0" version="1.1"><style id="style1" type="text/css">.st0,.st1,.st2,.st3{fill:#8a4c25;stroke:#58310e;stroke-width:6.3199;stroke-linejoin:round;stroke-miterlimit:11.3386}.st1,.st2,.st3{fill:#713e1e}.st2,.st3{fill:#5c3924;stroke:#301b08}.st3{stroke-width:6}</style><path id="rect26" d="M14.96 1097.71h269.83v38.3H14.96z" class="st0" style="fill:#713e1e;fill-opacity:1"/><path id="rect29" d="M14.96 1021.11h269.83v38.3H14.96z" class="st0" style="fill:#713e1e;fill-opacity:1"/><g id="g74" style="fill:#8a4c25;fill-opacity:1;stroke:#58310e;stroke-width:6.32;stroke-dasharray:none;stroke-opacity:1" transform="translate(-.16 -.16)"><path id="rect27" d="M15.12 1059.57h269.83v38.3H15.12z" class="st1" style="fill:#8a4c25;fill-opacity:1;stroke:#58310e;stroke-width:6.32;stroke-dasharray:none;stroke-opacity:1"/><path id="rect30" d="M15.12 982.97h269.83v38.3H15.12z" class="st1" style="fill:#8a4c25;fill-opacity:1;stroke:#58310e;stroke-width:6.32;stroke-dasharray:none;stroke-opacity:1"/><path id="rect25" d="M15.12 906.37h269.83v38.3H15.12z" class="st0" style="fill:#8a4c25;fill-opacity:1;stroke:#58310e;stroke-width:6.32;stroke-dasharray:none;stroke-opacity:1"/><path id="rect20" d="M15.12 753.17h269.83v38.3H15.12z" class="st0" style="fill:#8a4c25;fill-opacity:1;stroke:#58310e;stroke-width:6.32;stroke-dasharray:none;stroke-opacity:1"/><path id="rect22" d="M15.12 829.77h269.83v38.3H15.12z" class="st0" style="fill:#8a4c25;fill-opacity:1;stroke:#58310e;stroke-width:6.32;stroke-dasharray:none;stroke-opacity:1"/><path id="rect1" d="M15.12 140.37h269.83v38.3H15.12z" class="st0" style="fill:#8a4c25;fill-opacity:1;stroke:#58310e;stroke-width:6.32;stroke-dasharray:none;stroke-opacity:1"/><path id="rect3" d="M15.12 216.97h269.83v38.3H15.12z" class="st0" style="fill:#8a4c25;fill-opacity:1;stroke:#58310e;stroke-width:6.32;stroke-dasharray:none;stroke-opacity:1"/><path id="rect5" d="M15.12 293.57h269.83v38.3H15.12z" class="st0" style="fill:#8a4c25;fill-opacity:1;stroke:#58310e;stroke-width:6.32;stroke-dasharray:none;stroke-opacity:1"/><path id="rect7" d="M15.12 370.17h269.83v38.3H15.12z" class="st0" style="fill:#8a4c25;fill-opacity:1;stroke:#58310e;stroke-width:6.32;stroke-dasharray:none;stroke-opacity:1"/><path id="rect9" d="M15.12 446.77h269.83v38.3H15.12z" class="st0" style="fill:#8a4c25;fill-opacity:1;stroke:#58310e;stroke-width:6.32;stroke-dasharray:none;stroke-opacity:1"/><path id="rect11" d="M15.12 523.37h269.83v38.3H15.12z" class="st0" style="fill:#8a4c25;fill-opacity:1;stroke:#58310e;stroke-width:6.32;stroke-dasharray:none;stroke-opacity:1"/><path id="rect13" d="M15.12 599.97h269.83v38.3H15.12z" class="st0" style="fill:#8a4c25;fill-opacity:1;stroke:#58310e;stroke-width:6.32;stroke-dasharray:none;stroke-opacity:1"/><path id="rect15" d="M15.12 676.57h269.83v38.3H15.12z" class="st0" style="fill:#8a4c25;fill-opacity:1;stroke:#58310e;stroke-width:6.32;stroke-dasharray:none;stroke-opacity:1"/><path id="rect17" d="M15.12 63.77h269.83v38.3H15.12z" class="st0" style="fill:#8a4c25;fill-opacity:1;stroke:#58310e;stroke-width:6.32;stroke-dasharray:none;stroke-opacity:1"/></g><g id="g73" style="fill:#713e1e;fill-opacity:1;stroke:#58310e;stroke-width:6.32;stroke-dasharray:none;stroke-opacity:1" transform="translate(-.16 -.16)"><path id="rect28" d="M15.12 944.67h269.83v38.3H15.12z" class="st0" style="fill:#713e1e;fill-opacity:1;stroke:#58310e;stroke-width:6.32;stroke-dasharray:none;stroke-opacity:1"/><path id="rect24" d="M15.12 868.07h269.83v38.3H15.12z" class="st1" style="fill:#713e1e;fill-opacity:1;stroke:#58310e;stroke-width:6.32;stroke-dasharray:none;stroke-opacity:1"/><path id="rect21" d="M15.12 714.87h269.83v38.3H15.12z" class="st1" style="fill:#713e1e;fill-opacity:1;stroke:#58310e;stroke-width:6.32;stroke-dasharray:none;stroke-opacity:1"/><path id="rect23" d="M15.12 791.47h269.83v38.3H15.12z" class="st1" style="fill:#713e1e;fill-opacity:1;stroke:#58310e;stroke-width:6.32;stroke-dasharray:none;stroke-opacity:1"/><path id="rect2" d="M15.12 102.07h269.83v38.3H15.12z" class="st1" style="fill:#713e1e;fill-opacity:1;stroke:#58310e;stroke-width:6.32;stroke-dasharray:none;stroke-opacity:1"/><path id="rect4" d="M15.12 178.67h269.83v38.3H15.12z" class="st1" style="fill:#713e1e;fill-opacity:1;stroke:#58310e;stroke-width:6.32;stroke-dasharray:none;stroke-opacity:1"/><path id="rect6" d="M15.12 255.27h269.83v38.3H15.12z" class="st1" style="fill:#713e1e;fill-opacity:1;stroke:#58310e;stroke-width:6.32;stroke-dasharray:none;stroke-opacity:1"/><path id="rect8" d="M15.12 331.87h269.83v38.3H15.12z" class="st1" style="fill:#713e1e;fill-opacity:1;stroke:#58310e;stroke-width:6.32;stroke-dasharray:none;stroke-opacity:1"/><path id="rect10" d="M15.12 408.47h269.83v38.3H15.12z" class="st1" style="fill:#713e1e;fill-opacity:1;stroke:#58310e;stroke-width:6.32;stroke-dasharray:none;stroke-opacity:1"/><path id="rect12" d="M15.12 485.07h269.83v38.3H15.12z" class="st1" style="fill:#713e1e;fill-opacity:1;stroke:#58310e;stroke-width:6.32;stroke-dasharray:none;stroke-opacity:1"/><path id="rect14" d="M15.12 561.67h269.83v38.3H15.12z" class="st1" style="fill:#713e1e;fill-opacity:1;stroke:#58310e;stroke-width:6.32;stroke-dasharray:none;stroke-opacity:1"/><path id="rect16" d="M15.12 638.27h269.83v38.3H15.12z" class="st1" style="fill:#713e1e;fill-opacity:1;stroke:#58310e;stroke-width:6.32;stroke-dasharray:none;stroke-opacity:1"/><path id="rect18" d="M15.12 25.47h269.83v38.3H15.12z" class="st1" style="fill:#713e1e;fill-opacity:1;stroke:#58310e;stroke-width:6.32;stroke-dasharray:none;stroke-opacity:1"/></g><g id="layer1" transform="translate(-223.54 -107.39)"><g id="g72" style="fill:#5c3924;fill-opacity:1;stroke:#301b08;stroke-width:6;stroke-dasharray:none;stroke-opacity:1"><path id="rect19" d="M493.79 132.54h14.7v1111.02h-14.7z" class="st3" style="fill:#5c3924;fill-opacity:1;stroke:#301b08;stroke-width:6;stroke-dasharray:none;stroke-opacity:1"/><path id="rect13_00000022555540556800429040000002834010471983543956_" d="M238.34 132.54h14.7v1111.02h-14.7z" class="st3" style="fill:#5c3924;fill-opacity:1;stroke:#301b08;stroke-width:6;stroke-dasharray:none;stroke-opacity:1"/></g><g id="g71" style="fill:#5c3924;fill-opacity:1;stroke:#301b08;stroke-width:6;stroke-dasharray:none;stroke-opacity:1"><path id="path6_00000070092079030562847080000014733248964584088961_" d="M481.996 129.054a19.15 19.15 0 0 1 19.63-18.658 19.15 19.15 0 0 1 18.658 19.628 19.15 19.15 0 0 1-19.628 18.66 19.15 19.15 0 0 1-18.66-19.627" class="st2" style="fill:#5c3924;fill-opacity:1;stroke:#301b08;stroke-width:6;stroke-dasharray:none;stroke-opacity:1"/><path id="path20" d="M226.546 129.054a19.15 19.15 0 0 1 19.63-18.658 19.15 19.15 0 0 1 18.658 19.628 19.15 19.15 0 0 1-19.628 18.66 19.15 19.15 0 0 1-18.66-19.627" class="st2" style="fill:#5c3924;fill-opacity:1;stroke:#301b08;stroke-width:6;stroke-dasharray:none;stroke-opacity:1"/><path id="path21" d="M226.546 879.064a19.15 19.15 0 0 1 19.63-18.658 19.15 19.15 0 0 1 18.658 19.629 19.15 19.15 0 0 1-19.628 18.66 19.15 19.15 0 0 1-18.66-19.628" class="st2" style="fill:#5c3924;fill-opacity:1;stroke:#301b08;stroke-width:6;stroke-dasharray:none;stroke-opacity:1"/><path id="path19" d="M481.996 496.064a19.15 19.15 0 0 1 19.63-18.658 19.15 19.15 0 0 1 18.658 19.629 19.15 19.15 0 0 1-19.628 18.66 19.15 19.15 0 0 1-18.66-19.628" class="st2" style="fill:#5c3924;fill-opacity:1;stroke:#301b08;stroke-width:6;stroke-dasharray:none;stroke-opacity:1"/><path id="path22" d="M481.996 879.064a19.15 19.15 0 0 1 19.63-18.658 19.15 19.15 0 0 1 18.658 19.629 19.15 19.15 0 0 1-19.628 18.66 19.15 19.15 0 0 1-18.66-19.628" class="st2" style="fill:#5c3924;fill-opacity:1;stroke:#301b08;stroke-width:6;stroke-dasharray:none;stroke-opacity:1"/><path id="path23" d="M226.546 496.064a19.15 19.15 0 0 1 19.63-18.658 19.15 19.15 0 0 1 18.658 19.628 19.15 19.15 0 0 1-19.628 18.66 19.15 19.15 0 0 1-18.66-19.627" class="st2" style="fill:#5c3924;fill-opacity:1;stroke:#301b08;stroke-width:6;stroke-dasharray:none;stroke-opacity:1"/><path id="path24" d="M481.996 304.564a19.15 19.15 0 0 1 19.63-18.658 19.15 19.15 0 0 1 18.658 19.629 19.15 19.15 0 0 1-19.628 18.66 19.15 19.15 0 0 1-18.66-19.628" class="st2" style="fill:#5c3924;fill-opacity:1;stroke:#301b08;stroke-width:6;stroke-dasharray:none;stroke-opacity:1"/><path id="path25" d="M226.546 305.964a19.15 19.15 0 0 1 19.63-18.658 19.15 19.15 0 0 1 18.658 19.628 19.15 19.15 0 0 1-19.628 18.66 19.15 19.15 0 0 1-18.66-19.627" class="st2" style="fill:#5c3924;fill-opacity:1;stroke:#301b08;stroke-width:6;stroke-dasharray:none;stroke-opacity:1"/><path id="path26" d="M481.996 687.564a19.15 19.15 0 0 1 19.63-18.658 19.15 19.15 0 0 1 18.658 19.628 19.15 19.15 0 0 1-19.628 18.66 19.15 19.15 0 0 1-18.66-19.627" class="st2" style="fill:#5c3924;fill-opacity:1;stroke:#301b08;stroke-width:6;stroke-dasharray:none;stroke-opacity:1"/><path id="path27" d="M226.546 687.564a19.15 19.15 0 0 1 19.63-18.658 19.15 19.15 0 0 1 18.658 19.628 19.15 19.15 0 0 1-19.628 18.66 19.15 19.15 0 0 1-18.66-19.627" class="st2" style="fill:#5c3924;fill-opacity:1;stroke:#301b08;stroke-width:6;stroke-dasharray:none;stroke-opacity:1"/><path id="path29" d="M226.546 1070.564a19.15 19.15 0 0 1 19.63-18.658 19.15 19.15 0 0 1 18.658 19.628 19.15 19.15 0 0 1-19.628 18.66 19.15 19.15 0 0 1-18.66-19.627" class="st2" style="fill:#5c3924;fill-opacity:1;stroke:#301b08;stroke-width:6;stroke-dasharray:none;stroke-opacity:1"/><path id="path28" d="M481.996 1070.564a19.15 19.15 0 0 1 19.63-18.658 19.15 19.15 0 0 1 18.658 19.628 19.15 19.15 0 0 1-19.628 18.66 19.15 19.15 0 0 1-18.66-19.627" class="st2" style="fill:#5c3924;fill-opacity:1;stroke:#301b08;stroke-width:6;stroke-dasharray:none;stroke-opacity:1"/><path id="path32" d="M226.546 1246.074a19.15 19.15 0 0 1 19.63-18.658 19.15 19.15 0 0 1 18.658 19.628 19.15 19.15 0 0 1-19.628 18.66 19.15 19.15 0 0 1-18.66-19.627" class="st2" style="fill:#5c3924;fill-opacity:1;stroke:#301b08;stroke-width:6;stroke-dasharray:none;stroke-opacity:1"/><path id="path33" d="M481.996 1246.074a19.15 19.15 0 0 1 19.63-18.658 19.15 19.15 0 0 1 18.658 19.628 19.15 19.15 0 0 1-19.628 18.66 19.15 19.15 0 0 1-18.66-19.627" class="st2" style="fill:#5c3924;fill-opacity:1;stroke:#301b08;stroke-width:6;stroke-dasharray:none;stroke-opacity:1"/></g></g></svg>