<svg xmlns="http://www.w3.org/2000/svg" xmlns:xlink="http://www.w3.org/1999/xlink" width="858.412" height="958.106" viewBox="0 0 227.122 253.499"><defs><pattern xlink:href="#a" id="b" x="0" y="0" patternTransform="translate(218.423 608.734)scale(.265)" preserveAspectRatio="xMidYMid"/><pattern id="a" width="338.127" height="182.912" patternTransform="translate(245 644)" patternUnits="userSpaceOnUse" preserveAspectRatio="xMidYMid"><path d="M0 0v182.912h338.127V0Z" style="fill:#543d2b;fill-opacity:1;stroke-width:5.1292;paint-order:markers stroke fill"/><rect width="39.616" height="163.381" x="-136.367" y="-291.733" rx="3.602" ry="3.602" style="fill:#644c33;fill-opacity:1;stroke-width:1.54049;paint-order:markers stroke fill" transform="scale(1 -1)rotate(90)"/><rect width="39.616" height="163.381" x="-90.502" y="-216.462" rx="3.602" ry="3.602" style="fill:#694c30;fill-opacity:1;stroke-width:1.54049;paint-order:markers stroke fill" transform="scale(1 -1)rotate(90)"/><rect width="39.616" height="163.381" x="-45.341" y="-246.04" rx="3.602" ry="3.602" style="fill:#644c33;fill-opacity:1;stroke-width:1.54049;paint-order:markers stroke fill" transform="scale(1 -1)rotate(90)"/><rect width="39.616" height="163.381" x="-182.912" y="-338.127" rx="3.602" ry="3.602" style="fill:#694c30;fill-opacity:1;stroke-width:1.54049;paint-order:markers stroke fill" transform="scale(1 -1)rotate(90)"/><rect width="39.616" height="163.381" x="-182.912" y="-169.083" rx="3.602" ry="3.602" style="fill:#644c33;fill-opacity:1;stroke-width:1.54049;paint-order:markers stroke fill" transform="scale(1 -1)rotate(90)"/><path d="M0 5.725v39.617h73.05a3.595 3.595 0 0 0 3.602-3.604V9.326a3.593 3.593 0 0 0-3.601-3.601zM255.648 5.726a3.593 3.593 0 0 0-3.601 3.602V41.74a3.593 3.593 0 0 0 3.601 3.602h82.479V5.726Z" style="fill:#694c30;fill-opacity:1;stroke-width:1.54049;paint-order:markers stroke fill"/><path d="M0 50.828v39.615h43.395a3.593 3.593 0 0 0 3.601-3.601V54.43a3.593 3.593 0 0 0-3.601-3.602zM226.148 50.77a3.593 3.593 0 0 0-3.601 3.602v32.412a3.595 3.595 0 0 0 3.601 3.603h111.979V50.77Z" style="fill:#644c33;fill-opacity:1;stroke-width:1.54049;paint-order:markers stroke fill"/><path d="M0 96.727v39.617h118.332a3.595 3.595 0 0 0 3.602-3.604v-32.412a3.593 3.593 0 0 0-3.602-3.602zM301.754 96.738a3.593 3.593 0 0 0-3.602 3.602v32.412a3.595 3.595 0 0 0 3.602 3.603h36.373V96.738Z" style="fill:#694c30;fill-opacity:1;stroke-width:1.54049;paint-order:markers stroke fill"/></pattern></defs><g transform="translate(49.834 97.896)"><path d="M-41.948-93.533v3.606h61.465v-3.606zm146.986 0v3.606h62.23v-3.606z" style="fill:#999;fill-opacity:1;stroke:#595959;stroke-width:1.725;stroke-dasharray:none;stroke-opacity:1;paint-order:fill markers stroke;stop-color:#000"/><path d="M63.16 222.75a102.849 90.315 0 0 0-102.85 90.316A102.849 90.315 0 0 0 63.16 403.38a102.849 90.315 0 0 0 102.848-90.315A102.849 90.315 0 0 0 63.16 222.75zm-68.87 90.49h139.34v26.106H-5.71Z" style="fill:#1f1f1f;fill-opacity:1;stroke:#0d0d0d;stroke-width:3.736;stroke-linecap:square;stroke-linejoin:miter;stroke-dasharray:none;stroke-opacity:1;paint-order:fill markers stroke;stop-color:#000"/><path d="M-39.638-84.793h205.693v397.777H-39.638z" style="fill:#262626;fill-opacity:1;stroke:#0d0d0d;stroke-width:3.723;stroke-linecap:round;stroke-linejoin:miter;stroke-dasharray:none;stroke-opacity:1;stop-color:#000"/><path d="M-8.116 314.827h152.603v28.171H-8.116z" style="fill:#1f1f1f;fill-opacity:1;stroke:none;stroke-width:4.323;stroke-linejoin:round;stroke-dasharray:none;stroke-opacity:1;stop-color:#000"/><path d="M-26.537 309.152a70 70 0 0 0-.144 3.373c0 43.87 40.563 79.434 90.6 79.434s90.599-35.564 90.6-79.434a70 70 0 0 0-.144-3.373h-12.236c0 43.888-35.88 70.951-78.043 70.979-42.163-.028-78.542-26.4-78.542-70.979z" style="fill:#b3b3b3;fill-opacity:1;stroke:#6b6b6b;stroke-width:3.736;stroke-linecap:square;stroke-linejoin:miter;stroke-dasharray:none;stroke-opacity:1;paint-order:fill markers stroke;stop-color:#000"/><g style="opacity:.2" transform="translate(-949.988 637.8)"><rect width="68.407" height="201.509" x="979" y="-709.768" rx="0" ry="0" style="opacity:1;fill:#000;fill-opacity:1;stroke:none;stroke-width:4.02299;stroke-linejoin:round;stop-color:#000"/><rect width="68.407" height="93.64" x="575.614" y="936.566" rx="0" ry="0" style="opacity:1;fill:#000;fill-opacity:1;stroke:none;stroke-width:4.02299;stroke-linejoin:round;stop-color:#000" transform="rotate(-90)"/></g><path d="M-26-76.009h178.87v387.117H-26Z" style="fill:url(#b);stroke:none;stroke-width:3.06256;stroke-linecap:round;stroke-linejoin:round;stroke-dasharray:none" transform="translate(.788)"/><g style="opacity:.200429" transform="translate(263.327 -51.86)"><rect width="68.407" height="205.923" x="-233.527" y="-20.108" rx="0" ry="0" style="fill:#000;fill-opacity:1;stroke:none;stroke-width:4.06681;stroke-linejoin:round;stop-color:#000"/><rect width="68.407" height="93.64" x="-114.046" y="-275.96" rx="0" ry="0" style="fill:#000;fill-opacity:1;stroke:none;stroke-width:4.02299;stroke-linejoin:round;stop-color:#000" transform="rotate(-90)"/></g><path d="M-27.38-70.507V309.5h12.16V-70.507Zm168.824 0V309.5h12.196V-70.507Z" style="fill:#b3b3b3;fill-opacity:1;stroke:#6b6b6b;stroke-width:3.723;stroke-linecap:round;stroke-linejoin:miter;stroke-dasharray:none;stroke-opacity:1;stop-color:#000" transform="translate(.788)"/><path d="M-43.291-85.587h213.036v11.473H-43.291z" style="fill:#1f1f1f;fill-opacity:1;stroke:#0d0d0d;stroke-width:4.34859;stroke-linecap:square;stroke-linejoin:miter;stroke-dasharray:none;stroke-opacity:1;paint-order:fill markers stroke;stop-color:#000"/><path d="M-48.464 2.845h21.596v50.782h-21.596z" style="fill:#404040;fill-opacity:1;fill-rule:evenodd;stroke:#595959;stroke-width:2.74169;stroke-linecap:round;stroke-linejoin:miter;stroke-dasharray:none;stroke-opacity:1;stop-color:#000"/><path d="M-32.922 2.773h20.041v50.88h-20.041z" style="fill:#454545;fill-opacity:1;fill-rule:evenodd;stroke:#595959;stroke-width:2.64365;stroke-linecap:round;stroke-linejoin:miter;stroke-dasharray:none;stroke-opacity:1;stop-color:#000"/><path d="M-48.188-87.049v75.163h3.606V-87.05zm0 156.137v228.947h3.606V69.088Z" style="fill:#999;fill-opacity:1;stroke:#595959;stroke-width:1.725;stroke-dasharray:none;stroke-opacity:1;paint-order:fill markers stroke;stop-color:#000"/><circle cx="41.541" cy="299.629" r="6.12" style="fill:#a6a6a6;fill-opacity:1;stroke:#4d4d4d;stroke-width:3.508;stroke-linecap:square;stroke-linejoin:miter;stroke-dasharray:none;stroke-opacity:1;paint-order:fill markers stroke;stop-color:#000" transform="scale(-1 1)"/><circle cx="41.664" cy="-86.834" r="6.12" style="fill:#a6a6a6;fill-opacity:1;stroke:#4d4d4d;stroke-width:3.508;stroke-linecap:square;stroke-linejoin:miter;stroke-dasharray:none;stroke-opacity:1;paint-order:fill markers stroke;stop-color:#000" transform="scale(-1 1)"/><circle cx="41.541" cy="224.467" r="6.12" style="fill:#a6a6a6;fill-opacity:1;stroke:#4d4d4d;stroke-width:3.508;stroke-linecap:square;stroke-linejoin:miter;stroke-dasharray:none;stroke-opacity:1;paint-order:fill markers stroke;stop-color:#000" transform="scale(-1 1)"/><circle cx="41.541" cy="-9.369" r="6.12" style="fill:#a6a6a6;fill-opacity:1;stroke:#4d4d4d;stroke-width:3.508;stroke-linecap:square;stroke-linejoin:miter;stroke-dasharray:none;stroke-opacity:1;paint-order:fill markers stroke;stop-color:#000" transform="scale(-1 1)"/><circle cx="41.541" cy="65.793" r="6.12" style="fill:#a6a6a6;fill-opacity:1;stroke:#4d4d4d;stroke-width:3.508;stroke-linecap:square;stroke-linejoin:miter;stroke-dasharray:none;stroke-opacity:1;paint-order:fill markers stroke;stop-color:#000" transform="scale(-1 1)"/><circle cx="41.541" cy="145.376" r="6.12" style="fill:#a6a6a6;fill-opacity:1;stroke:#4d4d4d;stroke-width:3.508;stroke-linecap:square;stroke-linejoin:miter;stroke-dasharray:none;stroke-opacity:1;paint-order:fill markers stroke;stop-color:#000" transform="scale(-1 1)"/><path d="M170.92-87.048h3.606v385.084h-3.606z" style="fill:#999;fill-opacity:1;stroke:#595959;stroke-width:1.725;stroke-dasharray:none;stroke-opacity:1;paint-order:fill markers stroke;stop-color:#000"/><circle cx="167.973" cy="299.629" r="6.12" style="fill:#a6a6a6;fill-opacity:1;stroke:#4d4d4d;stroke-width:3.508;stroke-linecap:square;stroke-linejoin:miter;stroke-dasharray:none;stroke-opacity:1;paint-order:fill markers stroke;stop-color:#000"/><circle cx="168.095" cy="-86.834" r="6.12" style="fill:#a6a6a6;fill-opacity:1;stroke:#4d4d4d;stroke-width:3.508;stroke-linecap:square;stroke-linejoin:miter;stroke-dasharray:none;stroke-opacity:1;paint-order:fill markers stroke;stop-color:#000"/><circle cx="167.973" cy="224.467" r="6.12" style="fill:#a6a6a6;fill-opacity:1;stroke:#4d4d4d;stroke-width:3.508;stroke-linecap:square;stroke-linejoin:miter;stroke-dasharray:none;stroke-opacity:1;paint-order:fill markers stroke;stop-color:#000"/><circle cx="167.973" cy="-9.369" r="6.12" style="fill:#a6a6a6;fill-opacity:1;stroke:#4d4d4d;stroke-width:3.508;stroke-linecap:square;stroke-linejoin:miter;stroke-dasharray:none;stroke-opacity:1;paint-order:fill markers stroke;stop-color:#000"/><circle cx="167.973" cy="65.793" r="6.12" style="fill:#a6a6a6;fill-opacity:1;stroke:#4d4d4d;stroke-width:3.736;stroke-linecap:square;stroke-linejoin:miter;stroke-dasharray:none;stroke-opacity:1;paint-order:fill markers stroke;stop-color:#000"/><circle cx="167.973" cy="145.376" r="6.12" style="fill:#a6a6a6;fill-opacity:1;stroke:#4d4d4d;stroke-width:3.508;stroke-linecap:square;stroke-linejoin:miter;stroke-dasharray:none;stroke-opacity:1;paint-order:fill markers stroke;stop-color:#000"/><circle cx="-19.811" cy="-86.834" r="6.12" style="fill:#a6a6a6;fill-opacity:1;stroke:#4d4d4d;stroke-width:3.508;stroke-linecap:square;stroke-linejoin:miter;stroke-dasharray:none;stroke-opacity:1;paint-order:fill markers stroke;stop-color:#000" transform="scale(-1 1)"/><circle cx="-103.005" cy="-86.834" r="6.12" style="fill:#a6a6a6;fill-opacity:1;stroke:#4d4d4d;stroke-width:3.508;stroke-linecap:square;stroke-linejoin:miter;stroke-dasharray:none;stroke-opacity:1;paint-order:fill markers stroke;stop-color:#000" transform="scale(-1 1)"/><ellipse cx="22.654" cy="343.796" rx="8.236" ry="7.947" style="fill:#262626;fill-opacity:1;stroke:#0d0d0d;stroke-width:4.201;stroke-dasharray:none;stroke-opacity:1;paint-order:fill markers stroke;stop-color:#000"/><ellipse cx="103.499" cy="343.796" rx="8.236" ry="7.947" style="fill:#262626;fill-opacity:1;stroke:#0d0d0d;stroke-width:4.201;stroke-dasharray:none;stroke-opacity:1;paint-order:fill markers stroke;stop-color:#000"/><ellipse cx="-366.435" cy="135.583" rx="6.233" ry="14.01" style="fill:#1a1a1a;fill-opacity:1;stroke:#0d0d0d;stroke-width:4.02309;stroke-linecap:round;stroke-dasharray:none;stroke-opacity:1;stop-color:#000" transform="matrix(-.61946 -.78503 -.77919 .6268 0 0)"/><g transform="translate(.97)"><path d="M-11.482 124.104c-4.154 0-6.036 3.344-6.036 7.499v176.16a7.48 7.48 0 0 0 7.497 7.5h145.938a7.48 7.48 0 0 0 7.497-7.5v-176.16c0-4.155-1.69-7.5-5.844-7.5h-3.353v180.719a2.454 2.454 0 0 1-2.46 2.46H-6.29a2.454 2.454 0 0 1-2.46-2.46V124.104z" style="fill:#b3b3b3;fill-opacity:1;stroke:#6b6b6b;stroke-width:2.523;stroke-linejoin:round;stroke-dasharray:none;stroke-opacity:1;stop-color:#000"/><rect width="115.343" height="8.228" x="3.879" y="307.088" rx="0" ry="0" style="fill:#0d0d0d;fill-opacity:1;stroke:none;stroke-width:.788686;stroke-linecap:square;stroke-linejoin:round;stroke-dasharray:none;stroke-opacity:1"/><rect width="7.732" height="5.449" x="57.486" y="308.553" rx=".636" ry=".636" style="fill:#1a1a1a;fill-opacity:1;stroke:none;stroke-width:.362527;stroke-linecap:square;stroke-linejoin:round;stroke-dasharray:none;stroke-opacity:1"/><rect width="47.583" height="2.44" x="6.915" y="308.546" rx=".624" ry=".624" style="fill:#1a1a1a;fill-opacity:1;stroke:none;stroke-width:.788685;stroke-linecap:square;stroke-linejoin:round;stroke-dasharray:none;stroke-opacity:1"/><rect width="47.583" height="2.44" x="68.458" y="308.546" rx=".624" ry=".624" style="fill:#1a1a1a;fill-opacity:1;stroke:none;stroke-width:.788685;stroke-linecap:square;stroke-linejoin:round;stroke-dasharray:none;stroke-opacity:1"/><path d="M90.813 124.087h43.338v8.607H90.813z" style="fill:#b3b3b3;fill-opacity:1;stroke:#6b6b6b;stroke-width:2.523;stroke-linejoin:round;stroke-dasharray:none;stroke-opacity:1;stop-color:#000"/><rect width="7.732" height="6.089" x="129.905" y="125.356" rx=".636" ry=".636" style="fill:#b3b3b3;fill-opacity:1;stroke:none;stroke-width:.362527;stroke-linecap:square;stroke-linejoin:round;stroke-dasharray:none;stroke-opacity:1"/><path d="M-34.852 124.087H8.486v8.607h-43.338z" style="fill:#b3b3b3;fill-opacity:1;stroke:#6b6b6b;stroke-width:2.523;stroke-linejoin:round;stroke-dasharray:none;stroke-opacity:1;stop-color:#000" transform="scale(-1 1)"/><rect width="7.732" height="6.089" x="4.239" y="125.356" rx=".636" ry=".636" style="fill:#b3b3b3;fill-opacity:1;stroke:none;stroke-width:.362527;stroke-linecap:square;stroke-linejoin:round;stroke-dasharray:none;stroke-opacity:1" transform="scale(-1 1)"/></g><rect width="49.389" height="6.948" x="-53.375" y="169.313" rx="0" ry="0" style="fill:#696141;fill-opacity:1;fill-rule:evenodd;stroke:#3f3a27;stroke-width:2.05201;stroke-linecap:round;stroke-linejoin:round;stroke-miterlimit:20;stroke-dasharray:none;stroke-opacity:1" transform="rotate(-90)"/><path d="m-33.933 243.311-3.421-8.258h2.005l3.54 8.258zm5.545 0-3.421-8.258h2.005l3.54 8.258zm5.545 0-3.421-8.258h2.005l3.54 8.258zm5.545 0-3.421-8.258h2.005l3.54 8.258zm5.545 0-3.421-8.258h2.005l3.54 8.258zm5.545 0-3.421-8.258h2.005l3.54 8.258z" aria-label="\\\\\\" style="font-weight:700;font-size:11.7978px;font-family:&quot;Russo One&quot;;-inkscape-font-specification:&quot;Russo One Bold&quot;;fill:#3f3a27;fill-rule:evenodd;stroke-width:2.05201;stroke-linecap:round;stroke-linejoin:round;stroke-miterlimit:20" transform="matrix(0 -1.38426 .7224 0 0 0)"/><path d="M-96.588-88.518h19.595v50.909h-19.595z" style="fill:#404040;fill-opacity:1;fill-rule:evenodd;stroke:#595959;stroke-width:2.61481;stroke-linecap:round;stroke-linejoin:miter;stroke-dasharray:none;stroke-opacity:1;stop-color:#000" transform="rotate(90)"/><path d="M-83.681-88.619h16.345v51.13h-16.345z" style="fill:#454545;fill-opacity:1;fill-rule:evenodd;stroke:#595959;stroke-width:2.39332;stroke-linecap:round;stroke-linejoin:miter;stroke-dasharray:none;stroke-opacity:1;stop-color:#000" transform="rotate(90)"/></g></svg>