<svg xmlns="http://www.w3.org/2000/svg" xml:space="preserve" width="551.449" height="452.603" viewBox="0 0 291.808 239.502"><g style="stroke-width:.992802"><g style="stroke-width:.992802"><g style="fill:#595959;fill-opacity:1;stroke:#333;stroke-width:1.79981;stroke-dasharray:none;stroke-opacity:1"><path d="M-3696.7-120.127h73.768v3.461h-73.768z" style="fill:#595959;fill-opacity:1;stroke:#333;stroke-width:1.79981;stroke-linecap:round;stroke-linejoin:miter;stroke-dasharray:none;stroke-opacity:1;stop-color:#000" transform="scale(1.09308 -1.12967)rotate(45 -1844.687 4386.756)"/><path d="M81.512 3658.086h73.768v3.461H81.512z" style="fill:#595959;fill-opacity:1;stroke:#333;stroke-width:1.79981;stroke-linecap:round;stroke-linejoin:miter;stroke-dasharray:none;stroke-opacity:1;stop-color:#000" transform="scale(1.09308 1.12967)rotate(45 4406.295 1797.514)"/></g><g style="fill:#595959;fill-opacity:1;stroke:#333;stroke-width:1.79209;stroke-dasharray:none;stroke-opacity:1"><path d="M-3696.7-120.127h73.768v3.461h-73.768z" style="fill:#595959;fill-opacity:1;stroke:#333;stroke-width:1.79209;stroke-linecap:round;stroke-linejoin:miter;stroke-dasharray:none;stroke-opacity:1;stop-color:#000" transform="scale(1.09308 -1.13944)rotate(45 -1698.178 4479.72)"/><path d="M81.512 3658.086h73.768v3.461H81.512z" style="fill:#595959;fill-opacity:1;stroke:#333;stroke-width:1.79209;stroke-linecap:round;stroke-linejoin:miter;stroke-dasharray:none;stroke-opacity:1;stop-color:#000" transform="scale(1.09308 1.13944)rotate(45 4368.434 1966.848)"/></g><g style="fill:#595959;fill-opacity:1;stroke:#333;stroke-width:1.82969;stroke-dasharray:none;stroke-opacity:1"><path d="M-3696.7-120.127h73.768v3.461h-73.768z" style="fill:#595959;fill-opacity:1;stroke:#333;stroke-width:1.82969;stroke-linecap:round;stroke-linejoin:miter;stroke-dasharray:none;stroke-opacity:1;stop-color:#000" transform="scale(1.09308 -1.09308)rotate(45 -1461.1 4381.52)"/><path d="M23.476 3656.943h74.942v3.516H23.476z" style="fill:#595959;fill-opacity:1;stroke:#333;stroke-width:1.83013;stroke-linecap:round;stroke-linejoin:miter;stroke-dasharray:none;stroke-opacity:1;stop-color:#000" transform="scale(1.07596 1.10993)rotate(45 4110.14 2133.908)"/></g><g style="fill:#595959;fill-opacity:1;stroke:#333;stroke-width:1.83979;stroke-dasharray:none;stroke-opacity:1"><path d="M-3696.786-86.181h74.47v3.494h-74.47z" style="fill:#595959;fill-opacity:1;stroke:#333;stroke-width:1.83995;stroke-linecap:round;stroke-linejoin:miter;stroke-dasharray:none;stroke-opacity:1;stop-color:#000" transform="scale(1.08278 -1.0912)rotate(45 -1356.316 4374.05)"/><path d="M81.512 3658.086h73.768v3.461H81.512z" style="fill:#595959;fill-opacity:1;stroke:#333;stroke-width:1.83979;stroke-linecap:round;stroke-linejoin:miter;stroke-dasharray:none;stroke-opacity:1;stop-color:#000" transform="scale(1.09308 1.08111)rotate(45 4064.526 2092.73)"/></g><g style="fill:#595959;fill-opacity:1;stroke:#333;stroke-width:1.82969;stroke-dasharray:none;stroke-opacity:1"><path d="M-3696.7-120.127h73.768v3.461h-73.768z" style="fill:#595959;fill-opacity:1;stroke:#333;stroke-width:1.82969;stroke-linecap:round;stroke-linejoin:miter;stroke-dasharray:none;stroke-opacity:1;stop-color:#000" transform="scale(1.09308 -1.09308)rotate(45 -1614.958 4285.175)"/><path d="M-4.887 3657.348h75.535v3.544H-4.887z" style="fill:#595959;fill-opacity:1;stroke:#333;stroke-width:1.83068;stroke-linecap:round;stroke-linejoin:miter;stroke-dasharray:none;stroke-opacity:1;stop-color:#000" transform="scale(1.06751 1.11806)rotate(45 4137.99 1988.837)"/></g><g style="fill:#595959;fill-opacity:1;stroke:#333;stroke-width:1.82969;stroke-dasharray:none;stroke-opacity:1"><path d="M-3698.201-44.993h75.349v3.535h-75.349z" style="fill:#595959;fill-opacity:1;stroke:#333;stroke-width:1.83049;stroke-linecap:round;stroke-linejoin:miter;stroke-dasharray:none;stroke-opacity:1;stop-color:#000" transform="scale(1.07015 -1.11554)rotate(45 -1442.689 4365.117)"/><path d="M5.551 3658.759H80.9v3.535H5.551z" style="fill:#595959;fill-opacity:1;stroke:#333;stroke-width:1.83049;stroke-linecap:round;stroke-linejoin:miter;stroke-dasharray:none;stroke-opacity:1;stop-color:#000" transform="scale(1.07015 1.11554)rotate(45 4106.739 2066.47)"/></g><g style="fill:#595959;fill-opacity:1;stroke:#333;stroke-width:1.82969;stroke-dasharray:none;stroke-opacity:1"><path d="M-3698.201-44.993h75.349v3.535h-75.349z" style="fill:#595959;fill-opacity:1;stroke:#333;stroke-width:1.83049;stroke-linecap:round;stroke-linejoin:miter;stroke-dasharray:none;stroke-opacity:1;stop-color:#000" transform="scale(1.07015 -1.11554)rotate(45 -1468.786 4302.113)"/><path d="M5.551 3658.759H80.9v3.535H5.551z" style="fill:#595959;fill-opacity:1;stroke:#333;stroke-width:1.83049;stroke-linecap:round;stroke-linejoin:miter;stroke-dasharray:none;stroke-opacity:1;stop-color:#000" transform="scale(1.07015 1.11554)rotate(45 4080.642 2003.465)"/></g><g style="fill:#595959;fill-opacity:1;stroke:#333;stroke-width:1.82969;stroke-dasharray:none;stroke-opacity:1"><path d="M-3696.7-120.127h73.768v3.461h-73.768z" style="fill:#595959;fill-opacity:1;stroke:#333;stroke-width:1.82969;stroke-linecap:round;stroke-linejoin:miter;stroke-dasharray:none;stroke-opacity:1;stop-color:#000" transform="scale(1.09308 -1.09308)rotate(45 -1754.263 4421.566)"/><path d="M81.512 3658.086h73.768v3.461H81.512z" style="fill:#595959;fill-opacity:1;stroke:#333;stroke-width:1.82969;stroke-linecap:round;stroke-linejoin:miter;stroke-dasharray:none;stroke-opacity:1;stop-color:#000" transform="rotate(45 4773.448 2061.618)scale(1.09308)"/></g><path d="M-2254.807-2343.076h59.294v3.756h-59.294z" style="fill:#595959;fill-opacity:1;stroke:#333;stroke-width:1.9856;stroke-linecap:round;stroke-linejoin:miter;stroke-dasharray:none;stroke-opacity:1;stop-color:#000" transform="matrix(0 -1.00725 -1.00725 0 -2211.607 -2092.52)"/><path d="M-2254.807 2283.855h59.294v3.756h-59.294z" style="fill:#595959;fill-opacity:1;stroke:#333;stroke-width:1.9856;stroke-linecap:round;stroke-linejoin:miter;stroke-dasharray:none;stroke-opacity:1;stop-color:#000" transform="rotate(-90 -2152.064 59.543)scale(1.00725)"/><path d="M2283.817-2254.769h59.294v3.756h-59.294z" style="fill:#595959;fill-opacity:1;stroke:#333;stroke-width:1.9856;stroke-linecap:round;stroke-linejoin:miter;stroke-dasharray:none;stroke-opacity:1;stop-color:#000" transform="matrix(1.00725 0 0 -1.00725 -2211.607 -2092.52)"/><path d="M2283.817 2195.548h59.294v3.756h-59.294z" style="fill:#595959;fill-opacity:1;stroke:#333;stroke-width:1.9856;stroke-linecap:round;stroke-linejoin:miter;stroke-dasharray:none;stroke-opacity:1;stop-color:#000" transform="translate(-2211.607 -2092.52)scale(1.00725)"/><g style="fill:#595959;fill-opacity:1;stroke:#333;stroke-width:1.80286;stroke-dasharray:none;stroke-opacity:1"><path d="M-3696.7-120.127h73.768v3.461h-73.768z" style="fill:#595959;fill-opacity:1;stroke:#333;stroke-width:1.80286;stroke-linecap:round;stroke-linejoin:miter;stroke-dasharray:none;stroke-opacity:1;stop-color:#000" transform="scale(1.09308 -1.12586)rotate(45 -1781.363 4360.526)"/><path d="M81.512 3658.086h73.768v3.461H81.512z" style="fill:#595959;fill-opacity:1;stroke:#333;stroke-width:1.80286;stroke-linecap:round;stroke-linejoin:miter;stroke-dasharray:none;stroke-opacity:1;stop-color:#000" transform="scale(1.09308 1.12586)rotate(45 4342.972 1823.744)"/></g><path d="M-2254.807 2228.401h59.294v3.756h-59.294z" style="fill:#595959;fill-opacity:1;stroke:#333;stroke-width:1.9856;stroke-linecap:round;stroke-linejoin:miter;stroke-dasharray:none;stroke-opacity:1;stop-color:#000" transform="rotate(-90 -2152.064 59.543)scale(1.00725)"/><path d="M2228.363-2254.769h59.294v3.756h-59.294z" style="fill:#595959;fill-opacity:1;stroke:#333;stroke-width:1.9856;stroke-linecap:round;stroke-linejoin:miter;stroke-dasharray:none;stroke-opacity:1;stop-color:#000" transform="matrix(1.00725 0 0 -1.00725 -2211.607 -2092.52)"/><path d="M2228.363 2197.185h59.294v3.756h-59.294z" style="fill:#595959;fill-opacity:1;stroke:#333;stroke-width:1.9856;stroke-linecap:round;stroke-linejoin:miter;stroke-dasharray:none;stroke-opacity:1;stop-color:#000" transform="translate(-2211.607 -2092.52)scale(1.00725)"/><g style="fill:#595959;fill-opacity:1;stroke:#333;stroke-width:1.79981;stroke-dasharray:none;stroke-opacity:1"><path d="M-3696.7-120.127h73.768v3.461h-73.768z" style="fill:#595959;fill-opacity:1;stroke:#333;stroke-width:1.79981;stroke-linecap:round;stroke-linejoin:miter;stroke-dasharray:none;stroke-opacity:1;stop-color:#000" transform="scale(1.09308 -1.12967)rotate(45 -1819.137 4448.438)"/><path d="M81.512 3658.086h73.768v3.461H81.512z" style="fill:#595959;fill-opacity:1;stroke:#333;stroke-width:1.79981;stroke-linecap:round;stroke-linejoin:miter;stroke-dasharray:none;stroke-opacity:1;stop-color:#000" transform="scale(1.09308 1.12967)rotate(45 4431.845 1859.196)"/></g><path d="M-2199.277-2343.076h59.294v3.756h-59.294z" style="fill:#595959;fill-opacity:1;stroke:#333;stroke-width:1.9856;stroke-linecap:round;stroke-linejoin:miter;stroke-dasharray:none;stroke-opacity:1;stop-color:#000" transform="matrix(0 -1.00725 -1.00725 0 -2211.607 -2092.52)"/><path d="M-2199.277 2283.855h59.294v3.756h-59.294z" style="fill:#595959;fill-opacity:1;stroke:#333;stroke-width:1.9856;stroke-linecap:round;stroke-linejoin:miter;stroke-dasharray:none;stroke-opacity:1;stop-color:#000" transform="rotate(-90 -2152.064 59.543)scale(1.00725)"/><path d="M2283.817 2140.018h59.294v3.756h-59.294z" style="fill:#595959;fill-opacity:1;stroke:#333;stroke-width:1.9856;stroke-linecap:round;stroke-linejoin:miter;stroke-dasharray:none;stroke-opacity:1;stop-color:#000" transform="translate(-2211.607 -2092.52)scale(1.00725)"/><path d="M-2199.277 2228.401h59.294v3.756h-59.294z" style="fill:#595959;fill-opacity:1;stroke:#333;stroke-width:1.9856;stroke-linecap:round;stroke-linejoin:miter;stroke-dasharray:none;stroke-opacity:1;stop-color:#000" transform="rotate(-90 -2152.064 59.543)scale(1.00725)"/><path d="M2228.363 2140.018h59.294v3.756h-59.294z" style="fill:#595959;fill-opacity:1;stroke:#333;stroke-width:1.9856;stroke-linecap:round;stroke-linejoin:miter;stroke-dasharray:none;stroke-opacity:1;stop-color:#000" transform="translate(-2211.607 -2092.52)scale(1.00725)"/><g style="fill:#595959;fill-opacity:1;stroke:#333;stroke-width:1.79209;stroke-dasharray:none;stroke-opacity:1"><path d="M-3696.7-120.127h73.768v3.461h-73.768z" style="fill:#595959;fill-opacity:1;stroke:#333;stroke-width:1.79209;stroke-linecap:round;stroke-linejoin:miter;stroke-dasharray:none;stroke-opacity:1;stop-color:#000" transform="scale(1.09308 -1.13944)rotate(45 -1672.628 4541.403)"/><path d="M81.512 3658.086h73.768v3.461H81.512z" style="fill:#595959;fill-opacity:1;stroke:#333;stroke-width:1.79209;stroke-linecap:round;stroke-linejoin:miter;stroke-dasharray:none;stroke-opacity:1;stop-color:#000" transform="scale(1.09308 1.13944)rotate(45 4393.984 2028.53)"/></g><path d="M-2285.409-2460.982h59.294v3.756h-59.294z" style="fill:#595959;fill-opacity:1;stroke:#333;stroke-width:1.9856;stroke-linecap:round;stroke-linejoin:miter;stroke-dasharray:none;stroke-opacity:1;stop-color:#000" transform="matrix(0 -1.00725 -1.00725 0 -2211.607 -2092.52)"/><path d="M-2285.409 2401.761h59.294v3.756h-59.294z" style="fill:#595959;fill-opacity:1;stroke:#333;stroke-width:1.9856;stroke-linecap:round;stroke-linejoin:miter;stroke-dasharray:none;stroke-opacity:1;stop-color:#000" transform="rotate(-90 -2152.064 59.543)scale(1.00725)"/><path d="M2401.723-2285.371h59.294v3.756h-59.294z" style="fill:#595959;fill-opacity:1;stroke:#333;stroke-width:1.9856;stroke-linecap:round;stroke-linejoin:miter;stroke-dasharray:none;stroke-opacity:1;stop-color:#000" transform="matrix(1.00725 0 0 -1.00725 -2211.607 -2092.52)"/><path d="M2401.723 2226.149h59.294v3.756h-59.294z" style="fill:#595959;fill-opacity:1;stroke:#333;stroke-width:1.9856;stroke-linecap:round;stroke-linejoin:miter;stroke-dasharray:none;stroke-opacity:1;stop-color:#000" transform="translate(-2211.607 -2092.52)scale(1.00725)"/><path d="M-2285.409 2346.307h59.294v3.756h-59.294z" style="fill:#595959;fill-opacity:1;stroke:#333;stroke-width:1.9856;stroke-linecap:round;stroke-linejoin:miter;stroke-dasharray:none;stroke-opacity:1;stop-color:#000" transform="rotate(-90 -2152.064 59.543)scale(1.00725)"/><path d="M2346.269-2285.371h59.294v3.756h-59.294z" style="fill:#595959;fill-opacity:1;stroke:#333;stroke-width:1.9856;stroke-linecap:round;stroke-linejoin:miter;stroke-dasharray:none;stroke-opacity:1;stop-color:#000" transform="matrix(1.00725 0 0 -1.00725 -2211.607 -2092.52)"/><path d="M2346.269 2226.149h59.294v3.756h-59.294z" style="fill:#595959;fill-opacity:1;stroke:#333;stroke-width:1.9856;stroke-linecap:round;stroke-linejoin:miter;stroke-dasharray:none;stroke-opacity:1;stop-color:#000" transform="translate(-2211.607 -2092.52)scale(1.00725)"/><g style="fill:#595959;fill-opacity:1;stroke:#333;stroke-width:1.79017;stroke-dasharray:none;stroke-opacity:1"><path d="M-3696.7-120.127h73.768v3.461h-73.768z" style="fill:#595959;fill-opacity:1;stroke:#333;stroke-width:1.79017;stroke-linecap:round;stroke-linejoin:miter;stroke-dasharray:none;stroke-opacity:1;stop-color:#000" transform="scale(1.09308 -1.14188)rotate(45 -1734.912 4567.202)"/><path d="M81.512 3658.086h73.768v3.461H81.512z" style="fill:#595959;fill-opacity:1;stroke:#333;stroke-width:1.79017;stroke-linecap:round;stroke-linejoin:miter;stroke-dasharray:none;stroke-opacity:1;stop-color:#000" transform="scale(1.09308 1.14188)rotate(45 4456.267 2002.732)"/></g><path d="M-2229.879-2460.982h59.294v3.756h-59.294z" style="fill:#595959;fill-opacity:1;stroke:#333;stroke-width:1.9856;stroke-linecap:round;stroke-linejoin:miter;stroke-dasharray:none;stroke-opacity:1;stop-color:#000" transform="matrix(0 -1.00725 -1.00725 0 -2211.607 -2092.52)"/><path d="M-2229.879 2401.761h59.294v3.756h-59.294z" style="fill:#595959;fill-opacity:1;stroke:#333;stroke-width:1.9856;stroke-linecap:round;stroke-linejoin:miter;stroke-dasharray:none;stroke-opacity:1;stop-color:#000" transform="rotate(-90 -2152.064 59.543)scale(1.00725)"/><path d="M2401.723 2170.62h59.294v3.756h-59.294z" style="fill:#595959;fill-opacity:1;stroke:#333;stroke-width:1.9856;stroke-linecap:round;stroke-linejoin:miter;stroke-dasharray:none;stroke-opacity:1;stop-color:#000" transform="translate(-2211.607 -2092.52)scale(1.00725)"/><g style="fill:#595959;fill-opacity:1;stroke:#333;stroke-width:1.82969;stroke-dasharray:none;stroke-opacity:1"><path d="M-3696.7-120.127h73.768v3.461h-73.768z" style="fill:#595959;fill-opacity:1;stroke:#333;stroke-width:1.82969;stroke-linecap:round;stroke-linejoin:miter;stroke-dasharray:none;stroke-opacity:1;stop-color:#000" transform="scale(1.09308 -1.09308)rotate(45 -1753.216 4502.518)"/><path d="M81.512 3658.086h73.768v3.461H81.512z" style="fill:#595959;fill-opacity:1;stroke:#333;stroke-width:1.82969;stroke-linecap:round;stroke-linejoin:miter;stroke-dasharray:none;stroke-opacity:1;stop-color:#000" transform="rotate(45 4835.21 2124.997)scale(1.09308)"/></g><path d="M-2229.879 2346.307h59.294v3.756h-59.294z" style="fill:#595959;fill-opacity:1;stroke:#333;stroke-width:1.9856;stroke-linecap:round;stroke-linejoin:miter;stroke-dasharray:none;stroke-opacity:1;stop-color:#000" transform="rotate(-90 -2152.064 59.543)scale(1.00725)"/><path d="M2346.269 2170.62h59.294v3.756h-59.294z" style="fill:#595959;fill-opacity:1;stroke:#333;stroke-width:1.9856;stroke-linecap:round;stroke-linejoin:miter;stroke-dasharray:none;stroke-opacity:1;stop-color:#000" transform="translate(-2211.607 -2092.52)scale(1.00725)"/><g style="fill:#595959;fill-opacity:1;stroke:#333;stroke-width:1.83979;stroke-dasharray:none;stroke-opacity:1"><path d="M-3696.786-86.181h74.47v3.494h-74.47z" style="fill:#595959;fill-opacity:1;stroke:#333;stroke-width:1.83995;stroke-linecap:round;stroke-linejoin:miter;stroke-dasharray:none;stroke-opacity:1;stop-color:#000" transform="scale(1.08278 -1.0912)rotate(45 -1330.523 4436.319)"/><path d="M47.199 3657.804h74.47v3.494h-74.47z" style="fill:#595959;fill-opacity:1;stroke:#333;stroke-width:1.83995;stroke-linecap:round;stroke-linejoin:miter;stroke-dasharray:none;stroke-opacity:1;stop-color:#000" transform="scale(1.08278 1.0912)rotate(45 4077.773 2196.13)"/></g><path d="M-2547.378-2460.982h58.645v3.756h-58.645z" style="fill:#595959;fill-opacity:1;stroke:#333;stroke-width:1.9856;stroke-linecap:round;stroke-linejoin:miter;stroke-dasharray:none;stroke-opacity:1;stop-color:#000" transform="matrix(0 -1.00725 -1.00725 0 -2211.607 -2092.52)"/><path d="M-2547.378 2401.761h58.645v3.756h-58.645z" style="fill:#595959;fill-opacity:1;stroke:#333;stroke-width:1.9856;stroke-linecap:round;stroke-linejoin:miter;stroke-dasharray:none;stroke-opacity:1;stop-color:#000" transform="rotate(-90 -2152.064 59.543)scale(1.00725)"/><path d="M2401.723-2547.34h59.294v3.715h-59.294z" style="fill:#595959;fill-opacity:1;stroke:#333;stroke-width:1.9856;stroke-linecap:round;stroke-linejoin:miter;stroke-dasharray:none;stroke-opacity:1;stop-color:#000" transform="matrix(1.00725 0 0 -1.00725 -2211.607 -2092.52)"/><path d="M2401.723 2488.767h59.294v3.715h-59.294z" style="fill:#595959;fill-opacity:1;stroke:#333;stroke-width:1.9856;stroke-linecap:round;stroke-linejoin:miter;stroke-dasharray:none;stroke-opacity:1;stop-color:#000" transform="translate(-2211.607 -2092.52)scale(1.00725)"/><path d="M-2547.378 2346.307h58.645v3.756h-58.645z" style="fill:#595959;fill-opacity:1;stroke:#333;stroke-width:1.9856;stroke-linecap:round;stroke-linejoin:miter;stroke-dasharray:none;stroke-opacity:1;stop-color:#000" transform="rotate(-90 -2152.064 59.543)scale(1.00725)"/><path d="M2346.269-2547.34h59.294v3.715h-59.294z" style="fill:#595959;fill-opacity:1;stroke:#333;stroke-width:1.9856;stroke-linecap:round;stroke-linejoin:miter;stroke-dasharray:none;stroke-opacity:1;stop-color:#000" transform="matrix(1.00725 0 0 -1.00725 -2211.607 -2092.52)"/><path d="M2346.269 2488.767h59.294v3.715h-59.294z" style="fill:#595959;fill-opacity:1;stroke:#333;stroke-width:1.9856;stroke-linecap:round;stroke-linejoin:miter;stroke-dasharray:none;stroke-opacity:1;stop-color:#000" transform="translate(-2211.607 -2092.52)scale(1.00725)"/><g style="fill:#595959;fill-opacity:1;stroke:#333;stroke-width:1.82969;stroke-dasharray:none;stroke-opacity:1"><path d="M-3696.172-62.705h74.942v3.516h-74.942z" style="fill:#595959;fill-opacity:1;stroke:#333;stroke-width:1.83013;stroke-linecap:round;stroke-linejoin:miter;stroke-dasharray:none;stroke-opacity:1;stop-color:#000" transform="scale(1.07596 -1.10993)rotate(45 -1371.45 4477.872)"/><path d="M81.512 3658.086h73.768v3.461H81.512z" style="fill:#595959;fill-opacity:1;stroke:#333;stroke-width:1.82969;stroke-linecap:round;stroke-linejoin:miter;stroke-dasharray:none;stroke-opacity:1;stop-color:#000" transform="rotate(45 4543.83 2324.682)scale(1.09308)"/></g><path d="M-2492.497-2460.982h59.294v3.756h-59.294z" style="fill:#595959;fill-opacity:1;stroke:#333;stroke-width:1.9856;stroke-linecap:round;stroke-linejoin:miter;stroke-dasharray:none;stroke-opacity:1;stop-color:#000" transform="matrix(0 -1.00725 -1.00725 0 -2211.607 -2092.52)"/><path d="M-2492.497 2401.761h59.294v3.756h-59.294z" style="fill:#595959;fill-opacity:1;stroke:#333;stroke-width:1.9856;stroke-linecap:round;stroke-linejoin:miter;stroke-dasharray:none;stroke-opacity:1;stop-color:#000" transform="rotate(-90 -2152.064 59.543)scale(1.00725)"/><path d="M2401.723 2433.238h59.294v3.756h-59.294z" style="fill:#595959;fill-opacity:1;stroke:#333;stroke-width:1.9856;stroke-linecap:round;stroke-linejoin:miter;stroke-dasharray:none;stroke-opacity:1;stop-color:#000" transform="translate(-2211.607 -2092.52)scale(1.00725)"/><path d="M-2492.497 2346.307h59.294v3.756h-59.294z" style="fill:#595959;fill-opacity:1;stroke:#333;stroke-width:1.9856;stroke-linecap:round;stroke-linejoin:miter;stroke-dasharray:none;stroke-opacity:1;stop-color:#000" transform="rotate(-90 -2152.064 59.543)scale(1.00725)"/><path d="M2346.269 2433.238h59.294v3.756h-59.294z" style="fill:#595959;fill-opacity:1;stroke:#333;stroke-width:1.9856;stroke-linecap:round;stroke-linejoin:miter;stroke-dasharray:none;stroke-opacity:1;stop-color:#000" transform="translate(-2211.607 -2092.52)scale(1.00725)"/><path d="M-2461.398-2338.148h59.294v3.756h-59.294z" style="fill:#595959;fill-opacity:1;stroke:#333;stroke-width:1.9856;stroke-linecap:round;stroke-linejoin:miter;stroke-dasharray:none;stroke-opacity:1;stop-color:#000" transform="matrix(0 -1.00725 -1.00725 0 -2211.607 -2092.52)"/><path d="M-2460.585 2278.926h59.294v3.756h-59.294z" style="fill:#595959;fill-opacity:1;stroke:#333;stroke-width:1.9856;stroke-linecap:round;stroke-linejoin:miter;stroke-dasharray:none;stroke-opacity:1;stop-color:#000" transform="rotate(-90 -2152.064 59.543)scale(1.00725)"/><path d="M2223.434 2459.371v3.756h114.749v-3.756h-59.295zM2278.888 2401.326h59.294v3.756h-59.294z" style="fill:#595959;fill-opacity:1;stroke:#333;stroke-width:1.9856;stroke-linecap:round;stroke-linejoin:miter;stroke-dasharray:none;stroke-opacity:1;stop-color:#000" transform="translate(-2211.607 -2092.52)scale(1.00725)"/><path d="M-2460.585 2223.472h59.294v3.756h-59.294z" style="fill:#595959;fill-opacity:1;stroke:#333;stroke-width:1.9856;stroke-linecap:round;stroke-linejoin:miter;stroke-dasharray:none;stroke-opacity:1;stop-color:#000" transform="rotate(-90 -2152.064 59.543)scale(1.00725)"/><path d="M2223.434 2401.326h59.294v3.756h-59.294z" style="fill:#595959;fill-opacity:1;stroke:#333;stroke-width:1.9856;stroke-linecap:round;stroke-linejoin:miter;stroke-dasharray:none;stroke-opacity:1;stop-color:#000" transform="translate(-2211.607 -2092.52)scale(1.00725)"/><g style="fill:#595959;fill-opacity:1;stroke:#333;stroke-width:1.82969;stroke-dasharray:none;stroke-opacity:1"><path d="M-3696.888-34.653h75.535v3.544h-75.535z" style="fill:#595959;fill-opacity:1;stroke:#333;stroke-width:1.83068;stroke-linecap:round;stroke-linejoin:miter;stroke-dasharray:none;stroke-opacity:1;stop-color:#000" transform="scale(1.06751 -1.11806)rotate(45 -1493.52 4395.481)"/><path d="M81.512 3658.086h73.768v3.461H81.512z" style="fill:#595959;fill-opacity:1;stroke:#333;stroke-width:1.82969;stroke-linecap:round;stroke-linejoin:miter;stroke-dasharray:none;stroke-opacity:1;stop-color:#000" transform="rotate(45 4588.284 2131.294)scale(1.09308)"/></g><path d="M-2405.056-2338.148h59.294v3.756h-59.294z" style="fill:#595959;fill-opacity:1;stroke:#333;stroke-width:1.9856;stroke-linecap:round;stroke-linejoin:miter;stroke-dasharray:none;stroke-opacity:1;stop-color:#000" transform="matrix(0 -1.00725 -1.00725 0 -2211.607 -2092.52)"/><path d="M-2405.056 2278.926h59.294v3.756h-59.294z" style="fill:#595959;fill-opacity:1;stroke:#333;stroke-width:1.9856;stroke-linecap:round;stroke-linejoin:miter;stroke-dasharray:none;stroke-opacity:1;stop-color:#000" transform="rotate(-90 -2152.064 59.543)scale(1.00725)"/><path d="M2278.888 2345.797h59.294v3.756h-59.294z" style="fill:#595959;fill-opacity:1;stroke:#333;stroke-width:1.9856;stroke-linecap:round;stroke-linejoin:miter;stroke-dasharray:none;stroke-opacity:1;stop-color:#000" transform="translate(-2211.607 -2092.52)scale(1.00725)"/><path d="M-2405.056 2223.472h59.294v3.756h-59.294z" style="fill:#595959;fill-opacity:1;stroke:#333;stroke-width:1.9856;stroke-linecap:round;stroke-linejoin:miter;stroke-dasharray:none;stroke-opacity:1;stop-color:#000" transform="rotate(-90 -2152.064 59.543)scale(1.00725)"/><path d="M2223.434 2345.797h59.294v3.756h-59.294z" style="fill:#595959;fill-opacity:1;stroke:#333;stroke-width:1.9856;stroke-linecap:round;stroke-linejoin:miter;stroke-dasharray:none;stroke-opacity:1;stop-color:#000" transform="translate(-2211.607 -2092.52)scale(1.00725)"/><path d="M2197.916 2080.363h285.296v30.916h-285.296z" style="fill:#734545;fill-opacity:1;stroke:#321e1e;stroke-width:2.482;stroke-linecap:round;stroke-linejoin:miter;stroke-dasharray:none;stroke-opacity:1;stop-color:#000" transform="translate(-2211.607 -2092.52)scale(1.00725)"/><path d="M2201.669 2107.367h272.401v440.754h-272.401z" style="fill:#000;fill-opacity:.1;stroke:none;stroke-width:1.9856;stroke-linecap:round;stroke-linejoin:miter;stroke-dasharray:none;stroke-opacity:1;stop-color:#000" transform="translate(-2211.607 -2092.52)scale(1.00725)"/><path d="M2197.916 2109.527h285.296v30.916h-285.296z" style="fill:#693f3f;fill-opacity:1;stroke:#321e1e;stroke-width:2.482;stroke-linecap:round;stroke-linejoin:miter;stroke-dasharray:none;stroke-opacity:1;stop-color:#000" transform="translate(-2211.607 -2092.52)scale(1.00725)"/><path d="M2197.917 2138.697v30.916h48.582v-29.399h29.234l1.852-.798h27.106v30.197h178.522v-30.916z" style="fill:#734545;fill-opacity:1;stroke:#321e1e;stroke-width:2.482;stroke-linecap:round;stroke-linejoin:miter;stroke-dasharray:none;stroke-opacity:1;stop-color:#000" transform="translate(-2211.607 -2092.52)scale(1.00725)"/><path d="M2197.917 2167.86v30.917h48.551l.032-4.588v-26.329zm106.774 0v3.26h-28.557v27.657h207.079v-30.917z" style="fill:#693f3f;fill-opacity:1;stroke:#321e1e;stroke-width:2.482;stroke-linecap:round;stroke-linejoin:miter;stroke-dasharray:none;stroke-opacity:1;stop-color:#000" transform="translate(-2211.607 -2092.52)scale(1.00725)"/><path d="M2197.917 2197.078v30.917h48.354l.209-30.917zm78.217 0v30.917h101.193v-.259h28.998v-28.556h31.705v27.106l26.367 1.709h18.816v-30.917z" style="fill:#734545;fill-opacity:1;stroke:#321e1e;stroke-width:2.482;stroke-linecap:round;stroke-linejoin:miter;stroke-dasharray:none;stroke-opacity:1;stop-color:#000" transform="translate(-2211.607 -2092.52)scale(1.00725)"/><path d="M2197.917 2226.242v30.916h179.41v-29.422h28.998v-1.494zm240.113 0v.044l28.575 1.852v29.02h16.608v-30.916z" style="fill:#693f3f;fill-opacity:1;stroke:#321e1e;stroke-width:2.482;stroke-linecap:round;stroke-linejoin:miter;stroke-dasharray:none;stroke-opacity:1;stop-color:#000" transform="translate(-2211.607 -2092.52)scale(1.00725)"/><path d="M2197.916 2255.412h285.296v30.916h-285.296z" style="fill:#734545;fill-opacity:1;stroke:#321e1e;stroke-width:2.482;stroke-linecap:round;stroke-linejoin:miter;stroke-dasharray:none;stroke-opacity:1;stop-color:#000" transform="translate(-2211.607 -2092.52)scale(1.00725)"/><path d="M-2483.212 2284.576h285.296v30.916h-285.296z" style="fill:#693f3f;fill-opacity:1;stroke:#321e1e;stroke-width:2.482;stroke-linecap:round;stroke-linejoin:miter;stroke-dasharray:none;stroke-opacity:1;stop-color:#000" transform="matrix(-1.00725 0 0 1.00725 -2211.607 -2092.52)"/><path d="M2197.916 2313.728h285.296v30.916h-285.296z" style="fill:#734545;fill-opacity:1;stroke:#321e1e;stroke-width:2.482;stroke-linecap:round;stroke-linejoin:miter;stroke-dasharray:none;stroke-opacity:1;stop-color:#000" transform="translate(-2211.607 -2092.52)scale(1.00725)"/><path d="M2197.916 2342.891h285.296v30.916h-285.296z" style="fill:#693f3f;fill-opacity:1;stroke:#321e1e;stroke-width:2.482;stroke-linecap:round;stroke-linejoin:miter;stroke-dasharray:none;stroke-opacity:1;stop-color:#000" transform="translate(-2211.607 -2092.52)scale(1.00725)"/><path d="M2197.917 2372.061v30.916h65.165v-29.383h31.704v29.383h188.427v-30.916z" style="fill:#734545;fill-opacity:1;stroke:#321e1e;stroke-width:2.482;stroke-linecap:round;stroke-linejoin:miter;stroke-dasharray:none;stroke-opacity:1;stop-color:#000" transform="translate(-2211.607 -2092.52)scale(1.00725)"/><path d="M2197.917 2401.225v30.916h36.166v-28.8h28.999v-2.116zm96.87 0v30.916h188.426v-30.916z" style="fill:#693f3f;fill-opacity:1;stroke:#321e1e;stroke-width:2.482;stroke-linecap:round;stroke-linejoin:miter;stroke-dasharray:none;stroke-opacity:1;stop-color:#000" transform="translate(-2211.607 -2092.52)scale(1.00725)"/><path d="M2197.917 2430.443v30.916h36.166v-30.916zm96.87 0v30.843h-25.4l-10.675.073h224.5v-30.916z" style="fill:#734545;fill-opacity:1;stroke:#321e1e;stroke-width:2.482;stroke-linecap:round;stroke-linejoin:miter;stroke-dasharray:none;stroke-opacity:1;stop-color:#000" transform="translate(-2211.607 -2092.52)scale(1.00725)"/><path d="M2197.917 2459.607v30.915h194.377l-.205-30.162h29.874v28.999h28.557v1.163h32.693v-30.916z" style="fill:#693f3f;fill-opacity:1;stroke:#321e1e;stroke-width:2.482;stroke-linecap:round;stroke-linejoin:miter;stroke-dasharray:none;stroke-opacity:1;stop-color:#000" transform="translate(-2211.607 -2092.52)scale(1.00725)"/><path d="M2197.917 2488.777v30.916h194.411v-24.03l-.047-6.886zm224.046 0v.582h28.557v30.334h32.693v-30.916z" style="fill:#734545;fill-opacity:1;stroke:#321e1e;stroke-width:2.482;stroke-linecap:round;stroke-linejoin:miter;stroke-dasharray:none;stroke-opacity:1;stop-color:#000" transform="translate(-2211.607 -2092.52)scale(1.00725)"/><path d="M2197.916 2517.94h285.296v30.916h-285.296z" style="fill:#693f3f;fill-opacity:1;stroke:#321e1e;stroke-width:2.482;stroke-linecap:round;stroke-linejoin:miter;stroke-dasharray:none;stroke-opacity:1;stop-color:#000" transform="translate(-2211.607 -2092.52)scale(1.00725)"/><g style="stroke-width:.992802"><path d="M2196.725 2109.246h287.678v4.3h-287.678zM2196.725 2138.416h287.678v4.3h-287.678zM2196.725 2167.58h287.678v4.3h-287.678zM2196.725 2196.798h287.678v4.3h-287.678zM2196.725 2225.961h287.678v4.3h-287.678zM2196.725 2255.131h287.678v4.3h-287.678zM2196.725 2284.295h287.678v4.3h-287.678zM2196.725 2313.447h287.678v4.3h-287.678zM2196.725 2342.61h287.678v4.3h-287.678zM2196.725 2371.78h287.678v4.3h-287.678zM2196.725 2400.944h287.678v4.3h-287.678zM2196.725 2430.162h287.678v4.3h-287.678zM2196.725 2459.325h287.678v4.3h-287.678zM2196.725 2488.496h287.678v4.3h-287.678zM2196.725 2517.659h287.678v4.3h-287.678z" style="fill:#7f4d4d;fill-opacity:1;stroke:#3d2424;stroke-width:1.98561;stroke-linecap:round;stroke-linejoin:miter;stroke-dasharray:none;stroke-opacity:1;stop-color:#000" transform="translate(-2211.607 -2092.52)scale(1.00725)"/></g></g><path d="M1905.198 2079.096h-140.952v29.253h-1.076v6.174h1.076v22.946h-1.03v6.218h.96v22.928h-.97v6.244h.935v22.936h-.953v6.309h.953v22.86h-.936v6.302h.936v22.872h-.947v6.279h.982v22.953h-.982v6.221h.982v22.918h-.982v6.244h1.005v22.847h-.987v6.304h.943v22.882h-.943v6.293h.947v22.874h-.95v6.292h.933v22.914h-.96v6.326h.97v22.858h-.952v6.292h.942v22.853h-.942v6.31h.95v22.869h-.945v6.294h.947v27.143h143.31v-470.052z" style="opacity:.07;fill:#000;fill-opacity:1;stroke:none;stroke-width:1.9856;stroke-linecap:round;stroke-opacity:1;stop-color:#000" transform="translate(-1775.954 -2092.52)scale(1.00725)"/><path d="M2078.452-1910.087h471.732v4.3h-471.732z" style="fill:#7f4d4d;fill-opacity:1;stroke:#3d2424;stroke-width:1.98561;stroke-linecap:round;stroke-linejoin:miter;stroke-dasharray:none;stroke-opacity:1;stop-color:#000" transform="rotate(90 158.284 -1934.237)scale(1.00725)"/></g></svg>