<svg xmlns="http://www.w3.org/2000/svg" width="80.011mm" height="247.304mm" viewBox="0 0 80.011 247.304"><g style="stroke-width:1.02723"><path fill="#7caee4" fill-opacity=".367" fill-rule="evenodd" d="M-3665.476 825.223h-61.697v180.254h61.697z" style="stroke-width:.694588" transform="matrix(.9685 0 0 -.9785 3618.919 1018.432)"/><path fill="#efefef" fill-opacity=".633" fill-rule="evenodd" d="m-3720.825 978.056 25.62 31.468h8.673l-34.293-42.12zm8.878-6.306 25.619 31.468h8.673l-34.293-42.121zm34.277-110.823-32.176-37.958h-8.674l40.85 48.611zm8.877-6.307-25.62-31.467h-8.673l34.293 42.12z" style="fill:#efefef;fill-opacity:.5;stroke-width:.660685" transform="matrix(.9685 0 0 -.9785 3618.919 1018.432)"/><path d="M-3727.492 866.5c-1.937 0-3.201 1.678-3.201 3.291v2.898c0 1.614 1.264 3.293 3.2 3.293h58.122c.946 0 1.818-.446 2.38-1.09v-.003c.56-.642.817-1.41.817-2.2v-2.898c0-1.613-1.264-3.291-3.201-3.291z" style="fill:#1d1d1d;fill-rule:evenodd;stroke-linejoin:round;paint-order:stroke fill markers" transform="matrix(.9685 0 0 -.9785 3618.919 1018.432)"/><path d="M-3669.37 869.067c.35 0 .633.325.633.725v2.897a.78.78 0 0 1-.185.513.6.6 0 0 1-.448.212h-58.123c-.35 0-.633-.325-.633-.725v-2.897c0-.4.284-.725.633-.725z" style="fill:#4d4d4d;fill-rule:evenodd;stroke-linejoin:round;paint-order:stroke fill markers" transform="matrix(.9685 0 0 -.9785 3618.919 1018.432)"/><path d="M-3727.492 909.805c-1.937 0-3.201 1.68-3.201 3.293v2.896c0 1.613 1.264 3.293 3.2 3.293h58.122c.946 0 1.818-.447 2.38-1.09v-.004c.56-.64.817-1.41.817-2.199v-2.896c0-1.614-1.264-3.293-3.201-3.293z" style="fill:#1d1d1d;fill-rule:evenodd;stroke-linejoin:round;paint-order:stroke fill markers" transform="matrix(.9685 0 0 -.9785 3618.919 1018.432)"/><path d="M-3669.37 912.373c.35 0 .633.324.633.724v2.898a.78.78 0 0 1-.185.512.6.6 0 0 1-.448.212h-58.123c-.35 0-.633-.324-.633-.724v-2.898c0-.4.284-.724.633-.724z" style="fill:#4d4d4d;fill-rule:evenodd;stroke-linejoin:round;paint-order:stroke fill markers" transform="matrix(.9685 0 0 -.9785 3618.919 1018.432)"/><path d="M-3727.492 950.729c-1.937 0-3.201 1.68-3.201 3.292v2.899c0 1.613 1.264 3.293 3.2 3.293h58.122c.946 0 1.818-.447 2.38-1.09v-.004a3.3 3.3 0 0 0 .817-2.2v-2.898c0-1.613-1.264-3.293-3.201-3.293z" style="fill:#1d1d1d;fill-rule:evenodd;stroke-linejoin:round;paint-order:stroke fill markers" transform="matrix(.9685 0 0 -.9785 3618.919 1018.432)"/><path d="M-3669.37 953.298c.35 0 .633.324.633.724v2.898a.78.78 0 0 1-.185.512.6.6 0 0 1-.448.212h-58.123c-.35 0-.633-.324-.633-.724v-2.898c0-.4.284-.724.633-.724z" style="fill:#4d4d4d;fill-rule:evenodd;stroke-linejoin:round;paint-order:stroke fill markers" transform="matrix(.9685 0 0 -.9785 3618.919 1018.432)"/><path d="m-3660.104 803.456-2.842 221.15h-69.911v-221.15h60.046zm-18.301 20.114h-34.943v179.597h34.943z" style="fill:#737373;fill-opacity:1;stroke:#333;stroke-width:3.0817;stroke-linecap:round;stroke-linejoin:round;stroke-dasharray:none;stroke-opacity:1;stop-color:#000" transform="matrix(.9685 0 0 -.9785 3618.919 1018.432)"/><path d="M-3735.12 789.598v249.672h79.55V789.598Zm12.562 16.06h53.47v216.289h-53.47z" style="fill:#4d4d4d;fill-opacity:1;stroke:#1d1d1d;stroke-width:3.06383;stroke-linecap:square;stroke-linejoin:round;stroke-dasharray:none;stroke-opacity:1;stop-color:#000" transform="matrix(.9685 0 0 -.9785 3618.919 1018.432)"/></g></svg>