<svg xmlns="http://www.w3.org/2000/svg" width="134" height="136" fill="none"><g filter="url(#a)"><path fill="#fff" d="M67.223 18.428c-.337 0-.672-.005-1.008 0-10.753.163-21.449 3.303-29.553 9.352-8.105 6.05-13.586 15.076-13.737 26.745l-.005.382 28.012 31.281 4.988-4.005L28.58 53.845c2.344-2.649 6.46-4.247 10.769-4.26 4.603-.016 9.06 1.65 11.148 4.726l8.51 27.077 5.71.06-8.639-27.494c2.116-2.397 6.57-4.143 11.103-4.254 4.587-.113 8.87 1.391 10.81 4.591L69.665 81.29l5.263.04 8.514-27.345c2.646-3.687 8.008-4.767 12.853-4.155 2.437.308 4.706 1.037 6.295 1.956 1.464.846 2.076 1.778 2.205 2.561L78.814 81.85l.733.685 2.948 2.745 28.586-30.2-.021-.426c-.669-12.38-6.529-21.604-14.894-27.594-8.103-5.802-18.524-8.609-28.943-8.632m-8.555 66.495c-1.596.076-2.543 1.29-3.052 2.372-.526 1.117-.768 2.412-.768 3.832v9.253c0 1.42.242 2.711.768 3.827s1.52 2.377 3.212 2.377h16.33c1.692 0 2.692-1.261 3.217-2.377.526-1.116.769-2.407.769-3.827v-9.253c0-1.42-.243-2.715-.769-3.832-.525-1.116-1.525-2.372-3.217-2.372z"/></g><g filter="url(#b)"><path stroke="#fff" stroke-linecap="round" stroke-linejoin="round" stroke-width="7.81" d="M67 121.094c32.36 0 58.594-26.234 58.594-58.594S99.36 3.906 67 3.906 8.406 30.14 8.406 62.5 34.64 121.094 67 121.094"/></g><defs><filter id="a" width="96.16" height="99.158" x="18.92" y="18.426" color-interpolation-filters="sRGB" filterUnits="userSpaceOnUse"><feFlood flood-opacity="0" result="BackgroundImageFix"/><feColorMatrix in="SourceAlpha" result="hardAlpha" values="0 0 0 0 0 0 0 0 0 0 0 0 0 0 0 0 0 0 127 0"/><feOffset dy="7"/><feGaussianBlur stdDeviation="2"/><feColorMatrix values="0 0 0 0 0 0 0 0 0 0 0 0 0 0 0 0 0 0 0.35 0"/><feBlend in2="BackgroundImageFix" result="effect1_dropShadow_2273_112"/><feBlend in="SourceGraphic" in2="effect1_dropShadow_2273_112" result="shape"/></filter><filter id="b" width="132.998" height="135.996" x=".501" y=".002" color-interpolation-filters="sRGB" filterUnits="userSpaceOnUse"><feFlood flood-opacity="0" result="BackgroundImageFix"/><feColorMatrix in="SourceAlpha" result="hardAlpha" values="0 0 0 0 0 0 0 0 0 0 0 0 0 0 0 0 0 0 127 0"/><feOffset dy="7"/><feGaussianBlur stdDeviation="2"/><feColorMatrix values="0 0 0 0 0 0 0 0 0 0 0 0 0 0 0 0 0 0 0.35 0"/><feBlend in2="BackgroundImageFix" result="effect1_dropShadow_2273_112"/><feBlend in="SourceGraphic" in2="effect1_dropShadow_2273_112" result="shape"/></filter></defs></svg>