<?xml version="1.0" encoding="UTF-8" standalone="no"?>
<svg
   width="134"
   height="136"
   fill="none"
   version="1.1"
   id="svg6"
   sodipodi:docname="bunker_unlock_ping.svg"
   inkscape:version="1.4 (86a8ad7, 2024-10-11)"
   inkscape:export-filename="bunker_unlock_ping.svg"
   inkscape:export-xdpi="96"
   inkscape:export-ydpi="96"
   xmlns:inkscape="http://www.inkscape.org/namespaces/inkscape"
   xmlns:sodipodi="http://sodipodi.sourceforge.net/DTD/sodipodi-0.dtd"
   xmlns="http://www.w3.org/2000/svg"
   xmlns:svg="http://www.w3.org/2000/svg">
  <sodipodi:namedview
     id="namedview6"
     pagecolor="#ffffff"
     bordercolor="#000000"
     borderopacity="0.25"
     inkscape:showpageshadow="2"
     inkscape:pageopacity="0.0"
     inkscape:pagecheckerboard="0"
     inkscape:deskcolor="#d1d1d1"
     inkscape:zoom="0.37086397"
     inkscape:cx="-129.42751"
     inkscape:cy="-68.758364"
     inkscape:window-width="1920"
     inkscape:window-height="1009"
     inkscape:window-x="-8"
     inkscape:window-y="-8"
     inkscape:window-maximized="1"
     inkscape:current-layer="svg6">
    <inkscape:page
       x="0"
       y="0"
       width="134"
       height="136"
       id="page2"
       margin="0"
       bleed="0" />
  </sodipodi:namedview>
  <g
     filter="url(#b)"
     id="g2"
     style="stroke:#ffffff;stroke-opacity:1">
    <path
       stroke="#fff"
       stroke-linecap="round"
       stroke-linejoin="round"
       stroke-width="7.81"
       d="m 67,121.094 c 32.36,0 58.594,-26.234 58.594,-58.594 C 125.594,30.14 99.36,3.906 67,3.906 34.64,3.906 8.406,30.14 8.406,62.5 8.406,94.86 34.64,121.094 67,121.094"
       id="path2"
       style="stroke:#ffffff;stroke-opacity:1" />
  </g>
  <defs
     id="defs6">
    <filter
       id="b"
       width="132.998"
       height="135.996"
       x="0.50099999"
       y="0.0020000001"
       color-interpolation-filters="sRGB"
       filterUnits="userSpaceOnUse">
      <feFlood
         flood-opacity="0"
         result="BackgroundImageFix"
         id="feFlood4" />
      <feColorMatrix
         in="SourceAlpha"
         result="hardAlpha"
         values="0 0 0 0 0 0 0 0 0 0 0 0 0 0 0 0 0 0 127 0"
         id="feColorMatrix4" />
      <feOffset
         dy="7"
         id="feOffset4" />
      <feGaussianBlur
         stdDeviation="2"
         id="feGaussianBlur4" />
      <feColorMatrix
         values="0 0 0 0 0 0 0 0 0 0 0 0 0 0 0 0 0 0 0.35 0"
         id="feColorMatrix5" />
      <feBlend
         in2="BackgroundImageFix"
         result="effect1_dropShadow_2273_112"
         id="feBlend5"
         mode="normal" />
      <feBlend
         in="SourceGraphic"
         in2="effect1_dropShadow_2273_112"
         result="shape"
         id="feBlend6"
         mode="normal" />
    </filter>
    <filter
       style="color-interpolation-filters:sRGB"
       inkscape:label="Drop Shadow"
       id="filter120"
       x="-0.085904032"
       y="-0.1303951"
       width="1.1837392"
       height="1.3694528">
      <feFlood
         result="flood"
         in="SourceGraphic"
         flood-opacity="0.501961"
         flood-color="rgb(51,51,51)"
         id="feFlood119" />
      <feGaussianBlur
         result="blur"
         in="SourceGraphic"
         stdDeviation="3.000000"
         id="feGaussianBlur119" />
      <feOffset
         result="offset"
         in="blur"
         dx="1.000000"
         dy="6.000000"
         id="feOffset119" />
      <feComposite
         result="comp1"
         operator="in"
         in="flood"
         in2="offset"
         id="feComposite119" />
      <feComposite
         result="comp2"
         operator="over"
         in="SourceGraphic"
         in2="comp1"
         id="feComposite120" />
    </filter>
  </defs>
  <path
     id="rect91"
     style="fill:#ffffff;fill-opacity:1;fill-rule:evenodd;stroke-width:5.09013;stroke-linecap:round;stroke-linejoin:round;stroke-miterlimit:29;filter:url(#filter120)"
     d="m 32.735349,37.391601 a 8.1431012,8.1431012 0 0 0 -8.142578,8.142578 v 38.216797 a 8.8582751,8.8582751 0 0 0 8.857422,8.857422 H 84.995115 V 37.391601 Z m 57.214844,0 v 55.216797 h 10.076177 a 8.3814318,8.3814318 0 0 0 8.38086,-8.38086 v -38.93164 a 7.9049514,7.9049514 0 0 0 -7.9043,-7.904297 z M 29.47949,42.268554 H 80.334959 V 87.731445 H 73.721678 A 18.779282,18.779282 0 0 0 59.118162,69.825195 12.839788,12.839788 0 0 0 67.797849,57.708007 12.839788,12.839788 0 0 0 54.958006,44.868163 12.839788,12.839788 0 0 0 42.118162,57.708007 12.839788,12.839788 0 0 0 50.801756,69.827148 18.779282,18.779282 0 0 0 36.208006,87.731445 H 29.47949 Z m 64.367188,3.001953 H 104.20801 V 59.258788 H 93.846678 Z m -38.88086,3.734375 c 2.807174,1.811329 6.135811,1.967991 9.429688,2.152344 -0.111889,1.282944 -0.246793,2.456997 -0.404297,3.539062 l -11.103516,0.0039 -0.0039,-4.646485 c 0.718248,-0.269001 1.415745,-0.608276 2.082031,-1.048828 z m -3.716797,1.535156 0.0039,4.164063 h -5.310547 c -0.158663,-1.081569 -0.295015,-2.253814 -0.408203,-3.535156 1.930525,-0.110209 3.871594,-0.202308 5.714843,-0.628907 z m 12.515625,5.560547 c -1.703513,9.625584 -5.323729,10.826499 -8.787109,12.828125 -0.776577,-0.437883 -1.56268,-0.83905 -2.332031,-1.306641 h 0.25 l -0.0078,-11.513671 z m -12.511718,0.0078 0.0078,10.558593 C 49.143974,64.99343 47.265168,62.26977 46.168931,56.112291 Z m 42.59375,4.859375 h 2.609375 v 23.761718 h -2.609375 z m 3.876953,0 h 2.609379 v 23.761718 h -2.609379 z m 3.874999,0 h 2.60938 v 23.761718 h -2.60938 z" />
</svg>
