<?xml version="1.0" encoding="UTF-8" standalone="no"?>
<!-- Created with Inkscape (http://www.inkscape.org/) -->

<svg
   width="79.785454"
   height="77.125641"
   viewBox="0 0 21.109902 20.40616"
   version="1.1"
   id="svg1"
   xml:space="preserve"
   xmlns:xlink="http://www.w3.org/1999/xlink"
   xmlns="http://www.w3.org/2000/svg"
   xmlns:svg="http://www.w3.org/2000/svg"><defs
     id="defs1"><linearGradient
       xlink:href="#linearGradient163"
       id="linearGradient164"
       x1="161.71704"
       y1="183.6701"
       x2="147.78252"
       y2="173.81436"
       gradientUnits="userSpaceOnUse"
       gradientTransform="translate(48.471527,-18.405497)" /><linearGradient
       id="linearGradient163"><stop
         style="stop-color:#794600;stop-opacity:1;"
         offset="0"
         id="stop1" /><stop
         style="stop-color:#1d1100;stop-opacity:1;"
         offset="0.52642274"
         id="stop2" /><stop
         style="stop-color:#794600;stop-opacity:1;"
         offset="1"
         id="stop164" /></linearGradient><linearGradient
       xlink:href="#linearGradient165"
       id="linearGradient166"
       x1="152.41628"
       y1="189.69766"
       x2="156.46716"
       y2="193.39267"
       gradientUnits="userSpaceOnUse"
       gradientTransform="translate(48.471527,-18.405497)" /><linearGradient
       id="linearGradient165"><stop
         style="stop-color:#b4b970;stop-opacity:1;"
         offset="0"
         id="stop165" /><stop
         style="stop-color:#616532;stop-opacity:1;"
         offset="1"
         id="stop166" /></linearGradient><linearGradient
       xlink:href="#linearGradient165"
       id="linearGradient170"
       x1="151.465"
       y1="195.63922"
       x2="157.72244"
       y2="198.07137"
       gradientUnits="userSpaceOnUse"
       gradientTransform="translate(48.471527,-18.405497)" /><linearGradient
       xlink:href="#linearGradient165"
       id="linearGradient168"
       x1="151.76903"
       y1="187.41695"
       x2="157.46533"
       y2="190.05957"
       gradientUnits="userSpaceOnUse"
       gradientTransform="translate(48.471527,-18.405497)" /></defs><g
     id="layer1"
     transform="translate(-206.36701,-169.90036)"><g
       id="g2"
       transform="matrix(0.21862017,0.70122958,-0.70297756,0.21695195,335.45473,32.654565)"
       style="stroke-width:1.29311;stroke-dasharray:none"><path
         id="rect162-2"
         style="fill:url(#linearGradient164);stroke:#262626;stroke-width:1.1;stroke-linecap:round;stroke-linejoin:miter;paint-order:fill markers stroke"
         d="m 204.39669,154.47078 c -2.24846,-0.0682 -7.06022,1.93855 -7.06022,1.93855 5.34693,-6.9383 13.2669,-3.74135 13.62968,1.48097 0.19336,2.7834 -1.1869,4.66131 -3.02623,6.36632 -1.83932,1.70501 -3.53793,3.27517 -3.53793,3.27517 v 2.36551 h -2.463 v -2.78646 c 0,0 6.9321,-5.43299 7.00379,-8.45419 0.0717,-3.0212 -2.29759,-4.1177 -4.54605,-4.18587 z"
         transform="matrix(1.0180586,-0.5877764,0.5877764,1.0180586,-160.55894,164.72299)" /><path
         id="rect161-9"
         style="fill:url(#linearGradient166);stroke:#313319;stroke-width:1.1;stroke-linecap:round;stroke-linejoin:round;stroke-dasharray:none;paint-order:fill markers stroke"
         d="m 200.61928,169.98366 h 4.93874 c 0,0 -1.04314,2.78853 -1.05831,4.33646 -0.0152,1.54792 1.05831,4.73509 1.05831,4.73509 v 0 h -4.93874 c 0,0 1.0671,-3.1036 1.0583,-4.65152 -0.009,-1.54793 -1.0583,-4.42003 -1.0583,-4.42003 z"
         transform="matrix(1.0180586,-0.5877764,0.5877764,1.0180586,-160.55894,164.72299)" /><rect
         style="fill:url(#linearGradient170);fill-opacity:1;stroke:#313319;stroke-width:1.1;stroke-linecap:round;stroke-linejoin:round;stroke-dasharray:none;stroke-opacity:1;paint-order:fill markers stroke"
         id="rect163-2"
         width="5.0171289"
         height="1.7457931"
         x="200.58008"
         y="177.78737"
         rx="0.42958337"
         ry="0.61723393"
         transform="matrix(1.0180586,-0.5877764,0.5877764,1.0180586,-160.55894,164.72299)" /><rect
         style="fill:url(#linearGradient168);fill-opacity:1;stroke:#313319;stroke-width:1.1;stroke-linecap:round;stroke-linejoin:round;stroke-dasharray:none;stroke-opacity:1;paint-order:fill markers stroke"
         id="rect163-5-5"
         width="5.0172563"
         height="1.7457824"
         x="200.58008"
         y="169.37801"
         rx="0.42959425"
         ry="0.61723018"
         transform="matrix(1.0180586,-0.5877764,0.5877764,1.0180586,-160.55894,164.72299)" /></g></g></svg>
