<svg xmlns="http://www.w3.org/2000/svg" xml:space="preserve" width="59.092" height="40.519" viewBox="0 0 15.635 10.721"><g transform="translate(-16.404 -105.304)"><path d="m28.344 116.375 5.384.388a16 16 0 0 0 2.34 0l5.298-.382a.763.763 0 0 1 .816.808l-.144 2.347a18 18 0 0 0 0 2.202l.144 2.343a.766.766 0 0 1-.82.81l-5.257-.378a17 17 0 0 0-2.414 0l-5.35.386a.684.684 0 0 1-.733-.724l.139-2.257a21 21 0 0 0 0-2.563l-.138-2.252a.687.687 0 0 1 .735-.728" style="fill:#776c55;fill-opacity:1;fill-rule:evenodd;stroke:#2e291f;stroke-width:1.05833;stroke-linecap:round;stroke-linejoin:round;stroke-opacity:1;paint-order:fill markers stroke" transform="translate(-10.674 -9.967)"/><path d="M30.497 118.014h8.804v6.141h-8.804z" style="fill:#707276;fill-rule:evenodd;stroke:#252627;stroke-width:1.05833;stroke-linecap:round;stroke-linejoin:round;paint-order:fill markers stroke" transform="translate(-10.674 -9.967)"/><path d="M31.728 122.448h2.186v1.642h-2.186z" style="fill:#92393e;fill-rule:evenodd;stroke-width:.529167;stroke-linejoin:round;paint-order:fill markers stroke" transform="translate(-10.674 -9.967)"/><path d="M35.816 122.46h2.186v1.642h-2.186z" style="fill:#397592;fill-rule:evenodd;stroke-width:.529167;stroke-linejoin:round;paint-order:fill markers stroke" transform="translate(-10.674 -9.967)"/><path d="M33.724 122.508h2.186v1.643h-2.186Z" style="fill:#619239;fill-rule:evenodd;stroke-width:.529167;stroke-linejoin:round;paint-order:fill markers stroke" transform="translate(-10.674 -9.967)"/><path d="M30.497 118.014h8.804v6.141h-8.804z" style="fill:none;fill-rule:evenodd;stroke:#252627;stroke-width:1.05833;stroke-linecap:round;stroke-linejoin:round;paint-order:fill markers stroke" transform="translate(-10.674 -9.967)"/><path d="M30.082 122.547h9.258" style="fill:#252527;fill-opacity:1;fill-rule:evenodd;stroke:#252527;stroke-width:.529167;stroke-linecap:butt;stroke-linejoin:round;stroke-dasharray:none;stroke-opacity:1;paint-order:fill markers stroke" transform="translate(-10.674 -9.967)"/><path d="M30.044 115.8h1.5v9.663h-1.5zM38.256 115.8h1.5v9.663h-1.5z" style="fill:#4b4c4f;fill-opacity:1;fill-rule:evenodd;stroke:#252527;stroke-width:1.05833;stroke-linecap:round;stroke-linejoin:round;stroke-opacity:1;paint-order:fill markers stroke" transform="translate(-10.674 -9.967)"/><path d="M30.044 116.248h9.712v3.023h-9.712z" style="fill:#4b4c4f;fill-opacity:1;fill-rule:evenodd;stroke:#252527;stroke-width:1.05833;stroke-linecap:round;stroke-linejoin:round;stroke-opacity:1;paint-order:fill markers stroke" transform="translate(-10.674 -9.967)"/><g style="fill:none;fill-opacity:1;stroke:#252527;stroke-width:.529167;stroke-dasharray:none;stroke-opacity:1"><path d="M17.915 101.17a.454.454 0 0 1-.454.453.454.454 0 0 1-.454-.453.454.454 0 0 1 .454-.454.454.454 0 0 1 .454.454" style="fill-rule:evenodd;stroke-linecap:round;stroke-linejoin:round;paint-order:fill markers stroke" transform="translate(2.66 11.205)"/></g><g style="fill:none;fill-opacity:1;stroke:#252527;stroke-width:.529167;stroke-dasharray:none;stroke-opacity:1"><path d="M17.915 101.17a.454.454 0 0 1-.454.453.454.454 0 0 1-.454-.453.454.454 0 0 1 .454-.454.454.454 0 0 1 .454.454" style="fill-rule:evenodd;stroke-linecap:round;stroke-linejoin:round;paint-order:fill markers stroke" transform="translate(10.872 11.205)"/></g><path d="M19.195 98.95h.778v.779h-.778zM19.195 100.158h.778v.778h-.778zM20.553 98.95h.778v.779h-.778zM20.553 100.158h.778v.778h-.778zM21.91 98.95h.778v.779h-.778zM21.91 100.158h.778v.778h-.778zM23.268 98.95h.778v.779h-.778zM23.268 100.158h.778v.778h-.778z" style="fill:#3e3f41;fill-rule:evenodd;stroke-width:.529167;stroke-linecap:round;stroke-linejoin:round;paint-order:fill markers stroke" transform="translate(2.605 11.16)"/><path d="M20.602 102.934v-1.666M22.829 102.954v-1.667" style="fill:#252527;fill-opacity:1;fill-rule:evenodd;stroke:#252527;stroke-width:.529167;stroke-linecap:butt;stroke-linejoin:round;stroke-dasharray:none;stroke-opacity:1;paint-order:fill markers stroke" transform="translate(2.506 11.205)"/><rect width="1.957" height="1.189" x="26.207" y="107.188" rx=".595" ry=".595" style="fill:#868484;fill-opacity:1;fill-rule:evenodd;stroke:#272727;stroke-width:.529167;stroke-linecap:round;stroke-linejoin:round;stroke-dasharray:none;stroke-opacity:1"/></g></svg>