<svg width="24.71" height="61.749" fill="none" xmlns="http://www.w3.org/2000/svg">
    <path style="fill:#e2d9b5;fill-opacity:1;stroke:#1c121c;stroke-width:4;stroke-linecap:round;stroke-linejoin:round;stroke-dasharray:none;stroke-opacity:1" d="M75.162 27.556h13.652v43.802H75.162z" transform="translate(-69.633 -18.583)"/>
    <path style="fill:#f0ecdb;fill-opacity:1;stroke:none;stroke-width:2;stroke-linecap:round;stroke-linejoin:round" d="M79.032 28.315h5.91V69.91h-5.91z" transform="translate(-69.633 -18.583)"/>
    <path style="fill:#663656;fill-opacity:1;stroke:#1c121c;stroke-width:4;stroke-linecap:round;stroke-linejoin:round;stroke-dasharray:none;stroke-opacity:1" d="M34.207 26.822h16.291v11.695h-16.29z" transform="translate(-29.998 -10.693)"/>
    <path style="fill:#854770;fill-opacity:1;stroke:none;stroke-width:2;stroke-linecap:round;stroke-linejoin:round;stroke-dasharray:none;stroke-opacity:1" d="M39.726 27.603h5.252v10.133h-5.252z" transform="translate(-29.998 -10.693)"/>
    <path style="fill:none;fill-opacity:1;stroke:#1c121c;stroke-width:4;stroke-linecap:round;stroke-linejoin:round;stroke-dasharray:none;stroke-opacity:1" d="M34.207 26.822h16.291v11.695h-16.29z" transform="translate(-29.998 -10.693)"/>
    <g transform="translate(-35.332 -34.291)">
        <circle style="fill:#95507e;fill-opacity:1;stroke:#1c121c;stroke-width:2;stroke-linecap:round;stroke-linejoin:round;stroke-dasharray:none;stroke-opacity:1" cx="47.687" cy="56.268" r="2.123"/>
        <ellipse style="fill:#733e62;fill-opacity:1;stroke:#1c121c;stroke-width:1.99999;stroke-linecap:round;stroke-linejoin:round;stroke-dasharray:none;stroke-opacity:1" cx="54.123" cy="56.268" rx="1.716" ry="2.123"/>
        <ellipse style="fill:#733e62;fill-opacity:1;stroke:#1c121c;stroke-width:1.99999;stroke-linecap:round;stroke-linejoin:round;stroke-dasharray:none;stroke-opacity:1" cx="41.25" cy="56.268" rx="1.716" ry="2.123"/>
    </g>
    <path style="fill:#663656;fill-opacity:1;stroke:#1c121c;stroke-width:4;stroke-linecap:round;stroke-linejoin:round;stroke-dasharray:none;stroke-opacity:1" d="M34.207 26.822h16.291v11.695h-16.29z" transform="translate(-29.998 7.102)"/>
    <path style="fill:#854770;fill-opacity:1;stroke:none;stroke-width:2;stroke-linecap:round;stroke-linejoin:round;stroke-dasharray:none;stroke-opacity:1" d="M39.726 27.603h5.252v10.133h-5.252z" transform="translate(-29.998 7.102)"/>
    <path style="fill:none;fill-opacity:1;stroke:#1c121c;stroke-width:4;stroke-linecap:round;stroke-linejoin:round;stroke-dasharray:none;stroke-opacity:1" d="M34.207 26.822h16.291v11.695h-16.29z" transform="translate(-29.998 7.102)"/>
    <g transform="translate(-35.332 -16.496)">
        <circle style="fill:#95507e;fill-opacity:1;stroke:#1c121c;stroke-width:2;stroke-linecap:round;stroke-linejoin:round;stroke-dasharray:none;stroke-opacity:1" cx="47.687" cy="56.268" r="2.123"/>
        <ellipse style="fill:#733e62;fill-opacity:1;stroke:#1c121c;stroke-width:1.99999;stroke-linecap:round;stroke-linejoin:round;stroke-dasharray:none;stroke-opacity:1" cx="54.123" cy="56.268" rx="1.716" ry="2.123"/>
        <ellipse style="fill:#733e62;fill-opacity:1;stroke:#1c121c;stroke-width:1.99999;stroke-linecap:round;stroke-linejoin:round;stroke-dasharray:none;stroke-opacity:1" cx="41.25" cy="56.268" rx="1.716" ry="2.123"/>
    </g>
    <path d="M74.633 70.284h14.71l3 3v2.048l-3 3h-14.71l-3-3v-2.048zm0-49.701h14.71l3 3v2.048l-3 3h-14.71l-3-3v-2.047z" style="fill:#854770;fill-opacity:1;stroke:#1c121c;stroke-width:4;stroke-linecap:round;stroke-linejoin:round;stroke-dasharray:none;stroke-opacity:1" transform="translate(-69.633 -18.583)"/>
</svg>
