<svg xmlns="http://www.w3.org/2000/svg" xmlns:xlink="http://www.w3.org/1999/xlink" width="108.107" height="105.206" viewBox="0 0 28.603 27.836"><defs><linearGradient id="d"><stop offset="0" style="stop-color:#a329a3;stop-opacity:1"/><stop offset="1" style="stop-color:#a329a3;stop-opacity:0"/></linearGradient><linearGradient id="a"><stop offset=".214" style="stop-color:#c794d1;stop-opacity:1"/><stop offset="1" style="stop-color:#94d194;stop-opacity:0"/></linearGradient><linearGradient id="c"><stop offset="0" style="stop-color:#ffa7f9;stop-opacity:1"/><stop offset="1" style="stop-color:#d194d1;stop-opacity:1"/></linearGradient><linearGradient xlink:href="#d" id="f" x1="-4.749" x2="2.56" y1="-4.05" y2="-4.05" gradientUnits="userSpaceOnUse"/><radialGradient xlink:href="#a" id="e" cx="18.242" cy="16.199" r="11.018" fx="18.242" fy="16.199" gradientTransform="translate(.784 -1.478)" gradientUnits="userSpaceOnUse"/><radialGradient xlink:href="#c" id="g" cx="-1.095" cy="-4.05" r="3.655" fx="-1.095" fy="-4.05" gradientTransform="matrix(.66753 0 0 .63535 -.364 -1.477)" gradientUnits="userSpaceOnUse"/></defs><g transform="matrix(.91783 .8932 -.91783 .8932 10.35 -16.225)"><circle cx="19.026" cy="14.721" r="11.018" style="fill:url(#e);stroke-width:1.32292;stroke-linecap:round;stroke-linejoin:round;stroke-miterlimit:29"/><path d="M2.56-1.94-.92-3.397-3.205-.395l1.458-3.48-3.002-2.285 3.48 1.458 2.285-3.003-1.458 3.48z" style="fill:url(#f);stroke-width:1.32292;stroke-linecap:round;stroke-linejoin:round;stroke-miterlimit:29;fill-opacity:1" transform="translate(21.82 25.057)scale(2.55223)"/><path d="M2.56-1.94-.92-3.397-3.205-.395l1.458-3.48-3.002-2.285 3.48 1.458 2.285-3.003-1.458 3.48z" style="fill:url(#g);stroke-width:1.32292;stroke-linecap:round;stroke-linejoin:round;stroke-miterlimit:29" transform="rotate(45 -18.375 29.018)scale(1.86149)"/></g></svg>