<?xml version="1.0" encoding="UTF-8" standalone="no"?>
<!-- Created with Inkscape (http://www.inkscape.org/) -->

<svg
   width="34.561123"
   height="29.003799"
   viewBox="0 0 9.1442962 7.6739221"
   version="1.1"
   id="svg5"
   inkscape:version="1.4 (1:1.4+202410161351+e7c3feb100)"
   sodipodi:docname="proj_seed.svg"
   xmlns:inkscape="http://www.inkscape.org/namespaces/inkscape"
   xmlns:sodipodi="http://sodipodi.sourceforge.net/DTD/sodipodi-0.dtd"
   xmlns="http://www.w3.org/2000/svg"
   xmlns:svg="http://www.w3.org/2000/svg">
  <sodipodi:namedview
     id="namedview7"
     pagecolor="#505050"
     bordercolor="#ffffff"
     borderopacity="1"
     inkscape:pageshadow="0"
     inkscape:pageopacity="0"
     inkscape:pagecheckerboard="1"
     inkscape:document-units="px"
     showgrid="false"
     units="px"
     inkscape:zoom="12.414927"
     inkscape:cx="-6.4438558"
     inkscape:cy="20.499516"
     inkscape:window-width="2560"
     inkscape:window-height="1368"
     inkscape:window-x="0"
     inkscape:window-y="0"
     inkscape:window-maximized="1"
     inkscape:current-layer="layer1"
     inkscape:showpageshadow="2"
     inkscape:deskcolor="#d1d1d1" />
  <defs
     id="defs2" />
  <g
     inkscape:label="Layer 1"
     inkscape:groupmode="layer"
     id="layer1"
     transform="translate(-127.98952,2.446333)">
    <path
       id="path1"
       style="fill:#e3a860;fill-opacity:0.702383;stroke:none;stroke-width:0.153194;stroke-linecap:round;stroke-linejoin:round"
       d="m 132.89683,-2.4132886 a 2.0512519,2.0512519 0 0 0 -2.05103,2.05103765 2.0512519,2.0512519 0 0 0 -2.05104,2.05155425 2.0512519,2.0512519 0 0 0 0.73949,1.5735473 2.0512519,2.0512519 0 0 0 2.01486,1.6887858 2.0512519,2.0512519 0 0 0 1.99936,-1.6164388 2.0512519,2.0512519 0 0 0 0.0744,-0.05581 2.0512519,2.0512519 0 0 0 1.87947,-2.039152 2.0512519,2.0512519 0 0 0 -0.56741,-1.41593415 2.0512519,2.0512519 0 0 0 0.0134,-0.1865519 2.0512519,2.0512519 0 0 0 -2.05156,-2.05103765 z" />
    <path
       id="path11-8-2-1-9"
       style="fill:#f2bb62;fill-opacity:1;fill-rule:evenodd;stroke:#8d5c0c;stroke-width:0.434038;stroke-linejoin:round;stroke-opacity:1"
       d="m 131.19408,0.41655833 c 0.57522,-0.33210949 2.9293,-0.80389592 3.15338,-0.41575859381 C 134.56456,0.37682804 132.98594,2.1917357 132.41072,2.5238364 130.63273,3.5503561 129.41609,1.4430757 131.19408,0.41655833 Z"
       sodipodi:nodetypes="ssss" />
    <path
       id="path4"
       style="fill:#e3a860;fill-opacity:0.702383;stroke:none;stroke-width:0.153194;stroke-linecap:round;stroke-linejoin:round"
       d="M 129.97286 -1.6515495 A 0.51148105 0.51148105 0 0 0 129.50984 -1.3564771 A 0.29080325 0.29080325 0 0 0 129.46902 -1.3595777 A 0.29080325 0.29080325 0 0 0 129.17859 -1.0686394 A 0.29080325 0.29080325 0 0 0 129.46902 -0.77770107 A 0.29080325 0.29080325 0 0 0 129.58787 -0.80353928 A 0.51148105 0.51148105 0 0 0 129.97286 -0.62887295 A 0.51148105 0.51148105 0 0 0 130.48446 -1.1399528 A 0.51148105 0.51148105 0 0 0 129.97286 -1.6515495 z " />
    <path
       id="circle5"
       style="fill:#e3a860;fill-opacity:0.702383;stroke:none;stroke-width:0.202663;stroke-linecap:round;stroke-linejoin:round"
       d="m 134.32583,3.5165819 a 0.67664677,0.67664677 0 0 0 -0.67644,0.6764445 0.67664677,0.67664677 0 0 0 0.67644,0.6769612 0.67664677,0.67664677 0 0 0 0.0274,-0.00207 0.41557834,0.41557834 0 0 0 0.41135,0.359668 0.41557834,0.41557834 0 0 0 0.41547,-0.4154785 0.41557834,0.41557834 0 0 0 -0.22686,-0.3700032 0.67664677,0.67664677 0 0 0 0.0496,-0.2490804 0.67664677,0.67664677 0 0 0 -0.67696,-0.6764445 z" />
    <circle
       style="fill:#e3a860;fill-opacity:0.702383;stroke:none;stroke-width:0.202663;stroke-linecap:round;stroke-linejoin:round"
       id="circle7"
       cx="136.45717"
       cy="1.8381833"
       r="0.67664677" />
    <path
       id="circle8"
       style="fill:#e3a860;fill-opacity:0.702383;stroke:none;stroke-width:0.132449;stroke-linecap:round;stroke-linejoin:round"
       d="m 135.80895,-0.90278641 a 0.49581093,0.49581093 0 0 0 -0.49558,0.49557697 0.49581093,0.49581093 0 0 0 0.49558,0.49557696 0.49581093,0.49581093 0 0 0 0.23409,-0.05994466 0.44221798,0.44221798 0 0 0 0.33176,0.14986165 0.44221798,0.44221798 0 0 0 0.44235,-0.44235024 0.44221798,0.44221798 0 0 0 -0.44235,-0.44235024 0.44221798,0.44221798 0 0 0 -0.15089,0.0279053 0.49581093,0.49581093 0 0 0 -0.41496,-0.22427574 z" />
    <circle
       style="fill:#e3a860;fill-opacity:0.702383;stroke:none;stroke-width:0.200407;stroke-linecap:round;stroke-linejoin:round"
       id="circle10"
       cx="128.65863"
       cy="3.9102607"
       r="0.66911197" />
    <circle
       style="fill:#e3a860;fill-opacity:0.702383;stroke:none;stroke-width:0.12447;stroke-linecap:round;stroke-linejoin:round"
       id="circle11"
       cx="135.95494"
       cy="3.8930161"
       r="0.41557834" />
    <circle
       style="fill:#e3a860;fill-opacity:0.702383;stroke:none;stroke-width:0.08298;stroke-linecap:round;stroke-linejoin:round"
       id="circle12"
       cx="128.99667"
       cy="-0.33735827"
       r="0.27705222" />
  </g>
</svg>
