<svg xmlns="http://www.w3.org/2000/svg" xml:space="preserve" width="53.708" height="57.872" viewBox="0 0 14.211 15.312"><path fill="url(#IconifyId17ecdb2904d178eab9933)" d="M20.27 122.41c-1.11 0-2.16-.34-3.2-1.05-.73-.5-1.16-1.2-1.21-1.98-.08-1.28.87-2.19 1.06-2.36.08-.07.16-.13.25-.18 0 0 4.45-2.58 5.6-3.23.86-.49 2.53-1.78 4.47-3.26 2.47-1.9 5.55-4.26 8.53-6.21 3.5-2.29 4.91-3.98 6.31-7.54.88-2.23.18-12.29-.5-22.03-.74-10.7-1.58-22.81-.86-30.16-.16-1.12-.34-2.16-.51-3.15-.84-4.83-1.5-8.64 1.36-13.44a9.34 9.34 0 0 1 4.36-3.84c15.63-6.71 42.78-16.14 50.2-16.95 2.17-.24 4.08-.35 5.82-.35 6.54 0 15.51 1.45 17.83 14.02.52 2.79 1.27 9.91-2.85 15.7-2.6 3.66-6.55 5.91-11.74 6.7-5.36 1.15-15.66 1.65-25.61 2.14-5.2.25-10.15.5-13.92.82 6.48 14.6.27 26.75-3.9 34.91l-.48.95c-2.21 4.34-4.64 14.03-3.13 21.96.07.38.18.82.29 1.3.79 3.38 2.27 9.67-3.25 12.08-1.85.8-3.48 1.15-5.46 1.15-.78 0-1.56-.05-2.39-.1-.54-.04-1.11-.07-1.73-.1-.78-.03-1.47-.09-2.11-.14-.73-.06-1.36-.11-1.96-.11-.95 0-2.06.11-3.77.93-.56.27-1.08.53-1.57.79-1.53.79-2.98 1.54-5.01 1.9-.3.05-.62.08-.95.08-1.67 0-3.4-.69-4.54-1.25-.52.55-1.29 1.11-2.4 1.43l-.39.11c-.82.21-1.68.46-2.64.46" transform="matrix(.1212 0 0 .11773 -.713 .435)"/><path d="M5.63 2.443c.456.022.297-1.188.838-1.188s.565.603.522 1.168c0 .608.045 1.26.575 1.26s.234-1.447.95-1.382M8.603.053c.163.18.56-.335.763-.132s-.014.44-.244.637c-.229.23-.457.492-.258.692.2.2.633-.458.879-.163M6.267 5.288c.238-.052-.01-.652.268-.727s.374.232.43.53c.083.312.196.641.47.568.272-.073-.08-.777.298-.842" style="fill:none;fill-opacity:1;fill-rule:evenodd;stroke:#910808;stroke-width:.708603;stroke-linecap:square;stroke-linejoin:miter;stroke-miterlimit:29;stroke-dasharray:none;stroke-opacity:1" transform="matrix(.84436 0 0 .82022 -3.725 1.021)"/><path d="M.716 16.484 4.3 13.93s-.54-6.12-.224-7.703c0 0-.761-2.507.716-2.91 0 0 6.001-2.688 7.972-2.598 0 0 3.448-.269 2.463 3.896m0 0s-.448 1.702-4.389 1.612l-3.224.135s1.074 2.642-.448 4.747c0 0-.985 1.97-.538 3.851 0 0 1.075 2.284-2.507 1.747 0 0-1.747.895-2.284.403 0 0-2.105.716-1.12-.627" style="fill:#97866b;fill-opacity:1;fill-rule:evenodd;stroke:none;stroke-width:.529167;stroke-linecap:round;stroke-linejoin:round;stroke-miterlimit:29" transform="matrix(.84436 0 0 .82022 .862 .608)"/><path d="M.744 17.22s-.056-.483 1.087-.822c.61-.18 2.153-1.454 2.153-1.454s.783-.505.973-1.737c0 0-.715-5.633-.399-7.027-.221-1.076-.284-2.348 1.144-3.173l-.254-.104s-2.232.174-1.44 3.23m0 0c-.317 1.963.237 7.251.237 7.251s-.11.998-.997 1.441l-2.66 1.82s.077.195.156.575" style="fill:#ab9d87;fill-opacity:1;fill-rule:evenodd;stroke:none;stroke-width:.529167;stroke-linecap:round;stroke-linejoin:round;stroke-miterlimit:29" transform="matrix(.84436 0 0 .82022 .862 .608)"/><path d="M7.277 6.206s.202 3.183-.814 6.256c0 0 2.359-3.815.814-6.256M7.3 6.196s8.26-1.781 7.573-4.344c0 0 .867 1.54-.048 3.125 0 0-.284 1.013-4.252 1.013zM6.288 14.54s.204 1.448-.501 1.669c-.887.278-1.02-.37-2.413.516 0 0 .444-.317 1.52-.142 0 0 1.774.221 1.584-1.14z" style="fill:#786a54;fill-opacity:1;fill-rule:evenodd;stroke:none;stroke-width:.529167;stroke-linecap:round;stroke-linejoin:round;stroke-miterlimit:29" transform="matrix(.84436 0 0 .82022 .862 .608)"/><path fill="#4a2f27" d="M6.625 6.632a17 17 0 0 0-.28.958 7 7 0 0 0-.18.938 7 7 0 0 0-.067.946c-.01.323.023.642.026.99v.005q0 .012-.016.014c-.005 0-.013-.004-.014-.01a4.3 4.3 0 0 1-.24-.976 3.9 3.9 0 0 1 .256-1.975 4 4 0 0 1 .488-.904.014.014 0 0 1 .02-.005q.008.006.006.016zM5.75 14.434a.75.75 0 0 1-.002.638c-.205.303-.463.344-.597.34-.04-.001-.062-.043-.037-.073a3.5 3.5 0 0 0 .324-.461 4 4 0 0 0 .218-.445c.019-.039.078-.037.094.001M5.224 5.527c.216-.197.4-.59.44-.71.04-.121.147-.589.121-.842l-.002-.012q-.002-.016.014-.018a.01.01 0 0 1 .011.003c.158.108.24.283.266.452a1.14 1.14 0 0 1-.039.516c-.054.165-.15.324-.288.447a.8.8 0 0 1-.521.201c-.009 0-.018-.007-.018-.015q0-.008.006-.013z" style="fill:#5a503f;fill-opacity:1;stroke-width:.14353" transform="matrix(.84436 0 0 .82022 .862 .608)"/><path d="M7.13 5.726s4.282.072 5.695-.467c.85-.324 1.71-2.701.133-3.922-.641-.312-1.684-.468-3.288.182L4.857 3.103s-1.364.494-.669 2.545c0 0-.264 1.35.057 3.22l.13 2.754s-.106.598-.641.935l-1.711 1.221s-.535.156-.803.364m0 0s-.4 1.013 1.15.467c0 0 .99.208 1.658-.363 0 0 2.139.545 2.326-.572 0 0 .08-.415-.027-1.065 0 0-.296-1.215.722-3.22 1.016-2 .08-3.663.08-3.663" style="fill:none;fill-rule:evenodd;stroke:#3b342b;stroke-width:.33028;stroke-linecap:round;stroke-linejoin:round;stroke-miterlimit:29;stroke-dasharray:none;stroke-opacity:1"/></svg>