<svg xmlns="http://www.w3.org/2000/svg" width="269.564" height="80.802" viewBox="0 0 71.322 21.379"><g style="stroke-width:1.00952" transform="matrix(0 -1 -.98123 0 4422.596 15118.731)"><path d="M15111.55 4438.539c-.568 0-1.026.458-1.026 1.026s.458 1.025 1.026 1.025h4.665v9.128h-4.665c-.568 0-1.026.457-1.026 1.025s.458 1.026 1.026 1.026h5.741c.544-.025.973-.433.973-.935v-11.358c0-.503-.429-.91-.973-.935h-.05zM15104.534 4438.541c.568 0 1.026.458 1.026 1.026s-.458 1.025-1.026 1.025h-4.665v9.128h4.665c.568 0 1.026.457 1.026 1.025s-.458 1.026-1.026 1.026h-5.741c-.544-.025-.973-.433-.973-.935v-11.358c0-.503.429-.91.973-.935h.05z" style="display:inline;fill:gray;fill-opacity:1;stroke:#2e2e2e;stroke-width:.934856;stroke-miterlimit:4;stroke-dasharray:none;stroke-opacity:1"/><rect width="70.71" height="5.979" x="-4506.193" y="15105.137" rx="1.299" ry=".997" style="fill:#a3917b;fill-opacity:1;stroke:#3b332b;stroke-width:1.97649;stroke-linecap:square;stroke-miterlimit:4;stroke-dasharray:none;stroke-opacity:1" transform="rotate(-90)"/></g></svg>