<?xml version="1.0" encoding="UTF-8" standalone="no"?>
<!-- Created with Inkscape (http://www.inkscape.org/) -->

<svg
   version="1.1"
   id="svg1"
   width="328.44281"
   height="392.9371"
   viewBox="0 0 328.44281 392.93711"
   sodipodi:docname="birch_tree_trunk.svg"
   inkscape:version="1.4.2 (1:1.4.2+202505120737+ebf0e940d0)"
   xmlns:inkscape="http://www.inkscape.org/namespaces/inkscape"
   xmlns:sodipodi="http://sodipodi.sourceforge.net/DTD/sodipodi-0.dtd"
   xmlns="http://www.w3.org/2000/svg"
   xmlns:svg="http://www.w3.org/2000/svg">
  <defs
     id="defs1">
    <inkscape:path-effect
       effect="spiro"
       id="path-effect19494"
       is_visible="true"
       lpeversion="1" />
    <clipPath
       clipPathUnits="userSpaceOnUse"
       id="clipPath335">
      <path
         d="M 0,1024.578 H 1011.378 V 0 H 0 Z"
         transform="translate(-876.54145,-651.52512)"
         id="path335" />
    </clipPath>
    <clipPath
       clipPathUnits="userSpaceOnUse"
       id="clipPath337">
      <path
         d="M 0,1024.578 H 1011.378 V 0 H 0 Z"
         transform="translate(-747.72332,-732.61212)"
         id="path337" />
    </clipPath>
    <clipPath
       clipPathUnits="userSpaceOnUse"
       id="clipPath341">
      <path
         d="M 0,1024.578 H 1011.378 V 0 H 0 Z"
         transform="translate(-795.21204,-642.93862)"
         id="path341" />
    </clipPath>
    <clipPath
       clipPathUnits="userSpaceOnUse"
       id="clipPath343">
      <path
         d="M 0,1024.578 H 1011.378 V 0 H 0 Z"
         transform="translate(-833.8096,-588.09361)"
         id="path343" />
    </clipPath>
    <clipPath
       clipPathUnits="userSpaceOnUse"
       id="clipPath345">
      <path
         d="M 0,1024.578 H 1011.378 V 0 H 0 Z"
         transform="translate(-830.13272,-660.04432)"
         id="path345" />
    </clipPath>
    <clipPath
       clipPathUnits="userSpaceOnUse"
       id="clipPath347">
      <path
         d="M 0,1024.578 H 1011.378 V 0 H 0 Z"
         transform="translate(-814.5658,-697.56792)"
         id="path347" />
    </clipPath>
    <clipPath
       clipPathUnits="userSpaceOnUse"
       id="clipPath351">
      <path
         d="M 0,1024.578 H 1011.378 V 0 H 0 Z"
         transform="translate(-742.49462,-667.18482)"
         id="path351" />
    </clipPath>
    <clipPath
       clipPathUnits="userSpaceOnUse"
       id="clipPath353">
      <path
         d="M 0,1024.578 H 1011.378 V 0 H 0 Z"
         transform="translate(-775.31042,-678.43912)"
         id="path353" />
    </clipPath>
    <clipPath
       clipPathUnits="userSpaceOnUse"
       id="clipPath355">
      <path
         d="M 0,1024.578 H 1011.378 V 0 H 0 Z"
         transform="translate(-818.15222,-743.45352)"
         id="path355" />
    </clipPath>
    <clipPath
       clipPathUnits="userSpaceOnUse"
       id="clipPath363">
      <path
         d="M 0,1024.578 H 1011.378 V 0 H 0 Z"
         transform="translate(-745.46452,-684.07242)"
         id="path363" />
    </clipPath>
    <clipPath
       clipPathUnits="userSpaceOnUse"
       id="clipPath366">
      <path
         d="m 732.893,680.688 h 225.69 V 454.999 h -225.69 z"
         transform="translate(-958.58282,-567.84331)"
         id="path366" />
    </clipPath>
    <clipPath
       clipPathUnits="userSpaceOnUse"
       id="clipPath367">
      <path
         d="m 732.893,680.688 h 225.69 V 454.999 h -225.69 z"
         transform="matrix(1.3333333,0,0,-1.3333333,0,1366.1067)"
         id="path367" />
    </clipPath>
    <clipPath
       clipPathUnits="userSpaceOnUse"
       id="clipPath369">
      <path
         d="M 0,1024.578 H 1011.378 V 0 H 0 Z"
         transform="matrix(1.3333333,0,0,-1.3333333,0,1366.1067)"
         id="path369" />
    </clipPath>
    <clipPath
       clipPathUnits="userSpaceOnUse"
       id="clipPath370">
      <path
         d="M 747.249,881.722 H 934.528 V 694.443 H 747.249 Z"
         transform="translate(-934.528,-788.08252)"
         id="path370" />
    </clipPath>
    <clipPath
       clipPathUnits="userSpaceOnUse"
       id="clipPath371">
      <path
         d="M 747.249,881.722 H 934.528 V 694.443 H 747.249 Z"
         transform="matrix(1.3333333,0,0,-1.3333333,0,1366.1067)"
         id="path371" />
    </clipPath>
    <clipPath
       clipPathUnits="userSpaceOnUse"
       id="clipPath373">
      <path
         d="M 0,1024.578 H 1011.378 V 0 H 0 Z"
         transform="matrix(1.3333333,0,0,-1.3333333,0,1366.1067)"
         id="path373" />
    </clipPath>
    <clipPath
       clipPathUnits="userSpaceOnUse"
       id="clipPath374">
      <path
         d="M 588.881,796.567 H 754.123 V 631.325 H 588.881 Z"
         transform="translate(-754.12299,-713.94602)"
         id="path374" />
    </clipPath>
    <clipPath
       clipPathUnits="userSpaceOnUse"
       id="clipPath375">
      <path
         d="M 588.881,796.567 H 754.123 V 631.325 H 588.881 Z"
         transform="matrix(1.3333333,0,0,-1.3333333,0,1366.1067)"
         id="path375" />
    </clipPath>
    <clipPath
       clipPathUnits="userSpaceOnUse"
       id="clipPath377">
      <path
         d="M 0,1024.578 H 1011.378 V 0 H 0 Z"
         transform="matrix(1.3333333,0,0,-1.3333333,0,1366.1067)"
         id="path377" />
    </clipPath>
    <clipPath
       clipPathUnits="userSpaceOnUse"
       id="clipPath378">
      <path
         d="M 602.102,690.741 H 773.674 V 519.169 H 602.102 Z"
         transform="translate(-773.67384,-604.95502)"
         id="path378" />
    </clipPath>
    <clipPath
       clipPathUnits="userSpaceOnUse"
       id="clipPath379">
      <path
         d="M 602.102,690.741 H 773.674 V 519.169 H 602.102 Z"
         transform="matrix(1.3333333,0,0,-1.3333333,0,1366.1067)"
         id="path379" />
    </clipPath>
    <clipPath
       clipPathUnits="userSpaceOnUse"
       id="clipPath381">
      <path
         d="M 0,1024.578 H 1011.378 V 0 H 0 Z"
         transform="matrix(1.3333333,0,0,-1.3333333,0,1366.1067)"
         id="path381" />
    </clipPath>
    <clipPath
       clipPathUnits="userSpaceOnUse"
       id="clipPath382">
      <path
         d="M 838.879,760.009 H 993.933 V 604.955 H 838.879 Z"
         transform="translate(-993.93265,-682.48212)"
         id="path382" />
    </clipPath>
    <clipPath
       clipPathUnits="userSpaceOnUse"
       id="clipPath383">
      <path
         d="M 838.879,760.009 H 993.933 V 604.955 H 838.879 Z"
         transform="matrix(1.3333333,0,0,-1.3333333,0,1366.1067)"
         id="path383" />
    </clipPath>
    <clipPath
       clipPathUnits="userSpaceOnUse"
       id="clipPath385">
      <path
         d="M 0,1024.578 H 1011.378 V 0 H 0 Z"
         transform="matrix(1.3333333,0,0,-1.3333333,0,1366.1067)"
         id="path385" />
    </clipPath>
    <clipPath
       clipPathUnits="userSpaceOnUse"
       id="clipPath386">
      <path
         d="M 788.147,678.211 H 893.63 V 573.577 H 788.147 Z"
         transform="translate(-840.88855,-678.21142)"
         id="path386" />
    </clipPath>
    <clipPath
       clipPathUnits="userSpaceOnUse"
       id="clipPath387">
      <path
         d="M 788.147,678.211 H 893.63 V 573.577 H 788.147 Z"
         transform="matrix(1.3333333,0,0,-1.3333333,0,1366.1067)"
         id="path387" />
    </clipPath>
    <clipPath
       clipPathUnits="userSpaceOnUse"
       id="clipPath389">
      <path
         d="M 0,1024.578 H 1011.378 V 0 H 0 Z"
         transform="matrix(1.3333333,0,0,-1.3333333,0,1366.1067)"
         id="path389" />
    </clipPath>
    <clipPath
       clipPathUnits="userSpaceOnUse"
       id="clipPath390">
      <path
         d="M 630.446,656.029 H 745.33 V 541.145 H 630.446 Z"
         transform="translate(-745.32982,-598.58731)"
         id="path390" />
    </clipPath>
    <clipPath
       clipPathUnits="userSpaceOnUse"
       id="clipPath391">
      <path
         d="M 630.446,656.029 H 745.33 V 541.145 H 630.446 Z"
         transform="matrix(1.3333333,0,0,-1.3333333,0,1366.1067)"
         id="path391" />
    </clipPath>
    <clipPath
       clipPathUnits="userSpaceOnUse"
       id="clipPath393">
      <path
         d="M 0,1024.578 H 1011.378 V 0 H 0 Z"
         transform="matrix(1.3333333,0,0,-1.3333333,0,1366.1067)"
         id="path393" />
    </clipPath>
    <clipPath
       clipPathUnits="userSpaceOnUse"
       id="clipPath394">
      <path
         d="M 639.699,821.328 H 799.184 V 663.165 H 639.699 Z"
         transform="translate(-719.44132,-821.32832)"
         id="path394" />
    </clipPath>
    <clipPath
       clipPathUnits="userSpaceOnUse"
       id="clipPath395">
      <path
         d="M 639.699,821.328 H 799.184 V 663.165 H 639.699 Z"
         transform="matrix(1.3333333,0,0,-1.3333333,0,1366.1067)"
         id="path395" />
    </clipPath>
    <clipPath
       clipPathUnits="userSpaceOnUse"
       id="clipPath397">
      <path
         d="M 0,1024.578 H 1011.378 V 0 H 0 Z"
         transform="matrix(1.3333333,0,0,-1.3333333,0,1366.1067)"
         id="path397" />
    </clipPath>
    <clipPath
       clipPathUnits="userSpaceOnUse"
       id="clipPath431">
      <path
         d="M 763.168,802.523 H 868.203 V 697.488 H 763.168 Z"
         transform="translate(-868.20325,-750.00562)"
         id="path431" />
    </clipPath>
    <clipPath
       clipPathUnits="userSpaceOnUse"
       id="clipPath432">
      <path
         d="M 763.168,802.523 H 868.203 V 697.488 H 763.168 Z"
         transform="matrix(1.3333333,0,0,-1.3333333,0,1366.1067)"
         id="path432" />
    </clipPath>
    <clipPath
       clipPathUnits="userSpaceOnUse"
       id="clipPath434">
      <path
         d="M 0,1024.578 H 1011.378 V 0 H 0 Z"
         transform="matrix(1.3333333,0,0,-1.3333333,0,1366.1067)"
         id="path434" />
    </clipPath>
    <clipPath
       clipPathUnits="userSpaceOnUse"
       id="clipPath532">
      <path
         d="M 0,1024.578 H 1011.378 V 0 H 0 Z"
         transform="translate(-592.17131,-583.51621)"
         id="path532" />
    </clipPath>
    <clipPath
       clipPathUnits="userSpaceOnUse"
       id="clipPath538">
      <path
         d="M 0,1024.578 H 1011.378 V 0 H 0 Z"
         transform="translate(-518.11001,-548.24371)"
         id="path538" />
    </clipPath>
    <clipPath
       clipPathUnits="userSpaceOnUse"
       id="clipPath564">
      <path
         d="M 0,1024.578 H 1011.378 V 0 H 0 Z"
         transform="translate(-518.11001,-548.24371)"
         id="path564" />
    </clipPath>
    <clipPath
       clipPathUnits="userSpaceOnUse"
       id="clipPath569">
      <path
         d="m 558.235,647.416 h 42.347 v -42.348 h -42.347 z"
         transform="translate(-592.14671,-609.33042)"
         id="path569" />
    </clipPath>
    <clipPath
       clipPathUnits="userSpaceOnUse"
       id="clipPath570">
      <path
         d="m 558.235,647.416 h 42.347 v -42.348 h -42.347 z"
         transform="matrix(1.3333333,0,0,-1.3333333,0,1366.1067)"
         id="path570" />
    </clipPath>
    <clipPath
       clipPathUnits="userSpaceOnUse"
       id="clipPath572">
      <path
         d="M 0,1024.578 H 1011.378 V 0 H 0 Z"
         transform="matrix(1.3333333,0,0,-1.3333333,0,1366.1067)"
         id="path572" />
    </clipPath>
    <clipPath
       clipPathUnits="userSpaceOnUse"
       id="clipPath573">
      <path
         d="m 558.512,708.416 h 94.533 v -94.533 h -94.533 z"
         transform="translate(-634.21492,-623.39682)"
         id="path573" />
    </clipPath>
    <clipPath
       clipPathUnits="userSpaceOnUse"
       id="clipPath574">
      <path
         d="m 558.512,708.416 h 94.533 v -94.533 h -94.533 z"
         transform="matrix(1.3333333,0,0,-1.3333333,0,1366.1067)"
         id="path574" />
    </clipPath>
    <clipPath
       clipPathUnits="userSpaceOnUse"
       id="clipPath576">
      <path
         d="M 0,1024.578 H 1011.378 V 0 H 0 Z"
         transform="matrix(1.3333333,0,0,-1.3333333,0,1366.1067)"
         id="path576" />
    </clipPath>
    <clipPath
       clipPathUnits="userSpaceOnUse"
       id="clipPath585">
      <path
         d="m 534.689,628.492 h 78.267 v -78.267 h -78.267 z"
         transform="translate(-597.36652,-558.10251)"
         id="path585" />
    </clipPath>
    <clipPath
       clipPathUnits="userSpaceOnUse"
       id="clipPath586">
      <path
         d="m 534.689,628.492 h 78.267 v -78.267 h -78.267 z"
         transform="matrix(1.3333333,0,0,-1.3333333,0,1366.1067)"
         id="path586" />
    </clipPath>
    <clipPath
       clipPathUnits="userSpaceOnUse"
       id="clipPath588">
      <path
         d="M 0,1024.578 H 1011.378 V 0 H 0 Z"
         transform="matrix(1.3333333,0,0,-1.3333333,0,1366.1067)"
         id="path588" />
    </clipPath>
  </defs>
  <sodipodi:namedview
     id="namedview1"
     pagecolor="#505050"
     bordercolor="#999999"
     borderopacity="1"
     inkscape:showpageshadow="0"
     inkscape:pageopacity="0"
     inkscape:pagecheckerboard="true"
     inkscape:deskcolor="#d1d1d1"
     showgrid="false"
     inkscape:pageshadow="0"
     inkscape:zoom="1.9821425"
     inkscape:cx="272.43248"
     inkscape:cy="210.12616"
     inkscape:window-width="2560"
     inkscape:window-height="1368"
     inkscape:window-x="0"
     inkscape:window-y="0"
     inkscape:window-maximized="1"
     inkscape:current-layer="svg1"
     showguides="false" />
  <g
     id="layer-MC2"
     inkscape:groupmode="layer"
     inkscape:label="Layer 2"
     transform="translate(-889.67669,-266.80462)">
    <path
       id="path7077"
       style="opacity:0.899889;fill:#a9a9a9;fill-opacity:1;stroke:#252525;stroke-width:9;stroke-linecap:butt;stroke-linejoin:round;stroke-dasharray:none;stroke-opacity:1"
       d="m 1026.2949,552.18604 27.3572,28.68283 -3.3619,-58.4066 14.463,-70.29047 65.5091,-0.34362 21.6951,-3.75779 32.6384,11.25874 -21.6683,-29.29394 -30.0917,-0.13361 -62.2796,7.97637 -9.087,-89.34916 -34.77,-23.56069 16.2812,37.00903 3.063,72.41578 -75.34513,-16.46278 -54.4443,3.38204 -22.078,17.04132 84.8478,8.30435 47.35083,23.30809 z"
       sodipodi:nodetypes="ccccccccccccccccccc" />
    <path
       style="color:#000000;fill:#cccccc;stroke-width:9;stroke-linejoin:round;-inkscape-stroke:none"
       d="m 1161.0943,271.30442 -76.2766,61.86331 -3.2425,67.70915 -35.5318,33.51603 -16.4763,-64.37745 -65.80195,-36.16992 -57.72808,12.51279 39.67288,20.17337 42.79916,36.87828 23.76659,45.62129 -42.05504,26.98975 -27.77939,40.19335 -38.2532,17.63847 56.1392,10.22955 37.86869,-36.29653 51.92854,-25.05247 28.9539,18.22368 -7.3634,62.99166 16.772,33.83011 0.1192,39.34183 12.677,18.12188 27.7233,-63.06617 -10.5012,-32.67636 -4.5331,-54.36203 47.7935,23.33426 44.4086,64.38455 7.445,-37.361 -25.1442,-69.35605 -66.9926,-10.50505 -20.7963,-24.44589 29.9698,-38.65958 -3.6428,-58.03021 24.1679,-30.80727 z"
       id="path22751" />
    <path
       id="path342"
       d="m 0,0 -2.143,-1.592 c 0,0 -0.911,-2.461 -1.995,-1.483 -1.084,0.979 -2.05,2.759 -2.05,2.759 0,0 -2.522,-0.447 -0.789,2.982 l 1.734,3.429 2.759,2.05 5.162,-6.948"
       style="fill:#4d4d4d;fill-opacity:1;fill-rule:nonzero;stroke:none;stroke-width:0.454747"
       transform="matrix(-2.9287906,-0.62748697,-0.58076557,2.8108478,1085.9422,573.32581)"
       clip-path="url(#clipPath343)" />
    <path
       id="path334"
       d="M 0,0 1.254,0.931 C 1.568,1.165 1.94,1.307 2.33,1.343 l 2.046,0.185 c 0.39,0.035 0.762,0.178 1.077,0.411 L 6.7,2.866 C 7.216,3.25 7.532,3.847 7.557,4.49 L 7.765,9.822 C 7.82,11.23 6.516,12.302 5.146,11.975 L 4.077,11.72 C 3.682,11.626 3.321,11.42 3.039,11.126 L 0.292,8.274 C 0.183,8.161 0.087,8.036 0.006,7.903 L -3.087,2.812 C -3.308,2.448 -3.415,2.026 -3.393,1.6 -3.308,-0.097 -1.364,-1.014 0,0"
       style="fill:#4d4d4d;fill-opacity:1;fill-rule:nonzero;stroke:none;stroke-width:0.517503"
       transform="matrix(2.6525921,0,0,-2.5025464,1096.5985,544.64575)"
       clip-path="url(#clipPath335)" />
    <path
       id="path352"
       d="M 0,0 5.1,-4.616 C 5.975,-5.408 6.921,-5.89 7.738,-5.959 l 9.08,-0.774 c 0.482,-0.041 0.901,0.063 1.225,0.303 l 4.724,3.51 v 0 c 0.977,0.726 0.934,2.559 -0.104,4.433 L 8.2610601,19.433507 c -1.241,2.241 -8.28500822,11.40559 -9.7770082,11.03859 C -6.4329481,29.263097 -6.565,19.67 -8.033,18.498 -8.209,18.357 -8.346,18.181 -8.455,17.962 L -8.913,17.039 C -9.398,16.06 -9.117,14.46 -8.19,12.921 L -1.522,1.857 C -1.105,1.165 -0.581,0.526 0,0"
       style="fill:#4d4d4d;fill-opacity:1;fill-rule:nonzero;stroke:none;stroke-width:1.47725"
       transform="matrix(0.75675239,-0.15929612,-0.07538352,-0.78539016,1054.7041,450.46628)"
       clip-path="url(#clipPath353)"
       sodipodi:nodetypes="ccccccsccccccccc" />
    <path
       id="path340"
       d="m 0,0 2.751,-0.364 c 4.327,-0.572 8.385,2.623 8.528,6.985 0.002,0.05 0.003,0.1 0.004,0.15 C 11.339,9.61 8.756,14.121 6.508,17.497 4.694,20.22 1.327,21.45 -1.823,20.565 -4.614,19.78 -6.712,17.469 -7.222,14.614 L -7.748,11.679 C -8.017,10.171 -7.823,8.616 -7.189,7.22 L -5.897,4.373 C -4.818,1.995 -2.589,0.342 0,0"
       style="fill:#4d4d4d;fill-opacity:1;fill-rule:nonzero;stroke:none"
       transform="matrix(1.3333333,0,0,-1.3333333,1022.7174,494.81038)"
       clip-path="url(#clipPath341)" />
    <path
       id="path336"
       d="M 0,0 0.73,-0.301 C 0.949,-0.392 1.18,-0.452 1.416,-0.48 l 0.69,-0.083 C 3.43,-0.722 4.699,0.136 4.963,1.443 5.058,1.916 5.22,2.241 5.49,2.13 6.273,1.806 6.4,4.073 6.4,4.073 L 4.118,7.144 C 3.798,7.575 3.353,7.897 2.844,8.066 L 2.24,8.267 C 2.042,8.332 1.838,8.374 1.631,8.391 l -3.742,0.31 C -2.613,8.743 -3.117,8.638 -3.562,8.4 L -3.706,8.323 C -5.113,7.568 -5.522,5.74 -4.57,4.459 -4.503,4.37 -4.431,4.285 -4.354,4.205 L -0.886,0.603 C -0.635,0.343 -0.334,0.138 0,0"
       style="fill:#4d4d4d;fill-opacity:1;fill-rule:nonzero;stroke:none;stroke-width:0.75444"
       transform="matrix(1.6050654,0,0,-1.9459665,964.30324,532.69937)"
       clip-path="url(#clipPath337)" />
    <path
       id="path350"
       d="m 0,0 6.004,-1.719 c 1.621,-0.464 3.361,0.097 4.404,1.421 l 0.627,0.795 c 1.452,1.843 1.09,4.522 -0.8,5.913 L 6.744,8.981 C 5.642,9.792 4.212,10.008 2.919,9.559 L -0.179,8.482 C -1.518,8.016 -2.527,6.899 -2.855,5.519 L -2.984,4.975 C -3.505,2.781 -2.18,0.573 0,0"
       style="fill:#4d4d4d;fill-opacity:1;fill-rule:nonzero;stroke:none;stroke-width:0.804217"
       transform="matrix(1.5275918,0,0,-1.7993815,977.57492,487.29093)"
       clip-path="url(#clipPath351)" />
    <path
       id="path362"
       d="m 0,0 -2.248,3.025 c -0.09,0.121 -0.191,0.233 -0.301,0.336 L -2.959,3.74 C -4.36,5.038 -4.951,6.984 -4.535,8.929 l 0.041,0.191 c 0.077,0.364 0.229,0.715 0.445,1.031 l 2.823,4.132 c 0.761,1.115 2.183,1.609 3.398,1.182 L 2.738,15.266 C 3.18,15.111 3.564,14.843 3.853,14.488 L 9.683,7.33 C 10.632,6.165 10.334,4.386 9.028,3.415 L 4.936,2.669 C 3.666,1.725 0.871,-1.172 0,0"
       style="fill:#4d4d4d;fill-opacity:1;fill-rule:nonzero;stroke:none;stroke-width:0.876632"
       transform="matrix(-1.3894707,0.61170759,0.60837255,1.3970876,1121.468,302.92289)"
       clip-path="url(#clipPath363)" />
    <path
       id="path344"
       d="m 0,0 4.679,5.027 c 1.607,1.726 0.032,5.785 -2.838,7.311 -3.308,1.439 -9.18,5.862 -12.433,8.408 -1.431,1.12 -2.982,1.375 -3.959,0.649 l -4.32,-3.21 c -0.745,-0.554 -1.053,-1.61 -0.835,-2.868 l 0.173,-1.005 c 0.159,-0.924 0.55,-1.909 1.187,-2.765 0.422,-0.568 1.082,-1.669 2.113,-3.697 l 1.744,-3.43 c 0.823,-1.619 2.269,-2.917 3.705,-3.327 l 5.367,-1.531 c 0.285,-0.081 0.563,-0.126 0.829,-0.132 l 2.933,-0.075 C -0.983,-0.662 -0.407,-0.438 0,0"
       style="fill:#4d4d4d;fill-opacity:1;fill-rule:nonzero;stroke:none"
       transform="matrix(0,1.3333333,1.3333333,0,1060.262,490.03955)"
       clip-path="url(#clipPath345)" />
    <path
       id="path346"
       d="m 0,0 v 0 c 1.252,0.488 2.164,1.587 2.414,2.906 l 1.248,6.571 c 0.157,0.83 0.041,1.688 -0.33,2.445 l -5.719,11.661 c -0.409,0.835 -1.104,1.497 -1.958,1.865 l -2.386,1.028 c -1.278,0.551 -2.753,0.379 -3.87,-0.451 l -5.528,-4.108 c -0.876,-0.651 -1.369,-1.697 -1.314,-2.787 0.045,-0.867 0.428,-1.676 1.073,-2.257 1.297,-1.166 3.712,-3.316 6.41,-5.62 C -7.679,9.305 -6.086,5.437 -5.134,2.454 -4.449,0.305 -2.101,-0.82 0,0"
       style="fill:#4d4d4d;fill-opacity:1;fill-rule:nonzero;stroke:none;stroke-width:1.10864"
       transform="matrix(1.0225055,0.72309915,1.0764854,-0.65330436,1138.2026,505.16775)"
       clip-path="url(#clipPath347)" />
    <path
       id="path354"
       d="M 0,0 3.369,0.172 C 3.421,0.175 3.473,0.176 3.526,0.175 L 8.286,0.109 C 8.818,0.102 9.338,0.27 9.766,0.588 l 2.544,1.89 c 0.764,0.568 1.125,1.531 0.922,2.461 l -2.148,9.874 c -0.073,0.337 -0.217,0.654 -0.423,0.931 L 9.596,17.177 C 9,17.98 7.972,18.334 7.008,18.069 L 4.12,17.276 C 3.83,17.196 3.558,17.063 3.316,16.884 L 0.581,14.851 C -0.126,14.326 -0.493,13.459 -0.377,12.586 L -0.206,11.301 0.073,8.112 C 0.121,7.572 -0.014,7.032 -0.31,6.578 L -2.155,3.743 C -3.063,2.349 -2.328,0.475 -0.714,0.07 v 0 C -0.481,0.011 -0.24,-0.012 0,0"
       style="fill:#4d4d4d;fill-opacity:1;fill-rule:nonzero;stroke:none;stroke-width:0.879695"
       transform="matrix(0.21348307,-1.3399262,-1.6874704,-0.169515,1128.3378,400.88014)"
       clip-path="url(#clipPath355)" />
    <path
       style="fill:#4d4d4d;fill-opacity:1;stroke:none;stroke-width:1px;stroke-linecap:round;stroke-linejoin:round;stroke-opacity:1"
       d="m 1030.4085,390.71716 c 26.7829,14.52311 -27.5662,47.57836 -16.3114,11.53234 4.2012,-6.28635 10.3167,-9.48049 16.3114,-11.53234 z"
       id="path17492" />
    <path
       id="rect18937"
       style="opacity:1;fill:#4d4d4d;stroke-width:9.00001;stroke-linecap:round;stroke-linejoin:round"
       d="m 955.39239,380.69869 c 8.2402,-3.88757 12.23425,-11.61775 20.23751,-15.74226 2.19599,-1.07368 4.70214,-1.9396 7.27554,-1.99033 6.61316,0.9448 11.45983,6.49865 10.68041,11.90304 -0.36246,3.38945 -3.40857,6.33753 -7.30807,7.43174 -2.09514,0.34611 -2.38943,2.51007 -3.87246,3.59965 -2.90662,3.03391 -7.22792,5.74353 -12.1783,5.51903 -4.63865,-0.21647 -8.23563,-3.19921 -10.36871,-6.34673 -0.81764,-1.63848 -2.61481,-2.69282 -4.01185,-3.9886 l -0.22703,-0.19277 z" />
    <path
       style="fill:#4d4d4d;fill-opacity:1;stroke:none;stroke-width:1px;stroke-linecap:butt;stroke-linejoin:miter;stroke-opacity:1"
       d="m 1161.7657,528.47225 c 0.8051,-2.40999 2.7529,-4.36734 5.0842,-5.37798 2.3313,-1.01063 5.0077,-1.11069 7.47,-0.48336 2.4623,0.62733 4.7153,1.95355 6.6135,3.64271 1.8981,1.68916 3.4548,3.73457 4.7756,5.9052 2.3446,3.85307 3.9981,8.29009 3.717,12.79168 -0.1405,2.2508 -0.7738,4.48473 -1.9499,6.40893 -1.1762,1.9242 -2.9066,3.52699 -4.9706,4.43562 -1.6399,0.72192 -3.4736,0.99775 -5.2533,0.79022 -4.0192,-4.65059 -7.8164,-9.49311 -11.3742,-14.50553 -1.426,-2.00902 -2.8267,-4.07004 -3.702,-6.37297 -0.8753,-2.30293 -1.191,-4.89781 -0.4103,-7.23452 z"
       id="path19492"
       inkscape:path-effect="#path-effect19494"
       inkscape:original-d="m 1161.7657,528.47225 c -1.3709,-4.53743 15.9622,2.45921 23.9433,3.68657 7.9812,1.22728 -1.5497,20.27868 -3.2035,23.63623 -1.6537,3.35754 -4.0881,-3.99129 -5.2533,0.79022 -7.1407,-10.86067 -0.2481,-18.53314 -11.3742,-14.50553 -2.8484,0.96965 -2.7415,-9.07014 -4.1123,-13.60749 z"
       sodipodi:nodetypes="sssccs" />
    <path
       style="color:#000000;fill:#252525;fill-opacity:1;stroke-linejoin:round;-inkscape-stroke:none"
       d="m 1161.6855,266.84375 a 4.50045,4.50045 0 0 0 -3.4257,0.96484 l -76.2774,61.86328 a 4.50045,4.50045 0 0 0 -1.6601,3.28125 l -3.1543,65.89649 -28.6582,27.03125 -14.584,-56.98047 a 4.50045,4.50045 0 0 0 -2.1914,-2.82812 l -65.80081,-36.16993 a 4.50045,4.50045 0 0 0 -3.12109,-0.45507 l -57.72852,12.51367 a 4.50045,4.50045 0 0 0 -1.08593,8.4082 l 39.1875,19.92773 41.73242,35.95899 21.46683,41.20898 -38.59378,24.76953 a 4.50045,4.50045 0 0 0 -1.27149,1.22852 l -27.08008,39.17969 -37.13476,17.12304 a 4.50045,4.50045 0 0 0 1.07617,8.51368 l 56.14062,10.23047 a 4.50045,4.50045 0 0 0 3.91993,-1.17774 l 37.35349,-35.80273 49.041,-23.66016 24.4434,15.38477 -7.0332,60.17187 a 4.50045,4.50045 0 0 0 0.4375,2.52149 l 16.3066,32.89257 0.1153,38.29493 a 4.50045,4.50045 0 0 0 0.8125,2.56445 l 12.6777,18.12305 a 4.50045,4.50045 0 0 0 7.8066,-0.76954 l 27.7247,-63.0664 a 4.50045,4.50045 0 0 0 0.164,-3.1875 l -10.3437,-32.18555 -3.8321,-45.95703 39.6153,19.3418 43.7402,63.41406 a 4.50045,4.50045 0 0 0 8.1172,-1.67578 l 7.4453,-37.36133 a 4.50045,4.50045 0 0 0 -0.1836,-2.41211 l -25.1445,-69.35742 a 4.50045,4.50045 0 0 0 -3.5332,-2.91211 l -65.3438,-10.24609 -17.3457,-20.39063 27.7305,-35.76953 a 4.50045,4.50045 0 0 0 0.9336,-3.03906 l -3.5352,-56.32032 23.1094,-29.45898 a 4.50045,4.50045 0 0 0 0.8828,-1.93945 l 9.9121,-52.38868 a 4.50045,4.50045 0 0 0 -3.8301,-5.29687 z m -7.2968,15.69336 -7.4258,39.24023 -23.4902,29.94336 a 4.50045,4.50045 0 0 0 -0.9512,3.06055 l 3.5371,56.33398 -28.9297,37.31641 a 4.50045,4.50045 0 0 0 0.1289,5.67383 l 20.7969,24.44531 a 4.50045,4.50045 0 0 0 2.7305,1.5293 l 64.3652,10.09375 23.8105,65.67383 -5.1211,25.69921 -38.3691,-55.6289 a 4.50045,4.50045 0 0 0 -1.7305,-1.49024 l -47.7929,-23.33398 a 4.50045,4.50045 0 0 0 -6.459,4.41797 l 4.5332,54.36133 a 4.50045,4.50045 0 0 0 0.1992,1.0039 l 9.9785,31.05078 -23.8164,54.17969 -7.2812,-10.41015 -0.1153,-37.93165 a 4.50045,4.50045 0 0 0 -0.4668,-1.98632 l -16.1797,-32.63282 7.209,-61.66601 a 4.50045,4.50045 0 0 0 -2.0742,-4.33203 l -28.9531,-18.22266 a 4.50045,4.50045 0 0 0 -4.3516,-0.24609 l -51.92967,25.05273 a 4.50045,4.50045 0 0 0 -1.1582,0.80469 L 958.87305,539.24414 919,531.97852 944.32617,520.30078 a 4.50045,4.50045 0 0 0 1.81641,-1.52734 l 27.26758,-39.45313 41.29684,-26.50195 a 4.50045,4.50045 0 0 0 1.5606,-5.86524 L 992.5,401.33008 A 4.50045,4.50045 0 0 0 991.44727,400 L 948.64648,363.12305 A 4.50045,4.50045 0 0 0 947.75,362.51953 l -28.4043,-14.44141 43.72657,-9.47851 62.61913,34.41992 15.9922,62.48828 a 4.50045,4.50045 0 0 0 7.4473,2.15821 l 35.5312,-33.51563 a 4.50045,4.50045 0 0 0 1.4082,-3.05859 l 3.1465,-65.69727 z"
       id="path22753" />
  </g>
</svg>
