<?xml version="1.0" encoding="UTF-8" standalone="no"?>
<!-- Created with Inkscape (http://www.inkscape.org/) -->

<svg
   version="1.1"
   id="svg1"
   width="540.06885"
   height="546.04102"
   viewBox="0 0 540.06884 546.04102"
   sodipodi:docname="birch_tree_leaves_1.svg"
   inkscape:version="1.4.2 (1:1.4.2+202505120737+ebf0e940d0)"
   xmlns:inkscape="http://www.inkscape.org/namespaces/inkscape"
   xmlns:sodipodi="http://sodipodi.sourceforge.net/DTD/sodipodi-0.dtd"
   xmlns="http://www.w3.org/2000/svg"
   xmlns:svg="http://www.w3.org/2000/svg">
  <defs
     id="defs1">
    <inkscape:path-effect
       effect="spiro"
       id="path-effect19494"
       is_visible="true"
       lpeversion="1" />
    <clipPath
       clipPathUnits="userSpaceOnUse"
       id="clipPath335">
      <path
         d="M 0,1024.578 H 1011.378 V 0 H 0 Z"
         transform="translate(-876.54145,-651.52512)"
         id="path335" />
    </clipPath>
    <clipPath
       clipPathUnits="userSpaceOnUse"
       id="clipPath337">
      <path
         d="M 0,1024.578 H 1011.378 V 0 H 0 Z"
         transform="translate(-747.72332,-732.61212)"
         id="path337" />
    </clipPath>
    <clipPath
       clipPathUnits="userSpaceOnUse"
       id="clipPath341">
      <path
         d="M 0,1024.578 H 1011.378 V 0 H 0 Z"
         transform="translate(-795.21204,-642.93862)"
         id="path341" />
    </clipPath>
    <clipPath
       clipPathUnits="userSpaceOnUse"
       id="clipPath343">
      <path
         d="M 0,1024.578 H 1011.378 V 0 H 0 Z"
         transform="translate(-833.8096,-588.09361)"
         id="path343" />
    </clipPath>
    <clipPath
       clipPathUnits="userSpaceOnUse"
       id="clipPath345">
      <path
         d="M 0,1024.578 H 1011.378 V 0 H 0 Z"
         transform="translate(-830.13272,-660.04432)"
         id="path345" />
    </clipPath>
    <clipPath
       clipPathUnits="userSpaceOnUse"
       id="clipPath347">
      <path
         d="M 0,1024.578 H 1011.378 V 0 H 0 Z"
         transform="translate(-814.5658,-697.56792)"
         id="path347" />
    </clipPath>
    <clipPath
       clipPathUnits="userSpaceOnUse"
       id="clipPath351">
      <path
         d="M 0,1024.578 H 1011.378 V 0 H 0 Z"
         transform="translate(-742.49462,-667.18482)"
         id="path351" />
    </clipPath>
    <clipPath
       clipPathUnits="userSpaceOnUse"
       id="clipPath353">
      <path
         d="M 0,1024.578 H 1011.378 V 0 H 0 Z"
         transform="translate(-775.31042,-678.43912)"
         id="path353" />
    </clipPath>
    <clipPath
       clipPathUnits="userSpaceOnUse"
       id="clipPath355">
      <path
         d="M 0,1024.578 H 1011.378 V 0 H 0 Z"
         transform="translate(-818.15222,-743.45352)"
         id="path355" />
    </clipPath>
    <clipPath
       clipPathUnits="userSpaceOnUse"
       id="clipPath363">
      <path
         d="M 0,1024.578 H 1011.378 V 0 H 0 Z"
         transform="translate(-745.46452,-684.07242)"
         id="path363" />
    </clipPath>
    <clipPath
       clipPathUnits="userSpaceOnUse"
       id="clipPath366">
      <path
         d="m 732.893,680.688 h 225.69 V 454.999 h -225.69 z"
         transform="translate(-958.58282,-567.84331)"
         id="path366" />
    </clipPath>
    <clipPath
       clipPathUnits="userSpaceOnUse"
       id="clipPath367">
      <path
         d="m 732.893,680.688 h 225.69 V 454.999 h -225.69 z"
         transform="matrix(1.3333333,0,0,-1.3333333,0,1366.1067)"
         id="path367" />
    </clipPath>
    <clipPath
       clipPathUnits="userSpaceOnUse"
       id="clipPath369">
      <path
         d="M 0,1024.578 H 1011.378 V 0 H 0 Z"
         transform="matrix(1.3333333,0,0,-1.3333333,0,1366.1067)"
         id="path369" />
    </clipPath>
    <clipPath
       clipPathUnits="userSpaceOnUse"
       id="clipPath370">
      <path
         d="M 747.249,881.722 H 934.528 V 694.443 H 747.249 Z"
         transform="translate(-934.528,-788.08252)"
         id="path370" />
    </clipPath>
    <clipPath
       clipPathUnits="userSpaceOnUse"
       id="clipPath371">
      <path
         d="M 747.249,881.722 H 934.528 V 694.443 H 747.249 Z"
         transform="matrix(1.3333333,0,0,-1.3333333,0,1366.1067)"
         id="path371" />
    </clipPath>
    <clipPath
       clipPathUnits="userSpaceOnUse"
       id="clipPath373">
      <path
         d="M 0,1024.578 H 1011.378 V 0 H 0 Z"
         transform="matrix(1.3333333,0,0,-1.3333333,0,1366.1067)"
         id="path373" />
    </clipPath>
    <clipPath
       clipPathUnits="userSpaceOnUse"
       id="clipPath374">
      <path
         d="M 588.881,796.567 H 754.123 V 631.325 H 588.881 Z"
         transform="translate(-754.12299,-713.94602)"
         id="path374" />
    </clipPath>
    <clipPath
       clipPathUnits="userSpaceOnUse"
       id="clipPath375">
      <path
         d="M 588.881,796.567 H 754.123 V 631.325 H 588.881 Z"
         transform="matrix(1.3333333,0,0,-1.3333333,0,1366.1067)"
         id="path375" />
    </clipPath>
    <clipPath
       clipPathUnits="userSpaceOnUse"
       id="clipPath377">
      <path
         d="M 0,1024.578 H 1011.378 V 0 H 0 Z"
         transform="matrix(1.3333333,0,0,-1.3333333,0,1366.1067)"
         id="path377" />
    </clipPath>
    <clipPath
       clipPathUnits="userSpaceOnUse"
       id="clipPath378">
      <path
         d="M 602.102,690.741 H 773.674 V 519.169 H 602.102 Z"
         transform="translate(-773.67384,-604.95502)"
         id="path378" />
    </clipPath>
    <clipPath
       clipPathUnits="userSpaceOnUse"
       id="clipPath379">
      <path
         d="M 602.102,690.741 H 773.674 V 519.169 H 602.102 Z"
         transform="matrix(1.3333333,0,0,-1.3333333,0,1366.1067)"
         id="path379" />
    </clipPath>
    <clipPath
       clipPathUnits="userSpaceOnUse"
       id="clipPath381">
      <path
         d="M 0,1024.578 H 1011.378 V 0 H 0 Z"
         transform="matrix(1.3333333,0,0,-1.3333333,0,1366.1067)"
         id="path381" />
    </clipPath>
    <clipPath
       clipPathUnits="userSpaceOnUse"
       id="clipPath382">
      <path
         d="M 838.879,760.009 H 993.933 V 604.955 H 838.879 Z"
         transform="translate(-993.93265,-682.48212)"
         id="path382" />
    </clipPath>
    <clipPath
       clipPathUnits="userSpaceOnUse"
       id="clipPath383">
      <path
         d="M 838.879,760.009 H 993.933 V 604.955 H 838.879 Z"
         transform="matrix(1.3333333,0,0,-1.3333333,0,1366.1067)"
         id="path383" />
    </clipPath>
    <clipPath
       clipPathUnits="userSpaceOnUse"
       id="clipPath385">
      <path
         d="M 0,1024.578 H 1011.378 V 0 H 0 Z"
         transform="matrix(1.3333333,0,0,-1.3333333,0,1366.1067)"
         id="path385" />
    </clipPath>
    <clipPath
       clipPathUnits="userSpaceOnUse"
       id="clipPath386">
      <path
         d="M 788.147,678.211 H 893.63 V 573.577 H 788.147 Z"
         transform="translate(-840.88855,-678.21142)"
         id="path386" />
    </clipPath>
    <clipPath
       clipPathUnits="userSpaceOnUse"
       id="clipPath387">
      <path
         d="M 788.147,678.211 H 893.63 V 573.577 H 788.147 Z"
         transform="matrix(1.3333333,0,0,-1.3333333,0,1366.1067)"
         id="path387" />
    </clipPath>
    <clipPath
       clipPathUnits="userSpaceOnUse"
       id="clipPath389">
      <path
         d="M 0,1024.578 H 1011.378 V 0 H 0 Z"
         transform="matrix(1.3333333,0,0,-1.3333333,0,1366.1067)"
         id="path389" />
    </clipPath>
    <clipPath
       clipPathUnits="userSpaceOnUse"
       id="clipPath390">
      <path
         d="M 630.446,656.029 H 745.33 V 541.145 H 630.446 Z"
         transform="translate(-745.32982,-598.58731)"
         id="path390" />
    </clipPath>
    <clipPath
       clipPathUnits="userSpaceOnUse"
       id="clipPath391">
      <path
         d="M 630.446,656.029 H 745.33 V 541.145 H 630.446 Z"
         transform="matrix(1.3333333,0,0,-1.3333333,0,1366.1067)"
         id="path391" />
    </clipPath>
    <clipPath
       clipPathUnits="userSpaceOnUse"
       id="clipPath393">
      <path
         d="M 0,1024.578 H 1011.378 V 0 H 0 Z"
         transform="matrix(1.3333333,0,0,-1.3333333,0,1366.1067)"
         id="path393" />
    </clipPath>
    <clipPath
       clipPathUnits="userSpaceOnUse"
       id="clipPath394">
      <path
         d="M 639.699,821.328 H 799.184 V 663.165 H 639.699 Z"
         transform="translate(-719.44132,-821.32832)"
         id="path394" />
    </clipPath>
    <clipPath
       clipPathUnits="userSpaceOnUse"
       id="clipPath395">
      <path
         d="M 639.699,821.328 H 799.184 V 663.165 H 639.699 Z"
         transform="matrix(1.3333333,0,0,-1.3333333,0,1366.1067)"
         id="path395" />
    </clipPath>
    <clipPath
       clipPathUnits="userSpaceOnUse"
       id="clipPath397">
      <path
         d="M 0,1024.578 H 1011.378 V 0 H 0 Z"
         transform="matrix(1.3333333,0,0,-1.3333333,0,1366.1067)"
         id="path397" />
    </clipPath>
    <clipPath
       clipPathUnits="userSpaceOnUse"
       id="clipPath431">
      <path
         d="M 763.168,802.523 H 868.203 V 697.488 H 763.168 Z"
         transform="translate(-868.20325,-750.00562)"
         id="path431" />
    </clipPath>
    <clipPath
       clipPathUnits="userSpaceOnUse"
       id="clipPath432">
      <path
         d="M 763.168,802.523 H 868.203 V 697.488 H 763.168 Z"
         transform="matrix(1.3333333,0,0,-1.3333333,0,1366.1067)"
         id="path432" />
    </clipPath>
    <clipPath
       clipPathUnits="userSpaceOnUse"
       id="clipPath434">
      <path
         d="M 0,1024.578 H 1011.378 V 0 H 0 Z"
         transform="matrix(1.3333333,0,0,-1.3333333,0,1366.1067)"
         id="path434" />
    </clipPath>
    <clipPath
       clipPathUnits="userSpaceOnUse"
       id="clipPath532">
      <path
         d="M 0,1024.578 H 1011.378 V 0 H 0 Z"
         transform="translate(-592.17131,-583.51621)"
         id="path532" />
    </clipPath>
    <clipPath
       clipPathUnits="userSpaceOnUse"
       id="clipPath538">
      <path
         d="M 0,1024.578 H 1011.378 V 0 H 0 Z"
         transform="translate(-518.11001,-548.24371)"
         id="path538" />
    </clipPath>
    <clipPath
       clipPathUnits="userSpaceOnUse"
       id="clipPath564">
      <path
         d="M 0,1024.578 H 1011.378 V 0 H 0 Z"
         transform="translate(-518.11001,-548.24371)"
         id="path564" />
    </clipPath>
    <clipPath
       clipPathUnits="userSpaceOnUse"
       id="clipPath569">
      <path
         d="m 558.235,647.416 h 42.347 v -42.348 h -42.347 z"
         transform="translate(-592.14671,-609.33042)"
         id="path569" />
    </clipPath>
    <clipPath
       clipPathUnits="userSpaceOnUse"
       id="clipPath570">
      <path
         d="m 558.235,647.416 h 42.347 v -42.348 h -42.347 z"
         transform="matrix(1.3333333,0,0,-1.3333333,0,1366.1067)"
         id="path570" />
    </clipPath>
    <clipPath
       clipPathUnits="userSpaceOnUse"
       id="clipPath572">
      <path
         d="M 0,1024.578 H 1011.378 V 0 H 0 Z"
         transform="matrix(1.3333333,0,0,-1.3333333,0,1366.1067)"
         id="path572" />
    </clipPath>
    <clipPath
       clipPathUnits="userSpaceOnUse"
       id="clipPath573">
      <path
         d="m 558.512,708.416 h 94.533 v -94.533 h -94.533 z"
         transform="translate(-634.21492,-623.39682)"
         id="path573" />
    </clipPath>
    <clipPath
       clipPathUnits="userSpaceOnUse"
       id="clipPath574">
      <path
         d="m 558.512,708.416 h 94.533 v -94.533 h -94.533 z"
         transform="matrix(1.3333333,0,0,-1.3333333,0,1366.1067)"
         id="path574" />
    </clipPath>
    <clipPath
       clipPathUnits="userSpaceOnUse"
       id="clipPath576">
      <path
         d="M 0,1024.578 H 1011.378 V 0 H 0 Z"
         transform="matrix(1.3333333,0,0,-1.3333333,0,1366.1067)"
         id="path576" />
    </clipPath>
    <clipPath
       clipPathUnits="userSpaceOnUse"
       id="clipPath585">
      <path
         d="m 534.689,628.492 h 78.267 v -78.267 h -78.267 z"
         transform="translate(-597.36652,-558.10251)"
         id="path585" />
    </clipPath>
    <clipPath
       clipPathUnits="userSpaceOnUse"
       id="clipPath586">
      <path
         d="m 534.689,628.492 h 78.267 v -78.267 h -78.267 z"
         transform="matrix(1.3333333,0,0,-1.3333333,0,1366.1067)"
         id="path586" />
    </clipPath>
    <clipPath
       clipPathUnits="userSpaceOnUse"
       id="clipPath588">
      <path
         d="M 0,1024.578 H 1011.378 V 0 H 0 Z"
         transform="matrix(1.3333333,0,0,-1.3333333,0,1366.1067)"
         id="path588" />
    </clipPath>
  </defs>
  <sodipodi:namedview
     id="namedview1"
     pagecolor="#505050"
     bordercolor="#999999"
     borderopacity="1"
     inkscape:showpageshadow="0"
     inkscape:pageopacity="0"
     inkscape:pagecheckerboard="true"
     inkscape:deskcolor="#d1d1d1"
     showgrid="false"
     inkscape:pageshadow="0"
     inkscape:zoom="1.9821425"
     inkscape:cx="227.02707"
     inkscape:cy="302.95501"
     inkscape:window-width="2560"
     inkscape:window-height="1368"
     inkscape:window-x="0"
     inkscape:window-y="0"
     inkscape:window-maximized="1"
     inkscape:current-layer="svg1"
     showguides="false" />
  <g
     id="layer-MC2"
     inkscape:groupmode="layer"
     inkscape:label="Layer 2"
     transform="translate(-785.17465,-190.478)">
    <g
       opacity="0.949493"
       id="g377"
       clip-path="url(#clipPath377)"
       style="fill:#457549;fill-opacity:0.8509804;opacity:0.94990441">
      <g
         opacity="0.8461"
         clip-path="url(#clipPath375)"
         id="g376"
         style="fill:#457549;fill-opacity:0.8509804">
        <path
           d="m 0,0 c 0,-45.63 -36.991,-82.621 -82.621,-82.621 -45.63,0 -82.621,36.991 -82.621,82.621 0,45.63 36.991,82.621 82.621,82.621 C -36.991,82.621 0,45.63 0,0"
           style="fill:#457549;fill-opacity:0.8509804;fill-rule:nonzero;stroke:none"
           transform="matrix(1.3333333,0,0,-1.3333333,1005.4973,414.17867)"
           clip-path="url(#clipPath374)"
           id="path376" />
      </g>
    </g>
    <g
       opacity="0.949493"
       id="g373"
       clip-path="url(#clipPath373)"
       style="fill:#457549;fill-opacity:0.847059">
      <g
         opacity="0.8461"
         clip-path="url(#clipPath371)"
         id="g372"
         style="fill:#457549;fill-opacity:0.847059">
        <path
           d="m 0,0 c 0,-51.716 -41.924,-93.64 -93.64,-93.64 -51.715,0 -93.639,41.924 -93.639,93.64 0,51.716 41.924,93.639 93.639,93.639 C -41.924,93.639 0,51.716 0,0"
           style="fill:#457549;fill-opacity:0.8509804;fill-rule:nonzero;stroke:none;opacity:0.94990441"
           transform="matrix(1.3333333,0,0,-1.3333333,1246.0373,315.33)"
           clip-path="url(#clipPath370)"
           id="path372" />
      </g>
    </g>
    <g
       opacity="0.949493"
       id="g385"
       clip-path="url(#clipPath385)"
       style="fill:#4f8553;fill-opacity:0.803922"
       transform="translate(-1.2896898e-5,-1.098536e-5)">
      <g
         opacity="0.8461"
         clip-path="url(#clipPath383)"
         id="g384"
         style="fill:#4f8553;fill-opacity:0.803922">
        <path
           d="m 0,0 c 0,-42.817 -34.71,-77.527 -77.527,-77.527 -42.817,0 -77.527,34.71 -77.527,77.527 0,42.817 34.71,77.527 77.527,77.527 C -34.71,77.527 0,42.817 0,0"
           style="fill:#4f8553;fill-opacity:0.803922;fill-rule:nonzero;stroke:none"
           transform="matrix(1.3333333,0,0,-1.3333333,1325.2435,456.13053)"
           clip-path="url(#clipPath382)"
           id="path384" />
      </g>
    </g>
    <g
       opacity="0.799698"
       id="g397"
       clip-path="url(#clipPath397)"
       style="fill:#4f8553;fill-opacity:0.803922">
      <g
         opacity="0.803894"
         clip-path="url(#clipPath395)"
         id="g396"
         style="fill:#4f8553;fill-opacity:0.803922">
        <path
           d="m 0,0 c 44.041,0 79.743,-35.406 79.743,-79.082 0,-43.676 -35.702,-79.082 -79.743,-79.082 -44.041,0 -79.743,35.406 -79.743,79.082 C -79.743,-35.406 -44.041,0 0,0"
           style="fill:#4f8553;fill-opacity:0.803922;fill-rule:nonzero;stroke:none"
           transform="matrix(1.3333333,0,0,-1.3333333,959.25507,271.00227)"
           clip-path="url(#clipPath394)"
           id="path396" />
      </g>
    </g>
    <g
       opacity="0.949493"
       id="g369"
       clip-path="url(#clipPath369)"
       transform="translate(-19.647775,-22.922342)"
       style="opacity:0.949904;fill:#457549;fill-opacity:0.85098">
      <g
         opacity="0.8461"
         clip-path="url(#clipPath367)"
         id="g368"
         style="fill:#457549;fill-opacity:0.85098">
        <path
           d="m 0,0 c 0,-62.322 -50.522,-112.845 -112.845,-112.845 -62.322,0 -112.844,50.523 -112.844,112.845 0,62.322 50.522,112.845 112.844,112.845 C -50.522,112.845 0,62.322 0,0"
           style="fill:#457549;fill-opacity:0.85098;fill-rule:nonzero;stroke:none"
           transform="matrix(1.3333333,0,0,-1.3333333,1278.1104,608.98227)"
           clip-path="url(#clipPath366)"
           id="path368" />
      </g>
    </g>
    <path
       d="m 925.77927,369.98148 c -8.05019,13.92608 -12.77208,48.65517 8.4977,45.66334 20.92436,-4.85688 4.03136,-35.56518 -8.48812,-45.66568 l -10e-4,-0.009 c -9.5e-4,0.003 -0.006,0.009 -0.008,0.0106 z"
       fill="#77a37a"
       id="path24"
       style="fill:#489157;fill-opacity:0.897981;stroke-width:2.05319" />
    <path
       d="m 886.38524,375.39487 0.0106,0.0106 c 2.60906,20.79388 25.0529,60.48827 44.77802,40.54465 17.89712,-21.59997 -23.819,-40.01165 -44.7687,-40.55351 l -0.0106,-0.0106 c 0.001,0.002 0.001,0.007 0.002,0.009 -0.004,-0.001 -0.006,-1.9e-4 -0.0117,-9e-5 z"
       fill="#5f926a"
       id="path26"
       style="fill:#52a664;fill-opacity:0.903002;stroke-width:2.05319" />
    <g
       opacity="0.949493"
       id="g381"
       clip-path="url(#clipPath381)"
       style="fill:#457549;fill-opacity:0.8509804;opacity:0.94990441">
      <g
         opacity="0.8461"
         clip-path="url(#clipPath379)"
         id="g380"
         style="fill:#457549;fill-opacity:0.8509804">
        <path
           d="m 0,0 c 0,-47.378 -38.408,-85.786 -85.786,-85.786 -47.378,0 -85.786,38.408 -85.786,85.786 0,47.378 38.408,85.786 85.786,85.786 C -38.408,85.786 0,47.378 0,0"
           style="fill:#457549;fill-opacity:0.8509804;fill-rule:nonzero;stroke:none"
           transform="matrix(1.3333333,0,0,-1.3333333,1031.5651,559.5)"
           clip-path="url(#clipPath378)"
           id="path380" />
      </g>
    </g>
    <g
       opacity="0.799698"
       id="g393"
       clip-path="url(#clipPath393)"
       style="fill:#4f8553;fill-opacity:0.803922">
      <g
         opacity="0.803894"
         clip-path="url(#clipPath391)"
         id="g392"
         style="fill:#4f8553;fill-opacity:0.803922">
        <path
           d="m 0,0 c 0,-31.724 -25.718,-57.442 -57.442,-57.442 -31.724,0 -57.442,25.718 -57.442,57.442 0,31.724 25.718,57.442 57.442,57.442 C -25.718,57.442 0,31.724 0,0"
           style="fill:#4f8553;fill-opacity:0.803922;fill-rule:nonzero;stroke:none"
           transform="matrix(1.3333333,0,0,-1.3333333,993.77307,567.99027)"
           clip-path="url(#clipPath390)"
           id="path392" />
      </g>
    </g>
    <path
       d="m 910.59816,642.54715 c -9.8571,-10.32857 -21.1929,-39.29495 -2.2197,-41.16434 19.0636,-0.18527 10.914,29.83328 2.2289,41.16346 l 2e-4,0.007 c 0,-10e-4 -0.01,-0.006 -0.01,-0.005 z"
       fill="#5f926a"
       id="path40"
       style="fill:#489157;fill-opacity:0.897981;stroke-width:1.82223" />
    <path
       d="m 878.89096,586.41201 0.01,0.006 c 11.281,-3.01126 36.1102,0.41184 29.4803,14.96528 -7.8346,13.94413 -25.2531,-4.07636 -29.484,-14.95851 -5e-4,-0.002 0,-0.006 0,-0.01 z"
       fill="#77a37a"
       id="path42"
       style="fill:#489157;fill-opacity:0.897981;stroke-width:1.82223" />
    <path
       d="m 872.55626,641.28587 0.012,-0.0121 c 0.3971,-18.59491 16.5721,-55.69235 35.8123,-39.89616 17.7784,17.42864 -17.3602,37.5051 -35.8044,39.90348 l -0.011,0.008 c -5e-4,-0.002 -2e-4,-0.007 -2e-4,-0.007 0,10e-4 -0.01,3.2e-4 -0.01,-6.3e-4 z"
       fill="#587e60"
       id="path44"
       style="fill:#52a664;fill-opacity:0.903002;stroke-width:1.82223" />
    <path
       d="m 1221.242,586.60516 c 10.4615,-12.21966 21.4547,-45.49989 0,-46.44782 -21.4591,0.94819 -10.4673,34.22769 -0.01,46.44852 v 10e-4 c 0,-0.002 0.01,-0.005 0.011,-0.007 z"
       fill="#5f926a"
       id="path46"
       style="fill:#489157;fill-opacity:0.897981;stroke-width:2.05319" />
    <path
       d="m 1279.6016,555.78875 -0.016,-0.004 c -11.8118,-17.30893 -49.9034,-42.37908 -58.3484,-15.62907 -6.0612,27.38864 39.4608,24.72234 58.3451,15.64055 l 0.016,0.004 c -9e-4,5e-4 -0.01,-0.008 -0.01,-0.008 0,-0.002 0.01,-0.003 0.01,-0.005 z"
       fill="#587e60"
       id="path48"
       style="fill:#52a664;fill-opacity:0.903002;stroke-width:2.05319" />
    <path
       d="m 1253.5039,521.52118 -0.01,0.004 c -12.874,-2.7019 -40.6015,2.65724 -32.2617,18.62629 9.6624,15.21295 28.1673,-6.12115 32.2632,-18.62721 l 0.01,-0.003 c 9e-4,-5e-4 0,0 0,0 0,-10e-4 -0.01,-0.008 0,-0.009 z"
       fill="#77a37a"
       id="path50"
       style="fill:#489157;fill-opacity:0.897981;stroke-width:2.05319" />
    <path
       d="m 1155.4371,630.10414 c 1.1982,13.62848 -7.6534,42.09415 -22.9726,32.13932 -14.3793,-11.26888 9.6857,-28.86236 22.9655,-32.14427 v -0.008 c 10e-4,0.003 0,0.0113 0,0.0113 z"
       fill="#5f926a"
       id="path28"
       style="fill:#489157;fill-opacity:0.897981;stroke-width:1.74631" />
    <path
       d="m 1165.1134,701.92884 -0.01,-0.008 c -17.5604,-3.0554 -50.378,-23.72239 -32.6406,-39.67714 19.0725,-14.33514 33.0346,21.85021 32.6489,39.66883 l 0.01,0.0113 c 0,-10e-4 -0.01,-0.002 -0.01,-10e-4 0,0.003 0,0.004 -10e-4,0.008 z"
       fill="#587e60"
       id="path30"
       style="fill:#52a664;fill-opacity:0.903002;stroke-width:1.74631" />
    <path
       d="m 1121.3361,691.91782 v -0.008 c -4.064,-10.42571 -3.4416,-34.43671 11.1257,-29.66608 14.1122,5.98152 -1.2024,24.4848 -11.1191,29.66937 0,0 -0.01,0.002 -0.01,0.004 z"
       fill="#77a37a"
       id="path32"
       style="fill:#489157;fill-opacity:0.897981;stroke-width:1.74631" />
    <g
       opacity="0.799698"
       id="g389"
       clip-path="url(#clipPath389)"
       style="fill:#4f8553;fill-opacity:0.803922">
      <g
         opacity="0.803894"
         clip-path="url(#clipPath387)"
         id="g388"
         style="fill:#4f8553;fill-opacity:0.803922">
        <path
           d="m 0,0 c 29.128,0 52.742,-23.423 52.742,-52.317 0,-28.894 -23.614,-52.317 -52.742,-52.317 -29.128,0 -52.742,23.423 -52.742,52.317 C -52.742,-23.423 -29.128,0 0,0"
           style="fill:#4f8553;fill-opacity:0.803922;fill-rule:nonzero;stroke:none"
           transform="matrix(1.3333333,0,0,-1.3333333,1121.1847,461.8248)"
           clip-path="url(#clipPath386)"
           id="path388" />
      </g>
    </g>
    <g
       opacity="0.949493"
       id="g434"
       clip-path="url(#clipPath434)"
       style="fill:#4f8553;fill-opacity:0.803922">
      <g
         opacity="0.8461"
         clip-path="url(#clipPath432)"
         id="g433"
         style="fill:#4f8553;fill-opacity:0.803922">
        <path
           d="m 0,0 c 0,-29.005 -23.513,-52.517 -52.518,-52.517 -29.004,0 -52.517,23.512 -52.517,52.517 0,29.005 23.513,52.517 52.517,52.517 C -23.513,52.517 0,29.005 0,0"
           style="fill:#4f8553;fill-opacity:0.803922;fill-rule:nonzero;stroke:none"
           transform="matrix(1.3333333,0,0,-1.3333333,1157.6043,366.0992)"
           clip-path="url(#clipPath431)"
           id="path433" />
      </g>
    </g>
    <path
       d="m 1195.3697,297.68565 -0.01,0.002 c -12.1788,-3.81812 -39.8891,-1.45093 -33.8836,14.50084 7.3899,15.35943 28.2375,-3.04788 33.8869,-14.49301 0,-10e-4 0,-0.0102 2e-4,-0.0117 z"
       fill="#5f926a"
       id="path34"
       style="fill:#489157;fill-opacity:0.897981;stroke-width:1.6292" />
    <path
       d="m 1179.3094,267.68438 v 0.0132 c -14.7531,7.67209 -38.1022,35.31328 -17.8254,44.49396 21.0049,7.36264 23.2062,-28.75331 17.8346,-44.49015 v -0.0132 c 0,10e-4 0,0.004 0,0.003 0,-0.001 0,-0.009 0,-0.009 z"
       fill="#587e60"
       id="path36"
       style="fill:#52a664;fill-opacity:0.903002;stroke-width:1.6292" />
    <path
       d="m 1150.6425,284.02369 v 0.009 c -4.6142,9.36439 -5.9595,31.73229 7.9622,28.4672 13.5966,-4.42816 0.845,-22.85503 -7.9559,-28.4689 -9e-4,-6.1e-4 -0.01,-0.007 -0.01,-0.006 z"
       fill="#77a37a"
       id="path38"
       style="fill:#489157;fill-opacity:0.897981;stroke-width:1.6292" />
  </g>
</svg>
