<svg xmlns="http://www.w3.org/2000/svg" width="147.896" height="160.007" viewBox="0 0 39.131 42.335"><g transform="translate(-81.171 -134.106)"><rect width="37.619" height="40.823" x="81.927" y="134.862" ry="0" style="fill:#666;fill-opacity:1;stroke:#262626;stroke-width:1.51199;stroke-dasharray:none;stroke-opacity:1;paint-order:fill markers stroke;stop-color:#000;stroke-linejoin:round"/><circle cx="90.475" cy="144.14" r="5.371" style="fill:#454545;fill-opacity:1;stroke:#262626;stroke-width:1.14166;stroke-dasharray:none;stroke-opacity:1;paint-order:fill markers stroke;stop-color:#000"/><path d="M90.225 138.647h.516v10.917h-.516z" style="fill:#262626;fill-opacity:1;stroke:none;stroke-width:1.60151;stroke-dasharray:none;stroke-opacity:1;paint-order:fill markers stroke;stop-color:#000"/><path d="M-144.406 85.152h.516v10.917h-.516z" style="fill:#262626;fill-opacity:1;stroke:none;stroke-width:1.60151;stroke-dasharray:none;stroke-opacity:1;paint-order:fill markers stroke;stop-color:#000" transform="rotate(-90)"/><path d="M-142.886 85.478h.516v9.71h-.516z" style="fill:#262626;fill-opacity:1;stroke:none;stroke-width:1.5104;stroke-dasharray:none;stroke-opacity:1;paint-order:fill markers stroke;stop-color:#000" transform="rotate(-90)"/><path d="M-141.367 85.923h.516v9.345h-.516z" style="fill:#262626;fill-opacity:1;stroke:none;stroke-width:1.48177;stroke-dasharray:none;stroke-opacity:1;paint-order:fill markers stroke;stop-color:#000" transform="rotate(-90)"/><path d="M-139.939 87.26h.516v6.686h-.516z" style="fill:#262626;fill-opacity:1;stroke:none;stroke-width:1.25338;stroke-dasharray:none;stroke-opacity:1;paint-order:fill markers stroke;stop-color:#000" transform="rotate(-90)"/><path d="M145.303 85.564h.516v9.71h-.516z" style="fill:#262626;fill-opacity:1;stroke:none;stroke-width:1.5104;stroke-dasharray:none;stroke-opacity:1;paint-order:fill markers stroke;stop-color:#000" transform="matrix(0 1 1 0 0 0)"/><path d="M146.822 86.009h.516v9.345h-.516z" style="fill:#262626;fill-opacity:1;stroke:none;stroke-width:1.48177;stroke-dasharray:none;stroke-opacity:1;paint-order:fill markers stroke;stop-color:#000" transform="matrix(0 1 1 0 0 0)"/><path d="M148.25 87.346h.516v6.686h-.516z" style="fill:#262626;fill-opacity:1;stroke:none;stroke-width:1.25338;stroke-dasharray:none;stroke-opacity:1;paint-order:fill markers stroke;stop-color:#000" transform="matrix(0 1 1 0 0 0)"/><path d="M88.796 139.417h.516v9.71h-.516z" style="fill:#262626;fill-opacity:1;stroke:none;stroke-width:1.5104;stroke-dasharray:none;stroke-opacity:1;paint-order:fill markers stroke;stop-color:#000"/><path d="M87.276 139.337h.516v9.345h-.516z" style="fill:#262626;fill-opacity:1;stroke:none;stroke-width:1.48177;stroke-dasharray:none;stroke-opacity:1;paint-order:fill markers stroke;stop-color:#000"/><path d="M85.848 140.658h.516v6.686h-.516z" style="fill:#262626;fill-opacity:1;stroke:none;stroke-width:1.25338;stroke-dasharray:none;stroke-opacity:1;paint-order:fill markers stroke;stop-color:#000"/><path d="M-92.244 139.331h.516v9.71h-.516z" style="fill:#262626;fill-opacity:1;stroke:none;stroke-width:1.5104;stroke-dasharray:none;stroke-opacity:1;paint-order:fill markers stroke;stop-color:#000" transform="scale(-1 1)"/><path d="M-93.763 139.251h.516v9.345h-.516z" style="fill:#262626;fill-opacity:1;stroke:none;stroke-width:1.48177;stroke-dasharray:none;stroke-opacity:1;paint-order:fill markers stroke;stop-color:#000" transform="scale(-1 1)"/><path d="M-95.191 140.572h.516v6.686h-.516z" style="fill:#262626;fill-opacity:1;stroke:none;stroke-width:1.25338;stroke-dasharray:none;stroke-opacity:1;paint-order:fill markers stroke;stop-color:#000" transform="scale(-1 1)"/><path d="M81.355 152.018h38.313v1.725H81.355z" style="fill:#262626;fill-opacity:1;stroke:none;stroke-width:2.3019;stroke-dasharray:none;stroke-opacity:1;paint-order:fill markers stroke;stop-color:#000"/><rect width="16.899" height="11.612" x="98.977" y="138.038" ry="2.483" style="fill:#4f4f4f;fill-opacity:1;stroke:#262626;stroke-width:1.94379;stroke-dasharray:none;stroke-opacity:1;paint-order:fill markers stroke;stop-color:#000"/><path d="m105.481 146.153-2.096.608 1.55-2.066-3.404-.122 3.95-1.154-2.309-2.887 5.135 2.005 1.216-1.884.03 2.401 3.464-.547-2.522 2.765 1.124 2.28-3.585-1.43z" style="fill:#242424;fill-opacity:1;stroke:none;stroke-width:1.70521;stroke-dasharray:none;stroke-opacity:1;paint-order:fill markers stroke;stop-color:#000"/><rect width="9.042" height="3.648" x="84.074" y="155.196" ry=".514" style="fill:gray;fill-opacity:1;stroke:none;stroke-width:2.83252;stroke-dasharray:none;stroke-opacity:1;paint-order:fill markers stroke;stop-color:#000"/><rect width="3.882" height="3.648" x="84.075" y="160.049" ry=".514" style="fill:gray;fill-opacity:1;stroke:none;stroke-width:1.856;stroke-dasharray:none;stroke-opacity:1;paint-order:fill markers stroke;stop-color:#000"/><rect width="3.882" height="3.648" x="89.241" y="160.046" ry=".514" style="fill:gray;fill-opacity:1;stroke:none;stroke-width:1.856;stroke-dasharray:none;stroke-opacity:1;paint-order:fill markers stroke;stop-color:#000"/><rect width="3.882" height="3.648" x="84.074" y="165.045" ry=".514" style="fill:gray;fill-opacity:1;stroke:none;stroke-width:1.856;stroke-dasharray:none;stroke-opacity:1;paint-order:fill markers stroke;stop-color:#000"/><rect width="3.882" height="3.648" x="89.24" y="165.042" ry=".514" style="fill:gray;fill-opacity:1;stroke:none;stroke-width:1.856;stroke-dasharray:none;stroke-opacity:1;paint-order:fill markers stroke;stop-color:#000"/><rect width="3.882" height="3.648" x="84.081" y="169.895" ry=".514" style="fill:gray;fill-opacity:1;stroke:none;stroke-width:1.856;stroke-dasharray:none;stroke-opacity:1;paint-order:fill markers stroke;stop-color:#000"/><rect width="3.882" height="3.648" x="89.247" y="169.892" ry=".514" style="fill:gray;fill-opacity:1;stroke:none;stroke-width:1.856;stroke-dasharray:none;stroke-opacity:1;paint-order:fill markers stroke;stop-color:#000"/><circle cx="100.03" cy="160.233" r="2.352" style="fill:#595959;fill-opacity:1;stroke:none;stroke-width:2.6939;stroke-dasharray:none;stroke-opacity:1;paint-order:fill markers stroke;stop-color:#000"/><circle cx="100.058" cy="169.472" r="2.352" style="fill:#595959;fill-opacity:1;stroke:none;stroke-width:2.6939;stroke-dasharray:none;stroke-opacity:1;paint-order:fill markers stroke;stop-color:#000"/><rect width="1.71" height="6.467" x="99.129" y="156.921" ry=".818" style="fill:#4d4d4d;fill-opacity:1;stroke:none;stroke-width:2.94966;stroke-dasharray:none;stroke-opacity:1;paint-order:fill markers stroke;stop-color:#000"/><rect width="1.71" height="6.467" x="51.96" y="186.344" ry=".818" style="fill:#737373;fill-opacity:1;stroke:none;stroke-width:2.94966;stroke-dasharray:none;stroke-opacity:1;paint-order:fill markers stroke;stop-color:#000" transform="rotate(-15)"/><rect width="1.731" height="22.808" x="94.48" y="153.055" ry=".831" style="fill:#262626;fill-opacity:1;stroke:none;stroke-width:1.87462;stroke-dasharray:none;stroke-opacity:1;paint-order:fill markers stroke;stop-color:#000"/><rect width="1.731" height="22.808" x="103.815" y="153.04" ry=".831" style="fill:#262626;fill-opacity:1;stroke:none;stroke-width:1.87462;stroke-dasharray:none;stroke-opacity:1;paint-order:fill markers stroke;stop-color:#000"/><path d="M108.84 157.899h6.711v12.718h-6.711z" style="fill:#737373;fill-opacity:1;stroke:#333;stroke-width:1.212;stroke-dasharray:none;stroke-opacity:1;paint-order:fill markers stroke;stop-color:#000;stroke-linejoin:round"/><path d="M111.537 158.286h1.22v11.926h-1.22z" style="fill:#333;fill-opacity:1;stroke:none;stroke-width:.677436;stroke-dasharray:none;stroke-opacity:1;paint-order:fill markers stroke;stop-color:#000"/><rect width="1.571" height="2.414" x="111.381" y="164.701" ry=".38" style="fill:#595959;fill-opacity:1;stroke:#333;stroke-width:.5;stroke-dasharray:none;stroke-opacity:1;paint-order:fill markers stroke;stop-color:#000"/><rect width="9.046" height=".935" x="84.073" y="156.836" ry="0" style="fill:#999;fill-opacity:1;stroke:none;stroke-width:.548002;stroke-dasharray:none;stroke-opacity:1;paint-order:fill markers stroke;stop-color:#000"/></g></svg>