<svg xmlns="http://www.w3.org/2000/svg" width="189.638" height="498.888" viewBox="0 0 50.175 131.998"><g transform="matrix(.26458 0 0 .26458 -2055.25 -1419.093)"><path d="M-5616.493 7784.605h154.128v154.128h-154.128z" class="cls-20" style="fill:#474437;stroke:#1e1a10;stroke-width:9.12601px;stroke-miterlimit:10;stroke-opacity:1" transform="rotate(-90)"/><path d="M7790.606 5556.014v-74.95h142.128v74.95l-19.266 14h-103.596z" class="cls-20" style="fill:#3e4d57;fill-opacity:1;stroke:#13181b;stroke-width:9.12756;stroke-linecap:round;stroke-linejoin:round;stroke-miterlimit:10;stroke-dasharray:none;stroke-opacity:1"/><path d="M7785.63 5696.712v-20.564c0-8.909 7.172-16.082 16.082-16.082h121.964c8.91 0 16.082 7.173 16.082 16.083v20.563c0 8.91-7.173 16.082-16.082 16.082h-19.81l3.964-34.76-86.596 4.27-5.793 30.49h-13.73a16.047 16.047 0 0 1-16.081-16.082z" class="cls-20" style="fill:#411f16;fill-opacity:1;stroke:#23110b;stroke-width:9.12601px;stroke-miterlimit:10;stroke-opacity:1"/><path d="M7784.606 5461.351v-53.215c0-22.125 17.968-40.073 40.073-40.073h76.557c21.254 0 38.492 17.258 38.492 38.491v54.797z" class="cls-21" style="fill:#ac5339;fill-opacity:1;stroke:#23110b;stroke-width:9.12601px;stroke-miterlimit:10;stroke-opacity:1"/><path d="M-5691.529 7785.63h75.036v154.128h-75.036z" class="cls-21" style="fill:#ac5339;fill-opacity:1;stroke:#23110b;stroke-width:9.12601px;stroke-miterlimit:10;stroke-opacity:1" transform="rotate(-90)"/><rect width="121.68" height="20.28" x="-5857.825" y="7893.115" class="cls-17" rx="6.084" ry="6.084" style="fill:#636363;fill-opacity:1;stroke:#242424;stroke-width:9.12601px;stroke-miterlimit:10;stroke-opacity:1" transform="rotate(-90)"/><rect width="121.68" height="20.28" x="-5857.825" y="7809.965" class="cls-17" rx="6.084" ry="6.084" style="fill:#636363;fill-opacity:1;stroke:#242424;stroke-width:9.12601px;stroke-miterlimit:10;stroke-opacity:1" transform="rotate(-90)"/><rect width="28.392" height="26.364" x="-5728.706" y="7803.881" class="cls-17" rx="5.09" ry="5.09" style="fill:#636363;fill-opacity:1;stroke:#171717;stroke-width:9.12601px;stroke-miterlimit:10;stroke-opacity:1" transform="rotate(-90)"/><rect width="28.392" height="28.392" x="-5728.706" y="7893.115" class="cls-17" rx="6.51" ry="6.51" style="fill:#636363;fill-opacity:1;stroke:#171717;stroke-width:9.12601px;stroke-miterlimit:10;stroke-opacity:1" transform="rotate(-90)"/><path d="M351.45 112.926c13.75-3.685 14.02 30.366 0 26.609-11.5-3.081-8.96-2.867-20.083-2.788-2.503.018-5.089-1.937-5.61-4.384-1-4.692-1.026-7.838-.074-12.214.54-2.482 3.211-4.453 5.752-4.436 11.361.076 8.559.283 20.014-2.787" style="fill:#4b4b4b;fill-opacity:1;fill-rule:evenodd;stroke:#171717;stroke-width:4.21486;stroke-linecap:round;stroke-linejoin:round;stroke-miterlimit:20;stroke-opacity:1" transform="matrix(0 -2.83713 2.83713 0 7517.678 6501.095)"/><path d="M7902.266 5514.74h-60.439l-4.389-23.358 8.899-9.158 19.31-8.501 21.98 1.24 20.28 7.475 4.947 8.485 1.376 5.275-4.266 18.541z" style="fill:#3d3d3d;fill-opacity:1;fill-rule:evenodd;stroke:#383838;stroke-width:5.98152;stroke-linecap:round;stroke-linejoin:round;stroke-miterlimit:20;stroke-dasharray:none;stroke-opacity:1"/><path d="M351.45 112.926c13.75-3.685 14.02 30.366 0 26.609-11.5-3.081-8.96-2.867-20.083-2.788-2.503.018-5.089-1.937-5.61-4.384-1-4.692-1.026-7.838-.074-12.214.54-2.482 3.211-4.453 5.752-4.436 11.361.076 8.559.283 20.014-2.787" style="fill:none;fill-rule:evenodd;stroke:#171717;stroke-width:4.21486;stroke-linecap:round;stroke-linejoin:round;stroke-miterlimit:20;stroke-opacity:1" transform="matrix(0 -2.83713 2.83713 0 7517.678 6501.095)"/><path d="M48.733-340.063h6.851a1.253 1.253 45 0 1 1.253 1.253v.968a2.59 2.59 115.852 0 1-.983 2.03l-3.695 2.917-3.695-2.918a2.59 2.59 64.148 0 1-.983-2.029v-.968a1.253 1.253 135 0 1 1.252-1.253" style="fill:#424242;fill-opacity:1;fill-rule:evenodd;stroke:#424242;stroke-width:2.1083;stroke-linecap:round;stroke-linejoin:round;stroke-miterlimit:20;stroke-opacity:1" transform="matrix(2.83713 0 0 2.83713 7727.842 6511.404)"/><path d="M7780.895 5423.674c-4.664 0-8.457 3.793-8.457 8.457v185.907c0 4.664 3.793 8.457 8.457 8.457h163.598c4.664 0 8.457-3.793 8.457-8.457V5432.13c0-4.664-3.793-8.457-8.457-8.457zm14.195 16.264h52.446c4.481.207 8.07 3.886 8.07 8.418l-.019.019v106.635h-60.686c-4.564-.115-8.246-3.844-8.246-8.436v-98.199c0-3.887 3.346-8.437 8.436-8.437zm82.762 0h52.445c5.09 0 8.438 4.55 8.438 8.438v98.199c0 4.592-3.681 8.32-8.246 8.435h-60.686v-106.635l-.023-.018c0-4.532 3.589-8.212 8.07-8.418zm-82.72 129.29h60.454v34.614c0 4.665-3.792 8.457-8.457 8.457h-52.21c-4.574-.105-8.264-3.839-8.264-8.437v-26.2c0-3.867 3.41-8.435 8.476-8.435zm74.671 0h60.453c5.066 0 8.479 4.567 8.479 8.435v26.199c0 4.598-3.69 8.332-8.264 8.437h-52.213c-4.664 0-8.455-3.792-8.455-8.457z" class="cls-16" style="fill:#4a4a4a;fill-opacity:1;stroke:#171717;stroke-width:9.12601px;stroke-miterlimit:10;stroke-opacity:1"/><path d="M7780.895 5423.674c-4.664 0-8.457 3.793-8.457 8.457v125.907c0 4.664 3.793 8.457 8.457 8.457h163.598c4.664 0 8.457-3.793 8.457-8.457V5432.13c0-4.664-3.793-8.457-8.457-8.457z" class="cls-16" style="fill:#616161;fill-opacity:1;stroke:#171717;stroke-width:9.12601px;stroke-miterlimit:10;stroke-opacity:1"/><path d="M7803.877 5669.507h117.632v30.55h-117.632z" style="fill:#636363;fill-opacity:1;fill-rule:evenodd;stroke:#171717;stroke-width:9.12;stroke-linecap:round;stroke-linejoin:round;stroke-dasharray:none;stroke-opacity:1"/><path d="M7788.354 5729.435h148.679v15.072h-148.679z" style="fill:#636363;fill-opacity:1;fill-rule:evenodd;stroke:#171717;stroke-width:9.12756;stroke-linecap:round;stroke-linejoin:round;stroke-dasharray:none;stroke-opacity:1"/></g></svg>