<svg xmlns="http://www.w3.org/2000/svg" width="390.567" height="238.736" viewBox="0 0 103.338 63.166"><g transform="rotate(90 384.957 118.859)"><path d="M293.34 486.862c-.567 0-1.025.458-1.025 1.026s.458 1.025 1.026 1.025h4.665v9.128h-4.665c-.568 0-1.026.457-1.026 1.025s.458 1.026 1.026 1.026h5.743c.544-.025.973-.433.973-.935v-11.358c0-.503-.43-.91-.973-.935h-.053zM319.303 424.108c0-.569-.457-1.026-1.026-1.026-.568 0-1.025.457-1.025 1.026v4.664h-9.127v-4.664c0-.569-.457-1.026-1.026-1.026-.568 0-1.025.457-1.025 1.026v5.743c.026.544.433.973.935.973h11.358c.503 0 .91-.43.935-.973l.001-.053z" style="display:inline;fill:gray;fill-opacity:1;stroke:#2e2e2e;stroke-width:.926042;stroke-miterlimit:4;stroke-dasharray:none;stroke-opacity:1"/><path d="M294.366 401.46h33.917v24.434h-33.167v76.94h-28.037V401.46Z" style="fill:#61341a;stroke:#1d0f07;stroke-width:1.962;stroke-linecap:round;stroke-linejoin:round;stroke-miterlimit:5;stroke-opacity:1;paint-order:fill markers stroke"/><rect width="1.964" height="31.419" x="424.904" y="-297.929" rx=".575" ry=".575" style="fill:#1d0f07;fill-opacity:1;stroke:none;stroke-width:1;stroke-linecap:round;stroke-linejoin:round;stroke-dasharray:none;stroke-opacity:1;stop-color:#000" transform="rotate(90)"/><rect width="1.964" height="29.236" x="483.112" y="-295.746" rx=".575" ry=".575" style="fill:#1d0f07;fill-opacity:1;stroke:none;stroke-width:1;stroke-linecap:round;stroke-linejoin:round;stroke-dasharray:none;stroke-opacity:1;stop-color:#000" transform="rotate(90)"/><rect width="1.964" height="29.236" x="-296.095" y="-430.013" rx=".575" ry=".575" style="fill:#1d0f07;fill-opacity:1;stroke:none;stroke-width:1;stroke-linecap:round;stroke-linejoin:round;stroke-dasharray:none;stroke-opacity:1;stop-color:#000" transform="scale(-1)"/></g><g style="stroke-width:.823847"><g style="stroke-width:.823847" transform="matrix(-1.21221 0 0 1.21543 224.261 101.14)"><path d="M123.482-71.876h26.746v10.45h-26.746z" style="fill:#3e3e3e;fill-opacity:1;stroke:#1f1f1f;stroke-width:1.20446;stroke-linecap:round;stroke-linejoin:round;stroke-miterlimit:5;stroke-dasharray:none;stroke-opacity:1;paint-order:fill markers stroke"/><rect width="1.423" height="1.423" x="124.853" y="-70.56" rx=".378" ry=".377" style="fill:#606060;fill-opacity:1;stroke:none;stroke-width:2.08737;stroke-linecap:round;stroke-linejoin:round;stroke-miterlimit:5;stroke-dasharray:none;stroke-opacity:1;paint-order:fill markers stroke"/><rect width="1.423" height="1.423" x="124.853" y="-63.819" rx=".378" ry=".377" style="fill:#606060;fill-opacity:1;stroke:none;stroke-width:2.08737;stroke-linecap:round;stroke-linejoin:round;stroke-miterlimit:5;stroke-dasharray:none;stroke-opacity:1;paint-order:fill markers stroke"/><rect width="1.423" height="1.423" x="126.559" y="-63.886" rx=".378" ry=".377" style="fill:#606060;fill-opacity:1;stroke:none;stroke-width:2.08737;stroke-linecap:round;stroke-linejoin:round;stroke-miterlimit:5;stroke-dasharray:none;stroke-opacity:1;paint-order:fill markers stroke"/><rect width="1.423" height="1.423" x="128.265" y="-63.886" rx=".378" ry=".377" style="fill:#606060;fill-opacity:1;stroke:none;stroke-width:2.08737;stroke-linecap:round;stroke-linejoin:round;stroke-miterlimit:5;stroke-dasharray:none;stroke-opacity:1;paint-order:fill markers stroke"/><rect width="1.423" height="1.423" x="129.971" y="-63.886" rx=".378" ry=".377" style="fill:#606060;fill-opacity:1;stroke:none;stroke-width:2.08737;stroke-linecap:round;stroke-linejoin:round;stroke-miterlimit:5;stroke-dasharray:none;stroke-opacity:1;paint-order:fill markers stroke"/><rect width="1.423" height="1.423" x="141.913" y="-63.85" rx=".378" ry=".377" style="fill:#606060;fill-opacity:1;stroke:none;stroke-width:2.08737;stroke-linecap:round;stroke-linejoin:round;stroke-miterlimit:5;stroke-dasharray:none;stroke-opacity:1;paint-order:fill markers stroke"/><rect width="1.423" height="1.423" x="143.619" y="-63.853" rx=".378" ry=".377" style="fill:#606060;fill-opacity:1;stroke:none;stroke-width:2.08737;stroke-linecap:round;stroke-linejoin:round;stroke-miterlimit:5;stroke-dasharray:none;stroke-opacity:1;paint-order:fill markers stroke"/><rect width="1.423" height="1.423" x="145.325" y="-63.826" rx=".378" ry=".377" style="fill:#606060;fill-opacity:1;stroke:none;stroke-width:2.08737;stroke-linecap:round;stroke-linejoin:round;stroke-miterlimit:5;stroke-dasharray:none;stroke-opacity:1;paint-order:fill markers stroke"/><rect width="1.866" height="1.423" x="147.032" y="-63.853" rx=".378" ry=".377" style="fill:#606060;fill-opacity:1;stroke:none;stroke-width:2.08737;stroke-linecap:round;stroke-linejoin:round;stroke-miterlimit:5;stroke-dasharray:none;stroke-opacity:1;paint-order:fill markers stroke"/><rect width="9.953" height="1.423" x="131.677" y="-63.886" rx=".378" ry=".377" style="fill:#606060;fill-opacity:1;stroke:none;stroke-width:2.08737;stroke-linecap:round;stroke-linejoin:round;stroke-miterlimit:5;stroke-dasharray:none;stroke-opacity:1;paint-order:fill markers stroke"/><rect width="2.279" height="1.423" x="124.865" y="-68.818" rx=".378" ry=".377" style="fill:#606060;fill-opacity:1;stroke:none;stroke-width:2.08737;stroke-linecap:round;stroke-linejoin:round;stroke-miterlimit:5;stroke-dasharray:none;stroke-opacity:1;paint-order:fill markers stroke"/><rect width="2.723" height="1.423" x="124.853" y="-67.193" rx=".378" ry=".377" style="fill:#606060;fill-opacity:1;stroke:none;stroke-width:2.08737;stroke-linecap:round;stroke-linejoin:round;stroke-miterlimit:5;stroke-dasharray:none;stroke-opacity:1;paint-order:fill markers stroke"/><rect width="3.412" height="1.423" x="124.853" y="-65.506" rx=".378" ry=".377" style="fill:#606060;fill-opacity:1;stroke:none;stroke-width:2.08737;stroke-linecap:round;stroke-linejoin:round;stroke-miterlimit:5;stroke-dasharray:none;stroke-opacity:1;paint-order:fill markers stroke"/><rect width="3.956" height="1.429" x="144.942" y="-65.513" rx=".378" ry=".377" style="fill:#606060;fill-opacity:1;stroke:none;stroke-width:2.08737;stroke-linecap:round;stroke-linejoin:round;stroke-miterlimit:5;stroke-dasharray:none;stroke-opacity:1;paint-order:fill markers stroke"/><rect width="1.423" height="1.423" x="126.559" y="-70.56" rx=".378" ry=".377" style="fill:#606060;fill-opacity:1;stroke:none;stroke-width:2.08737;stroke-linecap:round;stroke-linejoin:round;stroke-miterlimit:5;stroke-dasharray:none;stroke-opacity:1;paint-order:fill markers stroke"/><rect width="1.423" height="1.423" x="127.454" y="-68.818" rx=".378" ry=".377" style="fill:#606060;fill-opacity:1;stroke:none;stroke-width:2.08737;stroke-linecap:round;stroke-linejoin:round;stroke-miterlimit:5;stroke-dasharray:none;stroke-opacity:1;paint-order:fill markers stroke"/><rect width="1.423" height="1.423" x="127.943" y="-67.162" rx=".378" ry=".377" style="fill:#606060;fill-opacity:1;stroke:none;stroke-width:2.08737;stroke-linecap:round;stroke-linejoin:round;stroke-miterlimit:5;stroke-dasharray:none;stroke-opacity:1;paint-order:fill markers stroke"/><rect width="1.423" height="1.423" x="129.679" y="-67.162" rx=".378" ry=".377" style="fill:#606060;fill-opacity:1;stroke:none;stroke-width:2.08737;stroke-linecap:round;stroke-linejoin:round;stroke-miterlimit:5;stroke-dasharray:none;stroke-opacity:1;paint-order:fill markers stroke"/><rect width="1.423" height="1.423" x="131.374" y="-67.162" rx=".378" ry=".377" style="fill:#606060;fill-opacity:1;stroke:none;stroke-width:2.08737;stroke-linecap:round;stroke-linejoin:round;stroke-miterlimit:5;stroke-dasharray:none;stroke-opacity:1;paint-order:fill markers stroke"/><rect width="1.423" height="1.423" x="133.069" y="-67.162" rx=".378" ry=".377" style="fill:#606060;fill-opacity:1;stroke:none;stroke-width:2.08737;stroke-linecap:round;stroke-linejoin:round;stroke-miterlimit:5;stroke-dasharray:none;stroke-opacity:1;paint-order:fill markers stroke"/><rect width="1.423" height="1.423" x="134.764" y="-67.162" rx=".378" ry=".377" style="fill:#606060;fill-opacity:1;stroke:none;stroke-width:2.08737;stroke-linecap:round;stroke-linejoin:round;stroke-miterlimit:5;stroke-dasharray:none;stroke-opacity:1;paint-order:fill markers stroke"/><rect width="1.423" height="1.423" x="136.459" y="-67.162" rx=".378" ry=".377" style="fill:#606060;fill-opacity:1;stroke:none;stroke-width:2.08737;stroke-linecap:round;stroke-linejoin:round;stroke-miterlimit:5;stroke-dasharray:none;stroke-opacity:1;paint-order:fill markers stroke"/><rect width="1.423" height="1.423" x="138.154" y="-67.162" rx=".378" ry=".377" style="fill:#606060;fill-opacity:1;stroke:none;stroke-width:2.08737;stroke-linecap:round;stroke-linejoin:round;stroke-miterlimit:5;stroke-dasharray:none;stroke-opacity:1;paint-order:fill markers stroke"/><rect width="1.423" height="1.423" x="139.849" y="-67.162" rx=".378" ry=".377" style="fill:#606060;fill-opacity:1;stroke:none;stroke-width:2.08737;stroke-linecap:round;stroke-linejoin:round;stroke-miterlimit:5;stroke-dasharray:none;stroke-opacity:1;paint-order:fill markers stroke"/><rect width="1.423" height="1.423" x="141.544" y="-67.162" rx=".378" ry=".377" style="fill:#606060;fill-opacity:1;stroke:none;stroke-width:2.08737;stroke-linecap:round;stroke-linejoin:round;stroke-miterlimit:5;stroke-dasharray:none;stroke-opacity:1;paint-order:fill markers stroke"/><rect width="1.423" height="1.423" x="143.239" y="-67.165" rx=".378" ry=".377" style="fill:#606060;fill-opacity:1;stroke:none;stroke-width:2.08737;stroke-linecap:round;stroke-linejoin:round;stroke-miterlimit:5;stroke-dasharray:none;stroke-opacity:1;paint-order:fill markers stroke"/><rect width="1.423" height="1.423" x="128.654" y="-65.506" rx=".378" ry=".377" style="fill:#606060;fill-opacity:1;stroke:none;stroke-width:2.08737;stroke-linecap:round;stroke-linejoin:round;stroke-miterlimit:5;stroke-dasharray:none;stroke-opacity:1;paint-order:fill markers stroke"/><rect width="1.423" height="1.423" x="130.466" y="-65.506" rx=".378" ry=".377" style="fill:#606060;fill-opacity:1;stroke:none;stroke-width:2.08737;stroke-linecap:round;stroke-linejoin:round;stroke-miterlimit:5;stroke-dasharray:none;stroke-opacity:1;paint-order:fill markers stroke"/><rect width="1.423" height="1.423" x="132.278" y="-65.506" rx=".378" ry=".377" style="fill:#606060;fill-opacity:1;stroke:none;stroke-width:2.08737;stroke-linecap:round;stroke-linejoin:round;stroke-miterlimit:5;stroke-dasharray:none;stroke-opacity:1;paint-order:fill markers stroke"/><rect width="1.423" height="1.423" x="134.09" y="-65.506" rx=".378" ry=".377" style="fill:#606060;fill-opacity:1;stroke:none;stroke-width:2.08737;stroke-linecap:round;stroke-linejoin:round;stroke-miterlimit:5;stroke-dasharray:none;stroke-opacity:1;paint-order:fill markers stroke"/><rect width="1.423" height="1.423" x="135.902" y="-65.506" rx=".378" ry=".377" style="fill:#606060;fill-opacity:1;stroke:none;stroke-width:2.08737;stroke-linecap:round;stroke-linejoin:round;stroke-miterlimit:5;stroke-dasharray:none;stroke-opacity:1;paint-order:fill markers stroke"/><rect width="1.423" height="1.423" x="137.714" y="-65.506" rx=".378" ry=".377" style="fill:#606060;fill-opacity:1;stroke:none;stroke-width:2.08737;stroke-linecap:round;stroke-linejoin:round;stroke-miterlimit:5;stroke-dasharray:none;stroke-opacity:1;paint-order:fill markers stroke"/><rect width="1.423" height="1.423" x="139.526" y="-65.506" rx=".378" ry=".377" style="fill:#606060;fill-opacity:1;stroke:none;stroke-width:2.08737;stroke-linecap:round;stroke-linejoin:round;stroke-miterlimit:5;stroke-dasharray:none;stroke-opacity:1;paint-order:fill markers stroke"/><rect width="1.423" height="1.423" x="141.338" y="-65.506" rx=".378" ry=".377" style="fill:#606060;fill-opacity:1;stroke:none;stroke-width:2.08737;stroke-linecap:round;stroke-linejoin:round;stroke-miterlimit:5;stroke-dasharray:none;stroke-opacity:1;paint-order:fill markers stroke"/><rect width="1.423" height="1.423" x="143.15" y="-65.513" rx=".378" ry=".377" style="fill:#606060;fill-opacity:1;stroke:none;stroke-width:2.08737;stroke-linecap:round;stroke-linejoin:round;stroke-miterlimit:5;stroke-dasharray:none;stroke-opacity:1;paint-order:fill markers stroke"/><rect width="1.423" height="1.423" x="129.16" y="-68.818" rx=".378" ry=".377" style="fill:#606060;fill-opacity:1;stroke:none;stroke-width:2.08737;stroke-linecap:round;stroke-linejoin:round;stroke-miterlimit:5;stroke-dasharray:none;stroke-opacity:1;paint-order:fill markers stroke"/><rect width="1.423" height="1.423" x="130.866" y="-68.818" rx=".378" ry=".377" style="fill:#606060;fill-opacity:1;stroke:none;stroke-width:2.08737;stroke-linecap:round;stroke-linejoin:round;stroke-miterlimit:5;stroke-dasharray:none;stroke-opacity:1;paint-order:fill markers stroke"/><rect width="1.423" height="1.423" x="132.572" y="-68.818" rx=".378" ry=".377" style="fill:#606060;fill-opacity:1;stroke:none;stroke-width:2.08737;stroke-linecap:round;stroke-linejoin:round;stroke-miterlimit:5;stroke-dasharray:none;stroke-opacity:1;paint-order:fill markers stroke"/><rect width="1.423" height="1.423" x="134.278" y="-68.818" rx=".378" ry=".377" style="fill:#606060;fill-opacity:1;stroke:none;stroke-width:2.08737;stroke-linecap:round;stroke-linejoin:round;stroke-miterlimit:5;stroke-dasharray:none;stroke-opacity:1;paint-order:fill markers stroke"/><rect width="1.423" height="1.423" x="135.984" y="-68.818" rx=".378" ry=".377" style="fill:#606060;fill-opacity:1;stroke:none;stroke-width:2.08737;stroke-linecap:round;stroke-linejoin:round;stroke-miterlimit:5;stroke-dasharray:none;stroke-opacity:1;paint-order:fill markers stroke"/><rect width="1.423" height="1.423" x="137.69" y="-68.818" rx=".378" ry=".377" style="fill:#606060;fill-opacity:1;stroke:none;stroke-width:2.08737;stroke-linecap:round;stroke-linejoin:round;stroke-miterlimit:5;stroke-dasharray:none;stroke-opacity:1;paint-order:fill markers stroke"/><rect width="1.423" height="1.423" x="139.396" y="-68.818" rx=".378" ry=".377" style="fill:#606060;fill-opacity:1;stroke:none;stroke-width:2.08737;stroke-linecap:round;stroke-linejoin:round;stroke-miterlimit:5;stroke-dasharray:none;stroke-opacity:1;paint-order:fill markers stroke"/><rect width="1.423" height="1.423" x="141.102" y="-68.818" rx=".378" ry=".377" style="fill:#606060;fill-opacity:1;stroke:none;stroke-width:2.08737;stroke-linecap:round;stroke-linejoin:round;stroke-miterlimit:5;stroke-dasharray:none;stroke-opacity:1;paint-order:fill markers stroke"/><rect width="1.423" height="1.423" x="142.808" y="-68.818" rx=".378" ry=".377" style="fill:#606060;fill-opacity:1;stroke:none;stroke-width:2.08737;stroke-linecap:round;stroke-linejoin:round;stroke-miterlimit:5;stroke-dasharray:none;stroke-opacity:1;paint-order:fill markers stroke"/><rect width="1.423" height="1.423" x="144.515" y="-68.863" rx=".378" ry=".377" style="fill:#606060;fill-opacity:1;stroke:none;stroke-width:2.08737;stroke-linecap:round;stroke-linejoin:round;stroke-miterlimit:5;stroke-dasharray:none;stroke-opacity:1;paint-order:fill markers stroke"/><rect width="1.423" height="1.423" x="128.265" y="-70.56" rx=".378" ry=".377" style="fill:#606060;fill-opacity:1;stroke:none;stroke-width:2.08737;stroke-linecap:round;stroke-linejoin:round;stroke-miterlimit:5;stroke-dasharray:none;stroke-opacity:1;paint-order:fill markers stroke"/><rect width="1.423" height="1.423" x="129.971" y="-70.56" rx=".378" ry=".377" style="fill:#606060;fill-opacity:1;stroke:none;stroke-width:2.08737;stroke-linecap:round;stroke-linejoin:round;stroke-miterlimit:5;stroke-dasharray:none;stroke-opacity:1;paint-order:fill markers stroke"/><rect width="1.423" height="1.423" x="131.677" y="-70.56" rx=".378" ry=".377" style="fill:#606060;fill-opacity:1;stroke:none;stroke-width:2.08737;stroke-linecap:round;stroke-linejoin:round;stroke-miterlimit:5;stroke-dasharray:none;stroke-opacity:1;paint-order:fill markers stroke"/><rect width="1.423" height="1.423" x="133.383" y="-70.56" rx=".378" ry=".377" style="fill:#606060;fill-opacity:1;stroke:none;stroke-width:2.08737;stroke-linecap:round;stroke-linejoin:round;stroke-miterlimit:5;stroke-dasharray:none;stroke-opacity:1;paint-order:fill markers stroke"/><rect width="1.423" height="1.423" x="135.089" y="-70.56" rx=".378" ry=".377" style="fill:#606060;fill-opacity:1;stroke:none;stroke-width:2.08737;stroke-linecap:round;stroke-linejoin:round;stroke-miterlimit:5;stroke-dasharray:none;stroke-opacity:1;paint-order:fill markers stroke"/><rect width="1.423" height="1.423" x="136.795" y="-70.56" rx=".378" ry=".377" style="fill:#606060;fill-opacity:1;stroke:none;stroke-width:2.08737;stroke-linecap:round;stroke-linejoin:round;stroke-miterlimit:5;stroke-dasharray:none;stroke-opacity:1;paint-order:fill markers stroke"/><rect width="1.423" height="1.423" x="138.501" y="-70.56" rx=".378" ry=".377" style="fill:#606060;fill-opacity:1;stroke:none;stroke-width:2.08737;stroke-linecap:round;stroke-linejoin:round;stroke-miterlimit:5;stroke-dasharray:none;stroke-opacity:1;paint-order:fill markers stroke"/><rect width="1.423" height="1.423" x="140.207" y="-70.56" rx=".378" ry=".377" style="fill:#606060;fill-opacity:1;stroke:none;stroke-width:2.08737;stroke-linecap:round;stroke-linejoin:round;stroke-miterlimit:5;stroke-dasharray:none;stroke-opacity:1;paint-order:fill markers stroke"/><rect width="1.423" height="1.423" x="141.913" y="-70.56" rx=".378" ry=".377" style="fill:#606060;fill-opacity:1;stroke:none;stroke-width:2.08737;stroke-linecap:round;stroke-linejoin:round;stroke-miterlimit:5;stroke-dasharray:none;stroke-opacity:1;paint-order:fill markers stroke"/><rect width="1.423" height="1.423" x="143.619" y="-70.56" rx=".378" ry=".377" style="fill:#606060;fill-opacity:1;stroke:none;stroke-width:2.08737;stroke-linecap:round;stroke-linejoin:round;stroke-miterlimit:5;stroke-dasharray:none;stroke-opacity:1;paint-order:fill markers stroke"/><rect width="3.572" height="1.423" x="145.325" y="-70.56" rx=".378" ry=".377" style="fill:#606060;fill-opacity:1;stroke:none;stroke-width:2.08737;stroke-linecap:round;stroke-linejoin:round;stroke-miterlimit:5;stroke-dasharray:none;stroke-opacity:1;paint-order:fill markers stroke"/><rect width="3.748" height="1.395" x="145.15" y="-67.165" rx=".378" ry=".377" style="fill:#606060;fill-opacity:1;stroke:none;stroke-width:2.08737;stroke-linecap:round;stroke-linejoin:round;stroke-miterlimit:5;stroke-dasharray:none;stroke-opacity:1;paint-order:fill markers stroke"/><rect width="2.71" height="1.467" x="146.188" y="-68.863" rx=".378" ry=".377" style="fill:#606060;fill-opacity:1;stroke:none;stroke-width:2.08737;stroke-linecap:round;stroke-linejoin:round;stroke-miterlimit:5;stroke-dasharray:none;stroke-opacity:1;paint-order:fill markers stroke"/></g><g style="stroke-width:.823847" transform="matrix(-1.21097 -.055 -.05514 1.21417 224.261 104.543)"><rect width="12.395" height="5.8" x="133.691" y="-76.791" ry="0" style="fill:#3e3e3e;fill-opacity:1;stroke:#1f1f1f;stroke-width:1.20446;stroke-linecap:round;stroke-linejoin:round;stroke-miterlimit:5;stroke-dasharray:none;stroke-opacity:1;paint-order:fill markers stroke"/><rect width="25.304" height="2.385" x="127.237" y="-75.084" ry="0" style="fill:#454545;fill-opacity:1;stroke:#1f1f1f;stroke-width:1.20446;stroke-linecap:square;stroke-linejoin:miter;stroke-miterlimit:5;stroke-dasharray:none;stroke-opacity:1;paint-order:fill markers stroke"/></g></g><path d="M2744.408-635.302h11.113v15.346h-11.113z" style="fill:#f3f3f3;fill-opacity:1;stroke:#999;stroke-width:1.2;stroke-linecap:round;stroke-linejoin:round;stroke-dasharray:none;stroke-opacity:1;stop-color:#000" transform="matrix(1 -.00026 -.00026 -1 -2659.036 -583.226)"/><g transform="scale(1 -1)rotate(-7.126 3170.96 22492.976)"><path d="M2821.12-241.035h11.113v15.346h-11.113z" style="fill:#f3f3f3;fill-opacity:1;stroke:#999;stroke-width:1.2;stroke-linecap:round;stroke-linejoin:round;stroke-dasharray:none;stroke-opacity:1;stop-color:#000"/><rect width="4.397" height=".608" x="2822.461" y="-239.16" rx=".033" ry=".033" style="fill:#999;fill-opacity:1;stroke:none;stroke-width:1.19372;stroke-linecap:round;stroke-linejoin:round;stroke-miterlimit:5;stroke-dasharray:none;stroke-opacity:1;paint-order:fill markers stroke"/><rect width="8.419" height=".608" x="2822.44" y="-237.688" rx=".033" ry=".033" style="fill:#999;fill-opacity:1;stroke:none;stroke-width:1.19372;stroke-linecap:round;stroke-linejoin:round;stroke-miterlimit:5;stroke-dasharray:none;stroke-opacity:1;paint-order:fill markers stroke"/><rect width="8.419" height=".608" x="2822.44" y="-236.465" rx=".033" ry=".033" style="fill:#999;fill-opacity:1;stroke:none;stroke-width:1.19372;stroke-linecap:round;stroke-linejoin:round;stroke-miterlimit:5;stroke-dasharray:none;stroke-opacity:1;paint-order:fill markers stroke"/><rect width="8.419" height=".608" x="2822.44" y="-235.208" rx=".033" ry=".033" style="fill:#999;fill-opacity:1;stroke:none;stroke-width:1.19372;stroke-linecap:round;stroke-linejoin:round;stroke-miterlimit:5;stroke-dasharray:none;stroke-opacity:1;paint-order:fill markers stroke"/><rect width="4.359" height=".608" x="2822.529" y="-234.827" rx=".033" ry=".033" style="fill:#999;fill-opacity:1;stroke:none;stroke-width:1.19372;stroke-linecap:round;stroke-linejoin:round;stroke-miterlimit:5;stroke-dasharray:none;stroke-opacity:1;paint-order:fill markers stroke" transform="rotate(.041)skewX(.063)"/><rect width="8.419" height=".608" x="2822.44" y="-231.553" rx=".033" ry=".033" style="fill:#999;fill-opacity:1;stroke:none;stroke-width:1.19372;stroke-linecap:round;stroke-linejoin:round;stroke-miterlimit:5;stroke-dasharray:none;stroke-opacity:1;paint-order:fill markers stroke"/></g><g transform="matrix(0 1 1 0 -400.478 -266.098)"><rect width="15.028" height="15.068" x="423.666" y="-291.948" rx="1.257" ry="1.257" style="fill:#9a8a59;fill-opacity:1;stroke:#30291b;stroke-width:1.462;stroke-linecap:round;stroke-linejoin:round;stroke-miterlimit:5;stroke-dasharray:none;stroke-opacity:1;paint-order:fill markers stroke" transform="rotate(90)"/><ellipse cx="509.084" cy="82.38" rx="2.637" ry="3.979" style="fill:#3e3e3e;fill-opacity:1;stroke:#1f1f1f;stroke-width:1.462;stroke-linecap:square;stroke-linejoin:miter;stroke-miterlimit:5;stroke-dasharray:none;stroke-opacity:1;paint-order:fill markers stroke" transform="matrix(.41258 .91092 .91048 -.41356 0 0)"/><rect width=".771" height="3.853" x="-508.735" y="-86.385" rx=".033" ry=".033" style="fill:#1f1f1f;fill-opacity:1;stroke:#1f1f1f;stroke-width:.1;stroke-linecap:round;stroke-linejoin:round;stroke-dasharray:none;stroke-opacity:1;stop-color:#000" transform="scale(-1 1)rotate(-66.096)"/></g><path d="M2744.408-635.302h11.113v15.346h-11.113z" style="fill:#f3f3f3;fill-opacity:1;stroke:#999;stroke-width:1.2;stroke-linecap:round;stroke-linejoin:round;stroke-dasharray:none;stroke-opacity:1;stop-color:#000" transform="scale(1 -1)rotate(-4.803 8363.223 31389.66)"/><path d="M2744.408-635.302h11.113v15.346h-11.113z" style="fill:#f3f3f3;fill-opacity:1;stroke:#999;stroke-width:1.2;stroke-linecap:round;stroke-linejoin:round;stroke-dasharray:none;stroke-opacity:1;stop-color:#000" transform="scale(1 -1)rotate(8.255 -2601.972 -18761.711)"/></svg>