<svg xmlns="http://www.w3.org/2000/svg" xml:space="preserve" width="245.206" height="338.056" viewBox="0 0 64.877 89.444"><g style="opacity:1" transform="rotate(-90.089 13.642 184.515)"><rect width="64.747" height="89.353" x="171.155" y="-198.081" rx="2.97" ry="2.528" style="display:inline;fill:#302412;fill-opacity:1;stroke-width:.178457" transform="rotate(90)"/><rect width="54.148" height="84.871" x="-230.602" y="-195.583" rx="1.323" ry="1.323" style="display:inline;fill:#785a2e;fill-opacity:1;stroke-width:.188074" transform="scale(1 -1)rotate(90)"/><rect width="1.587" height="85.058" x="173.139" y="-195.771" rx=".794" ry=".794" style="display:inline;fill:#785a2e;fill-opacity:1;stroke-width:.140188" transform="rotate(90)"/><rect width="1.587" height="85" x="232.33" y="-195.712" rx=".794" ry=".794" style="display:inline;fill:#785a2e;fill-opacity:1;stroke-width:.140141" transform="rotate(90)"/></g><g style="opacity:1" transform="rotate(-.089 -31531.886 44069.693)"><ellipse cx="106.282" cy="103.282" rx="2.954" ry="2.951" style="fill:#9edfdd;fill-opacity:1;fill-rule:nonzero;stroke:#0e2b2a;stroke-width:.925997;stroke-linecap:round;stroke-linejoin:round;stroke-miterlimit:4;stroke-dasharray:none;stroke-dashoffset:0;stroke-opacity:1;paint-order:normal"/><path d="M107.782 102.134a1.112 1.111 0 0 0-1.112 1.11 1.112 1.111 0 0 0 .002.059 1.112 1.111 0 0 0-.214-.02 1.112 1.111 0 0 0-1.112 1.11 1.112 1.111 0 0 0 .784 1.06 1.112 1.111 0 0 0-.178.603 1.112 1.111 0 0 0 1.112 1.11 1.112 1.111 0 0 0 .906-.465 1.112 1.111 0 0 0 .819.36 1.112 1.111 0 0 0 1.112-1.111 1.112 1.111 0 0 0-.242-.691 1.112 1.111 0 0 0 .786-1.063 1.112 1.111 0 0 0-1.111-1.11 1.112 1.111 0 0 0-.442.091 1.112 1.111 0 0 0-1.11-1.044zm.441 2.13a1.112 1.111 0 0 0 .24.624 1.112 1.111 0 0 0-.58.418 1.112 1.111 0 0 0-.49-.311 1.112 1.111 0 0 0 .178-.602 1.112 1.111 0 0 0-.002-.058 1.112 1.111 0 0 0 .213.02 1.112 1.111 0 0 0 .441-.092z" style="fill:#cb4431;fill-opacity:1;fill-rule:nonzero;stroke:#511b14;stroke-width:.69453;stroke-linecap:round;stroke-linejoin:round;stroke-miterlimit:4;stroke-dasharray:none;stroke-dashoffset:0;stroke-opacity:1;paint-order:normal"/><circle cx="107.896" cy="104.65" r=".786" style="fill:#d3db57;fill-opacity:1;fill-rule:nonzero;stroke:#3c3f0d;stroke-width:.463021;stroke-linecap:round;stroke-linejoin:round;stroke-miterlimit:4;stroke-dasharray:none;stroke-dashoffset:0;stroke-opacity:1;paint-order:normal"/><path d="M106.494 98.07a1.112 1.111 0 0 0-1.112 1.111 1.112 1.111 0 0 0 .003.059 1.112 1.111 0 0 0-.214-.021 1.112 1.111 0 0 0-1.112 1.111 1.112 1.111 0 0 0 .784 1.062 1.112 1.111 0 0 0-.179.601 1.112 1.111 0 0 0 1.113 1.111 1.112 1.111 0 0 0 .905-.466 1.112 1.111 0 0 0 .82.36 1.112 1.111 0 0 0 1.112-1.11 1.112 1.111 0 0 0-.242-.692 1.112 1.111 0 0 0 .786-1.062 1.112 1.111 0 0 0-1.112-1.111 1.112 1.111 0 0 0-.44.091 1.112 1.111 0 0 0-1.11-1.044zm.441 2.13a1.112 1.111 0 0 0 .24.625 1.112 1.111 0 0 0-.58.417 1.112 1.111 0 0 0-.49-.31 1.112 1.111 0 0 0 .177-.602 1.112 1.111 0 0 0 0-.06 1.112 1.111 0 0 0 .213.022 1.112 1.111 0 0 0 .44-.092z" style="fill:#cb4431;fill-opacity:1;fill-rule:nonzero;stroke:#511b14;stroke-width:.694531;stroke-linecap:round;stroke-linejoin:round;stroke-miterlimit:4;stroke-dasharray:none;stroke-dashoffset:0;stroke-opacity:1;paint-order:normal"/><circle cx="106.638" cy="100.632" r=".786" style="fill:#d3db57;fill-opacity:1;fill-rule:nonzero;stroke:#3c3f0d;stroke-width:.463021;stroke-linecap:round;stroke-linejoin:round;stroke-miterlimit:4;stroke-dasharray:none;stroke-dashoffset:0;stroke-opacity:1;paint-order:normal"/></g><g style="opacity:1" transform="rotate(-89.687 41.25 102.434)"><rect width="5.892" height="9.525" x="95.244" y="82.555" rx=".263" ry=".283" style="fill:none;fill-opacity:1;stroke:#0e272f;stroke-width:.925719;stroke-linecap:round;stroke-linejoin:round;stroke-miterlimit:4;stroke-dasharray:none;stroke-opacity:1"/><rect width="2.944" height="8.354" x="97.847" y="83.145" rx=".266" ry=".252" style="fill:#30839e;fill-opacity:1;stroke:#c8c8c8;stroke-width:.906619;stroke-linecap:round;stroke-linejoin:round;stroke-miterlimit:4;stroke-dasharray:none;stroke-opacity:1"/><rect width="5.892" height="9.525" x="94.572" y="82.555" rx=".265" ry=".264" style="fill:#30839e;fill-opacity:1;stroke:#13343f;stroke-width:.925719;stroke-linecap:round;stroke-linejoin:round;stroke-miterlimit:4;stroke-dasharray:none;stroke-opacity:1"/></g><g style="opacity:1" transform="rotate(85.522 82.613 28.161)"><rect width="5.892" height="9.525" x="95.244" y="82.555" rx=".263" ry=".283" style="fill:#ab7f60;fill-opacity:1;stroke:#35271c;stroke-width:.925719;stroke-linecap:round;stroke-linejoin:round;stroke-miterlimit:4;stroke-dasharray:none;stroke-opacity:1"/><rect width="2.944" height="8.354" x="97.847" y="83.145" rx=".266" ry=".252" style="fill:#30839e;fill-opacity:1;stroke:#c8c8c8;stroke-width:.906619;stroke-linecap:round;stroke-linejoin:round;stroke-miterlimit:4;stroke-dasharray:none;stroke-opacity:1"/><rect width="5.892" height="9.525" x="94.572" y="82.555" rx=".265" ry=".264" style="fill:#ab7f60;fill-opacity:1;stroke:#453225;stroke-width:.925719;stroke-linecap:round;stroke-linejoin:round;stroke-miterlimit:4;stroke-dasharray:none;stroke-opacity:1"/></g><circle cx="-19.363" cy="46.402" r="4.211" style="fill:#0094b2;fill-opacity:.3;fill-rule:evenodd;stroke:#005666;stroke-width:.777939;stroke-linecap:round;stroke-linejoin:round;stroke-dasharray:none;stroke-opacity:.8;stop-color:#000;opacity:1" transform="rotate(-79.901)"/><circle cx="-19.363" cy="46.402" r="4.211" style="fill:#0094b2;fill-opacity:.3;fill-rule:evenodd;stroke:#005666;stroke-width:.777939;stroke-linecap:round;stroke-linejoin:round;stroke-dasharray:none;stroke-opacity:.8;stop-color:#000;opacity:1" transform="rotate(-79.901)"/><circle cx="-19.415" cy="46.405" r="1.908" style="fill:#b2b2b2;fill-opacity:1;fill-rule:evenodd;stroke:gray;stroke-width:.677984;stroke-linecap:round;stroke-linejoin:round;stroke-dasharray:none;stroke-opacity:1;stop-color:#000;opacity:1" transform="rotate(-79.901)"/><circle cx="-23.683" cy="35.081" r="4.211" style="fill:#0094b2;fill-opacity:.3;fill-rule:evenodd;stroke:#005666;stroke-width:.777939;stroke-linecap:round;stroke-linejoin:round;stroke-dasharray:none;stroke-opacity:.8;stop-color:#000;opacity:1" transform="rotate(-79.901)"/><circle cx="-23.683" cy="35.081" r="4.211" style="fill:#0094b2;fill-opacity:.3;fill-rule:evenodd;stroke:#005666;stroke-width:.777939;stroke-linecap:round;stroke-linejoin:round;stroke-dasharray:none;stroke-opacity:.8;stop-color:#000;opacity:1" transform="rotate(-79.901)"/><circle cx="-23.735" cy="35.084" r="1.908" style="fill:#b2b2b2;fill-opacity:1;fill-rule:evenodd;stroke:gray;stroke-width:.677984;stroke-linecap:round;stroke-linejoin:round;stroke-dasharray:none;stroke-opacity:1;stop-color:#000;opacity:1" transform="rotate(-79.901)"/></svg>