<svg xmlns="http://www.w3.org/2000/svg" width="176.689" height="84.831" viewBox="0 0 46.749 22.445"><path d="M-430.434 204.55v-8.1c0-.951-.766-1.717-1.716-1.717-.951 0-1.716.766-1.716 1.717v8.18l.98.945 1.117-.588.45-1.102zm-3.432 13.21v7.032c0 .95.765 1.716 1.716 1.716.95 0 1.716-.765 1.716-1.716v-7.823l-1.632 1.59-.988-.986z" style="fill:#666;fill-opacity:1;stroke:#171717;stroke-width:1.20361;stroke-linecap:round;stroke-linejoin:round;stroke-dasharray:none" transform="matrix(0 1.351 -1.351 0 308.405 596.225)"/><path d="M-430.437 201.442v-4.993c0-.95.766-1.716 1.717-1.716.95 0 1.716.766 1.716 1.717v5.41l-.77.549-1.309-1.226-.474.651zm3.433 19.008v4.342c0 .95-.766 1.716-1.716 1.716-.951 0-1.717-.765-1.717-1.716v-5.463l1.518 1.051.986-1.036z" style="fill:#4d4d4d;fill-opacity:1;stroke:#171717;stroke-width:1.20361;stroke-linecap:round;stroke-linejoin:round;stroke-dasharray:none" transform="matrix(0 1.351 -1.351 0 308.405 596.225)"/><path d="M-437.268 224.792V196.45c0-.951.766-1.717 1.716-1.717.951 0 1.716.766 1.716 1.717v28.342c0 .95-.765 1.716-1.716 1.716-.95 0-1.716-.765-1.716-1.716" style="fill:gray;fill-opacity:1;stroke:#171717;stroke-width:1.20361;stroke-linecap:round;stroke-linejoin:round;stroke-dasharray:none" transform="matrix(0 1.351 -1.351 0 308.405 596.225)"/><path d="M-440.675 224.792V196.45c0-.951.765-1.717 1.716-1.717.95 0 1.716.766 1.716 1.717v28.342c0 .95-.766 1.716-1.716 1.716-.951 0-1.716-.765-1.716-1.716" style="fill:#999;fill-opacity:1;stroke:#171717;stroke-width:1.20361;stroke-linecap:round;stroke-linejoin:round;stroke-dasharray:none" transform="matrix(0 1.351 -1.351 0 308.405 596.225)"/><path d="M-426.88 197.718h-13.838v-3.441h13.838c.87 0 1.572.767 1.572 1.72s-.701 1.72-1.572 1.72zM-426.88 227.676h-13.838v-3.44h13.838c.87 0 1.572.767 1.572 1.72s-.701 1.72-1.572 1.72z" style="fill:#313868;fill-opacity:1;stroke:#1a234c;stroke-width:1.20361;stroke-linecap:round;stroke-linejoin:miter;stroke-dasharray:none;stroke-opacity:1" transform="matrix(0 1.351 -1.351 0 308.405 596.225)"/></svg>