<svg width="131.726" height="142.25" viewBox="0 0 34.853 37.637" xml:space="preserve" xmlns="http://www.w3.org/2000/svg">
    <g transform="translate(-102.742 -129.546)">
        <path style="display:inline;fill:#23374c;fill-opacity:1;stroke:#131e29;stroke-width:1.58749;stroke-linecap:round;stroke-linejoin:round;stroke-dasharray:none;stroke-opacity:1;paint-order:normal" transform="scale(-1)" d="M-125.686-163.663h12.059v30.598h-12.059z"/>
        <path style="display:inline;fill:#23374c;stroke:#131e29;stroke-width:1.5875;stroke-linecap:round;stroke-linejoin:round" d="M135.89 164.442h-10.228v-32.167h10.227z"/>
        <path style="fill:#23374c;stroke:#131e29;stroke-width:1.5875;stroke-linecap:round;stroke-linejoin:round" d="M114.674 164.442h-10.227v-32.167h10.227z"/>
        <path style="fill:#2b445e;fill-opacity:1;stroke:#131e29;stroke-width:1.5875;stroke-linecap:round;stroke-linejoin:round;stroke-dasharray:none;stroke-opacity:1;paint-order:normal" transform="scale(-1)" d="M-133.256-133.005h3.616v2.434h-3.616zM-111.505-133.005h3.616v2.434h-3.616zM-133.256-166.157h3.616v2.434h-3.616zM-111.505-166.157h3.616v2.434h-3.616zM-135.842-160.663h31.479v4.287h-31.479zM-135.842-140.201h31.479v4.287h-31.479z"/>
        <path style="fill:#3d3d3d;fill-opacity:1;stroke:#262626;stroke-width:1.05833334;stroke-linecap:round;stroke-linejoin:round;stroke-dasharray:none;stroke-opacity:1;paint-order:normal" transform="scale(-1)" d="M-122.357-133.581h4.378v1.758h-4.378z"/>
        <path style="fill:#3d3d3d;stroke:#262626;stroke-width:1.05833334;stroke-linecap:round;stroke-linejoin:round;stroke-dasharray:none" d="M127.052 164.999h-2.99v-1.6h2.99zM116.454 165.074h-2.992v-1.6h2.992z"/>
        <g style="fill:#3c4c23;fill-opacity:1;stroke:none;stroke-width:3.11182;stroke-dasharray:none;paint-order:normal">
            <path style="color:#000;fill:#23384c;fill-opacity:1;stroke:none;stroke-width:3.11182;stroke-linecap:round;stroke-dasharray:none;paint-order:normal" d="M68.558 220.67s-2.231-.119-3.255.249c-1.328.476-2.734 1.705-3.463 2.434-.73.73-7.822 7.877-7.822 7.877l1.325 3.249 7.654-7.566s1.762-2.274 2.71-3.346c.95-1.072 2.85-2.896 2.85-2.896z" transform="matrix(-.14336 -.60024 -.45991 -.11022 235.221 207.413)"/>
        </g>
        <path style="fill:#23384c;fill-opacity:1;stroke-width:1.5875;stroke-linecap:square;stroke-dasharray:none;paint-order:normal" d="m120.409 146.354 1.154-.083.638.392.397 1.12-1.378 2.226-2.237-1.379z"/>
        <g style="fill:#ababab;fill-opacity:1;stroke:none;stroke-width:3.11182;stroke-dasharray:none;paint-order:normal">
            <path style="color:#000;fill:#ababab;fill-opacity:1;stroke:none;stroke-width:3.11182;stroke-linecap:round;stroke-dasharray:none;paint-order:normal" d="M68.61 221.328s-2.232-.12-3.256.248c-1.328.476-2.734 1.705-3.463 2.434-.73.73-7.822 7.877-7.822 7.877l1.326 3.249 7.653-7.566s1.762-2.274 2.711-3.346c.948-1.073 2.85-2.896 2.85-2.896z" transform="matrix(-.14336 -.60024 -.45991 -.11022 235.221 207.413)"/>
        </g>
        <path style="fill:#23384c;fill-opacity:1;stroke-width:1.5875;stroke-linecap:square;stroke-dasharray:none;paint-order:normal" d="m118.413 147.699-.628 1.371 3.509 2.369.846-1.123z"/>
        <path style="fill:#ababab;stroke-width:1.5875;stroke-linecap:square;stroke-dasharray:none;paint-order:normal" d="m118.268 148.068-.352.617 2.981 2.152.5-.568zM118.604 149.715l-1.927 2.899 1.047.696 1.942-2.837z"/>
        <circle style="fill:#23384c;fill-opacity:1;stroke:none;stroke-width:1.5875;stroke-linecap:square;stroke-linejoin:miter;stroke-dasharray:none;stroke-opacity:1;paint-order:normal" cx="-5.242" cy="193.109" r="1.174" transform="scale(-1 1) rotate(35.828)"/>
        <circle style="fill:#ababab;fill-opacity:1;stroke:none;stroke-width:1.5875;stroke-linecap:square;stroke-linejoin:miter;stroke-dasharray:none;stroke-opacity:1;paint-order:normal" cx="-5.138" cy="193.179" transform="scale(-1 1) rotate(35.828)" r=".942"/>
    </g>
</svg>
