<svg xmlns="http://www.w3.org/2000/svg" xml:space="preserve" width="184.999" height="185.001" viewBox="0 0 48.948 48.948"><path d="M1.2.875h46.53v46.532H1.2Z" style="fill:#763800;fill-opacity:1;stroke:none;stroke-width:2.19774;stroke-linecap:butt;stroke-linejoin:miter;stroke-miterlimit:4;stroke-dasharray:none;stroke-opacity:1"/><path d="M5.82 14.89h28.01v28.012H5.82Z" style="fill:#4d2600;fill-opacity:1;stroke:none;stroke-width:1.32298;stroke-linecap:butt;stroke-linejoin:miter;stroke-miterlimit:4;stroke-dasharray:none;stroke-opacity:1"/><path d="M5.805.954h28.01v13.9H5.806Z" style="fill:#6f6f6f;fill-opacity:1;stroke:none;stroke-width:.931951;stroke-linecap:butt;stroke-linejoin:miter;stroke-miterlimit:4;stroke-dasharray:none;stroke-opacity:1"/><path d="M7.847 7.847h33.152V41H7.847z" style="fill:none;fill-opacity:1;stroke:none;stroke-width:1.96165;stroke-linecap:butt;stroke-linejoin:bevel;stroke-miterlimit:4;stroke-dasharray:none;stroke-opacity:1"/><path d="M6.385 2.76C4.754.743 5.495-.618 5.631 2.08c.353 6.936-.45 5.271.914 12.636 3.648 4.41-.493-2.428 4.518.699 1.11.693 6.242-1.063 6.43-.001 0 0-3.218-4.914-5.334-4.622-2.116.29-.706-2.657-1.748-3.893s-.822-.416-2.029-1.16c-1.206-.742-.365-.959-1.997-2.977" style="opacity:.4;fill:#333;fill-opacity:1;stroke:none;stroke-width:1.32292;stroke-dasharray:none;stroke-opacity:1"/><path d="M6.16 48.205V.992M5.901 42.689h28.532" style="fill:none;stroke:#2e1600;stroke-width:1.96165;stroke-linecap:butt;stroke-linejoin:miter;stroke-miterlimit:4;stroke-dasharray:none;stroke-opacity:1"/><g><path d="M19.491-29.479 9.865-23.92.238-29.48v-11.115l7.41-4.278s.45 1.272.888.726c.439-.545 1.339.36 1.884-.157.546-.516.4-.078 1.121-.302.722-.223 1.341.195 1.341.195l6.61 3.816z" style="color:#000;fill:#281400;-inkscape-stroke:none" transform="rotate(90 -17.121 1.91)"/><path d="m5.893-44.623-6.317 3.646v11.88l4.928 2.844c.504.092 2.045-.156 1.51.288-.536.444.098.322.515.24.389-.078.73.361.73.361.283.164.038.723.038.723l2.568 1.483 3.011-1.739s.313-.814.64-1.003c0 0 .848-.24.969-.725.12-.486 1.099.165 1.099.165l4.568-2.638v-10.01s-.593-.285-.416-.61c.178-.326-.44-.474-.19-.714.251-.24.123-.28-.124-.188-.1.037-.194-.128-.27-.337-.02-.055.523-.228.505-.286-.017-.06-.595-.003-.609-.059-.05-.196-.08-.358-.08-.358l-4.096-2.366s-.562-.167-.457.004c.05.082-.121.187-.275.284-.168.105-.399.145-.212.19.055.013.138.097.25.114.034.005.317-.024.347-.008s-.196.084-.169.102c.21.132.324.297.087.321-.354.036-.399.043-.399.043l4.786 2.763v9.016s.537.352.91.674-.79.568-.813.697c-.023.13-.15.27.194.403.343.132.019.523-.669.438-.687-.085-.914-.129-1.51.215l-7.077 4.084L.9-29.86v-10.352l5.742-3.315s.435-.255-.328-.056c-.223.058-1.293.52.156-.683.27-.224-.068-.204-.371-.04-.16.087-.206-.316-.206-.316" style="color:#000;fill:#ccc;-inkscape-stroke:none" transform="rotate(90 -17.121 1.91)"/><path d="M26.458 28.896a6.633 6.633 0 0 1-12.492 3.113c-.04-.076 1.324-.864 1.287-.94-.066-.137-.879-.156-.936-.297-.075-.188-.793.212-.851.017-.035-.12 1.3-.725 1.272-.846-.026-.107-1.416.271-1.436.163a6.6 6.6 0 0 1-.11-1.21 6.633 6.633 0 1 1 13.266 0" style="fill:#ccc;stroke-width:1.95308"/><circle cx="19.825" cy="28.896" r="1.101" style="fill:#281400;stroke-width:.324165"/><path d="m19.02 30.525-.395.692s-.307-.08-.616-.26c-.309-.182.367.415.19.358-.272-.087-.647-.201-.8-.217-.252-.027.683 1.07.683 1.07l-1.029 1.803s1.097.713 2.772.713 2.772-.713 2.772-.713l-1.99-3.446s-.295.193-.794.193c-.498 0-.794-.193-.794-.193" style="fill:#281400;stroke-width:1.32292"/><path d="m18.926 27.353-1.568-2.685c-.094-.202.022-.738-.23-.483-.152.154-.26-.29-.302-.387-.096-.223-.293.379-.293.379a5.8 5.8 0 0 0-1.611 1.795c-.838 1.45-.768 2.757-.768 2.757h3.978s-.019-.353.23-.784c.25-.432.564-.592.564-.592M21.565 28.739l3.967-.02s.07-1.307-.768-2.758c-.837-1.45-2.004-2.043-2.004-2.043l-1.989 3.445s-.013-.016.115.101c.022.02-.527.104-.202.3.28.168.18.143-.146.063-.192-.048-.18.311-.147.357.1.143-.168.422.13.478.058.01.348-.071.602-.139.098-.026.135.266.192-.065.015-.086.212-.026.216-.011.04.178.034.292.034.292" style="fill:#281400;stroke-width:1.32292" transform="translate(-.018)"/></g><path d="M5.685 15.044h28.531M33.91 48.11V.899" style="fill:none;stroke:#2e1600;stroke-width:1.96165;stroke-linecap:butt;stroke-linejoin:miter;stroke-miterlimit:4;stroke-dasharray:none;stroke-opacity:1"/><path d="M35.604 1.304H27.95l20.155 20.155v-7.57z" style="fill:#4d2600;fill-opacity:1;stroke:#191919;stroke-width:.238001;stroke-opacity:1"/><path d="m27.781.807 20.006 20.005M34.513.92 47.95 14.357" style="fill:none;stroke:#2e1600;stroke-width:1.96165;stroke-linecap:butt;stroke-linejoin:miter;stroke-miterlimit:4;stroke-dasharray:none;stroke-opacity:1"/><path d="M.98.981h46.987v46.986H.98Z" style="fill:none;fill-opacity:1;stroke:#2e1600;stroke-width:1.96165;stroke-linecap:round;stroke-linejoin:round;stroke-miterlimit:4;stroke-dasharray:none;stroke-opacity:1"/><path d="M48.046 29.598c-.034-.886-.22-.132-.526.354-.468.746-1.607 1.606-2.755 1.35-2.04-.457-5.1.215-5.058 2.916.073 4.479.42.045-4.217 3.688-4.5 3.535 2.808 2.132 1.555 4.418-.63 1.148-2.478 2.22-4.421 1.586-3.018-.983-5.2 2.527-5.2 2.527-1.415 1.217-.703 1.535-.32 1.523h20.942z" style="fill:#405c3d;fill-opacity:1;stroke:none;stroke-width:1.96162;stroke-dasharray:none;stroke-opacity:1"/><path d="M47.727 36.456c-.549-.558-2.76-.27-3.06.901-.296 1.163-2.032 1.544-2.875 2.241-4.41 3.648 1.354.499-1.773 5.51-.693 1.11-3.839 1.628-1.847 2.374s4.26 1.961 5.528.667c1.268-1.293 1.94.411 3.696-.84 1.757-1.252 1.297-9.87.33-10.853" style="fill:#354d33;fill-opacity:1;stroke:none;stroke-width:1.32292;stroke-dasharray:none;stroke-opacity:1"/><path d="M47.967 29.605c-.034-.885-.22-.131-.526.354-.468.746-1.607 1.606-2.755 1.35-2.04-.456-5.101.215-5.058 2.916.072 4.479.42.045-4.217 3.688-4.5 3.536 2.808 2.132 1.555 4.419-.63 1.147-2.478 2.218-4.421 1.585-3.018-.983-5.2 2.527-5.2 2.527-1.415 1.218-.703 1.535-.32 1.523h20.942Z" style="fill:none;fill-opacity:1;stroke:#151e15;stroke-width:1.96162;stroke-dasharray:none;stroke-opacity:1"/><path d="M76.08 38.239c3.85 3.044 4.173 2.116 5.452 6.203l-1.517 1.365c-3.268-2.745-2.486-3.015-3.935-7.568z" style="fill:#30532c;fill-opacity:1;stroke:#132112;stroke-width:1.32292;stroke-dasharray:none;stroke-opacity:1" transform="rotate(-20.742 20.87 183.972)"/><path d="M79.655 47.793V33.959h2.04v13.834c-.582.44-1.232.577-2.04 0z" style="opacity:1;fill:#4b8547;fill-opacity:1;stroke:#132112;stroke-width:1.32292;stroke-dasharray:none;stroke-opacity:1" transform="rotate(-20.742 20.87 183.972)"/><path d="M85.736 34.182c-3.788 3.12-4.13 2.198-5.328 6.31l1.544 1.335c3.213-2.81 2.426-3.064 3.784-7.645z" style="fill:#30532c;fill-opacity:1;stroke:#132112;stroke-width:1.32292;stroke-dasharray:none;stroke-opacity:1" transform="rotate(-20.742 20.87 183.972)"/><path d="M76.12 26.125c-.2-.79 1.044-1.195 2.02.017.623-.483 1.65-1.453 2.435.302.788-1.2 1.801-.514 2.185.238 1.158-1.533 3.297-1.583 2.936-.478l-1.807 6.51c-.768 2.953-5.865 2.141-6.238-.331z" style="opacity:1;fill:#ac3939;fill-opacity:1;stroke:#240f0f;stroke-width:1.32292;stroke-dasharray:none;stroke-opacity:1" transform="rotate(-20.742 20.87 183.972)"/><path d="M76.08 38.239c3.85 3.044 4.173 2.116 5.452 6.203l-1.517 1.365c-3.268-2.745-2.486-3.015-3.935-7.568z" style="fill:#30532c;fill-opacity:1;stroke:#132112;stroke-width:1.32292;stroke-dasharray:none;stroke-opacity:1" transform="rotate(-54.543 42.118 88.172)"/><path d="M79.655 47.793V33.959h2.04v13.834c-.582.44-1.232.577-2.04 0z" style="opacity:1;fill:#4b8547;fill-opacity:1;stroke:#132112;stroke-width:1.32292;stroke-dasharray:none;stroke-opacity:1" transform="rotate(-54.543 42.118 88.172)"/><path d="M85.736 34.182c-3.788 3.12-4.13 2.198-5.328 6.31l1.544 1.335c3.213-2.81 2.426-3.064 3.784-7.645z" style="fill:#30532c;fill-opacity:1;stroke:#132112;stroke-width:1.32292;stroke-dasharray:none;stroke-opacity:1" transform="rotate(-54.543 42.118 88.172)"/><path d="M76.12 26.125c-.2-.79 1.044-1.195 2.02.017.623-.483 1.65-1.453 2.435.302.788-1.2 1.801-.514 2.185.238 1.158-1.533 3.297-1.583 2.936-.478l-1.807 6.51c-.768 2.953-5.865 2.141-6.238-.331z" style="opacity:1;fill:#ac3939;fill-opacity:1;stroke:#240f0f;stroke-width:1.32292;stroke-dasharray:none;stroke-opacity:1" transform="rotate(-54.543 42.118 88.172)"/></svg>