<svg xmlns="http://www.w3.org/2000/svg" id="Layer_1" width="209.5" height="58.6" data-name="Layer 1" viewBox="0 0 209.5 58.6"><defs id="defs1"><style id="style1">.cls-2,.cls-3{fill:#4e4e4e}.cls-3{stroke:#1f2020;stroke-miterlimit:10;stroke-width:6px}</style></defs><path id="path1" d="M190.719 55.395a.3.3 0 0 1-.285.205H149.45a1.62 1.62 0 0 1-1.138-.463A1.6 1.6 0 0 1 147.85 54c0-.9.7-1.6 1.6-1.6h29.2l-2.3-7.2 8.9-6.5 8.9 6.5z" class="cls-3" style="fill:#4e4e4e;stroke:#1f2020;stroke-width:6px;stroke-miterlimit:10"/><path id="path2" d="M190.434 3h-40.885c-.883 0-1.676.673-1.699 1.555a1.58 1.58 0 0 0 1.599 1.645h29.2l-2.3 7.2 8.9 6.5 8.9-6.5-3.431-10.195a.3.3 0 0 0-.285-.205Z" class="cls-3" style="fill:#4e4e4e;stroke:#1f2020;stroke-width:6px;stroke-miterlimit:10"/><path id="path3" d="M190.65 55.6h-41.2c-.9 0-1.6-.7-1.6-1.6s.7-1.6 1.6-1.6h29.2l-2.3-7.2 8.9-6.5 8.9 6.5z" class="cls-2" style="fill:#4e4e4e"/><path id="path4" d="M190.65 3h-41.2c-.9 0-1.6.7-1.6 1.6s.7 1.6 1.6 1.6h29.2l-2.3 7.2 8.9 6.5 8.9-6.5z" class="cls-2" style="fill:#4e4e4e"/><rect id="rect4" width="203.2" height="26.5" x="3.15" y="16.1" rx="4.8" ry="4.8" style="fill:#414141;stroke:#292929;stroke-width:6.3px;stroke-linecap:square;stroke-miterlimit:15.1"/><path id="rect5" d="M3.15 25.9h203.2v6.8H3.15z" style="fill:#292929"/></svg>