<svg xmlns="http://www.w3.org/2000/svg" width="438.515" height="452.267" fill="none"><path fill="#5b3e24" d="m287.783 141.458-88.646 28.2-27.632-64.1 3.262-72.01-31.418 54.886-.083 100.56 32.449 27.964 33.06 64.315-26.326 89.567 43.94 69.466-14.644-62.97 47.374-79.498-15.333-58.482 31.198 10.265 51.397 44.416 5.38 48.133 16.098-48.925-13.852-41.492-86.626-59.15 46.418-21.661 54.255-9.653z" style="opacity:1;stroke:#372516;stroke-width:9;stroke-linecap:round;stroke-linejoin:round;stroke-dasharray:none;stroke-opacity:1"/><path fill="#6d4a2c" stroke="#1b1917" stroke-linejoin="round" stroke-miterlimit="16" stroke-width="8.958" d="m243.508 191.358 62.855 25.455 57.097-7.885 70.556 49.885-67.79-15.782-54.124 16.255-69.395-20.134 22.392 92.071 54.041 40.931 6.932 75.614-38.26-60.914-64.352-36.095-23.015-87.157c-27.705 29.115-46.992 44.37-46.992 44.37l-83.583 3.806-65.371 29.514 51.343-53.84 75.517-18.059s24.12-20.753 43.642-49.765l-33.186-38.403-42.9-14.115L67.27 90.6l42.319 44.075L164.673 147l31.158 23.18 19.955-37.907L252.962 91.4l10.78-86.903 15.715 100.259z" style="stroke:#372516;stroke-width:9;stroke-miterlimit:16;stroke-dasharray:none;stroke-opacity:1"/></svg>