<svg xmlns="http://www.w3.org/2000/svg" width="519.427" height="519.427" viewBox="0 0 137.432 137.432"><path d="M-26.903 71.03c-1.911-1.912 6.818-27.105 5.59-29.514s-26.74-10.155-27.162-12.825S-27.028 10.77-26.605 8.1s-15.664-23.933-14.437-26.342 27.885-1.892 29.797-3.803 1.395-28.57 3.803-29.797c2.41-1.228 23.672 14.86 26.342 14.437s17.921-22.294 20.591-21.87c2.67.422 10.417 25.935 12.825 27.162 2.41 1.228 27.602-7.502 29.514-5.59s-6.818 27.105-5.59 29.514 26.74 10.155 27.163 12.825-21.448 17.92-21.87 20.591c-.424 2.67 15.664 23.933 14.436 26.342s-27.885 1.892-29.796 3.803c-1.912 1.912-1.395 28.57-3.804 29.797s-23.671-14.86-26.342-14.437-17.92 22.293-20.59 21.87C12.765 92.18 5.02 66.667 2.61 65.44c-2.409-1.227-27.602 7.502-29.514 5.59Z" style="fill:#344721;fill-opacity:.85490203;stroke-width:4.42082;stroke-linecap:square" transform="rotate(180 46.782 41.897)scale(.90481)"/><path d="M-26.903 71.03c-1.911-1.912 6.818-27.105 5.59-29.514s-26.74-10.155-27.162-12.825S-27.028 10.77-26.605 8.1s-15.664-23.933-14.437-26.342 27.885-1.892 29.797-3.803 1.395-28.57 3.803-29.797c2.41-1.228 23.672 14.86 26.342 14.437s17.921-22.294 20.591-21.87c2.67.422 10.417 25.935 12.825 27.162 2.41 1.228 27.602-7.502 29.514-5.59s-6.818 27.105-5.59 29.514 26.74 10.155 27.163 12.825-21.448 17.92-21.87 20.591c-.424 2.67 15.664 23.933 14.436 26.342s-27.885 1.892-29.796 3.803c-1.912 1.912-1.395 28.57-3.804 29.797s-23.671-14.86-26.342-14.437-17.92 22.293-20.59 21.87C12.765 92.18 5.02 66.667 2.61 65.44c-2.409-1.227-27.602 7.502-29.514 5.59Z" style="fill:#3d5425;fill-opacity:.9461078;stroke-width:4;stroke-linecap:square" transform="rotate(-162.267 49.904 37.58)scale(.81939)"/><g stroke-width=".635" transform="rotate(-174.322 250.768 128.65)scale(1.10673)"><ellipse cx="-405.63" cy="124.83" fill="#2c251a" fill-opacity=".996" rx=".53" ry=".236" transform="rotate(-136.69)"/><path fill="#645c4a" d="M376.3 192.45a3.027 3.027 0 0 0 3.028-3.51 3.027 3.027 0 0 0-3.325 3.23c.01.147.15.278.297.28"/><path fill="#595040" d="M377.64 192.55a3.026 3.026 0 0 1 2.376-3.98 3.027 3.027 0 0 1-2.016 4.174.32.32 0 0 1-.36-.194"/><path fill="#5f5644" d="M375.85 190.86a3.027 3.027 0 0 0 3.833-2.607 3.027 3.027 0 0 0-4.048 2.26.32.32 0 0 0 .215.347"/><path fill="#5b5343" d="M377.47 191.21a3.027 3.027 0 0 0 3.028-3.51 3.027 3.027 0 0 0-3.325 3.23c.01.147.15.278.297.28"/><path fill="#564d3e" d="M376.1 189.23a3.027 3.027 0 0 0 4.377-1.526 3.027 3.027 0 0 0-4.494 1.135.32.32 0 0 0 .117.39z"/><path fill="#4f473a" d="M379.26 192.2a3.027 3.027 0 0 1 1.265-4.46 3.027 3.027 0 0 1-.867 4.554.32.32 0 0 1-.398-.094"/><path fill="#534a3c" d="M378.49 190.13a3.03 3.03 0 0 0 2.242-.95c.646-.685.236-.845.086-1.774-.936-.095-1.164-.536-1.81.15a3.03 3.03 0 0 0-.815 2.294c.01.147.15.278.297.28"/><path fill="#4c4438" d="M376.77 187.34a2.97 2.97 0 0 1 4.75 1.1c-.75.656-3.412.236-4.733-.744a.23.23 0 0 1-.017-.356"/><path fill="#463d34" d="M381.1 191.42a2.97 2.97 0 0 0-1.378-4.677c-.611.788-.035 3.42 1.022 4.68a.23.23 0 0 0 .356-.003"/></g><path d="M-26.903 71.03c-1.911-1.912 6.818-27.105 5.59-29.514s-26.74-10.155-27.162-12.825S-27.028 10.77-26.605 8.1s-15.664-23.933-14.437-26.342 27.885-1.892 29.797-3.803 1.395-28.57 3.803-29.797c2.41-1.228 23.672 14.86 26.342 14.437s17.921-22.294 20.591-21.87c2.67.422 10.417 25.935 12.825 27.162 2.41 1.228 27.602-7.502 29.514-5.59s-6.818 27.105-5.59 29.514 26.74 10.155 27.163 12.825-21.448 17.92-21.87 20.591c-.424 2.67 15.664 23.933 14.436 26.342s-27.885 1.892-29.796 3.803c-1.912 1.912-1.395 28.57-3.804 29.797s-23.671-14.86-26.342-14.437-17.92 22.293-20.59 21.87C12.765 92.18 5.02 66.667 2.61 65.44c-2.409-1.227-27.602 7.502-29.514 5.59Z" style="fill:#435c28;fill-opacity:.84880239;stroke-width:4;stroke-linecap:square" transform="rotate(179.617 43.045 39.768)scale(.63945)"/><path d="M85.308 93.477 71.747 74.901 55.399 88.46l12.447-18.576-14.49-20.249 18.577 18.577 15.79-18.762-11.518 21.734Z" style="fill:#433828;fill-opacity:1;stroke:#23150d;stroke-width:2.11667;stroke-linecap:square;stroke-linejoin:round;stroke-opacity:1" transform="translate(-2.66 -2.655)"/><path d="M72.118 96.635 66.545 73.23l-19.878-3.716 20.435-2.6 3.53-20.806 4.087 21.177 21.364 1.3-20.807 5.76Z" style="fill:#372d20;fill-opacity:1;stroke:#23150d;stroke-width:2.11667;stroke-linecap:square;stroke-linejoin:round;stroke-opacity:1" transform="translate(-2.66 -2.655)"/><path d="M-26.903 71.03c-1.911-1.912 6.818-27.105 5.59-29.514s-26.74-10.155-27.162-12.825S-27.028 10.77-26.605 8.1s-15.664-23.933-14.437-26.342 27.885-1.892 29.797-3.803 1.395-28.57 3.803-29.797c2.41-1.228 23.672 14.86 26.342 14.437s17.921-22.294 20.591-21.87c2.67.422 10.417 25.935 12.825 27.162 2.41 1.228 27.602-7.502 29.514-5.59s-6.818 27.105-5.59 29.514 26.74 10.155 27.163 12.825-21.448 17.92-21.87 20.591c-.424 2.67 15.664 23.933 14.436 26.342s-27.885 1.892-29.796 3.803c-1.912 1.912-1.395 28.57-3.804 29.797s-23.671-14.86-26.342-14.437-17.92 22.293-20.59 21.87C12.765 92.18 5.02 66.667 2.61 65.44c-2.409-1.227-27.602 7.502-29.514 5.59Z" style="fill:#4b662e;fill-opacity:.64820361;stroke-width:3.02224;stroke-linecap:square" transform="rotate(-162.378 45.833 34.206)scale(.4944)"/><path d="M-26.903 71.03c-1.911-1.912 6.818-27.105 5.59-29.514s-26.74-10.155-27.162-12.825S-27.028 10.77-26.605 8.1s-15.664-23.933-14.437-26.342 27.885-1.892 29.797-3.803 1.395-28.57 3.803-29.797c2.41-1.228 23.672 14.86 26.342 14.437s17.921-22.294 20.591-21.87c2.67.422 10.417 25.935 12.825 27.162 2.41 1.228 27.602-7.502 29.514-5.59s-6.818 27.105-5.59 29.514 26.74 10.155 27.163 12.825-21.448 17.92-21.87 20.591c-.424 2.67 15.664 23.933 14.436 26.342s-27.885 1.892-29.796 3.803c-1.912 1.912-1.395 28.57-3.804 29.797s-23.671-14.86-26.342-14.437-17.92 22.293-20.59 21.87C12.765 92.18 5.02 66.667 2.61 65.44c-2.409-1.227-27.602 7.502-29.514 5.59Z" style="fill:#537233;fill-opacity:.350299;stroke-width:3.60598;stroke-linecap:square" transform="rotate(179.602 39.933 37.916)scale(.41434)"/><g stroke-width=".635" transform="scale(1.10673)rotate(-56.852 148.369 431.706)"><ellipse cx="-405.63" cy="124.83" fill="#2c251a" fill-opacity=".996" rx=".53" ry=".236" transform="rotate(-136.69)"/><path fill="#645c4a" d="M376.3 192.45a3.027 3.027 0 0 0 3.028-3.51 3.027 3.027 0 0 0-3.325 3.23c.01.147.15.278.297.28"/><path fill="#595040" d="M377.64 192.55a3.026 3.026 0 0 1 2.376-3.98 3.027 3.027 0 0 1-2.016 4.174.32.32 0 0 1-.36-.194"/><path fill="#5f5644" d="M375.85 190.86a3.027 3.027 0 0 0 3.833-2.607 3.027 3.027 0 0 0-4.048 2.26.32.32 0 0 0 .215.347"/><path fill="#5b5343" d="M377.47 191.21a3.027 3.027 0 0 0 3.028-3.51 3.027 3.027 0 0 0-3.325 3.23c.01.147.15.278.297.28"/><path fill="#564d3e" d="M376.1 189.23a3.027 3.027 0 0 0 4.377-1.526 3.027 3.027 0 0 0-4.494 1.135.32.32 0 0 0 .117.39z"/><path fill="#4f473a" d="M379.26 192.2a3.027 3.027 0 0 1 1.265-4.46 3.027 3.027 0 0 1-.867 4.554.32.32 0 0 1-.398-.094"/><path fill="#534a3c" d="M378.49 190.13a3.03 3.03 0 0 0 2.242-.95c.646-.685.236-.845.086-1.774-.936-.095-1.164-.536-1.81.15a3.03 3.03 0 0 0-.815 2.294c.01.147.15.278.297.28"/><path fill="#4c4438" d="M376.77 187.34a2.97 2.97 0 0 1 4.75 1.1c-.75.656-3.412.236-4.733-.744a.23.23 0 0 1-.017-.356"/><path fill="#463d34" d="M381.1 191.42a2.97 2.97 0 0 0-1.378-4.677c-.611.788-.035 3.42 1.022 4.68a.23.23 0 0 0 .356-.003"/></g><g stroke-width=".635" transform="scale(-1.10673)rotate(53.341 398.687 -419.47)"><ellipse cx="-405.63" cy="124.83" fill="#2c251a" fill-opacity=".996" rx=".53" ry=".236" transform="rotate(-136.69)"/><path fill="#645c4a" d="M376.3 192.45a3.027 3.027 0 0 0 3.028-3.51 3.027 3.027 0 0 0-3.325 3.23c.01.147.15.278.297.28"/><path fill="#595040" d="M377.64 192.55a3.026 3.026 0 0 1 2.376-3.98 3.027 3.027 0 0 1-2.016 4.174.32.32 0 0 1-.36-.194"/><path fill="#5f5644" d="M375.85 190.86a3.027 3.027 0 0 0 3.833-2.607 3.027 3.027 0 0 0-4.048 2.26.32.32 0 0 0 .215.347"/><path fill="#5b5343" d="M377.47 191.21a3.027 3.027 0 0 0 3.028-3.51 3.027 3.027 0 0 0-3.325 3.23c.01.147.15.278.297.28"/><path fill="#564d3e" d="M376.1 189.23a3.027 3.027 0 0 0 4.377-1.526 3.027 3.027 0 0 0-4.494 1.135.32.32 0 0 0 .117.39z"/><path fill="#4f473a" d="M379.26 192.2a3.027 3.027 0 0 1 1.265-4.46 3.027 3.027 0 0 1-.867 4.554.32.32 0 0 1-.398-.094"/><path fill="#534a3c" d="M378.49 190.13a3.03 3.03 0 0 0 2.242-.95c.646-.685.236-.845.086-1.774-.936-.095-1.164-.536-1.81.15a3.03 3.03 0 0 0-.815 2.294c.01.147.15.278.297.28"/><path fill="#4c4438" d="M376.77 187.34a2.97 2.97 0 0 1 4.75 1.1c-.75.656-3.412.236-4.733-.744a.23.23 0 0 1-.017-.356"/><path fill="#463d34" d="M381.1 191.42a2.97 2.97 0 0 0-1.378-4.677c-.611.788-.035 3.42 1.022 4.68a.23.23 0 0 0 .356-.003"/></g><g stroke-width=".635" transform="rotate(82.751 319.252 -90.59)scale(1.10673)"><ellipse cx="-405.63" cy="124.83" fill="#2c251a" fill-opacity=".996" rx=".53" ry=".236" transform="rotate(-136.69)"/><path fill="#645c4a" d="M376.3 192.45a3.027 3.027 0 0 0 3.028-3.51 3.027 3.027 0 0 0-3.325 3.23c.01.147.15.278.297.28"/><path fill="#595040" d="M377.64 192.55a3.026 3.026 0 0 1 2.376-3.98 3.027 3.027 0 0 1-2.016 4.174.32.32 0 0 1-.36-.194"/><path fill="#5f5644" d="M375.85 190.86a3.027 3.027 0 0 0 3.833-2.607 3.027 3.027 0 0 0-4.048 2.26.32.32 0 0 0 .215.347"/><path fill="#5b5343" d="M377.47 191.21a3.027 3.027 0 0 0 3.028-3.51 3.027 3.027 0 0 0-3.325 3.23c.01.147.15.278.297.28"/><path fill="#564d3e" d="M376.1 189.23a3.027 3.027 0 0 0 4.377-1.526 3.027 3.027 0 0 0-4.494 1.135.32.32 0 0 0 .117.39z"/><path fill="#4f473a" d="M379.26 192.2a3.027 3.027 0 0 1 1.265-4.46 3.027 3.027 0 0 1-.867 4.554.32.32 0 0 1-.398-.094"/><path fill="#534a3c" d="M378.49 190.13a3.03 3.03 0 0 0 2.242-.95c.646-.685.236-.845.086-1.774-.936-.095-1.164-.536-1.81.15a3.03 3.03 0 0 0-.815 2.294c.01.147.15.278.297.28"/><path fill="#4c4438" d="M376.77 187.34a2.97 2.97 0 0 1 4.75 1.1c-.75.656-3.412.236-4.733-.744a.23.23 0 0 1-.017-.356"/><path fill="#463d34" d="M381.1 191.42a2.97 2.97 0 0 0-1.378-4.677c-.611.788-.035 3.42 1.022 4.68a.23.23 0 0 0 .356-.003"/></g><g stroke-width=".635" transform="scale(1.10674)rotate(-1.475 -4038.122 13584.41)"><ellipse cx="-405.63" cy="124.83" fill="#2c251a" fill-opacity=".996" rx=".53" ry=".236" transform="rotate(-136.69)"/><path fill="#645c4a" d="M376.3 192.45a3.027 3.027 0 0 0 3.028-3.51 3.027 3.027 0 0 0-3.325 3.23c.01.147.15.278.297.28"/><path fill="#595040" d="M377.64 192.55a3.026 3.026 0 0 1 2.376-3.98 3.027 3.027 0 0 1-2.016 4.174.32.32 0 0 1-.36-.194"/><path fill="#5f5644" d="M375.85 190.86a3.027 3.027 0 0 0 3.833-2.607 3.027 3.027 0 0 0-4.048 2.26.32.32 0 0 0 .215.347"/><path fill="#5b5343" d="M377.47 191.21a3.027 3.027 0 0 0 3.028-3.51 3.027 3.027 0 0 0-3.325 3.23c.01.147.15.278.297.28"/><path fill="#564d3e" d="M376.1 189.23a3.027 3.027 0 0 0 4.377-1.526 3.027 3.027 0 0 0-4.494 1.135.32.32 0 0 0 .117.39z"/><path fill="#4f473a" d="M379.26 192.2a3.027 3.027 0 0 1 1.265-4.46 3.027 3.027 0 0 1-.867 4.554.32.32 0 0 1-.398-.094"/><path fill="#534a3c" d="M378.49 190.13a3.03 3.03 0 0 0 2.242-.95c.646-.685.236-.845.086-1.774-.936-.095-1.164-.536-1.81.15a3.03 3.03 0 0 0-.815 2.294c.01.147.15.278.297.28"/><path fill="#4c4438" d="M376.77 187.34a2.97 2.97 0 0 1 4.75 1.1c-.75.656-3.412.236-4.733-.744a.23.23 0 0 1-.017-.356"/><path fill="#463d34" d="M381.1 191.42a2.97 2.97 0 0 0-1.378-4.677c-.611.788-.035 3.42 1.022 4.68a.23.23 0 0 0 .356-.003"/></g><path fill="#576f39" d="m110.433 39.039-.647 4.413a.28.28 0 0 0 .13.282l2.77 1.737a.06.06 0 0 1-.037.11l-4.477-.404a.83.83 0 0 1-.444-.177l-3.568-2.836a.044.044 0 0 1 .037-.078l3.205.654a.38.38 0 0 0 .381-.15l2.544-3.593a.059.059 0 0 1 .106.042m-2.136 55.672-4.418-.617a.28.28 0 0 0-.28.132l-1.72 2.78a.06.06 0 0 1-.11-.036l.375-4.48a.83.83 0 0 1 .175-.445l2.812-3.586a.044.044 0 0 1 .078.036l-.633 3.21a.38.38 0 0 0 .153.38l3.61 2.52a.059.059 0 0 1-.042.106M97.98 116.963l-2.86-3.423a.28.28 0 0 0-.296-.091l-3.141.907a.06.06 0 0 1-.058-.101l3.285-3.068a.83.83 0 0 1 .429-.213l4.491-.77a.044.044 0 0 1 .034.08l-2.624 1.954a.38.38 0 0 0-.141.384l.982 4.291a.059.059 0 0 1-.102.05z" style="fill:#637c41;fill-opacity:.851796"/><path fill="#576f39" d="m71.278 124.224-1.45-4.218a.28.28 0 0 0-.245-.19l-3.258-.272a.06.06 0 0 1-.017-.115l4.163-1.696a.83.83 0 0 1 .476-.046l4.47.882a.044.044 0 0 1 .004.087l-3.149.89a.38.38 0 0 0-.269.308l-.612 4.36a.059.059 0 0 1-.113.01M15.49 90.786l4.272-1.282a.28.28 0 0 0 .2-.237l.402-3.244a.06.06 0 0 1 .115-.013l1.529 4.227a.83.83 0 0 1 .027.478l-1.06 4.432a.044.044 0 0 1-.085 0l-.765-3.181a.38.38 0 0 0-.297-.281l-4.332-.785a.059.059 0 0 1-.007-.114zm110.819 6.201-4.457-.172a.28.28 0 0 0-.267.159l-1.43 2.939a.06.06 0 0 1-.114-.025l-.077-4.495a.83.83 0 0 1 .13-.46l2.438-3.85a.044.044 0 0 1 .082.028l-.308 3.257a.38.38 0 0 0 .19.363l3.844 2.146a.059.059 0 0 1-.03.11zM45.686 57.473l4.164 1.598a.28.28 0 0 0 .304-.065l2.3-2.322a.06.06 0 0 1 .1.06l-1.375 4.28a.83.83 0 0 1-.27.394l-3.548 2.86a.044.044 0 0 1-.069-.053l1.34-2.984a.38.38 0 0 0-.063-.405l-2.948-3.269a.059.059 0 0 1 .065-.094m-27.684-7.656 4.401.725a.28.28 0 0 0 .284-.125l1.786-2.739a.06.06 0 0 1 .11.04l-.484 4.469a.83.83 0 0 1-.185.44l-2.899 3.517a.044.044 0 0 1-.077-.038l.71-3.193a.38.38 0 0 0-.143-.384l-3.547-2.607a.059.059 0 0 1 .044-.105M38.065 24.14l2.893 3.394a.28.28 0 0 0 .297.088l3.132-.938a.06.06 0 0 1 .058.1l-3.254 3.101a.83.83 0 0 1-.426.217l-4.484.814a.044.044 0 0 1-.035-.079l2.605-1.98a.38.38 0 0 0 .137-.385l-1.025-4.281a.059.059 0 0 1 .102-.052zm17.584 2.965 2.632 3.601a.28.28 0 0 0 .29.11l3.192-.702a.06.06 0 0 1 .051.104l-3.476 2.85a.83.83 0 0 1-.441.185l-4.532.478a.044.044 0 0 1-.03-.082l2.746-1.78a.38.38 0 0 0 .166-.374l-.704-4.346a.059.059 0 0 1 .106-.044" style="fill:#637c41;fill-opacity:.85179597"/><path fill="#576f39" d="m125.161 58.963-4.274 1.274a.28.28 0 0 0-.2.236l-.408 3.244a.06.06 0 0 1-.116.012l-1.521-4.23a.83.83 0 0 1-.026-.477l1.067-4.43a.044.044 0 0 1 .087 0l.758 3.182a.38.38 0 0 0 .297.282l4.33.792a.059.059 0 0 1 .006.114zm-41.14-27.154-.646 4.413a.28.28 0 0 0 .13.282l2.77 1.736a.06.06 0 0 1-.037.11l-4.478-.403a.83.83 0 0 1-.444-.178l-3.567-2.835a.044.044 0 0 1 .036-.078l3.206.654a.38.38 0 0 0 .38-.151l2.545-3.593a.059.059 0 0 1 .105.042z" style="fill:#637c41;fill-opacity:.851796"/><path fill="#576f39" d="m25.13 73.478 4.43.527a.28.28 0 0 0 .277-.138l1.661-2.815a.06.06 0 0 1 .112.034l-.283 4.486a.83.83 0 0 1-.166.45l-2.738 3.642a.044.044 0 0 1-.079-.034l.567-3.223a.38.38 0 0 0-.16-.376l-3.66-2.446a.059.059 0 0 1 .039-.107" style="fill:#637c41;fill-opacity:.85179597"/><path fill="#576f39" d="m46.545 113.624.552-4.426a.28.28 0 0 0-.136-.28l-2.806-1.676a.06.06 0 0 1 .035-.111l4.484.308a.83.83 0 0 1 .448.168l3.627 2.758a.044.044 0 0 1-.035.08l-3.218-.586a.38.38 0 0 0-.378.159l-2.467 3.646a.059.059 0 0 1-.106-.04" style="fill:#637c41;fill-opacity:.8509804"/><path fill="#576f39" d="m86.469 101.306-3.145-3.163a.28.28 0 0 0-.304-.065l-3.05 1.177a.06.06 0 0 1-.066-.096l3.007-3.342a.83.83 0 0 1 .408-.249l4.408-1.156a.044.044 0 0 1 .04.076l-2.444 2.174a.38.38 0 0 0-.108.395l1.351 4.19a.059.059 0 0 1-.097.059m-35.046-8.165 2.741-3.519a.28.28 0 0 0 .026-.309l-1.55-2.878a.06.06 0 0 1 .086-.077l3.694 2.562a.83.83 0 0 1 .299.373l1.702 4.227a.044.044 0 0 1-.07.05l-2.465-2.151a.38.38 0 0 0-.406-.057l-3.986 1.868a.059.059 0 0 1-.07-.089z" style="fill:#637c41;fill-opacity:.85179597"/><path fill="#576f39" d="m70.709 47.36.474 4.435a.28.28 0 0 0 .196.24l3.115.992a.06.06 0 0 1-.009.116l-4.436.725a.83.83 0 0 1-.474-.061l-4.162-1.857a.044.044 0 0 1 .016-.084l3.267-.166a.38.38 0 0 0 .332-.241l1.567-4.114a.059.059 0 0 1 .113.015zm2.17-30.727.474 4.435a.28.28 0 0 0 .196.24l3.116.992a.06.06 0 0 1-.01.115l-4.436.726a.83.83 0 0 1-.474-.062l-4.162-1.856a.044.044 0 0 1 .016-.085l3.267-.166a.38.38 0 0 0 .332-.24l1.567-4.114a.059.059 0 0 1 .113.015zm17.727 59.728-4.362.931a.28.28 0 0 0-.219.22l-.663 3.201a.06.06 0 0 1-.116.004l-1.181-4.338a.83.83 0 0 1 .012-.478l1.415-4.331a.044.044 0 0 1 .086.007l.504 3.232a.38.38 0 0 0 .274.305l4.253 1.133a.059.059 0 0 1-.003.114m4.706-21.449-3.695 2.5a.28.28 0 0 0-.12.286l.586 3.216a.06.06 0 0 1-.107.047l-2.721-3.578a.83.83 0 0 1-.168-.448l-.313-4.546a.044.044 0 0 1 .082-.026l1.68 2.808a.38.38 0 0 0 .368.18l4.368-.545a.059.059 0 0 1 .04.106" style="fill:#637c41;fill-opacity:.851796"/><path fill="#576f39" d="m34.499 44.501 4.277 1.267a.28.28 0 0 0 .297-.09l2.112-2.494a.06.06 0 0 1 .104.053l-1.035 4.374a.83.83 0 0 1-.24.414l-3.312 3.129a.044.044 0 0 1-.072-.047l1.102-3.08a.38.38 0 0 0-.095-.4L34.442 44.6a.059.059 0 0 1 .057-.1z" style="fill:#637c41;fill-opacity:.85179597"/></svg>