<svg xmlns="http://www.w3.org/2000/svg" width="200.001" height="51.398" viewBox="0 0 52.917 13.599"><path d="m7.141 31.556-.404.316-2.145 1.676.977 3.14 1.965-.01h8.615c.297 0 .571-.05.828-.175s.596-.387.596-.855c0-.469-.339-.733-.596-.858a1.86 1.86 0 0 0-.828-.176H9.38l.329-1.095zm.008 1.674 1.03.785-.401 1.34H7.53l-.988.006-.414-1.332z" style="color:#000;fill:#1f1f1f;fill-opacity:1;-inkscape-stroke:none" transform="rotate(180 26.373 18.344)"/><path d="m7.145 32.393-1.784 1.395.695 2.237 1.477-.008h8.616c.422 0 .762-.165.762-.37s-.34-.37-.762-.37H8.492l.452-1.51z" style="color:#000;fill:#4d4d4d;stroke-width:1.32292;-inkscape-stroke:none" transform="rotate(180 26.373 18.344)"/><path d="m7.141 31.556-.404.316-2.145 1.676.977 3.14 1.965-.01h8.615c.297 0 .571-.05.828-.175s.596-.387.596-.855c0-.469-.339-.733-.596-.858a1.86 1.86 0 0 0-.828-.176H9.38l.329-1.095zm.008 1.674 1.03.785-.401 1.34H7.53l-.988.006-.414-1.332z" style="color:#000;fill:#1f1f1f;fill-opacity:1;-inkscape-stroke:none" transform="matrix(-1 0 0 1 52.747 -23.09)"/><path d="m7.145 32.393-1.784 1.395.695 2.237 1.477-.008h8.616c.422 0 .762-.165.762-.37s-.34-.37-.762-.37H8.492l.452-1.51z" style="color:#000;fill:#4d4d4d;stroke-width:1.32292;-inkscape-stroke:none" transform="matrix(-1 0 0 1 52.747 -23.09)"/><path fill="#d9d9d9" stroke="#666" stroke-linejoin="round" stroke-width="1.35" d="M.913 9.886V3.713h51.09v6.173z" style="stroke-width:1.82692;stroke-dasharray:none"/></svg>