<svg width="78.086" height="78.086" viewBox="0 0 20.66 20.66" xmlns="http://www.w3.org/2000/svg">
    <g transform="matrix(1.00007 0 0 .99861 -863.152 -788.1)">
        <ellipse style="display:inline;fill:#b08b3f;fill-opacity:1;stroke:#382c14;stroke-width:1.85208;stroke-linecap:round;stroke-linejoin:round;stroke-dasharray:none;stroke-opacity:1" cx="873.425" cy="799.539" rx="9.403" ry="9.418"/>
        <path style="fill:#726531;fill-opacity:1;fill-rule:evenodd;stroke:#722727;stroke-width:.918547;stroke-linecap:round;stroke-linejoin:round;stroke-dasharray:none;stroke-opacity:1" d="M874.739 632.067h.537v1.495h-.537z" transform="translate(2.294 166.79)"/>
        <path style="fill:gray;fill-opacity:1;fill-rule:evenodd;stroke:#262626;stroke-width:.918547;stroke-linecap:round;stroke-linejoin:round;stroke-dasharray:none;stroke-opacity:1" d="m867.112 631.812.756.11h7.024v1.786h-7.024l-.756.11z" transform="translate(2.294 166.79)"/>
        <path style="fill:#a53e3e;fill-opacity:1;fill-rule:evenodd;stroke:#421a1a;stroke-width:3;stroke-linecap:round;stroke-linejoin:round;stroke-dasharray:none;stroke-opacity:1" d="M528.19 205.69c-1.02 1.766-2.225.125-3.842 1.366-1.617 1.24-.344 2.829-2.313 3.357-1.968.527-1.66-1.485-3.681-1.751-2.02-.266-2.244 1.757-4.009.738-1.765-1.019-.124-2.224-1.365-3.841-1.24-1.617-2.83-.344-3.357-2.313-.527-1.968 1.485-1.66 1.751-3.68.266-2.022-1.758-2.245-.739-4.01 1.02-1.765 2.225-.124 3.842-1.365 1.617-1.24.343-2.83 2.312-3.357 1.97-.527 1.66 1.485 3.682 1.751 2.02.266 2.243-1.758 4.009-.738 1.765 1.019.124 2.224 1.365 3.84 1.24 1.618 2.829.345 3.357 2.313.527 1.97-1.485 1.66-1.751 3.682-.266 2.02 1.757 2.243.738 4.009z" transform="matrix(.29551 .0793 -.07918 .29598 736.044 698.964)"/>
        <path style="display:inline;fill:none;fill-opacity:1;stroke:#382c14;stroke-width:1.32292;stroke-linecap:round;stroke-linejoin:round;stroke-dasharray:none;stroke-opacity:1" transform="rotate(-134.977 35.307 83.596) skewX(.046)" d="M-1056.977 170.385a6.664 6.654 0 0 1-4.113 6.148 6.664 6.654 0 0 1-7.262-1.443 6.664 6.654 0 0 1-1.444-7.251 6.664 6.654 0 0 1 6.156-4.108"/>
        <path style="fill:none;fill-opacity:1;fill-rule:evenodd;stroke:#382c14;stroke-width:1.32292;stroke-linecap:round;stroke-linejoin:round;stroke-dasharray:none;stroke-opacity:1" d="m867.502 636.57-1.803 1.803M867.522 627.148l-1.555-1.554" transform="translate(1.128 167.66)"/>
    </g>
</svg>
