<svg xmlns="http://www.w3.org/2000/svg" width="175" height="175" viewBox="0 0 46.302 46.302"><g style="stroke-width:.729845"><path d="m147.63 212.544-1.322-8.2 4.232-6.195 8.665-1.574 4.96 5.835-.312 9.176-9.585 3.146z" style="fill:gray;fill-opacity:1;stroke:none;stroke-width:1.54483;stroke-linecap:round;stroke-linejoin:round;stroke-dasharray:none;stroke-opacity:1;paint-order:normal" transform="matrix(2.39833 0 0 2.3972 -349.174 -469.828)"/><path d="m163.853 211.586.312-9.176-4.96-5.835.844 4.642.226 5.376z" style="opacity:1;fill:#666;fill-opacity:1;stroke:none;stroke-width:1.54483;stroke-linecap:round;stroke-linejoin:round;stroke-dasharray:none;stroke-opacity:1;paint-order:normal" transform="matrix(2.39833 0 0 2.3972 -349.174 -469.828)"/><path d="m150.54 198.15-4.232 6.195 1.321 8.199 6.639 2.188-3.807-4.39-.767-4.089z" style="opacity:1;fill:#999;fill-opacity:1;stroke:none;stroke-width:1.54483;stroke-linecap:round;stroke-linejoin:round;stroke-dasharray:none;stroke-opacity:1;paint-order:normal" transform="matrix(2.39833 0 0 2.3972 -349.174 -469.828)"/><path d="m154.268 214.732-6.639-2.188-1.32-8.2 4.231-6.195 8.665-1.574 4.96 5.835-.312 9.176z" style="fill:none;fill-opacity:1;stroke:#333;stroke-width:1.15863;stroke-linecap:round;stroke-linejoin:round;stroke-dasharray:none;stroke-opacity:1;paint-order:normal" transform="matrix(2.39833 0 0 2.3972 -349.174 -469.828)"/></g><path fill="none" d="M127.496 172.844h26.458v26.458h-26.458z" style="fill:#000;fill-opacity:0;stroke:none;stroke-width:2.11667;stroke-linecap:round;stroke-linejoin:miter;stroke-dasharray:none;stroke-opacity:1;paint-order:normal" transform="translate(-223.133 -302.46)scale(1.75)"/><path d="m20.13 18.081-.01-4.997-5.98-2.408-1.314-5.721-.954.222 1.872 6.07 5.681 2.426z" style="color:#000;fill:#333;-inkscape-stroke:none"/><path d="m14.29 15.668-.64-2.028.722-2.183-.628-.21-.828 2.504z" style="color:#000;fill:#333;-inkscape-stroke:none"/><path d="m31.429 12.292-1.288-4.75-3.638-1.848 2.974 2.37z" style="color:#000;fill:#333;fill-opacity:1;stroke-width:1.55083;-inkscape-stroke:none"/><path d="m20.81 44.929-2.009-4.379 1.959-3.616-1.186 3.654 2.027 3.803zM28.75 23.396l1.805-1.281c.14-.94.534-2.725.534-2.725l-1.046 2.537-1.495 1.046-2.428-.88s1.866 1.026 2.63 1.303M37.635 39.118l.877-.337-3.98-4.745 1.966-4.15-4.92-1.566 4.374 1.762-1.896 4.074zM16.729 30.482l-.932 2.256 1.166-1.438 2.606 1.219z" style="color:#000;fill:#333;-inkscape-stroke:none"/></svg>