<?xml version="1.0" encoding="UTF-8" standalone="no"?>
<!-- Created with Inkscape (http://www.inkscape.org/) -->

<svg
   width="175"
   height="175"
   viewBox="0 0 46.302083 46.302083"
   version="1.1"
   id="svg5"
   xmlns="http://www.w3.org/2000/svg"
   xmlns:svg="http://www.w3.org/2000/svg">
  <defs
     id="defs2" />
  <g
     id="layer1"
     transform="matrix(1.7499999,0,0,1.7499999,-176.35922,-348.31529)">
    <g
       id="g3321"
       transform="translate(-0.26464369,-0.24095629)">
      <g
         id="g2748"
         transform="matrix(0.97955763,0,0,0.97935063,-15.748536,-5.4082304)"
         style="stroke-width:1.02098">
        <path
           style="fill:#808080;fill-opacity:1;stroke:none;stroke-width:2.16107;stroke-linecap:round;stroke-linejoin:round;stroke-dasharray:none;stroke-opacity:1;paint-order:normal"
           d="m 124.42641,233.54828 -4.3888,-8.49837 2.51786,-10.93395 8.75346,-3.09347 11.36536,2.94079 2.75291,7.39353 -3.53946,9.67453 -8.48414,2.9669 z"
           id="path2694" />
        <path
           id="path2696"
           style="opacity:1;fill:#666666;fill-opacity:1;stroke:none;stroke-width:2.16107;stroke-linecap:round;stroke-linejoin:round;stroke-dasharray:none;stroke-opacity:1;paint-order:normal"
           d="m 124.42641,233.54828 8.97719,0.44996 8.48414,-2.9669 3.53946,-9.67453 -6.01899,1.7 -3.30417,4.41752 -6.07757,1.94731 z" />
        <path
           id="path2698"
           style="opacity:1;fill:#999999;fill-opacity:1;stroke:none;stroke-width:2.16107;stroke-linecap:round;stroke-linejoin:round;stroke-dasharray:none;stroke-opacity:1;paint-order:normal"
           d="m 126.24569,216.54934 8.18566,-2.19279 8.24294,-0.39327 -11.36536,-2.94079 -8.75346,3.09347 -2.51786,10.93395 3.86071,-1.99378 z" />
        <path
           style="fill:none;fill-opacity:1;stroke:#333333;stroke-width:1.6208;stroke-linecap:round;stroke-linejoin:round;stroke-dasharray:none;stroke-opacity:1;paint-order:normal"
           d="m 124.42641,233.54828 -4.3888,-8.49837 2.51786,-10.93395 8.75346,-3.09347 11.36536,2.94079 2.75291,7.39353 -3.53946,9.67453 -8.48414,2.9669 z"
           id="path2700" />
      </g>
      <rect
         style="fill:#000000;fill-opacity:0;stroke:none;stroke-width:2.11667;stroke-linecap:round;stroke-linejoin:miter;stroke-dasharray:none;stroke-opacity:1;paint-order:normal"
         id="rect2804-3"
         width="26.458334"
         height="26.458334"
         x="101.04134"
         y="199.27827" />
    </g>
  </g>
</svg>
