<?xml version="1.0" encoding="UTF-8" standalone="no"?>
<!-- Created with Inkscape (http://www.inkscape.org/) -->

<svg
   width="244.78026"
   height="244.78026"
   viewBox="0 0 64.764777 64.764777"
   version="1.1"
   id="svg1"
   inkscape:version="1.3.2 (1:1.3.2+202404261509+091e20ef0f)"
   sodipodi:docname="round_table.svg"
   xmlns:inkscape="http://www.inkscape.org/namespaces/inkscape"
   xmlns:sodipodi="http://sodipodi.sourceforge.net/DTD/sodipodi-0.dtd"
   xmlns="http://www.w3.org/2000/svg"
   xmlns:svg="http://www.w3.org/2000/svg">
  <sodipodi:namedview
     id="namedview1"
     pagecolor="#505050"
     bordercolor="#ffffff"
     borderopacity="1"
     inkscape:showpageshadow="0"
     inkscape:pageopacity="0"
     inkscape:pagecheckerboard="1"
     inkscape:deskcolor="#505050"
     inkscape:document-units="px"
     inkscape:zoom="4.1727552"
     inkscape:cx="112.63541"
     inkscape:cy="108.20189"
     inkscape:window-width="2560"
     inkscape:window-height="1368"
     inkscape:window-x="0"
     inkscape:window-y="0"
     inkscape:window-maximized="1"
     inkscape:current-layer="layer1" />
  <defs
     id="defs1" />
  <g
     inkscape:label="Layer 1"
     inkscape:groupmode="layer"
     id="layer1"
     transform="translate(-89.958337,-187.58952)">
    <g
       id="g349622"
       transform="matrix(-0.94225889,0,0,-0.94225889,1451.2634,2895.0594)"
       style="opacity:1">
      <circle
         style="opacity:1;fill:#302412;fill-opacity:1;fill-rule:evenodd;stroke:none;stroke-width:1.35901;stroke-linecap:round;stroke-linejoin:round;stroke-dasharray:none;stroke-opacity:1;stop-color:#000000"
         id="circle349616"
         cx="1410.3583"
         cy="2839.0154"
         r="34.366764" />
      <circle
         style="opacity:1;fill:#302412;fill-opacity:1;fill-rule:evenodd;stroke:#785a2e;stroke-width:2.122;stroke-linecap:round;stroke-linejoin:round;stroke-dasharray:none;stroke-opacity:1;stop-color:#000000"
         id="circle349618"
         cx="1410.2499"
         cy="2838.8921"
         r="30.905624" />
      <circle
         style="opacity:1;fill:#785a2e;fill-opacity:1;fill-rule:evenodd;stroke:none;stroke-width:1.08717;stroke-linecap:round;stroke-linejoin:round;stroke-dasharray:none;stroke-opacity:1;stop-color:#000000"
         id="circle349620"
         cx="1410.3215"
         cy="2838.7395"
         r="27.492298" />
    </g>
    <g
       id="g349634"
       transform="rotate(-90,167.89527,151.10944)"
       style="opacity:1">
      <ellipse
         style="fill:#9edfdd;fill-opacity:1;fill-rule:nonzero;stroke:#0e2b2a;stroke-width:0.925997;stroke-linecap:round;stroke-linejoin:round;stroke-miterlimit:4;stroke-dasharray:none;stroke-dashoffset:0;stroke-opacity:1;paint-order:normal"
         id="ellipse349624"
         cx="106.28225"
         cy="103.28164"
         rx="2.9541814"
         ry="2.9513478" />
      <path
         id="path349626"
         style="fill:#cb4431;fill-opacity:1;fill-rule:nonzero;stroke:#511b14;stroke-width:0.69453;stroke-linecap:round;stroke-linejoin:round;stroke-miterlimit:4;stroke-dasharray:none;stroke-dashoffset:0;stroke-opacity:1;paint-order:normal"
         d="m 107.78233,102.13367 a 1.1121366,1.1110913 0 0 0 -1.11196,1.11091 1.1121366,1.1110913 0 0 0 0.002,0.0581 1.1121366,1.1110913 0 0 0 -0.214,-0.0205 1.1121366,1.1110913 0 0 0 -1.11196,1.11091 1.1121366,1.1110913 0 0 0 0.78341,1.06056 1.1121366,1.1110913 0 0 0 -0.17801,0.60221 1.1121366,1.1110913 0 0 0 1.11195,1.1109 1.1121366,1.1110913 0 0 0 0.9058,-0.46618 1.1121366,1.1110913 0 0 0 0.81941,0.36026 1.1121366,1.1110913 0 0 0 1.11196,-1.1109 1.1121366,1.1110913 0 0 0 -0.2415,-0.69113 1.1121366,1.1110913 0 0 0 0.78603,-1.06253 1.1121366,1.1110913 0 0 0 -1.11196,-1.11093 1.1121366,1.1110913 0 0 0 -0.44112,0.0916 1.1121366,1.1110913 0 0 0 -1.11,-1.04356 z m 0.44112,2.13028 a 1.1121366,1.1110913 0 0 0 0.24019,0.62443 1.1121366,1.1110913 0 0 0 -0.57986,0.41716 1.1121366,1.1110913 0 0 0 -0.49086,-0.31058 1.1121366,1.1110913 0 0 0 0.17801,-0.60154 1.1121366,1.1110913 0 0 0 -0.002,-0.0589 1.1121366,1.1110913 0 0 0 0.21336,0.0205 1.1121366,1.1110913 0 0 0 0.44113,-0.0916 z" />
      <ellipse
         style="fill:#d3db57;fill-opacity:1;fill-rule:nonzero;stroke:#3c3f0d;stroke-width:0.463021;stroke-linecap:round;stroke-linejoin:round;stroke-miterlimit:4;stroke-dasharray:none;stroke-dashoffset:0;stroke-opacity:1;paint-order:normal"
         id="ellipse349628"
         cx="107.8959"
         cy="104.65038"
         rx="0.78642541"
         ry="0.78568619" />
      <path
         id="path349630"
         style="fill:#cb4431;fill-opacity:1;fill-rule:nonzero;stroke:#511b14;stroke-width:0.694531;stroke-linecap:round;stroke-linejoin:round;stroke-miterlimit:4;stroke-dasharray:none;stroke-dashoffset:0;stroke-opacity:1;paint-order:normal"
         d="m 106.49429,98.069887 a 1.1121367,1.1110913 0 0 0 -1.11197,1.11157 1.1121367,1.1110913 0 0 0 0.003,0.0582 1.1121367,1.1110913 0 0 0 -0.21401,-0.0209 1.1121367,1.1110913 0 0 0 -1.11195,1.111573 1.1121367,1.1110913 0 0 0 0.78341,1.06122 1.1121367,1.1110913 0 0 0 -0.17868,0.60155 1.1121367,1.1110913 0 0 0 1.11262,1.11092 1.1121367,1.1110913 0 0 0 0.90513,-0.46621 1.1121367,1.1110913 0 0 0 0.81941,0.36028 1.1121367,1.1110913 0 0 0 1.11262,-1.11091 1.1121367,1.1110913 0 0 0 -0.2415,-0.69114 1.1121367,1.1110913 0 0 0 0.78603,-1.06252 1.1121367,1.1110913 0 0 0 -1.11196,-1.110923 1.1121367,1.1110913 0 0 0 -0.44112,0.0915 1.1121367,1.1110913 0 0 0 -1.10999,-1.04422 z m 0.4411,2.130293 a 1.1121367,1.1110913 0 0 0 0.23889,0.62444 1.1121367,1.1110913 0 0 0 -0.57856,0.41782 1.1121367,1.1110913 0 0 0 -0.49151,-0.31059 1.1121367,1.1110913 0 0 0 0.17802,-0.60155 1.1121367,1.1110913 0 0 0 -0.001,-0.0595 1.1121367,1.1110913 0 0 0 0.21337,0.0216 1.1121367,1.1110913 0 0 0 0.4411,-0.0922 z" />
      <ellipse
         style="fill:#d3db57;fill-opacity:1;fill-rule:nonzero;stroke:#3c3f0d;stroke-width:0.463021;stroke-linecap:round;stroke-linejoin:round;stroke-miterlimit:4;stroke-dasharray:none;stroke-dashoffset:0;stroke-opacity:1;paint-order:normal"
         id="ellipse349632"
         cx="106.63796"
         cy="100.63244"
         rx="0.78642541"
         ry="0.78568619" />
    </g>
    <g
       id="g349642"
       transform="rotate(-139.3896,137.11037,146.59038)"
       style="opacity:1">
      <rect
         style="fill:#ab7f60;fill-opacity:1;stroke:#35271c;stroke-width:0.925719;stroke-linecap:round;stroke-linejoin:round;stroke-miterlimit:4;stroke-dasharray:none;stroke-opacity:1"
         id="rect349636"
         width="5.8917327"
         height="9.525322"
         x="95.243782"
         y="82.555138"
         rx="0.26328495"
         ry="0.28339866" />
      <rect
         style="fill:#30839e;fill-opacity:1;stroke:#c8c8c8;stroke-width:0.906619;stroke-linecap:round;stroke-linejoin:round;stroke-miterlimit:4;stroke-dasharray:none;stroke-opacity:1"
         id="rect349638"
         width="2.9439113"
         height="8.3537979"
         x="97.847466"
         y="83.144646"
         rx="0.26634058"
         ry="0.25192741" />
      <rect
         style="fill:#ab7f60;fill-opacity:1;stroke:#453225;stroke-width:0.925719;stroke-linecap:round;stroke-linejoin:round;stroke-miterlimit:4;stroke-dasharray:none;stroke-opacity:1"
         id="rect349640"
         width="5.8917327"
         height="9.5253229"
         x="94.572479"
         y="82.555138"
         rx="0.26459783"
         ry="0.26438412" />
    </g>
  </g>
</svg>
