<svg xmlns="http://www.w3.org/2000/svg" xmlns:xlink="http://www.w3.org/1999/xlink" width="138.011" height="144.905" viewBox="0 0 36.515 38.339"><defs><linearGradient xlink:href="#a" id="d" x1="108.577" x2="119.471" y1="68.288" y2="67.659" gradientUnits="userSpaceOnUse"/><linearGradient id="a"><stop offset=".183" style="stop-color:#2a2a2a;stop-opacity:1"/><stop offset="1" style="stop-color:#3d3d3d;stop-opacity:1"/></linearGradient><linearGradient xlink:href="#a" id="e" x1="85.521" x2="100.71" y1="64.216" y2="52.177" gradientTransform="translate(20.458 -.2)" gradientUnits="userSpaceOnUse"/><linearGradient id="b"><stop offset="0" style="stop-color:#494949;stop-opacity:1"/><stop offset="1" style="stop-color:#262626;stop-opacity:1"/></linearGradient><linearGradient xlink:href="#c" id="g" x1="110.535" x2="115.36" y1="76.023" y2="72.562" gradientUnits="userSpaceOnUse"/><linearGradient id="c"><stop offset="0" style="stop-color:#52322b;stop-opacity:1"/><stop offset="1" style="stop-color:#74483e;stop-opacity:1"/></linearGradient><radialGradient xlink:href="#b" id="f" cx="93.049" cy="55.65" r="7.661" fx="93.049" fy="55.65" gradientTransform="translate(20.458 -.2)" gradientUnits="userSpaceOnUse"/></defs><g transform="translate(-54.804 -129.33)"><path d="M74.518 163.855h5.752l-1.41 3.418-3.091-.011zM67.854 163.855h5.752l-1.41 3.418-3.091-.011zM81.193 163.855h5.752l-1.41 3.418-3.091-.011z" style="display:inline;fill:#4d4d4d;stroke:#1f1f1f;stroke-width:.79375;stroke-linejoin:round;stroke-miterlimit:4;stroke-dasharray:none;stroke-opacity:1"/><rect width="34.737" height="33.377" x="55.693" y="-163.596" rx="1.684" ry="1.684" style="fill:#666;fill-opacity:1;fill-rule:evenodd;stroke:#292929;stroke-width:1.778;stroke-linecap:round;stroke-linejoin:round;stroke-dasharray:none;stroke-opacity:1;stop-color:#000" transform="scale(1 -1)"/><rect width="31.026" height="26.486" x="57.549" y="132.027" rx=".826" ry=".883" style="fill:#4d4d4d;fill-opacity:1;stroke:none;stroke-width:2.84894;stroke-linecap:square;stroke-linejoin:round;stroke-miterlimit:4;stroke-dasharray:none;stroke-opacity:1"/><rect width="23.588" height="1.587" x="133.476" y="-73.856" rx=".794" ry=".952" style="fill:gray;fill-opacity:1;stroke:none;stroke-width:1.84326;stroke-linecap:square;stroke-linejoin:round;stroke-miterlimit:4;stroke-dasharray:none;stroke-opacity:1" transform="rotate(90)"/><circle cx="81.861" cy="138.894" r="5.292" style="display:inline;fill:gray;fill-opacity:1;stroke:none;stroke-width:.477311;stroke-linejoin:bevel;stroke-dasharray:none;stroke-opacity:1"/><circle cx="81.861" cy="138.894" r="4.57" style="display:inline;fill:#666;fill-opacity:1;stroke:none;stroke-width:.412223;stroke-linejoin:bevel;stroke-dasharray:none;stroke-opacity:1"/><circle cx="81.861" cy="138.894" r="1.684" style="display:inline;fill:#333;fill-opacity:1;stroke:none;stroke-width:1.57597;stroke-linejoin:bevel;stroke-dasharray:none;stroke-opacity:1"/><circle cx="81.861" cy="151.706" r="5.292" style="display:inline;fill:gray;fill-opacity:1;stroke:none;stroke-width:.477311;stroke-linejoin:bevel;stroke-dasharray:none;stroke-opacity:1"/><circle cx="81.861" cy="151.706" r="4.57" style="display:inline;fill:#666;fill-opacity:1;stroke:none;stroke-width:.412223;stroke-linejoin:bevel;stroke-dasharray:none;stroke-opacity:1"/><circle cx="81.861" cy="151.706" r="1.684" style="display:inline;fill:#333;fill-opacity:1;stroke:none;stroke-width:1.57597;stroke-linejoin:bevel;stroke-dasharray:none;stroke-opacity:1"/><circle cx="64.238" cy="138.894" r="5.292" style="display:inline;fill:gray;fill-opacity:1;stroke:none;stroke-width:.477311;stroke-linejoin:bevel;stroke-dasharray:none;stroke-opacity:1"/><circle cx="64.238" cy="138.894" r="4.57" style="display:inline;fill:#666;fill-opacity:1;stroke:none;stroke-width:.412223;stroke-linejoin:bevel;stroke-dasharray:none;stroke-opacity:1"/><circle cx="64.238" cy="138.894" r="1.684" style="display:inline;fill:#333;fill-opacity:1;stroke:none;stroke-width:1.57597;stroke-linejoin:bevel;stroke-dasharray:none;stroke-opacity:1"/><circle cx="64.238" cy="151.706" r="5.292" style="display:inline;fill:gray;fill-opacity:1;stroke:none;stroke-width:.477311;stroke-linejoin:bevel;stroke-dasharray:none;stroke-opacity:1"/><circle cx="64.238" cy="151.706" r="4.57" style="display:inline;fill:#666;fill-opacity:1;stroke:none;stroke-width:.412223;stroke-linejoin:bevel;stroke-dasharray:none;stroke-opacity:1"/><circle cx="64.238" cy="151.706" r="1.684" style="display:inline;fill:#333;fill-opacity:1;stroke:none;stroke-width:1.57597;stroke-linejoin:bevel;stroke-dasharray:none;stroke-opacity:1"/><rect width="31.026" height="2.132" x="57.549" y="159.605" rx="1.107" ry=".952" style="fill:gray;fill-opacity:1;stroke:none;stroke-width:2.44964;stroke-linecap:square;stroke-linejoin:round;stroke-miterlimit:4;stroke-dasharray:none;stroke-opacity:1"/><g transform="matrix(.42697 .45648 -.45331 .40119 58.203 78.027)"><circle cx="113.538" cy="45.251" r="2.348" style="fill:#494949;fill-opacity:1;stroke:#232323;stroke-width:1.1;stroke-linecap:round;stroke-linejoin:miter;stroke-dasharray:none;stroke-opacity:1;paint-order:fill markers stroke"/><circle cx="123.888" cy="55.451" r="2.348" style="fill:#494949;fill-opacity:1;stroke:#232323;stroke-width:1.1;stroke-linecap:round;stroke-linejoin:miter;stroke-dasharray:none;stroke-opacity:1;paint-order:fill markers stroke"/><circle cx="103.188" cy="55.451" r="2.348" style="fill:#494949;fill-opacity:1;stroke:#232323;stroke-width:1.1;stroke-linecap:round;stroke-linejoin:miter;stroke-dasharray:none;stroke-opacity:1;paint-order:fill markers stroke"/><path d="m108.036 64.373 5.488.927 5.397-.896v0c-1.964 1.33-4.796 3.317-4.836 4.452-.009.264.4 2.037.236 2.042-.163.004-.662.048-.836.048s-.592-.035-.741-.039.104-1.734.08-2.057c-.084-1.189-3.931-3.865-4.789-4.477" style="fill:url(#d);stroke:#242424;stroke-width:1.1;stroke-linecap:round;stroke-linejoin:round;paint-order:fill markers stroke"/><path d="M124.223 55.45c0 2.96-1.2 5.639-3.139 7.578a10.68 10.68 0 0 1-7.577 3.138c-5.918 0-10.715-4.797-10.715-10.715s4.797-10.716 10.715-10.716c2.96 0 5.638 1.2 7.577 3.138a10.68 10.68 0 0 1 3.139 7.578z" style="fill:url(#e);stroke:#242424;stroke-width:1.1;stroke-linecap:square;paint-order:fill markers stroke"/><circle cx="113.507" cy="55.451" r="7.111" style="fill:url(#f);stroke:#232323;stroke-width:1.1;stroke-linecap:round;stroke-linejoin:round;stroke-dasharray:none;stroke-opacity:1;paint-order:fill markers stroke"/><path d="M112.803 69.388h1.35v0s2.286 12.23-.675 12.242c-2.833.01-.817-10.007-.675-12.242" style="fill:url(#g);fill-opacity:1;stroke:#2f1d19;stroke-width:1.1;stroke-linecap:round;stroke-linejoin:round;stroke-opacity:1;paint-order:fill markers stroke"/></g></g></svg>