<?xml version="1.0" encoding="UTF-8" standalone="no"?>
<!-- Created with Inkscape (http://www.inkscape.org/) -->

<svg
   width="159.68977"
   height="113.30309"
   viewBox="0 0 42.251252 29.978108"
   version="1.1"
   id="svg1"
   inkscape:version="1.3.2 (091e20e, 2023-11-25, custom)"
   sodipodi:docname="smaller_sandbags.svg"
   xmlns:inkscape="http://www.inkscape.org/namespaces/inkscape"
   xmlns:sodipodi="http://sodipodi.sourceforge.net/DTD/sodipodi-0.dtd"
   xmlns="http://www.w3.org/2000/svg"
   xmlns:svg="http://www.w3.org/2000/svg">
  <sodipodi:namedview
     id="namedview1"
     pagecolor="#ffffff"
     bordercolor="#000000"
     borderopacity="0.25"
     inkscape:showpageshadow="2"
     inkscape:pageopacity="0.0"
     inkscape:pagecheckerboard="0"
     inkscape:deskcolor="#d1d1d1"
     inkscape:document-units="px"
     inkscape:zoom="2.0485265"
     inkscape:cx="96.410764"
     inkscape:cy="152.54868"
     inkscape:window-width="1920"
     inkscape:window-height="1001"
     inkscape:window-x="-9"
     inkscape:window-y="-9"
     inkscape:window-maximized="1"
     inkscape:current-layer="layer1" />
  <defs
     id="defs1" />
  <g
     inkscape:label="Layer 1"
     inkscape:groupmode="layer"
     id="layer1"
     transform="translate(-59.398909,-105.22161)">
    <g
       id="g35730-2-8"
       transform="translate(4303.0703,1660.5036)">
      <g
         id="g35716-2-2"
         transform="matrix(1,0,0,0.87821238,0,-137.78506)"
         style="stroke-width:1.06709">
        <path
           id="path35712-7-1"
           d="m -4205.0415,-1613.0372 c 0,0 -4.422,0.629 -6.6541,0.629 -2.2321,0 -6.6541,-0.629 -6.6541,-0.629 -1.4257,-0.1347 -2.5979,1.1773 -2.5979,2.6295 0,0 0.7501,8.8329 0.7501,13.2569 0,4.4239 -0.7501,13.2568 -0.7501,13.2568 -0.091,1.6132 1.2935,2.9242 2.8891,2.9242 0,0 4.3003,-0.629 6.4721,-0.629 2.1718,0 6.4721,0.629 6.4721,0.629 1.4652,0.1424 2.6707,-1.2102 2.6707,-2.7032 0,0 -0.75,-8.9066 -0.75,-13.3673 0,-4.4607 0.75,-13.3674 0.75,-13.3674 0,-1.4522 -1.1631,-2.6295 -2.5979,-2.6295 z"
           style="fill:#c08d46;fill-opacity:1;stroke:#4c371a;stroke-width:2.04692;stroke-linecap:round;stroke-linejoin:round;stroke-dasharray:none;stroke-opacity:1"
           sodipodi:nodetypes="sassassassass" />
        <path
           id="path35714-1-8"
           d="m -4207.1702,-1610.0182 c 0,0 -3.0078,0.5105 -4.5261,0.5105 -1.5182,0 -4.526,-0.5105 -4.526,-0.5105 -0.9698,-0.1094 -1.767,0.9556 -1.767,2.1344 0,0 0.5101,7.1698 0.5101,10.7608 0,3.591 -0.5101,10.7608 -0.5101,10.7608 -0.062,1.3094 0.8798,2.3736 1.9651,2.3736 0,0 2.925,-0.5105 4.4022,-0.5105 1.4773,0 4.4023,0.5105 4.4023,0.5105 0.9965,0.1156 1.8165,-0.9824 1.8165,-2.1942 0,0 -0.5102,-7.2297 -0.5102,-10.8505 0,-3.6208 0.5102,-10.8505 0.5102,-10.8505 0,-1.1788 -0.7911,-2.1344 -1.767,-2.1344 z"
           style="fill:#cba166;fill-opacity:1;stroke:none;stroke-width:1.93183;stroke-linecap:round;stroke-linejoin:round;stroke-dasharray:none;stroke-opacity:1"
           sodipodi:nodetypes="sassassassass" />
      </g>
      <g
         id="g35722-5-4"
         transform="matrix(1,0,0,0.87821238,0,-137.78506)"
         style="stroke-width:1.06709">
        <path
           id="path35718-2-5"
           d="m -4226.7374,-1613.0372 c 0,0 -4.4221,0.629 -6.6541,0.629 -2.2321,0 -6.6542,-0.629 -6.6542,-0.629 -1.4257,-0.1347 -2.5979,1.1773 -2.5979,2.6295 0,0 0.7501,8.8329 0.7501,13.2569 0,4.4239 -0.7501,13.2568 -0.7501,13.2568 -0.091,1.6132 1.2935,2.9242 2.8891,2.9242 0,0 4.3004,-0.629 6.4722,-0.629 2.1718,0 6.4721,0.629 6.4721,0.629 1.4651,0.1424 2.6707,-1.2102 2.6707,-2.7032 0,0 -0.7501,-8.9066 -0.7501,-13.3673 0,-4.4607 0.7501,-13.3674 0.7501,-13.3674 0,-1.4522 -1.1632,-2.6295 -2.5979,-2.6295 z"
           style="fill:#c08d46;fill-opacity:1;stroke:#4c371a;stroke-width:2.04692;stroke-linecap:round;stroke-linejoin:round;stroke-dasharray:none;stroke-opacity:1"
           sodipodi:nodetypes="sassassassass" />
        <path
           id="path35720-1-1"
           d="m -4228.8662,-1610.0182 c 0,0 -3.0078,0.5105 -4.526,0.5105 -1.5183,0 -4.5261,-0.5105 -4.5261,-0.5105 -0.9697,-0.1094 -1.767,0.9556 -1.767,2.1344 0,0 0.5102,7.1698 0.5102,10.7608 0,3.591 -0.5102,10.7608 -0.5102,10.7608 -0.062,1.3094 0.8798,2.3736 1.9651,2.3736 0,0 2.925,-0.5105 4.4023,-0.5105 1.4772,0 4.4022,0.5105 4.4022,0.5105 0.9966,0.1156 1.8166,-0.9824 1.8166,-2.1942 0,0 -0.5102,-7.2297 -0.5102,-10.8505 0,-3.6208 0.5102,-10.8505 0.5102,-10.8505 0,-1.1788 -0.7912,-2.1344 -1.7671,-2.1344 z"
           style="fill:#cba166;fill-opacity:1;stroke:none;stroke-width:1.93183;stroke-linecap:round;stroke-linejoin:round;stroke-dasharray:none;stroke-opacity:1"
           sodipodi:nodetypes="sassassassass" />
      </g>
      <g
         id="g35728-1-8"
         transform="translate(0,52.932525)">
        <path
           id="path35724-0-8"
           d="m -4238.8446,-1599.9559 c 0,0 0.629,4.422 0.629,6.6541 0,2.2321 -0.629,6.6541 -0.629,6.6541 -0.1348,1.4258 1.1772,2.5979 2.6295,2.5979 0,0 8.8329,-0.75 13.2568,-0.75 4.4239,0 13.2568,0.75 13.2568,0.75 1.6132,0.091 2.9243,-1.2935 2.9243,-2.8891 0,0 -0.629,-4.3003 -0.629,-6.4721 0,-2.1718 0.629,-6.4721 0.629,-6.4721 0.1424,-1.4652 -1.2103,-2.6707 -2.7032,-2.6707 0,0 -8.9067,0.75 -13.3674,0.75 -4.4607,0 -13.3673,-0.75 -13.3673,-0.75 -1.4523,0 -2.6295,1.1631 -2.6295,2.5979 z"
           style="fill:#c08d46;fill-opacity:1;stroke:#4c371a;stroke-width:1.91823;stroke-linecap:round;stroke-linejoin:round;stroke-dasharray:none;stroke-opacity:1"
           sodipodi:nodetypes="sassassassass" />
        <path
           id="path35726-1-9"
           d="m -4235.8257,-1597.8271 c 0,0 0.5106,3.0078 0.5106,4.526 0,1.5182 -0.5106,4.526 -0.5106,4.526 -0.1094,0.9698 0.9556,1.7671 2.1344,1.7671 0,0 7.1698,-0.5102 10.7608,-0.5102 3.591,0 10.7608,0.5102 10.7608,0.5102 1.3095,0.062 2.3737,-0.8798 2.3737,-1.9652 0,0 -0.5106,-2.925 -0.5106,-4.4022 0,-1.4772 0.5106,-4.4022 0.5106,-4.4022 0.1156,-0.9966 -0.9824,-1.8166 -2.1942,-1.8166 0,0 -7.2297,0.5102 -10.8506,0.5102 -3.6208,0 -10.8505,-0.5102 -10.8505,-0.5102 -1.1788,0 -2.1344,0.7911 -2.1344,1.7671 z"
           style="fill:#cba166;fill-opacity:1;stroke:none;stroke-width:1.81038;stroke-linecap:round;stroke-linejoin:round;stroke-dasharray:none;stroke-opacity:1"
           sodipodi:nodetypes="sassassassass" />
      </g>
    </g>
  </g>
</svg>
