<?xml version="1.0" encoding="UTF-8" standalone="no"?>
<svg
   width="165.71259"
   height="244.713"
   viewBox="0 0 43.844787 64.74698"
   version="1.1"
   id="svg1408"
   sodipodi:docname="small_table_2.svg"
   inkscape:version="1.3.2 (1:1.3.2+202311252150+091e20ef0f)"
   xmlns:inkscape="http://www.inkscape.org/namespaces/inkscape"
   xmlns:sodipodi="http://sodipodi.sourceforge.net/DTD/sodipodi-0.dtd"
   xmlns="http://www.w3.org/2000/svg"
   xmlns:svg="http://www.w3.org/2000/svg"
   xmlns:rdf="http://www.w3.org/1999/02/22-rdf-syntax-ns#"
   xmlns:cc="http://creativecommons.org/ns#"
   xmlns:dc="http://purl.org/dc/elements/1.1/">
  <defs
     id="defs1402" />
  <sodipodi:namedview
     id="base"
     pagecolor="#505050"
     bordercolor="#666666"
     borderopacity="1.0"
     inkscape:pageopacity="0"
     inkscape:pageshadow="2"
     inkscape:zoom="1.8799999"
     inkscape:cx="-104.52128"
     inkscape:cy="134.30852"
     inkscape:document-units="px"
     inkscape:current-layer="layer1"
     inkscape:document-rotation="0"
     showgrid="false"
     inkscape:window-width="2560"
     inkscape:window-height="1368"
     inkscape:window-x="0"
     inkscape:window-y="0"
     inkscape:window-maximized="1"
     fit-margin-top="0"
     fit-margin-left="0"
     fit-margin-right="0"
     fit-margin-bottom="0"
     inkscape:pagecheckerboard="1"
     units="px"
     inkscape:showpageshadow="0"
     inkscape:deskcolor="#505050" />
  <metadata
     id="metadata1405">
    <rdf:RDF>
      <cc:Work
         rdf:about="">
        <dc:format>image/svg+xml</dc:format>
        <dc:type
           rdf:resource="http://purl.org/dc/dcmitype/StillImage" />
      </cc:Work>
    </rdf:RDF>
  </metadata>
  <g
     inkscape:label="Layer 1"
     inkscape:groupmode="layer"
     id="layer1"
     transform="translate(-108.72809,-171.15483)">
    <rect
       style="display:inline;fill:#302412;fill-opacity:1;stroke-width:0.125008"
       id="rect349-0"
       width="64.746979"
       height="43.844788"
       x="171.15483"
       y="-152.57288"
       rx="2.9699221"
       ry="2.5275857"
       transform="rotate(90)" />
    <rect
       style="display:inline;fill:#785a2e;fill-opacity:1;stroke-width:0.128916"
       id="rect457-7"
       width="54.147556"
       height="39.876148"
       x="176.45454"
       y="-150.58856"
       rx="1.3229166"
       ry="1.3229166"
       transform="rotate(90)" />
    <rect
       style="display:inline;fill:#785a2e;fill-opacity:1;stroke-width:0.0959866"
       id="rect2398-7-9"
       width="1.5875"
       height="39.876148"
       x="173.13921"
       y="-150.58861"
       rx="0.79374999"
       ry="0.79374999"
       transform="rotate(90)" />
    <rect
       style="display:inline;fill:#785a2e;fill-opacity:1;stroke-width:0.0959866"
       id="rect2398-7-9-3"
       width="1.5875"
       height="39.876148"
       x="232.32994"
       y="-150.58861"
       rx="0.79374999"
       ry="0.79374999"
       transform="rotate(90)" />
    <g
       id="g3"
       transform="rotate(-90,203.90667,762.47206)">
      <circle
         style="fill:#0094b2;fill-opacity:0.3;fill-rule:evenodd;stroke:#005666;stroke-width:0.777939;stroke-linecap:round;stroke-linejoin:round;stroke-dasharray:none;stroke-opacity:0.8;stop-color:#000000"
         id="circle44663"
         cx="-550.88519"
         cy="877.25281"
         r="4.2107244"
         transform="rotate(-79.901336)" />
      <circle
         style="fill:#0094b2;fill-opacity:0.3;fill-rule:evenodd;stroke:#005666;stroke-width:0.777939;stroke-linecap:round;stroke-linejoin:round;stroke-dasharray:none;stroke-opacity:0.8;stop-color:#000000"
         id="circle44665"
         cx="-550.88519"
         cy="877.25281"
         r="4.2107244"
         transform="rotate(-79.901336)" />
      <circle
         style="fill:#b2b2b2;fill-opacity:1;fill-rule:evenodd;stroke:#808080;stroke-width:0.677984;stroke-linecap:round;stroke-linejoin:round;stroke-dasharray:none;stroke-opacity:1;stop-color:#000000"
         id="circle44667"
         cx="-550.93719"
         cy="877.25598"
         r="1.908167"
         transform="rotate(-79.901336)" />
      <g
         id="g44679"
         transform="matrix(-0.9999988,0.00154898,0.00154898,0.9999988,864.66441,579.77287)">
        <ellipse
           style="fill:#9edfdd;fill-opacity:1;fill-rule:nonzero;stroke:#0e2b2a;stroke-width:0.925997;stroke-linecap:round;stroke-linejoin:round;stroke-miterlimit:4;stroke-dasharray:none;stroke-dashoffset:0;stroke-opacity:1;paint-order:normal"
           id="ellipse44669"
           cx="106.28225"
           cy="103.28164"
           rx="2.9541814"
           ry="2.9513478" />
        <path
           id="path44671"
           style="fill:#cb4431;fill-opacity:1;fill-rule:nonzero;stroke:#511b14;stroke-width:0.69453;stroke-linecap:round;stroke-linejoin:round;stroke-miterlimit:4;stroke-dasharray:none;stroke-dashoffset:0;stroke-opacity:1;paint-order:normal"
           d="m 107.78233,102.13367 a 1.1121366,1.1110913 0 0 0 -1.11196,1.11091 1.1121366,1.1110913 0 0 0 0.002,0.0581 1.1121366,1.1110913 0 0 0 -0.214,-0.0205 1.1121366,1.1110913 0 0 0 -1.11196,1.11091 1.1121366,1.1110913 0 0 0 0.78341,1.06056 1.1121366,1.1110913 0 0 0 -0.17801,0.60221 1.1121366,1.1110913 0 0 0 1.11195,1.1109 1.1121366,1.1110913 0 0 0 0.9058,-0.46618 1.1121366,1.1110913 0 0 0 0.81941,0.36026 1.1121366,1.1110913 0 0 0 1.11196,-1.1109 1.1121366,1.1110913 0 0 0 -0.2415,-0.69113 1.1121366,1.1110913 0 0 0 0.78603,-1.06253 1.1121366,1.1110913 0 0 0 -1.11196,-1.11093 1.1121366,1.1110913 0 0 0 -0.44112,0.0916 1.1121366,1.1110913 0 0 0 -1.11,-1.04356 z m 0.44112,2.13028 a 1.1121366,1.1110913 0 0 0 0.24019,0.62443 1.1121366,1.1110913 0 0 0 -0.57986,0.41716 1.1121366,1.1110913 0 0 0 -0.49086,-0.31058 1.1121366,1.1110913 0 0 0 0.17801,-0.60154 1.1121366,1.1110913 0 0 0 -0.002,-0.0589 1.1121366,1.1110913 0 0 0 0.21336,0.0205 1.1121366,1.1110913 0 0 0 0.44113,-0.0916 z" />
        <ellipse
           style="fill:#d3db57;fill-opacity:1;fill-rule:nonzero;stroke:#3c3f0d;stroke-width:0.463021;stroke-linecap:round;stroke-linejoin:round;stroke-miterlimit:4;stroke-dasharray:none;stroke-dashoffset:0;stroke-opacity:1;paint-order:normal"
           id="ellipse44673"
           cx="107.8959"
           cy="104.65038"
           rx="0.78642541"
           ry="0.78568619" />
        <path
           id="path44675"
           style="fill:#cb4431;fill-opacity:1;fill-rule:nonzero;stroke:#511b14;stroke-width:0.694531;stroke-linecap:round;stroke-linejoin:round;stroke-miterlimit:4;stroke-dasharray:none;stroke-dashoffset:0;stroke-opacity:1;paint-order:normal"
           d="m 106.49429,98.069887 a 1.1121367,1.1110913 0 0 0 -1.11197,1.11157 1.1121367,1.1110913 0 0 0 0.003,0.0582 1.1121367,1.1110913 0 0 0 -0.21401,-0.0209 1.1121367,1.1110913 0 0 0 -1.11195,1.111573 1.1121367,1.1110913 0 0 0 0.78341,1.06122 1.1121367,1.1110913 0 0 0 -0.17868,0.60155 1.1121367,1.1110913 0 0 0 1.11262,1.11092 1.1121367,1.1110913 0 0 0 0.90513,-0.46621 1.1121367,1.1110913 0 0 0 0.81941,0.36028 1.1121367,1.1110913 0 0 0 1.11262,-1.11091 1.1121367,1.1110913 0 0 0 -0.2415,-0.69114 1.1121367,1.1110913 0 0 0 0.78603,-1.06252 1.1121367,1.1110913 0 0 0 -1.11196,-1.110923 1.1121367,1.1110913 0 0 0 -0.44112,0.0915 1.1121367,1.1110913 0 0 0 -1.10999,-1.04422 z m 0.4411,2.130293 a 1.1121367,1.1110913 0 0 0 0.23889,0.62444 1.1121367,1.1110913 0 0 0 -0.57856,0.41782 1.1121367,1.1110913 0 0 0 -0.49151,-0.31059 1.1121367,1.1110913 0 0 0 0.17802,-0.60155 1.1121367,1.1110913 0 0 0 -0.001,-0.0595 1.1121367,1.1110913 0 0 0 0.21337,0.0216 1.1121367,1.1110913 0 0 0 0.4411,-0.0922 z" />
        <ellipse
           style="fill:#d3db57;fill-opacity:1;fill-rule:nonzero;stroke:#3c3f0d;stroke-width:0.463021;stroke-linecap:round;stroke-linejoin:round;stroke-miterlimit:4;stroke-dasharray:none;stroke-dashoffset:0;stroke-opacity:1;paint-order:normal"
           id="ellipse44677"
           cx="106.63796"
           cy="100.63244"
           rx="0.78642541"
           ry="0.78568619" />
      </g>
      <path
         id="path44681"
         style="fill:#55d6ce;fill-opacity:1;fill-rule:nonzero;stroke:#0f3c39;stroke-width:0.694531;stroke-linecap:round;stroke-linejoin:round;stroke-miterlimit:4;stroke-dasharray:none;stroke-dashoffset:0;stroke-opacity:1;paint-order:normal"
         d="m 758.21597,684.93149 a 1.1121367,1.1110913 74.088529 0 0 1.37389,0.76467 1.1121367,1.1110913 74.088529 0 0 0.056,-0.0161 1.1121367,1.1110913 74.088529 0 0 0.0383,0.21164 1.1121367,1.1110913 74.088529 0 0 1.37379,0.76458 1.1121367,1.1110913 74.088529 0 0 0.80578,-1.04435 1.1121367,1.1110913 74.088529 0 0 0.62751,0.009 1.1121367,1.1110913 74.088529 0 0 0.76338,-1.37459 1.1121367,1.1110913 74.088529 0 0 -0.69656,-0.74252 1.1121367,1.1110913 74.088529 0 0 0.12163,-0.88699 1.1121367,1.1110913 74.088529 0 0 -1.37339,-0.76547 1.1121367,1.1110913 74.088529 0 0 -0.59844,0.42172 1.1121367,1.1110913 74.088529 0 0 -1.23733,-0.46458 1.1121367,1.1110913 74.088529 0 0 -0.76347,1.37398 1.1121367,1.1110913 74.088529 0 0 0.20882,0.39908 1.1121367,1.1110913 74.088529 0 0 -0.6998,1.35379 z m 1.92774,-1.00829 a 1.1121367,1.1110913 74.088529 0 0 0.53508,-0.40083 1.1121367,1.1110913 74.088529 0 0 0.56039,0.44183 1.1121367,1.1110913 74.088529 0 0 -0.16374,0.55796 1.1121367,1.1110913 74.088529 0 0 -0.62732,-0.009 1.1121367,1.1110913 74.088529 0 0 -0.057,0.0181 1.1121367,1.1110913 74.088529 0 0 -0.0373,-0.21114 1.1121367,1.1110913 74.088529 0 0 -0.20962,-0.39898 z" />
      <ellipse
         style="fill:#d3db57;fill-opacity:1;fill-rule:nonzero;stroke:#3c3f0d;stroke-width:0.463021;stroke-linecap:round;stroke-linejoin:round;stroke-miterlimit:4;stroke-dasharray:none;stroke-dashoffset:0;stroke-opacity:1;paint-order:normal"
         id="ellipse44683"
         cx="-866.41199"
         cy="543.95367"
         rx="0.78642541"
         ry="0.78568619"
         transform="rotate(-105.91147)" />
    </g>
  </g>
</svg>
