<svg xmlns="http://www.w3.org/2000/svg" width="150" height="150" viewBox="0 0 39.687 39.687"><g style="stroke-width:1.07867"><g style="stroke-width:1.0736" transform="matrix(.93144 0 0 .93144 -1249.473 -134.174)"><circle cx="1080.526" cy="-846.681" r="20.105" style="fill:#b23424;fill-opacity:1;stroke:#260b08;stroke-width:2.41449;stroke-linecap:round;stroke-linejoin:round;stroke-miterlimit:4;stroke-dasharray:none;stroke-opacity:1" transform="rotate(45)"/><circle cx="1080.624" cy="-846.681" r="17.703" style="fill:none;fill-opacity:1;stroke:#d64533;stroke-width:2.55651;stroke-linecap:square;stroke-dasharray:none;stroke-opacity:1;stop-color:#000" transform="rotate(45)"/><circle cx="1088.28" cy="-838.927" r="3.667" style="fill:#7f251a;fill-opacity:1;stroke:#3f120d;stroke-width:1.42029;stroke-linecap:round;stroke-linejoin:round;stroke-miterlimit:4;stroke-dasharray:none;stroke-opacity:1" transform="rotate(45)"/><g style="stroke-width:1.04313" transform="translate(-39.233 -4.608)scale(1.02922)"><rect width="11.622" height="5.811" x="1356.359" y="162.214" ry="0" style="fill:#d64533;fill-opacity:1;stroke:#3f120d;stroke-width:1.37997;stroke-linecap:butt;stroke-linejoin:round;stroke-dasharray:none;stroke-opacity:1"/><g style="stroke-width:2.44763;stroke-dasharray:none" transform="matrix(.5831 .83058 -.83058 .5831 1368.785 169.734)"><circle cx="-10.983" cy="5.428" r=".463" style="fill:#3f120d;fill-opacity:1;stroke:none;stroke-width:3.02127;stroke-linecap:round;stroke-linejoin:round;stroke-miterlimit:4;stroke-dasharray:none;stroke-opacity:1"/><circle cx="-8.817" cy="6.949" r=".463" style="fill:#3f120d;fill-opacity:1;stroke:none;stroke-width:3.02127;stroke-linecap:round;stroke-linejoin:round;stroke-miterlimit:4;stroke-dasharray:none;stroke-opacity:1"/><circle cx="-3.95" cy=".017" r=".463" style="fill:#3f120d;fill-opacity:1;stroke:none;stroke-width:3.02127;stroke-linecap:round;stroke-linejoin:round;stroke-miterlimit:4;stroke-dasharray:none;stroke-opacity:1"/><circle cx="-6.117" cy="-1.504" r=".463" style="fill:#3f120d;fill-opacity:1;stroke:none;stroke-width:3.02127;stroke-linecap:round;stroke-linejoin:round;stroke-miterlimit:4;stroke-dasharray:none;stroke-opacity:1"/></g><path d="M-168.552 1359.452h2.829v5.613h-2.829z" style="fill:#da5646;fill-opacity:1;stroke:#3f120d;stroke-width:1.37997;stroke-linecap:round;stroke-linejoin:round;stroke-miterlimit:4;stroke-dasharray:none;stroke-opacity:1" transform="rotate(-89.97)skewX(.004)"/></g><path d="M1070.176-857.03h6.705v6.705h-6.705z" style="fill:#f1af01;fill-opacity:1;stroke:#352600;stroke-width:1.42029;stroke-linecap:square;stroke-linejoin:round;stroke-dasharray:none;stroke-opacity:1;stop-color:#000" transform="rotate(45)"/><path d="M1362.37 157.523c-1.577.163-1.199-1.855-1.23-2.057a.8.8 0 0 0 .258.245c.131-.396.063-.773.095-1.16.204.122.355.265.35.469.22-.318.3-.685.193-1.12.122.123.27.175.293.315.18-.25.173-.62.293-.83.031.39.501.63.533 1.038l.193-.465c.388.47.414.71.474 1.132.164-.017.203-.222.246-.421.36.476.18 1.034.04 1.586.108-.005.173-.159.252-.264-.01 1.536-1.047 1.55-1.597 1.475.353-.307.819-.381.9-1.12l-.358.221c.068-.174.244-.55.148-.725-.109.214-.236.454-.42.528.032-.214.143-.453-.114-.634-.05.307-.073.435-.273.617-.097-.177-.215-.344-.328-.514-.111.333-.032.326-.01.652-.198-.226-.294-.174-.341-.541l-.037.611c-.095-.125-.299-.178-.299-.178s.13.814.56 1.063" style="fill:#1d1f1d;fill-opacity:1;fill-rule:evenodd;stroke:none;stroke-width:.329877;stroke-linecap:round;stroke-linejoin:round;stroke-dasharray:none;stroke-opacity:1"/></g></g></svg>