<svg xmlns="http://www.w3.org/2000/svg" xmlns:xlink="http://www.w3.org/1999/xlink" width="111.016" height="111.016" viewBox="0 0 29.373 29.373"><defs><filter id="b" width="1.058" height="1.073" x="-.029" y="-.037" style="color-interpolation-filters:sRGB"><feGaussianBlur stdDeviation=".109"/></filter><filter id="c" width="1.083" height="1.067" x="-.042" y="-.034" style="color-interpolation-filters:sRGB"><feGaussianBlur stdDeviation=".109"/></filter><filter id="d" width="1.192" height="1.206" x="-.093" y="-.105" style="color-interpolation-filters:sRGB"><feGaussianBlur stdDeviation=".049"/></filter><filter id="e" width="1.212" height="1.115" x="-.106" y="-.057" style="color-interpolation-filters:sRGB"><feGaussianBlur stdDeviation=".054"/></filter><linearGradient xlink:href="#a" id="f" x1="68.387" x2="71.963" y1="32.752" y2="38.242" gradientTransform="translate(6.094 -79.188)scale(1.56024)" gradientUnits="userSpaceOnUse"/><linearGradient id="a"><stop offset="0" style="stop-color:#ff8f1b;stop-opacity:1"/><stop offset="1" style="stop-color:#ff5600;stop-opacity:1"/></linearGradient></defs><g style="stroke-width:1.18386" transform="matrix(-.8447 0 0 -.8447 16724.678 -1672.533)"><g style="stroke-width:1.18386" transform="translate(-211.125 -168.24)"><circle cx="20005.682" cy="-1689.649" r="16.607" style="fill:none;fill-opacity:1;fill-rule:evenodd;stroke:#262626;stroke-width:1.56049;stroke-dasharray:none;stroke-opacity:1" transform="rotate(-.4)"/><circle cx="20005.617" cy="-1689.784" r="13.321" style="fill:#595959;fill-opacity:1;fill-rule:evenodd;stroke:#262626;stroke-width:1.61882;stroke-dasharray:none;stroke-opacity:1" transform="rotate(-.4)"/><circle cx="19993.27" cy="-1829.35" r="9.078" style="fill:#333;fill-opacity:1;stroke:#404040;stroke-width:1.16821;stroke-linecap:square;stroke-opacity:1;stop-color:#000"/><path d="M19976.828-1829.543h2.818v.406h-2.818zM20006.852-1829.543h2.818v.406h-2.818z" style="fill:#595959;fill-opacity:1;stroke:#262626;stroke-width:1.34349;stroke-linecap:square;stroke-dasharray:none;stroke-opacity:1;stop-color:#000"/><path d="M1812.919 19993.045h2.818v.406h-2.818zM1842.943 19993.045h2.818v.406h-2.818z" style="fill:#595959;fill-opacity:1;stroke:#262626;stroke-width:1.34349;stroke-linecap:square;stroke-dasharray:none;stroke-opacity:1;stop-color:#000" transform="rotate(-90)"/><path d="M-12860.243 15430.696h2.818v.406h-2.818zM-12830.22 15430.696h2.818v.406h-2.818z" style="fill:#595959;fill-opacity:1;stroke:#262626;stroke-width:1.34349;stroke-linecap:square;stroke-dasharray:none;stroke-opacity:1;stop-color:#000" transform="rotate(-135)"/><path d="M-15447.32-12844.025h2.818v.406h-2.818zM-15417.297-12844.025h2.818v.406h-2.818z" style="fill:#595959;fill-opacity:1;stroke:#262626;stroke-width:1.34349;stroke-linecap:square;stroke-dasharray:none;stroke-opacity:1;stop-color:#000" transform="rotate(135)"/><path d="M8395.948-18229.533h2.818v.406h-2.818zM8425.972-18229.533h2.818v.406h-2.818z" style="fill:#595959;fill-opacity:1;stroke:#262626;stroke-width:1.34349;stroke-linecap:square;stroke-dasharray:none;stroke-opacity:1;stop-color:#000" transform="rotate(60)"/><path d="M16383.569-11581.082h2.818v.406h-2.818zM16413.594-11581.082h2.818v.406h-2.818z" style="fill:#595959;fill-opacity:1;stroke:#262626;stroke-width:1.34349;stroke-linecap:square;stroke-dasharray:none;stroke-opacity:1;stop-color:#000" transform="rotate(30)"/><path d="M18822.105-6941.843h2.818v.406h-2.818zM18852.129-6941.843h2.818v.406h-2.818z" style="fill:#595959;fill-opacity:1;stroke:#262626;stroke-width:1.34349;stroke-linecap:square;stroke-dasharray:none;stroke-opacity:1;stop-color:#000" transform="rotate(15)"/><path d="M19769.041 3407.423h2.818v.406h-2.818zM19799.064 3407.423h2.818v.406h-2.818z" style="fill:#595959;fill-opacity:1;stroke:#262626;stroke-width:1.34349;stroke-linecap:square;stroke-dasharray:none;stroke-opacity:1;stop-color:#000" transform="rotate(-15)"/><path d="M18212.908 8412.166h2.818v.406h-2.818zM18242.932 8412.166h2.818v.406h-2.818z" style="fill:#595959;fill-opacity:1;stroke:#262626;stroke-width:1.34349;stroke-linecap:square;stroke-dasharray:none;stroke-opacity:1;stop-color:#000" transform="rotate(-30)"/><path d="M11564.457 16399.787h2.818v.406h-2.818zM11594.48 16399.787h2.818v.406h-2.818z" style="fill:#595959;fill-opacity:1;stroke:#262626;stroke-width:1.34349;stroke-linecap:square;stroke-dasharray:none;stroke-opacity:1;stop-color:#000" transform="rotate(-60)"/><path d="M6925.218 18838.322h2.818v.406h-2.818zM6955.242 18838.322h2.818v.406h-2.818z" style="fill:#595959;fill-opacity:1;stroke:#262626;stroke-width:1.34349;stroke-linecap:square;stroke-dasharray:none;stroke-opacity:1;stop-color:#000" transform="rotate(-75)"/><path d="M-3424.048 19785.258h2.818v.406h-2.818zM-3394.024 19785.258h2.818v.406h-2.818z" style="fill:#595959;fill-opacity:1;stroke:#262626;stroke-width:1.34349;stroke-linecap:square;stroke-dasharray:none;stroke-opacity:1;stop-color:#000" transform="rotate(-105)"/></g><g style="stroke-width:1.18386"><path d="M-19158.167-20805.05c.328.01.682-.517 1.013-.585.07-.02.127.06.2.05.42-.03 1.493-.944 1.898-1.096.104-.04.222.01.326-.02.304-.08.613-.354.887-.512.843-.487 1.533-.954 1.387-1.982-.19-1.312-.04.148.106-.4.01-.05-.354-.614-.365-.633-.1-.09-.819-.133-.925-.14-.418-.03-.273.355-.905.185-.109-.03-.179-.13-.274-.18-.127-.26-.221.05-.326.02-.194-.05-.234-.346-.419-.433-.05-.02-.08.08-.126.07-.109-.03-.168-.151-.273-.18-.109-.03-.236.08-.326.02-.04-.02-.529-.836-.638-.813-.476.1-1.577.911-1.899 1.096-.337.195-.635.482-1.013.585-1.372.393.04-.362-.778.112l-.633.366c-.04.02-.172.06-.127.07.11.03.236-.08.326-.02.207.137.308.394.492.559.05.05.136.04.2.06.116.101.244.19.346.305.243.282.09.453.439.76.1.09.275.05.398.107.162.08.551.854.585 1.013.101.492-1.033 1.34-1.007 1.763.03.492.565.152.799.214.04.01.03.152.07.127.215-.124.372-.331.559-.492z" style="fill:#bfbfbf;fill-opacity:1;stroke-width:11.8386;stroke-linecap:round;stroke-linejoin:round;filter:url(#b);stop-color:#000" transform="matrix(0 1 1 0 40593.389 17157.458)"/><path d="M-19153.263-20811.111c-.08-.309-.149-.619-.223-.93-.123-.599-.236-1.199-.379-1.795-.103-.429-.25-.87-.313-1.306-.03-.109-.01-.227-.03-.339-.01-.08-.04-.168-.06-.25-.05-.307-.134-.602-.188-.911-.02-.09-.03-.187-.04-.283-.07-.38-.18-.755-.27-1.132-.02-.101-.05-.201-.07-.302-.01-.02-.02-.03-.02-.05.01-.02.202-.05.229-.05.216-.06.435-.105.653-.157.102-.02.206-.04.302-.07.07-.03.311-.179.418-.148.06 0 .03.07.08.114.04.03.1.03.144.04.136.08.192.193.31.298.12.108.142.07.293.116.147.05.263.191.406.249.121.05.25.08.375.123.07.03.138.06.205.08h.09c.06.02.1.07.158.09.06.03.162.06.231.08.03 0 .04-.02.08-.02.09 0 .217.08.313.08.08 0 .173-.02.263 0 .09 0 .503.07.581.1.03 0 .02.115.01.156-.01.243-.04.488-.06.733-.03.313.06.593.133.897.03.128.05.254.09.378.129.344.334.658.454 1.007.06.162.08.336.121.502.07.276.132.553.199.829.211.88 0 .07.156.521 0 .03.01.06.02.102l.01.03c-.139.03-.647-.06-.808-.05-.09 0-.168.04-.249.06-.102.02-.21.03-.304.07-.129.06-.24.162-.369.225-.176.08-.357.136-.536.205l-.7.3c-.349.144-.653.248-1.017.298-.179.02-.306-.113-.469-.07-.07.02-.355.05-.368.121-.03.1.157.06.174.06z" style="fill:#bfbfbf;fill-opacity:1;stroke-width:11.8386;stroke-linecap:round;stroke-linejoin:round;filter:url(#c);stop-color:#000" transform="matrix(0 1 1 0 40593.389 17157.458)"/></g><g style="stroke-width:1.18386;filter:url(#d)" transform="matrix(.67948 0 0 .67948 6366.823 -643.381)"><path d="m19742.606-1992.421 3.58-2.485-1.388-5.335-5.7-1.754-3.07 3.07.366 3.069 3.288.511.22 2.193z" style="fill:#999;fill-opacity:1;stroke:#595959;stroke-width:1.56506;stroke-linecap:square;stroke-dasharray:none;stroke-opacity:1;stop-color:#000"/><path d="M19739.559-1996.364c-.06-.348-.282-.65-.421-.974-.03-.082-.07-.227-.107-.31-.01-.032-.04-.06-.05-.094-.01-.04 0-.08 0-.12-.01-.108-.124-.221-.08-.332.02-.053.08-.092.105-.142.05-.09.04-.203.106-.286.176-.23.383-.332.606-.522.06-.05.103-.113.159-.167.07-.065.143-.124.211-.19.05-.045.08-.102.132-.143.265-.209.575-.358.791-.617.03-.04.258-.325.264-.357.04-.226-.04-.397.08-.618" style="fill:#999;fill-opacity:1;stroke:#595959;stroke-width:1.51657;stroke-linecap:square;stroke-dasharray:none;stroke-opacity:1;stop-color:#000"/><path d="M19742.904-1997.036c.02.293.03.586.05.879.04.573.206 1.04-.31 1.42-.302.223-.991.274-1.344.363-.243.06-.48.145-.723.206-.08.02-.184-.012-.259.026-.06.031-.115.081-.181.103-.03.011-.07.01-.103.026-.09.052-.06.13-.155.13" style="fill:#999;fill-opacity:1;stroke:#595959;stroke-width:1.56506;stroke-linecap:square;stroke-dasharray:none;stroke-opacity:1;stop-color:#000"/><path d="M19745.437-1996.467c-.476.135-.693.12-1.189-.04-.05-.015-.09-.05-.142-.076-.269-.154-.193-.205-.336-.465-.115-.21-.345-.49-.581-.569a3.1 3.1 0 0 0-.879-.142c-.248-.01-.501.018-.749 0-.151-.011-.302-.033-.452-.052-.12-.014-.231-.066-.349-.09-.163-.034-.153-.01-.297-.065-.04-.014-.07-.041-.103-.052-.101-.03-.219-.033-.324-.052-.04-.01-.09-.017-.129-.026-.07-.01-.138-.014-.206-.026a1 1 0 0 0-.104-.026c-.124-.021-.26-.013-.387-.013" style="fill:#999;fill-opacity:1;stroke:#595959;stroke-width:1.56506;stroke-linecap:square;stroke-dasharray:none;stroke-opacity:1;stop-color:#000"/></g><g style="mix-blend-mode:normal;stroke-width:.860488;filter:url(#e)" transform="matrix(.2336 .6074 -.59644 .22939 19741.305 -2058.003)"><path d="M112.794-28.087h5.58v8.566l-.273.271h-5.036l-.27-.271z" style="fill:url(#f);fill-opacity:1;stroke:none;stroke-width:.881183;stroke-linejoin:round;stroke-dasharray:none;stroke-opacity:1"/><path d="m112.794-28.087.72-1.606h4.14l.72 1.606z" style="fill:#9d9fa1;fill-opacity:1;stroke:none;stroke-width:.881183;stroke-linejoin:round;stroke-miterlimit:4;stroke-dasharray:none;stroke-opacity:1"/><path d="m113.065-19.25.43.829h4.175l.431-.829z" style="fill:#9d9fa1;fill-opacity:1;fill-rule:nonzero;stroke:none;stroke-width:.881183;stroke-linejoin:round;stroke-miterlimit:4;stroke-dasharray:none;stroke-opacity:1"/><g style="font-size:3.16802px;fill:#f3f3f3;stroke-width:.683764;stroke-linejoin:round"><path d="M113.823-25.713q.24 0 .458-.092.207-.086.385-.263.173-.171.261-.385.09-.213.09-.462 0 .242.085.453.085.21.266.394.167.17.385.263.217.092.458.092-.241 0-.458.09-.218.094-.385.264-.18.184-.266.394-.085.21-.085.454 0-.25-.09-.463-.088-.213-.261-.385-.178-.177-.385-.263-.218-.091-.458-.091" aria-label="Рюд" style="stroke-width:.683764" transform="matrix(1.55195 0 0 1.56858 -62.916 16.665)"/></g><path d="m112.428-19.698.656.653v.669h4.902v-.669l.656-.653v-8.358l-.733-1.04.216-.803h-5.179l.216.804-.734 1.039z" style="fill:none;fill-opacity:1;stroke:#262626;stroke-width:1.0624;stroke-linejoin:round;stroke-miterlimit:4;stroke-dasharray:none;stroke-opacity:1"/></g><circle cx="19782.178" cy="-1997.63" r="9.078" style="opacity:.5;fill:#333;fill-opacity:1;stroke:#404040;stroke-width:1.16821;stroke-linecap:square;stroke-opacity:1;stop-color:#000"/></g></svg>