<svg xmlns="http://www.w3.org/2000/svg" width="201.215" height="155.872" viewBox="0 0 53.238 41.241"><g style="fill:#174561;fill-opacity:1"><path d="M-35.173 67.633h26.848c1.59 10.227 1.59 20.735 0 30.682h-26.848z" style="fill:#c7b5a0;fill-opacity:1;stroke:#716b60;stroke-width:1.962;stroke-linecap:round;stroke-linejoin:round;stroke-miterlimit:5;stroke-opacity:.980392;paint-order:fill markers stroke" transform="rotate(90 32.687 76.779)"/></g><path d="M476.84 130.876h37.318s4.484 5.05 0 9.535c-4.485 4.485-28.519 1-28.519 1v30.14s24.061-3.408 28.518 1.077c4.458 4.486 0 9.423 0 9.423l-28.839.113h-8.478z" style="display:inline;fill:#cfc1af;fill-opacity:1;stroke:#716b60;stroke-width:1.95049;stroke-linecap:round;stroke-linejoin:round;stroke-miterlimit:5;stroke-opacity:.980392;paint-order:fill markers stroke" transform="rotate(90 329.502 -146.363)"/><g transform="rotate(90 32.687 76.779)"><path d="M-23.251 79.382c-.244.26-.703 4.961-1.06 4.973-.355.011-1.117-4.651-1.376-4.895-.26-.243-4.962-.703-4.973-1.059-.012-.355 4.65-1.117 4.894-1.377s.703-4.961 1.059-4.973 1.117 4.651 1.377 4.895 4.961.703 4.973 1.059c.011.355-4.651 1.117-4.894 1.377" style="fill:#736d61;fill-opacity:1;stroke:none;stroke-width:1.462;stroke-linecap:square;stroke-linejoin:miter;stroke-miterlimit:5;stroke-dasharray:none;stroke-opacity:1;paint-order:fill markers stroke" transform="scale(1.30137)rotate(-42.858 -38.857 60.19)"/><circle cx="-20.893" cy="82.84" r="2.299" style="fill:#c7b5a0;fill-opacity:1;stroke:none;stroke-width:1.99602;stroke-linecap:square;stroke-linejoin:miter;stroke-miterlimit:5;stroke-dasharray:none;stroke-opacity:1;paint-order:fill markers stroke"/></g></svg>