<svg xmlns="http://www.w3.org/2000/svg" xmlns:xlink="http://www.w3.org/1999/xlink" xml:space="preserve" width="281.18" height="559.305" viewBox="0 0 74.396 147.983"><defs><pattern xlink:href="#a" id="b" x="0" y="0" patternTransform="matrix(.26458 0 0 .26458 112.44 -134.169)" preserveAspectRatio="xMidYMid"/><pattern id="a" width="50.131" height="50.123" patternTransform="translate(424.967 -507.09)" patternUnits="userSpaceOnUse" preserveAspectRatio="xMidYMid" style="fill:#000"><path d="M112.444-120.907v-13.26h13.26v13.26z" style="fill:#fff;fill-opacity:1;stroke:none;stroke-width:41.1118;stroke-linecap:square;stroke-linejoin:miter;stroke-dasharray:none;stroke-opacity:1;stop-color:#000" transform="matrix(3.7795 0 0 3.7795 -424.967 507.092)"/><path fill="#d9d9d9" d="M112.44-127.53c2.915-2.94 3.158-5.299 3.158-5.299s-1.291.136-3.157 1.388zm6.577 4.537a15 15 0 0 1 1.753 2.084h-3.94c-2.912-2.936-3.155-5.291-3.155-5.291s2.383.25 5.342 3.207m-2.194-11.176h3.941c1.322 1.923 1.46 3.266 1.46 3.266s-2.44-.306-5.4-3.266m8.877 2.726v3.903c-2.96 2.96-5.4 3.263-5.4 3.263s.25-2.386 3.21-5.346a14.8 14.8 0 0 1 2.19-1.82" style="fill:#dadada;fill-opacity:1;stroke-width:3.77951" transform="matrix(3.7795 0 0 3.7795 -424.967 507.092)"/></pattern></defs><rect width="74.396" height="147.984" rx="1.323" ry="1.323" style="fill:url(#b);stroke:none;stroke-width:.264585"/><rect width="74.396" height="147.984" y="-147.983" rx="1.323" ry="1.323" style="fill:none;fill-rule:evenodd;stroke:none;stroke-width:2.1717;stroke-linejoin:round" transform="scale(1 -1)"/><path d="M37.498 0h68.131v1.852H37.498z" style="fill:#d8d8d8;fill-opacity:1;fill-rule:evenodd;stroke:none;stroke-width:2.17171;stroke-linejoin:round" transform="matrix(0 1 1 0 0 0)"/><path d="M1.087 1.086V42.58l5.76 5.12V6.847h60.704v134.29H6.846v-39.41l-5.76 3.902v41.268H73.31V1.087Z" style="fill:#d8d8d8;fill-opacity:1;stroke:#696969;stroke-width:2.17175;stroke-linecap:round;stroke-linejoin:round;stroke-dasharray:none;stroke-opacity:1"/></svg>