<svg xmlns="http://www.w3.org/2000/svg" xml:space="preserve" width="281.179" height="559.305" viewBox="0 0 74.396 147.983"><path d="m6.845 141.136.002-134.29H67.55v134.29h-5.22l-3.584-5.76H15.64l-3.574 5.76z" style="fill:#e0e0e0;fill-opacity:1;stroke:none;stroke-width:1.71147;stroke-linecap:square;stroke-linejoin:bevel;stroke-miterlimit:4;stroke-dasharray:none"/><path d="M3.35 14.937h67.694v10.737H3.35zm0 21.474h67.694v10.738H3.35zm0 21.475h67.694v10.737H3.35zm0 21.474h67.694v10.737H3.35zm0 21.474h67.694v10.737H3.35zm0 21.474h67.694v10.738H3.35z" style="fill:#fff;stroke-width:2.96972;paint-order:markers stroke fill;stop-color:#000"/><path d="M1.086 1.086v145.81h13.972l3.575-5.76h37.13l3.575 5.762H73.31V1.086Zm5.76 5.76H67.55v134.29h-5.22l-3.584-5.761H15.64l-3.574 5.76h-5.22z" style="fill:#d9d9d9;fill-opacity:1;stroke:#696969;stroke-width:2.17175;stroke-linecap:round;stroke-linejoin:round;stroke-dasharray:none;stroke-opacity:1"/></svg>