<svg height="124.218" viewBox="0 0 35.641 32.866" width="134.705" xmlns="http://www.w3.org/2000/svg"><g fill-rule="evenodd"><rect fill="#b2b2b2" height="27.750999" rx="1.048" ry="1.269" stroke="#343434" stroke-linecap="round" stroke-linejoin="round" stroke-width="1.84985" width="32.991001" x="1.324968" y="4.189887"/><rect fill="#333" height="4.729" rx="1.048" ry="1.269" width="12.766" x="12.011003" y="25.70307"/><g stroke-linecap="round" stroke-linejoin="round"><rect fill="#404040" height="7.375" rx="1.048" ry="1.269" stroke="#262626" stroke-width="1.037" width="2.447" x="20.078997" y="24.247015"/><rect fill="#404040" height="7.375" rx="1.048" ry="1.269" stroke="#262626" stroke-width="1.037" width="2.447" x="14.021989" y="24.247015"/><rect fill="#bfbfbf" height="25.193001" rx="1.048" ry="1.269" stroke="#343434" stroke-width="2.49635" width="33.144001" x="1.247941" y="2.485053"/><circle cx="20.194479" cy="11.547057" fill="#0094b2" fill-opacity=".3" r="13.672" stroke="#005666" stroke-opacity=".8" stroke-width="2.526" transform="matrix(.98423576 .17686143 -.17686143 .98423576 0 0)"/></g><path d="m7.781394 10.428893h24.837v2.117h-24.837z" fill="#005b6b" fill-opacity=".858824" transform="matrix(.98423576 .17686143 -.17686143 .98423576 0 0)"/><path d="m-.861133-21.158476h24.837v2.117h-24.837z" fill="#005b6b" fill-opacity=".858824" transform="matrix(-.17686143 .98423576 -.98423576 -.17686143 0 0)"/><circle cx="20.194479" cy="11.547057" fill="#b2b2b2" r="4.972465" stroke="#343434" stroke-linecap="round" stroke-linejoin="round" stroke-width="2.20144" transform="matrix(.98423576 .17686143 -.17686143 .98423576 0 0)"/><circle cx="5.04799" cy="29.979925" fill="#800000" r=".899"/><circle cx="7.484026" cy="29.979925" fill="#000180" r=".899"/></g></svg>