<?xml version="1.0" encoding="UTF-8" standalone="no"?>
<svg
   version="1.1"
   width="84"
   height="84"
   viewBox="0 0 83.999996 83.999996"
   id="svg40"
   sodipodi:docname="zipper_mouth_face.svg"
   inkscape:version="1.1.2 (0a00cf5339, 2022-02-04)"
   xmlns:inkscape="http://www.inkscape.org/namespaces/inkscape"
   xmlns:sodipodi="http://sodipodi.sourceforge.net/DTD/sodipodi-0.dtd"
   xmlns="http://www.w3.org/2000/svg"
   xmlns:svg="http://www.w3.org/2000/svg">
  <defs
     id="defs44" />
  <sodipodi:namedview
     id="namedview42"
     pagecolor="#505050"
     bordercolor="#ffffff"
     borderopacity="1"
     inkscape:pageshadow="0"
     inkscape:pageopacity="0"
     inkscape:pagecheckerboard="1"
     showgrid="false"
     inkscape:zoom="2.3858495"
     inkscape:cx="-14.669827"
     inkscape:cy="-10.05931"
     inkscape:window-width="2560"
     inkscape:window-height="1372"
     inkscape:window-x="0"
     inkscape:window-y="0"
     inkscape:window-maximized="1"
     inkscape:current-layer="svg40" />
  <g
     id="g856"
     transform="scale(0.65080248)">
    <path
       d="M 2.5,64.53571 C 2.5,30.27435 30.27435,2.5 64.53571,2.5 c 34.26139,0 62.03571,27.77435 62.03571,62.03571 0,34.26139 -27.77432,62.03571 -62.03571,62.03571 C 30.27435,126.57142 2.5,98.7971 2.5,64.53571 Z"
       fill="#f3be3a"
       stroke="#b76b00"
       stroke-width="5"
       stroke-linecap="butt"
       id="path2"
       style="mix-blend-mode:normal;fill:#ffc703;fill-opacity:1;fill-rule:nonzero;stroke:#584d00;stroke-linejoin:miter;stroke-miterlimit:10;stroke-dasharray:none;stroke-dashoffset:0;stroke-opacity:1" />
    <path
       d="M 93.86894,90.53566 H 35.20227"
       fill="none"
       stroke="#000000"
       stroke-width="10"
       stroke-linecap="round"
       id="path8"
       style="mix-blend-mode:normal;fill-rule:nonzero;stroke:#584d00;stroke-linejoin:miter;stroke-miterlimit:10;stroke-dasharray:none;stroke-dashoffset:0;stroke-opacity:1" />
    <g
       fill="#91a1ab"
       stroke="none"
       stroke-width="0"
       stroke-linecap="butt"
       id="g28"
       transform="translate(-175.46429,-119.46429)"
       style="mix-blend-mode:normal;fill-rule:nonzero;stroke-linejoin:miter;stroke-miterlimit:10;stroke-dasharray:none;stroke-dashoffset:0">
      <path
         d="m 207.08234,211.47993 v -8.4 h 6.8 v 8.4 z"
         id="path10" />
      <path
         d="m 213.68233,216.47993 v -8.4 h 6.8 v 8.4 z"
         id="path12" />
      <path
         d="m 220.28234,211.47992 v -8.4 h 6.8 v 8.4 z"
         id="path14" />
      <path
         d="m 226.88234,216.47992 v -8.4 h 6.8 v 8.4 z"
         id="path16" />
      <path
         d="m 233.48234,211.87992 v -8.4 h 6.8 v 8.4 z"
         id="path18" />
      <path
         d="m 240.08234,216.87992 v -8.4 h 6.8 v 8.4 z"
         id="path20" />
      <path
         d="m 246.68233,211.87992 v -8.4 h 6.8 v 8.4 z"
         id="path22" />
      <path
         d="m 253.28233,216.87992 v -8.4 h 6.8 v 8.4 z"
         id="path24" />
      <path
         d="m 259.88234,211.87991 v -8.4 h 6.8 v 8.4 z"
         id="path26" />
    </g>
    <path
       d="m 86.54505,93.81125 c 0.002,-1.83892 0.007,-6.18383 0.008,-7.09062 6.8e-4,-0.5807 0.79452,-1.22895 1.54892,-1.22806 1.48206,0.002 6.79646,0.008 9.63751,0.0114 1.09436,0.001 1.82078,0.79682 1.81999,1.4671 -0.001,0.87481 -0.006,4.80716 -0.008,6.54214 -10e-4,1.17351 -0.86494,2.07536 -1.66746,2.0744 -1.55747,-0.002 -7.06973,-0.008 -9.7942,-0.0116 -0.93948,-10e-4 -1.54659,-0.74487 -1.5454,-1.76479 z"
       fill="#91a1ab"
       stroke="none"
       stroke-width="0"
       stroke-linecap="butt"
       id="path30"
       style="mix-blend-mode:normal;fill-rule:nonzero;stroke-linejoin:miter;stroke-miterlimit:10;stroke-dasharray:none;stroke-dashoffset:0" />
    <path
       d="m 95.7033,95.82966 c -0.40709,-0.26331 -0.82255,-0.53203 -1.06332,-0.68776 -0.38836,-0.25119 -0.94713,-1.7153 -0.69969,-2.09785 0.24222,-0.37449 1.74641,-0.44713 2.12067,-0.20505 0.2559,0.16552 0.71862,0.46481 1.15998,0.75029 0.57388,0.37119 0.60879,1.49647 0.36136,1.87901 -0.24222,0.37449 -1.29026,0.74217 -1.87901,0.36136 z"
       fill="#91a1ab"
       stroke="none"
       stroke-width="0"
       stroke-linecap="butt"
       id="path32"
       style="mix-blend-mode:normal;fill-rule:nonzero;stroke-linejoin:miter;stroke-miterlimit:10;stroke-dasharray:none;stroke-dashoffset:0" />
    <path
       d="m 108.78083,107.33451 c -3.46992,-2.42882 -12.90713,-9.03449 -17.05975,-11.94114 -1.23839,-0.86682 -0.48826,-3.75238 0.27644,-4.93466 0.77206,-1.19364 3.13191,-3.11848 4.42882,-2.34535 4.35162,2.59407 14.24581,8.4922 17.88481,10.66146 2.59418,1.54643 5.17529,4.91244 3.00569,8.26674 -2.31157,3.57379 -6.06319,2.02383 -8.536,0.29295 z m 6.63303,-1.57674 c 0.85172,-1.3168 0.4747,-3.07475 -0.84211,-3.92647 -1.3168,-0.85172 -4.24341,-1.32095 -5.09515,-0.004 -0.85172,1.3168 0.69397,3.92099 2.01078,4.77271 1.3168,0.85172 3.07474,0.47471 3.92647,-0.84211 z m -8.50566,-4.86908 c 0.23016,-0.36219 0.19174,-0.31766 0.60255,-0.96413 0.29652,-0.46663 0.12759,-1.08546 -0.45008,-1.45701 -1.40096,-0.90113 -8.94649,-5.77304 -9.30296,-6.00361 -0.94057,-0.60837 -1.90793,-0.78483 -2.51631,0.15575 -0.60837,0.94057 -0.0508,1.75051 0.88982,2.35889 0.65977,0.42675 8.04412,5.21435 9.3528,6.06758 0.55701,0.36316 1.21224,0.1761 1.4242,-0.15745 z"
       fill="#91a1ab"
       stroke="none"
       stroke-width="0"
       stroke-linecap="butt"
       id="path34"
       style="mix-blend-mode:normal;fill-rule:nonzero;stroke-linejoin:miter;stroke-miterlimit:10;stroke-dasharray:none;stroke-dashoffset:0" />
    <g
       id="g1044"
       transform="translate(-0.24942036,1.8151156)">
      <ellipse
         style="fill:#584d00;fill-opacity:1;fill-rule:nonzero;stroke:none;stroke-width:8.69677;stroke-linecap:round;stroke-linejoin:bevel;stroke-miterlimit:4;stroke-dasharray:none;stroke-dashoffset:0;stroke-opacity:1;paint-order:markers stroke fill"
         id="path5010-19"
         cx="42.374275"
         cy="55.220554"
         rx="8.8091927"
         ry="11.745589" />
      <ellipse
         cy="87.695786"
         cx="-55.220554"
         id="circle5014-4"
         style="fill:#584d00;fill-opacity:1;fill-rule:nonzero;stroke:none;stroke-width:8.69677;stroke-linecap:round;stroke-linejoin:bevel;stroke-miterlimit:4;stroke-dasharray:none;stroke-dashoffset:0;stroke-opacity:1;paint-order:markers stroke fill"
         transform="rotate(-90)"
         rx="11.745589"
         ry="8.8091927" />
    </g>
  </g>
</svg>
