<svg xmlns="http://www.w3.org/2000/svg" width="10.341" height="35.6" fill="none"><path fill="#e1a94f" fill-rule="evenodd" d="M1.587 32.517h7.167l.583-1-.312-22.334L7.79 5.85V1H2.55v4.85L1.316 9.183l-.312 22.334z" clip-rule="evenodd"/><path fill="#e1a94f" d="M1.004 34.183v-.833h8.333v.833l-.417.417h-7.5z"/><path fill="#da9525" d="M1.587 32.517v.833h7.166v-.833z"/><path stroke="#573b0f" stroke-miterlimit="3.994" d="M1.587 32.517v.833h7.166v-.833z"/><path stroke="#573b0f" stroke-miterlimit="3.994" stroke-width="2" d="M8.753 32.517v.833h.584v.833l-.417.417h-7.5l-.416-.417v-.833h.583v-.834l-.583-1 .312-22.333L2.55 5.85V1H7.79v4.85l1.234 3.333.312 22.334zM1.316 9.183h7.709M2.55 5.85H7.79"/></svg>