<svg width="22" height="61" viewBox="0 0 22 61" fill="none" xmlns="http://www.w3.org/2000/svg">
<rect x="2.31543" y="53.4995" width="45.8251" height="16.8676" transform="rotate(-90 2.31543 53.4995)" fill="#8F8300"/>
<rect x="2.31543" y="7.67383" width="6.47529" height="16.8676" transform="rotate(-90 2.31543 7.67383)" fill="#857A00"/>
<path d="M2.31543 53.4995H19.1831L19.1831 1.19915H2.31543L2.31543 53.4995Z" stroke="#665E00" stroke-width="2" stroke-miterlimit="3.99393"/>
<path d="M1.37402 59.2408C1.37402 59.4503 1.54382 59.6201 1.75328 59.6201H19.746C19.9553 59.6201 20.1251 59.4504 20.1251 59.241V58.474C20.1251 58.2647 19.9553 58.0949 19.746 58.0949H19.3122V46.7388H2.18706V58.0949H1.75328C1.54382 58.0949 1.37402 58.2647 1.37402 58.4742V59.2408Z" fill="#999900"/>
<path d="M19.3122 58.0949H18.3122V59.0949H19.3122V58.0949ZM19.3122 46.7388H20.3122V45.7388H19.3122V46.7388ZM2.18706 46.7388V45.7388H1.18706V46.7388H2.18706ZM2.18706 58.0949V59.0949H3.18706V58.0949H2.18706ZM1.75328 58.6201C2.0961 58.6201 2.37402 58.898 2.37402 59.2408H0.374024C0.374024 60.0026 0.991537 60.6201 1.75328 60.6201V58.6201ZM19.746 58.6201H1.75328V60.6201H19.746V58.6201ZM19.1251 59.241C19.1251 58.8981 19.403 58.6201 19.746 58.6201V60.6201C20.5076 60.6201 21.1251 60.0026 21.1251 59.241H19.1251ZM19.1251 58.474V59.241H21.1251V58.474H19.1251ZM19.746 59.0949C19.403 59.0949 19.1251 58.8169 19.1251 58.474H21.1251C21.1251 57.7124 20.5076 57.0949 19.746 57.0949V59.0949ZM19.3122 59.0949H19.746V57.0949H19.3122V59.0949ZM18.3122 46.7388V58.0949H20.3122V46.7388H18.3122ZM2.18706 47.7388H19.3122V45.7388H2.18706V47.7388ZM3.18706 58.0949V46.7388H1.18706V58.0949H3.18706ZM1.75328 59.0949H2.18706V57.0949H1.75328V59.0949ZM2.37402 58.4742C2.37402 58.817 2.0961 59.0949 1.75328 59.0949V57.0949C0.991537 57.0949 0.374024 57.7124 0.374024 58.4742H2.37402ZM2.37402 59.2408V58.4742H0.374024V59.2408H2.37402Z" fill="#666600"/>
</svg>
