<svg xmlns="http://www.w3.org/2000/svg" width="13" height="46" fill="none"><path fill="#B57921" d="m1.033 41.41.18-29.81L2.38 8.381V1.965h7.271v6.417l1.17 3.217L11 41.41l-.21.901H1.244zM1.012 43.474v.762l.381.381h9.25l.381-.381v-.762z"/><path fill="#97651C" stroke="#563A10" stroke-miterlimit="3.994" d="M1.689 43.475v-1.164h8.658v1.164z"/><path stroke="#563A10" stroke-miterlimit="3.994" stroke-width="2" d="M1.012 43.474v.762l.381.381h9.25l.381-.381v-.762h-.677V42.31h.445l.21-.902-.18-29.81-1.169-3.216V1.964h-7.27v6.418l-1.17 3.217-.179 29.81.21.9h.445v1.165zM1.214 11.599h9.609m-8.44-3.217h7.271"/></svg>