<?xml version="1.0" encoding="UTF-8" standalone="no"?>
<svg
   width="13"
   height="56"
   viewBox="0 0 13 56"
   fill="none"
   version="1.1"
   id="svg4"
   xmlns="http://www.w3.org/2000/svg"
   xmlns:svg="http://www.w3.org/2000/svg">
  <defs
     id="defs4" />
  <path
     d="M1.54395 51.9842L1.86069 13.3737L2.93155 9.98189L2.93155 1.82308H10.1237L10.1237 9.98189L11.1945 13.3737L11.5111 51.9842L11.08 52.8843H1.97512L1.54395 51.9842Z"
     fill="#B57921"
     id="path1" />
  <path
     d="M1.52344 53.5838V54.3004L1.97545 54.6172H11.0803L11.5323 54.3004V53.5838H1.52344Z"
     fill="#B57921"
     id="path2" />
  <rect
     x="2.19922"
     y="53.5845"
     width="0.700038"
     height="8.65881"
     transform="rotate(-90 2.19922 53.5845)"
     fill="#97651C"
     stroke="#563A10"
     stroke-width="0.999999"
     stroke-miterlimit="3.99393"
     id="rect2" />
  <path
     d="M1.86133 13.373H11.1952M2.93219 9.98126H10.1243"
     stroke="#563A10"
     stroke-width="2"
     stroke-miterlimit="3.99393"
     id="path3" />
  <path
     d="M1.52344 54.3004V53.5838H2.19844V52.8837H1.97545L1.54427 51.9836L1.86102 13.3731L2.93188 9.98131L2.93188 1.8225H10.124V9.98131L11.1949 13.3731L11.5115 51.9836L11.0803 52.8837H10.8573V53.5838H11.5323V54.3004L11.0803 54.6172H1.97545L1.52344 54.3004Z"
     stroke="#563A10"
     stroke-width="2"
     stroke-miterlimit="3.99393"
     id="path4" />
</svg>
