<svg xmlns="http://www.w3.org/2000/svg" width="20" height="82" fill="none"><path fill="#E1954F" d="M1.018 78.86v1.257l.778.5h15.462l.778-.5V78.86zM1.018 76.362l.717-56.383L3.6 15.35V1.765h11.854v13.586l1.865 4.628.717 56.383-.782 1.666H1.734z"/><path fill="#DA7C25" stroke="#57320F" stroke-miterlimit="3.994" d="M2.328 78.86v-.831h14.394v.832z"/><path stroke="#57320F" stroke-miterlimit="3.994" stroke-width="2" d="M17.319 19.979H1.734m13.72-4.628H3.6M1.018 78.86v1.257l.778.5h15.462l.778-.5V78.86h-1.312v-.832h.53l.782-1.667-.717-56.383-1.865-4.627V1.765H3.6V15.35l-1.865 4.627-.717 56.383.717 1.667h.595v.832z"/></svg>