<?xml version="1.0" encoding="UTF-8" standalone="no"?>
<!-- Created with Inkscape (http://www.inkscape.org/) -->

<svg
   width="185.00002"
   height="185.00002"
   viewBox="0 0 48.94792 48.947922"
   version="1.1"
   id="svg1"
   xml:space="preserve"
   xmlns:xlink="http://www.w3.org/1999/xlink"
   xmlns="http://www.w3.org/2000/svg"
   xmlns:svg="http://www.w3.org/2000/svg"><defs
     id="defs1"><style
       id="style1-7">
      .cls-1 {
        fill: #bababa;
      }

      .cls-1, .cls-2, .cls-3 {
        isolation: isolate;
        opacity: .997;
        stroke: #303030;
        stroke-linecap: round;
        stroke-miterlimit: 15.1181;
        stroke-width: 5px;
      }

      .cls-2 {
        fill: #5a70e0;
      }

      .cls-3 {
        fill: #3f3fe0;
      }

      .cls-4 {
        opacity: .9;
      }
    </style><style
       id="style1-7-3">
      .cls-1 {
        fill: #bababa;
      }

      .cls-1, .cls-2, .cls-3 {
        isolation: isolate;
        opacity: .997;
        stroke: #303030;
        stroke-linecap: round;
        stroke-miterlimit: 15.1181;
        stroke-width: 5px;
      }

      .cls-2 {
        fill: #5a70e0;
      }

      .cls-3 {
        fill: #3f3fe0;
      }

      .cls-4 {
        opacity: .9;
      }
    </style><linearGradient
       xlink:href="#linearGradient1789"
       id="linearGradient61709"
       gradientUnits="userSpaceOnUse"
       gradientTransform="matrix(0.40777523,0,0,0.40777523,-16.765056,-2.8862842)"
       x1="112.28025"
       y1="85.870453"
       x2="96.735085"
       y2="54.829021" /><linearGradient
       id="linearGradient1789"><stop
         style="stop-color:#008cff;stop-opacity:1;"
         offset="0.53793103"
         id="stop1785" /><stop
         style="stop-color:#a5d9ff;stop-opacity:1;"
         offset="1"
         id="stop1787" /></linearGradient></defs><g
     id="layer1"
     transform="translate(-80.904268,4.6083465)"><g
       id="g1"
       transform="matrix(0.26458333,0,0,0.26458333,-9.4742399,-7.4868277)"><g
         id="g2"
         transform="matrix(3.779528,0,0,3.779528,45.868259,-47.69953)"><g
           id="layer1-5"
           transform="translate(-46.023917,-125.52772)"><circle
             style="fill:#6e460b;fill-opacity:0;stroke:#31220c;stroke-width:0;stroke-dasharray:none;stroke-opacity:1;paint-order:fill markers stroke"
             id="path22979"
             cx="147.7787"
             cy="144.19855"
             r="4.4693141" /><rect
             style="fill:#d96300;fill-opacity:1;stroke:none;stroke-width:1.5658;stroke-linecap:butt;stroke-linejoin:miter;stroke-miterlimit:4;stroke-dasharray:none;stroke-opacity:1"
             id="rect61657"
             width="33.151886"
             height="33.151886"
             x="132.11342"
             y="148.87372" /><path
             id="path61659"
             style="fill:#2687d9;fill-opacity:1;stroke-width:0;stroke-linecap:round"
             d="m 125.24761,142.00791 v 46.9855 h 46.9855 v -46.9855 z m 7.92722,7.92722 h 31.13106 v 31.13106 h -31.13106 z" /><rect
             style="fill:none;fill-opacity:1;stroke:none;stroke-width:1.96165;stroke-linecap:butt;stroke-linejoin:bevel;stroke-miterlimit:4;stroke-dasharray:none;stroke-opacity:1"
             id="rect61661"
             width="33.151886"
             height="33.151886"
             x="132.11342"
             y="148.87372" /><circle
             style="fill:#808080;fill-opacity:1;stroke:#2e2e2e;stroke-width:0.980823;stroke-linecap:round;stroke-linejoin:round;stroke-opacity:1"
             id="circle61663"
             cx="129.32191"
             cy="146.0822"
             r="1.6222014" /><circle
             style="fill:#808080;fill-opacity:1;stroke:#2e2e2e;stroke-width:0.980823;stroke-linecap:round;stroke-linejoin:round;stroke-opacity:1"
             id="circle61665"
             cx="168.15865"
             cy="146.0822"
             r="1.6222014" /><circle
             style="fill:#808080;fill-opacity:1;stroke:#2e2e2e;stroke-width:0.980823;stroke-linecap:round;stroke-linejoin:round;stroke-opacity:1"
             id="circle61667"
             cx="129.32191"
             cy="184.91896"
             r="1.6222014" /><circle
             style="fill:#808080;fill-opacity:1;stroke:#2e2e2e;stroke-width:0.980823;stroke-linecap:round;stroke-linejoin:round;stroke-opacity:1"
             id="circle61669"
             cx="168.15865"
             cy="184.91896"
             r="1.6222014" /><rect
             style="fill:#002f55;fill-opacity:1;stroke:#1b5e98;stroke-width:1.96165;stroke-linecap:butt;stroke-linejoin:miter;stroke-miterlimit:4;stroke-dasharray:none;stroke-opacity:1"
             id="rect61671"
             width="31.131674"
             height="31.131672"
             x="133.17451"
             y="149.93483" /><rect
             style="fill:none;fill-opacity:1;stroke:#1b5e98;stroke-width:1.96165;stroke-linecap:round;stroke-linejoin:round;stroke-miterlimit:4;stroke-dasharray:none;stroke-opacity:1"
             id="rect61673"
             width="46.986267"
             height="46.986267"
             x="125.24727"
             y="142.00752" /><path
             style="fill:none;stroke:#1b5e98;stroke-width:1.96165;stroke-linecap:butt;stroke-linejoin:miter;stroke-miterlimit:4;stroke-dasharray:none;stroke-opacity:1"
             d="m 164.30619,149.93482 h 7.8466"
             id="path61675" /><path
             style="fill:none;stroke:#1b5e98;stroke-width:1.96165;stroke-linecap:butt;stroke-linejoin:miter;stroke-miterlimit:4;stroke-dasharray:none;stroke-opacity:1"
             d="m 164.30619,181.06649 h 7.8466"
             id="path61677" /><path
             style="fill:none;stroke:#1b5e98;stroke-width:1.96165;stroke-linecap:butt;stroke-linejoin:miter;stroke-miterlimit:4;stroke-dasharray:none;stroke-opacity:1"
             d="m 125.32792,181.06649 h 7.8466"
             id="path61679" /><path
             style="fill:none;stroke:#1b5e98;stroke-width:1.96165;stroke-linecap:butt;stroke-linejoin:miter;stroke-miterlimit:4;stroke-dasharray:none;stroke-opacity:1"
             d="m 125.32792,149.93482 h 7.8466"
             id="path61681" /><path
             style="fill:#212226;stroke:#121212;stroke-width:0.944815;stroke-linecap:round;stroke-linejoin:round;stroke-miterlimit:10"
             d="m 24.812435,12.336627 c 0.361879,0.411226 1.085533,1.233561 1.759853,2.039461 0.674319,0.805901 1.299281,1.595327 1.907812,2.406709 0.608532,0.811382 1.200603,1.644666 1.737859,2.50539 0.537256,0.860724 1.019684,1.74883 1.392471,2.505386 0.372787,0.756556 0.635929,1.381519 0.888105,2.127112 0.252176,0.745593 0.493391,1.611769 0.6414,2.329943 0.148009,0.718174 0.202829,1.288317 0.202819,1.907808 -10e-6,0.61949 -0.05483,1.28831 -0.235755,2.000987 -0.180924,0.712678 -0.487924,1.469213 -0.844268,2.105137 -0.356344,0.635924 -0.762023,1.151246 -1.249938,1.650123 -0.487915,0.498878 -1.058054,0.981305 -1.688498,1.37054 -0.630443,0.389235 -1.321195,0.685271 -2.033876,0.904565 -0.712682,0.219294 -1.447289,0.361829 -2.088706,0.433107 -0.641416,0.07128 -1.189629,0.07128 -1.683028,0.03291 -0.493399,-0.03837 -0.931969,-0.115116 -1.321208,-0.213785 -0.389238,-0.09867 -0.729131,-0.219276 -1.096445,-0.372773 -0.367314,-0.153497 -0.762028,-0.33989 -1.249957,-0.646885 -0.48793,-0.306996 -1.069036,-0.734603 -1.551488,-1.167692 -0.482452,-0.433088 -0.866202,-0.871659 -1.15129,-1.238967 -0.285089,-0.367308 -0.471481,-0.663342 -0.690788,-1.145784 -0.219307,-0.482443 -0.471485,-1.151262 -0.625006,-1.710461 -0.153521,-0.559199 -0.208342,-1.008734 -0.224797,-1.502149 -0.01646,-0.493415 0.0055,-1.030664 0.10415,-1.721445 0.09868,-0.690782 0.274105,-1.535031 0.559182,-2.423178 0.285078,-0.888146 0.679792,-1.820109 1.074518,-2.636979 0.394727,-0.816869 0.78944,-1.518582 1.28285,-2.302558 0.49341,-0.783975 1.08548,-1.650153 1.754324,-2.549255 0.668843,-0.899102 1.414413,-1.831065 2.044878,-2.604068 0.630464,-0.773004 1.145784,-1.387002 1.463753,-1.776238 0.317969,-0.389236 0.438576,-0.553701 0.498888,-0.635944 0.06031,-0.08224 0.06031,-0.08224 0.422186,0.328982 z"
             id="path61683"
             transform="translate(124.2664,141.0267)" /><path
             style="fill:#0f0f0f;fill-opacity:1;stroke:#121212;stroke-width:0.944815;stroke-linecap:round;stroke-linejoin:round;stroke-miterlimit:10;stroke-opacity:0"
             d="m 17.55395,33.31163 c 0.274167,0.0055 0.822391,0.01645 1.436404,10e-7 0.614014,-0.01645 1.293799,-0.06031 2.000999,-0.197372 0.7072,-0.137066 1.441806,-0.367316 2.110638,-0.608538 0.668833,-0.241222 1.271866,-0.493399 1.9078,-0.838783 0.635934,-0.345383 1.304755,-0.783955 1.91876,-1.260908 0.614005,-0.476953 1.173183,-0.992274 1.704958,-1.578871 0.531774,-0.586596 1.036129,-1.244451 1.496637,-2.006476 0.460508,-0.762026 0.877151,-1.628204 1.134819,-2.247686 0.257667,-0.619483 0.356346,-0.992268 0.422133,-1.238969 0.06579,-0.246702 0.09868,-0.36731 0.164517,-0.438625 0.06584,-0.07132 0.164517,-0.09325 0.246734,-0.01094 0.08222,0.08231 0.148004,0.268701 0.246687,0.542817 0.09868,0.274115 0.230254,0.635936 0.400198,1.222543 0.169944,0.586606 0.378265,1.397963 0.493377,2.165476 0.115113,0.767513 0.137042,1.491154 0.06576,2.225766 -0.07128,0.734612 -0.235744,1.480182 -0.471484,2.12707 -0.235741,0.646888 -0.542741,1.195101 -0.866192,1.683014 -0.32345,0.487912 -0.663342,0.915519 -1.090951,1.337645 -0.427609,0.422125 -0.942929,0.838766 -1.452763,1.156732 -0.509834,0.317966 -1.014191,0.537252 -1.589824,0.74558 -0.575633,0.208328 -1.222524,0.405684 -1.858451,0.509858 -0.635927,0.104173 -1.260892,0.115139 -1.880385,0.08773 -0.619494,-0.0274 -1.233493,-0.09319 -1.852986,-0.241196 -0.619494,-0.148006 -1.244458,-0.378256 -1.820101,-0.663319 -0.575643,-0.285064 -1.101927,-0.624956 -1.535037,-0.964845 -0.433109,-0.339889 -0.773001,-0.679781 -0.975841,-0.877148 -0.202841,-0.197368 -0.268624,-0.252187 -0.32344,-0.29058 -0.05482,-0.03839 -0.09868,-0.06032 -0.148042,-0.115117 -0.04937,-0.05479 -0.104186,-0.142505 -0.131636,-0.186426 -0.02745,-0.04392 -0.02746,-0.04393 0.24671,-0.03844 z"
             id="path61685"
             transform="translate(124.2664,141.0267)" /><path
             style="fill:url(#linearGradient61709);fill-opacity:1;stroke:none;stroke-width:0.944815;stroke-linecap:round;stroke-linejoin:round;stroke-miterlimit:10"
             d="m 20.488004,27.578593 c -0.01644,-0.202784 -0.04933,-0.60847 -0.03838,-1.068994 0.01095,-0.460523 0.06578,-0.975845 0.197346,-1.4912 0.13157,-0.515356 0.339891,-1.030677 0.603044,-1.535062 0.263153,-0.504385 0.581117,-0.997777 0.948435,-1.502155 0.367318,-0.504379 0.783961,-1.0197 1.156761,-1.441842 0.372801,-0.422142 0.701729,-0.75107 1.036151,-1.074528 0.334422,-0.323458 0.674314,-0.641422 0.849762,-0.778409 0.175447,-0.136986 0.186413,-0.09314 0.175429,0.02197 -0.01098,0.115114 -0.04388,0.301506 -0.03838,0.614015 0.0055,0.312508 0.04936,0.751078 0.18095,1.255456 0.131595,0.504377 0.350881,1.07452 0.570175,1.617267 0.219294,0.542748 0.438579,1.058069 0.592079,1.436346 0.1535,0.378277 0.241214,0.61949 0.323448,0.849746 0.08223,0.230257 0.158983,0.449541 0.219277,0.542666 0.06029,0.09313 0.104144,0.06024 0.197324,-0.142575 0.09318,-0.202811 0.235715,-0.575597 0.312479,-0.953852 0.07676,-0.378256 0.08773,-0.762003 0.06033,-1.173168 -0.0274,-0.411165 -0.09318,-0.849736 -0.104095,-1.052593 -0.01091,-0.202857 0.03294,-0.169969 0.170001,-0.07677 0.137062,0.0932 0.367311,0.246697 0.690765,0.487925 0.323455,0.241229 0.740095,0.570156 1.11836,0.959413 0.378264,0.389257 0.718157,0.838792 0.953877,1.217074 0.23572,0.378282 0.36729,0.685282 0.416612,0.849678 0.04932,0.164395 0.01643,0.186324 -0.06034,0.328897 -0.07677,0.142573 -0.197382,0.405716 -0.38378,0.767543 -0.186397,0.361827 -0.438575,0.822326 -0.849741,1.365058 -0.411166,0.542732 -0.981309,1.167696 -1.639178,1.798153 -0.65787,0.630457 -1.403441,1.266386 -2.286072,1.820089 -0.882631,0.553704 -1.902308,1.025167 -2.927481,1.370553 -1.025173,0.345386 -2.055814,0.564671 -2.587578,0.657932 -0.531764,0.09326 -0.564659,0.06037 -0.718165,-0.09862 -0.153506,-0.158986 -0.427612,-0.444057 -0.679807,-0.751059 -0.252196,-0.307003 -0.482445,-0.63593 -0.685305,-1.003241 -0.20286,-0.367312 -0.378288,-0.772989 -0.531807,-1.282847 -0.153519,-0.509857 -0.28509,-1.123855 -0.339928,-1.628237 -0.05484,-0.504382 -0.03291,-0.899095 0.02191,-1.337687 0.05482,-0.438592 0.142534,-0.921021 0.32893,-1.452825 0.186396,-0.531804 0.471467,-1.11291 0.745587,-1.567955 0.27412,-0.455045 0.537263,-0.783973 0.674345,-0.931934 0.137083,-0.147962 0.148045,-0.115072 0.126086,0.03841 -0.02196,0.153483 -0.07678,0.427591 -0.104184,0.756542 -0.0274,0.32895 -0.0274,0.712699 0.01647,1.167737 0.04387,0.455039 0.131583,0.981325 0.241257,1.354121 0.109674,0.372797 0.241245,0.592083 0.372838,0.762021 0.131593,0.169939 0.263164,0.290546 0.3783,0.367268 0.115136,0.07672 0.213817,0.109614 0.263092,0.126039 0.04927,0.01642 0.04925,0.01642 0.0328,-0.186363 z"
             id="path61687"
             transform="translate(124.2664,141.0267)" /><path
             style="fill:#0076d5;fill-opacity:1;stroke:#008cff;stroke-width:0.952269;stroke-linecap:round;stroke-linejoin:round;stroke-miterlimit:10;stroke-opacity:0"
             d="m 31.14151,25.239766 c 0.0828,0.209762 0.248351,0.629154 0.347658,1.180981 0.09931,0.551828 0.132417,1.236085 0.0993,1.826533 -0.03312,0.590449 -0.132448,1.087088 -0.270411,1.561653 -0.137962,0.474566 -0.314545,0.927057 -0.640126,1.478874 -0.325581,0.551817 -0.800146,1.202966 -1.456808,1.776855 -0.656663,0.573889 -1.495428,1.070527 -2.190714,1.374036 -0.695286,0.303509 -1.247104,0.413873 -1.832039,0.469064 -0.584935,0.05519 -1.202973,0.05519 -1.821019,-0.04412 -0.618045,-0.09931 -1.236083,-0.297966 -1.705142,-0.480059 -0.469059,-0.182093 -0.789116,-0.347639 -1.076074,-0.524215 -0.286958,-0.176576 -0.540795,-0.364194 -0.678771,-0.474541 -0.137976,-0.110348 -0.160051,-0.143461 0.121394,-0.193194 0.281445,-0.04973 0.866373,-0.115951 1.451307,-0.237361 0.584934,-0.12141 1.169863,-0.297992 1.914831,-0.612541 0.744968,-0.314549 1.649948,-0.767039 2.284545,-1.131246 0.634597,-0.364207 0.998797,-0.640116 1.423705,-1.004324 0.424908,-0.364208 0.910511,-0.816701 1.374045,-1.313345 0.463535,-0.496645 0.904991,-1.037428 1.263678,-1.567177 0.358687,-0.529748 0.634597,-1.048457 0.827738,-1.407151 0.193142,-0.358694 0.303505,-0.55735 0.369723,-0.678749 0.06622,-0.1214 0.08829,-0.165544 0.09934,-0.18764 0.01105,-0.0221 0.01105,-0.0221 0.09385,0.187665 z"
             id="path61689"
             transform="translate(124.2664,141.0267)" /><path
             id="rect66439"
             style="fill:#c9d1d9;fill-opacity:1;stroke:#a2a5c0;stroke-width:1.96162063;stroke-linecap:round;stroke-linejoin:round;stroke-miterlimit:4;stroke-dasharray:none;stroke-opacity:1"
             d="m 172.2336,154.86433 c -0.10831,0.10266 -0.23208,0.19145 -0.32143,0.31057 -0.67564,0.90085 -0.55959,0.63329 -1.82366,2.17145 -2.9437,4.18937 -8.88785,1.3963 -12.592,3.12591 -6.67699,3.08435 -3.56139,9.11379 -5.64513,12.85296 -1.67753,2.32586 -4.59979,3.84975 -7.12101,3.90777 -1.84817,0.0504 -7.2476,1.6669 -7.19956,11.76104 h 34.70279 z" /><path
             style="fill:#c9d1d9;fill-opacity:1;stroke:#a2a5c0;stroke-width:1.96162;stroke-dasharray:none;stroke-opacity:1"
             d="m 487.2996,219.61717 c -1.11125,-0.0362 -2.22824,0.11026 -3.29261,0.43167 -1.62759,0.49149 -3.1018,1.37715 -4.61425,2.15375 -1.51245,0.7766 -3.12877,1.46197 -4.82856,1.49802 -0.8499,0.018 -1.71017,-0.13196 -2.47811,-0.49652 -0.76795,-0.36456 -1.43959,-0.95039 -1.85056,-1.69453 -0.41097,-0.74415 -0.54768,-1.64806 -0.31522,-2.46575 0.11622,-0.40884 0.32226,-0.79282 0.60482,-1.11034 0.28257,-0.31752 0.6418,-0.56763 1.04053,-0.71485 0.52426,-0.19357 1.09589,-0.20631 1.64219,-0.3241 0.27315,-0.0589 0.54309,-0.14545 0.783,-0.28871 0.23991,-0.14326 0.44926,-0.34654 0.56882,-0.5991 0.12594,-0.26605 0.14613,-0.57414 0.0939,-0.86382 -0.0522,-0.28968 -0.17337,-0.56305 -0.31903,-0.81883 -0.29133,-0.51157 -0.68608,-0.96925 -0.88929,-1.52177 -0.26241,-0.7135 -0.16875,-1.53675 0.19749,-2.20293 0.36624,-0.66619 0.98899,-1.17573 1.69428,-1.45946 0.70529,-0.28373 1.48828,-0.34937 2.24171,-0.24798 0.75343,0.10139 1.47895,0.36521 2.15306,0.71665 1.34822,0.70289 2.48428,1.7424 3.67986,2.68172 1.19558,0.93933 2.5136,1.8077 4.01119,2.07032 0.73332,0.1286 1.48788,0.10724 2.21787,0.25355 0.365,0.0731 0.72448,0.18932 1.04504,0.37857 0.32056,0.18925 0.60146,0.45481 0.77546,0.7839 0.1475,0.27896 0.21472,0.59698 0.21365,0.91253 -0.001,0.31555 -0.0689,0.62883 -0.17875,0.92464 -0.29841,0.8036 -0.91882,1.48241 -1.6924,1.85172 -0.77358,0.36931 -1.69153,0.4249 -2.50402,0.15165 z"
             id="path6-0-8-9-0"
             transform="translate(-343.59356,-65.935881)" /><path
             id="path70-9-7"
             clip-path="none"
             style="fill:#c9d1d9;fill-opacity:1;fill-rule:evenodd;stroke:#a2a5c0;stroke-width:1.96162063;stroke-dasharray:none;stroke-opacity:1"
             d="m 155.25437,143.34922 c -0.27203,0.0753 -0.53105,0.20662 -0.76038,0.36884 -0.45871,0.32435 -0.79284,0.76204 -1.08005,1.20337 -1.01316,1.5569 -1.55898,3.30537 -1.43601,4.94501 0.17012,2.26899 1.62754,4.22161 3.70433,5.39526 3.05115,1.49337 9.5608,0.73885 12.11788,-1.11888 1.5852,-1.27324 1.9847,-3.79449 1.8749,-5.13395 -0.15714,-1.59613 -0.99629,-3.04386 -2.32936,-4.01735 -0.34265,-0.25015 -0.72374,-0.4727 -1.17199,-0.57698 -0.43923,-0.10216 -0.92815,-0.0857 -1.40618,0.005 -0.47804,0.0902 -0.94743,0.25254 -1.40348,0.44025 -0.91208,0.37549 -1.78904,0.85783 -2.73508,1.11604 -0.50123,0.13677 -1.02034,0.20815 -1.51008,0.16259 -0.48974,-0.0457 -0.94951,-0.21341 -1.26348,-0.51031 -0.36921,-0.34912 -0.51291,-0.84205 -0.71869,-1.29174 -0.10301,-0.22478 -0.22438,-0.44364 -0.3972,-0.62737 -0.17273,-0.18381 -0.4002,-0.33192 -0.67447,-0.39426 -0.2847,-0.0455 -0.76155,0.015 -0.81066,0.0345 z" /><path
             id="path66444"
             clip-path="none"
             style="fill:#c9d1d9;fill-opacity:1;fill-rule:evenodd;stroke:#a2a5c0;stroke-width:1.96162063;stroke-dasharray:none;stroke-opacity:1"
             d="m 128.03229,169.96234 c 0.14181,1.38025 0.91146,2.64506 2.02416,3.69818 0.54004,0.5111 0.64843,1.04676 1.39788,1.40707 0.74948,0.36028 1.62774,0.6105 2.58026,0.66945 1.14719,0.071 2.38246,-0.14328 3.45474,-0.5911 1.07229,-0.44783 1.97653,-1.1254 2.54808,-1.898 0.85047,-1.14964 0.94274,-2.42589 1.4524,-3.64104 0.46186,-1.10121 0.19406,-2.22386 -0.61063,-3.02249 -0.7852,-0.77927 -2.25114,-1.0311 -3.50756,-1.12319 -2.65482,-0.1946 -7.83888,1.25546 -7.83888,1.25546 -1.76983,0.28345 -1.631,1.97505 -1.50045,3.24566 z" /></g></g></g></g><style
     type="text/css"
     id="style1">
	.st0{fill:#4059BF;stroke:#262673;stroke-width:5.5604;stroke-linecap:round;stroke-linejoin:round;stroke-miterlimit:11.3386;}
	.st1{fill:#384B94;stroke:#262673;stroke-width:5.5604;stroke-linecap:round;stroke-linejoin:round;stroke-miterlimit:11.3386;}
	.st2{fill:#262673;}
	.st3{fill:#69532E;stroke:#333333;stroke-width:5.5616;stroke-linecap:round;stroke-linejoin:round;stroke-miterlimit:11.3386;}
	.st4{fill:#808080;stroke:#2E2E2E;stroke-width:2.7803;stroke-linecap:round;stroke-linejoin:round;stroke-miterlimit:11.3386;}
</style><style
     type="text/css"
     id="style1-72">
	.st0{fill:#4059BF;stroke:#262673;stroke-width:5.5604;stroke-linecap:round;stroke-linejoin:round;stroke-miterlimit:11.3386;}
	.st1{fill:#384B94;stroke:#262673;stroke-width:5.5604;stroke-linecap:round;stroke-linejoin:round;stroke-miterlimit:11.3386;}
	.st2{fill:#262673;}
	.st3{fill:#69532E;stroke:#333333;stroke-width:5.5616;stroke-linecap:round;stroke-linejoin:round;stroke-miterlimit:11.3386;}
	.st4{fill:#808080;stroke:#2E2E2E;stroke-width:2.7803;stroke-linecap:round;stroke-linejoin:round;stroke-miterlimit:11.3386;}
</style></svg>
