<svg xmlns="http://www.w3.org/2000/svg" xmlns:xlink="http://www.w3.org/1999/xlink" xml:space="preserve" width="185" height="185" viewBox="0 0 48.948 48.948"><defs><linearGradient xlink:href="#a" id="b" x1="112.28" x2="96.735" y1="85.87" y2="54.829" gradientTransform="matrix(.40778 0 0 .40778 -16.765 -2.886)" gradientUnits="userSpaceOnUse"/><linearGradient id="a"><stop offset=".538" style="stop-color:#008cff;stop-opacity:1"/><stop offset="1" style="stop-color:#a5d9ff;stop-opacity:1"/></linearGradient></defs><g transform="translate(-124.266 -141.027)"><path d="M132.113 148.874h33.152v33.152h-33.152z" style="fill:#d96300;fill-opacity:1;stroke:none;stroke-width:1.5658;stroke-linecap:butt;stroke-linejoin:miter;stroke-miterlimit:4;stroke-dasharray:none;stroke-opacity:1"/><path d="M125.248 142.008v46.985h46.985v-46.985zm7.927 7.927h31.13v31.131h-31.13z" style="fill:#2687d9;fill-opacity:1;stroke-width:0;stroke-linecap:round"/><path d="M132.113 148.874h33.152v33.152h-33.152z" style="fill:none;fill-opacity:1;stroke:none;stroke-width:1.96165;stroke-linecap:butt;stroke-linejoin:bevel;stroke-miterlimit:4;stroke-dasharray:none;stroke-opacity:1"/><circle cx="129.322" cy="146.082" r="1.622" style="fill:gray;fill-opacity:1;stroke:#2e2e2e;stroke-width:.980823;stroke-linecap:round;stroke-linejoin:round;stroke-opacity:1"/><circle cx="168.159" cy="146.082" r="1.622" style="fill:gray;fill-opacity:1;stroke:#2e2e2e;stroke-width:.980823;stroke-linecap:round;stroke-linejoin:round;stroke-opacity:1"/><circle cx="129.322" cy="184.919" r="1.622" style="fill:gray;fill-opacity:1;stroke:#2e2e2e;stroke-width:.980823;stroke-linecap:round;stroke-linejoin:round;stroke-opacity:1"/><circle cx="168.159" cy="184.919" r="1.622" style="fill:gray;fill-opacity:1;stroke:#2e2e2e;stroke-width:.980823;stroke-linecap:round;stroke-linejoin:round;stroke-opacity:1"/><path d="M133.174 149.935h31.132v31.132h-31.132z" style="fill:#002f55;fill-opacity:1;stroke:#1b5e98;stroke-width:1.96165;stroke-linecap:butt;stroke-linejoin:miter;stroke-miterlimit:4;stroke-dasharray:none;stroke-opacity:1"/><path d="M125.247 142.007h46.986v46.986h-46.986z" style="fill:none;fill-opacity:1;stroke:#1b5e98;stroke-width:1.96165;stroke-linecap:round;stroke-linejoin:round;stroke-miterlimit:4;stroke-dasharray:none;stroke-opacity:1"/><path d="M164.306 149.935h7.847M164.306 181.066h7.847M125.328 181.066h7.846M125.328 149.935h7.846" style="fill:none;stroke:#1b5e98;stroke-width:1.96165;stroke-linecap:butt;stroke-linejoin:miter;stroke-miterlimit:4;stroke-dasharray:none;stroke-opacity:1"/><path d="M24.812 12.337c.362.41 1.086 1.233 1.76 2.04.675.805 1.3 1.594 1.908 2.406.609.811 1.2 1.644 1.738 2.505.537.86 1.02 1.749 1.392 2.506.373.756.636 1.381.889 2.127.252.745.493 1.611.64 2.33a9 9 0 0 1 .204 1.907c0 .62-.055 1.289-.236 2.001a9 9 0 0 1-.844 2.106 7.7 7.7 0 0 1-1.25 1.65 9 9 0 0 1-1.689 1.37c-.63.39-1.32.685-2.034.905-.712.22-1.447.362-2.088.433a9 9 0 0 1-1.683.033 8 8 0 0 1-1.322-.214c-.389-.099-.729-.22-1.096-.373a8 8 0 0 1-1.25-.647 12 12 0 0 1-1.551-1.167 9.5 9.5 0 0 1-1.152-1.24 5.2 5.2 0 0 1-.69-1.145 12.6 12.6 0 0 1-.625-1.71 6 6 0 0 1-.225-1.503 9.6 9.6 0 0 1 .104-1.721c.099-.69.274-1.535.559-2.423s.68-1.82 1.075-2.637.789-1.519 1.282-2.303a40 40 0 0 1 1.755-2.55c.669-.898 1.414-1.83 2.045-2.603.63-.773 1.145-1.387 1.463-1.776.318-.39.439-.554.5-.636.06-.083.06-.083.421.329" style="fill:#212226;stroke:#121212;stroke-width:.944815;stroke-linecap:round;stroke-linejoin:round;stroke-miterlimit:10" transform="translate(124.266 141.027)"/><path d="M17.554 33.312c.274.005.822.016 1.436 0 .614-.017 1.294-.06 2.001-.198.708-.137 1.442-.367 2.111-.608a13.4 13.4 0 0 0 1.908-.84 14.4 14.4 0 0 0 1.919-1.26 13.2 13.2 0 0 0 3.201-3.585c.46-.762.877-1.629 1.135-2.248s.356-.992.422-1.239.099-.367.165-.439c.065-.07.164-.093.246-.01.083.082.148.268.247.542s.23.636.4 1.223c.17.586.378 1.398.494 2.165a8.95 8.95 0 0 1-.406 4.353 8 8 0 0 1-.866 1.683 8 8 0 0 1-1.091 1.338 8.7 8.7 0 0 1-1.453 1.157c-.51.317-1.014.537-1.59.745-.575.208-1.222.406-1.858.51a9 9 0 0 1-1.88.088 9.8 9.8 0 0 1-1.854-.242 8.7 8.7 0 0 1-1.82-.663 9 9 0 0 1-1.535-.965c-.433-.34-.773-.68-.976-.877a3 3 0 0 0-.323-.29c-.055-.039-.099-.06-.148-.116-.05-.054-.104-.142-.132-.186-.027-.044-.027-.044.247-.038" style="fill:#0f0f0f;fill-opacity:1;stroke:#121212;stroke-width:.944815;stroke-linecap:round;stroke-linejoin:round;stroke-miterlimit:10;stroke-opacity:0" transform="translate(124.266 141.027)"/><path d="M20.488 27.579c-.016-.203-.05-.609-.038-1.07.01-.46.065-.975.197-1.49a7.2 7.2 0 0 1 .603-1.536c.263-.504.581-.997.948-1.502a18.136 18.136 0 0 1 2.193-2.516c.335-.324.675-.642.85-.779.176-.137.187-.093.176.022s-.044.302-.039.614c.006.313.05.751.181 1.256.132.504.351 1.074.57 1.617.22.543.439 1.058.592 1.436.154.379.242.62.324.85s.159.45.22.543c.06.093.103.06.196-.143s.236-.575.313-.954a4.4 4.4 0 0 0 .06-1.173c-.027-.41-.093-.85-.104-1.052s.033-.17.17-.077.367.247.69.488c.324.241.741.57 1.12.96.378.389.717.838.953 1.216a4 4 0 0 1 .417.85c.05.164.016.186-.06.329-.077.142-.198.406-.384.767a9 9 0 0 1-.85 1.365c-.411.543-.981 1.168-1.64 1.799-.657.63-1.403 1.266-2.285 1.82a14 14 0 0 1-2.928 1.37 19 19 0 0 1-2.587.658c-.532.093-.565.06-.719-.098a13 13 0 0 1-.68-.751 6.6 6.6 0 0 1-.685-1.004 6.4 6.4 0 0 1-.532-1.283 9.7 9.7 0 0 1-.34-1.628c-.054-.504-.032-.899.022-1.337a7 7 0 0 1 .33-1.453 9 9 0 0 1 .745-1.568c.274-.455.537-.784.674-.932s.148-.115.126.038c-.022.154-.076.428-.104.757s-.027.712.017 1.168.131.98.241 1.354c.11.372.241.592.373.762.131.17.263.29.378.367s.214.11.263.126.05.016.033-.186" style="fill:url(#b);fill-opacity:1;stroke:none;stroke-width:.944815;stroke-linecap:round;stroke-linejoin:round;stroke-miterlimit:10" transform="translate(124.266 141.027)"/><path d="M31.142 25.24c.082.21.248.629.347 1.18.1.553.133 1.237.1 1.827a6.8 6.8 0 0 1-.27 1.562 6.1 6.1 0 0 1-.641 1.479 7.3 7.3 0 0 1-1.457 1.777 9 9 0 0 1-2.19 1.374 5.6 5.6 0 0 1-1.833.469 7.2 7.2 0 0 1-1.82-.044 8.7 8.7 0 0 1-1.706-.48 6.3 6.3 0 0 1-1.076-.525 7 7 0 0 1-.679-.474c-.138-.11-.16-.144.122-.193.281-.05.866-.116 1.451-.238a10 10 0 0 0 1.915-.612 23 23 0 0 0 2.284-1.132c.635-.364 1-.64 1.424-1.004.425-.364.91-.817 1.374-1.313a13 13 0 0 0 1.264-1.567c.359-.53.634-1.049.828-1.408.193-.358.303-.557.37-.678.066-.122.088-.166.099-.188.01-.022.01-.022.094.188" style="fill:#0076d5;fill-opacity:1;stroke:#008cff;stroke-width:.952269;stroke-linecap:round;stroke-linejoin:round;stroke-miterlimit:10;stroke-opacity:0" transform="translate(124.266 141.027)"/><path d="M125.247 142.008v26.348c1.54.144 3.209.704 4.209-.114 1.322-5.286-2.13-6.045 3.684-10.194.825-.578 1.782-.942 2.702-1.35 3.774-2.428-1.785-4.928-1.228-6.879 1.054-1.538 3.42-2.285 3.93-2.456 4.36-.899 7.111-3.227 10.38-5.355zm0 38.566v8.42h8.42c-.118-.242-.197-.508-.343-.734-1.584-1.819-3.688-2.733-2.701-4.667 1.26-2.8-5.376-3.61-5.376-3.019" style="fill:#c9d1d9;fill-opacity:1;stroke:#a2a5c0;stroke-width:1.96162063;stroke-linecap:round;stroke-linejoin:round;stroke-miterlimit:4;stroke-dasharray:none;stroke-opacity:1"/><path d="M509.696 157.861c-1.737-.824-3.788-.924-4.79.05-1.004.973-.96 3.02-.514 4.35s1.292 1.944 2.776 2.32 3.605.514 4.896.008 1.753-1.656 1.272-3.006-1.904-2.897-3.64-3.722z" style="fill:#c9d1d9;fill-opacity:1;stroke:#a2a5c0;stroke-width:1.96162063;stroke-miterlimit:4;stroke-dasharray:none;stroke-opacity:1" transform="translate(-344.972 -11.557)"/><path d="M494.689 182.599c-1.62.381-1.83 1.691-2.004 4.382-.175 2.69-.314 6.76 1.852 9.369s6.637 3.754 10.922 2.83 8.383-3.918 9.78-7.568.094-7.953-2.502-9.446-6.482-.173-9.94.213c-3.459.386-6.489-.162-8.108.22z" style="fill:#c9d1d9;fill-opacity:1;stroke:#a2a5c0;stroke-width:1.96162063;stroke-dasharray:none;stroke-opacity:1" transform="translate(-344.972 -11.557)"/><path d="M141.214 154.652c-.276.005-.558.085-.766.268-.139.122-.239.285-.299.46a1.5 1.5 0 0 0-.074.55c.012.37.128.728.232 1.084s.198.725.164 1.095a1.3 1.3 0 0 1-.158.529.96.96 0 0 1-.39.383c-.239.12-.518.12-.785.104-.266-.016-.538-.044-.795.028-.283.08-.522.279-.693.52a2.6 2.6 0 0 0-.36.803 4.4 4.4 0 0 0-.14 1.786c.08.596.304 1.176.667 1.654.448.59 1.082 1.06 1.78 1.267 2.713.808 7.34.78 8.483-.341.805-1.078.38-2.808.38-4.136-.4-1.064-1.063-2.03-1.827-2.876-1.25-1.385-2.818-2.521-4.605-3.042-.265-.078-.538-.142-.814-.136z" style="fill:#c9d1d9;fill-opacity:1;fill-rule:evenodd;stroke:#a2a5c0;stroke-width:1.96162063;stroke-dasharray:none;stroke-opacity:1"/></g></svg>