<svg xmlns="http://www.w3.org/2000/svg" xmlns:xlink="http://www.w3.org/1999/xlink" xml:space="preserve" width="185" height="185" viewBox="0 0 48.948 48.948"><defs><linearGradient xlink:href="#a" id="b" x1="112.28" x2="96.735" y1="85.87" y2="54.829" gradientTransform="matrix(.40778 0 0 .40778 -16.765 -2.886)" gradientUnits="userSpaceOnUse"/><linearGradient id="a"><stop offset=".538" style="stop-color:#008cff;stop-opacity:1"/><stop offset="1" style="stop-color:#a5d9ff;stop-opacity:1"/></linearGradient></defs><g transform="translate(-124.266 -141.027)"><path d="M132.113 148.874h33.152v33.152h-33.152z" style="fill:#d96300;fill-opacity:1;stroke:none;stroke-width:1.5658;stroke-linecap:butt;stroke-linejoin:miter;stroke-miterlimit:4;stroke-dasharray:none;stroke-opacity:1"/><path d="M125.248 142.008v46.985h46.985v-46.985zm7.927 7.927h31.13v31.131h-31.13z" style="fill:#2687d9;fill-opacity:1;stroke-width:0;stroke-linecap:round"/><path d="M132.113 148.874h33.152v33.152h-33.152z" style="fill:none;fill-opacity:1;stroke:none;stroke-width:1.96165;stroke-linecap:butt;stroke-linejoin:bevel;stroke-miterlimit:4;stroke-dasharray:none;stroke-opacity:1"/><circle cx="129.322" cy="146.082" r="1.622" style="fill:gray;fill-opacity:1;stroke:#2e2e2e;stroke-width:.980823;stroke-linecap:round;stroke-linejoin:round;stroke-opacity:1"/><circle cx="168.159" cy="146.082" r="1.622" style="fill:gray;fill-opacity:1;stroke:#2e2e2e;stroke-width:.980823;stroke-linecap:round;stroke-linejoin:round;stroke-opacity:1"/><circle cx="129.322" cy="184.919" r="1.622" style="fill:gray;fill-opacity:1;stroke:#2e2e2e;stroke-width:.980823;stroke-linecap:round;stroke-linejoin:round;stroke-opacity:1"/><circle cx="168.159" cy="184.919" r="1.622" style="fill:gray;fill-opacity:1;stroke:#2e2e2e;stroke-width:.980823;stroke-linecap:round;stroke-linejoin:round;stroke-opacity:1"/><path d="M133.175 149.935h31.132v31.132h-31.132z" style="fill:#002f55;fill-opacity:1;stroke:#1b5e98;stroke-width:1.96165;stroke-linecap:butt;stroke-linejoin:miter;stroke-miterlimit:4;stroke-dasharray:none;stroke-opacity:1"/><path d="M125.247 142.008h46.986v46.986h-46.986z" style="fill:none;fill-opacity:1;stroke:#1b5e98;stroke-width:1.96165;stroke-linecap:round;stroke-linejoin:round;stroke-miterlimit:4;stroke-dasharray:none;stroke-opacity:1"/><path d="M164.306 149.935h7.847M164.306 181.067h7.847M125.328 181.067h7.847M125.328 149.935h7.847" style="fill:none;stroke:#1b5e98;stroke-width:1.96165;stroke-linecap:butt;stroke-linejoin:miter;stroke-miterlimit:4;stroke-dasharray:none;stroke-opacity:1"/><path d="M24.812 12.337c.362.41 1.086 1.233 1.76 2.04.675.805 1.3 1.594 1.908 2.406.609.811 1.2 1.644 1.738 2.505.537.86 1.02 1.749 1.392 2.506.373.756.636 1.381.889 2.127.252.745.493 1.611.64 2.33a9 9 0 0 1 .204 1.907c0 .62-.055 1.289-.236 2.001a9 9 0 0 1-.844 2.106 7.7 7.7 0 0 1-1.25 1.65 9 9 0 0 1-1.689 1.37c-.63.39-1.32.685-2.034.905-.712.22-1.447.362-2.088.433a9 9 0 0 1-1.683.033 8 8 0 0 1-1.322-.214c-.389-.099-.729-.22-1.096-.373a8 8 0 0 1-1.25-.647 12 12 0 0 1-1.551-1.167 9.5 9.5 0 0 1-1.152-1.24 5.2 5.2 0 0 1-.69-1.145 12.6 12.6 0 0 1-.625-1.71 6 6 0 0 1-.225-1.503 9.6 9.6 0 0 1 .104-1.721c.099-.69.274-1.535.559-2.423s.68-1.82 1.075-2.637.789-1.519 1.282-2.303a40 40 0 0 1 1.755-2.55c.669-.898 1.414-1.83 2.045-2.603.63-.773 1.145-1.387 1.463-1.776.318-.39.439-.554.5-.636.06-.083.06-.083.421.329" style="fill:#212226;stroke:#121212;stroke-width:.944815;stroke-linecap:round;stroke-linejoin:round;stroke-miterlimit:10" transform="translate(124.266 141.027)"/><path d="M17.554 33.312c.274.005.822.016 1.436 0 .614-.017 1.294-.06 2.001-.198.708-.137 1.442-.367 2.111-.608a13.4 13.4 0 0 0 1.908-.84 14.4 14.4 0 0 0 1.919-1.26 13.2 13.2 0 0 0 3.201-3.585c.46-.762.877-1.629 1.135-2.248s.356-.992.422-1.239.099-.367.165-.439c.065-.07.164-.093.246-.01.083.082.148.268.247.542s.23.636.4 1.223c.17.586.378 1.398.494 2.165a8.95 8.95 0 0 1-.406 4.353 8 8 0 0 1-.866 1.683 8 8 0 0 1-1.091 1.338 8.7 8.7 0 0 1-1.453 1.157c-.51.317-1.014.537-1.59.745-.575.208-1.222.406-1.858.51a9 9 0 0 1-1.88.088 9.8 9.8 0 0 1-1.854-.242 8.7 8.7 0 0 1-1.82-.663 9 9 0 0 1-1.535-.965c-.433-.34-.773-.68-.976-.877a3 3 0 0 0-.323-.29c-.055-.039-.099-.06-.148-.116-.05-.054-.104-.142-.132-.186-.027-.044-.027-.044.247-.038" style="fill:#0f0f0f;fill-opacity:1;stroke:#121212;stroke-width:.944815;stroke-linecap:round;stroke-linejoin:round;stroke-miterlimit:10;stroke-opacity:0" transform="translate(124.266 141.027)"/><path d="M20.488 27.579c-.016-.203-.05-.609-.038-1.07.01-.46.065-.975.197-1.49a7.2 7.2 0 0 1 .603-1.536c.263-.504.581-.997.948-1.502a18.136 18.136 0 0 1 2.193-2.516c.335-.324.675-.642.85-.779.176-.137.187-.093.176.022s-.044.302-.039.614c.006.313.05.751.181 1.256.132.504.351 1.074.57 1.617.22.543.439 1.058.592 1.436.154.379.242.62.324.85s.159.45.22.543c.06.093.103.06.196-.143s.236-.575.313-.954a4.4 4.4 0 0 0 .06-1.173c-.027-.41-.093-.85-.104-1.052s.033-.17.17-.077.367.247.69.488c.324.241.741.57 1.12.96.378.389.717.838.953 1.216a4 4 0 0 1 .417.85c.05.164.016.186-.06.329-.077.142-.198.406-.384.767a9 9 0 0 1-.85 1.365c-.411.543-.981 1.168-1.64 1.799-.657.63-1.403 1.266-2.285 1.82a14 14 0 0 1-2.928 1.37 19 19 0 0 1-2.587.658c-.532.093-.565.06-.719-.098a13 13 0 0 1-.68-.751 6.6 6.6 0 0 1-.685-1.004 6.4 6.4 0 0 1-.532-1.283 9.7 9.7 0 0 1-.34-1.628c-.054-.504-.032-.899.022-1.337a7 7 0 0 1 .33-1.453 9 9 0 0 1 .745-1.568c.274-.455.537-.784.674-.932s.148-.115.126.038c-.022.154-.076.428-.104.757s-.027.712.017 1.168.131.98.241 1.354c.11.372.241.592.373.762.131.17.263.29.378.367s.214.11.263.126.05.016.033-.186" style="fill:url(#b);fill-opacity:1;stroke:none;stroke-width:.944815;stroke-linecap:round;stroke-linejoin:round;stroke-miterlimit:10" transform="translate(124.266 141.027)"/><path d="M31.142 25.24c.082.21.248.629.347 1.18.1.553.133 1.237.1 1.827a6.8 6.8 0 0 1-.27 1.562 6.1 6.1 0 0 1-.641 1.479 7.3 7.3 0 0 1-1.457 1.777 9 9 0 0 1-2.19 1.374 5.6 5.6 0 0 1-1.833.469 7.2 7.2 0 0 1-1.82-.044 8.7 8.7 0 0 1-1.706-.48 6.3 6.3 0 0 1-1.076-.525 7 7 0 0 1-.679-.474c-.138-.11-.16-.144.122-.193.281-.05.866-.116 1.451-.238a10 10 0 0 0 1.915-.612 23 23 0 0 0 2.284-1.132c.635-.364 1-.64 1.424-1.004.425-.364.91-.817 1.374-1.313a13 13 0 0 0 1.264-1.567c.359-.53.634-1.049.828-1.408.193-.358.303-.557.37-.678.066-.122.088-.166.099-.188.01-.022.01-.022.094.188" style="fill:#0076d5;fill-opacity:1;stroke:#008cff;stroke-width:.952269;stroke-linecap:round;stroke-linejoin:round;stroke-miterlimit:10;stroke-opacity:0" transform="translate(124.266 141.027)"/><path d="M165.925 157.162c-2.143-.04-4.184.702-5.94 1.892-.853.578-1.691.628-2.337 1.483a7.14 7.14 0 0 0-1.343 3.032c-.248 1.383-.067 2.917.493 4.288s1.494 2.574 2.615 3.387c1.667 1.21 3.621 1.518 5.431 2.323 1.64.73 3.402.577 4.729-.278 1.295-.835 1.86-2.578 2.154-4.09.62-3.196-.985-9.717-.985-9.717-.223-2.193-2.845-2.284-4.817-2.32z" style="fill:#c9d1d9;fill-opacity:1;fill-rule:evenodd;stroke:#a2a5c0;stroke-width:1.96162063;stroke-dasharray:none;stroke-opacity:1"/><path d="M419.624 224.26a5.76 5.76 0 0 1-2.434-2.022 5.76 5.76 0 0 1-.987-3.006c-.068-1.82.74-3.577 1.842-5.027 1.286-1.694 3.058-3.097 5.132-3.572 1.518-.348 3.14-.178 4.585.404s2.716 1.566 3.704 2.771c1.21 1.474 1.995 3.252 3.158 4.763.49.636 1.046 1.223 1.504 1.883.459.66.823 1.415.864 2.218a3.1 3.1 0 0 1-.623 2.002c-.43.57-1.057.985-1.745 1.173-.789.215-1.627.136-2.435.009-.807-.128-1.616-.302-2.433-.274-.982.035-1.928.36-2.895.53a9.22 9.22 0 0 1-7.237-1.853z" style="fill:#c9d1d9;fill-opacity:1;fill-rule:evenodd;stroke:#a2a5c0;stroke-width:1.96162;stroke-dasharray:none;stroke-opacity:1" transform="translate(-290.02 -67.68)"/><path d="M130.863 171.725a2 2 0 0 0-.213.005 2 2 0 0 0-.804.261c-.494.281-.871.73-1.202 1.193-1.165 1.637-1.873 3.62-1.893 5.633-.027 2.785 1.28 5.5 3.284 7.424 2.964 2.547 9.636 3.215 12.395 1.59 1.72-1.156 2.348-4.108 2.355-5.755a8.62 8.62 0 0 0-2.01-5.424c-.325-.386-.693-.748-1.138-.983-.437-.23-.935-.329-1.428-.336s-.983.076-1.463.192c-.958.233-1.89.603-2.873.686-.52.044-1.054.004-1.547-.17s-.945-.489-1.237-.924c-.344-.512-.446-1.143-.616-1.737a3.5 3.5 0 0 0-.347-.855 1.7 1.7 0 0 0-.65-.64c-.189-.1-.4-.151-.613-.16z" style="fill:#c9d1d9;fill-opacity:1;fill-rule:evenodd;stroke:#a2a5c0;stroke-width:1.96162063;stroke-dasharray:none;stroke-opacity:1"/><path d="M428.833 241.126a2.17 2.17 0 0 1-.97.661q-.084.028-.17.054c-.137.047-.27.107-.408.15a.9.9 0 0 1-.429.038c-.18-.036-.334-.152-.465-.281a1.9 1.9 0 0 1-.558-1.029c-.05-.308-.01-.623 0-.935.008-.281-.011-.562 0-.842.012-.31.062-.62.163-.912.08-.235.193-.456.302-.679.118-.241.232-.487.395-.701a2.1 2.1 0 0 1 1-.702c.678-.23 1.464-.133 2.048.28.515.367.855.963.93 1.591a2.42 2.42 0 0 1-.379 1.602z" style="fill:#c9d1d9;fill-opacity:1;fill-rule:evenodd;stroke:#a2a5c0;stroke-width:1.96162063;stroke-dasharray:none;stroke-opacity:1" transform="translate(-290.443 -68.526)"/><path d="M163.966 177.138c-.276.005-.558.085-.766.268-.139.122-.239.285-.299.46a1.5 1.5 0 0 0-.074.55c.012.37.128.728.232 1.084s.198.725.164 1.095a1.3 1.3 0 0 1-.158.529.96.96 0 0 1-.39.383c-.239.12-.518.12-.785.104-.266-.016-.538-.044-.795.028-.283.08-.522.279-.693.52a2.6 2.6 0 0 0-.36.803 4.4 4.4 0 0 0-.14 1.786c.08.596.304 1.176.667 1.654.448.59 1.082 1.06 1.78 1.267 2.713.808 7.34.78 8.483-.341.805-1.078.38-2.808.38-4.136-.4-1.064-1.063-2.03-1.827-2.876-1.25-1.385-2.819-2.521-4.605-3.042-.265-.078-.538-.142-.814-.136z" style="fill:#c9d1d9;fill-opacity:1;fill-rule:evenodd;stroke:#a2a5c0;stroke-width:1.96162;stroke-dasharray:none;stroke-opacity:1"/></g></svg>