<svg xmlns="http://www.w3.org/2000/svg" width="150" height="150" viewBox="0 0 39.688 39.688"><g style="stroke-width:1.07867" transform="matrix(.92707 0 0 .92707 -1243.6 -133.538)"><circle cx="1080.66" cy="-846.681" r="20.199" style="fill:#505050;fill-opacity:1;stroke:#191919;stroke-width:2.42588;stroke-linecap:round;stroke-linejoin:round;stroke-miterlimit:4;stroke-dasharray:none;stroke-opacity:1" transform="rotate(45)"/><circle cx="1080.758" cy="-846.681" r="17.787" style="fill:none;fill-opacity:1;stroke:#636363;stroke-width:2.56857637;stroke-linecap:square;stroke-dasharray:none;stroke-opacity:1;stop-color:#000" transform="rotate(45)"/><circle cx="1088.451" cy="-838.89" r="3.685" style="fill:#2a2a2a;fill-opacity:1;stroke:#191919;stroke-width:1.42699;stroke-linecap:round;stroke-linejoin:round;stroke-miterlimit:4;stroke-dasharray:none;stroke-opacity:1" transform="rotate(45)"/><g style="stroke-width:1.04313" transform="matrix(1.03408 0 0 1.03408 -45.753 -5.315)"><rect width="11.622" height="5.811" x="1356.359" y="162.214" ry="0" style="fill:#373737;fill-opacity:1;stroke:#171717;stroke-width:1.37997;stroke-linecap:butt;stroke-linejoin:round;stroke-dasharray:none;stroke-opacity:1"/><g style="stroke-width:2.44763;stroke-dasharray:none" transform="matrix(.5831 .83058 -.83058 .5831 1368.785 169.734)"><circle cx="-10.983" cy="5.428" r=".463" style="fill:#171717;fill-opacity:1;stroke:none;stroke-width:3.02127;stroke-linecap:round;stroke-linejoin:round;stroke-miterlimit:4;stroke-dasharray:none;stroke-opacity:1"/><circle cx="-8.817" cy="6.949" r=".463" style="fill:#171717;fill-opacity:1;stroke:none;stroke-width:3.02127;stroke-linecap:round;stroke-linejoin:round;stroke-miterlimit:4;stroke-dasharray:none;stroke-opacity:1"/><circle cx="-3.95" cy=".017" r=".463" style="fill:#171717;fill-opacity:1;stroke:none;stroke-width:3.02127;stroke-linecap:round;stroke-linejoin:round;stroke-miterlimit:4;stroke-dasharray:none;stroke-opacity:1"/><circle cx="-6.117" cy="-1.504" r=".463" style="fill:#171717;fill-opacity:1;stroke:none;stroke-width:3.02127;stroke-linecap:round;stroke-linejoin:round;stroke-miterlimit:4;stroke-dasharray:none;stroke-opacity:1"/></g><path d="M-168.552 1359.452h2.829v5.613h-2.829z" style="fill:#3f3f3f;fill-opacity:1;stroke:#171717;stroke-width:1.37997;stroke-linecap:round;stroke-linejoin:round;stroke-miterlimit:4;stroke-dasharray:none;stroke-opacity:1" transform="rotate(-89.97)skewX(.004)"/></g><g style="fill:none;stroke-width:7.00559;stroke-dasharray:none"><path d="M-795.198 202.988h33.073v33.073h-33.073z" style="fill:#f1af01;fill-opacity:1;stroke:#352600;stroke-width:7.00559;stroke-linecap:square;stroke-linejoin:round;stroke-dasharray:none;stroke-opacity:1;stop-color:#000" transform="scale(.2037)rotate(45 2299.43 9507.722)"/><path d="M-705.833-406.1s-8.014 11.217-6.246 16.983c.752 2.451 3.682 4.488 6.246 4.488 2.563 0 5.493-2.037 6.245-4.488 1.768-5.766-6.245-16.983-6.245-16.983m-4.352 12.554s-.15 3.362.901 4.453c.408.424 1.052 1.02 1.147 1.697.045.316.008.82-.297.91-.606.178-1.12-.668-1.467-1.195-.43-.653-.575-1.48-.645-2.26-.107-1.203.36-3.296.36-3.605" style="fill:#1d1f1d;fill-opacity:1;stroke:none;stroke-width:7.00559;stroke-linecap:square;stroke-dasharray:none;stroke-opacity:1;stop-color:#000" transform="matrix(.20369 0 0 .2037 1506.607 236.04)"/></g><path d="M366.055 208.42c-1.604 1.018-2.71 2.774-2.328 4.28.381 1.507 2.25 2.764 3.67 3.211 1.421.448 2.395.086 3.47-.992 1.074-1.078 2.249-2.873 2.431-4.339.183-1.466-.626-2.603-2.082-3.032s-3.557-.147-5.161.871z" style="fill:#c9d1d9;fill-opacity:1;stroke:#a2a5c0;stroke-width:2.38125;stroke-miterlimit:4;stroke-dasharray:none;stroke-opacity:1" transform="matrix(1.07867 0 0 1.07867 955.285 -56.273)"/><path d="M1351.75 148.516a20.4 20.4 0 0 0-3.969 3.078 20.4 20.4 0 0 0-5.792 11.763c.82-.218 1.481-.837 2.136-1.202 1.867-.866 2.982-.957 4.504.132 1.105.936 2.187 1.831 3.047 1.92 2.15.15 4.706-1.171 6.666-1.182v0c.375-.863-.074-.63.934-1.697 1.605-1.495 4.16-.796 6.09-1.265 1.763-.86 2.341-.54.748-1.618-1.472-.877-1.113-2.86-1.59-4.106-1.958-3.65-1.687-4.245-4.636-4.24h-3.245c-1.44.01-3.79-.004-4.637-1.125a4 4 0 0 1-.258-.458zm30.119 10.155c.068-.002-.036.13-.079.18-.487.585-2.14 1.427-2.848 1.656-1.51.263-2.914.352-4.504.133-1.452-.22-2.217.763-3.171 1.532-.965.781-2.071 1.799-3.28 2.202-.61.298-3.792.955-5.876 1.656-.131.218.127.622.474 1.523.7 2.263 1.462 4.09-.07 5.473-.991 1-2.755 2.17-3.047 3.445-.176 2.398.59 4.257.795 6.557.03.436-.057 1.66-.117 2.136l-.038.299c6.197.723 12.599-1.32 17.011-5.732 5.534-5.533 7.32-13.668 4.75-21.06z" style="fill:#c9d1d9;fill-opacity:1;stroke:#a2a5c0;stroke-width:2.56858;stroke-linecap:round;stroke-linejoin:round;stroke-miterlimit:4;stroke-dasharray:none;stroke-opacity:1"/></g></svg>