<svg xmlns="http://www.w3.org/2000/svg" xml:space="preserve" width="420.984" height="449.7"><path fill="#5b3e24" d="M298.075 204.357s-42.907-5.646-58.715-5.646l-40.65-18.066-21.453-126.464L83.538 4.5l59.845 58.715 3.387 46.295 14.68 111.785-39.52 20.325-57.587-14.68-59.845 37.263 50.812-9.034 44.036 19.196 74.524-6.775 54.198 6.775 31.616 30.486 35.004 63.232-2.15 44.003 25.862-41.744-9.033-62.103-59.845-70.007 40.65-11.291 48.552 15.808c-12.043-10.915-40.649-38.391-40.649-38.391" style="stroke:#312114;stroke-width:9;stroke-linecap:round;stroke-linejoin:round;stroke-dasharray:none;stroke-opacity:1"/><path d="M254.706 295.802c3.005-.452 5.496 1.832 8.233 2.516 3.967.991 7.894-2.372 11.892-1.372 6.755 1.688 9.497 8.5 17.38 9.376 4.167.463 11.45-2.043 14.635 1.143 8.081 8.081 1.038 22.428 5.489 31.33 3.762 7.524 8.43 28.64 3.887 36.59-1.787 3.127-18.555 27.638-19.895 26.298-5.876-5.876 1.258-30.529-2.973-34.76-2.645-2.645-13.118-24.562-15.093-29.5-3.186-7.965-24.54-35.706-23.555-41.62M252.42 246.406c-.077 1.296.025 2.615-.23 3.888-.523 2.618-7.176 5.286-8.918 7.318-2.668 3.112-13.643 21.406-7.775 24.926 7.119 4.272 10.346-6.372 12.806-10.062 1.024-1.536 3.6-1.67 5.031-2.744 4.538-3.403 8.517-13.325 6.632-18.98-.703-2.11-7.547-8.965-7.547-4.346M149.511 122.23c13.627 2.7 8.485-5.448 14.636-10.062 5.057-3.792 16.291-2.166 19.667-8.918 2.367-4.734-5.375-41.055-6.403-50.31L92.798 9.031l45.05 50.539c10.204 5.652 9.236 22.342 8.69 32.702-.43 8.181 1.786 28.991 2.973 29.958M69.014 259.899c-.076-5.26-.228-10.52-.228-15.78 0-3.255 9.656-13.322 14.636-11.662 12.312 4.104-1.654 8.866.914 11.434 3.243 3.243 14.16-.268 16.466 4.345 3.302 6.605-7.296 6.551-6.632 7.546 1.739 2.609 7.808 3.637 2.973 6.86-4.783 3.19-28.129 6.385-28.129-2.743" style="fill:#c9d1d9;fill-opacity:1;stroke:#a2a5c0;stroke-width:4;stroke-linecap:round;stroke-linejoin:round;stroke-dasharray:none;stroke-opacity:1"/><path fill="#5b3e24" d="M298.075 204.357s-42.907-5.646-58.715-5.646l-40.65-18.066-21.453-126.464L83.538 4.5l59.845 58.715 3.387 46.295 14.68 111.785-39.52 20.325-57.587-14.68-59.845 37.263 50.812-9.034 44.036 19.196 74.524-6.775 54.198 6.775 31.616 30.486 35.004 63.232-2.15 44.003 25.862-41.744-9.033-62.103-59.845-70.007 40.65-11.291 48.552 15.808c-12.043-10.915-40.649-38.391-40.649-38.391" style="fill:none;stroke:#312114;stroke-width:9;stroke-linecap:round;stroke-linejoin:round;stroke-dasharray:none;stroke-opacity:1"/><path fill="#6d4a2c" stroke="#1b1917" stroke-linejoin="round" stroke-miterlimit="16" stroke-width="11.012" d="m215.227 200.319 36.873-24.823 66.861-14.685 97.525 16.844L317.7 203.31l-47.853 29.275-47.823 4.876-4.106 83.21 10.812 53.29 11.809 71.24-43.16-62.534-12.781-44.628-1.142-90.178-38.678 63.424-41.588 13.999-42.907 63.114.06-58.192 46.374-52.328 54.732-56.584-35.615-22.193L75.986 203 5.762 116.15l81.111 54.97 41.964-.772 43.096 10.894 43.475-42.51 9.552-55.244 81.167-70.046-44.49 77.871-4.848 48.34z" style="stroke:#312114;stroke-width:9;stroke-miterlimit:16;stroke-dasharray:none;stroke-opacity:1"/><path d="M217.31 124.994c13.785.94 16.276 18.93 32.89 7.854 1.396-.93 4.973.427 5.89-.49 6.597-6.597 2.603-36.772 5.891-46.636 6.106-18.318 37.308-44.207 37.308-62.834 0-.353-3.319 2.827-3.436 2.945-2.062 2.061-6.673 1.274-9.327 3.927-13.341 13.341-11.159 14.255-27.49 24.054-7.237 4.342-11.583 7.979-16.429 12.824-4.62 4.621-12.736 9.422-15.68 15.313-6.93 13.858-7.073 27.774-9.618 43.043M125.5 260.356c15.512-.9 10.546 10.107 11.662 21.268.441 4.41 4.192 6.91 5.718 10.977.83 2.216 3.866 16.03 1.6 18.294-1.435 1.435-12.563 3.382-15.093 3.888-16.237 3.247-30.54 11.72-38.876 25.613-.213 6.525-4.104 10.265-6.86 15.779-1.714 3.425-20.046 29.122-22.64 26.527-1.46-1.46-1.506-11.225-1.83-13.492-1.626-11.383-4.706-33.165 2.973-42.764 3.178-3.972 8.41-6.914 11.892-10.977l29.363-32.016c6.203-7.975 11.546-21.59 22.09-23.097M163.461 276.364c-15.29-4.308-16.929-33.092-.686-37.733 1.09-.311 3.367-1.29 4.574-.686 4.378 2.19-1.144 8.136-1.144 10.748 0 2.573 4.927 5.571 6.175 8.69 2.413 6.034-5.488 14.693-8.919 18.981M190.675 274.992c2.136-.058 4.35.182 6.403-.229 4.36-.872 11.05-4.701 15.55-3.201 1.44.48 2.534 2.718 3.202 3.887 6.483 11.345-4.145 20.251-16.237 18.524-8.43-1.205-22.002-15.243-8.918-18.981M199.136 318.67c-.2 2.664.133 5.34 0 8.005-.231 4.62-2.884 10.726-.915 15.321 1.998 4.663 6.66 7.246 7.09 13.264.021.307-1.049 25.747 5.26 19.438 2.62-2.62 6.633-24.234 5.488-27.67-1.32-3.957-4.513-8.37-6.86-11.892-.967-1.45-8.481-25.956-10.063-16.465M319.881 162.022c-1.85 20.462-18.454 11.136-28.814 21.496-6.647 6.647 5.165 12.56 10.29 13.492 3.375.614 6.72-.417 10.063 0 4.708.589 8.232 7.181 14.179 4.803.433-.174 1.113-1.628 1.372-2.058 1.322-2.205 10.056-20.561 10.52-22.183 2.632-9.214-9.51-22.03-17.61-15.55M252.648 184.89c-2.26 14.368 13.386 11.198 18.981 21.268 7.964 14.335-10.31 7.781-17.151 10.062-2.76.92-6.692 6.973-10.291 4.574-8.612-5.742-1.59-11.731-.458-18.524 1.411-8.465-1.9-15.577 8.92-17.38M62.611 156.305c3.72 3.353 3.202 4.51 3.202 8.918 0 3.401 4.26 4.863 5.488 7.318.864 1.728-2.694 5.64-.914 7.775.612.736 6.098 3.965 4.345 5.718-8.39 8.39-32.241-21.041-18.067-28.129 1.706-.852 4.118-.504 5.946-1.6M108.348 197.24c-3.24-9.88 2.53-9.33 3.66-14.408.644-2.904.099-5.916 1.371-8.461 4.336-8.673 26.174 1.33 31.101 2.973 2.984.994 11.818 1.298 13.95 3.43.335.334.046 2.56 0 2.973-.54 4.86-9.136 3.245-2.058 8.69.895.688 3.838 2.188 4.345 3.201.89 1.782-1.596 3.646-2.058 5.031-1.485 4.455 5.522 15.196-4.803 13.721-9.07-1.295-14.217-10.608-22.868-13.492-6.943-2.314-17.87 1.11-22.64-3.659M187.244 190.379c7.716 1.073 14.618-12.834 21.04-3.202.966 1.45 2.064 3.633 1.6 5.488-1.13 4.522-5.436 8.277-3.43 13.493 2.857 7.43 17.756 15.83 5.03 23.783-14.824 9.266-18.772-10.614-23.554-18.98-1.416-2.48-5.575-2.51-7.089-5.032-3.863-6.438-3.73-21.63 6.403-15.55" style="fill:#c9d1d9;fill-opacity:1;stroke:#a2a5c0;stroke-width:4;stroke-linecap:round;stroke-linejoin:round;stroke-dasharray:none;stroke-opacity:1"/><path fill="#6d4a2c" stroke="#1b1917" stroke-linejoin="round" stroke-miterlimit="16" stroke-width="11.012" d="m215.227 200.319 36.873-24.823 66.861-14.685 97.525 16.844L317.7 203.31l-47.853 29.275-47.823 4.876-4.106 83.21 10.812 53.29 11.809 71.24-43.16-62.534-12.781-44.628-1.142-90.178-38.678 63.424-41.588 13.999-42.907 63.114.06-58.192 46.374-52.328 54.732-56.584-35.615-22.193L75.986 203 5.762 116.15l81.111 54.97 41.964-.772 43.096 10.894 43.475-42.51 9.552-55.244 81.167-70.046-44.49 77.871-4.848 48.34z" style="fill:none;stroke:#312114;stroke-width:9;stroke-miterlimit:16;stroke-dasharray:none;stroke-opacity:1"/></svg>