<svg xmlns="http://www.w3.org/2000/svg" xml:space="preserve" id="svg48" width="312.767" height="388.001" x="0" y="0" version="1.1"><style id="style1" type="text/css">.st0{opacity:.9;fill:#403228;enable-background:new}.st1{fill:#4d3f36;stroke:#29180d;stroke-width:8.9304;stroke-linejoin:round;stroke-miterlimit:16}</style><path id="path2" d="M239.156 165.244s-34.6-4.6-47.4-4.6l-32.8-14.6-17.3-102-75.6-40.1 48.3 47.4 2.7 37.3 11.8 90.1-31.9 16.4-46.3-11.7-48.3 30 41-7.3 35.5 15.5 60.1-5.5 43.7 5.5 25.5 24.6 28.2 51-15.5 32.8 34.6-31-7.3-50.1-48.3-56.5 32.8-9.1 39.2 12.7c-9.6-8.6-32.7-30.8-32.7-30.8z" class="st0" style="opacity:1;fill:#5b3e24;fill-opacity:1;stroke:#312114;stroke-width:8.93;stroke-dasharray:none;stroke-opacity:1"/><path id="path19" d="M80.485 192.188s-8.661 3.161-9.317 6.987c-.671 3.921 7.89 6.16 6.62 9.93-1.435 4.262-12.749 4.413-12.749 4.413l-23.537-6.742-35.06 6.865 42.66-30.647z" style="fill:#c9d1d9;fill-opacity:1;fill-rule:evenodd;stroke:#a2a5c0;stroke-width:4;stroke-linecap:round;stroke-linejoin:round;stroke-dasharray:none;stroke-opacity:1"/><path id="path15" d="M113.55 50.99s4.545 17.02 10.574 15.43c2.636-.696-1.271-6.26.694-8.148 1.835-1.764 5.153.248 7.628-.347 4.073-.98 11.442-5.201 11.442-5.201l-4.334-10.229L81.477 14.41z" style="fill:#c9d1d9;fill-opacity:1;fill-rule:evenodd;stroke:#a2a5c0;stroke-width:4;stroke-linecap:round;stroke-linejoin:round;stroke-dasharray:none;stroke-opacity:1"/><path id="path7" d="M220.111 267.089s6.802-3.176 10.42-3.065c2.52.077 4.617 2.946 7.11 2.574 2.425-.361 3.434-4.322 5.884-4.413 2.424-.09 6.13 3.923 6.13 3.923l6.13 30.647-28.686 27.704 8.703-29.666z" style="fill:#c9d1d9;fill-opacity:1;fill-rule:evenodd;stroke:#a2a5c0;stroke-width:4;stroke-linecap:round;stroke-linejoin:round;stroke-dasharray:none;stroke-opacity:1"/><path id="path3" d="M239.156 165.244s-34.6-4.6-47.4-4.6l-32.8-14.6-17.3-102-75.6-40.1 48.3 47.4 2.7 37.3 11.8 90.1-31.9 16.4-46.3-11.7-48.3 30 41-7.3 35.5 15.5 60.1-5.5 43.7 5.5 25.5 24.6 28.2 51-15.5 32.8 34.6-31-7.3-50.1-48.3-56.5 32.8-9.1 39.2 12.7c-9.6-8.6-32.7-30.8-32.7-30.8z" class="st0" style="opacity:1;fill:none;stroke:#312114;stroke-width:8.93;stroke-dasharray:none;stroke-opacity:1"/><path id="path4" d="m139.403 218.738-29.7 20-33 53.7-65.8 8.7 55.4-34.9 18.7-54.9 43.6-30.6-39.9-67.4-52.7-19.4-23.7-58.1 44.9 39 59.6 13 42.5 61.7c14.9-29.7 27.4-47.3 27.4-47.3l49.1-22.8 34.6-42.8-23.7 69.2-42.8 30-17.2 43.9 34.9 31.2 57.6 16.4 29.1 59.2-50.5-36.4-48.8-7.3-26.9-18.9 2.3 44.4-15.1 56 12.8 59.2-41-60 7.3-43.7z" class="st1" style="fill:#6d4a2c;fill-opacity:1;stroke:#312114;stroke-width:8.93;stroke-dasharray:none;stroke-opacity:1"/><path id="path9" d="M242.879 247.585s-8.413-6.199-7.282-10.228c.714-2.543 6.464-.61 7.282-3.121.77-2.365-3.75-3.928-3.814-6.414-.097-3.722 4.16-9.709 5.2-9.882s34.673 7.975 34.673 7.975l26.005 55.303-46.808-30.166z" style="fill:#c9d1d9;fill-opacity:1;fill-rule:evenodd;stroke:#a2a5c0;stroke-width:4;stroke-linecap:round;stroke-linejoin:round;stroke-dasharray:none;stroke-opacity:1"/><path id="path6" d="M147.355 288.672s7.457 2.461 9.362 5.548c3.042 4.93 1.865 11.58 1.213 17.336-.469 4.142-.31 9.455-3.64 11.962-3.001 2.26-13.108-.684-13.108-.684z" style="fill:#c9d1d9;fill-opacity:1;fill-rule:evenodd;stroke:#a2a5c0;stroke-width:4;stroke-linecap:round;stroke-linejoin:round;stroke-dasharray:none;stroke-opacity:1"/><path id="path10" d="M195.226 191.33s-1.37 9.336-.858 13.975c.452 4.1.76 8.749 3.433 11.89 2.167 2.548 5.86 3.355 9.071 4.291 3.44 1.004 7.5 3.03 10.665 1.349 3.196-1.697 4.903-9.685 4.903-9.685z" style="fill:#c9d1d9;fill-opacity:1;fill-rule:evenodd;stroke:#a2a5c0;stroke-width:4;stroke-linecap:round;stroke-linejoin:round;stroke-dasharray:none;stroke-opacity:1"/><path id="path13" d="M231.757 82.228s-1.525 6.64.368 8.948c1.866 2.277 7.314-.572 8.58 2.084 1.85 3.877-6.684 7.513-5.515 11.646.875 3.098 8.09 5.271 8.09 5.271l5.394-6.006 14.833-52.468z" style="fill:#c9d1d9;fill-opacity:1;fill-rule:evenodd;stroke:#a2a5c0;stroke-width:4;stroke-linecap:round;stroke-linejoin:round;stroke-dasharray:none;stroke-opacity:1"/><path id="path14" d="M187.258 171.593s-5.806-.902-7.6-2.942c-1.695-1.927-1.598-4.922-1.84-7.477-.219-2.323.035-4.68.369-6.988.654-4.532-.06-10.133 3.187-13.362 2.171-2.16 6.608-.108 8.949-2.084 3.387-2.858 3.434-11.998 5.148-12.259 5.983-.909 10.053 3.922 15.017 6.069l-6.803 3.738z" style="fill:#c9d1d9;fill-opacity:1;fill-rule:evenodd;stroke:#a2a5c0;stroke-width:4;stroke-linecap:round;stroke-linejoin:round;stroke-dasharray:none;stroke-opacity:1"/><path id="path17" d="M136 115.308c-4.843-3.87-12.15-7.62-17.857-5.2-3.308 1.402-4.974 5.942-5.027 9.534-.07 4.73 4.493 8.348 6.24 12.743 1.51 3.796 3 7.667 3.641 11.702.336 2.112-1.273 4.764.087 6.414 2.347 2.846 7.182 1.743 10.835 2.254 3.156.44 6.82 2.36 9.535.693 4.327-2.655 6.17-8.973 5.895-14.042-.498-9.17-6.176-18.365-13.35-24.098" style="fill:#c9d1d9;fill-opacity:1;fill-rule:evenodd;stroke:#a2a5c0;stroke-width:4;stroke-linecap:round;stroke-linejoin:round;stroke-dasharray:none;stroke-opacity:1"/><path id="path18" d="M115.054 87.867s-10.142 2.548-12.013 6.742c-2.593 5.812 8.33 13.818 4.168 18.633-4.636 5.363-21.208-1.594-21.208-1.594L35.986 94.731 12.694 39.322l44.01 33.466z" style="fill:#c9d1d9;fill-opacity:1;fill-rule:evenodd;stroke:#a2a5c0;stroke-width:4;stroke-linecap:round;stroke-linejoin:round;stroke-dasharray:none;stroke-opacity:1"/><path id="path21" d="M77.052 228.229s11.332-3.228 15.079.122c2.546 2.277-1.375 7.96 1.226 10.175 1.556 1.326 4.349-1.252 6.129-.245 2.515 1.422 4.168 7.6 4.168 7.6L77.42 292.096 18.58 298.84l48.299-33.344z" style="fill:#c9d1d9;fill-opacity:1;fill-rule:evenodd;stroke:#a2a5c0;stroke-width:4;stroke-linecap:round;stroke-linejoin:round;stroke-dasharray:none;stroke-opacity:1"/><path id="path5" d="M166.909 239.752c-3.388 1.215-7.254 3.432-8.336 6.865-1.837 5.824 2.676 11.966 4.903 17.652 1.107 2.825 1.723 6.296 4.168 8.09 3.477 2.553 13.443 2.467 13.443 2.467l3.72-35.074s-12.283-2.015-17.898 0" style="fill:#c9d1d9;fill-opacity:1;fill-rule:evenodd;stroke:#a2a5c0;stroke-width:4;stroke-linecap:round;stroke-linejoin:round;stroke-dasharray:none;stroke-opacity:1"/><path id="path1" d="m139.403 218.738-29.7 20-33 53.7-65.8 8.7 55.4-34.9 18.7-54.9 43.6-30.6-39.9-67.4-52.7-19.4-23.7-58.1 44.9 39 59.6 13 42.5 61.7c14.9-29.7 27.4-47.3 27.4-47.3l49.1-22.8 34.6-42.8-23.7 69.2-42.8 30-17.2 43.9 34.9 31.2 57.6 16.4 29.1 59.2-50.5-36.4-48.8-7.3-26.9-18.9 2.3 44.4-15.1 56 12.8 59.2-41-60 7.3-43.7z" class="st1" style="fill:none;stroke:#312114;stroke-width:8.93;stroke-dasharray:none;stroke-opacity:1"/><path id="path8" d="M168.257 279.715c-1.36-1.174-3.84-2.824-5.149-1.594-1.133 1.066.418 3.14 1.104 4.536.807 1.644 1.646 3.884 3.432 4.29 1.194.272 2.904-.438 3.31-1.593.69-1.966-1.12-4.277-2.697-5.639" style="fill:#c9d1d9;fill-opacity:1;fill-rule:evenodd;stroke:#a2a5c0;stroke-width:4;stroke-linecap:round;stroke-linejoin:round;stroke-dasharray:none;stroke-opacity:1"/><path id="path11" d="M205.375 170.33c5.76 1.089 15.814-.997 16.932 4.758.562 2.895-4.261 4.32-7.002 5.408-3.511 1.394-8.224 3.336-11.278 1.112-1.556-1.132-.539-3.842-1.226-5.639-.857-2.239-4.863-4.242-3.555-6.252 1.12-1.72 4.111.232 6.129.613" style="fill:#c9d1d9;fill-opacity:1;fill-rule:evenodd;stroke:#a2a5c0;stroke-width:4;stroke-linecap:round;stroke-linejoin:round;stroke-dasharray:none;stroke-opacity:1"/><path id="path12" d="M226.118 102.577c-1.249-4.74-11.264-5.44-14.588-1.839-2.038 2.209 3.513 6.33 1.84 8.826-1.992 2.97-10.056-1.58-10.543 1.962-.417 3.023 6.541 4.349 6.313 5.026-.47 1.392 8.668-.27 11.584-1.961 1.839-1.067 4.502-2.982 3.923-5.027-.51-1.803-5.006-.105-5.271-1.96-.397-2.776 7.456-2.316 6.742-5.027" style="fill:#c9d1d9;fill-opacity:1;fill-rule:evenodd;stroke:#a2a5c0;stroke-width:4;stroke-linecap:round;stroke-linejoin:round;stroke-dasharray:none;stroke-opacity:1"/><path id="path16" d="M133.81 73.279c-4.249 1-7.77 5.944-8.09 10.297-.339 4.6 2.716 9.998 6.864 12.014 2.007.974 5.283.804 6.62-.981 1.78-2.378-1.092-5.86-1.226-8.826-.155-3.433 2.258-7.351.49-10.298-.883-1.473-2.985-2.6-4.658-2.206" style="fill:#c9d1d9;fill-opacity:1;fill-rule:evenodd;stroke:#a2a5c0;stroke-width:4;stroke-linecap:round;stroke-linejoin:round;stroke-dasharray:none;stroke-opacity:1"/><path id="path20" d="M125.23 202.485c-6.949 1.007-16.299-1.139-20.595 4.413-2.353 3.04-1.94 8.544.49 11.524 2.981 3.655 9.431 5.376 13.73 3.432 2.597-1.175 1.849-5.644 3.922-7.6 5.855-5.524 19.848-2.509 22.066-9.807 1.38-4.543-6.598-2.376-10.052-2.697-3.183-.296-6.398.277-9.562.735" style="fill:#c9d1d9;fill-opacity:1;fill-rule:evenodd;stroke:#a2a5c0;stroke-width:4;stroke-linecap:round;stroke-linejoin:round;stroke-dasharray:none;stroke-opacity:1"/></svg>