<?xml version="1.0" encoding="UTF-8" standalone="no"?>
<!-- Created with Inkscape (http://www.inkscape.org/) -->

<svg
   version="1.1"
   id="svg1"
   width="360.07965"
   height="334.57953"
   viewBox="0 0 360.07965 334.57954"
   sodipodi:docname="birch_tree_2.svg"
   inkscape:version="1.3 (0e150ed, 2023-07-21)"
   xmlns:inkscape="http://www.inkscape.org/namespaces/inkscape"
   xmlns:sodipodi="http://sodipodi.sourceforge.net/DTD/sodipodi-0.dtd"
   xmlns="http://www.w3.org/2000/svg"
   xmlns:svg="http://www.w3.org/2000/svg">
  <defs
     id="defs1">
    <inkscape:path-effect
       effect="spiro"
       id="path-effect1543"
       is_visible="true"
       lpeversion="1" />
    <inkscape:path-effect
       effect="spiro"
       id="path-effect70407"
       is_visible="true"
       lpeversion="1" />
    <inkscape:path-effect
       effect="spiro"
       id="path-effect59349"
       is_visible="true"
       lpeversion="1" />
    <inkscape:path-effect
       effect="spiro"
       id="path-effect11579"
       is_visible="true"
       lpeversion="1" />
    <inkscape:path-effect
       effect="spiro"
       id="path-effect10206"
       is_visible="true"
       lpeversion="1" />
    <inkscape:path-effect
       effect="spiro"
       id="path-effect6899"
       is_visible="true"
       lpeversion="1" />
    <inkscape:path-effect
       effect="spiro"
       id="path-effect3504"
       is_visible="true"
       lpeversion="1" />
    <inkscape:path-effect
       effect="spiro"
       id="path-effect3349"
       is_visible="true"
       lpeversion="1" />
    <inkscape:path-effect
       effect="spiro"
       id="path-effect19494"
       is_visible="true"
       lpeversion="1" />
    <clipPath
       clipPathUnits="userSpaceOnUse"
       id="clipPath335">
      <path
         d="M 0,1024.578 H 1011.378 V 0 H 0 Z"
         transform="translate(-876.54145,-651.52512)"
         id="path335" />
    </clipPath>
    <clipPath
       clipPathUnits="userSpaceOnUse"
       id="clipPath337">
      <path
         d="M 0,1024.578 H 1011.378 V 0 H 0 Z"
         transform="translate(-747.72332,-732.61212)"
         id="path337" />
    </clipPath>
    <clipPath
       clipPathUnits="userSpaceOnUse"
       id="clipPath341">
      <path
         d="M 0,1024.578 H 1011.378 V 0 H 0 Z"
         transform="translate(-795.21204,-642.93862)"
         id="path341" />
    </clipPath>
    <clipPath
       clipPathUnits="userSpaceOnUse"
       id="clipPath345">
      <path
         d="M 0,1024.578 H 1011.378 V 0 H 0 Z"
         transform="translate(-830.13272,-660.04432)"
         id="path345" />
    </clipPath>
    <clipPath
       clipPathUnits="userSpaceOnUse"
       id="clipPath347">
      <path
         d="M 0,1024.578 H 1011.378 V 0 H 0 Z"
         transform="translate(-814.5658,-697.56792)"
         id="path347" />
    </clipPath>
    <clipPath
       clipPathUnits="userSpaceOnUse"
       id="clipPath351">
      <path
         d="M 0,1024.578 H 1011.378 V 0 H 0 Z"
         transform="translate(-742.49462,-667.18482)"
         id="path351" />
    </clipPath>
    <clipPath
       clipPathUnits="userSpaceOnUse"
       id="clipPath353">
      <path
         d="M 0,1024.578 H 1011.378 V 0 H 0 Z"
         transform="translate(-775.31042,-678.43912)"
         id="path353" />
    </clipPath>
    <clipPath
       clipPathUnits="userSpaceOnUse"
       id="clipPath355">
      <path
         d="M 0,1024.578 H 1011.378 V 0 H 0 Z"
         transform="translate(-818.15222,-743.45352)"
         id="path355" />
    </clipPath>
    <clipPath
       clipPathUnits="userSpaceOnUse"
       id="clipPath363">
      <path
         d="M 0,1024.578 H 1011.378 V 0 H 0 Z"
         transform="translate(-745.46452,-684.07242)"
         id="path363" />
    </clipPath>
    <clipPath
       clipPathUnits="userSpaceOnUse"
       id="clipPath532">
      <path
         d="M 0,1024.578 H 1011.378 V 0 H 0 Z"
         transform="translate(-592.17131,-583.51621)"
         id="path532" />
    </clipPath>
    <clipPath
       clipPathUnits="userSpaceOnUse"
       id="clipPath538">
      <path
         d="M 0,1024.578 H 1011.378 V 0 H 0 Z"
         transform="translate(-518.11001,-548.24371)"
         id="path538" />
    </clipPath>
    <clipPath
       clipPathUnits="userSpaceOnUse"
       id="clipPath564">
      <path
         d="M 0,1024.578 H 1011.378 V 0 H 0 Z"
         transform="translate(-518.11001,-548.24371)"
         id="path564" />
    </clipPath>
    <clipPath
       clipPathUnits="userSpaceOnUse"
       id="clipPath569">
      <path
         d="m 558.235,647.416 h 42.347 v -42.348 h -42.347 z"
         transform="translate(-592.14671,-609.33042)"
         id="path569" />
    </clipPath>
    <clipPath
       clipPathUnits="userSpaceOnUse"
       id="clipPath570">
      <path
         d="m 558.235,647.416 h 42.347 v -42.348 h -42.347 z"
         transform="matrix(1.3333333,0,0,-1.3333333,0,1366.1067)"
         id="path570" />
    </clipPath>
    <clipPath
       clipPathUnits="userSpaceOnUse"
       id="clipPath572">
      <path
         d="M 0,1024.578 H 1011.378 V 0 H 0 Z"
         transform="matrix(1.3333333,0,0,-1.3333333,0,1366.1067)"
         id="path572" />
    </clipPath>
    <clipPath
       clipPathUnits="userSpaceOnUse"
       id="clipPath573">
      <path
         d="m 558.512,708.416 h 94.533 v -94.533 h -94.533 z"
         transform="translate(-634.21492,-623.39682)"
         id="path573" />
    </clipPath>
    <clipPath
       clipPathUnits="userSpaceOnUse"
       id="clipPath574">
      <path
         d="m 558.512,708.416 h 94.533 v -94.533 h -94.533 z"
         transform="matrix(1.3333333,0,0,-1.3333333,0,1366.1067)"
         id="path574" />
    </clipPath>
    <clipPath
       clipPathUnits="userSpaceOnUse"
       id="clipPath576">
      <path
         d="M 0,1024.578 H 1011.378 V 0 H 0 Z"
         transform="matrix(1.3333333,0,0,-1.3333333,0,1366.1067)"
         id="path576" />
    </clipPath>
    <clipPath
       clipPathUnits="userSpaceOnUse"
       id="clipPath585">
      <path
         d="m 534.689,628.492 h 78.267 v -78.267 h -78.267 z"
         transform="translate(-597.36652,-558.10251)"
         id="path585" />
    </clipPath>
    <clipPath
       clipPathUnits="userSpaceOnUse"
       id="clipPath586">
      <path
         d="m 534.689,628.492 h 78.267 v -78.267 h -78.267 z"
         transform="matrix(1.3333333,0,0,-1.3333333,0,1366.1067)"
         id="path586" />
    </clipPath>
    <clipPath
       clipPathUnits="userSpaceOnUse"
       id="clipPath588">
      <path
         d="M 0,1024.578 H 1011.378 V 0 H 0 Z"
         transform="matrix(1.3333333,0,0,-1.3333333,0,1366.1067)"
         id="path588" />
    </clipPath>
    <clipPath
       clipPathUnits="userSpaceOnUse"
       id="clipPath379-3-7-1-5">
      <path
         d="M 602.102,690.741 H 773.674 V 519.169 H 602.102 Z"
         transform="matrix(1.3333333,0,0,-1.3333333,0,1366.1067)"
         id="path379-2-4-7-6" />
    </clipPath>
    <clipPath
       clipPathUnits="userSpaceOnUse"
       id="clipPath378-1-9-5-5">
      <path
         d="M 602.102,690.741 H 773.674 V 519.169 H 602.102 Z"
         transform="translate(-773.67384,-604.95502)"
         id="path378-1-4-5-3" />
    </clipPath>
    <clipPath
       clipPathUnits="userSpaceOnUse"
       id="clipPath367-7-0-9-9">
      <path
         d="m 732.893,680.688 h 225.69 V 454.999 h -225.69 z"
         transform="matrix(1.3333333,0,0,-1.3333333,0,1366.1067)"
         id="path367-9-6-5-3" />
    </clipPath>
    <clipPath
       clipPathUnits="userSpaceOnUse"
       id="clipPath366-6-3-4-7">
      <path
         d="m 732.893,680.688 h 225.69 V 454.999 h -225.69 z"
         transform="translate(-958.58282,-567.84331)"
         id="path366-0-4-9-5" />
    </clipPath>
    <clipPath
       clipPathUnits="userSpaceOnUse"
       id="clipPath371-9-7-8-0">
      <path
         d="M 747.249,881.722 H 934.528 V 694.443 H 747.249 Z"
         transform="matrix(1.3333333,0,0,-1.3333333,0,1366.1067)"
         id="path371-6-4-8-4" />
    </clipPath>
    <clipPath
       clipPathUnits="userSpaceOnUse"
       id="clipPath370-7-3-3-8">
      <path
         d="M 747.249,881.722 H 934.528 V 694.443 H 747.249 Z"
         transform="translate(-934.528,-788.08252)"
         id="path370-0-48-8-5" />
    </clipPath>
    <inkscape:path-effect
       effect="spiro"
       id="path-effect19494-3-2-9-3"
       is_visible="true"
       lpeversion="1" />
    <clipPath
       clipPathUnits="userSpaceOnUse"
       id="clipPath367-7-0-9-4">
      <path
         d="m 732.893,680.688 h 225.69 V 454.999 h -225.69 z"
         transform="matrix(1.3333333,0,0,-1.3333333,0,1366.1067)"
         id="path367-9-6-5-8" />
    </clipPath>
    <clipPath
       clipPathUnits="userSpaceOnUse"
       id="clipPath366-6-3-4-75">
      <path
         d="m 732.893,680.688 h 225.69 V 454.999 h -225.69 z"
         transform="translate(-958.58282,-567.84331)"
         id="path366-0-4-9-9" />
    </clipPath>
    <clipPath
       clipPathUnits="userSpaceOnUse"
       id="clipPath383-3-1-4-5">
      <path
         d="M 838.879,760.009 H 993.933 V 604.955 H 838.879 Z"
         transform="matrix(1.3333333,0,0,-1.3333333,0,1366.1067)"
         id="path383-1-7-3-3" />
    </clipPath>
    <clipPath
       clipPathUnits="userSpaceOnUse"
       id="clipPath382-5-3-6-2">
      <path
         d="M 838.879,760.009 H 993.933 V 604.955 H 838.879 Z"
         transform="translate(-993.93265,-682.48212)"
         id="path382-6-9-5-7" />
    </clipPath>
  </defs>
  <sodipodi:namedview
     id="namedview1"
     pagecolor="#505050"
     bordercolor="#999999"
     borderopacity="1"
     inkscape:showpageshadow="0"
     inkscape:pageopacity="0"
     inkscape:pagecheckerboard="true"
     inkscape:deskcolor="#d1d1d1"
     showgrid="false"
     inkscape:pageshadow="0"
     inkscape:zoom="1.1359677"
     inkscape:cx="173.86058"
     inkscape:cy="145.69077"
     inkscape:window-width="1440"
     inkscape:window-height="900"
     inkscape:window-x="0"
     inkscape:window-y="0"
     inkscape:window-maximized="0"
     inkscape:current-layer="layer-MC2" />
  <g
     id="layer-MC0"
     inkscape:groupmode="layer"
     inkscape:label="Layer 4"
     transform="translate(-1312.2842,-318.69832)" />
  <g
     id="layer-MC2"
     inkscape:groupmode="layer"
     inkscape:label="Layer 2"
     transform="translate(-1312.2842,-318.69832)">
    <path
       style="color:#000000;fill:#999999;stroke:#252525;stroke-width:9;stroke-linejoin:round;stroke-dasharray:none;stroke-opacity:1"
       d="m 1485.019,504.74862 16.4282,-15.5981 23.7873,-65.84355 103.7336,9.23917 -109.6037,-38.78176 -53.9735,70.26431 -67.9033,47.50466 -80.6992,-30.78164 14.5989,32.41064 55.1908,30.14777 52.649,-28.77006 z"
       id="path51"
       sodipodi:nodetypes="cccccccccccc" />
    <path
       id="path340-0-6-6"
       d="m 1507.1842,425.88614 2.0879,2.13442 c 3.2848,3.35682 9.5796,1.93316 13.4621,-3.32324 0.043,-0.0612 0.086,-0.12243 0.1291,-0.18365 2.4955,-3.44318 4.1255,-10.55611 5.071,-16.07231 0.7621,-4.44957 -1.1177,-8.02323 -4.6299,-8.87235 -3.1129,-0.75148 -6.9353,0.79212 -9.8398,3.97699 l -2.9875,3.27307 c -1.534,1.68237 -2.7032,3.70729 -3.3532,5.80611 l -1.3246,4.28111 c -1.1064,3.57585 -0.5844,6.96926 1.3811,8.97739"
       style="fill:#4d4d4d;fill-opacity:1;fill-rule:nonzero;stroke:none;stroke-width:1.26426"
       clip-path="none" />
    <path
       id="path344-2-1-4"
       d="m 1397.8202,514.44054 2.1282,10.06292 c 0.7305,3.45577 7.0601,5.02261 11.4024,2.82106 4.6125,-2.81335 15.0897,-6.19754 21.0113,-7.98983 2.6049,-0.78846 4.2532,-2.46917 4.2056,-4.29136 l -0.2117,-8.05812 c -0.037,-1.38991 -1.0655,-2.67706 -2.7945,-3.49363 l -1.3801,-0.65384 c -1.2691,-0.60124 -2.8127,-0.97065 -4.4102,-0.92758 -1.0595,0.0277 -2.977,-0.11216 -6.3496,-0.5959 l -5.7047,-0.81797 c -2.6927,-0.38646 -5.5284,0.26717 -7.2679,1.67326 l -6.499,5.25668 c -0.3445,0.27956 -0.6396,0.58107 -0.8749,0.90263 l -2.6193,3.52825 c -0.61,0.80146 -0.8216,1.70726 -0.6355,2.58327"
       style="fill:#4d4d4d;fill-opacity:1;fill-rule:nonzero;stroke:none;stroke-width:1.49771"
       clip-path="none" />
    <path
       id="path352-8-6-3"
       d="m 1349.0277,518.51348 2.0486,5.30294 c 0.3517,0.91001 0.8954,1.60525 1.5175,1.93829 l 6.9092,3.70652 c 0.367,0.19702 0.7472,0.26012 1.1109,0.18633 l 5.3089,-1.08592 v 0 c 1.0982,-0.22454 1.8668,-1.65152 1.8594,-3.45072 l -3.645,-18.73894 c -0.01,-2.1515 -1.6165,-11.62471 -2.9682,-11.85294 -4.455,-0.75293 -8.7636,6.59219 -10.449,6.99225 -0.2009,0.0491 -0.3878,0.1376 -0.572,0.26816 l -0.769,0.55491 c -0.8158,0.58836 -1.2928,1.91695 -1.2274,3.41995 l 0.4754,10.80769 c 0.03,0.67596 0.1678,1.3476 0.4013,1.95194"
       style="fill:#4d4d4d;fill-opacity:1;fill-rule:nonzero;stroke:none;stroke-width:1.29213"
       clip-path="none"
       sodipodi:nodetypes="ccccccsccccccccc" />
    <path
       style="fill:#c9d1d9;fill-opacity:1;stroke:#a2a5c0;stroke-width:4;stroke-linecap:round;stroke-linejoin:round;stroke-dasharray:none;stroke-opacity:1"
       d="m 1524.1216,427.88762 c -5.2006,-5.93867 -14.9285,-15.21531 -11.7265,-23.52413 6.7966,-17.63681 24.063,-2.09754 35.1427,2.17219 3.0353,1.16972 19.4505,0.9299 20.3132,5.8788 0.8111,4.65273 -8.7489,3.28676 -10.0686,3.99807 -2.4069,1.29725 -3.4005,6.11894 -6.0828,7.56458 -9.0744,4.891 -22.7443,-9.99692 -27.578,3.91049 z"
       id="path8" />
    <path
       style="fill:#c9d1d9;fill-opacity:1;stroke:#a2a5c0;stroke-width:4;stroke-linecap:round;stroke-linejoin:round;stroke-dasharray:none;stroke-opacity:1"
       d="m 1386.16,506.21473 c -7.2672,7.98264 3.0661,14.88387 1.3343,23.09296 -4.6432,22.00915 -16.6556,3.5207 -28.7165,-2.61964 -0.7321,-0.37275 -11.3021,-3.78003 -11.1511,-4.7846 0.9923,-6.60386 -2.3083,-24.15549 4.1533,-27.63811 6.6297,-3.57337 21.6015,10.7002 27.5185,12.47271 2.2494,0.67384 4.666,-0.72955 6.8615,-0.52332 z"
       id="path9"
       sodipodi:nodetypes="csssssc" />
    <path
       style="color:#000000;fill:none;stroke:#252525;stroke-width:9;stroke-linejoin:round;stroke-dasharray:none;stroke-opacity:1"
       d="m 1485.019,504.74862 16.4282,-15.5981 23.7873,-65.84355 103.7336,9.23917 -109.6037,-38.78176 -53.9735,70.26431 -67.9033,47.50466 -80.6992,-30.78164 14.5989,32.41064 55.1908,30.14777 52.649,-28.77006 z"
       id="path51-6"
       sodipodi:nodetypes="cccccccccccc" />
    <path
       style="color:#000000;fill:#cccccc;fill-opacity:1;stroke-width:3.77953;stroke-linecap:square;stroke-linejoin:round;-inkscape-stroke:none"
       d="m 1352.9445,329.71449 58.4936,-6.51589 30.5447,18.96865 31.83,47.45499 13.2281,63.21249 102.2934,31.3579 42.499,47.35369 36.0361,70.07133 -48.7483,-47.74559 -42.9891,-45.1907 -91.2538,-26.02322 -3.3944,56.54024 55.1905,46.32721 -28.2497,49.09436 -60.1055,14.15887 39.7203,-29.74551 8.4682,-31.65886 -44.0606,-24.71032 -3.9467,-81.76192 -11.59,-83.37465 -27.1366,-41.64756 z"
       id="path53" />
    <path
       id="path362-4-4-8"
       d="m 1434.7526,354.01714 2.7193,5.82686 c 0.1087,0.23307 0.2393,0.45472 0.3876,0.66434 l 0.5556,0.77319 c 1.8963,2.64662 2.2158,6.10799 0.852,9.22981 l -0.1331,0.30748 c -0.2539,0.58449 -0.6276,1.1227 -1.1065,1.57369 l -6.1395,5.9813 c -1.6555,1.61417 -4.2029,1.96524 -6.0874,0.84161 l -0.878,-0.52358 c -0.6859,-0.40828 -1.2357,-0.98664 -1.5969,-1.6787 l -7.2883,-13.95938 c -1.1864,-2.27193 -0.077,-5.15495 2.4402,-6.34496 l 7.098,0.1224 c 2.4478,-1.15661 8.1164,-5.07632 9.17,-2.81876"
       style="fill:#4d4d4d;fill-opacity:1;fill-rule:nonzero;stroke:none;stroke-width:1.49771"
       clip-path="none" />
    <path
       id="path354-0-1-4"
       d="m 1475.5528,459.43194 3.3295,-3.89765 c 0.045,-0.0646 0.091,-0.12862 0.1674,-0.17199 l 5.1498,-5.12172 c 0.5743,-0.57348 0.885,-1.35083 0.8811,-2.21509 l -0.022,-5.13617 c -0.01,-1.54304 -1.0119,-3.13775 -2.5677,-4.07456 l -16.5097,-9.95433 c -0.5634,-0.34021 -1.1731,-0.57759 -1.791,-0.69763 l -3.1958,-0.62106 c -1.7902,-0.34902 -3.3917,0.33394 -4.0336,1.71802 l -1.9238,4.14556 c -0.1919,0.41724 -0.2903,0.87949 -0.2887,1.36753 l 0.025,5.52316 c 0.01,1.42727 0.8657,2.90868 2.247,3.86967 l 2.0325,1.41527 4.8916,3.66848 c 0.8295,0.62012 1.4639,1.44088 1.8039,2.33004 l 2.1265,5.54967 c 1.0447,2.72964 4.5257,4.26102 6.8231,3.00105 v 0 c 0.3313,-0.182 0.6209,-0.41653 0.8579,-0.69428"
       style="fill:#4d4d4d;fill-opacity:1;fill-rule:nonzero;stroke:none;stroke-width:1.49771"
       clip-path="none" />
    <path
       id="path334-3-2-6"
       d="m 1526.208,493.5834 4.5618,0.008 c 1.1436,-3e-5 2.28,0.31101 3.2889,0.89667 l 5.2859,3.08081 c 1.0072,0.58804 2.1454,0.89676 3.2897,0.90069 l 4.5384,0.005 c 1.8786,10e-4 3.614,-0.83003 4.7145,-2.26586 l 9.128,-11.90464 c 2.4094,-3.1443 0.9652,-7.84348 -2.9026,-9.43932 l -3.0181,-1.24574 c -1.1147,-0.46085 -2.3277,-0.60575 -3.4904,-0.41292 l -11.3068,1.85059 c -0.4485,0.0728 -0.8844,0.19603 -1.297,0.36296 l -15.77,6.40647 c -1.1274,0.45818 -2.0703,1.24532 -2.7057,2.26252 -2.5365,4.048 0.7194,9.48834 5.6834,9.49413"
       style="fill:#4d4d4d;fill-opacity:1;fill-rule:nonzero;stroke:none;stroke-width:1.49771"
       clip-path="none" />
    <path
       id="path336-0-7-3"
       d="m 1597.5303,517.92019 0.6982,1.29519 c 0.2087,0.38976 0.474,0.7366 0.7869,1.03154 l 0.9132,0.86386 c 1.753,1.65711 4.7031,1.43895 6.7358,-0.62425 0.7339,-0.74795 1.3823,-1.16044 1.6411,-0.68191 0.7474,1.39125 3.7848,-2.53069 3.7848,-2.53069 l 0.4953,-7.85771 c 0.07,-1.10267 -0.1815,-2.13975 -0.7197,-2.96977 l -0.6383,-0.98586 c -0.209,-0.3206 -0.4582,-0.60814 -0.7424,-0.85321 l -5.1291,-4.43459 c -0.6876,-0.59581 -1.5629,-0.93069 -2.5185,-0.96652 l -0.3101,-0.0124 c -3.0242,-0.10887 -5.9255,2.73574 -6.1321,6.01342 -0.013,0.22883 -0.015,0.45463 -9e-4,0.6781 l 0.5865,10.03725 c 0.043,0.72511 0.2294,1.40382 0.5485,1.99688"
       style="fill:#4d4d4d;fill-opacity:1;fill-rule:nonzero;stroke:none;stroke-width:1.49771"
       clip-path="none" />
    <path
       style="fill:#4d4d4d;fill-opacity:1;stroke:none;stroke-width:1.12328px;stroke-linecap:round;stroke-linejoin:round;stroke-opacity:1"
       d="m 1478.4093,492.5005 c 15.227,30.64859 -56.0693,25.90951 -22.4392,0.0586 7.9222,-3.06206 15.6048,-2.04629 22.4392,-0.0586 z"
       id="path17492-2-8-6" />
    <path
       id="path346-4-7-0"
       d="m 1451.5008,563.55062 v 0 c 1.2801,1.70542 3.2617,3.01837 5.2413,3.47541 l 9.8627,2.279 c 1.2457,0.28715 2.4016,0.21496 3.2948,-0.20444 l 13.755,-6.46816 c 0.985,-0.4626 1.591,-1.32048 1.7019,-2.42056 l 0.3239,-3.06356 c 0.1738,-1.64097 -0.7658,-3.61185 -2.4648,-5.17103 l -8.4088,-7.71588 c -1.3325,-1.22289 -3.0415,-1.97538 -4.5537,-2.00624 -1.2023,-0.0229 -2.1633,0.40744 -2.6786,1.20678 -1.0334,1.60716 -2.9266,4.60267 -4.9029,7.9589 -1.6714,2.83719 -6.3779,4.57963 -10.138,5.55712 -2.709,0.70323 -3.1875,3.70743 -1.0378,6.56936"
       style="fill:#4d4d4d;fill-opacity:1;fill-rule:nonzero;stroke:none;stroke-width:1.4977"
       clip-path="none" />
    <path
       style="fill:#4d4d4d;fill-opacity:1;stroke:none;stroke-width:1px;stroke-linecap:butt;stroke-linejoin:miter;stroke-opacity:1"
       d="m 1161.7657,528.47225 c 0.8051,-2.40999 2.7529,-4.36734 5.0842,-5.37798 2.3313,-1.01063 5.0077,-1.11069 7.47,-0.48336 2.4623,0.62733 4.7153,1.95355 6.6135,3.64271 1.8981,1.68916 3.4548,3.73457 4.7756,5.9052 2.3446,3.85307 3.9981,8.29009 3.717,12.79168 -0.1405,2.2508 -0.7738,4.48473 -1.9499,6.40893 -1.1762,1.9242 -2.9066,3.52699 -4.9706,4.43562 -1.6399,0.72192 -3.4736,0.99775 -5.2533,0.79022 -4.0192,-4.65059 -7.8164,-9.49311 -11.3742,-14.50553 -1.426,-2.00902 -2.8267,-4.07004 -3.702,-6.37297 -0.8753,-2.30293 -1.191,-4.89781 -0.4103,-7.23452 z"
       id="path19492-7-8-6"
       sodipodi:nodetypes="sssccs"
       transform="matrix(0.91888417,0.64607106,-0.64607106,0.91888417,772.16119,-656.8084)"
       inkscape:original-d="m 1161.7657,528.47225 c -1.3709,-4.53743 15.9622,2.45921 23.9433,3.68657 7.9812,1.22728 -1.5497,20.27868 -3.2035,23.63623 -1.6537,3.35754 -4.0881,-3.99129 -5.2533,0.79022 -7.1407,-10.86067 -0.2481,-18.53314 -11.3742,-14.50553 -2.8484,0.96965 -2.7415,-9.07014 -4.1123,-13.60749 z"
       inkscape:path-effect="#path-effect19494-3-2-9-3" />
    <path
       id="path350-9-8-0"
       d="m 1623.1091,556.1932 6.4293,8.76776 c 1.7361,2.36713 4.8306,3.15663 7.8337,1.99689 l 1.8044,-0.69557 c 4.1807,-1.61425 6.7871,-6.40095 5.7511,-10.56624 l -1.9113,-7.6963 c -0.6041,-2.42849 -2.3601,-4.19694 -4.6973,-4.73077 l -5.6006,-1.27681 c -2.4213,-0.55099 -5.1362,0.30006 -7.2008,2.25806 l -0.8149,0.77121 c -3.2821,3.11329 -3.9889,8.07186 -1.595,11.17074"
       style="fill:#4d4d4d;fill-opacity:1;fill-rule:nonzero;stroke:none;stroke-width:1.49771"
       clip-path="none" />
    <path
       style="fill:#c9d1d9;fill-opacity:1;stroke:#a2a5c0;stroke-width:4;stroke-linecap:round;stroke-linejoin:round;stroke-dasharray:none;stroke-opacity:1"
       d="m 1594.6919,529.07308 c 3.2719,-4.0669 11.3541,-16.80554 17.6451,-15.86016 11.2152,1.68538 36.4407,47.70028 39.9442,56.73336 2.3992,6.18609 10.1991,22.44788 4.2857,19.43843 -20.289,-10.32558 -41.5812,-49.58684 -61.875,-60.31163 z"
       id="path11"
       sodipodi:nodetypes="csssc" />
    <path
       style="fill:#c9d1d9;fill-opacity:1;stroke:#a2a5c0;stroke-width:4;stroke-linecap:round;stroke-linejoin:round;stroke-dasharray:none;stroke-opacity:1"
       d="m 1449.3402,353.13635 -7.3574,-10.9691 -30.5447,-18.96865 -58.4936,6.51589 56.8292,26.16551 16.0269,23.33542 c 19.6085,11.80684 10.0152,-16.81936 23.5396,-26.07907 z"
       id="path1" />
    <path
       style="fill:#c9d1d9;fill-opacity:1;stroke:#a2a5c0;stroke-width:4;stroke-linecap:round;stroke-linejoin:round;stroke-dasharray:none;stroke-opacity:1"
       d="m 1472.148,394.78259 c -5.6566,2.68823 -11.1856,5.55249 -16.6826,8.51529 -6.5043,3.50574 -12.923,-7.13377 -16.5988,5.13644 -1.8148,6.05839 11.4657,29.40102 17.9373,28.27288 4.055,-0.70693 6.8405,-8.3731 8.399,-13.57557 1.0844,-3.61987 9.2448,-26.73208 6.9451,-28.34904 z"
       id="path2"
       sodipodi:nodetypes="cssssc" />
    <path
       style="fill:#c9d1d9;fill-opacity:1;stroke:#a2a5c0;stroke-width:4;stroke-linecap:round;stroke-linejoin:round;stroke-dasharray:none;stroke-opacity:1"
       d="m 1449.2237,462.69984 c 6.6222,6.13365 18.9146,-3.12897 23.8519,3.01909 37.9852,47.30059 -24.521,14.75592 -25.5132,8.03618 -0.5979,-4.04935 2.742,-7.04524 1.6613,-11.05527 z"
       id="path4"
       sodipodi:nodetypes="cssc" />
    <path
       style="fill:#c9d1d9;fill-opacity:1;stroke:#a2a5c0;stroke-width:4;stroke-linecap:round;stroke-linejoin:round;stroke-dasharray:none;stroke-opacity:1"
       d="m 1491.0814,547.13515 c 8.6758,3.22856 11.3582,11.75829 16.9864,17.67292 6.8941,7.24484 14.7745,11.15196 21.8791,16.14721 0,0 -10.2935,7.48112 -10.9473,7.96409 -1.9811,1.46342 -10.779,2.10335 -13.6752,2.60822 -3.5881,0.62555 -4.1758,5.73148 -8.535,5.07645 -0.7385,-0.11099 0.3517,-9.00324 -0.6951,-10.42022 -2.5351,-3.43173 -23.8744,-12.15484 -24.5669,-16.12714 -1.5475,-8.87675 11.8379,-22.2879 19.554,-22.92153 z"
       id="path5" />
    <path
       style="fill:#c9d1d9;fill-opacity:1;stroke:#a2a5c0;stroke-width:4;stroke-linecap:round;stroke-linejoin:round;stroke-dasharray:none;stroke-opacity:1"
       d="m 1532.2502,495.10152 c 17.3456,-24.30142 16.7074,-20.6756 40.067,-14.61041 4.2539,1.10451 10.0831,3.45775 14.3023,3.56239 0.3272,0.008 2.0981,0.32925 2.0729,0.31153 -1.4559,-1.02368 -17.8857,18.04147 -20.0573,18.74785 -9.073,2.95133 -28.3565,-6.31765 -36.3849,-8.01136 z"
       id="path10" />
    <path
       style="color:#000000;fill:#252525;fill-opacity:1;stroke-width:3.78;stroke-linecap:square;stroke-linejoin:round;stroke-dasharray:none"
       d="m 1444.3608,338.3435 -30.5462,-18.96848 a 4.4999777,4.4999777 0 0 0 -2.8736,-0.6488 l -58.4929,6.51963 a 4.4999777,4.4999777 0 0 0 -1.3859,8.55481 l 55.6497,25.61871 25.8823,39.71999 11.4226,82.1807 3.9343,81.56292 a 4.4999777,4.4999777 0 0 0 2.2938,3.70633 l 41.0142,22.99877 -7.1627,26.78221 -38.4737,28.80692 a 4.4999777,4.4999777 0 0 0 3.728,7.98142 l 60.1077,-14.1555 a 4.4999777,4.4999777 0 0 0 2.8649,-2.13671 l 28.2497,-49.09821 a 4.4999777,4.4999777 0 0 0 -1.0078,-5.68978 l -53.4581,-44.86886 2.9306,-48.68993 84.6794,24.15569 42.1463,44.29709 a 4.4999777,4.4999777 0 0 0 0.1093,0.1138 l 48.7457,47.74595 a 4.4999777,4.4999777 0 0 0 7.1513,-5.26819 l -36.0328,-70.07531 a 4.4999777,4.4999777 0 0 0 -0.6526,-0.94608 l -42.5046,-47.35546 a 4.4999777,4.4999777 0 0 0 -2.0282,-1.2999 l -99.7489,-30.57301 -12.687,-60.61825 a 4.4999777,4.4999777 0 0 0 -0.6671,-1.57901 l -31.8302,-47.45732 a 4.4999777,4.4999777 0 0 0 -1.3582,-1.31576 z m -5.5756,7.13411 30.8056,45.92475 13.0471,62.35139 a 4.4999777,4.4999777 0 0 0 3.0801,3.38384 l 101.0988,30.98976 41.2813,45.98998 23.06,44.83736 -28.8354,-28.24231 -42.933,-45.12998 a 4.4999777,4.4999777 0 0 0 -2.0259,-1.22571 l -91.252,-26.02461 a 4.4999777,4.4999777 0 0 0 -5.7245,4.06049 l -3.3954,56.53872 a 4.4999777,4.4999777 0 0 0 1.6015,3.71587 l 52.2981,43.8999 -25.3946,44.13919 -37.2188,8.77192 22.458,-16.82216 a 4.4999777,4.4999777 0 0 0 1.6507,-2.43989 l 8.4635,-31.66093 a 4.4999777,4.4999777 0 0 0 -2.143,-5.08924 l -41.8886,-23.48723 -3.8271,-79.27673 a 4.4999777,4.4999777 0 0 0 -0.032,-0.4014 l -11.5938,-83.37497 a 4.4999777,4.4999777 0 0 0 -0.6855,-1.83556 l -27.1352,-41.64758 a 4.4999777,4.4999777 0 0 0 -1.8886,-1.62589 l -42.1356,-19.40157 40.868,-4.55475 z"
       id="path54" />
  </g>
  <g
     id="layer-MC3"
     inkscape:groupmode="layer"
     inkscape:label="Layer 3"
     style="display:none"
     transform="translate(-1312.2842,-318.69832)">
    <path
       id="path531"
       d="M 0,0 0.884,3.696 C 0.995,4.13 0.896,4.594 0.632,4.945 l -15.087,20.029 c -2.317,1.196 -4.609,3.098 -6.843,5.9 -4.114,5.162 -4.459,11.754 -2.153,17.401 -6.673,-1.347 -14.174,1.3 -18.299,6.777 -0.585,0.776 -1.071,1.585 -1.507,2.408 -7.267,-2.941 -16.441,-0.39 -21.176,5.893 l -0.613,-0.65 c -0.188,-0.066 -0.38,-0.11 -0.582,-0.125 l -8.015,-0.609 c -0.145,-0.005 -0.29,-0.01 -0.435,-0.015 l -5.427,0.049 c -0.464,0.002 -0.922,0.145 -1.312,0.414 l -2.222,1.519 c -0.214,0.152 -0.396,0.327 -0.553,0.535 l -2.015,2.676 c -0.199,0.263 -0.461,0.479 -0.746,0.64 l -20.285,11.124 c -0.298,0.164 -0.552,0.385 -0.751,0.649 l -4.248,5.639 c -0.355,0.471 -0.879,0.802 -1.465,0.899 l -13.039,2.335 c -0.649,0.113 -1.306,-0.045 -1.833,-0.442 l -1.274,-0.959 c -0.667,-0.503 -1.419,-0.912 -2.238,-1.073 -0.364,-0.071 -0.681,-0.212 -0.945,-0.411 -1.286,-0.969 -1.318,-3.171 0.392,-4.011 l 0.474,-0.231 8.909,-4.724 c 0.251,-0.163 0.5,-0.325 0.751,-0.488 l 13.296,-10.44 c 0.115,-0.082 0.229,-0.165 0.344,-0.247 l 14.675,-9.619 c 0.165,-0.101 0.325,-0.181 0.501,-0.249 l 5.822,-4.704 c 1.474,-1.193 3.301,-1.857 5.194,-1.909 2.83,-0.084 6.648,-0.15 6.648,-0.15 0.02,-0.003 0.96,0.037 2.476,0.103 1.124,0.049 2.183,-0.553 2.687,-1.559 1.3,-2.594 3.585,-5.612 7.495,-8.78 1.557,0.699 3.228,1.212 4.994,1.496 5.713,0.919 12.466,-1.97 16.298,-6.669 1.04,-0.851 1.994,-1.805 2.805,-2.882 1.601,-2.126 2.619,-4.452 3.135,-6.838 0.916,1.925 3.597,2.249 4.923,0.489 l 6.075,-8.065 c 0.09,-0.12 0.202,-0.235 0.326,-0.317 l 13.478,-9.637 c 0.086,-0.066 0.172,-0.133 0.259,-0.2 l 8.056,-6.712 C -1.569,-1.507 -0.266,-1.077 0,0"
       style="fill:#999999;fill-opacity:1;fill-rule:nonzero;stroke:none"
       transform="matrix(1.3333333,0,0,-1.3333333,789.56173,588.08507)"
       clip-path="url(#clipPath532)" />
    <path
       id="path537"
       d="m 0,0 7.279,14.885 c 0.158,0.306 0.329,0.611 0.518,0.891 l 4.52,6.728 c 0.067,0.095 0.134,0.189 0.202,0.284 l 7.777,10.302 c 1.326,1.763 1.821,4.014 1.361,6.171 l -0.054,0.257 c -0.41,1.953 -0.254,3.983 0.45,5.852 l 5.107,13.56 c 0.778,2.171 8.277,4.008 10.18,5.58 l 1.482,1.139 c 1.258,0.966 1.855,2.488 1.873,4.074 0.004,0.369 0.08,0.741 0.231,1.095 0.653,1.524 1.399,3.769 2.391,7.118 0.214,0.727 0.423,1.413 0.626,2.056 0.198,0.628 0.605,1.169 1.158,1.528 l 2.599,1.683 c 0,0 10.604,6.898 22.619,12.005 12.015,5.107 -3.018,-1.146 12.759,6.43 7.82,3.762 14.663,8.041 19.586,11.411 1.991,1.362 1.936,4.162 0.516,6.047 -0.674,0.895 -1.656,1.582 -2.866,1.81 -2.182,0.409 -4.335,0.055 -6.117,-1 -0.173,-0.102 -0.354,-0.19 -0.546,-0.252 l -17.502,-5.682 c -0.056,-0.02 -0.113,-0.041 -0.17,-0.061 l -16.483,-6.538 c -0.075,-0.026 -0.149,-0.052 -0.224,-0.078 l -15.304,-4.624 c -1.041,-0.315 -2.171,-0.001 -2.901,0.806 l -2.544,2.81 c -0.097,0.092 -0.194,0.185 -0.29,0.277 l -15.506,12.851 c -1.278,1.057 -2.786,1.701 -4.342,1.918 -1.107,0.155 -2.014,0.95 -2.31,2.027 l -1.785,12.288 c -0.025,0.078 -0.524,9.765 -0.524,9.766 0,0.001 -8.667,10.607 -10.305,11.286 -10e-4,0.001 -0.002,0.002 -0.003,0.003 l -11.001,15.589 c -0.962,1.364 -2.368,2.347 -3.98,2.78 -3.386,0.91 -9.019,2.418 -9.019,2.418 -0.942,0.254 4.592,-19.185 5.639,-21.838 1.027,-2.625 13.324,-10.316 15.923,-14.778 0.813,-1.397 1.223,-2.984 1.177,-4.599 -0.089,-3.12 -0.255,-8.372 -0.232,-8.455 l 1.151,-5.398 c 0.02,-0.172 0.053,-0.451 0.073,-0.623 L 3.501,108.792 C 3.5,108.79 3.5,108.789 3.5,108.788 l -2.962,-7.311 c -0.132,-0.324 -0.322,-0.62 -0.562,-0.874 l -2.205,-2.339 c -0.188,-0.067 -0.38,-0.111 -0.582,-0.126 l -2.707,-0.206 c -0.111,-3.1 -0.917,-6.232 -2.353,-9.326 0.034,-1.607 -0.057,-3.218 -0.296,-4.827 0.294,-0.243 0.544,-0.544 0.721,-0.899 1.455,-2.902 4.126,-6.333 8.947,-9.913 C 2.05,72.56 2.562,72.174 3.04,71.809 4.012,71.068 4.388,69.785 3.979,68.634 l -6.924,-19.5 c 10e-4,-0.049 0.003,-0.092 0.004,-0.141 1.986,-4.746 1.707,-9.991 -0.429,-14.542 -0.006,-0.025 -0.011,-0.049 -0.017,-0.074 -0.015,-2.239 -0.418,-4.464 -1.305,-6.524 -0.159,-0.368 -1.008,-2.798 -1.381,-3.72 -0.004,-0.009 -0.006,-0.016 -0.008,-0.025 -0.166,-0.926 -0.477,-2.478 -0.517,-2.77 -0.033,-0.246 -0.159,-1.473 -0.259,-2.401 0,-0.008 -10e-4,-0.014 -10e-4,-0.021 0.03,-0.693 10e-4,-2.897 0.024,-3.272 0.319,-5.132 1.202,-10.202 2.135,-15.255 0.039,-0.051 0.071,-0.093 0.11,-0.144 1.265,-0.619 2.53,-1.239 3.787,-1.874 0.115,-0.059 0.25,0.006 0.28,0.131 C -0.399,-0.984 -0.236,-0.48 0,0"
       style="fill:#cccccc;fill-opacity:1;fill-rule:nonzero;stroke:none"
       transform="matrix(1.3333333,0,0,-1.3333333,690.81333,635.11507)"
       clip-path="url(#clipPath538)" />
    <path
       id="path563"
       d="m 0,0 7.279,14.885 c 0.158,0.306 0.329,0.611 0.518,0.891 l 4.52,6.728 c 0.067,0.095 0.134,0.189 0.202,0.284 l 7.777,10.302 c 1.326,1.763 1.821,4.014 1.361,6.171 l -0.054,0.257 c -0.41,1.953 -0.254,3.983 0.45,5.852 l 5.107,13.56 c 0.778,2.171 8.277,4.008 10.18,5.58 l 1.482,1.139 c 1.258,0.966 1.855,2.488 1.873,4.074 0.004,0.369 0.08,0.741 0.231,1.095 0.653,1.524 1.399,3.769 2.391,7.118 0.214,0.727 0.423,1.413 0.626,2.056 0.198,0.628 0.605,1.169 1.158,1.528 l 2.599,1.683 c 0,0 10.604,6.898 22.619,12.005 12.015,5.107 -3.018,-1.146 12.759,6.43 7.82,3.762 14.663,8.041 19.586,11.411 1.991,1.362 1.936,4.162 0.516,6.047 -0.674,0.895 -1.656,1.582 -2.866,1.81 -2.182,0.409 -4.335,0.055 -6.117,-1 -0.173,-0.102 -0.354,-0.19 -0.546,-0.252 l -17.502,-5.682 c -0.056,-0.02 -0.113,-0.041 -0.17,-0.061 l -16.483,-6.538 c -0.075,-0.026 -0.149,-0.052 -0.224,-0.078 l -15.304,-4.624 c -1.041,-0.315 -2.171,-0.001 -2.901,0.806 l -2.544,2.81 c -0.097,0.092 -0.194,0.185 -0.29,0.277 l -15.506,12.851 c -1.278,1.057 -2.786,1.701 -4.342,1.918 -1.107,0.155 -2.014,0.95 -2.31,2.027 l -1.785,12.288 c -0.025,0.078 -0.524,9.765 -0.524,9.766 0,0.001 -8.667,10.607 -10.305,11.286 -10e-4,0.001 -0.002,0.002 -0.003,0.003 l -11.001,15.589 c -0.962,1.364 -2.368,2.347 -3.98,2.78 -3.386,0.91 -9.019,2.418 -9.019,2.418 -0.942,0.254 4.592,-19.185 5.639,-21.838 1.027,-2.625 13.324,-10.316 15.923,-14.778 0.813,-1.397 1.223,-2.984 1.177,-4.599 -0.089,-3.12 -0.255,-8.372 -0.232,-8.455 l 1.151,-5.398 c 0.02,-0.172 0.053,-0.451 0.073,-0.623 L 3.501,108.792 C 3.5,108.79 3.5,108.789 3.5,108.788 l -2.962,-7.311 c -0.132,-0.324 -0.322,-0.62 -0.562,-0.874 l -2.205,-2.339 c -0.188,-0.067 -0.38,-0.111 -0.582,-0.126 l -2.707,-0.206 c -0.111,-3.1 -0.917,-6.232 -2.353,-9.326 0.034,-1.607 -0.057,-3.218 -0.296,-4.827 0.294,-0.243 0.544,-0.544 0.721,-0.899 1.455,-2.902 4.126,-6.333 8.947,-9.913 C 2.05,72.56 2.562,72.174 3.04,71.809 4.012,71.068 4.388,69.785 3.979,68.634 l -6.924,-19.5 c 10e-4,-0.049 0.003,-0.092 0.004,-0.141 1.986,-4.746 1.707,-9.991 -0.429,-14.542 -0.006,-0.025 -0.011,-0.049 -0.017,-0.074 -0.015,-2.239 -0.418,-4.464 -1.305,-6.524 -0.159,-0.368 -1.008,-2.798 -1.381,-3.72 -0.004,-0.009 -0.006,-0.016 -0.008,-0.025 -0.166,-0.926 -0.477,-2.478 -0.517,-2.77 -0.033,-0.246 -0.159,-1.473 -0.259,-2.401 0,-0.008 -10e-4,-0.014 -10e-4,-0.021 0.03,-0.693 10e-4,-2.897 0.024,-3.272 0.319,-5.132 1.202,-10.202 2.135,-15.255 0.039,-0.051 0.071,-0.093 0.11,-0.144 1.265,-0.619 2.53,-1.239 3.787,-1.874 0.115,-0.059 0.25,0.006 0.28,0.131 C -0.399,-0.984 -0.236,-0.48 0,0 Z"
       style="fill:none;stroke:#333333;stroke-width:9;stroke-linecap:butt;stroke-linejoin:miter;stroke-miterlimit:60.472;stroke-dasharray:none;stroke-opacity:1"
       transform="matrix(1.3333333,0,0,-1.3333333,690.81333,635.11507)"
       clip-path="url(#clipPath564)" />
    <g
       opacity="0.949493"
       id="g572"
       clip-path="url(#clipPath572)">
      <g
         opacity="0.8461"
         clip-path="url(#clipPath570)"
         id="g571">
        <path
           d="m 0,0 c -9.34,-7.035 -22.615,-5.167 -29.65,4.173 -7.035,9.34 -5.167,22.615 4.173,29.65 9.34,7.036 22.615,5.167 29.65,-4.173 C 11.208,20.31 9.34,7.035 0,0"
           style="fill:#f0d01a;fill-opacity:1;fill-rule:nonzero;stroke:none"
           transform="matrix(1.3333333,0,0,-1.3333333,789.52893,553.66613)"
           clip-path="url(#clipPath569)"
           id="path571" />
      </g>
    </g>
    <g
       opacity="0.949493"
       id="g576"
       clip-path="url(#clipPath576)">
      <g
         opacity="0.8461"
         clip-path="url(#clipPath574)"
         id="g575">
        <path
           d="M 0,0 C -20.85,-15.705 -50.484,-11.534 -66.189,9.316 -81.894,30.166 -77.723,59.8 -56.873,75.505 -36.023,91.21 -6.389,87.039 9.316,66.189 25.021,45.339 20.85,15.705 0,0"
           style="fill:#f0d01a;fill-opacity:1;fill-rule:nonzero;stroke:none"
           transform="matrix(1.3333333,0,0,-1.3333333,845.61987,534.91093)"
           clip-path="url(#clipPath573)"
           id="path575" />
      </g>
    </g>
    <g
       opacity="0.949493"
       id="g588"
       clip-path="url(#clipPath588)">
      <g
         opacity="0.8461"
         clip-path="url(#clipPath586)"
         id="g587">
        <path
           d="m 0,0 c -17.262,-13.003 -41.797,-9.55 -54.8,7.713 -13.003,17.262 -9.549,41.797 7.713,54.8 C -29.825,75.515 -5.29,72.062 7.713,54.8 20.716,37.537 17.262,13.003 0,0"
           style="fill:#f0d01a;fill-opacity:1;fill-rule:nonzero;stroke:none"
           transform="matrix(1.3333333,0,0,-1.3333333,796.48867,621.97)"
           clip-path="url(#clipPath585)"
           id="path587" />
      </g>
    </g>
  </g>
</svg>
