<svg xmlns="http://www.w3.org/2000/svg" xml:space="preserve" width="179.484" height="184.111" viewBox="0 0 47.489 48.713"><g transform="translate(-141.235 -151.355)"><path d="M142.735 152.855h40.654v45.713h-40.654z" style="fill:#a66e20;fill-opacity:1;stroke:#3e2a0c;stroke-width:3;stroke-linecap:square;stroke-linejoin:round;stroke-dasharray:none;stroke-opacity:1;paint-order:fill markers stroke;stop-color:#000"/><circle cx="149.555" cy="-191.75" r="3.109" style="fill:#a69d8f;fill-opacity:1;stroke:#282825;stroke-width:2;stroke-linecap:square;stroke-linejoin:round;stroke-dasharray:none;stroke-opacity:1;paint-order:fill markers stroke;stop-color:#000" transform="scale(1 -1)"/><path d="M142.735 179.49v-26.633h20.302c.133 2.09-.881 4.117-2.236 5.648-1.322 1.316-3.14 1.939-4.681 2.925-3.058 1.344-2.952 4.768-2.67 5.77.072 1.73.073 3.486-.128 5.21-.328 2.026-1.982 3.471-3.498 4.693-2.695 1.972-4.117 1.768-7.089 2.386z" style="fill:#c9d1d9;fill-opacity:1;stroke:#a2a5c0;stroke-width:3;stroke-linecap:square;stroke-linejoin:round;stroke-dasharray:none;stroke-opacity:1;paint-order:fill markers stroke;stop-color:#000"/><circle cx="170.261" cy="175.712" r="17.212" style="fill:#be7f26;fill-opacity:1;stroke:#3e2a0c;stroke-width:2.5;stroke-linecap:square;stroke-linejoin:round;stroke-dasharray:none;stroke-opacity:1;paint-order:fill markers stroke;stop-color:#000"/><circle cx="170.261" cy="175.712" r="4.762" style="fill:#99661e;fill-opacity:1;stroke:#3e2a0c;stroke-width:2.5;stroke-linecap:square;stroke-linejoin:round;stroke-dasharray:none;stroke-opacity:1;paint-order:fill markers stroke;stop-color:#000"/><path d="M165.329 192.276c1.402.37 2.787.685 4.237.702 3.877.033 7.833-1.095 10.93-3.427-.63-.374-1.412-.407-2.033-.59-1.663-.627-2.394-1.258-2.644-2.855-.091-1.247-.195-2.456-.66-3.04-1.208-1.414-2.94-2.356-4.132-3.557h-.001c-.759.29-.972.59-2.24.615-1.891-.085-3.007-2.083-4.462-2.988-1.597-.567-1.75-1.117-1.45.517.35 1.438-1.09 2.416-1.569 3.463-1.063 3.414-1.594 3.608.193 5.422l1.964 2c2.312 2.325 2.124 2.85 1.867 3.738M154.48 168.84c.054.022.102-.056.159-.06.655-.054 2-.089 2.57.21 1.074.77 1.979 1.582 2.806 2.695.743 1.027 1.81.904 2.863 1.027 1.064.122 2.36.189 3.34.69.553.195 2.882 1.759 4.576 2.62.213-.052.306-.455.651-1.214.97-1.8 1.636-3.375 3.415-3.267 1.215.006 3.003.386 3.965-.205 1.584-1.342 2.267-2.939 3.56-4.456.25-.283 1.1-1.152 1.428-1.402l.207-.158a17.63 17.63 0 0 0-13.759-6.82c-6.757-.064-13.135 4.109-15.78 10.34" style="fill:#c9d1d9;fill-opacity:1;stroke:#a2a5c0;stroke-width:2.5;stroke-linecap:round;stroke-linejoin:round;stroke-miterlimit:4;stroke-dasharray:none;stroke-opacity:1"/></g></svg>