<svg xmlns="http://www.w3.org/2000/svg" xmlns:xlink="http://www.w3.org/1999/xlink" width="250" height="85" viewBox="0 0 66.146 22.49"><defs><radialGradient xlink:href="#a" id="b" cx="95.773" cy="88.153" r="9.538" fx="95.773" fy="88.153" gradientTransform="translate(22.564 16.503)" gradientUnits="userSpaceOnUse"/><linearGradient id="a"><stop offset="0" style="stop-color:#ffad23;stop-opacity:.61077845"/><stop offset=".829" style="stop-color:#ffad23;stop-opacity:0"/></linearGradient></defs><g transform="translate(-72.662 -93.41)"><rect width="66.146" height="22.49" x="72.662" y="93.411" rx="3.482" ry="3.307" style="display:inline;fill:#302412;fill-opacity:1;stroke-width:.142823"/><rect width="51.858" height="18.521" x="79.806" y="95.395" rx="1.459" ry="1.309" style="display:inline;fill:#785a2e;fill-opacity:1;stroke-width:.164597"/><rect width="3.175" height="18.521" x="74.646" y="95.395" rx="1.323" ry="1.323" style="display:inline;fill:#785a2e;fill-opacity:1;stroke-width:.151673"/><rect width="3.175" height="18.521" x="133.648" y="95.395" rx="1.323" ry="1.323" style="display:inline;fill:#785a2e;fill-opacity:1;stroke-width:.151673"/><g style="stroke-width:1.24287" transform="translate(23.83 20.45)scale(.80459)"><circle cx="117.46" cy="104.656" r="4.146" style="fill:#d8af76;fill-opacity:1;stroke:#b78034;stroke-width:1.15095;stroke-dasharray:none;stroke-opacity:1"/><circle cx="117.46" cy="104.656" r="1.589" style="fill:#b78034;fill-opacity:1;stroke:none;stroke-width:1.64421;stroke-dasharray:none;stroke-opacity:1"/><circle cx="117.46" cy="104.656" r=".426" style="fill:#000;fill-opacity:1;stroke:none;stroke-width:1.64421;stroke-dasharray:none;stroke-opacity:1"/></g><circle cx="118.336" cy="104.656" r="9.538" style="fill:url(#b);stroke:none;stroke-width:1.32292;stroke-dasharray:none;stroke-opacity:1"/><circle cx="93.088" cy="104.656" r="7.522" style="fill:#664210;fill-opacity:1;stroke:#311f08;stroke-width:1.32292;stroke-dasharray:none;stroke-opacity:1"/><circle cx="93.088" cy="104.656" r="5.417" style="fill:#53360d;fill-opacity:1;stroke:none;stroke-width:1.32292;stroke-dasharray:none;stroke-opacity:1"/><path d="M122.435 130.584c-2.274.192-1.646 2.505-.08 3.105l.185-.001c1.56-.612 2.17-2.93-.105-3.104" style="color:#000;fill:#aa6300;stroke-linecap:round;stroke-linejoin:round;-inkscape-stroke:none" transform="rotate(-39.24 69.305 162.277)"/><path d="M122.342 130.579c-.22.005-.462.078-.661.104q.02.05.04.096c-.206.088-.375.206-.367.347.38.14.755.228 1.084.227s.703-.092 1.081-.236c.007-.141-.162-.257-.37-.344q.022-.046.041-.096c-.228-.028-.512-.118-.755-.096a1 1 0 0 0-.093-.003z" style="fill:#ac8144;fill-opacity:1;stroke:none;stroke-width:.264583;stroke-linecap:round;stroke-linejoin:round;stroke-dasharray:none;stroke-opacity:1" transform="rotate(-39.24 69.305 162.277)"/><path d="M122.416 130.36c-.607.05-1.054.248-1.338.552a1.38 1.38 0 0 0-.348 1.094c.08.78.68 1.562 1.543 1.892a.2.2 0 0 0 .082.016l.186-.002a.2.2 0 0 0 .08-.016c.861-.337 1.457-1.123 1.53-1.904a1.38 1.38 0 0 0-.358-1.09c-.286-.301-.734-.496-1.342-.543h-.035m.02.454c.514.044.843.2 1.03.397.192.201.262.453.235.74-.053.567-.536 1.231-1.223 1.512h-.064c-.688-.275-1.18-.935-1.236-1.502-.03-.287.039-.54.228-.742.186-.2.515-.357 1.03-.405" style="color:#000;fill:#3d2200;fill-opacity:1;stroke-linecap:round;stroke-linejoin:round;-inkscape-stroke:none" transform="rotate(-39.24 69.305 162.277)"/><path d="M122.435 130.584c-2.274.192-1.646 2.505-.08 3.105l.185-.001c1.56-.612 2.17-2.93-.105-3.104" style="color:#000;fill:#aa6300;stroke-linecap:round;stroke-linejoin:round;-inkscape-stroke:none" transform="rotate(-107.686 98.323 131.714)"/><path d="M122.342 130.579c-.22.005-.462.078-.661.104q.02.05.04.096c-.206.088-.375.206-.367.347.38.14.755.228 1.084.227s.703-.092 1.081-.236c.007-.141-.162-.257-.37-.344q.022-.046.041-.096c-.228-.028-.512-.118-.755-.096a1 1 0 0 0-.093-.003z" style="fill:#ac8144;fill-opacity:1;stroke:none;stroke-width:.264583;stroke-linecap:round;stroke-linejoin:round;stroke-dasharray:none;stroke-opacity:1" transform="rotate(-107.686 98.323 131.714)"/><path d="M122.416 130.36c-.607.05-1.054.248-1.338.552a1.38 1.38 0 0 0-.348 1.094c.08.78.68 1.562 1.543 1.892a.2.2 0 0 0 .082.016l.186-.002a.2.2 0 0 0 .08-.016c.861-.337 1.457-1.123 1.53-1.904a1.38 1.38 0 0 0-.358-1.09c-.286-.301-.734-.496-1.342-.543h-.035m.02.454c.514.044.843.2 1.03.397.192.201.262.453.235.74-.053.567-.536 1.231-1.223 1.512h-.064c-.688-.275-1.18-.935-1.236-1.502-.03-.287.039-.54.228-.742.186-.2.515-.357 1.03-.405" style="color:#000;fill:#3d2200;fill-opacity:1;stroke-linecap:round;stroke-linejoin:round;-inkscape-stroke:none" transform="rotate(-107.686 98.323 131.714)"/><path d="M122.435 130.584c-2.274.192-1.646 2.505-.08 3.105l.185-.001c1.56-.612 2.17-2.93-.105-3.104" style="color:#000;fill:#aa6300;stroke-linecap:round;stroke-linejoin:round;-inkscape-stroke:none" transform="rotate(-107.686 96.039 127.36)"/><path d="M122.342 130.579c-.22.005-.462.078-.661.104q.02.05.04.096c-.206.088-.375.206-.367.347.38.14.755.228 1.084.227s.703-.092 1.081-.236c.007-.141-.162-.257-.37-.344q.022-.046.041-.096c-.228-.028-.512-.118-.755-.096a1 1 0 0 0-.093-.003z" style="fill:#ac8144;fill-opacity:1;stroke:none;stroke-width:.264583;stroke-linecap:round;stroke-linejoin:round;stroke-dasharray:none;stroke-opacity:1" transform="rotate(-107.686 96.039 127.36)"/><path d="M122.416 130.36c-.607.05-1.054.248-1.338.552a1.38 1.38 0 0 0-.348 1.094c.08.78.68 1.562 1.543 1.892a.2.2 0 0 0 .082.016l.186-.002a.2.2 0 0 0 .08-.016c.861-.337 1.457-1.123 1.53-1.904a1.38 1.38 0 0 0-.358-1.09c-.286-.301-.734-.496-1.342-.543h-.035m.02.454c.514.044.843.2 1.03.397.192.201.262.453.235.74-.053.567-.536 1.231-1.223 1.512h-.064c-.688-.275-1.18-.935-1.236-1.502-.03-.287.039-.54.228-.742.186-.2.515-.357 1.03-.405" style="color:#000;fill:#3d2200;fill-opacity:1;stroke-linecap:round;stroke-linejoin:round;-inkscape-stroke:none" transform="rotate(-107.686 96.039 127.36)"/><path d="M122.435 130.584c-2.274.192-1.646 2.505-.08 3.105l.185-.001c1.56-.612 2.17-2.93-.105-3.104" style="color:#000;fill:#aa6300;stroke-linecap:round;stroke-linejoin:round;-inkscape-stroke:none" transform="rotate(40.511 140.219 75.23)"/><path d="M122.342 130.579c-.22.005-.462.078-.661.104q.02.05.04.096c-.206.088-.375.206-.367.347.38.14.755.228 1.084.227s.703-.092 1.081-.236c.007-.141-.162-.257-.37-.344q.022-.046.041-.096c-.228-.028-.512-.118-.755-.096a1 1 0 0 0-.093-.003z" style="fill:#ac8144;fill-opacity:1;stroke:none;stroke-width:.264583;stroke-linecap:round;stroke-linejoin:round;stroke-dasharray:none;stroke-opacity:1" transform="rotate(40.511 140.219 75.23)"/><path d="M122.416 130.36c-.607.05-1.054.248-1.338.552a1.38 1.38 0 0 0-.348 1.094c.08.78.68 1.562 1.543 1.892a.2.2 0 0 0 .082.016l.186-.002a.2.2 0 0 0 .08-.016c.861-.337 1.457-1.123 1.53-1.904a1.38 1.38 0 0 0-.358-1.09c-.286-.301-.734-.496-1.342-.543h-.035m.02.454c.514.044.843.2 1.03.397.192.201.262.453.235.74-.053.567-.536 1.231-1.223 1.512h-.064c-.688-.275-1.18-.935-1.236-1.502-.03-.287.039-.54.228-.742.186-.2.515-.357 1.03-.405" style="color:#000;fill:#3d2200;fill-opacity:1;stroke-linecap:round;stroke-linejoin:round;-inkscape-stroke:none" transform="rotate(40.511 140.219 75.23)"/><path d="M122.435 130.584c-2.274.192-1.646 2.505-.08 3.105l.185-.001c1.56-.612 2.17-2.93-.105-3.104" style="color:#000;fill:#aa6300;stroke-linecap:round;stroke-linejoin:round;-inkscape-stroke:none" transform="rotate(-39.24 65.202 154.957)"/><path d="M122.342 130.579c-.22.005-.462.078-.661.104q.02.05.04.096c-.206.088-.375.206-.367.347.38.14.755.228 1.084.227s.703-.092 1.081-.236c.007-.141-.162-.257-.37-.344q.022-.046.041-.096c-.228-.028-.512-.118-.755-.096a1 1 0 0 0-.093-.003z" style="fill:#ac8144;fill-opacity:1;stroke:none;stroke-width:.264583;stroke-linecap:round;stroke-linejoin:round;stroke-dasharray:none;stroke-opacity:1" transform="rotate(-39.24 65.202 154.957)"/><path d="M122.416 130.36c-.607.05-1.054.248-1.338.552a1.38 1.38 0 0 0-.348 1.094c.08.78.68 1.562 1.543 1.892a.2.2 0 0 0 .082.016l.186-.002a.2.2 0 0 0 .08-.016c.861-.337 1.457-1.123 1.53-1.904a1.38 1.38 0 0 0-.358-1.09c-.286-.301-.734-.496-1.342-.543h-.035m.02.454c.514.044.843.2 1.03.397.192.201.262.453.235.74-.053.567-.536 1.231-1.223 1.512h-.064c-.688-.275-1.18-.935-1.236-1.502-.03-.287.039-.54.228-.742.186-.2.515-.357 1.03-.405" style="color:#000;fill:#3d2200;fill-opacity:1;stroke-linecap:round;stroke-linejoin:round;-inkscape-stroke:none" transform="rotate(-39.24 65.202 154.957)"/><path d="M122.435 130.584c-2.274.192-1.646 2.505-.08 3.105l.185-.001c1.56-.612 2.17-2.93-.105-3.104" style="color:#000;fill:#aa6300;stroke-linecap:round;stroke-linejoin:round;-inkscape-stroke:none" transform="rotate(-39.24 69.603 156.71)"/><path d="M122.342 130.579c-.22.005-.462.078-.661.104q.02.05.04.096c-.206.088-.375.206-.367.347.38.14.755.228 1.084.227s.703-.092 1.081-.236c.007-.141-.162-.257-.37-.344q.022-.046.041-.096c-.228-.028-.512-.118-.755-.096a1 1 0 0 0-.093-.003z" style="fill:#ac8144;fill-opacity:1;stroke:none;stroke-width:.264583;stroke-linecap:round;stroke-linejoin:round;stroke-dasharray:none;stroke-opacity:1" transform="rotate(-39.24 69.603 156.71)"/><path d="M122.416 130.36c-.607.05-1.054.248-1.338.552a1.38 1.38 0 0 0-.348 1.094c.08.78.68 1.562 1.543 1.892a.2.2 0 0 0 .082.016l.186-.002a.2.2 0 0 0 .08-.016c.861-.337 1.457-1.123 1.53-1.904a1.38 1.38 0 0 0-.358-1.09c-.286-.301-.734-.496-1.342-.543h-.035m.02.454c.514.044.843.2 1.03.397.192.201.262.453.235.74-.053.567-.536 1.231-1.223 1.512h-.064c-.688-.275-1.18-.935-1.236-1.502-.03-.287.039-.54.228-.742.186-.2.515-.357 1.03-.405" style="color:#000;fill:#3d2200;fill-opacity:1;stroke-linecap:round;stroke-linejoin:round;-inkscape-stroke:none" transform="rotate(-39.24 69.603 156.71)"/><path d="M122.435 130.584c-2.274.192-1.646 2.505-.08 3.105l.185-.001c1.56-.612 2.17-2.93-.105-3.104" style="color:#000;fill:#aa6300;stroke-linecap:round;stroke-linejoin:round;-inkscape-stroke:none" transform="rotate(120.444 117.644 111.287)"/><path d="M122.342 130.579c-.22.005-.462.078-.661.104q.02.05.04.096c-.206.088-.375.206-.367.347.38.14.755.228 1.084.227s.703-.092 1.081-.236c.007-.141-.162-.257-.37-.344q.022-.046.041-.096c-.228-.028-.512-.118-.755-.096a1 1 0 0 0-.093-.003z" style="fill:#ac8144;fill-opacity:1;stroke:none;stroke-width:.264583;stroke-linecap:round;stroke-linejoin:round;stroke-dasharray:none;stroke-opacity:1" transform="rotate(120.444 117.644 111.287)"/><path d="M122.416 130.36c-.607.05-1.054.248-1.338.552a1.38 1.38 0 0 0-.348 1.094c.08.78.68 1.562 1.543 1.892a.2.2 0 0 0 .082.016l.186-.002a.2.2 0 0 0 .08-.016c.861-.337 1.457-1.123 1.53-1.904a1.38 1.38 0 0 0-.358-1.09c-.286-.301-.734-.496-1.342-.543h-.035m.02.454c.514.044.843.2 1.03.397.192.201.262.453.235.74-.053.567-.536 1.231-1.223 1.512h-.064c-.688-.275-1.18-.935-1.236-1.502-.03-.287.039-.54.228-.742.186-.2.515-.357 1.03-.405" style="color:#000;fill:#3d2200;fill-opacity:1;stroke-linecap:round;stroke-linejoin:round;-inkscape-stroke:none" transform="rotate(120.444 117.644 111.287)"/><path d="M122.435 130.584c-2.274.192-1.646 2.505-.08 3.105l.185-.001c1.56-.612 2.17-2.93-.105-3.104" style="color:#000;fill:#aa6300;stroke-linecap:round;stroke-linejoin:round;-inkscape-stroke:none" transform="rotate(40.511 143.158 81.678)"/><path d="M122.342 130.579c-.22.005-.462.078-.661.104q.02.05.04.096c-.206.088-.375.206-.367.347.38.14.755.228 1.084.227s.703-.092 1.081-.236c.007-.141-.162-.257-.37-.344q.022-.046.041-.096c-.228-.028-.512-.118-.755-.096a1 1 0 0 0-.093-.003z" style="fill:#ac8144;fill-opacity:1;stroke:none;stroke-width:.264583;stroke-linecap:round;stroke-linejoin:round;stroke-dasharray:none;stroke-opacity:1" transform="rotate(40.511 143.158 81.678)"/><path d="M122.416 130.36c-.607.05-1.054.248-1.338.552a1.38 1.38 0 0 0-.348 1.094c.08.78.68 1.562 1.543 1.892a.2.2 0 0 0 .082.016l.186-.002a.2.2 0 0 0 .08-.016c.861-.337 1.457-1.123 1.53-1.904a1.38 1.38 0 0 0-.358-1.09c-.286-.301-.734-.496-1.342-.543h-.035m.02.454c.514.044.843.2 1.03.397.192.201.262.453.235.74-.053.567-.536 1.231-1.223 1.512h-.064c-.688-.275-1.18-.935-1.236-1.502-.03-.287.039-.54.228-.742.186-.2.515-.357 1.03-.405" style="color:#000;fill:#3d2200;fill-opacity:1;stroke-linecap:round;stroke-linejoin:round;-inkscape-stroke:none" transform="rotate(40.511 143.158 81.678)"/><path d="M122.435 130.584c-2.274.192-1.646 2.505-.08 3.105l.185-.001c1.56-.612 2.17-2.93-.105-3.104" style="color:#000;fill:#aa6300;stroke-linecap:round;stroke-linejoin:round;-inkscape-stroke:none" transform="rotate(174.999 108.884 119.6)"/><path d="M122.342 130.579c-.22.005-.462.078-.661.104q.02.05.04.096c-.206.088-.375.206-.367.347.38.14.755.228 1.084.227s.703-.092 1.081-.236c.007-.141-.162-.257-.37-.344q.022-.046.041-.096c-.228-.028-.512-.118-.755-.096a1 1 0 0 0-.093-.003z" style="fill:#ac8144;fill-opacity:1;stroke:none;stroke-width:.264583;stroke-linecap:round;stroke-linejoin:round;stroke-dasharray:none;stroke-opacity:1" transform="rotate(174.999 108.884 119.6)"/><path d="M122.416 130.36c-.607.05-1.054.248-1.338.552a1.38 1.38 0 0 0-.348 1.094c.08.78.68 1.562 1.543 1.892a.2.2 0 0 0 .082.016l.186-.002a.2.2 0 0 0 .08-.016c.861-.337 1.457-1.123 1.53-1.904a1.38 1.38 0 0 0-.358-1.09c-.286-.301-.734-.496-1.342-.543h-.035m.02.454c.514.044.843.2 1.03.397.192.201.262.453.235.74-.053.567-.536 1.231-1.223 1.512h-.064c-.688-.275-1.18-.935-1.236-1.502-.03-.287.039-.54.228-.742.186-.2.515-.357 1.03-.405" style="color:#000;fill:#3d2200;fill-opacity:1;stroke-linecap:round;stroke-linejoin:round;-inkscape-stroke:none" transform="rotate(174.999 108.884 119.6)"/><path d="M122.435 130.584c-2.274.192-1.646 2.505-.08 3.105l.185-.001c1.56-.612 2.17-2.93-.105-3.104" style="color:#000;fill:#aa6300;stroke-linecap:round;stroke-linejoin:round;-inkscape-stroke:none" transform="rotate(171.215 110.423 118.632)"/><path d="M122.342 130.579c-.22.005-.462.078-.661.104q.02.05.04.096c-.206.088-.375.206-.367.347.38.14.755.228 1.084.227s.703-.092 1.081-.236c.007-.141-.162-.257-.37-.344q.022-.046.041-.096c-.228-.028-.512-.118-.755-.096a1 1 0 0 0-.093-.003z" style="fill:#ac8144;fill-opacity:1;stroke:none;stroke-width:.264583;stroke-linecap:round;stroke-linejoin:round;stroke-dasharray:none;stroke-opacity:1" transform="rotate(171.215 110.423 118.632)"/><path d="M122.416 130.36c-.607.05-1.054.248-1.338.552a1.38 1.38 0 0 0-.348 1.094c.08.78.68 1.562 1.543 1.892a.2.2 0 0 0 .082.016l.186-.002a.2.2 0 0 0 .08-.016c.861-.337 1.457-1.123 1.53-1.904a1.38 1.38 0 0 0-.358-1.09c-.286-.301-.734-.496-1.342-.543h-.035m.02.454c.514.044.843.2 1.03.397.192.201.262.453.235.74-.053.567-.536 1.231-1.223 1.512h-.064c-.688-.275-1.18-.935-1.236-1.502-.03-.287.039-.54.228-.742.186-.2.515-.357 1.03-.405" style="color:#000;fill:#3d2200;fill-opacity:1;stroke-linecap:round;stroke-linejoin:round;-inkscape-stroke:none" transform="rotate(171.215 110.423 118.632)"/><path d="M122.435 130.584c-2.274.192-1.646 2.505-.08 3.105l.185-.001c1.56-.612 2.17-2.93-.105-3.104" style="color:#000;fill:#aa6300;stroke-linecap:round;stroke-linejoin:round;-inkscape-stroke:none" transform="rotate(-80.864 92.286 132.88)"/><path d="M122.342 130.579c-.22.005-.462.078-.661.104q.02.05.04.096c-.206.088-.375.206-.367.347.38.14.755.228 1.084.227s.703-.092 1.081-.236c.007-.141-.162-.257-.37-.344q.022-.046.041-.096c-.228-.028-.512-.118-.755-.096a1 1 0 0 0-.093-.003z" style="fill:#ac8144;fill-opacity:1;stroke:none;stroke-width:.264583;stroke-linecap:round;stroke-linejoin:round;stroke-dasharray:none;stroke-opacity:1" transform="rotate(-80.864 92.286 132.88)"/><path d="M122.416 130.36c-.607.05-1.054.248-1.338.552a1.38 1.38 0 0 0-.348 1.094c.08.78.68 1.562 1.543 1.892a.2.2 0 0 0 .082.016l.186-.002a.2.2 0 0 0 .08-.016c.861-.337 1.457-1.123 1.53-1.904a1.38 1.38 0 0 0-.358-1.09c-.286-.301-.734-.496-1.342-.543h-.035m.02.454c.514.044.843.2 1.03.397.192.201.262.453.235.74-.053.567-.536 1.231-1.223 1.512h-.064c-.688-.275-1.18-.935-1.236-1.502-.03-.287.039-.54.228-.742.186-.2.515-.357 1.03-.405" style="color:#000;fill:#3d2200;fill-opacity:1;stroke-linecap:round;stroke-linejoin:round;-inkscape-stroke:none" transform="rotate(-80.864 92.286 132.88)"/><path d="M122.435 130.584c-2.274.192-1.646 2.505-.08 3.105l.185-.001c1.56-.612 2.17-2.93-.105-3.104" style="color:#000;fill:#aa6300;stroke-linecap:round;stroke-linejoin:round;-inkscape-stroke:none" transform="rotate(-1.36 -1037.07 1344.877)"/><path d="M122.342 130.579c-.22.005-.462.078-.661.104q.02.05.04.096c-.206.088-.375.206-.367.347.38.14.755.228 1.084.227s.703-.092 1.081-.236c.007-.141-.162-.257-.37-.344q.022-.046.041-.096c-.228-.028-.512-.118-.755-.096a1 1 0 0 0-.093-.003z" style="fill:#ac8144;fill-opacity:1;stroke:none;stroke-width:.264583;stroke-linecap:round;stroke-linejoin:round;stroke-dasharray:none;stroke-opacity:1" transform="rotate(-1.36 -1037.07 1344.877)"/><path d="M122.416 130.36c-.607.05-1.054.248-1.338.552a1.38 1.38 0 0 0-.348 1.094c.08.78.68 1.562 1.543 1.892a.2.2 0 0 0 .082.016l.186-.002a.2.2 0 0 0 .08-.016c.861-.337 1.457-1.123 1.53-1.904a1.38 1.38 0 0 0-.358-1.09c-.286-.301-.734-.496-1.342-.543h-.035m.02.454c.514.044.843.2 1.03.397.192.201.262.453.235.74-.053.567-.536 1.231-1.223 1.512h-.064c-.688-.275-1.18-.935-1.236-1.502-.03-.287.039-.54.228-.742.186-.2.515-.357 1.03-.405" style="color:#000;fill:#3d2200;fill-opacity:1;stroke-linecap:round;stroke-linejoin:round;-inkscape-stroke:none" transform="rotate(-1.36 -1037.07 1344.877)"/><path d="M122.435 130.584c-2.274.192-1.646 2.505-.08 3.105l.185-.001c1.56-.612 2.17-2.93-.105-3.104" style="color:#000;fill:#aa6300;stroke-linecap:round;stroke-linejoin:round;-inkscape-stroke:none" transform="rotate(-19.556 18.763 211.948)"/><path d="M122.342 130.579c-.22.005-.462.078-.661.104q.02.05.04.096c-.206.088-.375.206-.367.347.38.14.755.228 1.084.227s.703-.092 1.081-.236c.007-.141-.162-.257-.37-.344q.022-.046.041-.096c-.228-.028-.512-.118-.755-.096a1 1 0 0 0-.093-.003z" style="fill:#ac8144;fill-opacity:1;stroke:none;stroke-width:.264583;stroke-linecap:round;stroke-linejoin:round;stroke-dasharray:none;stroke-opacity:1" transform="rotate(-19.556 18.763 211.948)"/><path d="M122.416 130.36c-.607.05-1.054.248-1.338.552a1.38 1.38 0 0 0-.348 1.094c.08.78.68 1.562 1.543 1.892a.2.2 0 0 0 .082.016l.186-.002a.2.2 0 0 0 .08-.016c.861-.337 1.457-1.123 1.53-1.904a1.38 1.38 0 0 0-.358-1.09c-.286-.301-.734-.496-1.342-.543h-.035m.02.454c.514.044.843.2 1.03.397.192.201.262.453.235.74-.053.567-.536 1.231-1.223 1.512h-.064c-.688-.275-1.18-.935-1.236-1.502-.03-.287.039-.54.228-.742.186-.2.515-.357 1.03-.405" style="color:#000;fill:#3d2200;fill-opacity:1;stroke-linecap:round;stroke-linejoin:round;-inkscape-stroke:none" transform="rotate(-19.556 18.763 211.948)"/><path d="M122.435 130.584c-2.274.192-1.646 2.505-.08 3.105l.185-.001c1.56-.612 2.17-2.93-.105-3.104" style="color:#000;fill:#aa6300;stroke-linecap:round;stroke-linejoin:round;-inkscape-stroke:none" transform="rotate(-46.52 78.725 154.8)"/><path d="M122.342 130.579c-.22.005-.462.078-.661.104q.02.05.04.096c-.206.088-.375.206-.367.347.38.14.755.228 1.084.227s.703-.092 1.081-.236c.007-.141-.162-.257-.37-.344q.022-.046.041-.096c-.228-.028-.512-.118-.755-.096a1 1 0 0 0-.093-.003z" style="fill:#ac8144;fill-opacity:1;stroke:none;stroke-width:.264583;stroke-linecap:round;stroke-linejoin:round;stroke-dasharray:none;stroke-opacity:1" transform="rotate(-46.52 78.725 154.8)"/><path d="M122.416 130.36c-.607.05-1.054.248-1.338.552a1.38 1.38 0 0 0-.348 1.094c.08.78.68 1.562 1.543 1.892a.2.2 0 0 0 .082.016l.186-.002a.2.2 0 0 0 .08-.016c.861-.337 1.457-1.123 1.53-1.904a1.38 1.38 0 0 0-.358-1.09c-.286-.301-.734-.496-1.342-.543h-.035m.02.454c.514.044.843.2 1.03.397.192.201.262.453.235.74-.053.567-.536 1.231-1.223 1.512h-.064c-.688-.275-1.18-.935-1.236-1.502-.03-.287.039-.54.228-.742.186-.2.515-.357 1.03-.405" style="color:#000;fill:#3d2200;fill-opacity:1;stroke-linecap:round;stroke-linejoin:round;-inkscape-stroke:none" transform="rotate(-46.52 78.725 154.8)"/><path d="M122.435 130.584c-2.274.192-1.646 2.505-.08 3.105l.185-.001c1.56-.612 2.17-2.93-.105-3.104" style="color:#000;fill:#aa6300;stroke-linecap:round;stroke-linejoin:round;-inkscape-stroke:none" transform="rotate(121.603 115.314 108.836)"/><path d="M122.342 130.579c-.22.005-.462.078-.661.104q.02.05.04.096c-.206.088-.375.206-.367.347.38.14.755.228 1.084.227s.703-.092 1.081-.236c.007-.141-.162-.257-.37-.344q.022-.046.041-.096c-.228-.028-.512-.118-.755-.096a1 1 0 0 0-.093-.003z" style="fill:#ac8144;fill-opacity:1;stroke:none;stroke-width:.264583;stroke-linecap:round;stroke-linejoin:round;stroke-dasharray:none;stroke-opacity:1" transform="rotate(121.603 115.314 108.836)"/><path d="M122.416 130.36c-.607.05-1.054.248-1.338.552a1.38 1.38 0 0 0-.348 1.094c.08.78.68 1.562 1.543 1.892a.2.2 0 0 0 .082.016l.186-.002a.2.2 0 0 0 .08-.016c.861-.337 1.457-1.123 1.53-1.904a1.38 1.38 0 0 0-.358-1.09c-.286-.301-.734-.496-1.342-.543h-.035m.02.454c.514.044.843.2 1.03.397.192.201.262.453.235.74-.053.567-.536 1.231-1.223 1.512h-.064c-.688-.275-1.18-.935-1.236-1.502-.03-.287.039-.54.228-.742.186-.2.515-.357 1.03-.405" style="color:#000;fill:#3d2200;fill-opacity:1;stroke-linecap:round;stroke-linejoin:round;-inkscape-stroke:none" transform="rotate(121.603 115.314 108.836)"/><path d="M122.435 130.584c-2.274.192-1.646 2.505-.08 3.105l.185-.001c1.56-.612 2.17-2.93-.105-3.104" style="color:#000;fill:#aa6300;stroke-linecap:round;stroke-linejoin:round;-inkscape-stroke:none" transform="rotate(160.12 110.64 114.783)"/><path d="M122.342 130.579c-.22.005-.462.078-.661.104q.02.05.04.096c-.206.088-.375.206-.367.347.38.14.755.228 1.084.227s.703-.092 1.081-.236c.007-.141-.162-.257-.37-.344q.022-.046.041-.096c-.228-.028-.512-.118-.755-.096a1 1 0 0 0-.093-.003z" style="fill:#ac8144;fill-opacity:1;stroke:none;stroke-width:.264583;stroke-linecap:round;stroke-linejoin:round;stroke-dasharray:none;stroke-opacity:1" transform="rotate(160.12 110.64 114.783)"/><path d="M122.416 130.36c-.607.05-1.054.248-1.338.552a1.38 1.38 0 0 0-.348 1.094c.08.78.68 1.562 1.543 1.892a.2.2 0 0 0 .082.016l.186-.002a.2.2 0 0 0 .08-.016c.861-.337 1.457-1.123 1.53-1.904a1.38 1.38 0 0 0-.358-1.09c-.286-.301-.734-.496-1.342-.543h-.035m.02.454c.514.044.843.2 1.03.397.192.201.262.453.235.74-.053.567-.536 1.231-1.223 1.512h-.064c-.688-.275-1.18-.935-1.236-1.502-.03-.287.039-.54.228-.742.186-.2.515-.357 1.03-.405" style="color:#000;fill:#3d2200;fill-opacity:1;stroke-linecap:round;stroke-linejoin:round;-inkscape-stroke:none" transform="rotate(160.12 110.64 114.783)"/><path d="M122.435 130.584c-2.274.192-1.646 2.505-.08 3.105l.185-.001c1.56-.612 2.17-2.93-.105-3.104" style="color:#000;fill:#aa6300;stroke-linecap:round;stroke-linejoin:round;-inkscape-stroke:none" transform="rotate(-68.217 88.915 139.259)"/><path d="M122.342 130.579c-.22.005-.462.078-.661.104q.02.05.04.096c-.206.088-.375.206-.367.347.38.14.755.228 1.084.227s.703-.092 1.081-.236c.007-.141-.162-.257-.37-.344q.022-.046.041-.096c-.228-.028-.512-.118-.755-.096a1 1 0 0 0-.093-.003z" style="fill:#ac8144;fill-opacity:1;stroke:none;stroke-width:.264583;stroke-linecap:round;stroke-linejoin:round;stroke-dasharray:none;stroke-opacity:1" transform="rotate(-68.217 88.915 139.259)"/><path d="M122.416 130.36c-.607.05-1.054.248-1.338.552a1.38 1.38 0 0 0-.348 1.094c.08.78.68 1.562 1.543 1.892a.2.2 0 0 0 .082.016l.186-.002a.2.2 0 0 0 .08-.016c.861-.337 1.457-1.123 1.53-1.904a1.38 1.38 0 0 0-.358-1.09c-.286-.301-.734-.496-1.342-.543h-.035m.02.454c.514.044.843.2 1.03.397.192.201.262.453.235.74-.053.567-.536 1.231-1.223 1.512h-.064c-.688-.275-1.18-.935-1.236-1.502-.03-.287.039-.54.228-.742.186-.2.515-.357 1.03-.405" style="color:#000;fill:#3d2200;fill-opacity:1;stroke-linecap:round;stroke-linejoin:round;-inkscape-stroke:none" transform="rotate(-68.217 88.915 139.259)"/><path d="M122.435 130.584c-2.274.192-1.646 2.505-.08 3.105l.185-.001c1.56-.612 2.17-2.93-.105-3.104" style="color:#000;fill:#aa6300;stroke-linecap:round;stroke-linejoin:round;-inkscape-stroke:none" transform="rotate(64.873 127.578 92.115)"/><path d="M122.342 130.579c-.22.005-.462.078-.661.104q.02.05.04.096c-.206.088-.375.206-.367.347.38.14.755.228 1.084.227s.703-.092 1.081-.236c.007-.141-.162-.257-.37-.344q.022-.046.041-.096c-.228-.028-.512-.118-.755-.096a1 1 0 0 0-.093-.003z" style="fill:#ac8144;fill-opacity:1;stroke:none;stroke-width:.264583;stroke-linecap:round;stroke-linejoin:round;stroke-dasharray:none;stroke-opacity:1" transform="rotate(64.873 127.578 92.115)"/><path d="M122.416 130.36c-.607.05-1.054.248-1.338.552a1.38 1.38 0 0 0-.348 1.094c.08.78.68 1.562 1.543 1.892a.2.2 0 0 0 .082.016l.186-.002a.2.2 0 0 0 .08-.016c.861-.337 1.457-1.123 1.53-1.904a1.38 1.38 0 0 0-.358-1.09c-.286-.301-.734-.496-1.342-.543h-.035m.02.454c.514.044.843.2 1.03.397.192.201.262.453.235.74-.053.567-.536 1.231-1.223 1.512h-.064c-.688-.275-1.18-.935-1.236-1.502-.03-.287.039-.54.228-.742.186-.2.515-.357 1.03-.405" style="color:#000;fill:#3d2200;fill-opacity:1;stroke-linecap:round;stroke-linejoin:round;-inkscape-stroke:none" transform="rotate(64.873 127.578 92.115)"/><path d="M122.435 130.584c-2.274.192-1.646 2.505-.08 3.105l.185-.001c1.56-.612 2.17-2.93-.105-3.104" style="color:#000;fill:#aa6300;stroke-linecap:round;stroke-linejoin:round;-inkscape-stroke:none" transform="rotate(-39.502 69.31 160.844)"/><path d="M122.342 130.579c-.22.005-.462.078-.661.104q.02.05.04.096c-.206.088-.375.206-.367.347.38.14.755.228 1.084.227s.703-.092 1.081-.236c.007-.141-.162-.257-.37-.344q.022-.046.041-.096c-.228-.028-.512-.118-.755-.096a1 1 0 0 0-.093-.003z" style="fill:#ac8144;fill-opacity:1;stroke:none;stroke-width:.264583;stroke-linecap:round;stroke-linejoin:round;stroke-dasharray:none;stroke-opacity:1" transform="rotate(-39.502 69.31 160.844)"/><path d="M122.416 130.36c-.607.05-1.054.248-1.338.552a1.38 1.38 0 0 0-.348 1.094c.08.78.68 1.562 1.543 1.892a.2.2 0 0 0 .082.016l.186-.002a.2.2 0 0 0 .08-.016c.861-.337 1.457-1.123 1.53-1.904a1.38 1.38 0 0 0-.358-1.09c-.286-.301-.734-.496-1.342-.543h-.035m.02.454c.514.044.843.2 1.03.397.192.201.262.453.235.74-.053.567-.536 1.231-1.223 1.512h-.064c-.688-.275-1.18-.935-1.236-1.502-.03-.287.039-.54.228-.742.186-.2.515-.357 1.03-.405" style="color:#000;fill:#3d2200;fill-opacity:1;stroke-linecap:round;stroke-linejoin:round;-inkscape-stroke:none" transform="rotate(-39.502 69.31 160.844)"/></g></svg>