<?xml version="1.0" encoding="UTF-8" standalone="no"?>
<!-- Created with Inkscape (http://www.inkscape.org/) -->

<svg
   width="24.29014mm"
   height="24.288837mm"
   viewBox="0 0 24.29014 24.288837"
   version="1.1"
   id="svg1"
   xml:space="preserve"
   xmlns="http://www.w3.org/2000/svg"
   xmlns:svg="http://www.w3.org/2000/svg"><defs
     id="defs1" /><g
     id="layer1"
     transform="translate(46.815604,-303.61113)"><g
       id="layer1-1"
       transform="translate(-1.3532488,40.00965)"><g
         id="g6300"
         transform="translate(266.83644,23.028157)"><g
           id="layer1-12"
           transform="translate(-218.75585,81.480402)"><g
             id="g58775"
             transform="translate(-93.54064,159.09292)"
             style="stroke-width:1.3890625;stroke-dasharray:none"><rect
               ry="0"
               rx="0"
               y="0.69453782"
               x="0.69453752"
               height="22.898762"
               width="22.898762"
               id="rect58769"
               style="fill:#af7a53;fill-opacity:1;fill-rule:nonzero;stroke:#342418;stroke-width:1.3890625;stroke-linecap:round;stroke-linejoin:round;stroke-miterlimit:4;stroke-dasharray:none;stroke-dashoffset:0;stroke-opacity:1;paint-order:normal" /><path
               id="path58771"
               style="fill:#ffffff;stroke-width:1.3890625;stroke-dasharray:none"
               d="m 17.575694,2.8974701 a 2.1811266,2.1811266 0 0 0 -1.890243,2.1558186 2.1811266,2.1811266 0 0 0 0.03225,0.3595956 2.1811266,2.1811266 0 0 0 -0.326536,0.1505552 2.1811266,2.1811266 0 0 0 -0.922051,2.7156496 l 0.06795,-0.03915 A 1.5267886,1.5267886 0 0 1 15.21445,6.421066 1.5267886,1.5267886 0 0 1 16.050311,6.2182656 1.5267886,1.5267886 0 0 1 17.258833,6.9200418 l 0.199456,-0.1156502 a 0.43622528,0.43622528 0 0 1 -0.0279,-0.1515002 0.43622528,0.43622528 0 0 1 0.363075,-0.4292408 V 5.9919903 A 1.5267885,1.5267885 0 0 1 16.339422,4.4717527 1.5267885,1.5267885 0 0 1 17.575784,2.9741802 Z m 0.581626,0 v 0.07665 a 1.5267885,1.5267885 0 0 1 1.236362,1.4975725 1.5267885,1.5267885 0 0 1 -1.454028,1.5245726 v 0.2273704 a 0.43622528,0.43622528 0 0 1 0.363091,0.4292408 0.43622528,0.43622528 0 0 1 -0.0279,0.1515002 L 18.4743,6.9200268 a 1.5267886,1.5267886 0 0 1 1.208492,-0.7017762 1.5267886,1.5267886 0 0 1 0.835877,0.2028004 1.5267886,1.5267886 0 0 1 0.679996,1.820613 l 0.0696,0.04005 A 2.1811266,2.1811266 0 0 0 20.341848,5.5634545 2.1811266,2.1811266 0 0 0 20.015343,5.4128993 2.1811266,2.1811266 0 0 0 20.047593,5.0533187 2.1811266,2.1811266 0 0 0 18.15735,2.8974851 Z m -0.290806,1.792743 c -0.45942,0 -0.882151,0.1605753 -1.217207,0.4266457 a 1.3813801,1.3813801 0 0 0 0.315181,0.3952807 c 0.247605,-0.1956454 0.560176,-0.3134256 0.902026,-0.3134256 0.343231,0 0.657436,0.1180502 0.905522,0.3151656 a 1.3813801,1.3813801 0 0 0 0.31431,-0.3952807 C 18.750871,4.8513134 18.327075,4.6902131 17.866514,4.6902131 Z m -1.823223,1.6734628 a 1.3813801,1.3813801 0 0 0 -0.1167,0.0045 c -0.015,0.093 -0.02385,0.1872903 -0.02385,0.2838455 0,0.8271463 0.517531,1.5358975 1.244192,1.824093 a 1.3813801,1.3813801 0 0 0 0.18633,-0.4710458 C 16.792858,7.7934483 16.412097,7.2696174 16.412097,6.6520214 c 0,-0.07065 0.0075,-0.1393503 0.01665,-0.2070904 a 1.3813801,1.3813801 0 0 0 -0.385711,-0.0819 z m 3.646431,0 a 1.3813801,1.3813801 0 0 0 -0.385695,0.0819 c 0.009,0.06795 0.01665,0.1365002 0.01665,0.2070904 0,0.616051 -0.378556,1.1394769 -0.916832,1.3521772 a 1.3813801,1.3813801 0 0 0 0.185386,0.4710458 c 0.724936,-0.2890205 1.240742,-0.9973367 1.240742,-1.823223 0,-0.0966 -0.009,-0.1908604 -0.02385,-0.2838455 a 1.3813801,1.3813801 0 0 0 -0.116701,-0.0045 z M 17.531294,6.9304968 17.334463,7.044497 A 1.5267886,1.5267886 0 0 1 16.740657,9.0653604 1.5267886,1.5267886 0 0 1 14.827764,8.7431898 l -0.06795,0.03915 a 2.1811266,2.1811266 0 0 0 2.812325,0.558976 2.1811266,2.1811266 0 0 0 0.296025,-0.2063703 2.1811266,2.1811266 0 0 0 0.292561,0.2063703 2.1811266,2.1811266 0 0 0 2.81231,-0.5589759 l -0.06795,-0.03915 A 1.5267886,1.5267886 0 0 1 18.992191,9.0653604 1.5267886,1.5267886 0 0 1 18.400995,7.046237 L 18.20154,6.9311868 a 0.43622528,0.43622528 0 0 1 -0.335206,0.1576953 0.43622528,0.43622528 0 0 1 -0.33522,-0.1584153 z" /><path
               id="path58773"
               d="M 12.143988,0.69453193 V 23.593285"
               style="fill:none;stroke:#342418;stroke-width:1.3890625;stroke-linecap:round;stroke-linejoin:round;stroke-miterlimit:4;stroke-dasharray:none;stroke-opacity:1;paint-order:normal" /></g><path
             style="fill:#c9d1d9;fill-opacity:1;stroke:#a2a5c0;stroke-width:1.38900005;stroke-linecap:round;stroke-linejoin:round;stroke-dasharray:none;stroke-opacity:1"
             d="m -69.94734,171.23684 v 11.44938 h -17.350239 c -0.510711,-0.46686 -1.428617,-7.00212 2.616305,-6.96712 1.290876,0.0112 4.266084,1.70701 5.907779,-0.33759 2.190463,-2.72805 7.871457,-8.45281 8.826158,-4.14467 z"
             id="path1" /><path
             style="fill:#c9d1d9;fill-opacity:1;stroke:#a2a5c0;stroke-width:1.389;stroke-linecap:round;stroke-linejoin:round;stroke-dasharray:none;stroke-opacity:1"
             d="m -83.599062,166.35216 c 0.262493,1.06912 1.51373,2.00195 1.350774,3.16343 -0.356269,2.53937 -4.109574,2.94778 -5.808328,1.65048 -2.926394,-2.23479 -3.543993,-7.76599 -1.215696,-8.59626 3.321067,-1.22984 4.991684,-0.0515 5.67325,3.78235 z"
             id="path2" /></g></g></g></g></svg>
