<?xml version="1.0" encoding="UTF-8" standalone="no"?>
<!-- Created with Inkscape (http://www.inkscape.org/) -->

<svg
   width="187.93051"
   height="109.76546"
   viewBox="0 0 49.72328 29.04211"
   version="1.1"
   id="svg1"
   inkscape:version="1.3 (0e150ed, 2023-07-21)"
   sodipodi:docname="cooler.svg"
   xmlns:inkscape="http://www.inkscape.org/namespaces/inkscape"
   xmlns:sodipodi="http://sodipodi.sourceforge.net/DTD/sodipodi-0.dtd"
   xmlns="http://www.w3.org/2000/svg"
   xmlns:svg="http://www.w3.org/2000/svg">
  <sodipodi:namedview
     id="namedview1"
     pagecolor="#505050"
     bordercolor="#ffffff"
     borderopacity="1"
     inkscape:showpageshadow="0"
     inkscape:pageopacity="0"
     inkscape:pagecheckerboard="1"
     inkscape:deskcolor="#505050"
     inkscape:document-units="px"
     inkscape:zoom="3"
     inkscape:cx="63.833333"
     inkscape:cy="61.333333"
     inkscape:window-width="1440"
     inkscape:window-height="701"
     inkscape:window-x="0"
     inkscape:window-y="25"
     inkscape:window-maximized="0"
     inkscape:current-layer="layer1" />
  <defs
     id="defs1" />
  <g
     inkscape:label="Layer 1"
     inkscape:groupmode="layer"
     id="layer1"
     transform="translate(-133.85726,-184.43637)">
    <path
       id="path14"
       class="st21"
       d="m 157.00734,210.29144 h 3.42251 c 0.24018,0 0.42031,0.21932 0.42031,0.51175 v 1.16972 c 0,0.29243 -0.18013,0.51175 -0.42031,0.51175 h -3.42251 c -0.24017,0 -0.4203,-0.21932 -0.4203,-0.51175 v -1.16972 c 0,-0.29243 0.18013,-0.51175 0.4203,-0.51175 z"
       style="fill:#727272;fill-opacity:1;stroke:#4d4d4d;stroke-width:1.98764;stroke-linecap:round;stroke-linejoin:round;stroke-miterlimit:11.3386;stroke-opacity:1" />
    <path
       id="path12"
       class="st0"
       d="m 139.54909,195.26662 v 6.87504 c 0,0.24018 -0.21932,0.42031 -0.51175,0.42031 h -3.9478 c -0.29244,0 -0.51176,-0.18013 -0.51176,-0.42031 v -6.87504 c 0,-0.24018 0.21932,-0.42031 0.51176,-0.42031 h 3.9478 c 0.29243,0.03 0.51175,0.21015 0.51175,0.42031 z"
       style="fill:none;stroke:#4d4d4d;stroke-width:1.44104;stroke-linecap:round;stroke-linejoin:round;stroke-miterlimit:11.3386;stroke-opacity:1" />
    <path
       id="path13"
       class="st0"
       d="m 182.86002,195.26662 v 6.87504 c 0,0.24018 -0.21933,0.42031 -0.51176,0.42031 h -3.9478 c -0.29243,0 -0.51176,-0.18013 -0.51176,-0.42031 v -6.87504 c 0,-0.24018 0.21933,-0.42031 0.51176,-0.42031 h 3.9478 c 0.29243,0.03 0.51176,0.21015 0.51176,0.42031 z"
       style="fill:none;stroke:#4d4d4d;stroke-width:1.44104;stroke-linecap:round;stroke-linejoin:round;stroke-miterlimit:11.3386;stroke-opacity:1" />
    <path
       id="path4"
       class="st21"
       d="m 144.63827,185.46675 h 3.42251 c 0.24018,0 0.42031,0.21932 0.42031,0.51175 v 1.16972 c 0,0.29243 -0.18013,0.51175 -0.42031,0.51175 h -3.42251 c -0.24017,0 -0.42031,-0.21932 -0.42031,-0.51175 v -1.16972 c 0,-0.29243 0.18014,-0.51175 0.42031,-0.51175 z"
       style="fill:#1c302b;fill-opacity:1;stroke:#1c312b;stroke-width:1.98764;stroke-linecap:round;stroke-linejoin:round;stroke-miterlimit:11.3386;stroke-opacity:1" />
    <path
       id="path5"
       class="st21"
       d="m 169.40644,187.62342 h 3.42251 c 0.24018,0 0.42031,-0.21932 0.42031,-0.51175 v -1.16973 c 0,-0.29242 -0.18013,-0.51175 -0.42031,-0.51175 h -3.42251 c -0.24018,0 -0.42031,0.21933 -0.42031,0.51175 v 1.16973 c 0,0.29243 0.18013,0.51175 0.42031,0.51175 z"
       style="fill:#1c302b;fill-opacity:1;stroke:#1c312b;stroke-width:1.98764;stroke-linecap:round;stroke-linejoin:round;stroke-miterlimit:11.3386;stroke-opacity:1" />
    <path
       id="path6"
       class="st22"
       d="m 140.3151,187.62342 h 36.807 c 1.65121,0 3.0022,1.64492 3.0022,3.65537 v 15.86434 c 0,2.01046 -1.35099,3.65538 -3.0022,3.65538 h -36.807 c -1.65121,0 -3.0022,-1.64492 -3.0022,-3.65538 v -15.86434 c 0,-2.01045 1.35099,-3.65537 3.0022,-3.65537 z"
       style="fill:#2e3726;stroke:#2e3726;stroke-width:1.98764;stroke-linecap:round;stroke-linejoin:round;stroke-miterlimit:11.3386" />
    <path
       id="path7"
       class="st24"
       d="m 140.3151,187.62342 h 36.807 c 1.65121,0 3.0022,1.64492 3.0022,3.65537 v 15.86434 c 0,2.01046 -1.35099,3.65538 -3.0022,3.65538 h -36.807 c -1.65121,0 -3.0022,-1.64492 -3.0022,-3.65538 v -15.86434 c 0,-2.01045 1.35099,-3.65537 3.0022,-3.65537 z"
       style="fill:#406c65;fill-opacity:1;stroke:#1c302b;stroke-width:1.98764;stroke-linecap:round;stroke-linejoin:round;stroke-miterlimit:11.3386;stroke-opacity:1" />
    <rect
       style="fill:#1c302b;fill-opacity:1;stroke:none;stroke-width:1.68435;stroke-opacity:1;stop-color:#000000"
       id="rect7"
       width="35.505341"
       height="1.9868299"
       x="141.05542"
       y="191.04865"
       rx="0.76951581"
       ry="0.9369356" />
    <rect
       style="fill:#1c302b;fill-opacity:1;stroke:none;stroke-width:1.68435;stroke-opacity:1;stop-color:#000000"
       id="rect9"
       width="35.505341"
       height="1.9868299"
       x="141.05542"
       y="204.90268"
       rx="0.76951581"
       ry="0.9369356" />
    <path
       id="rect72023"
       style="fill:#c9d1d9;fill-opacity:1;stroke:#a2a5c0;stroke-width:1.98437496;stroke-linecap:round;stroke-linejoin:round;stroke-dasharray:none;stroke-opacity:1;stop-color:#000000"
       d="m 137.02285,208.13685 c 0.88718,4.05775 3.37357,2.96339 8.68256,3.00982 4.39209,0.0384 9.68413,0.004 13.21011,0.004 -0.0725,-0.093 -0.63712,-2.30601 -0.72685,-2.38161 -4.07987,-3.3497 -11.45614,-3.2575 -14.36915,-8.5344 -1.14515,-3.443 0.30692,-10.30415 -1.40365,-13.08945 0.26921,0.0573 -4.3778,-1.32439 -5.46001,3.59965 0,6.0949 -0.32562,15.84609 0.067,17.3916 z m 43.51284,-7.75099 c -0.0712,-2.70029 0.53106,-9.69943 -0.98247,-11.9588 -0.94534,-1.48074 -7.62934,-1.32197 -9.92945,-1.15838 -0.0324,0.8147 2.69135,2.10156 3.15931,3.63074 1.18073,5.10122 4.89946,8.98764 7.75261,9.48644 z"
       sodipodi:nodetypes="cscccccccccccc" />
  </g>
</svg>
