<?xml version="1.0" encoding="UTF-8" standalone="no"?>
<!-- Created with Inkscape (http://www.inkscape.org/) -->

<svg
   width="39.836823mm"
   height="76.604408mm"
   viewBox="0 0 39.836823 76.604408"
   version="1.1"
   id="svg1"
   inkscape:version="1.3 (0e150ed, 2023-07-21)"
   sodipodi:docname="dumpster_snow_2.svg"
   xmlns:inkscape="http://www.inkscape.org/namespaces/inkscape"
   xmlns:sodipodi="http://sodipodi.sourceforge.net/DTD/sodipodi-0.dtd"
   xmlns="http://www.w3.org/2000/svg"
   xmlns:svg="http://www.w3.org/2000/svg">
  <sodipodi:namedview
     id="namedview1"
     pagecolor="#ffffff"
     bordercolor="#000000"
     borderopacity="0.25"
     inkscape:showpageshadow="2"
     inkscape:pageopacity="0.0"
     inkscape:pagecheckerboard="0"
     inkscape:deskcolor="#d1d1d1"
     inkscape:document-units="mm"
     inkscape:zoom="3.8155135"
     inkscape:cx="90.813464"
     inkscape:cy="52.155496"
     inkscape:window-width="1440"
     inkscape:window-height="749"
     inkscape:window-x="0"
     inkscape:window-y="25"
     inkscape:window-maximized="0"
     inkscape:current-layer="layer1" />
  <defs
     id="defs1" />
  <g
     inkscape:label="Στρώση 1"
     inkscape:groupmode="layer"
     id="layer1"
     transform="translate(-57.116219,-69.317315)">
    <path
       style="fill:#171717;fill-opacity:1;fill-rule:evenodd;stroke:#262626;stroke-width:1.5875;stroke-linecap:round;stroke-linejoin:round;stroke-dasharray:none;stroke-opacity:1"
       d="M 58.11754,137.49814 V 78.11258"
       id="path19358" />
    <path
       id="path19360"
       style="fill:#3c7033;fill-opacity:1;stroke:#11200e;stroke-width:2.38125;stroke-linecap:square;stroke-linejoin:round;stroke-miterlimit:5;stroke-dasharray:none;stroke-opacity:1"
       d="m 63.30578,144.7311 c 0,-24.74105 0,-49.48211 0,-74.22316 10.1816,0 20.36321,0 30.54481,0 0,24.74105 0,49.48211 0,74.22316 -10.1816,0 -20.36321,0 -30.54481,0 z" />
    <path
       style="fill:#c9d1d9;stroke:#a2a5c0;stroke-width:2.38125;stroke-linecap:round;stroke-linejoin:round;stroke-dasharray:none"
       d="M 69.459468,70.50794 H 63.30578 v 8.656237 c 3.475195,-0.26256 5.765904,-5.619819 6.153688,-8.656237 z"
       id="path13" />
    <path
       style="fill:#c9d1d9;stroke:#a2a5c0;stroke-width:2.38125;stroke-linecap:round;stroke-linejoin:round;stroke-dasharray:none"
       d="M 93.85059,144.7311 H 68.128455 c 2.912562,-0.54778 5.741376,-1.86006 8.139479,-3.59485 4.585559,-3.31722 4.562161,-9.10352 9.097064,-11.25164 0.941653,-0.44604 6.556848,-1.50526 7.652202,-0.95758 1.674603,0.8373 0.79375,13.08342 0.83339,15.80407 z"
       id="path8"
       sodipodi:nodetypes="cccssc" />
    <rect
       style="fill:#3c7033;fill-opacity:1;stroke:#11200e;stroke-width:2.381;stroke-linecap:square;stroke-linejoin:round;stroke-miterlimit:5;stroke-dasharray:none;stroke-opacity:1"
       id="rect19362"
       width="67.859756"
       height="34.368706"
       x="-141.53703"
       y="61.393833"
       transform="rotate(-90)" />
    <path
       id="path19364"
       style="fill:#383838;stroke:#171717;stroke-width:1.5875;stroke-linecap:square;stroke-linejoin:round;stroke-miterlimit:5"
       d="M 60.99709,138.57994 V 107.65501 H 93.0172 v 30.92493 z"
       sodipodi:nodetypes="ccccc" />
    <rect
       style="fill:#171717;fill-opacity:1;fill-rule:evenodd;stroke:#171717;stroke-width:2.38125;stroke-linecap:round;stroke-linejoin:round;stroke-dasharray:none;stroke-opacity:1"
       id="rect19366"
       width="2.6554565"
       height="2.2933533"
       x="-137.12476"
       y="58.306843"
       transform="rotate(-90)" />
    <rect
       style="fill:#171717;fill-opacity:1;fill-rule:evenodd;stroke:#171717;stroke-width:2.38125;stroke-linecap:round;stroke-linejoin:round;stroke-dasharray:none;stroke-opacity:1"
       id="rect19368"
       width="2.6554565"
       height="2.2933533"
       x="-111.76566"
       y="58.306843"
       transform="rotate(-90)" />
    <g
       id="g19376"
       transform="rotate(-90,115.21444,219.63728)">
      <rect
         style="fill:#383838;fill-opacity:1;stroke:#262626;stroke-width:1.5875;stroke-linecap:square;stroke-linejoin:round;stroke-miterlimit:5;stroke-dasharray:none;stroke-opacity:1"
         id="rect19370"
         width="4.4884477"
         height="24.405973"
         x="199.97905"
         y="169.20058" />
      <rect
         style="fill:#383838;fill-opacity:1;stroke:#262626;stroke-width:1.5875;stroke-linecap:square;stroke-linejoin:round;stroke-miterlimit:5;stroke-dasharray:none;stroke-opacity:1"
         id="rect19372"
         width="4.4884477"
         height="24.405973"
         x="209.49002"
         y="169.28186" />
      <rect
         style="fill:#383838;fill-opacity:1;stroke:#262626;stroke-width:1.5875;stroke-linecap:square;stroke-linejoin:round;stroke-miterlimit:5;stroke-dasharray:none;stroke-opacity:1"
         id="rect19374"
         width="4.4884477"
         height="24.405973"
         x="219.00099"
         y="169.17213" />
    </g>
    <path
       id="path19378"
       style="fill:#383838;stroke:#171717;stroke-width:1.5875;stroke-linecap:square;stroke-linejoin:round;stroke-miterlimit:5"
       d="M 60.99709,107.655 V 76.73007 H 93.01721 V 107.655 Z"
       sodipodi:nodetypes="ccccc" />
    <rect
       style="fill:#171717;fill-opacity:1;fill-rule:evenodd;stroke:#171717;stroke-width:2.38125;stroke-linecap:round;stroke-linejoin:round;stroke-dasharray:none;stroke-opacity:1"
       id="rect19380"
       width="2.6554565"
       height="2.2933533"
       x="-80.840721"
       y="58.306843"
       transform="rotate(-90)" />
    <rect
       style="fill:#171717;fill-opacity:1;fill-rule:evenodd;stroke:#171717;stroke-width:2.38125;stroke-linecap:round;stroke-linejoin:round;stroke-dasharray:none;stroke-opacity:1"
       id="rect19382"
       width="2.6554565"
       height="2.2933533"
       x="-106.19981"
       y="58.306843"
       transform="rotate(-90)" />
    <g
       id="g19390"
       transform="rotate(-90,99.751973,204.17481)">
      <rect
         style="fill:#383838;fill-opacity:1;stroke:#262626;stroke-width:1.5875;stroke-linecap:square;stroke-linejoin:round;stroke-miterlimit:5;stroke-dasharray:none;stroke-opacity:1"
         id="rect19384"
         width="4.4884477"
         height="24.405973"
         x="199.97905"
         y="169.20058" />
      <rect
         style="fill:#383838;fill-opacity:1;stroke:#262626;stroke-width:1.5875;stroke-linecap:square;stroke-linejoin:round;stroke-miterlimit:5;stroke-dasharray:none;stroke-opacity:1"
         id="rect19386"
         width="4.4884477"
         height="24.405973"
         x="209.49002"
         y="169.28186" />
      <rect
         style="fill:#383838;fill-opacity:1;stroke:#262626;stroke-width:1.5875;stroke-linecap:square;stroke-linejoin:round;stroke-miterlimit:5;stroke-dasharray:none;stroke-opacity:1"
         id="rect19388"
         width="4.4884477"
         height="24.405973"
         x="219.00099"
         y="169.17213" />
    </g>
    <path
       style="fill:#c9d1d9;stroke:#a2a5c0;stroke-width:2.38125;stroke-linecap:round;stroke-linejoin:round;stroke-dasharray:none"
       d="M 81.774051,141.53703 H 61.393833 v -26.57479 c 2.304825,-0.15083 3.777263,1.02297 4.500255,3.19195 1.455884,4.36765 -0.342618,9.62442 2.553562,13.486 1.27483,1.69977 5.763597,1.45294 7.660686,1.99497 3.906752,1.11621 4.460082,4.67782 5.665715,7.90187 z"
       id="path9" />
    <path
       style="fill:#c9d1d9;stroke:#a2a5c0;stroke-width:2.38125;stroke-linecap:round;stroke-linejoin:round;stroke-dasharray:none"
       d="m 95.762539,91.421586 4e-6,-17.744309 H 61.393833 V 84.39929 c 2.02589,-0.183822 11.117504,-3.762647 13.59732,-2.63336 4.287752,1.952606 2.609985,9.279029 6.623301,12.289017 4.714063,3.535546 13.876145,2.931139 14.148085,-2.633361 z"
       id="path10"
       sodipodi:nodetypes="ccccssc" />
    <path
       style="fill:#c9d1d9;stroke:#a2a5c0;stroke-width:2.38125;stroke-linecap:round;stroke-linejoin:round;stroke-dasharray:none"
       d="m 72.118395,94.77314 c 2.990793,8.80661 20.977534,2.66202 16.518354,16.03956 -1.039596,3.11878 -12.150799,1.11942 -14.204189,0.23939 -1.818992,-0.77956 -3.78718,-2.94899 -5.107123,-4.38893 -3.090697,-3.37167 -7.158277,-10.35309 -5.266722,-15.081976 0.280498,-0.701247 1.316124,-0.897459 1.915172,-1.196983 4.125063,-2.062533 4.91673,1.524119 6.144508,4.388939 z"
       id="path11" />
    <path
       style="fill:#c9d1d9;stroke:#a2a5c0;stroke-width:2.38125;stroke-linecap:round;stroke-linejoin:round;stroke-dasharray:none"
       d="m 78.821496,118.15419 c 3.540581,3.68633 8.681473,-0.73433 12.368815,0.3192 7.010813,2.00309 4.654963,18.32713 -0.239397,17.71533 -2.822708,-0.35284 -23.331279,-18.03453 -12.129418,-18.03453 z"
       id="path12" />
  </g>
</svg>
