<svg xmlns="http://www.w3.org/2000/svg" xml:space="preserve" width="185" height="185" viewBox="0 0 48.948 48.948"><g transform="translate(-124.211 -176.418)"><path d="M132.058 184.265h33.152v33.152h-33.152z" style="fill:#d96300;fill-opacity:1;stroke:none;stroke-width:1.5658;stroke-linecap:butt;stroke-linejoin:miter;stroke-miterlimit:4;stroke-dasharray:none;stroke-opacity:1"/><path d="M125.193 177.4v46.985h46.985v-46.986zm7.927 7.927h31.13v31.13h-31.13z" style="fill:#da6a0b;fill-opacity:1;stroke-width:0;stroke-linecap:round"/><path d="M132.058 184.265h33.152v33.152h-33.152z" style="fill:none;fill-opacity:1;stroke:none;stroke-width:1.96165;stroke-linecap:butt;stroke-linejoin:bevel;stroke-miterlimit:4;stroke-dasharray:none;stroke-opacity:1"/><circle cx="129.267" cy="181.474" r="1.622" style="fill:gray;fill-opacity:1;stroke:#2e2e2e;stroke-width:.980823;stroke-linecap:round;stroke-linejoin:round;stroke-opacity:1"/><circle cx="168.104" cy="181.474" r="1.622" style="fill:gray;fill-opacity:1;stroke:#2e2e2e;stroke-width:.980823;stroke-linecap:round;stroke-linejoin:round;stroke-opacity:1"/><circle cx="129.267" cy="220.31" r="1.622" style="fill:gray;fill-opacity:1;stroke:#2e2e2e;stroke-width:.980823;stroke-linecap:round;stroke-linejoin:round;stroke-opacity:1"/><circle cx="168.104" cy="220.31" r="1.622" style="fill:gray;fill-opacity:1;stroke:#2e2e2e;stroke-width:.980823;stroke-linecap:round;stroke-linejoin:round;stroke-opacity:1"/><path d="M133.119 185.326h31.132v31.132h-31.132z" style="fill:#383838;fill-opacity:1;stroke:#8e4507;stroke-width:1.96165;stroke-linecap:butt;stroke-linejoin:miter;stroke-miterlimit:4;stroke-dasharray:none;stroke-opacity:1"/><path d="M125.192 177.399h46.986v46.986h-46.986z" style="fill:none;fill-opacity:1;stroke:#8e4507;stroke-width:1.96165;stroke-linecap:round;stroke-linejoin:round;stroke-miterlimit:4;stroke-dasharray:none;stroke-opacity:1"/><path d="M164.251 185.326h7.847M164.251 216.458h7.847M125.273 216.458h7.846M125.273 185.326h7.846" style="fill:none;stroke:#8e4507;stroke-width:1.96165;stroke-linecap:butt;stroke-linejoin:miter;stroke-miterlimit:4;stroke-dasharray:none;stroke-opacity:1"/><path d="M24.474 12.725q-.903.002-1.774.122l-.743 2.222a10.8 10.8 0 0 0-3.2 1.325l-2.095-1.045a13 13 0 0 0-2.508 2.508l1.045 2.095a10.8 10.8 0 0 0-1.324 3.2l-2.223.744a13 13 0 0 0 0 3.546l2.223.743a10.8 10.8 0 0 0 1.324 3.2l-1.045 2.096a13 13 0 0 0 2.09 2.176q.099-.18.185-.365c.167-.366.318-.738.465-1.112q.19-.48.361-.968c.114-.303.187-.62.273-.931q.081-.313.167-.625l.072-.22a8.846 8.846 0 1 1 13.022.426q.166.555.344 1.104a60 60 0 0 1 .849 2.87l.304.152a13 13 0 0 0 2.508-2.507l-1.045-2.096a10.8 10.8 0 0 0 1.324-3.2l2.223-.743a13 13 0 0 0 0-3.546l-2.223-.743a10.8 10.8 0 0 0-1.325-3.2l1.046-2.096a13 13 0 0 0-2.508-2.508l-2.096 1.045a10.8 10.8 0 0 0-3.2-1.325l-.743-2.222q-.87-.121-1.773-.122z" style="fill:#a9a9b4;fill-opacity:1;stroke:#51515d;stroke-width:.571703;stroke-dasharray:none;stroke-opacity:1" transform="translate(124.211 176.418)"/><path d="M24.72 19.028c-.04.004-.086.031-.141.094-.11.127-.258.397-.458.822s-.454 1.006-.69 1.55l-.63 1.438c-.172.389-.295.659-.405.933-.11.273-.209.551-.299.817q-.133.4-.249.756l-.208.634c-.058.176-.099.307-.078.45.02.143.102.298.176.482.073.184.139.397.147.564a.52.52 0 0 1-.119.38.9.9 0 0 1-.302.205c-.119.057-.25.114-.36.192s-.2.176-.282.286a1.7 1.7 0 0 0-.213.372.95.95 0 0 0-.085.425c.012.131.077.237.184.323.106.086.253.152.376.262.122.11.22.266.22.409s-.098.274-.224.4a5 5 0 0 1-.426.36c-.143.11-.274.209-.392.323a2.2 2.2 0 0 0-.315.384c-.09.14-.163.286-.225.421-.061.135-.11.258-.175.405-.066.147-.148.319-.217.47-.07.151-.127.282-.188.434-.061.15-.127.322-.213.494s-.192.343-.274.49c-.081.148-.139.27-.196.389q-.085.177-.172.348a1.1 1.1 0 0 0-.13.368c-.017.139.008.302.143.38.135.077.38.07.699.04.319-.028.711-.077 1.067-.11.355-.033.674-.049.915-.073.242-.025.405-.058.65-.115.246-.057.573-.139.79-.253a.9.9 0 0 0 .412-.454c.09-.192.164-.43.237-.638.074-.208.148-.388.23-.584.081-.197.171-.41.228-.58.057-.173.082-.303.168-.41a.67.67 0 0 1 .793-.163.62.62 0 0 1 .27.253c.061.106.094.23.18.393s.225.368.351.6c.127.234.241.495.36.736.119.242.241.462.388.618s.32.245.564.327c.246.081.565.155.839.212s.502.098.8.143c.3.045.667.094.945.131s.466.062.642.053c.176-.008.34-.049.392-.106.054-.057-.004-.13-.098-.372-.094-.241-.225-.65-.4-1.165s-.397-1.137-.552-1.643c-.156-.507-.246-.9-.315-1.194-.07-.294-.119-.49-.18-.63a1 1 0 0 0-.245-.33c-.11-.111-.258-.25-.425-.352-.168-.103-.356-.168-.511-.237-.156-.07-.278-.144-.323-.23-.045-.085-.013-.183.073-.306s.225-.27.336-.409c.11-.139.192-.27.212-.454.02-.183-.02-.42-.04-.54-.021-.118-.021-.118-.058-.167a2 2 0 0 0-.184-.216.8.8 0 0 0-.298-.168c-.152-.057-.38-.13-.5-.237-.118-.106-.126-.245-.114-.38a.65.65 0 0 1 .127-.364c.082-.098.213-.164.286-.258.074-.094.09-.216-.02-.605-.11-.388-.348-1.042-.585-1.758a70 70 0 0 1-.662-2.13c-.188-.637-.327-1.136-.442-1.54a21 21 0 0 0-.277-.933c-.074-.216-.131-.339-.197-.408-.032-.035-.067-.057-.108-.054" style="fill:#a9a9b4;fill-opacity:1;stroke:#51515d;stroke-width:.584895;stroke-linecap:round;stroke-linejoin:round;stroke-miterlimit:10;stroke-dasharray:none;stroke-opacity:1" transform="translate(124.211 176.418)"/><g style="stroke-width:1.96162063;stroke-dasharray:none"><path d="M678.891 168.135c.138 1.65 1.032 4.263 3.232 5.81 2.201 1.548 5.708 2.03 8.459.654s4.744-4.607 5.088-7.77c.344-3.164-.962-6.258-3.679-8.253-2.716-1.994-6.842-2.888-8.492-2.269-1.65.62-.825 2.75-.55 4.573.275 1.822 0 3.335-.585 3.989-.584.653-1.478.447-2.235.687s-1.375.929-1.238 2.579zM659.74 189.521c.172 2.2 1.96 5.295 4.092 7.049 2.132 1.753 4.607 2.166 7.083 1.41 2.475-.757 4.95-2.683 5.982-5.02 1.032-2.339.62-5.09-.034-7.634-.653-2.544-1.547-4.882-3.129-5.948s-3.85-.86-5.845.24-3.713 3.095-5.295 4.746c-1.582 1.65-3.026 2.957-2.854 5.157z" style="fill:#c9d1d9;fill-opacity:1;stroke:#a2a5c0;stroke-width:1.96162063;stroke-dasharray:none;stroke-opacity:1" transform="translate(-524.369 25.308)"/><path d="M695.602 182.138c-.014-1.9-.918-3.768-2.397-4.243-1.48-.475-3.536.443-4.668 1.411s-1.342 1.986-.997 3.468c.345 1.483 1.245 3.43 2.391 4.362s2.54.848 3.675-.16c1.134-1.007 2.01-2.938 1.996-4.838zM653.887 184.21c.661.615.985.752 2.059.473s2.898-.973 4.075-2.475c1.176-1.502 1.706-3.813 1.31-5.226s-1.718-1.928-2.83-2.034c-1.113-.107-2.017.195-3.194 1.34s-2.627 3.134-2.853 4.675.772 2.633 1.433 3.248z" style="fill:#c9d1d9;fill-opacity:1;stroke:#a2a5c0;stroke-width:1.96162063;stroke-miterlimit:4;stroke-dasharray:none;stroke-opacity:1" transform="translate(-524.369 25.308)"/><path d="M651.687 153.26c-1.196.28-1.35 1.242-1.48 3.22-.128 1.976-.232 4.967 1.367 6.884 1.6 1.917 4.9 2.76 8.063 2.08s6.189-2.88 7.22-5.561c1.032-2.682.07-5.845-1.847-6.942-1.916-1.097-4.785-.127-7.338.156s-4.79-.118-5.985.162z" style="fill:#c9d1d9;fill-opacity:1;stroke:#a2a5c0;stroke-width:1.96162063;stroke-dasharray:none;stroke-opacity:1" transform="translate(-524.369 25.308)"/></g></g></svg>