<?xml version="1.0" encoding="UTF-8" standalone="no"?>
<!-- Created with Inkscape (http://www.inkscape.org/) -->

<svg
   width="185.00002"
   height="185"
   viewBox="0 0 48.94792 48.947918"
   version="1.1"
   id="svg1"
   xml:space="preserve"
   inkscape:version="1.3 (0e150ed, 2023-07-21)"
   sodipodi:docname="flint_crate_snow_6.svg"
   xmlns:inkscape="http://www.inkscape.org/namespaces/inkscape"
   xmlns:sodipodi="http://sodipodi.sourceforge.net/DTD/sodipodi-0.dtd"
   xmlns="http://www.w3.org/2000/svg"
   xmlns:svg="http://www.w3.org/2000/svg"><sodipodi:namedview
     id="namedview1"
     pagecolor="#505050"
     bordercolor="#000000"
     borderopacity="0.25"
     inkscape:showpageshadow="2"
     inkscape:pageopacity="0"
     inkscape:pagecheckerboard="true"
     inkscape:deskcolor="#d1d1d1"
     inkscape:document-units="mm"
     inkscape:zoom="6.6239297"
     inkscape:cx="22.569684"
     inkscape:cy="27.551621"
     inkscape:window-width="1440"
     inkscape:window-height="766"
     inkscape:window-x="0"
     inkscape:window-y="25"
     inkscape:window-maximized="0"
     inkscape:current-layer="layer1-5"
     inkscape:pageshadow="0"
     showgrid="false"
     showguides="false" /><defs
     id="defs1"><style
       id="style1-7">&#10;      .cls-1 {&#10;        fill: #bababa;&#10;      }&#10;&#10;      .cls-1, .cls-2, .cls-3 {&#10;        isolation: isolate;&#10;        opacity: .997;&#10;        stroke: #303030;&#10;        stroke-linecap: round;&#10;        stroke-miterlimit: 15.1181;&#10;        stroke-width: 5px;&#10;      }&#10;&#10;      .cls-2 {&#10;        fill: #5a70e0;&#10;      }&#10;&#10;      .cls-3 {&#10;        fill: #3f3fe0;&#10;      }&#10;&#10;      .cls-4 {&#10;        opacity: .9;&#10;      }&#10;    </style><style
       id="style1-7-3">&#10;      .cls-1 {&#10;        fill: #bababa;&#10;      }&#10;&#10;      .cls-1, .cls-2, .cls-3 {&#10;        isolation: isolate;&#10;        opacity: .997;&#10;        stroke: #303030;&#10;        stroke-linecap: round;&#10;        stroke-miterlimit: 15.1181;&#10;        stroke-width: 5px;&#10;      }&#10;&#10;      .cls-2 {&#10;        fill: #5a70e0;&#10;      }&#10;&#10;      .cls-3 {&#10;        fill: #3f3fe0;&#10;      }&#10;&#10;      .cls-4 {&#10;        opacity: .9;&#10;      }&#10;    </style><inkscape:path-effect
       effect="spiro"
       id="path-effect4-1"
       is_visible="true"
       lpeversion="1" /><inkscape:path-effect
       effect="spiro"
       id="path-effect5-3"
       is_visible="true"
       lpeversion="1" /><inkscape:path-effect
       effect="spiro"
       id="path-effect8-2"
       is_visible="true"
       lpeversion="1" /><inkscape:path-effect
       effect="spiro"
       id="path-effect7-2"
       is_visible="true"
       lpeversion="1" /><inkscape:path-effect
       effect="spiro"
       id="path-effect66960"
       is_visible="true"
       lpeversion="1" /></defs><g
     inkscape:label="Layer 1"
     inkscape:groupmode="layer"
     id="layer1"
     transform="translate(-80.849126,-30.757018)"><g
       id="g1"
       transform="matrix(0.26458333,0,0,0.26458333,-9.4742399,-7.4868277)"><g
         id="g2"
         transform="matrix(3.779528,0,0,3.779528,45.868259,-47.69953)"><g
           inkscape:label="שכבה 1"
           id="layer1-5"
           transform="translate(-46.023917,-125.52772)"><circle
             style="fill:#6e460b;fill-opacity:0;stroke:#31220c;stroke-width:0;stroke-dasharray:none;stroke-opacity:1;paint-order:fill markers stroke"
             id="path22979-4"
             cx="147.96922"
             cy="182.27647"
             r="4.4693141" /><rect
             style="fill:#d96300;fill-opacity:1;stroke:none;stroke-width:1.5658;stroke-linecap:butt;stroke-linejoin:miter;stroke-miterlimit:4;stroke-dasharray:none;stroke-opacity:1"
             id="rect66714"
             width="33.151886"
             height="33.151886"
             x="132.05827"
             y="184.26524" /><path
             id="path66716"
             style="fill:#da6a0b;fill-opacity:1;stroke-width:0;stroke-linecap:round"
             d="m 125.19248,177.39944 v 46.9855 h 46.9855 v -46.9855 z m 7.92722,7.92722 h 31.13106 v 31.13106 H 133.1197 Z" /><rect
             style="fill:none;fill-opacity:1;stroke:none;stroke-width:1.96165;stroke-linecap:butt;stroke-linejoin:bevel;stroke-miterlimit:4;stroke-dasharray:none;stroke-opacity:1"
             id="rect66718"
             width="33.151886"
             height="33.151886"
             x="132.05827"
             y="184.26524" /><circle
             style="fill:#808080;fill-opacity:1;stroke:#2e2e2e;stroke-width:0.980823;stroke-linecap:round;stroke-linejoin:round;stroke-opacity:1"
             id="circle66720"
             cx="129.26677"
             cy="181.47372"
             r="1.6222014" /><circle
             style="fill:#808080;fill-opacity:1;stroke:#2e2e2e;stroke-width:0.980823;stroke-linecap:round;stroke-linejoin:round;stroke-opacity:1"
             id="circle66722"
             cx="168.1035"
             cy="181.47372"
             r="1.6222014" /><circle
             style="fill:#808080;fill-opacity:1;stroke:#2e2e2e;stroke-width:0.980823;stroke-linecap:round;stroke-linejoin:round;stroke-opacity:1"
             id="circle66724"
             cx="129.26677"
             cy="220.31047"
             r="1.6222014" /><circle
             style="fill:#808080;fill-opacity:1;stroke:#2e2e2e;stroke-width:0.980823;stroke-linecap:round;stroke-linejoin:round;stroke-opacity:1"
             id="circle66726"
             cx="168.1035"
             cy="220.31047"
             r="1.6222014" /><rect
             style="fill:#383838;fill-opacity:1;stroke:#8e4507;stroke-width:1.96165;stroke-linecap:butt;stroke-linejoin:miter;stroke-miterlimit:4;stroke-dasharray:none;stroke-opacity:1"
             id="rect66728"
             width="31.131674"
             height="31.131672"
             x="133.11937"
             y="185.32635" /><rect
             style="fill:none;fill-opacity:1;stroke:#8e4507;stroke-width:1.96165;stroke-linecap:round;stroke-linejoin:round;stroke-miterlimit:4;stroke-dasharray:none;stroke-opacity:1"
             id="rect66730"
             width="46.986267"
             height="46.986267"
             x="125.19212"
             y="177.39905" /><path
             style="fill:none;stroke:#8e4507;stroke-width:1.96165;stroke-linecap:butt;stroke-linejoin:miter;stroke-miterlimit:4;stroke-dasharray:none;stroke-opacity:1"
             d="m 164.25106,185.32635 h 7.8466"
             id="path66732" /><path
             style="fill:none;stroke:#8e4507;stroke-width:1.96165;stroke-linecap:butt;stroke-linejoin:miter;stroke-miterlimit:4;stroke-dasharray:none;stroke-opacity:1"
             d="m 164.25106,216.45802 h 7.8466"
             id="path66734" /><path
             style="fill:none;stroke:#8e4507;stroke-width:1.96165;stroke-linecap:butt;stroke-linejoin:miter;stroke-miterlimit:4;stroke-dasharray:none;stroke-opacity:1"
             d="m 125.27279,216.45802 h 7.8466"
             id="path66736" /><path
             style="fill:none;stroke:#8e4507;stroke-width:1.96165;stroke-linecap:butt;stroke-linejoin:miter;stroke-miterlimit:4;stroke-dasharray:none;stroke-opacity:1"
             d="m 125.27279,185.32635 h 7.8466"
             id="path66738" /><g
             id="g66744"
             transform="translate(124.21127,176.41823)"><path
               id="path66740"
               style="fill:#a9a9b4;fill-opacity:1;stroke:#51515d;stroke-width:0.571703;stroke-dasharray:none;stroke-opacity:1"
               d="m 24.473731,12.725321 c -0.601652,0 -1.193201,0.04228 -1.773287,0.121581 l -0.742962,2.222162 c -1.147252,0.271331 -2.225006,0.722638 -3.200217,1.325088 l -2.09542,-1.045353 c -0.946179,0.717195 -1.790763,1.561679 -2.507723,2.507949 l 1.045353,2.09542 c -0.602459,0.975116 -1.053761,2.053195 -1.324862,3.200664 l -2.22261,0.742741 c -0.07934,0.579525 -0.12136,1.171553 -0.12136,1.773061 0,0.601512 0.0418,1.193448 0.12136,1.773065 l 2.22261,0.742962 c 0.271344,1.147482 0.722421,2.225218 1.324636,3.200443 l -1.044905,2.095415 c 0.609695,0.804591 1.312329,1.53463 2.090484,2.1764 0.06494,-0.11971 0.126369,-0.241322 0.183947,-0.365199 0.166801,-0.365617 0.318274,-0.737992 0.465697,-1.111757 0.126417,-0.320166 0.246332,-0.642786 0.36049,-0.96751 0.113798,-0.303615 0.187073,-0.619562 0.272555,-0.93162 0.05447,-0.208531 0.110043,-0.416671 0.167122,-0.624524 0.02383,-0.0733 0.04798,-0.146455 0.07223,-0.219613 -1.333093,-1.548651 -2.139385,-3.564158 -2.139385,-5.768062 0,-4.885643 3.960929,-8.846022 8.846247,-8.846022 4.885408,0 8.846251,3.960379 8.846251,8.846022 0,2.412287 -0.965831,4.598749 -2.531507,6.194504 0.112035,0.368525 0.224084,0.737137 0.34501,1.102779 0.283963,0.893576 0.557725,1.790993 0.799273,2.697058 0.01606,0.05802 0.03243,0.115951 0.0489,0.173851 l 0.304183,0.151646 c 0.94604,-0.717298 1.790672,-1.561678 2.507727,-2.507953 l -1.044905,-2.095415 c 0.602215,-0.975225 1.053066,-2.052961 1.32464,-3.200443 l 2.22261,-0.742962 c 0.07934,-0.579617 0.12136,-1.171553 0.12136,-1.773065 0,-0.601508 -0.04206,-1.193536 -0.121586,-1.773061 l -2.222609,-0.742741 c -0.271574,-1.147469 -0.722517,-2.225548 -1.324637,-3.200664 l 1.045353,-2.09542 c -0.717537,-0.94627 -1.562243,-1.790754 -2.508174,-2.507949 l -2.095646,1.045353 c -0.974895,-0.60245 -2.052752,-1.053757 -3.199991,-1.325088 L 26.24702,12.846902 c -0.579868,-0.07934 -1.171548,-0.121581 -1.773289,-0.121581 z" /><path
               id="path66742"
               style="fill:#a9a9b4;fill-opacity:1;stroke:#51515d;stroke-width:0.584895;stroke-linecap:round;stroke-linejoin:round;stroke-miterlimit:10;stroke-dasharray:none;stroke-opacity:1"
               d="m 24.720477,19.028429 c -0.04036,0.0032 -0.0864,0.03067 -0.14161,0.09404 -0.110424,0.126727 -0.257572,0.396422 -0.45788,0.821581 -0.200317,0.425153 -0.45371,1.005681 -0.690801,1.549398 -0.237101,0.543698 -0.457953,1.050667 -0.629652,1.439029 -0.1717,0.388365 -0.29431,0.658175 -0.404696,0.932078 -0.110375,0.273902 -0.208507,0.551878 -0.298443,0.817604 -0.08994,0.265706 -0.171693,0.519082 -0.249365,0.75619 -0.07767,0.237102 -0.151145,0.457845 -0.208381,0.633632 -0.05723,0.17578 -0.0982,0.306692 -0.07772,0.449791 0.02047,0.143106 0.102307,0.298457 0.175885,0.482417 0.07357,0.183966 0.138941,0.396411 0.147099,0.563991 0.0081,0.167591 -0.04094,0.290243 -0.118582,0.380154 -0.07765,0.08992 -0.183872,0.147166 -0.302426,0.204403 -0.118527,0.05723 -0.249463,0.114522 -0.359856,0.192197 -0.110399,0.07767 -0.200233,0.175725 -0.282,0.286114 -0.08177,0.110379 -0.15539,0.233048 -0.212627,0.372056 -0.05723,0.139007 -0.09811,0.294422 -0.08582,0.425253 0.0123,0.130832 0.07768,0.237021 0.183977,0.322851 0.106312,0.08582 0.25355,0.151306 0.376178,0.261706 0.122621,0.110396 0.220744,0.265754 0.220715,0.408801 -3.1e-5,0.143042 -0.09824,0.273859 -0.224967,0.400579 -0.126719,0.126716 -0.282036,0.249344 -0.425117,0.359719 -0.143081,0.110386 -0.273944,0.208511 -0.392484,0.322988 -0.118561,0.114473 -0.224821,0.245259 -0.314767,0.384263 -0.08994,0.139004 -0.163506,0.286092 -0.224827,0.421005 -0.06132,0.134909 -0.110337,0.257523 -0.175749,0.404692 -0.0654,0.147169 -0.147242,0.318955 -0.216736,0.47022 -0.0695,0.151252 -0.126628,0.282084 -0.187952,0.433338 -0.06132,0.151239 -0.126783,0.322931 -0.212627,0.494624 -0.08585,0.171685 -0.192146,0.343332 -0.273906,0.490505 -0.08176,0.147172 -0.138944,0.269828 -0.196178,0.388379 -0.05723,0.118554 -0.114539,0.233055 -0.171772,0.347521 -0.05723,0.114467 -0.114445,0.228937 -0.130783,0.367955 -0.01635,0.139014 0.0082,0.302523 0.143123,0.38015 0.134927,0.07763 0.380298,0.06947 0.69916,0.04085 0.318847,-0.02862 0.711177,-0.07779 1.066833,-0.110494 0.355644,-0.0327 0.674576,-0.04894 0.915762,-0.07348 0.241185,-0.02453 0.404667,-0.05724 0.649944,-0.114473 0.245277,-0.05723 0.572318,-0.139029 0.788956,-0.253481 0.21664,-0.114449 0.32298,-0.261653 0.412916,-0.45377 0.08994,-0.192125 0.16344,-0.429247 0.237031,-0.637744 0.07358,-0.20849 0.14718,-0.388327 0.228936,-0.584549 0.08176,-0.196227 0.171707,-0.408753 0.228943,-0.580441 0.05723,-0.17169 0.08179,-0.302479 0.167657,-0.408805 0.08587,-0.106322 0.233095,-0.188138 0.380291,-0.216739 0.147197,-0.02865 0.294366,-0.0041 0.412917,0.05319 0.118547,0.05726 0.208361,0.14719 0.269657,0.253481 0.0613,0.106273 0.09413,0.228971 0.180001,0.392487 0.08586,0.163521 0.224775,0.367846 0.351498,0.60087 0.126719,0.233017 0.241168,0.494705 0.359726,0.7359 0.118557,0.241186 0.241192,0.461852 0.388379,0.617173 0.147186,0.155331 0.318843,0.245354 0.56412,0.327099 0.24528,0.08175 0.564268,0.155261 0.838167,0.212498 0.273899,0.05723 0.50273,0.09815 0.801156,0.143116 0.298429,0.04496 0.666432,0.094 0.944415,0.130786 0.27799,0.03679 0.46595,0.06138 0.64172,0.05319 0.175773,-0.0082 0.339342,-0.04908 0.392487,-0.106245 0.05315,-0.05719 -0.0041,-0.130738 -0.09815,-0.371926 -0.09404,-0.24119 -0.224796,-0.650039 -0.400584,-1.165131 -0.17578,-0.51507 -0.396575,-1.136518 -0.551923,-1.643438 -0.155355,-0.506915 -0.245256,-0.899323 -0.314756,-1.19364 -0.0695,-0.294342 -0.118572,-0.490526 -0.179865,-0.629516 -0.0613,-0.139 -0.134881,-0.22084 -0.245256,-0.331212 -0.110372,-0.110382 -0.257513,-0.249281 -0.425117,-0.351501 -0.167605,-0.102224 -0.355722,-0.167679 -0.511067,-0.237168 -0.155344,-0.06949 -0.277972,-0.143088 -0.322987,-0.228936 -0.04502,-0.08586 -0.01226,-0.184012 0.07362,-0.306671 0.08585,-0.122663 0.224813,-0.269819 0.335184,-0.408805 0.110372,-0.138979 0.192038,-0.269699 0.212491,-0.453634 0.02044,-0.183928 -0.0204,-0.421131 -0.04086,-0.53972 -0.02044,-0.118592 -0.0204,-0.118508 -0.05716,-0.16752 -0.03675,-0.04902 -0.110403,-0.147093 -0.183977,-0.21661 C 27.436413,27.793146 27.36293,27.75224 27.211676,27.695 27.060423,27.637756 26.8314,27.564098 26.712807,27.457829 26.594215,27.351566 26.586088,27.2126 26.598334,27.077678 c 0.0123,-0.134912 0.04504,-0.265688 0.126814,-0.363835 0.08178,-0.09815 0.212535,-0.163608 0.286102,-0.257593 0.07357,-0.09398 0.08993,-0.216627 -0.0204,-0.604978 -0.110357,-0.388348 -0.347444,-1.042366 -0.584557,-1.757772 -0.237111,-0.715409 -0.47423,-1.4921 -0.662281,-2.129834 -0.188054,-0.637733 -0.3271,-1.136449 -0.441566,-1.541165 -0.114466,-0.404692 -0.204308,-0.715409 -0.277885,-0.932075 -0.07358,-0.216648 -0.13079,-0.339276 -0.196178,-0.408807 -0.0327,-0.03477 -0.06752,-0.05625 -0.107891,-0.05318 z" /></g><path
             id="path66950"
             style="fill:#c9d1d9;fill-opacity:1;stroke:#a2a5c0;stroke-width:1.96162;stroke-linecap:round;stroke-linejoin:round;stroke-miterlimit:4;stroke-dasharray:none;stroke-opacity:1"
             d="m 172.17798,190.25524 c -0.10831,0.10266 -0.23208,0.19145 -0.32143,0.31057 -0.67564,0.90085 -0.55959,0.63329 -1.82366,2.17145 -2.9437,4.18937 -8.88785,1.3963 -12.592,3.12591 -6.67699,3.08435 -3.56139,9.11379 -5.64513,12.85296 -1.67753,2.32586 -4.59979,3.84975 -7.12101,3.90777 -1.84817,0.0504 -7.2476,1.6669 -7.19956,11.76104 h 34.70279 z"
             sodipodi:nodetypes="csccccccc" /><path
             style="fill:#c9d1d9;fill-opacity:1;stroke:#a2a5c0;stroke-width:1.96162;stroke-dasharray:none;stroke-opacity:1"
             d="m 721.87623,217.61538 c -1.11125,-0.0362 -2.22824,0.11026 -3.29261,0.43167 -1.62759,0.49149 -3.1018,1.37715 -4.61425,2.15375 -1.51245,0.7766 -3.12877,1.46197 -4.82856,1.49802 -0.8499,0.018 -1.71017,-0.13196 -2.47811,-0.49652 -0.76795,-0.36456 -1.43959,-0.95039 -1.85056,-1.69453 -0.41097,-0.74415 -0.54768,-1.64806 -0.31522,-2.46575 0.11622,-0.40884 0.32226,-0.79282 0.60482,-1.11034 0.28257,-0.31752 0.6418,-0.56763 1.04053,-0.71485 0.52426,-0.19357 1.09589,-0.20631 1.64219,-0.3241 0.27315,-0.0589 0.54309,-0.14545 0.783,-0.28871 0.23991,-0.14326 0.44926,-0.34654 0.56882,-0.5991 0.12594,-0.26605 0.14613,-0.57414 0.0939,-0.86382 -0.0522,-0.28968 -0.17337,-0.56305 -0.31903,-0.81883 -0.29133,-0.51157 -0.68608,-0.96925 -0.88929,-1.52177 -0.26241,-0.7135 -0.16875,-1.53675 0.19749,-2.20293 0.36624,-0.66619 0.98899,-1.17573 1.69428,-1.45946 0.70529,-0.28373 1.48828,-0.34937 2.24171,-0.24798 0.75343,0.10139 1.47895,0.36521 2.15306,0.71665 1.34822,0.70289 2.48428,1.7424 3.67986,2.68172 1.19558,0.93933 2.5136,1.8077 4.01119,2.07032 0.73332,0.1286 1.48788,0.10724 2.21787,0.25355 0.365,0.0731 0.72448,0.18932 1.04504,0.37857 0.32056,0.18925 0.60146,0.45481 0.77546,0.7839 0.1475,0.27896 0.21472,0.59698 0.21365,0.91253 -0.001,0.31555 -0.0689,0.62883 -0.17875,0.92464 -0.29841,0.8036 -0.91882,1.48241 -1.6924,1.85172 -0.77358,0.36931 -1.69153,0.4249 -2.50402,0.15165 z"
             id="path66952"
             inkscape:path-effect="#path-effect66960"
             inkscape:original-d="m 721.87623,217.61538 c -0.45703,0.21817 -1.80458,0.34984 -3.29261,0.43167 -3.06638,0.16864 -14.66667,-3.10367 -12.44135,-2.83022 11.31757,1.39073 7.99027,-5.70065 2.99401,-1.21191 -2.40801,2.16341 -1.68994,-2.21416 -1.11442,-3.20442 0.57554,-0.99025 9.37529,1.74496 13.97759,1.55832 4.60231,-0.18664 2.54256,0.88539 4.03837,1.41602 1.4958,0.53064 0.0232,1.22478 0.0349,1.83717 0.0118,0.61238 -2.79761,1.33557 -4.19642,2.00337 z"
             sodipodi:nodetypes="sssssssss"
             transform="translate(-577.9226,-28.485884)" /><path
             id="path66954"
             clip-path="none"
             style="fill:#c9d1d9;fill-opacity:1;fill-rule:evenodd;stroke:#a2a5c0;stroke-width:1.96162063;stroke-dasharray:none;stroke-opacity:1"
             d="m 155.20281,178.73794 c -0.27203,0.0753 -0.53105,0.20662 -0.76038,0.36884 -0.45871,0.32435 -0.79284,0.76204 -1.08005,1.20337 -1.01316,1.5569 -1.55898,3.30537 -1.43601,4.94501 0.17012,2.26899 1.62754,4.22161 3.70433,5.39526 3.05115,1.49337 9.5608,0.73885 12.11788,-1.11888 1.5852,-1.27324 1.9847,-3.79449 1.8749,-5.13395 -0.15714,-1.59613 -0.99629,-3.04386 -2.32936,-4.01735 -0.34265,-0.25015 -0.72374,-0.4727 -1.17199,-0.57698 -0.43923,-0.10216 -0.92815,-0.0857 -1.40618,0.005 -0.47804,0.0902 -0.94743,0.25254 -1.40348,0.44025 -0.91208,0.37549 -1.78904,0.85783 -2.73508,1.11604 -0.50123,0.13677 -1.02034,0.20815 -1.51008,0.16259 -0.48974,-0.0457 -0.94951,-0.21341 -1.26348,-0.51031 -0.36921,-0.34912 -0.51291,-0.84205 -0.71869,-1.29174 -0.10301,-0.22478 -0.22438,-0.44364 -0.3972,-0.62737 -0.17273,-0.18381 -0.4002,-0.33192 -0.67447,-0.39426 -0.2847,-0.0455 -0.76155,0.015 -0.81066,0.0345 z"
             sodipodi:nodetypes="ccscccccsssscssscc" /><path
             id="path66956"
             clip-path="none"
             style="fill:#c9d1d9;fill-opacity:1;fill-rule:evenodd;stroke:#a2a5c0;stroke-width:1.96162063;stroke-dasharray:none;stroke-opacity:1"
             inkscape:label="path67"
             inkscape:transform-center-x="-0.067308881"
             inkscape:transform-center-y="0.60494124"
             d="m 127.98073,205.35106 c 0.14181,1.38025 0.91146,2.64506 2.02416,3.69818 0.54004,0.5111 0.64843,1.04676 1.39788,1.40707 0.74948,0.36028 1.62774,0.6105 2.58026,0.66945 1.14719,0.071 2.38246,-0.14328 3.45474,-0.5911 1.07229,-0.44783 1.97653,-1.1254 2.54808,-1.898 0.85047,-1.14964 0.94274,-2.42589 1.4524,-3.64104 0.46186,-1.10121 0.19406,-2.22386 -0.61063,-3.02249 -0.7852,-0.77927 -2.25114,-1.0311 -3.50756,-1.12319 -2.65482,-0.1946 -7.83888,1.25546 -7.83888,1.25546 -1.76983,0.28345 -1.631,1.97505 -1.50045,3.24566 z"
             sodipodi:nodetypes="sssscssaass" /></g></g></g></g><style
     type="text/css"
     id="style1">&#10;	.st0{fill:#4059BF;stroke:#262673;stroke-width:5.5604;stroke-linecap:round;stroke-linejoin:round;stroke-miterlimit:11.3386;}&#10;	.st1{fill:#384B94;stroke:#262673;stroke-width:5.5604;stroke-linecap:round;stroke-linejoin:round;stroke-miterlimit:11.3386;}&#10;	.st2{fill:#262673;}&#10;	.st3{fill:#69532E;stroke:#333333;stroke-width:5.5616;stroke-linecap:round;stroke-linejoin:round;stroke-miterlimit:11.3386;}&#10;	.st4{fill:#808080;stroke:#2E2E2E;stroke-width:2.7803;stroke-linecap:round;stroke-linejoin:round;stroke-miterlimit:11.3386;}&#10;</style><style
     type="text/css"
     id="style1-72">&#10;	.st0{fill:#4059BF;stroke:#262673;stroke-width:5.5604;stroke-linecap:round;stroke-linejoin:round;stroke-miterlimit:11.3386;}&#10;	.st1{fill:#384B94;stroke:#262673;stroke-width:5.5604;stroke-linecap:round;stroke-linejoin:round;stroke-miterlimit:11.3386;}&#10;	.st2{fill:#262673;}&#10;	.st3{fill:#69532E;stroke:#333333;stroke-width:5.5616;stroke-linecap:round;stroke-linejoin:round;stroke-miterlimit:11.3386;}&#10;	.st4{fill:#808080;stroke:#2E2E2E;stroke-width:2.7803;stroke-linecap:round;stroke-linejoin:round;stroke-miterlimit:11.3386;}&#10;</style></svg>
