<?xml version="1.0" encoding="UTF-8" standalone="no"?>
<!-- Created with Inkscape (http://www.inkscape.org/) -->

<svg
   width="185.00003"
   height="185.00008"
   viewBox="0 0 48.947924 48.947938"
   version="1.1"
   id="svg1"
   xml:space="preserve"
   inkscape:version="1.3 (0e150ed, 2023-07-21)"
   sodipodi:docname="flint_crate_snow_4.svg"
   xmlns:inkscape="http://www.inkscape.org/namespaces/inkscape"
   xmlns:sodipodi="http://sodipodi.sourceforge.net/DTD/sodipodi-0.dtd"
   xmlns="http://www.w3.org/2000/svg"
   xmlns:svg="http://www.w3.org/2000/svg"><sodipodi:namedview
     id="namedview1"
     pagecolor="#505050"
     bordercolor="#000000"
     borderopacity="0.25"
     inkscape:showpageshadow="2"
     inkscape:pageopacity="0"
     inkscape:pagecheckerboard="true"
     inkscape:deskcolor="#d1d1d1"
     inkscape:document-units="mm"
     inkscape:zoom="5.7617559"
     inkscape:cx="105.95728"
     inkscape:cy="145.70211"
     inkscape:window-width="1440"
     inkscape:window-height="702"
     inkscape:window-x="0"
     inkscape:window-y="25"
     inkscape:window-maximized="0"
     inkscape:current-layer="layer1-5"
     inkscape:pageshadow="0"
     showgrid="false" /><defs
     id="defs1"><style
       id="style1-7">&#10;      .cls-1 {&#10;        fill: #bababa;&#10;      }&#10;&#10;      .cls-1, .cls-2, .cls-3 {&#10;        isolation: isolate;&#10;        opacity: .997;&#10;        stroke: #303030;&#10;        stroke-linecap: round;&#10;        stroke-miterlimit: 15.1181;&#10;        stroke-width: 5px;&#10;      }&#10;&#10;      .cls-2 {&#10;        fill: #5a70e0;&#10;      }&#10;&#10;      .cls-3 {&#10;        fill: #3f3fe0;&#10;      }&#10;&#10;      .cls-4 {&#10;        opacity: .9;&#10;      }&#10;    </style><style
       id="style1-7-3">&#10;      .cls-1 {&#10;        fill: #bababa;&#10;      }&#10;&#10;      .cls-1, .cls-2, .cls-3 {&#10;        isolation: isolate;&#10;        opacity: .997;&#10;        stroke: #303030;&#10;        stroke-linecap: round;&#10;        stroke-miterlimit: 15.1181;&#10;        stroke-width: 5px;&#10;      }&#10;&#10;      .cls-2 {&#10;        fill: #5a70e0;&#10;      }&#10;&#10;      .cls-3 {&#10;        fill: #3f3fe0;&#10;      }&#10;&#10;      .cls-4 {&#10;        opacity: .9;&#10;      }&#10;    </style><inkscape:path-effect
       effect="spiro"
       id="path-effect4-1"
       is_visible="true"
       lpeversion="1" /><inkscape:path-effect
       effect="spiro"
       id="path-effect5-3"
       is_visible="true"
       lpeversion="1" /><inkscape:path-effect
       effect="spiro"
       id="path-effect8-2"
       is_visible="true"
       lpeversion="1" /><inkscape:path-effect
       effect="spiro"
       id="path-effect7-2"
       is_visible="true"
       lpeversion="1" /><inkscape:path-effect
       effect="spiro"
       id="path-effect66811"
       is_visible="true"
       lpeversion="1" /><inkscape:path-effect
       effect="spiro"
       id="path-effect66815"
       is_visible="true"
       lpeversion="1" /></defs><g
     inkscape:label="Layer 1"
     inkscape:groupmode="layer"
     id="layer1"
     transform="translate(-80.900173,-30.834162)"><g
       id="g1"
       transform="matrix(0.26458333,0,0,0.26458333,-9.4742399,-7.4868277)"><g
         id="g2"
         transform="matrix(3.779528,0,0,3.779528,45.868259,-47.69953)"><g
           inkscape:label="שכבה 1"
           id="layer1-5"
           transform="translate(-46.023917,-125.52772)"><rect
             style="fill:#d96300;fill-opacity:1;stroke:none;stroke-width:1.5658;stroke-linecap:butt;stroke-linejoin:miter;stroke-miterlimit:4;stroke-dasharray:none;stroke-opacity:1"
             id="rect4220-8"
             width="33.151886"
             height="33.151886"
             x="132.10931"
             y="184.31624" /><path
             id="rect938-32"
             style="fill:#da6a0b;fill-opacity:1;stroke-width:0;stroke-linecap:round"
             d="m 125.24352,177.45043 v 46.9855 h 46.9855 v -46.9855 z m 7.92722,7.92722 h 31.13106 v 31.13106 h -31.13106 z" /><rect
             style="fill:none;fill-opacity:1;stroke:none;stroke-width:1.96165;stroke-linecap:butt;stroke-linejoin:bevel;stroke-miterlimit:4;stroke-dasharray:none;stroke-opacity:1"
             id="rect2620-2"
             width="33.151886"
             height="33.151886"
             x="132.10931"
             y="184.31624" /><circle
             style="fill:#808080;fill-opacity:1;stroke:#2e2e2e;stroke-width:0.980823;stroke-linecap:round;stroke-linejoin:round;stroke-opacity:1"
             id="path851-73"
             cx="129.31781"
             cy="181.52472"
             r="1.6222014" /><circle
             style="fill:#808080;fill-opacity:1;stroke:#2e2e2e;stroke-width:0.980823;stroke-linecap:round;stroke-linejoin:round;stroke-opacity:1"
             id="path851-3-3"
             cx="168.15454"
             cy="181.52472"
             r="1.6222014" /><circle
             style="fill:#808080;fill-opacity:1;stroke:#2e2e2e;stroke-width:0.980823;stroke-linecap:round;stroke-linejoin:round;stroke-opacity:1"
             id="path851-6-32"
             cx="129.31781"
             cy="220.36147"
             r="1.6222014" /><circle
             style="fill:#808080;fill-opacity:1;stroke:#2e2e2e;stroke-width:0.980823;stroke-linecap:round;stroke-linejoin:round;stroke-opacity:1"
             id="path851-7-9"
             cx="168.15454"
             cy="220.36147"
             r="1.6222014" /><rect
             style="fill:#383838;fill-opacity:1;stroke:#8e4507;stroke-width:1.96165;stroke-linecap:butt;stroke-linejoin:miter;stroke-miterlimit:4;stroke-dasharray:none;stroke-opacity:1"
             id="rect3681-5-5"
             width="31.131674"
             height="31.131672"
             x="133.17041"
             y="185.37733" /><rect
             style="fill:none;fill-opacity:1;stroke:#8e4507;stroke-width:1.96199976;stroke-linecap:round;stroke-linejoin:round;stroke-miterlimit:4;stroke-dasharray:none;stroke-opacity:1"
             id="rect2330-4"
             width="46.986267"
             height="46.986267"
             x="125.24317"
             y="177.45004" /><path
             style="fill:none;stroke:#8e4507;stroke-width:1.96165;stroke-linecap:butt;stroke-linejoin:miter;stroke-miterlimit:4;stroke-dasharray:none;stroke-opacity:1"
             d="m 164.3021,185.37734 h 7.8466"
             id="path5886-54" /><path
             style="fill:none;stroke:#8e4507;stroke-width:1.96165;stroke-linecap:butt;stroke-linejoin:miter;stroke-miterlimit:4;stroke-dasharray:none;stroke-opacity:1"
             d="m 164.3021,216.50901 h 7.8466"
             id="path5886-3-23" /><path
             style="fill:none;stroke:#8e4507;stroke-width:1.96165;stroke-linecap:butt;stroke-linejoin:miter;stroke-miterlimit:4;stroke-dasharray:none;stroke-opacity:1"
             d="m 125.32383,216.50901 h 7.8466"
             id="path5886-6-69" /><path
             style="fill:none;stroke:#8e4507;stroke-width:1.96165;stroke-linecap:butt;stroke-linejoin:miter;stroke-miterlimit:4;stroke-dasharray:none;stroke-opacity:1"
             d="m 125.32383,185.37734 h 7.8466"
             id="path5886-7-5" /><g
             id="g10905"
             transform="translate(124.26231,176.46922)"><path
               id="path29-4-6"
               style="fill:#a9a9b4;fill-opacity:1;stroke:#51515d;stroke-width:0.571703;stroke-dasharray:none;stroke-opacity:1"
               d="m 24.473731,12.725321 c -0.601652,0 -1.193201,0.04228 -1.773287,0.121581 l -0.742962,2.222162 c -1.147252,0.271331 -2.225006,0.722638 -3.200217,1.325088 l -2.09542,-1.045353 c -0.946179,0.717195 -1.790763,1.561679 -2.507723,2.507949 l 1.045353,2.09542 c -0.602459,0.975116 -1.053761,2.053195 -1.324862,3.200664 l -2.22261,0.742741 c -0.07934,0.579525 -0.12136,1.171553 -0.12136,1.773061 0,0.601512 0.0418,1.193448 0.12136,1.773065 l 2.22261,0.742962 c 0.271344,1.147482 0.722421,2.225218 1.324636,3.200443 l -1.044905,2.095415 c 0.609695,0.804591 1.312329,1.53463 2.090484,2.1764 0.06494,-0.11971 0.126369,-0.241322 0.183947,-0.365199 0.166801,-0.365617 0.318274,-0.737992 0.465697,-1.111757 0.126417,-0.320166 0.246332,-0.642786 0.36049,-0.96751 0.113798,-0.303615 0.187073,-0.619562 0.272555,-0.93162 0.05447,-0.208531 0.110043,-0.416671 0.167122,-0.624524 0.02383,-0.0733 0.04798,-0.146455 0.07223,-0.219613 -1.333093,-1.548651 -2.139385,-3.564158 -2.139385,-5.768062 0,-4.885643 3.960929,-8.846022 8.846247,-8.846022 4.885408,0 8.846251,3.960379 8.846251,8.846022 0,2.412287 -0.965831,4.598749 -2.531507,6.194504 0.112035,0.368525 0.224084,0.737137 0.34501,1.102779 0.283963,0.893576 0.557725,1.790993 0.799273,2.697058 0.01606,0.05802 0.03243,0.115951 0.0489,0.173851 l 0.304183,0.151646 c 0.94604,-0.717298 1.790672,-1.561678 2.507727,-2.507953 l -1.044905,-2.095415 c 0.602215,-0.975225 1.053066,-2.052961 1.32464,-3.200443 l 2.22261,-0.742962 c 0.07934,-0.579617 0.12136,-1.171553 0.12136,-1.773065 0,-0.601508 -0.04206,-1.193536 -0.121586,-1.773061 l -2.222609,-0.742741 c -0.271574,-1.147469 -0.722517,-2.225548 -1.324637,-3.200664 l 1.045353,-2.09542 c -0.717537,-0.94627 -1.562243,-1.790754 -2.508174,-2.507949 l -2.095646,1.045353 c -0.974895,-0.60245 -2.052752,-1.053757 -3.199991,-1.325088 L 26.24702,12.846902 c -0.579868,-0.07934 -1.171548,-0.121581 -1.773289,-0.121581 z" /><path
               id="path34308-7"
               style="fill:#a9a9b4;fill-opacity:1;stroke:#51515d;stroke-width:0.584895;stroke-linecap:round;stroke-linejoin:round;stroke-miterlimit:10;stroke-dasharray:none;stroke-opacity:1"
               d="m 24.720477,19.028429 c -0.04036,0.0032 -0.0864,0.03067 -0.14161,0.09404 -0.110424,0.126727 -0.257572,0.396422 -0.45788,0.821581 -0.200317,0.425153 -0.45371,1.005681 -0.690801,1.549398 -0.237101,0.543698 -0.457953,1.050667 -0.629652,1.439029 -0.1717,0.388365 -0.29431,0.658175 -0.404696,0.932078 -0.110375,0.273902 -0.208507,0.551878 -0.298443,0.817604 -0.08994,0.265706 -0.171693,0.519082 -0.249365,0.75619 -0.07767,0.237102 -0.151145,0.457845 -0.208381,0.633632 -0.05723,0.17578 -0.0982,0.306692 -0.07772,0.449791 0.02047,0.143106 0.102307,0.298457 0.175885,0.482417 0.07357,0.183966 0.138941,0.396411 0.147099,0.563991 0.0081,0.167591 -0.04094,0.290243 -0.118582,0.380154 -0.07765,0.08992 -0.183872,0.147166 -0.302426,0.204403 -0.118527,0.05723 -0.249463,0.114522 -0.359856,0.192197 -0.110399,0.07767 -0.200233,0.175725 -0.282,0.286114 -0.08177,0.110379 -0.15539,0.233048 -0.212627,0.372056 -0.05723,0.139007 -0.09811,0.294422 -0.08582,0.425253 0.0123,0.130832 0.07768,0.237021 0.183977,0.322851 0.106312,0.08582 0.25355,0.151306 0.376178,0.261706 0.122621,0.110396 0.220744,0.265754 0.220715,0.408801 -3.1e-5,0.143042 -0.09824,0.273859 -0.224967,0.400579 -0.126719,0.126716 -0.282036,0.249344 -0.425117,0.359719 -0.143081,0.110386 -0.273944,0.208511 -0.392484,0.322988 -0.118561,0.114473 -0.224821,0.245259 -0.314767,0.384263 -0.08994,0.139004 -0.163506,0.286092 -0.224827,0.421005 -0.06132,0.134909 -0.110337,0.257523 -0.175749,0.404692 -0.0654,0.147169 -0.147242,0.318955 -0.216736,0.47022 -0.0695,0.151252 -0.126628,0.282084 -0.187952,0.433338 -0.06132,0.151239 -0.126783,0.322931 -0.212627,0.494624 -0.08585,0.171685 -0.192146,0.343332 -0.273906,0.490505 -0.08176,0.147172 -0.138944,0.269828 -0.196178,0.388379 -0.05723,0.118554 -0.114539,0.233055 -0.171772,0.347521 -0.05723,0.114467 -0.114445,0.228937 -0.130783,0.367955 -0.01635,0.139014 0.0082,0.302523 0.143123,0.38015 0.134927,0.07763 0.380298,0.06947 0.69916,0.04085 0.318847,-0.02862 0.711177,-0.07779 1.066833,-0.110494 0.355644,-0.0327 0.674576,-0.04894 0.915762,-0.07348 0.241185,-0.02453 0.404667,-0.05724 0.649944,-0.114473 0.245277,-0.05723 0.572318,-0.139029 0.788956,-0.253481 0.21664,-0.114449 0.32298,-0.261653 0.412916,-0.45377 0.08994,-0.192125 0.16344,-0.429247 0.237031,-0.637744 0.07358,-0.20849 0.14718,-0.388327 0.228936,-0.584549 0.08176,-0.196227 0.171707,-0.408753 0.228943,-0.580441 0.05723,-0.17169 0.08179,-0.302479 0.167657,-0.408805 0.08587,-0.106322 0.233095,-0.188138 0.380291,-0.216739 0.147197,-0.02865 0.294366,-0.0041 0.412917,0.05319 0.118547,0.05726 0.208361,0.14719 0.269657,0.253481 0.0613,0.106273 0.09413,0.228971 0.180001,0.392487 0.08586,0.163521 0.224775,0.367846 0.351498,0.60087 0.126719,0.233017 0.241168,0.494705 0.359726,0.7359 0.118557,0.241186 0.241192,0.461852 0.388379,0.617173 0.147186,0.155331 0.318843,0.245354 0.56412,0.327099 0.24528,0.08175 0.564268,0.155261 0.838167,0.212498 0.273899,0.05723 0.50273,0.09815 0.801156,0.143116 0.298429,0.04496 0.666432,0.094 0.944415,0.130786 0.27799,0.03679 0.46595,0.06138 0.64172,0.05319 0.175773,-0.0082 0.339342,-0.04908 0.392487,-0.106245 0.05315,-0.05719 -0.0041,-0.130738 -0.09815,-0.371926 -0.09404,-0.24119 -0.224796,-0.650039 -0.400584,-1.165131 -0.17578,-0.51507 -0.396575,-1.136518 -0.551923,-1.643438 -0.155355,-0.506915 -0.245256,-0.899323 -0.314756,-1.19364 -0.0695,-0.294342 -0.118572,-0.490526 -0.179865,-0.629516 -0.0613,-0.139 -0.134881,-0.22084 -0.245256,-0.331212 -0.110372,-0.110382 -0.257513,-0.249281 -0.425117,-0.351501 -0.167605,-0.102224 -0.355722,-0.167679 -0.511067,-0.237168 -0.155344,-0.06949 -0.277972,-0.143088 -0.322987,-0.228936 -0.04502,-0.08586 -0.01226,-0.184012 0.07362,-0.306671 0.08585,-0.122663 0.224813,-0.269819 0.335184,-0.408805 0.110372,-0.138979 0.192038,-0.269699 0.212491,-0.453634 0.02044,-0.183928 -0.0204,-0.421131 -0.04086,-0.53972 -0.02044,-0.118592 -0.0204,-0.118508 -0.05716,-0.16752 -0.03675,-0.04902 -0.110403,-0.147093 -0.183977,-0.21661 C 27.436413,27.793146 27.36293,27.75224 27.211676,27.695 27.060423,27.637756 26.8314,27.564098 26.712807,27.457829 26.594215,27.351566 26.586088,27.2126 26.598334,27.077678 c 0.0123,-0.134912 0.04504,-0.265688 0.126814,-0.363835 0.08178,-0.09815 0.212535,-0.163608 0.286102,-0.257593 0.07357,-0.09398 0.08993,-0.216627 -0.0204,-0.604978 -0.110357,-0.388348 -0.347444,-1.042366 -0.584557,-1.757772 -0.237111,-0.715409 -0.47423,-1.4921 -0.662281,-2.129834 -0.188054,-0.637733 -0.3271,-1.136449 -0.441566,-1.541165 -0.114466,-0.404692 -0.204308,-0.715409 -0.277885,-0.932075 -0.07358,-0.216648 -0.13079,-0.339276 -0.196178,-0.408807 -0.0327,-0.03477 -0.06752,-0.05625 -0.107891,-0.05318 z" /></g><path
             id="path66803"
             style="fill:#c9d1d9;fill-opacity:1;stroke:#a1a4bf;stroke-width:1.96189;stroke-linecap:round;stroke-linejoin:round;stroke-miterlimit:4;stroke-dasharray:none;stroke-opacity:1"
             d="m 125.24352,177.45043 v 18.10048 c 1.97645,1.72584 13.06777,0.3981 15.38693,-3.15974 2.17007,-2.59032 3.14058,-4.9916 7.03407,-5.3191 3.101,-0.12724 5.53668,0.44188 8.25,0.98969 3.23848,0.89132 7.72581,3.1281 11.59319,3.84993 1.7618,0.22717 2.64251,-1.65069 3.51676,-1.56174 0.43794,0.0446 0.83424,0.11054 1.20455,0.19139 v -13.09091 z"
             sodipodi:nodetypes="ccccccsccc" /><path
             style="fill:#c9d1d9;fill-opacity:1;fill-rule:evenodd;stroke:#a2a5c0;stroke-width:1.96162063;stroke-dasharray:none;stroke-opacity:1"
             d="m 711.9441,136.01317 c -0.44782,0.52368 -1.04098,0.92176 -1.6953,1.13773 -0.0985,0.0325 -0.19822,0.0609 -0.29666,0.0935 -0.24044,0.0795 -0.47257,0.18324 -0.71507,0.25621 -0.2425,0.073 -0.50077,0.11461 -0.74927,0.0658 -0.31385,-0.0616 -0.58326,-0.26111 -0.81354,-0.48307 -0.49379,-0.47596 -0.86477,-1.09448 -0.97622,-1.77119 -0.0874,-0.53064 -0.015,-1.07261 0,-1.61019 0.0135,-0.48292 -0.0195,-0.96644 0,-1.44915 0.0216,-0.53337 0.10818,-1.06616 0.28473,-1.56993 0.14138,-0.40343 0.33879,-0.78444 0.52879,-1.16739 0.20654,-0.41627 0.4072,-0.84004 0.69149,-1.20763 0.43977,-0.56863 1.06759,-0.97894 1.74909,-1.20763 1.18406,-0.39734 2.55633,-0.23315 3.57953,0.48305 0.89558,0.62687 1.49407,1.65225 1.62706,2.7373 0.11747,0.9584 -0.12233,1.95644 -0.66239,2.75686 l -2.55224,2.93571 z"
             id="path66805"
             inkscape:original-d="m 711.9441,136.01317 c -0.70506,0.32202 -1.47837,1.03039 -1.6953,1.13773 -0.21695,0.10741 -0.0797,-0.22855 -0.29666,0.0935 -0.21693,0.32204 -1.08469,0.0537 -1.46434,0.32204 -0.37966,0.26836 -0.43389,-0.2147 -0.81354,-0.48307 -0.37963,-0.26835 -0.65081,-1.1808 -0.97622,-1.77119 -0.32542,-0.5904 0,-1.07345 0,-1.61019 0,-0.53672 0.0542,-1.01977 0,-1.44915 -0.0542,-0.42939 0.014,-1.24791 0.28473,-1.56993 0.27118,-0.32204 0.52879,-0.63065 0.52879,-1.16739 0,-0.53672 0.47456,-0.61722 0.69149,-1.20763 0.21695,-0.59039 1.15251,-0.88559 1.74909,-1.20763 0.59659,-0.32204 2.44059,0.42938 3.57953,0.48305 1.13894,0.0537 0.86776,1.71753 1.62706,2.7373 0.75929,1.01979 -0.71663,1.95177 -0.66239,2.75686 -0.81468,1.23956 -1.24579,2.22099 -2.55224,2.93571 z"
             inkscape:path-effect="#path-effect66811"
             clip-path="none"
             sodipodi:nodetypes="sssssssssssssscss"
             transform="translate(-579.54919,79.200829)" /><path
             style="fill:#c9d1d9;fill-opacity:1;stroke:#a2a5c0;stroke-width:1.96162063;stroke-dasharray:none;stroke-opacity:1"
             d="m 749.33862,138.60654 c 0.43877,-0.87449 0.55898,-1.87909 0.52163,-2.85678 -0.0374,-0.97768 -0.22432,-1.94244 -0.36976,-2.90997 -0.12424,-0.82648 -0.2187,-1.65895 -0.40652,-2.47334 -0.18782,-0.81439 -0.47363,-1.61699 -0.94859,-2.30468 -0.55779,-0.80762 -1.36646,-1.43195 -2.27318,-1.80778 -0.90672,-0.37583 -1.90795,-0.50702 -2.88573,-0.42137 -1.95556,0.17129 -3.76571,1.19562 -5.1769,2.56021 -0.9622,0.93043 -1.75931,2.01482 -2.62704,3.03392 -0.86774,1.0191 -1.83043,1.99198 -3.01707,2.61119 -0.99095,0.51709 -2.09521,0.76579 -3.17074,1.07011 -1.07553,0.30431 -2.16225,0.68431 -3.01408,1.40802 -1.12554,0.95626 -1.7285,2.48884 -1.57157,3.95739 0.15693,1.46856 1.06369,2.83378 2.34891,3.56144 1.28563,0.72789 2.83272,0.81427 4.30844,0.74416 4.16148,-0.19771 8.18031,-1.48728 12.2014,-2.57716 1.17313,-0.31797 2.36035,-0.62324 3.44888,-1.16403 1.08853,-0.54078 2.08683,-1.34495 2.63192,-2.43133 z"
             id="path66807"
             inkscape:path-effect="#path-effect66815"
             inkscape:original-d="m 749.33862,138.60654 c 1.72944,-1.3569 1.89683,-1.9515 0.15187,-5.76675 -0.56453,-1.2343 -0.22346,-3.23922 -1.35511,-4.77802 -1.95398,-2.657 -6.25367,0.0696 -10.33581,0.33106 -4.08213,0.26145 -3.76275,3.76341 -5.64411,5.64511 -1.88137,1.88171 -4.00326,1.71206 -6.18482,2.47813 -2.18156,0.76607 0.49514,4.92673 0.77734,7.51883 0.28221,2.59209 2.66573,-1.11698 4.30844,0.74416 1.64271,1.86115 11.18301,1.85119 12.2014,-2.57716 4.22897,-18.38901 -1.473,2.3313 6.0808,-3.59536 z"
             sodipodi:nodetypes="ssssssssss"
             transform="translate(-579.54919,79.200829)" /></g></g></g></g><style
     type="text/css"
     id="style1">&#10;	.st0{fill:#4059BF;stroke:#262673;stroke-width:5.5604;stroke-linecap:round;stroke-linejoin:round;stroke-miterlimit:11.3386;}&#10;	.st1{fill:#384B94;stroke:#262673;stroke-width:5.5604;stroke-linecap:round;stroke-linejoin:round;stroke-miterlimit:11.3386;}&#10;	.st2{fill:#262673;}&#10;	.st3{fill:#69532E;stroke:#333333;stroke-width:5.5616;stroke-linecap:round;stroke-linejoin:round;stroke-miterlimit:11.3386;}&#10;	.st4{fill:#808080;stroke:#2E2E2E;stroke-width:2.7803;stroke-linecap:round;stroke-linejoin:round;stroke-miterlimit:11.3386;}&#10;</style><style
     type="text/css"
     id="style1-72">&#10;	.st0{fill:#4059BF;stroke:#262673;stroke-width:5.5604;stroke-linecap:round;stroke-linejoin:round;stroke-miterlimit:11.3386;}&#10;	.st1{fill:#384B94;stroke:#262673;stroke-width:5.5604;stroke-linecap:round;stroke-linejoin:round;stroke-miterlimit:11.3386;}&#10;	.st2{fill:#262673;}&#10;	.st3{fill:#69532E;stroke:#333333;stroke-width:5.5616;stroke-linecap:round;stroke-linejoin:round;stroke-miterlimit:11.3386;}&#10;	.st4{fill:#808080;stroke:#2E2E2E;stroke-width:2.7803;stroke-linecap:round;stroke-linejoin:round;stroke-miterlimit:11.3386;}&#10;</style></svg>
