<svg xmlns="http://www.w3.org/2000/svg" width="185" height="185" viewBox="0 0 48.948 48.948"><defs><clipPath id="b"><circle cy="-15" r="9.5"/><circle cy="-15" r="9.5" transform="rotate(120)"/><circle cy="-15" r="9.5" transform="rotate(-120)"/></clipPath><mask id="a" width="60" height="60" x="-30" y="-30" maskUnits="userSpaceOnUse"><path fill="#fff" d="M-27-27h54v54h-54Z"/><path d="M2-23v-4h-4v4M-.5-6v4h1v-4"/><circle cy="-15" r="10.5"/><g transform="rotate(120)"><path d="M2-23v-4h-4v4M-.5-6v4h1v-4"/><circle cy="-15" r="10.5"/></g><g transform="rotate(-120)"><path d="M2-23v-4h-4v4M-.5-6v4h1v-4"/><circle cy="-15" r="10.5"/></g><circle r="3"/></mask></defs><path d="M4 4h16.9v16.9H4z" style="fill:#674b24;fill-opacity:1;stroke:none;stroke-width:.798207;stroke-linecap:butt;stroke-linejoin:miter;stroke-miterlimit:4;stroke-dasharray:none;stroke-opacity:1" transform="matrix(0 1.96165 -1.96165 0 48.948 0)"/><path d="M.5.5v23.952h23.952V.5Zm4.041 4.041h15.87v15.87H4.54Z" style="fill:#9e7437;stroke-width:0;stroke-linecap:round" transform="matrix(0 1.96165 -1.96165 0 48.948 0)"/><path d="M4 4h16.9v16.9H4z" style="fill:none;fill-opacity:1;stroke:none;stroke-width:1;stroke-linecap:butt;stroke-linejoin:bevel;stroke-miterlimit:4;stroke-dasharray:none;stroke-opacity:1" transform="matrix(0 1.96165 -1.96165 0 48.948 0)"/><path d="M4.541 4.541h15.87v15.87H4.541z" style="fill:none;fill-opacity:1;stroke:#3f2e16;stroke-width:1;stroke-linecap:butt;stroke-linejoin:miter;stroke-miterlimit:4;stroke-dasharray:none;stroke-opacity:1" transform="matrix(0 1.96165 -1.96165 0 48.948 0)"/><path d="M.5.5h23.952v23.952H.5z" style="fill:none;fill-opacity:1;stroke:#3f2e16;stroke-width:1;stroke-linecap:round;stroke-linejoin:round;stroke-miterlimit:4;stroke-dasharray:none;stroke-opacity:1" transform="matrix(0 1.96165 -1.96165 0 48.948 0)"/><path d="M20.411 4.54h4M20.411 20.411h4M.54 20.411h4M.54 4.54h4" style="fill:none;stroke:#3f2e16;stroke-width:1;stroke-linecap:butt;stroke-linejoin:miter;stroke-miterlimit:4;stroke-dasharray:none;stroke-opacity:1" transform="matrix(0 1.96165 -1.96165 0 48.948 0)"/><g style="fill:#332a00;fill-opacity:1;stroke:none;stroke-opacity:1" transform="matrix(.53996 0 0 .55899 24.65 24.947)"><g mask="url(#a)" style="fill:#332a00;fill-opacity:1;stroke:none;stroke-opacity:1"><circle cy="-11" r="15" style="fill:#332a00;fill-opacity:1;stroke:none;stroke-opacity:1"/><circle cy="-11" r="15" style="fill:#332a00;fill-opacity:1;stroke:none;stroke-opacity:1" transform="rotate(120)"/><circle cy="-11" r="15" style="fill:#332a00;fill-opacity:1;stroke:none;stroke-opacity:1" transform="rotate(-120)"/></g><circle r="11.75" fill="none" clip-path="url(#b)" style="fill:#332a00;fill-opacity:1;stroke:none;stroke-opacity:1"/></g><path d="M.544 20.158.481 24.45l9.625.066-.032-1.989-7.073-1.824L.495 18.91z" style="opacity:.7;fill:#b2d1f0;fill-opacity:1;stroke:#4a95dd;stroke-width:.999985;stroke-linecap:round;stroke-linejoin:round;stroke-miterlimit:4;stroke-dasharray:none;stroke-opacity:1" transform="scale(1.96165)"/><path d="m21.503.348 3.141-.033.049 5.024L20.588.322Z" style="opacity:.7;fill:#b2d1f0;fill-opacity:1;stroke:#4a95dd;stroke-width:.618154;stroke-linecap:round;stroke-linejoin:round;stroke-miterlimit:4;stroke-dasharray:none;stroke-opacity:1" transform="scale(1.96165)"/><path d="M24.433 24.45V11.018c-2.109 2.342-1.388 4.613-2.824 6.21-6.755 7.509-9.245 7.222-9.245 7.222zM.311.42V13.85c.785.073 3.257 3.03 3.767 2.612 2.39-1.025 7.732-1.148 8.908-3.904 1.482-1.755-1.35-5.664 2.557-5.834 10.071-.437 1.594-2.763 2.233-6.238Z" style="opacity:.7;fill:#b2d1f0;fill-opacity:1;stroke:#4a95dd;stroke-width:.999985;stroke-linecap:round;stroke-linejoin:round;stroke-miterlimit:4;stroke-dasharray:none;stroke-opacity:1" transform="scale(1.96165)"/></svg>