<?xml version="1.0" encoding="UTF-8" standalone="no"?>
<!-- Created with Inkscape (http://www.inkscape.org/) -->

<svg
   width="185.06415"
   height="184.94899"
   viewBox="0 0 48.96489 48.934419"
   version="1.1"
   id="svg1"
   xml:space="preserve"
   xmlns="http://www.w3.org/2000/svg"
   xmlns:svg="http://www.w3.org/2000/svg"><defs
     id="defs1"><style
       id="style1-7">
      .cls-1 {
        fill: #bababa;
      }

      .cls-1, .cls-2, .cls-3 {
        isolation: isolate;
        opacity: .997;
        stroke: #303030;
        stroke-linecap: round;
        stroke-miterlimit: 15.1181;
        stroke-width: 5px;
      }

      .cls-2 {
        fill: #5a70e0;
      }

      .cls-3 {
        fill: #3f3fe0;
      }

      .cls-4 {
        opacity: .9;
      }
    </style><style
       id="style1-7-3">
      .cls-1 {
        fill: #bababa;
      }

      .cls-1, .cls-2, .cls-3 {
        isolation: isolate;
        opacity: .997;
        stroke: #303030;
        stroke-linecap: round;
        stroke-miterlimit: 15.1181;
        stroke-width: 5px;
      }

      .cls-2 {
        fill: #5a70e0;
      }

      .cls-3 {
        fill: #3f3fe0;
      }

      .cls-4 {
        opacity: .9;
      }
    </style></defs><g
     id="layer1"
     transform="translate(-7.3667656,-128.6691)"><g
       id="g1"
       transform="matrix(0.26458333,0,0,0.26458333,-9.4742399,-7.4868277)"><g
         id="g2"
         transform="matrix(1.0119806,0,0,1.0113465,-0.80651529,-5.880555)"
         style="stroke-width:0.988471"><rect
           x="67.31871"
           y="518.27045"
           class="st0"
           width="175.62552"
           height="175.62552"
           id="rect1-5-6"
           style="fill:#b94646;fill-opacity:1;stroke:#5d2323;stroke-width:7.24692;stroke-linecap:round;stroke-linejoin:round;stroke-miterlimit:11.3386;stroke-opacity:1" /><path
           class="st1"
           d="m 110.82954,548.46433 -13.316946,13.31695 v 88.47202 l 13.316946,13.31695 h 88.47202 l 13.31695,-13.31695 v -88.47202 l -13.31695,-13.31695 z"
           id="path1-2-5"
           style="fill:#3d7b38;fill-opacity:1;stroke:#224620;stroke-width:7.24692;stroke-linecap:round;stroke-linejoin:round;stroke-miterlimit:11.3386;stroke-opacity:1" /><path
           class="st0"
           d="m 199.30156,548.46433 -22.01912,22.01912 h -44.56563 l -22.01912,-22.01912 -13.316947,13.31695 22.019117,22.01912 v 44.56563 l -22.019117,22.01912 13.316947,13.31695 22.01912,-22.01912 h 44.56563 l 22.01912,22.01912 13.31695,-13.31695 -21.88727,-22.01912 V 583.8004 l 22.01912,-22.01912 z"
           id="path2-2-5"
           style="fill:#b94646;fill-opacity:1;stroke:#5d2323;stroke-width:7.24692;stroke-linecap:round;stroke-linejoin:round;stroke-miterlimit:11.3386;stroke-opacity:1" /><g
           transform="matrix(0.93171184,0,0,0.93171184,25.996617,495.49979)"
           id="g4-7-8"
           style="fill:#5d2323;fill-opacity:1;stroke:#5d2323;stroke-width:0.988471;stroke-opacity:1">
		<path
   class="st2"
   d="m 134,130.3 h 9 c 1,0 1.7,0.8 1.7,1.7 v 9.1 c 0,1 -0.8,1.7 -1.7,1.7 h -9 c -1,0 -1.7,-0.8 -1.7,-1.7 V 132 c -0.1,-1 0.7,-1.7 1.7,-1.7 z"
   id="path3-3-1"
   style="fill:#5d2323;fill-opacity:1;stroke-width:0.988471" />
		<path
   class="st2"
   d="m 145.7,128.4 13.9,-14.8 c -0.1,-2.9 -9.5,-5.1 -12.6,-0.6 l -4.5,14.6 h -1.7 l 4.4,-14.2 c -2.3,-4.2 -10.6,-3.4 -13,-0.2 l 4.5,14.5 h -2 l -4.5,-14.4 c -2.5,-3.8 -10.4,-3.7 -13.1,0 l 14.7,15.3 -1.8,1.5 -14.6,-16.4 c 0.3,-24.6 45,-26.1 46.4,0.1 l -14.9,15.8 z"
   id="path4-7-4"
   style="fill:#5d2323;fill-opacity:1;stroke-width:0.988471" />
	</g><path
           class="st3"
           d="m 67.318718,518.27046 v 43.51082 h 30.193876 l 13.316946,-13.31695 v -30.19387 z m 131.982842,0 v 30.19387 l 13.31695,13.31695 h 30.19388 v -43.51082 z m 13.31695,132.11469 -13.31695,13.31695 v 30.19388 h 43.51083 v -43.51083 z m -145.299792,0 v 43.51083 H 110.82954 V 663.7021 L 97.512594,650.38515 Z"
           id="path5-9-7"
           style="fill:#aa8534;fill-opacity:1;stroke:#614c1d;stroke-width:7.24848;stroke-linecap:round;stroke-linejoin:round;stroke-miterlimit:11.3386;stroke-opacity:1" /><g
           id="g8-0-1"
           transform="matrix(1.3185099,0,0,1.3185099,-151.42208,205.12436)"
           style="fill:#c49d46;fill-opacity:1;stroke:#614c1d;stroke-width:0.988471;stroke-opacity:1">
		<circle
   class="st4"
   cx="182.39999"
   cy="254.10001"
   r="4.5999999"
   id="circle5-2-3"
   style="fill:#c49d46;fill-opacity:1;stroke:#614c1d;stroke-width:2.74825;stroke-linecap:round;stroke-linejoin:round;stroke-miterlimit:11.3386;stroke-opacity:1" />
		<circle
   class="st4"
   cx="182.39999"
   cy="354.20001"
   r="4.5999999"
   id="circle6-3-8"
   style="fill:#c49d46;fill-opacity:1;stroke:#614c1d;stroke-width:2.74825;stroke-linecap:round;stroke-linejoin:round;stroke-miterlimit:11.3386;stroke-opacity:1" />
		<circle
   class="st4"
   cx="282.5"
   cy="354.20001"
   r="4.5999999"
   id="circle7-9-4"
   style="fill:#c49d46;fill-opacity:1;stroke:#614c1d;stroke-width:2.74825;stroke-linecap:round;stroke-linejoin:round;stroke-miterlimit:11.3386;stroke-opacity:1" />
		<circle
   class="st4"
   cx="282.5"
   cy="254.10001"
   r="4.5999999"
   id="circle8-9-8"
   style="fill:#c49d46;fill-opacity:1;stroke:#614c1d;stroke-width:2.74825;stroke-linecap:round;stroke-linejoin:round;stroke-miterlimit:11.3386;stroke-opacity:1" />
	</g></g></g></g><style
     type="text/css"
     id="style1">
	.st0{fill:#4059BF;stroke:#262673;stroke-width:5.5604;stroke-linecap:round;stroke-linejoin:round;stroke-miterlimit:11.3386;}
	.st1{fill:#384B94;stroke:#262673;stroke-width:5.5604;stroke-linecap:round;stroke-linejoin:round;stroke-miterlimit:11.3386;}
	.st2{fill:#262673;}
	.st3{fill:#69532E;stroke:#333333;stroke-width:5.5616;stroke-linecap:round;stroke-linejoin:round;stroke-miterlimit:11.3386;}
	.st4{fill:#808080;stroke:#2E2E2E;stroke-width:2.7803;stroke-linecap:round;stroke-linejoin:round;stroke-miterlimit:11.3386;}
</style><style
     type="text/css"
     id="style1-0">
	.st0{fill:#4059BF;stroke:#262673;stroke-width:5.5604;stroke-linecap:round;stroke-linejoin:round;stroke-miterlimit:11.3386;}
	.st1{fill:#384B94;stroke:#262673;stroke-width:5.5604;stroke-linecap:round;stroke-linejoin:round;stroke-miterlimit:11.3386;}
	.st2{fill:#262673;}
	.st3{fill:#69532E;stroke:#333333;stroke-width:5.5616;stroke-linecap:round;stroke-linejoin:round;stroke-miterlimit:11.3386;}
	.st4{fill:#808080;stroke:#2E2E2E;stroke-width:2.7803;stroke-linecap:round;stroke-linejoin:round;stroke-miterlimit:11.3386;}
</style></svg>
