<svg width="91.797" height="91.797" viewBox="0 0 24.288 24.288" xml:space="preserve" xmlns="http://www.w3.org/2000/svg">
    <g transform="translate(1020.83 -43.26)">
        <rect style="fill:#377130;fill-opacity:1;fill-rule:nonzero;stroke:#1e3418;stroke-width:1.38907;stroke-linecap:round;stroke-linejoin:round;stroke-miterlimit:4;stroke-dasharray:none;stroke-dashoffset:0;stroke-opacity:1;paint-order:normal" width="22.899" height="22.899" x="43.954" y="997.237" rx="0" ry="0" transform="rotate(90)"/>
        <rect style="fill:none;fill-opacity:1;fill-rule:nonzero;stroke:#14240f;stroke-width:1.38907;stroke-linecap:round;stroke-linejoin:round;stroke-miterlimit:4;stroke-dasharray:none;stroke-dashoffset:0;stroke-opacity:1;paint-order:normal" width="22.899" height="22.899" x="43.954" y="997.237" rx="0" ry="0" transform="rotate(90)"/>
        <path style="fill:#ffe164;fill-opacity:1;stroke:#14240f;stroke-width:1.38906;stroke-linecap:round;stroke-linejoin:round;stroke-dasharray:none;stroke-opacity:1;stop-color:#000" transform="rotate(90)" d="M43.954 1011.65h22.899v3.789H43.954z"/>
        <path style="fill:#ffe164;fill-opacity:1;stroke:#14240f;stroke-width:1.38907;stroke-linecap:square;stroke-linejoin:miter;stroke-dasharray:none;stroke-opacity:1;stop-color:#000" transform="scale(-1)" d="M997.237-57.298h22.899v3.789h-22.899z"/>
        <path style="fill:#ffe164;fill-opacity:1;fill-rule:nonzero;stroke:#4c3d00;stroke-width:1.38906;stroke-linecap:round;stroke-linejoin:round;stroke-miterlimit:4;stroke-dasharray:none;stroke-dashoffset:0;stroke-opacity:1;paint-order:normal" d="M-1015.034 53.013a1.28 1.28 0 0 0-.434 1.807 1.28 1.28 0 0 0 .698 2.458 1.28 1.28 0 0 0 2.551.184 1.281 1.281 0 0 0 .856-2.41 1.28 1.28 0 1 0-1.964-1.635 1.28 1.28 0 0 0-1.708-.403z"/>
        <path style="fill:#ffe164;fill-opacity:1;fill-rule:nonzero;stroke:#4c3d00;stroke-width:1.38906;stroke-linecap:round;stroke-linejoin:round;stroke-miterlimit:4;stroke-dasharray:none;stroke-dashoffset:0;stroke-opacity:1;paint-order:normal" d="M-1012.815 50.655c-1.133-.26-2.36.6-2.49 1.757-1.09-.489-2.49.17-2.809 1.321-.304.925.142 2.018 1.006 2.466-.848.822-.77 2.346.163 3.075.778.677 2.047.634 2.783-.084.589 1.039 2.106 1.339 3.046.602.818-.576 1.095-1.767.621-2.647 1.16-.084 2.078-1.264 1.867-2.41-.148-1.158-1.382-2.01-2.516-1.733.17-1.067-.608-2.158-1.671-2.347z"/>
    </g>
</svg>
