<svg xmlns="http://www.w3.org/2000/svg" width="131.726" height="142.25" viewBox="0 0 34.853 37.637"><g transform="matrix(.39571 0 0 .39571 -9.514 -8.32)"><path d="M25.976 27.949h84.204v4.337H25.976zM26.07 104.898h84.113v4.339H26.07z" style="fill:#454326;fill-opacity:1;stroke:#2f2e18;stroke-width:3.86873;stroke-linecap:round;stroke-linejoin:round;stroke-dasharray:none;stroke-opacity:1;paint-order:stroke fill markers"/><path d="M32.723-109.544h72.175v4.543H32.723zM32.509-31.048h72.175v4.543H32.509z" style="fill:#454326;fill-opacity:1;stroke:#2f2e18;stroke-width:3.86873;stroke-linecap:round;stroke-linejoin:round;stroke-dasharray:none;stroke-opacity:1;paint-order:stroke fill markers" transform="rotate(90)"/><path d="M34.982 108h9.139v6.152h-9.139zM89.949 108h9.139v6.152h-9.139zM34.982 23.008h9.139v6.152h-9.139zM89.949 23.008h9.139v6.152h-9.139z" style="fill:#49432b;fill-opacity:1;stroke:#312c1c;stroke-width:3.96875;stroke-linecap:round;stroke-linejoin:round;stroke-dasharray:none;stroke-opacity:1;paint-order:stroke fill markers"/><path d="M28.327 29.924h25.846v77.386H28.327zM55.133 29.924h25.846v77.323H55.133zM81.939 29.924h25.846v77.323H81.939z" style="fill:#4c4823;fill-opacity:1;stroke:#292713;stroke-width:5.29167;stroke-linecap:round;stroke-linejoin:round;stroke-dasharray:none;stroke-opacity:1;paint-order:stroke fill markers"/><path d="M28.446 37.499h79.551v10.833H28.446zM28.446 89.21h79.551v10.833H28.446z" style="fill:#504a2a;fill-opacity:1;stroke:#332d1a;stroke-width:5.29167;stroke-linecap:round;stroke-linejoin:round;stroke-dasharray:none;stroke-opacity:1;paint-order:stroke fill markers"/><path d="M62.868 108.516h8.335v1.864h-8.335zM50.658 26.543h7.559v3.437h-7.559zM77.443 26.353h7.559v3.437h-7.559z" style="fill:#3e3e3e;fill-opacity:1;stroke:#2e2e2e;stroke-width:3.96875;stroke-linecap:round;stroke-linejoin:round;stroke-dasharray:none;stroke-opacity:1;paint-order:stroke fill markers"/><path d="M22.686 88.249h5.098v2.083h-5.098z" style="fill:#ababab;fill-opacity:1;fill-rule:evenodd;stroke:#4c4823;stroke-width:0;stroke-linecap:round;stroke-linejoin:round;stroke-dasharray:none;stroke-opacity:1" transform="matrix(.86686 -.49856 .50144 .8652 0 0)"/><path d="m63.563 64.063-1.655.952-1.351 3.49 1.78 8.805-2.816.462-2.185-10.418 2.804-5.757-.31-2.27 4.138-2.38 2.2 1.993v.79l1.58 1.836z" style="fill:#ababab;fill-opacity:1;fill-rule:evenodd;stroke:#4c4823;stroke-width:0;stroke-linecap:round;stroke-linejoin:round;stroke-dasharray:none;stroke-opacity:1"/><ellipse cx="25.449" cy="97.48" rx="8.175" ry="8.159" style="fill:#ababab;fill-opacity:1;fill-rule:evenodd;stroke:#4c4823;stroke-width:0;stroke-linecap:round;stroke-linejoin:round;stroke-dasharray:none;stroke-opacity:1" transform="matrix(.86686 -.49856 .50144 .8652 0 0)"/><path d="m63.905 75.748 14.075-8.096" style="fill:#222;fill-opacity:.697324;fill-rule:evenodd;stroke:#4c4823;stroke-width:1.04265;stroke-linecap:round;stroke-linejoin:round;stroke-dasharray:none;stroke-opacity:1"/><ellipse cx="19.248" cy="86.627" rx="3.854" ry="3.846" style="fill:none;fill-opacity:1;fill-rule:evenodd;stroke:#ababab;stroke-width:1.75819;stroke-linecap:round;stroke-linejoin:round;stroke-dasharray:none;stroke-opacity:1" transform="matrix(.86686 -.49856 .50144 .8652 0 0)"/><ellipse cx="28.468" cy="82.166" rx="2.105" ry="2.101" style="fill:#ababab;fill-opacity:1;fill-rule:evenodd;stroke:#4c4823;stroke-width:0;stroke-linecap:round;stroke-linejoin:round;stroke-dasharray:none;stroke-opacity:1" transform="matrix(.86686 -.49856 .50144 .8652 0 0)"/></g><path d="M143.003 217.16a42 42 0 0 1-3.09 3.129c-1.764 1.608-3.742 3.106-6.062 3.666-1.16.28-2.39.314-3.543.002-1.152-.31-2.22-.978-2.932-1.936-.647-.87-.982-1.949-1.04-3.031s.15-2.167.51-3.189c.723-2.043 2.028-3.817 3.16-5.665.661-1.078 1.269-2.192 2.026-3.204s1.68-1.932 2.819-2.482c1.562-.754 3.427-.744 5.074-.196s3.09 1.597 4.314 2.828c.582.585 1.125 1.22 1.52 1.944.397.724.643 1.545.605 2.37-.046.987-.49 1.912-1.002 2.757a16 16 0 0 1-2.359 3.008z" style="fill:#c9d1d9;fill-opacity:1;stroke:#a2a5c0;stroke-width:2.66095;stroke-dasharray:none;stroke-opacity:1" transform="matrix(.39773 0 0 .39773 -46.084 -74.157)"/><path d="M127.773 179.777c-.815 1.142-1.308 2.486-1.636 3.85s-.5 2.76-.732 4.144c-.202 1.2-.45 2.398-.51 3.613-.06 1.216.076 2.467.606 3.562.577 1.19 1.598 2.134 2.769 2.749 1.171.614 2.488.916 3.806 1.022 2.637.214 5.274-.326 7.919-.383 2.422-.052 4.834.301 7.254.422s4.915-.005 7.142-.96c3.065-1.316 5.37-4.209 6.09-7.465.75-3.394-.193-7.074-2.304-9.836-1.443-1.888-3.393-3.363-5.545-4.37s-4.502-1.558-6.87-1.758c-3.343-.282-6.72.124-9.981.916-1.52.369-3.03.824-4.424 1.534s-2.675 1.687-3.584 2.96z" style="fill:#c9d1d9;fill-opacity:1;stroke:#a2a5c0;stroke-width:2.66094813;stroke-dasharray:none;stroke-opacity:1" transform="rotate(-127.469 20.814 62.991)scale(.39773)"/><path d="M123.697 173.99c-.685.931-1.102 2.043-1.294 3.182-.192 1.14-.163 2.308-.01 3.454.304 2.29 1.096 4.485 1.61 6.738.575 2.512.807 5.1 1.498 7.582.483 1.733 1.197 3.418 2.273 4.859s2.533 2.629 4.234 3.212c1.7.584 3.65.522 5.23-.335a5.4 5.4 0 0 0 1.968-1.804 4.9 4.9 0 0 0 .788-2.544c.018-1.014-.297-2-.577-2.975s-.529-1.992-.376-2.995c.144-.944.648-1.817 1.347-2.467.7-.65 1.587-1.081 2.516-1.3 1.859-.438 3.818-.039 5.617.6 1.799.64 3.51 1.517 5.335 2.08 1.824.562 3.834.793 5.622.123a6.1 6.1 0 0 0 2.612-1.909 6.3 6.3 0 0 0 1.284-2.972c.16-1.08.04-2.2-.34-3.223a6.8 6.8 0 0 0-1.824-2.682c-1.572-1.417-3.685-2.033-5.711-2.644-6.024-1.815-11.95-3.94-17.976-5.746-2.38-.714-4.822-1.383-7.305-1.292-1.241.046-2.483.286-3.62.787-1.136.502-2.165 1.27-2.901 2.271z" style="fill:#c9d1d9;fill-opacity:1;stroke:#a2a5c0;stroke-width:2.66095;stroke-dasharray:none;stroke-opacity:1" transform="rotate(15.376 268.59 -81.768)scale(.39773)"/><path d="M54.17 38.034v15.095H42.7c-.085-.801-.005-1.611-.035-2.415-.023-.638-.368-1.284-.275-1.93.225-1.58 3.463-1.625 3.893-3.239.573-2.149-.986-4.45-.24-6.684.927-2.783 6.556-2.416 8.129-.827" style="fill:#c9d1d9;stroke:#a2a5c0;stroke-width:1.05833;stroke-linecap:round;stroke-linejoin:round;stroke-dasharray:none" transform="translate(-20.515 -18.491)"/></svg>