<?xml version="1.0" encoding="UTF-8" standalone="no"?>
<!-- Created with Inkscape (http://www.inkscape.org/) -->

<svg
   width="203.74969"
   height="113.92516"
   viewBox="0 0 53.908774 30.142699"
   version="1.1"
   id="svg1"
   inkscape:version="1.3 (0e150ed, 2023-07-21)"
   sodipodi:docname="gun_case_snow copy 2.svg"
   xmlns:inkscape="http://www.inkscape.org/namespaces/inkscape"
   xmlns:sodipodi="http://sodipodi.sourceforge.net/DTD/sodipodi-0.dtd"
   xmlns="http://www.w3.org/2000/svg"
   xmlns:svg="http://www.w3.org/2000/svg">
  <sodipodi:namedview
     id="namedview1"
     pagecolor="#505050"
     bordercolor="#ffffff"
     borderopacity="1"
     inkscape:showpageshadow="0"
     inkscape:pageopacity="0"
     inkscape:pagecheckerboard="1"
     inkscape:deskcolor="#505050"
     inkscape:document-units="px"
     inkscape:zoom="3.620168"
     inkscape:cx="134.1098"
     inkscape:cy="29.556639"
     inkscape:window-width="1440"
     inkscape:window-height="847"
     inkscape:window-x="0"
     inkscape:window-y="25"
     inkscape:window-maximized="0"
     inkscape:current-layer="layer1"
     showguides="false" />
  <defs
     id="defs1">
    <inkscape:path-effect
       effect="fillet_chamfer"
       id="path-effect219"
       is_visible="true"
       lpeversion="1"
       nodesatellites_param="F,0,0,1,0,0,0,1 @ F,0,0,1,0,0,0,1 @ F,0,0,1,0,0,0,1 @ F,0,0,1,0,0,0,1 @ F,0,0,1,0,2.321,0,1 @ F,0,0,1,0,0,0,1 @ F,0,0,1,0,0,0,1 @ F,0,0,1,0,2.321,0,1 @ F,0,0,1,0,0,0,1 @ F,0,0,1,0,0,0,1 @ F,0,0,1,0,0,0,1 @ F,0,0,1,0,0,0,1"
       radius="0"
       unit="px"
       method="auto"
       mode="F"
       chamfer_steps="1"
       flexible="false"
       use_knot_distance="true"
       apply_no_radius="true"
       apply_with_radius="true"
       only_selected="false"
       hide_knots="false" />
    <inkscape:path-effect
       effect="fillet_chamfer"
       id="path-effect219-9"
       is_visible="true"
       lpeversion="1"
       nodesatellites_param="F,0,0,1,0,0,0,1 @ F,0,0,1,0,0,0,1 @ F,0,0,1,0,0,0,1 @ F,0,0,1,0,0,0,1 @ F,0,0,1,0,2.321,0,1 @ F,0,0,1,0,0,0,1 @ F,0,0,1,0,0,0,1 @ F,0,0,1,0,2.321,0,1 @ F,0,0,1,0,0,0,1 @ F,0,0,1,0,0,0,1 @ F,0,0,1,0,0,0,1 @ F,0,0,1,0,0,0,1"
       radius="0"
       unit="px"
       method="auto"
       mode="F"
       chamfer_steps="1"
       flexible="false"
       use_knot_distance="true"
       apply_no_radius="true"
       apply_with_radius="true"
       only_selected="false"
       hide_knots="false" />
    <inkscape:path-effect
       effect="fillet_chamfer"
       id="path-effect219-2"
       is_visible="true"
       lpeversion="1"
       nodesatellites_param="F,0,0,1,0,0,0,1 @ F,0,0,1,0,0,0,1 @ F,0,0,1,0,0,0,1 @ F,0,0,1,0,0,0,1 @ F,0,0,1,0,2.321,0,1 @ F,0,0,1,0,0,0,1 @ F,0,0,1,0,0,0,1 @ F,0,0,1,0,2.321,0,1 @ F,0,0,1,0,0,0,1 @ F,0,0,1,0,0,0,1 @ F,0,0,1,0,0,0,1 @ F,0,0,1,0,0,0,1"
       radius="0"
       unit="px"
       method="auto"
       mode="F"
       chamfer_steps="1"
       flexible="false"
       use_knot_distance="true"
       apply_no_radius="true"
       apply_with_radius="true"
       only_selected="false"
       hide_knots="false" />
    <inkscape:path-effect
       effect="fillet_chamfer"
       id="path-effect219-0"
       is_visible="true"
       lpeversion="1"
       nodesatellites_param="F,0,0,1,0,0,0,1 @ F,0,0,1,0,0,0,1 @ F,0,0,1,0,0,0,1 @ F,0,0,1,0,0,0,1 @ F,0,0,1,0,2.321,0,1 @ F,0,0,1,0,0,0,1 @ F,0,0,1,0,0,0,1 @ F,0,0,1,0,2.321,0,1 @ F,0,0,1,0,0,0,1 @ F,0,0,1,0,0,0,1 @ F,0,0,1,0,0,0,1 @ F,0,0,1,0,0,0,1"
       radius="0"
       unit="px"
       method="auto"
       mode="F"
       chamfer_steps="1"
       flexible="false"
       use_knot_distance="true"
       apply_no_radius="true"
       apply_with_radius="true"
       only_selected="false"
       hide_knots="false" />
    <inkscape:path-effect
       effect="fillet_chamfer"
       id="path-effect219-4"
       is_visible="true"
       lpeversion="1"
       nodesatellites_param="F,0,0,1,0,0,0,1 @ F,0,0,1,0,0,0,1 @ F,0,0,1,0,0,0,1 @ F,0,0,1,0,0,0,1 @ F,0,0,1,0,2.321,0,1 @ F,0,0,1,0,0,0,1 @ F,0,0,1,0,0,0,1 @ F,0,0,1,0,2.321,0,1 @ F,0,0,1,0,0,0,1 @ F,0,0,1,0,0,0,1 @ F,0,0,1,0,0,0,1 @ F,0,0,1,0,0,0,1"
       radius="0"
       unit="px"
       method="auto"
       mode="F"
       chamfer_steps="1"
       flexible="false"
       use_knot_distance="true"
       apply_no_radius="true"
       apply_with_radius="true"
       only_selected="false"
       hide_knots="false" />
    <inkscape:path-effect
       effect="fillet_chamfer"
       id="path-effect219-09"
       is_visible="true"
       lpeversion="1"
       nodesatellites_param="F,0,0,1,0,0,0,1 @ F,0,0,1,0,0,0,1 @ F,0,0,1,0,0,0,1 @ F,0,0,1,0,0,0,1 @ F,0,0,1,0,2.321,0,1 @ F,0,0,1,0,0,0,1 @ F,0,0,1,0,0,0,1 @ F,0,0,1,0,2.321,0,1 @ F,0,0,1,0,0,0,1 @ F,0,0,1,0,0,0,1 @ F,0,0,1,0,0,0,1 @ F,0,0,1,0,0,0,1"
       radius="0"
       unit="px"
       method="auto"
       mode="F"
       chamfer_steps="1"
       flexible="false"
       use_knot_distance="true"
       apply_no_radius="true"
       apply_with_radius="true"
       only_selected="false"
       hide_knots="false" />
    <inkscape:path-effect
       effect="fillet_chamfer"
       id="path-effect219-45"
       is_visible="true"
       lpeversion="1"
       nodesatellites_param="F,0,0,1,0,0,0,1 @ F,0,0,1,0,0,0,1 @ F,0,0,1,0,0,0,1 @ F,0,0,1,0,0,0,1 @ F,0,0,1,0,2.321,0,1 @ F,0,0,1,0,0,0,1 @ F,0,0,1,0,0,0,1 @ F,0,0,1,0,2.321,0,1 @ F,0,0,1,0,0,0,1 @ F,0,0,1,0,0,0,1 @ F,0,0,1,0,0,0,1 @ F,0,0,1,0,0,0,1"
       radius="0"
       unit="px"
       method="auto"
       mode="F"
       chamfer_steps="1"
       flexible="false"
       use_knot_distance="true"
       apply_no_radius="true"
       apply_with_radius="true"
       only_selected="false"
       hide_knots="false" />
    <inkscape:path-effect
       effect="fillet_chamfer"
       id="path-effect219-3"
       is_visible="true"
       lpeversion="1"
       nodesatellites_param="F,0,0,1,0,0,0,1 @ F,0,0,1,0,0,0,1 @ F,0,0,1,0,0,0,1 @ F,0,0,1,0,0,0,1 @ F,0,0,1,0,2.321,0,1 @ F,0,0,1,0,0,0,1 @ F,0,0,1,0,0,0,1 @ F,0,0,1,0,2.321,0,1 @ F,0,0,1,0,0,0,1 @ F,0,0,1,0,0,0,1 @ F,0,0,1,0,0,0,1 @ F,0,0,1,0,0,0,1"
       radius="0"
       unit="px"
       method="auto"
       mode="F"
       chamfer_steps="1"
       flexible="false"
       use_knot_distance="true"
       apply_no_radius="true"
       apply_with_radius="true"
       only_selected="false"
       hide_knots="false" />
    <inkscape:path-effect
       effect="fillet_chamfer"
       id="path-effect219-30"
       is_visible="true"
       lpeversion="1"
       nodesatellites_param="F,0,0,1,0,0,0,1 @ F,0,0,1,0,0,0,1 @ F,0,0,1,0,0,0,1 @ F,0,0,1,0,0,0,1 @ F,0,0,1,0,2.321,0,1 @ F,0,0,1,0,0,0,1 @ F,0,0,1,0,0,0,1 @ F,0,0,1,0,2.321,0,1 @ F,0,0,1,0,0,0,1 @ F,0,0,1,0,0,0,1 @ F,0,0,1,0,0,0,1 @ F,0,0,1,0,0,0,1"
       radius="0"
       unit="px"
       method="auto"
       mode="F"
       chamfer_steps="1"
       flexible="false"
       use_knot_distance="true"
       apply_no_radius="true"
       apply_with_radius="true"
       only_selected="false"
       hide_knots="false" />
  </defs>
  <g
     inkscape:label="Layer 1"
     inkscape:groupmode="layer"
     id="layer1"
     transform="translate(-78.05208,-133.35)">
    <g
       id="path17893-5"
       class="st21"
       style="stroke:#252525;stroke-width:1.00012;stroke-dasharray:none;stroke-opacity:1"
       transform="translate(-355.3768,-434.16556)">
      <path
         style="color:#000000;fill:#808080;stroke:#252525;stroke-width:1.00012;stroke-linecap:round;stroke-linejoin:round;stroke-miterlimit:11.3386;stroke-dasharray:none;stroke-opacity:1"
         d="m 444.99886,569.10539 h 4.14051 c 0.29057,0 0.50849,0.21792 0.50849,0.50848 v 1.16225 c 0,0.29056 -0.21792,0.50849 -0.50849,0.50849 h -4.14051 c -0.29056,0 -0.50848,-0.21793 -0.50848,-0.50849 v -1.16225 c 0,-0.29056 0.21792,-0.50848 0.50848,-0.50848 z"
         id="path10" />
      <path
         style="color:#000000;fill:#808080;stroke:#252525;stroke-width:1.00012;stroke-linecap:round;stroke-linejoin:round;stroke-miterlimit:11.3386;stroke-dasharray:none;stroke-opacity:1"
         d="m 444.99805,568.01562 c -0.83537,0 -1.59766,0.7623 -1.59766,1.59766 v 1.16211 c 0,0.83536 0.76227,1.59961 1.59766,1.59961 h 4.14062 c 0.83538,0 1.59961,-0.76425 1.59961,-1.59961 v -1.16211 c 0,-0.83536 -0.76425,-1.59766 -1.59961,-1.59766 z"
         id="path11" />
    </g>
    <g
       id="path17893-5-1"
       class="st21"
       style="stroke:#262626;stroke-width:1.00012;stroke-dasharray:none;stroke-opacity:1"
       transform="translate(-355.3768,-434.16556)">
      <path
         style="color:#000000;fill:#808080;stroke:#262626;stroke-width:1.00012;stroke-linecap:round;stroke-linejoin:round;stroke-miterlimit:11.3386;stroke-dasharray:none;stroke-opacity:1"
         d="m 443.50172,593.88942 h 2.34045 c 0.29057,0 0.50849,0.21792 0.50849,0.50848 v 1.16225 c 0,0.29056 -0.21792,0.50849 -0.50849,0.50849 h -2.34045 c -0.29056,0 -0.50848,-0.21793 -0.50848,-0.50849 v -1.16225 c 0,-0.29056 0.21792,-0.50848 0.50848,-0.50848 z"
         id="path3" />
      <path
         style="color:#000000;fill:#808080;stroke:#262626;stroke-width:1.00012;stroke-linecap:round;stroke-linejoin:round;stroke-miterlimit:11.3386;stroke-dasharray:none;stroke-opacity:1"
         d="m 443.50195,592.80078 c -0.83533,0 -1.59765,0.76232 -1.59765,1.59766 v 1.16211 c 0,0.83533 0.76229,1.59765 1.59765,1.59765 h 2.33985 c 0.83535,0 1.59765,-0.76232 1.59765,-1.59765 v -1.16211 c 0,-0.83534 -0.76233,-1.59766 -1.59765,-1.59766 z"
         id="path4" />
    </g>
    <g
       id="path17893-5-1-2"
       class="st21"
       style="stroke:#272727;stroke-opacity:1"
       transform="translate(-355.3768,-434.16556)">
      <path
         style="color:#000000;fill:#808080;stroke:#272727;stroke-linecap:round;stroke-linejoin:round;stroke-miterlimit:11.3386;stroke-opacity:1;-inkscape-stroke:none"
         d="m 474.92436,593.88948 h 2.34045 c 0.29057,0 0.50849,0.21792 0.50849,0.50848 v 1.16225 c 0,0.29056 -0.21792,0.50849 -0.50849,0.50849 h -2.34045 c -0.29056,0 -0.50848,-0.21793 -0.50848,-0.50849 v -1.16225 c 0,-0.29056 0.21792,-0.50848 0.50848,-0.50848 z"
         id="path1" />
      <path
         style="color:#000000;fill:#808080;stroke:#272727;stroke-width:1.00012;stroke-linecap:round;stroke-linejoin:round;stroke-miterlimit:11.3386;stroke-dasharray:none;stroke-opacity:1"
         d="m 474.92383,592.80078 c -0.83537,0 -1.59766,0.76229 -1.59766,1.59766 v 1.16211 c 0,0.83536 0.76227,1.59765 1.59766,1.59765 h 2.34179 c 0.83539,0 1.59766,-0.76229 1.59766,-1.59765 v -1.16211 c 0,-0.83537 -0.7623,-1.59766 -1.59766,-1.59766 z"
         id="path2" />
    </g>
    <g
       id="path17893-5-5"
       class="st21"
       style="stroke:#252525;stroke-width:1.00012;stroke-dasharray:none;stroke-opacity:1"
       transform="translate(-355.3768,-434.16556)">
      <path
         style="color:#000000;fill:#808080;stroke:#252525;stroke-width:1.00012;stroke-linecap:round;stroke-linejoin:round;stroke-miterlimit:11.3386;stroke-dasharray:none;stroke-opacity:1"
         d="m 471.41958,569.10545 h 4.14051 c 0.29057,0 0.50849,0.21792 0.50849,0.50848 v 1.16225 c 0,0.29056 -0.21792,0.50849 -0.50849,0.50849 h -4.14051 c -0.29056,0 -0.50848,-0.21793 -0.50848,-0.50849 v -1.16225 c 0,-0.29056 0.21792,-0.50848 0.50848,-0.50848 z"
         id="path8" />
      <path
         style="color:#000000;fill:#808080;stroke:#252525;stroke-width:1.00012;stroke-linecap:round;stroke-linejoin:round;stroke-miterlimit:11.3386;stroke-dasharray:none;stroke-opacity:1"
         d="m 471.41992,568.01562 c -0.83536,10e-6 -1.59765,0.7623 -1.59765,1.59766 v 1.16211 c 0,0.83536 0.76226,1.59961 1.59765,1.59961 h 4.14063 c 0.83538,0 1.59765,-0.76425 1.59765,-1.59961 v -1.16211 c 0,-0.83536 -0.7623,-1.59766 -1.59765,-1.59766 z"
         id="path9" />
    </g>
    <g
       id="path160"
       style="stroke:#272727;stroke-width:1.00012;stroke-dasharray:none;stroke-opacity:1"
       transform="translate(-355.3768,-466.34481)">
      <path
         style="color:#000000;fill:#3e5031;stroke:#272727;stroke-width:1.00012;stroke-linecap:square;stroke-dasharray:none;stroke-opacity:1"
         d="m 448.48684,626.47304 h 24.12357"
         id="path5" />
      <path
         style="color:#000000;fill:#808080;stroke:#272727;stroke-width:1.00012;stroke-linecap:square;stroke-dasharray:none;stroke-opacity:1"
         d="m 447.56055,625.13012 v 1.85157 h 0.92578 24.125 0.92578 v -1.85157 h -0.92578 -24.125 z"
         id="path6" />
    </g>
    <path
       id="rect1-00-3-3"
       style="fill:#3e5130;fill-opacity:1;stroke:#1a2013;stroke-width:1.85208333;stroke-linecap:round;stroke-linejoin:round;stroke-miterlimit:5;stroke-dasharray:none;stroke-opacity:1"
       d="m 436.88703,523.03784 c -1.40288,0 -2.53215,1.12927 -2.53215,2.53215 v 18.26762 c 0,1.40288 1.12927,2.53266 2.53215,2.53266 h 12.28844 a 2.3207674,2.3207674 134.99713 0 0 2.32077,-2.321 l -2.4e-4,-2.36916 h 17.774 l 3e-5,2.36916 a 2.3210297,2.3210297 44.999634 0 0 2.32103,2.321 h 12.28845 c 1.40288,0 2.53214,-1.12978 2.53214,-2.53266 v -18.26762 c 0,-1.40288 -1.12926,-2.53215 -2.53214,-2.53215 z"
       sodipodi:nodetypes="ssssccccsssss"
       inkscape:path-effect="#path-effect219"
       inkscape:original-d="m 436.88703,523.03784 c -1.40288,0 -2.53215,1.12927 -2.53215,2.53215 v 18.26762 c 0,1.40288 1.12927,2.53266 2.53215,2.53266 h 14.60944 l -4.7e-4,-4.69016 h 17.774 l 6e-5,4.69016 h 14.60945 c 1.40288,0 2.53214,-1.12978 2.53214,-2.53266 v -18.26762 c 0,-1.40288 -1.12926,-2.53215 -2.53214,-2.53215 z"
       transform="translate(-355.3768,-386.15932)" />
    <g
       id="g161"
       transform="translate(-355.12245,-386.08749)"
       style="display:inline">
      <rect
         style="fill:#4f663f;fill-opacity:1;stroke:#1a2013;stroke-width:1.85208;stroke-linecap:square;stroke-linejoin:miter;stroke-dasharray:none;stroke-opacity:1"
         id="rect160"
         width="3.9761353"
         height="23.183311"
         x="442.12018"
         y="523.04297" />
      <rect
         style="fill:#4f663f;fill-opacity:1;stroke:#1a2013;stroke-width:1.85208;stroke-linecap:square;stroke-linejoin:miter;stroke-dasharray:none;stroke-opacity:1"
         id="rect160-1"
         width="3.9761353"
         height="23.171618"
         x="474.16153"
         y="523.04303" />
    </g>
    <g
       id="g162"
       transform="translate(-355.3768,-386.99022)">
      <path
         style="fill:#808080;fill-opacity:1;stroke:#1a2013;stroke-width:1.32292;stroke-linecap:round;stroke-linejoin:round;stroke-dasharray:none;stroke-opacity:1"
         d="M 451.496,537.43486 H 469.27"
         id="path161"
         sodipodi:nodetypes="cc" />
      <path
         style="fill:#808080;fill-opacity:1;stroke:#1a2013;stroke-width:1.32292;stroke-linecap:round;stroke-linejoin:round;stroke-dasharray:none;stroke-opacity:1"
         d="m 451.49626,533.13538 h 17.774"
         id="path161-6"
         sodipodi:nodetypes="cc" />
      <path
         style="fill:#808080;fill-opacity:1;stroke:#1a2013;stroke-width:1.32292;stroke-linecap:round;stroke-linejoin:round;stroke-dasharray:none;stroke-opacity:1"
         d="M 451.496,528.8359 H 469.27"
         id="path161-8"
         sodipodi:nodetypes="cc" />
    </g>
    <path
       id="rect1-00-3-3-2"
       style="fill:#c9d1d9;fill-opacity:1;stroke:#a2a5c0;stroke-width:1.85208;stroke-linecap:round;stroke-linejoin:round;stroke-miterlimit:5;stroke-dasharray:none;stroke-opacity:1"
       d="m 81.510267,136.87847 c -1.402879,0 -2.532145,1.12926 -2.532145,2.53214 v 9.17515 c 4.736505,-0.36642 7.313676,-4.42373 12.08505,-6.18618 1.499538,-0.5539 1.951427,-1.18925 4.450374,-0.4868 12.463224,2.87617 10.193054,-2.27168 27.600904,1.32447 2.04426,0.42231 4.24026,0.729 4.23643,3.82923 -0.006,4.96164 2.29789,5.61044 3.68401,6.03064 v -13.68651 c 0,-1.40288 -1.12926,-2.53214 -2.53214,-2.53214 H 117.96954 97.106731 Z"
       sodipodi:nodetypes="sscscsccssccs" />
    <path
       id="rect1-00-3-3-6"
       style="fill:#c9d1d9;fill-opacity:1;stroke:#a2a5c0;stroke-width:1.85208;stroke-linecap:round;stroke-linejoin:round;stroke-miterlimit:5;stroke-dasharray:none;stroke-opacity:1"
       d="m 82.69702,160.21095 h 11.10165 c 1.281742,1e-5 2.320802,-1.03905 2.32079,-2.32079 l -5.2e-4,-3.01741 c -5.4668,-1.03815 -10.086732,0.85016 -13.42192,5.3382 z"
       sodipodi:nodetypes="ccccc" />
    <path
       style="fill:#c9d1d9;stroke:#a2a5c0;stroke-width:1.85208;stroke-linecap:round;stroke-linejoin:round;stroke-miterlimit:0"
       d="m 116.64145,147.01707 c 1.69258,-0.15624 3.22879,0.12615 4.82367,0.65777 2.43103,0.81035 0.89679,2.30518 1.75406,4.01973 0.53903,1.07804 2.99349,1.17544 1.90024,3.36195 -0.69735,1.39471 -7.21866,0.52845 -8.18563,-0.43851 -1.14101,-1.14102 0.3496,-2.49101 0.0731,-3.87356 -0.32793,-1.63965 -2.5201,-2.18833 -0.36543,-3.72738 z"
       id="path7" />
  </g>
</svg>
