<svg width="131.726" height="142.25" viewBox="0 0 34.853 37.637" xml:space="preserve" xmlns="http://www.w3.org/2000/svg">
    <g transform="translate(68.884 -455.996)">
        <path style="fill:#263645;fill-opacity:1;stroke:#18242f;stroke-width:1.53091;stroke-linecap:round;stroke-linejoin:round;stroke-dasharray:none;stroke-opacity:1;paint-order:stroke fill markers" transform="scale(-1)" d="M34.797-490.893h33.321v1.716H34.797zM34.834-460.443h33.285v1.717H34.834z"/>
        <path style="fill:#454326;fill-opacity:1;stroke:#18242f;stroke-width:1.53091;stroke-linecap:round;stroke-linejoin:round;stroke-dasharray:none;stroke-opacity:1;paint-order:stroke fill markers" transform="rotate(-90)" d="M-489.004-67.866h28.56v1.798h-28.56zM-489.089-36.804h28.56v1.798h-28.56z"/>
        <path style="display:inline;fill:#23374c;fill-opacity:1;stroke:#131e29;stroke-width:2.09398;stroke-linecap:round;stroke-linejoin:round;stroke-dasharray:none;stroke-opacity:1;paint-order:stroke fill markers" transform="scale(-1)" d="M35.727-490.111h10.227v30.623H35.727z"/>
        <path style="fill:#23374c;fill-opacity:1;stroke:#131e29;stroke-width:2.09398;stroke-linecap:round;stroke-linejoin:round;stroke-dasharray:none;stroke-opacity:1;paint-order:stroke fill markers" transform="scale(-1)" d="M56.942-490.111H67.17v30.598H56.942z"/>
        <path style="display:inline;fill:#23374c;fill-opacity:1;stroke:#131e29;stroke-width:2.09398;stroke-linecap:round;stroke-linejoin:round;stroke-dasharray:none;stroke-opacity:1;paint-order:stroke fill markers" transform="scale(-1)" d="M46.335-490.111h10.228v30.598H46.335z"/>
        <circle style="fill:#23384c;fill-opacity:1;stroke:none;stroke-width:1.9525;stroke-linecap:square;stroke-linejoin:miter;stroke-dasharray:none;stroke-opacity:1;paint-order:fill markers stroke" cx="225.085" cy="426.556" r="1.174" transform="rotate(33.55)"/>
        <path style="fill:#2b3a49;fill-opacity:1;stroke:#1c2631;stroke-width:1.57048;stroke-linecap:round;stroke-linejoin:round;stroke-dasharray:none;stroke-opacity:1;paint-order:stroke fill markers" transform="scale(-1)" d="M38.361-459.216h3.616v2.434h-3.616zM60.112-459.216h3.616v2.434h-3.616zM38.361-492.848h3.616v2.434h-3.616zM60.112-492.848h3.616v2.434h-3.616z"/>
        <path style="fill:#2a3d50;fill-opacity:1;stroke:#1a2633;stroke-width:2.09398;stroke-linecap:round;stroke-linejoin:round;stroke-dasharray:none;stroke-opacity:1;paint-order:stroke fill markers" transform="scale(-1)" d="M35.774-487.114h31.479v4.287H35.774zM35.774-466.651h31.479v4.287H35.774z"/>
        <path style="fill:#3e3e3e;fill-opacity:1;stroke:#2e2e2e;stroke-width:1.57048;stroke-linecap:round;stroke-linejoin:round;stroke-dasharray:none;stroke-opacity:1;paint-order:stroke fill markers" transform="scale(-1)" d="M49.395-459.012h3.298v.738h-3.298zM44.564-491.449h2.991v1.36h-2.991zM55.163-491.525h2.991v1.36h-2.991z"/>
        <g style="fill:#3c4c23;fill-opacity:1;stroke:none">
            <path style="color:#000;fill:#23384c;fill-opacity:1;stroke:none;stroke-linecap:round;-inkscape-stroke:none" d="M68.558 220.67s-2.231-.119-3.255.249c-1.328.476-2.734 1.705-3.463 2.434-.73.73-7.822 7.877-7.822 7.877l1.325 3.249 7.654-7.566s1.762-2.274 2.71-3.346c.95-1.072 2.85-2.896 2.85-2.896z" transform="matrix(-.14336 -.60024 -.45991 -.11022 63.605 533.864)"/>
        </g>
        <path style="fill:#23384c;fill-opacity:1;stroke-width:1.1;stroke-linecap:square;paint-order:fill markers stroke" d="m-51.208 472.804 1.155-.082.637.391.397 1.12-1.377 2.226-2.237-1.378z"/>
        <g style="fill:#ababab;fill-opacity:1;stroke:none">
            <path style="color:#000;fill:#ababab;fill-opacity:1;stroke:none;stroke-linecap:round;-inkscape-stroke:none" d="M68.61 221.328s-2.232-.12-3.256.248c-1.328.476-2.734 1.705-3.463 2.434-.73.73-7.822 7.877-7.822 7.877l1.326 3.249 7.653-7.566s1.762-2.274 2.711-3.346c.948-1.073 2.85-2.896 2.85-2.896z" transform="matrix(-.14336 -.60024 -.45991 -.11022 63.605 533.864)"/>
        </g>
        <path style="fill:#23384c;fill-opacity:1;stroke-width:1.27883;stroke-linecap:square;paint-order:fill markers stroke" d="m-53.204 474.15-.628 1.37 3.509 2.37.846-1.123z"/>
        <path style="fill:#ababab;stroke-width:1.1;stroke-linecap:square;paint-order:fill markers stroke" d="m-53.348 474.519-.353.617 2.982 2.152.5-.568zM-53.012 476.166l-1.927 2.898 1.047.697 1.942-2.837z"/>
        <circle style="fill:#23384c;fill-opacity:1;stroke:none;stroke-width:1.9525;stroke-linecap:square;stroke-linejoin:miter;stroke-dasharray:none;stroke-opacity:1;paint-order:fill markers stroke" cx="324.99" cy="357.331" r="1.174" transform="scale(-1 1) rotate(35.828)"/>
        <circle style="fill:#ababab;fill-opacity:1;stroke:none;stroke-width:1.56669;stroke-linecap:square;stroke-linejoin:miter;stroke-dasharray:none;stroke-opacity:1;paint-order:fill markers stroke" cx="325.316" cy="357.093" transform="scale(-1 1) rotate(35.828)" r=".942"/>
    </g>
    <path style="fill:#c9d1d9;stroke:#a2a5c0;stroke-width:1.3;stroke-linecap:round;stroke-linejoin:round" d="M124.449 136.575c-.905-2.207-16.976-2.709-18.813.964-.773 1.546.965 4.471.965 6.203 0 3.637-4.168 10.182.551 12.542 2.817 1.408 6.34-2.054 6.064-5.79-.563-7.645 13.368-8.715 11.233-13.92zM130.813 142.753c-1.142 3.123 1.27 7.003-.345 9.923-1.266 2.291-25.181 9.69.827 8.063 6.886-.43 1.958-24.664-.482-17.986z" transform="translate(-102.742 -129.546)"/>
</svg>
