<?xml version="1.0" encoding="UTF-8" standalone="no"?>
<!-- Generator: Adobe Illustrator 27.0.0, SVG Export Plug-In . SVG Version: 6.00 Build 0)  -->

<svg
   version="1.1"
   id="svg48"
   x="0px"
   y="0px"
   viewBox="0 0 312.76683 388.00122"
   xml:space="preserve"
   sodipodi:docname="oak_tree_2_winter.svg"
   inkscape:version="1.1.2 (0a00cf5339, 2022-02-04)"
   width="312.76685"
   height="388.00122"
   xmlns:inkscape="http://www.inkscape.org/namespaces/inkscape"
   xmlns:sodipodi="http://sodipodi.sourceforge.net/DTD/sodipodi-0.dtd"
   xmlns="http://www.w3.org/2000/svg"
   xmlns:svg="http://www.w3.org/2000/svg"><defs
   id="defs1" />
<style
   type="text/css"
   id="style1">
	.st0{opacity:0.9;fill:#403228;enable-background:new    ;}
	.st1{fill:#4D3F36;stroke:#29180D;stroke-width:8.9304;stroke-linejoin:round;stroke-miterlimit:16;}
	.st2{opacity:0.95;fill:#E57C0A;fill-opacity:0.851;enable-background:new    ;}
	.st3{opacity:0.8;fill:#D17109;fill-opacity:0.8039;enable-background:new    ;}
	.st4{opacity:0.8;fill-rule:evenodd;clip-rule:evenodd;fill:#D17109;fill-opacity:0.8039;enable-background:new    ;}
	.st5{fill:#E5711A;fill-opacity:0.8955;}
	.st6{fill:#EFAC3F;fill-opacity:0.8995;}
	.st7{fill:#EFAC3F;fill-opacity:0.9007;}
</style>
<sodipodi:namedview
   bordercolor="#ffffff"
   borderopacity="1"
   height="604.001px"
   id="namedview50"
   inkscape:current-layer="svg48"
   inkscape:cx="-80.440876"
   inkscape:cy="147.01264"
   inkscape:deskcolor="#505050"
   inkscape:pagecheckerboard="1"
   inkscape:pageopacity="0"
   inkscape:pageshadow="0"
   inkscape:showpageshadow="2"
   inkscape:window-height="1372"
   inkscape:window-maximized="1"
   inkscape:window-width="2560"
   inkscape:window-x="0"
   inkscape:window-y="0"
   inkscape:zoom="1.4420529"
   pagecolor="#505050"
   showgrid="false"
   width="520.942px">
	</sodipodi:namedview>
<path
   id="path2"
   class="st0"
   d="m 239.15585,165.24446 c 0,0 -34.6,-4.6 -47.4,-4.6 l -32.8,-14.6 -17.3,-101.999998 -75.600002,-40.0999999 48.300002,47.3999999 2.7,37.3 11.8,90.099998 -31.900002,16.4 -46.3,-11.7 -48.3,30 41,-7.3 35.5,15.5 60.100002,-5.5 43.7,5.5 25.5,24.6 28.2,51 -15.5,32.8 34.6,-31 -7.3,-50.1 -48.3,-56.5 32.8,-9.1 39.2,12.7 c -9.6,-8.6 -32.7,-30.8 -32.7,-30.8 z"
   style="opacity:1;fill:#5b3e24;fill-opacity:1;stroke:#312114;stroke-width:8.93;stroke-dasharray:none;stroke-opacity:1" /><path
   style="fill:#c9d1d9;fill-opacity:1;fill-rule:evenodd;stroke:#a2a5c0;stroke-width:4;stroke-linecap:round;stroke-linejoin:round;stroke-dasharray:none;stroke-opacity:1"
   d="m 80.484938,192.18799 c 0,0 -8.6612,3.16126 -9.3166,6.98745 -0.67161,3.92083 7.88903,6.15956 6.61969,9.92954 -1.435,4.26198 -12.74904,4.41312 -12.74904,4.41312 l -23.53667,-6.74227 -35.05983,6.86486 42.66022,-30.64671 z"
   id="path19"
   sodipodi:nodetypes="cssccccc" /><path
   style="fill:#c9d1d9;fill-opacity:1;fill-rule:evenodd;stroke:#a2a5c0;stroke-width:4;stroke-linecap:round;stroke-linejoin:round;stroke-dasharray:none;stroke-opacity:1"
   d="m 113.54909,50.990282 c 0,0 4.54632,17.02015 10.5752,15.42939 2.63565,-0.69543 -1.27168,-6.25906 0.69346,-8.14811 1.83497,-1.76392 5.15328,0.24847 7.62801,-0.34672 4.07338,-0.97968 11.44202,-5.20092 11.44202,-5.20092 l -4.3341,-10.22848 -58.076922,-28.08496 z"
   id="path15"
   sodipodi:nodetypes="cssscccc" /><path
   style="fill:#c9d1d9;fill-opacity:1;fill-rule:evenodd;stroke:#a2a5c0;stroke-width:4;stroke-linecap:round;stroke-linejoin:round;stroke-dasharray:none;stroke-opacity:1"
   d="m 220.11134,267.08855 c 0,0 6.80118,-3.17568 10.41988,-3.06467 2.51939,0.0773 4.61703,2.94615 7.11003,2.57432 2.42491,-0.36167 3.43412,-4.32221 5.88417,-4.41313 2.42405,-0.09 6.12934,3.92278 6.12934,3.92278 l 6.12934,30.64671 -28.68531,27.70462 8.70366,-29.66601 z"
   id="path7"
   sodipodi:nodetypes="csssccccc" /><path
   id="path3"
   class="st0"
   d="m 239.15585,165.24446 c 0,0 -34.6,-4.6 -47.4,-4.6 l -32.8,-14.6 -17.3,-101.999998 -75.600002,-40.0999999 48.300002,47.3999999 2.7,37.3 11.8,90.099998 -31.900002,16.4 -46.3,-11.7 -48.3,30 41,-7.3 35.5,15.5 60.100002,-5.5 43.7,5.5 25.5,24.6 28.2,51 -15.5,32.8 34.6,-31 -7.3,-50.1 -48.3,-56.5 32.8,-9.1 39.2,12.7 c -9.6,-8.6 -32.7,-30.8 -32.7,-30.8 z"
   style="opacity:1;fill:none;stroke:#312114;stroke-width:8.93;stroke-dasharray:none;stroke-opacity:1" />
<path
   id="path4"
   class="st1"
   d="m 139.40258,218.73792 -29.7,20 -33.000002,53.7 -65.8,8.7 55.4,-34.9 18.7,-54.9 43.600002,-30.6 -39.900002,-67.4 -52.7,-19.399998 -23.7,-58.1 44.9,39 59.600002,13 42.5,61.699998 c 14.9,-29.7 27.4,-47.3 27.4,-47.3 l 49.1,-22.799998 34.6,-42.8 -23.7,69.199998 -42.8,30 -17.2,43.9 34.9,31.2 57.6,16.4 29.1,59.2 -50.5,-36.4 -48.8,-7.3 -26.9,-18.9 2.3,44.4 -15.1,56 12.8,59.2 -41,-60 7.3,-43.7 z"
   style="fill:#6d4a2c;fill-opacity:1;stroke:#312114;stroke-width:8.93;stroke-dasharray:none;stroke-opacity:1" /><path
   style="fill:#c9d1d9;fill-opacity:1;fill-rule:evenodd;stroke:#a2a5c0;stroke-width:4;stroke-linecap:round;stroke-linejoin:round;stroke-dasharray:none;stroke-opacity:1"
   d="m 242.8786,247.58501 c 0,0 -8.41223,-6.19904 -7.28128,-10.22848 0.71357,-2.54236 6.46385,-0.60966 7.28128,-3.12055 0.77006,-2.36537 -3.74938,-3.92773 -3.814,-6.41446 -0.0967,-3.72103 4.16073,-9.70839 5.20091,-9.88175 1.04019,-0.17336 34.6728,7.97474 34.6728,7.97474 l 26.00459,55.30311 -46.80827,-30.16533 z"
   id="path9"
   sodipodi:nodetypes="csssscccc" /><path
   style="fill:#c9d1d9;fill-opacity:1;fill-rule:evenodd;stroke:#a2a5c0;stroke-width:4;stroke-linecap:round;stroke-linejoin:round;stroke-dasharray:none;stroke-opacity:1"
   d="m 147.35506,288.67227 c 0,0 7.45685,2.46071 9.36165,5.54764 3.04203,4.92993 1.86548,11.58026 1.21355,17.3364 -0.46905,4.14147 -0.31096,9.45511 -3.64064,11.96211 -3.00111,2.25961 -13.10746,-0.68474 -13.10746,-0.68474 z"
   id="path6"
   sodipodi:nodetypes="cssscc" /><path
   style="fill:#c9d1d9;fill-opacity:1;fill-rule:evenodd;stroke:#a2a5c0;stroke-width:4;stroke-linecap:round;stroke-linejoin:round;stroke-dasharray:none;stroke-opacity:1"
   d="m 195.22621,191.32988 c 0,0 -1.36974,9.33596 -0.85811,13.9749 0.45226,4.10061 0.75895,8.74895 3.43243,11.89093 2.16769,2.54754 5.86024,3.35399 9.07143,4.29054 3.44,1.00328 7.50028,3.02905 10.66505,1.34845 3.19569,-1.69702 4.90348,-9.68436 4.90348,-9.68436 z"
   id="path10"
   sodipodi:nodetypes="csssscc" /><path
   style="fill:#c9d1d9;fill-opacity:1;fill-rule:evenodd;stroke:#a2a5c0;stroke-width:4;stroke-linecap:round;stroke-linejoin:round;stroke-dasharray:none;stroke-opacity:1"
   d="m 231.75709,82.227602 c 0,0 -1.52525,6.64027 0.36776,8.94884 1.8664,2.27612 7.31378,-0.57274 8.58107,2.08398 1.84933,3.87691 -6.68484,7.512318 -5.5164,11.645748 0.87558,3.09742 8.09073,5.27123 8.09073,5.27123 l 5.39382,-6.00675 14.833,-52.467168 z"
   id="path13"
   sodipodi:nodetypes="cssscccc" /><path
   style="fill:#c9d1d9;fill-opacity:1;fill-rule:evenodd;stroke:#a2a5c0;stroke-width:4;stroke-linecap:round;stroke-linejoin:round;stroke-dasharray:none;stroke-opacity:1"
   d="m 187.25807,171.5934 c 0,0 -5.80644,-0.902 -7.60039,-2.94208 -1.69503,-1.92759 -1.59719,-4.92234 -1.8388,-7.4778 -0.21954,-2.32202 0.0345,-4.67901 0.36776,-6.98745 0.65424,-4.53197 -0.0592,-10.13284 3.18726,-13.36196 2.17149,-2.15989 6.60825,-0.10859 8.94884,-2.08398 3.38697,-2.85851 3.43469,-11.99818 5.14864,-12.25868 5.98297,-0.90934 10.05254,3.92153 15.01689,6.06805 l -6.80357,3.7389 z"
   id="path14"
   sodipodi:nodetypes="cssssssccc" /><path
   style="fill:#c9d1d9;fill-opacity:1;fill-rule:evenodd;stroke:#a2a5c0;stroke-width:4;stroke-linecap:round;stroke-linejoin:round;stroke-dasharray:none;stroke-opacity:1"
   d="m 135.99972,115.30831 c -4.8432,-3.87003 -12.14897,-7.62125 -17.85649,-5.20092 -3.30795,1.40277 -4.97406,5.94233 -5.02755,9.53502 -0.0704,4.72901 4.49326,8.34754 6.2411,12.74225 1.50969,3.7959 2.99962,7.66757 3.64064,11.70206 0.33554,2.11186 -1.27381,4.76475 0.0867,6.41447 2.34713,2.84606 7.18169,1.74319 10.83524,2.25373 3.15607,0.44102 6.8189,2.36018 9.53502,0.69346 4.32678,-2.65509 6.16954,-8.97347 5.89438,-14.04248 -0.49772,-9.16916 -6.17532,-18.36532 -13.34904,-24.09759 z"
   id="path17"
   sodipodi:nodetypes="ssssssssss" /><path
   style="fill:#c9d1d9;fill-opacity:1;fill-rule:evenodd;stroke:#a2a5c0;stroke-width:4;stroke-linecap:round;stroke-linejoin:round;stroke-dasharray:none;stroke-opacity:1"
   d="m 115.05442,87.866602 c 0,0 -10.14249,2.54868 -12.01351,6.74227 -2.59322,5.812288 8.33041,13.818488 4.16795,18.633198 -4.63632,5.36283 -21.207522,-1.59363 -21.207522,-1.59363 l -50.01542,-16.916978 -23.2915,-55.40925 44.00867,33.46621 z"
   id="path18"
   sodipodi:nodetypes="cssccccc" /><path
   style="fill:#c9d1d9;fill-opacity:1;fill-rule:evenodd;stroke:#a2a5c0;stroke-width:4;stroke-linecap:round;stroke-linejoin:round;stroke-dasharray:none;stroke-opacity:1"
   d="m 77.052498,228.22852 c 0,0 11.33113,-3.22742 15.07818,0.12259 2.5467,2.27684 -1.37485,7.95977 1.22587,10.1747 1.5567,1.32578 4.34942,-1.25158 6.12934,-0.24517 2.515182,1.42214 4.167962,7.60038 4.167962,7.60038 l -26.233592,46.21524 -58.84167,6.74228 48.29921,-33.34362 z"
   id="path21"
   sodipodi:nodetypes="csssccccc" /><path
   style="fill:#c9d1d9;fill-opacity:1;fill-rule:evenodd;stroke:#a2a5c0;stroke-width:4;stroke-linecap:round;stroke-linejoin:round;stroke-dasharray:none;stroke-opacity:1"
   d="m 166.90865,239.75168 c -3.38814,1.21555 -7.25338,3.43191 -8.3359,6.86487 -1.83657,5.82426 2.6762,11.96618 4.90347,17.6525 1.10643,2.82477 1.72242,6.29549 4.16795,8.09073 3.47666,2.55218 13.44249,2.46661 13.44249,2.46661 l 3.71967,-35.07471 c 0,0 -12.28224,-2.01463 -17.89768,0 z"
   id="path5"
   sodipodi:nodetypes="ssssccs" />





















<path
   id="path1"
   class="st1"
   d="m 139.40258,218.73792 -29.7,20 -33.000002,53.7 -65.8,8.7 55.4,-34.9 18.7,-54.9 43.600002,-30.6 -39.900002,-67.4 -52.7,-19.399998 -23.7,-58.1 44.9,39 59.600002,13 42.5,61.699998 c 14.9,-29.7 27.4,-47.3 27.4,-47.3 l 49.1,-22.799998 34.6,-42.8 -23.7,69.199998 -42.8,30 -17.2,43.9 34.9,31.2 57.6,16.4 29.1,59.2 -50.5,-36.4 -48.8,-7.3 -26.9,-18.9 2.3,44.4 -15.1,56 12.8,59.2 -41,-60 7.3,-43.7 z"
   style="fill:none;stroke:#312114;stroke-width:8.93;stroke-dasharray:none;stroke-opacity:1" /><path
   style="fill:#c9d1d9;fill-opacity:1;fill-rule:evenodd;stroke:#a2a5c0;stroke-width:4;stroke-linecap:round;stroke-linejoin:round;stroke-dasharray:none;stroke-opacity:1"
   d="m 168.25711,279.71499 c -1.35958,-1.17436 -3.8398,-2.82428 -5.14865,-1.59363 -1.13359,1.06587 0.41714,3.13917 1.10328,4.53571 0.80764,1.64384 1.64653,3.8843 3.43243,4.29054 1.19401,0.2716 2.90382,-0.4384 3.30985,-1.59363 0.69088,-1.9657 -1.12011,-4.27701 -2.69691,-5.63899 z"
   id="path8"
   sodipodi:nodetypes="ssssss" /><path
   style="fill:#c9d1d9;fill-opacity:1;fill-rule:evenodd;stroke:#a2a5c0;stroke-width:4;stroke-linecap:round;stroke-linejoin:round;stroke-dasharray:none;stroke-opacity:1"
   d="m 205.375,170.33036 c 5.76052,1.08868 15.81378,-0.99759 16.93186,4.7573 0.56249,2.89519 -4.2612,4.32025 -7.00233,5.4087 -3.5109,1.39411 -8.22389,3.33516 -11.27798,1.11199 -1.55517,-1.13206 -0.53827,-3.84252 -1.22587,-5.639 -0.85695,-2.23893 -4.86222,-4.24234 -3.55502,-6.25192 1.11961,-1.7212 4.11175,0.23163 6.12934,0.61293 z"
   id="path11"
   sodipodi:nodetypes="sssssss" /><path
   style="fill:#c9d1d9;fill-opacity:1;fill-rule:evenodd;stroke:#a2a5c0;stroke-width:4;stroke-linecap:round;stroke-linejoin:round;stroke-dasharray:none;stroke-opacity:1"
   d="m 226.11809,102.57702 c -1.2486,-4.739368 -11.26361,-5.440218 -14.58783,-1.8388 -2.03835,2.20832 3.51262,6.33028 1.8388,8.82625 -1.99085,2.96871 -10.0548,-1.57964 -10.54247,1.96139 -0.41637,3.0233 6.54189,4.34882 6.31322,5.02605 -0.47001,1.39204 8.66803,-0.26951 11.58446,-1.96138 1.8383,-1.06643 4.50177,-2.98122 3.92278,-5.02606 -0.51075,-1.80386 -5.00557,-0.10554 -5.27123,-1.96139 -0.39722,-2.77488 7.4564,-2.31539 6.74227,-5.02606 z"
   id="path12"
   sodipodi:nodetypes="sssssssss" /><path
   style="fill:#c9d1d9;fill-opacity:1;fill-rule:evenodd;stroke:#a2a5c0;stroke-width:4;stroke-linecap:round;stroke-linejoin:round;stroke-dasharray:none;stroke-opacity:1"
   d="m 133.81021,73.278772 c -4.24902,1.00038 -7.77056,5.94386 -8.09073,10.29729 -0.33828,4.59977 2.71642,9.99788 6.86486,12.01351 2.00636,0.97484 5.28245,0.80468 6.61969,-0.9807 1.78066,-2.37741 -1.09162,-5.85896 -1.22587,-8.82625 -0.15531,-3.43281 2.25832,-7.35067 0.49035,-10.29729 -0.88399,-1.47331 -2.98587,-2.60031 -4.6583,-2.20656 z"
   id="path16"
   sodipodi:nodetypes="sssssss" /><path
   style="fill:#c9d1d9;fill-opacity:1;fill-rule:evenodd;stroke:#a2a5c0;stroke-width:4;stroke-linecap:round;stroke-linejoin:round;stroke-dasharray:none;stroke-opacity:1"
   d="m 125.22913,202.48529 c -6.94811,1.00702 -16.29791,-1.13926 -20.59459,4.41312 -2.35285,3.04047 -1.93952,8.54387 0.49035,11.52316 2.98156,3.65573 9.43133,5.37613 13.72972,3.43244 2.59776,-1.17468 1.84897,-5.64398 3.92278,-7.60039 5.85476,-5.52332 19.84716,-2.50843 22.06563,-9.80695 1.38067,-4.54221 -6.5978,-2.37586 -10.05212,-2.6969 -3.18296,-0.29582 -6.39815,0.277 -9.56177,0.73552 z"
   id="path20"
   sodipodi:nodetypes="ssssssss" /></svg>
