<?xml version="1.0" encoding="UTF-8" standalone="no"?>
<svg
   width="426.81561"
   height="456.46881"
   viewBox="0 0 426.81562 456.46881"
   fill="none"
   version="1.1"
   id="svg60"
   sodipodi:docname="oak_tree_3.svg"
   inkscape:version="1.3 (0e150ed, 2023-07-21)"
   xmlns:inkscape="http://www.inkscape.org/namespaces/inkscape"
   xmlns:sodipodi="http://sodipodi.sourceforge.net/DTD/sodipodi-0.dtd"
   xmlns="http://www.w3.org/2000/svg"
   xmlns:svg="http://www.w3.org/2000/svg">
  <defs
     id="defs64" />
  <sodipodi:namedview
     id="namedview62"
     pagecolor="#505050"
     bordercolor="#ffffff"
     borderopacity="1"
     inkscape:pageshadow="0"
     inkscape:pageopacity="0"
     inkscape:pagecheckerboard="true"
     showgrid="false"
     width="368.403px"
     inkscape:zoom="0.87"
     inkscape:cx="163.7931"
     inkscape:cy="222.98851"
     inkscape:window-width="1440"
     inkscape:window-height="847"
     inkscape:window-x="0"
     inkscape:window-y="25"
     inkscape:window-maximized="0"
     inkscape:current-layer="svg60"
     inkscape:showpageshadow="2"
     inkscape:deskcolor="#505050" />
  <path
     d="M 232.58593,91.101539 175.27809,172.4056 80.006615,165.16416 4.4988633,129.33067 l 55.3656817,68.62125 109.771845,35.58565 59.13449,118.26104 9.88951,100.17223 29.35899,-109.30697 -53.56989,-102.52838 104.86299,32.16567 103.00649,-22.67338 -124.60913,-2.21858 -83.1103,-53.38583 40.25839,-71.46444 71.41531,-54.308041 z"
     fill="#5b3e24"
     id="path2-98-6-7-08"
     style="stroke:#372516;stroke-width:9;stroke-linecap:round;stroke-linejoin:round;stroke-dasharray:none;stroke-opacity:1"
     sodipodi:nodetypes="ccccccccccccccccc" />
  <path
     style="fill:#c9d1d9;fill-opacity:1;stroke:#a2a5c0;stroke-width:4;stroke-linecap:round;stroke-linejoin:round;stroke-dasharray:none;stroke-opacity:1"
     d="m 192.01942,147.06097 c 11.27645,2.26697 15.5848,-6.30178 23.2997,-10.93072 14.84709,-8.90825 17.98873,25.95518 8.91717,30.49096 -11.55515,5.77758 -38.16546,-5.68018 -32.21687,-19.56024 z"
     id="path15" />
  <path
     style="fill:#c9d1d9;fill-opacity:1;stroke:#a2a5c0;stroke-width:4;stroke-linecap:round;stroke-linejoin:round;stroke-dasharray:none;stroke-opacity:1"
     d="m 225.96219,97.297429 c -1.46884,6.413491 15.1082,33.292281 25.31325,28.189751 3.51531,-1.75766 5.07225,-7.92318 8.91717,-9.20482 19.56048,-6.52016 18.44767,-19.411721 2.01355,-29.340351 -12.01545,-7.25911 -27.73423,2.55604 -36.24397,10.35542 z"
     id="path14"
     sodipodi:nodetypes="csssc" />
  <path
     style="fill:#c9d1d9;fill-opacity:1;stroke:#a2a5c0;stroke-width:4;stroke-linecap:round;stroke-linejoin:round;stroke-dasharray:none;stroke-opacity:1"
     d="m 83.862805,204.01579 c 1.92642,-6.25277 0.99682,-10.93073 8.62952,-10.93073 0.67545,0 28.828655,0.35125 19.847895,-8.62951 -2.5341,-2.5341 -6.92232,-3.18286 -9.49247,-5.75301 -3.055405,-3.0554 1.80105,-7.69142 0,-9.49247 -5.890885,-5.89088 -21.942435,-4.82998 -32.504525,-9.78012 -6.11525,-2.86604 -23.05874,-12.5056 -35.66867,-16.10843 -2.16221,-0.61778 -18.231554,-8.51995 -20.135536,-6.61597 -4.485808,4.48581 8.220476,15.578 10.06777,19.27259 3.263826,6.52765 31.557916,42.71142 37.682226,45.16114 6.90365,2.76146 14.89168,0.37071 21.57379,2.87651 z"
     id="path13"
     sodipodi:nodetypes="csssssssssc" />
  <path
     style="fill:#c9d1d9;fill-opacity:1;stroke:#a2a5c0;stroke-width:4;stroke-linecap:round;stroke-linejoin:round;stroke-dasharray:none;stroke-opacity:1"
     d="m 234.0164,392.42691 c 0.88117,-2.71273 2.51583,-6.95727 5.75302,-7.76657 4.54425,-1.13606 14.51783,2.70089 17.25903,-1.7259 6.12907,-9.89789 16.73062,-54.62915 -1.1506,-60.69427 -10.51655,-3.5671 -26.7689,14.41731 -30.49096,21.86144 -2.48758,4.97516 5.51965,12.6947 6.32831,17.54668 1.63931,9.83586 2.3012,20.83658 2.3012,30.77862 z"
     id="path11"
     sodipodi:nodetypes="csssssc" />
  <path
     style="fill:#c9d1d9;fill-opacity:1;stroke:#a2a5c0;stroke-width:4;stroke-linecap:round;stroke-linejoin:round;stroke-dasharray:none;stroke-opacity:1"
     d="m 245.52243,297.78987 c -12.75845,-1.20649 -40.76471,8.84732 -46.88704,-7.47892 -0.68426,-1.82469 -2.87117,-7.20194 -1.72591,-9.49246 0.19863,-0.39727 35.0074,-6.8532 37.10692,-6.32832 6.86028,1.71507 5.97695,19.35036 11.50603,23.2997 z"
     id="path12"
     sodipodi:nodetypes="csssc" />
  <path
     style="fill:#c9d1d9;fill-opacity:1;stroke:#a2a5c0;stroke-width:4;stroke-linecap:round;stroke-linejoin:round;stroke-dasharray:none;stroke-opacity:1"
     d="m 286.36881,239.68446 c 3.55388,4.44769 -4.5089,12.556 -2.58886,16.39608 2.9864,5.9728 10.35889,4.77159 15.82078,7.76656 31.58075,17.31697 38.53695,3.34778 73.3509,-5.46536 1.36269,-0.34497 19.29702,-3.40292 17.54668,-6.90361 -4.0177,-8.03541 -86.01332,3.73448 -104.1295,-11.79367 z"
     id="path10"
     sodipodi:nodetypes="cssssc" />
  <path
     d="m 232.58593,91.101539 -57.30784,81.304071 -95.271475,-7.24144 -75.5077497,-35.83349 55.3656797,68.62125 109.771845,35.58565 59.13449,118.26104 9.88951,100.17223 29.35899,-109.30697 -53.56989,-102.52838 104.86299,32.16567 103.00649,-22.67338 -124.60913,-2.21858 -83.1103,-53.38583 40.25839,-71.46444 71.41531,-54.308051 z"
     fill="#5b3e24"
     id="path2-98-6-7-08-7"
     style="fill:none;stroke:#372516;stroke-width:9;stroke-linecap:round;stroke-linejoin:round;stroke-dasharray:none;stroke-opacity:1"
     sodipodi:nodetypes="ccccccccccccccccc" />
  <path
     style="fill:#6d4a2c;fill-opacity:1;stroke:#372516;stroke-width:8.99905;stroke-linecap:square;stroke-linejoin:round;stroke-dasharray:none;stroke-opacity:1"
     d="m 157.64281,4.4978187 -7.06885,48.3031203 10.60309,71.866211 35.09367,36.4097 82.91414,-12.97814 51.83773,12.95924 71.86583,-29.4531 -69.54709,60.08466 -51.72094,-0.45808 -58.34457,16.57436 80.45518,86.51226 53.31326,104.5833 -69.80712,-75.12982 -95.62507,-72.27175 -24.80617,60.90935 -0.91616,56.13128 -80.113135,55.37235 41.234645,-58.90659 1.17808,-55.37234 25.91887,-74.22237 -60.320135,33.83887 -77.521134,81.61814 30.277794,-93.84453 82.849145,-56.5115 -3.71792,-59.4429 -3.33808,-77.730901 z"
     id="path21"
     sodipodi:nodetypes="ccccccccccccccccccccccccccc" />
  <path
     style="fill:#c9d1d9;fill-opacity:1;stroke:#a2a5c0;stroke-width:4;stroke-linecap:round;stroke-linejoin:round;stroke-dasharray:none;stroke-opacity:1"
     d="m 127.64235,168.78488 c 14.74301,1.50342 15.96707,-17.80241 26.35147,-22.99461 4.8025,-2.40125 36.07987,20.10308 24.73007,-2.91827 -4.15797,-7.77072 -16.38626,-13.51905 -19.20898,-21.98723 -2.21414,-6.64242 0.1202,-14.11641 -0.86295,-20.998491 -2.93939,-20.57573 -7.76657,-38.28588 -7.76657,-59.54367 0,-2.45716 1.96971,-22.31484 0.5753,-23.01204 -3.84324,-1.92162 -4.89006,9.83115 -4.89006,11.50602 0,2.36107 -13.82715,12.59395 -16.10843,16.39608 -17.24322,28.73871 -6.56173,40.92189 -4.02711,71.337341 1.40549,16.86583 -3.48634,36.14507 1.20726,52.21487 z"
     id="path1" />
  <path
     style="fill:#c9d1d9;fill-opacity:1;stroke:#a2a5c0;stroke-width:4;stroke-linecap:round;stroke-linejoin:round;stroke-dasharray:none;stroke-opacity:1"
     d="m 137.36582,281.68144 c 0.43134,15.47292 37.86928,0.79059 34.80571,16.10843 -1.97615,9.88078 -5.58261,19.00681 -6.61596,29.34036 -1.46997,14.69974 3.20867,27.76857 -1.43825,41.70933 -1.69855,5.09565 -42.72874,27.94753 -50.33885,33.65511 -1.04713,0.78535 -16.522345,12.97941 -16.971395,12.08132 -4.35726,-8.71451 26.009905,-42.23966 29.915665,-50.05119 5.38918,-10.77835 -6.29998,-51.58148 10.64308,-82.84336 z"
     id="path2"
     sodipodi:nodetypes="cssssssc" />
  <path
     style="fill:#c9d1d9;fill-opacity:1;stroke:#a2a5c0;stroke-width:4;stroke-linecap:round;stroke-linejoin:round;stroke-dasharray:none;stroke-opacity:1"
     d="m 180.80105,178.70254 c -1.29112,10.98114 -10.29314,50.89338 15.53313,42.28463 5.49317,-1.83106 -0.21749,-20.92444 4.31476,-26.46385 2.42469,-2.96352 28.86067,-15.14986 21.28614,-22.7244 -6.34401,-6.34401 -33.82175,-4.79604 -41.13403,6.90362 z"
     id="path3" />
  <path
     style="fill:#c9d1d9;fill-opacity:1;stroke:#a2a5c0;stroke-width:4;stroke-linecap:round;stroke-linejoin:round;stroke-dasharray:none;stroke-opacity:1"
     d="m 251.85074,154.53989 c 19.92473,8.37547 -3.59659,13.51574 -1.7259,20.99849 0.84599,3.38399 8.76753,-1.40339 8.34186,1.1506 -0.45661,2.73968 -3.5035,6.66898 -1.1506,9.49247 8.21592,9.8591 15.07795,-0.98308 20.42319,-6.32831 4.56252,-4.56252 10.55764,0.42717 12.36897,-8.62952 0.97559,-4.87794 -9.5645,-4.55109 -12.36897,-5.75301 -11.58816,-4.96636 -8.59629,-10.93072 -25.88855,-10.93072 z"
     id="path4" />
  <path
     style="fill:#c9d1d9;fill-opacity:1;stroke:#a2a5c0;stroke-width:4;stroke-linecap:round;stroke-linejoin:round;stroke-dasharray:none;stroke-opacity:1"
     d="m 309.95615,158.85465 c 4.99985,8.67631 -2.62693,15.30464 -1.1506,24.16264 2.93076,17.58459 42.88869,0.31641 25.6009,-16.97138 -3.06596,-3.06596 -6.47727,-6.6532 -10.93072,-7.76656 -4.89345,-1.22337 -10.52509,-2.41919 -13.51958,0.5753 z"
     id="path5" />
  <path
     style="fill:#c9d1d9;fill-opacity:1;stroke:#a2a5c0;stroke-width:4;stroke-linecap:round;stroke-linejoin:round;stroke-dasharray:none;stroke-opacity:1"
     d="m 298.16248,335.47209 c 2.6145,-6.53481 16.29024,-0.36361 19.27259,-6.32831 3.391,-6.78201 -9.50956,-30.3895 -16.68373,-33.07981 -5.50263,-2.06349 -12.11798,5.54115 -15.82079,2.3012 -1.04008,-0.91007 -15.61973,-26.95255 -21.57379,-20.99849 -1.768,1.768 2.34331,5.71091 0.5753,7.47891 -1.97037,1.97038 -4.18266,0.69806 -8.34186,2.01356 -14.35577,4.54053 42.02933,45.07608 42.57228,48.61294 z"
     id="path6"
     sodipodi:nodetypes="cssssssc" />
  <path
     style="fill:#c9d1d9;fill-opacity:1;stroke:#a2a5c0;stroke-width:4;stroke-linecap:round;stroke-linejoin:round;stroke-dasharray:none;stroke-opacity:1"
     d="m 229.9893,220.12422 c 0.0915,7.10179 0.2747,14.49999 -3.45181,20.71084 -3.05782,5.09636 -13.89217,30.54163 -2.58886,33.36746 10.5001,2.62503 10.38857,-10.63857 13.80723,-16.10843 2.25757,-3.61211 6.52196,-3.74228 8.62952,-6.90361 8.95169,-13.42754 -9.40306,-24.07324 -16.39608,-31.06626 z"
     id="path7" />
  <path
     style="fill:#c9d1d9;fill-opacity:1;stroke:#a2a5c0;stroke-width:4;stroke-linecap:round;stroke-linejoin:round;stroke-dasharray:none;stroke-opacity:1"
     d="m 39.852265,283.98264 c 1.84808,13.5418 18.54047,9.33565 25.6009,16.39608 1.24464,1.24465 -3.15835,1.5824 -4.6024,2.58886 -4.18321,2.91556 -7.15393,5.25832 -10.35543,8.91717 -1.89509,2.16582 -25.294542,29.33132 -26.751498,29.62801 -4.771924,0.97175 13.149198,-48.65241 16.108428,-57.53012 z"
     id="path8"
     sodipodi:nodetypes="cssssc" />
  <path
     style="fill:#c9d1d9;fill-opacity:1;stroke:#a2a5c0;stroke-width:4;stroke-linecap:round;stroke-linejoin:round;stroke-dasharray:none;stroke-opacity:1"
     d="m 62.576665,248.88927 c 5.06008,-0.31666 9.61345,-0.0457 12.08132,4.89006 2.70303,5.40606 0.004,29.07734 5.17771,25.90266 9.69316,-5.94734 43.391525,-26.7186 44.298195,-33.95687 0.79866,-6.37597 -13.61884,-0.11956 -14.67018,-7.47892 -0.76421,-5.34944 1.1245,-16.12148 -5.17771,-19.27258 -5.192815,-2.59641 -34.914765,26.03304 -41.709335,29.91565 z"
     id="path9"
     sodipodi:nodetypes="csssssc" />
  <path
     style="fill:none;fill-opacity:1;stroke:#372516;stroke-width:8.99905;stroke-linecap:square;stroke-linejoin:round;stroke-dasharray:none;stroke-opacity:1"
     d="m 157.64281,4.4978187 -7.06885,48.3031103 10.60309,71.866211 35.09367,36.4097 82.91415,-12.97814 51.83773,12.95924 71.86583,-29.4531 -69.54709,60.08467 -51.72094,-0.45808 -58.34456,16.57435 80.45517,86.51226 53.31327,104.5833 -69.80712,-75.12982 -95.62507,-72.27175 -24.80617,60.90935 -0.91616,56.13129 -80.113135,55.37235 41.234645,-58.9066 1.17808,-55.37234 25.91887,-74.22237 -60.320135,33.83887 -77.521144,81.61814 30.277804,-93.84453 82.849135,-56.5115 -3.71791,-59.4429 -3.33808,-77.730901 z"
     id="path21-3"
     sodipodi:nodetypes="ccccccccccccccccccccccccccc" />
</svg>
