<?xml version="1.0" encoding="UTF-8" standalone="no"?>
<!-- Generator: Adobe Illustrator 27.0.0, SVG Export Plug-In . SVG Version: 6.00 Build 0)  -->

<svg
   version="1.1"
   id="svg52"
   x="0px"
   y="0px"
   viewBox="0 0 545.52112 545.87505"
   xml:space="preserve"
   sodipodi:docname="oak_tree_1.svg"
   width="545.52112"
   height="545.87506"
   inkscape:version="1.3 (0e150ed, 2023-07-21)"
   xmlns:inkscape="http://www.inkscape.org/namespaces/inkscape"
   xmlns:sodipodi="http://sodipodi.sourceforge.net/DTD/sodipodi-0.dtd"
   xmlns="http://www.w3.org/2000/svg"
   xmlns:svg="http://www.w3.org/2000/svg"><defs
   id="defs31" />&#10;<style
   type="text/css"
   id="style2">&#10;	.st0{opacity:0.9;fill:#63462B;enable-background:new    ;}&#10;	.st1{fill:#70553D;stroke:#4A2809;stroke-width:9;stroke-linejoin:round;stroke-miterlimit:16;}&#10;	.st2{opacity:0.95;fill:#69371C;fill-opacity:0.852;enable-background:new    ;}&#10;	.st3{opacity:0.8;fill:#73452C;fill-opacity:0.8039;enable-background:new    ;}&#10;	.st4{fill:#845B45;fill-opacity:0.8971;}&#10;	.st5{fill:#8D6753;fill-opacity:0.8978;}&#10;</style>&#10;<sodipodi:namedview
   bordercolor="#ffffff"
   borderopacity="1"
   height="609.877px"
   id="namedview54"
   inkscape:current-layer="svg52"
   inkscape:cx="306.40412"
   inkscape:cy="345.81043"
   inkscape:deskcolor="#505050"
   inkscape:pagecheckerboard="1"
   inkscape:pageopacity="0"
   inkscape:pageshadow="0"
   inkscape:showpageshadow="2"
   inkscape:window-height="847"
   inkscape:window-maximized="0"
   inkscape:window-width="1440"
   inkscape:window-x="0"
   inkscape:window-y="25"
   inkscape:zoom="0.62172793"
   pagecolor="#505050"
   showgrid="false">&#10;	</sodipodi:namedview>&#10;&#10;&#10;&#10;&#10;&#10;&#10;&#10;&#10;&#10;&#10;&#10;&#10;&#10;&#10;&#10;&#10;&#10;&#10;&#10;&#10;&#10;&#10;&#10;&#10;&#10;<path
   d="m 284.9755,191.1791 -64.47043,35.12051 -50.7326,111.31615 -7.1588,59.95767 21.23376,66.16139 11.36429,-78.67162 54.7389,-64.49877 20.24692,80.17663 -16.49007,64.76938 68.064,75.86646 -30.90255,-73.97102 41.51584,-106.98142 -30.82092,-68.34104 84.86892,21.90841 101.9006,-6.59679 52.68888,-96.54728 -65.79969,57.1132 -60.78614,20.65776 -92.10784,-39.57467 26.26658,-29.56158 21.02173,-61.21436 -56.10406,-120.685227 8.49751,103.745757 z"
   fill="#5b3e24"
   id="path2-690-0-3-6"
   style="stroke:#372516;stroke-width:9;stroke-linecap:round;stroke-linejoin:round;stroke-dasharray:none;stroke-opacity:1"
   sodipodi:nodetypes="cccccccccccccccccccccccc" /><path
   style="fill:#c9d1d9;fill-opacity:1;stroke:#a2a5c0;stroke-width:4;stroke-linecap:round;stroke-linejoin:round;stroke-dasharray:none;stroke-opacity:1"
   d="m 259.24541,471.30466 c 19.8131,-12.57721 27.70445,-56.37797 52.8169,-60.56338 -1.86601,5.63402 -2.34378,12.78615 -4.92958,17.95774 -7.33391,14.66783 -16.66219,30.53433 -12.67605,46.47888 1.95243,7.80973 23.09775,46.97267 20.42253,49.64789 -2.46248,2.46248 -11.69076,-6.05696 -12.67605,-7.04226 -95.62749,-95.62749 -21.18992,-24.71106 -42.95775,-46.47887 z"
   id="path21"
   sodipodi:nodetypes="ccssssc" /><path
   style="fill:#c9d1d9;fill-opacity:1;stroke:#a2a5c0;stroke-width:4;stroke-linecap:round;stroke-linejoin:round;stroke-dasharray:none;stroke-opacity:1"
   d="m 299.03414,170.95255 c 8.99719,-7.27762 30.3882,3.29996 36.97183,-4.92958 7.72352,-9.6544 -1.34977,-23.26878 19.01409,-33.45071 -3.86444,-21.1292 -16.85648,-38.597617 -23.59155,-58.802817 -0.78016,-2.34049 -13.06681,-29.53882 -15.49296,-27.11267 -4.05245,4.05245 3.70841,47.22802 4.92958,52.11268 1.1574,4.629597 1.16371,12.246567 0,16.901407 -1.53837,6.15349 0.27929,14.10847 -0.35211,20.42253 -1.24982,12.49815 -14.99639,26.75604 -21.47888,34.85916 z"
   id="path17"
   sodipodi:nodetypes="cscsssssc" /><path
   style="fill:#c9d1d9;fill-opacity:1;stroke:#a2a5c0;stroke-width:4;stroke-linecap:round;stroke-linejoin:round;stroke-dasharray:none;stroke-opacity:1"
   d="m 357.83696,188.55818 c -19.44399,-4.93288 -42.41994,6.56227 -37.67606,30.28169 1.31697,6.58484 8.77266,13.05833 14.43662,7.39437 10.25137,-10.25137 16.26719,-26.05564 23.23944,-37.67606 z"
   id="path18" /><path
   style="fill:#c9d1d9;fill-opacity:1;stroke:#a2a5c0;stroke-width:4;stroke-linecap:round;stroke-linejoin:round;stroke-dasharray:none;stroke-opacity:1"
   d="m 223.68203,351.93846 c -7.22306,-9.15899 -22.60533,-28.38088 -15.84507,-41.90141 4.84869,-9.69737 47.89582,-22.25104 43.66197,11.61972 -0.47286,3.7829 -15.15889,11.98627 -18.66197,14.78873 -4.73659,3.78928 -6.43904,10.96648 -9.15493,15.49296 z"
   id="path23" /><path
   style="fill:#c9d1d9;fill-opacity:1;stroke:#a2a5c0;stroke-width:4;stroke-linecap:round;stroke-linejoin:round;stroke-dasharray:none;stroke-opacity:1"
   d="m 394.45668,280.45959 c -1.6558,5.56051 -3.52113,10.83348 -3.52113,16.90141 0,3.25209 -0.71834,12.30983 1.76056,14.78873 0.0503,0.0503 38.81233,0.89647 40.84508,-3.16902 1.73603,-3.47206 0.80484,-8.07346 3.16901,-11.61971 2.21751,-3.32627 12.72301,-13.32448 7.39437,-15.84507 -4.93426,-2.33403 -26.84693,16.77557 -49.64789,-1.05634 z"
   id="path19"
   sodipodi:nodetypes="csssssc" /><path
   style="fill:#c9d1d9;fill-opacity:1;stroke:#a2a5c0;stroke-width:4;stroke-linecap:round;stroke-linejoin:round;stroke-dasharray:none;stroke-opacity:1"
   d="m 468.75245,269.5441 c -5.66087,11.61107 5.87241,13.39187 7.74648,19.01408 1.63473,4.9042 -3.23689,11.48396 -1.05634,15.84507 2.53245,5.06489 12.56244,2.28311 14.78874,-1.05634 10.52061,-15.78092 14.60706,-37.49438 28.87324,-51.76056 1.29507,-1.29507 16.42971,-29.63726 14.43662,-30.63381 -1.51909,-0.75954 -41.9855,32.5678 -46.47888,35.56339 -6.08562,4.05708 -11.83976,11.44503 -18.30986,13.02817 z"
   id="path20"
   sodipodi:nodetypes="cssssssc" /><path
   style="fill:#c9d1d9;fill-opacity:1;stroke:#a2a5c0;stroke-width:4;stroke-linecap:round;stroke-linejoin:round;stroke-dasharray:none;stroke-opacity:1"
   d="m 171.56935,330.10748 c 25.44502,-1.63268 10.15147,6.49303 16.90141,15.49295 1.98841,2.65122 7.40168,4.33118 10.21127,6.33803 3.32595,2.37568 12.67606,10.97826 12.67606,14.78873 0,2.10315 -6.35808,5.19106 -7.74648,7.04226 -1.82752,2.43669 -1.71392,6.29138 -3.87324,8.4507 -1.69174,1.69174 -5.29237,3.56383 -5.98592,6.33803 -2.12353,8.49413 -1.21918,19.44975 -2.46479,28.16901 -0.44364,3.10551 -5.19918,40.57546 -9.85915,35.9155 -7.12182,-7.12182 -6.57792,-18.45296 -8.4507,-27.8169 -1.13,-5.64996 -5.62538,-10.186 -7.39437,-15.49296 -3.97919,-11.93756 -3.45753,-30.88819 -0.35211,-43.30986 2.17055,-8.68221 10.47967,-27.6322 6.33802,-35.91549 z"
   id="path22" /><path
   d="m 284.9755,191.1791 -64.47043,35.12051 -50.7326,111.31615 -7.1588,59.95767 21.23376,66.16139 11.36429,-78.67162 54.7389,-64.49877 20.24692,80.17663 -16.49007,64.76938 68.064,75.86646 -30.90255,-73.97102 41.51584,-106.98142 -30.82092,-68.34104 84.86892,21.90841 101.9006,-6.59679 52.68888,-96.54728 -65.79969,57.1132 -60.78614,20.65776 -92.10784,-39.57467 26.26658,-29.56158 21.02173,-61.21436 -56.10406,-120.685227 8.49751,103.745757 z"
   fill="#5b3e24"
   id="path2-690-0-3-6-2"
   style="fill:none;stroke:#312114;stroke-width:9;stroke-linecap:round;stroke-linejoin:round;stroke-dasharray:none;stroke-opacity:1"
   sodipodi:nodetypes="cccccccccccccccccccccccc" /><path
   style="fill:#6d4a2c;fill-opacity:1;stroke:#312114;stroke-width:8.999;stroke-linecap:square;stroke-linejoin:round;stroke-dasharray:none;stroke-opacity:1"
   d="m 161.98287,4.4980327 92.82066,103.4101373 -12.02381,53.79288 33.58601,43.65695 43.74539,16.36384 67.22041,-19.91735 16.18243,-48.54766 34.8548,-46.05845 79.66866,2.48957 -60.99628,34.8548 -18.67238,32.36561 -12.44787,48.54766 -85.89279,39.83433 57.26173,73.44415 31.12063,70.95497 2.48957,44.8131 54.77178,82.15824 -93.36113,-64.73046 -3.73455,-58.50671 -41.07893,-70.95458 -30.0548,-26.143 -19.11648,24.45204 6.84737,44.01486 -89.62696,118.25802 38.58936,-130.70627 -26.45292,-58.46438 -97.6679,7.43509 -64.953083,-33.0652 -60.5639021,-70.92019 77.7316521,45.90274 59.803473,4.13254 72.98003,-43.57078 -19.73405,-41.45877 5.01922,-65.84844 z"
   id="path25"
   sodipodi:nodetypes="ccccccccccccccccccccccccccccccccccc" /><path
   style="fill:#c9d1d9;fill-opacity:1;stroke:#a2a5c0;stroke-width:4;stroke-linecap:round;stroke-linejoin:round;stroke-dasharray:none;stroke-opacity:1"
   d="m 352.02614,212.44005 c 14.83507,1.64547 -1.87923,11.67182 0,15.43028 0.909,1.81801 3.65021,2.68234 5.14342,3.42895 0.9971,0.49855 -1.48131,13.32489 -0.42862,15.43027 4.4238,8.8476 12.75179,1.76787 18.00199,-0.85724 2.18778,-1.09388 5.97586,-2.06868 6.8579,-4.7148 2.15315,-6.45944 -2.22535,-6.59379 -4.28619,-10.71547 -0.59439,-1.1888 3.58052,-11.04223 2.57172,-14.57304 -1.90518,-6.66812 -23.93849,-7.35069 -27.86022,-3.42895 z"
   id="path5" /><path
   style="fill:#c9d1d9;fill-opacity:1;stroke:#a2a5c0;stroke-width:4;stroke-linecap:round;stroke-linejoin:round;stroke-dasharray:none;stroke-opacity:1"
   d="m 198.15199,125.43043 c 0.70828,-8.82433 45.09894,8.95402 48.43392,7.28652 4.88695,-2.44347 6.96478,-24.75337 4.71481,-30.00331 -3.03629,-7.084687 -10.75519,-9.897947 -15.43028,-14.573037 -16.89351,-16.89351 -30.38362,-38.52738 -48.0053,-56.14906 -3.5264,-3.5264 -13.8936,-21.98497 -20.14508,-18.85923 -3.22551,1.61276 1.94821,18.37202 3.00033,21.00232 3.86794,9.66985 11.29775,22.19924 13.28718,32.14641 3.61979,18.09894 6.23878,29.93187 16.28751,45.004967 2.36742,3.55113 3.82127,15.13849 -2.14309,14.14442 z"
   id="path7" /><path
   style="fill:#c9d1d9;fill-opacity:1;stroke:#a2a5c0;stroke-width:4;stroke-linecap:round;stroke-linejoin:round;stroke-dasharray:none;stroke-opacity:1"
   d="m 198.15199,162.29165 c 21.43932,0.52253 15.69623,10.70004 17.57337,25.71713 0.48357,3.86852 5.52387,10.76365 2.14309,14.14442 -13.49261,13.49262 -24.89997,-24.31101 -19.71646,-39.86155 z"
   id="path8" /><path
   style="fill:#c9d1d9;fill-opacity:1;stroke:#a2a5c0;stroke-width:4;stroke-linecap:round;stroke-linejoin:round;stroke-dasharray:none;stroke-opacity:1"
   d="m 234.15597,190.15187 c 7.8271,-12.69049 8.72907,3.62406 12.00132,4.71481 5.87502,1.95834 6.06814,-15.3628 11.14409,-10.28685 5.95042,5.95041 13.10844,14.68067 9.85824,24.43127 -0.50806,1.52416 -6.36983,3.3695 -7.71514,4.71481 -2.19032,2.19032 -4.1712,5.03888 -7.71514,3.85756 -8.78627,-2.92875 -18.99774,-18.88541 -17.57337,-27.4316 z"
   id="path9" /><path
   style="fill:#c9d1d9;fill-opacity:1;stroke:#a2a5c0;stroke-width:4;stroke-linecap:round;stroke-linejoin:round;stroke-dasharray:none;stroke-opacity:1"
   d="m 96.140717,265.16016 c -3.93779,12.04727 15.298223,10.4838 16.716133,17.57337 0.0742,0.37084 0.37048,3.9157 0,4.28619 -1.16541,1.16541 -6.21929,1.28874 -8.14376,2.57171 -4.59747,3.06498 -6.049593,15.41804 -14.573033,13.28718 -8.86647,-2.21661 -48.34567,-39.68503 -53.14873,-49.29116 -1.10665,-2.21329 -17.475048,-21.26579 -15.430281,-22.28817 11.514851,-5.75743 15.345561,10.40148 22.716801,12.85856 3.57487,1.19163 11.51414,0.37005 14.14442,3.00033 4.00845,4.00845 7.79752,9.59995 13.7158,11.57271 8.6699,2.88997 15.85119,0.99497 24.00265,6.42928 z"
   id="path10" /><path
   style="fill:#c9d1d9;fill-opacity:1;stroke:#a2a5c0;stroke-width:4;stroke-linecap:round;stroke-linejoin:round;stroke-dasharray:none;stroke-opacity:1"
   d="m 144.14602,318.73751 c 14.78718,-1.96179 7.69048,-15.81779 12.85857,-24.43127 3.54682,-5.91137 13.34497,-3.48674 17.14475,-7.28652 3.10859,-3.10859 3.30987,-8.88192 6.8579,-12.42995 4.62857,-4.62857 20.13443,-9.46158 22.71679,-1.71447 1.59717,4.7915 -4.7148,7.28708 -4.7148,10.71547 0,1.43511 32.00174,6.43144 14.14442,27.86022"
   id="path11" /><path
   style="fill:#c9d1d9;fill-opacity:1;stroke:#a2a5c0;stroke-width:4;stroke-linecap:round;stroke-linejoin:round;stroke-dasharray:none;stroke-opacity:1"
   d="m 232.87011,318.73751 c 31.20985,-37.5309 18.1542,-5.84951 32.14641,-7.71514 1.26064,-0.16808 12.02067,-5.12408 12.42995,-4.71481 3.98827,3.98827 -2.77267,12.40325 -4.28619,15.43028 -0.97146,1.94292 5.04392,2.80133 5.57204,3.85757 1.00565,2.0113 -0.44788,5.53351 0.42862,7.28652 2.9124,5.82479 12.30907,-7.77004 18.85923,18.43061 0.44738,1.78951 3.03623,6.78609 2.14309,8.57237 -2.55881,5.11762 -14.29711,-5.71632 -19.28784,-6.42928 -5.99189,-0.85598 -10.44724,2.68786 -16.28752,1.71448 -3.53636,-0.5894 -7.38557,-11.24315 -10.28685,-14.14442 -10.94427,-10.94427 -21.43094,-3.91174 -21.43094,-22.28818 z"
   id="path12" /><path
   style="fill:#c9d1d9;fill-opacity:1;stroke:#a2a5c0;stroke-width:4;stroke-linecap:round;stroke-linejoin:round;stroke-dasharray:none;stroke-opacity:1"
   d="m 322.02282,318.73751 c 21.68104,-8.79977 1.44616,-27.29745 22.28818,-37.71845 4.60478,-2.30239 10.05542,8.34094 12.42994,10.71547 5.29226,5.29226 8.68176,9.21974 12.00133,15.85889 1.14398,2.28797 -8.58974,11.62479 -9.42961,14.14442 -1.39213,4.17638 3.03776,33.4697 -9.42962,21.00232 -5.31998,-5.31999 -12.5803,-10.6302 -17.14475,-16.71613 -3.09724,-4.12965 -8.22043,-4.16772 -10.71547,-7.28652 z"
   id="path14" /><path
   style="fill:#c9d1d9;fill-opacity:1;stroke:#a2a5c0;stroke-width:4;stroke-linecap:round;stroke-linejoin:round;stroke-dasharray:none;stroke-opacity:1"
   d="m 387.6015,413.89088 c 15.71566,-1.42344 18.2246,20.86499 18.4306,21.00232 6.83278,4.55518 17.04867,0.42862 24.43127,0.42862 -4.70993,16.6372 5.24491,21.17145 11.57271,31.71779 3.76494,6.27489 4.80202,12.28469 9.42961,17.57337 5.15639,5.89302 6.97929,11.87743 11.57271,18.00199 2.31878,3.0917 9.42962,15.47232 9.42962,19.28784 0,3.13671 4.7148,11.28047 4.7148,8.14376 0,-1.17208 -10.38457,-7.52526 -11.14408,-7.71514 -4.15769,-1.03942 -11.07216,-3.35701 -14.14443,-6.42928 -17.71215,-17.71216 -46.38397,-27.18928 -57.86353,-50.1484 -3.43544,-6.87087 -1.91068,-17.23231 -3.00033,-24.85989 -1.37172,-9.60201 -4.87967,-18.29873 -3.42895,-27.00298 z"
   id="path15"
   sodipodi:nodetypes="cscsssssssssc" /><path
   style="fill:#c9d1d9;fill-opacity:1;stroke:#a2a5c0;stroke-width:4;stroke-linecap:round;stroke-linejoin:round;stroke-dasharray:none;stroke-opacity:1"
   d="m 451.85185,113.88889 c -3.99242,0.80554 -12.64656,6.90335 -8.7963,12.03703 3.38758,4.51678 12.73677,2.77778 17.59259,2.77778 5.51894,0 12.87691,2.80647 18.51852,0.92593 18.92895,-6.30965 -12.09499,-27.9166 -27.31481,-15.74074 z"
   id="path3" /><path
   style="fill:none;fill-opacity:1;stroke:#312114;stroke-width:8.99905;stroke-linecap:square;stroke-linejoin:round;stroke-dasharray:none;stroke-opacity:1"
   d="m 161.98287,4.4980327 92.82066,103.4101373 -12.02381,53.79288 33.58601,43.65695 43.74539,16.36384 67.22041,-19.91735 16.18243,-48.54766 34.8548,-46.05845 79.66866,2.48957 -60.99628,34.8548 -18.67238,32.36561 -12.44787,48.54766 -85.89279,39.83433 57.26173,73.44415 31.12063,70.95497 2.48957,44.8131 54.77178,82.15824 -93.36113,-64.73046 -3.73455,-58.50671 -41.07893,-70.95458 -30.0548,-26.143 -19.11648,24.45204 6.84737,44.01486 -89.62696,118.25802 38.58936,-130.70627 -26.45292,-58.46438 -97.6679,7.43509 -64.953083,-33.0652 -60.5639021,-70.92019 77.7316521,45.90274 59.803473,4.13254 72.98003,-43.57078 -19.73405,-41.45877 5.01922,-65.84844 z"
   id="path25-2"
   sodipodi:nodetypes="ccccccccccccccccccccccccccccccccccc" /><path
   style="fill:#c9d1d9;stroke:#a2a5c0;stroke-width:4;stroke-linecap:round;stroke-linejoin:round;fill-opacity:1;stroke-opacity:1;stroke-dasharray:none"
   d="m 264.35185,379.62963 c 0.72015,5.79824 -1.25734,9.85547 -4.62963,14.35185 -4.85028,6.46705 0.81561,27.02095 11.57408,18.05556 4.77951,-3.98293 4.49677,-10.90978 5.55555,-16.20371 1.04353,-5.21764 8.57473,-6.76252 9.72222,-12.5 2.324,-11.61999 -18.2222,-7.70372 -22.22222,-3.7037 z"
   id="path1" /><path
   style="fill:#c9d1d9;fill-opacity:1;stroke:#a2a5c0;stroke-width:4;stroke-linecap:round;stroke-linejoin:round;stroke-dasharray:none;stroke-opacity:1"
   d="m 410.64815,166.2037 c -0.55038,4.87457 0.95367,13.51551 -1.38889,18.98149 -8.17666,19.07887 -3.71335,41.22299 9.25926,15.27777 3.15643,-6.31285 2.80794,-14.46495 4.62963,-21.29629 2.15192,-8.06971 14.6467,-26.38889 0.46296,-26.38889 -10.9007,0 -8.88916,6.63625 -12.96296,13.42592 z"
   id="path2" /></svg>
