<?xml version="1.0" encoding="UTF-8" standalone="no"?>
<!-- Generator: Adobe Illustrator 27.0.0, SVG Export Plug-In . SVG Version: 6.00 Build 0)  -->

<svg
   version="1.1"
   id="svg52"
   x="0px"
   y="0px"
   viewBox="0 0 415.29739 445.93654"
   xml:space="preserve"
   sodipodi:docname="oak_tree_1_winter.svg"
   inkscape:version="1.1.2 (0a00cf5339, 2022-02-04)"
   width="415.29739"
   height="445.93655"
   xmlns:inkscape="http://www.inkscape.org/namespaces/inkscape"
   xmlns:sodipodi="http://sodipodi.sourceforge.net/DTD/sodipodi-0.dtd"
   xmlns="http://www.w3.org/2000/svg"
   xmlns:svg="http://www.w3.org/2000/svg"><defs
   id="defs1" />
<style
   type="text/css"
   id="style1">
	.st0{opacity:0.9;fill:#63462B;enable-background:new    ;}
	.st1{fill:#70553D;stroke:#4A2809;stroke-width:9;stroke-linejoin:round;stroke-miterlimit:16;}
	.st2{opacity:0.95;fill:#69371C;fill-opacity:0.852;enable-background:new    ;}
	.st3{opacity:0.8;fill:#73452C;fill-opacity:0.8039;enable-background:new    ;}
	.st4{fill:#845B45;fill-opacity:0.8971;}
	.st5{fill:#8D6753;fill-opacity:0.8978;}
</style>
<sodipodi:namedview
   bordercolor="#ffffff"
   borderopacity="1"
   height="609.877px"
   id="namedview54"
   inkscape:current-layer="svg52"
   inkscape:cx="254.55843"
   inkscape:cy="136.47161"
   inkscape:deskcolor="#505050"
   inkscape:pagecheckerboard="1"
   inkscape:pageopacity="0"
   inkscape:pageshadow="0"
   inkscape:showpageshadow="2"
   inkscape:window-height="1372"
   inkscape:window-maximized="1"
   inkscape:window-width="2560"
   inkscape:window-x="0"
   inkscape:window-y="0"
   inkscape:zoom="1.4142136"
   pagecolor="#505050"
   showgrid="false">
	</sodipodi:namedview>
<path
   id="path5"
   class="st0"
   d="m 224.69887,59.198504 -62.9,115.499996 c 0,0 -22.7,19.1 -36.7,31.8 -28.400003,25.8 -69.400003,69.4 -69.400003,69.4 l 3.3,68.2 16.4,-56.3 82.900003,-44.5 31.4,73.9 -73.2,50.7 -10.9,75.9 30.4,-56.3 c 0,0 38.7,-21 56.6,-32.6 19,-12.4 29.8,-24.5 29.8,-24.5 l 20.4,28.6 -13.2,75.4 43.8,-82.9 -70.4,-109 83.7,-54.7 14.7,-61.2 -32.1,41.1 -67.9,26.2 41.2,-109.399996 52.3,-29.8 z"
   style="opacity:1;fill:#5b3e24;fill-opacity:1;stroke:#312114;stroke-width:9;stroke-dasharray:none;stroke-opacity:1" /><path
   style="fill:#c9d1d9;fill-opacity:1;fill-rule:evenodd;stroke:#a2a5c0;stroke-width:4;stroke-linecap:round;stroke-linejoin:round;stroke-dasharray:none;stroke-opacity:1"
   d="m 245.6756,178.12001 c 0.33066,0 2.1956,5.51117 7.68115,9.91519 2.80567,2.2525 9.05059,3.20007 11.36077,5.07513 2.83207,2.29867 4.82293,3.92479 4.82293,3.92479 l 19.26866,-9.8995 9.01562,-51.44202 -28.81461,31.99658 z"
   id="path21"
   sodipodi:nodetypes="cssccccc" /><path
   style="fill:#c9d1d9;fill-opacity:1;fill-rule:evenodd;stroke:#a2a5c0;stroke-width:4;stroke-linecap:round;stroke-linejoin:round;stroke-dasharray:none;stroke-opacity:1"
   d="m 57.761967,332.79962 -1.76776,-57.80598 10.25305,-8.30851 c 0,0 11.54851,-0.93544 13.29151,1.69059 1.0415,1.56912 10.68462,-1.45957 11.41728,0.27539 1.38626,3.28268 15.596293,3.16054 15.596293,3.16054 l -30.405593,14.14214 z"
   id="path13"
   sodipodi:nodetypes="cccssccc" /><path
   style="fill:#c9d1d9;fill-opacity:1;fill-rule:evenodd;stroke:#a2a5c0;stroke-width:4;stroke-linecap:round;stroke-linejoin:round;stroke-dasharray:none;stroke-opacity:1"
   d="m 244.43816,360.90711 c 0,0 4.62962,-2.0959 6.98862,-1.9948 1.68513,0.0722 3.89764,3.65143 5.14376,2.51476 4.64739,-4.23919 12.61636,0.5407 12.61636,0.5407 l -33.94112,56.9221 z"
   id="path12"
   sodipodi:nodetypes="cssccc" /><path
   style="fill:#c9d1d9;fill-opacity:1;fill-rule:evenodd;stroke:#a2a5c0;stroke-width:4;stroke-linecap:round;stroke-linejoin:round;stroke-dasharray:none;stroke-opacity:1"
   d="m 246.64787,314.06129 c 0,0 -8.78229,4.2488 -10.42982,8.39689 -1.51498,3.81437 1.67938,12.19759 1.67938,12.19759 0.34686,2.51927 3.35875,6.45235 3.44714,6.8059 0.0884,0.35356 -0.18649,-6.39075 2.12132,-6.62912 4.04222,-0.41751 1.97977,11.12412 6.01041,10.6066 4.20343,-0.5397 0.86886,-8.62913 3.27037,-12.28598 2.12512,-3.236 5.3033,-2.74004 5.3033,-2.74004 z"
   id="path11"
   sodipodi:nodetypes="csssssscc" /><path
   style="fill:#c9d1d9;fill-opacity:1;fill-rule:evenodd;stroke:#a2a5c0;stroke-width:4;stroke-linecap:round;stroke-linejoin:round;stroke-dasharray:none;stroke-opacity:1"
   d="m 145.61999,347.64886 c 0,0 5.46385,8.93887 2.0564,12.02983 -1.98323,1.79902 -7.51172,11.24699 -2.55736,8.91045 5.18782,-2.44664 2.55797,14.25641 -0.38292,16.00605 l -8.48528,3.0052 -28.46105,46.66905 8.48528,-68.58936 z"
   id="path10"
   sodipodi:nodetypes="cssccccc" /><path
   style="fill:#c9d1d9;fill-opacity:1;fill-rule:evenodd;stroke:#a2a5c0;stroke-width:4;stroke-linecap:round;stroke-linejoin:round;stroke-dasharray:none;stroke-opacity:1"
   d="m 212.44158,80.539274 c 2.87998,3.45534 7.28532,4.87774 10.4291,8.33307 2.12617,2.33687 0.49157,10.29299 5.2742,9.04354 2.82039,-0.73682 5.86346,6.488246 5.86346,6.488246 l 9.72272,-21.036426 44.01739,-25.27907 -62.9325,0.88389 z"
   id="path8"
   sodipodi:nodetypes="cssccccc" /><path
   id="path2"
   class="st0"
   d="m 224.69887,59.198504 -62.9,115.499996 c 0,0 -22.7,19.1 -36.7,31.8 -28.400003,25.8 -69.400003,69.4 -69.400003,69.4 l 3.3,68.2 16.4,-56.3 82.900003,-44.5 31.4,73.9 -73.2,50.7 -10.9,75.9 30.4,-56.3 c 0,0 38.7,-21 56.6,-32.6 19,-12.4 29.8,-24.5 29.8,-24.5 l 20.4,28.6 -13.2,75.4 43.8,-82.9 -70.4,-109 83.7,-54.7 14.7,-61.2 -32.1,41.1 -67.9,26.2 41.2,-109.399996 52.3,-29.8 z"
   style="opacity:1;fill:none;stroke:#312114;stroke-width:9;stroke-dasharray:none;stroke-opacity:1" />
<path
   id="path4"
   class="st1"
   d="m 161.89887,174.2985 5.7,-40 -20,-68.199996 42.5,-61.5999996 -12.7,72.6999996 31.8,57.199996 -7.3,59.6 86.5,17.6 55.9,-29.4 66.5,24.1 -66.5,8.2 -55.9,40 -83.7,-11 c 13.6,34.9 20.8,89 20.8,89 l -26.9,54.9 -11.8,50.3 -15.5,-61.6 15.5,-54.3 c 0,0 -11.4,-50.4 -28.2,-78.4 l -45.3,16.3 c -25.800003,1.5 -61.600003,-8.8 -61.600003,-8.8 l -47.1999999,20.5 37.9999999,-45 h 51.6 l 31.000003,-20.2 -24.1,-31.8 -15.400003,-40 -46.2,-33.9 66.700003,19.5 c 0,-0.1 30.8,48.1 55.8,54.3 z"
   style="fill:#6d4a2c;fill-opacity:1;stroke:#312114;stroke-opacity:1" /><path
   style="fill:#c9d1d9;fill-opacity:1;fill-rule:evenodd;stroke:#a2a5c0;stroke-width:4;stroke-linecap:round;stroke-linejoin:round;stroke-dasharray:none;stroke-opacity:1"
   d="m 135.72387,157.5735 c 0,0 -10.15945,0.29911 -13.125,3.75 -3.42228,3.98236 -2.26748,10.38099 -2,15.625 0.19616,3.84573 -0.2394,8.67641 2.625,11.25 5.83957,5.24671 19.72493,9.82521 23.375,2.875 2.53877,-4.83414 -13.60119,-7.51902 -10.875,-12.25 3.6515,-6.33675 14.81602,6.03272 21.5,4.375 1.97833,-0.49065 3.25,-7.875 3.25,-7.875 0,0 -8,-5.5 -8.875,-5.25 -0.875,0.25 -15.875,-12.5 -15.875,-12.5 z"
   id="path19"
   sodipodi:nodetypes="cssssascsc" /><path
   style="fill:#c9d1d9;fill-opacity:1;fill-rule:evenodd;stroke:#a2a5c0;stroke-width:4;stroke-linecap:round;stroke-linejoin:round;stroke-dasharray:none;stroke-opacity:1"
   d="m 87.814007,139.58269 c 0,0 13.885813,-3.46361 17.677673,1.06066 1.63854,1.95503 -2.86351,5.99267 -0.88388,7.6014 1.15688,0.94013 3.01243,-2.25613 4.24264,-1.41422 1.99613,1.36607 0.53317,4.83571 0.35355,7.24785 -0.13387,1.7978 -1.06066,5.3033 -1.06066,5.3033 -0.53171,2.65857 -3.81517,-3.88898 -6.01041,-5.48008 -2.905693,-2.10604 -9.369163,-5.3033 -9.369163,-5.3033 z"
   id="path18"
   sodipodi:nodetypes="csssssscc" />























<path
   style="fill:#c9d1d9;fill-opacity:1;fill-rule:evenodd;stroke:#a2a5c0;stroke-width:4;stroke-linecap:round;stroke-linejoin:round;stroke-dasharray:none;stroke-opacity:1"
   d="m 157.09887,103.1985 c 0,0 11.58723,2.61018 14.22809,-1.35506 1.78624,-2.682016 7.44747,-0.36404 9.35871,-0.54606 3.84606,-0.3663 7.9132,-1.09888 7.9132,-1.09888 l -10.5,-21.499996 12,-65 -44.5,54.5 z"
   id="path22"
   sodipodi:nodetypes="cssccccc" /><path
   style="fill:#c9d1d9;fill-opacity:1;fill-rule:evenodd;stroke:#a2a5c0;stroke-width:4;stroke-linecap:round;stroke-linejoin:round;stroke-dasharray:none;stroke-opacity:1"
   d="m 203.24919,159.73523 c 0,0 -7.87541,-0.93471 -8.22948,-3.95799 -1.29724,-11.07655 -5.02701,-7.22719 -9.23173,-4.44002 -2.86447,1.89877 -6.76911,1.03571 -4.02074,-1.93378 3.92974,-4.24592 -15.64115,-7.52265 -15.64115,-7.52265 l -1.41422,15.37957 c 0,0 6.52432,5.97002 9.54595,9.19239 1.37278,1.46398 1.88288,4.65029 3.88908,4.59619 2.43866,-0.0658 1.99562,-6.11034 4.41942,-5.83363 4.2978,0.49065 3.98576,-2.98875 8.3085,-2.82843 3.3461,0.1241 -1.43241,6.81885 1.76777,5.83363 3.42564,-1.05463 9.54594,4.94975 9.54594,4.94975 z"
   id="path23"
   sodipodi:nodetypes="csssccssssscc" /><path
   style="fill:#c9d1d9;fill-opacity:1;fill-rule:evenodd;stroke:#a2a5c0;stroke-width:4;stroke-linecap:round;stroke-linejoin:round;stroke-dasharray:none;stroke-opacity:1"
   d="m 297.29439,208.70238 c 12.16115,-4.80379 22.84049,-11.45985 32.17336,-19.79899 9.39006,-8.39024 3.99667,12.15843 2.47488,18.03122 -1.6259,6.27458 -5.34722,14.11724 -11.66726,15.55635 -3.23793,0.73729 -8.83884,-4.5962 -8.83884,-4.5962 -3.22952,-1.67935 -1.66525,9.66668 -5.3033,9.54595 -6.90232,-0.22906 -20.55066,-14.11203 -8.83884,-18.73833 z"
   id="path7"
   sodipodi:nodetypes="sssssss" /><path
   style="fill:#c9d1d9;fill-opacity:1;fill-rule:evenodd;stroke:#a2a5c0;stroke-width:4;stroke-linecap:round;stroke-linejoin:round;stroke-dasharray:none;stroke-opacity:1"
   d="m 48.098867,226.9485 c 0,0 -1.36843,3.68062 0.92416,5.63002 2.01926,1.71698 11.22233,1.6619 0.96283,5.86553 -2.21407,0.90717 6.19804,0.41834 1.16273,7.08333 -0.89662,1.18681 0.7228,4.40335 0.7228,4.40335 0,0 -37.52252,18.51777 -39.77252,16.51777 -2.2499999,-2 28,-38.5 28,-38.5 z"
   id="path15"
   sodipodi:nodetypes="cssscscc" /><path
   style="fill:#c9d1d9;fill-opacity:1;fill-rule:evenodd;stroke:#a2a5c0;stroke-width:4;stroke-linecap:round;stroke-linejoin:round;stroke-dasharray:none;stroke-opacity:1"
   d="m 65.348867,251.6985 c 0,0 1.98834,-4.33068 1.5,-6.5 -0.28011,-1.2443 -2.375,-3 -2.375,-3 -2.96745,-3.74835 12.19257,-5.94043 14.25,-1.625 1.38211,2.89896 -3.62982,2.33045 -2.4375,5.3125 1.99574,4.99145 11.6875,0.8125 11.6875,1.6875 0,0.875 -11.375,8.125 -11.375,8.125 z"
   id="path16"
   sodipodi:nodetypes="cssssscc" /><path
   style="fill:#c9d1d9;fill-opacity:1;fill-rule:evenodd;stroke:#a2a5c0;stroke-width:4;stroke-linecap:round;stroke-linejoin:round;stroke-dasharray:none;stroke-opacity:1"
   d="m 184.43236,311.41516 c 0,0 8.7397,7.07643 11.92092,4.61737 4.32831,-3.34575 12.60992,-0.66226 12.60992,-0.66226 2.86494,-4.30172 10.21984,-5.78016 10.21984,-5.78016 l 5.76402,23.28663 -26.51447,53.72063 -9.91411,46.57325 -17.52261,-60.63745 17.29205,-52.79839 z"
   id="path1"
   sodipodi:nodetypes="cssccccccc" /><path
   id="path3"
   class="st1"
   d="m 161.89887,174.2985 5.7,-40 -20,-68.199996 42.5,-61.5999996 -12.7,72.6999996 31.8,57.199996 -7.3,59.6 86.5,17.6 55.9,-29.4 66.5,24.1 -66.5,8.2 -55.9,40 -83.7,-11 c 13.6,34.9 20.8,89 20.8,89 l -26.9,54.9 -11.8,50.3 -15.5,-61.6 15.5,-54.3 c 0,0 -11.4,-50.4 -28.2,-78.4 l -45.3,16.3 c -25.800003,1.5 -61.600003,-8.8 -61.600003,-8.8 l -47.1999999,20.5 37.9999999,-45 h 51.6 l 31.000003,-20.2 -24.1,-31.8 -15.400003,-40 -46.2,-33.9 67.825003,19.5 c 0.0961,0.0276 29.675,48.1 54.675,54.3 z"
   style="fill:none;stroke:#312114;stroke-opacity:1"
   sodipodi:nodetypes="ccccccccccccccccccccccccccccsc" /><path
   style="fill:#c9d1d9;fill-opacity:1;fill-rule:evenodd;stroke:#a2a5c0;stroke-width:4;stroke-linecap:round;stroke-linejoin:round;stroke-dasharray:none;stroke-opacity:1"
   d="m 192.6426,264.56381 c -6.25678,2.91998 -8.04178,12.37811 -7.6014,19.26866 0.29605,4.63222 2.07769,12.32883 6.71751,12.19759 6.27023,-0.17736 1.90693,-11.24453 8.13173,-10.47056 5.60784,0.69726 -2.27206,10.59437 3.35876,10.11701 7.75393,-0.65735 7.05422,-18.83234 0.7071,-23.33452 -2.67771,-1.89937 -5.62209,2.92619 -7.86655,0.53033 -2.30721,-2.46285 6.99685,-2.02922 5.65685,-5.12652 -0.88787,-2.05224 -7.07773,-4.12763 -9.104,-3.18199 z"
   id="path6"
   sodipodi:nodetypes="sssssssss" /><path
   style="fill:#c9d1d9;fill-opacity:1;fill-rule:evenodd;stroke:#a2a5c0;stroke-width:4;stroke-linecap:round;stroke-linejoin:round;stroke-dasharray:none;stroke-opacity:1"
   d="m 258.09887,223.9485 c -12.26643,-3.23716 -36.11671,-6.11075 -37.5,6.5 -1.05124,9.58365 17.31259,9.02855 26.75,11 7.50644,1.56808 15.34604,0.97161 23,0.5 4.03466,-0.2486 9.77348,1.62386 12,-1.75 2.32692,-3.526 0.84762,-11.22202 -3.25,-12.25 -3.31693,-0.83212 -3.58775,7.27413 -7,7.5 -6.02604,0.39889 -8.16069,-9.95898 -14,-11.5 z"
   id="path9"
   sodipodi:nodetypes="ssssssss" /><path
   style="fill:#c9d1d9;fill-opacity:1;fill-rule:evenodd;stroke:#a2a5c0;stroke-width:4;stroke-linecap:round;stroke-linejoin:round;stroke-dasharray:none;stroke-opacity:1"
   d="m 169.09887,350.6985 c -0.0171,-0.25712 -6.33889,-0.61008 -8.6875,1.125 -3.47944,2.5705 -7.95561,8.34055 -5.375,11.8125 1.20397,1.61982 4.32717,0.31666 6,-0.8125 1.70915,-1.15368 1.29776,-4.3083 3.0625,-5.375 1.55207,-0.93815 4.2215,1.15801 5.4375,-0.1875 1.46997,-1.62653 -0.4375,-6.5625 -0.4375,-6.5625 z"
   id="path14"
   sodipodi:nodetypes="sssssss" /><path
   style="fill:#c9d1d9;fill-opacity:1;fill-rule:evenodd;stroke:#a2a5c0;stroke-width:4;stroke-linecap:round;stroke-linejoin:round;stroke-dasharray:none;stroke-opacity:1"
   d="m 111.06015,239.99185 c 3.14418,-4.58385 3.67173,-11.47977 8.39689,-14.4073 5.2962,-3.28132 15.42672,-6.5692 18.64994,-1.23744 1.42995,2.36538 -5.14995,4.43116 -4.33103,7.07107 0.62131,2.00289 5.3008,0.51386 5.74525,2.56326 0.79186,3.65133 -4.15771,6.58404 -7.42463,8.3969 -3.26539,1.81202 -7.4811,0.75183 -11.04854,1.85615 -2.54367,0.78741 -4.58567,3.30284 -7.24784,3.35876 -2.3905,0.0502 -6.03282,-0.42456 -6.62913,-2.74004 -0.51754,-2.00962 2.71526,-3.15006 3.88909,-4.86136 z"
   id="path17"
   sodipodi:nodetypes="ssssssssss" /><path
   style="fill:#c9d1d9;fill-opacity:1;fill-rule:evenodd;stroke:#a2a5c0;stroke-width:4;stroke-linecap:round;stroke-linejoin:round;stroke-dasharray:none;stroke-opacity:1"
   d="m 218.98232,107.76288 c -3.15761,-1.73336 -8.61837,-1.39645 -10.69499,1.5468 -1.89708,2.68876 -0.73292,7.76553 1.94454,9.67853 2.00713,1.43406 5.62131,-2.74544 7.33624,-0.97228 1.4951,1.54586 -3.02438,5.48715 -1.06066,6.36396 3.44524,1.53832 5.61197,-5.2961 5.87782,-9.0598 0.21219,-3.00407 -0.98117,-6.22778 -3.40295,-7.55721 z"
   id="path20"
   sodipodi:nodetypes="sssssss" /></svg>
