<svg xmlns="http://www.w3.org/2000/svg" width="519.427" height="519.427"><path d="M-26.903 71.03c-1.911-1.912 6.818-27.105 5.59-29.514s-26.74-10.155-27.162-12.825S-27.028 10.77-26.605 8.1s-15.664-23.933-14.437-26.342 27.885-1.892 29.797-3.803 1.395-28.57 3.803-29.797c2.41-1.228 23.672 14.86 26.342 14.437S36.821-59.7 39.491-59.275c2.67.422 10.417 25.935 12.825 27.162 2.41 1.228 27.602-7.502 29.514-5.59s-6.818 27.105-5.59 29.514 26.74 10.155 27.163 12.825-21.448 17.92-21.87 20.591c-.424 2.67 15.664 23.933 14.436 26.342s-27.885 1.892-29.796 3.803c-1.912 1.912-1.395 28.57-3.804 29.797s-23.671-14.86-26.342-14.437-17.92 22.293-20.59 21.87C12.765 92.18 5.02 66.667 2.61 65.44c-2.409-1.227-27.602 7.502-29.514 5.59" style="fill:#7b866f;fill-opacity:.854902;stroke-width:4.42082;stroke-linecap:square" transform="matrix(-3.41975 0 0 -3.41975 353.633 316.698)"/><path d="M-26.903 71.03c-1.911-1.912 6.818-27.105 5.59-29.514s-26.74-10.155-27.162-12.825S-27.028 10.77-26.605 8.1s-15.664-23.933-14.437-26.342 27.885-1.892 29.797-3.803 1.395-28.57 3.803-29.797c2.41-1.228 23.672 14.86 26.342 14.437S36.821-59.7 39.491-59.275c2.67.422 10.417 25.935 12.825 27.162 2.41 1.228 27.602-7.502 29.514-5.59s-6.818 27.105-5.59 29.514 26.74 10.155 27.163 12.825-21.448 17.92-21.87 20.591c-.424 2.67 15.664 23.933 14.436 26.342s-27.885 1.892-29.796 3.803c-1.912 1.912-1.395 28.57-3.804 29.797s-23.671-14.86-26.342-14.437-17.92 22.293-20.59 21.87C12.765 92.18 5.02 66.667 2.61 65.44c-2.409-1.227-27.602 7.502-29.514 5.59" style="fill:#889778;fill-opacity:.946108;stroke-width:4;stroke-linecap:square" transform="scale(-3.09692)rotate(17.733 293.998 -390.413)"/><g stroke-width=".635" transform="rotate(-174.321 947.786 486.238)scale(4.18293)"><ellipse cx="-405.63" cy="124.83" fill="#2c251a" fill-opacity=".996" rx=".53" ry=".236" transform="rotate(-136.69)"/><path fill="#645c4a" d="M376.3 192.45a3.027 3.027 0 0 0 3.028-3.51 3.027 3.027 0 0 0-3.325 3.23c.01.147.15.278.297.28"/><path fill="#595040" d="M377.64 192.55a3.026 3.026 0 0 1 2.376-3.98 3.027 3.027 0 0 1-2.016 4.174.32.32 0 0 1-.36-.194"/><path fill="#5f5644" d="M375.85 190.86a3.027 3.027 0 0 0 3.833-2.607 3.027 3.027 0 0 0-4.048 2.26.32.32 0 0 0 .215.347"/><path fill="#5b5343" d="M377.47 191.21a3.027 3.027 0 0 0 3.028-3.51 3.027 3.027 0 0 0-3.325 3.23c.01.147.15.278.297.28"/><path fill="#564d3e" d="M376.1 189.23a3.027 3.027 0 0 0 4.377-1.526 3.027 3.027 0 0 0-4.494 1.135.32.32 0 0 0 .117.39"/><path fill="#4f473a" d="M379.26 192.2a3.027 3.027 0 0 1 1.265-4.46 3.027 3.027 0 0 1-.867 4.554.32.32 0 0 1-.398-.094"/><path fill="#534a3c" d="M378.49 190.13q.269.003.53-.04a3.03 3.03 0 0 0 1.712-.91c.646-.685.236-.845.086-1.774-.936-.095-1.164-.536-1.81.15a3.03 3.03 0 0 0-.815 2.294c.01.147.15.278.297.28"/><path fill="#4c4438" d="M376.77 187.34a2.97 2.97 0 0 1 4.75 1.1c-.75.656-3.412.236-4.733-.744a.23.23 0 0 1-.017-.356"/><path fill="#463d34" d="M381.1 191.42a2.97 2.97 0 0 0-1.378-4.677c-.611.788-.035 3.42 1.022 4.68a.23.23 0 0 0 .356-.003z"/></g><path d="M-26.903 71.03c-1.911-1.912 6.818-27.105 5.59-29.514s-26.74-10.155-27.162-12.825S-27.028 10.77-26.605 8.1s-15.664-23.933-14.437-26.342 27.885-1.892 29.797-3.803 1.395-28.57 3.803-29.797c2.41-1.228 23.672 14.86 26.342 14.437S36.821-59.7 39.491-59.275c2.67.422 10.417 25.935 12.825 27.162 2.41 1.228 27.602-7.502 29.514-5.59s-6.818 27.105-5.59 29.514 26.74 10.155 27.163 12.825-21.448 17.92-21.87 20.591c-.424 2.67 15.664 23.933 14.436 26.342s-27.885 1.892-29.796 3.803c-1.912 1.912-1.395 28.57-3.804 29.797s-23.671-14.86-26.342-14.437-17.92 22.293-20.59 21.87C12.765 92.18 5.02 66.667 2.61 65.44c-2.409-1.227-27.602 7.502-29.514 5.59" style="fill:#8c9e7a;fill-opacity:.848802;stroke-width:4;stroke-linecap:square" transform="matrix(-2.41676 .01558 -.01558 -2.41676 326.346 299.557)"/><path d="M85.308 93.477 71.747 74.901 55.399 88.46l12.447-18.576-14.49-20.249 18.577 18.577 15.79-18.762-11.518 21.734Z" style="fill:#433828;fill-opacity:1;stroke:#23150d;stroke-width:2.11667;stroke-linecap:square;stroke-linejoin:round;stroke-opacity:1" transform="matrix(3.77953 0 0 3.77953 -10.051 -10.036)"/><path d="M72.118 96.635 66.545 73.23l-19.878-3.716 20.435-2.6 3.53-20.806 4.087 21.177 21.364 1.3-20.807 5.76Z" style="fill:#372d20;fill-opacity:1;stroke:#23150d;stroke-width:2.11667;stroke-linecap:square;stroke-linejoin:round;stroke-opacity:1" transform="matrix(3.77953 0 0 3.77953 -10.051 -10.036)"/><path d="M-26.903 71.03c-1.911-1.912 6.818-27.105 5.59-29.514s-26.74-10.155-27.162-12.825S-27.028 10.77-26.605 8.1s-15.664-23.933-14.437-26.342 27.885-1.892 29.797-3.803 1.395-28.57 3.803-29.797c2.41-1.228 23.672 14.86 26.342 14.437S36.821-59.7 39.491-59.275c2.67.422 10.417 25.935 12.825 27.162 2.41 1.228 27.602-7.502 29.514-5.59s-6.818 27.105-5.59 29.514 26.74 10.155 27.163 12.825-21.448 17.92-21.87 20.591c-.424 2.67 15.664 23.933 14.436 26.342s-27.885 1.892-29.796 3.803c-1.912 1.912-1.395 28.57-3.804 29.797s-23.671-14.86-26.342-14.437-17.92 22.293-20.59 21.87C12.765 92.18 5.02 66.667 2.61 65.44c-2.409-1.227-27.602 7.502-29.514 5.59" style="fill:#92a77a;fill-opacity:.648204;stroke-width:3.02224;stroke-linecap:square" transform="rotate(-162.386 173.222 129.28)scale(1.86851)"/><path d="M-26.903 71.03c-1.911-1.912 6.818-27.105 5.59-29.514s-26.74-10.155-27.162-12.825S-27.028 10.77-26.605 8.1s-15.664-23.933-14.437-26.342 27.885-1.892 29.797-3.803 1.395-28.57 3.803-29.797c2.41-1.228 23.672 14.86 26.342 14.437S36.821-59.7 39.491-59.275c2.67.422 10.417 25.935 12.825 27.162 2.41 1.228 27.602-7.502 29.514-5.59s-6.818 27.105-5.59 29.514 26.74 10.155 27.163 12.825-21.448 17.92-21.87 20.591c-.424 2.67 15.664 23.933 14.436 26.342s-27.885 1.892-29.796 3.803c-1.912 1.912-1.395 28.57-3.804 29.797s-23.671-14.86-26.342-14.437-17.92 22.293-20.59 21.87C12.765 92.18 5.02 66.667 2.61 65.44c-2.409-1.227-27.602 7.502-29.514 5.59" style="fill:#99b67b;fill-opacity:.350299;stroke-width:3.60598;stroke-linecap:square" transform="matrix(-1.56599 .01162 -.01162 -1.56599 302.915 285.49)"/><g stroke-width=".635" transform="rotate(-56.853 620.61 1805.794)scale(4.18293)"><ellipse cx="-405.63" cy="124.83" fill="#2c251a" fill-opacity=".996" rx=".53" ry=".236" transform="rotate(-136.69)"/><path fill="#645c4a" d="M376.3 192.45a3.027 3.027 0 0 0 3.028-3.51 3.027 3.027 0 0 0-3.325 3.23c.01.147.15.278.297.28"/><path fill="#595040" d="M377.64 192.55a3.026 3.026 0 0 1 2.376-3.98 3.027 3.027 0 0 1-2.016 4.174.32.32 0 0 1-.36-.194"/><path fill="#5f5644" d="M375.85 190.86a3.027 3.027 0 0 0 3.833-2.607 3.027 3.027 0 0 0-4.048 2.26.32.32 0 0 0 .215.347"/><path fill="#5b5343" d="M377.47 191.21a3.027 3.027 0 0 0 3.028-3.51 3.027 3.027 0 0 0-3.325 3.23c.01.147.15.278.297.28"/><path fill="#564d3e" d="M376.1 189.23a3.027 3.027 0 0 0 4.377-1.526 3.027 3.027 0 0 0-4.494 1.135.32.32 0 0 0 .117.39"/><path fill="#4f473a" d="M379.26 192.2a3.027 3.027 0 0 1 1.265-4.46 3.027 3.027 0 0 1-.867 4.554.32.32 0 0 1-.398-.094"/><path fill="#534a3c" d="M378.49 190.13q.269.003.53-.04a3.03 3.03 0 0 0 1.712-.91c.646-.685.236-.845.086-1.774-.936-.095-1.164-.536-1.81.15a3.03 3.03 0 0 0-.815 2.294c.01.147.15.278.297.28"/><path fill="#4c4438" d="M376.77 187.34a2.97 2.97 0 0 1 4.75 1.1c-.75.656-3.412.236-4.733-.744a.23.23 0 0 1-.017-.356"/><path fill="#463d34" d="M381.1 191.42a2.97 2.97 0 0 0-1.378-4.677c-.611.788-.035 3.42 1.022 4.68a.23.23 0 0 0 .356-.003z"/></g><g stroke-width=".635" transform="rotate(-126.658 881.356 837.686)scale(4.18293)"><ellipse cx="-405.63" cy="124.83" fill="#2c251a" fill-opacity=".996" rx=".53" ry=".236" transform="rotate(-136.69)"/><path fill="#645c4a" d="M376.3 192.45a3.027 3.027 0 0 0 3.028-3.51 3.027 3.027 0 0 0-3.325 3.23c.01.147.15.278.297.28"/><path fill="#595040" d="M377.64 192.55a3.026 3.026 0 0 1 2.376-3.98 3.027 3.027 0 0 1-2.016 4.174.32.32 0 0 1-.36-.194"/><path fill="#5f5644" d="M375.85 190.86a3.027 3.027 0 0 0 3.833-2.607 3.027 3.027 0 0 0-4.048 2.26.32.32 0 0 0 .215.347"/><path fill="#5b5343" d="M377.47 191.21a3.027 3.027 0 0 0 3.028-3.51 3.027 3.027 0 0 0-3.325 3.23c.01.147.15.278.297.28"/><path fill="#564d3e" d="M376.1 189.23a3.027 3.027 0 0 0 4.377-1.526 3.027 3.027 0 0 0-4.494 1.135.32.32 0 0 0 .117.39"/><path fill="#4f473a" d="M379.26 192.2a3.027 3.027 0 0 1 1.265-4.46 3.027 3.027 0 0 1-.867 4.554.32.32 0 0 1-.398-.094"/><path fill="#534a3c" d="M378.49 190.13q.269.003.53-.04a3.03 3.03 0 0 0 1.712-.91c.646-.685.236-.845.086-1.774-.936-.095-1.164-.536-1.81.15a3.03 3.03 0 0 0-.815 2.294c.01.147.15.278.297.28"/><path fill="#4c4438" d="M376.77 187.34a2.97 2.97 0 0 1 4.75 1.1c-.75.656-3.412.236-4.733-.744a.23.23 0 0 1-.017-.356"/><path fill="#463d34" d="M381.1 191.42a2.97 2.97 0 0 0-1.378-4.677c-.611.788-.035 3.42 1.022 4.68a.23.23 0 0 0 .356-.003z"/></g><g stroke-width=".635" transform="rotate(82.751 1206.625 -342.385)scale(4.18293)"><ellipse cx="-405.63" cy="124.83" fill="#2c251a" fill-opacity=".996" rx=".53" ry=".236" transform="rotate(-136.69)"/><path fill="#645c4a" d="M376.3 192.45a3.027 3.027 0 0 0 3.028-3.51 3.027 3.027 0 0 0-3.325 3.23c.01.147.15.278.297.28"/><path fill="#595040" d="M377.64 192.55a3.026 3.026 0 0 1 2.376-3.98 3.027 3.027 0 0 1-2.016 4.174.32.32 0 0 1-.36-.194"/><path fill="#5f5644" d="M375.85 190.86a3.027 3.027 0 0 0 3.833-2.607 3.027 3.027 0 0 0-4.048 2.26.32.32 0 0 0 .215.347"/><path fill="#5b5343" d="M377.47 191.21a3.027 3.027 0 0 0 3.028-3.51 3.027 3.027 0 0 0-3.325 3.23c.01.147.15.278.297.28"/><path fill="#564d3e" d="M376.1 189.23a3.027 3.027 0 0 0 4.377-1.526 3.027 3.027 0 0 0-4.494 1.135.32.32 0 0 0 .117.39"/><path fill="#4f473a" d="M379.26 192.2a3.027 3.027 0 0 1 1.265-4.46 3.027 3.027 0 0 1-.867 4.554.32.32 0 0 1-.398-.094"/><path fill="#534a3c" d="M378.49 190.13q.269.003.53-.04a3.03 3.03 0 0 0 1.712-.91c.646-.685.236-.845.086-1.774-.936-.095-1.164-.536-1.81.15a3.03 3.03 0 0 0-.815 2.294c.01.147.15.278.297.28"/><path fill="#4c4438" d="M376.77 187.34a2.97 2.97 0 0 1 4.75 1.1c-.75.656-3.412.236-4.733-.744a.23.23 0 0 1-.017-.356"/><path fill="#463d34" d="M381.1 191.42a2.97 2.97 0 0 0-1.378-4.677c-.611.788-.035 3.42 1.022 4.68a.23.23 0 0 0 .356-.003z"/></g><g stroke-width=".635" transform="rotate(-1.474 -16892.24 56828.682)scale(4.18293)"><ellipse cx="-405.63" cy="124.83" fill="#2c251a" fill-opacity=".996" rx=".53" ry=".236" transform="rotate(-136.69)"/><path fill="#645c4a" d="M376.3 192.45a3.027 3.027 0 0 0 3.028-3.51 3.027 3.027 0 0 0-3.325 3.23c.01.147.15.278.297.28"/><path fill="#595040" d="M377.64 192.55a3.026 3.026 0 0 1 2.376-3.98 3.027 3.027 0 0 1-2.016 4.174.32.32 0 0 1-.36-.194"/><path fill="#5f5644" d="M375.85 190.86a3.027 3.027 0 0 0 3.833-2.607 3.027 3.027 0 0 0-4.048 2.26.32.32 0 0 0 .215.347"/><path fill="#5b5343" d="M377.47 191.21a3.027 3.027 0 0 0 3.028-3.51 3.027 3.027 0 0 0-3.325 3.23c.01.147.15.278.297.28"/><path fill="#564d3e" d="M376.1 189.23a3.027 3.027 0 0 0 4.377-1.526 3.027 3.027 0 0 0-4.494 1.135.32.32 0 0 0 .117.39"/><path fill="#4f473a" d="M379.26 192.2a3.027 3.027 0 0 1 1.265-4.46 3.027 3.027 0 0 1-.867 4.554.32.32 0 0 1-.398-.094"/><path fill="#534a3c" d="M378.49 190.13q.269.003.53-.04a3.03 3.03 0 0 0 1.712-.91c.646-.685.236-.845.086-1.774-.936-.095-1.164-.536-1.81.15a3.03 3.03 0 0 0-.815 2.294c.01.147.15.278.297.28"/><path fill="#4c4438" d="M376.77 187.34a2.97 2.97 0 0 1 4.75 1.1c-.75.656-3.412.236-4.733-.744a.23.23 0 0 1-.017-.356"/><path fill="#463d34" d="M381.1 191.42a2.97 2.97 0 0 0-1.378-4.677c-.611.788-.035 3.42 1.022 4.68a.23.23 0 0 0 .356-.003z"/></g><path fill="#576f39" d="m600.947 180.987-2.442 16.68a1.07 1.07 0 0 0 .491 1.065l10.468 6.563a.226.226 0 0 1-.14.417l-16.922-1.526a3.15 3.15 0 0 1-1.678-.671l-13.484-10.716a.168.168 0 0 1 .138-.295l12.116 2.47a1.42 1.42 0 0 0 1.44-.569l9.613-13.579a.222.222 0 0 1 .4.16zM592.874 391.401l-16.696-2.333a1.07 1.07 0 0 0-1.061.498l-6.495 10.51a.226.226 0 0 1-.418-.138l1.416-16.93a3.15 3.15 0 0 1 .66-1.683l10.628-13.554a.168.168 0 0 1 .296.137l-2.392 12.131a1.42 1.42 0 0 0 .58 1.437l13.64 9.525a.222.222 0 0 1-.157.4zM553.88 475.504l-10.807-12.94a1.07 1.07 0 0 0-1.12-.343l-11.87 3.428a.226.226 0 0 1-.219-.382l12.417-11.597a3.15 3.15 0 0 1 1.619-.803l16.976-2.909a.168.168 0 0 1 .128.3l-9.918 7.385a1.42 1.42 0 0 0-.535 1.453l3.713 16.217a.222.222 0 0 1-.386.191zM452.962 502.947l-5.483-15.942a1.07 1.07 0 0 0-.925-.72l-12.313-1.03a.226.226 0 0 1-.066-.434l15.735-6.408a3.15 3.15 0 0 1 1.8-.173l16.897 3.334a.168.168 0 0 1 .011.325l-11.899 3.364a1.42 1.42 0 0 0-1.018 1.167l-2.312 16.476a.222.222 0 0 1-.429.042zM242.108 376.567l16.147-4.846a1.07 1.07 0 0 0 .757-.895l1.516-12.262a.226.226 0 0 1 .437-.05l5.779 15.978a3.15 3.15 0 0 1 .101 1.804l-4.002 16.752a.168.168 0 0 1-.326 0l-2.888-12.023a1.42 1.42 0 0 0-1.126-1.063l-16.371-2.965a.222.222 0 0 1-.027-.43zM660.952 400l-16.846-.648a1.07 1.07 0 0 0-1.007.6l-5.41 11.11a.226.226 0 0 1-.428-.096l-.289-16.988a3.15 3.15 0 0 1 .489-1.74l9.216-14.55a.168.168 0 0 1 .309.105l-1.165 12.31a1.42 1.42 0 0 0 .72 1.371l14.527 8.11a.222.222 0 0 1-.116.416zM356.234 250.66l15.74 6.037a1.07 1.07 0 0 0 1.147-.246l8.697-8.775a.226.226 0 0 1 .376.228l-5.196 16.176a3.15 3.15 0 0 1-1.023 1.49l-13.41 10.809a.168.168 0 0 1-.258-.2l5.066-11.28a1.42 1.42 0 0 0-.24-1.53l-11.143-12.355a.222.222 0 0 1 .244-.355zM251.604 221.722l16.634 2.74a1.07 1.07 0 0 0 1.073-.473l6.749-10.35a.226.226 0 0 1 .414.148l-1.827 16.892a3.15 3.15 0 0 1-.701 1.666l-10.954 13.29a.168.168 0 0 1-.293-.142l2.687-12.07a1.42 1.42 0 0 0-.544-1.45l-13.405-9.854a.222.222 0 0 1 .167-.398zM327.43 124.673l10.935 12.83a1.07 1.07 0 0 0 1.124.333l11.836-3.546a.226.226 0 0 1 .221.38l-12.3 11.72a3.15 3.15 0 0 1-1.611.819l-16.947 3.078a.168.168 0 0 1-.131-.299l9.844-7.483a1.42 1.42 0 0 0 .52-1.458l-3.874-16.18a.222.222 0 0 1 .384-.194zM393.89 135.883l9.947 13.61a1.07 1.07 0 0 0 1.097.415L417 147.253a.226.226 0 0 1 .192.396l-13.14 10.771a3.15 3.15 0 0 1-1.668.697l-17.128 1.807a.168.168 0 0 1-.109-.308l10.375-6.728a1.42 1.42 0 0 0 .627-1.416l-2.658-16.424a.222.222 0 0 1 .397-.166zM656.615 256.288l-16.156 4.816a1.07 1.07 0 0 0-.758.894l-1.54 12.26a.226.226 0 0 1-.437.046l-5.75-15.988a3.15 3.15 0 0 1-.097-1.804l4.033-16.745a.168.168 0 0 1 .326.001l2.866 12.029a1.42 1.42 0 0 0 1.124 1.065l16.366 2.995a.222.222 0 0 1 .022.43zM501.125 153.659l-2.443 16.68a1.07 1.07 0 0 0 .492 1.065l10.468 6.563a.226.226 0 0 1-.14.417l-16.922-1.526a3.15 3.15 0 0 1-1.678-.671l-13.485-10.716a.168.168 0 0 1 .138-.295l12.116 2.47a1.42 1.42 0 0 0 1.44-.569l9.614-13.579a.222.222 0 0 1 .4.16zM278.543 311.15l16.74 1.991a1.07 1.07 0 0 0 1.051-.52l6.279-10.64a.226.226 0 0 1 .42.128l-1.068 16.957a3.15 3.15 0 0 1-.626 1.695L290.99 334.53a.168.168 0 0 1-.3-.13l2.144-12.179a1.42 1.42 0 0 0-.609-1.423l-13.833-9.244a.222.222 0 0 1 .15-.405zM359.48 462.882l2.086-16.728a1.07 1.07 0 0 0-.512-1.055l-10.606-6.338a.226.226 0 0 1 .131-.42l16.95 1.164a3.15 3.15 0 0 1 1.692.636l13.71 10.426a.168.168 0 0 1-.132.298l-12.165-2.212a1.42 1.42 0 0 0-1.428.6l-9.322 13.78a.222.222 0 0 1-.404-.15zM510.375 416.326l-11.888-11.953a1.07 1.07 0 0 0-1.146-.245l-11.529 4.445a.226.226 0 0 1-.249-.362l11.364-12.63a3.15 3.15 0 0 1 1.543-.941l16.66-4.37a.168.168 0 0 1 .153.287l-9.24 8.217a1.42 1.42 0 0 0-.407 1.494l5.107 15.834a.222.222 0 0 1-.368.224zM377.92 385.467l10.36-13.3a1.07 1.07 0 0 0 .098-1.168l-5.862-10.876a.226.226 0 0 1 .328-.293l13.962 9.682a3.15 3.15 0 0 1 1.127 1.412l6.435 15.976a.168.168 0 0 1-.266.189l-9.316-8.131a1.42 1.42 0 0 0-1.533-.216l-15.065 7.062a.222.222 0 0 1-.269-.337zM450.81 212.436l1.792 16.762a1.07 1.07 0 0 0 .742.909l11.774 3.746a.226.226 0 0 1-.034.438l-16.768 2.742a3.15 3.15 0 0 1-1.792-.232l-15.73-7.016a.168.168 0 0 1 .06-.32l12.35-.628a1.42 1.42 0 0 0 1.251-.91l5.925-15.547a.222.222 0 0 1 .428.055zM459.012 96.302l1.793 16.762a1.07 1.07 0 0 0 .741.909l11.774 3.746a.226.226 0 0 1-.034.438l-16.768 2.742a3.15 3.15 0 0 1-1.792-.232l-15.73-7.016a.168.168 0 0 1 .06-.32l12.35-.628a1.42 1.42 0 0 0 1.252-.91l5.925-15.547a.222.222 0 0 1 .427.055zM526.013 322.047l-16.487 3.52a1.07 1.07 0 0 0-.827.83l-2.507 12.1a.226.226 0 0 1-.44.012l-4.462-16.393a3.15 3.15 0 0 1 .045-1.807l5.349-16.372a.168.168 0 0 1 .325.027l1.903 12.218a1.42 1.42 0 0 0 1.035 1.151l16.077 4.283a.222.222 0 0 1-.011.431zM543.797 240.98l-13.963 9.447a1.07 1.07 0 0 0-.455 1.08l2.214 12.156a.226.226 0 0 1-.402.177l-10.286-13.522a3.15 3.15 0 0 1-.636-1.692l-1.183-17.183a.168.168 0 0 1 .312-.098l6.347 10.613a1.42 1.42 0 0 0 1.391.679l16.51-2.06a.222.222 0 0 1 .15.404zM313.954 201.63l16.164 4.788a1.07 1.07 0 0 0 1.124-.336l7.984-9.43a.226.226 0 0 1 .392.2l-3.914 16.532a3.15 3.15 0 0 1-.903 1.566l-12.522 11.825a.168.168 0 0 1-.273-.178l4.167-11.642a1.42 1.42 0 0 0-.359-1.506l-12.075-11.446a.222.222 0 0 1 .215-.373z" style="fill:#a1b583;fill-opacity:.851796" transform="translate(-183.564 -33.437)"/></svg>