<svg width="203.252" height="352.237" viewBox="0 0 53.777 93.196" xmlns="http://www.w3.org/2000/svg">
    <path style="fill:#999;fill-opacity:1;stroke:#2e2e2e;stroke-width:2.1;stroke-linecap:round;stroke-linejoin:round;stroke-dasharray:none;stroke-opacity:1;stop-color:#000" d="M111.289 94.2h51.677v91.096h-51.677z" transform="translate(-110.24 -93.15)"/>
    <path style="fill:#513708;fill-opacity:1;stroke:#2e2e2e;stroke-width:2.14583;stroke-linecap:round;stroke-linejoin:round;stroke-dasharray:none;stroke-opacity:1;stop-color:#000" d="M118.489 101.6h37.343v77.075h-37.343z" transform="translate(-110.24 -93.15)"/>
    <g transform="translate(-110.24 -93.15)">
        <path style="fill:#0c5108;fill-opacity:1;stroke:#073005;stroke-width:1.5875;stroke-linecap:round;stroke-linejoin:round;stroke-dasharray:none;stroke-opacity:1" d="M145.584 110.667c-1.624.566-3.258.508-4.918 1.03-5.954 1.876-7.269 8.696-5.571 13.518.09.19.456.69.875.677 5.093.438 11.367-2.542 11.693-8.776.09-1.737-.374-3.305-.233-5.019.64-4.29 2.142-3.138-1.846-1.43z"/>
        <path style="fill:#0c5108;fill-opacity:1;stroke:#073005;stroke-width:1.5875;stroke-linecap:round;stroke-linejoin:round;stroke-dasharray:none;stroke-opacity:1" d="M123.636 111.634c.343 1.308.194 2.585.501 3.919 1.102 4.785 6.396 6.25 10.304 5.229.157-.059.572-.314.59-.643.666-3.962-1.286-9.068-6.18-9.722-1.364-.182-2.63.082-3.971-.138-3.342-.776-2.34-1.88-1.244 1.355zM123.48 128.646c.704-.988.988-2.107 1.67-3.128 2.446-3.665 7.32-3.211 10.245-1.11.111.098.376.444.285.726-.712 3.536-3.968 7.2-8.25 6.192-1.192-.28-2.161-.905-3.348-1.147-3.028-.412-2.547.833-.602-1.533z"/>
        <path style="fill:#0e5e09;fill-opacity:1;stroke:#073005;stroke-width:1.5875;stroke-linecap:round;stroke-linejoin:round;stroke-dasharray:none;stroke-opacity:1" d="M123.108 121.181c1.172 1.258 1.778 2.777 2.926 4.084 4.118 4.693 10.889 3.145 14.616-.354.139-.16.447-.695.267-1.073-1.654-4.837-6.91-9.376-12.746-7.16-1.627.617-2.874 1.675-4.5 2.237-4.183 1.145-3.735-.694-.563 2.266z"/>
        <path style="fill:#0e5e09;fill-opacity:1;stroke:#073005;stroke-width:1.5875;stroke-linecap:round;stroke-linejoin:round;stroke-dasharray:none;stroke-opacity:1" d="M146.54 133.717c-.018-1.372.436-2.595.459-3.984.083-4.983-4.715-7.701-8.765-7.633-.166.02-.633.17-.729.49-1.606 3.747-.939 9.251 3.666 11.073 1.283.508 2.579.551 3.832 1.091 3.064 1.568 1.822 2.415 1.537-1.037zM138.648 107.203c.501 1.105 1.326 1.913 1.866 3.015 1.94 3.957-.9 7.943-4.185 9.417-.142.047-.574.102-.771-.118-2.701-2.392-4.233-7.047-1.212-10.243.843-.891 1.869-1.415 2.674-2.32 1.877-2.412.56-2.62 1.628.25zM126.951 133.357c-.046-1.212-.504-2.272-.588-3.497-.3-4.396 3.836-7.012 7.436-7.135.148.01.57.123.669.4 1.596 3.236 1.254 8.126-2.752 9.942-1.116.506-2.264.603-3.352 1.136-2.65 1.523-1.509 2.215-1.413-.846z"/>
        <path style="fill:#0c5108;fill-opacity:1;stroke:#073005;stroke-width:1.5875;stroke-linecap:round;stroke-linejoin:round;stroke-dasharray:none;stroke-opacity:1" d="M151.367 121.207c-1.117-.762-1.843-1.823-2.95-2.627-3.974-2.886-8.929-.516-11.206 2.82-.08.148-.226.613-.023.872 2.099 3.427 6.924 5.996 11.044 3.277 1.149-.758 1.93-1.788 3.087-2.503 3.03-1.61 2.998-.118.048-1.839z"/>
        <path style="fill:#a50e0e;fill-opacity:1;stroke:#4b0707;stroke-width:1.5875;stroke-linecap:round;stroke-linejoin:round;stroke-dasharray:none;stroke-opacity:1" d="M129.526 111.182c-.06 1.104-.49 2.062-.583 3.176-.337 4 3.36 6.445 6.61 6.612.134-.008.516-.103.61-.355 1.49-2.922 1.254-7.38-2.337-9.095-1-.478-2.036-.585-3.011-1.087-2.37-1.427-1.33-2.04-1.289.75zM148.73 129.344c-1.16.249-2.105.867-3.271 1.153-4.184 1.027-7.384-2.506-8.095-5.943-.014-.144.024-.567.276-.71 2.853-2.077 7.618-2.57 10.026.972.671.988.954 2.074 1.646 3.03 1.902 2.289 2.38 1.076-.582 1.498z"/>
        <path style="fill:#a50e0e;fill-opacity:1;stroke:#4b0707;stroke-width:1.5875;stroke-linecap:round;stroke-linejoin:round;stroke-dasharray:none;stroke-opacity:1" d="M137.466 135.884c.691-1.096 1.683-1.83 2.416-2.919 2.628-3.904.189-8.53-3.087-10.564-.143-.069-.594-.19-.835.013-3.211 2.14-5.508 6.842-2.761 10.659.765 1.064 1.779 1.766 2.504 2.84 1.645 2.821.215 2.852 1.763-.029zM148.386 114.419c-1.315-.126-2.438-.69-3.764-.857-4.76-.6-7.861 3.735-8.22 7.64.002.163.098.628.394.753 3.417 1.937 8.752 1.87 10.977-2.373.62-1.183.797-2.425 1.444-3.575 1.82-2.786 2.501-1.502-.831-1.588z"/>
        <path style="fill:#a50e0e;fill-opacity:1;stroke:#4b0707;stroke-width:1.5875;stroke-linecap:round;stroke-linejoin:round;stroke-dasharray:none;stroke-opacity:1" d="M126.5 126.516c.97.223 1.752.75 2.726 1.004 3.493.913 6.228-1.966 6.875-4.802.014-.12-.012-.47-.221-.593-2.361-1.763-6.35-2.243-8.42.656-.578.808-.831 1.703-1.426 2.484-1.629 1.868-2.012.857.466 1.25z"/>
        <circle style="fill:#c3bf02;fill-opacity:1;stroke:#454401;stroke-width:.79375;stroke-linecap:round;stroke-linejoin:round;stroke-dasharray:none;stroke-opacity:1" cx="134.978" cy="121.401" r="1.763"/>
        <circle style="fill:#c3bf02;fill-opacity:1;stroke:#454401;stroke-width:.793753;stroke-linecap:round;stroke-linejoin:round;stroke-dasharray:none;stroke-opacity:1" cx="137.389" cy="124.592" r="1.35"/>
        <circle style="fill:#c3bf02;fill-opacity:1;stroke:#454401;stroke-width:.793754;stroke-linecap:round;stroke-linejoin:round;stroke-dasharray:none;stroke-opacity:1" cx="138.717" cy="121.432" r="1.023"/>
        <path style="fill:#0c5108;fill-opacity:1;stroke:#073005;stroke-width:1.5875;stroke-linecap:round;stroke-linejoin:round;stroke-dasharray:none;stroke-opacity:1" d="M128.672 168.83c1.624-.566 3.258-.508 4.918-1.03 5.954-1.876 7.269-8.696 5.571-13.518-.09-.191-.456-.69-.875-.678-5.093-.437-11.367 2.542-11.693 8.776-.091 1.738.374 3.306.233 5.02-.64 4.29-2.142 3.138 1.846 1.43z"/>
        <path style="fill:#0c5108;fill-opacity:1;stroke:#073005;stroke-width:1.5875;stroke-linecap:round;stroke-linejoin:round;stroke-dasharray:none;stroke-opacity:1" d="M150.62 167.863c-.343-1.309-.194-2.585-.501-3.919-1.103-4.785-6.396-6.251-10.304-5.229-.157.059-.573.313-.59.642-.666 3.963 1.286 9.069 6.18 9.723 1.364.182 2.63-.082 3.971.138 3.342.775 2.339 1.879 1.244-1.355zM150.776 150.85c-.704.989-.988 2.107-1.67 3.129-2.447 3.664-7.32 3.21-10.245 1.11-.112-.099-.376-.445-.285-.726.711-3.537 3.968-7.2 8.249-6.192 1.193.28 2.162.904 3.349 1.147 3.028.412 2.547-.833.602 1.532z"/>
        <path style="fill:#0e5e09;fill-opacity:1;stroke:#073005;stroke-width:1.5875;stroke-linecap:round;stroke-linejoin:round;stroke-dasharray:none;stroke-opacity:1" d="M151.148 158.316c-1.172-1.258-1.779-2.777-2.926-4.085-4.118-4.692-10.89-3.144-14.616.354-.139.16-.447.695-.268 1.074 1.654 4.837 6.911 9.376 12.747 7.16 1.627-.617 2.874-1.675 4.5-2.237 4.183-1.145 3.735.694.563-2.266z"/>
        <path style="fill:#0e5e09;fill-opacity:1;stroke:#073005;stroke-width:1.5875;stroke-linecap:round;stroke-linejoin:round;stroke-dasharray:none;stroke-opacity:1" d="M127.716 145.78c.017 1.372-.436 2.595-.459 3.984-.083 4.983 4.715 7.701 8.765 7.633.166-.02.633-.171.729-.491 1.605-3.747.939-9.25-3.666-11.072-1.284-.508-2.579-.552-3.832-1.091-3.064-1.568-1.822-2.415-1.537 1.037zM135.608 172.293c-.501-1.105-1.326-1.912-1.867-3.015-1.94-3.956.9-7.942 4.186-9.417.142-.046.574-.102.771.118 2.701 2.392 4.233 7.048 1.211 10.244-.842.89-1.868 1.415-2.673 2.32-1.878 2.411-.56 2.62-1.628-.25zM147.305 146.14c.046 1.212.504 2.271.588 3.497.3 4.395-3.836 7.012-7.436 7.135-.148-.01-.57-.123-.669-.401-1.596-3.236-1.254-8.125 2.752-9.941 1.116-.507 2.264-.604 3.352-1.137 2.65-1.523 1.509-2.214 1.413.846z"/>
        <path style="fill:#0c5108;fill-opacity:1;stroke:#073005;stroke-width:1.5875;stroke-linecap:round;stroke-linejoin:round;stroke-dasharray:none;stroke-opacity:1" d="M122.889 158.29c1.117.761 1.843 1.822 2.95 2.626 3.973 2.886 8.929.517 11.206-2.82.08-.147.226-.612.023-.871-2.099-3.427-6.924-5.997-11.044-3.277-1.149.758-1.93 1.788-3.087 2.503-3.03 1.609-2.998.118-.048 1.839z"/>
        <path style="fill:#a50e0e;fill-opacity:1;stroke:#4b0707;stroke-width:1.5875;stroke-linecap:round;stroke-linejoin:round;stroke-dasharray:none;stroke-opacity:1" d="M144.73 168.314c.06-1.103.49-2.061.583-3.176.337-3.999-3.36-6.445-6.61-6.612-.134.008-.516.103-.61.355-1.49 2.922-1.254 7.38 2.337 9.096 1 .478 2.036.584 3.01 1.086 2.372 1.428 1.33 2.04 1.29-.749zM125.526 150.152c1.16-.248 2.105-.866 3.271-1.152 4.184-1.027 7.384 2.506 8.095 5.942.014.145-.025.568-.276.71-2.853 2.077-7.618 2.57-10.026-.972-.671-.987-.954-2.073-1.646-3.029-1.902-2.289-2.38-1.076.582-1.499z"/>
        <path style="fill:#a50e0e;fill-opacity:1;stroke:#4b0707;stroke-width:1.5875;stroke-linecap:round;stroke-linejoin:round;stroke-dasharray:none;stroke-opacity:1" d="M136.79 143.613c-.692 1.096-1.683 1.83-2.416 2.919-2.629 3.903-.189 8.53 3.086 10.564.144.069.594.19.836-.014 3.211-2.14 5.508-6.842 2.761-10.658-.765-1.064-1.779-1.767-2.504-2.84-1.645-2.822-.216-2.852-1.763.029zM125.87 165.078c1.315.126 2.438.69 3.764.857 4.759.6 7.861-3.735 8.22-7.641-.002-.162-.098-.627-.394-.753-3.417-1.936-8.752-1.869-10.977 2.374-.62 1.182-.797 2.424-1.444 3.574-1.821 2.787-2.502 1.502.831 1.589z"/>
        <path style="fill:#a50e0e;fill-opacity:1;stroke:#4b0707;stroke-width:1.5875;stroke-linecap:round;stroke-linejoin:round;stroke-dasharray:none;stroke-opacity:1" d="M147.755 152.98c-.969-.222-1.751-.749-2.725-1.003-3.493-.913-6.228 1.966-6.875 4.802-.014.12.012.47.22.592 2.362 1.763 6.35 2.243 8.422-.655.577-.808.83-1.704 1.425-2.485 1.629-1.868 2.012-.856-.467-1.25z"/>
        <circle style="fill:#c3bf02;fill-opacity:1;stroke:#454401;stroke-width:.79375;stroke-linecap:round;stroke-linejoin:round;stroke-dasharray:none;stroke-opacity:1" cx="-139.277" cy="-158.095" r="1.763" transform="scale(-1)"/>
        <circle style="fill:#c3bf02;fill-opacity:1;stroke:#454401;stroke-width:.793753;stroke-linecap:round;stroke-linejoin:round;stroke-dasharray:none;stroke-opacity:1" cx="-136.867" cy="-154.905" r="1.35" transform="scale(-1)"/>
        <circle style="fill:#c3bf02;fill-opacity:1;stroke:#454401;stroke-width:.793754;stroke-linecap:round;stroke-linejoin:round;stroke-dasharray:none;stroke-opacity:1" cx="-135.539" cy="-158.065" r="1.023" transform="scale(-1)"/>
    </g>
</svg>
