<?xml version="1.0" encoding="UTF-8" standalone="no"?>
<!-- Created with Inkscape (http://www.inkscape.org/) -->

<svg
   width="185"
   height="185"
   viewBox="0 0 48.947917 48.947917"
   version="1.1"
   id="svg5"
   inkscape:version="1.3 (0e150ed, 2023-07-21)"
   sodipodi:docname="regular_crate_snow_1.svg"
   inkscape:export-filename="drawing.png"
   inkscape:export-xdpi="96"
   inkscape:export-ydpi="96"
   xmlns:inkscape="http://www.inkscape.org/namespaces/inkscape"
   xmlns:sodipodi="http://sodipodi.sourceforge.net/DTD/sodipodi-0.dtd"
   xmlns="http://www.w3.org/2000/svg"
   xmlns:svg="http://www.w3.org/2000/svg">
  <sodipodi:namedview
     id="namedview7"
     pagecolor="#505050"
     bordercolor="#000000"
     borderopacity="0.25"
     inkscape:showpageshadow="2"
     inkscape:pageopacity="0"
     inkscape:pagecheckerboard="true"
     inkscape:deskcolor="#d1d1d1"
     inkscape:document-units="px"
     showgrid="false"
     inkscape:zoom="2.828427"
     inkscape:cx="69.119691"
     inkscape:cy="81.847614"
     inkscape:window-width="1440"
     inkscape:window-height="900"
     inkscape:window-x="0"
     inkscape:window-y="0"
     inkscape:window-maximized="0"
     inkscape:current-layer="g865"
     inkscape:pageshadow="0"
     showguides="false"
     units="px" />
  <defs
     id="defs2">
    <inkscape:path-effect
       effect="spiro"
       id="path-effect69"
       is_visible="true"
       lpeversion="1" />
    <inkscape:path-effect
       effect="spiro"
       id="path-effect71"
       is_visible="true"
       lpeversion="1" />
    <inkscape:path-effect
       effect="spiro"
       id="path-effect77"
       is_visible="true"
       lpeversion="1" />
    <inkscape:path-effect
       effect="spiro"
       id="path-effect5-3-3-0"
       is_visible="true"
       lpeversion="1" />
    <inkscape:path-effect
       effect="spiro"
       id="path-effect7-2-9-5"
       is_visible="true"
       lpeversion="1" />
    <inkscape:path-effect
       effect="spiro"
       id="path-effect4-1-7-1"
       is_visible="true"
       lpeversion="1" />
    <inkscape:path-effect
       effect="spiro"
       id="path-effect8-2-2-1"
       is_visible="true"
       lpeversion="1" />
  </defs>
  <g
     inkscape:label="Layer 1"
     inkscape:groupmode="layer"
     id="layer1">
    <g
       id="g865"
       transform="matrix(1.9616501,0,0,1.9616501,4.1209673e-4,4.1209673e-4)">
      <g
         id="g52639">
        <rect
           style="fill:#674b24;fill-opacity:1;stroke:none;stroke-width:0.798207;stroke-linecap:butt;stroke-linejoin:miter;stroke-miterlimit:4;stroke-dasharray:none;stroke-opacity:1"
           id="rect52605"
           width="16.9"
           height="16.9"
           x="4"
           y="4" />
        <path
           style="fill:none;stroke:#342612;stroke-width:1;stroke-linecap:butt;stroke-linejoin:miter;stroke-miterlimit:4;stroke-dasharray:none;stroke-opacity:1"
           d="m 8.2434724,4.041 v 16.87"
           id="path52607" />
        <path
           style="fill:none;stroke:#342612;stroke-width:1;stroke-linecap:butt;stroke-linejoin:miter;stroke-miterlimit:4;stroke-dasharray:none;stroke-opacity:1"
           d="m 17.06076,4.041 v 16.87"
           id="path52609" />
        <path
           style="fill:none;stroke:#342612;stroke-width:1;stroke-linecap:butt;stroke-linejoin:miter;stroke-miterlimit:4;stroke-dasharray:none;stroke-opacity:1"
           d="m 12.652117,4.041 v 16.87"
           id="path52611" />
        <rect
           style="fill:#9e7437;fill-opacity:1;stroke:#3f2e16;stroke-width:1;stroke-linecap:butt;stroke-linejoin:bevel;stroke-miterlimit:4;stroke-dasharray:none;stroke-opacity:1"
           id="rect52613"
           width="29.332001"
           height="4"
           x="-14.931466"
           y="15.643632"
           transform="matrix(-0.70710372,0.70710984,0.70710372,0.70710984,0,0)" />
        <path
           id="path52615"
           style="fill:#9e7437;stroke-width:0;stroke-linecap:round"
           d="M 0.49998583,0.49998698 V 24.452013 H 24.452014 V 0.49998698 Z M 4.5410828,4.541084 H 20.410916 V 20.410916 H 4.5410828 Z" />
        <rect
           style="fill:none;fill-opacity:1;stroke:none;stroke-width:1;stroke-linecap:butt;stroke-linejoin:bevel;stroke-miterlimit:4;stroke-dasharray:none;stroke-opacity:1"
           id="rect52617"
           width="16.9"
           height="16.9"
           x="4"
           y="4" />
        <circle
           style="fill:#808080;fill-opacity:1;stroke:#2e2e2e;stroke-width:0.499999;stroke-linecap:round;stroke-linejoin:round;stroke-opacity:1"
           id="circle52619"
           cx="2.576957"
           cy="2.576957"
           r="0.82695758" />
        <circle
           style="fill:#808080;fill-opacity:1;stroke:#2e2e2e;stroke-width:0.499999;stroke-linecap:round;stroke-linejoin:round;stroke-opacity:1"
           id="circle52621"
           cx="22.374956"
           cy="2.576957"
           r="0.82695758" />
        <circle
           style="fill:#808080;fill-opacity:1;stroke:#2e2e2e;stroke-width:0.499999;stroke-linecap:round;stroke-linejoin:round;stroke-opacity:1"
           id="circle52623"
           cx="2.576957"
           cy="22.374956"
           r="0.82695758" />
        <circle
           style="fill:#808080;fill-opacity:1;stroke:#2e2e2e;stroke-width:0.499999;stroke-linecap:round;stroke-linejoin:round;stroke-opacity:1"
           id="circle52625"
           cx="22.374956"
           cy="22.374956"
           r="0.82695758" />
        <rect
           style="fill:none;fill-opacity:1;stroke:#3f2e16;stroke-width:1;stroke-linecap:butt;stroke-linejoin:miter;stroke-miterlimit:4;stroke-dasharray:none;stroke-opacity:1"
           id="rect52627"
           width="15.870146"
           height="15.870145"
           x="4.540925"
           y="4.5409274" />
        <rect
           style="fill:none;fill-opacity:1;stroke:#3f2e16;stroke-width:1;stroke-linecap:round;stroke-linejoin:round;stroke-miterlimit:4;stroke-dasharray:none;stroke-opacity:1"
           id="rect52629"
           width="23.952419"
           height="23.952419"
           x="0.49978992"
           y="0.49978992" />
        <path
           style="fill:none;stroke:#3f2e16;stroke-width:1;stroke-linecap:butt;stroke-linejoin:miter;stroke-miterlimit:4;stroke-dasharray:none;stroke-opacity:1"
           d="m 20.411072,4.5409274 h 4"
           id="path52631" />
        <path
           style="fill:none;stroke:#3f2e16;stroke-width:1;stroke-linecap:butt;stroke-linejoin:miter;stroke-miterlimit:4;stroke-dasharray:none;stroke-opacity:1"
           d="m 20.411072,20.411072 h 4"
           id="path52633" />
        <path
           style="fill:none;stroke:#3f2e16;stroke-width:1;stroke-linecap:butt;stroke-linejoin:miter;stroke-miterlimit:4;stroke-dasharray:none;stroke-opacity:1"
           d="M 0.54092503,20.411072 H 4.540925"
           id="path52635" />
        <path
           style="fill:none;stroke:#3f2e16;stroke-width:1;stroke-linecap:butt;stroke-linejoin:miter;stroke-miterlimit:4;stroke-dasharray:none;stroke-opacity:1"
           d="M 0.54092503,4.5409274 H 4.540925"
           id="path52637" />
      </g>
      <path
         style="fill:#c9d1d9;fill-opacity:1;stroke:#a2a5c0;stroke-width:1.96162;stroke-dasharray:none;stroke-opacity:1"
         d="m 557.56998,235.96374 c -0.62354,0.17136 -1.26102,0.30631 -1.90725,0.3298 -0.64623,0.0235 -1.30409,-0.068 -1.89378,-0.33341 -0.58968,-0.2654 -1.1076,-0.71339 -1.39544,-1.29245 -0.14391,-0.28954 -0.22921,-0.60908 -0.23979,-0.93223 -0.0106,-0.32316 0.0543,-0.64958 0.19572,-0.94034 0.20411,-0.41969 0.55722,-0.74988 0.93987,-1.01704 0.38266,-0.26717 0.80011,-0.48027 1.19378,-0.73091 0.56281,-0.35833 1.07514,-0.79216 1.64324,-1.14205 0.5681,-0.3499 1.21425,-0.61812 1.88099,-0.59322 0.61915,0.0231 1.21557,0.30459 1.66577,0.73027 0.4502,0.42569 0.75911,0.98816 0.93103,1.58342 0.13491,0.46713 0.18865,0.96001 0.13286,1.44302 -0.0558,0.48301 -0.22307,0.95571 -0.50383,1.35268 -0.3006,0.42502 -0.72305,0.75375 -1.18298,0.9976 -0.45993,0.24386 -0.95822,0.40691 -1.46019,0.54486 z"
         id="path5-3-7-0"
         inkscape:path-effect="#path-effect5-3-3-0"
         inkscape:original-d="m 557.56998,235.96374 c -0.88106,0.51415 -4.23582,-2.52593 -5.24054,-3.16863 -1.00471,-0.64269 2.16456,-0.75178 2.13365,-1.74795 -0.0309,-0.99618 2.3804,-1.14078 3.52423,-1.73527 1.14383,-0.59449 1.70029,1.54246 2.5968,2.31369 0.89652,0.77123 -0.24731,1.84773 -0.37097,2.7957 -0.12366,0.94797 -1.76211,1.02831 -2.64317,1.54246 z"
         sodipodi:nodetypes="sssssss"
         transform="matrix(0.50977492,0,0,0.50977492,-270.05122,-106.24751)" />
      <path
         style="fill:#c9d1d9;fill-opacity:1;stroke:#a2a5c0;stroke-width:1.9616208;stroke-dasharray:none;stroke-opacity:1"
         d="m 552.13526,250.56674 c -0.60997,0.23526 -1.22732,0.45142 -1.85082,0.64804 -0.86837,0.27384 -1.75461,0.51086 -2.66201,0.58617 -0.9074,0.0753 -1.84205,-0.0172 -2.67683,-0.38081 -0.83478,-0.36358 -1.56229,-1.01567 -1.91312,-1.85588 -0.17541,-0.42011 -0.25467,-0.88189 -0.21453,-1.33537 0.0401,-0.45349 0.20121,-0.89765 0.47303,-1.26285 0.24824,-0.33352 0.57967,-0.59361 0.89293,-0.86698 0.31325,-0.27337 0.61886,-0.57347 0.79004,-0.95236 0.17036,-0.37709 0.19417,-0.80776 0.13401,-1.21715 -0.0602,-0.4094 -0.20011,-0.8024 -0.3472,-1.18917 -0.14708,-0.38676 -0.30268,-0.77223 -0.3963,-1.17529 -0.0936,-0.40306 -0.12319,-0.82895 -0.0169,-1.22887 0.10704,-0.40289 0.35095,-0.76493 0.67128,-1.03169 0.32034,-0.26676 0.71459,-0.43964 1.12452,-0.51533 0.81987,-0.15139 1.6756,0.0848 2.39653,0.5035 1.44187,0.8375 2.37303,2.32835 3.66468,3.38288 0.40526,0.33086 0.8449,0.61766 1.25087,0.94765 0.40596,0.32999 0.78343,0.71103 1.01916,1.17808 0.21292,0.42187 0.30162,0.90046 0.2921,1.37292 -0.01,0.47247 -0.11471,0.93961 -0.2725,1.38505 -0.43298,1.2223 -1.27492,2.29574 -2.35887,3.00746 z"
         id="path6-0-8-9"
         inkscape:path-effect="#path-effect7-2-9-5"
         inkscape:original-d="m 552.13526,250.56674 c -0.2569,0.32753 -1.01437,0.52519 -1.85082,0.64804 -1.72366,0.25315 -8.24435,-4.65925 -6.99346,-4.24874 6.36177,2.08777 4.49145,-8.55786 1.68297,-1.81934 -1.35358,3.24772 -0.94994,-3.3239 -0.62643,-4.81048 0.32352,-1.48657 5.26999,2.61954 7.85701,2.33936 2.58702,-0.28018 1.42921,1.32914 2.27003,2.12573 0.84081,0.79659 0.0131,1.83865 0.0196,2.75797 0.007,0.91931 -1.57258,2.00497 -2.35887,3.00746 z"
         sodipodi:nodetypes="sssssssss"
         transform="matrix(0.50977492,0,0,0.50977492,-271.95868,-106.53363)" />
      <path
         style="fill:#c9d1d9;fill-opacity:1;stroke:#a2a5c0;stroke-width:1.9616208;stroke-dasharray:none;stroke-opacity:1"
         d="m 537.33511,213.18274 c -0.93916,1.05705 -1.48195,2.41478 -1.79513,3.79366 -0.31319,1.37887 -0.41313,2.79555 -0.57318,4.20046 -0.13669,1.19984 -0.31795,2.39675 -0.36202,3.60354 -0.0441,1.2068 0.0532,2.43411 0.45862,3.57163 0.47434,1.331 1.36583,2.50076 2.48641,3.36149 1.12058,0.86074 2.46389,1.41648 3.85545,1.66171 2.78311,0.49047 5.6821,-0.26058 8.15129,-1.63513 1.68672,-0.93897 3.19963,-2.1552 4.78642,-3.25465 1.58678,-1.09945 3.2886,-2.09981 5.17195,-2.52371 1.5703,-0.35344 3.19908,-0.29171 4.80847,-0.3169 1.60938,-0.0252 3.26203,-0.15031 4.71694,-0.83877 1.92957,-0.91307 3.3459,-2.82627 3.67727,-4.93509 0.33138,-2.10882 -0.42315,-4.35459 -1.94538,-5.85117 -1.51642,-1.49086 -3.63387,-2.18997 -5.71142,-2.64385 -5.85953,-1.28012 -11.92933,-0.9778 -17.92698,-0.94735 -1.75102,0.009 -3.51691,-0.005 -5.23258,0.34564 -1.71568,0.3502 -3.4031,1.09947 -4.56613,2.40849 z"
         id="path4-7-6-7"
         inkscape:path-effect="#path-effect4-1-7-1"
         inkscape:original-d="m 537.33511,213.18274 c -2.91192,1.25006 -3.36707,2.01781 -2.36831,7.99412 0.32312,1.93344 -0.90104,4.60537 0.0966,7.17517 1.7226,4.43721 8.72018,2.2324 14.49315,3.38807 5.77297,1.15567 6.63892,-3.85224 9.95837,-5.77836 3.31946,-1.92612 6.20595,-0.89885 9.52541,-1.15567 3.31946,-0.25681 1.15459,-7.06243 1.73189,-10.78626 0.57729,-3.72383 -4.12385,0.56634 -5.71142,-2.64385 -1.58757,-3.2102 -14.85464,-6.7502 -17.92698,-0.94735 -12.7581,24.09671 2.91992,-2.7059 -9.79871,2.75413 z"
         sodipodi:nodetypes="ssssssssss"
         transform="matrix(0.50977492,0,0,0.50977492,-271.95868,-106.53363)" />
      <path
         style="fill:#c9d1d9;fill-opacity:1;stroke:#a2a5c0;stroke-width:1.9616208;stroke-dasharray:none;stroke-opacity:1"
         d="m 568.38432,254.40864 c -1.97896,-1.52233 -3.64743,-3.54783 -4.35472,-5.94231 -0.47467,-1.60695 -0.4985,-3.34734 -0.048,-4.96124 0.45046,-1.61391 1.37628,-3.09499 2.64332,-4.19144 1.26705,-1.09644 2.87202,-1.80145 4.53887,-1.97239 1.66684,-0.17094 3.38771,0.19625 4.82931,1.05028 1.20133,0.71169 2.19469,1.74326 2.96833,2.90566 0.77364,1.1624 1.33512,2.45495 1.78001,3.77849 0.41799,1.24351 0.73759,2.52779 0.82765,3.83657 0.0901,1.30878 -0.0554,2.64621 -0.54009,3.86528 -0.45165,1.13605 -1.20296,2.16079 -2.19064,2.88126 -1.52181,1.11009 -3.52929,1.43527 -5.38653,1.12086 -1.85724,-0.31441 -3.57444,-1.22251 -5.06746,-2.37102 z"
         id="path7-1-0-3"
         inkscape:path-effect="#path-effect8-2-2-1"
         inkscape:original-d="m 568.38432,254.40864 c -3.48466,-0.41672 -2.90315,-3.96154 -4.35472,-5.94231 -1.45158,-1.98078 9.6437,-8.04566 11.96345,-10.07479 2.31976,-2.02911 1.23401,5.62186 4.74834,6.68415 3.51433,1.0623 -0.65819,6.11447 0.28756,7.70185 0.94576,1.58738 -0.34703,1.10432 -2.19064,2.88126 -1.84361,1.77695 -6.96932,-0.83343 -10.45399,-1.25016 z"
         sodipodi:nodetypes="sssssss"
         transform="matrix(0.50977492,0,0,0.50977492,-272.34017,-106.91512)" />
    </g>
  </g>
</svg>
