<?xml version="1.0" encoding="UTF-8" standalone="no"?>
<!-- Created with Inkscape (http://www.inkscape.org/) -->

<svg
   width="185"
   height="185"
   viewBox="0 0 48.947917 48.947917"
   version="1.1"
   id="svg5"
   inkscape:version="1.3 (0e150ed, 2023-07-21)"
   sodipodi:docname="regular_crate_snow_3.svg"
   inkscape:export-filename="drawing.png"
   inkscape:export-xdpi="96"
   inkscape:export-ydpi="96"
   xmlns:inkscape="http://www.inkscape.org/namespaces/inkscape"
   xmlns:sodipodi="http://sodipodi.sourceforge.net/DTD/sodipodi-0.dtd"
   xmlns="http://www.w3.org/2000/svg"
   xmlns:svg="http://www.w3.org/2000/svg">
  <sodipodi:namedview
     id="namedview7"
     pagecolor="#505050"
     bordercolor="#000000"
     borderopacity="0.25"
     inkscape:showpageshadow="2"
     inkscape:pageopacity="0"
     inkscape:pagecheckerboard="true"
     inkscape:deskcolor="#d1d1d1"
     inkscape:document-units="px"
     showgrid="false"
     inkscape:zoom="2.828427"
     inkscape:cx="80.4334"
     inkscape:cy="79.195963"
     inkscape:window-width="1440"
     inkscape:window-height="759"
     inkscape:window-x="0"
     inkscape:window-y="25"
     inkscape:window-maximized="0"
     inkscape:current-layer="g865"
     inkscape:pageshadow="0"
     showguides="false"
     units="px" />
  <defs
     id="defs2">
    <inkscape:path-effect
       effect="spiro"
       id="path-effect69"
       is_visible="true"
       lpeversion="1" />
    <inkscape:path-effect
       effect="spiro"
       id="path-effect71"
       is_visible="true"
       lpeversion="1" />
    <inkscape:path-effect
       effect="spiro"
       id="path-effect77"
       is_visible="true"
       lpeversion="1" />
  </defs>
  <g
     inkscape:label="Layer 1"
     inkscape:groupmode="layer"
     id="layer1">
    <g
       id="g865"
       transform="matrix(1.9616501,0,0,1.9616501,4.1209673e-4,4.1209673e-4)">
      <rect
         style="fill:#674b24;fill-opacity:1;stroke:none;stroke-width:0.798207;stroke-linecap:butt;stroke-linejoin:miter;stroke-miterlimit:4;stroke-dasharray:none;stroke-opacity:1"
         id="rect4220"
         width="16.9"
         height="16.9"
         x="4"
         y="4" />
      <path
         style="fill:none;stroke:#342612;stroke-width:1;stroke-linecap:butt;stroke-linejoin:miter;stroke-miterlimit:4;stroke-dasharray:none;stroke-opacity:1"
         d="m 8.2434724,4.041 v 16.87"
         id="path869" />
      <path
         style="fill:none;stroke:#342612;stroke-width:1;stroke-linecap:butt;stroke-linejoin:miter;stroke-miterlimit:4;stroke-dasharray:none;stroke-opacity:1"
         d="m 17.06076,4.041 v 16.87"
         id="path869-6" />
      <path
         style="fill:none;stroke:#342612;stroke-width:1;stroke-linecap:butt;stroke-linejoin:miter;stroke-miterlimit:4;stroke-dasharray:none;stroke-opacity:1"
         d="m 12.652117,4.041 v 16.87"
         id="path869-3" />
      <rect
         style="fill:#9e7437;fill-opacity:1;stroke:#3f2e16;stroke-width:1;stroke-linecap:butt;stroke-linejoin:bevel;stroke-miterlimit:4;stroke-dasharray:none;stroke-opacity:1"
         id="rect2196"
         width="29.332001"
         height="4"
         x="-14.931466"
         y="15.643632"
         transform="matrix(-0.70710372,0.70710984,0.70710372,0.70710984,0,0)" />
      <path
         id="rect938"
         style="fill:#9e7437;stroke-width:0;stroke-linecap:round"
         d="M 0.49998583,0.49998698 V 24.452013 H 24.452014 V 0.49998698 Z M 4.5410828,4.541084 H 20.410916 V 20.410916 H 4.5410828 Z" />
      <rect
         style="fill:none;fill-opacity:1;stroke:none;stroke-width:1;stroke-linecap:butt;stroke-linejoin:bevel;stroke-miterlimit:4;stroke-dasharray:none;stroke-opacity:1"
         id="rect2620"
         width="16.9"
         height="16.9"
         x="4"
         y="4" />
      <circle
         style="fill:#808080;fill-opacity:1;stroke:#2e2e2e;stroke-width:0.499999;stroke-linecap:round;stroke-linejoin:round;stroke-opacity:1"
         id="path851"
         cx="2.576957"
         cy="2.576957"
         r="0.82695758" />
      <circle
         style="fill:#808080;fill-opacity:1;stroke:#2e2e2e;stroke-width:0.499999;stroke-linecap:round;stroke-linejoin:round;stroke-opacity:1"
         id="path851-3"
         cx="22.374956"
         cy="2.576957"
         r="0.82695758" />
      <circle
         style="fill:#808080;fill-opacity:1;stroke:#2e2e2e;stroke-width:0.499999;stroke-linecap:round;stroke-linejoin:round;stroke-opacity:1"
         id="path851-6"
         cx="2.576957"
         cy="22.374956"
         r="0.82695758" />
      <circle
         style="fill:#808080;fill-opacity:1;stroke:#2e2e2e;stroke-width:0.499999;stroke-linecap:round;stroke-linejoin:round;stroke-opacity:1"
         id="path851-7"
         cx="22.374956"
         cy="22.374956"
         r="0.82695758" />
      <rect
         style="fill:none;fill-opacity:1;stroke:#3f2e16;stroke-width:1;stroke-linecap:butt;stroke-linejoin:miter;stroke-miterlimit:4;stroke-dasharray:none;stroke-opacity:1"
         id="rect3681-5"
         width="15.870146"
         height="15.870145"
         x="4.540925"
         y="4.5409274" />
      <path
         style="fill:none;stroke:#3f2e16;stroke-width:1;stroke-linecap:butt;stroke-linejoin:miter;stroke-miterlimit:4;stroke-dasharray:none;stroke-opacity:1"
         d="m 20.411072,4.5409274 h 4"
         id="path5886" />
      <path
         style="fill:none;stroke:#3f2e16;stroke-width:1;stroke-linecap:butt;stroke-linejoin:miter;stroke-miterlimit:4;stroke-dasharray:none;stroke-opacity:1"
         d="m 20.411072,20.411072 h 4"
         id="path5886-3" />
      <path
         style="fill:none;stroke:#3f2e16;stroke-width:1;stroke-linecap:butt;stroke-linejoin:miter;stroke-miterlimit:4;stroke-dasharray:none;stroke-opacity:1"
         d="M 0.54092503,20.411072 H 4.540925"
         id="path5886-6" />
      <path
         style="fill:none;stroke:#3f2e16;stroke-width:1;stroke-linecap:butt;stroke-linejoin:miter;stroke-miterlimit:4;stroke-dasharray:none;stroke-opacity:1"
         d="M 0.54092503,4.5409274 H 4.540925"
         id="path5886-7" />
      <path
         style="fill:#c9d1d9;fill-opacity:1;fill-rule:evenodd;stroke:#515877;stroke-width:1.0027;stroke-dasharray:none;stroke-opacity:1"
         d="m 110.06667,158.08854 v 0"
         id="path71"
         transform="matrix(-0.45805732,-0.21858529,0.21741011,-0.4605333,16.67978,110.51696)"
         inkscape:original-d="m 110.06667,158.08854 c 0,0 0,0 0,0"
         inkscape:path-effect="#path-effect71"
         clip-path="url(#clipPath167)" />
      <path
         id="path1"
         style="fill:#9e7437;stroke-width:0;stroke-linecap:round"
         d="M 4.0005543,0.50005012 C 3.08969,0.80374334 2.3069454,1.4540226 1.7210643,2.225276 1.1603391,2.9634142 0.7479739,3.8597846 0.78192395,4.787957 0.80187935,5.3335248 0.97845802,5.8724183 1.2850819,6.3229839 1.5917058,6.7735495 2.0273066,7.1342971 2.5258536,7.3506379 3.5503212,8.1669763 4.9272482,8.5193153 6.2152396,8.2947836 6.7085201,8.2087914 7.1903949,8.042592 7.6907306,8.0250277 8.1073622,8.0104018 8.5196565,8.0996715 8.9315023,8.1646474 9.3433481,8.2296233 9.7702316,8.2697831 10.172537,8.1599056 10.522381,8.0643566 10.84151,7.8535006 11.061099,7.5634922 11.280687,7.2734838 11.398305,6.9053926 11.380117,6.5413703 11.359638,6.1314984 11.173762,5.7462918 10.939919,5.4099234 10.706076,5.0735551 10.422621,4.7751064 10.172537,4.4507621 9.5793783,3.6814677 9.1783577,2.7741694 8.5626954,2.0229591 8.0580236,1.4071756 7.4096407,0.90499551 6.6728236,0.60858471 6.5722589,0.56812902 6.4696928,0.53251626 6.366187,0.50005012 Z" />
      <rect
         style="fill:none;fill-opacity:1;stroke:#3f2e16;stroke-width:1;stroke-linecap:round;stroke-linejoin:round;stroke-miterlimit:4;stroke-dasharray:none;stroke-opacity:1"
         id="rect2330"
         width="23.952419"
         height="23.952419"
         x="0.49978992"
         y="0.49978992" />
      <path
         id="path67"
         clip-path="none"
         style="fill:#c9d1d9;fill-opacity:1;fill-rule:evenodd;stroke:#a2a5c0;stroke-width:0.99998509;stroke-dasharray:none;stroke-opacity:1"
         inkscape:label="path67"
         inkscape:transform-center-x="1.030964"
         inkscape:transform-center-y="0.25116049"
         d="m 21.256897,8.1672378 c -1.092354,-0.020027 -2.132776,0.3578123 -3.028168,0.9646939 -0.434553,0.2945328 -0.86177,0.3198119 -1.190841,0.7558408 -0.329062,0.4360525 -0.579656,0.9604665 -0.684664,1.5458285 -0.12647,0.704984 -0.03442,1.48683 0.251054,2.18597 0.285463,0.699144 0.761656,1.312157 1.332973,1.726543 0.850109,0.616605 1.846381,0.7735 2.768946,1.184135 0.836053,0.372125 1.733935,0.293991 2.410534,-0.142001 0.660201,-0.425428 0.948289,-1.313717 1.098057,-2.08471 0.316463,-1.629119 -0.502313,-4.9533122 -0.502313,-4.9533122 -0.11341,-1.1183337 -1.450008,-1.1645509 -2.455578,-1.182988 z"
         sodipodi:nodetypes="sssscssaass" />
      <path
         style="fill:#c9d1d9;fill-opacity:1;fill-rule:evenodd;stroke:#a2a5c0;stroke-width:1.96692;stroke-dasharray:none;stroke-opacity:1"
         d="m 62.044791,156.23646 c -0.983262,-0.42439 -1.842312,-1.13209 -2.447053,-2.01595 -0.60474,-0.88385 -0.953173,-1.94093 -0.99253,-3.01114 -0.06696,-1.82075 0.74619,-3.57911 1.852083,-5.02708 1.295601,-1.69636 3.078434,-3.09659 5.159375,-3.57188 1.525906,-0.34852 3.153659,-0.18073 4.60685,0.40072 1.453192,0.58146 2.732183,1.56633 3.727525,2.77428 1.214243,1.47361 2.005139,3.25341 3.175,4.7625 0.493228,0.63625 1.051854,1.2217 1.513051,1.88154 0.461198,0.65983 0.827809,1.41548 0.868199,2.21951 0.03587,0.71409 -0.196138,1.43601 -0.629222,2.0049 -0.433084,0.5689 -1.062048,0.98267 -1.752028,1.1701 -0.79345,0.21554 -1.635533,0.1365 -2.447798,0.009 -0.812265,-0.12746 -1.62529,-0.30232 -2.446994,-0.27363 -0.98679,0.0345 -1.937542,0.36048 -2.910417,0.52917 -2.540248,0.44045 -5.255529,-0.25071 -7.276041,-1.85208 z"
         id="path68"
         inkscape:original-d="m 62.044791,156.23646 c -2.248958,-0.44098 -2.248958,-3.3073 -3.439583,-5.02709 -1.190625,-1.71979 1.322916,-3.39548 1.852083,-5.02708 0.529167,-1.6316 3.35139,-2.33715 5.159375,-3.57188 1.807985,-1.23472 5.55625,2.20487 8.334375,3.175 2.778125,0.97014 2.116666,3.175 3.175,4.7625 1.058333,1.5875 1.499306,2.68993 2.38125,4.10105 0.881943,1.41111 -1.5875,2.07256 -2.38125,3.175 -0.79375,1.10243 -3.219098,-0.0882 -4.894792,-0.26459 -1.675693,-0.17639 -1.896181,0.26459 -2.910417,0.52917 -1.014235,0.26458 -4.762499,-1.14653 -7.276041,-1.85208 z"
         inkscape:path-effect="#path-effect69"
         clip-path="none"
         transform="matrix(0.50703418,0,0,0.5097749,-28.599089,-71.627172)" />
      <path
         id="path70"
         clip-path="none"
         style="fill:#c9d1d9;fill-opacity:1;fill-rule:evenodd;stroke:#a2a5c0;stroke-width:0.99998509;stroke-dasharray:none;stroke-opacity:1"
         d="m 3.383516,15.590998 c -0.036206,-0.0015 -0.072515,-8.03e-4 -0.1085344,0.0024 -0.1441094,0.01276 -0.2839819,0.06169 -0.409902,0.133297 -0.2518494,0.143201 -0.4443612,0.371711 -0.6127498,0.608268 -0.5940342,0.834515 -0.9549156,1.844996 -0.9649553,2.871159 -0.013898,1.42003 0.6522805,2.804333 1.6738555,3.785017 1.511249,1.298406 4.9125117,1.638941 6.3187166,0.810055 0.8771944,-0.58882 1.1971064,-2.093876 1.2004674,-2.933333 C 10.470814,19.864309 10.101781,18.86782 9.4559193,18.102603 9.2899378,17.90592 9.1027763,17.721559 8.8755771,17.601792 8.6529618,17.484443 8.3993054,17.434063 8.1479729,17.430561 c -0.2513324,-0.0035 -0.5014433,0.03843 -0.7457798,0.09773 -0.488676,0.118616 -0.9639916,0.307428 -1.4649544,0.349578 -0.2654167,0.02233 -0.5371686,0.0021 -0.7884569,-0.08667 -0.2512865,-0.08877 -0.4815829,-0.24911 -0.63066,-0.47102 C 4.3428143,17.05923 4.2906245,16.737507 4.2043734,16.434781 4.1612502,16.283419 4.1082129,16.133476 4.0270848,15.9988 3.9459566,15.864124 3.8349558,15.744648 3.6959481,15.672146 3.5997273,15.621715 3.4920913,15.595631 3.3835138,15.591003 Z"
         sodipodi:nodetypes="cccscccccsssscsssccc" />
      <path
         style="fill:#c9d1d9;fill-opacity:1;fill-rule:evenodd;stroke:#a2a5c0;stroke-width:1.9669154;stroke-dasharray:none;stroke-opacity:1"
         d="m 71.30348,173.27718 c -0.2563,0.30386 -0.597558,0.53528 -0.974677,0.66097 -0.0566,0.0189 -0.113964,0.0354 -0.170554,0.0543 -0.138195,0.0462 -0.271523,0.10639 -0.410925,0.14877 -0.139402,0.0424 -0.288041,0.0666 -0.430974,0.0383 -0.180923,-0.0358 -0.335688,-0.15187 -0.467722,-0.28064 -0.28449,-0.27745 -0.497254,-0.63679 -0.561266,-1.02898 -0.05033,-0.30834 -0.0087,-0.62315 0,-0.93545 0.0078,-0.28056 -0.01122,-0.56145 0,-0.84189 0.01239,-0.30975 0.06209,-0.61919 0.163704,-0.91206 0.08127,-0.23421 0.194789,-0.45565 0.304015,-0.6782 0.118638,-0.24173 0.233849,-0.48779 0.397562,-0.70158 0.252143,-0.32927 0.612802,-0.56851 1.005602,-0.70158 0.680589,-0.23056 1.47091,-0.13375 2.057977,0.28063 0.517384,0.36519 0.859673,0.96151 0.935442,1.59025 0.06704,0.55632 -0.07056,1.13501 -0.380825,1.60161 l -1.467359,1.70552 z"
         id="path77"
         inkscape:original-d="m 71.30348,173.27718 c -0.40536,0.18708 -0.849953,0.59861 -0.974677,0.66097 -0.124727,0.0624 -0.04582,-0.13278 -0.170554,0.0543 -0.124724,0.18709 -0.623628,0.0312 -0.841899,0.18709 -0.21827,0.15591 -0.249451,-0.12473 -0.467722,-0.28064 -0.218268,-0.1559 -0.374176,-0.68599 -0.561266,-1.02898 -0.187087,-0.343 0,-0.62363 0,-0.93545 0,-0.31181 0.03118,-0.59244 0,-0.84189 -0.03118,-0.24946 0.0078,-0.72498 0.163704,-0.91206 0.155906,-0.18709 0.304015,-0.36638 0.304015,-0.6782 0,-0.31181 0.272838,-0.35858 0.397562,-0.70158 0.124728,-0.34299 0.662607,-0.51449 1.005602,-0.70158 0.342996,-0.18709 1.403165,0.24945 2.057977,0.28063 0.654809,0.0312 0.498901,0.99781 0.935442,1.59025 0.436542,0.59245 -0.412006,1.13389 -0.380825,1.60161 -0.468388,0.72013 -0.716242,1.2903 -1.467359,1.70552 z"
         inkscape:path-effect="#path-effect77"
         clip-path="none"
         sodipodi:nodetypes="sssssssssssssscss"
         transform="matrix(0.50703418,0,0,0.5097749,-28.932895,-72.294784)" />
      <path
         id="path78"
         style="fill:#c9d1d9;fill-opacity:1;fill-rule:evenodd;stroke:#a2a5c0;stroke-width:0.999985;stroke-dasharray:none;stroke-opacity:1"
         d="m 19.984962,18.344605 c -0.140614,0.0025 -0.284506,0.04369 -0.390408,0.136721 -0.07085,0.06225 -0.121958,0.145515 -0.152528,0.234981 -0.03057,0.08947 -0.04102,0.184956 -0.03794,0.279504 0.0062,0.189096 0.06542,0.371708 0.118545,0.553213 0.05312,0.181501 0.100878,0.369562 0.08351,0.557949 -0.0087,0.0942 -0.03396,0.187342 -0.08061,0.269492 -0.04665,0.08216 -0.115171,0.152821 -0.199155,0.195468 -0.121345,0.06163 -0.263928,0.06141 -0.399629,0.05322 -0.135701,-0.0082 -0.274535,-0.02268 -0.405424,0.01422 -0.144169,0.04068 -0.266356,0.142084 -0.353528,0.264491 -0.08717,0.122402 -0.142052,0.265114 -0.183086,0.4099 -0.08358,0.294905 -0.113269,0.606617 -0.07192,0.910427 0.04135,0.303811 0.15517,0.599343 0.340357,0.842985 0.228477,0.300604 0.551594,0.540277 0.907528,0.646206 1.382657,0.41149 3.741158,0.397798 4.324264,-0.174129 0.410269,-0.549697 0.193358,-1.431166 0.193358,-2.108526 -0.203078,-0.542202 -0.541553,-1.034298 -0.930971,-1.465741 -0.637367,-0.706145 -1.436801,-1.28557 -2.347723,-1.551097 -0.135078,-0.03936 -0.274031,-0.07199 -0.414645,-0.06928 z"
         sodipodi:nodetypes="ccscscscccssssaccsccc" />
    </g>
  </g>
</svg>
