<svg xmlns="http://www.w3.org/2000/svg" width="185" height="185" viewBox="0 0 48.948 48.948"><g style="stroke-width:1.00033" transform="matrix(1.96136 0 0 1.96068 0 -.014)"><path d="M4 4h16.9v16.9H4z" style="fill:#674b24;fill-opacity:1;stroke:none;stroke-width:.798463;stroke-linecap:butt;stroke-linejoin:miter;stroke-miterlimit:4;stroke-dasharray:none;stroke-opacity:1"/><path d="M8.243 4.041v16.87M17.06 4.041v16.87M12.652 4.041v16.87" style="fill:none;stroke:#342612;stroke-width:1.00033;stroke-linecap:butt;stroke-linejoin:miter;stroke-miterlimit:4;stroke-dasharray:none;stroke-opacity:1"/><path d="M-14.931 15.644h29.332v4h-29.332z" style="fill:#9e7437;fill-opacity:1;stroke:#3f2e16;stroke-width:1.00033;stroke-linecap:butt;stroke-linejoin:bevel;stroke-miterlimit:4;stroke-dasharray:none;stroke-opacity:1" transform="scale(-1 1)rotate(45)"/><path d="M.5.5v23.952h23.952V.5Zm4.041 4.041h15.87v15.87H4.54Z" style="fill:#9e7437;stroke-width:0;stroke-linecap:round"/><path d="M4 4h16.9v16.9H4z" style="fill:none;fill-opacity:1;stroke:none;stroke-width:1.00033;stroke-linecap:butt;stroke-linejoin:bevel;stroke-miterlimit:4;stroke-dasharray:none;stroke-opacity:1"/><circle cx="2.577" cy="2.577" r=".827" style="fill:gray;fill-opacity:1;stroke:#2e2e2e;stroke-width:.50016;stroke-linecap:round;stroke-linejoin:round;stroke-opacity:1"/><circle cx="22.375" cy="2.577" r=".827" style="fill:gray;fill-opacity:1;stroke:#2e2e2e;stroke-width:.50016;stroke-linecap:round;stroke-linejoin:round;stroke-opacity:1"/><circle cx="2.577" cy="22.375" r=".827" style="fill:gray;fill-opacity:1;stroke:#2e2e2e;stroke-width:.50016;stroke-linecap:round;stroke-linejoin:round;stroke-opacity:1"/><circle cx="22.375" cy="22.375" r=".827" style="fill:gray;fill-opacity:1;stroke:#2e2e2e;stroke-width:.50016;stroke-linecap:round;stroke-linejoin:round;stroke-opacity:1"/><path d="M4.541 4.541h15.87v15.87H4.541z" style="fill:none;fill-opacity:1;stroke:#3f2e16;stroke-width:1.00033;stroke-linecap:butt;stroke-linejoin:miter;stroke-miterlimit:4;stroke-dasharray:none;stroke-opacity:1"/><path d="M.5.5h23.952v23.952H.5z" style="fill:none;fill-opacity:1;stroke:#3f2e16;stroke-width:1.00033;stroke-linecap:round;stroke-linejoin:round;stroke-miterlimit:4;stroke-dasharray:none;stroke-opacity:1"/><path d="M20.411 4.54h4M20.411 20.411h4M.54 20.411h4M.54 4.54h4" style="fill:none;stroke:#3f2e16;stroke-width:1.00033;stroke-linecap:butt;stroke-linejoin:miter;stroke-miterlimit:4;stroke-dasharray:none;stroke-opacity:1"/></g><path d="M24.452 7.05c-.055.053-.118.098-.164.159-.344.459-.285.322-.93 1.106-1.5 2.135-4.53.711-6.417 1.593-3.404 1.571-1.816 4.643-2.878 6.549-.855 1.185-2.344 1.961-3.63 1.99-.941.026-3.693.85-3.669 5.993h17.688Z" style="fill:#c9d1d9;fill-opacity:1;stroke:#a2a5c0;stroke-width:1;stroke-linecap:round;stroke-linejoin:round;stroke-miterlimit:4;stroke-dasharray:none;stroke-opacity:1" transform="scale(1.96165)"/><path d="M608.523 221.365a10.3 10.3 0 0 0-3.292.432c-1.628.491-3.102 1.377-4.614 2.153-1.513.777-3.13 1.462-4.829 1.499-.85.017-1.71-.132-2.478-.497s-1.44-.95-1.85-1.695c-.412-.744-.548-1.648-.316-2.465.116-.41.322-.793.605-1.11a2.6 2.6 0 0 1 1.04-.715c.525-.194 1.096-.207 1.643-.325.273-.058.543-.145.783-.288.24-.144.449-.347.569-.6.125-.265.146-.574.093-.863a2.6 2.6 0 0 0-.319-.82c-.29-.51-.686-.968-.889-1.52-.262-.714-.169-1.538.198-2.204.366-.666.989-1.175 1.694-1.46.705-.283 1.488-.349 2.242-.247.753.101 1.479.365 2.153.716 1.348.703 2.484 1.743 3.68 2.682 1.195.94 2.513 1.808 4.01 2.07.734.13 1.489.108 2.219.254.365.073.724.19 1.045.379s.601.454.775.784c.148.278.215.596.214.912a2.7 2.7 0 0 1-.179.925 3.38 3.38 0 0 1-1.692 1.851 3.38 3.38 0 0 1-2.504.152z" style="fill:#c9d1d9;fill-opacity:1;stroke:#a2a5c0;stroke-width:1.96225;stroke-dasharray:none;stroke-opacity:1" transform="matrix(.99985 0 0 .9995 -588.686 -208.02)"/><path d="M15.798 1.183c-.139.038-.27.105-.388.188-.234.165-.404.388-.55.613-.517.793-.795 1.684-.732 2.52.086 1.156.83 2.15 1.888 2.749 1.555.76 4.873.376 6.176-.57.808-.65 1.012-1.934.956-2.616a2.88 2.88 0 0 0-1.187-2.047 1.65 1.65 0 0 0-.598-.294 1.8 1.8 0 0 0-.716.002 3.7 3.7 0 0 0-.716.225c-.465.191-.912.437-1.394.568-.255.07-.52.106-.77.083s-.483-.108-.643-.26c-.189-.178-.262-.429-.367-.658a1.2 1.2 0 0 0-.202-.32.7.7 0 0 0-.344-.2 1.4 1.4 0 0 0-.413.017ZM1.923 14.743c.072.703.464 1.348 1.031 1.884.276.26.33.534.713.717.382.184.83.311 1.315.341a4 4 0 0 0 1.76-.3c.547-.229 1.008-.574 1.3-.968.433-.586.48-1.236.74-1.855a1.365 1.365 0 0 0-.311-1.54c-.4-.397-1.148-.525-1.788-.572-1.353-.1-3.996.64-3.996.64-.902.144-.83 1.006-.764 1.653Z" style="fill:#c9d1d9;fill-opacity:1;fill-rule:evenodd;stroke:#a2a5c0;stroke-width:.99998509;stroke-dasharray:none;stroke-opacity:1" transform="scale(1.96165)"/></svg>