<?xml version="1.0" encoding="UTF-8" standalone="no"?>
<!-- Created with Inkscape (http://www.inkscape.org/) -->

<svg
   width="175"
   height="175"
   viewBox="0 0 46.302083 46.302083"
   version="1.1"
   id="svg5"
   sodipodi:docname="rock_7.svg"
   inkscape:version="1.3 (0e150ed, 2023-07-21)"
   xmlns:inkscape="http://www.inkscape.org/namespaces/inkscape"
   xmlns:sodipodi="http://sodipodi.sourceforge.net/DTD/sodipodi-0.dtd"
   xmlns="http://www.w3.org/2000/svg"
   xmlns:svg="http://www.w3.org/2000/svg">
  <sodipodi:namedview
     id="namedview12"
     pagecolor="#505050"
     bordercolor="#ffffff"
     borderopacity="1"
     inkscape:pageshadow="0"
     inkscape:pageopacity="0"
     inkscape:pagecheckerboard="1"
     inkscape:document-units="px"
     showgrid="false"
     inkscape:zoom="2.5041624"
     inkscape:cx="121.59754"
     inkscape:cy="93.045083"
     inkscape:window-width="1440"
     inkscape:window-height="847"
     inkscape:window-x="0"
     inkscape:window-y="25"
     inkscape:window-maximized="0"
     inkscape:current-layer="svg5"
     units="px"
     inkscape:showpageshadow="2"
     inkscape:deskcolor="#d1d1d1" />
  <defs
     id="defs2">
    <inkscape:path-effect
       effect="bspline"
       id="path-effect77569"
       is_visible="true"
       lpeversion="1.3"
       weight="33.333333"
       steps="2"
       helper_size="0"
       apply_no_weight="true"
       apply_with_weight="true"
       only_selected="false"
       uniform="false" />
    <inkscape:path-effect
       effect="bspline"
       id="path-effect55069-0"
       is_visible="true"
       lpeversion="1.3"
       weight="33.333333"
       steps="2"
       helper_size="0"
       apply_no_weight="true"
       apply_with_weight="true"
       only_selected="false"
       uniform="false" />
  </defs>
  <g
     id="g79468"
     transform="translate(-848.49382,-160.39573)">
    <g
       id="g76742"
       transform="translate(848.49382,160.39573)">
      <g
         id="g76726"
         transform="matrix(1.75,0,0,1.75,-222.67677,-301.99774)">
        <g
           id="g76724"
           transform="translate(-0.26053145,-0.26451586)">
          <g
             id="g76720"
             transform="matrix(1.3704732,0,0,1.3698339,-72.023366,-95.638228)"
             style="stroke-width:0.729845">
            <path
               style="fill:#808080;fill-opacity:1;stroke:none;stroke-width:1.54483;stroke-linecap:round;stroke-linejoin:round;stroke-dasharray:none;stroke-opacity:1;paint-order:normal"
               d="m 147.62935,212.54382 -1.32089,-8.199 4.23203,-6.19576 8.66492,-1.57391 4.96006,5.83521 -0.31238,9.17572 -9.58549,3.14543 z"
               id="path76712" />
            <path
               id="path76714"
               style="opacity:1;fill:#666666;fill-opacity:1;stroke:none;stroke-width:1.54483;stroke-linecap:round;stroke-linejoin:round;stroke-dasharray:none;stroke-opacity:1;paint-order:normal"
               d="m 163.85309,211.58608 0.31238,-9.17572 -4.96006,-5.83521 c 1.32822,7.31246 0.51298,2.82414 0.84319,4.64204 l 0.22612,5.3755 z" />
            <path
               id="path76716"
               style="opacity:1;fill:#999999;fill-opacity:1;stroke:none;stroke-width:1.54483;stroke-linecap:round;stroke-linejoin:round;stroke-dasharray:none;stroke-opacity:1;paint-order:normal"
               d="m 150.54049,198.14906 -4.23203,6.19576 1.32089,8.199 6.63825,2.18769 -3.80671,-4.39003 -0.76641,-4.0885 z" />
            <path
               style="fill:none;fill-opacity:1;stroke:#333333;stroke-width:1.15863;stroke-linecap:round;stroke-linejoin:round;stroke-dasharray:none;stroke-opacity:1;paint-order:normal"
               d="m 154.2676,214.73151 -6.63825,-2.18769 -1.32089,-8.199 4.23203,-6.19576 8.66492,-1.57391 4.96006,5.83521 -0.31238,9.17572 z"
               id="path76718" />
          </g>
          <rect
             style="fill:#000000;fill-opacity:0;stroke:none;stroke-width:2.11667;stroke-linecap:round;stroke-linejoin:miter;stroke-dasharray:none;stroke-opacity:1;paint-order:normal"
             id="rect76722"
             width="26.458334"
             height="26.458334"
             x="127.49557"
             y="172.84351" />
        </g>
      </g>
      <path
         style="color:#000000;fill:#333333;-inkscape-stroke:none"
         d="m 20.129118,18.081437 -0.0092,-4.997279 -5.979877,-2.408068 -1.313731,-5.7213228 -0.954413,0.2224654 1.871934,6.0705564 5.681237,2.424913 z"
         id="path76728"
         sodipodi:nodetypes="cccccccc" />
      <path
         style="color:#000000;fill:#333333;-inkscape-stroke:none"
         d="m 14.290817,15.667732 -0.641084,-2.028169 0.72194,-2.182449 -0.627842,-0.209325 -0.827972,2.503277 z"
         id="path76730"
         sodipodi:nodetypes="cccccc" />
      <path
         style="color:#000000;fill:#333333;fill-opacity:1;stroke-width:1.55083;-inkscape-stroke:none"
         d="m 31.428901,12.292295 -1.288254,-4.7493975 -3.637236,-1.849022 2.973467,2.369465 z"
         id="path76732"
         sodipodi:nodetypes="ccccc" />
      <path
         style="color:#000000;fill:#333333;-inkscape-stroke:none"
         d="m 20.810729,44.928836 -2.00933,-4.378872 1.958429,-3.616443 -1.185359,3.654106 2.026846,3.803599 z"
         id="path76734"
         sodipodi:nodetypes="cccccc" />
      <path
         style="color:#000000;fill:#333333;-inkscape-stroke:none"
         d="m 28.749702,23.395533 1.805562,-1.28098 c 0.13879,-0.940206 0.533385,-2.724453 0.533385,-2.724453 l -1.045449,2.53684 -1.495507,1.046295 -2.4273,-0.880419 c 0,0 1.865564,1.026117 2.629304,1.302712 z"
         id="path76736"
         sodipodi:nodetypes="ccccccc" />
      <path
         style="color:#000000;fill:#333333;-inkscape-stroke:none"
         d="m 37.635413,39.118495 0.876698,-0.337023 -3.980385,-4.745946 1.966406,-4.15033 -4.919911,-1.56493 4.373856,1.762037 -1.896464,4.07342 z"
         id="path76738"
         sodipodi:nodetypes="cccccccc" />
      <path
         style="color:#000000;fill:#333333;-inkscape-stroke:none"
         d="m 16.728666,30.481716 -0.931641,2.255859 1.166016,-1.4375 2.605469,1.21875 z"
         id="path76740"
         sodipodi:nodetypes="ccccc" />
    </g>
    <path
       style="fill:#c9d1d9;fill-opacity:1;stroke:#a2a5c0;stroke-width:1.058;stroke-miterlimit:4;stroke-dasharray:none;stroke-opacity:1"
       d="m 880.71619,168.03597 c -1.7367,-0.82422 -3.7875,-0.92414 -4.79065,0.0491 -1.00315,0.97324 -0.95865,3.01959 -0.51305,4.34992 0.44561,1.33033 1.2923,1.94461 2.77625,2.32074 1.48395,0.37614 3.60495,0.51413 4.89605,0.008 1.29111,-0.50613 1.7522,-1.65632 1.27144,-3.00569 -0.48075,-1.34938 -1.90334,-2.89787 -3.64004,-3.72208 z"
       id="path77565"
       inkscape:path-effect="#path-effect77569"
       inkscape:original-d="m 881.03029,167.31168 c -2.0508,-0.0999 -4.1016,-0.19986 -6.1524,-0.29978 0.044,2.04642 0.089,4.09276 0.1335,6.13914 0.8467,0.61429 1.6934,1.22856 2.5401,1.84283 2.1212,0.13799 4.2422,0.276 6.3633,0.41399 0.4611,-1.15025 0.9222,-2.30044 1.3833,-3.45067 -1.4226,-1.54853 -2.8452,-3.09701 -4.2678,-4.64551 z" />
    <path
       style="fill:#c9d1d9;fill-opacity:1;stroke:#a2a5c0;stroke-width:1.05833;stroke-dasharray:none;stroke-opacity:1"
       d="m 854.21752,185.85353 c 0.17191,2.20051 1.95982,5.29497 4.09158,7.0485 2.13177,1.75354 4.60729,2.16612 7.08288,1.40968 2.47559,-0.75644 4.95111,-2.68185 5.98259,-5.01991 1.03149,-2.33807 0.6189,-5.08864 -0.0344,-7.633 -0.65329,-2.54436 -1.54723,-4.88235 -3.12886,-5.94822 -1.58164,-1.06586 -3.85086,-0.85957 -5.84508,0.2407 -1.99423,1.10027 -3.71334,3.09444 -5.29497,4.74483 -1.58163,1.6504 -3.02568,2.95692 -2.85376,5.15742 z"
       id="path55055-4"
       inkscape:path-effect="#path-effect55069-0"
       inkscape:original-d="m 852.60152,184.95958 c 1.78791,3.09446 3.57582,6.18892 5.36373,9.28338 2.47562,0.4126 4.95114,0.82519 7.4267,1.23779 2.47562,-1.92548 4.95114,-3.85089 7.42671,-5.77633 -0.4126,-2.75069 -0.82519,-5.50126 -1.23778,-8.2519 -0.89398,-2.33808 -1.78792,-4.67607 -2.68187,-7.0141 -2.26932,0.2063 -4.53854,0.41259 -6.80781,0.61889 -1.71918,1.99424 -3.43829,3.98841 -5.15744,5.98262 -1.44411,1.30658 -2.88816,2.6131 -4.33224,3.91965 z" />
    <path
       id="path77583"
       style="fill:#c9d1d9;fill-opacity:1;fill-rule:evenodd;stroke:#a2a5c0;stroke-width:1;stroke-dasharray:none;stroke-opacity:1"
       d="m 878.42713,186.95139 c -0.2409,0.13439 -0.4519,0.33862 -0.5491,0.59751 -0.065,0.17316 -0.077,0.3645 -0.047,0.54756 0.03,0.18307 0.1,0.35817 0.1932,0.51845 0.1854,0.32151 0.4569,0.58259 0.7166,0.8475 0.2597,0.26491 0.5162,0.54612 0.6603,0.88812 0.072,0.171 0.1141,0.35571 0.1097,0.54077 0,0.18504 -0.058,0.37091 -0.1639,0.52232 -0.1529,0.21879 -0.3998,0.35024 -0.6422,0.46153 -0.2423,0.11126 -0.496,0.2146 -0.6882,0.39944 -0.2118,0.20366 -0.3295,0.49207 -0.3672,0.78444 -0.038,0.29237 -7e-4,0.59003 0.062,0.87847 0.1281,0.58747 0.3649,1.15425 0.7173,1.64165 0.3523,0.48746 0.8226,0.89348 1.3682,1.14378 0.6732,0.30885 1.4538,0.42481 2.1676,0.27896 2.7726,-0.56638 6.8405,-2.77058 7.3206,-4.29916 0.2017,-1.33039 -0.9886,-2.65491 -1.6148,-3.82682 -0.8527,-0.75031 -1.8932,-1.28875 -2.9659,-1.67517 -1.7555,-0.63245 -3.6744,-0.89584 -5.4958,-0.51307 -0.2701,0.0568 -0.5408,0.12887 -0.7816,0.26355 z"
       sodipodi:nodetypes="ccscscscccssssaccsccc" />
  </g>
</svg>
