<?xml version="1.0" encoding="UTF-8" standalone="no"?>
<!-- Created with Inkscape (http://www.inkscape.org/) -->

<svg
   width="175.00002"
   height="175.00008"
   viewBox="0 0 46.302087 46.302103"
   version="1.1"
   id="svg5"
   xmlns="http://www.w3.org/2000/svg"
   xmlns:svg="http://www.w3.org/2000/svg">
  <defs
     id="defs2" />
  <g
     id="g79584"
     transform="matrix(1,0,0,0.99998666,-1048.4857,-162.43442)"
     style="stroke-width:1.00001">
    <path
       style="fill:#808080;fill-opacity:1;stroke:none;stroke-width:3.70416;stroke-linecap:round;stroke-linejoin:round;stroke-dasharray:none;stroke-opacity:1;paint-order:normal"
       d="m 1053.3912,202.10589 -3.1679,-19.65472 10.1498,-14.85253 20.7813,-3.77299 11.8959,13.98822 -0.7492,21.99612 -22.9892,7.54025 z"
       id="path76656" />
    <path
       id="path76658"
       style="fill:#666666;fill-opacity:1;stroke:none;stroke-width:3.70416;stroke-linecap:round;stroke-linejoin:round;stroke-dasharray:none;stroke-opacity:1;paint-order:normal"
       d="m 1092.3011,199.80999 0.7492,-21.99612 -11.8959,-13.98822 c 3.1855,17.52949 1.2303,6.77005 2.0223,11.12794 l 0.5423,12.8862 z" />
    <path
       id="path76660"
       style="fill:#999999;fill-opacity:1;stroke:none;stroke-width:3.70416;stroke-linecap:round;stroke-linejoin:round;stroke-dasharray:none;stroke-opacity:1;paint-order:normal"
       d="m 1060.3731,167.59864 -10.1498,14.85253 3.1679,19.65472 15.9207,5.24435 -9.1297,-10.52382 -1.8381,-9.80099 z" />
    <rect
       style="fill:#000000;fill-opacity:0;stroke:none;stroke-width:3.70419;stroke-linecap:round;stroke-linejoin:miter;stroke-dasharray:none;stroke-opacity:1;paint-order:normal"
       id="rect76666"
       width="46.302086"
       height="46.302086"
       x="1048.4857"
       y="162.4369" />
    <path
       style="fill:#c9d1d9;fill-opacity:1;stroke:#a2a5c0;stroke-width:1.05834;stroke-linejoin:round;stroke-dasharray:none;stroke-opacity:1"
       d="m 1071.0569,174.66679 c -0.1892,-0.69358 -0.2612,-1.7805 0.3699,-2.12478 0.6284,-0.34277 1.3012,0.60298 1.9781,0.8355 0.6769,0.2325 1.5247,0.12506 2.0738,0.55626 0.5426,0.42589 1.2481,1.19696 0.922,1.78245 -0.6077,1.09119 -2.6769,1.08473 -3.9176,0.62682 -0.6882,-0.25403 -1.2331,-0.96847 -1.4262,-1.67625 z"
       id="path14635-0-4" />
    <path
       style="fill:#c9d1d9;fill-opacity:1;stroke:#a2a5c0;stroke-width:1.05801;stroke-miterlimit:4;stroke-dasharray:none;stroke-opacity:1"
       d="m 1061.2645,193.93308 c -1.7367,-0.82422 -3.7875,-0.92414 -4.7906,0.0491 -1.0032,0.97324 -0.9587,3.01959 -0.5131,4.34992 0.4456,1.33033 1.2923,1.94461 2.7763,2.32074 1.4839,0.37614 3.6049,0.51413 4.896,0.008 1.2911,-0.50613 1.7522,-1.65632 1.2714,-3.00569 -0.4807,-1.34938 -1.9033,-2.89787 -3.64,-3.72208 z"
       id="path30-7-4-5-5" />
    <path
       style="fill:#c9d1d9;fill-opacity:1;stroke:#a2a5c0;stroke-width:1.05834;stroke-dasharray:none;stroke-opacity:1"
       d="m 1066.0237,192.75013 c 0.1719,2.2005 1.9598,5.29496 4.0916,7.0485 2.1318,1.75354 4.6073,2.16612 7.0829,1.40966 2.4756,-0.75646 4.9511,-2.68184 5.9826,-5.0199 1.0315,-2.33807 0.6189,-5.08864 -0.034,-7.633 -0.6533,-2.54437 -1.5472,-4.88234 -3.1289,-5.94821 -1.5816,-1.06587 -3.8508,-0.85958 -5.845,0.2407 -1.9943,1.10028 -3.7134,3.09445 -5.295,4.74485 -1.5817,1.6504 -3.0257,2.95689 -2.8538,5.1574 z"
       id="path77577" />
    <path
       style="fill:#c9d1d9;fill-opacity:1;stroke:#a2a5c0;stroke-width:1.11563;stroke-linecap:square;stroke-linejoin:round;stroke-dasharray:none;stroke-opacity:1;stop-color:#000000"
       d="m 1054.6978,175.51144 c 0,0 7.6801,-0.46526 8.6858,2.36152 0.5364,1.50757 -2.4026,2.35121 -2.7957,3.90239 -0.3838,1.51393 1.2722,3.24612 0.5851,4.64872 -0.893,1.8231 -3.8785,1.59734 -5.2404,3.10265 -1.2038,1.33034 -2.2667,4.88191 -2.2667,4.88191 l -1.1965,-1.27825 -1.261,-11.37074 z"
       id="path78548" />
    <path
       style="fill:none;fill-opacity:1;stroke:#333333;stroke-width:2.77815;stroke-linecap:round;stroke-linejoin:round;stroke-dasharray:none;stroke-opacity:1;paint-order:normal"
       d="m 1069.3119,207.35024 -15.9207,-5.24435 -3.1679,-19.65472 10.1498,-14.85253 20.7813,-3.77299 11.8959,13.98822 -0.7492,21.99612 z"
       id="path76662" />
  </g>
</svg>
