<svg xmlns="http://www.w3.org/2000/svg" width="175" height="175" viewBox="0 0 46.302 46.302"><g style="stroke-width:1.00001"><path d="m1053.391 202.106-3.168-19.655 10.15-14.852 20.781-3.773 11.896 13.988-.749 21.996-22.99 7.54z" style="fill:gray;fill-opacity:1;stroke:none;stroke-width:3.70416;stroke-linecap:round;stroke-linejoin:round;stroke-dasharray:none;stroke-opacity:1;paint-order:normal" transform="matrix(1 0 0 .99999 -1048.486 -162.434)"/><path d="m1092.301 199.81.75-21.996-11.897-13.988 2.023 11.128.542 12.886z" style="fill:#666;fill-opacity:1;stroke:none;stroke-width:3.70416;stroke-linecap:round;stroke-linejoin:round;stroke-dasharray:none;stroke-opacity:1;paint-order:normal" transform="matrix(1 0 0 .99999 -1048.486 -162.434)"/><path d="m1060.373 167.599-10.15 14.852 3.168 19.655 15.92 5.244-9.129-10.524-1.838-9.8z" style="fill:#999;fill-opacity:1;stroke:none;stroke-width:3.70416;stroke-linecap:round;stroke-linejoin:round;stroke-dasharray:none;stroke-opacity:1;paint-order:normal" transform="matrix(1 0 0 .99999 -1048.486 -162.434)"/><path fill="none" d="M1048.486 162.437h46.302v46.302h-46.302z" style="fill:#000;fill-opacity:0;stroke:none;stroke-width:3.70419;stroke-linecap:round;stroke-linejoin:miter;stroke-dasharray:none;stroke-opacity:1;paint-order:normal" transform="matrix(1 0 0 .99999 -1048.486 -162.434)"/><path d="M1071.057 174.667c-.19-.694-.261-1.78.37-2.125.628-.343 1.301.603 1.978.836s1.525.125 2.074.556c.542.426 1.248 1.197.922 1.782-.608 1.091-2.677 1.085-3.918.627-.688-.254-1.233-.968-1.426-1.676z" style="fill:#c9d1d9;fill-opacity:1;stroke:#a2a5c0;stroke-width:1.05834;stroke-linejoin:round;stroke-dasharray:none;stroke-opacity:1" transform="matrix(1 0 0 .99999 -1048.486 -162.434)"/><path d="M1061.265 193.933c-1.737-.824-3.788-.924-4.791.05-1.003.972-.959 3.019-.513 4.35s1.292 1.944 2.776 2.32 3.605.514 4.896.008 1.752-1.656 1.271-3.006c-.48-1.35-1.903-2.898-3.64-3.722z" style="fill:#c9d1d9;fill-opacity:1;stroke:#a2a5c0;stroke-width:1.05801;stroke-miterlimit:4;stroke-dasharray:none;stroke-opacity:1" transform="matrix(1 0 0 .99999 -1048.486 -162.434)"/><path d="M1066.024 192.75c.172 2.2 1.96 5.295 4.091 7.049 2.132 1.753 4.608 2.166 7.083 1.41 2.476-.757 4.951-2.683 5.983-5.02 1.031-2.339.619-5.09-.034-7.634s-1.547-4.882-3.13-5.948c-1.58-1.066-3.85-.86-5.844.24s-3.713 3.095-5.295 4.746c-1.582 1.65-3.026 2.957-2.854 5.157z" style="fill:#c9d1d9;fill-opacity:1;stroke:#a2a5c0;stroke-width:1.05834;stroke-dasharray:none;stroke-opacity:1" transform="matrix(1 0 0 .99999 -1048.486 -162.434)"/><path d="M1054.698 175.511s7.68-.465 8.686 2.362c.536 1.508-2.403 2.351-2.796 3.902-.384 1.514 1.272 3.246.585 4.65-.893 1.822-3.878 1.596-5.24 3.102-1.204 1.33-2.267 4.882-2.267 4.882l-1.197-1.279-1.26-11.37z" style="fill:#c9d1d9;fill-opacity:1;stroke:#a2a5c0;stroke-width:1.11563;stroke-linecap:square;stroke-linejoin:round;stroke-dasharray:none;stroke-opacity:1;stop-color:#000" transform="matrix(1 0 0 .99999 -1048.486 -162.434)"/><path d="m1069.312 207.35-15.92-5.244-3.169-19.655 10.15-14.852 20.781-3.773 11.896 13.988-.749 21.996z" style="fill:none;fill-opacity:1;stroke:#333;stroke-width:2.77815;stroke-linecap:round;stroke-linejoin:round;stroke-dasharray:none;stroke-opacity:1;paint-order:normal" transform="matrix(1 0 0 .99999 -1048.486 -162.434)"/></g></svg>