<?xml version="1.0" encoding="UTF-8" standalone="no"?>
<svg
   width="413.478"
   height="387.999"
   viewBox="0 0 109.399 102.658"
   version="1.1"
   id="svg31"
   sodipodi:docname="ship_oil_source_winter.svg"
   inkscape:version="1.3.2 (091e20e, 2023-11-25, custom)"
   xmlns:inkscape="http://www.inkscape.org/namespaces/inkscape"
   xmlns:sodipodi="http://sodipodi.sourceforge.net/DTD/sodipodi-0.dtd"
   xmlns="http://www.w3.org/2000/svg"
   xmlns:svg="http://www.w3.org/2000/svg">
  <defs
     id="defs31" />
  <sodipodi:namedview
     id="namedview31"
     pagecolor="#ffffff"
     bordercolor="#000000"
     borderopacity="0.25"
     inkscape:showpageshadow="2"
     inkscape:pageopacity="0.0"
     inkscape:pagecheckerboard="0"
     inkscape:deskcolor="#d1d1d1"
     inkscape:zoom="1.4962273"
     inkscape:cx="207.18778"
     inkscape:cy="194.155"
     inkscape:window-width="1920"
     inkscape:window-height="1017"
     inkscape:window-x="-8"
     inkscape:window-y="-8"
     inkscape:window-maximized="1"
     inkscape:current-layer="svg31" />
  <path
     d="M-6102.14-211.414h38.422v100.358h-38.422z"
     style="fill:#585c56;stroke:#171717;stroke-width:2.3;stroke-linejoin:round;stroke-opacity:1"
     transform="translate(6103.29 212.564)"
     id="path1" />
  <path
     d="M-6102.14-147.856v20.85c1.285-.497 2.871-1.32 3.342-2.732.77-2.31-2.008-4.339-1.582-6.471.454-2.27 3.508-3.596 3.02-6.04-.523-2.614-3.378-4.002-4.78-5.607M-6063.718-151.451v-50.904c1.065 3.456-5.377 3.062-5.89 4.602-2.031 6.093 3.615 10.685 2.445 16.536-.349 1.741-2.555 2.666-3.308 4.17-.579 1.158 1.813 3.465 1.15 4.458-.867 1.301-3.666 1.582-4.313 2.876-.758 1.515 5.656 1.246 4.458 2.444-.494.494-1.797.359-2.301.863-.665.664 2.271 1.784 1.87 2.588-1.485 2.969-2.556 4.464-2.158 8.053.733 6.598 6.596 9.5 8.047 4.314M-6077.66-211.414h-24.48v15.53c12.555.894 8.426-5.067 13.551-8.484.654-.436 2.687-.24 3.451-.144 6.173.772 4.795-3.145 7.478-6.902M-6063.718-116.352v5.296h-31.177c11.58-12.708 20.573-3.16 31.177-5.296"
     style="fill:#4e514b;fill-opacity:1;stroke:none;stroke-width:1.98438;stroke-linecap:round;stroke-linejoin:round;stroke-dasharray:none;stroke-opacity:1"
     transform="translate(6103.29 212.564)"
     id="path2" />
  <path
     d="M-6102.14-211.414h38.422v100.358h-38.422z"
     style="fill:none;stroke:#171717;stroke-width:2.30002142;stroke-linejoin:round;stroke-opacity:1;stroke-dasharray:none"
     transform="translate(6103.29 212.564)"
     id="path3" />
  <path
     d="M-6093.548-145.153c0 8.79 7.127 15.917 15.917 15.917h80.445v-31.834h-80.445c-8.79 0-15.917 7.126-15.917 15.917z"
     style="color:#000;fill:#982d1e;fill-opacity:1;stroke:#260b08;stroke-width:2.29999;stroke-linecap:round;stroke-dasharray:none;stroke-opacity:1"
     transform="translate(6103.29 212.564)"
     id="path4" />
  <path
     d="M-6093.548-145.153c0 6.05 5.236 10.954 11.695 10.954h69.645v-21.908h-69.645c-6.459 0-11.695 4.904-11.695 10.954"
     style="color:#000;fill:#aa3222;fill-opacity:1;stroke:none;stroke-width:1.6355;stroke-linecap:round;stroke-dasharray:none;stroke-opacity:1"
     transform="translate(6103.29 212.564)"
     id="path5" />
  <path
     d="M-6093.548-145.153c0 8.79 7.127 15.917 15.917 15.917h80.445v-31.834h-80.445c-8.79 0-15.917 7.126-15.917 15.917z"
     style="color:#000;fill:none;fill-opacity:1;stroke:#260b08;stroke-width:2.29999;stroke-linecap:round;stroke-dasharray:none;stroke-opacity:1"
     transform="translate(6103.29 212.564)"
     id="path6" />
  <path
     d="M-6091.282-185.054c0 5.522 4.477 10 10 10h82.601v-20h-82.601c-5.523 0-10 4.477-10 10z"
     style="color:#000;fill:#4d4d4d;fill-opacity:1;stroke:#191919;stroke-width:2.3;stroke-linecap:round;stroke-dasharray:none;stroke-opacity:1"
     transform="translate(6103.29 212.564)"
     id="path7" />
  <path
     d="M-6091.796-185.054a6.37 6.37 0 0 0 6.369 6.368h71.8v-12.737h-71.8a6.37 6.37 0 0 0-6.369 6.369"
     style="color:#000;fill:#555;fill-opacity:1;stroke:none;stroke-width:1.46478;stroke-linecap:round;stroke-dasharray:none;stroke-opacity:1"
     transform="translate(6103.29 212.564)"
     id="path8" />
  <path
     d="M-6091.282-185.054c0 5.522 4.477 10 10 10h82.601v-20h-82.601c-5.523 0-10 4.477-10 10z"
     style="color:#000;fill:none;fill-opacity:1;stroke:#191919;stroke-width:2.3;stroke-linecap:round;stroke-dasharray:none;stroke-opacity:1"
     transform="translate(6103.29 212.564)"
     id="path9" />
  <path
     d="M1286.024-1247.312h20.894v20.894h-20.894z"
     style="fill:#f1af01;fill-opacity:1;stroke:#260b08;stroke-width:3;stroke-linecap:square;stroke-linejoin:round;stroke-dasharray:none;stroke-opacity:1;stop-color:#000"
     transform="scale(-.56451)rotate(-45 1955.005 988.51)"
     id="path10" />
  <path
     d="M1790.184 48.58c-4.916.508-3.737-5.78-3.832-6.407.227.302.471.587.803.76.407-1.232.194-2.407.295-3.61.635.377 1.106.822 1.094 1.459.68-.99.934-2.134.6-3.489.378.383.843.545.913.98.562-.779.537-1.93.912-2.589.097 1.22 1.562 1.968 1.66 3.237l.602-1.45c1.209 1.468 1.292 2.215 1.477 3.53.512-.053.632-.694.766-1.314 1.12 1.484.56 3.223.127 4.943.336-.016.538-.495.784-.821-.033 4.784-3.264 4.828-4.978 4.596 1.1-.959 2.552-1.19 2.805-3.491l-1.115.69c.21-.545.76-1.717.46-2.262-.338.669-.735 1.415-1.306 1.646.097-.665.445-1.41-.355-1.976-.158.956-.228 1.355-.851 1.924-.301-.553-.673-1.073-1.024-1.601-.347 1.037-.1 1.016-.034 2.03-.617-.703-.915-.54-1.063-1.686l-.114 1.906c-.298-.391-.93-.557-.93-.557s.404 2.539 1.745 3.313"
     style="fill:#1d1f1d;fill-opacity:1;fill-rule:evenodd;stroke:none;stroke-width:1.02794;stroke-linecap:round;stroke-linejoin:round;stroke-dasharray:none;stroke-opacity:1"
     transform="matrix(0 .56451 -.56451 0 71.34 -943.825)"
     id="path11" />
  <path
     d="M-5997.07-171.461h-17.338v-27.185h17.338M-5997.07-126.27h-17.338v-37.768h17.338"
     style="fill:#585c56;stroke:#000;stroke-width:2.3;stroke-linejoin:round"
     transform="translate(6103.29 212.564)"
     id="path12" />
  <path
     d="M-5993.89-122.786h-11.518v-80.101h11.517"
     style="fill:#4d4d4d;fill-opacity:1;stroke:#000;stroke-width:2.3;stroke-linejoin:round"
     transform="translate(6103.29 212.564)"
     id="path13" />
  <path
     d="M-6072.859-165.63a4.585 4.585 0 0 0-4.585 4.585v31.784a4.585 4.585 0 1 0 9.17 0v-31.784a4.585 4.585 0 0 0-4.585-4.586z"
     style="color:#000;fill:#c83a28;fill-opacity:1;stroke:#260b08;stroke-width:2.29999;stroke-linecap:round;stroke-dasharray:none;stroke-opacity:1"
     transform="translate(6103.29 212.564)"
     id="path14" />
  <path
     d="M-6077.444-157.09h9.171v23.873h-9.171z"
     style="fill:#d64533;fill-opacity:1;stroke:none;stroke-width:2.3;stroke-linecap:round;stroke-linejoin:round"
     transform="translate(6103.29 212.564)"
     id="path15" />
  <path
     d="M-6072.859-165.63a4.585 4.585 0 0 0-4.585 4.585v31.784a4.585 4.585 0 1 0 9.17 0v-31.784a4.585 4.585 0 0 0-4.585-4.586z"
     style="color:#000;fill:none;fill-opacity:1;stroke:#260b08;stroke-width:2.29999;stroke-linecap:round;stroke-dasharray:none;stroke-opacity:1"
     transform="translate(6103.29 212.564)"
     id="path16" />
  <path
     d="M-6038.77-165.63a4.585 4.585 0 0 0-4.585 4.585v31.784a4.585 4.585 0 0 0 9.17 0v-31.784a4.585 4.585 0 0 0-4.585-4.586z"
     style="color:#000;fill:#c83a28;fill-opacity:1;stroke:#260b08;stroke-width:2.29999;stroke-linecap:round;stroke-dasharray:none;stroke-opacity:1"
     transform="translate(6103.29 212.564)"
     id="path17" />
  <path
     d="M-6043.355-157.09h9.171v23.873h-9.171z"
     style="fill:#d64533;fill-opacity:1;stroke:none;stroke-width:2.3;stroke-linecap:round;stroke-linejoin:round"
     transform="translate(6103.29 212.564)"
     id="path18" />
  <path
     d="M-6038.77-165.63a4.585 4.585 0 0 0-4.585 4.585v31.784a4.585 4.585 0 0 0 9.17 0v-31.784a4.585 4.585 0 0 0-4.585-4.586z"
     style="color:#000;fill:none;fill-opacity:1;stroke:#260b08;stroke-width:2.29999;stroke-linecap:round;stroke-dasharray:none;stroke-opacity:1"
     transform="translate(6103.29 212.564)"
     id="path19" />
  <path
     d="M-6044.226-233.11a2.88 2.88 0 0 0-2.88 2.88v19.97a2.88 2.88 0 1 0 5.76 0v-19.97a2.88 2.88 0 0 0-2.88-2.88z"
     style="color:#000;fill:#595959;fill-opacity:1;stroke:#191919;stroke-width:2.3;stroke-linecap:round;stroke-dasharray:none;stroke-opacity:1"
     transform="translate(6090.65 247.755)"
     id="path20" />
  <path
     d="M-6047.107-227.608h5.761v14.725h-5.761z"
     style="fill:#5e5e5e;fill-opacity:1;stroke:none;stroke-width:2.3;stroke-linecap:round;stroke-linejoin:round"
     transform="translate(6090.65 247.755)"
     id="path21" />
  <path
     d="M-6044.226-233.11a2.88 2.88 0 0 0-2.88 2.88v19.97a2.88 2.88 0 1 0 5.76 0v-19.97a2.88 2.88 0 0 0-2.88-2.88z"
     style="color:#000;fill:none;fill-opacity:1;stroke:#191919;stroke-width:2.3;stroke-linecap:round;stroke-dasharray:none;stroke-opacity:1"
     transform="translate(6090.65 247.755)"
     id="path22" />
  <path
     d="M-6044.226-233.11a2.88 2.88 0 0 0-2.88 2.88v19.97a2.88 2.88 0 1 0 5.76 0v-19.97a2.88 2.88 0 0 0-2.88-2.88z"
     style="color:#000;fill:#595959;fill-opacity:1;stroke:#191919;stroke-width:2.3;stroke-linecap:round;stroke-dasharray:none;stroke-opacity:1"
     transform="translate(6069.232 247.755)"
     id="path23" />
  <path
     d="M-6047.107-227.608h5.761v14.725h-5.761z"
     style="fill:#5e5e5e;fill-opacity:1;stroke:none;stroke-width:2.3;stroke-linecap:round;stroke-linejoin:round"
     transform="translate(6069.232 247.755)"
     id="path24" />
  <path
     d="M-6044.226-233.11a2.88 2.88 0 0 0-2.88 2.88v19.97a2.88 2.88 0 1 0 5.76 0v-19.97a2.88 2.88 0 0 0-2.88-2.88z"
     style="color:#000;fill:none;fill-opacity:1;stroke:#191919;stroke-width:2.3;stroke-linecap:round;stroke-dasharray:none;stroke-opacity:1"
     transform="translate(6069.232 247.755)"
     id="path25" />
  <path
     d="M16995.737 4976.988h-16.822l-8.411-14.569 8.411-14.568h16.822l8.411 14.568z"
     style="fill:#2e302c;fill-opacity:1;stroke:none;stroke-width:10.2862;stroke-linecap:round;stroke-linejoin:round;stroke-dasharray:none;stroke-opacity:1"
     transform="matrix(.19292 0 0 .19292 -3269.369 -949.757)"
     id="path26" />
  <path
     d="M16995.737 4976.988h-16.822l-8.411-14.569 8.411-14.568h16.822l8.411 14.568z"
     style="fill:#2e302c;fill-opacity:1;stroke:none;stroke-width:10.2862;stroke-linecap:round;stroke-linejoin:round;stroke-dasharray:none;stroke-opacity:1"
     transform="matrix(.19292 0 0 .19292 -3244.174 -949.757)"
     id="path27" />
  <path
     d="M16995.737 4976.988h-16.822l-8.411-14.569 8.411-14.568h16.822l8.411 14.568z"
     style="fill:#2e302c;fill-opacity:1;stroke:none;stroke-width:10.2862;stroke-linecap:round;stroke-linejoin:round;stroke-dasharray:none;stroke-opacity:1"
     transform="matrix(.19292 0 0 .19292 -3269.369 -862.249)"
     id="path28" />
  <path
     d="M16995.737 4976.988h-16.822l-8.411-14.569 8.411-14.568h16.822l8.411 14.568z"
     style="fill:#2e302c;fill-opacity:1;stroke:none;stroke-width:10.2862;stroke-linecap:round;stroke-linejoin:round;stroke-dasharray:none;stroke-opacity:1"
     transform="matrix(.19292 0 0 .19292 -3244.174 -862.249)"
     id="path29" />
  <path
     d="M-6001.329-202.887h7.438v80.101h-7.438z"
     style="fill:#565656;fill-opacity:1;stroke:none;stroke-width:1.4885;stroke-linecap:round;stroke-linejoin:round;stroke-dasharray:none;stroke-opacity:1"
     transform="translate(6103.29 212.564)"
     id="path30" />
  <path
     d="M-5993.89-122.786h-11.518v-80.101h11.517"
     style="fill:none;fill-opacity:1;stroke:#000;stroke-width:2.3;stroke-linejoin:round"
     transform="translate(6103.29 212.564)"
     id="path31" />
  <path
     style="fill:#c9d1d9;stroke:#a2a5c0;stroke-width:2.30002142;stroke-linecap:square;stroke-linejoin:round;stroke-miterlimit:10.8;paint-order:fill markers stroke;stroke-dasharray:none"
     d="m 80.635935,56.233066 c -2.298836,-0.353669 -6.01234,2.122002 -6.01234,2.122002 0,0 0.176834,8.134342 2.829336,8.311176 2.652504,0.176834 7.95751,2.298836 7.95751,-3.183004 0,-5.481841 -4.774506,-7.250174 -4.774506,-7.250174 z"
     id="path32" />
  <path
     style="fill:#c9d1d9;stroke:#a2a5c0;stroke-width:2.30002142;stroke-linecap:square;stroke-linejoin:round;stroke-miterlimit:10.8;paint-order:fill markers stroke;stroke-dasharray:none"
     d="M 80.459103,21.750525 C 50.927902,20.335857 54.81824,20.159023 53.226738,25.640863 c -1.591502,5.48184 14.677184,7.780676 22.634692,7.603842 7.957511,-0.176834 14.545621,-11.017632 4.597673,-11.49418 z"
     id="path33"
     sodipodi:nodetypes="ssss" />
  <path
     id="path34"
     style="fill:#c9d1d9;stroke:#a2a5c0;stroke-width:2.30002142;stroke-linecap:square;stroke-linejoin:round;stroke-miterlimit:10.8;paint-order:fill markers stroke;stroke-dasharray:none"
     d="M 1.1501589 1.1497999 L 1.1501589 60.171482 C 3.7591012 58.759524 6.1734115 56.948226 5.8351412 55.172307 C 5.1278077 51.458807 5.2978629 43.775036 7.9574909 37.488643 C 9.9026583 32.890975 6.8963564 19.628482 11.84769 10.079482 C 14.238127 5.4693535 14.758022 3.057014 16.735244 1.1497999 L 1.1501589 1.1497999 z " />
  <path
     id="path35"
     style="fill:#c9d1d9;stroke:#a2a5c0;stroke-width:2.30002;stroke-linecap:square;stroke-linejoin:round;stroke-miterlimit:10.8;stroke-dasharray:none;paint-order:fill markers stroke"
     d="m 1.1501589,88.668432 v 12.839518 l 27.6141391,0 C 28.193421,99.294268 24.556394,94.813583 15.207766,94.782583 7.372981,94.756603 3.7510749,91.300048 1.1501589,88.668432 Z"
     sodipodi:nodetypes="cccsc" />
</svg>
