<?xml version="1.0" encoding="UTF-8" standalone="no"?>
<svg
   xml:space="preserve"
   width="764.035"
   height="682.854"
   viewBox="0 0 202.151 180.672"
   version="1.1"
   id="svg52"
   sodipodi:docname="silo_winter.svg"
   inkscape:version="1.3.2 (091e20e, 2023-11-25, custom)"
   xmlns:inkscape="http://www.inkscape.org/namespaces/inkscape"
   xmlns:sodipodi="http://sodipodi.sourceforge.net/DTD/sodipodi-0.dtd"
   xmlns:xlink="http://www.w3.org/1999/xlink"
   xmlns="http://www.w3.org/2000/svg"
   xmlns:svg="http://www.w3.org/2000/svg"><sodipodi:namedview
     id="namedview52"
     pagecolor="#ffffff"
     bordercolor="#000000"
     borderopacity="0.25"
     inkscape:showpageshadow="2"
     inkscape:pageopacity="0.0"
     inkscape:pagecheckerboard="0"
     inkscape:deskcolor="#d1d1d1"
     inkscape:zoom="0.60115339"
     inkscape:cx="430.83846"
     inkscape:cy="321.88124"
     inkscape:window-width="1920"
     inkscape:window-height="1017"
     inkscape:window-x="-8"
     inkscape:window-y="-8"
     inkscape:window-maximized="1"
     inkscape:current-layer="svg52" /><defs
     id="defs12"><pattern
       xlink:href="#a"
       id="g"
       x="0"
       y="0"
       patternTransform="rotate(45 -13068.338 -12876.998)scale(.21793)"
       preserveAspectRatio="xMidYMid" /><pattern
       id="a"
       width="44.132"
       height="44.131"
       patternTransform="translate(-8952.829 11274.059)"
       patternUnits="userSpaceOnUse"><path
         d="M-2710.991-5339.069h11.676v11.676h-11.676z"
         style="fill:#8c8c8c;fill-opacity:1;stroke:none;stroke-width:2.878;stroke-linecap:square;stroke-linejoin:miter;stroke-dasharray:none;stroke-opacity:1;stop-color:#000"
         transform="rotate(-90 4988.52 -15190.65)scale(3.77953)"
         id="path1" /><g
         fill="#d9d9d9"
         id="g2"><path
           d="M-5339.07 2705.16c2.567-2.588 2.781-4.665 2.781-4.665s-1.137.119-2.78 1.222zM-5333.278 2709.155a13 13 0 0 1 1.543 1.836h-3.469c-2.564-2.585-2.778-4.66-2.778-4.66s2.098.22 4.704 2.824M-5335.21 2699.315h3.47c1.164 1.693 1.285 2.876 1.285 2.876s-2.148-.27-4.754-2.876M-5327.393 2701.715v3.436c-2.606 2.607-4.755 2.874-4.755 2.874s.22-2.101 2.826-4.707a13 13 0 0 1 1.929-1.603"
           style="fill:#a6a6a6;fill-opacity:1;stroke-width:.264583"
           transform="matrix(3.77953 0 0 3.77953 20179.16 -10202.134)"
           id="path2" /></g></pattern><pattern
       xlink:href="#b"
       id="h"
       x="0"
       y="0"
       patternTransform="rotate(45 -13274.212 -12962.272)scale(.21793)"
       preserveAspectRatio="xMidYMid" /><pattern
       id="b"
       width="44.132"
       height="44.131"
       patternTransform="translate(-8952.829 11274.059)"
       patternUnits="userSpaceOnUse"><path
         d="M-2710.991-5339.069h11.676v11.676h-11.676z"
         style="fill:#8c8c8c;fill-opacity:1;stroke:none;stroke-width:2.878;stroke-linecap:square;stroke-linejoin:miter;stroke-dasharray:none;stroke-opacity:1;stop-color:#000"
         transform="rotate(-90 4988.52 -15190.65)scale(3.77953)"
         id="path3" /><g
         fill="#d9d9d9"
         id="g4"><path
           d="M-5339.07 2705.16c2.567-2.588 2.781-4.665 2.781-4.665s-1.137.119-2.78 1.222zM-5333.278 2709.155a13 13 0 0 1 1.543 1.836h-3.469c-2.564-2.585-2.778-4.66-2.778-4.66s2.098.22 4.704 2.824M-5335.21 2699.315h3.47c1.164 1.693 1.285 2.876 1.285 2.876s-2.148-.27-4.754-2.876M-5327.393 2701.715v3.436c-2.606 2.607-4.755 2.874-4.755 2.874s.22-2.101 2.826-4.707a13 13 0 0 1 1.929-1.603"
           style="fill:#a6a6a6;fill-opacity:1;stroke-width:.264583"
           transform="matrix(3.77953 0 0 3.77953 20179.16 -10202.134)"
           id="path4" /></g></pattern><pattern
       xlink:href="#c"
       id="i"
       x="0"
       y="0"
       patternTransform="rotate(135 158.95 -3648.849)scale(.21793)"
       preserveAspectRatio="xMidYMid" /><pattern
       id="c"
       width="44.132"
       height="44.131"
       patternTransform="translate(-8952.829 11274.059)"
       patternUnits="userSpaceOnUse"><path
         d="M-2710.991-5339.069h11.676v11.676h-11.676z"
         style="fill:#8c8c8c;fill-opacity:1;stroke:none;stroke-width:2.878;stroke-linecap:square;stroke-linejoin:miter;stroke-dasharray:none;stroke-opacity:1;stop-color:#000"
         transform="rotate(-90 4988.52 -15190.65)scale(3.77953)"
         id="path5" /><g
         fill="#d9d9d9"
         id="g6"><path
           d="M-5339.07 2705.16c2.567-2.588 2.781-4.665 2.781-4.665s-1.137.119-2.78 1.222zM-5333.278 2709.155a13 13 0 0 1 1.543 1.836h-3.469c-2.564-2.585-2.778-4.66-2.778-4.66s2.098.22 4.704 2.824M-5335.21 2699.315h3.47c1.164 1.693 1.285 2.876 1.285 2.876s-2.148-.27-4.754-2.876M-5327.393 2701.715v3.436c-2.606 2.607-4.755 2.874-4.755 2.874s.22-2.101 2.826-4.707a13 13 0 0 1 1.929-1.603"
           style="fill:#a6a6a6;fill-opacity:1;stroke-width:.264583"
           transform="matrix(3.77953 0 0 3.77953 20179.16 -10202.134)"
           id="path6" /></g></pattern><pattern
       xlink:href="#d"
       id="j"
       x="0"
       y="0"
       patternTransform="rotate(135 123.628 -3734.125)scale(.21793)"
       preserveAspectRatio="xMidYMid" /><pattern
       id="d"
       width="44.132"
       height="44.131"
       patternTransform="translate(-8952.829 11274.059)"
       patternUnits="userSpaceOnUse"><path
         d="M-2710.991-5339.069h11.676v11.676h-11.676z"
         style="fill:#8c8c8c;fill-opacity:1;stroke:none;stroke-width:2.878;stroke-linecap:square;stroke-linejoin:miter;stroke-dasharray:none;stroke-opacity:1;stop-color:#000"
         transform="rotate(-90 4988.52 -15190.65)scale(3.77953)"
         id="path7" /><g
         fill="#d9d9d9"
         id="g8"><path
           d="M-5339.07 2705.16c2.567-2.588 2.781-4.665 2.781-4.665s-1.137.119-2.78 1.222zM-5333.278 2709.155a13 13 0 0 1 1.543 1.836h-3.469c-2.564-2.585-2.778-4.66-2.778-4.66s2.098.22 4.704 2.824M-5335.21 2699.315h3.47c1.164 1.693 1.285 2.876 1.285 2.876s-2.148-.27-4.754-2.876M-5327.393 2701.715v3.436c-2.606 2.607-4.755 2.874-4.755 2.874s.22-2.101 2.826-4.707a13 13 0 0 1 1.929-1.603"
           style="fill:#a6a6a6;fill-opacity:1;stroke-width:.264583"
           transform="matrix(3.77953 0 0 3.77953 20179.16 -10202.134)"
           id="path8" /></g></pattern><pattern
       xlink:href="#e"
       id="k"
       x="0"
       y="0"
       patternTransform="rotate(45 -13059.096 -12991.308)scale(.21793)"
       preserveAspectRatio="xMidYMid" /><pattern
       id="e"
       width="44.132"
       height="44.131"
       patternTransform="translate(-8952.829 11274.059)"
       patternUnits="userSpaceOnUse"><path
         d="M-2710.991-5339.069h11.676v11.676h-11.676z"
         style="fill:#8c8c8c;fill-opacity:1;stroke:none;stroke-width:2.878;stroke-linecap:square;stroke-linejoin:miter;stroke-dasharray:none;stroke-opacity:1;stop-color:#000"
         transform="rotate(-90 4988.52 -15190.65)scale(3.77953)"
         id="path9" /><g
         fill="#d9d9d9"
         id="g10"><path
           d="M-5339.07 2705.16c2.567-2.588 2.781-4.665 2.781-4.665s-1.137.119-2.78 1.222zM-5333.278 2709.155a13 13 0 0 1 1.543 1.836h-3.469c-2.564-2.585-2.778-4.66-2.778-4.66s2.098.22 4.704 2.824M-5335.21 2699.315h3.47c1.164 1.693 1.285 2.876 1.285 2.876s-2.148-.27-4.754-2.876M-5327.393 2701.715v3.436c-2.606 2.607-4.755 2.874-4.755 2.874s.22-2.101 2.826-4.707a13 13 0 0 1 1.929-1.603"
           style="fill:#a6a6a6;fill-opacity:1;stroke-width:.264583"
           transform="matrix(3.77953 0 0 3.77953 20179.16 -10202.134)"
           id="path10" /></g></pattern><pattern
       xlink:href="#f"
       id="l"
       x="0"
       y="0"
       patternTransform="matrix(.23348 0 0 .23348 -9770.22 13911.881)"
       preserveAspectRatio="xMidYMid" /><pattern
       id="f"
       width="44.132"
       height="44.131"
       patternTransform="translate(-8952.829 11274.059)"
       patternUnits="userSpaceOnUse"><path
         d="M-2710.991-5339.069h11.676v11.676h-11.676z"
         style="fill:#8c8c8c;fill-opacity:1;stroke:none;stroke-width:2.878;stroke-linecap:square;stroke-linejoin:miter;stroke-dasharray:none;stroke-opacity:1;stop-color:#000"
         transform="rotate(-90 4988.52 -15190.65)scale(3.77953)"
         id="path11" /><g
         fill="#d9d9d9"
         id="g12"><path
           d="M-5339.07 2705.16c2.567-2.588 2.781-4.665 2.781-4.665s-1.137.119-2.78 1.222zM-5333.278 2709.155a13 13 0 0 1 1.543 1.836h-3.469c-2.564-2.585-2.778-4.66-2.778-4.66s2.098.22 4.704 2.824M-5335.21 2699.315h3.47c1.164 1.693 1.285 2.876 1.285 2.876s-2.148-.27-4.754-2.876M-5327.393 2701.715v3.436c-2.606 2.607-4.755 2.874-4.755 2.874s.22-2.101 2.826-4.707a13 13 0 0 1 1.929-1.603"
           style="fill:#a6a6a6;fill-opacity:1;stroke-width:.264583"
           transform="matrix(3.77953 0 0 3.77953 20179.16 -10202.134)"
           id="path12" /></g></pattern></defs><g
     transform="rotate(90 1580.107 3386.183)"
     id="g52"><path
       d="M-1644.02 4804.318c-6.2-6.198-16.275-6.198-22.473 0-6.2 6.2-6.2 16.276-.001 22.474 6.198 6.2 16.275 6.198 22.473 0 6.2-6.198 6.2-16.274 0-22.473z"
       style="fill:url(#g);fill-opacity:1;stroke-width:.499205"
       id="path13" /><path
       d="M-1644.02 4804.318c-6.2-6.199-16.275-6.198-22.474 0-6.199 6.2-6.2 16.276 0 22.474 6.198 6.199 16.275 6.198 22.473 0 6.2-6.199 6.2-16.275 0-22.474"
       style="fill:#454545;fill-opacity:.44;stroke:none;stroke-width:2.06452;stroke-linecap:square;stroke-linejoin:bevel;stroke-dasharray:none;stroke-opacity:1"
       id="path14" /><circle
       cx="2234.608"
       cy="4575.756"
       r="16.094"
       style="fill:none;fill-opacity:1;stroke:#191919;stroke-width:2.3;stroke-linejoin:round;stroke-dasharray:none;stroke-opacity:1"
       transform="rotate(45)"
       id="circle14" /><g
       style="stroke-width:2.8396;stroke-dasharray:none"
       id="g15"><path
         d="M-883.371 4313.267v7.27c0 1.107-.891 1.998-1.998 1.998a1.993 1.993 0 0 1-1.997-1.998v-7.27c0-1.106.89-1.997 1.997-1.997s1.998.89 1.998 1.997M-883.371 4341.743v7.27c0 1.107-.891 1.997-1.998 1.997a1.993 1.993 0 0 1-1.997-1.997v-7.27c0-1.107.89-1.997 1.997-1.997s1.998.89 1.998 1.997M-867.345 4333.138h-7.27a1.993 1.993 0 0 1-1.998-1.998c0-1.107.891-1.997 1.998-1.997h7.27c1.106 0 1.997.89 1.997 1.997s-.89 1.998-1.997 1.998M-895.821 4333.138h-7.27a1.993 1.993 0 0 1-1.997-1.998c0-1.107.89-1.997 1.997-1.997h7.27c1.107 0 1.997.89 1.997 1.997s-.89 1.998-1.997 1.998"
         style="fill:#ccc;fill-opacity:1;stroke:#191919;stroke-width:2.8396;stroke-linecap:round;stroke-linejoin:round;stroke-dasharray:none;stroke-opacity:1"
         transform="scale(.80997)rotate(45 -3413.243 3739.917)"
         id="path15" /></g><circle
       cx="2234.608"
       cy="4575.756"
       r="9.997"
       style="fill:#999;fill-opacity:1;stroke:#191919;stroke-width:2.3;stroke-linejoin:round;stroke-dasharray:none;stroke-opacity:1"
       transform="rotate(45)"
       id="circle15" /><path
       d="M-1764.618 4924.916c-6.199-6.199-16.274-6.199-22.473 0s-6.2 16.275 0 22.474c6.199 6.199 16.275 6.198 22.474 0s6.199-16.274 0-22.473z"
       style="fill:url(#h);fill-opacity:1;stroke-width:.499205"
       id="path16" /><path
       d="M-1764.618 4924.916c-6.199-6.199-16.275-6.199-22.473 0-6.2 6.199-6.2 16.275-.001 22.474s16.275 6.198 22.474 0c6.198-6.2 6.199-16.276 0-22.474"
       style="fill:#454545;fill-opacity:.44;stroke:none;stroke-width:2.06452;stroke-linecap:square;stroke-linejoin:bevel;stroke-dasharray:none;stroke-opacity:1"
       id="path17" /><circle
       cx="2234.608"
       cy="4746.307"
       r="16.094"
       style="fill:none;fill-opacity:1;stroke:#191919;stroke-width:2.3;stroke-linejoin:round;stroke-dasharray:none;stroke-opacity:1"
       transform="rotate(45)"
       id="circle17" /><g
       style="stroke-width:2.8396;stroke-dasharray:none"
       id="g18"><path
         d="M-883.371 4313.267v7.27c0 1.107-.891 1.998-1.998 1.998a1.993 1.993 0 0 1-1.997-1.998v-7.27c0-1.106.89-1.997 1.997-1.997s1.998.89 1.998 1.997M-883.371 4341.743v7.27c0 1.107-.891 1.997-1.998 1.997a1.993 1.993 0 0 1-1.997-1.997v-7.27c0-1.107.89-1.997 1.997-1.997s1.998.89 1.998 1.997M-867.345 4333.138h-7.27a1.993 1.993 0 0 1-1.998-1.998c0-1.107.891-1.997 1.998-1.997h7.27c1.106 0 1.997.89 1.997 1.997s-.89 1.998-1.997 1.998M-895.821 4333.138h-7.27a1.993 1.993 0 0 1-1.997-1.998c0-1.107.89-1.997 1.997-1.997h7.27c1.107 0 1.997.89 1.997 1.997s-.89 1.998-1.997 1.998"
         style="fill:#ccc;fill-opacity:1;stroke:#191919;stroke-width:2.8396;stroke-linecap:round;stroke-linejoin:round;stroke-dasharray:none;stroke-opacity:1"
         transform="scale(.80997)rotate(45 -3667.416 3634.635)"
         id="path18" /></g><circle
       cx="2234.608"
       cy="4746.307"
       r="9.997"
       style="fill:#999;fill-opacity:1;stroke:#191919;stroke-width:2.3;stroke-linejoin:round;stroke-dasharray:none;stroke-opacity:1"
       transform="rotate(45)"
       id="circle18" /><path
       d="M-1644.105 4947.674c6.198-6.2 6.198-16.275 0-22.473-6.2-6.2-16.276-6.2-22.474 0-6.2 6.198-6.198 16.275 0 22.474 6.2 6.198 16.275 6.198 22.474 0z"
       style="fill:url(#i);fill-opacity:1;stroke-width:.499205"
       id="path19" /><path
       d="M-1644.105 4947.674c6.198-6.2 6.198-16.275 0-22.474-6.2-6.198-16.276-6.2-22.474 0-6.2 6.198-6.198 16.275 0 22.473 6.199 6.2 16.275 6.2 22.474 0"
       style="fill:#454545;fill-opacity:.44;stroke:none;stroke-width:2.06452;stroke-linecap:square;stroke-linejoin:bevel;stroke-dasharray:none;stroke-opacity:1"
       id="path20" /><circle
       cx="4661.032"
       cy="-2319.883"
       r="16.094"
       style="fill:none;fill-opacity:1;stroke:#191919;stroke-width:2.3;stroke-linejoin:round;stroke-dasharray:none;stroke-opacity:1"
       transform="rotate(135)"
       id="circle20" /><g
       style="stroke-width:2.8396;stroke-dasharray:none"
       id="g21"><path
         d="M-883.371 4313.267v7.27c0 1.107-.891 1.998-1.998 1.998a1.993 1.993 0 0 1-1.997-1.998v-7.27c0-1.106.89-1.997 1.997-1.997s1.998.89 1.998 1.997M-883.371 4341.743v7.27c0 1.107-.891 1.997-1.998 1.997a1.993 1.993 0 0 1-1.997-1.997v-7.27c0-1.107.89-1.997 1.997-1.997s1.998.89 1.998 1.997M-867.345 4333.138h-7.27a1.993 1.993 0 0 1-1.998-1.998c0-1.107.891-1.997 1.998-1.997h7.27c1.106 0 1.997.89 1.997 1.997s-.89 1.998-1.997 1.998M-895.821 4333.138h-7.27a1.993 1.993 0 0 1-1.997-1.998c0-1.107.89-1.997 1.997-1.997h7.27c1.107 0 1.997.89 1.997 1.997s-.89 1.998-1.997 1.998"
         style="fill:#ccc;fill-opacity:1;stroke:#191919;stroke-width:2.8396;stroke-linecap:round;stroke-linejoin:round;stroke-dasharray:none;stroke-opacity:1"
         transform="scale(-.80997)rotate(-45 -12005.444 -4417.45)"
         id="path21" /></g><circle
       cx="4661.032"
       cy="-2319.883"
       r="9.997"
       style="fill:#999;fill-opacity:1;stroke:#191919;stroke-width:2.3;stroke-linejoin:round;stroke-dasharray:none;stroke-opacity:1"
       transform="rotate(135)"
       id="circle21" /><path
       d="M-1764.703 4827.076c6.199-6.199 6.199-16.274 0-22.473s-16.275-6.2-22.474 0c-6.199 6.199-6.198 16.275 0 22.474s16.274 6.199 22.473 0z"
       style="fill:url(#j);fill-opacity:1;stroke-width:.499205"
       id="path22" /><path
       d="M-1764.703 4827.076c6.199-6.199 6.198-16.275 0-22.473-6.199-6.2-16.275-6.2-22.474-.001s-6.198 16.275 0 22.474c6.2 6.199 16.275 6.199 22.474 0"
       style="fill:#454545;fill-opacity:.44;stroke:none;stroke-width:2.06452;stroke-linecap:square;stroke-linejoin:bevel;stroke-dasharray:none;stroke-opacity:1"
       id="path23" /><circle
       cx="4661.032"
       cy="-2149.332"
       r="16.094"
       style="fill:none;fill-opacity:1;stroke:#191919;stroke-width:2.3;stroke-linejoin:round;stroke-dasharray:none;stroke-opacity:1"
       transform="rotate(135)"
       id="circle23" /><g
       style="stroke-width:2.8396;stroke-dasharray:none"
       id="g24"><path
         d="M-883.371 4313.267v7.27c0 1.107-.891 1.998-1.998 1.998a1.993 1.993 0 0 1-1.997-1.998v-7.27c0-1.106.89-1.997 1.997-1.997s1.998.89 1.998 1.997M-883.371 4341.743v7.27c0 1.107-.891 1.997-1.998 1.997a1.993 1.993 0 0 1-1.997-1.997v-7.27c0-1.107.89-1.997 1.997-1.997s1.998.89 1.998 1.997M-867.345 4333.138h-7.27a1.993 1.993 0 0 1-1.998-1.998c0-1.107.891-1.997 1.998-1.997h7.27c1.106 0 1.997.89 1.997 1.997s-.89 1.998-1.997 1.998M-895.821 4333.138h-7.27a1.993 1.993 0 0 1-1.997-1.998c0-1.107.89-1.997 1.997-1.997h7.27c1.107 0 1.997.89 1.997 1.997s-.89 1.998-1.997 1.998"
         style="fill:#ccc;fill-opacity:1;stroke:#191919;stroke-width:2.8396;stroke-linecap:round;stroke-linejoin:round;stroke-dasharray:none;stroke-opacity:1"
         transform="scale(-.80997)rotate(-45 -11751.27 -4522.731)"
         id="path24" /></g><circle
       cx="4661.032"
       cy="-2149.332"
       r="9.997"
       style="fill:#999;fill-opacity:1;stroke:#191919;stroke-width:2.3;stroke-linejoin:round;stroke-dasharray:none;stroke-opacity:1"
       transform="rotate(135)"
       id="circle24" /><path
       d="M-1685.974 4765.206h-59.544v27.287h59.545z"
       style="fill:url(#k);fill-opacity:1;stroke-width:.499205"
       id="path25" /><path
       d="M-1685.974 4765.206h-59.544l-.001 27.286h59.545z"
       style="fill:#454545;fill-opacity:.44;stroke:none;stroke-width:2.06452;stroke-linecap:square;stroke-linejoin:bevel;stroke-dasharray:none;stroke-opacity:1"
       id="path26" /><rect
       width="59.359"
       height="41.21"
       x="-1745.42"
       y="4765.29"
       rx="0"
       ry="0"
       style="fill:none;fill-opacity:1;stroke:#191919;stroke-width:2.30002472;stroke-linecap:round;stroke-linejoin:miter;stroke-dasharray:none;stroke-opacity:1"
       id="rect26" /><path
       d="M-1717.071 4772.351c-2.82-.073-15.199 4.175-16.137-2.567-.668-4.803-11.448-7-12.144-3.492-2.072 10.45 2.056 12.716.591 21.165-.785 4.529 4.636 7.85 6.77 7.594 6.792-.814 30.503-8.187 22.71-11.871-4.062-1.92.578-10.768-1.79-10.829"
       style="fill:#1f1f1f;fill-opacity:.44;stroke-width:5.10283;stroke-linecap:square;stroke-linejoin:bevel"
       id="path27" /><path
       d="M-1700.925 4769a8.1 8.1 0 0 0-8.1 8.1v27.472a8.1 8.1 0 0 0 8.1 8.1 8.1 8.1 0 0 0 8.1-8.1v-27.473a8.1 8.1 0 0 0-8.1-8.1z"
       style="color:#000;fill:#4d4d4d;fill-opacity:1;stroke:#191919;stroke-width:2.3;stroke-linecap:round;stroke-dasharray:none;stroke-opacity:1"
       id="path28" /><path
       d="M-1690.504 4796.875a2.333 2.333 0 0 0-2.334-2.333h-16.174a2.333 2.333 0 1 0 0 4.666h16.174a2.333 2.333 0 0 0 2.334-2.333z"
       style="color:#000;fill:#595959;fill-opacity:1;stroke:#191919;stroke-width:1.86294;stroke-linecap:round;stroke-dasharray:none;stroke-opacity:1"
       id="path29" /><path
       d="M-1690.504 4779.528a2.333 2.333 0 0 0-2.334-2.334h-16.174a2.333 2.333 0 1 0 0 4.667h16.174a2.333 2.333 0 0 0 2.334-2.333z"
       style="color:#000;fill:#595959;fill-opacity:1;stroke:#191919;stroke-width:2.3;stroke-linecap:round;stroke-dasharray:none;stroke-opacity:1"
       id="path30" /><g
       style="fill:#4d4d4d;fill-opacity:1;stroke:#191919;stroke-width:2.3;stroke-dasharray:none;stroke-opacity:1"
       id="g32"><path
         d="M-950.78 4244.487a1.05 1.05 0 0 0-.99.73l-1.726 5.483-5.483-1.726a1.046 1.046 0 0 0-1.312.685 1.046 1.046 0 0 0 .684 1.31l5.483 1.726-1.726 5.483a1.046 1.046 0 0 0 .682 1.313 1.046 1.046 0 0 0 1.312-.683l1.727-5.485 5.483 1.726a1.046 1.046 0 0 0 1.312-.682 1.046 1.046 0 0 0-.682-1.312l-5.485-1.727 1.726-5.483a1.046 1.046 0 0 0-.682-1.31 1 1 0 0 0-.324-.048"
         style="color:#000;fill:#992626;fill-opacity:1;stroke:#511212;stroke-width:1.1;stroke-linecap:round;stroke-linejoin:round;stroke-dasharray:none;stroke-opacity:1"
         transform="matrix(.80997 0 0 .80997 -929.172 1335.383)"
         id="path31" /><path
         d="M-952.813 4244.173c-4.317 0-7.839 3.52-7.839 7.837s3.522 7.84 7.84 7.84 7.839-3.523 7.839-7.84c0-4.316-3.522-7.838-7.84-7.838m0 2.09a5.73 5.73 0 0 1 5.749 5.747 5.73 5.73 0 0 1-5.749 5.748 5.73 5.73 0 0 1-5.748-5.748 5.73 5.73 0 0 1 5.748-5.747"
         style="color:#000;fill:#992626;fill-opacity:1;stroke:#511212;stroke-width:1.1;stroke-linecap:round;stroke-linejoin:round;stroke-dasharray:none;stroke-opacity:1"
         transform="matrix(.80997 0 0 .80997 -929.172 1335.383)"
         id="path32" /></g><path
       id="path58"
       style="fill:#c9d1d9;stroke:#a2a5c0;stroke-width:2.30002472;stroke-linecap:square;stroke-linejoin:round;stroke-miterlimit:10.8;stroke-dasharray:none;paint-order:fill markers stroke"
       d="M 190.89599 60.655777 C 192.0879 63.034888 193.82359 64.968385 195.85642 66.238903 C 199.37742 68.439532 195.85605 79.002632 199.15699 79.442758 C 199.70508 79.515837 200.33323 79.422209 200.99977 79.200912 L 200.99977 60.655777 L 190.89599 60.655777 z "
       transform="rotate(-90,1580.107,3386.183)" /><path
       d="M-1730.557 4769a8.1 8.1 0 0 0-8.1 8.1v27.472a8.1 8.1 0 0 0 8.1 8.1 8.1 8.1 0 0 0 8.1-8.1v-27.473a8.1 8.1 0 0 0-8.1-8.1z"
       style="color:#000;fill:#4d4d4d;fill-opacity:1;stroke:#191919;stroke-width:2.3;stroke-linecap:round;stroke-dasharray:none;stroke-opacity:1"
       id="path33" /><path
       d="M-1720.136 4796.875a2.333 2.333 0 0 0-2.333-2.333h-16.175a2.333 2.333 0 0 0 0 4.666h16.175a2.333 2.333 0 0 0 2.333-2.333z"
       style="color:#000;fill:#595959;fill-opacity:1;stroke:#191919;stroke-width:1.86294;stroke-linecap:round;stroke-dasharray:none;stroke-opacity:1"
       id="path34" /><path
       d="M-1720.136 4779.528a2.333 2.333 0 0 0-2.333-2.334h-16.175a2.333 2.333 0 1 0 0 4.667h16.175a2.333 2.333 0 0 0 2.333-2.333z"
       style="color:#000;fill:#595959;fill-opacity:1;stroke:#191919;stroke-width:2.3;stroke-linecap:round;stroke-dasharray:none;stroke-opacity:1"
       id="path35" /><circle
       cx="-1715.741"
       cy="4875.955"
       r="87.784"
       style="fill:#ccc;fill-opacity:1;stroke:none;stroke-width:5.10283;stroke-linecap:square;stroke-linejoin:bevel;stroke-dasharray:none;stroke-opacity:1"
       id="circle35" /><path
       d="M-1753.846 4894.435c.173 2.816-.239 11.29-6.874 12.813-4.726 1.084 2.2 8.324 2.948 11.821 1.064 4.978-2.774 13.225 2.52 13.327 8.886.172 11.31 6.702 15.457 3.746 2.04-1.455-6.495-14.863-3.452-19.803 1.537-2.496 9.923-2.282 9.482-4.385-2.227-10.631-20.474-23.907-20.081-17.519"
       style="fill:#666;fill-opacity:.3;stroke-width:5.10283;stroke-linecap:square;stroke-linejoin:bevel"
       id="path36" /><path
       d="M-1715.74 4788.17c-48.483 0-87.785 39.302-87.785 87.784 0 48.481 39.302 87.784 87.784 87.784s87.785-39.303 87.785-87.785-39.303-87.784-87.785-87.784m0 14.244c40.614 0 73.538 32.925 73.538 73.54 0 40.614-32.924 73.538-73.539 73.538-40.614 0-73.539-32.924-73.539-73.539 0-40.614 32.925-73.538 73.54-73.539"
       style="fill:#b2b2b2;fill-opacity:1;stroke-width:5.10283;stroke-linecap:square;stroke-linejoin:bevel"
       id="path37" /><path
       d="M-1733.88 4789.646c-38.964 10.899-45.899 33.695-52.534 35.217-4.727 1.085-6.509 7.389-7.191 10.9-1.133 5.829 18.01-4.465 22.727-2.058 3.288 1.677 12.958 1.113 11.875-4.842-.817-4.49 8.369-4.173 9.962-5.309 2.042-1.455-1.673-10.892 1.37-15.833 1.537-2.495 11.483-2.99 11.042-5.093-2.227-10.632 8.912-14.706 2.749-12.982"
       style="fill:#666;fill-opacity:.3;stroke-width:5.10283;stroke-linecap:square;stroke-linejoin:bevel"
       id="path38" /><g
       style="stroke:#999;stroke-opacity:1"
       id="g39"><path
         d="M-971.73 4479.545v-217.379M-1080.42 4370.856h217.379M-1048.585 4447.71l153.71-153.71M-1048.585 4294l153.71 153.71"
         style="fill:#4d4d4d;fill-opacity:1;stroke:#999;stroke-width:6.29999;stroke-linejoin:round;stroke-dasharray:none;stroke-opacity:1"
         transform="matrix(.80997 0 0 .80997 -928.665 1335.68)"
         id="path39" /></g><path
       d="M-1646.424 4829.703c-.935 2.661.05 14.584-6.654 13.407-4.776-.838-10.763 2.766-11.595 6.245-1.202 5.025 2.658 18.26 11.23 16.344 2.447-.547 3.545-8.326 8.269-11.695 2.386-1.701 10.029 1.756 10.44-.353 2.082-10.66-9.568-29.987-11.69-23.948"
       style="fill:#666;fill-opacity:.3;stroke-width:5.10283;stroke-linecap:square;stroke-linejoin:bevel"
       id="path40" /><circle
       cx="-1715.741"
       cy="4875.955"
       r="87.784"
       style="fill:none;fill-opacity:1;stroke:#191919;stroke-width:5.10275816;stroke-linecap:square;stroke-linejoin:bevel;stroke-dasharray:none;stroke-opacity:1"
       id="circle40" /><path
       d="M-1694.58 4848.675c-.935 2.661.05 14.584-6.654 13.407-4.776-.838-10.763 2.767-11.595 6.245-1.202 5.026 2.658 18.26 11.23 16.344 2.447-.547 3.545-8.326 8.27-11.695 2.385-1.701 10.028 1.756 10.44-.353 2.08-10.66-9.569-29.987-11.69-23.948"
       style="fill:#a6a6a6;fill-opacity:1;stroke-width:5.10283;stroke-linecap:square;stroke-linejoin:bevel"
       id="path41" /><path
       d="M-1715.74 4836.554c-21.73 0-39.4 17.67-39.4 39.4s17.67 39.4 39.4 39.4c21.731 0 39.4-17.67 39.4-39.4s-17.669-39.4-39.4-39.4"
       style="fill:url(#l);fill-opacity:1;stroke-width:.53484"
       id="path42" /><circle
       cx="-1715.741"
       cy="4875.955"
       r="38.052"
       style="fill:#454545;fill-opacity:.44;stroke:none;stroke-width:2.21189;stroke-linecap:square;stroke-linejoin:bevel;stroke-dasharray:none;stroke-opacity:1"
       id="circle42" /><circle
       cx="-1715.741"
       cy="4875.955"
       r="38.453"
       style="fill:none;fill-opacity:1;stroke:#404040;stroke-width:5.10283;stroke-linecap:square;stroke-linejoin:bevel;stroke-dasharray:none;stroke-opacity:1"
       id="circle43" /><path
       d="M-1678.672 4882.064c-2.82-.073-12.39 12.096-13.329 5.354-.668-4.803-14.694-5.824-18.26-5.547-5.152.399 4.038 4.097 8.493 11.667 1.272 2.16-12.459-1.083-10.158 10.55.568 2.875 4.636 7.85 6.77 7.595 10.784-1.293 32.882-29.454 26.484-29.619"
       style="fill:#1f1f1f;fill-opacity:.44;stroke-width:5.10283;stroke-linecap:square;stroke-linejoin:bevel"
       id="path43" /><g
       style="fill:#676767;fill-opacity:1;stroke:#2a2a2a;stroke-opacity:1"
       id="g44"><path
         d="M-918.858 4370.802a5.57 5.57 0 0 1-5.569 5.57 5.57 5.57 0 0 1-5.57-5.57 5.57 5.57 0 0 1 5.57-5.57 5.57 5.57 0 0 1 5.57 5.57M-1013.156 4370.802a5.57 5.57 0 0 1-5.57 5.57 5.57 5.57 0 0 1-5.569-5.57 5.57 5.57 0 0 1 5.57-5.57 5.57 5.57 0 0 1 5.569 5.57"
         style="fill:#676767;fill-opacity:1;stroke:#2a2a2a;stroke-width:2.3;stroke-linecap:round;stroke-linejoin:round;stroke-opacity:1"
         transform="matrix(.80997 0 0 .80997 -928.79 1335.723)"
         id="path44" /></g><g
       style="fill:#676767;fill-opacity:1;stroke:#2a2a2a;stroke-opacity:1"
       id="g45"><path
         d="M-918.858 4370.802a5.57 5.57 0 0 1-5.569 5.57 5.57 5.57 0 0 1-5.57-5.57 5.57 5.57 0 0 1 5.57-5.57 5.57 5.57 0 0 1 5.57 5.57M-1013.156 4370.802a5.57 5.57 0 0 1-5.57 5.57 5.57 5.57 0 0 1-5.569-5.57 5.57 5.57 0 0 1 5.57-5.57 5.57 5.57 0 0 1 5.569 5.57"
         style="fill:#676767;fill-opacity:1;stroke:#2a2a2a;stroke-width:2.3;stroke-linecap:round;stroke-linejoin:round;stroke-opacity:1"
         transform="matrix(0 .80997 -.80997 0 1824.49 5662.904)"
         id="path45" /></g><g
       style="fill:#676767;fill-opacity:1;stroke:#2a2a2a;stroke-opacity:1"
       id="g46"><path
         d="M-918.858 4370.802a5.57 5.57 0 0 1-5.569 5.57 5.57 5.57 0 0 1-5.57-5.57 5.57 5.57 0 0 1 5.57-5.57 5.57 5.57 0 0 1 5.57 5.57M-1013.156 4370.802a5.57 5.57 0 0 1-5.57 5.57 5.57 5.57 0 0 1-5.569-5.57 5.57 5.57 0 0 1 5.57-5.57 5.57 5.57 0 0 1 5.569 5.57"
         style="fill:#676767;fill-opacity:1;stroke:#2a2a2a;stroke-width:2.3;stroke-linecap:round;stroke-linejoin:round;stroke-opacity:1"
         transform="scale(.80997)rotate(45 -3535.557 3811.169)"
         id="path46" /></g><g
       style="fill:#676767;fill-opacity:1;stroke:#2a2a2a;stroke-opacity:1"
       id="g47"><path
         d="M-918.858 4370.802a5.57 5.57 0 0 1-5.569 5.57 5.57 5.57 0 0 1-5.57-5.57 5.57 5.57 0 0 1 5.57-5.57 5.57 5.57 0 0 1 5.57 5.57M-1013.156 4370.802a5.57 5.57 0 0 1-5.57 5.57 5.57 5.57 0 0 1-5.569-5.57 5.57 5.57 0 0 1 5.57-5.57 5.57 5.57 0 0 1 5.569 5.57"
         style="fill:#676767;fill-opacity:1;stroke:#2a2a2a;stroke-width:2.3;stroke-linecap:round;stroke-linejoin:round;stroke-opacity:1"
         transform="scale(-.80997)rotate(-45 -11969.337 -4554.321)"
         id="path47" /></g><path
       d="M-1715.741 4835.881c-22.113 0-40.072 17.96-40.072 40.073 0 22.112 17.96 40.072 40.071 40.072 22.113 0 40.074-17.96 40.074-40.072s-17.961-40.073-40.074-40.073zm0 3.24c20.36 0 36.833 16.472 36.833 36.833s-16.472 36.832-36.834 36.832c-20.36 0-36.831-16.47-36.831-36.832 0-20.361 16.47-36.833 36.832-36.833z"
       style="color:#000;fill:#676767;fill-opacity:1;stroke:#2a2a2a;stroke-width:1.86294;stroke-linecap:square;stroke-linejoin:bevel;stroke-dasharray:none;stroke-opacity:1"
       id="path48" /><g
       style="stroke-width:1.06043"
       transform="matrix(.76387 0 0 .76376 -2855.281 3818.961)"
       id="g51"><circle
         cx="1480.571"
         cy="1371.126"
         r="20.27"
         style="fill:#676767;fill-opacity:1;stroke:#2a2a2a;stroke-width:2.43899;stroke-linecap:round;stroke-linejoin:round;stroke-dasharray:none;stroke-opacity:1"
         id="circle48" /><circle
         cx="1506.204"
         cy="1409.008"
         r="8.016"
         style="fill:#4d4d4d;fill-opacity:1;stroke:#2a2a2a;stroke-width:2.43899;stroke-linecap:round;stroke-linejoin:round;stroke-dasharray:none;stroke-opacity:1"
         id="circle49" /><circle
         cx="1477.733"
         cy="1409.008"
         r="8.016"
         style="fill:#4d4d4d;fill-opacity:1;stroke:#2a2a2a;stroke-width:2.43899;stroke-linecap:round;stroke-linejoin:round;stroke-dasharray:none;stroke-opacity:1"
         id="circle50" /><circle
         cx="1480.571"
         cy="1371.126"
         r="15.257"
         style="fill:#070707;fill-opacity:1;stroke:#2a2a2a;stroke-width:2.43899;stroke-linecap:round;stroke-linejoin:round;stroke-dasharray:none;stroke-opacity:1"
         id="circle51" /></g><path
       style="fill:#c9d1d9;stroke:#a2a5c0;stroke-width:2.30002;stroke-linecap:square;stroke-linejoin:round;stroke-miterlimit:10.8;stroke-dasharray:none;paint-order:fill markers stroke"
       d="m -1718.931,4775.2751 c -0.2185,1.4964 2.2007,4.6213 3.5211,2.8608 1.3203,-1.7605 4.2573,-3.9777 2.8608,-5.5016 -1.5554,-1.6973 -6.0493,0.3627 -6.3819,2.6408 z"
       id="path59"
       sodipodi:nodetypes="ssss" /></g><path
     id="path52"
     style="fill:#c9d1d9;stroke:#a2a5c0;stroke-width:5.29167081;stroke-linecap:square;stroke-linejoin:round;stroke-miterlimit:10.8;paint-order:fill markers stroke;stroke-dasharray:none"
     d="M 18.330162 40.412552 A 87.783997 87.783997 0 0 0 2.5507507 90.335125 A 87.783997 87.783997 0 0 0 90.335125 178.11898 A 87.783997 87.783997 0 0 0 103.50901 177.07719 C 114.54632 162.02007 109.09416 148.66556 104.97042 142.60123 C 101.22935 137.09964 60.297383 129.61708 47.973853 116.85342 C 35.650324 104.08977 36.866424 79.257203 43.572568 67.779378 C 52.254018 52.920745 30.436415 43.775929 18.330162 40.412552 z " /><path
     style="fill:#c9d1d9;stroke:#a2a5c0;stroke-width:3.96875311;stroke-linecap:square;stroke-linejoin:round;stroke-miterlimit:10.8;stroke-dasharray:none;paint-order:fill markers stroke"
     d="m 116.63352,132.25801 c -2.86082,4.40127 -2.20063,7.92228 -0.88025,8.36241 1.32038,0.44012 6.38183,4.84139 6.6019,-1.54044 0.22006,-6.38184 -5.72165,-6.82197 -5.72165,-6.82197 z"
     id="path53" /><path
     id="path54"
     style="fill:#c9d1d9;stroke:#a2a5c0;stroke-width:5.29167;stroke-linecap:square;stroke-linejoin:round;stroke-miterlimit:10.8;stroke-dasharray:none;paint-order:fill markers stroke"
     d="M 102.93385 3.4664578 C 103.75973 14.493551 118.07614 14.827456 125.21623 27.06762 C 132.60011 39.725708 156.75886 45.905746 164.17305 42.905425 A 87.783997 87.783997 0 0 0 102.93385 3.4664578 z " /><path
     style="fill:#c9d1d9;stroke:#a2a5c0;stroke-width:3.96875311;stroke-linecap:square;stroke-linejoin:round;stroke-miterlimit:10.8;stroke-dasharray:none;paint-order:fill markers stroke"
     d="m 90.666059,9.2426562 c -6.16177,0.220064 -8.80253,1.5404428 -7.042023,4.6213288 1.760504,3.080885 7.922276,7.48215 8.80253,6.381834 0.880253,-1.100316 1.045363,-11.1033728 -1.760507,-11.0031628 z"
     id="path55"
     sodipodi:nodetypes="ssss" /><path
     style="fill:#c9d1d9;stroke:#a2a5c0;stroke-width:3.96875311;stroke-linecap:square;stroke-linejoin:round;stroke-miterlimit:10.8;stroke-dasharray:none;paint-order:fill markers stroke"
     d="m 136.87933,55.676003 c -3.52101,3.961139 -3.96113,18.705377 1.76051,21.566197 5.72165,2.860823 9.46272,-10.122908 12.76367,-0.220062 3.30095,9.902846 9.46272,-0.880253 9.46272,-7.702214 0,-6.821962 -10.12291,-0.220062 -11.66335,-5.501581 -1.54044,-5.281519 -7.47923,-13.5922 -12.32355,-8.14234 z"
     id="path56"
     sodipodi:nodetypes="ssssss" /><path
     style="fill:#c9d1d9;stroke:#a2a5c0;stroke-width:3.96875311;stroke-linecap:square;stroke-linejoin:round;stroke-miterlimit:10.8;stroke-dasharray:none;paint-order:fill markers stroke"
     d="m 92.426565,102.32942 c -6.821961,-0.66019 -17.825123,4.40126 -10.563035,9.24265 7.262088,4.84139 6.601896,-0.66019 17.82512,0.22007 11.22323,0.88025 20.02576,-6.16177 9.68279,-7.92228 -10.342976,-1.76051 -16.944875,-1.54044 -16.944875,-1.54044 z"
     id="path57" /></svg>
