<?xml version="1.0" encoding="UTF-8" standalone="no"?>
<svg
   width="165.713"
   height="244.713"
   viewBox="0 0 43.845 64.747"
   version="1.1"
   id="svg4"
   sodipodi:docname="small_table_1.svg"
   inkscape:version="1.4 (86a8ad7, 2024-10-11)"
   xmlns:inkscape="http://www.inkscape.org/namespaces/inkscape"
   xmlns:sodipodi="http://sodipodi.sourceforge.net/DTD/sodipodi-0.dtd"
   xmlns:xlink="http://www.w3.org/1999/xlink"
   xmlns="http://www.w3.org/2000/svg"
   xmlns:svg="http://www.w3.org/2000/svg">
  <defs
     id="defs4">
    <radialGradient
       xlink:href="#a"
       id="b"
       cx="95.773003"
       cy="88.153"
       r="9.5380001"
       fx="95.773003"
       fy="88.153"
       gradientTransform="translate(9.962,16.503)"
       gradientUnits="userSpaceOnUse" />
    <linearGradient
       id="a">
      <stop
         offset="0"
         style="stop-color:#ffad23;stop-opacity:.61077845"
         id="stop1" />
      <stop
         offset=".829"
         style="stop-color:#ffad23;stop-opacity:0"
         id="stop2" />
    </linearGradient>
  </defs>
  <sodipodi:namedview
     id="namedview4"
     pagecolor="#ffffff"
     bordercolor="#000000"
     borderopacity="0.25"
     inkscape:showpageshadow="2"
     inkscape:pageopacity="0.0"
     inkscape:pagecheckerboard="0"
     inkscape:deskcolor="#d1d1d1"
     inkscape:zoom="1.5794012"
     inkscape:cx="-40.838262"
     inkscape:cy="61.732257"
     inkscape:window-width="1920"
     inkscape:window-height="991"
     inkscape:window-x="-9"
     inkscape:window-y="-9"
     inkscape:window-maximized="1"
     inkscape:current-layer="svg4" />
  <g
     transform="rotate(90 31.213 -139.941)"
     id="g4">
    <rect
       width="64.747"
       height="43.845"
       x="171.155"
       y="-152.573"
       rx="2.97"
       ry="2.528"
       style="display:inline;fill:#302412;fill-opacity:1;stroke-width:.125008"
       id="rect1" />
    <rect
       width="54.148"
       height="39.876"
       x="176.455"
       y="-150.589"
       rx="1.323"
       ry="1.323"
       style="display:inline;fill:#785a2e;fill-opacity:1;stroke-width:.128916"
       id="rect2" />
    <rect
       width="1.587"
       height="39.876"
       x="173.139"
       y="-150.589"
       rx=".794"
       ry=".794"
       style="display:inline;fill:#785a2e;fill-opacity:1;stroke-width:.0959866"
       id="rect3" />
    <rect
       width="1.587"
       height="39.876"
       x="232.33"
       y="-150.589"
       rx=".794"
       ry=".794"
       style="display:inline;fill:#785a2e;fill-opacity:1;stroke-width:.0959866"
       id="rect4" />
  </g>
  <g
     id="g5"
     transform="translate(-18.929951,-18.929951)">
    <circle
       cx="33.054222"
       cy="36.22916"
       r="7.5218782"
       style="fill:#664210;fill-opacity:1;stroke:#311f08;stroke-width:1.3229;stroke-dasharray:none;stroke-opacity:1"
       id="circle9" />
    <circle
       cx="33.054222"
       cy="36.22916"
       r="5.4169121"
       style="fill:#53360d;fill-opacity:1;stroke:none;stroke-width:1.3229;stroke-dasharray:none;stroke-opacity:1"
       id="circle10" />
    <path
       d="m 30.372571,35.695392 c -1.63974,1.587144 0.309752,2.981293 1.90214,2.455398 l 0.142648,-0.117798 c 0.821078,-1.460782 -0.172756,-3.641912 -2.044788,-2.3376"
       style="color:#000000;fill:#aa6300;stroke-width:0.999984;stroke-linecap:round;stroke-linejoin:round;-inkscape-stroke:none"
       id="path10" />
    <path
       d="m 30.297381,35.750348 c -0.167225,0.143036 -0.308475,0.352653 -0.446152,0.498669 q 0.04712,0.02607 0.09171,0.04905 c -0.103879,0.198462 -0.160126,0.396755 -0.06474,0.500897 0.382864,-0.131944 0.728964,-0.300999 0.983138,-0.509885 0.254175,-0.208887 0.486272,-0.515943 0.687941,-0.866577 -0.08377,-0.113631 -0.288036,-0.09657 -0.504163,-0.03238 q -0.01206,-0.04954 -0.02897,-0.100286 c -0.194296,0.122538 -0.471181,0.232481 -0.645466,0.403232 a 0.99998381,0.99998381 0 0 0 -0.07393,0.0565 z"
       style="fill:#ac8144;fill-opacity:1;stroke:none;stroke-width:0.264579;stroke-linecap:round;stroke-linejoin:round;stroke-dasharray:none;stroke-opacity:1"
       id="path11" />
    <path
       d="m 30.216163,35.533925 c -0.438488,0.422688 -0.659438,0.858792 -0.687096,1.273884 a 1.3799777,1.3799777 0 0 0 0.422498,1.067423 c 0.555356,0.553498 1.514712,0.779614 2.391843,0.489297 a 0.19999676,0.19999676 45 0 0 0.07363,-0.03948 l 0.14279,-0.119205 a 0.19999676,0.19999676 45 0 0 0.05184,-0.063 c 0.453664,-0.805638 0.418068,-1.791393 -0.01942,-2.442447 A 1.3799777,1.3799777 0 0 0 31.62549,35.082659 c -0.411905,-0.05221 -0.882226,0.08015 -1.382847,0.428347 l -0.02711,0.02214 m 0.302672,0.338967 c 0.425921,-0.291058 0.779408,-0.37835 1.048852,-0.344064 0.275846,0.03422 0.489466,0.185114 0.650099,0.424471 0.317614,0.472662 0.363555,1.29245 0.0092,1.944651 l -0.04957,0.04048 c -0.706804,0.222216 -1.505343,0.02227 -1.907376,-0.381441 -0.204779,-0.203302 -0.311377,-0.442895 -0.292775,-0.718896 0.01754,-0.272554 0.173038,-0.602261 0.541538,-0.965205"
       style="color:#000000;fill:#3d2200;fill-opacity:1;stroke-width:0.999984;stroke-linecap:round;stroke-linejoin:round;-inkscape-stroke:none"
       id="path12" />
    <path
       d="m 29.887452,40.658016 c 0.873753,2.108157 2.886611,0.80717 2.9825,-0.867067 l -0.05715,-0.17595 c -1.056986,-1.300321 -3.450706,-1.177282 -2.925345,1.043017"
       style="color:#000000;fill:#aa6300;stroke-width:0.999984;stroke-linecap:round;stroke-linejoin:round;-inkscape-stroke:none"
       id="path13" />
    <path
       d="m 29.910941,40.748138 c 0.0716,0.208079 0.214666,0.41646 0.299892,0.598153 q 0.04156,-0.03424 0.07931,-0.06727 c 0.146421,0.169526 0.310184,0.294688 0.442087,0.244231 0.01794,-0.404565 -0.01215,-0.788569 -0.113047,-1.10171 -0.100901,-0.313141 -0.301218,-0.641813 -0.553245,-0.958195 -0.13646,0.03617 -0.195634,0.232416 -0.215331,0.457012 q -0.05051,-0.007 -0.103917,-0.0099 c 0.04259,0.225726 0.04312,0.52364 0.137904,0.748468 a 0.99998381,0.99998381 0 0 0 0.02539,0.08951 z"
       style="fill:#ac8144;fill-opacity:1;stroke:none;stroke-width:0.264579;stroke-linecap:round;stroke-linejoin:round;stroke-dasharray:none;stroke-opacity:1"
       id="path14" />
    <path
       d="m 29.679814,40.744167 c 0.23204,0.563112 0.556475,0.928826 0.93238,1.107045 a 1.3799777,1.3799777 0 0 0 1.147997,-8.05e-4 c 0.718818,-0.313178 1.281568,-1.122378 1.333791,-2.044828 a 0.19999676,0.19999676 0 0 0 -0.0097,-0.08298 L 33.025872,39.546 a 0.19999676,0.19999676 0 0 0 -0.03955,-0.07136 c -0.582634,-0.717913 -1.512534,-1.046951 -2.278786,-0.879235 a 1.3799777,1.3799777 0 0 0 -0.929706,0.672211 c -0.199884,0.36392 -0.249564,0.849979 -0.109634,1.443511 l 0.01063,0.03334 m 0.426459,-0.156977 c -0.114231,-0.503065 -0.06556,-0.863903 0.06532,-1.101909 0.133168,-0.243985 0.351987,-0.387232 0.633621,-0.448698 0.556293,-0.121758 1.335633,0.136686 1.812054,0.705839 l 0.01944,0.06097 c -0.05299,0.739015 -0.532315,1.408258 -1.055494,1.633863 -0.264317,0.115771 -0.526317,0.126893 -0.776184,0.0082 -0.24705,-0.116447 -0.496576,-0.382196 -0.698761,-0.858265"
       style="color:#000000;fill:#3d2200;fill-opacity:1;stroke-width:0.999984;stroke-linecap:round;stroke-linejoin:round;-inkscape-stroke:none"
       id="path15" />
    <path
       d="m 31.057765,32.805356 c 0.873753,2.108157 2.886611,0.80717 2.9825,-0.867067 l -0.05715,-0.17595 c -1.056986,-1.300321 -3.450706,-1.177282 -2.925345,1.043017"
       style="color:#000000;fill:#aa6300;stroke-width:0.999984;stroke-linecap:round;stroke-linejoin:round;-inkscape-stroke:none"
       id="path16" />
    <path
       d="m 31.081254,32.895478 c 0.0716,0.208079 0.214666,0.41646 0.299892,0.598153 q 0.04156,-0.03424 0.07931,-0.06727 c 0.146421,0.169526 0.310184,0.294688 0.442087,0.244231 0.01794,-0.404565 -0.01215,-0.788569 -0.113047,-1.10171 -0.100901,-0.313141 -0.301218,-0.641813 -0.553245,-0.958195 -0.13646,0.03617 -0.195634,0.232416 -0.215331,0.457012 q -0.05051,-0.007 -0.103917,-0.0099 c 0.04259,0.225726 0.04312,0.52364 0.137904,0.748468 a 0.99998381,0.99998381 0 0 0 0.02539,0.08951 z"
       style="fill:#ac8144;fill-opacity:1;stroke:none;stroke-width:0.264579;stroke-linecap:round;stroke-linejoin:round;stroke-dasharray:none;stroke-opacity:1"
       id="path17" />
    <path
       d="m 30.850127,32.891507 c 0.23204,0.563112 0.556475,0.928826 0.93238,1.107045 a 1.3799777,1.3799777 0 0 0 1.147997,-8.05e-4 c 0.718818,-0.313178 1.281568,-1.122378 1.333791,-2.044828 a 0.19999676,0.19999676 0 0 0 -0.0097,-0.08298 l -0.05841,-0.176599 a 0.19999676,0.19999676 0 0 0 -0.03955,-0.07136 c -0.582634,-0.717913 -1.512534,-1.046951 -2.278786,-0.879235 a 1.3799777,1.3799777 0 0 0 -0.929706,0.672211 c -0.199884,0.36392 -0.249564,0.849979 -0.109634,1.443511 l 0.01063,0.03334 m 0.426459,-0.156977 c -0.114231,-0.503065 -0.06556,-0.863903 0.06532,-1.101909 0.133168,-0.243985 0.351987,-0.387232 0.633621,-0.448698 0.556293,-0.121758 1.335633,0.136686 1.812054,0.705839 l 0.01944,0.06097 c -0.05299,0.739015 -0.532315,1.408258 -1.055494,1.633863 -0.264317,0.115771 -0.526317,0.126893 -0.776184,0.0082 -0.24705,-0.116447 -0.496576,-0.382196 -0.698761,-0.858265"
       style="color:#000000;fill:#3d2200;fill-opacity:1;stroke-width:0.999984;stroke-linecap:round;stroke-linejoin:round;-inkscape-stroke:none"
       id="path18" />
    <path
       d="m 30.706791,37.335369 c -1.853572,-1.331181 -2.878609,0.835259 -2.077778,2.308668 l 0.141299,0.119413 c 1.583565,0.548066 3.553063,-0.817992 1.936479,-2.428081"
       style="color:#000000;fill:#aa6300;stroke-width:0.999984;stroke-linecap:round;stroke-linejoin:round;-inkscape-stroke:none"
       id="path19" />
    <path
       d="M 30.639334,37.271156 C 30.468827,37.132049 30.237422,37.03035 30.069239,36.92085 q -0.01727,0.051 -0.03195,0.09897 c -0.213779,-0.06691 -0.418915,-0.08698 -0.504424,0.02542 0.197961,0.353279 0.425898,0.663777 0.676676,0.87673 0.250778,0.212952 0.594231,0.386712 0.975153,0.522776 0.09691,-0.102651 0.04378,-0.300622 -0.05784,-0.501879 q 0.04661,-0.02068 0.09353,-0.04635 c -0.155154,-0.1694 -0.312608,-0.422306 -0.511644,-0.563429 a 0.99998381,0.99998381 0 0 0 -0.06876,-0.06269 z"
       style="fill:#ac8144;fill-opacity:1;stroke:none;stroke-width:0.264579;stroke-linecap:round;stroke-linejoin:round;stroke-dasharray:none;stroke-opacity:1"
       id="path20" />
    <path
       d="m 30.837853,37.152727 c -0.493963,-0.356284 -0.962421,-0.496115 -1.37581,-0.449475 a 1.3799777,1.3799777 0 0 0 -0.975218,0.605679 c -0.445854,0.644977 -0.497667,1.629257 -0.05592,2.440737 a 0.19999676,0.19999676 0 0 0 0.05195,0.06543 l 0.14271,0.119302 a 0.19999676,0.19999676 0 0 0 0.07121,0.0398 c 0.873502,0.303081 1.837195,0.09266 2.400019,-0.453689 a 1.3799777,1.3799777 0 0 0 0.43587,-1.061244 C 31.510754,38.044645 31.29682,37.605379 30.865107,37.1747 l -0.02661,-0.02274 m -0.279705,0.358154 c 0.362196,0.367338 0.51099,0.699653 0.525192,0.970898 0.01541,0.277534 -0.09507,0.514593 -0.302029,0.715251 -0.408608,0.396645 -1.207141,0.587714 -1.911979,0.355086 l -0.04866,-0.04157 c -0.34443,-0.655988 -0.289757,-1.47736 0.03598,-1.944809 0.163622,-0.237685 0.380426,-0.385212 0.655332,-0.416015 0.271327,-0.03123 0.62344,0.06312 1.046159,0.361162"
       style="color:#000000;fill:#3d2200;fill-opacity:1;stroke-width:0.999984;stroke-linecap:round;stroke-linejoin:round;-inkscape-stroke:none"
       id="path21" />
    <path
       d="m 34.077711,31.449388 c -1.63974,1.587143 0.309752,2.981292 1.90214,2.455398 l 0.142648,-0.117798 c 0.821078,-1.460782 -0.172756,-3.641913 -2.044788,-2.3376"
       style="color:#000000;fill:#aa6300;stroke-width:0.999984;stroke-linecap:round;stroke-linejoin:round;-inkscape-stroke:none"
       id="path22" />
    <path
       d="m 34.002521,31.504343 c -0.167225,0.143036 -0.308475,0.352653 -0.446152,0.498669 q 0.04712,0.02607 0.09171,0.04905 c -0.103879,0.198463 -0.160126,0.396755 -0.06474,0.500898 0.382864,-0.131944 0.728964,-0.300999 0.983138,-0.509886 0.254175,-0.208886 0.486272,-0.515942 0.687941,-0.866577 -0.08377,-0.113631 -0.288036,-0.09657 -0.504163,-0.03238 q -0.01206,-0.04954 -0.02897,-0.100286 c -0.194296,0.122538 -0.471181,0.23248 -0.645466,0.403231 a 0.99998381,0.99998381 0 0 0 -0.07393,0.0565 z"
       style="fill:#ac8144;fill-opacity:1;stroke:none;stroke-width:0.264579;stroke-linecap:round;stroke-linejoin:round;stroke-dasharray:none;stroke-opacity:1"
       id="path23" />
    <path
       d="m 33.921303,31.287921 c -0.438488,0.422688 -0.659438,0.858791 -0.687096,1.273883 a 1.3799777,1.3799777 0 0 0 0.422498,1.067424 c 0.555356,0.553498 1.514712,0.779613 2.391843,0.489296 a 0.19999676,0.19999676 45 0 0 0.07363,-0.03948 l 0.14279,-0.119205 a 0.19999676,0.19999676 45 0 0 0.05184,-0.063 c 0.453664,-0.805637 0.418068,-1.791392 -0.01942,-2.442446 A 1.3799777,1.3799777 0 0 0 35.33063,30.836654 c -0.411905,-0.05221 -0.882226,0.08015 -1.382847,0.428347 l -0.02711,0.02214 m 0.302672,0.338968 c 0.425921,-0.291059 0.779408,-0.37835 1.048852,-0.344064 0.275846,0.03422 0.489466,0.185113 0.650099,0.424471 0.317614,0.472662 0.363555,1.29245 0.0092,1.94465 l -0.04957,0.04048 c -0.706804,0.222217 -1.505343,0.02227 -1.907376,-0.38144 -0.204779,-0.203302 -0.311377,-0.442895 -0.292775,-0.718896 0.01754,-0.272554 0.173038,-0.602262 0.541538,-0.965205"
       style="color:#000000;fill:#3d2200;fill-opacity:1;stroke-width:0.999984;stroke-linecap:round;stroke-linejoin:round;-inkscape-stroke:none"
       id="path24" />
    <path
       d="m 33.961221,34.628573 c -1.63974,1.587144 0.309752,2.981293 1.90214,2.455398 l 0.142648,-0.117798 c 0.821078,-1.460782 -0.172756,-3.641912 -2.044788,-2.3376"
       style="color:#000000;fill:#aa6300;stroke-width:0.999984;stroke-linecap:round;stroke-linejoin:round;-inkscape-stroke:none"
       id="path25" />
    <path
       d="m 33.886031,34.683529 c -0.167225,0.143036 -0.308475,0.352653 -0.446152,0.498669 q 0.04712,0.02607 0.09171,0.04905 c -0.103879,0.198462 -0.160126,0.396755 -0.06474,0.500897 0.382864,-0.131944 0.728964,-0.300999 0.983138,-0.509885 0.254175,-0.208887 0.486272,-0.515943 0.687941,-0.866577 -0.08377,-0.113631 -0.288036,-0.09657 -0.504163,-0.03238 q -0.01206,-0.04954 -0.02897,-0.100286 c -0.194296,0.122538 -0.471181,0.232481 -0.645466,0.403232 a 0.99998381,0.99998381 0 0 0 -0.07393,0.0565 z"
       style="fill:#ac8144;fill-opacity:1;stroke:none;stroke-width:0.264579;stroke-linecap:round;stroke-linejoin:round;stroke-dasharray:none;stroke-opacity:1"
       id="path26" />
    <path
       d="m 33.804813,34.467106 c -0.438488,0.422688 -0.659438,0.858792 -0.687096,1.273884 a 1.3799777,1.3799777 0 0 0 0.422498,1.067423 c 0.555356,0.553498 1.514712,0.779614 2.391843,0.489297 a 0.19999676,0.19999676 45 0 0 0.07363,-0.03948 l 0.14279,-0.119205 a 0.19999676,0.19999676 45 0 0 0.05184,-0.063 c 0.453664,-0.805638 0.418068,-1.791393 -0.01942,-2.442447 A 1.3799777,1.3799777 0 0 0 35.21414,34.01584 c -0.411905,-0.05221 -0.882226,0.08015 -1.382847,0.428347 l -0.02711,0.02214 m 0.302672,0.338967 c 0.425921,-0.291058 0.779408,-0.37835 1.048852,-0.344064 0.275846,0.03422 0.489466,0.185114 0.650099,0.424471 0.317614,0.472662 0.363555,1.29245 0.0092,1.944651 l -0.04957,0.04048 c -0.706804,0.222216 -1.505343,0.02227 -1.907376,-0.381441 -0.204779,-0.203302 -0.311377,-0.442895 -0.292775,-0.718896 0.01754,-0.272554 0.173038,-0.602261 0.541538,-0.965205"
       style="color:#000000;fill:#3d2200;fill-opacity:1;stroke-width:0.999984;stroke-linecap:round;stroke-linejoin:round;-inkscape-stroke:none"
       id="path27" />
    <path
       d="m 38.54613,37.212874 c 0.986682,-2.057724 -1.32558,-2.688288 -2.63632,-1.642235 l -0.09287,0.159998 c -0.262821,1.654985 1.426473,3.355375 2.729195,1.482237"
       style="color:#000000;fill:#aa6300;stroke-width:0.999984;stroke-linecap:round;stroke-linejoin:round;-inkscape-stroke:none"
       id="path28" />
    <path
       d="m 38.597562,37.135231 c 0.107161,-0.192198 0.166845,-0.437817 0.245261,-0.622551 q -0.05324,-0.0081 -0.10303,-0.01416 c 0.02851,-0.222184 0.01241,-0.42767 -0.113198,-0.492216 -0.313237,0.256666 -0.57911,0.535369 -0.744949,0.81951 -0.165838,0.284141 -0.276887,0.652679 -0.344271,1.05152 0.118011,0.07748 0.303646,-0.0094 0.484041,-0.14468 q 0.02851,0.04227 0.06199,0.08399 c 0.139664,-0.182374 0.361153,-0.381611 0.465312,-0.602251 a 0.99998381,0.99998381 0 0 0 0.04971,-0.07866 z"
       style="fill:#ac8144;fill-opacity:1;stroke:none;stroke-width:0.264579;stroke-linecap:round;stroke-linejoin:round;stroke-dasharray:none;stroke-opacity:1"
       id="path29" />
    <path
       d="m 38.74887,37.309992 c 0.264453,-0.548636 0.320245,-1.034324 0.202063,-1.433196 a 1.3799777,1.3799777 0 0 0 -0.766822,-0.854331 c -0.712982,-0.326248 -1.691165,-0.205211 -2.412933,0.371584 a 0.19999676,0.19999676 0 0 0 -0.05534,0.06259 l -0.09252,0.161366 a 0.19999676,0.19999676 0 0 0 -0.02674,0.07708 c -0.145727,0.913032 0.229906,1.825106 0.866226,2.283764 a 1.3799777,1.3799777 0 0 0 1.121095,0.243654 c 0.404408,-0.09405 0.799516,-0.381473 1.148102,-0.881822 l 0.01773,-0.03017 M 38.3482,37.097704 c -0.298371,0.420831 -0.59956,0.625422 -0.864147,0.68682 -0.270568,0.06368 -0.523288,-0.0037 -0.757033,-0.172353 -0.461963,-0.332984 -0.789674,-1.085824 -0.683833,-1.820474 l 0.03243,-0.05517 c 0.585682,-0.453793 1.403965,-0.543538 1.921157,-0.304524 0.262626,0.119556 0.445779,0.307234 0.524161,0.572524 0.07818,0.26169 0.04683,0.624874 -0.172733,1.093182"
       style="color:#000000;fill:#3d2200;fill-opacity:1;stroke-width:0.999984;stroke-linecap:round;stroke-linejoin:round;-inkscape-stroke:none"
       id="path30" />
    <path
       d="m 35.599828,36.971929 c -1.853572,-1.331181 -2.878609,0.835259 -2.077778,2.308668 l 0.141299,0.119413 c 1.583565,0.548066 3.553063,-0.817992 1.936479,-2.428081"
       style="color:#000000;fill:#aa6300;stroke-width:0.999984;stroke-linecap:round;stroke-linejoin:round;-inkscape-stroke:none"
       id="path31" />
    <path
       d="M 35.532371,36.907716 C 35.361864,36.768609 35.130459,36.66691 34.962276,36.55741 q -0.01727,0.05101 -0.03195,0.09897 c -0.213779,-0.06691 -0.418915,-0.08698 -0.504424,0.02542 0.197961,0.353279 0.425898,0.663777 0.676676,0.87673 0.250778,0.212952 0.594231,0.386712 0.975153,0.522776 0.09691,-0.102651 0.04378,-0.300622 -0.05784,-0.501879 q 0.04661,-0.02068 0.09353,-0.04635 c -0.155153,-0.169392 -0.312607,-0.422298 -0.511643,-0.563421 a 0.99998381,0.99998381 0 0 0 -0.06876,-0.06269 z"
       style="fill:#ac8144;fill-opacity:1;stroke:none;stroke-width:0.264579;stroke-linecap:round;stroke-linejoin:round;stroke-dasharray:none;stroke-opacity:1"
       id="path32" />
    <path
       d="m 35.73089,36.789287 c -0.493963,-0.356284 -0.962421,-0.496115 -1.37581,-0.449475 a 1.3799777,1.3799777 0 0 0 -0.975218,0.605679 c -0.445854,0.644977 -0.497667,1.629257 -0.05592,2.440737 a 0.19999676,0.19999676 0 0 0 0.05195,0.06543 l 0.14271,0.119302 a 0.19999676,0.19999676 0 0 0 0.07121,0.0398 c 0.873502,0.303081 1.837195,0.09266 2.400019,-0.453689 a 1.3799777,1.3799777 0 0 0 0.43587,-1.061244 c -0.02191,-0.414622 -0.235844,-0.853888 -0.667557,-1.284567 l -0.02661,-0.02274 m -0.279705,0.358154 c 0.362196,0.367338 0.51099,0.699653 0.525192,0.970898 0.01541,0.277534 -0.09507,0.514593 -0.302029,0.715251 -0.408608,0.396645 -1.207141,0.587714 -1.911979,0.355086 l -0.04866,-0.04157 c -0.34443,-0.655988 -0.289757,-1.47736 0.03598,-1.944809 0.163622,-0.237685 0.380426,-0.385212 0.655332,-0.416015 0.271327,-0.03123 0.62344,0.06312 1.046159,0.361162"
       style="color:#000000;fill:#3d2200;fill-opacity:1;stroke-width:0.999984;stroke-linecap:round;stroke-linejoin:round;-inkscape-stroke:none"
       id="path33" />
    <path
       d="m 34.393281,41.412176 c 2.24857,-0.389495 1.421342,-2.638909 -0.190974,-3.100104 l -0.184206,0.01712 c -1.500687,0.745648 -1.906291,3.107961 0.37518,3.082981"
       style="color:#000000;fill:#aa6300;stroke-width:0.999984;stroke-linecap:round;stroke-linejoin:round;-inkscape-stroke:none"
       id="path34" />
    <path
       d="m 34.486361,41.40905 c 0.218723,-0.02416 0.453435,-0.117976 0.649407,-0.161223 q -0.02428,-0.04807 -0.04821,-0.09215 c 0.197541,-0.105621 0.355609,-0.237902 0.335348,-0.377666 -0.390751,-0.106339 -0.771989,-0.161314 -1.099644,-0.131638 -0.327655,0.02968 -0.692292,0.15293 -1.056294,0.32933 0.0053,0.141072 0.183783,0.241896 0.398572,0.310432 q -0.01791,0.04774 -0.03247,0.09921 c 0.22957,0.008 0.520329,0.07292 0.760483,0.02982 a 0.99998381,0.99998381 0 0 0 0.09291,-0.0051 z"
       style="fill:#ac8144;fill-opacity:1;stroke:none;stroke-width:0.264579;stroke-linecap:round;stroke-linejoin:round;stroke-dasharray:none;stroke-opacity:1"
       id="path35" />
    <path
       d="m 34.431735,41.633663 c 0.600321,-0.102722 1.028352,-0.338931 1.284766,-0.666525 a 1.3799777,1.3799777 0 0 0 0.251304,-1.120154 c -0.147688,-0.770044 -0.813563,-1.496752 -1.70203,-1.750261 a 0.19999676,0.19999676 0 0 0 -0.08308,-0.0088 l -0.185114,0.01821 a 0.19999676,0.19999676 0 0 0 -0.0783,0.02291 c -0.828331,0.410767 -1.353536,1.245716 -1.358176,2.030094 a 1.3799777,1.3799777 0 0 0 0.451649,1.054626 c 0.311145,0.274918 0.774431,0.430119 1.384204,0.423939 l 0.03487,-0.0031 m -0.0595,-0.450521 c -0.51587,9.75e-4 -0.857211,-0.125749 -1.060669,-0.305695 -0.208788,-0.183495 -0.300487,-0.428429 -0.298609,-0.716686 0.0034,-0.569452 0.426643,-1.273018 1.086521,-1.612831 l 0.06376,-0.0056 c 0.709342,0.213975 1.256994,0.828563 1.362206,1.388514 0.0549,0.283288 0.0082,0.541335 -0.162447,0.759039 -0.167854,0.215449 -0.481911,0.400528 -0.990758,0.493238"
       style="color:#000000;fill:#3d2200;fill-opacity:1;stroke-width:0.999984;stroke-linecap:round;stroke-linejoin:round;-inkscape-stroke:none"
       id="path36" />
    <path
       d="m 36.692693,40.22787 c 2.217963,-0.53704 1.244088,-2.726957 -0.39515,-3.080742 l -0.182674,0.02924 c -1.448206,0.84306 -1.697024,3.226992 0.577824,3.051499"
       style="color:#000000;fill:#aa6300;stroke-width:0.999984;stroke-linecap:round;stroke-linejoin:round;-inkscape-stroke:none"
       id="path37" />
    <path
       d="m 36.785364,40.218608 c 0.216652,-0.03854 0.44466,-0.147643 0.637352,-0.203729 q -0.0274,-0.04636 -0.05419,-0.08876 c 0.19014,-0.118427 0.339133,-0.260851 0.309693,-0.398973 -0.396917,-0.08032 -0.780952,-0.110015 -1.105934,-0.05878 -0.324982,0.05123 -0.680691,0.198285 -1.032258,0.398323 0.01462,0.140413 0.199347,0.229239 0.418191,0.283451 q -0.01472,0.04882 -0.02586,0.101134 c 0.229598,-0.0072 0.524007,0.03842 0.760792,-0.02043 a 0.99998381,0.99998381 0 0 0 0.09237,-0.01124 z"
       style="fill:#ac8144;fill-opacity:1;stroke:none;stroke-width:0.264579;stroke-linecap:round;stroke-linejoin:round;stroke-dasharray:none;stroke-opacity:1"
       id="path38" />
    <path
       d="m 36.74568,40.446337 c 0.592233,-0.142117 1.003742,-0.406059 1.237978,-0.749861 a 1.3799777,1.3799777 0 0 0 0.176831,-1.134297 C 37.962304,37.803561 37.249921,37.122382 36.34666,36.92806 a 0.19999676,0.19999676 0 0 0 -0.08348,-0.0033 l -0.183509,0.03038 a 0.19999676,0.19999676 0 0 0 -0.07662,0.02803 c -0.799417,0.464537 -1.268374,1.332327 -1.221238,2.115301 a 1.3799777,1.3799777 0 0 0 0.520264,1.02252 c 0.32861,0.253784 0.801129,0.378073 1.409164,0.331664 l 0.03459,-0.0053 m -0.0891,-0.445612 c -0.514682,0.03502 -0.863642,-0.0689 -1.078532,-0.23503 -0.220442,-0.169316 -0.328106,-0.407664 -0.345255,-0.695416 -0.03422,-0.568434 0.341699,-1.2984 0.977713,-1.68102 l 0.06325,-0.0098 c 0.721917,0.166695 1.308935,0.743801 1.450872,1.295588 0.07348,0.279046 0.04393,0.539612 -0.112,0.768104 -0.15327,0.226057 -0.454427,0.43146 -0.956046,0.557549"
       style="color:#000000;fill:#3d2200;fill-opacity:1;stroke-width:0.999984;stroke-linecap:round;stroke-linejoin:round;-inkscape-stroke:none"
       id="path39" />
    <path
       d="m 34.77233,34.322098 c -0.171496,2.275601 2.211837,2.022827 3.052859,0.571983 l 0.02839,-0.182809 c -0.356536,-1.637356 -2.54824,-2.60765 -3.081245,-0.389174"
       style="color:#000000;fill:#aa6300;stroke-width:0.999984;stroke-linecap:round;stroke-linejoin:round;-inkscape-stroke:none"
       id="path40" />
    <path
       d="m 34.752627,34.413123 c -0.02999,0.218 0.0037,0.468516 -0.0023,0.669117 q 0.05254,-0.01181 0.101132,-0.02425 c 0.05417,0.217355 0.143842,0.402944 0.284321,0.417433 0.198557,-0.352945 0.34498,-0.709209 0.39623,-1.034189 0.05125,-0.32498 0.02079,-0.708678 -0.06137,-1.10474 -0.138098,-0.0293 -0.279458,0.119136 -0.398378,0.310681 q -0.04192,-0.02902 -0.08827,-0.05572 c -0.06385,0.220659 -0.197794,0.486761 -0.214656,0.730168 a 0.99998381,0.99998381 0 0 0 -0.01773,0.09134 z"
       style="fill:#ac8144;fill-opacity:1;stroke:none;stroke-width:0.264579;stroke-linecap:round;stroke-linejoin:round;stroke-dasharray:none;stroke-opacity:1"
       id="path41" />
    <path
       d="m 34.548158,34.305291 c -0.04701,0.607229 0.0775,1.079989 0.332547,1.408649 a 1.3799777,1.3799777 0 0 0 1.02485,0.517281 c 0.782794,0.04486 1.650127,-0.423355 2.112959,-1.222997 a 0.19999676,0.19999676 0 0 0 0.02882,-0.07842 l 0.02756,-0.183955 a 0.19999676,0.19999676 0 0 0 -0.0031,-0.08152 c -0.196014,-0.903572 -0.8774,-1.616799 -1.636889,-1.812876 a 1.3799777,1.3799777 0 0 0 -1.132997,0.180387 c -0.342587,0.234576 -0.606241,0.645924 -0.74918,1.238739 l -0.0056,0.03455 m 0.451409,0.05234 c 0.125052,-0.500486 0.331307,-0.800538 0.555496,-0.953884 0.228932,-0.157647 0.488846,-0.186746 0.767913,-0.11452 0.551383,0.142352 1.13026,0.724645 1.298612,1.447534 l -0.01016,0.06319 c -0.380745,0.635597 -1.11048,1.016556 -1.679169,0.981819 C 35.643111,35.765658 35.40428,35.657364 35.234854,35.438692 35.066969,35.223299 34.9642,34.87355 34.99858,34.357471"
       style="color:#000000;fill:#3d2200;fill-opacity:1;stroke-width:0.999984;stroke-linecap:round;stroke-linejoin:round;-inkscape-stroke:none"
       id="path42" />
    <path
       d="m 33.254258,34.979265 c -2.268765,0.245914 -1.586056,2.54332 -0.0063,3.105974 l 0.184921,-0.0054 c 1.54501,-0.648843 2.099813,-2.98063 -0.178639,-3.100584"
       style="color:#000000;fill:#aa6300;stroke-width:0.999984;stroke-linecap:round;stroke-linejoin:round;-inkscape-stroke:none"
       id="path43" />
    <path
       d="m 33.161167,34.976474 c -0.219815,0.01022 -0.460011,0.08894 -0.658334,0.119657 q 0.02118,0.04951 0.04227,0.09502 c -0.20385,0.09286 -0.369999,0.214839 -0.358655,0.355607 0.38321,0.13094 0.760187,0.210013 1.089065,0.201205 0.328878,-0.0088 0.700607,-0.108657 1.075077,-0.261586 0.0037,-0.141124 -0.168052,-0.253078 -0.378055,-0.335116 q 0.0209,-0.04651 0.03871,-0.09694 c -0.228597,-0.02258 -0.514648,-0.105813 -0.757054,-0.07805 a 0.99998381,0.99998381 0 0 0 -0.09304,-7.91e-4 z"
       style="fill:#ac8144;fill-opacity:1;stroke:none;stroke-width:0.264579;stroke-linecap:round;stroke-linejoin:round;stroke-dasharray:none;stroke-opacity:1"
       id="path44" />
    <path
       d="m 33.229948,34.755783 c -0.605633,0.06439 -1.0478,0.272942 -1.324501,0.583592 a 1.3799777,1.3799777 0 0 0 -0.321931,1.101933 c 0.09849,0.777869 0.71687,1.545396 1.587445,1.854815 a 0.19999676,0.19999676 0 0 0 0.08235,0.01405 l 0.185897,-0.0064 a 0.19999676,0.19999676 0 0 0 0.0796,-0.01789 c 0.852745,-0.357334 1.429912,-1.157245 1.484355,-1.939745 A 1.3799777,1.3799777 0 0 0 34.619401,35.26494 c -0.293058,-0.294122 -0.745553,-0.478431 -1.354487,-0.510987 l -0.03499,8.3e-4 m 0.03077,0.453391 c 0.514891,0.03179 0.847496,0.179932 1.039116,0.372435 0.196713,0.196384 0.272673,0.446647 0.252493,0.734203 -0.03953,0.568089 -0.506624,1.243354 -1.18675,1.540576 l -0.06398,0.0015 c -0.694322,-0.25859 -1.20184,-0.906716 -1.27128,-1.472218 -0.0368,-0.286202 0.02617,-0.540765 0.210321,-0.74719 0.181198,-0.204355 0.506374,-0.369117 1.020081,-0.429325"
       style="color:#000000;fill:#3d2200;fill-opacity:1;stroke-width:0.999984;stroke-linecap:round;stroke-linejoin:round;-inkscape-stroke:none"
       id="path45" />
    <path
       d="m 29.186129,32.148805 c -2.078522,0.942081 -0.712545,2.911414 0.96393,2.952618 l 0.17399,-0.06287 c 1.265137,-1.098854 1.064053,-3.487286 -1.13792,-2.889752"
       style="color:#000000;fill:#aa6300;stroke-width:0.999984;stroke-linecap:round;stroke-linejoin:round;-inkscape-stroke:none"
       id="path46" />
    <path
       d="m 29.096821,32.175223 c -0.205632,0.07835 -0.409234,0.228141 -0.588048,0.319251 q 0.03558,0.04042 0.06982,0.07707 c -0.164658,0.151875 -0.284409,0.319634 -0.229675,0.449821 0.404935,0.0047 0.787753,-0.03787 1.097435,-0.148938 0.309681,-0.111066 0.631642,-0.322001 0.939631,-0.584217 -0.0406,-0.135208 -0.238676,-0.187946 -0.463796,-0.200304 q 0.0053,-0.05071 0.0065,-0.104184 c -0.224216,0.04993 -0.521954,0.06019 -0.743569,0.162254 a 0.99998381,0.99998381 0 0 0 -0.08864,0.0283 z"
       style="fill:#ac8144;fill-opacity:1;stroke:none;stroke-width:0.264579;stroke-linecap:round;stroke-linejoin:round;stroke-dasharray:none;stroke-opacity:1"
       id="path47" />
    <path
       d="m 29.093247,31.94409 c -0.555239,0.250292 -0.910172,0.586488 -1.076029,0.968008 a 1.3799777,1.3799777 0 0 0 0.03827,1.147359 c 0.336467,0.708216 1.1636,1.244261 2.087263,1.266354 a 0.19999676,0.19999676 45 0 0 0.08262,-0.01237 l 0.174599,-0.06414 A 0.19999676,0.19999676 45 0 0 30.47,35.207441 c 0.698518,-0.605751 0.997037,-1.545893 0.804406,-2.306264 a 1.3799777,1.3799777 0 0 0 -0.70219,-0.907276 C 30.201966,31.806 29.714545,31.772207 29.125895,31.931431 l -0.03298,0.01172 m 0.17081,0.421109 c 0.499069,-0.130586 0.861303,-0.09371 1.103453,0.02933 0.248201,0.125135 0.398512,0.339164 0.469135,0.618642 0.139846,0.552024 -0.09303,1.339382 -0.646332,1.834122 l -0.06031,0.02142 c -0.74035,-0.02884 -1.424879,-0.486078 -1.667435,-1.001617 -0.124335,-0.260399 -0.144001,-0.521896 -0.03352,-0.775503 0.108323,-0.250719 0.365788,-0.508783 0.835006,-0.726396"
       style="color:#000000;fill:#3d2200;fill-opacity:1;stroke-width:0.999984;stroke-linecap:round;stroke-linejoin:round;-inkscape-stroke:none"
       id="path48" />
    <path
       d="m 31.196676,37.993457 c -1.425401,1.782134 0.685039,2.918008 2.19795,2.194568 l 0.126571,-0.134924 c 0.629352,-1.553052 -0.632861,-3.590663 -2.324521,-2.059644"
       style="color:#000000;fill:#aa6300;stroke-width:0.999984;stroke-linecap:round;stroke-linejoin:round;-inkscape-stroke:none"
       id="path49" />
    <path
       d="m 31.129056,38.057498 c -0.147752,0.163073 -0.261301,0.388899 -0.379365,0.551185 q 0.05004,0.01989 0.09718,0.03703 c -0.07789,0.210026 -0.108559,0.413848 -7.44e-4,0.505064 0.363058,-0.179397 0.684945,-0.390946 0.910601,-0.630357 0.225656,-0.239412 0.416972,-0.573403 0.572583,-0.946766 -0.09749,-0.1021 -0.29795,-0.05929 -0.5042,0.03177 q -0.01824,-0.04762 -0.04145,-0.09581 c -0.177201,0.146171 -0.437923,0.290314 -0.589166,0.481774 a 0.99998381,0.99998381 0 0 0 -0.06617,0.06542 z"
       style="fill:#ac8144;fill-opacity:1;stroke:none;stroke-width:0.264579;stroke-linecap:round;stroke-linejoin:round;stroke-dasharray:none;stroke-opacity:1"
       id="path50" />
    <path
       d="m 31.021068,37.853111 c -0.381391,0.474846 -0.545298,0.935432 -0.520132,1.350683 a 1.3799777,1.3799777 0 0 0 0.554354,1.00528 c 0.621017,0.478662 1.601293,0.581387 2.434564,0.182262 a 0.19999676,0.19999676 0 0 0 0.06803,-0.04849 l 0.126533,-0.136339 a 0.19999676,0.19999676 0 0 0 0.04344,-0.06906 c 0.347917,-0.856631 0.187695,-1.829929 -0.32877,-2.420296 a 1.3799777,1.3799777 0 0 0 -1.037244,-0.490253 c -0.4152,4.07e-4 -0.864957,0.1913 -1.317419,0.600126 l -0.02408,0.0254 m 0.343185,0.297881 c 0.385605,-0.342684 0.725181,-0.474065 0.996798,-0.474199 0.277959,-10e-4 0.508977,0.121597 0.698647,0.33867 0.374948,0.428604 0.524401,1.235962 0.255577,1.927805 l -0.04404,0.04644 c -0.672946,0.30999 -1.490385,0.212847 -1.940335,-0.136666 -0.22889,-0.175714 -0.36499,-0.399867 -0.381512,-0.676 -0.01714,-0.27258 0.09533,-0.619334 0.414863,-1.026048"
       style="color:#000000;fill:#3d2200;fill-opacity:1;stroke-width:0.999984;stroke-linecap:round;stroke-linejoin:round;-inkscape-stroke:none"
       id="path51" />
    <path
       d="m 33.025837,35.077517 c 1.028103,-2.037346 -1.270932,-2.71455 -2.602562,-1.695223 l -0.09609,0.158086 c -0.296242,1.649331 1.358312,3.383542 2.698655,1.537137"
       style="color:#000000;fill:#aa6300;stroke-width:0.999984;stroke-linecap:round;stroke-linejoin:round;-inkscape-stroke:none"
       id="path52" />
    <path
       d="m 33.07883,35.00093 c 0.111026,-0.189991 0.175666,-0.434352 0.257803,-0.617462 q -0.05306,-0.0092 -0.102723,-0.01624 c 0.033,-0.221561 0.02106,-0.427331 -0.103219,-0.494404 -0.318364,0.250277 -0.589821,0.523545 -0.761372,0.804274 -0.171552,0.280729 -0.290033,0.646945 -0.36547,1.044342 0.116419,0.07985 0.303775,-0.0033 0.486868,-0.134861 q 0.02765,0.04284 0.06028,0.08523 c 0.143324,-0.179512 0.368798,-0.374229 0.477398,-0.592717 a 0.99998381,0.99998381 0 0 0 0.05129,-0.07764 z"
       style="fill:#ac8144;fill-opacity:1;stroke:none;stroke-width:0.264579;stroke-linecap:round;stroke-linejoin:round;stroke-dasharray:none;stroke-opacity:1"
       id="path53" />
    <path
       d="m 33.226571,35.178716 c 0.275497,-0.543174 0.341101,-1.027634 0.231011,-1.428816 a 1.3799777,1.3799777 0 0 0 -0.749384,-0.869667 c -0.706237,-0.340602 -1.686668,-0.239376 -2.419956,0.322702 a 0.19999676,0.19999676 0 0 0 -0.0566,0.06145 l -0.09577,0.159461 a 0.19999676,0.19999676 0 0 0 -0.02829,0.07652 c -0.164165,0.909896 0.192943,1.829382 0.819856,2.300817 a 1.3799777,1.3799777 0 0 0 1.115937,0.26628 c 0.406228,-0.08585 0.807069,-0.365222 1.165703,-0.858418 l 0.01834,-0.02981 m -0.397146,-0.220872 c -0.306821,0.414709 -0.612088,0.613166 -0.877862,0.669199 -0.271801,0.05819 -0.523107,-0.01424 -0.753392,-0.18763 -0.455133,-0.34226 -0.76755,-1.101575 -0.64687,-1.833933 l 0.03354,-0.05451 c 0.594741,-0.441854 1.414672,-0.515028 1.926923,-0.265602 0.260155,0.124843 0.439474,0.316187 0.512474,0.583008 0.07287,0.263218 0.03418,0.625694 -0.19481,1.089466"
       style="color:#000000;fill:#3d2200;fill-opacity:1;stroke-width:0.999984;stroke-linecap:round;stroke-linejoin:round;-inkscape-stroke:none"
       id="path54" />
    <path
       d="m 34.140956,35.507713 c 2.073162,-0.953819 0.69607,-2.915397 -0.980611,-2.94712 l -0.173632,0.06385 c -1.258903,1.105991 -1.044316,3.493247 1.154243,2.883271"
       style="color:#000000;fill:#aa6300;stroke-width:0.999984;stroke-linecap:round;stroke-linejoin:round;-inkscape-stroke:none"
       id="path55" />
    <path
       d="m 34.230113,35.480791 c 0.205186,-0.07951 0.407937,-0.230452 0.586234,-0.322571 q -0.03581,-0.04022 -0.07026,-0.07668 c 0.163797,-0.152804 0.282598,-0.321238 0.227128,-0.451113 -0.404955,-0.0024 -0.787526,0.04232 -1.096575,0.155141 -0.309049,0.112815 -0.629811,0.325568 -0.936313,0.589522 0.04136,0.134975 0.239736,0.186593 0.464921,0.197678 q -0.005,0.05074 -0.0059,0.104219 c 0.223931,-0.0512 0.521606,-0.06314 0.74264,-0.166457 a 0.99998381,0.99998381 0 0 0 0.08848,-0.0288 z"
       style="fill:#ac8144;fill-opacity:1;stroke:none;stroke-width:0.264579;stroke-linecap:round;stroke-linejoin:round;stroke-dasharray:none;stroke-opacity:1"
       id="path56" />
    <path
       d="m 34.234994,35.7119 c 0.553816,-0.253428 0.906842,-0.591626 1.070539,-0.974078 a 1.3799777,1.3799777 0 0 0 -0.04475,-1.147124 c -0.340467,-0.706302 -1.170618,-1.237661 -2.094391,-1.25453 a 0.19999676,0.19999676 45 0 0 -0.08255,0.01284 l -0.174233,0.06513 a 0.19999676,0.19999676 45 0 0 -0.06979,0.04225 c -0.695082,0.609692 -0.988279,1.551507 -0.791352,2.310776 a 1.3799777,1.3799777 0 0 0 0.70731,0.903291 c 0.371306,0.185804 0.85891,0.21684 1.44665,0.05429 l 0.03291,-0.0119 m -0.173189,-0.420137 c -0.498323,0.133407 -0.860759,0.09858 -1.103601,-0.02309 -0.248905,-0.12373 -0.400423,-0.336905 -0.472626,-0.615979 -0.142965,-0.551225 0.08545,-1.339887 0.63595,-1.837748 l 0.06019,-0.02176 c 0.740502,0.02466 1.427605,0.478012 1.673073,0.992171 0.125805,0.259692 0.146949,0.521074 0.0379,0.775302 -0.106903,0.251326 -0.362905,0.510843 -0.830885,0.731105"
       style="color:#000000;fill:#3d2200;fill-opacity:1;stroke-width:0.999984;stroke-linecap:round;stroke-linejoin:round;-inkscape-stroke:none"
       id="path57" />
    <path
       d="m 33.264667,36.486399 c -0.665563,2.182841 1.715287,2.458015 2.853557,1.226509 l 0.06772,-0.172158 c 0.0106,-1.675692 -1.915484,-3.102304 -2.921279,-1.054351"
       style="color:#000000;fill:#aa6300;stroke-width:0.999984;stroke-linecap:round;stroke-linejoin:round;-inkscape-stroke:none"
       id="path58" />
    <path
       d="m 33.225513,36.570901 c -0.077,0.206143 -0.09901,0.457949 -0.148716,0.652385 q 0.05385,-1.7e-5 0.103988,-0.0015 c 0.0053,0.223944 0.05213,0.424662 0.186029,0.469556 0.271014,-0.300908 0.491886,-0.616471 0.613045,-0.922345 0.121159,-0.305874 0.175444,-0.686932 0.181999,-1.091372 -0.128332,-0.05882 -0.298761,0.05506 -0.456734,0.215921 q -0.03455,-0.0375 -0.07393,-0.0737 c -0.110608,0.201326 -0.299568,0.431645 -0.369314,0.665454 a 0.99998381,0.99998381 0 0 0 -0.0373,0.08525 z"
       style="fill:#ac8144;fill-opacity:1;stroke:none;stroke-width:0.264579;stroke-linecap:round;stroke-linejoin:round;stroke-dasharray:none;stroke-opacity:1"
       id="path59" />
    <path
       d="m 33.049614,36.420918 c -0.17882,0.582203 -0.160837,1.070754 0.01606,1.447281 a 1.3799777,1.3799777 0 0 0 0.88673,0.729115 c 0.75398,0.215161 1.702782,-0.0518 2.329461,-0.730705 a 0.19999676,0.19999676 0 0 0 0.04529,-0.07021 l 0.06717,-0.173459 a 0.19999676,0.19999676 0 0 0 0.01483,-0.08022 c 0.0066,-0.924564 -0.502123,-1.769672 -1.200256,-2.127277 a 1.3799777,1.3799777 0 0 0 -1.145002,-0.07205 c -0.385634,0.153877 -0.732953,0.49752 -1.002217,1.044656 l -0.01299,0.0325 m 0.428997,0.149902 c 0.231596,-0.460963 0.498542,-0.708577 0.750866,-0.809117 0.257893,-0.103699 0.517872,-0.07519 0.774355,0.05639 0.506838,0.259621 0.944181,0.954527 0.950176,1.696737 l -0.02375,0.05943 c -0.510667,0.536815 -1.306105,0.74876 -1.853391,0.590355 -0.277635,-0.07865 -0.486961,-0.236602 -0.604399,-0.487063 -0.116695,-0.246933 -0.140394,-0.610697 0.0061,-1.106728"
       style="color:#000000;fill:#3d2200;fill-opacity:1;stroke-width:0.999984;stroke-linecap:round;stroke-linejoin:round;-inkscape-stroke:none"
       id="path60" />
    <path
       d="m 30.53178,35.366803 c -1.139413,-1.977248 -2.966836,-0.426542 -2.845095,1.246014 l 0.07946,0.167066 c 1.216483,1.152486 3.574112,0.720484 2.765635,-1.41308"
       style="color:#000000;fill:#aa6300;stroke-width:0.999984;stroke-linecap:round;stroke-linejoin:round;-inkscape-stroke:none"
       id="path61" />
    <path
       d="m 30.496817,35.280482 c -0.09794,-0.197055 -0.266792,-0.385153 -0.37483,-0.554279 q -0.03678,0.03934 -0.06993,0.07698 c -0.167142,-0.149137 -0.345735,-0.252036 -0.469993,-0.184922 0.03461,0.403481 0.114167,0.780355 0.254772,1.077792 0.140605,0.297437 0.3818,0.597399 0.672677,0.878478 0.130627,-0.05353 0.163888,-0.255795 0.154333,-0.48105 q 0.05099,3.85e-4 0.104323,-0.0036 c -0.07146,-0.21831 -0.110573,-0.513646 -0.233673,-0.724306 a 0.99998381,0.99998381 0 0 0 -0.03677,-0.08547 z"
       style="fill:#ac8144;fill-opacity:1;stroke:none;stroke-width:0.264579;stroke-linecap:round;stroke-linejoin:round;stroke-dasharray:none;stroke-opacity:1"
       id="path62" />
    <path
       d="M 30.726511,35.254487 C 30.4235,34.726168 30.054435,34.405549 29.658615,34.277513 a 1.3799777,1.3799777 0 0 0 -1.138225,0.14947 c -0.672206,0.403631 -1.125422,1.278896 -1.057742,2.200341 a 0.19999676,0.19999676 0 0 0 0.02033,0.08103 l 0.08079,0.167546 a 0.19999676,0.19999676 0 0 0 0.04846,0.06564 c 0.670701,0.636413 1.635383,0.842253 2.373462,0.576717 a 1.3799777,1.3799777 0 0 0 0.834822,-0.786952 c 0.15107,-0.386742 0.137385,-0.875141 -0.07823,-1.445554 l -0.01486,-0.03169 m -0.402539,0.210884 c 0.178419,0.484035 0.176883,0.848138 0.07793,1.101089 -0.100449,0.259176 -0.298875,0.429555 -0.570176,0.526976 -0.535841,0.192776 -1.342087,0.03744 -1.888205,-0.465224 l -0.02718,-0.05794 c -0.04316,-0.739654 0.345456,-1.465337 0.835013,-1.756796 0.247098,-0.149026 0.505451,-0.193986 0.768586,-0.108647 0.26005,0.08347 0.54189,0.314668 0.804026,0.760544"
       style="color:#000000;fill:#3d2200;fill-opacity:1;stroke-width:0.999984;stroke-linecap:round;stroke-linejoin:round;-inkscape-stroke:none"
       id="path63" />
    <path
       d="m 31.019089,35.275403 c -1.632465,1.594625 0.323381,2.979845 1.913348,2.446674 l 0.142108,-0.118449 c 0.81439,-1.464521 -0.189408,-3.641084 -2.055456,-2.328225"
       style="color:#000000;fill:#aa6300;stroke-width:0.999984;stroke-linecap:round;stroke-linejoin:round;-inkscape-stroke:none"
       id="path64" />
    <path
       d="m 30.944151,35.330702 c -0.166569,0.143799 -0.306859,0.35406 -0.443867,0.500704 q 0.04724,0.02586 0.09193,0.04863 c -0.102971,0.198935 -0.158311,0.397483 -0.06245,0.501188 0.382258,-0.133693 0.72758,-0.304329 0.980797,-0.514376 0.253217,-0.210046 0.483907,-0.518161 0.68397,-0.869713 -0.08429,-0.113247 -0.288474,-0.09525 -0.504305,-0.03007 q -0.01228,-0.04949 -0.02943,-0.100153 c -0.193734,0.123425 -0.470114,0.234633 -0.643616,0.406179 a 0.99998381,0.99998381 0 0 0 -0.07367,0.05684 z"
       style="fill:#ac8144;fill-opacity:1;stroke:none;stroke-width:0.264579;stroke-linecap:round;stroke-linejoin:round;stroke-dasharray:none;stroke-opacity:1"
       id="path65" />
    <path
       d="m 30.861944,35.114653 c -0.43655,0.424689 -0.655504,0.861798 -0.681263,1.277012 a 1.3799777,1.3799777 0 0 0 0.427375,1.065481 c 0.557881,0.550952 1.518261,0.772678 2.394054,0.478353 a 0.19999676,0.19999676 0 0 0 0.07345,-0.03981 l 0.142244,-0.119857 a 0.19999676,0.19999676 0 0 0 0.05155,-0.06323 c 0.449975,-0.807703 0.409872,-1.793286 -0.03059,-2.442332 a 1.3799777,1.3799777 0 0 0 -0.969572,-0.613311 c -0.41214,-0.05033 -0.88185,0.08419 -1.380874,0.434666 l -0.027,0.02226 m 0.304219,0.33758 c 0.424585,-0.293003 0.777669,-0.38191 1.047267,-0.348857 0.276,0.03296 0.490307,0.182874 0.652034,0.421495 0.319771,0.471204 0.36946,1.290774 0.01812,1.944588 l -0.04938,0.04071 c -0.70578,0.225446 -1.505225,0.02916 -1.9091,-0.372715 -0.205707,-0.202364 -0.313399,-0.441466 -0.296059,-0.717549 0.0163,-0.272632 0.170282,-0.603047 0.537119,-0.967672"
       style="color:#000000;fill:#3d2200;fill-opacity:1;stroke-width:0.999984;stroke-linecap:round;stroke-linejoin:round;-inkscape-stroke:none"
       id="path66" />
  </g>
  <g
     transform="matrix(0.39247822,0,0,0.39142493,-3.8113398,-3.2065528)"
     id="g10">
    <path
       d="m 104.266,128.686 c -1.624,0.565 -3.258,0.507 -4.918,1.03 -5.954,1.875 -7.269,8.695 -5.571,13.517 0.09,0.191 0.456,0.69 0.875,0.678 5.093,0.437 11.367,-2.542 11.693,-8.777 0.09,-1.737 -0.374,-3.305 -0.233,-5.019 0.64,-4.29 2.142,-3.138 -1.846,-1.43 z"
       style="fill:#0c5108;fill-opacity:1;stroke:#073005;stroke-width:1.5875;stroke-linecap:round;stroke-linejoin:round;stroke-dasharray:none;stroke-opacity:1"
       id="path1" />
    <path
       d="m 82.318,129.652 c 0.343,1.309 0.194,2.585 0.501,3.919 1.102,4.785 6.396,6.251 10.304,5.229 0.157,-0.059 0.572,-0.313 0.59,-0.642 0.666,-3.963 -1.286,-9.069 -6.18,-9.723 -1.364,-0.182 -2.63,0.082 -3.971,-0.138 -3.342,-0.775 -2.34,-1.879 -1.244,1.355 m -0.156,17.013 c 0.704,-0.989 0.988,-2.107 1.67,-3.129 2.446,-3.664 7.32,-3.21 10.245,-1.11 0.111,0.099 0.376,0.445 0.285,0.726 -0.712,3.537 -3.968,7.2 -8.25,6.192 -1.192,-0.28 -2.161,-0.904 -3.348,-1.147 -3.028,-0.412 -2.547,0.833 -0.602,-1.532"
       style="fill:#0c5108;fill-opacity:1;stroke:#073005;stroke-width:1.5875;stroke-linecap:round;stroke-linejoin:round;stroke-dasharray:none;stroke-opacity:1"
       id="path2" />
    <path
       d="m 81.79,139.2 c 1.172,1.257 1.778,2.776 2.926,4.084 4.118,4.692 10.889,3.144 14.616,-0.354 0.139,-0.16 0.447,-0.696 0.267,-1.074 -1.654,-4.837 -6.91,-9.376 -12.746,-7.16 -1.627,0.617 -2.874,1.675 -4.5,2.237 -4.183,1.145 -3.735,-0.694 -0.563,2.266 z"
       style="fill:#0e5e09;fill-opacity:1;stroke:#073005;stroke-width:1.5875;stroke-linecap:round;stroke-linejoin:round;stroke-dasharray:none;stroke-opacity:1"
       id="path3" />
    <path
       d="m 105.222,151.735 c -0.018,-1.372 0.436,-2.595 0.459,-3.984 0.083,-4.983 -4.715,-7.701 -8.765,-7.633 -0.166,0.02 -0.633,0.171 -0.729,0.491 -1.606,3.747 -0.939,9.25 3.666,11.072 1.283,0.508 2.579,0.552 3.832,1.091 3.064,1.568 1.822,2.415 1.537,-1.037 M 97.33,125.222 c 0.501,1.105 1.326,1.912 1.866,3.015 1.94,3.956 -0.9,7.942 -4.185,9.417 -0.142,0.046 -0.574,0.101 -0.771,-0.119 -2.701,-2.391 -4.233,-7.047 -1.212,-10.243 0.843,-0.89 1.869,-1.415 2.674,-2.32 1.877,-2.411 0.56,-2.62 1.628,0.25 m -11.697,26.154 c -0.046,-1.213 -0.504,-2.272 -0.588,-3.498 -0.3,-4.395 3.836,-7.012 7.436,-7.135 0.148,0.01 0.57,0.123 0.669,0.401 1.596,3.236 1.254,8.125 -2.752,9.941 -1.116,0.507 -2.264,0.604 -3.352,1.137 -2.65,1.523 -1.509,2.214 -1.413,-0.846"
       style="fill:#0e5e09;fill-opacity:1;stroke:#073005;stroke-width:1.5875;stroke-linecap:round;stroke-linejoin:round;stroke-dasharray:none;stroke-opacity:1"
       id="path4" />
    <path
       d="m 110.05,139.225 c -1.118,-0.761 -1.844,-1.822 -2.952,-2.627 -3.973,-2.885 -8.928,-0.516 -11.205,2.821 -0.08,0.147 -0.226,0.612 -0.023,0.871 2.099,3.427 6.923,5.997 11.044,3.277 1.149,-0.758 1.93,-1.788 3.087,-2.503 3.03,-1.609 2.998,-0.118 0.048,-1.839 z"
       style="fill:#0c5108;fill-opacity:1;stroke:#073005;stroke-width:1.5875;stroke-linecap:round;stroke-linejoin:round;stroke-dasharray:none;stroke-opacity:1"
       id="path5" />
    <path
       d="m 88.208,129.2 c -0.06,1.104 -0.49,2.062 -0.583,3.177 -0.337,3.998 3.36,6.445 6.61,6.612 0.134,-0.008 0.516,-0.103 0.61,-0.355 1.49,-2.922 1.254,-7.38 -2.337,-9.096 -1,-0.478 -2.036,-0.584 -3.011,-1.086 -2.37,-1.428 -1.33,-2.04 -1.289,0.749 z m 19.204,18.163 c -1.16,0.248 -2.105,0.866 -3.271,1.152 -4.184,1.027 -7.384,-2.506 -8.095,-5.942 -0.014,-0.145 0.024,-0.568 0.276,-0.71 2.853,-2.077 7.618,-2.57 10.026,0.972 0.671,0.987 0.954,2.073 1.646,3.029 1.902,2.289 2.38,1.076 -0.583,1.499 z"
       style="fill:#a50e0e;fill-opacity:1;stroke:#4b0707;stroke-width:1.5875;stroke-linecap:round;stroke-linejoin:round;stroke-dasharray:none;stroke-opacity:1"
       id="path6" />
    <path
       d="m 96.148,153.902 c 0.691,-1.096 1.683,-1.83 2.416,-2.919 2.628,-3.903 0.189,-8.53 -3.087,-10.564 -0.144,-0.069 -0.594,-0.19 -0.835,0.014 -3.211,2.139 -5.508,6.842 -2.761,10.658 0.765,1.064 1.779,1.766 2.504,2.84 1.645,2.822 0.215,2.852 1.763,-0.029 m 10.92,-21.465 c -1.315,-0.126 -2.438,-0.69 -3.764,-0.857 -4.76,-0.6 -7.861,3.735 -8.22,7.641 0.002,0.162 0.098,0.627 0.394,0.753 3.417,1.936 8.752,1.869 10.977,-2.374 0.62,-1.182 0.797,-2.424 1.444,-3.574 1.82,-2.787 2.501,-1.503 -0.831,-1.589"
       style="fill:#a50e0e;fill-opacity:1;stroke:#4b0707;stroke-width:1.5875;stroke-linecap:round;stroke-linejoin:round;stroke-dasharray:none;stroke-opacity:1"
       id="path7" />
    <path
       d="m 85.182,144.534 c 0.97,0.223 1.752,0.75 2.726,1.004 3.493,0.913 6.228,-1.966 6.875,-4.802 0.014,-0.12 -0.012,-0.47 -0.221,-0.592 -2.361,-1.764 -6.35,-2.243 -8.42,0.655 -0.578,0.808 -0.831,1.704 -1.426,2.485 -1.629,1.868 -2.012,0.856 0.466,1.25"
       style="fill:#a50e0e;fill-opacity:1;stroke:#4b0707;stroke-width:1.5875;stroke-linecap:round;stroke-linejoin:round;stroke-dasharray:none;stroke-opacity:1"
       id="path8" />
    <circle
       cx="93.660004"
       cy="139.42"
       r="1.763"
       style="fill:#c3bf02;fill-opacity:1;stroke:#454401;stroke-width:0.79375;stroke-linecap:round;stroke-linejoin:round;stroke-dasharray:none;stroke-opacity:1"
       id="circle8" />
    <circle
       cx="96.070999"
       cy="142.61"
       r="1.35"
       style="fill:#c3bf02;fill-opacity:1;stroke:#454401;stroke-width:0.793753;stroke-linecap:round;stroke-linejoin:round;stroke-dasharray:none;stroke-opacity:1"
       id="circle9-4" />
    <circle
       cx="97.398003"
       cy="139.45"
       r="1.023"
       style="fill:#c3bf02;fill-opacity:1;stroke:#454401;stroke-width:0.793754;stroke-linecap:round;stroke-linejoin:round;stroke-dasharray:none;stroke-opacity:1"
       id="circle10-5" />
  </g>
  <g
     id="g9"
     transform="matrix(0.99998381,0,0,0.99998381,-90.629069,-62.211053)">
    <g
       style="stroke-width:1.24287"
       transform="matrix(0.80459,0,0,0.80459,11.227,20.45)"
       id="g7">
      <circle
         cx="117.46"
         cy="104.656"
         r="4.1459999"
         style="fill:#d8af76;fill-opacity:1;stroke:#b78034;stroke-width:1.15095;stroke-dasharray:none;stroke-opacity:1"
         id="circle5" />
      <circle
         cx="117.46"
         cy="104.656"
         r="1.589"
         style="fill:#b78034;fill-opacity:1;stroke:none;stroke-width:1.64421;stroke-dasharray:none;stroke-opacity:1"
         id="circle6" />
      <circle
         cx="117.46"
         cy="104.656"
         r="0.426"
         style="fill:#000000;fill-opacity:1;stroke:none;stroke-width:1.64421;stroke-dasharray:none;stroke-opacity:1"
         id="circle7" />
    </g>
    <circle
       cx="105.735"
       cy="104.656"
       r="9.5380001"
       style="fill:url(#b);stroke:none;stroke-width:1.32292;stroke-dasharray:none;stroke-opacity:1"
       id="circle8-5" />
  </g>
</svg>
