<svg xmlns="http://www.w3.org/2000/svg" xmlns:xlink="http://www.w3.org/1999/xlink" width="165.713" height="244.713" viewBox="0 0 43.845 64.747"><defs><radialGradient xlink:href="#a" id="b" cx="95.773" cy="88.153" r="9.538" fx="95.773" fy="88.153" gradientTransform="translate(9.962 16.503)" gradientUnits="userSpaceOnUse"/><linearGradient id="a"><stop offset="0" style="stop-color:#ffad23;stop-opacity:.61077845"/><stop offset=".829" style="stop-color:#ffad23;stop-opacity:0"/></linearGradient></defs><g transform="rotate(90 31.213 -139.941)"><rect width="64.747" height="43.845" x="171.155" y="-152.573" rx="2.97" ry="2.528" style="display:inline;fill:#302412;fill-opacity:1;stroke-width:.125008"/><rect width="54.148" height="39.876" x="176.455" y="-150.589" rx="1.323" ry="1.323" style="display:inline;fill:#785a2e;fill-opacity:1;stroke-width:.128916"/><rect width="1.587" height="39.876" x="173.139" y="-150.589" rx=".794" ry=".794" style="display:inline;fill:#785a2e;fill-opacity:1;stroke-width:.0959866"/><rect width="1.587" height="39.876" x="232.33" y="-150.589" rx=".794" ry=".794" style="display:inline;fill:#785a2e;fill-opacity:1;stroke-width:.0959866"/></g><g transform="translate(-18.93 -18.93)"><circle cx="33.054" cy="36.229" r="7.522" style="fill:#664210;fill-opacity:1;stroke:#311f08;stroke-width:1.3229;stroke-dasharray:none;stroke-opacity:1"/><circle cx="33.054" cy="36.229" r="5.417" style="fill:#53360d;fill-opacity:1;stroke:none;stroke-width:1.3229;stroke-dasharray:none;stroke-opacity:1"/><path d="M30.373 35.695c-1.64 1.588.31 2.982 1.902 2.456l.142-.118c.821-1.46-.172-3.642-2.044-2.338" style="color:#000;fill:#aa6300;stroke-width:.999984;stroke-linecap:round;stroke-linejoin:round;-inkscape-stroke:none"/><path d="M30.297 35.75c-.167.143-.308.353-.446.499l.092.05c-.104.198-.16.396-.065.5.383-.132.73-.301.983-.51.255-.209.487-.516.688-.866-.083-.114-.288-.097-.504-.033q-.012-.05-.029-.1c-.194.122-.471.232-.645.403a1 1 0 0 0-.074.057z" style="fill:#ac8144;fill-opacity:1;stroke:none;stroke-width:.264579;stroke-linecap:round;stroke-linejoin:round;stroke-dasharray:none;stroke-opacity:1"/><path d="M30.216 35.534c-.438.423-.66.859-.687 1.274a1.38 1.38 0 0 0 .423 1.067c.555.554 1.514.78 2.391.49a.2.2 45 0 0 .074-.04l.143-.12a.2.2 45 0 0 .052-.062c.453-.806.418-1.792-.02-2.443a1.38 1.38 0 0 0-.967-.617c-.411-.053-.882.08-1.382.428zm.302.34c.426-.292.78-.38 1.05-.345.275.034.489.185.65.425.317.472.363 1.292.008 1.944l-.05.04c-.706.223-1.505.023-1.907-.38-.204-.204-.311-.444-.292-.72.017-.272.173-.602.541-.965" style="color:#000;fill:#3d2200;fill-opacity:1;stroke-width:.999984;stroke-linecap:round;stroke-linejoin:round;-inkscape-stroke:none"/><path d="M29.887 40.658c.874 2.108 2.887.807 2.983-.867l-.057-.176c-1.057-1.3-3.45-1.177-2.926 1.043" style="color:#000;fill:#aa6300;stroke-width:.999984;stroke-linecap:round;stroke-linejoin:round;-inkscape-stroke:none"/><path d="M29.91 40.748c.073.208.216.417.3.598l.08-.067c.147.17.31.295.442.244.018-.404-.012-.788-.113-1.101-.1-.314-.301-.642-.553-.959-.137.037-.196.233-.215.457q-.05-.007-.104-.01c.042.226.043.524.138.749a1 1 0 0 0 .025.09z" style="fill:#ac8144;fill-opacity:1;stroke:none;stroke-width:.264579;stroke-linecap:round;stroke-linejoin:round;stroke-dasharray:none;stroke-opacity:1"/><path d="M29.68 40.744c.232.563.556.929.932 1.107a1.38 1.38 0 0 0 1.148 0c.719-.314 1.282-1.123 1.334-2.045a.2.2 0 0 0-.01-.083l-.058-.177a.2.2 0 0 0-.04-.071c-.582-.718-1.512-1.047-2.278-.88a1.38 1.38 0 0 0-.93.673c-.2.364-.25.85-.11 1.443l.01.033m.427-.157c-.114-.503-.065-.863.066-1.101.133-.244.352-.388.633-.45.557-.12 1.336.138 1.812.707l.02.06c-.053.74-.533 1.409-1.056 1.635-.264.115-.526.126-.776.008-.247-.117-.497-.382-.699-.859" style="color:#000;fill:#3d2200;fill-opacity:1;stroke-width:.999984;stroke-linecap:round;stroke-linejoin:round;-inkscape-stroke:none"/><path d="M31.058 32.805c.874 2.109 2.886.808 2.982-.867l-.057-.176c-1.057-1.3-3.45-1.177-2.925 1.043" style="color:#000;fill:#aa6300;stroke-width:.999984;stroke-linecap:round;stroke-linejoin:round;-inkscape-stroke:none"/><path d="M31.081 32.895c.072.209.215.417.3.599l.08-.068c.146.17.31.295.442.245.017-.405-.013-.789-.114-1.102-.1-.313-.3-.642-.553-.958-.136.036-.195.232-.215.457q-.05-.007-.104-.01c.043.226.043.523.138.748a1 1 0 0 0 .025.09z" style="fill:#ac8144;fill-opacity:1;stroke:none;stroke-width:.264579;stroke-linecap:round;stroke-linejoin:round;stroke-dasharray:none;stroke-opacity:1"/><path d="M30.85 32.892c.232.563.557.928.933 1.107a1.38 1.38 0 0 0 1.148-.001c.718-.313 1.281-1.123 1.333-2.045a.2.2 0 0 0-.01-.083l-.058-.177a.2.2 0 0 0-.04-.071c-.582-.718-1.512-1.047-2.278-.88a1.38 1.38 0 0 0-.93.673c-.2.364-.25.85-.11 1.443zm.427-.157c-.115-.503-.066-.864.065-1.102.133-.244.352-.387.634-.449.556-.122 1.335.137 1.812.706l.019.061c-.053.739-.532 1.408-1.055 1.634-.265.116-.527.127-.777.008-.247-.116-.496-.382-.698-.858" style="color:#000;fill:#3d2200;fill-opacity:1;stroke-width:.999984;stroke-linecap:round;stroke-linejoin:round;-inkscape-stroke:none"/><path d="M30.707 37.335c-1.854-1.33-2.879.836-2.078 2.309l.141.12c1.584.548 3.553-.819 1.937-2.429" style="color:#000;fill:#aa6300;stroke-width:.999984;stroke-linecap:round;stroke-linejoin:round;-inkscape-stroke:none"/><path d="M30.64 37.271c-.171-.139-.403-.24-.57-.35q-.018.05-.033.099c-.213-.067-.419-.087-.504.025.198.354.426.664.677.877.25.213.594.387.975.523.097-.103.043-.3-.058-.502q.046-.02.093-.046c-.155-.17-.312-.423-.511-.564a1 1 0 0 0-.069-.063z" style="fill:#ac8144;fill-opacity:1;stroke:none;stroke-width:.264579;stroke-linecap:round;stroke-linejoin:round;stroke-dasharray:none;stroke-opacity:1"/><path d="M30.838 37.153c-.494-.357-.963-.496-1.376-.45a1.38 1.38 0 0 0-.975.606c-.446.645-.498 1.63-.056 2.44a.2.2 0 0 0 .052.066l.143.12a.2.2 0 0 0 .07.04c.874.302 1.838.092 2.4-.454a1.38 1.38 0 0 0 .437-1.062c-.022-.414-.236-.854-.668-1.284l-.027-.023m-.28.358c.363.367.512.7.526.971.015.278-.095.515-.302.715-.409.397-1.207.588-1.912.355l-.049-.041c-.344-.656-.29-1.478.036-1.945.164-.238.38-.385.656-.416.271-.031.623.063 1.046.361" style="color:#000;fill:#3d2200;fill-opacity:1;stroke-width:.999984;stroke-linecap:round;stroke-linejoin:round;-inkscape-stroke:none"/><path d="M34.078 31.45c-1.64 1.587.31 2.98 1.902 2.455l.142-.118c.822-1.46-.172-3.642-2.044-2.338" style="color:#000;fill:#aa6300;stroke-width:.999984;stroke-linecap:round;stroke-linejoin:round;-inkscape-stroke:none"/><path d="M34.003 31.504c-.168.143-.309.353-.447.499l.092.05c-.104.198-.16.396-.065.5.383-.132.73-.301.983-.51.255-.209.487-.516.688-.867-.083-.113-.288-.096-.504-.032q-.012-.05-.029-.1c-.194.122-.47.232-.645.403a1 1 0 0 0-.074.057z" style="fill:#ac8144;fill-opacity:1;stroke:none;stroke-width:.264579;stroke-linecap:round;stroke-linejoin:round;stroke-dasharray:none;stroke-opacity:1"/><path d="M33.921 31.288c-.438.423-.66.859-.687 1.274a1.38 1.38 0 0 0 .423 1.067c.555.554 1.514.78 2.392.49a.2.2 45 0 0 .073-.04l.143-.12a.2.2 45 0 0 .052-.062c.453-.806.418-1.792-.02-2.443a1.38 1.38 0 0 0-.966-.617c-.412-.053-.883.08-1.383.428zm.302.34c.426-.292.78-.38 1.05-.345.275.034.489.185.65.425.317.472.363 1.292.008 1.944l-.05.04c-.706.223-1.504.023-1.906-.38-.205-.204-.312-.444-.293-.72.017-.272.173-.602.541-.965" style="color:#000;fill:#3d2200;fill-opacity:1;stroke-width:.999984;stroke-linecap:round;stroke-linejoin:round;-inkscape-stroke:none"/><path d="M33.961 34.629c-1.64 1.587.31 2.98 1.902 2.455l.143-.118c.821-1.46-.173-3.642-2.045-2.337" style="color:#000;fill:#aa6300;stroke-width:.999984;stroke-linecap:round;stroke-linejoin:round;-inkscape-stroke:none"/><path d="M33.886 34.684c-.167.143-.308.352-.446.498l.092.05c-.104.198-.16.396-.065.5.383-.132.729-.3.983-.51.254-.209.486-.516.688-.866-.084-.114-.288-.097-.504-.033q-.012-.05-.03-.1c-.194.123-.47.232-.645.403a1 1 0 0 0-.074.057z" style="fill:#ac8144;fill-opacity:1;stroke:none;stroke-width:.264579;stroke-linecap:round;stroke-linejoin:round;stroke-dasharray:none;stroke-opacity:1"/><path d="M33.805 34.467c-.439.423-.66.859-.687 1.274a1.38 1.38 0 0 0 .422 1.067c.556.554 1.515.78 2.392.49a.2.2 45 0 0 .074-.04l.142-.119a.2.2 45 0 0 .052-.063c.454-.806.418-1.791-.02-2.442a1.38 1.38 0 0 0-.966-.618c-.412-.052-.882.08-1.383.428zm.303.34c.426-.292.78-.38 1.049-.345.276.034.49.185.65.425.317.472.363 1.292.009 1.944l-.05.04c-.706.223-1.505.023-1.907-.38-.205-.204-.311-.444-.293-.72.018-.272.173-.602.542-.965" style="color:#000;fill:#3d2200;fill-opacity:1;stroke-width:.999984;stroke-linecap:round;stroke-linejoin:round;-inkscape-stroke:none"/><path d="M38.546 37.213c.987-2.058-1.325-2.688-2.636-1.642l-.093.16c-.263 1.655 1.426 3.355 2.73 1.482" style="color:#000;fill:#aa6300;stroke-width:.999984;stroke-linecap:round;stroke-linejoin:round;-inkscape-stroke:none"/><path d="M38.598 37.135c.107-.192.166-.438.245-.622l-.103-.014c.028-.223.012-.428-.113-.493-.314.257-.58.536-.745.82s-.277.652-.345 1.051c.118.078.304-.01.484-.144q.029.042.062.084c.14-.183.362-.382.466-.603a1 1 0 0 0 .05-.078z" style="fill:#ac8144;fill-opacity:1;stroke:none;stroke-width:.264579;stroke-linecap:round;stroke-linejoin:round;stroke-dasharray:none;stroke-opacity:1"/><path d="M38.749 37.31c.264-.549.32-1.034.202-1.433a1.38 1.38 0 0 0-.767-.855c-.713-.326-1.691-.205-2.413.372a.2.2 0 0 0-.055.063l-.093.161a.2.2 0 0 0-.026.077c-.146.913.23 1.825.866 2.284a1.38 1.38 0 0 0 1.12.244c.405-.095.8-.382 1.149-.882zm-.402-.213c-.298.42-.6.625-.864.687-.27.063-.523-.004-.757-.173-.462-.333-.79-1.086-.684-1.82l.033-.055c.585-.454 1.404-.544 1.92-.305.263.12.447.307.525.573.078.261.047.624-.173 1.093" style="color:#000;fill:#3d2200;fill-opacity:1;stroke-width:.999984;stroke-linecap:round;stroke-linejoin:round;-inkscape-stroke:none"/><path d="M35.6 36.972c-1.854-1.331-2.879.835-2.078 2.309l.141.119c1.584.548 3.553-.818 1.937-2.428" style="color:#000;fill:#aa6300;stroke-width:.999984;stroke-linecap:round;stroke-linejoin:round;-inkscape-stroke:none"/><path d="M35.532 36.908c-.17-.14-.402-.241-.57-.35l-.032.098c-.213-.067-.419-.087-.504.026.198.353.426.664.677.877.25.212.594.386.975.522.097-.102.044-.3-.058-.502q.047-.02.093-.046c-.155-.17-.312-.422-.511-.563a1 1 0 0 0-.069-.063z" style="fill:#ac8144;fill-opacity:1;stroke:none;stroke-width:.264579;stroke-linecap:round;stroke-linejoin:round;stroke-dasharray:none;stroke-opacity:1"/><path d="M35.73 36.79c-.493-.357-.962-.497-1.375-.45a1.38 1.38 0 0 0-.975.605c-.446.645-.498 1.63-.056 2.441a.2.2 0 0 0 .052.066l.143.119a.2.2 0 0 0 .07.04c.874.303 1.838.092 2.4-.454a1.38 1.38 0 0 0 .437-1.061c-.022-.415-.236-.854-.668-1.285l-.026-.022m-.28.358c.362.367.51.7.525.97.015.278-.095.515-.302.716-.409.396-1.207.588-1.912.355l-.049-.042c-.344-.656-.29-1.477.036-1.944.164-.238.38-.386.656-.416.271-.032.623.063 1.046.36" style="color:#000;fill:#3d2200;fill-opacity:1;stroke-width:.999984;stroke-linecap:round;stroke-linejoin:round;-inkscape-stroke:none"/><path d="M34.393 41.412c2.249-.39 1.422-2.639-.19-3.1l-.185.017c-1.5.746-1.906 3.108.375 3.083" style="color:#000;fill:#aa6300;stroke-width:.999984;stroke-linecap:round;stroke-linejoin:round;-inkscape-stroke:none"/><path d="M34.486 41.41c.22-.025.454-.119.65-.162l-.048-.092c.197-.106.355-.238.335-.378-.39-.106-.772-.161-1.1-.132-.327.03-.692.153-1.056.33.005.14.184.242.399.31q-.018.048-.033.1c.23.007.52.072.76.03a1 1 0 0 0 .093-.006z" style="fill:#ac8144;fill-opacity:1;stroke:none;stroke-width:.264579;stroke-linecap:round;stroke-linejoin:round;stroke-dasharray:none;stroke-opacity:1"/><path d="M34.432 41.634c.6-.103 1.028-.34 1.285-.667a1.38 1.38 0 0 0 .25-1.12c-.147-.77-.813-1.497-1.701-1.75a.2.2 0 0 0-.083-.01l-.185.02a.2.2 0 0 0-.079.022c-.828.41-1.353 1.246-1.358 2.03a1.38 1.38 0 0 0 .452 1.055c.31.275.774.43 1.384.424zm-.06-.45c-.516 0-.857-.127-1.06-.307-.21-.183-.3-.428-.299-.716.003-.57.427-1.273 1.087-1.613l.063-.006c.71.214 1.257.829 1.363 1.389.054.283.008.541-.163.759-.168.215-.482.4-.99.493" style="color:#000;fill:#3d2200;fill-opacity:1;stroke-width:.999984;stroke-linecap:round;stroke-linejoin:round;-inkscape-stroke:none"/><path d="M36.693 40.228c2.218-.537 1.244-2.727-.395-3.08l-.183.028c-1.448.843-1.697 3.227.578 3.052" style="color:#000;fill:#aa6300;stroke-width:.999984;stroke-linecap:round;stroke-linejoin:round;-inkscape-stroke:none"/><path d="M36.785 40.219c.217-.039.445-.148.638-.204l-.054-.089c.19-.118.339-.26.31-.399-.398-.08-.782-.11-1.107-.059s-.68.199-1.032.399c.015.14.2.229.418.283q-.015.049-.026.101c.23-.007.524.039.761-.02a1 1 0 0 0 .093-.011z" style="fill:#ac8144;fill-opacity:1;stroke:none;stroke-width:.264579;stroke-linecap:round;stroke-linejoin:round;stroke-dasharray:none;stroke-opacity:1"/><path d="M36.746 40.446c.592-.142 1.003-.406 1.238-.75a1.38 1.38 0 0 0 .176-1.134c-.198-.758-.91-1.44-1.813-1.634a.2.2 0 0 0-.084-.003l-.183.03a.2.2 0 0 0-.077.028c-.8.465-1.268 1.332-1.221 2.115a1.38 1.38 0 0 0 .52 1.023c.329.254.801.378 1.41.332l.034-.006m-.09-.445c-.514.035-.863-.07-1.078-.235-.22-.17-.328-.408-.345-.696-.034-.568.342-1.298.978-1.68l.063-.01c.722.166 1.309.743 1.45 1.295.074.28.045.54-.111.768-.153.226-.455.432-.956.558" style="color:#000;fill:#3d2200;fill-opacity:1;stroke-width:.999984;stroke-linecap:round;stroke-linejoin:round;-inkscape-stroke:none"/><path d="M34.772 34.322c-.171 2.276 2.212 2.023 3.053.572l.029-.183c-.357-1.637-2.549-2.607-3.082-.389" style="color:#000;fill:#aa6300;stroke-width:.999984;stroke-linecap:round;stroke-linejoin:round;-inkscape-stroke:none"/><path d="M34.753 34.413c-.03.218.003.469-.003.67l.101-.025c.055.217.144.403.285.417.198-.353.345-.709.396-1.034s.02-.708-.061-1.105c-.138-.029-.28.12-.399.311q-.042-.029-.088-.056c-.064.221-.198.487-.215.73a1 1 0 0 0-.017.092z" style="fill:#ac8144;fill-opacity:1;stroke:none;stroke-width:.264579;stroke-linecap:round;stroke-linejoin:round;stroke-dasharray:none;stroke-opacity:1"/><path d="M34.548 34.305c-.047.608.078 1.08.333 1.409a1.38 1.38 0 0 0 1.025.517c.782.045 1.65-.423 2.113-1.223a.2.2 0 0 0 .028-.078l.028-.184a.2.2 0 0 0-.003-.082c-.196-.903-.878-1.616-1.637-1.813a1.38 1.38 0 0 0-1.133.18c-.343.235-.606.647-.75 1.24zm.452.052c.125-.5.33-.8.555-.953.229-.158.489-.187.768-.115.551.142 1.13.725 1.299 1.448l-.01.063c-.381.635-1.111 1.016-1.68.982-.288-.016-.527-.125-.696-.343-.168-.216-.27-.565-.236-1.082" style="color:#000;fill:#3d2200;fill-opacity:1;stroke-width:.999984;stroke-linecap:round;stroke-linejoin:round;-inkscape-stroke:none"/><path d="M33.254 34.98c-2.269.245-1.586 2.543-.006 3.105l.185-.005c1.545-.649 2.1-2.98-.179-3.1" style="color:#000;fill:#aa6300;stroke-width:.999984;stroke-linecap:round;stroke-linejoin:round;-inkscape-stroke:none"/><path d="M33.161 34.976c-.22.01-.46.09-.658.12q.021.05.042.095c-.204.093-.37.215-.359.356.384.13.76.21 1.09.201.328-.009.7-.109 1.075-.262.003-.14-.168-.253-.378-.335q.02-.046.038-.097c-.228-.022-.514-.105-.757-.078a1 1 0 0 0-.093 0z" style="fill:#ac8144;fill-opacity:1;stroke:none;stroke-width:.264579;stroke-linecap:round;stroke-linejoin:round;stroke-dasharray:none;stroke-opacity:1"/><path d="M33.23 34.756c-.606.064-1.048.273-1.325.583a1.38 1.38 0 0 0-.321 1.102c.098.778.716 1.546 1.587 1.855a.2.2 0 0 0 .082.014l.186-.006a.2.2 0 0 0 .08-.018c.853-.357 1.43-1.157 1.484-1.94a1.38 1.38 0 0 0-.384-1.081c-.293-.294-.745-.478-1.354-.511h-.035m.03.454c.516.032.848.18 1.04.373.197.196.272.446.252.734-.04.568-.506 1.243-1.186 1.54l-.064.002c-.695-.259-1.202-.907-1.272-1.472-.037-.287.026-.541.21-.748.182-.204.507-.369 1.02-.429" style="color:#000;fill:#3d2200;fill-opacity:1;stroke-width:.999984;stroke-linecap:round;stroke-linejoin:round;-inkscape-stroke:none"/><path d="M29.186 32.149c-2.078.942-.712 2.911.964 2.952l.174-.062c1.265-1.1 1.064-3.488-1.138-2.89" style="color:#000;fill:#aa6300;stroke-width:.999984;stroke-linecap:round;stroke-linejoin:round;-inkscape-stroke:none"/><path d="M29.097 32.175c-.206.079-.41.228-.588.32q.035.04.07.077c-.165.151-.285.32-.23.45.405.004.788-.039 1.097-.15.31-.11.632-.322.94-.584-.04-.135-.239-.188-.464-.2q.005-.05.007-.104c-.225.05-.522.06-.744.162a1 1 0 0 0-.089.028z" style="fill:#ac8144;fill-opacity:1;stroke:none;stroke-width:.264579;stroke-linecap:round;stroke-linejoin:round;stroke-dasharray:none;stroke-opacity:1"/><path d="M29.093 31.944c-.555.25-.91.587-1.076.968a1.38 1.38 0 0 0 .038 1.147c.337.709 1.164 1.245 2.088 1.267a.2.2 45 0 0 .082-.013l.175-.064a.2.2 45 0 0 .07-.042c.699-.605.997-1.545.804-2.306a1.38 1.38 0 0 0-.702-.907c-.37-.188-.857-.222-1.446-.063zm.17.421c.5-.13.862-.093 1.104.03.248.125.399.339.47.618.14.552-.094 1.34-.647 1.834l-.06.022c-.74-.03-1.425-.486-1.668-1.002-.124-.26-.144-.522-.033-.775.108-.251.366-.51.835-.727" style="color:#000;fill:#3d2200;fill-opacity:1;stroke-width:.999984;stroke-linecap:round;stroke-linejoin:round;-inkscape-stroke:none"/><path d="M31.197 37.993c-1.426 1.783.685 2.918 2.198 2.195l.126-.135c.63-1.553-.633-3.59-2.324-2.06" style="color:#000;fill:#aa6300;stroke-width:.999984;stroke-linecap:round;stroke-linejoin:round;-inkscape-stroke:none"/><path d="M31.13 38.057c-.149.164-.262.39-.38.552l.097.037c-.078.21-.109.414 0 .505.362-.18.684-.391.91-.63.225-.24.417-.574.572-.947-.097-.102-.298-.06-.504.031q-.018-.047-.041-.095c-.178.146-.438.29-.59.481a1 1 0 0 0-.066.066z" style="fill:#ac8144;fill-opacity:1;stroke:none;stroke-width:.264579;stroke-linecap:round;stroke-linejoin:round;stroke-dasharray:none;stroke-opacity:1"/><path d="M31.021 37.853c-.381.475-.545.936-.52 1.35a1.38 1.38 0 0 0 .554 1.006c.621.479 1.602.581 2.435.182a.2.2 0 0 0 .068-.048l.126-.136a.2.2 0 0 0 .044-.07c.348-.856.188-1.83-.329-2.42a1.38 1.38 0 0 0-1.037-.49c-.415 0-.865.191-1.318.6zm.344.298c.385-.342.725-.474.996-.474.278 0 .51.122.699.339.375.428.524 1.236.256 1.928l-.044.046c-.673.31-1.49.213-1.94-.137-.23-.175-.366-.4-.382-.676-.017-.272.095-.619.415-1.026" style="color:#000;fill:#3d2200;fill-opacity:1;stroke-width:.999984;stroke-linecap:round;stroke-linejoin:round;-inkscape-stroke:none"/><path d="M33.026 35.078c1.028-2.038-1.271-2.715-2.603-1.696l-.096.158c-.296 1.65 1.358 3.384 2.699 1.538" style="color:#000;fill:#aa6300;stroke-width:.999984;stroke-linecap:round;stroke-linejoin:round;-inkscape-stroke:none"/><path d="M33.079 35c.11-.19.175-.433.258-.617l-.103-.016c.033-.221.021-.427-.103-.494-.319.25-.59.523-.762.804-.171.28-.29.647-.365 1.044.116.08.304-.003.487-.134q.027.042.06.085c.143-.18.369-.374.477-.593a1 1 0 0 0 .052-.078z" style="fill:#ac8144;fill-opacity:1;stroke:none;stroke-width:.264579;stroke-linecap:round;stroke-linejoin:round;stroke-dasharray:none;stroke-opacity:1"/><path d="M33.227 35.179c.275-.543.34-1.028.23-1.43a1.38 1.38 0 0 0-.749-.869c-.706-.34-1.686-.24-2.42.323a.2.2 0 0 0-.056.061l-.096.16a.2.2 0 0 0-.028.076c-.165.91.193 1.83.82 2.301a1.38 1.38 0 0 0 1.115.266c.407-.085.807-.365 1.166-.858zm-.397-.22c-.307.414-.612.613-.878.669-.271.058-.523-.015-.753-.188-.455-.342-.768-1.102-.647-1.834l.034-.055c.594-.441 1.414-.515 1.927-.265.26.125.44.316.512.583.073.263.034.626-.195 1.09" style="color:#000;fill:#3d2200;fill-opacity:1;stroke-width:.999984;stroke-linecap:round;stroke-linejoin:round;-inkscape-stroke:none"/><path d="M34.141 35.508c2.073-.954.696-2.916-.98-2.947l-.174.063c-1.26 1.106-1.045 3.494 1.154 2.884" style="color:#000;fill:#aa6300;stroke-width:.999984;stroke-linecap:round;stroke-linejoin:round;-inkscape-stroke:none"/><path d="M34.23 35.48c.205-.079.408-.23.586-.322q-.035-.04-.07-.076c.164-.153.283-.322.227-.452-.405-.002-.787.043-1.096.156-.31.112-.63.325-.937.59.042.134.24.186.465.197q-.005.05-.006.104c.224-.051.522-.063.743-.166a1 1 0 0 0 .088-.03z" style="fill:#ac8144;fill-opacity:1;stroke:none;stroke-width:.264579;stroke-linecap:round;stroke-linejoin:round;stroke-dasharray:none;stroke-opacity:1"/><path d="M34.235 35.712c.554-.254.907-.592 1.07-.974a1.38 1.38 0 0 0-.044-1.147c-.34-.707-1.17-1.238-2.095-1.255a.2.2 45 0 0-.082.013l-.174.065a.2.2 45 0 0-.07.042c-.695.61-.988 1.552-.792 2.311a1.38 1.38 0 0 0 .708.903c.371.186.859.217 1.446.055zm-.173-.42c-.498.133-.86.098-1.103-.023-.25-.124-.4-.337-.473-.616-.143-.552.085-1.34.636-1.838l.06-.022c.74.025 1.428.478 1.673.992.126.26.147.521.038.776-.107.25-.363.51-.83.73" style="color:#000;fill:#3d2200;fill-opacity:1;stroke-width:.999984;stroke-linecap:round;stroke-linejoin:round;-inkscape-stroke:none"/><path d="M33.265 36.486c-.666 2.183 1.715 2.458 2.853 1.227l.068-.172c.01-1.676-1.916-3.103-2.921-1.055" style="color:#000;fill:#aa6300;stroke-width:.999984;stroke-linecap:round;stroke-linejoin:round;-inkscape-stroke:none"/><path d="M33.226 36.57c-.077.207-.1.459-.15.653l.105-.001c.005.224.052.424.186.47.27-.302.492-.617.613-.923s.175-.687.182-1.091c-.128-.06-.299.055-.457.216q-.034-.038-.074-.074c-.11.201-.3.431-.37.665a1 1 0 0 0-.036.086z" style="fill:#ac8144;fill-opacity:1;stroke:none;stroke-width:.264579;stroke-linecap:round;stroke-linejoin:round;stroke-dasharray:none;stroke-opacity:1"/><path d="M33.05 36.42c-.18.583-.161 1.072.016 1.448a1.38 1.38 0 0 0 .886.73c.754.214 1.703-.052 2.33-.731a.2.2 0 0 0 .045-.07l.067-.174a.2.2 0 0 0 .015-.08c.007-.925-.502-1.77-1.2-2.128a1.38 1.38 0 0 0-1.145-.072c-.386.154-.733.498-1.002 1.045l-.013.033m.429.15c.231-.462.498-.71.75-.81.258-.103.518-.075.775.057.507.26.944.954.95 1.696l-.024.06c-.51.537-1.306.749-1.853.59-.278-.078-.487-.236-.604-.487-.117-.247-.14-.61.006-1.107" style="color:#000;fill:#3d2200;fill-opacity:1;stroke-width:.999984;stroke-linecap:round;stroke-linejoin:round;-inkscape-stroke:none"/><path d="M30.532 35.367c-1.14-1.977-2.967-.427-2.845 1.246l.08.167c1.216 1.152 3.573.72 2.765-1.413" style="color:#000;fill:#aa6300;stroke-width:.999984;stroke-linecap:round;stroke-linejoin:round;-inkscape-stroke:none"/><path d="M30.497 35.28c-.098-.197-.267-.385-.375-.554l-.07.077c-.167-.149-.346-.252-.47-.185.035.404.114.78.255 1.078.14.297.382.597.673.879.13-.054.163-.256.154-.482q.05 0 .104-.003c-.071-.218-.11-.514-.234-.724a1 1 0 0 0-.036-.086z" style="fill:#ac8144;fill-opacity:1;stroke:none;stroke-width:.264579;stroke-linecap:round;stroke-linejoin:round;stroke-dasharray:none;stroke-opacity:1"/><path d="M30.727 35.254c-.303-.528-.673-.848-1.068-.976a1.38 1.38 0 0 0-1.139.149c-.672.404-1.125 1.279-1.057 2.2a.2.2 0 0 0 .02.081l.08.168a.2.2 0 0 0 .05.066c.67.636 1.635.842 2.373.576a1.38 1.38 0 0 0 .835-.787c.15-.386.137-.875-.079-1.445zm-.402.21c.178.485.177.85.078 1.102-.1.26-.3.43-.57.527-.536.193-1.342.037-1.889-.465l-.027-.058c-.043-.74.346-1.465.835-1.757.247-.149.506-.194.769-.109.26.084.542.315.804.76" style="color:#000;fill:#3d2200;fill-opacity:1;stroke-width:.999984;stroke-linecap:round;stroke-linejoin:round;-inkscape-stroke:none"/><path d="M31.02 35.275c-1.633 1.595.322 2.98 1.912 2.447l.143-.118c.814-1.465-.19-3.641-2.056-2.329" style="color:#000;fill:#aa6300;stroke-width:.999984;stroke-linecap:round;stroke-linejoin:round;-inkscape-stroke:none"/><path d="M30.944 35.33c-.166.145-.307.355-.444.501l.092.049c-.103.199-.158.398-.062.501.382-.133.727-.304.98-.514.254-.21.484-.518.685-.87-.085-.113-.289-.095-.505-.03q-.012-.05-.03-.1c-.193.123-.47.235-.643.406a1 1 0 0 0-.073.057z" style="fill:#ac8144;fill-opacity:1;stroke:none;stroke-width:.264579;stroke-linecap:round;stroke-linejoin:round;stroke-dasharray:none;stroke-opacity:1"/><path d="M30.862 35.115c-.437.424-.656.861-.681 1.277a1.38 1.38 0 0 0 .427 1.065c.558.551 1.518.773 2.394.478a.2.2 0 0 0 .074-.04l.142-.12a.2.2 0 0 0 .051-.062c.45-.808.41-1.794-.03-2.443a1.38 1.38 0 0 0-.97-.613c-.412-.05-.882.084-1.38.435l-.028.022m.305.337c.424-.293.777-.381 1.047-.348.276.033.49.182.652.421.32.471.37 1.29.018 1.945l-.05.04c-.705.226-1.505.03-1.909-.372-.205-.203-.313-.442-.296-.718.017-.272.17-.603.538-.968" style="color:#000;fill:#3d2200;fill-opacity:1;stroke-width:.999984;stroke-linecap:round;stroke-linejoin:round;-inkscape-stroke:none"/></g><g transform="matrix(.39248 0 0 .39142 -3.811 -3.207)"><path d="M104.266 128.686c-1.624.565-3.258.507-4.918 1.03-5.954 1.875-7.269 8.695-5.571 13.517.09.191.456.69.875.678 5.093.437 11.367-2.542 11.693-8.777.09-1.737-.374-3.305-.233-5.019.64-4.29 2.142-3.138-1.846-1.43z" style="fill:#0c5108;fill-opacity:1;stroke:#073005;stroke-width:1.5875;stroke-linecap:round;stroke-linejoin:round;stroke-dasharray:none;stroke-opacity:1"/><path d="M82.318 129.652c.343 1.309.194 2.585.501 3.919 1.102 4.785 6.396 6.251 10.304 5.229.157-.059.572-.313.59-.642.666-3.963-1.286-9.069-6.18-9.723-1.364-.182-2.63.082-3.971-.138-3.342-.775-2.34-1.879-1.244 1.355m-.156 17.013c.704-.989.988-2.107 1.67-3.129 2.446-3.664 7.32-3.21 10.245-1.11.111.099.376.445.285.726-.712 3.537-3.968 7.2-8.25 6.192-1.192-.28-2.161-.904-3.348-1.147-3.028-.412-2.547.833-.602-1.532" style="fill:#0c5108;fill-opacity:1;stroke:#073005;stroke-width:1.5875;stroke-linecap:round;stroke-linejoin:round;stroke-dasharray:none;stroke-opacity:1"/><path d="M81.79 139.2c1.172 1.257 1.778 2.776 2.926 4.084 4.118 4.692 10.889 3.144 14.616-.354.139-.16.447-.696.267-1.074-1.654-4.837-6.91-9.376-12.746-7.16-1.627.617-2.874 1.675-4.5 2.237-4.183 1.145-3.735-.694-.563 2.266z" style="fill:#0e5e09;fill-opacity:1;stroke:#073005;stroke-width:1.5875;stroke-linecap:round;stroke-linejoin:round;stroke-dasharray:none;stroke-opacity:1"/><path d="M105.222 151.735c-.018-1.372.436-2.595.459-3.984.083-4.983-4.715-7.701-8.765-7.633-.166.02-.633.171-.729.491-1.606 3.747-.939 9.25 3.666 11.072 1.283.508 2.579.552 3.832 1.091 3.064 1.568 1.822 2.415 1.537-1.037m-7.892-26.513c.501 1.105 1.326 1.912 1.866 3.015 1.94 3.956-.9 7.942-4.185 9.417-.142.046-.574.101-.771-.119-2.701-2.391-4.233-7.047-1.212-10.243.843-.89 1.869-1.415 2.674-2.32 1.877-2.411.56-2.62 1.628.25m-11.697 26.154c-.046-1.213-.504-2.272-.588-3.498-.3-4.395 3.836-7.012 7.436-7.135.148.01.57.123.669.401 1.596 3.236 1.254 8.125-2.752 9.941-1.116.507-2.264.604-3.352 1.137-2.65 1.523-1.509 2.214-1.413-.846" style="fill:#0e5e09;fill-opacity:1;stroke:#073005;stroke-width:1.5875;stroke-linecap:round;stroke-linejoin:round;stroke-dasharray:none;stroke-opacity:1"/><path d="M110.05 139.225c-1.118-.761-1.844-1.822-2.952-2.627-3.973-2.885-8.928-.516-11.205 2.821-.08.147-.226.612-.023.871 2.099 3.427 6.923 5.997 11.044 3.277 1.149-.758 1.93-1.788 3.087-2.503 3.03-1.609 2.998-.118.048-1.839z" style="fill:#0c5108;fill-opacity:1;stroke:#073005;stroke-width:1.5875;stroke-linecap:round;stroke-linejoin:round;stroke-dasharray:none;stroke-opacity:1"/><path d="M88.208 129.2c-.06 1.104-.49 2.062-.583 3.177-.337 3.998 3.36 6.445 6.61 6.612.134-.008.516-.103.61-.355 1.49-2.922 1.254-7.38-2.337-9.096-1-.478-2.036-.584-3.011-1.086-2.37-1.428-1.33-2.04-1.289.749zm19.204 18.163c-1.16.248-2.105.866-3.271 1.152-4.184 1.027-7.384-2.506-8.095-5.942-.014-.145.024-.568.276-.71 2.853-2.077 7.618-2.57 10.026.972.671.987.954 2.073 1.646 3.029 1.902 2.289 2.38 1.076-.583 1.499z" style="fill:#a50e0e;fill-opacity:1;stroke:#4b0707;stroke-width:1.5875;stroke-linecap:round;stroke-linejoin:round;stroke-dasharray:none;stroke-opacity:1"/><path d="M96.148 153.902c.691-1.096 1.683-1.83 2.416-2.919 2.628-3.903.189-8.53-3.087-10.564-.144-.069-.594-.19-.835.014-3.211 2.139-5.508 6.842-2.761 10.658.765 1.064 1.779 1.766 2.504 2.84 1.645 2.822.215 2.852 1.763-.029m10.92-21.465c-1.315-.126-2.438-.69-3.764-.857-4.76-.6-7.861 3.735-8.22 7.641.002.162.098.627.394.753 3.417 1.936 8.752 1.869 10.977-2.374.62-1.182.797-2.424 1.444-3.574 1.82-2.787 2.501-1.503-.831-1.589" style="fill:#a50e0e;fill-opacity:1;stroke:#4b0707;stroke-width:1.5875;stroke-linecap:round;stroke-linejoin:round;stroke-dasharray:none;stroke-opacity:1"/><path d="M85.182 144.534c.97.223 1.752.75 2.726 1.004 3.493.913 6.228-1.966 6.875-4.802.014-.12-.012-.47-.221-.592-2.361-1.764-6.35-2.243-8.42.655-.578.808-.831 1.704-1.426 2.485-1.629 1.868-2.012.856.466 1.25" style="fill:#a50e0e;fill-opacity:1;stroke:#4b0707;stroke-width:1.5875;stroke-linecap:round;stroke-linejoin:round;stroke-dasharray:none;stroke-opacity:1"/><circle cx="93.66" cy="139.42" r="1.763" style="fill:#c3bf02;fill-opacity:1;stroke:#454401;stroke-width:.79375;stroke-linecap:round;stroke-linejoin:round;stroke-dasharray:none;stroke-opacity:1"/><circle cx="96.071" cy="142.61" r="1.35" style="fill:#c3bf02;fill-opacity:1;stroke:#454401;stroke-width:.793753;stroke-linecap:round;stroke-linejoin:round;stroke-dasharray:none;stroke-opacity:1"/><circle cx="97.398" cy="139.45" r="1.023" style="fill:#c3bf02;fill-opacity:1;stroke:#454401;stroke-width:.793754;stroke-linecap:round;stroke-linejoin:round;stroke-dasharray:none;stroke-opacity:1"/></g><g transform="translate(-90.63 -62.211)scale(.99998)"><g style="stroke-width:1.24287" transform="translate(11.227 20.45)scale(.80459)"><circle cx="117.46" cy="104.656" r="4.146" style="fill:#d8af76;fill-opacity:1;stroke:#b78034;stroke-width:1.15095;stroke-dasharray:none;stroke-opacity:1"/><circle cx="117.46" cy="104.656" r="1.589" style="fill:#b78034;fill-opacity:1;stroke:none;stroke-width:1.64421;stroke-dasharray:none;stroke-opacity:1"/><circle cx="117.46" cy="104.656" r=".426" style="fill:#000;fill-opacity:1;stroke:none;stroke-width:1.64421;stroke-dasharray:none;stroke-opacity:1"/></g><circle cx="105.735" cy="104.656" r="9.538" style="fill:url(#b);stroke:none;stroke-width:1.32292;stroke-dasharray:none;stroke-opacity:1"/></g></svg>