<svg xmlns="http://www.w3.org/2000/svg" xml:space="preserve" width="320.059" height="932.426" viewBox="0 0 84.682 246.704"><g transform="matrix(.93647 0 0 -.93647 -1856.593 841.905)"><path d="M2001.581 636.832h51.792v7.312h-51.792zM2001.862 743.304h51.792v7.312h-51.792z" style="fill:#333;fill-opacity:1;stroke:#181818;stroke-width:2.5;stroke-linecap:square;stroke-linejoin:round;stroke-dasharray:none;stroke-opacity:1;paint-order:normal;stop-color:#000"/><path d="M1984.634 891.211h86.069v6.977h-86.069z" style="fill:#333;fill-opacity:1;stroke:#181818;stroke-width:1.62719;stroke-linecap:square;stroke-linejoin:round;stroke-dasharray:none;stroke-opacity:1;paint-order:normal;stop-color:#000"/><path d="M1999.484 890.619h-14.95v7.5c.338-.215.656-.514 1.046-.674.206-.083.43-.11.643-.175 7.885-.56 9.814 1.816 12.74-5.493.159-.393.365-.765.521-1.158z" style="fill:#c9d1d9;fill-opacity:1;stroke:#a2a5c0;stroke-width:1.80893;stroke-linecap:round;stroke-linejoin:round;stroke-dasharray:none;stroke-opacity:1;stop-color:#000"/><path d="M2016.605 638.142h22.164v252.219h-22.164z" style="fill:#333;stroke:#181818;stroke-width:3.22301;stroke-linecap:square;stroke-dasharray:none;stroke-opacity:1;stop-color:#000"/><rect width="30.048" height="5.706" x="1985.752" y="867.018" ry="0" style="fill:#4d4d4d;fill-opacity:1;stroke:#181818;stroke-width:2.34998;stroke-linecap:square;stroke-linejoin:round;stroke-dasharray:none;stroke-opacity:1;paint-order:normal;stop-color:#000"/><rect width="12.957" height="34.113" x="1999.255" y="853.245" ry="2.624" style="fill:#333;fill-opacity:1;stroke:#181818;stroke-width:2.0632;stroke-linecap:square;stroke-linejoin:round;stroke-dasharray:none;stroke-opacity:1;paint-order:normal;stop-color:#000"/><rect width="12.957" height="34.113" x="1983.584" y="853.08" ry="2.624" style="fill:#333;fill-opacity:1;stroke:#181818;stroke-width:2.0632;stroke-linecap:square;stroke-linejoin:round;stroke-dasharray:none;stroke-opacity:1;paint-order:normal;stop-color:#000"/><rect width="30.048" height="5.706" x="1985.761" y="827.268" ry="0" style="fill:#4d4d4d;fill-opacity:1;stroke:#181818;stroke-width:2.34998;stroke-linecap:square;stroke-linejoin:round;stroke-dasharray:none;stroke-opacity:1;paint-order:normal;stop-color:#000"/><rect width="12.957" height="34.113" x="1999.263" y="813.495" ry="2.624" style="fill:#333;fill-opacity:1;stroke:#181818;stroke-width:2.0632;stroke-linecap:square;stroke-linejoin:round;stroke-dasharray:none;stroke-opacity:1;paint-order:normal;stop-color:#000"/><rect width="12.957" height="34.113" x="1983.593" y="813.329" ry="2.624" style="fill:#333;fill-opacity:1;stroke:#181818;stroke-width:2.0632;stroke-linecap:square;stroke-linejoin:round;stroke-dasharray:none;stroke-opacity:1;paint-order:normal;stop-color:#000"/><rect width="30.048" height="5.706" x="-2069.703" y="867.009" ry="0" style="fill:#4d4d4d;fill-opacity:1;stroke:#181818;stroke-width:2.34998;stroke-linecap:square;stroke-linejoin:round;stroke-dasharray:none;stroke-opacity:1;paint-order:normal;stop-color:#000" transform="scale(-1 1)"/><rect width="12.957" height="34.113" x="-2056.2" y="853.236" ry="2.624" style="fill:#333;fill-opacity:1;stroke:#181818;stroke-width:2.0632;stroke-linecap:square;stroke-linejoin:round;stroke-dasharray:none;stroke-opacity:1;paint-order:normal;stop-color:#000" transform="scale(-1 1)"/><rect width="12.957" height="34.113" x="-2071.949" y="853.07" ry="2.624" style="fill:#333;fill-opacity:1;stroke:#181818;stroke-width:2.0632;stroke-linecap:square;stroke-linejoin:round;stroke-dasharray:none;stroke-opacity:1;paint-order:normal;stop-color:#000" transform="scale(-1 1)"/><rect width="30.048" height="5.706" x="-2069.695" y="827.258" ry="0" style="fill:#4d4d4d;fill-opacity:1;stroke:#181818;stroke-width:2.34998;stroke-linecap:square;stroke-linejoin:round;stroke-dasharray:none;stroke-opacity:1;paint-order:normal;stop-color:#000" transform="scale(-1 1)"/><rect width="12.957" height="34.113" x="-2056.192" y="813.486" ry="2.624" style="fill:#333;fill-opacity:1;stroke:#181818;stroke-width:2.0632;stroke-linecap:square;stroke-linejoin:round;stroke-dasharray:none;stroke-opacity:1;paint-order:normal;stop-color:#000" transform="scale(-1 1)"/><rect width="12.957" height="34.113" x="-2071.941" y="813.32" ry="2.624" style="fill:#333;fill-opacity:1;stroke:#181818;stroke-width:2.0632;stroke-linecap:square;stroke-linejoin:round;stroke-dasharray:none;stroke-opacity:1;paint-order:normal;stop-color:#000" transform="scale(-1 1)"/><path d="M-812.027 2018.313h5.353v18.749h-5.353z" style="fill:#404040;fill-opacity:1;stroke:none;stroke-width:.895485;stroke-linecap:square;stroke-linejoin:round;stroke-dasharray:none;stroke-opacity:1;paint-order:normal;stop-color:#000" transform="rotate(-90)"/><path d="M-890.285 2018.222h5.353v18.931h-5.353z" style="fill:#404040;fill-opacity:1;stroke:none;stroke-width:.899819;stroke-linecap:square;stroke-linejoin:round;stroke-dasharray:none;stroke-opacity:1;paint-order:normal;stop-color:#000" transform="rotate(-90)"/><path d="M-853.204 2018.29h5.353v18.749h-5.353zM-688.495 2018.367h5.353v18.749h-5.353zM-645.129 2018.267h5.353v18.749h-5.353zM-766.753 2018.376h5.353v18.749h-5.353zM-729.672 2018.344h5.353v18.749h-5.353z" style="fill:#404040;fill-opacity:1;stroke:none;stroke-width:.895485;stroke-linecap:square;stroke-linejoin:round;stroke-dasharray:none;stroke-opacity:1;paint-order:normal;stop-color:#000" transform="rotate(-90)"/><path d="M2032.314 845.523c-7.774-.89 5.545-25.79-2.357-40.144-1.865-3.384-.012-1.02-3.291-6.152-2.506-5.954-4.042-5.775-5.293-33.296l2.417-9.77c1.912-4.216 7.151-4.8 12.75 0 1.041.745 2.573.412 3.846.393v88.969zm8.072-106.35c-.19-.378-.31-.613-.556-1.107-1.632-3.29-7.901-3.667-10.795-16.994-.573-39.007 3.462-53.66 9.897-64.434.364-.55.56-1.237.898-1.81q.268-.449.556-.883z" style="fill:#c9d1d9;fill-opacity:1;stroke:#a2a5c0;stroke-width:3.22301;stroke-linecap:square;stroke-dasharray:none;stroke-opacity:1;stop-color:#000"/><path d="M-1991.393-847.177h2.827v33.053h-2.827zM-2006.92-846.975h2.827v33.053h-2.827zM-1991.436-887.028h2.827v33.053h-2.827zM-2006.963-886.826h2.827v33.053h-2.827z" style="fill:#181818;fill-opacity:1;stroke:none;stroke-width:.864093;stroke-linecap:square;stroke-linejoin:round;stroke-dasharray:none;stroke-opacity:1;paint-order:normal;stop-color:#000" transform="scale(-1)"/><path d="M2063.965-886.857h2.827v33.053h-2.827zM2048.437-886.655h2.827v33.053h-2.827z" style="fill:#181818;fill-opacity:1;stroke:none;stroke-width:.864093;stroke-linecap:square;stroke-linejoin:round;stroke-dasharray:none;stroke-opacity:1;paint-order:normal;stop-color:#000" transform="scale(1 -1)"/><path d="M-2051.037-847.143h2.827v33.053h-2.827zM-2066.565-846.941h2.827v33.053h-2.827z" style="fill:#181818;fill-opacity:1;stroke:none;stroke-width:.864093;stroke-linecap:square;stroke-linejoin:round;stroke-dasharray:none;stroke-opacity:1;paint-order:normal;stop-color:#000" transform="scale(-1)"/><circle cx="1997.009" cy="747.058" r="4.864" style="fill:#454545;fill-opacity:1;stroke:#181818;stroke-width:2.5;stroke-linecap:square;stroke-linejoin:round;stroke-dasharray:none;stroke-opacity:1;paint-order:fill markers stroke;stop-color:#000"/><circle cx="2058.538" cy="746.752" r="4.864" style="fill:#454545;fill-opacity:1;stroke:#181818;stroke-width:2.5;stroke-linecap:square;stroke-linejoin:round;stroke-dasharray:none;stroke-opacity:1;paint-order:fill markers stroke;stop-color:#000"/><path d="M1986.431 642.037h28.763v249.501h-28.763z" style="fill:#454545;fill-opacity:1;stroke:#181818;stroke-width:2.31206;stroke-linecap:square;stroke-linejoin:round;stroke-dasharray:none;stroke-opacity:1;paint-order:fill markers stroke;stop-color:#000"/><path d="M2039.8 642.012h28.764v249.271H2039.8z" style="fill:#454545;fill-opacity:1;stroke:#181818;stroke-width:2.31104;stroke-linecap:square;stroke-linejoin:round;stroke-dasharray:none;stroke-opacity:1;paint-order:fill markers stroke;stop-color:#000"/><path d="M-2058.245-890.119h8.131v246.91h-8.131zM-2004.594-890.358h8.131v246.91h-8.131z" style="fill:gray;fill-opacity:1;stroke:none;stroke-width:4.00507;stroke-linecap:square;stroke-linejoin:round;stroke-dasharray:none;stroke-opacity:1;paint-order:normal;stop-color:#000" transform="scale(-1)"/><path d="m1986.431 891.538 1.978-27.785 8.08-2.685c8.589-2.853 12.365 4.913 18.705 6.64v23.83zm28.763-53.784c-5.046-2.381-9.308-8.477-14.653-10.032-4.283-1.246-9.813 2.134-14.11.935v-44.303c2.345-1.867 4.884-3.489 6.845-5.841 20.882-18.078 7.312-30.175 10.389-52.742.128-.833.633-1.572.799-2.398 2.26-13.816 6.05-30.357-8.79-36.76-.707-.321-1.269-.933-1.999-1.198-1.995-.726-4.655-1.008-7.244-1.12v-42.258h28.763z" style="fill:#c9d1d9;fill-opacity:1;stroke:#a2a5c0;stroke-width:2.31206;stroke-linecap:square;stroke-linejoin:round;stroke-dasharray:none;stroke-opacity:1;paint-order:fill markers stroke;stop-color:#000"/><path d="M2068.564 689.394v62.747c-18.878-16.959-23.462-34.227-12.113-54.969 4.23-7.211 11.099-6.507 12.113-7.778zm0 165.293v36.624H2039.8v-29.202c5.55-1.849 6.948-9.91 11.746-8.97 4.898.962 3.823-7.913 11.786-5.436 1.3.405 5.306 2.237 5.232 6.984z" style="fill:#c9d1d9;fill-opacity:1;stroke:#a2a5c0;stroke-width:2.31104;stroke-linecap:square;stroke-linejoin:round;stroke-dasharray:none;stroke-opacity:1;paint-order:fill markers stroke;stop-color:#000"/></g><path d="M-69.687 3.068a31 31 0 0 1-1.85.648c-.869.274-1.755.511-2.662.587-.908.075-1.842-.018-2.677-.381-.835-.364-1.562-1.016-1.913-1.856A2.84 2.84 0 0 1-79.004.73c.04-.453.201-.897.473-1.262.248-.334.58-.594.893-.867.313-.274.619-.574.79-.953.17-.377.194-.807.134-1.217s-.2-.802-.347-1.189-.303-.772-.396-1.175-.123-.83-.017-1.23c.107-.402.35-.764.671-1.03.32-.268.715-.44 1.125-.516.82-.152 1.675.084 2.396.503 1.442.838 2.373 2.329 3.665 3.383.405.331.845.618 1.25.948.407.33.784.71 1.02 1.178.213.422.302.9.292 1.373-.01.472-.114.94-.272 1.385a6.04 6.04 0 0 1-2.359 3.007z" style="fill:#c9d1d9;fill-opacity:1;stroke:#a2a5c0;stroke-width:1.409;stroke-dasharray:none;stroke-opacity:1" transform="translate(117.566 10.338)"/><path d="M-108.259 130.416c.24-.001.718-.004 1.912-.93 1.193-.928 3.102-2.78 3.764-5.3s.078-5.707-1.18-7.269c-1.257-1.562-3.189-1.499-4.639-1.034-1.45.464-2.418 1.329-3.273 3.4-.856 2.072-1.598 5.35-1.05 7.406.549 2.057 2.388 2.893 3.307 3.31.92.418.92.418 1.16.417z" style="fill:#c9d1d9;fill-opacity:1;stroke:#a2a5c0;stroke-width:2.04672;stroke-miterlimit:4;stroke-dasharray:none;stroke-opacity:1" transform="translate(117.566 10.338)"/><path d="M-54.822 207.768a2 2 0 0 0-.26.006c-.347.03-.683.148-.986.32-.605.344-1.068.894-1.472 1.462-1.428 2.006-2.295 4.434-2.32 6.9-.032 3.414 1.568 6.74 4.024 9.098 3.632 3.12 11.806 3.939 15.186 1.947 2.108-1.416 2.877-5.033 2.885-7.05a10.56 10.56 0 0 0-2.462-6.647c-.399-.472-.849-.915-1.395-1.203-.535-.282-1.144-.403-1.749-.412-.604-.009-1.205.093-1.792.235-1.174.285-2.317.739-3.521.84-.638.054-1.291.005-1.895-.208s-1.157-.599-1.516-1.132c-.421-.627-.546-1.4-.754-2.128-.104-.364-.23-.724-.426-1.048s-.462-.61-.796-.785a1.8 1.8 0 0 0-.75-.195z" style="fill:#c9d1d9;fill-opacity:1;fill-rule:evenodd;stroke:#a2a5c0;stroke-width:1.2252;stroke-dasharray:none;stroke-opacity:1" transform="translate(117.566 10.338)"/><path d="M-44.54 46.902c-.936-1.65-2.438-1.46-5.443-.791s-7.509 1.817-9.675 5.021c-2.167 3.205-1.994 8.464.387 12.857 2.382 4.394 6.973 7.921 11.419 8.283 4.445.362 8.745-2.441 9.552-5.759.806-3.317-1.881-7.149-3.41-10.81-1.527-3.66-1.895-7.15-2.83-8.8z" style="fill:#c9d1d9;fill-opacity:1;stroke:#a2a5c0;stroke-width:1.658;stroke-dasharray:none;stroke-opacity:1" transform="translate(117.566 10.338)"/><path d="M-81.393 220.168c.354.899 1.165 2.964 2.605 3.55s3.559-.174 4.761-1.054c1.203-.88 1.488-1.878 1.257-3.382s-.981-3.514-2.053-4.53-2.47-1.039-3.552-.397c-1.083.642-1.853 1.948-2.622 3.254l-.633 1.403c-.116.257-.116.257.237 1.156z" style="fill:#c9d1d9;fill-opacity:1;stroke:#a2a5c0;stroke-width:1.058;stroke-miterlimit:4;stroke-dasharray:none;stroke-opacity:1" transform="translate(117.566 10.338)"/></svg>