<svg height="166.138" viewBox="0 0 56.067 43.957" width="211.908" xmlns="http://www.w3.org/2000/svg"><g stroke-linecap="round" stroke-linejoin="round"><path d="m12.563 39.735h4.75v-3.314h-4.75zm25.997 0h4.75v-3.314h-4.75z" fill="#adadad" stroke="#868686" stroke-width=".731271"/><path d="m20.898 36.595v6.01h14.076v-6.762" fill="none" stroke="#777" stroke-width="2.70464"/><rect fill="#bababa" height="36.932999" rx="5.479" stroke="#4c4c4c" stroke-width="2.2911" transform="scale(1 -1)" width="53.776001" x="1.145999" y="-38.078003"/></g><path d="m5.691498-34.294003h44.685001v29.365h-44.685001z" fill="#cfcfcf" transform="scale(1 -1)"/><rect fill="none" height="36.932999" rx="5.479" stroke="#4c4c4c" stroke-linecap="round" stroke-linejoin="round" stroke-width="2.2911" transform="scale(1 -1)" width="53.776001" x="1.145999" y="-38.078003"/><path d="m1.146 29.932h53.776m-53.776-4.144h53.776m-53.776-12.511h53.776m-53.776-4.144h53.776" fill="#cfcfcf" stroke="#4c4c4c" stroke-linecap="round" stroke-linejoin="round" stroke-width="2.29109"/><g fill="#4a4a4a"><path d="m4.906394 35.498408h1.4826891l.7412454-1.283993-.7412454-1.283992h-1.4826891l-.7412454 1.283992z"/><path d="m4.906394 6.1334079h1.4826891l.7412454-1.2839925-.7412454-1.2839925h-1.4826891l-.7412454 1.2839925z"/><path d="m49.591394 35.498408h1.482689l.741245-1.283993-.741245-1.283992h-1.482689l-.741245 1.283992z"/><path d="m49.591394 6.1334079h1.482689l.741245-1.2839925-.741245-1.2839925h-1.482689l-.741245 1.2839925z"/></g></svg>