<svg xmlns="http://www.w3.org/2000/svg" xmlns:xlink="http://www.w3.org/1999/xlink" width="40.736" height="74.285" viewBox="0 0 10.778 19.654"><defs><linearGradient id="a"><stop offset="0" style="stop-color:#ff8f1b;stop-opacity:1"/><stop offset="1" style="stop-color:#ff5600;stop-opacity:1"/></linearGradient><linearGradient xlink:href="#a" id="b" x1="-170.318" x2="-162.078" y1="-63.798" y2="-63.798" gradientTransform="translate(36.036 13.84)scale(1.21673)" gradientUnits="userSpaceOnUse"/></defs><g style="opacity:.7"><path d="M105.248 146.217c1.25-.679 2.966-2.512 4.027-4.11 1.34-2.02 4.08-4.7 2.81-6.708-.73-1.69-3.585-3.09-5.057-3.955-2.193-.939-5.914-.921-7.968.11-1.585.626-2.032 2.671-1.873 4.193.194 1.866 3.11 2.689 3.306 4.555.185 1.759 2.247 2.471 3.3 3.955.47.664.852 2.6 1.455 1.96" style="fill:#ff9f62;fill-opacity:.415385;stroke:none;stroke-width:1;stroke-linecap:round;stroke-linejoin:round;stroke-dasharray:none;stroke-opacity:1" transform="matrix(.70295 0 0 .70295 -68.297 -91.918)"/><path d="m-166.938-66.471 1.468.925 3.531 1.187-.533-2.485-2.696-.362-1.82.644zM-165.53-65.546l.423 2.606 2.032-1.78z" style="fill:#fff;fill-opacity:.409615;stroke:none;stroke-width:.0425854;stroke-linecap:round;stroke-linejoin:round;stroke-dasharray:none;stroke-opacity:1" transform="matrix(.29643 .6374 -.6374 .29643 15.163 139.476)"/><path d="m-161.979-61.974-2.817-1.248-.281.292z" style="fill:#464646;fill-opacity:.409615;stroke:none;stroke-width:.0425854;stroke-linecap:round;stroke-linejoin:round;stroke-dasharray:none;stroke-opacity:1" transform="matrix(.29643 .6374 -.6374 .29643 15.163 139.476)"/><path d="m-166.586-65.184-2.757 1.348.463 1.872z" style="fill:#303030;fill-opacity:.405769;stroke:none;stroke-width:.0425854;stroke-linecap:round;stroke-linejoin:round;stroke-dasharray:none;stroke-opacity:1" transform="matrix(.29643 .6374 -.6374 .29643 15.163 139.476)"/><path d="m-166.989-66.492.423 1.359 1.448 2.223-.402-2.636z" style="fill:#fff;fill-opacity:.311538;stroke:none;stroke-width:.0425854;stroke-linecap:round;stroke-linejoin:round;stroke-dasharray:none;stroke-opacity:1" transform="matrix(.29643 .6374 -.6374 .29643 15.163 139.476)"/><path d="m-168.83-62.025 2.264-3.068 1.026 1.58-.392 1.277z" style="fill:#303030;fill-opacity:.161538;stroke:none;stroke-width:.0425854;stroke-linecap:round;stroke-linejoin:round;stroke-dasharray:none;stroke-opacity:1" transform="matrix(.29643 .6374 -.6374 .29643 15.163 139.476)"/><path d="m-164.283-63.05 2.314 1.045.413-2.263-1.52-.453-1.7 1.52z" style="fill:#616161;fill-opacity:.409615;stroke:none;stroke-width:.0425854;stroke-linecap:round;stroke-linejoin:round;stroke-dasharray:none;stroke-opacity:1" transform="matrix(.29643 .6374 -.6374 .29643 15.163 139.476)"/><path d="m-161.989-61.944.815-.684.634-1.952-.543.614-.483-.272z" style="fill:#616161;fill-opacity:.409615;stroke:none;stroke-width:.0425854;stroke-linecap:round;stroke-linejoin:round;stroke-dasharray:none;stroke-opacity:1" transform="matrix(.29643 .6374 -.6374 .29643 15.163 139.476)"/><path d="m-162.522-66.854.825.352 1.157 1.932-.553.604-.805-.488z" style="fill:#fff;fill-opacity:.409615;stroke:none;stroke-width:.0425854;stroke-linecap:round;stroke-linejoin:round;stroke-dasharray:none;stroke-opacity:1" transform="matrix(.29643 .6374 -.6374 .29643 15.163 139.476)"/><path d="M-161.999-67.79c-1.656.004-3.313.613-4.97 1.248-.774-.417-1.338-.94-2.454-1.187-.35.087-.71.158-1.136.132-.15-.203-.32-.353-.583-.256 0 0-.973.85-1.508 3.315-.674 3.11.228 3.343.228 3.343.466-.091.856.278 1.248.629l1.63.402 4.426.322 4.326-.945c.35-.328.758-.27.966-1.51.44-2.178.15-3.584-1.323-4.788-.238-.244-.48-.487-.85-.704" style="fill:#9d9fa1;fill-opacity:1;stroke:none;stroke-width:.0425856;stroke-linecap:round;stroke-linejoin:round;stroke-dasharray:none;stroke-opacity:1" transform="matrix(.29643 .6374 -.6374 .29643 15.163 139.476)"/><path d="M-163.8-67.594c-.596.106-2.34.734-3.169 1.052-.774-.417-1.338-.94-2.454-1.187.027 2.568-.598 4.943-1.75 7.163l1.629.402 4.426.322 3.884-.855c-.036-.346.682-4.769-2.566-6.897" style="fill:url(#b);fill-opacity:1;stroke:none;stroke-width:.0425856;stroke-linecap:round;stroke-linejoin:round;stroke-dasharray:none;stroke-opacity:1" transform="matrix(.29643 .6374 -.6374 .29643 15.163 139.476)"/><path d="M-168.217-63.417c.261 0 .502-.09.75-.15.319-.076.754-.072.948-.265.19-.188.108-.453.13-.7.027-.287.052-.606.127-.855 0 .265.037.71.052.958.015.242-.039.441.159.642.182.186.381.114.58.184.226.078.696.236.696.236s-.046 0-.282.1a1.9 1.9 0 0 0-.63.431 2 2 0 0 0-.436.647q-.14.345-.14.743a1.912 1.912 0 0 0-.575-1.39 2 2 0 0 0-.63-.43c-.238-.1-.75-.15-.75-.15" style="font-size:3.16802px;fill:#f3f3f3;fill-opacity:1;stroke-width:1.05833;stroke-linejoin:round;stroke-dasharray:none" transform="matrix(.29643 .6374 -.6374 .29643 15.163 139.476)"/><path d="M-161.999-67.79c-1.656.004-3.313.613-4.97 1.248-.774-.417-1.338-.94-2.454-1.187-.35.087-.71.158-1.136.132-.15-.203-.32-.353-.583-.256 0 0-.973.85-1.508 3.315-.674 3.11.228 3.343.228 3.343.466-.091.856.278 1.248.629l1.63.402 4.426.322 4.326-.945c.35-.328.758-.27.966-1.51.44-2.178.15-3.584-1.323-4.788-.238-.244-.48-.487-.85-.704" style="fill:none;fill-opacity:1;stroke:#232323;stroke-width:1.21673;stroke-linecap:round;stroke-linejoin:round;stroke-dasharray:none;stroke-opacity:1" transform="matrix(.29643 .6374 -.6374 .29643 15.163 139.476)"/></g></svg>