<svg xmlns="http://www.w3.org/2000/svg" xml:space="preserve" width="100.119" height="97.151"><defs><radialGradient id="a" cx="141.735" cy="145.99" r="104.415" gradientTransform="matrix(.47943 0 0 .46522 19.547 19.582)" gradientUnits="userSpaceOnUse"><stop offset="0" stop-opacity=".9"/><stop offset="1" stop-opacity=".3"/></radialGradient></defs><g style="opacity:.8"><path fill="url(#a)" d="m87.99 38.924-3.796 24.227a25.544 26.225 0 0 0-.328.073l-10.987-15.8 2.905 18.548-10.216-9.813 5.444 13.351a25.544 26.225 0 0 0-.207.213l-22.329-6.588 17.24 13.237a25.544 26.225 0 0 0-.407.767L54.474 75.36l9.728 4.34a25.544 26.225 0 0 0-.007.022L42.43 81.982l20.166 9.243a25.544 26.225 0 0 0 .04.585L48.19 95.626l12.958.548-23.706 16.923 28.45-9.654-13.819 19.54 19.344-13.808-3.374 21.546 11.81-16.847a25.544 26.225 0 0 0 .998.373l3.708 21.829 5.11-20.143 6.234 12.697-1.16-11.268 15.52 14.95L103.277 110a25.544 26.225 0 0 0 1.086-.835l12.91 6.57-6.702-11.957 26.987 7.718-23.921-15.83 17.478-1.942-17.594-5.19a25.544 26.225 0 0 0-.01-.432l20.807-13.843-23.792 2.47a25.544 26.225 0 0 0-.35-.637l7.342-8.022-9.057 4.193L125.1 48.537l-22.538 19.004a25.544 26.225 0 0 0-.772-.53l6.276-12.975-10.753 10.628a25.544 26.225 0 0 0-.192-.075l3.442-16.287-8.003 14.976a25.544 26.225 0 0 0-.772-.138z" style="fill:url(#a)" transform="translate(-37.44 -38.924)"/></g></svg>