<svg xmlns="http://www.w3.org/2000/svg" width="221.001" height="225.327" viewBox="0 0 58.473 59.618"><path d="M-7056.913-848.95h6.78v11.549h-6.78zM-7007.22-848.95h6.78v11.549h-6.78v-5.775z" style="fill:#363636;fill-opacity:1;stroke:#0e0e0e;stroke-width:2.00001;stroke-linecap:round;stroke-linejoin:round" transform="translate(7057.913 853.007)"/><path d="M-7056.913-801.729h12.071v7.34h-12.071zM-7012.511-801.729h12.071v7.34h-12.071z" style="fill:#363636;fill-opacity:1;stroke:#0e0e0e;stroke-width:2.00001;stroke-linecap:round;stroke-linejoin:round;stroke-dasharray:none;stroke-opacity:1" transform="translate(7057.913 853.007)"/><path d="M7008.858-829.623h39.895v10.355h-39.895z" style="fill:#787878;fill-opacity:1;stroke:none;stroke-width:2;stroke-linecap:round;stroke-dasharray:none;stroke-opacity:1;stop-color:#000" transform="matrix(-1 0 0 1 7057.913 859.409)"/><path fill="#575757" fill-rule="evenodd" d="M-7050.314-829.785h41.424v.971c-.27.164-.52.351-.724.555-.97.968-1.536 2.977-1.4 3.113.1.1 1.17-.166 2.124-.686v6.734h-41.424zm4.08 3.243c-.97.968-2.98 1.535-3.117 1.396-.137-.136.43-2.143 1.399-3.113.969-.969 2.988-1.523 3.115-1.397.127.127-.43 2.145-1.398 3.114m12.657 4.79c-.97-.968-1.534-2.977-1.398-3.114.137-.136 2.147.429 3.117 1.396.968.97 1.523 2.987 1.396 3.115-.125.126-2.146-.428-3.115-1.398m6.51-4.791c-.968.97-2.977 1.534-3.114 1.397-.138-.136.428-2.145 1.396-3.113.97-.969 2.99-1.523 3.116-1.397.127.126-.428 2.145-1.397 3.113m12.658 4.79c-.968-.969-1.533-2.976-1.397-3.114.138-.137 2.146.428 3.115 1.397s1.525 2.987 1.399 3.113c-.127.128-2.146-.428-3.117-1.396m-25.357-3.393c.136.139 2.146-.428 3.115-1.396.97-.969 1.524-2.987 1.398-3.114s-2.147.428-3.114 1.397c-.97.97-1.535 2.977-1.399 3.113m-4.79.279c-.138.138.427 2.145 1.395 3.114.97.968 2.99 1.524 3.117 1.396.125-.126-.428-2.143-1.399-3.113-.968-.969-2.977-1.534-3.114-1.397m23.96-.279c.136.137 2.144-.428 3.115-1.397.97-.968 1.523-2.987 1.398-3.113-.129-.126-2.148.428-3.117 1.397-.968.968-1.535 2.977-1.395 3.113m-4.793.28c-.138.137.428 2.146 1.397 3.113.97.97 2.987 1.524 3.116 1.398.124-.128-.43-2.145-1.4-3.115-.968-.967-2.976-1.532-3.113-1.396" clip-rule="evenodd" style="fill:#5b5b5b;fill-opacity:1;stroke-width:.264583" transform="translate(7057.913 859.409)"/><path d="M7007.894-829.739h41.563v9.695h-41.563z" style="fill:none;fill-opacity:1;stroke:#323232;stroke-width:2;stroke-linecap:round;stroke-dasharray:none;stroke-opacity:1;stop-color:#000" transform="matrix(-1 0 0 1 7057.913 859.409)"/><path d="M7008.858-816.243h39.895v10.355h-39.895z" style="fill:#787878;fill-opacity:1;stroke:none;stroke-width:2;stroke-linecap:round;stroke-dasharray:none;stroke-opacity:1;stop-color:#000" transform="matrix(-1 0 0 1 7057.913 859.409)"/><path fill="#575757" fill-rule="evenodd" d="M-7050.314-816.405h41.424v.97c-.27.165-.52.352-.724.556-.97.968-1.536 2.976-1.4 3.113.1.1 1.17-.166 2.124-.686v6.734h-41.424zm4.08 3.243c-.97.968-2.98 1.535-3.117 1.396-.137-.137.43-2.143 1.399-3.113.969-.969 2.988-1.523 3.115-1.397.127.127-.43 2.145-1.398 3.114m12.657 4.79c-.97-.968-1.534-2.977-1.398-3.114.137-.136 2.147.429 3.117 1.396.968.97 1.523 2.987 1.396 3.115-.125.126-2.146-.428-3.115-1.398m6.51-4.791c-.968.97-2.977 1.534-3.114 1.397-.138-.137.428-2.145 1.396-3.113.97-.969 2.99-1.523 3.116-1.397.127.126-.428 2.145-1.397 3.113m12.658 4.79c-.968-.969-1.533-2.976-1.397-3.114.138-.137 2.146.428 3.115 1.397s1.525 2.987 1.399 3.113c-.127.128-2.146-.428-3.117-1.396m-25.357-3.393c.136.139 2.146-.428 3.115-1.396.97-.969 1.524-2.987 1.398-3.114s-2.147.428-3.114 1.397c-.97.97-1.535 2.976-1.399 3.113m-4.79.279c-.138.138.427 2.145 1.395 3.114.97.968 2.99 1.524 3.117 1.396.125-.126-.428-2.143-1.399-3.113-.968-.969-2.977-1.534-3.114-1.397m23.96-.279c.136.137 2.144-.428 3.115-1.397.97-.968 1.523-2.987 1.398-3.113-.129-.126-2.148.428-3.117 1.397-.968.968-1.535 2.976-1.395 3.113m-4.793.28c-.138.137.428 2.146 1.397 3.113.97.97 2.987 1.524 3.116 1.398.124-.128-.43-2.145-1.4-3.115-.968-.967-2.976-1.532-3.113-1.396" clip-rule="evenodd" style="fill:#555;fill-opacity:1;stroke-width:.264583" transform="translate(7057.913 859.409)"/><path d="M7007.894-816.359h41.563v9.695h-41.563z" style="fill:none;fill-opacity:1;stroke:#323232;stroke-width:2;stroke-linecap:round;stroke-dasharray:none;stroke-opacity:1;stop-color:#000" transform="matrix(-1 0 0 1 7057.913 859.409)"/><path d="M7008.858-843.003h39.895v10.355h-39.895z" style="fill:#818181;fill-opacity:1;stroke:none;stroke-width:2;stroke-linecap:round;stroke-dasharray:none;stroke-opacity:1;stop-color:#000" transform="matrix(-1 0 0 1 7057.913 859.409)"/><path fill="#575757" fill-rule="evenodd" d="M-7050.314-843.165h41.424v.971c-.27.164-.52.351-.724.555-.97.968-1.536 2.977-1.4 3.113.1.1 1.17-.166 2.124-.686v6.734h-41.424zm4.08 3.243c-.97.968-2.98 1.535-3.117 1.396-.137-.136.43-2.143 1.399-3.113.969-.969 2.988-1.523 3.115-1.397.127.127-.43 2.145-1.398 3.114m12.657 4.79c-.97-.968-1.534-2.977-1.398-3.114.137-.136 2.147.429 3.117 1.397.968.969 1.523 2.986 1.396 3.114-.125.126-2.146-.428-3.115-1.397m6.51-4.791c-.968.97-2.977 1.534-3.114 1.397-.138-.136.428-2.145 1.396-3.113.97-.969 2.99-1.523 3.116-1.397.127.126-.428 2.145-1.397 3.113m12.658 4.79c-.968-.969-1.533-2.976-1.397-3.114.138-.137 2.146.428 3.115 1.398.97.969 1.525 2.986 1.399 3.112-.127.128-2.146-.428-3.117-1.395m-25.357-3.393c.136.139 2.146-.428 3.115-1.396.97-.969 1.524-2.987 1.398-3.114s-2.147.428-3.114 1.397c-.97.97-1.535 2.977-1.399 3.113m-4.79.28c-.138.137.427 2.144 1.395 3.114.97.967 2.99 1.523 3.117 1.395.125-.126-.428-2.143-1.399-3.112-.968-.97-2.977-1.535-3.114-1.398m23.96-.28c.136.137 2.144-.428 3.115-1.397.97-.968 1.523-2.987 1.398-3.113-.129-.126-2.148.428-3.117 1.397-.968.968-1.535 2.977-1.395 3.113m-4.793.28c-.138.137.428 2.146 1.397 3.114.97.969 2.987 1.523 3.116 1.397.124-.128-.43-2.145-1.4-3.114-.968-.968-2.976-1.533-3.113-1.396" clip-rule="evenodd" style="fill:#636363;fill-opacity:1;stroke-width:.264583" transform="translate(7057.913 859.409)"/><path d="M7007.894-843.119h41.563v9.695h-41.563z" style="fill:none;fill-opacity:1;stroke:#323232;stroke-width:2;stroke-linecap:round;stroke-dasharray:none;stroke-opacity:1;stop-color:#000" transform="matrix(-1 0 0 1 7057.913 859.409)"/><path d="M7008.858-849.693h39.895v10.355h-39.895z" style="fill:#898989;fill-opacity:1;stroke:none;stroke-width:2;stroke-linecap:round;stroke-dasharray:none;stroke-opacity:1;stop-color:#000" transform="matrix(-1 0 0 1 7057.913 852.719)"/><path fill="#575757" fill-rule="evenodd" d="M-7050.314-849.855h41.424v.971c-.27.164-.52.351-.724.555-.97.968-1.536 2.977-1.4 3.113.1.1 1.17-.166 2.124-.686v6.734h-41.424zm4.08 3.243c-.97.968-2.98 1.535-3.117 1.396-.137-.136.43-2.143 1.399-3.113.969-.969 2.988-1.523 3.115-1.397.127.127-.43 2.145-1.398 3.114m12.657 4.79c-.97-.968-1.534-2.977-1.398-3.114.137-.136 2.147.429 3.117 1.397.968.969 1.523 2.986 1.396 3.114-.125.126-2.146-.428-3.115-1.398m6.51-4.791c-.968.97-2.977 1.534-3.114 1.397-.138-.136.428-2.145 1.396-3.113.97-.969 2.99-1.523 3.116-1.397.127.126-.428 2.145-1.397 3.113m12.658 4.79c-.968-.969-1.533-2.976-1.397-3.114.138-.137 2.146.428 3.115 1.397s1.525 2.987 1.399 3.113c-.127.128-2.146-.428-3.117-1.395m-25.357-3.393c.136.139 2.146-.428 3.115-1.396.97-.969 1.524-2.987 1.398-3.114s-2.147.428-3.114 1.397c-.97.97-1.535 2.977-1.399 3.113m-4.79.28c-.138.137.427 2.144 1.395 3.114.97.967 2.99 1.523 3.117 1.395.125-.126-.428-2.143-1.399-3.112-.968-.97-2.977-1.535-3.114-1.398m23.96-.28c.136.137 2.144-.428 3.115-1.397.97-.968 1.523-2.987 1.398-3.113-.129-.126-2.148.428-3.117 1.397-.968.968-1.535 2.977-1.395 3.113m-4.793.28c-.138.137.428 2.146 1.397 3.114.97.969 2.987 1.523 3.116 1.397.124-.128-.43-2.145-1.4-3.115-.968-.967-2.976-1.532-3.113-1.396" clip-rule="evenodd" style="fill:#686868;fill-opacity:1;stroke-width:.264583" transform="translate(7057.913 852.719)"/><path d="M7007.894-849.809h41.563v9.695h-41.563z" style="fill:none;fill-opacity:1;stroke:#323232;stroke-width:2;stroke-linecap:round;stroke-dasharray:none;stroke-opacity:1;stop-color:#000" transform="matrix(-1 0 0 1 7057.913 852.719)"/><path d="M-7053.397-851.719h5.04v53.655h-5.04zM-7008.996-851.718h5.04v53.654h-5.04z" style="fill:#2f425e;fill-opacity:1;stroke:#111721;stroke-width:2;stroke-linecap:round;stroke-linejoin:round;stroke-opacity:1" transform="translate(7057.913 852.719)"/></svg>