<svg xmlns="http://www.w3.org/2000/svg" width="211.649" height="478.323" viewBox="0 0 111.998 253.113"><g style="stroke-width:1.02193"><path d="M3692.334-566.241h17.933v93.847h-17.933z" style="fill:#474747;fill-opacity:1;stroke:#252525;stroke-width:2.5548;stroke-dasharray:none;stroke-opacity:1" transform="matrix(0 .95756 -1 0 -456.596 -3520.444)"/><path d="M546.818 3692.334h19.433v93.847h-19.433z" style="fill:#3f3f3f;fill-opacity:1;stroke:#252525;stroke-width:2.5548;stroke-dasharray:none;stroke-opacity:1" transform="matrix(1 0 0 .95756 -456.596 -3520.444)"/><path d="M3800.098-566.241h17.933v93.847h-17.933zM3907.054-566.238h17.933v93.847h-17.933z" style="fill:#474747;fill-opacity:1;stroke:#252525;stroke-width:2.5548;stroke-dasharray:none;stroke-opacity:1" transform="matrix(0 .95756 -1 0 -456.596 -3520.444)"/><path d="M489.371 3830.806h19.433v94.181h-19.433z" style="fill:#474747;fill-opacity:1;stroke:#252525;stroke-width:2.5548;stroke-dasharray:none;stroke-opacity:1" transform="matrix(1 0 0 .95756 -456.596 -3520.444)"/><path d="M508.804 3830.806h19.433v94.181h-19.433z" style="fill:#3f3f3f;fill-opacity:1;stroke:#252525;stroke-width:2.5548;stroke-dasharray:none;stroke-opacity:1" transform="matrix(1 0 0 .95756 -456.596 -3520.444)"/><path d="M3889.121-518.064h17.933v45.673h-17.933z" style="fill:#3f3f3f;fill-opacity:1;stroke:#252525;stroke-width:2.5548;stroke-dasharray:none;stroke-opacity:1" transform="matrix(0 .95756 -1 0 -456.596 -3520.444)"/><path d="M547.67 3830.806h19.433v94.181H547.67z" style="fill:#3f3f3f;fill-opacity:1;stroke:#252525;stroke-width:2.5548;stroke-dasharray:none;stroke-opacity:1" transform="matrix(1 0 0 .95756 -456.596 -3520.444)"/><path d="M527.385 3692.334h19.433v93.847h-19.433z" style="fill:#474747;fill-opacity:1;stroke:#252525;stroke-width:2.5548;stroke-dasharray:none;stroke-opacity:1" transform="matrix(1 0 0 .95756 -456.596 -3520.444)"/><path d="M507.952 3692.334h19.433v93.847h-19.433z" style="fill:#3f3f3f;fill-opacity:1;stroke:#252525;stroke-width:2.5548;stroke-dasharray:none;stroke-opacity:1" transform="matrix(1 0 0 .95756 -456.596 -3520.444)"/><path d="M489.655 3692.334h19.433v93.847h-19.433z" style="fill:#474747;fill-opacity:1;stroke:#252525;stroke-width:2.5548;stroke-dasharray:none;stroke-opacity:1" transform="matrix(1 0 0 .95756 -456.596 -3520.444)"/><path d="M3710.434-518.068h17.933v45.673h-17.933z" style="fill:#3f3f3f;fill-opacity:1;stroke:#252525;stroke-width:2.5548;stroke-dasharray:none;stroke-opacity:1" transform="matrix(0 .95756 -1 0 -456.596 -3520.444)"/><path d="M3728.367-550.036h17.933v77.641h-17.933z" style="fill:#474747;fill-opacity:1;stroke:#252525;stroke-width:2.5548;stroke-dasharray:none;stroke-opacity:1" transform="matrix(0 .95756 -1 0 -456.596 -3520.444)"/><path d="M3746.299-566.241h17.933v93.847h-17.933z" style="fill:#3f3f3f;fill-opacity:1;stroke:#252525;stroke-width:2.5548;stroke-dasharray:none;stroke-opacity:1" transform="matrix(0 .95756 -1 0 -456.596 -3520.444)"/><path d="m565.99 3737.759-99.662-57.676-6.262 10.872 104.106 60.247 1.818-3.158z" style="fill:#515151;fill-opacity:1;stroke:#212121;stroke-width:3.06576;stroke-dasharray:none;stroke-opacity:1" transform="matrix(1 0 0 .95756 -456.596 -3520.444)"/><path d="M528.237 3830.806h19.433v94.181h-19.433z" style="fill:#474747;fill-opacity:1;stroke:#252525;stroke-width:2.5548;stroke-dasharray:none;stroke-opacity:1" transform="matrix(1 0 0 .95756 -456.596 -3520.444)"/><path d="M3871.794-547.717h17.933v75.326h-17.933z" style="fill:#474747;fill-opacity:1;stroke:#252525;stroke-width:2.5548;stroke-dasharray:none;stroke-opacity:1" transform="matrix(0 .95756 -1 0 -456.596 -3520.444)"/><path d="M528.123 3902.878c-21.402 12.382-39.12 22.64-39.373 22.797-.284.175 14.685.287 39.143.293l39.602.01v-22.826c0-12.555-.103-22.818-.23-22.806-.126.01-17.74 10.152-39.142 22.533z" style="fill:#000;fill-opacity:.16088;stroke:none;stroke-width:3.06576;stroke-dasharray:none;stroke-opacity:1" transform="matrix(1 0 0 .95756 -456.596 -3520.444)"/><path d="M3853.861-566.238h17.933v93.847h-17.933z" style="fill:#3f3f3f;fill-opacity:1;stroke:#252525;stroke-width:2.5548;stroke-dasharray:none;stroke-opacity:1" transform="matrix(0 .95756 -1 0 -456.596 -3520.444)"/><path d="m565.707 3868.705-1.483-2.59-103.492 60.247 6.226 10.873 98.749-57.488z" style="fill:#515151;fill-opacity:1;stroke:#212121;stroke-width:3.06576;stroke-dasharray:none;stroke-opacity:1" transform="matrix(1 0 0 .95756 -456.596 -3520.444)"/><path d="M458.13 3678.049v261.23h108.108v-11.576h-96.533v-238.079h96.536v-11.575h-96.536z" style="fill:#515151;fill-opacity:1;stroke:#212121;stroke-width:3.06576;stroke-dasharray:none;stroke-opacity:1" transform="matrix(1 0 0 .95756 -456.596 -3520.444)"/><path d="M526.913 3713.333c-21.768-12.593-39.788-23.027-40.045-23.186-.288-.178 14.936-.292 39.81-.298l40.279-.011v23.216c0 12.769-.105 23.207-.234 23.195-.128-.012-18.043-10.325-39.81-22.918z" style="fill:#000;fill-opacity:.16088;stroke:none;stroke-width:3.06576;stroke-dasharray:none;stroke-opacity:1" transform="matrix(1 0 0 .95756 -456.596 -3520.444)"/><path d="M3817.995-566.238h17.933v93.847h-17.933z" style="fill:#3f3f3f;fill-opacity:1;stroke:#252525;stroke-width:2.5548;stroke-dasharray:none;stroke-opacity:1" transform="matrix(0 .95756 -1 0 -456.596 -3520.444)"/><path d="M3835.253-566.238h18.608v93.847h-18.608zM3764.233-566.241h17.933v93.847h-17.933z" style="fill:#474747;fill-opacity:1;stroke:#252525;stroke-width:2.5548;stroke-dasharray:none;stroke-opacity:1" transform="matrix(0 .95756 -1 0 -456.596 -3520.444)"/><path d="M3782.166-566.241h17.933v93.847h-17.933z" style="fill:#3f3f3f;fill-opacity:1;stroke:#252525;stroke-width:2.5548;stroke-dasharray:none;stroke-opacity:1" transform="matrix(0 .95756 -1 0 -456.596 -3520.444)"/></g><g transform="translate(-456.629 -3685.403)"><path d="M568.854 3566.465h417.44v371.199h-417.44z" style="fill:#775740;fill-opacity:1;stroke:none;stroke-width:3.1008;stroke-dasharray:none;stroke-opacity:1"/><path d="M3620.053 582.648h20.382v54.407h-20.382zM3660.719 583.034h20.382v112.94h-20.382z" style="fill:#6c4f3b;fill-opacity:1;stroke:#38291e;stroke-width:2.5;stroke-dasharray:none;stroke-opacity:1" transform="matrix(0 1 1 0 0 0)"/><path d="M3680.95 579.405h20.382v144.471h-20.382z" style="fill:#775740;fill-opacity:1;stroke:#38291e;stroke-width:2.5;stroke-dasharray:none;stroke-opacity:1" transform="matrix(0 1 1 0 0 0)"/><path d="M3701.553 582.447h20.382V740.85h-20.382z" style="fill:#6c4f3b;fill-opacity:1;stroke:#38291e;stroke-width:2.5;stroke-dasharray:none;stroke-opacity:1" transform="matrix(0 1 1 0 0 0)"/><path d="M580.967 3740.806h187.952v20.065H580.967z" style="fill:#6c4f3b;fill-opacity:1;stroke:#38291e;stroke-width:2.5;stroke-dasharray:none;stroke-opacity:1"/><path d="M-3801.896-974.797h20.382v191.887h-20.382z" style="fill:#6c4f3b;fill-opacity:1;stroke:#38291e;stroke-width:2.5;stroke-dasharray:none;stroke-opacity:1" transform="scale(1 -1)rotate(90)"/><path d="M-3931.667 767.083h184.645v21.207h-184.645z" style="fill:#6c4f3b;fill-opacity:1;stroke:#38291e;stroke-width:2.5;stroke-dasharray:none;stroke-opacity:1" transform="rotate(-90)"/><path d="M3722.294 583.322h20.382v173.336h-20.382z" style="fill:#775740;fill-opacity:1;stroke:#38291e;stroke-width:2.5;stroke-dasharray:none;stroke-opacity:1" transform="matrix(0 1 1 0 0 0)"/><path d="M-3780.135 581.798h20.382v180.111h-20.382z" style="fill:#775740;fill-opacity:1;stroke:#38291e;stroke-width:2.5;stroke-dasharray:none;stroke-opacity:1" transform="rotate(-90)"/><path d="M-3800.876 580.686h20.382V767.96h-20.382z" style="fill:#6c4f3b;fill-opacity:1;stroke:#38291e;stroke-width:2.5;stroke-dasharray:none;stroke-opacity:1" transform="rotate(-90)"/><path d="M-3821.479 578.055h20.382V728.92h-20.382z" style="fill:#775740;fill-opacity:1;stroke:#38291e;stroke-width:2.5;stroke-dasharray:none;stroke-opacity:1" transform="rotate(-90)"/><path d="M-3841.709 580.731h20.382v119.27h-20.382zM-3882.376 578.69h20.382v60.464h-20.382z" style="fill:#6c4f3b;fill-opacity:1;stroke:#38291e;stroke-width:2.5;stroke-dasharray:none;stroke-opacity:1" transform="rotate(-90)"/><path d="M-3822.5-977.493h20.382v154.581h-20.382z" style="fill:#775740;fill-opacity:1;stroke:#38291e;stroke-width:2.5;stroke-dasharray:none;stroke-opacity:1" transform="scale(1 -1)rotate(90)"/><path d="M-916.026-3930.457h21.542v64.634h-21.542z" style="fill:#6c4f3b;fill-opacity:1;stroke:#38291e;stroke-width:2.49999;stroke-dasharray:none;stroke-opacity:1" transform="scale(-1)"/><path d="M-3842.73-974.751h20.382v122.207h-20.382zM-3883.396-972.18h20.382v57.984h-20.382z" style="fill:#6c4f3b;fill-opacity:1;stroke:#38291e;stroke-width:2.5;stroke-dasharray:none;stroke-opacity:1" transform="scale(1 -1)rotate(90)"/><path d="M-3863.049-977.059h20.382v94.425h-20.382z" style="fill:#775740;fill-opacity:1;stroke:#38291e;stroke-width:2.5;stroke-dasharray:none;stroke-opacity:1" transform="scale(1 -1)rotate(90)"/><path d="M-894.521-3928.635h21.542v81.697h-21.542z" style="fill:#775740;fill-opacity:1;stroke:#38291e;stroke-width:2.5;stroke-dasharray:none;stroke-opacity:1" transform="scale(-1)"/><path d="M-873.045-3928.927h21.542v101.715h-21.542z" style="fill:#6c4f3b;fill-opacity:1;stroke:#38291e;stroke-width:2.5;stroke-dasharray:none;stroke-opacity:1" transform="scale(-1)"/><path d="M-851.664-3930.934h21.542v121.461h-21.542z" style="fill:#775740;fill-opacity:1;stroke:#38291e;stroke-width:2.5;stroke-dasharray:none;stroke-opacity:1" transform="scale(-1)"/><path d="M-829.888-3925.085h21.542v135.534h-21.542z" style="fill:#6c4f3b;fill-opacity:1;stroke:#38291e;stroke-width:2.5;stroke-dasharray:none;stroke-opacity:1" transform="scale(-1)"/><path d="M746.834-3925.668h21.542v155.613h-21.542z" style="fill:#775740;fill-opacity:1;stroke:#38291e;stroke-width:2.5;stroke-dasharray:none;stroke-opacity:1" transform="scale(1 -1)"/><path d="M724.912-3924.59h21.542v134.805h-21.542z" style="fill:#6c4f3b;fill-opacity:1;stroke:#38291e;stroke-width:2.5;stroke-dasharray:none;stroke-opacity:1" transform="scale(1 -1)"/><path d="M703.136-3929.578h21.542v121.879h-21.542z" style="fill:#775740;fill-opacity:1;stroke:#38291e;stroke-width:2.5;stroke-dasharray:none;stroke-opacity:1" transform="scale(1 -1)"/><path d="M681.754-3926.631h21.542v99.578h-21.542z" style="fill:#6c4f3b;fill-opacity:1;stroke:#38291e;stroke-width:2.5;stroke-dasharray:none;stroke-opacity:1" transform="scale(1 -1)"/><path d="M-3862.029 581.12h20.382v87.117h-20.382z" style="fill:#775740;fill-opacity:1;stroke:#38291e;stroke-width:2.5;stroke-dasharray:none;stroke-opacity:1" transform="rotate(-90)"/><path d="M660.279-3926.325h21.542v79.825h-21.542z" style="fill:#775740;fill-opacity:1;stroke:#38291e;stroke-width:2.5;stroke-dasharray:none;stroke-opacity:1" transform="scale(1 -1)"/><path d="M638.773-3926.808h21.542v63.023h-21.542z" style="fill:#6c4f3b;fill-opacity:1;stroke:#38291e;stroke-width:2.5;stroke-dasharray:none;stroke-opacity:1" transform="scale(1 -1)"/><path d="M3640.4 583.411h20.382v85.564H3640.4z" style="fill:#775740;fill-opacity:1;stroke:#38291e;stroke-width:2.5;stroke-dasharray:none;stroke-opacity:1" transform="matrix(0 1 1 0 0 0)"/><path d="M3621.073-972.9h20.382v56.653h-20.382zM3661.74-972.498h20.382v117.601h-20.382z" style="fill:#6c4f3b;fill-opacity:1;stroke:#38291e;stroke-width:2.5;stroke-dasharray:none;stroke-opacity:1" transform="rotate(90)"/><path d="M3681.97-971.465h20.382v144.471h-20.382z" style="fill:#775740;fill-opacity:1;stroke:#38291e;stroke-width:2.5;stroke-dasharray:none;stroke-opacity:1" transform="rotate(90)"/><path d="M3567.006 766.379h184.645v21.207h-184.645z" style="fill:#6c4f3b;fill-opacity:1;stroke:#38291e;stroke-width:2.5;stroke-dasharray:none;stroke-opacity:1" transform="matrix(0 1 1 0 0 0)"/><path d="M3702.573-973.978h20.382v163.454h-20.382z" style="fill:#6c4f3b;fill-opacity:1;stroke:#38291e;stroke-width:2.5;stroke-dasharray:none;stroke-opacity:1" transform="rotate(90)"/><path d="M-915.322 3568.216h21.542v71.042h-21.542z" style="fill:#6c4f3b;fill-opacity:1;stroke:#38291e;stroke-width:2.49999;stroke-dasharray:none;stroke-opacity:1" transform="scale(-1 1)"/><path d="M-974.289 3741.826h192.337v20.065h-192.337z" style="fill:#6c4f3b;fill-opacity:1;stroke:#38291e;stroke-width:2.5;stroke-dasharray:none;stroke-opacity:1" transform="scale(-1 1)"/><path d="M-3781.155-973.438h20.382v184.313h-20.382z" style="fill:#775740;fill-opacity:1;stroke:#38291e;stroke-width:2.5;stroke-dasharray:none;stroke-opacity:1" transform="scale(1 -1)rotate(90)"/><path d="M-807.966-3926.111h21.542v157.013h-21.542z" style="fill:#775740;fill-opacity:1;stroke:#38291e;stroke-width:2.5;stroke-dasharray:none;stroke-opacity:1" transform="scale(-1)"/><path d="M-872.341 3569.747h21.542v106.159h-21.542z" style="fill:#6c4f3b;fill-opacity:1;stroke:#38291e;stroke-width:2.5;stroke-dasharray:none;stroke-opacity:1" transform="scale(-1 1)"/><path d="M-850.959 3567.74h21.542v127.6h-21.542z" style="fill:#775740;fill-opacity:1;stroke:#38291e;stroke-width:2.5;stroke-dasharray:none;stroke-opacity:1" transform="scale(-1 1)"/><path d="M-829.183 3573.588h21.542v140.796h-21.542z" style="fill:#6c4f3b;fill-opacity:1;stroke:#38291e;stroke-width:2.5;stroke-dasharray:none;stroke-opacity:1" transform="scale(-1 1)"/><path d="M746.129 3573.006h21.542v162.021h-21.542z" style="fill:#775740;fill-opacity:1;stroke:#38291e;stroke-width:2.5;stroke-dasharray:none;stroke-opacity:1"/><path d="M724.207 3574.084h21.542v141.213h-21.542z" style="fill:#6c4f3b;fill-opacity:1;stroke:#38291e;stroke-width:2.5;stroke-dasharray:none;stroke-opacity:1"/><path d="M702.432 3569.095h21.542v126.013h-21.542z" style="fill:#775740;fill-opacity:1;stroke:#38291e;stroke-width:2.5;stroke-dasharray:none;stroke-opacity:1"/><path d="M681.05 3572.043h21.542v105.779H681.05z" style="fill:#6c4f3b;fill-opacity:1;stroke:#38291e;stroke-width:2.5;stroke-dasharray:none;stroke-opacity:1"/><path d="M659.574 3572.348h21.542v85.613h-21.542z" style="fill:#775740;fill-opacity:1;stroke:#38291e;stroke-width:2.5;stroke-dasharray:none;stroke-opacity:1"/><path d="M3723.315-973.075h20.382v178.862h-20.382z" style="fill:#775740;fill-opacity:1;stroke:#38291e;stroke-width:2.5;stroke-dasharray:none;stroke-opacity:1" transform="rotate(90)"/><path d="M638.069 3571.866h21.542v67.57h-21.542z" style="fill:#6c4f3b;fill-opacity:1;stroke:#38291e;stroke-width:2.5;stroke-dasharray:none;stroke-opacity:1"/><path d="M3641.42-972.106h20.382v89.095h-20.382z" style="fill:#775740;fill-opacity:1;stroke:#38291e;stroke-width:2.5;stroke-dasharray:none;stroke-opacity:1" transform="rotate(90)"/><path d="M-893.817 3570.038h21.542v87.175h-21.542zM-807.262 3572.563h21.542v163.628h-21.542z" style="fill:#775740;fill-opacity:1;stroke:#38291e;stroke-width:2.5;stroke-dasharray:none;stroke-opacity:1" transform="scale(-1 1)"/><path d="M3568.01-984.525h13.743v415.239h-13.743z" style="fill:#6f513b;fill-opacity:1;stroke:#38291e;stroke-width:3.09105;stroke-dasharray:none;stroke-opacity:1" transform="rotate(90)"/><path d="M3922.376-984.748h13.742v415.416h-13.742z" style="fill:#6f513b;fill-opacity:1;stroke:#38291e;stroke-width:3.09164;stroke-dasharray:none;stroke-opacity:1" transform="rotate(90)"/><path d="M-582.854-3936.836h13.747v368.828h-13.747z" style="fill:#6f513b;fill-opacity:1;stroke:#38291e;stroke-width:2.91367;stroke-dasharray:none;stroke-opacity:1" transform="scale(-1)"/><path d="M-984.614-3936.914h13.747v368.992h-13.747z" style="fill:#6f513b;fill-opacity:1;stroke:#38291e;stroke-width:2.91426;stroke-dasharray:none;stroke-opacity:1" transform="scale(-1)"/><path d="m-3061.025-1939.253-1.901-15.76-256.594 30.977v-256.343h-15.866v258.26l-255.995 30.904 1.9 15.76 254.095-30.676v258.314h15.866v-260.23z" style="fill:#6f513b;fill-opacity:1;stroke:#38291e;stroke-width:3.09101;stroke-dasharray:none;stroke-opacity:1" transform="matrix(-.665 -.74685 .74967 -.6618 0 0)"/><path d="M574.009 3572.836h405.652v3.978H574.009z" style="fill:#987052;fill-opacity:1;stroke:#38291e;stroke-width:1.72349;stroke-dasharray:none;stroke-opacity:1"/><path d="M575.472 3927.611H977.24v3.986H575.472z" style="fill:#987052;fill-opacity:1;stroke:#38291e;stroke-width:1.71703;stroke-dasharray:none;stroke-opacity:1"/><path d="M-3931.645 975.686h358.807v3.974h-358.807zM-3931.643 574.009h358.807v3.974h-358.807z" style="fill:#987052;fill-opacity:1;stroke:#38291e;stroke-width:1.62005;stroke-dasharray:none;stroke-opacity:1" transform="rotate(-90)"/><path d="M2792.867-2295.687v-4.254h266.102l-33.73-264.054 4.217-.53 33.797 264.584h266.414v4.254h-265.87l33.673 263.613-4.217.529-33.741-264.142z" style="fill:#987052;fill-opacity:1;stroke:#38291e;stroke-width:1.62005;stroke-dasharray:none;stroke-opacity:1" transform="matrix(.74945 .66206 .66033 -.75098 0 0)"/><path d="M899.49 3792.14c-9.452 1.817-20.188-2.952-27.116-10.521-4.563-4.985-6.298-12.353-3.818-18.809 3.235-8.417 8.137-16.317 14.688-22.499 3.877-3.657 9.564-3.126 14.104-5.533 4.976-2.637 11.837-5.355 16.854-1.434 4 3.128 3.089 8.778 3.415 13.269.369 5.09-3.207 9.657-8.231 12-3.746 1.745-5.978 5.83-8.242 9.27-2.211 3.36-2.626 7.624-3.516 11.53-.967 4.244 6.253 11.882 1.862 12.726z" style="fill:#38451e;fill-opacity:1;stroke:#2c3719;stroke-width:3.6703;stroke-linecap:square;stroke-linejoin:round;stroke-dasharray:none;stroke-opacity:1;paint-order:fill markers stroke;stop-color:#000"/><path d="M844.055 3566.642h84.135v36.902h-84.135z" style="fill:#111;fill-opacity:1;stroke:#262626;stroke-width:12.003;stroke-dasharray:none;stroke-opacity:1" transform="translate(-.464 6.452)"/><path d="M844.055 3566.642h84.135v36.902h-84.135z" style="fill:none;fill-opacity:1;stroke:#393939;stroke-width:5.131;stroke-dasharray:none;stroke-opacity:1" transform="translate(-.464 6.452)"/><circle cx="776.034" cy="3751.169" r="13.155" style="fill:#4e4e4e;fill-opacity:1;stroke:#2e2e2e;stroke-width:3.96875;stroke-dasharray:none;stroke-opacity:1"/><path d="M19.89 3825.176h79.375v9.922H19.89z" style="fill:#4e4e4e;fill-opacity:1;stroke:#2e2e2e;stroke-width:3.96875;stroke-dasharray:none;stroke-opacity:1" transform="rotate(-10.797)"/><path d="M614.47 3828.706c11.476.715 22.57-3.896 34.006-5.74 5.049-.814-2.082-7.602-.13-10.794 1.792-2.928 6.372-2.5 9.587-3.461 5.292-1.583 10.543-3.322 15.788-5.07 4.019-1.338 2.625-5.572 1.613-8.334-2.033-5.55-2.497-11.911-6.656-16.44-2.529-2.752-6.609-3.41-8.499-6.921-2.414-4.484-6.683-1.437-10.087-.266-4.576 1.576-9.775 2.336-14.497 1.015-5.42-1.516-8.236-8.233-13.633-9.134-4.597-.768-3.105 7.732-3.497 11.352-.791 7.313-2.317 14.468-4.385 21.51-1.738 5.923-3.446 11.832-5.534 17.65-1.617 4.51-9.17 13.692-3.713 14.032z" style="fill:#38451e;fill-opacity:1;stroke:#2c3719;stroke-width:3.6703;stroke-linecap:square;stroke-linejoin:round;stroke-dasharray:none;stroke-opacity:1;paint-order:fill markers stroke;stop-color:#000"/><path fill="#f06" d="M784.946 3637.831c3.915 2.917 7.155 8.548 5.548 12.098-1.649 3.536-8.144 4.99-12.888 4.689-4.772-.356-7.736-2.496-12.94-2.676-5.19-.22-12.563 1.491-16.505-1.067-3.97-2.615-4.465-9.486-2.223-15.073 2.284-5.574 7.25-9.837 12.09-9.825 4.813-.043 9.402 4.202 13.956 6.46 4.569 2.218 9.103 2.45 12.962 5.394z" style="fill:#38451e;fill-opacity:1;stroke:#2c3719;stroke-width:3.6703;stroke-dasharray:none;stroke-opacity:1"/></g></svg>