<svg xmlns="http://www.w3.org/2000/svg" xmlns:xlink="http://www.w3.org/1999/xlink" width="950.729" height="979.89" viewBox="0 0 251.547 259.263"><defs><pattern xlink:href="#a" id="b" x="0" y="0" patternTransform="matrix(.15 0 0 .153 -8952.829 11274.059)" preserveAspectRatio="none"/><pattern id="a" width="44.132" height="44.131" patternTransform="translate(-8952.829 11274.059)" patternUnits="userSpaceOnUse"><path d="M-2710.991-5339.069h11.676v11.676h-11.676z" style="fill:#8c8c8c;fill-opacity:1;stroke:none;stroke-width:2.878;stroke-linecap:square;stroke-linejoin:miter;stroke-dasharray:none;stroke-opacity:1;stop-color:#000" transform="rotate(-90 4988.52 -15190.65) scale(3.77953)"/><path fill="#d9d9d9" d="M-5339.07 2705.16c2.567-2.588 2.781-4.665 2.781-4.665s-1.137.119-2.78 1.222zm5.792 3.995a13 13 0 0 1 1.543 1.836h-3.469c-2.564-2.585-2.778-4.66-2.778-4.66s2.098.22 4.704 2.824m-1.932-9.84h3.47c1.164 1.693 1.285 2.876 1.285 2.876s-2.148-.27-4.754-2.876m7.816 2.4v3.436c-2.606 2.607-4.755 2.874-4.755 2.874s.22-2.101 2.826-4.707a13 13 0 0 1 1.929-1.603" style="fill:#a6a6a6;fill-opacity:1;stroke-width:.264583" transform="translate(20179.16 -10202.134) scale(3.77953)"/></pattern></defs><g style="opacity:1"><path d="M18.37-100.904v24.57h121.788v-24.57Zm3.5 3.5h114.788v17.57H21.87Z" style="baseline-shift:baseline;display:inline;overflow:visible;vector-effect:none;fill:#404040;paint-order:stroke fill markers;enable-background:accumulate;stop-color:#000;stop-opacity:1" transform="translate(111.39 103.981)"/><path d="M20.118-99.154h118.29v21.07H20.117Z" style="baseline-shift:baseline;display:inline;overflow:visible;vector-effect:none;fill:#878787;paint-order:stroke fill markers;enable-background:accumulate;stop-color:#000;stop-opacity:1" transform="translate(111.39 103.981)"/></g><g style="opacity:1"><path d="M18.37-78v24.57h121.788V-78Zm3.5 3.5h114.788v17.57H21.87Z" style="baseline-shift:baseline;display:inline;overflow:visible;vector-effect:none;fill:#404040;paint-order:stroke fill markers;enable-background:accumulate;stop-color:#000;stop-opacity:1" transform="translate(111.39 103.981)"/><path d="M20.118-76.25h118.29v21.07H20.117Z" style="baseline-shift:baseline;display:inline;overflow:visible;vector-effect:none;fill:#939393;paint-order:stroke fill markers;enable-background:accumulate;stop-color:#000;stop-opacity:1" transform="translate(111.39 103.981)"/></g><g style="fill:#767676;fill-opacity:1;stroke:#3e3e3e;stroke-width:.992802;stroke-opacity:1"><g style="fill:#767676;fill-opacity:1;stroke:#3e3e3e;stroke-width:1.79981;stroke-dasharray:none;stroke-opacity:1"><path d="M-3696.7-120.127h73.768v3.461h-73.768z" style="fill:#767676;fill-opacity:1;stroke:#3e3e3e;stroke-width:1.79981;stroke-linecap:round;stroke-linejoin:miter;stroke-dasharray:none;stroke-opacity:1;stop-color:#000" transform="scale(.68747 -.71048) rotate(45 -1783.933 4461.125)"/><path d="M81.512 3658.086h73.768v3.461H81.512z" style="fill:#767676;fill-opacity:1;stroke:#3e3e3e;stroke-width:1.79981;stroke-linecap:round;stroke-linejoin:miter;stroke-dasharray:none;stroke-opacity:1;stop-color:#000" transform="matrix(.48611 .50239 -.48611 .50239 1809.406 -1824.563)"/></g><g style="fill:#767676;fill-opacity:1;stroke:#3e3e3e;stroke-width:1.82969;stroke-dasharray:none;stroke-opacity:1"><path d="M-3696.7-120.127h73.768v3.461h-73.768z" style="fill:#767676;fill-opacity:1;stroke:#3e3e3e;stroke-width:1.82969;stroke-linecap:round;stroke-linejoin:miter;stroke-dasharray:none;stroke-opacity:1;stop-color:#000" transform="scale(.68747 -.68747) rotate(45 -1692.653 4495.58)"/><path d="M81.512 3658.086h73.768v3.461H81.512z" style="fill:#767676;fill-opacity:1;stroke:#3e3e3e;stroke-width:1.82969;stroke-linecap:round;stroke-linejoin:miter;stroke-dasharray:none;stroke-opacity:1;stop-color:#000" transform="scale(.68747) rotate(45 4375.742 1981.969)"/></g><path d="M-2241.262-2299.57h59.294v3.756h-59.294z" style="fill:#767676;fill-opacity:1;stroke:#3e3e3e;stroke-width:1.9856;stroke-linecap:round;stroke-linejoin:miter;stroke-dasharray:none;stroke-opacity:1;stop-color:#000" transform="matrix(0 -.63349 -.63349 0 -1314.994 -1292.417)"/><path d="M-2241.262 2240.349h59.294v3.756h-59.294z" style="fill:#767676;fill-opacity:1;stroke:#3e3e3e;stroke-width:1.9856;stroke-linecap:round;stroke-linejoin:miter;stroke-dasharray:none;stroke-opacity:1;stop-color:#000" transform="matrix(0 -.63349 .63349 0 -1314.994 -1292.417)"/><path d="M2240.311-2241.225h59.294v3.756h-59.294z" style="fill:#767676;fill-opacity:1;stroke:#3e3e3e;stroke-width:1.9856;stroke-linecap:round;stroke-linejoin:miter;stroke-dasharray:none;stroke-opacity:1;stop-color:#000" transform="matrix(.63349 0 0 -.63349 -1314.994 -1292.417)"/><path d="M2240.311 2182.003h59.294v3.756h-59.294z" style="fill:#767676;fill-opacity:1;stroke:#3e3e3e;stroke-width:1.9856;stroke-linecap:round;stroke-linejoin:miter;stroke-dasharray:none;stroke-opacity:1;stop-color:#000" transform="matrix(.63349 0 0 .63349 -1314.994 -1292.417)"/><g style="fill:#767676;fill-opacity:1;stroke:#3e3e3e;stroke-width:1.80286;stroke-dasharray:none;stroke-opacity:1"><path d="M-3696.7-120.127h73.768v3.461h-73.768z" style="fill:#767676;fill-opacity:1;stroke:#3e3e3e;stroke-width:1.80286;stroke-linecap:round;stroke-linejoin:miter;stroke-dasharray:none;stroke-opacity:1;stop-color:#000" transform="scale(.68747 -.70808) rotate(45 -1720.523 4434.86)"/><path d="M81.512 3658.086h73.768v3.461H81.512z" style="fill:#767676;fill-opacity:1;stroke:#3e3e3e;stroke-width:1.80286;stroke-linecap:round;stroke-linejoin:miter;stroke-dasharray:none;stroke-opacity:1;stop-color:#000" transform="matrix(.48611 .5007 -.48611 .5007 1809.406 -1781.21)"/></g><path d="M-2241.262 2184.895h59.294v3.756h-59.294z" style="fill:#767676;fill-opacity:1;stroke:#3e3e3e;stroke-width:1.9856;stroke-linecap:round;stroke-linejoin:miter;stroke-dasharray:none;stroke-opacity:1;stop-color:#000" transform="matrix(0 -.63349 .63349 0 -1314.994 -1292.417)"/><path d="M2184.857-2241.225h59.294v3.756h-59.294z" style="fill:#767676;fill-opacity:1;stroke:#3e3e3e;stroke-width:1.9856;stroke-linecap:round;stroke-linejoin:miter;stroke-dasharray:none;stroke-opacity:1;stop-color:#000" transform="matrix(.63349 0 0 -.63349 -1314.994 -1292.417)"/><path d="M2184.857 2183.64h59.294v3.756h-59.294z" style="fill:#767676;fill-opacity:1;stroke:#3e3e3e;stroke-width:1.9856;stroke-linecap:round;stroke-linejoin:miter;stroke-dasharray:none;stroke-opacity:1;stop-color:#000" transform="matrix(.63349 0 0 .63349 -1314.994 -1292.417)"/><g style="fill:#767676;fill-opacity:1;stroke:#3e3e3e;stroke-width:1.79981;stroke-dasharray:none;stroke-opacity:1"><path d="M-3696.7-120.127h73.768v3.461h-73.768z" style="fill:#767676;fill-opacity:1;stroke:#3e3e3e;stroke-width:1.79981;stroke-linecap:round;stroke-linejoin:miter;stroke-dasharray:none;stroke-opacity:1;stop-color:#000" transform="scale(.68747 -.71048) rotate(45 -1758.384 4522.807)"/><path d="M81.512 3658.086h73.768v3.461H81.512z" style="fill:#767676;fill-opacity:1;stroke:#3e3e3e;stroke-width:1.79981;stroke-linecap:round;stroke-linejoin:miter;stroke-dasharray:none;stroke-opacity:1;stop-color:#000" transform="matrix(.48611 .50239 -.48611 .50239 1844.535 -1824.563)"/></g><path d="M-2185.733-2299.57h59.294v3.756h-59.294z" style="fill:#767676;fill-opacity:1;stroke:#3e3e3e;stroke-width:1.9856;stroke-linecap:round;stroke-linejoin:miter;stroke-dasharray:none;stroke-opacity:1;stop-color:#000" transform="matrix(0 -.63349 -.63349 0 -1314.994 -1292.417)"/><path d="M-2185.733 2240.349h59.294v3.756h-59.294z" style="fill:#767676;fill-opacity:1;stroke:#3e3e3e;stroke-width:1.9856;stroke-linecap:round;stroke-linejoin:miter;stroke-dasharray:none;stroke-opacity:1;stop-color:#000" transform="matrix(0 -.63349 .63349 0 -1314.994 -1292.417)"/><path d="M2240.311 2126.473h59.294v3.756h-59.294z" style="fill:#767676;fill-opacity:1;stroke:#3e3e3e;stroke-width:1.9856;stroke-linecap:round;stroke-linejoin:miter;stroke-dasharray:none;stroke-opacity:1;stop-color:#000" transform="matrix(.63349 0 0 .63349 -1314.994 -1292.417)"/><path d="M-2185.733 2184.895h59.294v3.756h-59.294z" style="fill:#767676;fill-opacity:1;stroke:#3e3e3e;stroke-width:1.9856;stroke-linecap:round;stroke-linejoin:miter;stroke-dasharray:none;stroke-opacity:1;stop-color:#000" transform="matrix(0 -.63349 .63349 0 -1314.994 -1292.417)"/><path d="M2184.857 2126.473h59.294v3.756h-59.294z" style="fill:#767676;fill-opacity:1;stroke:#3e3e3e;stroke-width:1.9856;stroke-linecap:round;stroke-linejoin:miter;stroke-dasharray:none;stroke-opacity:1;stop-color:#000" transform="matrix(.63349 0 0 .63349 -1314.994 -1292.417)"/></g><g style="fill:#767676;fill-opacity:1;stroke:#3e3e3e;stroke-width:.992802;stroke-opacity:1"><g style="fill:#767676;fill-opacity:1;stroke:#3e3e3e;stroke-width:1.79981;stroke-dasharray:none;stroke-opacity:1"><path d="M-3696.7-120.127h73.768v3.461h-73.768z" style="fill:#767676;fill-opacity:1;stroke:#3e3e3e;stroke-width:1.79981;stroke-linecap:round;stroke-linejoin:miter;stroke-dasharray:none;stroke-opacity:1;stop-color:#000" transform="scale(.68747 -.71048) rotate(45 -1690.347 4597.892)"/><path d="M81.512 3658.086h73.768v3.461H81.512z" style="fill:#767676;fill-opacity:1;stroke:#3e3e3e;stroke-width:1.79981;stroke-linecap:round;stroke-linejoin:miter;stroke-dasharray:none;stroke-opacity:1;stop-color:#000" transform="matrix(.48611 .50239 -.48611 .50239 1894.734 -1806.007)"/></g><g style="fill:#767676;fill-opacity:1;stroke:#3e3e3e;stroke-width:1.82969;stroke-dasharray:none;stroke-opacity:1"><path d="M-3696.7-120.127h73.768v3.461h-73.768z" style="fill:#767676;fill-opacity:1;stroke:#3e3e3e;stroke-width:1.82969;stroke-linecap:round;stroke-linejoin:miter;stroke-dasharray:none;stroke-opacity:1;stop-color:#000" transform="scale(.68747 -.68747) rotate(45 -1598.011 4631.91)"/><path d="M81.512 3658.086h73.768v3.461H81.512z" style="fill:#767676;fill-opacity:1;stroke:#3e3e3e;stroke-width:1.82969;stroke-linecap:round;stroke-linejoin:miter;stroke-dasharray:none;stroke-opacity:1;stop-color:#000" transform="scale(.68747) rotate(45 4405.22 2145.29)"/></g><path d="M-2241.262-2299.57h59.294v3.756h-59.294z" style="fill:#767676;fill-opacity:1;stroke:#3e3e3e;stroke-width:1.9856;stroke-linecap:round;stroke-linejoin:miter;stroke-dasharray:none;stroke-opacity:1;stop-color:#000" transform="matrix(0 -.63349 -.63349 0 -1229.666 -1273.86)"/><path d="M-2241.262 2240.349h59.294v3.756h-59.294z" style="fill:#767676;fill-opacity:1;stroke:#3e3e3e;stroke-width:1.9856;stroke-linecap:round;stroke-linejoin:miter;stroke-dasharray:none;stroke-opacity:1;stop-color:#000" transform="matrix(0 -.63349 .63349 0 -1229.666 -1273.86)"/><path d="M2240.311-2241.225h59.294v3.756h-59.294z" style="fill:#767676;fill-opacity:1;stroke:#3e3e3e;stroke-width:1.9856;stroke-linecap:round;stroke-linejoin:miter;stroke-dasharray:none;stroke-opacity:1;stop-color:#000" transform="matrix(.63349 0 0 -.63349 -1229.666 -1273.86)"/><path d="M2240.311 2182.003h59.294v3.756h-59.294z" style="fill:#767676;fill-opacity:1;stroke:#3e3e3e;stroke-width:1.9856;stroke-linecap:round;stroke-linejoin:miter;stroke-dasharray:none;stroke-opacity:1;stop-color:#000" transform="matrix(.63349 0 0 .63349 -1229.666 -1273.86)"/><g style="fill:#767676;fill-opacity:1;stroke:#3e3e3e;stroke-width:1.80286;stroke-dasharray:none;stroke-opacity:1"><path d="M-3696.7-120.127h73.768v3.461h-73.768z" style="fill:#767676;fill-opacity:1;stroke:#3e3e3e;stroke-width:1.80286;stroke-linecap:round;stroke-linejoin:miter;stroke-dasharray:none;stroke-opacity:1;stop-color:#000" transform="scale(.68747 -.70808) rotate(45 -1626.83 4571.582)"/><path d="M81.512 3658.086h73.768v3.461H81.512z" style="fill:#767676;fill-opacity:1;stroke:#3e3e3e;stroke-width:1.80286;stroke-linecap:round;stroke-linejoin:miter;stroke-dasharray:none;stroke-opacity:1;stop-color:#000" transform="matrix(.48611 .5007 -.48611 .5007 1894.734 -1762.655)"/></g><path d="M-2241.262 2184.895h59.294v3.756h-59.294z" style="fill:#767676;fill-opacity:1;stroke:#3e3e3e;stroke-width:1.9856;stroke-linecap:round;stroke-linejoin:miter;stroke-dasharray:none;stroke-opacity:1;stop-color:#000" transform="matrix(0 -.63349 .63349 0 -1229.666 -1273.86)"/><path d="M2184.857-2241.225h59.294v3.756h-59.294z" style="fill:#767676;fill-opacity:1;stroke:#3e3e3e;stroke-width:1.9856;stroke-linecap:round;stroke-linejoin:miter;stroke-dasharray:none;stroke-opacity:1;stop-color:#000" transform="matrix(.63349 0 0 -.63349 -1229.666 -1273.86)"/><path d="M2184.857 2183.64h59.294v3.756h-59.294z" style="fill:#767676;fill-opacity:1;stroke:#3e3e3e;stroke-width:1.9856;stroke-linecap:round;stroke-linejoin:miter;stroke-dasharray:none;stroke-opacity:1;stop-color:#000" transform="matrix(.63349 0 0 .63349 -1229.666 -1273.86)"/><g style="fill:#767676;fill-opacity:1;stroke:#3e3e3e;stroke-width:1.79981;stroke-dasharray:none;stroke-opacity:1"><path d="M-3696.7-120.127h73.768v3.461h-73.768z" style="fill:#767676;fill-opacity:1;stroke:#3e3e3e;stroke-width:1.79981;stroke-linecap:round;stroke-linejoin:miter;stroke-dasharray:none;stroke-opacity:1;stop-color:#000" transform="scale(.68747 -.71048) rotate(45 -1664.797 4659.574)"/><path d="M81.512 3658.086h73.768v3.461H81.512z" style="fill:#767676;fill-opacity:1;stroke:#3e3e3e;stroke-width:1.79981;stroke-linecap:round;stroke-linejoin:miter;stroke-dasharray:none;stroke-opacity:1;stop-color:#000" transform="matrix(.48611 .50239 -.48611 .50239 1929.863 -1806.007)"/></g><path d="M-2185.733-2299.57h59.294v3.756h-59.294z" style="fill:#767676;fill-opacity:1;stroke:#3e3e3e;stroke-width:1.9856;stroke-linecap:round;stroke-linejoin:miter;stroke-dasharray:none;stroke-opacity:1;stop-color:#000" transform="matrix(0 -.63349 -.63349 0 -1229.666 -1273.86)"/><path d="M-2185.733 2240.349h59.294v3.756h-59.294z" style="fill:#767676;fill-opacity:1;stroke:#3e3e3e;stroke-width:1.9856;stroke-linecap:round;stroke-linejoin:miter;stroke-dasharray:none;stroke-opacity:1;stop-color:#000" transform="matrix(0 -.63349 .63349 0 -1229.666 -1273.86)"/><path d="M2240.311 2126.473h59.294v3.756h-59.294z" style="fill:#767676;fill-opacity:1;stroke:#3e3e3e;stroke-width:1.9856;stroke-linecap:round;stroke-linejoin:miter;stroke-dasharray:none;stroke-opacity:1;stop-color:#000" transform="matrix(.63349 0 0 .63349 -1229.666 -1273.86)"/><path d="M-2185.733 2184.895h59.294v3.756h-59.294z" style="fill:#767676;fill-opacity:1;stroke:#3e3e3e;stroke-width:1.9856;stroke-linecap:round;stroke-linejoin:miter;stroke-dasharray:none;stroke-opacity:1;stop-color:#000" transform="matrix(0 -.63349 .63349 0 -1229.666 -1273.86)"/><path d="M2184.857 2126.473h59.294v3.756h-59.294z" style="fill:#767676;fill-opacity:1;stroke:#3e3e3e;stroke-width:1.9856;stroke-linecap:round;stroke-linejoin:miter;stroke-dasharray:none;stroke-opacity:1;stop-color:#000" transform="matrix(.63349 0 0 .63349 -1229.666 -1273.86)"/></g><g style="fill:#767676;fill-opacity:1;stroke:#3e3e3e;stroke-width:.992802;stroke-opacity:1"><g style="fill:#767676;fill-opacity:1;stroke:#3e3e3e;stroke-width:1.79981;stroke-dasharray:none;stroke-opacity:1"><path d="M-3696.7-120.127h73.768v3.461h-73.768z" style="fill:#767676;fill-opacity:1;stroke:#3e3e3e;stroke-width:1.79981;stroke-linecap:round;stroke-linejoin:miter;stroke-dasharray:none;stroke-opacity:1;stop-color:#000" transform="scale(.68747 -.71048) rotate(45 -1586.479 4486.288)"/><path d="M81.512 3658.086h73.768v3.461H81.512z" style="fill:#767676;fill-opacity:1;stroke:#3e3e3e;stroke-width:1.79981;stroke-linecap:round;stroke-linejoin:miter;stroke-dasharray:none;stroke-opacity:1;stop-color:#000" transform="matrix(.48611 .50239 -.48611 .50239 1861.396 -1730.601)"/></g><g style="fill:#767676;fill-opacity:1;stroke:#3e3e3e;stroke-width:1.82969;stroke-dasharray:none;stroke-opacity:1"><path d="M-3696.7-120.127h73.768v3.461h-73.768z" style="fill:#767676;fill-opacity:1;stroke:#3e3e3e;stroke-width:1.82969;stroke-linecap:round;stroke-linejoin:miter;stroke-dasharray:none;stroke-opacity:1;stop-color:#000" transform="scale(.68747 -.68747) rotate(45 -1489.854 4518.53)"/><path d="M81.512 3658.086h73.768v3.461H81.512z" style="fill:#767676;fill-opacity:1;stroke:#3e3e3e;stroke-width:1.82969;stroke-linecap:round;stroke-linejoin:miter;stroke-dasharray:none;stroke-opacity:1;stop-color:#000" transform="scale(.68747) rotate(45 4248.57 2141.598)"/></g><path d="M-2241.262-2299.57h59.294v3.756h-59.294z" style="fill:#767676;fill-opacity:1;stroke:#3e3e3e;stroke-width:1.9856;stroke-linecap:round;stroke-linejoin:miter;stroke-dasharray:none;stroke-opacity:1;stop-color:#000" transform="matrix(0 -.63349 -.63349 0 -1263.003 -1198.454)"/><path d="M-2241.262 2240.349h59.294v3.756h-59.294z" style="fill:#767676;fill-opacity:1;stroke:#3e3e3e;stroke-width:1.9856;stroke-linecap:round;stroke-linejoin:miter;stroke-dasharray:none;stroke-opacity:1;stop-color:#000" transform="matrix(0 -.63349 .63349 0 -1263.003 -1198.454)"/><path d="M2240.311-2241.225h59.294v3.756h-59.294z" style="fill:#767676;fill-opacity:1;stroke:#3e3e3e;stroke-width:1.9856;stroke-linecap:round;stroke-linejoin:miter;stroke-dasharray:none;stroke-opacity:1;stop-color:#000" transform="matrix(.63349 0 0 -.63349 -1263.003 -1198.454)"/><path d="M2240.311 2182.003h59.294v3.756h-59.294z" style="fill:#767676;fill-opacity:1;stroke:#3e3e3e;stroke-width:1.9856;stroke-linecap:round;stroke-linejoin:miter;stroke-dasharray:none;stroke-opacity:1;stop-color:#000" transform="matrix(.63349 0 0 .63349 -1263.003 -1198.454)"/><g style="fill:#767676;fill-opacity:1;stroke:#3e3e3e;stroke-width:1.80286;stroke-dasharray:none;stroke-opacity:1"><path d="M-3696.7-120.127h73.768v3.461h-73.768z" style="fill:#767676;fill-opacity:1;stroke:#3e3e3e;stroke-width:1.80286;stroke-linecap:round;stroke-linejoin:miter;stroke-dasharray:none;stroke-opacity:1;stop-color:#000" transform="scale(.68747 -.70808) rotate(45 -1522.528 4459.799)"/><path d="M81.512 3658.086h73.768v3.461H81.512z" style="fill:#767676;fill-opacity:1;stroke:#3e3e3e;stroke-width:1.80286;stroke-linecap:round;stroke-linejoin:miter;stroke-dasharray:none;stroke-opacity:1;stop-color:#000" transform="matrix(.48611 .5007 -.48611 .5007 1861.396 -1687.249)"/></g><path d="M-2241.262 2184.895h59.294v3.756h-59.294z" style="fill:#767676;fill-opacity:1;stroke:#3e3e3e;stroke-width:1.9856;stroke-linecap:round;stroke-linejoin:miter;stroke-dasharray:none;stroke-opacity:1;stop-color:#000" transform="matrix(0 -.63349 .63349 0 -1263.003 -1198.454)"/><path d="M2184.857-2241.225h59.294v3.756h-59.294z" style="fill:#767676;fill-opacity:1;stroke:#3e3e3e;stroke-width:1.9856;stroke-linecap:round;stroke-linejoin:miter;stroke-dasharray:none;stroke-opacity:1;stop-color:#000" transform="matrix(.63349 0 0 -.63349 -1263.003 -1198.454)"/><path d="M2184.857 2183.64h59.294v3.756h-59.294z" style="fill:#767676;fill-opacity:1;stroke:#3e3e3e;stroke-width:1.9856;stroke-linecap:round;stroke-linejoin:miter;stroke-dasharray:none;stroke-opacity:1;stop-color:#000" transform="matrix(.63349 0 0 .63349 -1263.003 -1198.454)"/><g style="fill:#767676;fill-opacity:1;stroke:#3e3e3e;stroke-width:1.79981;stroke-dasharray:none;stroke-opacity:1"><path d="M-3696.7-120.127h73.768v3.461h-73.768z" style="fill:#767676;fill-opacity:1;stroke:#3e3e3e;stroke-width:1.79981;stroke-linecap:round;stroke-linejoin:miter;stroke-dasharray:none;stroke-opacity:1;stop-color:#000" transform="scale(.68747 -.71048) rotate(45 -1560.93 4547.97)"/><path d="M81.512 3658.086h73.768v3.461H81.512z" style="fill:#767676;fill-opacity:1;stroke:#3e3e3e;stroke-width:1.79981;stroke-linecap:round;stroke-linejoin:miter;stroke-dasharray:none;stroke-opacity:1;stop-color:#000" transform="matrix(.48611 .50239 -.48611 .50239 1896.525 -1730.601)"/></g><path d="M-2185.733-2299.57h59.294v3.756h-59.294z" style="fill:#767676;fill-opacity:1;stroke:#3e3e3e;stroke-width:1.9856;stroke-linecap:round;stroke-linejoin:miter;stroke-dasharray:none;stroke-opacity:1;stop-color:#000" transform="matrix(0 -.63349 -.63349 0 -1263.003 -1198.454)"/><path d="M-2185.733 2240.349h59.294v3.756h-59.294z" style="fill:#767676;fill-opacity:1;stroke:#3e3e3e;stroke-width:1.9856;stroke-linecap:round;stroke-linejoin:miter;stroke-dasharray:none;stroke-opacity:1;stop-color:#000" transform="matrix(0 -.63349 .63349 0 -1263.003 -1198.454)"/><path d="M2240.311 2126.473h59.294v3.756h-59.294z" style="fill:#767676;fill-opacity:1;stroke:#3e3e3e;stroke-width:1.9856;stroke-linecap:round;stroke-linejoin:miter;stroke-dasharray:none;stroke-opacity:1;stop-color:#000" transform="matrix(.63349 0 0 .63349 -1263.003 -1198.454)"/><path d="M-2185.733 2184.895h59.294v3.756h-59.294z" style="fill:#767676;fill-opacity:1;stroke:#3e3e3e;stroke-width:1.9856;stroke-linecap:round;stroke-linejoin:miter;stroke-dasharray:none;stroke-opacity:1;stop-color:#000" transform="matrix(0 -.63349 .63349 0 -1263.003 -1198.454)"/><path d="M2184.857 2126.473h59.294v3.756h-59.294z" style="fill:#767676;fill-opacity:1;stroke:#3e3e3e;stroke-width:1.9856;stroke-linecap:round;stroke-linejoin:miter;stroke-dasharray:none;stroke-opacity:1;stop-color:#000" transform="matrix(.63349 0 0 .63349 -1263.003 -1198.454)"/></g><g style="fill:#767676;fill-opacity:1;stroke:#3e3e3e;stroke-width:.992802;stroke-opacity:1"><g style="fill:#767676;fill-opacity:1;stroke:#3e3e3e;stroke-width:1.79981;stroke-dasharray:none;stroke-opacity:1"><path d="M-3696.7-120.127h73.768v3.461h-73.768z" style="fill:#767676;fill-opacity:1;stroke:#3e3e3e;stroke-width:1.79981;stroke-linecap:round;stroke-linejoin:miter;stroke-dasharray:none;stroke-opacity:1;stop-color:#000" transform="scale(.68747 -.71048) rotate(45 -1608.325 4298.372)"/><path d="M81.512 3658.086h73.768v3.461H81.512z" style="fill:#767676;fill-opacity:1;stroke:#3e3e3e;stroke-width:1.79981;stroke-linecap:round;stroke-linejoin:miter;stroke-dasharray:none;stroke-opacity:1;stop-color:#000" transform="matrix(.48611 .50239 -.48611 .50239 1765.65 -1702.472)"/></g><g style="fill:#767676;fill-opacity:1;stroke:#3e3e3e;stroke-width:1.82969;stroke-dasharray:none;stroke-opacity:1"><path d="M-3696.7-120.127h73.768v3.461h-73.768z" style="fill:#767676;fill-opacity:1;stroke:#3e3e3e;stroke-width:1.82969;stroke-linecap:round;stroke-linejoin:miter;stroke-dasharray:none;stroke-opacity:1;stop-color:#000" transform="scale(.68747 -.68747) rotate(45 -1510.1 4329.952)"/><path d="M81.512 3658.086h73.768v3.461H81.512z" style="fill:#767676;fill-opacity:1;stroke:#3e3e3e;stroke-width:1.82969;stroke-linecap:round;stroke-linejoin:miter;stroke-dasharray:none;stroke-opacity:1;stop-color:#000" transform="scale(.68747) rotate(45 4129.54 1993.936)"/></g><path d="M-2241.262-2299.57h59.294v3.756h-59.294z" style="fill:#767676;fill-opacity:1;stroke:#3e3e3e;stroke-width:1.9856;stroke-linecap:round;stroke-linejoin:miter;stroke-dasharray:none;stroke-opacity:1;stop-color:#000" transform="matrix(0 -.63349 -.63349 0 -1358.75 -1170.325)"/><path d="M-2241.262 2240.349h59.294v3.756h-59.294z" style="fill:#767676;fill-opacity:1;stroke:#3e3e3e;stroke-width:1.9856;stroke-linecap:round;stroke-linejoin:miter;stroke-dasharray:none;stroke-opacity:1;stop-color:#000" transform="matrix(0 -.63349 .63349 0 -1358.75 -1170.325)"/><path d="M2240.311-2241.225h59.294v3.756h-59.294z" style="fill:#767676;fill-opacity:1;stroke:#3e3e3e;stroke-width:1.9856;stroke-linecap:round;stroke-linejoin:miter;stroke-dasharray:none;stroke-opacity:1;stop-color:#000" transform="matrix(.63349 0 0 -.63349 -1358.75 -1170.325)"/><path d="M2240.311 2182.003h59.294v3.756h-59.294z" style="fill:#767676;fill-opacity:1;stroke:#3e3e3e;stroke-width:1.9856;stroke-linecap:round;stroke-linejoin:miter;stroke-dasharray:none;stroke-opacity:1;stop-color:#000" transform="matrix(.63349 0 0 .63349 -1358.75 -1170.325)"/><g style="fill:#767676;fill-opacity:1;stroke:#3e3e3e;stroke-width:1.80286;stroke-dasharray:none;stroke-opacity:1"><path d="M-3696.7-120.127h73.768v3.461h-73.768z" style="fill:#767676;fill-opacity:1;stroke:#3e3e3e;stroke-width:1.80286;stroke-linecap:round;stroke-linejoin:miter;stroke-dasharray:none;stroke-opacity:1;stop-color:#000" transform="scale(.68747 -.70808) rotate(45 -1544.213 4271.816)"/><path d="M81.512 3658.086h73.768v3.461H81.512z" style="fill:#767676;fill-opacity:1;stroke:#3e3e3e;stroke-width:1.80286;stroke-linecap:round;stroke-linejoin:miter;stroke-dasharray:none;stroke-opacity:1;stop-color:#000" transform="matrix(.48611 .5007 -.48611 .5007 1765.65 -1659.12)"/></g><path d="M-2241.262 2184.895h59.294v3.756h-59.294z" style="fill:#767676;fill-opacity:1;stroke:#3e3e3e;stroke-width:1.9856;stroke-linecap:round;stroke-linejoin:miter;stroke-dasharray:none;stroke-opacity:1;stop-color:#000" transform="matrix(0 -.63349 .63349 0 -1358.75 -1170.325)"/><path d="M2184.857-2241.225h59.294v3.756h-59.294z" style="fill:#767676;fill-opacity:1;stroke:#3e3e3e;stroke-width:1.9856;stroke-linecap:round;stroke-linejoin:miter;stroke-dasharray:none;stroke-opacity:1;stop-color:#000" transform="matrix(.63349 0 0 -.63349 -1358.75 -1170.325)"/><path d="M2184.857 2183.64h59.294v3.756h-59.294z" style="fill:#767676;fill-opacity:1;stroke:#3e3e3e;stroke-width:1.9856;stroke-linecap:round;stroke-linejoin:miter;stroke-dasharray:none;stroke-opacity:1;stop-color:#000" transform="matrix(.63349 0 0 .63349 -1358.75 -1170.325)"/><g style="fill:#767676;fill-opacity:1;stroke:#3e3e3e;stroke-width:1.79981;stroke-dasharray:none;stroke-opacity:1"><path d="M-3696.7-120.127h73.768v3.461h-73.768z" style="fill:#767676;fill-opacity:1;stroke:#3e3e3e;stroke-width:1.79981;stroke-linecap:round;stroke-linejoin:miter;stroke-dasharray:none;stroke-opacity:1;stop-color:#000" transform="scale(.68747 -.71048) rotate(45 -1582.776 4360.055)"/><path d="M81.512 3658.086h73.768v3.461H81.512z" style="fill:#767676;fill-opacity:1;stroke:#3e3e3e;stroke-width:1.79981;stroke-linecap:round;stroke-linejoin:miter;stroke-dasharray:none;stroke-opacity:1;stop-color:#000" transform="matrix(.48611 .50239 -.48611 .50239 1800.778 -1702.472)"/></g><path d="M-2185.733-2299.57h59.294v3.756h-59.294z" style="fill:#767676;fill-opacity:1;stroke:#3e3e3e;stroke-width:1.9856;stroke-linecap:round;stroke-linejoin:miter;stroke-dasharray:none;stroke-opacity:1;stop-color:#000" transform="matrix(0 -.63349 -.63349 0 -1358.75 -1170.325)"/><path d="M-2185.733 2240.349h59.294v3.756h-59.294z" style="fill:#767676;fill-opacity:1;stroke:#3e3e3e;stroke-width:1.9856;stroke-linecap:round;stroke-linejoin:miter;stroke-dasharray:none;stroke-opacity:1;stop-color:#000" transform="matrix(0 -.63349 .63349 0 -1358.75 -1170.325)"/><path d="M2240.311 2126.473h59.294v3.756h-59.294z" style="fill:#767676;fill-opacity:1;stroke:#3e3e3e;stroke-width:1.9856;stroke-linecap:round;stroke-linejoin:miter;stroke-dasharray:none;stroke-opacity:1;stop-color:#000" transform="matrix(.63349 0 0 .63349 -1358.75 -1170.325)"/><path d="M-2185.733 2184.895h59.294v3.756h-59.294z" style="fill:#767676;fill-opacity:1;stroke:#3e3e3e;stroke-width:1.9856;stroke-linecap:round;stroke-linejoin:miter;stroke-dasharray:none;stroke-opacity:1;stop-color:#000" transform="matrix(0 -.63349 .63349 0 -1358.75 -1170.325)"/><path d="M2184.857 2126.473h59.294v3.756h-59.294z" style="fill:#767676;fill-opacity:1;stroke:#3e3e3e;stroke-width:1.9856;stroke-linecap:round;stroke-linejoin:miter;stroke-dasharray:none;stroke-opacity:1;stop-color:#000" transform="matrix(.63349 0 0 .63349 -1358.75 -1170.325)"/></g><g style="opacity:1"><path d="M18.242-55.09v24.57h121.79v-24.57zm3.5 3.5h114.79v17.57H21.741Z" style="baseline-shift:baseline;display:inline;overflow:visible;vector-effect:none;fill:#404040;paint-order:stroke fill markers;enable-background:accumulate;stop-color:#000;stop-opacity:1" transform="translate(111.39 103.981)"/><path d="M19.993-53.34h118.289v21.07H19.992Z" style="baseline-shift:baseline;display:inline;overflow:visible;vector-effect:none;fill:#878787;paint-order:stroke fill markers;enable-background:accumulate;stop-color:#000;stop-opacity:1" transform="translate(111.39 103.981)"/></g><g style="opacity:1"><path d="M18.37-32.152v24.568h121.788v-24.568Zm3.5 3.5h114.788v17.568H21.87Z" style="baseline-shift:baseline;display:inline;overflow:visible;vector-effect:none;fill:#404040;paint-order:stroke fill markers;enable-background:accumulate;stop-color:#000;stop-opacity:1" transform="translate(111.39 103.981)"/><path d="M20.118-30.403h118.29v21.07H20.117Z" style="baseline-shift:baseline;display:inline;overflow:visible;vector-effect:none;fill:#939393;paint-order:stroke fill markers;enable-background:accumulate;stop-color:#000;stop-opacity:1" transform="translate(111.39 103.981)"/></g><g style="opacity:1"><path d="M97.266-9.248V15.32h42.892V-9.248Zm3.5 3.5h35.892V11.82h-35.892z" style="baseline-shift:baseline;display:inline;overflow:visible;vector-effect:none;fill:#404040;paint-order:stroke fill markers;enable-background:accumulate;stop-color:#000;stop-opacity:1" transform="translate(111.39 103.981)"/><path d="M99.015-7.498h39.392V13.57H99.015Z" style="baseline-shift:baseline;display:inline;overflow:visible;vector-effect:none;fill:#878787;paint-order:stroke fill markers;enable-background:accumulate;stop-color:#000;stop-opacity:1" transform="translate(111.39 103.981)"/></g><g style="opacity:1"><path d="M18.37-9.264v24.569h42.89V-9.264Zm3.5 3.5h35.89v17.569H21.87Z" style="baseline-shift:baseline;display:inline;overflow:visible;vector-effect:none;fill:#404040;paint-order:stroke fill markers;enable-background:accumulate;stop-color:#000;stop-opacity:1" transform="translate(111.39 103.981)"/><path d="M20.118-7.515H59.51v21.07H20.118Z" style="baseline-shift:baseline;display:inline;overflow:visible;vector-effect:none;fill:#878787;paint-order:stroke fill markers;enable-background:accumulate;stop-color:#000;stop-opacity:1" transform="translate(111.39 103.981)"/></g><g style="opacity:1"><path d="M18.242 13.662V38.23h121.79V13.662zm3.5 3.5h114.79V34.73H21.741Z" style="baseline-shift:baseline;display:inline;overflow:visible;vector-effect:none;fill:#404040;paint-order:stroke fill markers;enable-background:accumulate;stop-color:#000;stop-opacity:1" transform="translate(111.39 103.981)"/><path d="M19.993 15.412h118.289V36.48H19.992Z" style="baseline-shift:baseline;display:inline;overflow:visible;vector-effect:none;fill:#939393;paint-order:stroke fill markers;enable-background:accumulate;stop-color:#000;stop-opacity:1" transform="translate(111.39 103.981)"/></g><g style="opacity:1"><path d="M18.37 36.568v24.569h121.788V36.568zm3.5 3.5h114.788v17.569H21.87Z" style="baseline-shift:baseline;display:inline;overflow:visible;vector-effect:none;fill:#404040;paint-order:stroke fill markers;enable-background:accumulate;stop-color:#000;stop-opacity:1" transform="translate(111.39 103.981)"/><path d="M20.118 38.318h118.29v21.07H20.117Z" style="baseline-shift:baseline;display:inline;overflow:visible;vector-effect:none;fill:#878787;paint-order:stroke fill markers;enable-background:accumulate;stop-color:#000;stop-opacity:1" transform="translate(111.39 103.981)"/></g><g style="opacity:1"><path d="M79.137 59.473V84.04h61.021V59.473zm3.5 3.5h54.021V80.54H82.637Z" style="baseline-shift:baseline;display:inline;overflow:visible;vector-effect:none;fill:#404040;paint-order:stroke fill markers;enable-background:accumulate;stop-color:#000;stop-opacity:1" transform="translate(111.39 103.981)"/><path d="M80.887 61.223h57.52v21.069h-57.52Z" style="baseline-shift:baseline;display:inline;overflow:visible;vector-effect:none;fill:#939393;paint-order:stroke fill markers;enable-background:accumulate;stop-color:#000;stop-opacity:1" transform="translate(111.39 103.981)"/></g><g style="opacity:1"><path d="M62.67 82.383v24.568h77.408V82.383Zm3.5 3.5h70.408v17.568H66.17Z" style="baseline-shift:baseline;display:inline;overflow:visible;vector-effect:none;fill:#404040;paint-order:stroke fill markers;enable-background:accumulate;stop-color:#000;stop-opacity:1" transform="translate(111.39 103.981)"/><path d="M64.42 84.132h73.909v21.07H64.42Z" style="baseline-shift:baseline;display:inline;overflow:visible;vector-effect:none;fill:#878787;paint-order:stroke fill markers;enable-background:accumulate;stop-color:#000;stop-opacity:1" transform="translate(111.39 103.981)"/></g><g style="opacity:1"><path d="M18.242 105.277v24.57h121.79v-24.57zm3.5 3.5h114.79v17.57H21.741Z" style="baseline-shift:baseline;display:inline;overflow:visible;vector-effect:none;fill:#404040;paint-order:stroke fill markers;enable-background:accumulate;stop-color:#000;stop-opacity:1" transform="translate(111.39 103.981)"/><path d="M19.993 107.028h118.289v21.069H19.992Z" style="baseline-shift:baseline;display:inline;overflow:visible;vector-effect:none;fill:#939393;paint-order:stroke fill markers;enable-background:accumulate;stop-color:#000;stop-opacity:1" transform="translate(111.39 103.981)"/></g><g style="opacity:1"><path d="M18.242 128.182v24.57h121.79v-24.57zm3.5 3.5h114.79v17.57H21.741Z" style="baseline-shift:baseline;display:inline;overflow:visible;vector-effect:none;fill:#404040;paint-order:stroke fill markers;enable-background:accumulate;stop-color:#000;stop-opacity:1" transform="translate(111.39 103.981)"/><path d="M19.993 129.932h118.289v21.07H19.992Z" style="baseline-shift:baseline;display:inline;overflow:visible;vector-effect:none;fill:#878787;paint-order:stroke fill markers;enable-background:accumulate;stop-color:#000;stop-opacity:1" transform="translate(111.39 103.981)"/></g><g style="opacity:1"><path d="M-111.264-100.904v24.57h121.79v-24.57Zm3.5 3.5H7.026v17.57h-114.79Z" style="baseline-shift:baseline;display:inline;overflow:visible;vector-effect:none;fill:#404040;paint-order:stroke fill markers;enable-background:accumulate;stop-color:#000;stop-opacity:1" transform="translate(111.39 103.981)"/><path d="M-109.514-99.154H8.775v21.07h-118.29Z" style="baseline-shift:baseline;display:inline;overflow:visible;vector-effect:none;fill:#878787;paint-order:stroke fill markers;enable-background:accumulate;stop-color:#000;stop-opacity:1" transform="translate(111.39 103.981)"/></g><g style="opacity:1"><path d="M-111.264-78v24.57h121.79V-78Zm3.5 3.5H7.026v17.57h-114.79Z" style="baseline-shift:baseline;display:inline;overflow:visible;vector-effect:none;fill:#404040;paint-order:stroke fill markers;enable-background:accumulate;stop-color:#000;stop-opacity:1" transform="translate(111.39 103.981)"/><path d="M-109.514-76.25H8.775v21.07h-118.29Z" style="baseline-shift:baseline;display:inline;overflow:visible;vector-effect:none;fill:#939393;paint-order:stroke fill markers;enable-background:accumulate;stop-color:#000;stop-opacity:1" transform="translate(111.39 103.981)"/></g><g style="opacity:1"><path d="M-111.39-55.09v24.57H10.397v-24.57zm3.5 3.5H6.897v17.57H-107.89Z" style="baseline-shift:baseline;display:inline;overflow:visible;vector-effect:none;fill:#404040;paint-order:stroke fill markers;enable-background:accumulate;stop-color:#000;stop-opacity:1" transform="translate(111.39 103.981)"/><path d="M-109.64-53.34H8.65v21.07h-118.29Z" style="baseline-shift:baseline;display:inline;overflow:visible;vector-effect:none;fill:#878787;paint-order:stroke fill markers;enable-background:accumulate;stop-color:#000;stop-opacity:1" transform="translate(111.39 103.981)"/></g><g style="opacity:1"><path d="M-111.264-32.152v24.568h92.07v-24.568Zm3.5 3.5h85.07v17.568h-85.07z" style="baseline-shift:baseline;display:inline;overflow:visible;vector-effect:none;fill:#404040;paint-order:stroke fill markers;enable-background:accumulate;stop-color:#000;stop-opacity:1" transform="translate(111.39 103.981)"/><path d="M-109.514-30.403h88.571v21.07h-88.571z" style="baseline-shift:baseline;display:inline;overflow:visible;vector-effect:none;fill:#939393;paint-order:stroke fill markers;enable-background:accumulate;stop-color:#000;stop-opacity:1" transform="translate(111.39 103.981)"/></g><g style="opacity:1"><path d="M-111.264-9.248V15.32h76.207V-9.248Zm3.5 3.5h69.207V11.82h-69.207z" style="baseline-shift:baseline;display:inline;overflow:visible;vector-effect:none;fill:#404040;paint-order:stroke fill markers;enable-background:accumulate;stop-color:#000;stop-opacity:1" transform="translate(111.39 103.981)"/><path d="M-109.514-7.498h72.708V13.57h-72.708z" style="baseline-shift:baseline;display:inline;overflow:visible;vector-effect:none;fill:#878787;paint-order:stroke fill markers;enable-background:accumulate;stop-color:#000;stop-opacity:1" transform="translate(111.39 103.981)"/></g><g style="opacity:1"><path d="M-111.39 13.662V38.23H10.397V13.662zm3.5 3.5H6.897V34.73H-107.89Z" style="baseline-shift:baseline;display:inline;overflow:visible;vector-effect:none;fill:#404040;paint-order:stroke fill markers;enable-background:accumulate;stop-color:#000;stop-opacity:1" transform="translate(111.39 103.981)"/><path d="M-109.64 15.412H8.65V36.48h-118.29Z" style="baseline-shift:baseline;display:inline;overflow:visible;vector-effect:none;fill:#939393;paint-order:stroke fill markers;enable-background:accumulate;stop-color:#000;stop-opacity:1" transform="translate(111.39 103.981)"/></g><g style="opacity:1"><path d="M-111.264 36.568v24.569h121.79V36.568zm3.5 3.5H7.026v17.569h-114.79Z" style="baseline-shift:baseline;display:inline;overflow:visible;vector-effect:none;fill:#404040;paint-order:stroke fill markers;enable-background:accumulate;stop-color:#000;stop-opacity:1" transform="translate(111.39 103.981)"/><path d="M-109.514 38.318H8.775v21.07h-118.29Z" style="baseline-shift:baseline;display:inline;overflow:visible;vector-effect:none;fill:#878787;paint-order:stroke fill markers;enable-background:accumulate;stop-color:#000;stop-opacity:1" transform="translate(111.39 103.981)"/></g><g style="opacity:1"><path d="M-111.264 59.473V84.04h121.79V59.473zm3.5 3.5H7.026V80.54h-114.79Z" style="baseline-shift:baseline;display:inline;overflow:visible;vector-effect:none;fill:#404040;paint-order:stroke fill markers;enable-background:accumulate;stop-color:#000;stop-opacity:1" transform="translate(111.39 103.981)"/><path d="M-109.514 61.223H8.775v21.069h-118.29Z" style="baseline-shift:baseline;display:inline;overflow:visible;vector-effect:none;fill:#939393;paint-order:stroke fill markers;enable-background:accumulate;stop-color:#000;stop-opacity:1" transform="translate(111.39 103.981)"/></g><g style="opacity:1"><path d="M-111.39 82.383v24.568H10.397V82.383Zm3.5 3.5H6.897v17.568H-107.89Z" style="baseline-shift:baseline;display:inline;overflow:visible;vector-effect:none;fill:#404040;paint-order:stroke fill markers;enable-background:accumulate;stop-color:#000;stop-opacity:1" transform="translate(111.39 103.981)"/><path d="M-109.64 84.132H8.65v21.07h-118.29Z" style="baseline-shift:baseline;display:inline;overflow:visible;vector-effect:none;fill:#878787;paint-order:stroke fill markers;enable-background:accumulate;stop-color:#000;stop-opacity:1" transform="translate(111.39 103.981)"/></g><g style="opacity:1"><path d="M-111.39 105.277v24.57h39.628v-24.57zm3.5 3.5h32.628v17.57h-32.629z" style="baseline-shift:baseline;display:inline;overflow:visible;vector-effect:none;fill:#404040;paint-order:stroke fill markers;enable-background:accumulate;stop-color:#000;stop-opacity:1" transform="translate(111.39 103.981)"/><path d="M-109.64 107.028h36.13v21.069h-36.13z" style="baseline-shift:baseline;display:inline;overflow:visible;vector-effect:none;fill:#939393;paint-order:stroke fill markers;enable-background:accumulate;stop-color:#000;stop-opacity:1" transform="translate(111.39 103.981)"/></g><g style="opacity:1"><path d="M-111.39 128.182v24.57H10.397v-24.57zm3.5 3.5H6.897v17.57H-107.89Z" style="baseline-shift:baseline;display:inline;overflow:visible;vector-effect:none;fill:#404040;paint-order:stroke fill markers;enable-background:accumulate;stop-color:#000;stop-opacity:1" transform="translate(111.39 103.981)"/><path d="M-109.64 129.932H8.65v21.07h-118.29Z" style="baseline-shift:baseline;display:inline;overflow:visible;vector-effect:none;fill:#878787;paint-order:stroke fill markers;enable-background:accumulate;stop-color:#000;stop-opacity:1" transform="translate(111.39 103.981)"/></g><g style="opacity:1"><path d="M-30.725 105.297v24.697H11.75v-24.697zm3.63 3.629H8.118v17.44h-35.215Z" style="baseline-shift:baseline;display:inline;overflow:visible;vector-effect:none;fill:#404040;paint-order:stroke fill markers;enable-background:accumulate;stop-color:#000;stop-opacity:1" transform="translate(111.39 103.981)"/><path d="M-28.91 107.111H9.934v21.07h-38.846Z" style="baseline-shift:baseline;display:inline;overflow:visible;vector-effect:none;fill:#939393;paint-order:stroke fill markers;enable-background:accumulate;stop-color:#000;stop-opacity:1" transform="translate(111.39 103.981)"/></g><path d="M74.507-39.262c-6.585-2.164-18.819-2.84-19.13-10.065-.235-5.498 2.06-9.53-1.267-14.123-4.611-6.368 5.032-3.863 8.4-2.565 5.047 1.946 9.086 5.48 13.037 9.002 3.437 3.063 8.135 9.792 13.04 5.663 4.332-3.645 11.585-2.609 10.87 4.332-.71 6.89-7.307 10.656-13.013 6.98-4.69-3.023-7.877 2.11-11.937.775" style="fill:#595959;fill-opacity:.878235;stroke:none;stroke-width:1.27949;stroke-linecap:square;stroke-linejoin:round;stroke-dasharray:none;stroke-opacity:1;paint-order:fill markers stroke;stop-color:#000" transform="translate(111.39 103.981)"/><path d="M-52.45 50.573c-.318 4.413-3.713 8.612-7.898 10.788-2.756 1.433-6.233 1.326-8.804-.543-3.353-2.437-6.277-5.553-8.242-9.197-1.163-2.156-.25-4.619-.779-6.92-.579-2.523-.97-5.893 1.368-7.654 1.865-1.404 4.265-.327 6.298.063 2.304.441 3.906 2.572 4.348 5.081.33 1.871 1.877 3.348 3.136 4.763 1.228 1.381 3.072 2.072 4.7 2.932 1.77.934 6.02-1.362 5.872.687z" style="fill:#595959;fill-opacity:.882234;stroke:none;stroke-width:1.59286;stroke-linecap:square;stroke-linejoin:round;stroke-dasharray:none;stroke-opacity:1;paint-order:fill markers stroke;stop-color:#000" transform="translate(111.39 103.981)"/><path d="m-52.315 71.831 3.872 1.203 4.914-3.505 1.397 4.515-1.912-2.68-3.488 2.448-2.904 5.045 1.188-4.06-3.454-1.897-2.496.67 2.21-5.462-.828 3.842z" style="display:inline;fill:#595959;fill-opacity:1;stroke:none;stroke-width:.759295;stroke-linecap:round;stroke-linejoin:round;stroke-miterlimit:29;stroke-dasharray:none;stroke-opacity:1" transform="translate(111.39 103.981)"/><path d="m79.104 30.265 6.465 3.331-5.3-5.852.397-4.884-2.023 3.74-3.417-1.187 2.334 3.16z" style="display:inline;fill:#595959;fill-opacity:1;stroke:none;stroke-width:1.32292;stroke-linecap:round;stroke-linejoin:round;stroke-miterlimit:29;stroke-dasharray:none;stroke-opacity:1" transform="translate(111.39 103.981)"/><path d="m-60.575-65.119 14.386-5.68-11.85 5.843.93.65-7.482 3.245 3.54-2.416-3.309.725z" style="display:inline;fill:#595959;fill-opacity:1;stroke:none;stroke-width:1.06416;stroke-linecap:round;stroke-linejoin:round;stroke-miterlimit:29;stroke-dasharray:none;stroke-opacity:1" transform="translate(111.39 103.981)"/><path d="M82.568 134.16c3.765-4.683-8.237-17.065.505-19.108 6.44-1.504 12.088-4.399 12.56-11.616.393-5.994 6.024-10.38 12.303-10.4 7.16-.022 7.949 7.66 12.093 11.71 6.066 5.93 2.944 12.705-3.29 14.72-7.195 2.325-3.852 14.374-8.87 14.465-4.55.083-11.444-9.475-13.635-2.587-1.899 5.969-15.653 9.114-12.663 4.212 0 0 .25-.441.395-.649.184-.261.602-.747.602-.747" style="fill:#595959;fill-opacity:.878418;stroke:none;stroke-width:.813795;stroke-linecap:square;stroke-linejoin:round;stroke-dasharray:none;stroke-opacity:1;paint-order:fill markers stroke;stop-color:#000" transform="translate(111.39 103.981)"/><path d="M-109.639-99.154H8.776v250.156h-118.415z" style="fill:#000;fill-opacity:.0740741;stroke:none;stroke-width:3.5;stroke-linecap:butt;stroke-linejoin:miter;stroke-dasharray:none;stroke-opacity:1;paint-order:stroke fill markers" transform="translate(111.39 103.981)"/><g style="opacity:1"><path d="M188.233-61.425v259.261h11.37V-61.425Zm3.534 3.53h4.302v252.198h-4.302z" style="baseline-shift:baseline;display:inline;overflow:visible;vector-effect:none;fill:#404040;stroke-linecap:round;paint-order:stroke fill markers;enable-background:accumulate;stop-color:#000;stop-opacity:1" transform="translate(-68.144 61.426)"/><path d="M190-59.66h7.836v255.73H190z" style="baseline-shift:baseline;display:inline;overflow:visible;vector-effect:none;fill:url(#b);fill-opacity:1;stroke-linecap:round;paint-order:stroke fill markers;enable-background:accumulate;stop-color:#000;stop-opacity:1" transform="translate(-68.144 61.426)"/></g></svg>