<svg xmlns="http://www.w3.org/2000/svg" xmlns:xlink="http://www.w3.org/1999/xlink" xml:space="preserve" width="911.13" height="1431.216" viewBox="0 0 241.07 378.676"><defs><pattern xlink:href="#a" id="c" x="0" y="0" patternTransform="translate(1981.054 3703.027)scale(.29728)" preserveAspectRatio="xMidYMid"/><pattern id="a" width="106.48" height="106.48" patternTransform="translate(2077.082 3716.393)" patternUnits="userSpaceOnUse" preserveAspectRatio="xMidYMid"><path d="M0 0h106.48v106.48H0z" style="fill:#5e5e5e;fill-opacity:1;stroke-width:1.99937;stroke-linecap:round;stroke-linejoin:round"/><path d="M0 0v106.48h5.66V5.66h100.82V0Z" style="fill:#4d4d4d;fill-opacity:1;stroke:none;stroke-width:1.99937;stroke-linecap:round;stroke-linejoin:round"/></pattern></defs><g transform="translate(-.422 -.754)"><g transform="translate(21.669 52.967)"><path d="M-18.819-52.047c-1.108 0-2 .892-2 2v374.383c0 1.108.892 2 2 2H218.16c1.108 0-.117-2-.117-2V233.77h152.933V40.48H218.043v-90.527c0-1.108 1.225-2 .117-2z" style="fill:url(#c);fill-opacity:1;fill-rule:evenodd;stroke:none;stroke-width:.524372;stroke-linecap:round;stroke-linejoin:round;stroke-miterlimit:29"/><circle cx="98.499" cy="142.74" r="47.384" style="fill:#5e5e5e;fill-opacity:1;fill-rule:evenodd;stroke:#4d4d4d;stroke-width:2.12237;stroke-linecap:round;stroke-linejoin:round;stroke-miterlimit:29;stroke-dasharray:none;stroke-opacity:1"/><g transform="matrix(1.08868 0 0 1.08238 -143.553 94.38)"><circle cx="222.432" cy="44.582" r="43.417" style="fill:#5e5e5e;fill-opacity:1;fill-rule:evenodd;stroke:#4d4d4d;stroke-width:2.11667;stroke-linecap:round;stroke-linejoin:round;stroke-miterlimit:29;stroke-dasharray:none;stroke-opacity:1"/><path d="m229.005 73.205 9.686-10.326 9.125-1.541c0-29.634-25.855-30.238-25.855-30.238-28.453 0-25.772 32.25-25.772 32.25l9.522 3.45 7.524 5.764" style="fill:#5e5e5e;fill-opacity:1;fill-rule:evenodd;stroke:#4d4d4d;stroke-width:2.11667;stroke-linecap:round;stroke-linejoin:round;stroke-miterlimit:29;stroke-dasharray:none;stroke-opacity:1"/><path d="M213.446 72.784c-1.698-1.472-11.211-9-17.276-9.75 0 0 7.981-6.426 15.283-1.785.99.481 2.477 4.743 1.119 8.931-.368 1.02-.476 4.807 8.503 2.4 0 0 8.83 3.36 9.283-1.507.085-1.387-2.107-10.163 4.868-11.07 6.538-.848 12.679 1.367 12.679 1.367-7.1 1.12-13.758 7.943-18.651 11.58" style="fill:#5e5e5e;fill-opacity:1;fill-rule:evenodd;stroke:#4d4d4d;stroke-width:2.11667;stroke-linecap:round;stroke-linejoin:round;stroke-miterlimit:29;stroke-dasharray:none;stroke-opacity:1"/><path d="M219.273 71.777c-.028-.368 1.141-1.768.51-2.575-.425-.142-1.048-.198-.935 1.075 0 0-2.32-.255-1.301-2.632s3.792-2.207 3.792-2.207 4.033.17 4.033 3.467c0 0-1.177 1.741-1.769.495-.538-1.132-1.33-.17-1.33-.17s-.347.813.99 2.15c-.141.284-1.67 1.473-3.99.397M210.409 47.845a4.88 4.88 0 0 0 .07 6.82 4.88 4.88 0 0 0 6.82.07zM232.853 47.845a4.88 4.88 0 0 1-.07 6.82 4.88 4.88 0 0 1-6.82.07zM244.89 45.265c8.874-13.997 4.313-28.934 1.351-28.854-16.331 12.685-17.89 15.55-17.89 15.55s12.596 4.065 16.54 13.304M215.387 31.652s-.198-4.645-17.65-16.77c-3.043-.32-5.89 18.07 1.063 30.066 0 0 8.638-10.963 16.587-13.296" style="fill:#5e5e5e;fill-opacity:1;fill-rule:evenodd;stroke:#4d4d4d;stroke-width:2.11667;stroke-linecap:round;stroke-linejoin:round;stroke-miterlimit:29;stroke-dasharray:none;stroke-opacity:1"/><path d="M203.624 39.347s-5.104-9.493-3.983-16.297c0 0 6.757 7.699 8.518 12.181 0 0-2.694 2.195-4.535 4.116M240.697 39.355s5.937-9.78 4.816-16.584c0 0-7.85 8.378-9.611 12.86 0 0 2.954 1.803 4.795 3.724" style="fill:#5e5e5e;fill-opacity:1;fill-rule:evenodd;stroke:#4d4d4d;stroke-width:2.11667;stroke-linecap:round;stroke-linejoin:round;stroke-miterlimit:29;stroke-dasharray:none;stroke-opacity:1"/><path d="m219.949 47.726 1.68 4.737 1.684-4.862" style="fill:none;fill-opacity:1;fill-rule:evenodd;stroke:#4d4d4d;stroke-width:2.11667;stroke-linecap:round;stroke-linejoin:round;stroke-miterlimit:29;stroke-dasharray:none;stroke-opacity:1"/><g style="stroke-width:2.11667;stroke-dasharray:none"><path d="M219.731 48.83s-2.401-3.923-10.006-3.283M219.171 50.59s-4.803-1.12-9.606-.56M219.011 52.431s-6.804.56-9.926 2.802" style="fill:none;fill-opacity:1;fill-rule:evenodd;stroke:#4d4d4d;stroke-width:2.11667;stroke-linecap:round;stroke-linejoin:round;stroke-miterlimit:29;stroke-dasharray:none;stroke-opacity:1" transform="translate(-4.655 17.892)"/></g><g style="stroke-width:2.11667;stroke-dasharray:none"><path d="M219.731 48.83s-2.401-3.923-10.006-3.283M219.171 50.59s-4.803-1.12-9.606-.56M219.011 52.431s-6.804.56-9.926 2.802" style="fill:none;fill-opacity:1;fill-rule:evenodd;stroke:#4d4d4d;stroke-width:2.11667;stroke-linecap:round;stroke-linejoin:round;stroke-miterlimit:29;stroke-dasharray:none;stroke-opacity:1" transform="matrix(-1 0 0 1 446.958 17.892)"/></g><path d="M215.89 73.884c1.61 3.579 6.97 5.294 10.325 0" style="fill:none;stroke:#4d4d4d;stroke-width:2.11667;stroke-linecap:round;stroke-linejoin:round;stroke-miterlimit:10.8;stroke-dasharray:none;stroke-opacity:1;paint-order:fill markers stroke"/></g></g><path d="M210.939 225.32h160.287v8.798H210.939z" style="fill:#14141f;fill-rule:evenodd;stroke:none;stroke-width:1.78548;stroke-linecap:round;stroke-linejoin:round;stroke-miterlimit:29" transform="translate(21.718 52.967)"/><path d="M-52.213-220.075h169.267v8.798H-52.213z" style="fill:#14141f;fill-rule:evenodd;stroke:none;stroke-width:1.83482;stroke-linecap:round;stroke-linejoin:round;stroke-miterlimit:29" transform="rotate(90 -15.625 37.343)"/><path d="M-219.737 43.415H21.296v8.798h-241.033z" style="fill:#14141f;fill-rule:evenodd;stroke:none;stroke-width:2.1895;stroke-linecap:round;stroke-linejoin:round;stroke-miterlimit:29" transform="rotate(180 10.86 26.484)"/><path d="M-326.463-21.296H52.213v8.798h-378.676z" style="fill:#14141f;fill-rule:evenodd;stroke:none;stroke-width:2.74436;stroke-linecap:round;stroke-linejoin:round;stroke-miterlimit:29" transform="rotate(-90 37.343 15.625)"/><path d="M-21.296 317.665h241.033v8.779H-21.296z" style="fill:#14141f;fill-rule:evenodd;stroke:none;stroke-width:2.19029;stroke-linecap:round;stroke-linejoin:round;stroke-miterlimit:29" transform="translate(21.718 52.967)"/><path d="M173.191-219.737h153.074v8.798H173.191z" style="fill:#14141f;fill-rule:evenodd;stroke:none;stroke-width:1.74485;stroke-linecap:round;stroke-linejoin:round;stroke-miterlimit:29" transform="rotate(90 -15.625 37.343)"/><path d="M211.277 40.131h159.949v8.798H211.277z" style="fill:#14141f;fill-rule:evenodd;stroke:none;stroke-width:1.78359;stroke-linecap:round;stroke-linejoin:round;stroke-miterlimit:29" transform="translate(21.718 52.967)"/><path d="M40.131-371.226h193.987v8.639H40.131z" style="fill:#14141f;fill-rule:evenodd;stroke:none;stroke-width:1.94639;stroke-linecap:round;stroke-linejoin:round;stroke-miterlimit:29" transform="rotate(90 -15.625 37.343)"/><rect width="155.947" height="4.785" x="234.614" y="280.294" rx="1.998" ry="2" style="fill:#262626;fill-opacity:1;fill-rule:evenodd;stroke:none;stroke-width:1.29881;stroke-linecap:round;stroke-linejoin:round;stroke-miterlimit:29"/><rect width="155.977" height="4.785" x="234.952" y="95.105" rx="1.995" ry="2" style="fill:#262626;fill-opacity:1;fill-rule:evenodd;stroke:none;stroke-width:1.29893;stroke-linecap:round;stroke-linejoin:round;stroke-miterlimit:29"/><path d="M-167.208 234.952H-2.761v4.785h-164.447z" style="fill:#262626;fill-opacity:1;fill-rule:evenodd;stroke:none;stroke-width:1.33373;stroke-linecap:round;stroke-linejoin:round;stroke-miterlimit:29" transform="rotate(-90)"/><path d="M-377.424 234.614h148.434v4.785h-148.434z" style="fill:#262626;fill-opacity:1;fill-rule:evenodd;stroke:none;stroke-width:1.2693;stroke-linecap:round;stroke-linejoin:round;stroke-miterlimit:29" transform="rotate(-90)"/><path d="M95.105-390.967h189.974v4.785H95.105z" style="fill:#262626;fill-opacity:1;fill-rule:evenodd;stroke:none;stroke-width:1.43353;stroke-linecap:round;stroke-linejoin:round;stroke-miterlimit:29;stroke-dasharray:none" transform="rotate(90)"/><path d="M-377.424 2.364H-2.781v4.8h-374.643z" style="fill:#262626;fill-opacity:1;fill-rule:evenodd;stroke:none;stroke-width:2.0099;stroke-linecap:round;stroke-linejoin:round;stroke-miterlimit:29" transform="rotate(-90)"/><rect width="237.04" height="4.785" x="2.367" y="372.639" rx="2.648" ry="2.392" style="fill:#262626;fill-opacity:1;fill-rule:evenodd;stroke:none;stroke-width:1.62745;stroke-linecap:round;stroke-linejoin:round;stroke-miterlimit:29;stroke-dasharray:none"/><rect width="236.861" height="4.785" x="2.458" y="2.761" rx="2.646" ry="2.392" style="fill:#262626;fill-opacity:1;fill-rule:evenodd;stroke:none;stroke-width:1.62675;stroke-linecap:round;stroke-linejoin:round;stroke-miterlimit:29"/><rect width="8.192" height="52.304" x="232.91" y="-278.462" rx=".242" ry=".057" style="opacity:.2;fill:#000;fill-opacity:1;stroke:none;stroke-width:1.03988;stroke-linecap:round;stroke-linejoin:round;stroke-dasharray:none;stroke-opacity:1;stop-color:#000" transform="scale(1 -1)"/><path d="M8.886-148.321h65.115v8.798H8.886zM8.886-99.826h65.115v8.798H8.886z" style="fill:#14141f;fill-rule:evenodd;stroke:none;stroke-width:1.13801;stroke-linecap:round;stroke-linejoin:round;stroke-miterlimit:29" transform="matrix(0 -1 -1 0 1.683 380.055)"/><g stroke="#4d4d4d" stroke-linecap="square" stroke-width="1.666"><path fill="#878787" d="M-1614.092 1020.517h-13.862V962.75h13.862z" style="fill:#525252;fill-opacity:1;stroke:#262626;stroke-width:2.00001;stroke-dasharray:none;stroke-opacity:1" transform="matrix(0 .66422 .66422 0 -537.3 1432.858)"/><path fill="#828282" d="M-1627.827 1020.517h-13.861V962.75h13.86z" style="fill:#4a4a4a;fill-opacity:1;stroke:#262626;stroke-width:2.00001;stroke-dasharray:none;stroke-opacity:1" transform="matrix(0 .66422 .66422 0 -537.3 1432.858)"/><path fill="#7d7d7d" d="M-1641.562 1020.517h-13.861v-57.766h13.861z" style="fill:#424242;fill-opacity:1;stroke:#262626;stroke-width:2.00001;stroke-dasharray:none;stroke-opacity:1" transform="matrix(0 .66422 .66422 0 -537.3 1432.858)"/><path fill="#787878" d="M-1655.484 1020.517h-13.862V962.75h13.862z" style="fill:#3b3b3b;fill-opacity:1;stroke:#262626;stroke-width:2.00001;stroke-dasharray:none;stroke-opacity:1" transform="matrix(0 .66422 .66422 0 -537.3 1432.858)"/><path fill="#737373" d="M-1669.407 1020.517h-13.861V962.75h13.861z" style="fill:#333;fill-opacity:1;stroke:#262626;stroke-width:2.00001;stroke-dasharray:none;stroke-opacity:1" transform="matrix(0 .66422 .66422 0 -537.3 1432.858)"/><path fill="#878787" d="M-1600.216 1020.517h-13.861V962.75h13.861z" style="fill:#595959;fill-opacity:1;stroke:#262626;stroke-width:2.00001;stroke-dasharray:none;stroke-opacity:1" transform="matrix(0 .66422 .66422 0 -537.3 1432.858)"/></g><path d="M-72.179 141.53h68.876v4.785h-68.876zM-72.179 93.034h68.876v4.785h-68.876z" style="fill:#262626;fill-opacity:1;fill-rule:evenodd;stroke:none;stroke-width:.877223;stroke-linecap:round;stroke-linejoin:round;stroke-miterlimit:29" transform="matrix(0 1 1 0 1.683 380.055)"/><path d="M174.509 281.529s-13.012-37.474-5.725-37.995c7.286-.52 9.368-12.49 18.737 1.041 9.368 13.533 17.696 4.685 24.462 13.012s1.561 22.38-6.246 21.34c-7.807-1.041-17.696-8.328-17.175 5.204.52 13.533-19.258 14.574-14.053-2.602M48.938 109.408s-15.614 9.889 0 23.42c15.614 13.533 2.602 26.545 11.45 26.545 3.79 0-2.602-9.889 4.684-28.106 7.287-18.216-9.368-.52-9.889-25.503-.52-24.982-8.848-23.421-6.245 3.644" style="fill:#333;fill-opacity:.6;fill-rule:evenodd;stroke:none;stroke-width:.529167;stroke-linecap:round;stroke-linejoin:round;stroke-miterlimit:29"/><path d="M74.829 149.19c-.64 0-1.156.516-1.156 1.156v12.54c0 .641.515 1.157 1.156 1.157h12.54c.64 0 1.156-.516 1.156-1.156v-12.54c0-.641-.516-1.157-1.156-1.157zm78.242.177c-.64 0-1.156.516-1.156 1.156v12.54c0 .64.515 1.157 1.156 1.157h12.54c.64 0 1.156-.516 1.156-1.157v-12.54c0-.64-.515-1.156-1.156-1.156zm-78.386 77.83c-.64 0-1.156.515-1.156 1.155v12.54c0 .64.515 1.156 1.156 1.156h12.54c.64 0 1.156-.515 1.156-1.156v-12.54c0-.64-.515-1.156-1.156-1.156zm78.425.174c-.64 0-1.155.516-1.155 1.157v12.54c0 .64.515 1.156 1.155 1.156h12.54c.641 0 1.157-.516 1.157-1.156v-12.54c0-.64-.516-1.157-1.156-1.157z" style="fill:#333;fill-opacity:1;stroke:#171717;stroke-width:1.88982;stroke-linecap:round;stroke-dasharray:none;stroke-opacity:1;paint-order:fill markers stroke;stop-color:#000"/><circle cx="356.202" cy="218.567" r="4.469" fill="none" style="fill:#6e460b;fill-opacity:0;stroke:#31220c;stroke-width:0;stroke-dasharray:none;stroke-opacity:1;paint-order:fill markers stroke"/><path d="M8.886-148.321h65.115v8.798H8.886zM8.886-99.826h65.115v8.798H8.886z" style="fill:#14141f;fill-rule:evenodd;stroke:none;stroke-width:1.13801;stroke-linecap:round;stroke-linejoin:round;stroke-miterlimit:29" transform="rotate(90)"/><g stroke="#4d4d4d" stroke-linecap="square" stroke-width="1.666"><path fill="#878787" d="M-1614.092 1020.517h-13.862V962.75h13.862z" style="fill:#525252;fill-opacity:1;stroke:#262626;stroke-width:2.00001;stroke-dasharray:none;stroke-opacity:1" transform="matrix(0 -.66422 .66422 0 -538.984 -1052.803)"/><path fill="#828282" d="M-1627.827 1020.517h-13.861V962.75h13.86z" style="fill:#4a4a4a;fill-opacity:1;stroke:#262626;stroke-width:2.00001;stroke-dasharray:none;stroke-opacity:1" transform="matrix(0 -.66422 .66422 0 -538.984 -1052.803)"/><path fill="#7d7d7d" d="M-1641.562 1020.517h-13.861v-57.766h13.861z" style="fill:#424242;fill-opacity:1;stroke:#262626;stroke-width:2.00001;stroke-dasharray:none;stroke-opacity:1" transform="matrix(0 -.66422 .66422 0 -538.984 -1052.803)"/><path fill="#787878" d="M-1655.484 1020.517h-13.862V962.75h13.862z" style="fill:#3b3b3b;fill-opacity:1;stroke:#262626;stroke-width:2.00001;stroke-dasharray:none;stroke-opacity:1" transform="matrix(0 -.66422 .66422 0 -538.984 -1052.803)"/><path fill="#737373" d="M-1669.407 1020.517h-13.861V962.75h13.861z" style="fill:#333;fill-opacity:1;stroke:#262626;stroke-width:2.00001;stroke-dasharray:none;stroke-opacity:1" transform="matrix(0 -.66422 .66422 0 -538.984 -1052.803)"/><path fill="#878787" d="M-1600.216 1020.517h-13.861V962.75h13.861z" style="fill:#595959;fill-opacity:1;stroke:#262626;stroke-width:2.00001;stroke-dasharray:none;stroke-opacity:1" transform="matrix(0 -.66422 .66422 0 -538.984 -1052.803)"/></g><path d="M-72.179 141.53h68.876v4.785h-68.876zM-72.179 93.034h68.876v4.785h-68.876z" style="fill:#262626;fill-opacity:1;fill-rule:evenodd;stroke:none;stroke-width:.877223;stroke-linecap:round;stroke-linejoin:round;stroke-miterlimit:29" transform="rotate(-90)"/></g></svg>