<svg xmlns="http://www.w3.org/2000/svg" width="273.57" height="655.328" viewBox="0 0 72.382 173.389"><path d="M-18.55 85.959v173.389h72.38V85.959Zm7.407 7.408h57.565V251.94h-57.565z" style="color:#000;fill:#1f150d;fill-rule:evenodd;paint-order:stroke fill markers;stroke-width:1.00012576;stroke-dasharray:none" transform="translate(18.552 -85.959)"/><path d="M-14.847 89.664h64.972v165.98h-64.972z" style="color:#000;fill:#563e29;fill-rule:evenodd;-inkscape-stroke:none;paint-order:stroke fill markers" transform="translate(18.552 -85.959)"/><path d="M-9.405 89.663v165.98h-5.442V89.664Z" style="fill:#3f2d1f;fill-opacity:1;fill-rule:evenodd;stroke:none;stroke-width:7.40834;stroke-dasharray:none;stroke-opacity:1;paint-order:stroke fill markers" transform="translate(18.552 -85.959)"/><path d="m-2.473 89.663.383.192v165.789h-7.315V89.664Z" style="fill:#463222;fill-opacity:1;fill-rule:evenodd;stroke:none;stroke-width:7.40834;stroke-dasharray:none;stroke-opacity:1;paint-order:stroke fill markers" transform="translate(18.552 -85.959)"/><path d="M44.684 89.663v165.98h5.441V89.664Z" style="fill:#3f2d1f;fill-opacity:1;fill-rule:evenodd;stroke:none;stroke-width:7.40834;stroke-dasharray:none;stroke-opacity:1;paint-order:stroke fill markers" transform="translate(18.552 -85.959)"/><path d="m37.751 89.663-.382.192v165.789h7.315V89.664Z" style="fill:#463222;fill-opacity:1;fill-rule:evenodd;stroke:none;stroke-width:7.40834;stroke-dasharray:none;stroke-opacity:1;paint-order:stroke fill markers" transform="translate(18.552 -85.959)"/><path d="m10.83 140.648-.035 5.088 49.815 14.817 1.156-7.565 3.517-1.767-50.472-15.012zm55.477-53.321-2.235-9.166-17.085-22.535-2.006.34-22.344 3.787L5.224 75.858l41.763-20.232ZM44.036 65.974 57.082 83.18l.097.396-15.995-8.12zM20.515 78.657l18.149 6.064 15.299 7.767 12.344 13.754L5.224 80.718Z" style="fill:#3f2d1f;fill-opacity:1;fill-rule:evenodd;stroke:#1f150d;stroke-width:2.64583;stroke-dasharray:none;stroke-opacity:1;paint-order:normal"/><path d="m7.89 113.332 42.76 41.13 1.482-2.141 5.825-.918-42.45-40.833-2.65.28z" style="fill:#5d442c;fill-opacity:1;fill-rule:evenodd;stroke:#1f150d;stroke-width:2.64583332;stroke-dasharray:none;stroke-opacity:1;paint-order:normal"/><path d="m64.533 115.47-42.76 41.13-1.481-2.142-5.826-.917 42.45-40.833 2.651.279z" style="fill:#684c31;fill-opacity:1;fill-rule:evenodd;stroke:#1f150d;stroke-width:2.64583;stroke-dasharray:none;stroke-opacity:1;paint-order:normal"/><path d="m43.654 9.634-1.348-2.393-25.063 7.81 1.536 3.884-1.016 1.868 25.393-7.912z" style="fill:#3f2d1f;fill-opacity:1;fill-rule:evenodd;stroke:#1f150d;stroke-width:1.39391;stroke-dasharray:none;stroke-opacity:1;paint-order:normal"/><path d="m52.828 13.672-30.072 28.84-2.232-1.224-4.097-.644 29.854-28.63-.602 4.008Z" style="fill:#684c31;fill-opacity:1;fill-rule:evenodd;stroke:#1f150d;stroke-width:1.85798;stroke-dasharray:none;stroke-opacity:1;paint-order:normal"/><path d="M57.194 47.916 28.186 18.63l1.392-3.017.532 1.96 31.434 24.302-4.009-.603Z" style="fill:#5d442c;fill-opacity:1;fill-rule:evenodd;stroke:#1f150d;stroke-width:1.85798;stroke-dasharray:none;stroke-opacity:1;paint-order:normal"/><path d="m23.682 52.346-4.32 2.69 14.097 50.023 7.012-3.066 3.373 2.029L29.56 53.339z" style="fill:#3f2d1f;fill-opacity:1;fill-rule:evenodd;stroke:#1f150d;stroke-width:2.64583332;stroke-dasharray:none;stroke-opacity:1;paint-order:normal"/></svg>