<svg xmlns="http://www.w3.org/2000/svg" width="136.7825" height="327.66333" viewBox="0 0 72.38074 173.38851"><path d="M-61.475265 75.592672V248.98134h11.978515l11.677735-6.95703 10.611328 1.97852 16.533203-1.82031 8.359375 6.79882h13.220703V75.592672H-4.223312l-8.027344 4.769531-6.791016-3.216797-14.943359 4.300781-16.197266-5.853515zm7.410156 7.408203h2.583984l17.236328 6.228516 14.5625-4.189454 7.826172 3.707032 9.667969-5.746094h5.685547V241.57314H.317703l-8.722656-7.09375-18.523438 2.03906-12.281249-2.28906-12.326172 7.34375h-2.529297z" style="color:#000;fill:#1f150d;fill-rule:evenodd;-inkscape-stroke:none;paint-order:stroke fill markers" transform="translate(61.474365 -75.592805)"/><path d="M-57.7702 79.29697h6.938778l16.716213 6.04143 14.753446-4.2454 7.30836 3.46139 8.847401-5.25742H7.20221v165.98018H-.998202l-8.542141-6.94654-17.527315 1.92948-11.447176-2.13232-12.001179 7.14938H-57.7702Z" style="color:#000;fill:#684c31;fill-rule:evenodd;-inkscape-stroke:none;paint-order:stroke fill markers" transform="translate(61.474365 -75.592805)"/><path d="M-57.77018 79.29696v165.98015h4.577399V79.29696Z" style="fill:#4d3724;fill-opacity:1;fill-rule:evenodd;stroke:none;stroke-width:7.40833;stroke-dasharray:none;stroke-opacity:1;paint-order:stroke fill markers" transform="translate(61.474365 -75.592805)"/><path d="M-53.192781 79.29696v165.98015h2.676896l3.475052-2.07021V80.66669l-3.79045-1.36973z" style="fill:#563e29;fill-opacity:1;fill-rule:evenodd;stroke:none;stroke-width:7.40833;stroke-dasharray:none;stroke-opacity:1;paint-order:stroke fill markers" transform="translate(61.474365 -75.592805)"/><path d="M-47.040833 80.66669V243.2069l8.526009-5.07913.777502.14483V84.02956Z" style="fill:#5d442c;fill-opacity:1;fill-rule:evenodd;stroke:none;stroke-width:7.40833;stroke-dasharray:none;stroke-opacity:1;paint-order:stroke fill markers" transform="translate(61.474365 -75.592805)"/><path d="M2.625138 79.29696v165.98015h4.576795V79.29696Z" style="fill:#563e29;fill-opacity:1;fill-rule:evenodd;stroke:none;stroke-width:7.40833;stroke-dasharray:none;stroke-opacity:1;paint-order:stroke fill markers" transform="translate(61.474365 -75.592805)"/><path d="m-3.205814 79.29696-.32162.19127v163.73213l2.52946 2.05675h3.623112V79.29696Z" style="fill:#5d442c;fill-opacity:1;fill-rule:evenodd;stroke:none;stroke-width:7.40833;stroke-dasharray:none;stroke-opacity:1;paint-order:stroke fill markers" transform="translate(61.474365 -75.592805)"/><path d="m-3.527434 79.48823-8.525889 5.06628-.776998-.36815v154.50641l3.289959-.36216 6.012928 4.88975z" style="fill:#684c31;fill-opacity:1;fill-rule:evenodd;stroke:none;stroke-width:7.40833;stroke-dasharray:none;stroke-opacity:1;paint-order:stroke fill markers" transform="translate(61.474365 -75.592805)"/><path d="m-19.361743 81.09316-5.922405 1.70402v157.14897l12.453777-1.25337V84.18636Z" style="fill:#6d5237;fill-opacity:1;fill-rule:evenodd;stroke:none;stroke-width:7.40833;stroke-dasharray:none;stroke-opacity:1;paint-order:stroke fill markers" transform="translate(61.474365 -75.592805)"/><path d="M-32.053928 220.37117c-4.05977-.17845-.92424-7.44699 1.48478-9.87604 4.62684-4.66531 10.99017-7.36044 14.2897-13.53342 1.72395-3.22528 3.20905-11.56545 7.9052304-9.00854 3.29113 1.79191 7.09457 4.84481 7.01637 9.09637-.1038 5.64352-3.81905 10.16037-7.18613 14.43865-3.8215204 4.85569-9.7544104 7.79271-16.0182604 7.04605-2.50298-.29836-4.50056 1.9684-7.49169 1.83693z" style="fill:#353f20;fill-opacity:1;stroke:#2a2b17;stroke-width:1.85208;stroke-linecap:butt;stroke-linejoin:miter;stroke-dasharray:none;stroke-opacity:1" transform="translate(61.474365 -75.592805)"/></svg>