<svg xmlns="http://www.w3.org/2000/svg" xmlns:xlink="http://www.w3.org/1999/xlink" width="1448.366" height="1452.344" viewBox="0 0 383.214 384.266"><defs><pattern xlink:href="#a" id="b" x="0" y="0" patternTransform="matrix(.3 0 0 .3 2143.867 3748.67)" preserveAspectRatio="xMidYMid"/><pattern id="a" width="106.48" height="106.48" patternTransform="translate(2077.082 3716.393)" patternUnits="userSpaceOnUse" preserveAspectRatio="xMidYMid"><path d="M0 0h106.48v106.48H0z" style="fill:#5e5e5e;fill-opacity:1;stroke-width:1.99937;stroke-linecap:round;stroke-linejoin:round"/><path d="M0 0v106.48h5.66V5.66h100.82V0Z" style="fill:#4d4d4d;fill-opacity:1;stroke:none;stroke-width:1.99937;stroke-linecap:round;stroke-linejoin:round"/></pattern></defs><g transform="translate(-118.554 -1.11)"><g transform="translate(-315.222 -393.74)"><path d="M434.306 395.379h382.155v383.208H434.306z" style="fill:url(#b);fill-opacity:1;fill-rule:evenodd;stroke:#363631;stroke-width:1.05833;stroke-linecap:round;stroke-linejoin:round;stroke-miterlimit:29"/><circle cx="625.383" cy="586.983" r="47.384" style="fill:#5e5e5e;fill-opacity:1;fill-rule:evenodd;stroke:#4d4d4d;stroke-width:2.12237;stroke-linecap:round;stroke-linejoin:round;stroke-miterlimit:29;stroke-dasharray:none;stroke-opacity:1"/><g transform="matrix(1.09445 0 0 1.09369 480.878 457.437)"><circle cx="132.016" cy="118.46" r="43.417" style="fill:none;fill-opacity:1;fill-rule:evenodd;stroke:#4d4d4d;stroke-width:2.11667;stroke-linecap:round;stroke-linejoin:round;stroke-miterlimit:29;stroke-dasharray:none;stroke-opacity:1"/><g style="stroke-width:1.30043"><g style="stroke-width:2.7526;stroke-dasharray:none"><path d="M193.47 96.476c.199-1.122-.507-1.032-.507-1.032-1.87-.368-5.254-3.496-5.254-3.496-3.988-5.163-4.874-12.89-4.874-12.89-.164-7.37 5.013-.234 5.013-.234 6.92 3.467 10.366 10.645 10.366 10.645l1.393 3.258" style="fill:#5e5e5e;fill-opacity:1;fill-rule:evenodd;stroke:#4d4d4d;stroke-width:2.7526;stroke-linecap:round;stroke-linejoin:round;stroke-miterlimit:29;stroke-dasharray:none;stroke-opacity:1" transform="matrix(.73351 0 0 .86436 -17.37 31.61)"/><path d="M188.033 92.262c2.378 2.377 5.49 3.34 5.49 3.34v.849l2.604-1.982c-4.574-7.639-7.641-8.264-7.641-8.264s-5.378-.97-4.358-9.905c0 0-1.374-1.21-.895 2.336 0 0 .668 8.702 4.8 13.626" style="fill:#5e5e5e;fill-opacity:1;fill-rule:evenodd;stroke:#4d4d4d;stroke-width:2.7526;stroke-linecap:round;stroke-linejoin:round;stroke-miterlimit:29;stroke-dasharray:none;stroke-opacity:1" transform="matrix(.73351 0 0 .86436 -17.37 31.61)"/></g><g style="stroke-width:2.7526;stroke-dasharray:none"><path d="M193.47 96.476c.199-1.122-.507-1.032-.507-1.032-1.87-.368-5.254-3.496-5.254-3.496-3.988-5.163-4.874-12.89-4.874-12.89-.164-7.37 5.013-.234 5.013-.234 6.92 3.467 10.366 10.645 10.366 10.645l1.393 3.258" style="fill:#5e5e5e;fill-opacity:1;fill-rule:evenodd;stroke:#4d4d4d;stroke-width:2.7526;stroke-linecap:round;stroke-linejoin:round;stroke-miterlimit:29;stroke-dasharray:none;stroke-opacity:1" transform="matrix(-.73351 0 0 .86436 281.423 31.61)"/><path d="M188.033 92.262c2.378 2.377 5.49 3.34 5.49 3.34v.849l2.604-1.982c-4.574-7.639-7.641-8.264-7.641-8.264s-5.997-.66-4.358-9.905c0 0-1.529-.747-1.359 2.027 0 0 1.132 9.01 5.264 13.935" style="fill:#5e5e5e;fill-opacity:1;fill-rule:evenodd;stroke:#4d4d4d;stroke-width:2.7526;stroke-linecap:round;stroke-linejoin:round;stroke-miterlimit:29;stroke-dasharray:none;stroke-opacity:1" transform="matrix(-.73351 0 0 .86436 281.423 31.61)"/></g></g><path d="M149.87 107.151c1.03-2.602 3.518-6.382 4.723-3.58 1.069 2.483.957.503 3.21-2.254.831-1.016 1.923.456 2.515.959.944.802 2.614-2.442 3.093-4.167.614-2.213 3.378-2.347 3.033.661-.425 3.697-.244 10.919-4.142 13.665-1.815 1.28-8.863 2.41-10.471 2.629-3.812.52-8.015.146-9.145 2.02.486 3.676.456 9.326-.958 14.603-.767 2.876-2.976 6.23-3.241 6.627 1.108 2.13.2 7.077.2 7.077-.663 1.529.305 2.853.305 2.853.24.416 0 .917 0 .917-1.295 2.243-3.617 2.854-3.617 2.854s-6.419.407-7.336 0c-.917-.408-2.614-2.314-2.955-2.905s0-1.375 0-1.375c.378-1.092 1.019-2.344 1.019-2.344-.938-1.713-.866-6.415-.382-7.117a143 143 0 0 1-2.945-5.823c-2.114-5.93-1.958-11.46-1.331-15.218-1.23-2.023-5.432-1.65-9.244-2.17-1.609-.219-8.656-1.328-10.472-2.608-3.897-2.746-3.717-9.988-4.141-13.685-.346-3.008 2.418-2.874 3.033-.661.479 1.725 2.149 4.97 3.093 4.167.592-.503 1.684-1.975 2.514-.959 2.254 2.757 2.142 4.737 3.21 2.254 1.206-2.802 3.694.978 4.724 3.58 1.508 3.806 5.49 5.292 8.717 5.227 0-.866 9.577-9.272 18.562 0 2.939.065 6.921-1.421 8.428-5.227" style="fill:#5e5e5e;fill-opacity:1;fill-rule:evenodd;stroke:#4d4d4d;stroke-width:2.19176;stroke-linecap:round;stroke-linejoin:round;stroke-miterlimit:29;stroke-dasharray:none;stroke-opacity:1"/><path d="M123.467 118.848a4.88 4.88 0 0 0-1.698 6.606 4.88 4.88 0 0 0 6.57 1.831zM140.507 118.848a4.88 4.88 0 0 1 1.699 6.606 4.88 4.88 0 0 1-6.57 1.831z" style="fill:#5e5e5e;fill-opacity:1;fill-rule:evenodd;stroke:#4d4d4d;stroke-width:2.19176;stroke-linecap:round;stroke-linejoin:round;stroke-miterlimit:29;stroke-dasharray:none;stroke-opacity:1"/><path d="m130.56 117.613 1.681 4.738 1.683-4.863M129.277 130.558c0 .32-.4 4.643-3.522 8.165M135.04 130.558s.721 4.723 3.603 8.005M125.835 146.364l2.322-2.962v-2.241M138.084 146.364l-2.322-2.962v-2.241" style="fill:none;fill-opacity:1;fill-rule:evenodd;stroke:#4d4d4d;stroke-width:2.11667;stroke-linecap:round;stroke-linejoin:round;stroke-miterlimit:29;stroke-dasharray:none;stroke-opacity:1"/></g></g><path d="M118.554 376.578h383.074v8.798H118.554z" style="fill:#14141f;fill-rule:evenodd;stroke:none;stroke-width:2.74436;stroke-linecap:round;stroke-linejoin:round;stroke-miterlimit:29"/><path d="M1.11-501.768h384.266v8.81H1.11z" style="fill:#14141f;fill-rule:evenodd;stroke:none;stroke-width:2.74665;stroke-linecap:round;stroke-linejoin:round;stroke-miterlimit:29" transform="rotate(90)"/><path d="M-384.698 118.554H-1.624v8.798h-383.074z" style="fill:#14141f;fill-rule:evenodd;stroke:none;stroke-width:2.74436;stroke-linecap:round;stroke-linejoin:round;stroke-miterlimit:29" transform="rotate(-90)"/><path d="M118.562 1.11h382.984v8.798H118.562zM118.554 376.578h383.074v8.798H118.554z" style="fill:#14141f;fill-rule:evenodd;stroke:none;stroke-width:2.74436;stroke-linecap:round;stroke-linejoin:round;stroke-miterlimit:29"/><path d="M118.562 1.11h382.984v8.798H118.562z" style="fill:#14141f;fill-rule:evenodd;stroke:none;stroke-width:2.74436;stroke-linecap:round;stroke-linejoin:round;stroke-miterlimit:29"/><rect width="378.447" height="4.87" x="120.786" y="378.57" rx="2.646" ry="2.397" style="fill:#262626;fill-opacity:1;fill-rule:evenodd;stroke:none;stroke-width:2.00555;stroke-linecap:round;stroke-linejoin:round;stroke-miterlimit:29"/><rect width="379.464" height="4.883" x="3.938" y="-499.776" rx="2.646" ry="2.397" style="fill:#262626;fill-opacity:1;fill-rule:evenodd;stroke:none;stroke-width:2.00555;stroke-linecap:round;stroke-linejoin:round;stroke-miterlimit:29" transform="rotate(90)"/><rect width="379.345" height="4.87" x="-382.467" y="120.545" rx="2.646" ry="2.397" style="fill:#262626;fill-opacity:1;fill-rule:evenodd;stroke:none;stroke-width:2.00555;stroke-linecap:round;stroke-linejoin:round;stroke-miterlimit:29" transform="rotate(-90)"/><rect width="378.447" height="4.87" x="120.704" y="3.101" rx="2.646" ry="2.397" style="fill:#262626;fill-opacity:1;fill-rule:evenodd;stroke:none;stroke-width:2.00555;stroke-linecap:round;stroke-linejoin:round;stroke-miterlimit:29"/><path d="M142.576-250.357h100.697v8.798H142.576z" style="fill:#14141f;fill-rule:evenodd;stroke:none;stroke-width:1.87478;stroke-linecap:round;stroke-linejoin:round;stroke-miterlimit:29" transform="rotate(90 .2 1.161)"/><path d="M141.325-248.358h101.632v4.8H141.325z" style="fill:#262626;fill-opacity:1;fill-rule:evenodd;stroke:none;stroke-width:1.4166;stroke-linecap:round;stroke-linejoin:round;stroke-miterlimit:29" transform="rotate(90 .2 1.161)"/><path d="M142.396-376.901h100.697v8.798H142.396z" style="fill:#14141f;fill-rule:evenodd;stroke:none;stroke-width:1.87478;stroke-linecap:round;stroke-linejoin:round;stroke-miterlimit:29" transform="rotate(90 -.115 .846)"/><path d="M141.609-374.902h101.484v4.8H141.609z" style="fill:#262626;fill-opacity:1;fill-rule:evenodd;stroke:none;stroke-width:1.41556;stroke-linecap:round;stroke-linejoin:round;stroke-miterlimit:29" transform="rotate(90 -.115 .846)"/><path d="M120.545 378.57h378.688v4.87H120.545z" style="fill:#262626;fill-opacity:1;fill-rule:evenodd;stroke:none;stroke-width:2.00619;stroke-linecap:round;stroke-linejoin:round;stroke-miterlimit:29"/><path d="M3.101-499.776h380.338v4.883H3.101z" style="fill:#262626;fill-opacity:1;fill-rule:evenodd;stroke:none;stroke-width:2.00786;stroke-linecap:round;stroke-linejoin:round;stroke-miterlimit:29" transform="rotate(90)"/><path d="M-382.467 120.545H-3.122v4.87h-379.345z" style="fill:#262626;fill-opacity:1;fill-rule:evenodd;stroke:none;stroke-width:2.00555;stroke-linecap:round;stroke-linejoin:round;stroke-miterlimit:29" transform="rotate(-90)"/><path d="M120.545 3.101h378.606v4.87H120.545z" style="fill:#262626;fill-opacity:1;fill-rule:evenodd;stroke:none;stroke-width:2.00597;stroke-linecap:round;stroke-linejoin:round;stroke-miterlimit:29"/><path d="M246.076 250.255h57.32v8.798h-57.32z" style="fill:#14141f;fill-rule:evenodd;stroke:none;stroke-width:1.41448;stroke-linecap:round;stroke-linejoin:round;stroke-miterlimit:29" transform="translate(1.237 1.215)"/><path d="M248.676 252.254h52.599v4.8h-52.599z" style="fill:#262626;fill-opacity:1;fill-rule:evenodd;stroke:none;stroke-width:1.0191;stroke-linecap:round;stroke-linejoin:round;stroke-miterlimit:29" transform="translate(1.237 1.215)"/><path d="M315.235 124.753h57.32v8.798h-57.32z" style="fill:#14141f;fill-rule:evenodd;stroke:none;stroke-width:1.41448;stroke-linecap:round;stroke-linejoin:round;stroke-miterlimit:29" transform="translate(1.237 1.468)"/><path d="M317.223 126.752h53.015v4.8h-53.015z" style="fill:#262626;fill-opacity:1;fill-rule:evenodd;stroke:none;stroke-width:1.02313;stroke-linecap:round;stroke-linejoin:round;stroke-miterlimit:29" transform="translate(1.237 1.468)"/><path d="M363.142 244.2c-1.03 0-1.86.83-1.86 1.86v20.182c0 1.03.83 1.86 1.86 1.86h20.181c1.031 0 1.86-.83 1.86-1.86V246.06c0-1.031-.829-1.86-1.86-1.86zM236.997 243.918c-1.03 0-1.86.83-1.86 1.86v20.181c0 1.03.83 1.86 1.86 1.86h20.181c1.031 0 1.861-.83 1.861-1.86v-20.18c0-1.031-.83-1.861-1.86-1.861zM363.143 118.67c-1.031 0-1.86.828-1.86 1.859v20.181c0 1.03.829 1.86 1.86 1.86h20.18c1.031 0 1.861-.83 1.861-1.86V120.53c0-1.03-.83-1.86-1.86-1.86zM237.229 118.384c-1.03 0-1.86.83-1.86 1.86v20.182c0 1.03.83 1.86 1.86 1.86h20.18c1.031 0 1.861-.83 1.861-1.86v-20.182c0-1.03-.83-1.86-1.86-1.86z" style="fill:#333;fill-opacity:1;stroke:#171717;stroke-width:3.04125;stroke-linecap:round;stroke-dasharray:none;stroke-opacity:1;paint-order:fill markers stroke;stop-color:#000"/><path d="M-377.79-175.846h65.115v8.798h-65.115z" style="fill:#14141f;fill-rule:evenodd;stroke:none;stroke-width:1.13801;stroke-linecap:round;stroke-linejoin:round;stroke-miterlimit:29" transform="scale(1 -1)rotate(90)"/><g stroke="#4d4d4d" stroke-linecap="square" stroke-width="1.666"><path fill="#878787" d="M-1614.092 1020.517h-13.862V962.75h13.862z" style="fill:#525252;fill-opacity:1;stroke:#262626;stroke-width:2.00001;stroke-dasharray:none;stroke-opacity:1" transform="matrix(0 .66422 .66422 0 -511.457 1438.844)"/><path fill="#828282" d="M-1627.827 1020.517h-13.861V962.75h13.86z" style="fill:#4a4a4a;fill-opacity:1;stroke:#262626;stroke-width:2.00001;stroke-dasharray:none;stroke-opacity:1" transform="matrix(0 .66422 .66422 0 -511.457 1438.844)"/><path fill="#7d7d7d" d="M-1641.562 1020.517h-13.861v-57.766h13.861z" style="fill:#424242;fill-opacity:1;stroke:#262626;stroke-width:2.00001;stroke-dasharray:none;stroke-opacity:1" transform="matrix(0 .66422 .66422 0 -511.457 1438.844)"/><path fill="#787878" d="M-1655.484 1020.517h-13.862V962.75h13.862z" style="fill:#3b3b3b;fill-opacity:1;stroke:#262626;stroke-width:2.00001;stroke-dasharray:none;stroke-opacity:1" transform="matrix(0 .66422 .66422 0 -511.457 1438.844)"/><path fill="#737373" d="M-1669.407 1020.517h-13.861V962.75h13.861z" style="fill:#333;fill-opacity:1;stroke:#262626;stroke-width:2.00001;stroke-dasharray:none;stroke-opacity:1" transform="matrix(0 .66422 .66422 0 -511.457 1438.844)"/><path fill="#878787" d="M-1600.216 1020.517h-13.861V962.75h13.861z" style="fill:#595959;fill-opacity:1;stroke:#262626;stroke-width:2.00001;stroke-dasharray:none;stroke-opacity:1" transform="matrix(0 .66422 .66422 0 -511.457 1438.844)"/></g><path d="M314.497 169.055h68.876v4.785h-68.876z" style="fill:#262626;fill-opacity:1;fill-rule:evenodd;stroke:none;stroke-width:.877223;stroke-linecap:round;stroke-linejoin:round;stroke-miterlimit:29" transform="matrix(0 1 1 0 0 0)"/><path d="M-377.79-175.846h65.115v8.798h-65.115z" style="fill:#14141f;fill-rule:evenodd;stroke:none;stroke-width:1.13801;stroke-linecap:round;stroke-linejoin:round;stroke-miterlimit:29" transform="matrix(0 1 1 0 620.311 386.526)"/><g stroke="#4d4d4d" stroke-linecap="square" stroke-width="1.666"><path fill="#878787" d="M-1614.092 1020.517h-13.862V962.75h13.862z" style="fill:#525252;fill-opacity:1;stroke:#262626;stroke-width:2.00001;stroke-dasharray:none;stroke-opacity:1" transform="scale(.66422 -.66422)rotate(90 59.808 1644.11)"/><path fill="#828282" d="M-1627.827 1020.517h-13.861V962.75h13.86z" style="fill:#4a4a4a;fill-opacity:1;stroke:#262626;stroke-width:2.00001;stroke-dasharray:none;stroke-opacity:1" transform="scale(.66422 -.66422)rotate(90 59.808 1644.11)"/><path fill="#7d7d7d" d="M-1641.562 1020.517h-13.861v-57.766h13.861z" style="fill:#424242;fill-opacity:1;stroke:#262626;stroke-width:2.00001;stroke-dasharray:none;stroke-opacity:1" transform="scale(.66422 -.66422)rotate(90 59.808 1644.11)"/><path fill="#787878" d="M-1655.484 1020.517h-13.862V962.75h13.862z" style="fill:#3b3b3b;fill-opacity:1;stroke:#262626;stroke-width:2.00001;stroke-dasharray:none;stroke-opacity:1" transform="scale(.66422 -.66422)rotate(90 59.808 1644.11)"/><path fill="#737373" d="M-1669.407 1020.517h-13.861V962.75h13.861z" style="fill:#333;fill-opacity:1;stroke:#262626;stroke-width:2.00001;stroke-dasharray:none;stroke-opacity:1" transform="scale(.66422 -.66422)rotate(90 59.808 1644.11)"/><path fill="#878787" d="M-1600.216 1020.517h-13.861V962.75h13.861z" style="fill:#595959;fill-opacity:1;stroke:#262626;stroke-width:2.00001;stroke-dasharray:none;stroke-opacity:1" transform="scale(.66422 -.66422)rotate(90 59.808 1644.11)"/></g><path d="M314.497 169.055h68.876v4.785h-68.876z" style="fill:#262626;fill-opacity:1;fill-rule:evenodd;stroke:none;stroke-width:.877223;stroke-linecap:round;stroke-linejoin:round;stroke-miterlimit:29" transform="matrix(0 -1 -1 0 620.311 386.526)"/></g></svg>