<svg xmlns="http://www.w3.org/2000/svg" xmlns:xlink="http://www.w3.org/1999/xlink" width="2205.69" height="619.254" viewBox="0 0 583.589 163.844"><defs><radialGradient xlink:href="#d" id="h" cx="141.735" cy="145.99" r="104.415" gradientTransform="matrix(.18252 0 0 .1771 146.105 153.42)" gradientUnits="userSpaceOnUse"/><radialGradient id="d" cx="141.735" cy="145.99" r="104.415" gradientTransform="matrix(.47943 0 0 .46522 19.547 19.582)" gradientUnits="userSpaceOnUse"><stop offset="0" stop-opacity=".9"/><stop offset="1" stop-opacity=".3"/></radialGradient><radialGradient xlink:href="#e" id="i" cx="141.735" cy="145.99" r="104.415" gradientTransform="matrix(.18252 0 0 .1771 -98.85 39.406)" gradientUnits="userSpaceOnUse"/><radialGradient id="e" cx="141.735" cy="145.99" r="104.415" gradientTransform="matrix(.47943 0 0 .46522 19.547 19.582)" gradientUnits="userSpaceOnUse"><stop offset="0" stop-opacity=".9"/><stop offset="1" stop-opacity=".3"/></radialGradient><pattern xlink:href="#b" id="f" x="0" y="0" patternTransform="matrix(.3 0 0 .3 -1069.735 -404.685)" preserveAspectRatio="xMidYMid"/><pattern id="b" width="338.127" height="182.912" patternTransform="translate(245 644)" patternUnits="userSpaceOnUse" preserveAspectRatio="xMidYMid"><path d="M0 0v182.912h338.127V0Z" style="fill:#543d2b;fill-opacity:1;stroke-width:5.1292;paint-order:markers stroke fill"/><rect width="39.616" height="163.381" x="-136.367" y="-291.733" rx="3.602" ry="3.602" style="fill:#644c33;fill-opacity:1;stroke-width:1.54049;paint-order:markers stroke fill" transform="rotate(90)scale(-1 1)"/><rect width="39.616" height="163.381" x="-90.502" y="-216.462" rx="3.602" ry="3.602" style="fill:#694c30;fill-opacity:1;stroke-width:1.54049;paint-order:markers stroke fill" transform="rotate(90)scale(-1 1)"/><rect width="39.616" height="163.381" x="-45.341" y="-246.04" rx="3.602" ry="3.602" style="fill:#644c33;fill-opacity:1;stroke-width:1.54049;paint-order:markers stroke fill" transform="rotate(90)scale(-1 1)"/><rect width="39.616" height="163.381" x="-182.912" y="-338.127" rx="3.602" ry="3.602" style="fill:#694c30;fill-opacity:1;stroke-width:1.54049;paint-order:markers stroke fill" transform="rotate(90)scale(-1 1)"/><rect width="39.616" height="163.381" x="-182.912" y="-169.083" rx="3.602" ry="3.602" style="fill:#644c33;fill-opacity:1;stroke-width:1.54049;paint-order:markers stroke fill" transform="rotate(90)scale(-1 1)"/><path d="M0 5.725v39.617h73.05a3.595 3.595 0 0 0 3.602-3.604V9.326a3.593 3.593 0 0 0-3.601-3.601zm255.648.001a3.593 3.593 0 0 0-3.601 3.602V41.74a3.593 3.593 0 0 0 3.601 3.602h82.479V5.726Z" style="fill:#694c30;fill-opacity:1;stroke-width:1.54049;paint-order:markers stroke fill"/><path d="M0 50.828v39.615h43.395a3.593 3.593 0 0 0 3.601-3.601V54.43a3.593 3.593 0 0 0-3.601-3.602zm226.148-.058a3.593 3.593 0 0 0-3.601 3.602v32.412a3.595 3.595 0 0 0 3.601 3.603h111.979V50.77Z" style="fill:#644c33;fill-opacity:1;stroke-width:1.54049;paint-order:markers stroke fill"/><path d="M0 96.727v39.617h118.332a3.595 3.595 0 0 0 3.602-3.604v-32.412a3.593 3.593 0 0 0-3.602-3.602zm301.754.011a3.593 3.593 0 0 0-3.602 3.602v32.412a3.595 3.595 0 0 0 3.602 3.603h36.373V96.738Z" style="fill:#694c30;fill-opacity:1;stroke-width:1.54049;paint-order:markers stroke fill"/></pattern><pattern xlink:href="#c" id="g" x="0" y="0" patternTransform="matrix(.30001 0 0 .30394 -757.022 -651.216)" preserveAspectRatio="xMidYMid"/><pattern id="c" width="125.213" height="125.213" patternTransform="translate(168.768 406.256)" patternUnits="userSpaceOnUse" preserveAspectRatio="xMidYMid"><path d="M0 0h125.212v125.212H0z" style="fill:#4d4d4d;stroke-width:7.49201;stroke-linecap:round"/><path d="M14.85 0c7.049 5.463 12.22 6.078 12.22 6.078s-.35-2.4-2.19-6.078zM56.54 0c7.05 5.463 12.22 6.078 12.22 6.078s-.35-2.4-2.189-6.078zm41.674 0c7.05 5.463 12.22 6.078 12.22 6.078s-.35-2.4-2.189-6.078zM6.23.03S3.802.285 0 2.212V12.39C5.494 5.308 6.23.029 6.23.029m41.692 0S43.705.463 37.666 4.61v-.007c-2.013 1.38-4.224 3.176-6.559 5.511-9.3 9.31-10.086 16.805-10.086 16.805s7.407-.766 16.637-9.918C46.958 7.697 47.922.029 47.922.029m41.674 0S85.37.463 79.322 4.622v.006C77.32 6.005 75.12 7.794 72.8 10.115c-9.3 9.31-10.086 16.805-10.086 16.805s7.41-.765 16.644-9.924v-.017C88.634 7.685 89.596.029 89.596.029m35.617 2.103a35 35 0 0 0-4.182 2.478v-.007c-2.013 1.38-4.224 3.176-6.558 5.511-9.3 9.31-10.084 16.805-10.084 16.805s7.404-.765 16.634-9.916c1.682-1.682 3.01-3.279 4.19-4.818zM.173 20.87s.425 4.06 4.36 9.924H4.53c1.408 2.098 3.271 4.431 5.729 6.889 9.31 9.31 16.812 10.095 16.812 10.095s-.953-7.669-10.254-16.974h.02C7.593 21.637.174 20.87.174 20.87m41.69 0s.426 4.06 4.362 9.924h-.004c1.408 2.098 3.27 4.431 5.728 6.889 9.31 9.31 16.813 10.095 16.813 10.095s-.954-7.669-10.254-16.974h.02c-9.244-9.168-16.665-9.934-16.665-9.934m41.676 0s.424 4.06 4.36 9.924h-.004c1.408 2.098 3.27 4.431 5.728 6.889 9.31 9.31 16.813 10.095 16.813 10.095s-.954-7.669-10.254-16.974h.02c-9.244-9.168-16.663-9.934-16.663-9.934M6.23 41.731s-2.428.257-6.23 2.183v10.178C5.494 47.01 6.23 41.73 6.23 41.73m41.692 0s-4.217.434-10.256 4.582v-.008c-2.013 1.38-4.224 3.175-6.559 5.51-9.3 9.31-10.086 16.804-10.086 16.804s7.411-.765 16.645-9.924c9.292-9.3 10.256-16.964 10.256-16.964m41.674 0s-4.225.435-10.274 4.593v.006c-2.003 1.377-4.202 3.163-6.523 5.484-9.3 9.31-10.086 16.805-10.086 16.805s7.41-.765 16.644-9.924v-.015c9.277-9.294 10.239-16.95 10.239-16.95m35.617 2.103a35 35 0 0 0-4.182 2.479v-.008c-2.013 1.38-4.224 3.175-6.558 5.51-9.3 9.31-10.084 16.804-10.084 16.804s7.408-.765 16.642-9.924a48 48 0 0 0 4.182-4.808zM.173 62.57s.425 4.064 4.366 9.934h.002c1.407 2.094 3.266 4.424 5.717 6.875 9.31 9.31 16.812 10.094 16.812 10.094s-.953-7.666-10.248-16.97h.014C7.593 63.337.174 62.57.174 62.57m41.69 0s.426 4.064 4.367 9.934h.002c1.407 2.094 3.266 4.424 5.717 6.875 9.31 9.31 16.813 10.094 16.813 10.094s-.954-7.666-10.248-16.97h.013c-9.243-9.167-16.664-9.933-16.664-9.933m41.676 0s.424 4.064 4.365 9.934h.002c1.407 2.094 3.266 4.424 5.717 6.875 9.31 9.31 16.813 10.094 16.813 10.094s-.954-7.666-10.248-16.97h.013C90.958 63.337 83.54 62.57 83.54 62.57M6.23 83.424S3.802 83.68 0 85.607v10.178c5.494-7.082 6.23-12.361 6.23-12.361m41.692 0s-4.217.434-10.256 4.582v-.008c-2.013 1.38-4.224 3.175-6.559 5.51-9.3 9.31-10.086 16.804-10.086 16.804s7.411-.765 16.645-9.923c9.292-9.301 10.256-16.965 10.256-16.965m41.674 0s-4.225.435-10.274 4.594v.005C77.32 89.4 75.12 91.187 72.8 93.508c-9.3 9.31-10.086 16.805-10.086 16.805s7.41-.766 16.644-9.924v-.016c9.277-9.293 10.239-16.95 10.239-16.95m35.617 2.103a35 35 0 0 0-4.182 2.479v-.008c-2.013 1.38-4.224 3.175-6.558 5.51-9.3 9.31-10.084 16.804-10.084 16.804s7.408-.765 16.642-9.923a48 48 0 0 0 4.182-4.809zM.173 104.264s.425 4.06 4.36 9.924H4.53c1.408 2.098 3.271 4.433 5.729 6.89 1.663 1.663 3.235 2.972 4.75 4.135h9.933c-1.475-2.981-3.919-6.807-8.125-11.016h.02C7.593 105.03.174 104.264.174 104.264m41.69 0s.426 4.06 4.362 9.924h-.004c1.408 2.098 3.27 4.433 5.728 6.89 1.663 1.663 3.235 2.972 4.75 4.135h9.934c-1.476-2.981-3.92-6.807-8.125-11.016h.02c-9.244-9.168-16.665-9.933-16.665-9.933m41.676 0s.424 4.06 4.36 9.924h-.004c1.408 2.098 3.27 4.433 5.728 6.89 1.663 1.663 3.235 2.972 4.75 4.135h9.934c-1.476-2.981-3.92-6.807-8.125-11.016h.02c-9.244-9.168-16.663-9.933-16.663-9.933M6.23 125.123l-.51.09h.49c.002-.004.02-.09.02-.09m41.692 0-.51.09h.49zm41.674 0-.51.09h.49z" style="opacity:.4;fill:gray;fill-opacity:1;stroke-width:1.26228"/></pattern></defs><g transform="translate(288.925 -24.23)"><path d="M-257.759 27.351h550.923v157.616h-550.923z" style="fill:url(#f);fill-opacity:1;stroke:#543d2b;stroke-width:3;stroke-dasharray:none;stroke-opacity:1"/><path d="M227.713 27.351H196.08v155.737h95.276V27.936Z" style="fill:#525252;fill-opacity:1;stroke:#303030;stroke-width:2.99999;stroke-dasharray:none;stroke-opacity:1"/><path d="M-204.968 74.499h74.368v39.582h-74.368zM-130.6 114.082h6.73M-211.699 74.5h6.731M-211.699 114.082h6.731M-211.699 107.485h6.731M-211.699 100.888h6.731M-211.699 94.29h6.731M-211.699 87.694h6.731M-211.699 81.096h6.731M-130.6 74.5h6.73M-130.6 107.485h6.73M-130.6 100.888h6.73M-130.6 94.29h6.73M-130.6 87.694h6.73M-130.6 81.096h6.73" style="fill:#662c2c;fill-opacity:1;stroke:#492020;stroke-width:3;stroke-dasharray:none;stroke-opacity:1"/><g style="fill:#492020;fill-opacity:1;stroke:none;stroke-width:3.60184;stroke-dasharray:none;stroke-opacity:1"><path d="M505.027 289.13c8.509 16.14 18.303 32.874 25.7 59.041l7.234-7.234a217 217 0 0 1 8.574 13.114l10.33-12.313c3.787-4.532 7.18-8.783 10.378-12.758a218 218 0 0 1-10.41-6.914l7.233-7.235c-26.166-7.396-42.9-17.191-59.04-25.7m70.263 44.632c-3.373 4.178-7.068 8.828-11.317 13.914l-.004.004-12.533 14.937c.467.864.935 1.726 1.39 2.597l25.029-30.029q-1.29-.702-2.565-1.423zm11 5.765-29.014 34.81c5.024 11.039 8.89 22.457 10.955 33.747l22.646-22.646 29.746 29.747 10.457-10.458-29.746-29.746 22.645-22.645c-12.64-2.312-25.44-6.88-37.688-12.81" style="fill:#492020;fill-opacity:1;stroke:none;stroke-width:3.60184;stroke-linecap:butt;stroke-linejoin:miter;stroke-dasharray:none;stroke-opacity:1" transform="matrix(.2141 0 0 .21381 -289.75 19.544)"/><g style="fill:#492020;fill-opacity:1;stroke:none;stroke-width:3.60184;stroke-dasharray:none;stroke-opacity:1"><path d="M592.415 301.919c-.774-.65-2.322-1.006-3.1-.362-6.713 8-4.666 13.698-13.86 24.655-4.203 5.009-9.287 11.615-15.036 18.496l-33.63 40.08c-2.56 3.05-17.494 22.26-19.402 29.444l23.821-2.932s-4.267-7.8 4.567-18.4l66.58-79.877a2.09 2.09 0 0 0-.238-2.962z" style="color:#000;fill:#492020;fill-opacity:1;stroke:none;stroke-width:3.60184;stroke-linecap:round;stroke-linejoin:round;stroke-miterlimit:5;stroke-dasharray:none;stroke-opacity:1;paint-order:fill markers stroke" transform="matrix(.2141 0 0 .21381 -289.75 19.544)"/><path d="m634.283 310.215-12.775-6.698-23.274-19.53-14.408 17.171 23.104 19.386 8.985 11.561 1.46-.586s6.376-2.481 10.81-7.765 5.774-11.999 5.774-11.999z" style="color:#000;fill:#492020;fill-opacity:1;stroke:none;stroke-width:3.60184;stroke-linecap:round;stroke-miterlimit:5;stroke-dasharray:none;stroke-opacity:1;paint-order:fill markers stroke" transform="matrix(.2141 0 0 .21381 -289.75 19.544)"/></g></g><g style="stroke-width:1.96882"><path d="M96.603 177.888c-7.492-4.148-18.42-6.1-16.538-18.477 2.047-13.45.59-27.703 5.68-40.41 2.7-6.736 7.908-15.23 16.431-13.753 3.778.654 5.71-.964 7.784-1.463 6.472-1.555 17.787-3.446 17.8 6.857.011 7.952 6.012 15.178 3.459 23.367-2.44 7.828-11.778 9.352-16.821 15.057-6.27 7.093 5.46 12.283 8.718 17.747 3.07 5.149 8.255 16.594.113 18.863-8.397 2.34-16.232-1.179-22.735-6.13-1.122-.854-2.622-.956-3.891-1.658" style="fill:#454545;fill-opacity:.875833;stroke:none;stroke-width:5.03822;stroke-linecap:square;stroke-linejoin:round;stroke-dasharray:none;stroke-opacity:1;paint-order:fill markers stroke;stop-color:#000" transform="rotate(30 170.439 401.127)scale(.50792)"/><path d="M134.809 161.195c-3.009-.066-6.075-1.87-7.278-4.73-.633-1.502-.646-3.392.484-4.655.531-.595 1.383-.7 2.049-1.133 1.27-.827 1.943-2.563 3.502-2.956 1.027-.26 2.048.21 3.028.478 1.846.502 3.74.959 5.688.713 1.512-.19 2.57 1.52 2.635 2.924.044.938-.487 1.851-1.405 2.196-1.529.573-3.403.204-4.715 1.15-1.523 1.1-.76 3.753-2.227 5.052-.501.444-1.061.976-1.761.96" style="fill:#454545;fill-opacity:.875833;stroke:none;stroke-width:5.03822;stroke-linecap:square;stroke-linejoin:round;stroke-dasharray:none;stroke-opacity:1;paint-order:fill markers stroke;stop-color:#000" transform="rotate(30 170.439 401.127)scale(.50792)"/></g><path d="m291.356 183.166-100.105.048" style="fill:#492020;fill-opacity:1;stroke:#3b0f0f;stroke-width:6.61459;stroke-dasharray:none;stroke-opacity:1"/><path d="M122.208 183.16h-381.467M291.356 25.851v160.617M230.564 29.155H-52.524" style="fill:#492020;fill-opacity:1;stroke:#3b0f0f;stroke-width:6.6146;stroke-dasharray:none;stroke-opacity:1"/><path d="M-284.729 27.354h27.409v157.614h-27.409z" style="fill:url(#g);fill-opacity:1;stroke:#3a3a3a;stroke-width:2.9999;stroke-dasharray:none;stroke-opacity:1"/><path d="M-283.411 26.613h25.639v3.298h-25.639z" style="fill:#3f3f3f;fill-opacity:1;stroke:#1d1d1d;stroke-width:1.49473;stroke-dasharray:none;stroke-opacity:1"/><path d="M-284.143 182.471h25.638v3.248h-25.638z" style="fill:#3f3f3f;fill-opacity:1;stroke:#1d1d1d;stroke-width:1.5;stroke-dasharray:none;stroke-opacity:1"/><path d="M-123.371 29.159H-259.26" style="fill:#492020;fill-opacity:1;stroke:#3b0f0f;stroke-width:6.61461;stroke-dasharray:none;stroke-opacity:1"/><path d="M-255.952 149.245v37.223M-255.952 25.851v37.223M197.866 32.462v89.325" style="fill:#492020;fill-opacity:1;stroke:#3b0f0f;stroke-width:6.61462;stroke-dasharray:none;stroke-opacity:1"/><path fill="url(#a)" d="m157.908 145.965-1.445 9.224a9.724 9.984 0 0 0-.125.028l-4.183-6.015 1.106 7.06-3.89-3.735 2.073 5.083a9.724 9.984 0 0 0-.078.08l-8.5-2.507 6.563 5.04a9.724 9.984 0 0 0-.155.291l-4.125-.677 3.703 1.653a9.724 9.984 0 0 0 0 .015l-8.285.86 7.677 3.518a9.724 9.984 0 0 0 .016.223l-5.5 1.453 4.932.208-9.025 6.443 10.832-3.675-5.261 7.438 7.364-5.256-1.284 8.202 4.495-6.413a9.724 9.984 0 0 0 .38.142l1.412 8.31 1.945-7.668 2.373 4.834-.44-4.29 5.907 5.692-2.659-8.495a9.724 9.984 0 0 0 .414-.317l4.915 2.5-2.552-4.551 10.274 2.938-9.107-6.027 6.654-.739-6.697-1.976a9.724 9.984 0 0 0 0-.164l7.92-5.27-9.057.94a9.724 9.984 0 0 0-.134-.242l2.795-3.054-3.447 1.596 6.333-9.032-8.58 7.235a9.724 9.984 0 0 0-.294-.202l2.39-4.94-4.094 4.047a9.724 9.984 0 0 0-.073-.03l1.31-6.2-3.047 5.701a9.724 9.984 0 0 0-.293-.052z" style="opacity:.8;fill:url(#h);stroke-width:.264583"/><path fill="url(#a)" d="m-87.047 31.951-1.445 9.223a9.724 9.984 0 0 0-.125.028l-4.183-6.015 1.106 7.061-3.89-3.735 2.073 5.082a9.724 9.984 0 0 0-.078.081l-8.5-2.507 6.563 5.039a9.724 9.984 0 0 0-.155.292l-4.125-.677 3.703 1.652a9.724 9.984 0 0 0 0 .015l-8.285.86 7.677 3.52a9.724 9.984 0 0 0 .016.222l-5.5 1.453 4.932.208-9.024 6.443 10.83-3.676-5.26 7.44 7.364-5.257-1.284 8.202 4.495-6.413a9.724 9.984 0 0 0 .38.142l1.412 8.31 1.945-7.668 2.373 4.834-.44-4.29 5.907 5.692-2.658-8.495a9.724 9.984 0 0 0 .413-.318l4.915 2.501-2.552-4.552 10.275 2.938-9.108-6.026 6.655-.74-6.698-1.975a9.724 9.984 0 0 0 0-.165l7.92-5.27-9.057.94a9.724 9.984 0 0 0-.134-.242l2.796-3.054-3.448 1.597 6.333-9.032-8.58 7.234a9.724 9.984 0 0 0-.294-.202l2.39-4.94-4.094 4.047a9.724 9.984 0 0 0-.073-.029l1.31-6.2-3.047 5.701a9.724 9.984 0 0 0-.293-.052z" style="opacity:.8;fill:url(#i);stroke-width:.264583"/><path d="m186.598 156.868 10.545 18.265-1.609-4.331 2.276 3.013-1.616-4.84 3.294 4.11-.162-1.435-.864-3.41 4.009 3.816-10.545-18.265 1.872 4.692-2.995-4.043-.028.016.97 3.732-2.437-2.886-.015.01.843 3.388-1.027-.597 1.198 2.75zM196.49 126.268l-5.458 20.372 1.925-4.2-.521 3.74 2.28-4.566-.577 5.237.9-1.13 1.8-3.022.136 5.533 5.458-20.372-1.993 4.641.741-4.976-.03-.01-1.955 3.324.318-3.762h-.018l-1.8 2.99-.304-1.148-1.096 2.792zM-257.884 122.57l10.545 18.264-1.609-4.33 2.277 3.013-1.617-4.841 3.295 4.11-.162-1.434-.865-3.41 4.01 3.816-10.546-18.265 1.872 4.691-2.995-4.043-.028.016.97 3.733-2.436-2.886-.015.01.842 3.388-1.027-.597 1.198 2.749zM-240.404 69.814l-18.655 9.839 4.39-1.442-3.099 2.159 4.9-1.43-4.235 3.135 1.44-.107 3.44-.733-3.966 3.86 18.655-9.839-4.76 1.691 4.156-2.837-.015-.03-3.767.826 2.977-2.323-.01-.015-3.418.712.636-1.004-2.793 1.093zM-247.991 91.97l-5.459 20.372 1.925-4.2-.521 3.74 2.28-4.566-.577 5.236.9-1.129 1.8-3.022.136 5.533 5.459-20.372-1.994 4.641.742-4.976-.031-.01-1.954 3.324.318-3.763h-.018l-1.8 2.991-.305-1.148-1.096 2.792zM253.635 34.352 235.37 44.897l4.33-1.609-3.012 2.276 4.84-1.616-4.11 3.294 1.434-.162 3.41-.864-3.816 4.009 18.265-10.545-4.69 1.872 4.042-2.995-.016-.028-3.732.97 2.885-2.437-.01-.015-3.387.843.596-1.027-2.749 1.198zM284.234 40.348l-20.371-5.459 4.2 1.925-3.74-.521 4.565 2.28-5.236-.577 1.13.9 3.021 1.8-5.533.136 20.372 5.458-4.64-1.993 4.976.741.01-.03-3.325-1.955 3.763.319v-.018l-2.991-1.8 1.148-.305-2.791-1.096z" style="fill:#785a2e;fill-opacity:1;stroke:#302412;stroke-width:1;stroke-linecap:round;stroke-miterlimit:4;stroke-dasharray:none;stroke-opacity:1"/><path d="M291.356 183.214H192.94M120.451 183.16h-378.21M291.356 27.351v157.617M228.773 29.155H-50.66M-125.07 29.159h-132.632M-255.952 151.05v33.612M-255.952 29.159v32.297M197.865 30.905v89.331" style="fill:#492020;fill-opacity:1;stroke:#5a1919;stroke-width:3.5;stroke-dasharray:none;stroke-opacity:1"/><ellipse cx="-284.633" cy="28.248" rx="3.542" ry="3.268" style="fill:#3f3f3f;fill-opacity:1;stroke:#1d1d1d;stroke-width:1.5;stroke-dasharray:none;stroke-opacity:1"/><ellipse cx="-284.625" cy="184.056" rx="3.542" ry="3.268" style="fill:#3f3f3f;fill-opacity:1;stroke:#1d1d1d;stroke-width:1.5;stroke-dasharray:none;stroke-opacity:1"/></g></svg>