<svg xmlns="http://www.w3.org/2000/svg" width="1048.673" height="305.423" viewBox="0 0 554.923 161.62"><g transform="translate(-1054.976 -1074.033)"><path d="m1056.976 1076.036 131.938.21 50.023 15.493 34.63-15.536 334.331-.167v157.617h-100.224l-28.02-18.49-31.829 8.73-10.882 9.76h-379.967z" style="fill:#402c1c;stroke:#281a15;stroke-width:4;stroke-dasharray:none"/><path d="M-1580.597 1106.486h268.543v96.716h-268.543z" style="fill:none;fill-opacity:1;stroke:#231713;stroke-width:3.5;stroke-dasharray:none;stroke-opacity:1" transform="scale(-1 1)"/><path d="M-1580.528 1140.701h268.474v28.287h-268.474z" style="fill:none;fill-opacity:1;stroke:#231713;stroke-width:3.5;stroke-dasharray:none;stroke-opacity:1" transform="scale(-1 1)"/><path d="M1446.325 1107.204v95.999" style="fill:#3a2819;fill-opacity:1;stroke:#231713;stroke-width:3;stroke-dasharray:none;stroke-opacity:1"/><path d="M1222.361 1188.16c-7.59 11.6-15.228 34.885-29.345 31.744-10.744-2.39-17.344-8.91-27.939-4.862-14.69 5.612-4.86-11.72-.607-17.556 6.371-8.742 15.29-14.714 24.139-20.524 7.695-5.054 23.127-10.647 17.69-22.261-4.8-10.255.956-23.73 13.995-18.756 12.942 4.938 16.804 19.632 6.748 28.752-8.267 7.496-.001 16.31-4.682 23.461" style="fill:#000;fill-opacity:.1;stroke:none;stroke-width:2.55897;stroke-linecap:square;stroke-linejoin:round;stroke-dasharray:none;stroke-opacity:1;paint-order:fill markers stroke;stop-color:#000"/><circle cx="-1161.749" cy="1156.671" r="44.549" style="fill:#2d2014;fill-opacity:1;stroke:#231713;stroke-width:3.5;stroke-dasharray:none;stroke-opacity:1" transform="scale(-1 1)"/><path d="M1058.975 1078.042h131.178l30.75 10.123-161.928.26zM1273.342 1078.039h332.554v10.384l-353.1-.738zM1058.903 1221.177l388.879.26-10.424 10.123h-378.455zM1492.868 1221.374l113.011-.13v10.383h-98.417z" style="fill:#3a2719;stroke-width:3"/><path d="M-1312.054 1124.389h41.339v62.482h-41.339z" style="fill:#000;fill-opacity:.0834951;stroke:#231713;stroke-width:3.49999;stroke-dasharray:none;stroke-opacity:1" transform="scale(-1 1)"/><path d="M1297.27 1124.109v62.482" style="fill:#000;fill-opacity:.0834951;stroke:#231713;stroke-width:3.49999;stroke-dasharray:none;stroke-opacity:1"/><circle cx="-1435.839" cy="1154.844" r="3.301" style="fill:#000;fill-opacity:.0834951;stroke:#281a15;stroke-width:2;stroke-dasharray:none;stroke-opacity:1" transform="scale(-1 1)"/><circle cx="-1456.812" cy="1154.844" r="3.301" style="fill:#000;fill-opacity:.0834951;stroke:#281a15;stroke-width:2;stroke-dasharray:none;stroke-opacity:1" transform="scale(-1 1)"/><circle cx="-1435.839" cy="1123.994" r="3.301" style="fill:#000;fill-opacity:.0834951;stroke:#281a15;stroke-width:2;stroke-dasharray:none;stroke-opacity:1" transform="scale(-1 1)"/><circle cx="-1456.812" cy="1123.994" r="3.301" style="fill:#000;fill-opacity:.0834951;stroke:#281a15;stroke-width:2;stroke-dasharray:none;stroke-opacity:1" transform="scale(-1 1)"/><circle cx="-1436.756" cy="1186.631" r="3.301" style="fill:#000;fill-opacity:.0834951;stroke:#281a15;stroke-width:2;stroke-dasharray:none;stroke-opacity:1" transform="scale(-1 1)"/><circle cx="-1457.729" cy="1186.631" r="3.301" style="fill:#000;fill-opacity:.0834951;stroke:#281a15;stroke-width:2;stroke-dasharray:none;stroke-opacity:1" transform="scale(-1 1)"/><circle cx="1283.598" cy="1154.909" r="5.863" style="fill:#352316;fill-opacity:1;stroke:#231713;stroke-width:2;stroke-dasharray:none;stroke-opacity:1"/><path d="M1079.364 1185.293h12.637v25.274h-12.637zM1079.925 1099.924h12.637v25.274h-12.637z" style="fill:#2d2014;fill-opacity:1;stroke:#231713;stroke-width:2;stroke-dasharray:none;stroke-opacity:1"/><path d="M1092.562 1112.561h-12.637M1092.001 1197.93h-12.637" style="fill:#352316;fill-opacity:1;stroke:#231713;stroke-width:2;stroke-dasharray:none;stroke-opacity:1"/><g style="fill:#000;fill-opacity:.1;stroke-width:3.19284"><path d="M96.603 177.888c-7.492-4.148-18.42-6.1-16.538-18.477 2.047-13.45.59-27.703 5.68-40.41 2.7-6.736 7.908-15.23 16.431-13.753 3.778.654 5.71-.964 7.784-1.463 6.472-1.555 17.787-3.446 17.8 6.857.011 7.952 6.012 15.178 3.459 23.367-2.44 7.828-11.778 9.352-16.821 15.057-6.27 7.093 5.46 12.283 8.718 17.747 3.07 5.149 8.255 16.594.113 18.863-8.397 2.34-16.232-1.179-22.735-6.13-1.122-.854-2.622-.956-3.891-1.658" style="fill:#000;fill-opacity:.1;stroke:none;stroke-width:8.17045;stroke-linecap:square;stroke-linejoin:round;stroke-dasharray:none;stroke-opacity:1;paint-order:fill markers stroke;stop-color:#000" transform="rotate(225 1002.658 277.22)scale(.3132)"/><path d="M134.809 161.195c-3.009-.066-6.075-1.87-7.278-4.73-.633-1.502-.646-3.392.484-4.655.531-.595 1.383-.7 2.049-1.133 1.27-.827 1.943-2.563 3.502-2.956 1.027-.26 2.048.21 3.028.478 1.846.502 3.74.959 5.688.713 1.512-.19 2.57 1.52 2.635 2.924.044.938-.487 1.851-1.405 2.196-1.529.573-3.403.204-4.715 1.15-1.523 1.1-.76 3.753-2.227 5.052-.501.444-1.061.976-1.761.96" style="fill:#000;fill-opacity:.1;stroke:none;stroke-width:8.17045;stroke-linecap:square;stroke-linejoin:round;stroke-dasharray:none;stroke-opacity:1;paint-order:fill markers stroke;stop-color:#000" transform="rotate(225 1002.658 277.22)scale(.3132)"/></g><circle cx="1573.769" cy="1203.636" r="13.306" style="fill:#4f4f4f;fill-opacity:1;stroke:#1e1e1e;stroke-width:3;stroke-dasharray:none;stroke-opacity:1"/><circle cx="1573.877" cy="1203.636" r="8.154" style="fill:#444;fill-opacity:1;stroke:#1e1e1e;stroke-width:2;stroke-dasharray:none;stroke-opacity:1"/><path d="m1241.951 1111.765 2.717 7.64 11.504 3.663-5.552 7.65 1.998-6.275-8.101-2.647-11.559 1.402 7.923-2.966-1.106-7.805-4.065-3.192 11.393-3.012-7.143 3.282z" style="display:inline;fill:#38231d;fill-opacity:1;stroke:none;stroke-width:1.51859;stroke-linecap:round;stroke-linejoin:round;stroke-miterlimit:29;stroke-dasharray:none;stroke-opacity:1"/><path d="m1498.575 1190.8 12.097 3.9-10.806-8.58-.708-8.534-2.421 7.027-6.23-1.074 4.924 4.782z" style="display:inline;fill:#38231d;fill-opacity:1;stroke:none;stroke-width:2.64583;stroke-linecap:round;stroke-linejoin:round;stroke-miterlimit:29;stroke-dasharray:none;stroke-opacity:1"/><path d="m1093.313 1163.888-19.719-23.834 18.455 18.912.66-2.174 10.808 12.217-6.788-5.235 3.43 5.843z" style="display:inline;fill:#38231d;fill-opacity:1;stroke:none;stroke-width:2.12831;stroke-linecap:round;stroke-linejoin:round;stroke-miterlimit:29;stroke-dasharray:none;stroke-opacity:1"/><path d="M1206.277 1156.65h-89.055M1161.75 1112.123v89.054M1185.635 1119.068v75.207M1123.185 1132.489h75.207M1123.443 1181.09h75.208M1138.72 1118.567v75.208" style="fill:#38231d;fill-opacity:1;stroke:#231713;stroke-width:3;stroke-dasharray:none;stroke-opacity:1"/></g></svg>