<?xml version="1.0" encoding="UTF-8" standalone="no"?>
<!-- Created with Inkscape (http://www.inkscape.org/) -->

<svg
   width="996.65185"
   height="1548.8246"
   viewBox="0 0 527.39493 819.58634"
   version="1.1"
   id="svg1"
   inkscape:version="1.4 (86a8ad7, 2024-10-11)"
   sodipodi:docname="sawmill_center_warehouse_ceiling_1.svg"
   xmlns:inkscape="http://www.inkscape.org/namespaces/inkscape"
   xmlns:sodipodi="http://sodipodi.sourceforge.net/DTD/sodipodi-0.dtd"
   xmlns="http://www.w3.org/2000/svg"
   xmlns:svg="http://www.w3.org/2000/svg">
  <sodipodi:namedview
     id="namedview1"
     pagecolor="#ffffff"
     bordercolor="#000000"
     borderopacity="0.25"
     inkscape:showpageshadow="2"
     inkscape:pageopacity="0.0"
     inkscape:pagecheckerboard="0"
     inkscape:deskcolor="#d1d1d1"
     inkscape:document-units="mm"
     inkscape:zoom="0.24346724"
     inkscape:cx="998.08089"
     inkscape:cy="1550.5166"
     inkscape:window-width="1920"
     inkscape:window-height="991"
     inkscape:window-x="-9"
     inkscape:window-y="-9"
     inkscape:window-maximized="1"
     inkscape:current-layer="layer1" />
  <defs
     id="defs1" />
  <g
     inkscape:label="Στρώση 1"
     inkscape:groupmode="layer"
     id="layer1"
     transform="translate(146.31458,85.460459)">
    <g
       id="g3"
       transform="translate(-2354.0868,-2514.1094)">
      <rect
         style="fill:#696969;fill-opacity:1;stroke:#313131;stroke-width:5.00001;stroke-dasharray:none;stroke-opacity:1"
         id="rect123"
         width="250.48438"
         height="61.79324"
         x="2217.0005"
         y="2436.8301" />
      <rect
         style="fill:#636363;fill-opacity:1;stroke:#313131;stroke-width:5.00001;stroke-dasharray:none;stroke-opacity:1"
         id="rect101-1"
         width="250.48438"
         height="61.79324"
         x="2217.0005"
         y="2498.6233" />
      <rect
         style="fill:#696969;fill-opacity:1;stroke:#313131;stroke-width:5.00001;stroke-dasharray:none;stroke-opacity:1"
         id="rect101-18"
         width="250.48438"
         height="61.79324"
         x="2217.0005"
         y="2560.4167" />
      <rect
         style="fill:#636363;fill-opacity:1;stroke:#313131;stroke-width:5.00001;stroke-dasharray:none;stroke-opacity:1"
         id="rect101-4"
         width="119.19914"
         height="61.79324"
         x="2217.0005"
         y="2622.2097" />
      <rect
         style="fill:#696969;fill-opacity:1;stroke:#313131;stroke-width:5.00001;stroke-dasharray:none;stroke-opacity:1"
         id="rect101-41"
         width="250.48438"
         height="61.79324"
         x="2217.0005"
         y="2684.0032" />
      <rect
         style="fill:#636363;fill-opacity:1;stroke:#313131;stroke-width:5.00001;stroke-dasharray:none;stroke-opacity:1"
         id="rect101-1-1"
         width="80.347702"
         height="61.79324"
         x="2217.0005"
         y="2745.7964" />
      <rect
         style="fill:#636363;fill-opacity:1;stroke:#313131;stroke-width:5.00001;stroke-dasharray:none;stroke-opacity:1"
         id="rect101-1-1-6"
         width="108.55901"
         height="61.79324"
         x="2361.4424"
         y="2745.5347" />
      <rect
         style="fill:#636363;fill-opacity:1;stroke:#313131;stroke-width:5.00001;stroke-dasharray:none;stroke-opacity:1"
         id="rect101-18-3"
         width="250.48438"
         height="61.79324"
         x="2217.0005"
         y="2807.5894" />
      <rect
         style="fill:#636363;fill-opacity:1;stroke:#313131;stroke-width:5.00001;stroke-dasharray:none;stroke-opacity:1"
         id="rect101-4-8"
         width="202.29527"
         height="61.79324"
         x="2217.0005"
         y="2869.3828" />
      <rect
         style="fill:#696969;fill-opacity:1;stroke:#313131;stroke-width:5.00001;stroke-dasharray:none;stroke-opacity:1"
         id="rect101-41-9"
         width="179.22485"
         height="61.79324"
         x="2217.0005"
         y="2931.176" />
      <rect
         style="fill:#636363;fill-opacity:1;stroke:#313131;stroke-width:4.69601;stroke-dasharray:none;stroke-opacity:1"
         id="rect101-1-1-3"
         width="219.86928"
         height="62.097244"
         x="2216.8484"
         y="2992.8174" />
      <rect
         style="fill:#696969;fill-opacity:1;stroke:#313131;stroke-width:5.00001;stroke-dasharray:none;stroke-opacity:1"
         id="rect101-18-3-1"
         width="250.48438"
         height="61.79324"
         x="2217.0005"
         y="3054.7625" />
      <rect
         style="fill:#636363;fill-opacity:1;stroke:#313131;stroke-width:5.00001;stroke-dasharray:none;stroke-opacity:1"
         id="rect101-4-8-9"
         width="250.48438"
         height="61.79324"
         x="2217.0005"
         y="3116.5557" />
      <rect
         style="fill:#696969;fill-opacity:1;stroke:#313131;stroke-width:5.00001;stroke-dasharray:none;stroke-opacity:1"
         id="rect101-18-3-1-6"
         width="250.48438"
         height="61.79324"
         x="2217.0005"
         y="3178.3491" />
      <rect
         style="fill:#696969;fill-opacity:1;stroke:#313131;stroke-width:5.00001;stroke-dasharray:none;stroke-opacity:1"
         id="rect101-0"
         width="250.48438"
         height="61.79324"
         x="2476.3325"
         y="2436.8301" />
      <rect
         style="fill:#636363;fill-opacity:1;stroke:#313131;stroke-width:5.00001;stroke-dasharray:none;stroke-opacity:1"
         id="rect101-1-9"
         width="250.48438"
         height="61.79324"
         x="2476.3325"
         y="2498.6233" />
      <rect
         style="fill:#696969;fill-opacity:1;stroke:#313131;stroke-width:5.00001;stroke-dasharray:none;stroke-opacity:1"
         id="rect101-18-0"
         width="190.4856"
         height="61.79324"
         x="2536.3313"
         y="2560.4167" />
      <rect
         style="fill:#636363;fill-opacity:1;stroke:#313131;stroke-width:5.00001;stroke-dasharray:none;stroke-opacity:1"
         id="rect101-4-0"
         width="250.48438"
         height="61.79324"
         x="2476.3325"
         y="2622.2097" />
      <rect
         style="fill:#636363;fill-opacity:1;stroke:#313131;stroke-width:5.00001;stroke-dasharray:none;stroke-opacity:1"
         id="rect101-41-6"
         width="124.20042"
         height="61.79324"
         x="2602.6165"
         y="2684.0032" />
      <rect
         style="fill:#636363;fill-opacity:1;stroke:#313131;stroke-width:5.00001;stroke-dasharray:none;stroke-opacity:1"
         id="rect101-1-1-1"
         width="250.48438"
         height="61.79324"
         x="2476.3325"
         y="2745.7964" />
      <rect
         style="fill:#696969;fill-opacity:1;stroke:#313131;stroke-width:5.00001;stroke-dasharray:none;stroke-opacity:1"
         id="rect101-18-3-3"
         width="250.48438"
         height="61.79324"
         x="2476.3325"
         y="2807.5894" />
      <rect
         style="fill:#636363;fill-opacity:1;stroke:#313131;stroke-width:5.00001;stroke-dasharray:none;stroke-opacity:1"
         id="rect101-4-8-8"
         width="250.48438"
         height="61.79324"
         x="2476.3325"
         y="2869.3828" />
      <rect
         style="fill:#696969;fill-opacity:1;stroke:#313131;stroke-width:5.00001;stroke-dasharray:none;stroke-opacity:1"
         id="rect101-41-9-9"
         width="216.28946"
         height="61.79324"
         x="2510.5273"
         y="2931.176" />
      <rect
         style="fill:#636363;fill-opacity:1;stroke:#313131;stroke-width:5.00001;stroke-dasharray:none;stroke-opacity:1"
         id="rect101-1-1-3-3"
         width="198.05783"
         height="61.79324"
         x="2528.759"
         y="2992.9695" />
      <rect
         style="fill:#636363;fill-opacity:1;stroke:#313131;stroke-width:5.00001;stroke-dasharray:none;stroke-opacity:1"
         id="rect101-18-3-1-4"
         width="152.9612"
         height="61.79324"
         x="2573.8557"
         y="3054.7625" />
      <rect
         style="fill:#636363;fill-opacity:1;stroke:#313131;stroke-width:5.00001;stroke-dasharray:none;stroke-opacity:1"
         id="rect101-4-8-9-4"
         width="250.48438"
         height="61.79324"
         x="2476.3325"
         y="3116.5557" />
      <rect
         style="fill:#696969;fill-opacity:1;stroke:#313131;stroke-width:5.00001;stroke-dasharray:none;stroke-opacity:1"
         id="rect101-18-3-1-6-6"
         width="250.48438"
         height="61.79324"
         x="2476.3325"
         y="3178.3491" />
      <path
         style="fill:#38451e;fill-opacity:1;stroke:#242d14;stroke-width:3.67;stroke-linecap:square;stroke-linejoin:round;stroke-dasharray:none;stroke-opacity:1;paint-order:fill markers stroke;stop-color:#000000"
         d="m 2541.9869,2931.262 c 11.4751,0.7149 22.569,-3.8956 34.0046,-5.74 5.0492,-0.8143 12.0712,3.3536 14.024,0.162 1.7914,-2.9284 8.344,-9.3213 11.5592,-10.2829 9.3804,-3.7539 4.0561,-11.874 1.2753,-17.5378 -2.0333,-5.5503 8.2155,-8.7161 8.5639,-14.8541 0.2124,-3.7416 -2.1977,-8.6997 -4.0878,-12.2101 -2.4144,-4.4838 -19.0799,-2.3871 -22.4831,-1.2152 -4.5768,1.5759 -11.2224,0.886 -15.944,-0.4349 -7.1153,-0.5918 -23.6596,-8.4859 -24.9639,2.3808 -0.7914,7.3133 -7.1815,16.6513 -12.3093,22.0003 -4.2714,4.4557 6.5238,17.2811 4.4365,23.1 -1.6172,4.5086 -9.1703,13.6915 -3.7135,14.0315 3.2127,0.2002 6.4254,0.4003 9.6381,0.6004 z"
         id="path62806-46-7" />
      <rect
         style="fill:#888888;fill-opacity:1;stroke:#3b3b3b;stroke-width:4.99999;stroke-dasharray:none;stroke-opacity:1"
         id="rect52-4"
         width="8.8479147"
         height="519.54828"
         x="-2499.4949"
         y="2211.9607"
         transform="rotate(-90)" />
      <path
         style="fill:#38451e;fill-opacity:1;stroke:#242d14;stroke-width:2.99999;stroke-linecap:square;stroke-linejoin:round;stroke-dasharray:none;stroke-opacity:1;paint-order:fill markers stroke;stop-color:#000000"
         d="m 2321.1234,2601.9784 c -7.5792,-0.6458 -14.7211,-6.5778 -18.3665,-13.8215 -2.4007,-4.7712 -2.1388,-10.7474 1.1334,-15.125 4.2666,-5.7077 9.6905,-10.665 16,-13.9606 3.7337,-1.9497 7.9456,-0.3253 11.9148,-1.1812 4.3503,-0.9387 10.1529,-1.5326 13.1269,2.5267 2.3714,3.2371 0.4657,7.339 -0.2509,10.8248 -0.8115,3.9513 -4.5117,6.6571 -8.8356,7.3601 -3.2235,0.5238 -5.7985,3.1519 -8.2587,5.2823 -2.4031,2.0815 -3.6333,5.2354 -5.1484,8.0153 -1.6463,3.02 2.2053,10.3792 -1.3154,10.0792 z"
         id="path26883-4-8" />
      <rect
         style="fill:#888888;fill-opacity:1;stroke:#3b3b3b;stroke-width:4.99999;stroke-dasharray:none;stroke-opacity:1"
         id="rect52-4-8"
         width="8.8479147"
         height="519.54828"
         x="-2562.3157"
         y="2211.9607"
         transform="rotate(-90)" />
      <path
         style="fill:#764b2b;fill-opacity:1;stroke:none;stroke-width:3.67;stroke-linecap:square;stroke-linejoin:round;stroke-dasharray:none;stroke-opacity:1;paint-order:fill markers stroke;stop-color:#000000"
         d="m 2548.6481,2628.9731 c 2.6838,-9.1285 55.0429,-7.7849 63.5962,-10.0005 5.6332,-1.4588 38.9024,-2.1641 42.6211,3.2374 4.8484,7.0429 33.6158,6.2689 35.3964,15.0707 1.0535,5.2075 -14.3481,38.5884 -14.5029,43.7431 -0.1699,5.6504 -40.5887,-3.8165 -45.6281,-1.4286 -4.0191,1.9042 -7.8108,-1.7288 -11.2726,-3.7035 -3.9237,-2.2387 -18.1806,7.0732 -17.7715,1.5297 0.305,-4.1328 -29.0514,1.3554 -30.631,-2.3416 -1.5436,-3.6113 3.7468,-26.0759 1.2361,-28.8134 -2.7273,-2.9739 -24.2906,-13.0533 -23.0437,-17.2933 z"
         id="path26883-3-8-1" />
      <path
         style="fill:#764b2b;fill-opacity:1;stroke:none;stroke-width:3.67;stroke-linecap:square;stroke-linejoin:round;stroke-dasharray:none;stroke-opacity:1;paint-order:fill markers stroke;stop-color:#000000"
         d="m 2605.5036,3059.7871 c 2.6838,-9.1285 34.408,21.5005 42.9613,19.2849 5.6332,-1.4588 45.1036,-24.9017 48.8223,-19.5002 4.8484,7.0429 -18.474,14.5646 -16.6934,23.3664 1.0535,5.2075 37.7417,30.2927 37.5869,35.4474 -0.1699,5.6504 -40.5887,-3.8165 -45.6281,-1.4286 -4.0191,1.9042 -7.8108,-1.7288 -11.2726,-3.7035 -3.9237,-2.2387 -18.1806,7.0732 -17.7715,1.5297 0.305,-4.1328 -29.0514,1.3554 -30.631,-2.3416 -1.5436,-3.6113 3.7468,-26.0759 1.2361,-28.8134 -2.7273,-2.9739 -9.8569,-19.6011 -8.61,-23.8411 z"
         id="path26883-3-8-1-4" />
      <path
         style="fill:#764b2b;fill-opacity:1;stroke:none;stroke-width:3.67;stroke-linecap:square;stroke-linejoin:round;stroke-dasharray:none;stroke-opacity:1;paint-order:fill markers stroke;stop-color:#000000"
         d="m 2257.1743,2807.5896 c 1.8319,-6.2309 23.7904,-9.9807 42.4862,-0.5252 8.6941,4.3971 18.7933,19.8559 21.5083,19.1526 5.6331,-1.4592 45.1036,-24.9017 48.8223,-19.5002 4.8484,7.0429 67.294,19.4682 69.0746,28.27 1.0535,5.2075 -48.0263,25.3891 -48.1811,30.5438 -0.1699,5.6504 -40.5887,-3.8165 -45.6281,-1.4286 -4.0191,1.9042 -7.8108,-1.7288 -11.2726,-3.7035 -3.9237,-2.2387 -18.1806,7.0732 -17.7715,1.5297 0.305,-4.1328 -29.0514,1.3554 -30.631,-2.3416 -1.5436,-3.6113 -37.4598,-18.9458 -39.9705,-21.6833 -2.7273,-2.9739 10.3168,-26.0736 11.5634,-30.3137 z"
         id="path26883-3-8-1-4-8" />
      <rect
         style="fill:#888888;fill-opacity:1;stroke:#3b3b3b;stroke-width:5;stroke-dasharray:none;stroke-opacity:1"
         id="rect52-4-9"
         width="8.8479147"
         height="519.54828"
         x="-2626.1938"
         y="2213.0151"
         transform="rotate(-90)" />
      <rect
         style="fill:#888888;fill-opacity:1;stroke:#3b3b3b;stroke-width:4.99999;stroke-dasharray:none;stroke-opacity:1"
         id="rect52-4-3"
         width="8.8479147"
         height="519.54828"
         x="-2686.2693"
         y="2212.2351"
         transform="rotate(-90)" />
      <rect
         style="fill:#888888;fill-opacity:1;stroke:#3b3b3b;stroke-width:4.99999;stroke-dasharray:none;stroke-opacity:1"
         id="rect52-4-8-6"
         width="8.8479147"
         height="519.54828"
         x="-2749.0901"
         y="2212.2351"
         transform="rotate(-90)" />
      <rect
         style="fill:#888888;fill-opacity:1;stroke:#3b3b3b;stroke-width:4.99999;stroke-dasharray:none;stroke-opacity:1"
         id="rect52-4-9-1"
         width="8.8479147"
         height="519.54828"
         x="-2811.0581"
         y="2211.8599"
         transform="rotate(-90)" />
      <rect
         style="fill:#888888;fill-opacity:1;stroke:#3b3b3b;stroke-width:4.99999;stroke-dasharray:none;stroke-opacity:1"
         id="rect52-4-3-7"
         width="8.8479147"
         height="519.54828"
         x="-2870.9446"
         y="2210.6475"
         transform="rotate(-90)" />
      <rect
         style="fill:#888888;fill-opacity:1;stroke:#3b3b3b;stroke-width:4.99999;stroke-dasharray:none;stroke-opacity:1"
         id="rect52-4-8-6-3"
         width="8.8479147"
         height="519.54828"
         x="-2933.7654"
         y="2210.6475"
         transform="rotate(-90)" />
      <rect
         style="fill:#888888;fill-opacity:1;stroke:#3b3b3b;stroke-width:4.99999;stroke-dasharray:none;stroke-opacity:1"
         id="rect52-4-9-1-7"
         width="8.8479147"
         height="519.54828"
         x="-2995.7334"
         y="2210.2722"
         transform="rotate(-90)" />
      <path
         style="fill:#38451e;fill-opacity:1;stroke:#242d14;stroke-width:3.67;stroke-linecap:square;stroke-linejoin:round;stroke-dasharray:none;stroke-opacity:1;paint-order:fill markers stroke;stop-color:#000000"
         d="m 2287.0097,3104.1474 c -8.1855,-0.5852 -15.9713,-6.89 -20.0031,-14.6646 -2.6553,-5.1204 -8.5525,-30.6019 -5.0824,-35.3815 4.5245,-6.2318 16.4055,7.3486 23.1675,3.6933 4.0005,-2.1627 8.5668,-0.4699 12.837,-1.4539 4.6806,-1.0783 20.2337,-6.582 23.4974,-2.2394 2.6029,3.4635 4.3237,6.1326 3.5992,9.9107 -0.8216,4.2822 -1.8822,12.3819 -6.5371,13.2056 -3.4703,0.6141 -11.1729,11.3478 -13.7979,13.6864 -2.5639,2.2851 -14.8033,-0.6959 -16.3998,2.3311 -1.7345,3.2883 2.5213,11.1844 -1.2808,10.9123 z"
         id="path26883-3-8-7" />
      <rect
         style="fill:#888888;fill-opacity:1;stroke:#3b3b3b;stroke-width:4.99999;stroke-dasharray:none;stroke-opacity:1"
         id="rect52-4-3-5"
         width="8.8479147"
         height="519.54828"
         x="-3059.4756"
         y="2213.1189"
         transform="rotate(-90)" />
      <rect
         style="fill:#888888;fill-opacity:1;stroke:#3b3b3b;stroke-width:4.99999;stroke-dasharray:none;stroke-opacity:1"
         id="rect52-4-8-6-7"
         width="8.8479147"
         height="519.54828"
         x="-3122.2964"
         y="2213.1189"
         transform="rotate(-90)" />
      <rect
         style="fill:#888888;fill-opacity:1;stroke:#3b3b3b;stroke-width:4.99999;stroke-dasharray:none;stroke-opacity:1"
         id="rect52-4-9-1-5"
         width="8.8479147"
         height="519.54828"
         x="-3184.2644"
         y="2212.7437"
         transform="rotate(-90)" />
      <rect
         style="fill:#888888;fill-opacity:1;stroke:#3b3b3b;stroke-width:4.67624;stroke-dasharray:none;stroke-opacity:1"
         id="rect52"
         width="8.8136168"
         height="446.64655"
         x="2467.502"
         y="2430.9871" />
      <rect
         style="fill:#888888;fill-opacity:1;stroke:#3b3b3b;stroke-width:4.99997;stroke-dasharray:none;stroke-opacity:1"
         id="rect52-2"
         width="8.8479147"
         height="137.82198"
         x="2467.4849"
         y="3107.9133" />
      <path
         style="fill:#38451e;fill-opacity:1;stroke:#242d14;stroke-width:3.67;stroke-linecap:square;stroke-linejoin:round;stroke-dasharray:none;stroke-opacity:1;paint-order:fill markers stroke;stop-color:#000000"
         d="m 2562.641,3100.8954 c -3.5859,-7.3814 -2.0187,-17.2765 2.6984,-24.6555 3.1068,-4.8597 8.8041,-7.9174 14.6784,-7.3021 7.6592,0.8025 15.2604,3.0918 21.807,7.1202 3.8732,2.3832 4.6903,7.1841 7.6775,10.3902 3.2742,3.5144 7.0312,8.5636 4.9022,13.5614 -1.698,3.9859 -6.5616,4.4846 -10.1957,5.7462 -4.1193,1.4296 -8.677,-0.5052 -11.7178,-4.1246 -2.267,-2.6983 -6.131,-3.6332 -9.4688,-4.7372 -3.2609,-1.0779 -6.8707,-0.4764 -10.2904,-0.3455 -3.715,0.142 -8.4253,7.7757 -10.0908,4.3469 z"
         id="path26883-3-8" />
      <path
         style="fill:#38451e;fill-opacity:1;stroke:#242d14;stroke-width:3.67;stroke-linecap:square;stroke-linejoin:round;stroke-dasharray:none;stroke-opacity:1;paint-order:fill markers stroke;stop-color:#000000"
         d="m 2622.1041,2889.9792 c 2.9599,-2.6505 7.7152,-3.1669 11.6996,-1.8617 2.6241,0.8597 4.7375,3.1834 5.1795,6.0603 0.5761,3.751 0.4597,7.6642 -0.5887,11.2971 -0.6203,2.1492 -2.7326,3.1513 -3.8416,4.9835 -1.2157,2.0083 -3.0793,4.4426 -5.6463,4.0663 -2.0473,-0.3001 -2.878,-2.5533 -3.9085,-4.1235 -1.1679,-1.7798 -0.8389,-4.1979 0.454,-6.1085 0.9639,-1.4243 0.9176,-3.3843 1.0143,-5.1153 0.094,-1.691 -0.6291,-3.3338 -1.1119,-4.9461 -0.5244,-1.7516 -4.6254,-3.0211 -3.2504,-4.2521 z"
         id="path26883-3-8-5" />
      <path
         style="display:inline;fill:#363636;fill-opacity:1;stroke:none;stroke-width:1.51859;stroke-linecap:round;stroke-linejoin:round;stroke-miterlimit:29;stroke-dasharray:none;stroke-opacity:1"
         d="m 2366.1861,3154.1683 7.1273,-3.8679 1.836,-11.9329 8.4181,4.2999 -6.5087,-1.0013 -1.3599,8.4134 3.176,11.2016 -4.1579,-7.3678 -7.5393,2.302 -2.5233,4.5112 -4.7416,-10.7894 4.349,6.5482 z"
         id="path210-9-2-3-6" />
      <path
         style="display:inline;fill:#363636;fill-opacity:1;stroke:none;stroke-width:1.51859;stroke-linecap:round;stroke-linejoin:round;stroke-miterlimit:29;stroke-dasharray:none;stroke-opacity:1"
         d="m 2295.5042,2521.0472 3.8679,7.1273 11.9329,1.836 -4.2999,8.4181 1.0013,-6.5087 -8.4134,-1.3599 -11.2016,3.176 7.3678,-4.1579 -2.302,-7.5393 -4.5112,-2.5233 10.7894,-4.7416 -6.5482,4.349 z"
         id="path210-9-2-3-6-3" />
      <path
         style="display:inline;fill:#54361f;fill-opacity:1;stroke:none;stroke-width:1.51859;stroke-linecap:round;stroke-linejoin:round;stroke-miterlimit:29;stroke-dasharray:none;stroke-opacity:1"
         d="m 2589.8705,2646.2536 3.8679,7.1273 11.9329,1.836 -4.2999,8.4181 1.0013,-6.5087 -8.4134,-1.3599 -11.2016,3.176 7.3678,-4.1579 -2.302,-7.5393 -4.5112,-2.5233 10.7894,-4.7416 -6.5482,4.349 z"
         id="path210-9-2-3-6-7" />
      <path
         style="display:inline;fill:#54361f;fill-opacity:1;stroke:none;stroke-width:1.51859;stroke-linecap:round;stroke-linejoin:round;stroke-miterlimit:29;stroke-dasharray:none;stroke-opacity:1"
         d="m 2280.7209,2830.776 3.8679,7.1273 11.9329,1.836 -4.2999,8.4181 1.0013,-6.5087 -8.4134,-1.3599 -11.2016,3.176 7.3678,-4.1579 -2.302,-7.5393 -4.5112,-2.5233 10.7894,-4.7416 -6.5482,4.349 z"
         id="path210-9-2-3-6-7-1" />
      <path
         style="display:inline;fill:#424242;fill-opacity:1;stroke:none;stroke-width:2.64583;stroke-linecap:round;stroke-linejoin:round;stroke-miterlimit:29;stroke-dasharray:none;stroke-opacity:1"
         d="m 2599.0678,3015.5583 -11.9614,-8.2771 8.9985,12.9763 -2.0491,9.5835 4.9782,-6.8961 6.4696,3.2381 -3.8125,-6.8692 z"
         id="path214-3-4-5-0-9-1" />
      <path
         style="display:inline;fill:#54361f;fill-opacity:1;stroke:none;stroke-width:2.64583;stroke-linecap:round;stroke-linejoin:round;stroke-miterlimit:29;stroke-dasharray:none;stroke-opacity:1"
         d="m 2654.9891,2648.5661 -8.8255,11.5627 13.3815,-8.3841 9.4776,2.4935 -6.6566,-5.2942 3.536,-6.3117 -7.0393,3.4883 z"
         id="path214-3-4-5-0-9-1-8" />
      <path
         style="display:inline;fill:#54361f;fill-opacity:1;stroke:none;stroke-width:2.64583;stroke-linecap:round;stroke-linejoin:round;stroke-miterlimit:29;stroke-dasharray:none;stroke-opacity:1"
         d="m 2672.2483,3089.5984 -11.5627,-8.8255 8.3841,13.3815 -2.4935,9.4776 5.2942,-6.6566 6.3117,3.536 -3.4883,-7.0393 z"
         id="path214-3-4-5-0-9-1-8-6" />
      <path
         style="display:inline;fill:#363636;fill-opacity:1;stroke:none;stroke-width:2.12831;stroke-linecap:round;stroke-linejoin:round;stroke-miterlimit:29;stroke-dasharray:none;stroke-opacity:1"
         d="m 2646.986,2716.4593 28.7729,-11.3593 -23.7011,11.6835 1.8619,1.3008 -14.9656,6.4898 7.0812,-4.8314 -6.6184,1.4499 z"
         id="path211-6-2-0-5-8" />
      <path
         style="display:inline;fill:#54361f;fill-opacity:1;stroke:none;stroke-width:2.12831;stroke-linecap:round;stroke-linejoin:round;stroke-miterlimit:29;stroke-dasharray:none;stroke-opacity:1"
         d="m 2379.4964,2839.6008 28.7729,-11.3593 -23.7011,11.6835 1.8619,1.3008 -14.9656,6.4898 7.0812,-4.8314 -6.6184,1.4499 z"
         id="path211-6-2-0-5-1" />
      <path
         style="display:inline;fill:#363636;fill-opacity:1;stroke:none;stroke-width:2.12831;stroke-linecap:round;stroke-linejoin:round;stroke-miterlimit:29;stroke-dasharray:none;stroke-opacity:1"
         d="m 2388.536,3025.9163 28.7729,-11.3593 -23.7011,11.6835 1.8619,1.3008 -14.9656,6.4898 7.0812,-4.8314 -6.6184,1.4499 z"
         id="path211-6-2-0-5-0" />
      <rect
         style="fill:#000000;fill-opacity:0.0810185;stroke:none;stroke-width:4.99999;stroke-dasharray:none;stroke-opacity:1"
         id="rect102"
         width="250.4142"
         height="808.31213"
         x="2214.7495"
         y="2434.3301" />
    </g>
  </g>
</svg>
