<svg xmlns="http://www.w3.org/2000/svg" xmlns:xlink="http://www.w3.org/1999/xlink" xml:space="preserve" width="1871.43" height="1230.048" viewBox="0 0 495.149 325.45"><defs><pattern xlink:href="#a" id="f" x="0" y="0" patternTransform="matrix(.4 0 0 .4 2742.785 3083.99)" preserveAspectRatio="xMidYMid"/><pattern id="a" width="106.48" height="106.48" patternTransform="translate(2077.082 3716.393)" patternUnits="userSpaceOnUse" preserveAspectRatio="xMidYMid"><path d="M0 0h106.48v106.48H0z" style="fill:#5e5e5e;fill-opacity:1;stroke-width:1.99937;stroke-linecap:round;stroke-linejoin:round"/><path d="M0 0v106.48h5.66V5.66h100.82V0Z" style="fill:#4d4d4d;fill-opacity:1;stroke:none;stroke-width:1.99937;stroke-linecap:round;stroke-linejoin:round"/></pattern><pattern xlink:href="#b" id="g" x="0" y="0" patternTransform="matrix(.3 0 0 .3 665.702 -542.403)" preserveAspectRatio="xMidYMid"/><pattern id="b" width="194" height="180" patternTransform="translate(0 90)" patternUnits="userSpaceOnUse" preserveAspectRatio="xMidYMid"><path d="M87.395 148.65h51.329v47.625h-51.33Z" style="fill:#5b412f;stroke-width:.264583;stroke-linecap:square;stroke-linejoin:round;paint-order:stroke fill markers" transform="matrix(3.77953 0 0 3.77953 -330.31 -561.827)"/><path d="M88.32 148.65v7.482c0 .487.284.601.636.257l7.915-7.739zm11.204 0-10.568 10.333c-.352.344-.635 1.012-.635 1.498v7.558c0 .486.283.6.635.256l20.092-19.645Zm17.546 0 20.093 19.645c.352.344.635.23.635-.256v-7.558c0-.486-.283-1.154-.635-1.498l-10.568-10.333zm12.177 0 7.916 7.74c.352.343.635.229.635-.258v-7.482zm-17.3.016c-.114-.047-.273.01-.449.183l-22.542 22.04c-.352.344-.635 1.012-.635 1.499v7.557c0 .486.283.6.635.257l22.542-22.04c.352-.345.635-1.013.635-1.5v-7.557c0-.243-.07-.393-.185-.44m2.224 0c-.115.046-.186.196-.186.44v7.557c0 .486.284 1.154.635 1.498l22.543 22.04c.352.345.635.23.635-.256v-7.557c0-.487-.283-1.155-.635-1.499l-22.543-22.04c-.175-.172-.334-.23-.45-.183m-2.223 11.906c-.115-.047-.274.01-.45.183l-22.542 22.04c-.352.344-.635 1.013-.635 1.499v7.557c0 .487.283.6.635.257l22.542-22.04c.352-.345.635-1.013.635-1.5v-7.556c0-.244-.07-.394-.185-.44m2.223 0c-.115.046-.186.196-.186.44v7.557c0 .486.284 1.154.635 1.498l22.543 22.04c.352.345.635.23.635-.256v-7.557c0-.486-.283-1.155-.635-1.499l-22.543-22.04c-.175-.172-.334-.23-.45-.183m-2.223 11.906c-.115-.046-.274.011-.45.183l-22.542 22.04c-.352.345-.635 1.013-.635 1.5v.074h8.55l14.627-14.301c.352-.344.635-1.013.635-1.499v-7.557c0-.243-.07-.393-.185-.44m2.223 0c-.115.047-.186.197-.186.44v7.557c0 .486.284 1.155.635 1.499l14.627 14.301h8.55v-.075c0-.486-.282-1.154-.634-1.498l-22.543-22.04c-.175-.173-.334-.23-.45-.184m-2.223 11.906c-.115-.046-.274.011-.45.183l-11.974 11.708h9.524l2.45-2.395c.352-.344.635-1.012.635-1.499v-7.557c0-.243-.07-.393-.185-.44m2.223 0c-.115.047-.186.197-.186.44v7.557c0 .487.284 1.155.635 1.499l2.45 2.395h9.525l-11.975-11.708c-.175-.172-.334-.23-.45-.183" style="fill:#775b3c;stroke-width:.181404;stroke-linecap:square;stroke-linejoin:round;paint-order:stroke fill markers" transform="matrix(3.77953 0 0 3.77953 -330.31 -561.827)"/></pattern><pattern xlink:href="#c" id="h" x="0" y="0" patternTransform="matrix(.3 0 0 .3 5644.31 3880.905)" preserveAspectRatio="xMidYMid"/><pattern id="c" width="191.913" height="191.294" patternTransform="translate(4978.608 4513.307)" patternUnits="userSpaceOnUse" preserveAspectRatio="xMidYMid"><g clip-path="url(#d)" transform="matrix(3.77953 0 0 3.77953 -4710.492 -3243.508)"><path d="M1272.703-909.791h25.391v25.304h-25.391z" style="fill:#595650;fill-opacity:1;stroke:#42403d;stroke-width:2.00001;stroke-linecap:round;stroke-dasharray:none;stroke-opacity:1;stop-color:#000" transform="scale(1 -1)"/><path d="M1247.318 884.487h25.391v25.304h-25.391z" style="fill:#bbb9b4;fill-opacity:1;stroke:#42403d;stroke-width:2.00001;stroke-linecap:round;stroke-dasharray:none;stroke-opacity:1;stop-color:#000"/><path d="M-1272.709 859.178h25.391v25.304h-25.391z" style="fill:#595650;fill-opacity:1;stroke:#42403d;stroke-width:2.00001;stroke-linecap:round;stroke-dasharray:none;stroke-opacity:1;stop-color:#000" transform="scale(-1 1)"/><path d="M-1298.078-884.482h25.391v25.304h-25.391z" style="fill:#bbb9b4;fill-opacity:1;stroke:#42403d;stroke-width:2.00001;stroke-linecap:round;stroke-dasharray:none;stroke-opacity:1;stop-color:#000" transform="scale(-1)"/></g></pattern><pattern xlink:href="#a" id="i" x="0" y="0" patternTransform="matrix(.42709 0 0 .39944 2700.01 3084.065)" preserveAspectRatio="xMidYMid"/><clipPath id="d" clipPathUnits="userSpaceOnUse"><path d="M1246.316 858.177h50.778v50.615h-50.778z" style="fill:#000;fill-opacity:.259934;stroke:none;stroke-width:1.94774;stroke-linejoin:round;stroke-dasharray:none;stroke-opacity:1"/></clipPath></defs><path d="M3477.379 2833.715h381.16v617.955h-381.16z" style="fill:url(#f);fill-opacity:1;stroke:none;stroke-width:10.5833;stroke-dasharray:none;stroke-opacity:1" transform="translate(-3368.681 -3131.534)"/><path d="M3477.378 2833.715v301.939h217.981v66.236h157.888v-66.236h-1.05v-301.939z" style="fill:url(#g);fill-opacity:1;stroke:none;stroke-width:10.5833;stroke-dasharray:none;stroke-opacity:1" transform="translate(-3368.681 -3131.534)"/><path d="M3477.378 2833.715h133.783v93.359h-133.783z" style="fill:url(#h);fill-opacity:1;stroke:none;stroke-width:3.96875;stroke-dasharray:none;stroke-opacity:1" transform="translate(-3368.681 -3131.534)"/><path d="M2798.493-3764.353h36.146v188.072h-36.146z" style="fill:#4c4c4c;fill-opacity:1;stroke:#343434;stroke-width:4.18071;stroke-dasharray:none;stroke-opacity:1" transform="rotate(90 -118.574 -3250.107)"/><path d="M3374.447 3137.282h109.902v313.946h-109.902z" style="fill:url(#i);fill-opacity:1;stroke:none;stroke-width:11.4703;stroke-dasharray:none" transform="translate(-3368.681 -3131.534)"/><path d="M3853.23 3203.663h-161.181" style="fill:#341b0b;fill-opacity:1;stroke:#341b0b;stroke-width:10.6174;stroke-dasharray:none;stroke-opacity:1" transform="translate(-3368.681 -3131.534)"/><path d="M3700.073 3136.838H3482.67" style="fill:#341b0b;fill-opacity:1;stroke:#341b0b;stroke-width:10.5833;stroke-dasharray:none;stroke-opacity:1" transform="translate(-3368.681 -3131.534)"/><path d="M3736.99 2837.194v91.973M3611.162 2839.007v91.973M3482.67 2925.688h69.372M3736.99 3003.48v85.741M3853.247 3083.93h-121.548" style="fill:#585858;fill-opacity:1;stroke:#341b0b;stroke-width:10.5833;stroke-dasharray:none;stroke-opacity:1" transform="translate(-3368.681 -3131.534)"/><path d="M3484.598 3050.186h142.772v79.79h-142.772z" style="fill:#185713;fill-opacity:1;stroke:#0e340b;stroke-width:3.96875;stroke-dasharray:none;stroke-opacity:1" transform="translate(-3368.681 -3131.534)"/><path d="M3670.317 2798.494v36.855" style="fill:#454545;fill-opacity:1;stroke:#333;stroke-width:4.80782;stroke-dasharray:none;stroke-opacity:1" transform="translate(-3368.681 -3131.534)"/><path d="m3526.398 3320.917 8.004 1.307 8.758-8.31 4.022 8.555-4.532-4.778-6.227 5.819-4.349 10.8 1.225-8.37-7.37-2.797-4.757 2.021 2.858-11.433-.572 7.84z" style="display:inline;fill:#333;fill-opacity:1;stroke:none;stroke-width:1.51859;stroke-linecap:round;stroke-linejoin:round;stroke-miterlimit:29;stroke-dasharray:none;stroke-opacity:1" transform="translate(-3368.681 -3131.534)"/><path d="m3778.46 2942.69 8.004 1.306 8.759-8.31 4.022 8.555-4.533-4.777-6.227 5.819-4.348 10.8 1.224-8.37-7.37-2.798-4.757 2.021 2.858-11.433-.572 7.84z" style="display:inline;fill:#503929;fill-opacity:1;stroke:none;stroke-width:1.51859;stroke-linecap:round;stroke-linejoin:round;stroke-miterlimit:29;stroke-dasharray:none;stroke-opacity:1" transform="translate(-3368.681 -3131.534)"/><path d="m3606.79 3193.352 28.115-12.902-23.033 12.95 1.93 1.199-14.592 7.291 6.81-5.208-6.53 1.807z" style="display:inline;fill:#333;fill-opacity:1;stroke:none;stroke-width:2.12831;stroke-linecap:round;stroke-linejoin:round;stroke-miterlimit:29;stroke-dasharray:none;stroke-opacity:1" transform="translate(-3368.681 -3131.534)"/><path d="m3770.717 3153.42-14.902-27.107 14.583 22.036 1.055-2.012 8.328 14.026-5.687-6.414 2.274 6.382z" style="display:inline;fill:#503929;fill-opacity:1;stroke:none;stroke-width:2.12831;stroke-linecap:round;stroke-linejoin:round;stroke-miterlimit:29;stroke-dasharray:none;stroke-opacity:1" transform="translate(-3368.681 -3131.534)"/><path d="m3739.15 3280.826-6.662 12.93 11.705-10.6 9.768.794-7.482-4.045 2.375-6.834-6.319 4.668z" style="display:inline;fill:#333;fill-opacity:1;stroke:none;stroke-width:2.64583;stroke-linecap:round;stroke-linejoin:round;stroke-miterlimit:29;stroke-dasharray:none;stroke-opacity:1" transform="translate(-3368.681 -3131.534)"/><path d="m3612.624 2978.624.04 14.546 5.51-14.8 9.036-3.793-8.504-.146-1.038-7.16-3.46 7.054z" style="display:inline;fill:#503929;fill-opacity:1;stroke:none;stroke-width:2.64583;stroke-linecap:round;stroke-linejoin:round;stroke-miterlimit:29;stroke-dasharray:none;stroke-opacity:1" transform="translate(-3368.681 -3131.534)"/><path d="M3767.637 2833.715h90.901" style="fill:#585858;fill-opacity:1;stroke:#a4a4a4;stroke-width:0;stroke-dasharray:none;stroke-opacity:1" transform="translate(-3368.681 -3131.534)"/><path d="M3723.345 2833.715h140.485M3472.087 2833.715h144.366M3368.712 3136.838h113.959M3477.379 3142.13v-313.706M3374.004 3208.747v-77.2" style="fill:#585858;fill-opacity:1;stroke:#3b0f0f;stroke-width:10.5833;stroke-dasharray:none;stroke-opacity:1" transform="translate(-3368.681 -3131.534)"/><path d="M3373.555 3456.652v-77.49" style="fill:#585858;fill-opacity:1;stroke:#3b0f0f;stroke-width:10.5622;stroke-dasharray:none;stroke-opacity:1" transform="translate(-3368.681 -3131.534)"/><path d="M3370.09 3451.67h429.625" style="fill:#585858;fill-opacity:1;stroke:#3b0f0f;stroke-width:9.87226;stroke-dasharray:none;stroke-opacity:1" transform="translate(-3368.681 -3131.534)"/><path d="M3858.539 3456.962v-628.538" style="fill:#585858;fill-opacity:1;stroke:#3b0f0f;stroke-width:10.5833;stroke-dasharray:none;stroke-opacity:1" transform="translate(-3368.681 -3131.534)"/><path d="M3494.811 3060.863h122.51v14.219h-122.51z" style="fill:#207418;fill-opacity:1;stroke:none;stroke-width:3.96875;stroke-dasharray:none;stroke-opacity:1" transform="translate(-3368.681 -3131.534)"/><path d="M-3120.713 3494.861h59.85v14.219h-59.85zM-3120.713 3603.102h59.85v14.219h-59.85z" style="fill:#207418;fill-opacity:1;stroke:none;stroke-width:3.96875;stroke-dasharray:none;stroke-opacity:1" transform="rotate(-90 -3250.107 118.574)"/><path d="M3494.811 3106.494h122.51v14.219h-122.51z" style="fill:#207418;fill-opacity:1;stroke:none;stroke-width:3.96875;stroke-dasharray:none;stroke-opacity:1" transform="translate(-3368.681 -3131.534)"/><path d="M3725.777 2833.715h135.804M3474.336 2833.715h140.067M3370.961 3136.838h109.46" style="fill:#585858;fill-opacity:1;stroke:#5a1919;stroke-width:6.08542;stroke-dasharray:none;stroke-opacity:1" transform="translate(-3368.681 -3131.534)"/><path d="M3477.379 3139.88v-309.208" style="fill:#585858;fill-opacity:1;stroke:#5a1919;stroke-width:6.08541;stroke-dasharray:none;stroke-opacity:1" transform="translate(-3368.681 -3131.534)"/><path d="M3374.004 3206.455v-72.66" style="fill:#585858;fill-opacity:1;stroke:#5a1919;stroke-width:6.08542;stroke-dasharray:none;stroke-opacity:1" transform="translate(-3368.681 -3131.534)"/><path d="M3373.555 3454.43v-73.173" style="fill:#585858;fill-opacity:1;stroke:#5a1919;stroke-width:6.07364;stroke-dasharray:none;stroke-opacity:1" transform="translate(-3368.681 -3131.534)"/><path d="M3370.458 3451.67h427.3" style="fill:#585858;fill-opacity:1;stroke:#5a1919;stroke-width:5.67658;stroke-dasharray:none;stroke-opacity:1" transform="translate(-3368.681 -3131.534)"/><path d="M3858.539 3454.713v-624.04" style="fill:#585858;fill-opacity:1;stroke:#5a1919;stroke-width:6.08542;stroke-dasharray:none;stroke-opacity:1" transform="translate(-3368.681 -3131.534)"/></svg>