<svg xmlns="http://www.w3.org/2000/svg" width="615.442" height="310.392" viewBox="0 0 325.672 164.249"><g transform="matrix(1.34671 0 0 1.27903 11756.153 2163.65)"><rect width="26.147" height="126.117" x="-8726.265" y="-1690.482" rx="0" ry="0" style="fill:#472828;fill-opacity:1;stroke:#291818;stroke-width:2.3;stroke-linecap:round;stroke-linejoin:round;stroke-dasharray:none;stroke-opacity:1"/><rect width="26.147" height="126.117" x="-8700.118" y="-1690.482" rx="0" ry="0" style="fill:#472828;fill-opacity:1;stroke:#291818;stroke-width:2.3;stroke-linecap:round;stroke-linejoin:round;stroke-dasharray:none;stroke-opacity:1"/><rect width="26.147" height="126.117" x="-8673.972" y="-1690.482" rx="0" ry="0" style="fill:#472828;fill-opacity:1;stroke:#291818;stroke-width:2.3;stroke-linecap:round;stroke-linejoin:round;stroke-dasharray:none;stroke-opacity:1"/><rect width="26.147" height="126.117" x="-8647.825" y="-1690.482" rx="0" ry="0" style="fill:#472828;fill-opacity:1;stroke:#291818;stroke-width:2.3;stroke-linecap:round;stroke-linejoin:round;stroke-dasharray:none;stroke-opacity:1"/><rect width="26.147" height="126.117" x="-8621.679" y="-1690.482" rx="0" ry="0" style="fill:#472828;fill-opacity:1;stroke:#291818;stroke-width:2.3;stroke-linecap:round;stroke-linejoin:round;stroke-dasharray:none;stroke-opacity:1"/><rect width="26.147" height="126.117" x="-8595.533" y="-1690.482" rx="0" ry="0" style="fill:#472828;fill-opacity:1;stroke:#291818;stroke-width:2.3;stroke-linecap:round;stroke-linejoin:round;stroke-dasharray:none;stroke-opacity:1"/><rect width="26.147" height="126.117" x="-8569.387" y="-1690.482" rx="0" ry="0" style="fill:#472828;fill-opacity:1;stroke:#291818;stroke-width:2.3;stroke-linecap:round;stroke-linejoin:round;stroke-dasharray:none;stroke-opacity:1"/><rect width="26.147" height="126.117" x="-8543.24" y="-1690.482" rx="0" ry="0" style="fill:#472828;fill-opacity:1;stroke:#291818;stroke-width:2.3;stroke-linecap:round;stroke-linejoin:round;stroke-dasharray:none;stroke-opacity:1"/><rect width="26.147" height="126.117" x="-8517.094" y="-1690.482" rx="0" ry="0" style="fill:#472828;fill-opacity:1;stroke:#291818;stroke-width:2.3;stroke-linecap:round;stroke-linejoin:round;stroke-dasharray:none;stroke-opacity:1"/><path d="M-8726.265-1619.598h235.318v55.232h-235.318z" style="fill:#000;fill-opacity:.118812;stroke:none;stroke-width:2.3;stroke-linecap:square;stroke-linejoin:round;stroke-dasharray:none;stroke-opacity:1"/><path d="M-8728.369-1635.25h239.527v15.652h-239.527z" style="fill:#472828;fill-opacity:1;stroke:#291818;stroke-width:2.3;stroke-linecap:square;stroke-linejoin:round;stroke-dasharray:none;stroke-opacity:1"/></g><path d="M1769.272 3237.587c-.7-2.897 29.64 3.404 24.47 6.891-5.238 3.533 10.335 2.05 8.404 2.601-3.156.9-9.292 27.37-11.314 24.518-4.504-6.354-22.105 5.426-26.556 6.478-2.633.622-2.534 2.947-5.141 2.855-2.857-.1-11.529-.87-12.736-3.845-.963-2.373-10.651-5.128 4.05-11.213 5.721-2.368-2.749-6.953 1.963-9.315 1.827-.911 6.217-9.965 4.656-11.263-2.584-2.148 13-4.412 12.204-7.707zM1909.7 3365.7c.7 2.897-29.641-3.404-24.471-6.89 5.238-3.533-10.335-2.051-8.404-2.602 3.156-.9.669-23.131 2.69-20.279 4.504 6.354 31.681-22.372 32.256-17.835.295 2.326 5.458 4.172 8.065 4.263 2.857.1 22.43 1.889 19.314 2.663-3.715.922 10.797 16.74-3.904 22.824 2.305 5.09-16.746 5.717-13.343 10.15 2.584 2.147-13 4.411-12.204 7.706z" style="fill:#38451e;fill-opacity:1;stroke:#242d14;stroke-width:3.67;stroke-linecap:square;stroke-linejoin:round;stroke-dasharray:none;stroke-opacity:1;paint-order:fill markers stroke;stop-color:#000" transform="translate(-1671.937 -3218.735)"/></svg>