<?xml version="1.0" encoding="UTF-8" standalone="no"?>
<!-- Created with Inkscape (http://www.inkscape.org/) -->

<svg
   width="1154.4863"
   height="563.95142"
   viewBox="0 0 305.45783 149.21215"
   version="1.1"
   id="svg1"
   inkscape:version="1.4 (86a8ad7, 2024-10-11)"
   sodipodi:docname="sawmill_office_floor.svg"
   xmlns:inkscape="http://www.inkscape.org/namespaces/inkscape"
   xmlns:sodipodi="http://sodipodi.sourceforge.net/DTD/sodipodi-0.dtd"
   xmlns:xlink="http://www.w3.org/1999/xlink"
   xmlns="http://www.w3.org/2000/svg"
   xmlns:svg="http://www.w3.org/2000/svg">
  <sodipodi:namedview
     id="namedview1"
     pagecolor="#ffffff"
     bordercolor="#000000"
     borderopacity="0.25"
     inkscape:showpageshadow="2"
     inkscape:pageopacity="0.0"
     inkscape:pagecheckerboard="0"
     inkscape:deskcolor="#d1d1d1"
     inkscape:document-units="mm"
     inkscape:zoom="0.68862935"
     inkscape:cx="742.05376"
     inkscape:cy="189.50688"
     inkscape:window-width="1920"
     inkscape:window-height="991"
     inkscape:window-x="-9"
     inkscape:window-y="-9"
     inkscape:window-maximized="1"
     inkscape:current-layer="g2" />
  <defs
     id="defs1">
    <pattern
       xlink:href="#pattern30-5-6"
       preserveAspectRatio="xMidYMid"
       id="pattern331"
       patternTransform="matrix(0.3,0,0,0.35917603,-118.06004,-589.96661)"
       x="0"
       y="0" />
    <pattern
       patternUnits="userSpaceOnUse"
       width="338.127"
       height="182.91212"
       patternTransform="translate(244.99999,643.99997)"
       preserveAspectRatio="xMidYMid"
       id="pattern30-5-6">
      <path
         id="rect75879-2-0"
         style="fill:#543d2b;fill-opacity:1;stroke-width:5.1292;paint-order:markers stroke fill"
         d="M 0,0 V 182.91212 H 338.12698 V 0 Z" />
      <rect
         style="fill:#644c33;fill-opacity:1;stroke-width:1.54049;paint-order:markers stroke fill"
         id="rect18-1-9-9"
         width="39.616203"
         height="163.38123"
         x="-136.36732"
         y="-291.73346"
         ry="3.602"
         rx="3.6018958"
         transform="matrix(0,-1,-1,0,0,0)" />
      <rect
         style="fill:#694c30;fill-opacity:1;stroke-width:1.54049;paint-order:markers stroke fill"
         id="rect15-5-0-5"
         width="39.616203"
         height="163.38123"
         x="-90.501572"
         y="-216.4617"
         ry="3.602"
         rx="3.602"
         transform="matrix(0,-1,-1,0,0,0)" />
      <rect
         style="fill:#644c33;fill-opacity:1;stroke-width:1.54049;paint-order:markers stroke fill"
         id="rect12-9-2-1-8"
         width="39.616203"
         height="163.38123"
         x="-45.341015"
         y="-246.04015"
         ry="3.602"
         rx="3.6018958"
         transform="matrix(0,-1,-1,0,0,0)" />
      <rect
         style="fill:#694c30;fill-opacity:1;stroke-width:1.54049;paint-order:markers stroke fill"
         id="rect75881-8-9"
         width="39.616203"
         height="163.38123"
         x="-182.91211"
         y="-338.12701"
         ry="3.602"
         rx="3.6018958"
         transform="matrix(0,-1,-1,0,0,0)" />
      <rect
         style="fill:#644c33;fill-opacity:1;stroke-width:1.54049;paint-order:markers stroke fill"
         id="rect75663-3-0"
         width="39.616203"
         height="163.38123"
         x="-182.91211"
         y="-169.08337"
         ry="3.602"
         rx="3.602"
         transform="matrix(0,-1,-1,0,0,0)" />
      <path
         id="rect11-9-8-0"
         style="fill:#694c30;fill-opacity:1;stroke-width:1.54049;paint-order:markers stroke fill"
         d="M 0,5.7246236 V 45.34182 h 73.05078 c 1.995507,0 3.601561,-1.608038 3.601561,-3.603515 V 9.3261732 c 0,-1.995515 -1.606054,-3.6015496 -3.601561,-3.6015496 z" />
      <path
         id="rect13-1-0-0"
         style="fill:#694c30;fill-opacity:1;stroke-width:1.54049;paint-order:markers stroke fill"
         d="m 255.64843,5.7263622 c -1.99548,0 -3.60155,1.6060724 -3.60155,3.6015873 V 41.740044 c 0,1.995515 1.60607,3.601549 3.60155,3.601549 h 82.47855 V 5.7263622 Z" />
      <path
         id="rect14-4-4-7"
         style="fill:#644c33;fill-opacity:1;stroke-width:1.54049;paint-order:markers stroke fill"
         d="m 0,50.828145 v 39.615231 h 43.394532 c 1.995504,0 3.601561,-1.60611 3.601561,-3.601588 V 54.429694 c 0,-1.995439 -1.606057,-3.601549 -3.601561,-3.601549 z" />
      <path
         id="rect16-9-0-2"
         style="fill:#644c33;fill-opacity:1;stroke-width:1.54049;paint-order:markers stroke fill"
         d="m 226.14846,50.769978 c -1.99551,0 -3.60159,1.60611 -3.60159,3.601549 v 32.412094 c 0,1.995478 1.60608,3.603515 3.60159,3.603515 H 338.12698 V 50.769978 Z" />
      <path
         id="rect17-1-9-5"
         style="fill:#694c30;fill-opacity:1;stroke-width:1.54049;paint-order:markers stroke fill"
         d="m 0,96.7265 v 39.61716 h 118.33203 c 1.9955,0 3.60156,-1.608 3.60156,-3.60352 v -32.41209 c 0,-1.995515 -1.60606,-3.60155 -3.60156,-3.60155 z" />
      <path
         id="rect19-0-1-5"
         style="fill:#694c30;fill-opacity:1;stroke-width:1.54049;paint-order:markers stroke fill"
         d="m 301.7539,96.738292 c -1.99547,0 -3.60155,1.606073 -3.60155,3.601548 v 32.41213 c 0,1.99548 1.60608,3.60352 3.60155,3.60352 h 36.37308 V 96.738292 Z" />
    </pattern>
  </defs>
  <g
     inkscape:label="Στρώση 1"
     inkscape:groupmode="layer"
     id="layer1"
     transform="translate(47.8896,-75.47995)">
    <g
       id="g2"
       transform="translate(-1447.3156,-2467.4167)">
      <rect
         style="fill:url(#pattern331);fill-opacity:1;stroke:none;stroke-width:10.8135;stroke-dasharray:none;stroke-opacity:1"
         id="rect121"
         width="294.66464"
         height="144.70474"
         x="1404.9277"
         y="2545.7627" />
      <path
         style="fill:#36271c;fill-opacity:1;stroke:#33231a;stroke-width:10.5833;stroke-dasharray:none;stroke-opacity:1"
         d="M 1671.361,2686.8171 H 1566.1896"
         id="path345-6" />
      <path
         style="fill:#36271c;fill-opacity:1;stroke:#33231a;stroke-width:10.5833;stroke-dasharray:none;stroke-opacity:1"
         d="M 1567.3448,2686.8169 H 1464.8412"
         id="path345" />
      <path
         style="fill:#36271c;fill-opacity:1;stroke:#33231a;stroke-width:10.5833;stroke-dasharray:none;stroke-opacity:1"
         d="m 1697.562,2686.8171 h -26.201"
         id="path345-5" />
      <path
         style="fill:#36271c;fill-opacity:1;stroke:#33231a;stroke-width:10.5833;stroke-dasharray:none;stroke-opacity:1"
         d="m 1404.7177,2542.8967 v 149.193"
         id="path345-9" />
      <path
         style="fill:#36271c;fill-opacity:1;stroke:#33231a;stroke-width:10.5833;stroke-dasharray:none;stroke-opacity:1"
         d="m 1699.5922,2542.9158 v 149.193"
         id="path345-9-5" />
      <path
         style="fill:#36271c;fill-opacity:1;stroke:#33231a;stroke-width:10.5833;stroke-dasharray:none;stroke-opacity:1"
         d="M 1639.7166,2548.1883 H 1399.426"
         id="path345-9-9" />
      <path
         style="fill:#36271c;fill-opacity:1;stroke:#6e4f32;stroke-width:6.08541;stroke-dasharray:none;stroke-opacity:1"
         d="m 1566.2613,2686.8169 h -98.888"
         id="path348" />
      <path
         style="fill:#36271c;fill-opacity:1;stroke:#6e4f32;stroke-width:6.08542;stroke-dasharray:none;stroke-opacity:1"
         d="m 1697.562,2686.8171 h -26.201"
         id="path349" />
      <path
         style="fill:#36271c;fill-opacity:1;stroke:#6e4f32;stroke-width:6.08542;stroke-dasharray:none;stroke-opacity:1"
         d="m 1404.9276,2545.1645 v 144.7517"
         id="path352" />
      <path
         style="fill:#36271c;fill-opacity:1;stroke:#6e4f32;stroke-width:6.08541;stroke-dasharray:none;stroke-opacity:1"
         d="m 1699.5922,2544.7828 v 145.077"
         id="path357" />
      <path
         style="fill:#36271c;fill-opacity:1;stroke:#6e4f32;stroke-width:6.08542;stroke-dasharray:none;stroke-opacity:1"
         d="M 1637.6011,2548.2072 H 1401.8849"
         id="path358" />
    </g>
  </g>
</svg>
