<svg xmlns="http://www.w3.org/2000/svg" xmlns:xlink="http://www.w3.org/1999/xlink" width="1854.381" height="1662.279" viewBox="0 0 490.638 439.811"><defs><pattern xlink:href="#a" id="e" x="0" y="0" patternTransform="matrix(.3 0 0 .30174 -925.65 -3262.37)" preserveAspectRatio="xMidYMid"/><pattern id="a" width="338.127" height="182.912" patternTransform="translate(245 644)" patternUnits="userSpaceOnUse" preserveAspectRatio="xMidYMid"><path d="M0 0v182.912h338.127V0Z" style="fill:#543d2b;fill-opacity:1;stroke-width:5.1292;paint-order:markers stroke fill"/><rect width="39.616" height="163.381" x="-136.367" y="-291.733" rx="3.602" ry="3.602" style="fill:#644c33;fill-opacity:1;stroke-width:1.54049;paint-order:markers stroke fill" transform="rotate(90)scale(-1 1)"/><rect width="39.616" height="163.381" x="-90.502" y="-216.462" rx="3.602" ry="3.602" style="fill:#694c30;fill-opacity:1;stroke-width:1.54049;paint-order:markers stroke fill" transform="rotate(90)scale(-1 1)"/><rect width="39.616" height="163.381" x="-45.341" y="-246.04" rx="3.602" ry="3.602" style="fill:#644c33;fill-opacity:1;stroke-width:1.54049;paint-order:markers stroke fill" transform="rotate(90)scale(-1 1)"/><rect width="39.616" height="163.381" x="-182.912" y="-338.127" rx="3.602" ry="3.602" style="fill:#694c30;fill-opacity:1;stroke-width:1.54049;paint-order:markers stroke fill" transform="rotate(90)scale(-1 1)"/><rect width="39.616" height="163.381" x="-182.912" y="-169.083" rx="3.602" ry="3.602" style="fill:#644c33;fill-opacity:1;stroke-width:1.54049;paint-order:markers stroke fill" transform="rotate(90)scale(-1 1)"/><path d="M0 5.725v39.617h73.05a3.595 3.595 0 0 0 3.602-3.604V9.326a3.593 3.593 0 0 0-3.601-3.601zm255.648.001a3.593 3.593 0 0 0-3.601 3.602V41.74a3.593 3.593 0 0 0 3.601 3.602h82.479V5.726Z" style="fill:#694c30;fill-opacity:1;stroke-width:1.54049;paint-order:markers stroke fill"/><path d="M0 50.828v39.615h43.395a3.593 3.593 0 0 0 3.601-3.601V54.43a3.593 3.593 0 0 0-3.601-3.602zm226.148-.058a3.593 3.593 0 0 0-3.601 3.602v32.412a3.595 3.595 0 0 0 3.601 3.603h111.979V50.77Z" style="fill:#644c33;fill-opacity:1;stroke-width:1.54049;paint-order:markers stroke fill"/><path d="M0 96.727v39.617h118.332a3.595 3.595 0 0 0 3.602-3.604v-32.412a3.593 3.593 0 0 0-3.602-3.602zm301.754.011a3.593 3.593 0 0 0-3.602 3.602v32.412a3.595 3.595 0 0 0 3.602 3.603h36.373V96.738Z" style="fill:#694c30;fill-opacity:1;stroke-width:1.54049;paint-order:markers stroke fill"/></pattern><pattern xlink:href="#b" id="f" x="0" y="0" patternTransform="matrix(0 .3 -.3 0 6.73 39.184)" preserveAspectRatio="xMidYMid"/><pattern id="b" width="190.856" height="179.085" patternTransform="translate(6.73 39.184)" patternUnits="userSpaceOnUse" preserveAspectRatio="xMidYMid"><g transform="translate(-42019.614 -7691.69)scale(3.77953)"><rect width="50.497" height="47.382" x="11117.689" y="2035.094" ry="0" style="fill:#5b412f;fill-opacity:1;stroke-width:.0996563;paint-order:markers stroke fill"/><path d="M15649.074 12907.391h-29.798a.49.49 0 0 0-.488.489v9.121c0 .27.217.487.488.487h31.286c.27 0 .488-.217.488-.487v-8.237z" style="display:inline;fill:#775b3c;fill-opacity:1;stroke-width:.160514;paint-order:markers stroke fill" transform="matrix(.71948 -.69451 -.00137 1 -100.953 -3.832)"/><path d="M15589.774 12828.789h-12.528a.48.48 0 0 0-.484.483v9.128c0 .268.215.483.482.483h27.113z" style="display:inline;fill:#775b3c;fill-opacity:1;stroke-width:.159136;paint-order:markers stroke fill" transform="matrix(.7218 -.69211 -.0018 1 -100.953 -3.832)"/><path d="M15566.037 12839.533v7.005a.49.49 0 0 0 .491.491h10.312z" style="display:inline;fill:#775b3c;fill-opacity:1;stroke-width:.161626;paint-order:markers stroke fill" transform="matrix(.72011 -.69386 .00081 1 -100.953 -3.832)"/><path d="M15672.004 12956.397a.5.5 0 0 0-.272-.08h-31.405a.485.485 0 0 0-.486.487v9.198c0 .27.216.487.486.487h31.405a.485.485 0 0 0 .486-.486v-9.199a.5.5 0 0 0-.214-.404z" style="display:inline;fill:#775b3c;fill-opacity:1;stroke-width:.160003;paint-order:markers stroke fill" transform="matrix(.7181 -.69595 -.00086 1 -100.953 -3.832)"/><path d="M15668.196 12962.801a.5.5 0 0 0-.272-.08h-31.413a.486.486 0 0 0-.487.486v2.104l10.898 7.582h21.002c.27 0 .487-.217.487-.487v-9.198a.47.47 0 0 0-.214-.404z" style="display:inline;fill:#775b3c;fill-opacity:1;stroke-width:.160024;paint-order:markers stroke fill" transform="matrix(.71827 -.69576 -.00086 1 -100.953 -3.832)"/><path d="M15652.139 12951.628a.5.5 0 0 0-.273-.08h-18.491l14.635 10.172h3.856c.27 0 .487-.217.487-.487v-9.199a.47.47 0 0 0-.214-.403z" style="display:inline;fill:#775b3c;fill-opacity:1;stroke-width:.160112;paint-order:markers stroke fill" transform="matrix(.719 -.695 -.00086 1 -100.953 -3.832)"/><path d="M15643.714 12951.324a.5.5 0 0 0-.271-.08h-1.473l1.957 1.36v-.875a.47.47 0 0 0-.213-.402z" style="display:inline;fill:#7a5938;fill-opacity:1;stroke-width:.159554;paint-order:markers stroke fill" transform="matrix(.7194 -.6946 -.00086 1 -100.953 -3.832)"/><path d="m11177.478 2052.103 21.439 20.695c.194.188.351.557.352.828l.01 9.12c0 .27-.155.337-.35.149l-22.51-21.728a1.32 1.32 0 0 1-.352-.826l-.01-8.238z" style="display:inline;fill:#775b3c;fill-opacity:1;stroke-width:.136062;paint-order:markers stroke fill" transform="translate(-32.233 -17.01)"/><path d="m11189.696 2052.104 9.042 8.67c.194.186.35.55.35.818l.02 9.128c0 .268-.154.334-.347.149l-19.57-18.765z" style="display:inline;fill:#775b3c;fill-opacity:1;stroke-width:.135082;paint-order:markers stroke fill" transform="translate(-32.233 -17.01)"/><path d="M11199.321 2052.103v7.005c0 .272-.158.339-.354.15l-7.425-7.155z" style="display:inline;fill:#775b3c;fill-opacity:1;stroke-width:.137209;paint-order:markers stroke fill" transform="translate(-32.233 -17.01)"/><path d="M11176.192 2062.7q.088.001.196.108l22.551 21.855c.194.188.35.556.35.826v9.198c0 .27-.155.336-.349.148l-22.552-21.856a1.3 1.3 0 0 1-.349-.824v-9.2c0-.167.06-.257.153-.254" style="display:inline;fill:#775b3c;fill-opacity:1;stroke-width:.135531;paint-order:markers stroke fill" transform="translate(-32.233 -17.01)"/><path d="M11176.19 2074.592c.06 0 .122.035.195.105l22.563 21.857c.193.187.35.556.35.825v2.104h-7.821l-15.085-14.613a1.32 1.32 0 0 1-.351-.826v-9.197c0-.17.06-.259.154-.255z" style="display:inline;fill:#775b3c;fill-opacity:1;stroke-width:.135565;paint-order:markers stroke fill" transform="translate(-32.233 -17.01)"/><path d="M11176.189 2086.524c.06 0 .123.036.197.107l13.295 12.851h-10.514l-2.773-2.679a1.3 1.3 0 0 1-.35-.826v-9.199c0-.168.06-.256.153-.254z" style="display:inline;fill:#775b3c;fill-opacity:1;stroke-width:.135709;paint-order:markers stroke fill" transform="translate(-32.233 -17.01)"/><path d="M11176.194 2098.353c.05 0 .122.036.195.107l1.06 1.022h-1.407v-.875c0-.168.06-.256.153-.254z" style="display:inline;fill:#7a5938;fill-opacity:1;stroke-width:.135273;paint-order:markers stroke fill" transform="translate(-32.233 -17.01)"/></g></pattern><pattern xlink:href="#c" id="g" x="0" y="0" patternTransform="matrix(.3 0 0 .3 0 90)" preserveAspectRatio="xMidYMid"/><pattern id="c" width="194" height="180" patternTransform="translate(0 90)" patternUnits="userSpaceOnUse" preserveAspectRatio="xMidYMid"><path d="M87.395 148.65h51.329v47.625h-51.33Z" style="fill:#5b412f;stroke-width:.264583;stroke-linecap:square;stroke-linejoin:round;paint-order:stroke fill markers" transform="translate(-330.31 -561.827)scale(3.77953)"/><path d="M88.32 148.65v7.482c0 .487.284.601.636.257l7.915-7.739zm11.204 0-10.568 10.333c-.352.344-.635 1.012-.635 1.498v7.558c0 .486.283.6.635.256l20.092-19.645Zm17.546 0 20.093 19.645c.352.344.635.23.635-.256v-7.558c0-.486-.283-1.154-.635-1.498l-10.568-10.333zm12.177 0 7.916 7.74c.352.343.635.229.635-.258v-7.482zm-17.3.016c-.114-.047-.273.01-.449.183l-22.542 22.04c-.352.344-.635 1.012-.635 1.499v7.557c0 .486.283.6.635.257l22.542-22.04c.352-.345.635-1.013.635-1.5v-7.557c0-.243-.07-.393-.185-.44m2.224 0c-.115.046-.186.196-.186.44v7.557c0 .486.284 1.154.635 1.498l22.543 22.04c.352.345.635.23.635-.256v-7.557c0-.487-.283-1.155-.635-1.499l-22.543-22.04c-.175-.172-.334-.23-.45-.183m-2.223 11.906c-.115-.047-.274.01-.45.183l-22.542 22.04c-.352.344-.635 1.013-.635 1.499v7.557c0 .487.283.6.635.257l22.542-22.04c.352-.345.635-1.013.635-1.5v-7.556c0-.244-.07-.394-.185-.44m2.223 0c-.115.046-.186.196-.186.44v7.557c0 .486.284 1.154.635 1.498l22.543 22.04c.352.345.635.23.635-.256v-7.557c0-.486-.283-1.155-.635-1.499l-22.543-22.04c-.175-.172-.334-.23-.45-.183m-2.223 11.906c-.115-.046-.274.011-.45.183L88.955 194.7c-.352.345-.635 1.013-.635 1.5v.074h8.55l14.627-14.301c.352-.344.635-1.013.635-1.499v-7.557c0-.243-.07-.393-.185-.44m2.223 0c-.115.047-.186.197-.186.44v7.557c0 .486.284 1.155.635 1.499l14.627 14.301h8.55v-.075c0-.486-.282-1.154-.634-1.498l-22.543-22.04c-.175-.173-.334-.23-.45-.184m-2.223 11.906c-.115-.046-.274.011-.45.183l-11.974 11.708h9.524l2.45-2.395c.352-.344.635-1.012.635-1.499v-7.557c0-.243-.07-.393-.185-.44m2.223 0c-.115.047-.186.197-.186.44v7.557c0 .487.284 1.155.635 1.499l2.45 2.395h9.525l-11.975-11.708c-.175-.172-.334-.23-.45-.183" style="fill:#775b3c;stroke-width:.181404;stroke-linecap:square;stroke-linejoin:round;paint-order:stroke fill markers" transform="translate(-330.31 -561.827)scale(3.77953)"/></pattern><pattern xlink:href="#d" id="h" x="0" y="0" patternTransform="rotate(43.667 3817.386 -3762.635)scale(1.95504)" preserveAspectRatio="xMidYMid"/><pattern id="d" width="4" height="1" patternTransform="scale(2)" patternUnits="userSpaceOnUse" preserveAspectRatio="xMidYMid" style="fill:#899636"><path d="M0-.5h1v2H0z" style="stroke:none;fill:#899636"/></pattern></defs><g transform="matrix(1 0 0 1.00153 -4425.087 -422.268)"><path d="M4435.67 421.662h473.54v344.07h-473.54z" style="fill:url(#e);fill-opacity:1;stroke:none;stroke-width:10.6135;stroke-dasharray:none;stroke-opacity:1"/><path d="M4431.254 762.619h188.227v90.791h-188.227z" style="fill:url(#f);fill-opacity:1;stroke:#543d2b;stroke-width:3;stroke-linecap:butt;stroke-dasharray:none;stroke-opacity:1;paint-order:markers fill stroke"/><path d="M4693.264 760.683h214.447v94.003h-214.447z" style="fill:url(#g);fill-opacity:1;stroke:#543d2b;stroke-width:3;stroke-dasharray:none;stroke-opacity:1"/><path d="M4611.913 432.599h110.633v33.739h-110.633z" style="fill:url(#h);fill-opacity:1;stroke:#899636;stroke-width:4.23333;stroke-dasharray:none;stroke-opacity:1"/><circle cx="4667.23" cy="449.469" r="11.296" style="fill:#636b27;fill-opacity:1;stroke:#899636;stroke-width:2.64583;stroke-dasharray:none;stroke-opacity:1"/><g stroke="#4d4d4d" stroke-linecap="square" stroke-width="1.666" style="stroke-width:.718757"><path fill="#878787" d="M-1614.092 1020.517h-13.862V962.75h13.862z" style="fill:#525252;fill-opacity:1;stroke:#262626;stroke-width:1.43752;stroke-dasharray:none;stroke-opacity:1" transform="matrix(0 1.09873 1.11848 0 3545.73 2607.593)"/><path fill="#828282" d="M-1627.827 1020.517h-13.861V962.75h13.86z" style="fill:#4a4a4a;fill-opacity:1;stroke:#262626;stroke-width:1.43752;stroke-dasharray:none;stroke-opacity:1" transform="matrix(0 1.09873 1.11848 0 3545.73 2607.593)"/><path fill="#7d7d7d" d="M-1641.562 1020.517h-13.861v-57.766h13.861z" style="fill:#424242;fill-opacity:1;stroke:#262626;stroke-width:1.43752;stroke-dasharray:none;stroke-opacity:1" transform="matrix(0 1.09873 1.11848 0 3545.73 2607.593)"/><path fill="#787878" d="M-1655.484 1020.517h-13.862V962.75h13.862z" style="fill:#3b3b3b;fill-opacity:1;stroke:#262626;stroke-width:1.43752;stroke-dasharray:none;stroke-opacity:1" transform="matrix(0 1.09873 1.11848 0 3545.73 2607.593)"/><path fill="#737373" d="M-1669.407 1020.517h-13.861V962.75h13.861z" style="fill:#333;fill-opacity:1;stroke:#262626;stroke-width:1.43752;stroke-dasharray:none;stroke-opacity:1" transform="matrix(0 1.09873 1.11848 0 3545.73 2607.593)"/><path fill="#878787" d="M-1600.216 1020.517h-13.861V962.75h13.861z" style="fill:#595959;fill-opacity:1;stroke:#262626;stroke-width:1.43752;stroke-dasharray:none;stroke-opacity:1" transform="matrix(0 1.09873 1.11848 0 3545.73 2607.593)"/></g><path d="M-487.969 4798.303h54.263v105.339h-54.263z" style="fill:#603b26;fill-opacity:1;stroke:#311e14;stroke-width:3.00001;stroke-dasharray:none;stroke-opacity:1" transform="rotate(-90)"/><g style="fill:#683a86;fill-opacity:.670139;stroke-width:3.21808"><path d="M96.603 177.888c-7.492-4.148-18.42-6.1-16.538-18.477 2.047-13.45.59-27.703 5.68-40.41 2.7-6.736 7.908-15.23 16.431-13.753 3.778.654 5.71-.964 7.784-1.463 6.472-1.555 17.787-3.446 17.8 6.857.011 7.952 6.012 15.178 3.459 23.367-2.44 7.828-11.778 9.352-16.821 15.057-6.27 7.093 5.46 12.283 8.718 17.747 3.07 5.149 8.255 16.594.113 18.863-8.397 2.34-16.232-1.179-22.735-6.13-1.122-.854-2.622-.956-3.891-1.658" style="fill:#683a86;fill-opacity:.670139;stroke:none;stroke-width:8.2351;stroke-linecap:square;stroke-linejoin:round;stroke-dasharray:none;stroke-opacity:1;paint-order:fill markers stroke;stop-color:#000" transform="rotate(30 1670.715 9301.053)scale(.31074)"/><path d="M134.809 161.195c-3.009-.066-6.075-1.87-7.278-4.73-.633-1.502-.646-3.392.484-4.655.531-.595 1.383-.7 2.049-1.133 1.27-.827 1.943-2.563 3.502-2.956 1.027-.26 2.048.21 3.028.478 1.846.502 3.74.959 5.688.713 1.512-.19 2.57 1.52 2.635 2.924.044.938-.487 1.851-1.405 2.196-1.529.573-3.403.204-4.715 1.15-1.523 1.1-.76 3.753-2.227 5.052-.501.444-1.061.976-1.761.96" style="fill:#683a86;fill-opacity:.670139;stroke:none;stroke-width:8.2351;stroke-linecap:square;stroke-linejoin:round;stroke-dasharray:none;stroke-opacity:1;paint-order:fill markers stroke;stop-color:#000" transform="rotate(30 1670.715 9301.053)scale(.31074)"/></g><g fill-rule="evenodd" stroke-width="1.065" style="fill:#494949;fill-opacity:1;stroke-linecap:round;stroke-linejoin:round"><path fill="#286c23" fill-opacity=".75" stroke="#0f280d" d="M1040.425-778.88h6.786l5.444 1.61v1.61l-5.445 1.61h-6.785z" style="fill:#494949;fill-opacity:1;stroke:#3e3e3e;stroke-width:1.06518;stroke-opacity:1" transform="rotate(-90 3464.412 -1974.093)scale(.99339)"/><path fill="#b4a959" stroke="#232110" d="m1049.34-774.656 3.306-.886.081.7h2.744v-3.142h-2.744v.7l-3.387-.99z" style="fill:#494949;fill-opacity:1;stroke:#3e3e3e;stroke-width:1.06518;stroke-opacity:1" transform="rotate(-90 3464.412 -1974.093)scale(.99339)"/></g><path d="M4696.308 683.662c7.215 2.424 15.1 1.376 22.728 2.156 3.368.345-.029-5.217 1.767-6.924 1.647-1.565 4.502-.507 6.723-.571 3.655-.105 7.312-.317 10.965-.536 2.799-.168 2.633-3.114 2.46-5.054-.35-3.897.443-8.044-1.44-11.652-1.146-2.194-3.642-3.314-4.249-5.883-.776-3.28-4.028-2.064-6.405-1.898-3.196.224-6.651-.181-9.444-1.835-3.206-1.898-3.856-6.676-7.153-8.177-2.808-1.279-3.31 4.412-4.18 6.66-1.76 4.541-3.962 8.854-6.49 13.004-2.127 3.49-4.232 6.975-6.564 10.339-1.806 2.606-8.21 7.184-4.779 8.336zm-35.137-158.702c7.597.472 14.941-2.58 22.512-3.8 3.343-.54-1.378-5.033-.085-7.146 1.186-1.939 4.218-1.655 6.346-2.292 3.503-1.048 6.98-2.199 10.452-3.356 2.661-.886 1.738-3.69 1.068-5.518-1.346-3.674-1.653-7.885-4.406-10.883-1.674-1.822-4.375-2.258-5.627-4.582-1.598-2.968-4.424-.952-6.677-.176-3.03 1.043-6.472 1.546-9.598.672-3.588-1.004-5.452-5.45-9.025-6.047-3.044-.508-2.056 5.118-2.315 7.515-.524 4.842-1.534 9.578-2.903 14.24-1.151 3.921-2.282 7.833-3.664 11.686-1.07 2.984-6.07 9.064-2.458 9.289z" style="fill:#683a86;fill-opacity:.670139;stroke:none;stroke-width:1.5;stroke-linecap:square;stroke-linejoin:round;stroke-dasharray:none;stroke-opacity:1;paint-order:fill markers stroke;stop-color:#000"/><path d="M4480.281 711.296c.627-8.715 7.332-17.008 15.596-21.305 5.444-2.83 12.312-2.62 17.39 1.072 6.62 4.814 12.396 10.968 16.277 18.165 2.296 4.258.494 9.12 1.537 13.667 1.144 4.982 1.915 11.637-2.702 15.115-3.682 2.773-8.422.646-12.437-.123-4.55-.872-7.715-5.081-8.588-10.037-.65-3.694-3.708-6.612-6.192-9.405-2.427-2.728-6.068-4.093-9.284-5.791-3.494-1.845-11.888 2.69-11.597-1.358" style="fill:#693a88;fill-opacity:.67;stroke:none;stroke-width:2.559;stroke-linecap:square;stroke-linejoin:round;stroke-dasharray:none;stroke-opacity:1;paint-order:fill markers stroke;stop-color:#000"/><path d="M4616.438 754.258v99.152m76.826-99.152v100.428m-262.885.784h485.346" style="fill:#4e2020;fill-opacity:1;stroke:#171717;stroke-width:10.5833;stroke-dasharray:none;stroke-opacity:1"/><g fill="#7e5925" style="stroke-linecap:round"><path stroke="#2d2110" stroke-width="1.5" d="m4833.515 462.503-.005-5.423 38.274-.033.005 5.423z"/><path stroke="#251b0e" stroke-width="1.3" d="m4869.523 465.735-.01-11.95 2.707-.002.01 11.95zm-12.113.011-.01-11.95 2.707-.002.01 11.95zm-12.115.01-.01-11.95 2.707-.002.01 11.95zm-12.115.011-.01-11.95 2.707-.002.01 11.95z"/></g><g fill-rule="evenodd" stroke-width="1.058" style="stroke-linecap:round;stroke-linejoin:round" transform="rotate(-90.05 3562.034 -2053.38)scale(.99982)"><path fill="#286c23" fill-opacity=".75" stroke="#0f280d" d="M1040.167-779.138h6.785l5.445 1.61v1.61l-5.445 1.609h-6.785z"/><path fill="#b4a959" stroke="#232110" d="M1042.668-779.138h2.172v4.829h-2.172zm6.414 4.224 3.306-.886.08.7h2.745v-3.142h-2.744v.7l-3.387-.99z"/><circle cx="1048.798" cy="-776.723" r="1.015" fill="#892323" stroke="#290a0a"/></g><g fill-rule="evenodd" style="stroke-linecap:round;stroke-linejoin:round" transform="rotate(-90.05 3570.196 -2061.356)scale(.99982)"><g stroke-width="1.058"><path fill="#692516" fill-opacity=".75" stroke="#2a0f09" d="M1040.434-771.562h8.041c.583 1.648 1.555 2.066 3.175 2.066v1.466c-1.625 0-2.474.541-3.175 2.066h-8.04z"/><path fill="#333" stroke="#1a1a1a" d="M1042.123-771.562h5.063v5.598h-5.063z"/><path fill="#323232" stroke="#1a1a1a" d="M1050.634-769.832c1.46 0 2.257.151 3.385.529v1.08c-1.195.308-2.008.529-3.385.529z"/><path fill="#323232" stroke="#1a1a1a" d="M1053.433-769.915h1.898v2.304h-1.898z"/></g><path fill="#333" stroke="#b2b2b2" stroke-width=".529" d="M1043.138-770.447v3.368m.856-3.368v3.368"/><ellipse cx="1045.546" cy="-768.763" fill="#333" stroke="#b2b2b2" stroke-width=".529" rx=".629" ry="1.281"/></g><g fill-rule="evenodd" style="stroke-linecap:round;stroke-linejoin:round"><path fill="#875412" fill-opacity=".75" stroke="#2d1c06" stroke-width="1.058" d="m4850.343 468.314-.007-7.196 1.69-7.409 1.695-.001 1.702 7.406.007 7.196z"/><path fill="#2f6a2f" stroke="#102310" stroke-width="1.058" d="m4851.305 456.86-.003-2.873a1.52 1.52 0 0 1 0-1.262l-.002-.971 3.123-.003v.972c.207.379.197.82.002 1.261l.002 2.874z"/><g fill="#a5a5a5"><path stroke="#1a1a1a" stroke-width=".529" d="m4851.046 457.136-.001-1.888 3.65-.003.003 1.888z"/><path stroke="#666" stroke-width=".397" d="m4852.805 455.87-1.197.001m.001.599 2.438-.002"/></g><path fill="#2f6a2f" stroke="#102310" stroke-width="1.058" d="m4850.34 464.457-.003-2.483 5.09 2.6.002 2.483z"/></g><path d="M-4499.365 5153.42h54.263v199.214h-54.263z" style="fill:#603b26;fill-opacity:1;stroke:#311e14;stroke-width:3.00001;stroke-dasharray:none;stroke-opacity:1" transform="rotate(-90 -2219.039 -1653.134)"/><g fill="#7e5925" style="stroke-linecap:round"><path stroke="#2d2110" stroke-width="1.5" d="m4624.53 619.246-5.424.005-.033-38.274 5.423-.005z"/><path stroke="#251b0e" stroke-width="1.3" d="m4627.761 583.238-11.95.01-.002-2.707 11.95-.01zm.011 12.114-11.95.01-.002-2.707 11.95-.01zm.01 12.114-11.95.01-.002-2.707 11.95-.01zm.011 12.115-11.95.01-.002-2.707 11.95-.01z"/></g><g fill-rule="evenodd" stroke-width="1.058" style="stroke-linecap:round;stroke-linejoin:round" transform="translate(5668.96 -163.286)scale(-.99982)"><path fill="#286c23" fill-opacity=".75" stroke="#0f280d" d="M1040.167-779.138h6.785l5.445 1.61v1.61l-5.445 1.609h-6.785z"/><path fill="#b4a959" stroke="#232110" d="M1042.668-779.138h2.172v4.829h-2.172zm6.414 4.224 3.306-.886.08.7h2.745v-3.142h-2.744v.7l-3.387-.99z"/><circle cx="1048.798" cy="-776.723" r="1.015" fill="#892323" stroke="#290a0a"/></g><g fill-rule="evenodd" style="stroke-linecap:round;stroke-linejoin:round" transform="translate(5669.148 -179.428)scale(-.99982)"><g stroke-width="1.058"><path fill="#692516" fill-opacity=".75" stroke="#2a0f09" d="M1040.434-771.562h8.041c.583 1.648 1.555 2.066 3.175 2.066v1.466c-1.625 0-2.474.541-3.175 2.066h-8.04z"/><path fill="#333" stroke="#1a1a1a" d="M1042.123-771.562h5.063v5.598h-5.063z"/><path fill="#323232" stroke="#1a1a1a" d="M1050.634-769.832c1.46 0 2.257.151 3.385.529v1.08c-1.195.308-2.008.529-3.385.529z"/><path fill="#323232" stroke="#1a1a1a" d="M1053.433-769.915h1.898v2.304h-1.898z"/></g><path fill="#333" stroke="#b2b2b2" stroke-width=".529" d="M1043.138-770.447v3.368m.856-3.368v3.368"/><ellipse cx="1045.546" cy="-768.763" fill="#333" stroke="#b2b2b2" stroke-width=".529" rx=".629" ry="1.281"/></g><g fill-rule="evenodd" style="stroke-linecap:round;stroke-linejoin:round"><path fill="#875412" fill-opacity=".75" stroke="#2d1c06" stroke-width="1.058" d="m4630.34 602.418-7.196.007-7.409-1.69-.001-1.695 7.406-1.702 7.196-.007z"/><path fill="#2f6a2f" stroke="#102310" stroke-width="1.058" d="m4618.887 601.456-2.874.003a1.52 1.52 0 0 1-1.262.001h-.971l-.003-3.122h.972c.379-.206.82-.197 1.261-.001l2.874-.003z"/><g fill="#a5a5a5"><path stroke="#1a1a1a" stroke-width=".529" d="m4619.162 601.715-1.888.002-.003-3.652 1.888-.001z"/><path stroke="#666" stroke-width=".397" d="m4617.896 599.956.001 1.197m.599-.001-.002-2.438"/></g><path fill="#2f6a2f" stroke="#102310" stroke-width="1.058" d="m4626.483 602.422-2.483.002 2.6-5.09 2.483-.001z"/></g><g fill="#7e5925" style="stroke-linecap:round"><path stroke="#2d2110" stroke-width="1.5" d="m4754.16 619.246-5.422.005-.033-38.274 5.423-.005z"/><path stroke="#251b0e" stroke-width="1.3" d="m4757.393 583.238-11.95.01-.002-2.707 11.95-.01zm.011 12.114-11.95.01-.003-2.707 11.95-.01zm.01 12.114-11.95.01-.002-2.707 11.95-.01zm.011 12.115-11.95.01-.003-2.707 11.95-.01z"/></g><g fill-rule="evenodd" stroke-width="1.058" style="stroke-linecap:round;stroke-linejoin:round" transform="translate(5798.594 -163.23)scale(-.99982)"><path fill="#286c23" fill-opacity=".75" stroke="#0f280d" d="M1040.167-779.138h6.785l5.445 1.61v1.61l-5.445 1.609h-6.785z"/><path fill="#b4a959" stroke="#232110" d="M1042.668-779.138h2.172v4.829h-2.172zm6.414 4.224 3.306-.886.08.7h2.745v-3.142h-2.744v.7l-3.387-.99z"/><circle cx="1048.798" cy="-776.723" r="1.015" fill="#892323" stroke="#290a0a"/></g><g fill-rule="evenodd" style="stroke-linecap:round;stroke-linejoin:round" transform="translate(5798.78 -179.372)scale(-.99982)"><g stroke-width="1.058"><path fill="#692516" fill-opacity=".75" stroke="#2a0f09" d="M1040.434-771.562h8.041c.583 1.648 1.555 2.066 3.175 2.066v1.466c-1.625 0-2.474.541-3.175 2.066h-8.04z"/><path fill="#333" stroke="#1a1a1a" d="M1042.123-771.562h5.063v5.598h-5.063z"/><path fill="#323232" stroke="#1a1a1a" d="M1050.634-769.832c1.46 0 2.257.151 3.385.529v1.08c-1.195.308-2.008.529-3.385.529z"/><path fill="#323232" stroke="#1a1a1a" d="M1053.433-769.915h1.898v2.304h-1.898z"/></g><path fill="#333" stroke="#b2b2b2" stroke-width=".529" d="M1043.138-770.447v3.368m.856-3.368v3.368"/><ellipse cx="1045.546" cy="-768.763" fill="#333" stroke="#b2b2b2" stroke-width=".529" rx=".629" ry="1.281"/></g><g fill-rule="evenodd" style="stroke-linecap:round;stroke-linejoin:round"><path fill="#875412" fill-opacity=".75" stroke="#2d1c06" stroke-width="1.058" d="m4759.972 602.418-7.196.007-7.409-1.69-.001-1.695 7.405-1.702 7.197-.007z"/><path fill="#2f6a2f" stroke="#102310" stroke-width="1.058" d="m4748.519 601.456-2.874.003a1.52 1.52 0 0 1-1.262.001h-.972l-.002-3.122h.971c.38-.206.82-.197 1.262-.001l2.874-.003z"/><g fill="#a5a5a5"><path stroke="#1a1a1a" stroke-width=".529" d="m4748.794 601.715-1.888.002-.004-3.652 1.889-.001z"/><path stroke="#666" stroke-width=".397" d="m4747.528 599.956.001 1.197m.599-.001-.003-2.438"/></g><path fill="#2f6a2f" stroke="#102310" stroke-width="1.058" d="m4756.115 602.422-2.483.002 2.6-5.09 2.483-.001z"/></g><g fill="#7e5925" style="stroke-linecap:round"><path stroke="#2d2110" stroke-width="1.5" d="m4689.593 619.246-5.423.005-.033-38.274 5.423-.005z"/><path stroke="#251b0e" stroke-width="1.3" d="m4692.825 583.238-11.95.01-.002-2.707 11.95-.01zm.011 12.114-11.95.01-.002-2.707 11.95-.01zm.01 12.115-11.95.01-.002-2.707 11.95-.01zm.011 12.114-11.95.01-.002-2.707 11.95-.01z"/></g><g fill-rule="evenodd" stroke-width="1.058" style="stroke-linecap:round;stroke-linejoin:round" transform="rotate(179.95 2867.085 -81.58)scale(.99982)"><path fill="#286c23" fill-opacity=".75" stroke="#0f280d" d="M1040.167-779.138h6.785l5.445 1.61v1.61l-5.445 1.609h-6.785z"/><path fill="#b4a959" stroke="#232110" d="M1042.668-779.138h2.172v4.829h-2.172zm6.414 4.224 3.306-.886.08.7h2.745v-3.142h-2.744v.7l-3.387-.99z"/><circle cx="1048.798" cy="-776.723" r="1.015" fill="#892323" stroke="#290a0a"/></g><g fill-rule="evenodd" style="stroke-linecap:round;stroke-linejoin:round" transform="translate(5734.212 -179.4)scale(-.99982)"><g stroke-width="1.058"><path fill="#692516" fill-opacity=".75" stroke="#2a0f09" d="M1040.434-771.562h8.041c.583 1.648 1.555 2.066 3.175 2.066v1.466c-1.625 0-2.474.541-3.175 2.066h-8.04z"/><path fill="#333" stroke="#1a1a1a" d="M1042.123-771.562h5.063v5.598h-5.063z"/><path fill="#323232" stroke="#1a1a1a" d="M1050.634-769.832c1.46 0 2.257.151 3.385.529v1.08c-1.195.308-2.008.529-3.385.529z"/><path fill="#323232" stroke="#1a1a1a" d="M1053.433-769.915h1.898v2.304h-1.898z"/></g><path fill="#333" stroke="#b2b2b2" stroke-width=".529" d="M1043.138-770.447v3.368m.856-3.368v3.368"/><ellipse cx="1045.546" cy="-768.763" fill="#333" stroke="#b2b2b2" stroke-width=".529" rx=".629" ry="1.281"/></g><g fill-rule="evenodd" style="stroke-linecap:round;stroke-linejoin:round"><path fill="#875412" fill-opacity=".75" stroke="#2d1c06" stroke-width="1.058" d="m4695.404 602.419-7.196.006-7.409-1.69-.001-1.695 7.406-1.702 7.196-.006z"/><path fill="#2f6a2f" stroke="#102310" stroke-width="1.058" d="m4683.95 601.457-2.873.002a1.52 1.52 0 0 1-1.262.001l-.971.001-.003-3.122.972-.001c.379-.206.82-.197 1.261-.001l2.874-.003z"/><g fill="#a5a5a5"><path stroke="#1a1a1a" stroke-width=".529" d="m4684.226 601.715-1.888.002-.003-3.652 1.888-.001z"/><path stroke="#666" stroke-width=".397" d="m4682.96 599.956.001 1.197m.599 0-.002-2.439"/></g><path fill="#2f6a2f" stroke="#102310" stroke-width="1.058" d="m4691.547 602.422-2.483.002 2.6-5.089 2.483-.002z"/></g><g fill-rule="evenodd" stroke-width="1.058" style="stroke-linecap:round;stroke-linejoin:round" transform="rotate(-79.812 1668.915 -2734.854)scale(.99981)"><circle cx="-1090.626" cy="784.245" r="4.211" fill="#875412" fill-opacity=".749" stroke="#2d1c06"/><circle cx="-1090.678" cy="784.248" r="1.908" fill="#2f6a2f" stroke="#102310"/></g><g fill-rule="evenodd" stroke-width="1.058" style="stroke-linecap:round;stroke-linejoin:round" transform="rotate(-79.813 1683.177 -2741.747)scale(.99982)"><circle cx="-1090.626" cy="784.245" r="4.211" fill="#875412" fill-opacity=".749" stroke="#2d1c06"/><circle cx="-1090.678" cy="784.248" r="1.908" fill="#2f6a2f" stroke="#102310"/></g><g fill-rule="evenodd" stroke-width="1.058" style="stroke-linecap:round;stroke-linejoin:round" transform="rotate(-79.813 1701.994 -2792.915)scale(.99982)"><circle cx="-1090.626" cy="784.245" r="4.211" fill="#875412" fill-opacity=".749" stroke="#2d1c06"/><circle cx="-1090.678" cy="784.248" r="1.908" fill="#2f6a2f" stroke="#102310"/></g><g fill-rule="evenodd" stroke-width="1.058" style="stroke-linecap:round;stroke-linejoin:round" transform="rotate(-79.813 1712.335 -2779.452)scale(.99982)"><circle cx="-1090.626" cy="784.245" r="4.211" fill="#875412" fill-opacity=".749" stroke="#2d1c06"/><circle cx="-1090.678" cy="784.248" r="1.908" fill="#2f6a2f" stroke="#102310"/></g><g fill-rule="evenodd" stroke-width="1.058" style="stroke-linecap:round;stroke-linejoin:round" transform="rotate(-79.813 1729.654 -2817.633)scale(.99982)"><circle cx="-1090.626" cy="784.245" r="4.211" fill="#875412" fill-opacity=".749" stroke="#2d1c06"/><circle cx="-1090.678" cy="784.248" r="1.908" fill="#2f6a2f" stroke="#102310"/></g><g fill-rule="evenodd" stroke-width="1.509" transform="rotate(90 2033.96 2783.778)"><rect width="10.728" height="7.232" x="-145.55" y="214.098" fill="#692516" fill-opacity=".749" stroke="#2a0f09" rx=".573" style="stroke-linecap:round;stroke-linejoin:round"/><rect width="3.811" height="2.482" x="-142.091" y="216.474" fill="#323232" stroke="#1a1a1a" rx="0" style="stroke-linecap:round;stroke-linejoin:round"/></g><g fill-rule="evenodd" stroke-width="1.509" transform="translate(4848.2 370.061)"><rect width="10.728" height="7.232" x="-145.55" y="214.098" fill="#692516" fill-opacity=".749" stroke="#2a0f09" rx=".573" style="stroke-linecap:round;stroke-linejoin:round"/><rect width="3.811" height="2.482" x="-142.091" y="216.474" fill="#323232" stroke="#1a1a1a" rx="0" style="stroke-linecap:round;stroke-linejoin:round"/></g><g fill-rule="evenodd" stroke-width="1.058" transform="rotate(-169.813 2277.092 207.386)"><circle cx="-137.502" cy="245.856" r="3.317" fill="#296b24" fill-opacity=".75" stroke="#0f280d" style="stroke-linecap:round;stroke-linejoin:round"/><circle cx="-137.543" cy="245.859" r="1.503" fill="#b4a959" stroke="#232110" style="stroke-linecap:round;stroke-linejoin:round"/></g><g fill-rule="evenodd" stroke-width="1.058" transform="rotate(-169.813 2302.188 212.578)"><circle cx="-137.502" cy="245.856" r="3.317" fill="#296b24" fill-opacity=".75" stroke="#0f280d" style="stroke-linecap:round;stroke-linejoin:round"/><circle cx="-137.543" cy="245.859" r="1.503" fill="#b4a959" stroke="#232110" style="stroke-linecap:round;stroke-linejoin:round"/></g><g fill-rule="evenodd" stroke-width="1.058" transform="rotate(-169.813 2333.626 209.242)"><circle cx="-137.502" cy="245.856" r="3.317" fill="#296b24" fill-opacity=".75" stroke="#0f280d" style="stroke-linecap:round;stroke-linejoin:round"/><circle cx="-137.543" cy="245.859" r="1.503" fill="#b4a959" stroke="#232110" style="stroke-linecap:round;stroke-linejoin:round"/></g><g fill-rule="evenodd" stroke-width="1.058" transform="rotate(-169.813 2248.32 206.291)"><circle cx="-137.502" cy="245.856" r="3.317" fill="#296b24" fill-opacity=".75" stroke="#0f280d" style="stroke-linecap:round;stroke-linejoin:round"/><circle cx="-137.543" cy="245.859" r="1.503" fill="#b4a959" stroke="#232110" style="stroke-linecap:round;stroke-linejoin:round"/></g><path d="M4430.379 424.287V860.76m-5.292-433.82h184.507m114.97-.026h191.161m-5.291-2.214v436.061" style="fill:#4e2020;fill-opacity:1;stroke:#171717;stroke-width:10.5833;stroke-dasharray:none;stroke-opacity:1"/><g fill-rule="evenodd" stroke-width="1.058" style="stroke-linecap:round;stroke-linejoin:round" transform="rotate(-79.812 1676.511 -2902.998)scale(.99981)"><circle cx="-1090.626" cy="784.245" r="4.211" fill="#875412" fill-opacity=".749" stroke="#2d1c06"/><circle cx="-1090.678" cy="784.248" r="1.908" fill="#2f6a2f" stroke="#102310"/></g><g fill-rule="evenodd" stroke-width="1.058" style="stroke-linecap:round;stroke-linejoin:round" transform="rotate(-79.812 1690.387 -2953.635)scale(.99981)"><circle cx="-1090.626" cy="784.245" r="4.211" fill="#875412" fill-opacity=".749" stroke="#2d1c06"/><circle cx="-1090.678" cy="784.248" r="1.908" fill="#2f6a2f" stroke="#102310"/></g><g fill-rule="evenodd" stroke-width="1.058" style="stroke-linecap:round;stroke-linejoin:round" transform="rotate(-79.813 1719.13 -2944.92)scale(.99982)"><circle cx="-1090.626" cy="784.245" r="4.211" fill="#875412" fill-opacity=".749" stroke="#2d1c06"/><circle cx="-1090.678" cy="784.248" r="1.908" fill="#2f6a2f" stroke="#102310"/></g><g fill-rule="evenodd" stroke-width="1.509" transform="translate(4955.677 231.117)"><rect width="10.728" height="7.232" x="-145.55" y="214.098" fill="#692516" fill-opacity=".749" stroke="#2a0f09" rx=".573" style="stroke-linecap:round;stroke-linejoin:round"/><rect width="3.811" height="2.482" x="-142.091" y="216.474" fill="#323232" stroke="#1a1a1a" rx="0" style="stroke-linecap:round;stroke-linejoin:round"/></g><g fill-rule="evenodd" stroke-width="1.509" transform="translate(5029.302 238.505)"><rect width="10.728" height="7.232" x="-145.55" y="214.098" fill="#692516" fill-opacity=".749" stroke="#2a0f09" rx=".573" style="stroke-linecap:round;stroke-linejoin:round"/><rect width="3.811" height="2.482" x="-142.091" y="216.474" fill="#323232" stroke="#1a1a1a" rx="0" style="stroke-linecap:round;stroke-linejoin:round"/></g><g fill-rule="evenodd" stroke-width="1.058" transform="rotate(-169.813 2363.621 139.211)"><circle cx="-137.502" cy="245.856" r="3.317" fill="#296b24" fill-opacity=".75" stroke="#0f280d" style="stroke-linecap:round;stroke-linejoin:round"/><circle cx="-137.543" cy="245.859" r="1.503" fill="#b4a959" stroke="#232110" style="stroke-linecap:round;stroke-linejoin:round"/></g><g fill-rule="evenodd" stroke-width="1.058" transform="rotate(-169.813 2367.397 122.536)"><circle cx="-137.502" cy="245.856" r="3.317" fill="#296b24" fill-opacity=".75" stroke="#0f280d" style="stroke-linecap:round;stroke-linejoin:round"/><circle cx="-137.543" cy="245.859" r="1.503" fill="#b4a959" stroke="#232110" style="stroke-linecap:round;stroke-linejoin:round"/></g><path d="M4616.438 756.656v96.754m76.825-96.85v97.169m-265.927 1.741h484.806m-481.763-431.573v434.615m2.691-431.572h174.265" style="fill:#4e2020;fill-opacity:1;stroke:#262626;stroke-width:6.08542;stroke-dasharray:none;stroke-opacity:1"/><path d="M4726.787 426.914h186.69m-3.043-2.214v433.2" style="fill:#4e2020;fill-opacity:1;stroke:#262626;stroke-width:6.08541;stroke-dasharray:none;stroke-opacity:1"/><path d="M4505.462 662.469h-69.792m122.007 95.654H4435.67m69.792-225.089h-69.792" style="font-variation-settings:normal;opacity:1;vector-effect:none;fill:none;fill-opacity:1;stroke:#72542e;stroke-width:7.93143;stroke-linecap:butt;stroke-linejoin:miter;stroke-miterlimit:4;stroke-dasharray:none;stroke-dashoffset:0;stroke-opacity:1;-inkscape-stroke:none;paint-order:markers fill stroke;stop-color:#000;stop-opacity:1"/></g></svg>