<svg xmlns="http://www.w3.org/2000/svg" width="2974.898" height="1054.887" viewBox="0 0 787.109 279.105"><g transform="translate(288.396 -8.996)"><path d="M-283.138 14.387h777.037v270.199h-777.037z" style="fill:#505050;fill-opacity:1;stroke:#333;stroke-width:3;stroke-dasharray:none;stroke-opacity:1"/><path d="M-283.138 274.187h777.037v12.414h-777.037z" style="fill:#4d4d4d;fill-opacity:1;stroke:#333;stroke-width:3.00011;stroke-dasharray:none;stroke-opacity:1"/><rect width="5.102" height="259.642" x="490.701" y="13.574" rx="1.08" ry="4.666" style="fill:#3f3f3f;fill-opacity:1;stroke:#1d1d1d;stroke-width:1.5;stroke-dasharray:none;stroke-opacity:1"/><rect width="5.102" height="197.028" x="-17.282" y="298.701" rx="1.08" ry="3.541" style="fill:#3f3f3f;fill-opacity:1;stroke:#1d1d1d;stroke-width:1.5;stroke-dasharray:none;stroke-opacity:1" transform="rotate(-90)"/><rect width="5.102" height="68.51" x="-285.492" y="203.656" rx="1.08" ry="1.231" style="fill:#3f3f3f;fill-opacity:1;stroke:#1d1d1d;stroke-width:1.49999;stroke-dasharray:none;stroke-opacity:1"/><rect width="5.102" height="78.998" x="-285.463" y="16.036" rx="1.08" ry="1.42" style="fill:#3f3f3f;fill-opacity:1;stroke:#1d1d1d;stroke-width:1.49999;stroke-dasharray:none;stroke-opacity:1"/><path d="M-281.654 275.702h774.043v1.818h-774.043zM-281.645 283.273h774.043v1.818h-774.043z" style="fill:#484848;fill-opacity:1;stroke:none;stroke-width:3.00011;stroke-dasharray:none;stroke-opacity:1"/><rect width="9.07" height="9.07" x="488.682" y="269.176" rx="1.382" ry="1.382" style="fill:#3f3f3f;fill-opacity:1;stroke:#1d1d1d;stroke-width:1.50001;stroke-dasharray:none;stroke-opacity:1"/><rect width="9.07" height="9.07" x="488.892" y="138.793" rx="1.382" ry="1.382" style="fill:#3f3f3f;fill-opacity:1;stroke:#1d1d1d;stroke-width:1.50001;stroke-dasharray:none;stroke-opacity:1"/><rect width="5.102" height="162.901" x="11.765" y="119.603" rx="1.08" ry="2.927" style="fill:#3f3f3f;fill-opacity:1;stroke:#1d1d1d;stroke-width:1.49999;stroke-dasharray:none;stroke-opacity:1" transform="rotate(90)"/><rect width="5.102" height="269.214" x="11.9" y="-194.686" rx="1.08" ry="4.838" style="fill:#3f3f3f;fill-opacity:1;stroke:#1d1d1d;stroke-width:1.49999;stroke-dasharray:none;stroke-opacity:1" transform="rotate(90)"/><rect width="9.07" height="9.07" x="9.746" y="278.465" rx="1.382" ry="1.382" style="fill:#3f3f3f;fill-opacity:1;stroke:#1d1d1d;stroke-width:1.50001;stroke-dasharray:none;stroke-opacity:1" transform="rotate(90)"/><rect width="9.07" height="9.07" x="-18.84" y="189.84" rx="1.382" ry="1.382" style="fill:#3f3f3f;fill-opacity:1;stroke:#1d1d1d;stroke-width:1.50001;stroke-dasharray:none;stroke-opacity:1" transform="rotate(-90)"/><rect width="9.07" height="9.07" x="-18.856" y="140.306" rx="1.382" ry="1.382" style="fill:#3f3f3f;fill-opacity:1;stroke:#1d1d1d;stroke-width:1.50001;stroke-dasharray:none;stroke-opacity:1" transform="rotate(-90)"/><rect width="9.07" height="9.07" x="-18.852" y="-57.05" rx="1.382" ry="1.382" style="fill:#3f3f3f;fill-opacity:1;stroke:#1d1d1d;stroke-width:1.50001;stroke-dasharray:none;stroke-opacity:1" transform="rotate(-90)"/><rect width="9.07" height="9.07" x="-18.851" y="390.302" rx="1.382" ry="1.382" style="fill:#3f3f3f;fill-opacity:1;stroke:#1d1d1d;stroke-width:1.50001;stroke-dasharray:none;stroke-opacity:1" transform="rotate(-90)"/><rect width="9.07" height="9.07" x="-19.023" y="294.258" rx="1.382" ry="1.382" style="fill:#3f3f3f;fill-opacity:1;stroke:#1d1d1d;stroke-width:1.50001;stroke-dasharray:none;stroke-opacity:1" transform="rotate(-90)"/><rect width="9.07" height="9.07" x="488.432" y="9.816" rx="1.382" ry="1.382" style="fill:#3f3f3f;fill-opacity:1;stroke:#1d1d1d;stroke-width:1.50001;stroke-dasharray:none;stroke-opacity:1"/><rect width="9.07" height="9.07" x="-287.27" y="269.652" rx="1.382" ry="1.382" style="fill:#3f3f3f;fill-opacity:1;stroke:#1d1d1d;stroke-width:1.50001;stroke-dasharray:none;stroke-opacity:1"/><rect width="9.07" height="9.07" x="-287.646" y="196.993" rx="1.382" ry="1.382" style="fill:#3f3f3f;fill-opacity:1;stroke:#1d1d1d;stroke-width:1.50001;stroke-dasharray:none;stroke-opacity:1"/><rect width="9.07" height="9.07" x="-287.453" y="92.637" rx="1.382" ry="1.382" style="fill:#3f3f3f;fill-opacity:1;stroke:#1d1d1d;stroke-width:1.50001;stroke-dasharray:none;stroke-opacity:1"/><g style="stroke-width:1.57282"><path d="M96.603 177.888c-7.492-4.148-18.42-6.1-16.538-18.477 2.047-13.45.59-27.703 5.68-40.41 2.7-6.736 7.908-15.23 16.431-13.753 3.778.654 5.71-.964 7.784-1.463 6.472-1.555 17.787-3.446 17.8 6.857.011 7.952 6.012 15.178 3.459 23.367-2.44 7.828-11.778 9.352-16.821 15.057-6.27 7.093 5.46 12.283 8.718 17.747 3.07 5.149 8.255 16.594.113 18.863-8.397 2.34-16.232-1.179-22.735-6.13-1.122-.854-2.622-.956-3.891-1.658" style="fill:#454545;fill-opacity:.875833;stroke:none;stroke-width:4.02484;stroke-linecap:square;stroke-linejoin:round;stroke-dasharray:none;stroke-opacity:1;paint-order:fill markers stroke;stop-color:#000" transform="rotate(-45 150.68 252.392)scale(.6358)"/><path d="M134.809 161.195c-3.009-.066-6.075-1.87-7.278-4.73-.633-1.502-.646-3.392.484-4.655.531-.595 1.383-.7 2.049-1.133 1.27-.827 1.943-2.563 3.502-2.956 1.027-.26 2.048.21 3.028.478 1.846.502 3.74.959 5.688.713 1.512-.19 2.57 1.52 2.635 2.924.044.938-.487 1.851-1.405 2.196-1.529.573-3.403.204-4.715 1.15-1.523 1.1-.76 3.753-2.227 5.052-.501.444-1.061.976-1.761.96" style="fill:#454545;fill-opacity:.875833;stroke:none;stroke-width:4.02484;stroke-linecap:square;stroke-linejoin:round;stroke-dasharray:none;stroke-opacity:1;paint-order:fill markers stroke;stop-color:#000" transform="rotate(-45 150.68 252.392)scale(.6358)"/></g><path d="m435.555 185.088 2.228 6.265 9.433 3.004-4.553 6.273 1.638-5.146-6.642-2.17-9.478 1.15 6.497-2.433-.907-6.4-3.334-2.617 9.343-2.47-5.858 2.69z" style="display:inline;fill:#484848;fill-opacity:1;stroke:none;stroke-width:1.51859;stroke-linecap:round;stroke-linejoin:round;stroke-miterlimit:29;stroke-dasharray:none;stroke-opacity:1"/><path d="m134.437 251.434 11.694 8.65-8.585-13.253 2.35-9.514-5.193 6.735-6.364-3.44 3.594 6.986z" style="display:inline;fill:#484848;fill-opacity:1;stroke:none;stroke-width:2.64583;stroke-linecap:round;stroke-linejoin:round;stroke-miterlimit:29;stroke-dasharray:none;stroke-opacity:1"/><path d="m-218.206 178.625 20.815-8.218-17.146 8.453 1.347.941-10.827 4.695 5.123-3.495-4.788 1.049z" style="display:inline;fill:#484848;fill-opacity:1;stroke:none;stroke-width:2.12831;stroke-linecap:round;stroke-linejoin:round;stroke-miterlimit:29;stroke-dasharray:none;stroke-opacity:1"/><path d="m271.939 199.232 20.816-8.218-17.147 8.452 1.347.942-10.827 4.695 5.123-3.496-4.788 1.05z" style="display:inline;fill:#444;fill-opacity:1;stroke:none;stroke-width:2.12831;stroke-linecap:round;stroke-linejoin:round;stroke-miterlimit:29;stroke-dasharray:none;stroke-opacity:1"/></g></svg>