<svg xmlns="http://www.w3.org/2000/svg" width="1059.088" height="431.068" viewBox="0 0 560.434 228.107"><path d="M1895.766 1801.534h49.338v223.652h-49.338z" style="fill:#4a331e;fill-opacity:1;stroke:#21150c;stroke-width:3.99998;stroke-dasharray:none;stroke-opacity:1" transform="translate(-1885.98 -1799.105)"/><path d="M1945.104 1801.534h49.338v223.652h-49.338zM2043.779 1801.534h49.338v223.652h-49.338z" style="fill:#4d351f;fill-opacity:1;stroke:#21150c;stroke-width:3.99998;stroke-dasharray:none;stroke-opacity:1" transform="translate(-1885.98 -1799.105)"/><path d="M2093.117 1801.534h49.338v223.652h-49.338zM2191.792 1914.371h49.338v110.815h-49.338z" style="fill:#4a331e;fill-opacity:1;stroke:#21150c;stroke-width:3.99998;stroke-dasharray:none;stroke-opacity:1" transform="translate(-1885.98 -1799.105)"/><path d="M2142.455 1918.858h49.338v106.329h-49.338zM2339.805 1801.534h49.338v223.652h-49.338z" style="fill:#4d351f;fill-opacity:1;stroke:#21150c;stroke-width:3.99998;stroke-dasharray:none;stroke-opacity:1" transform="translate(-1885.98 -1799.105)"/><path d="M2191.792 1801.535v12.12l-.126-.237v73.402l6.225-15.852 3.745 13.042 7.4-15.655h1.447l5.811 16.374 4.648-4.605 7.701-11.77h.018l12.595 18.466v-73.402l-.126.377v-12.26z" style="fill:#4a331e;fill-opacity:1;stroke:#21150c;stroke-width:3.99998;stroke-dasharray:none;stroke-opacity:1" transform="translate(-1885.98 -1799.105)"/><path d="M2142.202 1801.794v8.67l-.126-.17v52.506l6.225-11.34 3.745 9.33 7.4-11.198h1.446l5.812 11.713 4.648-3.295 7.701-8.418h.018l12.595 13.208v-52.505l-.126.27v-8.77z" style="fill:#4d351f;fill-opacity:1;stroke:#21150c;stroke-width:3.99998;stroke-dasharray:none;stroke-opacity:1" transform="translate(-1885.98 -1799.105)"/><path d="M2290.523 1801.535v12.12l-.126-.237v73.402l6.225-15.852 3.745 13.042 7.4-15.655h1.446l5.811 16.374 4.649-4.605 7.7-11.77h.019l12.595 18.466v-73.402l-.127.377v-12.26zM2339.805 2024.945v-8.913l.126.174v-53.98l-6.225 11.658-3.745-9.591-7.4 11.512h-1.446l-5.812-12.042-4.648 3.388-7.701 8.654h-.018l-12.595-13.58v53.98l.126-.277v9.017zM1994.441 1801.105v8.192l-.126-.16v49.613l6.225-10.715 3.745 8.815 7.4-10.58h1.447l5.811 11.067 4.648-3.113 7.701-7.955h.018l12.595 12.481v-49.613l-.126.255v-8.287zM2043.363 2025.212v-20.692l.126.404v-125.317l-6.225 27.065-3.745-22.266-7.4 26.727h-1.446l-5.812-27.956-4.648 7.863-7.701 20.093h-.018l-12.595-31.526v125.317l.127-.644v20.932z" style="fill:#4a331e;fill-opacity:1;stroke:#21150c;stroke-width:3.99998;stroke-dasharray:none;stroke-opacity:1" transform="translate(-1885.98 -1799.105)"/><path d="M2241.13 1801.534h49.338v223.652h-49.338z" style="fill:#4d351f;fill-opacity:1;stroke:#21150c;stroke-width:3.99998;stroke-dasharray:none;stroke-opacity:1" transform="translate(-1885.98 -1799.105)"/><path d="M2389.143 1801.534h49.338v223.652h-49.338z" style="fill:#4a331e;fill-opacity:1;stroke:#21150c;stroke-width:3.99998;stroke-dasharray:none;stroke-opacity:1" transform="translate(-1885.98 -1799.105)"/><path d="M1909.858-2444.415h14v556.434h-14z" style="fill:#68482a;fill-opacity:1;stroke:#21150c;stroke-width:3.99999;stroke-dasharray:none;stroke-opacity:1" transform="rotate(90 -43.438 -1842.543)"/><path d="M2028.559 1990.205c-4.794-9.94-2.699-23.264 3.607-33.2 4.154-6.544 11.77-10.661 19.623-9.833 10.239 1.081 20.4 4.164 29.152 9.588 5.178 3.21 6.27 9.674 10.264 13.991 4.377 4.732 9.4 11.531 6.554 18.261-2.27 5.368-8.772 6.04-13.63 7.738-5.507 1.925-11.6-.68-15.665-5.554-3.031-3.634-8.197-4.892-12.659-6.379-4.359-1.451-9.185-.642-13.756-.465-4.967.191-11.264 10.47-13.49 5.853zM2336.462 1845.031c.818-11.005 9.295-21.496 19.724-26.948 6.869-3.59 10.872 1.333 11.679 9.189.775 7.54 25.817 5.913 30.684 14.986 2.88 5.368.593 11.513 1.893 17.249 1.425 6.286 2.375 14.686-3.455 19.091-4.65 3.513-10.616.844-15.672-.114-5.732-1.086-9.706-6.389-10.79-12.642-.808-4.662-12.353-4.344-9.813-7.536 2.86-3.596-5.593-9.466-9.64-11.599-4.397-2.318-14.99 3.436-14.61-1.676z" style="fill:#38451e;fill-opacity:1;stroke:#242d14;stroke-width:3.67;stroke-linecap:square;stroke-linejoin:round;stroke-dasharray:none;stroke-opacity:1;paint-order:fill markers stroke;stop-color:#000" transform="translate(-1885.98 -1799.105)"/><path d="M1897.739 1925.749h542.714v100.629h-542.714z" style="fill:#000;fill-opacity:.0821759;stroke:none;stroke-width:4;stroke-dasharray:none;stroke-opacity:1" transform="translate(-1885.98 -1799.105)"/></svg>