<svg xmlns="http://www.w3.org/2000/svg" xmlns:xlink="http://www.w3.org/1999/xlink" width="1154.486" height="563.951" viewBox="0 0 305.458 149.212"><defs><pattern xlink:href="#a" id="b" x="0" y="0" patternTransform="matrix(.3 0 0 .35918 -118.06 -589.967)" preserveAspectRatio="xMidYMid"/><pattern id="a" width="338.127" height="182.912" patternTransform="translate(245 644)" patternUnits="userSpaceOnUse" preserveAspectRatio="xMidYMid"><path d="M0 0v182.912h338.127V0Z" style="fill:#543d2b;fill-opacity:1;stroke-width:5.1292;paint-order:markers stroke fill"/><rect width="39.616" height="163.381" x="-136.367" y="-291.733" rx="3.602" ry="3.602" style="fill:#644c33;fill-opacity:1;stroke-width:1.54049;paint-order:markers stroke fill" transform="scale(1 -1)rotate(90)"/><rect width="39.616" height="163.381" x="-90.502" y="-216.462" rx="3.602" ry="3.602" style="fill:#694c30;fill-opacity:1;stroke-width:1.54049;paint-order:markers stroke fill" transform="scale(1 -1)rotate(90)"/><rect width="39.616" height="163.381" x="-45.341" y="-246.04" rx="3.602" ry="3.602" style="fill:#644c33;fill-opacity:1;stroke-width:1.54049;paint-order:markers stroke fill" transform="scale(1 -1)rotate(90)"/><rect width="39.616" height="163.381" x="-182.912" y="-338.127" rx="3.602" ry="3.602" style="fill:#694c30;fill-opacity:1;stroke-width:1.54049;paint-order:markers stroke fill" transform="scale(1 -1)rotate(90)"/><rect width="39.616" height="163.381" x="-182.912" y="-169.083" rx="3.602" ry="3.602" style="fill:#644c33;fill-opacity:1;stroke-width:1.54049;paint-order:markers stroke fill" transform="scale(1 -1)rotate(90)"/><path d="M0 5.725v39.617h73.05a3.595 3.595 0 0 0 3.602-3.604V9.326a3.593 3.593 0 0 0-3.601-3.601zM255.648 5.726a3.593 3.593 0 0 0-3.601 3.602V41.74a3.593 3.593 0 0 0 3.601 3.602h82.479V5.726Z" style="fill:#694c30;fill-opacity:1;stroke-width:1.54049;paint-order:markers stroke fill"/><path d="M0 50.828v39.615h43.395a3.593 3.593 0 0 0 3.601-3.601V54.43a3.593 3.593 0 0 0-3.601-3.602zM226.148 50.77a3.593 3.593 0 0 0-3.601 3.602v32.412a3.595 3.595 0 0 0 3.601 3.603h111.979V50.77Z" style="fill:#644c33;fill-opacity:1;stroke-width:1.54049;paint-order:markers stroke fill"/><path d="M0 96.727v39.617h118.332a3.595 3.595 0 0 0 3.602-3.604v-32.412a3.593 3.593 0 0 0-3.602-3.602zM301.754 96.738a3.593 3.593 0 0 0-3.602 3.602v32.412a3.595 3.595 0 0 0 3.602 3.603h36.373V96.738Z" style="fill:#694c30;fill-opacity:1;stroke-width:1.54049;paint-order:markers stroke fill"/></pattern></defs><path d="M1404.928 2545.763h294.665v144.705h-294.665z" style="fill:url(#b);fill-opacity:1;stroke:none;stroke-width:10.8135;stroke-dasharray:none;stroke-opacity:1" transform="translate(-1399.426 -2542.897)"/><path d="M1671.361 2686.817H1566.19M1567.345 2686.817H1464.84M1697.562 2686.817h-26.201M1404.718 2542.897v149.193M1699.592 2542.916v149.193M1639.717 2548.188h-240.291" style="fill:#36271c;fill-opacity:1;stroke:#33231a;stroke-width:10.5833;stroke-dasharray:none;stroke-opacity:1" transform="translate(-1399.426 -2542.897)"/><path d="M1566.261 2686.817h-98.888" style="fill:#36271c;fill-opacity:1;stroke:#6e4f32;stroke-width:6.08541;stroke-dasharray:none;stroke-opacity:1" transform="translate(-1399.426 -2542.897)"/><path d="M1697.562 2686.817h-26.201M1404.928 2545.165v144.751" style="fill:#36271c;fill-opacity:1;stroke:#6e4f32;stroke-width:6.08542;stroke-dasharray:none;stroke-opacity:1" transform="translate(-1399.426 -2542.897)"/><path d="M1699.592 2544.783v145.077" style="fill:#36271c;fill-opacity:1;stroke:#6e4f32;stroke-width:6.08541;stroke-dasharray:none;stroke-opacity:1" transform="translate(-1399.426 -2542.897)"/><path d="M1637.601 2548.207h-235.716" style="fill:#36271c;fill-opacity:1;stroke:#6e4f32;stroke-width:6.08542;stroke-dasharray:none;stroke-opacity:1" transform="translate(-1399.426 -2542.897)"/></svg>