<svg xmlns="http://www.w3.org/2000/svg" width="60.516" height="13.943" viewBox="0 0 16.012 3.689"><g transform="translate(-149.794 2.108)"><path d="M153.861-1.91h1.005v1.817h-1.005z" style="fill:#333;fill-opacity:1;fill-rule:evenodd;stroke:#171717;stroke-width:.396875;stroke-linecap:round;stroke-linejoin:round;stroke-dasharray:none;stroke-opacity:1"/><path d="M165.408-.853V.628c0 .106-.08.186-.158.186h-8.335c-.08 0-.159-.08-.159-.186V-.853c0-.106.08-.185.16-.185h8.307a.18.18 0 0 1 .185.185" class="cls-3" style="fill:#333;fill-opacity:1;stroke:#171717;stroke-width:.79375px;stroke-linecap:round;stroke-linejoin:round"/><path d="M157.625 1.184h-7.435v-2.593h7.462" class="cls-3" style="fill:#595959;fill-opacity:1;stroke:#171717;stroke-width:.79375px;stroke-linecap:round;stroke-linejoin:round"/><path d="M157.599-1.409h6.826l.027 2.593h-6.827" class="cls-3" data-name="path4" style="fill:#595959;fill-opacity:1;stroke:#171717;stroke-width:.79375px;stroke-linecap:round;stroke-linejoin:round"/><path d="M155.83-.563h2.982v1.945h-2.982V.298h-.435V-.29h.435z" style="fill:#383838;fill-opacity:1;fill-rule:evenodd;stroke:none;stroke-width:.396875;stroke-linecap:round;stroke-linejoin:round"/><path d="M155.83-.563h2.982v1.945h-2.982V.433h-.372v-.876h.372z" style="fill:none;fill-rule:evenodd;stroke:#171717;stroke-width:.396875;stroke-linecap:round;stroke-linejoin:round"/><path d="M163.197-.403h1.026v.581h-1.026z" style="fill:#474747;fill-opacity:1;fill-rule:evenodd;stroke:none;stroke-width:.396875;stroke-linecap:round;stroke-linejoin:round;stroke-dasharray:none;stroke-opacity:1"/><circle cx="163.295" cy="-.108" r=".202" style="fill:#ff3700;fill-opacity:1;fill-rule:evenodd;stroke:none;stroke-width:.396875;stroke-linecap:round;stroke-linejoin:round;stroke-dasharray:none;stroke-opacity:1"/><path d="M162.93-.419h1.293v.613h-1.293z" style="fill:none;fill-opacity:1;fill-rule:evenodd;stroke:#171717;stroke-width:.396875;stroke-linecap:round;stroke-linejoin:round;stroke-dasharray:none;stroke-opacity:1"/><path d="M152.439-.49v.756h-1.162V-.49z" style="fill:#333;fill-opacity:1;fill-rule:evenodd;stroke:#171717;stroke-width:.396875;stroke-linecap:round;stroke-linejoin:round;stroke-dasharray:none;stroke-opacity:1"/><path d="M163.51 1.212V.606M162.782 1.212V.606M162.053 1.212V.606M161.325 1.212V.606M163.51-.83v-.607M162.782-.83v-.607M162.053-.83v-.607M161.325-.83v-.607M153.98 1.212V.606M153.25 1.212V.606M152.522 1.212V.606M151.793 1.212V.606M151.065 1.212V.606M153.98-.83v-.607M153.25-.83v-.607M152.522-.83v-.607M151.793-.83v-.607M151.065-.83v-.607" style="fill:#333;fill-opacity:1;stroke:#171717;stroke-width:.396875;stroke-linejoin:round;stroke-opacity:1"/></g></svg>