<svg xmlns="http://www.w3.org/2000/svg" width="164.317" height="39.683" viewBox="0 0 43.476 10.499"><g transform="translate(66.22 -39.745)"><path d="M-64.72 42.854h-1.103v3.853h1.107z" style="fill:#343434;fill-opacity:1;stroke:#171717;stroke-width:.79375;stroke-linecap:round;stroke-linejoin:round;stroke-dasharray:none;stroke-opacity:1"/><path d="M-64.873 46.651c2.217-.458 4.935-.477 7.62 0v-3.85c-2.562.46-5.308.537-7.62 0z" style="fill:#8d7b55;fill-opacity:1;stroke:none;stroke-width:.79375;stroke-linecap:round;stroke-linejoin:round;stroke-dasharray:none;stroke-opacity:1"/><path d="M-60.483 43.329c.79 1.11.36 2.45 0 3.289h3.186v-3.675z" style="fill:#6f6143;fill-opacity:1;stroke:none;stroke-width:.79375;stroke-linecap:round;stroke-linejoin:round;stroke-dasharray:none;stroke-opacity:1"/><path d="M-64.71 46.705c2.218-.458 4.936-.477 7.62 0v-3.85c-2.56.46-5.307.537-7.62 0z" style="fill:none;fill-opacity:1;stroke:#1d1711;stroke-width:.79375;stroke-linecap:round;stroke-linejoin:round;stroke-dasharray:none;stroke-opacity:1"/><path d="M-48.94 49.419h5.49v-9.277h-5.49z" style="fill:#5d5e40;fill-opacity:1;stroke:#1b1c12;stroke-width:.79375;stroke-linecap:round;stroke-linejoin:round;stroke-dasharray:none;stroke-opacity:1"/><path d="M-27.21 44.02h4.068v1.52h-4.069z" class="cls-3" style="fill:#262626;fill-opacity:1;fill-rule:evenodd;stroke:#171717;stroke-width:.79375px;stroke-linecap:round;stroke-linejoin:round;stroke-miterlimit:5.89;stroke-opacity:1"/><path d="M-43.445 46.45h3.306v-3.34h-3.306z" style="fill:#6b562e;fill-opacity:1;stroke:#201a0e;stroke-width:.396875;stroke-linecap:round;stroke-linejoin:round;stroke-dasharray:none;stroke-opacity:1"/><path d="M-44.673 43.854h19.316v1.852h-19.316z" class="cls-3" style="fill:#404040;fill-opacity:1;fill-rule:evenodd;stroke:#171717;stroke-width:.79375px;stroke-linecap:round;stroke-linejoin:round;stroke-miterlimit:5.89;stroke-opacity:1"/><path d="M-48.01 47.867h3.63v-6.703h-3.63z" style="fill:#404040;fill-opacity:1;stroke:#171717;stroke-width:.396875;stroke-linecap:round;stroke-linejoin:round;stroke-dasharray:none;stroke-opacity:1"/><path d="M148.41 79.402v4.454h11.572l4.469-.96h3.202l2.737-1.185c.206-.347-3.355-1.853-3.355-1.853h-5.64l-1.95-.39z" style="fill:#b3914c;fill-opacity:1;stroke:none;stroke-width:1.05833;stroke-dasharray:none;stroke-opacity:1" transform="translate(-69.562 29.603)scale(.14738)"/><path d="m148.589 79.354 15.352.536c-.196.026-.104 3.167 0 3.153l-15.368.91z" style="fill:#a18245;fill-opacity:1;stroke:none;stroke-width:1.05833;stroke-dasharray:none;stroke-opacity:1" transform="translate(-69.562 29.603)scale(.14738)"/><path d="M149.162 79.555v4.092h-.449v-4.23z" style="fill:#70695c;fill-opacity:1;stroke:none;stroke-width:1.05833;stroke-dasharray:none;stroke-opacity:1" transform="translate(-69.562 29.603)scale(.14738)"/><path d="M148.96 93.568v-3.219h1.343v.265h10.136l1.405.412h3.135v.088c3.26.02 3.243.332 4.717.81.665.203.617 1.108.618 1.322m-21.354-.58v3.219h1.343v-.265h10.136l1.405-.412h3.135v-.088c3.26-.02 3.243-.332 4.717-.81.665-.203.617-1.108.618-1.321" style="fill:none;fill-opacity:1;stroke:#473a1f;stroke-width:2.69278;stroke-dasharray:none;stroke-opacity:1" transform="translate(-69.654 27.902)scale(.14738)"/><path d="M148.41 79.402v4.454h11.572l4.469-.96h3.202l2.737-1.185c.206-.347-3.355-1.853-3.355-1.853h-5.64l-1.95-.39z" style="fill:#b3914c;fill-opacity:1;stroke:none;stroke-width:1.05833;stroke-dasharray:none;stroke-opacity:1" transform="translate(-69.562 30.104)scale(.14738)"/><path d="m148.589 79.354 15.352.536c-.196.026-.104 3.167 0 3.153l-15.368.91z" style="fill:#a18245;fill-opacity:1;stroke:none;stroke-width:1.05833;stroke-dasharray:none;stroke-opacity:1" transform="translate(-69.562 30.104)scale(.14738)"/><path d="M149.162 79.555v4.092h-.449v-4.23z" style="fill:#70695c;fill-opacity:1;stroke:none;stroke-width:1.05833;stroke-dasharray:none;stroke-opacity:1" transform="translate(-69.562 30.104)scale(.14738)"/><path d="M148.96 93.568v-3.219h1.343v.265h10.136l1.405.412h3.135v.088c3.26.02 3.243.332 4.717.81.665.203.617 1.108.618 1.322m-21.354-.58v3.219h1.343v-.265h10.136l1.405-.412h3.135v-.088c3.26-.02 3.243-.332 4.717-.81.665-.203.617-1.108.618-1.321" style="fill:none;fill-opacity:1;stroke:#473a1f;stroke-width:2.69278;stroke-dasharray:none;stroke-opacity:1" transform="translate(-69.654 28.403)scale(.14738)"/><path d="M148.41 79.402v4.454h11.572l4.469-.96h3.202l2.737-1.185c.206-.347-3.355-1.853-3.355-1.853h-5.64l-1.95-.39z" style="fill:#b3914c;fill-opacity:1;stroke:none;stroke-width:1.05833;stroke-dasharray:none;stroke-opacity:1" transform="translate(-69.562 30.718)scale(.14738)"/><path d="m148.589 79.354 15.352.536c-.196.026-.104 3.167 0 3.153l-15.368.91z" style="fill:#a18245;fill-opacity:1;stroke:none;stroke-width:1.05833;stroke-dasharray:none;stroke-opacity:1" transform="translate(-69.562 30.718)scale(.14738)"/><path d="M149.162 79.555v4.092h-.449v-4.23z" style="fill:#70695c;fill-opacity:1;stroke:none;stroke-width:1.05833;stroke-dasharray:none;stroke-opacity:1" transform="translate(-69.562 30.718)scale(.14738)"/><path d="M148.96 93.568v-3.219h1.343v.265h10.136l1.405.412h3.135v.088c3.26.02 3.243.332 4.717.81.665.203.617 1.108.618 1.322m-21.354-.58v3.219h1.343v-.265h10.136l1.405-.412h3.135v-.088c3.26-.02 3.243-.332 4.717-.81.665-.203.617-1.108.618-1.321" style="fill:none;fill-opacity:1;stroke:#473a1f;stroke-width:2.69278;stroke-dasharray:none;stroke-opacity:1" transform="translate(-69.654 29.016)scale(.14738)"/><path d="M-50.161 7.998v-2.22h.847v2.243z" style="fill:#595959;fill-opacity:1;stroke:#171717;stroke-width:.396875;stroke-linecap:butt;stroke-linejoin:round;stroke-dasharray:none;stroke-opacity:1" transform="translate(3.612 35.405)"/><path d="m-51.12 47.318-.344.471 1.742 1.006.344-.472z" style="fill:#333;fill-opacity:1;stroke:#171717;stroke-width:.396875;stroke-linecap:round;stroke-linejoin:round;stroke-dasharray:none;stroke-opacity:1"/><path d="M-51.704 47.784h1.467v-.903h-1.467z" style="fill:#333;fill-opacity:1;stroke:#171717;stroke-width:.396875;stroke-linecap:round;stroke-linejoin:round;stroke-dasharray:none;stroke-opacity:1"/><path d="M-57.125 47.038h11.873v-4.515h-11.873z" style="fill:#957840;fill-opacity:1;stroke:none;stroke-width:.79375;stroke-linecap:round;stroke-linejoin:round;stroke-dasharray:none;stroke-opacity:1"/><path d="m-45.335 47.038 2.91-.53v-3.456l-2.91-.529z" style="fill:#7c6536;fill-opacity:1;stroke:none;stroke-width:.35538;stroke-linecap:round;stroke-linejoin:round;stroke-dasharray:none;stroke-opacity:1"/><path d="M-45.5 45.723h2.777v-1.885H-45.5z" style="fill:#957840;fill-opacity:1;stroke:#201a0e;stroke-width:.396875;stroke-linecap:round;stroke-linejoin:round;stroke-dasharray:none;stroke-opacity:1"/><path d="m-57.092 46.756 1.025.282h10.81l2.684-.53v-3.456l-2.66-.529h-10.9l-.959.248z" style="fill:none;fill-opacity:1;stroke:#201a0e;stroke-width:.79375;stroke-linecap:round;stroke-linejoin:round;stroke-dasharray:none;stroke-opacity:1"/><path d="M-40.995 46.252h9.656v-2.943h-9.656z" style="fill:#957840;fill-opacity:1;stroke:none;stroke-width:.79375;stroke-linecap:round;stroke-linejoin:round;stroke-dasharray:none;stroke-opacity:1"/><path d="M-40.89 45.24h9.656v-.92h-9.657z" style="fill:#7d6536;fill-opacity:1;stroke:none;stroke-width:.443901;stroke-linecap:round;stroke-linejoin:round;stroke-dasharray:none;stroke-opacity:1"/><path d="M-38.265 46.987h3.27v-.859h-3.27zm0-3.497h3.27v-.871h-3.27z" style="fill:#404040;fill-opacity:1;stroke:#171717;stroke-width:.396875;stroke-linecap:round;stroke-linejoin:round;stroke-dasharray:none;stroke-opacity:1" transform="translate(0 -.023)"/><path d="M-40.925 45.24h9.657v-.92h-9.657z" style="fill:#7d6536;fill-opacity:1;stroke:none;stroke-width:.443901;stroke-linecap:round;stroke-linejoin:round;stroke-dasharray:none;stroke-opacity:1"/><g transform="translate(0 -7.492)"><circle cx="-35.056" cy="52.272" r=".346" style="fill:#171717;fill-opacity:1;stroke:none;stroke-width:.396875;stroke-linecap:round;stroke-linejoin:round;stroke-dasharray:none;stroke-opacity:1"/><circle cx="-35.875" cy="52.272" r=".346" style="fill:#171717;fill-opacity:1;stroke:none;stroke-width:.396875;stroke-linecap:round;stroke-linejoin:round;stroke-dasharray:none;stroke-opacity:1"/><circle cx="-36.695" cy="52.272" r=".346" style="fill:#171717;fill-opacity:1;stroke:none;stroke-width:.396875;stroke-linecap:round;stroke-linejoin:round;stroke-dasharray:none;stroke-opacity:1"/><circle cx="-37.515" cy="52.272" r=".346" style="fill:#171717;fill-opacity:1;stroke:none;stroke-width:.396875;stroke-linecap:round;stroke-linejoin:round;stroke-dasharray:none;stroke-opacity:1"/><circle cx="-39.733" cy="52.272" r=".346" style="fill:#171717;fill-opacity:1;stroke:none;stroke-width:.396875;stroke-linecap:round;stroke-linejoin:round;stroke-dasharray:none;stroke-opacity:1"/><circle cx="-40.673" cy="52.272" r=".346" style="fill:#171717;fill-opacity:1;stroke:none;stroke-width:.396875;stroke-linecap:round;stroke-linejoin:round;stroke-dasharray:none;stroke-opacity:1"/></g><path d="M-34.116 45.28h2.973v-1h-2.973z" style="fill:#404040;fill-opacity:1;stroke:#171717;stroke-width:.396875;stroke-linecap:round;stroke-linejoin:round;stroke-dasharray:none;stroke-opacity:1"/><path d="M-40.908 46.252h9.657v-2.943h-9.657z" style="fill:none;fill-opacity:1;stroke:#201a0e;stroke-width:.79375;stroke-linecap:round;stroke-linejoin:round;stroke-dasharray:none;stroke-opacity:1"/><path d="M-57.076 46.015h1.914v-2.47h-1.914z" style="fill:#404040;fill-opacity:1;stroke:#171717;stroke-width:.396875;stroke-linecap:round;stroke-linejoin:round;stroke-dasharray:none;stroke-opacity:1"/><path d="M-55.885 46.269h10.24l.082.24h.703v-3.457h-.728l-.066.29h-10.23z" style="fill:#8d7b55;fill-opacity:1;stroke:none;stroke-width:.396875;stroke-linecap:round;stroke-linejoin:round;stroke-dasharray:none;stroke-opacity:1"/><g style="fill:#2f2f36;fill-opacity:1"><g style="fill:#6f6143;fill-opacity:1"><path d="M-127.947 54.197h-11.62" style="color:#000;fill:#6f6143;fill-opacity:1;stroke-linejoin:round;-inkscape-stroke:none" transform="matrix(.8488 0 0 1 62.924 -9.416)"/><path d="M-139.231 53.535v1.322h11.754v-1.322z" style="color:#000;fill:#6f6143;fill-opacity:1;stroke-width:1.00571;stroke-linejoin:round;-inkscape-stroke:none" transform="matrix(.8488 0 0 1 62.924 -9.416)"/></g><g style="fill:#352b17;fill-opacity:1"><path d="M-130.8 53.53v1.335m-.397-1.334v1.334h.793v-1.334Z" style="color:#000;fill:#352b17;fill-opacity:1;stroke-linejoin:round;-inkscape-stroke:none" transform="translate(75.362 -9.418)"/></g><g style="fill:#352b17;fill-opacity:1"><path d="M-129.358 53.53v1.335m-.396-1.334v1.334h.793v-1.334Z" style="color:#000;fill:#352b17;fill-opacity:1;stroke-linejoin:round;-inkscape-stroke:none" transform="translate(75.352 -9.418)"/></g><g style="fill:#352b17;fill-opacity:1"><path d="M-127.966 53.53v1.335m-.397-1.334v1.334h.795v-1.334Z" style="color:#000;fill:#352b17;fill-opacity:1;stroke-linejoin:round;-inkscape-stroke:none" transform="translate(75.395 -9.418)"/></g><g style="fill:#352b17;fill-opacity:1"><path d="M-138.005 53.53v1.334m-.397-1.334v1.333h.795V53.53z" style="color:#000;fill:#352b17;fill-opacity:1;stroke-linejoin:round;-inkscape-stroke:none" transform="translate(86.868 -9.416)"/></g><g style="fill:#352b17;fill-opacity:1"><path d="M-136.563 53.53v1.334m-.397-1.334v1.333h.794V53.53z" style="color:#000;fill:#352b17;fill-opacity:1;stroke-linejoin:round;-inkscape-stroke:none" transform="translate(86.862 -9.416)"/></g><g style="fill:#352b17;fill-opacity:1"><path d="M-135.12 53.53v1.334m-.398-1.334v1.333h.795V53.53z" style="color:#000;fill:#352b17;fill-opacity:1;stroke-linejoin:round;-inkscape-stroke:none" transform="translate(86.855 -9.416)"/></g><g style="fill:#352b17;fill-opacity:1"><path d="M-133.679 53.53v1.334m-.397-1.334v1.333h.795V53.53z" style="color:#000;fill:#352b17;fill-opacity:1;stroke-linejoin:round;-inkscape-stroke:none" transform="translate(86.849 -9.416)"/></g><g style="fill:#352b17;fill-opacity:1"><path d="M-132.243 53.53v1.335m-.396-1.334v1.334h.793v-1.334Z" style="color:#000;fill:#352b17;fill-opacity:1;stroke-linejoin:round;-inkscape-stroke:none" transform="translate(86.847 -9.418)"/></g></g><path d="M-44.893 44.115h-11.03v1.33h11.03z" style="fill:none;fill-opacity:1;stroke:#201a0e;stroke-width:.396875;stroke-linecap:butt;stroke-linejoin:miter;stroke-dasharray:none;stroke-opacity:1"/><path d="M-55.92 46.269h10.238l.083.24h.703v-3.457h-.728l-.066.29h-10.231z" style="fill:none;fill-opacity:1;stroke:#201a0e;stroke-width:.396875;stroke-linecap:round;stroke-linejoin:round;stroke-dasharray:none;stroke-opacity:1"/><path d="M-42.107 47.233h.74v-2.467h-.74z" style="fill:#404040;fill-opacity:1;stroke:#171717;stroke-width:.396875;stroke-linecap:round;stroke-linejoin:round;stroke-dasharray:none;stroke-opacity:1"/><path d="M-42.206 45.496h.938v-1.432h-.938z" style="fill:#333;fill-opacity:1;stroke:#171717;stroke-width:.396875;stroke-linecap:round;stroke-linejoin:round;stroke-dasharray:none;stroke-opacity:1"/><path d="m-45.886 49.847 4.75-1.006-.007-1.709-1.257-.007.013.492-3.818.676z" style="fill:#bea26d;fill-opacity:1;stroke:#201a0e;stroke-width:.79375;stroke-linecap:round;stroke-linejoin:round;stroke-dasharray:none;stroke-opacity:1"/><path d="M-54.556 45.75h1.914v-1.94h-1.914z" style="fill:#262626;fill-opacity:1;stroke:#171717;stroke-width:.396875;stroke-linecap:round;stroke-linejoin:round;stroke-dasharray:none;stroke-opacity:1"/><path d="M-54.556 45.222h1.914v-.883h-1.914z" style="fill:#404040;fill-opacity:1;stroke:#171717;stroke-width:.396875;stroke-linecap:round;stroke-linejoin:round;stroke-dasharray:none;stroke-opacity:1"/><path d="M-32.384 45.28h.859v-1h-.86z" style="fill:#262626;fill-opacity:1;stroke:#171717;stroke-width:.396875;stroke-linecap:round;stroke-linejoin:round;stroke-dasharray:none;stroke-opacity:1"/><path d="M-38.204 42.074v.537m.791-.537v.537m.79-.537v.537m.79-.537v.537m.79-.537v.537" style="fill:#7d6536;fill-opacity:1;stroke:#171717;stroke-width:.397;stroke-linecap:butt;stroke-linejoin:round;stroke-dasharray:none;stroke-opacity:1" transform="translate(-.01 .057)"/><path d="M-38.204 42.074v.537m.791-.537v.537m.79-.537v.537m.79-.537v.537m.79-.537v.537" style="fill:#7d6536;fill-opacity:1;stroke:#171717;stroke-width:.397;stroke-linecap:butt;stroke-linejoin:round;stroke-dasharray:none;stroke-opacity:1" transform="translate(-.01 4.801)"/><circle cx="-49.325" cy="48.707" r=".478" style="fill:#404040;fill-opacity:1;stroke:#171717;stroke-width:.396875;stroke-linecap:round;stroke-linejoin:round;stroke-dasharray:none;stroke-opacity:1"/></g></svg>