<svg xmlns="http://www.w3.org/2000/svg" xml:space="preserve" width="148.831" height="19.125" viewBox="0 0 39.378 5.06"><path d="M22.049.925c.073-.201.177-.532.56-.529h6.534c.327 0 .51.266.562.53.218 1.1.208 2.233 0 3.439-.05.289-.27.519-.574.529h-6.523c-.365-.014-.495-.286-.56-.53-.294-1.114-.435-2.233 0-3.439z" class="cls-3" style="fill:#975041;fill-opacity:1;fill-rule:evenodd;stroke:none;stroke-width:.79375px;stroke-linecap:round;stroke-linejoin:round;stroke-miterlimit:5.89;stroke-opacity:1" transform="translate(.877 -.115)"/><path d="M23.594.676v3.938m-.8-3.916v3.894m1.6-3.886v3.878m.8-3.878v3.878m.8-3.878v3.878m.8-3.878v3.878" style="fill:none;fill-opacity:1;stroke:#3a1e12;stroke-width:.436098;stroke-linecap:round;stroke-dasharray:none;stroke-opacity:1" transform="translate(.877 -.115)"/><path d="M25.995.676v3.938m-.8-3.916v3.894m1.6-3.886v3.878m.8-3.878v3.878m.8-3.878v3.878m.8-3.878v3.878" style="fill:none;fill-opacity:1;stroke:#20110e;stroke-width:.436098;stroke-linecap:round;stroke-dasharray:none;stroke-opacity:1" transform="translate(.877 -.115)"/><path d="M21.956.925c.073-.201.177-.416.559-.413h6.905c.326 0 .51.15.562.414.218 1.1.208 2.233 0 3.439-.05.289-.27.403-.574.413h-6.893c-.365-.014-.495-.17-.56-.414-.294-1.114-.436-2.233 0-3.439Z" class="cls-3" style="fill:none;fill-opacity:1;fill-rule:evenodd;stroke:#20110e;stroke-width:.79375px;stroke-linecap:round;stroke-linejoin:round;stroke-miterlimit:5.89;stroke-opacity:1" transform="translate(.877 -.115)"/><path d="m18.358 3.967.982.21V1.115l-.982.094z" style="fill:#4e4d4b;fill-rule:evenodd;stroke:#171717;stroke-width:.79375;stroke-linecap:round;stroke-linejoin:round;stroke-miterlimit:29;stroke-dasharray:none;stroke-opacity:1;paint-order:normal" transform="translate(.017 -.116)"/><path d="m17.64 1.245 15.318.49h6.007v1.853h-6.007l-15.317.459z" class="cls-3" style="fill:#686664;fill-opacity:1;fill-rule:evenodd;stroke:none;stroke-width:.793752px;stroke-linecap:round;stroke-linejoin:round;stroke-miterlimit:5.89;stroke-opacity:1" transform="translate(.017 -.116)"/><path d="m18.265 2.011 14.758.421 5.586.009v-.57H33l-14.57-.515Z" style="fill:#4e4d4b;fill-opacity:1;fill-rule:evenodd;stroke:none;stroke-width:.396875;stroke-linecap:round;stroke-linejoin:round;stroke-miterlimit:29;stroke-dasharray:none;stroke-opacity:1;paint-order:stroke fill markers" transform="translate(.017 -.203)"/><path d="m18.265 3.44 14.758-.422 5.586-.008v.57H33l-14.57.514z" style="fill:#4e4d4b;fill-opacity:1;fill-rule:evenodd;stroke:none;stroke-width:.396875;stroke-linecap:round;stroke-linejoin:round;stroke-miterlimit:29;stroke-dasharray:none;stroke-opacity:1;paint-order:stroke fill markers" transform="translate(.017 -.187)"/><path d="m17.64 1.245 15.318.49h6.007v1.853h-6.007l-15.317.459z" class="cls-3" style="fill:none;fill-opacity:1;fill-rule:evenodd;stroke:#161618;stroke-width:.793752px;stroke-linecap:round;stroke-linejoin:round;stroke-miterlimit:5.89;stroke-opacity:1" transform="translate(.017 -.116)"/><path d="M1.444.744H.38v3.804h1.08" style="fill:#4a4a4a;fill-opacity:1;stroke:#171717;stroke-width:.793752;stroke-linejoin:round;stroke-dasharray:none;stroke-opacity:1" transform="translate(.017 -.116)"/><path d="M13.516 4.323h-1.562c-1.515-.857-2.95-.362-3.996 0l-6.611.232V.737l6.51.297c1.116.52 2.848.668 4.097 0h1.562z" style="fill:#975041;fill-opacity:1;stroke:none;stroke-width:.793752;stroke-linejoin:round;stroke-dasharray:none;stroke-opacity:1" transform="translate(.017 -.116)"/><path d="M7.573.999c.738.39.257.601 0 .773-.258.172 2.724.17 2.724.17l2.166-.525V.98l-2.257.157ZM7.573 3.523c.369.195.515.513 0 .856l2.724-.145 2.166.203V3.82l-2.257-.389s-3.002-.103-2.633.092" style="fill:#63352a;fill-opacity:1;stroke:none;stroke-width:.469102;stroke-linejoin:round;stroke-dasharray:none;stroke-opacity:1" transform="translate(.017 -.116)"/><path d="M13.529 4.322h-1.56c-1.516-.856-3.093-.36-4.14 0l-6.47.233V.737l6.513.297c1.115.52 2.847.668 4.096 0h1.56z" style="fill:none;fill-opacity:1;stroke:#20110e;stroke-width:.793752;stroke-linejoin:round;stroke-dasharray:none;stroke-opacity:1" transform="translate(.017 -.116)"/><path d="m18.62 4.705.025-4.128h-4.878c-.503.038-1.49.365-1.866.498l-.024 3.188c.333.115 1.452.443 1.849.452z" style="fill:#878482;fill-opacity:1;stroke:none;stroke-width:.793752;stroke-linejoin:round;stroke-dasharray:none;stroke-opacity:1" transform="translate(.017 -.116)"/><g style="fill:#3e3e42;fill-opacity:1"><path d="M207.283 23.533h-4.287c-.759.002-1.427.226-2.082.399l.041-.98h6.411zm0 2.37h-4.287c-.759-.001-1.427-.225-2.082-.398l.041.98h6.411z" style="fill:#686664;fill-opacity:1;stroke:none;stroke-width:.396875;stroke-linejoin:round;stroke-dasharray:none;stroke-opacity:1" transform="translate(-188.785 -22.188)"/></g><path d="M18.049 4.646c.304.002.54-.07.546-.35l.005-3.28c0-.32-.128-.382-.527-.38h-4.097c-.597.01-1.741.306-2.118.44l-.023 3.187c.333.115 1.557.408 2.1.393z" style="fill:none;fill-opacity:1;stroke:#161618;stroke-width:.793752;stroke-linejoin:round;stroke-dasharray:none;stroke-opacity:1" transform="translate(.017 -.116)"/><path d="M37.538 2.646h.636" style="fill:#ffbc0c;fill-rule:evenodd;stroke:#171717;stroke-width:.396875;stroke-linecap:round;stroke-linejoin:round;stroke-miterlimit:29;stroke-dasharray:none;stroke-opacity:1;paint-order:stroke fill markers" transform="translate(.017 -.116)"/><path d="M35.724 1.585h-1.298v2.122h1.314z" style="fill:#4a4a4a;fill-opacity:1;stroke:#171717;stroke-width:.793752;stroke-linejoin:round;stroke-dasharray:none;stroke-opacity:1" transform="translate(.017 -.116)"/></svg>