<svg xmlns="http://www.w3.org/2000/svg" width="177.93" height="39.577" viewBox="0 0 47.077 10.471"><g transform="translate(66.239 -55.725)"><path d="m-43.17 64.552-.231-1.696.333-.09c.253.396.517.86.24 1.734z" style="fill:#595959;fill-opacity:1;stroke:#171717;stroke-width:.396875;stroke-linecap:round;stroke-linejoin:round;stroke-dasharray:none;stroke-opacity:1"/><path d="m-30.374 61.425-12.481 1.596.073.574 12.481-1.596z" style="fill:#595959;fill-opacity:1;stroke:#171717;stroke-width:.396875;stroke-linecap:round;stroke-linejoin:round;stroke-dasharray:none;stroke-opacity:1"/><path d="M-47.028 57.034v8.76h4.016v-8.76z" style="fill:#4b6241;fill-opacity:1;stroke:none;stroke-width:.79375;stroke-linecap:round;stroke-linejoin:round;stroke-dasharray:none;stroke-opacity:1"/><path d="M-46.973 64.825v.968h4.017v-.968z" style="fill:#536b47;fill-opacity:1;stroke:none;stroke-width:.263965;stroke-linecap:round;stroke-linejoin:round;stroke-dasharray:none;stroke-opacity:1"/><path d="M-47.057 65.153h3.977v-1.348h-4.018z" style="fill:#232e1f;fill-opacity:1;stroke:none;stroke-width:.396875;stroke-linecap:round;stroke-linejoin:round;stroke-dasharray:none;stroke-opacity:1"/><path d="M-47.229 56.52v.969h4.363v-.969z" style="fill:#607b51;fill-opacity:1;stroke:none;stroke-width:.275102;stroke-linecap:round;stroke-linejoin:round;stroke-dasharray:none;stroke-opacity:1"/><path d="m-30.368 60.92-12.48-1.595.073-.574 12.48 1.595z" style="fill:#595959;fill-opacity:1;stroke:#171717;stroke-width:.396875;stroke-linecap:round;stroke-linejoin:round;stroke-dasharray:none;stroke-opacity:1"/><path d="M-47.288 56.497v9.289h4.545v-9.289z" style="fill:none;fill-opacity:1;stroke:#151c12;stroke-width:.79375;stroke-linecap:round;stroke-linejoin:round;stroke-dasharray:none;stroke-opacity:1"/><path d="m-42.796 58.364-.231 1.696.333.09c.261-.453.53-.944.24-1.734z" style="fill:#595959;fill-opacity:1;stroke:#171717;stroke-width:.396875;stroke-linecap:round;stroke-linejoin:round;stroke-dasharray:none;stroke-opacity:1"/><path d="M148.41 79.402v4.454h11.572l4.469-.96h3.202l3.51-1.218-4.128-1.82h-5.64l-1.95-.39z" style="fill:#b3914c;fill-opacity:1;stroke:none;stroke-width:1.05833;stroke-dasharray:none;stroke-opacity:1" transform="translate(-68.52 52.235)scale(.14738)"/><path d="m148.589 79.354 15.352.536v3.153l-15.368.91z" style="fill:#a18245;fill-opacity:1;stroke:none;stroke-width:1.05833;stroke-dasharray:none;stroke-opacity:1" transform="translate(-68.52 52.235)scale(.14738)"/><path d="M149.162 79.555v4.092h-.449v-4.23z" style="fill:#70695c;fill-opacity:1;stroke:none;stroke-width:1.05833;stroke-dasharray:none;stroke-opacity:1" transform="translate(-68.52 52.235)scale(.14738)"/><path d="M164.327 80.081v3.034h-.505v-3.172z" style="fill:#862c2c;fill-opacity:1;stroke:none;stroke-width:1.12348;stroke-dasharray:none;stroke-opacity:1" transform="translate(-68.52 52.235)scale(.14738)"/><path d="M148.96 93.568v-3.219h1.343v.265h10.136l1.405.412h3.135v.088c3.26.02 4.396.332 5.87.81.664.203.616 1.108.617 1.322m-22.506-.58v3.219h1.343v-.265h10.136l1.405-.412h3.135v-.088c3.26-.02 4.396-.332 5.87-.81.664-.203.616-1.108.617-1.321" style="fill:none;fill-opacity:1;stroke:#473a1f;stroke-width:2.69278;stroke-dasharray:none;stroke-opacity:1" transform="translate(-68.61 50.534)scale(.14738)"/><path d="M-65.052 59.537h-.447c-.366-.023-.519.139-.529.432v2.391c-.012.264.199.386.53.364h.479" style="fill:#4d4d4d;fill-opacity:1;stroke:#171717;stroke-width:.396875;stroke-linecap:round;stroke-linejoin:round;stroke-dasharray:none;stroke-opacity:1"/><path d="M-55.013 62.494c-.88-.255-1.771-.465-3.239 0h-6.943v-2.787h6.993c1.08.413 2.096.395 3.119 0" style="fill:#8f4b3d;fill-opacity:1;stroke:none;stroke-width:.79375;stroke-linecap:round;stroke-linejoin:round;stroke-dasharray:none;stroke-opacity:1"/><path d="M-58.503 59.772c.79 1.111.36 1.973 0 2.811h3.186v-2.818z" style="fill:#6b382e;fill-opacity:1;stroke:none;stroke-width:.79375;stroke-linecap:round;stroke-linejoin:round;stroke-dasharray:none;stroke-opacity:1"/><path d="M-54.971 62.521c-.881-.255-1.772-.466-3.24 0h-6.942v-2.788h6.992c1.081.414 2.097.395 3.12 0" style="fill:none;fill-opacity:1;stroke:#20110e;stroke-width:.79375;stroke-linecap:round;stroke-linejoin:round;stroke-dasharray:none;stroke-opacity:1"/><path d="m-55.142 62.842 1.159.53h13.036v-4.51h-13.111l-1.076.529z" style="fill:#505062;fill-opacity:1;stroke:#161618;stroke-width:.79375;stroke-linecap:butt;stroke-linejoin:round;stroke-dasharray:none;stroke-opacity:1"/><path d="M-43.172 60.212h20.622c.032 0 .056.03.056.065v1.679c0 .035-.024.065-.056.065h-20.622c-.032 0-.056-.03-.056-.065V60.28c0-.035.024-.065.056-.065z" class="cls-12" style="fill:#4d4d4d;fill-opacity:1;stroke:#171717;stroke-width:.837684px;stroke-linecap:round;stroke-linejoin:round;stroke-opacity:1"/><path d="M-22.588 60.37c.888.117 1.882.105 2.952 0 .031-.003.056.03.056.065v1.364c0 .035-.025.068-.056.064-.948-.124-1.905-.214-2.952 0-.031.007-.056-.03-.056-.064v-1.361c0-.036.024-.065.056-.065z" class="cls-12" style="fill:#333;fill-opacity:1;stroke:#171717;stroke-width:.837684px;stroke-linecap:round;stroke-linejoin:round;stroke-opacity:1"/><path d="M-52.961 62.592h10.154v-2.95h-10.146c-.767.06-1.595.329-1.59 1.298l-.002.382c.036.663.58 1.228 1.584 1.27" style="fill:#666;fill-opacity:1;stroke:none;stroke-width:.396875;stroke-linecap:butt;stroke-linejoin:round;stroke-dasharray:none;stroke-opacity:1"/><path d="M-52.863 62.083h10.021V60.15h-10.015c-.596.045-1.24.139-1.238.84v.275c.028.48.45.788 1.232.818" style="fill:#4d4d4d;fill-opacity:1;stroke:none;stroke-width:.2976;stroke-linecap:butt;stroke-linejoin:round;stroke-dasharray:none;stroke-opacity:1"/><path d="M-44.492 62.834v1.751h.045v-1.751zm-1.556.054v1.751h.045v-1.75z" style="fill:#3c443c;fill-opacity:1;stroke:#161816;stroke-width:.396875;stroke-linecap:round;stroke-dasharray:none;stroke-opacity:1"/><path d="M-53.037 62.592h10.154v-2.95h-10.146c-.766.06-1.594.329-1.59 1.298l-.002.382c.037.663.58 1.228 1.584 1.27z" style="fill:none;fill-opacity:1;stroke:#171717;stroke-width:.396875;stroke-linecap:butt;stroke-linejoin:round;stroke-dasharray:none;stroke-opacity:1"/><path d="M-46.863 63.743h3.762v-1.335h-3.755z" style="fill:#595959;fill-opacity:1;stroke:#171717;stroke-width:.396875;stroke-linecap:butt;stroke-linejoin:round;stroke-dasharray:none;stroke-opacity:1"/><path d="M-47.181 65.959h4.29v-.923h-4.282z" style="fill:#475c3d;fill-opacity:1;stroke:none;stroke-width:.423791;stroke-linecap:butt;stroke-linejoin:round;stroke-dasharray:none;stroke-opacity:1"/><path d="M-47.186 65.594h4.323v-.581h-4.314z" style="fill:#232e1f;fill-opacity:1;stroke:none;stroke-width:.337636;stroke-linecap:butt;stroke-linejoin:round;stroke-dasharray:none;stroke-opacity:1"/><path d="M-47.254 65.998h4.466V64.95h-4.458z" style="fill:none;fill-opacity:1;stroke:#151c12;stroke-width:.396875;stroke-linecap:butt;stroke-linejoin:round;stroke-dasharray:none;stroke-opacity:1"/><path d="M-52.113 62.01h2.379v-1.864h-2.372z" style="fill:#4a4950;fill-opacity:1;stroke:#161618;stroke-width:.396875;stroke-linecap:butt;stroke-linejoin:round;stroke-dasharray:none;stroke-opacity:1" transform="translate(0 .038)"/><path d="M-48.51 60.619v1.07c0 .026-.027.026-.027.026h-.837c-.026 0-.026-.026-.026-.026v-.239h-.001v.291c0 .027-.027.027-.027.027h-.61c-.027 0-.027-.027-.027-.027v-.29h-1.943c-.027 0-.027-.027-.027-.027v-.54s0-.027.027-.027h1.943v-.29s0-.027.026-.027h.611s.027 0 .027.026v.291-.238s0-.026.027-.026h.837s.026 0 .026.026z" class="cls-8" style="fill:#94949e;fill-opacity:1;fill-rule:evenodd;stroke:none;stroke-width:.396875px;stroke-linecap:round;stroke-miterlimit:15.1181;stroke-opacity:1" transform="translate(0 .038)"/><path d="M-49.68 60.525v1.264h-.327V60.53z" style="fill:#494950;fill-opacity:1;stroke:none;stroke-width:.396875;stroke-linecap:butt;stroke-linejoin:round;stroke-dasharray:none;stroke-opacity:1" transform="translate(0 .038)"/><path d="M-48.805 60.519v1.264h-.52v-1.259z" style="fill:#61616b;fill-opacity:1;stroke:none;stroke-width:.500627;stroke-linecap:butt;stroke-linejoin:round;stroke-dasharray:none;stroke-opacity:1" transform="translate(0 .038)"/><path d="M-48.617 60.57v1.07c0 .027-.027.027-.027.027h-.836c-.027 0-.027-.027-.027-.027v-.238h0v.291c0 .027-.027.027-.027.027h-.611c-.027 0-.027-.027-.027-.027v-.291h-1.905c-.027 0-.027-.026-.027-.026v-.54s0-.027.027-.027h1.905v-.291s0-.027.027-.027h.611s.026 0 .026.027v.29h.001v-.237s0-.027.027-.027h.836s.027 0 .027.027z" class="cls-8" style="fill:none;fill-opacity:1;fill-rule:evenodd;stroke:#151517;stroke-width:.396875px;stroke-linecap:round;stroke-miterlimit:15.1181;stroke-opacity:1" transform="translate(0 .038)"/><path d="M-52.178 60.622v.94" style="fill:#61616b;fill-opacity:1;stroke:#151517;stroke-width:.79375;stroke-linecap:round;stroke-linejoin:round;stroke-dasharray:none;stroke-opacity:1" transform="translate(0 .038)"/><path d="M-43.077 59.716v2.736" style="fill:#595959;fill-opacity:1;stroke:#171717;stroke-width:.79375;stroke-linecap:butt;stroke-linejoin:round;stroke-dasharray:none;stroke-opacity:1"/><path d="M-23.407 61.784h1.112v-1.335H-23.4z" style="fill:#484653;fill-opacity:1;stroke:#161618;stroke-width:.396875;stroke-linecap:butt;stroke-linejoin:round;stroke-dasharray:none;stroke-opacity:1"/><path d="M-22.291 61.117h-.665" style="fill:#4d4d4d;fill-opacity:1;stroke:#171717;stroke-width:.396875;stroke-linecap:round;stroke-linejoin:round;stroke-dasharray:none;stroke-opacity:1"/><path d="M-39.911 62.24h1.329v-2.647l-2.383-2.384-1.01.583 2.062 1.986z" style="fill:#454554;fill-opacity:1;stroke:none;stroke-width:.79375;stroke-linecap:round;stroke-linejoin:round;stroke-dasharray:none;stroke-opacity:1"/><path d="M-40.027 60.1h1.32l-.031 2.033h-1.319z" style="fill:#5a5a6d;fill-opacity:1;stroke:none;stroke-width:.79375;stroke-linecap:round;stroke-linejoin:round;stroke-dasharray:none;stroke-opacity:1"/><path d="M-39.957 62.216h1.587v-2.648l-2.363-2.675-1.181.583 1.955 2.278z" style="fill:none;fill-opacity:1;stroke:#161618;stroke-width:.79375;stroke-linecap:round;stroke-linejoin:round;stroke-dasharray:none;stroke-opacity:1"/><path d="M-47.13 57.293h4.015" style="fill:#607b51;fill-opacity:1;stroke:#151c12;stroke-width:.396875;stroke-linecap:round;stroke-linejoin:round;stroke-dasharray:none;stroke-opacity:1"/><rect width="2.901" height=".594" x="-46.442" y="62.797" rx=".25" ry=".276" style="fill:#666;fill-opacity:1;stroke:none;stroke-width:.949891;stroke-linecap:round;stroke-linejoin:round;stroke-dasharray:none;stroke-opacity:1"/><path d="M-29.79 62.266h1.589v-2.33h-1.588z" style="fill:#666;fill-opacity:1;stroke:none;stroke-width:.79375;stroke-linecap:round;stroke-linejoin:round;stroke-dasharray:none;stroke-opacity:1"/><path d="M-29.676 60.693h1.522v.847h-1.586z" style="fill:#404040;fill-opacity:1;stroke:none;stroke-width:.79375;stroke-linecap:round;stroke-linejoin:round;stroke-dasharray:none;stroke-opacity:1"/><path d="M-29.819 62.282h1.589v-2.33h-1.589z" style="fill:none;fill-opacity:1;stroke:#171717;stroke-width:.79375;stroke-linecap:round;stroke-linejoin:round;stroke-dasharray:none;stroke-opacity:1"/><path d="M-66.014 61.8h1.449v-1.335h-1.442z" style="fill:#404040;fill-opacity:1;stroke:none;stroke-width:.396875;stroke-linecap:butt;stroke-linejoin:round;stroke-dasharray:none;stroke-opacity:1"/><path d="M-65.36 61.795h.73V60.46h-.725z" style="fill:gray;fill-opacity:1;stroke:none;stroke-width:.281641;stroke-linecap:butt;stroke-linejoin:round;stroke-dasharray:none;stroke-opacity:1"/><path d="M-66.04 61.783h1.449v-1.335h-1.442z" style="fill:none;fill-opacity:1;stroke:#171717;stroke-width:.396875;stroke-linecap:butt;stroke-linejoin:round;stroke-dasharray:none;stroke-opacity:1"/><path d="M-41.06 57.906c-1.729.041-2.805-.094-4.38-.442-.16-.509-.152-.81.152-1.316 1.146-.083 2.892.029 4.363.441.078.425-.018.87-.135 1.317z" style="fill:#8f4a3d;fill-opacity:1;stroke:#20110e;stroke-width:.79375;stroke-linecap:butt;stroke-linejoin:round;stroke-dasharray:none;stroke-opacity:1"/></g><g transform="translate(66.239 -55.725)"><path d="m-43.17 64.552-.231-1.696.333-.09c.253.396.517.86.24 1.734z" style="fill:#595959;fill-opacity:1;stroke:#171717;stroke-width:.396875;stroke-linecap:round;stroke-linejoin:round;stroke-dasharray:none;stroke-opacity:1"/><path d="m-30.374 61.425-12.481 1.596.073.574 12.481-1.596z" style="fill:#595959;fill-opacity:1;stroke:#171717;stroke-width:.396875;stroke-linecap:round;stroke-linejoin:round;stroke-dasharray:none;stroke-opacity:1"/><path d="M-47.028 57.034v8.76h4.016v-8.76z" style="fill:#4b6241;fill-opacity:1;stroke:none;stroke-width:.79375;stroke-linecap:round;stroke-linejoin:round;stroke-dasharray:none;stroke-opacity:1"/><path d="M-46.973 64.825v.968h4.017v-.968z" style="fill:#536b47;fill-opacity:1;stroke:none;stroke-width:.263965;stroke-linecap:round;stroke-linejoin:round;stroke-dasharray:none;stroke-opacity:1"/><path d="M-47.057 65.153h3.977v-1.348h-4.018z" style="fill:#232e1f;fill-opacity:1;stroke:none;stroke-width:.396875;stroke-linecap:round;stroke-linejoin:round;stroke-dasharray:none;stroke-opacity:1"/><path d="M-47.229 56.52v.969h4.363v-.969z" style="fill:#607b51;fill-opacity:1;stroke:none;stroke-width:.275102;stroke-linecap:round;stroke-linejoin:round;stroke-dasharray:none;stroke-opacity:1"/><path d="m-30.368 60.92-12.48-1.595.073-.574 12.48 1.595z" style="fill:#595959;fill-opacity:1;stroke:#171717;stroke-width:.396875;stroke-linecap:round;stroke-linejoin:round;stroke-dasharray:none;stroke-opacity:1"/><path d="M-47.288 56.497v9.289h4.545v-9.289z" style="fill:none;fill-opacity:1;stroke:#151c12;stroke-width:.79375;stroke-linecap:round;stroke-linejoin:round;stroke-dasharray:none;stroke-opacity:1"/><path d="m-42.796 58.364-.231 1.696.333.09c.261-.453.53-.944.24-1.734z" style="fill:#595959;fill-opacity:1;stroke:#171717;stroke-width:.396875;stroke-linecap:round;stroke-linejoin:round;stroke-dasharray:none;stroke-opacity:1"/><path d="M148.41 79.402v4.454h11.572l4.469-.96h3.202l3.51-1.218-4.128-1.82h-5.64l-1.95-.39z" style="fill:#b3914c;fill-opacity:1;stroke:none;stroke-width:1.05833;stroke-dasharray:none;stroke-opacity:1" transform="translate(-68.52 52.235)scale(.14738)"/><path d="m148.589 79.354 15.352.536v3.153l-15.368.91z" style="fill:#a18245;fill-opacity:1;stroke:none;stroke-width:1.05833;stroke-dasharray:none;stroke-opacity:1" transform="translate(-68.52 52.235)scale(.14738)"/><path d="M149.162 79.555v4.092h-.449v-4.23z" style="fill:#70695c;fill-opacity:1;stroke:none;stroke-width:1.05833;stroke-dasharray:none;stroke-opacity:1" transform="translate(-68.52 52.235)scale(.14738)"/><path d="M164.327 80.081v3.034h-.505v-3.172z" style="fill:#862c2c;fill-opacity:1;stroke:none;stroke-width:1.12348;stroke-dasharray:none;stroke-opacity:1" transform="translate(-68.52 52.235)scale(.14738)"/><path d="M148.96 93.568v-3.219h1.343v.265h10.136l1.405.412h3.135v.088c3.26.02 4.396.332 5.87.81.664.203.616 1.108.617 1.322m-22.506-.58v3.219h1.343v-.265h10.136l1.405-.412h3.135v-.088c3.26-.02 4.396-.332 5.87-.81.664-.203.616-1.108.617-1.321" style="fill:none;fill-opacity:1;stroke:#473a1f;stroke-width:2.69278;stroke-dasharray:none;stroke-opacity:1" transform="translate(-68.61 50.534)scale(.14738)"/><path d="M-65.052 59.537h-.447c-.366-.023-.519.139-.529.432v2.391c-.012.264.199.386.53.364h.479" style="fill:#4d4d4d;fill-opacity:1;stroke:#171717;stroke-width:.396875;stroke-linecap:round;stroke-linejoin:round;stroke-dasharray:none;stroke-opacity:1"/><path d="M-55.013 62.494c-.88-.255-1.771-.465-3.239 0h-6.943v-2.787h6.993c1.08.413 2.096.395 3.119 0" style="fill:#8f4b3d;fill-opacity:1;stroke:none;stroke-width:.79375;stroke-linecap:round;stroke-linejoin:round;stroke-dasharray:none;stroke-opacity:1"/><path d="M-58.503 59.772c.79 1.111.36 1.973 0 2.811h3.186v-2.818z" style="fill:#6b382e;fill-opacity:1;stroke:none;stroke-width:.79375;stroke-linecap:round;stroke-linejoin:round;stroke-dasharray:none;stroke-opacity:1"/><path d="M-54.971 62.521c-.881-.255-1.772-.466-3.24 0h-6.942v-2.788h6.992c1.081.414 2.097.395 3.12 0" style="fill:none;fill-opacity:1;stroke:#20110e;stroke-width:.79375;stroke-linecap:round;stroke-linejoin:round;stroke-dasharray:none;stroke-opacity:1"/><path d="m-55.142 62.842 1.159.53h13.036v-4.51h-13.111l-1.076.529z" style="fill:#505062;fill-opacity:1;stroke:#161618;stroke-width:.79375;stroke-linecap:butt;stroke-linejoin:round;stroke-dasharray:none;stroke-opacity:1"/><path d="M-43.172 60.212h20.622c.032 0 .056.03.056.065v1.679c0 .035-.024.065-.056.065h-20.622c-.032 0-.056-.03-.056-.065V60.28c0-.035.024-.065.056-.065z" class="cls-12" style="fill:#4d4d4d;fill-opacity:1;stroke:#171717;stroke-width:.837684px;stroke-linecap:round;stroke-linejoin:round;stroke-opacity:1"/><path d="M-22.588 60.37c.888.117 1.882.105 2.952 0 .031-.003.056.03.056.065v1.364c0 .035-.025.068-.056.064-.948-.124-1.905-.214-2.952 0-.031.007-.056-.03-.056-.064v-1.361c0-.036.024-.065.056-.065z" class="cls-12" style="fill:#333;fill-opacity:1;stroke:#171717;stroke-width:.837684px;stroke-linecap:round;stroke-linejoin:round;stroke-opacity:1"/><path d="M-52.961 62.592h10.154v-2.95h-10.146c-.767.06-1.595.329-1.59 1.298l-.002.382c.036.663.58 1.228 1.584 1.27" style="fill:#666;fill-opacity:1;stroke:none;stroke-width:.396875;stroke-linecap:butt;stroke-linejoin:round;stroke-dasharray:none;stroke-opacity:1"/><path d="M-52.863 62.083h10.021V60.15h-10.015c-.596.045-1.24.139-1.238.84v.275c.028.48.45.788 1.232.818" style="fill:#4d4d4d;fill-opacity:1;stroke:none;stroke-width:.2976;stroke-linecap:butt;stroke-linejoin:round;stroke-dasharray:none;stroke-opacity:1"/><path d="M-44.492 62.834v1.751h.045v-1.751zm-1.556.054v1.751h.045v-1.75z" style="fill:#3c443c;fill-opacity:1;stroke:#161816;stroke-width:.396875;stroke-linecap:round;stroke-dasharray:none;stroke-opacity:1"/><path d="M-53.037 62.592h10.154v-2.95h-10.146c-.766.06-1.594.329-1.59 1.298l-.002.382c.037.663.58 1.228 1.584 1.27z" style="fill:none;fill-opacity:1;stroke:#171717;stroke-width:.396875;stroke-linecap:butt;stroke-linejoin:round;stroke-dasharray:none;stroke-opacity:1"/><path d="M-46.863 63.743h3.762v-1.335h-3.755z" style="fill:#595959;fill-opacity:1;stroke:#171717;stroke-width:.396875;stroke-linecap:butt;stroke-linejoin:round;stroke-dasharray:none;stroke-opacity:1"/><path d="M-47.181 65.959h4.29v-.923h-4.282z" style="fill:#475c3d;fill-opacity:1;stroke:none;stroke-width:.423791;stroke-linecap:butt;stroke-linejoin:round;stroke-dasharray:none;stroke-opacity:1"/><path d="M-47.186 65.594h4.323v-.581h-4.314z" style="fill:#232e1f;fill-opacity:1;stroke:none;stroke-width:.337636;stroke-linecap:butt;stroke-linejoin:round;stroke-dasharray:none;stroke-opacity:1"/><path d="M-47.254 65.998h4.466V64.95h-4.458z" style="fill:none;fill-opacity:1;stroke:#151c12;stroke-width:.396875;stroke-linecap:butt;stroke-linejoin:round;stroke-dasharray:none;stroke-opacity:1"/><path d="M-52.113 62.01h2.379v-1.864h-2.372z" style="fill:#4a4950;fill-opacity:1;stroke:#161618;stroke-width:.396875;stroke-linecap:butt;stroke-linejoin:round;stroke-dasharray:none;stroke-opacity:1" transform="translate(0 .038)"/><path d="M-48.51 60.619v1.07c0 .026-.027.026-.027.026h-.837c-.026 0-.026-.026-.026-.026v-.239h-.001v.291c0 .027-.027.027-.027.027h-.61c-.027 0-.027-.027-.027-.027v-.29h-1.943c-.027 0-.027-.027-.027-.027v-.54s0-.027.027-.027h1.943v-.29s0-.027.026-.027h.611s.027 0 .027.026v.291-.238s0-.026.027-.026h.837s.026 0 .026.026z" class="cls-8" style="fill:#94949e;fill-opacity:1;fill-rule:evenodd;stroke:none;stroke-width:.396875px;stroke-linecap:round;stroke-miterlimit:15.1181;stroke-opacity:1" transform="translate(0 .038)"/><path d="M-49.68 60.525v1.264h-.327V60.53z" style="fill:#494950;fill-opacity:1;stroke:none;stroke-width:.396875;stroke-linecap:butt;stroke-linejoin:round;stroke-dasharray:none;stroke-opacity:1" transform="translate(0 .038)"/><path d="M-48.805 60.519v1.264h-.52v-1.259z" style="fill:#61616b;fill-opacity:1;stroke:none;stroke-width:.500627;stroke-linecap:butt;stroke-linejoin:round;stroke-dasharray:none;stroke-opacity:1" transform="translate(0 .038)"/><path d="M-48.617 60.57v1.07c0 .027-.027.027-.027.027h-.836c-.027 0-.027-.027-.027-.027v-.238h0v.291c0 .027-.027.027-.027.027h-.611c-.027 0-.027-.027-.027-.027v-.291h-1.905c-.027 0-.027-.026-.027-.026v-.54s0-.027.027-.027h1.905v-.291s0-.027.027-.027h.611s.026 0 .026.027v.29h.001v-.237s0-.027.027-.027h.836s.027 0 .027.027z" class="cls-8" style="fill:none;fill-opacity:1;fill-rule:evenodd;stroke:#151517;stroke-width:.396875px;stroke-linecap:round;stroke-miterlimit:15.1181;stroke-opacity:1" transform="translate(0 .038)"/><path d="M-52.178 60.622v.94" style="fill:#61616b;fill-opacity:1;stroke:#151517;stroke-width:.79375;stroke-linecap:round;stroke-linejoin:round;stroke-dasharray:none;stroke-opacity:1" transform="translate(0 .038)"/><path d="M-43.077 59.716v2.736" style="fill:#595959;fill-opacity:1;stroke:#171717;stroke-width:.79375;stroke-linecap:butt;stroke-linejoin:round;stroke-dasharray:none;stroke-opacity:1"/><path d="M-23.407 61.784h1.112v-1.335H-23.4z" style="fill:#484653;fill-opacity:1;stroke:#161618;stroke-width:.396875;stroke-linecap:butt;stroke-linejoin:round;stroke-dasharray:none;stroke-opacity:1"/><path d="M-22.291 61.117h-.665" style="fill:#4d4d4d;fill-opacity:1;stroke:#171717;stroke-width:.396875;stroke-linecap:round;stroke-linejoin:round;stroke-dasharray:none;stroke-opacity:1"/><path d="M-39.911 62.24h1.329v-2.647l-2.383-2.384-1.01.583 2.062 1.986z" style="fill:#454554;fill-opacity:1;stroke:none;stroke-width:.79375;stroke-linecap:round;stroke-linejoin:round;stroke-dasharray:none;stroke-opacity:1"/><path d="M-40.027 60.1h1.32l-.031 2.033h-1.319z" style="fill:#5a5a6d;fill-opacity:1;stroke:none;stroke-width:.79375;stroke-linecap:round;stroke-linejoin:round;stroke-dasharray:none;stroke-opacity:1"/><path d="M-39.957 62.216h1.587v-2.648l-2.363-2.675-1.181.583 1.955 2.278z" style="fill:none;fill-opacity:1;stroke:#161618;stroke-width:.79375;stroke-linecap:round;stroke-linejoin:round;stroke-dasharray:none;stroke-opacity:1"/><path d="M-47.13 57.293h4.015" style="fill:#607b51;fill-opacity:1;stroke:#151c12;stroke-width:.396875;stroke-linecap:round;stroke-linejoin:round;stroke-dasharray:none;stroke-opacity:1"/><rect width="2.901" height=".594" x="-46.442" y="62.797" rx=".25" ry=".276" style="fill:#666;fill-opacity:1;stroke:none;stroke-width:.949891;stroke-linecap:round;stroke-linejoin:round;stroke-dasharray:none;stroke-opacity:1"/><path d="M-29.79 62.266h1.589v-2.33h-1.588z" style="fill:#666;fill-opacity:1;stroke:none;stroke-width:.79375;stroke-linecap:round;stroke-linejoin:round;stroke-dasharray:none;stroke-opacity:1"/><path d="M-29.676 60.693h1.522v.847h-1.586z" style="fill:#404040;fill-opacity:1;stroke:none;stroke-width:.79375;stroke-linecap:round;stroke-linejoin:round;stroke-dasharray:none;stroke-opacity:1"/><path d="M-29.819 62.282h1.589v-2.33h-1.589z" style="fill:none;fill-opacity:1;stroke:#171717;stroke-width:.79375;stroke-linecap:round;stroke-linejoin:round;stroke-dasharray:none;stroke-opacity:1"/><path d="M-66.014 61.8h1.449v-1.335h-1.442z" style="fill:#404040;fill-opacity:1;stroke:none;stroke-width:.396875;stroke-linecap:butt;stroke-linejoin:round;stroke-dasharray:none;stroke-opacity:1"/><path d="M-65.36 61.795h.73V60.46h-.725z" style="fill:gray;fill-opacity:1;stroke:none;stroke-width:.281641;stroke-linecap:butt;stroke-linejoin:round;stroke-dasharray:none;stroke-opacity:1"/><path d="M-66.04 61.783h1.449v-1.335h-1.442z" style="fill:none;fill-opacity:1;stroke:#171717;stroke-width:.396875;stroke-linecap:butt;stroke-linejoin:round;stroke-dasharray:none;stroke-opacity:1"/><path d="M-41.06 57.906c-1.729.041-2.805-.094-4.38-.442-.16-.509-.152-.81.152-1.316 1.146-.083 2.892.029 4.363.441.078.425-.018.87-.135 1.317z" style="fill:#8f4a3d;fill-opacity:1;stroke:#20110e;stroke-width:.79375;stroke-linecap:butt;stroke-linejoin:round;stroke-dasharray:none;stroke-opacity:1"/></g></svg>