<svg xmlns="http://www.w3.org/2000/svg" width="122.951" height="55.318" fill="none"><g clip-path="url(#a)" transform="rotate(15 175.477 62.05)"><path fill="#4d4d4d" stroke="#333" stroke-width=".517" d="m55.158 46.281.224-.13.412.714-.224.13zM56.502 45.503l.224-.13.412.714-.224.13zM57.848 44.728l.225-.13.412.714-.225.13zM59.191 43.952l.224-.13.412.714-.224.13zM60.537 43.176l.224-.13.412.714-.224.13zM61.88 42.399l.225-.13.412.714-.224.13zM63.227 41.623l.224-.13.412.714-.224.13zM64.57 40.847l.224-.13.412.714-.224.13zM65.916 40.07l.224-.13.412.714-.224.13zM67.26 39.294l.224-.13.412.714-.224.13zM68.605 38.518l.225-.13.412.714-.225.13zM69.949 37.742l.224-.13.412.714-.224.13zM71.295 36.967l.224-.13.412.714-.224.13zM72.639 36.189l.224-.13.412.714-.224.13z"/><path fill="#4d4d4d" d="m63.692 39.63-1.261-2.176-6.48 3.74-4.084 3.19-13.054 7.723-.25.013-3.12 1.79-.58-.014-.614.345-.184.251-1.077.633-.818.272-5.19 2.987 1.053 1.833 1.06 1.827 5.183-3 .644-.573 1.087-.616.309-.034.606-.36.278-.508 3.11-1.808.136-.209 13.216-7.444 4.805-1.942 6.478-3.74z"/><path fill="#595959" d="m35.167 53.903-.303-.007-.615.344-.16.22 1.956 3.39.271-.03.606-.36.145-.265zM27.974 57.813l-.993.571 1.052 1.833 1.061 1.827.992-.574z"/><path fill="#404040" d="m63.853 42.438 1.09-.63-1.253-2.18-1.26-2.176-1.092.63zM53.66 47.492l4.805-1.943.099-.057c-1.584-1.606-1.953-2.29-2.515-4.355l-.099.057-4.084 3.189z"/><path stroke="#333" stroke-miterlimit="3.994" stroke-width="1.035" d="m63.692 39.63-1.261-2.176-6.48 3.74-4.084 3.19-13.054 7.723-.25.013-3.12 1.79-.58-.014-.614.345-.184.251-1.077.633-.818.272-5.19 2.987 1.053 1.833 1.06 1.827 5.183-3 .644-.573 1.087-.616.309-.034.606-.36.278-.508 3.11-1.808.136-.209 13.216-7.444 4.805-1.942 6.478-3.74z"/><path fill="#525252" d="m43.85 44.772.286.493.346-.2 1.508 2.604.506.133 1.763 3.057-.077.232-3.499 2.02-.239-.05-1.766-3.055.138-.505-1.5-2.607.346-.2-.285-.494z"/><path fill="#595959" d="m45.988 47.667-1.508-2.603-3.166 1.828 1.5 2.608z"/><path stroke="#333" stroke-miterlimit="3.994" stroke-width=".517" d="m43.85 44.772.286.493.346-.2 1.508 2.604.506.133 1.763 3.057-.077.232-3.499 2.02-.239-.05-1.766-3.055.138-.505-1.5-2.607.346-.2-.285-.494z"/><path fill="#595959" stroke="#333" stroke-miterlimit="3.994" stroke-width=".517" d="M46.137 51.592a1.541 1.541 0 1 0-1.54-2.67 1.541 1.541 0 0 0 1.54 2.67z"/><path fill="#4d4d4d" fill-rule="evenodd" d="M44.946 49.526a.856.856 0 1 0 .856 1.483.856.856 0 0 0-.856-1.483m.023.975a.468.468 0 1 1 .81-.468.468.468 0 0 1-.81.468" clip-rule="evenodd"/><path fill="#404040" stroke="#333" stroke-miterlimit="3.994" stroke-width=".517" d="m40.876 57.557-3.138-5.434 1.163-.671 3.137 5.434M52.84 50.65l-3.137-5.434 1.163-.671 3.137 5.434"/><path fill="#4d4d4d" d="m46.717 62.377 5.988 9.465 7.45-5.37-5.577-9.045"/><rect width=".52" height="1.561" x="80.043" y="39.838" fill="#3d3d3d" stroke="#333" stroke-miterlimit="3.994" stroke-width=".517" rx=".26" transform="rotate(-34.94 80.043 39.838)"/><path fill="#999" d="M62.96 45.056c-.869.524-1.029.23-1.987.785l-4.38 2.529 1.498 2.593 3.201-2.965 20.533-12.126 23.824-14.314.472-.118.57-.32.269-.085 1.942-1.12.106-.373.043-.026-.499-.864-.036.021-.376-.075-2.798 1.596-.284.337-29.497 17.26c-.257.027-.7.081-1.207.37l.209.366s-2.838 1.675-3.282 1.915c-.296.179-.75.15-1.046.305z"/><path fill="#b2b2b2" stroke="#333" stroke-miterlimit="3.994" stroke-width=".517" d="m41.705 60.425 16.385-9.46-1.497-2.594-.378.219-.39-.677-4.213 2.44c.898 1.683 1.364 2.577-.244 3.609l-5.818 3.355c-1.103.627-2.024-.1-2.552-1.036l-2.257 1.31-.613.357a.73.73 0 0 1 .3.264c.425.737.856 1.473 1.277 2.213z"/><path stroke="#333" stroke-miterlimit="3.994" stroke-width="1.035" d="m58.09 50.965-16.385 9.46q-.423-.741-.852-1.479l-.425-.734a.73.73 0 0 0-.3-.264l.613-.357 2.257-1.31c.528.937 1.45 1.663 2.552 1.036l5.819-3.355c1.608-1.032 1.141-1.926.243-3.61l4.214-2.44.39.678 4.756-2.747c.484-.28.764-.344 1.034-.406.267-.06.523-.12.955-.38l7.273-4.308c.14-.074.317-.106.495-.139.197-.036.397-.073.552-.166.443-.24 3.282-1.916 3.282-1.916l-.21-.365c.508-.289.951-.344 1.208-.37l29.497-17.26.284-.337 2.798-1.596.376.075.036-.02.498.863-.042.026-.106.372-1.942 1.121-.269.085-.57.32-.472.118-23.824 14.314L61.292 48Z"/><path fill="#a6a6a6" d="m36.87 63.216-.925-1.604.92-.53.022-.076c.063-.216.16-.544.422-.686l.85-.49q.034-.118.06-.222c.094-.38.163-.656.815-1.022l.099-.058 1.42 2.494.027.052z"/><path fill="gray" d="m35.946 61.612.926 1.604 1.105-.638-1.024-1.775c-.038.104-.064.204-.087.279z"/><path stroke="#333" stroke-miterlimit="3.994" stroke-width="1.035" d="m36.87 63.216-.925-1.604.92-.53.022-.076c.063-.216.16-.544.422-.686l.85-.49q.034-.118.06-.222c.094-.38.163-.656.815-1.022l.099-.058 1.42 2.494.027.052z"/><path fill="#4d4a47" d="M83.54 36.176c-.63-1.044-1.036-.67-1.713-.304L53.58 52.555c-.105.584-.418 1.177-1.462 1.742l-10.41 6.071-1.661.587-3.712 2.175-4.258 5.005c-1.02 1.242-2.32 1.993-3.794 1.974-1.075-.016-1.653.409-2.958 1.263L5.384 84.14 13.35 96.77l.747-.429c.387-.228.711-.588 1.353-1.365l10.692-13.011c.942-1.17 2.038-1.85 3.376-1.974 2.375-.156 4.069-.362 5.345-1.277-2.042-4.487-.141-8.318 5.846-12.344l11.34-7.214 31.195-20.993c.928-.612.934-.965.295-1.987"/><path fill="#43403d" d="M72.02 41.664 77.325 40l-6.105 6.255-11.28 7.592 1.995-2.758-7.788 1.132z"/><path fill="#4d4d4d" d="m55.592 47.509.663 1.149.391-.195-.053-.092 4.38-2.528c.483-.28.763-.344 1.033-.406.266-.06.523-.12.954-.38l7.274-4.308c.14-.074.317-.107.495-.14.197-.035.397-.072.552-.166.443-.24 3.282-1.915 3.282-1.915l-.854-1.48z"/><path fill="#404040" d="m73.978 37.515-.27-.466-18.116 10.46.269.466z"/><path fill="#3b3b3b" stroke="#333" stroke-miterlimit="3.994" stroke-width=".517" d="M40.439 66.453c.215 1.144.766 2.411 1.692 2.653.015.004.022-.016.008-.023-.932-.495-1.303-1.986-1.124-2.963"/><rect width=".52" height="1.561" x="18.459" y="91.13" fill="#3d3d3d" stroke="#333" stroke-miterlimit="3.994" stroke-width=".517" rx=".26" transform="rotate(-54.312 18.459 91.13)"/><path fill="#595959" d="m5.383 84.141-.955.596-2.563 1.48c-.64.398-1.1.978-.313 2.088l7.05 10.455c.174.259.457.483.93.22l3.817-2.21"/><path fill="#4d4d4d" d="M10.95 98.159a5061 5061 0 0 1-8.118-12.5l1.596-.922.956-.595 7.965 12.628Z"/><path fill="#404040" d="M12.297 97.377 4.191 84.873l.236-.136.955-.595 7.965 12.627z"/><path stroke="#333" stroke-miterlimit="3.994" stroke-width="1.035" d="m5.383 84.141-.955.596-2.563 1.48c-.64.398-1.1.978-.313 2.088l7.05 10.455c.174.259.457.483.93.22l3.817-2.21"/><path fill="#4d4d4d" fill-rule="evenodd" stroke="#333" stroke-miterlimit="3.994" stroke-width=".517" d="M40.705 66.37c-1.372.922-2.53 1.835-3.474 2.747.814-.485 2.112-.727 3.19.27.474.505 1.366 1.177 2.427.624l1.134-.656c.85-.44 1.797-1.412 2.207-2.466q.032-.07.063-.14c.112-.264.231-.543.745-.815a.3.3 0 0 0 .113-.098c.29.366.461.67.652 1.098.007.015.028.007.025-.008-.263-1.107-.514-1.71-.94-2.733l-.006-.014c-.12-.306-.253-.613-.372-.885-.074-.171-.143-.329-.199-.465Zm2.011 3.328c-1.27.805-3.081-.639-2.496-2.803.038-.14 1.072-.77 1.652-1.122l.106-.065.335-.207c.558-.348 1.291-.805 1.49-.8 2.25.05 3.084 2.284.99 3.677z" clip-rule="evenodd"/><path fill="#43403d" d="m35.975 70.487.22-.49s1.599-3.407 1.543-3.375-2.23.989-2.23.989l2.336-3.814c-2.23.832-4.14 2.501-5.607 4.148l-.163.191q-.136.165-.28.32a28 28 0 0 0-1.724 2.294c-1.976 2.928-2.324 5.961-1.163 9.34q.296-.07.608-.098c2.375-.157 4.069-.362 5.345-1.277-1.34-2.945-.982-5.607 1.115-8.228"/><path fill="#404040" d="M48.489 62.122c-.29-.46-.766-.68-1.064-.492-.297.188-.303.712-.013 1.172l2.134 3.382c.29.46.765.68 1.063.492s.303-.712.014-1.172zM52.07 58.524l-.156.099c-.248.156-.214.656.076 1.115l2.159 3.423c.29.459.726.705.974.548l.157-.099c.248-.156.214-.656-.076-1.115l-2.16-3.422c-.29-.46-.725-.706-.973-.549"/><path stroke="#333" stroke-miterlimit="3.994" stroke-width="1.035" d="m46.717 62.377 5.988 9.465 7.45-5.37-5.577-9.045"/><path fill="#3b3b3b" d="M54.956 51.003a.351.351 0 1 0-.35-.608.351.351 0 0 0 .35.608M45.018 62.492a.717.717 0 1 0-.717-1.242.717.717 0 0 0 .717 1.242M56.168 54.522a.717.717 0 1 0-.717-1.242.717.717 0 0 0 .717 1.242"/><path fill="#383838" d="M52.125 59.422a.517.517 0 0 0-.88.545l4.621 7.453a.517.517 0 0 0 .88-.545z"/><path fill="#43403d" d="m40.268 60.877-.145 3.018c-.051.66.271.739.634.507 1.9-1.178 1.815-2.616 1.693-4.467l-.743.434z"/><path stroke="#363330" stroke-linecap="round" stroke-miterlimit="3.994" stroke-width="1.035" d="M83.54 36.176c-.63-1.044-1.036-.67-1.713-.304L53.58 52.555c-.105.584-.418 1.177-1.462 1.742l-10.41 6.071-1.661.587-3.712 2.175-4.258 5.005c-1.02 1.242-2.32 1.993-3.794 1.974-1.075-.016-1.653.409-2.958 1.263L5.384 84.14 13.35 96.77l.747-.429c.387-.228.711-.588 1.353-1.365l10.692-13.011c.942-1.17 2.038-1.85 3.376-1.974 2.375-.156 4.069-.362 5.345-1.277-2.042-4.487-.141-8.318 5.846-12.344l11.34-7.214 31.195-20.993c.928-.612.934-.965.295-1.987z"/><path fill="#999" stroke="#333" stroke-linecap="round" stroke-miterlimit="3.994" stroke-width=".517" d="m39.008 58.307.659-.38c.267-.141.63.064.762.284l1.27 2.2c.268.467.36.874.168 1.31-.371.852-.432 1.771-.163 2.851-.254 0-.432.027-.624.138-.122-.725-.319-1.276-.196-2.364.043-.606-.153-.987-.33-1.324z"/><path fill="gray" stroke="#333" stroke-linecap="round" stroke-miterlimit="3.994" stroke-width=".517" d="M42.626 65.527c-.026-.544-.456-.954-.922-.955-.254 0-.432.027-.624.138-.461.291-.553.71-.488 1.048.043.262.36.924 1.046.823.607-.085 1.018-.417.988-1.054z"/><path fill="gray" stroke="#333" stroke-miterlimit="3.994" stroke-width="1.035" d="M51.88 50.856c.707 1.368.93 2.182-.51 3.105l-5.818 3.356c-.978.556-1.814.047-2.36-.73l6.972-4.024c.55-.301.924-.758 1.291-1.208.14-.17.278-.34.425-.499z"/><path stroke="#333" stroke-miterlimit="3.994" stroke-width=".517" d="m55.592 47.509.663 1.149.391-.195-.053-.092 4.38-2.528c.483-.28.763-.344 1.033-.406.266-.06.523-.12.954-.38l7.274-4.308c.14-.074.317-.107.495-.14.197-.035.397-.072.552-.166.443-.24 3.282-1.915 3.282-1.915l-.854-1.48z"/><path fill="#4d4d4d" d="m106.06 19.254 1.182 2.047 1.906-1.1-2.144-3.714-.787.455a.84.84 0 0 0-.356.355l-.152.371c-.082.162-.057.167.036.338l.34.594c.154.294.03.46-.025.654"/><path fill="#404040" stroke="#333" stroke-miterlimit="3.994" stroke-width=".517" d="m106.106 18.647.451-.26.246.426 1.156-.668-.958-1.658-.787.455a.84.84 0 0 0-.355.355l-.153.37c-.072.144-.06.165.007.286l.029.053.341.594z"/><path stroke="#333" stroke-miterlimit="3.994" stroke-width=".517" d="m106.06 19.254 1.182 2.047 1.906-1.1-2.144-3.714-.787.455a.84.84 0 0 0-.356.355l-.152.371c-.082.162-.057.167.036.338l.34.594c.154.294.03.46-.025.654z"/><path fill="#383838" d="M106.904 17.955a.23.23 0 1 0-.229-.398.23.23 0 0 0 .229.398"/><path fill="#404040" stroke="#333" stroke-width=".517" d="M55.412 47.09 73.44 36.682l.228.394L55.64 47.484z"/></g><defs><clipPath id="a"><path fill="#fff" d="M0 0h110v110H0z"/></clipPath></defs></svg>