<svg xmlns="http://www.w3.org/2000/svg" xml:space="preserve" width="122.934" height="50.103" viewBox="0 0 32.526 13.256"><defs><clipPath id="a" clipPathUnits="userSpaceOnUse"><path fill="#fff" d="M28.811-93.358h234.843v234.843H28.811z" style="stroke-width:2.13494" transform="rotate(30)"/></clipPath></defs><g transform="rotate(-14.996 -4.775 2.907)scale(.12461)"><path fill="#4e4a41" d="M124.902 77.793c-.808-.1-.808-1.46-.808-1.46v-.444a1.86 1.86 0 0 0-1.852-1.852h-6.156l-.313 3.73H64.802V90.21l31.165 1.897h35.506s-2.319-13.792-6.57-14.314" style="stroke-width:2.13494;stroke-linejoin:round"/><path stroke="#38352e" stroke-linecap="round" stroke-width="2.105" d="M124.902 77.793c-.808-.1-.808-1.46-.808-1.46v-.444a1.86 1.86 0 0 0-1.852-1.852h-6.47v3.73h-50.97V90.21l31.165 1.897h35.506s-2.319-13.792-6.57-14.314z" style="fill:none"/><path fill="#3f3b37" stroke="#373430" stroke-width=".493" d="m93.261 96.625-1.252-.053a1.05 1.05 0 0 0-1.096.992l-.208 4.539c-.015.314-1.02 2.984-4.226 2.817-4.46-.235-7.404-1.46-8.239-2.06s-2.83 1.818-2.83 1.818 5.884 3.38 11.101 3.224c7.92-.609 7.507-5.07 7.533-5.643l.208-4.539a1.05 1.05 0 0 0-.99-1.095" style="stroke-width:2.11667;stroke-linecap:round;stroke-linejoin:round;stroke-dasharray:none"/><path fill="#3d3e42" stroke="#313235" stroke-linecap="round" stroke-width="2.105" d="M62.38 104.063s-6.886 6.182-9.26 11.765c0 0-1.043 1.382 1.487 2.374 2.191.86 9.704 3.417 11.634 4.069a.77.77 0 0 0 .809-.183l.887-.913c.287-.287.417-.678.39-1.095l-.286-2.896s-.313-.913.73-2.374c1.044-1.46 5.661-9.077 5.661-9.077s.574-2.478 3.574-2.66c0 0 1.513-.444.704-2.48-.809-2.034.496-3.468.991-3.651l.104-1.487-12.312-.756s-1.338-.38-1.599.089c-.26.47-2.881-.184-2.881-.184s-.45.799.802 1.712 1.67 2.687 1.591 3.6c-.078.939-.266 1.72-1.458 2.774-1.071.95-1.567 1.373-1.567 1.373z" style="fill:#494b50;fill-opacity:1"/><path fill="#46423a" stroke="#37352e" stroke-linecap="round" stroke-width="1.052" d="M120.732 77.454v-3.417h-4.696v4.591h3.522c.652 0 1.174-.522 1.174-1.174z"/><path fill="#686664" stroke="#343332" stroke-width=".493" d="M203.105 83.272c.496 0 .913.417.913.913v6.234a.924.924 0 0 1-.913.913.924.924 0 0 1-.913-.913v-6.235c0-.495.418-.913.913-.912z" style="stroke-width:2.11667;stroke-linejoin:round;stroke-dasharray:none"/><path fill="#7a7875" stroke="#343332" stroke-linecap="round" stroke-width=".493" d="M212.183 86.192H183.75v2.583h28.433z" style="stroke-width:2.11667;stroke-linejoin:round;stroke-dasharray:none"/><path fill="#403d36" stroke="#37352e" stroke-linecap="round" stroke-width="2.105" d="M183.748 84.574H179.6v5.113h4.148z" style="stroke-linejoin:round"/><path fill="#46423a" stroke="#37352e" stroke-linecap="round" stroke-width="2.105" d="M244.22 78.914h-60.467v4.357h60.466z" style="fill:#544f45;fill-opacity:1;stroke-linejoin:round"/><path d="M186.407 80.46h56.815v-.506h-56.907zM186.315 82.286h56.815v-.506h-56.907z" style="fill:#46423a;fill-opacity:1;fill-rule:evenodd;stroke:none;stroke-width:2.11667;stroke-linecap:round;stroke-linejoin:round;stroke-miterlimit:29;stroke-dasharray:none;stroke-opacity:1"/><path fill="#524d47" stroke="#363330" stroke-width=".493" d="M153.28 63.942h12c2.634 0 4.173 1.06 4.173 4.435 0 2.453 2.478 5.921 5.06 5.921l12.783.26s1.772-.34 1.744-1.563c-.033-1.451-1.744-1.68-1.744-1.68H175.7s-3.106.027-3.106-3.732c0-4.41-2.934-6.391-5.986-6.391h-12.547s-1.824.69-1.824 1.733 1.043 1.017 1.043 1.017" style="stroke-width:2.11667;stroke-linecap:round;stroke-linejoin:round;stroke-dasharray:none"/><path fill="#7a7875" stroke="#343332" stroke-linecap="round" stroke-width="2.105" d="M212.525 84.082h4.643c.313 0 .574.26.574.573v4.226c0 .313-.26.574-.574.574h-4.643a.58.58 0 0 1-.574-.574v-4.225c0-.314.261-.574.574-.574" style="stroke-linejoin:round"/><path fill="#4e4a41" stroke="#37352e" stroke-linecap="round" stroke-width="2.105" d="M178.402 72.576h6c.547 0 .965.443.965.965v9.886a.963.963 0 0 1-.966.965h-6a.963.963 0 0 1-.964-.965v-9.886c0-.548.417-.965.965-.965" style="stroke-linejoin:round"/><path fill="#403d35" fill-rule="evenodd" d="M253.868 78.578h-9.025a.64.64 0 0 0-.628.651v3.73c0 .34.261.626.628.627h9.025c.338 0 .626-.26.625-.626v-3.757a.617.617 0 0 0-.625-.625m-2.452 2.53c-.001.216-.936.39-2.087.391-1.154 0-2.088-.176-2.087-.39 0-.217.934-.393 2.086-.393 1.153 0 2.087.176 2.088.392" clip-rule="evenodd" style="stroke-width:2.13494"/><path stroke="#37352e" stroke-linecap="round" stroke-width="2.105" d="M253.868 78.578h-9.025a.64.64 0 0 0-.628.651v3.73c0 .34.261.626.628.627h9.025c.338 0 .626-.26.625-.626v-3.757a.617.617 0 0 0-.625-.625" style="fill:none;stroke-linejoin:round"/><path stroke="#37352e" stroke-linecap="round" stroke-width="1.052" d="M251.415 81.106c-.001.216-.934.391-2.087.39-1.152.001-2.086-.174-2.085-.39s.934-.39 2.085-.391c1.152 0 2.086.175 2.087.391z" style="fill:none"/><path fill="#4e4a41" stroke="#37352e" stroke-linecap="round" stroke-width="2.105" d="M214.037 70.126h2.034c.94 0 1.696.756 1.696 1.695v12.73h-5.582V71.978c0-1.044.834-1.853 1.852-1.852z"/><path fill="#605f5c" d="M214.846 87.942a.86.86 0 1 0 0-1.72.86.86 0 0 0 0 1.72" style="stroke-width:2.13494"/><path fill="#3f3b37" stroke="#363330" stroke-width=".493" d="M166.9 60.682s.326.426.326 1.825-.325 1.825-.325 1.825c0 1.279-1.304 1.252-1.304 1.252s-.757.105-1.357-.652c-.6-.73-1.8-.443-1.8-.443-3.339.887-9.104 1.07-9.104 1.07s-3.547.234-7.33-.835c-1.669-.47-2.66-.548-3.234-.496a1.27 1.27 0 0 0-.913.522c-.104.156-.391.443-1.096.678-1.147.391-1.278-.365-1.278-.365s-.325-.786-.325-2.556.325-2.556.325-2.556.13-.756 1.278-.365c.73.235.992.496 1.096.678.209.313-.038.522 1.173.522.574.052 1.305-.026 2.975-.496 3.782-1.07 7.33-.834 7.33-.834s5.764.182 9.103 1.07c0 0 1.2.286 1.8-.444s1.357-.652 1.357-.652 1.304-.027 1.304 1.252" style="stroke-width:2.11667;stroke-linecap:round;stroke-linejoin:round;stroke-dasharray:none"/><path fill="#3d3e42" stroke="#313235" stroke-linecap="round" stroke-width="2.105" d="M57.522 80.61c.417 0 .757.34.756.73v12.234a.73.73 0 0 1-.73.73h-2.611c-1.149 0-2.983.594-4.954 1.253-1.958.655-50.266 18.39-56.71 20.711-.39.13-2.165.053-2.295-.339-1.2-3.365-5.687-18.233-5.373-29.633 0-.287-.105-1.67 3.338-1.721 3.835-.052 51.754-.965 53.084-.991.405-.008 8.426-.887 11.53-3.026a60 60 0 0 1 2.113-1.383c.47-.287 1.122.052 1.122.626 0 .47.313.783.73.809z" clip-path="url(#a)" style="fill:#4a4b4f;fill-opacity:1"/><path fill="#46423a" stroke="#37342e" stroke-linecap="round" stroke-width="2.105" d="m99.807 98.192 2.843 34.407a1.913 1.913 0 0 0 2.583 1.643l18.227-3.487c.809-.287 1.304-1.095 1.252-1.956l-2.664-33.275a1.94 1.94 0 0 0-1.617-1.748l-18.407 2.355c-1.226-.208-2.321.81-2.217 2.061z"/><path d="m107.087 133.306-2.992-35.197M111.782 132.265l-2.993-35.197M116.476 131.354l-2.993-35.197M121.17 130.574l-2.992-35.197" style="fill:#4a4b4f;fill-opacity:1;fill-rule:evenodd;stroke:#373430;stroke-width:1.05833;stroke-linecap:round;stroke-linejoin:round;stroke-miterlimit:29;stroke-dasharray:none;stroke-opacity:1"/><path fill="#605a53" stroke="#373430" stroke-linecap="round" stroke-width=".986" d="M64.544 70.427v4.3c0 .47-.156.9.834.9h5.218c.469 0 .834-.366.834-.835v-2.643a.824.824 0 0 0-.834-.835h-.835a.8.8 0 0 1-.73-.47c-.105-.208-.314-.417-.757-.417Z" style="stroke-width:2.11667;stroke-linejoin:round;stroke-dasharray:none"/><path fill="#403d36" stroke="#37352e" stroke-linecap="round" stroke-width="2.087" d="M122.057 89.608h3.287c.835 0 1.54.678 1.54 1.54v1.147c0 .835-.679 1.539-1.54 1.539h-3.287a1.54 1.54 0 0 1-1.538-1.54v-1.173c0-.835.704-1.513 1.538-1.513z"/><path fill="#48453c" stroke="#37342e" stroke-linecap="round" stroke-width="2.105" d="m60.34 76.178-1.825 13.225 6.286-.965v-12.26z" style="stroke-linejoin:round"/><path fill="#4e4a41" stroke="#37342e" stroke-linecap="round" stroke-width=".986" d="m64.253 74.09-.86-.6a.4.4 0 0 0-.157-.051h-2.008c-.156 0-.26.13-.26.26v2.217c0 .156.13.26.26.26h2.894c.157 0 .261-.13.261-.26v-1.617c0-.078-.052-.156-.13-.209" style="stroke-width:1.05833;stroke-linejoin:round;stroke-dasharray:none"/><path fill="#433f38" stroke="#37342e" stroke-linecap="round" stroke-width="1.052" d="M64.805 79.124h-4.197v2.842h4.197z" style="stroke-linejoin:round"/><path fill="#3c3934" d="m82.988 92.517-.205 1.338s-1.666 1.607-.806 4.26l-.051.01a1.225 1.225 0 0 0-.984 1.427c.123.667.76 1.107 1.428.984.282-.052.494-.197.676-.364.496.678 1.16 1.405 2.044 2.17 0 0 1.298.424.742-.004-.587-.449-1.188-1.266-1.188-1.266s-3.302-4.962 1.902-7.672-3.558-.882-3.558-.882m-.536 7.314a.58.58 0 0 1-.668-.46.58.58 0 0 1 .46-.669.58.58 0 0 1 .669.46.58.58 0 0 1-.46.669" style="stroke-width:2.13494"/><path stroke="#373430" stroke-width=".493" d="m82.783 93.855.205-1.338s8.761-1.826 3.558.883c-5.204 2.71-1.902 7.672-1.902 7.672s.601.817 1.188 1.266c.556.428-.742.004-.742.004-.884-.765-1.548-1.492-2.044-2.17-.182.166-.394.312-.676.364a1.225 1.225 0 0 1-1.428-.984c-.123-.667.368-1.314 1.035-1.437-.86-2.653.806-4.26.806-4.26z" style="fill:none;stroke-width:1.05833;stroke-dasharray:none"/><path fill="#534f46" stroke="#38352e" stroke-linecap="round" stroke-width=".986" d="m60.34 76.176.6 12.364 32.242-.73s2.765 3.13 6.182 3.443c0 0 .757-.052.679 1.8-.079 1.852.417 4.487.417 4.487l-37.094-2.218-.547-.652-5.087-.39s-1.513-.627-1.513-2.688.522-14.242.522-14.242.182-1.174 1.513-1.2 2.113.026 2.087.026" style="fill:#4a463f;fill-opacity:1;stroke-width:1.05833;stroke-linejoin:round;stroke-dasharray:none"/><path fill="#676159" stroke="#373430" stroke-linecap="round" stroke-width=".986" d="M64.803 76.308v3.417c0 .757.626 1.383 1.382 1.383h29.633c.34 0 .627-.287.627-.626 0-.34.286-.626.626-.626h18.155a.635.635 0 0 0 .626-.626v-5.817c0-.835-.678-1.513-1.513-1.513H95.22a.7.7 0 0 0-.314.078c-.208.13-.73.339-1.721.339H81.732a.64.64 0 0 0-.495.235L79.67 74.56a2.66 2.66 0 0 1-2.112 1.044l-12.156.052c-.313.026-.574.313-.6.652" style="stroke-width:1.05833;stroke-linejoin:round;stroke-dasharray:none"/><path fill="#5e5d5a" stroke="#343332" stroke-linecap="round" stroke-width=".986" d="m124.958 77.668-4.559 2.817h-9.553l-2.452 1.253H66.579c-.444 0-.783.365-.783.808v2.217c0 .522.417.94.94.966l113.914 1.174 2.974-1.253c.913-.39 1.122-1.695.34-2.373l-6.522-5.582z" style="stroke-width:1.05833;stroke-linejoin:round;stroke-dasharray:none"/><path d="m122.441 79.795 2.048-1.182h52.277l1.626 1.377h-56.341z" style="fill:#4e4d4b;fill-opacity:1;fill-rule:evenodd;stroke:none;stroke-width:2.11667;stroke-linecap:round;stroke-linejoin:round;stroke-miterlimit:29;stroke-dasharray:none;stroke-opacity:1"/><path fill="#5e5d5a" stroke="#343332" stroke-linecap="round" stroke-width=".986" d="m101.506 97.644 12.938 1.33c.392.027.783-.052 1.122-.234l7.539-4.356c.208-.13.417-.287.574-.496.286-.417.47-1.017.417-1.46-.078-.731-.809-2.244-2.322-1.853-2.504.6-5.947.94-6.547.991h-14.66c-1.356 0-2.243 1.409-1.67 2.609l1.122 2.426c.287.574.861.965 1.487 1.043z" style="stroke-width:1.05833;stroke-dasharray:none"/><path fill="#44403b" d="M113.242 97.2a2.033 2.033 0 1 0 0-4.067 2.033 2.033 0 0 0 0 4.067zM118.09 95.425a1.33 1.33 0 1 0 0-2.66 1.33 1.33 0 0 0 0 2.66zM103.12 95.793a1.33 1.33 0 1 0 0-2.66 1.33 1.33 0 0 0 0 2.66zM107.633 96.338a1.59 1.59 0 1 0 0-3.18 1.59 1.59 0 0 0 0 3.18zM129.23 81.95a1.486 1.486 0 1 0 0-2.973 1.486 1.486 0 0 0 0 2.972zM135.52 81.946a1.486 1.486 0 1 0 0-2.973 1.486 1.486 0 0 0 0 2.973zM141.783 81.948a1.486 1.486 0 1 0 0-2.972 1.486 1.486 0 0 0 0 2.972zM148.065 81.95a1.486 1.486 0 1 0 0-2.973 1.486 1.486 0 0 0 0 2.973zM154.325 81.948a1.486 1.486 0 1 0 0-2.972 1.486 1.486 0 0 0 0 2.972zM160.614 81.948a1.486 1.486 0 1 0 0-2.972 1.486 1.486 0 0 0 0 2.972zM166.897 81.948a1.486 1.486 0 1 0 0-2.973 1.486 1.486 0 0 0 0 2.973zM173.156 81.948a1.486 1.486 0 1 0 0-2.972 1.486 1.486 0 0 0 0 2.972zM132.548 85.129a1.486 1.486 0 1 0 0-2.972 1.486 1.486 0 0 0 0 2.972zM138.807 85.129a1.486 1.486 0 1 0 0-2.973 1.486 1.486 0 0 0 0 2.973zM145.12 85.129a1.486 1.486 0 1 0 0-2.972 1.486 1.486 0 0 0 0 2.972zM151.379 85.129a1.486 1.486 0 1 0 0-2.973 1.486 1.486 0 0 0 0 2.973zM157.663 85.127a1.486 1.486 0 1 0 0-2.972 1.486 1.486 0 0 0 0 2.972zM163.898 85.127a1.486 1.486 0 1 0 0-2.971 1.486 1.486 0 0 0 0 2.971zM170.239 85.129a1.486 1.486 0 1 0 0-2.973 1.486 1.486 0 0 0 0 2.973zM176.47 85.126a1.486 1.486 0 1 0 .001-2.972 1.486 1.486 0 0 0 0 2.972zM126.075 84.445a.939.939 0 1 0 0-1.877.939.939 0 0 0 0 1.877z" style="stroke:#373430;stroke-width:1.05833;stroke-dasharray:none;stroke-opacity:1"/><path fill="#7a7975" stroke="#343332" stroke-linecap="round" stroke-width=".986" d="M66.579 79.75a2.217 2.217 0 1 0 0-4.434 2.217 2.217 0 0 0 0 4.435" style="stroke-width:1.05833;stroke-linejoin:round;stroke-dasharray:none"/><path fill="#3a3731" stroke="#37352e" stroke-linecap="round" stroke-width=".986" d="M126.235 90.239h8.921c.627 0 1.122.495 1.122 1.122v2.843c0 .626-.495 1.121-1.121 1.121h-8.922a1.114 1.114 0 0 1-1.121-1.121V91.36a1.13 1.13 0 0 1 1.121-1.122z" style="stroke-width:1.05833;stroke-dasharray:none"/><path fill="#7a7875" stroke="#343332" stroke-linecap="round" stroke-width=".986" d="m128.474 86.454-29.424 1.07c-.391.026-.705.417-.652.913l.13 2.321c.026.47.34.809.704.81l29.53-1.2c.39-.027.703-.47.651-.966l-.208-2.191a1.3 1.3 0 0 0-.157-.444c-.13-.208-.339-.339-.574-.313z" style="stroke-width:1.05833;stroke-dasharray:none"/><path fill="#403d36" stroke="#37352e" stroke-linecap="round" stroke-width=".986" d="M129.022 83.088h50.501c.313 0 .574.26.574.574v9.051a.58.58 0 0 1-.574.574h-50.501a.58.58 0 0 1-.574-.574v-9.051c0-.313.26-.574.574-.574z" style="stroke-width:1.05833;stroke-dasharray:none" transform="translate(0 1.012)"/><path fill="#514e48" d="M133.594 85.022c0-.29-.105-.82-.852-.82-.713 0-.884.53-.884.82v6.025c0 .29.074 1.08.884 1.08.803 0 .852-.789.852-1.08zM177.154 85.022c0-.29-.104-.82-.851-.82-.714 0-.884.53-.884.82v6.025c0 .29.074 1.08.884 1.08.802 0 .851-.789.851-1.08zM139.039 85.022c0-.29-.105-.82-.852-.82-.713 0-.884.53-.884.82v6.025c0 .29.074 1.08.884 1.08.803 0 .852-.789.852-1.08zM144.484 85.022c0-.29-.105-.82-.851-.82-.714 0-.885.53-.885.82v6.025c0 .29.074 1.08.884 1.08.803 0 .852-.789.852-1.08zM149.929 85.022c0-.29-.105-.82-.851-.82-.714 0-.885.53-.885.82v6.025c0 .29.074 1.08.885 1.08.802 0 .851-.789.851-1.08zM155.374 85.022c0-.29-.105-.82-.851-.82-.714 0-.885.53-.884.82v6.025c0 .29.073 1.08.884 1.08.802 0 .851-.789.851-1.08zM160.82 85.022c0-.29-.106-.82-.852-.82-.714 0-.884.53-.884.82v6.025c0 .29.073 1.08.884 1.08.802 0 .851-.789.851-1.08zM166.264 85.022c0-.29-.105-.82-.851-.82-.714 0-.884.53-.884.82v6.025c0 .29.074 1.08.884 1.08.802 0 .851-.789.851-1.08zM171.71 85.022c0-.29-.105-.82-.852-.82-.714 0-.884.53-.884.82v6.025c0 .29.074 1.08.884 1.08.802 0 .851-.789.851-1.08z" style="fill:#514e48;fill-opacity:1;stroke:#373430;stroke-width:1.05833;stroke-dasharray:none;stroke-opacity:1" transform="translate(0 1.012)"/><path d="M-13.341 89.03s.085-2.302 2.806-2.302c2.07 0 52.95-.865 52.95-.865s13.462-1.338 13.68-4.37l.049-.69-.407-.565s-4.793 4.193-15.824 4.388l-51.874 1.033s-1.058 0-1.472.46z" style="fill:#3d3e42;fill-opacity:1;fill-rule:evenodd;stroke:none;stroke-width:1.05833;stroke-linecap:round;stroke-linejoin:round;stroke-miterlimit:29;stroke-dasharray:none;stroke-opacity:1"/><g transform="rotate(7.055 69.563 114.475)"><circle cx="65.677" cy="90.4" r="1.154" style="fill:#5f5b51;fill-opacity:1;fill-rule:evenodd;stroke:#373430;stroke-width:1.05833;stroke-linecap:round;stroke-linejoin:round;stroke-miterlimit:29;stroke-dasharray:none;stroke-opacity:1"/><circle cx="67.721" cy="91.947" r="1.154" style="fill:#5f5b51;fill-opacity:1;fill-rule:evenodd;stroke:#373430;stroke-width:1.05833;stroke-linecap:round;stroke-linejoin:round;stroke-miterlimit:29;stroke-dasharray:none;stroke-opacity:1"/><circle cx="63.331" cy="91.947" r="1.154" style="fill:#5f5b51;fill-opacity:1;fill-rule:evenodd;stroke:#373430;stroke-width:1.05833;stroke-linecap:round;stroke-linejoin:round;stroke-miterlimit:29;stroke-dasharray:none;stroke-opacity:1"/><circle cx="65.677" cy="93.494" r="1.154" style="fill:#5f5b51;fill-opacity:1;fill-rule:evenodd;stroke:#373430;stroke-width:1.05833;stroke-linecap:round;stroke-linejoin:round;stroke-miterlimit:29;stroke-dasharray:none;stroke-opacity:1"/></g><path d="M55.02 117.401s2.117-6.302 10.26-12.559c0 0 4.094-3.128 1.84-8.878h-2.025s1.288 2.254 1.288 3.588c0 0 .644 2.668-3.772 5.612 0 0-7.177 6.81-8.649 11.363 0 0-.184.46 1.058.874" style="fill:#3d3e42;fill-opacity:1;fill-rule:evenodd;stroke:none;stroke-width:1.05833;stroke-linecap:round;stroke-linejoin:round;stroke-miterlimit:29;stroke-dasharray:none;stroke-opacity:1"/><circle cx="104.014" cy="74.94" r="1.203" style="fill:#7a7975;fill-opacity:1;fill-rule:evenodd;stroke:#373430;stroke-width:1.05833;stroke-linecap:round;stroke-linejoin:round;stroke-miterlimit:29;stroke-dasharray:none;stroke-opacity:1"/><circle cx="107.963" cy="74.94" r="1.203" style="fill:#7a7975;fill-opacity:1;fill-rule:evenodd;stroke:#373430;stroke-width:1.05833;stroke-linecap:round;stroke-linejoin:round;stroke-miterlimit:29;stroke-dasharray:none;stroke-opacity:1"/><circle cx="112.485" cy="75.323" r="1.586" style="fill:#7a7975;fill-opacity:1;fill-rule:evenodd;stroke:#373430;stroke-width:1.05833;stroke-linecap:round;stroke-linejoin:round;stroke-miterlimit:29;stroke-dasharray:none;stroke-opacity:1"/><path d="M56.723 77.562s.552-1.449 1.449-1.449h1.955l.448-.448h.38v-2.151h2.208l1.241.716v1.492h12.882s1.411.238 2.822-1.629l1.41-1.775h11.824s1.483-.015 1.594-.427h19.245s1.824.184 1.824 1.823h6.135s2.346-.154 2.53 3.848h52.352l6.993 5.797s1.012 1.518-.276 2.254l-3.772 1.61v6.947H135.48s-.368 1.15-1.15 1.15h-8.465s-.897-.46-.897-.897h-2.001l-7.177 4.163s-.806.615-1.551.416c-.745-.2-13.63-1.612-13.63-1.612l-37.217-2.208-.598-.552-4.968-.368s-1.702-.46-1.61-2.623c.092-2.162.506-14.077.506-14.077" style="fill:none;fill-opacity:1;fill-rule:evenodd;stroke:#373430;stroke-width:2.11667;stroke-linecap:round;stroke-linejoin:round;stroke-miterlimit:29;stroke-dasharray:none;stroke-opacity:1"/><path d="M55.69 93.36s-2.372-.424-9.481 2.488m0 0-53.17 19.437-1.302-.065-.455-1.692s.655.805 1.83.49S49.705 93.1 49.705 93.1s3.123-1.107 5.465-1.107c0 0 .065 1.237.52 1.367" style="fill:#3d3e42;fill-opacity:1;fill-rule:evenodd;stroke:none;stroke-width:1.05833;stroke-linecap:round;stroke-linejoin:round;stroke-miterlimit:29;stroke-dasharray:none;stroke-opacity:1"/></g></svg>