<?xml version="1.0" encoding="UTF-8" standalone="no"?>
<svg
   width="69"
   height="113.617"
   viewBox="0 0 69 113.61702"
   fill="none"
   version="1.1"
   id="svg52"
   sodipodi:docname="birch_tree_particle.svg"
   inkscape:version="1.4 (1:1.4+202410161351+e7c3feb100)"
   xmlns:inkscape="http://www.inkscape.org/namespaces/inkscape"
   xmlns:sodipodi="http://sodipodi.sourceforge.net/DTD/sodipodi-0.dtd"
   xmlns="http://www.w3.org/2000/svg"
   xmlns:svg="http://www.w3.org/2000/svg"
   xmlns:rdf="http://www.w3.org/1999/02/22-rdf-syntax-ns#"
   xmlns:cc="http://creativecommons.org/ns#"
   xmlns:dc="http://purl.org/dc/elements/1.1/">
  <defs
     id="defs56" />
  <sodipodi:namedview
     id="namedview54"
     pagecolor="#505050"
     bordercolor="#ffffff"
     borderopacity="1"
     inkscape:pageshadow="0"
     inkscape:pageopacity="0"
     inkscape:pagecheckerboard="1"
     showgrid="false"
     inkscape:zoom="4.3372536"
     inkscape:cx="15.447563"
     inkscape:cy="9.1071456"
     inkscape:window-width="2560"
     inkscape:window-height="1368"
     inkscape:window-x="0"
     inkscape:window-y="0"
     inkscape:window-maximized="1"
     inkscape:current-layer="svg52"
     height="609.877px"
     inkscape:showpageshadow="2"
     inkscape:deskcolor="#505050" />
  <path
     style="color:#000000;fill:#cc92c1;stroke-width:0.99999875;stroke-linejoin:miter;stroke-miterlimit:4;-inkscape-stroke:none;font-variation-settings:normal;opacity:1;vector-effect:none;fill-opacity:1;stroke-linecap:butt;stroke-dasharray:none;stroke-dashoffset:0;stroke-opacity:1;stop-color:#000000;stop-opacity:1"
     d="M 26.26145,60.058419 22.965301,32.101824 43.067702,2.9149961 38.611818,43.848561 49.766674,90.033559 40.518229,110.70181 Z"
     id="path865" />
  <path
     id="path-1-239"
     style="fill:#4d194f;fill-opacity:1;fill-rule:nonzero;stroke:none;stroke-width:0.99999999;font-variation-settings:normal;opacity:1;vector-effect:none;stroke-linecap:butt;stroke-linejoin:miter;stroke-miterlimit:4;stroke-dasharray:none;stroke-dashoffset:0;stroke-opacity:1;-inkscape-stroke:none;stop-color:#000000;stop-opacity:1"
     d="m 35.837653,58.341624 c -0.77969,0.788905 -0.912756,2.072005 -0.43301,3.052007 0.243008,0.718245 0.185138,1.49866 0.06702,2.233988 -0.121066,0.325475 -0.46135,0.495634 -0.682,0.750037 -0.673206,0.71748 -1.686907,1.25362 -1.912026,2.284003 -0.0835,0.88289 0.757838,1.515563 1.501894,1.793238 0.563723,0.259414 1.236999,0.25892 1.758106,0.594757 0.660646,0.476159 1.525983,0.5594 2.291866,0.802749 0.869233,0.240107 1.840519,0.37288 2.503804,1.045557 0.332808,0.354026 1.047743,0.30335 1.291246,0.539122 0.127309,-0.153846 0.443447,-0.236761 0.451379,-0.435405 -0.854749,-4.46737 -1.709496,-8.934742 -2.564246,-13.402111 -0.379337,0.211336 -0.758671,0.42267 -1.138009,0.634007 -0.05502,0.313322 -0.812028,-0.115114 -1.079745,-0.211611 -0.688843,-0.387342 -1.511646,-0.240064 -2.056251,0.319716 z m 3.136025,-0.108003 c -0.05663,0.01231 -0.104956,0.07368 0,0 z" />
  <path
     style="color:#000000;fill:#231a22;stroke-width:0.99999875;stroke-linejoin:miter;stroke-miterlimit:4;-inkscape-stroke:none;font-variation-settings:normal;opacity:1;vector-effect:none;fill-opacity:1;stroke-linecap:butt;stroke-dasharray:none;stroke-dashoffset:0;stroke-opacity:1;stop-color:#000000;stop-opacity:1"
     d="M 42.819174,0.01057308 A 2.9166356,2.9166356 0 0 0 40.666379,1.2608219 L 20.564375,30.447475 a 2.9166356,2.9166356 0 0 0 -0.495662,1.99559 l 3.295775,27.956748 a 2.9166356,2.9166356 0 0 0 0.09062,0.449425 l 14.255797,50.642482 a 2.9166356,2.9166356 0 0 0 5.468914,0.40133 l 9.249256,-20.667943 a 2.9166356,2.9166356 0 0 0 0.172003,-1.875374 L 41.565226,43.658316 45.966991,3.2305188 A 2.9166356,2.9166356 0 0 0 42.819174,0.01057308 Z M 38.91862,14.079572 35.71347,43.53255 a 2.9166356,2.9166356 0 0 0 0.06289,1.000569 L 46.697535,89.751071 41.143546,102.16294 29.12932,59.48617 25.990751,32.8518 Z"
     id="path867" />
  <path
     d="M 16.375341,44.789971 C 23.627083,39.818567 34.138844,23.80347 22.943662,20.267378 11.480255,17.732294 12.57553,36.857048 16.369738,44.78885 l -0.0012,0.0035 c 0.0022,0 0.0057,-0.0022 0.0066,-0.0022 z"
     fill="#5f926a"
     id="path46-6"
     style="fill:#8e477f;fill-opacity:0.9;stroke-width:0.99999875;font-variation-settings:normal;opacity:1;vector-effect:none;stroke-linecap:butt;stroke-linejoin:miter;stroke-miterlimit:4;stroke-dasharray:none;stroke-dashoffset:0;stroke-opacity:1;-inkscape-stroke:none;stop-color:#000000;stop-opacity:1" />
  <path
     d="M 8.3803664e-5,6.3745557 0.00795282,6.3789307 C 3.795414,17.188084 20.359281,35.812334 28.601935,22.884438 35.676359,9.2820903 11.265987,4.2500882 0.01131586,6.3733151 l -0.00786902,-0.00438 c 0.00108897,0.00108 0.00218741,0.00327 0.00218741,0.00438 -0.00218741,0 -0.00327638,0.00108 -0.00563425,0.00108 z"
     fill="#587e60"
     id="path48-7"
     style="fill:#a55394;fill-opacity:0.9;stroke-width:0.99999875;font-variation-settings:normal;opacity:1;vector-effect:none;stroke-linecap:butt;stroke-linejoin:miter;stroke-miterlimit:4;stroke-dasharray:none;stroke-dashoffset:0;stroke-opacity:1;-inkscape-stroke:none;stop-color:#000000;stop-opacity:1" />
  <metadata
     id="metadata3223">
    <rdf:RDF>
      <cc:Work
         rdf:about="">
        <dc:creator>
          <cc:Agent>
            <dc:title>Radians</dc:title>
          </cc:Agent>
        </dc:creator>
      </cc:Work>
    </rdf:RDF>
  </metadata>
  <path
     d="M 68.997824,61.927965 C 63.946391,54.559486 47.673485,43.878504 44.080471,55.253915 41.504576,66.901858 60.937198,65.788946 68.996686,61.933664 L 69,61.9348 C 69,61.9326 68.9978,61.929 68.9978,61.928 Z"
     fill="#5f926a"
     id="path46"
     style="fill:#8e477f;fill-opacity:0.9;stroke-width:0.99999875;font-variation-settings:normal;opacity:1;vector-effect:none;stroke-linecap:butt;stroke-linejoin:miter;stroke-miterlimit:4;stroke-dasharray:none;stroke-dashoffset:0;stroke-opacity:1;-inkscape-stroke:none;stop-color:#000000;stop-opacity:1" />
  <path
     d="m 60.855098,26.191649 -0.0044,0.008 C 49.867496,30.048086 30.943436,46.878588 44.079442,55.253931 57.900759,62.442243 63.013765,37.638914 60.856359,26.203067 l 0.0044,-0.008 c -0.0012,0.0012 -0.0035,0.0022 -0.0044,0.0022 0,-0.0022 -0.0012,-0.0034 -0.0012,-0.0058 z"
     fill="#587e60"
     id="path48"
     style="fill:#a55394;fill-opacity:0.9;stroke-width:0.999999;font-variation-settings:normal;opacity:1;vector-effect:none;stroke-linecap:butt;stroke-linejoin:miter;stroke-miterlimit:4;stroke-dasharray:none;stroke-dashoffset:0;stroke-opacity:1;-inkscape-stroke:none;stop-color:#000000;stop-opacity:1" />
  <path
     d="m 38.721158,35.26598 0.0012,0.0044 c -3.299994,6.517823 -4.410621,22.162438 5.356999,19.983367 9.549834,-2.996647 0.765128,-15.990116 -5.352464,-19.985653 l -0.0012,-0.0033 c 0.0012,-0.0012 0,0 0,0 -0.0012,-0.0012 -0.0035,0.0022 -0.0044,0.0012 z"
     fill="#77a37a"
     id="path50"
     style="fill:#8e477f;fill-opacity:0.9;stroke-width:0.99999875;font-variation-settings:normal;opacity:1;vector-effect:none;stroke-linecap:butt;stroke-linejoin:miter;stroke-miterlimit:4;stroke-dasharray:none;stroke-dashoffset:0;stroke-opacity:1;-inkscape-stroke:none;stop-color:#000000;stop-opacity:1" />
</svg>
