<svg xmlns="http://www.w3.org/2000/svg" xml:space="preserve" width="64" height="64" viewBox="0 0 16.933 16.933"><g transform="scale(-.11815 .11815)rotate(30 57.51 -788.642)"><path d="M351.381 11.117V6.262h-1.22V2.344H367.2l.037 3.844h-1.22v4.892z" style="fill:#e59b00;fill-opacity:1;stroke:none;stroke-width:2;stroke-linecap:square;stroke-linejoin:round;stroke-miterlimit:29;stroke-dasharray:none;stroke-opacity:1"/><path d="M349.966 2.693h16.968l.044 4.475h-17.012Z" style="fill:#ffc61a;fill-opacity:1;stroke:none;stroke-width:.272872;stroke-linecap:square;stroke-linejoin:round;stroke-miterlimit:29;stroke-dasharray:none;stroke-opacity:1"/><path d="M364.591 2.545v2.178M360.891 2.545v2.178M362.741 2.545v2.178" style="fill:#cc8a00;fill-opacity:1;stroke:#cc8a00;stroke-width:.998728;stroke-linecap:round;stroke-dasharray:none;stroke-opacity:1" transform="translate(.137 -.039)"/><path d="M364.591 2.545v2.178M360.891 2.545v2.178M362.741 2.545v2.178" style="fill:#cc8a00;fill-opacity:1;stroke:#cc8a00;stroke-width:.998728;stroke-linecap:round;stroke-dasharray:none;stroke-opacity:1" transform="translate(-8.214 -.039)"/><path d="M351.385 11.49V7.217h-.607V2.371h15.812l.037 4.846h-.607v4.236z" style="fill:none;fill-opacity:1;stroke:#000;stroke-width:2;stroke-linecap:square;stroke-linejoin:round;stroke-miterlimit:29;stroke-dasharray:none;stroke-opacity:1"/><path d="M302.213 12.76s-1.715.013-1.715 7.265 1.715 7.265 1.715 7.265h47.142l1.464 1.463h15.679l1.672-1.673h30.418s5.226 3.764 7.84 3.868V8.998s-5.936 2.089-8.236 3.866l-30.1-.052-1.228-1.41-16.176.052-1.45 1.437z" style="fill:#e59b00;fill-opacity:1;stroke:#000;stroke-width:2.016;stroke-linecap:square;stroke-linejoin:round;stroke-miterlimit:29;stroke-dasharray:none;stroke-opacity:1"/><path d="M301.876 15.724h47.637l1.602 4.303h15.233l1.41-4.287h30.712s3.412-2.494 7.195-2.863V26.85s-3.206-.275-6.754-2.713l-31.134.154-1.707-4.53H351.3l-1.538 4.788H301.94s-.512-.546-.512-4.412.448-4.412.448-4.412" style="fill:#ffc61a;fill-opacity:1;stroke:none;stroke-width:.271843;stroke-linecap:square;stroke-linejoin:round;stroke-miterlimit:29;stroke-dasharray:none;stroke-opacity:1"/><path d="M366.663 7.168h-15.656" style="fill:none;stroke:#000;stroke-width:1.99746;stroke-dasharray:none;stroke-opacity:1"/><circle cx="358.65" cy="20.047" r="8.722" style="fill:#d89200;fill-opacity:1;stroke:#000;stroke-width:1.58121;stroke-linecap:square;stroke-linejoin:round;stroke-miterlimit:29;stroke-dasharray:none;stroke-opacity:1"/><path d="M406.271 9.164s-.055-1.608 2.785-1.608h7.773v25.336h-7.422s-3.166.054-3.166-1.828.03-21.9.03-21.9" style="fill:#e59b00;fill-opacity:1;stroke:none;stroke-width:2;stroke-linecap:square;stroke-linejoin:round;stroke-miterlimit:29;stroke-dasharray:none;stroke-opacity:1"/><path d="M406.97 8.088s.189-.575 1.89-.575 7.535.032 7.535.032v25.124h-7.142c-2.637 0-2.283-.543-2.283-.543z" style="fill:#ffc61a;fill-opacity:1;stroke:none;stroke-width:.248235;stroke-linecap:square;stroke-linejoin:round;stroke-miterlimit:29;stroke-dasharray:none;stroke-opacity:1"/><path d="M364.962 2.38v4.242M359.157 2.38v4.242M362.06 2.38v4.242M347.547 2.38v4.242M344.644 2.38v4.242M350.45 2.38v4.242M353.352 2.38v4.242M356.254 2.38v4.242" style="fill:#cc8a00;fill-opacity:1;stroke:#cc8a00;stroke-width:1.99746;stroke-linecap:round;stroke-dasharray:none;stroke-opacity:1" transform="matrix(0 -.99801 1.04368 0 406.497 374.301)"/><path d="M406.428 9.05s-.055-1.609 2.785-1.609h7.772v25.336h-7.422s-3.166.055-3.166-1.828c0-1.882.03-21.9.03-21.9z" style="fill:none;fill-opacity:1;stroke:#000;stroke-width:2;stroke-linecap:square;stroke-linejoin:round;stroke-miterlimit:29;stroke-dasharray:none;stroke-opacity:1"/><path d="m417.27 32.3 1.438-1.437h21.454v-.512h3.016v.512h3.308s1.5-2.375 1.5-11.263c0-8.263-1.5-11.394-1.5-11.394h-3.334v.397h-2.99l.026-.397-21.402-.078-1.516-.967z" style="fill:#e59b00;fill-opacity:1;stroke:none;stroke-width:2;stroke-linecap:square;stroke-linejoin:round;stroke-miterlimit:29;stroke-dasharray:none;stroke-opacity:1"/><path d="M440.153 8.366V30.41h2.922V8.366Z" style="fill:#b28500;fill-opacity:1;stroke:none;stroke-width:.283809;stroke-linecap:square;stroke-linejoin:round;stroke-miterlimit:29;stroke-dasharray:none;stroke-opacity:1"/><path d="m416.933 32.568 1.437-1.437h21.052v-.512h3.96v.512h2.766s1.5-2.375 1.5-11.263c0-8.263-1.5-11.393-1.5-11.393h-2.765v.397h-3.961v-.397l-20.974-.079-1.515-.967z" style="fill:none;fill-opacity:1;stroke:#000;stroke-width:2;stroke-linecap:square;stroke-linejoin:round;stroke-miterlimit:29;stroke-dasharray:none;stroke-opacity:1"/><path d="m417.984 11.533 1.238.497h20.502v15.91h-20.379l-1.338.61z" style="fill:#ffc61a;fill-opacity:1;stroke:none;stroke-width:.525366;stroke-linecap:square;stroke-linejoin:round;stroke-miterlimit:29;stroke-dasharray:none;stroke-opacity:1"/><circle cx="358.65" cy="20.047" r="6.541" style="fill:#ffc61a;fill-opacity:1;stroke:none;stroke-width:.24919;stroke-linecap:square;stroke-linejoin:round;stroke-miterlimit:29;stroke-dasharray:none;stroke-opacity:1"/><g transform="translate(1.504 -4.586)"><path d="M334.013 36.337h50.091l3.352 3.35h-47.137z" style="fill:#737373;fill-opacity:1;stroke:none;stroke-width:2.016;stroke-linejoin:round;stroke-dasharray:none;stroke-opacity:1"/><path d="M331.6 16.151h9.421v16.236c.402 2.08 3.522 3.129 6.718 4.402h-13.42l-2.719-3.255zM383.613 16.151h-9.421V32.7c-.402 2.08-3.522 3.129-6.718 4.402h17.42l-1.281-3.256z" style="fill:#666;fill-opacity:1;stroke-width:1.9585;stroke-linecap:round;stroke-linejoin:round"/><rect width="8.953" height="7.833" x="331.6" y="22.167" ry="0" style="fill:gray;fill-opacity:1;stroke:none;stroke-width:2.016;stroke-linecap:round;stroke-linejoin:round;stroke-dasharray:none;stroke-opacity:1"/><rect width="8.953" height="7.833" x="374.375" y="22.167" ry="0" style="fill:gray;fill-opacity:1;stroke:none;stroke-width:2.016;stroke-linecap:round;stroke-linejoin:round;stroke-dasharray:none;stroke-opacity:1"/><path d="M331.326 20.129v1.753h2.103V20.13s-.271-.298-1.052-.298c-.78 0-1.051.298-1.051.298zM334.672 20.129v1.753h2.103V20.13s-.271-.298-1.052-.298c-.78 0-1.051.298-1.051.298z" style="fill:#404040;fill-opacity:1;stroke:#000;stroke-width:1;stroke-linecap:square;stroke-linejoin:round;stroke-miterlimit:29;stroke-dasharray:none;stroke-opacity:1" transform="translate(2.027)"/><path d="M360.382 39.42h6.526v4.101h-2.646zM367.105 39.847h34.671v10.797h-10.6l-2.105-2.48h-9.089l-2.253 2.628h-10.655z" style="fill:#4d4d4d;fill-opacity:1;stroke:none;stroke-width:2.016;stroke-linejoin:round;stroke-dasharray:none;stroke-opacity:1"/><path d="M363.733 43.323h3.35v7.33h10.962c0-.735.603-2.488 2.962-2.488h6.963c2.15 0 2.962 1.649 2.962 2.488h10.962V39.735h-9.372c-7.506 0-9.193-2.986-9.193-8.244V17.674c0-1.224-.985-2.209-2.21-2.209h-4.534c-1.224 0-2.21.985-2.21 2.21V31.49c0 1.929-1.572 4.612-5.771 4.612h-22.279c-4.2 0-5.771-2.683-5.771-4.612V17.674c0-1.224-.986-2.209-2.21-2.209h-4.535c-1.224 0-2.209.985-2.209 2.21V31.49c0 3.35 3.222 8.244 12.21 8.244h11.946c4.888 0 6.032 1.644 7.977 3.588" style="fill:none;stroke:#000;stroke-width:2.016;stroke-linecap:round;stroke-linejoin:round"/><path d="M331.431 22.18h9.292" style="fill:#46532d;stroke:#000;stroke-width:2.016;stroke-dasharray:none;stroke-opacity:1"/><path d="M331.326 20.129v1.753h2.103V20.13s-.271-.298-1.052-.298c-.78 0-1.051.298-1.051.298zM334.672 20.129v1.753h2.103V20.13s-.271-.298-1.052-.298c-.78 0-1.051.298-1.051.298z" style="fill:#404040;fill-opacity:1;stroke:#000;stroke-width:1;stroke-linecap:square;stroke-linejoin:round;stroke-miterlimit:29;stroke-dasharray:none;stroke-opacity:1" transform="translate(44.802)"/><path d="M374.25 22.18h9.292" style="fill:#46532d;stroke:#000;stroke-width:2.016;stroke-dasharray:none;stroke-opacity:1"/><path d="m372.18 47.041-3.519-.311-1.49-3.204 2.03-2.891 3.52.312 1.488 3.203z" style="fill:#666;fill-opacity:1;stroke:#000;stroke-width:2.016;stroke-linejoin:round;stroke-dasharray:none;stroke-opacity:1" transform="rotate(-4.852 450.45 24.836)"/><path d="m372.18 47.041-3.519-.311-1.49-3.204 2.03-2.891 3.52.312 1.488 3.203z" style="fill:#666;fill-opacity:1;stroke:#000;stroke-width:2.016;stroke-linejoin:round;stroke-dasharray:none;stroke-opacity:1" transform="rotate(-4.852 462.371 -256.526)"/><path d="m369.903 52.065 5.362-3.096M399.108 52.065l-5.362-3.096" style="fill:#1a1a1a;fill-opacity:1;stroke:#000;stroke-width:1;stroke-linejoin:round;stroke-dasharray:none;stroke-opacity:1"/><path d="M391.768 39.731H353.83M367.083 39.629v5.394" style="fill:#1a1a1a;fill-opacity:1;stroke:#000;stroke-width:2.016;stroke-linejoin:round;stroke-dasharray:none;stroke-opacity:1"/></g><circle cx="-358.65" cy="4.724" r="1.002" style="fill:#cc8a00;fill-opacity:1;stroke:#000;stroke-width:.998728;stroke-dasharray:none;stroke-opacity:1" transform="scale(-1 1)"/><path d="M439.597 8.884v21.743M443.33 8.97v21.744M398.28 12.12v15.903M304.491 12.12v15.903M348.843 12.12v15.903M368.244 12.12v15.903" style="fill:none;stroke:#000;stroke-width:1.99746;stroke-dasharray:none;stroke-opacity:1"/><circle cx="358.65" cy="20.047" r="3.333" style="fill:#e59b00;fill-opacity:1;stroke:#000;stroke-width:.998728;stroke-linecap:square;stroke-linejoin:round;stroke-miterlimit:29;stroke-dasharray:none;stroke-opacity:1"/></g></svg>