<svg xmlns="http://www.w3.org/2000/svg" width="131.939" height="748.225" viewBox="0 0 34.909 197.968"><g transform="matrix(.93647 0 0 .93647 -41.62 -29.703)"><g transform="translate(-.148)"><rect width="5.202" height="182.939" x="48.157" y="32.514" ry="1.428" style="fill:#a8a8a8;fill-opacity:1;stroke:#333;stroke-width:1.58983;stroke-linecap:square;stroke-linejoin:round;stroke-dasharray:none;stroke-opacity:1;paint-order:fill markers stroke;stop-color:#000"/><path d="M48.966 206.45v-8.11l3.58-3.448v8.147zM48.968 189.143v-8.109l3.581-3.448v8.147zM48.94 171.848v-8.109l3.582-3.448v8.147zM48.943 154.542v-8.109l3.581-3.448v8.147zM48.966 136.829v-8.11l3.581-3.448v8.147zM48.969 119.523v-8.11l3.58-3.448v8.147zM48.941 102.228v-8.11l3.581-3.448v8.148zM48.944 84.922v-8.11l3.58-3.448v8.148zM48.969 67.572v-8.11l3.58-3.447v8.147zM48.941 50.277v-8.11l3.581-3.447v8.147z" style="fill:#870000;fill-opacity:1;stroke:none;stroke-width:1.75138;stroke-linecap:square;stroke-linejoin:round;stroke-dasharray:none;stroke-opacity:1;paint-order:fill markers stroke;stop-color:#000"/></g><rect width="9.372" height="26.414" x="45.925" y="211.02" ry="1.704" style="fill:#b8c73c;fill-opacity:1;stroke:#444804;stroke-width:2.96102;stroke-linecap:square;stroke-linejoin:round;stroke-dasharray:none;stroke-opacity:1;paint-order:fill markers stroke;stop-color:#000"/><rect width="23.039" height="33.953" x="56.963" y="207.446" ry="1.673" style="fill:#595959;fill-opacity:1;stroke:#252525;stroke-width:3.43729;stroke-linecap:square;stroke-linejoin:round;stroke-dasharray:none;stroke-opacity:1;paint-order:fill markers stroke;stop-color:#000"/></g></svg>