<svg xmlns="http://www.w3.org/2000/svg" xmlns:xlink="http://www.w3.org/1999/xlink" width="234.823" height="125.319" viewBox="0 0 62.13 33.157"><defs><pattern xlink:href="#a" id="b" x="1.5" y="0" patternTransform="rotate(30 -69.248 19.465)scale(2.5)" preserveAspectRatio="xMidYMid"/><pattern id="a" width="2" height="10" patternTransform="scale(2)" patternUnits="userSpaceOnUse" preserveAspectRatio="xMidYMid" style="fill:#e19a9a"><path d="M0-.5h1v11H0z" style="stroke:none"/></pattern></defs><g transform="translate(-228.335 -115.623)"><rect width="8.766" height="23.026" x="280.277" y="120.883" ry="2.564" style="fill:#adad38;fill-opacity:1;fill-rule:evenodd;stroke:#3a3a13;stroke-width:1.85208;stroke-linecap:round;stroke-linejoin:round;stroke-dasharray:none;stroke-opacity:1"/><path d="M289.043 125.244V136.4c-1.008.311-1.655 1.27-2.587 1.736-1.261.63-6.69.054-7.637-.892-1.211-1.211-1.955-10.528.694-11.853 1.582-.79 3.795.893 5.455.893 1.369 0 2.87-1.823 4.075-1.041" style="fill:#c9d1d9;stroke:#a2a5c0;stroke-width:1.852;stroke-linecap:round;stroke-linejoin:round;stroke-miterlimit:0"/><path d="M282.606 141.1h6.934v3.402c-2.48.83-4.1.76-6.934 0z" style="fill:#4d4d4d;fill-rule:evenodd;stroke:#272727;stroke-width:1.85208;stroke-linecap:round;stroke-linejoin:round"/><g transform="translate(-89.784 -103.968)"><rect width="3.31" height="31.834" x="323.936" y="220.253" ry="1.655" style="fill:#727272;fill-opacity:1;stroke:#333;stroke-width:1.32292;stroke-linecap:round;stroke-linejoin:round;stroke-miterlimit:5;stroke-dasharray:none;stroke-opacity:1"/><rect width="3.31" height="31.834" x="365.547" y="220.253" ry="1.655" style="fill:#727272;fill-opacity:1;stroke:#333;stroke-width:1.32292;stroke-linecap:round;stroke-linejoin:round;stroke-miterlimit:5;stroke-dasharray:none;stroke-opacity:1"/></g><rect width="54.678" height="24.692" x="229.273" y="119.856" ry="0" style="fill:#c32020;fill-opacity:1;stroke:#480f0f;stroke-width:1.876;stroke-linecap:round;stroke-linejoin:round;stroke-miterlimit:5;stroke-dasharray:none;stroke-opacity:1"/><g style="display:inline"><path d="M323.042 265.988h48.746v9.134h-48.746z" style="fill:gray;fill-opacity:1;stroke:#333;stroke-width:1.32292;stroke-linecap:round;stroke-linejoin:round;stroke-miterlimit:5;stroke-dasharray:none;stroke-opacity:1" transform="translate(-90.802 -142.977)"/><path d="M321.381 279.026h52.067v4.413h-52.067z" style="fill:url(#b);fill-opacity:1;stroke:none;stroke-width:1.5875;stroke-linecap:round;stroke-linejoin:round;stroke-miterlimit:5;stroke-dasharray:none;stroke-opacity:1" transform="translate(-90.802 -142.977)"/><path d="M373.407 279.025h1.356l-.046 4.413h-3.031z" style="display:inline;opacity:1;fill:#e19a9a;fill-rule:evenodd;stroke-width:1.85196;stroke-linecap:round;stroke-linejoin:round" transform="translate(-90.802 -142.977)"/><path d="M320.33 279.025h1.356l-.046 4.413h-1.31z" style="display:inline;fill:#e19a9a;fill-rule:evenodd;stroke-width:1.85196;stroke-linecap:round;stroke-linejoin:round" transform="translate(-90.802 -142.977)"/></g><rect width="54.678" height="24.692" x="229.273" y="119.856" rx="0" ry="0" style="fill:none;fill-opacity:1;stroke:#3f0d0d;stroke-width:1.876;stroke-linecap:round;stroke-linejoin:round;stroke-miterlimit:5;stroke-dasharray:none;stroke-opacity:1"/><g style="mix-blend-mode:normal"><path fill="#f17a23" stroke-miterlimit="10" d="M368.731 201.138c0-.774-.011-1.844.262-2.814.363-1.29 1.161-2.403 1.161-2.403s-1.824 6.72 3.52 4.922c2.06-.693.968-4.204.7-6.837-.158-1.552.86-2.857.86-2.857s.01 1.288.559 2.593c.432 1.032 1.597 3.302 3.426 3.026 4.533-.683 4.1-6.063 4.1-6.063s2.03 3.325 1.98 6.562c-.049 3.092-1.77 4.108.5 5.78 3.485 2.565 4.764-4.844 4.764-4.844s.391 1.919.391 2.935c0 6.137-4.974 11.111-11.111 11.111s-11.112-4.974-11.112-11.111" data-paper-data="{&quot;isPaintingLayer&quot;:true}" style="fill:#b2b2b2;fill-opacity:1;stroke:none" transform="matrix(.3021 0 0 .3021 141.86 66.71)"/></g><path d="M283.952 132.202v12.346h-5.48c.105-1.493-.447-3.88.149-5.37.445-1.113 1.579-1.848 2.231-2.826.934-1.4.84-4.243 3.1-4.15M276.24 119.856h-18.497c7.01-.673 6.496 8.871 12.398 10.347.578.144 1.434.437 2.033.198 1.471-.589 2.928-5.327 3.868-6.893.362-.604 1.367-1.803.198-3.652M253.15 131.494c2.787 2.327 6.27 3.512 9.87 3.769 1.64.117 8.605-.853 8.975-.694 1.855.795.224 4.221-.397 5.108-2.147 3.067-7.886 2.553-11.257 2.132-2.984-.373-13.851-8.412-7.19-10.315M245.593 119.856h-16.32v24.692h7.146c.32-.974 1.285-2.16 2.182-2.741 1.457-.943 4.019-1.123 5.008-2.678 1.472-2.313-6.973-9.844-6.546-11.555.573-2.288 5.21-3.556 6.894-4.959.75-.626 1.16-1.968 1.636-2.76" style="fill:#c9d1d9;stroke:#a2a5c0;stroke-width:1.852;stroke-linecap:round;stroke-linejoin:round;stroke-miterlimit:0"/></g></svg>