<?xml version="1.0" encoding="UTF-8" standalone="no"?>
<svg
   width="24"
   height="21.131489"
   version="1.1"
   id="svg1"
   sodipodi:docname="bsky.svg"
   inkscape:version="1.4 (1:1.4+202410161351+e7c3feb100)"
   xmlns:inkscape="http://www.inkscape.org/namespaces/inkscape"
   xmlns:sodipodi="http://sodipodi.sourceforge.net/DTD/sodipodi-0.dtd"
   xmlns="http://www.w3.org/2000/svg"
   xmlns:svg="http://www.w3.org/2000/svg">
  <defs
     id="defs1" />
  <sodipodi:namedview
     id="namedview1"
     pagecolor="#505050"
     bordercolor="#ffffff"
     borderopacity="1"
     inkscape:showpageshadow="0"
     inkscape:pageopacity="0"
     inkscape:pagecheckerboard="1"
     inkscape:deskcolor="#505050"
     inkscape:zoom="6.5534123"
     inkscape:cx="11.291827"
     inkscape:cy="45.167309"
     inkscape:window-width="2560"
     inkscape:window-height="1368"
     inkscape:window-x="0"
     inkscape:window-y="0"
     inkscape:window-maximized="1"
     inkscape:current-layer="svg1" />
  <path
     d="M 5.2023171,1.4224091 C 7.9538596,3.4880936 10.913456,7.6764415 12.00007,9.9241525 13.086767,7.6766071 16.046198,3.4880522 18.797824,1.4224091 20.783191,-0.0681063 24,-1.2213823 24,2.4484031 c 0,0.7329061 -0.420204,6.1567916 -0.666658,7.0373382 -0.856671,3.0613887 -3.978349,3.8422117 -6.755133,3.3696217 4.853765,0.826092 6.088516,3.562407 3.421925,6.298722 -5.064384,5.196797 -7.278992,-1.303896 -7.846713,-2.96961 C 12.049394,15.879109 12.000716,15.736256 12,15.857729 c -7.2e-4,-0.121477 -0.04939,0.02138 -0.153421,0.326746 -0.567473,1.665714 -2.782039,8.166572 -7.8467128,2.96961 C 1.3332336,16.41777 2.5679436,13.681289 7.421791,12.855363 4.6449245,13.327953 1.5232049,12.547126 0.66665816,9.4857413 0.42019616,8.605112 0,3.1812264 0,2.4484031 0,-1.2213823 3.2168915,-0.0681063 5.2021764,1.4224091 Z"
     fill="#1185fe"
     id="path1"
     style="fill:#ffffff;fill-opacity:1;stroke-width:0.0413791" />
</svg>
