<svg xmlns="http://www.w3.org/2000/svg" width="24" height="21.131"><path fill="#1185fe" d="M5.202 1.422C7.954 3.488 10.913 7.676 12 9.924c1.087-2.247 4.046-6.436 6.798-8.502C20.783-.068 24-1.22 24 2.448c0 .733-.42 6.157-.667 7.038-.856 3.061-3.978 3.842-6.755 3.37 4.854.825 6.089 3.562 3.422 6.298-5.064 5.197-7.279-1.304-7.847-2.97-.104-.305-.152-.448-.153-.326 0-.122-.05.021-.153.326-.568 1.666-2.782 8.167-7.847 2.97-2.667-2.736-1.432-5.473 3.422-6.299-2.777.473-5.899-.308-6.755-3.37C.42 8.606 0 3.182 0 2.449c0-3.67 3.217-2.516 5.202-1.026Z" style="fill:#fff;fill-opacity:1;stroke-width:.0413791"/></svg>