<svg xmlns="http://www.w3.org/2000/svg" viewBox="0 0 24 24"><path d="M15.051 4.577a2.5 2.5 0 0 0 4.93-.575 2.498 2.498 0 0 0-4.945-.506 4.035 4.035 0 0 0-3.598 4.007v.013c-2.198.093-4.204.718-5.797 1.706a3.5 3.5 0 1 0-3.625 5.94c.116 4.065 4.544 7.334 9.992 7.334s9.882-3.273 9.993-7.34a3.502 3.502 0 0 0-1.502-6.664c-.802 0-1.541.27-2.132.725-1.607-.994-3.636-1.62-5.855-1.703v-.01a2.96 2.96 0 0 1 2.54-2.924zm-9.55 9.637c.058-1.27.901-2.244 1.882-2.244s1.73 1.03 1.671 2.299C8.996 15.539 8.264 16 7.282 16s-1.84-.517-1.782-1.786m11.134-2.244c.981 0 1.825.974 1.882 2.244.059 1.27-.801 1.786-1.781 1.786s-1.714-.46-1.773-1.731c-.058-1.27.69-2.3 1.672-2.3m-1.167 5.181c.184.02.301.21.23.381a3.998 3.998 0 0 1-7.38 0 .277.277 0 0 1 .23-.38 35 35 0 0 1 3.46-.17c1.217 0 2.381.06 3.46.17" class="cls-1" style="fill:#fff;stroke-width:0"/></svg>