<?xml version="1.0" encoding="UTF-8" standalone="no"?>
<svg
   role="img"
   viewBox="0 0 24 24"
   version="1.1"
   id="svg1"
   sodipodi:docname="reddit.svg"
   inkscape:version="1.4 (1:1.4+202410161351+e7c3feb100)"
   xmlns:inkscape="http://www.inkscape.org/namespaces/inkscape"
   xmlns:sodipodi="http://sodipodi.sourceforge.net/DTD/sodipodi-0.dtd"
   xmlns="http://www.w3.org/2000/svg"
   xmlns:svg="http://www.w3.org/2000/svg"
   xmlns:rdf="http://www.w3.org/1999/02/22-rdf-syntax-ns#"
   xmlns:cc="http://creativecommons.org/ns#"
   xmlns:dc="http://purl.org/dc/elements/1.1/">
  <defs
     id="defs1" />
  <sodipodi:namedview
     id="namedview1"
     pagecolor="#505050"
     bordercolor="#ffffff"
     borderopacity="1"
     inkscape:showpageshadow="0"
     inkscape:pageopacity="0"
     inkscape:pagecheckerboard="1"
     inkscape:deskcolor="#505050"
     inkscape:zoom="3.0364583"
     inkscape:cx="30.627787"
     inkscape:cy="-40.507719"
     inkscape:window-width="2560"
     inkscape:window-height="1368"
     inkscape:window-x="0"
     inkscape:window-y="0"
     inkscape:window-maximized="1"
     inkscape:current-layer="svg1" />
  <title
     id="title1">Reddit</title>
  <metadata
     id="metadata1">
    <rdf:RDF>
      <cc:Work
         rdf:about="">
        <dc:title>Reddit</dc:title>
      </cc:Work>
    </rdf:RDF>
  </metadata>
  <path
     class="cls-1"
     d="m 15.05125,4.577445 c 0.26002,1.1022 1.24978,1.92328 2.43162,1.92328 1.3798,0 2.49839,-1.11859 2.49839,-2.49839 0,-1.37979 -1.11859,-2.49839 -2.49839,-2.49839 -1.20644,0 -2.21259,0.85505 -2.44685,1.99239 -2.0205,0.21669 -3.59824,1.93031 -3.59824,4.00703 0,0.005 0,0.008 0,0.0129 C 9.24041,7.608765 7.23397,8.234275 5.641,9.221685 5.04949,8.763705 4.30688,8.490785 3.50103,8.490785 1.56721,8.490785 0,10.057995 0,11.991815 c 0,1.40322 0.8246,2.612 2.01582,3.17072 0.11595,4.06442 4.54465,7.33352 9.99238,7.33352 5.44773,0 9.88228,-3.27262 9.99239,-7.34055 C 23.18243,14.593275 24,13.388005 24,11.992985 c 0,-1.93382 -1.5672,-3.50102 -3.50102,-3.50102 -0.80235,0 -1.54144,0.27057 -2.13178,0.72503 -1.60702,-0.99443 -3.63572,-1.61991 -5.85534,-1.70307 0,-0.004 0,-0.006 0,-0.009 0,-1.48756 1.10571,-2.72211 2.53939,-2.92475 z m -9.55081,9.63631 c 0.0586,-1.26969 0.90191,-2.24422 1.88229,-2.24422 0.98038,0 1.73001,1.02958 1.67145,2.29927 -0.0586,1.26969 -0.79063,1.73119 -1.77219,1.73119 -0.98155,0 -1.84011,-0.51655 -1.78155,-1.78624 z m 11.13441,-2.24422 c 0.98155,0 1.82489,0.97453 1.88228,2.24422 0.0586,1.26969 -0.80117,1.78624 -1.78155,1.78624 -0.98038,0 -1.71362,-0.46032 -1.77218,-1.73119 -0.0586,-1.26969 0.6899,-2.29927 1.67145,-2.29927 z m -1.16662,5.18185 c 0.18389,0.0187 0.30102,0.20966 0.22957,0.38067 -0.60322,1.44188 -2.02752,2.45505 -3.6896,2.45505 -1.66208,0 -3.08521,-1.01317 -3.6896,-2.45505 -0.0714,-0.17101 0.0457,-0.36193 0.22957,-0.38067 1.0776,-0.10893 2.24305,-0.16867 3.46003,-0.16867 1.21699,0 2.38126,0.0597 3.46003,0.16867 z"
     id="path1-8"
     style="fill:#ffffff;stroke-width:0px" />
</svg>
