<?xml version="1.0" encoding="UTF-8" standalone="no"?>
<svg
   role="img"
   viewBox="0 0 24 16.91"
   version="1.1"
   id="svg1"
   width="24"
   height="16.91"
   xmlns="http://www.w3.org/2000/svg"
   xmlns:svg="http://www.w3.org/2000/svg"
   xmlns:rdf="http://www.w3.org/1999/02/22-rdf-syntax-ns#"
   xmlns:cc="http://creativecommons.org/ns#"
   xmlns:dc="http://purl.org/dc/elements/1.1/">
  <defs
     id="defs1" />
  <title
     id="title1">YouTube</title>
  <path
     fill="#ffffff"
     d="M 23.498,2.641 A 3.016,3.016 0 0 0 21.376,0.505 C 19.505,0 12,0 12,0 12,0 4.495,0 2.623,0.505 A 3.017,3.017 0 0 0 0.502,2.641 C 0,4.525 0,8.455 0,8.455 c 0,0 0,3.93 0.502,5.814 a 3.016,3.016 0 0 0 2.122,2.136 C 4.495,16.91 12,16.91 12,16.91 c 0,0 7.505,0 9.377,-0.505 a 3.015,3.015 0 0 0 2.122,-2.136 C 24,12.385 24,8.455 24,8.455 c 0,0 0,-3.93 -0.502,-5.814 z M 9.545,12.023 V 4.887 l 6.273,3.568 z"
     id="path1" />
  <metadata
     id="metadata1">
    <rdf:RDF>
      <cc:Work
         rdf:about="">
        <dc:title>YouTube</dc:title>
      </cc:Work>
    </rdf:RDF>
  </metadata>
</svg>
