<svg xmlns="http://www.w3.org/2000/svg" width="367.607" height="454.318" viewBox="0 0 97.263 120.205"><g style="fill:#3e3e3e;fill-opacity:1;stroke:#1a1a1a;stroke-width:1.13959;stroke-opacity:1" transform="matrix(.002 -.9889 .98796 .002 -477.224 617.742)"><path d="m612.862 565.391 8.795 3.55-8.83 3.55-9.733-3.992z" style="fill:#3e3e3e;fill-opacity:1;stroke:#1a1a1a;stroke-width:2.84896;stroke-opacity:1"/><path d="M505.935 566.652h102.091v4.599H505.935z" style="fill:#3e3e3e;fill-opacity:1;stroke:#1a1a1a;stroke-width:2.84896;stroke-dasharray:none;stroke-opacity:1"/><path d="m612.862 527.492 8.795 3.55-8.83 3.55-9.733-3.992z" style="fill:#3e3e3e;fill-opacity:1;stroke:#1a1a1a;stroke-width:2.84896;stroke-opacity:1"/><path d="M505.935 528.753h102.091v4.599H505.935z" style="fill:#3e3e3e;fill-opacity:1;stroke:#1a1a1a;stroke-width:2.84896;stroke-dasharray:none;stroke-opacity:1"/><path d="m611.288 489.593 8.796 3.55-8.83 3.55-9.734-3.993z" style="fill:#3e3e3e;fill-opacity:1;stroke:#1a1a1a;stroke-width:2.84896;stroke-opacity:1"/><path d="M505.935 490.854h102.091v4.599H505.935z" style="fill:#3e3e3e;fill-opacity:1;stroke:#1a1a1a;stroke-width:2.84896;stroke-dasharray:none;stroke-opacity:1"/><path d="M-578.597 584.298h95.089v4.599h-95.089zM-578.597 554.681h95.089v4.599h-95.089z" style="fill:#3e3e3e;fill-opacity:1;stroke:#1a1a1a;stroke-width:2.84896;stroke-dasharray:none;stroke-opacity:1" transform="rotate(-90)"/><circle cx="605.533" cy="568.952" r="3.314" style="fill:#3e3e3e;fill-opacity:1;stroke:#1a1a1a;stroke-width:2.84896;stroke-dasharray:none;stroke-opacity:1"/><circle cx="605.533" cy="531.053" r="3.314" style="fill:#3e3e3e;fill-opacity:1;stroke:#1a1a1a;stroke-width:2.84896;stroke-dasharray:none;stroke-opacity:1"/><circle cx="605.182" cy="493.154" r="3.314" style="fill:#3e3e3e;fill-opacity:1;stroke:#1a1a1a;stroke-width:2.84896;stroke-dasharray:none;stroke-opacity:1"/><path d="M565.372 495.453c4.072 11.593 12.373 9.116 15.893 18.503 3.04 8.104-8.965 16.267-16.3 11.682-1.317-1.11-3.906-4.94-5.685-4.822M566.704 567.034c4.072-11.593 12.373-9.117 15.893-18.503 3.04-8.104-8.965-16.267-16.3-11.682-1.317 1.11-3.906 4.939-5.685 4.822" style="fill:none;fill-opacity:1;stroke:#1a1a1a;stroke-width:4.55834;stroke-dasharray:none;stroke-opacity:1"/><path d="M-578.597 523.731h95.089v4.599h-95.089z" style="fill:#3e3e3e;fill-opacity:1;stroke:#1a1a1a;stroke-width:2.84896;stroke-dasharray:none;stroke-opacity:1" transform="rotate(-90)"/><path d="M534.422 495.453c4.072 11.593 12.374 9.116 15.894 18.503 3.039 8.104-8.965 16.267-16.301 11.682-1.316-1.11-3.905-4.94-5.684-4.822M535.755 567.034c4.072-11.593 12.373-9.117 15.893-18.503 3.039-8.104-8.965-16.267-16.301-11.682-1.316 1.11-3.905 4.939-5.684 4.822" style="fill:none;fill-opacity:1;stroke:#1a1a1a;stroke-width:4.55834;stroke-dasharray:none;stroke-opacity:1"/></g></svg>