<?xml version="1.0" encoding="UTF-8" standalone="no"?>
<!-- Created with Inkscape (http://www.inkscape.org/) -->

<svg
   width="20"
   height="20"
   viewBox="0 0 5.2916666 5.2916668"
   version="1.1"
   id="svg5"
   sodipodi:docname="player_icon.svg"
   inkscape:version="1.1.2 (0a00cf5339, 2022-02-04)"
   xmlns:inkscape="http://www.inkscape.org/namespaces/inkscape"
   xmlns:sodipodi="http://sodipodi.sourceforge.net/DTD/sodipodi-0.dtd"
   xmlns="http://www.w3.org/2000/svg"
   xmlns:svg="http://www.w3.org/2000/svg">
  <sodipodi:namedview
     id="namedview5"
     pagecolor="#505050"
     bordercolor="#ffffff"
     borderopacity="1"
     inkscape:pageshadow="0"
     inkscape:pageopacity="0"
     inkscape:pagecheckerboard="1"
     showgrid="false"
     inkscape:zoom="36.291667"
     inkscape:cx="10.029851"
     inkscape:cy="7.0264063"
     inkscape:window-width="2560"
     inkscape:window-height="1372"
     inkscape:window-x="0"
     inkscape:window-y="0"
     inkscape:window-maximized="1"
     inkscape:current-layer="svg5" />
  <defs
     id="defs2" />
  <g
     id="g826"
     transform="matrix(0.20408163,0,0,0.20408163,-0.10799297,0.05399685)">
    <path
       id="circle1956"
       style="fill:#ffffff;fill-opacity:1;stroke-width:5.625;stroke-linecap:round"
       d="M 51,0 A 45.000001,45.000001 0 0 0 6,45 45.000001,45.000001 0 0 0 9.9453125,63.369141 C 12.129715,62.487636 14.510618,62 17,62 c 10.446023,0 19.001953,8.555929 19.001953,19.001953 0,2.07627 -0.339269,4.076647 -0.962891,5.951172 A 45.000001,45.000001 0 0 0 51,90 45.000001,45.000001 0 0 0 66.994141,87.044922 c -0.643371,-1.901036 -0.992188,-3.932625 -0.992188,-6.042969 0,-10.446024 8.553979,-19.001953 19,-19.001953 2.48616,0 4.86479,0.485894 7.046875,1.365234 A 45.000001,45.000001 0 0 0 96,45 45.000001,45.000001 0 0 0 51,0 Z M 17,70.001953 c -1.056556,0 -2.073423,0.148133 -3.037109,0.419922 A 45.000001,45.000001 0 0 0 27.732422,83.433594 C 27.9056,82.652067 28,81.839393 28,81.001953 c 0,-6.122506 -4.877492,-11 -11,-11 z m 68.001953,0 c -6.122506,0 -10.998047,4.877494 -10.998047,11 0,0.854272 0.09733,1.682621 0.277344,2.478516 A 45.000001,45.000001 0 0 0 88.113281,70.443359 C 87.128276,70.15824 86.085044,70.001953 85.001953,70.001953 Z"
       transform="scale(0.26458334)" />
    <path
       style="color:#000000;fill:#ffffff;stroke-width:2.11667;stroke-linecap:round;-inkscape-stroke:none"
       d="m 26.458333,21.431248 a 3.9687514,3.96875 0 0 1 -3.968751,3.96875 3.9687514,3.96875 0 0 1 -3.968751,-3.96875 3.9687514,3.96875 0 0 1 3.968751,-3.96875 3.9687514,3.96875 0 0 1 3.968751,3.96875 z"
       id="path1679" />
    <path
       style="color:#000000;fill:#ffffff;stroke-width:2.11667;stroke-linecap:round;-inkscape-stroke:none"
       d="m 8.4666681,21.431248 a 3.9687514,3.96875 0 0 1 -3.9687514,3.96875 3.9687514,3.96875 0 0 1 -3.96875143,-3.96875 3.9687514,3.96875 0 0 1 3.96875143,-3.96875 3.9687514,3.96875 0 0 1 3.9687514,3.96875 z"
       id="path1688" />
  </g>
</svg>
