<svg xmlns="http://www.w3.org/2000/svg" width="265.312" height="220.812" viewBox="0 0 140.394 116.847"><path d="m3147.427 1317.766-6.102 8.718 2.615 6.757 15.693-3.051-3.052-4.36 2.616-5.448zM3183.613 1307.557l11.804 11.308-5.73 1.57 3.541 7.016-1.042 10.224-24.395-23.37 4.905-4.489zM3188.838 1300.112l-3.269 4.141h2.397l6.103-3.487-.218-8.936zM3144.812 1307.087l-3.27 6.102h6.757l3.27-2.833zM3172.492 1331.497l-6.975 3.705.872 1.962h10.462l.654-6.538z" style="fill:#273140;fill-opacity:1;stroke:#171717;stroke-width:2.3;stroke-linecap:round;stroke-linejoin:round;stroke-dasharray:none;stroke-opacity:1" transform="translate(-3103.802 -1290.68)"/><path d="M3205.059 1257.622h8.064v4.577zM3238.231 1274.934l-8.591 2.326 13.557 6.503 11.209-2.987 7.462 7.222 7.227-.104.714 9.443 37.501 17.181 10.804-3.693-7.855-6.099 7.682-2.652-75.793-36.357-5.34 2.592zM3285.809 1268.332l-1.556 11.062h15.728l-3.284-3.457 7.086-12.27-17.283-2.939-6.74 6.395zM3252.633 1306.4l-4.148 4.321 1.21.519 6.74.173v-3.111h7.26l-11.926-8.815zM3183.81 1305.406l13.644-12.738 4.818 2.122 1.912-2.258 4.364 4.675-2.352-13.41 4.421-4.128 7.313 7.832.11 3.917 5.778-.902.76 9.931 2.309 3.992 11.573 1.254-4.69 11.945-12.886 12.03-2.409-1.06 1.363-11.204-12.76 11.912-16.158-17.307-7.058 6.116-3.126-5.12zM3190.388 1259.328l-2.218 6.604-8.15 2.075 11.453 14.471-1.118-13.26 7.75-.654-1.081-4.592 8.61-.726z" style="fill:#273140;fill-opacity:1;stroke:#171717;stroke-width:2.3;stroke-linecap:round;stroke-linejoin:round;stroke-dasharray:none;stroke-opacity:1" transform="translate(-3178.87 -1213.972)"/></svg>