<svg xmlns="http://www.w3.org/2000/svg" width="77.949" height="68.841" viewBox="0 0 20.624 18.214"><path d="M.918 11.414c.278-.522 1.786-1.962 2.111-1.759.315.198-.07 2.342-.347 2.865-.86 1.614-2.622.51-1.764-1.106Z" style="fill:#463527;fill-opacity:1;fill-rule:evenodd;stroke:#30251b;stroke-width:.378352;stroke-linejoin:round;stroke-opacity:1"/><path fill="none" d="M4.57 6.609C5.791 3.632 8.91-.411 12.445.868c1.322.48.555 3.302.826 4.186.96 3.128 8.503.704 6.334 7.295-1.244 3.782-6.771 4.254-7.986.299" style="fill:#ef9c3f;fill-opacity:0;fill-rule:evenodd;stroke:#5c563e;stroke-width:1.25949;stroke-linecap:round;stroke-linejoin:round;stroke-dasharray:none;stroke-opacity:1"/><path d="M13.546.792c-.472.18-1.116.666-1.49 1.203a1.88 2.2 0 0 0-.378-.371c-.28.597-.373 2.032.452 1.831l.01.006q.003.035.012.071c.301 1.044 1.677.064 2.104-.611V2.92a2.5 2.5 0 0 0-.884-.234c.208-.608.262-1.39.174-1.894z" style="fill:#2e2b1f;fill-opacity:1;stroke-width:.100335"/><path d="M20.221 1.713h-.001c-.578-.202-1.515-.203-2.217.086a2.62 3.067 0 0 0-.145-.75c-.644.44-1.622 1.992-.682 2.475l.007.014q-.02.042-.032.092c-.345 1.446 1.62 1.516 2.46 1.116a4 4 0 0 0-.73-1.028c.58-.513 1.116-1.357 1.34-2.004z" style="fill:#2e2b1f;fill-opacity:1;stroke-width:.129165"/><path d="M0 3.195c.321.994 1.191 2.35 2.149 3.137-.275.26-.51.541-.664.796v.002c1.068.586 3.63.782 3.272-.954l.01-.02c.04-.007.084-.01.127-.025 1.863-.635.114-3.531-1.092-4.43H3.8c-.207.473-.366 1.163-.418 1.861-1.085-.437-2.484-.551-3.38-.367L0 3.193z" style="fill:#2e2b1f;fill-opacity:1;stroke-width:.194526"/><path d="M18.528 16.063c.472-.18 1.117-.667 1.49-1.204.124.155.258.286.379.372.28-.597.372-2.032-.453-1.832l-.01-.006q-.003-.034-.011-.07c-.302-1.044-1.678-.065-2.104.611a2.5 2.5 0 0 0 .883.235c-.208.607-.262 1.39-.174 1.893z" style="fill:#2e2b1f;fill-opacity:1;stroke-width:.100335"/><path d="M11.888 9.937c-.523.207-2.531.258-2.66-.125-.123-.37 1.441-1.745 1.963-1.952 1.614-.636 2.31 1.44.697 2.077zm-2.985 6.69c0-.604.643-2.67 1.018-2.67.364 0 1.018 2.066 1.018 2.67 0 1.864-2.036 1.864-2.036 0z" style="fill:#463527;fill-opacity:1;fill-rule:evenodd;stroke:#30251b;stroke-width:.378352;stroke-linejoin:round;stroke-opacity:1"/><path d="M9.19 11.038C7.736 9.091 7.028 9.03 5.58 8.785c-1.351 1.45-1.298 3.831-.197 4.501 1.988-.51 3.138-.509 3.806-2.247Z" style="fill:#654646;fill-opacity:1;stroke:#2d1f1f;stroke-width:.464637;stroke-linejoin:round;stroke-dasharray:none;stroke-opacity:1"/><path d="M.664 15.803a.53.53 0 0 1 .151-.691c.615-.414 1.064-.618 1.456-.683.32-.053.646.011.934.184.208.129.296.201.34.212.042.011.122.03.409-.143.22-.134.499-.045.62.197a.53.53 0 0 1-.18.682c-.397.24-.757.32-1.061.24-.304-.078-.47-.247-.579-.314-.108-.068-.149-.097-.348-.064-.2.032-.556.17-1.113.545-.215.145-.497.07-.629-.165" style="color:#000;fill:#5c563e;fill-opacity:1;fill-rule:evenodd;stroke:#3d3929;stroke-width:.559248;stroke-linecap:round;stroke-linejoin:round;stroke-dasharray:none;stroke-opacity:1"/><path d="M17.515 8.156a.286.39 5.01 0 0 .264.4c.45.017.755-.036.991-.158.236-.124.393-.346.476-.52s.114-.26.135-.287c.021-.025.06-.071.266-.077a.286.39 5.01 0 0 .297-.396.286.39 5.01 0 0-.277-.382c-.285.007-.507.107-.657.289s-.198.366-.242.457-.058.128-.179.191c-.12.063-.355.12-.764.105a.286.39 5.01 0 0-.31.378" style="color:#000;fill:#5c563e;fill-opacity:1;fill-rule:evenodd;stroke:#3d3929;stroke-width:.38976;stroke-linecap:round;stroke-linejoin:round;stroke-dasharray:none;stroke-opacity:1"/><path d="M11.3 6.995a.504.456 82.748 0 0-.028-.712c-.531-.551-.935-.858-1.308-1.013a1.567 1.834 0 0 0-.947-.041c-.225.076-.324.126-.368.128-.045 0-.125 0-.376-.239a.504.456 82.748 0 0-.643.047.504.456 82.748 0 0 .059.71c.348.33.687.494.998.488s.503-.132.621-.172.163-.06.353.02c.19.078.514.298.995.797a.504.456 82.748 0 0 .645-.013" style="color:#000;fill:#5c563e;fill-opacity:1;fill-rule:evenodd;stroke:#3d3929;stroke-width:.559248;stroke-linecap:round;stroke-linejoin:round;stroke-dasharray:none;stroke-opacity:1"/><path d="M16.462 8.697c-2.182.816-2.479 1.517-3.185 2.912.793 1.873 2.872 2.633 3.829 1.74.239-2.203.632-3.375-.644-4.652z" style="fill:#654646;fill-opacity:1;stroke:#2d1f1f;stroke-width:.464637;stroke-linejoin:round;stroke-dasharray:none;stroke-opacity:1"/></svg>