<?xml version="1.0" encoding="UTF-8" standalone="no"?>
<!-- Created with Inkscape (http://www.inkscape.org/) -->

<svg
   width="142.23489"
   height="151.77763"
   viewBox="0 0 37.632983 40.157832"
   version="1.1"
   id="svg5"
   sodipodi:docname="river_rock_residue.svg"
   inkscape:version="1.3.2 (091e20e, 2023-11-25, custom)"
   xmlns:inkscape="http://www.inkscape.org/namespaces/inkscape"
   xmlns:sodipodi="http://sodipodi.sourceforge.net/DTD/sodipodi-0.dtd"
   xmlns="http://www.w3.org/2000/svg"
   xmlns:svg="http://www.w3.org/2000/svg"
   xmlns:rdf="http://www.w3.org/1999/02/22-rdf-syntax-ns#"
   xmlns:cc="http://creativecommons.org/ns#"
   xmlns:dc="http://purl.org/dc/elements/1.1/">
  <sodipodi:namedview
     id="namedview12"
     pagecolor="#505050"
     bordercolor="#ffffff"
     borderopacity="1"
     inkscape:pageshadow="0"
     inkscape:pageopacity="0"
     inkscape:pagecheckerboard="1"
     inkscape:document-units="px"
     showgrid="false"
     units="px"
     inkscape:zoom="2.8284271"
     inkscape:cx="65.584154"
     inkscape:cy="101.29305"
     inkscape:window-width="1920"
     inkscape:window-height="1001"
     inkscape:window-x="-9"
     inkscape:window-y="-9"
     inkscape:window-maximized="1"
     inkscape:current-layer="g3335"
     inkscape:showpageshadow="false"
     inkscape:deskcolor="#505050" />
  <defs
     id="defs2" />
  <g
     id="layer1"
     transform="matrix(1.75,0,0,1.75,-233.74815,-337.62193)">
    <g
       id="g3335"
       transform="translate(-0.26415541,-0.25629137)">
      <g
         id="g24">
        <g
           id="g21">
          <path
             id="path10556"
             style="fill:#585a66;fill-opacity:1;stroke:#333333;stroke-width:0;stroke-linejoin:round"
             d="m 149.16544,194.38005 c 1.54076,1.29498 0.14054,2.67736 -0.2113,4.56959 -0.63427,1.89348 -3.24994,1.88457 -4.46508,0.99438 -1.62363,-1.18942 -1.74299,-3.5903 -0.45163,-5.12675 1.29135,-1.53646 3.58723,-1.7322 5.12801,-0.43722 z"
             sodipodi:nodetypes="scscs" />
          <path
             id="path10556-45"
             style="fill:#3f414a;fill-opacity:1;stroke:#333333;stroke-width:0;stroke-linejoin:round"
             d="m 149.16544,194.38005 c 1.54076,1.29498 0.46815,0.65702 0.39067,2.70316 -0.63427,1.89348 -0.60333,-0.98325 -1.81849,-1.87344 -1.6236,-1.18943 -4.14185,0.13299 -2.8505,-1.40347 1.75586,-0.27843 2.73754,-0.72123 4.27832,0.57375 z"
             sodipodi:nodetypes="scscs" />
          <path
             id="path10556-4"
             style="fill:#707381;fill-opacity:1;stroke:#333333;stroke-width:0;stroke-linejoin:round"
             d="m 145.42785,198.88306 c 1.54077,1.29497 3.05094,0.92575 2.23275,1.55873 -0.67834,0.2158 -1.67592,0.0538 -3.17154,-0.49777 -1.05156,-1.3272 -1.15559,-1.31957 -1.29884,-2.94568 0.84721,-2.18107 0.69715,0.5894 2.23792,1.88438 z"
             sodipodi:nodetypes="scccss" />
          <path
             id="path10556-7"
             style="fill:#9a9a9a;fill-opacity:0;stroke:#33334b;stroke-width:0.681914;stroke-linejoin:round;stroke-dasharray:none;stroke-opacity:1"
             d="m 149.16544,194.38005 c 1.54076,1.29498 0.14054,2.67736 -0.2113,4.56959 -0.63427,1.89348 -3.24994,1.88457 -4.46508,0.99438 -1.62363,-1.18942 -1.74299,-3.5903 -0.45163,-5.12675 1.29135,-1.53646 3.58723,-1.7322 5.12801,-0.43722 z"
             sodipodi:nodetypes="scscs" />
        </g>
        <g
           id="path21"
           transform="translate(-8.2848496,-1.8529095)">
          <path
             style="color:#000000;fill:#9a9a9a;fill-opacity:0;stroke-linejoin:round;-inkscape-stroke:none"
             d="m 157.7732,196.33836 c 1.54076,1.29498 0.14054,2.67736 -0.2113,4.56959 -0.63427,1.89348 -3.24994,1.88457 -4.46508,0.99438 -1.62363,-1.18942 -1.74299,-3.5903 -0.45163,-5.12675 1.29135,-1.53646 3.58723,-1.7322 5.12801,-0.43722 z"
             id="path22" />
          <path
             style="color:#000000;fill:#441100;fill-opacity:0.88627452;stroke-linejoin:round;-inkscape-stroke:none"
             d="m 154.76307,195.05053 c -1.01564,0.0866 -1.99605,0.55948 -2.70117,1.39844 -1.41058,1.6783 -1.28389,4.30712 0.50976,5.62109 0.70122,0.5137 1.72478,0.745 2.69922,0.60938 0.97444,-0.13562 1.92899,-0.69074 2.29102,-1.77149 0.005,-0.0147 0.009,-0.0297 0.0117,-0.0449 0.16379,-0.88086 0.59302,-1.67898 0.81055,-2.48242 0.10877,-0.40172 0.16225,-0.81668 0.0644,-1.23437 -0.0978,-0.4177 -0.35176,-0.81645 -0.77929,-1.17579 -0.84072,-0.7066 -1.89062,-1.00654 -2.90625,-0.91992 z"
             id="path23"
             sodipodi:nodetypes="cccsscscccc" />
        </g>
      </g>
      <g
         id="path15"
         transform="translate(3.6714273,-13.231829)">
        <g
           id="g33"
           transform="translate(0.34772744,1.7440196)">
          <g
             id="g32"
             transform="translate(-3.049835,13.956679)">
            <g
               id="g31">
              <g
                 id="g30">
                <g
                   id="g29">
                  <g
                     id="g15">
                    <path
                       id="path5"
                       style="fill:#585a66;fill-opacity:1;stroke:#333333;stroke-width:0;stroke-linejoin:round"
                       d="m 138.59419,206.53135 c 1.7173,-1.04966 2.58336,0.71713 4.26585,1.65177 1.59396,1.20283 0.75472,3.68023 -0.47533,4.5497 -1.64354,1.16177 -3.958,0.51236 -5.00473,-1.20013 -1.04672,-1.7125 -0.50311,-3.95167 1.21421,-5.00134 z"
                       sodipodi:nodetypes="scscs" />
                    <path
                       id="path6"
                       style="fill:#3f414a;fill-opacity:1;stroke:#333333;stroke-width:0;stroke-linejoin:round"
                       d="m 138.59419,206.53135 c 1.7173,-1.04966 0.77169,-0.23523 2.68727,0.48815 1.59396,1.20283 -1.12397,0.25978 -2.35402,1.12927 -1.64354,1.16173 -1.18946,3.96962 -2.23619,2.25712 0.29369,-1.75337 0.18562,-2.82487 1.90294,-3.87454 z"
                       sodipodi:nodetypes="scscs" />
                    <path
                       id="path7"
                       style="fill:#707381;fill-opacity:1;stroke:#333333;stroke-width:0;stroke-linejoin:round"
                       d="m 141.67687,211.50565 c 1.7173,-1.04966 1.84687,-2.59891 2.18719,-1.62203 -0.0108,0.71176 -0.48127,1.60623 -1.47935,2.8492 -1.59248,0.57555 -1.61828,0.67663 -3.20569,0.29597 -1.79904,-1.4961 0.78032,-0.47385 2.49762,-1.52351 z"
                       sodipodi:nodetypes="scccss" />
                    <path
                       id="path8"
                       style="fill:#9a9a9a;fill-opacity:0;stroke:#33334b;stroke-width:0.681914;stroke-linejoin:round;stroke-dasharray:none;stroke-opacity:1"
                       d="m 138.59419,206.53135 c 1.7173,-1.04966 2.58336,0.71713 4.26585,1.65177 1.59396,1.20283 0.75472,3.68023 -0.47533,4.5497 -1.64354,1.16177 -3.958,0.51236 -5.00473,-1.20013 -1.04672,-1.7125 -0.50311,-3.95167 1.21421,-5.00134 z"
                       sodipodi:nodetypes="scscs" />
                  </g>
                </g>
              </g>
            </g>
          </g>
          <path
             style="color:#000000;fill:#441100;fill-opacity:0.88627452;stroke:none;stroke-linejoin:round;-inkscape-stroke:none"
             d="m 136.72969,219.83178 c -0.42713,-0.0399 -0.88676,0.074 -1.36329,0.36523 -1.87408,1.1455 -2.46927,3.60055 -1.32617,5.4707 1.14337,1.8706 3.67654,2.5842 5.49219,1.30079 0.70982,-0.50175 1.25268,-1.40014 1.43359,-2.36719 0.18091,-0.96706 -0.0414,-2.04784 -0.95117,-2.73438 -0.0124,-0.009 -0.0255,-0.0178 -0.0391,-0.0254 -0.78323,-0.43509 -1.40296,-1.09517 -2.0957,-1.55664 -0.34638,-0.23073 -0.72327,-0.41319 -1.15039,-0.45312 z"
             id="path17"
             sodipodi:nodetypes="ccccsccccccc" />
        </g>
      </g>
      <g
         id="g23"
         transform="translate(-0.76053431,0.01124655)">
        <g
           id="g1"
           transform="matrix(0.54819665,1.1291586,-1.1311986,0.54918705,298.82953,-63.316929)"
           style="stroke-width:0.795969">
          <path
             id="rect790"
             style="fill:#707381;fill-opacity:1;stroke:#333333;stroke-width:0;stroke-linecap:butt;stroke-linejoin:round;stroke-dasharray:none"
             d="m 131.32327,204.32101 3.4083,1.07845 1.00985,4.20827 -4.36921,-1.01962 c 0,0 -0.82033,-4.51119 -0.0489,-4.2671 z"
             sodipodi:nodetypes="scccs" />
          <path
             id="rect790-3"
             style="fill:#585a66;fill-opacity:1;stroke:#333333;stroke-width:0;stroke-linecap:butt;stroke-linejoin:round;stroke-dasharray:none"
             d="m 134.73157,205.39946 1.00985,4.20827 -4.36921,-1.01962 0.83521,-2.54493 z"
             sodipodi:nodetypes="ccccc" />
          <path
             id="rect790-3-7"
             style="fill:#3f414a;fill-opacity:1;stroke:#333333;stroke-width:0;stroke-linecap:butt;stroke-linejoin:round;stroke-dasharray:none"
             d="m 135.2365,207.50359 0.50492,2.10414 -2.1846,-0.50981 0.30918,-1.20859 z"
             sodipodi:nodetypes="ccccc" />
          <path
             id="rect790-2"
             style="fill:#676767;fill-opacity:0;stroke:#33334b;stroke-width:0.473652;stroke-linecap:butt;stroke-linejoin:round;stroke-dasharray:none;stroke-opacity:1"
             d="m 131.32327,204.32101 3.4083,1.07845 c 0,0 1.14063,4.08559 1.00985,4.20827 -0.13077,0.12268 -4.36921,-1.01962 -4.36921,-1.01962 0,0 -0.55766,-4.2671 -0.0489,-4.2671 z"
             sodipodi:nodetypes="sczcss" />
        </g>
        <path
           style="color:#000000;fill:#441100;fill-opacity:0.88627452;stroke-linejoin:round;-inkscape-stroke:none"
           d="m 139.65334,196.81935 c -0.10698,-0.0216 -0.20022,-0.013 -0.29687,0.004 -0.19331,0.0338 -0.40607,0.11124 -0.64844,0.21484 -0.48474,0.2072 -1.0803,0.52852 -1.66797,0.86719 -1.17534,0.67733 -2.31055,1.42383 -2.31055,1.42383 -0.10067,0.0661 -0.15156,0.1864 -0.1289,0.30469 0,0 0.25814,1.35406 0.54297,2.7207 0.14241,0.68332 0.29211,1.36947 0.41992,1.89453 0.0639,0.26253 0.12199,0.48343 0.17383,0.65039 0.0259,0.0835 0.0493,0.1529 0.0762,0.21484 0.0134,0.031 0.0262,0.0607 0.0488,0.0957 0.0226,0.035 0.0389,0.0901 0.16601,0.13867 0.12803,0.0488 0.18502,0.017 0.22656,0.004 0.0416,-0.0131 0.0717,-0.0292 0.10157,-0.0449 0.0597,-0.0314 0.11751,-0.0691 0.1875,-0.11718 0.13997,-0.0961 0.31662,-0.23051 0.52148,-0.39258 0.40973,-0.32414 0.93123,-0.75769 1.44531,-1.19531 1.02816,-0.87525 2.0293,-1.75977 2.0293,-1.75977 0.0746,-0.0668 0.11051,-0.16662 0.0957,-0.26563 l -0.64843,-4.4414 v 0 l -0.0252,-0.0879 v 0 c -0.0629,-0.12961 -0.2018,-0.2071 -0.30879,-0.22871 z"
           id="path14"
           sodipodi:nodetypes="ccscccccccsccccccccccccc" />
      </g>
      <g
         id="path18"
         transform="matrix(-0.45816124,1.1685919,-1.1707031,-0.458989,446.36603,149.31259)">
        <g
           id="g28">
          <g
             id="g27"
             transform="matrix(-0.29080027,-0.74038122,0.74171881,-0.29027583,19.500603,372.06569)">
            <g
               id="g26">
              <g
                 id="g25">
                <g
                   id="g18">
                  <path
                     id="path1"
                     style="fill:#707381;fill-opacity:1;stroke:#333333;stroke-width:0;stroke-linecap:butt;stroke-linejoin:round;stroke-dasharray:none"
                     d="m 153.18164,204.85523 -2.8241,3.48791 -5.38931,-0.75145 3.19548,-4.63783 c 0,0 5.6571,1.11196 5.01791,1.90141 z"
                     sodipodi:nodetypes="scccs" />
                  <path
                     id="path2"
                     style="fill:#585a66;fill-opacity:1;stroke:#333333;stroke-width:0;stroke-linecap:butt;stroke-linejoin:round;stroke-dasharray:none"
                     d="m 150.35754,208.34314 -5.38931,-0.75145 3.19548,-4.63783 2.59669,2.14412 z"
                     sodipodi:nodetypes="ccccc" />
                  <path
                     id="path3"
                     style="fill:#3f414a;fill-opacity:1;stroke:#333333;stroke-width:0;stroke-linecap:butt;stroke-linejoin:round;stroke-dasharray:none"
                     d="m 147.66289,207.96743 -2.69466,-0.37574 1.59774,-2.31891 1.27324,0.91604 z"
                     sodipodi:nodetypes="ccccc" />
                  <path
                     id="path4"
                     style="fill:#676767;fill-opacity:0;stroke:#33334b;stroke-width:0.595063;stroke-linecap:butt;stroke-linejoin:round;stroke-dasharray:none;stroke-opacity:1"
                     d="m 153.18164,204.85523 -2.8241,3.48791 c 0,0 -5.3056,-0.54231 -5.38931,-0.75145 -0.0837,-0.20912 3.19548,-4.63783 3.19548,-4.63783 0,0 5.251,1.30688 5.01791,1.90141 z"
                     sodipodi:nodetypes="sczcss" />
                </g>
              </g>
            </g>
          </g>
          <path
             style="color:#000000;fill:#441100;fill-opacity:0.88627452;stroke-linejoin:round;-inkscape-stroke:none"
             d="m 126.89981,198.95041 c -0.11457,0 -0.21876,0.0716 -0.27149,0.14063 -0.0527,0.0691 -0.0781,0.13978 -0.0996,0.21484 -0.043,0.15012 -0.0622,0.32771 -0.0723,0.53711 -0.0202,0.4188 0.003,0.95608 0.041,1.49414 0.0765,1.07612 0.2168,2.14844 0.2168,2.14844 0.0128,0.0948 0.0814,0.17266 0.17383,0.19726 0,0 1.06011,0.28575 2.13867,0.55664 0.53928,0.13545 1.08314,0.26846 1.50391,0.35938 0.21038,0.0455 0.38967,0.0807 0.52734,0.10156 0.0688,0.0104 0.12598,0.0172 0.17969,0.0195 0.0268,0.001 0.053,0.002 0.0859,-0.002 0.0329,-0.004 0.0772,0.004 0.15625,-0.0703 0.0795,-0.0746 0.0769,-0.12779 0.082,-0.16211 0.005,-0.0343 0.005,-0.0591 0.004,-0.0859 -0.002,-0.0536 -0.009,-0.11096 -0.0195,-0.17773 -0.0202,-0.13356 -0.0547,-0.30496 -0.0996,-0.50782 -0.0897,-0.40571 -0.2207,-0.92945 -0.35547,-1.44921 -0.26954,-1.03954 -0.55469,-2.0625 -0.55469,-2.0625 -0.0214,-0.0769 -0.0802,-0.13787 -0.15625,-0.16211 l -3.4082,-1.07813 c -0.0724,-0.0118 -0.0462,-0.008 -0.0724,-0.0118 z"
             id="path20"
             sodipodi:nodetypes="ccsscccccccsccscccccccc" />
        </g>
      </g>
    </g>
  </g>
  <metadata
     id="metadata9389">
    <rdf:RDF>
      <cc:Work
         rdf:about="">
        <dc:creator>
          <cc:Agent>
            <dc:title>Radians</dc:title>
          </cc:Agent>
        </dc:creator>
      </cc:Work>
    </rdf:RDF>
  </metadata>
</svg>
