<svg xmlns="http://www.w3.org/2000/svg" width="100" height="111.422" viewBox="0 0 26.458 29.48"><g transform="translate(-116.681 -135.996)"><path d="M139.602 136.433c-1.77-.091-2.992 1.695-3.3 2.246-.38.677-1.275.216-1.275.216-2.44-1.138-4.04-.705-4.555-.406-.451.26-.762.123-2.07-.347-1.306-.47-3.8.851-4.26.967s-.623-.202-.623-.202-.68-1.237-1.035-1.658c-.355-.422-1.41-.882-2.378-.71-.25.045-.482.125-.691.22-.621.272-1.038.676-1.038.676s-1.677 1.372-1.169 3.845c0 0 .153 1.006 1.476 2.885 0 0-3.125 6.078.02 13.747 0 0 1.925 2.567 5.016 3.841s5.622 3.29 5.622 3.29c.01-.006 4.633-2.669 8.45-4.456 3.824-1.79 4.014-5.694 4.014-5.694 1.112-6.941-1.058-10.032-1.058-10.032-.162-.651-.244-.38.217-.814s1.41-2.305 1.41-2.305c.244-.406.97-2.145-1.03-4.365-.428-.475-1.334-.923-1.743-.944" style="display:inline;fill:#404040;fill-opacity:1;fill-rule:evenodd;stroke:#262626;stroke-width:.867671;stroke-linecap:round;stroke-linejoin:round;stroke-miterlimit:10;stroke-dasharray:none;stroke-opacity:1"/><circle cx="125.05" cy="146.877" r=".315" style="display:inline;fill:#4d4d4d;fill-opacity:1;fill-rule:evenodd;stroke:#4d4d4d;stroke-width:.216918;stroke-linecap:round;stroke-linejoin:round;stroke-miterlimit:10;stroke-dasharray:none;stroke-opacity:1"/><circle cx="133.7" cy="146.877" r=".315" style="display:inline;fill:#4d4d4d;fill-opacity:1;fill-rule:evenodd;stroke:#4d4d4d;stroke-width:.216918;stroke-linecap:round;stroke-linejoin:round;stroke-miterlimit:10;stroke-dasharray:none;stroke-opacity:1"/><path d="M138.666 136.866c-.745.003-1.735 1.645-2.935 2.583-1.28 1 .08.92.08.92 4.242 2.44 4.802 7.483 4.802 8.243s-.6 1-.6 1c.28 1.922-1.32 5.203-1.841 6.003s-.64 0-.16-.68.16-2.961-.4-1.44-.32.16-1.321.08-2.681 2.3-3.181 2.72-1.281.98-1.761 1.04-.84-.3-.84-.64 1.4-.48 1.92-.76.18-.6-.58-.52-1.1-.34-1.1-.54.46-.26.46-.26l-.72-.48c.18.12.28-.08.8-.64s.64-2.702.56-2.322-.24.42-.24.42-.46-.9-1.5-.82-.741-1.28-.881-.52-1 .42-1.36.14.68-.74-.04-.58-.56.5-1.081.92-.08 1.6-.08 1.6l-.24.34s-.26-1.24-.6-.98-.12 1.561-.12 1.561.72 1.541-.02 1.761-.58.24-.54-.14-.701-1.98-.701-1.98c.76-.701.8-1.601.8-1.601.6-4.802 2.662-5.343 2.181-5.423s-.68.08-.68.08c-.7.12-.948-.693-1.882-.835-.823-.124-3.14 3.556-4.333 3.21-.323-.094-.176-.605-.533-.918-.573-.502-.934 1.67-.934 1.557 0-.114-.141-.633-.141-.633-.08-4.762 3.08-7.203 4.561-7.843s.801-.68.4-.84c-.4-.16-1.72-2.321-1.72-2.321-3.241-.28-4.842 2.72-4.842 2.72.041 3.648 1.374 4.22 1.374 4.22l-1.189 5.206c1.019 7.753 3.056 10.243 3.056 10.243l8.999 5.093 8.469-4.393s1.1-1.46 1.32-1.66.16-2.302.3-2.542.12.78.4.58.861-4.822 1.401-4.541-.54-1.22.04-1.2.08-.581-.22-.941-.62-1.24-.24-.96.62.34.48-.02-.5-.82-.6-1.12-.18-.921-.18-.921l.16-2.321s1-2.561 1.24-4.442c.24-1.88-2.56-3.201-3.32-3.441a.5.5 0 0 0-.147-.023m-9.396 2.187c-.148.006-.333.167-.642.666 0 0 .46.17 1.06.22s1.31-.11 1.13-.4-.33-.52-.86-.1c0 0-.18-.04-.41-.24-.093-.082-.177-.15-.278-.146m.762 1.268c-.24-.001-.54.087-.864.288 0 0 .02.4.34.47s.45.29.6.3 1.27-.16 1.07-.43-.57.21-.61-.23c-.022-.247-.228-.397-.536-.398m3.31 4.587c-.117-.021-.392.395-.663.553-.36.21-.84.43-1.43 0s-.49.06-.49.06 1.39 2.771 3.08 2.801c0 0 .501.19.651-.65s.99-.18.79.26-.76 1.1-1.41 1.02-.91.04-.65.77c.26.731.81 1.702 1.14 1.411s.69-1.63 1.16-1.85 1.111-.01 1.371-.58-1.04-1.611-.89-1.821.38-.39-.21-.98c-.59-.591-.82-.601-.73-.46s.74 2.13.17 1.7-.68-.97-1.061-1.13-.78-.39-.77-.911c.002-.13-.019-.186-.058-.193" style="display:inline;fill:#252525;fill-opacity:1;fill-rule:evenodd;stroke:none;stroke-width:.216918;stroke-linecap:round;stroke-linejoin:round;stroke-miterlimit:10;stroke-dasharray:none;stroke-opacity:1"/><circle cx="124.931" cy="146.877" r=".315" style="display:inline;fill:#4d4d4d;fill-opacity:1;fill-rule:evenodd;stroke:#4d4d4d;stroke-width:.216918;stroke-linecap:round;stroke-linejoin:round;stroke-miterlimit:10;stroke-dasharray:none;stroke-opacity:1"/><circle cx="133.581" cy="146.877" r=".315" style="display:inline;fill:#4d4d4d;fill-opacity:1;fill-rule:evenodd;stroke:#4d4d4d;stroke-width:.216918;stroke-linecap:round;stroke-linejoin:round;stroke-miterlimit:10;stroke-dasharray:none;stroke-opacity:1"/></g></svg>