<svg xmlns="http://www.w3.org/2000/svg" width="517.575" height="858.962" viewBox="0 0 136.942 227.266"><path d="M1.239 2.136v223.481h134.465V2.137Zm47.978 9.863 15.172 2.965 5.141 15.027-18.783-11.662zm15.024 86.692 32.177 10.685-22.598.736-13.755 6.018-14-2.088zm-42.178 70.044 20.148 7.12-5.385 18.064 5.037 6.079-13.026 12.331-6.774-18.41 5.385-14.416z" style="fill:#405f3a;fill-opacity:1;stroke:#1f2d1a;stroke-width:1.00348;stroke-linejoin:round;stroke-dasharray:none;stroke-opacity:1;stop-color:#000"/><path d="M.613 1.803H136.33v5.309H.613Zm0 12.851v5.31h52.625l-2.633-1.635-.888-3.675zm62.051 0 1.583.31 1.71 5h70.373v-5.31zM.613 27.689v5.31H136.33v-5.31H68.601l.788 2.302-3.708-2.302zm0 13.044H136.33v5.31H.613Zm0 12.852H136.33v5.31H.613Zm0 13.035H136.33v5.31H.613Zm0 12.43H136.33v5.309H.613Zm0 12.852H136.33v5.31H.613Zm0 13.035v5.309h49.805l6.286-5.31zm82.296 0 13.368 4.438-22.598.738-.305.134h62.956v-5.31zM.613 117.98H136.33v5.31H.613Zm0 12.853H136.33v5.31H.613Zm0 13.035H136.33v5.309H.613Zm0 11.743H136.33v5.31H.613Zm0 12.852v5.31h23.828l-2.519-5.038 14.254 5.038H136.33v-5.31zm0 13.035v5.31h23.965l1.983-5.31zm39.775 0-1.583 5.31h97.525v-5.31zM.613 194.543v5.31h23.492l-1.954-5.31zm36.589 0 4.399 5.31h94.729v-5.31zM.612 207.395v5.309H136.33v-5.31H33.909l-5.213 4.936-1.815-4.935zm0 13.034H136.33v5.31H.613Z" style="fill:#486c42;fill-opacity:1;fill-rule:evenodd;stroke:#1f2d1a;stroke-width:1.22405;stroke-linecap:round;stroke-linejoin:round;stroke-dasharray:none;stroke-opacity:1"/><path d="M65.088.548v16.87l4.302 12.573-4.302-2.67v71.697l8.201 2.725V.549Zm8.201 109.735-8.2 3.588v112.848h8.2z" style="fill:#486c42;fill-opacity:1;fill-rule:evenodd;stroke:#1f2d1a;stroke-width:1.09653;stroke-linecap:round;stroke-linejoin:round;stroke-dasharray:none;stroke-opacity:1"/></svg>