<svg xmlns="http://www.w3.org/2000/svg" width="334.687" height="473.137" viewBox="0 0 88.553 125.184"><path d="M1.429 1.72v121.747h85.62V1.72Zm54.76 12.983L42.096 42.62l13.826 13.56L12.85 35.176l13.56-16.218Z" style="fill:#405f3a;fill-opacity:1;fill-rule:evenodd;stroke:#1f2d1a;stroke-width:1.11616;stroke-linecap:round;stroke-linejoin:round;stroke-dasharray:none;stroke-opacity:1"/><path d="M.471 1.71h87.61v6.582H.472Zm0 14.398v6.582h31.417l3.12-3.732 11.352-2.85Zm49.052 2.456-.405 4.126h38.964v-6.582h-34.38ZM.471 30.506v6.582h20.6l-3.922-1.912 3.905-4.67zm39.942 0-3.322 6.582h50.99v-6.582ZM.471 44.904v6.582h37.78l-1.09-6.582Zm44.866 0 5.8 6.582h36.945v-6.582ZM.471 59.302h87.61v6.583H.472Zm0 14.399h87.61v6.582H.472Zm0 14.398h87.61v6.582H.472Zm0 14.398h87.61v6.582H.472Zm0 14.398h87.61v6.583H.472Z" style="fill:#486c42;fill-opacity:1;fill-rule:evenodd;stroke:#1f2d1a;stroke-width:1.09502;stroke-linecap:round;stroke-linejoin:round;stroke-dasharray:none;stroke-opacity:1"/><path d="M47.956.795V124.39h-7.36V.795Z" style="fill:#486c42;fill-opacity:1;fill-rule:evenodd;stroke:#1f2d1a;stroke-width:1.3675;stroke-linecap:round;stroke-linejoin:round;stroke-dasharray:none;stroke-opacity:1"/></svg>