<svg xmlns="http://www.w3.org/2000/svg" width="40" height="40" viewBox="0 0 10.583 10.583"><g transform="translate(-79.301 276.151)"><circle cx="84.593" cy="-270.86" r="4.763" style="fill:#fff;fill-opacity:1;stroke:#333;stroke-width:1.0583334;stroke-linecap:square;stroke-dasharray:none;stroke-opacity:1"/><path d="M83.754-274.52a.53.53 0 0 0-.512.392l-.699 2.617h-2.666a5 5 0 0 0-.047.65 5 5 0 0 0 .03.407h3.087a.53.53 0 0 0 .512-.39l.295-1.103.328 1.223.137.512.701 2.62a.53.53 0 0 0 1.023 0l.702-2.618h2.664a5 5 0 0 0 .046-.65 5 5 0 0 0-.018-.409h-3.099a.53.53 0 0 0-.511.393l-.295 1.1-.328-1.221-.137-.512-.701-2.619a.53.53 0 0 0-.512-.393" style="color:#000;fill:#333;stroke-linecap:square;stroke-linejoin:round;-inkscape-stroke:none"/></g></svg>