<?xml version="1.0" encoding="UTF-8" standalone="no"?>
<svg
   width="525"
   height="554.284"
   viewBox="0 0 524.99999 554.284"
   fill="none"
   version="1.1"
   id="svg48"
   sodipodi:docname="tree_oak_2.svg"
   inkscape:version="1.1.2 (0a00cf5339, 2022-02-04)"
   xmlns:inkscape="http://www.inkscape.org/namespaces/inkscape"
   xmlns:sodipodi="http://sodipodi.sourceforge.net/DTD/sodipodi-0.dtd"
   xmlns="http://www.w3.org/2000/svg"
   xmlns:svg="http://www.w3.org/2000/svg">
  <defs
     id="defs52" />
  <sodipodi:namedview
     id="namedview50"
     pagecolor="#505050"
     bordercolor="#ffffff"
     borderopacity="1"
     inkscape:pageshadow="0"
     inkscape:pageopacity="0"
     inkscape:pagecheckerboard="1"
     showgrid="false"
     width="286.04501px"
     inkscape:zoom="1.4420529"
     inkscape:cx="335.63262"
     inkscape:cy="266.28704"
     inkscape:window-width="2560"
     inkscape:window-height="1372"
     inkscape:window-x="0"
     inkscape:window-y="0"
     inkscape:window-maximized="1"
     inkscape:current-layer="svg48"
     height="604.001px" />
  <path
     d="m 354.22785,262.45898 c 0,0 -34.87217,-4.58844 -47.71982,-4.58844 l -33.03679,-14.68302 -17.43609,-102.78114 -76.16816,-40.37831 48.6375,47.71982 2.75307,37.62524 11.92995,90.85118 -32.1191,16.5184 -46.80213,-11.92995 -48.6375,30.28373 41.29599,-7.34151 35.78986,15.6007 60.56746,-5.50613 44.04906,5.50613 25.69528,24.7776 28.44835,51.39057 -15.6007,33.0368 34.87217,-31.20142 -7.34151,-50.47288 -48.63751,-56.89671 33.0368,-9.17688 39.46062,12.84764 c -9.78862,-8.87038 -33.0368,-31.20142 -33.0368,-31.20142 z"
     fill="#5b3e24"
     id="path2"
     style="stroke-width:1.83538" />
  <path
     d="m 253.37753,315.61886 -29.96805,20.17447 -33.2497,54.11427 -66.33604,8.76025 55.79547,-35.13646 18.84382,-55.366 43.94812,-30.83067 -40.20211,-67.93834 -53.00754,-19.49905 -23.88377,-58.57974 45.28244,39.25836 60.04988,13.13983 42.82303,62.1312 c 15.00971,-29.93134 27.63711,-47.62621 27.63711,-47.62621 l 49.4469,-22.94222 34.87218,-43.13137 -23.85991,69.74434 -43.13137,30.28373 -17.3278,44.27849 35.12913,31.40514 58.01206,16.5184 29.36567,59.64977 -50.8607,-36.70755 -49.16646,-7.34151 -27.07549,-19.05856 2.2979,44.75384 -15.24648,56.46356 12.94858,59.64976 -41.39693,-60.56745 7.34151,-44.04906 z"
     fill="#6d4a2c"
     stroke="#1b1917"
     stroke-width="11.0123"
     stroke-miterlimit="16"
     stroke-linejoin="round"
     id="path4"
     style="stroke:#312114;stroke-opacity:1" />
  <path
     opacity="0.95"
     d="m 216.57454,408.37149 c 0,80.58592 64.9173,145.91251 144.99482,145.91251 80.07825,0 144.99482,-65.32659 144.99482,-145.91251 0,-80.58592 -64.91657,-145.91251 -144.99482,-145.91251 -80.07752,0 -144.99482,65.32659 -144.99482,145.91251 z"
     fill="#3a4f3f"
     id="path6"
     style="stroke-width:1.83538;fill:#416631;fill-opacity:0.90478361" />
  <path
     opacity="0.95"
     d="m -7.5e-6,145.91251 c 0,80.58592 64.9173025,145.91251 144.9948275,145.91251 80.07752,0 144.99482,-65.32659 144.99482,-145.91251 C 289.98964,65.327326 225.07234,0 144.99482,0 64.917295,0 -7.5e-6,65.327326 -7.5e-6,145.91251 Z"
     fill="#3a4f3f"
     id="path8"
     style="stroke-width:1.83538;fill:#416631;fill-opacity:0.90478361" />
  <path
     opacity="0.95"
     d="m 64.238205,387.26465 c 0,64.87326 52.179785,117.46416 116.546475,117.46416 64.36669,0 116.54647,-52.5909 116.54647,-117.46416 0,-64.87325 -52.17978,-117.46416 -116.54647,-117.46416 -64.36669,0 -116.546475,52.59091 -116.546475,117.46416 z"
     fill="#3a4f3f"
     id="path10"
     style="stroke-width:1.83538;fill:#416631;fill-opacity:0.90478361" />
  <path
     opacity="0.85"
     d="m 273.47124,447.83211 c 0,51.69708 41.49789,93.60425 92.68656,93.60425 51.18942,0 92.68657,-41.90717 92.68657,-93.60425 0,-51.69524 -41.49715,-93.60425 -92.68657,-93.60425 -51.18867,0 -92.68656,41.90901 -92.68656,93.60425 z"
     fill="#485e52"
     id="path12"
     style="stroke-width:1.83538;fill:#497237;fill-opacity:0.89867646" />
  <path
     opacity="0.95"
     d="m 244.1052,185.37313 c 0,58.79264 47.24996,106.45189 105.53421,106.45189 58.28479,0 105.5342,-47.65925 105.5342,-106.45189 0,-58.79173 -47.24941,-106.451897 -105.5342,-106.451897 -58.28425,0 -105.53421,47.660167 -105.53421,106.451897 z"
     fill="#3a4f3f"
     id="path14"
     style="stroke-width:1.83538;fill:#416631;fill-opacity:0.90478361" />
  <path
     opacity="0.85"
     d="m 47.719808,362.48706 c 0,47.13433 37.799599,85.34505 84.427362,85.34505 46.62777,0 84.42737,-38.21072 84.42737,-85.34505 0,-47.13433 -37.7996,-85.34506 -84.42737,-85.34506 -46.627763,0 -84.427362,38.21073 -84.427362,85.34506 z"
     fill="#485e52"
     id="path16"
     style="stroke-width:1.83538;fill:#497237;fill-opacity:0.89867646" />
  <path
     opacity="0.85"
     d="m 302.83728,175.27855 c 0,32.94319 26.29545,59.64977 58.73208,59.64977 32.43681,0 58.73208,-26.70658 58.73208,-59.64977 0,-32.94356 -26.29527,-59.64977 -58.73208,-59.64977 -32.43663,0 -58.73208,26.70621 -58.73208,59.64977 z"
     fill="#485e52"
     id="path18"
     style="stroke-width:1.83538;fill:#497237;fill-opacity:0.89867646" />
  <path
     opacity="0.85"
     fill-rule="evenodd"
     clip-rule="evenodd"
     d="m 201.44369,143.23873 c 6.7652,2.32855 14.01494,3.59147 21.55467,3.59147 36.99754,0 66.99128,-30.40376 66.99128,-67.908784 0,-37.505205 -29.99374,-67.909151 -66.99128,-67.909151 -28.94941,0 -53.60954,18.614582 -62.96997,44.680613 -14.59308,-9.682167 -32.0567,-15.314573 -50.82344,-15.314573 -51.188675,0 -92.68656,41.908092 -92.68656,93.604435 0,51.6969 41.497885,93.60407 92.68656,93.60407 48.09607,0 87.63744,-36.99754 92.23874,-84.34808 z"
     fill="#485e52"
     id="path20"
     style="stroke-width:1.83538;fill:#497237;fill-opacity:0.89867646" />
  <path
     d="m 248.54681,470.477 c 9.14385,11.09669 36.74977,25.91186 40.89772,7.16348 2.47592,-19.04205 -28.5236,-14.49765 -40.89588,-7.17266 l -0.007,-0.002 c 0,0.002 0.005,0.009 0.005,0.011 z"
     fill="#5f926a"
     id="path22"
     style="stroke-width:1.83538;fill:#588a42;fill-opacity:1" />
  <path
     d="m 266.673,526.61752 0.007,-0.0128 c 17.06351,-7.73061 45.01447,-37.39949 22.76419,-48.9642 -23.17898,-9.56416 -27.85736,30.92978 -22.7752,48.96053 l -0.006,0.011 c 0.002,-0.002 0.006,-0.004 0.007,-0.004 0,0.004 0.002,0.005 0.002,0.009 z"
     fill="#587e60"
     id="path24"
     style="stroke-width:1.83538;fill:#609648;fill-opacity:1" />
  <path
     d="m 300.87343,508.92816 -0.004,-0.007 c 4.36636,-10.92049 3.9277,-36.1606 -11.42339,-31.28033 -14.88675,6.15952 1.04249,25.74484 11.41788,31.28217 l 0.002,0.007 c -0.002,0.002 0,-0.002 0,0 0.002,0 0.004,-0.004 0.007,-0.002 z"
     fill="#77a37a"
     id="path26"
     style="stroke-width:1.83538;fill:#588a42;fill-opacity:1" />
  <path
     d="m 109.42153,326.46961 c -2.51814,14.15626 4.1039,44.77954 21.06646,35.78068 16.10177,-10.46165 -7.45897,-31.11515 -21.05728,-35.78619 l -0.006,-0.005 c 0,0.002 -0.002,0.009 -0.004,0.011 z"
     fill="#77a37a"
     id="path28"
     style="stroke-width:1.83538;fill:#588a42;fill-opacity:1" />
  <path
     d="m 78.199922,348.71438 0.01285,0.004 c 10.689239,15.38414 44.926368,37.50594 52.275218,13.53224 5.21247,-24.52798 -35.459489,-21.80428 -52.273382,-13.54325 l -0.01285,-0.004 c 0.0018,0.002 0.0055,0.006 0.0055,0.006 -0.0037,0.002 -0.0055,0.004 -0.0073,0.005 z"
     fill="#5f926a"
     id="path30"
     style="stroke-width:1.83538;fill:#609648;fill-opacity:1" />
  <path
     d="m 325.73361,269.36734 c -13.22389,-5.64378 -35.22273,-27.95096 -18.40516,-37.21778 17.57007,-7.74529 21.95295,23.27626 18.41434,37.21411 l 0.004,0.006 c -0.004,0 -0.009,-0.002 -0.0129,-0.002 z"
     fill="#5f926a"
     id="path32"
     style="stroke-width:1.83538;fill:#588a42;fill-opacity:1" />
  <path
     d="m 274.08793,230.00767 h 0.007 c 9.24663,-7.26809 33.58557,-13.96538 33.23318,2.14005 -1.71241,16.01918 -24.99417,6.25864 -33.23318,-2.13271 0,-0.002 -0.006,-0.005 -0.007,-0.007 z"
     fill="#77a37a"
     id="path34"
     style="stroke-width:1.83538;fill:#588a42;fill-opacity:1" />
  <path
     d="m 290.02451,283.31254 0.006,-0.0147 c -7.01849,-17.36818 -6.78539,-58.13008 17.30026,-51.15197 23.37721,9.0686 -1.17097,41.60984 -17.28925,51.15564 l -0.006,0.0147 c 0,-0.002 -0.002,-0.007 -0.002,-0.007 -0.004,0.004 -0.007,0.004 -0.009,0.004 z"
     fill="#587e60"
     id="path36"
     style="stroke-width:1.83538;fill:#609648;fill-opacity:1" />
  <path
     d="m 53.767376,112.11202 c 7.807696,-12.07477 33.526841,-29.966029 39.801997,-11.81837 4.650846,18.63037 -26.6662,17.68111 -39.800161,11.82718 l -0.0055,0.002 c 0,-0.002 0.0037,-0.008 0.0037,-0.0108 z"
     fill="#5f926a"
     id="path38"
     style="stroke-width:1.83538;fill:#588a42;fill-opacity:1" />
  <path
     d="m 101.32568,67.899607 -0.002,0.0077 c 5.5924,10.345839 8.05915,35.469223 -7.752632,32.385603 -15.494257,-4.406925 -1.923475,-25.693083 7.745292,-32.387255 0.002,-7.34e-4 0.007,-0.0037 0.009,-0.0061 z"
     fill="#77a37a"
     id="path40"
     style="stroke-width:1.83538;fill:#588a42;fill-opacity:1" />
  <path
     d="m 46.088157,74.552667 0.01285,0.0084 c 18.30789,-3.96827 58.438413,3.18438 47.472039,25.734193 -12.906375,21.49888 -40.805948,-8.219369 -47.47571,-25.724466 l -0.01468,-0.0084 c 0.0018,1.84e-4 0.0073,-5.5e-4 0.0073,-9.17e-4 -0.0018,-0.0035 -0.0018,-0.0068 -0.0018,-0.0088 z"
     fill="#587e60"
     id="path42"
     style="stroke-width:1.83538;fill:#609648;fill-opacity:1" />
  <path
     d="m 524.99045,394.68141 c -12.13313,-7.71592 -42.9715,-13.24592 -41.10438,5.86403 3.54669,18.87136 31.61181,4.94451 41.10585,-5.85485 H 525 c -0.002,-0.002 -0.009,-0.006 -0.01,-0.009 z"
     fill="#77a37a"
     id="path44"
     style="stroke-width:1.83538;fill:#588a42;fill-opacity:1" />
  <path
     d="m 516.30214,357.34249 -0.008,0.011 c -18.29431,4.03232 -51.78151,27.27371 -32.40782,43.19193 20.69829,14.15444 33.65734,-24.49311 32.41681,-43.18459 l 0.008,-0.011 c -0.002,0.002 -0.006,0.002 -0.008,0.002 7.3e-4,-0.004 -1.8e-4,-0.006 -10e-4,-0.009 z"
     fill="#5f926a"
     id="path46"
     style="stroke-width:1.83538;fill:#609648;fill-opacity:1" />
</svg>
