<?xml version="1.0" encoding="UTF-8" standalone="no"?>
<!-- Created with Inkscape (http://www.inkscape.org/) -->

<svg
   width="12.521701mm"
   height="4.1162367mm"
   viewBox="0 0 12.521701 4.1162367"
   version="1.1"
   id="svg1"
   inkscape:version="1.3.2 (091e20e, 2023-11-25, custom)"
   sodipodi:docname="hay_bale_particle_1.svg"
   xmlns:inkscape="http://www.inkscape.org/namespaces/inkscape"
   xmlns:sodipodi="http://sodipodi.sourceforge.net/DTD/sodipodi-0.dtd"
   xmlns="http://www.w3.org/2000/svg"
   xmlns:svg="http://www.w3.org/2000/svg">
  <sodipodi:namedview
     id="namedview1"
     pagecolor="#ffffff"
     bordercolor="#000000"
     borderopacity="0.25"
     inkscape:showpageshadow="2"
     inkscape:pageopacity="0.0"
     inkscape:pagecheckerboard="0"
     inkscape:deskcolor="#d1d1d1"
     inkscape:document-units="mm"
     inkscape:zoom="0.71713664"
     inkscape:cx="23.705385"
     inkscape:cy="7.6693892"
     inkscape:window-width="1920"
     inkscape:window-height="1001"
     inkscape:window-x="-9"
     inkscape:window-y="-9"
     inkscape:window-maximized="1"
     inkscape:current-layer="layer1" />
  <defs
     id="defs1" />
  <g
     inkscape:label="Στρώση 1"
     inkscape:groupmode="layer"
     id="layer1"
     transform="translate(-98.954169,-146.31458)">
    <path
       style="fill:#c8ae54;fill-opacity:1;stroke:none;stroke-width:2;stroke-linecap:round;stroke-dasharray:none;stroke-opacity:1;stop-color:#000000"
       d="m 106.82943,146.42441 c -1.33168,-0.26482 0.106,-0.0201 -3.20972,0.40722 -1.55909,0.20122 -2.20565,-0.13705 -3.34751,0.67913 -0.445179,0.31797 -0.842178,0.70087 -1.229542,1.08626 -0.04818,0.0508 -0.12623,0.16071 -0.06745,0.2038 0.08672,0.068 0.227407,0 0.341111,0 0.477941,0 0.956841,-0.01 1.434781,0 1.20642,0.0153 2.41669,-0.0153 3.62021,0.068 0.94529,0.0642 1.80866,0.47312 2.73275,0.61094 0.27173,0.0402 0.54828,0.0297 0.82001,0.068 0.36713,0.0517 1.65063,0.31241 2.04956,0.40742 0.43458,0.10372 0.88169,0.1744 1.29796,0.33961 0.38158,0.1518 -0.01,0.13552 0.20428,0.13552"
       id="path25593" />
  </g>
</svg>
