<?xml version="1.0" encoding="UTF-8" standalone="no"?>
<!-- Created with Inkscape (http://www.inkscape.org/) -->

<svg
   width="12.679387mm"
   height="4.27742mm"
   viewBox="0 0 12.679387 4.27742"
   version="1.1"
   id="svg1"
   inkscape:version="1.3.2 (091e20e, 2023-11-25, custom)"
   sodipodi:docname="hay_bale_particle_2.svg"
   xmlns:inkscape="http://www.inkscape.org/namespaces/inkscape"
   xmlns:sodipodi="http://sodipodi.sourceforge.net/DTD/sodipodi-0.dtd"
   xmlns="http://www.w3.org/2000/svg"
   xmlns:svg="http://www.w3.org/2000/svg">
  <sodipodi:namedview
     id="namedview1"
     pagecolor="#ffffff"
     bordercolor="#000000"
     borderopacity="0.25"
     inkscape:showpageshadow="2"
     inkscape:pageopacity="0.0"
     inkscape:pagecheckerboard="0"
     inkscape:deskcolor="#d1d1d1"
     inkscape:document-units="mm"
     inkscape:zoom="0.71713664"
     inkscape:cx="100.39928"
     inkscape:cy="-59.263462"
     inkscape:window-width="1920"
     inkscape:window-height="1001"
     inkscape:window-x="-9"
     inkscape:window-y="-9"
     inkscape:window-maximized="1"
     inkscape:current-layer="layer1" />
  <defs
     id="defs1" />
  <g
     inkscape:label="Στρώση 1"
     inkscape:groupmode="layer"
     id="layer1"
     transform="translate(-78.58125,-164.30625)">
    <path
       style="fill:#c8ae54;fill-opacity:1;stroke:none;stroke-width:2;stroke-linecap:round;stroke-dasharray:none;stroke-opacity:1;stop-color:#000000"
       d="m 79.424409,164.30625 c 2.542916,0.35225 5.110885,0.48653 7.65091,0.88255 0.693786,0.10851 1.700738,0.28914 2.322254,0.67913 0.232225,0.14547 0.394109,0.38184 0.614771,0.54303 0.123339,0.09 0.286186,0.11454 0.409526,0.20371 0.434579,0.31404 0.56081,0.68037 0.7516,1.15426 0.03854,0.0973 0.12623,0.2922 0.06745,0.40751 -0.117558,0.23436 -0.658132,0.13629 -0.820015,0.068 -0.458669,-0.19595 -0.83736,-0.55271 -1.297956,-0.74703 -0.821943,-0.34747 -1.871294,-0.73085 -2.800195,-0.95055 -0.116594,-0.0278 -0.842178,-0.22679 -1.025261,-0.13581 -0.741964,0.36921 -1.393352,1.01568 -2.185423,1.35797 -1.474294,0.63708 -2.916789,0.81465 -4.508641,0.81465 -0.110813,0 0.232126,-0.0858 0.183947,-0.23143 -0.114668,-0.34133 -0.0026,-0.5888 0.07446,-0.94709 0.09636,-0.43337 0.05573,-0.64902 0.424781,-0.72258 0.35171,-0.0699 0.511666,0.13638 0.683185,-0.20371"
       id="path25599"
       sodipodi:nodetypes="ccccccccccccscccc" />
  </g>
</svg>
