<?xml version="1.0" encoding="UTF-8" standalone="no"?>
<svg
   width="47.169964"
   height="53.632832"
   viewBox="0 0 47.169964 53.632832"
   fill="none"
   version="1.1"
   id="svg2"
   sodipodi:docname="seed_explosion_decal.svg"
   inkscape:version="1.4 (1:1.4+202410161351+e7c3feb100)"
   xmlns:inkscape="http://www.inkscape.org/namespaces/inkscape"
   xmlns:sodipodi="http://sodipodi.sourceforge.net/DTD/sodipodi-0.dtd"
   xmlns="http://www.w3.org/2000/svg"
   xmlns:svg="http://www.w3.org/2000/svg">
  <sodipodi:namedview
     id="namedview2"
     pagecolor="#505050"
     bordercolor="#ffffff"
     borderopacity="1"
     inkscape:showpageshadow="0"
     inkscape:pageopacity="0"
     inkscape:pagecheckerboard="1"
     inkscape:deskcolor="#505050"
     inkscape:zoom="11.212963"
     inkscape:cx="9.2749794"
     inkscape:cy="8.5169282"
     inkscape:window-width="2560"
     inkscape:window-height="1368"
     inkscape:window-x="0"
     inkscape:window-y="0"
     inkscape:window-maximized="1"
     inkscape:current-layer="svg2" />
  <path
     id="path2"
     style="fill:#e3a860;fill-opacity:0.50282979;stroke-width:0.579;stroke-linecap:round;stroke-linejoin:round"
     d="M 29.351339,3.3369176 A 10.523534,10.523534 0 0 0 22.794698,5.6552776 17.033855,17.033855 0 0 0 20.343526,5.4775426 17.033855,17.033855 0 0 0 3.310323,22.510746 17.033855,17.033855 0 0 0 14.031026,38.290043 12.574731,12.574731 0 0 0 26.585714,50.604496 12.574731,12.574731 0 0 0 39.161886,38.028324 12.574731,12.574731 0 0 0 39.038839,36.297856 12.574731,12.574731 0 0 0 46.116964,25.008793 12.574731,12.574731 0 0 0 39.855245,14.135746 10.523534,10.523534 0 0 0 39.874777,13.860356 10.523534,10.523534 0 0 0 29.351339,3.3369176 Z" />
  <defs
     id="defs2">
    <radialGradient
       id="paint0_radial_1608_396"
       cx="0"
       cy="0"
       r="1"
       gradientUnits="userSpaceOnUse"
       gradientTransform="matrix(16.461237,-18.505319,17.956823,15.973328,21.838865,26.710431)">
      <stop
         stop-opacity="0.3"
         id="stop1" />
      <stop
         offset="1"
         stop-opacity="0.2"
         id="stop2" />
    </radialGradient>
  </defs>
  <path
     d="m 11.750965,19.925731 -7.70702,-9.3691 10.19972,6.5586 0.3047,-0.2402 -2.9043,-7.88284 4.8887,6.62894 0.0913,-0.0469 -0.3931,-7.47072 2.7324,6.58792 c 0.1494,-0.041 0.2993,-0.0781 0.4502,-0.1114 L 19.799765,0 l 3.2994,13.951131 1.4282,-4.72652 0.5512,5.35152 0.3501,0.0801 6.9107,-9.6074 -1.7246,12.2441 0.1631,0.1368 7.7041,-4.7969 -5.0298,7.0996 13.7178,-3.6367 -11.7271,7.4375 6.624,1.4551 -6.6743,2.6113 -0.0244,0.4004 -0.0239,0.2754 10.5449,4.7558 -10.6299,0.8203 4.5464,3.2774 -6.7432,-1.8711 5.7661,8.5137 -9.289,-5.8086 c -0.1533,0.0859 -0.3086,0.1679 -0.4658,0.2461 l 2.3442,9.9062 -6.855,-8.332 -1.2573,11.6914 -2.6787,-11.5332 -5.7866,13.6914 1.5395,-14.3281 -4.4634,4.6093 3.3404,-6.5957 -0.2295,-0.1777 -10.04787,4.416 6.31587,-8.7988 -4.80367,2.1699 4.22017,-3.4219 -0.1499,-0.4023 L 0,33.125031 l 9.777865,-6.0899 -0.0108,-0.1465 -6.72556,-2.3769 6.98686,-0.5488 -7.81157,-5.0254 9.45357,1.1328 z"
     fill="url(#paint0_radial_1608_396)"
     id="path1"
     style="fill:url(#paint0_radial_1608_396)" />
</svg>
