<svg xmlns="http://www.w3.org/2000/svg" width="27.372" height="87.206" viewBox="0 0 7.242 23.073"><g class="cls-8" style="opacity:.7" transform="scale(.49476 .51235)"><path d="M1.272 5.623C.676 4.417 2.931 2.313 3.28 1.987c.196-.183 2.774-2.555 3.799-1.86.668.453-.151 1.647.571 2.88 1.004 1.713 3.544 1.041 4.057 2.347.465 1.184-.984 3.359-2.473 3.521-1.385.15-1.603-1.572-3.874-1.954-.906-.153-1.736-.025-3.035-.578-.563-.24-.888-.384-1.054-.719Z" class="cls-7" style="fill:#9b1e95;fill-rule:evenodd"/><path d="M6.188 16.591c1.135.119 1.142-8.645 1.142-8.645 0 8.749 1.174 8.645 1.174 8.645z" class="cls-4" style="fill:#18181b;fill-rule:evenodd;stroke:#242424;stroke-width:1.014px;stroke-linecap:round;stroke-linejoin:round"/><path d="M10.914 41.302a2.711 2.711 0 1 1 0-5.423 2.711 2.711 0 0 1 0 5.423m-7.189 0a2.711 2.711 0 1 1 0-5.423 2.711 2.711 0 0 1 0 5.423" class="cls-3" style="fill:none;stroke:#242424;stroke-width:2.027px;stroke-linecap:round;stroke-linejoin:round"/><path d="M7.338 20.422v19.973s-.325 3.017 3.236 3.019v.867l-6.525.003v-.871s3.29.493 3.29-3.017z" class="cls-2" style="fill:#242424;fill-rule:evenodd;stroke:#242424;stroke-width:1.5px;stroke-linecap:round;stroke-linejoin:round"/><path d="M10.192 33.851s-.103 2.229-2.845 2.231c-2.743-.001-2.845-2.231-2.845-2.231v-17.26h5.688z" class="cls-1" style="fill:none;fill-rule:evenodd;stroke:#242424;stroke-width:2.027px;stroke-linecap:round;stroke-linejoin:round"/><path d="M4.515 20.421s.257 4.307 2.832 4.308c2.573 0 2.817-4.307 2.817-4.307z" class="cls-5" style="fill:#9e9eb2;fill-rule:evenodd;stroke:#242424;stroke-width:2.027px;stroke-linecap:round;stroke-linejoin:round"/><path d="M4.501 16.592h5.691v3.829H4.501z" class="cls-6" style="fill:#9b1e95;stroke:#242424;stroke-width:2.027px;stroke-linecap:round;stroke-linejoin:round" transform="rotate(180 7.346 18.506)"/><circle cx="11.622" cy="3.067" r=".745" class="cls-9" style="fill:#9b1e95"/><circle cx="3.877" cy="7.812" r=".574" class="cls-9" style="fill:#9b1e95"/><ellipse cx="12.197" cy="7.557" class="cls-9" rx=".83" ry=".372" style="fill:#9b1e95" transform="rotate(-60 12.197 7.557)"/></g></svg>