<svg xmlns="http://www.w3.org/2000/svg" width="96.557" height="196.595" viewBox="0 0 51.095 104.032"><path d="M7.666 0v7.048c-.191-.172-.35-.358-.556-.522L5.439 5.202 0 11.507l1.324 1.455c2.551 2.806 4.782 4.52 6.342 6.961v84.109h7.187l7.006-4.173 6.368 1.186 9.919-1.093 5.016 4.08h7.933V0h-9.078l-4.816 2.862-4.075-1.93-8.967 2.58L14.442 0h-1.807zm4.445 3.976.524.469h1.028l10.342 3.737 8.737-2.515 4.696 2.224 5.8-3.446h3.412v95.142h-1.908l-5.235-4.257-11.113 1.225-7.37-1.373-7.394 4.405h-1.519v-80.95l-.3-.519c-.799-1.375-1.706-2.474-2.638-3.495l2.938-.705z" style="color:#000;fill:#1f150d;fill-rule:evenodd;stroke-width:.599998;-inkscape-stroke:none;paint-order:stroke fill markers"/><path d="M9.89 2.222v11.696C8.813 11.805 7.66 9.8 5.728 8.268l-2.76 3.2c2.53 2.783 5.092 4.62 6.92 7.766v82.576h4.353l7.2-4.29 6.869 1.28 10.516-1.158 5.125 4.168h4.92V2.222h-6.245L37.32 5.376 32.934 3.3l-8.852 2.547-10.03-3.625h-1.416z" style="color:#000;fill:#684c31;fill-rule:evenodd;stroke-width:.599998;-inkscape-stroke:none;paint-order:stroke fill markers"/><path d="M9.89 2.222v11.696C8.813 11.805 7.66 9.8 5.728 8.268l-2.76 3.2c2.53 2.783 5.092 4.62 6.92 7.766v82.576h2.747V2.222Z" style="fill:#4d3724;fill-opacity:1;fill-rule:evenodd;stroke:none;stroke-width:4.44498;stroke-dasharray:none;stroke-opacity:1;paint-order:stroke fill markers"/><path d="M12.635 2.222v99.588h1.607l2.085-1.242V3.044l-2.275-.822z" style="fill:#563e29;fill-opacity:1;fill-rule:evenodd;stroke:none;stroke-width:4.44498;stroke-dasharray:none;stroke-opacity:1;paint-order:stroke fill markers"/><path d="M16.327 3.044v97.524l5.115-3.048.467.087V5.062Z" style="fill:#5d442c;fill-opacity:1;fill-rule:evenodd;stroke:none;stroke-width:4.44498;stroke-dasharray:none;stroke-opacity:1;paint-order:stroke fill markers"/><path d="M46.126 2.222v99.588h2.746V2.222Z" style="fill:#563e29;fill-opacity:1;fill-rule:evenodd;stroke:none;stroke-width:4.44498;stroke-dasharray:none;stroke-opacity:1;paint-order:stroke fill markers"/><path d="m42.628 2.222-.193.115v98.239l1.517 1.234h2.174V2.222Z" style="fill:#5d442c;fill-opacity:1;fill-rule:evenodd;stroke:none;stroke-width:4.44498;stroke-dasharray:none;stroke-opacity:1;paint-order:stroke fill markers"/><path d="m42.435 2.337-5.116 3.04-.466-.221v92.703l1.974-.217 3.608 2.934z" style="fill:#684c31;fill-opacity:1;fill-rule:evenodd;stroke:none;stroke-width:4.44498;stroke-dasharray:none;stroke-opacity:1;paint-order:stroke fill markers"/><path d="m32.934 3.3-3.553 1.022v94.29l7.472-.753V5.156Z" style="fill:#6d5237;fill-opacity:1;fill-rule:evenodd;stroke:none;stroke-width:4.44498;stroke-dasharray:none;stroke-opacity:1;paint-order:stroke fill markers"/></svg>