<svg xmlns="http://www.w3.org/2000/svg" width="132.123" height="143.807" viewBox="0 0 34.957 38.049"><g style="stroke-width:1.0527"><path d="M379.837 519.31c-.568 0-1.026.458-1.026 1.026s.458 1.025 1.026 1.025h4.665v9.128h-4.665c-.568 0-1.026.457-1.026 1.025s.458 1.026 1.026 1.026h5.743c.544-.025.973-.432.973-.935v-11.358c0-.502-.43-.91-.973-.935h-.053z" style="display:inline;fill:gray;fill-opacity:1;stroke:#2e2e2e;stroke-width:.974841;stroke-miterlimit:4;stroke-dasharray:none;stroke-opacity:1" transform="matrix(0 .95006 -.94981 0 516.959 -329.664)"/><g style="stroke-width:1.0527" transform="matrix(0 .95006 -.94981 0 2760.899 -1513.22)"><g style="stroke-width:1.0527"><rect width="33.52" height="34.256" x="48.709" y="58.154" rx="2.936" ry="2.932" style="fill:#7f714d;fill-opacity:1;stroke:#32271b;stroke-width:2.45596;stroke-dasharray:none;stroke-opacity:1" transform="matrix(-1 -.00335 0 -1 1676.212 2963.881)"/></g><circle cx="1624.049" cy="2874.734" r="1.137" style="fill:gray;fill-opacity:1;stroke:#2e2e2e;stroke-width:.723912;stroke-linecap:round;stroke-linejoin:round;stroke-opacity:1"/><rect width="31.189" height="22.82" x="1595.152" y="2877.145" rx="0" ry="0" style="opacity:.15;fill:#000;fill-opacity:1;fill-rule:evenodd;stroke:none;stroke-width:3.55171;stroke-linecap:round;stroke-dasharray:none;stroke-opacity:1;paint-order:stroke fill markers;stop-color:#000"/><rect width=".932" height="11.221" x="1623.909" y="2882.879" rx="0" ry="0" style="fill:#8c8c8c;fill-opacity:1;fill-rule:evenodd;stroke:#404040;stroke-width:2.1054;stroke-linecap:round;stroke-dasharray:none;stroke-opacity:1;paint-order:stroke fill markers;stop-color:#000"/><circle cx="1597.482" cy="2874.734" r="1.137" style="fill:gray;fill-opacity:1;stroke:#2e2e2e;stroke-width:.723912;stroke-linecap:round;stroke-linejoin:round;stroke-opacity:1"/><circle cx="1624.049" cy="2902.251" r="1.137" style="fill:gray;fill-opacity:1;stroke:#2e2e2e;stroke-width:.723912;stroke-linecap:round;stroke-linejoin:round;stroke-opacity:1"/><circle cx="1597.482" cy="2902.251" r="1.137" style="fill:gray;fill-opacity:1;stroke:#2e2e2e;stroke-width:.723912;stroke-linecap:round;stroke-linejoin:round;stroke-opacity:1"/><rect width="2.175" height=".327" x="1596.422" y="2874.549" rx=".187" ry=".186" style="fill:#2e2e2e;fill-opacity:1;fill-rule:evenodd;stroke:none;stroke-width:3.38307;stroke-linecap:round;stroke-dasharray:none;stroke-opacity:1;paint-order:stroke fill markers;stop-color:#000"/><rect width="2.175" height=".327" x="-496.978" y="3264.133" rx=".187" ry=".187" style="fill:#2e2e2e;fill-opacity:1;fill-rule:evenodd;stroke:none;stroke-width:3.38307;stroke-linecap:round;stroke-dasharray:none;stroke-opacity:1;paint-order:stroke fill markers;stop-color:#000" transform="rotate(-38.102)"/><rect width="2.175" height=".327" x="2810.751" y="-1751.882" rx=".186" ry=".187" style="fill:#2e2e2e;fill-opacity:1;fill-rule:evenodd;stroke:none;stroke-width:3.38307;stroke-linecap:round;stroke-dasharray:none;stroke-opacity:1;paint-order:stroke fill markers;stop-color:#000" transform="rotate(93.092)"/><rect width="2.175" height=".327" x="-317.91" y="-3310.769" rx=".187" ry=".187" style="fill:#2e2e2e;fill-opacity:1;fill-rule:evenodd;stroke:none;stroke-width:3.38307;stroke-linecap:round;stroke-dasharray:none;stroke-opacity:1;paint-order:stroke fill markers;stop-color:#000" transform="rotate(156.236)"/><rect width="2.175" height=".327" x="-1752.807" y="-2812.019" rx=".187" ry=".186" style="fill:#2e2e2e;fill-opacity:1;fill-rule:evenodd;stroke:none;stroke-width:3.38307;stroke-linecap:round;stroke-dasharray:none;stroke-opacity:1;paint-order:stroke fill markers;stop-color:#000" transform="rotate(-176.908)"/><rect width="2.175" height=".327" x="-3311.679" y="316.628" rx=".187" ry=".187" style="fill:#2e2e2e;fill-opacity:1;fill-rule:evenodd;stroke:none;stroke-width:3.38307;stroke-linecap:round;stroke-dasharray:none;stroke-opacity:1;paint-order:stroke fill markers;stop-color:#000" transform="rotate(-113.764)"/><rect width="2.175" height=".327" x="2873.625" y="-1597.656" rx=".186" ry=".187" style="fill:#2e2e2e;fill-opacity:1;fill-rule:evenodd;stroke:none;stroke-width:3.38307;stroke-linecap:round;stroke-dasharray:none;stroke-opacity:1;paint-order:stroke fill markers;stop-color:#000" transform="rotate(90)"/><rect width="2.175" height=".327" x="-3265.384" y="-496.055" rx=".187" ry=".187" style="fill:#2e2e2e;fill-opacity:1;fill-rule:evenodd;stroke:none;stroke-width:3.38307;stroke-linecap:round;stroke-dasharray:none;stroke-opacity:1;paint-order:stroke fill markers;stop-color:#000" transform="rotate(-128.102)"/></g></g></svg>