<svg xmlns="http://www.w3.org/2000/svg" xml:space="preserve" width="84" height="84" viewBox="0 0 22.225 22.225"><g transform="matrix(.16406 0 0 .16406 0 0)"><circle cx="75.958" cy="77.383" r="54.995" style="fill:#ffc703;fill-opacity:1;stroke:#584d00;stroke-width:6.17647;stroke-dasharray:none;stroke-opacity:1"/><path d="m14.041 45.922 21.205-.126s1.636 0 2.706-.755c1.07-.756 16.486-9.187 16.486-9.187s2.202-1.259 2.077-2.517c-.126-1.259.314-3.21-1.259-3.964-1.573-.755-2.769-1.133-4.09-1.133s-1.447-.126-1.447-.126l18.814-10.76s1.258-.692 1.699-2.076c.44-1.385.189-3.398-.315-4.027-.503-.63-1.699-2.203-3.901-2.014S23.039 32.393 23.039 32.393Z" style="fill:#d4aa00;fill-opacity:1;stroke:#584d00;stroke-width:2.70156;stroke-dasharray:none;stroke-opacity:1"/><path d="m31.723 32.393 32.28-19.003 2.705-1.95s1.683-1.848 1.573-3.43c-.163-2.345-2.333-4.866-4.011-5.16-1.526-.267-2.155.032-4.672 1.353-2.517 1.322-33.79 18.626-33.79 18.626Z" style="fill:#ffc703;fill-opacity:1;stroke:#584d00;stroke-width:2.70156;stroke-dasharray:none;stroke-opacity:1"/><path d="m33.673 26.226 25.421-15.92s1.794-1.336 1.888-3.46c.073-1.645-1.211-4.31-2.91-5.065s-2.69-.535-4.263.094c-1.573.63-13.529 8.054-13.529 8.054l-11.766 7.236Z" style="fill:#ffc703;fill-opacity:1;stroke:#584d00;stroke-width:2.70156;stroke-dasharray:none;stroke-opacity:1"/><path d="M39.4 6.343 6.741 24.968s-3.901 4.027-3.964 8.81c-.063 4.781 1.258 6.103 3.02 7.928 1.762 1.824 4.153 4.341 6.985 4.341 2.831 0 6.23-.251 8.683-2.076 2.454-1.825 7.551-7.173 7.551-7.173s2.517-2.517 3.272-5.412 1.573-7.11 1.636-8.306.378-2.894.378-2.894l11.389-6.733s1.573-1.007 1.636-3.02-1.007-4.28-2.077-4.845c-1.07-.567-2.14-.881-3.523-.378-1.385.503-2.329 1.133-2.329 1.133z" style="fill:#ffc703;fill-opacity:1;stroke:#584d00;stroke-width:2.70156;stroke-dasharray:none;stroke-opacity:1"/><path d="M46.339 99.95s27.125 5.824 59.238-.777" style="fill:#ffd42a;fill-opacity:1;stroke:#584d00;stroke-width:5.55371;stroke-linecap:round;stroke-dasharray:none;stroke-opacity:1"/><g transform="translate(.08)"><ellipse cx="56.554" cy="71.18" rx="2.403" ry="8.276" style="fill:#ffd42a;fill-opacity:1;stroke:#584d00;stroke-width:5.55371;stroke-linecap:round;stroke-dasharray:none;stroke-opacity:1"/><ellipse cx="95.203" cy="71.18" rx="2.403" ry="8.276" style="fill:#ffd42a;fill-opacity:1;stroke:#584d00;stroke-width:5.55371;stroke-linecap:round;stroke-dasharray:none;stroke-opacity:1"/></g><path d="m45.125 61.163 21.646-.252M86.403 61.163l21.646-.252" style="fill:#ffd42a;fill-opacity:1;stroke:#584d00;stroke-width:6.78015;stroke-linecap:round;stroke-dasharray:none;stroke-opacity:1" transform="translate(-.63)"/></g></svg>