<svg xmlns="http://www.w3.org/2000/svg" width="225" height="225" viewBox="0 0 59.531 59.531"><path d="M42.732 76.356v2.851c0 .924-.768 1.69-1.692 1.69h-2.884v49.296h2.769c.923 0 1.69.767 1.69 1.69v2.993h49.602v-2.851c0-.923.766-1.69 1.69-1.69h2.769V81.038h-2.769a1.704 1.704 0 0 1-1.691-1.69v-2.993z" style="baseline-shift:baseline;display:inline;overflow:visible;vector-effect:none;fill:#4b4b4b;stroke-width:.50268;stop-color:#000" transform="translate(-37.65 -75.85)"/><path d="m42.742 76.356-.01.01v2.841q0 .112-.015.22l3.072-3.07zm13.166 0L38.156 94.108v3.048l20.799-20.8Zm13.166 0-30.918 30.919v3.047L72.12 76.356Zm13.167 0-44.085 44.085v3.047l47.132-47.132Zm9.985 3.18-50.75 50.75a1.71 1.71 0 0 1 1.14 1.597v.312l51.16-51.16a1.71 1.71 0 0 1-1.55-1.498m-50.964 1.347q-.11.015-.222.015H38.2l-.044.044v3.047Zm55.414 7.37-46.623 46.623H53.1l43.576-43.575Zm0 13.167L63.22 134.876h3.047l30.409-30.409zm0 13.166-20.29 20.29h3.047l17.243-17.243Zm0 13.167-2.581 2.581h2.581zm-4.46 4.459-2.664 2.664h2.665z" style="baseline-shift:baseline;display:inline;overflow:visible;vector-effect:none;fill:#606060;stroke-width:.5;stop-color:#000" transform="translate(-37.65 -75.85)"/><path d="M42.732 76.103v.62l.114-.114h2.333l-2.448 2.447v.151q-.001.296-.098.563a2 2 0 0 1-.073.171l3.838-3.838zm13.07 0L37.904 94.004v3.762l21.662-21.663Zm13.168 0L37.903 107.17v3.762l34.828-34.83Zm13.167 0-44.234 44.233v3.762l47.995-47.995Zm-26.124.506h2.332L38.408 96.545v-2.332zm13.166 0h2.332L38.408 109.71v-2.332zm13.167 0h2.332l-46.27 46.27v-2.333zm9.87 2.58-51.024 51.025a1.7 1.7 0 0 1 .531.183l50.565-50.564-.005-.021a2 2 0 0 1-.046-.202l-.005-.038a2 2 0 0 1-.016-.223zm-50.44 1.537c-.223.11-.473.172-.736.172h-.151l-2.48 2.48v-2.332l.148-.148h-.654v3.701zm51.696.255-50.857 50.857v.715L94.128 81.04h-.22q-.227 0-.436-.058m3.457 6.663-47.486 47.485h3.762l43.724-43.723Zm-.506 1.22v2.331l-43.428 43.428h-2.332zm.506 11.946-34.32 34.32h3.762l30.558-30.558zm-.506 1.22v2.333l-30.26 30.26H63.83zm.506 11.946-21.153 21.153h3.762l17.39-17.39zm-.506 1.22v2.332l-17.095 17.095h-2.332zm.506 11.947-3.201 3.2h.01q.083-.009.168-.009h.545l1.972-1.971v1.971h.506zm-4.702 4.702-3.285 3.284h3.275v-.506h-2.054l2.054-2.054v-.544q0-.09.01-.18" style="baseline-shift:baseline;display:inline;overflow:visible;vector-effect:none;fill:#262626;stroke-width:.5;stop-color:#000" transform="translate(-37.65 -75.85)"/><path d="M42.732 75.85v1.011h49.484v-1.01zm-5.082 5.048v49.295h1.01V80.898Zm58.52.141v49.295h1.012V81.04Zm-53.555 53.332v1.01h49.602v-1.01z" style="baseline-shift:baseline;display:inline;overflow:visible;vector-effect:none;fill:#262626;stroke-width:.50268;stop-color:#000" transform="translate(-37.65 -75.85)"/></svg>