<svg xmlns="http://www.w3.org/2000/svg" width="100" height="77.365" viewBox="0 0 26.458 20.469"><path d="M64.167 136.091s-1.17-.997-.93-.275c.242.722 1.893 5.555 1.893 5.555l2.236.98 1.358.156 3.457 1.307.465.911.103 2.047v2.855l.963 2.305.62 2.769 3.92-.688s.104-2.167.121-2.253 1.256-3.733 1.256-3.733l-.138-2.132.155-1.669 1.479-.877 3.182-.705 3.474-1.72 1.342-3.973-.327-1.513-1.325.825-1.806.877-.722 2.391s-1.445-2.528-1.53-2.563c-.087-.034-.706.258-.706.258l.826 3.371-.637 1.153-1.788-.069.79-1.737.19-2.528-1.152-.052-2.443 1.703-.601 2.27-1.48.447-1.496-.034-1.1-1.204-.603-2.253-2.304-1.101-.568.774.43 3.061.43.671-2.047-.086-.516-3.594.774-.757-.292-.482-.74.499-.74 2.27-1.031-1.376-.568-1.083-1.634-.499z" style="display:inline;fill:#404040;fill-opacity:1;fill-rule:evenodd;stroke:none;stroke-width:.51411;stroke-linecap:round;stroke-linejoin:round;stroke-miterlimit:10;stroke-dasharray:none;stroke-opacity:1" transform="translate(-62.97 -135.202)"/><path d="M63.432 137.205s-.182-1.192.292-.852c.475.34.414 1.752.706 2.347.292.596.304 1.132.547 1.509s.547 1.045.912 1.386-.62-.085-.62-.085l-1.74-2.14-.206-1.873zM67.968 142.403s-1.135-.98-.62-2.648c.516-1.669.98-2.27 1.239-2.425.258-.155.843-.224.688.481s-.774 1.944-.688 2.666.137 1.754.688 2.064 1.72.585 1.72.585l-1.565.051zM71.966 143.564s.568.07.809-.112c.24-.18-.043.172-.13.534M79.054 143.133s.213.523.401.706-.438.359-.438.359l.286.42 1.314-1.254.529-.158s-1.502.414-2.092-.073M83.9 137.703s-.802-.523-.571.39c.23.912.936 2.03.389 3.32-.547 1.289-1.666 1.714-1.666 1.714l1.775-.498 1.131-1.01-.206-2.298z" style="display:inline;fill:#262626;fill-opacity:1;fill-rule:evenodd;stroke:none;stroke-width:.51411;stroke-linecap:round;stroke-linejoin:round;stroke-miterlimit:10;stroke-dasharray:none;stroke-opacity:1" transform="translate(-62.97 -135.202)"/><path d="M88.242 136.232s-.474.036-.401.547c.073.51-.122 1.544-.292 2.007-.17.462.705-.949.705-.949s-.535 2.031-.742 2.603c-.206.571-.413.863-.413.863l1.447-2.226.523-1.678-.036-.571z" style="display:inline;fill:#272727;fill-opacity:1;fill-rule:evenodd;stroke:none;stroke-width:.51411;stroke-linecap:round;stroke-linejoin:round;stroke-miterlimit:10;stroke-dasharray:none;stroke-opacity:1" transform="translate(-62.97 -135.202)"/><path d="M70.935 137.923s-.13.473.223 1.075-.292.017-.24.292c.05.276.335.439.154.439-.18 0-.49-.172-.49-.172s-.043.335.18.335c.224 0 .5.19.628.164.13-.026.49-.112.723-.112s.774.086.533.292c-.241.207-.645.18-.774.06-.13-.12-.525-.077-.215.086.31.164.524.645.464.766-.06.12-.146.25-.284.223-.137-.025-.129.104.01.112.137.01.532-.12.764-.017.233.103.465.18.241-.086-.223-.267-.533-.542-.12-.791.413-.25.765-.68.714-.877-.052-.198-.31.74-.439.206-.129-.533.232-.8-.568-1.384-.8-.585-1.504-.611-1.504-.611" style="display:inline;fill:#262626;fill-opacity:1;fill-rule:evenodd;stroke:none;stroke-width:.51411;stroke-linecap:round;stroke-linejoin:round;stroke-miterlimit:10;stroke-dasharray:none;stroke-opacity:1" transform="translate(-62.97 -135.202)"/><path d="M73.283 142.045s.17-1.32.383-1.532c.213-.213.615.948.615.948s-.67-.474-.76.48c-.092.955-.238.104-.238.104" style="display:inline;fill:#272727;fill-opacity:1;fill-rule:evenodd;stroke:none;stroke-width:.51411;stroke-linecap:round;stroke-linejoin:round;stroke-miterlimit:10;stroke-dasharray:none;stroke-opacity:1" transform="translate(-62.97 -135.202)"/><path d="M78.975 140.111s.267-.182.353-.705 1.568-1.569 2.213-1.593-.56 1.52-.56 1.52-.182.219.05.085c.23-.134.255.353-.305.438s-1.082.158-.851.377.486.146.644.06c.159-.084.207.195-.133.22s-.353.243-.122.583 0 .608-.34.584c-.341-.024-.536-.085-.536.219s-.206-.097.122-.499c.328-.401.024-.79-.34-.997s-.195-.292-.195-.292" style="display:inline;fill:#262626;fill-opacity:1;fill-rule:evenodd;stroke:none;stroke-width:.51411;stroke-linecap:round;stroke-linejoin:round;stroke-miterlimit:10;stroke-dasharray:none;stroke-opacity:1" transform="translate(-62.97 -135.202)"/><path d="M78.367 140.683s.207.121.292.462c.085.34.097.863.097.863l.195.049s.048-1.058-.353-1.593-.231.219-.231.219" style="display:inline;fill:#272727;fill-opacity:1;fill-rule:evenodd;stroke:none;stroke-width:.51411;stroke-linecap:round;stroke-linejoin:round;stroke-miterlimit:10;stroke-dasharray:none;stroke-opacity:1" transform="translate(-62.97 -135.202)"/><path d="M72.663 147.357s.602 1.22.55 2.132.172 1.256.172 1.256l.293.137.36-.516s-.257.276.018-.74c.275-1.014.172-1.237.172-1.237s-.06.722-.206.825.129-.524-.026-.696-.37-.164-.232.266.12 1.23.12 1.23-.206.911-.266-.163.137-1.652-.086-2.09c-.224-.439-.336-.55-.336-.55s-.163-.173.06-.37c.224-.198.61-.413.456-.55-.155-.138-.585-.44-.395-.482.189-.043.516.292.679.198.163-.095.43-.181-.155-.422-.585-.24-.946-.55-1.16-.473-.216.078-.19.852-.19.852s.052.318.31.275.36-.215.464-.112c.103.103.338.284-.18.305-.516.022-.422.925-.422.925" style="display:inline;fill:#262626;fill-opacity:1;fill-rule:evenodd;stroke:none;stroke-width:.51411;stroke-linecap:round;stroke-linejoin:round;stroke-miterlimit:10;stroke-dasharray:none;stroke-opacity:1" transform="translate(-62.97 -135.202)"/><path d="M77.613 147.493s.28.256.413 1.01c.134.754.268 1.727.39.875.121-.851.389-2.055.389-2.055l.389-.572s.51-.535.23-.51c-.279.024-.668-.195-.656.097s.097.584.097.584-.085.219-.17-.256c-.085-.474-.17-.389-.012-.596s.219-.23.085-.328c-.134-.097.073-.328.243-.39.17-.06.608-.291.608-.291s.305.778.17 1.022c-.133.243-.583 1.264-.583 1.264l.353.158s-.207.487-.329.633c-.121.146-.474.754-.182.851s.097 1.034.097 1.034l-.547.571-.401-.328s-.45-2.48-.584-2.773" style="display:inline;fill:#272727;fill-opacity:1;fill-rule:evenodd;stroke:none;stroke-width:.51411;stroke-linecap:round;stroke-linejoin:round;stroke-miterlimit:10;stroke-dasharray:none;stroke-opacity:1" transform="translate(-62.97 -135.202)"/><path d="M73.891 151.701s.499-.523.998-.632c.498-.11 2.821-.353 3.368.292.548.644-.109 1.264-.109 1.264s-.414-.839-.84-.9c-.425-.06.135-.328-.218-.425s-.328.182-.183.28c.146.097-.304.024-.133.437.17.414.401 1.01.243 1.204-.158.195.097.304.255.365s.22.523.56.304.51-.158.51-.158l-.571 1.168-1.442.41-1.758-.329-.449-.823v-.401s.353.291.596-.05c.244-.34.377-1.094.633-1.337.255-.243-.134-.17-.012-.401.121-.231-.086-.256.024-.377.11-.122-.255-.475-.292-.146s.268.146.207.292-.17-.049-.304.146c-.134.194-.049.571-.292.316-.243-.256-.438-.669-.45-.426s.122.779.024.9c-.097.122-.365-.973-.365-.973" style="display:inline;fill:#262626;fill-opacity:1;fill-rule:evenodd;stroke:none;stroke-width:.51411;stroke-linecap:round;stroke-linejoin:round;stroke-miterlimit:10;stroke-dasharray:none;stroke-opacity:1" transform="translate(-62.97 -135.202)"/><path d="M75.226 155.122s.266.292.997.292.873-.302.873-.302m-2.687-5.02s-.258.317-.473.558-.404.654-.207 1.178c.198.525.327.645.224 1.17s.086 1.255.267 1.617c.18.36.335.567.705.464s.98-.602 1.711-.275 1.084.25 1.23.103c.146-.146.645-.869.524-1.754-.12-.886-.172-1.092.104-1.712 0 0 .384-.482-.085-.828-.468-.347-.614-.505-.614-.505m1.715-3.21s.158 2.444-.353 3.125c-.51.681-.62 1.192-.62 1.192m-5.874-4.451s-.255 2.468.268 3.368.717 1.131.717 1.131m5.765-6.482s.912.62.194 1.581c-.717.961-.571.937-.571.937m-6.21-2.557s-.49.473-.49.757.473 1.307.783 1.694m-1.832-5.615-.636-.791s-.155-.172-.155-1.015-.103-1.944-.103-1.944.086-.86.842-.653c0 0 .757.499.998.55.24.052 1.307.826 1.48 1.686.171.86.24 1.634.773 1.995s.688.516.688.516.877-.413 2.098-.138c0 0 1.015-.378 1.05-1.65.034-1.274.945-1.807.945-1.807s1.072-.844 1.531-.997c.482-.161 1.548-.43 1.307.928 0 0-.275.62-.24 1.256.034.636-.286 1.862-.888 2.24m7.703-5.157s-.037-.426-.316-.426c-.28 0-.608.194-.827 1.143-.22.949-.572 2.31-1.058 2.663m2.427-3.484s.336-.934-.197-1.02-.456.245-.87.606c-.412.361-.593.413-1.012.556-.556.19-1.052.128-1.121.61s-.668 2.243-.823 2.518m-.464 2.726s2.34-.378 3.25-1.6c.912-1.22 1.549-3.41 1.497-3.772-.051-.36-.498-.601-.756-.171s-.912 3.376-2.202 3.806m-3.458 1.451s.073-.036.596-.997-.403-3.09-.403-3.09-.48-.855.049-1.161c.53-.306.89.432.89.432 1.58 2.603 1.02 4.171.96 4.342s-.51 1.301-2.603 1.471c-2.091.17-2.505.973-2.566 1.18s-.438.28-.438.28-1.128-.95-.904-2.067c0 0-.147-.577.61-.336 0 0 .525 0 1.187-.292.644-.207 2.932-.379 2.932-.379m-19.727-4.996s-.336-.946.197-1.032c.534-.086.602.67 1.015 1.032.413.361.757.585 1.05.568.292-.018.894-.018.962.464.07.482.62 1.866.774 2.141m-3.998-2.597s-.095-.868.42-.868c.398 0 .491.387.525 1.195 0 0 .12.98.207 1.187m3.31 3.81s-2.338-.379-3.25-1.6-1.341-3.01-1.29-3.371c.052-.361.499-.602.757-.172s.705 2.975 1.995 3.405m3.458 1.451s-.073-.036-.596-.997.402-3.09.402-3.09.53-.965 0-1.27c-.529-.306-.937.541-.937.541-1.581 2.603-1.022 4.171-.961 4.342.06.17.51 1.301 2.602 1.471s2.506.973 2.566 1.18.438.28.438.28 1.129-.95.905-2.067c0 0 .146-.577-.61-.336 0 0-.525 0-1.187-.292-.766-.292-2.933-.379-2.933-.379" style="display:inline;fill:none;fill-opacity:1;fill-rule:evenodd;stroke:#262626;stroke-width:.51411;stroke-linecap:round;stroke-linejoin:round;stroke-miterlimit:10;stroke-dasharray:none;stroke-opacity:1" transform="translate(-62.97 -135.202)"/><path d="M72.604 145.996c.165-.036.293-.075.423-.188.077-.1.08-.14.083-.221-.3-.233-.337-.208-.525-.242-.101.048-.306.22.019.65M79.655 145.996c-.166-.036-.294-.075-.424-.188-.076-.1-.08-.14-.082-.221.3-.233.336-.208.525-.242.1.048.305.22-.02.65" style="display:inline;fill:#4d4d4d;fill-opacity:1;fill-rule:evenodd;stroke:none;stroke-width:1.37096;stroke-linecap:round;stroke-linejoin:round;stroke-miterlimit:10;stroke-dasharray:none;stroke-opacity:1;paint-order:stroke fill markers" transform="translate(-62.97 -135.202)"/></svg>