<svg width="24" height="65" viewBox="0 0 24 65" fill="none" xmlns="http://www.w3.org/2000/svg">
<path d="M17.5493 22.0371H6.55957L6.55957 53.7572H17.5493V22.0371Z" fill="#3E4035"/>
<path d="M7.7251 22.0371L7.7251 53.7572H12.0542H16.3831V22.0371H12.0542H7.7251Z" fill="#8F8265"/>
<path d="M7.7251 46.7754V53.7587H12.0542H16.3831V46.7754H12.0542H7.7251Z" fill="#FF2A2A"/>
<path d="M4.29492 22.0371V25.2102C4.29492 25.2102 5.25525 27.239 5.2604 28.3266C5.26569 29.449 4.29492 31.5531 4.29492 31.5531V34.7263C4.29492 34.7263 5.25525 36.7551 5.2604 37.8428C5.26569 38.9651 4.29492 41.0692 4.29492 41.0692V44.2425C4.29492 44.2425 5.25525 46.2711 5.2604 47.3588C5.26569 48.4812 4.29492 50.5852 4.29492 50.5852V53.7585H12.0541H19.8131V50.5852C19.8131 50.5852 18.8423 48.4812 18.8477 47.3588C18.8529 46.2711 19.8131 44.2425 19.8131 44.2425V41.0692C19.8131 41.0692 18.8423 38.9651 18.8477 37.8428C18.8529 36.7551 19.8131 34.7263 19.8131 34.7263V31.5531C19.8131 31.5531 18.8423 29.449 18.8477 28.3266C18.8529 27.239 19.8131 25.2102 19.8131 25.2102V22.0371H12.0541H4.29492ZM9.16486 26.2254C9.7226 26.225 10.2577 26.4461 10.6524 26.8402C11.0471 27.2342 11.2692 27.7689 11.2697 28.3266C11.2699 28.6031 11.2157 28.8769 11.11 29.1324C11.0043 29.3879 10.8492 29.62 10.6537 29.8155C10.4582 30.011 10.2261 30.166 9.97061 30.2718C9.71515 30.3775 9.44133 30.4318 9.16486 30.4316C8.6071 30.4311 8.07245 30.209 7.67839 29.8143C7.28433 29.4195 7.06316 28.8844 7.06359 28.3266C7.06412 27.7695 7.28569 27.2354 7.67965 26.8414C8.07361 26.4475 8.60773 26.2259 9.16486 26.2254ZM14.9433 26.2254C15.5004 26.2259 16.0345 26.4475 16.4285 26.8414C16.8224 27.2354 17.044 27.7695 17.0445 28.3266C17.045 28.8844 16.8239 29.4195 16.4298 29.8143C16.0358 30.209 15.501 30.4311 14.9433 30.4316C14.6668 30.4318 14.393 30.3775 14.1375 30.2718C13.882 30.166 13.65 30.011 13.4545 29.8155C13.259 29.62 13.1039 29.3879 12.9982 29.1324C12.8925 28.8769 12.8382 28.6031 12.8384 28.3266C12.839 27.7689 13.061 27.2342 13.4557 26.8402C13.8505 26.4461 14.3855 26.225 14.9433 26.2254ZM9.16486 35.7414C9.72261 35.741 10.2578 35.9621 10.6525 36.3562C11.0472 36.7502 11.2692 37.285 11.2697 37.8428C11.2699 38.1192 11.2156 38.3931 11.1099 38.6485C11.0042 38.904 10.8491 39.136 10.6536 39.3315C10.4581 39.527 10.2261 39.6821 9.97061 39.7878C9.71515 39.8935 9.44132 39.9478 9.16486 39.9476C8.60711 39.9471 8.07245 39.725 7.67839 39.3303C7.28433 38.9356 7.06318 38.4005 7.06359 37.8428C7.06411 37.2856 7.28569 36.7514 7.67965 36.3574C8.07361 35.9635 8.60771 35.7419 9.16486 35.7414ZM14.9433 35.7414C15.5004 35.7419 16.0346 35.9635 16.4286 36.3574C16.8225 36.7514 17.044 37.2856 17.0445 37.8428C17.0449 38.4005 16.8238 38.9356 16.4297 39.3303C16.0357 39.725 15.501 39.9471 14.9433 39.9476C14.6668 39.9478 14.393 39.8935 14.1375 39.7878C13.882 39.6821 13.65 39.527 13.4545 39.3315C13.259 39.136 13.104 38.904 12.9983 38.6485C12.8926 38.393 12.8382 38.1192 12.8384 37.8428C12.8389 37.285 13.061 36.7502 13.4557 36.3562C13.8505 35.9621 14.3855 35.741 14.9433 35.7414ZM9.16486 45.2575C9.7226 45.2571 10.2577 45.4783 10.6524 45.8723C11.0471 46.2663 11.2692 46.801 11.2697 47.3588C11.2699 47.6352 11.2157 47.9091 11.11 48.1645C11.0043 48.42 10.8492 48.6521 10.6537 48.8476C10.4582 49.0431 10.2261 49.1982 9.97061 49.3039C9.71515 49.4096 9.44133 49.4639 9.16486 49.4637C8.6071 49.4632 8.07245 49.2411 7.67839 48.8464C7.28433 48.4517 7.06316 47.9165 7.06359 47.3588C7.06412 46.8016 7.28569 46.2675 7.67965 45.8736C8.07361 45.4796 8.60773 45.258 9.16486 45.2575ZM14.9433 45.2575C15.5004 45.258 16.0345 45.4796 16.4285 45.8736C16.8224 46.2675 17.044 46.8016 17.0445 47.3588C17.045 47.9165 16.8239 48.4517 16.4298 48.8464C16.0358 49.2411 15.501 49.4632 14.9433 49.4637C14.6668 49.4639 14.393 49.4096 14.1375 49.3039C13.882 49.1982 13.65 49.0431 13.4545 48.8476C13.259 48.6521 13.1039 48.42 12.9982 48.1645C12.8925 47.909 12.8382 47.6352 12.8384 47.3588C12.839 46.801 13.061 46.2663 13.4557 45.8723C13.8505 45.4782 14.3855 45.2571 14.9433 45.2575Z" fill="#575946"/>
<path d="M5.88867 34.4238V41.37H18.2195V34.4238H5.88867ZM14.9433 35.7371C15.5011 35.7375 16.0358 35.9595 16.4299 36.3543C16.824 36.749 17.0451 37.2841 17.0446 37.8419C17.0441 38.399 16.8226 38.9331 16.4286 39.3271C16.0347 39.721 15.5005 39.9427 14.9433 39.9431C14.3856 39.9436 13.8504 39.7225 13.4557 39.3285C13.061 38.9344 12.839 38.3996 12.8385 37.8419C12.8383 37.5654 12.8925 37.2916 12.9982 37.0361C13.1039 36.7807 13.2589 36.5485 13.4544 36.353C13.6499 36.1575 13.8821 36.0025 14.1376 35.8968C14.393 35.7911 14.6668 35.7368 14.9433 35.7371ZM9.16482 35.7405C9.441 35.7403 9.71459 35.7944 9.96984 35.8999C10.2251 36.0054 10.457 36.1602 10.6524 36.3553C10.8479 36.5504 11.003 36.7821 11.1089 37.0372C11.2148 37.2922 11.2694 37.5657 11.2696 37.8419C11.2699 38.1184 11.2156 38.3922 11.1099 38.6476C11.0042 38.9031 10.8492 39.1353 10.6537 39.3308C10.4582 39.5263 10.226 39.6813 9.97057 39.787C9.7151 39.8927 9.44129 39.9469 9.16482 39.9467C8.88864 39.9465 8.61529 39.8918 8.36022 39.7859C8.10515 39.68 7.87337 39.525 7.67824 39.3295C7.48312 39.1341 7.32844 38.902 7.22296 38.6468C7.11749 38.3916 7.06332 38.1181 7.06355 37.8419C7.06401 37.2847 7.28553 36.7505 7.6795 36.3566C8.07347 35.9626 8.60766 35.741 9.16482 35.7405Z" fill="#999999"/>
<path d="M4.2939 20.4434C3.41609 20.4474 2.70764 21.162 2.71101 22.0398L2.71101 25.2058C2.70881 25.442 2.75908 25.6756 2.85868 25.8899C2.85868 25.8899 3.07367 26.3343 3.28797 26.9094C3.50227 27.485 3.66301 28.2492 3.6637 28.3315C3.66411 28.4311 3.50433 29.2222 3.28797 29.8205C3.07161 30.4188 2.84558 30.8937 2.84558 30.8937C2.75491 31.1005 2.70889 31.3251 2.71164 31.5511L2.71164 34.7305C2.7115 34.9619 2.75971 35.1906 2.85931 35.4008C2.85931 35.4008 3.07429 35.8583 3.28859 36.4338C3.5029 37.0094 3.66364 37.7735 3.66433 37.8558C3.66474 37.9554 3.50496 38.7332 3.28859 39.3315C3.07223 39.9297 2.84631 40.4047 2.84631 40.4047C2.75565 40.6114 2.70962 40.8361 2.71237 41.062L2.71237 44.2414C2.71017 44.4777 2.76045 44.7113 2.86004 44.9256C2.86004 44.9256 3.07503 45.37 3.28933 45.9452C3.50363 46.5208 3.66437 47.2848 3.66506 47.3672C3.66554 47.4668 3.50569 48.258 3.28933 48.8563C3.07297 49.4545 2.84694 49.916 2.84694 49.916C2.75421 50.1275 2.70819 50.3563 2.713 50.5871V53.7531C2.70963 54.6309 3.41819 55.3454 4.29599 55.3495H12.0499H19.8174C20.6952 55.3454 21.4038 54.6309 21.4004 53.7531L21.4004 50.5871C21.405 50.3563 21.3592 50.1275 21.2665 49.916C21.2665 49.916 21.0405 49.4545 20.8242 48.8563C20.6078 48.258 20.4478 47.4669 20.4485 47.3672C20.4488 47.2848 20.6092 46.5205 20.8242 45.9452C21.0385 45.3696 21.2535 44.9256 21.2535 44.9256C21.3531 44.7113 21.4032 44.4777 21.4011 44.2414V41.062C21.4038 40.8361 21.3599 40.6114 21.2672 40.4047C21.2672 40.4047 21.0412 39.9294 20.8248 39.3315C20.6085 38.7332 20.4484 37.9555 20.4491 37.8558C20.4495 37.7734 20.6098 37.0091 20.8248 36.4338C21.0391 35.8582 21.2541 35.4008 21.2541 35.4008C21.3516 35.1906 21.4018 34.9619 21.4018 34.7305V31.5511C21.4044 31.3251 21.3606 31.1005 21.2678 30.8937C21.2678 30.8937 21.0419 30.4184 20.8255 29.8205C20.6092 29.2222 20.4491 28.4312 20.4498 28.3315C20.4502 28.2491 20.6106 27.4847 20.8255 26.9094C21.0398 26.3338 21.2548 25.8899 21.2548 25.8899C21.3544 25.6756 21.4046 25.442 21.4025 25.2058V22.0398C21.4059 21.162 20.6973 20.4474 19.8195 20.4434H12.0521H4.2939ZM5.89031 23.6228H12.0479H18.2188V24.924C18.1233 25.1356 18.0278 25.3148 17.8431 25.8095C17.5779 26.5204 17.2709 27.3128 17.2661 28.3181C17.2612 29.3408 17.5635 30.1728 17.8293 30.9072C18.0217 31.4396 18.1261 31.6513 18.2182 31.8597V34.422C18.1241 34.6308 18.0293 34.8197 17.8424 35.3208C17.5773 36.0319 17.2703 36.8242 17.2655 37.8295C17.2606 38.8522 17.5629 39.6842 17.8287 40.4186C18.021 40.9509 18.1254 41.1627 18.2174 41.3711V43.9468C18.122 44.1584 18.0265 44.3376 17.8417 44.8322C17.5766 45.5433 17.2696 46.3489 17.2647 47.3543C17.2599 48.377 17.5622 49.1956 17.828 49.93C18.0203 50.4623 18.1248 50.6741 18.2168 50.8825V52.1704H12.0457H5.88821V50.8825C5.98025 50.6744 6.08462 50.4621 6.27694 49.93C6.54276 49.1956 6.84498 48.377 6.84017 47.3543C6.83536 46.3489 6.52834 45.5433 6.26321 44.8322C6.07913 44.3377 5.98295 44.1585 5.88748 43.9468V41.3711C5.97952 41.163 6.08389 40.9507 6.27621 40.4186C6.54202 39.6842 6.84425 38.8522 6.83944 37.8295C6.83463 36.8242 6.52761 36.0319 6.26248 35.3208C6.07565 34.8201 5.98095 34.6306 5.88685 34.422L5.88685 31.8597C5.97889 31.6516 6.08326 31.4393 6.27558 30.9072C6.54139 30.1728 6.84362 29.3408 6.83881 28.3181C6.834 27.3128 6.52698 26.5204 6.26185 25.8095C6.07777 25.3149 5.98159 25.1357 5.88612 24.924L5.89031 23.6228Z" fill="#202020"/>
<path d="M4.29684 12.8164L1.9541 14.4627L1.9541 17.4262L1.9541 20.3896L4.29684 22.036H12.0568H19.817L22.1596 20.3896V17.4262V14.4627L19.817 12.8164L12.0568 12.8164H4.29684Z" fill="#575946" stroke="#202020" stroke-width="3.18017" stroke-linecap="square" stroke-linejoin="round"/>
<path d="M8.38267 12.8164L6.04004 14.4627V17.4262V20.3896L8.38267 22.036H15.7304L18.0732 20.3896V17.4262V14.4627L15.7304 12.8164H8.38267Z" fill="#3E4035" stroke="#202020" stroke-width="3.18017" stroke-linecap="square" stroke-linejoin="round"/>
<path d="M4.29674 53.7559L1.9541 55.4022L1.9541 58.3657L1.9541 61.3292L4.29674 62.9755H12.0568H19.8169L22.1596 61.3292V58.3657V55.4022L19.8169 53.7559H12.0568H4.29674Z" fill="#575946" stroke="#202020" stroke-width="3.18017" stroke-linecap="square" stroke-linejoin="round"/>
<path d="M14.8529 2.84961L15.7306 3.63209H18.4851L14.8529 8.58305L15.7306 12.8165C15.7306 12.8165 8.0251 12.8165 7.91994 12.8165H2.32422L5.87055 2.84961L14.8529 2.84961Z" fill="#4E4735" stroke="#202020" stroke-width="3.1803" stroke-linecap="square" stroke-linejoin="round"/>
<path d="M15.4517 3.63252C15.4517 4.03517 15.5301 4.43393 15.6825 4.80593C15.835 5.17794 16.0584 5.51593 16.3401 5.80065C16.6218 6.08537 16.9561 6.31125 17.3241 6.46533C17.6921 6.61942 18.0866 6.69874 18.485 6.69874C18.8833 6.69874 19.2777 6.61942 19.6457 6.46533C20.0137 6.31125 20.3482 6.08537 20.6298 5.80065C20.9115 5.51593 21.1349 5.17794 21.2874 4.80593C21.4398 4.43393 21.5183 4.03517 21.5183 3.63252C21.5183 3.22986 21.4398 2.83121 21.2874 2.45921C21.1349 2.08721 20.9115 1.74921 20.6298 1.46449C20.3482 1.17977 20.0137 0.953896 19.6457 0.79981C19.2777 0.645725 18.8833 0.566401 18.485 0.566406C18.0866 0.566401 17.6921 0.645725 17.3241 0.79981C16.9561 0.953896 16.6218 1.17977 16.3401 1.46449C16.0584 1.74921 15.835 2.08721 15.6825 2.45921C15.5301 2.83121 15.4517 3.22986 15.4517 3.63252Z" fill="#202020"/>
<path d="M8.38267 53.7559L6.04004 55.4022V58.3656V61.3291L8.38267 62.9755H15.7304L18.0732 61.3291V58.3656V55.4022L15.7304 53.7559H8.38267Z" fill="#3E4035" stroke="#202020" stroke-width="3.18017" stroke-linecap="square" stroke-linejoin="round"/>
</svg>
