<svg width="18" height="19" viewBox="0 0 18 19" fill="none" xmlns="http://www.w3.org/2000/svg">
<path d="M8.68221 1.31278C7.34244 1.34416 6.03196 1.71229 4.87124 2.38338C3.96147 2.90953 3.16413 3.61009 2.52462 4.44502C1.88511 5.27995 1.41599 6.23286 1.14411 7.24943C0.872233 8.266 0.8029 9.32631 0.940051 10.3697C1.0772 11.4132 1.41817 12.4192 1.94347 13.3306C3.00408 15.1712 4.75098 16.5142 6.79999 17.0643C8.84899 17.6145 11.0323 17.3266 12.8694 16.264C13.7792 15.7379 14.5766 15.0373 15.2162 14.2024C15.8557 13.3674 16.3247 12.4145 16.5966 11.3979C16.8684 10.3813 16.9378 9.32103 16.8006 8.27759C16.6634 7.23415 16.3224 6.22799 15.7971 5.31659C15.079 4.0708 14.0395 3.04165 12.7876 2.33716C11.5356 1.63266 10.1177 1.27884 8.68221 1.31278ZM8.70967 4.20806C9.63665 4.18616 10.5524 4.41477 11.3607 4.8698C12.1691 5.32484 12.8404 5.98947 13.3039 6.79405C13.9886 7.9823 14.1741 9.39447 13.8197 10.7198C13.4653 12.0451 12.5999 13.1751 11.4139 13.8611C10.2279 14.547 8.81854 14.7328 7.4958 14.3777C6.17306 14.0227 5.04522 13.1557 4.36041 11.9676C4.0212 11.3792 3.80101 10.7297 3.71239 10.056C3.62377 9.3824 3.66846 8.6979 3.84392 8.04156C4.01939 7.38522 4.32226 6.76991 4.73509 6.23082C5.14793 5.69173 5.66263 5.23942 6.24997 4.89967C6.99909 4.46639 7.84491 4.22856 8.70967 4.20806Z" fill="#9D9FA1" stroke="#202020" stroke-width="1.59015"/>
</svg>
