<svg width="23" height="23" viewBox="0 0 23 23" fill="none" xmlns="http://www.w3.org/2000/svg">
<path d="M11.5926 1.74888C9.91817 1.78811 8.28046 2.24819 6.8298 3.08691C5.69278 3.7445 4.69614 4.62005 3.89688 5.66355C3.09763 6.70704 2.51145 7.89811 2.17166 9.16861C1.83187 10.4391 1.74522 11.7642 1.91663 13.0682C2.08804 14.3723 2.51418 15.6298 3.17069 16.7688C4.49624 19.0692 6.67951 20.7477 9.24035 21.4352C11.8012 22.1228 14.5297 21.763 16.8258 20.435C17.9628 19.7774 18.9594 18.9019 19.7587 17.8584C20.558 16.8149 21.1443 15.6239 21.4841 14.3533C21.8238 13.0828 21.9105 11.7575 21.7391 10.4535C21.5676 9.14938 21.1414 7.89189 20.4849 6.75283C19.5874 5.19584 18.2882 3.90962 16.7235 3.02914C15.1588 2.14867 13.3867 1.70646 11.5926 1.74888ZM11.6269 5.36752C12.7855 5.34015 13.93 5.62574 14.9404 6.19443C15.9507 6.76313 16.7894 7.59391 17.3687 8.59948C18.2245 10.0845 18.4565 11.8493 18.0136 13.5057C17.5706 15.1621 16.489 16.5743 15.0068 17.4318C13.5245 18.289 11.7631 18.5213 10.11 18.0775C8.45681 17.6338 7.04724 16.5502 6.19137 15.0654C5.76743 14.33 5.49224 13.5182 5.38148 12.6763C5.27073 11.8344 5.32658 10.9788 5.54587 10.1585C5.76517 9.33819 6.14356 8.56931 6.65952 7.89556C7.17548 7.22181 7.81888 6.65638 8.55293 6.23177C9.48918 5.69025 10.5462 5.39314 11.6269 5.36752Z" fill="#9D9FA1" stroke="#202020" stroke-width="1.98736"/>
</svg>
