<svg width="43" height="65" viewBox="0 0 43 65" fill="none" xmlns="http://www.w3.org/2000/svg">
<path d="M21.1365 26.4297C16.6234 26.4309 12.2956 28.2261 9.10485 31.4206C5.91412 34.6151 4.12187 38.9472 4.12207 43.4642C4.12184 47.9812 5.91412 52.3132 9.10485 55.5077C12.2956 58.7022 16.6234 60.4975 21.1365 60.4987C23.3716 60.4988 25.5848 60.0583 27.6498 59.2023C29.7148 58.3463 31.5911 57.0915 33.1716 55.5097C34.752 53.9279 36.0057 52.0498 36.861 49.9831C37.7163 47.9163 38.1564 45.7012 38.1563 43.4642C38.1564 41.2271 37.7163 39.0119 36.861 36.9451C36.0057 34.8784 34.752 33.0005 33.1716 31.4187C31.5911 29.8368 29.7148 28.5821 27.6498 27.726C25.5848 26.87 23.3716 26.4296 21.1365 26.4297Z" fill="#575946"/>
<path d="M36.8088 41.9102H5.47021V45.0197H36.8088V41.9102Z" fill="#3E4035"/>
<path d="M15.73 18.2148V24.6607H21.1337H26.5424V18.2148H15.73Z" fill="#575946"/>
<path d="M26.5508 15.9277C27.1547 15.9305 27.7332 16.1716 28.1603 16.5987C28.5873 17.0258 28.8285 17.6042 28.8312 18.2082V24.6631C28.8284 25.267 28.5873 25.8455 28.1603 26.2726C27.7332 26.6996 27.1547 26.9408 26.5508 26.9435H21.1396H15.7282C15.1243 26.9408 14.5458 26.6996 14.1187 26.2726C13.6917 25.8455 13.4505 25.267 13.4478 24.6631V18.2082C13.4505 17.6042 13.6917 17.0258 14.1187 16.5987C14.5458 16.1716 15.1243 15.9305 15.7282 15.9277H26.5508ZM24.251 20.508H18.028V22.3633H21.1396H24.251V20.508Z" fill="#202020"/>
<path d="M21.1397 22.3633C32.7547 22.3627 42.2303 31.855 42.2298 43.4763C42.2303 55.0978 32.7547 64.5673 21.1397 64.5665C9.52714 64.5636 0.0487227 55.0952 0.0493164 43.4763C0.0487227 31.8576 9.52714 22.3663 21.1397 22.3633ZM21.1397 27.7727C12.4536 27.7751 5.45833 34.779 5.45893 43.4763C5.45833 52.1738 12.4536 59.155 21.1397 59.1572C29.8276 59.1576 36.7979 52.1759 36.7975 43.4763C36.7979 34.777 29.8276 27.7723 21.1397 27.7727Z" fill="#202020"/>
<path d="M26.1401 4.98345C26.1401 5.56351 26.2532 6.13796 26.4728 6.67387C26.6924 7.20978 27.0143 7.69669 27.42 8.10686C27.8258 8.51702 28.3075 8.84242 28.8376 9.0644C29.3678 9.28637 29.9361 9.4005 30.5099 9.40049C31.0838 9.4005 31.6521 9.28637 32.1822 9.0644C32.7124 8.84242 33.194 8.51702 33.5998 8.10686C34.0056 7.69669 34.3275 7.20978 34.5471 6.67387C34.7667 6.13796 34.8797 5.56351 34.8797 4.98345C34.8797 4.40338 34.7667 3.82909 34.5471 3.29318C34.3275 2.75727 34.0056 2.2702 33.5998 1.86004C33.194 1.44987 32.7124 1.12462 32.1822 0.902648C31.6521 0.680672 31.0838 0.566398 30.5099 0.566406C29.9361 0.566398 29.3678 0.680672 28.8376 0.902648C28.3075 1.12462 27.8258 1.44987 27.42 1.86004C27.0143 2.2702 26.6924 2.75727 26.4728 3.29318C26.2532 3.82909 26.1401 4.40338 26.1401 4.98345Z" fill="#202020"/>
<path d="M25.278 3.85547L26.5423 4.98272L30.5103 4.98272L25.278 12.1151L26.5423 18.2138C26.5423 18.2138 15.4418 18.2138 15.2903 18.2138H7.229L12.338 3.85547L25.278 3.85547Z" fill="#4E4735" stroke="#202020" stroke-width="4.58155" stroke-linecap="square" stroke-linejoin="round"/>
</svg>
