<svg xmlns="http://www.w3.org/2000/svg" width="2027.254" height="635.75" viewBox="0 0 536.378 168.209"><defs><clipPath id="a" clipPathUnits="userSpaceOnUse"><path d="M.012.219V167.15h535.292V.219h-153.96l-17.762 18.528-10.178-1.246-13.566 3.527-13.17-4.388-11.713 3.568-19.88-19.99Zm410.077 42.045h29.661v79.381h-29.66zm-220.9 74.411h78.381v29.169h-78.38z" style="fill:#4d4d4d;fill-opacity:1;stroke-width:1"/></clipPath><clipPath id="b" clipPathUnits="userSpaceOnUse"><path fill="#4d4d4d" d="M.473 167.151.012 392.393H187.51V167.15Zm87.196 88.686h77.892v28.517H87.669Zm-.163 42.857h78.381v28.68h-78.38Z" style="stroke-width:1"/></clipPath></defs><path d="M.541.748V167.68h535.292V.748h-153.96l-17.761 18.528-10.18-1.245-13.565 3.526-13.17-4.387-11.713 3.568-19.88-19.99Zm410.077 42.045h29.662v79.381h-29.662Zm-220.9 74.411H268.1v29.169h-78.38z" style="fill:#4d4d4d;fill-opacity:1"/><g fill="#606060" clip-path="url(#a)" transform="translate(.53 .53)"><path d="M5.39 42.264V67.61h528.058V42.264ZM5.39 2.573V27.92h528.058V2.573ZM3.337 121.645h527.974v25.347H3.337zM5.39 81.954v25.348h528.058V81.954Z"/></g><path fill="#4d4d4d" d="m1.002 167.68-.46 225.242H188.04V167.68Zm87.196 88.686h77.892v28.517H88.198Zm-.163 42.857h78.381v28.68h-78.38Z"/><g fill="#606060" stroke-width=".32" clip-path="url(#b)" transform="translate(.53 .53)"><path d="M8.532 201.027h170.183v25.347H8.532zM8.793 359.789h170.183v25.347H8.793zM8.973 320.098h170.183v25.347H8.973zM7.869 280.408h170.183v25.347H7.869zM8.532 240.717h170.183v25.347H8.532zM8.076 161.336v25.347H178.26v-25.347Z"/></g><path d="m301.789 6.593 13.695 14.145 11.713-3.568 13.17 4.387 13.566-3.526 10.179 1.245 11.315-10.72" style="opacity:1;fill:none;fill-opacity:1;stroke:#4a4a4a;stroke-width:2.64583;stroke-dasharray:none;stroke-opacity:1;paint-order:stroke fill markers"/><path d="M.53.53v392.15l187.512.01v-1.697h.011V167.68h347.795V.53H525.82V.53H382.1l-6.274 2.571-4.219 7.497h78.048v147.014h-160.51V10.599h17.18l-3.396-7.291L295.352.53Zm10.067 10.069h268.479v147.014h-91.023v-.01h-10.067v.01H10.596Zm449.125 0h66.098v147.014h-66.098ZM10.597 167.68h167.389v214.943H10.596Z" style="fill:#262626;fill-opacity:1;stroke:#262626;stroke-width:1.05833;stroke-dasharray:none;stroke-opacity:1"/><path d="M2.42 4.293v384.634a1.85 1.85 0 0 0 1.852 1.852h179.999a1.85 1.85 0 0 0 1.852-1.852v-223.15h345.983a1.85 1.85 0 0 0 1.852-1.853V4.293a1.85 1.85 0 0 0-1.852-1.852h-148.03l-6.012 2.209-2.515 4.037h76.09v150.827H287.214V8.687h15.718l-2.044-3.927-6.84-2.32H4.272A1.85 1.85 0 0 0 2.42 4.294m6.247 4.394h272.3v150.827H8.667Zm449.218 0h69.826v150.827h-69.826ZM8.667 165.777h171.21v218.759H8.666Z" style="fill:#606060;fill-opacity:1"/><g transform="scale(1 -1)rotate(15 -.202 -1.532)"><circle cx="64.897" cy="-401.269" r="10.001" fill="#a7a7aa"/><circle cx="64.897" cy="-401.269" r="7.011" fill="#cbcbcd"/></g><rect width="13.787" height="94.774" x="304.124" y="37.177" fill="gray" stroke-width=".6" ry="8.295" style="stroke:#b3b3b3;stroke-width:5.29167;stroke-dasharray:none;stroke-opacity:1;paint-order:stroke fill markers"/><rect width="1.31" height="98.222" x="310.362" y="35.842" fill="#b3b3b3" ry=".655"/><g transform="translate(.33)"><rect width="13.787" height="94.774" x="340.265" y="37.172" fill="gray" stroke-width=".6" ry="8.295" style="stroke:#b3b3b3;stroke-width:3.96875;stroke-dasharray:none;stroke-opacity:1;paint-order:stroke fill markers"/><rect width="1.31" height="98.222" x="346.503" y="35.837" fill="#b3b3b3" ry=".655"/></g><rect width="13.787" height="94.774" x="376.405" y="37.193" fill="gray" stroke-width=".6" ry="8.295" style="stroke:#b3b3b3;stroke-width:3.96875;stroke-dasharray:none;stroke-opacity:1;paint-order:stroke fill markers"/><rect width="1.31" height="98.222" x="382.644" y="35.858" fill="#b3b3b3" ry=".655"/><path fill="#333" d="M409.64 41.64v81.687h31.455V41.64Zm27.393 3.126v32.95H413.54v-32.95Zm0 41.024v32.823H413.54V85.79Z"/><path d="M294.02 261.268h30.557v4.121H294.02zM294.02 274.519h30.557v4.121H294.02zM294.02 267.893h30.557v4.121H294.02zM253.545 261.268h30.557v4.121h-30.557z" style="fill:#999;stroke-width:.495627" transform="translate(-162.099 .53)"/><path fill="#333" d="M167.392 254.91h-80.66v31.454h80.66zm-4.315 27.392h-32.02v-23.494h32.02zm-39.867 0H91.314v-23.494h31.896z"/><path fill="#666" d="M131.19 257.126a2.165 2.165 0 0 0-2.182 2.158v22.705c0 1.196.973 2.158 2.181 2.158h32.02a2.165 2.165 0 0 0 2.182-2.158v-22.705a2.165 2.165 0 0 0-2.181-2.158zm.97 2.773h30.083v21.2h-30.084z"/><path d="M253.545 274.519h30.557v4.121h-30.557zM253.545 267.893h30.557v4.121h-30.557z" style="fill:#999;stroke-width:.495627" transform="translate(-162.099 .53)"/><path fill="#666" d="M90.915 257.126a2.165 2.165 0 0 0-2.181 2.158v22.705c0 1.196.973 2.158 2.181 2.158h32.02a2.165 2.165 0 0 0 2.182-2.158v-22.705a2.165 2.165 0 0 0-2.182-2.158zm.97 2.773h30.084v21.2H91.885z"/><path d="M294.02 261.268h30.557v4.121H294.02zM294.02 274.519h30.557v4.121H294.02zM294.02 267.893h30.557v4.121H294.02zM253.545 261.268h30.557v4.121h-30.557z" style="fill:#999;stroke-width:.495627" transform="translate(-162.099 43.32)"/><path fill="#333" d="M167.392 297.7h-80.66v31.455h80.66zm-4.315 27.394h-32.02V301.6h32.02zm-39.867 0H91.314V301.6h31.896z"/><path fill="#666" d="M131.19 299.918a2.165 2.165 0 0 0-2.182 2.158v22.704c0 1.196.973 2.158 2.181 2.158h32.02a2.165 2.165 0 0 0 2.182-2.158v-22.704a2.165 2.165 0 0 0-2.181-2.158zm.97 2.772h30.083v21.2h-30.084z"/><path d="M253.545 274.519h30.557v4.121h-30.557zM253.545 267.893h30.557v4.121h-30.557z" style="fill:#999;stroke-width:.495627" transform="translate(-162.099 43.32)"/><path fill="#666" d="M90.915 299.918a2.165 2.165 0 0 0-2.181 2.158v22.704c0 1.196.973 2.158 2.181 2.158h32.02a2.165 2.165 0 0 0 2.182-2.158v-22.704a2.165 2.165 0 0 0-2.182-2.158zm.97 2.772h30.084v21.2H91.885z"/><path d="M294.02 261.268h30.557v4.121H294.02zM294.02 274.519h30.557v4.121H294.02zM294.02 267.893h30.557v4.121H294.02zM253.545 261.268h30.557v4.121h-30.557z" style="fill:#999;stroke-width:.495627" transform="translate(-60.457 -138.313)"/><path fill="#333" d="M269.034 116.068h-80.66v31.454h80.66zm-4.315 27.392H232.7v-23.494h32.02zm-39.867 0h-31.896v-23.494h31.896z"/><path fill="#666" d="M232.831 118.284a2.165 2.165 0 0 0-2.181 2.158v22.705c0 1.196.973 2.158 2.181 2.158h32.02a2.165 2.165 0 0 0 2.182-2.158v-22.705a2.165 2.165 0 0 0-2.181-2.158zm.97 2.773h30.084v21.2H233.8z"/><path d="M253.545 274.519h30.557v4.121h-30.557zM253.545 267.893h30.557v4.121h-30.557z" style="fill:#999;stroke-width:.495627" transform="translate(-60.457 -138.313)"/><path fill="#666" d="M192.557 118.284a2.165 2.165 0 0 0-2.181 2.158v22.705c0 1.196.973 2.158 2.181 2.158h32.02a2.165 2.165 0 0 0 2.182-2.158v-22.705a2.165 2.165 0 0 0-2.182-2.158zm.97 2.773h30.084v21.2h-30.084z"/><path d="M199.288-322.403h30.557v4.121h-30.557zM199.288-309.152h30.557v4.121h-30.557zM199.288-315.777h30.557v4.121h-30.557z" style="fill:#999;stroke-width:.495627" transform="rotate(90 132.112 -20.308)"/><path fill="#666" d="M438.878 46.336a2.165 2.165 0 0 0-2.158-2.181h-22.705a2.165 2.165 0 0 0-2.158 2.181v32.02c0 1.21.962 2.182 2.158 2.182h22.705a2.165 2.165 0 0 0 2.158-2.181zm-2.772.97V77.39h-21.2V47.306z"/><path d="M199.288-322.403h30.557v4.121h-30.557zM199.288-309.152h30.557v4.121h-30.557zM199.288-315.777h30.557v4.121h-30.557z" style="fill:#999;stroke-width:.495627" transform="rotate(90 111.975 -.17)"/><path fill="#666" d="M438.878 86.61a2.165 2.165 0 0 0-2.158-2.18h-22.705a2.165 2.165 0 0 0-2.158 2.18v32.02c0 1.21.962 2.182 2.158 2.182h22.705a2.165 2.165 0 0 0 2.158-2.181zm-2.772.97v30.084h-21.2V87.58z"/><g transform="translate(-160.938 -62.697)"><circle cx="307.937" cy="263.577" r="14.287" fill="gray" stroke-width=".401" style="stroke:#333;stroke-width:5.29167;stroke-dasharray:none;stroke-opacity:1;paint-order:stroke markers fill"/><circle cx="307.937" cy="263.577" r="5.953" fill="#333"/><rect width="23.947" height="2.619" x="295.963" y="262.267" ry="1.31" style="fill:#666;stroke-width:.393965"/><rect width="23.947" height="2.619" x="-275.55" y="306.627" ry="1.31" style="fill:#666;stroke-width:.393965" transform="rotate(-90)"/></g><g transform="translate(-200.811 -62.697)"><circle cx="307.937" cy="263.577" r="14.287" fill="gray" stroke-width=".401" style="stroke:#333;stroke-width:5.29167;stroke-dasharray:none;stroke-opacity:1;paint-order:stroke markers fill"/><circle cx="307.937" cy="263.577" r="5.953" fill="#333"/><rect width="23.947" height="2.619" x="295.963" y="262.267" ry="1.31" style="fill:#666;stroke-width:.393965"/><rect width="23.947" height="2.619" x="-275.55" y="306.627" ry="1.31" style="fill:#666;stroke-width:.393965" transform="rotate(-90)"/></g><g transform="rotate(-90 169.202 182.857)"><circle cx="307.937" cy="263.577" r="14.287" fill="gray" stroke-width=".401" style="stroke:#333;stroke-width:5.29167;stroke-dasharray:none;stroke-opacity:1;paint-order:stroke markers fill"/><circle cx="307.937" cy="263.577" r="5.953" fill="#333"/><rect width="23.947" height="2.619" x="295.963" y="262.267" ry="1.31" style="fill:#666;stroke-width:.393965"/><rect width="23.947" height="2.619" x="-275.55" y="306.627" ry="1.31" style="fill:#666;stroke-width:.393965" transform="rotate(-90)"/></g><g transform="rotate(-90 191.392 205.047)"><circle cx="307.937" cy="263.577" r="14.287" fill="gray" stroke-width=".401" style="stroke:#333;stroke-width:5.29167;stroke-dasharray:none;stroke-opacity:1;paint-order:stroke markers fill"/><circle cx="307.937" cy="263.577" r="5.953" fill="#333"/><rect width="23.947" height="2.619" x="295.963" y="262.267" ry="1.31" style="fill:#666;stroke-width:.393965"/><rect width="23.947" height="2.619" x="-275.55" y="306.627" ry="1.31" style="fill:#666;stroke-width:.393965" transform="rotate(-90)"/></g><g transform="rotate(-90 330.2 98.043)"><circle cx="307.937" cy="263.577" r="14.287" fill="gray" stroke-width=".401" style="stroke:#333;stroke-width:5.29167;stroke-dasharray:none;stroke-opacity:1;paint-order:stroke markers fill"/><circle cx="307.937" cy="263.577" r="5.953" fill="#333"/><rect width="23.947" height="2.619" x="295.963" y="262.267" ry="1.31" style="fill:#666;stroke-width:.393965"/><rect width="23.947" height="2.619" x="-275.55" y="306.627" ry="1.31" style="fill:#666;stroke-width:.393965" transform="rotate(-90)"/></g><g transform="rotate(-15 89.434 -476.791)"><circle cx="-13.136" cy="115.82" r="24.871" style="fill:#cbcbcd;fill-opacity:1;stroke:#a7a7aa;stroke-width:4.23333;stroke-dasharray:none;stroke-opacity:1;paint-order:stroke fill markers"/><path d="M-38.007 115.82h49.742M-13.136 140.69V90.95" style="fill:#cbcbcd;fill-opacity:1;stroke:#a7a7aa;stroke-width:2.64583;stroke-linecap:square;stroke-dasharray:none;stroke-opacity:1;paint-order:stroke fill markers"/></g><g transform="rotate(-45 -18.936 -108.436)"><circle cx="-13.136" cy="115.82" r="24.871" style="fill:#cbcbcd;fill-opacity:1;stroke:#a7a7aa;stroke-width:4.23333;stroke-dasharray:none;stroke-opacity:1;paint-order:stroke fill markers"/><path d="M-38.007 115.82h49.742M-13.136 140.69V90.95" style="fill:#cbcbcd;fill-opacity:1;stroke:#a7a7aa;stroke-width:2.64583;stroke-linecap:square;stroke-dasharray:none;stroke-opacity:1;paint-order:stroke fill markers"/></g></svg>