<svg xmlns="http://www.w3.org/2000/svg" xml:space="preserve" width="84" height="84" viewBox="0 0 19.209 25.929"><circle cx="9.655" cy="12.964" r="11.983" style="fill:#ffc703;fill-opacity:1;fill-rule:evenodd;stroke:#584d00;stroke-width:1.06519;stroke-linecap:round;stroke-linejoin:round;stroke-miterlimit:29;stroke-dasharray:none;stroke-opacity:1"/><path d="M8.887 7.15c-.74-.047-2.92-1.148-3.936-1.018-3.98.51-5.88-.094-5.88-.094s-1.666 2.779-1.898 6.02c0 0 2.824 1.621 6.39 1.204 3.564-.416 4.074 1.019 5.741.973 1.667-.047 2.963-.649 4.028-.88 1.065-.232 3.612-.185 4.77-.788 1.157-.601 1.018-1.157 2.176-1.574 1.157-.417 1.758-.138 1.758-.138s-.37-3.01-2.592-5.696c0 0-.555.371-1.389.371s-2.824-.047-4.122.23c-1.296.278-1.063.095-1.342-.045-.277-.139-4.845.238-4.954.787-.046.231 1.25.649 1.25.649" style="fill:#e4e0cd;fill-opacity:1;fill-rule:evenodd;stroke:none;stroke-width:1.06518;stroke-linecap:round;stroke-linejoin:round;stroke-miterlimit:29;stroke-dasharray:none;stroke-opacity:1"/><path d="M8.61 7.103s4.166 2.315 12.686 1.575m-23.29.093s7.964.185 8.798 4.676m6.62-.092s-3.518-.742-5.278-3.797-5.601-3.195-5.601-3.195" style="fill:#e4e0cd;fill-opacity:1;fill-rule:evenodd;stroke:#8c8773;stroke-width:1.06518;stroke-linecap:round;stroke-linejoin:round;stroke-miterlimit:29;stroke-dasharray:none;stroke-opacity:1"/><path d="M13.672 19.56c0 1.696-1.885 1.358-3.581 1.358s-5.062.338-5.062-1.358c0-1.698 3.365-3.072 5.062-3.072 1.696 0 3.581 1.374 3.581 3.072" style="fill:#584d00;fill-opacity:1;fill-rule:evenodd;stroke:#584e00;stroke-width:.686087;stroke-linecap:round;stroke-linejoin:round;stroke-miterlimit:29;stroke-dasharray:none"/><path d="M9.146 7.353c-.843-.44-3.18-1.351-4.195-1.221-3.98.51-5.88-.094-5.88-.094s-1.666 2.779-1.898 6.02c0 0 2.824 1.621 6.39 1.204 3.564-.416 4.074 1.019 5.741.973 1.667-.047 2.963-.649 4.028-.88 1.065-.232 3.612-.185 4.77-.788 1.157-.601 1.018-1.157 2.176-1.574 1.157-.417 1.758-.138 1.758-.138s-.37-3.01-2.592-5.696c0 0-.555.371-1.389.371s-2.108-.047-3.406.23c-1.297.278-1.78.095-2.058-.045-.277-.139-4.845.238-4.954.787-.046.231 3.827 1.597 2.935 1.354z" style="fill:none;fill-opacity:1;fill-rule:evenodd;stroke:#423d24;stroke-width:1.06518;stroke-linecap:round;stroke-linejoin:round;stroke-miterlimit:29;stroke-dasharray:none;stroke-opacity:1"/></svg>