<svg xmlns="http://www.w3.org/2000/svg" width="84" height="84"><path fill="#f3be3a" stroke="#b76b00" stroke-width="5" d="M2.5 64.536C2.5 30.274 30.274 2.5 64.536 2.5s62.035 27.774 62.035 62.036-27.774 62.035-62.035 62.035C30.274 126.571 2.5 98.797 2.5 64.536z" style="mix-blend-mode:normal;fill:#ffc703;fill-opacity:1;fill-rule:nonzero;stroke:#584d00;stroke-linejoin:miter;stroke-miterlimit:10;stroke-dasharray:none;stroke-dashoffset:0;stroke-opacity:1" transform="scale(.6508)"/><path fill="#ff5768" d="M16.786 68.036c0-7.732 6.268-14 14-14s14 6.268 14 14-6.268 14-14 14-14-6.268-14-14M84.286 68.036c0-7.732 6.268-14 14-14s14 6.268 14 14-6.268 14-14 14-14-6.268-14-14" style="mix-blend-mode:normal;fill:#ff7768;fill-opacity:1;fill-rule:nonzero;stroke-linejoin:miter;stroke-miterlimit:10;stroke-dasharray:none;stroke-dashoffset:0" transform="scale(.6508)"/><path fill="none" stroke="#000" stroke-linecap="round" stroke-width="5" d="M96.006 80.142s-6.77 5.94-15.323 9.598c-5.096 2.18-10.825 2.817-16.13 2.928-5.685.12-11.873-.731-17.246-3.158-8.03-3.626-14.242-9.368-14.242-9.368" data-paper-data="{&quot;index&quot;:null}" style="mix-blend-mode:normal;fill-rule:nonzero;stroke:#584d00;stroke-linejoin:miter;stroke-miterlimit:10;stroke-dasharray:none;stroke-dashoffset:0;stroke-opacity:1" transform="scale(.6508)"/><g fill="none" stroke="#000" stroke-linecap="round" stroke-width="7"><path d="M32.335 54.794s2.299-1.382 5.27-2.255c1.99-.584 4.28-.789 6.383-.76 1.964.027 4.084.18 5.97.705 3.165.88 5.671 2.31 5.671 2.31M73.442 54.794s2.338-1.4 5.345-2.277c1.972-.574 4.23-.766 6.308-.738 2.308.032 4.831.342 6.937.988 2.694.826 4.704 2.027 4.704 2.027" style="mix-blend-mode:normal;fill-rule:nonzero;stroke:#584d00;stroke-linejoin:miter;stroke-miterlimit:10;stroke-dasharray:none;stroke-dashoffset:0;stroke-opacity:1" transform="scale(.6508)"/></g></svg>