<?xml version="1.0" encoding="UTF-8" standalone="no"?>
<svg
   width="84"
   height="84"
   viewBox="0 0 22.224999 22.225"
   version="1.1"
   id="svg8"
   xmlns="http://www.w3.org/2000/svg"
   xmlns:svg="http://www.w3.org/2000/svg"
   xmlns:rdf="http://www.w3.org/1999/02/22-rdf-syntax-ns#"
   xmlns:cc="http://creativecommons.org/ns#"
   xmlns:dc="http://purl.org/dc/elements/1.1/">
  <defs
     id="defs2" />
  <metadata
     id="metadata5">
    <rdf:RDF>
      <cc:Work
         rdf:about="">
        <dc:format>image/svg+xml</dc:format>
        <dc:type
           rdf:resource="http://purl.org/dc/dcmitype/StillImage" />
        <dc:title />
      </cc:Work>
    </rdf:RDF>
  </metadata>
  <g
     id="layer1"
     transform="translate(-49.300326,-39.581216)">
    <g
       id="layer1-9"
       transform="matrix(0.18026623,0,0,0.18023736,41.313072,30.961576)"
       style="stroke-width:1.00994">
      <path
         style="fill:#b67535;fill-opacity:1;stroke:#7b4f24;stroke-width:2.82782;stroke-linecap:round;stroke-linejoin:round;stroke-miterlimit:10;stroke-dasharray:none;stroke-opacity:1"
         d="m 93.603257,78.989726 c 1.879867,0.177352 3.724261,0.390167 6.313552,0.993182 2.589291,0.603015 5.923321,1.59613 8.973691,2.73118 3.05037,1.135051 5.8169,2.411911 8.15788,3.653366 2.34097,1.241455 4.25627,2.447384 6.34896,4.008067 2.09269,1.560683 4.36266,3.475972 7.23568,6.384498 2.87301,2.908526 6.34891,6.810051 8.61893,9.505731 2.27002,2.69568 3.33407,4.18535 4.22075,6.02977 0.88668,1.84442 1.59605,4.04346 2.05712,5.9588 0.46107,1.91534 0.67387,3.54688 0.70932,5.56862 0.0354,2.02174 -0.10644,4.43359 -0.28365,5.63942 -0.17721,1.20582 -0.39002,1.20582 -15.5711,1.24129 -15.18107,0.0355 -45.329211,0.10641 -60.54546,0.14188 -15.216249,0.0355 -15.499996,0.0355 -15.677435,-0.10625 -0.177439,-0.14172 -0.248376,-0.42547 -0.354819,-2.62462 -0.106443,-2.19914 -0.248317,-6.31348 -0.106455,-10.03779 0.141861,-3.72431 0.567484,-7.05835 1.276865,-10.49891 0.709381,-3.44056 1.702496,-6.9874 3.475988,-10.392536 1.773491,-3.405138 4.327215,-6.66823 7.590467,-9.470354 3.263251,-2.802125 7.235713,-5.14304 10.99554,-6.597272 3.759828,-1.454232 7.306668,-2.021727 10.037841,-2.234512 2.731174,-0.212786 4.646469,-0.07091 6.526335,0.10644 z"
         id="path366" />
      <path
         style="fill:#b4b4b4;fill-opacity:1;stroke:#6f6f6f;stroke-width:2.82782;stroke-linecap:round;stroke-linejoin:round;stroke-miterlimit:10;stroke-dasharray:none;stroke-opacity:1"
         d="m 146.59378,139.39364 c -0.53202,0.70935 -1.31234,1.63155 -2.34091,2.48278 -1.02857,0.85123 -2.30543,1.63153 -3.61772,2.05718 -1.31228,0.42565 -2.66007,0.49659 -3.83056,0.53206 -1.17049,0.0355 -2.1636,0.0355 -14.96819,-0.0355 -12.8046,-0.0709 -37.41966,-0.21281 -50.224004,-0.35467 -12.804344,-0.14186 -13.797456,-0.28373 -14.755132,-0.70928 -0.957676,-0.42554 -1.879855,-1.13491 -2.69566,-1.80882 -0.815805,-0.6739 -1.525173,-1.31234 -2.02185,-2.30272 -0.496677,-0.99038 -0.780418,-2.33268 14.471705,-2.65206 15.252124,-0.31937 46.038691,0.38452 61.822431,0.70099 15.78375,0.31647 16.56405,0.24553 17.27347,0.24556 0.70942,2e-5 1.34785,0.071 1.52502,0.35475 0.17717,0.28378 -0.10658,0.78034 -0.6386,1.48969 z"
         id="path490" />
      <path
         style="fill:#b67535;fill-opacity:1;stroke:#7b4f24;stroke-width:2.82782;stroke-linecap:round;stroke-linejoin:round;stroke-miterlimit:10;stroke-dasharray:none;stroke-opacity:1"
         d="m 75.514919,106.40321 c 1.418786,-0.81579 3.546932,-1.95081 5.639683,-2.73113 2.092751,-0.78032 4.149918,-1.20594 5.994373,-1.3123 1.844455,-0.10636 3.476003,0.10645 4.469061,0.63863 0.993058,0.53219 1.347742,1.38342 1.312176,2.4829 -0.03557,1.09948 -0.461187,2.44728 -1.064168,3.79508 -0.602981,1.3478 -1.383286,2.6956 -2.09265,3.6887 -0.709364,0.9931 -1.347794,1.63153 -1.063909,2.66029 0.283885,1.02876 1.489812,2.4475 2.163621,3.79534 0.673809,1.34784 0.815683,2.6247 0.993033,4.07895 0.177351,1.45425 0.390161,3.0858 0.49655,4.29174 0.106388,1.20595 0.106388,1.98625 -0.106299,2.37627 -0.212687,0.39003 -0.638306,0.39003 -1.170364,0.42549 -0.532059,0.0355 -1.170492,0.10639 -6.278124,0.17735 -5.107632,0.0709 -14.684099,0.14188 -19.47256,-0.0708 -4.788461,-0.21269 -4.788461,-0.70925 -4.504725,-2.16354 0.283736,-1.45429 0.85123,-3.86614 1.808906,-6.45546 0.957676,-2.58931 2.305473,-5.35585 4.043514,-7.69689 1.738042,-2.34104 3.86615,-4.25634 5.284939,-5.4623 1.41879,-1.20596 2.128158,-1.70252 3.546943,-2.51832 z"
         id="path482" />
      <path
         style="fill:#bdbdbd;fill-opacity:1;stroke:#797979;stroke-width:2.82782;stroke-linecap:round;stroke-linejoin:round;stroke-miterlimit:10;stroke-dasharray:none;stroke-opacity:1"
         d="m 161.25745,80.597394 c 0.39031,0.425595 1.7761,0.374639 2.75274,0.704009 0.97665,0.32937 1.54414,1.038735 1.86326,1.854532 0.31912,0.815797 0.39006,1.737977 0.21267,2.553669 -0.17738,0.815692 -0.60301,1.525063 -1.02862,2.092533 -0.42561,0.567469 -0.85123,0.99309 -1.59597,1.241367 -0.74474,0.248278 -1.80879,0.319214 -2.73096,0.21287 -0.92217,-0.106344 -1.70247,-0.39009 -2.12823,-0.709224 -0.42576,-0.319133 -0.49669,-0.673813 -0.78048,-0.603023 -0.28378,0.07079 -0.78034,0.567351 -1.3833,1.063905 -0.60296,0.496555 -1.31232,0.993109 -1.84437,1.383277 -0.53205,0.390168 -0.88674,0.673919 -1.13488,0.780416 -0.24814,0.106497 -0.39002,0.03556 -0.7093,-0.39 -0.31929,-0.425561 -0.81585,-1.205865 -1.38334,-1.95074 -0.56749,-0.744875 -1.20592,-1.454242 -1.73796,-2.057219 -0.53204,-0.602978 -0.95766,-1.099536 -0.92224,-1.454398 0.0354,-0.354861 0.53196,-0.567669 1.20584,-1.02876 0.67387,-0.461091 1.52511,-1.170459 2.12808,-1.70249 0.60296,-0.53203 0.95764,-0.886709 1.02863,-1.383125 0.071,-0.496415 -0.14182,-1.134847 -0.21282,-1.986151 -0.071,-0.851304 -6e-5,-1.915358 0.63845,-2.80224 0.63851,-0.886881 1.84443,-1.596247 2.9441,-1.844472 1.09966,-0.248226 2.09277,-0.03542 2.94403,0.354832 0.85126,0.390249 1.56063,0.957744 1.98615,1.560762 0.42552,0.603019 0.56739,1.241452 0.33553,2.011667 -0.23186,0.770216 -0.83732,1.672409 -0.44701,2.098003 z"
         id="path478" />
      <path
         style="fill:#b67535;fill-opacity:1;stroke:#7b4f24;stroke-width:2.82782;stroke-linecap:round;stroke-linejoin:round;stroke-miterlimit:10;stroke-dasharray:none;stroke-opacity:1"
         d="m 150.17829,87.855028 c 0.95764,1.312371 2.23453,3.227705 2.80192,4.82379 0.56738,1.596085 0.42551,2.872947 -0.28384,3.936894 -0.70935,1.063947 -1.98621,1.915186 -2.87295,2.518164 -0.88673,0.602979 -1.38329,0.957664 -1.98633,1.879954 -0.60303,0.92228 -1.3124,2.41196 -1.98632,3.97263 -0.67392,1.56066 -1.31235,3.19221 -1.98627,4.96569 -0.67392,1.77348 -1.38329,3.68877 -2.34096,5.60408 -0.95768,1.91532 -2.1636,3.8306 -3.8661,5.67497 -1.7025,1.84436 -3.90154,3.61778 -5.88774,4.64639 -1.9862,1.0286 -3.75962,1.31235 -5.74588,1.45424 -1.98627,0.14189 -4.18531,0.14189 -5.99423,4e-5 -1.80892,-0.14185 -3.22765,-0.42559 -5.07207,-1.31226 -1.84442,-0.88668 -4.11439,-2.37635 -6.02978,-4.14978 -1.91539,-1.77343 -3.476,-3.83059 -4.54015,-6.02969 -1.06415,-2.19911 -1.63165,-4.54001 -1.66717,-6.95199 -0.0355,-2.41198 0.46103,-4.89477 1.38324,-7.20035 0.92221,-2.305581 2.27001,-4.433682 4.00805,-6.349076 1.73805,-1.915394 3.86616,-3.61788 6.06532,-4.894789 2.19916,-1.27691 4.46914,-2.128153 7.09394,-2.589228 2.6248,-0.461076 5.60414,-0.532013 7.94511,-0.638429 2.34098,-0.106416 4.04346,-0.248289 5.78142,-0.638473 1.73795,-0.390184 3.51137,-1.028615 4.82366,-1.773447 1.31229,-0.744832 2.16353,-1.596075 3.05041,-1.986223 0.88688,-0.390148 1.80906,-0.319211 2.66031,0.142023 0.85126,0.461234 1.63156,1.312473 2.34095,2.092803 0.70939,0.780329 1.34782,1.489696 2.30546,2.802067 z"
         id="path466" />
      <path
         style="fill:#e7e7e7;fill-opacity:1;stroke:#868686;stroke-width:2.82782;stroke-linecap:round;stroke-linejoin:round;stroke-miterlimit:10;stroke-dasharray:none;stroke-opacity:1"
         d="m 152.71309,134.44639 c 0.78029,0.53212 1.63154,1.38337 1.70235,2.12809 0.0708,0.74472 -0.63856,1.38315 -1.41876,1.66692 -0.78019,0.28377 -1.63143,0.21283 -19.04711,0.17735 -17.41568,-0.0355 -51.394403,-0.0355 -68.809733,-0.0709 -17.41533,-0.0354 -18.26657,-0.10639 -18.798708,-0.53188 -0.532138,-0.42549 -0.74495,-1.2058 -0.532171,-1.91534 0.212778,-0.70954 0.851209,-1.34797 1.525184,-1.84457 0.673974,-0.4966 1.383338,-0.85129 18.373452,-0.95767 16.990115,-0.10638 50.259466,0.0355 67.107316,0.14193 16.84784,0.10643 17.27347,0.17737 17.84099,0.31927 0.56752,0.1419 1.27689,0.35471 2.05719,0.88684 z"
         id="path486" />
    </g>
  </g>
  <style
     type="text/css"
     id="style16758">
	.st0{fill:#FFC300;stroke:#695000;stroke-width:13;stroke-miterlimit:10;}
	.st1{fill:#FFC300;stroke:#695000;stroke-width:13;stroke-linecap:round;stroke-miterlimit:10;}
</style>
  <style
     type="text/css"
     id="style16758-4">
	.st0{fill:#FFC300;stroke:#695000;stroke-width:13;stroke-miterlimit:10;}
	.st1{fill:#FFC300;stroke:#695000;stroke-width:13;stroke-linecap:round;stroke-miterlimit:10;}
</style>
  <style
     type="text/css"
     id="style16758-5">
	.st0{fill:#FFC300;stroke:#695000;stroke-width:13;stroke-miterlimit:10;}
	.st1{fill:#FFC300;stroke:#695000;stroke-width:13;stroke-linecap:round;stroke-miterlimit:10;}
</style>
  <style
     type="text/css"
     id="style16758-9">
	.st0{fill:#FFC300;stroke:#695000;stroke-width:13;stroke-miterlimit:10;}
	.st1{fill:#FFC300;stroke:#695000;stroke-width:13;stroke-linecap:round;stroke-miterlimit:10;}
</style>
</svg>
