<svg xmlns="http://www.w3.org/2000/svg" xml:space="preserve" width="84" height="84" viewBox="0 0 22.225 22.225"><g transform="matrix(.16406 0 0 .16406 0 -30.027)"><circle cx="67.733" cy="250.756" r="64.626" style="fill:#0aff20;fill-opacity:1;fill-rule:nonzero;stroke:#005d08;stroke-width:6.21533;stroke-linecap:round;stroke-linejoin:round;stroke-miterlimit:4;stroke-dasharray:none;stroke-dashoffset:0;stroke-opacity:1;paint-order:normal"/><path d="M29.986 265.92c-.633-1.343 33.665 45.14 75.465 0" style="fill:none;fill-opacity:1;fill-rule:nonzero;stroke:#005d08;stroke-width:8.07998;stroke-linecap:round;stroke-linejoin:miter;stroke-miterlimit:4;stroke-dasharray:none;stroke-dashoffset:0;stroke-opacity:1;paint-order:stroke markers fill"/><path d="m131.626 232.425-9.209-.522c-39.626-4.313-76.44-3.311-111.61 0l-7.105.522-1.661 7.873 8.88-.637c35.758-4.867 71.828-6.136 111.167 0l11.512.637z" style="fill:#004206;fill-opacity:1;stroke:none;stroke-width:18.3317;stroke-linejoin:bevel;stroke-dasharray:none;stroke-dashoffset:19.953;stroke-opacity:1"/><rect width="40.948" height="24.861" x="17.663" y="230.78" rx="10.569" ry="12.431" style="fill:#004206;fill-opacity:1;stroke:none;stroke-width:.507332;stroke-linecap:round;stroke-linejoin:round;stroke-dasharray:none;stroke-dashoffset:19.953;stroke-opacity:1"/><path d="M18.815 231.61s7.226-7.942 35.192-2.803c27.965 5.14-35.192 2.803-35.192 2.803" style="fill:#004206;fill-opacity:1;stroke:none;stroke-width:.434438;stroke-linecap:round;stroke-linejoin:round;stroke-dasharray:none;stroke-dashoffset:19.953;stroke-opacity:1"/><rect width="40.948" height="24.861" x="-118.214" y="230.78" rx="10.569" ry="12.431" style="fill:#004206;fill-opacity:1;stroke:none;stroke-width:.507331;stroke-linecap:round;stroke-linejoin:round;stroke-dasharray:none;stroke-dashoffset:19.953;stroke-opacity:1" transform="scale(-1 1)"/><path d="M117.72 231.61s-7.226-7.942-35.191-2.803 35.192 2.803 35.192 2.803" style="fill:#004206;fill-opacity:1;stroke:none;stroke-width:.434438;stroke-linecap:round;stroke-linejoin:round;stroke-dasharray:none;stroke-dashoffset:19.953;stroke-opacity:1"/><path d="m55.322 244.923 5.591-9.538 3.618-2.631-8.551 2.96zM80.318 244.923l-5.592-9.538-3.617-2.631 8.55 2.96zM28.024 248.87s-6.907.657-11.512-10.196l3.618-3.947zM107.946 248.87s6.906.657 11.511-10.196l-3.618-3.947z" style="fill:#004206;fill-opacity:1;stroke:#004206;stroke-width:2.73476;stroke-linecap:round;stroke-linejoin:round;stroke-dasharray:none;stroke-dashoffset:19.953;stroke-opacity:1"/><path d="M67.733 183.024C30.398 183.024 0 213.422 0 250.756s30.398 67.734 67.733 67.734c37.334 0 67.733-30.4 67.733-67.734s-30.399-67.732-67.733-67.732m0 6.215a61.52 61.52 0 0 1 61.518 61.517 61.52 61.52 0 0 1-61.518 61.518 61.52 61.52 0 0 1-61.517-61.518 61.52 61.52 0 0 1 61.517-61.517" style="color:#000;fill:#005d08;stroke-width:1.24307;stroke-linecap:round;stroke-linejoin:round;-inkscape-stroke:none;paint-order:markers stroke fill"/></g></svg>