<?xml version="1.0" encoding="UTF-8" standalone="no"?>
<!-- Created with Inkscape (http://www.inkscape.org/) -->

<svg
   width="84"
   height="84"
   viewBox="0 0 22.225001 22.225001"
   version="1.1"
   id="svg5"
   inkscape:version="1.4 (1:1.4+202410161351+e7c3feb100)"
   sodipodi:docname="duel.svg"
   xmlns:inkscape="http://www.inkscape.org/namespaces/inkscape"
   xmlns:sodipodi="http://sodipodi.sourceforge.net/DTD/sodipodi-0.dtd"
   xmlns="http://www.w3.org/2000/svg"
   xmlns:svg="http://www.w3.org/2000/svg">
  <sodipodi:namedview
     id="namedview7"
     pagecolor="#505050"
     bordercolor="#666666"
     borderopacity="1.0"
     inkscape:showpageshadow="2"
     inkscape:pageopacity="0"
     inkscape:pagecheckerboard="true"
     inkscape:deskcolor="#d1d1d1"
     inkscape:document-units="px"
     showgrid="true"
     inkscape:zoom="9.376043"
     inkscape:cx="41.702027"
     inkscape:cy="56.20708"
     inkscape:window-width="2560"
     inkscape:window-height="1368"
     inkscape:window-x="0"
     inkscape:window-y="0"
     inkscape:window-maximized="1"
     inkscape:current-layer="layer1"
     inkscape:pageshadow="0"
     units="px">
    <inkscape:grid
       type="xygrid"
       id="grid422"
       enabled="false"
       originx="-89.729177"
       originy="-10.653894"
       spacingy="1"
       spacingx="1"
       units="px" />
  </sodipodi:namedview>
  <defs
     id="defs2" />
  <g
     inkscape:label="Layer 1"
     inkscape:groupmode="layer"
     id="layer1"
     transform="translate(-89.729176,-10.653894)">
    <g
       id="g834"
       transform="matrix(0.15973137,0,0,0.15973137,90.316018,11.801432)">
      <g
         id="path265-2">
        <path
           style="fill:#22190d;paint-order:stroke fill markers"
           d="M 36.181641,80.738281 1.6113281,117.56445 10.470703,125.5293 46.552734,91.107422 Z m 0.115234,7.185547 3.099609,3.099609 -29.02539,27.693363 -1.6171877,-1.45313 z"
           id="path5" />
        <path
           style="fill:#553e1e;paint-order:stroke fill markers"
           d="m 5.1823571,117.41361 31.0568099,-33.082598 6.7352,6.73519 -32.55352,31.056718 z"
           id="path6" />
      </g>
      <g
         id="path473-4">
        <path
           style="fill:#555000;paint-order:stroke fill markers"
           d="m 29.847656,76.712891 c -1.101964,-0.07979 -2.374533,0.352315 -3.162109,1.148437 -0.787577,0.796122 -1.112708,1.74345 -1.25586,2.621094 -0.286302,1.755288 0.06577,3.503027 0.763672,5.251953 0.6979,1.748926 1.790386,3.477303 3.392578,4.816406 0.274777,0.229656 2.317587,2.289378 3.970704,4.039063 1.653116,1.749685 3.138671,3.361328 3.138671,3.361328 l 0.03516,0.03711 0.03516,0.03516 c 0,0 -0.144851,-0.172862 -0.04687,-0.0293 0.09798,0.143565 0.302499,0.465489 0.599609,1.039062 0.553402,1.068347 1.498475,3.274297 2.675782,6.566407 -0.0076,0.0722 0.0065,0.11626 -0.08789,0.29297 -0.285651,0.53476 -0.862809,1.37359 -1.623047,2.3164 -1.520476,1.88563 -3.763959,4.23721 -6.050781,6.48633 -4.131963,4.06385 -7.63473,7.098 -8.421875,7.78516 l -12.140625,-2.64453 -2.0996095,-2.09961 -2.6210938,-2.61914 -2.0859375,-2.08789 -5.8554687,8.19922 -0.6523437,7.7207 7.7207031,-0.65039 2.0605469,-1.47266 c 3.4473582,1.35663 6.4131392,2.7562 9.2910152,3.76367 3.178597,1.11276 6.546543,1.69151 10.458985,1.09766 1.370732,-0.0426 1.792088,-0.47065 2.546875,-0.9082 0.791276,-0.45871 1.676378,-1.05811 2.660156,-1.78516 1.967555,-1.4541 4.311755,-3.41188 6.626953,-5.58984 2.315199,-2.17797 4.591946,-4.56451 6.408203,-6.91797 1.816257,-2.35346 3.263004,-4.568 3.603516,-7.10742 0.802254,-5.98289 -0.128358,-10.823511 -1.363281,-14.187504 -0.617462,-1.681996 -1.304942,-2.993198 -1.917969,-3.943359 -0.306514,-0.475081 -0.585648,-0.854643 -0.884766,-1.189453 -0.149558,-0.167406 -0.294596,-0.323188 -0.535156,-0.513672 -0.02626,-0.02079 -0.08414,-0.05019 -0.113281,-0.07227 l -7.273438,-7.271484 -0.01172,-0.01172 C 37.04153,81.508259 36.472431,80.88502 35.931641,80.34375 33.751718,78.161897 32.051584,76.872478 29.847656,76.712891 Z m 0.720703,5.6875 c 0.499836,0.332955 1.074446,0.72417 1.826172,1.476562 0.480173,0.480599 1.005405,1.0496 1.574219,1.710938 l 0.0625,0.07031 8.007812,8.007813 c 0.07333,0.09807 0.110387,0.135166 0.210938,0.291015 0.392805,0.608828 0.934539,1.618863 1.425781,2.957031 0.65921,1.79572 1.049849,4.385458 1.152344,7.312498 -1.313516,-3.72531 -2.345209,-6.094321 -3.070313,-7.494138 -0.372553,-0.719217 -0.671353,-1.209582 -0.908203,-1.556641 -0.236849,-0.347058 -0.548828,-0.6875 -0.548828,-0.6875 l 0.07031,0.07227 c 0,0 -1.501917,-1.628517 -3.179688,-3.404297 -1.677771,-1.77578 -3.308557,-3.528862 -4.40039,-4.441406 -0.789923,-0.660212 -1.516707,-1.740327 -1.953125,-2.833985 -0.249093,-0.624222 -0.207711,-0.981006 -0.269532,-1.480468 z m 14.226563,24.769529 c -0.04149,0.55158 0.06033,0.96393 -0.01758,1.54492 -0.09828,0.73297 -1.03199,2.67539 -2.607422,4.7168 -1.575433,2.04141 -3.70017,4.28612 -5.875,6.33203 -2.17483,2.04592 -4.407571,3.90366 -6.173828,5.20899 -0.883129,0.65266 -1.656467,1.1681 -2.195313,1.48047 -0.538846,0.31236 -1.177935,0.26498 -0.197265,0.26367 h -0.203125 l -0.199219,0.0332 c -0.295398,0.0487 -0.517241,-0.009 -0.798828,0.0234 0.327677,-0.28461 4.660939,-4.03869 9.210937,-8.51367 2.359479,-2.32058 4.691322,-4.74658 6.4375,-6.91211 0.873089,-1.08277 1.60071,-2.08885 2.140625,-3.09961 0.177819,-0.33289 0.324162,-0.71045 0.478516,-1.07813 z M 5.5,120.73828 l 0.5332031,0.5332 0.53125,0.53125 -2.2773437,1.62891 -0.4511719,0.0391 0.037109,-0.45312 z"
           id="path3" />
        <path
           style="fill:#e2c53c;paint-order:stroke fill markers"
           d="m 34.163277,82.110432 c -7.95884,-7.96589 -7.75902,2.52426 -2.97479,6.52289 1.36661,1.1422 7.34508,7.62203 7.34508,7.62203 0,0 1.33928,1.33941 4.01803,9.002908 1.16305,3.32736 -18.00368,19.94249 -18.00368,19.94249 l -14.12707,-3.07783 -2.6192399,-2.61924 -2.61925,-2.61924 -3e-5,-3e-5 -3.74178,5.23848 -0.34458,4.08635 4.08636,-0.34457 2.61925,-1.87089 c 8.4710999,3.1498 12.7575399,6.4058 19.9312099,5.22204 2.24608,-0.003 18.64436,-13.62464 19.52195,-20.16941 1.49011,-11.112638 -3.4733,-17.667898 -3.90622,-17.606058 l -7.48356,-7.48355 c -0.6042,-0.70248 -1.17112,-1.31535 -1.7017,-1.8464 z"
           id="path4" />
      </g>
      <g
         id="path9862-9">
        <path
           style="fill:#3f3f3f;paint-order:stroke markers fill"
           d="M 122.04883,-6.546875 107.60742,9.8828125 31.060547,86.429687 40.728516,96.097656 117.90234,18.925781 Z m -7.73047,16.3671875 -1.0918,6.7089845 -72.498044,72.498047 -2.597657,-2.597657 73.125001,-73.124999 z"
           id="path11" />
        <path
           style="fill:#bbbbbb;paint-order:stroke markers fill"
           d="M 40.729187,92.562792 115.56486,17.727324 118.18423,1.6378193 109.4321,11.594587 34.596437,86.430052 Z"
           id="path12" />
      </g>
      <g
         id="path265-2-2">
        <path
           style="fill:#22190d;paint-order:stroke fill markers"
           d="m 95.609375,80.101562 -10.369141,10.369141 36.080076,34.421877 8.86133,-7.96485 z m -0.113281,7.183594 27.542966,29.337894 -1.61718,1.45508 -29.027349,-27.691411 z"
           id="path7" />
        <path
           style="fill:#553e1e;paint-order:stroke fill markers"
           d="m 126.60964,116.77555 -31.056813,-33.082598 -6.7352,6.73519 32.553523,31.056718 z"
           id="path8" />
      </g>
      <g
         id="path473-4-3">
        <path
           style="fill:#555000;paint-order:stroke fill markers"
           d="m 101.94336,76.074219 c -2.203928,0.159587 -3.904062,1.449006 -6.083985,3.630859 -0.544941,0.545434 -1.118559,1.173712 -1.714844,1.861328 l -7.265625,7.265625 c -0.03082,0.02326 -0.09155,0.05433 -0.11914,0.07617 -0.240561,0.190484 -0.383645,0.344314 -0.533204,0.511719 -0.299117,0.33481 -0.580205,0.714372 -0.886718,1.189453 -0.613028,0.950161 -1.300507,2.261363 -1.917969,3.943359 -1.234923,3.363993 -2.165535,8.204616 -1.363281,14.187496 0.340511,2.53942 1.787258,4.75396 3.603515,7.10743 1.816258,2.35346 4.094958,4.74195 6.410157,6.91992 2.315199,2.17796 4.659397,4.13379 6.626953,5.58789 0.983778,0.72705 1.866931,1.32645 2.658201,1.78515 0.7548,0.43756 1.17806,0.86755 2.54883,0.91016 3.9124,0.59383 7.28041,0.0131 10.45898,-1.09961 2.87782,-1.00746 5.84181,-2.40707 9.28907,-3.76367 l 2.06054,1.47266 7.72071,0.65039 -0.65039,-7.72071 -5.85743,-8.19726 -4.70507,4.70508 -2.09961,2.10156 -12.14063,2.64258 c -0.78637,-0.68648 -4.29135,-3.72081 -8.423826,-7.78516 -2.286823,-2.24912 -4.528352,-4.6007 -6.048828,-6.48633 -0.760238,-0.94281 -1.33935,-1.78165 -1.625,-2.3164 -0.09547,-0.17873 -0.08072,-0.22338 -0.08789,-0.29493 1.176866,-3.29062 2.124469,-5.496368 2.677734,-6.564449 0.297111,-0.573573 0.499681,-0.895497 0.597657,-1.039062 0.09798,-0.143566 -0.04687,0.0293 -0.04687,0.0293 l 0.03711,-0.03516 0.0332,-0.03711 c 0,0 1.487509,-1.611643 3.140625,-3.361328 1.653116,-1.749685 3.695922,-3.80745 3.970702,-4.03711 1.60219,-1.339102 2.69273,-3.069433 3.39063,-4.818359 0.6979,-1.748926 1.04997,-3.496664 0.76367,-5.251953 -0.14315,-0.877644 -0.46828,-1.824972 -1.25586,-2.621094 -0.78758,-0.796121 -2.06015,-1.228231 -3.16211,-1.148437 z m -0.71875,5.685547 c -0.0616,0.499917 -0.0199,0.856946 -0.26953,1.482421 -0.43642,1.093658 -1.165158,2.173773 -1.95508,2.833985 -1.091823,0.91254 -2.720668,2.665626 -4.398438,4.441406 -1.641942,1.73786 -3.049121,3.264625 -3.111328,3.332031 0,0 -0.311978,0.340442 -0.548828,0.6875 -0.23685,0.347059 -0.535649,0.839378 -0.908203,1.558594 -0.725097,1.399805 -1.75486,3.766931 -3.068359,7.492187 0.102495,-2.92704 0.491181,-5.514827 1.15039,-7.310546 0.491243,-1.338169 1.032977,-2.348204 1.425782,-2.957032 0.100922,-0.156424 0.139432,-0.194777 0.21289,-0.292968 l 8.007813,-8.007813 0.06055,-0.07031 c 0.568804,-0.661328 1.094032,-1.228364 1.574218,-1.708985 0.752666,-0.753337 1.328056,-1.147529 1.828126,-1.480468 z M 86.998047,106.53711 c 0.153926,0.36547 0.29967,0.74111 0.476562,1.07227 0.539915,1.01075 1.269489,2.01684 2.142578,3.0996 1.746179,2.16554 4.076068,4.59153 6.435547,6.91211 4.550016,4.47501 8.885246,8.2291 9.212896,8.51368 -0.28172,-0.0326 -0.5033,0.0253 -0.79883,-0.0234 l -0.20117,-0.0332 h -0.20313 c 0.98067,0.001 0.34158,0.0507 -0.19727,-0.26172 -0.53884,-0.31237 -1.31218,-0.82976 -2.19531,-1.48243 -1.766255,-1.30532 -3.997043,-3.16306 -6.171873,-5.20898 -2.174831,-2.04592 -4.30152,-4.29062 -5.876953,-6.33203 -1.575433,-2.04141 -2.507186,-3.98383 -2.605469,-4.7168 -0.07761,-0.57879 0.02388,-0.98946 -0.01758,-1.53906 z m 39.292973,13.5625 1.62695,2.2793 0.0391,0.45312 -0.45312,-0.0391 -2.2793,-1.62695 0.5332,-0.53321 z"
           id="path1" />
        <path
           style="fill:#e2c53c;paint-order:stroke fill markers"
           d="m 97.628717,81.472372 c 7.958843,-7.96589 7.759023,2.52426 2.974793,6.52289 -1.366603,1.1422 -7.345073,7.62203 -7.345073,7.62203 0,0 -1.33928,1.33941 -4.01803,9.002908 -1.16305,3.32736 18.003683,19.94249 18.003683,19.94249 l 14.12706,-3.07783 2.61924,-2.61924 2.61928,-2.61927 v 0 l 3.74178,5.23848 0.34458,4.08635 -4.08636,-0.34457 -2.61925,-1.87089 c -8.4711,3.1498 -12.75754,6.4058 -19.93121,5.22204 -2.24608,-0.003 -18.644363,-13.62464 -19.521953,-20.16941 -1.49011,-11.112638 3.4733,-17.667898 3.90622,-17.606058 l 7.48356,-7.48355 c 0.6042,-0.70248 1.17113,-1.31535 1.7017,-1.8464 z"
           id="path2" />
      </g>
      <g
         id="path9862-9-2">
        <path
           style="fill:#3f3f3f;paint-order:stroke markers fill"
           d="M 9.7421875,-7.1835937 13.888672,18.287109 91.0625,95.460937 100.73047,85.791016 24.183594,9.2460938 Z m 7.7304685,16.3671875 3.0625,3.4843752 73.125,73.125 L 91.0625,88.388672 18.564453,15.892578 Z"
           id="path9" />
        <path
           style="fill:#bbbbbb;paint-order:stroke markers fill"
           d="m 91.062817,91.924732 -74.83568,-74.835471 -2.61937,-16.0894997 8.75213,9.9567597 74.83566,74.835471 z"
           id="path10" />
      </g>
    </g>
  </g>
</svg>
