<svg xmlns="http://www.w3.org/2000/svg" xml:space="preserve" width="84" height="84"><g style="stroke-width:1.01088"><path fill="#f3be3a" stroke="#b76b00" stroke-width="5.054" d="M2.5 64.536C2.5 30.274 30.274 2.5 64.536 2.5c34.26 0 62.035 27.774 62.035 62.036 0 34.26-27.774 62.035-62.035 62.035-34.262 0-62.036-27.774-62.036-62.035z" style="mix-blend-mode:normal;fill:#ffc703;fill-opacity:1;fill-rule:nonzero;stroke:#584d00;stroke-linejoin:miter;stroke-miterlimit:10;stroke-dasharray:none;stroke-dashoffset:0;stroke-opacity:1" transform="matrix(.63714 0 0 .65053 1.746 .018)"/><path fill="none" stroke="#000" stroke-linecap="round" stroke-width="5.054" d="M31.947 49.237s1.844-2.627 4.59-4.867c1.637-1.335 3.674-2.326 5.611-3.11 2.076-.839 4.442-1.478 6.679-1.559 3.344-.12 6.248.61 6.248.61m47.022 8.183s-2.911-1.353-6.41-1.92c-2.084-.337-4.343-.177-6.413.113-2.217.311-4.585.94-6.564 1.99-2.956 1.566-5.106 3.651-5.106 3.651" data-paper-data="{&quot;index&quot;:null}" style="mix-blend-mode:normal;fill:none;fill-opacity:1;fill-rule:nonzero;stroke:#584d00;stroke-linejoin:miter;stroke-miterlimit:10;stroke-dasharray:none;stroke-dashoffset:0;stroke-opacity:1" transform="matrix(.63714 0 0 .65053 1.746 .018)"/><g style="mix-blend-mode:normal;stroke-width:.854239"><path d="M64.912 103.013c-15.596.017-31.795 8.453-31.795 3.092 0-17.352 14.066-27.148 31.419-27.148 17.352 0 31.419 9.796 31.419 27.148 0 5.758-15.222-3.11-31.043-3.092" data-paper-data="{&quot;index&quot;:null}" style="mix-blend-mode:normal;fill:#584d00;fill-opacity:1;fill-rule:nonzero;stroke-linejoin:miter;stroke-miterlimit:10;stroke-dasharray:none;stroke-dashoffset:0" transform="matrix(.69794 -.19094 -.20362 -.7759 19.702 144.69)"/><path d="M36.85 103.265c0-4.102 12.1-10.973 27.515-10.973s28.31 6.992 28.31 10.973c0 2.507-15.149-3.207-28.366-3.207-13.468 0-27.458 5.673-27.458 3.207z" data-paper-data="{&quot;index&quot;:null}" style="mix-blend-mode:normal;fill:#fff;fill-opacity:1;fill-rule:nonzero;stroke-linejoin:miter;stroke-miterlimit:10;stroke-dasharray:none;stroke-dashoffset:0" transform="matrix(.69794 -.19094 -.20362 -.7759 19.702 144.69)"/></g><g style="mix-blend-mode:normal;stroke-width:1.28287"><path fill="#f3be3a" stroke="#b76b00" stroke-miterlimit="10" stroke-width="6.414" d="M263.41 193.735s4.654-4.842 9.695-10.24c6.124-6.56 11.684-10.876 17.88-15.588 4.35-3.307-.7-11.774-6.252-9.043-2.423.666-6.35 3.48-13.903 9.471-7.419 5.886-15.598 13.878-15.598 13.878s10.55-16.016 28.002-30.588c1.871-4.815-2.712-9.71-7.915-8.697-.618.155-3.16 1.842-4.85 3.334-11.63 10.27-25.053 26.617-25.053 26.617s7.183-15.872 19.045-28.577c2.262-2.422 2.955-6.22 2.955-6.22-1.65-4.292-6.723-5.55-10.382-3.852-11.186 5.192-23.135 34.148-26.139 33.955-6.568-.423 1.353-14.074 1.14-20.3-.17-4.966-7.216-8.602-9.677-5.615-2.051 2.492-3.98 14.02-7.408 21.299-4.03 8.556-9.337 15.221-9.736 15.832-9.022 13.835-4.245 32.936 10.67 42.663 6.496 4.237 25.415 8.363 36.538-1.764 16.467-15.551 38.052-31.558 44.444-35.049 2.334-6.579-3.323-10.295-7.11-9.069-3.124 1.011-7.728 2.854-12.786 6.498-4.368 3.148-10.092 7.408-13.56 11.055" data-paper-data="{&quot;isPaintingLayer&quot;:true}" style="fill:#ffc703;fill-opacity:1;stroke:#584d00;stroke-width:6.41441;stroke-linecap:round;stroke-linejoin:round;stroke-miterlimit:0;stroke-opacity:1" transform="matrix(.47877 .0429 -.0222 .51916 -90.195 -70.891)"/></g></g></svg>