<svg xmlns="http://www.w3.org/2000/svg" width="84" height="84"><defs><radialGradient id="b" cx="260.639" cy="141.855" r="16.01" gradientTransform="translate(-37.864 -98.327)" gradientUnits="userSpaceOnUse"><stop offset="0" stop-color="#a09253"/><stop offset="1" stop-color="#a09253" stop-opacity="0"/></radialGradient><radialGradient id="c" cx="252.521" cy="159.29" r="17.757" gradientTransform="translate(-37.864 -98.327)" gradientUnits="userSpaceOnUse"><stop offset="0" stop-color="#d4d4d4"/><stop offset="1" stop-color="#a1a1a1"/></radialGradient><radialGradient id="d" cx="175.595" cy="277.301" r="80.559" gradientTransform="translate(-37.864 -98.327)" gradientUnits="userSpaceOnUse"><stop offset="0"/><stop offset="1" stop-color="#473c0d"/></radialGradient><linearGradient id="a" x1="234.817" x2="234.817" y1="101.624" y2="280.926" gradientTransform="translate(-37.864 -98.327)" gradientUnits="userSpaceOnUse"><stop offset="0" stop-color="#55460f"/><stop offset="1" stop-color="#3e330b"/></linearGradient><linearGradient id="e" x1="189.698" x2="263.306" y1="212.538" y2="212.538" gradientTransform="translate(-37.864 -98.327)" gradientUnits="userSpaceOnUse"><stop offset="0"/><stop offset="1" stop-color="#fff"/></linearGradient></defs><path fill="url(#a)" stroke="#000" stroke-width="5" d="M103.683 17.592s14.342.98 31.043-3.11c11.48-2.812 23.548-11.185 34.96-11.185 9.286 0 9.106 1.742 18.997 4.074 8.942 2.108 18.299-3.91 27.595-.162 17.556 7.08 47.394 8.141 61.306 21.939 2.175 2.157 2.078 2.528 3.742 5.065 2.407 3.667 7.564 3.987 9.54 15.61.683 4.02.542 11.078-1.924 14.478-2.927 4.037-6.473 8.452-6.473 8.452s.467 14.233.467 21.794c0 2.595-5.074 4.176-5.22 6.738-.282 4.939.183 11.013-1.06 16.954-1.168 5.581-4.018 11.044-5.098 15.337-2.601 10.336-3.883 24.106-5.039 35.178-.58 5.551-1.814 13.845-1.814 13.845l-162.02-.302z" style="mix-blend-mode:normal;fill:url(#a);fill-rule:nonzero;stroke-linecap:butt;stroke-linejoin:miter;stroke-miterlimit:10;stroke-dasharray:none;stroke-dashoffset:0" transform="translate(-43.38 1.969)scale(.43367)"/><path fill="#3e330b" d="M148.813 12.306c5.923-4.022 8.112-5.445 14.797-6.142 1.35-.141 2.781-.52 4.222-.675 1.728-.184 3.47-.131 5.1-.131 4.386 0 7.541.895 11.501 2.869 1.49.742 4.378 1.355 6.252 1.57 4.801.55 8.342-.187 12.878-1.324.4-.098 4.218-.723 9.042-.385 6.356.446 13.66 4.186 17.995 5.67 2.183.748 5.527 1.087 7.845 1.543 6.484 1.3 12.968 3.178 19.291 4.907 5.996 1.64 7.802 2.643 13.55 6.189 2.676 2.159 5.214 3.535 6.876 6.542.286.518 2.737 4.649 2.737 4.649h-.597c-.81.5-1.755.2-2.75.327-1.795.229-3.023.42-4.287-.132a4.4 4.4 0 0 0-1.172.595c-5.555 3.674-10.102 11.515-11.977 17.747-.611 2.032.325 4.737.024 6.866-.387 2.743-2.06 4.91-2.007 7.547-1.72 5.284-4.789 9.825-5.493 15.453-.896 7.16.87 13.739-2.618 20.396-.5.957.084 2.353-.608 3.182-.54.645-1.543.669-2.314 1.003-1.959.018-3.836.21-5.706-.59-3.57-1.53-3.903-5.103-5.602-8.064-1.297-2.262-2.512-4.2-3.909-6.352-.844-1.3-.672-3.229-1.806-4.286-.445-.416-1.245-.088-1.793-.354-2.93-1.424-6.024-2.817-9.28-3.902-7.44-2.5-11.75-8.052-17.013-13.327-.62-.621-1.558-.904-2.087-1.603-1.254-1.656-1.694-4.345-2.627-6.207-1.251-2.496-2.61-4.736-3.815-7.222-2.865-1.868-4.415-5.387-6.53-8.035-1.294-1.621-3.501-2.398-4.596-4.135-3.272-5.191-4.75-11.075-4.67-17.457-2.038-5.883-6.936-5.943-12.29-7.724-5.108-1.699-9.927-4.064-15.253-4.61-.28.22-1.612-4.41-1.31-4.398" style="mix-blend-mode:normal;fill-rule:nonzero;stroke-linecap:butt;stroke-linejoin:miter;stroke-miterlimit:10;stroke-dasharray:none;stroke-dashoffset:0" transform="translate(-43.38 1.969)scale(.43367)"/><path stroke="#000" stroke-width="5" d="M290.936 53.623c0 9.665-9.5 17.5-9.5 17.5s-8-7.835-8-17.5 8.5-17.5 8.5-17.5 9 7.835 9 17.5z" style="mix-blend-mode:normal;fill-rule:nonzero;stroke-linecap:butt;stroke-linejoin:miter;stroke-miterlimit:10;stroke-dasharray:none;stroke-dashoffset:0" transform="translate(-43.38 1.969)scale(.43367)"/><path fill="url(#b)" d="M225.075 46.125c-4.183 2.097-34.79-22.811-30.672-25.644 3.096-2.13 16.037 5.523 24.231 13.054 6.196 5.694 9.056 11.317 6.44 12.59" style="mix-blend-mode:normal;fill:url(#b);fill-rule:nonzero;stroke-linecap:butt;stroke-linejoin:miter;stroke-miterlimit:10;stroke-dasharray:none;stroke-dashoffset:0" transform="translate(-43.38 1.969)scale(.43367)"/><path d="M149.436 49.873c0-9.803 7.947-17.75 17.75-17.75s17.75 7.947 17.75 17.75-7.947 17.75-17.75 17.75-17.75-7.947-17.75-17.75" style="mix-blend-mode:normal;fill-rule:nonzero;stroke-linecap:butt;stroke-linejoin:miter;stroke-miterlimit:10;stroke-dasharray:none;stroke-dashoffset:0" transform="translate(-43.38 1.969)scale(.43367)"/><path fill="#fff" d="M167.402 40.156a2.5 2.5 0 1 1 5 0 2.5 2.5 0 0 1-5 0" style="mix-blend-mode:normal;fill-rule:nonzero;stroke-linecap:butt;stroke-linejoin:miter;stroke-miterlimit:10;stroke-dasharray:none;stroke-dashoffset:0" transform="translate(-43.38 1.969)scale(.43367)"/><path fill="#b7b7b7" d="M182.814 43.549c-1.225.245-1.47-.98-1.47-.98l-.127-.684c-1.29-3.88-3.709-4.765-7.274-6.233-2.374-.977-4.721-2.274-7.374-2.246 0 0-1.25 0-1.25-1.25s1.25-1.25 1.25-1.25c6.339.053 14.944 3.975 17.02 10.188l.206.984s.245 1.226-.98 1.47M166.403 68.267c.08 1.247-1.166 1.328-1.166 1.328l-1.303.048c-6.902-1.31-12.211-6.998-14.928-13.175 0 0-.502-1.145.642-1.648s1.647.642 1.647.642c2.343 5.34 7.025 10.68 13.086 11.721l.693-.082s1.247-.082 1.329 1.166" style="mix-blend-mode:normal;fill-rule:nonzero;stroke-linecap:butt;stroke-linejoin:miter;stroke-miterlimit:10;stroke-dasharray:none;stroke-dashoffset:0" transform="translate(-43.38 1.969)scale(.43367)"/><path fill="url(#c)" d="M228.856 78.72c-1.25 0-1.25-1.25-1.25-1.25l.012-1.023c-.779-5.54-4.822-8.588-7.846-12.893-1.944-1.38-3.407-3.31-5.419-4.65-5.462-3.642-13.005-7.217-15.1-14.09 0 0-.342-1.203.86-1.546 1.201-.344 1.545.858 1.545.858.456 1.766 1.772 2.759 2.948 4.132 3.365 3.926 6.944 5.772 11.152 8.578 2.141 1.427 3.723 3.47 5.782 4.95 3.43 4.733 7.664 8.168 8.553 14.307l.013 1.377s0 1.25-1.25 1.25" style="mix-blend-mode:normal;fill:url(#c);fill-rule:nonzero;stroke-linecap:butt;stroke-linejoin:miter;stroke-miterlimit:10;stroke-dasharray:none;stroke-dashoffset:0" transform="translate(-43.38 1.969)scale(.43367)"/><path fill="#d4d4d4" d="M218.415 82.788c-1.118.559-1.677-.56-1.677-.56l-.535-1.085-.723-.892s-.781-.976.195-1.757 1.757.195 1.757.195l.877 1.107.665 1.315s.559 1.118-.56 1.677" style="mix-blend-mode:normal;fill-rule:nonzero;stroke-linecap:butt;stroke-linejoin:miter;stroke-miterlimit:10;stroke-dasharray:none;stroke-dashoffset:0" transform="translate(-43.38 1.969)scale(.43367)"/><path fill="#978a4d" d="M192.406 62.67a1.25 1.25 0 1 1 2.5 0 1.25 1.25 0 0 1-2.5 0M196.016 40.87a1.25 1.25 0 1 1 2.5 0 1.25 1.25 0 0 1-2.5 0" style="mix-blend-mode:normal;fill-rule:nonzero;stroke-linecap:butt;stroke-linejoin:miter;stroke-miterlimit:10;stroke-dasharray:none;stroke-dashoffset:0" transform="translate(-43.38 1.969)scale(.43367)"/><path fill="#c5c5c5" d="M180.632 29.05c-.781.977-1.757.196-1.757.196l-1-.8c-.46-.433-1.19-.564-1.82-.526 0 0-1.25 0-1.25-1.25s1.25-1.25 1.25-1.25c1.183.041 2.428.374 3.382 1.074l1 .8s.976.78.195 1.757" style="mix-blend-mode:normal;fill-rule:nonzero;stroke-linecap:butt;stroke-linejoin:miter;stroke-miterlimit:10;stroke-dasharray:none;stroke-dashoffset:0" transform="translate(-43.38 1.969)scale(.43367)"/><path fill="#bfbfbf" d="M205.232 35.45c-.781.977-1.757.196-1.757.196l-1-.8c-1.427-1.144-2.919-2.17-4.14-3.531-2.337-2.605-3.74-6.687-7.88-6.595 0 0-1.25 0-1.25-1.25s1.25-1.25 1.25-1.25c6.178.095 9.218 7.189 13.582 10.674l1 .8s.976.78.195 1.757" style="mix-blend-mode:normal;fill-rule:nonzero;stroke-linecap:butt;stroke-linejoin:miter;stroke-miterlimit:10;stroke-dasharray:none;stroke-dashoffset:0" transform="translate(-43.38 1.969)scale(.43367)"/><path fill="#d4d4d4" d="M216.256 40.92c-1.25 0-1.25-1.25-1.25-1.25l.164-1.82a9.6 9.6 0 0 1 2.56-2.797s1.016-.727 1.743.29-.29 1.744-.29 1.744c-.749.512-1.409 1.206-1.842 2.003l.165.58s0 1.25-1.25 1.25M218.823 41.475c-.206-1.233 1.027-1.438 1.027-1.438l1.01-.153c.952-.316 1.92-.583 2.893-.827 0 0 1.212-.303 1.515.91.304 1.212-.909 1.515-.909 1.515-.91.228-1.818.476-2.708.774l-1.39.247s-1.233.205-1.438-1.028" style="mix-blend-mode:normal;fill-rule:nonzero;stroke-linecap:butt;stroke-linejoin:miter;stroke-miterlimit:10;stroke-dasharray:none;stroke-dashoffset:0" transform="translate(-43.38 1.969)scale(.43367)"/><path fill="url(#d)" d="M172.866 136.523c5.265 3.485 14.507 7.49 20.499 8.95 4.132 1.006 15.288 4.228 19.435 5.286 5.058 1.291 7.4.122 12.583.77 6.201.775 6.073-.588 12.142-2.57 7.172-1.015.921 2.86 6.972-1.05 3.276-2.118 6.95.169 10.48-3.75 3.78-4.198 11.545-2.764 14.389-3.054.896-.092-1.043 7.867-1.066 8.767-.024.975-.157 2.3-.149 3.276-1.096 3.837-1.686 8.353-1.44 12.343.16 2.612.168 9.458-.556 12.077-1.033 3.735-9.06 5.062-12.083 5.052-9.582-.033-21.226 1.41-30.747.341-7.893-.868-14.827-1.487-22.604-.623-2.333.26-5.257.02-7.577.381-6.289.981-11.269-.91-17.638-.598-8.784.43-16.91.188-26.426-.13-5.65-1.027-18.906-.615-24.66-.288-.722.04-9.91-26.714-9.606-29.162.759-6.115-7.232-35.66.969-36.678 2.214-.275 12.238 18.007 19.448 26.378 3.23 3.75 6.895 2.514 7.314 1.906.828.462-2.893-8.631-9.939-19.801-7.235-11.47-17.878-25.171-23.03-36.033-1.784-3.76 3.285-3.908 3.459-6.947.23-4.014-6.873-12.883-3.763-10.015.687.632 6.839 2.222 11.53 7.176 16.569 17.5 48.29 56.109 52.064 57.996" data-paper-data="{&quot;noHover&quot;:false,&quot;origItem&quot;:[&quot;Path&quot;,{&quot;applyMatrix&quot;:true,&quot;segments&quot;:[[[354.3689,487.88744],[13.83144,7.72891],[-9.64338,13.98978]],[[337.22806,534.72926],[2.11273,-17.01177],[-0.60794,4.89518]],[[335.7638,551.52987],[1.35072,-4.59814],[-0.263,0.8953]],[[333.65404,553.36984],[-0.57235,-0.73698],[0.60402,0.77776]],[[336.44862,552.41167],[-0.97552,0.13455],[1.43231,-0.19755]],[[340.78615,552.38613],[-1.44354,0.08207],[11.50811,-0.65429]],[[373.2564,555.38984],[-11.30105,-2.05581],[16.94356,3.76392]],[[423.65397,562.56984],[-17.56716,0.86069],[12.73912,-0.62414]],[[461.656,556.08138],[-12.57831,1.9614],[4.63915,-0.72341]],[[475.72109,555.32076],[-4.6665,0.5185],[15.55321,-1.72812]],[[521.90974,553.13967],[-15.78522,-1.7361],[19.04188,2.13914]],[[580.26667,554.56363],[-19.16447,-0.06512],[6.04407,0.02054]],[[599.55933,545.51449],[-2.06457,7.46876],[1.44809,-5.23859]],[[599.27925,529.37262],[0.32222,5.22231],[-0.49244,-7.98107]],[[600.76955,505.05194],[-2.19238,7.67334],[-0.01611,-1.95065]],[[600.72122,499.2],[-0.04897,1.9501],[0.04523,-1.80096]],[[600.61261,493.79651],[1.7922,-0.1831],[-10.9943,1.12323]],[[574.39119,514.94334],[9.26723,-6.43267],[-6.37333,4.42392]],[[556.09432,529.56634],[6.55206,-4.23557],[-12.10038,7.82226]],[[515.96089,545.52079],[14.34432,-2.0312],[-12.13652,3.96318]],[[480.0006,545.61473],[12.40347,1.55011],[-10.36512,-1.29537]],[[448.88875,541.14573],[10.11662,2.58211],[-8.29309,-2.11668]],[[425.61602,530.96391],[8.26429,2.01318],[-11.98449,-2.91942]],[[390.84795,518.07],[10.52816,6.97083],[-14.70171,-7.35086]]],&quot;closed&quot;:true}]}" style="mix-blend-mode:normal;fill:url(#d);fill-rule:nonzero;stroke-linecap:butt;stroke-linejoin:miter;stroke-miterlimit:10;stroke-dasharray:none;stroke-dashoffset:0" transform="translate(-43.38 1.969)scale(.43367)"/><path fill="#976a2e" d="M257.05 148.109c-2.13 2.219-3.302 5.312-5.57 7.57-4.694 6.186-13.338 9.521-20.744 10.414-2.526.305-4.975 1.634-7.5 2-2.431.352-4.636-.288-7 .5-7.9.047-15.8.016-23.7.016-3.46 0-7.286.481-10.706-.017-2.7-.393-5.382-.956-8.177-1.042-1.653-.352-3.215-1.049-4.854-1.463-1.039-.263-10.767-4.955-13.647-7.844-5.221-5.236-10.134-10.66-14.616-16.634-1.233-1.644-3.651-3.835-4.588-5.634-3.784-7.266-6.657-15.947-13.662-21.116 0 0-1-.75-.25-1.75s1.75-.25 1.75-.25c7.124 5.418 10.707 14.214 14.338 21.884.774 1.637 3.29 3.871 4.412 5.366 3.83 5.109 7.936 10.737 12.792 14.784 3.704 3.086 13.04 8.527 13.944 8.739 1.588.373 3.084 1.095 4.679 1.436 2.827.076 5.559.64 8.29 1.058 3.262.499 6.987-.017 10.295-.017 7.766 0 15.534-.038 23.3.016 2.377-.792 4.578-.16 7-.5 2.524-.354 4.968-1.673 7.5-2 6.836-.883 14.935-3.75 19.255-9.585 1.423-1.428 2.44-3.088 3.506-4.71-1.462.53-2.945.972-4.438 1.273-2.065-.042-3.376 1.22-5.47 1.497-2.834.376-5.65 1.15-8.53 1.503-2.594.318-21.454-.211-39.088-5.454-15.35-4.564-29.772-13.807-31.724-15.104-4.513-2.951-13.08-11.913-21.959-23.947-8.194-11.106-16.824-22.47-18.866-25.508-1.34-1.993-2.506-7.258-5.486-6.98 0 0-1.25 0-1.25-1.25 0-.307.075-.539.188-.713l-.334-.102s-1.185-.395-.79-1.581 1.581-.79 1.581-.79l1.762.622c.53.586 1.459.608 2.205.867 1.231.427 3.64 1.936 4.795 2.633 2.477 1.496 4.756 3.687 6.727 5.68.987.998 2.356 1.54 3.435 2.439 1.98 1.652 3.742 3.737 5.565 5.56 1.413 1.414 3.13 2.617 4.5 4 .828.836 3.495 3.501 4.06 4.065.354.354 1.444 1.526 1.815 1.826 1.474 1.194 2.539 3.265 4.06 4.549.976.824 5.397 4.19 6.625 5.625 1.779 2.079 4.02 3.526 5.94 5.435 1.343 1.352 3.58 3.878 5.232 4.796.6.334 1.39.183 2 .5 1.603.836 3.262 2.966 4.676 4.122 2.487 2.032 5.74 3.103 8.365 4.903 2.656 1.821 6.371 2.263 9.135 4.097 2.27 2.252 5.218 2.9 8.177 4.59 3.825 2.186 7.918 4.05 11.818 5.16 5.336 1.517 9.72 4.413 15.513 2.482 4.096-.01 7.512-1.849 11.5-2.5.933-.152 1.946.355 2.838.038 3.142-1.12 6.878-2.184 9.705-3.867 1.364-.813 12.359-9.713 12.224-8.903-.27 1.615-1.17 3.981-1.68 6.213-.403 1.763-.363 3.443-.966 4.602-.988 1.897-4.638 3.404-6.372 4.274-.76.382-1.535.765-2.32 1.14-.15.918-1.084.982-1.214.987m.284-.284.086-.082z" style="mix-blend-mode:normal;fill-rule:nonzero;stroke-linecap:butt;stroke-linejoin:miter;stroke-miterlimit:10;stroke-dasharray:none;stroke-dashoffset:0" transform="translate(-43.38 1.969)scale(.43367)"/><path fill="#b0805c" d="M168.718 121.492c-1.207-.91-2.69-1.673-3.488-2.923l-2.312-1.682a2.5 2.5 0 0 1-.96-1.356c-2.424-2.056-4.834-4.12-7.097-6.383q-.298-.3-.595-.602h-.037c-.69 0-8.86-9.339-9.789-10.677 0 0-1.423-2.055.633-3.478 1.077-.746 14.932 15.986 31.9 27.445 7.903 5.336 17.743 10.846 25.638 14.201 3.191 1.357 8.852 3.572 14.866 4.443 8.134 1.178 16.626.068 17.826-.138 1.237-.212-1.098 5.598-2.303 5.777l-3.16.527-.008-.046a6 6 0 0 1-.251.075c-1.81.504-13.752.021-13.752.021-.015.001-5.195-.552-10.147-2.275-2.99-1.04-13.705-5.983-20.61-10.131-2.772-1.666-7.742-5.167-9.996-7.027-.69-.571-4.44-4.327-6.358-5.771z" style="mix-blend-mode:normal;fill-rule:nonzero;stroke-linecap:butt;stroke-linejoin:miter;stroke-miterlimit:10;stroke-dasharray:none;stroke-dashoffset:0" transform="translate(-43.38 1.969)scale(.43367)"/><path fill="#fff" stroke="#000" stroke-width="5" d="M265.29 115.466c-.859 3.52-2.859 8.6-7.516 12.985-6.283 5.916-18.196 10.172-33.588 10.172-15.853 0-38.322-11.26-54.937-24.188-15.562-12.11-27.354-25.54-31.768-31.137-1.34-1.698.725-1.672 3.836-.013 13.758 7.334 53.246 27.484 82.369 30.338 23.546 2.308 34.525.385 39.195-1.124 2.279-.737 3.042.372 2.409 2.967z" style="mix-blend-mode:normal;fill-rule:nonzero;stroke-linecap:butt;stroke-linejoin:miter;stroke-miterlimit:10;stroke-dasharray:none;stroke-dashoffset:0" transform="translate(-43.38 1.969)scale(.43367)"/><path fill="#a77432" d="M138.071 141.966c1.098 1.093 3.03 2.295 2.91 4.235-.11 1.77-1.658 2.234-2.871 2.858-.46.237-21.487-32.347-21.94-32.147-.662.293 19.254 33.353 18.596 33.598-1.64.611-3.287 1.13-5.067 1.844-.423.21-8.215 2.005-11.815 2.747-1.092.225-1.798.196-1.798.196s-.587-.655-.99-1.762c-2.127-5.842-8.468-24.281-8.607-25.47-.322-2.743-4.488-14.496-4.82-17.177-.47-3.797.532-26.496.532-26.496s.086 3.162 1.96 6.27c8.142 13.512 31.214 48.621 33.91 51.304" style="mix-blend-mode:normal;fill-rule:nonzero;stroke-linecap:butt;stroke-linejoin:miter;stroke-miterlimit:10;stroke-dasharray:none;stroke-dashoffset:0" transform="translate(-43.38 1.969)scale(.43367)"/><path fill="#362d0a" d="M104.577 69.724V45.848c0-.794-.043-4.639.108-6.419-.446-.212-.904-.646-.904-1.54 0-1.74 1.741-1.74 1.741-1.74 1.989 0 4.001.352 5.967.046 1.403-.218 2.342-1.625 3.614-2.257 1.452-.722 3.242-.663 4.625-1.509 4.617-2.824 8.534-5.783 13.964-7.339 5.552-1.59 10.859-1.395 10.976 5.637-.039 3.02-.177 4.778-1.851 7.282-.733 1.095-1.465 2.21-2.39 3.15-.638.647-2.182.787-2.136 1.696.22 4.324 9.389 6.583 7.875 11.517-.38 1.237-3.48 2.713-4.848 3.38-2.814 1.37-5.87.95-8.768 2.394-.938.467-1.641 1.403-2.648 1.694-1.43.413-3.273.224-4.261 1.338-6.29 3.191-11.181 6.913-17.331 9.832l-.4-.094v.14h-2.388v-.698l-1.608-.376q.41-.743.79-1.484l-.413-.413.29-.29q-.005-.07-.004-.071zm6.696-30.108c.039.854-.233 1.804-.077 2.649.265 1.444 1.354 2.654 1.615 4.1.599 3.315.504 8.288.01 11.634-.329 2.223-1.89 4.108-2.43 6.29-.255 1.026-.107 2.558-.26 3.865 4.43-2.574 8.554-5.385 13.473-7.801.648-.596 1.113-1.498 1.944-1.788 1.053-.367 2.272.246 3.345-.058 2.476-.7 4.587-2.758 7.388-3.235 1.766-.301 5.196-.414 6.59-2.03.465-.539-1.193-.775-1.758-1.207a11 11 0 0 1-1.986-1.986c-2.08-2.677-4.379-3.296-4.297-7.574.055-2.893 1.717-2.382 3.235-3.875 2.342-2.303 3.173-4.772 3.121-7.873.135-5.749-6.351-1.973-9.593-.755-3.971 1.492-6.49 3.325-10.035 5.419-1.99 1.176-2.988.7-4.925 1.675-1.328.668-2.772 2.215-4.345 2.518-.075.014-.462.025-1.015.032z" style="mix-blend-mode:normal;fill-rule:nonzero;stroke-linecap:butt;stroke-linejoin:miter;stroke-miterlimit:10;stroke-dasharray:none;stroke-dashoffset:0" transform="translate(-43.38 1.969)scale(.43367)"/><path fill="#362d0a" d="M112.229 39.549c1.573-.303 3.03-1.866 4.357-2.535 1.937-.975 2.956-.512 4.947-1.688 3.545-2.094 6.108-3.929 10.08-5.421 3.241-1.218 9.753-4.98 9.619.769.052 3.101-.77 5.58-3.112 7.882-1.519 1.493-3.177.988-3.232 3.88-.081 4.279 2.228 4.947 4.308 7.625.574.74 1.241 1.425 1.985 1.994.564.432 2.222.67 1.758 1.208-1.395 1.616-4.836 1.75-6.602 2.05-2.801.478-4.953 2.562-7.429 3.262-1.073.304-2.313-.308-3.366.06-.831.29-1.305 1.19-1.953 1.786-4.92 2.416-9.072 5.213-13.502 7.787.153-1.307 0-2.843.255-3.87.541-2.181 2.095-4.075 2.423-6.298.494-3.346.576-8.367-.023-11.683-.26-1.445-1.346-2.671-1.612-4.116-.155-.845.12-1.804.082-2.658.554-.007.941-.02 1.017-.034" data-paper-data="{&quot;noHover&quot;:false,&quot;origItem&quot;:[&quot;Path&quot;,{&quot;applyMatrix&quot;:true,&quot;segments&quot;:[[[294.04917,294.74577],[0.79522,-0.01042],[0.05528,1.2262]],[[293.93789,298.54942],[-0.22288,-1.21277],[0.38132,2.07488]],[[296.2582,304.43763],[-0.37476,-2.07608],[0.85943,4.76098]],[[296.27175,321.14355],[0.70932,-4.80427],[-0.47142,3.19298]],[[292.7829,330.17593],[0.77671,-3.13274],[-0.36561,1.47463]],[[292.40868,335.72708],[0.22052,-1.87787],[6.36232,-3.69662]],[[311.75728,324.52427],[-7.06403,3.47026],[0.93026,-0.85577]],[[314.54806,321.95696],[-1.19343,0.41649],[1.51203,-0.52767]],[[319.35174,321.87393],[-1.54105,0.43571],[3.55529,-1.00519]],[[329.96146,317.22751],[-4.02299,0.68494],[2.53614,-0.43179]],[[339.4258,314.31246],[-2.00306,2.32089],[0.66697,-0.7728]],[[336.90014,312.58048],[0.8107,0.62035],[-1.06773,-0.81703]],[[334.04809,309.72844],[0.82473,1.06179],[-2.98688,-3.84541]],[[327.87684,298.85101],[-0.11696,6.14341],[0.07908,-4.15354]],[[332.52356,293.2866],[-2.18084,2.14469],[3.36193,-3.30621]],[[337.00477,281.98095],[0.07451,4.45348],[0.19342,-8.25467]],[[323.22928,280.89709],[4.65492,-1.74917],[-5.70309,2.14304]],[[308.8191,288.679],[5.0914,-3.0077],[-2.85813,1.68842]],[[301.746,291.08388],[2.78215,-1.40095],[-1.90694,0.96024]],[[295.50772,294.69978],[2.25868,-0.43525],[-0.10793,0.0208]]],&quot;closed&quot;:true}]}" style="mix-blend-mode:normal;fill-rule:nonzero;stroke-linecap:butt;stroke-linejoin:miter;stroke-miterlimit:10;stroke-dasharray:none;stroke-dashoffset:0" transform="translate(-43.38 1.969)scale(.43367)"/><path fill="#b0805c" d="M196.522 109.498c.484.05.96.14 1.453.278l.067-.335 1.795.36a1.25 1.25 0 0 1 .055 2.449l-1.429.357c-1.288.32-3.16.66-4.203 1.543-.403.34-.455 1.12-.965 1.256-.945.252-2.155.381-2.928-.219-.637-.494-.26-2.8-.357-3.64-.269-2.327-1.682-3.387-3.452-4.567 0 0-1.04-.694-.347-1.734s1.733-.346 1.733-.346c.723.481 2.005 1.568 3.088 2.856.767-.606 2.01-.52 2.99-.373.61.091.985 1.047 1.593.943zM177.802 102.354c.341-.21.722-.21.722-.21h.363c.49 0 .974.058 1.455.152v-.152h1.818a1.25 1.25 0 0 1 .278 2.47l-1.27.317c-.876.605-2.305 1.69-3.329 1.49-.664-.13-2.111-2.566-2.918-3.078 0 0-1.04-.693-.346-1.733.693-1.04 1.733-.347 1.733-.347.725.5 1.135.697 1.494 1.091M168.862 97.056c.884.884 0 1.768 0 1.768l-.571.536c-1.024 1.304-1.711 3.034-4.106 1.282-.957-.7-.397-2.341-.692-3.49 0 0-.303-1.213.91-1.516 1.212-.303 1.515.91 1.515.91.35 1.433-.355 3.023.293 1.428l.883-.918s.884-.884 1.768 0M156.514 92.327q.102.032.191 0zm-.198-.108c.279-.205.958-.57 1.637.11.884.884 0 1.767 0 1.767l-1.248.73c-.74-.088-1.638.199-2.223-.265-.597-.472-.538-1.424-.807-2.136 0 0-.304-1.213.91-1.516 1.212-.303 1.515.91 1.515.91-.014.136.084.294.216.4M211.774 116.994v.219a1.25 1.25 0 0 1-2.47.277l-.341-1.367a26 26 0 0 1-1.107-3.335s-.303-1.212.91-1.515c.918-.23 1.315.41 1.453.733.635-.021 1.326.06 1.916-.041l-.008.616.598-.399a1.25 1.25 0 1 1 1.385 2.081l-.94.627c-.397.831-.876 1.645-1.396 2.104z" style="mix-blend-mode:normal;fill-rule:nonzero;stroke-linecap:butt;stroke-linejoin:miter;stroke-miterlimit:10;stroke-dasharray:none;stroke-dashoffset:0" transform="translate(-43.38 1.969)scale(.43367)"/><path fill="url(#e)" d="M223.527 132.127c-3.453 0-8.398.55-11.366-1.47-.893-.609-2.656-3.728-2.874-5.552-.727.782-1.48 1.523-2.498 1.879-4.325 2.932-16.776.158-16.807-6.182-.572-2.398-3.724-.908-5.996-1.212-4.553-.61-7.722-4.193-7.553-8.697-.21.207-1.638 1.255-2.27 1.462-1.393.456-3.387.507-4.861.3-1.71-.242-3.958-.919-4.837-2.524-.384-.702-.436-2.418-.06-3.406-4.36.322-7.18-1.748-8.782-6.021-.33-.883-.684-1.39-.71-2.125-.628.503-1.19.678-2.082.976 0 0-.712.237-.95-.475-.236-.711.475-.948.475-.948.605-.202 1.24-.282 1.701-.72l.22-.656a.75.75 0 0 1 1.42-.042l.526 1.317-.2.08c1.002 2.138 1.676 4.475 3.27 6.108 1.352 1.383 3.725.352 5.084 1.142v-.118a.75.75 0 1 1 1.5 0v.8h-.288q.041.267.068.53c.156 1.487.065 2.908 1.258 3.94 1.551 1.344 6.566.942 8.217-.041.531-.316.603-1.27 1.461-1.179.524.056.818.664 1.227.997.123 3.895 1.463 6.149 5.194 7.594 3.352 1.298 7.27-1.876 8.457 2.734-.028 5.372 11.147 7.328 14.66 5.018 1.105-.347 1.757-1.302 2.594-2.091l.218-.656a.75.75 0 0 1 1.434 0l.261.784-.26.086c.754 2.012.966 4.583 2.647 5.671 2.707 1.751 7.36 1.197 10.502 1.197 2.301 0 2.793 1.5 0 1.5" style="mix-blend-mode:normal;fill:url(#e);fill-rule:nonzero;stroke-linecap:butt;stroke-linejoin:miter;stroke-miterlimit:10;stroke-dasharray:none;stroke-dashoffset:0" transform="translate(-43.38 1.969)scale(.43367)"/><path fill="none" stroke="#000" stroke-width="5" d="M265.49 115.932c-.859 3.521-2.859 8.6-7.516 12.986-6.283 5.916-18.196 10.172-33.588 10.172-15.853 0-38.322-11.26-54.937-24.188-15.562-12.11-27.354-25.54-31.768-31.137-1.34-1.698.725-1.672 3.836-.014 13.758 7.335 53.246 27.484 82.369 30.339 23.546 2.308 34.525.385 39.195-1.125 2.279-.737 3.042.373 2.409 2.967z" style="mix-blend-mode:normal;fill-rule:nonzero;stroke-linecap:butt;stroke-linejoin:miter;stroke-miterlimit:10;stroke-dasharray:none;stroke-dashoffset:0" transform="translate(-43.38 1.969)scale(.43367)"/><path fill="#9b7151" d="M122.895 178.784c-.76-.84-1.498-1.776-1.4-2.31.321-1.756 3.233-1.748 4.826-1.75 3.261-.007 7.01.337 10.178.005 2.612-.274 3.992-1.344 6.833-1.307 1.925.956 4.905 2.36 7.168 2.645 4.593.575 8.185-.494 12.365 1.435.707.327 3.523 1.97 3.46 2.638-.175 1.89-5.16 1.743-6.756 1.75-7.642 0-16.154-.528-23.692.328-2.936.333-6.106.697-9.003-.033-1.58-.414-2.842-.99-4.153-1.789l-.368-.923s0-.51.542-.69" style="mix-blend-mode:normal;fill-rule:nonzero;stroke-linecap:butt;stroke-linejoin:miter;stroke-miterlimit:10;stroke-dasharray:none;stroke-dashoffset:0" transform="translate(-43.38 1.969)scale(.43367)"/><path fill="#3e4f0c" d="m101.496 181.78.266-70.667 22.934 70.933z" style="mix-blend-mode:normal;fill-rule:nonzero;stroke-linecap:butt;stroke-linejoin:miter;stroke-miterlimit:10;stroke-dasharray:none;stroke-dashoffset:0" transform="translate(-43.38 1.969)scale(.43367)"/><path fill="none" stroke="#000" stroke-width="5" d="M103.54 16.307s14.342.98 31.043-3.111c11.48-2.812 23.548-11.185 34.96-11.185 9.286 0 9.106 1.742 18.997 4.074 8.942 2.108 18.299-3.91 27.595-.162 17.556 7.08 47.394 8.141 61.306 21.94 2.175 2.157 2.078 2.527 3.742 5.064 2.407 3.667 7.564 3.988 9.54 15.61.683 4.02.542 11.078-1.924 14.479-2.927 4.037-6.472 8.451-6.472 8.451s.466 14.234.466 21.794c0 2.595-5.074 4.176-5.22 6.738-.282 4.94.183 11.013-1.06 16.954-1.168 5.581-4.018 11.045-5.098 15.337-2.6 10.336-3.883 24.106-5.039 35.178-.58 5.551-1.814 13.845-1.814 13.845l-162.02-.302Z" style="mix-blend-mode:normal;fill-rule:nonzero;stroke-linecap:butt;stroke-linejoin:miter;stroke-miterlimit:10;stroke-dasharray:none;stroke-dashoffset:0" transform="translate(-43.38 1.969)scale(.43367)"/><path fill="#96822d" d="M120.307 80.553c-8.748-.2-13.416-8.564-13.447-16.485.84-4.195 12.02-12.945 12.519-12.537 2.1 1.719-.607 8.556-1.777 9.63-.206.188 1.31 1.228 1.48 1.399 2.032 1.354 5.087 4.309 4.243 7.13-.307 1.026-1.211 1.98-1.747 2.844-1.121 1.811-.538 4.413-.127 6.319l.71.236a.75.75 0 0 1 0 1.434l-.983.328s-.585.195-.871-.298" style="mix-blend-mode:normal;fill-rule:nonzero;stroke-linecap:butt;stroke-linejoin:miter;stroke-miterlimit:10;stroke-dasharray:none;stroke-dashoffset:0" transform="translate(-43.38 1.969)scale(.43367)"/></svg>