<?xml version="1.0" encoding="UTF-8" standalone="no"?>
<!-- Created with Inkscape (http://www.inkscape.org/) -->

<svg
   width="84"
   height="84"
   viewBox="0 0 22.225 22.225001"
   version="1.1"
   id="svg1082"
   xmlns="http://www.w3.org/2000/svg"
   xmlns:svg="http://www.w3.org/2000/svg">
  <defs
     id="defs1079" />
  <g
     id="layer1">
    <g
       aria-label="gg"
       id="text58657"
       style="font-size:18.4565px;line-height:1.25;font-family:'Russo One';-inkscape-font-specification:'Russo One';letter-spacing:0px;word-spacing:0px;fill:#ffffff;stroke:#000000;stroke-width:1.00002">
      <path
         d="m 7.0520805,13.604127 q -1.7902804,0.36913 -3.1376049,0.36913 H 3.2684982 q -1.255042,0 -2.0117584,-0.756716 Q 0.5000233,12.459824 0.5000233,11.204782 V 7.5134825 q 0,-1.3842374 0.775173,-2.1594104 Q 2.0688257,4.5604427 3.4530632,4.5604427 H 10.281968 V 14.896082 q 0,1.255042 -0.7567166,2.011759 -0.7567165,0.756716 -2.0117584,0.756716 -2.8976704,0 -6.4597747,-0.36913 v -2.399345 q 3.5251913,0.276848 5.3523847,0.276848 0.2768475,0 0.4614125,-0.184565 0.184565,-0.184565 0.184565,-0.461413 z M 4.8373006,11.48163 q 1.1627594,0 2.2147799,-0.184565 V 7.0520701 H 4.4681706 q -0.73826,0 -0.73826,0.7382599 v 3.045322 q 0,0.276848 0.184565,0.461413 0.184565,0.184565 0.4614125,0.184565 z"
         id="path68039" />
      <path
         d="m 18.49509,13.604127 q -1.790281,0.36913 -3.137605,0.36913 h -0.645977 q -1.255042,0 -2.011759,-0.756716 -0.756716,-0.756717 -0.756716,-2.011759 V 7.5134825 q 0,-1.3842374 0.775173,-2.1594104 0.793629,-0.7936294 2.177867,-0.7936294 h 6.828904 V 14.896082 q 0,1.255042 -0.756716,2.011759 -0.756717,0.756716 -2.011759,0.756716 -2.89767,0 -6.459774,-0.36913 v -2.399345 q 3.525191,0.276848 5.352384,0.276848 0.276848,0 0.461413,-0.184565 Q 18.49509,14.8038 18.49509,14.526952 Z M 16.28031,11.48163 q 1.162759,0 2.21478,-0.184565 V 7.0520701 h -2.58391 q -0.73826,0 -0.73826,0.7382599 v 3.045322 q 0,0.276848 0.184565,0.461413 0.184565,0.184565 0.461412,0.184565 z"
         id="path68041" />
    </g>
  </g>
</svg>
