<?xml version="1.0" encoding="UTF-8" standalone="no"?>
<!-- Created with Inkscape (http://www.inkscape.org/) -->

<svg
   width="84"
   height="84"
   viewBox="0 0 22.225 22.225001"
   version="1.1"
   id="svg1"
   xml:space="preserve"
   sodipodi:docname="headshot.svg"
   inkscape:version="1.1.2 (0a00cf5339, 2022-02-04)"
   xmlns:inkscape="http://www.inkscape.org/namespaces/inkscape"
   xmlns:sodipodi="http://sodipodi.sourceforge.net/DTD/sodipodi-0.dtd"
   xmlns="http://www.w3.org/2000/svg"
   xmlns:svg="http://www.w3.org/2000/svg"><sodipodi:namedview
     id="namedview22"
     pagecolor="#505050"
     bordercolor="#ffffff"
     borderopacity="1"
     inkscape:pageshadow="0"
     inkscape:pageopacity="0"
     inkscape:pagecheckerboard="1"
     inkscape:document-units="px"
     showgrid="false"
     units="px"
     inkscape:zoom="4.6935078"
     inkscape:cx="36.007184"
     inkscape:cy="20.453785"
     inkscape:window-width="2560"
     inkscape:window-height="1372"
     inkscape:window-x="0"
     inkscape:window-y="0"
     inkscape:window-maximized="1"
     inkscape:current-layer="svg1" /><defs
     id="defs1" /><g
     id="layer1"
     transform="matrix(0.65625012,0,0,0.65625012,807.48311,-343.71081)"><g
       id="g871"
       transform="matrix(0.40049346,0,0,0.40049346,-1244.0024,441.5563)"><rect
         style="fill:#6e0000;fill-opacity:1;stroke:#6e0000;stroke-width:1.995;stroke-linecap:butt;stroke-linejoin:bevel;stroke-dasharray:none;stroke-opacity:1;paint-order:stroke fill markers"
         id="rect13874"
         width="52.916664"
         height="5.2916665"
         x="53.016666"
         y="231.0775"
         rx="7.7169566"
         ry="2.6458333" /><path
         style="fill:#6e0000;fill-opacity:1;stroke:none;stroke-width:3.50059;stroke-linecap:butt;stroke-linejoin:bevel;stroke-dasharray:none;stroke-opacity:1;paint-order:stroke fill markers"
         d="m 109.99582,222.11828 c -0.51556,0.009 -0.99861,0.3204 -1.20355,0.83044 l -2.466,6.13761 c -0.27325,0.68004 0.0543,1.44757 0.73432,1.72082 0.68005,0.27325 1.44706,-0.0543 1.72032,-0.73432 l 2.46651,-6.13813 c 0.27325,-0.68004 -0.0543,-1.44705 -0.73432,-1.7203 -0.17001,-0.0683 -0.34543,-0.099 -0.51728,-0.0961 z"
         id="path2645" /><path
         style="fill:#6e0000;fill-opacity:1;stroke:none;stroke-width:3.50059;stroke-linecap:butt;stroke-linejoin:bevel;stroke-dasharray:none;stroke-opacity:1;paint-order:stroke fill markers"
         d="m 104.92792,221.45631 c -0.67211,-0.001 -1.24496,0.42702 -1.31517,1.00614 l -0.67592,5.57537 c -0.0749,0.61771 0.45175,1.16592 1.1808,1.22937 0.72906,0.0635 1.37619,-0.38273 1.45108,-1.00045 l 0.67593,-5.57485 c 0.0749,-0.61772 -0.45176,-1.16645 -1.18081,-1.2299 -0.0456,-0.004 -0.0911,-0.006 -0.13591,-0.006 z"
         id="rect2638" /><circle
         style="opacity:1;fill:#ff0a0a;fill-opacity:1;fill-rule:nonzero;stroke:#5d0000;stroke-width:5.625;stroke-linecap:round;stroke-linejoin:round;stroke-miterlimit:4;stroke-dasharray:none;stroke-dashoffset:0;stroke-opacity:1;paint-order:markers stroke fill"
         id="path10-9"
         cx="64.488503"
         cy="247.51151"
         r="27.837301" /><circle
         style="opacity:1;fill:#5d0000;fill-opacity:1;fill-rule:nonzero;stroke:none;stroke-width:3.60675;stroke-linecap:round;stroke-linejoin:bevel;stroke-miterlimit:4;stroke-dasharray:none;stroke-dashoffset:0;stroke-opacity:1;paint-order:markers stroke fill"
         id="path5010-77"
         cx="73.568771"
         cy="245.99373"
         r="4.21875" /><circle
         cy="87.203583"
         cx="-245.99399"
         id="circle5014-64"
         style="opacity:1;fill:#5d0000;fill-opacity:1;fill-rule:nonzero;stroke:none;stroke-width:3.60675;stroke-linecap:round;stroke-linejoin:bevel;stroke-miterlimit:4;stroke-dasharray:none;stroke-dashoffset:0;stroke-opacity:1;paint-order:markers stroke fill"
         transform="rotate(-90)"
         r="4.21875" /><rect
         style="fill:#5d0000;fill-opacity:1;stroke:#5d0000;stroke-width:3.18484;stroke-linecap:butt;stroke-linejoin:bevel;stroke-dasharray:none;stroke-opacity:1"
         id="rect2298"
         width="13.018749"
         height="1.9997271"
         x="74.188538"
         y="258.69876"
         ry="0.99986356"
         rx="6.5093746" /><circle
         style="fill:#6e0000;fill-opacity:1;stroke:none;stroke-width:4.99353;stroke-linecap:butt;stroke-linejoin:bevel;stroke-dasharray:none;stroke-opacity:1"
         id="path2408"
         cx="50.302082"
         cy="235.97092"
         r="4" /><path
         style="fill:#6e0000;fill-opacity:1;stroke:none;stroke-width:3.30301;stroke-linecap:butt;stroke-linejoin:bevel;stroke-dasharray:none;stroke-opacity:1"
         d="m 50.270833,231.97092 1.322916,-2.64584 1.322917,3.96875 3.96875,1.32292 -3.968749,2.64583 1.322916,3.96875 -3.96875,-2.64583 -2.645834,2.64583 v -2.64583 l -2.645833,1.32292 c 3.655227,-3.67912 -3.636399,-7.95291 1.322917,-5.29167 l -1.322916,-2.64583 2.645833,1.32291 -10e-7,-3.96875 z"
         id="path2464" /><rect
         style="fill:#6e0000;fill-opacity:1;stroke:none;stroke-width:3.80299;stroke-linecap:butt;stroke-linejoin:bevel;stroke-dasharray:none;stroke-opacity:1;paint-order:stroke fill markers"
         id="rect2634"
         width="9.260417"
         height="2.6458333"
         x="109.14062"
         y="232.23552"
         rx="1.3229116"
         ry="2.6458333" /><path
         style="fill:#6e0000;fill-opacity:1;stroke:none;stroke-width:3.50059;stroke-linecap:butt;stroke-linejoin:bevel;stroke-dasharray:none;stroke-opacity:1;paint-order:stroke fill markers"
         d="m 109.99582,245.05798 c -0.51556,-0.009 -0.99861,-0.3204 -1.20355,-0.83044 l -2.466,-6.13761 c -0.27325,-0.68004 0.0543,-1.44757 0.73432,-1.72082 0.68005,-0.27325 1.44706,0.0543 1.72032,0.73432 l 2.46651,6.13813 c 0.27325,0.68004 -0.0543,1.44705 -0.73432,1.7203 -0.17001,0.0683 -0.34543,0.099 -0.51728,0.0961 z"
         id="path2647" /><path
         style="fill:#6e0000;fill-opacity:1;stroke:none;stroke-width:3.50059;stroke-linecap:butt;stroke-linejoin:bevel;stroke-dasharray:none;stroke-opacity:1;paint-order:stroke fill markers"
         d="m 104.92792,245.71995 c -0.67211,10e-4 -1.24496,-0.42702 -1.31517,-1.00614 l -0.67592,-5.57537 c -0.0749,-0.61771 0.45175,-1.16592 1.1808,-1.22937 0.72906,-0.0635 1.37619,0.38273 1.45108,1.00045 l 0.67593,5.57485 c 0.0749,0.61772 -0.45176,1.16645 -1.18081,1.2299 -0.0456,0.004 -0.0911,0.006 -0.13591,0.006 z"
         id="path2649" /></g></g><style
     type="text/css"
     id="style16758">
	.st0{fill:#FFC300;stroke:#695000;stroke-width:13;stroke-miterlimit:10;}
	.st1{fill:#FFC300;stroke:#695000;stroke-width:13;stroke-linecap:round;stroke-miterlimit:10;}
</style><style
     type="text/css"
     id="style16758-4">
	.st0{fill:#FFC300;stroke:#695000;stroke-width:13;stroke-miterlimit:10;}
	.st1{fill:#FFC300;stroke:#695000;stroke-width:13;stroke-linecap:round;stroke-miterlimit:10;}
</style><style
     type="text/css"
     id="style16758-5">
	.st0{fill:#FFC300;stroke:#695000;stroke-width:13;stroke-miterlimit:10;}
	.st1{fill:#FFC300;stroke:#695000;stroke-width:13;stroke-linecap:round;stroke-miterlimit:10;}
</style><style
     type="text/css"
     id="style16758-9">
	.st0{fill:#FFC300;stroke:#695000;stroke-width:13;stroke-miterlimit:10;}
	.st1{fill:#FFC300;stroke:#695000;stroke-width:13;stroke-linecap:round;stroke-miterlimit:10;}
</style></svg>
