<?xml version="1.0" encoding="UTF-8" standalone="no"?>
<!-- Created with Inkscape (http://www.inkscape.org/) -->

<svg
   width="84"
   height="84"
   viewBox="0 0 22.224999 22.225"
   version="1.1"
   id="svg1930"
   xml:space="preserve"
   inkscape:version="1.4 (1:1.4+202410161351+e7c3feb100)"
   sodipodi:docname="lag.svg"
   xmlns:inkscape="http://www.inkscape.org/namespaces/inkscape"
   xmlns:sodipodi="http://sodipodi.sourceforge.net/DTD/sodipodi-0.dtd"
   xmlns="http://www.w3.org/2000/svg"
   xmlns:svg="http://www.w3.org/2000/svg"><sodipodi:namedview
     id="namedview1932"
     pagecolor="#ffffff"
     bordercolor="#666666"
     borderopacity="1.0"
     inkscape:showpageshadow="2"
     inkscape:pageopacity="0.0"
     inkscape:pagecheckerboard="0"
     inkscape:deskcolor="#d1d1d1"
     inkscape:document-units="px"
     showgrid="false"
     inkscape:zoom="6.7277216"
     inkscape:cx="46.969839"
     inkscape:cy="50.760126"
     inkscape:window-width="2560"
     inkscape:window-height="1368"
     inkscape:window-x="0"
     inkscape:window-y="0"
     inkscape:window-maximized="1"
     inkscape:current-layer="layer1" /><defs
     id="defs1927"><filter
       inkscape:collect="always"
       style="color-interpolation-filters:sRGB"
       id="filter24256"
       x="-0.023716543"
       y="-0.063633784"
       width="1.0474331"
       height="1.1272676"><feGaussianBlur
         inkscape:collect="always"
         stdDeviation="0.055227537"
         id="feGaussianBlur24258" /></filter><filter
       inkscape:collect="always"
       style="color-interpolation-filters:sRGB"
       id="filter24316"
       x="-0.095210539"
       y="-0.25545911"
       width="1.1904211"
       height="1.5109182"><feGaussianBlur
         inkscape:collect="always"
         stdDeviation="1.0161637"
         id="feGaussianBlur24314" /></filter></defs><g
     inkscape:label="Layer 1"
     inkscape:groupmode="layer"
     id="layer1"><path
       d="m 65.10001,123.63411 h 6.180655 v 2.37066 h -9.228649 v -11.85331 h 3.047994 z m 9.482645,2.37066 h -3.301994 l 4.487325,-11.85331 h 3.38666 l 4.487324,11.85331 h -3.301993 l -0.761999,-2.11666 h -4.233325 z m 1.523997,-4.31799 h 2.709328 l -1.354664,-3.97933 z m 18.203273,4.06399 q -3.962392,0.42333 -7.281319,0.42333 -1.659463,0 -2.438395,-0.77893 -0.778932,-0.77893 -0.778932,-2.4384 v -5.41865 q 0,-1.778 0.795865,-2.57386 0.812799,-0.8128 2.590795,-0.8128 h 6.095988 v 2.37066 h -5.418656 q -1.015998,0 -1.015998,1.016 v 5.41865 q 0,0.38947 0.220133,0.62654 0.237066,0.22013 0.626532,0.22013 1.94733,0 3.555993,-0.0847 v -2.45533 h -2.201329 v -2.03199 h 5.249323 z"
       id="text24320"
       style="font-weight:bold;font-size:16.9333px;line-height:1.25;font-family:'Russo One';-inkscape-font-specification:'Russo One Bold';letter-spacing:0px;word-spacing:0px;fill:none;stroke:#cc0000;stroke-width:1.265;filter:url(#filter24316)"
       transform="matrix(0.57876857,0,0,0.57876857,-34.136189,-58.43394)"
       aria-label="LAG" /><path
       d="m 65.10001,123.63411 h 6.180655 v 2.37066 h -9.228649 v -11.85331 h 3.047994 z m 9.482645,2.37066 h -3.301994 l 4.487325,-11.85331 h 3.38666 l 4.487324,11.85331 h -3.301993 l -0.761999,-2.11666 h -4.233325 z m 1.523997,-4.31799 h 2.709328 l -1.354664,-3.97933 z m 18.203273,4.06399 q -3.962392,0.42333 -7.281319,0.42333 -1.659463,0 -2.438395,-0.77893 -0.778932,-0.77893 -0.778932,-2.4384 v -5.41865 q 0,-1.778 0.795865,-2.57386 0.812799,-0.8128 2.590795,-0.8128 h 6.095988 v 2.37066 h -5.418656 q -1.015998,0 -1.015998,1.016 v 5.41865 q 0,0.38947 0.220133,0.62654 0.237066,0.22013 0.626532,0.22013 1.94733,0 3.555993,-0.0847 v -2.45533 h -2.201329 v -2.03199 h 5.249323 z"
       id="text24312"
       style="font-weight:bold;font-size:16.9333px;line-height:1.25;font-family:'Russo One';-inkscape-font-specification:'Russo One Bold';letter-spacing:0px;word-spacing:0px;fill:none;stroke:#cc0000;stroke-width:1.265;filter:url(#filter24316)"
       transform="matrix(0.57876857,0,0,0.57876857,-34.136189,-58.43394)"
       aria-label="LAG" /><path
       d="m 65.10001,123.63411 h 6.180655 v 2.37066 h -9.228649 v -11.85331 h 3.047994 z m 9.482645,2.37066 h -3.301994 l 4.487325,-11.85331 h 3.38666 l 4.487324,11.85331 h -3.301993 l -0.761999,-2.11666 h -4.233325 z m 1.523997,-4.31799 h 2.709328 l -1.354664,-3.97933 z m 18.203273,4.06399 q -3.962392,0.42333 -7.281319,0.42333 -1.659463,0 -2.438395,-0.77893 -0.778932,-0.77893 -0.778932,-2.4384 v -5.41865 q 0,-1.778 0.795865,-2.57386 0.812799,-0.8128 2.590795,-0.8128 h 6.095988 v 2.37066 h -5.418656 q -1.015998,0 -1.015998,1.016 v 5.41865 q 0,0.38947 0.220133,0.62654 0.237066,0.22013 0.626532,0.22013 1.94733,0 3.555993,-0.0847 v -2.45533 h -2.201329 v -2.03199 h 5.249323 z"
       id="text24254"
       style="font-weight:bold;font-size:16.9333px;line-height:1.25;font-family:'Russo One';-inkscape-font-specification:'Russo One Bold';letter-spacing:0px;word-spacing:0px;fill:#ff4949;stroke:#420000;stroke-width:1.265;filter:url(#filter24256)"
       transform="matrix(0.57876857,0,0,0.57876857,-34.136189,-58.43394)"
       aria-label="LAG" /></g></svg>
