<svg xmlns="http://www.w3.org/2000/svg" xml:space="preserve" width="84" height="84" viewBox="0 0 22.225 22.225"><circle cx="11.113" cy="11.113" r="10.603" style="fill:#36ffce;fill-opacity:1;fill-rule:nonzero;stroke:#007c5d;stroke-width:1.0197;stroke-linecap:round;stroke-linejoin:round;stroke-miterlimit:4;stroke-dasharray:none;stroke-dashoffset:0;stroke-opacity:1;paint-order:normal"/><circle cx="-8.968" cy="6.742" r=".86" style="fill:#007c5d;fill-opacity:1;fill-rule:nonzero;stroke:none;stroke-width:.735603;stroke-linecap:round;stroke-linejoin:bevel;stroke-miterlimit:4;stroke-dasharray:none;stroke-dashoffset:0;stroke-opacity:1;paint-order:markers stroke fill" transform="rotate(-90)"/><circle cx="6.742" cy="8.968" r="2.435" style="fill:none;stroke:#007c5d;stroke-width:1.22365;stroke-linecap:round;stroke-linejoin:round;stroke-dasharray:none;stroke-dashoffset:19.953;stroke-opacity:1;paint-order:stroke fill markers"/><circle cx="15.483" cy="8.968" r=".86" style="mix-blend-mode:normal;fill:#007c5d;fill-opacity:1;fill-rule:nonzero;stroke:none;stroke-width:.735603;stroke-linecap:round;stroke-linejoin:bevel;stroke-miterlimit:4;stroke-dasharray:none;stroke-dashoffset:0;stroke-opacity:1;paint-order:markers stroke fill"/><circle cx="15.483" cy="8.968" r="2.435" style="fill:none;stroke:#007c5d;stroke-width:1.22365;stroke-linecap:round;stroke-linejoin:round;stroke-dasharray:none;stroke-dashoffset:19.953;stroke-opacity:1;paint-order:stroke fill markers"/><path d="M6.256 15.228c3.62 2.242 6.152 2.301 9.713 0" style="fill:none;stroke:#007c5d;stroke-width:1.48892;stroke-linecap:round;stroke-linejoin:round;stroke-dasharray:none;stroke-dashoffset:19.953;stroke-opacity:1;paint-order:stroke fill markers"/><path d="m19.061 1.52-.368-.326.358-.478.378.47" style="fill:#0058e3;fill-opacity:1;stroke:none;stroke-width:.348574;stroke-linecap:square;stroke-linejoin:miter;stroke-dasharray:none;stroke-dashoffset:19.953;stroke-opacity:1;paint-order:stroke fill markers"/><path d="m19.428 1.182-.366.24-.365-.234S17.66 2.792 17.12 4.434c-.27.82-.445 1.659-.209 2.396.118.369.366.71.733.92.366.21.828.295 1.384.27 1.114-.05 1.85-.595 2.094-1.338.245-.744.09-1.578-.168-2.38-.514-1.601-1.525-3.12-1.525-3.12m-.364 1.226c.296.488.717 1.094 1.059 2.16.23.718.311 1.413.17 1.842s-.414.7-1.305.74c-.445.02-.734-.054-.912-.156a.69.69 0 0 1-.336-.43c-.129-.401-.04-1.115.205-1.857.369-1.119.819-1.793 1.12-2.299" style="fill:#0058e3;stroke-linejoin:bevel;paint-order:stroke fill markers"/><path d="M19.063 1.422S15 7.765 19.007 7.585c4.009-.18.056-6.163.056-6.163" style="fill:#3479ff;stroke-linejoin:bevel;paint-order:stroke fill markers"/></svg>