<svg xmlns="http://www.w3.org/2000/svg" xmlns:xlink="http://www.w3.org/1999/xlink" width="84" height="84" viewBox="0 0 22.225 22.225"><defs><radialGradient xlink:href="#a" id="b" cx="70.32" cy="24.313" r="10.276" fx="70.32" fy="24.313" gradientTransform="matrix(1.1885 0 0 2.99198 11.584 42.338)" gradientUnits="userSpaceOnUse"/><linearGradient id="a"><stop offset="0" style="stop-color:#3b6732;stop-opacity:1"/><stop offset="1" style="stop-color:#274521;stop-opacity:1"/></linearGradient></defs><path d="M103.685 117.454c-1.125 14.808-4.919 16.1-8.521 18.499-3.603-2.337-7.398-3.672-8.53-18.476 2.976-.198 5.99-.325 8.525-2.257 2.537 1.883 5.55 2.044 8.526 2.234z" style="fill:url(#b);fill-rule:nonzero;stroke:#0e2b08;stroke-width:1.49244;stroke-linejoin:round;stroke-dasharray:none;stroke-opacity:1" transform="translate(-84.047 -114.474)"/><path d="M91.798 116.9v4.526l-5.098.006v1.6l5.099-.007.003 11.25 1.477-.002-.003-11.25 10.342-.013v-1.599l-10.342.013v-4.527z" style="fill:#0e2b08;fill-opacity:1;fill-rule:nonzero;stroke:none;stroke-width:1.62063e-08;stroke-linejoin:round;stroke-dasharray:none;stroke-opacity:1" transform="translate(-84.047 -114.474)"/><path d="M102.897 118.132s-3.194 21.332-12.97 11.556c0 0 .828 3.01 5.212 5.354 6.12-3.279 6.788-8.779 7.758-16.91" style="fill:#000;fill-opacity:.2;fill-rule:evenodd;stroke:none;stroke-width:.954911;stroke-linecap:round;stroke-linejoin:round;stroke-miterlimit:29;stroke-dasharray:none;stroke-opacity:1" transform="translate(-84.047 -114.474)"/></svg>