<?xml version="1.0" encoding="UTF-8" standalone="no"?>
<svg
   version="1.1"
   width="84"
   height="84"
   viewBox="0 0 84 84"
   id="svg80"
   sodipodi:docname="rip.svg"
   inkscape:version="1.1.2 (0a00cf5339, 2022-02-04)"
   xmlns:inkscape="http://www.inkscape.org/namespaces/inkscape"
   xmlns:sodipodi="http://sodipodi.sourceforge.net/DTD/sodipodi-0.dtd"
   xmlns="http://www.w3.org/2000/svg"
   xmlns:svg="http://www.w3.org/2000/svg">
  <defs
     id="defs84" />
  <sodipodi:namedview
     id="namedview82"
     pagecolor="#505050"
     bordercolor="#ffffff"
     borderopacity="1"
     inkscape:pageshadow="0"
     inkscape:pageopacity="0"
     inkscape:pagecheckerboard="1"
     showgrid="false"
     inkscape:zoom="5.084598"
     inkscape:cx="-2.1633962"
     inkscape:cy="44.054614"
     inkscape:window-width="2560"
     inkscape:window-height="1372"
     inkscape:window-x="0"
     inkscape:window-y="0"
     inkscape:window-maximized="1"
     inkscape:current-layer="g76" />
  <g
     data-paper-data="{&quot;isPaintingLayer&quot;:true}"
     fill-rule="nonzero"
     stroke-linejoin="miter"
     stroke-miterlimit="10"
     stroke-dasharray="none"
     stroke-dashoffset="0"
     style="mix-blend-mode:normal"
     id="g76"
     transform="translate(-147.35,-130.30334)">
    <g
       id="g857"
       transform="matrix(0.65624999,0,0,0.65624999,50.651565,44.791772)">
      <path
         d="m 165.31623,251.67917 c 0,0 0,-52.7777 0,-74.28436 0,-16.50958 9.14803,-43.64528 44.60378,-43.77471 38.16578,-0.13932 44.9354,28.26843 44.9354,45.10122 0,21.40907 0,72.95785 0,72.95785 z"
         fill="#cecece"
         stroke="#8a8a8a"
         stroke-width="6.63253"
         stroke-linecap="butt"
         id="path2" />
      <path
         d="m 178.23989,176.81582 c 0,-5.41608 0,-13.5645 0,-16.35544 0,-1.86668 2.26611,-4.01023 4.71792,-4.01023 6.95441,0 40.70789,0 53.78424,0 3.22288,0 5.1897,1.64008 5.1897,4.01023 0,4.9108 0,12.95581 0,16.04091 0,2.37938 -2.22529,5.4256 -5.81876,5.4256 -13.40601,0 -45.85404,0 -52.84065,0 -2.59492,0 -5.03245,-2.14611 -5.03245,-5.11109 z"
         fill="#a2a2a2"
         stroke="#8a8a8a"
         stroke-width="7.1133"
         stroke-linecap="butt"
         id="path4"
         style="stroke-width:2.75;stroke-miterlimit:10;stroke-dasharray:none" />
      <path
         d="m 215.56444,230.95225 c 0,-1.24482 1.35344,-3.53735 3.53735,-3.53735 3.97393,0 10.18664,0 12.38072,0 0.77991,0 1.8595,0.48084 2.53543,1.27874 0.71311,0.84177 1.00193,2.01978 1.00193,2.70078 0,0.5486 -0.0623,1.32409 -0.49653,2.04497 -0.61563,1.02219 -1.75538,1.93455 -2.59865,1.93455 -2.15961,0 -8.69995,0 -12.8229,0 -1.20533,0 -2.44403,-0.91891 -3.11514,-1.97709 -0.54752,-0.86329 -0.42221,-1.81928 -0.42221,-2.44458 z"
         fill="#a2a2a2"
         stroke="#8a8a8a"
         stroke-width="6.63253"
         stroke-linecap="butt"
         id="path6"
         style="stroke-width:2.75;stroke-miterlimit:10;stroke-dasharray:none" />
      <path
         d="M 187.09304,192.64938 H 233.0786"
         fill="none"
         stroke="#8a8a8a"
         stroke-width="6.63253"
         stroke-linecap="round"
         id="path8" />
      <path
         d="M 187.09304,204.58794 H 233.0786"
         fill="none"
         stroke="#8a8a8a"
         stroke-width="6.63253"
         stroke-linecap="round"
         id="path10" />
      <path
         d="M 187.09304,216.08433 H 233.0786"
         fill="none"
         stroke="#8a8a8a"
         stroke-width="6.63253"
         stroke-linecap="round"
         id="path12" />
      <path
         d="m 156.16733,258.17069 22.55061,-11.14265 70.57014,0.7959 17.77518,10.34675 z"
         fill="#c5934d"
         stroke="#c1904b"
         stroke-width="0"
         stroke-linecap="butt"
         id="path14" />
      <path
         d="m 155.90203,254.98708 c 0,0 27.9904,-10.27199 54.65206,-10.61205 31.8057,-0.40566 56.24388,10.61205 56.24388,10.61205"
         fill="none"
         stroke="#9b733c"
         stroke-width="6.63253"
         stroke-linecap="round"
         id="path16" />
      <g
         stroke="none"
         stroke-width="0.5"
         stroke-linecap="butt"
         id="g28"
         transform="matrix(1.3265064,0,0,1.3265064,-42.874951,-42.544385)">
        <path
           d="m 163.04726,220.7857 c -0.3744,0.0546 -0.7488,0.10916 -1.1232,0.16374 l -1.28411,0.18719 c -0.5319,0.0775 -1.02595,-0.29079 -1.10349,-0.82269 -0.0465,-0.3191 0.0674,-0.62457 0.2809,-0.83467 l 0.75642,-0.76075 c -0.159,-0.0139 -0.35124,-0.0135 -0.46129,-0.0734 -1.03485,-0.56383 -2.59569,-0.83832 -2.6668,-2.41384 -0.10063,-2.22935 2.25308,-1.54154 1.86511,-2.60744 -0.41395,-1.13726 -2.87833,-4.35922 -0.68205,-5.34688 0.69521,-0.31264 1.53043,0.20864 2.2277,0.51666 0.21563,0.0953 0.33771,0.85441 0.3425,0.61872 0.0177,-0.86828 -0.85088,-1.78963 -0.45895,-2.56462 1.56688,-3.09829 3.31836,1.29545 4.14116,-1.404 1.04539,-1.50911 4.52254,-3.57142 6.4496,-2.60147 0.79436,0.39982 1.11299,1.43389 1.86634,1.90649 0.84453,0.5298 2.69748,-0.98443 3.7523,-0.59903 1.67748,0.61291 1.27603,1.30832 1.80808,2.54196 0.52059,1.20707 1.83855,0.89265 2.62662,2.47978 1.07236,2.15965 0.48969,4.7172 1.38768,6.85727 -3.07725,4.80826 -12.75295,5.32863 -17.96589,5.23663 l -0.97533,-0.0509 c 0,0 -0.5255,-0.0277 -0.78333,-0.42874 z m 2.61916,-1.45445 c 4.98138,0.0289 10.98302,-0.74389 15.16622,-3.47182 -0.98915,-1.56137 -0.42553,-4.06178 -1.21804,-5.87695 -0.61907,-1.41792 -1.74701,-0.89262 -2.57833,-2.38178 -0.28072,-0.50287 -0.10558,-1.47015 -0.66818,-1.59331 -1.24856,-0.27334 -2.50514,1.21544 -3.95241,0.52413 -0.0619,-0.0296 -2.05552,-2.4107 -2.58485,-2.28496 -0.7921,0.18815 -1.11345,1.27438 -1.87292,1.56771 -0.46693,0.18034 -1.2122,0.11626 -1.38209,0.58709 -0.47038,0.68911 -0.67799,1.66908 -1.41116,2.06732 -0.81487,0.44262 -2.85253,-1.68326 -2.67225,-0.77363 0.21438,1.08171 1.18385,2.37144 -0.337,3.41261 -0.50303,0.34437 -1.89131,-0.22866 -2.46007,-0.87046 0.15288,0.25036 0.34961,0.59201 0.42563,0.77304 0.15114,0.35993 1.09376,2.04174 1.10943,2.29101 0.0454,0.72183 0.003,1.53256 -0.40069,2.13244 -0.29613,0.43968 -1.46541,0.14194 -1.4416,0.67151 0.0537,1.19388 4.48585,1.17246 3.02147,2.80634 0.72293,-0.10539 1.44585,-0.21077 2.16878,-0.31616 0,0 0.90401,-0.13179 1.08802,0.73586 z"
           fill="#349820"
           id="path18" />
        <path
           d="m 164.54043,218.648 c -0.72293,0.10539 -1.45362,0.20418 -2.17654,0.30956 1.46437,-1.63388 -2.98172,-1.63295 -3.0354,-2.82683 -0.0238,-0.52957 1.14534,-0.23215 1.44147,-0.67184 0.40402,-0.59989 0.44203,-1.42407 0.39666,-2.1459 -0.0157,-0.24927 -0.95914,-1.94813 -1.11028,-2.30806 -0.076,-0.18104 -0.14399,-0.50728 -0.29687,-0.75765 0.56876,0.6418 1.82833,1.19882 2.33136,0.85445 1.52085,-1.04117 0.55994,-2.35767 0.34556,-3.43938 -0.18028,-0.90963 1.86187,1.20954 2.67675,0.76692 0.73317,-0.39825 0.96135,-1.39583 1.43174,-2.08494 0.16988,-0.47083 0.92992,-0.41256 1.39685,-0.5929 0.75947,-0.29333 1.09989,-1.38155 1.892,-1.5697 0.52933,-0.12573 2.55163,2.26352 2.61351,2.29308 1.44727,0.69132 2.72199,-0.7825 3.97055,-0.50916 0.56259,0.12317 0.39453,1.10073 0.67525,1.6036 0.83131,1.48916 1.96639,0.98396 2.58546,2.40188 0.79251,1.81517 0.22606,4.3489 1.2152,5.91027 -4.1832,2.72794 -10.27525,3.53664 -15.25662,3.50772 -0.18401,-0.86765 -1.09664,-0.74111 -1.09664,-0.74111 z"
           data-paper-data="{&quot;noHover&quot;:false,&quot;origItem&quot;:[&quot;Path&quot;,{&quot;applyMatrix&quot;:true,&quot;segments&quot;:[[[429.93886,444.0562],[-0.36801,-1.7353],[9.96275,0.05784]],[[460.2713,437.11255],[-8.36639,5.45587],[-1.9783,-3.12274]],[[457.83522,425.35865],[1.58502,3.63034],[-1.23814,-2.83584]],[[452.67857,420.5951],[1.66263,2.97831],[-0.56145,-1.00573]],[[451.34221,417.40847],[1.12519,0.24633],[-2.49711,-0.54667]],[[443.43739,418.45673],[2.89454,1.38263],[-0.12376,-0.05912]],[[438.2677,413.8868],[1.05865,-0.25147],[-1.58421,0.37631]],[[434.52187,417.02223],[1.51894,-0.58666],[-0.93385,0.36068]],[[431.75769,418.19641],[0.33977,-0.94166],[-0.94077,1.37822]],[[428.93538,422.33106],[1.46633,-0.79649],[-1.62974,0.88525]],[[423.59089,420.7838],[-0.36056,-1.81926],[0.42877,2.16342]],[[422.9169,427.60901],[3.0417,-2.08233],[-1.00605,0.68873]],[[417.99676,425.86809],[1.13751,1.2836],[0.30576,0.50073]],[[418.84802,427.41418],[-0.15204,-0.36207],[0.30228,0.71986]],[[421.06688,431.9962],[-0.03133,-0.49854],[0.09073,1.44366]],[[420.26551,436.26108],[0.80804,-1.19977],[-0.59226,0.87937]],[[417.38231,437.60411],[-0.04762,-1.05915],[0.10735,2.38776]],[[423.42526,443.21678],[2.92875,-3.26776],[1.44585,-0.21077]],[[427.76282,442.58447],[-1.44585,0.21077],[0,0]]],&quot;closed&quot;:true}]}"
           fill="#45ce2b"
           id="path20" />
        <path
           d="m 164.96129,211.10206 c 0.48803,0.84206 -0.35403,1.3301 -0.35403,1.3301 l -0.47556,0.0822 c 0.3666,1.17199 -0.77222,2.75334 1.03763,2.8605 0,0 0.95806,0.17136 0.7867,1.12942 -0.17137,0.95807 -1.12942,0.7867 -1.12942,0.7867 -3.37961,-0.80572 -2.31546,-3.02047 -2.44733,-5.62398 l 1.25192,-0.91899 c 0,0 0.84206,-0.48803 1.3301,0.35403 z"
           fill="#349820"
           id="path22" />
        <path
           d="m 175.4224,213.34229 c -0.97192,-0.0512 -0.92072,-1.02313 -0.92072,-1.02313 l 0.43993,-0.11248 c -0.79549,-0.63306 -2.06032,-0.0368 -3.03105,-0.33885 -0.82181,-0.25574 -0.91026,-2.17909 -0.92462,-0.85166 0,0 -0.49201,0.83975 -1.33176,0.34774 -0.83975,-0.49201 -0.34775,-1.33175 -0.34775,-1.33175 0.39798,-0.4913 0.5735,-1.35217 1.19393,-1.47388 0.85274,-0.16728 1.27988,1.32708 2.13119,1.50147 1.23503,0.25298 2.00181,-0.46469 3.47352,0.58638 l 0.34045,1.77546 c 0,0 -0.0512,0.97192 -1.02312,0.92071 z"
           fill="#349820"
           id="path24" />
        <path
           d="m 171.06233,217.45368 c -0.61589,-0.75361 0.13771,-1.36951 0.13771,-1.36951 l 0.65086,-0.4818 c 0.0892,-0.31156 0.17848,-0.62312 0.26772,-0.93467 0,0 0.30513,-0.9242 1.22933,-0.61907 0.9242,0.30514 0.61907,1.22934 0.61907,1.22934 -0.17068,0.47571 -0.34137,0.95141 -0.51206,1.42712 l -1.02314,0.88629 c 0,0 -0.7536,0.6159 -1.3695,-0.13771 z"
           fill="#349820"
           id="path26" />
      </g>
      <path
         d="m 240.26784,248.35455 c 0,0 -0.17346,-7.36723 0.26938,-10.91 0.44149,-3.53189 2.38364,-10.31409 2.38364,-10.31409"
         fill="none"
         stroke="#32c300"
         stroke-width="3.31627"
         stroke-linecap="round"
         id="path30" />
      <path
         d="m 238.94133,223.41623 c 0,-2.63739 2.13802,-4.77543 4.77542,-4.77543 2.6374,0 4.77542,2.13803 4.77542,4.77543 0,2.6374 -2.13803,4.77542 -4.77542,4.77542 -2.63738,0 -4.77542,-2.13802 -4.77542,-4.77542 z"
         fill="#fbff00"
         stroke="#ffffff"
         stroke-width="4.64277"
         stroke-linecap="butt"
         id="path32" />
      <text
         font-size="40px"
         xml:space="preserve"
         fill="#8a8a8a"
         fill-rule="nonzero"
         stroke="#8a8a8a"
         stroke-width="0.86364"
         stroke-linecap="butt"
         stroke-linejoin="miter"
         stroke-miterlimit="10"
         stroke-dasharray="none"
         stroke-dashoffset="0"
         font-family="'Sans Serif'"
         font-weight="normal"
         text-anchor="start"
         style="font-size:21.156px;mix-blend-mode:normal;fill:#dcdcdc;fill-opacity:1;stroke:none;stroke-width:1.37091;stroke-miterlimit:10;stroke-dasharray:none"
         id="text36"
         x="184.06178"
         y="176.78395"><tspan
           x="184.06178"
           id="tspan34"
           style="font-style:normal;font-variant:normal;font-weight:bold;font-stretch:normal;font-size:21.156px;font-family:Inter;-inkscape-font-specification:Inter;letter-spacing:0.0735535;fill:#dcdcdc;fill-opacity:1;stroke:none;stroke-width:1.37091;stroke-miterlimit:10;stroke-dasharray:none">R.I.P.</tspan></text>
    </g>
  </g>
</svg>
