<svg xmlns="http://www.w3.org/2000/svg" xml:space="preserve" width="84" height="84" viewBox="0 0 22.225 22.225"><g transform="scale(.65625)"><g style="opacity:1"><path d="M16.934 0C7.6 0 0 7.6 0 16.934c0 9.333 7.6 16.933 16.934 16.933 9.333 0 16.933-7.6 16.933-16.933S26.267 0 16.934 0m0 3.107A13.803 13.803 0 0 1 30.76 16.934 13.803 13.803 0 0 1 16.934 30.76 13.803 13.803 0 0 1 3.107 16.934 13.803 13.803 0 0 1 16.934 3.107" style="baseline-shift:baseline;display:inline;overflow:visible;vector-effect:none;fill:#584d00;stroke-linecap:round;stroke-linejoin:round;paint-order:markers stroke fill;stop-color:#000;stop-opacity:1"/><path d="M32.313 16.933a15.38 15.38 0 0 1-15.38 15.38 15.38 15.38 0 0 1-15.38-15.38 15.38 15.38 0 0 1 15.38-15.38 15.38 15.38 0 0 1 15.38 15.38" style="baseline-shift:baseline;display:inline;overflow:visible;vector-effect:none;fill:#ffc703;stroke-linecap:round;stroke-linejoin:round;paint-order:markers stroke fill;stop-color:#000;stop-opacity:1"/></g><ellipse cx="10.938" cy="17.774" rx="1.376" ry="1.139" style="fill:#584d00;fill-opacity:1;fill-rule:nonzero;stroke:none;stroke-width:2.30102;stroke-linecap:round;stroke-linejoin:bevel;stroke-miterlimit:4;stroke-dasharray:none;stroke-dashoffset:0;stroke-opacity:1;paint-order:markers stroke fill"/><ellipse cx="-17.774" cy="22.929" rx="1.139" ry="1.376" style="fill:#584d00;fill-opacity:1;fill-rule:nonzero;stroke:none;stroke-width:2.30102;stroke-linecap:round;stroke-linejoin:bevel;stroke-miterlimit:4;stroke-dasharray:none;stroke-dashoffset:0;stroke-opacity:1;paint-order:markers stroke fill" transform="rotate(-90)"/><path d="M28.307 19.807a1 1 0 0 0-.756.129c-6.763 4.248-15.906 3.642-21.201.021a1.004 1.004 0 0 0-1.397.262 1.004 1.004 0 0 0 .264 1.394c6.075 4.154 15.893 4.74 23.402.022a1.004 1.004 0 0 0 .315-1.385 1 1 0 0 0-.627-.443" style="baseline-shift:baseline;display:inline;overflow:visible;vector-effect:none;fill:#584d00;stroke-linecap:round;stroke-linejoin:round;stroke-dashoffset:19.953;stop-color:#000;stop-opacity:1;opacity:1"/></g><path d="M5.156 11.12H9.2M13.025 11.12h4.044" style="opacity:1;fill:none;fill-opacity:1;stroke:#584d00;stroke-width:1.15914;stroke-linecap:round;stroke-linejoin:round;stroke-dasharray:none;stroke-dashoffset:.639495;stroke-opacity:1"/></svg>