<svg xmlns="http://www.w3.org/2000/svg" xml:space="preserve" width="84" height="84"><path fill="#f3be3a" stroke="#b76b00" stroke-width="5" d="M18.634 48.402C18.634 23.05 39.184 2.5 64.536 2.5c25.35 0 45.901 20.55 45.901 45.902 0 25.35-20.55 45.901-45.901 45.901s-45.902-20.55-45.902-45.901z" style="mix-blend-mode:normal;fill:#ffc703;fill-opacity:1;fill-rule:nonzero;stroke:#584d00;stroke-linejoin:miter;stroke-miterlimit:10;stroke-dasharray:none;stroke-dashoffset:0;stroke-opacity:1" transform="translate(0 10.5)scale(.6508)"/><g transform="matrix(.62008 0 0 .6211 1.967 -113.583)"><ellipse cx="47.071" cy="241.65" rx="6.992" ry="6.981" style="fill:#584d00;fill-opacity:1;fill-rule:nonzero;stroke:none;stroke-width:7.95788;stroke-linecap:round;stroke-linejoin:bevel;stroke-miterlimit:4;stroke-dasharray:none;stroke-dashoffset:0;stroke-opacity:1;paint-order:markers stroke fill"/><ellipse cx="82.052" cy="241.65" rx="6.992" ry="6.981" style="fill:#584d00;fill-opacity:1;fill-rule:nonzero;stroke:none;stroke-width:7.95788;stroke-linecap:round;stroke-linejoin:bevel;stroke-miterlimit:4;stroke-dasharray:none;stroke-dashoffset:0;stroke-opacity:1;paint-order:markers stroke fill"/></g><path d="M51.2 66.335c9.88-1.19 23.348-1.828 26.728 3.22" style="fill:none;fill-opacity:1;stroke:#584d00;stroke-width:4.60968;stroke-linecap:round;stroke-linejoin:round;stroke-miterlimit:0;stroke-dasharray:none;stroke-opacity:1" transform="translate(0 10.5)scale(.6508)"/><g style="stroke-width:2.4585;stroke-dasharray:none"><path d="M89.39 77.858c2.937-10.543 6.973-5.767 10.7-13.722 2.275-4.858 6.621-2.182 5.21.465-2.109 3.953-2.413 4.62-4.51 5.666 5.147-.512 6.015-3.502 8.97-8.249 1.797-2.886 3.802-1.866 5.312-.968 1.752-3.453 4.592-1.918 5.282-.859 1.552-2.17 5.466-.238 3.95 2.996 2.422-.367 4.26 1.768 1.728 5.429-6.823 9.862-9.375 10.827-15.287 13.176-1.91.759-3.292 1.126-6.282 1.48-13.534 1.599-16.107-1.7-15.073-5.414" style="display:inline;opacity:1;fill:#ffc703;fill-opacity:1;stroke:#584d00;stroke-width:2.45851;stroke-linecap:round;stroke-linejoin:round;stroke-miterlimit:0;stroke-dasharray:none;stroke-opacity:1" transform="translate(.385 10.5)scale(.6508)"/><path d="M114.97 61.257s-5.322 8.493-7.341 10.464M120.186 60.426c-.667 1.407-6.934 10.537-8.998 12.503" style="fill:none;fill-opacity:1;stroke:#584d00;stroke-width:2.45851;stroke-linecap:round;stroke-linejoin:round;stroke-miterlimit:0;stroke-dasharray:none;stroke-opacity:1" transform="translate(.385 10.5)scale(.6508)"/><path d="M124.306 63.18c-.708 1.053-7.181 9.741-9.523 11.556" style="display:inline;fill:none;fill-opacity:1;stroke:#584d00;stroke-width:2.45851;stroke-linecap:round;stroke-linejoin:round;stroke-miterlimit:0;stroke-dasharray:none;stroke-opacity:1" transform="translate(.385 10.5)scale(.6508)"/></g><g style="stroke-width:2.4585;stroke-dasharray:none"><path d="M89.39 77.858c2.937-10.543 6.973-5.767 10.7-13.722 2.275-4.858 6.621-2.182 5.21.465-2.109 3.953-2.413 4.62-4.51 5.666 5.147-.512 6.015-3.502 8.97-8.249 1.797-2.886 3.802-1.866 5.312-.968 1.752-3.453 4.592-1.918 5.282-.859 1.552-2.17 5.466-.238 3.95 2.996 2.422-.367 4.26 1.768 1.728 5.429-6.823 9.862-9.375 10.827-15.287 13.176-1.91.759-3.292 1.126-6.282 1.48-13.534 1.599-16.107-1.7-15.073-5.414" style="display:inline;opacity:1;fill:#ffc703;fill-opacity:1;stroke:#584d00;stroke-width:2.4585;stroke-linecap:round;stroke-linejoin:round;stroke-miterlimit:0;stroke-dasharray:none;stroke-opacity:1" transform="matrix(-.6508 0 0 .6508 83.615 10.5)"/><path d="M114.97 61.257s-5.322 8.493-7.341 10.464M120.186 60.426c-.667 1.407-6.934 10.537-8.998 12.503" style="fill:none;fill-opacity:1;stroke:#584d00;stroke-width:2.4585;stroke-linecap:round;stroke-linejoin:round;stroke-miterlimit:0;stroke-dasharray:none;stroke-opacity:1" transform="matrix(-.6508 0 0 .6508 83.615 10.5)"/><path d="M124.306 63.18c-.708 1.053-7.181 9.741-9.523 11.556" style="display:inline;fill:none;fill-opacity:1;stroke:#584d00;stroke-width:2.4585;stroke-linecap:round;stroke-linejoin:round;stroke-miterlimit:0;stroke-dasharray:none;stroke-opacity:1" transform="matrix(-.6508 0 0 .6508 83.615 10.5)"/></g></svg>