<svg xmlns="http://www.w3.org/2000/svg" width="84" height="84"><path fill="#f3be3a" stroke="#b76b00" stroke-width="5" d="M2.5 64.536C2.5 30.274 30.274 2.5 64.536 2.5c34.26 0 62.035 27.774 62.035 62.036 0 34.26-27.774 62.035-62.035 62.035-34.262 0-62.036-27.774-62.036-62.035z" style="mix-blend-mode:normal;fill:#ffc703;fill-opacity:1;fill-rule:nonzero;stroke:#584d00;stroke-linejoin:miter;stroke-miterlimit:10;stroke-dasharray:none;stroke-dashoffset:0;stroke-opacity:1" transform="matrix(.6508 0 0 .6508 0 0)"/><path fill="none" stroke="#000" stroke-linecap="round" stroke-width="5" d="M19.98 53.06s.309-6.388 9.951-12.109c9.964-5.41 19.573-2.723 19.573-2.723M53.625 62.65s-3.133 1.787-7.089 2.887c-2.358.656-5.008.848-7.462.881-2.63.036-5.492-.22-7.978-.95-3.715-1.09-6.589-2.818-6.589-2.818M105.009 62.65s-2.513 1.501-5.88 2.534c-2.633.807-5.787 1.195-8.671 1.234-2.597.036-5.421-.205-7.885-.923-3.76-1.095-6.682-2.845-6.682-2.845M79.447 38.52s9.555-2.873 19.622 2.342c9.753 5.532 10.186 11.913 10.186 11.913" data-paper-data="{&quot;index&quot;:null}" style="mix-blend-mode:normal;fill-rule:nonzero;stroke:#584d00;stroke-linejoin:miter;stroke-miterlimit:10;stroke-dasharray:none;stroke-dashoffset:0;stroke-opacity:1" transform="matrix(.6508 0 0 .6508 0 0)"/><path d="M64.488 100.088c-11.84.014-24.137 6.418-24.137 2.348 0-13.173 10.679-20.61 23.851-20.61 13.173 0 23.852 7.437 23.852 20.61 0 4.371-11.555-2.361-23.566-2.348" data-paper-data="{&quot;index&quot;:null}" style="mix-blend-mode:normal;fill:#584d00;fill-opacity:1;fill-rule:nonzero;stroke-linejoin:miter;stroke-miterlimit:10;stroke-dasharray:none;stroke-dashoffset:0" transform="matrix(.6508 0 0 .6508 0 0)"/><g stroke-width="0" style="mix-blend-mode:normal;fill-rule:nonzero;stroke-linejoin:miter;stroke-miterlimit:10;stroke-dasharray:none;stroke-dashoffset:0"><g fill="#e1e1e1"><path d="M8.946 73.987a6.508 6.508 0 1 1 13.016 0 6.508 6.508 0 0 1-13.016 0"/><path d="M16.756 76.102a5.857 5.857 0 1 1 11.714 0 5.857 5.857 0 0 1-11.714 0"/><path d="M10.248 67.641a5.857 5.857 0 1 1 11.714 0 5.857 5.857 0 0 1-11.714 0"/></g><g fill="#fafafa"><path d="M19.773 69.606s17.64-8.554 20.55-10.168c.817-.453 1.717-.5 2.164.217.46.738-.016 1.517-.753 2.03-2.69 1.869-18.217 13.974-18.217 13.974z" data-paper-data="{&quot;index&quot;:null}"/><path d="M11.622 68.052a6.46 6.46 0 0 1 6.458-6.458c1.998 0 3.707 2.454 5.998 4.064 1.798 1.263 4.468 1.494 4.468 3.062 0 3.567-6.9 5.79-10.466 5.79a6.46 6.46 0 0 1-6.458-6.458"/><path d="M19.937 69.04c2.77-2.099 9.435-4.431 11.533-1.662.923 1.218-1.015 2.968-1.668 5.007-.832 2.598-.715 5.508-2.267 6.683a6.291 6.291 0 1 1-7.598-10.029" data-paper-data="{&quot;index&quot;:null}"/><path d="M10.54 73.526a5.64 5.64 0 1 1 11.281 0 5.64 5.64 0 0 1-11.28 0"/></g></g></svg>