<?xml version="1.0" encoding="UTF-8" standalone="no"?>
<!-- Created with Inkscape (http://www.inkscape.org/) -->

<svg
   width="84"
   height="84"
   viewBox="0 0 22.224999 22.225001"
   version="1.1"
   id="svg5"
   inkscape:version="1.1.2 (0a00cf5339, 2022-02-04)"
   sodipodi:docname="team_equals_ban.svg"
   xmlns:inkscape="http://www.inkscape.org/namespaces/inkscape"
   xmlns:sodipodi="http://sodipodi.sourceforge.net/DTD/sodipodi-0.dtd"
   xmlns="http://www.w3.org/2000/svg"
   xmlns:svg="http://www.w3.org/2000/svg">
  <sodipodi:namedview
     id="namedview7"
     pagecolor="#505050"
     bordercolor="#ffffff"
     borderopacity="1"
     inkscape:pageshadow="0"
     inkscape:pageopacity="0"
     inkscape:pagecheckerboard="1"
     inkscape:document-units="px"
     showgrid="false"
     units="px"
     inkscape:zoom="6.2074635"
     inkscape:cx="22.392399"
     inkscape:cy="13.209904"
     inkscape:window-width="2560"
     inkscape:window-height="1372"
     inkscape:window-x="0"
     inkscape:window-y="0"
     inkscape:window-maximized="1"
     inkscape:current-layer="layer1" />
  <defs
     id="defs2" />
  <g
     inkscape:label="Layer 1"
     inkscape:groupmode="layer"
     id="layer1">
    <g
       aria-label="team"
       id="text29728"
       style="font-size:8.71814px;line-height:1.25;font-family:'Russo One';-inkscape-font-specification:'Russo One';letter-spacing:0px;word-spacing:0px;fill:#ffffff;stroke:#000000;stroke-width:0.516861">
      <path
         d="m 3.7456882,5.9252214 q -0.8456595,0.087181 -1.6564465,0.087181 -0.5928335,0 -0.9502772,-0.3574437 Q 0.78152073,5.2975154 0.78152073,4.7046819 V 2.4815563 H 0.25843235 V 1.3046074 H 0.78152073 L 0.95588352,0.25843067 H 2.3071952 V 1.3046074 H 3.3969626 V 2.4815563 H 2.3071952 v 2.0051721 q 0,0.1307721 0.087181,0.2179535 0.087181,0.087181 0.2179535,0.087181 h 1.1333581 z"
         id="path827" />
      <path
         d="m 6.0559811,2.3071935 q -0.3487255,0 -0.3487255,0.3487256 V 3.1354168 H 7.1893393 V 2.6559191 q 0,-0.3487256 -0.3487256,-0.3487256 z M 8.5406509,5.83804 Q 6.85805,6.0124028 5.4893021,6.0124028 q -0.5928335,0 -0.9502773,-0.3574437 Q 4.1815811,5.2975154 4.1815811,4.7046819 V 2.6123284 q 0,-0.6538605 0.3661619,-1.0200224 0.37488,-0.37488 1.0287405,-0.37488 h 1.7436279 q 0.6538605,0 1.0200223,0.37488 0.37488,0.3661619 0.37488,1.0200224 V 4.2251842 H 5.7072556 v 0.3487256 q 0,0.1307721 0.087181,0.2179535 0.087181,0.087181 0.2179534,0.087181 0.8630959,0 2.5282605,-0.1307721 z"
         id="path829" />
      <path
         d="m 11.330442,4.7918633 q 0.462061,0 1.046177,-0.1743628 V 4.0944121 h -1.26413 q -0.130773,0 -0.217954,0.087181 -0.08718,0.087181 -0.08718,0.2179535 v 0.087181 q 0,0.1307721 0.08718,0.2179535 0.08718,0.087181 0.217954,0.087181 z M 9.7175863,1.3917888 Q 11.313006,1.217426 12.594572,1.217426 q 0.592834,0 0.950278,0.3574438 0.357443,0.3574437 0.357443,0.9502772 V 5.9252214 H 12.550982 L 12.4638,5.4893145 Q 12.054048,5.7595768 11.618141,5.8903489 11.190952,6.0124028 10.894535,6.0124028 H 10.5894 q -0.5928333,0 -0.950277,-0.3574437 Q 9.2816793,5.2975154 9.2816793,4.7046819 V 4.3123656 q 0,-0.5928335 0.3574437,-0.9502772 Q 9.9965667,3.0046447 10.5894,3.0046447 h 1.787219 V 2.6559191 q 0,-0.1307721 -0.08718,-0.2179535 -0.08718,-0.087181 -0.217953,-0.087181 -0.566679,0 -1.255412,0.052309 -0.680015,0.052309 -1.0984857,0.078463 z"
         id="path831" />
      <path
         d="m 17.781861,1.217426 q 0.706169,0 1.089767,0.5230884 0.401034,-0.2702623 0.863096,-0.3923163 0.470779,-0.1307721 0.836941,-0.1307721 h 0.08718 q 0.592833,0 0.950277,0.3574438 0.357444,0.3574437 0.357444,0.9502772 V 5.9252214 H 20.440893 V 2.7866912 q 0,-0.1307721 -0.08718,-0.2179535 -0.08718,-0.087181 -0.217954,-0.087181 h -0.04359 q -0.392317,0 -1.002586,0.1743628 V 5.9252214 H 17.563907 V 2.7866912 q 0,-0.1307721 -0.08718,-0.2179535 -0.08718,-0.087181 -0.217954,-0.087181 h -0.04359 q -0.392317,0 -1.002587,0.1743628 v 3.2693023 h -1.525674 v -4.620614 h 1.351312 l 0.08718,0.435907 Q 16.535167,1.4702521 16.962355,1.3481981 17.398262,1.217426 17.694679,1.217426 Z"
         id="path833" />
    </g>
    <g
       aria-label="="
       id="text30766"
       style="font-size:14.3795px;line-height:1.25;font-family:'Russo One';-inkscape-font-specification:'Russo One';letter-spacing:0px;word-spacing:0px;fill:#ffffff;stroke:#000000;stroke-width:0.71898">
      <path
         d="M 8.1647024,10.008152 V 8.1388173 h 5.8955956 v 1.8693347 z m 0,3.019695 v -1.869335 h 5.8955956 v 1.869335 z"
         id="path836" />
    </g>
    <g
       aria-label="ban"
       id="text31518"
       style="font-size:12.313px;line-height:1.25;font-family:'Russo One';-inkscape-font-specification:'Russo One';letter-spacing:0px;word-spacing:0px;fill:#ffffff;stroke:#000000;stroke-width:0.615654">
      <path
         d="m 4.6789686,17.238233 q 0,-0.184695 -0.12313,-0.307825 -0.12313,-0.12313 -0.307825,-0.12313 h -0.307825 q -0.517146,0 -0.898849,0.04925 -0.36939,0.04925 -0.578711,0.07388 v 3.20138 h 1.72382 q 0.49252,0 0.49252,-0.49252 z m -2.21634,-1.84695 q 1.194361,-0.24626 2.09321,-0.24626 h 0.430955 q 0.837284,0 1.342117,0.504833 0.5048329,0.504833 0.5048329,1.342117 v 2.83199 q 0,0.923475 -0.5294589,1.452934 -0.517146,0.517146 -1.440621,0.517146 H 0.30785369 v -8.6191 H 2.4626286 Z"
         id="path839" />
      <path
         d="m 10.52763,20.193353 q 0.652589,0 1.47756,-0.24626 v -0.73878 h -1.785385 q -0.184695,0 -0.3078248,0.12313 -0.12313,0.12313 -0.12313,0.307825 v 0.12313 q 0,0.184695 0.12313,0.307825 0.1231298,0.12313 0.3078248,0.12313 z m -2.2779048,-4.80207 q 2.2532788,-0.24626 4.0632898,-0.24626 0.837284,0 1.342117,0.504833 0.504833,0.504833 0.504833,1.342117 v 4.80207 H 12.25145 l -0.12313,-0.61565 q -0.578711,0.381703 -1.194361,0.566398 -0.603337,0.172382 -1.0219788,0.172382 h -0.430955 q -0.837284,0 -1.342117,-0.504833 -0.504833,-0.504833 -0.504833,-1.342117 v -0.554085 q 0,-0.837284 0.504833,-1.342117 0.504833,-0.504833 1.342117,-0.504833 H 12.00519 v -0.49252 q 0,-0.184695 -0.12313,-0.307825 -0.12313,-0.12313 -0.307825,-0.12313 -0.800345,0 -1.7730718,0.07388 -0.960414,0.07388 -1.551438,0.110817 z"
         id="path841" />
      <path
         d="m 18.900461,16.930408 q -0.652589,0 -1.47756,0.24626 v 4.617375 h -2.154775 v -6.52589 h 1.908515 l 0.12313,0.61565 q 0.578711,-0.381703 1.182048,-0.554085 0.61565,-0.184695 1.034292,-0.184695 h 0.554085 q 0.837284,0 1.342117,0.504833 0.504833,0.504833 0.504833,1.342117 v 4.80207 h -2.154775 v -4.43268 q 0,-0.184695 -0.12313,-0.307825 -0.12313,-0.12313 -0.307825,-0.12313 z"
         id="path843" />
    </g>
  </g>
</svg>
