<svg xmlns="http://www.w3.org/2000/svg" width="84" height="84" viewBox="0 0 22.225 22.225"><g aria-label="team" style="font-size:8.71814px;line-height:1.25;font-family:&quot;Russo One&quot;;-inkscape-font-specification:&quot;Russo One&quot;;letter-spacing:0;word-spacing:0;fill:#fff;stroke:#000;stroke-width:.516861"><path d="M3.746 5.925q-.846.087-1.657.087-.593 0-.95-.357t-.357-.95V2.482H.258V1.305h.524L.956.258h1.351v1.047h1.09v1.177h-1.09v2.005q0 .13.087.218.088.087.218.087h1.134zM6.056 2.307q-.349 0-.349.349v.48H7.19v-.48q0-.349-.348-.349zm2.485 3.531q-1.683.174-3.052.174-.593 0-.95-.357t-.357-.95V2.612q0-.654.366-1.02.375-.375 1.028-.375H7.32q.654 0 1.02.375.375.366.375 1.02v1.613H5.707v.349q0 .13.087.218.088.087.218.087.863 0 2.529-.13zM11.33 4.792q.463 0 1.047-.174v-.524h-1.265q-.13 0-.217.088-.088.087-.088.218v.087q0 .13.088.218.087.087.217.087zm-1.612-3.4q1.595-.175 2.877-.175.592 0 .95.358.357.357.357.95v3.4h-1.351l-.087-.436q-.41.27-.846.401-.427.122-.723.122h-.306q-.592 0-.95-.357-.357-.357-.357-.95v-.393q0-.592.357-.95.358-.357.95-.357h1.788v-.35q0-.13-.088-.217-.087-.087-.218-.087-.566 0-1.255.052-.68.052-1.098.079zM17.782 1.217q.706 0 1.09.524.4-.27.863-.393.47-.13.837-.13h.087q.593 0 .95.357.358.357.358.95v3.4H20.44V2.787q0-.131-.087-.218t-.218-.087h-.044q-.392 0-1.002.174v3.27h-1.526v-3.14q0-.13-.087-.217t-.218-.087h-.044q-.392 0-1.002.174v3.27h-1.526V1.304h1.351l.087.436q.41-.27.837-.393.436-.13.733-.13Z"/></g><path d="M8.165 10.008v-1.87h5.895v1.87zm0 3.02v-1.87h5.895v1.87z" aria-label="=" style="font-size:14.3795px;line-height:1.25;font-family:&quot;Russo One&quot;;-inkscape-font-specification:&quot;Russo One&quot;;letter-spacing:0;word-spacing:0;fill:#fff;stroke:#000;stroke-width:.71898"/><g aria-label="ban" style="font-size:12.313px;line-height:1.25;font-family:&quot;Russo One&quot;;-inkscape-font-specification:&quot;Russo One&quot;;letter-spacing:0;word-spacing:0;fill:#fff;stroke:#000;stroke-width:.615654"><path d="M4.679 17.238q0-.184-.123-.308-.123-.123-.308-.123H3.94q-.517 0-.899.05-.37.049-.578.073v3.202h1.723q.493 0 .493-.493zm-2.216-1.847q1.194-.246 2.093-.246h.43q.838 0 1.343.505t.505 1.342v2.832q0 .923-.53 1.453-.517.517-1.44.517H.308v-8.62h2.155ZM10.528 20.193q.652 0 1.477-.246v-.739H10.22q-.185 0-.308.123-.123.124-.123.308v.123q0 .185.123.308t.308.123zM8.25 15.391q2.253-.246 4.063-.246.837 0 1.342.505t.505 1.342v4.802h-1.909l-.123-.616q-.578.382-1.194.567-.603.172-1.022.172h-.431q-.837 0-1.342-.505-.505-.504-.505-1.342v-.554q0-.837.505-1.342t1.342-.505h2.524v-.492q0-.185-.123-.308t-.308-.123q-.8 0-1.773.074-.96.073-1.551.11zM18.9 16.93q-.652 0-1.477.247v4.617h-2.155v-6.526h1.909l.123.616q.578-.382 1.182-.554.615-.185 1.034-.185h.554q.837 0 1.342.505t.505 1.342v4.802h-2.155v-4.433q0-.184-.123-.307-.123-.124-.308-.124z"/></g></svg>