<?xml version="1.0" encoding="UTF-8" standalone="no"?>
<svg
   version="1.1"
   width="84"
   height="84"
   viewBox="0 0 83.999996 83.999996"
   id="svg46"
   sodipodi:docname="triumphant_face.svg"
   inkscape:version="1.1.2 (0a00cf5339, 2022-02-04)"
   xmlns:inkscape="http://www.inkscape.org/namespaces/inkscape"
   xmlns:sodipodi="http://sodipodi.sourceforge.net/DTD/sodipodi-0.dtd"
   xmlns="http://www.w3.org/2000/svg"
   xmlns:svg="http://www.w3.org/2000/svg">
  <defs
     id="defs50" />
  <sodipodi:namedview
     id="namedview48"
     pagecolor="#505050"
     bordercolor="#ffffff"
     borderopacity="1"
     inkscape:pageshadow="0"
     inkscape:pageopacity="0"
     inkscape:pagecheckerboard="1"
     showgrid="false"
     inkscape:zoom="4.7716992"
     inkscape:cx="63.499392"
     inkscape:cy="54.278359"
     inkscape:window-width="2560"
     inkscape:window-height="1372"
     inkscape:window-x="0"
     inkscape:window-y="0"
     inkscape:window-maximized="1"
     inkscape:current-layer="svg46" />
  <path
     d=""
     fill="#ffcc4d"
     stroke="none"
     stroke-width="1"
     stroke-linecap="butt"
     id="path2"
     style="mix-blend-mode:normal;fill-rule:nonzero;stroke-linejoin:miter;stroke-miterlimit:10;stroke-dasharray:none;stroke-dashoffset:0" />
  <path
     d=""
     fill="#664500"
     stroke="none"
     stroke-width="1"
     stroke-linecap="butt"
     id="path4"
     style="mix-blend-mode:normal;fill-rule:nonzero;stroke-linejoin:miter;stroke-miterlimit:10;stroke-dasharray:none;stroke-dashoffset:0" />
  <path
     d=""
     fill="#f5f8fa"
     stroke="none"
     stroke-width="1"
     stroke-linecap="butt"
     id="path6"
     style="mix-blend-mode:normal;fill-rule:nonzero;stroke-linejoin:miter;stroke-miterlimit:10;stroke-dasharray:none;stroke-dashoffset:0" />
  <path
     d=""
     fill="#e1e8ed"
     stroke="none"
     stroke-width="1"
     stroke-linecap="butt"
     id="path8"
     style="mix-blend-mode:normal;fill-rule:nonzero;stroke-linejoin:miter;stroke-miterlimit:10;stroke-dasharray:none;stroke-dashoffset:0" />
  <g
     id="g856"
     transform="scale(0.65080248)">
    <path
       d="M 2.5,64.53571 C 2.5,30.27435 30.27435,2.5 64.53571,2.5 c 34.26139,0 62.03571,27.77435 62.03571,62.03571 0,34.26139 -27.77432,62.03571 -62.03571,62.03571 C 30.27435,126.57142 2.5,98.7971 2.5,64.53571 Z"
       fill="#f3be3a"
       stroke="#b76b00"
       stroke-width="5"
       stroke-linecap="butt"
       id="path10"
       style="mix-blend-mode:normal;fill:#ffc703;fill-opacity:1;fill-rule:nonzero;stroke:#584d00;stroke-linejoin:miter;stroke-miterlimit:10;stroke-dasharray:none;stroke-dashoffset:0;stroke-opacity:1" />
    <path
       d="m 25.17242,35.82995 c 0,0 8.13765,-3.99611 18.76702,1.35232 10.35294,5.86341 10.40399,16.82675 10.40399,16.82675"
       data-paper-data="{&quot;index&quot;:null}"
       fill="none"
       stroke="#000000"
       stroke-width="5"
       stroke-linecap="round"
       id="path12"
       style="mix-blend-mode:normal;fill-rule:nonzero;stroke:#584d00;stroke-linejoin:miter;stroke-miterlimit:10;stroke-dasharray:none;stroke-dashoffset:0;stroke-opacity:1" />
    <path
       d="m 75.17242,54.00903 c 0,0 0.0511,-10.96334 10.40399,-16.82675 10.62937,-5.34843 18.76702,-1.35233 18.76702,-1.35233"
       data-paper-data="{&quot;index&quot;:null}"
       fill="none"
       stroke="#000000"
       stroke-width="5"
       stroke-linecap="round"
       id="path14"
       style="mix-blend-mode:normal;fill-rule:nonzero;stroke:#584d00;stroke-linejoin:miter;stroke-miterlimit:10;stroke-dasharray:none;stroke-dashoffset:0;stroke-opacity:1" />
    <path
       d="m 53.62474,62.64995 c 0,0 -3.13237,1.78676 -7.08865,2.8874 -2.35769,0.65591 -5.00797,0.84725 -7.4623,0.88076 -2.62996,0.0359 -5.49227,-0.21998 -7.97799,-0.94995 -3.71489,-1.09095 -6.58865,-2.81821 -6.58865,-2.81821"
       data-paper-data="{&quot;index&quot;:null}"
       fill="none"
       stroke="#000000"
       stroke-width="5"
       stroke-linecap="round"
       id="path16"
       style="mix-blend-mode:normal;fill-rule:nonzero;stroke:#584d00;stroke-linejoin:miter;stroke-miterlimit:10;stroke-dasharray:none;stroke-dashoffset:0;stroke-opacity:1" />
    <path
       d="m 105.00872,62.64995 c 0,0 -2.513,1.50119 -5.88018,2.5338 -2.63241,0.80729 -5.78688,1.19498 -8.67077,1.23436 -2.59726,0.0355 -5.42111,-0.20519 -7.88506,-0.92278 -3.75979,-1.09498 -6.68158,-2.84539 -6.68158,-2.84539"
       data-paper-data="{&quot;index&quot;:null}"
       fill="none"
       stroke="#000000"
       stroke-width="5"
       stroke-linecap="round"
       id="path18"
       style="mix-blend-mode:normal;fill-rule:nonzero;stroke:#584d00;stroke-linejoin:miter;stroke-miterlimit:10;stroke-dasharray:none;stroke-dashoffset:0;stroke-opacity:1" />
    <path
       d="m 33.28743,91.42903 c 0,0 6.21196,-5.7416 14.24212,-9.36803 5.37316,-2.42651 11.56036,-3.27712 17.24534,-3.15773 5.30531,0.11141 11.03421,0.74744 16.13063,2.92775 8.55194,3.65862 15.32293,9.59802 15.32293,9.59802"
       data-paper-data="{&quot;index&quot;:null}"
       fill="none"
       stroke="#000000"
       stroke-width="5"
       stroke-linecap="round"
       id="path20"
       style="mix-blend-mode:normal;fill-rule:nonzero;stroke:#584d00;stroke-linejoin:miter;stroke-miterlimit:10;stroke-dasharray:none;stroke-dashoffset:0;stroke-opacity:1" />
    <path
       d="m 32.68224,103.23308 c 0,0 19.41192,-25.02899 22.46829,-29.4525 0.85721,-1.24066 2.12696,-1.95485 3.28858,-1.23587 1.19331,0.7386 1.0635,2.20816 0.36387,3.47718 -2.55587,4.63584 -16.35984,33.29169 -16.35984,33.29169 z"
       data-paper-data="{&quot;index&quot;:null}"
       fill="#fafafa"
       stroke="none"
       stroke-width="0"
       stroke-linecap="butt"
       id="path22"
       style="mix-blend-mode:normal;fill-rule:nonzero;stroke-linejoin:miter;stroke-miterlimit:10;stroke-dasharray:none;stroke-dashoffset:0" />
    <g
       data-paper-data="{&quot;index&quot;:null}"
       fill="#d4d4d4"
       stroke="none"
       stroke-width="0"
       stroke-linecap="butt"
       id="g30"
       transform="translate(-175.46429,-115.46429)"
       style="mix-blend-mode:normal;fill-rule:nonzero;stroke-linejoin:miter;stroke-miterlimit:10;stroke-dasharray:none;stroke-dashoffset:0">
      <path
         d="m 226.84343,237.70076 c -6.83661,0 -12.37878,-5.54218 -12.37878,-12.37879 0,-6.83661 5.54217,-12.37879 12.37878,-12.37879 6.83661,0 12.37879,5.54217 12.37879,12.37879 0,6.83661 -5.54218,12.37879 -12.37879,12.37879 z"
         id="path24" />
      <path
         d="m 214.30177,225.32197 c -5.66719,0 -10.26136,-4.59417 -10.26136,-10.26136 0,-5.66719 4.59417,-10.26137 10.26136,-10.26137 5.66719,0 10.26137,4.59417 10.26137,10.26137 0,5.66719 -4.59417,10.26136 -10.26137,10.26136 z"
         id="path26" />
      <path
         d="m 205.99495,235.74621 c -5.39733,0 -9.77273,-4.37539 -9.77273,-9.77272 0,-5.39733 4.37539,-9.77273 9.77273,-9.77273 5.39733,0 9.77273,4.37539 9.77273,9.77273 0,5.39733 -4.3754,9.77272 -9.77273,9.77272 z"
         id="path28" />
    </g>
    <path
       d="m 87.07273,109.31358 c 0,0 -13.80396,-28.65585 -16.35983,-33.29169 -0.69964,-1.26901 -0.82945,-2.73858 0.36386,-3.47718 1.16162,-0.71899 2.43137,-0.005 3.28859,1.23587 3.05636,4.42352 22.46828,29.4525 22.46828,29.4525 z"
       data-paper-data="{&quot;index&quot;:null}"
       fill="#fafafa"
       stroke="none"
       stroke-width="0"
       stroke-linecap="butt"
       id="path32"
       style="mix-blend-mode:normal;fill-rule:nonzero;stroke-linejoin:miter;stroke-miterlimit:10;stroke-dasharray:none;stroke-dashoffset:0" />
    <g
       data-paper-data="{&quot;index&quot;:null}"
       fill="#d4d4d4"
       stroke="none"
       stroke-width="0"
       stroke-linecap="butt"
       id="g40"
       transform="translate(-175.46429,-115.46429)"
       style="mix-blend-mode:normal;fill-rule:nonzero;stroke-linejoin:miter;stroke-miterlimit:10;stroke-dasharray:none;stroke-dashoffset:0">
      <path
         d="m 241.22222,225.32197 c 0,-6.83661 5.54218,-12.37879 12.37879,-12.37879 6.83662,0 12.37878,5.54217 12.37878,12.37879 0,6.83661 -5.54217,12.37878 -12.37878,12.37878 -6.83661,0 -12.37879,-5.54217 -12.37879,-12.37878 z"
         id="path34" />
      <path
         d="m 255.88131,215.06061 c 0,-5.66719 4.59417,-10.26136 10.26137,-10.26136 5.66719,0 10.26137,4.59417 10.26137,10.26136 0,5.66719 -4.59417,10.26136 -10.26137,10.26136 -5.66719,0 -10.26137,-4.59417 -10.26137,-10.26136 z"
         id="path36" />
      <path
         d="m 264.67677,225.97349 c 0,-5.39733 4.3754,-9.77273 9.77273,-9.77273 5.39733,0 9.77272,4.3754 9.77272,9.77273 0,5.39733 -4.37539,9.77273 -9.77272,9.77273 -5.39733,0 -9.77273,-4.3754 -9.77273,-9.77273 z"
         id="path38" />
    </g>
  </g>
</svg>
