<svg xmlns="http://www.w3.org/2000/svg" width="84" height="84"><g data-name="Vector Graphics"><path d="M266.67.58C253.11.67 239.56-.07 226 0c-24.27 0-48.56-.19-72.82.52a206 206 0 0 0-21 .89c-4.27.43-8.61 1.15-12.48 3.13a71.4 71.4 0 0 0-9.23 5.38 131.2 131.2 0 0 0-22.79 21.14 194 194 0 0 0-16.3 24.88c-5.51 9.66-9.49 20.17-15.93 29.3-5.26 7.93-12.2 14.54-19.22 20.89-2.16 1.82-3.64 4.26-5.76 6.12a162.5 162.5 0 0 0-22 26c-1.93 2.55-3.91 5.15-4.8 8.29-.17.58-.35 1.16-.56 1.74a48 48 0 0 0-1.4 6c-.09.21-.27.62-.37.82-.68 4.96-1.57 9.9-1.29 14.84-.14 2.55.66 5 .69 7.55l.4.81a23.5 23.5 0 0 0 1.09 4.45c.06.27.2.8.27 1.06.4 1.14.77 2.28 1.14 3.44.47.92.92 1.86 1.39 2.78 3.06 5 5.55 10.35 9.08 15 2.44 2.9 4.38 6.2 7 8.93 2.33 2.53 4.39 5.3 6.74 7.82 5 5.76 10.89 10.65 15.44 16.77a118.4 118.4 0 0 1 14.21 23.54 109.5 109.5 0 0 0 14.43 23c5.12 6.5 11.22 12.11 17.16 17.85 7.26 6.5 14.19 13.48 22.42 18.78a527 527 0 0 0 46.38 26.45c10.54 5.44 21.82 9.24 32.46 14.48 9.69 4.36 19.24 9 28.83 13.59 15.68 7.73 31.4 15.45 47.81 21.53 5.85 2.38 12.36 1.79 18.33 3.77 6.1 2.44 12.5 4 18.81 5.83 5.18 1.83 10.55 3.1 15.8 4.74 6.86 2.23 13.94 3.66 20.91 5.49 5.21 1.12 10.49 1.94 15.74 2.84 6.54.56 13.08 1.19 19.64 1.25 5.65.39 11.32 0 17 .61 5.46.14 10.92 1 16.39.54 5.31-.43 10.65-.35 15.94-1 3.27-.52 6.5-1.29 9.77-1.86 4.4-.74 8.13-3.48 12.46-4.48 5.8-1.38 11.13-4.16 16.39-6.89 4.7-2.72 9.51-5.33 13.75-8.76 1.68-1.35 3.13-3 4.83-4.28 3.6-4.67 7.6-9.11 10.49-14.3 2.47-4.28 5.18-8.68 5.6-13.72.75-5.52.06-11.07-.16-16.6-2-25-2.53-50.12-2.89-75.21-.16-13.78-.46-27.59.2-41.37a61.6 61.6 0 0 1 3.55-20.53c5.05-12.79 13.4-24.14 17.15-37.47a49 49 0 0 0 1.24-7.6 191 191 0 0 0 .22-25.34c-.13-6.57-.78-13.29-3.41-19.38-2.35-6.13-6.62-11.27-11.11-16-3.31-3.57-7.83-5.64-11.27-9.07a34.3 34.3 0 0 1-7.81-10.33 58.1 58.1 0 0 1-3.76-15.88c-.22-3.09 0-6.26-.91-9.28-1.4-4.66-4.36-8.63-7.53-12.24a77.7 77.7 0 0 0-12-10.6 157 157 0 0 0-34.1-19.62c-13.86-5.66-28.61-8.6-43.29-11.19-14.22-2.4-28.51-4.3-42.83-6-11.63-1.38-23.33-1.82-35-2.31-12.85-.37-25.66-.71-38.46-.95" style="stroke:none" transform="translate(0 7.738)scale(.16202)"/><path d="M262.73.64c7 .27 13.93.4 20.89.45 10.72.52 21.47.63 32.18 1.33 17.43.6 34.74 2.9 52 5.42 15.35 2.25 30.72 4.73 45.63 9.1a139.2 139.2 0 0 1 37.04 17.26c7 4.69 14 9.59 20.1 15.52 3.75 4.17 7.55 8.64 9.07 14.15 1 3.47.57 7.1 1.09 10.64a53.3 53.3 0 0 0 3.83 14.87c3.26 6.38 8.68 11.4 14.62 15.26 6.5 5.3 12.19 11.87 15.4 19.69 2.56 6 3.22 12.65 3.28 19.14a144 144 0 0 1 .29 17.5c-.42 4.63-.25 9.34-1.34 13.9-1.8 8.09-6 15.35-9.64 22.69s-8 14.65-9.87 22.77a81 81 0 0 0-1.43 10c-.66 14.11-.82 28.26-.34 42.39.33 10.54-.1 21.09.64 31.61.14 4.35 0 8.7.33 13 .46 4.68.11 9.42.67 14.1.31 10.93 2 21.81 1.75 32.76a26.66 26.66 0 0 1-3.58 12.85 86.4 86.4 0 0 1-14.4 19.73c-4 4.15-9.13 7-14.06 10-6 3.35-12.17 6.67-18.89 8.37-4.32 1.07-8.09 3.69-12.47 4.54-2.65.5-5.29 1-7.92 1.53-4.23 1-8.6.63-12.89 1.13-4 0-7.95.7-11.92.27-10.16-.65-20.32-1.3-30.5-1.24-7.18-.59-14.42-.74-21.49-2.22-8-1.05-15.71-3.37-23.54-5.22-12.7-3.61-25.35-7.4-38-11.22a50.4 50.4 0 0 0-15.31-3.5c-3.75-.39-7.24-1.9-10.74-3.19-7.76-3-15.39-6.41-23-9.91-21.73-10.31-43.16-21.29-65.32-30.66-4.14-1.62-8.26-3.33-12.25-5.3a496 496 0 0 1-50.63-28.48c-7.5-4.72-13.87-10.94-20.44-16.85-5-4.85-10.29-9.46-14.92-14.69A110 110 0 0 1 60.19 267c-3.13-6.08-5.81-12.41-9.5-18.2a96 96 0 0 0-15.21-19.23c-5.58-5.43-10.33-11.57-15.65-17.19-2.31-2.95-4.42-6-6.82-8.94-3-4.44-5.36-9.31-8.19-13.88a52.1 52.1 0 0 1-4.64-17.25 70.7 70.7 0 0 1 3.58-25.81c1.18-4.18 4.3-7.33 6.62-10.88a193 193 0 0 1 13.09-16.26c3.79-4.12 8-7.86 11.75-12C42.09 101 49.14 94.7 54.56 87c5.71-7.82 9.69-16.69 14-25.31A199.6 199.6 0 0 1 88.84 30a145 145 0 0 1 18-17 66.3 66.3 0 0 1 14.36-8.9c5.65-2.27 11.81-2.53 17.79-3 14.72-.78 29.43-.56 44.12-.85C195.85.22 208.6 0 221.34.16c13.8.07 27.6.43 41.39.48m-99.81 10.47c-4.58-.09-9.13.34-13.7.38a101 101 0 0 0-18.1 1.8c-4.8 1-9.05 3.6-13.18 6.12A94.4 94.4 0 0 0 105 29.93a91.5 91.5 0 0 0-11.2 12.53A210 210 0 0 0 78 68.78c-2.25 4.57-4.37 9.21-6.65 13.77C67.55 89.6 64 97 58.31 102.78c-.8.68-1.69 2.44-.3 2.94 5.82 1.3 11.84.53 17.74 1 2.91.27 5.86-.17 8.73.46-6.74 1.29-13.66 1.32-20.45 2.39-3.24.43-6.45 1-9.66 1.64-3.67.93-7.61 1.57-10.65 4-7.41 5.75-13.38 13.1-19 20.54-4.24 6-8.69 12.24-10.27 19.57-1.62 6.69-1.17 13.7.29 20.37q.3 1.14.54 2.28a74.8 74.8 0 0 0 11.81 24.33c4.7 6.77 11 12.81 18.88 15.59 3.56 1.7 7.61 3 10.23 6.08-3.55.57-6.77-1.35-10.22-1.7.75 2.56 2.9 4.3 4.61 6.22a87.6 87.6 0 0 1 11.2 15.37C67.4 253 70.86 263.3 77.19 272c7.29 10.95 17.34 19.6 27 28.44a139 139 0 0 0 11.1 9.18c8 5.54 16.4 10.42 24.82 15.25 10.51 5.89 21.11 11.64 32.05 16.66 3.93 1.84 8 3.22 12 5 11.4 5 22.59 10.33 33.78 15.74 13.44 6.64 26.87 13.35 40.75 19 5.25 2 10.44 4.31 15.93 5.59 10.48 1.48 20.74 4.11 31 6.55 12.12 2.9 24.09 6.41 36.24 9.17l.32.17a245 245 0 0 0 30.08 5c7.72.66 15.46.87 23.2 1.26 12.43.09 24.95.77 37.28-1.17 9.49-1.55 18.35-5.62 26.8-10 9-4.53 16.14-12.06 21.81-20.25 3.06-5 6.31-10.15 6.88-16.1.5-6.63-.57-13.22-1.09-19.81-.88-8.28-1-16.6-1.47-24.9-.2-10.54-.76-21.05-.72-31.59 0-18.46-.09-36.91.12-55.37.39-7 1-14.08 3.49-20.67 4.57-12.17 12.17-23 16.39-35.28 2.76-8 2.62-16.52 2.49-24.84-.48-6.27-.94-12.64-2.89-18.67-1-3.19-3.14-5.77-5.18-8.33a99.5 99.5 0 0 0-9.37-9.34A70.5 70.5 0 0 1 476.61 99c-4.59-6.44-6.16-14.45-6.77-22.18a30.2 30.2 0 0 0-1.45-9.19 26.34 26.34 0 0 0-6.33-10.54c-7.19-6.62-15.54-11.82-24-16.66A159 159 0 0 0 410.77 28c-6.76-2.26-13.94-2.79-21-3.33-11.1-.38-22.23-.29-33.32.39-11.69.31-23.36 0-35-.68-17.17-1.17-34.19-3.8-51.33-5.14-12-1-24.09-2.2-36.15-1.32-11.88 1.16-23.79 3-35.1 6.91a305.5 305.5 0 0 0-59.37 28.71c-7.13 4.24-13.38 9.77-20.52 14a15 15 0 0 1-4 1.7c.64-2.22 2.78-3.37 4.38-4.83 8.18-6.43 17-12.08 25.71-17.67C154 41.08 163.14 35.48 172.82 31c18-7.7 36.88-14.24 56.58-15.43 16.23-1.19 32.53-.27 48.69 1.34 8.37 1.41 16.82 2.2 25.27 3 5.14.21 10.25.85 15.4.93l.34.25c15.47.6 30.94 1.76 46.44 1.41a23.4 23.4 0 0 0 6.18-.79c-.08-.44-.17-.88-.26-1.32-4.21-1.73-8.73-2.38-13.2-3.07-14.06-2-28.25-2.75-42.38-3.78-12.26-.48-24.51-1.29-36.77-1.5-8.84-.57-17.71-.3-26.56-.78-29.87-.47-59.76-.33-89.63-.15" style="stroke:none" transform="translate(0 7.738)scale(.16202)"/><path d="M283.88 34.39c-16.19-3.47-32.89-3.59-49.32-2.12-6.06.38-12.08 1.19-18.1 2-8.16 1.21-16.39 2.42-24.17 5.27A185.5 185.5 0 0 0 162.12 53c-11.67 7.1-23 15.35-31.18 26.43a6.84 6.84 0 0 0-1.34 2.92c2.88-1.09 5.18-3.2 7.47-5.18 4.63-4 8.66-8.73 13.6-12.42a142.2 142.2 0 0 1 30.64-17.49 129.5 129.5 0 0 1 31.53-9.34c20-3.3 40.53-5.13 60.72-2.17 7.14.94 14.18 2.53 21.33 3.44 25.29 3.17 50.91 2.93 76.29 1 8.3-.62 16.55-1.78 24.86-2.19a34 34 0 0 1 12.43.86c3.32 1.19 6 4.14 9.63 4.36 1.33.13.55-1.53.09-2a16.24 16.24 0 0 0-9.72-5.77c-6.77-1.16-13.63-.19-20.41.15q-17.74 2-35.59 2.78c-6.94.63-13.91.34-20.85.75-5.28-.25-10.58-.24-15.86-.57-10.67-1-21.38-1.98-31.88-4.17" style="stroke:none" transform="translate(0 7.738)scale(.16202)"/><path d="M267.43 49.11c-6.69-1.69-13.67-1.72-20.53-1.82-7.89-.13-15.76.27-23.65.51-9.48.69-19.06 1.29-28.25 3.92a108 108 0 0 0-21.31 8.07 107.5 107.5 0 0 0-22.23 16.89c-2.58 2.63-5.38 5.21-6.94 8.63.27.32.52.65.77 1 3.33-1.7 6.08-4.33 8.72-6.94a96 96 0 0 1 14.49-12A66 66 0 0 1 181.44 60a121.2 121.2 0 0 1 35.5-8.89c11.29-.91 22.64-1.49 33.95-.66 5.61 0 11.32.53 16.88-.5-.09-.19-.26-.63-.34-.84" style="stroke:none" transform="translate(0 7.738)scale(.16202)"/><path d="M263.21 57.07c-2-2-4.11-4-6.86-4.82 0 .32-.1 1-.13 1.29l-.43-.39a29 29 0 0 0 3.5 5.06 39.35 39.35 0 0 1 8.44 15.32c1 3.33 1.2 6.88 2.4 10.17a53 53 0 0 0 .24-9.74 24.83 24.83 0 0 0-7.16-16.89M398 55.73c-7.68-3.68-16.41-3.11-24.65-2.35-10.67.93-21.38 1.77-31.95 3.64-2.92.56-5.9 1.17-8.46 2.77 0 .5 0 1-.05 1.5 2.91.56 5.82-.17 8.63-.92 6.58-1.41 13.29-2.08 20-2.91 8.48-.7 17-1.78 25.5-1.33 6.32.39 11.93 3.63 17.31 6.7 5.1 2.89 10.18 6.3 13.46 11.28 2.29 3.37 3.06 7.47 5.17 10.94h.94a21.45 21.45 0 0 0-4.26-14.89c-5.47-6.95-13.73-10.8-21.64-14.43M345.54 73.7a6.3 6.3 0 0 0 1.07-5.19c-3.45.42-5.09 3.88-6.17 6.76-2.77 7.73-1.62 16-.85 24 1-3.84.41-7.84 1.11-11.72.82-4.82 2.03-9.75 4.84-13.85M272 104.81c2.05 2 4.3 3.92 5.47 6.58.94 2.7.51 5.65 0 8.4-1.08 2.8-3.37 4.91-5.62 6.82-4 3.54-8.69 6.23-13.17 9.14-10.55-4.48-20.46-10.52-31.49-13.88a101.9 101.9 0 0 0-40.17-4.16c-9 .62-17.59 3.62-26.58 3.91-4.94.1-10.06-2.2-12.65-6.51-1.52-3.3.83-6.73 2.62-9.41A53.3 53.3 0 0 1 175.65 88l1.34-.27.28-.24a134 134 0 0 1 38-4.72c9.37-.24 19 .63 27.64 4.44a114.8 114.8 0 0 1 29.09 17.6M223 94.6c-.73 2.25-.53 4.65-1.2 6.92-.46 2.11-1.7 4.14-1.17 6.38l1.29.78c1.18.13 2.36.2 3.54.26a40 40 0 0 1 7.44 1.65c5.53 2 10.56 5.06 16 7.26 3.53 1.42 7.22 3.57 11.15 2.64 1.82-.85 3.87-2.48 3.67-4.7.05-1.77-1.45-3-2.54-4.15-7.22-6.76-16.26-11.28-25.5-14.58-4.12-1.12-8.28-2.99-12.68-2.46m-61.28 15.06c-.35.54-.69 1.08-1.05 1.62a52 52 0 0 0 5.38-1.2 23.9 23.9 0 0 0 8.82-3.67 3.77 3.77 0 0 0 1.33-2c-5.2-2.41-11.47.66-14.45 5.25zM419.19 106.19c1.3 1.54 2.73 3.5 2 5.64a9.68 9.68 0 0 1-7.1 5.57 192 192 0 0 1-25.5 3.42c-11.79 1.12-23.72 2.46-35 6.15-2.95 1.41-6.41 2.25-8.58 4.86-1.82 2.75-1.12 6.25-1.05 9.36.4 3.87.6 8 2.83 11.36 2 3.17 5.49 4.81 8.55 6.75 7.75 4.88 15.42 10 22.15 16.27 4.61 4.23 8.86 9.52 15.13 11.24a25.2 25.2 0 0 1 11.69 4.74c2.22 1.64 4.55 3.35 5.8 5.89-3.05.13-5.66-1.78-8.3-3a101 101 0 0 0-18-7.47c-2.25-.7-5.25-.78-6.65 1.5-1.21 1.84-3.38 4.84-5.81 2.86a4.47 4.47 0 0 0-6.25-.28c-8.19 5.84-13.91 14.52-22.19 20.26-4.14 2.89-9.43 2.19-14.16 1.78-4.27-1-9.1-2.51-11.36-6.61-2.29-3.59 1.91-9.33 6-7.77 2.45 1.13 4.26 3.68 7.15 3.8 3.76.05 7.27-1.9 10.15-4.18A58.3 58.3 0 0 0 355 181.35c2.11-4.86-1.27-10.25-5.34-12.85-5.12-1-9.23-4.61-12.62-8.4-3.22-3.6-4.1-8.59-4.15-13.27-.7-4.85.76-10.2-1.79-14.66-3.23-4.1-8.77-5-12.73-8.15-1.84-1.37-4.42-3.36-3.25-6 3.65-2.13 7.95-2.44 12.09-2.48 5.58-.42 10.78-3.1 15.1-6.57a63 63 0 0 1 14.57-8.88c5.92-2.62 12.44-3.32 18.82-3.92a148 148 0 0 1 19.84-.5c4.82.21 9.75.87 14.13 3a30.2 30.2 0 0 1 9.52 7.52m-37.07 1c0 .2.07.58.09.77A139 139 0 0 0 398 108v-.78a49.4 49.4 0 0 0-15.88-.05zM140.4 107.2a10.3 10.3 0 0 0-3.55 0c-6.42.9-12.92 1.56-19.15 3.43-.58 2.94 2.92 3.72 5 4.71a32.4 32.4 0 0 0 13.18 1.08c-1.41-1.28-3.51-1-5.24-1.54-1.39-.46-3.35-.19-4.08-1.72 4.38-2.44 9.34-3.68 13.84-5.96M437.25 110.55a16.1 16.1 0 0 0-6.83-.51c-1.3.24-2 1.39-2.71 2.42a7.9 7.9 0 0 0 4 1.76 99 99 0 0 0 10.64.36c8.12.61 16.26-.73 24.38 0a14.76 14.76 0 0 1 9.14 4.32 53 53 0 0 0 10.13 8.62c2.15 1.4 4.59 2.43 6.36 4.34 5.25 5.29 7.88 12.67 8.78 19.95.49 5.58-1 11.09-2.2 16.49-1.05 4-2 8.19-3.94 11.94a18.15 18.15 0 0 1-6.21 5.7c-4.11 2.37-8.47 4.26-12.7 6.4-3 1.55-6.31 2.67-9.12 4.64 0 .3-.06.91-.08 1.22 1.85.57 3.68-.42 5.45-.87 7.84-2.73 15.7-5.9 22.28-11.08a15.26 15.26 0 0 0 5.67-8.91c2-8.13 4-16.41 3.7-24.83.29-6.28-2.23-12.22-5.05-17.68a28.3 28.3 0 0 0-4.55-6.74c-3.4-1.15-6.11-3.59-8.92-5.72-4.84-3.87-9.28-8.94-15.68-10.06-10.79-1.46-21.79.22-32.54-1.76M93.63 112.29c-12.57-.06-25.25-.85-37.72 1.18a17.6 17.6 0 0 0-6.78 2.21 45 45 0 0 0-12.21 11.54c-2.29 3.23-4.59 6.55-5.86 10.35-1.75 4.9-1.69 10.19-1.84 15.33a186 186 0 0 0 1.52 30.6c.57 4 1.16 8 3 11.6a29.06 29.06 0 0 0 8.31 9.82A64 64 0 0 0 52.13 210c3.83 1.55 7.72 3.23 11.88 3.63-.84-2.06-3.22-2.68-4.91-3.87-6.58-4.1-14.43-6.5-19.69-12.47-3.42-4-5-9.16-5.73-14.27-1.83-10.95-2-22.1-1.67-33.17a32.2 32.2 0 0 1 2.67-12 75 75 0 0 1 11.46-16.05c1.8-1.91 3.78-4 6.53-4.39 13.5-2.53 27.26-3.23 40.92-4.38zM141.89 120.2c-2.38-.44-5.22-.83-7.29.73-1.33 1.13-.64 2.89-.28 4.31 2.59-1.56 5.48-2.79 7.57-5.04" style="stroke:none" transform="translate(0 7.738)scale(.16202)"/><path d="M208.16 125.85a5.85 5.85 0 0 0-7-3.09c-4 .93-6 4.76-9.08 7.08a58.3 58.3 0 0 1-14 7.66c-5.29 2-10.84 3.69-16.56 3.72-7.75-.4-15.2-2.85-22.49-5.33a194 194 0 0 1-21.2-9.08 36.5 36.5 0 0 0-10.45-3.13 95 95 0 0 0-27.65-.54c-9 1.29-16.76 6.85-22.47 13.66a51 51 0 0 0-12.13 29.77 55.4 55.4 0 0 0 6.74 26.85c1.46 2.34 3 4.92 5.55 6.19a4.14 4.14 0 0 0 5.44-3.73 35.7 35.7 0 0 0-2.67-11.67c-2-5.1-3.9-10.37-4.43-15.87.21-6.12 3-11.81 6-17.05s6.78-10 11.75-13.44A33.55 33.55 0 0 1 86.68 134l.29-.22a106 106 0 0 1 14.24-.23c2.48.28 5.12.69 7.17 2.22 3 2.15 6.39 3.53 9.71 5 12.09 5.15 24.71 9.53 37.87 10.72 9.14.38 18.6.59 27.23-2.89a58.9 58.9 0 0 0 21.65-15.6c1.6-2 3.6-4.36 3.32-7.15M468.39 126.92a28 28 0 0 0-3.77-.24v1c3.57 3.42 8.31 5 12.5 7.51a11.77 11.77 0 0 1 5.19 7.41c1.25 4.69 1.68 9.54 2.45 14.32.2 3.3.85 6.8-.45 10-2.72 5.82-9.92 8.38-11.87 14.65a6.4 6.4 0 0 0 3.63-.94 32 32 0 0 0 8.8-7.62 12.67 12.67 0 0 0 3-8.05 106.4 106.4 0 0 0-3.11-25.5c-.77-2.39-1.3-5.15-3.47-6.71-3.88-2.75-8.42-4.35-12.9-5.83" style="stroke:none" transform="translate(0 7.738)scale(.16202)"/><path d="M467.19 139.37A47.1 47.1 0 0 0 452 136c-6.61-.16-13.45-.44-19.74 2-6.72 2.55-12 7.67-18.09 11.26a9.34 9.34 0 0 1-6.94 1.22c-4.8-1.95-9.33-5-14.71-5a5.18 5.18 0 0 0-2.57 6.83c1.75 4.41 6.21 7.11 10.6 8.38a70 70 0 0 0 17 2.12c3.78-.26 8.71-.13 10.75-4 1.87-4.07 3.89-8.75 8.35-10.55 6.84-2.37 14.43-2 21.27.2 4.13 1.18 7.34 4.44 11.64 5.17 2.94 1 6-2.09 5.5-5-.51-4.36-4.46-7.17-7.87-9.26" style="stroke:none" transform="translate(0 7.738)scale(.16202)"/><path d="M104 149.14c1 2.72 3.5 4.44 5.74 6.08a140.5 140.5 0 0 0 16.26 9.19c11.29 5.76 23 10.7 34.78 15.35 18.72 7.55 38.15 13.09 57.39 19.11 26.11 7.9 52.43 15.65 79.55 19.17 14.64 1.72 29.36 3.17 44.11 3.26 12.49.13 25.06-.55 37.28-3.25a137.4 137.4 0 0 0 32.8-11.78c6-3.2 11.89-6.74 16.66-11.61a26.6 26.6 0 0 0 6.3-10.81c2.44-7.06 2.23-14.69 4.5-21.79.74-1.26 1.35-3 3-3.25s3.12.87 3.81 2.27c2.08 3.93 1.57 8.66 3.68 12.6a11.65 11.65 0 0 0 3.42 4c2.29 3 3.14 6.83 4.05 10.43 3.23 15 4.14 30.42 4.09 45.74a282 282 0 0 1-1.59 33.29c-1.25 11.21-5.58 21.91-11.6 31.38a42 42 0 0 1-19.39 15.63c-12.4 5.22-25.85 7-39.05 8.91-8.22 1.2-16.52 1.67-24.79 2.3-18.49 1-37 .94-55.51.62l-.34-.21c-25.48-.49-51-3-75.73-9.54-13.08-3.44-26-7.71-38.07-13.91a249 249 0 0 1-28.35-18.5 287 287 0 0 1-24.24-19.76c-8.44-7.73-15.45-16.82-22.34-25.9-5.84-7.58-10.89-15.71-16.38-23.54-3.46-4.77-6.71-9.76-11-13.88a19 19 0 0 1-1.69-2.48c.16-2.48 1.51-4.88.7-7.38-.87-4-2.57-8.94-7-10.25-6.62-1.76-14.21.87-20.27-3.11-1-2.59 1.21-4.81 3.51-5.51 4.78-1.65 9.48-3.51 14.1-5.53a16.06 16.06 0 0 0 6.74-5.13c4-5.37 3-13.16 8-18 1.3-1.48 3.54-.69 4.59.66 1.39 1.41 1.74 3.35 2.28 5.13m-1.71 18.42c-1.11.41-2.54 1-2.56 2.41-.49 4.33.9 8.59 2.45 12.58a27.2 27.2 0 0 0 7 10.54 64.3 64.3 0 0 0 12.11 7.77c6.84 3.56 13.8 6.86 20.8 10.08a41.6 41.6 0 0 0 7.73 2.95 37.2 37.2 0 0 0 .6-11.73c-.42-3.23-.23-6.64-1.69-9.64-1.52-3.29-4.76-5.23-7.72-7.05-8.2-4.56-16.64-8.69-25.08-12.77-4.41-2.04-8.8-4.35-13.65-5.14zM443 195.69c.42 3.71 2 7.71 5.2 9.86.26-3.71-1.88-7.06-4.07-9.88zm-277.48-.21a13.3 13.3 0 0 0-3.32-.46c-.43.86-.85 1.73-1.27 2.6a11.3 11.3 0 0 0 .26 5.08 38 38 0 0 0 6.42 10.49c3.59 4.32 7.55 8.66 12.74 11 10.6 1.68 20.47 6.24 30.41 10.11 3.57 1.25 7 3 10.72 3.78 2.63-5 3.35-10.72 4.73-16.15.42-2.21 1.45-4.86-.18-6.8-2.12-2.18-5.23-2.89-8-3.88-10.82-3.33-21.74-6.35-32.54-9.74-6.69-1.98-13.25-4.31-20-6.03zm266.5 12a14.4 14.4 0 0 0-.67 3.11c-.56 8 .44 15.91 1.63 23.76.34 1.66.51 3.67 2 4.75a3.8 3.8 0 0 0 2.19-.85c2.27-1.49 4.89-3.16 5.35-6.06-.77-5.23-2.68-10.2-4.33-15.2-1.36-3.33-2.64-6.84-5.07-9.56zm-313.43 7.11a50 50 0 0 0 4 6.5c6.33 9.13 12.77 18.24 20.17 26.56 1.63 1.52 3 3.74 5.39 4 4.25-1.87 4.32-7.14 4-11.1-.6-3.32-.9-6.85-2.78-9.74-2.11-3-5.37-5-8.58-6.67-4.36-2.26-8.83-4.28-13.31-6.28-2.96-1.18-5.8-2.66-8.92-3.27zm296.59 3.91a82 82 0 0 0-10.7 5.18c-2 1.15-4 3.17-3.5 5.69a80 80 0 0 1 2.21 9.56c.6 3.18.29 6.54 1.69 9.55 2.86-.61 5.74-1.11 8.58-1.79a7.89 7.89 0 0 0 5.19-4.5c1.77-3.86 2.12-8.14 2.38-12.32.05-3.61-.24-7.41-2-10.64-.62-1.57-2.63-1.17-3.88-.73zm-175 .8c-2.56 3.57-3.12 8-4.12 12.2-.6 2.86-1.57 5.65-1.88 8.58 1.92 2.69 5.27 3.62 8.25 4.59a179.7 179.7 0 0 0 34.57 6.62 93 93 0 0 0 10.14.17 33 33 0 0 0 3.92-1c1.45-2.09 1.37-4.71 1.08-7.13-.44-3.43-.1-7-1.37-10.31-1.08-2.72-4-4-6.59-4.78l-.34-.19c-8.3-2.18-16.75-3.82-25.19-5.41l-.32-.19c-6.11-.91-12.08-2.66-18.22-3.15zm140.56 10.5c-7.9.87-15.78 2-23.59 3.4-2.73.51-6.33 1.67-6.34 5a53.7 53.7 0 0 0 1.1 9.8c.54 2.3 3.14 3.15 5.24 3.09a153.5 153.5 0 0 0 27.76-1.92c2.32-.51 4.78-.82 6.78-2.21l.68-1.25c0-3-1.12-5.77-1.92-8.58-.66-2-1.19-4.25-2.6-5.93-2-1.62-4.77-1.66-7.18-1.4zm-73.28.88a3.93 3.93 0 0 0-3.42 1.95c-1 2.13-.75 4.56-.81 6.85.07 3-.29 6.06.75 8.91a5.38 5.38 0 0 0 3.89 2.52c5.83 1 11.76.46 17.64.58 4.45-.11 9.08.35 13.37-1.06 2-.72 1.74-3.12 1.47-4.79a85 85 0 0 0-2.86-11.91c-7-1-14-1.91-21.07-2.59a44.7 44.7 0 0 0-9.03-.46zm-143.1 7.24c-1.33 2.35-.56 5.1-1 7.64-.38 4.28-1.61 8.67-4.48 12a3.64 3.64 0 0 0 0 5.16c2.77 3.13 6.32 5.4 9.66 7.85 9.81 6.83 19.69 13.57 29.87 19.86 1.79 1 3.78 2.45 5.92 1.76 1.69-.86 2.68-2.59 3.6-4.16a87.2 87.2 0 0 0 8.11-20.25c.7-3.17 1.52-6.86-.64-9.67-2.1-3-5.89-3.68-9.19-4.53-11.46-3.39-22.27-8.58-33.16-13.44-2.85-1.14-5.68-2.63-8.76-2.22zm67.45 23.44a2.83 2.83 0 0 0-3.69 1.5c.06 6.32-.6 12.81-3.62 18.47a60 60 0 0 0-5.8 12.36c-.44 1.62-.92 3.83.57 5.08 1.88 1.64 4.33 2.41 6.63 3.25a275.5 275.5 0 0 0 37.44 9.36c4.14.56 8.3 1.42 12.49 1.19a6.8 6.8 0 0 0 3-1.13 11.55 11.55 0 0 0 1.76-5.27 120 120 0 0 0 .72-13.14 57.6 57.6 0 0 0 .16-10.42c-.24-2.18-.7-4.65-2.59-6a22 22 0 0 0-7.33-2.78c-6-1.42-11.88-3.18-17.73-5.05l-3-.93c-6.5-1.98-12.62-4.76-19.08-6.49zm211.58 14.11c-3.21 5.58-6.28 11.39-7.7 17.72a5.87 5.87 0 0 0 .31 3.15c.45-.06.9-.11 1.36-.15 2.63-5.64 4.89-11.44 7.36-17.15 1-3 2.64-5.86 2.53-9.07a27.4 27.4 0 0 0-3.93 5.5zm-17.86 3.85c-.83.19-1.66.41-2.49.61-3.73 3.43-6.27 7.91-8.58 12.37-2.05 4-3.91 8.18-5.7 12.34a8 8 0 0 0-.7 2.89c3 .34 5.95-.72 8.83-1.47 4.47-1.25 9.09-2.44 12.91-5.17a4.22 4.22 0 0 0 1.55-2.26c-2.51-1.27-6.5.7-7.8-2.5-1-5.36 1.78-10.37 2.74-15.52zM296 279.4c-2.07-.44-2.7 2.28-3 3.8a155 155 0 0 0-1.29 20.63c.07 3.18 0 6.57 1.4 9.48.81 1.52 2.61 1.65 4.1 1.88a148 148 0 0 0 18 .81c4.38-.08 8.94.38 13.11-1.25 2-1.84 2.41-4.63 2.94-7.16 1.11-6.14 2.7-12.2 3.24-18.41 0-1.54-.39-3.42-1.85-4.22-2.27-1.18-4.88-1.21-7.37-1.34l-.35-.21c-5.35-.09-10.66-.81-16-1.42A76.6 76.6 0 0 1 296 279.4m96.62 6.69c-1.38.24-3.1.07-4 1.36-2.95 3.54-4.25 8.07-5.72 12.34-1.05 3.36-2.25 6.66-3.48 9.94a5.7 5.7 0 0 0-.11 2.79 7.7 7.7 0 0 0 2.59.42 71 71 0 0 0 9.69-1.66 9.4 9.4 0 0 0 4.13-2c.38-1.21-.3-2.5 0-3.74 1.29-5.86 4.26-11.14 6.91-16.47.79-1.67 1.76-3.35 1.58-5.27-3.89.27-7.61 1.9-11.55 2.29zm-44.29 2.25c-2.29 4.46-3.32 9.39-4.41 14.23l-.39 2.47c-.46 3.33-1.95 7.08-.26 10.26 4.29 1.24 8.88.7 13.24.07 2.23-.47 4.88-.78 6.3-2.79a73.7 73.7 0 0 0 8-14.32c1.18-2.76 2.59-5.51 2.83-8.55-.18-.31-.55-.91-.74-1.22-3.22-1.48-6.83-1.29-10.28-1.55-4.72-.33-9.8-.49-14.25 1.4z" style="stroke:none" transform="translate(0 7.738)scale(.16202)"/><path d="M234 163c-1.13-.59-2.09.2-2.61 1.18 1.81 2.35 1.28 6.11-1.69 7.18-5.54 1.79-11.47 1.6-17.21 2.14-7.3.21-14.83-.31-21.88 2a3.64 3.64 0 0 0 0 2.84c12.61-1.4 25.36-1.26 37.91-3.27 2.25-.43 4.65-1.17 6.13-3A7.08 7.08 0 0 0 234 163M265.79 163.67c-7.34-1.11-15.57-.61-21.82 3.8-3.89 2.67-5.36 7.62-5.16 12.15.18 4.79-.59 9.86 1.49 14.36 1.41 3.26 4.59 5.16 7.5 6.92 1.72.86 3.42 2.15 5.41 2.13a8.65 8.65 0 0 0 3.58-4.8 6.87 6.87 0 0 0-2.51-6.87 12.55 12.55 0 0 1-4.85-10.57 5 5 0 0 1 2.7-4.36c3.69-2 7.94-2.36 12-3.1 2.49-.39 5.34-.69 7.07-2.74a3.17 3.17 0 0 0 0-4.62 11.27 11.27 0 0 0-5.41-2.3M294.26 183.71c-8.28-2.24-17-1.9-25.43-.86a5.9 5.9 0 0 0-4.54 3.57 44 44 0 0 0 0 5.13 8.36 8.36 0 0 0 4 5.87c2.92.25 3.7-3.29 6.39-3.61 7.8-2.07 15.94 0 23.83-1.25 2.1-.29 4.59-1.5 4.12-4.05-2.01-2.7-5.27-3.91-8.37-4.8M147.6 298.28a9.7 9.7 0 0 0-4-.95c3.9 2.92 8.29 5.09 12.54 7.44 20.9 11.3 42.69 20.87 64.71 29.77 11.24 4.42 22.59 8.62 34.14 12.14l.32.16c15.39 4.75 31.55 5.72 47.52 6.61 12.23.87 24.48 1.37 36.72 2 14.09.46 28.21 1 42.3.32 11.71-.57 23.69-2 34.4-7 9.46-4.33 18.61-10.43 24.07-19.49-.27-.24-.53-.46-.8-.68l-1.24.54c-4.7 2.63-8.33 6.71-12.63 9.89a75.2 75.2 0 0 1-13.35 7.65 76.8 76.8 0 0 1-28.17 6.53c-8.1.32-16.2.06-24.3-.09-5.42-.57-10.9-.2-16.32-.76-7.9-.28-15.8-.61-23.68-1.12-6.23-.12-12.44-.62-18.66-.85-11-.77-22.12-1.25-33-3.39-11.42-2.33-22.26-6.7-33.19-10.6-21.34-8.13-42.36-17.13-62.86-27.19-8.12-3.84-16.19-7.66-24.52-10.93" style="stroke:none" transform="translate(0 7.738)scale(.16202)"/><path d="M126.9 302.36c-3.62-1.62-7.17-3.49-11-4.54.35 1.85 2.34 2.55 3.66 3.63 10.62 6.75 21.89 12.42 33.11 18.09a637 637 0 0 0 33.94 15.91 381 381 0 0 0 49.87 17.06c14.13 3.36 28.35 6.33 42.6 9.17 13.89 2.64 27.85 5.11 41.93 6.45l.36.23c13.58 1.18 27.17 2.28 40.81 2.59 7.3.59 14.64.23 21.95.78 10 .16 19.95.44 29.93.23a61.3 61.3 0 0 0 16.06-1.96c6.06-1.81 11.37-5.34 16.73-8.58 4.49-2.82 9.12-5.47 13.22-8.85a10.3 10.3 0 0 0 4-8.64c-.13-3.65.15-7.4-.8-11-.49 3.44-.56 7-1.54 10.33a14 14 0 0 1-4.27 6.17c-4.64 4-10 7-15.25 10.18-5.7 3.37-11.45 7-18 8.55-7.75 1.84-15.77 1.46-23.69 1.48-4.54 0-9.08-.1-13.63-.26-6.16-.51-12.37-.18-18.54-.72-10.39-.29-20.78-.79-31.15-1.61a434 434 0 0 1-57.49-8.54c-13.08-2.6-26.12-5.41-39.13-8.3-6.18-1.44-12.39-2.76-18.45-4.69-20.81-6.73-40.8-15.77-60.46-25.33-11.67-5.62-23.03-12.19-34.77-17.83" style="stroke:none" transform="translate(0 7.738)scale(.16202)"/><path d="M361.54 338.67c1.16-.24-.77-.38-1.06-.42-16.76-.5-33.55-.43-50.32-.06a24.5 24.5 0 0 0-3.52.33c1.54.1 3.09.15 4.61.39 13.38.31 26.78.17 40.16.13 3.39.08 6.75-.39 10.13-.37" style="stroke:none" transform="translate(0 7.738)scale(.16202)"/><path d="M207.693 10.935c-14.94.007-29.873.08-44.808.17-4.58-.09-9.136.385-13.706.385a101 101 0 0 0-18.095 1.796c-4.8 1.03-9.058 3.604-13.188 6.124a94.4 94.4 0 0 0-12.898 10.524 91.5 91.5 0 0 0-11.2 12.525 210 210 0 0 0-15.767 26.316c-2.25 4.57-4.374 9.218-6.654 13.778-3.83 7.05-7.382 14.442-13.092 20.252-.8.68-1.68 2.442-.29 2.942 5.82 1.25 11.833.48 17.733 1 2.91.27 5.858-.172 8.728.458-6.74 1.29-13.655 1.33-20.445 2.4-3.24.43-6.446 1.029-9.656 1.639-3.65.92-7.656 1.562-10.656 4.002-7.39 5.75-13.359 13.09-18.999 20.53-4.27 6.02-8.69 12.246-10.27 19.576-1.62 6.69-1.171 13.703.289 20.373q.301 1.139.542 2.278a74.8 74.8 0 0 0 11.826 24.291c4.7 6.77 10.968 12.819 18.878 15.599 3.56 1.7 7.615 2.976 10.235 6.076-3.55.57-6.773-1.35-10.223-1.7.75 2.56 2.907 4.3 4.617 6.22a87.6 87.6 0 0 1 11.2 15.37c5.61 9.14 9.063 19.436 15.393 28.136 7.29 11 17.343 19.608 27.003 28.498a139 139 0 0 0 11.102 9.173c7.99 5.54 16.401 10.42 24.821 15.25 10.51 5.89 21.102 11.66 32.042 16.66 3.93 1.84 8.007 3.222 12.007 5.002 11.4 4.95 22.587 10.334 33.777 15.744 13.44 6.6 26.866 13.308 40.746 18.998 5.25 2.02 10.446 4.314 15.936 5.594 10.45 1.48 20.703 4.106 30.993 6.546 12.12 2.9 24.1 6.413 36.25 9.173l.313.17a245 245 0 0 0 30.088 5.002c7.72.66 15.454.864 23.194 1.254 12.43.09 24.956.77 37.286-1.17 9.49-1.51 18.348-5.573 26.798-9.993 9.01-4.53 16.137-12.062 21.807-20.252 3.06-4.97 6.313-10.156 6.883-16.106.5-6.63-.577-13.216-1.097-19.806-.88-8.28-1-16.605-1.47-24.905-.2-10.54-.712-21.044-.712-31.584-.04-18.46-.09-36.908.12-55.368.39-6.98.985-14.084 3.485-20.674 4.57-12.17 12.174-22.964 16.394-35.284 2.76-7.96 2.613-16.513 2.483-24.833-.48-6.27-.88-12.673-2.88-18.673-.97-3.19-3.184-5.77-5.184-8.33a99.5 99.5 0 0 0-9.367-9.342 70.5 70.5 0 0 1-13.465-13.755c-4.59-6.44-6.165-14.439-6.775-22.169a30.2 30.2 0 0 0-1.447-9.198 26.34 26.34 0 0 0-6.328-10.536c-7.19-6.66-15.542-11.82-24.002-16.66a159 159 0 0 0-27.292-12.44c-6.75-2.26-13.93-2.787-21-3.327-11.1-.38-22.229-.294-33.319.386-11.66.32-23.325-.035-34.995-.675-17.17-1.14-34.19-3.808-51.33-5.148-12.02-.97-24.092-2.194-36.152-1.314-11.88 1.16-23.794 2.968-35.104 6.908a305.5 305.5 0 0 0-59.37 28.714c-7.13 4.24-13.377 9.766-20.517 13.996a15 15 0 0 1-4.002 1.7c.64-2.22 2.788-3.374 4.388-4.834 8.18-6.43 16.94-12.083 25.7-17.673 9-5.64 18.143-11.235 27.823-15.755 18-7.7 36.886-14.24 56.586-15.43 16.23-1.19 32.53-.273 48.69 1.337 8.37 1.43 16.816 2.222 25.266 3.002 5.14.21 10.244.848 15.394.928l.35.253c15.44.6 30.935 1.76 46.435 1.41a23.4 23.4 0 0 0 6.184-.795c-.08-.44-.175-.874-.265-1.314-4.2-1.73-8.73-2.384-13.2-3.074-14.06-2-28.243-2.773-42.373-3.773-12.26-.5-24.52-1.297-36.78-1.507-8.84-.59-17.702-.315-26.592-.795-14.935-.205-29.88-.272-44.82-.266m39.226 20.554c12.389-.42 24.818.315 36.96 2.978 10.5 2.19 21.215 3.178 31.885 4.098 5.28.33 10.573.317 15.853.567 6.94-.41 13.914-.118 20.854-.748 11.9-.52 23.76-1.451 35.586-2.784 6.78-.34 13.64-1.305 20.41-.145a16.24 16.24 0 0 1 9.727 5.762c.46.47 1.234 2.131-.096 2.001-3.63-.22-6.312-3.174-9.632-4.364A34 34 0 0 0 396.038 38c-8.31.41-16.557 1.574-24.857 2.194-25.38 1.93-51.006 2.169-76.296-1.001-7.15-.91-14.185-2.508-21.325-3.448-20.19-2.96-40.72-1.13-60.72 2.17a129.5 129.5 0 0 0-31.535 9.343 142.2 142.2 0 0 0-30.632 17.491c-4.94 3.69-8.967 8.417-13.597 12.417-2.29 1.98-4.594 4.093-7.474 5.183a6.84 6.84 0 0 1 1.338-2.917c8.18-11.08 19.516-19.336 31.186-26.436a185.5 185.5 0 0 1 30.16-13.453c7.78-2.85 16.01-4.058 24.17-5.268 6.02-.81 12.047-1.621 18.107-2.001 4.11-.368 8.227-.644 12.356-.784m-.024 15.78v.024c6.86.1 13.84.126 20.53 1.796.08.21.26.646.35.856-5.56 1.03-11.28.506-16.89.506-11.31-.83-22.656-.247-33.946.663A121.2 121.2 0 0 0 181.437 60a66 66 0 0 0-12.934 7.353 96 96 0 0 0-14.49 11.995c-2.64 2.61-5.398 5.243-8.728 6.943-.25-.35-.49-.68-.76-1 1.56-3.42 4.352-6.002 6.932-8.632a107.5 107.5 0 0 1 22.23-16.888 108 108 0 0 1 21.312-8.065c9.19-2.63 18.777-3.24 28.257-3.93 7.89-.24 15.75-.636 23.64-.506m9.451 4.978c2.75.83 4.88 2.846 6.86 4.846a24.83 24.83 0 0 1 7.16 16.89 53 53 0 0 1-.241 9.74c-1.2-3.29-1.4-6.845-2.4-10.175a39.35 39.35 0 0 0-8.437-15.321 29 29 0 0 1-3.496-5.051l.434.385c.03-.29.12-.97.12-1.29zm129.578.64c4.172.22 8.275.997 12.115 2.832 7.87 3.63 16.132 7.466 21.602 14.466a21.45 21.45 0 0 1 4.255 14.888h-.94c-2.11-3.47-2.881-7.576-5.171-10.946-3.28-4.98-8.354-8.381-13.454-11.271-5.38-3.07-10.99-6.313-17.31-6.703-8.5-.45-17.016.626-25.496 1.326-6.71.83-13.42 1.495-20 2.905-2.81.75-5.72 1.489-8.63.929.05-.5.048-1.007.048-1.507 2.56-1.6 5.542-2.2 8.462-2.76 10.57-1.87 21.275-2.711 31.945-3.641l.037-.024c4.12-.38 8.364-.716 12.537-.495m-39.311 15.622a6.3 6.3 0 0 1-1.073 5.172c-2.84 4.1-4.014 9.023-4.834 13.863-.7 3.88-.121 7.89-1.121 11.73-.77-8-1.914-16.272.856-24.002 1.08-2.88 2.722-6.343 6.172-6.763M215.275 82.734c9.37-.24 18.978.626 27.678 4.436a114.8 114.8 0 0 1 29.1 17.637c2.05 1.98 4.291 3.921 5.461 6.581.92 2.7.49 5.653 0 8.403-1.08 2.82-3.367 4.913-5.617 6.823-4.02 3.54-8.684 6.227-13.164 9.137-10.55-4.48-20.487-10.527-31.487-13.887a101.9 101.9 0 0 0-40.179-4.159c-8.97.62-17.58 3.628-26.58 3.918-4.94.1-10.056-2.2-12.646-6.51-1.52-3.3.825-6.734 2.615-9.414a53.3 53.3 0 0 1 25.207-17.733l1.338-.277.277-.241a134 134 0 0 1 37.997-4.714m9.379 11.766q-.809-.004-1.627.096c-.73 2.25-.524 4.65-1.194 6.92-.46 2.11-1.7 4.149-1.17 6.389l1.29.771c1.18.13 2.353.205 3.533.265a40 40 0 0 1 7.45 1.652c5.53 2 10.556 5.057 15.996 7.257 3.53 1.42 7.221 3.57 11.151 2.64 1.82-.85 3.865-2.482 3.665-4.702.05-1.77-1.454-2.996-2.544-4.146-7.21-6.76-16.268-11.287-25.508-14.587-3.622-.98-7.262-2.542-11.042-2.555m170.841 1.205c4.82.21 9.746.86 14.116 2.99a30.2 30.2 0 0 1 9.572 7.486c1.32 1.54 2.751 3.501 2.001 5.641a9.68 9.68 0 0 1-7.1 5.57 192 192 0 0 1-25.508 3.423c-11.77 1.15-23.696 2.458-34.996 6.148-2.95 1.41-6.413 2.248-8.583 4.858-1.82 2.75-1.118 6.245-1.048 9.355.4 3.87.603 8.018 2.833 11.368 1.99 3.17 5.486 4.81 8.546 6.75 7.75 4.88 15.427 10.012 22.157 16.262 4.61 4.24 8.859 9.528 15.13 11.248a25.2 25.2 0 0 1 11.68 4.737c2.22 1.64 4.56 3.355 5.81 5.895-3.05.17-5.665-1.742-8.305-3.002a101 101 0 0 0-17.998-7.474c-2.25-.7-5.254-.785-6.654 1.495-1.21 1.86-3.38 4.87-5.81 2.87a4.47 4.47 0 0 0-6.245-.29c-8.19 5.84-13.913 14.524-22.193 20.264-4.16 2.89-9.435 2.194-14.165 1.784-4.27-.99-9.095-2.518-11.355-6.618-2.32-3.59 1.883-9.323 6.003-7.763 2.45 1.13 4.259 3.677 7.149 3.797 3.76.05 7.27-1.903 10.15-4.183a58.3 58.3 0 0 0 14.273-16.937c2.11-4.85-1.27-10.25-5.34-12.85-5.12-1.03-9.232-4.613-12.622-8.403-3.22-3.6-4.109-8.58-4.159-13.26-.7-4.85.766-10.21-1.784-14.67-3.23-4.15-8.73-4.99-12.73-8.15-1.84-1.4-4.425-3.381-3.255-5.991 3.65-2.13 7.951-2.484 12.091-2.484 5.58-.42 10.785-3.1 15.105-6.57a63 63 0 0 1 14.574-8.848c5.92-2.62 12.438-3.317 18.818-3.917a148 148 0 0 1 19.842-.507zm-223.328 7.872c-4.115.07-8.18 2.645-10.415 6.088-.35.54-.689 1.075-1.049 1.615a52 52 0 0 0 5.377-1.206 23.9 23.9 0 0 0 8.824-3.664 3.77 3.77 0 0 0 1.326-2.013 9.4 9.4 0 0 0-4.063-.82m216.734 2.977a49 49 0 0 0-6.81.64c0 .2.064.58.084.77a139 139 0 0 0 15.828.037v-.808a49.4 49.4 0 0 0-9.102-.639m-248.45.591c-4.5 2.33-9.457 3.573-13.887 6.003.73 1.53 2.684 1.264 4.074 1.724 1.73.54 3.834.263 5.244 1.543a32.4 32.4 0 0 1-13.188-1.085c-2.08-.99-5.57-1.773-4.99-4.713 6.23-1.87 12.723-2.524 19.143-3.424a10.3 10.3 0 0 1 3.604-.048m289.967 2.857a16.1 16.1 0 0 1 6.847.543c10.74 1.98 21.734.3 32.524 1.76 6.4 1.12 10.843 6.195 15.683 10.065 2.81 2.13 5.521 4.564 8.921 5.714a28.3 28.3 0 0 1 4.545 6.751c2.82 5.46 5.34 11.392 5.05 17.672.3 8.42-1.7 16.703-3.7 24.833a15.26 15.26 0 0 1-5.666 8.909c-6.58 5.18-14.437 8.348-22.277 11.078-1.77.45-3.599 1.438-5.449.868.02-.31.072-.917.072-1.217 2.81-1.97 6.126-3.091 9.126-4.641 4.23-2.14 8.584-4.031 12.694-6.401a18.15 18.15 0 0 0 6.208-5.69c1.94-3.75 2.892-7.947 3.942-11.947 1.2-5.4 2.696-10.91 2.206-16.49-.9-7.28-3.538-14.661-8.788-19.951-1.77-1.91-4.203-2.94-6.353-4.34a53 53 0 0 1-10.138-8.656 14.76 14.76 0 0 0-9.138-4.327c-8.12-.73-16.255.61-24.375 0a99 99 0 0 1-10.644-.35 7.9 7.9 0 0 1-4.002-1.76c.71-1.03 1.412-2.183 2.712-2.423M74.728 112.1c6.295-.05 12.6.163 18.866.193v.735c-13.66 1.15-27.426 1.858-40.926 4.388-2.75.39-4.722 2.478-6.522 4.388a75 75 0 0 0-11.464 16.045 32.2 32.2 0 0 0-2.676 12.006c-.33 11.07-.155 22.213 1.675 33.163.73 5.11 2.306 10.273 5.726 14.273 5.26 5.97 13.118 8.365 19.698 12.465 1.69 1.19 4.066 1.81 4.906 3.87-4.16-.4-8.056-2.079-11.886-3.629a64 64 0 0 1-10.078-5.075 29.06 29.06 0 0 1-8.306-9.825c-1.84-3.6-2.431-7.597-3.001-11.597a186 186 0 0 1-1.52-30.595c.15-5.14.095-10.433 1.845-15.333 1.27-3.8 3.569-7.126 5.859-10.356a45 45 0 0 1 12.212-11.536 17.6 17.6 0 0 1 6.774-2.206c6.235-1.015 12.523-1.326 18.818-1.374m63.396 7.715c1.267-.038 2.571.182 3.761.422-2.09 2.21-4.98 3.442-7.57 5.002-.36-1.42-1.04-3.173.29-4.303 1.034-.78 2.253-1.084 3.52-1.121m-44.542 2.58a95 95 0 0 1 13.803 1.29 36.5 36.5 0 0 1 10.451 3.122 194 194 0 0 0 21.205 9.089c7.29 2.48 14.744 4.928 22.494 5.328 5.72-.03 11.261-1.725 16.551-3.725a58.3 58.3 0 0 0 14.008-7.655c3.08-2.32 5.077-6.158 9.077-7.088a5.85 5.85 0 0 1 6.992 3.062c.28 2.79-1.727 5.115-3.327 7.185a58.9 58.9 0 0 1-21.65 15.599c-8.63 3.48-18.08 3.273-27.22 2.893-13.16-1.19-25.787-5.579-37.877-10.729-3.32-1.47-6.704-2.84-9.704-4.99-2.05-1.53-4.693-1.95-7.173-2.23a106 106 0 0 0-14.236.228l-.302.23a33.55 33.55 0 0 0-13.152 3.845c-4.97 3.44-8.753 8.201-11.753 13.441s-5.793 10.926-6.003 17.046c.53 5.5 2.436 10.776 4.436 15.876a35.7 35.7 0 0 1 2.664 11.669 4.14 4.14 0 0 1-5.437 3.725c-2.55-1.27-4.085-3.844-5.545-6.184a55.4 55.4 0 0 1-6.739-26.846A51 51 0 0 1 57.273 136.8c5.71-6.81 13.47-12.368 22.47-13.658a95 95 0 0 1 13.839-.747m371.036 4.279a28 28 0 0 1 3.749.265c4.48 1.48 9.022 3.08 12.922 5.81 2.17 1.56 2.702 4.325 3.472 6.715a106.4 106.4 0 0 1 3.11 25.496 12.67 12.67 0 0 1-3.001 8.053 32 32 0 0 1-8.8 7.618 6.4 6.4 0 0 1-3.629.94c1.95-6.27 9.154-8.826 11.874-14.646 1.3-3.2.646-6.705.446-10.005-.77-4.78-1.197-9.632-2.447-14.322a11.77 11.77 0 0 0-5.196-7.413c-4.19-2.51-8.93-4.09-12.5-7.51zm-12.622 9.33a47.1 47.1 0 0 1 15.262 3.424c3.41 2.09 7.36 4.898 7.8 9.198.5 2.91-2.558 6.003-5.498 5.003-4.3-.73-7.515-3.992-11.645-5.172-6.84-2.2-14.425-2.563-21.265-.193-4.46 1.8-6.484 6.478-8.354 10.548-2.04 3.87-6.96 3.742-10.74 4.002a70 70 0 0 1-17.01-2.121c-4.39-1.27-8.846-3.968-10.596-8.378a5.18 5.18 0 0 1 2.568-6.835c5.38 0 9.907 3.052 14.707 5.002a9.34 9.34 0 0 0 6.943-1.217c6.09-3.59 11.374-8.71 18.094-11.26 6.29-2.44 13.124-2.16 19.734-2m-352.423 6.63c.857.182 1.69.724 2.23 1.399 1.34 1.39 1.688 3.331 2.218 5.111.99 2.72 3.498 4.436 5.738 6.076a140.5 140.5 0 0 0 16.262 9.186c11.29 5.76 22.989 10.707 34.778 15.357 18.72 7.55 38.154 13.107 57.394 19.107 26.11 7.9 52.43 15.648 79.55 19.168 14.64 1.72 29.358 3.176 44.108 3.266 12.49.13 25.054-.554 37.274-3.254a137.4 137.4 0 0 0 32.8-11.778c5.97-3.2 11.89-6.739 16.66-11.609a26.6 26.6 0 0 0 6.305-10.813c2.44-7.06 2.227-14.695 4.497-21.795.74-1.25 1.331-2.853 3.001-3.243s3.12.866 3.81 2.266c2.08 3.93 1.567 8.658 3.677 12.598a11.65 11.65 0 0 0 3.423 4.002c2.29 3.03 3.14 6.827 4.05 10.427 3.23 15.01 4.087 30.429 4.087 45.749a282 282 0 0 1-1.58 33.283c-1.25 11.21-5.608 21.909-11.608 31.379a42 42 0 0 1-19.384 15.635c-12.4 5.22-25.858 6.908-39.058 8.908-8.22 1.2-16.514 1.673-24.784 2.303-18.51.97-37.003.935-55.513.615l-.338-.205c-25.48-.54-51.038-3.018-75.728-9.548-13.07-3.44-26.07-7.699-38.07-13.899a249 249 0 0 1-28.376-18.504 287 287 0 0 1-24.279-19.758c-8.44-7.73-15.447-16.826-22.337-25.906-5.84-7.54-10.893-15.713-16.383-23.543-3.49-4.77-6.734-9.755-10.994-13.875a19 19 0 0 1-1.555-2.423c.16-2.48 1.51-4.89.7-7.39-.9-4.05-2.593-8.936-6.993-10.246-6.62-1.76-14.216.89-20.276-3.11-1.01-2.59 1.208-4.81 3.508-5.51 4.78-1.65 9.484-3.533 14.104-5.533a16.06 16.06 0 0 0 6.739-5.123c4-5.39 3.004-13.19 8.004-18.01l-.06-.024c.65-.74 1.541-.917 2.399-.735m133.616 20.156c.253.004.52.076.795.241a7.08 7.08 0 0 1 .675 8.993c-1.48 1.83-3.873 2.572-6.123 3.002-12.55 2.01-25.303 1.879-37.913 3.279a3.64 3.64 0 0 1 0-2.845c7.05-2.31 14.58-1.791 21.88-2.001 5.74-.54 11.662-.344 17.202-2.134 2.97-1.07 3.51-4.835 1.7-7.185.39-.735 1.025-1.36 1.784-1.35m26.979.386c1.9.04 3.782.217 5.617.494a11.27 11.27 0 0 1 5.449 2.303 3.17 3.17 0 0 1 0 4.617c-1.73 2.05-4.586 2.346-7.076 2.736-4.06.74-8.305 1.098-11.995 3.098a5 5 0 0 0-2.7 4.364 12.55 12.55 0 0 0 4.846 10.572 6.87 6.87 0 0 1 2.507 6.872 8.65 8.65 0 0 1-3.58 4.797c-1.99.02-3.68-1.273-5.4-2.133-2.91-1.76-6.1-3.66-7.51-6.92-2.08-4.5-1.303-9.567-1.483-14.357-.2-4.53 1.269-9.481 5.159-12.151 4.665-3.308 10.463-4.413 16.166-4.292m-157.883 4.388c-1.11.41-2.547 1.001-2.567 2.411-.49 4.33.897 8.583 2.447 12.573a27.2 27.2 0 0 0 7.004 10.536 64.3 64.3 0 0 0 12.115 7.775c6.84 3.56 13.794 6.858 20.794 10.078a41.6 41.6 0 0 0 7.727 2.954 37.2 37.2 0 0 0 .603-11.73c-.42-3.23-.227-6.643-1.687-9.643-1.52-3.29-4.756-5.233-7.716-7.053-8.18-4.56-16.622-8.686-25.062-12.766-4.42-2-8.808-4.345-13.658-5.135m179.34 14.49c4.278.065 8.534.531 12.694 1.651 3.1.89 6.342 2.11 8.342 4.81.47 2.55-2.023 3.76-4.123 4.05-7.89 1.25-16.032-.828-23.832 1.242-2.69.32-3.47 3.867-6.39 3.617a8.36 8.36 0 0 1-4.002-5.87 44 44 0 0 1 0-5.136 5.9 5.9 0 0 1 4.545-3.568c4.212-.519 8.497-.861 12.766-.796m-119.487 12.97c-.43.86-.846 1.723-1.266 2.593a11.3 11.3 0 0 0 .253 5.087 38 38 0 0 0 6.425 10.488c3.59 4.32 7.552 8.654 12.742 10.994 10.6 1.68 20.462 6.244 30.402 10.114 3.57 1.25 7.01 3.005 10.73 3.785 2.63-5 3.345-10.724 4.725-16.154.42-2.21 1.449-4.859-.181-6.799-2.12-2.18-5.222-2.891-7.992-3.881-10.79-3.25-21.712-6.326-32.512-9.716-6.66-2-13.22-4.332-20-6.052a13.3 13.3 0 0 0-3.326-.458m280.83.652c.42 3.71 2.007 7.699 5.207 9.849.26-3.69-1.885-7.03-4.075-9.85zm-10.983 11.753a14.4 14.4 0 0 0-.663 3.11c-.56 8 .438 15.91 1.628 23.76.34 1.66.51 3.67 2 4.75a3.8 3.8 0 0 0 2.195-.844c2.27-1.49 4.88-3.163 5.34-6.063-.77-5.23-2.678-10.201-4.328-15.201-1.36-3.28-2.633-6.792-5.063-9.512zm-313.426 7.16a50 50 0 0 0 4.003 6.498c6.33 9.13 12.767 18.237 20.167 26.557 1.63 1.52 2.999 3.743 5.389 4.002 4.25-1.87 4.322-7.142 4.002-11.102-.6-3.32-.905-6.838-2.785-9.728-2.11-3-5.36-5.009-8.57-6.679-4.35-2.27-8.83-4.292-13.31-6.292-2.94-1.17-5.776-2.645-8.896-3.255m298.478 3.52c-.656.017-1.346.194-1.892.387a82 82 0 0 0-10.705 5.183c-2 1.15-3.996 3.17-3.496 5.69a80 80 0 0 1 2.206 9.56c.6 3.18.288 6.537 1.688 9.547 2.86-.61 5.743-1.104 8.583-1.784a7.89 7.89 0 0 0 5.183-4.496c1.77-3.86 2.127-8.14 2.387-12.32.06-3.61-.229-7.415-1.989-10.645-.337-.883-1.121-1.141-1.965-1.121m-176.929 1.194c-2.56 3.57-3.122 8-4.122 12.2-.6 2.86-1.571 5.653-1.881 8.583 1.92 2.69 5.278 3.61 8.258 4.58a179.7 179.7 0 0 0 34.633 6.619 93 93 0 0 0 10.138.18 33 33 0 0 0 3.93-1c1.45-2.09 1.363-4.716 1.073-7.136-.44-3.43-.092-6.997-1.362-10.307-1.08-2.72-4.004-4.006-6.594-4.786l-.338-.18c-8.3-2.18-16.754-3.823-25.194-5.413l-.338-.217c-6.09-.88-12.063-2.633-18.203-3.123m142.416 10.38c-.629.006-1.254.055-1.856.12-7.9.87-15.782 2-23.592 3.4-2.73.51-6.33 1.672-6.34 5.002a53.7 53.7 0 0 0 1.109 9.8c.54 2.3 3.131 3.147 5.231 3.087a153.5 153.5 0 0 0 27.763-1.917c2.32-.51 4.787-.828 6.787-2.218l.675-1.241c0-3-1.117-5.774-1.917-8.584-.66-2.01-1.194-4.214-2.604-5.894-1.447-1.245-3.37-1.576-5.256-1.555m-72.16.952a45 45 0 0 0-3.014.048 3.93 3.93 0 0 0-3.423 1.953c-1 2.13-.748 4.557-.808 6.847.07 3-.293 6.059.747 8.909a5.38 5.38 0 0 0 3.894 2.52c5.83 1 11.756.458 17.636.578 4.45-.11 9.08.349 13.37-1.061 2-.72 1.74-3.116 1.47-4.786a85 85 0 0 0-2.857-11.91c-6.97-.99-13.984-1.912-21.024-2.592a45 45 0 0 0-5.991-.506m-144.875 7.209a8 8 0 0 0-1.145.072c-1.33 2.35-.56 5.103-1 7.643-.38 4.28-1.615 8.676-4.485 12.006a3.64 3.64 0 0 0 0 5.16c2.77 3.13 6.316 5.398 9.656 7.848 9.81 6.83 19.691 13.564 29.871 19.854 1.79 1 3.78 2.45 5.92 1.76 1.69-.86 2.684-2.589 3.604-4.159a87.2 87.2 0 0 0 8.113-20.252c.7-3.17 1.52-6.858-.64-9.668-2.1-3-5.897-3.683-9.197-4.533-11.54-3.42-22.347-8.575-33.187-13.465-2.406-1.015-4.868-2.25-7.51-2.266m65.156 23.302a2.83 2.83 0 0 0-2.616 1.712c.06 6.32-.596 12.808-3.616 18.468a60 60 0 0 0-5.799 12.368c-.44 1.62-.923 3.825.567 5.075 1.88 1.64 4.33 2.415 6.63 3.255a275.5 275.5 0 0 0 37.443 9.354c4.14.56 8.298 1.424 12.488 1.194a6.8 6.8 0 0 0 3.002-1.134 11.55 11.55 0 0 0 1.76-5.267 120 120 0 0 0 .711-13.14 57.6 57.6 0 0 0 .17-10.416c-.24-2.18-.703-4.653-2.593-6.003a22 22 0 0 0-7.33-2.785c-6-1.42-11.882-3.18-17.732-5.05l-3.013-.953c-6.4-1.95-12.519-4.731-18.999-6.461a2.8 2.8 0 0 0-1.073-.217m216.53 8.86a27.4 27.4 0 0 0-3.858 5.497c-3.21 5.58-6.271 11.39-7.691 17.72a5.87 5.87 0 0 0 .301 3.147c.45-.06.902-.105 1.362-.145 2.63-5.64 4.896-11.444 7.366-17.154 1.04-2.98 2.63-5.885 2.52-9.065m-21.712 9.318c-.83.19-1.665.403-2.495.603-3.73 3.43-6.273 7.908-8.583 12.368-2.05 4-3.9 8.185-5.69 12.345a8 8 0 0 0-.699 2.893c3 .34 5.944-.721 8.824-1.471 4.47-1.25 9.09-2.441 12.91-5.171a4.22 4.22 0 0 0 1.556-2.267c-2.51-1.27-6.512.705-7.812-2.495-1-5.36 1.789-10.365 2.749-15.515zm-129.83.025c-1.776-.059-2.347 2.42-2.628 3.845a155 155 0 0 0-1.29 20.638c.07 3.18-.002 6.565 1.398 9.475.81 1.52 2.61 1.65 4.099 1.88a148 148 0 0 0 17.998.808c4.38-.08 8.946.389 13.116-1.241 2-1.84 2.399-4.631 2.929-7.161 1.11-6.14 2.703-12.198 3.243-18.408 0-1.54-.385-3.431-1.845-4.231-2.27-1.18-4.887-1.208-7.377-1.338l-.35-.205c-5.33-.09-10.634-.81-15.924-1.41a76.6 76.6 0 0 1-13.007-2.604 2 2 0 0 0-.362-.048m108.638 4.436c-3.95.29-7.669 1.912-11.609 2.302-1.38.24-3.102.072-4.002 1.362-2.95 3.54-4.256 8.075-5.726 12.345-1.05 3.36-2.242 6.653-3.472 9.933a5.7 5.7 0 0 0-.108 2.796 7.7 7.7 0 0 0 2.592.422 71 71 0 0 0 9.68-1.663 9.4 9.4 0 0 0 4.134-2.001c.38-1.21-.3-2.497 0-3.737 1.29-5.86 4.258-11.15 6.908-16.48.81-1.69 1.783-3.36 1.603-5.28m-47.062 2.953c-3.034.039-6.055.422-8.836 1.603-2.29 4.46-3.322 9.385-4.412 14.225l-.386 2.471c-.46 3.33-1.955 7.079-.265 10.26 4.29 1.239 8.876.701 13.236.071 2.23-.47 4.885-.774 6.305-2.784a73.7 73.7 0 0 0 8.004-14.321c1.18-2.76 2.58-5.507 2.82-8.547-.18-.31-.544-.92-.734-1.23-3.25-1.49-6.857-1.283-10.307-1.543-1.774-.124-3.605-.228-5.425-.205m-213.6 10.596a9.7 9.7 0 0 1 3.978.977c8.33 3.27 16.444 7.087 24.544 10.897 20.5 10.06 41.514 19.066 62.854 27.196 10.93 3.9 21.779 8.266 33.199 10.596 10.88 2.14 21.994 2.618 32.994 3.388 6.22.23 12.431.736 18.661.856 7.88.51 15.776.84 23.676 1.12 5.42.56 10.902.19 16.322.76 8.1.15 16.202.405 24.303.085a76.8 76.8 0 0 0 28.172-6.534 75.2 75.2 0 0 0 13.344-7.643c4.3-3.18 7.934-7.267 12.634-9.897l1.241-.53c.27.22.526.435.796.675-5.46 9.06-14.601 15.162-24.061 19.492-10.71 5-22.695 6.422-34.405 6.992-14.09.68-28.21.147-42.3-.313-12.24-.63-24.49-1.131-36.72-2.001-15.97-.89-32.13-1.856-47.52-6.606l-.325-.17c-11.55-3.52-22.9-7.718-34.14-12.138-22.02-8.9-43.81-18.464-64.71-29.764-4.25-2.35-8.637-4.518-12.537-7.438m-27.726.483c3.85 1.05 7.392 2.926 10.982 4.496 11.74 5.68 23.062 12.207 34.802 17.877 19.66 9.56 39.658 18.598 60.468 25.328 6.06 1.93 12.263 3.249 18.443 4.689 13.01 2.89 26.05 5.706 39.13 8.306a434 434 0 0 0 57.49 8.534c10.37.82 20.76 1.326 31.15 1.616 6.17.54 12.38.201 18.54.711 4.55.16 9.094.265 13.634.265 7.92-.02 15.938.358 23.688-1.482 6.55-1.55 12.298-5.177 17.998-8.547 5.25-3.18 10.609-6.175 15.249-10.175a14 14 0 0 0 4.267-6.172c.98-3.33 1.053-6.89 1.543-10.33.95 3.6.678 7.343.808 10.993a10.3 10.3 0 0 1-4.002 8.644c-4.1 3.38-8.734 6.028-13.224 8.848-5.36 3.24-10.672 6.773-16.732 8.583a61.3 61.3 0 0 1-16.082 1.965c-9.98.21-19.92-.081-29.92-.241-7.31-.55-14.651-.182-21.951-.772-13.64-.31-27.238-1.412-40.818-2.592l-.362-.229c-14.08-1.34-28.037-3.809-41.927-6.449-14.25-2.84-28.471-5.814-42.601-9.174a381 381 0 0 1-49.871-17.057 637 637 0 0 1-33.935-15.913c-11.22-5.67-22.494-11.344-33.114-18.094-1.32-1.08-3.303-1.778-3.653-3.628m219.446 40.082c8.39-.001 16.767.1 25.147.35.29.04 2.22.181 1.06.421-3.38-.02-6.735.454-10.125.374-13.38.04-26.775.177-40.155-.133-1.52-.24-3.077-.285-4.617-.385a24.5 24.5 0 0 1 3.52-.338c8.385-.185 16.782-.288 25.17-.29" style="stroke:none;fill:#fff;fill-opacity:1" transform="translate(0 7.738)scale(.16202)"/></g></svg>