<?xml version="1.0" encoding="UTF-8" standalone="no"?>
<!-- Created with Inkscape (http://www.inkscape.org/) -->

<svg
   width="84"
   height="84"
   viewBox="0 0 22.225 22.225002"
   version="1.1"
   id="svg5"
   inkscape:version="1.3.2 (1:1.3.2+202311252150+091e20ef0f)"
   sodipodi:docname="50ae.svg"
   inkscape:export-filename="/home/desktopgeek/Downloads/Ammo emojis/50ae_ammo.png"
   inkscape:export-xdpi="945.23077"
   inkscape:export-ydpi="945.23077"
   xmlns:inkscape="http://www.inkscape.org/namespaces/inkscape"
   xmlns:sodipodi="http://sodipodi.sourceforge.net/DTD/sodipodi-0.dtd"
   xmlns="http://www.w3.org/2000/svg"
   xmlns:svg="http://www.w3.org/2000/svg">
  <sodipodi:namedview
     id="namedview7"
     pagecolor="#505050"
     bordercolor="#ffffff"
     borderopacity="1"
     inkscape:pageshadow="0"
     inkscape:pageopacity="0"
     inkscape:pagecheckerboard="1"
     inkscape:document-units="px"
     showgrid="false"
     units="px"
     inkscape:zoom="6.5156245"
     inkscape:cx="-5.2182258"
     inkscape:cy="-2.2254198"
     inkscape:window-width="2560"
     inkscape:window-height="1368"
     inkscape:window-x="0"
     inkscape:window-y="0"
     inkscape:window-maximized="1"
     inkscape:current-layer="layer1"
     inkscape:showpageshadow="0"
     inkscape:deskcolor="#505050" />
  <defs
     id="defs2">
    <inkscape:path-effect
       effect="spiro"
       id="path-effect2050"
       is_visible="true"
       lpeversion="1" />
    <inkscape:path-effect
       effect="spiro"
       id="path-effect2046"
       is_visible="true"
       lpeversion="1" />
    <inkscape:path-effect
       effect="spiro"
       id="path-effect2050-3"
       is_visible="true"
       lpeversion="1" />
  </defs>
  <g
     inkscape:label="Layer 1"
     inkscape:groupmode="layer"
     id="layer1">
    <g
       id="g1"
       transform="matrix(1.1666667,0,0,1.1666667,-2.764558e-7,3.419232)">
      <rect
         style="fill:#202020;fill-opacity:1;stroke:#000000;stroke-width:0.711814;stroke-linecap:round;stroke-linejoin:round;stroke-miterlimit:10;stroke-opacity:1"
         id="rect846"
         width="18.338186"
         height="12.476645"
         x="0.35590726"
         y="0.35590726"
         ry="1.0990382"
         rx="1.0990382" />
      <g
         aria-label=".50 "
         id="text6858"
         style="font-size:8.41608px;line-height:1.25;font-family:Jura;-inkscape-font-specification:Jura;letter-spacing:0px;word-spacing:0px;fill:#484848;stroke-width:0.210403">
        <path
           d="M 3.2971158,8.2774448 H 4.8120103 V 9.5398569 H 3.2971158 Z"
           style="font-family:'Russo One';-inkscape-font-specification:'Russo One'"
           id="path839" />
        <path
           d="m 8.3467622,9.6240177 q -1.4054855,0 -3.1139498,-0.1683216 V 8.3195252 q 1.8599538,0.1262412 2.7773066,0.1262412 0.1935698,0 0.3029789,-0.109409 Q 8.430923,8.2185323 8.430923,8.0249624 v -0.420804 q 0,-0.5049648 -0.5049648,-0.5049648 H 5.4852948 V 3.6486006 H 9.5250134 V 4.8268518 H 7.0001893 v 1.0940905 h 1.3465729 q 0.8247759,0 1.2119156,0.3787236 0.3871397,0.3703076 0.3871397,1.1361709 v 0.5891256 q 0,0.8247759 -0.3871397,1.2119156 -0.3871397,0.3871397 -1.2119156,0.3871397 z"
           style="font-family:'Russo One';-inkscape-font-specification:'Russo One'"
           id="path841" />
        <path
           d="m 13.901362,5.2476559 q 0,-0.5049649 -0.504964,-0.5049649 h -0.925769 q -0.504965,0 -0.504965,0.5049649 v 2.6931457 q 0,0.5049648 0.504965,0.5049648 h 0.925769 q 0.504964,0 0.504964,-0.5049648 z m 1.514895,2.6931457 q 0,0.8836885 -0.403972,1.2876603 -0.395556,0.3955558 -1.279244,0.3955558 h -1.599055 q -0.883689,0 -1.287661,-0.3955558 Q 10.450769,8.8244901 10.450769,7.9408016 V 5.2476559 q 0,-0.8836885 0.395556,-1.2792443 0.403972,-0.4039718 1.287661,-0.4039718 h 1.599055 q 0.883688,0 1.279244,0.4039718 0.403972,0.3955558 0.403972,1.2792443 z"
           style="font-family:'Russo One';-inkscape-font-specification:'Russo One'"
           id="path843" />
      </g>
      <circle
         style="fill:none;fill-opacity:0.133333;stroke:#484848;stroke-width:0.366346;stroke-linecap:round;stroke-linejoin:round;stroke-miterlimit:4;stroke-dasharray:none;stroke-opacity:1"
         id="path9697"
         cx="16.851919"
         cy="2.1980762"
         r="0.73269218" />
      <circle
         style="fill:none;fill-opacity:1;stroke:#484848;stroke-width:0.366346;stroke-linecap:round;stroke-linejoin:round;stroke-miterlimit:4;stroke-dasharray:none;stroke-opacity:1"
         id="path9697-6"
         cx="16.851919"
         cy="10.990382"
         r="0.73269218" />
      <circle
         style="fill:none;fill-opacity:1;stroke:#484848;stroke-width:0.366346;stroke-linecap:round;stroke-linejoin:round;stroke-miterlimit:4;stroke-dasharray:none;stroke-opacity:1"
         id="path9697-7"
         cx="2.1980762"
         cy="10.990382"
         r="0.73269218" />
      <circle
         style="fill:none;fill-opacity:1;stroke:#484848;stroke-width:0.366346;stroke-linecap:round;stroke-linejoin:round;stroke-miterlimit:4;stroke-dasharray:none;stroke-opacity:1"
         id="path9697-5"
         cx="2.1980762"
         cy="2.1980762"
         r="0.73269218" />
    </g>
  </g>
</svg>
