<svg xmlns="http://www.w3.org/2000/svg" xml:space="preserve" width="84" height="84" viewBox="0 0 22.225 22.225"><defs><clipPath id="Q" clipPathUnits="userSpaceOnUse"><rect width="22.225" height="22.225" ry=".608" style="fill:#d50000;fill-opacity:1;stroke:none;stroke-width:.141;stroke-linecap:round;stroke-linejoin:round;stroke-dasharray:none;stroke-opacity:1"/></clipPath><clipPath id="P" clipPathUnits="userSpaceOnUse"><rect width="22.225" height="22.225" ry=".608" style="fill:#d50000;fill-opacity:1;stroke:none;stroke-width:.141;stroke-linecap:round;stroke-linejoin:round;stroke-dasharray:none;stroke-opacity:1"/></clipPath><clipPath id="O" clipPathUnits="userSpaceOnUse"><rect width="22.225" height="22.225" ry=".608" style="fill:#d50000;fill-opacity:1;stroke:none;stroke-width:.141;stroke-linecap:round;stroke-linejoin:round;stroke-dasharray:none;stroke-opacity:1"/></clipPath><clipPath id="N" clipPathUnits="userSpaceOnUse"><rect width="22.225" height="22.225" ry=".608" style="fill:#d50000;fill-opacity:1;stroke:none;stroke-width:.141;stroke-linecap:round;stroke-linejoin:round;stroke-dasharray:none;stroke-opacity:1"/></clipPath><clipPath id="M" clipPathUnits="userSpaceOnUse"><rect width="22.225" height="22.225" ry=".608" style="fill:#d50000;fill-opacity:1;stroke:none;stroke-width:.141;stroke-linecap:round;stroke-linejoin:round;stroke-dasharray:none;stroke-opacity:1"/></clipPath><clipPath id="L" clipPathUnits="userSpaceOnUse"><rect width="22.225" height="22.225" ry=".608" style="fill:#d50000;fill-opacity:1;stroke:none;stroke-width:.141;stroke-linecap:round;stroke-linejoin:round;stroke-dasharray:none;stroke-opacity:1"/></clipPath><clipPath id="K" clipPathUnits="userSpaceOnUse"><rect width="22.225" height="22.225" ry=".608" style="fill:#d50000;fill-opacity:1;stroke:none;stroke-width:.141;stroke-linecap:round;stroke-linejoin:round;stroke-dasharray:none;stroke-opacity:1"/></clipPath><clipPath id="J" clipPathUnits="userSpaceOnUse"><rect width="22.225" height="22.225" x="-41.723" y=".886" ry=".608" style="fill:#d50000;fill-opacity:1;stroke:none;stroke-width:.141;stroke-linecap:round;stroke-linejoin:round;stroke-dasharray:none;stroke-opacity:1" transform="scale(-1 1)"/></clipPath><clipPath id="I" clipPathUnits="userSpaceOnUse"><rect width="22.225" height="22.225" ry=".608" style="fill:#d50000;fill-opacity:1;stroke:none;stroke-width:.141;stroke-linecap:round;stroke-linejoin:round;stroke-dasharray:none;stroke-opacity:1"/></clipPath><clipPath id="H" clipPathUnits="userSpaceOnUse"><rect width="22.225" height="22.225" ry=".608" style="fill:#d50000;fill-opacity:1;stroke:none;stroke-width:.141;stroke-linecap:round;stroke-linejoin:round;stroke-dasharray:none;stroke-opacity:1"/></clipPath><clipPath id="G" clipPathUnits="userSpaceOnUse"><rect width="22.225" height="22.225" ry=".608" style="fill:#d50000;fill-opacity:1;stroke:none;stroke-width:.141;stroke-linecap:round;stroke-linejoin:round;stroke-dasharray:none;stroke-opacity:1"/></clipPath><clipPath id="F" clipPathUnits="userSpaceOnUse"><rect width="22.225" height="22.225" x="20.229" y=".705" ry=".608" style="fill:#d50000;fill-opacity:1;stroke:none;stroke-width:.141;stroke-linecap:round;stroke-linejoin:round;stroke-dasharray:none;stroke-opacity:1"/></clipPath><clipPath id="E" clipPathUnits="userSpaceOnUse"><rect width="22.225" height="22.225" ry=".608" style="fill:#d50000;fill-opacity:1;stroke:none;stroke-width:.141;stroke-linecap:round;stroke-linejoin:round;stroke-dasharray:none;stroke-opacity:1"/></clipPath><clipPath id="D" clipPathUnits="userSpaceOnUse"><rect width="22.225" height="22.225" ry=".608" style="fill:#d50000;fill-opacity:1;stroke:none;stroke-width:.141;stroke-linecap:round;stroke-linejoin:round;stroke-dasharray:none;stroke-opacity:1"/></clipPath><clipPath id="C" clipPathUnits="userSpaceOnUse"><rect width="22.225" height="22.225" ry=".608" style="fill:#d50000;fill-opacity:1;stroke:none;stroke-width:.141;stroke-linecap:round;stroke-linejoin:round;stroke-dasharray:none;stroke-opacity:1"/></clipPath><clipPath id="B" clipPathUnits="userSpaceOnUse"><rect width="22.225" height="22.225" ry=".608" style="fill:#d50000;fill-opacity:1;stroke:none;stroke-width:.141;stroke-linecap:round;stroke-linejoin:round;stroke-dasharray:none;stroke-opacity:1"/></clipPath><clipPath id="A" clipPathUnits="userSpaceOnUse"><rect width="22.225" height="22.225" ry=".608" style="fill:#d50000;fill-opacity:1;stroke:none;stroke-width:.141;stroke-linecap:round;stroke-linejoin:round;stroke-dasharray:none;stroke-opacity:1"/></clipPath><clipPath id="z" clipPathUnits="userSpaceOnUse"><rect width="22.225" height="22.225" ry=".608" style="fill:#d50000;fill-opacity:1;stroke:none;stroke-width:.141;stroke-linecap:round;stroke-linejoin:round;stroke-dasharray:none;stroke-opacity:1"/></clipPath><clipPath id="y" clipPathUnits="userSpaceOnUse"><rect width="22.225" height="22.225" ry=".608" style="fill:#d50000;fill-opacity:1;stroke:none;stroke-width:.141;stroke-linecap:round;stroke-linejoin:round;stroke-dasharray:none;stroke-opacity:1"/></clipPath><clipPath id="x" clipPathUnits="userSpaceOnUse"><rect width="22.225" height="22.225" ry=".608" style="fill:#d50000;fill-opacity:1;stroke:none;stroke-width:.141;stroke-linecap:round;stroke-linejoin:round;stroke-dasharray:none;stroke-opacity:1"/></clipPath><clipPath id="w" clipPathUnits="userSpaceOnUse"><rect width="22.225" height="22.225" ry=".608" style="fill:#d50000;fill-opacity:1;stroke:none;stroke-width:.141;stroke-linecap:round;stroke-linejoin:round;stroke-dasharray:none;stroke-opacity:1"/></clipPath><clipPath id="v" clipPathUnits="userSpaceOnUse"><rect width="22.225" height="22.225" ry=".608" style="fill:#d50000;fill-opacity:1;stroke:none;stroke-width:.141;stroke-linecap:round;stroke-linejoin:round;stroke-dasharray:none;stroke-opacity:1"/></clipPath><clipPath id="u" clipPathUnits="userSpaceOnUse"><rect width="22.225" height="22.225" ry=".608" style="fill:#d50000;fill-opacity:1;stroke:none;stroke-width:.141;stroke-linecap:round;stroke-linejoin:round;stroke-dasharray:none;stroke-opacity:1"/></clipPath><clipPath id="t" clipPathUnits="userSpaceOnUse"><rect width="22.225" height="22.225" ry=".608" style="fill:#d50000;fill-opacity:1;stroke:none;stroke-width:.141;stroke-linecap:round;stroke-linejoin:round;stroke-dasharray:none;stroke-opacity:1"/></clipPath><clipPath id="s" clipPathUnits="userSpaceOnUse"><rect width="22.225" height="22.225" ry=".608" style="fill:#d50000;fill-opacity:1;stroke:none;stroke-width:.141;stroke-linecap:round;stroke-linejoin:round;stroke-dasharray:none;stroke-opacity:1"/></clipPath><clipPath id="r" clipPathUnits="userSpaceOnUse"><rect width="22.225" height="22.225" ry=".608" style="fill:#d50000;fill-opacity:1;stroke:none;stroke-width:.141;stroke-linecap:round;stroke-linejoin:round;stroke-dasharray:none;stroke-opacity:1"/></clipPath><clipPath id="q" clipPathUnits="userSpaceOnUse"><rect width="22.225" height="22.225" ry=".608" style="fill:#d50000;fill-opacity:1;stroke:none;stroke-width:.141;stroke-linecap:round;stroke-linejoin:round;stroke-dasharray:none;stroke-opacity:1"/></clipPath><clipPath id="p" clipPathUnits="userSpaceOnUse"><rect width="22.225" height="22.225" ry=".608" style="fill:#d50000;fill-opacity:1;stroke:none;stroke-width:.141;stroke-linecap:round;stroke-linejoin:round;stroke-dasharray:none;stroke-opacity:1"/></clipPath><clipPath id="o" clipPathUnits="userSpaceOnUse"><rect width="22.225" height="22.225" ry=".608" style="fill:#d50000;fill-opacity:1;stroke:none;stroke-width:.141;stroke-linecap:round;stroke-linejoin:round;stroke-dasharray:none;stroke-opacity:1"/></clipPath><clipPath id="n" clipPathUnits="userSpaceOnUse"><rect width="22.225" height="22.225" ry=".608" style="fill:#d50000;fill-opacity:1;stroke:none;stroke-width:.141;stroke-linecap:round;stroke-linejoin:round;stroke-dasharray:none;stroke-opacity:1"/></clipPath><clipPath id="m" clipPathUnits="userSpaceOnUse"><rect width="22.225" height="22.225" ry=".608" style="fill:#d50000;fill-opacity:1;stroke:none;stroke-width:.141;stroke-linecap:round;stroke-linejoin:round;stroke-dasharray:none;stroke-opacity:1"/></clipPath><clipPath id="l" clipPathUnits="userSpaceOnUse"><rect width="22.225" height="22.225" ry=".608" style="fill:#d50000;fill-opacity:1;stroke:none;stroke-width:.141;stroke-linecap:round;stroke-linejoin:round;stroke-dasharray:none;stroke-opacity:1"/></clipPath><clipPath id="k" clipPathUnits="userSpaceOnUse"><rect width="22.225" height="22.225" ry=".608" style="fill:#d50000;fill-opacity:1;stroke:none;stroke-width:.141;stroke-linecap:round;stroke-linejoin:round;stroke-dasharray:none;stroke-opacity:1"/></clipPath><clipPath id="j" clipPathUnits="userSpaceOnUse"><rect width="22.225" height="22.225" ry=".608" style="fill:#d50000;fill-opacity:1;stroke:none;stroke-width:.141;stroke-linecap:round;stroke-linejoin:round;stroke-dasharray:none;stroke-opacity:1"/></clipPath><clipPath id="i" clipPathUnits="userSpaceOnUse"><rect width="22.225" height="22.225" ry=".608" style="fill:#d50000;fill-opacity:1;stroke:none;stroke-width:.141;stroke-linecap:round;stroke-linejoin:round;stroke-dasharray:none;stroke-opacity:1"/></clipPath><clipPath id="h" clipPathUnits="userSpaceOnUse"><rect width="22.225" height="22.225" ry=".608" style="fill:#d50000;fill-opacity:1;stroke:none;stroke-width:.141;stroke-linecap:round;stroke-linejoin:round;stroke-dasharray:none;stroke-opacity:1"/></clipPath><clipPath id="g" clipPathUnits="userSpaceOnUse"><rect width="22.225" height="22.225" ry=".608" style="fill:#d50000;fill-opacity:1;stroke:none;stroke-width:.141;stroke-linecap:round;stroke-linejoin:round;stroke-dasharray:none;stroke-opacity:1"/></clipPath><clipPath id="f" clipPathUnits="userSpaceOnUse"><rect width="22.225" height="22.225" ry=".608" style="fill:#d50000;fill-opacity:1;stroke:none;stroke-width:.141;stroke-linecap:round;stroke-linejoin:round;stroke-dasharray:none;stroke-opacity:1"/></clipPath><clipPath id="e" clipPathUnits="userSpaceOnUse"><rect width="22.225" height="22.225" ry=".608" style="fill:#d50000;fill-opacity:1;stroke:none;stroke-width:.141;stroke-linecap:round;stroke-linejoin:round;stroke-dasharray:none;stroke-opacity:1"/></clipPath><clipPath id="d" clipPathUnits="userSpaceOnUse"><rect width="22.225" height="22.225" ry=".608" style="fill:#d50000;fill-opacity:1;stroke:none;stroke-width:.141;stroke-linecap:round;stroke-linejoin:round;stroke-dasharray:none;stroke-opacity:1"/></clipPath><clipPath id="c" clipPathUnits="userSpaceOnUse"><rect width="22.225" height="22.225" x="20.849" ry=".608" style="fill:#d50000;fill-opacity:1;stroke:none;stroke-width:.141;stroke-linecap:round;stroke-linejoin:round;stroke-dasharray:none;stroke-opacity:1"/></clipPath><clipPath id="b" clipPathUnits="userSpaceOnUse"><rect width="22.225" height="22.225" ry=".608" style="fill:#d50000;fill-opacity:1;stroke:none;stroke-width:.141;stroke-linecap:round;stroke-linejoin:round;stroke-dasharray:none;stroke-opacity:1"/></clipPath><clipPath id="a" clipPathUnits="userSpaceOnUse"><rect width="22.225" height="22.225" ry=".608" style="fill:#d50000;fill-opacity:1;stroke:none;stroke-width:.141;stroke-linecap:round;stroke-linejoin:round;stroke-dasharray:none;stroke-opacity:1"/></clipPath></defs><path d="m4.385 6.354-.365.367-.9-1.674-.042-2.058c.107-.328.163-.666.445-.959-.084.32-.027.64.111.96C3.794 1.8 5.49.897 7.208 0h7.821l.226.192c.303-.146.629-.058.949-.03-.088.044-.19.082-.216.153 1.803.118 2.59 2.554 3.664 4.315h-.421l.254.528c-.4.565-.342.712-.487 1.043l-2.947-.973Z" clip-path="url(#a)" style="fill:#181818;fill-opacity:1;stroke:none;stroke-width:.141;stroke-linecap:round;stroke-linejoin:round;stroke-dasharray:none;stroke-opacity:1"/><path d="m6.304 4.213.806-1.21 1.001.056.167-.57.348.417.403-.25 1.418.57 2.308.612.056 1.293-6.396.403z" clip-path="url(#b)" style="fill:#0c0c0c;fill-opacity:1;stroke:none;stroke-width:.141;stroke-linecap:round;stroke-linejoin:round;stroke-dasharray:none;stroke-opacity:1"/><g clip-path="url(#c)" transform="translate(-20.85)"><path d="M39.822 6.215c.094 1.322-.08 2.377-.153 3.532-.752-.369-.755.743-1.04 1.365-.091.122-.32.06-.448 0-.006-.59-.017-1.179-.097-1.768-.288-.487-.6-.958-1.07-1.335a352 352 0 0 0-.084-2.698c.472-.282.868-.216 1.418-.18l-.487.153c.776.218 1.48.491 1.96.931" style="fill:#cfcfcf;fill-opacity:1;stroke:#767676;stroke-width:.141;stroke-linecap:round;stroke-linejoin:round;stroke-dasharray:none;stroke-opacity:1"/><path d="m39.627 7.472-.978-.654.84.163M37.806 7.105l.89.299-.355.139.306.195" style="fill:none;fill-opacity:1;stroke:#767676;stroke-width:.141;stroke-linecap:round;stroke-linejoin:round;stroke-dasharray:none;stroke-opacity:1"/></g><path d="M4.478 10.205 4.026 6.42c.251-.309.52-.175.67-.078Z" clip-path="url(#d)" style="fill:#cfcfcf;fill-opacity:1;stroke:#767676;stroke-width:.141;stroke-linecap:round;stroke-linejoin:round;stroke-dasharray:none;stroke-opacity:1"/><path d="m6.076 22.225-.584-3.718-.375-3.268c-1.172-.843-1.466-2.504-1.126-4.755l.528-.237.028-1.098.116-3.67 1.669-1.192 2.517.708.432-.335.472.335 3.46-1.14 2.97 1.199-.04 2.85 1.141 1.476.003 1.732c.045-.086.491-.061.538-.155.344-.685.365-1.61 1.013-1.302l.545.523c-.054 1.376-.057 4.21-1.085 5.061l.5 6.986h-4.463z" clip-path="url(#e)" style="fill:#f3bf9a;fill-opacity:1;stroke-width:.241;stroke-linecap:round;stroke-linejoin:round"/><path d="M11.417 14.964c-.645.467-2.025 1.152-2.329-.089 1.519.562 1.356-.514 2.329.089" clip-path="url(#f)" style="fill:#af7060;fill-opacity:1;stroke:none;stroke-width:.141;stroke-linecap:round;stroke-linejoin:round;stroke-dasharray:none;stroke-opacity:1"/><path d="M9.538 18.507a5.8 5.8 0 0 1 1.502 0c-.606.629-1.107.476-1.502 0" clip-path="url(#g)" style="fill:#af785a;fill-opacity:1;stroke-width:.241;stroke-linecap:round;stroke-linejoin:round"/><path d="M10.29 21.677v.34" clip-path="url(#h)" style="fill:none;fill-opacity:1;stroke-width:.241;stroke-linecap:round;stroke-linejoin:round;stroke:#af785a;stroke-opacity:1"/><path d="m17.166 13.017-1.474 1.908-.315 3.166-.787 1.573" clip-path="url(#i)" style="fill:none;fill-opacity:1;stroke:#af785a;stroke-width:.241;stroke-linecap:round;stroke-linejoin:round;stroke-opacity:1"/><path d="m6.813 19.563-.779-2.127-.18-2.016-1.07-2.35" clip-path="url(#j)" style="fill:none;fill-opacity:1;stroke:#af785a;stroke-width:.241;stroke-linecap:round;stroke-linejoin:round;stroke-opacity:1"/><path d="m4.783 13.07-.042-2.044-.222-.779.144-4.769" clip-path="url(#k)" style="fill:none;fill-opacity:1;stroke:#af785a;stroke-width:.241;stroke-linecap:round;stroke-linejoin:round;stroke-opacity:1"/><path d="m17.658 15.406.64-.167.131 3.378c-.178-.086.031-.314-.786-.167l-1.89 3.784h-1.512l3.223-4.297z" clip-path="url(#l)" style="fill:#99604e;fill-opacity:1;stroke:none;stroke-width:.141;stroke-linecap:round;stroke-linejoin:round;stroke-dasharray:none;stroke-opacity:1"/><path d="m13.764 22.667 3.7-4.73.194-2.531.64-.167c1.086-1.773 1.135-3.25 1.085-5.061-.4-.534-.551-.522-1.168-.445l-.39 1.224-.538.155V9.345l-1.13-1.502.055-2.53" clip-path="url(#m)" style="fill:none;fill-opacity:1;stroke:#af785a;stroke-width:.241;stroke-linecap:round;stroke-linejoin:round;stroke-opacity:1"/><path d="m18.298 15.24.5 6.985" clip-path="url(#n)" style="fill:none;fill-opacity:1;stroke:#af785a;stroke-width:.241;stroke-linecap:round;stroke-linejoin:round;stroke-opacity:1"/><path d="M7.55 22.225h-.456l-1.243-2.5.073-.44z" clip-path="url(#o)" style="fill:#99604e;fill-opacity:1;stroke:none;stroke-width:.141;stroke-linecap:round;stroke-linejoin:round;stroke-dasharray:none;stroke-opacity:1"/><path d="m5.073 13.707.079 1.788.314 2.963 2.814 4.825" clip-path="url(#p)" style="fill:none;fill-opacity:1;stroke:#af785a;stroke-width:.241;stroke-linecap:round;stroke-linejoin:round;stroke-opacity:1"/><path d="m5.798 19.132.278 3.093" clip-path="url(#q)" style="fill:none;fill-opacity:1;stroke:#af785a;stroke-width:.241;stroke-linecap:round;stroke-linejoin:round;stroke-opacity:1"/><path d="m4.519 10.247-.528.237c-.484 2.517.164 3.858 1.16 5.011" clip-path="url(#r)" style="fill:none;fill-opacity:1;stroke:#af785a;stroke-width:.241;stroke-linecap:round;stroke-linejoin:round;stroke-opacity:1"/><path d="m16.212 5.311-.07-.361-2.752-1.001a3.4 3.4 0 0 0-.765.028L9.691 5.019c-.43-.306-.488-.289-.709 0L6.34 4.296 4.663 5.478" clip-path="url(#s)" style="fill:none;fill-opacity:1;stroke:#af785a;stroke-width:.241;stroke-linecap:round;stroke-linejoin:round;stroke-opacity:1"/><path d="M10.348 14.95a.77.77 0 0 1 .88-.11c-.272.193-.553.257-.88.11" clip-path="url(#t)" style="fill:#4a2c25;fill-opacity:1;stroke:none;stroke-width:.141;stroke-linecap:round;stroke-linejoin:round;stroke-dasharray:none;stroke-opacity:1"/><path d="M9.157 14.899c.17.365.445.351.666.198z" clip-path="url(#u)" style="fill:#4a2c25;fill-opacity:1;stroke:none;stroke-width:.141;stroke-linecap:round;stroke-linejoin:round;stroke-dasharray:none;stroke-opacity:1"/><path d="m8.85 9.89.57.807-.294 1.357.098 2.713c.95.956 1.218-.597 2.193.197l-.06-.718" clip-path="url(#v)" style="fill:none;fill-opacity:1;stroke:#af785a;stroke-width:.141;stroke-linecap:round;stroke-linejoin:round;stroke-dasharray:none;stroke-opacity:1"/><path d="M5.329 9.96c.218-.388.22-.796.806-1.15.758.234 1.547.357 2.416.186l.362.89c-1.01-.093-1.94.097-3.031-.278Z" clip-path="url(#w)" style="fill:#000;fill-opacity:1;stroke:none;stroke-width:.241;stroke-linecap:round;stroke-linejoin:round;stroke-opacity:1"/><path d="M10.65 8.968c1.068-.067 1.977-.426 3.004-.778.228.066.663.442 1.265 1.098l-.45-.18c-1.217.538-2.583.874-3.356.667z" clip-path="url(#x)" style="fill:#000;fill-opacity:1;stroke:none;stroke-width:.241;stroke-linecap:round;stroke-linejoin:round;stroke-opacity:1"/><path d="m7.3 18.34.25-1.627c.25-.364.418-.744 1.238-1.001l.75.014c.33.252.67.161 1.001.041l.501-.278c2.084-.057 2.777 1.933 2.823 2.892l-1.307-.68-4.297.027z" clip-path="url(#y)" style="fill:#000;fill-opacity:1;stroke:none;stroke-width:.241;stroke-linecap:round;stroke-linejoin:round;stroke-opacity:1"/><path d="m19.13 10.369-.404.007c-.46.968-.585 1.504-.078 2.45l.452-.462c-.237-.533-.295-.632.084-1.028z" clip-path="url(#z)" style="fill:#af7060;fill-opacity:1;stroke:none;stroke-width:.241;stroke-linecap:round;stroke-linejoin:round;stroke-opacity:1"/><path d="m4.124 10.908.158.448c.208.571.275 1.16.142 1.676l.15.65-.445-.773c.162-.417.091-.765-.103-1.081-.024-.356.033-.641.098-.92" clip-path="url(#A)" style="fill:#af7060;fill-opacity:1;stroke:none;stroke-width:.241;stroke-linecap:round;stroke-linejoin:round;stroke-opacity:1"/><path d="m9.538 8.648-.017.755" clip-path="url(#B)" style="fill:none;fill-opacity:1;stroke:#af785a;stroke-width:.241;stroke-linecap:round;stroke-linejoin:round;stroke-opacity:1"/><path d="M7.54 10.235c.358-.157.715-.315 1.328-.216.323.087.336.398.535.634-1.02-.372-1.256-.13-1.813-.035Z" clip-path="url(#C)" style="fill:#af785a;fill-opacity:1;stroke:none;stroke-width:.141;stroke-linecap:round;stroke-linejoin:round;stroke-dasharray:none;stroke-opacity:1"/><path d="M8.71 10.727c.035.151-.087.258-.135.385-.815.04-1.846.282-2.352-.267l.472-.58 1.8-.01z" clip-path="url(#D)" style="fill:#f5f5f5;fill-opacity:1;stroke:none;stroke-width:.141;stroke-linecap:round;stroke-linejoin:round;stroke-dasharray:none;stroke-opacity:1"/><path d="m6.223 10.845.472-.58 1.8-.01.216.472" clip-path="url(#E)" style="fill:none;fill-opacity:1;stroke:#000;stroke-width:.141;stroke-linecap:round;stroke-linejoin:round;stroke-dasharray:none;stroke-opacity:1"/><g clip-path="url(#F)" transform="translate(-20.23 -.705)"><ellipse cx="28.05" cy="11.459" rx=".433" ry=".42" style="fill:#719687;fill-opacity:1;stroke:none;stroke-width:.141;stroke-linecap:round;stroke-linejoin:round;stroke-dasharray:none;stroke-opacity:1"/><circle cx="28.05" cy="11.459" r=".113" style="fill:#000;fill-opacity:1;stroke:none;stroke-width:.141;stroke-linecap:round;stroke-linejoin:round;stroke-dasharray:none;stroke-opacity:1"/></g><path d="M13.324 9.886c-.531-.055-1.045-.022-1.558.014-.421.145-.465.343-.653.521.072.104.198.121.507.042.462-.295 1.189-.167 1.669-.16z" clip-path="url(#G)" style="fill:#af785a;fill-opacity:1;stroke:none;stroke-width:.141;stroke-linecap:round;stroke-linejoin:round;stroke-dasharray:none;stroke-opacity:1"/><path d="M12.307 10.546c-.035.151.088.258.135.386.799.023 1.771.23 2.352-.268l-.472-.58-1.799-.01z" clip-path="url(#H)" style="fill:#f5f5f5;fill-opacity:1;stroke:none;stroke-width:.141;stroke-linecap:round;stroke-linejoin:round;stroke-dasharray:none;stroke-opacity:1"/><path d="m14.794 10.664-.472-.58-1.799-.01-.216.472" clip-path="url(#I)" style="fill:none;fill-opacity:1;stroke:#000;stroke-width:.141;stroke-linecap:round;stroke-linejoin:round;stroke-dasharray:none;stroke-opacity:1"/><g clip-path="url(#J)" transform="matrix(-1 0 0 1 41.723 -.886)"><ellipse cx="28.05" cy="11.459" rx=".433" ry=".42" style="fill:#719687;fill-opacity:1;stroke:none;stroke-width:.141;stroke-linecap:round;stroke-linejoin:round;stroke-dasharray:none;stroke-opacity:1"/><circle cx="28.05" cy="11.459" r=".113" style="fill:#000;fill-opacity:1;stroke:none;stroke-width:.141;stroke-linecap:round;stroke-linejoin:round;stroke-dasharray:none;stroke-opacity:1"/></g><ellipse cx="7.467" cy="10.55" clip-path="url(#K)" rx=".103" ry=".092" style="fill:#f5f5f5;fill-opacity:1;stroke:none;stroke-width:.141;stroke-linecap:round;stroke-linejoin:round;stroke-dasharray:none;stroke-opacity:1"/><ellipse cx="13.337" cy="10.369" clip-path="url(#L)" rx=".103" ry=".092" style="fill:#f5f5f5;fill-opacity:1;stroke:none;stroke-width:.141;stroke-linecap:round;stroke-linejoin:round;stroke-dasharray:none;stroke-opacity:1"/><path d="M9.312 14.884c-.101-.014-.204.033-.238-.011-.075-.099-.06-.452-.085-.693" clip-path="url(#M)" style="fill:none;fill-opacity:1;stroke:#af785a;stroke-width:.141;stroke-linecap:round;stroke-linejoin:round;stroke-dasharray:none;stroke-opacity:1"/><path d="m8.728 11.374-.611.333" clip-path="url(#N)" style="fill:none;fill-opacity:1;stroke:#af785a;stroke-width:.141;stroke-linecap:round;stroke-linejoin:round;stroke-dasharray:none;stroke-opacity:1"/><path d="m12.177 11.235.598.278" clip-path="url(#O)" style="fill:none;fill-opacity:1;stroke:#af785a;stroke-width:.141;stroke-linecap:round;stroke-linejoin:round;stroke-dasharray:none;stroke-opacity:1"/><path d="M11.308 10.477c-.281.147-.175.405-.077.66" clip-path="url(#P)" style="fill:none;fill-opacity:1;stroke:#af785a;stroke-width:.141;stroke-linecap:round;stroke-linejoin:round;stroke-dasharray:none;stroke-opacity:1"/><path d="m16.34 20.244-.865 1.981" clip-path="url(#Q)" style="fill:none;fill-opacity:1;stroke:#af785a;stroke-width:.141;stroke-linecap:round;stroke-linejoin:round;stroke-dasharray:none;stroke-opacity:1"/></svg>