<?xml version="1.0" encoding="UTF-8" standalone="no"?>
<svg
   width="84"
   height="84"
   viewBox="0 0 22.224999 22.225"
   version="1.1"
   id="svg8"
   inkscape:version="1.3 (0e150ed6c4, 2023-07-21)"
   sodipodi:docname="chicken.svg"
   xmlns:inkscape="http://www.inkscape.org/namespaces/inkscape"
   xmlns:sodipodi="http://sodipodi.sourceforge.net/DTD/sodipodi-0.dtd"
   xmlns="http://www.w3.org/2000/svg"
   xmlns:svg="http://www.w3.org/2000/svg"
   xmlns:rdf="http://www.w3.org/1999/02/22-rdf-syntax-ns#"
   xmlns:cc="http://creativecommons.org/ns#"
   xmlns:dc="http://purl.org/dc/elements/1.1/">
  <defs
     id="defs2">
    <inkscape:path-effect
       effect="bspline"
       id="path-effect492"
       is_visible="true"
       lpeversion="1"
       weight="33.333333"
       steps="2"
       helper_size="0"
       apply_no_weight="true"
       apply_with_weight="true"
       only_selected="false" />
    <inkscape:path-effect
       effect="bspline"
       id="path-effect488"
       is_visible="true"
       lpeversion="1"
       weight="33.333333"
       steps="2"
       helper_size="0"
       apply_no_weight="true"
       apply_with_weight="true"
       only_selected="false" />
    <inkscape:path-effect
       effect="bspline"
       id="path-effect484"
       is_visible="true"
       lpeversion="1"
       weight="33.333333"
       steps="2"
       helper_size="0"
       apply_no_weight="true"
       apply_with_weight="true"
       only_selected="false" />
    <inkscape:path-effect
       effect="bspline"
       id="path-effect480"
       is_visible="true"
       lpeversion="1"
       weight="33.333333"
       steps="2"
       helper_size="0"
       apply_no_weight="true"
       apply_with_weight="true"
       only_selected="false" />
    <inkscape:path-effect
       effect="bspline"
       id="path-effect476"
       is_visible="true"
       lpeversion="1"
       weight="33.333333"
       steps="2"
       helper_size="0"
       apply_no_weight="true"
       apply_with_weight="true"
       only_selected="false" />
    <inkscape:path-effect
       effect="bspline"
       id="path-effect468"
       is_visible="true"
       lpeversion="1"
       weight="33.333333"
       steps="2"
       helper_size="0"
       apply_no_weight="true"
       apply_with_weight="true"
       only_selected="false" />
    <inkscape:path-effect
       effect="bspline"
       id="path-effect368"
       is_visible="true"
       lpeversion="1"
       weight="33.333333"
       steps="2"
       helper_size="0"
       apply_no_weight="true"
       apply_with_weight="true"
       only_selected="false" />
    <inkscape:path-effect
       effect="bspline"
       id="path-effect310"
       is_visible="true"
       lpeversion="1"
       weight="33.333333"
       steps="2"
       helper_size="0"
       apply_no_weight="true"
       apply_with_weight="true"
       only_selected="false" />
  </defs>
  <sodipodi:namedview
     id="base"
     pagecolor="#ffffff"
     bordercolor="#666666"
     borderopacity="1.0"
     inkscape:pageopacity="0.0"
     inkscape:pageshadow="2"
     inkscape:zoom="6.5619509"
     inkscape:cx="35.279142"
     inkscape:cy="42.213056"
     inkscape:document-units="mm"
     inkscape:current-layer="layer1"
     inkscape:document-rotation="0"
     showgrid="false"
     fit-margin-top="0"
     fit-margin-left="0"
     fit-margin-right="0"
     fit-margin-bottom="0"
     inkscape:window-width="1440"
     inkscape:window-height="829"
     inkscape:window-x="0"
     inkscape:window-y="0"
     inkscape:window-maximized="1"
     units="px"
     inkscape:showpageshadow="2"
     inkscape:pagecheckerboard="0"
     inkscape:deskcolor="#d1d1d1" />
  <metadata
     id="metadata5">
    <rdf:RDF>
      <cc:Work
         rdf:about="">
        <dc:format>image/svg+xml</dc:format>
        <dc:type
           rdf:resource="http://purl.org/dc/dcmitype/StillImage" />
        <dc:title />
      </cc:Work>
    </rdf:RDF>
  </metadata>
  <g
     inkscape:label="Layer 1"
     inkscape:groupmode="layer"
     id="layer1"
     transform="translate(-49.300326,-39.581216)">
    <g
       inkscape:label="Layer 1"
       id="layer1-9"
       transform="matrix(0.18026623,0,0,0.18023736,41.313072,30.961576)"
       style="stroke-width:1.00994">
      <path
         style="fill:#b67535;fill-opacity:1;stroke:#7b4f24;stroke-width:2.82782;stroke-linecap:round;stroke-linejoin:round;stroke-miterlimit:10;stroke-dasharray:none;stroke-opacity:1"
         d="m 93.603257,78.989726 c 1.879867,0.177352 3.724261,0.390167 6.313552,0.993182 2.589291,0.603015 5.923321,1.59613 8.973691,2.73118 3.05037,1.135051 5.8169,2.411911 8.15788,3.653366 2.34097,1.241455 4.25627,2.447384 6.34896,4.008067 2.09269,1.560683 4.36266,3.475972 7.23568,6.384498 2.87301,2.908526 6.34891,6.810051 8.61893,9.505731 2.27002,2.69568 3.33407,4.18535 4.22075,6.02977 0.88668,1.84442 1.59605,4.04346 2.05712,5.9588 0.46107,1.91534 0.67387,3.54688 0.70932,5.56862 0.0354,2.02174 -0.10644,4.43359 -0.28365,5.63942 -0.17721,1.20582 -0.39002,1.20582 -15.5711,1.24129 -15.18107,0.0355 -45.329211,0.10641 -60.54546,0.14188 -15.216249,0.0355 -15.499996,0.0355 -15.677435,-0.10625 -0.177439,-0.14172 -0.248376,-0.42547 -0.354819,-2.62462 -0.106443,-2.19914 -0.248317,-6.31348 -0.106455,-10.03779 0.141861,-3.72431 0.567484,-7.05835 1.276865,-10.49891 0.709381,-3.44056 1.702496,-6.9874 3.475988,-10.392536 1.773491,-3.405138 4.327215,-6.66823 7.590467,-9.470354 3.263251,-2.802125 7.235713,-5.14304 10.99554,-6.597272 3.759828,-1.454232 7.306668,-2.021727 10.037841,-2.234512 2.731174,-0.212786 4.646469,-0.07091 6.526335,0.10644 z"
         id="path366"
         inkscape:path-effect="#path-effect368"
         inkscape:original-d="m 93.63844,78.954229 c 1.844657,0.21308 3.689051,0.425895 5.533179,0.638445 3.334431,0.993418 6.668461,1.986534 10.002291,2.979404 2.76691,1.277179 5.53344,2.554039 8.29977,3.830664 1.91563,1.206238 3.83093,2.412164 5.74599,3.617849 2.27034,1.915634 4.54031,3.830926 6.81007,5.745994 3.47631,3.901945 6.95221,7.803465 10.42792,11.704805 1.06436,1.49 2.12841,2.97967 3.19222,4.46911 0.70966,2.19939 1.41903,4.39843 2.12815,6.59725 0.21308,1.63188 0.42589,3.26342 0.63844,4.89474 -0.14162,2.41221 -0.28349,4.82406 -0.42563,7.23569 -0.21256,2.7e-4 -0.42537,2.7e-4 -0.63844,0 -30.14908,0.0712 -60.29722,0.14215 -90.446223,0.21282 -0.283496,2.6e-4 -0.567243,2.6e-4 -0.85126,0 -0.07068,-0.28349 -0.141611,-0.56724 -0.212815,-0.85126 -0.141613,-4.11423 -0.283488,-8.22857 -0.425628,-12.34325 0.4259,-3.33389 0.851522,-6.66793 1.276888,-10.00228 0.993417,-3.54672 1.986534,-7.09356 2.979404,-10.640736 2.554091,-3.26296 5.107815,-6.526051 7.661327,-9.789474 3.972883,-2.340743 7.945345,-4.681657 11.917619,-7.022883 3.547245,-0.567251 7.094085,-1.134745 10.640732,-1.702517 1.915634,0.142144 3.830929,0.284017 5.745996,0.425629 z" />
      <path
         style="fill:#b4b4b4;fill-opacity:1;stroke:#6f6f6f;stroke-width:2.82782;stroke-linecap:round;stroke-linejoin:round;stroke-miterlimit:10;stroke-dasharray:none;stroke-opacity:1"
         d="m 146.59378,139.39364 c -0.53202,0.70935 -1.31234,1.63155 -2.34091,2.48278 -1.02857,0.85123 -2.30543,1.63153 -3.61772,2.05718 -1.31228,0.42565 -2.66007,0.49659 -3.83056,0.53206 -1.17049,0.0355 -2.1636,0.0355 -14.96819,-0.0355 -12.8046,-0.0709 -37.41966,-0.21281 -50.224004,-0.35467 -12.804344,-0.14186 -13.797456,-0.28373 -14.755132,-0.70928 -0.957676,-0.42554 -1.879855,-1.13491 -2.69566,-1.80882 -0.815805,-0.6739 -1.525173,-1.31234 -2.02185,-2.30272 -0.496677,-0.99038 -0.780418,-2.33268 14.471705,-2.65206 15.252124,-0.31937 46.038691,0.38452 61.822431,0.70099 15.78375,0.31647 16.56405,0.24553 17.27347,0.24556 0.70942,2e-5 1.34785,0.071 1.52502,0.35475 0.17717,0.28378 -0.10658,0.78034 -0.6386,1.48969 z"
         id="path490"
         inkscape:path-effect="#path-effect492"
         inkscape:original-d="m 146.8421,139.18077 c -0.78006,0.92246 -1.56038,1.84466 -2.34096,2.76659 -1.27665,0.7806 -2.55351,1.56091 -3.83067,2.34096 -1.34759,0.0712 -2.69538,0.14214 -4.04347,0.21282 -0.9929,2.6e-4 -1.98601,2.6e-4 -2.97941,0 -24.61579,-0.14162 -49.230852,-0.28349 -73.846677,-0.42563 -0.992892,-0.14162 -1.986005,-0.28349 -2.979405,-0.42563 -0.921951,-0.70913 -1.844129,-1.4185 -2.766591,-2.12815 -0.709131,-0.63819 -1.4185,-1.27662 -2.128147,-1.91533 -0.283493,-1.34211 -0.567234,-2.68441 -0.851257,-4.02705 30.788064,0.70419 61.574627,1.40808 92.361547,2.11172 0.7806,-0.0707 1.56091,-0.14161 2.34097,-0.21282 0.63872,0.0712 1.27715,0.14214 1.91533,0.21282 -0.2835,0.49684 -0.56725,0.9934 -0.85126,1.4897 z"
         sodipodi:nodetypes="cccccccccccccc" />
      <path
         style="fill:#b67535;fill-opacity:1;stroke:#7b4f24;stroke-width:2.82782;stroke-linecap:round;stroke-linejoin:round;stroke-miterlimit:10;stroke-dasharray:none;stroke-opacity:1"
         d="m 75.514919,106.40321 c 1.418786,-0.81579 3.546932,-1.95081 5.639683,-2.73113 2.092751,-0.78032 4.149918,-1.20594 5.994373,-1.3123 1.844455,-0.10636 3.476003,0.10645 4.469061,0.63863 0.993058,0.53219 1.347742,1.38342 1.312176,2.4829 -0.03557,1.09948 -0.461187,2.44728 -1.064168,3.79508 -0.602981,1.3478 -1.383286,2.6956 -2.09265,3.6887 -0.709364,0.9931 -1.347794,1.63153 -1.063909,2.66029 0.283885,1.02876 1.489812,2.4475 2.163621,3.79534 0.673809,1.34784 0.815683,2.6247 0.993033,4.07895 0.177351,1.45425 0.390161,3.0858 0.49655,4.29174 0.106388,1.20595 0.106388,1.98625 -0.106299,2.37627 -0.212687,0.39003 -0.638306,0.39003 -1.170364,0.42549 -0.532059,0.0355 -1.170492,0.10639 -6.278124,0.17735 -5.107632,0.0709 -14.684099,0.14188 -19.47256,-0.0708 -4.788461,-0.21269 -4.788461,-0.70925 -4.504725,-2.16354 0.283736,-1.45429 0.85123,-3.86614 1.808906,-6.45546 0.957676,-2.58931 2.305473,-5.35585 4.043514,-7.69689 1.738042,-2.34104 3.86615,-4.25634 5.284939,-5.4623 1.41879,-1.20596 2.128158,-1.70252 3.546943,-2.51832 z"
         id="path482"
         inkscape:path-effect="#path-effect484"
         inkscape:original-d="m 74.805462,106.72248 c 2.128411,-1.13475 4.256558,-2.26976 6.38444,-3.40504 2.057514,-0.42537 4.114681,-0.85099 6.171624,-1.27688 1.631875,0.21308 3.263423,0.42589 4.894736,0.63844 0.354965,0.85154 0.709646,1.70278 1.064074,2.55377 -0.425373,1.34812 -0.850995,2.69592 -1.276887,4.04348 -0.780073,1.34812 -1.560377,2.69592 -2.340962,4.04348 -0.638193,0.63872 -1.276622,1.27715 -1.915332,1.91533 1.206238,1.41906 2.412164,2.8378 3.617849,4.2563 0.142145,1.27717 0.284017,2.55403 0.42563,3.83066 0.213082,1.63187 0.425892,3.26342 0.638443,4.89474 2.64e-4,0.7806 2.64e-4,1.5609 0,2.34095 -0.425374,2.7e-4 -0.850993,2.7e-4 -1.276888,0 -0.63819,0.0712 -1.276622,0.14215 -1.915332,0.21282 -9.576585,0.0712 -19.153052,0.14214 -28.729976,0.21281 2.64e-4,-0.49631 2.64e-4,-0.99287 0,-1.4897 0.567782,-2.41168 1.135277,-4.82353 1.702519,-7.2357 1.348116,-2.76638 2.695917,-5.53291 4.043477,-8.29977 2.128453,-1.9151 4.256558,-3.8304 6.38444,-5.74599 0.709661,-0.49631 1.419027,-0.99287 2.128145,-1.4897 z" />
      <path
         style="fill:#bdbdbd;fill-opacity:1;stroke:#797979;stroke-width:2.82782;stroke-linecap:round;stroke-linejoin:round;stroke-miterlimit:10;stroke-dasharray:none;stroke-opacity:1"
         d="m 161.25745,80.597394 c 0.39031,0.425595 1.7761,0.374639 2.75274,0.704009 0.97665,0.32937 1.54414,1.038735 1.86326,1.854532 0.31912,0.815797 0.39006,1.737977 0.21267,2.553669 -0.17738,0.815692 -0.60301,1.525063 -1.02862,2.092533 -0.42561,0.567469 -0.85123,0.99309 -1.59597,1.241367 -0.74474,0.248278 -1.80879,0.319214 -2.73096,0.21287 -0.92217,-0.106344 -1.70247,-0.39009 -2.12823,-0.709224 -0.42576,-0.319133 -0.49669,-0.673813 -0.78048,-0.603023 -0.28378,0.07079 -0.78034,0.567351 -1.3833,1.063905 -0.60296,0.496555 -1.31232,0.993109 -1.84437,1.383277 -0.53205,0.390168 -0.88674,0.673919 -1.13488,0.780416 -0.24814,0.106497 -0.39002,0.03556 -0.7093,-0.39 -0.31929,-0.425561 -0.81585,-1.205865 -1.38334,-1.95074 -0.56749,-0.744875 -1.20592,-1.454242 -1.73796,-2.057219 -0.53204,-0.602978 -0.95766,-1.099536 -0.92224,-1.454398 0.0354,-0.354861 0.53196,-0.567669 1.20584,-1.02876 0.67387,-0.461091 1.52511,-1.170459 2.12808,-1.70249 0.60296,-0.53203 0.95764,-0.886709 1.02863,-1.383125 0.071,-0.496415 -0.14182,-1.134847 -0.21282,-1.986151 -0.071,-0.851304 -6e-5,-1.915358 0.63845,-2.80224 0.63851,-0.886881 1.84443,-1.596247 2.9441,-1.844472 1.09966,-0.248226 2.09277,-0.03542 2.94403,0.354832 0.85126,0.390249 1.56063,0.957744 1.98615,1.560762 0.42552,0.603019 0.56739,1.241452 0.33553,2.011667 -0.23186,0.770216 -0.83732,1.672409 -0.44701,2.098003 z"
         id="path478"
         inkscape:path-effect="#path-effect480"
         inkscape:original-d="m 160.26171,81.073954 c 1.38606,-0.05069 2.77185,-0.101647 4.15738,-0.152867 0.56778,0.709662 1.13527,1.419029 1.70252,2.128146 0.0712,0.922481 0.14214,1.84466 0.21281,2.76659 -0.42537,0.709662 -0.851,1.419029 -1.27689,2.128147 -0.42537,0.425902 -0.85099,0.851524 -1.27689,1.276889 -1.06383,0.0712 -2.12788,0.14214 -3.19222,0.212813 -0.78007,-0.283494 -1.56037,-0.567241 -2.34096,-0.851258 -0.0707,-0.354433 -0.14161,-0.709117 -0.21281,-1.064072 -0.49631,0.49684 -0.99287,0.9934 -1.4897,1.489702 -0.70914,0.49684 -1.4185,0.9934 -2.12815,1.489702 -0.35443,0.284023 -0.70912,0.56777 -1.06407,0.851258 -0.14162,-0.07067 -0.28349,-0.141611 -0.42563,-0.212815 -0.49631,-0.780071 -0.99287,-1.560375 -1.48971,-2.34096 -0.63819,-0.709133 -1.27662,-1.4185 -1.91533,-2.128147 -0.42537,-0.496313 -0.85099,-0.99287 -1.27688,-1.489702 0.49684,-0.212555 0.99339,-0.425365 1.4897,-0.638444 0.85154,-0.709131 1.70278,-1.4185 2.55377,-2.128147 0.35497,-0.354434 0.70965,-0.709115 1.06408,-1.064073 -0.21256,-0.63819 -0.42537,-1.276622 -0.63845,-1.915331 0.0712,-1.063829 0.14214,-2.127883 0.21282,-3.19222 1.20624,-0.70913 2.41216,-1.4185 3.61785,-2.128146 0.99342,0.213084 1.98653,0.425894 2.9794,0.638444 0.70966,0.56778 1.41903,1.135275 2.12815,1.702517 0.14214,0.63872 0.28402,1.277152 0.42563,1.915332 -0.60522,0.902501 -1.21068,1.804694 -1.81642,2.706642 z"
         sodipodi:nodetypes="cccccccccccccccccccccccccc" />
      <path
         style="fill:#b67535;fill-opacity:1;stroke:#7b4f24;stroke-width:2.82782;stroke-linecap:round;stroke-linejoin:round;stroke-miterlimit:10;stroke-dasharray:none;stroke-opacity:1"
         d="m 150.17829,87.855028 c 0.95764,1.312371 2.23453,3.227705 2.80192,4.82379 0.56738,1.596085 0.42551,2.872947 -0.28384,3.936894 -0.70935,1.063947 -1.98621,1.915186 -2.87295,2.518164 -0.88673,0.602979 -1.38329,0.957664 -1.98633,1.879954 -0.60303,0.92228 -1.3124,2.41196 -1.98632,3.97263 -0.67392,1.56066 -1.31235,3.19221 -1.98627,4.96569 -0.67392,1.77348 -1.38329,3.68877 -2.34096,5.60408 -0.95768,1.91532 -2.1636,3.8306 -3.8661,5.67497 -1.7025,1.84436 -3.90154,3.61778 -5.88774,4.64639 -1.9862,1.0286 -3.75962,1.31235 -5.74588,1.45424 -1.98627,0.14189 -4.18531,0.14189 -5.99423,4e-5 -1.80892,-0.14185 -3.22765,-0.42559 -5.07207,-1.31226 -1.84442,-0.88668 -4.11439,-2.37635 -6.02978,-4.14978 -1.91539,-1.77343 -3.476,-3.83059 -4.54015,-6.02969 -1.06415,-2.19911 -1.63165,-4.54001 -1.66717,-6.95199 -0.0355,-2.41198 0.46103,-4.89477 1.38324,-7.20035 0.92221,-2.305581 2.27001,-4.433682 4.00805,-6.349076 1.73805,-1.915394 3.86616,-3.61788 6.06532,-4.894789 2.19916,-1.27691 4.46914,-2.128153 7.09394,-2.589228 2.6248,-0.461076 5.60414,-0.532013 7.94511,-0.638429 2.34098,-0.106416 4.04346,-0.248289 5.78142,-0.638473 1.73795,-0.390184 3.51137,-1.028615 4.82366,-1.773447 1.31229,-0.744832 2.16353,-1.596075 3.05041,-1.986223 0.88688,-0.390148 1.80906,-0.319211 2.66031,0.142023 0.85126,0.461234 1.63156,1.312473 2.34095,2.092803 0.70939,0.780329 1.34782,1.489696 2.30546,2.802067 z"
         id="path466"
         inkscape:path-effect="#path-effect468"
         inkscape:original-d="m 149.85884,87.251762 c 1.27715,1.915597 2.55404,3.830929 3.83066,5.745996 -0.14161,1.277178 -0.28349,2.554039 -0.42563,3.830666 -1.27665,0.85154 -2.55351,1.70278 -3.83066,2.55377 -0.49631,0.35496 -0.99287,0.709646 -1.4897,1.064076 -0.70914,1.48999 -1.4185,2.97967 -2.12815,4.4691 -0.63819,1.63188 -1.27662,3.26343 -1.91533,4.89474 -0.70913,1.91564 -1.4185,3.83093 -2.12815,5.746 -1.20571,1.91563 -2.41163,3.83092 -3.61785,5.74599 -2.19886,1.77375 -4.3979,3.54717 -6.59725,5.32037 -1.77323,0.28402 -3.54665,0.56777 -5.32037,0.85125 -2.19886,2.7e-4 -4.3979,2.7e-4 -6.59725,0 -1.41853,-0.28349 -2.83726,-0.56724 -4.25629,-0.85125 -2.26981,-1.48947 -4.53978,-2.97915 -6.81007,-4.46911 -1.56041,-2.05699 -3.12102,-4.11415 -4.68192,-6.17162 -0.56726,-2.34075 -1.13475,-4.68166 -1.70252,-7.02289 0.49684,-2.48262 0.9934,-4.96541 1.4897,-7.44851 1.34812,-2.127926 2.69592,-4.256026 4.04348,-6.384435 2.12845,-1.702287 4.25656,-3.404769 6.38444,-5.107551 2.27033,-0.851011 4.54031,-1.702252 6.81007,-2.553777 2.97973,-0.07068 5.95907,-0.141612 8.93821,-0.212815 1.70282,-0.141615 3.4053,-0.283487 5.10755,-0.425629 1.77376,-0.638191 3.54718,-1.276623 5.32037,-1.915332 0.85154,-0.851009 1.70278,-1.702253 2.55377,-2.553775 0.92248,0.0712 1.84466,0.142143 2.7666,0.212815 0.7806,0.851541 1.5609,1.702782 2.34096,2.553775 0.63872,0.709662 1.27715,1.419029 1.91533,2.128146 z" />
      <path
         style="fill:#e7e7e7;fill-opacity:1;stroke:#868686;stroke-width:2.82782;stroke-linecap:round;stroke-linejoin:round;stroke-miterlimit:10;stroke-dasharray:none;stroke-opacity:1"
         d="m 152.71309,134.44639 c 0.78029,0.53212 1.63154,1.38337 1.70235,2.12809 0.0708,0.74472 -0.63856,1.38315 -1.41876,1.66692 -0.78019,0.28377 -1.63143,0.21283 -19.04711,0.17735 -17.41568,-0.0355 -51.394403,-0.0355 -68.809733,-0.0709 -17.41533,-0.0354 -18.26657,-0.10639 -18.798708,-0.53188 -0.532138,-0.42549 -0.74495,-1.2058 -0.532171,-1.91534 0.212778,-0.70954 0.851209,-1.34797 1.525184,-1.84457 0.673974,-0.4966 1.383338,-0.85129 18.373452,-0.95767 16.990115,-0.10638 50.259466,0.0355 67.107316,0.14193 16.84784,0.10643 17.27347,0.17737 17.84099,0.31927 0.56752,0.1419 1.27689,0.35471 2.05719,0.88684 z"
         id="path486"
         inkscape:original-d="m 152.64185,134.12698 c 0.85153,0.85153 1.70278,1.70278 2.55378,2.55378 -0.70913,0.63872 -1.4185,1.27715 -2.12815,1.91533 -0.85101,-0.0707 -1.70225,-0.14161 -2.55377,-0.21282 -33.97982,2.7e-4 -67.958543,2.7e-4 -101.93821,0 -0.851011,-0.0707 -1.702253,-0.14161 -2.553777,-0.21281 -0.212553,-0.78007 -0.425363,-1.56038 -0.638442,-2.34096 0.63872,-0.63819 1.277151,-1.27662 1.915332,-1.91533 0.70966,-0.35444 1.419026,-0.70912 2.128144,-1.06408 33.270951,0.14215 66.540303,0.28402 99.810063,0.42563 0.4259,0.0712 0.85152,0.14214 1.27689,0.21282 0.70966,0.21308 1.41903,0.42589 2.12814,0.63844 z"
         inkscape:path-effect="#path-effect488" />
    </g>
  </g>
  <style
     type="text/css"
     id="style16758">&#10;	.st0{fill:#FFC300;stroke:#695000;stroke-width:13;stroke-miterlimit:10;}&#10;	.st1{fill:#FFC300;stroke:#695000;stroke-width:13;stroke-linecap:round;stroke-miterlimit:10;}&#10;</style>
  <style
     type="text/css"
     id="style16758-4">&#10;	.st0{fill:#FFC300;stroke:#695000;stroke-width:13;stroke-miterlimit:10;}&#10;	.st1{fill:#FFC300;stroke:#695000;stroke-width:13;stroke-linecap:round;stroke-miterlimit:10;}&#10;</style>
  <style
     type="text/css"
     id="style16758-5">&#10;	.st0{fill:#FFC300;stroke:#695000;stroke-width:13;stroke-miterlimit:10;}&#10;	.st1{fill:#FFC300;stroke:#695000;stroke-width:13;stroke-linecap:round;stroke-miterlimit:10;}&#10;</style>
  <style
     type="text/css"
     id="style16758-9">&#10;	.st0{fill:#FFC300;stroke:#695000;stroke-width:13;stroke-miterlimit:10;}&#10;	.st1{fill:#FFC300;stroke:#695000;stroke-width:13;stroke-linecap:round;stroke-miterlimit:10;}&#10;</style>
</svg>
