<svg xmlns="http://www.w3.org/2000/svg" xml:space="preserve" width="84" height="84" viewBox="0 0 22.225 22.225"><path d="M15.533 1.62a2.65 2.65 0 0 0-2.65 2.649 2.65 2.65 0 0 0 2.65 2.65l.032-.002a2.65 2.65 0 0 0 .684.864 2.7 2.7 0 0 0-.127.806 2.65 2.65 0 0 0 2.65 2.65 2.65 2.65 0 0 0 2.65-2.65 2.65 2.65 0 0 0-.961-2.041 2.7 2.7 0 0 0 .126-.805 2.65 2.65 0 0 0-2.65-2.65l-.03.001a2.65 2.65 0 0 0-2.374-1.473M6.918 1.62a2.65 2.65 0 0 0-2.372 1.472h-.032a2.65 2.65 0 0 0-2.65 2.649 2.7 2.7 0 0 0 .127.806 2.65 2.65 0 0 0-.96 2.04 2.65 2.65 0 0 0 2.649 2.65 2.65 2.65 0 0 0 2.65-2.65 2.7 2.7 0 0 0-.127-.807 2.65 2.65 0 0 0 .684-.863l.031.001a2.65 2.65 0 0 0 2.65-2.65 2.65 2.65 0 0 0-2.65-2.649" style="fill:#ff1313;fill-opacity:1;stroke:#940000;stroke-width:.529167;stroke-linecap:round;stroke-linejoin:round;stroke-dasharray:none;stroke-opacity:1;paint-order:normal" transform="matrix(1.06239 0 0 1.06239 -.814 -.543)"/><g transform="matrix(.18743 0 0 .18743 -2.045 -36.065)"><circle cx="70.198" cy="254.227" r="49.489" style="opacity:1;fill:#fff;fill-opacity:1;fill-rule:nonzero;stroke:#595959;stroke-width:5.00007;stroke-linecap:round;stroke-linejoin:round;stroke-miterlimit:4;stroke-dasharray:none;stroke-dashoffset:0;stroke-opacity:1;paint-order:normal"/><g transform="translate(.71)"><circle cx="45.865" cy="242.614" r="7.5" style="opacity:1;fill:#1b1b1b;fill-opacity:1;fill-rule:nonzero;stroke:none;stroke-width:6.4123;stroke-linecap:round;stroke-linejoin:bevel;stroke-miterlimit:4;stroke-dasharray:none;stroke-dashoffset:0;stroke-opacity:1;paint-order:markers stroke fill"/><circle cx="-242.614" cy="92.978" r="7.5" style="opacity:1;fill:#1b1b1b;fill-opacity:1;fill-rule:nonzero;stroke:none;stroke-width:6.4123;stroke-linecap:round;stroke-linejoin:bevel;stroke-miterlimit:4;stroke-dasharray:none;stroke-dashoffset:0;stroke-opacity:1;paint-order:markers stroke fill" transform="rotate(-90)"/></g><circle cx="70.13" cy="257.208" r="10.337" style="fill:#ea0000;fill-opacity:1;stroke:#940000;stroke-width:2.81273;stroke-linecap:round;stroke-linejoin:round;stroke-dasharray:none;stroke-dashoffset:631.937;stroke-opacity:1;paint-order:normal"/><path d="M100.1 267.051c6.13 36.433-66.587 36.95-61.383 0 35.18 25.35 38.229 12.036 61.384 0" style="opacity:1;fill:#dfdfdf;fill-opacity:1;fill-rule:nonzero;stroke:#595959;stroke-width:4;stroke-linecap:round;stroke-linejoin:round;stroke-miterlimit:4;stroke-dasharray:none;stroke-dashoffset:0;stroke-opacity:1;paint-order:normal" transform="translate(.673)"/><path d="M37.891 272.686c27.633 22.495 39.941 18.721 62.87-.197" style="fill:none;fill-opacity:1;stroke:#595959;stroke-width:2;stroke-linecap:round;stroke-linejoin:round;stroke-dasharray:none;stroke-dashoffset:631.937;stroke-opacity:1;paint-order:normal" transform="translate(.673)"/><path d="M44.407 285.58v-14.163" style="fill:none;fill-opacity:1;stroke:#595959;stroke-width:2.08018;stroke-linecap:round;stroke-linejoin:round;stroke-dasharray:none;stroke-dashoffset:631.937;stroke-opacity:1;paint-order:normal" transform="translate(.673)"/><path d="M51.022 275.377v12.769" style="fill:none;fill-opacity:1;stroke:#595959;stroke-width:2.07118;stroke-linecap:round;stroke-linejoin:round;stroke-dasharray:none;stroke-dashoffset:631.937;stroke-opacity:1;paint-order:normal" transform="translate(.673)"/><path d="M57.637 279.353v11.43" style="fill:none;fill-opacity:1;stroke:#595959;stroke-width:2.07852;stroke-linecap:round;stroke-linejoin:round;stroke-dasharray:none;stroke-dashoffset:631.937;stroke-opacity:1;paint-order:normal" transform="translate(.673)"/><path d="M63.722 282.397v10.583" style="fill:none;fill-opacity:1;stroke:#595959;stroke-width:2;stroke-linecap:round;stroke-linejoin:round;stroke-dasharray:none;stroke-dashoffset:631.937;stroke-opacity:1;paint-order:normal" transform="translate(.673)"/><path d="M75.364 281.868v12.28" style="fill:none;fill-opacity:1;stroke:#595959;stroke-width:2.15436;stroke-linecap:round;stroke-linejoin:round;stroke-dasharray:none;stroke-dashoffset:631.937;stroke-opacity:1;paint-order:normal" transform="translate(.673)"/><path d="M81.45 279.336v12.375" style="fill:none;fill-opacity:1;stroke:#595959;stroke-width:2.11061;stroke-linecap:round;stroke-linejoin:round;stroke-dasharray:none;stroke-dashoffset:631.937;stroke-opacity:1;paint-order:normal" transform="translate(.673)"/><path d="M88.064 275.783v12.435" style="fill:none;fill-opacity:1;stroke:#595959;stroke-width:2;stroke-linecap:round;stroke-linejoin:round;stroke-dasharray:none;stroke-dashoffset:631.937;stroke-opacity:1;paint-order:normal" transform="translate(.673)"/><path d="M94.678 270.336v15.59" style="fill:none;fill-opacity:1;stroke:#595959;stroke-width:2.12888;stroke-linecap:round;stroke-linejoin:round;stroke-dasharray:none;stroke-dashoffset:631.937;stroke-opacity:1;paint-order:normal" transform="translate(.673)"/><path d="M69.414 282.926v10.584" style="fill:none;fill-opacity:1;stroke:#595959;stroke-width:2;stroke-linecap:round;stroke-linejoin:round;stroke-dasharray:none;stroke-dashoffset:631.937;stroke-opacity:1;paint-order:normal" transform="translate(.673)"/></g><g transform="matrix(1.06239 0 0 1.06239 -.826 -.543)"><circle cx="4.775" cy="12.07" r=".95" style="fill:#ff6868;fill-opacity:1;stroke:#ff4e4e;stroke-width:.640292;stroke-linecap:round;stroke-linejoin:round;stroke-dasharray:none;stroke-opacity:1;paint-order:normal"/><circle cx="17.676" cy="12.07" r=".95" style="fill:#ff6868;fill-opacity:1;stroke:#ff4e4e;stroke-width:.640292;stroke-linecap:round;stroke-linejoin:round;stroke-dasharray:none;stroke-opacity:1;paint-order:normal"/></g></svg>