<?xml version="1.0" encoding="UTF-8" standalone="no"?>
<svg
   version="1.1"
   width="84"
   height="84"
   viewBox="0 0 84.000002 83.999998"
   id="svg10"
   sodipodi:docname="fire.svg"
   inkscape:version="1.1.2 (0a00cf5339, 2022-02-04)"
   xmlns:inkscape="http://www.inkscape.org/namespaces/inkscape"
   xmlns:sodipodi="http://sodipodi.sourceforge.net/DTD/sodipodi-0.dtd"
   xmlns="http://www.w3.org/2000/svg"
   xmlns:svg="http://www.w3.org/2000/svg">
  <defs
     id="defs14" />
  <sodipodi:namedview
     id="namedview12"
     pagecolor="#505050"
     bordercolor="#ffffff"
     borderopacity="1"
     inkscape:pageshadow="0"
     inkscape:pageopacity="0"
     inkscape:pagecheckerboard="1"
     showgrid="false"
     inkscape:zoom="4.185903"
     inkscape:cx="14.094928"
     inkscape:cy="6.211324"
     inkscape:window-width="2560"
     inkscape:window-height="1372"
     inkscape:window-x="0"
     inkscape:window-y="0"
     inkscape:window-maximized="1"
     inkscape:current-layer="svg10" />
  <g
     transform="matrix(1.1418138,0,0,1.1418138,-232.03492,-160.42677)"
     id="g8">
    <g
       data-paper-data="{&quot;isPaintingLayer&quot;:true}"
       fill-rule="nonzero"
       stroke-linecap="butt"
       stroke-linejoin="miter"
       stroke-miterlimit="10"
       stroke-dasharray="none"
       stroke-dashoffset="0"
       style="mix-blend-mode:normal"
       id="g6">
      <path
         d="m 206.66206,178.98084 c 0,-2.32281 -0.0325,-5.53267 0.78607,-8.44131 1.08988,-3.87272 3.48414,-7.21145 3.48414,-7.21145 0,0 -5.47343,20.1627 10.56028,14.76874 6.18043,-2.07918 2.9046,-12.61462 2.09957,-20.51299 -0.47466,-4.65701 2.57984,-8.57225 2.57984,-8.57225 0,0 0.034,3.86598 1.67645,7.78083 1.29872,3.09558 4.79244,9.90499 10.27876,9.07796 13.60243,-2.05047 12.30206,-18.18921 12.30206,-18.18921 0,0 6.09108,9.97346 5.93917,19.68578 -0.14513,9.27802 -5.30904,12.3243 1.50475,17.3415 10.45171,7.69593 14.2896,-14.5336 14.2896,-14.5336 0,0 1.17536,5.75781 1.17536,8.80599 0,18.41208 -14.92594,33.33802 -33.33802,33.33802 -18.41208,0 -33.33802,-14.92594 -33.33802,-33.33802 z"
         fill="#f17a23"
         stroke="#bd5f1c"
         stroke-width="3.5"
         id="path2" />
      <path
         d="m 240.00008,210.44593 c -5.79311,0 -11.23719,-1.60985 -15.96776,-4.33689 -3.79054,-2.18515 -7.12296,-5.08759 -9.80978,-8.45389 -0.15626,-0.19578 -0.64123,-2.68041 0.0481,-4.39306 0.71168,-1.76823 2.60097,-3.51215 2.60097,-3.51215 0,0 -0.12261,1.81433 0.90891,3.28601 0.83295,1.18837 2.04214,2.65273 3.17091,1.75912 1.12877,-0.89361 2.52675,-3.41186 2.10244,-5.93387 -0.58669,-3.48717 -1.91217,-7.94037 -1.91217,-7.94037 0,0 4.74907,2.71804 7.27853,6.27793 2.90625,5.06133 0.92729,7.82896 4.93815,7.4988 2.10518,-0.24444 2.33229,-5.6181 4.47716,-9.97939 2.87892,-5.85387 7.41128,-11.08493 7.41128,-11.08493 0,0 -4.8689,20.89228 3.3402,21.1844 3.16861,0.11275 6.61566,0.13338 7.8072,-1.37604 2.33139,-2.95337 0.2657,-6.71304 0.2657,-6.71304 0,0 3.23176,1.01288 5.50079,4.09582 2.23044,3.03051 3.50536,7.00068 2.76221,7.85839 0,0 -3.16407,3.90573 -7.55021,6.50683 -5.15376,3.05632 -11.99479,5.25633 -17.37261,5.25633 z"
         fill="#fdd93c"
         stroke="#dcbd35"
         stroke-width="0"
         id="path4" />
    </g>
  </g>
</svg>
