<svg xmlns="http://www.w3.org/2000/svg" xml:space="preserve" width="84" height="84" viewBox="0 0 22.225 22.225"><g transform="matrix(.16406 0 0 .16406 0 -30.027)"><circle cx="67.733" cy="250.756" r="64.626" style="fill:#0aff20;fill-opacity:1;fill-rule:nonzero;stroke:#005d08;stroke-width:6.21534;stroke-linecap:round;stroke-linejoin:round;stroke-miterlimit:4;stroke-dasharray:none;stroke-dashoffset:0;stroke-opacity:1;paint-order:normal"/><path d="M20.939 262.749c-.27-.795 4.58 10.777 13.166 19.695 14.08 14.623 39.394 27.199 67.48-1.316 4.615-4.685 8.152-11.177 12.954-18.38" style="fill:#005d08;fill-opacity:1;fill-rule:nonzero;stroke:none;stroke-width:11.8107;stroke-linecap:round;stroke-linejoin:miter;stroke-miterlimit:4;stroke-dasharray:none;stroke-dashoffset:0;stroke-opacity:1;paint-order:stroke markers fill"/><path d="M32.308 234.881c6.56-6.1 13.464-7.958 21.166 0M74.069 234.882c6.56-6.101 13.464-7.959 21.166 0" style="fill:none;fill-opacity:1;stroke:#005d08;stroke-width:6.00001;stroke-linecap:round;stroke-linejoin:round;stroke-opacity:1;paint-order:stroke fill markers" transform="matrix(1.24307 0 0 1.24307 -11.54 -56.919)"/><path d="M41.968 234.785s-20.68 11.586-8.994 16.745 8.994-16.745 8.994-16.745M85.721 234.785s20.68 11.586 8.994 16.745-8.994-16.745-8.994-16.745" style="fill:#3479ff;fill-opacity:1;stroke:#0058e3;stroke-width:1.24934;stroke-linecap:round;stroke-dasharray:none;stroke-opacity:1;paint-order:normal" transform="matrix(1.24307 0 0 1.24307 -11.63 -56.919)"/></g></svg>