<svg xmlns="http://www.w3.org/2000/svg" xml:space="preserve" width="84" height="84" viewBox="0 0 22.225 22.225"><path d="M9.577.199C6.285.908 7.201.526 6.285.908S3.965 2.053 3.65 2.68 2.477 6.143 2.534 7.07c.057.928.601 2.21.544 2.864s.687 2.181.916 3.272c.23 1.09 1.289 2.972 1.604 4.008s.744 1.445.744 1.445.2.055.372.573.745 1.718 1.403 2.209c.659.49 1.833.736 2.663.572.83-.163 2.004-.736 2.434-1.881s.859-2.1 1.403-2.782 1.46-1.554 1.689-1.963.286-.572.687-.327c.4.245.372.654 1.002.627s1.289-.436 1.403-1.227c.115-.79.716-1.8.4-2.754-.314-.954-.715-.79-.629-1.827s-.258-1.5-.43-2.536.172-1.881-.772-3.218C17.022 2.79 14.817.99 13.47.608 12.126.226 10.694.172 9.577.198Z" style="fill:#000;fill-opacity:1;stroke:#000;stroke-width:.107968;stroke-dasharray:none"/><path d="M4.408 4.78c.595-.773.297-.515.595-.773s.568-.412 1.163-.335 1.272 0 2.03.077c.757.078.784.258 1.758.207s1.57-.645 2.896-.567c1.325.077.892.129 1.19.335s.676 2.164.514 2.783.758.644 1.19 1.288c.434.644-.135 2.551.38 2.963.514.413.568.284 1.136-1.133s.487-1.289.65-1.624c.162-.335.649-.154.594.13-.054.283-.216 2.086-.432 2.756-.217.67-1.613 2.021-1.89 1.958-.222-.051-.05-.651-.086-.53-.09.317-.074.692-.134.932-.135.54-.163 1.222-.488 1.892s-.866 1.082-1.19 1.65c-.325.566-.163 1.056-.46.901-.298-.154.054-.283-.19-.747-.243-.464-.703-2.062-1.271-2.551-.569-.49-1.407-.928-1.949-.928-.54 0-1.136-.077-1.163.284-.027.36-.216.773.243 1.03.46.258 1.38-.335 2.273.696s.758 1.134.704 1.7c-.054.568-.623 1.521-1.272 1.418-.65-.103-.46-.747-.46-.747s.244-.387-.812-.361c-1.055.026-.974-.232-1.082.206s-.243.644-.757.619c-.515-.026-1.11-.773-1.326-1.211-.217-.439.216-1.598.893-1.882.676-.283 1.136-.154 1.136-.876 0-.721.243-.799-.216-.773-.46.026-1.38.387-1.894.98-.515.592-.028 1.88-.433 2.01-.406.128-1.57-2.835-1.813-3.48-.244-.644-.081-1.082-.27-1.777-.19-.696-.46-2.036-.488-2.706s.108-2.551.73-3.814Z" style="fill:#db9f8a;fill-opacity:1;stroke:#000;stroke-width:.107968;stroke-dasharray:none"/><path d="M8.125 14.996c.509 0 .644.048.983.016.726-.069.983-.42 1.441-.371s.848.113.899.549c.053.459-.07.866-.509 1.243-.36.31-2.99.377-3.255.016-.237-.323-.299-.63-.44-.985-.187-.468.44-.42.881-.468zm2.865 1.437" style="fill:#94474a;fill-opacity:1;stroke:#000;stroke-width:.0515144;stroke-dasharray:none;stroke-opacity:1"/><path d="M6.523 8.23c.786-.054.907-.013.877.273s-.605.34-1.3.463c-.695.122-1.148.136-1.284.34s-.106.585-.363.558-.332-.653-.181-1.02c.15-.368.468-.11.83-.191.364-.082.772-.232 1.074-.3s.166-.04.347-.122Z" style="fill:#000;fill-opacity:1;stroke:#000;stroke-width:.110832;stroke-dasharray:none"/><path d="M10.594 7.984c-.788-.082-.487-.191-.788-.082-.3.11-.53.068.03.3.557.232.758.382 1.416.423.659.04 1.031-.178 1.704-.191s1.155.71 1.417.572c.287-.15-.188-.515-.43-.695-.415-.31-.171-.259-.758-.286s-1.288.095-1.79.095c-.5 0-.687-.136-.801-.136z" style="fill:#000;fill-opacity:1;stroke:#000;stroke-width:.107968;stroke-dasharray:none"/><path d="M13.6 9.66c-.644-.34-.604-.302-1.678-.425s-1.557.276-1.557.276.028.19.4.19c.373 0 2.263.164 2.549.11s.272-.082.286-.15zM7.97 9.693c-.12-.19-.769-.15-.769-.15s-.487-.087-1.117.104-1.024.475-1.024.475-.078.343.638.152c.716-.19 1.088-.3 1.446-.3s.901-.163.83-.276z" style="fill:#fff;fill-opacity:1;stroke:#000;stroke-width:.164422;stroke-dasharray:none"/><path fill="none" d="M8.5 9.813c.099.506.135 2.029-.344 2.75-.407.611-.094.782.455.78" style="fill:#000;fill-opacity:0;stroke:#000;stroke-width:.164422;stroke-linecap:round;stroke-dasharray:none"/><path fill="none" d="M9.878 13.285c.286.03.604.019.547-.341-.08-.502-.62-.533-.744-.9-.113-.333-.096-.175-.171-.6-.076-.426-.136-1.631-.136-1.631" style="fill:#000;fill-opacity:0;stroke:#000;stroke-width:.164422;stroke-linecap:round;stroke-dasharray:none;stroke-opacity:1"/><path d="M7.197 15.637s.198-.374.764-.512c1.574-.385-.112-.994-.697-.481-.584.513-.067.993-.067.993z" style="fill:#000;fill-opacity:1;stroke:#000;stroke-width:.0591102;stroke-dasharray:none;stroke-opacity:1"/><path d="M11.656 15.466s-.292-.37-1.124-.506c-2.314-.38.165-.983 1.025-.476s.099.982.099.982z" style="fill:#000;fill-opacity:1;stroke:#000;stroke-width:.0712577;stroke-dasharray:none;stroke-opacity:1"/><path d="M7.697 15.528c.837-.123.212 0 .837-.123.624-.124.542.061.778-.01.235-.073.424-.248.884-.104s.872-.02.66.227.118.639-.825.752c-.943.114-1.639.103-1.886-.092-.248-.196-.413-.392-.448-.65Z" style="fill:#310000;fill-opacity:1;stroke:#000;stroke-width:.0536637;stroke-dasharray:none;stroke-opacity:.248963"/><path d="M9.607 15.65c-1.062.051-.757.018-1.068.051-.317.039-.53.138-.465.269.065.13.073.233.243.293s1.51-.013 1.943-.07c.24-.03.213-.333.064-.353-.144-.019-.167-.103-.297-.135a1.7 1.7 0 0 0-.42-.055z" style="fill:#872c23;fill-opacity:1;stroke:#000;stroke-width:.0525327;stroke-dasharray:none;stroke-opacity:.178423"/><path d="M17.572 9.84c.207.032.322.26.32.378-.007.278-.31.366-.577.648" style="fill:none;fill-opacity:1;stroke:#000;stroke-width:.164422;stroke-linecap:round;stroke-dasharray:none;stroke-opacity:1"/><ellipse cx="4.856" cy="10.634" rx=".3" ry=".225" style="fill:#000;fill-opacity:1;stroke:#000;stroke-width:.236572" transform="matrix(.98982 -.14231 .15656 .98767 0 0)"/><ellipse cx="11.841" cy="9.492" rx=".397" ry=".209" style="fill:#000;fill-opacity:1;stroke:#000;stroke-width:.238396"/></svg>