<svg version="1.1" xmlns="http://www.w3.org/2000/svg" xmlns:xlink="http://www.w3.org/1999/xlink" width="122.38787" height="131.55961" viewBox="0,0,122.38787,131.55961"><g transform="translate(-178.80607,-114.28985)"><g data-paper-data="{&quot;isPaintingLayer&quot;:true}" fill-rule="nonzero" stroke-linecap="butt" stroke-linejoin="miter" stroke-miterlimit="10" stroke-dasharray="" stroke-dashoffset="0" style="mix-blend-mode: normal"><path d="M182.40101,184.20962c-2.67143,-9.97064 1.24162,-19.56919 8.22017,-21.43895c6.97854,-1.86976 14.8014,4.69729 17.47283,14.66793c2.67143,9.97064 -0.82015,19.56921 -7.7987,21.43897c-6.97854,1.86976 -15.22287,-4.69731 -17.8943,-14.66795z" fill="#ca947b" stroke="#966e5c" stroke-width="5.5"/><path d="M279.70469,198.87746c-6.97854,-1.86976 -10.47013,-11.4683 -7.7987,-21.43895c2.67143,-9.97064 10.49429,-16.53771 17.47283,-14.66795c6.97854,1.86976 10.8916,11.4683 8.22017,21.43895c-2.67143,9.97064 -10.91576,16.53771 -17.8943,14.66795z" fill="#ca947b" stroke="#966e5c" stroke-width="5.5"/><path d="M243.31706,243.09946h-6.97587c-23.01758,0 -45.3362,-17.65206 -45.3362,-42.36221c0,-7.19997 2.6775,-14.10573 3.56644,-20.37025c0.85433,-6.02061 0.34296,-11.47147 0.34296,-14.93044c0,-18.6362 16.86178,-34.54222 36.69546,-38.09151c1.27938,-0.22894 1.84623,-2.70552 0.88685,-5.2522c-1.06887,-2.83732 -5.10755,-5.053 -3.65185,-5.053c0.47479,0 2.49728,-0.41182 4.70963,0.18066c1.96218,0.52548 4.0737,1.99218 5.38726,2.98193c4.00939,3.02104 6.1268,6.74219 7.39391,6.95397c20.54066,3.43311 38.4082,22.30397 38.4082,38.28014c0,3.27656 -0.89321,8.95797 -0.0882,14.56862c0.92992,6.4812 3.99761,13.16401 3.99761,20.73208c0,24.71015 -22.31862,42.36221 -45.3362,42.36221z" fill="#bb533e" stroke="#8f3f2f" stroke-width="5.5"/><path d="M200.5247,173.67783c0,-11.32669 9.1821,-20.50879 20.50879,-20.50879c11.32669,0 20.5088,9.1821 20.5088,20.50879c0,11.32669 -9.18211,20.50879 -20.5088,20.50879c-11.32669,0 -20.50879,-9.1821 -20.50879,-20.50879z" fill="#ca947b" stroke="#965341" stroke-width="0"/><path d="M238.45771,173.67783c0,-11.32669 9.1821,-20.50879 20.50879,-20.50879c11.32669,0 20.50879,9.1821 20.50879,20.50879c0,11.32669 -9.1821,20.50879 -20.50879,20.50879c-11.32669,0 -20.50879,-9.1821 -20.50879,-20.50879z" fill="#ca947b" stroke="#965341" stroke-width="0"/><path d="M204.08386,205.28867c0,-19.83593 16.0802,-35.91614 35.91614,-35.91614c19.83593,0 35.91614,16.0802 35.91614,35.91614c0,19.83593 -16.0802,35.91614 -35.91614,35.91614c-19.83593,0 -35.91614,-16.0802 -35.91614,-35.91614z" fill="#ca947b" stroke="none" stroke-width="0"/><path d="M215.76502,180c0,-6.28495 3.77404,-11.3799 8.42956,-11.3799c4.65552,0 8.42956,5.09495 8.42956,11.3799c0,6.28495 -3.77404,11.3799 -8.42956,11.3799c-4.65552,0 -8.42956,-5.09495 -8.42956,-11.3799z" fill="#0b0d0e" stroke="none" stroke-width="0"/><path d="M247.37586,180c0,-6.28495 3.77404,-11.3799 8.42956,-11.3799c4.65552,0 8.42956,5.09495 8.42956,11.3799c0,6.28495 -3.77404,11.3799 -8.42956,11.3799c-4.65552,0 -8.42956,-5.09495 -8.42956,-11.3799z" fill="#0b0d0e" stroke="none" stroke-width="0"/><path d="M230.21027,203.4837c-1.56367,-1.56367 -1.56367,-4.09889 0,-5.66256c1.56367,-1.56367 4.09889,-1.56367 5.66256,0c1.56367,1.56367 1.56367,4.09889 0,5.66256c-1.56367,1.56367 -4.09889,1.56367 -5.66256,0z" fill="#9a5542" stroke="none" stroke-width="0"/><path d="M244.12715,203.4837c-1.56367,-1.56367 -1.56367,-4.09889 0,-5.66256c1.56367,-1.56367 4.09889,-1.56367 5.66256,0c1.56367,1.56367 1.56367,4.09889 0,5.66256c-1.56367,1.56367 -4.09889,1.56367 -5.66256,0z" fill="#9a5542" stroke="none" stroke-width="0"/><path d="M219.45151,215.20934c3.65698,-3.94463 12.50405,-1.55192 20.66251,-1.84053c9.44656,-0.33418 18.22596,-2.72689 21.04887,1.84053c3.37366,5.45855 0.93321,11.3081 -4.62857,15.4188c-4.42147,3.26791 -11.1258,5.43689 -16.22712,5.43689c-4.97297,0 -11.84208,-2.31307 -16.45479,-5.62169c-6.07115,-4.35473 -8.85082,-10.43406 -4.40091,-15.234z" fill="#9a5542" stroke="none" stroke-width="0"/></g></g></svg>