<?xml version="1.0" encoding="UTF-8" standalone="no"?>
<svg
   version="1.1"
   width="84"
   height="84"
   viewBox="0 0 83.999999 83.999996"
   id="svg28"
   sodipodi:docname="monkey.svg"
   inkscape:version="1.1.2 (0a00cf5339, 2022-02-04)"
   xmlns:inkscape="http://www.inkscape.org/namespaces/inkscape"
   xmlns:sodipodi="http://sodipodi.sourceforge.net/DTD/sodipodi-0.dtd"
   xmlns="http://www.w3.org/2000/svg"
   xmlns:svg="http://www.w3.org/2000/svg">
  <defs
     id="defs32" />
  <sodipodi:namedview
     id="namedview30"
     pagecolor="#505050"
     bordercolor="#ffffff"
     borderopacity="1"
     inkscape:pageshadow="0"
     inkscape:pageopacity="0"
     inkscape:pagecheckerboard="1"
     showgrid="false"
     inkscape:zoom="6.6205727"
     inkscape:cx="61.172956"
     inkscape:cy="65.704286"
     inkscape:window-width="2560"
     inkscape:window-height="1372"
     inkscape:window-x="0"
     inkscape:window-y="0"
     inkscape:window-maximized="1"
     inkscape:current-layer="svg28" />
  <g
     transform="matrix(0.637817,0,0,0.637817,-111.07608,-72.806965)"
     id="g26">
    <g
       data-paper-data="{&quot;isPaintingLayer&quot;:true}"
       fill-rule="nonzero"
       stroke-linecap="butt"
       stroke-linejoin="miter"
       stroke-miterlimit="10"
       stroke-dasharray="none"
       stroke-dashoffset="0"
       style="mix-blend-mode:normal"
       id="g24">
      <path
         d="m 182.40101,184.20962 c -2.67143,-9.97064 1.24162,-19.56919 8.22017,-21.43895 6.97854,-1.86976 14.8014,4.69729 17.47283,14.66793 2.67143,9.97064 -0.82015,19.56921 -7.7987,21.43897 -6.97854,1.86976 -15.22287,-4.69731 -17.8943,-14.66795 z"
         fill="#ca947b"
         stroke="#966e5c"
         stroke-width="5.5"
         id="path2" />
      <path
         d="m 279.70469,198.87746 c -6.97854,-1.86976 -10.47013,-11.4683 -7.7987,-21.43895 2.67143,-9.97064 10.49429,-16.53771 17.47283,-14.66795 6.97854,1.86976 10.8916,11.4683 8.22017,21.43895 -2.67143,9.97064 -10.91576,16.53771 -17.8943,14.66795 z"
         fill="#ca947b"
         stroke="#966e5c"
         stroke-width="5.5"
         id="path4" />
      <path
         d="m 243.31706,243.09946 h -6.97587 c -23.01758,0 -45.3362,-17.65206 -45.3362,-42.36221 0,-7.19997 2.6775,-14.10573 3.56644,-20.37025 0.85433,-6.02061 0.34296,-11.47147 0.34296,-14.93044 0,-18.6362 16.86178,-34.54222 36.69546,-38.09151 1.27938,-0.22894 1.84623,-2.70552 0.88685,-5.2522 -1.06887,-2.83732 -5.10755,-5.053 -3.65185,-5.053 0.47479,0 2.49728,-0.41182 4.70963,0.18066 1.96218,0.52548 4.0737,1.99218 5.38726,2.98193 4.00939,3.02104 6.1268,6.74219 7.39391,6.95397 20.54066,3.43311 38.4082,22.30397 38.4082,38.28014 0,3.27656 -0.89321,8.95797 -0.0882,14.56862 0.92992,6.4812 3.99761,13.16401 3.99761,20.73208 0,24.71015 -22.31862,42.36221 -45.3362,42.36221 z"
         fill="#bb533e"
         stroke="#8f3f2f"
         stroke-width="5.5"
         id="path6" />
      <path
         d="m 200.5247,173.67783 c 0,-11.32669 9.1821,-20.50879 20.50879,-20.50879 11.32669,0 20.5088,9.1821 20.5088,20.50879 0,11.32669 -9.18211,20.50879 -20.5088,20.50879 -11.32669,0 -20.50879,-9.1821 -20.50879,-20.50879 z"
         fill="#ca947b"
         stroke="#965341"
         stroke-width="0"
         id="path8" />
      <path
         d="m 238.45771,173.67783 c 0,-11.32669 9.1821,-20.50879 20.50879,-20.50879 11.32669,0 20.50879,9.1821 20.50879,20.50879 0,11.32669 -9.1821,20.50879 -20.50879,20.50879 -11.32669,0 -20.50879,-9.1821 -20.50879,-20.50879 z"
         fill="#ca947b"
         stroke="#965341"
         stroke-width="0"
         id="path10" />
      <path
         d="m 204.08386,205.28867 c 0,-19.83593 16.0802,-35.91614 35.91614,-35.91614 19.83593,0 35.91614,16.0802 35.91614,35.91614 0,19.83593 -16.0802,35.91614 -35.91614,35.91614 -19.83593,0 -35.91614,-16.0802 -35.91614,-35.91614 z"
         fill="#ca947b"
         stroke="none"
         stroke-width="0"
         id="path12" />
      <path
         d="m 215.76502,180 c 0,-6.28495 3.77404,-11.3799 8.42956,-11.3799 4.65552,0 8.42956,5.09495 8.42956,11.3799 0,6.28495 -3.77404,11.3799 -8.42956,11.3799 -4.65552,0 -8.42956,-5.09495 -8.42956,-11.3799 z"
         fill="#0b0d0e"
         stroke="none"
         stroke-width="0"
         id="path14" />
      <path
         d="m 247.37586,180 c 0,-6.28495 3.77404,-11.3799 8.42956,-11.3799 4.65552,0 8.42956,5.09495 8.42956,11.3799 0,6.28495 -3.77404,11.3799 -8.42956,11.3799 -4.65552,0 -8.42956,-5.09495 -8.42956,-11.3799 z"
         fill="#0b0d0e"
         stroke="none"
         stroke-width="0"
         id="path16" />
      <path
         d="m 230.21027,203.4837 c -1.56367,-1.56367 -1.56367,-4.09889 0,-5.66256 1.56367,-1.56367 4.09889,-1.56367 5.66256,0 1.56367,1.56367 1.56367,4.09889 0,5.66256 -1.56367,1.56367 -4.09889,1.56367 -5.66256,0 z"
         fill="#9a5542"
         stroke="none"
         stroke-width="0"
         id="path18" />
      <path
         d="m 244.12715,203.4837 c -1.56367,-1.56367 -1.56367,-4.09889 0,-5.66256 1.56367,-1.56367 4.09889,-1.56367 5.66256,0 1.56367,1.56367 1.56367,4.09889 0,5.66256 -1.56367,1.56367 -4.09889,1.56367 -5.66256,0 z"
         fill="#9a5542"
         stroke="none"
         stroke-width="0"
         id="path20" />
      <path
         d="m 219.45151,215.20934 c 3.65698,-3.94463 12.50405,-1.55192 20.66251,-1.84053 9.44656,-0.33418 18.22596,-2.72689 21.04887,1.84053 3.37366,5.45855 0.93321,11.3081 -4.62857,15.4188 -4.42147,3.26791 -11.1258,5.43689 -16.22712,5.43689 -4.97297,0 -11.84208,-2.31307 -16.45479,-5.62169 -6.07115,-4.35473 -8.85082,-10.43406 -4.40091,-15.234 z"
         fill="#9a5542"
         stroke="none"
         stroke-width="0"
         id="path22" />
    </g>
  </g>
</svg>
