<svg xmlns="http://www.w3.org/2000/svg" xml:space="preserve" width="84" height="84" viewBox="0 0 22.225 22.225"><defs><filter id="a" width="1" height="1" x="0" y="0" style="color-interpolation-filters:sRGB"><feColorMatrix result="colormatrix" values="1 0 0 0 0 0 1 0 0 0 0 0 1 0 0 0 0 0 547.623 -270.44"/><feComposite in2="colormatrix" k2=".24" operator="arithmetic" result="composite"/></filter></defs><g transform="translate(-2.902 -37.82)scale(.20394)"><circle cx="68.717" cy="239.936" r="51.989" style="opacity:1;fill:#ffc703;fill-opacity:1;fill-rule:nonzero;stroke:#584d00;stroke-width:4.99997;stroke-linecap:round;stroke-linejoin:round;stroke-miterlimit:4;stroke-dasharray:none;stroke-dashoffset:0;stroke-opacity:1;paint-order:normal"/><circle cx="45.798" cy="228.322" r="7.5" style="opacity:1;fill:#584d00;fill-opacity:1;fill-rule:nonzero;stroke:none;stroke-width:6.4123;stroke-linecap:round;stroke-linejoin:bevel;stroke-miterlimit:4;stroke-dasharray:none;stroke-dashoffset:0;stroke-opacity:1;paint-order:markers stroke fill"/><circle cx="90.716" cy="229.325" r="12.573" style="fill:#57fffd;fill-opacity:1;stroke:none;stroke-width:3;stroke-linecap:round;stroke-linejoin:round;stroke-dasharray:none;stroke-dashoffset:19.953;stroke-opacity:1;paint-order:stroke fill markers;filter:url(#a)" transform="matrix(1.02467 0 0 1 -2.548 0)"/><circle cx="-230.968" cy="89.675" r="7.5" style="opacity:1;fill:#584d00;fill-opacity:1;fill-rule:nonzero;stroke:none;stroke-width:6.4123;stroke-linecap:round;stroke-linejoin:bevel;stroke-miterlimit:4;stroke-dasharray:none;stroke-dashoffset:0;stroke-opacity:1;paint-order:markers stroke fill" transform="rotate(-90)"/><path d="M36.67 219.367c4.429-5.83 13.782-5.567 18.52 0M81.486 215.664c10.699-6.277 10.862-5.092 18.256-.53M50.795 258.526c8.433-4.607 24.367-1.357 33.866 2.117" style="fill:none;fill-opacity:1;stroke:#584d00;stroke-width:6.1;stroke-linecap:round;stroke-linejoin:round;stroke-opacity:1;paint-order:markers fill stroke"/><circle cx="90.716" cy="229.325" r="12.573" style="fill:none;stroke:#000;stroke-width:3.5;stroke-linecap:round;stroke-linejoin:round;stroke-dasharray:none;stroke-dashoffset:19.953;stroke-opacity:1;paint-order:normal"/><path d="M104.246 230.383s9.372 2.27 5.82 9.79c-8.853 18.752-6.598 55.774-.264 52.123" style="fill:none;fill-opacity:1;stroke:#000;stroke-width:3.50023984;stroke-linecap:round;stroke-linejoin:round;stroke-dasharray:none;stroke-dashoffset:19.953;stroke-opacity:1;paint-order:normal"/></g></svg>