<svg xmlns="http://www.w3.org/2000/svg" width="84" height="84" viewBox="0 0 22.225 22.225"><path d="M125.518 151.165q0-.19-.19-.19h-.54q-.19 0-.19.19v1.016q0 .19.19.19h.54q.19 0 .19-.19zm.572 1.016q0 .333-.153.486-.149.149-.482.149h-.794q-.333 0-.486-.15-.149-.152-.149-.485v-1.016q0-.334.15-.483.152-.152.485-.152h.794q.333 0 .482.152.153.15.153.483zm2 .127q0 .238-.136.374-.134.134-.372.134h-.73q-.238 0-.375-.134-.133-.136-.133-.374v-.73q0-.239.133-.372.137-.136.375-.136h.73q.238 0 .372.136.136.133.136.372zm-.555-.683q0-.127-.127-.127h-.381q-.127 0-.127.127v.635q0 .127.127.127h.38q.128 0 .128-.127zm2.206-.635q-.092-.006-.244-.019-.153-.012-.264-.012t-.143.031q-.031.032-.031.08v.158h.523v.429h-.523v1.127h-.556v-1.127h-.222v-.429h.222v-.222q0-.216.13-.346t.346-.13q.194 0 .41.013l.352.019z" aria-label="Oof" style="font-size:3.175px;font-family:&quot;Russo One&quot;;-inkscape-font-specification:&quot;Russo One&quot;;fill:#fff;fill-opacity:1;stroke:#000;stroke-width:.157036;stroke-dasharray:none;stroke-opacity:1" transform="matrix(2.48295 0 0 2.48295 -307.756 -365.484)"/><path d="M130.82 150.816v.889h-.413v-.89h-.38v-.285h1.174v.286zm1.08.666-.191-.349v.572h-.413v-1.175h.413l.35.635.348-.635h.413v1.175h-.413v-.572l-.19.35z" aria-label="™" style="font-size:3.175px;font-family:&quot;Russo One&quot;;-inkscape-font-specification:&quot;Russo One&quot;;fill:#fff;fill-opacity:1;stroke:#000;stroke-width:.157036;stroke-dasharray:none;stroke-opacity:1" transform="matrix(2.48295 0 0 2.48295 -307.756 -365.484)"/></svg>