<svg xmlns="http://www.w3.org/2000/svg" xmlns:xlink="http://www.w3.org/1999/xlink" xml:space="preserve" width="84" height="84" viewBox="0 0 22.225 22.225"><defs><linearGradient id="a"><stop offset="0" style="stop-color:#ffff3a;stop-opacity:1"/><stop offset=".616" style="stop-color:#f4a600;stop-opacity:1"/></linearGradient><linearGradient xlink:href="#b" id="f" x1="108.577" x2="119.471" y1="68.288" y2="67.659" gradientUnits="userSpaceOnUse"/><linearGradient id="b"><stop offset=".183" style="stop-color:#2a2a2a;stop-opacity:1"/><stop offset="1" style="stop-color:#3d3d3d;stop-opacity:1"/></linearGradient><linearGradient xlink:href="#b" id="g" x1="85.521" x2="100.71" y1="64.216" y2="52.177" gradientTransform="translate(20.458 -.2)" gradientUnits="userSpaceOnUse"/><linearGradient id="c"><stop offset="0" style="stop-color:#494949;stop-opacity:1"/><stop offset="1" style="stop-color:#262626;stop-opacity:1"/></linearGradient><linearGradient xlink:href="#d" id="i" x1="110.535" x2="115.36" y1="76.023" y2="72.562" gradientUnits="userSpaceOnUse"/><linearGradient id="d"><stop offset="0" style="stop-color:#52322b;stop-opacity:1"/><stop offset="1" style="stop-color:#74483e;stop-opacity:1"/></linearGradient><radialGradient xlink:href="#a" id="e" cx="119.627" cy="61.307" r="7.078" fx="119.627" fy="61.307" gradientTransform="matrix(1.05233 .00008 .00014 1.95981 -1.93 -57.268)" gradientUnits="userSpaceOnUse"/><radialGradient xlink:href="#c" id="h" cx="93.049" cy="55.65" r="7.661" fx="93.049" fy="55.65" gradientTransform="translate(20.458 -.2)" gradientUnits="userSpaceOnUse"/></defs><g transform="matrix(.42697 .45648 -.45331 .40119 -12.003 -70.837)"><g style="stroke-width:.95028"><circle cx="62.97" cy="247.59" r="30.621" style="opacity:1;fill:#ff0a0a;fill-opacity:1;fill-rule:nonzero;stroke:#5d0000;stroke-width:2.94091;stroke-linecap:round;stroke-linejoin:round;stroke-miterlimit:4;stroke-dasharray:none;stroke-dashoffset:0;stroke-opacity:1;paint-order:normal" transform="matrix(.26934 -.30646 .30438 .2867 36.174 11.814)"/></g><ellipse cx="30.365" cy="140.456" rx="1.626" ry="1.319" style="fill:#5d0000;fill-opacity:1;stroke:#5d0000;stroke-width:.958418;stroke-linecap:round;stroke-linejoin:round;stroke-dasharray:none;stroke-opacity:1" transform="matrix(.70532 -.70889 .77694 .62958 0 0)"/><ellipse cx="-19.601" cy="141.934" rx="1.324" ry="1.681" style="fill:#5d0000;fill-opacity:1;stroke:#5d0000;stroke-width:.964442;stroke-linecap:round;stroke-linejoin:round;stroke-dasharray:none;stroke-opacity:1" transform="matrix(.11271 -.99363 .95514 .29617 0 0)"/><path d="m134.415 70.725-.442-2.844 2.451-.157-.77-2.42 2.311-.363" style="fill:none;fill-opacity:1;stroke:#5d0000;stroke-width:.899193;stroke-linecap:square;stroke-linejoin:miter;stroke-dasharray:none;stroke-opacity:1"/><path d="m119.079 68.24-1.585 3.928 2.727-1.932 1.87 4.986 1.064-4.68 3.534 2.485-2.37-4.765 3.574 1.14-2.878-4.707 3.386-2.031-3.228-1.966 3.709-2.572-2.624-.398 3.526-1.67-2.816-1.654 3.019-2.914-4.513.97-.444-2.126-1.658 3.217-1.62 1.237z" style="fill:url(#e);fill-opacity:1;stroke:#5d0000;stroke-width:.865046;stroke-linecap:butt;stroke-linejoin:miter;stroke-dasharray:none;stroke-opacity:1;paint-order:normal"/><g style="stroke-width:.975458" transform="matrix(.79835 .00002 .00002 .79834 24.982 16.316)"><circle cx="113.538" cy="45.251" r="2.348" style="fill:#494949;fill-opacity:1;stroke:#232323;stroke-width:1.073;stroke-linecap:round;stroke-linejoin:miter;stroke-dasharray:none;stroke-opacity:1;paint-order:fill markers stroke"/><circle cx="123.888" cy="55.451" r="2.348" style="fill:#494949;fill-opacity:1;stroke:#232323;stroke-width:1.073;stroke-linecap:round;stroke-linejoin:miter;stroke-dasharray:none;stroke-opacity:1;paint-order:fill markers stroke"/><circle cx="103.188" cy="55.451" r="2.348" style="fill:#494949;fill-opacity:1;stroke:#232323;stroke-width:1.073;stroke-linecap:round;stroke-linejoin:miter;stroke-dasharray:none;stroke-opacity:1;paint-order:fill markers stroke"/><path d="m108.036 64.373 5.488.927 5.397-.896v0c-1.964 1.33-4.796 3.317-4.836 4.452-.009.264.4 2.037.236 2.042-.163.004-.662.048-.836.048s-.592-.035-.741-.039.104-1.734.08-2.057c-.084-1.189-3.931-3.865-4.789-4.477" style="fill:url(#f);stroke:#242424;stroke-width:1.073;stroke-linecap:round;stroke-linejoin:round;paint-order:fill markers stroke"/><path d="M124.223 55.45c0 2.96-1.2 5.639-3.139 7.578a10.68 10.68 0 0 1-7.577 3.138c-5.918 0-10.715-4.797-10.715-10.715s4.797-10.716 10.715-10.716c2.96 0 5.638 1.2 7.577 3.138a10.68 10.68 0 0 1 3.139 7.578z" style="fill:url(#g);stroke:#242424;stroke-width:1.073;stroke-linecap:square;paint-order:fill markers stroke"/><circle cx="113.507" cy="55.451" r="7.111" style="fill:url(#h);stroke:#232323;stroke-width:1.073;stroke-linecap:round;stroke-linejoin:round;stroke-dasharray:none;stroke-opacity:1;paint-order:fill markers stroke"/><path d="M112.803 69.388h1.35v0s2.286 12.23-.675 12.242c-2.833.01-.817-10.007-.675-12.242" style="fill:url(#i);fill-opacity:1;stroke:#2f1d19;stroke-width:1.073;stroke-linecap:round;stroke-linejoin:round;stroke-opacity:1;paint-order:fill markers stroke"/></g></g></svg>