<?xml version="1.0" encoding="UTF-8" standalone="no"?>
<!-- Created with Inkscape (http://www.inkscape.org/) -->

<svg
   width="128.97701mm"
   height="128.97701mm"
   viewBox="0 0 128.97701 128.97701"
   version="1.1"
   id="svg8"
   inkscape:version="1.2.2 (732a01da63, 2022-12-09)"
   sodipodi:docname="Emoji-Picasso.svg"
   xml:space="preserve"
   xmlns:inkscape="http://www.inkscape.org/namespaces/inkscape"
   xmlns:sodipodi="http://sodipodi.sourceforge.net/DTD/sodipodi-0.dtd"
   xmlns="http://www.w3.org/2000/svg"
   xmlns:svg="http://www.w3.org/2000/svg"
   xmlns:rdf="http://www.w3.org/1999/02/22-rdf-syntax-ns#"
   xmlns:cc="http://creativecommons.org/ns#"
   xmlns:dc="http://purl.org/dc/elements/1.1/"><defs
     id="defs2"><marker
       inkscape:stockid="EmptyDiamondL"
       orient="auto"
       refY="0"
       refX="0"
       id="EmptyDiamondL"
       style="overflow:visible"
       inkscape:isstock="true"><path
         id="path937"
         d="M 0,-7.0710768 -7.0710894,0 0,7.0710589 7.0710462,0 Z"
         style="fill:#000000;fill-opacity:1;fill-rule:evenodd;stroke:#060606;stroke-width:1pt;stroke-opacity:1"
         transform="scale(0.8)"
         inkscape:connector-curvature="0" /></marker><marker
       inkscape:stockid="Arrow1Lstart"
       orient="auto"
       refY="0"
       refX="0"
       id="marker1115"
       style="overflow:visible"
       inkscape:isstock="true"><path
         id="path1113"
         d="M 0,0 5,-5 -12.5,0 5,5 Z"
         style="fill:#ffffff;fill-opacity:1;fill-rule:evenodd;stroke:#000000;stroke-width:1pt;stroke-opacity:1"
         transform="matrix(0.8,0,0,0.8,10,0)"
         inkscape:connector-curvature="0" /></marker><marker
       inkscape:stockid="Arrow1Lstart"
       orient="auto"
       refY="0"
       refX="0"
       id="Arrow1Lstart"
       style="overflow:visible"
       inkscape:isstock="true"><path
         id="path831"
         d="M 0,0 5,-5 -12.5,0 5,5 Z"
         style="fill:#ffffff;fill-opacity:1;fill-rule:evenodd;stroke:#000000;stroke-width:1pt;stroke-opacity:1"
         transform="matrix(0.8,0,0,0.8,10,0)"
         inkscape:connector-curvature="0" /></marker><filter
       y="-0.17175695"
       height="1.3435138"
       inkscape:menu-tooltip="Darkens the edge with an inner blur and adds a flexible glow"
       inkscape:menu="Shadows and Glows"
       inkscape:label="Dark and Glow"
       style="color-interpolation-filters:sRGB"
       id="filter43338"
       x="-0.17175695"
       width="1.3435138"><feGaussianBlur
         stdDeviation="5"
         result="result6"
         id="feGaussianBlur43328" /><feComposite
         result="result8"
         in="SourceGraphic"
         operator="atop"
         in2="result6"
         id="feComposite43330" /><feComposite
         result="result9"
         operator="over"
         in2="SourceAlpha"
         in="result8"
         id="feComposite43332" /><feColorMatrix
         values="1 0 0 0 0 0 1 0 0 0 0 0 1 0 0 0 0 0 1 0 "
         result="result10"
         id="feColorMatrix43334" /><feBlend
         in="result10"
         mode="normal"
         in2="result6"
         id="feBlend43336" /></filter></defs><sodipodi:namedview
     id="base"
     pagecolor="#ffffff"
     bordercolor="#666666"
     borderopacity="1.0"
     inkscape:pageopacity="0"
     inkscape:pageshadow="2"
     inkscape:zoom="1.3376546"
     inkscape:cx="220.90904"
     inkscape:cy="257.16654"
     inkscape:document-units="mm"
     inkscape:current-layer="layer1"
     showgrid="true"
     inkscape:snap-global="true"
     objecttolerance="20"
     inkscape:snap-path-clip="false"
     inkscape:object-nodes="false"
     inkscape:snap-object-midpoints="false"
     inkscape:snap-grids="true"
     inkscape:snap-to-guides="true"
     inkscape:window-width="1280"
     inkscape:window-height="961"
     inkscape:window-x="-8"
     inkscape:window-y="-8"
     inkscape:window-maximized="1"
     showguides="true"
     inkscape:showpageshadow="2"
     inkscape:pagecheckerboard="0"
     inkscape:deskcolor="#d1d1d1"><inkscape:grid
       type="xygrid"
       id="grid1442"
       visible="false"
       empspacing="5"
       originx="0"
       originy="0"
       snapvisiblegridlinesonly="false" /></sodipodi:namedview><metadata
     id="metadata5"><rdf:RDF><cc:Work
         rdf:about=""><dc:format>image/svg+xml</dc:format><dc:type
           rdf:resource="http://purl.org/dc/dcmitype/StillImage" /></cc:Work></rdf:RDF></metadata><g
     inkscape:label="Layer 1"
     inkscape:groupmode="layer"
     id="layer1"
     transform="translate(0,-183.023)"><path
       id="path46683"
       style="fill:#ffc703;fill-opacity:1;stroke:#584d00;stroke-width:10;stroke-linecap:round;stroke-linejoin:round;stroke-dasharray:none;stroke-dashoffset:19.953;stroke-opacity:1;paint-order:stroke fill markers"
       d="m 46.928605,198.41837 -8.489404,3.65663 c -5.046293,2.9314 -8.921424,7.0007 -12.964583,11.1125 l -3.993555,5.4007 c -1.727222,2.35225 -2.954308,4.94819 -4.208529,7.56388 l -3.297473,8.79326 -1.200443,8.66924 c -0.552001,3.57174 -0.417955,6.94462 0.12609,10.46499 l 2.14974,9.64334 4.609537,9.73688 c 1.43533,3.03759 3.546063,5.47324 5.709213,7.99021 3.857016,4.49052 7.326383,6.98039 12.170833,10.05416 2.69998,1.87327 5.645432,3.25735 8.591724,4.68137 6.320843,2.58114 12.163725,2.92706 18.890836,3.43338 9.118261,-0.76346 -0.87873,-0.56652 8.765357,-0.70641 l 10.583333,-21.96042 3.96875,-13.49375 c 4.689494,-15.03302 14.993059,-8.90764 20.372919,-13.22917 5.37485,-4.00397 8.10809,-5.15342 7.36441,-11.52332 -0.079,-4.46174 -1.90226,-8.4226 -3.39566,-12.55376 l -3.79719,-6.53138 -4.93406,-6.4332 c -1.96175,-2.607 -4.415933,-4.58769 -6.927745,-6.61665 -1.901582,-1.49947 -3.959836,-2.73601 -6.036841,-3.96669 -2.489777,-1.62599 -5.202714,-2.75938 -7.917346,-3.93722 -2.320582,-0.9408 -4.748303,-1.51563 -7.163904,-2.14819 -3.646285,-1.05122 -7.262791,-1.05834 -11.00708,-1.05834 -6.195442,-0.54588 -12.090822,1.26402 -17.968929,2.95796 z"
       sodipodi:nodetypes="cccccccccccccccccccccccccccc" /><circle
       style="opacity:1;fill:#ffc703;fill-opacity:1;fill-rule:nonzero;stroke:#584d00;stroke-width:10;stroke-linecap:round;stroke-linejoin:round;stroke-miterlimit:4;stroke-dasharray:none;stroke-dashoffset:0;stroke-opacity:1;paint-order:markers stroke fill"
       id="path10"
       cx="-100.26145"
       cy="231.45738"
       r="49.488537" /><circle
       style="opacity:1;fill:#584d00;fill-opacity:1;fill-rule:nonzero;stroke:none;stroke-width:6.4123;stroke-linecap:round;stroke-linejoin:bevel;stroke-miterlimit:4;stroke-dasharray:none;stroke-dashoffset:0;stroke-opacity:1;paint-order:markers stroke fill"
       id="path5010"
       cx="38.802082"
       cy="250.05424"
       r="7.5" /><circle
       cy="90.73349"
       cx="-228.85165"
       id="circle5014"
       style="opacity:1;fill:#584d00;fill-opacity:1;fill-rule:nonzero;stroke:none;stroke-width:6.4123;stroke-linecap:round;stroke-linejoin:bevel;stroke-miterlimit:4;stroke-dasharray:none;stroke-dashoffset:0;stroke-opacity:1;paint-order:markers stroke fill"
       transform="rotate(-90)"
       r="7.5" /><path
       style="fill:none;fill-opacity:1;stroke:#584d00;stroke-width:6.1;stroke-linecap:round;stroke-linejoin:round;stroke-opacity:1;paint-order:markers fill stroke"
       d="m 29.674311,241.09999 c 4.429119,-5.83041 13.782425,-5.56748 18.520834,0"
       id="path46180"
       sodipodi:nodetypes="cc" /><path
       style="fill:none;fill-opacity:1;stroke:#584d00;stroke-width:6.1;stroke-linecap:round;stroke-linejoin:round;stroke-opacity:1;paint-order:markers fill stroke"
       d="m 68.79167,274.84455 c -8.433752,4.60752 -20.662951,1.35767 -30.1625,-2.11666"
       id="path47762"
       sodipodi:nodetypes="cc" /><g
       id="g16775"
       transform="matrix(0.20071953,0,0,0.20071953,-17.572525,140.78019)"><path
         class="st0"
         d="m 559.5,773.5 c 0,0 -2,1 -17,7 -15,6 -48,20 -105,10 -57,-10 -47,-153 -32,-175 15,-22 0,-64 0,-64 0,0 -8,-18 7,-19 15,-1 28,26 28,26 0,0 12,27 15,55 3,28 14,31 42,28 28,-3 113,-27 136,-5 23,22 -108,33 -108,33 0,0 -19,5 2,7 11.9,1.1 63.5,-2.9 68,12 7,23 -8.6,22.5 -13,26 -1.6,1.3 -1.9,4.2 -1,6 3.8,7.2 8.5,20.5 -5,27 -1.2,0.6 -2.5,2.8 -2,4 2.2,5.4 12.1,17.2 -15,22 z"
         id="path16760" /><path
         class="st1"
         d="m 581.1,716.3 c 0,0 -47.2,5.8 -55.9,0"
         id="path16762" /><path
         class="st1"
         d="m 574.6,748.7 c 0,0 -28.1,3.8 -36.1,-0.2"
         id="path16764" /></g><path
       style="fill:none;fill-opacity:1;stroke:#584d00;stroke-width:6.1;stroke-linecap:round;stroke-linejoin:round;stroke-opacity:1;paint-order:markers fill stroke"
       d="m 82.396217,238.03717 c -5.8304,-4.42912 -5.56748,-13.78243 0,-18.52084"
       id="path46083"
       sodipodi:nodetypes="cc" /></g><style
     type="text/css"
     id="style16758">
	.st0{fill:#FFC300;stroke:#695000;stroke-width:13;stroke-miterlimit:10;}
	.st1{fill:#FFC300;stroke:#695000;stroke-width:13;stroke-linecap:round;stroke-miterlimit:10;}
</style></svg>
