<svg xmlns="http://www.w3.org/2000/svg" width="84" height="84" viewBox="0 0 22.225 22.225"><g transform="matrix(.1891 0 0 .1891 .387 .831)"><g style="fill:#8a4c70;fill-opacity:1;stroke:none;stroke-opacity:1"><path d="M83.52 195.719a24.25 40.004 0 0 0-24.25 40.003 24.25 40.004 0 0 0 24.25 40.004 24.25 40.004 0 0 0 2.524-.24 24.25 40.004 0 0 0 9.645 3.3 24.25 40.004 0 0 0 6.08-1.297 24.25 40.004 0 0 0 11.913 5.187 24.25 40.004 0 0 0 12.095-5.356 24.25 40.004 0 0 0 6.499 1.466 24.25 40.004 0 0 0 9.536-3.23 24.25 40.004 0 0 0 2.105.17 24.25 40.004 0 0 0 24.249-40.004 24.25 40.004 0 0 0-24.25-40.003 24.25 40.004 0 0 0-9.514 3.216 24.25 40.004 0 0 0-2.126-.156 24.25 40.004 0 0 0-12.095 5.356 24.25 40.004 0 0 0-6.5-1.466 24.25 40.004 0 0 0-6.06 1.29 24.25 40.004 0 0 0-11.932-5.18 24.25 40.004 0 0 0-2.527.242 24.25 40.004 0 0 0-9.643-3.302" style="fill:#8a4c70;fill-opacity:1;stroke:none;stroke-width:4.54104;stroke-linecap:round;stroke-linejoin:round;stroke-dasharray:none;stroke-opacity:1;paint-order:fill markers stroke" transform="translate(-56.977 -171.817)"/></g><path d="M38.712 26.962a24.25 40.004 0 0 0-24.25 40.003 24.25 40.004 0 0 0 24.25 40.004 24.25 40.004 0 0 0 18.294-13.78 24.25 40.004 0 0 0 18.293 13.78 24.25 40.004 0 0 0 24.249-40.004 24.25 40.004 0 0 0-24.249-40.003 24.25 40.004 0 0 0-18.286 13.764 24.25 40.004 0 0 0-18.3-13.764" style="fill:#9a557d;fill-opacity:1;stroke:none;stroke-width:4.54104;stroke-linecap:round;stroke-linejoin:round;stroke-dasharray:none;stroke-opacity:1;paint-order:fill markers stroke"/><circle cx="97.095" cy="49.51" r="9.341" style="fill:#693a55;fill-opacity:1;stroke:none;stroke-width:3.49999;stroke-linecap:round;stroke-linejoin:round;stroke-dasharray:none;stroke-opacity:1;paint-order:fill markers stroke"/><circle cx="25.898" cy="43.138" r="5.339" style="fill:#693a55;fill-opacity:1;stroke:none;stroke-width:3.49999;stroke-linecap:round;stroke-linejoin:round;stroke-dasharray:none;stroke-opacity:1;paint-order:fill markers stroke"/><circle cx="23.674" cy="82.07" r="7.564" style="fill:#693a55;fill-opacity:1;stroke:none;stroke-width:3.49999;stroke-linecap:round;stroke-linejoin:round;stroke-dasharray:none;stroke-opacity:1;paint-order:fill markers stroke"/><circle cx="13.609" cy="54.262" r="6.452" style="fill:#693a55;fill-opacity:1;stroke:none;stroke-width:3.49999;stroke-linecap:round;stroke-linejoin:round;stroke-dasharray:none;stroke-opacity:1;paint-order:fill markers stroke"/><circle cx="94.641" cy="82.515" r="9.344" style="fill:#693a55;fill-opacity:1;stroke:none;stroke-width:3.49999;stroke-linecap:round;stroke-linejoin:round;stroke-dasharray:none;stroke-opacity:1;paint-order:fill markers stroke"/><path d="M38.69 26.962a24.25 40.004 0 0 0-24.25 40.003 24.25 40.004 0 0 0 24.25 40.004 24.25 40.004 0 0 0 18.293-13.78 24.25 40.004 0 0 0 18.294 13.78 24.25 40.004 0 0 0 24.248-40.004 24.25 40.004 0 0 0-24.248-40.003A24.25 40.004 0 0 0 56.99 40.726 24.25 40.004 0 0 0 38.69 26.962" style="fill:none;fill-opacity:1;stroke:#21121b;stroke-width:4.54104;stroke-linecap:round;stroke-linejoin:round;stroke-dasharray:none;stroke-opacity:1;paint-order:fill markers stroke"/><ellipse cx="56.705" cy="70.856" rx="24.249" ry="40.004" style="fill:#a45b85;fill-opacity:1;stroke:none;stroke-width:4.54104;stroke-linecap:round;stroke-linejoin:round;stroke-dasharray:none;stroke-opacity:1;paint-order:fill markers stroke"/><g style="fill:none;fill-opacity:1;stroke:#21121b;stroke-opacity:1"><path d="M83.52 195.719a24.25 40.004 0 0 0-24.25 40.003 24.25 40.004 0 0 0 24.25 40.004 24.25 40.004 0 0 0 2.524-.24 24.25 40.004 0 0 0 9.645 3.3 24.25 40.004 0 0 0 6.08-1.297 24.25 40.004 0 0 0 11.913 5.187 24.25 40.004 0 0 0 12.095-5.356 24.25 40.004 0 0 0 6.499 1.466 24.25 40.004 0 0 0 9.536-3.23 24.25 40.004 0 0 0 2.105.17 24.25 40.004 0 0 0 24.249-40.004 24.25 40.004 0 0 0-24.25-40.003 24.25 40.004 0 0 0-9.514 3.216 24.25 40.004 0 0 0-2.126-.156 24.25 40.004 0 0 0-12.095 5.356 24.25 40.004 0 0 0-6.5-1.466 24.25 40.004 0 0 0-6.06 1.29 24.25 40.004 0 0 0-11.932-5.18 24.25 40.004 0 0 0-2.527.242 24.25 40.004 0 0 0-9.643-3.302" style="fill:none;fill-opacity:1;stroke:#21121b;stroke-width:4.54104;stroke-linecap:round;stroke-linejoin:round;stroke-dasharray:none;stroke-opacity:1;paint-order:fill markers stroke" transform="translate(-57 -171.817)"/></g><circle cx="32.616" cy="66.262" r="7.521" style="fill:#693a55;fill-opacity:1;stroke:none;stroke-width:3.49999;stroke-linecap:round;stroke-linejoin:round;stroke-dasharray:none;stroke-opacity:1;paint-order:fill markers stroke"/><circle cx="40.136" cy="58.742" r="7.521" style="fill:#693a55;fill-opacity:1;stroke:none;stroke-width:3.49999;stroke-linecap:round;stroke-linejoin:round;stroke-dasharray:none;stroke-opacity:1;paint-order:fill markers stroke"/><circle cx="74.305" cy="43.376" r="7.579" style="fill:#693a55;fill-opacity:1;stroke:none;stroke-width:3.49999;stroke-linecap:round;stroke-linejoin:round;stroke-dasharray:none;stroke-opacity:1;paint-order:fill markers stroke"/><circle cx="79.279" cy="37.657" r="5.234" style="fill:#693a55;fill-opacity:1;stroke:none;stroke-width:3.49999;stroke-linecap:round;stroke-linejoin:round;stroke-dasharray:none;stroke-opacity:1;paint-order:fill markers stroke"/><circle cx="57.044" cy="105.123" r="6.897" style="fill:#693a55;fill-opacity:1;stroke:none;stroke-width:3.49999;stroke-linecap:round;stroke-linejoin:round;stroke-dasharray:none;stroke-opacity:1;paint-order:fill markers stroke"/><ellipse cx="56.682" cy="70.855" rx="24.249" ry="40.004" style="fill:none;fill-opacity:1;stroke:#21121b;stroke-width:4.54104;stroke-linecap:round;stroke-linejoin:round;stroke-dasharray:none;stroke-opacity:1;paint-order:fill markers stroke"/><circle cx="54.819" cy="83.85" r="9.789" style="fill:#693a55;fill-opacity:1;stroke:none;stroke-width:3.49999;stroke-linecap:round;stroke-linejoin:round;stroke-dasharray:none;stroke-opacity:1;paint-order:fill markers stroke"/><circle cx="59.558" cy="75.285" r="13.304" style="fill:#693a55;fill-opacity:1;stroke:none;stroke-width:3.49999;stroke-linecap:round;stroke-linejoin:round;stroke-dasharray:none;stroke-opacity:1;paint-order:fill markers stroke"/><circle cx="56.154" cy="42.471" r="7.341" style="fill:#693a55;fill-opacity:1;stroke:none;stroke-width:3.49999;stroke-linecap:round;stroke-linejoin:round;stroke-dasharray:none;stroke-opacity:1;paint-order:fill markers stroke"/><circle cx="57.044" cy="52.482" r="6.229" style="fill:#693a55;fill-opacity:1;stroke:none;stroke-width:3.49999;stroke-linecap:round;stroke-linejoin:round;stroke-dasharray:none;stroke-opacity:1;paint-order:fill markers stroke"/><path d="M45.164 27.575c2.464-2.546 1.763-3.862 7.284-7.39l9.825-16.318C72.59-9.185 69.066.664 68.724 5.2l-8.268 15.651c5.61 2.957 3.732 5.288 7.824 6.795-10.059 4.65-14.47 3.901-23.116-.072" style="fill:#8b7f50;fill-opacity:1;stroke:#262316;stroke-width:3.49999;stroke-linecap:round;stroke-linejoin:round;stroke-dasharray:none;stroke-opacity:1;paint-order:fill markers stroke"/></g></svg>