<?xml version="1.0" encoding="UTF-8" standalone="no"?>
<!-- Created with Inkscape (http://www.inkscape.org/) -->

<svg
   width="84"
   height="84"
   viewBox="0 0 22.225 22.225"
   version="1.1"
   id="svg1"
   inkscape:export-filename="bitmap.png"
   inkscape:export-xdpi="585.14288"
   inkscape:export-ydpi="585.14288"
   inkscape:version="1.3.2 (1:1.3.2+202311252150+091e20ef0f)"
   sodipodi:docname="real.svg"
   xmlns:inkscape="http://www.inkscape.org/namespaces/inkscape"
   xmlns:sodipodi="http://sodipodi.sourceforge.net/DTD/sodipodi-0.dtd"
   xmlns="http://www.w3.org/2000/svg"
   xmlns:svg="http://www.w3.org/2000/svg">
  <sodipodi:namedview
     id="namedview1"
     pagecolor="#505050"
     bordercolor="#ffffff"
     borderopacity="1"
     inkscape:showpageshadow="0"
     inkscape:pageopacity="0"
     inkscape:pagecheckerboard="1"
     inkscape:deskcolor="#d1d1d1"
     inkscape:document-units="px"
     inkscape:zoom="8.4737935"
     inkscape:cx="36.170341"
     inkscape:cy="28.027589"
     inkscape:window-width="2560"
     inkscape:window-height="1368"
     inkscape:window-x="0"
     inkscape:window-y="0"
     inkscape:window-maximized="1"
     inkscape:current-layer="layer1" />
  <defs
     id="defs1" />
  <g
     inkscape:label="Layer 1"
     inkscape:groupmode="layer"
     id="layer1"
     transform="translate(-59.71067,-104.68982)">
    <path
       style="font-size:11.4043px;line-height:1.25;font-family:'Russo One';-inkscape-font-specification:'Russo One';letter-spacing:0px;word-spacing:0px;fill:#ffffff;stroke:#000000;stroke-width:0.499894"
       d="m 63.438907,115.34615 q -0.718471,0 -1.482559,0.34212 v 4.04853 h -1.995752 v -6.04428 h 1.767666 l 0.114043,0.74128 q 0.98077,-0.85532 2.052774,-0.85532 h 0.513194 v 1.76767 z m 3.877446,-0.34213 q -0.456172,0 -0.456172,0.45617 v 0.62724 h 1.938731 v -0.62724 q 0,-0.45617 -0.456172,-0.45617 z m 3.250226,4.61874 q -2.20103,0.22808 -3.991505,0.22808 -0.775492,0 -1.243069,-0.46757 -0.467576,-0.46758 -0.467576,-1.24307 v -2.73703 q 0,-0.85533 0.478981,-1.33431 0.490384,-0.49038 1.345707,-0.49038 h 2.28086 q 0.855322,0 1.334303,0.49038 0.490385,0.47898 0.490385,1.33431 v 2.10979 h -3.934484 v 0.45617 q 0,0.17107 0.114043,0.28511 0.114043,0.11405 0.285108,0.11405 1.129026,0 3.307247,-0.17107 z m 3.649359,-1.36852 q 0.604428,0 1.368516,-0.22808 v -0.68426 h -1.653623 q -0.171065,0 -0.285108,0.11404 -0.114043,0.11404 -0.114043,0.28511 v 0.11404 q 0,0.17107 0.114043,0.28511 0.114043,0.11404 0.285108,0.11404 z m -2.109795,-4.44767 q 2.086986,-0.22809 3.763419,-0.22809 0.775492,0 1.243068,0.46758 0.467577,0.46757 0.467577,1.24306 v 4.44768 H 75.81254 l -0.114043,-0.57021 q -0.536002,0.35353 -1.106217,0.52459 -0.558811,0.15966 -0.946557,0.15966 h -0.39915 q -0.775493,0 -1.243069,-0.46757 -0.467576,-0.46758 -0.467576,-1.24307 v -0.51319 q 0,-0.7755 0.467576,-1.24307 0.467576,-0.46758 1.243069,-0.46758 h 2.337881 v -0.45617 q 0,-0.17107 -0.114043,-0.28511 -0.114043,-0.11404 -0.285107,-0.11404 -0.74128,0 -1.64222,0.0684 -0.889535,0.0684 -1.436941,0.10264 z m 9.579602,5.93023 q -0.764088,0.11404 -1.45975,0.11404 -0.684258,0 -1.151834,-0.46757 -0.467577,-0.46758 -0.467577,-1.24307 v -6.38641 h 1.995753 v 6.1013 q 0,0.17107 0.114043,0.28511 0.114043,0.11404 0.285107,0.11404 h 0.684258 z"
       id="text1"
       aria-label="real" />
  </g>
</svg>
