<?xml version="1.0" encoding="UTF-8" standalone="no"?>
<svg
   version="1.1"
   width="84"
   height="84"
   viewBox="0 0 83.999993 83.999993"
   id="svg34"
   sodipodi:docname="smirking_face.svg"
   inkscape:version="1.1.2 (0a00cf5339, 2022-02-04)"
   xmlns:inkscape="http://www.inkscape.org/namespaces/inkscape"
   xmlns:sodipodi="http://sodipodi.sourceforge.net/DTD/sodipodi-0.dtd"
   xmlns="http://www.w3.org/2000/svg"
   xmlns:svg="http://www.w3.org/2000/svg">
  <defs
     id="defs38" />
  <sodipodi:namedview
     id="namedview36"
     pagecolor="#505050"
     bordercolor="#ffffff"
     borderopacity="1"
     inkscape:pageshadow="0"
     inkscape:pageopacity="0"
     inkscape:pagecheckerboard="1"
     showgrid="false"
     inkscape:zoom="3.3741008"
     inkscape:cx="-12.744136"
     inkscape:cy="-5.9275052"
     inkscape:window-width="2560"
     inkscape:window-height="1372"
     inkscape:window-x="0"
     inkscape:window-y="0"
     inkscape:window-maximized="1"
     inkscape:current-layer="svg34" />
  <path
     d=""
     fill="#ffcc4d"
     stroke="none"
     stroke-width="1"
     stroke-linecap="butt"
     id="path2"
     style="mix-blend-mode:normal;fill-rule:nonzero;stroke-linejoin:miter;stroke-miterlimit:10;stroke-dasharray:none;stroke-dashoffset:0" />
  <path
     d=""
     fill="#664500"
     stroke="none"
     stroke-width="1"
     stroke-linecap="butt"
     id="path4"
     style="mix-blend-mode:normal;fill-rule:nonzero;stroke-linejoin:miter;stroke-miterlimit:10;stroke-dasharray:none;stroke-dashoffset:0" />
  <path
     d=""
     fill="#f5f8fa"
     stroke="none"
     stroke-width="1"
     stroke-linecap="butt"
     id="path6"
     style="mix-blend-mode:normal;fill-rule:nonzero;stroke-linejoin:miter;stroke-miterlimit:10;stroke-dasharray:none;stroke-dashoffset:0" />
  <path
     d=""
     fill="#e1e8ed"
     stroke="none"
     stroke-width="1"
     stroke-linecap="butt"
     id="path8"
     style="mix-blend-mode:normal;fill-rule:nonzero;stroke-linejoin:miter;stroke-miterlimit:10;stroke-dasharray:none;stroke-dashoffset:0" />
  <g
     id="g844"
     transform="matrix(0.65625255,0,0,0.65625255,8.8449123e-5,8.5046023e-5)">
    <path
       d="m 2.4792574,64 c 0,-33.976957 27.5437956,-61.5207525 61.5207526,-61.5207525 33.976986,0 61.52075,27.5437955 61.52075,61.5207525 0,33.976986 -27.543764,61.52075 -61.52075,61.52075 C 30.023053,125.52075 2.4792574,97.976986 2.4792574,64 Z"
       fill="#f3be3a"
       stroke="#b76b00"
       stroke-width="4.9585"
       stroke-linecap="butt"
       id="path10"
       style="mix-blend-mode:normal;fill:#ffc703;fill-opacity:1;fill-rule:nonzero;stroke:#584d00;stroke-width:4.958;stroke-linejoin:miter;stroke-miterlimit:10;stroke-dasharray:none;stroke-dashoffset:0;stroke-opacity:1" />
    <path
       d="m 19.814176,49.831497 c 0,0 0.306128,-6.334716 9.868823,-12.008216 9.881101,-5.364972 19.410267,-2.700396 19.410267,-2.700396"
       data-paper-data="{&quot;index&quot;:null}"
       fill="none"
       stroke="#000000"
       stroke-width="4.9585"
       stroke-linecap="round"
       id="path12"
       style="mix-blend-mode:normal;fill-rule:nonzero;stroke:#584d00;stroke-linejoin:miter;stroke-miterlimit:10;stroke-dasharray:none;stroke-dashoffset:0;stroke-opacity:1" />
    <path
       d="m 78.787749,35.413175 c 0,0 9.475456,-2.849657 19.459178,2.321855 9.671373,5.486178 10.100823,11.813733 10.100823,11.813733"
       data-paper-data="{&quot;index&quot;:null}"
       fill="none"
       stroke="#000000"
       stroke-width="4.9585"
       stroke-linecap="round"
       id="path14"
       style="mix-blend-mode:normal;fill-rule:nonzero;stroke:#584d00;stroke-linejoin:miter;stroke-miterlimit:10;stroke-dasharray:none;stroke-dashoffset:0;stroke-opacity:1" />
    <g
       stroke="#000000"
       stroke-width="5"
       id="g20"
       transform="matrix(0.99169901,0,0,0.99169901,-174.33835,-116.15868)"
       style="mix-blend-mode:normal;fill:#584d00;fill-opacity:1;fill-rule:nonzero;stroke:#584d00;stroke-linejoin:miter;stroke-miterlimit:10;stroke-dasharray:none;stroke-dashoffset:0;stroke-opacity:1">
      <path
         d="m 251.68878,177.36762 c 0,0 2.92179,-1.75041 6.68158,-2.84539 2.46395,-0.71759 5.2878,-0.95825 7.88506,-0.92278 2.88389,0.0394 6.03836,0.42707 8.67077,1.23436 3.36718,1.03261 5.88018,2.5338 5.88018,2.5338"
         data-paper-data="{&quot;index&quot;:null}"
         fill="none"
         stroke-linecap="round"
         id="path16"
         style="fill:#584d00;fill-opacity:1;stroke:#584d00;stroke-opacity:1" />
      <path
         d="m 271.76355,181.28915 c 0,-2.95 2.39144,-5.34144 5.34144,-5.34144 2.95,0 5.34145,2.39145 5.34145,5.34144 0,2.95 -2.39144,5.34145 -5.34145,5.34145 -2.95,0 -5.34144,-2.39145 -5.34144,-5.34145 z"
         fill="#000000"
         stroke-linecap="butt"
         id="path18"
         style="fill:#584d00;fill-opacity:1;stroke:#584d00;stroke-opacity:1" />
    </g>
    <g
       stroke="#000000"
       stroke-width="5"
       id="g26"
       transform="matrix(0.99169901,0,0,0.99169901,-174.33835,-116.15868)"
       style="mix-blend-mode:normal;fill:#584d00;fill-opacity:1;fill-rule:nonzero;stroke:#584d00;stroke-linejoin:miter;stroke-miterlimit:10;stroke-dasharray:none;stroke-dashoffset:0;stroke-opacity:1">
      <path
         d="m 200.3048,177.36753 c 0,0 2.87376,-1.72726 6.58865,-2.81821 2.48572,-0.72997 5.34803,-0.98586 7.97799,-0.94995 2.45433,0.0335 5.10461,0.22485 7.4623,0.88076 3.95628,1.10064 7.08865,2.8874 7.08865,2.8874"
         data-paper-data="{&quot;index&quot;:null}"
         fill="none"
         stroke-linecap="round"
         id="path22"
         style="fill:#584d00;fill-opacity:1;stroke:#584d00;stroke-opacity:1" />
      <path
         d="m 221.22072,181.91173 c 0,-2.95 2.39145,-5.34144 5.34144,-5.34144 2.95,0 5.34144,2.39145 5.34144,5.34144 0,2.95 -2.39145,5.34144 -5.34144,5.34144 -2.95,0 -5.34144,-2.39145 -5.34144,-5.34144 z"
         fill="#000000"
         stroke-linecap="butt"
         id="path24"
         style="fill:#584d00;fill-opacity:1;stroke:#584d00;stroke-opacity:1" />
    </g>
    <path
       d="m 91.195957,84.515366 c 0,0 -2.070856,3.499676 -5.601225,6.184493 -2.274928,1.730059 -5.155893,2.469648 -8.479324,3.891447 -2.815117,1.204339 -10.149524,2.145164 -17.004574,2.26746 -5.452173,0.09729 -10.601124,-0.528139 -12.931894,-0.479189"
       data-paper-data="{&quot;index&quot;:null}"
       fill="none"
       stroke="#000000"
       stroke-width="4.9585"
       stroke-linecap="round"
       id="path28"
       style="mix-blend-mode:normal;fill-rule:nonzero;stroke:#584d00;stroke-linejoin:miter;stroke-miterlimit:10;stroke-dasharray:none;stroke-dashoffset:0;stroke-opacity:1" />
  </g>
</svg>
