<?xml version="1.0" encoding="UTF-8" standalone="no"?>
<svg
   viewBox="0 0 83.999996 83.999998"
   version="1.1"
   id="svg98"
   sodipodi:docname="troll_face.svg"
   width="84"
   height="84"
   inkscape:version="1.1.2 (0a00cf5339, 2022-02-04)"
   xmlns:inkscape="http://www.inkscape.org/namespaces/inkscape"
   xmlns:sodipodi="http://sodipodi.sourceforge.net/DTD/sodipodi-0.dtd"
   xmlns="http://www.w3.org/2000/svg"
   xmlns:svg="http://www.w3.org/2000/svg"
   xmlns:rdf="http://www.w3.org/1999/02/22-rdf-syntax-ns#"
   xmlns:cc="http://creativecommons.org/ns#"
   xmlns:dc="http://purl.org/dc/elements/1.1/">
  <sodipodi:namedview
     id="namedview100"
     pagecolor="#505050"
     bordercolor="#ffffff"
     borderopacity="1"
     inkscape:pageshadow="0"
     inkscape:pageopacity="0"
     inkscape:pagecheckerboard="1"
     showgrid="false"
     inkscape:zoom="2.0590529"
     inkscape:cx="259.34253"
     inkscape:cy="211.26217"
     inkscape:window-width="2560"
     inkscape:window-height="1372"
     inkscape:window-x="0"
     inkscape:window-y="0"
     inkscape:window-maximized="1"
     inkscape:current-layer="svg98" />
  <defs
     id="defs4">
    <style
       id="style2">.cls-1{fill:#fff;}</style>
  </defs>
  <title
     id="title6">trollface</title>
  <g
     id="Vector_Graphics"
     data-name="Vector Graphics"
     transform="matrix(0.16201513,0,0,0.16201513,4.7275359e-4,7.7377709)">
    <g
       id="Black">
      <path
         d="M 266.67,0.58 C 253.11,0.67 239.56,-0.07 226,0 201.73,0 177.44,-0.19 153.18,0.52 a 206.26,206.26 0 0 0 -21,0.89 c -4.27,0.43 -8.61,1.15 -12.48,3.13 a 71.43,71.43 0 0 0 -9.23,5.38 131.17,131.17 0 0 0 -22.79,21.14 194,194 0 0 0 -16.3,24.88 c -5.51,9.66 -9.49,20.17 -15.93,29.3 -5.26,7.93 -12.2,14.54 -19.22,20.89 -2.16,1.82 -3.64,4.26 -5.76,6.12 a 162.47,162.47 0 0 0 -22,26 c -1.93,2.55 -3.91,5.15 -4.8,8.29 -0.17,0.58 -0.35,1.16 -0.56,1.74 a 47.92,47.92 0 0 0 -1.4,6 c -0.09,0.21 -0.27,0.62 -0.37,0.82 -0.68,4.96 -1.57,9.9 -1.29,14.84 -0.14,2.55 0.66,5 0.69,7.55 l 0.4,0.81 a 23.51,23.51 0 0 0 1.09,4.45 c 0.06,0.27 0.2,0.8 0.27,1.06 0.4,1.14 0.77,2.28 1.14,3.44 0.47,0.92 0.92,1.86 1.39,2.78 3.06,5 5.55,10.35 9.08,15 2.44,2.9 4.38,6.2 7,8.93 2.33,2.53 4.39,5.3 6.74,7.82 5,5.76 10.89,10.65 15.44,16.77 a 118.43,118.43 0 0 1 14.21,23.54 109.45,109.45 0 0 0 14.43,23 c 5.12,6.5 11.22,12.11 17.16,17.85 7.26,6.5 14.19,13.48 22.42,18.78 a 526.87,526.87 0 0 0 46.38,26.45 c 10.54,5.44 21.82,9.24 32.46,14.48 9.69,4.36 19.24,9 28.83,13.59 15.68,7.73 31.4,15.45 47.81,21.53 5.85,2.38 12.36,1.79 18.33,3.77 6.1,2.44 12.5,4 18.81,5.83 5.18,1.83 10.55,3.1 15.8,4.74 6.86,2.23 13.94,3.66 20.91,5.49 5.21,1.12 10.49,1.94 15.74,2.84 6.54,0.56 13.08,1.19 19.64,1.25 5.65,0.39 11.32,0 17,0.61 5.46,0.14 10.92,1 16.39,0.54 5.31,-0.43 10.65,-0.35 15.94,-1 3.27,-0.52 6.5,-1.29 9.77,-1.86 4.4,-0.74 8.13,-3.48 12.46,-4.48 5.8,-1.38 11.13,-4.16 16.39,-6.89 4.7,-2.72 9.51,-5.33 13.75,-8.76 1.68,-1.35 3.13,-3 4.83,-4.28 3.6,-4.67 7.6,-9.11 10.49,-14.3 2.47,-4.28 5.18,-8.68 5.6,-13.72 0.75,-5.52 0.06,-11.07 -0.16,-16.6 -2,-25 -2.53,-50.12 -2.89,-75.21 -0.16,-13.78 -0.46,-27.59 0.2,-41.37 a 61.6,61.6 0 0 1 3.55,-20.53 c 5.05,-12.79 13.4,-24.14 17.15,-37.47 a 49.14,49.14 0 0 0 1.24,-7.6 191.34,191.34 0 0 0 0.22,-25.34 c -0.13,-6.57 -0.78,-13.29 -3.41,-19.38 -2.35,-6.13 -6.62,-11.27 -11.11,-16 -3.31,-3.57 -7.83,-5.64 -11.27,-9.07 a 34.31,34.31 0 0 1 -7.81,-10.33 58.11,58.11 0 0 1 -3.76,-15.88 c -0.22,-3.09 0,-6.26 -0.91,-9.28 -1.4,-4.66 -4.36,-8.63 -7.53,-12.24 a 77.65,77.65 0 0 0 -12,-10.6 156.93,156.93 0 0 0 -34.1,-19.62 C 412.39,15.37 397.64,12.43 382.96,9.84 368.74,7.44 354.45,5.54 340.13,3.84 328.5,2.46 316.8,2.02 305.13,1.53 292.28,1.16 279.47,0.82 266.67,0.58 Z"
         id="path8" />
    </g>
    <g
       id="Line_Art"
       data-name="Line Art">
      <path
         d="m 262.73,0.64 c 7,0.27 13.93,0.4 20.89,0.45 10.72,0.52 21.47,0.63 32.18,1.33 17.43,0.6 34.74,2.9 52,5.42 15.35,2.25 30.72,4.73 45.63,9.1 a 139.2,139.2 0 0 1 37.04,17.26 c 7,4.69 14,9.59 20.1,15.52 3.75,4.17 7.55,8.64 9.07,14.15 1,3.47 0.57,7.1 1.09,10.64 a 53.31,53.31 0 0 0 3.83,14.87 c 3.26,6.38 8.68,11.4 14.62,15.26 6.5,5.3 12.19,11.87 15.4,19.69 2.56,6 3.22,12.65 3.28,19.14 a 143.9,143.9 0 0 1 0.29,17.5 c -0.42,4.63 -0.25,9.34 -1.34,13.9 -1.8,8.09 -6,15.35 -9.64,22.69 -3.64,7.34 -8,14.65 -9.87,22.77 a 80.62,80.62 0 0 0 -1.43,10 c -0.66,14.11 -0.82,28.26 -0.34,42.39 0.33,10.54 -0.1,21.09 0.64,31.61 0.14,4.35 0,8.7 0.33,13 0.46,4.68 0.11,9.42 0.67,14.1 0.31,10.93 2,21.81 1.75,32.76 a 26.66,26.66 0 0 1 -3.58,12.85 86.44,86.44 0 0 1 -14.4,19.73 c -4,4.15 -9.13,7 -14.06,10 -6,3.35 -12.17,6.67 -18.89,8.37 -4.32,1.07 -8.09,3.69 -12.47,4.54 -2.65,0.5 -5.29,1 -7.92,1.53 -4.23,1 -8.6,0.63 -12.89,1.13 -4,0 -7.95,0.7 -11.92,0.27 -10.16,-0.65 -20.32,-1.3 -30.5,-1.24 -7.18,-0.59 -14.42,-0.74 -21.49,-2.22 -8,-1.05 -15.71,-3.37 -23.54,-5.22 -12.7,-3.61 -25.35,-7.4 -38,-11.22 a 50.37,50.37 0 0 0 -15.31,-3.5 c -3.75,-0.39 -7.24,-1.9 -10.74,-3.19 -7.76,-3 -15.39,-6.41 -23,-9.91 -21.73,-10.31 -43.16,-21.29 -65.32,-30.66 -4.14,-1.62 -8.26,-3.33 -12.25,-5.3 a 496,496 0 0 1 -50.63,-28.48 c -7.5,-4.72 -13.87,-10.94 -20.44,-16.85 -5,-4.85 -10.29,-9.46 -14.92,-14.69 A 110,110 0 0 1 60.19,267 c -3.13,-6.08 -5.81,-12.41 -9.5,-18.2 A 96.14,96.14 0 0 0 35.48,229.57 C 29.9,224.14 25.15,218 19.83,212.38 c -2.31,-2.95 -4.42,-6 -6.82,-8.94 -3,-4.44 -5.36,-9.31 -8.19,-13.88 A 52.08,52.08 0 0 1 0.18,172.31 70.73,70.73 0 0 1 3.76,146.5 c 1.18,-4.18 4.3,-7.33 6.62,-10.88 a 192.69,192.69 0 0 1 13.09,-16.26 c 3.79,-4.12 8,-7.86 11.75,-12 C 42.09,101 49.14,94.7 54.56,87 c 5.71,-7.82 9.69,-16.69 14,-25.31 A 199.56,199.56 0 0 1 88.84,30 a 144.83,144.83 0 0 1 18,-17 66.31,66.31 0 0 1 14.36,-8.9 c 5.65,-2.27 11.81,-2.53 17.79,-3 14.72,-0.78 29.43,-0.56 44.12,-0.85 12.74,-0.03 25.49,-0.25 38.23,-0.09 13.8,0.07 27.6,0.43 41.39,0.48 z m -99.81,10.47 c -4.58,-0.09 -9.13,0.34 -13.7,0.38 a 100.78,100.78 0 0 0 -18.1,1.8 c -4.8,1 -9.05,3.6 -13.18,6.12 A 94.35,94.35 0 0 0 105,29.93 91.47,91.47 0 0 0 93.8,42.46 209.64,209.64 0 0 0 78,68.78 C 75.75,73.35 73.63,77.99 71.35,82.55 67.55,89.6 64,97 58.31,102.78 c -0.8,0.68 -1.69,2.44 -0.3,2.94 5.82,1.3 11.84,0.53 17.74,1 2.91,0.27 5.86,-0.17 8.73,0.46 -6.74,1.29 -13.66,1.32 -20.45,2.39 -3.24,0.43 -6.45,1 -9.66,1.64 -3.67,0.93 -7.61,1.57 -10.65,4 -7.41,5.75 -13.38,13.1 -19,20.54 -4.24,6 -8.69,12.24 -10.27,19.57 -1.62,6.69 -1.17,13.7 0.29,20.37 q 0.3,1.14 0.54,2.28 a 74.83,74.83 0 0 0 11.81,24.33 c 4.7,6.77 11,12.81 18.88,15.59 3.56,1.7 7.61,3 10.23,6.08 -3.55,0.57 -6.77,-1.35 -10.22,-1.7 0.75,2.56 2.9,4.3 4.61,6.22 a 87.62,87.62 0 0 1 11.2,15.37 c 5.61,9.14 9.07,19.44 15.4,28.14 7.29,10.95 17.34,19.6 27,28.44 a 138.94,138.94 0 0 0 11.1,9.18 c 8,5.54 16.4,10.42 24.82,15.25 10.51,5.89 21.11,11.64 32.05,16.66 3.93,1.84 8,3.22 12,5 11.4,5 22.59,10.33 33.78,15.74 13.44,6.64 26.87,13.35 40.75,19 5.25,2 10.44,4.31 15.93,5.59 10.48,1.48 20.74,4.11 31,6.55 12.12,2.9 24.09,6.41 36.24,9.17 l 0.32,0.17 a 244.57,244.57 0 0 0 30.08,5 c 7.72,0.66 15.46,0.87 23.2,1.26 12.43,0.09 24.95,0.77 37.28,-1.17 9.49,-1.55 18.35,-5.62 26.8,-10 9,-4.53 16.14,-12.06 21.81,-20.25 3.06,-5 6.31,-10.15 6.88,-16.1 0.5,-6.63 -0.57,-13.22 -1.09,-19.81 -0.88,-8.28 -1,-16.6 -1.47,-24.9 -0.2,-10.54 -0.76,-21.05 -0.72,-31.59 0,-18.46 -0.09,-36.91 0.12,-55.37 0.39,-7 1,-14.08 3.49,-20.67 4.57,-12.17 12.17,-23 16.39,-35.28 2.76,-8 2.62,-16.52 2.49,-24.84 -0.48,-6.27 -0.94,-12.64 -2.89,-18.67 -1,-3.19 -3.14,-5.77 -5.18,-8.33 A 99.52,99.52 0 0 0 490,112.69 70.51,70.51 0 0 1 476.61,99 c -4.59,-6.44 -6.16,-14.45 -6.77,-22.18 a 30.23,30.23 0 0 0 -1.45,-9.19 26.34,26.34 0 0 0 -6.33,-10.54 c -7.19,-6.62 -15.54,-11.82 -24,-16.66 A 158.77,158.77 0 0 0 410.77,28 c -6.76,-2.26 -13.94,-2.79 -21,-3.33 -11.1,-0.38 -22.23,-0.29 -33.32,0.39 -11.69,0.31 -23.36,0 -35,-0.68 -17.17,-1.17 -34.19,-3.8 -51.33,-5.14 -12,-1 -24.09,-2.2 -36.15,-1.32 -11.88,1.16 -23.79,3 -35.1,6.91 A 305.52,305.52 0 0 0 139.5,53.54 c -7.13,4.24 -13.38,9.77 -20.52,14 a 15,15 0 0 1 -4,1.7 c 0.64,-2.22 2.78,-3.37 4.38,-4.83 8.18,-6.43 17,-12.08 25.71,-17.67 8.93,-5.66 18.07,-11.26 27.75,-15.74 18,-7.7 36.88,-14.24 56.58,-15.43 16.23,-1.19 32.53,-0.27 48.69,1.34 8.37,1.41 16.82,2.2 25.27,3 5.14,0.21 10.25,0.85 15.4,0.93 l 0.34,0.25 c 15.47,0.6 30.94,1.76 46.44,1.41 a 23.39,23.39 0 0 0 6.18,-0.79 c -0.08,-0.44 -0.17,-0.88 -0.26,-1.32 -4.21,-1.73 -8.73,-2.38 -13.2,-3.07 -14.06,-2 -28.25,-2.75 -42.38,-3.78 -12.26,-0.48 -24.51,-1.29 -36.77,-1.5 -8.84,-0.57 -17.71,-0.3 -26.56,-0.78 -29.87,-0.47 -59.76,-0.33 -89.63,-0.15 z"
         id="path11" />
      <path
         d="m 283.88,34.39 c -16.19,-3.47 -32.89,-3.59 -49.32,-2.12 -6.06,0.38 -12.08,1.19 -18.1,2 -8.16,1.21 -16.39,2.42 -24.17,5.27 A 185.49,185.49 0 0 0 162.12,53 c -11.67,7.1 -23,15.35 -31.18,26.43 a 6.84,6.84 0 0 0 -1.34,2.92 c 2.88,-1.09 5.18,-3.2 7.47,-5.18 4.63,-4 8.66,-8.73 13.6,-12.42 a 142.17,142.17 0 0 1 30.64,-17.49 129.54,129.54 0 0 1 31.53,-9.34 c 20,-3.3 40.53,-5.13 60.72,-2.17 7.14,0.94 14.18,2.53 21.33,3.44 25.29,3.17 50.91,2.93 76.29,1 8.3,-0.62 16.55,-1.78 24.86,-2.19 a 34,34 0 0 1 12.43,0.86 c 3.32,1.19 6,4.14 9.63,4.36 1.33,0.13 0.55,-1.53 0.09,-2 a 16.24,16.24 0 0 0 -9.72,-5.77 c -6.77,-1.16 -13.63,-0.19 -20.41,0.15 q -17.74,2 -35.59,2.78 c -6.94,0.63 -13.91,0.34 -20.85,0.75 -5.28,-0.25 -10.58,-0.24 -15.86,-0.57 -10.67,-1 -21.38,-1.98 -31.88,-4.17 z"
         id="path13" />
      <path
         d="m 267.43,49.11 c -6.69,-1.69 -13.67,-1.72 -20.53,-1.82 -7.89,-0.13 -15.76,0.27 -23.65,0.51 -9.48,0.69 -19.06,1.29 -28.25,3.92 a 108.16,108.16 0 0 0 -21.31,8.07 107.46,107.46 0 0 0 -22.23,16.89 c -2.58,2.63 -5.38,5.21 -6.94,8.63 0.27,0.32 0.52,0.65 0.77,1 3.33,-1.7 6.08,-4.33 8.72,-6.94 a 95.89,95.89 0 0 1 14.49,-12 66,66 0 0 1 12.94,-7.37 121.16,121.16 0 0 1 35.5,-8.89 c 11.29,-0.91 22.64,-1.49 33.95,-0.66 5.61,0 11.32,0.53 16.88,-0.5 -0.09,-0.19 -0.26,-0.63 -0.34,-0.84 z"
         id="path15" />
      <path
         d="m 263.21,57.07 c -2,-2 -4.11,-4 -6.86,-4.82 0,0.32 -0.1,1 -0.13,1.29 l -0.43,-0.39 a 28.87,28.87 0 0 0 3.5,5.06 39.35,39.35 0 0 1 8.44,15.32 c 1,3.33 1.2,6.88 2.4,10.17 a 52.82,52.82 0 0 0 0.24,-9.74 24.83,24.83 0 0 0 -7.16,-16.89 z"
         id="path17" />
      <path
         d="m 398,55.73 c -7.68,-3.68 -16.41,-3.11 -24.65,-2.35 -10.67,0.93 -21.38,1.77 -31.95,3.64 -2.92,0.56 -5.9,1.17 -8.46,2.77 0,0.5 0,1 -0.05,1.5 2.91,0.56 5.82,-0.17 8.63,-0.92 6.58,-1.41 13.29,-2.08 20,-2.91 8.48,-0.7 17,-1.78 25.5,-1.33 6.32,0.39 11.93,3.63 17.31,6.7 5.1,2.89 10.18,6.3 13.46,11.28 2.29,3.37 3.06,7.47 5.17,10.94 h 0.94 A 21.45,21.45 0 0 0 419.64,70.16 C 414.17,63.21 405.91,59.36 398,55.73 Z"
         id="path19" />
      <path
         d="m 345.54,73.7 a 6.3,6.3 0 0 0 1.07,-5.19 c -3.45,0.42 -5.09,3.88 -6.17,6.76 -2.77,7.73 -1.62,16 -0.85,24 1,-3.84 0.41,-7.84 1.11,-11.72 0.82,-4.82 2.03,-9.75 4.84,-13.85 z"
         id="path21" />
      <path
         d="m 272,104.81 c 2.05,2 4.3,3.92 5.47,6.58 0.94,2.7 0.51,5.65 0,8.4 -1.08,2.8 -3.37,4.91 -5.62,6.82 -4,3.54 -8.69,6.23 -13.17,9.14 -10.55,-4.48 -20.46,-10.52 -31.49,-13.88 a 101.93,101.93 0 0 0 -40.17,-4.16 c -9,0.62 -17.59,3.62 -26.58,3.91 -4.94,0.1 -10.06,-2.2 -12.65,-6.51 -1.52,-3.3 0.83,-6.73 2.62,-9.41 A 53.31,53.31 0 0 1 175.65,88 l 1.34,-0.27 0.28,-0.24 a 134,134 0 0 1 38,-4.72 c 9.37,-0.24 19,0.63 27.64,4.44 A 114.82,114.82 0 0 1 272,104.81 Z M 223,94.6 c -0.73,2.25 -0.53,4.65 -1.2,6.92 -0.46,2.11 -1.7,4.14 -1.17,6.38 l 1.29,0.78 c 1.18,0.13 2.36,0.2 3.54,0.26 a 40.2,40.2 0 0 1 7.44,1.65 c 5.53,2 10.56,5.06 16,7.26 3.53,1.42 7.22,3.57 11.15,2.64 1.82,-0.85 3.87,-2.48 3.67,-4.7 0.05,-1.77 -1.45,-3 -2.54,-4.15 -7.22,-6.76 -16.26,-11.28 -25.5,-14.58 C 231.56,95.94 227.4,94.07 223,94.6 Z m -61.28,15.06 c -0.35,0.54 -0.69,1.08 -1.05,1.62 a 51.62,51.62 0 0 0 5.38,-1.2 23.91,23.91 0 0 0 8.82,-3.67 3.77,3.77 0 0 0 1.33,-2 c -5.2,-2.41 -11.47,0.66 -14.45,5.25 z"
         id="path23" />
      <path
         d="m 419.19,106.19 c 1.3,1.54 2.73,3.5 2,5.64 a 9.68,9.68 0 0 1 -7.1,5.57 191.67,191.67 0 0 1 -25.5,3.42 c -11.79,1.12 -23.72,2.46 -35,6.15 -2.95,1.41 -6.41,2.25 -8.58,4.86 -1.82,2.75 -1.12,6.25 -1.05,9.36 0.4,3.87 0.6,8 2.83,11.36 2,3.17 5.49,4.81 8.55,6.75 7.75,4.88 15.42,10 22.15,16.27 4.61,4.23 8.86,9.52 15.13,11.24 a 25.22,25.22 0 0 1 11.69,4.74 c 2.22,1.64 4.55,3.35 5.8,5.89 -3.05,0.13 -5.66,-1.78 -8.3,-3 a 101.08,101.08 0 0 0 -18,-7.47 c -2.25,-0.7 -5.25,-0.78 -6.65,1.5 -1.21,1.84 -3.38,4.84 -5.81,2.86 a 4.47,4.47 0 0 0 -6.25,-0.28 c -8.19,5.84 -13.91,14.52 -22.19,20.26 -4.14,2.89 -9.43,2.19 -14.16,1.78 -4.27,-1 -9.1,-2.51 -11.36,-6.61 -2.29,-3.59 1.91,-9.33 6,-7.77 2.45,1.13 4.26,3.68 7.15,3.8 3.76,0.05 7.27,-1.9 10.15,-4.18 A 58.27,58.27 0 0 0 355,181.35 c 2.11,-4.86 -1.27,-10.25 -5.34,-12.85 -5.12,-1 -9.23,-4.61 -12.62,-8.4 -3.22,-3.6 -4.1,-8.59 -4.15,-13.27 -0.7,-4.85 0.76,-10.2 -1.79,-14.66 -3.23,-4.1 -8.77,-5 -12.73,-8.15 -1.84,-1.37 -4.42,-3.36 -3.25,-6 3.65,-2.13 7.95,-2.44 12.09,-2.48 5.58,-0.42 10.78,-3.1 15.1,-6.57 a 63,63 0 0 1 14.57,-8.88 c 5.92,-2.62 12.44,-3.32 18.82,-3.92 a 147.57,147.57 0 0 1 19.84,-0.5 c 4.82,0.21 9.75,0.87 14.13,3 a 30.18,30.18 0 0 1 9.52,7.52 z m -37.07,1 c 0,0.2 0.07,0.58 0.09,0.77 A 139,139 0 0 0 398,108 c 0,-0.2 0,-0.59 0,-0.78 a 49.38,49.38 0 0 0 -15.88,-0.05 z"
         id="path25" />
      <path
         d="m 140.4,107.2 a 10.32,10.32 0 0 0 -3.55,0 c -6.42,0.9 -12.92,1.56 -19.15,3.43 -0.58,2.94 2.92,3.72 5,4.71 a 32.41,32.41 0 0 0 13.18,1.08 c -1.41,-1.28 -3.51,-1 -5.24,-1.54 -1.39,-0.46 -3.35,-0.19 -4.08,-1.72 4.38,-2.44 9.34,-3.68 13.84,-5.96 z"
         id="path27" />
      <path
         d="m 437.25,110.55 a 16.11,16.11 0 0 0 -6.83,-0.51 c -1.3,0.24 -2,1.39 -2.71,2.42 a 7.88,7.88 0 0 0 4,1.76 99.28,99.28 0 0 0 10.64,0.36 c 8.12,0.61 16.26,-0.73 24.38,0 a 14.76,14.76 0 0 1 9.14,4.32 53,53 0 0 0 10.13,8.62 c 2.15,1.4 4.59,2.43 6.36,4.34 5.25,5.29 7.88,12.67 8.78,19.95 0.49,5.58 -1,11.09 -2.2,16.49 -1.05,4 -2,8.19 -3.94,11.94 a 18.15,18.15 0 0 1 -6.21,5.7 c -4.11,2.37 -8.47,4.26 -12.7,6.4 -3,1.55 -6.31,2.67 -9.12,4.64 0,0.3 -0.06,0.91 -0.08,1.22 1.85,0.57 3.68,-0.42 5.45,-0.87 7.84,-2.73 15.7,-5.9 22.28,-11.08 a 15.26,15.26 0 0 0 5.67,-8.91 c 2,-8.13 4,-16.41 3.7,-24.83 0.29,-6.28 -2.23,-12.22 -5.05,-17.68 a 28.33,28.33 0 0 0 -4.55,-6.74 c -3.4,-1.15 -6.11,-3.59 -8.92,-5.72 -4.84,-3.87 -9.28,-8.94 -15.68,-10.06 -10.79,-1.46 -21.79,0.22 -32.54,-1.76 z"
         id="path29" />
      <path
         d="m 93.63,112.29 c -12.57,-0.06 -25.25,-0.85 -37.72,1.18 a 17.59,17.59 0 0 0 -6.78,2.21 45,45 0 0 0 -12.21,11.54 c -2.29,3.23 -4.59,6.55 -5.86,10.35 -1.75,4.9 -1.69,10.19 -1.84,15.33 a 186.29,186.29 0 0 0 1.52,30.6 c 0.57,4 1.16,8 3,11.6 a 29.06,29.06 0 0 0 8.31,9.82 63.86,63.86 0 0 0 10.08,5.08 c 3.83,1.55 7.72,3.23 11.88,3.63 -0.84,-2.06 -3.22,-2.68 -4.91,-3.87 -6.58,-4.1 -14.43,-6.5 -19.69,-12.47 -3.42,-4 -5,-9.16 -5.73,-14.27 -1.83,-10.95 -2,-22.1 -1.67,-33.17 a 32.2,32.2 0 0 1 2.67,-12 74.91,74.91 0 0 1 11.46,-16.05 c 1.8,-1.91 3.78,-4 6.53,-4.39 13.5,-2.53 27.26,-3.23 40.92,-4.38 z"
         id="path31" />
      <path
         d="m 141.89,120.2 c -2.38,-0.44 -5.22,-0.83 -7.29,0.73 -1.33,1.13 -0.64,2.89 -0.28,4.31 2.59,-1.56 5.48,-2.79 7.57,-5.04 z"
         id="path33" />
      <path
         d="m 208.16,125.85 a 5.85,5.85 0 0 0 -7,-3.09 c -4,0.93 -6,4.76 -9.08,7.08 a 58.3,58.3 0 0 1 -14,7.66 c -5.29,2 -10.84,3.69 -16.56,3.72 -7.75,-0.4 -15.2,-2.85 -22.49,-5.33 a 194.17,194.17 0 0 1 -21.2,-9.08 36.47,36.47 0 0 0 -10.45,-3.13 94.91,94.91 0 0 0 -27.65,-0.54 c -9,1.29 -16.76,6.85 -22.47,13.66 a 51,51 0 0 0 -12.13,29.77 55.42,55.42 0 0 0 6.74,26.85 c 1.46,2.34 3,4.92 5.55,6.19 a 4.14,4.14 0 0 0 5.44,-3.73 35.72,35.72 0 0 0 -2.67,-11.67 c -2,-5.1 -3.9,-10.37 -4.43,-15.87 0.21,-6.12 3,-11.81 6,-17.05 3,-5.24 6.78,-10 11.75,-13.44 A 33.55,33.55 0 0 1 86.68,134 l 0.29,-0.22 a 105.77,105.77 0 0 1 14.24,-0.23 c 2.48,0.28 5.12,0.69 7.17,2.22 3,2.15 6.39,3.53 9.71,5 12.09,5.15 24.71,9.53 37.87,10.72 9.14,0.38 18.6,0.59 27.23,-2.89 A 58.89,58.89 0 0 0 204.84,133 c 1.6,-2 3.6,-4.36 3.32,-7.15 z"
         id="path35" />
      <path
         d="m 468.39,126.92 a 28,28 0 0 0 -3.77,-0.24 c 0,0.26 0,0.77 0,1 3.57,3.42 8.31,5 12.5,7.51 a 11.77,11.77 0 0 1 5.19,7.41 c 1.25,4.69 1.68,9.54 2.45,14.32 0.2,3.3 0.85,6.8 -0.45,10 -2.72,5.82 -9.92,8.38 -11.87,14.65 a 6.41,6.41 0 0 0 3.63,-0.94 32,32 0 0 0 8.8,-7.62 12.67,12.67 0 0 0 3,-8.05 106.39,106.39 0 0 0 -3.11,-25.5 c -0.77,-2.39 -1.3,-5.15 -3.47,-6.71 -3.88,-2.75 -8.42,-4.35 -12.9,-5.83 z"
         id="path37" />
      <path
         d="M 467.19,139.37 A 47.13,47.13 0 0 0 452,136 c -6.61,-0.16 -13.45,-0.44 -19.74,2 -6.72,2.55 -12,7.67 -18.09,11.26 a 9.34,9.34 0 0 1 -6.94,1.22 c -4.8,-1.95 -9.33,-5 -14.71,-5 a 5.18,5.18 0 0 0 -2.57,6.83 c 1.75,4.41 6.21,7.11 10.6,8.38 a 69.9,69.9 0 0 0 17,2.12 c 3.78,-0.26 8.71,-0.13 10.75,-4 1.87,-4.07 3.89,-8.75 8.35,-10.55 6.84,-2.37 14.43,-2 21.27,0.2 4.13,1.18 7.34,4.44 11.64,5.17 2.94,1 6,-2.09 5.5,-5 -0.51,-4.36 -4.46,-7.17 -7.87,-9.26 z"
         id="path39" />
      <path
         d="m 104,149.14 c 1,2.72 3.5,4.44 5.74,6.08 a 140.5,140.5 0 0 0 16.26,9.19 c 11.29,5.76 23,10.7 34.78,15.35 18.72,7.55 38.15,13.09 57.39,19.11 26.11,7.9 52.43,15.65 79.55,19.17 14.64,1.72 29.36,3.17 44.11,3.26 12.49,0.13 25.06,-0.55 37.28,-3.25 a 137.44,137.44 0 0 0 32.8,-11.78 c 6,-3.2 11.89,-6.74 16.66,-11.61 a 26.58,26.58 0 0 0 6.3,-10.81 c 2.44,-7.06 2.23,-14.69 4.5,-21.79 0.74,-1.26 1.35,-3 3,-3.25 1.65,-0.25 3.12,0.87 3.81,2.27 2.08,3.93 1.57,8.66 3.68,12.6 a 11.65,11.65 0 0 0 3.42,4 c 2.29,3 3.14,6.83 4.05,10.43 3.23,15 4.14,30.42 4.09,45.74 a 282.38,282.38 0 0 1 -1.59,33.29 c -1.25,11.21 -5.58,21.91 -11.6,31.38 a 42,42 0 0 1 -19.39,15.63 c -12.4,5.22 -25.85,7 -39.05,8.91 -8.22,1.2 -16.52,1.67 -24.79,2.3 -18.49,1 -37,0.94 -55.51,0.62 l -0.34,-0.21 c -25.48,-0.49 -51,-3 -75.73,-9.54 -13.08,-3.44 -26,-7.71 -38.07,-13.91 A 248.68,248.68 0 0 1 167,283.82 287.3,287.3 0 0 1 142.76,264.06 c -8.44,-7.73 -15.45,-16.82 -22.34,-25.9 -5.84,-7.58 -10.89,-15.71 -16.38,-23.54 -3.46,-4.77 -6.71,-9.76 -11,-13.88 a 19,19 0 0 1 -1.69,-2.48 c 0.16,-2.48 1.51,-4.88 0.7,-7.38 -0.87,-4 -2.57,-8.94 -7,-10.25 -6.62,-1.76 -14.21,0.87 -20.27,-3.11 -1,-2.59 1.21,-4.81 3.51,-5.51 4.78,-1.65 9.48,-3.51 14.1,-5.53 a 16.06,16.06 0 0 0 6.74,-5.13 c 4,-5.37 3,-13.16 8,-18 1.3,-1.48 3.54,-0.69 4.59,0.66 1.39,1.41 1.74,3.35 2.28,5.13 z m -1.71,18.42 c -1.11,0.41 -2.54,1 -2.56,2.41 -0.49,4.33 0.9,8.59 2.45,12.58 a 27.18,27.18 0 0 0 7,10.54 64.33,64.33 0 0 0 12.11,7.77 c 6.84,3.56 13.8,6.86 20.8,10.08 a 41.59,41.59 0 0 0 7.73,2.95 37.24,37.24 0 0 0 0.6,-11.73 c -0.42,-3.23 -0.23,-6.64 -1.69,-9.64 -1.52,-3.29 -4.76,-5.23 -7.72,-7.05 -8.2,-4.56 -16.64,-8.69 -25.08,-12.77 -4.41,-2.04 -8.8,-4.35 -13.65,-5.14 z M 443,195.69 c 0.42,3.71 2,7.71 5.2,9.86 0.26,-3.71 -1.88,-7.06 -4.07,-9.88 z m -277.48,-0.21 a 13.29,13.29 0 0 0 -3.32,-0.46 c -0.43,0.86 -0.85,1.73 -1.27,2.6 a 11.31,11.31 0 0 0 0.26,5.08 38,38 0 0 0 6.42,10.49 c 3.59,4.32 7.55,8.66 12.74,11 10.6,1.68 20.47,6.24 30.41,10.11 3.57,1.25 7,3 10.72,3.78 2.63,-5 3.35,-10.72 4.73,-16.15 0.42,-2.21 1.45,-4.86 -0.18,-6.8 -2.12,-2.18 -5.23,-2.89 -8,-3.88 -10.82,-3.33 -21.74,-6.35 -32.54,-9.74 -6.69,-1.98 -13.25,-4.31 -20,-6.03 z m 266.5,12 a 14.38,14.38 0 0 0 -0.67,3.11 c -0.56,8 0.44,15.91 1.63,23.76 0.34,1.66 0.51,3.67 2,4.75 a 3.8,3.8 0 0 0 2.19,-0.85 c 2.27,-1.49 4.89,-3.16 5.35,-6.06 -0.77,-5.23 -2.68,-10.2 -4.33,-15.2 -1.36,-3.33 -2.64,-6.84 -5.07,-9.56 z m -313.43,7.11 a 50.25,50.25 0 0 0 4,6.5 c 6.33,9.13 12.77,18.24 20.17,26.56 1.63,1.52 3,3.74 5.39,4 4.25,-1.87 4.32,-7.14 4,-11.1 -0.6,-3.32 -0.9,-6.85 -2.78,-9.74 -2.11,-3 -5.37,-5 -8.58,-6.67 -4.36,-2.26 -8.83,-4.28 -13.31,-6.28 -2.96,-1.18 -5.8,-2.66 -8.92,-3.27 z m 296.59,3.91 a 81.75,81.75 0 0 0 -10.7,5.18 c -2,1.15 -4,3.17 -3.5,5.69 a 80.26,80.26 0 0 1 2.21,9.56 c 0.6,3.18 0.29,6.54 1.69,9.55 2.86,-0.61 5.74,-1.11 8.58,-1.79 a 7.89,7.89 0 0 0 5.19,-4.5 c 1.77,-3.86 2.12,-8.14 2.38,-12.32 0.05,-3.61 -0.24,-7.41 -2,-10.64 -0.62,-1.57 -2.63,-1.17 -3.88,-0.73 z m -175,0.8 c -2.56,3.57 -3.12,8 -4.12,12.2 -0.6,2.86 -1.57,5.65 -1.88,8.58 1.92,2.69 5.27,3.62 8.25,4.59 a 179.68,179.68 0 0 0 34.57,6.62 92.65,92.65 0 0 0 10.14,0.17 33.24,33.24 0 0 0 3.92,-1 c 1.45,-2.09 1.37,-4.71 1.08,-7.13 -0.44,-3.43 -0.1,-7 -1.37,-10.31 -1.08,-2.72 -4,-4 -6.59,-4.78 l -0.34,-0.19 c -8.3,-2.18 -16.75,-3.82 -25.19,-5.41 l -0.32,-0.19 c -6.11,-0.91 -12.08,-2.66 -18.22,-3.15 z m 140.56,10.5 c -7.9,0.87 -15.78,2 -23.59,3.4 -2.73,0.51 -6.33,1.67 -6.34,5 a 53.68,53.68 0 0 0 1.1,9.8 c 0.54,2.3 3.14,3.15 5.24,3.09 a 153.49,153.49 0 0 0 27.76,-1.92 c 2.32,-0.51 4.78,-0.82 6.78,-2.21 l 0.68,-1.25 c 0,-3 -1.12,-5.77 -1.92,-8.58 -0.66,-2 -1.19,-4.25 -2.6,-5.93 -2,-1.62 -4.77,-1.66 -7.18,-1.4 z m -73.28,0.88 a 3.93,3.93 0 0 0 -3.42,1.95 c -1,2.13 -0.75,4.56 -0.81,6.85 0.07,3 -0.29,6.06 0.75,8.91 a 5.38,5.38 0 0 0 3.89,2.52 c 5.83,1 11.76,0.46 17.64,0.58 4.45,-0.11 9.08,0.35 13.37,-1.06 2,-0.72 1.74,-3.12 1.47,-4.79 a 85.31,85.31 0 0 0 -2.86,-11.91 c -7,-1 -14,-1.91 -21.07,-2.59 a 44.74,44.74 0 0 0 -9.03,-0.46 z m -143.1,7.24 c -1.33,2.35 -0.56,5.1 -1,7.64 -0.38,4.28 -1.61,8.67 -4.48,12 a 3.64,3.64 0 0 0 0,5.16 c 2.77,3.13 6.32,5.4 9.66,7.85 9.81,6.83 19.69,13.57 29.87,19.86 1.79,1 3.78,2.45 5.92,1.76 1.69,-0.86 2.68,-2.59 3.6,-4.16 a 87.15,87.15 0 0 0 8.11,-20.25 c 0.7,-3.17 1.52,-6.86 -0.64,-9.67 -2.1,-3 -5.89,-3.68 -9.19,-4.53 -11.46,-3.39 -22.27,-8.58 -33.16,-13.44 -2.85,-1.14 -5.68,-2.63 -8.76,-2.22 z m 67.45,23.44 a 2.83,2.83 0 0 0 -3.69,1.5 c 0.06,6.32 -0.6,12.81 -3.62,18.47 a 60.06,60.06 0 0 0 -5.8,12.36 c -0.44,1.62 -0.92,3.83 0.57,5.08 1.88,1.64 4.33,2.41 6.63,3.25 a 275.46,275.46 0 0 0 37.44,9.36 c 4.14,0.56 8.3,1.42 12.49,1.19 a 6.82,6.82 0 0 0 3,-1.13 11.55,11.55 0 0 0 1.76,-5.27 120.26,120.26 0 0 0 0.72,-13.14 57.57,57.57 0 0 0 0.16,-10.42 c -0.24,-2.18 -0.7,-4.65 -2.59,-6 a 22,22 0 0 0 -7.33,-2.78 c -6,-1.42 -11.88,-3.18 -17.73,-5.05 l -3,-0.93 c -6.5,-1.98 -12.62,-4.76 -19.08,-6.49 z m 211.58,14.11 c -3.21,5.58 -6.28,11.39 -7.7,17.72 a 5.87,5.87 0 0 0 0.31,3.15 c 0.45,-0.06 0.9,-0.11 1.36,-0.15 2.63,-5.64 4.89,-11.44 7.36,-17.15 1,-3 2.64,-5.86 2.53,-9.07 a 27.36,27.36 0 0 0 -3.93,5.5 z m -17.86,3.85 c -0.83,0.19 -1.66,0.41 -2.49,0.61 -3.73,3.43 -6.27,7.91 -8.58,12.37 -2.05,4 -3.91,8.18 -5.7,12.34 a 8,8 0 0 0 -0.7,2.89 c 3,0.34 5.95,-0.72 8.83,-1.47 4.47,-1.25 9.09,-2.44 12.91,-5.17 a 4.22,4.22 0 0 0 1.55,-2.26 c -2.51,-1.27 -6.5,0.7 -7.8,-2.5 -1,-5.36 1.78,-10.37 2.74,-15.52 z M 296,279.4 c -2.07,-0.44 -2.7,2.28 -3,3.8 a 154.65,154.65 0 0 0 -1.29,20.63 c 0.07,3.18 0,6.57 1.4,9.48 0.81,1.52 2.61,1.65 4.1,1.88 a 147.6,147.6 0 0 0 18,0.81 c 4.38,-0.08 8.94,0.38 13.11,-1.25 2,-1.84 2.41,-4.63 2.94,-7.16 1.11,-6.14 2.7,-12.2 3.24,-18.41 0,-1.54 -0.39,-3.42 -1.85,-4.22 -2.27,-1.18 -4.88,-1.21 -7.37,-1.34 l -0.35,-0.21 c -5.35,-0.09 -10.66,-0.81 -16,-1.42 A 76.63,76.63 0 0 1 296,279.4 Z m 96.62,6.69 c -1.38,0.24 -3.1,0.07 -4,1.36 -2.95,3.54 -4.25,8.07 -5.72,12.34 -1.05,3.36 -2.25,6.66 -3.48,9.94 a 5.71,5.71 0 0 0 -0.11,2.79 7.68,7.68 0 0 0 2.59,0.42 70.84,70.84 0 0 0 9.69,-1.66 9.41,9.41 0 0 0 4.13,-2 c 0.38,-1.21 -0.3,-2.5 0,-3.74 1.29,-5.86 4.26,-11.14 6.91,-16.47 0.79,-1.67 1.76,-3.35 1.58,-5.27 -3.89,0.27 -7.61,1.9 -11.55,2.29 z m -44.29,2.25 c -2.29,4.46 -3.32,9.39 -4.41,14.23 l -0.39,2.47 c -0.46,3.33 -1.95,7.08 -0.26,10.26 4.29,1.24 8.88,0.7 13.24,0.07 2.23,-0.47 4.88,-0.78 6.3,-2.79 a 73.73,73.73 0 0 0 8,-14.32 c 1.18,-2.76 2.59,-5.51 2.83,-8.55 -0.18,-0.31 -0.55,-0.91 -0.74,-1.22 -3.22,-1.48 -6.83,-1.29 -10.28,-1.55 -4.72,-0.33 -9.8,-0.49 -14.25,1.4 z"
         id="path41" />
      <path
         d="m 234,163 c -1.13,-0.59 -2.09,0.2 -2.61,1.18 1.81,2.35 1.28,6.11 -1.69,7.18 -5.54,1.79 -11.47,1.6 -17.21,2.14 -7.3,0.21 -14.83,-0.31 -21.88,2 a 3.64,3.64 0 0 0 0,2.84 c 12.61,-1.4 25.36,-1.26 37.91,-3.27 2.25,-0.43 4.65,-1.17 6.13,-3 A 7.08,7.08 0 0 0 234,163 Z"
         id="path43" />
      <path
         d="m 265.79,163.67 c -7.34,-1.11 -15.57,-0.61 -21.82,3.8 -3.89,2.67 -5.36,7.62 -5.16,12.15 0.18,4.79 -0.59,9.86 1.49,14.36 1.41,3.26 4.59,5.16 7.5,6.92 1.72,0.86 3.42,2.15 5.41,2.13 a 8.65,8.65 0 0 0 3.58,-4.8 6.87,6.87 0 0 0 -2.51,-6.87 12.55,12.55 0 0 1 -4.85,-10.57 5,5 0 0 1 2.7,-4.36 c 3.69,-2 7.94,-2.36 12,-3.1 2.49,-0.39 5.34,-0.69 7.07,-2.74 a 3.17,3.17 0 0 0 0,-4.62 11.27,11.27 0 0 0 -5.41,-2.3 z"
         id="path45" />
      <path
         d="m 294.26,183.71 c -8.28,-2.24 -17,-1.9 -25.43,-0.86 a 5.9,5.9 0 0 0 -4.54,3.57 43.9,43.9 0 0 0 0,5.13 8.36,8.36 0 0 0 4,5.87 c 2.92,0.25 3.7,-3.29 6.39,-3.61 7.8,-2.07 15.94,0 23.83,-1.25 2.1,-0.29 4.59,-1.5 4.12,-4.05 -2.01,-2.7 -5.27,-3.91 -8.37,-4.8 z"
         id="path47" />
      <path
         d="m 147.6,298.28 a 9.74,9.74 0 0 0 -4,-0.95 c 3.9,2.92 8.29,5.09 12.54,7.44 20.9,11.3 42.69,20.87 64.71,29.77 11.24,4.42 22.59,8.62 34.14,12.14 l 0.32,0.16 c 15.39,4.75 31.55,5.72 47.52,6.61 12.23,0.87 24.48,1.37 36.72,2 14.09,0.46 28.21,1 42.3,0.32 11.71,-0.57 23.69,-2 34.4,-7 9.46,-4.33 18.61,-10.43 24.07,-19.49 -0.27,-0.24 -0.53,-0.46 -0.8,-0.68 l -1.24,0.54 c -4.7,2.63 -8.33,6.71 -12.63,9.89 a 75.23,75.23 0 0 1 -13.35,7.65 76.83,76.83 0 0 1 -28.17,6.53 c -8.1,0.32 -16.2,0.06 -24.3,-0.09 -5.42,-0.57 -10.9,-0.2 -16.32,-0.76 -7.9,-0.28 -15.8,-0.61 -23.68,-1.12 -6.23,-0.12 -12.44,-0.62 -18.66,-0.85 -11,-0.77 -22.12,-1.25 -33,-3.39 -11.42,-2.33 -22.26,-6.7 -33.19,-10.6 -21.34,-8.13 -42.36,-17.13 -62.86,-27.19 -8.12,-3.84 -16.19,-7.66 -24.52,-10.93 z"
         id="path49" />
      <path
         d="m 126.9,302.36 c -3.62,-1.62 -7.17,-3.49 -11,-4.54 0.35,1.85 2.34,2.55 3.66,3.63 10.62,6.75 21.89,12.42 33.11,18.09 11.22,5.67 22.48,10.94 33.94,15.91 a 381.24,381.24 0 0 0 49.87,17.06 c 14.13,3.36 28.35,6.33 42.6,9.17 13.89,2.64 27.85,5.11 41.93,6.45 l 0.36,0.23 c 13.58,1.18 27.17,2.28 40.81,2.59 7.3,0.59 14.64,0.23 21.95,0.78 10,0.16 19.95,0.44 29.93,0.23 A 61.31,61.31 0 0 0 430.12,370 c 6.06,-1.81 11.37,-5.34 16.73,-8.58 4.49,-2.82 9.12,-5.47 13.22,-8.85 a 10.3,10.3 0 0 0 4,-8.64 c -0.13,-3.65 0.15,-7.4 -0.8,-11 -0.49,3.44 -0.56,7 -1.54,10.33 a 14,14 0 0 1 -4.27,6.17 c -4.64,4 -10,7 -15.25,10.18 -5.7,3.37 -11.45,7 -18,8.55 -7.75,1.84 -15.77,1.46 -23.69,1.48 -4.54,0 -9.08,-0.1 -13.63,-0.26 -6.16,-0.51 -12.37,-0.18 -18.54,-0.72 -10.39,-0.29 -20.78,-0.79 -31.15,-1.61 a 433.91,433.91 0 0 1 -57.49,-8.54 c -13.08,-2.6 -26.12,-5.41 -39.13,-8.3 -6.18,-1.44 -12.39,-2.76 -18.45,-4.69 -20.81,-6.73 -40.8,-15.77 -60.46,-25.33 C 150,314.57 138.64,308 126.9,302.36 Z"
         id="path51" />
      <path
         d="m 361.54,338.67 c 1.16,-0.24 -0.77,-0.38 -1.06,-0.42 -16.76,-0.5 -33.55,-0.43 -50.32,-0.06 a 24.51,24.51 0 0 0 -3.52,0.33 c 1.54,0.1 3.09,0.15 4.61,0.39 13.38,0.31 26.78,0.17 40.16,0.13 3.39,0.08 6.75,-0.39 10.13,-0.37 z"
         id="path53" />
    </g>
    <g
       id="White">
      <path
         class="cls-1"
         d="m 279.11,12 c 12.26,0.21 24.51,1 36.77,1.5 14.13,1 28.32,1.78 42.38,3.78 4.47,0.69 9,1.34 13.2,3.07 0.09,0.44 0.18,0.88 0.26,1.32 a 23.39,23.39 0 0 1 -6.18,0.79 c -15.5,0.35 -31,-0.81 -46.44,-1.41 l -0.34,-0.25 c -5.15,-0.08 -10.26,-0.72 -15.4,-0.93 -8.45,-0.78 -16.9,-1.57 -25.27,-3 -16.16,-1.61 -32.46,-2.53 -48.69,-1.34 -19.7,1.19 -38.58,7.73 -56.58,15.43 -9.68,4.52 -18.82,10.12 -27.82,15.76 -8.76,5.59 -17.53,11.24 -25.71,17.67 -1.6,1.46 -3.74,2.61 -4.38,4.83 a 15,15 0 0 0 4,-1.7 c 7.14,-4.23 13.39,-9.76 20.52,-14 A 305.52,305.52 0 0 1 198.8,24.81 c 11.31,-3.94 23.22,-5.75 35.1,-6.91 12.06,-0.88 24.13,0.35 36.15,1.32 17.14,1.34 34.16,4 51.33,5.14 11.67,0.64 23.34,1 35,0.68 11.09,-0.68 22.22,-0.77 33.32,-0.39 7.07,0.54 14.25,1.07 21,3.33 a 158.77,158.77 0 0 1 27.29,12.44 c 8.46,4.84 16.81,10 24,16.66 a 26.34,26.34 0 0 1 6.33,10.54 30.23,30.23 0 0 1 1.45,9.19 c 0.61,7.73 2.18,15.74 6.77,22.18 a 70.51,70.51 0 0 0 13.46,13.75 99.52,99.52 0 0 1 9.37,9.34 c 2,2.56 4.21,5.14 5.18,8.33 2,6 2.41,12.4 2.89,18.67 0.13,8.32 0.27,16.88 -2.49,24.84 -4.22,12.32 -11.82,23.11 -16.39,35.28 -2.5,6.59 -3.1,13.69 -3.49,20.67 -0.21,18.46 -0.16,36.91 -0.12,55.37 0,10.54 0.52,21.05 0.72,31.59 0.47,8.3 0.59,16.62 1.47,24.9 0.52,6.59 1.59,13.18 1.09,19.81 -0.57,5.95 -3.82,11.13 -6.88,16.1 -5.67,8.19 -12.8,15.72 -21.81,20.25 -8.45,4.42 -17.31,8.49 -26.8,10 -12.33,1.94 -24.85,1.26 -37.28,1.17 -7.74,-0.39 -15.48,-0.6 -23.2,-1.26 a 244.57,244.57 0 0 1 -30.08,-5 l -0.32,-0.17 c -12.15,-2.76 -24.12,-6.27 -36.24,-9.17 -10.29,-2.44 -20.55,-5.07 -31,-6.55 -5.49,-1.28 -10.68,-3.57 -15.93,-5.59 -13.88,-5.69 -27.31,-12.4 -40.75,-19 -11.19,-5.41 -22.38,-10.79 -33.78,-15.74 -4,-1.78 -8.07,-3.16 -12,-5 -10.94,-5 -21.54,-10.77 -32.05,-16.66 -8.42,-4.83 -16.83,-9.71 -24.82,-15.25 a 138.94,138.94 0 0 1 -11.1,-9.18 C 94.53,291.6 84.48,283 77.19,272 70.86,263.3 67.4,253 61.79,243.86 a 87.62,87.62 0 0 0 -11.2,-15.37 c -1.71,-1.92 -3.86,-3.66 -4.61,-6.22 3.45,0.35 6.67,2.27 10.22,1.7 -2.62,-3.1 -6.67,-4.38 -10.23,-6.08 -7.91,-2.78 -14.18,-8.82 -18.88,-15.59 A 74.83,74.83 0 0 1 15.26,178 q -0.24,-1.14 -0.54,-2.28 c -1.46,-6.67 -1.91,-13.68 -0.29,-20.37 1.58,-7.33 6,-13.55 10.27,-19.57 5.64,-7.44 11.61,-14.79 19,-20.54 3,-2.44 7,-3.08 10.65,-4 3.21,-0.61 6.42,-1.21 9.66,-1.64 6.79,-1.07 13.71,-1.1 20.45,-2.39 -2.87,-0.63 -5.82,-0.19 -8.73,-0.46 -5.9,-0.52 -11.92,0.25 -17.74,-1 -1.39,-0.5 -0.5,-2.26 0.3,-2.94 C 64,97 67.55,89.6 71.38,82.55 c 2.28,-4.56 4.4,-9.2 6.65,-13.77 A 209.64,209.64 0 0 1 93.8,42.46 91.47,91.47 0 0 1 105,29.93 94.35,94.35 0 0 1 117.9,19.41 c 4.13,-2.52 8.38,-5.09 13.18,-6.12 a 100.78,100.78 0 0 1 18.1,-1.8 c 4.57,0 9.12,-0.47 13.7,-0.38 29.87,-0.18 59.76,-0.32 89.63,0.09 8.89,0.48 17.76,0.21 26.6,0.8 z m -44.55,20.27 c -6.06,0.38 -12.08,1.19 -18.1,2 -8.16,1.21 -16.39,2.42 -24.17,5.27 A 185.49,185.49 0 0 0 162.12,53 c -11.67,7.1 -23,15.35 -31.18,26.43 a 6.84,6.84 0 0 0 -1.34,2.92 c 2.88,-1.09 5.18,-3.2 7.47,-5.18 4.63,-4 8.66,-8.73 13.6,-12.42 a 142.17,142.17 0 0 1 30.64,-17.49 129.54,129.54 0 0 1 31.53,-9.34 c 20,-3.3 40.53,-5.13 60.72,-2.17 7.14,0.94 14.18,2.53 21.33,3.44 25.29,3.17 50.91,2.93 76.29,1 8.3,-0.62 16.55,-1.78 24.86,-2.19 a 34,34 0 0 1 12.43,0.86 c 3.32,1.19 6,4.14 9.63,4.36 1.33,0.13 0.55,-1.53 0.09,-2 a 16.24,16.24 0 0 0 -9.72,-5.77 c -6.77,-1.16 -13.63,-0.19 -20.41,0.15 q -17.74,2 -35.59,2.78 c -6.94,0.63 -13.91,0.34 -20.85,0.75 -5.28,-0.25 -10.58,-0.24 -15.86,-0.57 -10.67,-0.92 -21.38,-1.9 -31.88,-4.09 C 267.69,30.92 251,30.8 234.56,32.27 Z m 12.34,15 c -7.89,-0.13 -15.76,0.27 -23.65,0.51 -9.48,0.69 -19.06,1.29 -28.25,3.92 a 108.16,108.16 0 0 0 -21.31,8.07 107.46,107.46 0 0 0 -22.23,16.89 c -2.58,2.63 -5.38,5.21 -6.94,8.63 0.27,0.32 0.52,0.65 0.77,1 3.33,-1.7 6.08,-4.33 8.72,-6.94 a 95.89,95.89 0 0 1 14.49,-12 66,66 0 0 1 12.94,-7.35 121.16,121.16 0 0 1 35.5,-8.89 c 11.29,-0.91 22.64,-1.49 33.95,-0.66 5.61,0 11.32,0.53 16.88,-0.5 -0.09,-0.21 -0.26,-0.65 -0.34,-0.86 -6.69,-1.67 -13.67,-1.7 -20.53,-1.8 z m 9.45,5 c 0,0.32 -0.1,1 -0.13,1.29 l -0.43,-0.39 a 28.87,28.87 0 0 0 3.5,5.06 39.35,39.35 0 0 1 8.44,15.32 c 1,3.33 1.2,6.88 2.4,10.17 a 52.82,52.82 0 0 0 0.24,-9.74 24.83,24.83 0 0 0 -7.16,-16.89 c -1.98,-2 -4.11,-4.01 -6.86,-4.84 z m 117,1.13 c -10.67,0.93 -21.38,1.77 -31.95,3.64 -2.92,0.56 -5.9,1.17 -8.46,2.77 0,0.5 0,1 -0.05,1.5 2.91,0.56 5.82,-0.17 8.63,-0.92 6.58,-1.41 13.29,-2.08 20,-2.91 8.48,-0.7 17,-1.78 25.5,-1.33 6.32,0.39 11.93,3.63 17.31,6.7 5.1,2.89 10.18,6.3 13.46,11.28 2.29,3.37 3.06,7.47 5.17,10.94 h 0.94 a 21.45,21.45 0 0 0 -4.26,-14.89 c -5.47,-7 -13.73,-10.83 -21.6,-14.46 -7.68,-3.67 -16.41,-3.1 -24.65,-2.34 z m -26.74,15.11 c -3.45,0.42 -5.09,3.88 -6.17,6.76 -2.77,7.73 -1.62,16 -0.85,24 1,-3.84 0.41,-7.84 1.11,-11.72 0.82,-4.84 2,-9.77 4.84,-13.87 a 6.3,6.3 0 0 0 1.07,-5.17 z M 215.28,82.73 a 134,134 0 0 0 -38,4.72 l -0.28,0.24 -1.34,0.27 a 53.31,53.31 0 0 0 -25.2,17.74 c -1.79,2.68 -4.14,6.11 -2.62,9.41 2.59,4.31 7.71,6.61 12.65,6.51 9,-0.29 17.61,-3.29 26.58,-3.91 a 101.93,101.93 0 0 1 40.17,4.16 c 11,3.36 20.94,9.4 31.49,13.88 4.48,-2.91 9.15,-5.6 13.17,-9.14 2.25,-1.91 4.54,-4 5.62,-6.82 0.49,-2.75 0.92,-5.7 0,-8.4 -1.17,-2.66 -3.42,-4.6 -5.47,-6.58 a 114.82,114.82 0 0 0 -29.1,-17.64 c -8.7,-3.81 -18.3,-4.68 -27.67,-4.44 z m 180.21,13 a 147.57,147.57 0 0 0 -19.84,0.5 c -6.38,0.6 -12.9,1.3 -18.82,3.92 A 63,63 0 0 0 342.26,109 c -4.32,3.47 -9.52,6.15 -15.1,6.57 -4.14,0 -8.44,0.35 -12.09,2.48 -1.17,2.61 1.41,4.6 3.25,6 4,3.16 9.5,4 12.73,8.15 2.55,4.46 1.09,9.81 1.79,14.66 0.05,4.68 0.93,9.67 4.15,13.27 3.39,3.79 7.5,7.37 12.62,8.4 4.07,2.6 7.45,8 5.34,12.85 a 58.27,58.27 0 0 1 -14.27,16.94 c -2.88,2.28 -6.39,4.23 -10.15,4.18 -2.89,-0.12 -4.7,-2.67 -7.15,-3.8 -4.12,-1.56 -8.32,4.18 -6,7.77 2.26,4.1 7.09,5.62 11.36,6.61 4.73,0.41 10,1.11 14.16,-1.78 8.28,-5.74 14,-14.42 22.19,-20.26 a 4.47,4.47 0 0 1 6.25,0.28 c 2.43,2 4.6,-1 5.81,-2.86 1.4,-2.28 4.4,-2.2 6.65,-1.5 a 101.08,101.08 0 0 1 18,7.47 c 2.64,1.26 5.25,3.17 8.3,3 -1.25,-2.54 -3.58,-4.25 -5.8,-5.89 a 25.22,25.22 0 0 0 -11.69,-4.74 c -6.27,-1.72 -10.52,-7 -15.13,-11.24 -6.73,-6.25 -14.4,-11.39 -22.15,-16.27 -3.06,-1.94 -6.56,-3.58 -8.55,-6.75 -2.23,-3.35 -2.43,-7.49 -2.83,-11.36 -0.07,-3.11 -0.77,-6.61 1.05,-9.36 2.17,-2.61 5.63,-3.45 8.58,-4.86 11.3,-3.69 23.23,-5 35,-6.15 a 191.67,191.67 0 0 0 25.5,-3.42 9.68,9.68 0 0 0 7.1,-5.57 c 0.75,-2.14 -0.68,-4.1 -2,-5.64 a 30.18,30.18 0 0 0 -9.57,-7.48 c -4.37,-2.13 -9.3,-2.79 -14.12,-3 z m -258.64,11.46 c -6.42,0.9 -12.92,1.56 -19.15,3.43 -0.58,2.94 2.92,3.72 5,4.71 a 32.41,32.41 0 0 0 13.18,1.08 c -1.41,-1.28 -3.51,-1 -5.24,-1.54 -1.39,-0.46 -3.35,-0.19 -4.08,-1.72 4.43,-2.43 9.39,-3.67 13.89,-6 a 10.32,10.32 0 0 0 -3.6,0.04 z M 430.42,110 c -1.3,0.24 -2,1.39 -2.71,2.42 a 7.88,7.88 0 0 0 4,1.76 99.28,99.28 0 0 0 10.64,0.36 c 8.12,0.61 16.26,-0.73 24.38,0 a 14.76,14.76 0 0 1 9.14,4.32 53,53 0 0 0 10.13,8.66 c 2.15,1.4 4.59,2.43 6.36,4.34 5.25,5.29 7.88,12.67 8.78,19.95 0.49,5.58 -1,11.09 -2.2,16.49 -1.05,4 -2,8.19 -3.94,11.94 a 18.15,18.15 0 0 1 -6.21,5.7 c -4.11,2.37 -8.47,4.26 -12.7,6.4 -3,1.55 -6.31,2.67 -9.12,4.64 0,0.3 -0.06,0.91 -0.08,1.22 1.85,0.57 3.68,-0.42 5.45,-0.87 7.84,-2.73 15.7,-5.9 22.28,-11.08 a 15.26,15.26 0 0 0 5.67,-8.91 c 2,-8.13 4,-16.41 3.7,-24.83 0.29,-6.28 -2.23,-12.22 -5.05,-17.68 a 28.33,28.33 0 0 0 -4.55,-6.74 c -3.4,-1.15 -6.11,-3.59 -8.92,-5.72 -4.84,-3.87 -9.28,-8.94 -15.68,-10.06 C 459,110.85 448,112.53 437.26,110.55 A 16.11,16.11 0 0 0 430.42,110 Z m -374.51,3.47 a 17.59,17.59 0 0 0 -6.78,2.21 45,45 0 0 0 -12.21,11.54 c -2.29,3.23 -4.59,6.55 -5.86,10.35 -1.75,4.9 -1.69,10.19 -1.84,15.33 a 186.29,186.29 0 0 0 1.52,30.6 c 0.57,4 1.16,8 3,11.6 a 29.06,29.06 0 0 0 8.31,9.82 63.86,63.86 0 0 0 10.08,5.08 c 3.83,1.55 7.72,3.23 11.88,3.63 -0.84,-2.06 -3.22,-2.68 -4.91,-3.87 -6.58,-4.1 -14.43,-6.5 -19.69,-12.47 -3.42,-4 -5,-9.16 -5.73,-14.27 -1.83,-10.95 -2,-22.1 -1.67,-33.17 a 32.2,32.2 0 0 1 2.67,-12 74.91,74.91 0 0 1 11.46,-16.05 c 1.8,-1.91 3.78,-4 6.53,-4.39 13.5,-2.53 27.26,-3.23 40.92,-4.38 v -0.74 c -12.53,-0.06 -25.21,-0.85 -37.68,1.18 z m 78.69,7.46 c -1.33,1.13 -0.64,2.89 -0.28,4.31 2.59,-1.56 5.48,-2.79 7.57,-5 -2.38,-0.48 -5.22,-0.87 -7.29,0.69 z m 66.57,1.83 c -4,0.93 -6,4.76 -9.08,7.08 a 58.3,58.3 0 0 1 -14,7.66 c -5.29,2 -10.84,3.69 -16.56,3.72 -7.75,-0.4 -15.2,-2.85 -22.49,-5.33 a 194.17,194.17 0 0 1 -21.2,-9.08 36.47,36.47 0 0 0 -10.45,-3.13 94.91,94.91 0 0 0 -27.65,-0.54 c -9,1.29 -16.76,6.85 -22.47,13.66 a 51,51 0 0 0 -12.13,29.77 55.42,55.42 0 0 0 6.74,26.85 c 1.46,2.34 3,4.92 5.55,6.19 a 4.14,4.14 0 0 0 5.44,-3.73 35.72,35.72 0 0 0 -2.67,-11.67 c -2,-5.1 -3.9,-10.37 -4.43,-15.87 0.21,-6.12 3,-11.81 6,-17.05 3,-5.24 6.78,-10 11.75,-13.44 A 33.55,33.55 0 0 1 86.68,134 l 0.29,-0.22 a 105.77,105.77 0 0 1 14.24,-0.23 c 2.48,0.28 5.12,0.69 7.17,2.22 3,2.15 6.39,3.53 9.71,5 12.09,5.15 24.71,9.53 37.87,10.72 9.14,0.38 18.6,0.59 27.23,-2.89 A 58.89,58.89 0 0 0 204.84,133 c 1.6,-2.07 3.6,-4.39 3.32,-7.18 a 5.85,5.85 0 0 0 -6.99,-3.06 z m 263.45,3.92 c 0,0.26 0,0.77 0,1 3.57,3.42 8.31,5 12.5,7.51 a 11.77,11.77 0 0 1 5.19,7.41 c 1.25,4.69 1.68,9.54 2.45,14.32 0.2,3.3 0.85,6.8 -0.45,10 -2.72,5.82 -9.92,8.38 -11.87,14.65 a 6.41,6.41 0 0 0 3.63,-0.94 32,32 0 0 0 8.8,-7.62 12.67,12.67 0 0 0 3,-8.05 106.39,106.39 0 0 0 -3.11,-25.5 c -0.77,-2.39 -1.3,-5.15 -3.47,-6.71 -3.9,-2.73 -8.44,-4.33 -12.92,-5.81 a 28,28 0 0 0 -3.75,-0.26 z M 452,136 c -6.61,-0.16 -13.45,-0.44 -19.74,2 -6.72,2.55 -12,7.67 -18.09,11.26 a 9.34,9.34 0 0 1 -6.94,1.22 c -4.8,-1.95 -9.33,-5 -14.71,-5 a 5.18,5.18 0 0 0 -2.57,6.83 c 1.75,4.41 6.21,7.11 10.6,8.38 a 69.9,69.9 0 0 0 17,2.12 c 3.78,-0.26 8.71,-0.13 10.75,-4 1.87,-4.07 3.89,-8.75 8.35,-10.55 6.84,-2.37 14.43,-2 21.27,0.2 4.13,1.18 7.34,4.44 11.64,5.17 2.94,1 6,-2.09 5.5,-5 -0.44,-4.3 -4.39,-7.11 -7.8,-9.2 A 47.13,47.13 0 0 0 452,136 Z m -354.77,7.4 c -5,4.82 -4,12.61 -8,18 a 16.06,16.06 0 0 1 -6.74,5.13 c -4.62,2 -9.32,3.88 -14.1,5.53 -2.3,0.7 -4.52,2.92 -3.51,5.51 6.06,4 13.65,1.35 20.27,3.11 4.4,1.31 6.1,6.2 7,10.25 0.81,2.5 -0.54,4.9 -0.7,7.38 a 19,19 0 0 0 1.55,2.43 c 4.26,4.12 7.51,9.11 11,13.88 5.49,7.83 10.54,16 16.38,23.54 6.89,9.08 13.9,18.17 22.34,25.9 a 287.3,287.3 0 0 0 24.28,19.76 248.68,248.68 0 0 0 28.37,18.5 c 12,6.2 25,10.47 38.07,13.91 24.69,6.53 50.25,9 75.73,9.54 l 0.34,0.21 c 18.51,0.32 37,0.35 55.51,-0.62 8.27,-0.63 16.57,-1.1 24.79,-2.3 13.2,-2 26.65,-3.69 39.05,-8.91 a 42,42 0 0 0 19.39,-15.63 c 6,-9.47 10.35,-20.17 11.6,-31.38 a 282.38,282.38 0 0 0 1.59,-33.29 c 0,-15.32 -0.86,-30.73 -4.09,-45.74 -0.91,-3.6 -1.76,-7.4 -4.05,-10.43 a 11.65,11.65 0 0 1 -3.42,-4 c -2.11,-3.94 -1.6,-8.67 -3.68,-12.6 -0.69,-1.4 -2.14,-2.66 -3.81,-2.27 -1.67,0.39 -2.26,2 -3,3.25 -2.27,7.1 -2.06,14.73 -4.5,21.79 a 26.58,26.58 0 0 1 -6.3,10.81 c -4.77,4.87 -10.69,8.41 -16.66,11.61 a 137.44,137.44 0 0 1 -32.8,11.78 c -12.22,2.7 -24.79,3.38 -37.28,3.25 -14.75,-0.09 -29.47,-1.54 -44.11,-3.26 -27.12,-3.52 -53.44,-11.27 -79.55,-19.17 -19.24,-6 -38.67,-11.56 -57.39,-19.11 -11.79,-4.65 -23.49,-9.59 -34.78,-15.35 a 140.5,140.5 0 0 1 -16.26,-9.19 c -2.24,-1.64 -4.75,-3.36 -5.74,-6.08 -0.53,-1.78 -0.88,-3.72 -2.22,-5.11 -1.08,-1.35 -3.32,-2.14 -4.62,-0.66 z m 134.17,20.74 c 1.81,2.35 1.28,6.11 -1.69,7.18 -5.54,1.79 -11.47,1.6 -17.21,2.14 -7.3,0.21 -14.83,-0.31 -21.88,2 a 3.64,3.64 0 0 0 0,2.84 c 12.61,-1.4 25.36,-1.26 37.91,-3.27 2.25,-0.43 4.65,-1.17 6.13,-3 a 7.08,7.08 0 0 0 -0.68,-9 c -1.1,-0.66 -2.06,0.13 -2.58,1.11 z m 12.6,3.33 c -3.89,2.67 -5.36,7.62 -5.16,12.15 0.18,4.79 -0.59,9.86 1.49,14.36 1.41,3.26 4.59,5.16 7.5,6.92 1.72,0.86 3.42,2.15 5.41,2.13 a 8.65,8.65 0 0 0 3.58,-4.8 6.87,6.87 0 0 0 -2.51,-6.87 12.55,12.55 0 0 1 -4.85,-10.57 5,5 0 0 1 2.7,-4.36 c 3.69,-2 7.94,-2.36 12,-3.1 2.49,-0.39 5.34,-0.69 7.07,-2.74 a 3.17,3.17 0 0 0 0,-4.62 11.27,11.27 0 0 0 -5.44,-2.3 c -7.34,-1.11 -15.57,-0.61 -21.79,3.8 z m 24.86,15.38 a 5.9,5.9 0 0 0 -4.54,3.57 43.9,43.9 0 0 0 0,5.13 8.36,8.36 0 0 0 4,5.87 c 2.92,0.25 3.7,-3.29 6.39,-3.61 7.8,-2.07 15.94,0 23.83,-1.25 2.1,-0.29 4.59,-1.5 4.12,-4.05 -2,-2.7 -5.24,-3.91 -8.34,-4.8 -8.32,-2.24 -17.05,-1.9 -25.49,-0.86 z M 143.61,297.33 c 3.9,2.92 8.29,5.09 12.54,7.44 20.9,11.3 42.69,20.87 64.71,29.77 11.24,4.42 22.59,8.62 34.14,12.14 l 0.32,0.16 c 15.39,4.75 31.55,5.72 47.52,6.61 12.23,0.87 24.48,1.37 36.72,2 14.09,0.46 28.21,1 42.3,0.32 11.71,-0.57 23.69,-2 34.4,-7 9.46,-4.33 18.61,-10.43 24.07,-19.49 -0.27,-0.24 -0.53,-0.46 -0.8,-0.68 l -1.24,0.54 c -4.7,2.63 -8.33,6.71 -12.63,9.89 a 75.23,75.23 0 0 1 -13.35,7.65 76.83,76.83 0 0 1 -28.17,6.53 c -8.1,0.32 -16.2,0.06 -24.3,-0.09 -5.42,-0.57 -10.9,-0.2 -16.32,-0.76 -7.9,-0.28 -15.8,-0.61 -23.68,-1.12 -6.23,-0.12 -12.44,-0.62 -18.66,-0.85 -11,-0.77 -22.12,-1.25 -33,-3.39 -11.42,-2.33 -22.26,-6.7 -33.19,-10.6 -21.34,-8.13 -42.36,-17.13 -62.86,-27.19 -8.1,-3.81 -16.21,-7.63 -24.54,-10.9 a 9.74,9.74 0 0 0 -3.98,-0.98 z m -27.73,0.49 c 0.35,1.85 2.34,2.55 3.66,3.63 10.62,6.75 21.89,12.42 33.11,18.09 11.22,5.67 22.48,10.94 33.94,15.91 a 381.24,381.24 0 0 0 49.87,17.06 c 14.13,3.36 28.35,6.33 42.6,9.17 13.89,2.64 27.85,5.11 41.93,6.45 l 0.36,0.23 c 13.58,1.18 27.17,2.28 40.81,2.59 7.3,0.59 14.64,0.23 21.95,0.78 10,0.16 19.95,0.44 29.93,0.23 A 61.31,61.31 0 0 0 430.12,370 c 6.06,-1.81 11.37,-5.34 16.73,-8.58 4.49,-2.82 9.12,-5.47 13.22,-8.85 a 10.3,10.3 0 0 0 4,-8.64 c -0.13,-3.65 0.15,-7.4 -0.8,-11 -0.49,3.44 -0.56,7 -1.54,10.33 a 14,14 0 0 1 -4.27,6.17 c -4.64,4 -10,7 -15.25,10.18 -5.7,3.37 -11.45,7 -18,8.55 -7.75,1.84 -15.77,1.46 -23.69,1.48 -4.54,0 -9.08,-0.1 -13.63,-0.26 -6.16,-0.51 -12.37,-0.18 -18.54,-0.72 -10.39,-0.29 -20.78,-0.79 -31.15,-1.61 a 433.91,433.91 0 0 1 -57.49,-8.54 c -13.08,-2.6 -26.12,-5.41 -39.13,-8.3 -6.18,-1.44 -12.39,-2.76 -18.45,-4.69 -20.81,-6.73 -40.8,-15.77 -60.46,-25.33 -11.74,-5.67 -23.06,-12.2 -34.8,-17.88 -3.59,-1.57 -7.14,-3.44 -10.99,-4.49 z m 244.6,40.43 c -16.76,-0.5 -33.55,-0.43 -50.32,-0.06 a 24.51,24.51 0 0 0 -3.52,0.33 c 1.54,0.1 3.09,0.15 4.61,0.39 13.38,0.31 26.78,0.17 40.16,0.13 3.39,0.08 6.75,-0.39 10.13,-0.37 1.16,-0.24 -0.77,-0.38 -1.06,-0.42 z"
         id="path56" />
      <path
         class="cls-1"
         d="m 235.7,97.06 c -4.14,-1.12 -8.3,-3 -12.67,-2.46 -0.73,2.25 -0.53,4.65 -1.2,6.92 -0.46,2.11 -1.7,4.14 -1.17,6.38 l 1.29,0.78 c 1.18,0.13 2.36,0.2 3.54,0.26 a 40.2,40.2 0 0 1 7.44,1.65 c 5.53,2 10.56,5.06 16,7.26 3.53,1.42 7.22,3.57 11.15,2.64 1.82,-0.85 3.87,-2.48 3.67,-4.7 0.05,-1.77 -1.45,-3 -2.54,-4.15 C 254,104.88 244.94,100.36 235.7,97.06 Z"
         id="path58" />
      <path
         class="cls-1"
         d="m 176.23,104.4 c -5.27,-2.37 -11.5,0.67 -14.48,5.26 -0.35,0.54 -0.69,1.08 -1.05,1.62 a 51.62,51.62 0 0 0 5.38,-1.2 23.91,23.91 0 0 0 8.82,-3.67 3.77,3.77 0 0 0 1.33,-2.01 z"
         id="path60" />
      <path
         class="cls-1"
         d="m 398,107.19 a 49.38,49.38 0 0 0 -15.91,0 c 0,0.2 0.07,0.58 0.09,0.77 A 139,139 0 0 0 398,108 c 0,-0.23 0,-0.62 0,-0.81 z"
         id="path62" />
      <path
         class="cls-1"
         d="m 115.94,172.7 c -4.42,-2 -8.81,-4.35 -13.66,-5.14 -1.11,0.41 -2.54,1 -2.56,2.41 -0.49,4.33 0.9,8.59 2.45,12.58 a 27.18,27.18 0 0 0 7,10.54 64.33,64.33 0 0 0 12.11,7.77 c 6.84,3.56 13.8,6.86 20.8,10.08 a 41.59,41.59 0 0 0 7.73,2.95 37.24,37.24 0 0 0 0.6,-11.73 c -0.42,-3.23 -0.23,-6.64 -1.69,-9.64 -1.52,-3.29 -4.76,-5.23 -7.72,-7.05 -8.18,-4.56 -16.62,-8.69 -25.06,-12.77 z"
         id="path64" />
      <path
         class="cls-1"
         d="m 444.1,195.67 h -1.13 c 0.42,3.71 2,7.71 5.2,9.86 0.26,-3.69 -1.88,-7.04 -4.07,-9.86 z"
         id="path66" />
      <path
         class="cls-1"
         d="m 185.46,201.54 c -6.66,-2 -13.22,-4.34 -20,-6.06 a 13.29,13.29 0 0 0 -3.32,-0.46 c -0.43,0.86 -0.85,1.73 -1.27,2.6 a 11.31,11.31 0 0 0 0.26,5.08 38,38 0 0 0 6.42,10.49 c 3.59,4.32 7.55,8.66 12.74,11 10.6,1.68 20.47,6.24 30.41,10.11 3.57,1.25 7,3 10.72,3.78 2.63,-5 3.35,-10.72 4.73,-16.15 0.42,-2.21 1.45,-4.86 -0.18,-6.8 -2.12,-2.18 -5.23,-2.89 -8,-3.88 -10.79,-3.25 -21.71,-6.32 -32.51,-9.71 z"
         id="path68" />
      <path
         class="cls-1"
         d="m 433.09,207.43 h -1.1 a 14.38,14.38 0 0 0 -0.67,3.11 c -0.56,8 0.44,15.91 1.63,23.76 0.34,1.66 0.51,3.67 2,4.75 a 3.8,3.8 0 0 0 2.19,-0.85 c 2.27,-1.49 4.89,-3.16 5.35,-6.06 -0.77,-5.23 -2.68,-10.2 -4.33,-15.2 -1.36,-3.28 -2.64,-6.79 -5.07,-9.51 z"
         id="path70" />
      <path
         class="cls-1"
         d="m 127.46,217.85 c -2.94,-1.17 -5.78,-2.65 -8.9,-3.26 a 50.25,50.25 0 0 0 4,6.5 c 6.33,9.13 12.77,18.24 20.17,26.56 1.63,1.52 3,3.74 5.39,4 4.25,-1.87 4.32,-7.14 4,-11.1 -0.6,-3.32 -0.9,-6.85 -2.78,-9.74 -2.11,-3 -5.37,-5 -8.58,-6.67 -4.35,-2.27 -8.82,-4.29 -13.3,-6.29 z"
         id="path72" />
      <path
         class="cls-1"
         d="m 419,219.23 c -0.6,-1.57 -2.61,-1.17 -3.86,-0.73 a 81.75,81.75 0 0 0 -10.7,5.18 c -2,1.15 -4,3.17 -3.5,5.69 a 80.26,80.26 0 0 1 2.21,9.56 c 0.6,3.18 0.29,6.54 1.69,9.55 2.86,-0.61 5.74,-1.11 8.58,-1.79 a 7.89,7.89 0 0 0 5.19,-4.5 c 1.77,-3.86 2.12,-8.14 2.38,-12.32 0.06,-3.61 -0.23,-7.41 -1.99,-10.64 z"
         id="path74" />
      <path
         class="cls-1"
         d="m 258.31,222.42 c -6.09,-0.88 -12.06,-2.63 -18.2,-3.12 -2.56,3.57 -3.12,8 -4.12,12.2 -0.6,2.86 -1.57,5.65 -1.88,8.58 1.92,2.69 5.27,3.62 8.25,4.59 a 179.68,179.68 0 0 0 34.64,6.62 92.65,92.65 0 0 0 10.14,0.17 33.24,33.24 0 0 0 3.92,-1 c 1.45,-2.09 1.37,-4.71 1.08,-7.13 -0.44,-3.43 -0.1,-7 -1.37,-10.31 -1.08,-2.72 -4,-4 -6.59,-4.78 l -0.34,-0.19 c -8.3,-2.18 -16.75,-3.82 -25.19,-5.41 z"
         id="path76" />
      <path
         class="cls-1"
         d="m 387.78,231.24 c -1.93,-1.66 -4.7,-1.7 -7.11,-1.44 -7.9,0.87 -15.78,2 -23.59,3.4 -2.73,0.51 -6.33,1.67 -6.34,5 a 53.68,53.68 0 0 0 1.1,9.8 c 0.54,2.3 3.14,3.15 5.24,3.09 a 153.49,153.49 0 0 0 27.76,-1.92 c 2.32,-0.51 4.78,-0.82 6.78,-2.21 l 0.68,-1.25 c 0,-3 -1.12,-5.77 -1.92,-8.58 -0.66,-2.01 -1.19,-4.21 -2.6,-5.89 z"
         id="path78" />
      <path
         class="cls-1"
         d="m 316.35,231.14 a 44.74,44.74 0 0 0 -9,-0.46 3.93,3.93 0 0 0 -3.42,1.95 c -1,2.13 -0.75,4.56 -0.81,6.85 0.07,3 -0.29,6.06 0.75,8.91 a 5.38,5.38 0 0 0 3.89,2.52 c 5.83,1 11.76,0.46 17.64,0.58 4.45,-0.11 9.08,0.35 13.37,-1.06 2,-0.72 1.74,-3.12 1.47,-4.79 a 85.31,85.31 0 0 0 -2.86,-11.91 c -6.97,-0.99 -13.99,-1.91 -21.03,-2.59 z"
         id="path80" />
      <path
         class="cls-1"
         d="m 173,240.11 c -2.75,-1.16 -5.58,-2.6 -8.66,-2.19 -1.33,2.35 -0.56,5.1 -1,7.64 -0.38,4.28 -1.61,8.67 -4.48,12 a 3.64,3.64 0 0 0 0,5.16 c 2.77,3.13 6.32,5.4 9.66,7.85 9.81,6.83 19.69,13.57 29.87,19.86 1.79,1 3.78,2.45 5.92,1.76 1.69,-0.86 2.68,-2.59 3.6,-4.16 a 87.15,87.15 0 0 0 8.11,-20.25 c 0.7,-3.17 1.52,-6.86 -0.64,-9.67 -2.1,-3 -5.89,-3.68 -9.19,-4.53 C 194.65,250.16 183.84,245 173,240.11 Z"
         id="path82" />
      <path
         class="cls-1"
         d="m 250.72,267.82 c -6.4,-1.95 -12.52,-4.73 -19,-6.46 a 2.83,2.83 0 0 0 -3.69,1.5 c 0.06,6.32 -0.6,12.81 -3.62,18.47 a 60.06,60.06 0 0 0 -5.8,12.36 c -0.44,1.62 -0.92,3.83 0.57,5.08 1.88,1.64 4.33,2.41 6.63,3.25 a 275.46,275.46 0 0 0 37.44,9.36 c 4.14,0.56 8.3,1.42 12.49,1.19 a 6.82,6.82 0 0 0 3,-1.13 11.55,11.55 0 0 0 1.76,-5.27 120.26,120.26 0 0 0 0.72,-13.14 57.57,57.57 0 0 0 0.16,-10.42 c -0.24,-2.18 -0.7,-4.65 -2.59,-6 a 22,22 0 0 0 -7.33,-2.78 c -6,-1.42 -11.88,-3.18 -17.73,-5.05 z"
         id="path84" />
      <path
         class="cls-1"
         d="m 447.18,270 a 27.36,27.36 0 0 0 -3.86,5.5 c -3.21,5.58 -6.28,11.39 -7.7,17.72 a 5.87,5.87 0 0 0 0.31,3.15 c 0.45,-0.06 0.9,-0.11 1.36,-0.15 2.63,-5.64 4.89,-11.44 7.36,-17.15 1.04,-2.98 2.64,-5.89 2.53,-9.07 z"
         id="path86" />
      <path
         class="cls-1"
         d="m 426.22,280.61 -0.76,-1.29 c -0.83,0.19 -1.66,0.41 -2.49,0.61 -3.73,3.43 -6.27,7.91 -8.58,12.37 -2.05,4 -3.91,8.18 -5.7,12.34 a 8,8 0 0 0 -0.7,2.89 c 3,0.34 5.95,-0.72 8.83,-1.47 4.47,-1.25 9.09,-2.44 12.91,-5.17 a 4.22,4.22 0 0 0 1.55,-2.26 c -2.51,-1.27 -6.5,0.7 -7.8,-2.5 -1,-5.36 1.78,-10.37 2.74,-15.52 z"
         id="path88" />
      <path
         class="cls-1"
         d="m 309,282 a 76.63,76.63 0 0 1 -13,-2.6 c -2.07,-0.44 -2.7,2.28 -3,3.8 a 154.65,154.65 0 0 0 -1.29,20.63 c 0.07,3.18 0,6.57 1.4,9.48 0.81,1.52 2.61,1.65 4.1,1.88 a 147.6,147.6 0 0 0 18,0.81 c 4.38,-0.08 8.94,0.38 13.11,-1.25 2,-1.84 2.41,-4.63 2.94,-7.16 1.11,-6.14 2.7,-12.2 3.24,-18.41 0,-1.54 -0.39,-3.42 -1.85,-4.22 -2.27,-1.18 -4.88,-1.21 -7.37,-1.34 l -0.35,-0.21 C 319.6,283.32 314.29,282.6 309,282 Z"
         id="path90" />
      <path
         class="cls-1"
         d="m 404.27,283.78 c -3.95,0.29 -7.67,1.92 -11.61,2.31 -1.38,0.24 -3.1,0.07 -4,1.36 -2.95,3.54 -4.25,8.07 -5.72,12.34 -1.05,3.36 -2.25,6.66 -3.48,9.94 a 5.71,5.71 0 0 0 -0.11,2.79 7.68,7.68 0 0 0 2.59,0.42 70.84,70.84 0 0 0 9.69,-1.66 9.41,9.41 0 0 0 4.13,-2 c 0.38,-1.21 -0.3,-2.5 0,-3.74 1.29,-5.86 4.26,-11.14 6.91,-16.47 0.81,-1.69 1.78,-3.37 1.6,-5.29 z"
         id="path92" />
      <path
         class="cls-1"
         d="m 362.63,286.94 c -4.73,-0.33 -9.81,-0.49 -14.26,1.4 -2.29,4.46 -3.32,9.39 -4.41,14.23 l -0.39,2.47 c -0.46,3.33 -1.95,7.08 -0.26,10.26 4.29,1.24 8.88,0.7 13.24,0.07 2.23,-0.47 4.88,-0.78 6.3,-2.79 a 73.73,73.73 0 0 0 8,-14.32 c 1.18,-2.76 2.59,-5.51 2.83,-8.55 -0.18,-0.31 -0.55,-0.91 -0.74,-1.22 -3.25,-1.49 -6.86,-1.29 -10.31,-1.55 z"
         id="path94" />
    </g>
  </g>
  <metadata
     id="metadata917">
    <rdf:RDF>
      <cc:Work
         rdf:about="">
        <dc:title>trollface</dc:title>
      </cc:Work>
    </rdf:RDF>
  </metadata>
</svg>
