<svg xmlns="http://www.w3.org/2000/svg" xml:space="preserve" width="84" height="84"><path fill="#f3be3a" stroke="#b76b00" stroke-width="5" d="M2.5 64.536C2.5 30.274 30.274 2.5 64.536 2.5c34.26 0 62.035 27.774 62.035 62.036 0 34.26-27.774 62.035-62.035 62.035-34.262 0-62.036-27.774-62.036-62.035z" style="mix-blend-mode:normal;fill:#ffc703;fill-opacity:1;fill-rule:nonzero;stroke:#584d00;stroke-linejoin:miter;stroke-miterlimit:10;stroke-dasharray:none;stroke-dashoffset:0;stroke-opacity:1" transform="scale(.6508)"/><path fill="none" stroke="#000" stroke-linecap="round" stroke-width="5" d="M31.947 49.237s1.844-2.627 4.59-4.867c1.637-1.335 3.674-2.326 5.611-3.11 2.076-.839 4.442-1.478 6.679-1.559 3.344-.12 6.248.61 6.248.61" data-paper-data="{&quot;index&quot;:null}" style="mix-blend-mode:normal;fill:none;fill-opacity:1;fill-rule:nonzero;stroke:#584d00;stroke-linejoin:miter;stroke-miterlimit:10;stroke-dasharray:none;stroke-dashoffset:0;stroke-opacity:1" transform="scale(.6508)"/><path d="M64.912 114.17c-33.7 0-31.795-25.246-31.795-30.607 0-17.352 14.066-27.148 31.419-27.148 17.352 0 31.419 9.796 31.419 27.148 0 4.234 3.184 30.607-31.043 30.607" data-paper-data="{&quot;index&quot;:null}" style="mix-blend-mode:normal;fill:#584d00;fill-opacity:1;fill-rule:nonzero;stroke-linejoin:miter;stroke-miterlimit:10;stroke-dasharray:none;stroke-dashoffset:0" transform="scale(.6508)"/><path d="M44.137 69.182c0-2.852 8.644-7.63 19.658-7.63s20.228 4.862 20.228 7.63c0 1.743-10.824-.855-20.268-.855-9.622 0-19.618 2.57-19.618.855" data-paper-data="{&quot;index&quot;:null}" style="mix-blend-mode:normal;fill:#fff;fill-opacity:1;fill-rule:nonzero;stroke-linejoin:miter;stroke-miterlimit:10;stroke-dasharray:none;stroke-dashoffset:0" transform="scale(.6508)"/><path fill="none" stroke="#000" stroke-linecap="round" stroke-width="5" d="M97.125 49.237s-1.845-2.627-4.591-4.867c-1.637-1.335-3.673-2.326-5.61-3.11-2.077-.839-4.442-1.478-6.68-1.559-3.343-.12-6.248.61-6.248.61" data-paper-data="{&quot;index&quot;:null}" style="mix-blend-mode:normal;fill:none;fill-opacity:1;fill-rule:nonzero;stroke:#584d00;stroke-linejoin:miter;stroke-miterlimit:10;stroke-dasharray:none;stroke-dashoffset:0;stroke-opacity:1" transform="scale(.6508)"/><g style="mix-blend-mode:normal;stroke-width:1.26908"><path fill="#f3be3a" stroke="#b76b00" stroke-miterlimit="10" stroke-width="6.345" d="M259.545 190.86s3.86-3.95 8.878-9.366c5.585-6.027 14.063-15.16 17.546-20.502 2.494-3.825-1.383-10.306-7.413-8.645-2.423.667-8.675 6.497-14.385 12.941-6.218 7.018-12.805 14.051-12.805 14.051s20.075-27.798 24.253-32.901c1.871-4.815-1.278-11.14-9.107-9.002-.619.155-2.131.84-3.603 2.525-7.529 8.62-21.359 30.044-21.359 30.044s11.56-23.779 15.199-30.68c.422-.8 1.039-2.684 1.076-2.837.798-3.259-2.707-8.556-7.826-6.484-7.893 3.195-19.26 34.889-22.97 35.307-6.193.697-.683-11.787-1.776-20.815-.595-4.92-7.216-8.603-9.677-5.615-2.051 2.49.07 14.744-4.116 21.833-4.842 8.199-9.712 15.202-10.111 15.813-9.023 13.834-4.246 32.935 10.67 42.663 6.495 4.237 25.415 8.363 36.538-1.764 16.481-15.532 42.218-33.51 43.599-37.097 1.944-5.74-3.903-8.937-7.69-7.71-3.124 1.01-6.304 3.543-11.361 7.187-4.369 3.148-10.092 7.407-13.56 11.055z" data-paper-data="{&quot;isPaintingLayer&quot;:true}" style="fill:#ffc703;fill-opacity:1;stroke:#584d00;stroke-width:6.34538;stroke-linecap:round;stroke-linejoin:round;stroke-miterlimit:0;stroke-opacity:1" transform="matrix(.46126 .16803 -.15632 .49582 -54.925 -68.206)"/></g></svg>