<svg version="1.1" viewBox="0.0 0.0 443.6902887139108 459.2283464566929" fill="none" stroke="none" stroke-linecap="square" stroke-miterlimit="10" xmlns:xlink="http://www.w3.org/1999/xlink" xmlns="http://www.w3.org/2000/svg"><clipPath id="p.0"><path d="m0 0l443.69028 0l0 459.22833l-443.69028 0l0 -459.22833z" clip-rule="nonzero"/></clipPath><g clip-path="url(#p.0)"><path fill="#000000" fill-opacity="0.0" d="m0 0l443.69028 0l0 459.22833l-443.69028 0z" fill-rule="evenodd"/><path fill="#000000" fill-opacity="0.0" d="m0 229.29134l0 0c0 -126.63411 99.22357 -229.29134 221.62204 -229.29134l0 0c58.777832 0 115.148254 24.157412 156.71045 67.157875c41.562195 43.000473 64.91159 101.32162 64.91159 162.13345l0 0c0 126.63411 -99.22354 229.29134 -221.62204 229.29134l0 0c-122.39847 0 -221.62204 -102.65723 -221.62204 -229.29134z" fill-rule="evenodd"/><path stroke="#000000" stroke-width="1.0" stroke-linejoin="round" stroke-linecap="butt" d="m0 229.29134l0 0c0 -126.63411 99.22357 -229.29134 221.62204 -229.29134l0 0c58.777832 0 115.148254 24.157412 156.71045 67.157875c41.562195 43.000473 64.91159 101.32162 64.91159 162.13345l0 0c0 126.63411 -99.22354 229.29134 -221.62204 229.29134l0 0c-122.39847 0 -221.62204 -102.65723 -221.62204 -229.29134z" fill-rule="evenodd"/><path fill="#980000" d="m68.238846 229.29134l0 0c0 -80.91188 68.77188 -146.50394 153.6063 -146.50394l0 0c40.738937 0 79.80928 15.435196 108.61607 42.91001c28.806763 27.474815 44.990234 64.73867 44.990234 103.593925l0 0c0 80.91188 -68.77188 146.50395 -153.60631 146.50395l0 0c-84.83441 0 -153.6063 -65.59207 -153.6063 -146.50395z" fill-rule="evenodd"/><path stroke="#000000" stroke-width="1.0" stroke-linejoin="round" stroke-linecap="butt" d="m68.238846 229.29134l0 0c0 -80.91188 68.77188 -146.50394 153.6063 -146.50394l0 0c40.738937 0 79.80928 15.435196 108.61607 42.91001c28.806763 27.474815 44.990234 64.73867 44.990234 103.593925l0 0c0 80.91188 -68.77188 146.50395 -153.60631 146.50395l0 0c-84.83441 0 -153.6063 -65.59207 -153.6063 -146.50395z" fill-rule="evenodd"/></g></svg>