<svg xmlns="http://www.w3.org/2000/svg" width="115.672" height="214.107" viewBox="0 0 30.605 56.649"><g style="stroke-width:.999998" transform="matrix(1.19813 0 0 1.21772 -103.805 54.097)"><path d="m107.338-4.07 7.127 4.184-6.98-1.626zm-.148-2.557 7.127 4.183-6.98-1.626zm-.148-2.558 7.127 4.183-6.979-1.625zm-.148-2.558 7.127 4.184-6.979-1.626zm-.148-2.558 7.127 4.184-6.979-1.626zm-.148-2.557 7.127 4.183-6.979-1.626zm-.148-2.558 6.98 4.482-6.832-1.924zm-.89 15.346L98.33.114l7.08-1.626zm.147-2.557L98.48-2.444l7.08-1.626zm.148-2.558-7.228 4.183 7.08-1.625zm.148-2.558-7.228 4.184 7.08-1.626zm.148-2.558-7.228 4.184 7.08-1.626zm.148-2.557-7.228 4.183 7.08-1.626zm.148-2.558-7.228 4.183 7.08-1.625zm.002-6.294-.924 4.771-6.159 3.41 7.08-1.887.002-.023.001.023 6.66 1.957-5.789-3.532z" style="fill:#4f6435;fill-opacity:.85098;stroke:none;stroke-width:.167728px;stroke-linecap:butt;stroke-linejoin:miter;stroke-opacity:1" transform="matrix(1.5833 0 0 1.80146 -69.05 1.89)"/><path d="m105.292.1 1.158-20.021L107.61.1" style="opacity:1;fill:#433828;fill-opacity:1;stroke:#170e08;stroke-width:.444814;stroke-linecap:butt;stroke-linejoin:miter;stroke-miterlimit:20;stroke-dasharray:none;stroke-opacity:1" transform="matrix(1.5833 0 0 1.80146 -69.05 1.89)"/><ellipse cx="108.085" cy="-31.985" rx="2.387" ry="2.348" style="fill:#f0f;fill-opacity:1;fill-rule:evenodd;stroke:#606;stroke-width:.947044;stroke-linecap:round;stroke-linejoin:round;stroke-dasharray:none;stroke-opacity:1"/><ellipse cx="91.733" cy="-4.751" rx="2.387" ry="2.348" style="fill:#00f3ff;fill-opacity:1;fill-rule:evenodd;stroke:#005c66;stroke-width:.947044;stroke-linecap:round;stroke-linejoin:round;stroke-dasharray:none;stroke-opacity:1"/></g></svg>