<svg xmlns="http://www.w3.org/2000/svg" xml:space="preserve" width="381.875" height="381.875" viewBox="0 0 101.038 101.038"><g transform="rotate(-90 -95.864 209.3)"><rect width="98.738" height="98.738" x="13.549" y="306.314" rx=".366" ry="1.081" style="fill:#404040;fill-opacity:1;stroke:none;stroke-width:2.3;stroke-linejoin:round;stroke-dasharray:none;stroke-opacity:1"/><path d="M112.787 345.417c-.268-2.982-.702-5.844-.702-8.836 0-2.018.702-3.752.702-5.89 0-3.372-.373-19.735-6.312-7.855-.817 1.633 2.215 3.563 1.402 5.19-.812 1.623-3.325 1.736-3.085 3.646.274 2.208 1.955 2.65 2.805 4.35 1.447 2.895-3.814 8.271 5.19 9.395M14.32 321.434c1.733-3.204-3.308-11.002-.561-13.747 1.012-1.013 28.56-.841 31.42-.841 1.118 0 6.415-.74 7.153 0 .901.9-2.35 5.294-2.805 5.75-.243.243-1.9-2.557-2.244-2.386-.706.353-1.791 2.406-2.245 3.087-.316.475-1.948-3.242-2.805-2.385-1.883 1.883 1.133 6.252-3.648 5.19-1.462-.325-6.877-6.17-7.994-5.61-.444.221-.223 3.547-1.824 4.35-1.237.615-5.132-4.89-7.153-.843-.433.865 1.583 3.887.42 5.05-.444.444-2.22-.446-2.664 0-.285.283-.32 1.44-.984 2.101-.486.488-5.329-.42-5.329 0 0 .167 1.104.238 1.261.282zm22.302 83.598c-26.04 1.81-23.94 4.779-22.302-20.058.123-1.86-1.188-9.613 0-10.801 3.233-3.235 4.06 3.91 4.207 4.207.503 1.005 4.02.188 3.226.983-1.66 1.66-2.524 1.31-2.524 4.207 0 .336 2.47.527 2.385.702-.45.897-3.319 1.616-2.244 3.226 1.074 1.613 3.618.535 4.627 1.542 1.795 1.795-7.8 3.418-.84 4.911.926.197 4.545.055 5.19.7.692.694-2.694 2.928-1.824 3.507 4.901 3.268 8.231.338 10.1 6.872z" style="fill:#2c3b14;fill-opacity:1;stroke:none;stroke-width:.767397;stroke-linecap:round;stroke-linejoin:round;stroke-dasharray:none;stroke-opacity:1"/><path d="M70.13 318.89c19.291 10.04 8.17-.602 15.05 18.318s-6.106 18.576-4.214 29.584-25.542.688-27.606 8.6-17.544 2.408-16.684-9.288 15.136-15.48 10.836-24.768-3.182-10.406 5.246-13.158 7.601-14.372 17.372-9.288" style="opacity:.4;fill:#333;fill-opacity:1;stroke:none;stroke-width:2.3;stroke-linejoin:round;stroke-dasharray:none;stroke-opacity:1"/><path d="m14.795 335.247 4.665 2.78 6.55-2.681 7.245 5.955-7.544-4.962-6.45 3.474-4.962-2.68zm.157 25.493 3.122 2.055 6.506-3.735 6.211-6.118-5.395 6.996-7.293 4.59-4.42-1.523zm45.413-54.67h-2.58l-4.763 10.255 2.479 6.618-2.083 8.832 5.456 4.963-.795 6.55 2.184-6.947-5.359-4.962 2.58-8.535-2.48-6.418z" style="fill:#1a1a1a;fill-opacity:1;stroke:none;stroke-width:.768439;stroke-linecap:round;stroke-linejoin:round;stroke-dasharray:none;stroke-opacity:1"/><rect width="98.738" height="98.738" x="13.549" y="306.314" rx=".366" ry="1.081" style="fill:none;fill-opacity:1;stroke:#1a1a1a;stroke-width:2.3;stroke-linejoin:round;stroke-dasharray:none;stroke-opacity:1"/><path d="m35.973 404.815.489-5 2.603-6.203L37.687 400l.568 4.419z" style="fill:#1a1a1a;fill-opacity:1;stroke:none;stroke-width:.768439;stroke-linecap:round;stroke-linejoin:round;stroke-dasharray:none;stroke-opacity:1"/><path d="M41.514 382.684H83.23v17.188H41.514z" style="fill:#644630;fill-opacity:1;stroke:none;stroke-width:1.5875;stroke-linecap:round;stroke-linejoin:round;stroke-dasharray:none;stroke-opacity:1"/><path d="M47.917 399.57c1.893-.443 3.762.544 5.562.544 1.395 0 9.145.828 10.312-.34.216-.216-.015-1.523-.136-1.763-.388-.778-1.13.837-1.29.678-.402-.403-.511-1.647-1.016-1.9-.554-.277-1.885 1.974-3.256 1.425-1.09-.436-.42-3.06-1.764-3.731-2.205-1.102-3.365 2.428-4.342 2.917-.715.357-1.943-1.4-2.307-1.764-.793-.793-2.656 2.372-1.763 3.935m20.555-16.824c2.405.14 12.846-1.333 14.314.136.59.589.543 3.67.543 4.545 0 1.263.336 3.224-.95 3.867-.473.237-1.477.03-1.696-.407-.273-.547.814-1.13.475-1.357-.485-.323-2.231.083-2.442-.34-.22-.44 1.427-2.915.61-3.12-1.61-.402-2.942.864-4.545.543-1.066-.213-.296-1.757-1.29-1.9-3.986-.57-5.02 2.866-5.02-1.967m-27.05 5.493c-.353-7.496 1.798-5.57 8.669-5.57.128 0 3.1.336 3.1.318 0-.808-1.092 1.264-1.834 1.582-.361.154-4.824-1.294-3.86.632.307.616 2.259.279 2.594.95.896 1.792-3.18.443-3.67.443-.684 0-.802.865-1.202 1.265-.537.536-1.747-.354-2.025-.633-.481-.48-1.118.826-1.772 1.013" style="fill:#593f2b;fill-opacity:1;stroke:none;stroke-width:.41989;stroke-linecap:round;stroke-linejoin:round;stroke-opacity:1"/><path d="M41.514 382.684H83.23v17.188H41.514z" style="fill:none;fill-opacity:1;stroke:#1e150e;stroke-width:1.5875;stroke-linecap:round;stroke-linejoin:round;stroke-dasharray:none;stroke-opacity:1"/><path d="M45.128 386.584h-1.406l-.703-1.217.703-1.218h1.406l.702 1.218zM45.128 398.405h-1.406l-.703-1.217.703-1.218h1.406l.702 1.218zM81.024 386.584h-1.406l-.703-1.217.703-1.218h1.406l.702 1.218zM81.024 398.405h-1.406l-.703-1.217.703-1.218h1.406l.702 1.218z" style="fill:#3f2c1e;fill-opacity:1;stroke:none;stroke-width:.419888;stroke-linecap:round;stroke-linejoin:round;stroke-dasharray:none;stroke-opacity:1"/><path d="m56.23 322.065 4.164 2.486 4.912.648-4.912.741-4.535-1.837zm55.575 40.142v1.946l-6.02-1.946-5.932 2.224-3.799-5.282 4.076 3.521 5.19-2.223z" style="fill:#1a1a1a;fill-opacity:1;stroke:none;stroke-width:.768439;stroke-linecap:round;stroke-linejoin:round;stroke-dasharray:none;stroke-opacity:1"/><circle cx="141.322" cy="319.512" r="19.072" style="fill:#606060;fill-opacity:1;stroke:none;stroke-width:2.3;stroke-linecap:round;stroke-linejoin:round;stroke-dasharray:none;stroke-opacity:1" transform="scale(-1 1)rotate(30)"/><circle cx="141.342" cy="319.427" r="19.072" style="fill:none;fill-opacity:1;stroke:#232323;stroke-width:2.3;stroke-linecap:round;stroke-linejoin:round;stroke-dasharray:none;stroke-opacity:1" transform="scale(-1 1)rotate(30)"/><circle cx="155.399" cy="335.404" r="6.154" style="fill:#606060;fill-opacity:1;stroke:none;stroke-width:2.3;stroke-linecap:round;stroke-linejoin:round;stroke-dasharray:none;stroke-opacity:1" transform="scale(-1 1)rotate(30)"/><circle cx="155.419" cy="335.319" r="6.154" style="fill:none;fill-opacity:1;stroke:#232323;stroke-width:2.3;stroke-linecap:round;stroke-linejoin:round;stroke-dasharray:none;stroke-opacity:1" transform="scale(-1 1)rotate(30)"/><circle cx="127.245" cy="335.404" r="6.154" style="fill:#606060;fill-opacity:1;stroke:none;stroke-width:2.3;stroke-linecap:round;stroke-linejoin:round;stroke-dasharray:none;stroke-opacity:1" transform="scale(-1 1)rotate(30)"/><circle cx="127.265" cy="335.319" r="6.154" style="fill:none;fill-opacity:1;stroke:#232323;stroke-width:2.3;stroke-linecap:round;stroke-linejoin:round;stroke-dasharray:none;stroke-opacity:1" transform="scale(-1 1)rotate(30)"/><rect width="6.368" height="47.91" x="-174.624" y="297.143" rx="3.184" ry="3.184" style="fill:#4d4d4d;fill-opacity:1;stroke:#232323;stroke-width:2.3;stroke-linejoin:round;stroke-dasharray:none;stroke-opacity:1" transform="scale(-1 1)rotate(-15.002)"/><g transform="rotate(30 -49.628 23.361)"><circle cx="227.602" cy="257.314" r="6.154" style="fill:#606060;fill-opacity:1;stroke:none;stroke-width:2.3;stroke-linecap:round;stroke-linejoin:round;stroke-dasharray:none;stroke-opacity:1"/><circle cx="227.518" cy="257.289" r="6.154" style="fill:none;fill-opacity:1;stroke:#232323;stroke-width:2.3;stroke-linecap:round;stroke-linejoin:round;stroke-dasharray:none;stroke-opacity:1"/></g><circle cx="241.679" cy="241.421" r="19.072" style="fill:#606060;fill-opacity:1;stroke:none;stroke-width:2.3;stroke-linecap:round;stroke-linejoin:round;stroke-dasharray:none;stroke-opacity:1" transform="rotate(30)"/><circle cx="241.595" cy="241.396" r="19.072" style="fill:none;fill-opacity:1;stroke:#232323;stroke-width:2.3;stroke-linecap:round;stroke-linejoin:round;stroke-dasharray:none;stroke-opacity:1" transform="rotate(30)"/><path d="m111.91 403.677-6.143-1.243-3.021-4.873-6.188-1.874-2.35-5.494 3.03 4.515 6.136 1.6 3.222 4.408 6.59.946z" style="fill:#1a1a1a;fill-opacity:1;stroke:none;stroke-width:.768439;stroke-linecap:round;stroke-linejoin:round;stroke-dasharray:none;stroke-opacity:1"/><path d="M76.08 38.239c3.85 3.044 4.173 2.116 5.452 6.203l-1.517 1.365c-3.268-2.745-2.486-3.015-3.935-7.568z" style="fill:#30532c;fill-opacity:1;stroke:#132112;stroke-width:1.32292;stroke-dasharray:none;stroke-opacity:1" transform="rotate(-58.386 403.5 196.332)"/><path d="M79.655 47.793V33.959h2.04v13.834c-.582.44-1.232.577-2.04 0z" style="opacity:1;fill:#4b8547;fill-opacity:1;stroke:#132112;stroke-width:1.32292;stroke-dasharray:none;stroke-opacity:1" transform="rotate(-58.386 403.5 196.332)"/><path d="M85.736 34.182c-3.788 3.12-4.13 2.198-5.328 6.31l1.544 1.335c3.213-2.81 2.426-3.064 3.784-7.645z" style="fill:#30532c;fill-opacity:1;stroke:#132112;stroke-width:1.32292;stroke-dasharray:none;stroke-opacity:1" transform="rotate(-58.386 403.5 196.332)"/><path d="M76.12 26.125c-.2-.79 1.044-1.195 2.02.017.623-.483 1.65-1.453 2.435.302.788-1.2 1.801-.514 2.185.238 1.158-1.533 3.297-1.583 2.936-.478l-1.807 6.51c-.768 2.953-5.865 2.141-6.238-.331z" style="opacity:1;fill:#cc6;fill-opacity:1;stroke:#26260d;stroke-width:1.32292;stroke-dasharray:none;stroke-opacity:1" transform="rotate(-58.386 403.5 196.332)"/><path d="M76.08 38.239c3.85 3.044 4.173 2.116 5.452 6.203l-1.517 1.365c-3.268-2.745-2.486-3.015-3.935-7.568z" style="fill:#30532c;fill-opacity:1;stroke:#132112;stroke-width:1.32292;stroke-dasharray:none;stroke-opacity:1" transform="rotate(19.165 -993.604 41.059)"/><path d="M79.655 47.793V33.959h2.04v13.834c-.582.44-1.232.577-2.04 0z" style="opacity:1;fill:#4b8547;fill-opacity:1;stroke:#132112;stroke-width:1.32292;stroke-dasharray:none;stroke-opacity:1" transform="rotate(19.165 -993.604 41.059)"/><path d="M85.736 34.182c-3.788 3.12-4.13 2.198-5.328 6.31l1.544 1.335c3.213-2.81 2.426-3.064 3.784-7.645z" style="fill:#30532c;fill-opacity:1;stroke:#132112;stroke-width:1.32292;stroke-dasharray:none;stroke-opacity:1" transform="rotate(19.165 -993.604 41.059)"/><path d="M76.12 26.125c-.2-.79 1.044-1.195 2.02.017.623-.483 1.65-1.453 2.435.302.788-1.2 1.801-.514 2.185.238 1.158-1.533 3.297-1.583 2.936-.478l-1.807 6.51c-.768 2.953-5.865 2.141-6.238-.331z" style="opacity:1;fill:#ac3939;fill-opacity:1;stroke:#240f0f;stroke-width:1.32292;stroke-dasharray:none;stroke-opacity:1" transform="rotate(19.165 -993.604 41.059)"/><path d="M76.08 38.239c3.85 3.044 4.173 2.116 5.452 6.203l-1.517 1.365c-3.268-2.745-2.486-3.015-3.935-7.568z" style="fill:#30532c;fill-opacity:1;stroke:#132112;stroke-width:1.32292;stroke-dasharray:none;stroke-opacity:1" transform="rotate(49.76 -328.393 156.26)"/><path d="M79.655 47.793V33.959h2.04v13.834c-.582.44-1.232.577-2.04 0z" style="opacity:1;fill:#4b8547;fill-opacity:1;stroke:#132112;stroke-width:1.32292;stroke-dasharray:none;stroke-opacity:1" transform="rotate(49.76 -328.393 156.26)"/><path d="M85.736 34.182c-3.788 3.12-4.13 2.198-5.328 6.31l1.544 1.335c3.213-2.81 2.426-3.064 3.784-7.645z" style="fill:#30532c;fill-opacity:1;stroke:#132112;stroke-width:1.32292;stroke-dasharray:none;stroke-opacity:1" transform="rotate(49.76 -328.393 156.26)"/><path d="M76.12 26.125c-.2-.79 1.044-1.195 2.02.017.623-.483 1.65-1.453 2.435.302.788-1.2 1.801-.514 2.185.238 1.158-1.533 3.297-1.583 2.936-.478l-1.807 6.51c-.768 2.953-5.865 2.141-6.238-.331z" style="opacity:1;fill:#395fac;fill-opacity:1;stroke:#0f1624;stroke-width:1.32292;stroke-dasharray:none;stroke-opacity:1" transform="rotate(49.76 -328.393 156.26)"/><g aria-label="R.I.P 2017-2023" style="font-weight:700;font-size:6.113px;font-family:&quot;Courier New&quot;;-inkscape-font-specification:&quot;Courier New Bold&quot;;fill:#221612;stroke-width:1.53288;stroke-linejoin:round"><path d="M59.475 389.347q-.1.064-.192.04-.092-.025-.156-.126l-.948-1.577h-.855v1.394q0 .256-.257.256t-.257-.256v-3.632q0-.256.257-.256h1.43q.56 0 .856.3.3.296.3.855v.183q0 .486-.226.777-.227.287-.655.357l.801 1.336q.116.214-.098.348m-2.151-2.177h1.173q.349 0 .496-.146.146-.147.146-.496v-.183q0-.345-.146-.492-.147-.15-.496-.15h-1.173zm3.43 2.164q-.245 0-.245-.244v-.153q0-.238.244-.238h.147q.232 0 .232.238v.153q0 .244-.232.244zm1.784 0q-.131 0-.196-.06-.06-.065-.06-.196v-3.625q0-.135.06-.196.065-.061.196-.061.135 0 .196.06.06.062.06.197v3.625q0 .131-.06.195-.061.061-.196.061m1.65 0q-.244 0-.244-.244v-.153q0-.238.245-.238h.146q.233 0 .233.238v.153q0 .244-.233.244zm1.786 0q-.257 0-.257-.256v-3.632q0-.256.257-.256h1.43q.56 0 .856.3.3.296.3.855v.183q0 .56-.3.86-.297.296-.856.296H66.23v1.394q0 .256-.256.256m.256-2.164h1.174q.348 0 .495-.146.147-.147.147-.496v-.183q0-.345-.147-.492-.147-.15-.495-.15H66.23zM49.973 397.366h-2.286q-.263 0-.263-.257 0-.41.128-.697.131-.29.333-.489.205-.202.434-.34.23-.14.425-.253.34-.192.566-.333.229-.14.342-.287t.113-.358q0-.364-.131-.489-.129-.128-.486-.128h-.655q-.287 0-.424.076-.138.076-.175.284-.021.123-.082.187t-.187.064q-.128 0-.195-.067-.067-.07-.055-.202.064-.43.339-.642.275-.214.78-.214h.654q.574 0 .852.278t.278.853q0 .367-.18.614-.18.245-.474.434-.293.187-.63.376-.244.141-.464.282-.217.14-.373.327-.153.186-.202.467h2.018q.257 0 .257.257t-.257.257m2.543-.006q-.7 0-1.036-.333-.334-.337-.334-1.037v-1.412q0-.706.334-1.039.336-.333 1.036-.324h.367q.703 0 1.036.333.333.33.333 1.036v1.406q0 .7-.333 1.037-.333.333-1.036.333zm0-.514h.367q.327 0 .513-.08.187-.079.263-.265.08-.187.08-.51v-1.407q0-.327-.08-.513-.076-.186-.263-.263-.186-.08-.513-.08h-.367q-.324-.005-.51.07-.187.074-.267.264-.079.186-.079.516v1.412q0 .324.076.51.08.187.266.267.187.08.514.08m.11-1.259q-.245 0-.245-.244v-.153q0-.239.245-.239h.147q.232 0 .232.239v.153q0 .244-.232.244zm3.613 1.779q-.257 0-.257-.257v-3.154l.14-.098-.672.63q-.076.073-.162.088-.086.012-.168-.07-.165-.165.018-.348l.82-.807q.128-.129.317-.129.22 0 .22.257v3.631q0 .257-.256.257m1.944 0q-.26 0-.251-.27.01-.47.061-.8.052-.333.159-.571.107-.242.278-.425.174-.187.425-.361.183-.144.306-.315.125-.17.192-.388.07-.22.089-.501H57.51q-.257 0-.257-.257t.257-.257h2.195q.256 0 .256.257 0 .437-.085.783-.083.342-.263.61-.177.27-.458.484-.202.14-.337.287-.134.144-.214.336-.08.19-.116.462-.036.269-.043.657-.009.269-.262.269m2.47-1.437q-.086 0-.15-.064-.065-.064-.065-.15 0-.088.064-.15.065-.064.15-.064h1.687q.089 0 .15.065.064.06.064.15 0 .085-.064.15-.061.063-.15.063zm5.049 1.437h-2.287q-.263 0-.263-.257 0-.41.129-.697.131-.29.333-.489.205-.201.434-.339.23-.14.425-.254.34-.192.565-.333.23-.14.343-.287t.113-.358q0-.364-.132-.489-.128-.128-.486-.128h-.654q-.287 0-.425.076-.137.077-.174.284-.021.123-.082.187-.062.064-.187.064-.128 0-.195-.067-.068-.07-.055-.202.064-.43.339-.642.275-.214.78-.214h.653q.575 0 .853.278.278.279.278.853 0 .367-.18.615-.18.244-.474.434-.293.186-.63.376-.244.14-.464.28-.217.141-.373.328-.153.186-.202.467h2.018q.256 0 .256.257t-.256.257m2.543-.006q-.7 0-1.037-.333-.333-.336-.333-1.036v-1.412q0-.707.333-1.04.337-.333 1.037-.324h.366q.703 0 1.036.333.334.33.334 1.037v1.406q0 .7-.334 1.036-.333.333-1.036.333zm0-.514h.366q.327 0 .514-.08.186-.079.263-.265.08-.186.08-.51v-1.406q0-.327-.08-.514-.077-.186-.263-.263-.187-.08-.514-.08h-.366q-.324-.005-.51.071-.187.073-.267.263-.08.186-.08.516v1.413q0 .324.077.51.08.186.266.266.187.08.514.08m.11-1.259q-.245 0-.245-.244v-.153q0-.239.245-.239h.146q.233 0 .233.239v.153q0 .244-.233.244zm5.043 1.779h-2.286q-.263 0-.263-.257 0-.41.128-.697.131-.29.333-.489.205-.201.434-.339.23-.14.425-.254.34-.192.566-.333.229-.14.342-.287t.113-.358q0-.363-.131-.489-.129-.128-.486-.128h-.655q-.287 0-.424.076-.138.077-.175.285-.021.122-.082.186t-.187.064q-.128 0-.195-.067-.067-.07-.055-.202.064-.43.339-.642.275-.214.78-.214h.654q.574 0 .852.279.278.278.278.852 0 .367-.18.615-.18.244-.474.434-.293.186-.63.376-.244.14-.464.28-.217.141-.373.328-.153.186-.201.468h2.017q.257 0 .257.256 0 .257-.257.257m2.084 0q-.535 0-.828-.223-.29-.226-.351-.694-.013-.128.055-.199.067-.07.195-.07.236 0 .263.257.043.238.193.327.15.088.473.088h.697q.395 0 .535-.14.144-.144.144-.532 0-.385-.144-.529-.14-.143-.535-.143h-.47q-.257 0-.257-.257t.257-.257h.703q.192 0 .268-.171.08-.174.08-.47 0-.364-.131-.49-.129-.128-.486-.128h-.593q-.288 0-.425.076-.138.077-.174.285-.037.25-.27.25-.128 0-.195-.067-.067-.07-.049-.202.061-.43.336-.642.278-.214.777-.214h.593q.574 0 .852.279.278.278.278.852 0 .566-.317.801.21.138.311.391.104.254.104.636 0 .605-.29.896-.29.29-.902.29z" style="font-family:Jura;-inkscape-font-specification:&quot;Jura Bold&quot;;text-align:center;text-anchor:middle"/></g><g transform="rotate(30 3.48 -17.027)"><circle cx="255.756" cy="257.314" r="6.154" style="fill:#606060;fill-opacity:1;stroke:none;stroke-width:2.3;stroke-linecap:round;stroke-linejoin:round;stroke-dasharray:none;stroke-opacity:1"/><circle cx="255.672" cy="257.289" r="6.154" style="fill:none;fill-opacity:1;stroke:#232323;stroke-width:2.3;stroke-linecap:round;stroke-linejoin:round;stroke-dasharray:none;stroke-opacity:1"/></g></g></svg>