<svg xmlns="http://www.w3.org/2000/svg" width="413.295" height="198.319" viewBox="0 0 109.351 52.472"><path d="m153.964 41.59-5.182 4.511.67-2.737-2.573 3.269 2.32-5.573-2.598 2.742-1.555-.102 1.352-2.426.049-3.669-17.359 27.602s4.917-4.442 4.845-4.285-.417 3.008-.417 3.008l1.452-2.036 2.479-3.883-.655 3.106 3.019-3.725-2.69 6.584 2.66-2.832-3.176 8.048zM61.933 21.954l4.512 5.182-2.737-.67 3.269 2.572-5.573-2.319 2.742 2.598-.102 1.555-2.426-1.352-3.669-.05 27.602 17.36s-4.442-4.918-4.285-4.845c.158.072 3.008.417 3.008.417l-2.036-1.452-3.883-2.48 3.106.656-3.725-3.02 6.584 2.69-2.832-2.66 8.048 3.177z" style="fill:#865520;fill-opacity:1;stroke:#2e1c0b;stroke-width:.9881;stroke-linecap:square;stroke-opacity:1" transform="translate(-51.18 -20.257)"/><path d="m59.367 49.843 5.182-4.512-.67 2.738 2.572-3.27-2.32 5.574 2.599-2.743 1.555.102-1.353 2.426-.048 3.67 17.358-27.602s-4.917 4.442-4.845 4.284c.072-.157.417-3.007.417-3.007l-1.452 2.036-2.479 3.882.655-3.106-3.019 3.725 2.69-6.584-2.66 2.833 3.176-8.048zM104.04 25.032l4.512 5.182-2.737-.67 3.268 2.572-5.573-2.319 2.743 2.598-.102 1.555-2.426-1.353-3.67-.048 27.603 17.358s-4.443-4.917-4.285-4.845 3.007.418 3.007.418l-2.036-1.452-3.882-2.48 3.106.655-3.725-3.018 6.584 2.69-2.832-2.661 8.047 3.177z" style="fill:#865520;fill-opacity:1;stroke:#2e1c0b;stroke-width:.9881;stroke-linecap:square;stroke-opacity:1" transform="translate(-51.18 -20.257)"/><path d="m94.338 33.074 6.191 2.98-2.78.465 4.02 1.073-6.036.07 3.545 1.303.52 1.47-2.763-.285-3.39 1.404 32.213 5.051s-6.023-2.764-5.85-2.76 2.928-.804 2.928-.804l-2.444-.53-4.545-.745 3.112-.624-4.614-1.303 7.11-.129-3.652-1.326 8.648-.258zM114.531 60.493l-6.87.148 2.268-1.673-4.069.864 5.35-2.797-3.752.444-1.13-1.074 2.593-.998 2.387-2.787L80.3 62.71s6.622-.265 6.465-.19c-.156.074-2.245 2.043-2.245 2.043l2.418-.635 4.39-1.395-2.491 1.967 4.704-.929-6.282 3.336 3.857-.473-7.592 4.148z" style="fill:#865520;fill-opacity:1;stroke:#2e1c0b;stroke-width:.9881;stroke-linecap:square;stroke-opacity:1" transform="translate(-51.18 -20.257)"/></svg>