<svg xmlns="http://www.w3.org/2000/svg" xmlns:xlink="http://www.w3.org/1999/xlink" xml:space="preserve" width="68.873" height="75.596" viewBox="0 0 18.223 20.001"><defs><linearGradient id="b"><stop offset="0" style="stop-color:#fff;stop-opacity:1"/><stop offset="1" style="stop-color:#5e5e5e;stop-opacity:1"/></linearGradient><linearGradient id="a"><stop offset="0" style="stop-color:#fff;stop-opacity:1"/><stop offset="1" style="stop-color:#787878;stop-opacity:1"/></linearGradient><linearGradient xlink:href="#a" id="c" x1="1850.31" x2="1860.512" y1="-310.524" y2="-310.524" gradientTransform="translate(163.6 -39.77)" gradientUnits="userSpaceOnUse"/><radialGradient xlink:href="#b" id="d" cx="2019.066" cy="-350.295" r="1.958" fx="2019.066" fy="-350.295" gradientTransform="matrix(3.02957 0 0 8.9148 -4097.84 2772.514)" gradientUnits="userSpaceOnUse"/></defs><path d="M2018.582-359.634h8.263a4 4 0 0 1 4.01 4.01v10.659a4 4 0 0 1-4.01 4.01h-8.263a4 4 0 0 1-4.01-4.01v-10.659a4 4 0 0 1 4.01-4.01" style="fill:url(#c);stroke:#383838;stroke-width:1.323;stroke-linecap:round;stroke-linejoin:round;stroke-miterlimit:5" transform="translate(-2013.294 360.295)"/><path d="M2015.23-351.625h14.879v2.661h-14.878z" style="fill:#424242;fill-opacity:.584314;stroke-width:2.01951;stroke-linecap:round;stroke-linejoin:round;stroke-miterlimit:5" transform="translate(-2013.294 360.295)"/><path d="M2018.571-355.593h1.99s-1.199 2.179-1.199 5.298 1.2 5.299 1.2 5.299h-1.99s-1-2.106-1-5.299 1-5.298 1-5.298" style="fill:url(#d);stroke:#383838;stroke-width:.926;stroke-linecap:round;stroke-linejoin:round;stroke-miterlimit:5" transform="translate(-2013.294 360.295)"/><path d="M2013.757-355.593h1.754v3.508h-1.754zM2013.757-348.504h1.754v3.508h-1.754z" style="fill:#fff;fill-opacity:1;stroke:#383838;stroke-width:.926042;stroke-linecap:round;stroke-linejoin:round;stroke-miterlimit:5;stroke-dasharray:none;stroke-opacity:1" transform="translate(-2013.294 360.295)"/></svg>