<?xml version="1.0" encoding="UTF-8" standalone="no"?>
<svg
   xml:space="preserve"
   width="102.10781"
   height="90.235153"
   viewBox="0 0 27.015493 23.874933"
   version="1.1"
   id="svg5"
   sodipodi:docname="power_helmet_world.svg"
   inkscape:version="1.4 (86a8ad7, 2024-10-11)"
   xmlns:inkscape="http://www.inkscape.org/namespaces/inkscape"
   xmlns:sodipodi="http://sodipodi.sourceforge.net/DTD/sodipodi-0.dtd"
   xmlns:xlink="http://www.w3.org/1999/xlink"
   xmlns="http://www.w3.org/2000/svg"
   xmlns:svg="http://www.w3.org/2000/svg"><sodipodi:namedview
     id="namedview5"
     pagecolor="#ffffff"
     bordercolor="#000000"
     borderopacity="0.25"
     inkscape:showpageshadow="2"
     inkscape:pageopacity="0.0"
     inkscape:pagecheckerboard="0"
     inkscape:deskcolor="#d1d1d1"
     inkscape:zoom="5.5214286"
     inkscape:cx="40.116429"
     inkscape:cy="36.94696"
     inkscape:window-width="1920"
     inkscape:window-height="991"
     inkscape:window-x="-9"
     inkscape:window-y="-9"
     inkscape:window-maximized="1"
     inkscape:current-layer="svg5" /><defs
     id="defs2"><radialGradient
       xlink:href="#a"
       id="b"
       cx="240"
       cy="180.618"
       r="25.611"
       fx="240"
       fy="180.618"
       gradientTransform="matrix(1,0,0,0.93812,0,11.176)"
       gradientUnits="userSpaceOnUse" /><radialGradient
       xlink:href="#a"
       id="c"
       cx="240"
       cy="180.618"
       r="25.611"
       fx="240"
       fy="180.618"
       gradientTransform="matrix(1,0,0,0.93812,0,11.176)"
       gradientUnits="userSpaceOnUse" /><linearGradient
       id="a"><stop
         offset="0"
         style="stop-color:#5d5d5d;stop-opacity:1"
         id="stop1" /><stop
         offset="1"
         style="stop-color:#2f2f2f;stop-opacity:1"
         id="stop2" /></linearGradient><inkscape:path-effect
       effect="mirror_symmetry"
       start_point="90.667952,77.201884"
       end_point="90.925796,42.750252"
       center_point="90.796874,59.976068"
       id="path-effect1"
       is_visible="true"
       lpeversion="1.2"
       lpesatellites=""
       mode="free"
       discard_orig_path="false"
       fuse_paths="true"
       oposite_fuse="false"
       split_items="false"
       split_open="false"
       link_styles="false" /><radialGradient
       inkscape:collect="always"
       xlink:href="#linearGradient4"
       id="radialGradient6"
       cx="46.711704"
       cy="31.810089"
       fx="46.711704"
       fy="31.810089"
       r="24.582104"
       gradientTransform="matrix(0.30472028,0,0,0.19238444,-29.981985,8.7894348)"
       gradientUnits="userSpaceOnUse" /><linearGradient
       id="linearGradient4"
       inkscape:collect="always"><stop
         style="stop-color:#6d6d6d;stop-opacity:1;"
         offset="0"
         id="stop5" /><stop
         style="stop-color:#616161;stop-opacity:0;"
         offset="1"
         id="stop6" /></linearGradient><inkscape:path-effect
       effect="mirror_symmetry"
       start_point="90.667952,77.201884"
       end_point="90.925796,42.750252"
       center_point="90.796874,59.976068"
       id="path-effect1-4"
       is_visible="true"
       lpeversion="1.2"
       lpesatellites=""
       mode="free"
       discard_orig_path="false"
       fuse_paths="true"
       oposite_fuse="false"
       split_items="false"
       split_open="false"
       link_styles="false" /></defs><g
     id="g2"
     transform="matrix(1.0902309,0,0,1.119923,-6.9727518,-5.6990573)"><circle
       style="fill:#242424;fill-opacity:1;stroke:#0d0d0d;stroke-width:1.51424;stroke-linecap:round;stroke-linejoin:round;stroke-miterlimit:2;stroke-dasharray:none;stroke-opacity:1"
       id="path3"
       cx="-15.747979"
       cy="17.054461"
       r="9.9020653"
       transform="rotate(-90)" /><path
       style="fill:#383838;fill-opacity:1;stroke:none;stroke-width:1.21888;stroke-linecap:round;stroke-linejoin:round;stroke-miterlimit:2;stroke-dasharray:none;stroke-opacity:1"
       d="m 25.138601,13.240111 c -1.271831,-2.673603 -2.93985,-4.15863 -4.866816,-4.866816 -0.84221,-1.293393 0.473243,-3.022653 2.363443,-2.363439 2.608232,1.143917 4.530516,2.849892 5.434994,5.434987 z"
       id="path9-0-3"
       sodipodi:nodetypes="ccccc" /><path
       style="fill:#414141;fill-opacity:1;stroke:none;stroke-width:1.32292;stroke-linecap:round;stroke-linejoin:round;stroke-miterlimit:2"
       d="m 20.221367,7.9112198 5.367878,5.2530562 0.947272,-0.71763 C 25.337398,9.3386868 23.071894,7.9647008 20.336188,6.7343038 l -0.143527,0.401873 z"
       id="path1-7-8"
       sodipodi:nodetypes="cccccc" /><path
       style="fill:#4b4b4b;fill-opacity:1;stroke:none;stroke-width:1.32292;stroke-linecap:round;stroke-linejoin:round;stroke-miterlimit:2"
       d="m 19.73011,8.155408 5.367878,5.253056 0.947272,-0.71763 C 24.846141,9.582875 22.730941,8.0585851 19.995235,6.8281881 L 19.701404,7.380365 Z"
       id="path1-7-5-2"
       sodipodi:nodetypes="cccccc" /><path
       style="fill:#2d2d2d;fill-opacity:1;stroke:none;stroke-width:1.32292;stroke-linecap:round;stroke-linejoin:round;stroke-miterlimit:2"
       d="m 21.045163,6.131116 c 2.58501,1.06507 5.677144,2.924536 6.397153,5.811949 l 0.405987,-0.673711 C 26.503764,7.434297 24.303618,6.387098 21.647974,5.557012 l -0.918568,0.717631 z"
       id="path1-7-0-5"
       sodipodi:nodetypes="cccccc" /><path
       style="fill:none;fill-opacity:1;stroke:#000000;stroke-width:1.21888;stroke-linecap:round;stroke-linejoin:round;stroke-miterlimit:2;stroke-dasharray:none;stroke-opacity:1"
       d="m 25.138601,13.240111 c -1.271831,-2.673603 -2.93985,-4.15863 -4.866816,-4.866816 -0.84221,-1.293393 0.473243,-3.022653 2.363443,-2.363439 2.608232,1.143917 4.530516,2.849892 5.434994,5.434987 z"
       id="path9-0-6-8"
       sodipodi:nodetypes="ccccc" /><path
       style="fill:#f9f49f;fill-opacity:1;stroke:#0d0d0d;stroke-width:1.23747;stroke-linecap:round;stroke-linejoin:round;stroke-miterlimit:2;stroke-dasharray:none;stroke-opacity:1"
       d="m 18.648577,9.7314193 c -0.443506,-0.9980022 0.271481,-2.2125447 1.847003,-1.580746 2.256558,1.0469279 4.857315,4.1858927 2.936702,4.9127707 -1.555067,0.08087 -3.150792,-1.064626 -4.783705,-3.3320247 z"
       id="path2-1"
       sodipodi:nodetypes="cccc" /><path
       style="fill:#383838;fill-opacity:1;stroke:none;stroke-width:1.21888;stroke-linecap:round;stroke-linejoin:round;stroke-miterlimit:2;stroke-dasharray:none;stroke-opacity:1"
       d="m 25.718792,18.248611 c -1.271831,2.673603 -2.93985,4.15863 -4.866816,4.866816 -0.84221,1.293393 0.473243,3.022653 2.363443,2.363439 2.608232,-1.143917 4.530516,-2.849892 5.434994,-5.434987 z"
       id="path9-0"
       sodipodi:nodetypes="ccccc" /><path
       style="fill:#414141;fill-opacity:1;stroke:none;stroke-width:1.32292;stroke-linecap:round;stroke-linejoin:round;stroke-miterlimit:2"
       d="m 20.901761,23.377097 5.367878,-5.253056 0.947272,0.71763 c -1.199119,3.107959 -3.464623,4.481945 -6.200329,5.712342 L 20.873055,24.15214 Z"
       id="path1-7"
       sodipodi:nodetypes="cccccc" /><path
       style="fill:#4b4b4b;fill-opacity:1;stroke:none;stroke-width:1.32292;stroke-linecap:round;stroke-linejoin:round;stroke-miterlimit:2"
       d="m 20.310301,23.333314 5.367878,-5.253056 0.947272,0.71763 c -1.199119,3.107959 -3.464623,4.481945 -6.200329,5.712342 l -0.143527,-0.401873 z"
       id="path1-7-5"
       sodipodi:nodetypes="cccccc" /><path
       style="fill:#2d2d2d;fill-opacity:1;stroke:none;stroke-width:1.32292;stroke-linecap:round;stroke-linejoin:round;stroke-miterlimit:2"
       d="m 21.625354,25.357606 c 2.58501,-1.06507 5.677144,-2.924536 6.397153,-5.811949 l 0.405987,0.673711 c -1.344539,3.835057 -3.544685,4.882256 -6.200329,5.712342 l -0.918568,-0.717631 z"
       id="path1-7-0"
       sodipodi:nodetypes="cccccc" /><path
       style="fill:none;fill-opacity:1;stroke:#000000;stroke-width:1.21888;stroke-linecap:round;stroke-linejoin:round;stroke-miterlimit:2;stroke-dasharray:none;stroke-opacity:1"
       d="m 25.718792,18.248611 c -1.271831,2.673603 -2.93985,4.15863 -4.866816,4.866816 -0.84221,1.293393 0.473243,3.022653 2.363443,2.363439 2.608232,-1.143917 4.530516,-2.849892 5.434994,-5.434987 z"
       id="path9-0-6"
       sodipodi:nodetypes="ccccc" /><path
       style="display:inline;fill:#f9f49f;fill-opacity:1;stroke:#0d0d0d;stroke-width:1.23747;stroke-linecap:round;stroke-linejoin:round;stroke-miterlimit:2;stroke-dasharray:none;stroke-opacity:1"
       d="m 18.622645,21.757302 c -0.443494,0.998002 0.271492,2.212545 1.847002,1.580747 2.256559,-1.046926 4.857328,-4.185893 2.936715,-4.912771 -1.55508,-0.08087 -3.150804,1.064625 -4.783717,3.332024 z"
       id="path2-11"
       sodipodi:nodetypes="cccc" /><path
       style="fill:#4e4e4e;fill-opacity:1;stroke:none;stroke-width:4;stroke-linecap:round;stroke-linejoin:round;stroke-miterlimit:2;stroke-dasharray:none;stroke-opacity:1"
       d="m 90.754027,65.701091 c -4.095852,-0.176329 -18.249506,-1.452555 -15.551069,-9.586426 2.005433,-5.26027 8.990237,-8.997258 15.689501,-8.910073 6.699817,0.0131 13.627901,3.854212 15.554381,9.143909 2.57639,8.173349 -11.594781,9.237586 -15.692813,9.35259 z"
       id="path1-4"
       sodipodi:nodetypes="ccc"
       inkscape:path-effect="#path-effect1"
       inkscape:original-d="M 91.091465,65.714036 C 87.513257,65.594484 72.424424,64.48997 75.202958,56.114665 c 2.00876,-5.268996 9.013425,-9.009652 15.722838,-8.909608"
       transform="matrix(0,-0.30472028,0.30472028,0,10.545699,43.420042)" /><ellipse
       style="fill:#454545;fill-opacity:1;stroke:#0d0d0d;stroke-width:1.5236;stroke-linecap:round;stroke-linejoin:round;stroke-miterlimit:2;stroke-dasharray:none;stroke-opacity:1"
       id="path6-1"
       cx="-15.747979"
       cy="14.909226"
       rx="8.0498123"
       ry="7.1511369"
       transform="rotate(-90)" /><ellipse
       style="fill:url(#radialGradient6);fill-opacity:1;stroke:none;stroke-width:1.32584;stroke-linecap:round;stroke-linejoin:round;stroke-miterlimit:2;stroke-dasharray:none;stroke-opacity:1"
       id="path4"
       cx="-15.747981"
       cy="14.909201"
       rx="7.4906654"
       ry="4.7292142"
       transform="rotate(-90)" /><path
       style="fill:#444444;fill-opacity:1;stroke:none;stroke-width:1.21888;stroke-linecap:round;stroke-linejoin:round;stroke-miterlimit:2;stroke-dasharray:none;stroke-opacity:1"
       d="m 27.644977,20.504176 c 2.625183,-3.106845 2.561038,-6.282648 0.07131,-9.520645 1.469622,0.150482 2.557331,1.361875 2.849918,4.781917 -0.417774,2.669101 -1.046582,4.978991 -2.921182,4.738728"
       id="path7-5"
       sodipodi:nodetypes="cccc" /><path
       style="fill:none;fill-opacity:1;stroke:#353535;stroke-width:0.609441;stroke-linecap:round;stroke-linejoin:round;stroke-miterlimit:2;stroke-dasharray:none;stroke-opacity:1"
       d="m 26.425328,19.671515 c 1.771183,-2.768939 1.755994,-5.241048 0,-7.423897"
       id="path10-8"
       sodipodi:nodetypes="cc" /><path
       style="fill:#555555;fill-opacity:1;stroke:none;stroke-width:1.32292;stroke-linecap:round;stroke-linejoin:round;stroke-miterlimit:2"
       d="m 25.718792,18.24861 c -0.445957,-1.521683 -0.700849,-3.118695 -0.02934,-4.883929 l -1.365185,2.354053 1.394529,2.529876"
       id="path1"
       sodipodi:nodetypes="cccc" /><path
       style="fill:none;fill-opacity:1;stroke:#353535;stroke-width:0.609441;stroke-linecap:round;stroke-linejoin:round;stroke-miterlimit:2;stroke-dasharray:none;stroke-opacity:1"
       d="m 27.682268,20.065746 c 1.771183,-2.76894 1.755994,-6.45993 0,-8.642778"
       id="path10-3"
       sodipodi:nodetypes="cc" /><path
       style="fill:none;fill-opacity:1;stroke:#000000;stroke-width:4;stroke-linecap:round;stroke-linejoin:round;stroke-miterlimit:2;stroke-dasharray:none;stroke-opacity:1"
       d="m 90.754027,65.701091 c -4.095852,-0.176329 -18.249506,-1.452555 -15.551069,-9.586426 2.006918,-5.264163 9.00058,-10.986849 15.704376,-10.897574 6.704381,0.01107 13.611606,5.837798 15.539506,11.13141 2.57639,8.173349 -11.594781,9.237586 -15.692813,9.35259 z"
       id="path1-8"
       sodipodi:nodetypes="ccc"
       inkscape:path-effect="#path-effect1-4"
       inkscape:original-d="M 91.091465,65.714036 C 87.513257,65.594484 72.424424,64.48997 75.202958,56.114665 77.211718,50.845669 84.216383,45.117308 90.925796,45.217352"
       transform="matrix(0,-0.30472028,0.30472028,0,10.545699,43.420042)" /><path
       style="fill:#444444;fill-opacity:1;stroke:#000000;stroke-width:0.609441;stroke-linecap:round;stroke-linejoin:round;stroke-miterlimit:2;stroke-dasharray:none;stroke-opacity:1"
       d="m 24.929895,15.723266 5.636263,0.04219"
       id="path8-0" /><rect
       style="fill:#383838;fill-opacity:1;stroke:none;stroke-width:0.609441;stroke-linecap:round;stroke-linejoin:round;stroke-miterlimit:2;stroke-dasharray:none;stroke-opacity:1"
       id="rect10"
       width="2.2916696"
       height="4.1418905"
       x="-23.481339"
       y="16.607292"
       transform="rotate(-90)" /><rect
       style="fill:#3e3e3e;fill-opacity:1;stroke:none;stroke-width:0.609441;stroke-linecap:round;stroke-linejoin:round;stroke-miterlimit:2;stroke-dasharray:none;stroke-opacity:1"
       id="rect10-1"
       width="2.2916696"
       height="4.1418905"
       x="-21.122068"
       y="16.607292"
       transform="rotate(-90)" /><rect
       style="fill:#333333;fill-opacity:1;stroke:none;stroke-width:1.78907;stroke-linecap:round;stroke-linejoin:round;stroke-miterlimit:2"
       id="rect1"
       width="3.875206"
       height="1.1024607"
       x="16.740635"
       y="20.638439" /><rect
       style="fill:#2a2a2a;fill-opacity:1;stroke:none;stroke-width:1.55462;stroke-linecap:round;stroke-linejoin:round;stroke-miterlimit:2"
       id="rect1-5"
       width="3.875206"
       height="0.83245164"
       x="16.740635"
       y="20.773443" /><rect
       style="fill:#333333;fill-opacity:1;stroke:none;stroke-width:1.15468;stroke-linecap:round;stroke-linejoin:round;stroke-miterlimit:2"
       id="rect1-4"
       width="3.875206"
       height="0.45923984"
       x="16.740635"
       y="19.088745" /><rect
       style="fill:#2a2a2a;fill-opacity:1;stroke:none;stroke-width:1.15468;stroke-linecap:round;stroke-linejoin:round;stroke-miterlimit:2"
       id="rect1-4-2"
       width="3.875206"
       height="0.45923984"
       x="16.740635"
       y="18.897999" /><rect
       style="fill:#333333;fill-opacity:1;stroke:none;stroke-width:1.15468;stroke-linecap:round;stroke-linejoin:round;stroke-miterlimit:2"
       id="rect1-4-1"
       width="3.875206"
       height="0.45923984"
       x="16.740635"
       y="-23.118597"
       transform="scale(1,-1)" /><rect
       style="fill:#2a2a2a;fill-opacity:1;stroke:none;stroke-width:1.15468;stroke-linecap:round;stroke-linejoin:round;stroke-miterlimit:2"
       id="rect1-4-2-9"
       width="3.875206"
       height="0.45923984"
       x="16.740635"
       y="-23.309343"
       transform="scale(1,-1)" /><rect
       style="display:inline;fill:none;fill-opacity:1;stroke:#141414;stroke-width:0.609441;stroke-linecap:round;stroke-linejoin:round;stroke-miterlimit:2;stroke-dasharray:none;stroke-opacity:1"
       id="rect10-0"
       width="2.2916696"
       height="4.1418905"
       x="-21.122068"
       y="16.607294"
       transform="rotate(-90)" /><rect
       style="display:inline;fill:none;fill-opacity:1;stroke:#141414;stroke-width:0.609441;stroke-linecap:round;stroke-linejoin:round;stroke-miterlimit:2;stroke-dasharray:none;stroke-opacity:1"
       id="rect10-0-6"
       width="2.2916696"
       height="4.1418905"
       x="-23.481339"
       y="16.607292"
       transform="rotate(-90)" /></g></svg>
