<svg xmlns="http://www.w3.org/2000/svg" xmlns:xlink="http://www.w3.org/1999/xlink" xml:space="preserve" width="79.547" height="96.318" viewBox="0 0 21.047 25.484"><defs><linearGradient id="a"><stop offset="0" style="stop-color:#fff;stop-opacity:1"/><stop offset=".998" style="stop-color:#787878;stop-opacity:1"/></linearGradient><linearGradient id="b"><stop offset="0" style="stop-color:#fff;stop-opacity:1"/><stop offset="1" style="stop-color:#787878;stop-opacity:1"/></linearGradient><linearGradient id="c"><stop offset="0" style="stop-color:#fff;stop-opacity:1"/><stop offset="1" style="stop-color:#787878;stop-opacity:1"/></linearGradient><linearGradient id="d"><stop offset="0" style="stop-color:#fff;stop-opacity:1"/><stop offset="1" style="stop-color:#787878;stop-opacity:1"/></linearGradient><linearGradient xlink:href="#b" id="e" x1="1902.31" x2="1912.859" y1="-318.733" y2="-302.196" gradientTransform="translate(113.829 -15.495)" gradientUnits="userSpaceOnUse"/><linearGradient xlink:href="#c" id="f" x1="1900.127" x2="1913.935" y1="-310.259" y2="-310.259" gradientTransform="translate(113.829 -15.495)" gradientUnits="userSpaceOnUse"/><linearGradient xlink:href="#d" id="g" x1="1899.465" x2="1915.306" y1="-310.259" y2="-310.259" gradientTransform="translate(113.829 -15.495)" gradientUnits="userSpaceOnUse"/><radialGradient xlink:href="#a" id="h" cx="1904.963" cy="-310.305" r="2.073" fx="1904.963" fy="-310.305" gradientTransform="matrix(2.9758 0 0 8.13966 -3650.465 2199.844)" gradientUnits="userSpaceOnUse"/></defs><g transform="translate(-2013.294 338.503)"><rect width="3.411" height="11.804" x="2013.956" y="-331.656" rx="1.566" ry="1.566" style="fill:url(#e);fill-opacity:1;stroke:#383838;stroke-width:1.32292;stroke-linecap:round;stroke-linejoin:round;stroke-miterlimit:5;stroke-dasharray:none;stroke-opacity:1"/><rect width="7.361" height="24.161" x="2017.657" y="-337.842" rx="1.636" ry="1.636" style="fill:url(#f);fill-opacity:1;stroke:#383838;stroke-width:1.32292;stroke-linecap:round;stroke-linejoin:round;stroke-miterlimit:5;stroke-dasharray:none;stroke-opacity:1"/><path d="M2019.632-335.587h7.214a4 4 0 0 1 4.01 4.01v11.645a4 4 0 0 1-4.01 4.01h-7.214a4 4 0 0 1-4.01-4.01v-11.645a4 4 0 0 1 4.01-4.01" style="fill:url(#g);stroke:#383838;stroke-width:1.32292;stroke-linecap:round;stroke-linejoin:round;stroke-miterlimit:5;stroke-opacity:1"/><g style="fill:#000;fill-opacity:.363158" transform="matrix(.89689 0 0 1 311.103 47.676)"><rect width="15.512" height="2.664" x="1901.215" y="-379.098" rx="0" ry="0" style="fill:#000;fill-opacity:.363158;stroke:none;stroke-width:2.42431;stroke-linecap:round;stroke-linejoin:round;stroke-miterlimit:5;stroke-dasharray:none;stroke-opacity:1"/><rect width="15.512" height="2.664" x="1901.215" y="-370.427" rx="0" ry="0" style="fill:#000;fill-opacity:.363158;stroke:none;stroke-width:2.42431;stroke-linecap:round;stroke-linejoin:round;stroke-miterlimit:5;stroke-dasharray:none;stroke-opacity:1"/></g><path d="M2018.092-330.96h2.02s-1.2 1.8-1.2 5.207 1.2 5.206 1.2 5.206h-2.02s-1.2-1.817-1.2-5.206 1.2-5.206 1.2-5.206" style="fill:url(#h);stroke:#383838;stroke-width:.926042;stroke-linecap:round;stroke-linejoin:round;stroke-miterlimit:5;stroke-opacity:1"/><path fill="none" d="M2032.688-327.9h1.654v3.721h-1.654z" style="fill:#fff;fill-opacity:0;stroke-width:1.32292;stroke-linecap:square;stroke-miterlimit:5"/></g></svg>