<svg xmlns="http://www.w3.org/2000/svg" xmlns:xlink="http://www.w3.org/1999/xlink" xml:space="preserve" width="64" height="70" viewBox="0 0 16.933 18.521"><defs><radialGradient xlink:href="#a" id="b" cx="240" cy="180.618" r="25.611" fx="240" fy="180.618" gradientTransform="matrix(1 0 0 .93812 0 11.176)" gradientUnits="userSpaceOnUse"/><radialGradient xlink:href="#a" id="c" cx="240" cy="180.618" r="25.611" fx="240" fy="180.618" gradientTransform="matrix(1 0 0 .93812 0 11.176)" gradientUnits="userSpaceOnUse"/><linearGradient id="a"><stop offset="0" style="stop-color:#5d5d5d;stop-opacity:1"/><stop offset="1" style="stop-color:#2f2f2f;stop-opacity:1"/></linearGradient></defs><g style="mix-blend-mode:normal;fill:url(#b);stroke:#141414;stroke-width:4.13078;stroke-miterlimit:4;stroke-dasharray:none;stroke-opacity:1" transform="matrix(.3306 0 0 .3306 -70.876 -50.45)"><path fill="url(#color-1)" stroke="#2c4018" stroke-miterlimit="10" stroke-width="5.5" d="M216.39 180.618c0-12.164 9.861-22.025 22.025-22.025s25.195 9.861 25.195 22.025c0 12.165-13.03 22.025-25.195 22.025-12.164 0-22.025-9.86-22.025-22.025z" data-paper-data="{&quot;isPaintingLayer&quot;:true}" style="fill:url(#c);fill-opacity:1;stroke:#141414;stroke-width:4.00171;stroke-miterlimit:4;stroke-dasharray:none;stroke-opacity:1"/></g><path d="M5.874 5.262c-.73 0-1.318.588-1.318 1.319 0 .73.588 1.318 1.318 1.318h1.12v2.636h-1.12c-.73 0-1.318.588-1.318 1.319 0 .73.588 1.318 1.318 1.318h5.185c.73 0 1.318-.588 1.318-1.318s-.588-1.319-1.318-1.319H9.984V7.9h1.075c.73 0 1.318-.588 1.318-1.318s-.588-1.319-1.318-1.319z" style="fill:#1a1a1a;fill-opacity:1;stroke:#0e0e0e;stroke-width:.52916667;stroke-linecap:round;stroke-linejoin:round;stroke-opacity:1;stroke-dasharray:none"/><path d="M4.456 1.138S5.977.772 8.466.772c2.49 0 4.011.366 4.011.366v1.966s-1.646-.318-4.01-.318c-2.365 0-4.011.285-4.011.285zM12.477 17.459s-1.52.366-4.01.366-4.011-.366-4.011-.366v-1.982s1.646.334 4.01.334c2.365 0 4.011-.4 4.011-.4z" style="fill:#3e3e3e;fill-opacity:1;stroke:#141414;stroke-width:1.32292;stroke-linecap:round;stroke-linejoin:round;stroke-miterlimit:29"/><rect width="3.124" height="3.087" x="4.648" y="16.561" rx="0" ry=".137" style="fill:#272727;fill-opacity:1;stroke:none;stroke-width:.134409;stroke-linecap:round;stroke-linejoin:round;stroke-miterlimit:29;stroke-dasharray:none;stroke-opacity:1" transform="matrix(.60598 -.79548 .62027 .78439 0 0)"/><path d="M15.012 11.695c1.046-2.777-.021-4.87-.021-4.87s4.353 2.435.02 4.87" style="fill:#141414;fill-opacity:1;stroke:none;stroke-width:.547397;stroke-linecap:round;stroke-linejoin:round;stroke-miterlimit:29;stroke-dasharray:none;stroke-opacity:1"/></svg>