<svg xmlns="http://www.w3.org/2000/svg" width="85.243" height="16" fill="none"><path fill="#d9d9d9" d="m38.431 3.17.191-.434.357.006c.057-.26.461-.318.528.02 1.096.314 2.282.465 4.222.576l8.59-.016.01.975-13.898.004zm14.19.153v3.388c.303.082.664.178.94-.31V3.32a.89.89 0 0 0-.94.003m-14.19 1.274h13.901v2.15l-13.9.469Zm15.426 0h1.088v1.24c-.003.457-.218.603-.627.618l-.463.025z" style="stroke-width:.999962"/><path fill="#d9d9d9" d="m53.855 3.33 17.173-.006.534-.278c-.006-.165.057-.278.204-.327v-.188h.626c.096.164.226.326.449.48l.303.313h.567V4.74H55.239v-.435h-1.383zm-22.97 4.477 5.854-.233c-.051.164-.01.273-.823.49-1.039.295-2.61.476-4.245.644-.445.05-.582-.15-.665-.396z" style="stroke-width:.999962"/><path fill="#d9d9d9" d="M25.322 5.609c.842-.348.908-.617 1.06-.948l.158-.433c.19-.656.797-1.07 1.476-1.087l10.093-.043.03 4.12-7.437.302c-.631.019-.852.194-1.091.362-.315.215-.693.337-1.361.389l-1.68.124-.504.158zm3.357 2.918-2.048.156L19 11.06l-.12.538c-.203 1.317.902 1.627 1.622 1.369l4.252-1.452a1.8 1.8 0 0 0 .602-.388c.197-.165.468-.245.72-.138.314.114.62.065.858-.034l.972-.392c.595-.277.582-1.014.588-1.293.017-.254.011-.502.184-.744m-1.414.219c.188-.001.436.078.646.186l-.004.488c-.001.331-.105.557-.281.632l-.967.386c-.628.21-1.293-.664-.977-.988.11.41.35.986.82.98.086-.009.142-.056.038-.118-.699-.455-.257-1.202.56-1.537a.4.4 0 0 1 .165-.03m-2.66 1.076c.514-.025.943.752-.074 1.15l-4.283 1.467c-.797.263-1.176-.706-.35-1.046l4.604-1.555a.5.5 0 0 1 .103-.016m1.182-1.19-.751-2.92-5.76 1.884c-.626.181-1.235.09-1.75-.337l-1.054-.992c-.59-.576-.861-.51-1.838-.417l-13.087.894c-.028 2.876.35 5.87 1.072 8.83 7.512-2.138 15.775-4.514 23.168-6.942" style="stroke-width:.999962"/><path fill="#d9d9d9" d="m24.783 5.48.091-.11-.043-.238a1.2 1.2 0 0 0-.98.199c-.115.104-.214.196-.467.209-.224.008-.37.139-.483.285-.078.098.015.27.134.228zM1.253 6.765l-.564.036c-.552.07-.708.348-.687.72l.614 8.083c.017.275.152.492.65.352l1.077-.28c-.791-3.025-1.054-5.913-1.09-8.91m73.74-2.47-.418-.33.315-.461-.407-.56L84.693 0l-4.384 3.109 4.934.6-4.737.873 3.205 2.874-9.182-2.35Z" style="stroke-width:.999962"/></svg>