<svg xmlns="http://www.w3.org/2000/svg" width="58.426" height="16" fill="none"><path fill="#d9d9d9" d="m52.513 6.279-.246-.233 6.159-1.444-3.417 1.603 3.26.462-2.977.723 1.478 1.384-4.503-1.71.246-.331-.246-.3zM18.301.063a.05.05 0 0 1 .046-.031h.546a.26.26 0 0 1 .26.26v.346a6 6 0 0 1 .488.02q.013.001.019.011l.002.004.002.004v.543h-.51v.509a.16.16 0 0 1 .083-.024l9.465.059a.78.78 0 0 1 .532.213l2.575 2.437H30.5l-1.094-1.389a2.6 2.6 0 0 0-2.046-.992h-6.798a.52.52 0 0 0-.52.52V4.53h-.21v.065h-4.916v-.708l-.563-.045a.104.104 0 0 1-.093-.08c-.15-.638-.147-1.026-.001-1.656a.1.1 0 0 1 .1-.08h.557v-.81h.105v-.08l.12-1.068.004-.017a.04.04 0 0 1 .02-.019.8.8 0 0 1 .407-.01c.042.01.105.063.106.115h1.266c.029 0 .052.024.052.052v.073h1.267v.002a2 2 0 0 1 .037-.2"/><path fill="#d9d9d9" fill-rule="evenodd" d="M30.564 4.74h-.014v1.004h-3.737a.16.16 0 0 0-.135.076L25.5 7.804v.747l.176-.12c.281-.003.438-.082.718-.28 2.231-.016 5.131-.015 8.034-.015h.225c2.042 0 3.89.001 5.585-.005v.163a.05.05 0 0 0 .052.052h1.097a.05.05 0 0 0 .052-.052v-.168l.285-.002v.17a.05.05 0 0 0 .015.037q.015.015.037.015h.341a.05.05 0 0 0 .052-.052V7.96l.006-.012h.07a.17.17 0 0 0 .117-.047h.446a.124.124 0 1 0 0-.247h-.446a.2.2 0 0 0-.034-.025l.177-.367a.5.5 0 0 0 .044-.139l.002-.015a.5.5 0 0 0-.017-.22L42.04 5.23a.69.69 0 0 0-.659-.49h-9.308l-.055-.093L32 4.63l-.027-.008h-1.357a.05.05 0 0 0-.052.052zm1.88.543a.2.2 0 0 1 .1-.026h.766q.062 0 .11.033l-.008.043h-.038l-.009-.052-.035.004-.037-.004-.01.052h-.037l-.01-.052-.035.004-.037-.004-.01.052h-.037l-.01-.052-.035.004-.037-.004-.01.052h-.037l-.01-.052-.035.004-.037-.004-.009.052h-.038l-.009-.052-.036.004-.037-.004-.009.052h-.038l-.009-.052-.035.004-.038-.004-.009.052h-.038l-.009-.052-.035.004-.038-.004-.009.052h-.038l-.009-.052zm-.038.315q.021.021.048.035l-.008-.049h-.038zm.054.038a.2.2 0 0 0 .084.018h.766a.2.2 0 0 0 .09-.021h-.006l-.037.003-.01-.052h-.037l-.009.052-.036-.004-.037.004-.009-.052h-.038l-.009.052-.035-.004-.038.004-.009-.052h-.038l-.009.052-.035-.004-.038.004-.009-.052h-.037l-.01.052-.035-.004-.037.004-.01-.052h-.037l-.01.052-.035-.004-.037.004-.01-.052h-.037l-.01.052-.035-.004-.037.004-.01-.052h-.037l-.01.052-.035-.004zm.975-.026.026-.026h-.022zm.64.017q.045.026.1.027h.767a.2.2 0 0 0 .09-.021l-.009-.049h-.038l-.009.052-.035-.004-.038.004-.009-.052h-.037l-.01.052-.035-.004-.037.004-.01-.052h-.037l-.01.052-.035-.004-.037.004-.01-.052H34.6l-.01.052-.035-.004-.037.004-.01-.052h-.037l-.01.052-.035-.004-.037.004-.01-.052h-.037l-.009.052-.036-.004-.037.004-.009-.052h-.038l-.009.052-.036-.004-.037.004-.009-.052h-.038zm1.587-.036.008.008-.003-.015h-.01zm.054.04a.2.2 0 0 0 .091.023h.767a.2.2 0 0 0 .134-.052h-.895v.034h-.067v-.007zm.999-.316h-.902v-.034h-.067v.052h-.052l-.007-.036a.2.2 0 0 1 .12-.04h.777l.013.001.008.001a.2.2 0 0 1 .11.056m.63.315a.2.2 0 0 0 .042.017v-.045h-.082a.2.2 0 0 0 .04.028m.098.024h.762q.015 0 .028-.002V5.65h-.79zm.79-.395-.028-.002h-.762v.01h.79zm-.846.004v.052h-.09a.2.2 0 0 1 .09-.052m-2.298.06-.001.01h-.038l-.009-.05a.2.2 0 0 1 .048.04m-.05-.042a.2.2 0 0 0-.097-.024h-.767a.2.2 0 0 0-.097.025l.025.003.036-.004.009.052h.038l.009-.052.037.004.036-.004.009.052h.037l.01-.052.037.004.035-.004.01.052h.037l.01-.052.037.004.035-.004.01.052h.037l.01-.052.037.004.035-.004.01.052h.037l.01-.052.036.004.036-.004.01.052h.037l.01-.052.036.004.036-.004.009.052h.038l.009-.052.037.004zm-.975.01a.2.2 0 0 0-.045.042h.038zm6.44.164c0-.11.088-.198.198-.198h.767a.199.199 0 1 1 0 .397h-.767a.2.2 0 0 1-.199-.199m-4.758.174-.008-.045h.008z" clip-rule="evenodd"/><path fill="#d9d9d9" d="m42.54 6.176.194.652q.018.06.025.12h1.105v.058h.02v.255h-.02v.1h.553v-.1h-.058v-.255h.134q.006 0 .01-.002l.007-.005a.03.03 0 0 0 .008-.018v-.006h.099v.006c0 .014.01.025.024.025h.715c.018 0 .036-.01.043-.028l.012-.03h2.615v.168h.35a.016.016 0 0 0 .017-.016q.001-.015.016-.016h.4q.015.001.016.016 0 .01.009.014l.004.002h2.667a.24.24 0 0 0 .192-.096c.008-.01 0-.024-.013-.024h-1.776l-.03-.002c-.088-.008-.432-.043-.432-.122 0-.08.344-.115.432-.123l.04-.001h1.81q.008 0 .014-.008l.003-.01v-.337a.02.02 0 0 0-.017-.017h-1.83l-.02-.002c-.088-.008-.432-.043-.432-.122 0-.027.037-.048.091-.065a1 1 0 0 1 .094-.024 2 2 0 0 1 .272-.035h1.781a.02.02 0 0 0 .014-.008l.001-.003.001-.004q0-.005-.003-.01a.24.24 0 0 0-.192-.096H48.84a.016.016 0 0 0-.016.016.016.016 0 0 1-.016.016h-.4a.016.016 0 0 1-.016-.016l-.004-.01-.001-.002-.004-.002-.003-.001-.004-.001h-.35v.169H45.41l-.005-.014-.002-.005-.004-.008-.001-.004a.05.05 0 0 0-.043-.028h-.719l-.004.002h-.003v.002h-.002l-.003.003-.005.006-.002.004v.003l-.001.005v.007h-.1v-.007a.025.025 0 0 0-.024-.025h-.604a.03.03 0 0 0-.023.017l-.002.008v.034zm-12.199-.925v.285h-3.528a.36.36 0 0 0-.314.178l-1.207 2.033v.959q-.178.14-.316.289c-.201.216-.352.46-.512.804l-3.744.775-.013.724a.116.116 0 0 1-.227.035l-.224-.663-.05.01-.27.001c0 .106-.055.196-.146.224a.2.2 0 0 1-.042.009l-1.836.183a.55.55 0 0 1-.328-.07l-.646-.372a.24.24 0 0 0-.34.11l-1.34 2.966a.15.15 0 0 0 .042.174.16.16 0 0 1 .042.204l-.029.053a.21.21 0 0 1-.29.086l-2.084-1.155a.206.206 0 0 1-.075-.289l1.783-2.88c.397-.6.066-1.142-.136-1.246h.116c.435.348.816.578 1.228.717.38.129.775.175 1.244.175l.005.03-.262.529a.275.275 0 0 0 .114.363l.687.376a.3.3 0 0 0 .174.037l1.84-.152a.2.2 0 0 0 .112-.045.2.2 0 0 0 .068-.101l.002-.007a.2.2 0 0 0 .006-.052V9.37q0-.03-.006-.058l-.006-.023-.01-.03a.3.3 0 0 0-.068-.092v.142a.035.035 0 0 1-.034.034h-.196a.034.034 0 0 1-.035-.034V9.1l-1.335.118c-.202.322-.27.607-.25.84s.105.463.369.675c.029.025.032.063.012.088-.015.02-.043.032-.082.027a.63.63 0 0 1-.414-.238l-.014.002h-.008c-.06 0-.108-.067-.108-.15a.2.2 0 0 1 .007-.05 1.05 1.05 0 0 1 .055-.971c-.127-.02-.186-.058-.248-.161a.45.45 0 0 0-.193.079c-1.082.024-1.683-.16-2.58-.89h-.41V4.486h-.798v-.01c0-.057.047-.103.104-.103h1.111v.43h5.126v.445a.276.276 0 0 0 .277.277h6.382v-.07h2.27a.28.28 0 0 0 .24-.138h1.27a.07.07 0 0 0 .068-.066"/><path fill="#d9d9d9" d="M26.285 5.246v.071h-.513V5.06h-.014v.258h-5.647a.07.07 0 0 1-.069-.069v-.446h.208v-.064h3.721l.137.08h2.657v.24h.014V4.88l.001-.007a.07.07 0 0 1 .068-.055h1.915a.07.07 0 0 1 .069.069v.291c0 .038-.03.069-.069.069zm-2.063 4.815-3.413.707-.013.036v1.62h-.149a.115.115 0 0 0-.115.116v1.37c0 .064.052.115.115.115h.149v1.755c0 .1.08.183.18.185l1.661.034a.07.07 0 0 0 .07-.07v.025c0 .025.021.046.047.046h.317a.21.21 0 0 0 .208-.208v-.107a.057.057 0 0 1 .057-.058h.758a.16.16 0 0 0 .161-.161v-.21h.137v.27c0 .02.016.035.035.035h.577a.39.39 0 0 0 .392-.392V11.28a.39.39 0 0 0-.392-.392h-.577a.035.035 0 0 0-.035.035v.27h-.137v-.882a.023.023 0 0 0-.023-.023h-.01z"/><path fill="#d9d9d9" fill-rule="evenodd" d="M14.083 8.575v-3.88h-.807l-.13.008c-1.19.729-2.686 1.026-4.148 1.026l-7.867.143a.1.1 0 0 0-.096.072 12 12 0 0 1-.774-.165.21.21 0 0 0-.26.23c.34 2.595.309 4.298.128 7.095a.24.24 0 0 0 .31.247l.723-.217.002.09h.185a.344.344 0 0 0 .33-.247l.274-.944a3.78 3.78 0 0 1 2.891-2.654l4.039-.805zm-4.856-1.89a.344.344 0 0 0-.343.344v.832c0 .19.153.343.343.343h2.001c.19 0 .344-.154.344-.343v-.832a.344.344 0 0 0-.344-.344zm-.729 1.3V6.544a.344.344 0 0 0-.35-.344l-5.827.113a.7.7 0 0 0-.272.292v1.822a.6.6 0 0 0 .146.183c.264 0 .478.214.478.478v.04c.001.075.003.202-.013.332l5.563-1.138a.344.344 0 0 0 .275-.337m-6.12 1.074a.18.18 0 1 1-.028-.097l.003.005.004.008a.2.2 0 0 1 .021.084" clip-rule="evenodd"/></svg>