<svg xmlns="http://www.w3.org/2000/svg" width="54.602" height="16" fill="none"><path fill="#d9d9d9" d="M26.514 3.02h6.524l.001-.084h1.649v-.27h-3.011v-.594h-1.662v-.207h-.636l-.07.063-.065-.063h-.214l-.193.058h-.675l-.023-.01v-.146h-1.951v.06h-.191l-.873-.427h-4.936v.892h-1.173v-.495h-6.559l-.257.445v.05h-.731v.138h-.01v2.788h.01v.06h.996v.19a.34.34 0 0 0 .02.153c.02.048.06.092.106.12.093.054.207.062.368.06h-.001.304l-.338-.58h5.473c.219 0 .346.008.482.056q.046.015.087.034c.134.064.23.164.299.283.05.084.087.18.124.283l.076.221v.003c.042.13.087.268.149.42l.013.033h.411v1.047c.008.16-.018.27-.085.35-.068.08-.19.144-.412.178l-.678.065c-.186.016-.357-.077-.518-.212-.113-.094-.213-.201-.307-.301.05-.015.1-.023.14-.001l.788.438.003.001.022.014c.01.004.02.013.053.01.009 0 .03-.006.03-.006l.036-.022.023-.035s.007-.022.007-.03c.003-.036-.005-.046-.01-.055l-.01-.02-.022-.025-.002-.003-.003-.003a1.1 1.1 0 0 1-.303-.622c-.032-.243.02-.51.22-.766h.402a8 8 0 0 1-.144-.407c-.17-.477-.19-.725-.802-.725h-5.19l.22.378.565.926-.006-.016.015.03-.009-.014a.76.76 0 0 0 .22.315c.098.077.198.118.323.174.465.225.566.469.576.722s-.108.53-.201.723l.005-.01c-.564 1.012-.915 2.049-.971 3.109-.003.056-.01.122.025.209a.33.33 0 0 0 .272.181h2.118a.26.26 0 0 0 .176-.073.25.25 0 0 0 .067-.165.28.28 0 0 0-.08-.206l-.016-.018.01.01a.72.72 0 0 1-.151-.47c.002-.166.052-.33.103-.439l.939-2.036a.4.4 0 0 1 .132-.179l.42-.279c.026.022.046.044.073.065.213.166.463.31.73.288l.885-.072a.915.915 0 0 0 .798-.925V6.554h.288l-.243.686a.203.203 0 0 0 .381.135l.291-.82h.309c.101.007.156.036.19.07.032.032.053.076.056.149l.01.475h1.107a.7.7 0 0 1-.092-.145l-.026-.052a.7.7 0 0 1-.043-.176c-.38-.187-.761-.369-1.138-.56l1.147-.563c.074-.365.269-.57.485-.581.23-.012.437.182.437.443v.08h1.84a.2.2 0 0 1 .052-.053.6.6 0 0 1 .282-.067l.002-2.136a.5.5 0 0 1 .033-.158c.037-.096.072-.262.633-.262" style="stroke-width:1.00005"/><path fill="#d9d9d9" d="M25.353 7.496c-.014.002-.025.01-.038.013V7.5c-.147.027-.184.093-.208.192-.024.104-.01.233-.014.337-.014.255-.064.392-.03.605.064.401.041.765-.024 1.167l-.011.07-.071.013c-.19.034-.376.128-.551.22s-.336.186-.509.198c-.218.014-.464.033-.684.04-.22.009-.41.01-.545-.027l-.048-.013-.02-.046c-.044-.11-.046-.168-.078-.312-.064-.28-.166-.37-.233-.405l-.044-.024-.009-.05s-.075-.456-.038-.9c.016-.2.056-.274.074-.414a.53.53 0 0 0-.08-.367.37.37 0 0 0-.273-.164.3.3 0 0 0-.171.04.24.24 0 0 0-.111.192c-.043.56-.063.99-.016 1.534a.5.5 0 0 0-.164.141c-.07.099-.079.179-.099.29a4 4 0 0 0-.046.402 13 13 0 0 0-.027 1.09c.005.397.025.803.06 1.153.033.35.075.633.156.833.022.053.04.215.038.413s-.017.434-.015.675.019.49.088.718c.07.23.2.448.423.58.458.268.669.28.895.28.05 0 .108-.009.159-.036.05-.026.072-.054.077-.058.01-.01.003-.014.117-.04a3.5 3.5 0 0 1 .777-.051c.076.006.135.029.118.019.225.13.514.2.792.205s.577-.05.725-.308c.103-.178.148-.425.205-.787.057-.36.107-.816.145-1.321.024-.311.034-.659.049-.997.052-.024.262-.124.4-.293a.2.2 0 0 0 .041-.149.6.6 0 0 0-.03-.146 3 3 0 0 0-.14-.337c-.1-.214-.202-.437-.237-.576a21 21 0 0 0-.02-.75.6.6 0 0 0-.06-.227c-.206-.61-.286-1.763-.364-2.457v-.004c-.013-.082-.088-.135-.15-.151a.4.4 0 0 0-.181-.001" style="stroke-width:1.00005"/><path fill="#d9d9d9" d="M22.074 7.452c.119.043.218.12.285.217a.73.73 0 0 1 .114.509c-.022.165-.059.228-.074.404a3.8 3.8 0 0 0 .036.824v.002c.11.079.222.216.284.491.028.122.036.164.055.223.093.016.241.025.432.018.214-.008.458-.026.678-.04.098-.007.251-.082.427-.175.154-.081.338-.16.534-.21.056-.367.075-.692.018-1.049-.04-.256.015-.418.027-.648.003-.064-.016-.22.02-.373a.5.5 0 0 1 .104-.193zm1.571-.535v.223q0 .059-.015.11h1.848v-.33z" style="stroke-width:1.00005"/><path fill="#d9d9d9" d="M23.47 5.898v-.283c0-.158-.11-.246-.225-.24-.115.005-.268.107-.319.468l-.008.053-.855.424.86.42-.002.065a.4.4 0 0 0 .04.177l.035.076c.048.071.112.13.18.167.005.004.032.015.053.024h.182a.1.1 0 0 0 .018-.03.2.2 0 0 0 .013-.079v-.425q1.217.003 2.434.003v.005h.014v.339h7.009v-.329h.525v-.082h2.538c-.005-.029-.013-.041-.013-.08v-.524l-2.074-.004c-.106.052-.114.091-.536.091l-6.931-.002a.75.75 0 0 1-.352-.072c-.065-.034-.095-.101-.13-.162z" style="stroke-width:1.00005"/><path fill="#d9d9d9" d="m36.552 5.352.002-.59h.062V2.94h-1.719v-.63c0-.112.05-.21.12-.277.01-.01.024-.014.035-.022a.6.6 0 0 1 .197-.231l.275-1.027c.016-.06.04-.146.081-.225a.4.4 0 0 1 .079-.11.2.2 0 0 1 .148-.06h.49l.348 1.544h.1l.193.618v1.225l.194.196.004-.004.009.009a.6.6 0 0 1 .267.261h.157l.738.26v.367l-.433.32V6.47a.87.87 0 0 1-.143.48.6.6 0 0 1-.366.276l-.122.025v-.427h-.44v.426l-.135-.048c-.234-.084-.464-.274-.522-.538h-.01a.4.4 0 0 1-.01-.093V6.05h.006v-.174a1 1 0 0 0 .095-.014c.248-.067.3-.24.3-.51" style="stroke-width:1.00005"/><path fill="#d9d9d9" d="M33.244 3.142v.08H26.34a.5.5 0 0 0-.125.017.2.2 0 0 0-.062.026c-.016.01-.036.018-.048.03q-.046.051-.053.144h.004v.207-.01l-.009 2.09.012.046c.012.049.036.08.09.109a.6.6 0 0 0 .258.048l7.125.003c.315 0 .315-.17.315-.26v-.267l.137.053q.014.007.027.016l.02.011.035.022.12.103.002.003-.003-.003-.005-.004.006.006a.15.15 0 0 0 .071.051c.01.004.039.003.055.006l.77.008h.893c.146.002.251-.008.298-.035a.12.12 0 0 0 .053-.066.5.5 0 0 0 .025-.182V4.56h.061V3.144Z" style="stroke-width:1.00005"/><path fill="#d9d9d9" fill-rule="evenodd" d="M41.284 2.62v.114h-1.739l-.037-.033h-2.342v.96l.115.117h2.227l.037-.033h1.74v.094h3.43v-1.22Zm3.026.405h-.01l.01.005zm-.089.185a1.2 1.2 0 0 0-.356-.049c-.143 0-.272.02-.357.05a.3.3 0 0 0-.07.033.3.3 0 0 0 .07.033 1.2 1.2 0 0 0 .357.049c.143 0 .272-.02.356-.049a.3.3 0 0 0 .07-.033.3.3 0 0 0-.07-.034M9.037 1.9l-7.563.001.09.268c.026.075.067.287.283.453l.023.017.81.315c.043.028.071.055.109.082l-.794-.001a1 1 0 0 1-.085-.043.37.37 0 0 0-.218-.061c-.94.026-.941.046-1.383.127a.4.4 0 0 0-.145.044.3.3 0 0 0-.129.134c-.051.11-.032.18-.029.252.042 1.39.097 2.902.344 4.474.016.104.056.463.106.815.025.176.053.353.083.505.028.143.054.252.103.354.042.11.111.127.147.14a.5.5 0 0 0 .099.02q.095.011.215.012c.16.002.353-.005.516-.008a.5.5 0 0 0 .298-.12c.077-.072.134-.155.217-.276l.007-.01.5-.873.128-.038 1.218-1.36h.035l.012-.054.024-.026.78-.259c-.19.28-.484.51-.737.678l-.057.031.015.362c.002.043 0 .092.054.14.027.025.07.037.101.035a.2.2 0 0 0 .08-.024l1.087-.87c.13-.159.372-.256.738-.242l1.282.005.381-.33.004-.005c.016-.017.025-.037.037-.055a.4.4 0 0 0 .17-.152l.003-.007 1.383-.417A.62.62 0 0 0 9.7 5.71a.6.6 0 0 0 .088-.26V3.045h-.196L5.311 3.04c.302-.137.694-.228 1.24-.228l1.808-.008h.007a.53.53 0 0 0 .414-.293c.062-.129.085-.245.12-.321ZM2.576 5.417h-.481v.244h.477l.05-.17zm6.74.006H8.197c-.025 0-.044.014-.064.026a.15.15 0 0 1-.04.105l-.025.01a.13.13 0 0 0 .13.128h1.116a.13.13 0 0 0 .132-.131v-.006a.13.13 0 0 0-.132-.132m-7.21 1.499h-.011v.448h.337a.8.8 0 0 1-.233-.241h-.046l.016-.056a1 1 0 0 1-.063-.151" clip-rule="evenodd" style="stroke-width:1.00005"/><path fill="#d9d9d9" d="M13.203.358a.5.5 0 0 0-.125.016.58.58 0 0 0-.357.293l-.013.023v.416l-.004.019.004.018v.454h4.479v-.28h-.218l-.138-.213-.001-.002a.3.3 0 0 0-.234-.121.5.5 0 0 0-.228.077.46.46 0 0 0-.227-.09c-.076 0-.142.046-.207.093H14.58l-.955-.566a.9.9 0 0 0-.288-.123.6.6 0 0 0-.134-.014m-2.467 1.99v.082h-.302l-.003.5h.079v.308h-.52v1.685h.443l-.002.295h.826v-.5h-.045v-.346h.045V2.43h-.17v-.082zm22.891 4.505v.08l-.524.004v-.001H33.1v.328h-.148l.111.472.213.04c-.174.996.011 1.675.225 2.524l-.2.13-.016.64.068.062c.158.145.376.302.665.319.288.017.611-.115.956-.443l.055-.053.007-.077c.013-.183.043-.372-.014-.546l-.263-.135c.068-.68.246-1.566-.217-2.701l.212-.16-.026-.11.182-.154h.106v.457l-.101.008v.214h1.316v-.214l-.101-.008v-.676zm11.374-3.079 8.297 1.963-2.513-2.205 3.817-.616-3.982-.948L53.7 0 45 2.679l.6.124-.6.372.359.37z" style="stroke-width:1.00005"/></svg>