<svg xmlns="http://www.w3.org/2000/svg" width="85.072" height="16" fill="none"><path fill="url(#a)" d="M65.096 2.629h19.976v.507H65.096z" style="fill:url(#a)"/><path fill="#d9d9d9" fill-rule="evenodd" d="M42.037.07a.14.14 0 0 1 .02.053V.13l.001.017v.41l.024.01a.4.4 0 0 0 .122.016h.985V.267h-.254V.245s.04-.036.072-.036h.874c.032 0 .073.036.073.036v.022h-.291v.315h1.031c.058-.052.272-.196.839-.196.27 0 .672.16.672.534v.554h4.332v.146h12.891V.888l-.073-.11V.416l.11-.11h.764l.11.074v.29l.036.11c.006.02.022.029.037.033.018.005.035.003.035.003h.219v.715h.43v2.582h-.836v-.09H50.537v.146h-8.41v.146l-.181.11h-.364V1.218h.364l.182.11v.146h.026v-.4l.483-.2h-.433c-.168 0-.284-.043-.358-.116A.3.3 0 0 1 41.78.65a.3.3 0 0 1-.012-.069V.146a.146.146 0 0 1 .27-.077m3.476 1.15a.255.255 0 1 0 0-.51.255.255 0 0 0 0 .51" clip-rule="evenodd"/><path fill="#d9d9d9" d="M34.957 1.091h6.334V4.57l-5.7 1.449-.333-.151-.002-.001-.006-.003-.104-.05a1 1 0 0 1-.145-.084l-.002-.004h-.001a1 1 0 0 1-.04-.123l-.001-.005z"/><path fill="#d9d9d9" fill-rule="evenodd" d="M34.665 1.23v.026h-.546l-.003-.031a.15.15 0 0 0-.044-.077.146.146 0 0 0-.244.107h-.437l-.072-.108h-1.857l-.073.109h-.514a.146.146 0 1 0-.291 0h-.542l-.072-.11h-1.857l-.073.11h-.582a.146.146 0 0 0-.249-.103l-.005.006-.007.007-.006.009a.14.14 0 0 0-.024.08h-.474l-.072-.108h-1.857l-.073.109h-.528a.146.146 0 1 0-.29 0h-.529l-.072-.11h-1.129l-.073.11h-.728s-.157.062-.325.145c0 0-.403-.036-.585.037a.25.25 0 0 0-.1.079.4.4 0 0 0-.081.212c0 .094.119.182.119.182-.093.102-.156.182-.156.182v.619h-.219v.728h-.473v1.929s-.001.211.146.364.255.146.255.146h4.186l.983 2.038h.292l4.05-.097-.074.19-.01.026v.61a.146.146 0 0 0 .292 0V8.09l.107-.278.184-.004.328-.218.041-.013.077-.023 4.687-1.398.073-.022s-.225-.101-.328-.183c-.11-.086-.146-.327-.146-.327zm-7.498 4.14v.145s-.35.424-.364.691c-.037.656.436 1.056.436 1.056.046.04.03.09 0 .073 0 0-.219-.123-.364-.291-.141-.165-.29-.474-.29-.474l-.01-.043-.012-.073a1 1 0 0 1-.015-.138c0-.073.036-.255.036-.255l.006-.016.008-.022.007-.017.016-.04c.02-.051.047-.113.072-.16.02-.036.047-.077.072-.115.039-.057.074-.103.074-.103v-.219h-1.42l-.035 2.33 3.602-.087.037-2.243z" clip-rule="evenodd"/><path fill="#d9d9d9" d="M30.434 7.842c.035.176.08.397.118.548a.4.4 0 0 0 .038.084l.008.014.009.012.009.013.006.008a.6.6 0 0 0 .076.088s.155 1.113.29 1.82c.136.701.401 1.784.401 1.784.15.903.51 2.529.663 3.167.032.133.055.223.065.254l.03.097c.029.1.038.131.116.195.112.091.364.072.364.072l3.494-1.019s.167-.14.292-.182c.218-.073.4-.109.4-.109h.219v-.182l-.188-.546-.024-.073a247 247 0 0 1-.517-1.529l-.03-.09c-.326-.989-.52-1.576-.734-2.64-.206-1.027-.377-2.545-.443-3.178z"/><path fill="#d9d9d9" fill-rule="evenodd" d="m24.884 8.156-.958-1.986h-4.017l-.045-.004a.5.5 0 0 1-.118-.03.8.8 0 0 1-.288-.201.82.82 0 0 1-.224-.502l-.003-.043V3.44h-1.493s-1.346.683-2.293 1.02c-1.303.464-7.171.583-7.171.583H.146a.14.14 0 0 0-.113.052.14.14 0 0 0-.03.126l.149.639q.015.07.028.147a.146.146 0 0 0-.13.144c0 .08.066.146.146.146h.016l.02-.004.022.134a.146.146 0 1 0 .044.288l.031.224a.146.146 0 0 0 .034.288h.003l.017.15a.14.14 0 0 0-.098.083.145.145 0 0 0 .128.203l.007.078.007.075a.145.145 0 0 0 .023.283l.009.12a.146.146 0 0 0 .017.278l.012.234a.15.15 0 0 0-.086.107L.4 8.845v.006a.14.14 0 0 0 .026.096.15.15 0 0 0 .072.055l.005.176a.146.146 0 0 0 .004.248v.064l.001.106a.146.146 0 0 0-.109.141c0 .067.045.124.107.14v.006l-.002.037-.002.072a.145.145 0 0 0-.14.146c0 .073.055.133.125.144l-.013.188a.146.146 0 0 0-.024.274l-.016.163a.145.145 0 0 0-.03.27l-.024.21a.146.146 0 0 0-.033.25l-.024.18a.145.145 0 0 0-.038.263l-.014.092-.012.08a.146.146 0 0 0-.043.268l-.021.13-.013.077a.146.146 0 0 0-.046.262l-.064.352-.016.081a.146.146 0 0 0 .143.174h1.486s16.345-.764 16.745-.764c.56 0 1.31.582 1.31.582s4.187.073 4.26 0l.012-.016.007-.019v-.014l-.004-.02c-.013-.042-.055-.09-.104-.147q-.049-.054-.097-.118c-.12-.161-.251-.338-.251-.43 0-.292.983-3.75 1.165-4.223a1 1 0 0 1 .115-.214zM5.253 6.862s-.587.247-.838.546c-.275.327-.327 1.019-.327 1.019l.983 2.694s.435.62.618.691c.177.07.474.11.474.11l3.567-.098s.559-.067.837-.267c.213-.153.473-.51.473-.51l.692-2.984s-.047-.478-.255-.728c-.256-.309-.887-.507-.91-.514zm13.832 4.732-3.785.098s-.524-.073-.765-.28c-.304-.262-.4-.947-.4-.947l.619-2.439s.16-.592.436-.837c.267-.236.844-.328.873-.332l3.896-.032s.763.367.874.583c.132.258.145.728.145.728l-.655 2.912s-.061.07-.143.152a2 2 0 0 1-.2.174l-.057.038c-.193.108-.838.182-.838.182" clip-rule="evenodd"/><defs><linearGradient id="a" x1="85.553" x2="65.576" y1="3.814" y2="3.814" gradientTransform="translate(-.481 -.932)" gradientUnits="userSpaceOnUse"><stop stop-color="#D9D9D9"/><stop offset="1" stop-color="#D9D9D9" stop-opacity="0"/></linearGradient></defs></svg>