<?xml version="1.0" encoding="UTF-8" standalone="no"?>
<svg
   width="64.361"
   height="63.833"
   viewBox="0 0 17.029 16.889"
   xml:space="preserve"
   version="1.1"
   id="svg3"
   sodipodi:docname="black_gift_residue.svg"
   inkscape:version="1.3.2 (091e20e, 2023-11-25, custom)"
   xmlns:inkscape="http://www.inkscape.org/namespaces/inkscape"
   xmlns:sodipodi="http://sodipodi.sourceforge.net/DTD/sodipodi-0.dtd"
   xmlns="http://www.w3.org/2000/svg"
   xmlns:svg="http://www.w3.org/2000/svg"><defs
   id="defs3" /><sodipodi:namedview
   id="namedview3"
   pagecolor="#ffffff"
   bordercolor="#000000"
   borderopacity="0.25"
   inkscape:showpageshadow="2"
   inkscape:pageopacity="0.0"
   inkscape:pagecheckerboard="0"
   inkscape:deskcolor="#d1d1d1"
   inkscape:zoom="8.9173462"
   inkscape:cx="37.062596"
   inkscape:cy="34.371212"
   inkscape:window-width="1920"
   inkscape:window-height="1001"
   inkscape:window-x="-9"
   inkscape:window-y="-9"
   inkscape:window-maximized="1"
   inkscape:current-layer="svg3" />
    <path
   style="fill:#1b1b1b;fill-opacity:1;stroke:#000000;stroke-width:0.79375;stroke-linejoin:round;stroke-dasharray:none;stroke-opacity:1"
   d="M4.1 9.532s-5.787-4.91-2.893-6.2C4.1 2.04 5.134-1.219 6.375 1.366c1.24 2.585 2.17 4.29 1.136 5.788-1.033 1.499-3.41 2.377-3.41 2.377Z"
   id="path1" />
    <path
   d="M15.355 8.156 9.872 4.718l.701-.579.223-.895 5.483 3.438-.811.53Z"
   style="fill:#2d2d2d;fill-opacity:1;fill-rule:nonzero;stroke:#000000;stroke-width:1.49992;stroke-linecap:round;stroke-linejoin:round;stroke-miterlimit:4;stroke-dasharray:none;stroke-dashoffset:0;stroke-opacity:1;paint-order:stroke fill markers"
   id="path2" />
    <path
   style="fill:#1b1b1b;fill-opacity:1;stroke:#000000;stroke-width:0.79375;stroke-linejoin:round;stroke-dasharray:none;stroke-opacity:1"
   d="M8.695 12.439s1.206-4.382 3.462-2.157c2.256 2.225 4.065 1.891 2.11 3.988-1.956 2.096-3.8 2.498-5.572 2.081-1.772-.416 0-3.912 0-3.912z"
   id="path3" />
</svg>
