<svg xmlns="http://www.w3.org/2000/svg" width="352.49" height="322.683" viewBox="0 0 93.263 85.377"><g transform="translate(7.617 10.367)"><path d="m14.95 9.102-2.614 2.17-.846 3.288-3.382-.314-2.924 1.728-2.17-2.613-3.288-.847.314-3.381-1.728-2.924 2.613-2.17L1.772.75l3.381.314L8.077-.663l2.17 2.613 3.289.846-.314 3.382z" style="fill:#6d4a2c;fill-opacity:1;stroke:#312114;stroke-width:.79375;stroke-linejoin:round;stroke-dasharray:none;stroke-opacity:1" transform="translate(21.88 14.01)scale(2.55092)"/><path fill="none" d="m14.95 9.102-2.614 2.17-.846 3.288-3.382-.314-2.924 1.728-2.17-2.613-3.288-.847.314-3.381-1.728-2.924 2.613-2.17L1.772.75l3.381.314L8.077-.663l2.17 2.613 3.289.846-.314 3.382z" style="fill:#5f4316;fill-opacity:0;fill-rule:nonzero;stroke:#312114;stroke-width:.30749;stroke-linejoin:miter;stroke-dasharray:none;stroke-opacity:1" transform="translate(24.24 16.734)scale(2.19497)"/><path fill="none" d="m14.95 9.102-2.614 2.17-.846 3.288-3.382-.314-2.924 1.728-2.17-2.613-3.288-.847.314-3.381-1.728-2.924 2.613-2.17L1.772.75l3.381.314L8.077-.663l2.17 2.613 3.289.846-.314 3.382z" style="fill:#5f4316;fill-opacity:0;fill-rule:nonzero;stroke:#312114;stroke-width:.30749;stroke-linejoin:miter;stroke-dasharray:none;stroke-opacity:1" transform="matrix(1.97095 0 0 1.97095 25.726 18.45)"/><path fill="none" d="m14.95 9.102-2.614 2.17-.846 3.288-3.382-.314-2.924 1.728-2.17-2.613-3.288-.847.314-3.381-1.728-2.924 2.613-2.17L1.772.75l3.381.314L8.077-.663l2.17 2.613 3.289.846-.314 3.382z" style="fill:#5f4316;fill-opacity:0;fill-rule:nonzero;stroke:#312114;stroke-width:.30749;stroke-linejoin:miter;stroke-dasharray:none;stroke-opacity:1" transform="matrix(1.75897 0 0 1.75897 27.131 20.072)"/><path fill="none" d="m14.95 9.102-2.614 2.17-.846 3.288-3.382-.314-2.924 1.728-2.17-2.613-3.288-.847.314-3.381-1.728-2.924 2.613-2.17L1.772.75l3.381.314L8.077-.663l2.17 2.613 3.289.846-.314 3.382z" style="fill:#5f4316;fill-opacity:0;fill-rule:nonzero;stroke:#312114;stroke-width:.30749;stroke-linejoin:miter;stroke-dasharray:none;stroke-opacity:1" transform="matrix(1.54642 0 0 1.54642 28.54 21.7)"/><path fill="none" d="m14.95 9.102-2.614 2.17-.846 3.288-3.382-.314-2.924 1.728-2.17-2.613-3.288-.847.314-3.381-1.728-2.924 2.613-2.17L1.772.75l3.381.314L8.077-.663l2.17 2.613 3.289.846-.314 3.382z" style="fill:#5f4316;fill-opacity:0;fill-rule:nonzero;stroke:#312114;stroke-width:.30749;stroke-linejoin:miter;stroke-dasharray:none;stroke-opacity:1" transform="matrix(1.30556 0 0 1.30556 30.138 23.543)"/><path fill="none" d="m14.95 9.102-2.614 2.17-.846 3.288-3.382-.314-2.924 1.728-2.17-2.613-3.288-.847.314-3.381-1.728-2.924 2.613-2.17L1.772.75l3.381.314L8.077-.663l2.17 2.613 3.289.846-.314 3.382z" style="fill:#5f4316;fill-opacity:0;fill-rule:nonzero;stroke:#312114;stroke-width:.30749;stroke-linejoin:miter;stroke-dasharray:none;stroke-opacity:1" transform="matrix(1.0513 0 0 1.0513 31.823 25.49)"/><path fill="none" d="m14.95 9.102-2.614 2.17-.846 3.288-3.382-.314-2.924 1.728-2.17-2.613-3.288-.847.314-3.381-1.728-2.924 2.613-2.17L1.772.75l3.381.314L8.077-.663l2.17 2.613 3.289.846-.314 3.382z" style="fill:#5f4316;fill-opacity:0;fill-rule:nonzero;stroke:#312114;stroke-width:.30749;stroke-linejoin:miter;stroke-dasharray:none;stroke-opacity:1" transform="translate(33.075 26.935)scale(.86253)"/><path fill="none" d="m14.95 9.102-2.614 2.17-.846 3.288-3.382-.314-2.924 1.728-2.17-2.613-3.288-.847.314-3.381-1.728-2.924 2.613-2.17L1.772.75l3.381.314L8.077-.663l2.17 2.613 3.289.846-.314 3.382z" style="fill:#5f4316;fill-opacity:0;fill-rule:nonzero;stroke:#312114;stroke-width:.30749;stroke-linejoin:miter;stroke-dasharray:none;stroke-opacity:1" transform="matrix(.69028 0 0 .69028 34.217 28.253)"/><path fill="none" d="m14.95 9.102-2.614 2.17-.846 3.288-3.382-.314-2.924 1.728-2.17-2.613-3.288-.847.314-3.381-1.728-2.924 2.613-2.17L1.772.75l3.381.314L8.077-.663l2.17 2.613 3.289.846-.314 3.382z" style="fill:#5f4316;fill-opacity:0;fill-rule:nonzero;stroke:#312114;stroke-width:.30749;stroke-linejoin:miter;stroke-dasharray:none;stroke-opacity:1" transform="matrix(.51882 0 0 .51882 35.354 29.566)"/><path d="m14.95 9.102-2.614 2.17-.846 3.288-3.382-.314-2.924 1.728-2.17-2.613-3.288-.847.314-3.381-1.728-2.924 2.613-2.17L1.772.75l3.381.314L8.077-.663l2.17 2.613 3.289.846-.314 3.382z" style="fill:#312114;fill-opacity:1;fill-rule:nonzero;stroke:#4b2e00;stroke-width:0;stroke-linejoin:miter;stroke-dasharray:none;stroke-opacity:1" transform="matrix(.36462 0 0 .36462 36.377 30.746)"/><g style="stroke-width:.999998"><path d="m107.338-4.07 7.127 4.184-6.98-1.626zm-.148-2.557 7.127 4.183-6.98-1.626zm-.148-2.558 7.127 4.183-6.979-1.625zm-.148-2.558 7.127 4.184-6.979-1.626zm-.148-2.558 7.127 4.184-6.979-1.626zm-.148-2.557 7.127 4.183-6.979-1.626zm-.148-2.558 6.98 4.482-6.832-1.924zm-.89 15.346L98.33.114l7.08-1.626zm.147-2.557L98.48-2.444l7.08-1.626zm.148-2.558-7.228 4.183 7.08-1.625zm.148-2.558-7.228 4.184 7.08-1.626zm.148-2.558-7.228 4.184 7.08-1.626zm.148-2.557-7.228 4.183 7.08-1.626zm.148-2.558-7.228 4.183 7.08-1.625zm.002-6.294-.924 4.771-6.159 3.41 7.08-1.887.002-.023.001.023 6.66 1.957-5.789-3.532z" style="fill:#4f6435;fill-opacity:.85098;stroke:none;stroke-width:.167728px;stroke-linecap:butt;stroke-linejoin:miter;stroke-opacity:1" transform="matrix(1.33273 .76945 -.78203 1.35452 -138.578 -57.45)"/><path d="m105.292.1 1.158-20.021L107.61.1" style="opacity:1;fill:#433828;fill-opacity:1;stroke:#170e08;stroke-width:.444814;stroke-linecap:butt;stroke-linejoin:miter;stroke-miterlimit:20;stroke-dasharray:none;stroke-opacity:1" transform="matrix(1.33273 .76945 -.78203 1.35452 -138.578 -57.45)"/></g><g style="stroke-width:.999998"><path d="m107.338-4.07 7.127 4.184-6.98-1.626zm-.148-2.557 7.127 4.183-6.98-1.626zm-.148-2.558 7.127 4.183-6.979-1.625zm-.148-2.558 7.127 4.184-6.979-1.626zm-.148-2.558 7.127 4.184-6.979-1.626zm-.148-2.557 7.127 4.183-6.979-1.626zm-.148-2.558 6.98 4.482-6.832-1.924zm-.89 15.346L98.33.114l7.08-1.626zm.147-2.557L98.48-2.444l7.08-1.626zm.148-2.558-7.228 4.183 7.08-1.625zm.148-2.558-7.228 4.184 7.08-1.626zm.148-2.558-7.228 4.184 7.08-1.626zm.148-2.557-7.228 4.183 7.08-1.626zm.148-2.558-7.228 4.183 7.08-1.625zm.002-6.294-.924 4.771-6.159 3.41 7.08-1.887.002-.023.001.023 6.66 1.957-5.789-3.532z" style="fill:#4f6435;fill-opacity:.85098;stroke:none;stroke-width:.167728px;stroke-linecap:butt;stroke-linejoin:miter;stroke-opacity:1" transform="rotate(135 73.104 -10.291)scale(1.53891 1.56406)"/><path d="m105.292.1 1.158-20.021L107.61.1" style="opacity:1;fill:#433828;fill-opacity:1;stroke:#170e08;stroke-width:.444814;stroke-linecap:butt;stroke-linejoin:miter;stroke-miterlimit:20;stroke-dasharray:none;stroke-opacity:1" transform="rotate(135 73.104 -10.291)scale(1.53891 1.56406)"/></g><g style="stroke-width:.999998"><path d="m107.338-4.07 7.127 4.184-6.98-1.626zm-.148-2.557 7.127 4.183-6.98-1.626zm-.148-2.558 7.127 4.183-6.979-1.625zm-.148-2.558 7.127 4.184-6.979-1.626zm-.148-2.558 7.127 4.184-6.979-1.626zm-.148-2.557 7.127 4.183-6.979-1.626zm-.148-2.558 6.98 4.482-6.832-1.924zm-.89 15.346L98.33.114l7.08-1.626zm.147-2.557L98.48-2.444l7.08-1.626zm.148-2.558-7.228 4.183 7.08-1.625zm.148-2.558-7.228 4.184 7.08-1.626zm.148-2.558-7.228 4.184 7.08-1.626zm.148-2.557-7.228 4.183 7.08-1.626zm.148-2.558-7.228 4.183 7.08-1.625zm.002-6.294-.924 4.771-6.159 3.41 7.08-1.887.002-.023.001.023 6.66 1.957-5.789-3.532z" style="fill:#4f6435;fill-opacity:.85098;stroke:none;stroke-width:.167728px;stroke-linecap:butt;stroke-linejoin:miter;stroke-opacity:1" transform="matrix(1.5389 0 0 1.56407 -90.504 68.978)"/><path d="m105.292.1 1.158-20.021L107.61.1" style="opacity:1;fill:#433828;fill-opacity:1;stroke:#170e08;stroke-width:.444814;stroke-linecap:butt;stroke-linejoin:miter;stroke-miterlimit:20;stroke-dasharray:none;stroke-opacity:1" transform="matrix(1.5389 0 0 1.56407 -90.504 68.978)"/></g><circle cx="55.046" cy="60.108" r="2.662" style="fill:#2a00ff;fill-opacity:1;fill-rule:evenodd;stroke:#0c0066;stroke-width:1.06491;stroke-linecap:round;stroke-linejoin:round;stroke-dasharray:none;stroke-opacity:1"/><circle cx="57.986" cy="-2.828" r="2.662" style="fill:#f0f;fill-opacity:1;fill-rule:evenodd;stroke:#606;stroke-width:1.06491;stroke-linecap:round;stroke-linejoin:round;stroke-dasharray:none;stroke-opacity:1"/><circle cx="32.413" cy="11.878" r="2.662" style="fill:#f80;fill-opacity:1;fill-rule:evenodd;stroke:#630;stroke-width:1.06491;stroke-linecap:round;stroke-linejoin:round;stroke-dasharray:none;stroke-opacity:1"/><circle cx=".696" cy="31.465" r="2.662" style="fill:#5f0;fill-opacity:1;fill-rule:evenodd;stroke:#1e6600;stroke-width:1.06491;stroke-linecap:round;stroke-linejoin:round;stroke-dasharray:none;stroke-opacity:1"/><circle cx="77.829" cy="19.734" r="2.662" style="fill:red;fill-opacity:1;fill-rule:evenodd;stroke:#600;stroke-width:1.06491;stroke-linecap:round;stroke-linejoin:round;stroke-dasharray:none;stroke-opacity:1"/><circle cx="33.974" cy="64.957" r="2.935" style="fill:#ff0;fill-opacity:1;fill-rule:evenodd;stroke:#660;stroke-width:1.17392;stroke-linecap:round;stroke-linejoin:round;stroke-dasharray:none;stroke-opacity:1"/></g></svg>