<?xml version="1.0" encoding="UTF-8" standalone="no"?>
<svg
   version="1.1"
   viewBox="0 0 100.09064 83.722423"
   fill="none"
   stroke="none"
   stroke-linecap="square"
   stroke-miterlimit="10"
   id="svg54"
   sodipodi:docname="potted_plant_residue.svg"
   width="100.09064"
   height="83.72242"
   inkscape:version="1.3 (0e150ed, 2023-07-21)"
   xmlns:inkscape="http://www.inkscape.org/namespaces/inkscape"
   xmlns:sodipodi="http://sodipodi.sourceforge.net/DTD/sodipodi-0.dtd"
   xmlns="http://www.w3.org/2000/svg"
   xmlns:svg="http://www.w3.org/2000/svg">
  <defs
     id="defs1" />
  <sodipodi:namedview
     id="namedview54"
     pagecolor="#505050"
     bordercolor="#ffffff"
     borderopacity="1"
     inkscape:showpageshadow="0"
     inkscape:pageopacity="0"
     inkscape:pagecheckerboard="1"
     inkscape:deskcolor="#505050"
     inkscape:zoom="2.2083726"
     inkscape:cx="56.376356"
     inkscape:cy="-4.9810435"
     inkscape:window-width="1440"
     inkscape:window-height="847"
     inkscape:window-x="0"
     inkscape:window-y="25"
     inkscape:window-maximized="0"
     inkscape:current-layer="svg54" />
  <path
     fill="#4b2817"
     d="m 38.927166,66.914914 v 0 c 0,-4.24568 3.441799,-7.68748 7.687475,-7.68748 v 0 c 2.03885,0 3.994189,0.80993 5.435872,2.25161 1.441677,1.44168 2.251608,3.39702 2.251608,5.43587 v 0 c 0,4.24568 -3.441799,7.68747 -7.68748,7.68747 v 0 c -4.245674,0 -7.687475,-3.44179 -7.687475,-7.68747 z"
     fill-rule="evenodd"
     id="path3-72"
     clip-path="url(#clipPath106)"
     style="stroke-width:0.234916" />
  <path
     fill="#4b2817"
     d="m 45.528231,34.439204 v 0 c 0,-4.24568 3.441799,-7.68748 7.687482,-7.68748 v 0 c 2.038843,0 3.994183,0.80993 5.435865,2.25161 1.441685,1.44168 2.251608,3.39702 2.251608,5.43587 v 0 c 0,4.24568 -3.441799,7.68748 -7.687475,7.68748 v 0 c -4.245681,0 -7.68748,-3.4418 -7.68748,-7.68748 z"
     fill-rule="evenodd"
     id="path4-8"
     clip-path="url(#clipPath105)"
     style="stroke-width:0.234916" />
  <path
     fill="#4b2817"
     d="m 35.407745,49.558894 v 0 c 0,-7.47795 6.088574,-13.54002 13.599216,-13.54002 v 0 c 3.606731,0 7.065745,1.42653 9.616094,3.96578 2.55035,2.53924 3.983122,5.9832 3.983122,9.57424 v 0 c 0,7.47795 -6.08858,13.54003 -13.599216,13.54003 v 0 c -7.510642,0 -13.599216,-6.06208 -13.599216,-13.54003 z"
     fill-rule="evenodd"
     id="path5-0"
     clip-path="url(#clipPath104)"
     style="stroke-width:0.234916" />
  <path
     fill="#5c2f19"
     d="m 50.96487,57.374864 5.226463,-2.43992 4.751148,-3.83448 4.276508,-4.99658 18.411288,6.85545 -0.950303,4.76409 -4.632483,7.32041 -5.820444,6.85578 -3.325871,1.97529 -7.245717,-4.41553 0.356318,-2.90488 -1.781937,-2.67241 -5.345118,-3.25378 z"
     fill-rule="evenodd"
     id="path6-0"
     clip-path="url(#clipPath103)"
     style="stroke:#2e1a0f;stroke-width:2.5;stroke-dasharray:none;stroke-opacity:1" />
  <path
     fill="#5c2f19"
     d="m 33.934208,16.077474 0.733503,5.24666 3.823992,0.9656 3.30952,4.53396 3.619105,3.76349 5.530521,-3.12871 3.173554,-4.92424 -0.694609,-6.7587 -2.166385,-4.88255 -4.740304,2.68167 -7.052446,1.75464 z"
     fill-rule="evenodd"
     id="path20-8"
     clip-path="url(#clipPath89)"
     style="stroke:#2e1a0f;stroke-width:2.5;stroke-dasharray:none;stroke-opacity:1" />
  <path
     fill="#5c2f19"
     d="m 39.406501,72.378064 1.586708,-19.04051 -5.048315,-0.57721 -5.481435,-2.3076 -8.078057,19.1846 6.635441,1.87532 z"
     fill-rule="evenodd"
     id="path32-2"
     clip-path="url(#clipPath77)"
     style="stroke:#2e1a0f;stroke-width:2.5;stroke-dasharray:none;stroke-opacity:1" />
  <path
     fill="#4b2817"
     d="m 17.770571,31.001174 v 0 c 0,-4.24568 3.441801,-7.68748 7.687475,-7.68748 v 0 c 2.03885,0 3.994189,0.80993 5.435865,2.25161 1.441684,1.44168 2.251615,3.39702 2.251615,5.43587 v 0 c 0,4.24568 -3.441799,7.68748 -7.68748,7.68748 v 0 c -4.245674,0 -7.687475,-3.4418 -7.687475,-7.68748 z"
     fill-rule="evenodd"
     id="path43-5"
     clip-path="url(#clipPath66)"
     style="stroke-width:0.234916" />
  <path
     fill="#4b2817"
     d="m 13.056841,27.956514 v 0 c 0,-2.56416 2.020694,-4.64282 4.513342,-4.64282 v 0 c 1.197013,0 2.344999,0.48915 3.191414,1.35985 0.846418,0.8707 1.321932,2.05162 1.321932,3.28297 v 0 c 0,2.56416 -2.020696,4.64282 -4.513346,4.64282 v 0 c -2.492648,0 -4.513342,-2.07866 -4.513342,-4.64282 z"
     fill-rule="evenodd"
     id="path44-8"
     clip-path="url(#clipPath65)"
     style="stroke-width:0.234916" />
  <path
     fill="#4b2817"
     d="m 80.477955,34.544024 v 0 c 0,-2.56416 2.020693,-4.64282 4.513346,-4.64282 v 0 c 1.197001,0 2.344999,0.48915 3.191405,1.35985 0.846423,0.87069 1.321932,2.05162 1.321932,3.28297 v 0 c 0,2.56416 -2.0207,4.64282 -4.513337,4.64282 v 0 c -2.492653,0 -4.513346,-2.07866 -4.513346,-4.64282 z"
     fill-rule="evenodd"
     id="path45-0"
     clip-path="url(#clipPath64)"
     style="stroke-width:0.234916" />
  <path
     style="fill:none;stroke:#2e1a0f;stroke-width:2.5;stroke-linecap:round;stroke-linejoin:round;stroke-dasharray:none;stroke-opacity:1"
     d="M 61.655459,69.459374 C 67.599253,64.260194 75.0117,57.787594 77.799642,50.788294"
     id="path7-3" />
  <path
     style="fill:none;stroke:#2e1a0f;stroke-width:2.5;stroke-linecap:round;stroke-linejoin:round;stroke-dasharray:none;stroke-opacity:1"
     d="m 38.491703,22.289734 c 4.387723,-0.696 11.126269,-2.60391 14.938091,-6.5142"
     id="path9-2" />
  <path
     id="path2-8-7"
     style="fill:#0e5e09;fill-opacity:1;stroke:#073005;stroke-width:2.5;stroke-linecap:round;stroke-linejoin:round;stroke-dasharray:none;stroke-opacity:1"
     d="m 75.624552,20.5991 c -0.546334,2.585767 -0.165884,5.026054 -0.642505,7.654544 -1.710286,9.430495 -11.595673,13.168738 -19.058175,11.864407 -0.299878,-0.08646 -1.105429,-0.506776 -1.163119,-1.139067 -1.567346,-7.538601 1.723668,-17.734657 10.917546,-19.836348 2.562561,-0.58588 4.973325,-0.292643 7.491298,-0.947606 6.25178,-2.070169 4.272179,-4.02967 2.454955,2.40407 z"
     sodipodi:nodetypes="cccccsc" />
  <path
     id="path2-8-7-7"
     style="fill:#0e5e09;fill-opacity:1;stroke:#073005;stroke-width:2.5;stroke-linecap:round;stroke-linejoin:round;stroke-dasharray:none;stroke-opacity:1"
     d="m 26.763282,22.082809 c 0.294744,-2.012963 -0.112659,-3.869779 0.126711,-5.912231 0.859015,-7.3279223 8.244121,-10.6734692 14.015845,-10.0285006 0.233556,0.052081 0.869918,0.3364706 0.944196,0.8195383 1.558515,5.7173583 -0.47342,13.7091793 -7.407463,15.7641563 -1.932684,0.57284 -3.791135,0.462932 -5.686412,1.086718 -4.684549,1.889917 -3.076557,3.300762 -1.992877,-1.729681 z"
     sodipodi:nodetypes="cccccsc" />
  <path
     id="path2-8-7-7-7"
     style="fill:#0e5e09;fill-opacity:1;stroke:#073005;stroke-width:2.5;stroke-linecap:round;stroke-linejoin:round;stroke-dasharray:none;stroke-opacity:1"
     d="m 28.165015,40.999179 c 1.760529,1.34925 3.738014,1.944899 5.5554,3.256891 6.520321,4.707362 5.857784,13.537053 2.240733,18.708866 -0.171066,0.195506 -0.772654,0.652597 -1.270612,0.467338 -6.247169,-1.543581 -12.788292,-7.723601 -11.133433,-15.437862 0.461184,-2.150186 1.532892,-3.867325 1.926168,-6.008796 0.641078,-5.477703 -1.537211,-4.689849 2.681744,-0.986437 z"
     sodipodi:nodetypes="cccccsc" />
  <path
     id="path2-8-7-7-7-0"
     style="fill:#0e5e09;fill-opacity:1;stroke:#073005;stroke-width:2.5;stroke-linecap:round;stroke-linejoin:round;stroke-dasharray:none;stroke-opacity:1"
     d="m 65.641736,71.693142 c -2.211052,-0.176588 -4.194931,0.397407 -6.433485,0.282985 -8.031508,-0.410744 -12.271272,-8.184212 -12.043505,-14.491258 0.03744,-0.257069 0.294265,-0.967618 0.812988,-1.082548 6.083687,-2.097266 14.932568,-0.461346 17.733286,6.914584 0.780701,2.055845 0.813576,4.079713 1.64656,6.091355 2.437074,4.947412 3.838071,3.102726 -1.715844,2.284882 z"
     sodipodi:nodetypes="cccccsc" />
  <path
     id="path2-8-7-4"
     style="fill:#0e5e09;fill-opacity:1;stroke:#073005;stroke-width:2.5;stroke-linecap:round;stroke-linejoin:round;stroke-dasharray:none;stroke-opacity:1"
     d="m 78.241747,56.812258 c -1.84525,-0.188733 -3.520525,0.253016 -5.390449,0.115635 -6.708934,-0.493083 -10.048163,-7.058051 -9.688694,-12.315896 0.03821,-0.213776 0.272122,-0.801796 0.709213,-0.887971 5.14636,-1.635879 12.506379,-0.1053 14.652208,6.101047 0.598156,1.729856 0.571465,3.41903 1.214551,5.112986 1.906603,4.17337 3.128211,2.660541 -1.496829,1.874199 z"
     sodipodi:nodetypes="cccccsc" />
  <path
     id="path2-9-5-5-3"
     style="fill:#a50e0e;fill-opacity:1;stroke:#4b0707;stroke-width:2.5;stroke-linecap:round;stroke-linejoin:round;stroke-dasharray:none;stroke-opacity:1"
     d="m 55.245928,57.931733 c 0.545546,-1.985134 1.663933,-3.561641 2.27111,-5.553679 2.179596,-7.146408 -3.154394,-13.02835 -8.638485,-14.589508 -0.232393,-0.03903 -0.923089,-0.01249 -1.185261,0.409575 -3.717709,4.740976 -5.103611,12.945044 0.342928,17.456061 1.518072,1.257392 3.244429,1.851163 4.708047,3.142018 3.477184,3.514727 1.452497,4.226415 2.501676,-0.864465 z"
     sodipodi:nodetypes="cccccsc" />
  <path
     id="path2-9-5-5-3-4"
     style="fill:#a50e0e;fill-opacity:1;stroke:#4b0707;stroke-width:2.5;stroke-linecap:round;stroke-linejoin:round;stroke-dasharray:none;stroke-opacity:1"
     d="m 32.878731,29.290939 c 1.528036,1.379668 2.433556,3.087356 3.940055,4.52518 5.403933,5.159389 13.055819,3.038698 16.915538,-1.158329 0.139328,-0.190046 0.426099,-0.818957 0.16693,-1.242872 -2.563822,-5.452067 -9.269312,-10.377903 -15.74718,-7.540425 -1.80559,0.790837 -3.112012,2.066037 -4.923015,2.793189 -4.702656,1.526154 -4.428261,-0.602359 -0.352337,2.623269 z"
     sodipodi:nodetypes="cccccsc" />
</svg>
