<?xml version="1.0" encoding="UTF-8" standalone="no"?>
<!-- Created with Inkscape (http://www.inkscape.org/) -->

<svg
   width="69"
   height="113.6181"
   viewBox="0 0 18.256249 30.061456"
   version="1.1"
   id="svg1"
   inkscape:export-filename="bridgebase.svg"
   inkscape:export-xdpi="96"
   inkscape:export-ydpi="96"
   sodipodi:docname="aaaa.svg"
   xml:space="preserve"
   inkscape:version="1.3.2 (091e20e, 2023-11-25)"
   xmlns:inkscape="http://www.inkscape.org/namespaces/inkscape"
   xmlns:sodipodi="http://sodipodi.sourceforge.net/DTD/sodipodi-0.dtd"
   xmlns="http://www.w3.org/2000/svg"
   xmlns:svg="http://www.w3.org/2000/svg"><sodipodi:namedview
     id="namedview1"
     pagecolor="#ffffff"
     bordercolor="#000000"
     borderopacity="0.25"
     inkscape:showpageshadow="2"
     inkscape:pageopacity="0.0"
     inkscape:pagecheckerboard="0"
     inkscape:deskcolor="#d1d1d1"
     inkscape:document-units="px"
     inkscape:zoom="0.41613561"
     inkscape:cx="210.26799"
     inkscape:cy="569.52588"
     inkscape:window-width="1312"
     inkscape:window-height="449"
     inkscape:window-x="0"
     inkscape:window-y="25"
     inkscape:window-maximized="0"
     inkscape:current-layer="layer1" /><defs
     id="defs1" /><g
     inkscape:label="Layer 1"
     inkscape:groupmode="layer"
     id="layer1"
     transform="translate(-7.3762928,-169.81874)"><path
       d="m 14.324634,185.70934 -0.872106,-7.39685 5.31876,-7.72235 -1.178952,10.83034 2.951389,12.21978 -2.446985,5.46847 z"
       fill="#6d4a2c"
       stroke="#1b1917"
       stroke-width="1.54323"
       stroke-miterlimit="16"
       stroke-linejoin="round"
       id="path4"
       style="fill:#a46028;fill-opacity:1;stroke:#251609;stroke-opacity:1"
       sodipodi:nodetypes="ccccccc"
       inkscape:export-filename="../Code/suroi-dev/client/public/img/game/shared/particles/loot_tree_particle.svg"
       inkscape:export-xdpi="96"
       inkscape:export-ydpi="96" /><path
       d="m 25.631966,186.20399 c -1.336524,-1.94958 -5.642064,-4.77559 -6.592716,-1.76585 -0.681539,3.08185 4.460009,2.7874 6.592415,1.76735 l 8.77e-4,3e-4 c 0,-5.8e-4 -5.82e-4,-0.002 -5.82e-4,-0.002 z"
       fill="#5f926a"
       id="path46"
       style="fill:#588a42;fill-opacity:0.898039;stroke-width:0.301696" /><path
       d="m 23.477537,176.74875 -0.0012,0.002 c -2.905972,1.01823 -7.912963,5.4713 -4.437395,7.68728 3.65689,1.90191 5.009706,-4.66064 4.438893,-7.68638 l 0.0012,-0.002 c -2.91e-4,2.9e-4 -8.73e-4,5.8e-4 -0.0012,5.8e-4 0,-5.8e-4 -2.92e-4,-8.7e-4 -2.92e-4,-0.002 z"
       fill="#587e60"
       id="path48"
       style="fill:#609648;fill-opacity:0.898039;stroke-width:0.301696" /><path
       d="m 11.708935,181.66956 c 1.91869,-1.31535 4.699926,-5.55268 1.737868,-6.48827 -3.033027,-0.67074 -2.743235,4.38935 -1.739351,6.48797 l -2.91e-4,8.7e-4 c 5.82e-4,0 0.0015,-5.8e-4 0.0017,-5.8e-4 z"
       fill="#5f926a"
       id="path46-6"
       style="fill:#588a42;fill-opacity:0.898039;stroke-width:0.296918" /><path
       d="m 7.3763146,171.50548 0.00208,0.001 c 1.0020991,2.85992 5.3846224,7.78758 7.5654914,4.36708 1.871774,-3.59896 -4.586803,-4.93034 -7.5646016,-4.36857 l -0.00208,-0.001 c 2.881e-4,2.8e-4 5.787e-4,8.6e-4 5.787e-4,0.001 -5.787e-4,0 -8.668e-4,2.9e-4 -0.00149,2.9e-4 z"
       fill="#587e60"
       id="path48-7"
       style="fill:#609648;fill-opacity:0.898039;stroke-width:0.296918" /><path
       d="m 17.621265,179.14967 2.91e-4,0.001 c -0.873114,1.72449 -1.166967,5.8638 1.417383,5.28725 2.526726,-0.79286 0.202439,-4.23072 -1.416173,-5.28787 l -2.92e-4,-8.7e-4 c 2.92e-4,-2.9e-4 0,0 0,0 -2.91e-4,-2.9e-4 -8.73e-4,5.8e-4 -0.0012,2.9e-4 z"
       fill="#77a37a"
       id="path50"
       style="fill:#588a42;fill-opacity:0.898039;stroke-width:0.301696" /></g></svg>
