<svg xmlns="http://www.w3.org/2000/svg" width="69" height="113.618" fill="none"><path fill="#6d4a2c" stroke="#1b1917" stroke-linejoin="round" stroke-miterlimit="16" stroke-width="5.833" d="m26.261 60.059-3.296-27.957L43.068 2.916l-4.456 40.933 11.155 46.185-9.249 20.668Z" style="stroke:#312114;stroke-opacity:1"/><path fill="#5f926a" d="M68.998 61.928C63.946 54.56 47.673 43.88 44.08 55.254c-2.575 11.648 16.857 10.535 24.917 6.68l.003.001z" style="fill:#588a42;fill-opacity:.898039;stroke-width:1.14027"/><path fill="#587e60" d="m60.855 26.192-.004.008C49.867 30.05 30.943 46.88 44.079 55.254c13.822 7.189 18.935-17.615 16.777-29.05l.005-.008-.005.002z" style="fill:#609648;fill-opacity:.898039;stroke-width:1.14027"/><path fill="#5f926a" d="M16.375 44.79c7.252-4.97 17.764-20.986 6.569-24.522-11.464-2.535-10.368 16.59-6.574 24.521l-.001.004z" style="fill:#588a42;fill-opacity:.898039;stroke-width:1.12221"/><path fill="#587e60" d="m0 6.375.008.004c3.787 10.81 20.351 29.434 28.594 16.506C35.676 9.283 11.266 4.251.012 6.374l-.009-.005.003.005z" style="fill:#609648;fill-opacity:.898039;stroke-width:1.12221"/><path fill="#77a37a" d="m38.721 35.267.001.004c-3.3 6.518-4.41 22.162 5.357 19.983 9.55-2.996.765-15.99-5.352-19.985l-.001-.004q-.002.002-.005.001z" style="fill:#588a42;fill-opacity:.898039;stroke-width:1.14027"/></svg>