<?xml version="1.0" encoding="UTF-8" standalone="no"?>
<!-- Created with Inkscape (http://www.inkscape.org/) -->

<svg
   width="40.820354"
   height="37.228455"
   viewBox="0 0 10.800386 9.850029"
   version="1.1"
   id="svg5"
   sodipodi:docname="stone_particle_2.svg"
   inkscape:version="1.3.2 (1:1.3.2+202311252150+091e20ef0f)"
   inkscape:export-filename="rock_particle_2.svg"
   inkscape:export-xdpi="96"
   inkscape:export-ydpi="96"
   xmlns:inkscape="http://www.inkscape.org/namespaces/inkscape"
   xmlns:sodipodi="http://sodipodi.sourceforge.net/DTD/sodipodi-0.dtd"
   xmlns="http://www.w3.org/2000/svg"
   xmlns:svg="http://www.w3.org/2000/svg"
   xmlns:rdf="http://www.w3.org/1999/02/22-rdf-syntax-ns#"
   xmlns:cc="http://creativecommons.org/ns#"
   xmlns:dc="http://purl.org/dc/elements/1.1/">
  <sodipodi:namedview
     id="namedview12"
     pagecolor="#505050"
     bordercolor="#ffffff"
     borderopacity="1"
     inkscape:pageshadow="0"
     inkscape:pageopacity="0"
     inkscape:pagecheckerboard="1"
     inkscape:document-units="px"
     showgrid="false"
     units="px"
     inkscape:zoom="12.317799"
     inkscape:cx="7.0223584"
     inkscape:cy="18.712758"
     inkscape:window-width="2560"
     inkscape:window-height="1368"
     inkscape:window-x="0"
     inkscape:window-y="0"
     inkscape:window-maximized="1"
     inkscape:current-layer="g3335"
     inkscape:showpageshadow="2"
     inkscape:deskcolor="#505050" />
  <defs
     id="defs2" />
  <g
     id="layer1"
     transform="matrix(1.75,0,0,1.75,-227.95163,-359.10161)">
    <g
       id="g3335"
       transform="translate(-0.26415541,-0.25629137)">
      <path
         id="path10556"
         style="opacity:1;fill:#e6e6e6;fill-opacity:1;stroke:#333333;stroke-width:0;stroke-linejoin:round"
         d="m 136.35292,208.5403 c 0,1.51443 -1.4783,1.37713 -2.74213,2.09054 -1.40166,0.55133 -2.66639,-0.95964 -2.74212,-2.09054 -0.1012,-1.51106 1.22768,-2.74213 2.74212,-2.74213 1.51444,0 2.74213,1.22769 2.74213,2.74213 z"
         sodipodi:nodetypes="scscs" />
      <path
         id="path10556-45"
         style="fill:#cccccc;stroke:#333333;stroke-width:0;stroke-linejoin:round;fill-opacity:1"
         d="m 136.35292,208.5403 c 0,1.51443 -0.15223,0.58774 -1.37177,1.5337 -1.40166,0.55133 0.27505,-0.82354 0.19931,-1.95445 -0.10118,-1.51105 -2.08763,-2.32138 -0.57319,-2.32138 1.01328,0.8766 1.74565,1.22769 1.74565,2.74213 z"
         sodipodi:nodetypes="scscs" />
      <path
         id="path10556-4"
         style="fill:#ffffff;fill-opacity:1;stroke:#333333;stroke-width:0;stroke-linejoin:round"
         d="m 131.93729,208.56742 c 0,1.51443 0.94644,2.20556 0.18359,2.04071 -0.45398,-0.28626 -0.84473,-0.93929 -1.25221,-2.06783 0.25612,-1.24824 0.2012,-1.30447 1.07095,-2.17422 1.67117,-0.56791 -0.002,0.68691 -0.002,2.20134 z"
         sodipodi:nodetypes="scccss" />
      <path
         id="path10556-7"
         style="fill:#9a9a9a;fill-opacity:0;stroke:#595959;stroke-width:0.681914;stroke-linejoin:round;stroke-dasharray:none;stroke-opacity:1"
         d="m 136.35292,208.5403 c 0,1.51443 -1.4783,1.37713 -2.74213,2.09054 -1.40166,0.55133 -2.66639,-0.95964 -2.74212,-2.09054 -0.1012,-1.51106 1.22768,-2.74213 2.74212,-2.74213 1.51444,0 2.74213,1.22769 2.74213,2.74213 z"
         sodipodi:nodetypes="scscs" />
    </g>
  </g>
  <metadata
     id="metadata9389">
    <rdf:RDF>
      <cc:Work
         rdf:about="">
        <dc:creator>
          <cc:Agent>
            <dc:title>Radians</dc:title>
          </cc:Agent>
        </dc:creator>
      </cc:Work>
    </rdf:RDF>
  </metadata>
</svg>
