<svg xmlns="http://www.w3.org/2000/svg" width="84" height="84" viewBox="0 0 22.225 22.225"><path d="m36.182 80.738-34.57 36.826 8.859 7.965 36.082-34.422Zm.115 7.186 3.1 3.1-29.026 27.693-1.617-1.453z" style="fill:#22190d;paint-order:stroke fill markers" transform="translate(.587 1.148)scale(.15973)"/><path d="M5.182 117.414 36.24 84.33l6.735 6.735-32.553 31.057z" style="fill:#553e1e;paint-order:stroke fill markers" transform="translate(.587 1.148)scale(.15973)"/><path d="M29.848 76.713c-1.102-.08-2.375.352-3.162 1.148-.788.796-1.113 1.744-1.256 2.621-.287 1.756.065 3.503.763 5.252.698 1.75 1.79 3.478 3.393 4.817.275.23 2.318 2.29 3.97 4.039a422 422 0 0 1 3.14 3.361l.034.037.036.035s-.145-.172-.047-.029c.098.144.302.466.6 1.04.553 1.068 1.498 3.274 2.675 6.566-.007.072.007.116-.088.293-.285.534-.863 1.373-1.623 2.316-1.52 1.886-3.764 4.237-6.05 6.486-4.133 4.064-7.635 7.098-8.422 7.785l-12.141-2.644-2.1-2.1-2.62-2.619-2.087-2.088-5.855 8.2-.653 7.72 7.721-.65 2.06-1.473c3.448 1.357 6.414 2.756 9.292 3.764 3.178 1.113 6.546 1.691 10.459 1.098 1.37-.043 1.792-.471 2.547-.909.79-.458 1.676-1.058 2.66-1.785 1.967-1.454 4.312-3.412 6.627-5.59s4.592-4.564 6.408-6.918 3.263-4.568 3.603-7.107c.803-5.983-.128-10.824-1.363-14.188-.617-1.682-1.305-2.993-1.918-3.943a9.4 9.4 0 0 0-.885-1.19 4 4 0 0 0-.535-.513c-.026-.02-.084-.05-.113-.072L37.645 82.2l-.012-.012a36 36 0 0 0-1.701-1.845c-2.18-2.182-3.88-3.472-6.084-3.631m.72 5.687c.5.333 1.075.725 1.827 1.477q.72.72 1.574 1.71l.062.071 8.008 8.008c.073.098.11.135.211.291.393.609.935 1.619 1.426 2.957.659 1.796 1.05 4.386 1.152 7.313-1.313-3.726-2.345-6.095-3.07-7.495-.373-.719-.672-1.21-.908-1.556-.237-.347-.55-.688-.55-.688l.071.073s-1.502-1.629-3.18-3.405c-1.677-1.776-3.308-3.529-4.4-4.441-.79-.66-1.517-1.74-1.953-2.834-.25-.624-.208-.981-.27-1.48m14.227 24.77c-.042.551.06.964-.018 1.545-.098.733-1.032 2.675-2.607 4.717s-3.7 4.286-5.875 6.332-4.408 3.903-6.174 5.209c-.883.652-1.656 1.168-2.195 1.48-.54.312-1.178.265-.197.264h-.204l-.199.033c-.295.049-.517-.009-.799.023.328-.284 4.661-4.038 9.211-8.513 2.36-2.32 4.692-4.747 6.438-6.912.873-1.083 1.6-2.09 2.14-3.1.178-.333.325-.71.479-1.078M5.5 120.738l.533.533.531.532-2.277 1.629-.451.039.037-.453z" style="fill:#555000;paint-order:stroke fill markers" transform="translate(.587 1.148)scale(.15973)"/><path d="M34.163 82.11c-7.959-7.965-7.759 2.525-2.975 6.523 1.367 1.143 7.346 7.622 7.346 7.622s1.339 1.34 4.018 9.003c1.163 3.328-18.004 19.943-18.004 19.943l-14.127-3.078-2.62-2.62-2.619-2.619-3.741 5.239-.345 4.086 4.086-.344 2.62-1.871c8.47 3.15 12.757 6.406 19.93 5.222 2.247-.003 18.645-13.625 19.523-20.17 1.49-11.112-3.474-17.667-3.906-17.606l-7.484-7.483a34 34 0 0 0-1.702-1.847" style="fill:#e2c53c;paint-order:stroke fill markers" transform="translate(.587 1.148)scale(.15973)"/><path d="m122.049-6.547-14.442 16.43L31.061 86.43l9.668 9.668 77.173-77.172Zm-7.73 16.367-1.092 6.71-72.498 72.497-2.598-2.597 73.125-73.125z" style="fill:#3f3f3f;paint-order:stroke markers fill" transform="translate(.587 1.148)scale(.15973)"/><path d="m40.73 92.563 74.835-74.836 2.62-16.09-8.753 9.958L34.596 86.43Z" style="fill:#bbb;paint-order:stroke markers fill" transform="translate(.587 1.148)scale(.15973)"/><path d="M95.61 80.102 85.24 90.47l36.08 34.422 8.862-7.965zm-.114 7.183 27.543 29.338-1.617 1.455-29.027-27.691z" style="fill:#22190d;paint-order:stroke fill markers" transform="translate(.587 1.148)scale(.15973)"/><path d="M126.61 116.776 95.553 83.693l-6.735 6.735 32.553 31.057z" style="fill:#553e1e;paint-order:stroke fill markers" transform="translate(.587 1.148)scale(.15973)"/><path d="M101.943 76.074c-2.204.16-3.904 1.45-6.084 3.631a36 36 0 0 0-1.714 1.861l-7.266 7.266c-.03.023-.092.054-.12.076-.24.19-.383.345-.532.512a9.4 9.4 0 0 0-.887 1.19c-.613.95-1.3 2.26-1.918 3.943-1.235 3.364-2.166 8.204-1.363 14.187.34 2.54 1.787 4.754 3.603 7.108s4.095 4.742 6.41 6.92 4.66 4.133 6.627 5.587c.984.728 1.867 1.327 2.658 1.786.755.437 1.178.867 2.55.91 3.912.594 7.28.013 10.458-1.1 2.878-1.007 5.842-2.407 9.29-3.764l2.06 1.473 7.72.65-.65-7.72-5.857-8.197-4.705 4.705-2.1 2.101-12.14 2.643c-.787-.687-4.292-3.721-8.424-7.785-2.287-2.25-4.529-4.601-6.05-6.487-.76-.943-1.339-1.781-1.624-2.316-.096-.179-.081-.223-.088-.295 1.177-3.29 2.124-5.496 2.678-6.564.297-.574.5-.896.597-1.04.098-.143-.047.03-.047.03l.038-.035.033-.038s1.487-1.611 3.14-3.36c1.653-1.75 3.696-3.808 3.971-4.038 1.602-1.339 2.693-3.07 3.39-4.818.699-1.75 1.05-3.497.764-5.252-.143-.878-.468-1.825-1.256-2.621-.787-.796-2.06-1.229-3.162-1.149m-.718 5.686c-.062.5-.02.857-.27 1.482-.436 1.094-1.165 2.174-1.955 2.834-1.092.913-2.72 2.666-4.398 4.442-1.642 1.737-3.05 3.264-3.112 3.332 0 0-.312.34-.549.687-.236.347-.535.84-.908 1.559-.725 1.4-1.755 3.767-3.068 7.492.102-2.927.491-5.515 1.15-7.31.491-1.339 1.033-2.349 1.426-2.958.1-.156.14-.194.213-.293l8.008-8.007.06-.07a31 31 0 0 1 1.574-1.71 10.8 10.8 0 0 1 1.829-1.48m-14.227 24.777c.154.366.3.741.477 1.072.54 1.011 1.27 2.017 2.142 3.1 1.746 2.166 4.076 4.592 6.436 6.912 4.55 4.475 8.885 8.23 9.213 8.514-.282-.033-.504.025-.8-.024l-.2-.033h-.204c.981.001.342.05-.197-.262s-1.312-.83-2.195-1.482c-1.766-1.305-3.997-3.163-6.172-5.209s-4.301-4.29-5.877-6.332-2.507-3.984-2.605-4.717c-.078-.579.024-.99-.018-1.539m39.293 13.563 1.627 2.279.04.453-.454-.04-2.28-1.626.534-.533z" style="fill:#555000;paint-order:stroke fill markers" transform="translate(.587 1.148)scale(.15973)"/><path d="M97.629 81.472c7.959-7.966 7.759 2.525 2.975 6.523-1.367 1.142-7.346 7.622-7.346 7.622s-1.339 1.34-4.018 9.003c-1.163 3.328 18.004 19.943 18.004 19.943l14.127-3.078 2.62-2.62 2.619-2.619 3.741 5.239.345 4.086-4.086-.344-2.62-1.871c-8.47 3.15-12.757 6.406-19.93 5.222-2.247-.003-18.645-13.625-19.523-20.17-1.49-11.112 3.474-17.668 3.906-17.606l7.484-7.483a34 34 0 0 1 1.702-1.847" style="fill:#e2c53c;paint-order:stroke fill markers" transform="translate(.587 1.148)scale(.15973)"/><path d="m9.742-7.184 4.147 25.471 77.174 77.174 9.667-9.67L24.184 9.246Zm7.73 16.368 3.063 3.484L93.66 85.793l-2.597 2.596-72.499-72.496Z" style="fill:#3f3f3f;paint-order:stroke markers fill" transform="translate(.587 1.148)scale(.15973)"/><path d="M91.063 91.925 16.227 17.089 13.607 1l8.753 9.958 74.836 74.835z" style="fill:#bbb;paint-order:stroke markers fill" transform="translate(.587 1.148)scale(.15973)"/></svg>