<svg xmlns="http://www.w3.org/2000/svg" width="84" height="84"><g stroke-miterlimit="10" data-paper-data="{&quot;isPaintingLayer&quot;:true}" style="mix-blend-mode:normal"><path fill="#f17a23" stroke="#bd5f1c" stroke-width="3.996335" d="M3.935 43.936c0-2.652-.037-6.317.897-9.638 1.245-4.422 3.978-8.235 3.978-8.235S2.56 49.086 20.868 42.927c7.057-2.374 3.317-14.404 2.398-23.422-.542-5.318 2.945-9.788 2.945-9.788s.04 4.414 1.915 8.884c1.482 3.535 5.472 11.31 11.736 10.365 15.531-2.34 14.047-20.768 14.047-20.768s6.955 11.387 6.781 22.477c-.166 10.594-6.062 14.072 1.718 19.8 11.934 8.788 16.316-16.594 16.316-16.594s1.342 6.575 1.342 10.055c0 21.023-17.042 38.066-38.066 38.066-21.023 0-38.065-17.043-38.065-38.066z"/><path fill="#fdd93c" d="M42 79.863c-6.614 0-12.83-1.838-18.232-4.952a39.9 39.9 0 0 1-11.2-9.652c-.18-.224-.733-3.06.054-5.016.813-2.02 2.97-4.01 2.97-4.01s-.14 2.071 1.038 3.751c.951 1.357 2.332 3.03 3.62 2.009 1.29-1.02 2.886-3.896 2.401-6.775-.67-3.982-2.183-9.067-2.183-9.067s5.422 3.104 8.31 7.168c3.319 5.78 1.06 8.94 5.639 8.563 2.404-.28 2.663-6.415 5.112-11.395 3.287-6.684 8.462-12.657 8.462-12.657s-5.56 23.855 3.814 24.189c3.618.128 7.554.152 8.915-1.571 2.662-3.373.303-7.666.303-7.666s3.69 1.157 6.28 4.677c2.548 3.46 4.003 7.994 3.155 8.973 0 0-3.613 4.46-8.621 7.43-5.885 3.49-13.696 6.001-19.836 6.001"/></g></svg>