<svg xmlns="http://www.w3.org/2000/svg" xml:space="preserve" width="84" height="84"><path fill="#f3be3a" stroke="#b76b00" stroke-width="3.254" d="M1.627 42C1.627 19.703 19.703 1.627 42 1.627S82.373 19.703 82.373 42 64.297 82.373 42 82.373 1.627 64.297 1.627 42Z" style="mix-blend-mode:normal;fill:#36ffce;fill-opacity:1;fill-rule:nonzero;stroke:#007c5d;stroke-linejoin:miter;stroke-miterlimit:10;stroke-dasharray:none;stroke-dashoffset:0;stroke-opacity:1;stroke-width:3.254"/><path d="M63.614 55.61c0 11.938-9.677 18.677-21.614 18.677s-21.614-6.74-21.614-18.677c0-3.687 11.144 2.116 21.873 2.128 10.884.012 21.355-6.089 21.355-2.128" data-paper-data="{&quot;index&quot;:null}" style="mix-blend-mode:normal;fill:#00543f;fill-opacity:1;fill-rule:nonzero;stroke-linejoin:miter;stroke-miterlimit:10;stroke-dasharray:none;stroke-dashoffset:0"/><path fill="#fff" d="M59.576 57.769c-.197 3.977-7.978 9.313-17.82 9.313s-18.019-5.731-17.821-9.313c.101-1.836 9.188 2.043 18.034 2.049 8.974.006 17.705-4.022 17.607-2.05" data-paper-data="{&quot;index&quot;:null}" style="mix-blend-mode:normal;fill-rule:nonzero;stroke-linejoin:miter;stroke-miterlimit:10;stroke-dasharray:none;stroke-dashoffset:0;fill:#7fffe0;fill-opacity:1"/><path fill="none" stroke="#000" stroke-linecap="round" stroke-width="4.556" d="M21.044 42.981s1.496-.899 3.43-1.467c1.294-.38 2.784-.513 4.154-.495 1.278.018 2.657.118 3.885.459a18 18 0 0 1 3.69 1.503M47.796 42.981s1.522-.911 3.48-1.481c1.282-.374 2.752-.499 4.104-.48 1.502.02 3.144.222 4.515.642a15.5 15.5 0 0 1 3.061 1.32" style="mix-blend-mode:normal;fill-rule:nonzero;stroke:#007c5d;stroke-linejoin:miter;stroke-miterlimit:10;stroke-dasharray:none;stroke-dashoffset:0;stroke-opacity:1"/><path d="M66.535 1.023a2.35 2.35 0 0 0-1.771.311 2.4 2.4 0 0 0-.428.61 2 2 0 0 0-.25.046s-5.834 8.457-8.982 17.178c-1.575 4.36-2.633 8.833-1.442 12.824.596 1.996 1.897 3.85 3.854 5.02s4.435 1.683 7.45 1.623c6.033-.121 10.087-2.928 11.516-6.887 1.43-3.96.692-8.459-.6-12.783-2.581-8.649-7.876-16.908-7.876-16.908l-.008-.006a2.35 2.35 0 0 0-.648-.672 2 2 0 0 0-.245.045 2.4 2.4 0 0 0-.57-.4m-.601 6.903c1.665 2.955 3.92 7.261 5.449 12.383 1.153 3.864 1.499 7.582.681 9.845-.817 2.264-2.343 3.688-7.191 3.785-2.424.05-3.99-.386-4.947-.959-.958-.572-1.443-1.257-1.764-2.332-.642-2.15-.064-5.948 1.358-9.884 1.929-5.343 4.557-9.845 6.414-12.838" style="fill:#0058e3;stroke-linecap:round;paint-order:stroke fill markers"/><path d="M66.023 3.316S43.159 36.725 64.92 36.287c21.762-.437 1.103-32.971 1.103-32.971" style="fill:#3479ff;stroke-linecap:round;paint-order:stroke fill markers"/></svg>