<svg xmlns="http://www.w3.org/2000/svg" width="183" height="126.807" viewBox="0 0 48.419 33.551"><path d="M67.616 155.73H81.93v14.545H67.616z" style="fill:#84612e;fill-opacity:1;stroke:none;stroke-width:.50270832;stroke-linecap:round;stroke-linejoin:miter;stroke-dasharray:none" transform="translate(-66.013 -154.12)"/><g stroke="#353535"><path fill="#939393" stroke-width="1.02606436" d="M13.697 9.268c0 2.62-2.21 4.745-4.937 4.745S3.822 11.89 3.822 9.268s2.21-4.746 4.938-4.746 4.937 2.125 4.937 4.746z"/><path fill="#565656" stroke-linecap="square" stroke-linejoin="round" stroke-width=".96239956" d="M10.363 5.035H7.156v6.67h3.207V9.377z"/><path fill="#565656" stroke-linecap="square" stroke-linejoin="round" stroke-width=".7692829999999999" d="M10.062 3.624H7.37v1.411h2.693v-.492z"/></g><path d="M67.616 171.516H81.93v14.545H67.616zM83.066 155.73H97.38v14.545H83.066zM83.066 171.516H97.38v14.545H83.066zM98.516 155.73h14.314v14.545H98.516zM98.516 171.516h14.314v14.545H98.516z" style="fill:#84612e;fill-opacity:1;stroke:none;stroke-width:.50270832;stroke-linecap:round;stroke-linejoin:miter;stroke-dasharray:none" transform="translate(-66.013 -154.12)"/><path d="M67.616 170.895h45.214" style="fill:none;fill-opacity:1;stroke:#2e1a0f;stroke-width:1.85208329;stroke-linecap:square;stroke-linejoin:miter;stroke-dasharray:none" transform="translate(-66.013 -154.12)"/><path d="M82.498 185.859v-29.927" style="fill:none;fill-opacity:1;stroke:#2e1a0f;stroke-width:1.85208;stroke-linecap:square;stroke-linejoin:miter;stroke-dasharray:none" transform="translate(-66.013 -154.12)"/><path d="M97.948 186.393v-30.258" style="fill:none;fill-opacity:1;stroke:#2e1a0f;stroke-width:1.85208329;stroke-linecap:square;stroke-linejoin:miter;stroke-dasharray:none" transform="translate(-66.013 -154.12)"/><g stroke="#353535"><path fill="#939393" stroke-width="1.02606436" d="M29.147 9.268c0 2.62-2.21 4.745-4.938 4.745s-4.938-2.124-4.938-4.745 2.211-4.746 4.938-4.746c2.728 0 4.938 2.125 4.938 4.746z"/><path fill="#565656" stroke-linecap="square" stroke-linejoin="round" stroke-width=".96239956" d="M25.813 5.035h-3.207v6.67h3.207V9.377z"/><path fill="#565656" stroke-linecap="square" stroke-linejoin="round" stroke-width=".7692829999999999" d="M25.512 3.624H22.82v1.411h2.693v-.492z"/></g><g stroke="#353535"><path fill="#939393" stroke-width="1.02606436" d="M44.597 9.268c0 2.62-2.21 4.745-4.938 4.745s-4.938-2.124-4.938-4.745 2.211-4.746 4.938-4.746 4.938 2.125 4.938 4.746z"/><path fill="#565656" stroke-linecap="square" stroke-linejoin="round" stroke-width=".96239956" d="M41.263 5.035h-3.207v6.67h3.207V9.377z"/><path fill="#565656" stroke-linecap="square" stroke-linejoin="round" stroke-width=".7692829999999999" d="M40.962 3.624H38.27v1.411h2.693v-.492z"/></g><g stroke="#353535"><path fill="#939393" stroke-width="1.02606436" d="M44.597 25.053c0 2.62-2.21 4.746-4.938 4.746s-4.938-2.125-4.938-4.746c0-2.62 2.211-4.746 4.938-4.746s4.938 2.125 4.938 4.746z"/><path fill="#565656" stroke-linecap="square" stroke-linejoin="round" stroke-width=".96239956" d="M41.263 20.82h-3.207v6.67h3.207v-2.328z"/><path fill="#565656" stroke-linecap="square" stroke-linejoin="round" stroke-width=".7692829999999999" d="M40.962 19.41H38.27v1.41h2.693v-.492z"/></g><g stroke="#353535"><path fill="#939393" stroke-width="1.02606436" d="M29.147 25.053c0 2.62-2.21 4.746-4.938 4.746s-4.938-2.125-4.938-4.746c0-2.62 2.211-4.746 4.938-4.746 2.728 0 4.938 2.125 4.938 4.746z"/><path fill="#565656" stroke-linecap="square" stroke-linejoin="round" stroke-width=".96239956" d="M25.813 20.82h-3.207v6.67h3.207v-2.328z"/><path fill="#565656" stroke-linecap="square" stroke-linejoin="round" stroke-width=".7692829999999999" d="M25.512 19.41H22.82v1.41h2.693v-.492z"/></g><g stroke="#353535"><path fill="#939393" stroke-width="1.02606436" d="M13.697 25.053c0 2.62-2.21 4.746-4.937 4.746s-4.938-2.125-4.938-4.746c0-2.62 2.21-4.746 4.938-4.746s4.937 2.125 4.937 4.746z"/><path fill="#565656" stroke-linecap="square" stroke-linejoin="round" stroke-width=".96239956" d="M10.363 20.82H7.156v6.67h3.207v-2.328z"/><path fill="#565656" stroke-linecap="square" stroke-linejoin="round" stroke-width=".7692829999999999" d="M10.062 19.41H7.37v1.41h2.693v-.492z"/></g><path d="M66.94 155.046h46.567v31.699H66.94z" style="fill:none;fill-opacity:1;stroke:#2e1a0f;stroke-width:1.85208;stroke-linecap:round;stroke-linejoin:round;stroke-dasharray:none" transform="translate(-66.013 -154.12)"/><path d="m86.487 186.785-19.547-.04v-15.85c1.014.7 2.71 1.013 3.384 2.135.562.937-.082 2.107.646 3.017.9 1.125 2.738 1.155 3.61 2.317.936 1.249.009 3.007 2.101 4.203 4.067 2.324 7.298.27 9.806 4.218" style="fill:#c9d1d9;stroke-width:1.85208329;stroke-linecap:round;stroke:#a2a5c0;stroke-opacity:1;stroke-dasharray:none;stroke-linejoin:round" transform="translate(-66.013 -154.12)"/><path d="M109.92 172.34c-2.098-1.99-4.885-3.424-8.58-3.963-7.772-1.136-2.895 3.01-5.03 5.773-1.1 1.424-3.159 1.756-4.484 2.961-1.812 1.648-4.07 6.583-.286 7.614 3.712 1.01 6.336-2.596 9.509-3.582 2.008-.624 3.911.588 6.093-.012 4.917-1.35 6.645-5.885 2.778-8.791" style="fill:#c9d1d9;stroke:#a2a5c0;stroke-width:1.85208;stroke-linecap:round;stroke-linejoin:round;stroke-dasharray:none;stroke-opacity:1" transform="translate(-66.013 -154.12)"/><path d="m84.332 155.006 29.174.04v12.016c-5.875-9.165-5.542-1.093-9.196-2.92-1.603-.802-1.242-3.027-3.85-2.655-2.905.415-4.84 4.269-8.296 2.788-2.957-1.267-5.074-7.132-7.832-9.27" style="fill:#c9d1d9;stroke:#a2a5c0;stroke-width:1.85208329;stroke-linecap:round;stroke-linejoin:round;stroke-dasharray:none;stroke-opacity:1" transform="translate(-66.013 -154.12)"/><path d="M77.355 157.41c6.418-1.306 4.217 5.781 5.509 9.225 1.187 3.165 1.14 8.11-3.85 6.24-1.959-.735-3.093-2.409-4.646-3.651-1.496-1.197-4.088-1.645-5.243-3.186-2.778-3.953 5.25-8.383 8.23-8.628" style="fill:#c9d1d9;stroke:#a2a5c0;stroke-width:1.85208;stroke-linecap:round;stroke-linejoin:round;stroke-dasharray:none" transform="translate(-66.013 -154.12)"/></svg>