<?xml version="1.0" encoding="UTF-8" standalone="no"?>
<svg
   width="24"
   height="24"
   viewBox="0 0 6.3501334 6.3501333"
   version="1.1"
   id="svg1"
   sodipodi:docname="solo_icon.svg"
   inkscape:version="1.4.4 (1:1.4.4+202605061436+dcaf3e7d9e)"
   xmlns:inkscape="http://www.inkscape.org/namespaces/inkscape"
   xmlns:sodipodi="http://sodipodi.sourceforge.net/DTD/sodipodi-0.dtd"
   xmlns="http://www.w3.org/2000/svg"
   xmlns:svg="http://www.w3.org/2000/svg">
  <defs
     id="defs1">
    <inkscape:path-effect
       effect="powerclip"
       message=""
       id="path-effect12"
       is_visible="true"
       lpeversion="1"
       inverse="true"
       flatten="false"
       hide_clip="false" />
  </defs>
  <sodipodi:namedview
     id="namedview1"
     pagecolor="#505050"
     bordercolor="#ffffff"
     borderopacity="1"
     inkscape:showpageshadow="0"
     inkscape:pageopacity="0"
     inkscape:pagecheckerboard="1"
     inkscape:deskcolor="#505050"
     inkscape:zoom="22.627417"
     inkscape:cx="10.032077"
     inkscape:cy="2.0550291"
     inkscape:window-width="2560"
     inkscape:window-height="1368"
     inkscape:window-x="0"
     inkscape:window-y="0"
     inkscape:window-maximized="1"
     inkscape:current-layer="svg1" />
  <path
     id="circle12"
     style="fill:none;stroke:#ffffff;stroke-width:0.529179;stroke-linecap:round"
     d="M 2.1322804,5.1516986 A 0.9338457,0.9338457 0 0 1 1.1984347,6.0855443 0.9338457,0.9338457 0 0 1 0.26458901,5.1516986 0.9338457,0.9338457 0 0 1 1.1984347,4.2178529 0.9338457,0.9338457 0 0 1 2.1322804,5.1516986 Z m 3.9532639,0 A 0.9338457,0.9338457 0 0 1 5.1516986,6.0855443 0.9338457,0.9338457 0 0 1 4.2178529,5.1516986 0.9338457,0.9338457 0 0 1 5.1516986,4.2178529 0.9338457,0.9338457 0 0 1 6.0855443,5.1516986 Z M 3.1750667,0.26458889 A 2.5368783,2.5368783 0 0 0 0.63821734,2.8014382 2.5368783,2.5368783 0 0 0 1.0759259,4.2256706 0.9338457,0.9338457 0 0 1 1.1984016,4.217919 0.9338457,0.9338457 0 0 1 2.1316976,5.1134904 2.5368783,2.5368783 0 0 0 3.1750667,5.3382876 2.5368783,2.5368783 0 0 0 4.2184358,5.1140071 0.9338457,0.9338457 0 0 1 5.1517317,4.217919 0.9338457,0.9338457 0 0 1 5.2742074,4.2261874 2.5368783,2.5368783 0 0 0 5.711916,2.8014382 2.5368783,2.5368783 0 0 0 3.1750667,0.26458889 Z" />
</svg>
