<?xml version="1.0" encoding="UTF-8"?>
<svg xmlns="http://www.w3.org/2000/svg" viewBox="0 0 90 90">
  <defs>
    <linearGradient id="shieldBorder" x1="0%" y1="0%" x2="100%" y2="100%"><stop offset="0%" stop-color="#d19e6d" /><stop offset="35%" stop-color="#805633" /><stop offset="70%" stop-color="#4a2c16" /><stop offset="100%" stop-color="#241207" /></linearGradient>
    <linearGradient id="scaleBronze" x1="0%" y1="0%" x2="0%" y2="100%"><stop offset="0%" stop-color="#9a6e48" /><stop offset="100%" stop-color="#462a15" /></linearGradient>
    <radialGradient id="shieldDepth" cx="50%" cy="40%" r="60%"><stop offset="0%" stop-color="#ff9800" stop-opacity="0.15" /><stop offset="60%" stop-color="#110702" stop-opacity="0.4" /><stop offset="100%" stop-color="#050100" stop-opacity="0.95" /></radialGradient>
    <radialGradient id="eyeGlow" cx="50%" cy="50%" r="50%"><stop offset="0%" stop-color="#ffffff" /><stop offset="25%" stop-color="#ffe082" /><stop offset="55%" stop-color="#ff3d00" /><stop offset="85%" stop-color="#6a0000" /><stop offset="100%" stop-color="#120000" /></radialGradient>
    <filter id="glow" x="-20%" y="-20%" width="140%" height="140%"><feGaussianBlur stdDeviation="6" result="blur" /><feComposite in="SourceGraphic" in2="blur" operator="over" /></filter>
    <pattern id="scales" width="30" height="15" patternUnits="userSpaceOnUse"><path d="M 0 15 A 15 15 0 0 1 30 15 Z" fill="url(#scaleBronze)" stroke="#201108" stroke-width="1.2" /><path d="M -15 7.5 A 15 15 0 0 1 15 7.5 Z" fill="url(#scaleBronze)" stroke="#201108" stroke-width="1.2" /><path d="M 15 7.5 A 15 15 0 0 1 45 7.5 Z" fill="url(#scaleBronze)" stroke="#201108" stroke-width="1.2" /></pattern>
  </defs>
  <g transform="translate(45, 45) rotate(-90) scale(0.26) translate(-250, -220)">
    <circle cx="250" cy="220" r="165" fill="#030105" opacity="0.6" filter="url(#glow)" />
    <circle cx="250" cy="220" r="160" fill="url(#shieldBorder)" stroke="#160b05" stroke-width="6" />
    <circle cx="250" cy="220" r="152" fill="none" stroke="#221107" stroke-width="2" />
    <circle cx="250" cy="220" r="148" fill="url(#scales)" />
    <circle cx="250" cy="220" r="148" fill="url(#shieldDepth)" />
    <g transform="translate(250, 75) scale(0.65)">
      <path d="M -25,-10 C -15,-30 -5,-35 0,-15 C 5,-35 15,-30 25,-10 C 15,-5 5,-2 0,10 C -5,-2 -15,-5 -25,-10 Z" fill="url(#shieldBorder)" stroke="#110501" stroke-width="2.5" />
      <path d="M -12,-15 L 0,-30 L 12,-15 L 0,0 Z" fill="#201006" stroke="#110501" stroke-width="1.5" />
      <path d="M -25,-10 Q -45,-15 -55,-5 Q -35,5 -20,-3" fill="none" stroke="url(#shieldBorder)" stroke-width="4" stroke-linecap="round" />
      <path d="M 25,-10 Q 45,-15 55,-5 Q 35,5 20,-3" fill="none" stroke="url(#shieldBorder)" stroke-width="4" stroke-linecap="round" />
    </g>
    <path d="M 125,220 C 175,150 325,150 375,220 C 325,290 175,290 125,220 Z" fill="url(#shieldBorder)" stroke="#110501" stroke-width="6" stroke-linejoin="round" />
    <path d="M 135,220 C 180,165 320,165 365,220 C 320,275 180,275 135,220 Z" fill="#1a0b04" stroke="#050100" stroke-width="2" />
    <path d="M 142,220 C 182,175 318,175 358,220 C 318,265 182,265 142,220 Z" fill="url(#eyeGlow)" />
    <path d="M 250,182 C 255,205 255,235 250,258 C 245,235 245,205 250,182 Z" fill="#000000" />
    <ellipse cx="235" cy="205" rx="5" ry="10" fill="#ffffff" opacity="0.6" transform="rotate(-15 235 205)" />
    <circle cx="265" cy="230" r="3" fill="#ffffff" opacity="0.4" />
  </g>
</svg>