<?xml version="1.0" encoding="UTF-8"?>
<svg xmlns="http://www.w3.org/2000/svg" viewBox="0 0 34 34">
  <defs>
    <linearGradient id="shieldBorder" x1="0%" y1="0%" x2="100%" y2="100%"><stop offset="0%" stop-color="#d19e6d" /><stop offset="35%" stop-color="#805633" /><stop offset="70%" stop-color="#4a2c16" /><stop offset="100%" stop-color="#241207" /></linearGradient>
    <radialGradient id="heartGlow" cx="45%" cy="45%" r="55%"><stop offset="0%" stop-color="#fff59d" /><stop offset="40%" stop-color="#ff9100" /><stop offset="80%" stop-color="#d50000" /><stop offset="100%" stop-color="#310000" /></radialGradient>
    <filter id="glow" x="-20%" y="-20%" width="140%" height="140%"><feGaussianBlur stdDeviation="6" result="blur" /><feComposite in="SourceGraphic" in2="blur" operator="over" /></filter>
  </defs>
  <g transform="translate(17, 17) rotate(-90) scale(0.26)">
    <circle cx="0" cy="0" r="61" fill="#030105" opacity="0.5" filter="url(#glow)" />
    <circle cx="0" cy="0" r="56" fill="url(#shieldBorder)" stroke="#110501" stroke-width="5" />
    <circle cx="0" cy="0" r="47" fill="#1e0f07" stroke="#110501" stroke-width="2" />
    <circle cx="0" cy="0" r="51" fill="none" stroke="#d19e6d" stroke-dasharray="8 6" stroke-width="2" opacity="0.7" />
    <path d="M 0,-13 C 0,-13 -10,-24 -20,-14 C -28,-4 -15,13 0,23 C 15,13 28,-4 20,-14 C 10,-24 0,-13 0,-13 Z" fill="url(#heartGlow)" filter="url(#glow)" />
    <path d="M 0,-44 Q 0,-25 0,-18" stroke="url(#shieldBorder)" stroke-width="9" stroke-linecap="round" fill="none" />
    <path d="M 0,-44 Q 0,-25 0,-18" stroke="#110501" stroke-width="1" stroke-linecap="round" fill="none" />
    <path d="M -5,-44 Q 0,-33 5,-44" stroke="#d19e6d" stroke-width="2.5" fill="none" />
    <path d="M -35,-28 Q -20,-16 -14,-10" stroke="url(#shieldBorder)" stroke-width="8" stroke-linecap="round" fill="none" />
    <path d="M -37,-25 Q -27,-21 -33,-31" stroke="#d19e6d" stroke-width="2.5" fill="none" />
    <path d="M 35,-28 Q 20,-16 14,-10" stroke="url(#shieldBorder)" stroke-width="8" stroke-linecap="round" fill="none" />
    <path d="M 37,-25 Q 27,-21 33,-31" stroke="#d19e6d" stroke-width="2.5" fill="none" />
  </g>
</svg>