<?xml version="1.0" encoding="UTF-8" standalone="no"?>
<!-- Created with Inkscape (http://www.inkscape.org/) -->

<svg
   width="90"
   height="90"
   viewBox="0 0 23.812499 23.812501"
   version="1.1"
   id="svg13218"
   inkscape:version="1.1.2 (0a00cf5339, 2022-02-04)"
   sodipodi:docname="celestial_base.svg"
   xmlns:inkscape="http://www.inkscape.org/namespaces/inkscape"
   xmlns:sodipodi="http://sodipodi.sourceforge.net/DTD/sodipodi-0.dtd"
   xmlns:xlink="http://www.w3.org/1999/xlink"
   xmlns="http://www.w3.org/2000/svg"
   xmlns:svg="http://www.w3.org/2000/svg">
  <sodipodi:namedview
     id="namedview13220"
     pagecolor="#505050"
     bordercolor="#ffffff"
     borderopacity="1"
     inkscape:pageshadow="0"
     inkscape:pageopacity="0"
     inkscape:pagecheckerboard="1"
     inkscape:document-units="px"
     showgrid="false"
     units="px"
     inkscape:zoom="4.3893395"
     inkscape:cx="-12.302534"
     inkscape:cy="35.31283"
     inkscape:window-width="2560"
     inkscape:window-height="1372"
     inkscape:window-x="0"
     inkscape:window-y="0"
     inkscape:window-maximized="1"
     inkscape:current-layer="layer1" />
  <defs
     id="defs13215">
    <linearGradient
       inkscape:collect="always"
       id="linearGradient13409">
      <stop
         style="stop-color:#351c75;stop-opacity:1;"
         offset="0"
         id="stop13405" />
      <stop
         style="stop-color:#073763;stop-opacity:1"
         offset="1"
         id="stop13407" />
    </linearGradient>
    <linearGradient
       inkscape:collect="always"
       xlink:href="#linearGradient13409"
       id="linearGradient13411"
       x1="48.552654"
       y1="62.972805"
       x2="72.365154"
       y2="62.972805"
       gradientUnits="userSpaceOnUse"
       gradientTransform="rotate(-135,-1.7775988,87.279396)" />
  </defs>
  <g
     inkscape:label="Layer 1"
     inkscape:groupmode="layer"
     id="layer1"
     transform="translate(-48.552654,-51.066555)">
    <circle
       style="fill:url(#linearGradient13411);fill-opacity:1;stroke:none;stroke-width:1.05833;stroke-linecap:round"
       id="path13301"
       cx="-62.972801"
       cy="60.4589"
       r="11.90625"
       transform="rotate(-90)" />
    <path
       fill="#ffffff"
       d="m 53.682259,63.897045 v 0 c 0,-0.158479 0.130688,-0.286952 0.291901,-0.286952 v 0 c 0.07742,0 0.151662,0.03023 0.206403,0.08405 0.05474,0.05381 0.0855,0.126801 0.0855,0.202905 v 0 c 0,0.15848 -0.130687,0.286953 -0.291898,0.286953 v 0 c -0.161213,0 -0.291901,-0.128473 -0.291901,-0.286953 z"
       fill-rule="evenodd"
       id="path91"
       style="stroke-width:0.104721;fill:#ffffff;fill-opacity:1" />
    <path
       stroke="#ffffff"
       stroke-width="0.104721"
       stroke-linejoin="round"
       stroke-linecap="butt"
       d="m 53.682259,63.897045 v 0 c 0,-0.158479 0.130688,-0.286952 0.291901,-0.286952 v 0 c 0.07742,0 0.151662,0.03023 0.206403,0.08405 0.05474,0.05381 0.0855,0.126801 0.0855,0.202905 v 0 c 0,0.15848 -0.130687,0.286953 -0.291898,0.286953 v 0 c -0.161213,0 -0.291901,-0.128473 -0.291901,-0.286953 z"
       fill-rule="evenodd"
       id="path93"
       style="fill:#ffffff;fill-opacity:1" />
    <path
       fill="#ffffff"
       d="m 50.303386,59.404533 v 0 c 0,-0.158478 0.130687,-0.286952 0.291897,-0.286952 v 0 c 0.07742,0 0.151666,0.03023 0.206406,0.08405 0.05474,0.05381 0.0855,0.126802 0.0855,0.202905 v 0 c 0,0.15848 -0.130688,0.286953 -0.291902,0.286953 v 0 c -0.16121,0 -0.291897,-0.128473 -0.291897,-0.286953 z"
       fill-rule="evenodd"
       id="path95"
       style="stroke-width:0.104721;fill:#ffffff;fill-opacity:1" />
    <path
       stroke="#ffffff"
       stroke-width="0.104721"
       stroke-linejoin="round"
       stroke-linecap="butt"
       d="m 50.303386,59.404533 v 0 c 0,-0.158478 0.130687,-0.286952 0.291897,-0.286952 v 0 c 0.07742,0 0.151666,0.03023 0.206406,0.08405 0.05474,0.05381 0.0855,0.126802 0.0855,0.202905 v 0 c 0,0.15848 -0.130688,0.286953 -0.291902,0.286953 v 0 c -0.16121,0 -0.291897,-0.128473 -0.291897,-0.286953 z"
       fill-rule="evenodd"
       id="path97"
       style="fill:#ffffff;fill-opacity:1" />
    <path
       fill="#ffffff"
       d="m 54.096839,60.049937 v 0 c 0,-0.15848 0.13069,-0.286953 0.2919,-0.286953 v 0 c 0.07742,0 0.151662,0.03023 0.206403,0.08405 0.05474,0.05381 0.0855,0.126802 0.0855,0.202906 v 0 c 0,0.158479 -0.130691,0.286952 -0.291902,0.286952 v 0 c -0.16121,0 -0.2919,-0.128473 -0.2919,-0.286952 z"
       fill-rule="evenodd"
       id="path99"
       style="stroke-width:0.104721;fill:#ffffff;fill-opacity:1" />
    <path
       stroke="#ffffff"
       stroke-width="0.104721"
       stroke-linejoin="round"
       stroke-linecap="butt"
       d="m 54.096839,60.049937 v 0 c 0,-0.15848 0.13069,-0.286953 0.2919,-0.286953 v 0 c 0.07742,0 0.151662,0.03023 0.206403,0.08405 0.05474,0.05381 0.0855,0.126802 0.0855,0.202906 v 0 c 0,0.158479 -0.130691,0.286952 -0.291902,0.286952 v 0 c -0.16121,0 -0.2919,-0.128473 -0.2919,-0.286952 z"
       fill-rule="evenodd"
       id="path101"
       style="fill:#ffffff;fill-opacity:1" />
    <path
       stroke="#ffffff"
       stroke-width="0.104721"
       stroke-linejoin="round"
       stroke-linecap="butt"
       d="m 57.403897,66.389199 v 0 c 0,-0.158481 0.13069,-0.286956 0.2919,-0.286956 v 0 c 0.07742,0 0.151662,0.03024 0.206403,0.08405 0.05474,0.05382 0.0855,0.126801 0.0855,0.202909 v 0 c 0,0.158477 -0.130691,0.286952 -0.291902,0.286952 v 0 c -0.16121,0 -0.2919,-0.128475 -0.2919,-0.286952 z"
       fill-rule="evenodd"
       id="path124"
       style="fill:#ffffff;fill-opacity:1" />
    <path
       fill="#ffffff"
       d="m 59.174431,54.102074 v 0 c 0,-0.277794 0.225197,-0.502991 0.502992,-0.502991 v 0 c 0.133401,0 0.261336,0.05299 0.355667,0.147323 0.09433,0.09433 0.147321,0.222267 0.147321,0.355668 v 0 c 0,0.277794 -0.225197,0.502991 -0.502988,0.502991 v 0 c -0.277795,0 -0.502992,-0.225197 -0.502992,-0.502991 z"
       fill-rule="evenodd"
       id="path138"
       style="fill:#ffffff;fill-opacity:1;stroke-width:0.104721" />
    <path
       fill="#ffffff"
       d="m 62.306669,60.216642 v 0 c 0,-0.277795 0.225198,-0.502991 0.502992,-0.502991 v 0 c 0.133401,0 0.261338,0.05299 0.355664,0.147322 0.09433,0.09433 0.147322,0.222267 0.147322,0.355669 v 0 c 0,0.277793 -0.225198,0.502991 -0.502986,0.502991 v 0 c -0.277794,0 -0.502992,-0.225198 -0.502992,-0.502991 z"
       fill-rule="evenodd"
       id="path154"
       style="fill:#ffffff;fill-opacity:1;stroke-width:0.104721" />
    <path
       stroke="#ffffff"
       stroke-width="0.104721"
       stroke-linejoin="round"
       stroke-linecap="butt"
       d="m 55.124152,53.962392 v 0 c 0,-0.277794 0.225198,-0.502991 0.502992,-0.502991 v 0 c 0.133401,0 0.26134,0.05299 0.355668,0.147323 0.09433,0.09433 0.147324,0.222267 0.147324,0.355668 v 0 c 0,0.277794 -0.225197,0.502991 -0.502992,0.502991 v 0 c -0.277794,0 -0.502992,-0.225197 -0.502992,-0.502991 z"
       fill-rule="evenodd"
       id="path160"
       style="fill:#ffffff;fill-opacity:1" />
    <path
       fill="#ffffff"
       d="m 60.51647,68.582318 v 0 c 0,-0.277794 0.225191,-0.502992 0.502986,-0.502992 v 0 c 0.133402,0 0.261342,0.05299 0.35567,0.147324 0.09433,0.09433 0.147321,0.222266 0.147321,0.355668 v 0 c 0,0.277792 -0.225197,0.502991 -0.502991,0.502991 v 0 c -0.277795,0 -0.502986,-0.225199 -0.502986,-0.502991 z"
       fill-rule="evenodd"
       id="path162"
       style="fill:#ffffff;fill-opacity:1;stroke-width:0.104721" />
    <path
       stroke="#ffffff"
       stroke-width="0.104721"
       stroke-linejoin="round"
       stroke-linecap="butt"
       d="m 65.539009,70.290648 v 0 c 0,-0.277794 0.225191,-0.502992 0.502986,-0.502992 v 0 c 0.133402,0 0.261342,0.05299 0.35567,0.147324 0.09433,0.09433 0.147321,0.222266 0.147321,0.355668 v 0 c 0,0.277792 -0.225197,0.502991 -0.502991,0.502991 v 0 c -0.277795,0 -0.502986,-0.225199 -0.502986,-0.502991 z"
       fill-rule="evenodd"
       id="path164"
       style="fill:#ffffff;fill-opacity:1" />
    <path
       fill="#ffffff"
       d="m 68.374587,67.5676 v 0 c 0,-0.158478 0.130683,-0.286952 0.291895,-0.286952 v 0 c 0.07742,0 0.151668,0.03023 0.206406,0.08405 0.05475,0.05382 0.0855,0.126801 0.0855,0.202905 v 0 c 0,0.15848 -0.130685,0.286952 -0.291902,0.286952 v 0 c -0.161211,0 -0.291894,-0.128472 -0.291894,-0.286952 z"
       fill-rule="evenodd"
       id="path166"
       style="fill:#ffffff;fill-opacity:1;stroke-width:0.104721" />
    <path
       fill="#ffffff"
       d="m 69.218303,61.928762 v 0 c 0,-0.277793 0.225197,-0.502991 0.502992,-0.502991 v 0 c 0.133401,0 0.261339,0.05299 0.355667,0.147323 0.09433,0.09433 0.147325,0.222269 0.147325,0.355668 v 0 c 0,0.277795 -0.225198,0.502992 -0.502992,0.502992 v 0 c -0.277795,0 -0.502992,-0.225197 -0.502992,-0.502992 z"
       fill-rule="evenodd"
       id="path174"
       style="fill:#ffffff;fill-opacity:1;stroke-width:0.104721" />
    <path
       stroke="#ffffff"
       stroke-width="0.104721"
       stroke-linejoin="round"
       stroke-linecap="butt"
       d="m 65.434565,61.923215 v 0 c 0,-0.277793 0.225197,-0.502991 0.502992,-0.502991 v 0 c 0.133401,0 0.261339,0.05299 0.355667,0.147323 0.09433,0.09433 0.147325,0.222269 0.147325,0.355668 v 0 c 0,0.277795 -0.225198,0.502992 -0.502992,0.502992 v 0 c -0.277795,0 -0.502992,-0.225197 -0.502992,-0.502992 z"
       fill-rule="evenodd"
       id="path176"
       style="fill:#ffffff;fill-opacity:1" />
    <path
       stroke="#ffffff"
       stroke-width="0.104721"
       stroke-linejoin="round"
       stroke-linecap="butt"
       d="m 60.481052,57.279361 v 0 c 0,-0.277795 0.225198,-0.502992 0.502992,-0.502992 v 0 c 0.133401,0 0.261337,0.05299 0.355664,0.147323 0.09433,0.09433 0.147322,0.222267 0.147322,0.355669 v 0 c 0,0.277793 -0.225191,0.502991 -0.502986,0.502991 v 0 c -0.277794,0 -0.502992,-0.225198 -0.502992,-0.502991 z"
       fill-rule="evenodd"
       id="path180"
       style="fill:#ffffff;fill-opacity:1" />
    <path
       stroke="#ffffff"
       stroke-width="0.104721"
       stroke-linejoin="round"
       stroke-linecap="butt"
       d="m 55.75977,71.427661 v 0 c 0,-0.15848 0.130688,-0.286951 0.2919,-0.286951 v 0 c 0.07742,0 0.151662,0.03023 0.206403,0.08405 0.05474,0.05381 0.0855,0.1268 0.0855,0.202906 v 0 c 0,0.158479 -0.130688,0.286953 -0.291899,0.286953 v 0 c -0.161212,0 -0.2919,-0.128474 -0.2919,-0.286953 z"
       fill-rule="evenodd"
       id="path196"
       style="fill:#ffffff;fill-opacity:1" />
    <path
       fill="#ffffff"
       d="m 52.458568,67.954777 v 0 c 0,-0.158478 0.130687,-0.286952 0.291897,-0.286952 v 0 c 0.07742,0 0.151666,0.03023 0.206407,0.08405 0.05474,0.05382 0.0855,0.126801 0.0855,0.202905 v 0 c 0,0.15848 -0.130688,0.286952 -0.291902,0.286952 v 0 c -0.16121,0 -0.291897,-0.128472 -0.291897,-0.286952 z"
       fill-rule="evenodd"
       id="path198"
       style="stroke-width:0.104721;fill:#ffffff;fill-opacity:1" />
    <path
       stroke="#ffffff"
       stroke-width="0.104721"
       stroke-linejoin="round"
       stroke-linecap="butt"
       d="m 52.458568,67.954777 v 0 c 0,-0.158478 0.130687,-0.286952 0.291897,-0.286952 v 0 c 0.07742,0 0.151666,0.03023 0.206407,0.08405 0.05474,0.05382 0.0855,0.126801 0.0855,0.202905 v 0 c 0,0.15848 -0.130688,0.286952 -0.291902,0.286952 v 0 c -0.16121,0 -0.291897,-0.128472 -0.291897,-0.286952 z"
       fill-rule="evenodd"
       id="path200"
       style="fill:#ffffff;fill-opacity:1" />
    <path
       fill="#ffffff"
       d="m 60.394087,72.179511 v 0 c 0,-0.277794 0.225197,-0.502991 0.502992,-0.502991 v 0 c 0.1334,0 0.261339,0.05299 0.355667,0.147322 0.09433,0.09433 0.147321,0.222268 0.147321,0.355669 v 0 c 0,0.277793 -0.225197,0.502991 -0.502988,0.502991 v 0 c -0.277795,0 -0.502992,-0.225198 -0.502992,-0.502991 z"
       fill-rule="evenodd"
       id="path202"
       style="fill:#ffffff;fill-opacity:1;stroke-width:0.104721" />
    <path
       stroke="#ffffff"
       stroke-width="0.104721"
       stroke-linejoin="round"
       stroke-linecap="butt"
       d="m 60.710657,64.923126 v 0 c 0,-0.277794 0.225197,-0.502991 0.502992,-0.502991 v 0 c 0.1334,0 0.261339,0.05299 0.355667,0.147322 0.09433,0.09433 0.147321,0.222268 0.147321,0.355669 v 0 c 0,0.277793 -0.225197,0.502991 -0.502988,0.502991 v 0 c -0.277795,0 -0.502992,-0.225198 -0.502992,-0.502991 z"
       fill-rule="evenodd"
       id="path204"
       style="fill:#ffffff;fill-opacity:1" />
    <path
       fill="#ffffff"
       d="m 55.185611,57.011798 1.034507,-0.222145 0.222146,-1.034507 0.222149,1.034507 1.034504,0.222145 -1.034504,0.222147 -0.222149,1.034506 -0.222146,-1.034506 z"
       fill-rule="evenodd"
       id="path210"
       style="fill:#ffffff;fill-opacity:1;stroke-width:0.104721" />
    <path
       fill="#ffffff"
       d="m 63.621045,54.391811 1.034503,-0.222147 0.222151,-1.034506 0.222147,1.034506 1.034505,0.222147 -1.034505,0.222146 -0.222147,1.034507 -0.222151,-1.034507 z"
       fill-rule="evenodd"
       id="path212"
       style="fill:#ffffff;fill-opacity:1;stroke-width:0.104721" />
    <path
       fill="#ffffff"
       d="m 54.630188,68.750959 1.034504,-0.222147 0.222149,-1.034506 0.222146,1.034506 1.034506,0.222147 -1.034506,0.222146 -0.222146,1.034508 -0.222149,-1.034508 z"
       fill-rule="evenodd"
       id="path214"
       style="fill:#ffffff;fill-opacity:1;stroke-width:0.104721" />
    <path
       fill="#ffffff"
       d="m 57.493202,62.198805 1.034507,-0.222147 0.222146,-1.034505 0.222146,1.034505 1.034506,0.222147 -1.034506,0.222146 -0.222146,1.034507 -0.222146,-1.034507 z"
       fill-rule="evenodd"
       id="path216"
       style="fill:#ffffff;fill-opacity:1;stroke-width:0.104721" />
    <path
       fill="#ffffff"
       d="m 64.013721,65.642747 1.034504,-0.222147 0.22215,-1.034505 0.222148,1.034505 1.034504,0.222147 -1.034504,0.222147 -0.222148,1.034506 -0.22215,-1.034506 z"
       fill-rule="evenodd"
       id="path218"
       style="fill:#ffffff;fill-opacity:1;stroke-width:0.104721" />
    <path
       fill="#ffffff"
       d="m 49.650739,63.89231 1.034507,-0.222146 0.222145,-1.034506 0.222149,1.034506 1.034504,0.222146 -1.034504,0.222146 -0.222149,1.034507 -0.222145,-1.034507 z"
       fill-rule="evenodd"
       id="path220"
       style="fill:#ffffff;fill-opacity:1;stroke-width:0.104721" />
    <path
       fill="#ffffff"
       d="m 66.739745,58.435613 1.034502,-0.222146 0.22215,-1.034507 0.222142,1.034507 1.03451,0.222146 -1.03451,0.222148 -0.222142,1.034504 -0.22215,-1.034504 z"
       fill-rule="evenodd"
       id="path315"
       style="fill:#ffffff;fill-opacity:1;stroke-width:0.104721" />
  </g>
</svg>
