<?xml version="1.0" encoding="UTF-8" standalone="no"?>
<svg
   width="90"
   height="90"
   viewBox="0 0 23.812499 23.812501"
   version="1.1"
   id="svg8"
   inkscape:version="1.1.2 (0a00cf5339, 2022-02-04)"
   xml:space="preserve"
   sodipodi:docname="christmas_tree_skin_base.svg"
   xmlns:inkscape="http://www.inkscape.org/namespaces/inkscape"
   xmlns:sodipodi="http://sodipodi.sourceforge.net/DTD/sodipodi-0.dtd"
   xmlns="http://www.w3.org/2000/svg"
   xmlns:svg="http://www.w3.org/2000/svg"
   xmlns:rdf="http://www.w3.org/1999/02/22-rdf-syntax-ns#"
   xmlns:cc="http://creativecommons.org/ns#"
   xmlns:dc="http://purl.org/dc/elements/1.1/"><defs
     id="defs2" /><sodipodi:namedview
     id="base"
     pagecolor="#404040"
     bordercolor="#9e9e9e"
     borderopacity="1"
     inkscape:pageopacity="1"
     inkscape:pageshadow="2"
     inkscape:zoom="5.6568544"
     inkscape:cx="-18.384776"
     inkscape:cy="31.466251"
     inkscape:document-units="px"
     inkscape:current-layer="layer1"
     inkscape:document-rotation="0"
     showgrid="false"
     units="px"
     inkscape:pagecheckerboard="true"
     inkscape:showpageshadow="false"
     borderlayer="false"
     inkscape:deskcolor="#505050"
     inkscape:window-width="2560"
     inkscape:window-height="1372"
     inkscape:window-x="0"
     inkscape:window-y="0"
     inkscape:window-maximized="1" /><metadata
     id="metadata5"><rdf:RDF><cc:Work
         rdf:about=""><dc:format>image/svg+xml</dc:format><dc:type
           rdf:resource="http://purl.org/dc/dcmitype/StillImage" /></cc:Work></rdf:RDF></metadata><g
     inkscape:label="Layer 1"
     inkscape:groupmode="layer"
     id="layer1"
     transform="translate(-79.682091,-59.168053)"><g
       id="g852"><circle
         style="opacity:0.997;fill:#207939;fill-opacity:1;stroke:none;stroke-width:1.23834;stroke-linecap:round;stroke-linejoin:round;stroke-miterlimit:29"
         id="path1"
         cx="91.588341"
         cy="71.074303"
         r="11.90625" /><path
         d="m 98.69382,79.606647 c -0.201185,-0.167348 -0.159154,-0.487274 0.07843,-0.596978 l 0.639986,-0.295548 c 0.247159,-0.114155 0.303554,-0.440395 0.109059,-0.630896 l -0.20047,-0.19632 c -0.222495,-0.217886 -0.237102,-0.585309 -0.04868,-0.83315 0.491439,-0.646474 0.899075,-1.352597 1.213235,-2.101426 0.12044,-0.287132 0.44588,-0.458161 0.7458,-0.374385 l 0.27011,0.07544 c 0.26222,0.07323 0.51659,-0.138717 0.49187,-0.409846 l -0.064,-0.70188 c -0.0238,-0.260638 0.23232,-0.457008 0.47786,-0.366414 1.14999,-0.02753 0.28422,-4.247176 -2e-5,-3.883443 -0.24554,0.09059 -0.50163,-0.105777 -0.47786,-0.366414 l 0.064,-0.701878 c 0.0247,-0.27113 -0.22964,-0.483081 -0.49186,-0.40985 l -0.27012,0.07544 c -0.29993,0.08378 -0.6254,-0.08727 -0.74583,-0.374383 -0.31415,-0.748982 -0.721849,-1.455135 -1.213381,-2.101638 -0.188443,-0.24787 -0.173825,-0.615225 0.04869,-0.833121 l 0.200383,-0.196191 c 0.194532,-0.190474 0.138161,-0.516737 -0.109006,-0.630894 l -0.639804,-0.295487 c -0.237612,-0.10973 -0.279642,-0.429698 -0.07843,-0.597071 0.210877,-0.496191 -3.161197,-2.512666 -3.36322,-1.941549 -0.04437,0.257912 -0.342447,0.381474 -0.55627,0.230589 l -0.575824,-0.40636 c -0.222447,-0.156989 -0.5332,-0.04268 -0.600888,0.22104 l -0.06972,0.271633 c -0.07741,0.301637 -0.388083,0.497017 -0.696787,0.456582 -0.21591,-0.02824 -0.432699,-0.0492 -1.213547,-0.04921 -0.780847,-1.3e-5 -0.99772,0.02094 -1.213707,0.04922 -0.308733,0.04044 -0.619407,-0.154966 -0.696787,-0.456615 l -0.06971,-0.27164 c -0.06769,-0.263705 -0.378434,-0.378012 -0.600877,-0.221034 l -0.575822,0.406359 c -0.213827,0.150907 -0.404345,-0.0175 -0.55629,-0.230592 -0.728051,-1.021056 -3.945349,1.118709 -3.363087,1.941817 0.201184,0.167349 0.159153,0.487273 -0.07843,0.596977 l -0.639986,0.29555 c -0.247167,0.114142 -0.30354,0.440402 -0.109005,0.630864 l 0.200382,0.196192 c 0.222523,0.217866 0.23715,0.585248 0.04873,0.833119 -0.4915,0.646533 -0.899134,1.352719 -1.213234,2.101638 -0.120433,0.287137 -0.445884,0.45816 -0.745826,0.374384 l -0.27011,-0.07544 c -0.262219,-0.07323 -0.516579,0.138721 -0.491861,0.409848 l 0.06399,0.701879 c 0.02377,0.260618 -0.216424,0.378834 -0.477828,0.366413 -0.427984,-0.02034 -0.567823,4.061159 1.3e-5,3.883419 0.245541,-0.0906 0.501639,0.105774 0.477862,0.366413 l -0.06399,0.701879 c -0.02472,0.271161 0.229679,0.483131 0.491925,0.409876 l 0.264169,-0.07375 c 0.299941,-0.08375 0.625348,0.0873 0.745798,0.374446 0.314463,0.749831 0.72267,1.456772 1.214869,2.103941 0.1885,0.24783 0.173926,0.615163 -0.04857,0.83306 l -0.196045,0.191963 c -0.194556,0.190496 -0.138166,0.5168 0.109037,0.630954 l 0.639805,0.295489 c 0.237609,0.109731 0.279639,0.429695 0.07843,0.597068 -0.240718,0.160634 3.446366,2.32826 3.363077,1.941749 0.04435,-0.257904 0.342409,-0.381484 0.556241,-0.230628 l 0.576005,0.406423 c 0.222462,0.156951 0.533188,0.04263 0.600885,-0.221074 l 0.06815,-0.265482 c 0.07743,-0.301631 0.388266,-0.497865 0.697151,-0.458523 0.21632,0.02757 0.433519,0.04778 1.214582,0.04628 0.781063,-0.0015 0.997929,-0.02245 1.213945,-0.05079 0.308734,-0.04051 0.619408,0.154892 0.696788,0.456523 l 0.06971,0.271628 c 0.06769,0.263718 0.378441,0.378032 0.600889,0.221042 l 0.575822,-0.40636 c 0.213815,-0.150894 0.511899,-0.02732 0.556241,0.230592 0.182872,0.20454 3.719071,-1.739222 3.362963,-1.941469 z"
         fill="#4f6435"
         fill-opacity="0.85"
         opacity="0.901252"
         id="path18"
         style="fill:#22803c;fill-opacity:1;stroke:#1b652f;stroke-width:0.757;stroke-dasharray:none;stroke-opacity:1"
         sodipodi:nodetypes="cccsscssssccccsssssssssccssssccscssssccssscssssssccscscssscsccccssscscssscc" /><path
         d="m 96.979812,77.188907 c -0.148748,-0.121972 -0.11951,-0.357359 0.05456,-0.439228 l 0.468905,-0.220564 c 0.181093,-0.08519 0.220854,-0.325296 0.0769,-0.46432 l -0.148369,-0.143277 c -0.164683,-0.159007 -0.177327,-0.429012 -0.0401,-0.612173 0.357895,-0.477752 0.653882,-0.998915 0.880934,-1.550986 0.08705,-0.211687 0.325385,-0.33909 0.54628,-0.279059 l 0.198947,0.05406 c 0.19313,0.05247 0.379009,-0.104644 0.359436,-0.303812 l -0.05067,-0.515603 c -0.01882,-0.191469 0.168407,-0.337137 0.34937,-0.271807 0.845185,-0.02619 0.18693,-3.123458 -0.02012,-2.854616 -0.180018,0.06787 -0.369287,-0.07516 -0.353158,-0.266866 l 0.0434,-0.516265 c 0.01676,-0.199429 -0.17131,-0.35391 -0.363681,-0.298723 l -0.198167,0.05685 c -0.220035,0.06315 -0.460173,-0.06091 -0.550178,-0.271337 -0.234817,-0.548923 -0.538161,-1.065887 -0.902813,-1.538573 -0.139808,-0.181226 -0.13096,-0.451336 0.03148,-0.612658 l 0.146281,-0.145253 c 0.142004,-0.141027 0.09888,-0.380554 -0.08339,-0.46319 l -0.471833,-0.21389 c -0.17523,-0.07943 -0.207785,-0.314411 -0.06074,-0.438486 0.152441,-0.365828 -2.336724,-1.830625 -2.482268,-1.409766 -0.03128,0.189814 -0.249749,0.282185 -0.407707,0.17238 l -0.425377,-0.295726 c -0.164331,-0.114243 -0.392164,-0.02861 -0.440559,0.165584 l -0.04984,0.20003 c -0.05534,0.222128 -0.282697,0.367353 -0.509824,0.339231 -0.15886,-0.01963 -0.318325,-0.03392 -0.892307,-0.02988 -0.573979,0.004 -0.733289,0.02056 -0.89191,0.04246 -0.226731,0.03132 -0.456112,-0.110705 -0.514554,-0.332037 l -0.05265,-0.199315 c -0.05112,-0.193491 -0.280133,-0.275908 -0.442833,-0.159364 l -0.421167,0.301687 c -0.1564,0.11203 -0.297314,-0.01077 -0.410108,-0.166621 -0.540457,-0.746782 -2.894328,0.842763 -2.462057,1.444801 0.148757,0.121968 0.11951,0.357359 -0.05456,0.439229 l -0.468905,0.220564 c -0.181094,0.08519 -0.220844,0.325299 -0.07686,0.464298 l 0.148303,0.143181 c 0.164708,0.158989 0.177351,0.428973 0.04013,0.612151 -0.357941,0.477794 -0.653926,0.999004 -0.880936,1.551141 -0.08704,0.211691 -0.325384,0.33909 -0.546299,0.279058 l -0.198943,-0.05406 c -0.193129,-0.05247 -0.379,0.10465 -0.359433,0.30381 l 0.05067,0.515603 c 0.01881,0.191455 -0.157125,0.27959 -0.349346,0.271805 -0.314705,-0.01274 -0.396363,2.988191 0.02012,2.854598 0.180017,-0.06788 0.369291,0.07516 0.353161,0.266866 l -0.0434,0.516265 c -0.01677,0.19945 0.171331,0.353948 0.363725,0.298741 l 0.193799,-0.05558 c 0.220044,-0.06312 0.460129,0.06093 0.550155,0.271384 0.235026,0.549559 0.53876,1.067092 0.903914,1.54026 0.139847,0.181195 0.131032,0.45129 -0.03139,0.612612 l -0.143112,0.142123 c -0.142026,0.14104 -0.09889,0.380603 0.08342,0.463233 l 0.471835,0.213895 c 0.175228,0.07943 0.207783,0.314407 0.06074,0.438482 -0.176112,0.119328 2.545388,1.693597 2.482163,1.409914 0.03127,-0.189808 0.24972,-0.282192 0.407682,-0.172412 l 0.42551,0.295769 c 0.164348,0.114213 0.392154,0.02857 0.440552,-0.165615 l 0.04872,-0.195502 c 0.05536,-0.222122 0.282825,-0.367977 0.510082,-0.340662 0.159152,0.01915 0.318915,0.03288 0.893045,0.02773 0.574132,-0.0051 0.733436,-0.02167 0.892077,-0.04362 0.226735,-0.03137 0.456112,0.11065 0.514554,0.33197 l 0.05266,0.199302 c 0.05113,0.193498 0.28014,0.275923 0.442843,0.15937 l 0.421171,-0.301677 c 0.15639,-0.112025 0.376142,-0.02273 0.410071,0.166622 0.135487,0.149402 2.724786,-1.297716 2.461974,-1.444536 z"
         fill="#4f6435"
         fill-opacity="0.85"
         opacity="0.901252"
         id="path111"
         style="fill:#23853e;fill-opacity:1;stroke:#1b652f;stroke-width:0.757;stroke-dasharray:none;stroke-opacity:1"
         sodipodi:nodetypes="cccsscssssccccsssssssssccssssccscssssccssscssssssccscscssscsccccssscscssscc" /><path
         d="m 95.240721,75.129663 c -0.09868,-0.08092 -0.07929,-0.237079 0.03619,-0.291392 l 0.311082,-0.146329 c 0.120141,-0.05652 0.146518,-0.215808 0.05101,-0.308038 l -0.09843,-0.09505 c -0.109255,-0.105488 -0.117643,-0.284616 -0.02661,-0.406128 0.237435,-0.31695 0.4338,-0.6627 0.58443,-1.028957 0.05776,-0.140436 0.215868,-0.224958 0.362414,-0.185132 l 0.131985,0.03586 c 0.128127,0.03481 0.251443,-0.06942 0.238457,-0.201556 l -0.03362,-0.342062 c -0.01248,-0.127024 0.111724,-0.223663 0.231779,-0.180321 0.560712,-0.01739 0.124014,-2.072166 -0.01334,-1.893811 -0.119428,0.04503 -0.244993,-0.04987 -0.234293,-0.177045 l 0.02878,-0.342501 c 0.01112,-0.132304 -0.113652,-0.234791 -0.241275,-0.198178 l -0.131468,0.03772 c -0.145975,0.04189 -0.305287,-0.0404 -0.364999,-0.18001 -0.155783,-0.364166 -0.357027,-0.707131 -0.598944,-1.02072 -0.09275,-0.120231 -0.08689,-0.299427 0.02089,-0.40645 l 0.09705,-0.09637 c 0.09421,-0.09356 0.0656,-0.252467 -0.05533,-0.307289 l -0.312988,-0.141901 c -0.116249,-0.0527 -0.137849,-0.208586 -0.0403,-0.2909 0.101133,-0.242698 -1.55023,-1.214474 -1.646787,-0.935267 -0.02076,0.125926 -0.165687,0.187206 -0.270481,0.11436 l -0.282201,-0.196191 c -0.109021,-0.07579 -0.260171,-0.01897 -0.292276,0.109852 l -0.03306,0.132705 c -0.03672,0.147362 -0.187547,0.243709 -0.338228,0.225051 -0.105391,-0.01302 -0.211183,-0.02251 -0.591973,-0.01982 -0.380791,0.0027 -0.48648,0.01363 -0.591713,0.02817 -0.150417,0.02078 -0.302594,-0.07344 -0.341365,-0.220279 l -0.03493,-0.13223 c -0.03391,-0.128366 -0.185846,-0.183044 -0.293786,-0.105725 l -0.279409,0.200144 c -0.10376,0.07432 -0.197246,-0.0071 -0.272075,-0.11054 -0.358551,-0.49543 -1.920158,0.559107 -1.633379,0.95851 0.09869,0.08091 0.07929,0.237081 -0.03621,0.291395 l -0.311081,0.146327 c -0.120141,0.05652 -0.146511,0.21581 -0.051,0.308025 l 0.09839,0.09499 c 0.10927,0.105476 0.117657,0.284589 0.02662,0.406113 -0.237467,0.316979 -0.43383,0.662761 -0.584433,1.029059 -0.05774,0.140442 -0.215866,0.22496 -0.362425,0.185133 l -0.131983,-0.03586 c -0.128126,-0.03481 -0.251437,0.06943 -0.238455,0.201555 l 0.03362,0.34206 c 0.01247,0.127015 -0.104239,0.185485 -0.231762,0.180321 -0.208781,-0.0085 -0.262956,1.982428 0.01335,1.893799 0.119426,-0.04505 0.244994,0.04987 0.234294,0.177044 l -0.02878,0.342501 c -0.01111,0.132319 0.113664,0.234816 0.241303,0.198191 l 0.128569,-0.03688 c 0.145983,-0.04188 0.305259,0.04042 0.364983,0.180041 0.155923,0.364589 0.357425,0.707929 0.599676,1.02184 0.09278,0.120208 0.08693,0.299394 -0.02083,0.406418 l -0.09494,0.09429 c -0.09422,0.09356 -0.06561,0.252499 0.05534,0.307318 l 0.313025,0.141903 c 0.116248,0.0527 0.137847,0.208583 0.0403,0.290897 -0.116837,0.07916 1.688661,1.123567 1.646717,0.935366 0.02075,-0.125923 0.16567,-0.187212 0.270464,-0.114382 l 0.282292,0.196219 c 0.109033,0.07576 0.260164,0.01896 0.292271,-0.109872 l 0.03233,-0.129699 c 0.03673,-0.147361 0.187632,-0.244125 0.338399,-0.226003 0.105585,0.01271 0.211576,0.02182 0.592465,0.01839 0.38089,-0.0034 0.486576,-0.01437 0.591822,-0.02894 0.150419,-0.02081 0.302594,0.07341 0.341364,0.220237 l 0.03493,0.132221 c 0.03392,0.12837 0.185851,0.183052 0.293791,0.105729 l 0.279413,-0.200138 c 0.103754,-0.07433 0.249542,-0.01508 0.27205,0.110541 0.08989,0.09911 1.807679,-0.860932 1.633324,-0.958337 z"
         fill="#4f6435"
         fill-opacity="0.85"
         opacity="0.901252"
         id="path112"
         style="fill:#248940;fill-opacity:1;stroke:#1b652f;stroke-width:0.757;stroke-dasharray:none;stroke-opacity:1"
         sodipodi:nodetypes="cccsscssssccccsssssssssccssssccscssssccssscssssssccscscssscsccccssscscssscc" /><circle
         style="opacity:0.997;fill:#f6d946;fill-opacity:1;stroke:#c8a90a;stroke-width:0.620195;stroke-linecap:round;stroke-linejoin:round;stroke-miterlimit:29;stroke-dasharray:none;stroke-opacity:1"
         id="path114"
         cx="92.904572"
         cy="65.397903"
         r="0.77512056" /><circle
         style="opacity:0.997;fill:#f6d946;fill-opacity:1;stroke:#c8a90a;stroke-width:0.620195;stroke-linecap:round;stroke-linejoin:round;stroke-miterlimit:29;stroke-dasharray:none;stroke-opacity:1"
         id="circle116"
         cx="86.092819"
         cy="61.810047"
         r="0.77512056" /><circle
         style="opacity:0.997;fill:#3ddad1;fill-opacity:1;stroke:#22b4ab;stroke-width:0.620195;stroke-linecap:round;stroke-linejoin:round;stroke-miterlimit:29;stroke-dasharray:none;stroke-opacity:1"
         id="circle117"
         cx="84.78244"
         cy="67.97908"
         r="0.77512056" /><circle
         style="opacity:0.997;fill:#f6d946;fill-opacity:1;stroke:#c8a90a;stroke-width:0.620195;stroke-linecap:round;stroke-linejoin:round;stroke-miterlimit:29;stroke-dasharray:none;stroke-opacity:1"
         id="circle118"
         cx="95.485756"
         cy="78.854477"
         r="0.77512056" /><circle
         style="opacity:0.997;fill:#f6d946;fill-opacity:1;stroke:#c8a90a;stroke-width:0.608034;stroke-linecap:round;stroke-linejoin:round;stroke-miterlimit:29;stroke-dasharray:none;stroke-opacity:1"
         id="circle119"
         cx="81.156906"
         cy="72.607422"
         r="0.75992209" /><circle
         style="opacity:0.997;fill:#b72323;fill-opacity:1;stroke:#921c1c;stroke-width:0.620195;stroke-linecap:round;stroke-linejoin:round;stroke-miterlimit:29;stroke-dasharray:none;stroke-opacity:1"
         id="circle123"
         cx="97.974464"
         cy="64.718185"
         r="0.77512056" /><circle
         style="opacity:0.997;fill:#b72323;fill-opacity:1;stroke:#921c1c;stroke-width:0.620195;stroke-linecap:round;stroke-linejoin:round;stroke-miterlimit:29;stroke-dasharray:none;stroke-opacity:1"
         id="circle122"
         cx="85.97924"
         cy="75.075356"
         r="0.77512056" /><circle
         style="opacity:0.997;fill:#b72323;fill-opacity:1;stroke:#921c1c;stroke-width:0.620195;stroke-linecap:round;stroke-linejoin:round;stroke-miterlimit:29;stroke-dasharray:none;stroke-opacity:1"
         id="circle124"
         cx="95.722862"
         cy="74.844406"
         r="0.77512056" /><circle
         style="opacity:0.997;fill:#3ddad1;fill-opacity:1;stroke:#22b4ab;stroke-width:0.620195;stroke-linecap:round;stroke-linejoin:round;stroke-miterlimit:29;stroke-dasharray:none;stroke-opacity:1"
         id="circle125"
         cx="90.254539"
         cy="81.487282"
         r="0.77512056" /><circle
         style="opacity:0.997;fill:#3ddad1;fill-opacity:1;stroke:#22b4ab;stroke-width:0.620195;stroke-linecap:round;stroke-linejoin:round;stroke-miterlimit:29;stroke-dasharray:none;stroke-opacity:1"
         id="circle126"
         cx="101.08945"
         cy="72.846321"
         r="0.77512056" /><path
         sodipodi:type="star"
         style="opacity:0.997;fill:#f6d946;fill-opacity:1;stroke:#c8a90a;stroke-width:1.05833;stroke-linecap:round;stroke-linejoin:round;stroke-miterlimit:29;stroke-dasharray:none;stroke-opacity:1"
         id="path127"
         inkscape:flatsided="false"
         sodipodi:sides="5"
         sodipodi:cx="102.26036"
         sodipodi:cy="55.264336"
         sodipodi:r1="3.4869974"
         sodipodi:r2="1.7434987"
         sodipodi:arg1="0.51155613"
         sodipodi:arg2="1.1398747"
         inkscape:rounded="0"
         inkscape:randomized="0"
         d="m 105.30097,56.971342 -2.31234,-0.122896 -1.41213,1.835171 -0.59767,-2.237135 -2.181724,-0.775921 1.942954,-1.259729 0.0637,-2.314716 1.79848,1.458579 2.22113,-0.654653 -0.83143,2.161181 z"
         inkscape:transform-center-x="-0.46836887"
         inkscape:transform-center-y="-0.80477131"
         transform="matrix(0.65788408,0.31237011,-0.31237011,0.65788408,41.83939,2.8643431)" /></g></g></svg>
