<svg xmlns="http://www.w3.org/2000/svg" width="34" height="34" viewBox="0 0 8.996 8.996"><circle cx="4.498" cy="4.498" r="3.969" style="fill:#5c563e;fill-opacity:1;stroke:#2e2b1f;stroke-width:1.05833;stroke-linecap:round;stroke-miterlimit:4;stroke-dasharray:none;stroke-opacity:1"/><path d="M.71 1.872A1.053 1.238 19.339 0 1 2.06.933c1.613.4 2.633.862 3.336 1.467.703.604 1.024 1.43 1.132 2.037.109.605.126.896.174.995s.14.276.86.497a1.053 1.238 19.339 0 1 .63 1.486 1.053 1.238 19.339 0 1-1.382.871c-1-.306-1.68-.826-2.017-1.522s-.316-1.298-.372-1.616c-.057-.318-.072-.444-.43-.752s-1.128-.718-2.588-1.08a1.053 1.238 19.339 0 1-.695-1.444" style="color:#000;fill:#5c563e;fill-opacity:1;fill-rule:evenodd;stroke:#2e2b1f;stroke-width:1.33172;stroke-linecap:round;stroke-linejoin:round;stroke-dasharray:none;stroke-opacity:1"/></svg>