<?xml version="1.0" encoding="UTF-8" standalone="no"?>
<!-- Created with Inkscape (http://www.inkscape.org/) -->

<svg
   width="90.000008"
   height="90.000008"
   viewBox="0 0 23.812502 23.812502"
   version="1.1"
   id="svg1"
   xml:space="preserve"
   inkscape:version="1.3.2 (1:1.3.2+202311252150+091e20ef0f)"
   sodipodi:docname="fireball_base.svg"
   xmlns:inkscape="http://www.inkscape.org/namespaces/inkscape"
   xmlns:sodipodi="http://sodipodi.sourceforge.net/DTD/sodipodi-0.dtd"
   xmlns="http://www.w3.org/2000/svg"
   xmlns:svg="http://www.w3.org/2000/svg"><sodipodi:namedview
     id="namedview1"
     pagecolor="#ffffff"
     bordercolor="#000000"
     borderopacity="0.25"
     inkscape:showpageshadow="2"
     inkscape:pageopacity="0.0"
     inkscape:pagecheckerboard="0"
     inkscape:deskcolor="#d1d1d1"
     inkscape:document-units="px"
     inkscape:zoom="4.2179991"
     inkscape:cx="0.94831693"
     inkscape:cy="94.238995"
     inkscape:window-width="2560"
     inkscape:window-height="1368"
     inkscape:window-x="0"
     inkscape:window-y="0"
     inkscape:window-maximized="1"
     inkscape:current-layer="layer1" /><defs
     id="defs1"><inkscape:path-effect
       effect="bspline"
       id="path-effect118"
       is_visible="true"
       lpeversion="1.3"
       weight="33.333333"
       steps="2"
       helper_size="0"
       apply_no_weight="true"
       apply_with_weight="true"
       only_selected="false"
       uniform="false" /><inkscape:path-effect
       effect="bspline"
       id="path-effect119"
       is_visible="true"
       lpeversion="1.3"
       weight="33.333333"
       steps="2"
       helper_size="0"
       apply_no_weight="true"
       apply_with_weight="true"
       only_selected="false"
       uniform="false" /><inkscape:path-effect
       effect="bspline"
       id="path-effect120"
       is_visible="true"
       lpeversion="1.3"
       weight="33.333333"
       steps="2"
       helper_size="0"
       apply_no_weight="true"
       apply_with_weight="true"
       only_selected="false"
       uniform="false" /><inkscape:path-effect
       effect="bspline"
       id="path-effect118-6"
       is_visible="true"
       lpeversion="1.3"
       weight="33.333333"
       steps="2"
       helper_size="0"
       apply_no_weight="true"
       apply_with_weight="true"
       only_selected="false"
       uniform="false" /><inkscape:path-effect
       effect="bspline"
       id="path-effect119-8"
       is_visible="true"
       lpeversion="1.3"
       weight="33.333333"
       steps="2"
       helper_size="0"
       apply_no_weight="true"
       apply_with_weight="true"
       only_selected="false"
       uniform="false" /><inkscape:path-effect
       effect="bspline"
       id="path-effect120-7"
       is_visible="true"
       lpeversion="1.3"
       weight="33.333333"
       steps="2"
       helper_size="0"
       apply_no_weight="true"
       apply_with_weight="true"
       only_selected="false"
       uniform="false" /><clipPath
       clipPathUnits="userSpaceOnUse"
       id="clipPath16"><circle
         style="display:inline;opacity:1;fill:#e95900;fill-opacity:1;stroke:none;stroke-width:1.00334;stroke-linecap:round;stroke-linejoin:round;stroke-miterlimit:10;stroke-dasharray:none;stroke-opacity:1"
         id="circle17"
         cx="44.276089"
         cy="240.98645"
         r="45.78735"
         d="M 90.063438,240.98645 A 45.78735,45.78735 0 0 1 44.276089,286.7738 45.78735,45.78735 0 0 1 -1.511261,240.98645 45.78735,45.78735 0 0 1 44.276089,195.1991 45.78735,45.78735 0 0 1 90.063438,240.98645 Z" /></clipPath><clipPath
       clipPathUnits="userSpaceOnUse"
       id="clipPath17"><ellipse
         style="display:inline;opacity:1;fill:#e95900;fill-opacity:1;stroke:none;stroke-width:0.987703;stroke-linecap:round;stroke-linejoin:round;stroke-miterlimit:10;stroke-dasharray:none;stroke-opacity:1"
         id="circle18"
         cx="43.463531"
         cy="243.84303"
         rx="45.78735"
         ry="44.371006"
         d="m 89.250881,243.84303 a 45.78735,44.371006 0 0 1 -45.78735,44.37101 45.78735,44.371006 0 0 1 -45.7873492,-44.37101 45.78735,44.371006 0 0 1 45.7873492,-44.371 45.78735,44.371006 0 0 1 45.78735,44.371 z" /></clipPath><clipPath
       clipPathUnits="userSpaceOnUse"
       id="clipPath18"><ellipse
         style="display:inline;opacity:1;fill:#e95900;fill-opacity:1;stroke:none;stroke-width:0.923613;stroke-linecap:round;stroke-linejoin:round;stroke-miterlimit:10;stroke-dasharray:none;stroke-opacity:1"
         id="circle19"
         cx="42.296413"
         cy="247.72234"
         rx="40.89941"
         ry="43.436523"
         d="M 83.195824,247.72234 A 40.89941,43.436523 0 0 1 42.296413,291.15886 40.89941,43.436523 0 0 1 1.3970032,247.72234 40.89941,43.436523 0 0 1 42.296413,204.28581 40.89941,43.436523 0 0 1 83.195824,247.72234 Z" /></clipPath></defs><g
     inkscape:label="Layer 1"
     inkscape:groupmode="layer"
     id="layer1"
     transform="matrix(1.3637945,0,0,1.3637945,-134.24497,-181.55377)"
     style="display:inline;opacity:1"><g
       id="g1"
       transform="rotate(-90,107.16513,141.85423)"><circle
         style="display:inline;opacity:1;fill:#e95900;fill-opacity:1;stroke:none;stroke-width:0.191307;stroke-linecap:round;stroke-linejoin:round;stroke-miterlimit:10;stroke-dasharray:none;stroke-opacity:1"
         id="path846"
         cx="107.16513"
         cy="141.85423"
         r="8.730238" /><path
         style="opacity:0.403846;fill:#ef9900;fill-opacity:1;stroke:none;stroke-width:2.492;stroke-dasharray:none;stroke-opacity:1"
         d="m 28.525594,288.69136 c -4.204855,-1.65492 -7.508014,-4.07627 -10.054093,-6.20194 -2.546079,-2.12567 -4.334844,-3.95546 -5.915248,-6.11765 -1.580404,-2.16218 -2.9523766,-4.65668 -3.8254573,-7.36949 -0.8730807,-2.71281 -1.247249,-5.6438 -1.2472458,-8.76198 3.2e-6,-3.11817 0.3741733,-6.42334 1.1849039,-9.13615 0.8107307,-2.71281 2.0579622,-4.8331 3.6794182,-7.14055 1.621457,-2.30746 3.617026,-4.80192 5.269656,-6.39218 1.652629,-1.59026 2.962225,-2.27624 3.398762,-2.27623 0.436537,0 4e-6,0.68598 -0.12472,2.12035 -0.124724,1.43437 0.06236,3.61703 0.124723,5.3632 0.06236,1.74617 10e-7,3.05577 0.467732,4.0224 0.467731,0.96663 1.465518,1.59025 2.182695,1.46551 0.717178,-0.12473 1.153711,-0.9978 1.559073,-2.80635 0.405362,-1.80855 0.779531,-4.55246 1.465532,-7.10936 0.686,-2.5569 1.683789,-4.92665 2.743968,-7.14055 1.06018,-2.2139 2.182694,-4.27184 3.648238,-6.08038 1.465544,-1.80853 3.274035,-3.36758 5.238487,-4.95785 1.964453,-1.59027 4.084748,-3.21167 6.658125,-4.42775 2.573377,-1.21609 5.599583,-2.02677 6.576119,-2.03665 0.976536,-0.01 -0.09675,0.78105 -0.892766,1.96597 -0.79602,1.18492 -1.31468,2.76371 -1.600294,4.23875 -0.285614,1.47503 -0.338166,2.84618 -0.09532,4.7692 0.242851,1.92303 0.781072,4.39769 2.15143,6.97902 1.370358,2.58132 3.572694,5.26901 5.886773,7.03767 2.314079,1.76866 4.739644,2.61809 6.897825,3.68854 2.158182,1.07045 4.048776,2.36182 5.768731,4.06696 1.719954,1.70513 3.269082,3.82384 4.194658,6.68949 0.925577,2.86566 1.2275,6.47799 1.160191,9.53147 -0.06731,3.05348 -0.503841,5.54795 -1.314571,8.01131 -0.810731,2.46337 -1.995599,4.89547 -4.238603,7.87456 -2.243004,2.97908 -5.543932,6.50489 -10.1422,8.85649 -4.598268,2.35159 -10.493518,3.52874 -15.994395,3.67312 -5.500877,0.14438 -10.607276,-0.74403 -14.812131,-2.39895 z"
         id="path117"
         transform="matrix(0.21345631,0,0,0.2009884,98.136693,92.064916)"
         sodipodi:nodetypes="cccccccccccccccccccccccccccccccccc"
         inkscape:original-d="m 27.624003,289.45787 c -3.303263,-2.42143 -6.606425,-4.84278 -9.909739,-7.26425 -1.78884,-1.82987 -3.577606,-3.65966 -5.366412,-5.48949 -1.372011,-2.49454 -2.7439671,-4.98904 -4.1159508,-7.48353 -0.3741846,-2.93113 -0.7483546,-5.86212 -1.1225318,-8.79318 0.3741849,-3.30529 0.7483547,-6.61046 1.1225318,-9.9157 1.2472829,-2.12038 2.4945158,-4.24067 3.7417738,-6.36101 1.995652,-2.49457 3.991225,-4.98903 5.986837,-7.48355 1.309647,-0.686 2.619241,-1.37198 3.928862,-2.05797 -0.436549,0.686 -0.87308,1.37198 -1.309621,2.05797 0.187093,2.18275 0.374178,4.36541 0.561266,6.54811 -0.06236,1.30964 -0.124725,2.61924 -0.187088,3.92886 0.997826,0.62364 1.995612,1.24726 2.993418,1.87089 0.436549,-0.8731 0.873081,-1.74617 1.309621,-2.61925 0.374185,-2.74402 0.748355,-5.48793 1.122532,-8.2319 0.997827,-2.36983 1.995613,-4.73958 2.993417,-7.10937 1.122556,-2.05801 2.245067,-4.11595 3.367599,-6.17392 1.808559,-1.5591 3.617047,-3.11815 5.425569,-4.67722 2.120382,-1.62147 4.240678,-3.24287 6.361015,-4.8643 3.026417,-0.81074 6.052624,-1.62142 9.079055,-2.43216 -1.073361,0.79098 -2.146641,1.58191 -3.219997,2.37289 -0.518684,1.57886 -1.037345,3.15765 -1.556018,4.73648 -0.05255,1.37124 -0.105106,2.74239 -0.15766,4.11363 0.538254,2.47481 1.076477,4.94947 1.614731,7.42428 2.202464,2.68784 4.404799,5.37553 6.607263,8.06338 2.425693,0.84947 4.851257,1.6989 7.276938,2.54837 1.890683,1.29143 3.781278,2.5828 5.671968,3.87424 1.549217,2.11883 3.098343,4.23754 4.647562,6.35637 0.301936,3.61248 0.603859,7.22481 0.905788,10.83721 -0.436549,2.49456 -0.87308,4.98903 -1.309619,7.48355 -1.18492,2.43221 -2.369791,4.86431 -3.554685,7.29647 -3.301112,3.52601 -6.602042,7.05182 -9.903142,10.57782 -5.895434,1.17719 -11.790684,2.35434 -17.68602,3.53151 -5.106418,-0.88841 -10.212816,-1.77682 -15.319263,-2.66523 z"
         inkscape:path-effect="#path-effect118"
         clip-path="url(#clipPath18)" /><path
         style="opacity:0.403846;fill:#efbc00;fill-opacity:1;stroke:none;stroke-width:2.492;stroke-dasharray:none;stroke-opacity:1"
         d="m 32.373934,287.19309 c -0.826049,-0.15106 -1.795826,-0.3292 -3.698846,-0.99683 -1.903021,-0.66763 -4.739063,-1.82466 -6.568916,-3.13113 -1.829854,-1.30648 -2.653273,-2.76222 -3.683206,-4.47946 -1.029933,-1.71724 -2.266253,-3.69577 -3.126111,-5.81617 -0.859858,-2.1204 -1.343149,-4.38241 -1.409067,-6.65285 -0.06592,-2.27044 0.285548,-4.54904 0.628551,-6.34056 0.343004,-1.79153 0.677503,-3.09576 1.172839,-4.395 0.495336,-1.29925 1.151472,-2.5934 1.690311,-3.34797 0.53884,-0.75456 0.960373,-0.96952 1.051177,-0.95148 0.0908,0.018 -0.149123,0.26908 -0.352762,0.90551 -0.203639,0.63643 -0.370988,1.65824 0.176763,2.63029 0.547751,0.97205 1.810588,1.8943 3.252748,2.19953 1.442159,0.30522 3.063562,-0.007 3.811916,-1.09796 0.748354,-1.09137 0.623631,-2.96222 1.340819,-5.45677 0.717187,-2.49454 2.276233,-5.61263 3.313019,-7.62432 1.036786,-2.01169 1.551259,-2.91688 2.572472,-4.28713 1.021214,-1.37024 2.549039,-3.20537 4.747379,-4.90142 2.19834,-1.69605 5.066961,-3.25283 6.859312,-4.08363 1.79235,-0.8308 2.508339,-0.93559 3.202125,-1.06321 0.693785,-0.12762 1.365363,-0.27807 0.937203,0.26567 -0.428159,0.54375 -1.956005,1.78165 -2.540142,3.49106 -0.584137,1.7094 -0.224512,3.89013 0.709842,5.63712 0.934355,1.74699 2.443323,3.06003 3.540562,4.61099 1.097239,1.55097 1.782606,3.33966 2.564191,4.89849 0.781584,1.55883 1.659291,2.88761 2.481063,3.72473 0.821771,0.83712 1.587515,1.1825 2.194642,1.38129 0.607127,0.19878 1.05556,0.25097 1.629289,-0.0916 0.57373,-0.34257 1.272664,-1.07982 1.864426,-2.02552 0.591762,-0.94569 1.076256,-2.09968 1.092676,-3.09817 0.01642,-0.99849 -0.43523,-1.84135 -0.56705,-2.21857 -0.131819,-0.37722 0.0562,-0.28874 0.563384,0.22894 0.507182,0.51768 1.333471,1.46451 2.27672,2.81104 0.943249,1.34652 2.003399,3.09265 2.814122,4.7141 0.810723,1.62145 1.371979,3.11813 1.746159,5.17613 0.374179,2.058 0.561264,4.67719 0.498898,7.10937 -0.06237,2.43218 -0.374175,4.6772 -0.888972,7.04775 -0.514796,2.37055 -1.232538,4.86645 -2.480755,7.23635 -1.248217,2.36989 -3.026777,4.61353 -5.415426,6.00737 -2.388649,1.39385 -5.38711,1.93773 -8.492912,2.36471 -3.105802,0.42697 -6.318692,0.73699 -9.222859,0.72056 -2.904166,-0.0164 -4.20186,-0.18788 -6.660125,-0.53804 -2.458265,-0.35016 -2.79941,-0.41215 -3.625459,-0.56321 z"
         id="path118"
         transform="matrix(0.1906692,0,0,0.19675545,98.877973,93.876786)"
         sodipodi:nodetypes="ccccccccccccccccscccccccccccccccccccccccccc"
         inkscape:original-d="m 32.517687,287.22017 c -0.969803,-0.17814 -1.93958,-0.35628 -2.909399,-0.53443 -2.836223,-1.1571 -5.672263,-2.31414 -8.508494,-3.47125 -0.823476,-1.45584 -1.646897,-2.91158 -2.47037,-4.36742 -1.236392,-1.97864 -2.472708,-3.95717 -3.709103,-5.93581 -0.483323,-2.26216 -0.966616,-4.52417 -1.449937,-6.78632 0.351486,-2.27873 0.702951,-4.55733 1.054439,-6.83607 0.33452,-1.30431 0.669019,-2.60854 1.003536,-3.91284 0.656155,-1.29419 1.312292,-2.58834 1.968436,-3.88251 0.421534,-0.21496 0.843067,-0.42992 1.264602,-0.64488 -0.239927,0.25104 -0.479854,0.50208 -0.719781,0.75312 -0.167352,1.02182 -0.334701,2.04363 -0.502053,3.06546 1.262854,0.92227 2.525695,1.84452 3.788545,2.76679 1.621467,-0.31182 3.24287,-0.62363 4.864305,-0.93545 -0.124728,-1.87092 -0.249451,-3.74177 -0.374177,-5.61266 1.559103,-3.1182 3.118145,-6.23629 4.677218,-9.35443 0.514503,-0.90524 1.028976,-1.81043 1.54348,-2.71568 1.527924,-1.83524 3.055749,-3.67037 4.583671,-5.50562 2.868755,-1.55685 5.737375,-3.11363 8.60608,-4.67045 0.715996,-0.10479 1.431986,-0.20957 2.147979,-0.31435 0.671577,-0.15046 1.343156,-0.30091 2.014745,-0.45137 -1.527909,1.23795 -3.055754,2.47585 -4.583673,3.71381 0.359645,2.18085 0.71927,4.36158 1.078916,6.54244 1.509064,1.31312 3.018029,2.62616 4.527095,3.93928 0.685415,1.78881 1.370782,3.5775 2.056195,5.36631 0.877757,1.32885 1.755463,2.65763 2.633216,3.98648 0.765786,0.3454 1.531531,0.69077 2.297321,1.03616 0.448464,0.0522 0.896898,0.10437 1.345363,0.15655 0.698993,-0.73732 1.397931,-1.47457 2.096925,-2.21189 0.484528,-1.15407 0.969021,-2.30806 1.453545,-3.46212 -0.451683,-0.84292 -0.903333,-1.68578 -1.355016,-2.5287 0.188037,0.0885 0.376065,0.17696 0.564102,0.26544 0.826325,0.94688 1.652617,1.89371 2.478926,2.84057 1.060191,1.74619 2.120339,3.49232 3.180506,5.23848 0.561279,1.49674 1.122535,2.99342 1.683801,4.49013 0.187092,2.61929 0.374176,5.23848 0.561266,7.85772 -0.311823,2.24512 -0.623631,4.49014 -0.935445,6.73521 -0.717777,2.49603 -1.43552,4.99193 -2.153298,7.48796 -1.778657,2.24376 -3.557215,4.4874 -5.33588,6.73117 -2.998635,0.54391 -5.997096,1.0878 -8.995712,1.63172 -3.212987,0.31003 -6.425877,0.62005 -9.638817,0.93008 -2.595393,-0.3429 -3.893088,-0.51434 -7.786176,-1.02869 -1.023441,-0.18597 -1.364586,-0.24796 -2.046882,-0.37194 z"
         inkscape:path-effect="#path-effect119"
         clip-path="url(#clipPath17)" /><path
         style="display:inline;opacity:0.403846;fill:#ffdb59;fill-opacity:1;stroke:none;stroke-width:2.492;stroke-dasharray:none;stroke-opacity:1"
         d="m 34.862397,286.09399 c -0.639095,-0.16129 -1.917254,-0.48387 -3.3956,-0.97383 -1.478347,-0.48995 -3.156784,-1.14725 -4.38102,-2.04773 -1.224236,-0.90049 -1.994239,-2.04414 -3.26557,-4.34262 -1.271331,-2.29849 -3.043923,-5.75169 -2.726423,-9.3137 0.317499,-3.56201 2.72502,-7.23241 4.373362,-9.39611 1.648342,-2.16371 2.537349,-2.82049 3.50105,-3.41191 0.963702,-0.59141 2.002095,-1.11746 2.006396,-0.78491 0.0043,0.33256 -1.025474,1.52369 -1.834586,3.07247 -0.809112,1.54878 -1.397486,3.45505 -0.698243,4.64304 0.699244,1.188 2.686068,1.6576 4.632633,0.13238 1.946564,-1.52522 3.852726,-5.04508 5.185069,-8.34313 1.332344,-3.29806 2.090717,-6.37393 3.070872,-8.57402 0.980155,-2.2001 2.181992,-3.52417 3.094745,-4.52922 0.912752,-1.00506 1.536369,-1.69104 1.941728,-2.15876 0.405358,-0.46772 0.592445,-0.71717 0.531646,0.31595 -0.0608,1.03312 -0.369468,3.34867 -0.08348,5.35788 0.285989,2.00922 1.166603,3.71187 2.429339,5.30058 1.262736,1.58872 2.907457,3.06333 4.766437,4.44483 1.85898,1.38151 3.932002,2.66976 5.471734,4.11695 1.539732,1.4472 2.545976,3.05316 3.279218,4.73063 0.733241,1.67748 1.193375,3.42623 1.289271,5.46889 0.0959,2.04266 -0.172463,4.379 -0.359066,6.6885 -0.186603,2.30951 -0.291436,4.59199 -2.054002,6.27804 -1.762566,1.68605 -5.182683,2.77547 -8.36708,3.33335 -3.184396,0.55789 -6.13281,0.58419 -8.600189,0.61362 -2.467379,0.0294 -4.453665,0.062 -5.901683,-0.0141 -1.448018,-0.0761 -2.357736,-0.26092 -2.812601,-0.35333 -0.454865,-0.0924 -0.454865,-0.0924 -1.093959,-0.25372 z"
         id="path119"
         transform="matrix(0.1906692,0,0,0.1906692,98.723043,95.905536)"
         sodipodi:nodetypes="cccccccccccccccccccccccccccc"
         inkscape:original-d="m 35.501491,286.25528 c -1.27819,-0.32258 -2.556348,-0.64516 -3.834552,-0.96775 -1.678489,-0.65732 -3.356926,-1.31462 -5.035389,-1.97193 -0.770008,-1.14366 -1.540011,-2.28731 -2.310023,-3.43097 -1.772652,-3.45331 -3.54524,-6.90651 -5.317925,-10.35988 2.407678,-3.67065 4.815202,-7.34105 7.222858,-11.01166 0.889026,-0.6568 1.778035,-1.31358 2.667039,-1.97036 1.0384,-0.52605 2.076794,-1.0521 3.115199,-1.57816 -1.029804,1.19117 -2.05958,2.3823 -3.089397,3.57348 -0.588405,1.90638 -1.176781,3.81265 -1.765185,5.71902 1.98689,0.46962 3.973715,0.93922 5.960578,1.40883 1.906267,-3.52005 3.812426,-7.03991 5.718694,-10.55996 0.758419,-3.07606 1.516795,-6.15193 2.275215,-9.22799 1.201887,-1.32413 2.403727,-2.6482 3.605588,-3.9723 0.623642,-0.68601 1.247259,-1.37199 1.870887,-2.05798 0.187093,-0.24945 0.374177,-0.4989 0.561266,-0.74835 -0.308687,2.31569 -0.617355,4.63124 -0.926042,6.94692 0.880664,1.70275 1.761278,3.4054 2.641939,5.10814 1.644812,1.47469 3.289532,2.9493 4.934347,4.42399 2.073146,1.28832 4.146171,2.57656 6.21932,3.86489 1.00631,1.60607 2.012553,3.21203 3.018871,4.8181 0.460168,1.74888 0.9203,3.49763 1.380467,5.2465 -0.268373,2.33645 -0.536732,4.67279 -0.805098,7.00918 -0.10484,2.28262 -0.209673,4.5651 -0.314513,6.84772 -3.420294,1.08947 -6.840411,2.17889 -10.260697,3.26837 -2.948505,0.0263 -5.896919,0.0526 -8.845379,0.0789 -1.986297,0.0326 -3.972585,0.0651 -5.958892,0.0977 -0.909729,-0.1848 -1.819446,-0.36961 -2.729176,-0.55442 z"
         inkscape:path-effect="#path-effect120"
         clip-path="url(#clipPath16)" /></g></g></svg>
