<?xml version="1.0" encoding="UTF-8"?>
<svg xmlns="http://www.w3.org/2000/svg" viewBox="0 0 34 34">
  <defs>
    <linearGradient id="oxidizedRim" x1="0%" y1="0%" x2="100%" y2="100%"><stop offset="0%" stop-color="#497169" /><stop offset="35%" stop-color="#2d4843" /><stop offset="70%" stop-color="#1c2f2c" /><stop offset="100%" stop-color="#141e1c" /></linearGradient>
    <radialGradient id="crackedJade" cx="45%" cy="45%" r="55%"><stop offset="0%" stop-color="#9bf6cd" /><stop offset="50%" stop-color="#286e58" /><stop offset="90%" stop-color="#11372a" /><stop offset="100%" stop-color="#081e16" /></radialGradient>
    <filter id="decayGlow" x="-20%" y="-20%" width="140%" height="140%"><feGaussianBlur stdDeviation="5" result="blur" /><feComposite in="SourceGraphic" in2="blur" operator="over" /></filter>
    <filter id="mossBlur" x="-10%" y="-10%" width="120%" height="120%"><feGaussianBlur stdDeviation="3.5" result="blur" /><feComposite in="SourceGraphic" in2="blur" operator="over" /></filter>
  </defs>
  <g transform="translate(17, 17) rotate(-90) scale(0.26)">
    <circle cx="0" cy="0" r="61" fill="#020806" opacity="0.5" filter="url(#decayGlow)" />
    <circle cx="0" cy="0" r="56" fill="url(#oxidizedRim)" stroke="#090f0d" stroke-width="5" />
    <circle cx="0" cy="0" r="47" fill="#111d19" stroke="#090f0d" stroke-width="2" />
    <circle cx="0" cy="0" r="51" fill="none" stroke="#5a8278" stroke-dasharray="8 6" stroke-width="2" opacity="0.6" />
    <path d="M 0,-13 C 0,-13 -10,-24 -20,-14 C -28,-4 -15,13 0,23 C 15,13 28,-4 20,-14 C 10,-24 0,-13 0,-13 Z" fill="url(#crackedJade)" filter="url(#decayGlow)" />
    <path d="M -10,-10 Q 0,-3 5,10" fill="none" stroke="#9bf6cd" stroke-width="1.2" opacity="0.6" />
    <path d="M 12,-8 Q 5,0 -2,12" fill="none" stroke="#9bf6cd" stroke-width="1" opacity="0.5" />
    <path d="M -30,-30 C -25,-35 -15,-30 -20,-20" fill="none" stroke="#4d6f46" stroke-width="4" stroke-linecap="round" opacity="0.8" filter="url(#mossBlur)" />
    <path d="M 0,-44 Q 0,-25 0,-18" stroke="url(#oxidizedRim)" stroke-width="9" stroke-linecap="round" fill="none" />
    <path d="M 0,-44 Q 0,-25 0,-18" stroke="#090f0d" stroke-width="1" stroke-linecap="round" fill="none" />
    <path d="M -5,-44 Q 0,-33 5,-44" stroke="#7da298" stroke-width="2.5" fill="none" />
    <path d="M -35,-28 Q -20,-16 -14,-10" stroke="url(#oxidizedRim)" stroke-width="8" stroke-linecap="round" fill="none" />
    <path d="M -37,-25 Q -27,-21 -33,-31" stroke="#7da298" stroke-width="2.5" fill="none" />
    <path d="M 35,-28 Q 20,-16 14,-10" stroke="url(#oxidizedRim)" stroke-width="8" stroke-linecap="round" fill="none" />
    <path d="M 37,-25 Q 27,-21 33,-31" stroke="#7da298" stroke-width="2.5" fill="none" />
  </g>
</svg>