<?xml version="1.0" encoding="UTF-8"?>
<svg xmlns="http://www.w3.org/2000/svg" viewBox="0 0 90 90">
  <defs>
    <linearGradient id="oxidizedRim" x1="0%" y1="0%" x2="100%" y2="100%"><stop offset="0%" stop-color="#497169" /><stop offset="35%" stop-color="#2d4843" /><stop offset="70%" stop-color="#1c2f2c" /><stop offset="90%" stop-color="#804a25" /><stop offset="100%" stop-color="#141e1c" /></linearGradient>
    <linearGradient id="decayedBronze" x1="0%" y1="100%" x2="0%" y2="0%"><stop offset="0%" stop-color="#141e1c" /><stop offset="50%" stop-color="#3c5b54" /><stop offset="100%" stop-color="#699388" /></linearGradient>
    <linearGradient id="scaleJade" x1="0%" y1="0%" x2="0%" y2="100%"><stop offset="0%" stop-color="#44554f" /><stop offset="100%" stop-color="#222b27" /></linearGradient>
    <radialGradient id="stoneDepth" cx="50%" cy="40%" r="60%"><stop offset="0%" stop-color="#a4c2b9" stop-opacity="0.1" /><stop offset="65%" stop-color="#0c1614" stop-opacity="0.5" /><stop offset="100%" stop-color="#050a09" stop-opacity="0.95" /></radialGradient>
    <radialGradient id="paleEye" cx="50%" cy="50%" r="50%"><stop offset="0%" stop-color="#f0f5f4" /><stop offset="40%" stop-color="#afc4bf" /><stop offset="75%" stop-color="#556c67" /><stop offset="100%" stop-color="#182422" /></radialGradient>
    <filter id="mossBlur" x="-10%" y="-10%" width="120%" height="120%"><feGaussianBlur stdDeviation="3.5" result="blur" /><feComposite in="SourceGraphic" in2="blur" operator="over" /></filter>
    <filter id="decayGlow" x="-20%" y="-20%" width="140%" height="140%"><feGaussianBlur stdDeviation="5" result="blur" /><feComposite in="SourceGraphic" in2="blur" operator="over" /></filter>
    <pattern id="decayedScales" width="30" height="15" patternUnits="userSpaceOnUse"><path d="M 0 15 A 15 15 0 0 1 30 15 Z" fill="url(#scaleJade)" stroke="#17221e" stroke-width="1.3" /><path d="M -15 7.5 A 15 15 0 0 1 15 7.5 Z" fill="url(#scaleJade)" stroke="#17221e" stroke-width="1.3" /><path d="M 15 7.5 A 15 15 0 0 1 45 7.5 Z" fill="url(#scaleJade)" stroke="#17221e" stroke-width="1.3" /></pattern>
  </defs>
  <g transform="translate(45, 45) rotate(-90) scale(0.26) translate(-250, -220)">
    <circle cx="250" cy="220" r="165" fill="#020806" opacity="0.6" filter="url(#decayGlow)" />
    <circle cx="250" cy="220" r="160" fill="url(#oxidizedRim)" stroke="#0b110f" stroke-width="6" />
    <circle cx="250" cy="220" r="152" fill="none" stroke="#162421" stroke-width="2.5" />
    <circle cx="250" cy="220" r="148" fill="url(#decayedScales)" />
    <circle cx="250" cy="220" r="148" fill="url(#stoneDepth)" />
    <path d="M 115,140 C 130,130 145,145 155,135 C 160,150 140,165 125,160 Z" fill="#4d6f46" opacity="0.8" filter="url(#mossBlur)" />
    <path d="M 118,143 C 125,138 135,148 142,142 C 145,152 132,160 124,156 Z" fill="#7ba36a" opacity="0.9" filter="url(#mossBlur)" />
    <path d="M 285,300 C 300,290 310,310 325,305 C 315,320 290,325 285,300 Z" fill="#3c5936" opacity="0.85" filter="url(#mossBlur)" />
    <path d="M 330,160 C 340,150 355,160 360,170 C 350,180 335,175 330,160 Z" fill="#43613d" opacity="0.75" filter="url(#mossBlur)" />
    <path d="M 165,130 L 185,155 L 178,170 L 195,192" fill="none" stroke="#090f0d" stroke-width="3" stroke-linecap="round" stroke-linejoin="round" />
    <path d="M 320,120 L 305,145 L 312,160 L 300,185" fill="none" stroke="#090f0d" stroke-width="3.2" stroke-linecap="round" stroke-linejoin="round" />
    <path d="M 220,290 L 232,318 L 222,335" fill="none" stroke="#090f0d" stroke-width="3.5" stroke-linecap="round" stroke-linejoin="round" />
    <g transform="translate(250, 75) scale(0.65)">
      <path d="M -25,-10 C -15,-30 -5,-35 0,-15 C 5,-35 15,-30 25,-10 C 15,-5 5,-2 0,10 C -5,-2 -15,-5 -25,-10 Z" fill="url(#decayedBronze)" stroke="#090f0d" stroke-width="2.5" />
      <path d="M -12,-15 L 0,-30 L 12,-15 L 0,0 Z" fill="#13201c" stroke="#090f0d" stroke-width="1.5" />
      <path d="M -25,-10 Q -45,-15 -55,-5 Q -35,5 -20,-3" fill="none" stroke="url(#decayedBronze)" stroke-width="4" stroke-linecap="round" />
      <path d="M 25,-10 Q 45,-15 55,-5 Q 35,5 20,-3" fill="none" stroke="url(#decayedBronze)" stroke-width="4" stroke-linecap="round" />
    </g>
    <path d="M 125,220 C 175,150 325,150 375,220 C 325,290 175,290 125,220 Z" fill="url(#oxidizedRim)" stroke="#090f0d" stroke-width="6" stroke-linejoin="round" />
    <path d="M 135,220 C 180,165 320,165 365,220 C 320,275 180,275 135,220 Z" fill="#111c19" stroke="#040706" stroke-width="2" />
    <path d="M 142,220 C 182,175 318,175 358,220 C 318,265 182,265 142,220 Z" fill="url(#paleEye)" />
    <path d="M 250,182 C 253,205 253,235 250,258 C 245,235 245,205 250,182 Z" fill="#192824" opacity="0.85" />
    <ellipse cx="235" cy="205" rx="5" ry="10" fill="#ffffff" opacity="0.35" transform="rotate(-15 235 205)" />
    <circle cx="265" cy="230" r="3" fill="#ffffff" opacity="0.2" />
  </g>
</svg>