<?xml version="1.0" encoding="UTF-8"?>
<svg xmlns="http://www.w3.org/2000/svg" viewBox="0 0 90 90">
  <defs>
    <linearGradient id="pewterSilver" x1="0%" y1="0%" x2="100%" y2="100%"><stop offset="0%" stop-color="#ffffff" /><stop offset="30%" stop-color="#a6a6a6" /><stop offset="70%" stop-color="#4d4d4d" /><stop offset="100%" stop-color="#1b1b1d" /></linearGradient>
    <radialGradient id="vampGlow" cx="50%" cy="45%" r="60%"><stop offset="0%" stop-color="#b01e23" /><stop offset="50%" stop-color="#450406" /><stop offset="100%" stop-color="#140001" /></radialGradient>
    <radialGradient id="vampEye" cx="50%" cy="50%" r="50%"><stop offset="0%" stop-color="#ffffff" /><stop offset="20%" stop-color="#ffb74d" /><stop offset="60%" stop-color="#d50000" /><stop offset="90%" stop-color="#5c0000" /><stop offset="100%" stop-color="#140001" /></radialGradient>
    <filter id="runeGlow" x="-20%" y="-20%" width="140%" height="140%"><feGaussianBlur stdDeviation="3" result="blur" /><feComposite in="SourceGraphic" in2="blur" operator="over" /></filter>
    <filter id="vampShadow" x="-20%" y="-20%" width="140%" height="140%"><feGaussianBlur stdDeviation="6" result="blur" /><feComposite in="SourceGraphic" in2="blur" operator="over" /></filter>
    <pattern id="vampScales" width="30" height="15" patternUnits="userSpaceOnUse"><path d="M 0 15 A 15 15 0 0 1 30 15 Z" fill="#8c1116" stroke="#2c0205" stroke-width="1.3" /><path d="M -15 7.5 A 15 15 0 0 1 15 7.5 Z" fill="#8c1116" stroke="#2c0205" stroke-width="1.3" /><path d="M 15 7.5 A 15 15 0 0 1 45 7.5 Z" fill="#8c1116" stroke="#2c0205" stroke-width="1.3" /></pattern>
  </defs>
  <g transform="translate(45, 45) rotate(-90) scale(0.26) translate(-250, -220)">
    <circle cx="250" cy="220" r="165" fill="#140001" opacity="0.65" filter="url(#vampShadow)" />
    <circle cx="250" cy="220" r="160" fill="url(#pewterSilver)" stroke="#110e10" stroke-width="6" />
    <circle cx="250" cy="220" r="152" fill="none" stroke="#2d2a2d" stroke-width="2.5" />
    <circle cx="250" cy="220" r="148" fill="url(#vampGlow)" />
    <circle cx="250" cy="220" r="148" fill="url(#vampScales)" opacity="0.82" />
    <g stroke="#eae5df" stroke-width="2.5" stroke-linecap="round" stroke-linejoin="round" opacity="0.85" filter="url(#runeGlow)">
      <path d="M 170,120 L 170,135 M 170,120 L 178,127 L 170,127 M 170,127 L 178,135" />
      <path d="M 330,120 L 330,135 M 330,120 L 322,127 L 330,127 M 330,127 L 322,135" />
      <path d="M 250,110 L 250,125 M 244,117 L 250,113 L 256,117" />
      <path d="M 200,160 L 200,175 M 200,160 L 208,168 L 200,168 M 200,168 L 208,175" />
      <path d="M 300,160 L 300,175 M 300,160 L 292,168 L 300,168 M 300,168 L 292,175" />
      <path d="M 195,270 L 207,285 M 207,270 L 195,285 M 195,270 L 207,270 M 195,285 L 207,285" />
      <path d="M 305,270 L 293,285 M 293,270 L 305,285 M 305,270 L 293,270 M 305,285 L 293,285" />
      <path d="M 244,320 L 250,314 L 256,320 L 250,326 Z M 244,320 L 241,326 M 256,320 L 259,326" />
    </g>
    <g transform="translate(250, 72) scale(0.68)">
      <path d="M -30,10 C -55,0 -75,20 -60,40 C -45,25 -35,18 -15,14 Z" fill="url(#pewterSilver)" stroke="#110e10" stroke-width="2" />
      <path d="M 30,10 C 55,0 75,20 60,40 C 45,25 35,18 15,14 Z" fill="url(#pewterSilver)" stroke="#110e10" stroke-width="2" />
      <path d="M -15,-5 L -26,-25 L -10,-10 Z" fill="url(#pewterSilver)" stroke="#110e10" stroke-width="2.5" />
      <path d="M 15,-5 L 26,-25 L 10,-10 Z" fill="url(#pewterSilver)" stroke="#110e10" stroke-width="2.5" />
      <path d="M -16,-5 C -10,12 10,12 16,-5 C 10,8 -10,8 -16,-5 Z" fill="url(#pewterSilver)" stroke="#110e10" stroke-width="2.5" />
      <path d="M -8,5 L -6,1 L 0,3 L 6,1 L 8,5 Z" fill="#ffffff" />
      <circle cx="-5" cy="-2" r="2" fill="#ff1744" />
      <circle cx="5" cy="-2" r="2" fill="#ff1744" />
      <path d="M -14,-15 L -20,-30 L -10,-22 L 0,-34 L 10,-22 L 20,-30 L 14,-15 Z" fill="url(#pewterSilver)" stroke="#110e10" stroke-width="2" />
      <circle cx="-20" cy="-32" r="2.5" fill="#ff1744" />
      <circle cx="0" cy="-36" r="3" fill="#ff1744" />
      <circle cx="20" cy="-32" r="2.5" fill="#ff1744" />
    </g>
    <path d="M 125,220 C 175,150 325,150 375,220 C 325,290 175,290 125,220 Z" fill="url(#pewterSilver)" stroke="#110e10" stroke-width="6" stroke-linejoin="round" />
    <path d="M 135,220 C 180,165 320,165 365,220 C 320,275 180,275 135,220 Z" fill="#140203" stroke="#050101" stroke-width="2" />
    <path d="M 142,220 C 182,175 318,175 358,220 C 318,265 182,265 142,220 Z" fill="url(#vampEye)" />
    <path d="M 250,182 C 255,205 255,235 250,258 C 245,235 245,205 250,182 Z" fill="#000000" />
    <ellipse cx="235" cy="205" rx="5" ry="10" fill="#ffffff" opacity="0.65" transform="rotate(-15 235 205)" />
    <circle cx="265" cy="230" r="3" fill="#ffffff" opacity="0.45" />
  </g>
</svg>