<?xml version="1.0" encoding="UTF-8"?>
<svg xmlns="http://www.w3.org/2000/svg" viewBox="0 0 34 34">
  <defs>
    <linearGradient id="pewterSilver" x1="0%" y1="0%" x2="100%" y2="100%"><stop offset="0%" stop-color="#ffffff" /><stop offset="30%" stop-color="#a6a6a6" /><stop offset="70%" stop-color="#4d4d4d" /><stop offset="100%" stop-color="#18181a" /></linearGradient>
    <linearGradient id="gunmetal" x1="0%" y1="0%" x2="100%" y2="100%"><stop offset="0%" stop-color="#555d65" /><stop offset="50%" stop-color="#2d3238" /><stop offset="100%" stop-color="#0e1012" /></linearGradient>
    <radialGradient id="rubyHeart" cx="45%" cy="45%" r="55%"><stop offset="0%" stop-color="#ff5252" /><stop offset="40%" stop-color="#ff1744" /><stop offset="80%" stop-color="#880e4f" /><stop offset="100%" stop-color="#210006" /></radialGradient>
    <filter id="vampShadow" x="-20%" y="-20%" width="140%" height="140%"><feGaussianBlur stdDeviation="6" result="blur" /><feComposite in="SourceGraphic" in2="blur" operator="over" /></filter>
  </defs>
  <g transform="translate(17, 17) rotate(-90) scale(0.26)">
    <circle cx="0" cy="0" r="61" fill="#140001" opacity="0.5" filter="url(#vampShadow)" />
    <circle cx="0" cy="0" r="56" fill="url(#gunmetal)" stroke="#110e10" stroke-width="5" />
    <circle cx="0" cy="0" r="47" fill="#161214" stroke="#110e10" stroke-width="2" />
    <circle cx="0" cy="0" r="51" fill="none" stroke="#a6a6a6" stroke-dasharray="8 6" stroke-width="2" opacity="0.6" />
    <path d="M 0,-13 C 0,-13 -10,-24 -20,-14 C -28,-4 -15,13 0,23 C 15,13 28,-4 20,-14 C 10,-24 0,-13 0,-13 Z" fill="url(#rubyHeart)" filter="url(#vampShadow)" />
    <path d="M 0,44 C -4,44 -10,32 -14,37 C -8,40 -4,38 0,42 C 4,38 8,40 14,37 C 10,32 4,44 0,44 Z" fill="url(#pewterSilver)" stroke="#110e10" stroke-width="1" />
    <path d="M 0,-44 Q 0,-25 0,-18" stroke="url(#pewterSilver)" stroke-width="9" stroke-linecap="round" fill="none" />
    <path d="M 0,-44 Q 0,-25 0,-18" stroke="#110e10" stroke-width="1" stroke-linecap="round" fill="none" />
    <path d="M -5,-44 Q 0,-33 5,-44" stroke="#ffffff" stroke-width="2.5" fill="none" />
    <path d="M -35,-28 Q -20,-16 -14,-10" stroke="url(#pewterSilver)" stroke-width="8" stroke-linecap="round" fill="none" />
    <path d="M -37,-25 Q -27,-21 -33,-31" stroke="#ffffff" stroke-width="2.5" fill="none" />
    <path d="M 35,-28 Q 20,-16 14,-10" stroke="url(#pewterSilver)" stroke-width="8" stroke-linecap="round" fill="none" />
    <path d="M 37,-25 Q 27,-21 33,-31" stroke="#ffffff" stroke-width="2.5" fill="none" />
  </g>
</svg>