<?xml version="1.0" encoding="UTF-8" standalone="no"?>
<!-- Created with Inkscape (http://www.inkscape.org/) -->

<svg
   width="90"
   height="90"
   viewBox="0 0 23.8125 23.8125"
   version="1.1"
   id="svg1"
   xml:space="preserve"
   sodipodi:docname="nuclear-svgrepo-com(2).svg"
   inkscape:version="1.3.2 (091e20e, 2023-11-25, custom)"
   xmlns:inkscape="http://www.inkscape.org/namespaces/inkscape"
   xmlns:sodipodi="http://sodipodi.sourceforge.net/DTD/sodipodi-0.dtd"
   xmlns="http://www.w3.org/2000/svg"
   xmlns:svg="http://www.w3.org/2000/svg"><sodipodi:namedview
     id="namedview1"
     pagecolor="#180023"
     bordercolor="#000000"
     borderopacity="0.25"
     inkscape:showpageshadow="2"
     inkscape:pageopacity="0.0"
     inkscape:pagecheckerboard="0"
     inkscape:deskcolor="#310047"
     inkscape:document-units="mm"
     inkscape:zoom="0.5539453"
     inkscape:cx="729.31389"
     inkscape:cy="1408.9839"
     inkscape:window-width="1920"
     inkscape:window-height="1017"
     inkscape:window-x="-8"
     inkscape:window-y="-8"
     inkscape:window-maximized="1"
     inkscape:current-layer="layer1" /><defs
     id="defs1" /><g
     inkscape:label="Layer 1"
     inkscape:groupmode="layer"
     id="layer1"
     transform="translate(-277.01874,-389.46668)"><g
       id="g6"><circle
         style="fill:#a48070;fill-opacity:1;fill-rule:evenodd;stroke:none;stroke-width:0.408344;stroke-linecap:round;stroke-linejoin:round;stroke-miterlimit:20"
         id="path74-8-9-11-9-6-0"
         cx="288.92499"
         cy="401.37292"
         r="11.90625" /><path
         id="path74-8-9-11-9-6-0-9"
         style="fill:#3a2f2c;fill-opacity:0.573529;fill-rule:evenodd;stroke:none;stroke-width:0.408344;stroke-linecap:round;stroke-linejoin:round;stroke-miterlimit:20"
         d="m 277.43158,398.26519 c -0.27916,1.01217 -0.40713,2.05829 -0.41231,3.10824 0.008,0.97184 0.11272,1.95245 0.35605,2.89337 0,0 0.5082,-1.78443 1.16478,-2.33164 0.65658,-0.54721 3.99435,-2.60804 2.99697,-3.4424 -0.99738,-0.83436 -2.26678,0.55936 -2.83492,0.0165 -0.56814,-0.54291 -1.27349,-0.24256 -1.27349,-0.24256 z"
         sodipodi:nodetypes="ccczzzcc" /><path
         id="path74-8-9-11-9-6-0-0"
         style="fill:#3a2f2c;fill-opacity:0.572059;fill-rule:evenodd;stroke:none;stroke-width:0.408344;stroke-linecap:round;stroke-linejoin:round;stroke-miterlimit:20"
         d="m 290.94193,389.64237 c 0,0 -0.27571,1.33424 0.0744,2.30838 0.35013,0.97414 2.19207,1.85532 2.38538,3.08715 0.42928,2.73553 -2.01396,2.83569 -0.93534,5.37849 1.90867,0.0465 3.31358,-0.57898 4.11602,-1.87069 0.80244,-1.29171 0.6744,-2.06318 1.19232,-2.3622 0.51792,-0.29902 1.57643,0.53456 2.36096,1.17829 -1.44818,-4.04287 -4.96129,-6.99261 -9.19376,-7.71942 z"
         sodipodi:nodetypes="czzczzccc" /><circle
         style="fill:#3a2f2c;fill-opacity:0.570588;stroke:none;stroke-width:1.5875;stroke-linecap:square;stroke-miterlimit:5"
         id="path2"
         cx="286.64474"
         cy="410.75647"
         r="1.3229166" /></g></g></svg>
