<svg xmlns="http://www.w3.org/2000/svg" xmlns:xlink="http://www.w3.org/1999/xlink" xml:space="preserve" width="90" height="90" viewBox="0 0 23.813 23.813"><defs><pattern xlink:href="#a" id="c" x="0" y="0" patternTransform="matrix(.61 0 0 .61 158.93 1369.14)" preserveAspectRatio="xMidYMid"/><pattern id="a" width="523.213" height="23.055" patternTransform="translate(199.213 1369.14)" patternUnits="userSpaceOnUse" preserveAspectRatio="xMidYMid" style="fill:#000"><path d="M1806.5-757.907v18.157c1.997.004 4.021-1.625 6.071-1.623 2.05-1.628 4.126.003 6.228.004 2.101 0 4.228-.228 6.38-.23 2.152-.23 4.33 3.714 6.531 3.711 2.205 3.713 4.434-.42 6.688-.424 2.252-.419 4.53.025 6.83.019 2.301.029 4.627-.962 6.976-.97 2.348-.956 4.72-.048 7.115-.057 2.396-.04 4.816.458 7.26.447 2.443.466 4.91 1.74 7.4 1.727 2.492 1.749 5.007-.582 7.545-.596 2.534-.57 5.09.281 7.668.266 2.58.294 5.182.347 7.806.33 2.624.362 5.27.516 7.938.497 2.668.532 5.357-.582 8.068-.602 2.707-.564 5.436.084 8.185.062 2.752.104 5.524.568 8.316.544 2.794.59 5.608-1.258 8.443-1.283 2.828-1.234 5.677-1.054 8.546-1.081 2.869-1.03 5.757-3.074 8.665-3.102 2.901-3.047 5.822 3.146 8.761 3.117 2.96 3.174 5.94-1.395 8.937-1.426 2.983-1.366 5.984.882 9.003.85 3.028.912 6.073 1.043 9.137 1.01 3.065 1.074 6.147-1.739 9.247-1.773 3.09-1.707 6.198 2.641 9.322 2.606 3.142 2.675 6.3 1.457 9.476 1.42 3.172 1.491 6.36-.21 9.566-.249 3.199-.174 6.414.853 9.646.813 3.236.89 6.488.89 9.756.849 3.269.93 6.553.958 9.854.915 3.3.999 6.617.576 9.948.53 3.33.62 6.676-.95 10.036-.996 3.353-.906 6.72.06 10.103.012 3.387.107 6.789.39 10.205.34 3.417.437 6.849-.257 10.294-.309 3.443-.206 6.899-.204 10.368-.258 3.47-.153 6.953 1.884 10.45 1.828 3.507 1.936 7.029-.075 10.562-.133 3.524-.02 7.06.37 10.609.311 3.551.427 7.115-1.374 10.69-1.435 3.566-1.315 7.144-3.513 10.733-3.576 3.576-3.452 7.164 4.448 10.763 4.384 3.647 4.509 7.305.894 10.975.827 3.649.958 7.309.215 10.98.147 3.666.28 7.343.424 11.03.355 3.69.49 7.39.23 11.1.158 3.708.298 7.426 1.012 11.154.938 3.734 1.083 7.477 1.945 11.23 1.869 3.76 2.017 7.53.344 11.308.266 3.767.42 7.544.348 11.33.267 3.785.426 7.58-.063 11.382-.146 3.8.017 7.607-.125 11.423-.211 3.815-.042 7.638.479 11.469.39 3.835.564 7.678 1.57 11.529 1.479 3.86 1.657 7.727-1.964 11.601-2.058 3.845-1.873 7.696-.311 11.555-.407 3.871-.22 7.75-2.682 11.633-2.78 3.863-2.587 7.732-.059 11.608-.158 3.897.039 7.8.695 11.709.593 3.915.795 7.836-.042 11.762-.146 3.92.059 7.845-.38 11.775-.485 3.927-.278 7.858-1.584 11.794-1.691 3.925-1.48 7.853 1.006 11.787.898 3.957 1.112 7.918-1.006 11.883-1.116 3.946-.898 7.896-2.811 11.85-2.922 3.935-2.702 7.874 2.527 11.816 2.417 3.993 2.636 7.99-1.163 11.988-1.276 3.964-1.05 7.93 1.704 11.9 1.591 3.996 1.815 7.996.569 11.997.453 3.99.682 7.984-1.245 11.978-1.362 3.977-1.13 7.955 2.212 11.935 2.095 4.014 2.326 8.03.72 12.047.6 4.003.838 8.007-.263 12.012-.385 3.994-.145 7.99-.657 11.985-.78 3.991-.538 7.983-1.94 11.974-2.064 3.977-1.817 7.955-.579 11.931-.704 3.991-.455 7.981-.824 11.971-.95 3.987-.698 7.973-1.778 11.958-1.905 3.974-1.652 7.947-.107 11.92-.234 3.989.02 7.977.123 11.963-.005 3.99.25 7.977-1.972 11.962-2.1 3.963-1.843 7.923.814 11.88.687 3.989.94 7.974 1.019 11.957.892 3.985 1.146 7.968-.42 11.947-.548 3.964-.293 7.925-2.17 11.882-2.297 3.938-2.044 7.873.882 11.804.757 3.964 1.008 7.923 2.583 11.88 2.457 3.974 2.71 7.945-.478 11.911-.606 3.934-.35 7.863-3.405 11.787-3.532 3.891-3.278 7.778-.002 11.659-.128 3.918.124 7.83 2.428 11.738 2.302 3.935 2.554 7.864.63 11.787.503 3.904.757 7.802 2.656 11.694 2.529 3.917 2.781 7.827-.398 11.73-.53 3.87-.27 7.733-2.304 11.59-2.436 3.832-2.175 7.658 1.944 11.476 1.811 3.87 2.073 7.73 1.131 11.585.995 3.846 1.264 7.684.29 11.515.15 3.82.424 7.634.292 11.438.15 3.806.43 7.602-.192 11.39-.338 3.782-.052 7.556-.277 11.32-.425 3.763-.134 7.516-.17 11.26-.321 3.746-.023 7.482-1.588 11.209-1.742 3.705-1.436 7.4-3.029 11.086-3.183 3.662-2.876 7.314.336 10.956.183 3.69.489 7.368.7 11.036.547 3.674.855 7.338.516 10.99.361 3.65.67 7.29-.882 10.918-1.037 3.607-.728 7.203 1.124 10.787.97 3.614 1.277 7.217-1.312 10.807-1.469 3.554-1.155 7.095-1.516 10.624-1.671 3.525-1.36 7.037-.574 10.536-.728 3.513-.419 7.014 1.795 10.5 1.642 3.525 1.95 7.035 1.693 10.532 1.538 3.499 1.846 6.984 1.175 10.455 1.017 3.467 1.33 6.92-.352 10.36-.515 3.414-.195 6.814-.222 10.2-.388 3.387-.062 6.76.013 10.117-.158q5.043.265 10.04 0c3.335.345 6.655 1.282 9.96 1.102 3.328 1.453 6.64-.26 9.937-.449 3.268-.08 6.52-.455 9.755-.648 3.23-.27 6.443-2.973 9.64-3.172 3.134-2.779 6.254-4.09 9.356-4.284 3.074-3.892 6.132-.048 9.173-.228 3.125.144 6.233 1.493 9.323 1.319 3.122 1.682 6.226.153 9.311-.018 3.062.334 6.105 1.269 9.13 1.102 3.05 1.44 6.08-.04 9.093-.21 2.988.128 5.958-2.161 8.909-2.333 2.903-1.99 5.788-.331 8.654-.495 2.901-.16 5.783-.02 8.646-.179 2.869.148 5.718-.808 8.547-.962 2.814-.645 5.608-.1 8.382-.246 2.787.057 5.554-.01 8.3-.15 2.748.139 5.476.763 8.182.63 2.723.903 5.424.103 8.104-.035 2.67.238 5.318-1.656 7.944-1.799 2.589-1.518 5.156 1 7.702.872 2.597 1.143 5.172-1.203 7.724-1.338 2.509-1.07 4.996.026 7.461-.094 2.488.164 4.952 2.602 7.394 2.488 2.514 2.723 5.003 1.368 7.467 1.194 2.484 1.46 4.942.162 7.375-.1 2.391.305 4.758-.868 7.1-1.2 2.253-.624 4.483-2.558 6.689-2.896 2.1-2.225 4.177-.34 6.234-.543 2.188.023 4.351-1.859 6.49-1.994 2.164-1.609 4.303 1.935 6.416 2.083 2.113 2.153 4.2.144 6.262-.171 2.016-.308 4.007-.904 5.973-.904-1.998 0-4.022 1.15-6.072 1.149-2.05 1.148-4.127-1.006-6.23-1.01-2.1-1.005-4.227.184-6.38.179-2.152.186-4.33-.446-6.533-.452-2.202-.442-4.429 1.129-6.68 1.12-2.254 1.135-4.532 1.598-6.835 1.588-2.303 1.605-4.631-1.246-6.983-1.257-2.347-1.237-4.718 1.018-7.113 1.005-2.398 1.028-4.82.234-7.266.22-2.444.246-4.91.876-7.401.86-2.492.889-5.006-.57-7.543-.588-2.534-.554-5.09.701-7.668.682-2.581.718-5.185.826-7.81.804-2.626.845-5.274.008-7.943-.016-2.667.029-5.356-.569-8.065-.594-2.708-.546-5.437-1.365-8.186-1.392-2.747-1.342-5.514.053-8.302.025-2.792.079-5.605.846-8.437.816-2.836.873-5.692.044-8.567.013-2.873.072-5.766.934-8.677.902-2.916.965-5.85-.897-8.804-.932-2.947-.864-5.912.31-8.896.274-2.99.343-5.997 1.038-9.023 1-3.03 1.073-6.077.451-9.143.412-3.063.488-6.144 2.341-9.243 2.3-3.108 2.38-6.233-1.996-9.376-2.04-3.123-1.956-6.264-.245-9.42-.289-3.166-.204-6.348-.498-9.546-.544-3.198-.454-6.412-.143-9.642-.19-3.232-.1-6.48.153-9.744.104-3.265.2-6.546-.022-9.843-.073-3.296.026-6.608-.562-9.935-.614-3.324-.513-6.663-1.17-10.017-1.224-3.35-1.12-6.716-.007-10.096-.06-3.386.045-6.787-1.122-10.202-1.177-3.409-1.067-6.832-1.366-10.268-1.422-3.436-1.31-6.885 3.229-10.347 3.172-3.488 3.284-6.99-.848-10.505-.907-3.492-.791-6.998-.212-10.516-.272-3.521-.154-7.056.378-10.603.317-3.55.437-7.113.743-10.688.681-3.577.804-7.166.51-10.767.447-3.6.571-7.212-1.268-10.835-1.332-3.612-1.206-7.236 3.545-10.87 3.48-3.665 3.609-7.34-1.589-11.026-1.656-3.655-1.523-7.32-.975-10.996-1.044-3.68-.909-7.37-.144-11.069-.213-3.705-.076-7.42-4.636-11.144-4.707-3.696-4.566-7.401 3.743-11.116 3.672-3.768 3.812-7.545-.107-11.332-.18-3.762-.034-7.533-.873-11.313-.946-3.774-.802-7.558-1.454-11.35-1.528-3.787-1.381-7.583.145-11.387.07-3.814.22-7.636 1.83-11.466 1.754-3.841 1.903-7.69-.1-11.546-.177-3.843-.025-7.694 1.336-11.552 1.259-3.867 1.41-7.741 1.523-11.622 1.445-3.883 1.599-7.772-.117-11.667-.197-3.885-.038-7.775-.646-11.672-.727-3.892-.568-7.79-.495-11.695-.577a139 139 0 0 0-11.73-.76c-3.915-.594-7.834 1.379-11.758 1.294-3.94 1.462-7.884 1.82-11.832 1.734-3.953 1.905-7.91.78-11.871.692-3.954.866-7.913 1.313-11.875 1.223-3.966 1.4-7.937-.323-11.91-.416-3.962-.233-7.927 1.932-11.895 1.838-3.987 2.022-7.977 2.36-11.97 2.263-3.997 2.454-7.998.91-12.001.81-3.992 1.005-7.987-3.432-11.983-3.536-3.957-3.332-7.916 2.75-11.877 2.645-4.017 2.851-8.035-1.607-12.055-1.717-3.98-1.5-7.96.128-11.943.016-3.998.236-7.997 2.446-11.996 2.331-4.024 2.557-8.049-3.181-12.073-3.3-3.968-3.067-7.936 1.798-11.904 1.678-4.018 1.913-8.037-1.017-12.055-1.142-3.99-.896-7.978 1.546-11.966 1.42-4.016 1.667-8.03 1.073-12.045.942-4.01 1.2-8.02-.393-12.028-.526-3.991-.265-7.981-.81-11.97-.947-3.983-.678-7.964-.862-11.943-1-3.977-.728-7.953-.19-11.926-.331-3.98-.051-7.959-2.505-11.934-2.65-3.946-2.363-7.888-.103-11.828-.248-3.969.038-7.934-1.947-11.896-2.094-3.939-1.802-7.873-.157-11.804-.304-3.953-.011-7.903-1.036-11.848-1.184-3.933-.89-7.863-.319-11.788-.466-3.934-.171-7.863.883-11.788.735-3.94 1.03-7.875-.107-11.806-.255-3.917.041-7.83-.347-11.737-.496-3.904-.199-7.802-1.03-11.694-1.178-3.884-.88-7.76 1.11-11.632.962-3.9 1.258-7.792-.728-11.679-.878-3.862-.578-7.718-.508-11.567-.658-3.851-.359-7.696.56-11.533.41-3.852.708-7.696-.247-11.533-.398-3.826-.097-7.645-.84-11.455-.991-3.803-.69-7.597 1.313-11.383 1.163-3.816 1.463-7.623-.302-11.422-.454-3.777-.152-7.545.309-11.305.157-3.768.46-7.527.396-11.276.242-3.752.548-7.494-.448-11.226-.603-3.72-.296-7.431.303-11.132.147-3.712.457-7.413-1.334-11.104-1.492-3.667-1.177-7.323 3.152-10.969 2.994-3.714 3.305-7.417-1.926-11.11-2.09-3.615-1.765-7.22.686-10.812.524-3.634.844-7.255-1.033-10.865-1.199-3.582-.869-7.153.048-10.71-.119-3.576.212-7.14-1.881-10.69-2.05-3.517-1.713-7.022-.365-10.515-.532-3.516-.2-7.02.55-10.51.383-3.506.718-6.999-.503-10.478-.67-3.462-.335-6.91-.343-10.345-.51-3.437-.175-6.86-1.51-10.268-1.677-3.389-1.343-6.763.184-10.122.021-3.388.35-6.761-1.282-10.12-1.444-3.333-1.117-6.652-.543-9.956-.7-3.315-.38-6.615-4.213-9.9-4.366-3.228-4.05-6.44.833-9.638.694-3.275.986-6.533-1.073-9.775-1.205-3.216-.925-6.416-1.91-9.599-2.03-3.176-1.772-6.336 1.044-9.478.937-3.178 1.17-6.338-.7-9.48-.797-3.125-.587-6.233.265-9.323.18-3.099.368-6.18-4.538-9.243-4.614-3.035-4.447-6.051 1.346-9.05 1.293-3.038 1.433-6.058.524-9.059.487-2.993.585-5.967-.816-8.923-.84-2.953-.773-5.886 2.337-8.8 2.327-2.915 2.369-5.81.342-8.684.334-2.872.353-5.725-.836-8.557-.844-2.832-.828-5.644.832-8.436.829-2.792.842-5.563.226-8.314.222-2.75.228-5.48-.016-8.19-.023-2.708-.013-5.395.149-8.062.14-2.666.155-5.311.017-7.934.003-2.623.026-5.224-1.117-7.803-1.133-2.578-1.106-5.134.692-7.667.687-2.535.713-5.047-.805-7.537-.811-2.49-.801-4.957-1.955-7.4-1.948-2.465-1.943-4.906.672-7.324.734-2.394.688-4.765 1.193-7.112 1.276-2.332 1.14-4.64 1.778-6.925 1.838-2.303 1.686-4.583 1.292-6.837 1.257-2.305 1.192-4.583.045-6.836-.136-2.214.03-4.403-.818-6.566-1.08-2.103-.655-4.181 3.306-6.235 3.112-2.368 3.567-4.702-1.639-7.004-2.804-1.765-.894-3.51-2.255-5.236-2.255v7.821zm-30.368 33.453v18.157c1.998.003 4.022-1.625 6.072-1.623 2.05-1.628 4.126.003 6.228.004 2.101 0 4.228-.229 6.38-.23 2.152-.23 4.33 3.713 6.532 3.71 2.204 3.714 4.433-.42 6.687-.424 2.253-.418 4.53.026 6.83.02 2.301.028 4.627-.962 6.976-.97 2.348-.957 4.72-.048 7.115-.057 2.396-.041 4.816.458 7.26.447 2.443.466 4.91 1.739 7.4 1.726 2.492 1.75 5.008-.581 7.545-.595 2.534-.57 5.09.281 7.668.266 2.58.294 5.182.347 7.806.33 2.624.362 5.27.515 7.938.496 2.668.533 5.357-.581 8.068-.602 2.707-.563 5.436.084 8.186.062 2.75.104 5.523.568 8.315.545 2.794.589 5.608-1.258 8.443-1.283 2.829-1.235 5.677-1.054 8.546-1.081 2.869-1.03 5.757-3.074 8.665-3.102 2.902-3.047 5.822 3.146 8.761 3.117 2.96 3.173 5.94-1.395 8.937-1.426 2.983-1.367 5.984.882 9.003.85 3.028.912 6.074 1.043 9.137 1.01 3.065 1.074 6.147-1.74 9.247-1.774 3.09-1.706 6.198 2.642 9.323 2.607 3.141 2.675 6.3 1.456 9.476 1.42 3.171 1.49 6.36-.21 9.565-.25 3.199-.173 6.414.854 9.646.814 3.236.89 6.488.89 9.756.849 3.269.93 6.553.958 9.854.914 3.3 1 6.617.577 9.948.531 3.33.62 6.676-.95 10.036-.997 3.353-.906 6.72.061 10.103.012 3.387.107 6.789.39 10.205.34 3.417.438 6.849-.256 10.294-.308 3.443-.206 6.899-.204 10.368-.258 3.47-.153 6.953 1.883 10.45 1.828 3.508 1.936 7.029-.075 10.563-.133 3.523-.02 7.06.37 10.608.31 3.551.427 7.115-1.373 10.69-1.434 3.566-1.315 7.144-3.513 10.733-3.576 3.576-3.452 7.164 4.447 10.763 4.384 3.647 4.508 7.305.893 10.975.827 3.649.957 7.309.214 10.98.146 3.666.28 7.343.425 11.031.355 3.69.491 7.389.23 11.098.158 3.709.299 7.427 1.012 11.155.939 3.734 1.083 7.478 1.944 11.23 1.868 3.76 2.017 7.53.345 11.308.266 3.768.42 7.544.349 11.33.268 3.785.425 7.58-.063 11.382-.147 3.8.017 7.607-.124 11.423-.21 3.815-.043 7.638.479 11.469.39 3.835.564 7.679 1.57 11.529 1.479 3.86 1.657 7.727-1.964 11.601-2.059 3.845-1.873 7.697-.31 11.555-.407 3.871-.22 7.75-2.682 11.633-2.78 3.863-2.586 7.733-.058 11.608-.158 3.897.04 7.8.696 11.709.594 3.915.795 7.836-.043 11.762-.146 3.92.058 7.845-.38 11.775-.486 3.927-.277 7.858-1.584 11.794-1.69 3.925-1.48 7.854 1.006 11.787.898 3.957 1.112 7.918-1.006 11.883-1.116 3.946-.898 7.896-2.812 11.85-2.922 3.935-2.703 7.874 2.527 11.817 2.416 3.993 2.636 7.988-1.162 11.987-1.276 3.964-1.05 7.93 1.705 11.9 1.592 3.997 1.815 7.996.568 11.997.453 3.99.682 7.984-1.246 11.978-1.362 3.977-1.131 7.955 2.212 11.935 2.094 4.015 2.327 8.03.72 12.047.601 4.003.838 8.007-.264 12.012-.385 3.994-.145 7.99-.658 11.985-.781 3.991-.537 7.983-1.939 11.974-2.064 3.978-1.816 7.955-.578 11.931-.704 3.991-.455 7.982-.823 11.971-.95 3.987-.698 4.964-1.674 8.95-1.801 3.973-1.651 7.947-.107 11.918-.233 3.99.02 16.175-.293 20.161-.42 3.99.25 7.977-1.972 11.962-2.1 3.962-1.844 7.923.813 11.88.687 3.988.939 7.974 1.018 11.956.891 3.986 1.146 7.968-.42 11.948-.547 3.964-.294 2.737-1.86 6.694-1.987 3.938-2.043 7.873.883 11.804.757 3.964 1.008 7.924 2.584 11.88 2.458 3.974 2.709 7.945-.478 11.911-.606 3.934-.35 7.863-3.405 11.787-3.533 3.891-3.278 7.778-.002 11.659-.127 3.918.123 7.83 2.428 11.738 2.302 3.935 2.554 7.864.63 11.787.503 3.904.757 7.802 2.656 11.694 2.528 3.917 2.782 7.827-.398 11.73-.529 3.87-.27 7.734-2.304 11.59-2.437 3.832-2.174 7.658 1.944 11.477 1.812 3.868 2.073 7.73 1.13 11.584.995 3.846 1.264 7.684.289 11.515.15 3.82.424 7.634.292 11.438.15 3.806.429 7.602-.193 11.39-.338 3.783-.052 7.556-.278 11.32-.426 3.763-.134 7.516-.17 11.26-.32 3.746-.023 7.483-1.588 11.209-1.742 3.705-1.437 7.4-3.03 11.086-3.184 3.662-2.876 7.314.336 10.956.184 3.69.488 7.368.7 11.036.547 3.675.855 7.338.515 10.99.361 3.65.67 7.29-.882 10.918-1.037 3.607-.728 7.203 1.124 10.787.97 3.614 1.277 7.217-1.312 10.807-1.47 3.554-1.155 7.095-1.515 10.624-1.67 3.525-1.36 7.037-.575 10.536-.729 3.513-.418 7.014 1.795 10.5 1.643 3.525 1.949 7.035 1.692 10.532 1.537 3.499 1.846 6.984 1.176 10.455 1.018 3.467 1.329 6.92-.352 10.36-.515 3.414-.195 6.814-.222 10.2-.388 3.387-.063 6.76.012 10.117-.158q5.043.264 10.04 0c3.336.344 6.655 1.281 9.96 1.101 3.328 1.453 6.64-.26 9.937-.448 3.268-.08 4.759-4.563 7.994-4.757 3.23-.27 8.204 1.135 11.4.936 3.136-2.778 6.255-4.09 9.357-4.283 3.074-3.893 6.132-.048 9.173-.228 3.125.144 7.407 4.427 10.497 4.253 3.122 1.682 6.225.153 9.31-.018 3.062.334 6.106 1.27 9.13 1.102 3.05 1.44 6.082-.04 9.094-.21 2.988.128 5.958-2.16 8.908-2.333 2.904-1.989 5.789-.331 8.655-.495 2.901-.16 4.61-2.954 7.472-3.113 2.869.148 5.718-.808 8.547-.963 2.814-.645 5.608-.1 8.382-.245 2.787.056 5.554-.011 8.3-.15 2.748.138 5.476.763 8.182.629 2.723.904 5.424.103 8.104-.034 2.67.238 5.318-1.657 7.944-1.8 2.589-1.518 5.156 1 7.702.872 2.597 1.144 5.172-1.202 7.724-1.337 2.51-1.07 4.996.026 7.461-.094 2.488.163 4.952 2.601 7.394 2.488 2.514 2.723 5.003 1.367 7.467 1.194 2.484 1.459 4.942.161 7.375-.101 2.392.306 4.758-.867 7.1-1.2 2.253-.623 4.483-2.557 6.689-2.896 2.1-2.225 4.177-.34 6.234-.542 2.188.022 4.351-1.859 6.49-1.994 2.164-1.609 6.378-1.023 8.49-.874 2.114 2.152 9.7.559 11.762.244 2.016-.309 10.812 1.932 12.778 1.932-1.998 0-16.493-.538-18.544-.54-2.05 1.15-6.034.388-8.136.385-2.102-1.005-4.228.184-6.38.179-2.153.186-3.916 2.251-6.118 2.245-2.203-.442-4.845-1.569-7.096-1.577-2.254 1.135-4.532 1.598-6.834 1.588-2.304 1.605-4.632-1.246-6.984-1.257-2.347-1.238-4.718 1.017-7.113 1.005-2.398 1.028-4.82.234-7.266.22-2.444.246-4.91.875-7.4.859-2.492.89-5.007-.57-7.544-.587-2.533-.554-5.09.7-7.668.681-2.581.719-5.185.826-7.81.805-2.626.845-5.274.008-7.943-.016-2.667.028-5.355-.569-8.065-.594-2.708-.547-5.436-1.366-8.186-1.392-2.747-1.342-5.514.053-8.302.025-2.792.079-5.605.845-8.437.816-2.836.873-5.692.043-8.567.012-2.873.073-4.592 3.87-7.503 3.837-2.916.965-5.85-.897-8.804-.931-2.947-.865-5.912.31-8.897.273-2.989.344-5.996 1.038-9.022 1-3.03 1.074-6.077.452-9.143.413-3.063.487-6.144 2.34-9.243 2.3-3.108 2.379-7.407-4.932-10.55-4.975-3.123-1.956-6.264-.245-9.42-.29-3.166-.203-6.348-.497-9.546-.543-3.198-.454-6.412-.144-9.642-.19-3.231-.1-6.48.152-9.744.104-3.265.2-6.546-.023-9.843-.073-3.296.026-6.608-.563-9.935-.614-3.324-.514-6.663-1.171-10.017-1.224-3.35-1.12-6.716-.007-10.096-.061-3.386.046-6.787-1.121-10.202-1.176-3.409-1.067-6.832-1.366-10.268-1.422-3.436-1.31-6.885 3.229-10.347 3.172-3.488 3.284-6.99-.849-10.505-.908-3.492-.79-6.998-.212-10.516-.271-3.521-.154-7.056.378-10.603.317-3.55.437-7.113.743-10.688.681-3.577.803-7.166.51-10.767.447-3.6.571-7.212-1.268-10.835-1.333-3.612-1.205-7.236 3.546-10.87 3.48-3.665 3.61-7.34-1.588-11.026-1.656-3.655-1.523-7.32-.975-10.996-1.043-3.68-.909-7.37-.144-11.069-.214-3.705-.076-7.42-4.635-11.144-4.706-3.696-4.566-7.401 3.742-11.116 3.672-3.768 3.811-7.545-.107-11.332-.18-3.762-.035-7.533-.873-11.313-.946-3.774-.802-7.558-1.454-11.35-1.528-3.787-1.382-7.583.145-11.387.07-3.814.219-7.636 1.83-11.466 1.754-3.841 1.903-7.69-.1-11.546-.177-3.843-.026-7.694 1.336-11.551 1.259-3.868 1.41-7.742 1.523-11.623 1.444-3.883 1.6-7.772-.116-11.667-.196-3.885-.038-7.775-.646-11.672-.728-3.892-.567-7.79-.494-11.695-.577a139 139 0 0 0-11.73-.76c-3.915-.594-7.834 1.38-11.758 1.295-3.94 1.462-7.884 1.82-11.832 1.734-3.953 1.904-7.91.78-11.871.692-3.954.865-7.912 1.312-11.874 1.222-3.967 1.4-7.938-.323-11.912-.415-3.961-.234-2.738 1.62-6.706 1.526-3.987 2.022-7.977 2.361-11.97 2.264-3.997 2.454-7.998.91-12.001.809-3.992 1.006-6.316-2.113-10.312-2.217-3.957-3.331-14.775 1.743-18.736 1.637-4.017 2.852-11.044-1.502-15.064-1.613-3.98-1.5-7.96.129-11.942.017-3.998.236-4.989 2.342-8.988 2.227-4.024 2.556-8.048-3.182-12.073-3.301-3.968-3.066-7.936 1.798-11.903 1.678-4.02 1.914-8.038-1.017-12.056-1.141-3.99-.896-7.978 1.546-11.966 1.42-4.016 1.667-8.03 1.072-12.045.942-4.01 1.199-8.02-.393-12.028-.527-3.991-.264-7.981-.81-11.97-.946-3.983-.678-7.964-.862-11.943-1.001-3.977-.727-7.953-.189-11.926-.33-3.98-.052-7.958-2.506-11.934-2.65-3.945-2.364-7.888-.104-11.828-.248-3.969.038-7.934-1.948-11.896-2.095-3.939-1.801-7.873-.156-11.804-.303-3.953-.012-7.903-1.037-11.848-1.184-3.933-.89-7.863-.319-11.788-.466-3.934-.172-7.863.883-11.788.735-3.94 1.03-7.875-.107-11.805-.256-3.918.042-7.83-.347-11.738-.495-3.904-.199-7.802-1.03-11.694-1.179-3.883-.88-7.76 1.111-11.632.963-3.9 1.258-7.792-.728-11.678-.878-3.863-.578-7.719-.509-11.568-.658-3.851-.359-7.696.56-11.533.41-3.852.708-7.696-.248-11.533-.398-3.826-.097-7.645-.841-11.455-.992-3.803-.69-7.597 1.314-11.383 1.164-3.816 1.463-7.623-.303-11.422-.455-3.777-.151-7.545.31-11.304.158-3.769.46-7.528.395-11.277.242-3.752.548-7.494-.449-11.226-.604-3.72-.295-7.431.304-11.132.148-3.712.457-7.413-1.334-11.104-1.492-3.667-1.177-7.323 3.151-10.968 2.994-3.715 3.305-7.418-1.927-11.11-2.09-3.615-1.765-7.22.686-10.813.524-3.633.843-7.255-1.033-10.865-1.2-3.582-.868-7.152.048-10.71-.118-3.576.211-7.14-1.882-10.69-2.05-3.517-1.714-7.022-.366-10.515-.532-3.516-.2-7.02.55-10.51.383-3.506.717-6.999-.503-10.478-.67-3.462-.335-6.91-.343-10.345-.51-3.436-.175-6.86-1.511-10.268-1.677-3.388-1.344-6.763.183-10.122.021-3.388.349-6.761-1.283-10.12-1.445-3.333-1.117-6.652-.542-9.955-.7-3.316-.38-6.616-4.212-9.9-4.365-3.229-4.051-6.442.832-9.64.694-3.273.985-6.532-1.073-9.773-1.206-3.216-.925-6.416-1.909-9.6-2.03-3.176-1.771-6.335 1.044-9.478.938-3.178 1.17-6.338-.7-9.48-.798-3.125-.587-6.233.266-9.322.18-3.1.368-6.18-4.537-9.244-4.614-3.034-4.446-6.051 1.347-9.05 1.294-3.038 1.433-6.058.524-9.059.486-2.993.586-5.967-.815-8.923-.84-2.952-.773-5.886 2.337-8.8 2.327-2.915 2.37-5.81.342-8.684.335-2.872.353-5.725-.837-8.557-.845-2.832-.828-5.644.832-8.436.83-2.792.842-5.563.226-8.314.221-2.75.23-5.48-.016-8.19-.023-2.708-.013-5.395.15-8.062.14-2.666.155-5.31.017-7.934.004-2.623.025-5.224-1.117-7.803-1.134-2.578-1.106-5.134.692-7.667.688-2.535.713-5.047-.806-7.537-.812-2.49-.8-4.956-1.955-7.4-1.947-2.465-1.943-4.906.672-7.323.734-2.395.688-4.766 1.192-7.113 1.276-2.332 1.14-4.64 1.778-6.925 1.838-2.303 1.685-4.583 1.291-6.837 1.257-2.305 1.191-4.583.044-6.836-.136-2.214.03-4.403-.819-6.566-1.08-2.103-.655-4.181 3.306-6.235 3.111-2.368 3.567-4.702-1.638-7.004-2.804-1.765-.893-3.51-2.254-5.236-2.254v7.82zm30.367 33.452v18.157c1.998.004 4.022-1.624 6.072-1.622 2.05-1.629 4.126.003 6.228.004 2.101 0 4.228-.23 6.38-.23 2.152-.23 4.33 3.713 6.531 3.71 2.205 3.714 4.434-.42 6.688-.424 2.252-.419 4.53.025 6.83.02 2.301.028 4.627-.963 6.976-.97 2.348-.957 4.72-.048 7.115-.057 2.396-.042 4.816.457 7.26.447 2.443.466 4.91 1.738 7.4 1.726 2.492 1.749 5.007-.582 7.545-.596 2.534-.57 5.09.282 7.668.266 2.58.295 5.182.347 7.806.33 2.624.362 5.27.516 7.938.497 2.668.532 5.357-.582 8.068-.602 2.707-.564 5.436.084 8.185.062 2.752.104 5.524.568 8.316.544 2.794.59 5.608-1.257 8.443-1.283 2.828-1.234 5.677-1.054 8.546-1.08 2.869-1.03 5.757-3.074 8.665-3.102 2.901-3.048 5.822 3.146 8.761 3.116 2.96 3.174 5.94-1.395 8.937-1.425 2.983-1.367 5.984.881 9.003.85 3.028.911 6.073 1.043 9.137 1.01 3.065 1.074 6.147-1.74 9.247-1.774 3.09-1.707 6.198 2.642 9.322 2.606 3.142 2.675 6.3 1.457 9.476 1.42 3.172 1.491 6.36-.21 9.566-.249 3.199-.174 6.414.853 9.646.813 3.236.891 6.488.89 9.756.85 3.269.929 6.553.957 9.854.914 3.3.999 6.617.576 9.948.531 3.33.619 6.676-.95 10.036-.997 3.353-.906 6.72.06 10.103.012 3.387.107 6.789.39 10.205.34 3.417.438 6.849-.256 10.294-.309 3.443-.206 6.899-.204 10.368-.258 3.47-.152 6.953 1.884 10.45 1.828 3.507 1.937 7.029-.075 10.562-.132 3.524-.02 7.06.37 10.609.31 3.551.427 7.115-1.373 10.69-1.435 3.566-1.315 7.144-3.512 10.733-3.575 3.576-3.453 7.164 4.447 10.763 4.383 3.647 4.51 7.305.894 10.975.828 3.649.957 7.309.214 10.98.146 3.666.28 7.343.425 11.03.355 3.69.491 7.39.23 11.1.158 3.708.299 7.426 1.012 11.154.938 3.734 1.083 7.477 1.945 11.23 1.869 3.76 2.017 7.53.345 11.308.266 3.767.42 7.544.348 11.33.267 3.785.426 7.58-.062 11.382-.146 3.8.017 7.607-.125 11.423-.21 3.815-.043 7.638.478 11.469.39 3.835.564 7.678 1.57 11.529 1.478 3.86 1.657 7.727-1.963 11.601-2.058 3.845-1.873 7.696-.311 11.555-.407 3.871-.22 7.75-2.682 11.633-2.78 3.863-2.587 7.732-.058 11.608-.158 3.897.039 7.8.696 11.709.594 3.915.794 7.836-.043 11.762-.147 3.92.059 7.845-.38 11.775-.485 3.927-.278 7.858-1.584 11.794-1.691 3.925-1.48 7.853 1.007 11.787.899 3.957 1.112 7.918-1.006 11.883-1.116 3.946-.898 7.896-2.812 11.85-2.923 3.935-2.702 7.874 2.528 11.816 2.417 3.993 2.636 7.99-1.163 11.988-1.276 3.964-1.05 7.93 1.704 11.9 1.591 3.996 1.816 7.996.569 11.997.454 3.99.682 7.984-1.246 11.978-1.362 3.977-1.131 7.955 2.211 11.935 2.094 4.014 2.326 8.03.72 12.047.6 4.003.839 8.007-.263 12.012-.385 3.994-.145 7.99-.657 11.985-.78 3.991-.537 7.983-1.94 11.974-2.064 3.977-1.816 7.955-.578 11.931-.704 3.991-.455 7.981-.823 11.971-.95 3.987-.698 7.973-1.778 11.958-1.905 3.974-1.651 7.947-.107 11.92-.233 3.989.02 7.977.122 11.963-.005 3.99.25 7.977-1.972 11.962-2.1 3.963-1.844 7.923.813 11.88.687 3.989.939 7.974 1.018 11.957.891 3.985 1.146 7.968-.42 11.947-.547 3.964-.294 7.925-2.171 11.882-2.298 3.938-2.044 7.873.882 11.804.757 3.964 1.008 7.923 2.583 11.88 2.457 3.974 2.71 7.945-.478 11.911-.605 3.934-.35 7.863-3.406 11.787-3.533 3.891-3.278 7.778-.002 11.659-.128 3.918.124 7.83 2.428 11.738 2.303 3.935 2.554 7.864.63 11.787.503 3.904.757 7.802 2.656 11.694 2.528 3.917 2.782 7.827-.398 11.73-.53 3.87-.269 7.733-2.304 11.59-2.436 3.832-2.175 7.658 1.944 11.476 1.812 3.87 2.073 7.73 1.13 11.585.994 3.846 1.265 7.684.29 11.515.15 3.82.425 7.634.292 11.438.15 3.806.43 7.602-.192 11.39-.337 3.782-.052 7.556-.278 11.32-.426 3.763-.134 7.516-.17 11.26-.32 3.746-.023 7.482-1.588 11.209-1.742 3.705-1.437 7.4-3.03 11.086-3.184 3.662-2.876 7.314.336 10.956.183 3.69.489 7.368.701 11.036.547 3.674.856 7.338.516 10.99.362 3.65.67 7.29-.883 10.918-1.038 3.607-.727 7.203 1.125 10.787.97 3.614 1.278 7.217-1.312 10.807-1.469 3.554-1.155 7.095-1.515 10.624-1.671 3.525-1.36 7.037-.574 10.536-.728 3.513-.418 7.014 1.795 10.5 1.643 3.525 1.949 7.035 1.692 10.532 1.537 3.499 1.846 6.984 1.176 10.455 1.018 3.467 1.329 6.92-.352 10.36-.515 3.414-.196 6.814-.222 10.2-.389 3.387-.062 6.76.013 10.117-.158q5.043.265 10.04 0c3.335.345 6.655 1.282 9.96 1.102 3.328 1.453 6.64-.26 9.937-.448 3.268-.08 6.52-.455 9.755-.649 3.23-.27 6.443-2.973 9.64-3.172 3.134-2.778 6.254-4.09 9.356-4.284 3.074-3.892 6.132-.047 9.173-.228 3.125.145 6.233 1.494 9.323 1.319 3.122 1.682 6.226.154 9.311-.018 3.062.334 6.105 1.27 9.13 1.102 3.05 1.44 6.08-.04 9.093-.21 2.988.129 5.958-2.16 8.909-2.333 2.903-1.989 5.788-.331 8.654-.494 2.901-.16 5.783-.02 8.646-.18 2.869.149 5.718-.807 8.547-.962 2.814-.645 5.608-.1 8.382-.246 2.787.057 5.554-.01 8.3-.15 2.748.139 5.476.764 8.182.63 2.723.904 5.424.103 8.104-.035 2.67.238 5.318-1.656 7.944-1.798 2.589-1.519 5.156.999 7.702.87 2.597 1.144 5.172-1.202 7.724-1.336 2.509-1.071 4.996.025 7.461-.094 2.488.163 4.952 2.601 7.394 2.488 2.514 2.723 5.003 1.367 7.467 1.193 2.484 1.46 4.942.162 7.375-.1 2.391.305 4.758-.868 7.1-1.2 2.253-.624 4.483-2.558 6.689-2.896 2.1-2.225 4.177-.34 6.234-.542 2.188.022 4.351-1.86 6.49-1.994 2.164-1.61 4.523.283 6.636.432 2.37.483 4.476.767 6.537.452 2.016-.308 3.512.124 5.478.124-1.998 0-4.022 1.15-6.072 1.148-2.05 1.149-4.127-1.006-6.23-1.01-2.1-1.005-4.227.184-6.38.18-2.152.186-4.33-.446-6.533-.453-2.202-.441-4.429 1.129-6.68 1.121-2.254 1.134-4.532 1.597-6.835 1.588-2.303 1.604-4.631-1.246-6.983-1.258-2.347-1.237-4.718 1.018-7.113 1.005-2.398 1.029-4.82.235-7.266.22-2.444.246-4.91.876-7.401.86-2.492.89-5.006-.57-7.543-.588-2.534-.553-5.09.702-7.668.682-2.581.718-5.185.826-7.81.805-2.626.845-5.274.008-7.943-.016-2.667.028-5.356-.57-8.065-.594-2.708-.547-5.437-1.366-8.186-1.393-2.747-1.341-5.514.054-8.302.025-2.792.08-5.605.846-8.437.817-2.836.873-5.692.043-8.567.012-2.873.072-5.766.935-8.677.902-2.916.965-5.85-.897-8.804-.931-2.947-.865-5.912.31-8.896.274-2.99.343-5.997 1.037-9.023 1-3.03 1.073-6.077.45-9.143.412-3.063.487-6.144 2.34-9.243 2.3-3.108 2.379-6.233-1.997-9.376-2.04-3.123-1.957-6.264-.245-9.42-.29-3.166-.203-6.348-.497-9.546-.543-3.198-.455-6.412-.144-9.642-.191-3.232-.099-6.48.153-9.744.104-3.265.2-6.546-.022-9.843-.072-3.296.026-6.608-.563-9.935-.615-3.324-.513-6.663-1.17-10.017-1.223-3.35-1.12-6.716-.007-10.096-.061-3.386.045-6.787-1.121-10.202-1.177-3.409-1.067-6.832-1.365-10.268-1.421-3.436-1.311-6.885 3.228-10.347 3.171-3.488 3.285-6.99-.848-10.505-.907-3.492-.79-6.998-.212-10.516-.271-3.521-.154-7.056.377-10.603.317-3.55.436-7.113.743-10.688.68-3.577.804-7.166.51-10.767.448-3.6.57-7.212-1.269-10.835-1.333-3.612-1.205-7.236 3.546-10.87 3.48-3.665 3.61-7.34-1.588-11.026-1.656-3.655-1.523-7.32-.975-10.996-1.043-3.68-.91-7.37-.144-11.069-.214-3.705-.076-7.42-4.635-11.144-4.706-3.696-4.566-7.401 3.742-11.116 3.671-3.768 3.812-7.545-.106-11.332-.179-3.762-.035-7.533-.873-11.313-.947-3.774-.801-7.558-1.454-11.35-1.528-3.787-1.38-7.583.145-11.387.071-3.814.218-7.636 1.829-11.466 1.754-3.841 1.903-7.69-.101-11.546-.177-3.843-.026-7.694 1.335-11.552 1.258-3.867 1.411-7.741 1.523-11.622 1.445-3.883 1.6-7.772-.116-11.667-.196-3.885-.039-7.775-.647-11.672-.728-3.892-.567-7.79-.494-11.695-.577a139 139 0 0 0-11.73-.76c-3.915-.594-7.834 1.38-11.758 1.295-3.94 1.461-7.884 1.82-11.832 1.734-3.953 1.904-7.91.78-11.871.692-3.954.865-7.913 1.312-11.875 1.222-3.966 1.4-7.937-.323-11.91-.415-3.962-.234-7.927 1.932-11.895 1.837-3.987 2.022-7.977 2.361-11.97 2.264-3.997 2.454-7.998.91-12.001.809-3.992 1.006-7.987-3.432-11.983-3.536-3.957-3.331-7.916 2.75-11.877 2.645-4.017 2.851-8.035-1.606-12.055-1.717-3.98-1.5-7.96.129-11.943.017-3.998.236-7.997 2.446-11.996 2.33-4.024 2.557-8.049-3.181-12.073-3.3-3.968-3.066-7.936 1.798-11.904 1.678-4.018 1.914-8.037-1.017-12.055-1.142-3.99-.896-7.978 1.546-11.966 1.42-4.016 1.667-8.03 1.073-12.045.943-4.01 1.199-8.02-.393-12.028-.527-3.991-.264-7.981-.81-11.97-.946-3.983-.678-7.964-.862-11.943-1.001-3.977-.728-7.953-.19-11.926-.33-3.98-.052-7.959-2.506-11.934-2.65-3.946-2.364-7.888-.104-11.828-.249-3.969.038-7.934-1.947-11.896-2.094-3.939-1.802-7.874-.157-11.805-.303-3.952-.012-7.902-1.037-11.847-1.185-3.934-.889-7.863-.318-11.788-.466-3.934-.171-7.863.884-11.788.736-3.94 1.03-7.875-.107-11.806-.256-3.917.041-7.83-.347-11.737-.496-3.904-.198-7.802-1.029-11.695-1.178-3.883-.88-7.76 1.11-11.631.962-3.9 1.259-7.792-.728-11.679-.878-3.862-.577-7.718-.508-11.567-.657-3.851-.36-7.696.559-11.533.41-3.852.707-7.696-.248-11.533-.398-3.826-.097-7.645-.841-11.456-.992-3.802-.69-7.596 1.314-11.382 1.164-3.816 1.463-7.623-.303-11.422-.455-3.777-.151-7.545.31-11.305.157-3.768.46-7.527.396-11.276.243-3.752.547-7.494-.449-11.226-.604-3.72-.295-7.431.303-11.132.148-3.712.456-7.413-1.334-11.104-1.492-3.667-1.177-7.323 3.151-10.969 2.994-3.714 3.305-7.417-1.927-11.11-2.09-3.615-1.766-7.22.685-10.813.523-3.633.844-7.254-1.032-10.864-1.199-3.582-.868-7.153.048-10.71-.118-3.576.211-7.14-1.882-10.69-2.05-3.517-1.714-7.023-.366-10.515-.533-3.516-.199-7.02.55-10.51.384-3.506.717-6.999-.503-10.478-.67-3.462-.335-6.91-.343-10.345-.51-3.437-.175-6.86-1.511-10.268-1.678-3.389-1.343-6.763.184-10.123.022-3.387.349-6.76-1.283-10.118-1.445-3.334-1.117-6.653-.543-9.957-.7-3.315-.38-6.615-4.213-9.9-4.366-3.228-4.05-6.44.833-9.638.694-3.275.986-6.533-1.072-9.775-1.205-3.216-.925-6.416-1.909-9.599-2.03-3.176-1.772-6.336 1.044-9.478.938-3.178 1.17-6.338-.7-9.48-.798-3.125-.587-6.233.266-9.323.18-3.099.368-6.18-4.537-9.243-4.614-3.035-4.447-6.051 1.347-9.05 1.294-3.038 1.433-6.058.523-9.059.486-2.993.585-5.967-.816-8.923-.84-2.953-.773-5.886 2.337-8.8 2.327-2.915 2.37-5.81.342-8.684.334-2.872.353-5.725-.836-8.557-.844-2.832-.828-5.644.832-8.436.829-2.792.842-5.563.226-8.314.222-2.75.229-5.48-.016-8.19-.023-2.708-.013-5.396.15-8.062.14-2.666.155-5.311.017-7.934.004-2.623.025-5.224-1.118-7.804-1.134-2.577-1.106-5.133.692-7.666.687-2.535.714-5.047-.805-7.537-.81-2.49-.802-4.957-1.956-7.4-1.948-2.465-1.943-4.906.672-7.324.733-2.394.688-4.765 1.193-7.113 1.277-2.331 1.14-4.64 1.778-6.924 1.838-2.304 1.685-4.583 1.291-6.837 1.257-2.305 1.191-4.584.044-6.836-.136-2.214.03-4.403-.819-6.566-1.08-2.103-.655-4.181 3.306-6.235 3.111-2.368 3.567-4.702-1.638-7.004-2.804-1.765-.893-3.51-2.254-5.236-2.254v7.82z" clip-path="url(#b)" style="fill-rule:nonzero;stroke:none;stroke-width:.1;stroke-linecap:square;paint-order:markers fill stroke;stop-color:#000" transform="matrix(.3446 0 0 .3446 -622.51 259.66)"/></pattern><clipPath id="b" clipPathUnits="userSpaceOnUse"><path d="M1806.5-753.523h1637.264v66.906H1806.499Z" style="stroke-width:.0999999;stroke-linecap:square;paint-order:markers fill stroke;stop-color:#000"/></clipPath></defs><circle cx="11.906" cy="11.906" r="11.906" style="fill:#fcc875;fill-opacity:1;stroke:none;stroke-width:.260903;stroke-linecap:round;stroke-linejoin:round;stroke-miterlimit:10;stroke-dasharray:none;stroke-opacity:1"/><circle cx="11.906" cy="11.906" r="11.906" style="fill:#ea8611;fill-opacity:1;stroke:none;stroke-width:.260903;stroke-linecap:round;stroke-linejoin:round;stroke-miterlimit:10;stroke-dasharray:none;stroke-opacity:1"/><circle cx="-11.906" cy="11.906" r="11.906" style="fill:url(#c);fill-opacity:1;stroke:none;stroke-width:.260903;stroke-linecap:round;stroke-linejoin:round;stroke-miterlimit:10;stroke-dasharray:none;stroke-opacity:1" transform="rotate(-90)"/></svg>