<?xml version="1.0" encoding="UTF-8" standalone="no"?>
<!-- Created with Inkscape (http://www.inkscape.org/) -->

<svg
   width="90"
   height="90"
   viewBox="0 0 23.812501 23.812501"
   version="1.1"
   id="svg5"
   inkscape:version="1.3 (0e150ed6c4, 2023-07-21)"
   sodipodi:docname="magma_base.svg"
   xml:space="preserve"
   xmlns:inkscape="http://www.inkscape.org/namespaces/inkscape"
   xmlns:sodipodi="http://sodipodi.sourceforge.net/DTD/sodipodi-0.dtd"
   xmlns="http://www.w3.org/2000/svg"
   xmlns:svg="http://www.w3.org/2000/svg"><sodipodi:namedview
     id="namedview7"
     pagecolor="#505050"
     bordercolor="#ffffff"
     borderopacity="1"
     inkscape:pageshadow="0"
     inkscape:pageopacity="0"
     inkscape:pagecheckerboard="1"
     inkscape:document-units="px"
     showgrid="false"
     units="px"
     inkscape:zoom="6.2074636"
     inkscape:cx="58.236346"
     inkscape:cy="48.328918"
     inkscape:window-width="1920"
     inkscape:window-height="1011"
     inkscape:window-x="0"
     inkscape:window-y="0"
     inkscape:window-maximized="1"
     inkscape:current-layer="layer1"
     showguides="false"
     inkscape:showpageshadow="2"
     inkscape:deskcolor="#d1d1d1" /><defs
     id="defs2"><clipPath
       clipPathUnits="userSpaceOnUse"
       id="clipPath8"><ellipse
         style="fill:#ff0000;stroke:none;stroke-width:78.3173"
         id="circle8"
         cx="-236.81731"
         cy="86.858986"
         rx="186.46431"
         ry="186.52315" /></clipPath><clipPath
       clipPathUnits="userSpaceOnUse"
       id="clipPath15"><circle
         style="fill:#ff0000;stroke-width:334.563"
         id="circle15"
         cx="295.96289"
         cy="96.92955"
         r="186.81416" /></clipPath></defs><g
     inkscape:label="Layer 1"
     inkscape:groupmode="layer"
     id="layer1"><g
       id="g2"
       transform="matrix(0,-0.06373313,0.06373313,0,5.7286279,30.768892)"
       clip-path="url(#clipPath15)"><path
         style="fill:#fd9f53"
         d="m 283.78281,285.08875 c -22.18518,-1.27096 -47.90484,-7.799 -66.32223,-16.83358 -3.58951,-1.76082 -7.34595,-3.56615 -8.34764,-4.01183 -17.20989,-7.6573 -44.9806,-30.05481 -59.44379,-47.94235 C 109.11814,166.14902 95.913479,93.877589 116.95784,37.266255 c 0.97371,-2.619375 2.44922,-6.667501 3.27892,-8.995834 35.57313,-99.827064 158.5534,-148.430671 256.85578,-101.513177 91.41967,43.632538 134.01834,159.397167 90.83783,246.857636 -1.14954,2.32833 -2.86967,5.97958 -3.82252,8.11389 -2.77713,6.22055 -10.55284,18.89615 -16.64947,27.14122 -38.16704,51.61697 -98.95967,79.92626 -163.67557,76.21876 z"
         id="path14" /><path
         style="fill:#fd5900"
         d="m 283.43003,284.72861 c -4.1716,-0.24304 -10.28347,-0.85191 -13.58195,-1.35305 -19.70924,-2.99444 -48.00599,-11.95515 -53.12728,-16.82378 -3.79727,-3.60993 -13.34673,-8.87501 -20.69429,-11.40975 -1.99034,-0.68662 -3.94424,-1.42257 -4.34199,-1.63544 -1.41871,-0.75927 -15.7231,-11.61894 -18.32117,-13.90914 -1.4552,-1.28277 -4.36672,-3.78866 -6.47003,-5.56864 -31.96744,-27.05331 -56.27488,-78.98527 -58.99029,-126.03061 -1.32848,-23.016273 5.01256,-66.139196 10.84935,-73.78213 0.21509,-0.281649 2.20418,0.869078 6.55481,3.7921 10.64279,7.150469 12.82044,9.348948 16.03799,16.19142 9.93851,21.135309 17.94332,32.790303 25.40904,36.995531 24.23327,13.649909 36.69483,4.609398 20.84617,-15.123308 -7.05238,-8.780711 -9.344,-12.782774 -11.41318,-19.931946 -1.43384,-4.953984 -2.82383,-7.562455 -5.46969,-10.26445 -7.55877,-7.719132 -32.3716,-18.342528 -46.13561,-19.752559 -3.13242,-0.320894 -3.12105,-0.0215 -0.2361,-6.216601 1.38158,-2.966794 3.05385,-6.561585 3.71614,-7.988425 0.6623,-1.42684 1.20418,-2.7515936 1.20418,-2.9438967 0,-5.0168651 26.59981,-39.6767463 38.12057,-49.6715753 2.34833,-2.037292 5.24907,-4.582746 6.44609,-5.656565 2.27383,-2.039805 2.47172,-2.190876 11.87779,-9.067781 82.7597,-60.506754 199.75403,-42.538101 261.14958,40.108835 5.31186,7.1505069 14.53676,21.787725 15.81409,25.09234 0.34378,0.889407 2.0468,4.634628 3.78448,8.322715 1.73768,3.688087 3.52141,7.722891 3.96384,8.966231 0.44243,1.243341 0.92426,2.421062 1.07073,2.617159 0.96661,1.294065 4.88823,13.67623 6.82826,21.559642 5.11982,20.804626 6.51902,38.420475 4.97015,62.574104 -0.60611,9.45182 -5.61414,33.94418 -8.35329,40.85269 -0.59213,1.49345 -1.8567,4.77912 -2.81015,7.30148 -4.20051,11.11249 -3.318,10.15165 -7.74464,8.432 -10.44421,-4.05734 -11.57847,-0.0178 -1.83067,6.51973 2.63164,1.76496 2.61327,1.42893 0.33014,6.03855 -11.9608,24.14873 -39.33438,56.49501 -54.95947,64.94343 -0.50539,0.27327 -2.48977,1.65412 -4.40972,3.06855 -18.90279,13.92578 -51.78932,27.45533 -76.14893,31.32775 -2.91818,0.4639 -6.57578,1.08093 -8.128,1.37117 -6.97696,1.30458 -23.27397,1.78439 -35.80695,1.05422 z M 369.71597,59.485699 c 3.72539,-0.949369 6.56738,-2.062008 16.19601,-6.340746 9.66671,-4.295655 12.38552,-5.394847 24.13748,-9.758552 32.67437,-12.132562 38.33419,-19.173533 21.07809,-26.221715 -12.28762,-5.018831 -17.03453,-4.721684 -37.62418,2.355197 -26.37695,9.066037 -39.149,16.177638 -45.4933,25.331095 -5.87103,8.470652 8.32786,18.043944 21.7059,14.634721 z"
         id="path13" /><path
         style="fill:#e42f00"
         d="m 283.25364,284.70711 c -10.00334,-0.59978 -18.52982,-1.96053 -29.45695,-4.70104 -12.01523,-3.0134 -10.84757,-2.4915 -10.6591,-4.76426 0.38856,-4.68548 -3.66629,-8.49751 -19.26557,-18.11189 -10.4661,-6.45062 -12.9033,-8.67077 -18.10195,-16.48983 -8.1517,-12.2606 -16.63952,-13.20685 -29.95054,-3.33898 -2.89551,2.14653 -2.32027,2.21059 -5.63205,-0.6272 -1.52844,-1.30969 -3.59631,-3.01625 -4.59526,-3.79236 -31.75599,-24.67201 -61.9172,-96.37264 -57.87507,-137.583346 0.19031,-1.940278 0.44709,-6.226528 0.57062,-9.525001 0.30873,-8.244051 3.13318,-28.045835 4.00035,-28.045835 1.97245,0 10.5937,13.442212 13.80163,21.519446 3.45077,8.688654 4.44555,9.546896 16.75832,14.45815 21.08831,8.411586 25.41749,12.072276 27.72011,23.439686 5.30284,26.17864 35.57852,31.71023 56.82049,10.38151 7.65955,-7.69083 7.70165,-13.47867 0.18314,-25.1724 -1.37226,-2.13431 -3.86299,-6.499931 -5.53496,-9.70139 -4.27747,-8.190407 -5.41282,-9.894174 -10.93134,-16.404168 C 204.38964,68.325736 202.30743,64.58307 200.31086,56.845423 196.94845,43.814526 195.06365,42.225611 168.3509,29.90271 155.32915,23.895626 149.63554,21.586322 140.9078,18.771903 c -9.54021,-3.076412 -13.40556,-4.532701 -13.40556,-5.050613 0,-0.25706 0.39687,-1.250576 0.88194,-2.207815 0.48507,-0.957239 0.88195,-1.9989021 0.88195,-2.3148078 0,-6.4231684 31.78218,-46.3137782 43.03889,-54.0191802 0.87313,-0.597669 1.905,-1.441991 2.29306,-1.876271 0.89972,-1.006897 4.52881,-3.814224 5.10763,-3.951071 0.32786,-0.07751 0.42603,0.658753 0.38597,2.894659 -0.0675,3.769238 0.71536,6.896571 3.13516,12.523612 2.36774,5.505987 3.11422,8.280073 3.55982,13.229167 0.81647,9.0682 2.80369,10.796488 12.32947,10.722965 16.80081,-0.129673 32.99114,-8.8496 31.94704,-17.206307 -0.69503,-5.562782 -11.60357,-25.006643 -19.42012,-34.615272 -3.28506,-4.038206 -4.36081,-5.63787 -4.02034,-5.978337 2.72241,-2.722409 32.43032,-14.107671 45.11565,-17.290125 64.41297,-16.159717 136.81062,6.428492 182.53043,56.94985 10.06844,11.125847 26.50843,34.7691959 27.5794,39.663639 0.13131,0.6001 1.66431,4.10734 3.40665,7.793868 1.74235,3.686528 3.46985,7.567412 3.8389,8.624186 0.36905,1.056774 0.9058,2.279758 1.19278,2.717742 8.09165,12.349422 13.97456,53.72622 12.00519,84.437248 -0.71105,11.08836 -7.06832,40.43897 -9.36032,43.21528 -0.16018,0.19403 -0.56864,1.06715 -0.90769,1.94028 -1.04492,2.6909 -0.60594,2.75383 -8.55564,-1.22653 -8.40758,-4.20962 -12.35013,-5.92338 -20.70052,-8.99817 -11.31243,-4.16548 -13.43378,-5.48342 -24.22327,-15.04929 -12.54599,-11.12317 -16.25788,-13.57563 -23.20692,-15.3329 -9.08017,-2.29618 -17.82278,1.75298 -19.44604,9.00648 -1.33387,5.96034 2.56339,9.44049 16.47517,14.71193 15.20472,5.76135 19.67415,8.61344 32.18189,20.53625 7.08789,6.75643 9.86573,8.97889 22.09973,17.68134 5.6268,4.00254 10.60712,7.55005 11.06738,7.88336 l 0.83682,0.60602 -2.18233,4.22895 c -8.76342,16.98193 -37.34067,48.60954 -49.68664,54.99025 -0.63757,0.32951 -2.76563,1.78271 -4.72902,3.22932 -4.25586,3.1357 -3.85139,3.07587 -4.83014,0.71446 -6.52314,-15.73823 -37.43563,-18.08585 -49.65566,-3.77104 -11.11289,13.01787 -13.93116,25.03609 -6.89251,29.39235 0.64479,0.39907 1.04166,0.85359 0.88194,1.01005 -0.53403,0.52312 -10.11051,2.74411 -15.06213,3.49324 -2.69166,0.40722 -5.15229,0.87489 -5.46805,1.03926 -3.10238,1.61492 -23.94523,2.47031 -38.67412,1.58718 z m -54.87272,-81.123 c 30.19999,-2.43902 26.53341,-17.95973 -4.7017,-19.9024 -17.20564,-1.07011 -24.21194,3.03941 -20.18355,11.83857 3.36397,7.34789 9.42631,9.31233 24.88525,8.06383 z M 370.59791,69.403351 c 3.38353,-0.868823 6.69064,-2.396265 13.20583,-6.099328 15.27246,-8.680463 23.87837,-12.451171 42.47096,-18.608786 18.37164,-6.084439 24.82672,-9.270476 30.71749,-15.161246 8.60244,-8.602443 4.99126,-13.0408 -15.69409,-19.28898 -3.4925,-1.0549377 -9.93574,-3.1755004 -14.31831,-4.7123613 -17.7329,-6.21849913 -20.12676,-6.1085977 -30.1317,1.3833353 -4.8156,3.606038 -10.90819,6.861953 -19.22639,10.274697 -7.45397,3.058172 -17.04689,7.87611 -21.51944,10.807893 -4.01886,2.634385 -17.04021,11.771678 -20.93502,14.690442 -6.34672,4.756225 -5.29843,8.342921 4.63768,15.867622 13.41337,10.158053 21.87178,13.137497 30.79299,10.846712 z m -48.18593,-99.299939 c 20.53261,-3.462519 25.0692,-7.759452 24.43933,-23.148276 -0.52757,-12.889742 -19.50723,-16.111311 -43.31295,-7.351855 -31.80032,11.701117 -16.47835,36.461713 18.87362,30.500131 z"
         id="path12" /><path
         style="fill:#a01f00"
         d="m 283.43003,284.72861 c -6.25784,-0.36458 -13.25059,-1.19838 -20.7257,-2.47129 -1.37821,-0.23469 -1.40558,-0.45575 -0.26458,-2.13711 2.99551,-4.41413 -0.24932,-7.89456 -14.28935,-15.32685 -23.45888,-12.41828 -30.12629,-19.68124 -34.23856,-37.29682 -2.71064,-11.61148 0.4393,-14.70451 18.73748,-18.39894 26.52244,-5.35493 37.05712,-14.69814 25.38071,-22.51018 -16.78278,-11.22841 -60.886,-11.46673 -63.88072,-0.34518 -0.72075,2.67663 -0.20969,4.66737 4.63737,18.06431 2.5401,7.02066 1.09701,9.52326 -8.52379,14.78191 -10.50475,5.7418 -15.75444,9.11697 -20.58843,13.23685 -2.94541,2.51028 -2.81384,2.59637 -12.62917,-8.26321 -31.59628,-34.95777 -49.27662,-79.7774 -49.64103,-125.839882 -0.0446,-5.636961 33.92113,-1.186907 44.99128,5.894582 4.88247,3.12327 6.76365,6.16559 8.94411,14.46474 3.17269,12.07576 6.73139,17.26634 16.36143,23.86416 13.08055,8.96186 21.93431,8.52616 43.99283,-2.16492 26.61478,-12.89935 41.51372,-13.47104 64.20556,-2.46364 10.7357,5.20769 17.51301,6.37086 22.41686,3.84732 4.79272,-2.46635 4.58182,-5.94162 -0.86559,-14.26348 -3.25215,-4.96822 -4.47111,-7.55456 -6.91618,-14.67444 C 295.89639,99.220455 290.54462,95.878628 270.93404,94.242946 237.33522,91.440531 217.717,78.981724 211.66865,56.605672 207.74591,42.093389 204.7706,39.044832 187.26272,31.598929 c -6.36385,-2.706475 -12.6255,-5.750337 -19.19103,-9.328987 -6.00101,-3.270944 -9.56291,-4.541073 -20.38467,-7.268921 -13.00242,-3.277528 -18.42089,-5.0422789 -18.42089,-5.9995297 0,-4.9151708 25.87119,-38.8075773 37.6728,-49.3530483 5.06299,-4.524088 4.86301,-4.45276 5.1738,-1.845389 0.13299,1.11566 0.72501,4.171598 1.31561,6.790973 1.58303,7.020957 1.70321,11.958895 0.45934,18.873612 -3.66923,20.3974777 6.27819,21.5354033 48.80965,5.583532 24.23673,-9.090236 26.74072,-12.25753 22.62739,-28.621303 -1.6794,-6.681063 -2.40364,-8.238126 -7.55721,-16.247424 -6.21705,-9.662095 -7.10427,-12.181583 -5.53715,-15.724306 11.49192,-25.979401 91.66493,-26.839752 144.35879,-1.54914 35.35851,16.970446 79.28037,59.322824 86.23826,83.156675 0.64714,2.216733 -23.83394,-5.1702003 -38.84712,-11.7217517 -21.50091,-9.3827073 -27.27587,-9.3817243 -32.04394,0.00546 -3.84426,7.5683967 -6.99661,10.0942013 -21.75809,17.4335267 -11.01724,5.477717 -14.18957,7.311016 -23.4685,13.562542 -8.04824,5.422366 -11.23292,7.155474 -18.18135,9.894318 -13.24252,5.219761 -12.78534,7.580309 3.71721,19.193159 28.29622,19.912062 33.07727,20.49881 56.81943,6.973085 4.4747,-2.549204 10.67582,-5.856388 13.78027,-7.349297 9.83101,-4.727675 12.77617,-5.812477 34.925,-12.864038 12.29887,-3.915613 16.82913,-5.940446 27.17864,-12.147694 7.12855,-4.275438 6.25133,-4.507388 8.73227,2.308941 8.21337,22.566103 11.48314,49.262206 9.61048,78.465116 -0.73245,11.42206 -7.65402,43.03889 -9.42209,43.03889 -0.7637,0 -36.81381,-18.56472 -39.83671,-20.5147 -3.6903,-2.3805 -8.15433,-5.86254 -13.72509,-10.70584 -11.5608,-10.05112 -17.24264,-13.59631 -24.90642,-15.54039 -12.03108,-3.05193 -21.21821,1.7281 -26.94969,14.02185 -5.1205,10.98324 -1.74691,15.60516 15.55557,21.3116 15.59943,5.14476 19.97631,7.58191 31.00887,17.26642 8.50847,7.46884 26.86278,20.39389 39.78206,28.01442 3.27081,1.9293 3.20198,1.44921 0.80302,5.6015 -12.09754,20.93931 -46.03348,55.42048 -49.09229,49.88104 -5.97386,-10.81854 -19.49608,-15.54288 -40.6645,-14.20722 -17.69996,1.11682 -23.36682,4.27522 -32.62071,18.18105 -10.16493,15.27485 -14.05668,25.92311 -11.46261,31.36294 1.38071,2.89538 -17.08365,4.43588 -38.33109,3.19801 z m 29.83432,-308.844682 c 2.14783,-0.190152 8.65658,-1.061929 14.46389,-1.937281 26.57786,-4.006157 28.385,-5.078796 29.4269,-17.46651 0.204,-2.425347 0.59298,-5.838472 0.86441,-7.584723 1.51432,-9.742414 0.6899,-13.835336 -3.66687,-18.204554 -8.11654,-8.139735 -22.0291,-7.613414 -47.46293,1.795553 -33.03134,12.219584 -37.91451,17.019621 -29.93043,29.420845 7.00929,10.887148 19.01142,15.507712 36.30503,13.97667 z"
         id="path11" /><path
         style="fill:#4c2117"
         d="m 283.25364,284.70711 c -13.4348,-0.80553 -22.02856,-2.36533 -20.72119,-3.76098 4.30903,-4.59996 0.79168,-8.65371 -14.70411,-16.9465 -22.59917,-12.09426 -28.81525,-18.72961 -33.04759,-35.27659 -3.24982,-12.70567 -0.82563,-15.16241 19.03556,-19.29115 23.71127,-4.92909 35.09334,-13.96724 26.93708,-21.3899 -8.43927,-7.68022 -25.34259,-11.2978 -46.82059,-10.02035 -20.92277,1.24443 -23.655,4.9285 -16.95841,22.86634 4.14095,11.09218 3.74035,11.97381 -8.44159,18.57792 -8.87796,4.81295 -15.28232,9.01934 -20.10834,13.20717 -1.94613,1.68878 -2.39501,1.34932 -11.38678,-8.61097 -30.01696,-33.25013 -47.10495,-74.19418 -49.28602,-118.09287 -0.45707,-9.199536 -0.60219,-8.546138 2.02965,-9.138303 8.33755,-1.875952 30.30664,1.551774 39.4468,6.154693 7.05264,3.55165 9.29784,6.55453 11.454,15.31941 3.1134,12.65603 8.36977,19.77953 19.40869,26.30287 11.85362,7.00479 20.8626,6.28123 40.54478,-3.25635 16.29169,-7.89462 20.87792,-9.42001 30.89602,-10.27614 11.69742,-0.99964 21.56249,1.03547 33.48593,6.90795 11.45528,5.64191 17.55817,6.82349 22.94226,4.44185 5.85502,-2.58995 5.84945,-6.1707 -0.0236,-15.20061 -3.04923,-4.68821 -4.95612,-8.75105 -7.03618,-14.99127 C 296.50343,99.043538 290.18865,95.120757 271.08281,93.710704 252.96307,92.373428 237.71446,87.478085 227.98108,79.873518 218.56181,72.514366 214.87041,66.787495 211.65971,54.552367 208.39138,42.097643 204.32884,38.26315 186.23974,30.559353 179.63455,27.746328 175.8511,25.900724 168.95363,22.127014 162.46506,18.577017 158.6922,17.22044 147.27128,14.330853 137.31543,11.811939 130.53649,9.7243389 129.72813,8.9283704 c -2.3117,-2.2762498 24.69989,-38.0954944 37.10625,-49.2054834 4.54561,-4.070622 4.57725,-4.078258 4.88038,-1.177997 0.11996,1.147655 0.72697,4.287894 1.34893,6.978308 1.44455,6.24875 1.55767,11.650429 0.36691,17.521378 -4.28737,21.1386743 6.69043,22.5881487 49.49804,6.535563 23.97031,-8.988718 27.1483,-13.029858 22.98865,-29.232433 -1.71784,-6.691287 -2.43734,-8.258001 -7.15252,-15.574624 -8.16323,-12.667026 -8.33334,-13.937634 -2.80564,-20.955778 4.4738,-5.680068 8.49123,-8.137162 16.60284,-10.154434 64.84649,-16.12664 136.92335,6.327791 182.70682,56.919487 11.9306,13.183567 30.53771,40.82408 26.755,39.744065 -0.33955,-0.09695 -1.88736,-0.5173287 -3.43958,-0.9341837 C 442.09326,4.9635315 434.71154,2.4819567 424.0438,-2.219505 c -20.54851,-9.05609 -27.8061,-9.221987 -31.97551,-0.7309101 -4.09399,8.3374761 -7.32419,11.0373845 -21.33015,17.8284781 -10.37684,5.031432 -12.13047,6.036965 -23.10255,13.246971 -9.56355,6.284429 -13.47889,8.41273 -20.31523,11.042952 -12.75393,4.906967 -11.9802,7.971673 5.0476,19.993172 27.57793,19.469812 33.25391,20.24128 55.4843,7.541311 4.94771,-2.82657 11.42431,-6.331424 14.39245,-7.788563 9.52361,-4.675399 13.84328,-6.271559 35.702,-13.192248 11.99853,-3.798856 16.54914,-5.824787 26.81111,-11.936315 4.94724,-2.946335 6.61959,-3.785014 6.91156,-3.466138 0.9054,0.988823 4.85775,13.438965 6.80409,21.433314 4.9622,20.381536 6.34723,38.222929 4.81824,62.066521 -0.67787,10.57088 -6.9588,40.13957 -9.01732,42.45076 -0.22767,0.25561 -27.88831,-13.64217 -36.92873,-18.55443 -4.13929,-2.24915 -9.43505,-6.22803 -17.24384,-12.95588 -24.72596,-21.30323 -41.526,-21.87748 -51.65186,-1.76556 -6.03217,11.98103 -2.57802,17.00955 15.87452,23.11001 14.97824,4.95185 19.48884,7.47397 30.36671,16.97971 8.92448,7.79875 23.79349,18.31698 39.06223,27.63235 2.75337,1.67981 3.58332,2.35519 3.41934,2.78251 -4.42847,11.54043 -35.92116,46.5137 -48.75863,54.14746 -0.28057,0.16683 -0.72758,-0.33563 -1.29528,-1.45593 -5.76225,-11.37125 -21.77978,-16.6423 -44.25148,-14.56227 -16.65574,1.54168 -22.83358,5.8134 -33.15731,22.92689 -7.94321,13.16733 -10.59591,21.48959 -8.55871,26.85107 0.77376,2.03638 0.93117,1.8893 -2.61993,2.44792 -7.60226,1.1959 -23.25204,1.57451 -35.27778,0.85346 z m 44.80278,-310.198164 c 26.14798,-3.964416 28.41193,-5.329945 29.61926,-17.865294 0.27964,-2.903336 0.75375,-6.786918 1.05358,-8.630182 3.38505,-20.809842 -13.00841,-28.88376 -40.68588,-20.038141 -40.53668,12.955377 -50.20331,20.865115 -41.60205,34.040933 9.16278,14.03597 21.59287,17.044492 51.61509,12.492684 z"
         id="path10" /><path
         style="fill:#3e1700"
         d="m 285.85167,284.35699 c -15.74318,-0.87371 -23.68753,-2.33025 -22.57022,-4.13811 2.94942,-4.77225 -0.38812,-8.2844 -15.62851,-16.44612 -23.29653,-12.47604 -30.06315,-20.23835 -33.51781,-38.44982 -1.77294,-9.34617 1.49188,-12.08296 18.51419,-15.51979 34.36919,-6.93919 40.99299,-20.67866 14.09182,-29.23002 -14.11749,-4.48767 -43.00328,-3.73993 -50.17106,1.29874 -4.71465,3.31422 -4.55593,5.75218 1.45477,22.34579 2.62955,7.25934 1.59879,9.00795 -8.61011,14.60629 -10.21776,5.60321 -14.88773,8.58918 -19.47067,12.4495 -1.39553,1.1755 -2.66553,2.13351 -2.82222,2.12891 -0.68502,-0.0201 -12.41304,-12.35565 -13.59764,-14.30205 -0.16824,-0.27642 0.91533,-1.3822 3.07056,-3.1335 14.79195,-12.0197 11.22837,-17.88823 -11.19879,-18.44226 l -8.03542,-0.1985 -3.92888,-6.53785 C 118.30325,165.61372 108.0712,129.02304 108.0969,100.18884 l 0.003,-2.870467 2.20486,-0.376164 c 13.12522,-2.239249 37.28963,3.180071 44.67725,10.019711 2.79366,2.58644 3.89262,4.88697 5.71915,11.9724 2.86391,11.10957 6.92535,17.15901 15.73253,23.43332 13.58248,9.67628 23.04425,9.42595 44.90789,-1.18816 27.11958,-13.1657 41.52215,-13.75431 64.55833,-2.63841 21.18755,10.22387 32.62795,4.59197 22.39562,-11.02494 -3.24548,-4.95334 -4.78382,-8.17753 -7.06359,-14.80445 -4.8525,-14.10545 -10.31315,-17.519482 -30.67786,-19.179976 -32.6969,-2.666033 -52.24843,-15.067588 -58.17612,-36.901176 -4.06799,-14.983699 -7.18379,-18.133626 -25.785,-26.067359 -6.71205,-2.862806 -10.8288,-4.865905 -17.81528,-8.668431 -6.58985,-3.586655 -9.84488,-4.748956 -21.65987,-7.734275 -9.59444,-2.424246 -16.19161,-4.4239984 -16.93637,-5.1337927 -0.30767,-0.293233 0.72881,-2.1250101 6.87682,-12.1534743 3.90547,-6.370481 13.24136,-18.731777 18.65011,-24.693891 2.64057,-2.910722 5.35171,-5.944953 6.02476,-6.742735 0.67304,-0.797782 3.02501,-3.084175 5.2266,-5.080873 4.19016,-3.800214 4.62238,-3.952014 4.63477,-1.627787 0.003,0.557178 0.47217,3.100681 1.04266,5.65223 1.25497,5.61295 1.84226,10.040404 1.59083,11.993056 -0.10269,0.797499 -0.60834,4.116281 -1.12367,7.37507 -3.31904,20.9884481 7.07577,22.0734107 51.41226,5.366173 26.73756,-10.075469 29.91477,-20.584302 13.72595,-45.399616 -7.9282,-12.152873 -7.71466,-15.742234 1.40449,-23.608549 9.98819,-8.615948 51.28292,-13.444088 79.5904,-9.305629 3.10444,0.453859 7.15257,1.009404 8.99583,1.234544 45.31179,5.534468 100.4976,42.384555 125.73059,83.9560625 1.11882,1.8432641 3.06137,5.0182643 4.31678,7.0555561 2.98334,4.8414167 4.11953,7.0555564 3.62057,7.0555564 -0.4847,0 -16.67262,-4.5722167 -21.83738,-6.1678862 -4.80691,-1.4851122 -8.5799,-2.97082941 -16.58055,-6.5290421 -20.29262,-9.0249437 -27.15756,-8.9810227 -31.87598,0.2039396 -4.03084,7.846498 -6.90004,10.242463 -19.91704,16.6319957 -11.34348,5.568068 -14.44809,7.34099 -24.14738,13.789606 -9.50951,6.322436 -12.28827,7.857109 -18.95683,10.469586 -14.45745,5.663858 -13.93782,8.360978 4.04776,21.009749 27.74942,19.515416 33.08899,20.109773 56.9828,6.34285 3.78354,-2.179967 9.57792,-5.277799 12.87639,-6.88407 10.03712,-4.887818 12.9379,-5.962431 35.27778,-13.068901 12.39406,-3.942636 17.40228,-6.178316 27.5044,-12.278025 3.09769,-1.870404 5.7469,-3.284087 5.88714,-3.141518 2.26034,2.297984 11.43619,39.157418 10.08443,40.509184 -0.12133,0.121321 -5.74617,-0.22303 -12.49967,-0.765225 -27.45062,-2.203835 -39.18808,-0.778932 -54.01907,6.557803 -17.5701,8.691741 -13.05012,13.346096 24.15757,24.87574 10.43311,3.23294 13.66633,4.44109 22.07225,8.24773 10.17027,4.60564 12.89548,4.58158 19.55794,-0.17266 l 2.23418,-1.59427 v 3.18626 c 0,8.73023 -6.7959,42.56561 -8.99077,44.76317 -0.26979,0.27012 -37.15472,-18.75739 -39.89216,-20.57882 -3.71996,-2.47517 -6.82575,-4.93019 -13.32439,-10.53247 -9.38947,-8.09437 -12.4684,-10.30786 -18.00371,-12.94314 -15.40073,-7.33206 -27.54321,-3.20563 -34.63998,11.77184 -5.48444,11.57472 -1.9532,16.32459 16.77878,22.56921 14.99215,4.99788 19.04928,7.28519 30.22011,17.03736 2.68471,2.34375 6.23066,5.34274 7.87989,6.66441 3.16896,2.53956 21.94824,15.16995 29.10417,19.57461 2.32833,1.43315 4.42451,2.77685 4.65818,2.986 1.77697,1.59058 -20.84071,30.58854 -30.99133,39.73376 -1.60374,1.44489 -4.58986,4.2009 -6.63582,6.12445 -3.28778,3.0911 -9.55916,8.08011 -10.71038,8.52035 -0.22983,0.0879 -0.80638,-0.57354 -1.28122,-1.46983 -8.97509,-16.94111 -52.06268,-20.22645 -67.04487,-5.11204 -11.2477,11.34696 -21.83308,34.12021 -18.93848,40.74401 0.96712,2.21309 -0.31421,2.40569 -23.39637,3.51688 -1.64924,0.0794 -6.9095,-0.0727 -11.68947,-0.33797 z m -0.84795,-41.37005 c 2.87516,-1.0332 5.06323,-2.55564 10.07587,-7.01067 8.53071,-7.58175 15.91178,-11.74835 32.27128,-18.21708 11.27409,-4.4579 14.31946,-5.32697 29.80972,-8.50691 29.0786,-5.96945 36.68241,-11.26274 31.19087,-21.71315 -6.71949,-12.78722 -25.924,-20.34152 -39.8847,-15.68907 -4.4587,1.48588 -16.5786,8.88434 -27.94126,17.05644 -9.53714,6.85919 -16.68703,10.9309 -29.15797,16.60486 -28.31825,12.8841 -35.94444,19.76305 -31.94831,28.81791 3.17143,7.18616 16.82354,11.80597 25.5845,8.65767 z M 301.77447,67.448761 c 0,-0.618034 -1.33837,-1.607504 -2.17434,-1.607504 -1.0062,0 -1.17057,0.773137 -0.31215,1.468244 0.96207,0.779036 2.48649,0.864414 2.48649,0.13926 z M 286.67156,29.542355 c 9.43726,-2.445356 18.98347,-10.594068 18.98347,-16.204423 0,-5.9063379 -7.35751,-7.8006665 -30.33889,-7.8113167 -25.44092,-0.01179 -38.37851,3.6832864 -36.87437,10.5316037 1.76059,8.015915 34.26336,17.103075 48.22979,13.484136 z m 31.15431,-53.462235 c 34.61368,-4.616703 38.5943,-6.336454 39.70477,-17.153685 0.20783,-2.024561 0.62225,-5.506645 0.92092,-7.737965 1.11297,-8.31478 1.18179,-9.318089 0.82278,-11.994445 -1.88213,-14.030836 -18.79904,-18.634401 -41.44847,-11.27929 -39.31701,12.767691 -49.35699,20.364363 -42.6841,32.296595 7.57368,13.543008 21.44822,18.701188 42.6841,15.86879 z"
         id="path9" /><path
         style="fill:#280800"
         d="m 284.31197,284.1627 c -12.74418,-0.6278 -21.62407,-2.29605 -20.65783,-3.88095 3.00405,-4.92741 -0.78528,-8.87307 -16.56023,-17.24342 -21.44794,-11.3805 -27.71975,-18.23891 -31.92943,-34.91582 -3.03369,-12.01812 -0.74363,-14.22929 18.86642,-18.21641 31.34035,-6.37213 38.93022,-18.70612 17.26235,-28.05234 -15.67637,-6.76185 -50.03361,-6.09746 -56.52989,1.09315 -2.96155,3.27807 -2.68743,5.89659 1.95902,18.7138 3.64769,10.06211 3.23845,10.9283 -8.1045,17.15392 -9.82585,5.39295 -15.32244,8.9705 -19.80211,12.88854 -2.01907,1.76592 -1.90966,1.79584 -5.07389,-1.38707 -3.59221,-3.6134 -4.50522,-2.33841 8.91592,-12.45088 13.74572,-10.35703 15.88588,-19.87835 6.20109,-27.58787 -5.32272,-4.23712 -7.2133,-4.54211 -29.77396,-4.80315 -18.31782,-0.21196 -18.82126,-0.23613 -19.22639,-0.92321 -3.05177,-5.17568 -12.73523,-28.36783 -12.10684,-28.99622 0.0817,-0.0817 1.6856,-0.37946 3.56421,-0.66167 22.55477,-3.38829 25.6102,-6.61659 24.1671,-25.53439 -1.3444,-17.62382 -11.06613,-24.1175 -32.84051,-21.93598 -4.44584,0.44541 -4.07226,0.86686 -4.37359,-4.934 l -0.24954,-4.803924 1.34247,-0.251848 c 10.85399,-2.036221 32.47699,1.652111 41.73519,7.118962 5.34838,3.15815 7.02359,5.81077 9.37308,14.8419 3.07347,11.81401 7.62951,18.13454 17.83269,24.73903 12.76307,8.2615 22.09428,7.68034 43.39111,-2.70241 26.41011,-12.87562 41.65621,-13.52927 63.6764,-2.73001 11.72392,5.7497 19.33076,6.75858 24.53182,3.25358 4.2951,-2.89446 3.94532,-6.52809 -1.43418,-14.89882 -3.49803,-5.44306 -4.69948,-7.97348 -7.0245,-14.79452 C 296.72533,98.41884 291.10647,94.925998 270.75401,93.183227 237.59705,90.344016 218.4946,78.164857 212.66235,56.145699 208.86223,41.798698 205.37524,38.255735 187.47447,30.553505 182.91481,28.591607 177.35856,26.023217 175.12724,24.845971 160.424,17.088532 160.74594,17.215841 147.21702,13.809034 137.04707,11.24807 130.32446,9.1689025 130.32446,8.5845055 c 0,-0.205611 0.97902,-2.0280057 2.1756,-4.0497661 l 2.17559,-3.675928 1.37457,0.2198024 c 10.90134,1.7431947 14.97694,-1.11044304 20.88791,-14.6252358 2.71763,-6.21358 3.72787,-10.308767 3.88624,-15.753703 0.14947,-5.138591 -0.41476,-4.133456 5.23228,-9.320921 5.25489,-4.827234 4.7666,-4.845817 5.6931,0.216661 0.31959,1.746251 0.89575,4.603751 1.28036,6.350001 0.97406,4.422614 0.95095,9.514946 -0.0657,14.46389 -4.55273,22.1633387 6.48517,23.9252557 49.43501,7.8910281 24.15179,-9.0164551 27.90724,-13.2709281 24.55956,-27.8229741 -1.9692,-8.559911 -2.69246,-10.214614 -8.0712,-18.465654 -7.81281,-11.984942 -7.95201,-13.230523 -2.25613,-20.187662 4.45869,-5.445996 7.82031,-7.436455 16.02208,-9.48688 5.66994,-1.417472 22.23144,-4.239234 22.63427,-3.856446 0.0816,0.07751 -1.35365,1.609075 -3.18936,3.403488 -5.47186,5.348753 -6.30769,8.786225 -2.91142,11.973543 5.5203,5.180647 16.31374,3.608505 36.53881,-5.322141 17.20833,-7.59856 20.12856,-8.64569 23.21229,-8.323403 8.50454,0.888829 33.26151,8.539134 43.23024,13.358844 l 4.60107,2.22454 0.42601,1.845576 c 0.6966,3.017821 0.51668,8.848465 -0.45593,14.775015 -3.36791,20.522272 1.87656,26.956901 29.80972,36.574633 11.46807,3.948596 18.70729,6.725963 30.16251,11.5720124 5.04472,2.134135 11.53981,4.700454 14.43353,5.7029311 l 5.26131,1.82268553 2.76439,4.55218757 c 3.10463,5.1124854 3.14134,5.2125545 1.79424,4.8903769 C 450.51222,7.0309751 434.13485,1.7188545 426.83421,-1.5397143 403.6464,-11.889362 395.70657,-12.287171 391.63707,-3.3031929 387.9993,4.7276618 384.701,7.4828453 370.27693,14.539645 c -10.53635,5.154777 -13.34794,6.770592 -23.08641,13.267717 -8.67444,5.787241 -12.2948,7.77643 -19.0833,10.485206 -14.7028,5.866774 -13.92504,8.832605 5.94642,22.675632 16.59019,11.557193 24.63891,15.116764 33.12868,14.651261 5.90248,-0.323638 8.58794,-1.417188 21.0294,-8.563415 14.4476,-8.298529 24.04094,-12.60133 38.09332,-17.085591 17.10711,-5.459058 19.8993,-6.395445 23.72793,-7.957395 4.72188,-1.926367 9.26378,-4.312674 15.95957,-8.385131 2.71639,-1.65214 5.05106,-2.897415 5.18815,-2.767279 0.3578,0.339658 4.07331,10.729909 4.69526,13.130105 0.81467,3.143896 0.89676,3.02993 -2.38688,3.313609 -9.88985,0.8544 -32.93303,6.399839 -49.82986,11.99177 -17.11823,5.665199 -23.96804,8.906881 -39.33473,18.615194 -15.88387,10.035059 -19.66158,9.399488 -49.38889,-8.309311 -40.38497,-24.057645 -41.73067,-28.751546 -11.64723,-40.626354 11.96171,-4.721635 26.09605,-12.319735 37.6911,-20.2613328 10.99571,-7.5311101 11.62744,-13.4296813 2.0916,-19.5296862 -9.61611,-6.151349 -19.40591,-7.415075 -40.33231,-5.206337 -15.69691,1.656775 -18.73998,1.8319 -37.19205,2.140353 -18.9328,0.316489 -18.90373,0.313783 -28.55212,2.65776 -36.5931,8.8899157 -60.40639,20.7617933 -58.16756,28.998861 0.55223,2.031782 3.08753,4.193191 9.31171,7.938479 7.6056,4.576535 10.72224,6.962693 16.69149,12.77932 10.84704,10.569699 13.43409,14.007973 13.4408,17.86322 0.0154,8.832012 2.594,10.745629 20.62043,15.302547 13.62409,3.44405 18.31002,4.894346 37.08638,11.478236 34.97555,12.264109 37.13633,13.968624 34.02282,26.838637 -1.94101,8.02332 -0.90731,12.5868 3.84841,16.98977 8.26448,7.65145 16.90061,3.57105 23.88751,-11.28637 3.92379,-8.34381 4.47248,-9.30087 6.73044,-11.73968 7.32043,-7.906734 14.99898,-8.828816 32.45027,-3.8968 13.27734,3.75238 21.70153,8.19979 31.16069,16.45075 9.01161,7.86056 9.86464,8.47324 25.03818,17.98354 10.70293,6.70826 14.84409,8.97192 19.93195,10.89532 l 3.175,1.20026 -0.0417,1.27852 c -0.0396,1.21291 -1.60478,6.5496 -2.20655,7.52328 -0.21,0.33979 -4.45292,-1.67173 -16.65566,-7.89627 -24.8663,-12.68413 -24.7705,-12.62431 -36.62564,-22.87067 -25.25216,-21.82536 -42.57133,-22.30211 -52.90088,-1.4562 -6.02252,12.15395 -2.37929,17.20996 17.06097,23.67688 14.38162,4.78414 18.83144,7.31146 29.87857,16.96987 8.49244,7.42487 21.40852,16.57063 37.1401,26.29858 2.52737,1.56285 4.65705,2.89483 4.73261,2.95995 0.14077,0.1213 -3.77953,6.84037 -3.99107,6.84037 -0.0644,0 -0.7318,-0.26095 -1.4831,-0.57988 -3.68524,-1.56445 -9.95407,-3.41675 -14.23927,-4.2074 -10.83121,-1.99845 -11.24082,-2.29872 -27.97143,-20.50516 -14.32463,-15.58823 -19.91866,-18.45141 -45.93864,-23.51273 -17.81732,-3.46576 -18.58557,-3.39042 -35.98333,3.52868 -22.01484,8.75531 -25.00762,11.33473 -29.40608,25.34455 -3.21651,10.24513 -9.28501,15.17033 -32.8592,26.66862 -26.16893,12.76387 -28.81922,14.86081 -29.20863,23.11027 -0.56737,12.01942 9.93235,23.32736 26.80817,28.87176 24.14144,7.93145 37.77836,7.9093 45.0929,-0.0732 2.04166,-2.22811 2.84693,-3.66207 6.98285,-12.43453 2.50844,-5.32051 5.28344,-8.07707 12.62026,-12.53637 12.5318,-7.6168 19.87952,-9.51683 44.9489,-11.62323 12.76176,-1.07228 17.33056,-1.60091 26.28194,-3.04093 11.36084,-1.82763 12.07132,-1.55025 13.7474,5.36724 1.1378,4.69591 2.83741,9.08836 4.76371,12.31125 l 1.37055,2.29305 -1.12138,1.19439 c -4.21989,4.49462 -8.87513,7.07519 -9.73231,5.39498 -5.45683,-10.69627 -19.79985,-15.72655 -41.35283,-14.50297 -18.19801,1.03311 -24.17894,4.40875 -33.99098,19.18454 -9.43987,14.21534 -13.73605,26.00852 -11.40002,31.29352 l 0.56995,1.28946 -3.93677,0.56057 c -7.83229,1.11527 -20.87175,1.46023 -32.86455,0.86944 z m -47.625,-120.60594 c 10.35115,-3.20056 11.00254,-12.4293 0.88194,-12.49523 -8.19455,-0.0534 -20.88785,8.90829 -16.86054,11.90381 2.37418,1.76591 11.13173,2.09006 15.9786,0.59142 z m 82.7264,-187.303118 c 34.26424,-4.908982 37.37603,-6.284027 38.47205,-17.00011 0.3161,-3.090638 1.22183,-10.470939 1.96952,-16.048526 0.85357,-6.367469 -3.27092,-13.593012 -9.4998,-16.642346 -10.9004,-5.336264 -24.56418,-2.9742 -56.34178,9.739826 -21.33778,8.537117 -25.49434,14.728309 -17.74806,26.435691 8.09256,12.230736 21.90862,16.558405 43.14807,13.515465 z"
         id="path8" /></g></g></svg>
