<svg xmlns="http://www.w3.org/2000/svg" width="138.665" height="108.267" viewBox="0 0 36.688 28.645"><path d="M60.132 153.892c-.424-.29-.556-.873-.265-1.296.714-1.059 1.508-1.667 2.302-1.905s1.508-.16 1.958-.133.529 0 .529 0 .238-.29.317-1.323a.93.93 0 0 1 1.032-.846c.53.053.9.503.847 1.032-.106 1.217-.344 2.037-.979 2.566-.635.556-1.402.476-1.905.45-.503-.053-.873-.08-1.243.053-.37.106-.768.344-1.297 1.164-.291.423-.873.556-1.296.265q0 0 0 0v0zm-21.326 3.387a.98.98 0 0 1 .635-1.217q0 0 0 0c1.482-.45 2.487-.609 3.334-.503.847.08 1.482.503 1.852.847s.503.529.609.582.238.132.926-.053a.98.98 0 0 1 1.19.688.98.98 0 0 1-.714 1.19q0 0 0 0c-.926.239-1.72.212-2.302-.105-.582-.318-.847-.715-1.032-.9s-.264-.265-.688-.317c-.423-.053-1.217.026-2.566.45a.98.98 0 0 1-1.217-.636v0zm22.014 11.456a2.27 2.27 0 0 1-.053-1.323c.185-.767.582-1.349.82-1.852.238-.476.264-.714.211-.82-.052-.106-.396-.503-1.666-.847a.923.923 0 0 1-.662-1.137q0 0 0 0a.923.923 0 0 1 1.138-.662q0 0 0 0c1.482.397 2.434.953 2.857 1.852s.08 1.773-.211 2.408-.609 1.164-.688 1.455c-.027.159 0 .185 0 .238 0 .027.053.106.264.265a.935.935 0 0 1 .265 1.296c-.291.45-.847.556-1.297.265a2.53 2.53 0 0 1-.978-1.138" class="st2" style="fill:#5c563e;fill-opacity:1;fill-rule:evenodd;stroke:#3d3929;stroke-width:1.32292px;stroke-linecap:round;stroke-linejoin:round;stroke-opacity:1" transform="matrix(1.24728 0 0 1.18857 -47.525 -174.22)"/><path d="M64.047 158.549c-.079.767-.582 1.587-1.56 3.254-1.8 3.07-2.7 4.604-4.022 5.186-1.27.556-1.561-.053-6.06-.159-3.015-.053-3.095.212-3.915-.08-2.752-1.005-4.286-5-4.26-8.201.053-5.027 3.995-8.07 4.763-8.652.9-.714 4.603-3.545 7.91-2.302 1.138.423 2.09 1.72 3.97 4.286 2.275 3.096 3.386 4.683 3.148 6.694z" style="fill:#654646;fill-rule:evenodd;stroke-width:.264583" transform="matrix(1.24728 0 0 1.18857 -47.525 -174.22)"/><g transform="matrix(.33 0 0 .31447 -.014 -.05)"><circle cx="83.9" cy="56.9" r="9.1" class="st6" style="fill:#463527;fill-opacity:1"/><circle cx="34.3" cy="48.7" r="9.1" class="st6" style="fill:#463527;fill-opacity:1" transform="rotate(-58.6 34.316 48.664)"/><circle cx="63.4" cy="16.5" r="9.1" class="st6" style="fill:#463527;fill-opacity:1"/><circle cx="86.9" cy="36.3" r="9.1" class="st6" style="fill:#463527;fill-opacity:1"/><circle cx="55.9" cy="69" r="9.1" class="st6" style="fill:#463527;fill-opacity:1"/><circle cx="56.9" cy="35.9" r="5.9" class="st6" style="fill:#463527;fill-opacity:1"/><circle cx="76.6" cy="30.1" r="5.9" class="st6" style="fill:#463527;fill-opacity:1"/><circle cx="55.4" cy="27.4" r="5.9" class="st6" style="fill:#463527;fill-opacity:1"/><circle cx="64.3" cy="61.8" r="4.3" class="st6" style="fill:#463527;fill-opacity:1"/><circle cx="37.5" cy="59.9" r="4.3" class="st6" style="fill:#463527;fill-opacity:1"/><circle cx="38.3" cy="24.1" r="4.3" class="st6" style="fill:#463527;fill-opacity:1"/></g><path d="M59.1 42.8c-2-13 3.3-22.5 0-36.7" class="st0" style="fill:#8b558b;fill-rule:evenodd;stroke:#2d1f1f;stroke-width:5px;stroke-linecap:square;stroke-linejoin:round;stroke-opacity:1" transform="matrix(.33 0 0 .31447 -.014 -.05)"/><path d="M59.7 37.1c2 13-3.3 22.5 0 36.7" class="st0" style="fill:#8b558b;fill-rule:evenodd;stroke:#2d1f1f;stroke-width:5px;stroke-linecap:square;stroke-linejoin:round" transform="matrix(.33 0 0 .31447 -.014 -.05)"/><path d="M56.6 45.6c10.5-8.4 21.2-9 32.1-19M61.8 43.1c-10.5 8.4-21.2 9-32.1 19" class="st0" style="fill:#8b558b;fill-rule:evenodd;stroke:#2d1f1f;stroke-width:5px;stroke-linecap:square;stroke-linejoin:round;stroke-opacity:1" transform="matrix(.33 0 0 .31447 -.014 -.05)"/><path d="M58.4 41.3C70.2 46.1 75.8 54.6 89.1 59M62.9 44.5c-11.8-4.8-17.4-13.3-30.7-17.7" class="st3" style="fill:#8b558b;fill-rule:evenodd;stroke:#2d1f1f;stroke-width:5px;stroke-linecap:square;stroke-linejoin:round;stroke-opacity:1" transform="matrix(.33 0 0 .31447 -.014 -.05)"/><g transform="matrix(.33 0 0 .31447 -.014 -.05)"><ellipse cx="60.6" cy="42.9" class="st5" rx="10.3" ry="10.2" style="fill:#5c563e;fill-opacity:1;stroke:#2e2b1f;stroke-width:4px;stroke-linecap:round;stroke-linejoin:round;stroke-opacity:1"/><path d="M61.9 48.9c-3.5-3.9-9.4-3.5-11.1-3.5-4.8 0-4.7-4.8-.2-4.9 1.8 0 7.8.5 11.3-3.5" class="st5" style="fill:#5c563e;fill-opacity:1;stroke:#2e2b1f;stroke-width:4px;stroke-linecap:round;stroke-linejoin:round;stroke-opacity:1"/></g><path d="M64.047 157.887c0 1.191-3.915 7.99-4.947 8.573-1.694.979-2.011-.106-9.896 0-.608 0-1.058 0-1.64-.212-2.646-1.032-3.52-5.45-3.307-8.36.026-.371.502-5.583 4.947-8.573 2.487-1.667 6.774-3.016 8.97-1.217.45.37.661.767.926 1.243 3.942 6.985 4.947 6.694 4.947 8.573z" style="fill:none;stroke:#2d1f1f;stroke-width:1.32292px;stroke-linecap:square;stroke-linejoin:round" transform="matrix(1.24728 0 0 1.18857 -47.525 -174.22)"/></svg>