<svg width="58" height="17" viewBox="0 0 58 17" fill="none" xmlns="http://www.w3.org/2000/svg">
<path d="M38.3688 6.50797L37.2753 2.65136L36.7406 2.65386L36.6775 1.91788L35.3791 1.77293V0.797273L35.1593 0.392578H34.6238L34.6238 2.66375L17.361 2.74441L17.2792 1.91788L15.9808 1.77293V0.797273L15.761 0.392578H15.2254L15.2254 2.75439L13.4142 2.76285L13.1147 3.46186L12.7069 3.56283L12.8094 5.23121V6.29646L14.5574 6.29694C14.6588 6.29694 14.7126 6.28998 14.7541 6.26938C14.7659 6.26351 14.78 6.25483 14.7958 6.24044C14.7431 6.16751 14.7195 6.07389 14.7378 5.9786L14.9903 4.66357C15.0191 4.51317 15.1435 4.40529 15.2884 4.39066C15.3198 4.33599 15.3581 4.28385 15.4057 4.23857C15.5031 4.14586 15.629 4.09199 15.7785 4.09199H24.6786C24.9846 4.09199 25.312 4.19875 25.6215 4.35579C25.9337 4.51416 26.2425 4.73127 26.5154 4.97026C26.788 5.20906 27.0303 5.47466 27.2063 5.73339C27.3296 5.91458 27.4307 6.10746 27.4775 6.29442L27.4629 7.62233H37.5007L37.9779 6.50798L38.3688 6.50797Z" fill="#D9D9D9"/>
<path d="M37.7741 3.53048L38.4433 5.97192C38.5485 5.97192 38.6382 5.88668 38.6382 5.78152V5.6981H39.9564C40.0041 5.6981 40.0564 5.65801 40.0564 5.59802L40.0564 4.09311C40.0556 4.03853 40.0111 3.99454 39.9564 3.99454H39.5178V2.89674H39.2187V3.99454H38.6382V3.72089C38.6382 3.61573 38.5529 3.53048 38.4478 3.53048H37.7741Z" fill="#D9D9D9"/>
<path d="M40.27 4.77212L40.2697 5.61988H45.4965L45.6935 5.53411H45.9195L46.1026 5.69127L48.8034 5.69125C48.8919 5.69125 48.9636 5.61954 48.9636 5.53107V4.86004C48.9636 4.77156 48.8918 4.69983 48.8034 4.69986L46.1026 4.70074L45.9195 4.8616H45.6935L45.4965 4.77212H40.27Z" fill="#D9D9D9"/>
<path fill-rule="evenodd" clip-rule="evenodd" d="M12.8095 7.3582V6.51003L13.9198 6.5099C13.9208 6.74308 14.0663 6.86762 14.2733 6.89475C15.3977 6.99737 15.7348 7.32979 16.1694 7.75828C16.2458 7.8336 16.3252 7.91188 16.4125 7.99241C16.6386 8.19526 16.9329 8.00609 17.2442 7.80599C17.4782 7.65552 17.7219 7.49888 17.9534 7.49813H20.9351C22.1018 7.49041 23.3518 7.47163 24.1699 7.6765C25.0423 7.89497 24.8217 8.41645 24.8217 8.41645V8.88895L23.2134 9.28184L21.4545 9.39613V10.1325C21.4545 10.2236 21.4344 10.2731 21.2512 10.274V10.4026C21.0971 10.5576 20.7269 10.7234 20.3115 10.8057C20.1396 10.8397 19.8778 10.8057 19.7609 10.7427C19.582 10.6464 19.5171 10.5815 19.4115 10.4492C19.4115 10.4492 18.1988 10.4399 17.9392 10.3385C17.647 10.2243 17.4651 10.0293 17.2422 9.77886C17.2189 9.75273 17.1434 9.66736 17.126 9.64682C17.0355 9.5729 16.8797 9.59186 16.8321 9.65853L16.4424 10.3532C16.2948 10.5974 16.2861 10.7537 16.4786 11.0888C16.5146 11.1514 16.4881 11.1864 16.4145 11.1864C16.1778 11.1864 15.9995 11.342 15.8479 11.604L15.1456 13.1756V13.4108C15.1456 13.4247 15.1758 13.4415 15.2102 13.4607C15.2484 13.4819 15.2917 13.506 15.305 13.5324C15.3457 13.6135 15.3501 13.7419 15.2983 13.7624C15.165 13.8154 14.9721 13.8306 14.902 13.8065L12.3525 12.8617C12.3603 12.8281 12.3691 12.8022 12.3805 12.7823C12.4102 12.7373 12.4463 12.7235 12.5096 12.7186L12.5095 12.4819L14.7169 8.74556C14.8213 8.5699 14.7169 8.05241 14.5911 7.99227L12.8095 7.3582ZM18.9465 8.50343C18.869 8.49703 18.7863 8.49065 18.701 8.48484C18.6293 8.55647 18.5677 8.62352 18.5155 8.68737C18.2244 9.04373 18.2272 9.30052 18.4035 9.69869C18.4837 9.87981 18.3433 9.96438 18.2535 9.85341C17.9204 9.44182 17.9079 9.10588 18.0717 8.67381C18.0976 8.60553 18.1279 8.53484 18.162 8.46108C18.1372 8.46077 18.1126 8.4606 18.0883 8.4606C18.0183 8.4606 17.9463 8.41432 17.8826 8.37334C17.8322 8.34098 17.787 8.31192 17.752 8.3116C17.6609 8.31077 17.5722 8.37186 17.5081 8.48529L17.1645 9.10945C17.1376 9.14971 17.1213 9.31798 17.1488 9.35134C17.1885 9.39938 17.3276 9.5475 17.3722 9.59071C17.7182 9.92579 18.1218 10.1325 18.4724 10.1325H19.8241C20.0467 10.0979 20.1906 9.92826 20.2133 9.83273C20.2781 9.55964 20.2668 9.43173 20.2133 9.12887C20.1645 8.85342 19.9188 8.64461 19.7743 8.61341C19.455 8.54447 19.1898 8.52307 18.9465 8.50343Z" fill="#D9D9D9"/>
<path d="M24.6936 9.14008L23.2459 9.49375L21.69 9.59485C21.9476 10.7362 22.3349 11.6576 22.8698 12.5216C23.6917 13.8493 24.6443 15.1255 26.7078 16.3926L28.3707 13.9173C27.1117 13.1016 26.3714 12.3472 25.773 11.4673C25.324 10.8072 24.9493 10.0779 24.6936 9.14008Z" fill="#D9D9D9"/>
<path d="M5.12728 6.51176L5.12709 4.25348L11.9284 4.25345L12.504 3.74283L12.5958 5.23776V7.3324L8.13189 6.94654L5.12728 6.51176Z" fill="#D9D9D9"/>
<path d="M1.44465 5.2314L1.62518 6.07351V6.99791L2.5103 7.10516C2.21959 7.3487 2.26664 7.70032 2.31598 8.06899C2.32581 8.14246 2.33576 8.21678 2.34311 8.29089H1.61817L1.44465 10.7922C1.39331 11.0983 1.33858 11.1939 1.2041 11.1939H0.891342C0.778697 11.1939 0.669481 11.0006 0.62144 10.6963L0.162117 7.97245L0.162109 4.19101H1.39294V5.2314H1.44465Z" fill="#D9D9D9"/>
<path d="M4.91358 4.61075H1.60651V5.01782H1.61728L1.83875 6.05087V6.34983H4.9137L4.91358 4.61075Z" fill="#D9D9D9"/>
<path d="M27.2959 6.508L27.2419 7.79418L25.0382 8.44008C25.044 8.41844 25.0499 8.39143 25.0542 8.36009C25.0645 8.28348 25.0652 8.17676 25.025 8.05933C24.9399 7.81025 24.701 7.58934 24.2218 7.46933C23.3773 7.25785 22.0835 7.26643 20.9351 7.27405L18.0218 7.28424C17.86 7.2848 17.6383 7.33953 17.5062 7.40394C17.3757 7.46755 17.2473 7.55005 17.1338 7.62301L17.1287 7.62634C16.9658 7.73104 16.8388 7.81102 16.7288 7.84771C16.633 7.87968 16.5923 7.86638 16.556 7.83428C16.4722 7.75683 16.388 7.67382 16.3117 7.59858C16.0989 7.38875 15.8871 7.17999 15.5808 7.01594C15.2699 6.84947 14.8758 6.73569 14.2974 6.68249C14.2275 6.67273 14.1893 6.65037 14.1699 6.63072C14.1535 6.61412 14.1331 6.58237 14.1334 6.51098L14.5574 6.51052C14.5862 6.51052 14.6146 6.51012 14.6425 6.50857C14.7624 6.50193 14.8746 6.47416 14.9715 6.36607C14.9882 6.34754 15.0043 6.32666 15.02 6.30311C15.0444 6.26656 15.0675 6.2236 15.0894 6.17312L15.0465 6.1649C15.0178 6.15938 14.9933 6.1444 14.9755 6.1238C14.9516 6.09593 14.9401 6.05778 14.9476 6.01887L15.2 4.70383C15.213 4.63617 15.2784 4.59185 15.346 4.60484L15.4181 4.61868C15.4854 4.43511 15.5902 4.30557 15.7785 4.30557H24.6786C25.7166 4.30557 27.2957 5.7723 27.2959 6.508Z" fill="#D9D9D9"/>
<path d="M49.5531 4.9255L49.3418 4.73633L56.6979 2.28125L53.9052 4.45779L57.6425 5.41883L54.4802 6.01452L57.2124 8.23615L49.3418 5.64172L49.4989 5.41883L49.3418 5.08843L49.5531 4.9255Z" fill="#D9D9D9"/>
</svg>
