<svg width="57" height="17" viewBox="0 0 57 17" fill="none" xmlns="http://www.w3.org/2000/svg">
<path d="M55.3833 7.36523L45.7637 5.08882L46.1791 4.82399L45.7637 4.39455L46.4582 3.96338L45.7637 3.81975L55.8505 0.713989L52.2775 2.99521L56.8949 4.09459L52.4699 4.80919L55.3833 7.36523Z" fill="#D9D9D9"/>
<path d="M15.5679 2.70813C16.0987 2.71848 16.7829 3.1064 17.1678 3.35462H24.0875V5.16414C24.0875 5.65654 24.4866 6.05573 24.979 6.05573L32.2171 6.05509V6.58926C32.483 6.57296 32.7735 6.55341 33.005 6.53742C33.2595 6.51982 33.452 6.50652 33.4917 6.50652L34.4689 6.50651C34.4888 6.50597 34.8992 6.48707 34.8892 5.83543C34.8885 5.79386 34.8813 5.75604 34.8682 5.72165H37.5652C37.5652 5.72165 37.706 5.62844 37.706 5.24596C37.706 5.11227 37.6787 5.01393 37.6431 4.94255H41.7487V4.97212C41.7487 5.03141 41.7967 5.07947 41.856 5.07947H42.2764C42.3357 5.07947 42.3838 5.03141 42.3838 4.97212V4.94255H42.9904C43.0183 5.02228 43.0941 5.07947 43.1834 5.07947H44.7975C44.9104 5.07947 45.0019 4.98796 45.0019 4.87506V3.96226C45.0019 3.84937 44.9104 3.75785 44.7975 3.75785H43.1834C43.0716 3.75785 42.9807 3.84763 42.979 3.95904H42.3838V3.8652C42.3838 3.80591 42.3357 3.75785 42.2764 3.75785H41.856C41.7967 3.75785 41.7487 3.80591 41.7487 3.8652V3.95904H37.2142L37.2143 3.70964H34.1502C34.1501 3.659 34.1475 3.61621 34.1453 3.58875L34.3113 3.19345C34.3711 3.05074 34.3049 2.88811 34.1609 2.82512L32.7448 2.20737C32.6882 2.1823 32.6252 2.17394 32.5635 2.18359L32.208 2.23758C32.0769 2.25815 31.9863 2.37772 32.0055 2.50499L32.0393 2.72677L31.992 2.70813H30.9969V2.34108H15.4145V2.70749H15.7345L15.7723 2.70813H15.5679Z" fill="#D9D9D9"/>
<path d="M34.4695 6.76363H34.0085V7.30491L33.1098 7.30494C32.6599 7.30494 32.9819 7.72149 32.9819 7.72149C32.9819 7.72149 33.4936 8.5745 33.2706 9.57215C33.0475 10.5698 32.9819 12.2103 32.9819 13.0504C32.9819 13.8906 34.4649 13.6804 34.4649 13.6804C34.4649 13.6804 35.62 13.4708 35.4233 13.2606C35.2266 13.0504 35.2003 12.171 35.2003 12.171C35.2003 12.171 35.4362 11.0693 35.2003 10.2812C34.9644 9.49308 35.1103 7.30494 35.1103 7.30494L34.4707 7.30491L34.4695 6.76363Z" fill="#D9D9D9"/>
<path fill-rule="evenodd" clip-rule="evenodd" d="M16.669 3.35483H1.79131C1.25523 3.35483 0.903868 3.49989 0.677227 3.71394C0.6456 3.74381 0.60263 3.80161 0.589473 3.81922C0.354558 4.13355 -0.183642 4.70891 0.156627 5.89651C0.25208 6.22983 0.401152 6.73476 0.576935 7.33016C1.21204 9.48137 2.16027 12.7983 2.25927 13.5004C2.27765 13.6307 2.37305 13.7749 3.01265 13.7749H5.79155C6.70306 13.7749 6.31994 12.9919 6.31994 12.9919C5.62763 12.3253 6.70949 11.7275 6.70949 11.7275C6.70949 11.7275 8.22371 10.7135 9.40229 9.99536L9.71527 10.2548L11.0569 9.29254C11.2976 9.38899 11.3202 9.71807 11.3307 9.87127C11.3332 9.90813 11.335 9.9348 11.339 9.94561C11.3401 9.94853 11.3483 9.9496 11.3483 9.9496L11.3487 9.95197L11.3593 9.95012C11.6696 9.95782 15.4236 9.15888 15.5276 9.13539C15.5482 9.13076 15.5841 9.11786 15.6291 9.09639L15.6301 9.09622C15.8222 9.00433 16.1773 8.75714 16.2006 8.33086C16.2302 7.8044 16.8004 7.68676 16.8004 7.68676C16.8004 7.68676 17.7299 7.40585 19.3318 7.07223C20.4927 6.83053 20.9993 7.32871 20.9993 7.32871C20.9993 7.32871 21.3406 7.90146 20.4734 9.12088C19.2842 10.7935 19.4346 13.2767 19.4784 13.4959C19.5221 13.7151 20.0344 13.7446 22.2 13.7736C24.3657 13.8031 25.0786 12.8286 25.0786 12.8286C25.0786 12.8286 26.8225 10.7241 28.3563 8.64906C29.5816 6.99138 31.3131 6.66783 31.96 6.60474V6.31224L24.9791 6.31286C24.3447 6.31286 23.8303 5.79855 23.8303 5.16414V3.61175H17.0921L17.0285 3.57071C16.9263 3.50484 16.8035 3.42954 16.669 3.35483ZM27.0308 6.83182L25.609 6.83181C25.445 7.1374 25.3279 7.56835 25.4726 8.10457C25.4781 8.12484 25.4766 8.14512 25.4697 8.16295C25.4648 8.17576 25.457 8.18731 25.4472 8.19672C25.4308 8.21235 25.4085 8.22221 25.3832 8.22221H24.319C24.3225 8.31689 24.3353 8.44887 24.3734 8.59056C24.383 8.62399 24.3567 8.65741 24.322 8.65741H24.1478C24.1362 8.65741 24.1253 8.65613 24.1137 8.6542C24.0533 8.64327 23.7949 8.62784 23.5827 9.10481C23.341 9.64863 22.2405 12.0913 22.2405 12.0913C22.2405 12.0913 21.878 12.8286 23.0627 12.8286C24.0819 12.8286 24.3965 12.4139 24.4814 12.3019L24.4846 12.2977L24.4876 12.2938C24.4892 12.2918 24.4907 12.2898 24.4921 12.288L27.6472 8.40221C27.6826 8.36622 28.3325 7.6964 27.4955 6.99638C27.3657 6.88774 27.1998 6.83182 27.0308 6.83182Z" fill="#D9D9D9"/>
<path d="M15.5845 9.38616L15.5843 9.3862C15.5294 9.3986 14.5625 9.60469 13.5722 9.80641C13.0766 9.90735 12.5734 10.0076 12.1741 10.0821C11.9746 10.1194 11.7996 10.1505 11.6637 10.1722C11.5607 10.1886 11.461 10.2031 11.3914 10.2065C11.5646 11.2303 12.2144 14.9944 12.5115 15.6237C12.5115 15.6237 12.6523 16.0968 12.6028 16.4053C12.5533 16.7139 13.1087 16.7139 13.1087 16.7139L16.414 15.7889C16.414 15.7889 16.9124 15.731 16.5619 14.8761C16.1474 13.865 15.5174 10.2857 15.5845 9.38616Z" fill="#D9D9D9"/>
</svg>
