<?xml version="1.0" encoding="UTF-8" standalone="no"?>
<svg
   width="53.290329"
   height="15.999976"
   viewBox="0 0 53.290329 15.999976"
   fill="none"
   version="1.1"
   id="svg2"
   xmlns="http://www.w3.org/2000/svg"
   xmlns:svg="http://www.w3.org/2000/svg">
  <defs
     id="defs2" />
  <path
     d="m 39.963027,7.4913495 c 2.4407,-0.38421 3.4277,-1.57909 3.0641,-3.89091 L 50.962327,0 l -2.87,4.1470095 5.198,0.84033 -4.6218,2.18487 3.4874,3.5714605 -6.3446,-1.9328105 0.7563,4.4538105 -3.7815,-3.2353 -1.5546,4.2437 z"
     fill="#d9d9d9"
     id="path1" />
  <path
     d="m 41.418927,3.5285195 c -0.3726,-1.38949 -0.7178,-1.98721 -3.3116,-1.29221 l -13.9822,4.29899 c 0,0 -5.3658,2.11968 -8.1203,2.96663 L 2.4657571,13.37367 c -0.5416,0.1492 -0.94832,0.2607 -1.17694,0.3234 -0.2409,-0.363 -0.60379997,-0.9095 -0.85565497,-0.8828 -0.27243,0.029 -0.468981,0.462 -0.42767,1.0767 0.014975,0.2228 0.054705,0.464 0.121017,0.7114 0.249243,0.9298 0.856218,1.525399 1.15398797,1.3742 0.25558,-0.1297 0.28665,-0.7693 0.30567,-1.1755 0.5663,-0.122 12.7827599,-3.114 14.8483599,-3.6276 2.8097,-0.6528 8.5042,-1.6015105 8.5042,-1.6015105 l 14.2585,-3.26809 c 2.6201,-0.5073 2.5943,-1.38567 2.2217,-2.77535 z"
     fill="#d9d9d9"
     id="path2" />
</svg>
