<?xml version="1.0" encoding="UTF-8" standalone="no"?>
<svg
   width="33.924946"
   height="16.000002"
   viewBox="0 0 22.899338 9.0666677"
   fill="none"
   version="1.1"
   id="svg1"
   sodipodi:docname="crowbar_killfeed.svg"
   inkscape:version="1.4 (e7c3feb1, 2024-10-09)"
   xmlns:inkscape="http://www.inkscape.org/namespaces/inkscape"
   xmlns:sodipodi="http://sodipodi.sourceforge.net/DTD/sodipodi-0.dtd"
   xmlns="http://www.w3.org/2000/svg"
   xmlns:svg="http://www.w3.org/2000/svg">
  <defs
     id="defs1" />
  <sodipodi:namedview
     id="namedview1"
     pagecolor="#505050"
     bordercolor="#ffffff"
     borderopacity="1"
     inkscape:showpageshadow="0"
     inkscape:pageopacity="0"
     inkscape:pagecheckerboard="1"
     inkscape:deskcolor="#505050"
     inkscape:zoom="4.0976641"
     inkscape:cx="20.499484"
     inkscape:cy="15.984717"
     inkscape:window-width="1472"
     inkscape:window-height="812"
     inkscape:window-x="0"
     inkscape:window-y="37"
     inkscape:window-maximized="1"
     inkscape:current-layer="svg1" />
  <path
     d="m 16.5542,6.3720559 4.255433,0.772892 -3.072564,-1.953951 5.16227,-1.9231811 -6.72706,-0.4217422 C 15.776782,3.8669431 14.183031,4.450685 13.234564,3.4985974 l -2.862598,4.8138345 3.447245,-1.747606 1.895125,3.368508 z"
     fill="#d9d9d9"
     id="path1"
     style="stroke-width:0.905026" />
  <g
     id="layer1"
     transform="matrix(0.75675221,0,0,0.73171918,80.03768,55.355755)">
    <g
       id="g23"
       transform="matrix(-0.163754,-0.51737,-0.53202,0.16839,7.458721,-0.294255)">
      <g
         id="g19"
         transform="translate(28.262066,-114.64741)">
        <rect
           style="fill:#d9d9d9;fill-opacity:1;stroke:#d9d9d9;stroke-width:1;stroke-linecap:square;stroke-miterlimit:5;stroke-dasharray:none;stroke-opacity:1"
           id="rect16"
           width="1.711"
           height="23.9"
           x="156.616"
           y="239.218" />
        <path
           id="rect17"
           style="fill:#d9d9d9;stroke:#d9d9d9;stroke-linecap:square;stroke-miterlimit:5"
           d="m 156.595,263.117 h 1.754 c 0,0 0.023,1.64 0.2,2.503 0.177,0.862 0.893,2.553 0.893,2.553 0,0 -0.965,-0.566 -1.448,-0.99 -0.482,-0.423 -0.925,-0.847 -1.199,-1.563 -0.273,-0.717 -0.2,-2.503 -0.2,-2.503 z" />
        <path
           id="rect18"
           style="fill:#d9d9d9;stroke:#d9d9d9;stroke-linecap:square;stroke-miterlimit:5"
           d="m 156.616,236.229 c 0,0 0.138,-1.484 -1.683,-1.601 -1.822,-0.117 -4.193,1.4 -4.193,1.4 2.018,-4.382 7.041,-3.934 7.587,-0.952 v 4.287 h -1.711 z" />
      </g>
    </g>
  </g>
</svg>
