<?xml version="1.0" encoding="utf-8"?>
<svg width="40" height="30" viewBox="0 0 27 17" fill="none" xmlns="http://www.w3.org/2000/svg">
  <path d="M 19.455 12.031 L 24.157 12.885 L 20.762 10.726 L 26.466 8.601 L 19.033 8.135 C 18.596 9.263 16.835 9.908 15.787 8.856 L 12.624 14.175 L 16.433 12.244 L 18.527 15.966 L 19.455 12.031 Z" fill="#D9D9D9" transform="matrix(1, 0, 0, 1, 0, 3.552713678800501e-15)"/>
  <g id="layer1" transform="matrix(0.8361660838127136, 0, 0, 0.8085060715675354, -149.86653360525565, -103.41211091596051)" style="">
    <g id="g23" transform="matrix(-0.163754, -0.51737, -0.53202, 0.16839, 7.458721, -0.294255)" style="transform-origin: 183.423px 138.344px;">
      <g id="g19" transform="translate(28.262066,-114.64741)">
        <rect style="fill-opacity: 1; stroke-width: 1; stroke-linecap: square; stroke-miterlimit: 5; stroke-dasharray: none; stroke-opacity: 1; fill: rgb(217, 217, 217); stroke: rgb(217, 217, 217);" id="rect16" width="1.711" height="23.9" x="156.616" y="239.218"/>
        <path id="rect17" style="stroke-linecap: square; stroke-miterlimit: 5; fill: rgb(217, 217, 217); stroke: rgb(217, 217, 217); transform-box: fill-box; transform-origin: 50% 50%;" d="M 156.595 263.117 L 158.349 263.117 C 158.349 263.117 158.372 264.757 158.549 265.62 C 158.726 266.482 159.442 268.173 159.442 268.173 C 159.442 268.173 158.477 267.607 157.994 267.183 C 157.512 266.76 157.069 266.336 156.795 265.62 C 156.522 264.903 156.595 263.117 156.595 263.117 L 156.595 263.117 Z"/>
        <path id="rect18" style="stroke-linecap: square; stroke-miterlimit: 5; fill: rgb(217, 217, 217); stroke: rgb(217, 217, 217);" d="M 156.616 236.229 C 156.616 236.229 156.754 234.745 154.933 234.628 C 153.111 234.511 150.74 236.028 150.74 236.028 C 152.758 231.646 157.781 232.094 158.327 235.076 L 158.327 239.363 L 156.616 239.363 L 156.616 236.229 Z"/>
      </g>
    </g>
  </g>
</svg>