<svg width="34" height="17" viewBox="0 0 34 17" fill="none" xmlns="http://www.w3.org/2000/svg">
<path fill-rule="evenodd" clip-rule="evenodd" d="M4.65333 0.876208C4.65333 0.782774 4.57758 0.707031 4.48415 0.707031C4.39072 0.707031 4.31497 0.782774 4.31497 0.876208V1.56412H3.70595C3.68712 1.57222 3.63819 1.60553 3.61572 1.62051C3.42983 1.74444 2.97996 2.11845 2.79497 2.69894C2.78108 2.7401 2.76939 2.7817 2.76026 2.82362C2.73055 2.94806 2.71344 3.081 2.71344 3.22206C2.71344 3.33263 2.69961 3.43603 2.67467 3.53259C2.4809 3.45157 2.23474 3.31181 2.07055 3.08681C2.00288 2.70334 1.69836 2.45522 1.36001 2.51161C1.03294 2.55672 0.818646 2.89508 0.875039 3.25599C0.931431 3.6169 1.24723 3.86503 1.5743 3.81991C1.63069 3.80863 1.68709 3.78608 1.74348 3.76352C1.90003 3.79287 2.09903 3.89014 2.34783 4.10686C2.26524 4.19457 2.17445 4.27157 2.08185 4.33863C1.85628 4.49652 1.92395 4.85744 2.17208 4.94766C2.70216 5.1394 3.26609 5.47775 3.17586 6.08679C3.03272 7.06673 2.59868 8.10506 2.50463 8.29588C2.39767 8.51291 1.07807 10.711 1.07807 12.9103C1.07807 12.9103 0.824138 13.8225 2.02533 13.981L2.08139 14.7658C1.93041 14.7564 1.7912 14.7466 1.66735 14.737C1.48289 14.7227 1.33292 14.7092 1.22937 14.6992C1.1776 14.6942 1.13746 14.6901 1.11045 14.6873C1.09694 14.6859 1.07026 14.6831 1.07026 14.6831C0.884545 14.6624 0.717271 14.7963 0.696636 14.982C0.676 15.1677 0.813123 15.3354 0.998848 15.356C1.02752 15.359 1.11099 15.3676 1.1646 15.3728C1.27182 15.3831 1.42601 15.397 1.61515 15.4117C1.99311 15.4409 2.51226 15.4731 3.07591 15.4845C3.63853 15.4959 4.25134 15.4869 4.81493 15.4322C5.37052 15.3784 5.91122 15.2776 6.30988 15.0881C6.47865 15.0078 6.55042 14.806 6.47019 14.6372C6.38995 14.4685 6.1881 14.3967 6.01933 14.4769C5.78923 14.5863 5.46083 14.6671 5.0666 14.7217C5.08671 14.6709 5.09634 14.6148 5.09312 14.5569L5.04221 13.8441C5.3926 13.8002 5.68276 13.7505 5.8714 13.6998C5.98419 13.6659 6.06314 13.5193 6.00675 13.4065C5.95035 13.2712 5.89396 13.0682 5.97291 12.7411L7.03308 8.44399C7.19488 7.99666 7.41847 7.82607 8.38831 8.11183C9.01607 8.2968 9.87375 8.45108 10.7039 8.4126C11.5441 8.37364 12.218 8.2209 12.9124 7.78692C12.9715 7.75 13.1574 7.61427 13.1574 7.61427L13.1602 5.82749H14.1024L17.8517 16.0403C17.8855 16.1192 17.9532 16.1756 18.0434 16.1756H19.2502C19.3042 16.1756 19.3479 16.1653 19.3911 16.1247H20.6687C20.7138 16.1247 20.7702 16.0458 20.8266 15.9555C20.9619 15.7413 20.9056 15.4593 20.6913 15.3127L20.4206 15.1209C20.401 15.1067 20.3808 15.0942 20.3601 15.0834C20.3604 15.0598 20.3554 15.0363 20.3442 15.0139L17.272 5.82749H17.6799C17.8942 5.82749 18.0521 5.67364 18.0521 5.46061V5.15291C18.0521 4.95172 17.8942 4.78604 17.6799 4.78604H17.4731C17.5594 4.75803 17.6239 4.69298 17.6574 4.60931C17.7025 4.49652 17.8153 4.4063 17.9393 4.4063H19.6085C19.6424 4.4063 19.6649 4.4063 19.6988 4.39502C19.7113 4.39189 19.7253 4.38781 19.7405 4.38261C19.8828 4.35062 20.1499 4.23658 20.1499 3.83109L20.1499 3.28972H23.6964C23.9237 3.28972 24.0861 3.16566 24.0861 3.01904V2.30849C24.0861 2.15059 23.9075 2.03781 23.6964 2.03781H20.1499L20.1499 1.56412H20.0352V1.25438C20.0365 1.24125 20.0371 1.22794 20.0371 1.21448C20.0371 0.98401 19.8503 0.797178 19.6198 0.797178C19.3894 0.797178 19.2025 0.984012 19.2025 1.21448C19.2025 1.22794 19.2032 1.24125 19.2044 1.25438V1.56412H4.65333V0.876208ZM8.88275 5.48903C8.69101 5.65821 8.19476 6.1883 8.30755 6.89884C8.35111 7.14011 8.49622 7.33259 8.68372 7.48487C8.78713 7.50866 8.88119 7.53334 8.9735 7.55755C9.32173 7.64889 9.64495 7.73367 10.3505 7.74023C11.3469 7.7495 12.0317 7.54283 12.4792 7.25932C12.4792 7.25932 12.4753 6.32651 12.4814 5.66949C12.488 5.60707 12.4968 5.57256 12.5072 5.5313C12.5127 5.50953 12.5188 5.48586 12.5252 5.45522C12.2854 5.26262 11.9275 5.03968 11.5896 5.083L10.5244 5.21968C9.75693 5.71301 10.2733 6.69002 10.473 7.02291C10.4843 7.05675 10.4279 7.0793 10.3828 7.06803C9.338 6.6096 9.62343 5.45584 9.65782 5.33089L9.04064 5.41008C9.02769 5.41526 9.01474 5.41985 9.00193 5.42438C8.95894 5.4396 8.9175 5.45428 8.88275 5.48903ZM19.5409 1.21448C19.5409 1.22904 19.5448 1.24267 19.5517 1.25438H19.688C19.6948 1.24267 19.6988 1.22904 19.6988 1.21448C19.6988 1.17088 19.6634 1.13553 19.6198 1.13553C19.5762 1.13553 19.5409 1.17088 19.5409 1.21448ZM1.63069 3.1432C1.60814 3.05298 1.52919 2.98531 1.43896 2.99658C1.36001 3.00786 1.29234 3.09809 1.3149 3.1996C1.32618 3.3011 1.40513 3.36877 1.49535 3.34622C1.58558 3.33494 1.64197 3.24471 1.63069 3.1432Z" fill="#D9D9D9"/>
<path d="M33.0429 0.175781L24.4365 2.11328L24.7747 2.24523L24.4365 2.65633L24.9021 2.88869L24.4365 3.20169L33.0429 6.05172L30.4718 3.63221L33.7736 2.38257L30.6613 1.95714L33.0429 0.175781Z" fill="#D9D9D9"/>
</svg>
