<svg width="39" height="17" viewBox="0 0 39 17" fill="none" xmlns="http://www.w3.org/2000/svg">
<path d="M4.98006 4.50983L4.5598 4.14692C4.48799 4.08491 4.39627 4.05079 4.30139 4.05078L4.06647 4.05078C4.01797 4.05078 4.00004 4.1251 4.00004 4.19152V4.50984L4.30247 4.50983L4.39248 4.60122C4.43194 4.64128 4.46144 4.69206 4.47727 4.74768L4.61886 4.74399C4.63177 4.69905 4.65365 4.65747 4.68244 4.62225L4.77438 4.50983H4.98006Z" fill="#D9D9D9"/>
<path d="M2.22661 6.80566C2.30064 6.88146 2.3747 6.94073 2.44895 6.98517L2.26801 7.65013C2.2597 7.68066 2.25605 7.71112 2.25655 7.74086C1.95976 7.69685 1.66623 7.75117 1.34016 7.87235C1.22132 7.91652 1.12904 7.85168 1.08458 7.8062C1.03238 7.75279 0.970084 7.61981 1.05606 7.51535C1.07207 7.49591 1.08747 7.47697 1.10234 7.45844L1.15359 7.45174C1.15746 7.45123 1.16031 7.44786 1.16015 7.44395L1.15793 7.38774C1.16134 7.3833 1.16473 7.37888 1.16808 7.37448L1.21765 7.36545C1.22127 7.36479 1.22389 7.36162 1.22385 7.35794L1.22322 7.29998C1.22651 7.29538 1.22978 7.2908 1.23302 7.28622L1.27749 7.27811C1.28128 7.27742 1.28394 7.27398 1.28367 7.27014L1.27989 7.2178C1.28283 7.21335 1.28575 7.2089 1.28866 7.20444L1.33721 7.19847C1.34153 7.19794 1.34451 7.19388 1.34371 7.1896L1.33327 7.13334C1.33689 7.12734 1.34048 7.12131 1.34406 7.11526L1.39268 7.11176C1.39727 7.11143 1.40049 7.10711 1.39952 7.10262L1.38614 7.04119C1.38864 7.03663 1.39113 7.03203 1.39362 7.02742L1.43849 7.017C1.44246 7.01608 1.44498 7.01218 1.4442 7.00819L1.43309 6.95146C1.43618 6.9453 1.43926 6.9391 1.44236 6.93285L1.48511 6.92637C1.48955 6.9257 1.49243 6.92132 1.49128 6.91697L1.47662 6.86161C1.49815 6.81569 1.52011 6.76675 1.5431 6.71383C1.57785 6.63383 1.70113 6.59322 1.79378 6.63068L2.22661 6.80566Z" fill="#D9D9D9"/>
<path fill-rule="evenodd" clip-rule="evenodd" d="M0.915954 8.06655C0.698049 8.16125 0.556641 8.25665 0.556641 8.31734C0.556641 8.49933 0.766336 8.64133 0.896012 8.64133L2.23353 8.66005C2.65912 8.66005 3.07781 8.8961 3.29211 9.22472C3.48403 9.51902 3.56563 9.92804 3.48375 10.3002L3.41696 10.311C3.2932 10.7489 3.13049 11.1237 2.92808 11.5899C2.82743 11.8218 2.71695 12.0763 2.59654 12.3724C2.13808 13.5 1.98513 14.1332 1.96919 15.184C1.96843 15.2344 2.00863 15.2761 2.05894 15.278C2.14598 15.2813 2.23103 15.2845 2.3143 15.2876V15.3075H2.03683C2.02825 15.3075 2.02129 15.3144 2.02129 15.323V15.5832C2.02129 15.5878 2.02341 15.5922 2.02699 15.5952C2.25151 15.7802 2.39396 15.8641 2.66359 15.9879C2.66562 15.9888 2.66787 15.9893 2.6701 15.9893L5.81232 15.9893C6.06721 15.9893 6.29712 15.9876 6.51164 15.9781C6.84192 15.9634 7.13574 15.9302 7.4281 15.8561C7.45436 15.8494 7.46902 15.8216 7.46007 15.796L7.24596 15.1843C7.17954 14.9945 7.16703 14.7901 7.2098 14.5937L7.79438 11.9092C7.90624 11.3955 8.36091 11.0292 8.88663 11.0292C8.88865 11.0292 8.89066 11.0294 8.89265 11.0297L9.23437 11.0856C9.38364 11.1118 10.4237 11.1049 11.3094 11.0898C11.4349 11.0877 11.5322 10.9798 11.5219 10.8547L11.5163 10.7868C11.4024 9.87408 11.4921 9.43654 12.1254 8.77062L12.4657 8.74143C12.4733 8.74079 12.4793 8.73476 12.4799 8.7272L12.4948 8.35342H12.8825V8.71527C12.8825 8.72385 12.8895 8.7308 12.8981 8.7308H13.241C13.2496 8.7308 13.2566 8.72385 13.2566 8.71527V8.35342H13.7432V8.71527C13.7432 8.72385 13.7502 8.7308 13.7587 8.7308H14.1017C14.1103 8.7308 14.1172 8.72385 14.1172 8.71527V8.35342H14.6039V8.71527C14.6039 8.72385 14.6108 8.7308 14.6194 8.7308H14.9624C14.9709 8.7308 14.9779 8.72385 14.9779 8.71527V8.35342H15.4645V8.71527C15.4645 8.72385 15.4715 8.7308 15.4801 8.7308H15.823C15.8316 8.7308 15.8386 8.72385 15.8386 8.71527V8.35342H16.3252V8.71527C16.3252 8.72385 16.3321 8.7308 16.3407 8.7308H16.6837C16.6923 8.7308 16.6992 8.72385 16.6992 8.71527V8.35342H17.1858V8.71527C17.1858 8.72385 17.1928 8.7308 17.2014 8.7308H17.5443C17.5529 8.7308 17.5599 8.72385 17.5599 8.71527V8.35342H18.0465V8.71527C18.0465 8.72385 18.0535 8.7308 18.062 8.7308H18.405C18.4136 8.7308 18.4205 8.72385 18.4205 8.71527V8.35342H18.9072V8.71527C18.9072 8.72385 18.9141 8.7308 18.9227 8.7308H19.2657C19.2742 8.7308 19.2812 8.72385 19.2812 8.71527V8.35342H19.7678V8.71527C19.7678 8.72385 19.7748 8.7308 19.7834 8.7308H20.1263C20.1349 8.7308 20.1419 8.72385 20.1419 8.71527C20.1419 8.49794 20.1419 8.28061 20.1418 8.06328L20.1419 8.05775L2.57951 8.05772C2.56823 8.05772 2.55712 8.05715 2.5462 8.05604L2.14174 8.03638C1.93552 8.01932 1.71573 8.06016 1.44692 8.16006C1.2067 8.24934 1.01712 8.14824 0.915954 8.06655ZM8.36594 8.85029C8.08333 9.14579 8.12915 9.77773 8.30497 10.1648C8.31309 10.1827 8.32155 10.2003 8.33036 10.2176C8.34437 10.2452 8.36891 10.2654 8.39455 10.2827C8.44548 10.3171 8.48335 10.3694 8.49914 10.4305C8.50696 10.4608 8.51782 10.491 8.53965 10.5134C8.7162 10.6945 8.94922 10.8063 9.22305 10.8063H10.752C10.9836 10.8063 11.1714 10.6185 11.1714 10.3868V9.69808C11.1714 9.54163 11.1326 9.38103 11.063 9.22357C11.0464 9.18608 11.0136 9.15966 10.9813 9.13378L10.9744 9.1282L10.9686 9.12346C10.9322 9.09376 10.9072 9.05148 10.8985 9.00542C10.8976 9.00033 10.8967 8.99521 10.8957 8.99007C10.8884 8.94953 10.8809 8.90815 10.8564 8.87545C10.8402 8.85374 10.8234 8.83221 10.8061 8.81089C10.6205 8.58209 10.3534 8.44514 9.97719 8.44514L9.47224 8.44514C9.38634 8.4556 9.28285 8.47672 9.17398 8.5047C8.80563 9.12907 8.82678 9.96096 9.30783 10.4572C9.34438 10.4949 9.34151 10.5263 9.3245 10.5448C9.30855 10.5623 9.28114 10.5685 9.23469 10.5576C8.87022 10.4727 8.49891 10.1573 8.40115 9.87572C8.27267 9.5056 8.30725 9.25456 8.36594 8.85029Z" fill="#D9D9D9"/>
<path d="M19.4567 7.75139H20.4482V8.04285L20.7529 8.02252C20.7896 8.02006 20.8215 7.99624 20.8342 7.9617L21.3771 6.77893C21.383 6.76611 21.3871 6.75255 21.3893 6.73863L21.469 6.23964V4.87604C21.469 4.84169 21.4412 4.81384 21.4068 4.81384H21.095L21.0862 4.53416C21.0893 4.50095 21.0558 4.43183 21.0106 4.38778C20.9671 4.34532 20.8849 4.33464 20.8355 4.35312L20.1707 4.6618C20.1542 4.66945 20.1437 4.68596 20.1437 4.70411V4.80887L20.1445 4.81384H19.9725C19.9632 4.81384 19.954 4.81522 19.9451 4.81794L19.7812 4.86821C19.7723 4.87093 19.7631 4.87231 19.7538 4.87231H19.2214C19.2128 4.87231 19.2059 4.87927 19.2059 4.88785V5.07131C19.2059 5.09248 19.1887 5.10964 19.1675 5.10964H18.7576C18.7364 5.10964 18.7193 5.09248 18.7193 5.07131V4.88785C18.7193 4.87927 18.7123 4.87231 18.7037 4.87231H18.3608C18.3522 4.87231 18.3452 4.87927 18.3452 4.88785V5.07131C18.3452 5.09248 18.3281 5.10964 18.3069 5.10964H17.8969C17.8758 5.10964 17.8586 5.09248 17.8586 5.07131V4.88785C17.8586 4.87927 17.8516 4.87231 17.8431 4.87231H17.5001C17.4915 4.87231 17.4846 4.87927 17.4846 4.88785V5.07131C17.4846 5.09248 17.4674 5.10964 17.4462 5.10964H17.0363C17.0151 5.10964 16.9979 5.09248 16.9979 5.07131V4.88785C16.9979 4.87927 16.991 4.87231 16.9824 4.87231H16.6394C16.6309 4.87231 16.6239 4.87927 16.6239 4.88785V5.07131C16.6239 5.09248 16.6067 5.10964 16.5856 5.10964H16.1756C16.1544 5.10964 16.1373 5.09248 16.1373 5.07131V4.88785C16.1373 4.87927 16.1303 4.87231 16.1217 4.87231H15.7788C15.7702 4.87231 15.7632 4.87927 15.7632 4.88785V5.07131C15.7632 5.09248 15.7461 5.10964 15.7249 5.10964H15.3149C15.2938 5.10964 15.2766 5.09248 15.2766 5.07131V4.88785C15.2766 4.87927 15.2697 4.87231 15.2611 4.87231H14.9181C14.9095 4.87231 14.9026 4.87927 14.9026 4.88785V5.07131C14.9026 5.09248 14.8854 5.10964 14.8642 5.10964H14.4543C14.4331 5.10964 14.416 5.09248 14.416 5.07131V4.88785C14.416 4.87927 14.409 4.87231 14.4004 4.87231H14.0575C14.0489 4.87231 14.0419 4.87927 14.0419 4.88785V5.07131C14.0419 5.09248 14.0248 5.10964 14.0036 5.10964H13.5936C13.5725 5.10964 13.5553 5.09248 13.5553 5.07131V4.88785C13.5553 4.87927 13.5483 4.87231 13.5398 4.87231H13.1968C13.1882 4.87231 13.1813 4.87927 13.1813 4.88785V5.07131C13.1813 5.09248 13.1641 5.10964 13.1429 5.10964H12.733C12.7118 5.10964 12.6946 5.09248 12.6946 5.07131V4.88785C12.6946 4.87927 12.6877 4.87231 12.6791 4.87231H12.2229C12.1244 4.87231 11.974 4.80824 11.8957 4.74509C11.8867 4.73778 11.8756 4.73334 11.8639 4.73334H9.76674V5.74889C9.76674 5.7892 9.78458 5.83189 9.8196 5.86744C9.855 5.90338 9.88518 5.91 9.88943 5.91093L9.88969 5.911L9.88989 5.91106H19.1339C19.3122 5.91106 19.4567 6.05563 19.4567 6.23389L19.4567 7.75139Z" fill="#D9D9D9"/>
<path d="M9.43821 4.64434C9.43484 4.64318 9.43122 4.64254 9.42745 4.64254H6.52511C6.52107 4.64255 6.51702 4.64304 6.51309 4.64403L5.87185 4.80481C5.84172 4.81236 5.81076 4.81618 5.7797 4.81618H4.91962C4.91192 4.82559 4.90941 4.83911 4.91543 4.8515L4.98486 4.99431C4.99534 5.01586 4.98004 5.04103 4.95609 5.04166L4.10212 5.06392C4.07535 5.06461 4.05898 5.03478 4.07393 5.01257L4.17815 4.85784C4.1876 4.84382 4.18455 4.82669 4.17421 4.81618H4.00189C3.99973 4.81618 3.99758 4.81629 3.99546 4.81649C3.98058 4.81792 3.96669 4.82428 3.95592 4.83489C3.83208 4.95684 3.14431 5.63559 3.11839 5.69378L2.84772 6.53126C2.84623 6.53589 2.84905 6.54081 2.85381 6.54184L2.87674 6.54683C2.88135 6.54783 2.88419 6.55249 2.88295 6.55704L2.56361 7.73057C2.56076 7.74104 2.56865 7.75137 2.57951 7.75137H19.1503L19.1504 6.23389C19.1504 6.22479 19.143 6.21741 19.1339 6.21741H9.88989C9.69309 6.21741 9.46039 6.01359 9.46039 5.74889V4.67549C9.46039 4.66107 9.45112 4.6488 9.43821 4.64434Z" fill="#D9D9D9"/>
<path d="M3.18606 16.2956H5.81232C6.06721 16.2956 6.29712 16.2939 6.51164 16.2844V16.414L7.50073 16.4206C7.52634 16.4207 7.54702 16.4415 7.54702 16.4672V16.5467C7.54702 16.5724 7.52616 16.5933 7.50042 16.5933H7.124C6.9427 16.6355 6.77824 16.6435 6.53907 16.6435H3.13943C3.11504 16.6435 3.09527 16.6237 3.09527 16.5993V16.4357C3.09527 16.4113 3.11504 16.3915 3.13943 16.3915L3.21461 16.392L3.17268 16.364L3.18606 16.2956Z" fill="#D9D9D9"/>
<path d="M34.5187 0.642578L22.0386 5.18597L22.1985 5.37081L22.0386 5.58636L22.1985 5.80488L22.0386 6.04659L22.2563 6.31604L22.0386 6.50688L36.3176 11.5662L31.8304 7.1238L38.3023 5.4913L30.735 4.34195L34.5187 0.642578Z" fill="#D9D9D9"/>
</svg>
