<svg width="93" height="17" viewBox="0 0 93 17" fill="none" xmlns="http://www.w3.org/2000/svg">
<rect x="52.4072" y="5.26562" width="40.0605" height="1.16194" fill="url(#paint0_linear_1354_35)"/>
<rect x="52.4072" y="5.26562" width="40.0605" height="1.16194" fill="url(#paint1_linear_1354_35)"/>
<path d="M73.8567 5.09695L76.373 0.748047L76.373 4.08483L79.7722 1.44908L78.8275 4.08483L83.3808 3.37616L81.0878 4.81733L73.8567 5.09695Z" fill="url(#paint2_radial_1354_35)"/>
<path d="M73.205 6.56531L73.0303 7.00671L73.7504 11.3595L75.4768 8.39785L78.5273 11.4762L77.6854 8.00954L81.5111 9.73046L79.7264 6.81749L73.205 6.56531Z" fill="url(#paint3_radial_1354_35)"/>
<path d="M87.4634 4.03096L86.2593 4.92709L87.3689 4.51539L87.787 4.72521L88.8405 3.54883L87.8396 4.32142L87.4634 4.03096Z" fill="url(#paint4_linear_1354_35)"/>
<path d="M82.4313 4.85335L83.9247 3.92562L84.1673 4.2104L85.5818 3.62256L83.9247 4.64542L83.6897 4.44921L82.4313 4.85335Z" fill="url(#paint5_linear_1354_35)"/>
<path d="M81.4531 6.65532L82.5907 7.82021L82.9962 7.43187L84.0065 8.24933L82.9441 6.89914L82.5002 7.32165L81.4531 6.65532Z" fill="url(#paint6_linear_1354_35)"/>
<path d="M89.0744 6.94544L90.1278 7.77705L90.4208 7.55402L91.3079 7.95921L90.3681 7.15023L89.9501 7.36005L89.0744 6.94544Z" fill="url(#paint7_linear_1354_35)"/>
<path d="M86.2806 7.38733L85.1934 6.79496L86.26 7.8959L86.627 7.68736L87.5499 8.10968L86.5802 7.23896L86.2806 7.38733Z" fill="url(#paint8_linear_1354_35)"/>
<path d="M89.5937 4.89532L90.541 4.48131L90.8874 4.62968L91.9502 3.5806L91.0544 4.1228L90.5204 3.97274L89.5937 4.89532Z" fill="url(#paint9_linear_1354_35)"/>
<path d="M25.5531 1.12109H25.7855V2.2443H27.0458C27.3024 2.2443 27.5105 2.45238 27.5105 2.70907V2.78653H27.6764V2.63161H28.0444V2.78653H28.5V2.63161H28.868V2.78653H29.3236V2.63161H29.6915V2.78653H30.1472V2.63161H30.5151V2.78653H30.9708V2.63161H31.3387V2.78653H31.7944V2.63161H32.1623V2.78653H32.6179V2.63161H32.9859V2.78653H33.4416V2.63161H33.8095V2.78653H34.2651V2.63161H34.6331V2.78653H35.0887V2.63161H35.4567V2.78653H35.9123V2.63161H36.2802V2.78653H36.7359V2.63161H37.1038V2.78653H37.5595V2.63161H37.9274V2.78653H38.3831V2.63161H38.751V2.78653H39.2067V2.63161H39.5746V2.78653H40.0302V2.63161H40.3982V2.78653H40.8538V2.63161H41.2218V2.78653H41.6774V2.63161H42.0454V2.78653H42.501V2.63161H42.869V2.78653H43.2472V2.63161H43.6151L43.615 2.94146H43.6925L43.6926 8.75112L30.2307 8.75114C30.1649 8.85444 30.1068 8.95803 30.0573 9.06099C29.7794 9.63906 29.7728 10.197 30.2081 10.5708C30.3085 10.657 30.1579 10.8425 30.039 10.7377C29.4024 10.1761 29.2309 9.75876 29.4214 9.19106C29.3229 9.17912 29.2319 9.12703 29.1573 9.06099C29.0419 8.9587 28.9661 8.82295 28.9641 8.75114L21.8495 8.75112L21.7354 7.30657V4.61839L22.2196 3.17385L23.7086 3.17385L25.1029 2.94146H25.2057V2.63161H25.3416V2.55415C25.3416 2.41738 25.4302 2.30131 25.5531 2.26022V1.12109Z" fill="#D9D9D9"/>
<path d="M59.2624 7.38586C59.2624 7.065 59.001 6.80489 58.6784 6.80489H49.6795C49.357 6.80489 49.0955 7.065 49.0955 7.38586V8.80659C49.0955 9.12745 49.357 9.38755 49.6795 9.38755H57.4434C57.9793 9.38755 58.342 9.40236 58.5097 9.45693C58.5655 9.47513 58.5997 9.49774 58.6115 9.52569C58.695 9.7249 58.7572 9.84948 58.9369 9.84948C59.1167 9.84948 59.2624 9.7045 59.2624 9.52569V7.38586Z" fill="#D9D9D9"/>
<path d="M23.7686 9.1464C23.7356 9.11851 23.7022 9.09035 23.6717 9.06099H28.2838V10.7113C28.2838 10.9252 28.3023 10.9437 28.5162 10.9437H31.503C31.6917 10.9437 31.6917 10.9437 31.7214 10.784C31.7253 10.7627 31.7298 10.7386 31.7353 10.7113L32.0174 9.06099H32.408L32.1228 10.9437C32.0836 11.1517 31.9494 11.331 31.7355 11.331H28.284C28.1249 11.331 27.9882 11.3208 27.9286 11.2275L25.7968 14.5532C25.509 14.9544 25.7968 15.4644 26.2323 15.7715C26.4185 15.9028 26.3475 16.2082 26.3031 16.3265C26.263 16.4336 26.0762 16.7624 25.9598 16.748C23.9778 16.5759 22.876 16.4633 20.928 16.2152C20.7513 16.1927 20.7022 16.0253 20.7835 15.8334L23.9411 9.53325C24.031 9.36778 23.9024 9.2593 23.7686 9.1464Z" fill="#D9D9D9"/>
<path fill-rule="evenodd" clip-rule="evenodd" d="M21.4256 4.80056H14.324V4.69196C14.324 4.43191 14.116 4.2211 13.8593 4.2211H0.845632C0.588945 4.2211 0.380859 4.43191 0.380859 4.69196V13.3048C0.380859 13.5648 0.588945 13.7756 0.845632 13.7756H1.21502C1.42884 13.7756 1.61508 13.6278 1.66628 13.4175L1.7727 12.9803L12.4379 7.98798H13.8593C14.116 7.98798 14.324 7.77717 14.324 7.51712V7.12442H21.4256V4.80056ZM5.01954 10.6826C5.40457 10.6826 5.71669 10.3664 5.71669 9.97631C5.71669 9.58624 5.40457 9.27002 5.01954 9.27002C4.63451 9.27002 4.32238 9.58624 4.32238 9.97631C4.32238 10.3664 4.63451 10.6826 5.01954 10.6826Z" fill="#D9D9D9"/>
<path fill-rule="evenodd" clip-rule="evenodd" d="M44.0024 2.94623V8.75112L48.7857 8.75112V7.38586C48.7857 6.89234 49.1874 6.49504 49.6795 6.49504H58.6784C59.1706 6.49504 59.5723 6.89234 59.5723 7.38586V9.24193H59.8434V8.75112H63.9082L70.7233 8.29309C70.789 8.28748 70.8222 8.2673 70.8755 8.20346L71.1141 7.82158H72.4989V6.89204H71.6951L71.9856 6.42725L69.468 6.42726L70.3976 5.26533L72.7409 5.26532L73.8435 3.50103C73.8842 3.44344 73.8435 3.40396 73.7551 3.40396L72.5063 3.38475L72.3535 1.35036L71.1916 1.12109V2.68688L70.481 3.35359L44.0024 2.94623ZM52.4071 5.26532V6.42725L54.7502 6.42726L55.6798 5.26533L52.4071 5.26532ZM56.377 5.26533L55.4474 6.42726H58.2554L59.185 5.26533H56.377ZM59.8821 5.26533L58.9526 6.42726H61.7606L62.6901 5.26533H59.8821ZM63.3873 5.26533L62.4577 6.42726H65.2657L66.1953 5.26533H63.3873ZM66.8924 5.26533L65.9629 6.42726H68.7709L69.7004 5.26533H66.8924Z" fill="#D9D9D9"/>
<defs>
<linearGradient id="paint0_linear_1354_35" x1="92.4677" y1="5.84659" x2="52.4072" y2="5.84662" gradientUnits="userSpaceOnUse">
<stop offset="0.484375" stop-color="#0055FF" stop-opacity="0.5"/>
<stop offset="1" stop-color="#0055FF" stop-opacity="0"/>
</linearGradient>
<linearGradient id="paint1_linear_1354_35" x1="72.4375" y1="6.42756" x2="72.4375" y2="5.26562" gradientUnits="userSpaceOnUse">
<stop stop-color="#0055FF" stop-opacity="0"/>
<stop offset="0.500452" stop-color="#3377FF"/>
<stop offset="1" stop-color="#0055FF" stop-opacity="0"/>
</linearGradient>
<radialGradient id="paint2_radial_1354_35" cx="0" cy="0" r="1" gradientUnits="userSpaceOnUse" gradientTransform="translate(72.78 5.89027) scale(5.25686 5.07182)">
<stop stop-color="#D97F26" stop-opacity="0.5"/>
<stop offset="1" stop-color="#BF7F40"/>
</radialGradient>
<radialGradient id="paint3_radial_1354_35" cx="0" cy="0" r="1" gradientUnits="userSpaceOnUse" gradientTransform="translate(72.78 5.89027) scale(5.25686 5.07182)">
<stop stop-color="#D97F26" stop-opacity="0.5"/>
<stop offset="1" stop-color="#BF7F40"/>
</radialGradient>
<linearGradient id="paint4_linear_1354_35" x1="86.7016" y1="3.54883" x2="86.7016" y2="8.24933" gradientUnits="userSpaceOnUse">
<stop offset="5.46456e-09" stop-color="#FFFF00" stop-opacity="0.3"/>
<stop offset="0.364885" stop-color="#FFFF00"/>
<stop offset="0.612143" stop-color="#FFFF00"/>
<stop offset="1" stop-color="#FFFF00" stop-opacity="0.3"/>
</linearGradient>
<linearGradient id="paint5_linear_1354_35" x1="86.7016" y1="3.54883" x2="86.7016" y2="8.24933" gradientUnits="userSpaceOnUse">
<stop offset="5.46456e-09" stop-color="#FFFF00" stop-opacity="0.3"/>
<stop offset="0.364885" stop-color="#FFFF00"/>
<stop offset="0.612143" stop-color="#FFFF00"/>
<stop offset="1" stop-color="#FFFF00" stop-opacity="0.3"/>
</linearGradient>
<linearGradient id="paint6_linear_1354_35" x1="86.7016" y1="3.54883" x2="86.7016" y2="8.24933" gradientUnits="userSpaceOnUse">
<stop offset="5.46456e-09" stop-color="#FFFF00" stop-opacity="0.3"/>
<stop offset="0.364885" stop-color="#FFFF00"/>
<stop offset="0.612143" stop-color="#FFFF00"/>
<stop offset="1" stop-color="#FFFF00" stop-opacity="0.3"/>
</linearGradient>
<linearGradient id="paint7_linear_1354_35" x1="86.7016" y1="3.54883" x2="86.7016" y2="8.24933" gradientUnits="userSpaceOnUse">
<stop offset="5.46456e-09" stop-color="#FFFF00" stop-opacity="0.3"/>
<stop offset="0.364885" stop-color="#FFFF00"/>
<stop offset="0.612143" stop-color="#FFFF00"/>
<stop offset="1" stop-color="#FFFF00" stop-opacity="0.3"/>
</linearGradient>
<linearGradient id="paint8_linear_1354_35" x1="86.7016" y1="3.54883" x2="86.7016" y2="8.24933" gradientUnits="userSpaceOnUse">
<stop offset="5.46456e-09" stop-color="#FFFF00" stop-opacity="0.3"/>
<stop offset="0.364885" stop-color="#FFFF00"/>
<stop offset="0.612143" stop-color="#FFFF00"/>
<stop offset="1" stop-color="#FFFF00" stop-opacity="0.3"/>
</linearGradient>
<linearGradient id="paint9_linear_1354_35" x1="86.7016" y1="3.54883" x2="86.7016" y2="8.24933" gradientUnits="userSpaceOnUse">
<stop offset="5.46456e-09" stop-color="#FFFF00" stop-opacity="0.3"/>
<stop offset="0.364885" stop-color="#FFFF00"/>
<stop offset="0.612143" stop-color="#FFFF00"/>
<stop offset="1" stop-color="#FFFF00" stop-opacity="0.3"/>
</linearGradient>
</defs>
</svg>
