<svg width="83" height="17" viewBox="0 0 83 17" fill="none" xmlns="http://www.w3.org/2000/svg">
<rect x="47.1157" y="4.64551" width="35.7014" height="1.0355" fill="url(#paint0_linear_2731_987)"/>
<rect x="47.1157" y="4.64551" width="35.7014" height="1.0355" fill="url(#paint1_linear_2731_987)"/>
<path d="M66.2316 4.49581L68.4742 0.620117L68.4741 3.59382L71.5034 1.24487L70.6616 3.59382L74.7193 2.96226L72.6759 4.24661L66.2316 4.49581Z" fill="url(#paint2_radial_2731_987)"/>
<path d="M65.6508 5.8044L65.4951 6.19776L66.1369 10.077L67.6755 7.43754L70.394 10.1809L69.6437 7.09147L73.0531 8.62514L71.4626 6.02913L65.6508 5.8044Z" fill="url(#paint3_radial_2731_987)"/>
<path d="M78.3577 3.54686L77.2847 4.34548L78.2736 3.97858L78.6461 4.16557L79.585 3.11719L78.6931 3.80571L78.3577 3.54686Z" fill="url(#paint4_linear_2731_987)"/>
<path d="M73.8732 4.27976L75.2041 3.45298L75.4203 3.70677L76.6809 3.1829L75.2041 4.09446L74.9947 3.9196L73.8732 4.27976Z" fill="url(#paint5_linear_2731_987)"/>
<path d="M73.0015 5.88566L74.0152 6.92379L74.3766 6.57771L75.277 7.30622L74.3302 6.10295L73.9346 6.47948L73.0015 5.88566Z" fill="url(#paint6_linear_2731_987)"/>
<path d="M79.7935 6.14421L80.7322 6.88533L80.9934 6.68657L81.7839 7.04767L80.9464 6.32672L80.5739 6.51371L79.7935 6.14421Z" fill="url(#paint7_linear_2731_987)"/>
<path d="M77.3036 6.53802L76.3348 6.01011L77.2853 6.99125L77.6124 6.8054L78.4349 7.18177L77.5706 6.40579L77.3036 6.53802Z" fill="url(#paint8_linear_2731_987)"/>
<path d="M80.2562 4.31717L81.1005 3.9482L81.4092 4.08043L82.3563 3.1455L81.558 3.6287L81.0821 3.49497L80.2562 4.31717Z" fill="url(#paint9_linear_2731_987)"/>
<path fill-rule="evenodd" clip-rule="evenodd" d="M63.8496 0.82187C63.8515 0.800028 63.8633 0.781623 63.88 0.770432C63.8946 0.760657 63.9129 0.75641 63.9317 0.760118L64.8432 0.939915C64.8722 0.945645 64.8943 0.969173 64.8983 0.998432L65.1646 2.97175L66.1408 2.98679L66.1491 2.98699L66.1564 2.98719L66.1589 2.98739L66.1688 2.98834L66.1752 2.98915C66.1951 2.99225 66.2102 2.99832 66.2199 3.00701C66.2364 3.02171 66.2374 3.04416 66.2196 3.07328L65.2369 4.64562H63.1486L62.3202 5.68112H64.5638L64.3854 5.96656L64.4877 6.03053L64.4905 6.03249L64.4924 6.03417C64.4955 6.03694 64.498 6.04011 64.4999 6.04361C64.5055 6.05413 64.5054 6.06721 64.4987 6.07806L64.4879 6.09532H64.9522C64.9903 6.09532 65.0213 6.1262 65.0213 6.16435V6.85469C65.0213 6.87262 65.0144 6.88894 65.0032 6.90121C64.9973 6.90775 64.99 6.91314 64.982 6.91698C64.9804 6.91769 64.9789 6.91837 64.9773 6.919C64.9762 6.91941 64.9751 6.9198 64.974 6.92017L64.9724 6.92069L64.9661 6.92231C64.9616 6.92325 64.957 6.92372 64.9522 6.92372H63.9701L63.8967 7.04116C63.8924 7.04804 63.8861 7.05289 63.879 7.05539L63.8744 7.05667C63.8712 7.05734 63.8679 7.05754 63.8646 7.05727L63.8609 7.05673C63.859 7.0564 63.8571 7.05579 63.8553 7.05512L63.8529 7.0541L63.8492 7.05215L63.7469 6.98817L63.5745 7.26404C63.5337 7.32444 63.4973 7.33894 63.4388 7.34392L57.3652 7.75213H54.4331V7.78186C54.4331 7.80619 54.4202 7.82878 54.3993 7.84118L53.8281 8.17988C53.8174 8.18621 53.8053 8.18952 53.7929 8.18952H53.5012V6.36283C53.5012 6.01968 53.223 5.74152 52.8799 5.74152H45.1613C44.7345 5.74152 44.3582 6.0215 44.2355 6.43031L43.8391 7.75213H39.6254V2.57886L63.0871 2.9398L63.7181 2.34769L63.8496 0.82187ZM60.0248 4.64562H62.5273L61.6989 5.68112H59.1964L60.0248 4.64562ZM59.4035 4.64562L58.5751 5.68112H56.0726L56.901 4.64562H59.4035ZM56.2797 4.64562L55.4513 5.68112H52.9489L53.7773 4.64562H56.2797ZM53.156 4.64562L52.3276 5.68112H49.8251L50.6535 4.64562H53.156ZM50.0322 4.64562L49.2038 5.68112H47.1155V4.64562H50.0322ZM43.1348 3.76679C43.1121 3.72088 43.1454 3.66715 43.1966 3.66715H44.344C44.3703 3.66715 44.3943 3.68204 44.4059 3.70557L44.444 3.78272H43.1426L43.1348 3.76679ZM46.5825 3.78272H45.281L45.2732 3.76679C45.2505 3.72088 45.2839 3.66715 45.3351 3.66715H46.4824C46.4972 3.66715 46.5112 3.67186 46.5228 3.68009C46.5318 3.68656 46.5392 3.69526 46.5443 3.70557L46.5825 3.78272ZM47.4735 3.66715C47.4223 3.66715 47.3889 3.72088 47.4116 3.76679L47.49 3.92548C47.5017 3.94901 47.5257 3.96391 47.5519 3.96391H48.6993C48.7505 3.96391 48.7839 3.91018 48.7612 3.86427L48.6828 3.70557C48.6711 3.68204 48.6471 3.66715 48.6209 3.66715H47.4735ZM49.6119 3.66715C49.5607 3.66715 49.5273 3.72088 49.55 3.76679L49.6285 3.92548C49.6401 3.94901 49.6641 3.96391 49.6903 3.96391H50.8377C50.8609 3.96391 50.8805 3.95285 50.8928 3.93647C50.9077 3.91672 50.912 3.88935 50.8996 3.86427L50.8212 3.70557C50.8095 3.68204 50.7855 3.66715 50.7593 3.66715H49.6119ZM51.7503 3.66715C51.6991 3.66715 51.6658 3.72088 51.6884 3.76679L51.7669 3.92548C51.7735 3.9389 51.7842 3.94948 51.797 3.95616C51.8066 3.96114 51.8175 3.96391 51.8288 3.96391H52.9761C52.9813 3.96391 52.9863 3.96337 52.991 3.96236C53.0049 3.95932 53.017 3.95218 53.0262 3.94247C53.045 3.92258 53.0518 3.89198 53.038 3.86427L52.9596 3.70557C52.9544 3.69506 52.9468 3.68629 52.9375 3.67982C52.9346 3.67773 52.9314 3.67584 52.9281 3.67422C52.9244 3.67234 52.9205 3.67085 52.9165 3.66971C52.9105 3.66802 52.9041 3.66715 52.8977 3.66715H51.7503ZM53.8888 3.66715C53.8376 3.66715 53.8042 3.72088 53.8269 3.76679L53.9053 3.92548C53.9066 3.92804 53.9079 3.93047 53.9094 3.93276C53.9112 3.93539 53.9131 3.93789 53.9151 3.94025C53.9204 3.94625 53.9266 3.9513 53.9335 3.95514C53.9377 3.95744 53.9421 3.95932 53.9466 3.96074C53.9532 3.96283 53.9601 3.96391 53.9672 3.96391H55.1146C55.1539 3.96391 55.1827 3.93216 55.1837 3.8967C55.184 3.88598 55.1817 3.87492 55.1765 3.86427L55.098 3.70557C55.0864 3.68204 55.0624 3.66715 55.0361 3.66715H53.8888ZM56.0272 3.66715C55.976 3.66715 55.9426 3.72088 55.9653 3.76679L56.0437 3.92548C56.0554 3.94901 56.0794 3.96391 56.1056 3.96391H57.253C57.3042 3.96391 57.3376 3.91018 57.3149 3.86427L57.2364 3.70557C57.2343 3.70126 57.2317 3.69721 57.2288 3.6935C57.2246 3.68825 57.2198 3.68366 57.2145 3.67982C57.2113 3.67759 57.208 3.67571 57.2046 3.67402C57.2005 3.67207 57.1962 3.67045 57.1918 3.6693C57.1863 3.66789 57.1805 3.66715 57.1746 3.66715H56.0272Z" fill="#D9D9D9"/>
<path d="M44.0905 7.87496C44.0241 8.09642 44.19 8.31929 44.4212 8.31929H52.1475C52.2643 8.31929 52.4318 8.31929 52.5217 8.45925C52.6252 8.62024 52.7747 8.73093 52.935 8.73093C53.0952 8.73093 53.225 8.60176 53.225 8.44239V6.36283C53.225 6.17217 53.0705 6.01766 52.8799 6.01766H45.1613C44.8564 6.01766 44.5876 6.21768 44.5001 6.50966L44.0905 7.87496Z" fill="#D9D9D9"/>
<path d="M32.7148 4.66287H37.8578V5.66386H32.7148V4.66287Z" fill="#D9D9D9"/>
<path fill-rule="evenodd" clip-rule="evenodd" d="M39.2801 2.57461L39.2802 2.16041H38.9523V2.43654H38.6153V2.16041H38.2874V2.43654H37.8813V2.16041H37.5534V2.43654H37.1473V2.16041H36.8194V2.43654H36.4134V2.16041H36.0855V2.43654H35.6794V2.16041H35.3515V2.43654H34.9454V2.16041H34.6175V2.43654H34.2115V2.16041H33.8835V2.43654H33.4775V2.16041H33.1496V2.43654H32.7435V2.16041H32.4156V2.43654H32.0095V2.16041H31.6816V2.43654H31.2756V2.16041H30.9477V2.43654H30.5416V2.16041H30.2136V2.43654H29.8076V2.16041H29.4797V2.43654H29.0736V2.16041H28.7457V2.43654H28.3396V2.16041H28.0117V2.43654H27.6057V2.16041H27.2778V2.43654H26.8717V2.16041H26.5438V2.43654H26.1377V2.16041H25.8098V2.43654H25.4037V2.16041H25.1013V1.97346C25.1013 1.85906 25.0085 1.76636 24.8942 1.76636H23.702V1.40609C23.7247 1.39059 23.7437 1.37009 23.7575 1.34623C23.7731 1.3192 23.7821 1.28785 23.7821 1.25441C23.7821 1.19144 23.7503 1.13589 23.702 1.10279V0.814252H23.4949V1.10279C23.4466 1.13582 23.4149 1.19144 23.4149 1.25441C23.4149 1.31744 23.4466 1.37306 23.4949 1.40609V1.76636H23.3064C23.2301 1.76636 23.1683 1.82818 23.1683 1.90443V2.16041H22.8739V2.57461H22.7824L21.5398 2.78171H20.5221C20.3649 2.78171 20.2213 2.8707 20.1513 3.01139L19.7813 3.75492V6.46476L19.8628 7.4977C19.8742 7.64136 19.994 7.75213 20.1381 7.75213H26.2233C26.2251 7.8161 26.2927 7.93711 26.3956 8.02826C26.4617 8.08664 26.5423 8.13343 26.6309 8.14415C26.4611 8.6501 26.614 9.02203 27.1813 9.52253C27.2872 9.61596 27.4215 9.45066 27.332 9.37381C26.9441 9.04071 26.95 8.54345 27.1976 8.02826C27.2418 7.93651 27.2935 7.84422 27.3521 7.75213H39.3493L39.3493 2.57461H39.2801ZM32.4387 4.54206C32.4387 4.52076 32.4429 4.5004 32.4507 4.48193C32.4529 4.47681 32.4553 4.47182 32.458 4.46703C32.46 4.46346 32.4621 4.45995 32.4643 4.45651C32.4688 4.44984 32.4737 4.4435 32.479 4.43764C32.5074 4.40636 32.5484 4.38674 32.594 4.38674H37.9786C38.0644 4.38674 38.1339 4.45624 38.1339 4.54206V5.78467C38.1339 5.87042 38.0644 5.93999 37.9786 5.93999H32.594C32.578 5.93999 32.5627 5.93757 32.5482 5.93312C32.5367 5.92961 32.5258 5.92476 32.5157 5.91883C32.5049 5.91256 32.495 5.90501 32.486 5.89631L32.4814 5.89166L32.4748 5.88417C32.4724 5.88141 32.4702 5.87858 32.4681 5.87561C32.4496 5.85006 32.4387 5.81865 32.4387 5.78467V4.54206Z" fill="#D9D9D9"/>
<path fill-rule="evenodd" clip-rule="evenodd" d="M19.5218 3.65649L19.5195 3.65784C19.494 3.67261 19.4689 3.68818 19.4444 3.70456L17.3577 5.09804C17.1287 5.25101 16.8593 5.33191 16.584 5.33056L16.5672 5.33042V6.37287C16.5672 7.05781 16.0119 7.61298 15.327 7.61298H7.57384C6.88893 7.61298 6.3337 7.05781 6.3337 6.37287V5.27878L4.51058 5.26961V14.0274C4.51145 14.2145 4.66344 14.366 4.85082 14.366H9.21972C9.6678 14.366 9.76879 14.2859 10.1347 13.7573C11.1008 12.3619 12.987 12.1049 14.0531 12.7154L20.7542 16.5529C21.0145 16.7019 21.3465 16.5955 21.4716 16.323L24.2332 10.3085C24.3349 10.0869 24.5563 9.94495 24.8 9.94495H24.9901C25.1459 9.94495 25.2722 9.81868 25.2722 9.66289V8.02826H20.1381C19.8499 8.02826 19.6103 7.80666 19.5875 7.51941L19.506 6.48647L19.5052 6.47561V3.69L19.5218 3.65649ZM18.7575 8.8392C20.5333 8.83927 20.9541 9.71547 20.9541 10.2402C20.9541 11.2029 19.8586 11.6469 18.7575 11.6469C17.2528 11.6469 16.6936 10.9666 16.6936 10.2402C16.6936 9.31772 17.6505 8.83913 18.7575 8.8392Z" fill="#D9D9D9"/>
<path d="M28.6931 9.36059L28.9219 8.02826H39.1951L38.3401 9.55913C38.2181 9.77756 37.9875 9.91286 37.7374 9.91286L28.5876 9.91131C28.5771 9.91232 28.5662 9.91286 28.5552 9.91286H25.6173C25.5759 9.91286 25.5361 9.90558 25.4992 9.89217C25.5308 9.82226 25.5484 9.74459 25.5484 9.66289V9.56803C25.5828 9.61381 25.6285 9.65075 25.6812 9.67482C25.7248 9.69471 25.7732 9.70576 25.8242 9.70576H28.348C28.5386 9.70576 28.6513 9.56769 28.6931 9.36059Z" fill="#D9D9D9"/>
<path d="M6.60983 3.92501H16.291V6.37287C16.291 6.90525 15.8595 7.33685 15.327 7.33685H7.57384C7.04142 7.33685 6.60983 6.90525 6.60983 6.37287V3.92501Z" fill="#D9D9D9"/>
<path d="M3.79644 5.26961L4.23444 5.26982V14.0258C4.23444 14.1292 4.25992 14.2266 4.30492 14.3122H2.74621C2.71375 14.3122 2.68287 14.3054 2.65493 14.2931L2.64512 14.2885L2.63477 14.283C2.62685 14.2785 2.61923 14.2736 2.61195 14.2682L1.52194 14.5568C1.25727 14.6268 1.00294 14.4132 1.0234 14.1402C1.27109 10.8353 1.25835 8.7786 0.966201 5.45507C0.945673 5.22141 1.16127 5.03548 1.38876 5.09258L2.52751 5.37842C2.53847 5.35786 2.55954 5.34343 2.58431 5.34202L3.79644 5.26961Z" fill="#D9D9D9"/>
<defs>
<linearGradient id="paint0_linear_2731_987" x1="82.8172" y1="5.16326" x2="47.1157" y2="5.16329" gradientUnits="userSpaceOnUse">
<stop offset="0.484375" stop-color="#0055FF" stop-opacity="0.5"/>
<stop offset="1" stop-color="#0055FF" stop-opacity="0"/>
</linearGradient>
<linearGradient id="paint1_linear_2731_987" x1="64.9664" y1="5.68101" x2="64.9664" y2="4.64551" gradientUnits="userSpaceOnUse">
<stop stop-color="#0055FF" stop-opacity="0"/>
<stop offset="0.500452" stop-color="#3377FF"/>
<stop offset="1" stop-color="#0055FF" stop-opacity="0"/>
</linearGradient>
<radialGradient id="paint2_radial_2731_987" cx="0" cy="0" r="1" gradientUnits="userSpaceOnUse" gradientTransform="translate(65.2721 5.20281) scale(4.68485 4.51995)">
<stop stop-color="#D97F26" stop-opacity="0.5"/>
<stop offset="1" stop-color="#BF7F40"/>
</radialGradient>
<radialGradient id="paint3_radial_2731_987" cx="0" cy="0" r="1" gradientUnits="userSpaceOnUse" gradientTransform="translate(65.2721 5.20281) scale(4.68485 4.51995)">
<stop stop-color="#D97F26" stop-opacity="0.5"/>
<stop offset="1" stop-color="#BF7F40"/>
</radialGradient>
<linearGradient id="paint4_linear_2731_987" x1="77.6789" y1="3.11719" x2="77.6789" y2="7.30622" gradientUnits="userSpaceOnUse">
<stop offset="5.46456e-09" stop-color="#FFFF00" stop-opacity="0.3"/>
<stop offset="0.364885" stop-color="#FFFF00"/>
<stop offset="0.612143" stop-color="#FFFF00"/>
<stop offset="1" stop-color="#FFFF00" stop-opacity="0.3"/>
</linearGradient>
<linearGradient id="paint5_linear_2731_987" x1="77.6789" y1="3.11719" x2="77.6789" y2="7.30622" gradientUnits="userSpaceOnUse">
<stop offset="5.46456e-09" stop-color="#FFFF00" stop-opacity="0.3"/>
<stop offset="0.364885" stop-color="#FFFF00"/>
<stop offset="0.612143" stop-color="#FFFF00"/>
<stop offset="1" stop-color="#FFFF00" stop-opacity="0.3"/>
</linearGradient>
<linearGradient id="paint6_linear_2731_987" x1="77.6789" y1="3.11719" x2="77.6789" y2="7.30622" gradientUnits="userSpaceOnUse">
<stop offset="5.46456e-09" stop-color="#FFFF00" stop-opacity="0.3"/>
<stop offset="0.364885" stop-color="#FFFF00"/>
<stop offset="0.612143" stop-color="#FFFF00"/>
<stop offset="1" stop-color="#FFFF00" stop-opacity="0.3"/>
</linearGradient>
<linearGradient id="paint7_linear_2731_987" x1="77.6789" y1="3.11719" x2="77.6789" y2="7.30622" gradientUnits="userSpaceOnUse">
<stop offset="5.46456e-09" stop-color="#FFFF00" stop-opacity="0.3"/>
<stop offset="0.364885" stop-color="#FFFF00"/>
<stop offset="0.612143" stop-color="#FFFF00"/>
<stop offset="1" stop-color="#FFFF00" stop-opacity="0.3"/>
</linearGradient>
<linearGradient id="paint8_linear_2731_987" x1="77.6789" y1="3.11719" x2="77.6789" y2="7.30622" gradientUnits="userSpaceOnUse">
<stop offset="5.46456e-09" stop-color="#FFFF00" stop-opacity="0.3"/>
<stop offset="0.364885" stop-color="#FFFF00"/>
<stop offset="0.612143" stop-color="#FFFF00"/>
<stop offset="1" stop-color="#FFFF00" stop-opacity="0.3"/>
</linearGradient>
<linearGradient id="paint9_linear_2731_987" x1="77.6789" y1="3.11719" x2="77.6789" y2="7.30622" gradientUnits="userSpaceOnUse">
<stop offset="5.46456e-09" stop-color="#FFFF00" stop-opacity="0.3"/>
<stop offset="0.364885" stop-color="#FFFF00"/>
<stop offset="0.612143" stop-color="#FFFF00"/>
<stop offset="1" stop-color="#FFFF00" stop-opacity="0.3"/>
</linearGradient>
</defs>
</svg>
