<?xml version="1.0" encoding="UTF-8" standalone="no"?>
<svg
   width="94.661964"
   height="16"
   viewBox="0 0 94.661964 16"
   fill="none"
   version="1.1"
   id="svg10"
   sodipodi:docname="dt11_killfeed.svg"
   inkscape:version="1.4 (e7c3feb1, 2024-10-09)"
   xmlns:inkscape="http://www.inkscape.org/namespaces/inkscape"
   xmlns:sodipodi="http://sodipodi.sourceforge.net/DTD/sodipodi-0.dtd"
   xmlns="http://www.w3.org/2000/svg"
   xmlns:svg="http://www.w3.org/2000/svg">
  <defs
     id="defs10" />
  <sodipodi:namedview
     id="namedview10"
     pagecolor="#ffffff"
     bordercolor="#000000"
     borderopacity="0.25"
     inkscape:showpageshadow="2"
     inkscape:pageopacity="0.0"
     inkscape:pagecheckerboard="0"
     inkscape:deskcolor="#d1d1d1"
     inkscape:zoom="1.5294118"
     inkscape:cx="47.076922"
     inkscape:cy="7.5192306"
     inkscape:window-width="1472"
     inkscape:window-height="812"
     inkscape:window-x="0"
     inkscape:window-y="37"
     inkscape:window-maximized="1"
     inkscape:current-layer="svg10" />
  <path
     d="M 83.439333,4.7042264 82.981711,4.3429794 83.326927,3.8372355 82.881406,3.2251265 94.059935,0 89.259308,3.403735 94.661963,4.0620061 89.476118,5.0173013 92.984184,8.1641601 82.931509,5.5912784 Z"
     fill="#d9d9d9"
     id="path1"
     style="stroke-width:1.00005" />
  <path
     d="m 80.83771,2.3282541 -0.500324,0.5126042 -51.240323,-0.0085 c -0.247112,0.6864625 -0.266913,1.4542088 -0.0892,1.8722486 l 1.124153,0.00157 0.64213,-0.5186645 1.970893,0.00485 v 0.5035739 l 0.560827,-0.00209 0.0043,-0.9048628 16.047859,0.00104 c 1.763783,-0.023231 2.125801,0.6442605 2.297609,0.8989425 L 81.986168,4.675895 81.984668,2.8285777 H 81.539243 V 2.3282341 Z m -13.246227,0.7753667 3.510966,2.6e-4 c 0.130106,-0.0026 0.146507,0.048342 0.0794,0.1010648 l -0.0034,0.00183 c -0.078,0.061283 -0.0489,0.062883 -0.227911,0.061583 l -3.474264,-1.401e-4 c -0.145507,0.00485 -0.125106,-0.029061 -0.0609,-0.097155 l 0.0076,-0.00996 c 0.0332,-0.041222 0.0286,-0.056703 0.168508,-0.057483 z m 5.426157,0 3.510966,2.6e-4 c 0.130006,-0.0026 0.146407,0.048342 0.0794,0.1010648 l -0.0034,0.00183 c -0.0781,0.061283 -0.049,0.062883 -0.22801,0.061583 l -3.474165,-1.401e-4 c -0.145607,0.00485 -0.125206,-0.029061 -0.0609,-0.097155 l 0.0075,-0.00996 c 0.0332,-0.041222 0.0287,-0.056703 0.168608,-0.057483 z m -22.147448,7.8e-4 3.510967,2.7e-4 c 0.130006,-0.00261 0.146506,0.048202 0.0794,0.1009248 l -0.0034,0.00183 c -0.078,0.061283 -0.049,0.062753 -0.228011,0.061443 l -3.474164,-1.3e-4 c -0.145507,0.00485 -0.125106,-0.028931 -0.0608,-0.097025 l 0.0074,-0.00996 c 0.0332,-0.041222 0.0287,-0.056563 0.168607,-0.057353 z m 5.604065,1.4e-4 3.510967,2.6e-4 c 0.130106,-0.00261 0.146506,0.048202 0.0794,0.1009348 l -0.0034,0.00182 c -0.078,0.061283 -0.0489,0.062753 -0.228011,0.061453 h -3.474164 c -0.145507,0.00485 -0.125206,-0.029061 -0.0609,-0.097155 l 0.0075,-0.00996 c 0.0333,-0.041222 0.0287,-0.056573 0.168607,-0.057353 z m 5.555063,0.00297 3.510966,5.301e-4 c 0.130106,-0.00261 0.146507,0.048192 0.0794,0.1009247 l -0.0034,0.00182 c -0.078,0.061293 -0.0489,0.062893 -0.228011,0.061583 l -3.474164,-1.3e-4 c -0.145507,0.00485 -0.125006,-0.028931 -0.0608,-0.097025 l 0.0074,-0.01009 c 0.0333,-0.041222 0.0287,-0.056823 0.168608,-0.057613 z m -21.924137,1.401e-4 3.212952,2.6e-4 c 0.130007,-0.00261 0.146407,0.048192 0.0793,0.1009247 l -0.0033,0.00183 c -0.0781,0.061283 -0.0491,0.062743 -0.228211,0.061443 l -3.17595,-1.3e-4 c -0.145507,0.00482 -0.125206,-0.028931 -0.0609,-0.097025 l 0.0075,-0.00997 c 0.0333,-0.041212 0.0287,-0.056553 0.168608,-0.057333 z m 5.197446,5.2e-4 3.510966,2.6e-4 c 0.130006,-0.00261 0.146407,0.048202 0.0794,0.1009348 l -0.0034,0.00182 c -0.0781,0.061283 -0.049,0.062753 -0.228011,0.061453 H 45.18742 c -0.145607,0.00485 -0.125106,-0.029071 -0.0608,-0.097165 l 0.0074,-0.00996 c 0.0332,-0.041212 0.0287,-0.056563 0.168608,-0.057343 z"
     fill="#d9d9d9"
     id="path2"
     style="stroke-width:1.00005" />
  <path
     d="M 51.787136,4.9623887 81.990964,4.949448 V 6.3041121 L 51.942443,6.4378584 c -0.0056,-0.5896479 0.0071,-1.0296287 -0.155307,-1.4754697 z"
     fill="#d9d9d9"
     id="path3"
     style="stroke-width:1.00005" />
  <path
     d="m 33.579375,4.0618361 15.995656,-0.00305 c 1.959793,0.027641 2.054397,0.9849566 2.085899,1.9396817 0.0222,0.674902 -0.017,1.1946965 -1.439568,1.2783805 L 35.862683,7.4984986 C 35.034444,7.5000587 34.456016,7.4450261 33.853288,7.3820731 34.812833,6.0771414 34.33251,5.4218404 33.577275,4.820692 Z"
     fill="#d9d9d9"
     id="path4"
     style="stroke-width:1.00005" />
  <path
     d="m 28.795549,2.855609 c -0.388419,0.066023 -0.713234,0.146767 -0.996047,0.2371612 -0.530526,1.0571 -0.570427,1.3328831 -0.0034,1.8260164 0.183709,0.1709481 0.224511,0.2170703 0.236212,0.4766325 l -0.0216,0.9572853 c -0.0316,0.2491718 -0.160108,0.381138 -0.281314,0.4333605 -0.42432,0.1755083 -0.339416,0.593008 0.0701,0.6274197 l 4.924332,-0.1724882 0.810739,0.1034949 C 34.258305,6.3944664 34.453614,5.7051038 33.318961,4.9728391 H 32.46942 v -0.508824 h -1.599775 l -0.62953,0.5131343 H 28.81495 C 28.551237,4.3408893 28.549737,3.6755278 28.795549,2.855609 Z"
     fill="#d9d9d9"
     id="path5"
     style="stroke-width:1.00005" />
  <path
     d="m 27.450585,3.1915549 c -0.573927,0.2183403 -1.044549,0.3182751 -1.91249,0.5231848 -0.20561,0.030351 -0.268813,0.00433 -0.450222,-0.061713 -0.144306,-0.057123 -0.142206,-0.056303 -0.360117,-0.049842 l -0.360517,0.00344 c -0.134106,0.00105 -0.227811,0.037002 -0.341316,0.1731482 -0.127206,0.1339064 -0.21241,0.3303057 -0.158007,0.5266249 L 25.86921,3.9391903 c 0.507224,-0.085684 0.852141,-0.077234 1.277261,-0.041132 0.0674,-0.2461516 0.168908,-0.4407408 0.304114,-0.7065034 z"
     fill="#d9d9d9"
     id="path6"
     style="stroke-width:1.00005" />
  <path
     d="M 2.8141002,5.9541056 C 2.957947,5.6837128 3.2027986,5.4854534 3.6922417,5.4845433 L 16.233255,5.3869787 c 0.472722,-5.3e-4 0.804138,0.2214805 0.917743,0.5030938 l -0.938944,0.719064 c -0.393819,0.2906938 -0.693933,0.380828 -1.206357,0.3847182 L 3.7176129,7.1222808 C 3.0660721,7.1304512 2.9743277,6.9069406 2.9331658,6.6800999 Z"
     fill="#d9d9d9"
     id="path7"
     style="stroke-width:1.00005" />
  <path
     d="m 1.4114138,6.7112514 c -0.69692287,0.053933 -1.43698587,0.090564 -1.4100506,1.9792535 -0.01976693,2.2639071 0.17428225,4.5449151 0.6575951,6.8691251 0.0582328,0.265012 0.3214552,0.517524 0.7287444,0.41832 L 2.090566,15.753739 C 1.8559549,15.648734 1.6855968,15.433224 1.5946825,15.081007 1.0279757,12.706795 0.47723971,9.9334637 1.0686076,7.3451313 1.140261,7.0759986 1.2593367,6.8712289 1.4114138,6.7112514 Z"
     fill="#d9d9d9"
     id="path8"
     style="stroke-width:1.00005" />
  <path
     d="m 25.781106,4.2338342 c 0.249112,-0.047722 0.485623,-0.071823 0.709234,-0.078974 0.22351,-0.00713 0.43422,0.00264 0.63183,0.022901 -0.0177,0.3994988 0.193309,0.6838923 0.459621,0.9208935 0.135707,0.097135 0.178809,0.1292361 0.172408,0.3445663 l -0.0197,0.7752267 c -0.0041,0.2672326 -0.0304,0.2807132 -0.195709,0.3655572 l -3e-4,1.2e-4 -10e-5,5e-5 c -0.0267,0.013741 -0.0572,0.029361 -0.0918,0.048232 -0.172008,0.1092852 -0.388319,0.4780826 -0.188609,0.7682264 l -0.0934,0.00735 -10e-5,1e-5 c -0.327416,0.025791 -0.651031,0.051272 -0.964946,0.078314 l -2e-4,-0.00171 -0.351917,0.026421 v 10e-5 l 3e-4,0.00273 5e-4,0.0039 c 0.0257,0.2272907 -0.112005,0.2790332 -0.195709,0.2985841 -0.623529,0.1343264 -0.833739,0.5119642 -0.83734,0.8818517 -10e-5,0.00587 -10e-5,0.011741 0,0.017611 0.0018,0.2252807 0.0792,0.4462111 0.185309,0.6059387 l -0.135406,0.062603 c -0.0341,-0.040302 -0.0712,-0.076834 -0.108105,-0.1132254 -0.119706,-0.1180156 -0.238212,-0.2348611 -0.252312,-0.4771726 -0.0038,-0.064903 -10e-5,-0.1388065 0.0131,-0.2241506 0.0163,-0.105775 0.0473,-0.2291008 0.09651,-0.3746377 0.0161,-0.038562 0.0261,-0.075714 0.0297,-0.1103352 0.0022,-0.021451 0.0019,-0.041922 -9e-4,-0.061173 -0.0127,-0.086464 -0.077,-0.148027 -0.200309,-0.1608176 -0.144707,-0.017601 -0.175208,-0.053493 -0.169108,-0.147827 h -0.0034 c -0.141307,0.022871 -0.264613,0.046672 -0.381118,0.070703 -0.587228,0.1154654 -1.084952,0.2522719 -1.435068,0.3927285 -0.0192,0.00667 -0.0378,0.015131 -0.0564,0.023231 l -0.0022,9.201e-4 c -2.786332,1.2119573 -2.972441,2.5566207 -2.811333,3.8556817 0.0699,0.406019 -0.115205,0.551326 -0.405619,0.581728 -1.137054,0.0462 -2.227105,-0.0049 -3.155749,-0.389619 -0.173109,-0.0717 -0.260213,-0.152207 -0.285214,-0.234011 -0.0679,-0.21791 -0.407319,-0.244711 -0.662931,-0.179008 L 2.8047997,15.537229 C 2.0342633,15.625833 1.9458591,15.417423 1.75294,14.692789 1.1540717,12.370579 0.88484898,9.7888569 1.2391057,7.8053031 1.3773322,7.0680282 1.4161541,6.9922646 1.9968215,6.6278274 L 2.5928297,6.2955317 c 0.127056,1.100732 0.696873,1.1051723 1.1741355,1.1088824 0.029581,2.3e-4 0.058813,4.601e-4 0.087554,9.401e-4 L 14.836589,7.2833984 c 0.611028,-0.0038 1.038249,-0.081124 1.619076,-0.5061239 L 17.132497,6.237589 c 0.307615,0.3193051 0.659231,0.4468111 1.195257,0.2560321 l 0.0122,-0.00477 c 0.937245,-0.3666773 1.874289,-0.7333046 2.889737,-1.0832312 -0.0384,-0.1243459 0.125206,-0.2461016 0.279213,-0.3266354 0.0386,-0.020211 0.0667,-0.031741 0.0939,-0.042912 0.0678,-0.027801 0.130206,-0.053363 0.334815,-0.2048996 0.0544,-0.048572 0.155208,-0.096305 0.262313,-0.1391966 l 0.392318,-0.127206 c 0.0948,-0.035072 0.121706,-0.030381 0.227511,-0.010771 0.20511,0.037352 0.335816,0.017201 0.440921,-0.022631 0.131406,-0.064443 0.334916,-0.029481 0.472122,0.086234 z"
     fill="#d9d9d9"
     id="path9"
     style="stroke-width:1.00005" />
  <path
     d="m 22.999575,8.2932462 c 0.148807,0.1147054 0.266412,0.2804932 0.332015,0.4295203 0.441221,1.0304887 1.327563,1.4005065 2.335511,1.3568045 0.971246,-0.097605 2.159002,-0.3603174 2.293008,-1.5702546 0.0143,-0.3206252 -0.0976,-0.5951082 -0.294414,-0.8385697 -0.0212,-0.00703 -0.0416,-0.014361 -0.0612,-0.021951 -0.382418,0.027471 -0.737635,0.055433 -1.07395,0.084364 0.876941,0.064203 1.125453,0.7669862 0.658631,1.1794858 -1.036049,0.9983172 -2.630525,0.742105 -3.15785,-0.066293 -0.177808,-0.2830034 -0.0919,-0.4703222 0.0015,-0.612999 0.0383,-0.074094 0.0429,-0.1448468 0.0268,-0.2011195 C 23.94672,8.054325 23.834515,8.077976 23.72301,8.103267 23.5169,8.152189 23.202485,8.2324431 22.999576,8.293246 Z"
     fill="#d9d9d9"
     id="path10"
     style="stroke-width:1.00005" />
</svg>
