<svg xmlns="http://www.w3.org/2000/svg" xmlns:xlink="http://www.w3.org/1999/xlink" xml:space="preserve" width="60.893" height="16" viewBox="0 0 16.111 4.233"><defs><linearGradient id="a" x1="70.256" x2="43.174" y1="4.734" y2="4.734" gradientUnits="userSpaceOnUse"><stop stop-color="#d9d9d9"/><stop offset="1" stop-color="#d9d9d9" stop-opacity="0"/></linearGradient><linearGradient xlink:href="#a" id="b" x1="70.256" x2="43.174" y1="4.734" y2="4.734" gradientTransform="translate(13.035 -6.957)scale(2.11185)" gradientUnits="userSpaceOnUse"/><linearGradient xlink:href="#a" id="c" x1="70.256" x2="43.174" y1="4.734" y2="4.734" gradientTransform="translate(13.035 -6.957)scale(2.11185)" gradientUnits="userSpaceOnUse"/></defs><g style="display:inline;opacity:1;stroke:none;stroke-width:1.31774"><g style="display:inline;opacity:1;stroke:none;stroke-width:10.5179"><path d="M84.39-1.412h-6.043c-.052 0-.107.107-.107.107h-8.377s-.06-.107-.112-.107h-4.227c-.05 0-.104.107-.104.107h-4.108l-.256.376h-4.161l-.297-.376h-.796c-.53 0-.52.008-.784 1.098h-.243c-.349 0-.879.334-1.02.474-.119.12-.247 2.772-.247 2.772s.128 2.652.248 2.771c.14.14.67.479 1.019.479h.243c.263 1.09.254 1.093.784 1.093h.796l.297-.392h4.161l.256.392h4.108s.054.111.104.111h4.227c.052 0 .112-.111.112-.111h8.377s.055.111.107.111h6.044zM85.569 7.493h4.261c.057 0 .132-.111.132-.111h8.786s.081.111.14.111h5.325V-1.41h-5.325c-.059 0-.14.106-.14.106h-8.786s-.075-.107-.132-.107H85.57z" style="opacity:1;fill:#d9d9d9;fill-opacity:1;stroke:none;stroke-width:11.1314;stroke-linecap:round;stroke-linejoin:round;stroke-miterlimit:10.8;stroke-dasharray:none;stroke-opacity:1;paint-order:fill markers stroke" transform="translate(-.474 .145)scale(.09508)"/><path fill="url(#a)" d="M104.212.657h57.193v4.766h-57.193z" style="display:inline;opacity:1;fill:url(#b);stroke:none;stroke-width:22.2122" transform="translate(-.474 .145)scale(.09508)"/></g><g style="display:inline;opacity:1;stroke:none;stroke-width:10.5179"><path d="M47.652 4.35H44.34c-.549 0-.926.423-.945.966L43.4 8.76h3.563c.57 0 .69-.994.69-1.564z" style="display:inline;opacity:1;fill:#d9d9d9;fill-opacity:1;stroke:none;stroke-width:11.1314;stroke-linecap:round;stroke-linejoin:round;stroke-miterlimit:10.8;stroke-dasharray:none;stroke-opacity:1;paint-order:fill markers stroke" transform="translate(0 .145)scale(.09508)"/><path d="M7.135.189 5.791 3.785l1.035.009-.31 1.286 35.997-.094c.03-.89.594-1.494 1.472-1.494h3.667V.626c0-.121-.205-.437-.404-.437H29.772V2.25c0 .5-.665.967-1.13.97l-4.921.024c-.258.001-.498-.165-.755-.165h-.42V.189Z" style="display:inline;opacity:1;fill:#d9d9d9;fill-opacity:1;stroke:none;stroke-width:11.1314;stroke-linecap:round;stroke-linejoin:round;stroke-miterlimit:10.8;stroke-dasharray:none;stroke-opacity:1;paint-order:fill markers stroke" transform="translate(0 .145)scale(.09508)"/><path d="M23.453.21v2.103h.42c.258 0 .498.166.755.165l3.65-.025c.466-.002.883-.47.883-.97V.437Z" style="display:inline;opacity:1;fill:#dadada;fill-opacity:.996078;stroke:none;stroke-width:11.1314;stroke-linecap:round;stroke-miterlimit:10.8;stroke-dasharray:none;stroke-opacity:1;paint-order:fill markers stroke" transform="translate(0 .145)scale(.09508)"/><path d="M8.053-.437 8.5-1.52h1.554v1.093zM44.268-.52l.347-.91 1.836.183c.202.02.393.205.448.446l.065.281z" style="display:inline;opacity:1;fill:#d9d9d9;fill-opacity:1;stroke:none;stroke-width:5.56572;stroke-linecap:round;stroke-linejoin:round;stroke-miterlimit:10.8;stroke-dasharray:none;stroke-opacity:1;paint-order:fill markers stroke" transform="translate(0 .145)scale(.09508)"/></g><path d="M-.764 3.034s-.019.1-.08.156c-.018.016-.044.013-.071.018-.096.015-.066.167.032.15.052-.008.101-.035.162-.03l.193.03.099-.216z" style="display:inline;opacity:1;fill:#d9d9d9;fill-opacity:1;stroke:none;stroke-width:1.39461;stroke-linecap:round;stroke-miterlimit:10.8;stroke-dasharray:none;stroke-opacity:1;paint-order:fill markers stroke" transform="translate(.797 -1.9)scale(.75888)"/><g style="stroke:none;stroke-width:10.5179"><path d="M4.83 30.89c3.25.125 6.513.36 9.704-.017l.11.783c.078.567-.353.659-.799.72-1.1.15-1.937.03-2.831-.063L5.24 31.72c-.653-.068-.664-.145-.664-.393 0-.151.137-.441.253-.436" style="display:inline;opacity:1;fill:#d9d9d9;fill-opacity:1;stroke:none;stroke-width:22.2629;stroke-linecap:round;stroke-linejoin:round;stroke-miterlimit:10.8;stroke-dasharray:none;stroke-opacity:1;paint-order:fill markers stroke" transform="translate(0 .145)scale(.09508)"/><g style="display:inline;opacity:1;stroke:none;stroke-width:10.5179"><path d="M21.757 11.713c-.194-.005-.4.056-.602.157.124.104.267.007.388.087.513.34.91.719 1.04 1.267.557 2.355 3.11 1.868 3.11 1.868.071-.08-.003-.156-.075-.169 0 0-2.087-.964-1.642-2.739l.153-.413z" style="display:inline;opacity:1;fill:#d9d9d9;fill-opacity:1;stroke:none;stroke-width:11.1314;stroke-linecap:round;stroke-linejoin:round;stroke-miterlimit:10.8;stroke-dasharray:none;stroke-opacity:1;paint-order:fill markers stroke" transform="translate(0 .145)scale(.09508)"/><path d="m6.092 4.47-.384.008c-.245.005-.438.17-.573.404-.888 3.129-3.718 3.414-5.127 2.15l.016.886c1.249 2.893 5.477 1.708 7.118 4.294l.298-.198 3.944 18.767c1.849.042 2.843-.077 3.345-.26l.008-.593s-.401-.89-.243-1.477l1.283-6.915s-3.448-1.076-3.468-2.706l-.03-2.468c2.286 1.401 3.178 1.589 4.556.097 0 0-1.153-.29-1.6-.153-.627.194-1.908.445-2.2-.749-.44-1.809 1.064-1.414 1.285-1.742.457-.678.614-1.29.614-1.29l3.3 1.045 1.333-3.476.668.011.62-1.778 3.146.006.007 1.716 8.812.01 2.726-.008v-.788h1.176v.788h1.212v-.788h1.155v.788h1.192v-.788h1.147v.788h.548c.228 0 .517-.418.52-.932l.025-3.238-37.102-.017.21-.594.285-.033Zm21.98 2.198a1.02 1.02 0 1 1-.002 2.04 1.02 1.02 0 0 1 .002-2.04" style="display:inline;opacity:1;fill:#d9d9d9;fill-opacity:1;stroke:none;stroke-width:11.1314;stroke-linecap:round;stroke-linejoin:round;stroke-miterlimit:10.8;stroke-dasharray:none;stroke-opacity:1;paint-order:fill markers stroke" transform="translate(0 .145)scale(.09508)"/></g><path d="M17.756 11.546c-.249.91-4.867-1.096-4.98-.16l-1.062 8.762s1.226 4.696.551 6.807c-.288.903-.322 2.88-.266 3.114.17.706-.162.727-.362.723 0 0-6.204-.04-8.446-.207-.168-.013-.329-.098-.39-.344-1.61-6.438 5.612-15.6 4.239-18.054.051-.258.623-.662.623-.662-.646-1.674-2.706-1.746-3.067-1.896-.362-.151-.515-.365-.169-.747l.72-.796c.426-.027.825-.068.871-.083.04-.013.584-.503.584-.503h11.733c.39 0 .538.019.47.32l-.126.548c-.119.522.257.302.098.778 0 0-.7 1.23-1.02 2.4" style="display:inline;opacity:1;fill:#d9d9d9;fill-opacity:1;stroke:none;stroke-width:22.2629;stroke-linecap:round;stroke-linejoin:round;stroke-miterlimit:10.8;stroke-dasharray:none;stroke-opacity:1;paint-order:fill markers stroke" transform="translate(0 .145)scale(.09508)"/></g></g><g style="display:inline;opacity:1;stroke:none;stroke-width:1.31774"><g style="display:inline;opacity:1;stroke:none;stroke-width:10.5179"><path d="M84.39-1.412h-6.043c-.052 0-.107.107-.107.107h-8.377s-.06-.107-.112-.107h-4.227c-.05 0-.104.107-.104.107h-4.108l-.256.376h-4.161l-.297-.376h-.796c-.53 0-.52.008-.784 1.098h-.243c-.349 0-.879.334-1.02.474-.119.12-.247 2.772-.247 2.772s.128 2.652.248 2.771c.14.14.67.479 1.019.479h.243c.263 1.09.254 1.093.784 1.093h.796l.297-.392h4.161l.256.392h4.108s.054.111.104.111h4.227c.052 0 .112-.111.112-.111h8.377s.055.111.107.111h6.044zM85.569 7.493h4.261c.057 0 .132-.111.132-.111h8.786s.081.111.14.111h5.325V-1.41h-5.325c-.059 0-.14.106-.14.106h-8.786s-.075-.107-.132-.107H85.57z" style="opacity:1;fill:#d9d9d9;fill-opacity:1;stroke:none;stroke-width:11.1314;stroke-linecap:round;stroke-linejoin:round;stroke-miterlimit:10.8;stroke-dasharray:none;stroke-opacity:1;paint-order:fill markers stroke" transform="translate(.765 1.148)scale(.09508)"/><path fill="url(#a)" d="M104.212.657h57.193v4.766h-57.193z" style="display:inline;opacity:1;fill:url(#c);stroke:none;stroke-width:22.2123" transform="translate(.765 1.148)scale(.09508)"/></g><g style="display:inline;opacity:1;stroke:none;stroke-width:10.5179"><path d="M47.652 4.35H44.34c-.549 0-.926.423-.945.966L43.4 8.76h3.563c.57 0 .69-.994.69-1.564z" style="display:inline;opacity:1;fill:#d9d9d9;fill-opacity:1;stroke:none;stroke-width:11.1314;stroke-linecap:round;stroke-linejoin:round;stroke-miterlimit:10.8;stroke-dasharray:none;stroke-opacity:1;paint-order:fill markers stroke" transform="translate(1.239 1.148)scale(.09508)"/><path d="M7.135.189 5.791 3.785l1.035.009-.31 1.286 35.997-.094c.03-.89.594-1.494 1.472-1.494h3.667V.626c0-.121-.205-.437-.404-.437H29.772V2.25c0 .5-.665.967-1.13.97l-4.921.024c-.258.001-.498-.165-.755-.165h-.42V.189Z" style="display:inline;opacity:1;fill:#d9d9d9;fill-opacity:1;stroke:none;stroke-width:11.1314;stroke-linecap:round;stroke-linejoin:round;stroke-miterlimit:10.8;stroke-dasharray:none;stroke-opacity:1;paint-order:fill markers stroke" transform="translate(1.239 1.148)scale(.09508)"/><path d="M23.453.21v2.103h.42c.258 0 .498.166.755.165l3.65-.025c.466-.002.883-.47.883-.97V.437Z" style="display:inline;opacity:1;fill:#dadada;fill-opacity:.996078;stroke:none;stroke-width:11.1314;stroke-linecap:round;stroke-miterlimit:10.8;stroke-dasharray:none;stroke-opacity:1;paint-order:fill markers stroke" transform="translate(1.239 1.148)scale(.09508)"/><path d="M8.053-.437 8.5-1.52h1.554v1.093zM44.268-.52l.347-.91 1.836.183c.202.02.393.205.448.446l.065.281z" style="display:inline;opacity:1;fill:#d9d9d9;fill-opacity:1;stroke:none;stroke-width:5.56574;stroke-linecap:round;stroke-linejoin:round;stroke-miterlimit:10.8;stroke-dasharray:none;stroke-opacity:1;paint-order:fill markers stroke" transform="translate(1.239 1.148)scale(.09508)"/></g><path d="M-.764 3.034s-.019.1-.08.156c-.018.016-.044.013-.071.018-.096.015-.066.167.032.15.052-.008.101-.035.162-.03l.193.03.099-.216z" style="display:inline;opacity:1;fill:#d9d9d9;fill-opacity:1;stroke:none;stroke-width:1.39461;stroke-linecap:round;stroke-miterlimit:10.8;stroke-dasharray:none;stroke-opacity:1;paint-order:fill markers stroke" transform="matrix(.75887 0 0 .75888 2.037 -.895)"/><g style="stroke:none;stroke-width:10.5179"><path d="M4.83 30.89c3.25.125 6.513.36 9.704-.017l.11.783c.078.567-.353.659-.799.72-1.1.15-1.937.03-2.831-.063L5.24 31.72c-.653-.068-.664-.145-.664-.393 0-.151.137-.441.253-.436" style="display:inline;opacity:1;fill:#d9d9d9;fill-opacity:1;stroke:none;stroke-width:22.263;stroke-linecap:round;stroke-linejoin:round;stroke-miterlimit:10.8;stroke-dasharray:none;stroke-opacity:1;paint-order:fill markers stroke" transform="translate(1.239 1.148)scale(.09508)"/><g style="display:inline;opacity:1;stroke:none;stroke-width:10.5179"><path d="M21.757 11.713c-.194-.005-.4.056-.602.157.124.104.267.007.388.087.513.34.91.719 1.04 1.267.557 2.355 3.11 1.868 3.11 1.868.071-.08-.003-.156-.075-.169 0 0-2.087-.964-1.642-2.739l.153-.413z" style="display:inline;opacity:1;fill:#d9d9d9;fill-opacity:1;stroke:none;stroke-width:11.1314;stroke-linecap:round;stroke-linejoin:round;stroke-miterlimit:10.8;stroke-dasharray:none;stroke-opacity:1;paint-order:fill markers stroke" transform="translate(1.239 1.148)scale(.09508)"/><path d="m6.092 4.47-.384.008c-.245.005-.438.17-.573.404-.888 3.129-3.718 3.414-5.127 2.15l.016.886c1.249 2.893 5.477 1.708 7.118 4.294l.298-.198 3.944 18.767c1.849.042 2.843-.077 3.345-.26l.008-.593s-.401-.89-.243-1.477l2.512-9.326c.442-1.642 1.756-2.78 3.167-2.326 2.593.833 2.346.656 9.95.024.76-.063-.037-.784.061-1.6s-.021-5.156 2.636-5.164l2.726-.008v-.788h1.176v.788h1.212v-.788h1.155v.788h1.192v-.788h1.147v.788h.549c.227 0 .516-.418.52-.932l.024-3.238-37.102-.017.21-.594.285-.033Zm21.98 2.198a1.02 1.02 0 1 1-.002 2.04 1.02 1.02 0 0 1 .002-2.04m-4.954 1.927a.465.465 0 1 1 .003.929.465.465 0 0 1-.003-.93m-1.36 2.45 5.745.144c.848.021 1.671.725 1.563 1.56l-.185 1.418c-.096.737-.75 1.361-1.498 1.415l-3.794.276c-.525.038-4.454.085-3.84-2.12l.35-1.266c.227-.816 1.016-1.443 1.658-1.427" style="display:inline;opacity:1;fill:#d9d9d9;fill-opacity:1;stroke:none;stroke-width:11.1314;stroke-linecap:round;stroke-linejoin:round;stroke-miterlimit:10.8;stroke-dasharray:none;stroke-opacity:1;paint-order:fill markers stroke" transform="translate(1.239 1.148)scale(.09508)"/></g><path d="M17.756 11.546c-.249.91-1.501 1.312-1.752 2.221l-1.877 6.805s-1.187 4.272-1.862 6.383c-.288.903-.322 2.88-.266 3.114.17.706-.162.727-.362.723 0 0-6.204-.04-8.446-.207-.168-.013-.329-.098-.39-.344-1.61-6.438 5.612-15.6 4.239-18.054.051-.258.623-.662.623-.662-.646-1.674-2.706-1.746-3.067-1.896-.362-.151-.515-.365-.169-.747l.72-.796c.426-.027.825-.068.871-.083.04-.013.584-.503.584-.503h11.733c.39 0 .538.019.47.32l-.126.548c-.119.522.257.302.098.778 0 0-.7 1.23-1.02 2.4" style="display:inline;opacity:1;fill:#d9d9d9;fill-opacity:1;stroke:none;stroke-width:22.263;stroke-linecap:round;stroke-linejoin:round;stroke-miterlimit:10.8;stroke-dasharray:none;stroke-opacity:1;paint-order:fill markers stroke" transform="translate(1.239 1.148)scale(.09508)"/></g></g></svg>