<?xml version="1.0" encoding="UTF-8" standalone="no"?>
<svg
   width="31.322374"
   height="16"
   viewBox="0 0 347.30986 182.58824"
   fill="none"
   version="1.1"
   id="svg28"
   xmlns="http://www.w3.org/2000/svg"
   xmlns:svg="http://www.w3.org/2000/svg">
  <defs
     id="defs28" />
  <path
     d="m 344.32679,28.476784 -91.61637,20.624955 3.60042,1.404663 -3.60042,4.376213 4.95591,2.473586 -4.95591,3.331875 91.61637,30.33904 -27.36996,-25.756086 35.14886,-13.302631 -33.13176,-4.528754 z"
     fill="#d9d9d9"
     id="path1"
     style="stroke-width:0.949225" />
  <path
     d="M 224.23367,20.624984 315.85003,0 l -25.35285,18.96289 33.13175,4.528754 -35.14885,13.302631 0.31134,0.292836 -29.66613,6.678653 -34.89162,-11.554443 4.9559,-3.331875 -4.9559,-2.473586 3.60041,-4.376213 z"
     fill="#d9d9d9"
     id="path2"
     style="stroke-width:0.949225" />
  <path
     d="M 292.1289,40.227717 315.85003,62.550361 266.12108,46.082633 Z"
     fill="#d9d9d9"
     id="path3"
     style="stroke-width:0.949225" />
  <path
     d="m 200.25434,41.126254 1.39631,3.164717 h 4.2905 c 1.17324,0 2.11772,0.749033 2.11772,1.67785 v 14.740802 0.139062 c 0,0.524637 -0.4243,0.949225 -0.94922,0.949225 h -0.0427 l -1.56907,9.755472 c -0.14808,0.919609 -0.94163,1.596312 -1.87377,1.596312 h -24.44444 c 0.0228,-0.210538 0.0332,-0.423924 0.0332,-0.639683 V 54.487737 H 42.061408 c 0.147984,-1.934806 0.425063,-3.473879 0.823453,-5.450641 0.292931,-1.453453 1.275094,-4.746125 2.847675,-4.746125 h 8.466045 l 1.774766,-4.920404 h 5.515947 l 1.529012,4.920404 H 186.82565 l 2.77649,-4.920404 9.04706,0.628482 c 0.70243,0.05012 1.32038,0.483915 1.60514,1.127205 z"
     fill="#d9d9d9"
     id="path4"
     style="stroke-width:0.949225" />
  <path
     fill-rule="evenodd"
     clip-rule="evenodd"
     d="m 211.85577,60.709623 h 30.58594 c 0.52397,0 0.94922,-0.424588 0.94922,-0.949225 V 49.068611 c 0,-0.524637 -0.42525,-0.949226 -0.94922,-0.949226 h -30.58594 z m 3.6213,-7.106184 c 0.53821,0 1.02326,-0.222498 1.36878,-0.58216 0.32843,-0.341151 0.52967,-0.804658 0.52967,-1.31629 0,-1.049369 -0.84956,-1.898451 -1.89845,-1.898451 -1.04795,0 -1.89845,0.849082 -1.89845,1.898451 0,1.049273 0.8505,1.89845 1.89845,1.89845 z m 8.09499,-1.89845 c 0,1.049273 -0.84956,1.89845 -1.89845,1.89845 -1.04795,0 -1.89845,-0.849177 -1.89845,-1.89845 0,-0.452401 0.15757,-0.867687 0.42145,-1.192132 0.34837,-0.430094 0.88089,-0.706319 1.477,-0.706319 1.04889,0 1.89845,0.849082 1.89845,1.898451 z m 4.29904,1.89845 c 1.04794,0 1.89845,-0.849177 1.89845,-1.89845 0,-1.049369 -0.85051,-1.898451 -1.89845,-1.898451 -1.04889,0 -1.89845,0.849082 -1.89845,1.898451 0,1.049273 0.84956,1.89845 1.89845,1.89845 z"
     fill="#d9d9d9"
     id="path5"
     style="stroke-width:0.949225" />
  <path
     fill-rule="evenodd"
     clip-rule="evenodd"
     d="m 169.21468,75.632107 c 3.66211,-0.278123 5.66593,-1.069681 6.10731,-2.482413 0.0626,-0.200666 0.094,-0.413768 0.094,-0.639683 V 58.284638 H 41.935636 l -0.04803,0.255246 c -1.085819,5.744331 -2.585974,11.48496 -8.697371,15.053478 -0.715051,0.417564 -1.493226,0.805322 -2.341169,1.159953 -0.7964,0.332988 -1.611879,0.61842 -2.438464,0.866452 -0.08078,0.02421 -0.162033,0.04813 -0.243856,0.07176 -0.553683,0.160229 -0.742579,0.609877 -0.604372,0.966121 0.103845,0.267207 0.391935,0.481732 0.848228,0.481732 4.967865,0.118843 8.662344,0.617566 11.319225,1.506136 7.970454,2.665709 6.602431,8.839279 2.263143,18.78488 -0.826396,1.894653 -1.760718,3.925994 -2.758638,6.095924 l -0.332989,0.72426 c -5.556764,12.08743 -12.926548,28.11985 -14.866005,48.06686 -0.154154,1.58616 -0.274136,3.19699 -0.356149,4.83346 -0.04461,0.89132 -0.07793,1.79024 -0.09948,2.6958 -0.0097,0.41291 -0.0169,0.82772 -0.02174,1.24348 -0.0093,0.78217 -0.0093,1.56812 0,2.36168 l 42.789172,-0.002 v -8.9436 c 0,-3.11441 0.510778,-6.20699 1.511451,-9.15433 L 79.43183,111.26146 c 1.91677,-3.31944 3.958459,-5.62986 6.925072,-6.09118 0.645189,-0.10062 1.334136,-0.11296 2.075007,-0.0304 0.394687,0.0446 0.804183,0.11581 1.2301,0.21643 0.09397,0.0256 0.188896,0.0513 0.284768,0.0769 0.415761,0.112 0.841963,0.22876 1.277657,0.34931 l 0.630286,0.17466 c 2.936902,0.81443 6.294313,1.74562 10.03617,2.39964 5.45329,0.95207 11.72862,1.31468 18.732,-0.12815 1.22735,-0.25249 2.47748,-0.56099 3.74944,-0.93119 2.80686,-0.81728 5.71909,-1.93642 8.73382,-3.4286 0.0626,-0.0313 0.1234,-0.0655 0.18226,-0.10346 0.52777,-0.34172 0.85145,-0.93594 0.85145,-1.57382 V 88.1241 c 0,-1.091134 0.0626,-2.102154 0.1813,-3.034672 0.5515,-4.309673 2.31801,-6.947474 4.77935,-8.108756 0.19934,-0.09378 0.40247,-0.17798 0.61035,-0.252684 2.55532,-0.919704 5.30712,-0.938499 7.99248,-0.956819 0.61605,-0.0042 1.2283,-0.0084 1.83485,-0.02345 h 16.2365 c 1.54818,0 3.45328,-0.115616 3.43999,-0.115616 z m -38.88216,26.259653 c -10.37029,4.16615 -16.90285,5.3242 -25.18864,4.13102 -2.76604,-0.39867 -5.728578,-1.06028 -9.094531,-1.95825 L 94.709043,90.600914 c -0.256291,-4.074929 2.719531,-6.855874 6.963517,-8.530022 v 1.156915 l 2.5107,3.854329 c 0,0 -4.318025,10.845656 5.646,15.354474 0.0921,0.0228 0.18889,0.0294 0.28192,0.0218 0.27717,-0.0218 0.52207,-0.16421 0.50024,-0.35785 -0.002,-0.0161 -0.006,-0.0332 -0.0114,-0.0494 -3.34982,-3.569091 -7.51312,-11.728344 -0.47936,-15.871997 v -5.951167 c 1.10679,-0.09274 2.21929,-0.139062 3.31564,-0.139062 h 9.66786 c 5.53303,0 7.74568,2.074722 8.27534,7.110836 0.0911,0.865978 0.1329,1.819664 0.1329,2.865331 v 10.074319 c 0,0.76982 -0.46607,1.46465 -1.17989,1.75227 z"
     fill="#d9d9d9"
     id="path6"
     style="stroke-width:0.949225" />
  <path
     fill-rule="evenodd"
     clip-rule="evenodd"
     d="m 28.391521,59.654749 8.409376,3.658409 c -0.401143,1.150936 -0.884393,2.206949 -1.500725,3.175823 -1.413301,2.221566 -3.716122,4.260882 -8.188966,5.55534 -0.11609,0.0336 -0.231231,0.07186 -0.345138,0.114477 -0.03142,-0.01301 -0.06274,-0.02629 -0.09407,-0.03996 -2.975156,-1.294078 -4.338244,-4.755333 -3.044165,-7.730964 0.368014,-0.84538 1.03494,-1.737177 1.731102,-2.528831 0.393549,-0.4468 0.796305,-0.862086 1.160143,-1.218046 0.34941,-0.342955 0.663223,-0.630285 0.899201,-0.839779 0.08847,-0.07793 0.188611,-0.13536 0.296158,-0.172474 0.215,-0.07784 0.457906,-0.06853 0.677082,0.02601 z m 1.760813,4.462403 c 1.443297,0.628577 2.104242,2.308231 1.476235,3.750578 -0.628007,1.444246 -2.306807,2.106141 -3.750104,1.477659 -1.4451,-0.628577 -2.105571,-2.308231 -1.477564,-3.750578 0.628008,-1.444246 2.306712,-2.106141 3.751433,-1.477659 z"
     fill="#d9d9d9"
     id="path7"
     style="stroke-width:0.949225" />
  <path
     d="m 138.82239,84.627535 v -1.99157 c 0.25439,-0.586336 0.5439,-1.034845 0.83911,-1.377515 0.46607,-0.541343 0.94923,-0.818992 1.33461,-0.958053 1.89181,-0.6805 3.84721,-0.6992 6.44809,-0.724069 0.66731,-0.0064 1.37733,-0.01319 2.1405,-0.0317 h 16.18999 c 3.33652,0 6.25729,-0.236452 8.45854,-0.963938 0.90936,-0.300525 1.88896,-0.745997 2.74991,-1.446809 0.21737,0.415096 0.43854,0.833324 0.76318,1.129008 0.17845,0.163172 0.38823,0.289229 0.64642,0.357763 4.6531,1.245858 4.27816,6.006887 -0.38634,6.006887 h -3.19604 l 26.96844,85.840041 c 0.0911,0.26673 0.12719,0.52587 0.11201,0.76413 -0.0228,0.35501 -0.16042,0.6654 -0.40342,0.89132 -0.0294,0.0275 -0.0617,0.055 -0.094,0.0797 l -11.46284,7.82636 c -0.43569,0.26389 -0.81444,0.36451 -1.29664,0.36451 h -12.20894 c -0.44233,0 -0.82108,-0.15947 -1.11818,-0.42241 -0.0494,-0.0437 -0.0968,-0.0902 -0.14144,-0.13953 -0.055,-0.0598 -0.10631,-0.1253 -0.15472,-0.1927 -0.0864,-0.1234 -0.16137,-0.25819 -0.22307,-0.40247 L 141.80865,84.627535 Z"
     fill="#d9d9d9"
     id="path8"
     style="stroke-width:0.949225" />
  <path
     d="m 202.12147,176.30342 -9.20464,6.28482 0.56764,-0.005 v -0.29521 c 5.19511,0 9.40682,-1.91838 9.40682,-4.2848 0,-0.60371 -0.27527,-1.17894 -0.76982,-1.70006 z"
     fill="#d9d9d9"
     id="path9"
     style="stroke-width:0.949225" />
  <path
     d="m 27.868783,169.45665 v -2.20789 h 42.622868 c -0.437973,0.92834 -1.44548,1.7779 -3.052993,2.20789 -0.732327,0.19649 -1.075757,0.85146 -1.41501,1.49883 -0.393549,0.75084 -0.781497,1.49028 -1.764515,1.49028 H 31.048308 c -1.73395,0.0959 -3.082704,-1.34979 -3.179525,-2.98911 z"
     fill="#d9d9d9"
     id="path10"
     style="stroke-width:0.949225" />
  <path
     d="m 173.1739,15.814216 -1.39631,-3.164717 c -0.28477,-0.64329 -0.90272,-1.077086 -1.60514,-1.127205 l -9.04707,-0.628482 -2.77648,4.920404 H 34.541551 l -1.529012,-4.920404 h -5.515947 l -1.774766,4.920404 h -8.466045 c -1.572581,0 -2.554744,3.292672 -2.847675,4.746125 -0.323971,1.607418 -0.567732,2.925607 -0.727202,4.403171 -0.03664,0.339253 -0.06863,0.686005 -0.09644,1.04747 H 150.73611 V 40.49407 h 26.70076 l 1.15331,-7.172915 h 0.0427 c 0.19744,0 0.38064,-0.05933 0.53252,-0.163172 0.11296,-0.07603 0.20883,-0.176081 0.27907,-0.292931 0.0873,-0.144567 0.13764,-0.313339 0.13764,-0.493122 V 32.232868 17.492066 c 0,-0.928817 -0.94448,-1.67785 -2.11772,-1.67785 z"
     fill="#d9d9d9"
     id="path11"
     style="stroke-width:0.949225" />
  <path
     d="m 127.71456,90.065171 v 7.34909 l -4.71481,-13.528356 h 0.10442 c 0.69198,0 1.26721,0.03892 1.74468,0.105649 0.9084,0.127955 1.39915,0.337449 1.69246,0.561751 0.19744,0.150168 0.3047,0.307834 0.39014,0.450597 0.40247,0.676608 0.78311,2.09494 0.78311,5.061269 z"
     fill="#d9d9d9"
     id="path12"
     style="stroke-width:0.949225" />
  <path
     d="m 147.00376,58.284638 h -30.3173 l -2.60942,0.0037 7.59949,21.800664 h 1.42764 c 0.83152,0 1.5871,0.04632 2.27434,0.142764 4.67114,0.658192 6.1339,3.620819 6.1339,9.833403 v 10.074321 c 0,0.76792 -0.47746,1.46845 -1.17989,1.75037 -0.31325,0.12624 -0.62269,0.24964 -0.92834,0.3683 l 0.99763,2.86286 c 0.82488,-0.35596 1.6583,-0.73945 2.49836,-1.15141 0.71192,-0.34837 1.23874,-0.93973 1.23874,-1.7779 V 88.1241 c 0,-2.656786 0.3702,-4.838865 1.03181,-6.57234 l 0.1177,-0.294734 c 0.97581,-2.361957 2.5202,-3.845121 4.42149,-4.529228 0.3721,-0.133461 0.74799,-0.248412 1.12673,-0.346657 1.00998,-0.263315 2.04369,-0.409781 3.08594,-0.493217 0.542,-0.04262 1.08686,-0.06853 1.63266,-0.08524 0.70812,-0.02041 1.41625,-0.02601 2.12152,-0.03151 h 0.0266 c 0.61605,-0.0037 1.2283,-0.0093 1.83485,-0.02411 h 2.95209 z"
     fill="#d9d9d9"
     id="path13"
     style="stroke-width:0.949225" />
  <path
     d="m 106.24593,54.491439 c 0.42241,-1.633332 1.05934,-2.951521 1.86808,-3.971178 0.0769,-0.09635 0.15567,-0.190889 0.2354,-0.283629 0.81539,-0.934417 1.78834,-1.590711 2.87805,-1.983691 l 0.47082,-0.159469 c 1.64691,-0.51524 3.37544,-0.69227 5.09259,-0.758241 1.42289,-0.05211 2.84673,-0.03806 4.27057,-0.06493 h 16.23649 c 2.76794,0 8.63605,0.315807 9.54731,-2.597365 0.0389,-0.122355 0.0655,-0.250311 0.0797,-0.381968 H 63.018306 l -1.529012,-4.920404 h -5.515947 l -1.774766,4.920404 h -8.466045 c -1.282023,0 -2.171447,2.187679 -2.615495,3.783991 -0.577034,2.074531 -0.893126,4.265913 -1.055823,6.412775 h 39.582879 v -2.736426 c 1.104044,-0.08913 2.208562,-0.128905 3.315834,-0.139062 h 9.667478 c 0.562892,0 1.090661,0.02231 1.586156,0.06493 0.236358,0.02041 0.46607,0.04822 0.688189,0.07784 2.287632,0.322547 3.805446,1.197637 4.759416,2.736426 z"
     fill="#d9d9d9"
     id="path14"
     style="stroke-width:0.949225" />
  <path
     d="m 105.67545,58.807471 0.0209,-0.519131 h -2.84483 l 0.002,0.01671 c 0.0778,0.655915 0.12909,1.312968 0.15757,1.972585 0.0171,0.418988 0.0237,0.856581 0.0237,1.310785 v 10.074411 c 0,0.767544 -0.47651,1.468262 -1.17989,1.751985 -6.722412,2.70121 -11.833041,4.137958 -16.852734,4.488412 l -0.43427,0.02781 c -1.172198,0.06853 -2.342024,0.07784 -3.52903,0.02962 -0.542292,-0.02221 -1.087812,-0.05743 -1.638837,-0.103751 -0.610447,-0.05012 -1.227348,-0.114951 -1.853077,-0.192882 l -0.397631,-0.05192 -0.493692,-0.06853 C 75.452486,77.369297 74.212609,77.146799 72.91853,76.87608 72.509319,76.79084 72.094982,76.699999 71.674096,76.605456 L 71.3506,76.531326 c -1.205991,-0.278123 -2.461626,-0.593265 -3.778391,-0.943719 l -1.339452,-13.46343 c -0.09037,-1.436748 0.220126,-2.712316 0.847279,-3.835819 l -25.14431,-0.0037 c -0.526536,2.794519 -1.131477,5.61723 -2.32769,8.213076 -0.319794,0.69151 -0.684107,1.370016 -1.104424,2.030013 -1.955973,3.073875 -5.062692,5.637922 -10.336777,7.163707 l -0.145991,0.05192 c -0.291982,0.126057 -0.453255,0.344853 -0.492173,0.572857 -0.01993,0.114951 -0.0084,0.231706 0.03379,0.341151 0.164786,0.42288 0.628862,0.485719 1.024309,0.485719 0.881545,0.02411 1.746859,0.05933 2.618248,0.111249 l 0.709166,0.04632 c 0.721126,0.05192 1.40903,0.113148 2.064375,0.185384 1.377895,0.153869 2.612647,0.354156 3.713938,0.60067 0.737833,0.16507 1.415959,0.350454 2.037512,0.558049 6.987057,2.337847 6.797496,7.3695 3.721342,15.27664 -0.124728,0.320554 -0.254012,0.645189 -0.387473,0.97362 -0.832471,2.022798 -1.724648,4.01712 -2.626601,6.008587 l -1.139735,2.48602 -0.396301,0.86 c -3.842274,8.35793 -8.551855,18.60292 -11.733183,30.72357 h 10.702419 v -8.9436 c 0,-2.01805 0.21462,-4.02851 0.637784,-5.9934 0.229808,-1.06788 0.52141,-2.12247 0.873667,-3.16092 l 11.57315,-34.090581 c 1.916581,-3.318586 3.958269,-5.630519 6.925072,-6.090324 0.37352,-0.05933 0.761943,-0.08714 1.166598,-0.08524 0.6618,0.0037 1.366789,0.09084 2.122752,0.266922 l 0.01528,0.0038 0.744857,0.201995 1.420136,0.391271 0.01898,0.0055 c 1.275474,0.35596 2.547341,0.706413 3.825662,1.034561 8.71683,2.24691 20.304021,4.173173 34.189575,-1.638933 1.11724,-0.466164 2.89039,-0.988713 3.76178,-1.892849 0.28097,-0.291128 0.46892,-0.654491 0.50878,-1.088287 l 0.009,-0.17798 v -14.0678 c 0,-0.285526 0.004,-0.565453 0.0123,-0.839874 z"
     fill="#d9d9d9"
     id="path15"
     style="stroke-width:0.949225" />
  <path
     d="m 75.499668,58.28834 h 5.257758 c -5.772238,4.286321 -1.832099,11.880122 1.368213,15.293251 l 0.0042,0.0149 0.0047,0.02781 c 0.02231,0.192788 -0.222878,0.335551 -0.499672,0.357763 -0.0356,0.0037 -0.07176,0.0037 -0.107927,0.0019 -0.05885,-0.0037 -0.117704,-0.01111 -0.174278,-0.02411 -9.964111,-4.508819 -5.646276,-15.354476 -5.646276,-15.354476 z"
     fill="#d9d9d9"
     id="path16"
     style="stroke-width:0.949225" />
  <path
     d="m 23.953229,74.973915 c -0.327293,0.915907 -0.353681,1.967079 0.06901,3.057169 0.689232,1.774292 2.445394,2.881088 4.325714,2.905199 4.809154,0.116754 8.054555,0.600669 10.177307,1.310785 0.533465,0.177979 0.96783,0.361465 1.321891,0.541343 0.604372,0.30584 1.225925,0.711919 1.546193,1.331098 0.158521,0.311441 0.268346,0.724924 0.289704,1.323695 0.07603,2.128352 -0.952927,5.385808 -3.170317,10.469383 l -3.115547,6.868593 c -3.930362,8.55062 -8.88228,19.32433 -12.149418,32.19202 l -28.166685,0.002 c -0.00927,-0.79355 -0.00927,-1.57951 0,-2.36167 0.0051,-0.41576 0.012051,-0.83057 0.021785,-1.24444 0.021784,-0.90461 0.054691,-1.80352 0.09965,-2.69485 0.082038,-1.63551 0.2020815,-3.24635 0.3559633,-4.83345 C -2.5018266,103.89377 4.8676349,87.860885 10.4244,75.773072 l 0.333273,-0.723024 0.08068,-0.176082 c 0.96726,-2.104242 1.873865,-4.076827 2.677954,-5.919748 4.339193,-9.946455 5.707406,-16.120121 -2.263143,-18.786115 -2.6572615,-0.888 -6.3516458,-1.386723 -11.31935875,-1.505376 -0.27577838,0 -0.4899046,-0.07784 -0.63915127,-0.198388 -0.20300842,-0.168113 -0.30187018,-0.460569 -0.22108162,-0.715721 0.026417,-0.08154 0.069056,-0.15947 0.12838269,-0.231706 0.0769442,-0.09454 0.1691804,-0.161368 0.27021593,-0.213196 0.0769442,-0.03901 0.15897623,-0.06863 0.24240363,-0.09644 l 0.21923304,-0.06493 C 0.76021257,46.895834 1.5759482,46.610307 2.3722247,46.27656 2.5617945,46.196825 2.7481084,46.117185 2.9307298,46.033748 3.1518139,45.933605 3.3678006,45.831658 3.5791455,45.727813 3.9740422,45.531323 4.3518243,45.327335 4.7132893,45.116037 10.824876,41.54714 12.325221,35.807271 13.41066,30.063699 l 0.04822,-0.255816 H 146.93921 V 40.49407 H 65.814154 L 64.285047,35.573666 H 53.306404 l -1.774672,4.920404 h -5.799196 c -0.391175,0 -0.774473,0.04822 -1.14524,0.139061 -1.011874,0.244711 -1.930439,0.804659 -2.662292,1.566602 -0.638259,0.663698 -1.128154,1.45725 -1.523981,2.285924 -0.659047,1.383021 -1.056298,2.895896 -1.238454,3.800602 -0.314004,1.558533 -0.597062,3.121432 -0.772669,4.701607 -0.06948,0.650789 -0.12321,1.303382 -0.169152,1.957777 -0.04727,0.669299 -0.08619,1.340401 -0.124633,2.0097 l -0.07926,1.329295 c -0.04082,0.209494 -0.07043,0.417184 -0.09967,0.622976 -0.03341,0.235408 -0.06673,0.469012 -0.116375,0.700718 L 29.895094,56.16929 c -1.055823,-0.456103 -2.287253,-0.532136 -3.445592,-0.120552 -1.03589,0.365262 -1.820994,1.127205 -2.587588,1.87994 -0.414812,0.405984 -0.884393,0.889899 -1.352456,1.422035 -0.933468,1.060379 -1.796029,2.219098 -2.362906,3.522479 -1.900729,4.358652 -0.249836,9.618309 3.806677,12.100723 z"
     fill="#d9d9d9"
     id="path17"
     style="stroke-width:0.949225" />
  <path
     d="M 22.34809,138.772 H -0.60801007 v 2.2079 c 0.0968684,1.63931 1.44562243,3.08498 3.17953407,2.98911 h 18.759281 c 0.303562,-1.76651 0.644714,-3.49884 1.017285,-5.19701 z"
     fill="#d9d9d9"
     id="path18"
     style="stroke-width:0.949225" />
  <path
     d="m 25.184659,143.96901 h 10.597719 c 0.499578,0 0.845855,-0.19079 1.116954,-0.47841 0.261416,-0.27433 0.452875,-0.64168 0.647561,-1.01187 0.339253,-0.64738 0.682683,-1.30234 1.41501,-1.49883 1.607323,-0.43 2.61502,-1.27861 3.052993,-2.2079 H 26.237729 c -0.39203,1.72379 -0.743338,3.45708 -1.05307,5.19701 z"
     fill="#d9d9d9"
     id="path19"
     style="stroke-width:0.949225" />
  <path
     d="m 28.147286,66.353052 c 0.20769,-0.476416 0.762892,-0.697111 1.244909,-0.489421 0.469107,0.201521 0.694927,0.773524 0.490844,1.245858 -0.207216,0.472904 -0.772764,0.690846 -1.245384,0.489421 -0.47689,-0.207596 -0.697965,-0.765645 -0.490369,-1.245858 z"
     fill="#d9d9d9"
     id="path20"
     style="stroke-width:0.949225" />
  <path
     fill-rule="evenodd"
     clip-rule="evenodd"
     d="m 36.798809,63.312589 c -1.032188,2.962626 -2.600213,5.294872 -5.523447,7.002339 -1.312588,0.743433 -2.717916,1.307083 -4.16444,1.729773 -0.116755,0.03265 -0.230472,0.0747 -0.344854,0.114951 l -0.09407,-0.04082 c -2.975156,-1.294078 -4.338244,-4.755333 -3.044165,-7.730964 0.368014,-0.84538 1.03494,-1.737177 1.731102,-2.528831 0.646612,-0.724828 1.334421,-1.410833 2.059344,-2.057825 0.08847,-0.07793 0.188611,-0.13536 0.296158,-0.172474 0.21462,-0.07603 0.457622,-0.06967 0.677082,0.02601 z m -8.920344,6.0328 c 1.443297,0.628482 3.122097,-0.03341 3.750104,-1.477659 0.628007,-1.442347 -0.03294,-3.122001 -1.476235,-3.750578 -1.444721,-0.628482 -3.123425,0.03341 -3.751433,1.477659 -0.628007,1.442347 0.03246,3.122001 1.477564,3.750578 z"
     fill="#d9d9d9"
     id="path21"
     style="stroke-width:0.949225" />
  <path
     d="m 150.70289,44.672939 c 0.0133,-0.126057 0.0228,-0.254013 0.0275,-0.381968 h 25.55884 c -0.31989,0.241008 -0.71667,0.381968 -1.14192,0.381968 z"
     fill="#d9d9d9"
     id="path22"
     style="stroke-width:0.949225" />
  <path
     d="m 149.91598,50.143893 c 2.84958,0.763841 3.81399,2.845872 3.06125,4.343844 h -42.6316 V 54.15959 c 0.2544,-0.585862 0.54391,-1.034466 0.83912,-1.377516 0.46607,-0.541343 0.94922,-0.819371 1.33556,-0.958432 0.6151,-0.222499 1.23779,-0.374564 1.88611,-0.478315 0.63313,-0.102041 1.29095,-0.15947 1.99337,-0.190984 l 0.56479,-0.02221 c 0.62649,-0.01861 1.29095,-0.02601 2.00287,-0.03341 0.71286,-0.0072 1.42668,-0.01025 2.13955,-0.03152 h 16.19093 c 3.33653,0 6.2573,-0.235408 8.45855,-0.964033 0.90936,-0.300335 1.88896,-0.745331 2.7499,-1.446144 0.21738,0.415286 0.43855,0.834274 0.76318,1.129103 0.17846,0.163172 0.38823,0.289229 0.64642,0.357763 z"
     fill="#d9d9d9"
     id="path23"
     style="stroke-width:0.949225" />
  <path
     fill-rule="evenodd"
     clip-rule="evenodd"
     d="m 183.37902,32.232868 h 30.58593 l 0.0778,-0.0037 0.0456,-0.0056 c 0.0911,-0.01111 0.1794,-0.03702 0.26009,-0.07224 l 0.037,-0.01671 0.0664,-0.03712 0.0465,-0.02781 0.0807,-0.06303 0.0589,-0.05373 c 0.0864,-0.08714 0.15662,-0.190984 0.20409,-0.307739 0.0275,-0.06682 0.0484,-0.137258 0.0598,-0.211392 0.008,-0.04822 0.0123,-0.09824 0.0123,-0.150168 V 20.591856 c 0,-0.524637 -0.42526,-0.949225 -0.94923,-0.949225 h -30.58588 z m 3.62129,-7.106184 c 0.53821,0 1.02327,-0.222498 1.36878,-0.58216 0.32844,-0.341151 0.52967,-0.804658 0.52967,-1.31629 0,-1.049369 -0.84955,-1.898451 -1.89845,-1.898451 -1.04794,0 -1.89845,0.849082 -1.89845,1.898451 0,0.352257 0.0959,0.682208 0.26294,0.964033 0.33887,0.572857 0.96821,0.934417 1.63551,0.934417 z m 8.09499,-1.89845 c 0,1.049273 -0.84955,1.89845 -1.89845,1.89845 -1.04794,0 -1.89845,-0.849177 -1.89845,-1.89845 0,-0.452401 0.15757,-0.867687 0.42146,-1.192132 0.21452,-0.265119 0.49929,-0.472714 0.82677,-0.591367 0.20314,-0.07423 0.42241,-0.114952 0.65022,-0.114952 1.0489,0 1.89845,0.849082 1.89845,1.898451 z m 4.29904,1.89845 c 1.04795,0 1.89846,-0.849177 1.89846,-1.89845 0,-1.049369 -0.85051,-1.898451 -1.89846,-1.898451 -0.59326,0 -1.12388,0.272523 -1.47129,0.698915 -0.26674,0.326343 -0.42716,0.743433 -0.42716,1.199536 0,1.049273 0.84956,1.89845 1.89845,1.89845 z"
     fill="#d9d9d9"
     id="path24"
     style="stroke-width:0.949225" />
  <path
     d="m 131.65479,108.71574 c 1.0356,-0.44139 2.0807,-0.92075 3.13529,-1.44378 1.95445,-0.96631 3.14668,-2.95683 3.14668,-5.08025 V 88.422537 h 1.17419 l 22.05905,63.282653 -0.11581,0.0503 -0.11106,0.0389 -0.13004,0.0427 -0.0978,0.0237 -0.23636,0.0389 -0.1794,0.0152 -0.14239,0.002 h -12.20893 c -0.32084,0 -0.60845,-0.0835 -0.85525,-0.22971 -0.12245,-0.0759 -0.23256,-0.16517 -0.33318,-0.26578 l -0.0541,-0.0551 -0.0617,-0.0664 -0.11011,-0.13764 c -0.0864,-0.12435 -0.16136,-0.25724 -0.22306,-0.40247 z"
     fill="#d9d9d9"
     id="path25"
     style="stroke-width:0.949225" />
  <path
     d="m 140.85563,80.356021 0.14048,-0.05562 c 1.83865,-0.661895 3.9222,-0.713818 6.71957,-0.732327 0.62269,-0.0037 1.24538,-0.0093 1.86807,-0.02411 h 4.09876 l 19.61953,62.446856 c 0.0911,0.26674 0.12815,0.52682 0.11201,0.76413 -0.0228,0.35596 -0.16042,0.66541 -0.40342,0.89132 l -0.094,0.0797 -8.48702,5.79502 -22.62099,-64.895389 h -2.98626 v -1.987393 c 0.34172,-0.800956 0.74229,-1.336698 1.13337,-1.700157 l 0.10062,-0.09084 0.0674,-0.05743 0.0522,-0.03892 c 0.18985,-0.146465 0.37495,-0.255816 0.54486,-0.335551 z"
     fill="#d9d9d9"
     id="path26"
     style="stroke-width:0.949225" />
  <path
     d="m 165.72343,153.23535 0.19459,0.55624 c 4.76796,-0.20788 8.49652,-2.03799 8.49652,-4.26487 0,-0.6037 -0.27433,-1.17894 -0.76983,-1.70006 z"
     fill="#d9d9d9"
     id="path27"
     style="stroke-width:0.949225" />
  <path
     fill-rule="evenodd"
     clip-rule="evenodd"
     d="m -0.08519584,31.177994 8.40952744,3.65784 c -0.1098253,0.315142 -0.2252511,0.622881 -0.3480808,0.923216 -0.1196024,0.291127 -0.2461341,0.576654 -0.3805444,0.856581 -0.2326551,0.483915 -0.4884713,0.949225 -0.7720998,1.396025 -1.413681,2.222896 -3.7162924,4.262211 -8.1894211,5.55629 -0.1158719,0.03341 -0.2308136,0.07233 -0.3448345,0.114951 l -0.094087,-0.04082 c -2.9751365,-1.294078 -4.3382571,-4.755333 -3.0441964,-7.730964 0.3680079,-0.84538 1.0349715,-1.737177 1.7311332,-2.528831 0.3935013,-0.4468 0.796267,-0.862086 1.1601145,-1.218046 0.3494668,-0.342955 0.6632521,-0.630285 0.8991631,-0.839779 l 0.083892,-0.06673 0.088525,-0.05382 c 0.039858,-0.02041 0.0811113,-0.03702 0.12375046,-0.05192 0.21505645,-0.07784 0.4579252,-0.06853 0.67715824,0.02601 z m 3.46921864,6.907797 c 0.025952,0.433796 -0.047281,0.880691 -0.2322089,1.305184 -0.6280264,1.444246 -2.3067881,2.106141 -3.75009441,1.477659 -1.44515739,-0.628577 -2.10562819,-2.308231 -1.47760189,-3.750578 0.6280264,-1.444246 2.30678804,-2.106141 3.7514803,-1.477659 1.0178256,0.443098 1.6467822,1.40903 1.7084249,2.445394 z"
     fill="#d9d9d9"
     id="path28"
     style="stroke-width:0.949225" />
</svg>
