<svg xmlns="http://www.w3.org/2000/svg" width="28.397" height="16" fill="none" viewBox="0 0 21.906 10.88"><path fill="#d9d9d9" d="m17.225 7.861 3.054 2.372-1.148-3.11 2.775-.53-5.002-2.038c-.332.957-1.673 1.503-2.47.612l-2.383 4.33 3.142-1.93L16.52 11.2z" style="stroke-width:.840838"/><g style="fill:#d9d9d9;fill-opacity:1;stroke:#d9d9d9;stroke-opacity:1"><path d="M934.516-352.098s.304 1.659-.541 3.681c-.846 2.023-.299 16.265-.63 23.54-.338 5.578-1.059 8.7-1.059 8.7s-.583-.016-1.608-1.042-1.107-1.905-1.107-1.905 1.152-2.623 1.52-5.752c.368-3.13.094-27.222.094-27.222z" style="fill:#d9d9d9;fill-opacity:1;stroke:#d9d9d9;stroke-width:1.1;stroke-linecap:round;stroke-linejoin:round;stroke-miterlimit:5;stroke-opacity:1;paint-order:fill markers stroke" transform="matrix(-.18335 -.3499 -.37077 .11696 53.96 369.718)"/><path d="M933.467-325.084c-.339 5.578-1.18 8.907-1.18 8.907-.065.298-.584-.016-1.61-1.042-1.025-1.026-1.15-1.737-1.106-1.905.08-.298 1.152-2.623 1.52-5.752l.192-13.66h2.184z" style="fill:#d9d9d9;fill-opacity:1;stroke:#d9d9d9;stroke-width:1.1;stroke-linecap:round;stroke-linejoin:miter;stroke-miterlimit:5;stroke-opacity:1;paint-order:fill markers stroke" transform="matrix(-.18335 -.3499 -.37077 .11696 53.96 369.718)"/><path d="M936.487-356.695s.837-.022 2.211.417c1.374.44 2.045 1.807 2.045 1.807l-4.256.173v2.398h-6.325l-3.417.736s-.8-1.498-.8-3.134.8-3.133.8-3.133c4.141 1.163 6.452.736 9.742.736z" style="fill:#d9d9d9;fill-opacity:1;stroke:#d9d9d9;stroke-width:1.1;stroke-linecap:round;stroke-miterlimit:5;stroke-opacity:1;paint-order:fill markers stroke" transform="matrix(-.18335 -.3499 -.37077 .11696 53.96 369.718)"/><path d="m929.732-351.8-2.992.638s-.819-1.5-.819-3.136c0-1.635.836-3.175.836-3.175l2.975.624" style="fill:#d9d9d9;fill-opacity:1;stroke:#d9d9d9;stroke-width:1.1;stroke-linecap:square;stroke-linejoin:miter;stroke-miterlimit:5;stroke-opacity:1;paint-order:markers fill stroke" transform="matrix(-.18335 -.3499 -.37077 .11696 53.96 369.718)"/><path d="m929.443-356.347.71.143v3.756l-.71.147z" style="fill:#d9d9d9;fill-opacity:1;stroke:#d9d9d9;stroke-width:1.0077;stroke-linecap:square;stroke-miterlimit:5;stroke-opacity:1;paint-order:markers fill stroke" transform="matrix(-.18335 -.3499 -.37077 .11696 53.96 369.718)"/></g></svg>