<?xml version="1.0" encoding="UTF-8" standalone="no"?>
<svg
   width="25.405327"
   height="16.000044"
   viewBox="0 0 25.405327 16.000044"
   fill="none"
   version="1.1"
   id="svg2"
   xmlns="http://www.w3.org/2000/svg"
   xmlns:svg="http://www.w3.org/2000/svg">
  <defs
     id="defs2" />
  <path
     d="m 15.274627,3.692984 c 2.4812,2.75373 2.4781,4.59847 0,8.39816 l 3.1391,3.9089 -0.3329,-5.0199 4.6803,1.111 -3.5388,-4.20935 6.183,-1.3559 -6.183,-1.32979 4.704,-2.59784 -5.5126,0.49417 L 20.609827,0 Z"
     fill="#d9d9d9"
     id="path1" />
  <path
     d="M 5.837647,9.839444 H 0 v -4.52912 c 2.840907,0.00431 5.243117,-0.02196 5.837647,-0.11422 0.34412,-0.05339 0.95844,-0.16461 1.727,-0.30377 l 0.00844,-0.00152 0.00152,-2.9e-4 c 2.94622,-0.53349 5.52582,-0.71892 6.47762,-0.39598 1.2017,0.40771 0.9079,3.79339 0.5646,4.75901 -0.176,0.4949 -0.704,0.59179 -1.1894,0.56809 v -0.0437 l -10e-5,-0.01251 c 0,0 -0.025,-1.3e-4 -0.0373,-2.5e-4 -0.0245,-2.3e-4 -0.0607,-7.1e-4 -0.1069,-0.00166 -0.0925,-0.0019 -0.2252,-0.00571 -0.3857,-0.01334 -0.3213,-0.01527 -0.7538,-0.04577 -1.1992,-0.10671 -0.4459,-0.06101 -0.9023,-0.15219 -1.2727,-0.28796 -0.374,-0.13709 -0.6444,-0.31403 -0.7415,-0.53619 -0.0994,-0.22727 -0.0839,-0.50766 0.0209,-0.7981 0.1047,-0.28985 0.2966,-0.58392 0.5404,-0.83307 0.4907,-0.5016 1.1712,-0.80335 1.7546,-0.55874 0.2985,0.12517 0.4106,0.27423 0.4324,0.41617 0.0226,0.14664 -0.0469,0.30833 -0.1633,0.46591 -0.115,0.15585 -0.2685,0.29755 -0.3946,0.40102 -0.0628,0.05153 -0.1183,0.09315 -0.158,0.12183 -0.0199,0.01433 -0.0357,0.0254 -0.0466,0.03286 -0.0054,0.00372 -0.0163,0.01108 -0.0163,0.01108 l 0.0561,0.08534 0.0057,0.00835 c 0,0 0.0123,-0.00831 0.0181,-0.01225 0.0052,-0.00359 0.0115,-0.00792 0.0187,-0.01298 0.0087,-0.00611 0.0187,-0.01327 0.03,-0.0214 0.0412,-0.02977 0.0986,-0.07279 0.1635,-0.12604 0.1293,-0.1061 0.2908,-0.25457 0.4137,-0.42114 0.1218,-0.16483 0.2135,-0.35777 0.184,-0.54965 -0.0303,-0.19658 -0.1835,-0.3699 -0.5,-0.50262 -0.6467,-0.27119 -1.3749,0.06926 -1.8783,0.58375 -0.2532,0.25889 -0.4547,0.56632 -0.5656,0.87345 -0.11073,0.30654 -0.13308,0.61859 -0.0183,0.88119 0.1171,0.26772 0.4281,0.45817 0.8058,0.59663 0.3813,0.1398 0.8469,0.23232 1.2961,0.29377 0.4498,0.06156 0.8857,0.09226 1.209,0.10766 0.1618,0.0076 0.2954,0.0115 0.3888,0.0134 0.0168,3e-4 0.0323,6e-4 0.0464,9e-4 0.0251,4e-4 0.0458,6e-4 0.0617,8e-4 l 0.0367,2e-4 c 0.0966,0.5945 -0.2402,1.8674 -1.1003,1.8674 l -2.93353,-0.2145 c -1.52696,-0.2544 -2.27563,-0.7108 -3.55415,-1.6911 z"
     fill="#d9d9d9"
     id="path2" />
</svg>
