<svg width="68" height="17" viewBox="0 0 68 17" fill="none" xmlns="http://www.w3.org/2000/svg">
<path d="M21.7223 3.99902L50.2303 4.18234C50.7084 5.52923 50.2303 6.79147 50.2303 6.79147L48.5607 6.81719C48.5263 6.73143 48.4709 6.66687 48.4178 6.62076L48.4044 6.60938L48.3936 6.60077C48.3711 6.58305 48.3497 6.5688 48.3313 6.55763C48.2354 6.49963 48.1217 6.46285 48.0102 6.4359C47.9909 6.43129 47.9709 6.42678 47.9501 6.42237L47.9083 6.41376L47.8909 6.41038L47.8623 6.40505L47.8428 6.40157L47.7769 6.39071C47.7152 6.38108 47.6486 6.37206 47.5771 6.36376L47.5529 6.36089H29.4052V6.56583L21.7077 6.83113C21.6305 6.73143 21.4568 6.35884 21.4804 5.26721L21.4904 4.80476L17.926 5.06862C17.8896 5.06678 17.7886 5.0635 17.7242 5.06247C17.5957 5.06042 17.415 5.06237 17.2019 5.07784C16.7797 5.10858 16.2108 5.19384 15.6639 5.42061C15.4421 5.51263 14.8203 5.73561 13.9953 6.02406C13.7329 5.40648 14.3662 5.25041 14.3662 5.25041C14.3662 5.25041 14.5734 5.06708 15.1871 5.13082L15.7378 5.19661C15.8349 5.20655 15.9133 5.21177 15.9545 5.20716C16.0108 5.20086 16.1923 5.14486 16.2856 5.12057C16.4557 5.07631 16.6787 5.01913 16.9241 4.95908C17.1428 4.90559 17.7909 4.78027 18.5398 4.66314C19.6117 4.4954 20.8886 4.3297 21.3961 4.28881C21.4983 4.14955 21.569 4.08653 21.7223 3.99902Z" fill="#D9D9D9"/>
<path d="M16.9241 5.52749C16.627 5.56581 16.2924 5.63416 15.9646 5.75385C15.9178 5.77096 15.8711 5.7891 15.8246 5.80836C15.5059 5.94055 14.4135 6.32554 13.0844 6.78492C13.1255 6.47924 13.0865 6.18833 12.7976 6.1665C12.1671 6.1209 11.9666 6.697 11.9666 6.697L10.9219 6.87601C10.7473 7.15433 10.1646 7.6716 9.9477 7.85964C7.52281 8.68996 6.5478 9.01224 6.5478 9.01224C6.5478 9.01224 1.51885 11.0923 0.825482 15.0852C0.825482 15.0852 0.705897 16.3842 2.79401 16.3842C4.88207 16.3842 5.42404 15.5156 5.42404 15.5156C5.42404 15.5156 6.85506 12.7305 11.7217 11.0024C11.8504 10.9563 11.9814 10.9109 12.1149 10.8665C12.2098 10.8348 12.3059 10.8035 12.4032 10.7727C12.9186 10.6096 13.4687 10.4588 14.0553 10.3243C14.2094 10.2889 14.3669 10.2545 14.5261 10.2215L14.5876 10.2088L14.695 10.1871C14.7704 10.172 14.8464 10.1573 14.923 10.1427C14.8902 10.1713 14.8572 10.2004 14.8242 10.2301C14.6231 10.4109 14.4162 10.6154 14.2589 10.816C14.1802 10.9164 14.1102 11.0205 14.0597 11.1242C14.0101 11.2258 13.9725 11.3411 13.9757 11.4596C13.9841 11.7947 14.0692 12.0125 14.2273 12.1113L14.2214 12.1075C14.3155 12.164 14.4312 12.1583 14.5097 12.1075C14.5859 12.0582 14.6398 11.9673 14.6344 11.8707C14.6281 11.7572 14.6376 11.4532 14.8464 11.1203C15.0535 10.7902 15.4878 10.3973 16.3381 10.1265C16.2127 10.5532 16.2166 10.9134 16.3381 11.2564C16.4411 11.7197 16.621 12.0178 16.8975 12.1415C16.9359 12.1572 16.9946 12.1746 17.0614 12.1636C17.141 12.1505 17.2028 12.1022 17.2374 12.0394C17.3036 11.9197 17.2488 11.7865 17.1697 11.5941C17.1006 11.4264 17.013 11.2133 16.9708 10.9247C16.8994 10.4359 17.0572 10.1068 17.4377 9.79225L17.5619 9.78098L17.6922 9.76981V5.48189C17.515 5.48004 17.2411 5.4866 16.9241 5.52749Z" fill="#D9D9D9"/>
<path d="M47.8406 6.82826C47.9397 6.84835 48.013 6.86986 48.0652 6.8922C48.4308 7.04847 47.7676 7.24286 47.7676 7.24286C46.3669 7.81322 32.4339 8.74325 29.8249 8.91315V6.78061H47.5285C47.567 6.78512 47.6034 6.78973 47.6378 6.79445C47.6733 6.79936 47.7067 6.80439 47.7382 6.80961C47.7605 6.8133 47.7819 6.81699 47.8023 6.82078L47.8406 6.82826Z" fill="#D9D9D9"/>
<path d="M12.3253 11.2389C12.2149 11.2752 12.1063 11.3121 11.9993 11.3495L13.1563 12.879C13.2097 12.943 13.3551 13.0919 13.4712 13.1564C13.7032 13.2851 14.0213 13.3824 14.6132 13.3878C15.3302 13.3942 17.2658 13.2793 17.2658 13.2793C17.4573 13.2793 18.2185 12.9771 18.3891 12.8572C18.9583 12.4573 19.4195 11.9919 19.5128 11.11C19.5556 10.7059 19.4709 10.3756 19.2892 10.1198C19.0067 10.1295 18.766 10.1372 18.578 10.1431L18.4597 10.1467C18.586 10.2758 18.6942 10.3974 18.7378 10.4486C18.8353 10.5629 18.9108 10.7403 18.8788 11.0429C18.8127 11.6674 18.4345 12.0675 18.0419 12.3224C17.9662 12.3716 17.8667 12.4276 17.7626 12.4799C17.597 12.5629 17.4195 12.6361 17.3058 12.6567C17.1831 12.6792 16.8973 12.6869 16.6418 12.6937C16.0855 12.7176 15.1199 12.7502 14.6132 12.7502C14.1706 12.7502 13.8947 12.5934 13.7706 12.5228C13.6246 12.4398 13.0052 11.6282 12.6504 11.1351C12.5404 11.1692 12.4321 11.2038 12.3253 11.2389Z" fill="#D9D9D9"/>
<path d="M29.4052 8.9402C28.7537 9.3548 21.4784 9.62819 18.9622 9.71078L18.5317 9.72462L18.2577 9.73302L18.112 9.73722V5.48138L21.0608 5.25819L21.0593 5.33853C21.0587 5.38495 21.0584 5.43024 21.0585 5.47451C21.0585 5.54542 21.0594 5.61356 21.0611 5.67904C21.1066 7.44432 21.7223 7.25065 21.7223 7.25065L29.4052 6.98586V8.9402Z" fill="#D9D9D9"/>
<path d="M64.0209 0.383789L51.5474 4.10628L52.0698 4.73755L51.5474 5.67362L52.0698 6.34845L51.5474 6.97974L66.459 10.2668L60.9079 6.4573L67.1991 3.95387L61.3433 3.14843L64.0209 0.383789Z" fill="#D9D9D9"/>
</svg>