<?xml version="1.0" encoding="UTF-8" standalone="no"?>
<!-- Created with Inkscape (http://www.inkscape.org/) -->

<svg
   width="78.0355"
   height="16"
   viewBox="0 0 20.646893 4.2333333"
   version="1.1"
   id="svg1"
   xml:space="preserve"
   xmlns="http://www.w3.org/2000/svg"
   xmlns:svg="http://www.w3.org/2000/svg"><defs
     id="defs1" /><g
     id="layer1"
     transform="translate(-0.10857089,-0.02322377)"><g
       id="g11"
       transform="matrix(1.0110936,0,0,1.0110936,0.14403917,0.02322374)"><path
         id="path29"
         style="fill:#d8d8d8;fill-opacity:1;stroke:none;stroke-width:0.152385;stroke-linecap:round;stroke-linejoin:round;stroke-miterlimit:2;stroke-dasharray:none;stroke-opacity:1"
         d="m 6.6099328,2.2942951 v 0.2482462 l 0.081649,0.048059 v 0.5296834 h -0.094568 c -0.020124,0 -0.036173,0.016049 -0.036173,0.036173 v 0.250114 c 0,0.020124 0.016049,0.036174 0.036173,0.036174 h 0.094568 v 0.7079671 c 0,0.020124 0.016049,0.036174 0.036174,0.036174 h 0.6914306 c 0.020124,0 0.036174,-0.016049 0.036174,-0.036174 V 4.0390902 h 0.2542481 c 0.020124,0 0.03669,-0.016049 0.03669,-0.036173 v -0.073897 h 0.12299 c 0.020124,0 0.03669,-0.016049 0.03669,-0.036173 V 2.6758665 c 0,-0.020124 -0.016566,-0.03669 -0.03669,-0.03669 H 7.8439665 L 7.8158985,1.9819774 Z" /><g
         id="g5"
         transform="translate(-0.02422669,4.2149123)"><path
           id="path6-4"
           style="fill:#d8d8d8;fill-opacity:1;stroke:none;stroke-width:0.129733;stroke-linecap:round;stroke-linejoin:round;stroke-miterlimit:2;stroke-dasharray:none;stroke-opacity:1"
           d="m 4.6074707,-2.2226034 c 0.1701748,0.433192 0.1891638,0.5031964 -0.1638143,0.8009847 l -0.2868042,0.2676839 c -0.065413,0.063097 -0.1221287,0.1457787 -0.1782837,0.23047698 l 0.6252849,0.3379638 0.6056477,-0.88780118 c 0.034365,-0.035805 0.051711,-0.081121 0.1751831,-0.070797 V -1.9699057 -2.153357 Z" /><path
           style="fill:none;fill-opacity:1;stroke:#d8d8d8;stroke-width:0.0648662;stroke-linecap:round;stroke-linejoin:round;stroke-miterlimit:2;stroke-dasharray:none;stroke-opacity:1"
           d="m 5.3482835,-1.5841584 c 0.023267,0.038357 0.1089432,0.082493 0.1572471,0.083295 h 0.3831369 c 0.2563267,-0.011322 0.2397431,-0.247367 0.1433825,-0.4654064 -0.01702,-0.034286 -0.007,-0.063053 -0.00705,-0.102996"
           id="path39" /></g><path
         id="path5-3"
         style="display:inline;fill:#d8d8d8;fill-opacity:1;stroke:none;stroke-width:0.129733;stroke-linecap:round;stroke-linejoin:round;stroke-miterlimit:2;stroke-dasharray:none;stroke-opacity:1"
         d="m 3.8850954,1.0700772 c -0.1091299,0.031937 -0.215957,0.065196 -0.3136759,0.1023193 -0.098199,0.036465 -0.1878225,0.076922 -0.2614828,0.1245402 -0.016502,0.00732 -0.034182,0.014577 -0.05271,0.021704 -0.5860053,0.2171872 -2.0729138,0.3402081 -2.31923832,0.2547649 -0.16665445,-0.067853 -0.3046412,-0.076158 -0.43666585,-0.06873 -0.14685498,-0.0061 -0.28361996,0.00298 -0.41031087,-0.00207 l 0.00155,0.029972 h -0.12764079 c 0.088193,0.518402 0.10940352,1.0339869 0.09973552,1.5921509 0.0081449,0.068589 0.0407387,0.088967 0.10490316,0.076998 v 0.0031 c 0.005866,-0.0022 0.0107193,-0.00402 0.0165364,-0.0062 0.0770393,-0.028927 0.14946531,-0.056221 0.21859131,-0.083199 0.007631,-0.00295 0.0162216,-0.00638 0.0237712,-0.0093 h 5.1677e-4 c 0.006012,-0.00236 0.0110968,-0.00438 0.0170532,-0.00672 C 1.6706756,2.6235598 1.826531,2.4335252 3.8850954,1.8757128 Z" /><rect
         style="display:inline;fill:#d8d8d8;fill-opacity:1;stroke:none;stroke-width:0.129428;stroke-linecap:round;stroke-linejoin:round;stroke-miterlimit:2;stroke-dasharray:none;stroke-opacity:1"
         id="rect3-5"
         width="3.509263"
         height="0.81798553"
         x="8.6380939"
         y="0.83940333"
         rx="0"
         ry="0" /><rect
         style="display:inline;fill:none;stroke:none;stroke-width:0.129733;stroke-linecap:round;stroke-linejoin:round;stroke-miterlimit:2;stroke-dasharray:none;stroke-opacity:1"
         id="rect3"
         width="3.5257995"
         height="0.81798553"
         x="8.5752735"
         y="0.84512699"
         rx="0.036325194"
         ry="0.036325194" /><g
         id="g6"
         transform="translate(0.01085244,4.2032193)"><path
           style="fill:#d8d8d8;fill-opacity:1;stroke:none;stroke-width:0.0648662;stroke-linecap:round;stroke-linejoin:round;stroke-miterlimit:2;stroke-dasharray:none;stroke-opacity:1"
           d="m 5.7792187,-2.2085626 v 0.1339805 c -0.060661,0.1477348 -0.1780572,0.2976516 -0.08697,0.4395497 -0.043216,-0.077135 -0.081047,-0.1589811 -0.074852,-0.2793507 v -0.2941795 z"
           id="path40" /><path
           style="display:inline;fill:#d8d8d8;fill-opacity:1;stroke:none;stroke-width:0.129733;stroke-linecap:round;stroke-linejoin:round;stroke-miterlimit:2;stroke-dasharray:none;stroke-opacity:1"
           d="M 3.9720329,-2.3457891 6.3283071,-2.1330434 6.2990745,-2.2918609 5.8295432,-2.5658352 H 4.3662628 v -0.6383946 l -0.3942299,0.073201 z"
           id="path1-5" /><path
           style="display:inline;fill:#d8d8d8;fill-opacity:1;stroke:none;stroke-width:0.131026;stroke-linecap:round;stroke-linejoin:round;stroke-miterlimit:2;stroke-dasharray:none;stroke-opacity:1"
           d="m 4.3189712,-3.1877908 h 3.554716 v -0.050592 h 0.3164846 v 0.6821289 H 7.8588186 l -0.062041,0.2594225 -1.2220127,0.312318 H 6.2908062 V -2.2835926 L 6.1289539,-2.2382299 5.8115563,-2.5493962 H 4.3189712 Z"
           id="path2-0" /><path
           style="display:inline;fill:#d8d8d8;fill-opacity:1;stroke:none;stroke-width:0.0501747;stroke-linecap:round;stroke-linejoin:round;stroke-miterlimit:2;stroke-dasharray:none;stroke-opacity:1"
           d="m 7.9289903,-3.1220446 h 0.2209502 v -0.1023941 c -0.064216,0.0042 -0.2230383,-0.063032 -0.2233013,-8.397e-4 z"
           id="path21-3-0-8" /><path
           style="fill:#d8d8d8;fill-opacity:1;stroke:none;stroke-width:0.0648662;stroke-linecap:round;stroke-linejoin:round;stroke-miterlimit:2;stroke-dasharray:none;stroke-opacity:1"
           d="m 6.286027,-2.0228817 v 0.1433819 h 0.054062 v -0.051711 h 0.1222273 v 0.054062 h 0.058943 v -0.159836 z"
           id="path38" /><path
           style="fill:#d8d8d8;fill-opacity:1;stroke:none;stroke-width:0.129733;stroke-linecap:round;stroke-linejoin:round;stroke-miterlimit:2;stroke-dasharray:none;stroke-opacity:1"
           d="m 8.1814637,-3.193126 h 0.3650436 v 0.6837985 H 8.361958 v -0.053187 H 8.1814637 Z"
           id="path3" /><g
           id="g27"
           transform="matrix(0.0612911,0,0,0.0612911,-0.05903114,-12.006392)"
           style="fill:#d8d8d8;fill-opacity:1;stroke:none"><path
             style="fill:#d8d8d8;fill-opacity:1;stroke:none;stroke-width:1.05833;stroke-linecap:round;stroke-linejoin:round;stroke-miterlimit:2;stroke-dasharray:none;stroke-opacity:1"
             d="m 65.655741,147.18851 6.596254,-1.53401 v -2.83792 l -6.519553,1.53401 z"
             id="path23" /><path
             style="fill:#d8d8d8;fill-opacity:1;stroke:none;stroke-width:1.05833;stroke-linecap:round;stroke-linejoin:round;stroke-miterlimit:2;stroke-dasharray:none;stroke-opacity:1"
             d="m 65.655741,147.18851 6.596254,-2.06318 v -2.83792 l -6.519553,2.06318 z"
             id="path23-6" /></g><path
           style="fill:none;fill-opacity:1;stroke:#d8d8d8;stroke-width:0.0648662;stroke-linecap:square;stroke-linejoin:miter;stroke-miterlimit:2;stroke-dasharray:none;stroke-opacity:1"
           d="M 4.0471482,-3.2289387 V -3.5204049"
           id="path26" /><path
           style="fill:#d8d8d8;fill-opacity:1;stroke:none;stroke-width:0.0648662;stroke-linecap:round;stroke-linejoin:round;stroke-miterlimit:2;stroke-dasharray:none;stroke-opacity:1"
           d="m 4.0111899,-3.0200629 h 0.1809907 l -0.039959,-0.202146 c -0.036238,-0.039182 -0.1653634,-0.1016808 -0.1598362,0.0094 z"
           id="path24" /></g><g
         id="g8"
         transform="translate(0.05762461,4.2032193)"><path
           style="fill:#dadada;fill-opacity:1;stroke:none;stroke-width:0.0870287;stroke-linecap:square;stroke-linejoin:round;stroke-miterlimit:2;stroke-dasharray:none;stroke-opacity:1"
           d="m 12.769245,-3.3156041 h 0.315362 v 0.2869801 h -0.309055 z"
           id="path27" /><path
           style="display:inline;fill:#dadada;fill-opacity:1;stroke:none;stroke-width:0.129733;stroke-linecap:round;stroke-linejoin:round;stroke-miterlimit:2;stroke-dasharray:none;stroke-opacity:1"
           d="m 12.163076,-2.6140578 h 0.709862 v -0.4466013 -0.2115481 h -0.34788 l -0.05641,-0.056413 h -0.169239 v 0.051712 h -0.136333 z"
           id="path4-1" /><path
           style="display:inline;fill:none;fill-opacity:1;stroke:none;stroke-width:0.129733;stroke-linecap:round;stroke-linejoin:round;stroke-miterlimit:2;stroke-dasharray:none;stroke-opacity:1"
           d="m 12.12755,-2.6341282 h 0.709861 v -0.4466013 -0.211548 h -0.347879 l -0.05641,-0.056413 h -0.169238 v 0.051712 h -0.136331 z"
           id="path4" /><path
           style="fill:#dadada;fill-opacity:1;stroke:none;stroke-width:0.174495;stroke-linecap:round;stroke-linejoin:round;stroke-miterlimit:2;stroke-dasharray:none;stroke-opacity:1"
           d="M 12.52881,-3.2273145 V -3.568763 c 0.08081,-0.062737 0.167999,-0.085551 0.272532,0 v 0.3414485 z"
           id="path17" /><path
           style="fill:#464646;fill-opacity:1;stroke:#dadada;stroke-width:0.0648662;stroke-linecap:round;stroke-linejoin:round;stroke-miterlimit:2;stroke-dasharray:none;stroke-opacity:1"
           d="m 13.062191,-3.2533654 h 0.06817 c 7.54e-4,-0.034721 -0.03176,-0.02456 -0.06623,-0.029926 z"
           id="path28" /><path
           style="fill:#464646;fill-opacity:1;stroke:#dadada;stroke-width:0.0648662;stroke-linecap:round;stroke-linejoin:round;stroke-miterlimit:2;stroke-dasharray:none;stroke-opacity:1"
           d="m 13.058613,-3.0854625 h 0.06817 c 7.53e-4,0.034721 -0.03757,0.01904 -0.07204,0.024406 z"
           id="path28-1" /></g><g
         id="g9"
         transform="translate(0.0810107,4.2032193)"><rect
           style="fill:#d9d9d9;fill-opacity:1;stroke:none;stroke-width:0.125485;stroke-linecap:round;stroke-linejoin:round;stroke-miterlimit:2;stroke-dasharray:none;stroke-opacity:1"
           id="rect28"
           width="2.5525835"
           height="0.16329974"
           x="12.990449"
           y="-2.8586075"
           rx="0.033206817"
           ry="0.037176702" /><rect
           style="fill:#d9d9d9;fill-opacity:1;stroke:none;stroke-width:0.129733;stroke-linecap:round;stroke-linejoin:round;stroke-miterlimit:2;stroke-dasharray:none;stroke-opacity:1"
           id="rect29"
           width="1.0105432"
           height="0.2393392"
           x="15.449953"
           y="-2.8966277"
           rx="0.036325194"
           ry="0.036325194" /><g
           id="g1"
           transform="translate(0.01636434,0.01653646)"><rect
             style="fill:none;fill-opacity:1;stroke:none;stroke-width:0.0648662;stroke-linecap:round;stroke-linejoin:round;stroke-miterlimit:2;stroke-dasharray:none;stroke-opacity:1"
             id="rect30"
             width="1.1117753"
             height="0.20760489"
             x="16.374081"
             y="-2.8989599"
             rx="0.036325194"
             ry="0.036325194" /><path
             style="fill:#d9d9d9;fill-opacity:1;stroke:none;stroke-width:1.05833;stroke-linecap:round;stroke-linejoin:round;stroke-miterlimit:2;stroke-dasharray:none;stroke-opacity:1"
             d="m 284.25382,158.32763 c -0.15988,-0.58768 -1.67598,0.45533 -1.67598,9.55087 v -12.2306 l 1.69359,5e-5 1.69344,0.0222 -0.16073,12.22954 c 0.11953,-9.09475 -1.38273,-10.15759 -1.55032,-9.57207 z"
             id="path30-4"
             transform="matrix(0,0.0612911,0.0612911,0,6.8711243,-20.218461)" /><path
             style="fill:#d9d9d9;fill-opacity:1;stroke:none;stroke-width:1.05833;stroke-linecap:round;stroke-linejoin:round;stroke-miterlimit:2;stroke-dasharray:none;stroke-opacity:1"
             d="m 284.25398,158.30381 c -0.15904,-0.77073 -1.67614,-0.86203 -1.67614,8.38232 V 155.6479 l 1.69359,5e-5 1.69344,0.0222 -0.14506,11.03727 c 0.12149,-9.24355 -1.39668,-9.1722 -1.56583,-8.40362 z"
             id="path30-4-0"
             transform="matrix(0,0.0612911,-0.0612911,0,27.024386,-20.218461)" /><path
             style="fill:#464646;fill-opacity:1;stroke:#d8d8d8;stroke-width:0.0648662;stroke-linecap:round;stroke-linejoin:round;stroke-miterlimit:2;stroke-dasharray:none;stroke-opacity:1"
             d="M 16.572201,-2.7962125 H 17.32331"
             id="path30" /><rect
             style="fill:#d9d9d9;fill-opacity:1;stroke:none;stroke-width:0.0648662;stroke-linecap:round;stroke-linejoin:round;stroke-miterlimit:2;stroke-dasharray:none;stroke-opacity:1"
             id="rect31"
             width="0.07313142"
             height="0.18615273"
             x="17.442917"
             y="-2.8932195"
             rx="0.036325194"
             ry="0.036325194" /></g><rect
           style="fill:#dadada;fill-opacity:1;stroke:none;stroke-width:0.0699593;stroke-linecap:round;stroke-linejoin:round;stroke-miterlimit:2;stroke-dasharray:none;stroke-opacity:1"
           id="rect32"
           width="0.1290658"
           height="0.40153804"
           x="12.925483"
           y="-2.9777267"
           rx="0.039177369"
           ry="0.039177369" /></g><g
         id="g7"
         transform="translate(0.01912067,4.2032193)"><path
           style="fill:#d8d8d8;fill-opacity:1;stroke:none;stroke-width:0.0648662;stroke-linecap:round;stroke-linejoin:round;stroke-miterlimit:2;stroke-dasharray:none;stroke-opacity:1"
           d="m 8.0493875,-3.9101997 -0.1196696,0.019945 c -0.1486683,-0.089915 -0.2629977,-0.038659 -0.3723055,0.033242 -0.091695,-0.082723 -0.2075923,-0.1009109 -0.3656572,-0.00665 -0.1200821,-0.080144 -0.2344776,-0.063616 -0.3457124,0.00665 -0.099767,-0.065794 -0.2038401,-0.060522 -0.3124706,0.019945 v -0.2725811 c -8.703e-4,-0.03146 -0.00606,-0.06508 0.053187,-0.066483 l 1.276476,-0.026594 c 0.16671,-0.0065 0.1641137,0.052525 0.1728562,0.099725 z"
           id="path33-8" /><path
           style="fill:#d8d8d8;fill-opacity:1;fill-rule:evenodd;stroke:none;stroke-width:1.05833;stroke-linecap:round;stroke-linejoin:round;stroke-miterlimit:29;stroke-opacity:1"
           d="m 7.9541917,-3.8470107 c 0,0 0.070158,0.2660166 0.00292,0.5583428 h 0.087701 c 0,0 0.061388,-0.2133981 0,-0.5671126 z"
           id="path5" /></g><path
         d="m 19.97629,0.82725786 -2.244624,0.46553364 0.1432,0.042538 -0.1432,0.087201 0.110168,0.070185 -0.110168,0.063806 2.135006,0.4453571 -0.297459,-0.2024254 0.565294,-0.1009399 -0.782074,-0.2289578 1.032846,-0.2708121 -0.983942,-0.052084 z"
         fill="#d9d9d9"
         id="path1-3"
         style="fill:#dadada;fill-opacity:1;stroke-width:0.259736" /><path
         d="m 18.221905,0.22239831 -0.882617,1.02804979 -0.245973,-0.040874 -0.25404,0.040874 -0.844365,-0.97784393 0.813033,0.51431764 -0.237875,-0.63698783 0.463691,0.58299855 0.483835,-0.6978534 -0.182497,0.79807539 z"
         fill="#d9d9d9"
         id="path1-3-8-8"
         style="fill:#dadada;fill-opacity:1;stroke-width:0.242034" /><path
         d="m 18.327142,2.6769947 -0.966033,-1.0280498 -0.26922,0.040874 -0.27805,-0.040874 -0.924166,0.9778439 0.889873,-0.5143176 -0.260357,0.6369878 0.507515,-0.5829985 0.529562,0.6978534 -0.199744,-0.7980754 z"
         fill="#d9d9d9"
         id="path1-3-8-8-5"
         style="fill:#dadada;fill-opacity:1;stroke-width:0.253213" /></g></g></svg>
