<svg width="39" height="17" viewBox="0 0 39 17" fill="none" xmlns="http://www.w3.org/2000/svg">
<rect x="22.5352" y="5.67383" width="5.44393" height="0.44569" fill="url(#paint0_linear_1354_91)"/>
<circle cx="28.2706" cy="5.89658" r="0.369239" fill="#D9D9D9"/>
<rect x="25.6992" y="6.69727" width="5.44393" height="0.44569" fill="url(#paint1_linear_1354_91)"/>
<circle cx="31.4347" cy="6.92002" r="0.369239" fill="#D9D9D9"/>
<rect x="28.8633" y="5.67383" width="5.44393" height="0.44569" fill="url(#paint2_linear_1354_91)"/>
<circle cx="34.5987" cy="5.89658" r="0.369239" fill="#D9D9D9"/>
<rect x="32.0283" y="6.69727" width="5.44393" height="0.44569" fill="url(#paint3_linear_1354_91)"/>
<circle cx="37.7638" cy="6.92002" r="0.369239" fill="#D9D9D9"/>
<path d="M8.69139 0.425781H9.94928L10.2613 0.636739H10.3332V0.776698H10.2951V0.78587H10.1867V3.45823C9.49813 3.52704 9.01521 3.5213 8.28893 3.44073V1.12738L8.3037 1.11318H8.34548V0.776698H8.30731V0.636739H8.37937L8.69139 0.425781Z" fill="#D9D9D9"/>
<path d="M7.94106 1.13373V3.60951H8.0107V4.30081H8.24981V4.08884H8.65011L8.65014 4.30074L9.0384 4.30081V4.08884H9.4387L9.43872 4.30074H9.82699L9.82699 4.08884H10.2273L10.2273 4.30074L10.4648 4.30081V3.60951H10.5345L10.5345 1.13373H11.8952V3.60951H11.9648V4.19737L12.0532 4.25716L12.0532 4.59364L6.43651 4.59364L6.4365 4.26599L6.51069 4.21028V3.60951H6.58033L6.58034 1.13373H7.94106Z" fill="#D9D9D9"/>
<path d="M6.23248 1.3243H5.46613V1.35522H5.15203V1.13373H4.89454V1.21628L3.38063 0.979333H0.738948V3.68798H3.38063L4.89454 3.45104V3.53342H5.15203V3.3121H5.46613V3.34284H6.23248V1.3243Z" fill="#D9D9D9"/>
<path d="M12.2431 3.34284H13.319L15.6738 3.72756H17.7381V0.939757H15.6738L13.319 1.3243H12.2431V3.34284Z" fill="#D9D9D9"/>
<path d="M8.02998 4.9415L11.4683 8.18702L11.4307 8.73904L11.4307 9.19224L11.6668 9.3694H12.4624V9.15742H12.8258V9.3694H13.2261V9.15742H13.6161V9.3694H14.0164V9.15742H14.34V9.3694H14.7403L14.989 9.20108L14.9891 9.15742V8.73901L15.0848 8.18702L12.2527 5.30244C12.231 5.28029 12.2115 5.25627 12.1945 5.23073C12.1551 5.17134 12.1289 5.1037 12.1183 5.03242L12.1048 4.9415H10.8347L13.2697 7.14468L13.3044 7.1766C13.3183 7.18943 13.3308 7.20288 13.342 7.21685C13.3572 7.2358 13.3698 7.25569 13.3801 7.2762C13.4107 7.33712 13.4205 7.40357 13.4125 7.46737C13.4018 7.55339 13.3589 7.63461 13.2918 7.69103C13.2351 7.73865 13.161 7.76861 13.0744 7.76889L12.055 7.76889C12.0414 7.76889 12.0278 7.76804 12.0145 7.76636C11.9424 7.75732 11.875 7.72433 11.8235 7.67207L9.5984 5.41537C9.5843 5.40107 9.57198 5.38604 9.56135 5.37048C9.53547 5.33251 9.51968 5.29128 9.51284 5.24961L9.51197 5.24409L9.51151 5.24078C9.4964 5.12548 9.54888 5.0069 9.6458 4.9415H8.02998Z" fill="#D9D9D9"/>
<path d="M14.7686 7.36853L15.458 8.07062L15.3862 8.48481C15.5479 8.4772 15.6937 8.46888 15.8181 8.45984C15.9261 8.45202 16.1099 8.42621 16.1099 8.23648C16.1099 8.21338 16.1317 8.20623 16.155 8.19876C16.178 8.19129 16.2027 8.1833 16.2092 8.15852C16.2798 7.89 16.2763 7.73012 16.2711 7.48998L16.2688 7.36853H14.7686Z" fill="#D9D9D9"/>
<path d="M16.2717 7.02067H14.4271L13.0167 5.58439L15.3158 5.56486L15.4226 5.29343C15.4325 5.26456 15.4596 5.2452 15.4901 5.2452H15.6852C15.6999 5.2452 15.714 5.25165 15.7237 5.26269L15.9383 5.54567L15.9538 5.54533L16.123 5.54227C16.1786 5.54125 16.2161 5.57352 16.2394 5.62091C16.2468 5.63586 16.2527 5.65233 16.2573 5.66983C16.2665 5.70448 16.2707 5.74287 16.2707 5.7804L16.2712 5.82898H16.2717V7.02067Z" fill="#D9D9D9"/>
<path d="M16.6196 7.23078H22.3619C22.4302 7.23078 22.4893 7.19137 22.5178 7.13413C22.5294 7.11086 22.5359 7.08471 22.5359 7.05685V5.67323C22.5359 5.57709 22.458 5.4993 22.3619 5.4993H16.6196V7.23078Z" fill="#D9D9D9"/>
<path d="M9.72588 7.02067L8.2609 5.63773L7.42293 5.64605C7.41201 5.64605 7.40653 5.64894 7.40212 5.65165C7.39847 5.65403 7.39367 5.65692 7.38798 5.65692H7.32598C7.32598 5.6294 7.27337 5.61259 7.20415 5.61259L2.53413 5.60376L2.4388 5.26999H2.1709L2.02869 5.60291L1.51 5.60189C1.37046 5.60189 1.34354 5.75391 1.34354 5.80775L1.33535 7.02067H5.73157V7.24403H5.99004V7.10798H7.18793L7.33902 7.02067H9.72588Z" fill="#D9D9D9"/>
<path fill-rule="evenodd" clip-rule="evenodd" d="M11.1101 8.32726L10.0944 7.36853H7.43231L7.28123 7.45583H6.3379V7.59189H5.50588L5.38371 7.46518V7.36853H1.33293V7.46093C1.17959 7.46093 1.15021 7.62144 1.15148 7.77227C1.15275 7.9231 1.25467 7.96438 1.30613 7.96913C1.81814 8.01599 1.96435 8.12841 2.15688 8.27657C2.54661 8.57347 2.64954 9.12277 2.50954 9.66698C2.34648 10.3006 2.04662 10.9323 1.82693 11.3951L1.79926 11.4535C1.73742 11.5837 1.63321 11.7704 1.50778 11.9951C1.02721 12.8558 0.235255 14.2741 0.323148 15.2195C0.507226 15.4094 0.630115 15.5074 0.888505 15.6334C0.89118 15.6647 0.896276 15.6901 0.904683 15.7107C0.923792 15.7574 0.960013 15.7792 1.02362 15.7875L1.02515 15.7876C1.12634 15.7958 4.03363 15.7822 4.49733 15.7265C4.52464 15.7233 4.54353 15.7197 4.55279 15.7161L4.55534 15.7151C4.7691 15.6093 4.8133 15.4296 4.79118 14.956L6.12988 11.3524C6.32196 10.8023 6.43402 10.755 6.57128 10.6971C6.70067 10.6423 6.80632 10.6328 6.95566 10.6971L7.1633 10.7985C7.34067 10.875 7.51401 10.938 7.70717 10.9363L10.5405 10.9103C10.7795 10.9159 10.8678 10.8369 10.7904 10.6285C10.7064 10.4023 10.6184 10.1473 10.6184 9.90614V9.36278C10.6184 9.04697 10.8132 8.76799 11.0885 8.64539L11.1101 8.32726ZM9.44286 8.61848H9.04927L8.77993 8.66978L8.70851 8.68393C8.63953 8.69795 8.57322 8.71142 8.50472 8.71767C8.46638 8.72107 8.42731 8.72243 8.38671 8.72039H8.08769C8.08068 9.02324 8.10064 9.26103 8.15775 9.47386C8.21958 9.54282 8.28064 9.60991 8.34434 9.67904C8.46018 9.80473 8.58464 9.93654 8.73784 10.0972C8.75971 10.1202 8.7674 10.155 8.76787 10.1908C8.76829 10.2207 8.76362 10.2513 8.75797 10.2764C8.7477 10.3219 8.70154 10.3479 8.67338 10.3374L8.63402 10.3224C8.65474 10.3605 8.64617 10.4033 8.62048 10.4306C8.59385 10.459 8.5482 10.4702 8.51007 10.4548C8.10149 10.2903 7.8597 10.1439 7.66917 9.85263L7.55066 9.78469L7.53252 9.77416L7.51826 9.58715L7.06538 9.46044L7.12322 9.35768C7.08623 9.33526 7.05112 9.3091 7.01621 9.27802C6.83506 9.58104 6.82521 9.95234 7.06445 10.2316C7.23885 10.4352 7.50178 10.5645 7.76989 10.5645H9.46329C9.90274 10.5645 10.259 10.2083 10.259 9.7689V9.43462C10.259 8.984 9.89357 8.61848 9.44286 8.61848ZM8.73381 8.21644L8.94596 8.25958L8.92124 8.32497L8.73381 8.21644ZM8.69589 8.29423L8.91594 8.33907L8.9023 8.37491C8.89636 8.39071 8.87869 8.39869 8.86286 8.39274L8.71283 8.33601C8.69699 8.33007 8.68905 8.3124 8.695 8.29661L8.69589 8.29423ZM8.90252 8.32582L8.69954 8.28455L8.72319 8.22204L8.90252 8.32582ZM8.93262 8.2465L8.72956 8.20523L8.74443 8.16599L8.88698 8.22L8.93262 8.2465Z" fill="#D9D9D9"/>
<path d="M1.13114 16.2899C1.13114 16.2605 1.15343 16.1992 1.18464 16.1375H1.18906C1.28817 16.1379 1.42537 16.1377 1.58783 16.137C1.9128 16.1358 2.34071 16.1326 2.7706 16.1272C3.20008 16.1216 3.63338 16.1138 3.9685 16.1031L4.10442 16.0983L4.18761 16.0951C4.26408 16.0919 4.33253 16.0883 4.39079 16.0845C4.44506 16.0811 4.49462 16.0771 4.53517 16.0723C4.55135 16.0704 4.5691 16.0681 4.5868 16.065C4.56383 16.0947 4.53721 16.1224 4.50744 16.1481C4.35674 16.2777 4.13185 16.3952 3.77304 16.3723L1.26932 16.4258C1.16456 16.4258 1.13114 16.341 1.13114 16.2899Z" fill="#D9D9D9"/>
<path d="M12.0128 7.36856L10.2766 5.6077L11.0802 5.60087L12.9993 7.36856H12.0128Z" fill="#D9D9D9"/>
<defs>
<linearGradient id="paint0_linear_1354_91" x1="27.9791" y1="5.89667" x2="22.5352" y2="5.89667" gradientUnits="userSpaceOnUse">
<stop stop-color="#D9D9D9" stop-opacity="0.5"/>
<stop offset="1" stop-color="#D9D9D9" stop-opacity="0"/>
</linearGradient>
<linearGradient id="paint1_linear_1354_91" x1="31.1432" y1="6.92011" x2="25.6992" y2="6.92011" gradientUnits="userSpaceOnUse">
<stop stop-color="#D9D9D9" stop-opacity="0.5"/>
<stop offset="1" stop-color="#D9D9D9" stop-opacity="0"/>
</linearGradient>
<linearGradient id="paint2_linear_1354_91" x1="34.3072" y1="5.89667" x2="28.8633" y2="5.89667" gradientUnits="userSpaceOnUse">
<stop stop-color="#D9D9D9" stop-opacity="0.5"/>
<stop offset="1" stop-color="#D9D9D9" stop-opacity="0"/>
</linearGradient>
<linearGradient id="paint3_linear_1354_91" x1="37.4723" y1="6.92011" x2="32.0283" y2="6.92011" gradientUnits="userSpaceOnUse">
<stop stop-color="#D9D9D9" stop-opacity="0.5"/>
<stop offset="1" stop-color="#D9D9D9" stop-opacity="0"/>
</linearGradient>
</defs>
</svg>
