<?xml version="1.0" encoding="UTF-8" standalone="no"?>
<svg
   width="35.662579"
   height="15.99997"
   viewBox="0 0 35.662579 15.99997"
   fill="none"
   version="1.1"
   id="svg27"
   sodipodi:docname="heap_sword_killfeed.svg"
   inkscape:version="1.4 (e7c3feb1, 2024-10-09)"
   xmlns:inkscape="http://www.inkscape.org/namespaces/inkscape"
   xmlns:sodipodi="http://sodipodi.sourceforge.net/DTD/sodipodi-0.dtd"
   xmlns="http://www.w3.org/2000/svg"
   xmlns:svg="http://www.w3.org/2000/svg">
  <sodipodi:namedview
     id="namedview27"
     pagecolor="#ffffff"
     bordercolor="#000000"
     borderopacity="0.25"
     inkscape:showpageshadow="2"
     inkscape:pageopacity="0.0"
     inkscape:pagecheckerboard="0"
     inkscape:deskcolor="#d1d1d1"
     inkscape:zoom="7.5045389"
     inkscape:cx="17.32285"
     inkscape:cy="0.7328898"
     inkscape:window-width="1472"
     inkscape:window-height="812"
     inkscape:window-x="0"
     inkscape:window-y="37"
     inkscape:window-maximized="1"
     inkscape:current-layer="svg27" />
  <path
     fill-rule="evenodd"
     clip-rule="evenodd"
     d="m 22.191578,4.07497 c 0.3555,-0.09525 0.7342,-0.04539 1.0529,0.13863 0.3188,0.18401 0.5513,0.4871 0.6466,0.84258 l -1.3404,0.35915 z"
     fill="url(#paint0_radial_544_63)"
     id="path1"
     style="fill:url(#paint0_radial_544_63)" />
  <path
     fill-rule="evenodd"
     clip-rule="evenodd"
     d="m 22.191578,4.07497 c 0.3555,-0.09525 0.7342,-0.04539 1.0529,0.13863 0.3188,0.18401 0.5513,0.4871 0.6466,0.84258 l -1.3404,0.35915 z"
     fill="url(#paint1_angular_544_63)"
     id="path2"
     style="fill:url(#paint1_angular_544_63)" />
  <path
     fill-rule="evenodd"
     clip-rule="evenodd"
     d="m 23.891078,5.05615 c 0.0952,0.35549 0.0453,0.73425 -0.1387,1.05297 -0.184,0.31872 -0.4871,0.55129 -0.8426,0.64654 l -0.3591,-1.34036 z"
     fill="url(#paint2_radial_544_63)"
     id="path3"
     style="fill:url(#paint2_radial_544_63)" />
  <path
     fill-rule="evenodd"
     clip-rule="evenodd"
     d="m 23.891078,5.05615 c 0.0952,0.35549 0.0453,0.73425 -0.1387,1.05297 -0.184,0.31872 -0.4871,0.55129 -0.8426,0.64654 l -0.3591,-1.34036 z"
     fill="url(#paint3_angular_544_63)"
     id="path4"
     style="fill:url(#paint3_angular_544_63)" />
  <path
     fill-rule="evenodd"
     clip-rule="evenodd"
     d="m 22.191478,4.07471 0.7183,2.68072 -16.3783104,4.38854 -0.7183,-2.68072 z"
     fill="url(#paint4_linear_544_63)"
     id="path5"
     style="fill:url(#paint4_linear_544_63)" />
  <path
     d="m 5.6729576,8.30198 c 0.04459,-0.02152 0.09773,0.00283 0.11055,0.05064 l 0.81531,3.04285 c 0.01281,0.0478 -0.02104,0.0954 -0.0704,0.0991 l 0.17905,0.1846 0.91797,0.0679 -1.16604,0.163 -0.33758,-0.3854 -1.03549,0.0767 c -0.0378,0.0028 -0.07226,-0.0217 -0.08207,-0.0583 l -0.01093,-0.0408 -0.4683,-0.5281 c 0.00846,0.0316 0.00672,0.0635 -0.0032,0.0922 -0.00867,0.0251 -0.02359,0.0478 -0.04342,0.0658 -0.01797,0.0163 -0.03997,0.0286 -0.065,0.0353 l -3.88785003,1.0417 c -0.0842,0.0226 -0.170754,-0.0274 -0.193317,-0.1116 l -0.326823,-1.2197 c -0.01132,-0.0422 -0.004382,-0.0851 0.015978,-0.1201 0.020219,-0.0348 0.053678,-0.062 0.095639,-0.0732 l 1.67560303,-0.449 c -0.06085,-0.0495 -0.0295,-0.1385 0.04043,-0.1434 l 0.66973,-0.0469 1.50209,-0.4024 c 0.0842,-0.0226 0.17075,0.0274 0.19331,0.1116 l 0.14151,-0.69155 -0.01095,-0.04086 c -0.00981,-0.03661 0.00779,-0.07503 0.04193,-0.0915 l 0.93509,-0.45135 0.09965,-0.50253 1.0913,-0.4419 -0.76104,0.51778 z"
     fill="#d9d9d9"
     id="path6" />
  <path
     d="m 22.434078,7.90862 c 2.3152,-0.63683 2.9789,-1.37514 2.4916,-3.69884 L 30.871178,0 l -2.9717,4.20978 7.7631,1.48981 -6.9434,2.20903 5.3508,5.21435 -6.5672,-2.6902 0.655,5.5672 -3.0523,-3.776 -3.8249,2.4193 z"
     fill="#d9d9d9"
     id="path7" />
  <path
     d="m 22.434078,7.90862 c 2.3152,-0.63683 2.9789,-1.37514 2.4916,-3.69884 L 30.871178,0 l -2.9717,4.20978 7.7631,1.48981 -6.9434,2.20903 5.3508,5.21435 -6.5672,-2.6902 0.655,5.5672 -3.0523,-3.776 -3.8249,2.4193 z"
     fill="url(#paint5_radial_544_63)"
     fill-opacity="0.5"
     id="path8"
     style="fill:url(#paint5_radial_544_63)" />
  <defs
     id="defs27">
    <radialGradient
       id="paint0_radial_544_63"
       cx="0"
       cy="0"
       r="1"
       gradientUnits="userSpaceOnUse"
       gradientTransform="matrix(0.3882648,1.449024,-1.4430835,0.38667307,22.550678,5.41533)">
      <stop
         stop-color="#CCCCCC"
         id="stop8" />
      <stop
         offset="0.19"
         stop-color="#A8CEF0"
         id="stop9" />
      <stop
         offset="0.56"
         stop-color="#2685D9"
         id="stop10" />
      <stop
         offset="0.93"
         stop-color="#2685D9"
         stop-opacity="0"
         id="stop11" />
    </radialGradient>
    <radialGradient
       id="paint1_angular_544_63"
       cx="0"
       cy="0"
       r="1"
       gradientUnits="userSpaceOnUse"
       gradientTransform="matrix(-0.35914766,-1.3403573,1.3403573,-0.35914766,22.550678,5.41533)">
      <stop
         stop-color="#2685D9"
         stop-opacity="0"
         id="stop12" />
      <stop
         offset="0.249909"
         stop-color="#ABB3BA"
         id="stop13" />
    </radialGradient>
    <radialGradient
       id="paint2_radial_544_63"
       cx="0"
       cy="0"
       r="1"
       gradientUnits="userSpaceOnUse"
       gradientTransform="matrix(0.3882648,1.449024,-1.4430835,0.38667307,22.550678,5.4153)">
      <stop
         stop-color="#CCCCCC"
         id="stop14" />
      <stop
         offset="0.19"
         stop-color="#F0CAA8"
         id="stop15" />
      <stop
         offset="0.56"
         stop-color="#D97A26"
         id="stop16" />
      <stop
         offset="0.93"
         stop-color="#D97A26"
         stop-opacity="0"
         id="stop17" />
    </radialGradient>
    <radialGradient
       id="paint3_angular_544_63"
       cx="0"
       cy="0"
       r="1"
       gradientUnits="userSpaceOnUse"
       gradientTransform="matrix(0.35914766,1.3403573,-1.3403573,0.35914766,22.550678,5.4153)">
      <stop
         stop-color="#D97A26"
         stop-opacity="0"
         id="stop18" />
      <stop
         offset="0.749995"
         stop-color="#BAB2AB"
         id="stop19" />
    </radialGradient>
    <linearGradient
       id="paint4_linear_544_63"
       x1="14.5795"
       y1="6.6469102"
       x2="15.2978"
       y2="9.3276396"
       gradientUnits="userSpaceOnUse"
       gradientTransform="translate(-0.57722243,-0.37793)">
      <stop
         stop-color="#2685D9"
         stop-opacity="0"
         id="stop20" />
      <stop
         offset="0.2"
         stop-color="#2685D9"
         id="stop21" />
      <stop
         offset="0.4"
         stop-color="#A8CEF0"
         id="stop22" />
      <stop
         offset="0.6"
         stop-color="#F0CAA8"
         id="stop23" />
      <stop
         offset="0.8"
         stop-color="#D97A26"
         id="stop24" />
      <stop
         offset="1"
         stop-color="#D97A26"
         stop-opacity="0"
         id="stop25" />
    </linearGradient>
    <radialGradient
       id="paint5_radial_544_63"
       cx="0"
       cy="0"
       r="1"
       gradientUnits="userSpaceOnUse"
       gradientTransform="matrix(7.2662743,6.5580307,-4.9090157,5.4391717,22.938678,5.27535)">
      <stop
         offset="0.289871"
         stop-color="#2685D9"
         id="stop26" />
      <stop
         offset="1"
         stop-color="#D97A26"
         id="stop27" />
    </radialGradient>
  </defs>
</svg>
