<svg width="89" height="17" viewBox="0 0 89 17" fill="none" xmlns="http://www.w3.org/2000/svg">
<path d="M86.7465 0.0527344L76.668 3.03121L77.1498 3.37836L76.668 4.06435L77.2234 4.55118L76.668 4.92737L86.0464 8.22823L83.9012 5.88843L88.7584 4.37622L83.9012 2.89153L86.7465 0.0527344Z" fill="#D9D9D9"/>
<path fill-rule="evenodd" clip-rule="evenodd" d="M61.5036 4.03713C61.4784 4.02588 61.4535 4.01532 61.4291 4.00557C60.632 3.68672 60.1184 3.60989 59.3741 3.51357C59.3108 3.50538 59.2259 3.49641 59.1624 3.49641L41.4865 3.54054C41.4679 3.32814 41.4412 3.08374 41.405 2.87312L67.8614 3.18256L68.075 2.7138L68.2135 2.57058L68.3825 1.97423C68.389 1.95263 68.396 1.93168 68.4035 1.91138C68.5156 1.60683 68.7356 1.44831 68.9601 1.44831H70.406C70.6441 1.44831 70.7397 1.80556 70.6354 2.04103C70.6328 2.04703 70.63 2.05295 70.6271 2.05876L70.7445 2.60346C70.8122 2.64902 70.8264 2.68916 70.8478 2.76312L70.9546 3.21874L70.9835 3.21908L71.3876 3.12197H75.6302C75.7462 3.12197 76.0867 3.33697 76.0867 3.97181C76.0867 4.60663 75.7448 4.81589 75.6302 4.81589H71.3876L70.9835 4.71636L62.4585 4.68629C62.3801 4.60977 62.2953 4.53503 62.2055 4.46369C62.2027 4.46142 62.2 4.45918 62.1973 4.45698C62.1625 4.42835 62.119 4.39573 62.0694 4.3611C61.893 4.23485 61.7014 4.12332 61.5036 4.03713ZM75.5813 3.98222C75.5813 4.14997 75.1708 4.28594 74.6644 4.28594C74.1581 4.28594 73.7476 4.14997 73.7476 3.98222C73.7476 3.8145 74.1581 3.67852 74.6644 3.67852C75.1708 3.67852 75.5813 3.8145 75.5813 3.98222ZM74.6644 3.53594C75.1708 3.53594 75.5813 3.46827 75.5813 3.38479C75.5813 3.30134 75.1708 3.23366 74.6644 3.23366C74.1581 3.23366 73.7476 3.30134 73.7476 3.38479C73.7476 3.46827 74.1581 3.53594 74.6644 3.53594ZM75.5813 4.57969C75.5813 4.66315 75.1708 4.73082 74.6644 4.73082C74.1581 4.73082 73.7476 4.66315 73.7476 4.57969C73.7476 4.49621 74.1581 4.42854 74.6644 4.42854C75.1708 4.42854 75.5813 4.49621 75.5813 4.57969ZM68.9341 2.076C68.7911 2.076 68.6752 2.19191 68.6752 2.3349C68.6752 2.47788 68.7911 2.59379 68.9341 2.59379H70.2206C70.3636 2.59379 70.4795 2.47788 70.4795 2.3349C70.4795 2.19191 70.3636 2.076 70.2206 2.076H68.9341Z" fill="#D9D9D9"/>
<path d="M62.4204 5.07565C62.6077 5.29712 62.7313 5.52626 62.7444 5.71144C62.7764 6.16352 62.5964 6.95565 62.5964 6.95565C62.5796 7.0565 62.5374 7.1555 62.4825 7.24667C62.3331 7.49471 62.0895 7.68476 62.0066 7.69639L41.5211 7.8416C41.5269 7.74075 41.5323 7.6428 41.5372 7.54738C41.6036 6.25529 41.5878 5.42712 41.5313 4.1292C41.528 4.05384 41.5245 3.91384 41.5209 3.83512L59.1438 3.79112C59.2077 3.79949 59.2695 3.8075 59.3297 3.81528C60.0732 3.9115 60.5576 3.97417 61.3202 4.27921C61.3404 4.28729 61.3606 4.2957 61.3807 4.3044C61.5762 4.39157 61.8043 4.53191 61.947 4.63582C61.9715 4.65413 61.9958 4.67276 62.0196 4.69165C62.1154 4.7714 62.2497 4.89755 62.3221 4.96652C62.3566 5.00264 62.3894 5.03909 62.4204 5.07565Z" fill="#D9D9D9"/>
<path d="M41.2264 7.84366L41.2275 7.82467C41.3159 6.29139 41.296 5.43803 41.2271 3.9069C41.2222 3.82496 41.2166 3.71672 41.2069 3.60077C41.1872 3.36563 41.147 3.09023 41.1051 2.8658C41.0775 2.71892 41.0449 2.59631 41.0067 2.52648L40.4161 2.53296L40.4161 2.02732H39.8823V2.2507H39.5402V2.02732H39.0064V2.2507H38.6643V2.02732H38.1305V2.2507H37.7885V2.02732H37.2547V2.2507H36.9125V2.02732H36.3788V2.2507H36.0366V2.02732H35.5028V2.2507H35.1608V2.02732H34.627V2.2507H34.3906V1.30876C34.3906 1.24643 34.3117 1.19746 34.2226 1.16083C34.1986 1.151 33.3709 0.911724 32.8001 0.788826C32.5937 0.744401 32.4611 0.716797 32.3502 0.716797H31.9061C31.7675 0.716797 31.0459 1.13621 31.0459 1.30876V2.2507H30.7813V2.02732H30.2475V2.2507H29.9054V2.02732H29.3716V2.2507H29.0295V2.02732H28.4957V2.66392C27.289 2.82683 26.6057 3.00376 25.618 3.45447C25.6207 3.46223 25.6231 3.46967 25.6252 3.47668L25.631 3.49675L25.7657 4.4305L26.3014 6.44594L26.5236 7.04575C27.1518 7.07985 27.6015 7.07028 28.2646 7.05617C28.3544 7.05426 28.448 7.05227 28.5466 7.05029H30.9472C31.3347 7.06193 31.6204 7.15076 31.7771 7.31464C31.8117 7.35078 31.8431 7.37625 31.8752 7.37625H33.699C33.7055 7.3707 33.712 7.36512 33.7186 7.35953L39.0617 7.3111L40.6531 7.6524H40.9867C40.9895 7.78431 41.0543 7.8444 41.1221 7.8444L41.2264 7.84366Z" fill="#D9D9D9"/>
<path d="M62.7939 7.28861C62.8353 7.20275 62.8744 7.08011 62.8916 6.98271C62.8944 6.96961 62.8978 6.95335 62.9018 6.93432C62.905 6.91892 62.9085 6.90171 62.9123 6.88288C62.9293 6.7988 62.9515 6.68178 62.9728 6.54985C63.014 6.29394 63.0564 5.95354 63.0378 5.69067C63.0254 5.51524 62.9543 5.34216 62.8627 5.18755C62.8422 5.15294 62.8201 5.11839 62.7967 5.08399L65.7951 5.12151C65.873 5.12151 66.2411 5.49323 66.2411 6.21507C66.2411 6.93691 65.8836 7.1917 65.7951 7.1917L62.8969 7.28725C62.8608 7.28851 62.8266 7.289 62.7939 7.28861Z" fill="#D9D9D9"/>
<path d="M21.5794 7.84217C21.4633 7.81029 21.3416 7.79397 21.218 7.80022C21.0995 7.63452 21.0512 7.50353 21.1142 7.17349L21.6742 4.32925C21.7172 4.21087 21.7452 4.15186 21.804 4.06596C21.7982 4.03439 21.8773 3.99895 21.9369 3.98379C21.9454 3.98162 21.9535 3.97986 21.9609 3.97859L25.2675 3.50953C25.3058 3.50424 25.3301 3.51564 25.3429 3.55943L25.4771 4.48947L26.0208 6.53499L26.3669 7.46953C26.7963 7.7763 27.0208 8.00362 27.1935 8.40036C27.2304 8.48531 27.265 8.57802 27.2988 8.68094C27.2882 8.68233 27.2783 8.68383 27.2691 8.68543C27.2191 8.69412 27.1876 8.70614 27.1688 8.72351C27.1669 8.72526 27.1652 8.72706 27.1635 8.72892C27.1495 8.74473 27.1443 8.76461 27.1443 8.78983C27.1443 8.83227 26.9933 8.89188 26.9601 8.90447C26.6652 9.01648 26.3431 9.21355 26.0966 9.4698C25.8166 9.76075 25.6333 10.0908 25.5937 10.3022C25.5731 10.4139 25.5408 10.4736 25.4678 10.5697C25.3667 10.7026 25.2802 11.0257 25.2245 11.3228C25.2095 11.4033 25.203 11.4379 25.1564 11.4995C25.0641 11.6216 24.9929 11.9181 24.9682 12.21C24.96 12.3066 24.9393 12.3443 24.8927 12.4151C24.774 12.5958 24.7362 12.8319 24.7251 13.127C24.7214 13.2267 24.713 13.2771 24.6577 13.3731C24.6023 13.4691 24.5596 13.611 24.5596 13.6977C24.5596 13.6977 24.5599 13.735 24.5611 13.796C24.5646 13.979 24.5755 14.3757 24.607 14.6212C24.6359 14.8459 24.8207 15.1217 24.9464 15.2804C24.9644 15.303 24.9811 15.3233 24.996 15.3407C25.0303 15.3808 25.0403 15.3987 25.0368 15.4292C25.0262 15.5222 24.8743 15.6051 24.7725 15.6143C24.5837 15.6313 23.4089 15.5764 22.462 15.53C22.3267 15.5233 22.196 15.5169 22.0735 15.5108L21.8379 15.4992C21.6189 15.4884 21.442 15.4798 21.3353 15.4754C21.1394 15.4732 20.437 15.4426 20.2187 15.2913C20.1875 15.2697 20.1642 15.2456 20.151 15.2186C20.118 15.1507 20.2019 14.8262 20.2532 14.6577C20.2703 14.6016 20.2838 14.5628 20.2881 14.5566C20.2918 14.5512 20.2981 14.5423 20.3042 14.5335L20.3124 14.5219L20.3197 14.5115C20.4304 14.3539 20.5007 14.238 20.5358 14.0348C20.5441 13.9763 20.541 13.844 20.5365 13.7768C20.5342 13.7434 20.5353 13.6951 20.5449 13.6812C20.6119 13.5848 20.803 13.2166 20.8647 12.8659C20.8688 12.8426 20.8723 12.8193 20.8752 12.7962C20.884 12.7243 20.905 12.6891 20.9401 12.6465C21.0497 12.5133 21.1874 12.2766 21.2682 12.0283C21.2736 12.0118 21.2874 11.9644 21.2924 11.9468C21.3 11.9195 21.3089 11.8983 21.3413 11.8735C21.4165 11.8241 21.4451 11.7121 21.4785 11.5812L21.4785 11.581C21.4809 11.5716 21.4833 11.5622 21.4858 11.5527L21.487 11.5477C21.4943 11.5192 21.4962 11.5122 21.5098 11.4931C21.657 11.2978 21.7444 11.1442 21.8002 10.9405C21.8039 10.9269 21.8075 10.9131 21.811 10.8989C21.829 10.8263 21.8413 10.7864 21.8894 10.7242C21.8963 10.7154 21.9039 10.706 21.9124 10.6961C22.1452 10.4227 22.2639 10.2478 22.4042 9.92598C22.4135 9.90452 22.423 9.88241 22.4325 9.85958C22.697 9.3919 22.6979 8.97397 22.5197 8.60578C22.4942 8.55318 22.4651 8.5016 22.4325 8.45103C22.4093 8.40905 22.3751 8.36178 22.3315 8.31236C22.1397 8.07924 21.8816 7.91489 21.5794 7.84217Z" fill="#D9D9D9"/>
<path d="M21.4623 4.07004L18.7887 4.45107C18.6427 4.4715 18.5308 4.47023 18.3983 4.4389C18.256 4.40527 18.2062 4.40418 18.0606 4.42325L5.18421 6.20261C5.05916 6.2261 4.99843 6.27559 4.95073 6.35299L2.52511 6.6842C2.52971 6.56832 2.49357 6.43661 2.36437 6.40765C2.05173 6.33758 1.78172 6.35468 1.42994 6.48153C0.878196 6.5556 0.379827 7.02687 0.433687 7.44214L0.494226 7.93322C0.564221 8.05116 0.570753 8.12036 0.533176 8.24917L0.596396 8.762C0.674742 8.8843 0.688636 8.96033 0.640026 9.11591L0.699884 9.60146C0.799951 9.71009 0.84064 9.78051 0.760549 9.94019L0.805725 10.4052C0.948229 10.5211 0.975284 10.5975 0.875091 10.736L0.934588 11.2548C1.03135 11.347 1.04298 11.401 0.962883 11.5015L1.02871 12.0754C1.10355 12.1642 1.1329 12.2202 1.07548 12.3398L1.13936 12.9305C1.22461 13.0301 1.22597 13.0965 1.17138 13.2266L1.22846 13.7544C1.27601 13.8447 1.28831 13.8982 1.24695 14.0046L1.299 14.5672C1.37169 14.6687 1.38072 14.732 1.34713 14.8517L1.41055 15.2869C1.47668 15.7016 1.76862 16.0415 2.20124 16.0525H2.82534L2.91869 15.9971C3.08693 16.0945 3.24802 16.0284 3.47908 15.9336L3.49357 15.9277C3.57356 15.9106 3.61266 15.8907 3.65996 15.814L4.13108 15.6309C4.32098 15.5202 4.43802 15.3613 4.47923 15.1265L4.66423 14.0782C4.70826 13.8825 4.77675 13.8108 4.96831 13.7407L7.50692 12.9644L7.65809 13.4944C7.65809 13.4944 7.7532 13.6537 8.03491 13.5633C8.31661 13.4728 8.26563 13.3212 8.26563 13.3212L8.11117 12.7796L13.7718 11.0485C13.9881 10.9606 14.1051 10.9113 14.3095 10.8223L18.3997 8.7086C19.3384 8.2167 19.9346 8.00925 20.9004 7.84923C20.8615 7.77946 20.8286 7.70035 20.8097 7.60638C20.78 7.4587 20.7906 7.3001 20.8255 7.11749L21.39 4.25019L21.3977 4.22887C21.4199 4.16786 21.4399 4.11744 21.4623 4.07004Z" fill="#D9D9D9"/>
<path d="M29.2396 7.37107C29.377 7.36811 29.512 7.35915 29.6625 7.34439H28.5495C27.9542 7.35706 27.243 7.37207 26.6987 7.34872C26.8931 7.49735 27.0538 7.64336 27.188 7.81439C27.3112 7.97141 27.4059 8.14133 27.4873 8.34015C27.4678 8.23459 27.4622 8.13483 27.462 8.05399C27.4619 7.9927 27.4835 7.90721 27.524 7.81564H27.6026C27.6548 7.8359 27.6976 7.85496 27.6928 7.90013C27.6112 8.66499 27.7811 8.81705 28.1167 9.05651C28.1378 9.07154 28.1641 9.04902 28.1482 9.02499C28.0999 8.95173 28.0834 8.90735 28.077 8.82289C27.7894 8.32475 27.9192 7.96756 28.0972 7.74494C28.2741 7.52378 28.6244 7.41707 29.2396 7.37107Z" fill="#D9D9D9"/>
<path d="M27.6133 8.69084L27.8059 9.25005C28.1836 9.52133 28.6291 9.66392 29.0018 9.69217C29.5595 9.73445 30.5623 9.56968 30.9687 9.29689C31.235 9.11809 31.482 8.95787 31.7183 8.80457C32.2805 8.43984 32.7826 8.11415 33.3414 7.67035H31.8752C31.7793 7.67035 31.7062 7.63214 31.663 7.60305C31.6202 7.57427 31.5863 7.54062 31.5646 7.51793C31.4898 7.43974 31.3041 7.35586 30.9427 7.34439H30.1874C30.4106 7.43556 30.782 7.67068 30.8484 8.05399C30.9378 8.57094 30.8484 8.72591 30.6408 8.94556C30.4332 9.16521 30.0914 9.40017 29.2402 9.39514C28.5173 9.39087 28.1054 9.14568 27.8067 8.91277C27.7245 8.84865 27.6615 8.77246 27.6133 8.69084Z" fill="#D9D9D9"/>
</svg>
