<svg xmlns="http://www.w3.org/2000/svg" xmlns:xlink="http://www.w3.org/1999/xlink" xml:space="preserve" width="100.216" height="16" viewBox="0 0 26.515 4.233"><defs><linearGradient id="a"><stop offset="0" style="stop-color:#d9d9d9;stop-opacity:1"/><stop offset="1" style="stop-color:#d9d9d9;stop-opacity:0"/></linearGradient><linearGradient xlink:href="#a" id="e" x1="93.672" x2="168.945" y1="6.085" y2="6.085" gradientTransform="translate(0 -.86)" gradientUnits="userSpaceOnUse"/><linearGradient id="d" x1="70.256" x2="43.174" y1="4.734" y2="4.734" gradientTransform="translate(2.325 1.154)scale(.26456)" gradientUnits="userSpaceOnUse"><stop stop-color="#d9d9d9"/><stop offset="1" stop-color="#d9d9d9" stop-opacity="0"/></linearGradient></defs><g style="stroke:none"><g style="fill:#d9d9d9;fill-opacity:1;stroke:none;stroke-width:12.6199"><path d="m24.56 2.407-3.282.221-.613.156.221-.383-.22-.37.612.145Z" style="fill:#d9d9d9;fill-opacity:1;fill-rule:evenodd;stroke:none;stroke-width:.361316;stroke-linecap:round;stroke-linejoin:round;stroke-miterlimit:29" transform="translate(1.956 -1.07)"/><path d="M13.747 2.108v.597h6.79l.176-.304-.175-.293z" style="fill:url(#d);stroke:none;stroke-width:.264556" transform="translate(1.956 -1.07)"/><path d="m20.263 2.073-.064-.235-.174.171.172-.173-.235-.064.236.062-.062-.236.064.235.173-.171-.171.173.235.064-.236-.062z" style="fill:none;fill-opacity:1;fill-rule:evenodd;stroke:#d9d9d9;stroke-width:.0661458;stroke-linecap:round;stroke-linejoin:round;stroke-miterlimit:10.8;stroke-dasharray:none;stroke-opacity:1;paint-order:fill markers stroke" transform="rotate(150 18.882 -.754)scale(1 -1)"/><path d="m22.04 2.379.125-.22-.218-.128.22.125.127-.219-.124.22.218.128-.22-.125Z" style="fill:none;fill-opacity:1;fill-rule:evenodd;stroke:#d9d9d9;stroke-width:.0661458;stroke-linecap:round;stroke-linejoin:round;stroke-miterlimit:10.8;stroke-dasharray:none;stroke-opacity:1;paint-order:fill markers stroke" transform="matrix(-1 0 0 1 41.16 -.25)"/><path d="m18.765 2.627-.136-.235-.072.262.07-.262-.236.134.235-.136-.262-.071.262.069-.135-.236.137.235.071-.262-.069.262.235-.134-.234.136.262.071-.263-.069z" style="fill:none;fill-opacity:1;fill-rule:evenodd;stroke:#d9d9d9;stroke-width:.0661458;stroke-linecap:round;stroke-linejoin:round;stroke-miterlimit:10.8;stroke-dasharray:none;stroke-opacity:1;paint-order:fill markers stroke" transform="rotate(30 3.33 73.949)scale(-1 1)"/><path d="m20.263 2.073-.064-.235-.174.171.172-.173-.235-.064.236.062-.062-.236.064.235.173-.171-.171.173.235.064-.236-.062z" style="fill:none;fill-opacity:1;fill-rule:evenodd;stroke:#d9d9d9;stroke-width:.0661458;stroke-linecap:round;stroke-linejoin:round;stroke-miterlimit:10.8;stroke-dasharray:none;stroke-opacity:1;paint-order:fill markers stroke" transform="matrix(-1 0 0 1 41.086 -.218)"/><path d="m18.765 2.627-.136-.235-.072.262.07-.262-.236.134.235-.136-.262-.071.262.069-.135-.236.137.235.071-.262-.069.262.235-.134-.234.136.262.071-.263-.069z" style="fill:none;fill-opacity:1;fill-rule:evenodd;stroke:#d9d9d9;stroke-width:.0661458;stroke-linecap:round;stroke-linejoin:round;stroke-miterlimit:10.8;stroke-dasharray:none;stroke-opacity:1;paint-order:fill markers stroke" transform="matrix(-1 0 0 1 40.482 -1.342)"/><path d="m22.04 2.379.125-.22-.218-.128.22.125.127-.219-.124.22.218.128-.22-.125Z" style="fill:none;fill-opacity:1;fill-rule:evenodd;stroke:#d9d9d9;stroke-width:.0661458;stroke-linecap:round;stroke-linejoin:round;stroke-miterlimit:10.8;stroke-dasharray:none;stroke-opacity:1;paint-order:fill markers stroke" transform="rotate(135 18.915 -1.274)scale(1 -1)"/></g><g style="fill:#d9d9d9;fill-opacity:1;stroke:none;stroke-width:12.6199"><path d="M94.73 4.167a1.06 1.06 0 0 0-1.058 1.057 1.06 1.06 0 0 0 1.058 1.058h73.157a1.06 1.06 0 0 0 1.058-1.058 1.06 1.06 0 0 0-1.058-1.057z" style="baseline-shift:baseline;display:inline;overflow:visible;vector-effect:none;fill:url(#e);fill-opacity:1;fill-rule:evenodd;stroke:none;stroke-width:12.6199;stroke-linecap:round;stroke-linejoin:round;stroke-miterlimit:29;stop-color:#000" transform="translate(.237 -.085)scale(.07924)"/><path d="M85.513 2.943h9.127v4.564h-9.127z" style="display:inline;fill:#d9d9d9;fill-opacity:1;fill-rule:evenodd;stroke:none;stroke-width:26.7121;stroke-linecap:square;stroke-linejoin:round;stroke-miterlimit:29;stroke-dasharray:none;stroke-opacity:1" transform="translate(.237 -.085)scale(.07924)"/><path d="m75.072 17.026 8.99-8.214h16.27s10.71 4.299 17.637 6.054c3.112.789 12.49 2.437 12.49 2.437H74.934Z" style="display:inline;fill:#d9d9d9;fill-opacity:1;fill-rule:evenodd;stroke:none;stroke-width:26.7121;stroke-linecap:round;stroke-linejoin:round;stroke-miterlimit:29;stroke-dasharray:none;stroke-opacity:1" transform="translate(.237 -.085)scale(.07924)"/><path d="M83.551 22.406c-3.336-.168-6.923.205-10.114 1.822-3.19 1.617-5.918 4.53-7.374 9.063a1.34 1.34 0 0 0 .606 1.57L71.76 37.8a1.34 1.34 0 0 0 .67.18h12.855a1.34 1.34 0 0 0 .942-.388L96.485 27.46a1.34 1.34 0 0 0-.413-2.185s-5.85-2.532-12.521-2.868m-.134 2.675c4.396.221 7.72 1.29 9.654 1.987l-8.336 8.233H72.79l-3.679-2.126c1.297-3.257 3.187-5.368 5.538-6.559 2.608-1.322 5.734-1.688 8.768-1.535" style="baseline-shift:baseline;display:inline;overflow:visible;fill:#d9d9d9;fill-opacity:1;fill-rule:evenodd;stroke:none;stroke-width:26.7121;stroke-linecap:round;stroke-linejoin:round;stroke-miterlimit:29;stroke-dasharray:none;stroke-opacity:1;stop-color:#000" transform="translate(.237 -.085)scale(.07924)"/><path d="M74.887 28.59s1.986-.174 2.505 2.304c.71 3.394 4.927 2.764 4.927 2.764s-2.246-.46-2.868-2.738c-.62-2.277.837-3.96.837-3.96s-1.19-.578-5.4 1.63" style="display:inline;fill:#d9d9d9;fill-opacity:1;fill-rule:evenodd;stroke:none;stroke-width:13.356;stroke-linecap:round;stroke-linejoin:round;stroke-miterlimit:29;stroke-dasharray:none;stroke-opacity:1" transform="translate(.237 -.085)scale(.07924)"/><path d="M-.709 18.583S4.712 30.7-2.99 44.043h9.267c5.367-13.292 1.226-25.46 1.226-25.46Zm10.924 0s3.342 11.13-1.226 25.46h3.685s3.974-6.704 11.614-6.704h31.31l6.672-18.756zm14.804 3.398h10.258l5.413 11.666H20.95Zm15.45 0h17.796L53.7 33.647h-7.989zM53.95 48.817s-1.075 1.343 1.97 2.15 7.434 2.418 7.434 2.418 2.956.18 2.687-2.597c-.268-2.777.448-13.256 4.479-19.436 0 0 3.522-5.981 10.359-5.981s24.46 6.84 26.294 0v-8.217H65.666Z" style="display:inline;fill:#d9d9d9;fill-opacity:1;fill-rule:evenodd;stroke:none;stroke-width:6.67802;stroke-linecap:round;stroke-linejoin:round;stroke-miterlimit:29;stroke-opacity:1" transform="translate(.237 -.085)scale(.07924)"/><path d="M130.027 24.96 112.4 31.175V22.6h18.058v-3.137h-21.006V35.52l24.678-8.5" style="display:inline;fill:#d9d9d9;fill-opacity:1;fill-rule:evenodd;stroke:none;stroke-width:26.7121;stroke-linecap:square;stroke-linejoin:round;stroke-miterlimit:29;stroke-dasharray:none;stroke-opacity:1" transform="translate(.237 -.085)scale(.07924)"/><path d="m136.636 25.942-.02-4.742-3.288-1.602v-4.355h-1.008v8.655zm4.218 1.8h22.388s3.323-.298 5.472-.932h-30.211z" style="display:inline;opacity:1;fill:#d9d9d9;fill-opacity:1;fill-rule:evenodd;stroke:none;stroke-width:26.7121;stroke-linecap:square;stroke-linejoin:round;stroke-miterlimit:29;stroke-dasharray:none;stroke-opacity:1" transform="translate(.237 -.085)scale(.07924)"/><path d="M187.045 9.87h8.129v17.871h-25.565s2.337-.144 5.608-.931l11.828-.002z" style="display:inline;fill:#d9d9d9;fill-opacity:1;fill-rule:evenodd;stroke:none;stroke-width:26.7121;stroke-linecap:square;stroke-linejoin:round;stroke-miterlimit:29" transform="translate(.237 -.085)scale(.07924)"/><path d="M138.5 21.2h13.21v-2.489h33.328v6.085h-46.535zM187.648 1.069h3.814v7.383h-3.814zM181.182 1.069h3.814v7.383h-3.814zM138.501 13.453h13.208v2.49h33.329V9.858H138.5z" style="display:inline;fill:#d9d9d9;fill-opacity:1;fill-rule:evenodd;stroke:none;stroke-width:26.7121;stroke-linecap:square;stroke-linejoin:round;stroke-miterlimit:29;stroke-dasharray:none;stroke-opacity:1" transform="translate(.237 -.085)scale(.07924)"/><path d="M139.142 14.282h4.53l4.53 1.644h-13.59zM139.142 20.356h4.53l4.53-1.644h-13.59z" style="display:inline;fill:#d9d9d9;fill-opacity:1;fill-rule:evenodd;stroke:none;stroke-width:13.356;stroke-linecap:round;stroke-linejoin:round;stroke-miterlimit:29;stroke-dasharray:none;stroke-opacity:1" transform="translate(.237 -.085)scale(.07924)"/><path d="M135.236 16.851v.951h12.342v-.95z" style="baseline-shift:baseline;display:inline;overflow:visible;vector-effect:none;fill:#d9d9d9;fill-opacity:1;fill-rule:evenodd;stroke:none;stroke-width:12.6199;stroke-linecap:square;stroke-linejoin:round;stroke-miterlimit:29;stroke-opacity:1;stop-color:#000" transform="translate(.237 -.085)scale(.07924)"/><path d="m172.491 29.77 3.762 12.988 1.956-8.374 3.87 20.11 3.13-19.584 4.792 13.132 5.05-18.273zM25.528 39.005l2.955 5.117v-1.867l2.694 4.667 4.459-7.917z" style="display:inline;fill:#d9d9d9;fill-opacity:1;fill-rule:evenodd;stroke:none;stroke-width:26.7121;stroke-linecap:round;stroke-linejoin:round;stroke-miterlimit:29;stroke-dasharray:none;stroke-opacity:1" transform="translate(.237 -.085)scale(.07924)"/><path d="M144.795 29.543h20.398v8.92h-20.398z" style="fill:#d9d9d9;fill-opacity:1;fill-rule:evenodd;stroke:none;stroke-width:26.7121;stroke-linecap:round;stroke-linejoin:round;stroke-miterlimit:29;stroke-dasharray:none;stroke-opacity:1" transform="translate(.237 -.085)scale(.07924)"/></g></g></svg>