<?xml version="1.0" encoding="UTF-8" standalone="no"?>
<!-- Created with Inkscape (http://www.inkscape.org/) -->

<svg
   width="101"
   height="17"
   viewBox="0 0 358.77021 61.194314"
   version="1.1"
   id="svg1"
   xml:space="preserve"
   sodipodi:docname="l115a1_olive_drab.svg"
   inkscape:export-filename="l115a1_v2.svg"
   inkscape:export-xdpi="96"
   inkscape:export-ydpi="96"
   xmlns:inkscape="http://www.inkscape.org/namespaces/inkscape"
   xmlns:sodipodi="http://sodipodi.sourceforge.net/DTD/sodipodi-0.dtd"
   xmlns="http://www.w3.org/2000/svg"
   xmlns:svg="http://www.w3.org/2000/svg"><sodipodi:namedview
     id="namedview1"
     pagecolor="#505050"
     bordercolor="#ffffff"
     borderopacity="1"
     inkscape:showpageshadow="0"
     inkscape:pageopacity="0"
     inkscape:pagecheckerboard="1"
     inkscape:deskcolor="#505050"
     inkscape:document-units="mm"
     showguides="true"
     inkscape:lockguides="true" /><defs
     id="defs1" /><g
     inkscape:label="Layer 1"
     inkscape:groupmode="layer"
     id="layer1"
     transform="translate(-5.4677049,-193.32459)"><path
       id="path56"
       style="fill:#d9d9d9;fill-opacity:1;stroke:none;stroke-width:1.05833;stroke-miterlimit:29;stroke-dasharray:none;stroke-opacity:1"
       d="m 129.70049,218.03953 c -1.10889,-0.002 -1.41351,0.0853 -1.82521,0.81442 -0.57104,1.21192 -0.91975,1.22388 -1.84123,1.23868 l -18.46451,0.0315 c -1.2677,0.0453 -1.75756,-0.4832 -1.84536,-0.99735 -0.0785,-0.51823 -0.33605,-1.10473 -1.75752,-1.04903 l -4.58938,-0.0269 0.001,2.22622 c -0.06195,2.02028 -1.309868,4.66452 -5.509741,6.76341 -0.06284,1.34943 -0.612137,3.09405 -3.118156,3.73569 -2.11883,0.19456 -4.03574,-0.30766 -5.009513,-2.02004 -0.800257,-1.56766 -1.013144,-4.18613 1.438672,-5.94796 1.805628,-0.93257 3.171296,-0.77635 4.88859,0.16537 1.654339,-0.73116 2.82272,-1.87508 3.036508,-3.31918 l -5.605343,-0.015 c -2.317822,-0.0398 -3.627214,0.732 -5.143872,1.72651 -0.656108,0.36437 -0.875367,0.55854 -3.223059,0.54002 l -11.600326,-0.0289 0.201538,8.59225 c 11.663544,0.12177 3.891615,13.85516 -4.563029,11.54555 -0.621898,-0.25197 -0.784559,-0.29915 -1.102258,0.12609 l -5.380033,7.88737 c -0.583489,0.81059 0.08907,1.23878 1.417484,1.16272 2.575969,0.002 5.221029,0.11112 8.582939,1.71669 2.059946,0.96834 3.676656,1.19923 5.094263,1.28364 l 5.397086,0.31213 c 2.145499,0.17798 2.812143,-1.21156 3.03289,-2.50062 l 2.153357,-12.33155 c 0.188217,-0.94848 0.619247,-1.226 1.054199,-0.68936 1.016383,1.30297 3.625175,2.40452 5.357813,2.43086 l 5.565035,0.0496 c 2.684438,-0.0444 3.763266,-1.11937 4.985226,-2.36833 0.3986,-0.42792 0.74837,-0.75184 1.0635,-0.99735 -0.20237,2.11063 -0.3855,4.37648 -0.3855,4.37648 -0.12588,1.03593 1.44946,1.38294 1.58698,0.12092 0,0 0.32213,-3.85683 0.45217,-5.24723 0.40652,-0.0535 0.79491,-0.031 1.24127,-0.0765 l 1.96422,-0.0744 c 1.25034,-4.04654 6.43412,-4.11642 8.25169,-0.9431 l 12.04164,-1.01492 17.73535,-4.85035 53.19159,-0.12661 -0.0232,-8.39742 c 0.0225,-2.45832 -0.46591,-3.912 -4.57647,-3.79357 z m -36.902653,13.62501 4.141349,0.0258 c 1.838348,-0.11066 3.01686,1.2471 3.01842,2.42776 l 0.0956,2.06086 c -0.0482,2.12782 -2.098742,3.181 -4.056193,3.15794 l -4.270024,-0.0212 c -6.411898,-0.0967 -5.457013,-7.09559 -1.371493,-7.60781 -0.780734,1.80568 -0.95349,6.51715 2.992583,7.25486 1.01849,0.0884 1.162724,-0.45427 0.682645,-0.79272 -3.713054,-2.42627 -2.561832,-4.77263 -1.232999,-6.50555 z" /><path
       style="fill:#d9d9d9;fill-opacity:1;stroke:none;stroke-width:1.05833;stroke-miterlimit:29;stroke-dasharray:none;stroke-opacity:1"
       d="m 104.64609,238.36506 3.56025,-0.12882 c -0.0502,-3.4628 5.01725,-4.6143 6.71645,-0.87835 l 12.76535,-1.06573 0.45088,-0.12297 0.0176,1.01303 -23.50464,2.18416 z"
       id="path57"
       sodipodi:nodetypes="cccccccc" /><path
       style="fill:#d9d9d9;fill-opacity:1;stroke:none;stroke-width:1.05833;stroke-miterlimit:29;stroke-dasharray:none;stroke-opacity:1"
       d="m 84.509333,214.35804 v 5.68916 l 1.482328,-0.81156 c 0.719398,-0.33905 2.094188,-0.64108 3.751365,-0.65421 l 6.600085,0.0166 c -0.182035,1.44492 -0.43719,2.39252 -1.015774,3.20808 -0.944269,1.12649 -1.759964,1.65512 -3.364959,2.40655 -0.545467,-0.57059 -2.089391,-1.42103 -3.954092,-0.63613 -1.637939,0.84548 -2.31541,2.80357 -1.287883,4.70219 1.083899,1.69823 3.23123,1.65624 4.462053,1.25471 1.416573,-0.61274 1.727752,-1.79569 1.641162,-3.18423 3.177313,-1.40403 5.585851,-3.57723 5.507978,-6.55118 l -0.02587,-2.79515 6.058064,0.0217 c 0.84204,-0.0121 1.77039,0.3763 2.18997,1.2194 0.33087,0.65044 0.14371,0.81572 1.00823,0.83019 l 18.39144,-0.044 c 0.91322,0.0387 0.80533,-0.36859 1.03774,-0.7847 0.39428,-0.65941 0.97227,-1.28723 2.34407,-1.2559 l 64.84977,0.0185 c 5.61325,-0.0861 5.12881,3.3118 5.33307,4.45527 l 94.78618,-0.81984 0.0164,-5.99556 -129.90595,-0.85319 -17.4616,0.0234 -3.32601,-0.90177 -49.960544,-0.0703 -0.80808,1.49905 z"
       id="path58"
       sodipodi:nodetypes="ccccccccccccccccccccccccccccc" /><path
       id="path61"
       style="fill:#d9d9d9;fill-opacity:1;stroke:none;stroke-width:1.05833;stroke-miterlimit:29;stroke-dasharray:none;stroke-opacity:1"
       d="m 300.65853,213.03363 -5.28753,1.63918 -0.0119,5.94951 5.57485,1.44642 23.34638,0.047 -0.0119,-9.08214 z m 14.1609,2.09806 c 0.82466,1.7e-4 1.18759,0.60711 1.19889,1.24902 v 2.29547 c -2.3e-4,0.87926 -0.45393,1.26171 -1.12448,1.2883 h -1.62781 c -0.95534,-0.0184 -1.15661,-0.74168 -1.14101,-1.26194 l 0.0165,-2.40399 c -0.002,-0.7105 0.48826,-1.15452 1.07642,-1.15032 z m -6.00791,0.002 c 0.82466,1.7e-4 1.18708,0.60711 1.19838,1.24902 v 2.29547 c -2.3e-4,0.87926 -0.45341,1.26171 -1.12396,1.2883 h -1.62781 c -0.95534,-0.0184 -1.15661,-0.74168 -1.14101,-1.26194 l 0.0165,-2.40348 c -0.002,-0.71049 0.48826,-1.15503 1.07642,-1.15083 z m 12.02666,0 c 0.82466,1.7e-4 1.18759,0.60711 1.19889,1.24902 v 2.29547 c -2.3e-4,0.87926 -0.45393,1.26171 -1.12448,1.2883 h -1.6278 c -0.95534,-0.0184 -1.15662,-0.74168 -1.14102,-1.26194 l 0.0165,-2.40399 c -0.002,-0.7105 0.48826,-1.15452 1.07642,-1.15032 z" /><path
       id="path75"
       style="fill:#d9d9d9;fill-opacity:1;stroke:none;stroke-width:1.05833;stroke-miterlimit:29;stroke-dasharray:none;stroke-opacity:1"
       d="m 210.94515,230.44498 c -0.31281,-0.005 -0.64037,0.008 -0.98444,0.0367 l -23.00996,1.03353 -12.75892,-0.0977 c -1.46888,-0.0806 -1.99003,1.00512 -1.15083,2.0469 l 2.39417,3.07578 c 0.70618,0.87317 1.45315,1.58922 2.60191,2.31252 l -0.0398,0.59738 c -0.006,0.51698 0.14432,0.78713 0.72708,1.03508 l 3.00654,1.21698 0.69918,-1.24178 c 0.44432,0.049 1.23199,0.0229 1.73271,-0.0997 l -0.31264,0.59635 c -0.0994,0.18632 -0.14819,0.33406 0.0667,0.60461 0.80698,0.94113 2.3369,0.70362 2.82412,0.1602 0.36708,-0.39169 0.31121,-0.51097 0.0537,-0.85783 -0.25919,-0.39628 -0.19761,-1.8966 0.50437,-1.12758 0.29362,0.29738 0.29251,0.53041 1.62935,0.0904 l -0.0274,1.27744 -1.64796,0.0217 0.0568,1.04438 4.36924,-0.0227 0.016,-1.09967 -1.6645,-0.009 -0.0527,-1.42833 3.45302,-0.82424 c 0.48428,-0.109 0.66372,-0.31013 0.70952,-0.50798 l 31.01619,-1.18132 -0.0124,-0.41703 2.35076,-0.078 c 0.14009,0.90033 0.70853,1.20743 1.91823,1.09244 0.13006,0.12168 0.40797,0.43863 1.68103,0.35605 l 1.59732,-0.094 c 0.39548,0.99538 1.02761,1.11176 1.46968,0.14986 0.35874,0.81072 0.8576,1.43799 1.39888,0.63148 l 1.07435,-1.73064 c 0.4885,-0.90457 0.79588,-2.22371 -0.0434,-3.25045 l -1.31775,-1.7787 c -0.37298,-0.52421 -0.57559,-0.49231 -1.01131,0.43718 -0.8686,-1.39395 -1.10547,-1.47397 -1.62729,-0.23203 l -3.776,0.23617 c -0.81236,0.11691 -1.52888,0.46606 -1.5012,1.5322 l -2.28358,0.10749 -0.0413,-0.65422 -0.76998,0.0165 c 0.0816,-0.80435 0.0588,-1.22497 -0.90072,-0.83612 l -1.35599,-0.71262 c 0.52175,-0.42337 -0.34038,-0.60789 -0.91519,-0.54622 -1.12314,-0.98029 -2.71765,-0.18301 -2.72438,0.43046 l -0.004,1.86759 -2.51303,0.0662 c -1.25323,-2.329 -2.71443,-3.21349 -4.90409,-3.2458 z"
       sodipodi:nodetypes="sccccccccccccccccccccccccccccccccccccccccccccccccccs" /><path
       style="fill:#d9d9d9;fill-opacity:1;stroke:none;stroke-width:1.05833;stroke-miterlimit:29;stroke-dasharray:none;stroke-opacity:1"
       d="m 129.43264,200.08302 v 11.77396 h 3.80339 v -11.74089 z"
       id="path76" /><path
       style="fill:#d9d9d9;fill-opacity:1;stroke:none;stroke-width:1.05833;stroke-miterlimit:29;stroke-dasharray:none;stroke-opacity:1"
       d="m 107.21951,200.0839 v 11.77397 h 3.80339 v -11.74089 z"
       id="path76-0" /><path
       style="fill:#d9d9d9;fill-opacity:1;stroke:none;stroke-width:1.05833;stroke-miterlimit:29;stroke-dasharray:none;stroke-opacity:1"
       d="m 112.07024,201.11217 2.69233,-0.0234 v -6.54811 h 0.84189 v -1.21607 h 7.4017 v 1.15761 h 0.85359 v 6.52472 l 4.52521,-0.0585 v 8.7347 l -3.78855,-0.0322 0.006,0.1374 -0.86528,0.77174 -8.86333,-0.0146 -0.86236,-0.75128 -0.006,-0.26017 -1.93812,-0.0117 z"
       id="path77"
       sodipodi:nodetypes="ccccccccccccccccccc" /><path
       style="fill:#d9d9d9;fill-opacity:1;stroke:none;stroke-width:1.05833;stroke-miterlimit:29;stroke-dasharray:none;stroke-opacity:1"
       d="m 134.2831,200.8776 2.4273,-0.0168 10.47171,-3.05878 16.214,-0.0248 0.0165,14.97377 h -16.28842 l -10.46757,-2.96002 -2.38125,-0.0248 z"
       id="path78"
       sodipodi:nodetypes="ccccccccc" /><path
       style="fill:#d9d9d9;fill-opacity:1;stroke:none;stroke-width:1.05833;stroke-miterlimit:29;stroke-dasharray:none;stroke-opacity:1"
       d="m 106.1717,201.19197 h -0.19844 l -0.40603,-0.23442 h -7.382643 l -1.025261,-0.65029 h -1.835547 l -0.51263,0.24805 h -2.364713 l -1.719792,-0.339 H 77.638037 v 10.23608 h 13.096875 l 1.736328,-0.41341 h 2.273763 l 0.644922,0.29765 h 1.843815 l 0.975651,-0.62838 h 7.333919 l 0.45382,-0.25203 h 0.16218 z"
       id="path79"
       sodipodi:nodetypes="ccccccccccccccccccccc" /><path
       style="fill:#d9d9d9;fill-opacity:1;stroke:none;stroke-width:1.05833;stroke-miterlimit:29;stroke-dasharray:none;stroke-opacity:1"
       d="m 68.485108,221.91216 h -3.356901 v 8.6155 h 3.555338 z"
       id="path80" /><path
       style="fill:#d9d9d9;fill-opacity:1;stroke:none;stroke-width:1.05833;stroke-miterlimit:29;stroke-dasharray:none;stroke-opacity:1"
       d="m 64.036801,221.84602 -8.532813,0.0827 c -1.046938,-0.0338 -1.373896,-0.0762 -1.960989,-0.16253 -0.706977,-0.11332 -1.397646,-0.16776 -2.636146,-0.16821 l -33.490462,0.0165 0.177666,14.70389 c -0.0071,2.57448 0.484326,6.14707 0.663809,6.54712 0.182038,0.43365 0.209447,1.24961 0.241369,2.12853 l 0.111913,3.97176 c -0.09609,1.93482 1.097819,3.01297 2.862874,1.54616 l 4.030965,-0.18515 c 0.735823,-0.0596 1.215707,0.36585 1.495183,0.50745 3.955057,2.07765 5.920048,0.45789 5.568924,-2.584 l -0.298831,-3.07131 c -0.154763,-1.76756 1.120044,-2.62055 2.678906,-2.61276 l 8.102864,0.0827 c 1.556898,0.0135 2.859113,0.3 3.695899,0.8599 l 8.640299,6.16809 c 0.979327,0.57435 1.719965,0.84748 2.397787,-0.18186 l 4.960936,-7.29258 c 0.662639,-0.7365 0.278196,-1.34251 -0.214973,-1.81901 -1.925742,-1.87209 -2.451943,-5.85136 1.52336,-8.3297 z"
       id="path81"
       sodipodi:nodetypes="ccccccccccccccccccccccc" /><path
       style="fill:#d9d9d9;fill-opacity:1;stroke:none;stroke-width:1.05833;stroke-miterlimit:29;stroke-dasharray:none;stroke-opacity:1"
       d="m 17.581696,220.55771 34.167066,0.006 c 0.673915,-5.2e-4 0.996102,0.0465 1.41527,0.10658 0.645391,0.0882 0.968607,0.17129 1.858782,0.17092 0.0564,-0.78638 0.01109,-3.5375 -4.390736,-3.54571 l -26.712753,0.0351 c -2.701498,0.0309 -5.425038,1.28844 -6.337629,3.22729 z"
       id="path82"
       sodipodi:nodetypes="ccccccc" /><path
       style="fill:#d9d9d9;fill-opacity:1;stroke:none;stroke-width:1.05833;stroke-miterlimit:29;stroke-dasharray:none;stroke-opacity:1"
       d="m 17.157824,219.23639 -5.843598,-0.0146 c -1.23325,-0.003 -1.5041281,-0.2287 -2.5023113,-0.41802 -2.4360351,-0.57006 -3.3283946,0.78345 -3.3442098,3.48014 0.1202454,13.47503 -0.1143561,20.12503 0.641883,29.212 0.1844736,1.39827 0.8667548,1.38985 1.9707618,1.07048 l 3.5028063,-1.03741 c 0.895064,-0.22759 1.336339,-0.3093 2.501139,-0.30178 l 4.018237,-0.0319 c -0.459837,-0.72069 -0.50523,-1.26136 -0.537313,-2.10548 l -0.1757,-4.83071 c -0.02798,-0.88291 -0.121144,-1.01297 -0.26665,-1.49448 -0.224193,-0.77506 -0.487327,-3.39474 -0.544786,-5.06207 l -0.220735,-16.01791 c 0.01137,-1.09666 0.344671,-1.82205 0.800476,-2.44824 z"
       id="path83"
       sodipodi:nodetypes="cccccccccccccccc" /><path
       d="m 327.24918,218.72652 -1.50813,-1.19062 1.13771,-1.66688 -1.46844,-2.01745 36.84323,-10.62963 -15.82208,11.21833 17.80646,2.16959 -17.09209,3.14854 11.5623,10.37166 -33.13245,-8.47989 z"
       fill="#d9d9d9"
       id="path7939"
       style="stroke-width:0.264583"
       sodipodi:nodetypes="ccccccccccc" /><path
       style="fill:#d9d9d9;fill-opacity:1;stroke:none;stroke-width:1.058;stroke-miterlimit:29;stroke-dasharray:none;stroke-opacity:1"
       d="m 322.7597,223.3524 -11.24495,1.65472 0.59576,-1.70923 -9.16175,1.36469 0.43021,-1.40938 -27.50905,6.34376 21.31955,0.7405 -6.57308,6.69304 19.82771,-7.89874 -0.21037,5.40361 z"
       id="path89"
       sodipodi:nodetypes="ccccccccccc" /><path
       style="fill:#d9d9d9;fill-opacity:1;stroke:none;stroke-width:1.058;stroke-miterlimit:29;stroke-dasharray:none;stroke-opacity:1"
       d="m 322.5926,211.62114 -11.24495,-1.65472 0.59576,1.70923 -9.16175,-1.36469 0.43021,1.40938 -27.50905,-6.34376 21.31955,-0.7405 -6.57308,-6.69304 19.82771,7.89874 -0.21037,-5.40361 z"
       id="path89-4"
       sodipodi:nodetypes="ccccccccccc" /></g></svg>
