<svg width="113" height="17" viewBox="0 0 113 17" fill="none" xmlns="http://www.w3.org/2000/svg">
<path d="M98.2197 2.81373L111.098 0.734131L106.324 3.99696L112.486 5.02906L106.324 7.35146L110.058 10.8445L98.2197 7.50996L99.7608 6.36287L98.2197 4.87843L99.2006 4.1754L98.2197 2.81373Z" fill="#D9D9D9"/>
<path d="M81.7941 0.708484C81.7941 0.58659 81.8931 0.487549 82.015 0.487549H82.9445C83.0663 0.487549 83.1654 0.58659 83.1654 0.708484V2.3382C83.4379 2.33772 84.3955 2.35101 85.2985 2.54452C86.3651 2.77307 88.5744 2.6207 88.5744 2.6207V2.46834H90.6314V2.6207H96.1575C96.2414 2.52731 96.3629 2.46834 96.4975 2.46834H96.9546C97.206 2.46834 97.4117 2.67403 97.4117 2.92544V7.80122C97.4117 8.05262 97.206 8.25832 96.9546 8.25832H96.4975C96.3629 8.25832 96.2414 8.19934 96.1575 8.10595H90.6314V8.63924C90.6314 8.63924 90.7837 8.92112 90.3418 8.9973C89.9 9.07349 89.999 9.45441 89.999 9.45441C89.999 9.45441 90.0219 9.83533 89.6029 9.82771C89.1839 9.82009 89.1839 9.53059 89.1839 9.53059C89.1839 9.53059 89.26 9.07349 88.9553 9.07349C88.6506 9.07349 88.5744 8.63924 88.5744 8.63924V8.10595H86.0451C86.0451 8.10595 85.3747 8.02976 84.9176 8.25832C84.711 8.36163 83.9439 8.43381 83.1654 8.48189V9.02015H81.7941V8.54666C81.4722 8.55802 81.2608 8.56305 81.2608 8.56305C81.2608 8.56305 81.1221 8.53531 80.7275 8.51331V9.47726H79.5847L79.5847 8.48687H77.4499V2.33882H81.7941V0.708484Z" fill="#D9D9D9"/>
<path fill-rule="evenodd" clip-rule="evenodd" d="M77.1469 1.95029H74.5262L74.5262 8.73202C74.5166 9.20559 74.5414 9.63724 74.7259 9.63724C74.8993 9.63724 74.9535 9.6853 74.9694 9.75153L64.5233 9.75153V9.52297H62.3825V9.75153H56.3107V8.48687L74.2231 8.48687V2.33882L51.9301 2.33882V2.1636H50.4826V2.33882H48.1209V2.1636H46.4449L46.4449 3.49086H47.0527V8.71543H48.1209V8.48687H50.4826V8.71543H51.5033C51.3621 8.86417 51.2747 9.05446 51.3664 9.27919C51.4635 9.51736 51.7166 9.85478 51.981 10.1695C51.5766 10.1952 51.0159 10.2915 51.0159 10.6276C51.0159 10.6962 51.054 10.7572 51.115 10.8029C51.5416 11.1228 53.1508 11.0238 53.1508 11.0238H55.3584V11.3895H56.3107V11.0314H62.3825V11.2676L64.5233 11.2676V11.0314H75.3002C75.4064 11.0975 75.5544 11.1457 75.7603 11.1457C76.7126 11.1457 76.5603 10.681 76.5603 10.681V9.92674C76.5603 9.92674 76.5603 9.5763 76.8851 9.5763C77.0877 9.5763 77.1367 9.17401 77.1469 8.73202L77.1469 1.95029ZM52.4029 8.48687L55.3584 9.75153L55.3584 8.48687H52.4029Z" fill="#D9D9D9"/>
<path fill-rule="evenodd" clip-rule="evenodd" d="M46.7497 3.79393V8.71543H46.4449V8.56305H42.6635C42.3669 8.99775 41.7215 8.94397 41.7215 8.94397L41.7143 8.56623C40.6275 8.61025 40.2664 9.09633 40.2664 9.09633C40.2664 9.09633 39.9617 9.55344 39.4284 9.62962C39.2363 9.65706 39.1223 9.54419 39.0551 9.38852V10.7724C39.0551 10.7724 38.7503 12.3723 36.7696 12.2961C34.9845 12.2274 33.9295 9.2815 33.7385 8.70018H19.6816L19.6663 8.70117L19.6605 8.11809C19.6538 7.92647 19.6459 7.69796 19.6378 7.44874C19.6345 7.35007 19.6312 7.24815 19.6279 7.14399L16.6343 7.57266C16.36 7.61075 16.1162 7.42029 16.0705 7.15365C16.0324 6.87939 16.2153 6.62798 16.4895 6.58989L19.5987 6.14468C19.5865 5.68588 19.5769 4.9466 19.5736 4.3729L19.5749 4.37294C19.5978 3.45111 20.0854 2.69688 20.0854 2.69688L20.1615 2.69688V2.23979H20.9091L20.352 1.74459L26.7209 1.7065C26.7844 1.7065 26.8398 1.73617 26.8742 1.78268H27.2466V2.69688L27.3228 2.69688V1.52365C27.3228 1.5008 27.3456 1.47794 27.3685 1.47794H27.5818C27.6047 1.47794 27.6275 1.5008 27.6275 1.52365V2.69688H30.8281V2.84841H31.1328V3.94546H46.0632V3.79393L46.7497 3.79393ZM21.6852 7.72502H32.3509V7.19173H21.6852V7.72502Z" fill="#D9D9D9"/>
<path fill-rule="evenodd" clip-rule="evenodd" d="M24.8849 11.2295C25.426 9.73116 24.6255 9.18781 23.7878 9.0032H33.1449C33.03 9.16245 32.9604 9.3249 32.9604 9.3249V10.2391C32.9604 10.2391 32.3509 10.2391 31.97 10.7724C31.5891 11.3057 31.2082 11.3057 31.2082 11.3057H29.3036C28.3894 11.3057 28.3894 12.2961 28.3894 12.2961C28.3894 12.2961 27.7799 13.9721 27.4752 14.5054C27.1704 15.0387 27.3228 15.572 27.3228 15.572C27.6275 16.5624 26.6372 16.4862 26.6372 16.4862L23.9707 15.9529C23.2089 15.8005 23.666 14.8863 23.666 14.8863C23.666 14.8863 23.8945 13.9721 24.8849 11.2295ZM30.1187 9.04302C30.1187 9.04302 29.7988 9.59154 29.7988 10.201C29.7988 10.8105 30.0273 10.8867 30.0273 10.8867C30.0273 10.8867 30.1035 10.8867 30.0273 10.7343C29.9511 10.5819 29.7988 10.1248 30.1035 9.59154C30.4082 9.05826 30.4387 9.02016 30.4387 9.02016H30.9187C30.9187 9.02016 32.0005 9.24871 32.0005 10.0867C32.0005 10.9248 31.1396 11.1533 31.132 11.1533H29.2274C29.2274 11.1533 28.237 11.0771 28.237 10.0867C28.237 9.09634 29.4559 9.02016 29.4559 9.02016H30.1187V9.04302Z" fill="#D9D9D9"/>
<path d="M19.3575 8.12495L19.3635 8.7225C15.0294 9.05083 11.6922 10.2945 9.5612 11.35L9.99863 12.1056C10.0266 12.1546 10.0337 12.21 10.0229 12.2616C10.2244 12.3276 10.1815 12.4484 10.1815 12.4484C10.1815 12.4484 10.2577 13.2865 9.41965 13.3626C8.69913 13.4281 8.82337 13.1557 8.96922 12.836C8.99301 12.7838 9.01737 12.7304 9.03873 12.677C9.07975 12.5744 9.14284 12.494 9.21316 12.4312L8.81229 11.7387C7.52344 12.4396 6.84465 12.9817 6.84465 12.9817L6.75321 13.0028V13.2865C6.75321 13.416 6.65417 13.515 6.52466 13.515H4.92481C4.91015 13.515 4.89588 13.5137 4.8821 13.5113C4.02219 13.8199 2.42292 14.3765 1.66417 14.5283C0.597595 14.7416 0.704252 14.0483 0.704252 14.0483L0.704252 13.195C0.805743 10.1938 0.569218 8.20657 0.454171 7.23998C0.448315 7.19079 0.442775 7.14424 0.437609 7.10033C0.330952 6.19374 1.33658 6.04137 1.33658 6.04137L4.38074 5.86617C4.36587 5.8298 4.35642 5.79028 4.35343 5.74841L4.28487 4.91038C4.26963 4.69707 4.42962 4.51423 4.63531 4.49899L5.77807 4.40757C5.99138 4.39233 6.17422 4.5447 6.18946 4.75802L6.25802 5.59604C6.26214 5.65361 6.25404 5.70896 6.23583 5.7594L10.8671 5.49285C10.8671 5.49285 11.7661 6.71941 14.0669 5.49285C15.9411 4.49366 18.417 4.37921 19.2705 4.37112C19.2733 4.84629 19.2803 5.43329 19.2895 5.88279L16.4478 6.2897L16.4472 6.28979C16.0011 6.3521 15.7101 6.76199 15.7703 7.19534L15.771 7.20011L15.7718 7.20486C15.8437 7.62439 16.2313 7.9346 16.676 7.87285L16.6766 7.87276L19.3359 7.49196C19.3437 7.7269 19.3511 7.94251 19.3575 8.12495Z" fill="#D9D9D9"/>
<path d="M32.1232 1.10036H31.8168V1.32892H31.1312V2.54534H31.4359V3.64239H45.7601V1.32892H45.0744V1.10036H44.768V1.32892H43.8555V1.10036H43.4729V1.32892H42.4842V1.10036H41.9492V1.32892L40.7319 1.32892V1.10036H39.9684V1.32892H38.9036V1.10036H37.9877V1.32892H36.9228V1.10036H36.1593V1.32892L34.942 1.32892V1.10036H34.4071V1.32892H33.4183V1.10036H33.0357V1.32892H32.1232V1.10036Z" fill="#D9D9D9"/>
</svg>
