<svg width="85" height="17" viewBox="0 0 85 17" fill="none" xmlns="http://www.w3.org/2000/svg">
<path d="M74.3218 4.35692L82.3175 1.23389L79.815 3.9938L84.2373 4.80645L79.4471 6.47064L83.5771 8.97099L74.3218 6.23678L74.8101 5.62378L74.3218 5.37858L74.6875 4.80645L74.3218 4.35692Z" fill="#D9D9D9"/>
<path fill-rule="evenodd" clip-rule="evenodd" d="M24.6216 0.162031C24.6889 0.170351 24.7394 0.22757 24.7394 0.295375L24.7395 0.170528C24.7395 0.127862 24.7761 0.0944025 24.8186 0.0983327L33.4485 0.894361C34.0708 0.951756 34.5468 1.47377 34.5468 2.09871L34.5467 2.75686L34.5466 2.84987H33.9662C34.0773 2.6939 34.1505 2.50858 34.1505 2.32287C34.1505 1.99464 34.0602 1.78401 33.8167 1.5608C33.6918 1.44625 33.5232 1.39545 33.3537 1.39364L26.4865 1.32113C26.1993 1.31808 25.9329 1.47062 25.7902 1.71985L25.3553 2.47926C25.2891 2.59498 25.2711 2.7269 25.2972 2.84987H21.9642C22.0105 2.79945 22.0494 2.74372 22.0718 2.68364L22.3649 1.65243C22.3731 1.62354 22.3995 1.60361 22.4295 1.60361L22.8017 1.6035V0.701886L23.3839 0.163234C23.4717 0.0765218 23.5944 0.0347765 23.7168 0.0499309L24.6216 0.162031ZM22.7801 2.13337V2.42017H22.9056V2.13351L22.7801 2.13337ZM24.5904 2.13351V2.42017H24.7158V2.13337L24.5904 2.13351Z" fill="#D9D9D9"/>
<path fill-rule="evenodd" clip-rule="evenodd" d="M58.096 6.3484C58.0484 6.3484 58.0099 6.30984 58.0099 6.26226V3.53872C58.2226 3.25787 58.4366 2.97787 58.6507 2.69783C59.0845 2.13036 59.5183 1.56275 59.9418 0.987871C59.9685 0.951862 59.9941 0.917021 60.0188 0.883314L60.0193 0.88257L60.0207 0.880623L60.0232 0.877117C60.0236 0.876549 60.024 0.875999 60.0244 0.875454L60.0256 0.873931L60.0347 0.861361C60.1238 0.739772 60.2015 0.634506 60.2792 0.549351C60.4077 0.412715 60.5602 0.3089 60.7631 0.3089C61.2448 0.3089 61.4246 0.759742 61.4246 1.01482L61.4941 6.04928H61.6084C61.6292 6.04928 61.6503 6.05115 61.6705 6.05491C61.6792 6.05654 61.6879 6.05849 61.6965 6.06075C61.7164 6.06603 61.7359 6.07307 61.7546 6.08186L62.0794 6.23411C62.1097 6.24827 62.129 6.27869 62.129 6.31211V6.81114L62.0291 6.90961H61.5611V6.92278C61.5611 6.93468 61.5515 6.94431 61.5396 6.94431H61.3518V7.12807H60.9595L60.9527 7.12789H60.8593C60.8118 7.12789 60.7732 7.08934 60.7732 7.04175V6.27334L60.5961 6.14506V4.53647C60.5961 4.48891 60.5575 4.45032 60.5099 4.45032H58.9366C58.889 4.45032 58.8504 4.48891 58.8504 4.53647V5.86038C58.8504 5.89148 58.8476 5.92262 58.842 5.95322L58.7828 6.27773L58.7828 6.27784L58.7826 6.2784L58.7825 6.27893C58.7785 6.29926 58.7676 6.31678 58.7524 6.32914V6.67578C58.7524 6.79634 58.6853 6.90111 58.5867 6.95422C58.5864 6.95443 58.586 6.95461 58.5856 6.95482L58.5828 6.95631L58.5819 6.95677V7.898C58.5819 7.97675 58.518 8.04059 58.4393 8.04059C58.3605 8.04059 58.2967 7.97675 58.2967 7.898V6.95663L58.2954 6.95599C58.2947 6.95559 58.2939 6.95517 58.2931 6.95475L58.2928 6.95459C58.2925 6.95443 58.2921 6.95427 58.2918 6.95408C58.1934 6.90093 58.1264 6.79623 58.1264 6.67578V6.34847L58.096 6.3484ZM58.8562 3.81996H60.7659C60.8848 3.81996 60.9813 3.72355 60.9813 3.60458L60.981 2.50794H60.9807V2.84247C60.9807 2.69975 60.8649 2.58403 60.7222 2.58403H60.6942C60.5991 2.58403 60.5219 2.50688 60.5219 2.41174V1.94284C60.5219 1.80252 60.4101 1.68833 60.2707 1.68451H60.0065C59.9924 1.68451 59.9784 1.68625 59.965 1.68957C59.9264 1.69917 59.8919 1.7219 59.8679 1.75451L58.6482 3.40811C58.5224 3.57873 58.6442 3.81996 58.8562 3.81996Z" fill="#D9D9D9"/>
<path d="M57.4564 3.62926H57.7198V6.26226C57.7198 6.36936 57.7646 6.46599 57.8364 6.5345V6.56956C57.82 6.57288 57.803 6.57466 57.7855 6.57466H57.4561V6.91885C57.4561 7.06586 57.3379 7.18561 57.1909 7.18759L36.5628 7.46582C36.413 7.46784 36.2904 7.34692 36.2904 7.19708V6.93765L36.2572 6.93294V3.57183L36.2904 3.56708V3.26056C36.2904 3.11026 36.4137 2.98917 36.564 2.99182L57.192 3.3563C57.3386 3.35889 57.4561 3.47846 57.4561 3.62505L57.4564 3.62926Z" fill="#D9D9D9"/>
<path d="M61.7643 4.60944L61.7805 5.78302C61.8137 5.79237 61.8462 5.80444 61.8778 5.81924L62.0276 5.88945H69.1396V4.64695L61.7643 4.60944Z" fill="#D9D9D9"/>
<path fill-rule="evenodd" clip-rule="evenodd" d="M69.4296 4.59664V5.93333L69.4299 6.10547H70.0127V5.97811H70.1948V6.10547H70.5955V5.97811H70.7411V6.10547H70.9979C71.0053 6.10547 71.0113 6.09945 71.0113 6.09205V6.08908H73.0936L73.0937 6.09205C73.0937 6.09566 73.0951 6.09896 73.0975 6.10137C73.0999 6.10391 73.1034 6.10547 73.1071 6.10547H73.5123C73.5331 6.10547 73.5516 6.09612 73.5639 6.0814C73.5737 6.06971 73.5795 6.05466 73.5795 6.03827V4.46069C73.5795 4.42359 73.5494 4.39349 73.5123 4.39349H73.1071C73.0997 4.39349 73.0937 4.39951 73.0937 4.40695L73.0936 4.41049H71.0113V4.40695C71.0113 4.39951 71.0053 4.39349 70.9979 4.39349H70.7411V4.5211H70.5955V4.39349H70.1948V4.5211H70.0127V4.39349H69.4299L69.4296 4.59664ZM72.09 4.5211C72.6702 4.5211 72.9619 4.53884 73.0937 4.56546C73.1624 4.57938 73.1877 4.5956 73.1877 4.61319C73.1877 4.63083 73.1624 4.64722 73.0937 4.66114L73.0936 4.66142C72.9618 4.68819 72.6702 4.70575 72.09 4.70575C71.534 4.70575 71.1957 4.65997 71.1957 4.61337C71.1957 4.56692 71.534 4.5211 72.09 4.5211ZM73.0936 5.33334C72.9618 5.38033 72.6702 5.41167 72.09 5.41167C71.534 5.41167 71.1957 5.33122 71.1957 5.24932C71.1957 5.16757 71.534 5.08712 72.09 5.08712C72.4185 5.08712 72.6545 5.09711 72.8214 5.11428C72.9493 5.12742 73.0367 5.14487 73.0937 5.16519C73.1624 5.18966 73.1877 5.2182 73.1877 5.24907C73.1877 5.25123 73.1875 5.25336 73.1873 5.25548C73.1871 5.25718 73.1868 5.25888 73.1865 5.26055L73.1857 5.26356L73.1844 5.26749C73.1837 5.26947 73.1829 5.27145 73.1819 5.2734C73.1812 5.27485 73.1804 5.2763 73.1795 5.27772L73.1781 5.27991L73.1764 5.28236L73.1745 5.28484L73.1731 5.28654C73.159 5.30335 73.1337 5.31908 73.0936 5.33334Z" fill="#D9D9D9"/>
<path d="M60.306 4.74038V5.88945H59.14L59.1405 4.74038H60.306Z" fill="#D9D9D9"/>
<path fill-rule="evenodd" clip-rule="evenodd" d="M34.5466 3.13993H21.4148V3.21542H20.8811C20.8625 3.21542 20.8469 3.22948 20.845 3.24796L20.7853 3.82722C20.7832 3.84808 20.799 3.86624 20.8197 3.86716L20.0987 3.94198V7.78849C20.6316 7.75698 20.9299 7.74062 21.2058 7.92155C21.4818 8.10252 21.7646 8.38981 21.8551 8.86512L24.3016 8.86501C24.3758 8.86501 24.436 8.92517 24.436 8.99939L24.436 10.9835L24.436 10.9861L24.436 10.9875C24.4364 11.0026 24.4392 11.0184 24.4441 11.0336L24.4451 11.0364L24.4465 11.0405L24.4492 11.0475L24.4502 11.0498C24.4657 11.0853 24.4928 11.1139 24.5271 11.1139H25.3348C25.3955 11.1139 25.4799 11.057 25.5128 10.9606L28.2854 10.9597C28.2906 10.9665 28.2959 10.9731 28.3012 10.9794L28.3057 10.9845C28.3085 10.9878 28.3114 10.9909 28.3142 10.994C28.3174 10.9974 28.3206 11.0006 28.3237 11.0038C28.3268 11.0068 28.3297 11.0096 28.3327 11.0124C28.3369 11.0162 28.341 11.0198 28.345 11.0232C28.4086 11.076 28.4961 11.0995 28.6266 11.0757C28.6327 11.0746 28.6387 11.0733 28.6446 11.0718C28.6518 11.07 28.6589 11.0679 28.6658 11.0655C28.672 11.0634 28.6781 11.0611 28.684 11.0586C28.6991 11.0522 28.7133 11.0447 28.7265 11.0364L28.7334 11.0318L28.7377 11.0289L28.7436 11.0246L28.749 11.0205L28.7548 11.016L28.7593 11.0122L28.7638 11.0084C28.7878 11.0312 28.8196 11.0454 28.8538 11.0472V11.0513L33.8003 10.1051C33.8773 10.0904 33.9277 10.0161 33.913 9.93913C33.8984 9.86301 33.8256 9.81287 33.7495 9.82611C33.6992 9.80823 33.6614 9.77173 33.6614 9.71323V7.86971C33.6614 7.68315 33.7626 7.54659 34.1098 7.31003C34.457 7.07347 34.5463 6.99349 34.5463 6.78285L34.5466 3.13993ZM27.5809 8.76846L26.5069 8.76864C26.1521 9.14137 25.9854 9.38065 25.9962 9.77222C26.0062 10.1375 26.0683 10.232 26.2304 10.4787L26.2572 10.5195L26.2702 10.5395C26.2806 10.5554 26.2894 10.5735 26.2898 10.5927C26.2902 10.6131 26.2805 10.6302 26.2631 10.6453C26.2492 10.6573 26.2309 10.6654 26.2123 10.6646C26.1939 10.6644 26.1757 10.6567 26.1615 10.6412C25.8243 10.2733 25.6941 10.0679 25.6425 9.74177C25.5919 9.42211 25.5725 9.13652 25.7644 8.78393C25.7326 8.78942 25.7013 8.79629 25.6706 8.8045C25.571 8.8312 25.4771 8.87213 25.3914 8.92496C25.3521 8.94921 25.3144 8.97602 25.2787 9.00509C25.0409 9.19866 24.889 9.49374 24.889 9.82431C24.889 10.2319 25.1199 10.5855 25.4581 10.7614H28.2211C28.2243 10.7069 28.2399 10.6468 28.2708 10.6251C28.514 10.4547 28.6386 10.1446 28.6386 9.82427C28.6386 9.37853 28.3627 8.99723 27.972 8.84242C27.8506 8.79434 27.7157 8.76846 27.5809 8.76846Z" fill="#D9D9D9"/>
<path d="M34.8366 6.69125H34.8744V7.22056L35.9672 7.01909V3.48586L34.8744 3.28439V3.62147H34.8366V3.91287H34.8744V3.9958H34.8366V6.69125Z" fill="#D9D9D9"/>
<path d="M33.682 13.9374V10.423L28.8538 11.3466V14.4862C28.8538 14.6524 29.002 14.7795 29.1663 14.754L33.5673 14.0713C33.6333 14.0611 33.682 14.0042 33.682 13.9374Z" fill="#D9D9D9"/>
<path d="M24.1409 11.3425L24.1459 11.3317L24.1459 9.15507L21.8454 9.15511C21.8178 9.5192 21.7395 9.75816 21.711 9.80303L18.2295 14.8574C18.131 15.0009 18.1604 15.1748 18.3035 15.224L21.3358 15.9893C21.4405 16.0191 21.7025 16.0646 21.805 16.0397C21.9816 15.9967 22.1265 15.9091 22.179 15.7443C22.2198 15.6164 22.1759 15.5745 22.1193 15.5206L22.1185 15.5198C22.1111 15.5127 22.1035 15.5054 22.0958 15.4977C22.0877 15.4896 22.0796 15.4811 22.0717 15.4718L22.0712 15.4714L22.0708 15.4709L22.0704 15.4704L22.0668 15.4661C22.0591 15.4571 22.0514 15.448 22.0438 15.4388C22.0296 15.4216 22.0159 15.4038 22.0036 15.385C21.9629 15.3225 21.9332 15.2006 22.0036 15.0659L23.1778 13.1557C23.1778 13.1557 23.2765 13.0006 23.4385 12.9894C23.4707 12.9871 23.5016 12.986 23.531 12.9855C23.5507 12.9852 23.5698 12.9852 23.5882 12.9854L23.6048 12.9856L23.632 12.9861L23.6605 12.9867H23.662L23.6621 12.9867C23.812 12.99 23.9116 12.9923 23.9581 12.8998C24.025 12.767 23.9024 12.5876 23.7828 12.4365C23.7518 12.3974 23.7583 12.1988 23.7828 12.1448L24.1216 11.3865C24.1254 11.3774 24.1293 11.3685 24.1331 11.3597L24.1409 11.3425Z" fill="#D9D9D9"/>
<path d="M19.8087 3.94208V7.81759C18.9255 7.92261 17.6047 8.20831 16.3411 8.52787C13.3602 9.49633 5.70572 12.0932 3.46818 12.8533V12.8911C3.46818 12.902 3.46709 12.9126 3.465 12.9229C3.46804 12.9243 3.47105 12.9258 3.47403 12.9275C3.47771 12.9295 3.48132 12.9318 3.48483 12.9342C3.49095 12.9383 3.49683 12.9431 3.50239 12.9484L4.1076 13.5277C4.1621 13.5799 4.16401 13.6663 4.11185 13.7208C4.05966 13.7753 3.9732 13.7772 3.91871 13.725L3.31349 13.1458C3.28541 13.1189 3.27132 13.083 3.27135 13.0469C3.22267 13.0355 3.18252 13.0019 3.16226 12.9573L2.84512 13.0651C2.70639 13.1092 2.53559 13.1384 2.36436 13.1575C2.12412 13.1844 1.883 13.1915 1.72837 13.193C1.63104 13.194 1.54914 13.1214 1.53409 13.0253C1.01715 9.7274 0.797903 7.75004 0.558868 4.44961C0.541625 4.21157 0.704534 4.0039 0.928273 3.95575C0.960211 3.94885 0.993423 3.94523 1.02752 3.94523L19.8087 3.94208Z" fill="#D9D9D9"/>
</svg>
