<svg xmlns="http://www.w3.org/2000/svg" xml:space="preserve" width="31.724" height="16" viewBox="0 0 8.394 4.233"><g style="display:inline;opacity:1;stroke:none;stroke-width:8.89108"><g style="fill:#d9d9d9;fill-opacity:1;stroke:none;stroke-width:8.89108"><path d="M67.31 6.503h5.061v2.48h-5.844v-.821h.783z" style="display:inline;opacity:1;fill:#d9d9d9;fill-opacity:1;stroke:none;stroke-width:14.1146;stroke-linecap:round;stroke-linejoin:round;stroke-miterlimit:10.8;paint-order:fill markers stroke" transform="matrix(.11241 0 0 .11253 -3.327 .065)"/></g><g style="display:inline;opacity:1;fill:#d9d9d9;fill-opacity:1;stroke:none;stroke-width:8.89108" transform="matrix(.11241 0 0 .11253 -3.327 -.056)"><circle cx="33.416" cy="34.778" r=".641" style="display:inline;opacity:1;fill:#d9d9d9;fill-opacity:1;stroke:none;stroke-width:4.57548;stroke-linecap:round;stroke-linejoin:round;stroke-miterlimit:10.8;stroke-dasharray:none;stroke-opacity:1;paint-order:fill markers stroke"/><path d="M33.416 35.045v2.719" style="fill:#d9d9d9;fill-opacity:1;stroke:#d9d9d9;stroke-width:.705728;stroke-linecap:round;stroke-linejoin:round;stroke-miterlimit:10.8;stroke-dasharray:none;stroke-opacity:1;paint-order:fill markers stroke"/></g><path d="M41.938 10.11c.071-.475-.292-.664-.667-.964l-1.695-1.352-4.427 2.071c-.145-.404.047-.562.931-.954 1.889-.838 2.555-3.264.686-4.832l.552-.691.615.434.828-1.037c.802-.39 1.691-1.553 2.092-2.408-.219 1.39-1.124 2.348-1.932 3.271l.077.684 2.18 1.74.628-.247 3.773 2.525c-.883 1.341-1.746 1.666-3.641 1.76" style="display:inline;opacity:1;fill:#d9d9d9;fill-opacity:1;stroke:none;stroke-width:6.86438;stroke-linecap:round;stroke-linejoin:round;stroke-miterlimit:10.8;stroke-dasharray:none;stroke-opacity:1;paint-order:fill markers stroke" transform="matrix(.11241 0 0 .11253 -3.327 .065)"/><path d="M48.434.784c-1.152 0-1.186.085-1.186 1.235 0 8.809-2.61 9.114-8.465 8.415-.286-.035-1.11.463-1.329.785-.262 1.85-.165 2.187-1.02 3.215 4.729-.862 6.676.564 7.55 4.951 2.08-1.806 4.64-2.17 7.048-2.3 1.59-1.466 4.168-2.003 11.016-2.003a1.19 1.19 0 0 0 1.094-.754c.768-2.053.068-4.705 2.722-5.02V7.572h.842V2.566c0-.455-.038-1.378-13.67-1.378-4.942 0-3.086-.404-4.602-.404m3.163 2.03h10.134v9.372h-7.288v.372h-2.146v1.192H48.13V9.942l1.462-1.502V3.535h2.006z" style="display:inline;opacity:1;fill:#d9d9d9;fill-opacity:1;stroke:none;stroke-width:4.57548;stroke-linecap:round;stroke-linejoin:round;stroke-miterlimit:10.8;stroke-dasharray:none;stroke-opacity:1;paint-order:fill markers stroke" transform="matrix(.11241 0 0 .11253 -3.327 .065)"/><path d="M38.654 14.834c-.943-.013-1.975.256-3.034.826-4.183 4.5-5.935 13.925-6.019 15.754-.04.877.075 1.095.497 1.25 1.525.558 4.857 1.377 7.512 1.377.973 0 .787-.537.837-.748.05-.209.961-6.045.961-6.045.072-.451-.11-.748-.11-.748s1.384-4.742 3.816-6.38c-.22-3.382-2.05-5.254-4.46-5.286" style="display:inline;opacity:1;fill:#d9d9d9;fill-opacity:1;stroke:none;stroke-width:18.8194;stroke-linecap:round;stroke-linejoin:round;stroke-miterlimit:10.8;stroke-dasharray:none;stroke-opacity:1;paint-order:fill markers stroke" transform="matrix(.11241 0 0 .11253 -3.327 .065)"/><path d="M72.895 8.01h1.214" style="fill:#d9d9d9;fill-opacity:1;stroke:#d9d9d9;stroke-width:.705728;stroke-linecap:butt;stroke-linejoin:round;stroke-miterlimit:10.8;stroke-dasharray:none;stroke-opacity:1;paint-order:fill markers stroke" transform="matrix(.11241 0 0 .11253 -3.327 .065)"/><path d="M74.56 7.124h2.824v1.77H74.56z" style="display:inline;fill:#d9d9d9;fill-opacity:1;stroke:none;stroke-width:4.57548;stroke-linecap:round;stroke-linejoin:round;stroke-miterlimit:10.8;stroke-dasharray:none;stroke-opacity:1;paint-order:fill markers stroke" transform="matrix(.11241 0 0 .11253 -3.327 .065)"/><path d="M44.534 19.901c1.555-1.07 3.111-1.764 5.13-1.953-.9.84-1.207 2.258-1.303 3.541-1.264-1.553-2.246-1.856-3.827-1.588M57.17 15.913c1.42.305 2.623.958 3.548 2.585.165-.878.38-1.983 1.275-2.747-1.609-.013-3.782.015-4.823.162" style="display:inline;opacity:1;fill:#d9d9d9;fill-opacity:1;stroke:none;stroke-width:6.86438;stroke-linecap:round;stroke-linejoin:round;stroke-miterlimit:10.8;stroke-dasharray:none;stroke-opacity:1;paint-order:fill markers stroke" transform="matrix(.11241 0 0 .11253 -3.327 .065)"/><path d="M48.048 20.69c2.18 4.82 13.388 2.693 12.53-3.027" style="display:inline;opacity:1;fill:none;fill-opacity:1;stroke:#d9d9d9;stroke-width:.705728;stroke-linecap:round;stroke-linejoin:round;stroke-miterlimit:10.8;stroke-dasharray:none;stroke-opacity:1;paint-order:fill markers stroke" transform="matrix(.11241 0 0 .11253 -3.327 .065)"/><path d="M52.865 16.9c.434 1.174.522.712.27 1.549-.464 1.542 1.356 2.769 2.38 2.944-1.388-.868-2.984-3.134.577-5.363-1.374.158-2.34.309-3.227.87" style="display:inline;opacity:1;fill:#d9d9d9;fill-opacity:1;stroke:none;stroke-width:4.57548;stroke-linecap:round;stroke-linejoin:round;stroke-miterlimit:10.8;stroke-dasharray:none;stroke-opacity:1;paint-order:fill markers stroke" transform="matrix(.11241 0 0 .11253 -3.327 .065)"/><g style="fill:#d9d9d9;fill-opacity:1;stroke:none;stroke-width:14.1146;stroke-dasharray:none"><path d="M86.109 2.28c0-1.46.98-2.236 2.19-2.236s2.19.73 2.19 2.236" style="fill:#d9d9d9;fill-opacity:1;stroke:none;stroke-width:4.57548;stroke-linecap:round;stroke-linejoin:round;stroke-miterlimit:10.8;stroke-dasharray:none;paint-order:fill markers stroke" transform="matrix(.11241 0 0 .11253 -3.327 .065)"/><g style="fill:#d9d9d9;fill-opacity:1;stroke:none;stroke-width:14.1146;stroke-dasharray:none"><path d="M72.895 2.722h18.406v2.91H72.895Z" style="display:inline;opacity:1;fill:#d9d9d9;fill-opacity:1;stroke:none;stroke-width:6.86438;stroke-linecap:round;stroke-linejoin:round;stroke-miterlimit:10.8;stroke-dasharray:none;paint-order:fill markers stroke" transform="matrix(.11241 0 0 .11253 -3.327 .065)"/></g><g style="fill:#d9d9d9;fill-opacity:1;stroke:none;stroke-width:14.1146;stroke-dasharray:none"><path d="M67.31 2.41h5.061v3.535h-5.06z" style="fill:#d9d9d9;fill-opacity:1;stroke:none;stroke-width:14.1146;stroke-linecap:round;stroke-linejoin:round;stroke-miterlimit:10.8;stroke-dasharray:none;paint-order:fill markers stroke" transform="matrix(.11241 0 0 .11253 -3.327 .065)"/></g></g><g style="fill:#d9d9d9;fill-opacity:1;stroke:none;stroke-width:8.89108"><path d="M54.442 3.388h-2.146v.147h1.25V5.96h-1.25l.001 5.969h1.493v-.253h.652zM55.055 3.388v8.288h6.115V3.388Z" style="display:inline;fill:#d9d9d9;fill-opacity:1;stroke:none;stroke-width:2.22304;stroke-linecap:round;stroke-linejoin:round;stroke-miterlimit:10.8;stroke-dasharray:none;paint-order:fill markers stroke" transform="matrix(.11241 0 0 .11253 -3.327 .065)"/></g><g style="display:inline;opacity:1;fill:#d9d9d9;fill-opacity:1;stroke:none;stroke-width:4.57548;stroke-dasharray:none"><path d="M51.786 13.173h-2.882V10.2l1.502-1.502v-4.57h2.65v1.19h-1.27z" style="fill:#d9d9d9;fill-opacity:1;stroke:none;stroke-width:4.57548;stroke-linecap:round;stroke-linejoin:round;stroke-miterlimit:10.8;stroke-dasharray:none;stroke-opacity:1;paint-order:fill markers stroke" transform="matrix(.11241 0 0 .11253 -3.348 .065)"/></g><path d="m92.899 3.075.856.389-.779.855.7.622-.466.622 10.43 2.954-3.348-2.643 3.814-1.788-3.891-1.4 4.047-3.265z" style="fill:#d9d9d9;fill-opacity:1;stroke:none;stroke-width:.705728;stroke-linecap:butt;stroke-linejoin:round;stroke-miterlimit:10.8;stroke-dasharray:none;stroke-opacity:1;paint-order:fill markers stroke" transform="matrix(.11241 0 0 .11253 -3.327 .065)"/></g></svg>