<svg width="99" height="17" viewBox="0 0 99 17" fill="none" xmlns="http://www.w3.org/2000/svg">
<path d="M97.7174 0.736328L86.7729 3.3227L87.2577 3.48483L86.7729 3.85176L87.1211 4.1419L86.7729 4.36752L97.0762 7.39322L95.4574 5.25628L98.53 4.26595L95.2797 3.09786L97.7174 0.736328Z" fill="#D9D9D9"/>
<path d="M74.5046 2.77225C74.5155 2.82201 74.5263 2.8796 74.5369 2.94641C74.5869 3.26325 74.6337 3.81036 74.6344 4.7582C74.6344 4.7582 74.6463 4.86452 74.6507 4.9179C74.6593 5.02348 74.667 5.16843 74.6615 5.31684C74.6567 5.4454 74.6415 5.60021 74.5954 5.73848H74.8375V5.45748H74.8791C74.8723 5.49029 74.8687 5.52428 74.8687 5.5591C74.8687 5.83501 75.0924 6.05868 75.3683 6.05868C75.6442 6.05868 75.8679 5.83501 75.8679 5.5591C75.8679 5.52428 75.8643 5.49029 75.8575 5.45748H78.5523V5.8659H78.4477V6.05853H79.2314V5.8659H79.1471V5.45748H84.885C84.885 5.45748 85.0402 5.15894 85.0402 4.8116H74.8375V4.17744H82.5887V4.50123H85.1178V4.2086H85.6642V4.08375H86.195V3.46708H85.6642V3.25628H85.1178L85.1178 3.1549H84.0172V2.16345C84.0172 1.76535 83.6972 1.44531 83.2991 1.44531H83.0571C82.659 1.44531 82.339 1.76535 82.339 2.16345V3.31099H74.8375V2.77225H74.5046Z" fill="#D9D9D9"/>
<path d="M60.2441 2.7724V4.3945H52.3968L50.8544 3.49968C50.7828 3.45691 50.6672 3.41426 50.5973 3.41426H41.7652C41.6989 3.41426 41.6702 3.36646 41.6702 3.30764L41.6702 2.74659H41.5791C41.5515 2.70562 41.5184 2.6698 41.4806 2.63964H44.7849V2.54599H45.5342V2.63964H59.7956V2.7724H60.2441Z" fill="#D9D9D9"/>
<path d="M41.3598 5.04387L41.3595 4.67612L37.5525 4.67613V3.36019L36.606 3.60759H32.8965V2.9519L32.2495 2.46857C32.1173 2.56807 31.7115 2.57788 31.5554 2.57784C31.5156 2.57785 31.4915 2.57722 31.4915 2.57722C30.0786 2.57722 29.5556 1.47659 29.5556 1.47659C29.5556 1.47659 29.4676 1.45782 29.3419 1.45774C29.0308 1.45795 28.4912 1.57305 28.4801 2.36646C28.4669 3.31557 28.2551 3.3733 28.1978 3.38137L25.0065 3.7559L24.7333 5.04387H41.3598Z" fill="#D9D9D9"/>
<path d="M41.3598 3.33832C41.3629 3.61496 41.6398 3.72463 41.7652 3.72463H50.5973C50.6144 3.72463 50.6689 3.74825 50.6888 3.76227L51.7455 4.39446L37.8628 4.39441V3.0596H38.1907V3.73246H39.4162C39.4162 3.73246 39.908 3.55293 39.9236 3.25631C39.927 3.19192 39.9491 3.10883 39.9658 3.06073C40.03 2.90806 40.1535 2.84428 40.2514 2.84428H41.1725C41.1725 2.84428 41.3598 2.83648 41.3598 3.07065V3.33832Z" fill="#D9D9D9"/>
<path d="M39.6324 3.09402L38.501 3.11556V3.4221H39.3542C39.3914 3.40488 39.4477 3.37637 39.4937 3.34614C39.5413 3.31491 39.5768 3.28439 39.5983 3.25833C39.6083 3.24625 39.6145 3.23683 39.6145 3.23402C39.6173 3.18478 39.623 3.13897 39.6324 3.09402Z" fill="#D9D9D9"/>
<path d="M74.1349 2.63964H60.5544V6.13663C60.7256 6.13268 73.7237 5.83224 74.0959 5.83224C74.1648 5.83224 74.2177 5.79662 74.2554 5.73848C74.4228 5.48037 74.324 4.77845 74.324 4.77845C74.324 3.5114 74.2394 2.98362 74.1839 2.77225C74.1559 2.66589 74.1349 2.63964 74.1349 2.63964Z" fill="#D9D9D9"/>
<path d="M29.8783 9.06031C29.7498 9.05514 29.6144 9.04943 29.4715 9.04311L29.4698 9.81469L28.6702 10.3768H26.9124C26.9124 10.3768 26.1992 9.59332 26.1992 9.37612C26.1965 9.18542 26.2365 9.03411 26.2904 8.91743C26.1272 8.92914 25.9667 8.94794 25.8091 8.97314C25.9353 8.97672 26.0365 9.08017 26.0365 9.20728C26.0365 9.33664 25.9317 9.44151 25.8023 9.44151C25.6729 9.44151 25.5681 9.33664 25.5681 9.20728C25.5681 9.10725 25.6308 9.02187 25.719 8.98828C25.5741 9.01386 25.427 9.04624 25.2872 9.08203C25.2941 9.43479 25.4827 9.65954 25.8791 9.61029C26.1689 10.0453 26.3673 10.3266 26.743 10.7027H28.7709L29.6543 10.0864H30.3207C30.5002 10.0864 30.6407 9.94594 30.6407 9.76641V9.08737C30.4976 9.08306 30.3399 9.07809 30.1693 9.07182C30.2271 9.12234 30.3153 9.22809 30.3153 9.41518C30.3153 9.63523 30.1798 9.81579 30.0162 9.81579C29.8526 9.81579 29.7172 9.63523 29.7172 9.41518C29.7172 9.26175 29.783 9.12753 29.8783 9.06031Z" fill="#D9D9D9"/>
<path d="M41.6702 5.35424H24.1706C23.1764 5.89588 20.5678 7.19631 19.1669 6.63799C19.1258 6.6216 19.0846 6.60468 19.0433 6.5877C18.7883 6.48295 18.5287 6.37627 18.2557 6.38289L1.94629 6.77665C1.94629 6.77665 0.742044 6.77665 0.853474 9.10279C0.978367 11.71 1.24377 16.4481 2.03997 16.5886L2.54735 16.737L3.67139 16.659L16.5979 12.0691C16.5979 12.0691 17.1239 11.7932 20.0988 12.325C20.2852 12.3583 20.4743 12.2781 20.5868 12.1257C21.1222 11.4005 22.8265 9.34427 25.3203 8.75342C25.7118 8.66065 26.1245 8.60406 26.5535 8.59437C26.7113 8.59085 26.8717 8.59359 27.0344 8.60332C27.1263 8.60882 27.2166 8.61416 27.3054 8.61936C27.2236 8.78054 27.089 9.10276 27.089 9.45425C27.089 9.71285 27.0997 9.8545 27.1309 9.91694C27.1387 9.93255 27.2268 10.0761 27.335 10.0394C27.4432 10.0027 27.3738 9.91694 27.3738 9.91694C27.327 9.81547 27.2407 9.50324 27.4826 9.23003C27.5431 9.16091 27.6 9.08613 27.6571 9.01111C27.7526 8.88552 27.8487 8.75911 27.9636 8.65681C28.5389 8.68852 29.038 8.71321 29.4698 8.73237C30.2439 8.76672 30.8037 8.78336 31.1976 8.79074L31.4631 8.79464L31.7335 9.07162L38.8212 9.10289C38.8212 9.10289 40.1326 8.46281 40.7883 8.41598C41.444 8.36914 57.6802 7.10459 59.1165 6.9875C59.1789 6.9797 59.2398 6.93777 59.2788 6.88313C59.3636 7.03832 59.5283 7.14359 59.7176 7.14359C59.9559 7.14359 60.1553 6.97668 60.2051 6.75336L60.2441 6.75382V4.67623L41.6702 4.67612V5.35424Z" fill="#D9D9D9"/>
</svg>
