<svg width="99" height="17" viewBox="0 0 99 17" fill="none" xmlns="http://www.w3.org/2000/svg">
<path d="M74.5044 2.38552C74.5153 2.43529 74.5262 2.49288 74.5367 2.55968C74.5867 2.87653 74.6335 3.42363 74.6342 4.37147C74.6352 4.37955 74.6328 4.35965 74.6342 4.37147C74.6342 4.37147 74.6461 4.4778 74.6505 4.53117C74.6591 4.63675 74.6668 4.78171 74.6613 4.93011C74.6565 5.05868 74.6413 5.21348 74.5952 5.35175H74.8373V5.07075H74.8789C74.8721 5.10356 74.8686 5.13755 74.8686 5.17237C74.8686 5.44828 75.0922 5.67195 75.3681 5.67195C75.644 5.67195 75.8677 5.44828 75.8677 5.17237C75.8677 5.13755 75.8641 5.10356 75.8574 5.07075H78.5521V5.47917H78.4475V5.6718H79.2312V5.47917H79.1469V5.07075H84.8848C84.8848 5.07075 85.04 4.77221 85.04 4.42487H74.8373V3.79072H82.5885V4.11451H85.1176V3.82187H85.664V3.69702H86.1948V3.08036H85.664V2.86956H85.1176L85.1176 2.76818H84.017V1.77673C84.017 1.37863 83.697 1.05859 83.2989 1.05859H83.0569C82.6588 1.05859 82.3388 1.37863 82.3388 1.77673V2.92427H74.8373V2.38552H74.5044Z" fill="#D9D9D9"/>
<path fill-rule="evenodd" clip-rule="evenodd" d="M24.1705 4.96751H41.6701V4.31959L60.2439 4.3197V6.36709L60.205 6.36663C60.1551 6.58995 59.9558 6.75686 59.7174 6.75686C59.5281 6.75686 59.3634 6.65159 59.2787 6.49639C59.2397 6.55104 59.1788 6.59296 59.1163 6.60077C57.6801 6.71786 41.4439 7.9824 40.7882 8.02924C40.1325 8.07607 38.8211 8.71615 38.8211 8.71615L31.7334 8.68489L31.463 8.40791L30.6406 8.40394V9.37967C30.6406 9.5592 30.5001 9.69971 30.3206 9.69971H29.6543L28.7708 10.316H26.7429C26.3672 9.93985 26.1688 9.65857 25.8791 9.22355C25.0813 9.32267 25.3202 8.36668 25.3202 8.36668C22.8265 8.95754 21.1221 11.0138 20.5867 11.739C20.4743 11.8913 20.2852 11.9715 20.0988 11.9382C17.1239 11.4065 16.5979 11.6824 16.5979 11.6824L3.67139 16.2722L2.54735 16.3503L2.03996 16.2019C1.24377 16.0614 0.978367 11.3232 0.853473 8.71606C0.742044 6.38991 1.94629 6.38991 1.94629 6.38991L18.2556 5.99616C18.5287 5.98953 18.7883 6.09621 19.0433 6.20097C19.0846 6.21795 19.1258 6.23487 19.1669 6.25125C20.5678 6.80958 23.1764 5.50915 24.1705 4.96751ZM26.5536 8.20753C26.7114 8.20401 26.8717 8.20685 27.0343 8.21658C27.1262 8.22208 27.2165 8.22743 27.3053 8.23263C27.2236 8.3938 27.089 8.71602 27.089 9.06752C27.089 9.32611 27.0996 9.46776 27.1308 9.5302C27.1387 9.54581 27.2268 9.6894 27.3349 9.65266C27.4431 9.61592 27.3737 9.5302 27.3737 9.5302C27.3269 9.42873 27.2406 9.1165 27.4826 8.84329C27.5431 8.77417 27.5999 8.6994 27.657 8.62437C27.7525 8.49878 27.8487 8.37237 27.9636 8.27008C28.5389 8.30179 29.0379 8.32648 29.4698 8.34564V9.42795L28.6701 9.99005H26.9123C26.9123 9.99005 26.1991 9.20658 26.1991 8.98938C26.1913 8.42736 26.5536 8.20753 26.5536 8.20753ZM25.8022 9.05477C25.9316 9.05477 26.0365 8.9499 26.0365 8.82054C26.0365 8.69117 25.9316 8.58631 25.8022 8.58631C25.6729 8.58631 25.568 8.69117 25.568 8.82054C25.568 8.9499 25.6729 9.05477 25.8022 9.05477ZM30.0161 9.42905C29.8525 9.42905 29.7171 9.24849 29.7171 9.02844C29.7171 8.80839 29.8525 8.62783 30.0161 8.62783C30.1798 8.62783 30.3152 8.80839 30.3152 9.02844C30.3152 9.24849 30.1798 9.42905 30.0161 9.42905Z" fill="#D9D9D9"/>
<path d="M60.2439 4.03798V2.38568H59.7954V2.25292H45.5341V2.15927H44.7848V2.25292H41.4805C41.5183 2.28308 41.5514 2.3189 41.579 2.35986H41.6701L41.6701 2.92092C41.6701 2.97973 41.6988 3.02754 41.7651 3.02754H50.5972C50.6671 3.02754 50.7827 3.07018 50.8543 3.11296L52.3967 4.03798H60.2439Z" fill="#D9D9D9"/>
<path d="M41.3597 4.65714L41.3594 4.31959L37.5524 4.3196V2.97346L36.606 3.22087H32.8965V2.56517L32.2494 2.08185C32.1172 2.18135 31.7114 2.19115 31.5553 2.19112C31.5155 2.19113 31.4914 2.19049 31.4914 2.19049C30.0786 2.19049 29.5556 1.08987 29.5556 1.08987C29.5556 1.08987 29.4676 1.0711 29.3419 1.07102C29.0307 1.07123 28.4912 1.18633 28.4801 1.97974C28.4668 2.92885 28.255 2.98657 28.1978 2.99465L25.0065 3.36918L24.7333 4.65714H41.3597Z" fill="#D9D9D9"/>
<path d="M41.6261 3.3379C41.5007 3.3379 41.3628 3.22824 41.3598 2.9516V2.71088C41.3598 2.47671 41.1724 2.48451 41.1724 2.48451H40.2513C40.1534 2.48451 40.0299 2.54829 39.9657 2.70096C39.949 2.74906 39.9269 2.8052 39.9235 2.86958C39.9079 3.1662 39.4161 3.34574 39.4161 3.34574H38.1906V2.70308H37.8627V4.03788L51.7454 4.03793L50.6887 3.37554C50.6688 3.36153 50.6143 3.3379 50.5972 3.3379H41.6261Z" fill="#D9D9D9"/>
<path d="M39.6323 2.7073L38.5009 2.72883V3.03537H39.3541C39.3913 3.01815 39.4476 2.98965 39.4936 2.95941C39.5412 2.92819 39.5767 2.89766 39.5982 2.87161C39.6082 2.85953 39.6144 2.85011 39.6144 2.8473C39.6172 2.79806 39.6229 2.75225 39.6323 2.7073Z" fill="#D9D9D9"/>
<path d="M60.5543 2.25292H74.1348C74.1348 2.25292 74.1558 2.27916 74.1837 2.38552C74.2392 2.59689 74.3238 3.12468 74.3238 4.39172C74.3238 4.39172 74.4226 5.09364 74.2552 5.35175C74.2175 5.40989 74.1646 5.44551 74.0957 5.44551C73.7235 5.44551 60.7254 5.74595 60.5543 5.7499V2.25292Z" fill="#D9D9D9"/>
<path d="M97.7174 0.349609L86.7729 2.93597L87.2577 3.09811L86.7729 3.46504L87.1211 3.75517L86.7729 3.98079L97.0762 7.00648L95.4574 4.86955L98.53 3.87922L95.2797 2.71114L97.7174 0.349609Z" fill="#D9D9D9"/>
</svg>
