<svg xmlns="http://www.w3.org/2000/svg" width="93.668" height="16" fill="none"><path fill="#d9d9d9" d="M92.89 0 82.394 2.48l.464.156-.464.351.333.279-.333.216 9.88 2.901-1.553-2.049 2.946-.95-3.116-1.12zM70.661 2.12q-.015-.097-.03-.168h.319v.517h7.193v-1.1c0-.382.307-.69.688-.69h.232c.382 0 .689.308.689.69v.95h1.055v.097h.524v.202h.51v.592h-.51v.12h-.524v.28h-2.425V3.3H70.95v.608h9.783c0 .333-.149.619-.149.619h-5.502v.392h.081v.184h-.751V4.92h.1v-.392h-2.584a.48.48 0 0 1-.47.576.48.48 0 0 1-.468-.576h-.04v.27h-.232a1.5 1.5 0 0 0 .063-.405 3.4 3.4 0 0 0-.026-.536c0-.908-.046-1.433-.094-1.737M56.956 3.508V1.952h-.43v-.127H42.851v-.09h-.719v.09h-3.168a.5.5 0 0 1 .094.102h.088v.538c0 .057.027.103.09.103h8.47c.067 0 .178.04.246.082l1.48.858zm-18.108.622v-.352h-3.65V2.516l-.908.237h-3.557v-.629l-.62-.463c-.164.123-.452.113-.665.106l-.062-.002C28.03 1.765 27.529.71 27.529.71s-.084-.018-.205-.018c-.298 0-.815.11-.826.871-.013.91-.216.965-.27.973l-3.06.36-.263 1.234z"/><path fill="#d9d9d9" d="M39.237 2.865c-.12 0-.386-.105-.389-.37v-.257c0-.224-.18-.217-.18-.217h-.883c-.094 0-.212.061-.273.208a.8.8 0 0 0-.041.187c-.015.285-.487.457-.487.457H35.81v-.645h-.314v1.28h13.312L47.794 2.9a.3.3 0 0 0-.088-.036z"/><path fill="#d9d9d9" d="m37.192 2.26-1.085.021v.294h.818a1 1 0 0 0 .134-.073.5.5 0 0 0 .1-.084l.016-.023a1 1 0 0 1 .017-.134m20.062-.436h13.022s.02.025.047.127c.053.203.134.709.134 1.924 0 0 .095.673-.065.92-.037.056-.087.09-.153.09-.357 0-12.821.288-12.985.292zM27.839 7.982q-.185-.007-.39-.017l-.002.74-.767.539h-1.685s-.684-.751-.684-.96a1 1 0 0 1 .087-.44 5 5 0 0 0-.461.054.225.225 0 1 1-.087.015c-.139.024-.28.055-.414.09.007.338.188.553.568.506.278.417.468.687.828 1.048h1.945l.847-.591h.639a.304.304 0 0 0 .307-.307v-.651l-.452-.015a.42.42 0 0 1 .14.329c0 .21-.13.384-.287.384s-.287-.173-.287-.384c0-.147.063-.276.155-.34"/><path fill="#d9d9d9" d="M22.366 4.428h16.78v-.65h17.81V5.77h-.037a.48.48 0 0 1-.888.124.24.24 0 0 1-.156.1c-1.377.112-16.946 1.325-17.575 1.37s-1.886.658-1.886.658l-6.796-.03-.26-.265-.254-.004a66 66 0 0 1-1.657-.056 135 135 0 0 1-1.444-.072c-.11.098-.203.219-.294.34q-.082.108-.167.21a.62.62 0 0 0-.105.658s.067.082-.037.117-.188-.102-.196-.117c-.03-.06-.04-.196-.04-.444 0-.337.13-.646.208-.8l-.26-.016a5.6 5.6 0 0 0-1.644.144c-2.391.567-4.025 2.539-4.539 3.234a.48.48 0 0 1-.468.191c-2.852-.51-3.357-.245-3.357-.245l-12.395 4.4-1.078.076-.486-.142C.38 15.066.127 10.522.007 8.022c-.107-2.23 1.048-2.23 1.048-2.23l15.639-.378c.262-.006.51.096.755.197l.119.048c1.343.535 3.844-.712 4.798-1.231m32.632 2.84a.3.3 0 0 1-.13.372c-7.5 4.205-13.954 6.557-21.218 7.632-7.257 1.073-15.307.87-25.99-.018a.298.298 0 0 1 .005-.593c10.572-.72 18.462-1.505 26.377-2.87l.106.586c-6.907 1.19-13.792 1.941-22.439 2.592 8.722.609 15.594.64 21.854-.286 6.463-.956 12.283-2.934 18.815-6.367-5.705 1.505-10.68 2.657-15.53 3.573l-.105-.586c5.508-1.04 11.176-2.386 17.901-4.21a.3.3 0 0 1 .354.175"/><path fill="#d9d9d9" d="m34.31 11.594.15.84c.008.04.046.067.087.06l1.969-.355a.074.074 0 0 0 .06-.086l-.151-.84a.074.074 0 0 0-.087-.06l-1.969.355a.074.074 0 0 0-.06.086M7.607 14.368l-.482-.352-.98.348.956.7a.597.597 0 0 1 .506-.696M55.912 6.29l.064-.013q.139.11.32.148l-.977.97a.595.595 0 0 0-.607-.609l.438-.436.75-.06z"/></svg>