<svg xmlns="http://www.w3.org/2000/svg" xmlns:xlink="http://www.w3.org/1999/xlink" xml:space="preserve" width="56.571" height="16" viewBox="0 0 14.968 4.233"><defs><linearGradient id="a" x1="40.471" x2="40.484" y1="5.004" y2="5.516" gradientUnits="userSpaceOnUse"><stop offset="0" stop-color="#d9d9d9"/><stop offset=".516" stop-color="#d9d9d9" stop-opacity=".2"/><stop offset="1" stop-color="#d9d9d9" stop-opacity=".2" style="stop-color:#d9d9d9;stop-opacity:1"/></linearGradient><linearGradient xlink:href="#a" id="b" x1="40.39" x2="40.39" y1="4.404" y2="6.92" gradientTransform="matrix(.25412 0 0 .24857 1.72 .321)" gradientUnits="userSpaceOnUse"/></defs><path d="M6.282 0v.216H5.196v.8h2.065V0ZM4.465.338v.638h.334v.04h.133V.338Z" style="fill:#d9d9d9;fill-opacity:1;fill-rule:evenodd;stroke:none;stroke-width:2.11667;stroke-linecap:round;stroke-linejoin:round;stroke-miterlimit:29;stroke-dasharray:none;stroke-opacity:1"/><g style="fill:#d9d9d9;fill-opacity:1;stroke:none;stroke-width:28.9358"><path d="M67.592 62.413c6.605 6.113.678 10.539-.302 10.81-2.418.194-5.043-2.645-5.043-2.645 4.986-3.857 5.326-7.916 5.345-8.165M77.001 92.905s.21 2.013 2.322 1.711 1.644-2.128 1.644-2.128-2.902.127-3.966.417" style="fill:#d9d9d9;fill-opacity:1;fill-rule:evenodd;stroke:none;stroke-width:61.2475;stroke-linecap:round;stroke-linejoin:round;stroke-miterlimit:29;stroke-dasharray:none;stroke-opacity:1" transform="matrix(-.03456 0 0 .03456 10.397 .45)"/><path d="M68.798 62.024s7.877 6.5-.123 12.148c0 0 5.52 5.248 3.006 14.824 0 0-.677 2.709 1.45 2.902 2.129.194 5.515-1.064 9.19-.677 0 0 1.258-.677 1.258-2.418v-26.78z" style="fill:#d9d9d9;fill-opacity:1;fill-rule:evenodd;stroke:none;stroke-width:61.2475;stroke-linecap:round;stroke-linejoin:round;stroke-miterlimit:29;stroke-dasharray:none;stroke-opacity:1" transform="matrix(-.03456 0 0 .03456 10.397 .45)"/></g><path d="M9.85 1.017V.89s-.123-.01-.307.105l-.137.023Z" style="fill:#d9d9d9;fill-opacity:1;fill-rule:evenodd;stroke:none;stroke-width:2.11667;stroke-linecap:round;stroke-linejoin:round;stroke-miterlimit:29;stroke-dasharray:none;stroke-opacity:1"/><g style="fill:#d9d9d9;fill-opacity:1;stroke:none;stroke-width:28.9358"><g style="fill:#d9d9d9;fill-opacity:1;stroke:none;stroke-width:28.9358"><path d="M141.126 63.01s-.606 3.978 4.543 3.978h12.97s3.421-.323 3.421-3.978z" style="fill:#d9d9d9;fill-opacity:1;fill-rule:evenodd;stroke:none;stroke-width:61.2475;stroke-linecap:round;stroke-linejoin:round;stroke-miterlimit:29;stroke-dasharray:none;stroke-opacity:1" transform="matrix(-.03456 0 0 .03456 10.397 .417)"/><path d="M151.773 69.736h-4.891s-3.423.267-3.423 3.423v31.611s-.09 2.512 2.512 2.512h5.802" style="fill:none;fill-opacity:1;fill-rule:evenodd;stroke:#d9d9d9;stroke-width:1.53119;stroke-linecap:butt;stroke-linejoin:round;stroke-miterlimit:29;stroke-dasharray:none;stroke-opacity:1" transform="matrix(-.03456 0 0 .03456 10.397 .417)"/><path d="M153.135 68.392h7.647v41.092h-7.647z" style="fill:#d9d9d9;fill-opacity:1;fill-rule:evenodd;stroke:none;stroke-width:61.2475;stroke-linecap:round;stroke-linejoin:round;stroke-miterlimit:29;stroke-dasharray:none;stroke-opacity:1" transform="matrix(-.03456 0 0 .03456 10.397 .417)"/></g><g style="fill:#d9d9d9;fill-opacity:1;stroke:none;stroke-width:28.9358"><path d="M173.928 41.875h65.755v-.735h4.904v18.592h-4.904v-.754h-65.755z" style="fill:#d9d9d9;fill-opacity:1;fill-rule:evenodd;stroke:none;stroke-width:61.2475;stroke-linecap:round;stroke-linejoin:round;stroke-miterlimit:29;stroke-dasharray:none;stroke-opacity:1" transform="matrix(-.03456 0 0 .03456 10.345 .423)"/></g><g style="fill:#d9d9d9;fill-opacity:1;stroke:none;stroke-width:28.9358"><path d="M173.928 41.875h65.755v-.735h4.904v18.592h-4.904v-.754h-65.755z" style="display:inline;fill:#d9d9d9;fill-opacity:1;fill-rule:evenodd;stroke:none;stroke-width:61.2475;stroke-linecap:round;stroke-linejoin:round;stroke-miterlimit:29;stroke-dasharray:none;stroke-opacity:1" transform="matrix(-.03456 0 0 .03456 10.345 -.322)"/></g></g><g style="fill:#d9d9d9;fill-opacity:1;stroke:none;stroke-width:28.9358"><path d="M20.54 62.21v.656h10.048v3.554h-4.446v-1.064H22.23l-.162.87H18.14V62.21z" style="fill:#d9d9d9;fill-opacity:1;fill-rule:evenodd;stroke:none;stroke-width:61.2475;stroke-linecap:round;stroke-linejoin:round;stroke-miterlimit:29;stroke-dasharray:none;stroke-opacity:1" transform="matrix(-.03456 0 0 .03456 10.391 .444)"/><path d="M33.81 68.29h4.891s3.423.267 3.423 3.424v31.611s.09 2.512-2.512 2.512H33.81" style="fill:none;fill-opacity:1;fill-rule:evenodd;stroke:#d9d9d9;stroke-width:1.53119;stroke-linecap:butt;stroke-linejoin:round;stroke-miterlimit:29;stroke-dasharray:none;stroke-opacity:1" transform="matrix(-.03456 0 0 .03456 10.391 .444)"/><path d="M24.72 67.508h7.647v42.13H24.72z" style="fill:#d9d9d9;fill-opacity:1;fill-rule:evenodd;stroke:none;stroke-width:61.2475;stroke-linecap:round;stroke-linejoin:round;stroke-miterlimit:29;stroke-dasharray:none;stroke-opacity:1" transform="matrix(-.03456 0 0 .03456 10.391 .444)"/></g><path d="M4.8 1.07v1.461h5.05v-1.46zm2.264.456h.807v.528h-.807z" style="fill:#d9d9d9;fill-opacity:1;fill-rule:evenodd;stroke:none;stroke-width:2.11667;stroke-linecap:round;stroke-linejoin:round;stroke-miterlimit:29;stroke-dasharray:none;stroke-opacity:1"/><path d="M7.1 1.563v.455h.735v-.455Zm.527.118c.006 0 .015.004.018.007a.04.04 0 0 1 .013.036.02.02 0 0 0 .008.022.052.077 0 0 1 .015-.003.052.077 0 0 1 .01.001.052.077 0 0 1 .018-.004.052.077 0 0 1 .051.077.052.077 0 0 1-.051.077.052.077 0 0 1-.01-.002.052.077 0 0 1-.018.005.052.077 0 0 1-.019-.006.052.077 0 0 1-.024.009.052.077 0 0 1-.024-.01.052.077 0 0 1-.018.007.052.077 0 0 1-.018-.005.052.077 0 0 1-.008.002.052.077 0 0 1-.051-.077.052.077 0 0 1 .051-.077.052.077 0 0 1 .016.004.052.077 0 0 1 .01-.001.052.077 0 0 1 .009 0c.017-.008.023-.019.006-.035-.005-.004-.006-.015-.003-.017l.015-.01z" style="display:inline;fill:#d9d9d9;fill-rule:evenodd;stroke:none;stroke-width:1.05833;stroke-linecap:square;stroke-miterlimit:29"/><g style="fill:#d9d9d9;fill-opacity:1;stroke:none;stroke-width:28.9358"><path d="M6.156 17.921h7.25v43.915h-7.25Z" style="display:inline;fill:#d9d9d9;fill-opacity:1;fill-rule:evenodd;stroke:none;stroke-width:61.2475;stroke-linecap:round;stroke-linejoin:round;stroke-miterlimit:29;stroke-dasharray:none;stroke-opacity:1" transform="matrix(-.03456 0 0 .03456 10.397 .423)"/></g><g style="fill:#d9d9d9;fill-opacity:1;stroke-width:28.9358"><path d="M163.892 17.921h9.713v43.915h-9.713z" style="fill:#d9d9d9;fill-opacity:1;fill-rule:evenodd;stroke:none;stroke-width:61.2475;stroke-linecap:round;stroke-linejoin:round;stroke-miterlimit:29;stroke-dasharray:none;stroke-opacity:1" transform="matrix(-.03456 0 0 .03456 10.397 .423)"/></g><path d="M5.148.303v.6s.001-.048-.05-.048h-.074s-.04.009-.04.04V.338h.13s.034-.006.034-.035" style="display:inline;fill:#d9d9d9;fill-opacity:1;fill-rule:evenodd;stroke:none;stroke-width:2.11667;stroke-linecap:round;stroke-linejoin:round;stroke-miterlimit:29;stroke-dasharray:none;stroke-opacity:1"/><path d="M5.196 0h1.036v.166H5.196z" style="fill:#d9d9d9;stroke-width:1.05833;stroke-linecap:round;stroke-linejoin:round;stroke-miterlimit:10.8;paint-order:fill markers stroke"/><path fill="url(#a)" d="m12.481 1.368.76-.452-1.237.187.435-.508-2.025 1.011.14.036-.132.155.14.097-.108.134 2.013.628-.512-.388 1.327.162-.915-.465 1.215-.225z" style="fill:url(#b);stroke-width:.264584"/><path d="m.536 1.788-.445-.195.421-.214-.427-.276.496-.02-.27-.326 1.446.471-.07.088.139.063-.126.031.1.088-.1.044.113.044-.799.186.783.17-.085.065.09.05-.084.065.07.08-.1.046.053.071-1.473.457.197-.297-.433-.057.474-.253L0 1.97Z" style="fill:#d9d9d9;fill-opacity:1;stroke:none;stroke-width:1.05833;stroke-linecap:round;stroke-linejoin:round;stroke-miterlimit:10.8;paint-order:fill markers stroke"/><g style="fill:none;stroke-width:.706021"><path d="M47.91 8.488c-.091.001-.131.009-.219.018.583.527.357 1.607-.074 2.234.23.038.432.02.588-.095.535-.394.764-1.439.354-1.961-.121-.154-.382-.198-.649-.196m-.332.024a2 2 0 0 0-.418.084q-.006-.004-.014-.006c.17.846.003 1.514-.183 2.015l.146-.103c.074.109.14.176.358.214.32-.46.684-1.293.111-2.204" style="fill:#d9d9d9;fill-opacity:1;stroke:none;stroke-width:.494218;stroke-linecap:round;stroke-linejoin:round;stroke-miterlimit:10.8;stroke-dasharray:none;stroke-opacity:1;paint-order:fill markers stroke" transform="matrix(.37891 0 0 .37064 -3.511 -1.683)"/><path d="M46.838 8.505c-.98.43-1.087 1.421-.361 2.122.15-.028.148-.042.228-.125l.101.088.008-.006a3.6 3.6 0 0 0 .152-2.02z" style="fill:#d9d9d9;fill-opacity:1;stroke:none;stroke-width:.494218;stroke-linecap:round;stroke-linejoin:round;stroke-miterlimit:10.8;stroke-dasharray:none;stroke-opacity:1;paint-order:fill markers stroke" transform="matrix(.37891 0 0 .37064 -3.511 -1.683)"/><path d="M46.332 8.38c-.41.013-.663.275-.861.587-.296.464-.09 1.284.353 1.611.15.11.28.12.487.08-.725-.7-.633-1.781.345-2.21-.178-.062-.185-.071-.324-.067M46.929 8.345l.199.116.165-.05c.014-.269.1-.28.26-.436l-.033-.094c-.344.038-.48.2-.591.464" style="fill:#d9d9d9;fill-opacity:1;stroke:none;stroke-width:.494218;stroke-linecap:round;stroke-linejoin:round;stroke-miterlimit:10.8;stroke-dasharray:none;stroke-opacity:1;paint-order:fill markers stroke" transform="matrix(.37891 0 0 .37064 -3.511 -1.683)"/></g></svg>