<svg width="83" height="17" viewBox="0 0 83 17" fill="none" xmlns="http://www.w3.org/2000/svg">
<path d="M35.8805 7.9335V4.00865C35.8797 3.93402 35.8189 3.87378 35.7441 3.87378H26.5194C26.3183 3.87378 25.3316 4.0281 24.45 4.27313L25.3379 8.06839L30.049 8.06838V7.91492C30.049 7.76424 30.1711 7.6421 30.3218 7.6421H34.4482C34.5989 7.6421 34.721 7.76424 34.721 7.91492V8.06838H35.7441C35.8189 8.06838 35.8797 8.00813 35.8805 7.9335Z" fill="#D9D9D9"/>
<path d="M64.1003 4.60238C64.2915 4.60238 64.3403 4.55876 64.3403 4.55876C64.3485 4.55071 64.3514 4.52092 64.3514 4.48763V3.87378H62.8222C62.8261 3.8902 62.8281 3.90733 62.8281 3.92493C62.8281 4.04692 62.727 4.14589 62.6052 4.14659C62.4834 4.14589 62.3848 4.04692 62.3848 3.92493C62.3848 3.90733 62.3869 3.8902 62.3907 3.87378H62.1521C62.156 3.8902 62.158 3.90733 62.158 3.92493C62.158 4.04692 62.0595 4.14589 61.9377 4.14659C61.8159 4.14589 61.7147 4.04692 61.7147 3.92493C61.7147 3.90733 61.7168 3.8902 61.7206 3.87378H61.482C61.4859 3.8902 61.4879 3.90733 61.4879 3.92493C61.4879 4.04692 61.3868 4.14589 61.265 4.14659C61.1431 4.14589 61.0446 4.04692 61.0446 3.92493C61.0446 3.90733 61.0467 3.8902 61.0505 3.87378H60.8119C60.8158 3.8902 60.8178 3.90733 60.8178 3.92493C60.8178 4.04692 60.7193 4.14589 60.5975 4.14659C60.4756 4.14589 60.3745 4.04692 60.3745 3.92493C60.3745 3.90733 60.3765 3.8902 60.3804 3.87378H60.1418C60.1457 3.8902 60.1477 3.90733 60.1477 3.92493C60.1477 4.04692 60.0492 4.14589 59.9274 4.14659C59.8055 4.14589 59.7044 4.04692 59.7044 3.92493C59.7044 3.90733 59.7064 3.8902 59.7103 3.87378H59.4717C59.4755 3.8902 59.4776 3.90733 59.4776 3.92493C59.4776 4.04692 59.3764 4.14589 59.2546 4.14659C59.1328 4.14589 59.0343 4.04692 59.0343 3.92493C59.0343 3.90733 59.0363 3.8902 59.0402 3.87378H58.8016C58.8054 3.8902 58.8075 3.90733 58.8075 3.92493C58.8075 4.04692 58.709 4.14589 58.5871 4.14659C58.4653 4.14589 58.3642 4.04692 58.3642 3.92493C58.3642 3.90733 58.3662 3.8902 58.3701 3.87378H58.1315C58.1353 3.8902 58.1374 3.90733 58.1374 3.92493C58.1374 4.04692 58.0362 4.14589 57.9144 4.14659C57.7926 4.14589 57.6941 4.04692 57.6941 3.92493C57.6941 3.90733 57.6961 3.8902 57.7 3.87378H57.4613C57.4652 3.8902 57.4673 3.90733 57.4673 3.92493C57.4673 4.04692 57.3661 4.14589 57.2443 4.14659C57.1225 4.14589 57.0239 4.04692 57.0239 3.92493C57.0239 3.90733 57.026 3.8902 57.0299 3.87378H56.7912C56.7951 3.8902 56.7972 3.90733 56.7972 3.92493C56.7972 4.04692 56.6986 4.14589 56.5768 4.14659C56.455 4.14589 56.3538 4.04692 56.3538 3.92493C56.3538 3.90733 56.3559 3.8902 56.3598 3.87378H56.1211C56.125 3.8902 56.1271 3.90733 56.1271 3.92493C56.1271 4.04692 56.0259 4.14589 55.9041 4.14659C55.7823 4.14589 55.6837 4.04692 55.6837 3.92493C55.6837 3.90733 55.6858 3.8902 55.6897 3.87378H55.451C55.4549 3.8902 55.4569 3.90733 55.4569 3.92493C55.4569 4.04692 55.3584 4.14589 55.2366 4.14659C55.1148 4.14589 55.0136 4.04692 55.0136 3.92493C55.0136 3.90733 55.0157 3.8902 55.0195 3.87378H54.7809C54.7848 3.8902 54.7868 3.90733 54.7868 3.92493C54.7868 4.04692 54.6857 4.14589 54.5639 4.14659C54.442 4.14589 54.3435 4.04692 54.3435 3.92493C54.3435 3.90733 54.3456 3.8902 54.3494 3.87378H54.1108C54.1147 3.8902 54.1167 3.90733 54.1167 3.92493C54.1167 4.04692 54.0156 4.14589 53.8937 4.14659C53.7719 4.14589 53.6734 4.04692 53.6734 3.92493C53.6734 3.90733 53.6754 3.8902 53.6793 3.87378H53.4407C53.4446 3.8902 53.4466 3.90733 53.4466 3.92493C53.4466 4.04692 53.3481 4.14589 53.2263 4.14659C53.1044 4.14589 53.0033 4.04692 53.0033 3.92493C53.0033 3.90733 53.0053 3.8902 53.0092 3.87378H52.7706C52.7745 3.8902 52.7765 3.90733 52.7765 3.92493C52.7765 4.04692 52.6754 4.14589 52.5535 4.14659C52.4317 4.14589 52.3332 4.04692 52.3332 3.92493C52.3332 3.90733 52.3352 3.8902 52.3391 3.87378H52.1005C52.1043 3.8902 52.1064 3.90733 52.1064 3.92493C52.1064 4.04692 52.0079 4.14589 51.886 4.14659C51.7642 4.14589 51.6631 4.04692 51.6631 3.92493C51.6631 3.90733 51.6651 3.8902 51.669 3.87378H51.4304C51.4342 3.8902 51.4363 3.90733 51.4363 3.92493C51.4363 4.04692 51.3351 4.14589 51.2133 4.14659C51.0915 4.14589 50.993 4.04692 50.993 3.92493C50.993 3.90733 50.995 3.8902 50.9989 3.87378H50.7602C50.7641 3.8902 50.7662 3.90733 50.7662 3.92493C50.7662 4.04692 50.6676 4.14589 50.5458 4.14659C50.424 4.14589 50.3228 4.04692 50.3228 3.92493C50.3228 3.90733 50.3249 3.8902 50.3288 3.87378H50.0901C50.094 3.8902 50.0961 3.90733 50.0961 3.92493C50.0961 4.04692 49.9949 4.14589 49.8731 4.14659C49.7513 4.14589 49.6527 4.04692 49.6527 3.92493C49.6527 3.90733 49.6548 3.8902 49.6587 3.87378H49.42C49.4239 3.8902 49.426 3.90733 49.426 3.92493C49.426 4.04692 49.3248 4.14589 49.203 4.14659C49.0812 4.14589 48.9826 4.04692 48.9826 3.92493C48.9826 3.90733 48.9847 3.8902 48.9886 3.87378H48.7499C48.7538 3.8902 48.7558 3.90733 48.7558 3.92493C48.7558 4.04692 48.6573 4.14589 48.5355 4.14659C48.4137 4.14589 48.3125 4.04692 48.3125 3.92493C48.3125 3.90733 48.3146 3.8902 48.3184 3.87378H48.0798C48.0837 3.8902 48.0857 3.90733 48.0857 3.92493C48.0857 4.04692 47.9872 4.14589 47.8654 4.14659C47.7436 4.14589 47.6424 4.04692 47.6424 3.92493C47.6424 3.90733 47.6445 3.8902 47.6483 3.87378H47.4097C47.4136 3.8902 47.4156 3.90733 47.4156 3.92493C47.4156 4.04692 47.3145 4.14589 47.1927 4.14659C47.0708 4.14589 46.9723 4.04692 46.9723 3.92493C46.9723 3.90733 46.9743 3.8902 46.9782 3.87378H46.7396C46.7435 3.8902 46.7455 3.90733 46.7455 3.92493C46.7455 4.04692 46.6444 4.14589 46.5225 4.14659C46.4007 4.14589 46.3022 4.04692 46.3022 3.92493C46.3022 3.90733 46.3042 3.8902 46.3081 3.87378H46.0695C46.0734 3.8902 46.0754 3.90733 46.0754 3.92493C46.0754 4.04692 45.9769 4.14589 45.8551 4.14659C45.7332 4.14589 45.6321 4.04692 45.6321 3.92493C45.6321 3.90733 45.6341 3.8902 45.638 3.87378H45.3994C45.4032 3.8902 45.4053 3.90733 45.4053 3.92493C45.4053 4.04692 45.3041 4.14589 45.1823 4.14659C45.0605 4.14589 44.962 4.04692 44.962 3.92493C44.962 3.90733 44.964 3.8902 44.9679 3.87378H44.7293C44.7331 3.8902 44.7352 3.90733 44.7352 3.92493C44.7352 4.04692 44.634 4.14589 44.5122 4.14659C44.3904 4.14589 44.2919 4.04692 44.2919 3.92493C44.2919 3.90733 44.2939 3.8902 44.2978 3.87378H44.0592C44.063 3.8902 44.0651 3.90733 44.0651 3.92493C44.0651 4.04692 43.9639 4.14589 43.8421 4.14659C43.7203 4.14589 43.6218 4.04692 43.6218 3.92493C43.6218 3.90733 43.6238 3.8902 43.6277 3.87378H43.5752V4.9434H44.9428L45.6931 4.60238L64.1003 4.60238Z" fill="#D9D9D9"/>
<path d="M64.6288 4.48763L64.6289 3.97609H69.9488L69.9488 4.1125H70.7673V5.4766H69.9488V5.85172H70.6309C70.7062 5.85172 70.7673 5.91279 70.7673 5.98813V6.77249C70.7673 6.84782 70.7062 6.9089 70.6309 6.9089H69.9488L69.9488 6.70428H69.4032C69.4032 6.70428 69.2022 6.278 68.9258 6.03929C68.6494 5.80057 68.3801 5.64711 68.2608 5.64711H67.016C67.016 5.64711 66.8796 5.64711 66.8455 5.78352C66.7944 5.98813 66.6921 5.98813 66.5386 5.98813C66.3851 5.98813 66.2828 5.98813 66.2317 5.78352C66.1976 5.64711 66.0612 5.64711 66.0612 5.64711H65.3621C65.1404 5.64711 64.8676 5.85172 64.8335 5.97108L64.4583 7.72736C64.3954 7.93715 64.2537 8.06838 64.1173 8.08543V8.64812H63.7422V9.43247C63.7422 9.52665 63.6659 9.60299 63.5717 9.60299C63.4775 9.60299 63.4012 9.52665 63.4012 9.43247V8.64812H63.1624L63.1624 4.87981H64.1003C64.5436 4.87981 64.6288 4.69225 64.6288 4.48763Z" fill="#D9D9D9"/>
<path fill-rule="evenodd" clip-rule="evenodd" d="M62.885 4.87981L45.7531 4.87981L45.0029 5.22083H43.2978L43.2978 4.14659H36.1579V6.18326L43.2563 5.9407C43.2563 5.69737 43.524 5.5682 43.6558 5.54481H53.8184C53.8235 5.54481 53.9049 5.56979 53.9673 5.613H54.5686V6.09044H54.5004V6.32915H54.2958L54.2958 7.76146C54.2958 7.84396 54.2819 7.93139 54.2561 8.01514C54.2793 7.94641 54.2922 7.87275 54.2952 7.79556H54.5004V8.00018H56.7512L56.7512 7.38633H57.2968V6.49966C57.2968 6.49966 57.2968 6.29505 57.5696 6.02223C57.8425 5.74941 58.2517 5.71531 58.2517 5.71531V5.613L62.885 5.613V4.87981ZM55.3871 5.613L56.7512 5.613L56.7512 6.09044H55.3871V5.613Z" fill="#D9D9D9"/>
<path d="M36.1579 7.79556H43.2466V6.32915H36.1579V7.79556Z" fill="#D9D9D9"/>
<path d="M24.4034 8.22643C24.612 8.17466 24.8285 8.12226 25.053 8.06838L24.1834 4.35121C24.0921 4.38022 24.0039 4.40873 23.9185 4.43694C23.8584 4.4568 23.7996 4.47651 23.7421 4.49613C22.7673 4.8287 22.1479 5.1377 21.2676 5.74941C21.2006 5.79599 21.1346 5.84181 21.0696 5.88678C20.0949 6.56132 19.3429 7.04531 18.6076 7.04531C18.5835 7.04531 18.5591 7.04465 18.5344 7.04341C18.3613 7.03472 18.1719 6.99731 17.9559 6.95463C17.9158 6.94671 17.8748 6.9386 17.8328 6.93046C17.5387 6.8735 17.1963 6.81502 16.7831 6.80659C16.6957 6.8048 16.3867 6.83118 15.9128 6.87869C14.4566 7.02467 11.444 7.37025 8.52171 7.71209C4.78616 8.14906 1.19832 8.57991 1.19832 8.57991C1.16337 8.58339 1.08534 8.62596 1.06301 8.64756C1.01851 8.69062 0.993633 8.7445 0.993652 8.7817L1.24948 16.527C1.24976 16.537 1.25214 16.5477 1.25623 16.5575C1.28677 16.6305 1.41359 16.692 1.48819 16.6622L8.20636 14.3581V15.5368C8.20636 15.631 8.2827 15.7073 8.37687 15.7073C8.47105 15.7073 8.54739 15.631 8.54739 15.5368V14.2412L15.6577 11.8026C15.8283 11.7514 16.3057 11.7344 16.5444 11.8026L19.2726 12.5358C19.6989 11.0864 20.3031 10.1359 21.275 9.41542C21.4049 9.31914 21.5451 9.22999 21.6956 9.14653C22.2743 8.82565 23.0069 8.58884 23.9033 8.35372C24.0646 8.3114 24.2313 8.26913 24.4034 8.22643Z" fill="#D9D9D9"/>
<path d="M24.7319 8.43142C24.9124 8.5959 25.053 8.8138 25.053 8.95505V9.21081C25.053 9.50069 25.394 9.97812 26.059 10.0804C26.4332 10.138 26.9849 10.1212 27.3719 10.0804C27.6959 10.0463 28.054 9.56889 28.054 9.12556V8.98915C28.054 8.80333 28.2432 8.55445 28.5586 8.34582H27.3409C27.3984 8.37469 27.4482 8.40762 27.4913 8.44351C27.6959 8.61402 27.7641 8.81881 27.7641 9.05735C27.7641 9.48363 27.3548 9.90991 26.6387 9.89286C26.6284 9.89262 26.5679 9.89133 26.5577 9.89111C26.2762 9.88533 26.0118 9.87991 25.8203 9.77351C25.5133 9.60299 25.3348 9.41543 25.3428 9.12556C25.3489 8.90287 25.4314 8.7318 25.5642 8.59769C25.4972 8.80633 25.4659 8.96637 25.4963 9.12555C25.5315 9.30996 25.6267 9.45475 25.8032 9.67119C25.8544 9.73388 26.0078 9.64772 25.9567 9.55183C25.8203 9.29606 25.838 9.1426 25.8714 8.93799C25.9057 8.72795 26.019 8.51726 26.3039 8.34582H25.0858L25.0254 8.36033C24.9258 8.38432 24.8279 8.408 24.7319 8.43142Z" fill="#D9D9D9"/>
<path d="M43.5665 5.84661C43.5474 5.8774 43.524 5.95543 43.524 6.12455V8.03428C43.524 8.06878 43.5331 8.08346 43.5489 8.09829C43.5699 8.11809 43.613 8.14452 43.6906 8.16608H53.8184C53.8281 8.16608 53.8727 8.15942 53.9298 8.06919C53.9847 7.98243 54.0184 7.86358 54.0184 7.76146V6.22685C54.0184 6.09786 53.9851 5.98145 53.9376 5.90651C53.8931 5.8363 53.8525 5.82224 53.8184 5.82224H43.6558C43.6067 5.82224 43.5853 5.83073 43.5791 5.83381C43.5754 5.83564 43.5722 5.83744 43.5665 5.84661Z" fill="#D9D9D9"/>
<path d="M71.6338 4.05784L81.7722 0.669861L78.2431 3.04284H81.7722L79.102 4.59802L82.155 5.6623L79.8603 6.60014L82.4057 8.65939L71.6338 5.36221L72.0632 5.16134L71.6338 4.84512V4.32537V4.05784Z" fill="#D9D9D9"/>
</svg>
