<svg width="79" height="17" viewBox="0 0 79 17" fill="none" xmlns="http://www.w3.org/2000/svg">
<path fill-rule="evenodd" clip-rule="evenodd" d="M40.9897 5.85452C40.9081 5.81191 40.8151 5.77647 40.7029 5.75216L38.6106 5.71728C38.5107 5.73379 38.4273 5.75171 38.3524 5.7742L34.5659 5.65887C34.9287 5.64087 35.1381 5.61116 35.4547 5.54292L67.0488 5.71116V5.68241H67.0837V5.64754H66.979V5.50805H67.0837V5.43831H67.2232V5.50805H67.2929V5.43831H67.4324V5.50805H67.537V5.64754H67.4324V5.68241H67.4673V5.71339L68.1996 5.71728V5.86342H63.7522L63.3001 5.85677C63.2875 5.85886 63.2752 5.86107 63.2631 5.86342H61.4643C61.4546 5.86119 61.4446 5.85898 61.4344 5.85677L59.2898 5.8219C59.2261 5.83242 59.1698 5.84638 59.1186 5.86342H57.3146C57.3048 5.86119 57.2948 5.85898 57.2846 5.85677L55.14 5.8219C55.0763 5.83242 55.02 5.84638 54.9689 5.86342H53.1648C53.155 5.86119 53.145 5.85898 53.1348 5.85677L50.9902 5.8219C50.9265 5.83242 50.8703 5.84638 50.8191 5.86342H49.0801C49.0312 5.8489 48.9769 5.83526 48.9153 5.8219L46.9102 5.78703C46.8074 5.80402 46.7201 5.82996 46.6411 5.86342H45.0252C44.9579 5.83349 44.8798 5.80801 44.783 5.78703L42.7604 5.75216C42.6243 5.77466 42.5154 5.81284 42.4168 5.86342H41.2819L40.9897 5.85452ZM67.2232 5.64754H67.2929V5.68241H67.2232V5.64754Z" fill="#D9D9D9"/>
<path d="M33.5716 5.74073V7.33241C33.5719 7.36491 33.5984 7.39115 33.631 7.39115H33.6866C33.6958 7.39114 33.7046 7.38904 33.7123 7.38529C33.7312 7.37536 33.746 7.35462 33.746 7.33178V6.72858H34.1711V5.88888C33.9199 5.88173 33.8007 5.85921 33.746 5.80446V5.74178C33.746 5.70899 33.7194 5.68241 33.6866 5.68241H33.631C33.5985 5.68241 33.5721 5.70843 33.5716 5.74073Z" fill="#D9D9D9"/>
<path d="M47.6251 6.78089L34.4085 6.72858V5.89165L41.2783 6.10088H68.1996V7.35627H51.4341C51.4398 7.28525 51.4435 7.21679 51.4435 7.21679C51.4435 7.18859 51.4336 7.16981 51.4282 7.15517C51.4075 7.11802 51.364 7.08768 51.2866 7.0773C49.8569 6.8855 49.0549 6.82996 47.6251 6.78089Z" fill="#D9D9D9"/>
<path d="M68.437 7.35627V6.10088L69.8385 6.10088V7.35628L68.437 7.35627Z" fill="#D9D9D9"/>
<path d="M33.7808 5.68241L34.1711 5.67186V5.86741L33.7808 5.80446V5.68241Z" fill="#D9D9D9"/>
<path d="M52.8926 7.98397C52.8707 7.94424 52.8468 7.90363 52.821 7.86192L51.3991 7.75913C51.393 7.8267 51.3874 7.88881 51.383 7.93704L51.3738 8.03628C51.2521 8.62926 51.1039 9.05292 50.8997 9.33956C50.8466 9.41402 50.7898 9.47924 50.7287 9.53578C50.7066 9.55615 50.6852 9.57453 50.6641 9.59107L52.821 9.46603C52.8411 9.42416 52.8601 9.38351 52.8778 9.34398C53.1336 8.77412 53.1414 8.43574 52.8926 7.98397Z" fill="#D9D9D9"/>
<path d="M53.1367 9.34398C53.2474 9.07988 53.3115 8.84304 53.312 8.60841C53.3125 8.38916 53.2577 8.1883 53.1597 7.98397H69.7057V9.34398H53.1367Z" fill="#D9D9D9"/>
<path d="M69.9432 9.48347H72.175C72.2713 9.48347 72.3493 9.40541 72.3493 9.30911V8.01884C72.3493 7.92254 72.2713 7.84448 72.175 7.84448H69.9432V9.48347Z" fill="#D9D9D9"/>
<path d="M22.4474 5.52549H33.3341L33.3341 9.62296H32.8393L32.107 9.12119V9.53578L28.1453 9.08139L28.0095 9.08222C27.7889 9.08222 27.6851 9.19717 27.5213 9.37863C27.3829 9.40998 27.2583 9.43525 27.1403 9.45609C27.0596 9.47037 26.9819 9.48258 26.9052 9.49325C26.6423 9.52982 26.3898 9.5484 26.0567 9.57065C26.0383 9.48272 26.0043 9.41372 25.8997 9.41372L21.4148 9.20153C21.3419 9.19683 21.2676 9.19201 21.192 9.18705L20.6175 6.95713L20.4951 6.27505L22.4474 5.52549Z" fill="#D9D9D9"/>
<path d="M26.3597 9.78747C26.1777 9.88419 25.9971 9.99702 25.7777 10.146L24.3479 11.1748C24.1038 11.2619 23.8772 11.2619 23.6505 11.2271C23.0838 11.1399 22.7264 11.0353 22.3602 10.826C22.25 10.7631 22.014 10.5918 21.9069 10.3553L21.5183 9.44414L22.9353 9.51119C22.5941 9.86613 22.5336 10.1502 22.7089 10.6342C22.73 10.6925 22.6614 10.7214 22.6392 10.6866C22.4661 10.4149 22.394 10.256 22.4648 9.91937C22.49 9.81803 22.3833 9.76333 22.3079 9.76244C22.2684 9.76198 22.2222 9.76219 22.1732 9.77557C22.1133 9.8869 22.1145 9.98679 22.1158 10.091C22.1159 10.1034 22.1161 10.116 22.1161 10.1286C22.1161 10.2841 22.1948 10.4853 22.3602 10.6342C22.5346 10.7912 22.7509 10.8639 23.0576 10.9306C23.4587 11.0178 23.8325 11.0657 24.1038 10.9829C24.4772 10.869 24.6792 10.5662 24.6792 10.1983C24.6792 9.93089 24.6151 9.73421 24.2563 9.57369L25.8303 9.64816L25.8664 9.82134L26.0725 9.80758C26.1743 9.80078 26.2692 9.79428 26.3597 9.78747Z" fill="#D9D9D9"/>
<path d="M20.9462 9.18329L20.3864 7.01212L20.3853 7.00782L20.2737 6.38576C18.9284 7.05445 18.0397 7.40991 16.3971 7.93166C15.8392 8.10889 15.6125 8.07115 15.3684 7.93166L15.1068 7.73987C14.9444 7.61693 14.8272 7.59521 14.5838 7.61782L6.14471 8.57209C5.84719 8.59386 5.57198 8.61417 5.31134 8.63431C4.16782 8.72267 3.30467 8.80788 2.06835 9.00001C1.97076 9.01518 1.87084 9.03101 1.76826 9.04757C1.33672 9.11722 1.09021 9.33496 1.01697 9.65463C0.992566 9.76118 0.987406 9.87906 1.00107 10.0066C1.0347 10.3204 1.08318 10.6079 1.13177 10.8828C1.13835 10.92 1.14492 10.957 1.15147 10.9937L1.15527 11.0151C1.1607 11.0457 1.16611 11.0761 1.17146 11.1064C1.17944 11.1516 1.18731 11.1965 1.19501 11.2413C1.2002 11.2715 1.20531 11.3016 1.21031 11.3317C1.50673 13.0927 1.70466 14.4017 1.99493 16.4405C2.0185 16.5937 2.14567 16.6911 2.27408 16.722C2.31187 16.7311 2.34977 16.7345 2.38516 16.7318C2.40739 16.7301 2.42864 16.726 2.44826 16.7194L3.96519 16.144L7.15191 14.8186L7.41755 14.9584C7.50472 14.9933 7.62678 14.9758 7.67909 14.9061L7.9684 14.479L13.8166 12.0466C13.9812 11.9736 14.0872 11.982 14.1827 12.0117C14.2754 12.0405 14.3656 12.1006 14.4443 12.2384C14.4667 12.2777 14.4765 12.308 14.4842 12.3315C14.5002 12.3811 14.5066 12.4009 14.6012 12.4127L17.2166 12.7091C17.3212 12.7091 17.4258 12.622 17.4258 12.5522C17.4258 12.5522 17.4166 11.8743 17.635 11.1399C17.7807 10.6503 18.0208 10.1809 18.472 9.77988C18.9428 9.36142 19.3961 9.23937 20.0238 9.20449C20.3859 9.18438 20.7271 9.18192 20.9462 9.18329Z" fill="#D9D9D9"/>
<path d="M47.8767 7.02746C49.1247 7.07381 49.9015 7.13235 51.1997 7.30526L51.1836 7.50548L51.1626 7.73782C51.1558 7.81386 51.1495 7.883 51.1448 7.93313L51.1386 8.00125C50.987 8.73425 50.8036 9.14303 50.5674 9.36145C50.5495 9.378 50.5329 9.39218 50.5174 9.40437L50.1049 9.72857L35.908 9.79732L33.5716 9.62296L33.5716 7.62267C33.5716 7.62267 33.6412 7.62864 33.6866 7.6286C33.8505 7.6286 33.9834 7.49571 33.9834 7.33178V6.96603L47.6205 7.01832C47.7082 7.02134 47.7935 7.02437 47.8767 7.02746Z" fill="#D9D9D9"/>
<path d="M70.5376 7.35839L76.8481 8.00277L74.774 6.2993L78.2152 5.84424L75.128 4.81084L78.2152 2.43359L74.9772 3.3124L77.2143 0.732666L70.5376 5.84424L70.8277 6.11421L70.5376 6.593L70.7657 6.85013L70.5376 7.35839Z" fill="#D9D9D9"/>
</svg>
