<svg width="81" height="17" viewBox="0 0 81 17" fill="none" xmlns="http://www.w3.org/2000/svg">
<path d="M55.9191 5.85938V5.93414L55.458 5.93101V7.65382L55.916 7.65695V8.00899H57.4394V7.92176H58.1995L58.6139 7.5525H59.05C59.1554 7.41728 59.2542 7.27643 59.293 7.08338H59.6015C59.9564 7.07065 60.0078 6.47293 59.6015 6.46942H59.2806C59.2435 6.30358 59.1659 6.15526 59.0407 6.0276H58.5952L58.3802 5.85938H55.9191Z" fill="#D9D9D9"/>
<path d="M44.707 5.27792C44.5849 5.36789 44.6344 5.4878 44.0814 5.4894H42.5327V7.98089C42.5316 8.27462 42.7739 8.4075 43.0504 8.41266H53.4966L54.5165 8.34217C54.9127 8.2956 55.1472 8.08188 55.1532 7.74738V5.7956C55.152 5.38213 54.583 5.27005 54.2081 5.27351L44.707 5.27792Z" fill="#D9D9D9"/>
<path d="M36.7964 5.96484H40.8585L41.0216 6.12786H42.2244V7.70955H36.8052L36.7964 5.96484Z" fill="#D9D9D9"/>
<path d="M36.7994 3.71515L65.5655 3.81428V3.71295L66.4797 3.225H66.9302V3.0014L67.5074 2.71283C67.7475 2.59961 67.8921 2.7108 67.8951 2.93311V3.2239H68.2377V3.5246H68.3886V3.82529H68.8941V5.51823L55.4099 5.55608C55.1647 5.06317 54.8079 4.95925 53.9565 4.96571L44.5652 4.97081C44.4223 5.14417 44.4213 5.19125 44.1654 5.18612L42.2246 5.18583V5.64403H36.7988L36.7994 3.71515Z" fill="#D9D9D9"/>
<path d="M29.7697 14.2395L29.8604 14.6343L30.3387 15.5081C30.4929 15.7734 30.7819 15.8388 31.0459 15.7885L35.3887 14.9497C36.0143 14.8205 36.1586 14.2553 35.6317 13.9224L35.7906 13.5579L35.7587 13.3628M35.8202 13.0462L35.3669 10.1403L35.1083 9.85995C35.0422 9.78843 35.0302 9.66274 35.0258 9.54841L35.0024 8.45491L34.8669 8.13091L34.8646 7.98215L34.8061 7.74149C34.7544 7.56028 34.7285 7.57855 34.6317 7.57871L30.6938 7.57958V8.17462H30.295L29.4165 8.79769L29.619 13.9482" fill="#D9D9D9"/>
<path d="M25.3603 3.50391L24.2113 3.80253L24.1529 3.66594L23.0438 3.6736L22.1206 4.23655L22.1626 4.36309L21.2715 4.78722L22.1686 7.82017L23.9832 7.83426L23.9849 9.70043C24.2833 9.98796 24.6688 10.1754 25.0987 10.1801H26.644C27.2147 10.1798 27.7325 9.88026 27.9648 9.22059L28.1269 8.71739H28.9886L30.0392 7.97818V7.86466H30.3872L30.3961 7.27205H34.6851C34.8554 7.26973 35.0187 7.38535 35.0761 7.57771L35.1454 7.84489H36.4925L36.4917 3.50392L25.3603 3.50391ZM25.3523 7.84262H26.5516C27.7998 7.86647 27.6348 9.56516 26.705 9.56757H25.0857C24.0187 9.54899 23.992 8.29213 24.502 8.03207C24.3115 8.61368 24.3304 9.15685 24.9734 9.453C25.0971 9.50395 25.1822 9.43135 25.0771 9.32735C24.5504 8.83733 24.6867 8.24215 25.3523 7.84262Z" fill="#D9D9D9"/>
<path d="M31.4635 3.19823H27.6877L27.5225 2.52842C27.4429 2.07203 27.5957 1.85267 28.0584 1.94117L28.3263 2.01906C28.4786 2.06473 28.6227 2.16345 28.7469 2.39602C28.9171 2.68052 29.1393 2.9284 29.6363 2.98015C30.4998 3.05044 31.2978 3.12388 31.4635 3.19823Z" fill="#D9D9D9"/>
<path d="M20.9972 4.93359L19.5918 5.74426L18.1907 5.77951L18.2039 5.92049L17.6929 5.99539L17.8735 8.12341L18.367 8.05732L18.389 8.1939L19.1908 8.05291C20.9813 7.66531 20.2463 10.4541 19.7724 10.9519C19.1867 11.5676 18.3742 12.8431 18.3626 14.3841L20.962 15.4106C21.285 15.5191 21.6018 15.1211 21.3145 14.8202L22.9666 9.87252L23.6804 9.61698V8.14543H21.9445L20.9972 4.93359Z" fill="#D9D9D9"/>
<path d="M17.4036 6.17188L16.1045 6.24976L16.2976 8.61434L17.0017 8.56761L17.5126 7.98503L17.5469 7.97567L17.4036 6.17188Z" fill="#D9D9D9"/>
<path d="M15.7744 6.05859L4.60273 6.85921C4.4069 6.75827 4.39183 6.72117 4.11675 6.73462L3.10107 6.80306C3.25272 9.77522 3.6522 12.8013 4.18519 15.8564L6.53898 14.3971C6.65162 14.3229 7.15475 14.3086 7.50315 14.3299L7.50228 13.1492C7.94623 13.1639 8.1745 13.0987 8.44248 12.7923L8.73032 12.501C8.74336 12.3811 8.76361 12.2245 8.8681 12.0633L10.0088 10.3141L9.71479 10.3258C9.71479 10.3258 9.64203 10.3555 9.52809 10.4668L7.85991 12.0868C7.71892 12.2111 7.5473 12.2911 7.29755 12.2878L5.90029 12.2753L5.78961 11.0151C5.87873 10.9733 5.96478 10.9024 6.03267 10.8235L8.3038 10.6023C8.65134 10.5612 8.9181 10.3964 9.00318 10.0634L10.3832 9.98892C10.5308 9.93055 10.707 9.90905 10.9098 9.92647C11.5001 9.97717 12.196 10.014 12.9392 9.97754L12.9491 10.4154C13.0405 10.5374 13.0883 10.6665 13.105 10.8009C13.6577 10.8166 14.2384 10.7782 14.5584 10.0875L15.1091 8.93535L16.0079 8.87365L15.7744 6.05859ZM13.2829 9.60059L13.7521 9.60508C13.732 9.88452 13.5552 9.98538 13.2829 9.97738V9.60059ZM8.66978 10.0789C8.61207 10.163 8.56415 10.2625 8.35199 10.2892L6.20711 10.4965C6.22149 10.4058 6.23082 10.3123 6.21639 10.2052L8.66978 10.0789Z" fill="#D9D9D9"/>
<path d="M12.6402 10.2956L10.824 10.2286C10.5199 10.2115 10.3697 10.3016 10.2616 10.4856L9.1292 12.2334C8.89857 12.6073 9.14215 12.885 9.55289 12.9764L10.581 11.6679C10.9091 11.2446 11.3305 11.0879 11.8038 11.0791C11.963 11.6558 12.8832 11.493 12.8131 10.928C12.7914 10.8019 12.7949 10.6773 12.6402 10.5433V10.2956Z" fill="#D9D9D9"/>
<path d="M2.78797 6.89844L1.25034 7.35224C0.770404 7.51643 0.785262 7.85768 0.884656 8.18934C1.12334 8.93312 1.36635 9.80505 1.68651 12.9608C1.75487 13.7027 1.85623 14.4592 1.99933 15.2342C2.23528 16.3635 3.04962 16.5057 3.89383 16.0625C3.36567 13.0434 2.99135 10.0082 2.78797 6.89844Z" fill="#D9D9D9"/>
<path d="M70.1286 4.79018L69.6915 4.44513L70.0213 3.96206L69.5957 3.37739L80.2731 0.296875L75.6877 3.548L80.8481 4.17676L75.8948 5.08922L79.2456 8.09498L69.6436 5.63747L70.1286 4.79018Z" fill="#D9D9D9"/>
</svg>
