<svg width="73" height="17" viewBox="0 0 73 17" fill="none" xmlns="http://www.w3.org/2000/svg">
<path d="M15.8057 1.47522H16.171L16.2027 1.31682L16.2028 1.31638L16.3219 1.31638V0.958984H18.228V1.31638L18.4266 1.31638V0.958984H18.9825V1.31638L19.1811 1.31638V0.958984H19.737V1.31638L19.9356 1.31638V0.958984H20.4915V1.31638L20.6901 1.31638V0.958984H21.246V1.31638L21.4446 1.31638V0.958984H22.0005V1.31638L22.1991 1.31638V0.958984H22.755V1.31638L22.9536 1.31638V0.958984H23.5095V1.31638L23.7081 1.31638V0.958984H24.264V1.31638L24.4626 1.31638V0.958984H25.0185V1.31638L25.2171 1.31638V0.958984H25.773V1.31638L25.9716 1.31638V0.958984H26.5275V1.31638L26.7261 1.31638V0.958984H27.282V1.31638L27.4806 1.31638V0.958984H28.0365V1.31638L28.2351 1.31638V0.958984H28.791V1.31638L28.9896 1.31638V0.958984H29.5455V1.31638L29.7441 1.31638V0.958984H30.3V1.31638L30.4986 1.31638V0.958984H31.0545V1.31638L31.2531 1.31638V0.958984H31.809V1.31638L32.0076 1.31638V0.958984H32.5635V1.31638L32.7621 1.31638V0.958984H33.318V1.31638L33.5166 1.31638V0.958984H34.0725V1.31638L34.2711 1.31638V0.958984H34.827V1.31638L35.0256 1.31638V0.958984H35.5815V1.31638L35.7801 1.31638V0.958984H36.336V1.31638L36.5346 1.31638V0.958984H37.0905V1.31638L37.2891 1.31638V0.958984H37.845V1.31638L38.0436 1.31638V0.958984H38.5995V1.31638L38.7981 1.31638V0.958984H39.354V1.31638L39.5526 1.31638V0.958984H40.1085V1.31638L40.3071 1.31638V0.958984H40.863V1.31638L41.0616 1.31638V0.958984H41.6175V1.31638L41.8161 1.31638V0.958984H42.372V1.31638L42.5706 1.31638V0.958984H43.1265V1.31638L43.3251 1.31638V0.958984H43.881V1.31638L44.0796 1.31638V0.958984H44.6355V1.31638L44.8341 1.31638V0.958984H45.39V1.31638L45.5886 1.31638V0.958984H46.1445V1.31638L46.3431 1.31638V0.958984H46.899V1.31638L47.0976 1.31638V0.958984H47.6535V1.31638L47.8521 1.31638V0.958984H48.408V1.31638L48.6066 1.31638V0.958984H49.1625V1.31638L49.3611 1.31638V0.958984H49.917V1.31638L50.1156 1.31638V0.958984H50.6715V1.31638L50.8701 1.31638V0.958984H51.426V1.31638L51.6246 1.31637V0.958984H52.1805V1.31637L52.3791 1.31637V0.958984H52.935V1.31637L53.1336 1.31637V0.958984H53.6895V1.3958L43.1067 1.3958V1.79291L42.4713 2.44813L33.7747 2.44813C33.649 2.30252 33.326 2.09868 33.0401 2.44813V4.3741L33.3181 4.53294V5.08889L33.0401 5.38672V6.35414C32.8748 6.38419 32.7037 6.42588 32.5661 6.46582L32.5311 6.4377C32.5214 6.21109 32.4185 6.0191 32.2953 5.87741C32.1627 5.72489 31.9762 5.57773 31.845 5.57773H18.7228C17.8006 5.60078 17.1971 5.30867 16.8164 4.9456C16.435 4.5819 16.268 4.1398 16.23 3.84846L16.1895 1.96173L16.1805 1.95175L15.6071 1.95175V1.7929H14.9321V1.31638H15.8057V1.47522Z" fill="#D9D9D9"/>
<path fill-rule="evenodd" clip-rule="evenodd" d="M53.5506 6.04195L53.8285 5.1286L53.625 1.64916H43.3601V1.80306L43.9888 1.83039C44.0441 1.9069 44.1193 2.03033 44.1193 2.11059L43.8215 2.44813H42.8243L42.5786 2.7015L33.6588 2.7015L33.583 2.61374C33.5441 2.56873 33.4787 2.52268 33.4195 2.51127C33.3946 2.50646 33.372 2.50781 33.3485 2.51682C33.3347 2.52211 33.316 2.5318 33.2934 2.55017V4.22707L33.5714 4.38591V5.18876L33.2934 5.48659V6.71697L36.1573 6.71703C36.303 6.52511 36.7093 6.12137 37.17 6.04195H53.5506ZM35.0057 5.25822C35.0413 5.22895 35.0861 5.19439 35.1389 5.16832H35.4556C35.496 5.18876 35.538 5.21803 35.5815 5.25822L35.0057 6.3304C34.8668 6.37012 34.5808 6.37012 34.5491 6.05243L35.0057 5.25822ZM36.0581 5.28856C36.1108 5.24511 36.184 5.19001 36.2734 5.16832H36.4272C36.4912 5.18401 36.5604 5.22072 36.6339 5.28856L36.0581 6.36074C35.9191 6.40045 35.6332 6.40045 35.6014 6.08277L36.0581 5.28856ZM42.0544 2.74823V3.54018H41.4378L41.8344 2.88495C41.8586 2.84291 41.9336 2.7627 42.0544 2.74823ZM41.4174 3.02394C41.3646 3.11163 41.2248 3.34462 41.1106 3.54018H40.2863L40.6829 2.88495C40.7094 2.83862 40.7979 2.74596 40.9409 2.74596H41.3181C41.3844 2.79891 41.477 2.92466 41.4174 3.02394ZM40.2654 3.02478C40.2122 3.1134 40.0727 3.34561 39.959 3.54018L39.1347 3.54018L39.5313 2.88495C39.5578 2.83862 39.6464 2.74596 39.7894 2.74596H40.1666C40.2328 2.79891 40.325 2.92551 40.2654 3.02478ZM39.1143 3.02394C39.0613 3.11221 38.9212 3.34538 38.8074 3.54018H37.9831L38.3797 2.88495C38.4062 2.83862 38.4948 2.74596 38.6378 2.74596H39.015C39.0812 2.79887 39.1737 2.92469 39.1143 3.02394ZM37.963 3.02342C37.9104 3.11109 37.7701 3.34461 37.6558 3.54018H36.8315L37.2281 2.88495C37.2545 2.83862 37.3432 2.74596 37.4862 2.74596L37.8634 2.74596C37.9296 2.79891 38.0226 2.92414 37.963 3.02342ZM36.8114 3.02342C36.7588 3.11109 36.6185 3.34461 36.5042 3.54018H36.336L36.0581 3.26221H35.8481L36.0765 2.88495C36.1029 2.83862 36.1916 2.74596 36.3346 2.74596H36.7118C36.778 2.79891 36.871 2.92414 36.8114 3.02342ZM35.6808 3.00408C35.6508 3.0541 35.5842 3.16496 35.5263 3.26221H34.7058L34.9462 2.86509C34.9727 2.81876 35.0613 2.72611 35.2043 2.72611H35.5815C35.6477 2.77905 35.7404 2.9048 35.6808 3.00408ZM44.5164 1.95175L44.5747 1.87232H45.5131L45.4496 1.95175H44.5164ZM46.2637 1.9716L46.3365 1.87232H47.2763L47.1969 1.9716H46.2637ZM48.0109 1.9716L48.0837 1.87232H49.0236L48.9441 1.9716H48.0109ZM49.7582 1.9716L49.831 1.87232H50.7708L50.6914 1.9716H49.7582ZM51.5055 1.9716L51.5783 1.87232H52.5181L52.4387 1.9716L51.5055 1.9716ZM47.5586 3.18278H45.4083C45.1593 3.38927 45.3047 3.5865 45.4083 3.65931H47.5586C47.8144 3.44376 47.6381 3.26372 47.5586 3.18278ZM45.4083 2.38857H47.5586C47.6381 2.4695 47.8144 2.64955 47.5586 2.86509H45.4083C45.3047 2.79229 45.1593 2.59506 45.4083 2.38857ZM50.5369 3.18278H48.3866C48.1376 3.38927 48.283 3.5865 48.3866 3.65931H50.5369C50.7927 3.44376 50.6164 3.26372 50.5369 3.18278ZM48.3866 2.38857L50.5369 2.38857C50.6164 2.4695 50.7927 2.64955 50.5369 2.86509H48.3866C48.283 2.79229 48.1376 2.59506 48.3866 2.38857ZM53.3167 3.18278H51.1663C50.9174 3.38927 51.0627 3.5865 51.1663 3.65931H53.3167C53.5724 3.44376 53.3961 3.26372 53.3167 3.18278ZM51.1663 2.38857H53.3167C53.3961 2.4695 53.5724 2.64955 53.3167 2.86509H51.1663C51.0627 2.79229 50.9174 2.59506 51.1663 2.38857ZM44.8738 2.56726C44.6514 2.37665 44.3842 2.48784 44.2782 2.56726L43.8215 3.36148C43.8215 3.47267 44.0069 3.60636 44.0995 3.65931H44.6355C44.8103 3.65931 44.8671 3.54017 44.8738 3.48061V2.56726ZM42.928 3.69902C43.1913 3.69902 43.4045 3.48567 43.4045 3.22249C43.4045 2.95931 43.1913 2.74596 42.928 2.74596C42.6647 2.74596 42.4515 2.95931 42.4515 3.22249C42.4515 3.48567 42.6647 3.69902 42.928 3.69902ZM37.6068 5.76397L37.6068 5.20802H38.0833L38.7385 5.76397H37.6068ZM38.8378 5.20802L39.493 5.76397H40.327L39.6717 5.20802H38.8378ZM41.0417 5.76397L40.3865 5.20802H41.2204L41.8757 5.76397H41.0417ZM41.9352 5.20802L42.5905 5.76397H43.4244L42.7692 5.20802H41.9352ZM44.1392 5.76397L43.4839 5.20802H44.3179L44.9731 5.76397H44.1392ZM45.0327 5.20802L45.6879 5.76397H46.5218L45.8666 5.20802H45.0327ZM47.733 5.20802H46.5218L47.316 5.84339C47.6337 5.85928 47.7262 5.73089 47.733 5.66469V5.20802ZM50.3539 5.34701H48.2095C48.0665 5.4582 48.1499 5.5919 48.2095 5.64484H50.3539C50.5127 5.50585 50.4265 5.40658 50.3539 5.34701ZM53.292 5.34701H51.1477C51.0047 5.4582 51.0881 5.5919 51.1477 5.64484H53.292C53.4509 5.50585 53.3647 5.40658 53.292 5.34701Z" fill="#D9D9D9"/>
<path d="M53.9058 2.1106L53.9243 2.42828H54.2455V2.94452H53.9546L53.9731 3.26221H54.8411V2.1106H53.9058Z" fill="#D9D9D9"/>
<path d="M54.008 3.85787L54.0813 5.16832H59.1299V5.28745H60.9566V5.20803H62.5053V4.81092H60.9566V4.25497L62.5053 4.25497V3.85787H60.9566V3.77845H59.1299V3.85787H54.008Z" fill="#D9D9D9"/>
<path fill-rule="evenodd" clip-rule="evenodd" d="M14.6541 2.19001C15.0034 2.00886 15.5346 1.9823 15.8806 1.99657L15.9382 2.06091L15.977 3.86711C16.02 4.21124 16.2116 4.71893 16.6415 5.12895C17.0746 5.542 17.743 5.85531 18.726 5.83109H31.811C31.8846 5.85484 32.0028 5.92712 32.1041 6.04367C32.2097 6.16515 32.2845 6.3203 32.2781 6.49394L32.2757 6.56241C31.8611 6.71872 31.6196 6.89756 31.5311 6.995V8.6827L31.6502 8.80183V9.33793L31.2976 9.399L25.4693 10.3911C25.4249 10.3988 25.3786 10.4066 25.331 10.4146C24.5619 10.5438 23.4233 10.7079 23.311 10.7079C23.2454 10.7079 22.8851 10.6632 22.4524 10.6094C22.1031 10.566 21.7067 10.5168 21.3803 10.4805V8.50632L21.3556 8.45463C21.3144 8.36797 21.2394 8.24153 21.1403 8.13042C21.0493 8.0283 20.8946 7.88991 20.6897 7.87414C20.4937 7.85906 19.6179 7.86502 19.0724 7.8711C18.969 7.57234 18.7727 7.21234 18.4588 6.91831C18.0626 6.54722 17.4858 6.28891 16.7075 6.3862L16.4579 6.4174L16.5222 6.96406C16.4357 6.96416 16.3285 6.96191 16.2028 6.95529C15.901 6.9394 15.4019 6.69717 15.1902 6.57804L13.8661 5.45352V2.19002L14.6541 2.19001ZM23.119 8.16646L23.0727 8.30545C22.8477 8.54372 22.5128 9.18703 22.9734 9.85417C22.9734 9.88066 22.9456 9.91771 22.8344 9.85417C22.6961 9.77514 22.3219 9.4995 22.5334 8.16646H21.9777C21.6981 8.23771 21.6233 8.47688 21.6233 8.60328C21.61 8.85477 21.5915 9.43323 21.6233 9.73503C21.655 10.0368 21.941 10.1917 22.0799 10.2314C22.3778 10.2711 23.0409 10.3506 23.311 10.3506C23.6508 10.3506 24.8001 10.152 24.9788 10.0924C25.0966 10.0532 25.2135 9.96627 25.2806 9.90726C25.2864 9.64306 25.2833 9.31847 25.2568 9.00039C25.2091 8.42855 24.8398 8.20617 24.6611 8.16646H23.119ZM15.7461 2.26944C15.8719 2.34886 16.0678 2.59109 15.8454 2.92466C15.8388 2.93128 15.8096 2.94849 15.7461 2.96437C15.6826 2.98026 14.9651 2.97099 14.6144 2.96437C14.5482 2.89157 14.4357 2.69434 14.5151 2.48784C14.5945 2.28135 15.3689 2.2562 15.7461 2.26944Z" fill="#D9D9D9"/>
<path d="M31.3378 9.64917L32.2963 15.6117C32.3296 15.8312 32.1248 15.982 32.0166 16.0191L27.4862 16.8369C27.1423 16.9097 26.5212 16.993 26.4156 16.8267C26.3101 16.6604 26.2175 16.2694 26.2093 15.9944L26.0905 15.2092L26.2083 15.1913L25.5125 10.6408L31.3378 9.64917Z" fill="#D9D9D9"/>
<path d="M21.1269 10.4498C21.1172 10.4498 21.1067 10.4501 21.0955 10.4506C20.9301 10.4587 20.6055 10.5295 20.4121 10.7675C20.2056 11.0217 19.6642 13.6002 19.4193 14.8577L19.737 15.1754C19.737 15.3819 19.4591 15.5394 19.3201 15.5924C18.7244 15.5924 17.2129 15.1568 16.4107 14.8804C16.1432 14.7882 15.9546 14.7138 15.905 14.679C15.766 14.5817 15.7588 14.4773 15.7768 14.4217C15.7794 14.4138 15.7825 14.4068 15.7858 14.401L15.905 13.9245C16.1968 12.0621 17.1485 10.2969 17.7542 9.3926C17.8408 9.26341 17.9203 9.15179 17.9898 9.05996C17.8786 8.29751 17.189 7.80244 16.858 7.65023L16.7389 6.63761C16.8146 6.62589 16.9219 6.62053 16.9918 6.61929C18.2116 6.59765 18.7592 7.59315 18.8833 8.12676C19.3929 8.12013 20.4637 8.11087 20.6702 8.12676C20.8767 8.14264 21.0607 8.42459 21.1269 8.56358V10.4498Z" fill="#D9D9D9"/>
<path fill-rule="evenodd" clip-rule="evenodd" d="M13.6128 5.58528V2.19002L13.3039 2.19002C13.3039 2.2004 13.3055 2.21088 13.3072 2.22147C13.3193 2.30005 13.3323 2.384 12.6884 2.46799C12.5504 2.38016 12.1959 2.20907 11.8346 2.19149V2.03117L2.35883 2.03117L2.34785 1.92305H1.83412C1.70897 1.88875 1.38756 1.91482 1.10303 2.29345C0.818496 2.67208 1.15572 6.64908 1.3599 8.59026L1.83412 10.0924H3.17773L3.56435 9.97331L5.05735 7.45168L11.0294 6.53833L11.6322 4.65963H11.8346V4.23512H12.2913L12.6884 5.58528H13.6128ZM3.61454 5.80369C3.61454 5.67209 3.50787 5.56542 3.37628 5.56542C3.24469 5.56542 3.13802 5.67209 3.13802 5.80369V7.98777C3.13802 8.11937 3.24469 8.22604 3.37628 8.22604C3.50787 8.22604 3.61454 8.11937 3.61454 7.98777V5.80369Z" fill="#D9D9D9"/>
<path d="M71.9625 4.00751L69.3815 5.78902L71.568 7.40318L62.9438 5.359L63.3422 4.93425L62.9438 4.53524L63.1749 4.03326L62.9438 3.80215L72.3964 0.923584L69.4821 2.86551L71.9625 4.00751Z" fill="#D9D9D9"/>
</svg>
