<svg width="55" height="17" viewBox="0 0 55 17" fill="none" xmlns="http://www.w3.org/2000/svg">
<path d="M48.9231 4.98589L48.6953 4.76949L54.4096 3.42969L51.239 4.91778L54.2637 5.34572L51.5016 6.01681L52.8729 7.30063L48.6953 5.71461L48.9231 5.40717L48.6953 5.1282L48.9231 4.98589Z" fill="#D9D9D9"/>
<path d="M18.6391 2.47119V3.04829H13.9687V2.47119C13.9687 2.45609 13.9706 2.44137 13.974 2.4273C13.966 2.43221 13.9577 2.43655 13.949 2.44033C13.9415 2.44354 13.9337 2.44637 13.9258 2.44863C13.9182 2.4508 13.9105 2.4525 13.9026 2.45373C13.8928 2.45524 13.8828 2.45599 13.8726 2.45599H13.4907C13.384 2.45599 13.2974 2.36945 13.2974 2.26272V0.871735C13.2974 0.764998 13.384 0.678457 13.4907 0.678457H13.8726C13.9793 0.678457 14.0659 0.764998 14.0659 0.871735L17.7405 0.87249C17.7593 0.87249 17.7746 0.851256 17.7957 0.822094C17.8422 0.757637 17.9167 0.654297 18.1184 0.654297H26.6578C26.996 0.654297 27.1978 0.853898 27.4007 1.05454L27.4374 1.09068L27.4717 1.12428L29.6837 3.2628L28.4884 3.26242C28.3406 3.05451 27.5584 1.97016 27.0142 1.42052C26.8406 1.24517 26.5787 1.11116 26.3417 1.11116H19.0317C18.8431 1.11116 18.5288 1.20544 18.5288 1.3941C18.5288 1.51169 18.531 1.69392 18.5335 1.86917C18.5361 2.0483 18.5391 2.22015 18.5407 2.30801C18.5457 2.31066 18.5506 2.31358 18.5554 2.3167C18.5677 2.32472 18.579 2.33416 18.589 2.34482C18.5972 2.3536 18.6046 2.36313 18.611 2.37332C18.6288 2.40173 18.6391 2.43523 18.6391 2.47119Z" fill="#D9D9D9"/>
<path fill-rule="evenodd" clip-rule="evenodd" d="M30.0801 3.65926L29.8766 3.4557H28.4883L28.4882 4.38623H25.3457C25.2104 4.38698 25.1344 4.40057 25.0823 4.42483C25.0569 4.4375 25.0341 4.45321 25.0136 4.47305C24.9779 4.50759 24.9388 4.56063 24.8881 4.64878C24.6372 5.08445 24.4329 5.54587 24.1816 5.98209L23.7509 6.64602H23.3124L23.3102 7.11647C23.453 6.96264 23.6394 6.79985 23.8788 6.66395V6.76757C24.2617 6.56325 24.6807 6.4349 25.2121 6.43622V6.34156C28.4697 6.37903 34.4586 6.3578 37.464 6.34374C38.5822 6.33845 39.2882 6.3342 39.2882 6.3342L39.5154 5.64131L38.9788 3.91407C38.918 3.6871 38.6018 3.62265 38.3684 3.62265C35.6054 3.62265 30.0801 3.65926 30.0801 3.65926ZM36.8349 3.98835C36.9315 3.98835 37.0108 4.04242 37.0186 4.11122H36.6696V3.98835H36.8349ZM34.8606 3.98835H35.0491V4.11122H34.6768C34.6847 4.04242 34.764 3.98835 34.8606 3.98835ZM33.9905 3.98835C34.0871 3.98835 34.1663 4.04242 34.1742 4.11122H33.2546C33.2625 4.04242 33.3417 3.98835 33.4384 3.98835H33.9905ZM32.5682 3.98835C32.6648 3.98835 32.7441 4.04242 32.752 4.11122H31.8323C31.8402 4.04242 31.9195 3.98835 32.0161 3.98835H32.5682ZM31.146 3.98835C31.2426 3.98835 31.3219 4.04242 31.3298 4.11122H30.4101C30.418 4.04242 30.4973 3.98835 30.5939 3.98835H31.146ZM37.7051 3.98835H38.2572C38.359 3.98835 38.4416 4.04846 38.4416 4.12255C38.4416 4.19663 38.359 4.25665 38.2572 4.25665H37.7051C37.6032 4.25665 37.5206 4.19663 37.5206 4.12255C37.5206 4.04846 37.6032 3.98835 37.7051 3.98835Z" fill="#D9D9D9"/>
<path d="M39.5145 4.98654L39.6703 5.48795H40.881V5.65188H42.0276V5.48795H45.6381V5.68868H48.285V4.78609H45.6381V4.98654H42.0276V4.82242H40.881V4.98654H39.5145Z" fill="#D9D9D9"/>
<path d="M39.5374 6.19434L39.4583 6.43584H40.1368V6.19434H39.5374Z" fill="#D9D9D9"/>
<path d="M39.352 6.5271L39.289 6.52748H39.2824L39.2617 6.52758L39.1805 6.52814L37.6788 6.53598V6.58212H38.8949V6.66876H39.352V6.5271Z" fill="#D9D9D9"/>
<path d="M23.12 6.45274L23.1159 7.35165L22.7408 7.92865L19.2076 8.66675L18.9836 9.35106C18.9722 9.38296 18.9419 9.40419 18.9081 9.40419C18.8638 9.40419 18.8279 9.36833 18.8279 9.32398V8.74603L18.7318 8.76613L18.5795 8.95082C18.5063 9.03944 18.401 9.09559 18.2866 9.10682L16.6533 9.26745C16.615 9.27122 16.5767 9.2699 16.5392 9.26367C16.4893 9.25537 16.4409 9.23828 16.3964 9.21309L15.3828 8.63891L15.3551 8.6945L13.9017 11.859L14.0221 12.1191L12.118 11.022C12.4249 10.313 12.8438 9.74007 13.2077 9.24244C13.7825 8.4563 14.2199 7.85806 13.8615 7.20849C13.9029 7.22896 13.9467 7.24973 13.9925 7.27058C14.0301 7.28776 14.0692 7.30503 14.1097 7.32221L14.1437 7.33636L14.1701 7.34731L14.2237 7.36883C14.6393 7.53266 15.1843 7.68196 15.7976 7.69734C15.7362 7.79738 15.686 7.9245 15.6237 8.08201C15.5708 8.21602 15.5092 8.37184 15.4248 8.55162L16.444 9.129C16.5047 9.16335 16.5745 9.17807 16.6438 9.17128L18.2772 9.01065C18.3661 9.00188 18.448 8.95828 18.5049 8.88929L18.6559 8.7063L18.6479 7.38364C18.5297 7.38261 18.4521 7.32107 18.4129 7.23812C18.2935 7.30258 17.544 7.36477 16.9047 7.40714C16.542 8.03624 16.4665 8.58786 16.9444 8.97592C16.4046 8.88164 16.3379 8.16714 16.5326 7.43055C16.4601 7.43489 16.3919 7.43876 16.3296 7.44216L16.311 7.44329L16.1878 7.45018L16.0867 7.45556C16.0478 7.46924 16.0134 7.48557 15.9823 7.50454C14.9127 7.52672 14.0256 7.10213 13.6603 6.87808C13.6182 6.85222 13.5829 6.82901 13.5551 6.80938L13.528 6.78975L13.5148 6.77956L13.5077 6.77389L13.4953 6.76332L13.3756 6.72944L13.0766 6.73086V3.24185H18.678V4.11585L28.2949 4.1166V4.19295H25.3452C25.1373 4.19408 25.0107 4.22268 24.9066 4.30941C24.7839 4.41171 24.6923 4.5947 24.5353 4.90859C24.3705 5.23717 24.2007 5.56261 24.0168 5.88111L23.6459 6.45274H23.12Z" fill="#D9D9D9"/>
<path d="M18.8712 3.47986V3.92276H24.5363V3.8919H26.8562V3.54224H25.0304V3.57253H24.5363V3.47995L18.8712 3.47986Z" fill="#D9D9D9"/>
<path d="M19.6768 8.76604L22.3669 8.20413C22.5118 11.5485 23.045 12.6211 24.2226 14.9903L24.447 15.4423L21.9982 16.6543C20.6786 13.9875 19.918 12.3389 19.6768 8.76604Z" fill="#D9D9D9"/>
<path fill-rule="evenodd" clip-rule="evenodd" d="M11.9728 3.6351V6.73633C11.4509 6.74039 10.547 6.7469 9.66141 6.75162C9.04965 6.75483 8.4466 6.75719 7.9841 6.75719C7.7529 6.75719 1.19801 7.09363 1.14164 10.8977C1.14126 10.9243 1.11965 10.9471 1.09297 10.9471H0.689967L0.0746242 11.0072C0.0435515 11.0103 0.0178109 10.9835 0.0219162 10.9525C0.23742 9.33587 0.187354 7.69225 0.137147 6.044L0.13165 5.86309C0.125822 5.6699 0.120112 5.47663 0.114946 5.28335C0.107891 5.01872 0.101875 4.7541 0.0980054 4.48957C0.0970852 4.42794 0.153427 4.38132 0.213826 4.39368L0.731043 4.49938C0.931494 4.49938 1.13607 4.49995 1.3441 4.5008C1.61979 4.50184 1.90149 4.50344 2.18764 4.50514L2.23098 4.50542C5.82078 4.52637 10.0989 4.55129 11.9728 3.6351ZM7.41863 4.7037H1.88517V6.66829C1.88517 6.67508 1.88597 6.68112 1.8875 6.6865C1.88965 6.69405 1.89324 6.70038 1.89807 6.70585C1.90175 6.71 1.90619 6.71368 1.91129 6.71699C1.92806 6.72774 1.95196 6.73454 1.98016 6.74247C2.05641 6.76398 2.164 6.79437 2.24681 6.93773C2.3791 7.16687 2.33316 7.46018 2.32273 7.51624L7.51135 6.53994C7.74663 6.49568 7.77817 6.23624 7.77817 6.07779V5.06317C7.77817 4.83837 7.58537 4.7037 7.41863 4.7037ZM10.4793 5.09347H8.41588C8.31372 5.09347 8.23147 5.17576 8.23147 5.27797V6.22011C8.23147 6.32231 8.31372 6.40451 8.41588 6.40451H10.4793C10.5814 6.40451 10.6637 6.32231 10.6637 6.22011V5.27797C10.6637 5.17576 10.5814 5.09347 10.4793 5.09347ZM1.71987 7.05928C1.66544 7.11392 1.66528 7.20603 1.71985 7.26058C1.75816 7.2989 1.81441 7.31041 1.86353 7.29522C1.87 7.29323 1.87634 7.29069 1.8825 7.28776C1.88956 7.28446 1.89635 7.28049 1.90284 7.27596C1.90928 7.27143 1.91542 7.26634 1.92115 7.26058C1.96147 7.22038 1.97383 7.158 1.95199 7.10543C1.91461 7.01511 1.79117 6.98822 1.71987 7.05928Z" fill="#D9D9D9"/>
<path d="M12.8834 3.42522H12.6901L12.4692 3.4255H12.4214L12.3594 3.42522L12.3343 3.4255H12.1661V6.70066H12.8834V3.42522Z" fill="#D9D9D9"/>
</svg>
