<svg width="86" height="17" viewBox="0 0 86 17" fill="none" xmlns="http://www.w3.org/2000/svg">
<path d="M76.5704 2.3369L76.8511 2.11406V1.40981C76.8511 1.12438 77.1809 0.85246 77.5864 0.852539C77.9919 0.852618 78.3127 1.05305 78.3127 1.40981V2.42191C78.4223 2.44109 78.5428 2.51045 78.5428 2.64444V3.27713C78.5428 3.50595 78.3678 3.6125 78.2502 3.6125L78.2152 3.61289L78.1746 3.69145H76.6373L76.6343 3.63066L65.069 3.76041L62.7224 3.88197L62.687 4.64519C62.2235 4.93708 61.9541 5.48335 61.9536 5.80103V6.44464L60.7755 6.4768C60.8702 6.3285 60.9207 6.14025 60.9315 5.91882L60.9319 5.91095V3.79909C60.9319 3.76465 60.9276 3.73123 60.9194 3.69931C60.9036 3.63719 60.8733 3.58081 60.8323 3.53402V2.08205H61.0614C61.0741 2.08205 61.113 2.09102 61.113 2.09102C61.1645 2.10942 61.2153 2.15786 61.2614 2.25143L62.4867 2.25214C62.504 2.25214 62.5283 2.27376 62.5555 2.31095L65.069 2.36568L76.574 2.40988L76.5704 2.3369Z" fill="#D9D9D9"/>
<path fill-rule="evenodd" clip-rule="evenodd" d="M60.5102 1.82083V3.39657L53.5607 3.44579C53.4435 3.44658 53.3355 3.49816 53.261 3.5823C53.109 3.75404 52.8726 3.95408 52.6458 4.11182C52.5334 4.19006 52.4302 4.25305 52.348 4.29496C52.3068 4.31595 52.2755 4.32924 52.2543 4.33663L52.2444 4.33986L43.2087 4.30604V2.83804C43.2087 2.56777 43.0033 2.3454 42.7401 2.31866C42.7306 2.31772 42.721 2.31701 42.7114 2.31654C42.7032 2.31614 42.695 2.31599 42.6867 2.31599H42.4032L42.3353 2.31607V1.90127L42.3352 1.84513L42.3504 1.84521L59.9091 1.96693L59.9091 1.82083H60.5102ZM53.8266 2.07167C53.7305 2.07167 53.6525 2.1496 53.6525 2.24569V2.65403C53.6525 2.75012 53.7305 2.82805 53.8266 2.82805H54.4363C54.5324 2.82805 54.6103 2.75012 54.6103 2.65403V2.24569C54.6103 2.1496 54.5324 2.07167 54.4363 2.07167H53.8266ZM55.3341 2.24569C55.3341 2.1496 55.412 2.07167 55.5081 2.07167H56.1179C56.2139 2.07167 56.2919 2.1496 56.2919 2.24569V2.65403C56.2919 2.75012 56.2139 2.82805 56.1179 2.82805H55.5081C55.412 2.82805 55.3341 2.75012 55.3341 2.65403V2.24569ZM57.0965 2.09864C57.1099 2.09015 57.1246 2.08339 57.1402 2.07883L57.1485 2.07663L57.1542 2.07529C57.16 2.07411 57.1658 2.07325 57.1718 2.07262C57.1776 2.07199 57.1836 2.07167 57.1896 2.07167H57.7994C57.8955 2.07167 57.9734 2.1496 57.9734 2.24569V2.65403C57.9734 2.75012 57.8955 2.82805 57.7994 2.82805H57.1896C57.0935 2.82805 57.0156 2.75012 57.0156 2.65403V2.24569C57.0156 2.18388 57.0479 2.12955 57.0965 2.09864ZM58.6972 2.24569C58.6972 2.1496 58.7751 2.07167 58.8712 2.07167H59.4809C59.577 2.07167 59.6549 2.1496 59.6549 2.24569V2.65403C59.6549 2.6939 59.6415 2.73062 59.619 2.75995C59.6095 2.77238 59.5983 2.78346 59.5858 2.7929C59.5745 2.80147 59.5621 2.80863 59.5489 2.81429C59.5405 2.81783 59.5318 2.82074 59.5229 2.82294C59.5094 2.82632 59.4954 2.82805 59.4809 2.82805H58.8712C58.7751 2.82805 58.6972 2.75012 58.6972 2.65403V2.24569Z" fill="#D9D9D9"/>
<path d="M29.1806 4.57568C29.1422 4.57568 29.1068 4.57159 29.0748 4.56325C29.0188 4.54879 28.9729 4.52158 28.9383 4.48155C28.8917 4.42769 28.8655 4.35024 28.8628 4.24927L28.8625 4.23166C28.7268 4.23347 28.6257 4.23748 28.5406 4.2455L28.5231 4.24723C28.4711 4.25257 28.4249 4.25965 28.38 4.26869C28.3655 4.2716 28.3511 4.27475 28.3367 4.27813C28.3194 4.28214 28.3021 4.28654 28.2845 4.29126L24.6644 5.701C24.2131 5.90498 23.5492 5.98149 22.8955 5.92354C22.2418 5.86558 21.6328 5.67034 21.2864 5.42138C20.9632 5.18918 20.4599 5.1773 19.9796 5.2388L2.24178 6.20497L1.1507 6.25246C0.766816 6.29248 0.804009 7.26872 0.85689 8.13314L1.15059 15.8432C1.15597 16.3466 1.2019 16.4979 1.41208 16.8431C1.42494 16.8643 1.48234 16.8431 1.48234 16.8431L2.56182 16.3941C2.56174 16.3937 2.5617 16.3935 2.56163 16.3932L17.5596 11.0064C17.8283 10.8966 18.6747 10.866 19.3923 11.05C19.3923 11.05 20.3981 11.3812 21.079 11.5774C21.7597 11.7737 22.6865 11.8292 22.6865 11.8292C22.8259 11.8292 22.8849 11.7705 22.9741 11.5774C23.4434 10.5617 24.2429 9.52849 25.4213 8.88464C26.1487 8.48723 27.0043 8.25659 28.1167 8.15036C28.1998 8.14242 28.2844 8.13518 28.3704 8.12858C28.6783 8.10507 29.0051 8.09028 29.3534 8.08328L29.4935 8.07935C29.3696 8.19573 29.2712 8.30495 29.1954 8.4093C28.8573 8.87426 28.9651 9.24108 29.2366 9.70314C29.2971 9.80607 29.4917 9.75975 29.4016 9.58754C29.1386 9.08508 29.2286 8.71825 29.6615 8.39688C29.8201 8.27908 30.0248 8.16742 30.2751 8.05741L31.4562 8.02431V8.08061H31.178C31.0895 8.17985 31.0289 8.26807 30.9884 8.3596C30.9323 8.48644 30.9146 8.61972 30.9146 8.79743C30.9146 8.98568 31.0996 9.14476 31.4585 9.23762L31.4533 9.27867C31.4379 9.39143 31.0513 9.65949 30.7103 9.75543C30.3309 9.86221 29.4436 9.84806 29.2126 9.79113C28.9559 9.7279 28.6612 9.5785 28.4998 9.10819C28.4163 8.86467 28.3868 8.67374 28.3763 8.45121C28.2951 8.4575 28.2152 8.4645 28.1369 8.47205C28.166 8.81623 28.2199 9.26389 28.2592 9.40574C28.3818 9.84837 28.8568 10.0801 29.1967 10.1685C29.3258 10.2021 30.1318 10.1837 30.7103 10.1532C31.1789 10.1285 31.4732 9.75157 31.6916 9.28465L31.6957 9.28528C31.7158 9.28834 31.7363 9.29117 31.7571 9.29393C31.7765 9.29644 31.7962 9.2988 31.8162 9.301C31.9636 9.31744 32.0715 9.25021 32.0826 9.04057C32.1014 8.68515 32.3339 8.37973 32.5111 8.3169C32.5206 8.31352 32.53 8.31085 32.5392 8.30888C32.7099 8.27256 32.6933 8.20855 32.641 8.00646L32.6371 7.99113L34.5037 7.93876L34.6598 8.07998H35.2506C35.2817 8.07998 35.3227 8.1425 35.361 8.23686C35.4232 8.39011 35.4782 8.62735 35.4718 8.81623C35.4675 8.94165 35.7538 9.00023 35.7687 8.87685L35.8219 7.90172L39.9127 7.78691C40.3222 7.67431 40.7158 7.57319 41.1015 7.48221C43.6616 6.87823 45.8749 6.71994 50.0788 6.61071L60.0858 6.50283H60.0877C60.3021 6.50244 60.584 6.42994 60.6098 5.90309V3.79909C60.6098 3.75443 60.5734 3.71826 60.5287 3.71857L53.563 3.76788C53.5397 3.76803 53.5177 3.77826 53.5022 3.79579C53.1544 4.18872 52.4708 4.66202 52.2604 4.66202L29.1806 4.57568Z" fill="#D9D9D9"/>
<path d="M29.1854 4.2536L42.8867 4.30487V2.83811C42.8867 2.72763 42.7971 2.63815 42.6867 2.63815H42.0132L42.0131 1.72348H40.8214L40.8212 2.07647H39.6929C39.3269 2.24278 38.7592 2.40712 38.6329 2.42647C38.625 2.42765 38.6189 2.42828 38.6146 2.42835H37.9331V2.07592H37.6075L37.6074 2.38393L37.5432 2.38385L35.7573 2.38393L35.6682 2.25017L35.4564 1.79488H33.958V2.0204H33.4348L33.4317 1.86353C33.4313 1.84246 33.4216 1.8239 33.4066 1.81132C33.4019 1.80731 33.3965 1.80393 33.3908 1.80125C33.3812 1.79685 33.3706 1.79449 33.3593 1.7948C33.0227 1.80259 32.9391 1.75069 32.6607 1.4084C32.6326 1.3738 32.6081 1.33708 32.5839 1.30091L32.5645 1.27181L32.5508 1.25192C32.4847 1.15724 32.4117 1.0783 32.2678 1.07342C31.9164 1.06155 31.6932 1.27614 31.6932 1.4084V2.66756L29.3713 2.97981C29.2982 2.98964 29.2393 3.04445 29.2242 3.11663L29.0587 3.9069L29.1846 3.90525V4.23166L29.1848 4.24298L29.1854 4.2536Z" fill="#D9D9D9"/>
<path d="M36.1468 8.21484L39.9606 8.10774L39.9981 8.09744C40.3922 7.98908 40.7713 7.8915 41.1429 7.80335C41.3869 9.66563 41.6087 10.8422 42.1328 12.758C42.1582 12.8508 42.104 12.947 42.0114 12.9726L37.5765 14.1986C37.4864 14.2235 37.3925 14.1722 37.3643 14.083C36.6634 11.8706 36.3418 10.5271 36.1468 8.21484Z" fill="#D9D9D9"/>
<path d="M84.5819 1.35352L78.9316 2.48982L79.3073 2.68191L78.9316 3.14534L79.1954 3.42514L78.9316 3.66496L84.2078 5.1279L82.5161 3.66496L85.7258 3.42514L82.4011 2.77761L84.5819 1.35352Z" fill="#D9D9D9"/>
</svg>
