<svg width="75" height="17" viewBox="0 0 75 17" fill="none" xmlns="http://www.w3.org/2000/svg">
<path d="M25.6076 3.81836H24.938V4.35799H24.6847V4.86189L24.154 4.8619C24.0345 6.09776 23.4235 6.41527 22.9459 6.61016L23.9479 8.95109C23.8879 8.9709 23.8282 8.9896 23.7681 9.00916C23.6464 9.35841 23.5763 9.66928 23.5766 9.94642C23.5763 10.2873 23.6824 10.5773 23.93 10.825C23.9812 10.8762 24.0335 10.8303 24.0322 10.7865C24.0325 10.7774 24.0305 10.7684 24.0258 10.7602C23.8434 10.4403 23.7496 10.1709 23.7492 9.90692C23.7496 9.69104 23.8102 9.4794 23.9382 9.24587C24.0027 9.12757 24.0839 9.00386 24.1822 8.87154C25.2993 8.49067 26.035 8.25327 27.9983 8.25327C27.9983 8.25327 30.499 8.10541 32.3443 8.05145V4.50673H31.3294C31.3294 4.74841 31.1166 4.8619 30.7981 4.8619L28.31 4.86189V4.4717L26.4098 4.35799H25.6076V3.81836Z" fill="#D9D9D9"/>
<path d="M32.62 5.58728V7.82808C36.9739 8.15593 41.7359 8.29454 46.1595 7.73068C46.6486 7.66862 47.1334 7.59796 47.6127 7.51814C48.6768 7.51814 49.2798 7.23196 49.2798 6.37493C49.2783 6.27639 49.264 6.18895 49.2381 6.11124C49.2271 6.07848 49.198 6.01809 49.198 6.01809C49.0199 5.68049 48.5348 5.55724 47.6127 5.49366L32.62 5.58728Z" fill="#D9D9D9"/>
<path d="M32.62 5.3116L47.6316 5.21866C48.2249 5.25958 48.6913 5.32662 49.013 5.48707C49.1821 5.57147 49.3227 5.68682 49.4189 5.84593C49.4521 5.90095 49.4785 5.95849 49.4988 6.01809H59.279V6.11124H49.5253C49.5448 6.19469 49.554 6.28149 49.5555 6.37049L49.5555 6.37277C49.5555 6.69118 49.4819 6.96359 49.3323 7.1796H60.012C60.0502 7.1796 60.0812 7.13168 60.0812 7.07257V6.21827C60.0812 6.15916 60.0502 6.11124 60.012 6.11124H59.8388V6.01809H61.5089C61.5472 6.01809 61.5782 5.95889 61.5782 5.88586V4.8305C61.5782 4.75748 61.5472 4.69828 61.5089 4.69828H61.2143V4.34312L61.0609 4.10022H60.166V4.69828L32.62 4.69865V5.3116Z" fill="#D9D9D9"/>
<path fill-rule="evenodd" clip-rule="evenodd" d="M25.4782 8.76422C26.2944 9.14965 26.6981 10.4007 25.8944 11.2044C24.9499 12.1489 23.3762 11.1976 23.4224 10.172C23.4265 10.0803 23.3859 9.98855 23.3048 9.94542L23.0401 9.80469C22.9901 9.7781 22.9314 9.77319 22.8777 9.7911L22.2878 9.98773C22.1407 10.0356 22.0082 10.0766 21.8861 10.1143C21.1876 10.3301 20.8253 10.4421 19.9981 11.1587C19.0261 12.0008 18.7515 13.0218 18.7515 13.186C18.7515 13.4883 18.8928 14.2029 19.3541 14.4565C19.8153 14.7101 20.1236 14.6806 20.4808 14.6041C20.7856 14.5388 20.9496 14.3327 21.6233 13.4858C21.6787 13.4161 21.7375 13.3422 21.8002 13.2636C22.322 12.6091 23.5421 11.9835 24.6049 12.0454C25.3047 12.0862 25.8042 11.8191 26.2882 11.3352C26.8448 10.7786 27.1063 10.1275 26.9231 9.45407C26.8131 9.04957 26.9108 8.76633 27.1428 8.54712C26.5579 8.57437 26.1092 8.63136 25.7132 8.71219C25.6331 8.72854 25.555 8.74588 25.4782 8.76422ZM23.0086 12.1156C21.8162 12.8452 21.557 13.0745 20.9354 14.0279C20.7193 14.3594 20.2468 14.5173 19.6631 14.332C19.2032 14.186 18.8782 13.6016 18.9907 13.1754C19.222 12.0733 20.3645 10.7427 22.0835 10.2796C22.7349 10.1042 23.0725 10.3586 23.3689 10.8027C23.6859 11.2778 23.3493 11.9071 23.0086 12.1156Z" fill="#D9D9D9"/>
<path d="M22.6815 6.69321L23.6862 9.03999C23.5842 9.07313 23.4823 9.10602 23.3807 9.13879C20.9609 9.91957 18.7064 10.647 18.2547 13.6564L15.8422 12.5616C15.9418 12.004 15.5502 11.9456 15.2361 12.0298C12.847 12.7968 10.4577 13.5642 8.06835 14.3315L8.02302 14.3461C5.63209 15.114 3.24111 15.8818 0.850172 16.6495L0.359375 7.69115L15.0974 7.51742C15.6202 7.51742 16.3018 8.0816 16.9116 8.90947C18.5419 8.18947 20.187 7.54703 21.8422 6.97649C22.1217 6.88014 22.4015 6.7857 22.6815 6.69321Z" fill="#D9D9D9"/>
<path d="M22.3589 6.01042L22.7647 6.37572C22.5017 6.46185 22.2389 6.54961 21.9765 6.63905C21.9935 6.60088 22.0115 6.56197 22.0303 6.52223C22.0507 6.4793 21.9668 6.41334 21.9275 6.42966C21.7647 6.49735 21.6722 6.48118 21.4771 6.41904C21.2223 6.33787 21.121 6.33488 20.9355 6.4392C20.8851 6.46752 20.7829 6.40704 20.822 6.36983C21.0445 6.15801 21.1996 6.10587 21.7011 6.13101C21.8002 6.13598 21.8944 6.07349 22.0457 5.97054C22.1546 5.89644 22.2864 5.9451 22.3589 6.01042Z" fill="#D9D9D9"/>
<path d="M70.8018 0.650391L62.2578 4.82304L62.6255 5.12703L62.2578 5.32087L62.7677 5.48887L62.2578 5.81657L70.1064 9.96439L67.3743 6.93425L74.4777 5.81657L67.9704 4.35117L70.8018 0.650391Z" fill="#D9D9D9"/>
</svg>
