<?xml version="1.0" encoding="UTF-8" standalone="no"?>
<svg
   width="81.906685"
   height="16.000011"
   viewBox="0 0 81.906685 16.000011"
   fill="none"
   version="1.1"
   id="svg11"
   xmlns="http://www.w3.org/2000/svg"
   xmlns:svg="http://www.w3.org/2000/svg">
  <defs
     id="defs11" />
  <path
     d="m 70.455583,4.493378 10.8319,-3.14462 -2.8708,2.19529 3.49,0.94933 -3.7714,1.69632 2.6116,1.97256 -10.2913,-2.40832 0.4322,-0.32037 -0.4322,-0.29969 0.7114,-0.41108 z"
     fill="#d9d9d9"
     id="path1" />
  <path
     d="m 26.509083,0.065809 c 0,-0.006846 0.003,-0.01311 0.0092,-0.015833 C 26.549983,0.036232 26.684183,0 27.219183,0 c 0.5349,0 0.6691,0.036232 0.7007,0.049976 0.0062,0.002704 0.0092,0.008968 0.0092,0.015833 v 0.200694 h -0.0328 v 0.351204 c 0,0.004689 -0.0012,0.009104 -0.0033,0.012968 -0.0046,0.008696 -0.0138,0.014618 -0.0243,0.014618 h -0.0235 v 0.141545 h 0.1713 v 0.14596 h 0.3265 v -0.04937 c 0,-0.03048 0.0247,-0.05517 0.0552,-0.05517 h 1.3604 c 0.0305,0 0.0552,0.02469 0.0552,0.05517 v 0.04937 h 1.2894 v -0.04937 c 0,-0.03048 0.0247,-0.05517 0.0552,-0.05517 h 0.9979 c 0.0305,0 0.0552,0.02469 0.0552,0.05517 v 0.04937 h 0.3933 c 0.0304,0 0.0551,0.0247 0.0551,0.05518 v 1.50658 c 0,0.03047 -0.0247,0.05516 -0.0551,0.05516 h -0.3933 v 0.0494 c 0,0.03047 -0.0247,0.05516 -0.0552,0.05516 h -0.9979 c -0.0305,0 -0.0552,-0.0247 -0.0552,-0.05517 v -0.04939 h -1.2894 v 0.04939 c 0,0.03047 -0.0247,0.05517 -0.0552,0.05517 h -1.3604 c -0.0305,0 -0.0552,-0.02469 -0.0552,-0.05516 v -0.0494 h -0.3265 v 0.14597 h -6.8326 c -0.0305,0 -0.0551,-0.0247 -0.0551,-0.05517 v -1.7985 c 0,-0.03048 0.0246,-0.05518 0.0551,-0.05518 h 5.4092 V 0.645293 h -0.0235 c -0.0153,0 -0.0276,-0.012352 -0.0276,-0.027586 V 0.266503 h -0.0329 z"
     fill="#d9d9d9"
     id="path2" />
  <path
     fill-rule="evenodd"
     clip-rule="evenodd"
     d="m 27.648583,4.277908 h -3e-4 v 0.27293 h 3.544 v -0.22554 h 0.3964 v 0.22554 h 0.1042 c 0.0613,-0.00976 0.117,-0.01972 0.1687,-0.03045 0.0509,-0.01057 0.098,-0.0219 0.1429,-0.03455 0.1547,-0.04369 0.2827,-0.10321 0.4482,-0.20195 l 0.5545,-0.04108 h 3.2319 l 3.2834,0.05649 c 0.2459,0.21867 0.5844,0.25155 1.1238,0.25155 v -0.15233 l 0.3515,-0.05955 -0.4707,-0.01233 0.0035,-0.13707 -0.1565,-0.0054 c -0.4133,-0.04219 -0.6777,-0.3491 -0.7188,-0.67766 h 0.2464 c 0.0893,0.20279 0.1718,0.29105 0.4724,0.32856 l 0.1657,0.00658 0.0039,-0.15033 0.8326,0.0218 -0.0042,0.16161 1.9167,0.07616 0.0633,-0.01071 c 0.3602,-0.06933 0.7742,-0.13842 0.9846,0.04763 v 0.20436 l 3.6707,1.5e-4 4e-4,0.64002 -15.2738,0.1675 v 0.33134 c 0,0.09877 -0.08,0.17884 -0.1788,0.17884 h -3.1927 l 0.0089,-0.33503 c 0.0074,-0.28253 -0.2155,-0.51764 -0.4981,-0.52512 -0.2825,-0.00748 -0.5176,0.21549 -0.5251,0.49803 l -0.0096,0.36212 h -0.5476 c -0.0984,0 -0.1788,-0.08017 -0.1788,-0.17929 v -0.27591 l -4.0941,0.04449 c -0.238,3.5e-4 -0.4824,0.0781 -0.6953,0.16327 l -1.687,0.68904 c -0.0571,-0.26954 -0.0739,-0.39855 -0.0737,-0.61858 -2e-4,-0.27361 0.0257,-0.40647 0.1229,-0.84379 0.0411,-0.18482 0.2054,-0.18482 0.2053,-0.04771 v 0.32195 c 0.2332,0.11083 0.3764,0.11325 0.6572,0 0.2114,-0.31198 0.9013,-0.50323 1.4595,-0.52067 l 2.627,-0.04556 -0.0077,0.22045 0.3713,-0.03843 h 0.0091 v -0.02952 l 0.5084,-0.00546 c 0.0076,-9e-5 0.0136,-0.00623 0.0136,-0.0138 v -0.33841 c 0,-0.01524 0.0124,-0.02759 0.0276,-0.02759 h 0.5647 c 0.0153,0 0.0276,0.01235 0.0276,0.02759 z m 13.713,-5.5e-4 0.0015,-0.05908 0.2885,0.00994 z"
     fill="#d9d9d9"
     id="path3" />
  <path
     fill-rule="evenodd"
     clip-rule="evenodd"
     d="m 28.963483,4.277908 h 1.9559 v -0.22554 h 0.9422 v 0.18857 c 0.0514,-0.01214 0.0981,-0.02547 0.1429,-0.04102 v -1.27271 h -0.8461 c -0.0948,0 -0.1803,-0.04023 -0.2402,-0.10455 h -0.9194 c -0.0599,0.06432 -0.1453,0.10455 -0.2402,0.10455 h -0.7951 z m 2.073,-0.89628 c 0,0.30516 -0.2473,0.55256 -0.5525,0.55256 -0.3052,0 -0.5526,-0.2474 -0.5526,-0.55256 0,-0.30518 0.2474,-0.55258 0.5526,-0.55258 0.3052,0 0.5525,0.2474 0.5525,0.55258 z"
     fill="#d9d9d9"
     id="path4" />
  <path
     d="m 29.098483,5.167758 c 0.0035,-0.13184 -0.1005,-0.24156 -0.2324,-0.24505 -0.1318,-0.00349 -0.2416,0.10056 -0.2451,0.23241 l -0.093,3.51543 c -0.0928,0.03428 -0.1755,0.08934 -0.2425,0.15954 -0.0746,0.07817 -0.1297,0.1751 -0.1575,0.283 -0.0132,0.05141 -0.0202,0.1053 -0.0202,0.16085 0,0.35515 0.2879,0.64305 0.643,0.64305 0.3552,0 0.6431,-0.2879 0.6431,-0.64305 0,-0.07956 -0.0145,-0.15575 -0.0409,-0.22608 -0.0389,-0.10355 -0.1037,-0.1944 -0.1866,-0.26464 -0.0481,-0.04079 -0.1023,-0.07463 -0.161,-0.09997 z"
     fill="#d9d9d9"
     id="path5" />
  <path
     d="m 29.514183,8.767628 c -0.062,-0.09332 -0.1406,-0.17458 -0.2316,-0.23956 l 0.0727,-2.74512 h 3.1999 c 0.2495,0 0.4518,-0.20227 0.4518,-0.45177 v -0.06139 l 15.0008,-0.1645 v 1.88924 c 0,0.00438 -1e-4,0.00821 -4e-4,0.01268 -9e-4,0.01776 -0.0038,0.03613 -0.0083,0.05474 -0.0275,0.11204 -0.1155,0.23284 -0.2061,0.28208 -0.0148,0.00801 -0.0296,0.01413 -0.0443,0.018 -2.0946,0.55446 -8.0473,1.27533 -8.5196,1.27533 l -6.0579,0.08213 c -0.8401,-0.02872 -2.1942,-0.01401 -3.657,0.04814 z"
     fill="#d9d9d9"
     id="path6" />
  <path
     d="m 29.635483,9.035738 c 0.0204,0.07593 0.0313,0.15578 0.0313,0.2382 0,0.50585 -0.4101,0.91595 -0.916,0.91595 -0.5059,0 -0.916,-0.4101 -0.916,-0.91595 0,-0.04866 0.0038,-0.09641 0.0111,-0.143 l -0.0627,0.00398 -0.0104,-0.07392 -1.0476,0.07447 0.0058,0.08063 -0.2662,0.02455 c -0.1139,0.01051 -0.2271,0.02136 -0.3395,0.03252 0.1905,0.1686 0.3547,0.43377 0.3723,0.80162 0.0264,0.5545 -0.47,0.9383 -0.8009,0.9857 -0.852,0.122 -1.2732,0.1643 -2.0535,0.2259 -0.2259,0.0179 -0.8143,-0.2875 -0.883,-0.883 -0.0264,-0.2287 -0.0024,-0.4333 0.1201,-0.6422 -0.2091,0.0494 -0.3986,0.1009 -0.5651,0.1543 0.2578,0.271 0.2909,0.683 0.1164,0.8575 0.2215,0.4968 0.5134,0.6982 0.9857,0.7804 0.3521,0.0612 0.8255,0.0377 1.191,-0.0206 0.6246,-0.0995 1.2718,-0.2071 1.9042,-0.3153 l 0.0727,-0.0125 c 0.5935,-0.1018 1.1725,-0.2041 1.7058,-0.3006 0.9637,-0.1745 1.7783,-0.3306 2.2593,-0.4326 0.0409,-0.0087 0.0794,-0.0169 0.1153,-0.0248 0.0372,-0.0081 0.0716,-0.0158 0.1033,-0.0231 1.7749,-0.4053 2.7657,-0.74647 4.0478,-1.45376 l -1.6483,0.02236 -0.0065,-2.2e-4 c -0.8105,-0.02772 -2.1111,-0.01458 -3.5264,0.04347 z"
     fill="#d9d9d9"
     id="path7" />
  <path
     fill-rule="evenodd"
     clip-rule="evenodd"
     d="m 27.975683,8.785688 c 0.0724,-0.11464 0.1695,-0.21207 0.2837,-0.28484 l 0.072,-2.7179 h -0.5404 c -0.2462,0 -0.4463,-0.19731 -0.4517,-0.4422 0,-0.00334 -10e-5,-0.00668 -10e-5,-0.01002 l -3.8195,0.04152 c -0.1848,0 -0.3902,0.0616 -0.5955,0.14374 l -5.842,2.38608 c -0.8215,0.26696 -1.3855,0.11719 -1.891,-0.21983 -0.4425,-0.29491 -1.1943,-0.37186 -1.8155,-0.39201 -3.7784002,-0.12265 -6.8108602,0.09389 -10.8485902,0.73993 -0.59111,0.09457 -1.05542,0.20947 -1.45756,0.36895 -0.25930004,0.10284 -0.49279004,0.22423 -0.71774604,0.37067 -0.032118,0.02092 -0.064102,0.04235 -0.09592,0.06432 -0.223091,0.15386 -0.296622,0.69069 -0.234919,0.92019 0.038948,0.1449 0.075963,0.2858 0.111146,0.423 0.527509,2.0588 0.642849,3.3035 0.821999,5.2366 l 0.03155,0.3398 2.3e-4,0.0023 c 0.01053,0.0968 0.11205004,0.1602 0.26118004,0.1981 0.34213,0.0867 0.93477,0.0391 1.25335,-0.0472 5.88908,-1.5947 9.1598802,-2.7034 13.3106802,-4.1104 1.6904,-0.573 3.5252,-1.1948 5.7437,-1.9196 l 0.1402,-0.0458 0.0011,-4e-4 c 0.1475,-0.0482 0.2967,-0.097 0.4477,-0.14604 0.4314,-0.14693 1.0222,-0.27862 1.7117,-0.39391 -0.091,0.11335 -0.1687,0.21863 -0.2333,0.31756 -0.1619,0.24779 -0.2423,0.45579 -0.246,0.65139 -0.0043,0.2283 0.0701,0.4397 0.308,0.6776 0.1232,0.1232 0.3491,-0.041 0.2054,-0.2259 -0.2984,-0.3835 -0.2054,-0.7598 0.041,-0.98564 l 0.5745,-0.53488 c 0.0186,-0.00263 0.0367,-0.00523 0.0554,-0.00784 0.3082,-0.0434 0.6092,-0.08088 0.9369,-0.11776 0.3074,-0.03475 0.6227,-0.0669 0.9424,-0.0964 -0.0033,-0.04525 0.0305,-0.08889 0.0758,-0.09211 l 1.4154,-0.10062 c 0.0161,-0.00114 0.0314,0.00243 0.0447,0.00955 z m -15.6796,1.8373 c 0.0178,-0.006 0.0372,0.0037 0.0431,0.0215 l 0.1053,0.315 2e-4,9e-4 2e-4,5e-4 2e-4,9e-4 c 0.0025,0.0095 7e-4,0.0192 -0.0043,0.0269 -5e-4,9e-4 -0.0011,0.0017 -0.0017,0.0025 -6e-4,7e-4 -0.0013,0.0015 -0.0019,0.0022 -8e-4,9e-4 -0.0017,0.0017 -0.0026,0.0025 -0.0033,0.003 -0.0073,0.0053 -0.0117,0.0068 l -1.2302,0.4106 c -0.0179,0.006 -0.0372,-0.0036 -0.0431,-0.0215 l -0.1053,-0.315 -7e-4,-0.0023 -2e-4,-9e-4 c -3e-4,-0.0011 -5e-4,-0.0022 -6e-4,-0.0033 -2e-4,-0.0023 -3e-4,-0.0046 -10e-5,-0.0068 5e-4,-0.0072 0.0032,-0.014 0.0078,-0.0194 0.0039,-0.0047 0.0091,-0.0084 0.0154,-0.0104 z"
     fill="#d9d9d9"
     id="path8" />
  <path
     fill-rule="evenodd"
     clip-rule="evenodd"
     d="m 48.224483,7.242038 c 0.0332,-0.07471 0.0562,-0.15946 0.0562,-0.24751 v -2.9825 h 0.2401 v 0.32128 l 9.6923,-0.00176 v -0.19157 h 0.4124 v 2.90032 h -0.4124 v -0.20651 l -9.6923,0.16909 v 0.23916 z m 6.0743,-1.38633 -8e-4,6.3e-4 c -7e-4,5.9e-4 -0.0013,0.00126 -0.0018,0.00197 l -4e-4,6.4e-4 c -4e-4,4.8e-4 -7e-4,9.8e-4 -9e-4,0.00151 l -2e-4,4.5e-4 -2e-4,2.9e-4 c -10e-5,3.2e-4 -2e-4,6.6e-4 -4e-4,0.001 -4e-4,0.00137 -7e-4,0.00282 -7e-4,0.00434 v 0.39999 c 0,0.00348 0.0013,0.00665 0.0035,0.00906 0.0025,0.00281 0.0061,0.00458 0.0102,0.00458 h 1.4195 c 0.0076,0 0.0137,-0.00611 0.0137,-0.01364 v -0.39999 c 0,-0.00739 -0.0061,-0.01364 -0.0137,-0.01364 h -1.4195 c -0.0031,0 -0.006,0.00104 -0.0083,0.00281 z"
     fill="#d9d9d9"
     id="path9" />
  <path
     d="m 60.806083,6.840448 h -1.9077 v -2.52267 l 2.5196,-0.04361 h 0.599 c 0.0788,0 0.1594,0.06552 0.2043,0.13956 0.0176,0.02896 0.0297,0.05922 0.0342,0.08737 l 0.0574,0.53034 0.0523,0.95465 c 0.0387,0.48348 -0.4065,0.74746 -1.2188,0.83074 -0.1071,0.01099 -0.2207,0.01883 -0.3403,0.02362 z"
     fill="#d9d9d9"
     id="path10" />
  <path
     d="m 62.191983,6.800458 4.7937,-0.07509 c 0.0186,0.05436 0.0706,0.09303 0.1312,0.09208 l 0.5678,-0.00889 -0.0065,-0.41105 c -0.0012,-0.07535 -0.0632,-0.13549 -0.1386,-0.13431 l -0.4313,0.00676 c -0.0606,9.5e-4 -0.1113,0.04121 -0.1283,0.09611 l -3.3455,0.0524 c 0.1586,-0.10353 0.2469,-0.29663 0.2469,-0.58147 v -0.1964 h 5.4938 v -1.09946 h -0.7137 v -1.60176 h -0.6982 v 1.60176 h -5.4289 l 0.0506,0.46813 0.0526,0.95873 c 0.0143,0.18773 -0.0243,0.36502 -0.1215,0.52102 -0.0804,0.12905 -0.1931,0.23107 -0.3241,0.31144 z"
     fill="#d9d9d9"
     id="path11" />
</svg>
