<svg width="90" height="17" viewBox="0 0 90 17" fill="none" xmlns="http://www.w3.org/2000/svg">
<path d="M37.1719 2.48755V3.18231H45.6374V2.52258L45.2229 0.660156H42.6716C42.1846 1.5413 41.4024 2.02374 40.6106 2.49339L37.1719 2.48755Z" fill="#D9D9D9"/>
<path d="M77.0852 2.71098V2.8924L45.9145 2.89452V3.17302L47.2223 3.17196V3.3275H45.9145V3.47291H36.8884L36.8796 2.89784C36.4525 2.89043 36.3534 2.92217 35.9302 3.05256V4.08878C36.1668 3.97414 36.2125 3.91783 36.6374 3.91298L51.4054 3.89613C53.7171 3.88168 55.0205 4.10718 56.5723 4.34276V4.769L78.0048 4.79816V4.75147H79.2921V3.25109H78.0136V3.19564H77.7245V2.88907H77.367V2.71094L77.0852 2.71098ZM66.5712 3.17117L68.3906 3.17356V3.31828H66.5712V3.17117ZM52.3859 3.17197L54.1807 3.17409V3.31758H52.3859V3.17197ZM54.6166 3.17197L56.6611 3.17356V3.3176H54.6166V3.17197ZM49.458 3.1725V3.32092L47.6254 3.31764V3.17414L49.458 3.1725ZM64.0698 3.17264H66.1236V3.32119H64.0698V3.17264ZM49.8813 3.17317L51.9428 3.1737V3.32253H49.8813V3.17317ZM61.4134 3.17317V3.31898H59.3349V3.17371L61.4134 3.17317ZM61.8543 3.1737H63.6589V3.32006H61.8535L61.8543 3.1737ZM57.1157 3.17449H58.9231V3.32018L57.1179 3.3158L57.1157 3.17449Z" fill="#D9D9D9"/>
<path d="M56.5781 5.06641L56.5891 7.10598H57.3602C57.4647 7.10386 57.5426 7.05618 57.5925 6.98987H76.2312V5.17375H57.5574C57.4935 5.10814 57.4007 5.06741 57.2441 5.0686L56.5781 5.06641Z" fill="#D9D9D9"/>
<path d="M35.9608 7.11613C35.9608 7.46526 36.1786 7.58076 36.4146 7.5855L52.5584 7.601C53.6265 7.60179 54.7693 7.54423 55.9323 7.40039C56.1847 7.36399 56.3066 7.2151 56.3103 7.01854L56.2995 4.57099C54.6707 4.24599 53.1453 4.1811 51.4299 4.17969L36.5505 4.19723C36.0471 4.21954 35.925 4.42036 35.9283 4.70548L35.9608 7.11613Z" fill="#D9D9D9"/>
<path d="M35.6523 3.05469L27.5247 3.16422C25.7502 3.17257 24.1772 3.46408 22.6919 3.86526L23.1855 7.07154C23.3218 7.46672 23.5543 7.97064 23.7829 8.47019C23.9855 8.86643 24.334 9.1001 24.6679 9.10113H26.0437C26.4321 9.09752 26.8125 8.87449 27.1077 8.5622C27.8208 7.80952 28.5576 7.5878 29.2992 7.33539V7.08565C30.5059 6.99768 32.5983 7.18115 34.8249 7.53749C35.0169 7.57061 35.0621 7.35795 34.9469 7.2861C34.7458 7.17286 34.5523 7.04752 34.075 7.00075L34.7322 6.99145C34.9145 6.98801 34.9884 7.00401 35.109 7.21299H35.6874L35.6523 3.05469ZM25.829 7.13891C26.2501 7.13838 26.6764 7.32649 26.8004 7.73835L26.6199 8.00096C26.5305 8.14919 26.7254 8.27818 26.8298 8.18444C26.8314 8.51995 26.4666 8.81812 25.9343 8.81811H24.7261C24.0535 8.81424 23.9288 8.18813 24.0816 7.73986C24.2487 7.70226 24.4577 7.76648 24.5355 8.0838C24.6257 8.4058 24.8722 8.59828 25.0947 8.76389C25.2657 8.85487 25.4181 8.66805 25.2822 8.5392C24.89 8.23904 24.6385 7.63997 25.2388 7.15274L25.829 7.13891Z" fill="#D9D9D9"/>
<path d="M22.4158 3.9375L21.7893 4.10838C21.5782 4.03796 21.286 4.06587 21.1321 4.25735L18.2009 4.89704L17.7715 8.17L18.547 8.00789C19.57 7.84689 20.3403 8.83214 19.3663 10.3564C18.4239 11.7975 18.4012 12.3575 18.2272 13.1298C18.199 13.2669 18.2264 13.3857 18.4594 13.4891C19.3395 13.9635 20.3136 14.1953 21.3336 14.3084C21.6916 14.347 21.7634 14.1734 21.7301 13.9251C21.7148 13.7129 21.526 13.1927 22.2198 12.7333C22.4025 12.5974 22.4238 12.4963 22.3195 12.2842C22.0477 11.6649 22.4182 11.1602 22.8609 10.8782C23.0345 10.7649 23.0628 10.5959 22.9736 10.4361C22.7381 10.0841 22.8696 9.28344 23.6284 9.10709C23.7026 9.0958 23.757 9.08044 23.8256 9.00522C23.5476 8.78985 23.1413 7.65719 22.911 7.11407L22.4158 3.9375Z" fill="#D9D9D9"/>
<path d="M13.9829 8.50698L17.552 7.72005L17.8711 5.25391L14.2927 5.9417L13.9829 8.50698Z" fill="#D9D9D9"/>
<path d="M14.0452 5.65625L2.45801 8.08523C3.00592 10.6367 3.56408 13.1778 4.29836 15.6943L6.43611 14.9136C6.72317 14.7996 6.87686 14.6988 7.06034 14.4845L11.3312 10.0433C11.9103 9.45698 12.044 9.49022 13.6486 8.95276L14.0452 5.65625ZM8.45556 10.2175C8.62394 10.2106 8.79557 10.2885 8.89357 10.4281C9.06855 10.6773 9.0899 11.0773 8.68381 11.3368L5.6076 13.317C5.29145 13.5682 5.24024 13.4496 5.02199 13.1001C4.2647 11.8766 4.62082 10.8194 5.25257 10.9495C5.62469 11.037 5.78959 10.9563 5.96045 10.8271C6.14539 10.645 6.25891 10.6697 6.41434 10.7249C6.73147 10.8122 6.92638 10.6918 7.0387 10.5854C7.16429 10.445 7.41357 10.4257 7.62267 10.4801C7.8276 10.513 8.03437 10.4644 8.17255 10.3268C8.25465 10.2564 8.35453 10.2217 8.45556 10.2175ZM6.1939 14.2123C6.25832 14.2092 6.27812 14.254 6.30289 14.3621L4.81415 14.9058L4.73213 14.6735C4.70284 14.577 4.71455 14.5592 4.84673 14.5216L6.16337 14.2166C6.17454 14.2142 6.1847 14.2128 6.1939 14.2123Z" fill="#D9D9D9"/>
<path d="M2.08565 7.74219C2.71804 10.4292 3.26366 13.1982 4.06608 15.9136L3.25112 16.1283C2.76171 16.2359 2.34115 15.9662 2.26967 15.5631C1.90953 13.4035 1.58219 11.1693 0.858839 8.8989C0.770316 8.53761 0.862975 8.09185 1.31451 7.93497L2.08565 7.74219Z" fill="#D9D9D9"/>
<path d="M80.1474 4.26042L79.7478 3.94495L80.0492 3.5033L79.6602 2.96876L89.4221 0.152344L85.2299 3.12474L89.9479 3.69959L85.4192 4.53382L88.4827 7.28188L79.704 5.03506L80.1474 4.26042Z" fill="#D9D9D9"/>
</svg>
