<svg width="61" height="17" viewBox="0 0 61 17" fill="none" xmlns="http://www.w3.org/2000/svg">
<path fill-rule="evenodd" clip-rule="evenodd" d="M47.6359 1.28792L47.6113 1.79347C47.6113 1.83046 47.6113 1.86746 47.5804 1.87979L46.8157 2.57651H44.8924L44.8923 2.69979L39.4715 2.66393C39.4271 2.62123 39.3669 2.59497 39.3004 2.59497C39.2756 2.59497 39.2516 2.59865 39.2289 2.6055L39.1833 2.56894V2.49016C39.1833 2.35396 39.0729 2.24355 38.9367 2.24355C38.893 2.24355 38.8519 2.25493 38.8163 2.27488L38.3387 1.89214H37.6605V1.39273C37.6605 1.31258 37.5927 1.2386 37.5063 1.2386H37.0131C36.9145 1.2386 36.859 1.31258 36.859 1.39273V1.89214H35.6691V1.29411C35.6691 1.26945 35.6444 1.24478 35.6198 1.24478H35.1142C35.0896 1.24478 35.0649 1.26945 35.0649 1.29411V1.89214H31.2239V1.29411C31.2239 1.26945 31.1993 1.24478 31.1746 1.24478H30.7049C30.6798 1.24478 30.6629 1.26859 30.6629 1.28794V1.89214H18.6344V1.56534H16.7787C16.7787 1.56534 15.94 1.69435 15.9153 2.39103C15.7636 2.461 14.284 3.1778 14.2593 4.53981C14.1351 4.65155 14.0422 4.79733 13.9953 4.96246H2.7423C2.47271 4.55317 1.53806 4.64799 1.53806 4.64799C1.2113 3.75403 1.19897 3.14366 1.26063 2.77991C1.28529 2.58879 1.06334 2.46548 0.921535 2.58879C0.656428 2.8169 0.502296 3.10667 0.502296 3.10667C0.428312 3.34712 1.22363 7.97724 1.22363 7.97724C1.22363 7.97724 1.72919 8.6061 1.82783 8.27934C1.92648 7.95875 1.59972 5.68376 1.59972 5.68376C1.59972 5.68376 2.49938 5.85273 2.7501 5.45568H13.9953C14.0986 5.81916 14.4247 6.08891 14.8165 6.10809C15.0361 6.42343 15.3296 6.75877 15.7121 7.11412C15.7394 7.13953 15.7665 7.16437 15.7933 7.18862C15.7653 7.53195 15.6319 7.65053 15.6319 7.65053C15.6319 7.65053 14.4297 9.34598 14.0536 9.91319C13.6775 10.4804 14.2077 10.8133 14.2077 10.8133L15.5887 11.621C15.5887 11.621 16.3964 11.7504 16.4457 11.2511C16.495 10.7455 16.7355 10.4681 16.7355 10.4681C16.7355 10.4681 17.8206 8.62465 18.1042 8.15608C18.1676 8.0536 18.2129 7.96823 18.2452 7.89738C18.3022 7.93799 18.3696 7.98046 18.4485 8.0224C18.7646 8.19052 19.5474 8.35321 20.0529 8.35211C20.5584 8.35101 20.6094 8.33936 20.8258 8.28086C21.0411 8.22266 21.2772 8.11752 21.4611 7.92502C21.6505 7.72677 21.7664 7.4546 21.7664 7.10182C21.7664 6.88914 21.8508 6.75028 21.9825 6.6466C22.119 6.53916 22.3128 6.46599 22.5319 6.42076L23.9859 6.50379C23.9859 6.50379 26.3102 6.36199 26.9452 6.65792C27.5802 6.96002 28.3386 6.92303 28.3386 6.92303C30.4198 7.01668 30.4197 4.95439 30.3689 4.30835L30.3978 4.30893H30.6629V5.0426C30.6752 5.11658 30.8417 5.80092 31.6617 5.80092C32.5248 5.80092 32.3953 6.84902 32.3953 6.84902C32.3953 6.84902 32.42 7.77381 32.1425 7.77381H32.5741V16.4422H34.6457V7.77381H35.0156C35.0526 7.77381 35.0772 7.72449 35.0526 7.69983C34.9662 7.57653 34.8244 7.31759 34.8244 6.90451V5.05493C34.8244 5.0426 34.9662 4.81448 35.367 4.54937C35.4758 4.48016 35.5446 4.39445 35.5883 4.30893H36.859V4.51853C36.859 4.59868 36.9268 4.67266 37.0131 4.67266H37.5063C37.5865 4.67266 37.6605 4.60484 37.6605 4.51853V4.30893H38.3263L38.7936 4.00428C38.834 4.03305 38.8834 4.04998 38.9367 4.04998C39.0729 4.04998 39.1833 3.93957 39.1833 3.80337V3.76766C39.2182 3.7865 39.258 3.7972 39.3004 3.7972C39.3919 3.7972 39.4718 3.7474 39.5143 3.67343L44.8923 3.66157L44.8924 3.75408H44.917V4.83908C44.917 4.90073 44.991 4.92539 45.028 4.8884L46.3042 3.82797C46.3288 3.8095 46.3319 3.77872 46.3212 3.75408H49.4484V4.00084H50.096V2.32975H49.4484V2.57651H48.6409V2.41617L48.6655 1.28792C48.6655 1.20777 48.5977 1.13379 48.5114 1.13379H47.79C47.7099 1.13379 47.6359 1.20161 47.6359 1.28792ZM18.3851 7.36547C18.3647 7.33696 18.3394 7.31405 18.3111 7.29711C18.3634 6.65772 18.7255 6.4041 19.0463 6.30592C19.0202 6.3662 18.9962 6.43212 18.9773 6.50217C18.9321 6.67034 18.9136 6.87521 18.9829 7.08452C19.0538 7.2983 19.2072 7.48909 19.4563 7.63963C19.5728 7.71009 19.7244 7.67272 19.7949 7.55616C19.8654 7.4396 19.828 7.28799 19.7114 7.21753C19.5474 7.11838 19.4797 7.01555 19.4511 6.92936C19.4211 6.83869 19.4249 6.73722 19.4536 6.63026C19.4825 6.52305 19.533 6.42331 19.5792 6.34781C19.6019 6.31079 19.6224 6.28134 19.6367 6.26174L21.5599 6.36526C21.3851 6.5473 21.2731 6.79077 21.2731 7.10182C21.2731 7.33782 21.1994 7.4849 21.1045 7.58431C21.004 7.68948 20.8609 7.76044 20.6971 7.80473C20.6531 7.81662 20.6382 7.82622 20.6263 7.83386C20.5942 7.8545 20.5843 7.8609 20.0836 7.85985C19.3975 7.85841 18.9185 7.71375 18.6801 7.58693C18.5603 7.52322 18.4824 7.46165 18.4371 7.41987C18.4144 7.39891 18.3996 7.38277 18.3918 7.37359C18.3881 7.36928 18.3859 7.3665 18.3851 7.36547Z" fill="#D9D9D9"/>
<path d="M60.0309 0.442383L51.0162 2.14396L51.3353 2.51755L51.0162 3.16523L51.5839 3.60066L51.0162 4.07285L59.7392 6.80464L57.2364 4.07285L60.7952 3.16523L57.8335 2.56812L60.0309 0.442383Z" fill="#D9D9D9"/>
</svg>
