<svg width="61" height="17" viewBox="0 0 61 17" fill="none" xmlns="http://www.w3.org/2000/svg">
<path d="M59.5408 0.984375L53.1729 2.18637L53.3983 2.45027L53.1729 2.9078L53.5739 3.21538L53.1729 3.54894L59.3347 5.47867L57.5668 3.54894L60.0807 2.9078L57.9886 2.48599L59.5408 0.984375Z" fill="#D9D9D9"/>
<path d="M37.0362 7.57754C37.062 7.60331 37.0362 7.65486 36.9976 7.65486H33.9948C33.9502 7.65486 33.8974 7.61616 33.9283 7.57754C33.946 7.55533 33.9691 7.50913 33.9948 7.44892C34.0004 7.43565 34.0062 7.4217 34.0121 7.40717L34.0124 7.40628C34.1195 7.14176 34.259 6.68829 34.259 6.68829C34.259 6.68829 34.3943 5.59284 33.4921 5.59284C32.6351 5.59284 32.4482 4.9612 32.4482 4.78736V0.87596C32.4482 0.856175 32.4634 0.83639 32.4676 0.831176C32.4677 0.831061 32.4677 0.830953 32.4678 0.830852H32.9831C33.0088 0.830852 33.0346 0.856629 33.0346 0.882404V2.93154C33.0346 3.63392 33.3017 3.73702 33.5244 3.73702H36.4033C36.9703 3.73702 37.0491 3.09908 37.0491 3.07331V0.882404C37.0491 0.856629 37.0749 0.830852 37.1007 0.830852H37.6291C37.6549 0.830852 37.6806 0.856629 37.6806 0.882404V3.60814C37.6806 3.60814 37.6992 3.82518 37.5923 4.03343C37.5885 4.04097 37.5844 4.04848 37.5802 4.05598C37.5331 4.14004 37.4646 4.22131 37.3649 4.28474C36.946 4.56183 36.7978 4.71839 36.7978 4.81314V6.74629C36.7978 7.03769 36.8653 7.25571 36.937 7.40628C36.9382 7.40888 36.9395 7.41146 36.9407 7.41402C36.9598 7.45358 36.9792 7.48835 36.9976 7.51843C37.0112 7.54068 37.0242 7.56037 37.0362 7.57754Z" fill="#D9D9D9"/>
<path d="M36.6109 7.90345H34.4458V16.7148H36.6109V7.90345Z" fill="#D9D9D9"/>
<path d="M37.8629 4.03343C37.8772 3.99448 37.8883 3.95672 37.8971 3.92119C37.9192 3.83112 37.9271 3.75074 37.9295 3.69252C37.9307 3.66318 37.9306 3.63881 37.9301 3.62087C37.9298 3.61257 37.9295 3.60559 37.9292 3.60008V1.50745H38.9243V0.985485C38.9243 0.901715 38.9823 0.824389 39.0854 0.824389H39.6009C39.6911 0.824389 39.762 0.901715 39.762 0.985485V1.25783C39.7826 1.25252 39.8042 1.2497 39.8264 1.2497C39.9688 1.2497 40.0842 1.3651 40.0842 1.50746L40.4708 1.50745L41.476 2.31293L47.3206 2.31305L47.3206 2.22274H49.3582L50.13 1.49455C50.1568 1.47019 50.1623 1.443 50.1623 1.40433L50.188 0.875939C50.188 0.785726 50.2654 0.714844 50.3491 0.714844H51.1031C51.1933 0.714844 51.2642 0.79217 51.2642 0.875939L51.2341 2.22274H51.5091L51.5091 2.49985H52.3403V2.22274H52.6922V3.45351H52.3403V3.17646H51.5091L51.5091 3.45351H48.814C48.8252 3.47928 48.822 3.51144 48.7962 3.53075L47.4624 4.63909C47.4237 4.67775 47.3464 4.65198 47.3464 4.58754V3.45351H47.3206L47.3206 3.35697L41.476 3.36972L40.4579 4.03343L40.0842 4.03344C40.0842 4.17579 39.9688 4.29119 39.8264 4.29119C39.8031 4.29119 39.7806 4.2881 39.7591 4.28231C39.7444 4.35785 39.6752 4.4136 39.6009 4.4136H39.0854C38.9951 4.4136 38.9243 4.33628 38.9243 4.25251V4.03343H37.8629Z" fill="#D9D9D9"/>
<path d="M36.8005 1.50745H33.2832V2.93154C33.2832 3.26027 33.3474 3.39101 33.387 3.43858C33.4159 3.47327 33.452 3.48843 33.5244 3.48843H36.4033C36.5702 3.48843 36.6604 3.40393 36.7217 3.29391C36.7538 3.2362 36.7746 3.17535 36.7871 3.1262C36.7933 3.10209 36.7972 3.08225 36.7993 3.06903C36.7999 3.06577 36.8003 3.06315 36.8005 3.06114V1.50745Z" fill="#D9D9D9"/>
<path d="M32.1997 1.50745H19.8763V1.16589H18.6955L18.6951 1.03201C18.6948 0.894721 18.5832 0.783724 18.4459 0.784092C18.3086 0.784459 18.1976 0.896052 18.198 1.03334L18.1983 1.16589H17.9367C17.9367 1.16589 17.0604 1.29477 17.0346 2.02292C16.8759 2.09607 15.3293 2.85122 15.3035 4.27475C15.1715 4.39359 15.0733 4.5493 15.0251 4.72565H3.27209C2.99832 4.2873 2.00756 4.38782 2.00756 4.38782C1.66604 3.45346 1.65315 2.81552 1.71759 2.43534C1.74337 2.23558 1.51139 2.1067 1.36318 2.23558C1.0861 2.474 0.925001 2.77686 0.925001 2.77686C0.847675 3.02817 1.67893 7.86748 1.67893 7.86748C1.67893 7.86748 2.20732 8.52475 2.31042 8.18323C2.41353 7.84815 2.072 5.47038 2.072 5.47038C2.072 5.47038 3.02607 5.64957 3.27998 5.22282H15.0251C15.1302 5.60735 15.4731 5.89367 15.8859 5.91388C16.085 6.19962 16.342 6.50109 16.6673 6.81827C16.6966 6.473 16.8908 6.22884 17.0206 6.10092C17.1802 5.87184 17.2772 5.70263 17.3383 5.5355C17.3979 5.3725 17.4279 5.19872 17.4361 4.95612C17.4256 4.91305 17.3991 4.84456 17.3511 4.74866C17.2985 4.64346 17.2305 4.52524 17.1571 4.40068C17.1218 4.34407 17.0892 4.29367 17.0497 4.23461C16.9646 4.1071 16.8826 3.99322 16.8218 3.91115C16.7914 3.87019 16.7665 3.83734 16.7493 3.81489L16.7429 3.8065C16.7157 3.77116 16.6981 3.74819 16.6828 3.7078C16.6766 3.69134 16.6701 3.67053 16.6654 3.64593C16.6557 3.59614 16.6532 3.53114 16.6731 3.45812C16.7146 3.30601 16.8353 3.17736 17.0309 3.07749C17.2222 2.9794 17.4696 2.86412 17.6368 2.78621L17.639 2.78521C17.6545 2.77796 17.6716 2.7698 17.689 2.76153L17.6896 2.76123L17.6898 2.76113L17.6899 2.7611C17.7371 2.73853 17.7861 2.71516 17.8109 2.70679C17.8449 2.69529 17.9206 2.67003 18.0012 2.67003H31.9198C32.0242 2.67003 32.1221 2.70549 32.1997 2.76662V1.50745Z" fill="#D9D9D9"/>
<path d="M32.4676 0.830852H32.4678L32.4679 0.830762C32.4684 0.83018 32.4686 0.829852 32.4686 0.829852C32.4686 0.829852 32.4683 0.830156 32.4676 0.830852Z" fill="#D9D9D9"/>
<path d="M16.8804 7.22103C16.892 7.16954 16.9013 7.11051 16.9068 7.04323C16.9102 7.00121 16.9121 6.95598 16.9121 6.90734C16.9121 6.59631 17.0922 6.37505 17.2106 6.26299C17.5552 5.7721 17.6708 5.48396 17.6854 4.93552C17.6596 4.77443 17.5179 4.52312 17.3697 4.27181C17.3322 4.21171 17.2978 4.15847 17.2565 4.09654C17.0805 3.83308 16.9186 3.62743 16.9186 3.62743C16.9186 3.62743 16.8284 3.4599 17.1441 3.2988C17.3312 3.20284 17.5755 3.08902 17.744 3.01054L17.7441 3.01046C17.8018 2.98357 17.8506 2.96083 17.8852 2.94439C17.9238 2.9315 17.9625 2.91861 18.0012 2.91861H31.9198C32.0294 2.91861 32.1196 3.00238 32.1196 3.11837V3.83364C32.1196 3.83364 32.1156 3.8946 32.1196 3.92389C32.1526 4.16359 32.4857 6.87657 30.0189 6.76557C30.0189 6.76557 29.2263 6.80423 28.5626 6.48848C27.8989 6.17918 25.4696 6.32739 25.4696 6.32739L20.8433 6.06322C20.8012 6.13687 20.7585 6.22749 20.7326 6.32382C20.7288 6.33779 20.7255 6.35167 20.7225 6.36546C20.7045 6.45032 20.7027 6.53137 20.7212 6.60608C20.7237 6.6163 20.7266 6.62639 20.7299 6.63637C20.7598 6.72646 20.8306 6.83394 21.002 6.93757C21.0629 6.9744 21.1032 7.03245 21.1189 7.09652C21.1286 7.13566 21.1291 7.17705 21.1197 7.21722C21.1136 7.24279 21.1036 7.26786 21.0893 7.29155C21.0156 7.41338 20.8572 7.45244 20.7353 7.3788C20.475 7.22145 20.3147 7.02205 20.2406 6.7986C20.2315 6.77125 20.2239 6.74398 20.2176 6.71685C20.1758 6.53745 20.1914 6.3641 20.2281 6.21583C20.2302 6.2071 20.2324 6.19845 20.2347 6.18989C20.2393 6.17292 20.2442 6.15618 20.2493 6.13969C20.1243 6.18459 19.9964 6.25342 19.8838 6.35822C19.8541 6.38579 19.8256 6.41585 19.7984 6.44861C19.7872 6.46215 19.7762 6.47615 19.7655 6.49063C19.7505 6.51076 19.7361 6.53182 19.7223 6.55384C19.6391 6.68628 19.5764 6.85365 19.5482 7.06498C19.5458 7.08309 19.5436 7.10153 19.5417 7.1203C19.5316 7.22015 19.5288 7.3293 19.5348 7.44863C19.5348 7.44863 19.5348 7.68178 19.3221 8.05435C19.0257 8.54408 17.8916 10.4708 17.8916 10.4708C17.8916 10.4708 17.8908 10.4718 17.8892 10.4737C17.8636 10.5047 17.6389 10.7892 17.5892 11.2842L17.5888 11.2891C17.5372 11.8111 16.6931 11.6758 16.6931 11.6758L15.2496 10.8316C15.2496 10.8316 14.9478 10.6421 14.9477 10.3045C14.9476 10.1847 14.9856 10.0462 15.0885 9.8909C15.4816 9.29806 16.7382 7.52601 16.7382 7.52601C16.7382 7.52601 16.8302 7.44419 16.8804 7.22103Z" fill="#D9D9D9"/>
<path d="M19.7807 7.37091C19.7809 7.38014 19.7812 7.38945 19.7815 7.39886C19.7839 7.40742 19.786 7.41627 19.7879 7.42539C19.7987 7.47933 19.7988 7.54043 19.7871 7.60941C19.7732 7.69141 19.7415 7.7912 19.6827 7.91501C20.0133 8.09059 20.6326 8.26007 21.3994 8.26195C21.561 8.26009 21.9405 8.24591 22.1667 8.18477C22.3918 8.12394 22.6385 8.01405 22.8307 7.81285C23.0287 7.60564 23.1498 7.32118 23.1498 6.95246C23.1498 6.73017 23.2578 6.5644 23.4001 6.45821L22.7602 6.42167C22.6805 6.57177 22.6343 6.74817 22.6343 6.95246C22.6343 7.19912 22.5572 7.35285 22.458 7.45675C22.353 7.56667 22.2035 7.64083 22.0322 7.68713C21.8621 7.73311 21.6888 7.73943 21.5532 7.741C21.5112 7.74148 21.4658 7.74136 21.4286 7.7412L21.4132 7.74113C21.3975 7.74106 21.3838 7.741 21.3733 7.741C20.6725 7.741 20.1733 7.59204 19.9241 7.45949C19.874 7.43288 19.8254 7.40252 19.7807 7.37091Z" fill="#D9D9D9"/>
</svg>
