<svg width="61" height="17" viewBox="0 0 61 17" fill="none" xmlns="http://www.w3.org/2000/svg">
<path d="M59.5852 1.11914L53.2173 2.32113L53.4427 2.58504L53.2173 3.04256L53.6183 3.35015L53.2173 3.6837L59.3792 5.61343L57.6112 3.6837L60.1251 3.04256L58.033 2.62076L59.5852 1.11914Z" fill="#D9D9D9"/>
<path d="M37.0811 7.71228C37.1069 7.73802 37.0811 7.7896 37.0424 7.7896H34.0396C33.9951 7.7896 33.9423 7.75088 33.9732 7.71228C33.9902 7.68631 34.0134 7.63606 34.0396 7.57209C34.0398 7.57173 34.0399 7.57136 34.0401 7.571C34.044 7.56141 34.048 7.55146 34.052 7.54138C34.1584 7.27447 34.3038 6.82294 34.3038 6.82294C34.3038 6.82294 34.4392 5.72749 33.537 5.72749C32.68 5.72749 32.4931 5.09595 32.4931 4.92201V1.01068C32.4931 1.00886 32.4933 1.00692 32.4935 1.0051C32.4946 0.997085 32.4978 0.989196 32.5013 0.982641C32.5031 0.979364 32.5049 0.97633 32.5066 0.973781C32.5091 0.970018 32.5113 0.967226 32.5127 0.965527H33.0279C33.0285 0.965527 33.0291 0.965527 33.0297 0.965527C33.0316 0.965527 33.0335 0.965891 33.0353 0.966255C33.0456 0.968076 33.0555 0.973781 33.0633 0.981549C33.0686 0.98689 33.0729 0.99308 33.0758 0.999756C33.078 1.00498 33.0793 1.00983 33.0795 1.01529C33.0795 1.01566 33.0795 1.01675 33.0795 1.01711V3.06624C33.0795 3.76866 33.3466 3.87172 33.5692 3.87172H36.4481C37.0152 3.87172 37.094 3.23375 37.094 3.20801V1.01711C37.094 1.00097 37.1047 0.984462 37.1185 0.97463C37.1192 0.974145 37.1193 0.974145 37.12 0.973659C37.1278 0.968561 37.1367 0.965527 37.1456 0.965527H37.674C37.6997 0.965527 37.7255 0.991381 37.7255 1.01711V3.74281C37.7255 3.74281 37.7455 3.97586 37.6251 4.1907C37.578 4.27482 37.5094 4.35602 37.4097 4.4195C36.9909 4.69649 36.8427 4.85307 36.8427 4.94787V6.88096C36.8427 7.17239 36.9102 7.39039 36.9818 7.54102C37.0011 7.58156 37.0209 7.61749 37.0395 7.64832C37.0405 7.64989 37.0415 7.65159 37.0424 7.65317C37.0474 7.6613 37.0524 7.66919 37.0572 7.67672C37.0655 7.68959 37.0735 7.70148 37.0811 7.71228Z" fill="#D9D9D9"/>
<path d="M36.6554 8.03819H34.4913L34.4907 16.8496H36.6558L36.6554 8.03819Z" fill="#D9D9D9"/>
<path d="M37.9078 4.16825C37.922 4.12928 37.9332 4.09141 37.9419 4.05585C37.9641 3.96578 37.9719 3.88543 37.9744 3.82717C37.9749 3.81467 37.9752 3.80301 37.9752 3.79245C37.9754 3.77825 37.9752 3.76587 37.9749 3.75556L37.9741 3.7348V1.64222H38.9691V1.12029C38.9691 1.03653 39.0271 0.959215 39.1302 0.959215H39.6457C39.736 0.959215 39.8068 1.03653 39.8068 1.12029V1.64222H40.5157L41.5209 2.44769L47.3654 2.44781V2.35751H49.382L50.1749 1.62935C50.1934 1.62183 50.2013 1.60592 50.2046 1.58626C50.2055 1.58128 50.206 1.57619 50.2064 1.57085C50.2071 1.56065 50.2071 1.54985 50.2071 1.53904L50.2329 1.01068C50.2329 0.960793 50.2566 0.916732 50.2919 0.88748C50.3205 0.863811 50.3566 0.849609 50.394 0.849609H51.1479C51.1909 0.849609 51.2295 0.867209 51.2581 0.894641C51.2896 0.924865 51.309 0.966862 51.309 1.01068L51.2897 2.35751H51.5539L51.5539 2.63462H51.7637V2.35751H52.5463V3.58829H51.7637V3.31119H51.5539L51.5539 3.58829H50.2969C49.442 3.74585 48.2625 4.28671 47.5918 4.83741C47.5055 4.9083 47.3654 4.8487 47.3654 4.73703V3.49168L41.5209 3.50442L40.5028 4.16825H39.8068V4.38734C39.8068 4.47752 39.7295 4.54841 39.6457 4.54841H39.1302C39.04 4.54841 38.9691 4.47109 38.9691 4.38734V4.16825H37.9078Z" fill="#D9D9D9"/>
<path d="M36.8454 1.64222H33.3281V3.06624C33.3281 3.39494 33.3923 3.52566 33.4319 3.57324C33.4608 3.60796 33.4969 3.62313 33.5692 3.62313H36.4481C36.6151 3.62313 36.7053 3.53865 36.7665 3.42856C36.7987 3.3709 36.8194 3.31009 36.832 3.26093C36.8356 3.2471 36.8383 3.23459 36.8405 3.22403C36.8421 3.21614 36.8433 3.20935 36.8442 3.20376L36.8454 3.19587V1.64222Z" fill="#D9D9D9"/>
<path d="M32.2445 1.64222H27.3682V1.5195C27.3682 1.4508 27.3125 1.39521 27.2439 1.39521H26.6126V1.05037L26.4543 0.988225H26.3831V1.36923C26.3831 1.31656 26.3559 1.27019 26.3147 1.24336C26.3069 1.23827 26.2986 1.2339 26.2898 1.23038C26.2723 1.22322 26.2531 1.21921 26.233 1.21921H25.873L25.7896 1.37761V1.39521H25.3597C25.2911 1.39521 25.2354 1.4508 25.2354 1.5195V1.64222H19.9212V1.48709H17.9816C17.9816 1.48709 17.2511 1.59452 17.1044 2.1673C16.7713 2.33493 15.6569 2.96938 15.4185 4.059C15.5852 3.97003 15.7755 3.91966 15.9776 3.91966C16.6345 3.91966 17.167 4.45215 17.167 5.10906C17.167 5.72008 16.7063 6.22344 16.1133 6.29081C16.2796 6.50359 16.4779 6.72425 16.7122 6.95305C16.7415 6.60797 16.935 6.36376 17.065 6.2357C17.2255 6.00545 17.326 5.83333 17.3889 5.66461C17.452 5.49517 17.4818 5.31674 17.4818 5.07046C17.4818 5.07094 17.4818 5.06803 17.4805 5.06099C17.4792 5.05395 17.4768 5.04424 17.4727 5.0315C17.4644 5.0054 17.4508 4.97251 17.4309 4.93209C17.3905 4.84967 17.3345 4.75645 17.2692 4.64782L17.268 4.64587C17.2464 4.61007 17.2241 4.57292 17.202 4.53554C17.1693 4.4831 17.1358 4.4314 17.1025 4.38127L17.0946 4.36949C17.0449 4.29509 16.9963 4.22529 16.9524 4.16388C16.921 4.11994 16.892 4.08025 16.8667 4.04602C16.8363 4.00511 16.8114 3.97222 16.7942 3.94976L16.7684 3.91638L16.7548 3.89915C16.743 3.88155 16.7352 3.86261 16.7277 3.84271C16.7215 3.8262 16.715 3.80544 16.7103 3.7808C16.7006 3.73104 16.6981 3.66598 16.718 3.59303C16.7595 3.44094 16.8802 3.31228 17.0758 3.21238C17.1687 3.1648 17.2749 3.11297 17.3787 3.06345C17.4426 3.03298 17.5056 3.00337 17.564 2.97594L17.6817 2.92107L17.6839 2.9201C17.7421 2.89303 17.7898 2.8707 17.8232 2.8548L17.837 2.84824L17.8515 2.84339L17.858 2.8412C17.892 2.82967 17.9654 2.80491 18.046 2.80491H31.0155C31.0314 2.42257 31.3464 2.11742 31.7327 2.11742C31.9331 2.11742 32.1143 2.19947 32.2445 2.3319V1.64222Z" fill="#D9D9D9"/>
<path d="M32.2007 2.87106C32.1939 2.96185 32.1612 3.04524 32.1101 3.11431C32.0246 3.22974 31.8874 3.30463 31.7327 3.30463C31.5523 3.30463 31.3957 3.20279 31.3171 3.0535C31.2828 2.98832 31.2634 2.91403 31.2634 2.83526L31.2634 2.83149C31.2635 2.82263 31.2638 2.81377 31.2644 2.80491C31.28 2.55985 31.4837 2.366 31.7327 2.366C31.9919 2.366 32.202 2.57611 32.202 2.83526C32.202 2.84727 32.2016 2.85929 32.2007 2.87106Z" fill="#D9D9D9"/>
<path d="M31.0486 3.0535C31.1409 3.34335 31.4123 3.55322 31.7327 3.55322C31.8948 3.55322 32.0443 3.49944 32.1645 3.4089V3.96858L32.1669 4.05876C32.1697 4.07903 32.1748 4.11654 32.1802 4.16825C32.2349 4.69103 32.3272 6.66466 30.5022 6.92125L30.4726 6.92526C30.4354 6.92999 30.3974 6.93412 30.3587 6.93752C30.2728 6.94492 30.183 6.94881 30.089 6.94881C30.089 6.94881 29.7112 6.94432 29.2608 6.84236C29.0485 6.79429 28.8201 6.7245 28.6075 6.62339C27.9438 6.31411 25.5145 6.46232 25.5145 6.46232L20.8878 6.19807C20.8878 6.19807 20.6 6.16457 20.2942 6.27454C20.1364 6.33135 19.9738 6.42615 19.8433 6.58345L19.8425 6.5843C19.7141 6.73943 19.6171 6.95548 19.5866 7.25505C19.5765 7.35494 19.5737 7.46406 19.5797 7.58338C19.5797 7.58338 19.6348 7.65426 19.5144 7.91875C19.4807 7.99279 19.4334 8.08188 19.367 8.18906C19.2663 8.35547 19.0689 8.68781 18.8521 9.05413L18.8488 9.0596L18.8468 9.06312L17.9365 10.6055C17.9365 10.6055 17.6852 10.8955 17.6337 11.4239C17.5821 11.9459 16.738 11.8105 16.738 11.8105L15.2946 10.9663C15.2946 10.9663 14.7404 10.6185 15.1335 10.0255C15.5265 9.43272 16.7831 7.6607 16.7831 7.6607C16.7831 7.6607 16.9225 7.53677 16.9517 7.17809C16.9527 7.16571 16.9536 7.15309 16.9543 7.1401L16.9555 7.11667C16.9561 7.1032 16.9565 7.08949 16.9568 7.07541L16.9571 7.04215C16.9571 6.73105 17.1366 6.50978 17.255 6.39774C17.5995 5.90689 17.7304 5.60732 17.7304 5.07046C17.7304 4.93184 17.6096 4.73132 17.4824 4.52L17.4446 4.45725L17.4146 4.40663C17.3914 4.36937 17.3679 4.33259 17.3444 4.29654L17.3282 4.2719L17.3013 4.23136C17.1254 3.96797 16.9635 3.76235 16.9635 3.76235C16.9635 3.76235 16.8733 3.59473 17.189 3.43366C17.3761 3.33777 17.6204 3.22391 17.7889 3.14538C17.8466 3.11856 17.8955 3.09574 17.9301 3.07923C17.9687 3.06636 18.0074 3.0535 18.046 3.0535H31.0486Z" fill="#D9D9D9"/>
<path d="M15.07 5.35752C15.1754 5.74363 15.5206 6.03069 15.9356 6.0489C15.9495 6.04951 15.9635 6.04987 15.9776 6.04987C16.4972 6.04987 16.9184 5.62868 16.9184 5.10906C16.9184 4.58943 16.4972 4.16825 15.9776 4.16825C15.7486 4.16825 15.5387 4.25006 15.3755 4.38612C15.2299 4.5075 15.1215 4.67221 15.07 4.86035H3.31695C3.04305 4.42217 2.05251 4.52267 2.05251 4.52267C1.71097 3.58829 1.69808 2.95032 1.76253 2.57016C1.78829 2.37037 1.55631 2.24147 1.4081 2.37037C1.13102 2.60888 0.969921 2.91173 0.969921 2.91173C0.892603 3.16298 1.72387 8.00226 1.72387 8.00226C1.72387 8.00226 2.25227 8.65953 2.35535 8.31809C2.45846 7.98296 2.11693 5.60514 2.11693 5.60514C2.11693 5.60514 3.07118 5.78441 3.32499 5.35752H15.07Z" fill="#D9D9D9"/>
<path d="M22.805 6.55651L23.4448 6.59304L23.4337 6.6013L23.4206 6.61137C23.2829 6.71976 23.1947 6.86493 23.1947 7.08718C23.1947 7.45593 23.0736 7.74044 22.8756 7.94764C22.6834 8.14876 22.4366 8.25873 22.2116 8.31955C21.9854 8.38072 21.6059 8.3948 21.4443 8.39674C20.6769 8.3948 20.0573 8.22511 19.7269 8.04935C19.7857 7.92555 19.8181 7.82614 19.832 7.74421C19.8437 7.67514 19.8436 7.61409 19.8327 7.5602C19.8309 7.55097 19.8288 7.54223 19.8264 7.53361L19.8257 7.50739C19.8444 7.52038 19.8649 7.53386 19.8873 7.54757L19.9098 7.56129C19.9199 7.56724 19.9303 7.57318 19.9411 7.57925L19.9593 7.58908L19.969 7.59418C20.2182 7.72685 20.7174 7.87578 21.4182 7.87578L21.4581 7.8759C21.4976 7.87602 21.5501 7.87627 21.5981 7.87578C21.7337 7.8742 21.907 7.86789 22.0771 7.82189C22.2484 7.77564 22.3979 7.70148 22.5029 7.59151C22.6021 7.48761 22.6792 7.33382 22.6792 7.08718C22.6792 6.8829 22.7254 6.70653 22.805 6.55651Z" fill="#D9D9D9"/>
<path d="M20.2855 6.93339C20.2444 6.80934 20.2329 6.68687 20.2392 6.57204C20.3402 6.51451 20.4497 6.48089 20.5535 6.46207C20.6424 6.44593 20.7218 6.44193 20.7786 6.4418H20.7822L20.7775 6.45855C20.7474 6.57035 20.7435 6.67643 20.7749 6.77123C20.8047 6.86129 20.8755 6.96871 21.0469 7.07237C21.1688 7.14605 21.2078 7.30445 21.1342 7.42631C21.0606 7.54818 20.9021 7.58714 20.7803 7.51359C20.52 7.35616 20.3596 7.15685 20.2855 6.93339Z" fill="#D9D9D9"/>
</svg>
