<?xml version="1.0" encoding="UTF-8" standalone="no"?>
<!-- Created with Inkscape (http://www.inkscape.org/) -->

<svg
   width="35.302258"
   height="17.951591"
   viewBox="0 0 9.3403887 4.7496919"
   version="1.1"
   id="svg1"
   inkscape:version="1.4.2 (1:1.4.2+202505120737+ebf0e940d0)"
   sodipodi:docname="ots23_killfeed.svg"
   inkscape:export-filename="ots23_Killfeed.png"
   inkscape:export-xdpi="96"
   inkscape:export-ydpi="96"
   xmlns:inkscape="http://www.inkscape.org/namespaces/inkscape"
   xmlns:sodipodi="http://sodipodi.sourceforge.net/DTD/sodipodi-0.dtd"
   xmlns="http://www.w3.org/2000/svg"
   xmlns:svg="http://www.w3.org/2000/svg">
  <sodipodi:namedview
     id="namedview1"
     pagecolor="#ffffff"
     bordercolor="#000000"
     borderopacity="0.25"
     inkscape:showpageshadow="2"
     inkscape:pageopacity="0.0"
     inkscape:pagecheckerboard="0"
     inkscape:deskcolor="#d1d1d1"
     inkscape:document-units="mm"
     inkscape:zoom="9.016088"
     inkscape:cx="21.738918"
     inkscape:cy="0.61002067"
     inkscape:window-width="2560"
     inkscape:window-height="1368"
     inkscape:window-x="0"
     inkscape:window-y="0"
     inkscape:window-maximized="1"
     inkscape:current-layer="layer1" />
  <defs
     id="defs1">
    <clipPath
       clipPathUnits="userSpaceOnUse"
       id="clipPath30">
      <path
         style="display:none;fill:none;stroke:#336633;stroke-width:0.132292;stroke-miterlimit:29;stroke-dasharray:none"
         d="m 3.5647561,-11.841804 h 0.3021523 c 0,0 0.2642865,0.227636 0.2642865,0.457757 0,0 0.012152,0.169048 -0.2224992,0.361911 H 3.0536684 c 0,0 -0.219043,-0.141625 -0.219043,-0.379393 0,0 -0.00596,-0.189553 0.1933279,-0.366345 0,0 0.096432,0.115718 0.1896488,0.154291 v 0.06429 c 0,0 0.1157182,0.360011 0.3760836,0.459657 0,0 0.2025062,0.07393 0.141433,-0.08036 0,0 -0.3857265,-0.215366 -0.2282217,-0.575377 z"
         id="path31" />
      <path
         id="lpe_path-effect31"
         style="fill:none;stroke:#336633;stroke-width:0.132292;stroke-miterlimit:29;stroke-dasharray:none"
         class="powerclip"
         d="M -4.4246457,-17.296472 H 11.604082 V -4.0189284 H -4.4246457 Z m 7.9894018,5.454668 -0.057859,0.09643 c -0.1575048,0.360011 0.2282217,0.575377 0.2282217,0.575377 0.061073,0.15429 -0.141433,0.08036 -0.141433,0.08036 -0.2603654,-0.09965 -0.3760836,-0.459657 -0.3760836,-0.459657 v -0.06429 c -0.093217,-0.03857 -0.1896488,-0.154291 -0.1896488,-0.154291 -0.1992879,0.176792 -0.1933279,0.366345 -0.1933279,0.366345 0,0.237768 0.219043,0.379393 0.219043,0.379393 H 3.9086958 C 4.143347,-11.215 4.131195,-11.384048 4.131195,-11.384048 c 0,-0.230121 -0.2642865,-0.457757 -0.2642865,-0.457757 z" />
    </clipPath>
    <inkscape:path-effect
       effect="powerclip"
       message=""
       id="path-effect31"
       is_visible="true"
       lpeversion="1"
       inverse="true"
       flatten="false"
       hide_clip="false" />
  </defs>
  <g
     inkscape:label="Layer 1"
     inkscape:groupmode="layer"
     id="layer1"
     transform="translate(-0.00631547,-0.006404)">
    <g
       id="g32"
       transform="translate(-0.56903885,13.554704)">
      <path
         style="fill:#d9d9d9;fill-opacity:1;stroke:none;stroke-width:0.132292;stroke-miterlimit:29;stroke-dasharray:none"
         d="m 1.1443221,-12.291819 h 5.4516017 c 0,0 0.090003,0.327868 -0.3278677,0.327868 -0.4178705,0 -1.485047,0 -1.485047,0 0,0 -0.297534,0.0168 -0.3466616,0.200145 0,0 -0.2269082,0.358316 -0.1041707,0.708345 0,0 0.00455,0.100009 -0.045458,0.100009 l -0.3273001,0.05 c 0,0 -0.1181916,0.0091 -0.2045624,0.0091 H 3.0229775 c 0,0 -0.2909332,-0.0091 -0.4227623,0.145462 l -0.3182081,1.1410036 c 0,0 -0.040913,0.2409291 0.063642,0.4727664 0,0 0.072733,0.05455 0.022729,0.1181916 H 0.57732052 c 0,0 -0.0227292,-0.5227705 0.0863708,-0.859162 L 1.1955535,-11.564594 c 0,0 0.059096,-0.254566 -0.41821643,-0.363666 0,0 -0.20456239,-0.04091 -0.0772791,-0.2182 l 0.1363749,-0.150012 z"
         id="path27"
         clip-path="url(#clipPath30)"
         inkscape:path-effect="#path-effect31"
         inkscape:original-d="m 1.1443221,-12.291819 h 5.4516017 c 0,0 0.090003,0.327868 -0.3278677,0.327868 -0.4178705,0 -1.485047,0 -1.485047,0 0,0 -0.297534,0.0168 -0.3466616,0.200145 0,0 -0.2269082,0.358316 -0.1041707,0.708345 0,0 0.00455,0.100009 -0.045458,0.100009 l -0.3273001,0.05 c 0,0 -0.1181916,0.0091 -0.2045624,0.0091 H 3.0229775 c 0,0 -0.2909332,-0.0091 -0.4227623,0.145462 l -0.3182081,1.1410036 c 0,0 -0.040913,0.2409291 0.063642,0.4727664 0,0 0.072733,0.05455 0.022729,0.1181916 H 0.57732052 c 0,0 -0.0227292,-0.5227705 0.0863708,-0.859162 L 1.1955535,-11.564594 c 0,0 0.059096,-0.254566 -0.41821643,-0.363666 0,0 -0.20456239,-0.04091 -0.0772791,-0.2182 l 0.1363749,-0.150012 z" />
      <path
         style="fill:#d9d9d9;fill-opacity:1;stroke:none;stroke-width:0.132292;stroke-miterlimit:29;stroke-dasharray:none"
         d="m 0.62359124,-8.8809911 c 0,0 -0.006429,0.054644 0.10928916,0.05143 H 1.359686 c 0,0 -0.00382,0.030925 0.1154141,0.030925 h 1.0546231 c 0,0 0.058857,0.00321 0.058857,-0.058857 0,0 -0.00196,-0.059313 -0.1027334,-0.059313 H 0.61716246 Z"
         id="path29" />
      <path
         style="fill:#d9d9d9;fill-opacity:1;stroke:none;stroke-width:0.132292;stroke-miterlimit:29;stroke-dasharray:none"
         d="M 1.202181,-12.404322 H 6.6023524 V -12.99577 H 6.4769915 c 0,0 -0.027065,-0.05664 -0.07558,-0.04364 -0.048516,0.013 -0.133355,0 -0.133355,0 0,0 -0.04914,0.0032 -0.04914,0.04914 h -0.08265 v 0.02022 H 5.8276851 l -0.00964,-0.03857 H 2.783663 v -0.03536 H 1.6714849 c 0,0 -0.1414331,-0.07393 -0.388941,-0.05464 v 0.05463 H 1.1475364 c 0,0 0.02893,0.157505 -0.096432,0.305367 0,0 -0.32786714,-0.05143 -0.39536929,0.05786 0,0 -0.10286041,0.234653 0.17036256,0.215367 l 0.11571796,0.05465 z"
         id="path30"
         sodipodi:nodetypes="ccccscccccccccc" />
      <path
         fill="#d9d9d9"
         d="m 9.3011167,-11.488784 -2.2119166,-0.947737 0.1211791,-0.1397 -0.1209145,-0.156898 0.097896,-0.102129 -0.097896,-0.118534 2.4698853,-0.594518 -0.8281458,0.815181 1.1845396,0.296333 -1.184275,0.370682 z"
         id="path3-7-6"
         style="fill:#d9d9d9;fill-opacity:1;stroke-width:0.264583" />
      <path
         style="fill:#d9d9d9;fill-opacity:1;stroke:none;stroke-width:0.132292;stroke-miterlimit:29;stroke-dasharray:none;stroke-opacity:1"
         d="m 6.5960005,-12.889703 c 0,0 0.046595,0.0068 0.046595,0.04659 0,0.03978 0,0.298888 0,0.298888 0,0 -0.00228,0.04489 -0.04489,0.04489 z"
         id="path32" />
    </g>
  </g>
</svg>
