<svg xmlns="http://www.w3.org/2000/svg" width="60.866" height="16" fill="none"><circle cx="20.119" cy="5.453" r=".792" fill="url(#a)" style="fill:url(#a);stroke-width:1.00005"/><path fill="url(#b)" d="M58.863 2.531 47.37 6.523l.574.348-.574.438.715.51-.715.298 12.345 2.564-3.973-2.863 5.124-1.421-5.384-.677Z" style="fill:url(#b);stroke-width:1.00005"/><path fill="#c65353" d="M45.88 3.26h.921v.861h.861v.921h-.86v.861h-.922v-.86h-.861V4.12h.861zm-1.69.185h-.822v-.768H42.6v-.822h.768v-.768h.822v.768h.768v.822h-.768zM41.745 5.05h-.72v-.674h-.674v-.72h.674v-.673h.72v.673h.673v.72h-.673zM39.338.736h.672v.63h.629v.671h-.63v.63h-.671v-.63h-.63v-.672h.63zM36.863 2.12h.61v.57h.57v.61h-.57v.57h-.61V3.3h-.57v-.61h.57zM35.074 0h.512v.48h.48v.513h-.48v.48h-.512v-.48h-.48V.48h.48zm-3.029 1.996h.305v.285h.285v.305h-.285v.286h-.305v-.286h-.285v-.305h.285z" style="stroke-width:1.00005"/><path fill="#d9d9d9" fill-rule="evenodd" d="M23.28 5.353a.6.6 0 0 1 .42.17c.052.046.104.104.152.156q.07.078.151.157c.216.205.554.422 1.337.422h1.994c.061 0 .114.025.154.048q.046.027.09.058h.001l.013.01.015.01c.08.052.147.088.218.088h17.112c.002-.001.012-.005.035-.024q.02-.016.046-.041t.057-.051a.3.3 0 0 1 .177-.077c.082-.005.156.033.221.098a.1.1 0 0 1 .078-.032h1.222c.06 0 .11.049.11.11v1.604a.11.11 0 0 1-.125.108l-1.377-.188a.11.11 0 0 1-.094-.108V6.608q0-.045.032-.077c-.038-.037-.055-.035-.056-.035-.005 0-.02.004-.05.028l-.046.042-.055.05a.28.28 0 0 1-.174.073h.13v1.15h-.017v.08s-.322.028-.537.241c-.215.214-.215.375-.215.375v.695h-.43v.482h-1.774v-.16h-.162V8.4h.162v-.187h.054V7.84h-.473a.5.5 0 0 0-.119-.054H33.55c-.214.066-.293.138-.315.31l-5.594.19V6.69h.185a.6.6 0 0 1-.34-.125l-.106-.07-.034-.016-.01-.003h-.017c.057.003.103.05.103.107v3.076c0 .06-.048.107-.107.107h-.807v-.12a.215.215 0 0 0-.215-.214H23.04a.214.214 0 0 0-.215.214v.12h-3.712l-.12-.507h1.513a.38.38 0 0 0 .293-.136h.241c.18 0 .328-.145.328-.327v-.012a.544.544 0 0 0 0-.846v-.012a.33.33 0 0 0-.328-.328h-.24a.38.38 0 0 0-.294-.136h-1.935l-.158-.673c.632-.181 1.25-.299 1.575-.311v-.22h.055l-.517-1.54a.11.11 0 0 1 .115-.146l3.53.422c.055.006.092.053.097.108zm.097.905h-.054l-.033-.687c.11.003.185.044.263.113.043.039.09.09.14.143q.069.079.159.166c.257.244.644.477 1.459.482h-1.934zM42.794 7.84v.374h1.075V7.84z" clip-rule="evenodd" style="stroke-width:1.00005"/><path fill="#d9d9d9" d="M33.226 8.401v1.15H27.64v-1.15Zm-14.588 1.652.276-.07h.971a.87.87 0 0 0-.352.464.7.7 0 0 0 .007.34 1 1 0 0 0 .066.156.06.06 0 0 1 0 .034c-.016.052-.095.084-.126.045-.14-.17-.215-.283-.242-.427-.023-.118-.002-.237.045-.388l.008-.026a.6.6 0 0 0-.174.413c-.007.228.134.375.376.509.15.083.36.087.581.092l.064.001c.564.014.887-.32.887-.655a.58.58 0 0 0-.332-.557h.956c-.247.163-.396.358-.396.503v.107c0 .348-.282.723-.537.75-.305.031-.74.045-1.035 0-.524-.08-.793-.455-.793-.683v-.2c0-.11-.109-.28-.25-.408" style="stroke-width:1.00005"/><path fill="#d9d9d9" fill-rule="evenodd" d="m4.471 7.44-.177.593h13.085v-.108a.11.11 0 0 1 .11-.11h.45a.164.164 0 0 1 .162-.135h2.405c.082 0 .15.059.162.136h.372c.06 0 .11.048.11.109v.133a.326.326 0 0 1 0 .603v.134a.11.11 0 0 1-.11.109h-.372a.164.164 0 0 1-.162.136h-2.405a.164.164 0 0 1-.161-.136h-.451a.11.11 0 0 1-.11-.11v-.108H6.043c-.483 0-.909.317-1.047.78l-.759 2.54a1.09 1.09 0 0 1-1.047.781h-.316l-.45 1.51a.43.43 0 0 1-.346.302 4.7 4.7 0 0 1-1.48.009.424.424 0 0 1-.36-.377c-.314-2.914-.32-4.69-.002-7.597a.43.43 0 0 1 .388-.384c1.322-.127 2.192-.117 3.52.004a.41.41 0 0 1 .377.356c.033.295.018.53-.05.83m-.723 3.914c-.1.332-.347.59-.658.709l.874-2.924c.19.263.264.608.16.953Z" clip-rule="evenodd" style="stroke-width:1.00005"/><path fill="#d9d9d9" d="M18.101 7.461h.246l-.144-.611q-.1.03-.209.067c-.731.237-1.764.6-2.561.898h1.747a.33.33 0 0 1 .309-.218h.32a.38.38 0 0 1 .292-.136m-5.615 1.444q-.173.1-.282.211c-.4.419-.395.909-.263 1.339q.01.037.024.073c.042.125.095.245.15.355l.002.003.012.02c.067.103.188.088.346.058l.006-.001.028-.006.015-.003.027-.005a3 3 0 0 1 .233-.031 1 1 0 0 1 .102-.001c.092.004.19.02.291.062.504.202.509.661.386.96a7 7 0 0 1-.336.696c-.254.46-.549.898-.811 1.288-.342.508-.63.935-.7 1.223-.042.173-.006.286.143.313.728.13 1.31.238 2.001.368l.806.15c.273.051.476.026.525-.184.023-.1-.052-.166-.168-.242 0 0 .012.008 0 0-.078-.052-.15-.099-.125-.165.532-1.477 1.555-3.907 2.132-4.585l.092-.109.012-.014c.323-.386.469-.56 1.256-.784q.214-.06.498-.129l-.119-.507h-.668a.38.38 0 0 1-.292-.136h-.32a.33.33 0 0 1-.31-.217zm20.981-.842c-.006.009-.022.04-.022.178v1.498c0 .026.007.037.019.049.016.015.05.036.112.053h7.939a.33.33 0 0 0 .145-.116.35.35 0 0 0 .055-.2V8.32c0-.16-.086-.27-.195-.316h-7.937c-.097.032-.113.054-.116.058" style="stroke-width:1.00005"/><defs><radialGradient id="a" cx="0" cy="0" r="1" gradientTransform="rotate(90 7.333 12.786)scale(.79244)" gradientUnits="userSpaceOnUse"><stop stop-color="#F2FF00"/><stop offset="1" stop-color="#F2FF00" stop-opacity="0"/></radialGradient><radialGradient id="b" cx="0" cy="0" r="1" gradientTransform="matrix(13.49551 0 0 19.7265 47.37 7.148)" gradientUnits="userSpaceOnUse"><stop stop-color="#E46767"/><stop offset="1" stop-color="#D9D9D9"/></radialGradient></defs></svg>