<?xml version="1.0" encoding="UTF-8" standalone="no"?>
<svg
   width="69.988716"
   height="16.000006"
   viewBox="0 0 69.988716 16.000006"
   fill="none"
   version="1.1"
   id="svg11"
   sodipodi:docname="rsh12_killfeed.svg"
   inkscape:version="1.4 (e7c3feb1, 2024-10-09)"
   xmlns:inkscape="http://www.inkscape.org/namespaces/inkscape"
   xmlns:sodipodi="http://sodipodi.sourceforge.net/DTD/sodipodi-0.dtd"
   xmlns="http://www.w3.org/2000/svg"
   xmlns:svg="http://www.w3.org/2000/svg">
  <sodipodi:namedview
     id="namedview11"
     pagecolor="#ffffff"
     bordercolor="#000000"
     borderopacity="0.25"
     inkscape:showpageshadow="2"
     inkscape:pageopacity="0.0"
     inkscape:pagecheckerboard="0"
     inkscape:deskcolor="#d1d1d1"
     inkscape:zoom="2.8235294"
     inkscape:cx="35.0625"
     inkscape:cy="8.3229167"
     inkscape:window-width="1472"
     inkscape:window-height="812"
     inkscape:window-x="0"
     inkscape:window-y="37"
     inkscape:window-maximized="1"
     inkscape:current-layer="svg11" />
  <path
     d="m 24.435988,3.2447353 -0.0137,2.8101658 0.625535,0.010229 0.902605,1.3264511 H 42.94815 V 1.8123053 H 25.923032 L 25.08592,3.2622435 Z"
     fill="#d9d9d9"
     id="path1"
     style="stroke-width:0.999895" />
  <path
     d="M 6.0413534,0 5.7197871,1.9e-5 5.7002692,1.1705625 5.176074,2.865805 5.2159199,3.7626911 C 5.2416472,4.3520394 4.5517094,5.2858116 3.9048671,5.444525 l 0.064653,2.3491341 10.9060689,-0.00592 0.0023,-7.15771266 -3.99e-4,-0.27041769 -0.900906,0.00687 -7.6919752,-1.3198e-4 z m 1.2835157,1.3635223 1.3993935,-0.00474 -0.00773,-0.2938893 0.00588,-0.1318762 4.4425554,0.0054 0.0049,0.4325447 0.715925,-0.00735 0.0339,4.6317452 -6.5851211,-0.014498 z"
     fill="#d9d9d9"
     id="path2"
     style="stroke-width:0.999895" />
  <path
     d="m 7.8248967,1.8552708 5.5935443,0.012279 0.015,3.6307199 -5.6222418,-0.015928 z"
     fill="#d9d9d9"
     id="path3"
     style="stroke-width:0.999895" />
  <path
     d="m 20.946253,0.00390579 -0.941001,0.0042649 0.0098,0.33667626 -4.634415,0.0109928 -0.0024,7.22105205 0.521545,-0.1853606 1.112184,-0.021798 0.0052,-0.5607213 0.495748,-0.4564122 6.411628,-0.00189 0.012,-3.620441 -0.933402,-1.2906349 -0.410157,0.00332 z m -4.837393,1.61500971 2.138176,0.00725 0.480949,0.57318 C 18.624796,2.2787775 18.536305,2.3917053 18.49761,2.500134 L 16.245045,2.498714 C 16.127658,2.501084 16.10976,2.411243 16.113659,2.3492897 Z m 2.778109,-0.00664 2.348454,-0.00237 0.500348,0.4430736 -2.444145,4.799e-4 z m 0.352063,0.6547915 h 3.120473 c 0.302669,0 0.546243,0.2436245 0.546243,0.5462728 v 0.4718406 c 0,0.3026583 -0.243574,0.5462728 -0.546243,0.5462728 h -3.120473 c -0.302568,0 -0.546243,-0.2436145 -0.546243,-0.5462728 V 2.8133405 c 0,-0.3026483 0.243675,-0.5462728 0.546243,-0.5462735 z"
     fill="#d9d9d9"
     id="path4"
     style="stroke-width:0.999895" />
  <path
     d="m 22.156327,2.7536167 h -2.738714 c -0.136585,0 -0.247274,0.1106784 -0.247274,0.2472142 v 0.080621 c 0,0.1365357 0.110689,0.2472141 0.247274,0.2472141 h 2.738714 c 0.136485,0 0.247174,-0.1106784 0.247174,-0.2472141 v -0.080621 c 0,-0.1365358 -0.110689,-0.2472142 -0.247174,-0.2472142 z"
     fill="#d9d9d9"
     id="path5"
     style="stroke-width:0.999895" />
  <path
     d="M 8.1105368,9.7750217 7.8346257,10.36509 c 0.1858806,0.0277 0.3763706,0.08719 0.4198161,0.119687 0.1547738,0.107489 0.7846378,0.19188 1.1588586,0.105689 l 2.6721806,-0.498048 c 0.9575,-0.2770905 1.077287,-0.9713079 1.109784,-1.7952016 l -0.502548,-0.00512 c 0.0052,0.4306549 -0.0442,1.1428504 -0.793917,1.3238814 L 9.522729,10.067621 C 8.4597203,10.229904 8.3852981,9.946834 8.1105368,9.7750217 Z"
     fill="#d9d9d9"
     id="path6"
     style="stroke-width:0.999895" />
  <path
     d="M 9.4851129,8.2876074 8.8296415,8.2842874 C 8.8701975,8.6585183 8.9867751,9.5915306 9.9447049,9.7749914 10.419355,9.8462434 10.452852,9.4117094 10.108788,9.2946617 9.7944209,9.2037915 9.4208797,8.7750064 9.4851129,8.2876074 Z"
     fill="#d9d9d9"
     id="path7"
     style="stroke-width:0.999895" />
  <path
     d="M 3.409069,5.5228568 0.98193311,5.9775792 C -0.15301007,6.1768584 0.39616344,7.0123609 0.90758091,7.0852333 1.2967201,7.1673747 2.5837654,7.8129671 2.0117353,8.9799549 0.78494371,10.93823 0.04334837,12.766738 4.7685938e-4,15.255478 -0.00885814,15.551947 0.11695267,15.942606 0.54680667,15.956505 l 3.56562873,0.0435 c 0.7298236,-0.0043 1.0050848,-0.126387 1.155509,-0.865409 l 0.9548601,-4.380242 0.9171039,-0.04389 1.0838666,-2.4213168 -4.7322146,-1.3e-4 z"
     fill="#d9d9d9"
     id="path8"
     style="stroke-width:0.999895" />
  <path
     d="M 1.6248458,5.2049901 C 1.4138879,5.3678231 1.3250672,5.2748428 1.2875911,5.2330872 1.2481152,5.1943812 1.1766427,5.0786533 1.384371,4.9257293 2.0074257,4.4633677 2.4273218,4.3629483 3.2098599,4.3822062 L 4.4811768,3.323867 4.6514889,3.4805706 4.5703274,3.9125054 4.6711769,4.0168245 C 4.4945154,4.4928347 4.1431322,4.9546863 3.2581748,5.1179192 L 3.1491562,4.976654 C 2.6578177,5.0112504 2.0713191,4.9700147 1.6248458,5.2049901 Z"
     fill="#d9d9d9"
     id="path9"
     style="stroke-width:0.999895" />
  <path
     d="M 42.909654,3.5269758 H 69.988719 V 5.7835695 H 42.909654 Z"
     fill="url(#paint0_linear_2620_513)"
     id="path10"
     style="fill:url(#paint0_linear_2620_513);stroke-width:0.999895" />
  <defs
     id="defs11">
    <linearGradient
       id="paint0_linear_2620_513"
       x1="70.256302"
       y1="4.7338901"
       x2="43.1744"
       y2="4.7338901"
       gradientUnits="userSpaceOnUse"
       gradientTransform="matrix(0.99989532,0,0,0.99989532,-0.26022685,-0.07811682)">
      <stop
         stop-color="#D9D9D9"
         id="stop10" />
      <stop
         offset="1"
         stop-color="#D9D9D9"
         stop-opacity="0"
         id="stop11" />
    </linearGradient>
  </defs>
</svg>
