<svg xmlns="http://www.w3.org/2000/svg" width="23.126" height="16" fill="none"><path d="M11.04 0 9.634 1.12 9.488.255 8.33 1.627 8.018.811l-.87 1.57-.464-.742-.547 1.71-.602-.634-.201 1.783-.713-.506.15 1.787-.8-.355.498 1.724-.854-.195.822 1.596-.875-.026 1.12 1.405-.864.146 1.371 1.16-.816.313 1.57.867-.74.467 1.71.545-.636.601 1.784.202-.506.714 1.789-.15-.358.799 1.725-.496-.193.853 1.593-.824-.023.875 1.404-1.12.147.864 1.158-1.371.312.816.87-1.57.464.742.547-1.71.602.634.201-1.783.713.506-.15-1.787.798.355-.496-1.724.854.195-.825-1.596.875.026-1.117-1.405.862-.146-1.371-1.16.818-.313-1.57-.867.74-.467-1.711-.545.637-.601-1.784-.202.506-.714-1.789.15.358-.799-1.725.496.193-.853-1.593.824zm.523 6.49A1.51 1.51 0 0 1 13.074 8a1.51 1.51 0 0 1-1.511 1.51A1.51 1.51 0 0 1 10.053 8a1.51 1.51 0 0 1 1.51-1.51" style="fill:#d9d9d9;stroke-width:.7;stroke-linecap:round;stroke-linejoin:round;stroke-miterlimit:10.8;paint-order:fill markers stroke"/><path d="M5.322 15.237 1.17 8.062l.482 3.506L.135 10.44l1.113 3.107L0 13.989ZM17.804.763l4.152 7.175-.482-3.506 1.517 1.128-1.113-3.107 1.248-.442Z" style="fill:#d9d9d9;fill-opacity:1;stroke-width:.7;stroke-linecap:round;stroke-linejoin:round;stroke-miterlimit:10.8;paint-order:fill markers stroke"/></svg>