<svg xmlns="http://www.w3.org/2000/svg" xml:space="preserve" width="37.3" height="16.7" viewBox="0 0 9.869 4.419"><g style="stroke:#d9d9d9;stroke-opacity:1" transform="translate(1.32 .183)scale(.08122)"><path d="M42.499 21.036s-.627-7.69 5.687-7.69" style="fill:none;fill-opacity:1;fill-rule:evenodd;stroke:#d9d9d9;stroke-width:.79375;stroke-linecap:round;stroke-linejoin:round;stroke-miterlimit:29;stroke-dasharray:none;stroke-opacity:1"/><circle cx="48.119" cy="16.547" r="3.202" style="fill:none;fill-opacity:1;fill-rule:evenodd;stroke:#d9d9d9;stroke-width:.79375;stroke-linecap:round;stroke-linejoin:round;stroke-miterlimit:29;stroke-dasharray:none;stroke-opacity:1"/></g><path d="M5.257 7.893v.247h.898v-.247zm0 .769v.823h.898v-.823zm0 1.345v.246h.898v-.246z" style="fill:#d9d9d9;fill-opacity:1;fill-rule:evenodd;stroke:none;stroke-width:.137097;stroke-linecap:round;stroke-linejoin:round;stroke-miterlimit:29;stroke-dasharray:none;stroke-opacity:1" transform="translate(1.204 -2.542)scale(.627)"/><path d="M5.155 9.545h1.104v.394H5.155zM5.133 8.199h1.104v.394H5.133z" style="fill:#d9d9d9;fill-opacity:1;fill-rule:evenodd;stroke:none;stroke-width:.122402;stroke-linecap:round;stroke-linejoin:round;stroke-miterlimit:29;stroke-dasharray:none;stroke-opacity:1" transform="translate(1.21 -2.539)scale(.627)"/><path d="M5.15 10.225h1.116v.304H5.15zM5.149 7.607h1.116v.304H5.149zM6.252 7.542H5.163l-.15-.173v-.131l.15-.177H6.25l.15.176v.13ZM6.252 11.08l-1.089.001-.15-.174v-.13l.149-.177H6.25l.15.176v.13z" style="fill:#d9d9d9;fill-opacity:1;fill-rule:evenodd;stroke:none;stroke-width:.137097;stroke-linecap:round;stroke-linejoin:round;stroke-miterlimit:29;stroke-dasharray:none;stroke-opacity:1" transform="translate(1.204 -2.542)scale(.627)"/><path fill="#d9d9d9" d="m15.052 13.183-3.832.616c.15-.693.127-1.056-.16-1.654l3.41-2.452-1.607 2.121 1.46.057-1.061 1.015zM5.189 13.538l3.517.26c-.15-.693-.127-1.055.16-1.653l-3.168-2.17 1.929 2.356-1.492-.095 1.066.935Z" style="stroke-width:.264583" transform="translate(-5.186 -9.68)"/></svg>