<svg width="58" height="17" viewBox="0 0 58 17" fill="none" xmlns="http://www.w3.org/2000/svg">
<circle cx="10.4226" cy="7.11062" r="0.955345" fill="url(#paint0_radial_526_510)"/>
<path fill-rule="evenodd" clip-rule="evenodd" d="M10.3571 8.06629L9.73306 6.19999C9.6989 6.10756 9.77455 6.0117 9.87238 6.02344L10.4227 6.08945L10.423 6.08949L14.1285 6.53386C14.1947 6.54181 14.2386 6.59854 14.2446 6.66472L14.3105 8.06629H14.3764V8.32987H19.122C19.1935 8.32987 19.2516 8.38789 19.2516 8.45947L19.2516 8.58914H40.8224V9.98233L40.5059 9.98232V10.0795C40.5059 10.0795 40.1171 10.1119 39.8579 10.3711C39.5987 10.6303 39.5987 10.8247 39.5987 10.8247V11.6671H39.0803L39.0803 12.2503H36.9419V12.0559H36.7469C36.7364 12.333 36.5902 12.5623 36.2939 12.6715H26.6387C26.4041 12.6162 26.2499 12.4933 26.2499 12.2827V12.0559H19.2516L19.2516 12.1854C19.2516 12.257 19.1935 12.315 19.122 12.315H18.15V12.1692C18.15 12.0261 18.0339 11.9101 17.8908 11.9101H13.9704C13.8272 11.9101 13.7112 12.0261 13.7112 12.1692V12.315L12.8493 12.3151C12.2299 12.5159 11.8158 12.9219 11.8158 13.1899V13.3195C11.8158 13.7407 11.4756 14.1943 11.1678 14.2267C10.8001 14.2654 10.2759 14.2814 9.92042 14.2267C9.28862 14.1295 8.96462 13.6759 8.96462 13.4005V13.1575C8.96463 12.9469 8.63572 12.557 8.34752 12.4653C7.04015 12.7897 6.05848 13.0885 5.37532 13.5949C4.47067 14.2655 3.90135 15.1459 3.49778 16.4761C3.48289 16.5256 3.43315 16.5488 3.36166 16.5296L1.19457 15.9472C1.03365 15.8978 0.983757 15.8461 0.898294 15.6457C0.207837 14.0262 0.339236 12.8625 1.84615 11.3166C1.85697 11.3055 1.86663 11.2948 1.87568 11.2848C1.91902 11.2369 1.94814 11.2048 2.02082 11.218C2.09054 11.231 2.15747 11.2442 2.2219 11.257C2.45643 11.3033 2.65793 11.3431 2.84106 11.3431C3.58626 11.3431 4.34939 10.82 5.36825 10.1119C6.32404 9.44774 6.95618 9.15917 8.13844 8.78354L8.13843 8.78347C8.98369 8.52221 9.85461 8.34848 10.2909 8.33128V8.06629H10.3571ZM26.2499 10.6627H19.2516V10.5331L26.2591 10.2937C26.2525 10.3443 26.2499 10.4019 26.2499 10.4683V10.6627ZM37.7843 9.98233L39.0803 9.98232L39.0803 10.4359H37.7843V9.98233ZM36.4364 9.98233H37.0067V10.4359H36.9419V10.6627H36.7475V10.5655C36.7475 10.3044 36.6212 10.0958 36.4364 9.98233ZM9.45031 12.818C9.38666 13.0162 9.35696 13.1683 9.38583 13.3195C9.41927 13.4947 9.50967 13.6323 9.67743 13.8379C9.72602 13.8975 9.87182 13.8156 9.82323 13.7245C9.69364 13.4815 9.71049 13.3357 9.74223 13.1413C9.7829 12.8922 9.94051 12.6422 10.386 12.4649C10.3969 12.4645 10.407 12.4641 10.4164 12.4637C10.4581 12.4621 10.489 12.4609 10.536 12.4609C10.8998 12.4609 11.1325 12.5476 11.2812 12.6715C11.4756 12.8335 11.5404 13.028 11.5404 13.2547C11.5404 13.6597 11.1516 14.0647 10.4712 14.0485C10.4454 14.0479 10.4197 14.0473 10.3942 14.0468C10.1268 14.0413 9.8756 14.0362 9.69362 13.9351C9.402 13.7731 9.23241 13.5949 9.23999 13.3195C9.245 13.1372 9.30387 12.9914 9.40071 12.873C9.41628 12.854 9.43284 12.8357 9.45031 12.818Z" fill="#D9D9D9"/>
<path d="M55.2119 3.58789L41.3567 8.55904L41.8568 8.90401L41.3567 9.34809L42.0486 9.59031L41.3567 9.94048L54.053 14.7185L50.7721 10.1586L57.6264 8.24775L51.1356 7.43212L55.2119 3.58789Z" fill="url(#paint1_linear_526_510)"/>
<path d="M39.8342 4.4668H40.9445V5.50503H41.9828V6.61531H40.9445V7.65359H39.8342V6.61531H38.796V5.50503H39.8342V4.4668Z" fill="#C65353"/>
<path d="M37.7972 4.68945H36.8065V3.76307H35.8801V2.7724H36.8065V1.84598H37.7972V2.7724H38.7236V3.76307H37.7972V4.68945Z" fill="#C65353"/>
<path d="M34.8494 6.62402H33.9814V5.8124H33.1698V4.94446H33.9814V4.13279H34.8494V4.94446H35.661V5.8124H34.8494V6.62402Z" fill="#C65353"/>
<path d="M31.9469 1.42383H32.7574V2.18176H33.5154V2.99229H32.7574V3.75026H31.9469V2.99229H31.189V2.18176H31.9469V1.42383Z" fill="#C65353"/>
<path d="M28.9643 3.0918H29.6996V3.77939H30.3872V4.5147H29.6996V5.20233H28.9643V4.5147H28.2767V3.77939H28.9643V3.0918Z" fill="#C65353"/>
<path d="M26.8065 0.536133H27.4248V1.11433H28.0031V1.73266H27.4248V2.31089H26.8065V1.73266H26.2283V1.11433H26.8065V0.536133Z" fill="#C65353"/>
<path d="M23.1561 2.94141H23.5238V3.2852H23.8676V3.65285H23.5238V3.99666H23.1561V3.65285H22.8123V3.2852H23.1561V2.94141Z" fill="#C65353"/>
<defs>
<radialGradient id="paint0_radial_526_510" cx="0" cy="0" r="1" gradientUnits="userSpaceOnUse" gradientTransform="translate(10.4226 7.11062) rotate(90) scale(0.955345)">
<stop stop-color="#F2FF00"/>
<stop offset="1" stop-color="#F2FF00" stop-opacity="0"/>
</radialGradient>
<linearGradient id="paint1_linear_526_510" x1="41.3567" y1="9.1532" x2="57.6264" y2="9.1532" gradientUnits="userSpaceOnUse">
<stop stop-color="#EC9393"/>
<stop offset="1" stop-color="#D9D9D9"/>
</linearGradient>
</defs>
</svg>
