<?xml version="1.0" encoding="UTF-8" standalone="no"?>
<svg
   width="80.99749"
   height="16.000019"
   viewBox="0 0 80.99749 16.000019"
   fill="none"
   version="1.1"
   id="svg8"
   xmlns="http://www.w3.org/2000/svg"
   xmlns:svg="http://www.w3.org/2000/svg">
  <defs
     id="defs8" />
  <path
     d="m 79.341091,1.253909 -11.5999,2.97962 0.5508,0.53609 -0.5508,0.47687 0.7294,0.43449 -0.7294,0.54974 12.0876,2.18376 -2.7989,-2.18376 3.9676,-1.59937 -3.5985,-0.92272 z"
     fill="#d9d9d9"
     id="path1" />
  <path
     d="m 22.015891,2.958459 v 0.16533 h 39.2887 v -0.46959 l -0.5376,-0.46278 h -0.4151 v -1.21142 c 0,-0.1157 -0.0953,-0.21098 -0.211,-0.21098 h -0.3607 c -0.1157,0 -0.211,0.09528 -0.211,0.21098 v 1.59251 c 0,0.03972 0.0113,0.07704 0.0307,0.10893 h -36.08 v -0.0817 l -0.3538,-0.35389 h -0.3335 v -1.32709 c 0,0 -0.2314,-0.05445 -0.2314,-0.360699 0,-0.306253 0.0068,-0.55806 0.0068,-0.55806 h -0.4015 v 0.959589 l -0.1906,-0.04083 v 1.33587 c -0.1111,0.07748 -0.1838,0.20621 -0.1838,0.35192 0,0.1457 0.0727,0.27443 0.1838,0.35191 z"
     fill="#d9d9d9"
     id="path2" />
  <path
     fill-rule="evenodd"
     clip-rule="evenodd"
     d="m 34.837691,3.396019 h -13.2978 v -0.279 h -1.6133 v 0.69417 l -1.9872,-5e-5 -10e-5,3.44363 c 0,0 -0.0544,0.40153 0.2519,0.40153 0.3062,0 2.3071,0.00686 2.3071,0.00686 0,0 0.9086,0.20528 1.1496,0.95962 h 1.9605 c 0.3645,0 0.6025,0.12783 0.7405,0.30675 0.0644,0.08352 0.0982,0.16724 0.116,0.23095 0.009,0.032 0.0145,0.06032 0.0171,0.08126 0.0026,0.02095 0.0043,0.05018 0.0043,0.05018 v 1.8333 l 0.7146,-0.0252 c 0,0 0.2995,0.034 0.5104,0.1497 0.1634,0.0885 0.3377,0.1223 0.5243,0.1123 0.0782,-0.0043 0.1533,-0.008 0.226,-0.0116 0.6583,-0.0329 1.1123,-0.0555 1.8213,-0.3296 l 0.1303,-0.0705 5.2607,-1.0079 v -2e-4 l 0.422,-0.0808 -0.0204,-2.09617 c 0,0 -0.0234,-0.24774 0.2363,-0.45169 0.0525,0.02348 0.1107,0.03653 0.172,0.03653 0.1482,0 0.2786,-0.07645 0.3539,-0.19207 v -0.45975 l -0.0015,-0.0022 0.0015,-0.25841 z m -9.3004,5.76438 c -0.0455,0.15411 -0.2012,0.79882 0.2217,1.24542 0.4832,0.5104 0.4696,0.1838 0.4696,0.1838 0,0 -0.8027,-0.8875 -0.0501,-1.42922 h 1.1526 c 0,0 0.9255,0.31986 0.9255,1.04802 0,0.5456 -0.1757,0.7436 -0.2638,0.8085 l -0.0662,0.015 c -0.6108,0.1381 -0.9932,0.2246 -1.596,0.2246 0,0 -1.6469,-0.1497 -1.6673,-1.1093 -0.0205,-0.9596 0.769,-0.98682 0.769,-0.98682 z"
     fill="#d9d9d9"
     id="path3" />
  <path
     d="m 61.971591,5.723529 h -0.5104 v -1.18418 h 0.5104 v -0.32665 h 0.8507 c 0.1331,0 0.2501,0.05825 0.3293,0.14967 h 3.5431 c 0.1361,0 0.2382,0.10889 0.2382,0.23819 v 0.46278 h -2.838 v 0.27903 h 2.8312 v 0.28584 c 0,0.16333 -0.1293,0.29264 -0.2927,0.29264 h -3.4844 c -0.0825,0.09427 -0.2045,0.14978 -0.3403,0.14978 h -0.8371 z"
     fill="#d9d9d9"
     id="path4" />
  <path
     d="m 61.188991,6.431319 v -3.0353 h -26.0791 v 3.0353 h 10.188 v 0.05447 h -0.98 c -0.0681,0 -0.1294,0.05445 -0.1294,0.12931 v 0.245 c 0,0.06806 0.0545,0.12931 0.1294,0.12931 h 2.4296 c 0.068,0 0.1293,-0.06125 0.1293,-0.12931 0,0.06806 0.0544,0.12931 0.1293,0.12931 h 2.4296 c 0.0748,0 0.1293,-0.06125 0.1293,-0.12931 v -0.245 c 0,-0.06805 -0.0545,-0.12931 -0.1293,-0.12931 h -0.9868 v -0.05447 h 7.0478 l -0.1946,0.00681 v 0.42195 l 1.1434,0.44236 h 4.1105 v -0.87112 z"
     fill="#d9d9d9"
     id="path5" />
  <path
     d="m 33.673891,10.219619 -5.2063,0.9975 v 4.7829 l 5.2063,-0.9664 z"
     fill="#d9d9d9"
     id="path6" />
  <path
     fill-rule="evenodd"
     clip-rule="evenodd"
     d="m 17.667091,4.253499 h -4.4244 c -0.0413,-0.1009 -0.1385,-0.17015 -0.251,-0.17015 L 1.0342107,4.001679 c -0.48999905,0 -0.91875205,0.34709 -1.00041905,0.83029 -0.061251,0.36069 -0.054445,0.81667 0.149723,1.30667 0.496809,1.17057 0.728196,6.18628 0.728196,6.52658 0,0.2926 0.53765005,0.4628 0.68737005,0.5036 0.02042,0.0068 0.04764,0.0068 0.07486,0.0068 h 1.66057 c 0.38111,0 0.63973,-0.2246 0.63973,-0.7554 0,-0.5308 0.40153,-0.7282 0.40153,-0.7282 l 7.9081203,-3.82475 c 0.034,-0.02042 0.0817,-0.02723 0.1225,-0.02723 h 0.5853 c 0.1497,0 0.2722,-0.1225 0.2722,-0.27222 v -0.89831 h 0.7826 l 0.8675,-0.53766 h 2.7531 z m -13.5295203,6.45172 c 0,0 3.69544,-1.96003 3.92683,-2.1642 0.23139,-0.20417 0.16334,-0.41514 0.15653,-0.41514 v -0.78265 h -4.15142 c -1.225,0 -0.98,0.78265 -0.98,0.78265 0,0 0.10889,0.80986 0.16333,1.91234 0.05445,1.1025 0.88473,0.667 0.88473,0.667 z"
     fill="#d9d9d9"
     id="path7" />
  <path
     d="m 23.608391,8.894999 c 0.5921,0 0.6057,0.40153 0.6057,0.40153 v 1.83829 l -0.1701,0.006 -0.4764,0.5649 c -0.4764,0.5648 -0.034,0.9528 -0.034,0.9528 0,0 0.1198,0.1667 -0.1466,0.181 -0.0042,2e-4 -0.0085,4e-4 -0.0129,6e-4 -0.013,4e-4 -0.0269,5e-4 -0.0417,2e-4 h -0.0025 c -0.0248,-5e-4 -0.0521,-0.0021 -0.0822,-0.0049 -0.3056,-0.0282 -0.4618,0.262 -0.7133,0.7292 -0.1124,0.2089 -0.244,0.4533 -0.4164,0.7204 -0.3761,0.5825 -0.3133,0.7508 -0.2448,0.934 0.0331,0.0887 0.0675,0.1808 0.0542,0.325 -0.0344,0.3674 -0.7272,0.2022 -1.9069,-0.079 -0.219,-0.0522 -0.4549,-0.1084 -0.7064,-0.166 -1.6061,-0.3675 -1.1638,-0.6125 -1.1638,-0.6125 l 3.1578,-4.4713 c 0.2415,-0.4074 0.3581,-0.75294 0.3892,-1.04529 4e-4,-0.00352 7e-4,-0.00704 0.0011,-0.01056 l 6e-4,-0.00625 7e-4,-0.00743 c 6e-4,-0.00672 0.0012,-0.01341 0.0017,-0.02007 0.0063,-0.08101 0.006,-0.15782 0,-0.23062 z"
     fill="#d9d9d9"
     id="path8" />
</svg>
