<svg width="82" height="17" viewBox="0 0 82 17" fill="none" xmlns="http://www.w3.org/2000/svg">
<path d="M79.5032 1.67969L67.9033 4.65931L68.4541 5.1954L67.9033 5.67227L68.6327 6.10676L67.9033 6.6565L79.9909 8.84026L77.192 6.6565L81.1596 5.05713L77.5611 4.13441L79.5032 1.67969Z" fill="#D9D9D9"/>
<path d="M22.178 3.38424V3.54957H61.4667V3.07998L60.9291 2.6172H60.514V1.40578C60.514 1.29008 60.4187 1.1948 60.303 1.1948H59.9423C59.8266 1.1948 59.7313 1.29008 59.7313 1.40578V2.99829C59.7313 3.03801 59.7426 3.07533 59.762 3.10722H23.682V3.02552L23.3282 2.67163H22.9947V1.34454C22.9947 1.34454 22.7633 1.29009 22.7633 0.983841C22.7633 0.677588 22.7701 0.425781 22.7701 0.425781H22.3686V1.38537L22.178 1.34454V2.68041C22.0669 2.75789 21.9942 2.88662 21.9942 3.03233C21.9942 3.17803 22.0669 3.30676 22.178 3.38424Z" fill="#D9D9D9"/>
<path fill-rule="evenodd" clip-rule="evenodd" d="M34.9998 3.8218H21.702V3.5428H20.0887V4.23697L18.1015 4.23692L18.1014 7.68055C18.1014 7.68055 18.047 8.08208 18.3533 8.08208C18.6595 8.08208 20.6604 8.08894 20.6604 8.08894C20.6604 8.08894 21.569 8.29422 21.81 9.04856H23.7705C24.135 9.04856 24.373 9.17639 24.511 9.35531C24.5754 9.43883 24.6092 9.52255 24.627 9.58626C24.636 9.61826 24.6415 9.64658 24.6441 9.66752C24.6467 9.68847 24.6484 9.7177 24.6484 9.7177V11.551L25.363 11.5258C25.363 11.5258 25.6625 11.5598 25.8734 11.6755C26.0368 11.764 26.2111 11.7978 26.3977 11.7878C26.4759 11.7835 26.551 11.7798 26.6237 11.7762C27.282 11.7433 27.736 11.7207 28.445 11.4466L28.5753 11.3761L33.836 10.3682V10.368L34.258 10.2872L34.2376 8.19103C34.2376 8.19103 34.2142 7.94329 34.4739 7.73934C34.5264 7.76282 34.5846 7.77587 34.6459 7.77587C34.7941 7.77587 34.9245 7.69942 34.9998 7.5838V7.12405L34.9983 7.12185L34.9998 6.86344V3.8218ZM25.6994 9.58618C25.6539 9.74029 25.4982 10.385 25.9211 10.8316C26.4043 11.342 26.3907 11.0154 26.3907 11.0154C26.3907 11.0154 25.588 10.1279 26.3406 9.58618H27.4932C27.4932 9.58618 28.4187 9.90604 28.4187 10.6342C28.4187 11.1798 28.243 11.3778 28.1549 11.4427L28.0887 11.4577C27.4779 11.5958 27.0955 11.6823 26.4927 11.6823C26.4927 11.6823 24.8458 11.5326 24.8254 10.573C24.8049 9.6134 25.5944 9.58618 25.5944 9.58618H25.6994Z" fill="#D9D9D9"/>
<path d="M62.1337 6.14931H61.6233V4.96513H62.1337V4.63848H62.9844C63.1175 4.63848 63.2345 4.69673 63.3137 4.78815H66.8568C66.9929 4.78815 67.095 4.89704 67.095 5.02634V5.48912H64.257V5.76815H67.0882V6.05399C67.0882 6.21732 66.9589 6.34663 66.7955 6.34663H63.3111C63.2286 6.4409 63.1066 6.49641 62.9708 6.49641H62.1337V6.14931Z" fill="#D9D9D9"/>
<path d="M61.3511 6.8571V3.8218H35.272V6.8571H45.46V6.91157H44.48C44.4119 6.91157 44.3506 6.96602 44.3506 7.04088V7.28588C44.3506 7.35394 44.4051 7.41519 44.48 7.41519H46.9096C46.9776 7.41519 47.0389 7.35394 47.0389 7.28588C47.0389 7.35394 47.0933 7.41519 47.1682 7.41519H49.5978C49.6726 7.41519 49.7271 7.35394 49.7271 7.28588V7.04088C49.7271 6.97283 49.6726 6.91157 49.5978 6.91157H48.611V6.8571H55.6588L55.4642 6.86391V7.28586L56.6076 7.72822H60.7181V6.8571H61.3511Z" fill="#D9D9D9"/>
<path d="M33.836 10.6454L28.6297 11.6429V16.4258L33.836 15.4594V10.6454Z" fill="#D9D9D9"/>
<path fill-rule="evenodd" clip-rule="evenodd" d="M17.8292 4.67928H13.4048C13.3635 4.57838 13.2663 4.50913 13.1538 4.50913L1.19632 4.42746C0.706321 4.42746 0.277568 4.77455 0.195901 5.25775C0.13465 5.61844 0.141456 6.07442 0.345624 6.56442C0.842433 7.73499 1.07382 12.7507 1.07382 13.091C1.07382 13.3836 1.61147 13.5538 1.76119 13.5946C1.78161 13.6014 1.80883 13.6014 1.83605 13.6014H3.49662C3.87773 13.6014 4.13635 13.3768 4.13635 12.846C4.13635 12.3152 4.53788 12.1178 4.53788 12.1178L12.446 8.29305C12.48 8.27263 12.5277 8.26582 12.5685 8.26582H13.1538C13.3035 8.26582 13.426 8.14332 13.426 7.9936V7.09529H14.2086L15.0761 6.55763H17.8292V4.67928ZM4.29968 11.131C4.29968 11.131 7.99512 9.17097 8.22651 8.9668C8.4579 8.76263 8.38985 8.55166 8.38304 8.55166V7.76901H4.23162C3.00662 7.76901 3.25162 8.55166 3.25162 8.55166C3.25162 8.55166 3.36051 9.36152 3.41495 10.464C3.4694 11.5665 4.29968 11.131 4.29968 11.131Z" fill="#D9D9D9"/>
<path d="M23.7705 9.32078C24.3626 9.32078 24.3762 9.72231 24.3762 9.72231V11.5606L24.2061 11.5666L23.7297 12.1315C23.2533 12.6963 23.6957 13.0843 23.6957 13.0843C23.6957 13.0843 23.8155 13.251 23.5491 13.2653C23.5449 13.2655 23.5406 13.2657 23.5362 13.2659C23.5232 13.2663 23.5093 13.2664 23.4945 13.2661L23.492 13.2661C23.4672 13.2656 23.4399 13.264 23.4098 13.2612C23.1042 13.233 22.948 13.5232 22.6965 13.9904C22.5841 14.1993 22.4525 14.4437 22.2801 14.7108C21.904 15.2933 21.9668 15.4616 22.0353 15.6448C22.0684 15.7335 22.1028 15.8256 22.0895 15.9698C22.0551 16.3372 21.3623 16.172 20.1826 15.8908C19.9636 15.8386 19.7277 15.7824 19.4762 15.7248C17.8701 15.3573 18.3124 15.1123 18.3124 15.1123L21.4702 10.641C21.7117 10.2336 21.8283 9.88806 21.8594 9.59571C21.8598 9.59219 21.8601 9.58867 21.8605 9.58515L21.8611 9.5789L21.8618 9.57147C21.8624 9.56475 21.863 9.55806 21.8635 9.5514C21.8698 9.47039 21.8695 9.39358 21.8635 9.32078H23.7705Z" fill="#D9D9D9"/>
</svg>
