<svg xmlns="http://www.w3.org/2000/svg" xml:space="preserve" width="80.115" height="16" viewBox="0 0 21.197 4.233"><g style="display:inline;opacity:1;fill:#d9d9d9;fill-opacity:1;stroke:none;stroke-width:.94319" transform="matrix(.07137 0 0 .07148 -.632 -4.668)"><path d="M95.838 75.381h25.156v1.326H95.838z" style="display:inline;opacity:1;fill:#d9d9d9;fill-opacity:1;fill-rule:evenodd;stroke:none;stroke-width:.74543;stroke-linecap:round;stroke-linejoin:round;stroke-miterlimit:10.8;stroke-dasharray:none;stroke-opacity:1;paint-order:normal"/><path d="M99.384 65.797v2.894h-8.972l-7.84-2.101h-10.67v10.17l10.67-.001 7.84-2.101h37.121l3.802 1.02h8.12v-8.006h-8.12l-3.802 1.019h-15.008v-2.894z" style="display:inline;fill:#d9d9d9;fill-opacity:1;fill-rule:evenodd;stroke:none;stroke-width:1.99642;stroke-linecap:round;stroke-linejoin:round;stroke-miterlimit:10.8;stroke-dasharray:none;stroke-opacity:1;paint-order:normal"/><g style="display:inline;opacity:1;fill:#d9d9d9;fill-opacity:1;stroke:none;stroke-width:.94319"><path d="M114.955 81.207v-1.952h-6.445l-3.554 1.952z" style="fill:#d9d9d9;fill-opacity:1;fill-rule:evenodd;stroke:none;stroke-width:.998206;stroke-linecap:round;stroke-linejoin:round;stroke-miterlimit:10.8;stroke-dasharray:none;stroke-opacity:1;paint-order:normal" transform="translate(0 .375)"/><path d="m112.64 76.952.002 1.515h-3.632v-1.515z" style="fill:#d9d9d9;fill-opacity:1;fill-rule:evenodd;stroke:none;stroke-width:.847931;stroke-linecap:round;stroke-linejoin:round;stroke-miterlimit:10.8" transform="translate(0 .375)"/></g><g style="display:inline;opacity:1;fill:#d9d9d9;fill-opacity:1;stroke:none;stroke-width:.94319" transform="translate(-.553 1.63)"><ellipse cx="102.968" cy="64.106" rx="2.5" ry=".431" style="fill:#d9d9d9;fill-opacity:1;fill-rule:evenodd;stroke:none;stroke-width:1.99642;stroke-linecap:round;stroke-linejoin:round;stroke-miterlimit:10.8;stroke-dasharray:none;stroke-opacity:1;paint-order:normal"/><ellipse cx="109.959" cy="64.106" rx="2.5" ry=".431" style="fill:#d9d9d9;fill-opacity:1;fill-rule:evenodd;stroke:none;stroke-width:1.99642;stroke-linecap:round;stroke-linejoin:round;stroke-miterlimit:10.8;stroke-dasharray:none;stroke-opacity:1;paint-order:normal"/></g><path d="M131.762 76.366h4.464v2.515h-4.464z" style="display:inline;fill:#d9d9d9;fill-opacity:1;fill-rule:evenodd;stroke:none;stroke-width:.912189;stroke-linecap:round;stroke-linejoin:round;stroke-miterlimit:10.8;stroke-dasharray:none;stroke-opacity:1;paint-order:normal"/><path d="M131.408 78.558h5.172v1.58h-5.172z" style="display:inline;fill:#d9d9d9;fill-opacity:1;fill-rule:evenodd;stroke:none;stroke-width:.723028;stroke-linecap:round;stroke-linejoin:round;stroke-miterlimit:10.8;stroke-dasharray:none;stroke-opacity:1;paint-order:normal"/><path d="M86.418 80.995c.804 1.168 1.089 2.273 1.288 3.586h107.249c1.331 0 1.546.972 1.705 1.943h84.943v-5.018h-143.28l-.446-.511z" style="display:inline;opacity:1;fill:#d9d9d9;fill-opacity:1;fill-rule:evenodd;stroke:none;stroke-width:1.99642;stroke-linecap:round;stroke-linejoin:round;stroke-miterlimit:10.8;stroke-dasharray:none;stroke-opacity:1;paint-order:normal"/><path d="M96.485 100.425c-.414.005-.808.025-1.214.036-.123 1.554.072 2.953.46 4.295.09.307.688.275.666-.044-.11-1.605-.17-2.855.088-4.287m-3.863.182c-1.174.096-2.315.223-3.372.46.317.346.638.736.819 1.082.415.79.792 1.503 1.23 2.44.378.81 1.672 1.89 2.282 2.717.505.684 1.28 1.022 1.28 1.022h1.412c.06-.724.564-1.205 1.69-1.205h2.253c1.169 0 2.783-.246 3.563-1.468l.841-1.001h-.995a1.4 1.4 0 0 1-.688-.27 2 2 0 0 1-.124.146c-.672.69-1.321 1.585-2.648 1.585h-5.246c-1.414 0-2.437-1.309-2.706-2.542-.245-1.122.02-2.093.41-2.966m16.805 4.047v1.877c.24.615.772.956 1.243 1.242l.198-3.119zm3.32 0v2.746l14.515-1.95v-.796z" style="fill:#d9d9d9;fill-opacity:1;fill-rule:evenodd;stroke:none;stroke-width:.748657;stroke-linecap:round;stroke-linejoin:round;stroke-miterlimit:10.8;stroke-dasharray:none;stroke-opacity:1;paint-order:normal"/><circle cx="90.881" cy="92.265" r="2.655" style="display:inline;fill:#d9d9d9;fill-opacity:1;fill-rule:evenodd;stroke:none;stroke-width:.998206;stroke-linecap:round;stroke-linejoin:round;stroke-miterlimit:10.8;stroke-dasharray:none;stroke-opacity:1;paint-order:normal"/><path d="M179.786 93.056c1.201 0 2.175-.98 2.175-2.19s-.974-2.19-2.175-2.19h-50.925c-1.202 0-2.176.98-2.176 2.19s.974 2.19 2.176 2.19z" style="display:inline;fill:#d9d9d9;fill-opacity:1;fill-rule:evenodd;stroke:none;stroke-width:.998206;stroke-linecap:round;stroke-linejoin:round;stroke-miterlimit:10.8;stroke-dasharray:none;stroke-opacity:1"/><path d="M87.984 85.984c-2.601 0-3.325.052-5.128.62-1.794 1.923-2.426 3.491-3.636 5.632-1.435.709-2.64 1.668-4.375 1.753-3.937.194-4.872-2.27-12.02-2.374H31.038c-1.352 0-2.173.255-3.13.621-.918.351-3.202.657-4.756.753v31.54c18.166-1.26 25.78-5.487 41.056-7.757 2.318-.344 3.963-.21 5.626 1.498l13.644.255c.28-.81.567-2.363.658-5.193.08-2.484-.185-5.326-.22-8.138-.029-2.395.963-4.254 3.439-5.069 3.779-1.244 8.217-1.105 12.766-1.125 2.147-.01 3.35 1.819 3.504 4.251h40.054c4.374 0 6.684-.23 10.015-.496 13.95-1.111 40.544-3.879 40.544-3.879 1.738-.166 2.194-1.67 2.195-3.134 0-.822-1.09-9.78-1.376-9.758h-94.05v4.543c.538.613.93 1.34.928 2.177-.004 1.854-1.54 3.388-3.394 3.39-1.855-.002-3.39-1.536-3.395-3.39-.001-.838.39-1.563.93-2.177v-4.543zm40.88 1.285h50.918c1.965 0 3.585 1.631 3.585 3.594s-1.62 3.594-3.585 3.594h-50.918c-1.965 0-3.584-1.63-3.584-3.594s1.62-3.594 3.584-3.594m-37.983.935c2.225 0 4.06 1.837 4.06 4.061s-1.835 4.054-4.06 4.054-4.06-1.829-4.06-4.054c0-2.224 1.836-4.06 4.06-4.06" style="display:inline;fill:#d9d9d9;fill-opacity:1;fill-rule:evenodd;stroke:none;stroke-width:1.99642;stroke-linecap:round;stroke-linejoin:round;stroke-miterlimit:10.8;stroke-dasharray:none;stroke-opacity:1;paint-order:normal"/><path d="M21.43 92.99h-9.261s-.889 1.237-1.075 2.572c-.463 3.31-.78 7.284-.93 10.681-.203 4.614-1.063 8.1-1.27 12.695-.084 1.857 0 5.578 0 5.578h12.459Z" style="display:inline;opacity:1;fill:#d9d9d9;fill-opacity:1;fill-rule:evenodd;stroke:none;stroke-width:1.99642;stroke-linecap:round;stroke-linejoin:round;stroke-miterlimit:10.8;stroke-dasharray:none;stroke-opacity:1;paint-order:normal"/><path d="M97.48 84.095v6.921a1.991 1.991 0 0 0 1.06 3.675 1.991 1.991 0 0 0 1.061-3.675v-6.92z" style="display:inline;opacity:1;fill:#d9d9d9;fill-opacity:1;fill-rule:evenodd;stroke:none;stroke-width:.998206;stroke-linecap:round;stroke-linejoin:round;stroke-miterlimit:10.8"/><path d="M179.786 93.056c1.201 0 2.175-.98 2.175-2.19s-.974-2.19-2.175-2.19h-50.925c-1.202 0-2.176.98-2.176 2.19s.974 2.19 2.176 2.19z" style="display:inline;fill:#d9d9d9;fill-opacity:1;fill-rule:evenodd;stroke:none;stroke-width:.999325;stroke-linecap:round;stroke-linejoin:round;stroke-miterlimit:10.8;stroke-dasharray:none;stroke-opacity:1"/><path d="m285.237 82.309 17.454-3.134-4.073 2.15 7.05-.245-7.166 1.865 7.363 1.687-7.479.28 5.008 2.428-18.273-2.37 1.68-.637-1.912-.29 2.028-.462-1.854-.231 1.564-.52z" style="fill:#d9d9d9;fill-opacity:1;fill-rule:evenodd;stroke:none;stroke-width:2.77831;stroke-linecap:round;stroke-linejoin:round;stroke-miterlimit:10.8;stroke-dasharray:none;stroke-opacity:1;paint-order:normal"/></g></svg>