<svg width="85" height="17" viewBox="0 0 85 17" fill="none" xmlns="http://www.w3.org/2000/svg">
<path d="M73.748 5.09352L84.0863 2.76562L79.6179 4.80552L82.4835 5.45679L79.278 6.40199L82.9692 8.05962L73.748 6.40199L74.1807 6.26237L73.748 5.86546L74.0322 5.45679L73.748 5.09352Z" fill="#D9D9D9"/>
<path d="M33.179 1.12652H32.8413C32.8417 1.13265 32.8418 1.13884 32.8418 1.14507V1.54961H33.0799C33.2584 1.54961 33.4038 1.67522 33.4038 1.83388V1.86033H34.6383V3.32794H33.4038V3.4866C33.4038 3.64526 33.2584 3.77087 33.0799 3.77087H31.4073C31.2288 3.77087 31.0834 3.64526 31.0834 3.4866V3.32794H29.1415V1.86033H31.0834V1.83388C31.0834 1.67522 31.2288 1.54961 31.4073 1.54961H31.6585V1.14507C31.6585 1.13884 31.6587 1.13265 31.659 1.12652H31.2486V0.934804C31.2486 0.934804 31.1825 0.7497 31.6453 0.7497L32.8088 0.7497C32.8088 0.7497 33.179 0.723256 33.179 0.881917V1.12652Z" fill="#D9D9D9"/>
<path d="M28.8819 1.28518V3.6651H28.948V4.15431H29.1662L29.1662 5.2385H26.5681V4.15431L27.3614 4.15431V4.3923L27.692 4.3923V3.6651H27.7581V1.28519L28.8819 1.28518Z" fill="#D9D9D9"/>
<path d="M26.8524 1.86033H27.4986V3.32794H26.7863C26.7863 3.59238 26.5152 3.59238 26.5152 3.59238H25.4244C25.0873 3.59238 25.0873 3.32794 25.0873 3.32794L23.1305 3.32794L21.848 3.59899H19.9573V1.61572H21.9075L23.1305 1.86033H25.1071C25.1269 1.57606 25.4773 1.58267 25.4773 1.58267H26.4623C26.8193 1.58267 26.8524 1.86033 26.8524 1.86033Z" fill="#D9D9D9"/>
<path fill-rule="evenodd" clip-rule="evenodd" d="M26.3086 5.02034L25.2261 5.02033L24.9352 5.26494H23.8312C23.8312 5.26494 23.5932 5.33766 23.5932 5.89958C23.5932 6.46151 23.8577 6.60695 23.8577 6.60695H24.469C24.5296 6.59351 24.5894 6.5804 24.6483 6.56762V5.95908C24.6483 5.75498 24.8038 5.57318 25.0291 5.56747L25.4035 5.54165C25.6328 5.52288 25.8218 5.70805 25.8218 5.93264V6.3294C26.0945 6.27789 26.2574 6.24996 26.2574 6.24996L29.2092 6.23651V6.4873L29.2092 6.48988L29.2092 6.49158L29.2092 6.49326L29.2093 6.49605C29.2122 6.64414 29.2905 6.76495 29.3943 6.76495H33.3939C33.493 6.76495 33.579 6.63935 33.579 6.4873V6.2166L53.8248 6.12436C53.8248 6.12436 54.1317 6.08545 54.2736 6.63338L68.9174 6.49456C68.9174 6.49456 69.9289 6.64 71.251 6.65323C72.5732 6.66645 72.8178 6.67306 72.8178 6.67306C72.8178 6.67306 73.1219 6.61356 73.1285 5.88636C73.1484 5.15916 72.917 5.02695 72.917 5.02695L69.9553 4.98728C69.9553 4.98728 68.8645 5.10628 68.2365 5.09967C67.615 5.09306 40.5501 5.02034 40.5501 5.02034C40.5501 5.02034 38.742 5.03716 36.6647 5.05254V5.43192H33.5475V5.07222L33.331 5.07322C32.8161 5.07575 32.3407 5.07827 31.9346 5.08043L31.9289 5.08046C31.2744 5.08393 30.8009 5.08644 30.6338 5.08644C30.4554 5.08331 30.2844 5.08167 30.1215 5.0801L30.1213 5.0801C29.9402 5.07835 29.7692 5.0767 29.6091 5.07322L29.4257 5.0706V5.49803H26.3086V5.02034ZM70.8808 5.89297C70.8808 6.01858 70.7552 6.12435 70.6032 6.11774C70.4511 6.11113 70.3321 6.01197 70.3321 5.87975V5.68142C70.3321 5.55582 70.4577 5.45004 70.6098 5.45666C70.7618 5.46327 70.8808 5.56243 70.8808 5.69465V5.89297ZM71.8129 5.9062C71.8129 6.0318 71.6873 6.13758 71.5353 6.13097C71.3832 6.12435 71.2642 6.02519 71.2642 5.89297V5.69465C71.2642 5.56904 71.3899 5.46327 71.5419 5.46988C71.694 5.47649 71.8129 5.57565 71.8129 5.70787V5.9062ZM72.7517 5.91281C72.7517 6.03841 72.6261 6.14419 72.474 6.13758C72.322 6.13097 72.203 6.0318 72.203 5.89959V5.70126C72.203 5.57565 72.3286 5.46988 72.4807 5.47649C72.6327 5.4831 72.7517 5.58226 72.7517 5.71448V5.91281Z" fill="#D9D9D9"/>
<path d="M33.807 4.0882L34.6003 4.0882V4.3328L34.8251 4.3328V3.65849H34.8978V1.15296L36.0217 1.15296V3.65849H36.0812V4.0882H36.4051L36.4051 5.17239H33.807V4.0882Z" fill="#D9D9D9"/>
<path d="M36.2812 1.86033V3.32794H36.6634L42.0904 4.28836H45.938V1.01598H42.0904L36.7014 1.86033H36.2812Z" fill="#D9D9D9"/>
<path d="M25.4235 5.80042C25.4962 5.79381 25.5623 5.85331 25.5623 5.93264V7.34737V7.34737C25.5623 7.38041 25.5491 7.41349 25.5293 7.43992C24.5707 8.47122 24.769 9.11909 24.769 9.11909C24.8484 9.53137 24.7374 9.99445 24.5734 10.4112C24.5622 10.4395 24.5508 10.4677 24.5392 10.4956C24.4769 10.6454 24.4087 10.7882 24.3415 10.9191C24.2521 11.0931 24.1643 11.2463 24.0938 11.3675C24.0837 11.3848 24.074 11.4015 24.0647 11.4175C24.041 11.4581 24.0199 11.4942 24.0021 11.5254V11.5254C23.9674 11.5833 23.9024 11.6057 23.8424 11.5883C23.8338 11.5858 23.8253 11.5825 23.817 11.5783L22.5147 10.8445C22.4569 10.8098 22.4344 10.7397 22.4563 10.6784C22.4594 10.6696 22.4635 10.6611 22.4684 10.6528L23.3146 9.38352C23.5749 8.98439 23.8706 8.85351 24.038 8.80932C24.0618 8.803 24.0831 8.79846 24.1013 8.79515C24.1418 8.78937 24.1722 8.76334 24.1924 8.73035C24.1953 8.72564 24.198 8.72078 24.2005 8.71582C24.2205 8.66802 24.2492 8.59936 24.2835 8.51722C24.2899 8.50195 24.2964 8.48622 24.3032 8.47008C24.3047 8.46643 24.3062 8.46276 24.3078 8.45907C24.3078 8.45895 24.3079 8.45883 24.3079 8.4587C24.4061 8.22342 24.5396 7.90374 24.6504 7.64112C24.6662 7.6036 24.6816 7.56725 24.6963 7.53247C24.8252 7.2449 24.876 7.08004 24.8962 6.99885C24.9029 6.97179 24.9062 6.95402 24.9078 6.9441V5.95908C24.9078 5.88637 24.9607 5.82688 25.04 5.82687V5.82687L25.4235 5.80042Z" fill="#D9D9D9"/>
<path d="M24.5251 6.86033C24.5666 6.85115 24.6077 6.84212 24.6483 6.83324V6.91922C24.6375 6.96825 24.5971 7.11926 24.4595 7.42631L24.4584 7.42875L24.4573 7.43122C24.3392 7.70994 24.1804 8.09046 24.0681 8.35944L24.0679 8.35989L24.0599 8.37907C24.0318 8.44639 24.0069 8.50608 23.9866 8.55458C23.7696 8.60888 23.4061 8.76869 23.098 9.24062L22.3962 10.2933C22.3448 10.2967 22.2922 10.2997 22.238 10.3024C22.1058 10.309 21.9679 10.3548 21.8277 10.4315C20.846 10.9684 19.7498 13.0212 19.6862 13.7731C19.6817 13.8269 19.6728 13.8764 19.6601 13.9221C19.4694 14.6069 18.4235 14.421 18.4235 14.421C18.4235 14.421 16.1031 14.4607 15.7858 13.5947C15.5478 12.9451 14.8896 13.0728 14.5754 13.1772C14.4706 13.212 14.4041 13.2443 14.4041 13.2443L3.84656 16.7018C3.74739 16.7348 3.64823 16.748 3.54246 16.748L1.73108 16.7282C1.73108 16.7282 0.0254695 9.83306 0.170909 8.97364C0.316348 8.11423 0.845219 8.05473 0.845219 8.05473C0.845219 8.05473 11.773 7.7308 14.4702 7.4267C16.5923 7.18871 16.7179 7.58536 16.7179 7.58536C16.7179 7.58536 16.9652 8.14663 17.5932 8.54989C17.6717 8.6003 17.7571 8.63698 17.8464 8.66257C18.4716 8.84175 19.2896 8.47783 19.2896 8.47783L20.7506 7.77047C21.4308 7.39811 22.5908 7.05696 23.6713 6.79258L23.791 6.86648H24.4974L24.5251 6.86033Z" fill="#D9D9D9"/>
<path d="M23.9721 11.8531C23.9691 11.8505 23.9661 11.8479 23.9631 11.8453C24.0671 11.8242 24.1632 11.7615 24.2247 11.659L24.2262 11.6564L24.2277 11.6538C24.2301 11.6497 24.2325 11.6454 24.235 11.6411C24.5436 11.8781 25.0289 11.9975 25.5207 12.0282C26.048 12.0612 26.3709 12.0416 26.6033 11.9555C26.8237 11.8739 26.9806 11.725 27.1551 11.4445C27.2094 11.3576 27.223 11.25 27.1998 11.1213C27.1764 10.9913 27.1174 10.8523 27.0436 10.7202C26.9704 10.5893 26.8869 10.4725 26.8209 10.3879C26.7979 10.3583 26.7772 10.3329 26.7601 10.3125L24.8558 10.3985C25.0057 9.98757 25.1094 9.51397 25.0239 9.07L25.0212 9.05638L25.0188 9.04835C25.0185 9.04722 25.0182 9.04552 25.0178 9.04326C25.0162 9.03423 25.0135 9.01618 25.0122 8.98955C25.0098 8.93657 25.0128 8.84801 25.0419 8.72716C25.1 8.48664 25.265 8.10543 25.7194 7.61662L25.7287 7.60659L25.7369 7.59564C25.7833 7.53381 25.8218 7.44743 25.8218 7.34737V6.59356C25.9663 6.56608 26.0832 6.54465 26.1654 6.52984L26.2524 6.5143L26.2804 6.5094L28.9497 6.49723C28.9514 6.61216 28.9818 6.72897 29.045 6.82546C29.11 6.92451 29.2282 7.02449 29.3943 7.02449H33.3939C33.5595 7.02449 33.6762 6.92133 33.739 6.82792C33.8044 6.73063 33.8385 6.60975 33.8385 6.4873V6.47496L53.8373 6.38384C53.8413 6.38489 53.8488 6.38751 53.8589 6.39377C53.8826 6.4085 53.9634 6.47072 54.0224 6.69846L54.0733 6.89483L54.3214 6.89248C54.3302 6.96446 54.3367 7.04316 54.3404 7.12921C54.3933 8.18695 53.2034 8.17373 53.2034 8.17373C53.2034 8.17373 51.6109 8.28686 49.1921 8.4571L49.2434 8.77531C49.3029 9.1323 49.0583 9.47607 48.7013 9.53557C48.561 9.55895 48.4227 9.53535 48.303 9.47641L39.1072 10.4605L39.1408 10.7881L38.0233 10.9077L37.9038 9.79021L39.0212 9.67063L39.0509 9.9346L47.9395 8.98343L47.8703 8.55002C41.917 8.96806 32.5411 9.62 28.1283 9.89256C28.0623 10.0951 27.8043 10.8361 27.5356 11.3309C27.524 11.4291 27.4933 11.5271 27.4356 11.6195C27.2399 11.9339 27.033 12.1488 26.7181 12.2655C26.415 12.3777 26.0305 12.3912 25.5001 12.3581C24.96 12.3243 24.3598 12.1872 23.9721 11.8531Z" fill="#D9D9D9"/>
<path d="M25.0146 11.6973C25.0146 11.6973 24.7209 11.5409 24.4894 11.1945C24.5438 11.0943 24.6008 10.9844 24.6567 10.8677C24.7684 11.1539 24.9423 11.447 25.1997 11.5254C25.1997 11.5254 25.2526 11.6246 25.1997 11.6907C25.1468 11.7568 25.0146 11.6973 25.0146 11.6973Z" fill="#D9D9D9"/>
</svg>
