<svg width="81" height="17" viewBox="0 0 81 17" fill="none" xmlns="http://www.w3.org/2000/svg">
<path d="M71.0601 5.32734L80.9079 3.10986L76.6515 5.053L79.3812 5.67337L76.3277 6.57375L79.8438 8.15274L71.0601 6.57375L71.4722 6.44074L71.0601 6.06267L71.3308 5.67337L71.0601 5.32734Z" fill="#D9D9D9"/>
<path d="M29.7391 0.458984H30.4356C30.6255 0.458984 30.7794 0.612926 30.7794 0.802811V2.12856H33.3259V3.47505H28.0538V2.12856H29.3953V0.802811C29.3953 0.612926 29.5493 0.458984 29.7391 0.458984Z" fill="#D9D9D9"/>
<path d="M26.2931 2.12856H25.0581C25.0101 2.02544 24.9091 1.95145 24.7887 1.94266L21.0022 1.66665C20.8149 1.65301 20.6555 1.80122 20.6555 1.98893V3.61457C20.6555 3.80228 20.8149 3.95052 21.0022 3.93688L24.7887 3.66083C24.909 3.65205 25.01 3.57811 25.0581 3.47505H26.2931V2.12856Z" fill="#D9D9D9"/>
<path fill-rule="evenodd" clip-rule="evenodd" d="M26.1473 5.37707V5.46093H26.0994C26.106 5.48677 26.1095 5.51384 26.1095 5.54172V6.04489L28.383 6.00989C28.6146 6.00989 28.8086 6.20113 28.8086 6.43354V6.68592H32.3841V6.43354C32.3841 6.19962 32.5737 6.01004 32.8075 6.00989L52.0519 5.97319C52.3819 5.97256 52.6435 6.25117 52.6222 6.58033H66.6373L67.6556 6.80111H70.1736C70.352 6.80111 70.4967 6.65644 70.4967 6.47796V5.4039C70.4967 5.22542 70.352 5.08074 70.1736 5.08074H67.6556L66.6373 5.30147H38.0309L35.464 5.15912C35.4218 5.29136 35.2978 5.38709 35.1516 5.38709H33.261C33.1077 5.38709 32.979 5.28194 32.943 5.13986H28.4367C28.4007 5.28194 28.272 5.38709 28.1187 5.38709H26.2281C26.2002 5.38709 26.1732 5.38362 26.1473 5.37707ZM67.8349 6.28186C67.9907 6.28865 68.1196 6.18031 68.1196 6.05129L68.1195 5.84786C68.1194 5.71226 67.9974 5.6105 67.8416 5.6038C67.6857 5.59704 67.5568 5.70565 67.5569 5.83437L67.557 6.03789C67.557 6.1734 67.679 6.27513 67.8349 6.28186ZM69.0498 6.05129C69.0499 6.18031 68.921 6.28865 68.7651 6.28186C68.6092 6.27513 68.4873 6.1734 68.4872 6.03789L68.4871 5.83437C68.487 5.70565 68.616 5.59704 68.7718 5.6038C68.9277 5.6105 69.0496 5.71226 69.0497 5.84786L69.0498 6.05129ZM69.6954 6.28186C69.8512 6.28862 69.9801 6.18028 69.9801 6.05129L69.9799 5.8478C69.9798 5.71223 69.8579 5.61047 69.7021 5.60374C69.5462 5.59704 69.4172 5.70565 69.4174 5.83434L69.4175 6.03786C69.4175 6.1734 69.5395 6.27513 69.6954 6.28186Z" fill="#D9D9D9"/>
<path d="M35.1516 5.13986C35.1962 5.13986 35.2323 5.10371 35.2323 5.05907V4.42034C35.2323 4.37574 35.1962 4.33955 35.1516 4.33955H34.8394V1.73663H33.5731V4.33955H33.261C33.2321 4.33955 33.2068 4.35467 33.1925 4.37746C33.1871 4.38612 33.1832 4.39587 33.1814 4.40631C33.1806 4.41086 33.1802 4.41557 33.1802 4.42034V5.05907C33.1802 5.10371 33.2163 5.13986 33.261 5.13986H35.1516Z" fill="#D9D9D9"/>
<path d="M35.0866 2.12856V3.47505H36.2531L42.0887 4.34465H45.1967C45.3391 4.34465 45.4545 4.22922 45.4545 4.08683V1.51672C45.4545 1.37434 45.3391 1.2589 45.1967 1.2589H42.0887L36.2515 2.12856H35.0866Z" fill="#D9D9D9"/>
<path d="M26.1473 4.42034C26.1473 4.37574 26.1835 4.33955 26.2281 4.33955H26.5403V1.73663H27.8066V4.33955H28.1187C28.1633 4.33955 28.1995 4.37574 28.1995 4.42034V5.05907C28.1995 5.10371 28.1633 5.13986 28.1187 5.13986H26.2281C26.1835 5.13986 26.1473 5.10371 26.1473 5.05907V4.42034Z" fill="#D9D9D9"/>
<path d="M25.7814 5.46093H25.1548C25.1101 5.46093 25.074 5.49712 25.074 5.54172V7.67539L24.5522 9.04195C24.3436 9.16079 24.2053 9.2143 24.093 9.25776C23.7986 9.37162 23.6835 9.41613 22.9519 10.3883L22.9285 10.4195C22.9297 10.6564 23.0903 10.9247 23.3211 11.1278C23.4249 11.2192 23.543 11.2973 23.6671 11.3536C23.8568 11.4394 24.0608 11.474 24.25 11.4259L24.2592 11.4128C24.305 11.3472 24.3482 11.2847 24.3889 11.2251L24.4045 11.2022L24.4233 11.1745C24.4401 11.1496 24.4566 11.1252 24.4726 11.1013C24.6059 10.9024 24.7087 10.7384 24.7879 10.5996C24.8008 10.577 24.8131 10.555 24.8247 10.5337L24.8336 10.5174L24.841 10.5037L24.8531 10.4809L24.8605 10.4667C24.8802 10.4289 24.8978 10.3931 24.9136 10.3591C24.9577 10.2642 24.9876 10.183 25.0076 10.1092C25.0529 9.94161 25.0467 9.81238 25.0389 9.648C25.0331 9.52671 25.0264 9.38626 25.0388 9.1971L25.62 8.12309C25.779 7.82927 25.8622 7.50042 25.8622 7.16631V5.54172C25.8622 5.51574 25.8499 5.49262 25.8309 5.47783C25.8271 5.47488 25.823 5.47225 25.8187 5.46999C25.8155 5.46836 25.8123 5.46694 25.809 5.46573C25.8061 5.46471 25.8032 5.46383 25.8003 5.46314C25.7942 5.46172 25.7879 5.46093 25.7814 5.46093Z" fill="#D9D9D9"/>
<path d="M24.8268 6.3793C24.569 6.43794 24.3199 6.50563 24.0788 6.5803C23.2223 6.84551 22.43 7.22153 21.6328 7.62819C21.4905 7.70074 21.3482 7.77332 21.2052 7.84482C20.5757 8.17304 20.0041 8.47103 19.4619 8.65321C18.9278 8.83266 18.4223 8.89975 17.9179 8.77272C17.5687 8.68475 17.22 8.50368 16.8628 8.20231C16.5804 7.96414 16.0893 7.75193 15.7204 7.77755L2.84485 8.67506C2.6763 8.69326 2.52019 8.77351 2.4072 8.90074C2.28848 9.03443 2.22685 9.20944 2.2356 9.38804L2.58209 16.4585H4.04005L14.8664 13.0115C14.8908 13.0037 14.9147 12.9974 14.9382 12.9925C14.9966 12.9803 15.0523 12.9769 15.1051 12.9812C15.3701 13.0028 15.5638 13.2201 15.6848 13.5138C15.6947 13.5379 15.7053 13.5614 15.7166 13.5843C15.9318 14.0191 16.4002 14.2298 17.2108 14.2255C17.7228 14.2228 18.3713 14.1343 19.1788 13.9624C19.195 13.959 19.2096 13.9503 19.2208 13.9385C19.2324 13.9262 19.2403 13.9104 19.2429 13.8933C19.5846 11.5507 20.5745 10.6516 21.7742 10.3135C22.0656 10.2313 22.3657 10.1831 22.667 10.1549C22.7084 10.151 22.7499 10.1475 22.7915 10.1443L22.8285 10.1415C23.1466 9.7223 23.3503 9.47827 23.5118 9.32599C23.706 9.14284 23.8438 9.08906 24.0038 9.02719C24.0463 9.00978 24.0886 8.99242 24.1306 8.97453C24.2061 8.94242 24.2805 8.90853 24.3534 8.86942L24.8268 7.62979V6.3793Z" fill="#D9D9D9"/>
<path d="M23.5991 12.082C23.4617 11.9021 23.3907 11.6929 23.3537 11.4623C23.4425 11.5201 23.5389 11.5708 23.6401 11.6101C23.6699 11.6217 23.7001 11.6322 23.7307 11.6417C23.7618 11.7347 23.8027 11.8164 23.8561 11.8864C24.0296 12.1137 24.3582 12.269 25.0489 12.2943C25.4576 12.3117 25.7474 12.2839 25.9446 12.224C26.1418 12.164 26.2451 12.0809 26.3203 11.9651C26.4539 11.7593 26.4614 11.6915 26.5071 11.274L26.5071 11.2735L26.5164 11.1887L26.5263 11.1007C26.5263 10.8037 26.5086 10.5153 26.3139 10.2956L27.1937 10.2507C27.0284 10.5381 26.9829 10.839 26.9574 11.0497C26.8946 11.6061 26.8248 11.7839 26.5928 12.1411C26.4769 12.3197 26.2918 12.4562 26.0394 12.5329C25.7872 12.6097 25.466 12.6356 25.0375 12.6176C24.3008 12.5905 23.8503 12.4112 23.5991 12.082Z" fill="#D9D9D9"/>
<path d="M24.5732 11.3935C24.6656 11.5758 24.8119 11.7429 25.0197 11.9045C25.0775 11.9495 25.236 11.8573 25.1256 11.751C24.9022 11.536 24.799 11.3263 24.7663 11.1055C24.7082 11.1944 24.644 11.2901 24.5732 11.3935Z" fill="#D9D9D9"/>
<path d="M25.4537 10.092C25.3953 10.095 25.3315 10.0978 25.2638 10.1005C25.2998 9.92948 25.2931 9.78911 25.2859 9.63885L25.2858 9.6362L25.2857 9.6352L25.2855 9.63031C25.2839 9.59784 25.2824 9.56461 25.2812 9.53L25.2803 9.50127L25.2801 9.49146L25.2796 9.47187C25.2784 9.40983 25.2788 9.3425 25.2825 9.26627L25.8374 8.24076C26.016 7.91079 26.1095 7.54149 26.1095 7.16631V6.29215L28.3849 6.25711C28.4824 6.25711 28.5614 6.33609 28.5614 6.43354V6.75672C28.5614 6.78672 28.5688 6.815 28.5821 6.83977C28.6118 6.89533 28.6704 6.93315 28.7378 6.93315H32.4549C32.5081 6.93315 32.5557 6.90967 32.5881 6.87252C32.615 6.84152 32.6314 6.80102 32.6314 6.75672V6.43354C32.6314 6.33609 32.7103 6.25711 32.8078 6.25711L52.0524 6.22041C52.2396 6.22005 52.3879 6.37831 52.3755 6.56509L52.2578 8.03123C52.245 8.22223 52.1625 8.40198 52.026 8.53627C51.8896 8.6706 51.7088 8.75015 51.5177 8.75993L25.4537 10.092Z" fill="#D9D9D9"/>
<path d="M24.8268 6.12592V5.54172C24.8268 5.51384 24.8302 5.48677 24.8368 5.46093H24.6775C24.6573 5.46093 24.6379 5.46848 24.623 5.48206L24.4026 5.68332C24.3878 5.6969 24.3683 5.70445 24.3482 5.70445H23.4682C23.4236 5.70445 23.3874 5.7406 23.3874 5.78524V6.49951C23.3874 6.51825 23.3938 6.53551 23.4045 6.54921C23.8481 6.38422 24.3208 6.23807 24.8268 6.12592Z" fill="#D9D9D9"/>
<path fill-rule="evenodd" clip-rule="evenodd" d="M47.369 9.21949L50.8748 9.04032L50.9948 9.6097L56.0925 9.37986C57.0075 9.35481 57.297 9.82415 57.5164 10.1799L57.5166 10.1803L57.5182 10.183C57.5526 10.2387 57.5852 10.2913 57.6181 10.3389C57.6309 10.3573 57.6438 10.375 57.6568 10.3917C57.5757 10.4019 57.5105 10.4147 57.4573 10.4273C57.4136 10.4377 57.378 10.4479 57.3483 10.4564L57.3467 10.4569L57.3291 10.4619L57.3245 10.4632L58.6514 10.4234V9.63559C58.6534 9.63194 58.6584 9.62392 58.6701 9.61212C58.6921 9.58987 58.7279 9.56489 58.7752 9.54533C58.8689 9.50661 58.9844 9.49801 59.0891 9.54554L59.3223 9.66372C59.3223 9.66372 59.4917 9.63399 59.491 9.64426C59.4909 9.64637 59.4853 9.64914 59.4764 9.65228C59.4689 9.65494 59.459 9.65787 59.448 9.66091C59.4376 9.66378 59.4263 9.66674 59.4151 9.66967L59.4143 9.66985L59.4141 9.66994L59.4112 9.67066L59.3907 9.67612L59.3796 9.6792C59.3718 9.68141 59.365 9.68346 59.36 9.6853C59.3556 9.6869 59.3525 9.68832 59.3511 9.68952L59.9944 10.0553C60.1507 9.93986 60.1445 10.0091 60.1377 10.0837C60.1369 10.0929 60.136 10.1022 60.1355 10.1112C60.1351 10.1174 60.1349 10.1235 60.1349 10.1293V10.3789L60.291 10.3742L60.294 10.4613L61.4057 10.426L61.3983 10.2666L61.4073 10.165C61.4177 10.123 61.4372 10.0839 61.4717 10.0505C61.5296 9.99367 61.6135 9.96904 61.7119 9.96273L62.8546 9.88762L62.943 9.88161L62.9857 9.80396C62.9857 9.80396 63.055 9.67395 63.0569 9.67395C63.0575 9.67395 63.0898 9.71822 63.1348 9.78036C63.1847 9.84908 63.2502 9.93971 63.3056 10.0165L63.3313 10.0148L63.4197 10.0088L63.4624 9.93117C63.4624 9.93117 63.5317 9.80116 63.5336 9.80116C63.5345 9.80116 63.6128 9.90923 63.6963 10.0247L63.8946 10.2994C64.0977 10.544 64.0796 10.8309 63.9275 11.1212C63.9275 11.1212 63.5809 11.6908 63.5767 11.6908C63.5755 11.6908 63.5564 11.6588 63.5301 11.6137C63.5132 11.5846 63.4934 11.5501 63.4733 11.5153C63.4484 11.4719 63.4233 11.4279 63.4034 11.393L63.3638 11.3234L63.2462 11.3291C63.1703 11.4529 63.1019 11.5636 63.1001 11.5636C63.0977 11.5636 63.0292 11.445 62.9705 11.3425L62.2059 11.3797L62.1917 11.3796C62.1848 11.3795 62.1779 11.3794 62.1711 11.3792L62.1577 11.3787C62.1388 11.3778 62.1203 11.3763 62.1025 11.3737C62.0634 11.3679 62.0274 11.3567 61.9972 11.3358C61.9622 11.3111 61.9417 11.2783 61.9289 11.2428L61.7292 11.2525C61.6513 11.2525 61.5759 11.2471 61.5206 11.2086C61.4592 11.1654 61.4422 11.0969 61.4337 11.0335L61.4281 10.9128L60.3095 10.9484L60.3095 11.0148L51.1513 11.3639L51.1045 11.5483L51.1026 11.5546L51.1017 11.558L51.0996 11.5659L51.098 11.5721L51.0948 11.5854C51.0799 11.648 51.0682 11.6973 50.9142 11.7525L49.8188 12.0152L49.8358 12.4506L50.342 12.4534L50.3383 12.7885L49.0061 12.7943L48.9895 12.4789L49.4907 12.4701L49.5011 12.0802L49.2849 12.1379C49.1647 12.1695 49.1095 12.1588 49.0481 12.1054C49.0312 12.0921 49.0173 12.0735 49.0035 12.0549L49.0033 12.0547C48.9694 12.0089 48.9354 11.9631 48.8548 11.9946C48.7164 12.0616 48.7877 12.2976 48.8461 12.3938C48.9497 12.5306 48.9057 12.5799 48.8458 12.6471C48.6466 12.871 48.2451 12.8324 48.0294 12.6709C47.9436 12.5869 47.8899 12.5059 47.9433 12.4349L48.2787 11.8308L48.2806 11.8298C48.0964 11.9124 47.898 11.9538 47.6923 11.9578L47.3007 12.656L46.353 12.2644C46.1469 12.1701 46.1559 12.052 46.1696 11.8702L46.1714 11.8462C46.1722 11.8364 46.1729 11.8265 46.1735 11.8164L46.1742 11.8053L46.1748 11.7962L46.1752 11.7893L46.1755 11.7831C46.1766 11.763 46.1773 11.7422 46.1776 11.7206L46.1994 11.4097C46.0137 11.2706 45.8358 11.1078 45.6711 10.9243L44.8727 9.90071C44.8361 9.85527 44.8573 9.83948 44.9024 9.84099C45.1688 9.84356 45.4396 9.84579 45.7134 9.84784L47.435 9.77022L47.369 9.21949ZM51.2132 10.6464L57.2102 10.4666C57.191 10.454 57.1738 10.4297 57.1519 10.3887C57.0329 10.1655 56.7452 9.942 56.0953 9.97984L51.1319 10.2602L51.2132 10.6464Z" fill="#D9D9D9"/>
<path d="M27.6965 10.225L33.2145 9.94293C33.1595 10.0008 33.0832 10.0385 32.9976 10.043L27.9378 10.3147C27.8444 10.3197 27.7586 10.2847 27.6965 10.225Z" fill="#D9D9D9"/>
<path d="M0.965348 9.1272C0.955571 8.95099 1.08902 8.79952 1.26508 8.787L2.23941 8.71789C2.23364 8.72401 2.22797 8.73026 2.22235 8.73657C2.06066 8.91864 1.97676 9.15693 1.98868 9.40014L2.33459 16.4589L1.67742 16.459C1.50588 16.459 1.36425 16.325 1.35478 16.1537L0.965348 9.1272Z" fill="#D9D9D9"/>
</svg>
