<svg width="58" height="17" viewBox="0 0 58 17" fill="none" xmlns="http://www.w3.org/2000/svg">
<path fill-rule="evenodd" clip-rule="evenodd" d="M13.7712 0.78125C13.7593 0.78125 13.7496 0.790886 13.7496 0.802793V1.12569C13.6152 1.11441 13.5417 1.16491 13.4664 1.28213C13.2805 1.57154 13.1341 1.82299 12.9968 2.05866C12.8074 2.384 12.635 2.67997 12.3989 3.00699H12.1427C12.0015 2.90996 11.9016 2.89195 11.7396 2.89195L11.2649 2.89186V6.19927C11.2649 6.20844 11.2644 6.21749 11.2632 6.22641C11.2618 6.23718 11.2596 6.2477 11.2564 6.25788C11.2532 6.26832 11.249 6.27833 11.2438 6.28793C11.2475 6.28826 11.2512 6.28843 11.2552 6.28843L11.4464 6.28851V6.28965H11.5342V6.33408L11.5528 6.34957C11.5833 6.37515 11.6118 6.39901 11.6359 6.39901H19.1655L21.8614 6.21143C21.9892 6.20646 22.0481 6.21867 22.0697 6.29609C22.0714 6.30227 22.0729 6.30888 22.0741 6.31591C22.0755 6.32378 22.0767 6.33215 22.0775 6.34111C22.0792 6.35819 22.08 6.37742 22.08 6.39901L22.1097 7.35045C22.1188 7.4057 22.1861 7.43204 22.2562 7.39088L23.5167 6.7384C23.5857 6.69397 23.6171 6.65042 23.6171 6.57927L23.6172 6.40974C23.6172 6.38929 23.6224 6.3688 23.6321 6.35012C23.6613 6.29369 23.7313 6.25035 23.824 6.25035H24.0921C24.093 6.23243 24.0948 6.21442 24.0974 6.19653L24.1063 6.13552L24.1338 6.11053L24.1339 6.10342V2.94635C24.1339 2.93798 24.1343 2.92969 24.135 2.92153C24.1356 2.91341 24.1366 2.90537 24.138 2.89746C23.904 2.87508 23.5524 2.91964 23.372 3.00699H22.3282C22.0986 2.43584 21.6847 1.70307 21.6847 1.70307C21.5766 1.49853 21.4844 1.44691 21.3328 1.44547L13.8594 1.13032V0.802793C13.8594 0.790886 13.8498 0.78125 13.8379 0.78125H13.7712ZM21.38 2.54814C21.4548 2.74346 21.4144 2.87297 21.2615 3.00699H13.887C13.7189 2.75667 13.7545 2.5401 13.9408 2.39107C14.0979 2.26543 14.1607 2.20572 14.2675 2.0141C14.3356 1.89199 14.4686 1.87588 14.5911 1.87588H20.8239C21.0085 1.87706 21.0819 1.92944 21.1789 2.08319L21.38 2.54814Z" fill="#D9D9D9"/>
<path d="M24.344 6.47327C24.2903 6.47327 24.2497 6.34671 24.268 6.22136C24.2704 6.21917 24.2727 6.21682 24.2749 6.21438C24.2786 6.21017 24.282 6.20558 24.285 6.20062C24.2894 6.19351 24.293 6.18559 24.296 6.17688C24.3029 6.15669 24.3062 6.13224 24.3062 6.10342V2.94635C24.3062 2.94261 24.3064 2.93895 24.3068 2.93529C24.3068 2.92502 24.3087 2.91475 24.3122 2.90482C24.3141 2.89952 24.3165 2.89435 24.3192 2.8893C24.3301 2.8694 24.3476 2.85189 24.3691 2.84028C24.3864 2.83094 24.4063 2.82538 24.4276 2.82547L33.1305 2.85749C33.289 3.96003 33.2783 4.93612 33.1305 6.13485L24.344 6.47327Z" fill="#D9D9D9"/>
<path fill-rule="evenodd" clip-rule="evenodd" d="M33.0858 2.68497L33.2799 2.68569L33.301 2.83296C33.4621 3.95338 33.4508 4.94509 33.3015 6.15593L33.2989 6.17747H34.2954V4.44862H34.786C34.9764 4.44862 35.1307 4.29428 35.1307 4.10393V4.03677H35.2195V4.09535C35.2195 4.12038 35.2408 4.1402 35.2659 4.13839L35.4379 4.12585C35.4605 4.12417 35.4779 4.1054 35.4779 4.08281V3.6431C35.4779 3.62068 35.4607 3.60195 35.4383 3.6001L35.2663 3.5858C35.2411 3.58369 35.2195 3.60351 35.2195 3.6288V3.75953H35.1307V3.53901C35.1307 3.34865 34.9764 3.19431 34.786 3.19431H34.2533C34.2389 3.1811 34.2214 3.17113 34.2021 3.16553C34.1949 3.16347 34.1875 3.162 34.1799 3.1612L34.1747 3.16078C34.1718 3.16057 34.169 3.16048 34.1661 3.16048H34.0742C34.0748 2.69023 34.0748 2.15194 34.0028 1.91741C34.0513 1.91741 34.0818 1.89965 34.0818 1.84356C34.0848 1.52656 34.0701 1.3755 34.0182 1.26534C33.9662 1.15514 33.9163 1.12266 33.8245 1.12266L33.5214 1.09973L33.3303 0.96218H33.1571C33.1117 1.06161 33.0858 1.13798 33.0858 1.21439V1.75954C33.0858 1.86906 33.1688 1.90424 33.2998 1.9557L33.0858 2.55942V2.68497ZM33.417 2.51612H33.7685V2.74535H33.417V2.51612ZM33.7685 2.84996H33.417V3.04343H33.7685V2.84996Z" fill="#D9D9D9"/>
<path d="M34.4678 4.8813V5.80934H42.1012V4.8813H34.4678Z" fill="#D9D9D9"/>
<path fill-rule="evenodd" clip-rule="evenodd" d="M19.0017 6.57131L11.6359 6.57135C11.5951 6.57135 11.5619 6.55945 11.5403 6.54939C11.5184 6.53921 11.5001 6.52696 11.487 6.51745C11.4812 6.51329 11.4748 6.50837 11.4684 6.50323C11.4608 6.49722 11.4532 6.49095 11.4464 6.48531V6.70823C11.4464 6.82996 11.5416 6.90216 11.7493 6.96625L13.365 7.39631C13.4632 7.43132 13.6312 7.4912 13.6987 7.63771C13.7185 7.68079 13.7304 7.73162 13.7304 7.79192C13.7304 7.96418 13.7245 8.06714 13.6577 8.16085L11.76 10.9145C11.6245 11.1462 11.6054 11.2763 11.8528 11.3665C12.5028 11.6035 12.8572 11.6787 13.5759 11.8074C13.7327 11.8355 13.8129 11.8418 13.9244 11.7302C14.036 11.6186 14.0092 11.4953 13.9244 11.3897C13.8237 11.2641 13.8713 11.1806 13.9101 11.1125L15.0794 9.11566C15.1245 9.02784 15.204 8.96898 15.2859 8.96898H15.8397C15.8656 8.96898 15.8976 8.94979 15.9077 8.92109H17.2769C17.2788 8.92715 17.2814 8.93258 17.2846 8.93742C17.2894 8.94499 17.2956 8.95113 17.3023 8.95606C17.3177 8.96738 17.336 8.97196 17.3482 8.97196H17.8989L18.2155 8.85154L18.2372 8.84325L19.103 8.56049L19.0017 6.57131ZM17.1073 8.78068H16.0317C15.9927 8.78068 15.9561 8.7766 15.922 8.76882L15.9152 8.76718L15.9075 8.76524C15.6879 8.70717 15.5738 8.49246 15.5738 8.23642C15.5738 7.97205 15.7623 7.75165 16.0123 7.70246C15.9034 8.10888 15.9532 8.33033 16.2585 8.69501C16.2655 8.7033 16.2751 8.70722 16.2853 8.70814C16.2908 8.70865 16.2964 8.70827 16.3018 8.7073C16.3102 8.70574 16.3182 8.70259 16.3242 8.69876C16.3301 8.69501 16.3443 8.67961 16.3331 8.65651C16.1522 8.2822 16.1252 8.0703 16.3838 7.6922H17.0209C17.3215 7.6922 17.5652 7.93586 17.5652 8.23642C17.5652 8.47419 17.4667 8.67633 17.2769 8.75047C17.2267 8.77008 17.1701 8.78068 17.1073 8.78068Z" fill="#D9D9D9"/>
<path d="M19.1743 6.57114L21.9074 6.38281L21.9364 7.34094C21.9377 7.44466 22.0009 7.52953 22.0908 7.56508C22.1032 7.57001 22.1159 7.57388 22.1285 7.57678C22.1739 8.10421 22.2275 8.60379 22.2907 9.08755L22.3013 9.16779L22.3093 9.2272C22.3636 9.62899 22.4248 10.0205 22.4936 10.4088C22.5024 10.4585 22.5113 10.5081 22.5203 10.5576C22.5802 10.8855 22.6455 11.2117 22.7169 11.5405C22.7297 11.5995 22.7427 11.6586 22.7559 11.7177C22.8371 12.0821 22.9258 12.4505 23.0225 12.8287L23.0426 12.9066L23.0623 12.983C23.138 13.2743 23.2185 13.5718 23.3041 13.878C23.3224 13.9435 23.3409 14.0093 23.3596 14.0756C23.4963 14.5585 23.6455 15.064 23.8083 15.6016L23.8536 15.7508C23.8858 15.8661 23.8693 15.8982 23.8034 15.9217L20.9514 16.7812L20.904 16.6322L20.8996 16.6182C20.5389 15.4808 20.2536 14.5102 20.0256 13.5766L20.0087 13.5068C19.9998 13.4701 19.991 13.4335 19.9823 13.3969C19.8934 13.0224 19.8137 12.6525 19.7418 12.2788C19.7302 12.2181 19.7187 12.1573 19.7075 12.0964C19.6385 11.723 19.5773 11.3445 19.5226 10.9524C19.5159 10.9049 19.5094 10.8573 19.503 10.8094C19.4527 10.4354 19.4082 10.0486 19.3683 9.64153C19.3629 9.58578 19.3573 9.52725 19.352 9.47074L19.3419 9.36042L19.3295 9.22059C19.3214 9.1287 19.3136 9.03575 19.306 8.94163C19.2945 8.79882 19.2834 8.65336 19.2728 8.50504L19.1743 6.57114Z" fill="#D9D9D9"/>
<path d="M0.825515 2.68973C0.821665 2.66006 0.827325 2.64904 0.830354 2.64462C0.831974 2.64231 0.834877 2.63894 0.840221 2.63503C0.847711 2.6296 0.859934 2.62304 0.880005 2.61668C0.952756 2.59362 1.0793 2.58735 1.27984 2.59261L11.0926 2.97476L11.0925 6.20209L7.83179 6.20222C7.49233 6.21147 7.23066 6.23954 6.97948 6.30278C6.7283 6.36606 6.49128 6.46355 6.20043 6.608L3.60963 7.8953C3.21415 8.08351 3.01622 8.13043 2.69888 8.13766H1.4131C1.30959 8.13552 1.22787 8.13139 1.16318 8.12247C1.09756 8.11339 1.05692 8.10022 1.03133 8.08477C1.00912 8.07135 0.995884 8.05494 0.987427 8.02856C0.97777 7.99847 0.973815 7.95312 0.979853 7.88302C1.15062 5.8996 1.09344 4.75141 0.825515 2.68973Z" fill="#D9D9D9"/>
<path d="M42.6737 5.07456L42.4062 4.84948L46.1116 3.53906L44.5177 4.76929L47.6879 5.40069L45.0221 6.21038L46.6073 7.24792L42.4062 5.88988L42.6261 5.64529L42.4062 5.31916L42.6737 5.07456Z" fill="#D9D9D9"/>
<rect x="42.1011" y="5.125" width="15.0086" height="0.438945" fill="url(#paint0_linear_1324_29)"/>
<defs>
<linearGradient id="paint0_linear_1324_29" x1="57.1097" y1="5.34447" x2="42.1011" y2="5.34447" gradientUnits="userSpaceOnUse">
<stop stop-color="#D9D9D9"/>
<stop offset="1" stop-color="#D9D9D9" stop-opacity="0"/>
</linearGradient>
</defs>
</svg>
