<svg xmlns="http://www.w3.org/2000/svg" width="89.509" height="16" fill="none"><path fill="#d9d9d9" d="M37.515 6.513v.473h.089v.256h-.089v1.693h.092v.23h-.092v.467h.093v.614h26.239v.07h1.165v-4.61h-1.153v.085H37.604v.722zM37.273 8l.006 2.444-10.792.107c-.167-.32-.244-.351-.612-.352h-.609V8.393c-.005-.148.032-.392.389-.392z" style="stroke-width:.999918"/><path fill="#d9d9d9" d="M13.564 6.382h23.718v1.383H25.748c-.362-.008-.723.093-.718.715v1.704l-8.192-.033c-.287.006-.452.086-.432.354l.056.848-6.372.86-.586-.024c-.27-1.49-2.985-.971-3.823 1.408-.194.46-.329.439-.708.44H3.039c-.51-1.562-.84-3.388-.832-4.998h7.457c.434.004.689-.28.693-.609l.009-.584c0-.108.035-.149.165-.152h2.51c.245.001.526-.14.532-.583z" style="stroke-width:.999918"/><path fill="#d9d9d9" d="M2.047 8.808h7.61c.33.004.467-.16.464-.421l.013-.69c.003-.167.133-.232.284-.233h2.606c.216.002.315-.1.315-.361v-.895l-10.588-.01c-.468-.003-.71.366-.708.645Z" style="stroke-width:.999918"/><path fill="#d9d9d9" d="M1.814 6.726H.738c-.393 0-.435.276-.375.446.992 2.207.71 4.45-.324 6.715-.129.267.057.47.607.39l2.144-.23c-.638-1.87-.81-3.612-.82-5.006h-.159zm18.359 3.668 3.42.023v1.35h2.098c.58-.012.8-.162.788-.986h.47c-.003.898-.081 1.415-1.248 1.454h-2.108c-.305 0-.434.129-.48.424l-.582 2.902c-.096.372-.213.495-.603.417l-2.42-.542c-.294-.067-.408-.203-.234-.585l1.349-3.217c.185-.646.06-.969-.45-1.24" style="stroke-width:.999918"/><path fill="#d9d9d9" d="M24.126 10.413h.51c-.15.338-.182.729-.13 1.157.035.207-.165.228-.25.075-.103-.223-.208-.464-.13-1.232m-14.019 2.034 6.044-.823.497 3.459-6.27.87c.038-.786.027-1.587-.07-2.208zm4.32-6.297h4.488v-.18H16.7v-.277h-.696l.032-.122h1.43v-.665h-1.698v-.363h-.592v.824h-.61l-.14.342zm19.418 0h3.05v-.498H33.85zM19.617 1.844l-.002 4.305h7.908V1.847H25.58v2.655h-3.927V1.844ZM24.832 4.8a.532.532 0 1 1 0 1.063.532.532 0 0 1 0-1.063m-1.189.001a.531.531 0 1 1 0 1.063.531.531 0 0 1 0-1.063m-1.263.025a.532.532 0 1 1 0 1.063.532.532 0 0 1 0-1.063" style="stroke-width:.999918"/><path fill="#d9d9d9" d="M23.208.633v.263h-.185v1.455h-1.137V4.21h.97v.06H25.2v-.046h.148v-1.9h-.314V.898h-.183v-.26ZM13.037.988l-.14.334 1.911.801v2.299h2.896l.38-.09h.53l.109.061h.41l.254-.144v-1.94l-.253-.134h-.409l-.116.057h-.52l-.385-.073h-1.996l-.52-.333h-.191Zm14.722 1.309h.112l2.327-.677h2.622l.583-.374h.164L36.507 0l.137.323-2.865 1.217v3.409h-3.583l-2.321-.677h-.116z" style="stroke-width:.999918"/><path fill="url(#a)" d="M65.875 7.128H89.51v1.573H65.875Z" style="fill:url(#a);stroke-width:.999918"/><defs><linearGradient id="a" x1="90.345" x2="66.71" y1="8.181" y2="8.181" gradientTransform="translate(-.829 -.266)scale(.99992)" gradientUnits="userSpaceOnUse"><stop stop-color="#D9D9D9"/><stop offset="1" stop-color="#D9D9D9" stop-opacity="0"/></linearGradient></defs></svg>