<?xml version="1.0" encoding="UTF-8" standalone="no"?>
<svg
   width="89.508667"
   height="16.000002"
   viewBox="0 0 89.508667 16.000002"
   fill="none"
   version="1.1"
   id="svg16"
   sodipodi:docname="vks_killfeed.svg"
   inkscape:version="1.4 (e7c3feb1, 2024-10-09)"
   xmlns:inkscape="http://www.inkscape.org/namespaces/inkscape"
   xmlns:sodipodi="http://sodipodi.sourceforge.net/DTD/sodipodi-0.dtd"
   xmlns="http://www.w3.org/2000/svg"
   xmlns:svg="http://www.w3.org/2000/svg">
  <sodipodi:namedview
     id="namedview16"
     pagecolor="#ffffff"
     bordercolor="#000000"
     borderopacity="0.25"
     inkscape:showpageshadow="2"
     inkscape:pageopacity="0.0"
     inkscape:pagecheckerboard="0"
     inkscape:deskcolor="#d1d1d1"
     inkscape:zoom="2.8235294"
     inkscape:cx="44.625"
     inkscape:cy="7.96875"
     inkscape:window-width="1472"
     inkscape:window-height="812"
     inkscape:window-x="0"
     inkscape:window-y="37"
     inkscape:window-maximized="1"
     inkscape:current-layer="svg16" />
  <path
     d="m 37.515218,6.5127521 v 0.4731513 h 0.08869 v 0.2563891 h -0.08889 V 8.934504 h 0.09229 v 0.2314411 h -0.09229 v 0.4663518 h 0.09299 v 0.6140401 h 26.238853 v 0.07009 h 1.165105 V 5.7065681 H 63.85886 v 0.084603 H 37.60441 v 0.721571 z"
     fill="#d9d9d9"
     id="path1"
     style="stroke-width:0.999918" />
  <path
     d="m 37.273337,7.9993405 0.006,2.4450795 -10.792117,0.106392 C 26.319834,10.230738 26.24254,10.19994 25.87527,10.199241 l -0.60885,-1e-4 V 8.3933583 c -0.0053,-0.1485279 0.0318,-0.3923979 0.388368,-0.3926679 z"
     fill="#d9d9d9"
     id="path2"
     style="stroke-width:0.999918" />
  <path
     d="m 13.564077,6.3822928 h 23.71836 V 7.7651197 H 25.74808 c -0.36247,-0.0079 -0.72294,0.092552 -0.717941,0.7144915 v 1.7041308 l -8.19183,-0.0332 c -0.287176,0.0063 -0.452263,0.08609 -0.432064,0.35487 l 0.05609,0.847231 -6.371979,0.85943 -0.5862522,-0.023 C 9.2333318,10.6994 6.5185035,11.217757 5.681122,13.597163 5.4872579,14.056125 5.3520189,14.035827 4.9728499,14.037127 H 3.0389882 C 2.5285699,12.475154 2.1991169,10.648904 2.2074962,9.0385455 H 9.6642958 C 10.097561,9.0431255 10.35254,8.7580684 10.35744,8.4300353 l 0.0086,-0.5837323 c -7e-4,-0.1079811 0.0347,-0.1492177 0.165186,-0.1522675 l 2.509795,8.799e-4 c 0.24518,2.2e-4 0.525857,-0.1410184 0.532156,-0.5843422 z"
     fill="#d9d9d9"
     id="path3"
     style="stroke-width:0.999918" />
  <path
     d="m 2.0469193,8.8082343 h 7.6109775 c 0.328373,0.00358 0.4658622,-0.1607268 0.4633622,-0.4216355 l 0.0128,-0.6891236 c 0.0027,-0.1676663 0.132789,-0.232581 0.284077,-0.2338808 l 2.605886,6.699e-4 c 0.215983,0.00154 0.314775,-0.1011817 0.315375,-0.3614004 V 6.2084071 L 2.7513017,6.1987378 C 2.28287,6.1949382 2.0414598,6.563828 2.0432996,6.8429551 Z"
     fill="#d9d9d9"
     id="path4"
     style="stroke-width:0.999918" />
  <path
     d="M 1.8136484,6.7260147 H 0.73793638 c -0.3931178,6e-5 -0.4348044,0.2760174 -0.3746793,0.4459635 0.99201882,2.2067095 0.70901202,4.4502458 -0.32392352,6.7153608 -0.12933842,0.266878 0.0570973,0.469561 0.60675032,0.389168 L 2.7902485,14.046826 C 2.1520307,12.176779 1.9799348,10.435021 1.9707756,9.0405753 h -0.159547 z"
     fill="#d9d9d9"
     id="path5"
     style="stroke-width:0.999918" />
  <path
     d="m 20.172837,10.393725 3.42062,0.0232 v 1.349689 h 2.097728 c 0.580353,-0.0115 0.800135,-0.161386 0.787736,-0.985119 h 0.470561 c -0.0031,0.897326 -0.08179,1.414684 -1.248798,1.453081 h -2.107227 c -0.305675,7e-4 -0.433965,0.129089 -0.480861,0.424065 l -0.581152,2.902163 c -0.09689,0.372569 -0.213483,0.494759 -0.603351,0.416766 l -2.420602,-0.541156 c -0.293576,-0.06749 -0.407267,-0.203483 -0.233981,-0.584952 l 1.34929,-3.217737 c 0.184785,-0.645847 0.06029,-0.968521 -0.449963,-1.239998 z"
     fill="#d9d9d9"
     id="path6"
     style="stroke-width:0.999918" />
  <path
     d="m 24.125713,10.413223 h 0.510958 c -0.150387,0.338272 -0.182685,0.72854 -0.129789,1.156305 0.0338,0.206983 -0.165986,0.228382 -0.251379,0.07499 -0.102392,-0.222382 -0.207883,-0.463162 -0.12979,-1.231299 z"
     fill="#d9d9d9"
     id="path7"
     style="stroke-width:0.999918" />
  <path
     d="m 10.10656,12.446757 6.044206,-0.822733 0.497259,3.459017 -6.270887,0.870229 c 0.0387,-0.786036 0.0278,-1.58737 -0.06939,-2.20842 z"
     fill="#d9d9d9"
     id="path8"
     style="stroke-width:0.999918" />
  <path
     d="m 14.426907,6.1496119 h 4.488332 V 5.9704465 H 16.699421 V 5.6925593 h -0.696543 l 0.0325,-0.1212701 h 1.430083 V 4.9064136 H 15.766997 V 4.5425933 h -0.592352 v 0.8245326 h -0.60875 l -0.140788,0.341882 z"
     fill="#d9d9d9"
     id="path9"
     style="stroke-width:0.999918" />
  <path
     d="m 33.844918,6.1508818 h 3.05085 V 5.6518826 h -3.04575 z"
     fill="#d9d9d9"
     id="path10"
     style="stroke-width:0.999918" />
  <path
     d="m 19.617482,1.8436042 -0.0029,4.3054777 h 7.908153 V 1.8472539 H 25.581194 V 4.5018467 H 21.654115 V 1.8436042 Z m 5.214573,2.9560181 c 0.06979,-1e-5 0.138889,0.013729 0.203384,0.040427 0.06449,0.026708 0.12309,0.065855 0.172386,0.1152006 0.0494,0.049356 0.08849,0.1079511 0.11519,0.1724259 0.0267,0.064485 0.0405,0.133599 0.0405,0.2033933 0,0.069784 -0.0138,0.1388787 -0.0405,0.2033434 -0.0267,0.064475 -0.06589,0.1230499 -0.11519,0.1723859 -0.0494,0.049346 -0.107992,0.088483 -0.172386,0.1151806 -0.0645,0.026688 -0.133589,0.040427 -0.203384,0.040417 -0.140888,-1e-5 -0.276077,-0.055995 -0.375669,-0.1556373 -0.09969,-0.099642 -0.155687,-0.2347808 -0.155687,-0.3756893 0,-0.069784 0.0137,-0.1388886 0.0404,-0.2033633 0.0267,-0.064475 0.0659,-0.12306 0.115191,-0.1724059 0.0494,-0.049356 0.107891,-0.088503 0.172386,-0.1152106 0.0645,-0.026708 0.133589,-0.040457 0.203383,-0.040467 z m -1.189102,0.00155 c 0.06979,0 0.138888,0.013749 0.203383,0.040467 0.06449,0.026708 0.12309,0.065855 0.172386,0.1152005 0.0494,0.049356 0.08849,0.1079412 0.11519,0.1724159 0.0267,0.064475 0.0404,0.1335791 0.0404,0.2033534 0,0.1409185 -0.056,0.2760574 -0.155587,0.3757093 -0.09969,0.099642 -0.234781,0.1556172 -0.375769,0.1556272 -0.06969,10e-6 -0.138889,-0.013729 -0.203284,-0.040427 -0.06449,-0.026688 -0.12309,-0.065825 -0.172486,-0.1151705 -0.0493,-0.049336 -0.08849,-0.1079112 -0.11519,-0.1723859 -0.0267,-0.064465 -0.0404,-0.1335691 -0.0404,-0.2033534 -10e-5,-0.069784 0.0137,-0.1388986 0.0404,-0.2033834 0.0267,-0.064475 0.06579,-0.1230699 0.11519,-0.1724258 0.0494,-0.049346 0.107992,-0.088493 0.172386,-0.1152006 0.0645,-0.026698 0.133589,-0.040437 0.203384,-0.040427 z m -1.262697,0.024568 c 0.06979,0 0.138889,0.013759 0.203383,0.040467 0.0644,0.026708 0.12299,0.065855 0.172386,0.1152005 0.0493,0.049356 0.08849,0.1079412 0.115191,0.1724159 0.0266,0.064475 0.0404,0.1335791 0.0404,0.2033634 0,0.1409085 -0.05599,0.2760474 -0.155687,0.3756893 -0.09959,0.099642 -0.234781,0.1556272 -0.375669,0.1556372 -0.140889,-10e-6 -0.276077,-0.055995 -0.375669,-0.1556372 -0.09969,-0.099642 -0.155688,-0.2347808 -0.155688,-0.3756893 0,-0.069784 0.0138,-0.1388886 0.0405,-0.2033634 0.0267,-0.064475 0.0658,-0.1230599 0.115091,-0.1724159 0.0494,-0.049346 0.107991,-0.088493 0.172386,-0.1152005 0.06449,-0.026708 0.133589,-0.040467 0.203383,-0.040467 z"
     fill="#d9d9d9"
     id="path11"
     style="stroke-width:0.999918" />
  <path
     d="M 23.207688,0.63276123 V 0.8960217 h -0.184585 v 1.4552709 h -1.137207 v 1.8574881 h 0.970821 v 0.060335 h 2.341908 v -0.045706 h 0.148088 V 2.3238049 H 25.033439 V 0.8966016 H 24.849854 V 0.6380558 Z"
     fill="#d9d9d9"
     id="path12"
     style="stroke-width:0.999918" />
  <path
     d="m 13.03702,0.9882041 -0.139588,0.3335228 1.910643,0.8015144 v 2.2985119 h 2.895764 l 0.380068,-0.090493 h 0.530057 l 0.108591,0.062055 h 0.411067 L 19.387001,4.2485274 V 2.3093961 l -0.253379,-0.134449 h -0.408467 l -0.116391,0.056885 H 18.089107 L 17.703839,2.1594383 H 15.707802 L 15.187644,1.8260256 H 14.99656 Z"
     fill="#d9d9d9"
     id="path13"
     style="stroke-width:0.999918" />
  <path
     d="m 27.758916,2.297227 h 0.112191 l 2.326909,-0.6774045 h 2.621786 L 33.402854,1.246213 h 0.164087 L 36.5067,0 36.643789,0.32318956 33.779023,1.539669 v 3.4090011 h -3.582907 l -2.32141,-0.6770846 h -0.11579 z"
     fill="#d9d9d9"
     id="path14"
     style="stroke-width:0.999918" />
  <path
     d="M 65.875497,7.1283218 H 89.508664 V 8.7006731 H 65.875497 Z"
     fill="url(#paint0_linear_2761_754)"
     id="path15"
     style="fill:url(#paint0_linear_2761_754);stroke-width:0.999918" />
  <defs
     id="defs16">
    <linearGradient
       id="paint0_linear_2761_754"
       x1="90.344597"
       y1="8.18081"
       x2="66.709503"
       y2="8.18081"
       gradientUnits="userSpaceOnUse"
       gradientTransform="matrix(0.99991819,0,0,0.99991819,-0.82854543,-0.26560327)">
      <stop
         stop-color="#D9D9D9"
         id="stop15" />
      <stop
         offset="1"
         stop-color="#D9D9D9"
         stop-opacity="0"
         id="stop16" />
    </linearGradient>
  </defs>
</svg>
