<svg width="86" height="17" viewBox="0 0 86 17" fill="none" xmlns="http://www.w3.org/2000/svg">
<path d="M65.5765 3.56055H85.5527V4.06761H65.5765V3.56055Z" fill="url(#paint0_linear_4130_562)"/>
<path fill-rule="evenodd" clip-rule="evenodd" d="M42.5177 1.00089C42.5219 1.00757 42.5255 1.01468 42.5285 1.02208C42.5308 1.02776 42.5328 1.03359 42.5343 1.03957C42.5357 1.04469 42.5368 1.0498 42.5376 1.05507L42.5383 1.06061C42.5389 1.06616 42.5392 1.0717 42.5392 1.07725L42.5393 1.48819C42.5438 1.49089 42.5512 1.49459 42.5625 1.49843C42.5853 1.50611 42.6237 1.51365 42.6848 1.51365H43.6704V1.19868H43.4156V1.17707C43.4156 1.17707 43.4566 1.14067 43.4884 1.14067H44.3621C44.3939 1.14067 44.4349 1.17707 44.4349 1.17707V1.19868H44.1437V1.51365H45.175C45.2334 1.46174 45.4466 1.31727 46.0138 1.31727C46.2842 1.31727 46.6858 1.4771 46.6858 1.8515V2.40564L51.0176 2.40578V2.55139H63.9091V1.81979L63.8363 1.71059V1.34657L63.9455 1.23736H64.7099L64.8191 1.31016V1.60138L64.8555 1.71059C64.8621 1.73021 64.8779 1.73945 64.8932 1.74372C64.9111 1.74884 64.9283 1.74699 64.9283 1.74699H65.1468V2.46195H65.5764V5.04336H64.7411V4.95392H51.0176V5.09953H42.6087V5.24599L42.4267 5.35519H42.0629V2.15011H42.4267L42.6087 2.25932V2.40578L42.6353 2.40564V2.00521L43.1184 1.80472H42.6848C42.5168 1.80472 42.4005 1.76263 42.3272 1.6894C42.2913 1.65342 42.2711 1.61503 42.2602 1.58247C42.2549 1.5664 42.2482 1.53242 42.2482 1.51365V1.07725C42.2482 0.996766 42.3134 0.931641 42.3937 0.931641C42.4357 0.931641 42.4736 0.949415 42.5001 0.977854C42.5067 0.984964 42.5126 0.992642 42.5177 1.00089ZM45.9942 2.15082C46.1349 2.15082 46.249 2.03678 46.249 1.89601C46.249 1.75538 46.1349 1.64119 45.9942 1.64119C45.8534 1.64119 45.7393 1.75538 45.7393 1.89601C45.7393 2.03678 45.8534 2.15082 45.9942 2.15082Z" fill="#D9D9D9"/>
<path d="M35.4376 2.02299H41.7715L41.7715 2.15011H41.7717V5.35519H41.7715V5.50165L36.0719 6.95026L35.7392 6.7995L35.7388 6.79929L35.7387 6.79926L35.7385 6.7992L35.7372 6.7986L35.7312 6.79584C35.7257 6.79332 35.7175 6.78952 35.7072 6.78467C35.6866 6.77492 35.6581 6.76117 35.627 6.74525C35.5652 6.71362 35.5114 6.68269 35.4817 6.6614C35.4811 6.66044 35.4805 6.65932 35.4798 6.65804L35.479 6.65671C35.4716 6.64291 35.4633 6.62284 35.4554 6.59811C35.4478 6.57418 35.4422 6.55119 35.4385 6.53402L35.4376 6.52929V2.02299Z" fill="#D9D9D9"/>
<path fill-rule="evenodd" clip-rule="evenodd" d="M35.1463 2.16168L35.1463 2.18737H34.6003C34.6003 2.18211 34.6 2.17684 34.5995 2.17173C34.5989 2.16646 34.5981 2.16135 34.597 2.15637C34.5929 2.13774 34.5852 2.12025 34.5747 2.10489C34.5684 2.09579 34.5611 2.0874 34.553 2.08001C34.5271 2.05626 34.4926 2.04176 34.4547 2.04176C34.3743 2.04176 34.3091 2.10688 34.3091 2.18737H33.8723L33.7995 2.07816H31.943L31.8702 2.18737H31.3559C31.3559 2.14371 31.3367 2.10461 31.3064 2.07788C31.3006 2.07276 31.2944 2.06807 31.2878 2.06394C31.2797 2.05896 31.2711 2.0547 31.2621 2.05129C31.246 2.04517 31.2285 2.04176 31.2103 2.04176C31.16 2.04176 31.1157 2.06721 31.0895 2.10603C31.0738 2.12921 31.0647 2.15722 31.0647 2.18737H30.5233L30.4505 2.07816H28.594L28.5212 2.18737H27.9387C27.9387 2.10688 27.8735 2.04176 27.7931 2.04176C27.7626 2.04176 27.7343 2.05114 27.7109 2.06721C27.7068 2.07006 27.7028 2.07304 27.699 2.07631C27.6959 2.07887 27.6929 2.08172 27.69 2.08456L27.6846 2.09025L27.6781 2.09807L27.6722 2.10617C27.6566 2.12935 27.6475 2.15736 27.6475 2.18737H27.1743L27.1015 2.07816H25.245L25.1722 2.18737H24.6444C24.6444 2.10688 24.5792 2.04176 24.4988 2.04176C24.4183 2.04176 24.3531 2.10688 24.3531 2.18737H23.8253L23.7525 2.07816H22.6241L22.5512 2.18737H21.8232C21.8232 2.18737 21.6659 2.25007 21.4984 2.33297C21.4984 2.33297 21.0952 2.29657 20.9132 2.36938C20.8726 2.38559 20.8391 2.41445 20.8124 2.44844C20.801 2.46308 20.7907 2.47872 20.7817 2.49479C20.7475 2.55565 20.7311 2.62177 20.7311 2.66059C20.7311 2.75416 20.8506 2.8426 20.8506 2.8426C20.7584 2.94484 20.6947 3.02461 20.6947 3.02461V3.64345H20.4763V4.37149L20.0031 4.37134V6.30065C20.0031 6.30065 20.0017 6.51195 20.1487 6.66467C20.2957 6.81753 20.4035 6.81028 20.4035 6.81028H24.5898L25.5726 8.84893H25.8646L29.9146 8.75167L29.8413 8.94221L29.8316 8.96752V9.57697C29.8316 9.65731 29.8968 9.72258 29.9773 9.72258C30.0577 9.72258 30.1229 9.65731 30.1229 9.57697V9.02155L30.2296 8.74413L30.4141 8.73972L30.7417 8.52131L30.7833 8.5088L30.8602 8.48605L35.5468 7.0877L35.6196 7.06523L35.6199 7.06515L35.6196 7.06501C35.6196 7.06501 35.3948 6.96428 35.292 6.883C35.1821 6.79616 35.1463 6.55538 35.1463 6.55538V2.16168ZM27.6475 6.30079V6.4464C27.6475 6.4464 27.2984 6.87028 27.2835 7.13804C27.2471 7.79327 27.7203 8.19369 27.7203 8.19369C27.7658 8.23379 27.7491 8.28385 27.7203 8.2665C27.7203 8.2665 27.5014 8.14336 27.3563 7.97528C27.2146 7.81105 27.0651 7.50206 27.0651 7.50206C27.0651 7.50206 27.0616 7.48457 27.0568 7.45826C27.053 7.43793 27.0485 7.41233 27.0442 7.38546C27.0361 7.33498 27.0287 7.28009 27.0287 7.24724C27.0287 7.17444 27.0651 6.99243 27.0651 6.99243L27.071 6.9765L27.079 6.95503L27.0856 6.93783L27.1016 6.89744C27.1222 6.84625 27.1489 6.78425 27.1743 6.73761C27.1937 6.70192 27.2207 6.66026 27.2461 6.62286C27.2848 6.56599 27.3199 6.5192 27.3199 6.5192V6.30079H25.9002L25.8649 8.63052L29.4667 8.54406H29.4679L29.504 6.30079H27.6475Z" fill="#D9D9D9"/>
<path d="M30.915 8.77328C30.9498 8.95003 30.995 9.17058 31.0329 9.32201C31.0365 9.33638 31.0421 9.35116 31.0491 9.36595C31.0554 9.37946 31.0629 9.39297 31.0711 9.40619L31.0794 9.41942L31.0878 9.43165L31.0969 9.44459L31.1032 9.45312C31.1091 9.46108 31.115 9.46862 31.1208 9.47573C31.13 9.4871 31.1387 9.49734 31.1466 9.5063C31.1653 9.52734 31.1785 9.54043 31.1785 9.54043C31.1785 9.54043 31.3339 10.6537 31.4697 11.3605C31.6045 12.0617 31.8702 13.1442 31.8702 13.1442C32.0207 14.0476 32.3802 15.6734 32.5332 16.3112C32.5651 16.4444 32.5881 16.5346 32.5982 16.566C32.6106 16.6044 32.6198 16.636 32.6276 16.6627C32.6569 16.7625 32.6661 16.7938 32.7438 16.8572C32.8561 16.9489 33.1078 16.93 33.1078 16.93L36.6024 15.9108C36.6024 15.9108 36.7693 15.7703 36.8936 15.7288C37.112 15.656 37.2941 15.6196 37.2941 15.6196H37.5125V15.4375C37.5125 15.4375 37.4351 15.2127 37.3253 14.8915L37.3005 14.8187C37.2193 14.5811 37.1234 14.2997 37.029 14.0203C36.9421 13.7631 36.8564 13.5077 36.7844 13.2898L36.7548 13.2002L36.7547 13.2001L36.7547 13.1999C36.4277 12.2107 36.2335 11.6232 36.02 10.5597C35.8139 9.53303 35.6433 8.01495 35.5767 7.38176L30.915 8.77328Z" fill="#D9D9D9"/>
<path fill-rule="evenodd" clip-rule="evenodd" d="M25.3645 9.08782L24.4069 7.10149H20.3965C20.395 7.10163 20.3935 7.10149 20.392 7.10135H20.3895C20.3763 7.10092 20.3613 7.09979 20.3446 7.09751C20.311 7.09296 20.2714 7.08372 20.2274 7.06694C20.1384 7.03295 20.0393 6.9711 19.9389 6.86659C19.8189 6.74188 19.764 6.59869 19.7383 6.49617C19.7321 6.47128 19.7274 6.44796 19.7237 6.42678C19.7217 6.41483 19.72 6.4036 19.7186 6.39308C19.7173 6.3827 19.7162 6.37317 19.7154 6.36435C19.7137 6.34743 19.7128 6.33307 19.7124 6.32198L19.712 6.30776L19.7119 6.30264L19.7119 6.30065V4.37134L18.2194 4.37149C18.2194 4.37149 16.8725 5.05388 15.9261 5.39074C14.6227 5.85472 8.7549 5.97317 8.7549 5.97317H0.626626C0.613757 5.97317 0.601351 5.97474 0.589584 5.97787C0.578599 5.98071 0.568184 5.98483 0.558443 5.98995C0.54138 5.99905 0.526414 6.01142 0.514327 6.02607C0.486741 6.05949 0.473979 6.10499 0.484786 6.15163L0.632989 6.79051C0.642267 6.83758 0.651723 6.88664 0.661215 6.93726C0.615926 6.94223 0.576822 6.96797 0.553715 7.00466C0.548276 7.01333 0.543726 7.02257 0.540171 7.03239C0.534554 7.04788 0.531497 7.06452 0.531497 7.08201C0.531497 7.16249 0.596694 7.22762 0.677105 7.22762L0.686312 7.22734L0.692533 7.22691C0.699288 7.2262 0.7059 7.22492 0.712334 7.22335C0.719799 7.26715 0.727229 7.31194 0.734623 7.35773C0.663206 7.36697 0.608069 7.42811 0.608069 7.50206C0.608069 7.58254 0.673266 7.64766 0.753677 7.64766C0.76228 7.64766 0.770741 7.64695 0.778917 7.64553C0.789546 7.71819 0.800033 7.79313 0.810307 7.86992C0.746034 7.88513 0.698186 7.94272 0.698186 8.01168C0.698186 8.09217 0.763382 8.15729 0.843794 8.15729H0.846566C0.852396 8.20663 0.858155 8.25654 0.863772 8.30731C0.83903 8.31342 0.816812 8.32594 0.798931 8.343C0.784889 8.35637 0.773514 8.37243 0.765693 8.39049C0.757979 8.40827 0.753677 8.42789 0.753677 8.44851C0.753677 8.527 0.815781 8.59099 0.893526 8.59397L0.900778 8.67119L0.90771 8.74698C0.849446 8.76589 0.807392 8.82078 0.807392 8.88533C0.807392 8.95828 0.860928 9.01857 0.930853 9.02923L0.939491 9.14896C0.883644 9.1693 0.843794 9.2229 0.843794 9.28575C0.843794 9.355 0.89214 9.41288 0.956874 9.42766C0.961176 9.50459 0.965086 9.58252 0.968605 9.66143C0.933305 9.67651 0.905186 9.70523 0.890754 9.74092C0.887128 9.74988 0.88439 9.75926 0.882577 9.76893L0.881404 9.77661L0.880764 9.7823C0.880373 9.78657 0.880196 9.79097 0.880196 9.79538C0.880196 9.82652 0.889936 9.85539 0.906537 9.87899C0.924134 9.90402 0.949409 9.92336 0.97895 9.93331C0.980799 9.99147 0.982398 10.0503 0.983785 10.1095C0.943366 10.1354 0.916598 10.1807 0.916598 10.2322C0.916598 10.2855 0.945285 10.3322 0.988051 10.3576L0.988691 10.4219L0.989295 10.528C0.953177 10.5374 0.922463 10.5602 0.902947 10.5908C0.896299 10.6012 0.890931 10.6126 0.887092 10.6245C0.882613 10.6386 0.880196 10.6535 0.880196 10.669C0.880196 10.7359 0.925165 10.7922 0.986487 10.8092L0.986344 10.8146L0.985242 10.8519L0.982754 10.924C0.950938 10.9254 0.921788 10.9371 0.898503 10.9557C0.865158 10.9823 0.843794 11.0234 0.843794 11.0695C0.843794 11.1425 0.89765 11.2031 0.967859 11.2135C0.963913 11.2755 0.959505 11.3382 0.954635 11.4012C0.891002 11.4168 0.843794 11.4743 0.843794 11.5427C0.843794 11.5703 0.851508 11.5961 0.864874 11.6182C0.872268 11.6304 0.881369 11.6414 0.891856 11.6509C0.903409 11.6613 0.916633 11.6698 0.931101 11.6761C0.926018 11.7302 0.920721 11.7846 0.91514 11.8389C0.853072 11.8555 0.807392 11.9121 0.807392 11.9795C0.807392 12.001 0.812048 12.0214 0.820438 12.0398C0.833947 12.0694 0.857018 12.0937 0.885741 12.1086C0.877636 12.1789 0.869247 12.2488 0.860644 12.3182C0.807996 12.3401 0.77099 12.3922 0.77099 12.4527C0.77099 12.4999 0.793492 12.542 0.828365 12.5686C0.820189 12.6296 0.811906 12.6901 0.803552 12.7495C0.781654 12.7557 0.761889 12.7671 0.745537 12.7821C0.716422 12.8086 0.698186 12.847 0.698186 12.8895C0.698186 12.9412 0.725025 12.9865 0.765515 13.0124L0.751793 13.1034L0.739458 13.1842C0.67419 13.1985 0.625382 13.2568 0.625382 13.3264C0.625382 13.3542 0.633202 13.3803 0.646782 13.4023C0.659224 13.4226 0.676501 13.4397 0.697013 13.4518L0.675719 13.5812L0.662779 13.6584C0.626661 13.6674 0.595912 13.6898 0.576147 13.7201C0.561252 13.743 0.552578 13.7703 0.552578 13.7996C0.552578 13.8501 0.578315 13.8946 0.617383 13.9207C0.602097 14.0069 0.588838 14.0796 0.578386 14.1362C0.562105 14.2241 0.552578 14.2728 0.552578 14.2728L0.536616 14.3539C0.518949 14.4439 0.587807 14.5276 0.679523 14.5276H2.16614C2.16614 14.5276 18.5106 13.7632 18.9111 13.7632C19.4711 13.7632 20.2215 14.3456 20.2215 14.3456C20.2215 14.3456 24.4077 14.4184 24.4806 14.3456C24.4856 14.3405 24.4896 14.3352 24.4927 14.3298C24.4962 14.3237 24.4984 14.3173 24.4996 14.3108C24.4999 14.309 24.5001 14.3071 24.5003 14.3052C24.5005 14.3025 24.5005 14.2996 24.5003 14.2967C24.4999 14.29 24.4985 14.2831 24.4962 14.2758C24.4832 14.235 24.4414 14.1868 24.3916 14.1293L24.3911 14.1288C24.3604 14.0934 24.3267 14.0546 24.2949 14.0118C24.1751 13.8505 24.0437 13.6736 24.0437 13.5812C24.0437 13.29 25.0266 9.83178 25.2086 9.35856C25.229 9.30538 25.2565 9.25248 25.2873 9.202C25.2991 9.18252 25.3115 9.16332 25.3241 9.1447C25.3374 9.12522 25.3509 9.10616 25.3645 9.08782ZM5.73353 7.79327C5.73353 7.79327 5.14723 8.04027 4.89629 8.3393C4.62139 8.66692 4.56867 9.35856 4.56867 9.35856L5.55152 12.0523C5.55152 12.0523 5.98653 12.6717 6.17036 12.7439C6.34689 12.8133 6.64358 12.8531 6.64358 12.8531L10.211 12.7552C10.211 12.7552 10.7696 12.6891 11.0482 12.489C11.2611 12.336 11.5214 11.9794 11.5214 11.9794L12.2131 8.9944C12.2131 8.9944 12.1656 8.51634 11.9583 8.26636C11.7024 7.95779 11.0712 7.75957 11.0482 7.7526L5.73353 7.79327ZM19.5663 12.5255L15.7805 12.6234C15.7805 12.6234 15.257 12.5507 15.016 12.3434C14.7118 12.0816 14.6156 11.3969 14.6156 11.3969L15.2345 8.95799C15.2345 8.95799 15.3952 8.36532 15.6713 8.12075C15.9376 7.88485 16.5145 7.79285 16.5437 7.7883H16.5449L20.4399 7.75687C20.4399 7.75687 21.2033 8.12373 21.3136 8.3393C21.4456 8.59739 21.4592 9.06734 21.4592 9.06734L20.804 11.9795C20.804 11.9795 20.7427 12.0502 20.6605 12.1318C20.6171 12.175 20.5678 12.2214 20.5186 12.2619C20.4995 12.2775 20.4804 12.2925 20.4617 12.3058C20.4417 12.3202 20.4222 12.333 20.4035 12.3435C20.2113 12.452 19.5663 12.5255 19.5663 12.5255Z" fill="#D9D9D9"/>
<defs>
<linearGradient id="paint0_linear_4130_562" x1="85.5527" y1="3.81408" x2="65.5765" y2="3.81408" gradientUnits="userSpaceOnUse">
<stop stop-color="#D9D9D9"/>
<stop offset="1" stop-color="#D9D9D9" stop-opacity="0"/>
</linearGradient>
</defs>
</svg>
