<svg width="87" height="17" viewBox="0 0 87 17" fill="none" xmlns="http://www.w3.org/2000/svg">
<path d="M43.1037 0.646432C43.1037 0.566099 43.0385 0.500977 42.9582 0.500977C42.8779 0.500977 42.8128 0.566099 42.8128 0.646432V1.0828C42.8128 1.10149 42.8194 1.13553 42.8248 1.15152C42.8356 1.18403 42.8558 1.22243 42.8917 1.25838C42.965 1.33164 43.0813 1.37371 43.2491 1.37371H45.8557C45.7229 1.58174 45.6928 1.80979 45.6928 1.80979L44.0492 1.72979C44.0492 1.72979 43.591 1.72979 43.3437 1.97706V2.38786H43.1764V2.21008C43.1764 2.10826 43.0964 2.02826 42.9946 2.02826L42.5602 2.02833L42.5924 4.9301H42.9946C43.0964 4.9301 43.1764 4.8501 43.1764 4.74828V4.65042L65.8741 4.65041C65.8946 4.72841 65.9646 4.78447 66.0498 4.78447H66.4062C66.508 4.78447 66.588 4.70447 66.588 4.60265V2.35536C66.588 2.25354 66.508 2.17354 66.4062 2.17354H66.0498C65.948 2.17354 65.8607 2.25354 65.868 2.35536V2.38786H65.8094V1.76643C65.8094 1.71552 65.7731 1.67188 65.7222 1.66461C65.6203 1.65734 65.4676 1.59188 65.4458 1.30097C65.4458 1.25733 65.4094 1.22097 65.3731 1.2137C65.1549 1.16279 64.5585 1.09006 64.5585 1.81006V2.38786H47.3947V1.72252C47.3947 1.72252 47.1037 1.0389 46.4492 1.0389C46.3543 1.0389 46.271 1.0551 46.198 1.0828H43.2491C43.1881 1.0828 43.1497 1.07512 43.1269 1.06754C43.1156 1.06375 43.1082 1.06003 43.1037 1.05726V0.646432Z" fill="#D9D9D9"/>
<path fill-rule="evenodd" clip-rule="evenodd" d="M35.6127 6.80328L35.5268 1.92644H34.5272C34.5128 1.81725 34.418 1.73712 34.3109 1.73712H32.6309C32.5238 1.73712 32.429 1.81725 32.4146 1.92644H31.2491C31.2491 1.83189 31.1691 1.73712 31.0745 1.73712H29.3218C29.2199 1.73712 29.1472 1.83354 29.1472 1.92644H27.9836C27.9836 1.78624 27.9036 1.73712 27.809 1.73712H26.049C25.9472 1.73712 25.8745 1.80817 25.8745 1.92644L24.5581 1.92622C24.5581 1.8244 24.4708 1.73712 24.369 1.73712H23.5108C23.409 1.73712 23.3217 1.81713 23.3217 1.92622L22.558 1.92644C22.558 1.92644 22.3471 1.84644 22.0198 2.17372C21.6926 2.50099 20.7107 3.06827 20.7107 3.06827L20.7072 3.55313L20.9983 3.5626L20.9964 6.00396L20.9943 6.02014L20.9943 6.02027L20.9942 6.02065L20.9941 6.02209L20.9939 6.02463L20.9937 6.02764C20.9932 6.0356 20.9926 6.04853 20.993 6.0646C20.9937 6.09869 20.9983 6.13682 21.0091 6.16947C21.0195 6.20127 21.0315 6.21554 21.0399 6.22223C21.0451 6.22636 21.0686 6.24439 21.1398 6.24439H25.3917L26.3014 8.18878L26.3784 8.28424L26.3929 8.57377H30.7399L31.3218 8.28286L35.6127 6.80328ZM28.0869 7.79686C27.4998 7.18415 27.5952 6.52215 27.7572 6.10102H26.4272V8.27918H30.0836L30.0708 6.10102H28.3507C28.2424 6.64566 28.219 7.44368 28.3401 7.77343C28.4184 7.98676 28.201 7.91599 28.0869 7.79686Z" fill="#D9D9D9"/>
<path d="M35.5252 7.14471L31.5904 8.48323C31.6069 8.59217 31.6276 8.72675 31.6529 8.88684C31.591 8.90794 31.5492 8.9691 31.5551 9.03711C31.5616 9.11231 31.6243 9.16914 31.6982 9.16995C31.7625 9.56661 31.8481 10.0768 31.9585 10.6995C31.8801 10.7132 31.8272 10.7875 31.84 10.8662C31.853 10.9455 31.9303 10.9988 32.0096 10.9859C32.2297 12.2114 32.5377 13.8284 32.955 15.8289C33.0008 16.0483 33.0479 16.2724 33.0963 16.501L37.4309 15.3373C37.4309 15.3373 37.274 14.8527 37.05 14.1006C37.1056 14.0658 37.1324 13.9964 37.1108 13.9314C37.0903 13.8697 37.0323 13.8308 36.9705 13.8318C36.8583 13.4497 36.7334 13.0137 36.6053 12.5465C36.6813 12.5204 36.7292 12.435 36.703 12.359C36.6781 12.2867 36.6018 12.2466 36.529 12.2656C36.4178 11.8529 36.3057 11.4204 36.1985 10.9827C36.2747 10.9607 36.3194 10.8817 36.2986 10.8049C36.2785 10.7308 36.2046 10.6856 36.1303 10.7002C36.0384 10.3142 35.9513 9.92646 35.8732 9.54699C35.936 9.5243 35.9768 9.46036 35.9679 9.39142C35.958 9.31569 35.8915 9.2612 35.8166 9.26493C35.6632 8.48137 35.5536 7.74453 35.5252 7.14471Z" fill="#D9D9D9"/>
<path fill-rule="evenodd" clip-rule="evenodd" d="M20.7051 3.84621L18.9289 3.78845C18.9289 3.78845 16.7492 5.06048 13.6602 5.19551C13.4543 5.20452 13.2403 5.20842 13.0267 5.2066C10.7724 5.18262 4.96402 5.11455 1.25996 5.07086C1.21397 5.12353 1.19058 5.19598 1.20507 5.27203C1.32871 5.96295 1.5978 7.75205 1.56144 8.9957C1.52507 10.2393 1.13962 12.2466 0.972341 13.0685C0.932593 13.2473 1.05577 13.4141 1.22644 13.4479L18.7471 13.2358C18.7471 13.2358 18.8289 13.2376 18.9571 13.2491C19.3416 13.2835 20.1435 13.4049 20.4053 13.8249L24.6162 13.9922C24.7181 13.9985 24.7809 13.8935 24.7414 13.8087C24.7358 13.7966 24.7281 13.7849 24.7181 13.774C24.4999 13.534 24.2526 13.1122 24.449 12.5376C24.769 11.5994 25.569 9.09031 25.569 9.09031C25.569 9.09031 25.5794 9.06259 25.6008 9.01997C25.6649 8.89213 25.8272 8.63031 26.0999 8.58122L26.0905 8.39401L26.0511 8.34507L25.2053 6.53739H21.1398C20.6307 6.53739 20.7035 5.98466 20.7035 5.98466L20.7051 3.84621ZM12.7034 8.83533C13.1834 7.32259 11.5865 6.9714 11.5865 6.9714L6.29604 6.80666C4.1142 6.74121 4.98693 9.09759 4.98693 9.09759C4.98693 9.09759 5.11785 9.46123 5.59058 10.6467C6.06331 11.8322 7.15423 11.8831 7.15423 11.8831C7.15423 11.8831 8.97047 11.9363 11.2253 12.004C11.8367 11.692 12.0634 10.879 12.0634 10.879C12.0634 10.879 12.2234 10.3481 12.7034 8.83533ZM20.5435 7.2503L17.0238 7.1407C16.2238 7.11161 15.7652 8.06442 15.7652 8.06442C15.7652 8.06442 15.6052 8.63897 15.1252 10.1517C14.6892 11.5259 15.6935 12.0599 15.8812 12.1461C17.7673 12.2052 19.315 12.2562 19.6926 12.2758C20.9967 12.3012 21.5423 10.9184 21.8526 9.41032C22.4271 7.24303 20.5435 7.2503 20.5435 7.2503Z" fill="#D9D9D9"/>
<path d="M35.9051 6.76506L35.8185 1.85276C35.819 1.81797 35.8474 1.78966 35.8822 1.78928L42.2092 1.87655C42.2399 1.87655 42.2666 1.90484 42.2666 1.93909L42.3022 5.18193C42.2932 5.18745 42.2806 5.19408 42.264 5.20136C42.21 5.22504 42.1442 5.24258 42.1009 5.25341L36.1419 6.75257C36.0921 6.7664 36.0051 6.77685 35.936 6.7698C35.924 6.76858 35.9137 6.76693 35.9051 6.76506Z" fill="#D9D9D9"/>
<path d="M66.5882 3.22363H86.6865V3.7338H66.5882V3.22363Z" fill="url(#paint0_linear_2628_2699)"/>
<defs>
<linearGradient id="paint0_linear_2628_2699" x1="86.6865" y1="3.47872" x2="66.5882" y2="3.47872" gradientUnits="userSpaceOnUse">
<stop stop-color="#D9D9D9"/>
<stop offset="1" stop-color="#D9D9D9" stop-opacity="0"/>
</linearGradient>
</defs>
</svg>
