<svg xmlns="http://www.w3.org/2000/svg" xml:space="preserve" width="125.217" height="140.496" viewBox="0 0 33.131 37.173"><path d="M22.504 33.885h-11.81V3.287h11.81z" style="display:inline;fill:#4c4823;fill-opacity:1;stroke:#232110;stroke-width:1.5875;stroke-linecap:round;stroke-linejoin:round;stroke-dasharray:none;stroke-opacity:1;paint-order:normal"/><path d="M32.319 34.664H22.09V2.497h10.227z" style="display:inline;fill:#4c4823;fill-opacity:1;stroke:#232110;stroke-width:1.58752;stroke-linecap:round;stroke-linejoin:round;stroke-dasharray:none;stroke-opacity:1"/><path d="M11.103 34.664H.876V2.497h10.227z" style="fill:#4c4823;fill-opacity:1;stroke:#232110;stroke-width:1.58752;stroke-linecap:round;stroke-linejoin:round;stroke-dasharray:none;stroke-opacity:1"/><path d="M29.687 3.227H26.07V.793h3.616zm-21.751 0H4.32V.793h3.616zm21.75 33.152h-3.615v-2.434h3.616zm-21.75 0H4.32v-2.434h3.616z" style="fill:#49432b;fill-opacity:1;stroke:#232110;stroke-width:1.5875;stroke-linecap:round;stroke-linejoin:round;stroke-dasharray:none;stroke-opacity:1;paint-order:normal"/><path d="M32.273 30.885H.793v-4.287h31.48zm0-20.462H.793V6.136h31.48z" style="fill:#49432b;fill-opacity:1;stroke:#232110;stroke-width:1.58752;stroke-linecap:round;stroke-linejoin:round;stroke-dasharray:none;stroke-opacity:1;paint-order:normal"/><path d="M18.788 3.803H14.41V2.045h4.378z" style="fill:#3d3d3d;fill-opacity:1;stroke:#191919;stroke-width:1.05833;stroke-linecap:round;stroke-linejoin:round;stroke-dasharray:none;stroke-opacity:1;paint-order:normal"/><path d="M23.48 35.221h-2.99v-1.6h2.99zm-10.597.075H9.89v-1.6h2.992z" style="fill:#3d3d3d;stroke:#191919;stroke-width:1.05833;stroke-linecap:round;stroke-linejoin:round;stroke-opacity:1"/><g style="display:inline" transform="translate(-9.743 -7.756)scale(.39571)"><path d="M22.555 87.481h4.8v1.961h-4.8z" style="fill:#ababab;fill-opacity:1;fill-rule:evenodd;stroke:#4c4823;stroke-width:0;stroke-linecap:round;stroke-linejoin:round;stroke-dasharray:none;stroke-opacity:1" transform="rotate(-29.905)skewX(.19)"/><path d="m63.085 63.521-1.558.897-1.272 3.284 1.675 8.292-2.65.434-2.058-9.809 2.64-5.42-.291-2.138 3.895-2.24 2.072 1.877v.743l1.487 1.729z" style="fill:#ababab;fill-opacity:1;fill-rule:evenodd;stroke:#4c4823;stroke-width:0;stroke-linecap:round;stroke-linejoin:round;stroke-dasharray:none;stroke-opacity:1"/><ellipse cx="25.156" cy="96.172" rx="7.696" ry="7.682" style="fill:#ababab;fill-opacity:1;fill-rule:evenodd;stroke:#4c4823;stroke-width:0;stroke-linecap:round;stroke-linejoin:round;stroke-dasharray:none;stroke-opacity:1" transform="rotate(-29.905)skewX(.19)"/><path d="m63.407 74.522 13.252-7.621" style="fill:#222;fill-opacity:.697324;fill-rule:evenodd;stroke:#4c4823;stroke-width:.981674;stroke-linecap:round;stroke-linejoin:round;stroke-dasharray:none;stroke-opacity:1"/><ellipse cx="19.318" cy="85.954" rx="3.628" ry="3.621" style="fill:none;fill-opacity:1;fill-rule:evenodd;stroke:#ababab;stroke-width:1.65537;stroke-linecap:round;stroke-linejoin:round;stroke-dasharray:none;stroke-opacity:1" transform="rotate(-29.905)skewX(.19)"/><ellipse cx="27.999" cy="81.754" rx="1.982" ry="1.978" style="fill:#ababab;fill-opacity:1;fill-rule:evenodd;stroke:#4c4823;stroke-width:0;stroke-linecap:round;stroke-linejoin:round;stroke-dasharray:none;stroke-opacity:1" transform="rotate(-29.905)skewX(.19)"/></g><path d="M5.698 14.138c-2.795-.93-1.137-3.865-.12-5.497.835-1.563 1.996-2.916 3.945-2.34.207.07 4.582 1.58 1.21 5.172-1.38 1.468-3.147 3.176-5.035 2.665ZM11.294 32.346c2.974-1.32 5.119-2.753 3.327-5.526-.846-1.669-1.471-2.155-3.659-4.8-1.045-1.263-2.962-3.49-5.86-2.138-1.862.868-3.197 3.134-2.586 5.915.627 2.853 4.733 8.345 8.778 6.549zM17.25 5.533c-.869.686-1.428 1.838-1.518 8.227.012 3.375 2.195 4.551 3.685 4.205 2.958-.674.256-4.774 3.659-4.804 2.642.168 4.685 4.25 7.263 2.366 4.61-3.395-9.797-12.292-13.089-9.994z" style="fill:#c9d1d9;fill-opacity:1;stroke:#a2a5c0;stroke-width:1.05834;stroke-dasharray:none;stroke-opacity:1"/><path d="M32.6 35.005H21.13c-.084-.801-.004-1.611-.034-2.415-.023-.638-.368-1.284-.275-1.93.225-1.58 3.463-1.625 3.893-3.24.573-2.148-.986-4.45-.24-6.683.927-2.783 6.556-2.416 8.128-.827z" style="fill:#c9d1d9;stroke:#a2a5c0;stroke-width:1.05833;stroke-linecap:round;stroke-linejoin:round;stroke-dasharray:none"/></svg>