<svg xmlns="http://www.w3.org/2000/svg" width="161.66" height="127.484" viewBox="0 0 42.773 33.73"><path d="M91.29 111.21a8.6 8.6 0 0 1 2.018-2.386 6.9 6.9 0 0 1 2.796-1.372c1.022-.228 2.109-.191 3.1.15.99.34 1.879.99 2.468 1.855.746 1.098.978 2.458 1.129 3.776s.247 2.671.776 3.888c.534 1.23 1.481 2.252 1.974 3.499.246.623.373 1.31.25 1.97-.06.329-.185.648-.374.925-.19.277-.445.51-.745.66a2 2 0 0 1-1.031.2 2.6 2.6 0 0 1-1.014-.292c-.629-.326-1.121-.868-1.521-1.453s-.718-1.22-1.091-1.823c-.373-.602-.81-1.18-1.39-1.588-.51-.36-1.113-.572-1.724-.698-.612-.127-1.237-.172-1.86-.226-.622-.053-1.247-.114-1.851-.272-.605-.158-1.192-.417-1.664-.827a3.4 3.4 0 0 1-.92-1.322 4.2 4.2 0 0 1-.277-1.591c.016-1.084.407-2.135.952-3.072z" style="opacity:.600375;fill:#5081d7;fill-opacity:1;stroke:#2354b3;stroke-width:.529167;stroke-linecap:butt;stroke-linejoin:miter;stroke-dasharray:none;stroke-opacity:1" transform="translate(-68.1 -106.201)"/><path d="M92.399 111.215a3.83 3.83 0 0 1 2.218-.305c.748.116 1.46.436 2.067.889.312.233.601.503.816.827.216.325.355.707.352 1.097-.001.305-.095.616-.296.845a1 1 0 0 1-.37.263.83.83 0 0 1-.449.047 1.02 1.02 0 0 1-.533-.303 2.8 2.8 0 0 1-.368-.501c-.11-.177-.216-.357-.352-.514a1.15 1.15 0 0 0-.502-.356c-.24-.077-.507-.042-.742.054s-.44.248-.637.407c-.196.16-.386.33-.599.466-.213.137-.453.243-.705.257a1.1 1.1 0 0 1-.543-.109 1.2 1.2 0 0 1-.43-.349 1.45 1.45 0 0 1-.28-1.054c.043-.37.215-.72.46-1.002.243-.282.556-.499.893-.66z" style="opacity:.600375;fill:#5081d7;fill-opacity:1;stroke:#2354b3;stroke-width:.529167;stroke-linecap:butt;stroke-linejoin:miter;stroke-dasharray:none;stroke-opacity:1" transform="rotate(36.508 209.1 -35.001)"/><path fill="none" d="M88.41 144.19a3.163 3.163 0 0 1 3.163-3.164h18.913a3.163 3.163 0 0 1 3.163 3.164v12.652a3.163 3.163 0 0 1-3.163 3.164H91.573a3.163 3.163 0 0 1-3.164-3.164z" style="stroke:none;stroke-width:.488332;stroke-linecap:square;stroke-miterlimit:10" transform="translate(-70.876 -135.102)"/><path d="m74.432 165.524 6.364 2.887-.126-2.315-.95-1.396 2.37-1.312.4-.783 1.193-.559-.406-.184-2.819-.135-1.387-1.773-1.753-.795 1.377 3.164-2.333 1.036.414 1.086z" style="opacity:1;fill:#e5e0db;fill-opacity:1;stroke:#272727;stroke-width:.529167;stroke-linecap:square;stroke-dasharray:none;stroke-opacity:1" transform="translate(-70.876 -135.102)"/><path d="M74.907 137.49a6.45 6.45 0 0 1 3.12-.54c1.063.08 2.104.421 3.018.97 1.829 1.098 3.105 3.028 3.526 5.119.336 1.671.153 3.4-.077 5.09-.231 1.688-.51 3.39-.362 5.09.058.67.182 1.336.187 2.01.004.672-.124 1.37-.52 1.915-.282.387-.69.677-1.141.837-.452.161-.944.194-1.417.12-.946-.151-1.786-.726-2.414-1.45-1.257-1.446-1.715-3.406-2.672-5.066-.708-1.229-1.681-2.278-2.575-3.379s-1.73-2.295-2.09-3.666a6.05 6.05 0 0 1 .416-4.149 6.2 6.2 0 0 1 3-2.901z" style="opacity:.499853;fill:#5081d7;fill-opacity:1;stroke:#2354b3;stroke-width:.529167;stroke-linecap:square;stroke-dasharray:none;stroke-opacity:1" transform="rotate(160.942 54.845 74.504)"/><path d="M74.882 136.511a2.9 2.9 0 0 1-.418-1.96c.094-.676.42-1.314.894-1.805a3.74 3.74 0 0 1 1.753-1.005 4.4 4.4 0 0 1 2.028-.022c1.333.295 2.493 1.164 3.32 2.25.829 1.084 1.348 2.375 1.712 3.69.365 1.322.583 2.707.406 4.066-.092.709-.294 1.41-.65 2.029-.355.62-.87 1.157-1.506 1.484-.635.327-1.393.432-2.08.233a2.4 2.4 0 0 1-.931-.512 2.2 2.2 0 0 1-.597-.877c-.225-.622-.142-1.307-.05-1.962s.188-1.337-.014-1.966c-.137-.429-.407-.806-.729-1.122-.321-.315-.694-.572-1.074-.815-.758-.485-1.577-.949-2.064-1.706z" style="opacity:.499853;fill:#5081d7;fill-opacity:1;stroke:#2354b3;stroke-width:.529167;stroke-linecap:square;stroke-dasharray:none;stroke-opacity:1" transform="rotate(104.468 94.175 61.285)"/><path d="m76.006 143.3.56 4.1-3.253-1.64-.446.408.79 3.53-2.585-1.89 2.835 3.104 2.495.629.853 3.036 1.272-3.023 1.738.274-.15-1.281 2.075-.477-3.651-.997-1.98-5.167z" style="opacity:1;fill:#e5e0db;fill-opacity:1;stroke:#272727;stroke-width:.529167;stroke-linecap:square;stroke-dasharray:none;stroke-opacity:1" transform="translate(-70.876 -135.102)"/><path fill="#666" fill-rule="evenodd" d="M77.955 145.875h3.615v8.274h-3.615z" style="stroke:none;stroke-width:.488332;stroke-linecap:square;stroke-miterlimit:10" transform="rotate(51.727 202.706 22.485)"/><path stroke="#272727" stroke-linejoin="round" stroke-width="1.953" d="M77.955 145.875h3.615v8.274h-3.615z" style="fill:none;stroke-miterlimit:10" transform="rotate(51.727 202.706 22.485)"/><path fill="#666" fill-rule="evenodd" d="M88.989 139.353c0-2.285 1.787-4.138 3.991-4.138 1.059 0 2.074.436 2.822 1.212a4.22 4.22 0 0 1 1.17 2.926c0 2.285-1.788 4.137-3.992 4.137s-3.991-1.852-3.991-4.137" style="stroke:none;stroke-width:.488332;stroke-linecap:square;stroke-miterlimit:10" transform="translate(-58.925 -119.738)"/><path stroke="#272727" stroke-linejoin="round" stroke-width="1.953" d="M88.989 139.353c0-2.285 1.787-4.138 3.991-4.138 1.059 0 2.074.436 2.822 1.212a4.22 4.22 0 0 1 1.17 2.926c0 2.285-1.788 4.137-3.992 4.137s-3.991-1.852-3.991-4.137z" style="fill:none;stroke-miterlimit:10" transform="translate(-58.925 -119.738)"/><path fill="#900" fill-rule="evenodd" d="M90.865 139.352c0-1.125.947-2.038 2.115-2.038.56 0 1.099.215 1.495.597s.62.9.62 1.441c0 1.126-.947 2.038-2.115 2.038s-2.115-.912-2.115-2.038" style="stroke:none;stroke-width:.488332;stroke-linecap:square;stroke-miterlimit:10" transform="translate(-58.925 -119.738)"/><path fill="#666" fill-rule="evenodd" d="M105.087 139.353c0-2.285 1.787-4.138 3.991-4.138 1.059 0 2.074.436 2.823 1.212a4.22 4.22 0 0 1 1.169 2.926c0 2.285-1.787 4.137-3.992 4.137s-3.99-1.852-3.99-4.137" style="stroke:none;stroke-width:.488332;stroke-linecap:square;stroke-miterlimit:10" transform="translate(-90.623 -127.227)"/><path stroke="#272727" stroke-linejoin="round" stroke-width="1.953" d="M105.087 139.353c0-2.285 1.787-4.138 3.991-4.138 1.059 0 2.074.436 2.823 1.212a4.22 4.22 0 0 1 1.169 2.926c0 2.285-1.787 4.137-3.992 4.137s-3.99-1.852-3.99-4.137z" style="fill:none;stroke-miterlimit:10" transform="translate(-90.623 -127.227)"/><path fill="#3c78d8" fill-rule="evenodd" d="M106.964 139.352c0-1.125.943-2.038 2.107-2.038.559 0 1.094.215 1.49.597s.617.9.617 1.441c0 1.126-.944 2.038-2.107 2.038s-2.107-.912-2.107-2.038" style="stroke:none;stroke-width:.488332;stroke-linecap:square;stroke-miterlimit:10" transform="translate(-90.623 -127.227)"/><path fill="#e5e0db" stroke="#272727" stroke-linecap="round" stroke-width=".529" d="m110.515 141.753-3.879-.266-3.055-2.507-.292 3.002-.976 1.191-1.504 2.74 1.899-.729 1.057 1.04 1.797.129 2.18 2.334.304-2.008-1.115-3.535z" style="stroke-width:.529167;stroke-dasharray:none" transform="translate(-70.876 -135.102)"/><path fill="#e5e0db" stroke="#272727" stroke-linecap="round" stroke-width=".529" d="m23.638 30.776.79-2.241.793-2.078 1.531-.589 1.552-.923-2.808-.32-1.488-2.184-1.534-2.162.065 2.019-.104 1.382-1.247.309-.792.995-.04 1.72 1.305-.059.458 1.858.97-.194.117.914-.297.969zM17.566 4.447l-2.805 4.187 1.093-.648.69 1.59 2.077.721.327 1.142 2.805-4.187-1.432.779-.716-1.542-2.09-.363z"/></svg>