<svg xmlns="http://www.w3.org/2000/svg" width="36" height="25" fill="none"><path fill="#333634" stroke="#252725" stroke-miterlimit="3.994" stroke-width="2" d="M4.718 1.114h26.385c1.449.21 2.564.917 2.564 1.276v1.69H2.154V2.39c0-.359 1.116-1.065 2.564-1.276Z"/><path fill="#454946" d="M5.624 23.614h24.575c2.92-.607 3.846-1.488 3.846-1.905V17.12l.645-1.355V3.31c-.968.458-2.078.769-2.516.769H3.649c-.438 0-1.548-.31-2.516-.77v12.456l.645 1.355v4.59c0 .416.926 1.297 3.846 1.903"/><path fill="#3E423F" stroke="#252725" stroke-miterlimit="3.994" d="M29.174 7.08c.438 0 1.548-.311 2.517-.77v1c-.969.459-2.079.77-2.517.77 0 0-7.374.23-11.262.23-3.887 0-11.262-.23-11.262-.23-.438 0-1.548-.311-2.516-.77v-1c.968.459 2.078.77 2.516.77 0 0 7.375.23 11.262.23s11.262-.23 11.262-.23ZM30.2 23.616H5.626c-2.92-.607-3.846-1.488-3.846-1.904V20.43c0 .417.927 1.297 3.846 1.904h24.576c2.92-.607 3.846-1.487 3.846-1.904v1.282c0 .416-.927 1.297-3.846 1.904Z"/><path stroke="#252725" stroke-miterlimit="3.994" stroke-width="2" d="M5.624 23.614h24.575c2.92-.607 3.846-1.488 3.846-1.905V17.12l.645-1.355V3.31c-.968.458-2.078.769-2.516.769H3.649c-.438 0-1.548-.31-2.516-.77v12.456l.645 1.355v4.59c0 .416.926 1.297 3.846 1.903Z"/></svg>