<?xml version="1.0" encoding="UTF-8" standalone="no"?>
<!-- Created with Inkscape (http://www.inkscape.org/) -->

<svg
   width="217.14143"
   height="217.71999"
   viewBox="0 0 57.452007 57.605087"
   version="1.1"
   id="svg1062"
   xml:space="preserve"
   sodipodi:docname="birch_tree_residue_winter.svg"
   inkscape:version="1.1.2 (0a00cf5339, 2022-02-04)"
   xmlns:inkscape="http://www.inkscape.org/namespaces/inkscape"
   xmlns:sodipodi="http://sodipodi.sourceforge.net/DTD/sodipodi-0.dtd"
   xmlns="http://www.w3.org/2000/svg"
   xmlns:svg="http://www.w3.org/2000/svg"
   xmlns:rdf="http://www.w3.org/1999/02/22-rdf-syntax-ns#"
   xmlns:cc="http://creativecommons.org/ns#"
   xmlns:dc="http://purl.org/dc/elements/1.1/"><sodipodi:namedview
     id="namedview1"
     pagecolor="#505050"
     bordercolor="#ffffff"
     borderopacity="1"
     inkscape:showpageshadow="0"
     inkscape:pageopacity="0"
     inkscape:pagecheckerboard="1"
     inkscape:deskcolor="#505050"
     inkscape:zoom="4.3357508"
     inkscape:cx="117.85733"
     inkscape:cy="127.08295"
     inkscape:window-width="2560"
     inkscape:window-height="1372"
     inkscape:window-x="0"
     inkscape:window-y="0"
     inkscape:window-maximized="1"
     inkscape:current-layer="layer1"
     inkscape:pageshadow="0"
     showgrid="false" /><defs
     id="defs1059" /><g
     id="layer1"
     transform="translate(8.3396657,10.640567)"><path
       style="fill:#cccccc;fill-opacity:1;stroke:#333333;stroke-width:1.31573;stroke-linejoin:round;stroke-dasharray:none;stroke-opacity:1"
       id="path1620-3"
       d="m 36.330085,20.560486 -4.331585,3.595735 -1.402712,5.452 -5.605461,-0.520322 -4.847015,2.863278 -3.595735,-4.331582 -5.452001,-1.402715 0.520323,-5.60546 -2.8632784,-4.847015 4.3315824,-3.595735 1.402714,-5.4520007 5.60546,0.5203227 4.847015,-2.8632782 3.595735,4.3315826 5.452001,1.4027136 -0.520323,5.605461 z" /><path
       style="fill:#b07e5f;fill-opacity:1;fill-rule:nonzero;stroke:#312114;stroke-width:0.438576;stroke-linejoin:miter;stroke-dasharray:none;stroke-opacity:1"
       id="path1620-8-6"
       d="m 34.406033,20.225868 -3.727164,3.093994 -1.206981,4.691239 -4.823287,-0.447717 -4.170673,2.463743 -3.093994,-3.727163 -4.69124,-1.206983 0.447718,-4.823286 -2.463743,-4.170673 3.727163,-3.093994 1.206983,-4.6912404 4.823286,0.447718 4.170673,-2.4637425 3.093993,3.7271629 4.691241,1.206982 -0.447718,4.823287 z" /><path
       style="fill:#d59a76;fill-opacity:1;fill-rule:nonzero;stroke:#312114;stroke-width:0.393814;stroke-linejoin:miter;stroke-dasharray:none;stroke-opacity:1"
       id="path1620-8-5-75"
       d="m 33.195094,20.01527 -3.34676,2.778213 -1.083794,4.212439 -4.331009,-0.402022 -3.745003,2.212286 -2.778213,-3.346759 -4.21244,-1.083795 0.402023,-4.331008 -2.212286,-3.745003 3.346758,-2.778213 1.083795,-4.2124399 4.331009,0.4020227 3.745003,-2.2122864 2.778212,3.3467586 4.21244,1.083795 -0.402023,4.331009 z" /><path
       style="fill:#d59a76;fill-opacity:1;fill-rule:nonzero;stroke:#312114;stroke-width:0.35146;stroke-linejoin:miter;stroke-dasharray:none;stroke-opacity:1"
       id="path1620-8-5-7-35"
       d="m 32.049304,19.816001 -2.986822,2.479422 -0.967234,3.759399 -3.865217,-0.358785 -3.342236,1.974359 -2.479421,-2.986821 -3.7594,-0.967235 0.358786,-3.865217 -1.974359,-3.342235 2.986821,-2.479421 0.967234,-3.759401 3.865218,0.358786 3.342235,-1.974359 2.479421,2.986821 3.7594,0.967235 -0.358786,3.865217 z" /><path
       style="fill:#ebac84;fill-opacity:1;fill-rule:nonzero;stroke:#312114;stroke-width:0.308988;stroke-linejoin:miter;stroke-dasharray:none;stroke-opacity:1"
       id="path1620-8-5-7-3-6"
       d="m 30.900339,19.616181 -2.625887,2.179802 -0.850351,3.305105 -3.398135,-0.315429 -2.938352,1.735773 -2.179802,-2.625887 -3.305105,-0.850352 0.31543,-3.398134 -1.735773,-2.938352 2.625886,-2.179802 0.850352,-3.305105 3.398135,0.31543 2.938351,-1.7357732 2.179802,2.6258862 3.305105,0.850352 -0.31543,3.398135 z" /><path
       style="fill:#ebac84;fill-opacity:1;fill-rule:nonzero;stroke:#312114;stroke-width:0.260863;stroke-linejoin:miter;stroke-dasharray:none;stroke-opacity:1"
       id="path1620-8-5-7-3-2-2"
       d="m 29.598401,19.389757 -2.216898,1.840292 -0.717906,2.790324 -2.868865,-0.2663 -2.480694,1.465421 -1.840291,-2.216896 -2.790325,-0.717907 0.2663,-2.868865 -1.465421,-2.480695 2.216897,-1.840291 0.717906,-2.790325 2.868865,0.2663 2.480695,-1.465421 1.840291,2.216897 2.790325,0.717907 -0.266301,2.868865 z" /><path
       style="fill:#5f4316;fill-opacity:0;fill-rule:nonzero;stroke:#312114;stroke-width:0.210062;stroke-linejoin:miter;stroke-dasharray:none;stroke-opacity:1"
       id="path1620-8-5-7-3-2-7-9"
       d="m 28.224095,19.150747 -1.785174,1.481909 -0.578099,2.24693 -2.310176,-0.21444 -1.997598,1.180042 -1.481909,-1.785173 -2.24693,-0.578101 0.21444,-2.310175 -1.180041,-1.997598 1.785173,-1.481909 0.5781,-2.24693 2.310175,0.21444 1.997598,-1.180041 1.481909,1.785173 2.24693,0.5781 -0.21444,2.310175 z" /><path
       style="fill:#ffbf97;fill-opacity:1;fill-rule:nonzero;stroke:#312114;stroke-width:0.172342;stroke-linejoin:miter;stroke-dasharray:none;stroke-opacity:1"
       id="path1620-8-5-7-3-2-7-0-1"
       d="m 27.203673,18.973283 -1.464619,1.21581 -0.474293,1.84346 -1.895349,-0.175934 -1.6389,0.968148 -1.21581,-1.464619 -1.84346,-0.474294 0.175934,-1.895348 -0.968147,-1.6389 1.464618,-1.21581 0.474294,-1.84346 1.895349,0.175934 1.638899,-0.968147 1.21581,1.464618 1.843461,0.474294 -0.175935,1.895349 z" /><path
       style="fill:#5f4316;fill-opacity:0;fill-rule:nonzero;stroke:#312114;stroke-width:0.137925;stroke-linejoin:miter;stroke-dasharray:none;stroke-opacity:1"
       id="path1620-8-5-7-3-2-7-0-0-2"
       d="m 26.272614,18.811359 -1.172137,0.973014 -0.379577,1.475323 -1.51685,-0.1408 -1.311614,0.77481 -0.973014,-1.172136 -1.475324,-0.379578 0.140801,-1.51685 -0.77481,-1.311614 1.172136,-0.973014 0.379578,-1.475323 1.51685,0.1408 1.311614,-0.774809 0.973014,1.172136 1.475323,0.379577 -0.1408,1.51685 z" /><path
       style="fill:#ffbf97;fill-opacity:1;fill-rule:nonzero;stroke:#312114;stroke-width:0.103665;stroke-linejoin:miter;stroke-dasharray:none;stroke-opacity:1"
       id="path1620-8-5-7-3-2-7-0-0-8-7"
       d="m 25.345763,18.650168 -0.880976,0.731316 -0.28529,1.108851 -1.140063,-0.105825 -0.985806,0.582345 -0.731316,-0.880975 -1.108852,-0.28529 0.105826,-1.140063 -0.582346,-0.985806 0.880976,-0.731316 0.28529,-1.108852 1.140062,0.105826 0.985807,-0.582346 0.731316,0.880976 1.108851,0.28529 -0.105825,1.140062 z" /><path
       style="color:#000000;fill:#cccccc;stroke-width:1.06449;stroke-linejoin:round;stroke-miterlimit:16;-inkscape-stroke:none"
       d="m -3.111491,2.7709577 3.182432,-4.033169 6.36078,-1.172346 -5.857513,4.707447 -4.520643,7.3997126 -3.860751,1.4737267 z"
       id="path944" /><path
       style="fill:#4d4d4d;fill-opacity:1;stroke-width:0.00555212"
       d="M -3.270916,8.0904825 C -3.373406,7.8901945 -3.847984,7.3650366 -3.913239,7.1479102 -3.979109,6.9806413 -4.106558,6.8255285 -4.089971,6.63631 c -0.0109,-0.1330861 0.113063,-0.2388851 0.240135,-0.2361731 0.185236,-0.00213 0.370497,8.393e-4 0.555744,0.00121 0.131228,-0.098536 0.252318,-0.2168481 0.322379,-0.3674135 0.09075,-0.1841006 0.304888,-0.3115703 0.51051,-0.2605005 0.123393,0.022126 0.445121,0.4402664 0.489537,0.545485 z"
       id="path8422" /><path
       style="color:#000000;fill:#333333;stroke-linejoin:round;stroke-miterlimit:16;-inkscape-stroke:none"
       d="m 6.3359375,-2.9570313 -6.36132813,1.1718751 a 0.5322982,0.5322982 0 0 0 -0.32226562,0.1933593 L -3.5292969,2.4414063 a 0.5322982,0.5322982 0 0 0 -0.046875,0.068359 l -4.6953125,8.3769537 a 0.5322982,0.5322982 0 0 0 0.6542969,0.757812 l 3.8613281,-1.474609 A 0.5322982,0.5322982 0 0 0 -3.4921875,9.9492188 L 0.98046875,2.6289063 6.765625,-2.0195313 a 0.5322982,0.5322982 0 0 0 -0.4296875,-0.9375 z M 4.453125,-1.5273437 0.24023438,1.8574219 A 0.5322982,0.5322982 0 0 0 0.11914062,1.9960937 L -4.3066406,9.2402344 -6.625,10.125 -2.6679688,3.0683594 0.36523438,-0.77539062 Z"
       id="path946" /><path
       style="color:#000000;fill:#cccccc;stroke-width:1.46862;stroke-linejoin:round;stroke-miterlimit:16;-inkscape-stroke:none"
       d="m 47.548122,2.8449947 0.82994,7.0392156 -5.0616,7.3489787 1.12195,-10.3067003 -2.80869,-11.628962 2.32867,-5.2040785 z"
       id="path928" /><path
       style="fill:#4d4d4d;fill-opacity:1;stroke-width:0.00555212"
       d="m 45.176792,-0.69113385 c -0.16017,-0.032997 -0.27852,-0.1980684 -0.25198,-0.36068355 -0.001,-0.1903751 0.0817,-0.3680612 0.096,-0.5565469 -0.18423,-0.063704 -0.41498,-0.036313 -0.55205,-0.2004343 -0.097,-0.1244606 -0.0616,-0.2964042 -0.0596,-0.4428761 0.0455,-0.1578521 0.0493,-0.3327533 0.14288,-0.4727711 0.0937,-0.108028 0.22645,-0.1734188 0.33561,-0.2649708 0.16345,-0.1239061 0.31168,-0.2663897 0.4611,-0.4064142 0.0787,-0.071514 0.11697,-0.1716743 0.16899,-0.2605523 0.0791,-0.036051 0.29139,-0.00501 0.23551,0.1256046 -0.0357,0.1600445 -0.18792,0.2886264 -0.25688,0.4025388 0.23281,0.5137142 0.2607,1.0865637 0.33227,1.6379749 0.0181,0.1611392 0.0316,0.3227434 0.0451,0.4843191 0.16429,-0.00314 0.25701,-0.1645234 0.39813,-0.2029787 0.0814,0.00567 0.26102,-0.031505 0.17681,0.1072814 -0.0766,0.21842595 -0.30554,0.32643705 -0.51893,0.36501825 -0.2473,0.050223 -0.50152,0.059641 -0.75298,0.045491 z"
       id="path9289" /><path
       style="fill:#4d4d4d;fill-opacity:1;stroke-width:0.00555212"
       d="m 44.962362,9.9641843 c 0.0966,-0.01606 0.21928,-0.04218 0.29907,0.02965 0.19783,0.1748927 0.27935,0.4390597 0.33402,0.6888247 0.037,0.201983 0.0528,0.423887 -0.0518,0.609588 -0.20497,0.389394 -0.47425,0.770673 -0.86841,0.986496 -0.16144,0.08979 -0.38016,0.154947 -0.54337,0.03397 -0.17437,-0.139588 -0.20957,-0.379879 -0.21555,-0.590057 -2.7e-4,-0.443876 0.13788,-0.887857 0.3864,-1.255314 0.15949,-0.23046 0.38258,-0.432007 0.65963,-0.5031567 z"
       id="path9122" /><path
       style="color:#000000;fill:#333333;stroke-linejoin:round;stroke-miterlimit:16;-inkscape-stroke:none"
       d="m 44.011719,-10.638672 a 0.7343834,0.7343834 0 0 0 -0.722657,0.431641 l -2.330078,5.2050779 a 0.7343834,0.7343834 0 0 0 -0.04297,0.4726562 L 43.695312,6.9746094 42.585937,17.154297 a 0.7343834,0.7343834 0 0 0 1.335938,0.496094 l 5.060547,-7.34961 a 0.7343834,0.7343834 0 0 0 0.125,-0.5019529 L 48.277344,2.7597656 A 0.7343834,0.7343834 0 0 0 48.255859,2.6464844 L 44.666016,-10.105469 a 0.7343834,0.7343834 0 0 0 -0.654297,-0.533203 z m -0.210938,2.8808595 3.023438,10.7402344 0.792968,6.7128906 -3.255859,4.7246095 0.806641,-7.4140626 a 0.7343834,0.7343834 0 0 0 -0.01563,-0.2519532 l -2.75,-11.3847656 z"
       id="path930" /><path
       style="color:#000000;fill:#cccccc;stroke-width:1.1039;stroke-linejoin:round;stroke-miterlimit:16;-inkscape-stroke:none"
       d="M 10.343832,41.544182 6.161346,38.24393 4.945597,31.64766 l 4.881728,6.074371 7.673667,4.688006 1.528287,4.003687 z"
       id="path936" /><path
       style="fill:#4d4d4d;fill-opacity:1;stroke-width:0.0157038"
       d="m 14.353752,42.905004 c -0.123825,-0.05217 -0.18655,-0.116504 -0.269289,-0.276186 -0.100594,-0.19414 -0.144574,-0.24104 -0.271517,-0.289546 -0.104208,-0.03982 -0.168533,-0.09037 -0.204773,-0.160904 -0.02489,-0.04844 -0.02187,-0.306753 0.0064,-0.546836 0.0344,-0.292245 0.07003,-0.706638 0.07012,-0.815641 6.8e-5,-0.07987 0.0062,-0.09973 0.04228,-0.137409 0.05708,-0.05958 0.0915,-0.05551 0.136746,0.01617 0.07337,0.116223 0.237459,0.234445 0.776922,0.55975 0.15163,0.09143 0.182946,0.104894 0.207863,0.08933 0.01613,-0.01008 0.06141,-0.01831 0.100604,-0.01831 0.06177,0 0.07328,0.0053 0.08635,0.03967 0.0261,0.06866 0.06679,0.63368 0.05708,0.792631 -0.01918,0.313981 -0.144783,0.597477 -0.320663,0.723784 -0.06456,0.04636 -0.0848,0.05218 -0.198675,0.05709 -0.107502,0.0046 -0.140889,-5.29e-4 -0.219449,-0.03357 z"
       id="path7304" /><path
       id="path7346"
       style="fill:#4d4d4d;fill-opacity:1;stroke-width:0.00277606"
       d="m 9.565133,39.281134 c -0.126413,0.0094 -0.240244,0.07286 -0.350653,0.129904 -0.10061,0.05259 -0.409471,0.134147 -0.514844,0.177951 l 1.080386,0.882771 c 0.06164,-0.20662 0.07515,-0.692864 0.03224,-0.90565 -0.0249,-0.111076 -0.08261,-0.231726 -0.195029,-0.275427 -0.01673,-0.0056 -0.03435,-0.01 -0.0521,-0.0095 z" /><path
       style="color:#000000;fill:#333333;stroke-linejoin:round;stroke-miterlimit:16;-inkscape-stroke:none"
       d="m 4.7148437,31.146484 a 0.55200517,0.55200517 0 0 0 -0.3125,0.601563 l 1.2167969,6.595703 a 0.55200517,0.55200517 0 0 0 0.2011719,0.333984 l 4.1816405,3.298828 a 0.55200517,0.55200517 0 0 0 0.07227,0.04883 l 8.685547,4.86914 a 0.55200517,0.55200517 0 0 0 0.785156,-0.677734 L 18.017578,42.212891 A 0.55200517,0.55200517 0 0 0 17.789062,41.939453 L 10.197266,37.300781 5.375,31.302734 a 0.55200517,0.55200517 0 0 0 -0.6601563,-0.15625 z m 1.1699219,2.550782 3.5117188,4.371093 a 0.55200517,0.55200517 0 0 0 0.1425781,0.125 l 7.5136715,4.589844 0.917969,2.404297 -7.322265,-4.105469 -3.9824224,-3.142578 z"
       id="path938" /></g><metadata
     id="metadata6004"><rdf:RDF><cc:Work
         rdf:about=""><dc:creator><cc:Agent><dc:title>Radians</dc:title></cc:Agent></dc:creator></cc:Work></rdf:RDF></metadata></svg>
