<?xml version="1.0" encoding="UTF-8" standalone="no"?>
<!-- Created with Inkscape (http://www.inkscape.org/) -->

<svg
   width="236.95682"
   height="155.23225"
   viewBox="0 0 62.694824 41.071866"
   version="1.1"
   id="svg1"
   inkscape:version="1.3.2 (1:1.3.2+202404261509+091e20ef0f)"
   sodipodi:docname="falchion_case_residue.svg"
   xmlns:inkscape="http://www.inkscape.org/namespaces/inkscape"
   xmlns:sodipodi="http://sodipodi.sourceforge.net/DTD/sodipodi-0.dtd"
   xmlns="http://www.w3.org/2000/svg"
   xmlns:svg="http://www.w3.org/2000/svg">
  <sodipodi:namedview
     id="namedview1"
     pagecolor="#ffffff"
     bordercolor="#000000"
     borderopacity="0.25"
     inkscape:showpageshadow="2"
     inkscape:pageopacity="0.0"
     inkscape:pagecheckerboard="0"
     inkscape:deskcolor="#d1d1d1"
     inkscape:document-units="px"
     inkscape:zoom="3.6778355"
     inkscape:cx="65.255774"
     inkscape:cy="48.805881"
     inkscape:window-width="2560"
     inkscape:window-height="1368"
     inkscape:window-x="0"
     inkscape:window-y="0"
     inkscape:window-maximized="1"
     inkscape:current-layer="layer1" />
  <defs
     id="defs1" />
  <g
     inkscape:label="Στρώση 1"
     inkscape:groupmode="layer"
     id="layer1"
     transform="translate(-51.157359,-152.72467)">
    <path
       style="fill:#5e2020;fill-opacity:1;fill-rule:evenodd;stroke:#1b0909;stroke-width:0.92604165;stroke-linecap:round;stroke-linejoin:round;stroke-dasharray:none;stroke-opacity:1"
       d="m 74.778872,164.79942 -10.352402,-5.57437 0.597252,7.56522 -5.773454,2.38901 4.578948,5.97254 0.597254,7.16704 7.963384,1.59268 7.56522,-0.19908 6.569792,-2.38901 6.768884,0.59725 -3.185359,-7.36613 13.537759,8.36155 -2.18994,-9.35697 -0.59725,-5.37529 -6.17162,-0.39817 9.15789,-6.96796 -9.556059,0.59724 -5.176208,-1.79175 -8.560635,6.3707 -1.990847,-6.3707 z"
       id="path1"
       sodipodi:nodetypes="ccccccccccccccccccccc" />
    <path
       style="fill:#9e7437;fill-opacity:1;fill-rule:evenodd;stroke:#1b1409;stroke-width:0.92604165;stroke-linecap:round;stroke-linejoin:round;stroke-dasharray:none;stroke-opacity:1"
       d="m 55.666743,153.65068 -3.583524,11.14874 2.389016,-3.38444 0.199085,2.5881 2.389016,-6.37071 7.565217,1.99085 2.18993,-0.59725 4.778034,0.19908 z"
       id="path2" />
    <path
       style="fill:#9e7437;fill-opacity:1;fill-rule:evenodd;stroke:#1b1409;stroke-width:0.92604165;stroke-linecap:round;stroke-linejoin:round;stroke-dasharray:none;stroke-opacity:1"
       d="m 112.63784,188.73194 0.28831,-11.12238 -2.89852,3.71306 -1.39667,-2.18797 0.89949,6.7442 -15.971078,1.2169 6.712508,1.36077 -9.482878,2.87521 z"
       id="path2-6"
       sodipodi:nodetypes="ccccccccc" />
    <path
       style="fill:#9e7437;fill-opacity:1;fill-rule:evenodd;stroke:#1b1409;stroke-width:0.92604165;stroke-linecap:round;stroke-linejoin:round;stroke-dasharray:none;stroke-opacity:1"
       d="m 99.465368,161.2159 -14.533179,6.17162 5.574369,-0.39817 -3.384439,4.37986 10.153319,-4.77803 1.393592,-2.18993 h -4.180779 z"
       id="path3" />
    <path
       style="fill:#9e7437;fill-opacity:1;fill-rule:evenodd;stroke:#1b1409;stroke-width:0.92604165;stroke-linecap:round;stroke-linejoin:round;stroke-dasharray:none;stroke-opacity:1"
       d="m 83.676132,179.01365 -10.304143,-11.96356 2.076763,5.18837 -5.202471,-1.88995 7.642987,8.2161 2.510298,0.66052 -1.273129,-3.98221 z"
       id="path3-6" />
    <path
       style="fill:#ffffff;fill-opacity:0.196078;fill-rule:evenodd;stroke:#171717;stroke-width:1.32292;stroke-linecap:round;stroke-linejoin:round;stroke-dasharray:none;stroke-opacity:0.737662"
       d="m 65.023723,173.16098 3.185354,0.99542 -2.389016,2.18993 z"
       id="path6" />
    <path
       style="fill:#9e7437;fill-opacity:1;fill-rule:evenodd;stroke:#1b1409;stroke-width:0.92604165;stroke-linecap:round;stroke-linejoin:round;stroke-dasharray:none;stroke-opacity:1"
       d="m 61.241114,177.73992 9.356979,5.57437 -4.180777,-0.19908 1.393593,3.58352 -11.148742,-7.96339 4.578947,1.59268 -2.189931,-4.37986 z"
       id="path4" />
    <path
       style="fill:#9e7437;fill-opacity:1;fill-rule:evenodd;stroke:#1b1409;stroke-width:0.92604165;stroke-linecap:round;stroke-linejoin:round;stroke-dasharray:none;stroke-opacity:1"
       d="m 66.891929,176.94669 -2.206178,10.66581 -1.179734,-4.01581 -2.93034,2.48934 3.877487,-13.14059 -0.0069,4.84802 3.422308,-3.50239 z"
       id="path4-8" />
    <path
       style="fill:#ffffff;fill-opacity:0.6;fill-rule:evenodd;stroke:#171717;stroke-width:0.79374998;stroke-linecap:round;stroke-linejoin:round;stroke-dasharray:none;stroke-opacity:0.737662"
       d="m 60.04661,160.81774 -2.5881,6.96796 2.98627,-1.39359 4.37986,1.39359 2.38902,-2.5881 h 4.97712 z"
       id="path5" />
    <path
       style="fill:#ffffff;fill-opacity:0.6;fill-rule:evenodd;stroke:#171717;stroke-width:0.79374998;stroke-linecap:round;stroke-linejoin:round;stroke-dasharray:none;stroke-opacity:0.737662"
       d="m 98.469944,172.36464 -9.356978,0.39816 4.977116,1.59268 -0.199083,2.38902 3.583522,-0.99543 3.981689,1.19451 -1.791757,-1.99084 3.981697,-4.18078 z"
       id="path7" />
    <path
       style="fill:#ffffff;fill-opacity:0.6;fill-rule:evenodd;stroke:#171717;stroke-width:0.79374998;stroke-linecap:round;stroke-linejoin:round;stroke-dasharray:none;stroke-opacity:0.737662"
       d="m 81.54775,164.79942 -4.379862,-2.5881 0.597252,3.58352 -3.782608,3.38444 6.569795,-0.19908 0.398169,4.77803 1.791761,-4.37986 7.366132,-2.5881 z"
       id="path8" />
    <path
       style="fill:#ffffff;fill-opacity:0.6;fill-rule:evenodd;stroke:#171717;stroke-width:0.79374998;stroke-linecap:round;stroke-linejoin:round;stroke-dasharray:none;stroke-opacity:0.737662"
       d="m 81.287083,187.05679 3.368387,-4.63851 -4.629177,2.45717 -1.221271,-7.40401 -1.580454,6.37997 -3.690939,1.84151 4.548102,1.17722 2.84519,6.26514 z"
       id="path8-4"
       sodipodi:nodetypes="ccccccccc" />
  </g>
</svg>
