<?xml version="1.0" encoding="UTF-8" standalone="no"?>
<!-- Created with Inkscape (http://www.inkscape.org/) -->

<svg
   width="125"
   height="125"
   viewBox="0 0 33.072917 33.072917"
   version="1.1"
   id="svg852"
   inkscape:version="1.1.2 (0a00cf5339, 2022-02-04)"
   sodipodi:docname="gold_airdrop_crate_residue.svg"
   xmlns:inkscape="http://www.inkscape.org/namespaces/inkscape"
   xmlns:sodipodi="http://sodipodi.sourceforge.net/DTD/sodipodi-0.dtd"
   xmlns="http://www.w3.org/2000/svg"
   xmlns:svg="http://www.w3.org/2000/svg">
  <sodipodi:namedview
     id="namedview854"
     pagecolor="#505050"
     bordercolor="#ffffff"
     borderopacity="1"
     inkscape:pageshadow="0"
     inkscape:pageopacity="0"
     inkscape:pagecheckerboard="1"
     inkscape:document-units="px"
     showgrid="false"
     units="px"
     inkscape:zoom="4"
     inkscape:cx="106.75"
     inkscape:cy="32.75"
     inkscape:window-width="2560"
     inkscape:window-height="1372"
     inkscape:window-x="0"
     inkscape:window-y="0"
     inkscape:window-maximized="1"
     inkscape:current-layer="layer1" />
  <defs
     id="defs849" />
  <g
     inkscape:label="Layer 1"
     inkscape:groupmode="layer"
     id="layer1">
    <path
       id="rect846-5-6-2"
       style="fill:#4059bf;fill-opacity:1;stroke:#262673;stroke-width:0.529167;stroke-linecap:round;stroke-miterlimit:4;stroke-dasharray:none;stroke-opacity:1"
       d="M 17.928198,28.527179 3.1780273,20.011164 5.1998141,21.941819 2.4583563,21.320171 5.6315085,24.32795 1.6348427,22.774946 4.3124623,25.320429 0.79192762,24.14401 15.542098,32.660025 13.4317,29.930766 16.287422,31.08419 13.686753,28.937879 13.254111,28.030622 17.3509,29.52709 17.3594,29.51235 15.634049,27.910765 Z" />
    <path
       id="rect846-5-6-7"
       style="fill:#4059bf;fill-opacity:1;stroke:#262673;stroke-width:0.529167;stroke-linecap:round;stroke-miterlimit:4;stroke-dasharray:none;stroke-opacity:1"
       d="m 21.919722,13.017622 -16.45169,4.408216 4.4854083,-0.436347 -4.0365251,1.722733 4.9689828,-0.306267 -4.6141185,2.019508 0.00535,0.01999 4.9651325,-0.312799 -4.5390998,1.902775 16.4516898,-4.408217 -4.679326,0.220671 3.49662,-1.736884 -4.242607,0.561618 0.02884,-0.392585 2.891088,-1.193133 -0.161573,-0.613823 -0.860609,-0.03031 z" />
    <path
       id="rect846-5-6-0"
       style="fill:#4059bf;fill-opacity:1;stroke:#262673;stroke-width:0.529167;stroke-linecap:round;stroke-miterlimit:4;stroke-dasharray:none;stroke-opacity:1"
       d="m 19.048854,3.0536854 8.51536,14.7490356 -0.12027,-1.531234 0.912041,0.313598 0.130796,-0.85289 0.90194,0.351292 0.05541,-1.097077 0.849048,0.545364 -0.345008,-1.846631 1.748919,1.731458 -8.51536,-14.7490356 0.594498,2.837959 0.237899,1.688707 -0.528203,-0.100833 0.04734,0.570578 -2.079527,-2.414479 -0.987497,-0.416698 -0.18016,1.048204 z" />
    <path
       d="m 25.500058,15.174684 -7.789069,2.147174 -2.498896,4.40094 2.147308,7.789552 11.238793,-3.098143 z"
       id="path869-6"
       style="fill:#aa8534;fill-opacity:1;stroke:#5e4a1d;stroke-width:1.05833;stroke-linejoin:round;stroke-miterlimit:4;stroke-dasharray:none;stroke-opacity:1" />
    <circle
       transform="rotate(164.58833)"
       cx="-14.721306"
       cy="-27.235075"
       r="1.6222"
       id="circle24-3-7"
       style="fill:#c49d46;stroke:#4d3c19;stroke-width:1.05833;stroke-linecap:round;stroke-linejoin:round;stroke-miterlimit:4;stroke-dasharray:none;fill-opacity:1;stroke-opacity:1" />
    <path
       id="rect846-5-6-9"
       style="fill:#4059bf;fill-opacity:1;stroke:#262673;stroke-width:0.529167;stroke-linecap:round;stroke-miterlimit:4;stroke-dasharray:none;stroke-opacity:1"
       d="m 18.85482,17.476571 8.515364,14.749042 -0.650123,-2.940796 1.747298,1.231949 -0.599428,-1.638827 0.643648,-0.220259 0.688595,1.179682 0.273313,-2.170819 2.029583,2.172947 -8.515363,-14.749042 -0.657694,0.728344 -0.251983,0.642178 2.285003,5.422689 -2.516657,-4.03596 -0.482702,-0.248464 -0.324895,0.636009 1.88296,3.958548 z" />
    <path
       id="rect846-5-6"
       style="fill:#4059bf;fill-opacity:1;stroke:#262673;stroke-width:0.529167;stroke-linecap:round;stroke-miterlimit:4;stroke-dasharray:none;stroke-opacity:1"
       d="m 22.203506,2.5008836 -4.407876,16.4504194 1.030684,-1.665615 0.05261,1.103462 0.246738,0.523201 0.845719,-1.800037 0.498471,0.585611 0.301156,-0.08441 -0.104324,1.965085 1.411346,-3.11763 0.198278,1.437836 0.128955,2.287645 L 26.813139,3.7360319 25.033174,7.1741698 25.461549,3.4242888 24.366447,5.4902385 23.485924,5.0933984 22.509354,6.6025233 23.0882,2.7379374 22.073115,5.173186 Z" />
    <path
       d="M 7.8303593,2.5304491 2.6188319,8.7045825 3.0451877,13.747496 9.2197045,18.959347 16.739382,10.050732 Z"
       id="path869"
       style="fill:#aa8534;fill-opacity:1;stroke:#5e4a1d;stroke-width:1.05833;stroke-linejoin:round;stroke-miterlimit:4;stroke-dasharray:none;stroke-opacity:1" />
    <circle
       transform="rotate(130.16739)"
       cx="2.7120051"
       cy="-13.44522"
       r="1.6222"
       id="circle24-3"
       style="fill:#c49d46;stroke:#4d3c19;stroke-width:1.05833;stroke-linecap:round;stroke-linejoin:round;stroke-miterlimit:4;stroke-dasharray:none;fill-opacity:1;stroke-opacity:1" />
  </g>
</svg>
