<?xml version="1.0" encoding="UTF-8" standalone="no"?>
<svg
   xmlns:dc="http://purl.org/dc/elements/1.1/"
   xmlns:cc="http://creativecommons.org/ns#"
   xmlns:rdf="http://www.w3.org/1999/02/22-rdf-syntax-ns#"
   xmlns:svg="http://www.w3.org/2000/svg"
   xmlns="http://www.w3.org/2000/svg"
   xmlns:sodipodi="http://sodipodi.sourceforge.net/DTD/sodipodi-0.dtd"
   xmlns:inkscape="http://www.inkscape.org/namespaces/inkscape"
   width="78.601486mm"
   height="46.089756mm"
   viewBox="0 0 78.601484 46.089756"
   version="1.1"
   id="svg2430"
   sodipodi:docname="porta_potty_toilet_residue.svg"
   inkscape:version="1.0.1 (3bc2e813f5, 2020-09-07)">
  <defs
     id="defs2424">
    <radialGradient
       cx="398.7446"
       cy="128.6519"
       r="29.14535"
       gradientUnits="userSpaceOnUse"
       id="color-1-3">
      <stop
         offset="0"
         stop-color="#373d73"
         id="stop2182" />
      <stop
         offset="1"
         stop-color="#161d31"
         id="stop2184" />
    </radialGradient>
    <radialGradient
       cx="109.62613"
       cy="77.969383"
       r="8.875"
       gradientUnits="userSpaceOnUse"
       id="color-1">
      <stop
         offset="0"
         stop-color="#959eb0"
         id="stop3495" />
      <stop
         offset="1"
         stop-color="#ffffff"
         id="stop3497" />
    </radialGradient>
    <radialGradient
       cx="113.37613"
       cy="80.469383"
       r="8.875"
       gradientUnits="userSpaceOnUse"
       id="color-2">
      <stop
         offset="0"
         stop-color="#6f7683"
         id="stop3500" />
      <stop
         offset="1"
         stop-color="#d2d2d2"
         id="stop3502" />
    </radialGradient>
    <radialGradient
       cx="109.62613"
       cy="77.969383"
       r="8.875"
       gradientUnits="userSpaceOnUse"
       id="color-1-4">
      <stop
         offset="0"
         stop-color="#959eb0"
         id="stop3495-6" />
      <stop
         offset="1"
         stop-color="#ffffff"
         id="stop3497-1" />
    </radialGradient>
    <radialGradient
       cx="113.37613"
       cy="80.469383"
       r="8.875"
       gradientUnits="userSpaceOnUse"
       id="color-2-0">
      <stop
         offset="0"
         stop-color="#6f7683"
         id="stop3500-1" />
      <stop
         offset="1"
         stop-color="#d2d2d2"
         id="stop3502-7" />
    </radialGradient>
    <radialGradient
       cx="109.62613"
       cy="77.969383"
       r="8.875"
       gradientUnits="userSpaceOnUse"
       id="color-1-4-3">
      <stop
         offset="0"
         stop-color="#959eb0"
         id="stop3495-6-1" />
      <stop
         offset="1"
         stop-color="#ffffff"
         id="stop3497-1-1" />
    </radialGradient>
    <radialGradient
       cx="113.37613"
       cy="80.469383"
       r="8.875"
       gradientUnits="userSpaceOnUse"
       id="color-2-0-0">
      <stop
         offset="0"
         stop-color="#6f7683"
         id="stop3500-1-6" />
      <stop
         offset="1"
         stop-color="#d2d2d2"
         id="stop3502-7-2" />
    </radialGradient>
  </defs>
  <sodipodi:namedview
     id="base"
     pagecolor="#ffffff"
     bordercolor="#666666"
     borderopacity="1.0"
     inkscape:pageopacity="0.0"
     inkscape:pageshadow="2"
     inkscape:zoom="0.35"
     inkscape:cx="400.28289"
     inkscape:cy="588.03194"
     inkscape:document-units="mm"
     inkscape:current-layer="g3567"
     inkscape:document-rotation="0"
     showgrid="false"
     inkscape:window-width="1267"
     inkscape:window-height="1198"
     inkscape:window-x="2305"
     inkscape:window-y="254"
     inkscape:window-maximized="0"
     fit-margin-top="0"
     fit-margin-left="0"
     fit-margin-right="0"
     fit-margin-bottom="0" />
  <metadata
     id="metadata2427">
    <rdf:RDF>
      <cc:Work
         rdf:about="">
        <dc:format>image/svg+xml</dc:format>
        <dc:type
           rdf:resource="http://purl.org/dc/dcmitype/StillImage" />
        <dc:title></dc:title>
      </cc:Work>
    </rdf:RDF>
  </metadata>
  <g
     inkscape:label="Layer 1"
     inkscape:groupmode="layer"
     id="layer1"
     transform="translate(20.482188,105.04642)">
    <g
       data-paper-data="{&quot;isPaintingLayer&quot;:true}"
       fill-rule="nonzero"
       stroke-linecap="butt"
       stroke-linejoin="miter"
       stroke-miterlimit="10"
       stroke-dasharray="none"
       stroke-dashoffset="0"
       style="mix-blend-mode:normal"
       id="g3567"
       transform="matrix(0.56220298,0,0,0.56220298,-72.339679,-141.39025)">
      <path
         d=""
         fill="#1c71d8"
         stroke="#0d3565"
         stroke-width="5"
         id="path3511" />
      <g
         id="g3565"
         style="mix-blend-mode:normal"
         transform="translate(43.586676,-0.32398393)">
        <path
           d="m 54.30001,88.95 c 0,-3.17563 2.57437,-5.75 5.75,-5.75 3.17564,0 5.75,2.57437 5.75,5.75 0,3.17564 -2.57437,5.75 -5.75,5.75 -3.17563,0 -5.75,-2.57437 -5.75,-5.75 z"
           fill="#526fa3"
           stroke="#33476e"
           stroke-width="3.5"
           id="path3539" />
        <path
           d="m 54.80001,134.95 c 0,-2.8995 2.3505,-5.25 5.25,-5.25 2.8995,0 5.25,2.3505 5.25,5.25 0,2.8995 -2.3505,5.25 -5.25,5.25 -2.8995,0 -5.25,-2.3505 -5.25,-5.25 z"
           fill="#526fa3"
           stroke="#33476e"
           stroke-width="3.5"
           id="path3541" />
        <path
           d="m 79.87707,111.09439 c 0.35009,-11.42435 12.39666,-4.75128 13.92132,-13.91405 1.27626,-7.66999 -12.915,-21.39863 0.73352,-25.20342 16.08637,-4.48439 6.09995,16.74247 14.18956,21.74247 1.18567,0.73283 6.10966,3.24704 10.84549,2.83007 15.33562,-1.35024 16.94261,-27.38345 33.56877,-10.54915 18.33498,18.56452 -23.48717,16.60292 -23.57294,27.84408 -0.0488,6.38996 18.09886,9.19195 10.54022,15.52185 -8.43568,7.06436 -10.67284,-7.67336 -18.63869,-9.68447 -0.4567,-0.1153 -6.66354,-3.48278 -11.12938,-0.12877 -6.15408,4.62195 -4.3853,20.38549 -15.43239,16.19084 -6.68586,-2.53867 0.56708,-13.25985 -0.07554,-19.55949 -0.33686,-3.3023 -15.2254,3.89815 -14.94996,-5.08996 z"
           fill="#526fa3"
           stroke="#33476e"
           stroke-width="3.5"
           id="path3543" />
        <g
           fill="#000000"
           stroke="none"
           stroke-width="1"
           font-family="'Helvetica Neue', Helvetica, Arial, sans-serif"
           font-weight="400"
           font-size="16px"
           text-anchor="start"
           id="g3545" />
        <path
           d="M 69.74048,90.45328 82.1816,71.40647 88.6157,102.78232 Z"
           fill="#5e5e5e"
           stroke="#3f3f3f"
           stroke-width="3.5"
           id="path3547" />
        <path
           d="m 166.65215,127.33181 -8.39579,-2.792 5.16313,-8.09838 -9.09607,-8.22937 20.20386,-0.67758 11.07237,7.57966 -11.60086,10.02006 z"
           fill="#5e5e5e"
           stroke="#3f3f3f"
           stroke-width="3.5"
           id="path3549" />
        <path
           d="m 56.87613,131.46939 c -2.16964,-2.03134 -7.23228,-5.12413 -6.38007,-9.52721 0.85221,-4.40307 7.16596,-1.99133 9.38007,-5.97279 2.21411,-3.98147 -4.38111,-2.96797 -3,-5.5 1.38111,-2.53203 5.26198,-8.25 10.5,-8.25 5.23802,0 6.42934,4.15579 9.5,8.25 3.07066,4.09421 4.86035,6.14032 4.75,10.75 -0.11035,4.60968 -3.89243,1.19943 -5.09834,3.80166 -1.20591,2.60222 2.41567,4.90445 0.34834,6.44834 -2.06733,1.5439 -7.76986,3 -13,3 -5.23014,0 -4.83036,-0.96866 -7,-3 z"
           fill="#5e5e5e"
           stroke="#3f3f3f"
           stroke-width="3.5"
           id="path3551" />
        <path
           d="m 98.37613,80.21938 -3.5,-14 h 14.25 l 3.5,14.25 z"
           fill="url(#color-1)"
           stroke="url(#color-2)"
           stroke-width="2.5"
           id="path3553"
           style="fill:url(#color-1-4-3);stroke:url(#color-2-0-0)" />
        <path
           d="m 92.04073,135.50563 -7.5,-8.5 5,-11.5 7.5,-7.5 5.60267,5.70848 9.39733,1.79152 6.5,15 -6.5,7.5 -10,-1 z"
           fill="#5e5e5e"
           stroke="#3f3f3f"
           stroke-width="3.5"
           id="path3555" />
        <path
           d="m 127.77766,81.13528 7.37174,2.72816 3.31257,0.13609 -0.71461,-9.95808 11.53254,10.45191 3.08503,10.0917 -5.51935,1.19683 -4.45034,5.89699 -4.14242,2.49242 -4.16175,-14.35977 z"
           fill="#5e5e5e"
           stroke="#3f3f3f"
           stroke-width="3.5"
           id="path3557" />
        <path
           d="m 104.20216,91.71179 c 0,0 1.43495,-5.57761 3.37241,-7.83934 2.21153,-2.58168 9.18367,-6.81825 9.18367,-6.81825 l 16.89702,7.53264 c 0,0 -5.89408,4.62553 -7.26843,7.70843 -1.17205,2.62911 -0.46779,9.64527 -0.46779,9.64527 0,0 -3.70798,5.41385 -5.38885,4.62216 -1.78277,-0.83969 -2.88572,-9.07922 -6.37098,-12.42555 -3.81886,-3.66664 -9.95706,-2.42536 -9.95706,-2.42536 z"
           fill="#1e1e1e"
           stroke="#000000"
           stroke-width="4.99333"
           id="path3559" />
        <path
           d="m 128.39073,138.53063 2.19261,-6.92324 -6.94261,-7.32676 4.75,-8.5 8.58266,4.05515 11.65485,-10.6799 4.7625,6.12475 c 0,0 0.5,8.93773 0.5,12.75 0,1.87518 -1.38438,5.78593 -4.47549,8.74115 -3.1245,2.98714 -7.96565,5.00885 -9.77451,5.00885 -3.80656,0 -11.25,-3.25 -11.25,-3.25 z"
           fill="#1e1e1e"
           stroke="#000000"
           stroke-width="4.99333"
           id="path3561" />
        <path
           d="m 154.30002,139.95001 c 0,-2.8995 2.3505,-5.25 5.25,-5.25 2.8995,0 5.25,2.3505 5.25,5.25 0,2.8995 -2.3505,5.25 -5.25,5.25 -2.8995,0 -5.25,-2.3505 -5.25,-5.25 z"
           fill="#526fa3"
           stroke="#33476e"
           stroke-width="3.5"
           id="path3563" />
      </g>
    </g>
  </g>
</svg>
