<?xml version="1.0" encoding="UTF-8" standalone="no"?>
<!-- Created with Inkscape (http://www.inkscape.org/) -->

<svg
   width="161.65999"
   height="127.4844"
   viewBox="0 0 42.772539 33.730247"
   version="1.1"
   id="svg1"
   inkscape:version="1.3.2 (1:1.3.2+202404261509+091e20ef0f)"
   sodipodi:docname="sink2_residue.svg"
   xmlns:inkscape="http://www.inkscape.org/namespaces/inkscape"
   xmlns:sodipodi="http://sodipodi.sourceforge.net/DTD/sodipodi-0.dtd"
   xmlns="http://www.w3.org/2000/svg"
   xmlns:svg="http://www.w3.org/2000/svg">
  <sodipodi:namedview
     id="namedview1"
     pagecolor="#505050"
     bordercolor="#ffffff"
     borderopacity="1"
     inkscape:showpageshadow="0"
     inkscape:pageopacity="0"
     inkscape:pagecheckerboard="1"
     inkscape:deskcolor="#d1d1d1"
     inkscape:document-units="px"
     inkscape:zoom="4.1154392"
     inkscape:cx="75.56909"
     inkscape:cy="64.513162"
     inkscape:window-width="2560"
     inkscape:window-height="1368"
     inkscape:window-x="0"
     inkscape:window-y="0"
     inkscape:window-maximized="1"
     inkscape:current-layer="layer1" />
  <defs
     id="defs1">
    <inkscape:path-effect
       effect="spiro"
       id="path-effect9"
       is_visible="true"
       lpeversion="1" />
    <inkscape:path-effect
       effect="spiro"
       id="path-effect8"
       is_visible="true"
       lpeversion="1" />
    <inkscape:path-effect
       effect="spiro"
       id="path-effect7"
       is_visible="true"
       lpeversion="1" />
    <inkscape:path-effect
       effect="spiro"
       id="path-effect6"
       is_visible="true"
       lpeversion="1" />
    <inkscape:path-effect
       effect="spiro"
       id="path-effect5"
       is_visible="true"
       lpeversion="1" />
  </defs>
  <g
     inkscape:label="Layer 1"
     inkscape:groupmode="layer"
     id="layer1"
     transform="translate(-70.876373,-135.10169)">
    <path
       style="opacity:0.600375;fill:#5081d7;fill-opacity:1;stroke:#2354b3;stroke-width:0.529167;stroke-linecap:butt;stroke-linejoin:miter;stroke-dasharray:none;stroke-opacity:1"
       d="m 91.290687,111.21086 c 0.525935,-0.90583 1.201388,-1.72943 2.017166,-2.38643 0.815777,-0.657 1.773729,-1.14475 2.796076,-1.37268 1.022346,-0.22793 2.108654,-0.19104 3.099179,0.14955 0.990522,0.3406 1.879652,0.98992 2.468632,1.85609 0.74619,1.09735 0.97782,2.45726 1.12904,3.77564 0.15121,1.31837 0.24732,2.67103 0.77573,3.88831 0.53401,1.23017 1.4815,2.25128 1.97438,3.4985 0.24643,0.62361 0.37323,1.31012 0.25056,1.96934 -0.0613,0.32961 -0.18518,0.64898 -0.37451,0.92567 -0.18933,0.2767 -0.44502,0.50979 -0.74484,0.65984 -0.31671,0.1585 -0.67765,0.22179 -1.03111,0.19948 -0.35346,-0.0223 -0.69935,-0.1285 -1.01382,-0.29142 -0.62894,-0.32583 -1.12162,-0.86752 -1.52115,-1.45242 -0.39952,-0.5849 -0.71836,-1.2206 -1.09114,-1.82289 -0.372787,-0.60229 -0.809781,-1.18107 -1.389094,-1.58865 -0.510913,-0.35946 -1.113364,-0.57131 -1.725063,-0.69807 -0.611699,-0.12675 -1.23683,-0.17218 -1.859261,-0.22531 -0.62243,-0.0531 -1.24733,-0.11476 -1.851737,-0.27267 -0.604406,-0.1579 -1.191835,-0.41703 -1.663307,-0.82685 -0.408996,-0.35552 -0.720848,-0.81762 -0.919543,-1.32179 -0.198694,-0.50417 -0.285814,-1.04952 -0.277824,-1.59137 0.01598,-1.08371 0.407434,-2.13457 0.951636,-3.07187 z"
       id="path5"
       inkscape:path-effect="#path-effect5"
       inkscape:original-d="m 91.290687,111.21086 c -0.10916,-2.00102 6.893784,-1.1545 10.381053,-1.75347 3.48727,-0.59898 1.22699,5.11625 1.90477,7.66395 0.67778,2.54771 0.77992,4.71917 1.10559,7.05335 0.32567,2.33418 -4.03088,-3.38504 -6.046314,-4.9559 -2.01544,-1.57086 -4.732911,-1.30586 -7.099368,-2.0229 -2.366456,-0.71704 -0.13705,-3.99278 -0.245731,-5.98503 z"
       sodipodi:nodetypes="scsssss"
       transform="translate(2.7754953,28.900428)" />
    <path
       style="opacity:0.600375;fill:#5081d7;fill-opacity:1;stroke:#2354b3;stroke-width:0.529167;stroke-linecap:butt;stroke-linejoin:miter;stroke-dasharray:none;stroke-opacity:1"
       d="m 92.39891,111.2148 c 0.683841,-0.32574 1.469301,-0.41998 2.21789,-0.3044 0.748589,0.11558 1.459637,0.43603 2.067107,0.8885 0.312348,0.23265 0.601244,0.50301 0.816497,0.82759 0.215253,0.32458 0.354114,0.70686 0.351924,1.09632 -0.0017,0.30513 -0.09494,0.61634 -0.29647,0.84545 -0.100764,0.11456 -0.227441,0.20707 -0.369443,0.26286 -0.142002,0.0558 -0.299296,0.0742 -0.449432,0.0471 -0.204386,-0.0369 -0.387031,-0.1557 -0.532972,-0.30348 -0.145942,-0.14778 -0.259081,-0.32422 -0.368124,-0.50098 -0.109043,-0.17677 -0.215866,-0.35634 -0.351689,-0.51347 -0.135824,-0.15713 -0.304112,-0.2924 -0.501815,-0.35605 -0.240931,-0.0776 -0.507615,-0.0421 -0.741929,0.0536 -0.234314,0.0957 -0.440929,0.24789 -0.637349,0.40752 -0.19642,0.15963 -0.386182,0.32887 -0.598931,0.46599 -0.212748,0.13712 -0.452911,0.24218 -0.705594,0.25685 -0.186126,0.0108 -0.374422,-0.0285 -0.542538,-0.10907 -0.168116,-0.0806 -0.315949,-0.20206 -0.430931,-0.34882 -0.229965,-0.29352 -0.322251,-0.68373 -0.279094,-1.05411 0.04316,-0.37037 0.215401,-0.71975 0.459287,-1.00181 0.243887,-0.28206 0.556967,-0.49923 0.893606,-0.65958 z"
       id="path6"
       inkscape:path-effect="#path-effect6"
       inkscape:original-d="m 92.39891,111.2148 c 0.01166,-1.01622 2.835234,0.40011 4.284997,0.5841 1.449764,0.18398 0.768988,1.2826 1.168421,1.92391 0.399434,0.6413 -0.722886,0.75953 -1.115345,1.15537 -0.392457,0.39584 -1.20182,-1.10527 -1.7546,-1.67398 -0.552784,-0.56871 -1.767832,0.78933 -2.683803,1.18399 -0.915971,0.39467 0.08792,-2.09154 0.10033,-3.17339 z"
       sodipodi:nodetypes="scssscs"
       transform="rotate(36.507962,39.731338,139.99407)" />
    <path
       fill="#000000"
       fill-opacity="0"
       d="m 88.409466,144.18955 v 0 c 0,-1.74706 1.41626,-3.16332 3.16332,-3.16332 h 18.912804 c 0.83896,0 1.64358,0.33326 2.2368,0.92651 0.59325,0.59323 0.92652,1.39784 0.92652,2.23681 v 12.65292 c 0,1.74705 -1.41626,3.16332 -3.16332,3.16332 H 91.572786 v 0 c -1.74706,0 -3.16332,-1.41627 -3.16332,-3.16332 z"
       fill-rule="evenodd"
       id="path4908"
       style="stroke:none;stroke-width:0.488332;stroke-linecap:square;stroke-miterlimit:10" />
    <path
       id="rect3"
       style="opacity:1;fill:#e5e0db;fill-opacity:1;stroke:#272727;stroke-width:0.529167;stroke-linecap:square;stroke-dasharray:none;stroke-opacity:1"
       d="m 74.431642,165.52408 6.364667,2.88673 -0.126268,-2.31508 -0.950843,-1.39534 2.370773,-1.31247 0.400026,-0.7832 1.193017,-0.55859 -0.406147,-0.18421 -2.818506,-0.13497 -1.387424,-1.77266 -1.75259,-0.79489 1.376252,3.16347 -2.332688,1.03582 0.414155,1.08609 z" />
    <path
       style="opacity:0.499853;fill:#5081d7;fill-opacity:1;stroke:#2354b3;stroke-width:0.529167;stroke-linecap:square;stroke-dasharray:none;stroke-opacity:1"
       d="m 74.906652,137.48998 c 0.972356,-0.4379 2.056553,-0.61953 3.119945,-0.53935 1.063392,0.0802 2.104307,0.42047 3.018612,0.96935 1.82861,1.09778 3.105202,3.02798 3.525436,5.11899 0.335911,1.67144 0.153669,3.39997 -0.07697,5.08915 -0.230634,1.68919 -0.509243,3.39163 -0.361971,5.09011 0.05815,0.67064 0.182587,1.33669 0.186825,2.00984 0.0042,0.67314 -0.123576,1.37178 -0.519824,1.91596 -0.281922,0.38717 -0.689773,0.67697 -1.141021,0.83746 -0.451248,0.16049 -0.943958,0.19396 -1.416951,0.11873 -0.945987,-0.15044 -1.786075,-0.72521 -2.414183,-1.4484 -1.256217,-1.44639 -1.714735,-3.40731 -2.671446,-5.06707 -0.70805,-1.22837 -1.681201,-2.27795 -2.575017,-3.37854 -0.893817,-1.1006 -1.730672,-2.29496 -2.090402,-3.66639 -0.360154,-1.37304 -0.205767,-2.87286 0.41666,-4.14862 0.622428,-1.27575 1.706005,-2.31833 3.000303,-2.90122 z"
       id="path7"
       inkscape:path-effect="#path-effect8"
       inkscape:original-d="m 74.906652,137.48998 c 1.138988,-2.40856 6.442662,3.68467 9.663993,5.54899 3.22133,1.86431 -0.308062,6.77102 -0.438937,10.17926 -0.130874,3.40825 -0.206562,2.63235 -0.332999,3.9258 -0.126437,1.29345 -5.581428,-3.40412 -7.643601,-5.55928 -2.062172,-2.15515 -2.579184,-5.06667 -4.665419,-7.04493 -2.086236,-1.97826 2.277975,-4.7292 3.416963,-7.04984 z"
       transform="rotate(160.94211,78.944008,148.00363)"
       sodipodi:nodetypes="ccsscsc" />
    <path
       style="opacity:0.499853;fill:#5081d7;fill-opacity:1;stroke:#2354b3;stroke-width:0.529167;stroke-linecap:square;stroke-dasharray:none;stroke-opacity:1"
       d="m 74.882273,136.51096 c -0.369185,-0.57385 -0.511903,-1.28444 -0.417934,-1.96029 0.09397,-0.67585 0.419455,-1.31347 0.893563,-1.80421 0.474107,-0.49075 1.09256,-0.83544 1.753284,-1.00588 0.660724,-0.17044 1.361901,-0.16902 2.028121,-0.0215 1.33244,0.29501 2.492794,1.16398 3.320523,2.24901 0.82773,1.08503 1.347513,2.37633 1.71122,3.69168 0.365412,1.32152 0.583086,2.70586 0.406007,4.06548 -0.09229,0.70862 -0.293984,1.4088 -0.64963,2.02862 -0.355645,0.61981 -0.870834,1.15688 -1.506238,1.48386 -0.635404,0.32699 -1.393498,0.43267 -2.079766,0.23345 -0.343134,-0.0996 -0.665349,-0.27365 -0.931567,-0.51196 -0.266219,-0.23831 -0.475588,-0.54108 -0.597187,-0.87705 -0.225056,-0.62182 -0.141876,-1.30767 -0.04975,-1.96252 0.09212,-0.65484 0.188344,-1.33622 -0.01357,-1.96594 -0.137463,-0.42872 -0.407266,-0.80621 -0.728865,-1.12128 -0.321598,-0.31507 -0.694914,-0.57209 -1.074002,-0.81496 -0.758177,-0.48574 -1.577035,-0.94925 -2.064209,-1.7065 z"
       id="path8"
       inkscape:path-effect="#path-effect9"
       inkscape:original-d="m 74.882273,136.51096 c 7.108963,-4.20307 6.177087,0.79609 9.288777,1.1488 3.111691,0.3527 0.301543,2.69516 0.406007,4.06548 0.104463,1.37031 -3.839812,1.55612 -5.764388,2.35692 -1.924577,0.80079 0.02841,-2.5133 -0.06332,-3.92846 -0.04819,-0.7434 -7.208553,-1.66714 -3.867076,-3.64274 z"
       transform="rotate(104.46764,77.278748,156.29124)"
       sodipodi:nodetypes="scscss" />
    <path
       id="rect2"
       style="opacity:1;fill:#e5e0db;fill-opacity:1;stroke:#272727;stroke-width:0.529167;stroke-linecap:square;stroke-dasharray:none;stroke-opacity:1"
       d="m 76.006304,143.30035 0.560311,4.10052 -3.25405,-1.63997 -0.445265,0.40672 0.790574,3.53044 -2.586148,-1.89031 2.835207,3.10391 2.495421,0.62937 0.852801,3.03616 1.271779,-3.0227 1.737881,0.27358 -0.150527,-1.28119 2.075445,-0.47709 -3.65113,-0.9966 -1.979196,-5.16732 z" />
    <g
       id="g1"
       transform="rotate(51.726696,98.802178,163.13653)">
      <path
         fill="#666666"
         d="m 77.955456,145.87474 h 3.614434 v 8.27472 h -3.614434 z"
         fill-rule="evenodd"
         id="path4912"
         style="stroke:none;stroke-width:0.488332;stroke-linecap:square;stroke-miterlimit:10" />
      <path
         stroke="#272727"
         stroke-width="1.95333"
         stroke-linejoin="round"
         stroke-linecap="butt"
         d="m 77.955456,145.87474 h 3.614434 v 8.27472 h -3.614434 z"
         fill-rule="evenodd"
         id="path4914"
         style="fill:none;stroke-miterlimit:10" />
    </g>
    <g
       id="g3"
       transform="translate(11.951031,15.363343)">
      <path
         fill="#666666"
         d="m 88.988796,139.35284 v 0 c 0,-2.285 1.78694,-4.13736 3.99127,-4.13736 v 0 c 1.05853,0 2.07372,0.4359 2.82223,1.21179 0.74849,0.77591 1.16901,1.82827 1.16901,2.92557 v 0 c 0,2.285 -1.78695,4.13736 -3.99124,4.13736 v 0 c -2.20433,0 -3.99127,-1.85236 -3.99127,-4.13736 z"
         fill-rule="evenodd"
         id="path4920"
         style="stroke:none;stroke-width:0.488332;stroke-linecap:square;stroke-miterlimit:10" />
      <path
         stroke="#272727"
         stroke-width="1.95333"
         stroke-linejoin="round"
         stroke-linecap="butt"
         d="m 88.988796,139.35284 v 0 c 0,-2.285 1.78694,-4.13736 3.99127,-4.13736 v 0 c 1.05853,0 2.07372,0.4359 2.82223,1.21179 0.74849,0.77591 1.16901,1.82827 1.16901,2.92557 v 0 c 0,2.285 -1.78695,4.13736 -3.99124,4.13736 v 0 c -2.20433,0 -3.99127,-1.85236 -3.99127,-4.13736 z"
         fill-rule="evenodd"
         id="path4922"
         style="fill:none;stroke-miterlimit:10" />
      <path
         fill="#990000"
         d="m 90.865226,139.35229 v 0 c 0,-1.12551 0.94685,-2.03792 2.11484,-2.03792 v 0 c 0.56087,0 1.09878,0.21471 1.49539,0.59688 0.3966,0.38219 0.61942,0.90055 0.61942,1.44104 v 0 c 0,1.12551 -0.94685,2.03791 -2.11481,2.03791 v 0 c -1.16799,0 -2.11484,-0.9124 -2.11484,-2.03791 z"
         fill-rule="evenodd"
         id="path4924"
         style="stroke:none;stroke-width:0.488332;stroke-linecap:square;stroke-miterlimit:10" />
    </g>
    <g
       id="g2"
       transform="translate(-19.74676,7.8749041)">
      <path
         fill="#666666"
         d="m 105.08709,139.35284 v 0 c 0,-2.285 1.78694,-4.13736 3.99124,-4.13736 v 0 c 1.05856,0 2.07375,0.4359 2.82226,1.21179 0.74849,0.77591 1.16901,1.82827 1.16901,2.92557 v 0 c 0,2.285 -1.78694,4.13736 -3.99127,4.13736 v 0 c -2.2043,0 -3.99124,-1.85236 -3.99124,-4.13736 z"
         fill-rule="evenodd"
         id="path4916"
         style="stroke:none;stroke-width:0.488332;stroke-linecap:square;stroke-miterlimit:10" />
      <path
         stroke="#272727"
         stroke-width="1.95333"
         stroke-linejoin="round"
         stroke-linecap="butt"
         d="m 105.08709,139.35284 v 0 c 0,-2.285 1.78694,-4.13736 3.99124,-4.13736 v 0 c 1.05856,0 2.07375,0.4359 2.82226,1.21179 0.74849,0.77591 1.16901,1.82827 1.16901,2.92557 v 0 c 0,2.285 -1.78694,4.13736 -3.99127,4.13736 v 0 c -2.2043,0 -3.99124,-1.85236 -3.99124,-4.13736 z"
         fill-rule="evenodd"
         id="path4918"
         style="fill:none;stroke-miterlimit:10" />
      <path
         fill="#3c78d8"
         d="m 106.96352,139.35229 v 0 c 0,-1.12551 0.94339,-2.03792 2.10713,-2.03792 v 0 c 0.55885,0 1.0948,0.21471 1.48997,0.59688 0.39516,0.38219 0.61716,0.90055 0.61716,1.44104 v 0 c 0,1.12551 -0.9434,2.03791 -2.10713,2.03791 v 0 c -1.16374,0 -2.10713,-0.9124 -2.10713,-2.03791 z"
         fill-rule="evenodd"
         id="path4926"
         style="stroke:none;stroke-width:0.488332;stroke-linecap:square;stroke-miterlimit:10" />
    </g>
    <path
       d="m 110.51528,141.75276 -3.87902,-0.26616 -3.05484,-2.50672 -0.29273,3.00186 -0.97572,1.19155 -1.50444,2.74045 1.89899,-0.72935 1.05778,1.04023 1.79707,0.12814 2.18002,2.33389 0.30326,-2.00811 -1.11417,-3.535 z"
       fill="#e5e0db"
       stroke="#272727"
       stroke-width="0.529167"
       stroke-linecap="round"
       id="path2"
       style="stroke-width:0.529167;stroke-dasharray:none" />
    <path
       d="m 94.514242,165.87727 0.790161,-2.24091 0.793203,-2.07762 1.530928,-0.5891 1.55211,-0.92283 -2.807823,-0.31921 -1.48886,-2.18458 -1.533507,-2.1627 0.06463,2.01892 -0.103336,1.3828 -1.247044,0.30845 -0.791872,0.99515 -0.04029,1.71916 1.304602,-0.0579 0.457796,1.8577 0.97004,-0.19392 0.117842,0.91376 -0.297711,0.96904 z"
       fill="#e5e0db"
       stroke="#272727"
       stroke-width="0.529167"
       stroke-linecap="round"
       id="path3" />
    <path
       d="m 88.442499,139.54854 -2.805265,4.18714 1.093325,-0.64777 0.69035,1.58963 2.07614,0.72164 0.32733,1.14177 2.80527,-4.18714 -1.43246,0.77884 -0.71597,-1.5421 -2.09014,-0.3628 z"
       fill="#e5e0db"
       stroke="#272727"
       stroke-width="0.529167"
       stroke-linecap="round"
       id="path4" />
  </g>
</svg>
