<?xml version="1.0" encoding="UTF-8" standalone="no"?>
<svg
   width="113.38583"
   height="325.13626"
   viewBox="0 0 30 86.025636"
   version="1.1"
   id="svg76803"
   inkscape:version="1.3 (0e150ed, 2023-07-21)"
   sodipodi:docname="tv_residue.svg"
   xmlns:inkscape="http://www.inkscape.org/namespaces/inkscape"
   xmlns:sodipodi="http://sodipodi.sourceforge.net/DTD/sodipodi-0.dtd"
   xmlns="http://www.w3.org/2000/svg"
   xmlns:svg="http://www.w3.org/2000/svg"
   xmlns:rdf="http://www.w3.org/1999/02/22-rdf-syntax-ns#"
   xmlns:cc="http://creativecommons.org/ns#"
   xmlns:dc="http://purl.org/dc/elements/1.1/">
  <defs
     id="defs76797">
    <inkscape:path-effect
       effect="spiro"
       id="path-effect7633"
       is_visible="true"
       lpeversion="1" />
    <inkscape:path-effect
       effect="spiro"
       id="path-effect4855"
       is_visible="true"
       lpeversion="1" />
    <inkscape:path-effect
       effect="spiro"
       id="path-effect4851"
       is_visible="true"
       lpeversion="1" />
    <inkscape:path-effect
       effect="spiro"
       id="path-effect4847"
       is_visible="true"
       lpeversion="1" />
  </defs>
  <sodipodi:namedview
     id="base"
     pagecolor="#505050"
     bordercolor="#666666"
     borderopacity="1.0"
     inkscape:pageopacity="0"
     inkscape:pageshadow="2"
     inkscape:zoom="5.6632643"
     inkscape:cx="16.509913"
     inkscape:cy="213.21625"
     inkscape:document-units="mm"
     inkscape:current-layer="layer1"
     inkscape:document-rotation="0"
     showgrid="false"
     fit-margin-top="0"
     fit-margin-left="0"
     fit-margin-right="0"
     fit-margin-bottom="0"
     inkscape:window-width="1440"
     inkscape:window-height="900"
     inkscape:window-x="0"
     inkscape:window-y="0"
     inkscape:window-maximized="0"
     inkscape:pagecheckerboard="1"
     inkscape:showpageshadow="2"
     inkscape:deskcolor="#d1d1d1" />
  <metadata
     id="metadata76800">
    <rdf:RDF>
      <cc:Work
         rdf:about="">
        <dc:format>image/svg+xml</dc:format>
        <dc:type
           rdf:resource="http://purl.org/dc/dcmitype/StillImage" />
      </cc:Work>
    </rdf:RDF>
  </metadata>
  <g
     inkscape:label="Layer 1"
     inkscape:groupmode="layer"
     id="layer1"
     transform="translate(-149.85614,-117.5619)">
    <rect
       style="display:inline;fill:#1a1a1a;fill-opacity:1;stroke-width:1.475;paint-order:markers stroke fill;stroke-dasharray:none;stroke:#000000;stroke-opacity:1"
       id="rect14270"
       width="4.1023607"
       height="28.246449"
       x="103.72138"
       y="206.09319"
       ry="0.40375993"
       transform="rotate(-15)" />
    <rect
       style="display:inline;fill:#333333;fill-opacity:1;stroke-width:0.201479;paint-order:markers stroke fill"
       id="rect14270-1"
       width="2.245666"
       height="27.603476"
       x="103.89431"
       y="206.39548"
       ry="0.18881342"
       transform="rotate(-15)" />
    <rect
       style="display:inline;fill:#1a1a1a;fill-opacity:1;stroke-width:1.546;paint-order:markers stroke fill;stroke:#000000;stroke-opacity:1;stroke-dasharray:none"
       id="rect986"
       width="4.1023607"
       height="22.555437"
       x="185.82339"
       y="77.645782"
       ry="0.32241157"
       transform="rotate(15)" />
    <rect
       style="display:inline;fill:#333333;fill-opacity:1;stroke-width:0.180042;paint-order:markers stroke fill"
       id="rect988"
       width="2.245666"
       height="22.042007"
       x="185.99632"
       y="77.887161"
       ry="0.15077186"
       transform="rotate(15)" />
    <path
       id="rect1012"
       style="fill:#3e3e3e;fill-opacity:1;stroke:#0a0a0a;stroke-width:0.629;stroke-linecap:square;stroke-opacity:1;stroke-dasharray:none"
       d="m 158.2543,152.64415 0.64285,0.87333 0.0858,0.42013 -0.3576,0.3607 0.4656,0.39377 -0.83664,0.63304 h 2.68046 l -0.24288,-0.74207 -0.63666,-0.4439 0.87954,-0.75861 v -0.73639 c -0.40471,1.21153 -0.3846,1.09226 -1.17151,0.18758 l -0.61133,0.78548 z"
       sodipodi:nodetypes="cccccccccccccc" />
    <path
       id="rect1012-7"
       style="fill:#3e3e3e;fill-opacity:1;stroke:#0a0a0a;stroke-width:0.629;stroke-linecap:square;stroke-opacity:1;stroke-dasharray:none"
       d="m 158.5062,168.60487 0.0868,0.15037 0.95695,0.22502 0.12043,0.52897 1.35796,0.73459 1.13986,-0.6581 -0.91164,-0.31501 0.25406,-0.82395 -0.13746,-0.23809 -0.47983,-0.48795 -0.0654,-0.45634 -0.35027,0.85265 -0.65415,-0.0943 -0.40802,0.69683 z m 2.11525,1.52123 -0.2559,0.50039 0.60596,-0.34985 z" />
    <path
       id="rect1012-3"
       style="fill:#3e3e3e;fill-opacity:1;stroke:#0a0a0a;stroke-width:0.629;stroke-linecap:square;stroke-opacity:1;stroke-dasharray:none"
       d="m 151.32863,158.19255 0.14561,0.52085 -0.30051,0.84091 -0.53045,0.31312 -0.0327,0.71506 -0.62215,-0.0686 2.32179,1.34049 -0.37868,-0.70733 0.74132,-0.05 -0.23092,-0.36485 0.067,-0.42613 0.47857,-0.004 0.01,-0.60947 0.65296,-0.15945 -1.07734,0.21339 -0.041,-0.85909 -0.0322,-0.0186 -0.68241,0.0637 z" />
    <rect
       style="display:inline;fill:#333333;fill-opacity:1;stroke-width:1.574;paint-order:markers stroke fill;stroke:#000000;stroke-opacity:1;stroke-dasharray:none"
       id="rect14270-1-5-7"
       width="5.1581984"
       height="1.6360617"
       x="193.36165"
       y="97.952484"
       ry="0.011190997"
       inkscape:transform-center-y="-3.5995471"
       transform="rotate(15)"
       inkscape:transform-center-x="-0.96449342" />
    <rect
       style="display:inline;fill:#333333;fill-opacity:1;stroke-width:1.574;paint-order:markers stroke fill;stroke:#000000;stroke-opacity:1;stroke-dasharray:none"
       id="rect14270-1-5-7-5"
       width="5.1581984"
       height="1.6360617"
       x="-13.398359"
       y="242.8457"
       ry="0.011190997"
       inkscape:transform-center-y="-2.6350546"
       transform="rotate(-45)"
       inkscape:transform-center-x="2.6350559" />
    <path
       style="color:#000000;fill:#008aff;stroke-linecap:round;stroke:#000102;stroke-opacity:1;stroke-width:0.3;stroke-dasharray:none"
       d="m 144.36719,151.57617 a 0.25,0.25 0 0 0 -0.31641,0.16016 0.25,0.25 0 0 0 0.16016,0.31445 c 1.13904,0.37557 2.10551,1.27703 2.56054,2.38672 0.14528,0.35428 0.24144,0.72897 0.28516,1.10937 a 0.25,0.25 0 0 0 0.27734,0.21875 0.25,0.25 0 0 0 0.21875,-0.27734 c -0.049,-0.42618 -0.1556,-0.84332 -0.31836,-1.24023 -0.51275,-1.25046 -1.58365,-2.24867 -2.86718,-2.67188 z"
       id="path4845"
       transform="translate(8.635222)" />
    <path
       style="color:#000000;fill:#ff7500;stroke-linecap:round;stroke:#000102;stroke-opacity:1;stroke-width:0.3;stroke-dasharray:none"
       d="m 148.4707,160.29102 a 0.25,0.25 0 0 0 -0.18554,0.043 c -1.29617,0.93734 -2.34918,2.20343 -3.03516,3.64844 -0.68598,1.44502 -1.00132,3.0633 -0.9082,4.66016 0.0163,0.27953 0.0452,0.55696 0.0859,0.83398 a 0.25,0.25 0 0 0 0.28321,0.21094 0.25,0.25 0 0 0 0.21093,-0.2832 c -0.0386,-0.26254 -0.0666,-0.52611 -0.082,-0.79102 -0.0882,-1.51172 0.21192,-3.04805 0.86133,-4.41601 0.64941,-1.36797 1.6499,-2.56968 2.87695,-3.45704 a 0.25,0.25 0 0 0 0.0566,-0.34961 0.25,0.25 0 0 0 -0.16407,-0.0996 z"
       id="path7631"
       transform="translate(8.635222)" />
  </g>
</svg>
