<?xml version="1.0" encoding="UTF-8" standalone="no"?>
<svg
   width="112.52496"
   height="78.594368"
   viewBox="0 0 29.772229 20.794759"
   version="1.1"
   id="svg1408"
   sodipodi:docname="chair_residue.svg"
   inkscape:version="1.3 (0e150ed6c4, 2023-07-21)"
   inkscape:export-filename="treasure_pirate_chest_residue.svg"
   inkscape:export-xdpi="96"
   inkscape:export-ydpi="96"
   xmlns:inkscape="http://www.inkscape.org/namespaces/inkscape"
   xmlns:sodipodi="http://sodipodi.sourceforge.net/DTD/sodipodi-0.dtd"
   xmlns="http://www.w3.org/2000/svg"
   xmlns:svg="http://www.w3.org/2000/svg"
   xmlns:rdf="http://www.w3.org/1999/02/22-rdf-syntax-ns#"
   xmlns:cc="http://creativecommons.org/ns#"
   xmlns:dc="http://purl.org/dc/elements/1.1/">
  <defs
     id="defs1402" />
  <sodipodi:namedview
     id="base"
     pagecolor="#505050"
     bordercolor="#666666"
     borderopacity="1.0"
     inkscape:pageopacity="0"
     inkscape:pageshadow="2"
     inkscape:zoom="5.3174432"
     inkscape:cx="57.170333"
     inkscape:cy="41.655358"
     inkscape:document-units="px"
     inkscape:current-layer="layer1"
     inkscape:document-rotation="0"
     showgrid="false"
     fit-margin-top="0"
     fit-margin-left="0"
     fit-margin-right="0"
     fit-margin-bottom="0"
     inkscape:window-width="2560"
     inkscape:window-height="1369"
     inkscape:window-x="-8"
     inkscape:window-y="-8"
     inkscape:window-maximized="1"
     inkscape:pagecheckerboard="1"
     units="px"
     height="133.607px"
     inkscape:showpageshadow="2"
     inkscape:deskcolor="#d1d1d1" />
  <metadata
     id="metadata1405">
    <rdf:RDF>
      <cc:Work
         rdf:about="">
        <dc:format>image/svg+xml</dc:format>
        <dc:type
           rdf:resource="http://purl.org/dc/dcmitype/StillImage" />
      </cc:Work>
    </rdf:RDF>
  </metadata>
  <g
     inkscape:label="Layer 1"
     inkscape:groupmode="layer"
     id="layer1"
     transform="translate(-82.925278,-94.9506)">
    <path
       id="rect998"
       style="fill:#a87e5a;fill-opacity:1;stroke:#63462c;stroke-width:0.529167;stroke-linecap:square;stroke-opacity:1"
       d="m 84.400645,104.08682 6.449629,-1.73024 -3.746008,2.58403 3.265408,-1.14476 -3.212672,2.33578 2.056006,-0.38388 -2.58552,2.19628 15.428182,-8.907456 -1.06866,0.06621 -4.253855,1.285836 4.130675,-2.14618 -3.891519,0.942931 2.521646,-1.474927 -0.607926,-0.30778 -2.945608,1.003099 3.888514,-3.226024 z" />
    <path
       id="rect998-3"
       style="fill:#a87e5a;fill-opacity:1;stroke:#63462c;stroke-width:0.529167;stroke-linecap:square;stroke-opacity:1"
       d="m 84.937635,98.771764 3.455791,2.065516 -1.76886,0.56765 2.79279,0.90401 0.938154,1.19083 -2.069604,-0.16079 -3.10776,-0.79474 -1.393159,0.52924 17.207903,4.61084 -0.39013,-1.12369 -4.55702,-2.05671 3.180993,0.3457 -2.060061,-1.51819 4.978858,0.0512 z" />
    <path
       id="rect998-6"
       style="fill:#a87e5a;fill-opacity:1;stroke:#63462c;stroke-width:0.529167;stroke-linecap:square;stroke-opacity:1"
       d="m 112.46837,100.18487 -2.65894,2.5219 0.3439,-1.52893 -1.32117,1.82634 1.19038,-3.114947 -1.33275,1.533227 -0.79807,-0.0574 0.69425,-1.35648 0.0252,-2.050673 -8.907471,15.428173 c 0,0 2.523081,-2.48278 2.486481,-2.3947 -0.0366,0.0882 -0.21432,1.6807 -0.21432,1.6807 l 0.74526,-1.13787 1.2716,-2.16942 -0.33564,1.73478 1.54857,-2.08172 -1.37923,3.6808 1.3645,-1.58412 -1.62995,4.49854 z"
       inkscape:transform-center-x="4.1674226"
       inkscape:transform-center-y="1.2802321" />
  </g>
</svg>
