<svg xmlns="http://www.w3.org/2000/svg" xmlns:xlink="http://www.w3.org/1999/xlink" width="684.499" height="684.499" viewBox="0 0 181.107 181.107"><defs><linearGradient xlink:href="#a" id="b" x1="112.28" x2="96.735" y1="85.87" y2="54.829" gradientTransform="matrix(.40778 0 0 .40778 159.133 359.117)" gradientUnits="userSpaceOnUse"/><linearGradient id="a"><stop offset=".538" style="stop-color:#008cff;stop-opacity:1"/><stop offset="1" style="stop-color:#a5d9ff;stop-opacity:1"/></linearGradient></defs><g transform="translate(-29.104 57.944)"><ellipse cx="119.658" cy="32.585" rx="90.554" ry="90.529" style="fill:#191919;fill-opacity:1;stroke-width:.438029;stroke-linecap:square;stroke-linejoin:bevel"/><ellipse cx="119.657" cy="32.585" rx="84.289" ry="84.266" style="fill:#4d4d4d;fill-opacity:1;stroke-width:.407726;stroke-linecap:square;stroke-linejoin:bevel"/><path d="m65.879-24.834 53.753 53.739 53.743-53.729a78.714 78.692 0 0 0-107.496-.01m-3.707 3.776a78.714 78.692 0 0 0 .061 107.346l53.657-53.643zm3.805 111.084a78.714 78.692 0 0 0 107.373.064l-53.718-53.704Zm57.397-57.38 53.718 53.703a78.714 78.692 0 0 0-.061-107.346z" style="fill:#606060;fill-opacity:1;stroke-width:1.058;stroke-linecap:square;stroke-linejoin:bevel"/><path d="M119.673 9.089A23.503 23.496 0 0 1 143.16 32.6a23.503 23.496 0 0 1-23.517 23.481 23.503 23.496 0 0 1-23.488-23.51 23.503 23.496 0 0 1 23.517-23.482" style="fill:#373737;fill-opacity:1;stroke-width:1.058;stroke-linecap:square;stroke-linejoin:bevel"/><g style="display:inline;stroke-width:1.00013"><path d="M200.71 374.34c.362.411 1.086 1.234 1.76 2.04a57 57 0 0 1 1.908 2.406c.609.812 1.2 1.645 1.738 2.506.537.86 1.02 1.749 1.392 2.505.373.757.636 1.382.889 2.127.252.746.493 1.612.64 2.33a9 9 0 0 1 .204 1.908c0 .62-.055 1.288-.236 2.001a9 9 0 0 1-.844 2.105 7.7 7.7 0 0 1-1.25 1.65 9 9 0 0 1-1.689 1.37c-.63.39-1.32.686-2.034.905-.712.22-1.447.362-2.088.433a9 9 0 0 1-1.683.033 8 8 0 0 1-1.322-.213c-.389-.1-.729-.22-1.096-.373a8 8 0 0 1-1.25-.647 12 12 0 0 1-1.551-1.168 9.5 9.5 0 0 1-1.152-1.239 5.2 5.2 0 0 1-.69-1.146 12.6 12.6 0 0 1-.625-1.71 6 6 0 0 1-.225-1.502 9.5 9.5 0 0 1 .104-1.722c.099-.69.274-1.535.56-2.423.284-.888.679-1.82 1.074-2.637.394-.817.789-1.518 1.282-2.302a40 40 0 0 1 1.755-2.55c.669-.899 1.414-1.83 2.045-2.604.63-.773 1.145-1.387 1.463-1.776.318-.39.439-.554.5-.636.06-.082.06-.082.421.33" style="fill:#212226;stroke:#121212;stroke-width:.944942;stroke-linecap:round;stroke-linejoin:round;stroke-miterlimit:10" transform="matrix(1 0 0 .99973 -80.715 -353.65)"/><path d="M193.452 395.315c.274.005.822.017 1.436 0a12 12 0 0 0 2.001-.197c.708-.137 1.442-.368 2.111-.609a13.4 13.4 0 0 0 1.908-.839 14.4 14.4 0 0 0 1.919-1.26 13.2 13.2 0 0 0 3.201-3.586c.46-.762.877-1.628 1.135-2.247.258-.62.356-.993.422-1.24.066-.246.099-.367.165-.438s.164-.093.246-.011c.083.082.148.269.247.543s.23.636.4 1.222c.17.587.379 1.398.494 2.166a8.95 8.95 0 0 1-.406 4.353 8 8 0 0 1-.866 1.683 8 8 0 0 1-1.091 1.337 8.7 8.7 0 0 1-1.453 1.157c-.51.318-1.014.537-1.59.746-.575.208-1.222.405-1.858.51a9 9 0 0 1-1.88.087 9.8 9.8 0 0 1-1.854-.241 8.7 8.7 0 0 1-1.82-.663 9 9 0 0 1-1.535-.965c-.433-.34-.773-.68-.976-.877a3 3 0 0 0-.323-.29c-.055-.04-.099-.061-.148-.116-.05-.055-.104-.142-.132-.186-.027-.044-.027-.044.247-.039" style="fill:#0f0f0f;fill-opacity:1;stroke:#121212;stroke-width:.944942;stroke-linecap:round;stroke-linejoin:round;stroke-miterlimit:10;stroke-opacity:0" transform="matrix(1 0 0 .99973 -80.715 -353.65)"/><path d="M196.386 389.582c-.016-.203-.05-.608-.038-1.069.01-.46.065-.976.197-1.491a7.2 7.2 0 0 1 .603-1.535c.263-.505.581-.998.948-1.502a18.137 18.137 0 0 1 2.193-2.516c.335-.324.675-.642.85-.779.176-.137.186-.093.176.022s-.044.301-.039.614c.005.312.05.751.181 1.255.132.505.35 1.075.57 1.618.22.542.439 1.058.592 1.436.154.378.242.62.324.85s.159.45.219.542c.06.094.104.06.197-.142.094-.203.236-.576.313-.954s.088-.762.06-1.173-.093-.85-.104-1.053.033-.17.17-.077.367.247.69.488c.324.242.74.57 1.12.96.377.39.717.839.953 1.217s.367.685.417.85.016.186-.06.328c-.078.143-.198.406-.385.768a9 9 0 0 1-.85 1.365c-.41.543-.98 1.168-1.638 1.798s-1.404 1.267-2.287 1.82a14 14 0 0 1-2.927 1.37 19 19 0 0 1-2.588.659c-.531.093-.564.06-.718-.099a13 13 0 0 1-.68-.75 6.6 6.6 0 0 1-.685-1.004 6.4 6.4 0 0 1-.532-1.283 9.7 9.7 0 0 1-.34-1.628c-.054-.505-.033-.9.022-1.338s.143-.92.33-1.453a9 9 0 0 1 .745-1.568c.274-.455.537-.784.674-.932s.148-.115.126.039c-.022.153-.077.427-.104.756a6.5 6.5 0 0 0 .017 1.168c.043.455.131.981.24 1.354.11.373.242.592.374.762.131.17.263.29.378.368.115.076.214.11.263.126s.05.016.033-.187" style="fill:url(#b);fill-opacity:1;stroke:none;stroke-width:.944942;stroke-linecap:round;stroke-linejoin:round;stroke-miterlimit:10" transform="matrix(1 0 0 .99973 -80.715 -353.65)"/><path d="M207.04 387.243c.082.21.248.63.347 1.181.1.552.133 1.236.1 1.827a6.8 6.8 0 0 1-.271 1.561 6.1 6.1 0 0 1-.64 1.48 7.3 7.3 0 0 1-1.457 1.776 9 9 0 0 1-2.19 1.374 5.6 5.6 0 0 1-1.833.47 7.2 7.2 0 0 1-1.82-.045 8.7 8.7 0 0 1-1.706-.48 6.3 6.3 0 0 1-1.076-.524 7 7 0 0 1-.679-.475c-.138-.11-.16-.143.122-.193.281-.05.866-.116 1.451-.237a10 10 0 0 0 1.915-.613 23 23 0 0 0 2.284-1.13c.635-.365 1-.641 1.424-1.005.425-.364.91-.817 1.374-1.314a13 13 0 0 0 1.264-1.567c.359-.53.634-1.048.828-1.407s.303-.557.37-.679c.066-.121.088-.165.099-.187.01-.022.01-.022.094.187z" style="fill:#0076d5;fill-opacity:1;stroke:#008cff;stroke-width:.952397;stroke-linecap:round;stroke-linejoin:round;stroke-miterlimit:10;stroke-opacity:0" transform="matrix(1 0 0 .99973 -80.715 -353.65)"/></g><path d="M31.235 45.943c6.687 43.693 44.277 75.963 88.49 75.966a89.55 89.55 0 0 0 45.326-12.344c-7.17-9.247-11.785-20.25-10.902-32.644 13.414-39.375-24.653-20.645-36.669-38.904-.196-.293-.573-.442-.748-.748-12.025-14.555-38.952 2.623-58.747-4.489-7.926-2.935-2.955-2.619-7.857-2.619-8.555-.09-11.937 10.39-18.893 15.782z" style="fill:#c9d1d9;fill-opacity:1;stroke:#a2a5c0;stroke-width:2.50798544;stroke-linecap:square;stroke-linejoin:bevel;stroke-dasharray:none;stroke-opacity:1"/><path d="M-1764.292-89.327c.023-.835.335-1.64.756-2.363.42-.722.948-1.375 1.447-2.045.426-.572.833-1.16 1.303-1.696s1.01-1.023 1.644-1.347a4.43 4.43 0 0 1 2.466-.438 5.3 5.3 0 0 1 2.359.871c1.41.937 2.357 2.458 2.872 4.07.35 1.1.518 2.246.767 3.372s.589 2.255 1.24 3.207c.544.797 1.282 1.437 1.975 2.108.693.672 1.363 1.406 1.713 2.305a3.98 3.98 0 0 1-.412 3.612 4.03 4.03 0 0 1-3.199 1.735c-1.272.027-2.477-.55-3.563-1.213-3.069-1.873-5.593-4.496-8.207-6.965-.763-.72-1.542-1.436-2.15-2.29s-1.04-1.874-1.011-2.923z" style="fill:#c9d1d9;fill-opacity:1;stroke:#a2a5c0;stroke-width:2.50832214;stroke-dasharray:none;stroke-opacity:1" transform="matrix(1 0 0 .99973 1884.346 68.317)"/><path d="M140.008 21.701c-1.919-6.863-8.172-11.666-15.398-11.83-3.406-.112-8.324 1.057-9.023 3.906-.33.975-.256 1.852-.265 2.029.033 1.64.227 3.059 1.386 4.249 1.914 1.526 3.637 2.12 6.1 2.736 3.573-3.798 4.394 1.617 8.266.695 1.74-.599 1.976-.934 4.195-1.482 1.435-.308 3.164-.005 4.74-.303z" style="fill:#c9d1d9;fill-opacity:1;stroke:#a2a5c0;stroke-width:2.50798544;stroke-linecap:round;stroke-linejoin:round;stroke-miterlimit:4;stroke-dasharray:none;stroke-opacity:1"/><path d="M-1718.832-92.164c-3.312-1.812-5.636.094-9.978 4.395s-10.699 10.998-10.96 18.713c-.26 7.716 5.577 16.45 14.213 21.387s20.069 6.076 27.92 2.003 12.12-13.359 9.975-19.833-10.7-10.136-17.13-14.73c-6.428-4.596-10.727-10.124-14.04-11.935zM-1719.751 15.977c.944 1.36 3.025 3.176 5.704 3.416 2.68.24 5.957-1.097 7.652-3.663 1.694-2.567 1.805-6.363.521-9.274s-3.962-4.938-7.312-5.307-7.37.92-8.49 2.281c-1.119 1.361.661 2.795 1.81 4.235s1.668 2.889 1.489 3.747c-.18.858-1.057 1.126-1.592 1.713-.535.586-.727 1.491.218 2.852z" style="fill:#c9d1d9;fill-opacity:1;stroke:#a2a5c0;stroke-width:2.50832214;stroke-dasharray:none;stroke-opacity:1" transform="matrix(1 0 0 .99973 1884.346 68.317)"/><path d="M-1736.541-96.82c-.962-1.639-2.679-2.805-4.198-2.477s-2.84 2.152-3.337 3.557c-.496 1.404-.169 2.39.872 3.501s2.792 2.348 4.25 2.582c1.46.234 2.625-.536 3.103-1.975.48-1.44.272-3.55-.69-5.189z" style="fill:#c9d1d9;fill-opacity:1;stroke:#a2a5c0;stroke-width:2.50832214;stroke-miterlimit:4;stroke-dasharray:none;stroke-opacity:1" transform="matrix(1 0 0 .99973 1884.346 68.317)"/><path d="M-1821.556-50.396c-.895.84-.548 1.752.33 3.528.876 1.777 2.282 4.419 4.625 5.28 2.343.86 5.623-.06 8.023-2.23s3.92-5.588 3.472-8.427-2.863-5.096-5.07-5.088-4.209 2.283-6.278 3.805-4.207 2.292-5.102 3.132z" style="fill:#c9d1d9;fill-opacity:1;stroke:#a2a5c0;stroke-width:2.50832214;stroke-dasharray:none;stroke-opacity:1" transform="matrix(1 0 0 .99973 1884.346 68.317)"/></g></svg>