<svg xmlns="http://www.w3.org/2000/svg" xml:space="preserve" width="111.561" height="103.143" viewBox="0 0 29.517 27.29"><g transform="translate(-103.038 -23.755)"><path d="m131.81 46.487.084-10.98-2.85 2.578-6.906-3.46 2.197 6.17-7.386.112 5.86 3.606-2.079 1.974zM106.611 24.417l-2.245 8.146.682 3.402 1.463.268.644-1.33 4.891 2.12.312-5.174 7.164 1.804-4.727-5 1.7-1.588z" style="fill:#d3081d;fill-opacity:1;stroke:#48050c;stroke-width:1.323;stroke-linecap:round;stroke-linejoin:round;stroke-dasharray:none;stroke-opacity:1"/><path d="m103.7 47.794 11.875.084 5.74-4.415-5.753-6.993-6.17 3.85.67-3.65-3.518-3.962-2.844 2.267z" style="fill:#d3081d;fill-opacity:1;stroke:#48050c;stroke-width:1.323;stroke-linecap:round;stroke-linejoin:round;stroke-dasharray:none;stroke-opacity:1"/><path d="M110.198 36.633c0 .568.38 1.06.038 1.46a2.29 2.29 0 1 1-2.425-3.674c.215-.067.515-.272.683-.103.545.546 1.704 1.052 1.704 2.317" style="fill:#ccc;stroke-width:2.08159;stroke-linecap:square;stroke-linejoin:round"/><path d="m103.7 47.794 11.875.084 5.74-4.415-5.753-6.993-6.17 3.85.67-3.65-3.518-3.962-2.844 2.267z" style="fill:none;fill-opacity:1;stroke:#48050c;stroke-width:1.323;stroke-linecap:round;stroke-linejoin:round;stroke-dasharray:none;stroke-opacity:1"/><circle cx="114.468" cy="40.405" r="1.711" style="fill:#ccc;fill-opacity:1;stroke:none;stroke-width:1.55511;stroke-linecap:square;stroke-linejoin:round;stroke-dasharray:none;stroke-opacity:1"/><path d="m128.998 24.417-4.131 1.413-7.105 2.43-3.234 5.657 7.708 4.755 3.796-5.341 2.699 2.858 1.805-1.894.751-3.186z" style="fill:#d3081d;fill-opacity:1;stroke:#48050c;stroke-width:1.323;stroke-linecap:round;stroke-linejoin:round;stroke-dasharray:none;stroke-opacity:1"/><circle cx="103.404" cy="72.436" r="1.209" style="fill:#ccc;fill-opacity:1;stroke:none;stroke-width:1.09882;stroke-linecap:square;stroke-linejoin:round;stroke-dasharray:none;stroke-opacity:1" transform="rotate(-18.886)"/><circle cx="105.741" cy="70.311" r="1.093" style="fill:#ccc;fill-opacity:1;stroke:none;stroke-width:.993525;stroke-linecap:square;stroke-linejoin:round;stroke-dasharray:none;stroke-opacity:1" transform="rotate(-18.886)"/><circle cx="108.395" cy="69.576" r=".997" style="fill:#ccc;fill-opacity:1;stroke:none;stroke-width:.905775;stroke-linecap:square;stroke-linejoin:round;stroke-dasharray:none;stroke-opacity:1" transform="rotate(-18.886)"/><circle cx="110.318" cy="71.057" r=".842" style="fill:#ccc;fill-opacity:1;stroke:none;stroke-width:.765374;stroke-linecap:square;stroke-linejoin:round;stroke-dasharray:none;stroke-opacity:1" transform="rotate(-18.886)"/><circle cx="111.639" cy="72.847" r=".61" style="fill:#ccc;fill-opacity:1;stroke:none;stroke-width:.554781;stroke-linecap:square;stroke-linejoin:round;stroke-dasharray:none;stroke-opacity:1" transform="rotate(-18.886)"/><path d="m113.086 45.797-1.556-4.084-3.434.953-.99 3.85 4.022 3.665c1.293-1.003 2.793-1.335 4.639-1.61zM126.557 49.321l3.152-2.008-.906-2.548-2.701-2.198-.75 3.017-2.863 2.218z" style="fill:#0094b2;fill-opacity:.301961;stroke:#005666;stroke-width:1.32292;stroke-linecap:square;stroke-dasharray:none;stroke-opacity:1"/></g></svg>