<svg xmlns="http://www.w3.org/2000/svg" width="625.516" height="374.438" viewBox="0 0 331.002 198.14"><defs><clipPath id="b"><circle cy="-15" r="9.5"/><circle cy="-15" r="9.5" transform="rotate(120)"/><circle cy="-15" r="9.5" transform="rotate(-120)"/></clipPath><mask id="a" width="60" height="60" x="-30" y="-30" maskUnits="userSpaceOnUse"><path fill="#fff" d="M-27-27h54v54h-54Z"/><path d="M2-23v-4h-4v4M-.5-6v4h1v-4"/><circle cy="-15" r="10.5"/><g transform="rotate(120)"><path d="M2-23v-4h-4v4M-.5-6v4h1v-4"/><circle cy="-15" r="10.5"/></g><g transform="rotate(-120)"><path d="M2-23v-4h-4v4M-.5-6v4h1v-4"/><circle cy="-15" r="10.5"/></g><circle r="3"/></mask></defs><g transform="translate(-578.403 -1559.579)"><path d="M579.903 1561.079h328.002v195.14H579.903z" style="fill:none;fill-opacity:1;stroke:#424242;stroke-width:3;stroke-dasharray:none;stroke-opacity:1"/><path d="M581.388 1562.894v191.51c18.067-11.138 77.51-77.96 97.108-94.632-15.562-14.95-78.895-86.152-97.108-96.878m44.985 88.538-.936 15.715-10.29-5.239-3.18-6.922z" style="fill:#989898;fill-opacity:1;stroke-width:3.2296;stroke-dasharray:none"/><path d="m815.826 1663.5-145.61 1.154-89.61 90.58 326.33-.376zm-23.318 45.742 9.354 14.593-18.709 3.742-8.232 8.98-15.341-7.858 9.354-14.967z" style="fill:#a0a0a0;fill-opacity:1;stroke-width:4.0938"/><path d="M906.619 1564.017c-18.152 10.726-81.269 81.928-96.777 96.878 19.53 16.672 78.77 83.494 96.777 94.632z" style="fill:#858585;fill-opacity:1;stroke-width:3.2241;stroke-dasharray:none"/><path d="m580.381 1562.315 89.61 90.58 145.61 1.154 91.111-91.358zm197.46 32.503 16.957 3.146v29.443l-16.958 8.776-24.211 2.646-23.493-14.689 15.566-7.927z" style="fill:#8b8b8b;fill-opacity:1;stroke-width:4.0938"/><path d="M-1610.86 619.752h8.793l-.243 144.864-8.55-12.09z" style="fill:#7b7b7b;stroke-width:3" transform="rotate(-90)"/><path d="M-1583.344 593.205h8.793v301.817h-8.793zM-1611.62 795.472h8.793v72.296h-8.793z" style="fill:#7b7b7b;fill-opacity:1;stroke:none;stroke-width:3;stroke-dasharray:none;stroke-opacity:1" transform="rotate(-90)"/><path d="m778.12 1637.475 14.044-8.419h50.675v8.793z" style="fill:#7b7b7b;stroke-width:3"/><path d="M1735.719 592.625h8.793v303.221h-8.793zM1707.583 792.945h8.793v74.972h-8.793z" style="fill:#898989;fill-opacity:1;stroke:none;stroke-width:3;stroke-dasharray:none;stroke-opacity:1" transform="matrix(0 1 1 0 0 0)"/><path d="m592.532 1745.622.155-175.15 8.367 11.372-.295 154.34z" style="fill:gray;fill-opacity:1;stroke-width:3.00002"/><path d="M1708.203 621.885h8.793v144.672l-2.883 3.004-6.004 21.785z" style="fill:#898989;stroke-width:2.98351" transform="matrix(0 1 1 0 0 0)"/><path d="m619.526 1717.076.155-53.456 4.827 2.06 3.347-15.803.03 59.49zM619.829 1652.285l.155-53.246 7.976 4.237.096 46.14z" style="fill:gray;fill-opacity:1;stroke-width:3.00002"/><path d="M-1635.29 644.965h8.794v88.924l-8.232 10.29z" style="fill:#7b7b7b;stroke-width:3" transform="rotate(-90)"/><path d="M1683.774 644.385h8.793v197.683h-8.793z" style="fill:#898989;fill-opacity:1;stroke:none;stroke-width:3;stroke-dasharray:none;stroke-opacity:1" transform="matrix(0 1 1 0 0 0)"/><path d="m644.604 1689.745.154-61.723 7.977 4.911.096 53.487z" style="fill:gray;fill-opacity:1;stroke-width:3.00001"/><path d="m579.903 1561.079 96.405 96.404" style="fill:#989898;fill-opacity:1;stroke:#424242;stroke-width:3;stroke-dasharray:none;stroke-opacity:1"/><path d="m676.105 1660.826-96.184 95.389" style="fill:#989898;fill-opacity:1;stroke:#424242;stroke-width:2.98075;stroke-dasharray:none;stroke-opacity:1"/><path d="m867.728 1716.939-.154-117.792-7.977 9.373-.096 102.072z" style="fill:#787878;fill-opacity:1;stroke-width:3.00002"/><path d="m842.954 1689.854-.155-61.723-7.977 4.91-.096 53.487z" style="fill:#787878;fill-opacity:1;stroke-width:3.00001"/><path d="m895.025 1745.73-.154-173.231-8.368 11.246.296 152.652z" style="fill:#787878;fill-opacity:1;stroke-width:3.00002"/><path d="m907.905 1561.079-96.404 96.404" style="fill:#989898;fill-opacity:1;stroke:#424242;stroke-width:3;stroke-dasharray:none;stroke-opacity:1"/><path d="m811.701 1660.824 95.626 95.673" style="fill:#989898;fill-opacity:1;stroke:#424242;stroke-width:2.9765;stroke-dasharray:none;stroke-opacity:1"/><path d="M1653.45-816.961h11.161V-670.1h-11.161z" style="fill:gray;fill-opacity:1;stroke:#424242;stroke-width:2.56244;stroke-dasharray:none;stroke-opacity:1" transform="rotate(90)"/><circle cx="-584.316" cy="-1565.655" r="3.952" style="fill:#4d4d4d;fill-opacity:1;stroke:#313131;stroke-width:1.32292;stroke-dasharray:none;stroke-opacity:1" transform="scale(-1)"/><circle cx="-903.212" cy="-1565.423" r="3.952" style="fill:#4d4d4d;fill-opacity:1;stroke:#313131;stroke-width:1.32292;stroke-dasharray:none;stroke-opacity:1" transform="scale(-1)"/><circle cx="-903.337" cy="-1751.558" r="3.952" style="fill:#4d4d4d;fill-opacity:1;stroke:#313131;stroke-width:1.32292;stroke-dasharray:none;stroke-opacity:1" transform="scale(-1)"/><circle cx="-584.896" cy="-1751.608" r="3.952" style="fill:#4d4d4d;fill-opacity:1;stroke:#313131;stroke-width:1.32292;stroke-dasharray:none;stroke-opacity:1" transform="scale(-1)"/><path d="M699.262 1600.432c3.333 3.776 8.197 5.784 12.31 8.755 1.817 1.311 1.71-3 3.304-3.383 1.462-.353 2.748 1.198 4.041 1.897 2.13 1.148 4.295 2.236 6.46 3.32 1.66.83 2.54-.914 3.082-2.082 1.09-2.35 2.916-4.463 3.03-7.154.07-1.636-.99-3.103-.488-4.776.64-2.137-1.625-2.516-3.042-3.207-1.906-.93-3.752-2.304-4.805-4.176-1.21-2.148-.001-5.101-1.394-7.052-1.186-1.662-3.356 1.433-4.599 2.433-2.51 2.02-5.199 3.764-8.02 5.305-2.374 1.296-4.733 2.597-7.182 3.753-1.897.895-7.081 1.4-5.496 3.196z" style="fill:#7b247b;fill-opacity:.242093;stroke:none;stroke-width:.457151;stroke-linecap:square;stroke-linejoin:round;stroke-dasharray:none;stroke-opacity:1;paint-order:fill markers stroke;stop-color:#000"/><path d="M876.997 1642.274c-.289 5.368-1.786 9.794-4.182 14.251-2.273 4.228-5.812 5.47-9.402 7.803-4.472 2.906 1.27 8.261 3.098 11.714 2.678 5.056 10.643 7.771 15.622 3.76 5.709-4.598 1.799-12.926 4.88-18.599 2.333-4.294 7.443-8.186 3.594-13.763-2.542-3.682-5.07-4.092-8.702-3.08-1.598.446-4.77-4.645-4.908-2.086m-1.439 46.126c.34-.957.808-1.957 1.663-2.548.616-.427 1.411 0 1.672.638.403.994 1.575 1.5 1.797 2.58.124.6-.604.922-1.067 1.148-.507.249-.961.111-1.45-.123-.618-.295-1.181-.647-1.662-1.121-.265-.262-.627-.398-.953-.574m-11.157-44.47c-1.124-.462-2.373-.92-3.062-1.975-.439-.67-.229-1.498.079-2.199.823-1.877.634-4.026 1.279-5.958.342-1.024 1.143-2.035 2.267-2.243.604-.112 1.139.218 1.652.477 1 .502 2.045 1.28 2.238 2.459.12.722-.317 1.378-.204 2.104.17 1.113.544 2.156 1 3.182.381.856.461 1.785-.13 2.45-.44.494-1.074.745-1.732.818-1.017.115-1.71 1.182-2.764 1.17-.234 0-.409-.196-.623-.284" style="fill:#7b247b;fill-opacity:.242093;stroke:none;stroke-width:.765241;stroke-linecap:square;stroke-linejoin:round;stroke-dasharray:none;stroke-opacity:1;paint-order:fill markers stroke;stop-color:#000"/><path d="m745.702 1616.213 32.14-21.395 16.956 3.146v29.442l-16.958 8.777-24.21 2.646-23.494-14.689zM783.153 1727.577l18.709-3.742-9.354-14.593-23.574 4.49-9.354 14.967 15.341 7.858zM615.148 1661.909l10.29 5.238.935-15.715-14.406 3.554z" style="fill:none;fill-opacity:.495745;stroke:#424242;stroke-width:2;stroke-dasharray:none;stroke-opacity:1"/><path d="M1526.314 1007.662h27.958v35.977h-27.958z" style="fill:#8c8c8c;fill-opacity:1;stroke:#424242;stroke-width:2;stroke-dasharray:none;stroke-opacity:1" transform="rotate(34.268)skewX(.025)"/><g style="fill:#352935;fill-opacity:1;stroke:none;stroke-width:1.45493;stroke-opacity:1" transform="matrix(-.40207 .20135 -.20126 -.40226 695.132 1716.825)"><g mask="url(#a)" style="fill:#352935;fill-opacity:1;stroke:none;stroke-width:1.45493;stroke-opacity:1"><circle cy="-11" r="15" style="fill:#352935;fill-opacity:1;stroke:none;stroke-width:1.45493;stroke-opacity:1"/><circle cy="-11" r="15" style="fill:#352935;fill-opacity:1;stroke:none;stroke-width:1.45493;stroke-opacity:1" transform="rotate(120)"/><circle cy="-11" r="15" style="fill:#352935;fill-opacity:1;stroke:none;stroke-width:1.45493;stroke-opacity:1" transform="rotate(-120)"/></g><circle r="11.75" fill="none" clip-path="url(#b)" style="fill:#352935;fill-opacity:1;stroke:none;stroke-opacity:1"/></g></g></svg>