<svg xmlns="http://www.w3.org/2000/svg" width="465.015" height="591.558" viewBox="0 0 246.071 313.033"><g transform="translate(-67.757 -1456.104)"><path d="M1457.615-69.268h310.011v-243.048h-310.01zm52.003-16.419 12.91-20.954 12.16 2.058 7.671 13.097-9.916 10.29z" style="fill:none;fill-opacity:1;stroke:#424242;stroke-width:3.02194;stroke-dasharray:none;stroke-opacity:1" transform="rotate(90)"/><path d="M70.816 1458.95c13.453 18.151 101.225 103.114 119.976 118.623 20.911-19.53 106.259-100.618 120.228-118.623z" style="fill:#989898;fill-opacity:1;stroke-width:3.2241;stroke-dasharray:none"/><path d="m310.976 1460.57-115.528 110.274-.448 85.07 115.561 108.535zm-23.047 153.818 1.871 23.573-23.947 13.096-14.593-13.47 13.47-18.709z" style="fill:#a0a0a0;fill-opacity:1;stroke-width:4.0938"/><path d="m70.744 1460.122.414 305.865L186.72 1657.45l-.447-85.069zm14.943 49.496 20.954 12.91-2.058 12.16-13.097 7.671-10.29-9.916z" style="fill:#8b8b8b;fill-opacity:1;stroke-width:4.0938"/><path d="M280.194 1482.169h8.793v132.865h-8.793z" style="fill:#8c8c8c;fill-opacity:1;stroke:none;stroke-width:3;stroke-dasharray:none;stroke-opacity:1"/><path d="m280.872 1642.844 8.923-3.221v103.016H281z" style="fill:#8c8c8c;stroke-width:3"/><path d="M70.08 1766.657c13.452-18.152 104.03-103.115 120.724-120.12 20.911 19.53 105.51 102.114 119.48 120.12z" style="fill:#858585;fill-opacity:1;stroke-width:3.2241;stroke-dasharray:none"/><path d="M228.248 1535.25h8.793v158.464h-8.793z" style="fill:#8c8c8c;fill-opacity:1;stroke:none;stroke-width:3;stroke-dasharray:none;stroke-opacity:1"/><path d="m235.838 1532.009-90.634.155 7.21 7.976 78.54.096z" style="fill:gray;fill-opacity:1;stroke-width:3.00001"/><path d="M252.677 1511.37h8.793v114.668l-8.72 6.706zM252.988 1640.45l8.753 6.7-.199 70.797h-8.793z" style="fill:#8c8c8c;stroke-width:3"/><path d="m-101.458 1536.654 8.7 4.958-.281 201.094h-8.793zM-101.397 1479.821h8.793l.047 34.67-8.794 3.836z" style="fill:#7a7a7a;stroke-width:2.63412" transform="scale(-1 1)"/><path d="M-153.778 1532.641h8.793v158.464h-8.793zM-129.349 1508.761h8.793v207.09h-8.793z" style="fill:#7a7a7a;fill-opacity:1;stroke:none;stroke-width:3;stroke-dasharray:none;stroke-opacity:1" transform="scale(-1 1)"/><path d="m262.169 1507.234-146.4.155 11.65 7.976 126.862.096zM292.502 1479.937l-201.237-.032 10.616 8.555 179.637-.296z" style="fill:gray;fill-opacity:1;stroke-width:3.00002"/><path d="m237.378 1694.417-93.378-.155 7.43-7.976 80.917-.096z" style="fill:#737373;fill-opacity:1;stroke-width:3.00001"/><path d="m264.01 1718.52-146.266-.155 11.638-7.976 126.748-.096zM287.73 1742.972l-195.49-.155 12.69-8.367 172.266.295z" style="fill:#737373;fill-opacity:1;stroke-width:3.00002"/><path d="M312.317 1457.616 186.2 1583.73" style="fill:none;fill-opacity:1;stroke:#424242;stroke-width:3;stroke-dasharray:none;stroke-opacity:1"/><circle cx="-307.639" cy="-1462.299" r="3.952" style="fill:#4d4d4d;fill-opacity:1;stroke:#313131;stroke-width:1.32292;stroke-dasharray:none;stroke-opacity:1" transform="scale(-1)"/><path d="m69.268 1457.616 126.115 126.115M312.317 1767.627 186.2 1641.51M69.268 1767.627l126.115-126.116" style="fill:none;fill-opacity:1;stroke:#424242;stroke-width:3;stroke-dasharray:none;stroke-opacity:1"/><path d="M184.853 1571.191h12.308v78.409h-12.308z" style="fill:gray;fill-opacity:1;stroke:#424242;stroke-width:2.96565;stroke-dasharray:none;stroke-opacity:1"/><circle cx="-73.718" cy="-1462.032" r="3.952" style="fill:#4d4d4d;fill-opacity:1;stroke:#313131;stroke-width:1.32292;stroke-dasharray:none;stroke-opacity:1" transform="scale(-1)"/><circle cx="-74.006" cy="-1762.929" r="3.952" style="fill:#4d4d4d;fill-opacity:1;stroke:#313131;stroke-width:1.32292;stroke-dasharray:none;stroke-opacity:1" transform="scale(-1)"/><circle cx="-307.429" cy="-1762.902" r="3.952" style="fill:#4d4d4d;fill-opacity:1;stroke:#313131;stroke-width:1.32292;stroke-dasharray:none;stroke-opacity:1" transform="scale(-1)"/><path d="m85.687 1509.618 20.954 12.91-2.058 12.16-13.097 7.671-10.29-9.916z" style="fill:none;fill-opacity:.367123;stroke:#424242;stroke-width:2;stroke-dasharray:none;stroke-opacity:1"/><path d="m264.73 1618.878 23.2-4.49 1.87 23.573-23.947 13.097-14.593-13.47z" style="fill:none;fill-opacity:1;stroke:#424242;stroke-width:3;stroke-dasharray:none;stroke-opacity:1"/><path d="M149.666 1637.556c-3.986 5.885-12.082 9-19.652 8.666-4.986-.22-9.739-3.162-11.814-7.828-2.707-6.084-4.272-12.769-4.08-19.417.115-3.934 3.362-6.627 4.476-10.254 1.221-3.974 3.385-8.977 8.051-9.548 3.722-.456 6.197 2.97 8.712 5.145 2.85 2.465 3.368 6.717 1.968 10.563-1.044 2.867-.078 6.166.537 9.144.6 2.91 2.61 5.352 4.185 7.856 1.71 2.72 9.468 2.94 7.617 5.673" style="fill:#454545;fill-opacity:.227513;stroke:none;stroke-width:2.559;stroke-linecap:square;stroke-linejoin:round;stroke-dasharray:none;stroke-opacity:1;paint-order:fill markers stroke;stop-color:#000"/><path d="M206.879 1527.162c5.898-1.193 10.883-5.027 16.415-7.509 2.442-1.096-2.082-3.561-1.528-5.44.51-1.723 2.883-2.127 4.378-3.048 2.461-1.518 4.88-3.108 7.296-4.702 1.85-1.222.572-3.174-.314-4.433-1.78-2.53-2.876-5.684-5.592-7.41-1.652-1.049-3.804-.83-5.235-2.348-1.828-1.94-3.574.179-5.136 1.232-2.1 1.417-4.626 2.506-7.192 2.477-2.945-.033-5.28-3.046-8.13-2.771-2.428.235-.523 4.33-.23 6.213.59 3.805.788 7.629.697 11.47-.077 3.23-.14 6.449-.407 9.674-.207 2.498-2.782 8.164.023 7.597z" style="fill:#464646;fill-opacity:.137566;stroke:none;stroke-width:1.5;stroke-linecap:square;stroke-linejoin:round;stroke-dasharray:none;stroke-opacity:1;paint-order:fill markers stroke;stop-color:#000"/><path d="M218.264 1734.243c-2.553 4.916-9.502 5.014-13.399 1.38-2.844-2.65-2.406-7.378-7.185-8.142-3.8-.61-8.641 1.942-11.24-1.535-2.674-3.578-1.995-9.631.311-13.07 2.134-3.181 6.108-4.835 9.662-6.274 5.123-2.075 10.718.866 14.803 3.893 3.512 2.602 6.22 6.382 7.671 10.658 1.34 3.948 4.733 5.657 3.257 11.167l-.236.88" style="fill:#454545;fill-opacity:.216931;stroke:none;stroke-width:2.55899;stroke-linecap:square;stroke-linejoin:round;stroke-dasharray:none;stroke-opacity:1;paint-order:fill markers stroke;stop-color:#000"/></g></svg>