<svg xmlns="http://www.w3.org/2000/svg" width="696.878" height="565.641" fill="none"><defs><clipPath id="a"><circle cy="-15" r="9.5"/><circle cy="-15" r="9.5" transform="rotate(120)"/><circle cy="-15" r="9.5" transform="rotate(-120)"/></clipPath></defs><path fill="#3b332b" d="M37.862-106.445h-27.6C4.656-106.445.11-101.9.11-96.293v202.355c0 5.607 4.546 10.152 10.152 10.152h27.6zm1319.888 0h27.6c5.61 0 10.15 4.545 10.15 10.152v202.355c0 5.607-4.54 10.152-10.15 10.152h-27.6z"/><path fill="#a5947e" d="M8.237-91.153v192.076a4.21 4.21 0 0 0 4.208 4.208h5.728a4.21 4.21 0 0 0 4.208-4.208V-91.153a4.21 4.21 0 0 0-4.208-4.208h-5.728a4.21 4.21 0 0 0-4.208 4.208m1379.143 0v192.076a4.21 4.21 0 0 1-4.21 4.208h-5.73a4.21 4.21 0 0 1-4.21-4.208V-91.153a4.21 4.21 0 0 1 4.21-4.208h5.73c2.32 0 4.21 1.884 4.21 4.208"/><path fill="#4d4d4d" d="m596.55-555.07 202 .01v98.07l-202-.01zm0 1021.85 202 .01v98.07l-202-.01z"/><path fill="#565656" d="M1344.63-457H50.468v923.77H1344.63Z"/><path d="M89.123 459.884c62.963 1.555 110.356 9.319 175.796 13.404 33.295 2.075 328.6-7.091 251.612-35.917-19.898-7.454-89.572-9.738-117.82-11.854-57.791-4.33-52.35-31.756-141.568-19.223-40.514 5.689-43.28 25.473-87.134 29.127-18.731 1.554-163.908-12.834-80.904 24.463z" style="fill:#354718;fill-opacity:.470588;stroke:none;stroke-width:23.9897;stroke-linecap:round;stroke-linejoin:round;stroke-dasharray:none;stroke-opacity:1"/><path stroke="#453c31" stroke-linecap="square" stroke-miterlimit="10" stroke-width="40" d="M818.551-457H1345.1v923.77H818.551m-242 0H50.019L50.935-457H576.55"/><path stroke="#afa08c" stroke-linecap="round" stroke-miterlimit="10" stroke-width="23" d="M818.551-456.99h526.539v341.874m0 240V466.78H818.551m-242 0H50.01l.398-341.896m.202-240 .314-341.874h525.627" style="stroke-linecap:square"/><path fill="#474747" d="M590.952-185.842c27.614 0 50-22.386 50-50s-22.386-50-50-50-50 22.386-50 50 22.386 50 50 50"/><path fill="#474747" d="M645.714-247.746c13.149 0 23.809-10.66 23.809-23.81s-10.66-23.809-23.809-23.809-23.81 10.66-23.81 23.809 10.66 23.81 23.81 23.81m-9.524 664.285c55.229 0 100-44.771 100-100s-44.771-100-100-100-100 44.772-100 100 44.772 100 100 100"/><path fill="#474747" d="M561.818 419.296c32.216 0 58.333-26.117 58.333-58.334s-26.117-58.333-58.333-58.333c-32.217 0-58.334 26.117-58.334 58.333 0 32.217 26.117 58.334 58.334 58.334M224.286 97.492c43.394 0 78.572-35.177 78.572-78.571S267.68-59.65 224.286-59.65s-78.571 35.177-78.571 78.571 35.177 78.571 78.571 78.571"/><path fill="#474747" d="M289.762 130.826c24.327 0 44.048-19.721 44.048-44.048S314.089 42.73 289.762 42.73c-24.326 0-44.047 19.721-44.047 44.048s19.721 44.048 44.047 44.048M1160-73.937c19.73 0 35.72-15.989 35.72-35.714s-15.99-35.714-35.72-35.714c-19.72 0-35.71 15.99-35.71 35.714 0 19.725 15.99 35.714 35.71 35.714m-44.05-178.572c34.85 0 63.1-28.248 63.1-63.095s-28.25-63.095-63.1-63.095c-34.84 0-63.09 28.248-63.09 63.095s28.25 63.095 63.09 63.095"/><path fill="#474747" d="M1052.86-298.873c11.83 0 21.42-9.594 21.42-21.429s-9.59-21.428-21.42-21.428c-11.84 0-21.43 9.593-21.43 21.428s9.59 21.429 21.43 21.429"/><path fill="#666" d="M695.034-549.785H602.16v87.5h92.874zm0 1021.845H602.16v87.5h92.874zM792.94-549.775h-92.875v87.5h92.875zm0 1021.845h-92.875v87.5h92.875z"/><path d="M356.38 182.553c21.661 10.412 30.36 25.097 37.626 40.552 9.993 21.286 26.795 44.139 40.52 65.035 2.955 4.497 25.744 53.077 13.512 54.57-53.652 6.526-47.863-19.35-56.5-40.366-3.488-8.493-26.643-11.737-35.616-17.198-14.928-9.086-4.874-29.788-7.373-41.858-2.437-11.96-52.676-30.057-41.754-43.351 7.144-8.697 38.753-9.707 49.584-17.384" style="fill:#354718;fill-opacity:.472081;stroke:none;stroke-width:31.8467;stroke-linecap:round;stroke-linejoin:round;stroke-dasharray:none;stroke-opacity:1"/><path d="m202.66 185.904 79.204-73.887 87.46 96.684-79.204 73.886z" style="fill:#ccc;fill-opacity:1;fill-rule:evenodd;stroke:#666;stroke-width:9.28448;stroke-linecap:round;stroke-linejoin:round;stroke-dasharray:none;stroke-opacity:1" transform="translate(-109.762 138.3)"/><g style="fill:none;fill-opacity:1;stroke-width:1.12203" transform="matrix(-.1389 -.178 .17778 -.13697 160.843 401.694)"><g style="fill:none;fill-opacity:1;stroke-width:1.12203"><path d="M2.69 39.47v8.816c0 1.346 1.51 2.856 2.856 2.856h6.87l.042-4.036H8.629c-.829 0-1.759-.93-1.759-1.759v-13.52c0-.83.93-1.759 1.76-1.759h3.828l-.042-4.035h-6.87c-1.346 0-2.856 1.51-2.856 2.856v8.815z" style="display:inline;fill:none;fill-opacity:1;stroke:none;stroke-width:1.56522;stroke-linecap:round;stroke-linejoin:round;stroke-miterlimit:10.8;stroke-dasharray:none;stroke-opacity:1;paint-order:fill markers stroke" transform="matrix(3.48137 2.01157 -2.00997 3.48413 66.826 -25.503)"/><path d="m11.644 27.135-5.055-.123s-1.71.133-1.71 1.824l-.006 17.29s-.02 2.758 1.167 2.783l5.73.123.103 1.609-5.933.002s-2.528-.545-2.528-2.529l.007-19.54s.299-3.25 3.249-3.25l5.13-.002z" style="fill:none;fill-opacity:1;fill-rule:evenodd;stroke:none;stroke-width:4.48811;stroke-linecap:round;stroke-linejoin:round;stroke-miterlimit:29" transform="matrix(3.48137 2.01157 -2.00997 3.48413 66.826 -25.503)"/><path d="M2.69 39.47v8.395c0 1.522.86 3.277 2.856 3.277h6.87l.042-4.036H8.629c-.829 0-1.759-.93-1.759-1.759v-13.52c0-.83.93-1.759 1.76-1.759h3.828l-.042-4.035h-6.87c-1.346 0-2.856 1.51-2.856 2.856v8.815z" style="fill:none;fill-opacity:1;stroke:#274025;stroke-width:2.23204;stroke-linecap:round;stroke-linejoin:round;stroke-miterlimit:10.8;stroke-dasharray:none;stroke-opacity:1;paint-order:fill markers stroke" transform="matrix(3.48137 2.01157 -2.00997 3.48413 66.826 -25.503)"/><g style="fill:none;fill-opacity:1;stroke-width:1.12203"><g style="fill:none;fill-opacity:1"><path d="M.78 39.75h8.187M.78 38.275A1.474 1.474 0 0 0-.696 39.75a1.474 1.474 0 0 0 1.474 1.475h8.188a1.474 1.474 0 0 0 1.474-1.475 1.474 1.474 0 0 0-1.474-1.475Z" style="color:#000;fill:none;fill-opacity:1;stroke-linecap:round;stroke-linejoin:round;stroke-miterlimit:10.8;-inkscape-stroke:none;paint-order:fill markers stroke" transform="matrix(3.32791 1.92297 -2.01003 3.4841 67.576 -25.07)"/></g></g><g style="fill:none;fill-opacity:1;stroke-width:1.12203"><path d="M12.102 43.563h2.14c.558 0 1.008.45 1.008 1.008v7.916c0 .558-.45 1.008-1.008 1.008h-2.14c-.559 0-1.008-.45-1.008-1.008V44.57c0-.559.45-1.009 1.008-1.009" style="fill:none;fill-opacity:1;stroke-width:2.94868;stroke-linecap:round;stroke-linejoin:round;stroke-miterlimit:10.8;paint-order:fill markers stroke" transform="matrix(3.48137 2.01157 -2.00997 3.48413 65.633 -23.434)"/></g></g><g style="fill:none;fill-opacity:1;stroke-width:1.12203"><g style="fill:none;fill-opacity:1;stroke-width:1.12203"><path d="M16.813 60.625c.203 1.864 8.562 1.85 10.213 3.5 2.623 2.623 2.242 10.447 4.393 11 .896.23 1.687.25 1.687.25l-.364-17.915-15.929 1.165s-.072 1.337 0 2" style="fill:none;fill-opacity:1;stroke:#4b381b;stroke-width:2.23204;stroke-linecap:round;stroke-linejoin:round;stroke-miterlimit:10.8;stroke-dasharray:none;stroke-opacity:1;paint-order:fill markers stroke" transform="matrix(3.48137 2.01157 -2.00997 3.48413 69.715 -30.511)"/><path d="M33.82 59.031c-.638 0-1.152.5-1.152 1.121V76.66c0 .622.514 1.121 1.152 1.121h2.51c.638 0 1.15-.5 1.15-1.12V60.151c0-.621-.512-1.12-1.15-1.12zm1.254 1.032a.87.87 0 0 1 .87.87.87.87 0 0 1-.87.87.87.87 0 0 1-.87-.87.87.87 0 0 1 .87-.87m0 2.99a.87.87 0 0 1 .87.869.87.87 0 0 1-.87.869.87.87 0 0 1-.87-.87.87.87 0 0 1 .87-.868m0 2.988a.87.87 0 0 1 .87.871.87.87 0 0 1-.87.87.87.87 0 0 1-.87-.87.87.87 0 0 1 .87-.871m0 2.99a.87.87 0 0 1 .87.87.87.87 0 0 1-.87.87.87.87 0 0 1-.87-.87.87.87 0 0 1 .87-.87m0 2.99a.87.87 0 0 1 .87.87.87.87 0 0 1-.87.869.87.87 0 0 1-.87-.87.87.87 0 0 1 .87-.869m0 2.989a.87.87 0 0 1 .87.869.87.87 0 0 1-.87.871.87.87 0 0 1-.87-.871.87.87 0 0 1 .87-.87" style="fill:none;fill-opacity:1;stroke:none;stroke-width:1.56522;stroke-linecap:round;stroke-linejoin:round;stroke-miterlimit:10.8;paint-order:fill markers stroke" transform="matrix(3.48137 2.01157 -2.00997 3.48413 69.715 -30.511)"/><path d="M33.82 58.473h3.346c.638 0 1.343.53 1.152 1.122-1.841 5.688-1.833 11.377 0 17.064.19.592-.514 1.122-1.152 1.122H33.82c-.638 0-1.151-.5-1.151-1.122V59.595c0-.622.513-1.122 1.151-1.122" style="fill:none;fill-opacity:1;stroke:#333;stroke-width:2.23204;stroke-linecap:round;stroke-linejoin:round;stroke-miterlimit:10.8;stroke-dasharray:none;stroke-opacity:1;paint-order:fill markers stroke" transform="matrix(3.48137 2.01157 -2.00997 3.48413 69.715 -30.511)"/><g style="fill:none;fill-opacity:1;stroke-width:1.12203"><g style="display:inline;fill:none;fill-opacity:1;stroke-width:1.12203" transform="matrix(3.48137 2.01157 -2.00997 3.48413 66.454 -24.237)"><circle cx="35.011" cy="59.177" r="1.19" style="fill:none;fill-opacity:1;stroke:#333;stroke-width:1.11602;stroke-linecap:round;stroke-linejoin:round;stroke-miterlimit:10.8;stroke-dasharray:none;stroke-opacity:1;paint-order:fill markers stroke"/></g></g><g style="fill:none;fill-opacity:1;stroke-width:1.12203"><g style="display:inline;fill:none;fill-opacity:1;stroke-width:1.12203" transform="matrix(3.48137 2.01157 -2.00997 3.48413 60.397 -13.747)"><circle cx="35.011" cy="59.177" r="1.19" style="fill:none;fill-opacity:1;stroke:#333;stroke-width:1.11602;stroke-linecap:round;stroke-linejoin:round;stroke-miterlimit:10.8;stroke-dasharray:none;stroke-opacity:1;paint-order:fill markers stroke"/></g></g><g style="fill:none;fill-opacity:1;stroke-width:1.12203"><g style="display:inline;fill:none;fill-opacity:1;stroke-width:1.12203" transform="matrix(3.48137 2.01157 -2.00997 3.48413 54.34 -3.256)"><circle cx="35.011" cy="59.177" r="1.19" style="fill:none;fill-opacity:1;stroke:#333;stroke-width:1.11602;stroke-linecap:round;stroke-linejoin:round;stroke-miterlimit:10.8;stroke-dasharray:none;stroke-opacity:1;paint-order:fill markers stroke"/></g></g><g style="fill:none;fill-opacity:1;stroke-width:1.12203"><g style="display:inline;fill:none;fill-opacity:1;stroke-width:1.12203" transform="matrix(3.48137 2.01157 -2.00997 3.48413 48.284 7.234)"><circle cx="35.011" cy="59.177" r="1.19" style="fill:none;fill-opacity:1;stroke:#333;stroke-width:1.11602;stroke-linecap:round;stroke-linejoin:round;stroke-miterlimit:10.8;stroke-dasharray:none;stroke-opacity:1;paint-order:fill markers stroke"/></g></g><g style="fill:none;fill-opacity:1;stroke-width:1.12203"><g style="display:inline;fill:none;fill-opacity:1;stroke-width:1.12203" transform="matrix(3.48137 2.01157 -2.00997 3.48413 42.227 17.725)"><circle cx="35.011" cy="59.177" r="1.19" style="fill:none;fill-opacity:1;stroke:#333;stroke-width:1.11602;stroke-linecap:round;stroke-linejoin:round;stroke-miterlimit:10.8;stroke-dasharray:none;stroke-opacity:1;paint-order:fill markers stroke"/></g></g><g style="fill:none;fill-opacity:1;stroke-width:1.12203"><g style="display:inline;fill:none;fill-opacity:1;stroke-width:1.12203" transform="matrix(3.48137 2.01157 -2.00997 3.48413 36.17 28.215)"><circle cx="35.011" cy="59.177" r="1.19" style="fill:none;fill-opacity:1;stroke:#333;stroke-width:1.11602;stroke-linecap:round;stroke-linejoin:round;stroke-miterlimit:10.8;stroke-dasharray:none;stroke-opacity:1;paint-order:fill markers stroke"/></g></g></g><g style="fill:none;fill-opacity:1;stroke-width:1.12203"><path d="m78.554 55.538-.569 5.54c-.092.895 4.017 1.148 4.401.243-.547-1.155-.942-3.443-.208-5.915z" style="fill:none;fill-opacity:1;stroke:#332640;stroke-width:2.23204;stroke-linecap:round;stroke-linejoin:round;stroke-miterlimit:10.8;stroke-dasharray:none;stroke-opacity:1;paint-order:fill markers stroke" transform="matrix(3.48137 2.01157 -2.00997 3.48413 66.826 -25.503)"/><path d="M72.481 55.5h6.644c-1.719 7.9-1.636 8.824-1.562 13.813.908.124.913 1.214 0 1.156l-5.72-.438c.12-6.09.91-7.162 1.457-10.052.406-4.594-.819-4.479-.819-4.479" style="fill:none;fill-opacity:1;stroke:none;stroke-width:1.56522;stroke-linecap:round;stroke-linejoin:round;stroke-miterlimit:10.8;stroke-opacity:1;paint-order:fill markers stroke" transform="matrix(3.48137 2.01157 -2.00997 3.48413 66.826 -25.503)"/><path d="M78.252 60.716c-.947 2.864-.596 5.46-.69 8.597.909.124.912 1.235 0 1.156l-5.011-.438c-2.355-1.716-.238-5.27.44-7.798.31-1.161 5.261-1.517 5.261-1.517" style="fill:none;fill-opacity:1;stroke:none;stroke-width:1.56522;stroke-linecap:round;stroke-linejoin:round;stroke-miterlimit:10.8;stroke-opacity:1;paint-order:fill markers stroke" transform="matrix(3.48137 2.01157 -2.00997 3.48413 66.826 -25.503)"/><path d="M72.481 55.5h6.644c-.345 1.438-.976 6.263-.976 6.263s-.962.854-1.004 1.526c-.032.506.64 1.827.64 1.827s-.115 1.99-.222 4.197c.908.125.913 1.214 0 1.156l-5.72-.438c.12-6.09.91-7.162 1.457-10.052.406-4.594-.819-4.479-.819-4.479" style="fill:none;fill-opacity:1;stroke:#332640;stroke-width:2.23204;stroke-linecap:round;stroke-linejoin:round;stroke-miterlimit:10.8;stroke-dasharray:none;stroke-opacity:1;paint-order:fill markers stroke" transform="matrix(3.48137 2.01157 -2.00997 3.48413 66.826 -25.503)"/></g><g style="fill:none;fill-opacity:1;stroke-width:1.12203"><path d="M99.375 55.5H104v12.388c.575 0 .727.987.398.987h-5.244c-.344 0-.4-1.031.221-1.031z" style="fill:none;fill-opacity:1;stroke:none;stroke-width:1.56522;stroke-linecap:round;stroke-linejoin:round;stroke-miterlimit:10.8;stroke-opacity:1;paint-order:fill markers stroke" transform="matrix(3.48137 2.01157 -2.00997 3.48413 66.826 -25.503)"/><path d="M100.064 57.717s1.055 1.036 1.582 1.036c.587 0 1.76-1.036 1.76-1.036.249 0 .45.234.45.525v7.89c0 .292-.201.526-.45.526 0 0-1.144-.805-1.716-.805-.542 0-1.626.805-1.626.805-.25 0-.45-.234-.45-.525v-7.89c0-.292.2-.526.45-.526" style="fill:none;fill-opacity:1;stroke-width:.774198;stroke-linecap:round;stroke-linejoin:round;stroke-miterlimit:10.8;paint-order:fill markers stroke" transform="matrix(3.48137 2.01157 -2.00997 3.48413 66.826 -25.503)"/><path d="M99.375 55.5H104v12.388c.575 0 .727.987.398.987h-5.244c-.344 0-.4-1.031.221-1.031z" style="fill:none;fill-opacity:1;stroke:#332640;stroke-width:2.23204;stroke-linecap:round;stroke-linejoin:round;stroke-miterlimit:10.8;stroke-dasharray:none;stroke-opacity:1;paint-order:fill markers stroke" transform="matrix(3.48137 2.01157 -2.00997 3.48413 66.826 -25.503)"/></g></g><g style="fill:none;fill-opacity:1;stroke-width:1.12203" transform="matrix(3.48137 2.01157 -2.00997 3.48413 67.495 -25.116)"><g style="fill:none;fill-opacity:1;stroke-width:1.12203"><path d="M64.607 39.976h53.62l4.554-.994v17.707l-4.623-.994H64.547Z" style="fill:none;fill-opacity:1;stroke-width:1.56522;stroke-linecap:round;stroke-linejoin:round;stroke-miterlimit:10.8;paint-order:fill markers stroke"/><path d="M64.566 39.976h53.66l4.555-.773v2.32l-4.589.883H64.6ZM64.6 52.942h53.592l4.589 1.105v2.982l-4.623-1.344-53.55.039z" style="fill:none;fill-opacity:1;stroke-width:1.56522;stroke-linecap:round;stroke-linejoin:round;stroke-miterlimit:10.8;paint-order:fill markers stroke"/><path d="M65.475 52.366h17.813l6.03 3.481" style="fill:none;fill-opacity:1;stroke:#332640;stroke-width:1.11602;stroke-linecap:round;stroke-linejoin:round;stroke-miterlimit:10.8;stroke-dasharray:none;stroke-opacity:1;paint-order:fill markers stroke"/><path d="M64.538 39.976h53.654l4.589-1.215v18.26l-4.623-1.326H64.535Z" style="fill:none;fill-opacity:1;stroke:#332640;stroke-width:2.23204;stroke-linecap:round;stroke-linejoin:round;stroke-miterlimit:10.8;stroke-dasharray:none;stroke-opacity:1;paint-order:fill markers stroke"/></g><g style="fill:none;fill-opacity:1;stroke-width:1.12203"><path d="m13.986 36.813 46.127.153 2.811 1.791h2.778l-.062 17.788h-2.77l-2.887 1.66-45.997.108Z" style="fill:none;fill-opacity:1;stroke-width:1.56522;stroke-linecap:round;stroke-linejoin:round;stroke-miterlimit:10.8;paint-order:fill markers stroke"/><path d="M13.986 36.812H59.98l2.906 1.945h2.816l-.031 2.75h-2.728l-4.12-1.945H13.987ZM13.986 58.313H59.98l2.906-1.945h2.816l-.031-2.75h-2.728l-4.12 1.945H13.987Z" style="fill:none;fill-opacity:1;stroke-width:1.56522;stroke-linecap:round;stroke-linejoin:round;stroke-miterlimit:10.8;paint-order:fill markers stroke"/><path d="M13.986 36.813h46.025l2.85 1.944h2.81l-.031 17.788h-2.782l-2.847 1.767H13.986Z" style="fill:none;fill-opacity:1;stroke:#333;stroke-width:2.23204;stroke-linecap:round;stroke-linejoin:round;stroke-miterlimit:10.8;stroke-dasharray:none;stroke-opacity:1;paint-order:fill markers stroke"/></g><circle cx="62.906" cy="49.771" r="1.118" style="fill:none;fill-opacity:1;stroke:none;stroke-width:1.59737;stroke-linecap:round;stroke-linejoin:round;stroke-miterlimit:10.8;stroke-dasharray:none;stroke-opacity:1;paint-order:fill markers stroke"/><circle cx="62.906" cy="45.355" r="1.118" style="fill:none;fill-opacity:1;stroke:none;stroke-width:1.59737;stroke-linecap:round;stroke-linejoin:round;stroke-miterlimit:10.8;stroke-dasharray:none;stroke-opacity:1;paint-order:fill markers stroke"/><circle cx="62.905" cy="41.275" r="1.118" style="fill:none;fill-opacity:1;stroke:none;stroke-width:1.59737;stroke-linecap:round;stroke-linejoin:round;stroke-miterlimit:10.8;stroke-dasharray:none;stroke-opacity:1;paint-order:fill markers stroke"/><circle cx="62.905" cy="53.851" r="1.118" style="fill:none;fill-opacity:1;stroke:none;stroke-width:1.59737;stroke-linecap:round;stroke-linejoin:round;stroke-miterlimit:10.8;stroke-dasharray:none;stroke-opacity:1;paint-order:fill markers stroke"/><g style="fill:none;fill-opacity:1;stroke-width:1.12203"><path d="M67.241 44.382h7.43l2.839 3.149-2.84 3.348h-7.429l2.84-3.36z" style="fill:none;fill-opacity:1;stroke-width:1.56522;stroke-linecap:round;stroke-linejoin:round;stroke-miterlimit:10.8;paint-order:fill markers stroke" transform="translate(1.558)"/><path d="M75.91 44.382h7.43l2.839 3.149-2.84 3.348H75.91l2.84-3.36zM101.916 44.382h7.429l2.84 3.149-2.84 3.348h-7.43l2.84-3.36z" style="fill:none;fill-opacity:1;stroke-width:1.56522;stroke-linecap:round;stroke-linejoin:round;stroke-miterlimit:10.8;paint-order:fill markers stroke" transform="translate(1.558)"/><path d="M84.579 44.382h7.429l2.84 3.149-2.84 3.348h-7.43l2.84-3.36z" style="fill:none;fill-opacity:1;stroke-width:1.56522;stroke-linecap:round;stroke-linejoin:round;stroke-miterlimit:10.8;paint-order:fill markers stroke" transform="translate(1.558)"/><path d="M93.247 44.382h7.43l2.839 3.149-2.84 3.348h-7.429l2.84-3.36z" style="fill:none;fill-opacity:1;stroke-width:1.56522;stroke-linecap:round;stroke-linejoin:round;stroke-miterlimit:10.8;paint-order:fill markers stroke" transform="translate(1.558)"/></g><g style="fill:none;fill-opacity:1;stroke-width:1.12203"><path d="M54.26 40.354a.84.84 0 0 0-.725.417l-7.289 12.625a.84.84 0 0 0 0 .836l.74 1.28a.84.84 0 0 0 .725.418h14.576a.84.84 0 0 0 .725-.418l.738-1.28a.84.84 0 0 0 0-.836l-7.287-12.625a.84.84 0 0 0-.725-.417zm.484 1.673h.51l6.805 11.787-.254.442H48.193l-.255-.442Z" style="color:#000;fill:none;fill-opacity:1;stroke-linecap:round;stroke-linejoin:round;stroke-miterlimit:10.8;-inkscape-stroke:none;paint-order:fill markers stroke" transform="translate(-5.16 -.58)"/><g style="display:inline;fill:none;fill-opacity:1;stroke-width:44.4111" transform="matrix(.19342 0 0 .19341 49.84 49.55)"><g style="display:inline;fill:none;fill-opacity:1;stroke:none;stroke-width:44.4111;stroke-opacity:1"><path d="M-2-25.857A15 15 0 0 0-15-11a15 15 0 0 0 2.33 8.016A10.5 10.5 0 0 1-3.897 2.25a10.5 10.5 0 0 1 .657 1.357A15 15 0 0 0 0 4a15 15 0 0 0 3.228-.356 10.5 10.5 0 0 1 .669-1.394 10.5 10.5 0 0 1 8.776-5.234A15 15 0 0 0 15-11 15 15 0 0 0 2-25.857v.564A10.5 10.5 0 0 1 10.5-15 10.5 10.5 0 0 1 .5-4.544v1.587A3 3 0 0 1 3 0a3 3 0 0 1-3 3 3 3 0 0 1-3-3A3 3 0 0 1-.5-2.954v-1.59A10.5 10.5 0 0 1-10.5-15 10.5 10.5 0 0 1-2-25.293z" style="display:inline;fill:none;fill-opacity:1;stroke:none;stroke-width:44.4111;stroke-opacity:1"/><path d="M-12.67-2.984A10.5 10.5 60 0 1-3.897 2.25a10.5 10.5 60 0 1 .658 1.357A15 15 61.845 0 0 0 4a15 15 61.845 0 0 3.24-.393 10.5 10.5 67.5 0 1 .657-1.357 10.5 10.5 67.5 0 1 8.778-5.243A15 15 61.845 0 0 15-11 15 15 61.845 0 0 2-25.862v.558A10.5 10.5 67.5 0 1 10.5-15 10.5 10.5 67.5 0 1 .5-4.544v1.59A3 3 60 0 1 2.598-1.5 3 3 60 0 1 1.5 2.598 3 3 60 0 1-2.598 1.5 3 3 60 0 1-1.5-2.598a3 3 60 0 1 1-.352v-1.592a10.5 10.5 67.5 0 1-8.333-4.781A10.5 10.5 67.5 0 1-10.5-15 10.5 10.5 67.5 0 1-2-25.293v-.564A15 15 61.845 0 0-15-11a15 15 61.845 0 0 2.33 8.016" style="fill:none;fill-opacity:1;stroke:none;stroke-width:44.4111;stroke-opacity:1" transform="rotate(120)"/><path d="M12.67-2.984A15 15 28.155 0 0 15-11 15 15 28.155 0 0 2-25.857v.564A10.5 10.5 22.5 0 1 10.5-15a10.5 10.5 22.5 0 1-1.667 5.677A10.5 10.5 22.5 0 1 .5-4.542v1.592a3 3 30 0 1 1 .352A3 3 30 0 1 2.598 1.5 3 3 30 0 1-1.5 2.598 3 3 30 0 1-2.598-1.5 3 3 30 0 1-.5-2.954v-1.56A10.5 10.5 22.5 0 1-10.5-15 10.5 10.5 22.5 0 1-2-25.293v-.564A15 15 28.155 0 0-15-11a15 15 28.155 0 0 2.327 8.016A10.5 10.5 22.5 0 1-3.897 2.25a10.5 10.5 22.5 0 1 .67 1.394A15 15 28.155 0 0 0 4a15 15 28.155 0 0 3.24-.393 10.5 10.5 30 0 1 .657-1.357 10.5 10.5 30 0 1 8.773-5.234" style="fill:none;fill-opacity:1;stroke:none;stroke-width:44.4111;stroke-opacity:1" transform="rotate(-120)"/></g><circle r="11.75" stroke="#000" stroke-width="28.316" clip-path="url(#a)" style="display:inline;fill:none;fill-opacity:1;stroke:#322640;stroke-width:2.90057;stroke-dasharray:none;stroke-opacity:1"/></g></g></g><path d="m259.638 132.626-47.677 82.644-170.28-98.39L89.36 34.238Z" style="fill:none;fill-opacity:1;stroke:none;stroke-width:9.02453;stroke-linecap:round;stroke-linejoin:round;stroke-miterlimit:10.8;stroke-dasharray:none;stroke-opacity:1;paint-order:fill markers stroke"/><path d="m259.638 132.626-5.642 9.78-170.28-98.39 5.642-9.779zM217.605 205.488l-5.643 9.781-170.28-98.389 5.643-9.781z" style="fill:none;fill-opacity:1;stroke:none;stroke-width:9.02453;stroke-linecap:round;stroke-linejoin:round;stroke-miterlimit:10.8;stroke-dasharray:none;stroke-opacity:1;paint-order:fill markers stroke"/><path d="m91.518 33.909 167.324 96.681c.819.473 1.174 1.381.796 2.036l-47.677 82.644c-.377.655-1.34.801-2.16.328l-167.323-96.68c-.82-.474-1.174-1.382-.797-2.037l47.677-82.644c.378-.655 1.11-.935 2.16-.328" style="fill:none;fill-opacity:1;stroke:#333;stroke-width:8.97621;stroke-linecap:round;stroke-linejoin:round;stroke-miterlimit:10.8;stroke-dasharray:none;stroke-opacity:1;paint-order:fill markers stroke"/><g style="fill:none;fill-opacity:1"><path d="m148.644 62.655-52.727 91.398M147.48 58.32a4.5 4.5 0 0 0-2.724 2.092l-52.727 91.399a4.49 4.49 0 0 0 1.645 6.13 4.49 4.49 0 0 0 6.13-1.644l52.727-91.399a4.49 4.49 0 0 0-1.644-6.13 4.5 4.5 0 0 0-3.407-.448" style="color:#000;fill:none;fill-opacity:1;stroke-linecap:round;stroke-linejoin:round;stroke-miterlimit:10.8;-inkscape-stroke:none;paint-order:fill markers stroke"/></g><g style="fill:none;fill-opacity:1"><path d="m262.186 128.208-52.75 91.439M261.023 123.873a4.5 4.5 0 0 0-2.724 2.092l-52.75 91.44a4.49 4.49 0 0 0 1.644 6.13 4.49 4.49 0 0 0 6.13-1.646l52.751-91.438a4.49 4.49 0 0 0-1.646-6.13 4.5 4.5 0 0 0-3.405-.448" style="color:#000;fill:none;fill-opacity:1;stroke-linecap:round;stroke-linejoin:round;stroke-miterlimit:10.8;-inkscape-stroke:none;paint-order:fill markers stroke"/></g><g style="fill:none;fill-opacity:1"><path d="m91.873 29.878-52.717 91.38M90.709 25.543a4.5 4.5 0 0 0-2.725 2.092l-52.714 91.38a4.49 4.49 0 0 0 1.644 6.131 4.49 4.49 0 0 0 6.129-1.646L95.76 32.121a4.49 4.49 0 0 0-1.645-6.13 4.5 4.5 0 0 0-3.406-.448" style="color:#000;fill:none;fill-opacity:1;stroke-linecap:round;stroke-linejoin:round;stroke-miterlimit:10.8;-inkscape-stroke:none;paint-order:fill markers stroke"/></g><g style="fill:none;fill-opacity:1"><path d="m205.415 95.432-52.739 91.418M204.252 91.098a4.5 4.5 0 0 0-2.725 2.091l-52.738 91.418a4.49 4.49 0 0 0 1.645 6.131 4.49 4.49 0 0 0 6.13-1.646l52.739-91.418a4.49 4.49 0 0 0-1.645-6.13 4.5 4.5 0 0 0-3.406-.446" style="color:#000;fill:none;fill-opacity:1;stroke-linecap:round;stroke-linejoin:round;stroke-miterlimit:10.8;-inkscape-stroke:none;paint-order:fill markers stroke"/></g><path d="M24.812 12.337c.362.41 1.086 1.233 1.76 2.04.675.805 1.3 1.594 1.908 2.406.609.811 1.2 1.644 1.738 2.505.537.86 1.02 1.749 1.392 2.506.373.756.636 1.381.889 2.127.252.745.493 1.611.64 2.33a9 9 0 0 1 .204 1.907c0 .62-.055 1.289-.236 2.001a9 9 0 0 1-.844 2.106 7.7 7.7 0 0 1-1.25 1.65 9 9 0 0 1-1.689 1.37c-.63.39-1.32.685-2.034.905-.712.22-1.447.362-2.088.433a9 9 0 0 1-1.683.033 8 8 0 0 1-1.322-.214c-.389-.099-.729-.22-1.096-.373a8 8 0 0 1-1.25-.647 12 12 0 0 1-1.551-1.167 9.5 9.5 0 0 1-1.152-1.24 5.2 5.2 0 0 1-.69-1.145 12.6 12.6 0 0 1-.625-1.71 6 6 0 0 1-.225-1.503 9.6 9.6 0 0 1 .104-1.721c.099-.69.274-1.535.559-2.423s.68-1.82 1.075-2.637.789-1.519 1.282-2.303a40 40 0 0 1 1.755-2.55c.669-.898 1.414-1.83 2.045-2.603.63-.773 1.145-1.387 1.463-1.776.318-.39.439-.554.5-.636.06-.083.06-.083.421.329" style="fill:none;fill-opacity:1;stroke:#333;stroke-width:5.80029;stroke-linecap:round;stroke-linejoin:round;stroke-miterlimit:10;stroke-dasharray:none;stroke-opacity:1" transform="matrix(.7372 -1.27788 1.4056 .81216 99.42 134.539)"/><path d="M17.554 33.312c.274.005.822.016 1.436 0 .614-.017 1.294-.06 2.001-.198.708-.137 1.442-.367 2.111-.608a13.4 13.4 0 0 0 1.908-.84 14.4 14.4 0 0 0 1.919-1.26 13.2 13.2 0 0 0 3.201-3.585c.46-.762.877-1.629 1.135-2.248s.356-.992.422-1.239.099-.367.165-.439c.065-.07.164-.093.246-.01.083.082.148.268.247.542s.23.636.4 1.223c.17.586.378 1.398.494 2.165a8.95 8.95 0 0 1-.406 4.353 8 8 0 0 1-.866 1.683 8 8 0 0 1-1.091 1.338 8.7 8.7 0 0 1-1.453 1.157c-.51.317-1.014.537-1.59.745-.575.208-1.222.406-1.858.51a9 9 0 0 1-1.88.088 9.8 9.8 0 0 1-1.854-.242 8.7 8.7 0 0 1-1.82-.663 9 9 0 0 1-1.535-.965c-.433-.34-.773-.68-.976-.877a3 3 0 0 0-.323-.29c-.055-.039-.099-.06-.148-.116-.05-.054-.104-.142-.132-.186-.027-.044-.027-.044.247-.038" style="display:inline;fill:none;fill-opacity:1;stroke:none;stroke-width:5.83152;stroke-linecap:round;stroke-linejoin:round;stroke-miterlimit:10;stroke-dasharray:none;stroke-opacity:0" transform="matrix(.7372 -1.27788 1.4056 .81216 99.42 134.539)"/><path d="M20.488 27.579c-.016-.203-.05-.609-.038-1.07.01-.46.065-.975.197-1.49a7.2 7.2 0 0 1 .603-1.536c.263-.504.581-.997.948-1.502a18.136 18.136 0 0 1 2.193-2.516c.335-.324.675-.642.85-.779.176-.137.187-.093.176.022s-.044.302-.039.614c.006.313.05.751.181 1.256.132.504.351 1.074.57 1.617.22.543.439 1.058.592 1.436.154.379.242.62.324.85s.159.45.22.543c.06.093.103.06.196-.143s.236-.575.313-.954a4.4 4.4 0 0 0 .06-1.173c-.027-.41-.093-.85-.104-1.052s.033-.17.17-.077.367.247.69.488c.324.241.741.57 1.12.96.378.389.717.838.953 1.216a4 4 0 0 1 .417.85c.05.164.016.186-.06.329-.077.142-.198.406-.384.767a9 9 0 0 1-.85 1.365c-.411.543-.981 1.168-1.64 1.799-.657.63-1.403 1.266-2.285 1.82a14 14 0 0 1-2.928 1.37 19 19 0 0 1-2.587.658c-.532.093-.565.06-.719-.098a13 13 0 0 1-.68-.751 6.6 6.6 0 0 1-.685-1.004 6.4 6.4 0 0 1-.532-1.283 9.7 9.7 0 0 1-.34-1.628c-.054-.504-.032-.899.022-1.337a7 7 0 0 1 .33-1.453 9 9 0 0 1 .745-1.568c.274-.455.537-.784.674-.932s.148-.115.126.038c-.022.154-.076.428-.104.757s-.027.712.017 1.168.131.98.241 1.354c.11.372.241.592.373.762.131.17.263.29.378.367s.214.11.263.126.05.016.033-.186" style="fill:none;fill-opacity:1;stroke:none;stroke-width:5.83152;stroke-linecap:round;stroke-linejoin:round;stroke-miterlimit:10;stroke-dasharray:none" transform="matrix(.7372 -1.27788 1.4056 .81216 99.42 134.539)"/><path d="M31.142 25.24c.082.21.248.629.347 1.18.1.553.133 1.237.1 1.827a6.8 6.8 0 0 1-.27 1.562 6.1 6.1 0 0 1-.641 1.479 7.3 7.3 0 0 1-1.457 1.777 9 9 0 0 1-2.19 1.374 5.6 5.6 0 0 1-1.833.469 7.2 7.2 0 0 1-1.82-.044 8.7 8.7 0 0 1-1.706-.48 6.3 6.3 0 0 1-1.076-.525 7 7 0 0 1-.679-.474c-.138-.11-.16-.144.122-.193.281-.05.866-.116 1.451-.238a10 10 0 0 0 1.915-.612 23 23 0 0 0 2.284-1.132c.635-.364 1-.64 1.424-1.004.425-.364.91-.817 1.374-1.313a13 13 0 0 0 1.264-1.567c.359-.53.634-1.049.828-1.408.193-.358.303-.557.37-.678.066-.122.088-.166.099-.188.01-.022.01-.022.094.188" style="fill:none;fill-opacity:1;stroke:none;stroke-width:5.83152;stroke-linecap:round;stroke-linejoin:round;stroke-miterlimit:10;stroke-dasharray:none;stroke-opacity:0" transform="matrix(.7372 -1.27788 1.4056 .81216 99.42 134.539)"/><rect width="21.611" height="25.642" x="247.103" y="69.178" rx="4.45" ry="3.198" style="fill:none;fill-opacity:1;stroke:#333;stroke-width:8.97622;stroke-linecap:round;stroke-linejoin:round;stroke-miterlimit:10.8;stroke-dasharray:none;stroke-opacity:1;paint-order:fill markers stroke" transform="rotate(30.02)skewX(.04)"/><rect width="21.611" height="25.642" x="114.921" y="69.178" rx="4.45" ry="3.198" style="fill:none;fill-opacity:1;stroke:#333;stroke-width:8.97622;stroke-linecap:round;stroke-linejoin:round;stroke-miterlimit:10.8;stroke-dasharray:none;stroke-opacity:1;paint-order:fill markers stroke" transform="rotate(30.02)skewX(.04)"/><g style="display:inline;fill:none;fill-opacity:1;stroke-width:1.12203"><path d="M6.102 22.318A6.55 6.55 0 0 0-.45 28.87a6.55 6.55 0 0 0 6.553 6.551 6.55 6.55 0 0 0 6.552-6.551 6.55 6.55 0 0 0-6.552-6.552m0 2.097c1.13 0 2.044.317 2.044.79 0 .534-1.626 2.222-2.044 2.222-.404 0-2.044-1.688-2.044-2.222 0-.46.915-.79 2.044-.79m-3.664 2.41c.534 0 2.221 1.627 2.221 2.045 0 .404-1.687 2.044-2.22 2.044-.462 0-.791-.915-.791-2.044s.317-2.045.79-2.045m7.328 0c.461 0 .79.915.79 2.045s-.316 2.044-.79 2.044c-.533 0-2.22-1.627-2.22-2.044 0-.405 1.687-2.045 2.22-2.045m-3.664 3.487c.404 0 2.044 1.688 2.044 2.222 0 .46-.915.79-2.044.79s-2.044-.317-2.044-.79c0-.534 1.627-2.222 2.044-2.222" style="fill:none;fill-opacity:1;stroke:none;stroke-width:1.56522;stroke-linecap:round;stroke-linejoin:round;stroke-miterlimit:10.8;stroke-dasharray:none;stroke-opacity:1;paint-order:fill markers stroke" transform="matrix(3.48137 2.01157 -2.00997 3.48413 67.3 -24.814)"/><path d="M-.443 28.073c3.711-6.4 8.956-5.367 12 .25-.776-8.299-9.765-7.664-12-.25" style="fill:none;fill-opacity:1;stroke:none;stroke-width:2.94868;stroke-linecap:round;stroke-linejoin:round;stroke-miterlimit:10.8;stroke-dasharray:none;stroke-opacity:1;paint-order:fill markers stroke" transform="matrix(3.48137 2.01157 -2.00997 3.48413 67.3 -24.814)"/><path d="M5.752 22.223a6.55 6.55 0 0 0-6.554 6.551 6.55 6.55 0 0 0 6.554 6.552 6.55 6.55 0 0 0 6.551-6.552 6.55 6.55 0 0 0-6.551-6.551m0 2.097c1.129 0 2.044.317 2.044.79 0 .534-1.627 2.221-2.044 2.221-.404 0-2.044-1.687-2.044-2.22 0-.462.915-.79 2.044-.79m-3.664 2.41c.533 0 2.22 1.627 2.22 2.044 0 .405-1.687 2.045-2.22 2.045-.461 0-.79-.916-.79-2.045s.317-2.044.79-2.044m7.328 0c.461 0 .79.915.79 2.044s-.317 2.045-.79 2.045c-.534 0-2.221-1.627-2.221-2.045 0-.404 1.687-2.044 2.22-2.044m-3.664 3.487c.404 0 2.044 1.688 2.044 2.221 0 .461-.915.79-2.044.79s-2.044-.316-2.044-.79c0-.533 1.626-2.22 2.044-2.22" style="display:inline;fill:#332640;fill-opacity:1;stroke:#332640;stroke-width:1.11602;stroke-linecap:round;stroke-linejoin:round;stroke-miterlimit:10.8;stroke-dasharray:none;stroke-opacity:1;paint-order:fill markers stroke" transform="matrix(3.48137 2.01157 -2.00997 3.48413 67.3 -24.814)"/></g><g style="fill:none;fill-opacity:1;stroke-width:1.60993" transform="matrix(2.42632 1.40194 -1.40083 2.42824 104.787 76.5)"><circle cx="7.844" cy="43.652" r="7.608" style="display:inline;fill:none;fill-opacity:1;stroke:none;stroke-width:2.24586;stroke-linecap:round;stroke-linejoin:round;stroke-miterlimit:10.8;stroke-dasharray:none;stroke-opacity:1;paint-order:fill markers stroke"/><path d="M13.746 43.84H9.963a2.1 2.1 0 0 1-.15.654l3.443 1.547a5.9 5.9 0 0 0 .49-2.201M12.07 39.572l-2.666 2.666a2.13 2.13 0 0 1 .553 1.205h3.785a5.9 5.9 0 0 0-1.672-3.87M11.79 39.291a5.9 5.9 0 0 0-3.948-1.514 6 6 0 0 0-1.428.182l.977 3.648a2 2 0 0 1 .45-.052 2.13 2.13 0 0 1 1.266.418zM6.033 38.074a5.91 5.91 0 0 0-4.1 5.614 5.9 5.9 0 0 0 .495 2.351l3.443-1.545a2.1 2.1 0 0 1-.162-.806 2.13 2.13 0 0 1 1.305-1.954Z" style="fill:none;fill-opacity:1;stroke:none;stroke-width:1.2799;stroke-linecap:round;stroke-linejoin:round;stroke-miterlimit:10.8;stroke-dasharray:none;stroke-opacity:1;paint-order:fill markers stroke"/><path d="M7.725 44.735c-.623-.167-1-.775-.844-1.358s.787-.922 1.41-.755 4.299 1.659 4.142 2.242c-.156.584-4.086.038-4.708-.13" style="display:inline;fill:none;fill-opacity:1;stroke:#333;stroke-width:1.12212;stroke-linecap:round;stroke-linejoin:round;stroke-miterlimit:10.8;stroke-dasharray:none;stroke-opacity:1;paint-order:fill markers stroke"/><g style="fill:none;fill-opacity:1;stroke-width:1.60993"><path d="m10.08 35.767 1.775.84L1.772 46.689l-.497-2.118ZM10.888 38.05l.888-.381L1.693 47.75l-.162-.345Z" style="fill:none;fill-opacity:1;stroke-width:4.2309;stroke-linecap:round;stroke-linejoin:round;stroke-miterlimit:10.8;paint-order:fill markers stroke" transform="translate(-1.06 -.381)"/></g><circle cx="7.844" cy="43.652" r="7.608" style="display:inline;fill:none;fill-opacity:1;stroke:#333;stroke-width:1.60131;stroke-linecap:round;stroke-linejoin:round;stroke-miterlimit:10.8;stroke-dasharray:none;stroke-opacity:1;paint-order:fill markers stroke"/></g></g><rect width="3.91" height="71.605" x="313.841" y="109.249" rx="1.955" ry="1.946" style="fill:#591919;fill-opacity:1;stroke-width:7.87584;stroke-linecap:square;stop-color:#000" transform="rotate(47.99)scale(.99082 1)skewY(-7.7)"/><rect width="2.631" height="48.18" x="322.201" y="135.064" rx="1.315" ry="1.31" style="fill:#591919;fill-opacity:1;stroke-width:5.29962;stroke-linecap:square;stop-color:#000" transform="matrix(.76506 .64395 -.74457 .66755 0 0)"/><path d="M147.418 229.174c16.196-.664 25.976 6.924 35.139 15.647 12.611 12.02 29.782 22.554 44.503 32.826 59.315 53.992 56.856 90.378 21.93 87.669-11.758-.971-78.434-67.201-83.691-75.252-5.187-7.993-44.485-14.347-42.101-28.548 1.558-9.29 20.14-22.376 24.22-32.342" style="fill:#354718;fill-opacity:.472081;stroke:none;stroke-width:24.0158;stroke-linecap:round;stroke-linejoin:round;stroke-dasharray:none;stroke-opacity:1"/></svg>