<svg xmlns="http://www.w3.org/2000/svg" xmlns:xlink="http://www.w3.org/1999/xlink" width="695.286" height="460.594" viewBox="0 0 183.961 121.866"><defs><pattern xlink:href="#a" id="b" x="0" y="0" patternTransform="matrix(.3 0 0 .3 1788.322 1264.04)" preserveAspectRatio="xMidYMid"/><pattern id="a" width="145.805" height="516.946" patternTransform="translate(1788.322 1142.86)" patternUnits="userSpaceOnUse" preserveAspectRatio="xMidYMid"><path d="M1.657-144.148h129.236v36.451H1.657z" style="fill:#906b32;fill-opacity:1;stroke:#5b441f;stroke-width:3.31;stroke-linecap:round;stroke-dasharray:none;stroke-opacity:1" transform="rotate(90)"/><path d="M130.894-144.148H260.13v36.451H130.894zM260.13-144.148h129.236v36.451H260.13z" style="fill:#9e7437;fill-opacity:1;stroke:#5b441f;stroke-width:3.31;stroke-linecap:round;stroke-dasharray:none;stroke-opacity:1" transform="rotate(90)"/><path d="M144.15 389.366v127.58h-36.452v-127.58Z" style="color:#000;font-style:normal;font-variant:normal;font-weight:400;font-stretch:normal;font-size:medium;line-height:normal;font-family:sans-serif;font-variant-ligatures:normal;font-variant-position:normal;font-variant-caps:normal;font-variant-numeric:normal;font-variant-alternates:normal;font-variant-east-asian:normal;font-feature-settings:normal;font-variation-settings:normal;text-indent:0;text-align:start;text-decoration-line:none;text-decoration-style:solid;text-decoration-color:#000;letter-spacing:normal;word-spacing:normal;text-transform:none;writing-mode:lr-tb;direction:ltr;text-orientation:mixed;dominant-baseline:auto;baseline-shift:baseline;text-anchor:start;white-space:normal;shape-padding:0;shape-margin:0;inline-size:0;clip-rule:nonzero;display:inline;overflow:visible;visibility:visible;isolation:auto;mix-blend-mode:normal;color-interpolation:sRGB;color-interpolation-filters:linearRGB;solid-color:#000;solid-opacity:1;vector-effect:none;fill:#9e7437;fill-opacity:1;fill-rule:nonzero;stroke:none;stroke-width:14.2848;stroke-linecap:round;stroke-linejoin:miter;stroke-miterlimit:4;stroke-dasharray:none;stroke-dashoffset:0;stroke-opacity:1;-inkscape-stroke:none;color-rendering:auto;image-rendering:auto;shape-rendering:auto;text-rendering:auto;stop-color:#000"/><path d="M145.805 387.71H106.04v129.236h3.316V391.022h33.137v125.924h3.312z" style="color:#000;font-style:normal;font-variant:normal;font-weight:400;font-stretch:normal;font-size:medium;line-height:normal;font-family:sans-serif;font-variant-ligatures:normal;font-variant-position:normal;font-variant-caps:normal;font-variant-numeric:normal;font-variant-alternates:normal;font-variant-east-asian:normal;font-feature-settings:normal;font-variation-settings:normal;text-indent:0;text-align:start;text-decoration-line:none;text-decoration-style:solid;text-decoration-color:#000;letter-spacing:normal;word-spacing:normal;text-transform:none;writing-mode:lr-tb;direction:ltr;text-orientation:mixed;dominant-baseline:auto;baseline-shift:baseline;text-anchor:start;white-space:normal;shape-padding:0;shape-margin:0;inline-size:0;clip-rule:nonzero;display:inline;overflow:visible;visibility:visible;isolation:auto;mix-blend-mode:normal;color-interpolation:sRGB;color-interpolation-filters:linearRGB;solid-color:#000;solid-opacity:1;vector-effect:none;fill:#5d451f;fill-opacity:1;fill-rule:nonzero;stroke:none;stroke-width:14.2848;stroke-linecap:round;stroke-linejoin:miter;stroke-miterlimit:4;stroke-dasharray:none;stroke-dashoffset:0;stroke-opacity:1;-inkscape-stroke:none;color-rendering:auto;image-rendering:auto;shape-rendering:auto;text-rendering:auto;stop-color:#000"/><path d="M1.657-107.697h66.275v36.451H1.657z" style="fill:#a98256;fill-opacity:1;stroke:#5b441f;stroke-width:3.31;stroke-linecap:round;stroke-dasharray:none;stroke-opacity:1" transform="rotate(90)"/><path d="M67.932-107.697h129.236v36.451H67.932z" style="fill:#9e7437;fill-opacity:1;stroke:#5b441f;stroke-width:3.31;stroke-linecap:round;stroke-dasharray:none;stroke-opacity:1" transform="rotate(90)"/><path d="M260.13-71.246h129.236v36.451H260.13z" style="fill:#9e7437;fill-opacity:1;stroke:none;stroke-width:3.31;stroke-linecap:round;stroke-dasharray:none;stroke-opacity:1" transform="rotate(90)"/><path d="M197.169-107.697h129.236v36.451H197.169z" style="fill:#906b32;fill-opacity:1;stroke:#5b441f;stroke-width:3.31;stroke-linecap:round;stroke-dasharray:none;stroke-opacity:1" transform="rotate(90)"/><path d="M326.405-107.697h129.236v36.451H326.405z" style="fill:#9e7437;fill-opacity:1;stroke:#5b441f;stroke-width:3.31;stroke-linecap:round;stroke-dasharray:none;stroke-opacity:1" transform="rotate(90)"/><path d="M107.698 455.641v61.305H71.246V455.64z" style="color:#000;font-style:normal;font-variant:normal;font-weight:400;font-stretch:normal;font-size:medium;line-height:normal;font-family:sans-serif;font-variant-ligatures:normal;font-variant-position:normal;font-variant-caps:normal;font-variant-numeric:normal;font-variant-alternates:normal;font-variant-east-asian:normal;font-feature-settings:normal;font-variation-settings:normal;text-indent:0;text-align:start;text-decoration-line:none;text-decoration-style:solid;text-decoration-color:#000;letter-spacing:normal;word-spacing:normal;text-transform:none;writing-mode:lr-tb;direction:ltr;text-orientation:mixed;dominant-baseline:auto;baseline-shift:baseline;text-anchor:start;white-space:normal;shape-padding:0;shape-margin:0;inline-size:0;clip-rule:nonzero;display:inline;overflow:visible;visibility:visible;isolation:auto;mix-blend-mode:normal;color-interpolation:sRGB;color-interpolation-filters:linearRGB;solid-color:#000;solid-opacity:1;vector-effect:none;fill:#a98256;fill-opacity:1;fill-rule:nonzero;stroke:none;stroke-width:14.2848;stroke-linecap:round;stroke-linejoin:miter;stroke-miterlimit:4;stroke-dasharray:none;stroke-dashoffset:0;stroke-opacity:1;-inkscape-stroke:none;color-rendering:auto;image-rendering:auto;shape-rendering:auto;text-rendering:auto;stop-color:#000"/><path d="M109.356 453.987H69.59v62.959h3.313v-59.648h33.137v59.648h3.316z" style="color:#000;font-style:normal;font-variant:normal;font-weight:400;font-stretch:normal;font-size:medium;line-height:normal;font-family:sans-serif;font-variant-ligatures:normal;font-variant-position:normal;font-variant-caps:normal;font-variant-numeric:normal;font-variant-alternates:normal;font-variant-east-asian:normal;font-feature-settings:normal;font-variation-settings:normal;text-indent:0;text-align:start;text-decoration-line:none;text-decoration-style:solid;text-decoration-color:#000;letter-spacing:normal;word-spacing:normal;text-transform:none;writing-mode:lr-tb;direction:ltr;text-orientation:mixed;dominant-baseline:auto;baseline-shift:baseline;text-anchor:start;white-space:normal;shape-padding:0;shape-margin:0;inline-size:0;clip-rule:nonzero;display:inline;overflow:visible;visibility:visible;isolation:auto;mix-blend-mode:normal;color-interpolation:sRGB;color-interpolation-filters:linearRGB;solid-color:#000;solid-opacity:1;vector-effect:none;fill:#5d451f;fill-opacity:1;fill-rule:nonzero;stroke:none;stroke-width:14.2848;stroke-linecap:round;stroke-linejoin:miter;stroke-miterlimit:4;stroke-dasharray:none;stroke-dashoffset:0;stroke-opacity:1;-inkscape-stroke:none;color-rendering:auto;image-rendering:auto;shape-rendering:auto;text-rendering:auto;stop-color:#000"/><path d="M1.657-71.246h129.236v36.451H1.657z" style="fill:#9e7437;fill-opacity:1;stroke:#5b441f;stroke-width:3.31;stroke-linecap:round;stroke-dasharray:none;stroke-opacity:1" transform="rotate(90)"/><path d="M130.894-71.246H260.13v36.451H130.894z" style="fill:#906b32;fill-opacity:1;stroke:#5b441f;stroke-width:3.31;stroke-linecap:round;stroke-dasharray:none;stroke-opacity:1" transform="rotate(90)"/><path d="M71.246 389.366v127.58H34.794v-127.58Z" style="color:#000;font-style:normal;font-variant:normal;font-weight:400;font-stretch:normal;font-size:medium;line-height:normal;font-family:sans-serif;font-variant-ligatures:normal;font-variant-position:normal;font-variant-caps:normal;font-variant-numeric:normal;font-variant-alternates:normal;font-variant-east-asian:normal;font-feature-settings:normal;font-variation-settings:normal;text-indent:0;text-align:start;text-decoration-line:none;text-decoration-style:solid;text-decoration-color:#000;letter-spacing:normal;word-spacing:normal;text-transform:none;writing-mode:lr-tb;direction:ltr;text-orientation:mixed;dominant-baseline:auto;baseline-shift:baseline;text-anchor:start;white-space:normal;shape-padding:0;shape-margin:0;inline-size:0;clip-rule:nonzero;display:inline;overflow:visible;visibility:visible;isolation:auto;mix-blend-mode:normal;color-interpolation:sRGB;color-interpolation-filters:linearRGB;solid-color:#000;solid-opacity:1;fill:#906b32;fill-opacity:1;fill-rule:nonzero;stroke:none;stroke-width:14.285;stroke-linecap:round;stroke-linejoin:miter;stroke-miterlimit:4;stroke-dasharray:none;stroke-dashoffset:0;stroke-opacity:1;color-rendering:auto;image-rendering:auto;shape-rendering:auto;text-rendering:auto;stop-color:#000"/><path d="M72.903 387.71H33.137v129.236h3.312V391.022H69.59v125.924h3.313z" style="color:#000;font-style:normal;font-variant:normal;font-weight:400;font-stretch:normal;font-size:medium;line-height:normal;font-family:sans-serif;font-variant-ligatures:normal;font-variant-position:normal;font-variant-caps:normal;font-variant-numeric:normal;font-variant-alternates:normal;font-variant-east-asian:normal;font-feature-settings:normal;font-variation-settings:normal;text-indent:0;text-align:start;text-decoration-line:none;text-decoration-style:solid;text-decoration-color:#000;letter-spacing:normal;word-spacing:normal;text-transform:none;writing-mode:lr-tb;direction:ltr;text-orientation:mixed;dominant-baseline:auto;baseline-shift:baseline;text-anchor:start;white-space:normal;shape-padding:0;shape-margin:0;inline-size:0;clip-rule:nonzero;display:inline;overflow:visible;visibility:visible;isolation:auto;mix-blend-mode:normal;color-interpolation:sRGB;color-interpolation-filters:linearRGB;solid-color:#000;solid-opacity:1;vector-effect:none;fill:#5d451f;fill-opacity:1;fill-rule:nonzero;stroke:none;stroke-width:14.2848;stroke-linecap:round;stroke-linejoin:miter;stroke-miterlimit:4;stroke-dasharray:none;stroke-dashoffset:0;stroke-opacity:1;-inkscape-stroke:none;color-rendering:auto;image-rendering:auto;shape-rendering:auto;text-rendering:auto;stop-color:#000"/><path d="M34.795 0v66.275H.002V0Z" style="fill:#a98256;stroke-width:14.2848;stroke-linecap:round"/><path d="M36.45 0H.002v3.312h33.136v62.966H.002v3.311H36.45Z" style="fill:#5b441f;fill-opacity:1;stroke-width:14.2848;stroke-linecap:round"/><path d="M34.795 67.932v129.236H.002V67.933Z" style="fill:#9e7437;fill-opacity:1;stroke-width:14.2848;stroke-linecap:round"/><path d="M36.45 66.278H.002v3.311h33.136v125.925H.002v3.311H36.45Z" style="fill:#5b441f;fill-opacity:1;stroke-width:14.2848;stroke-linecap:round"/><path d="M34.795 197.169v129.236H.002V197.169Z" style="fill:#9e7437;fill-opacity:1;stroke-width:14.2848;stroke-linecap:round"/><path d="M36.45 195.514H.002v3.311h33.136v125.926H.002v3.31H36.45Z" style="fill:#5b441f;fill-opacity:1;stroke-width:14.2848;stroke-linecap:round"/><path d="M34.795 326.405V455.64H.002V326.405Z" style="fill:#9e7437;fill-opacity:1;stroke-width:14.2848;stroke-linecap:round"/><path d="M36.45 324.75H.002v3.312h33.136v125.925H.002v3.311H36.45Z" style="fill:#5b441f;fill-opacity:1;stroke-width:14.2848;stroke-linecap:round"/><path d="M34.794 455.641v61.305H0V455.64z" style="color:#000;font-style:normal;font-variant:normal;font-weight:400;font-stretch:normal;font-size:medium;line-height:normal;font-family:sans-serif;font-variant-ligatures:normal;font-variant-position:normal;font-variant-caps:normal;font-variant-numeric:normal;font-variant-alternates:normal;font-variant-east-asian:normal;font-feature-settings:normal;font-variation-settings:normal;text-indent:0;text-align:start;text-decoration-line:none;text-decoration-style:solid;text-decoration-color:#000;letter-spacing:normal;word-spacing:normal;text-transform:none;writing-mode:lr-tb;direction:ltr;text-orientation:mixed;dominant-baseline:auto;baseline-shift:baseline;text-anchor:start;white-space:normal;shape-padding:0;shape-margin:0;inline-size:0;clip-rule:nonzero;display:inline;overflow:visible;visibility:visible;isolation:auto;mix-blend-mode:normal;color-interpolation:sRGB;color-interpolation-filters:linearRGB;solid-color:#000;solid-opacity:1;vector-effect:none;fill:#a98256;fill-opacity:1;fill-rule:nonzero;stroke:none;stroke-width:14.2848;stroke-linecap:round;stroke-linejoin:miter;stroke-miterlimit:4;stroke-dasharray:none;stroke-dashoffset:0;stroke-opacity:1;-inkscape-stroke:none;color-rendering:auto;image-rendering:auto;shape-rendering:auto;text-rendering:auto;stop-color:#000"/><path d="M36.45 453.987H0v3.311h33.137v59.648h3.312z" style="color:#000;font-style:normal;font-variant:normal;font-weight:400;font-stretch:normal;font-size:medium;line-height:normal;font-family:sans-serif;font-variant-ligatures:normal;font-variant-position:normal;font-variant-caps:normal;font-variant-numeric:normal;font-variant-alternates:normal;font-variant-east-asian:normal;font-feature-settings:normal;font-variation-settings:normal;text-indent:0;text-align:start;text-decoration-line:none;text-decoration-style:solid;text-decoration-color:#000;letter-spacing:normal;word-spacing:normal;text-transform:none;writing-mode:lr-tb;direction:ltr;text-orientation:mixed;dominant-baseline:auto;baseline-shift:baseline;text-anchor:start;white-space:normal;shape-padding:0;shape-margin:0;inline-size:0;clip-rule:nonzero;display:inline;overflow:visible;visibility:visible;isolation:auto;mix-blend-mode:normal;color-interpolation:sRGB;color-interpolation-filters:linearRGB;solid-color:#000;solid-opacity:1;vector-effect:none;fill:#5b441f;fill-opacity:1;fill-rule:nonzero;stroke:none;stroke-width:14.2848;stroke-linecap:round;stroke-linejoin:miter;stroke-miterlimit:4;stroke-dasharray:none;stroke-dashoffset:0;stroke-opacity:1;-inkscape-stroke:none;color-rendering:auto;image-rendering:auto;shape-rendering:auto;text-rendering:auto;stop-color:#000"/><path d="M106.04 0v66.275H72.902V0Z" style="fill:#9e7437;fill-opacity:1;stroke-width:14.2848;stroke-linecap:round"/><path d="M33.138 0v66.275H.002V0Z" style="fill:#906b32;fill-opacity:1;stroke-width:14.2848;stroke-linecap:round"/><path d="M106.04 457.298v59.648H72.903v-59.648z" style="fill:#9e7437;fill-opacity:1;stroke-width:14.2848;stroke-linecap:round"/><path d="M33.137 457.298v59.648H0v-59.648z" style="fill:#906b32;fill-opacity:1;stroke-width:14.2848;stroke-linecap:round"/></pattern></defs><g transform="translate(9.142 -71.702)"><path d="M-159.314-249.538H-6.396v174.625h-152.918z" style="fill:#9d9489;fill-opacity:1;fill-rule:evenodd;stroke:none;stroke-width:.94493;stroke-linecap:round;stroke-opacity:.467153" transform="scale(-1)"/><path d="M8.211 75.268h160.345V309.4H8.211z" style="opacity:1;fill:url(#b);fill-opacity:1;stroke:none;stroke-width:.266152"/><path d="M-1292.332 1163.891h27.542v25.948h-27.542z" style="display:inline;fill:#333;fill-opacity:1;stroke-width:.481827;stroke-opacity:.575758;paint-order:markers stroke fill;stop-color:#000" transform="matrix(0 -1 .69823 0 -822.19 -1135.675)"/><path d="M-1291.009 1166.725h24.573v20.828h-24.573z" style="display:inline;fill:#666;stroke-width:.407756;stroke-opacity:.575758;paint-order:markers stroke fill;stop-color:#000" transform="matrix(0 -1 .69823 0 -822.19 -1135.675)"/><path d="M-1264.992 1163.89h27.542v25.948h-27.542z" style="display:inline;fill:#333;fill-opacity:1;stroke-width:.481827;stroke-opacity:.575758;paint-order:markers stroke fill;stop-color:#000" transform="matrix(0 -1 .69823 0 -822.19 -1135.675)"/><path d="M-1263.669 1166.723h24.573v20.828h-24.573z" style="display:inline;fill:#666;stroke-width:.407756;stroke-opacity:.575758;paint-order:markers stroke fill;stop-color:#000" transform="matrix(0 -1 .69823 0 -822.19 -1135.675)"/><g transform="matrix(1.34168 0 0 1.34168 -1648.93 -1518.31)"><g style="opacity:.5;stroke:#3f2e16;stroke-opacity:1"><g style="stroke:#3f2e16;stroke-opacity:1"><g style="opacity:.25"><path d="M92.102 11.89c-2.39 31.684-10.424 34.44-18.052 39.562-7.628-5.011-15.662-7.878-18.054-39.562 6.304-.415 12.683-.679 18.054-4.805 5.37 4.037 11.748 4.39 18.052 4.805Z" style="fill:none;fill-opacity:1;fill-rule:nonzero;stroke:#000;stroke-width:3.17684;stroke-linejoin:round;stroke-dasharray:none;stroke-opacity:1" transform="matrix(1.21387 0 0 1.21387 1205.877 1238.043)"/><path stroke="none" d="M66.939 8.936V19.77H55.644v3.129H66.94v25.64h3.128V22.9h22.314v-3.13H70.067V8.937Z" style="fill:#000;fill-opacity:1;fill-rule:nonzero;stroke:#000;stroke-width:0;stroke-linejoin:round;stroke-dasharray:none;stroke-opacity:1" transform="matrix(1.21387 0 0 1.21387 1205.877 1238.043)"/></g></g></g><circle cx="1295.557" cy="1271.363" r="34.633" style="opacity:.15;fill:none;fill-opacity:1;stroke:#000;stroke-width:3.933;stroke-linejoin:miter;stroke-dasharray:none;stroke-opacity:1;stop-color:#000"/><path d="M11.625 90.015c5.704-1.862-4.18-10.158 1.861-10.51 3.993-.233 23.158-.02 26.965.592 3.177.511 6.783 1.42 9.795.258 4.97-1.92 9.773-1.953 9.829 1.237.032 1.864-2.226 6.97-5.25 7.785-3.66.985-6.825-1.547-10.675-1.531-2.459.013-3.333 4.116-5.824 4.528-3.065.505-6.88-3.195-10.381-3.179-4.443.021-16.096 11.789-16.32.82z" style="fill:#354718;fill-opacity:.472081;stroke:none;stroke-width:5.40119;stroke-linecap:round;stroke-linejoin:round;stroke-dasharray:none;stroke-opacity:1" transform="matrix(.74534 0 0 .74534 1229.009 1131.653)"/><path d="M1316.297 1191.785c5.38-.245 9.429-1.469 15.02-2.112 2.845-.327 29.178 2.434 22.6 6.975-1.7 1.175-8.754.218-11.168.552-4.938.682-4.473 5.003-12.096 3.028-3.462-.896-3.698-4.013-7.445-4.589-1.283-.196-9.798-.206-9.354-2.665.11-.608 1.036-.024 2.441-1.19z" style="fill:#354718;fill-opacity:.470588;stroke:none;stroke-width:2.78348;stroke-linecap:round;stroke-linejoin:round;stroke-dasharray:none;stroke-opacity:1"/><path d="M1352.443 1261.575c.174-2.157.444-4.578.07-6.72-.305-1.755-.172-3.76-.337-5.568-.171-1.875 2.473-4.932 1.506-6.45-3.027-4.756-5.02 5.26-5.385 6.29-.338.958-1.728.97-1.817 2.07-.143 1.768 2.165 1.906 2.082 2.937-.15 1.864-2.784 1.783-1.313 4.095.387.609 1.016.645 1.394 1.238.894 1.405-1.034 4.65-1.504 5.98-.377 1.064-.376 7.323.546 7.856.954.55 3.245.997 4.606 1.15z" style="fill:#354718;fill-opacity:.472081;stroke:none;stroke-width:3.2845;stroke-linecap:round;stroke-linejoin:round;stroke-dasharray:none;stroke-opacity:1"/><path d="M1233.816 1249.345c3.695 6.34 1.541 14.159-1.296 20.59-.17.386-.586 2.118-1.005 2.277-.783.299-3.403-1.235-3.63-1.602-.63-1.014 2.02-1.984 1.922-2.57-.116-.692-2.639-.644-1.626-1.677.55-.561 3.147-.28 2.516-.787-.446-.357-1.043-3.481-1.148-4.115-.317-1.889 4.084 1.622 3.253-.877-.198-.593-2.91-1.158-3.54-1.81-.866-.892 3.095-2.568 2.64-3.302-.596-.959-2.195-1.438-2.589-2.401-.723-1.764 2.643-4.747 4.502-3.726" style="fill:#354718;fill-opacity:.470588;stroke:none;stroke-width:1.88946;stroke-linecap:round;stroke-linejoin:round;stroke-dasharray:none;stroke-opacity:1"/></g><rect width="9.989" height="58.912" x="-4.366" y="-260.533" rx="2.686" ry="2.686" style="fill:#333;fill-opacity:1;stroke-width:.970411;stroke-linecap:square;stop-color:#000" transform="scale(1 -1)"/><rect width="53.047" height="3.742" x="204.553" y="-2.215" rx="1.113" ry="1.113" style="display:inline;fill:#656565;fill-opacity:1;stroke-width:.223198" transform="matrix(0 1 1 0 0 0)"/><path d="M3.603 156.24h11.13v158.044H3.603z" style="fill:#262626;fill-opacity:1;stroke:none;stroke-width:1.11738;stroke-linejoin:round;stroke-dasharray:none;stroke-opacity:1;stop-color:#000"/><rect width="6.233" height="41.784" x="6.043" y="158.805" rx="1.243" ry="1.243" style="fill:#606060;fill-opacity:1;stroke:none;stroke-width:.498237;stroke-linejoin:round;stroke-dasharray:none;stroke-opacity:1;stop-color:#000"/><path d="M-314.281 14.101h11.13v160.718h-11.13z" style="fill:#262626;fill-opacity:1;stroke:none;stroke-width:1.1268;stroke-linejoin:round;stroke-dasharray:none;stroke-opacity:1;stop-color:#000" transform="rotate(-90)"/><rect width="6.233" height="51.497" x="6.145" y="260.243" rx="1.243" ry="1.243" style="fill:#606060;fill-opacity:1;stroke:none;stroke-width:.553116;stroke-linejoin:round;stroke-dasharray:none;stroke-opacity:1;stop-color:#000"/><rect width="6.233" height="166.187" x="305.546" y="-172.327" rx="1.243" ry="1.243" style="fill:#606060;fill-opacity:1;stroke:none;stroke-width:.993632;stroke-linejoin:round;stroke-dasharray:none;stroke-opacity:1;stop-color:#000" transform="rotate(90)"/><path d="M71.702-164.318h11.13V-3.6h-11.13z" style="fill:#262626;fill-opacity:1;stroke:none;stroke-width:1.1268;stroke-linejoin:round;stroke-dasharray:none;stroke-opacity:1;stop-color:#000" transform="rotate(90)"/><path d="M-174.817-303.264h11.13v231.556h-11.13z" style="fill:#262626;fill-opacity:1;stroke:none;stroke-width:1.35252;stroke-linejoin:round;stroke-dasharray:none;stroke-opacity:1;stop-color:#000" transform="scale(-1)"/><rect width="6.233" height="236.998" x="166.067" y="74.226" rx="1.243" ry="1.243" style="fill:#606060;fill-opacity:1;stroke:none;stroke-width:1.18659;stroke-linejoin:round;stroke-dasharray:none;stroke-opacity:1;stop-color:#000"/><rect width="6.233" height="166.252" x="-80.438" y="6.026" rx="1.243" ry="1.243" style="fill:#606060;fill-opacity:1;stroke:none;stroke-width:.993827;stroke-linejoin:round;stroke-dasharray:none;stroke-opacity:1;stop-color:#000" transform="rotate(-90)"/><path d="M3.603 80.955h11.13v21.954H3.603z" style="fill:#262626;fill-opacity:1;stroke:none;stroke-width:.416453;stroke-linejoin:round;stroke-dasharray:none;stroke-opacity:1;stop-color:#000"/><rect width="6.233" height="25.174" x="6.043" y="74.862" rx="1.243" ry="1.243" style="fill:#606060;fill-opacity:1;stroke:none;stroke-width:.386727;stroke-linejoin:round;stroke-dasharray:none;stroke-opacity:1;stop-color:#000"/></g></svg>