<svg xmlns="http://www.w3.org/2000/svg" xmlns:xlink="http://www.w3.org/1999/xlink" width="676.065" height="878.066" viewBox="0 0 178.875 232.322"><defs><pattern xlink:href="#a" id="b" x="0" y="0" patternTransform="matrix(.3 0 0 .3 1788.322 1142.86)" preserveAspectRatio="xMidYMid"/><pattern id="a" width="145.805" height="516.946" patternTransform="translate(1788.322 1142.86)" patternUnits="userSpaceOnUse" preserveAspectRatio="xMidYMid"><path d="M1.657-144.148h129.236v36.451H1.657z" style="fill:#906b32;fill-opacity:1;stroke:#5b441f;stroke-width:3.31;stroke-linecap:round;stroke-dasharray:none;stroke-opacity:1" transform="rotate(90)"/><path d="M130.894-144.148H260.13v36.451H130.894zM260.13-144.148h129.236v36.451H260.13z" style="fill:#9e7437;fill-opacity:1;stroke:#5b441f;stroke-width:3.31;stroke-linecap:round;stroke-dasharray:none;stroke-opacity:1" transform="rotate(90)"/><path d="M144.15 389.366v127.58h-36.452v-127.58Z" style="color:#000;font-style:normal;font-variant:normal;font-weight:400;font-stretch:normal;font-size:medium;line-height:normal;font-family:sans-serif;font-variant-ligatures:normal;font-variant-position:normal;font-variant-caps:normal;font-variant-numeric:normal;font-variant-alternates:normal;font-variant-east-asian:normal;font-feature-settings:normal;font-variation-settings:normal;text-indent:0;text-align:start;text-decoration-line:none;text-decoration-style:solid;text-decoration-color:#000;letter-spacing:normal;word-spacing:normal;text-transform:none;writing-mode:lr-tb;direction:ltr;text-orientation:mixed;dominant-baseline:auto;baseline-shift:baseline;text-anchor:start;white-space:normal;shape-padding:0;shape-margin:0;inline-size:0;clip-rule:nonzero;display:inline;overflow:visible;visibility:visible;isolation:auto;mix-blend-mode:normal;color-interpolation:sRGB;color-interpolation-filters:linearRGB;solid-color:#000;solid-opacity:1;vector-effect:none;fill:#9e7437;fill-opacity:1;fill-rule:nonzero;stroke:none;stroke-width:14.2848;stroke-linecap:round;stroke-linejoin:miter;stroke-miterlimit:4;stroke-dasharray:none;stroke-dashoffset:0;stroke-opacity:1;-inkscape-stroke:none;color-rendering:auto;image-rendering:auto;shape-rendering:auto;text-rendering:auto;stop-color:#000"/><path d="M145.805 387.71H106.04v129.236h3.316V391.022h33.137v125.924h3.312z" style="color:#000;font-style:normal;font-variant:normal;font-weight:400;font-stretch:normal;font-size:medium;line-height:normal;font-family:sans-serif;font-variant-ligatures:normal;font-variant-position:normal;font-variant-caps:normal;font-variant-numeric:normal;font-variant-alternates:normal;font-variant-east-asian:normal;font-feature-settings:normal;font-variation-settings:normal;text-indent:0;text-align:start;text-decoration-line:none;text-decoration-style:solid;text-decoration-color:#000;letter-spacing:normal;word-spacing:normal;text-transform:none;writing-mode:lr-tb;direction:ltr;text-orientation:mixed;dominant-baseline:auto;baseline-shift:baseline;text-anchor:start;white-space:normal;shape-padding:0;shape-margin:0;inline-size:0;clip-rule:nonzero;display:inline;overflow:visible;visibility:visible;isolation:auto;mix-blend-mode:normal;color-interpolation:sRGB;color-interpolation-filters:linearRGB;solid-color:#000;solid-opacity:1;vector-effect:none;fill:#5d451f;fill-opacity:1;fill-rule:nonzero;stroke:none;stroke-width:14.2848;stroke-linecap:round;stroke-linejoin:miter;stroke-miterlimit:4;stroke-dasharray:none;stroke-dashoffset:0;stroke-opacity:1;-inkscape-stroke:none;color-rendering:auto;image-rendering:auto;shape-rendering:auto;text-rendering:auto;stop-color:#000"/><path d="M1.657-107.697h66.275v36.451H1.657z" style="fill:#a98256;fill-opacity:1;stroke:#5b441f;stroke-width:3.31;stroke-linecap:round;stroke-dasharray:none;stroke-opacity:1" transform="rotate(90)"/><path d="M67.932-107.697h129.236v36.451H67.932z" style="fill:#9e7437;fill-opacity:1;stroke:#5b441f;stroke-width:3.31;stroke-linecap:round;stroke-dasharray:none;stroke-opacity:1" transform="rotate(90)"/><path d="M260.13-71.246h129.236v36.451H260.13z" style="fill:#9e7437;fill-opacity:1;stroke:none;stroke-width:3.31;stroke-linecap:round;stroke-dasharray:none;stroke-opacity:1" transform="rotate(90)"/><path d="M197.169-107.697h129.236v36.451H197.169z" style="fill:#906b32;fill-opacity:1;stroke:#5b441f;stroke-width:3.31;stroke-linecap:round;stroke-dasharray:none;stroke-opacity:1" transform="rotate(90)"/><path d="M326.405-107.697h129.236v36.451H326.405z" style="fill:#9e7437;fill-opacity:1;stroke:#5b441f;stroke-width:3.31;stroke-linecap:round;stroke-dasharray:none;stroke-opacity:1" transform="rotate(90)"/><path d="M107.698 455.641v61.305H71.246V455.64z" style="color:#000;font-style:normal;font-variant:normal;font-weight:400;font-stretch:normal;font-size:medium;line-height:normal;font-family:sans-serif;font-variant-ligatures:normal;font-variant-position:normal;font-variant-caps:normal;font-variant-numeric:normal;font-variant-alternates:normal;font-variant-east-asian:normal;font-feature-settings:normal;font-variation-settings:normal;text-indent:0;text-align:start;text-decoration-line:none;text-decoration-style:solid;text-decoration-color:#000;letter-spacing:normal;word-spacing:normal;text-transform:none;writing-mode:lr-tb;direction:ltr;text-orientation:mixed;dominant-baseline:auto;baseline-shift:baseline;text-anchor:start;white-space:normal;shape-padding:0;shape-margin:0;inline-size:0;clip-rule:nonzero;display:inline;overflow:visible;visibility:visible;isolation:auto;mix-blend-mode:normal;color-interpolation:sRGB;color-interpolation-filters:linearRGB;solid-color:#000;solid-opacity:1;vector-effect:none;fill:#a98256;fill-opacity:1;fill-rule:nonzero;stroke:none;stroke-width:14.2848;stroke-linecap:round;stroke-linejoin:miter;stroke-miterlimit:4;stroke-dasharray:none;stroke-dashoffset:0;stroke-opacity:1;-inkscape-stroke:none;color-rendering:auto;image-rendering:auto;shape-rendering:auto;text-rendering:auto;stop-color:#000"/><path d="M109.356 453.987H69.59v62.959h3.313v-59.648h33.137v59.648h3.316z" style="color:#000;font-style:normal;font-variant:normal;font-weight:400;font-stretch:normal;font-size:medium;line-height:normal;font-family:sans-serif;font-variant-ligatures:normal;font-variant-position:normal;font-variant-caps:normal;font-variant-numeric:normal;font-variant-alternates:normal;font-variant-east-asian:normal;font-feature-settings:normal;font-variation-settings:normal;text-indent:0;text-align:start;text-decoration-line:none;text-decoration-style:solid;text-decoration-color:#000;letter-spacing:normal;word-spacing:normal;text-transform:none;writing-mode:lr-tb;direction:ltr;text-orientation:mixed;dominant-baseline:auto;baseline-shift:baseline;text-anchor:start;white-space:normal;shape-padding:0;shape-margin:0;inline-size:0;clip-rule:nonzero;display:inline;overflow:visible;visibility:visible;isolation:auto;mix-blend-mode:normal;color-interpolation:sRGB;color-interpolation-filters:linearRGB;solid-color:#000;solid-opacity:1;vector-effect:none;fill:#5d451f;fill-opacity:1;fill-rule:nonzero;stroke:none;stroke-width:14.2848;stroke-linecap:round;stroke-linejoin:miter;stroke-miterlimit:4;stroke-dasharray:none;stroke-dashoffset:0;stroke-opacity:1;-inkscape-stroke:none;color-rendering:auto;image-rendering:auto;shape-rendering:auto;text-rendering:auto;stop-color:#000"/><path d="M1.657-71.246h129.236v36.451H1.657z" style="fill:#9e7437;fill-opacity:1;stroke:#5b441f;stroke-width:3.31;stroke-linecap:round;stroke-dasharray:none;stroke-opacity:1" transform="rotate(90)"/><path d="M130.894-71.246H260.13v36.451H130.894z" style="fill:#906b32;fill-opacity:1;stroke:#5b441f;stroke-width:3.31;stroke-linecap:round;stroke-dasharray:none;stroke-opacity:1" transform="rotate(90)"/><path d="M71.246 389.366v127.58H34.794v-127.58Z" style="color:#000;font-style:normal;font-variant:normal;font-weight:400;font-stretch:normal;font-size:medium;line-height:normal;font-family:sans-serif;font-variant-ligatures:normal;font-variant-position:normal;font-variant-caps:normal;font-variant-numeric:normal;font-variant-alternates:normal;font-variant-east-asian:normal;font-feature-settings:normal;font-variation-settings:normal;text-indent:0;text-align:start;text-decoration-line:none;text-decoration-style:solid;text-decoration-color:#000;letter-spacing:normal;word-spacing:normal;text-transform:none;writing-mode:lr-tb;direction:ltr;text-orientation:mixed;dominant-baseline:auto;baseline-shift:baseline;text-anchor:start;white-space:normal;shape-padding:0;shape-margin:0;inline-size:0;clip-rule:nonzero;display:inline;overflow:visible;visibility:visible;isolation:auto;mix-blend-mode:normal;color-interpolation:sRGB;color-interpolation-filters:linearRGB;solid-color:#000;solid-opacity:1;fill:#906b32;fill-opacity:1;fill-rule:nonzero;stroke:none;stroke-width:14.285;stroke-linecap:round;stroke-linejoin:miter;stroke-miterlimit:4;stroke-dasharray:none;stroke-dashoffset:0;stroke-opacity:1;color-rendering:auto;image-rendering:auto;shape-rendering:auto;text-rendering:auto;stop-color:#000"/><path d="M72.903 387.71H33.137v129.236h3.312V391.022H69.59v125.924h3.313z" style="color:#000;font-style:normal;font-variant:normal;font-weight:400;font-stretch:normal;font-size:medium;line-height:normal;font-family:sans-serif;font-variant-ligatures:normal;font-variant-position:normal;font-variant-caps:normal;font-variant-numeric:normal;font-variant-alternates:normal;font-variant-east-asian:normal;font-feature-settings:normal;font-variation-settings:normal;text-indent:0;text-align:start;text-decoration-line:none;text-decoration-style:solid;text-decoration-color:#000;letter-spacing:normal;word-spacing:normal;text-transform:none;writing-mode:lr-tb;direction:ltr;text-orientation:mixed;dominant-baseline:auto;baseline-shift:baseline;text-anchor:start;white-space:normal;shape-padding:0;shape-margin:0;inline-size:0;clip-rule:nonzero;display:inline;overflow:visible;visibility:visible;isolation:auto;mix-blend-mode:normal;color-interpolation:sRGB;color-interpolation-filters:linearRGB;solid-color:#000;solid-opacity:1;vector-effect:none;fill:#5d451f;fill-opacity:1;fill-rule:nonzero;stroke:none;stroke-width:14.2848;stroke-linecap:round;stroke-linejoin:miter;stroke-miterlimit:4;stroke-dasharray:none;stroke-dashoffset:0;stroke-opacity:1;-inkscape-stroke:none;color-rendering:auto;image-rendering:auto;shape-rendering:auto;text-rendering:auto;stop-color:#000"/><path d="M34.795 0v66.275H.002V0Z" style="fill:#a98256;stroke-width:14.2848;stroke-linecap:round"/><path d="M36.45 0H.002v3.312h33.136v62.966H.002v3.311H36.45Z" style="fill:#5b441f;fill-opacity:1;stroke-width:14.2848;stroke-linecap:round"/><path d="M34.795 67.932v129.236H.002V67.933Z" style="fill:#9e7437;fill-opacity:1;stroke-width:14.2848;stroke-linecap:round"/><path d="M36.45 66.278H.002v3.311h33.136v125.925H.002v3.311H36.45Z" style="fill:#5b441f;fill-opacity:1;stroke-width:14.2848;stroke-linecap:round"/><path d="M34.795 197.169v129.236H.002V197.169Z" style="fill:#9e7437;fill-opacity:1;stroke-width:14.2848;stroke-linecap:round"/><path d="M36.45 195.514H.002v3.311h33.136v125.926H.002v3.31H36.45Z" style="fill:#5b441f;fill-opacity:1;stroke-width:14.2848;stroke-linecap:round"/><path d="M34.795 326.405V455.64H.002V326.405Z" style="fill:#9e7437;fill-opacity:1;stroke-width:14.2848;stroke-linecap:round"/><path d="M36.45 324.75H.002v3.312h33.136v125.925H.002v3.311H36.45Z" style="fill:#5b441f;fill-opacity:1;stroke-width:14.2848;stroke-linecap:round"/><path d="M34.794 455.641v61.305H0V455.64z" style="color:#000;font-style:normal;font-variant:normal;font-weight:400;font-stretch:normal;font-size:medium;line-height:normal;font-family:sans-serif;font-variant-ligatures:normal;font-variant-position:normal;font-variant-caps:normal;font-variant-numeric:normal;font-variant-alternates:normal;font-variant-east-asian:normal;font-feature-settings:normal;font-variation-settings:normal;text-indent:0;text-align:start;text-decoration-line:none;text-decoration-style:solid;text-decoration-color:#000;letter-spacing:normal;word-spacing:normal;text-transform:none;writing-mode:lr-tb;direction:ltr;text-orientation:mixed;dominant-baseline:auto;baseline-shift:baseline;text-anchor:start;white-space:normal;shape-padding:0;shape-margin:0;inline-size:0;clip-rule:nonzero;display:inline;overflow:visible;visibility:visible;isolation:auto;mix-blend-mode:normal;color-interpolation:sRGB;color-interpolation-filters:linearRGB;solid-color:#000;solid-opacity:1;vector-effect:none;fill:#a98256;fill-opacity:1;fill-rule:nonzero;stroke:none;stroke-width:14.2848;stroke-linecap:round;stroke-linejoin:miter;stroke-miterlimit:4;stroke-dasharray:none;stroke-dashoffset:0;stroke-opacity:1;-inkscape-stroke:none;color-rendering:auto;image-rendering:auto;shape-rendering:auto;text-rendering:auto;stop-color:#000"/><path d="M36.45 453.987H0v3.311h33.137v59.648h3.312z" style="color:#000;font-style:normal;font-variant:normal;font-weight:400;font-stretch:normal;font-size:medium;line-height:normal;font-family:sans-serif;font-variant-ligatures:normal;font-variant-position:normal;font-variant-caps:normal;font-variant-numeric:normal;font-variant-alternates:normal;font-variant-east-asian:normal;font-feature-settings:normal;font-variation-settings:normal;text-indent:0;text-align:start;text-decoration-line:none;text-decoration-style:solid;text-decoration-color:#000;letter-spacing:normal;word-spacing:normal;text-transform:none;writing-mode:lr-tb;direction:ltr;text-orientation:mixed;dominant-baseline:auto;baseline-shift:baseline;text-anchor:start;white-space:normal;shape-padding:0;shape-margin:0;inline-size:0;clip-rule:nonzero;display:inline;overflow:visible;visibility:visible;isolation:auto;mix-blend-mode:normal;color-interpolation:sRGB;color-interpolation-filters:linearRGB;solid-color:#000;solid-opacity:1;vector-effect:none;fill:#5b441f;fill-opacity:1;fill-rule:nonzero;stroke:none;stroke-width:14.2848;stroke-linecap:round;stroke-linejoin:miter;stroke-miterlimit:4;stroke-dasharray:none;stroke-dashoffset:0;stroke-opacity:1;-inkscape-stroke:none;color-rendering:auto;image-rendering:auto;shape-rendering:auto;text-rendering:auto;stop-color:#000"/><path d="M106.04 0v66.275H72.902V0Z" style="fill:#9e7437;fill-opacity:1;stroke-width:14.2848;stroke-linecap:round"/><path d="M33.138 0v66.275H.002V0Z" style="fill:#906b32;fill-opacity:1;stroke-width:14.2848;stroke-linecap:round"/><path d="M106.04 457.298v59.648H72.903v-59.648z" style="fill:#9e7437;fill-opacity:1;stroke-width:14.2848;stroke-linecap:round"/><path d="M33.137 457.298v59.648H0v-59.648z" style="fill:#906b32;fill-opacity:1;stroke-width:14.2848;stroke-linecap:round"/></pattern></defs><g transform="translate(-827.203 -587.203)"><path d="M800.474 770.256h56.342v25.948h-56.342z" style="display:inline;fill:gray;fill-opacity:1;stroke-width:.481827;stroke-opacity:.575758;paint-order:markers stroke fill;stop-color:#000"/><g style="stroke-width:1.00593"><path d="M610.665 583.26h393.225v223.136H610.665z" style="fill:url(#b);stroke:none;stroke-width:.279354;fill-opacity:1" transform="matrix(.97744 0 0 .92867 19.25 47.965)"/></g><rect width="116.615" height="195.761" x="619.463" y="593.723" rx="0" ry="0" style="fill:#5f5f63;fill-opacity:1;stroke-width:1.11519;paint-order:stroke fill markers"/><path d="M595.816-733.866h58.662v111.874h-58.662z" style="display:inline;fill:#4c4c4c;fill-opacity:1;stroke-width:.188352;-inkscape-stroke:none;paint-order:markers stroke fill;stop-color:#000" transform="rotate(90)"/><path d="M-997.537-669.39h148.693v72.82h-148.693z" style="display:inline;fill:#4c4c4c;fill-opacity:1;stroke-width:.241932;-inkscape-stroke:none;paint-order:markers stroke fill;stop-color:#000" transform="scale(-1)"/><path d="M736.407-733.866h52.155v111.874h-52.155z" style="display:inline;fill:#4c4c4c;fill-opacity:1;stroke-width:.177599;-inkscape-stroke:none;paint-order:markers stroke fill;stop-color:#000" transform="rotate(90)"/><path d="M931.63 793.002c6.469-2.424 13.27-2.11 20.226-1.46 9.58.901 20.51.83 30.33 1.046 2.114.046 23.975 2.104 23.272 4.376-3.092 9.96-12.83 5.803-22.158 4.704-3.769-.445-7.528 3.112-10.667 3.975-5.222 1.437-12.437-2.815-17.533-3.867-5.044-1.048-17.626 5.314-21.784 1.82-2.72-2.284.235-7.805-1.685-10.594" style="fill:#354718;fill-opacity:.472081;stroke:none;stroke-width:9.08271;stroke-linecap:round;stroke-linejoin:round;stroke-dasharray:none;stroke-opacity:1"/><rect width="9.989" height="58.912" x="-804.897" y="-935.173" rx="2.686" ry="2.686" style="fill:#333;fill-opacity:1;stroke-width:.970411;stroke-linecap:square;stop-color:#000" transform="scale(1 -1)rotate(90)"/><rect width="53.047" height="3.742" x="879.193" y="-802.747" rx="1.113" ry="1.113" style="display:inline;fill:#656565;fill-opacity:1;stroke-width:.223198" transform="scale(1 -1)"/><path d="M800.474 794.573h27.542v25.948h-27.542z" style="display:inline;fill:#4d4d4d;stroke-width:.481827;stroke-opacity:.575758;paint-order:markers stroke fill;stop-color:#000"/><path d="M985.634 596.058c-32.862-11.751-80.579-5.92-115.589.64-2.104.394-11.319-.809-12.276.331-1.792 2.134 5.97 17.538 7.868 18.256 5.248 1.986 11.095-5.24 14.194-4.834 3.657.476 2.76 7.543 8.527 4.928 3.131-1.421 2.293-8.77 4.833-6.888 1.79 1.328-.08 10.373 3.275 10.806 9.989 1.302 10.769-18.5 23.88-15.624 3.112.682 5.437 8.415 8.747 10.328 4.54 2.624 14.482-8.125 18.28-6.69 4.961 1.88 7.112 6.472 12.147 7.788 9.221 2.413 31.086-13.6 26.114-19.04" style="fill:#354718;fill-opacity:.470588;stroke:none;stroke-width:7.32196;stroke-linecap:round;stroke-linejoin:round;stroke-dasharray:none;stroke-opacity:1"/><path d="M801.796 796.04h24.573v23.151h-24.573z" style="display:inline;fill:#666;stroke-width:.42989;stroke-opacity:.575758;paint-order:markers stroke fill;stop-color:#000"/><path d="M827.814 794.571h27.542v25.948h-27.542z" style="display:inline;fill:#4d4d4d;stroke-width:.481827;stroke-opacity:.575758;paint-order:markers stroke fill;stop-color:#000"/><path d="M829.137 796.039h24.573v23.151h-24.573z" style="display:inline;fill:#666;stroke-width:.42989;stroke-opacity:.575758;paint-order:markers stroke fill;stop-color:#000"/><path d="M-598.333 613.668h11.13v392.411h-11.13z" style="fill:#262626;fill-opacity:1;stroke:none;stroke-width:1.76069;stroke-linejoin:round;stroke-dasharray:none;stroke-opacity:1;stop-color:#000" transform="rotate(-90)"/><rect width="6.233" height="385.202" x="-595.893" y="616.871" rx="1.243" ry="1.243" style="fill:#606060;fill-opacity:1;stroke:none;stroke-width:1.51277;stroke-linejoin:round;stroke-dasharray:none;stroke-opacity:1;stop-color:#000" transform="rotate(-90)"/><path d="M985.397 659.527c3.13-.668 5.254-.766 6.917-.393a5.83 5.83 0 0 1 3.418 2.242c.613.849.846 1.283 1 1.398.153.114.438.315 1.865.082 1.1-.18 2.062.623 2.149 1.792.086 1.17-.737 2.266-1.84 2.445-1.979.323-3.544.064-4.623-.742-8.424-6.294-2.134-2.408-8.886-6.824" style="color:#000;fill:#5c563e;fill-opacity:1;fill-rule:evenodd;stroke:#2e2b1f;stroke-width:2.41269;stroke-linecap:round;stroke-linejoin:round;stroke-dasharray:none;stroke-opacity:1"/><path d="M979.599 771.22c-3.749.457-29.944 7.366-30.214 10.328-1.867 10.323 1.999 4.68 2.377 5.028 1.27 1.167 2.39 2.476 4.205 2.587 1.424.084 16.331 2.618 22.736-1.005 4.424-2.502 19.806-.209 19.893-3.79.085-3.552-15.087-12.988-18.997-13.149" style="fill:#354718;fill-opacity:.472081;stroke:none;stroke-width:8.3074;stroke-linecap:round;stroke-linejoin:round;stroke-dasharray:none;stroke-opacity:1"/><path d="M948.618 683.13c.23-3.193.726-5.26 1.547-6.754a5.83 5.83 0 0 1 3.105-2.66c.985-.352 1.468-.455 1.62-.57.153-.116.425-.333.599-1.77.134-1.106 1.172-1.807 2.319-1.564s1.97 1.338 1.837 2.446c-.24 1.992-.926 3.423-2 4.235-8.39 6.34-2.907 1.38-9.027 6.636M910.116 682.205c-.229-3.192-.726-5.259-1.547-6.753a5.83 5.83 0 0 0-3.104-2.66c-.986-.351-1.468-.454-1.621-.57s-.425-.333-.598-1.77c-.135-1.106-1.172-1.806-2.32-1.564-1.148.243-1.97 1.339-1.836 2.447.24 1.991.925 3.422 2 4.234 8.39 6.34 2.906 1.38 9.026 6.636M986.175 765.516c3.2-.016 5.3.32 6.853 1.025a5.83 5.83 0 0 1 2.889 2.891c.427.956.566 1.429.693 1.572s.365.398 1.81.46c1.114.05 1.892 1.03 1.739 2.193-.155 1.164-1.184 2.068-2.299 2.02-2.004-.088-3.483-.66-4.376-1.67-6.965-7.878-1.598-2.792-7.309-8.49" style="color:#000;fill:#5c563e;fill-opacity:1;fill-rule:evenodd;stroke:#2e2b1f;stroke-width:2.41269;stroke-linecap:round;stroke-linejoin:round;stroke-dasharray:none;stroke-opacity:1"/><path d="M-1006.053-796.553h11.13v198.885h-11.13zM-624.732-796.553h11.13v198.885h-11.13z" style="fill:#262626;fill-opacity:1;stroke:none;stroke-width:1.25347;stroke-linejoin:round;stroke-dasharray:none;stroke-opacity:1;stop-color:#000" transform="scale(-1)"/><path d="M-796.84 613.637h11.13v187.411h-11.13z" style="fill:#262626;fill-opacity:1;stroke:none;stroke-width:1.21677;stroke-linejoin:round;stroke-dasharray:none;stroke-opacity:1;stop-color:#000" transform="rotate(-90)"/><rect width="6.233" height="181.623" x="-794.401" y="616.871" rx="1.243" ry="1.243" style="fill:#606060;fill-opacity:1;stroke:none;stroke-width:1.03876;stroke-linejoin:round;stroke-dasharray:none;stroke-opacity:1;stop-color:#000" transform="rotate(-90)"/><path d="M-796.84 854.347h11.13v151.706h-11.13z" style="fill:#262626;fill-opacity:1;stroke:none;stroke-width:1.09474;stroke-linejoin:round;stroke-dasharray:none;stroke-opacity:1;stop-color:#000" transform="rotate(-90)"/><rect width="6.233" height="20.055" x="-794.401" y="856.786" rx="1.243" ry="1.243" style="fill:#606060;fill-opacity:1;stroke:none;stroke-width:.356206;stroke-linejoin:round;stroke-dasharray:none;stroke-opacity:1;stop-color:#000" transform="rotate(-90)"/><rect width="6.233" height="69.128" x="-794.401" y="934.547" rx="1.243" ry="1.243" style="fill:#606060;fill-opacity:1;stroke:none;stroke-width:.648053;stroke-linejoin:round;stroke-dasharray:none;stroke-opacity:1;stop-color:#000" transform="rotate(-90)"/><rect width="6.233" height="204.788" x="-622.369" y="-794.408" rx="1.243" ry="1.243" style="fill:#606060;fill-opacity:1;stroke:none;stroke-width:1.10301;stroke-linejoin:round;stroke-dasharray:none;stroke-opacity:1;stop-color:#000" transform="scale(-1)"/><path d="M730.328 729.928h11.13v57.434h-11.13z" style="fill:#262626;fill-opacity:1;stroke:none;stroke-width:.673584;stroke-linejoin:round;stroke-dasharray:none;stroke-opacity:1;stop-color:#000"/><rect width="6.233" height="58.796" x="732.768" y="732.216" rx="1.243" ry="1.243" style="fill:#606060;fill-opacity:1;stroke:none;stroke-width:.591019;stroke-linejoin:round;stroke-dasharray:none;stroke-opacity:1;stop-color:#000"/><path d="M-741.458-654.546h11.13v57.043h-11.13z" style="fill:#262626;fill-opacity:1;stroke:none;stroke-width:.671289;stroke-linejoin:round;stroke-dasharray:none;stroke-opacity:1;stop-color:#000" transform="scale(-1)"/><rect width="6.233" height="59.512" x="-739.018" y="-652.106" rx="1.243" ry="1.243" style="fill:#606060;fill-opacity:1;stroke:none;stroke-width:.594609;stroke-linejoin:round;stroke-dasharray:none;stroke-opacity:1;stop-color:#000" transform="scale(-1)"/><circle cx="678.558" cy="695.805" r="29.462" style="fill:none;fill-opacity:1;stroke:#4c4c4c;stroke-width:3.34568;stroke-linejoin:miter;stroke-dasharray:none;stroke-opacity:1;stop-color:#000"/><path fill="none" d="M696.86 679.773c-2.467 32.695-10.757 35.539-18.629 40.824-7.871-5.17-16.161-8.129-18.629-40.824 6.505-.428 13.087-.7 18.63-4.958 5.541 4.165 12.123 4.53 18.628 4.958z" style="fill:#000;fill-opacity:0;fill-rule:nonzero;stroke:#4c4c4c;stroke-width:3.27825;stroke-linejoin:round;stroke-dasharray:none;stroke-opacity:1"/><path d="M670.929 677.401v10.577h-11.027v3.055h11.027v25.034h3.054v-25.034h21.786v-3.055h-21.786v-10.577z" style="fill:#4c4c4c;fill-opacity:1;fill-rule:nonzero;stroke:none;stroke-width:0;stroke-linejoin:round;stroke-dasharray:none;stroke-opacity:1"/><path d="M662.998 848.844h11.13v157.209h-11.13z" style="fill:#262626;fill-opacity:1;stroke:none;stroke-width:1.2419;stroke-linejoin:round;stroke-dasharray:none;stroke-opacity:1;stop-color:#000" transform="matrix(0 1 1 0 0 0)"/><rect width="6.233" height="152.432" x="665.361" y="851.163" rx="1.243" ry="1.033" style="fill:#606060;fill-opacity:1;stroke:none;stroke-width:1.0585;stroke-linejoin:round;stroke-dasharray:none;stroke-opacity:1;stop-color:#000" transform="matrix(0 1 1 0 0 0)"/><rect width="6.233" height="204.721" x="-1003.69" y="-794.385" rx="1.243" ry="1.243" style="fill:#606060;fill-opacity:1;stroke:none;stroke-width:1.10283;stroke-linejoin:round;stroke-dasharray:none;stroke-opacity:1;stop-color:#000" transform="scale(-1)"/><path d="M986.495 640.392c-4.495 1.047-32.791 11.772-30.656 14.534.502.645 5.23 2.302 6.093 2.681 2.5 1.1 6.412 3.407 8.868 3.204 4.57-.383 33.819-22.178 15.695-20.42" style="fill:#354718;fill-opacity:.472081;stroke:none;stroke-width:9.59774;stroke-linecap:round;stroke-linejoin:round;stroke-dasharray:none;stroke-opacity:1"/></g><g transform="translate(-84.036 -31.485)"><circle cx="119.776" cy="61.056" r="7.728" style="opacity:.4;fill:none;fill-opacity:1;stroke:#000;stroke-width:1.477;stroke-linejoin:miter;stroke-dasharray:none;stroke-opacity:1;stop-color:#000"/><path d="M115.65 56.538h1.356l2.713 4.218h.114l2.713-4.218h1.357l-3.535 5.313v3.724h-1.184v-3.724Z" aria-label="Y" style="font-size:12.9279px;font-family:Inter;-inkscape-font-specification:Inter;opacity:.4;stroke-width:1.477"/></g><g transform="translate(-88.08 -31.485)"><path d="M175.929 56.476h1.185v6.46q0 .865-.344 1.47-.344.604-.97.918-.626.313-1.476.313-.802 0-1.428-.27-.625-.273-.984-.776-.358-.503-.358-1.196h1.165q0 .384.206.671.21.282.573.441t.826.16q.511 0 .87-.2.358-.198.544-.582.191-.388.191-.949z" aria-label="J" style="font-size:12.9279px;font-family:Inter;-inkscape-font-specification:Inter;opacity:.4;stroke-width:1.477"/><circle cx="174.334" cy="61.056" r="7.728" style="opacity:.4;fill:none;fill-opacity:1;stroke:#000;stroke-width:1.477;stroke-linejoin:miter;stroke-dasharray:none;stroke-opacity:1;stop-color:#000"/></g><g transform="translate(-87.753 -31.485)"><path d="M196.4 65.575v-9.037h1.184v8.066h4.547v.971z" aria-label="L" style="font-size:12.9279px;font-family:Inter;-inkscape-font-specification:Inter;opacity:.4;stroke-width:1.477"/><circle cx="199.265" cy="61.056" r="7.728" style="opacity:.4;fill:none;fill-opacity:1;stroke:#000;stroke-width:1.477;stroke-linejoin:miter;stroke-dasharray:none;stroke-opacity:1;stop-color:#000"/></g><g transform="translate(-86.85 -31.485)"><circle cx="147.847" cy="61.056" r="7.728" style="opacity:.4;fill:none;fill-opacity:1;stroke:#000;stroke-width:1.477;stroke-linejoin:miter;stroke-dasharray:none;stroke-opacity:1;stop-color:#000"/><path d="M152.165 62.266q0 1.43-.56 2.47-.558 1.042-1.532 1.607-.975.565-2.226.565t-2.226-.565-1.533-1.606-.559-2.471.56-2.472q.558-1.041 1.532-1.606.975-.565 2.226-.565t2.226.565q.974.565 1.533 1.606t.559 2.472m-1.147 0q0-1.174-.425-1.982-.42-.807-1.141-1.222-.717-.415-1.605-.415t-1.61.415q-.716.415-1.141 1.222-.42.808-.42 1.982t.42 1.98q.425.808 1.141 1.223.722.415 1.61.415t1.605-.415q.721-.415 1.141-1.222.425-.808.425-1.981m-4.547-5.649q-.3 0-.534-.212-.23-.216-.23-.494 0-.304.23-.503.234-.203.534-.203.33 0 .545.203.22.199.22.503 0 .278-.22.494-.215.212-.545.212m2.752 0q-.301 0-.535-.212-.23-.216-.23-.494 0-.304.23-.503.234-.203.535-.203.33 0 .544.203.22.199.22.503 0 .278-.22.494-.215.212-.544.212" aria-label="Ö" style="font-size:12.9279px;font-family:Inter;-inkscape-font-specification:Inter;opacity:.4;stroke-width:1.477"/></g></svg>