<svg xmlns="http://www.w3.org/2000/svg" width="756.415" height="407.334" viewBox="0 0 200.135 107.774"><defs><radialGradient id="a" cx="141.735" cy="145.99" r="104.415" gradientTransform="matrix(.34838 0 0 .35888 711.353 1664.885)" gradientUnits="userSpaceOnUse"><stop offset="0" stop-opacity=".9"/><stop offset="1" stop-opacity=".3"/></radialGradient><radialGradient id="b" cx="141.735" cy="145.99" r="104.415" gradientTransform="matrix(.20532 0 0 .21105 825.214 1564.549)" gradientUnits="userSpaceOnUse"><stop offset="0" stop-opacity=".9"/><stop offset="1" stop-opacity=".3"/></radialGradient><radialGradient id="c" cx="141.735" cy="145.99" r="104.415" gradientTransform="matrix(.09236 0 0 .0863 1049.776 1622.65)" gradientUnits="userSpaceOnUse"><stop offset="0" stop-opacity=".9"/><stop offset="1" stop-opacity=".3"/></radialGradient></defs><path d="M1546.701-695h208.16v-390.96h-208.16zm73.763-39.37 16.5 4.399 6.618 24.571zm44.522-113.693 19.539-33.842 7.689 36.479v21.123l-11.947 3.822zm31.214-108.19 46.2-46.2-6.253 36.821 7.413 25.508-8.802 32.85-3.474-26.4zm-145.454-63.632 27.769 1.527.059.284-18.347 18.843 20.557-11.845-7.895 8.846 10.743-4.714.17.18-5.3 19.333 10.651-14.927q.306.18.617.352l-1.43 9.382 3.492-8.423.018.01 1.818 18.844 7.437-17.46q.236-.015.471-.036l3.07 12.51.441-11.22 13.618 20.528-7.768-24.635 15.722 11.965-11.11-16.75 17.337 2.922-13.556-10.226q.159-.428.3-.864l17.565-3.21-16.208-4.425 10.217-5.398-9.067 1.004 12.03-13.437-17.955 6.047q-.324-.48-.672-.94l5.287-11.18-9.621 5.804 6.21-23.368-12.738 20.713-1.562-15.134-4.177 15.234c-.116 0-.231.01-.347.01l-11.14-18.016 1.988 20.6q-.258.149-.512.304l-6.455-6.358 3.374 7.842-19.09-14.405 15.29 19.515q-.218.33-.426.669l-24.347-18.99 22.46 22.866q-.033.083-.062.167l-28.948-7.734 27.893 11.683q-.06.333-.11.668z" style="fill:#405f3a;fill-opacity:1;fill-rule:evenodd;stroke:#1f2d1a;stroke-width:2.11667;stroke-linecap:round;stroke-linejoin:round;stroke-dasharray:none;stroke-opacity:1" transform="rotate(90 212.876 -558.54)scale(.5)"/><path d="M1544.057-705.479h213.099v10.619h-213.099zM1544.056-722.286h86.051l-8.473-10.619h-77.578zm81.907-10.619 11.002 2.934 2.07 7.685h118.121v-10.619zM1544.057-760.884h213.099v10.619h-213.099zM1544.057-788.31h213.099v10.619h-213.099zM1544.057-815.768h213.099v10.619h-213.099zM1544.056-832.575h135.069l-4.667-10.619h-130.402zm146.942 0h66.158v-10.619h-64.942zM1544.056-860.555h128.142l9.604-10.618h-137.746zm142.73-10.618-1.756 10.618h72.126v-10.618zM1544.057-898.599h213.099v10.619h-213.099zM1544.056-913.529h189.879l-1.397-10.618h-188.482zm192.378 0h20.722v-10.618h-13.708zM1544.056-940.954h178.52l-10.112-10.619h-168.408zm193.224-10.619 6.039 10.619h13.837v-10.619zM1544.056-968.934h178.894l1.586-10.619h-180.48zm186.4 0h26.7v-10.619h-13.782z" style="fill:#486c42;fill-opacity:1;fill-rule:evenodd;stroke:#1f2d1a;stroke-width:2.44811;stroke-linecap:round;stroke-linejoin:round;stroke-dasharray:none;stroke-opacity:1" transform="rotate(90 212.876 -558.54)scale(.5)"/><path d="M996.04 1647.799v94.477l6.46 7.605-6.46 2.15v5.445h11.258v-109.677z" style="fill:#486c42;fill-opacity:1;fill-rule:evenodd;stroke:#1f2d1a;stroke-width:1.80843;stroke-linecap:round;stroke-linejoin:round;stroke-dasharray:none;stroke-opacity:1" transform="matrix(.5 0 0 .5 -345.665 -771.416)"/><path d="M1648.047-1032.831h109.43v11.26h-109.43z" style="fill:#486c42;fill-opacity:1;fill-rule:evenodd;stroke:#1f2d1a;stroke-width:1.80654;stroke-linecap:round;stroke-linejoin:round;stroke-dasharray:none;stroke-opacity:1" transform="rotate(90 212.876 -558.54)scale(.5)"/><path d="M1648.295-1060.811h109.183v11.262h-109.183z" style="fill:#486c42;fill-opacity:1;fill-rule:evenodd;stroke:#1f2d1a;stroke-width:1.80465;stroke-linecap:round;stroke-linejoin:round;stroke-dasharray:none;stroke-opacity:1" transform="rotate(90 212.876 -558.54)scale(.5)"/><path d="M1544.057-1087.915h213.099v10.619h-213.099z" style="fill:#486c42;fill-opacity:1;fill-rule:evenodd;stroke:#1f2d1a;stroke-width:2.44811;stroke-linecap:round;stroke-linejoin:round;stroke-dasharray:none;stroke-opacity:1" transform="rotate(90 212.876 -558.54)scale(.5)"/><path d="M1645.605-1090.54h10.96v398.153h-10.96z" style="fill:#486c42;fill-opacity:1;fill-rule:evenodd;stroke:#1f2d1a;stroke-width:2.11667;stroke-linecap:round;stroke-linejoin:round;stroke-dasharray:none;stroke-opacity:1" transform="rotate(90 212.876 -558.54)scale(.5)"/><path fill="url(#a)" d="m761.087 1679.806-2.759 18.69a18.561 20.23 0 0 0-.238.055l-7.984-12.188 2.111 14.307-7.423-7.569 3.956 10.3a18.561 20.23 0 0 0-.15.163l-16.226-5.081 12.527 10.21a18.561 20.23 0 0 0-.296.592l-7.873-1.372 7.07 3.35a18.561 20.23 0 0 0-.006.017l-15.814 1.742 14.653 7.13a18.561 20.23 0 0 0 .03.452l-10.5 2.943 9.417.423-17.227 13.055 20.674-7.448-10.041 15.073 14.056-10.65-2.452 16.62 8.582-12.996a18.561 20.23 0 0 0 .725.288l2.694 16.839 3.713-15.538 4.53 9.794-.842-8.692 11.276 11.533-5.074-17.213a18.561 20.23 0 0 0 .789-.644l9.382 5.068-4.87-9.224 19.61 5.954-17.383-12.211 12.7-1.498-12.784-4.004a18.561 20.23 0 0 0-.008-.333l15.12-10.68-17.289 1.906a18.561 20.23 0 0 0-.255-.49l5.336-6.19-6.581 3.235 12.089-18.301-16.377 14.66a18.561 20.23 0 0 0-.562-.41l4.561-10.009-7.814 8.2a18.561 20.23 0 0 0-.14-.06l2.502-12.563-5.816 11.552a18.561 20.23 0 0 0-.56-.106z" style="fill:url(#a);stroke-width:.748698" transform="matrix(.5 0 0 .5 -345.665 -771.416)"/><path fill="url(#a)" d="m854.526 1573.324-1.626 10.99a10.94 11.897 0 0 0-.14.033l-4.706-7.167 1.244 8.414-4.375-4.452 2.332 6.057a10.94 11.897 0 0 0-.089.096l-9.563-2.988 7.384 6.005a10.94 11.897 0 0 0-.175.348l-4.64-.807 4.166 1.97a10.94 11.897 0 0 0-.003.01l-9.32 1.025 8.636 4.193a10.94 11.897 0 0 0 .017.266l-6.187 1.73 5.549.25-10.153 7.677 12.185-4.38-5.918 8.864 8.284-6.264-1.445 9.775 5.058-7.643a10.94 11.897 0 0 0 .427.17l1.588 9.902 2.188-9.138 2.67 5.76-.496-5.112 6.646 6.783-2.991-10.123a10.94 11.897 0 0 0 .465-.379l5.53 2.98-2.871-5.423 11.557 3.5-10.244-7.18 7.485-.882-7.535-2.354a10.94 11.897 0 0 0-.005-.196l8.91-6.28-10.188 1.12a10.94 11.897 0 0 0-.15-.289l3.144-3.639-3.878 1.902 7.124-10.763-9.652 8.621a10.94 11.897 0 0 0-.33-.24l2.688-5.886-4.606 4.822a10.94 11.897 0 0 0-.082-.035l1.474-7.389-3.427 6.794a10.94 11.897 0 0 0-.33-.062z" style="fill:url(#b);stroke-width:.440781" transform="matrix(.5 0 0 .5 -345.665 -771.416)"/><path fill="url(#a)" d="m1062.962 1626.238-.732 4.494a4.921 4.865 0 0 0-.063.014l-2.116-2.93.56 3.44-1.969-1.82 1.049 2.476a4.921 4.865 0 0 0-.04.04l-4.302-1.223 3.321 2.456a4.921 4.865 0 0 0-.078.142l-2.087-.33 1.874.805-4.193.42 3.885 1.714a4.921 4.865 0 0 0 .01.108l-2.783.708 2.496.102-4.567 3.139 5.481-1.79-2.662 3.624 3.727-2.562-.65 3.997 2.275-3.125a4.921 4.865 0 0 0 .192.07l.714 4.048.985-3.736 1.2 2.355-.222-2.09 2.99 2.773-1.346-4.139a4.921 4.865 0 0 0 .21-.155l2.486 1.219-1.29-2.218 5.198 1.432-4.608-2.937 3.367-.36-3.39-.963a4.921 4.865 0 0 0 0-.08l4.009-2.568-4.583.459a4.921 4.865 0 0 0-.068-.119l1.414-1.488-1.745.778 3.205-4.4-4.342 3.524a4.921 4.865 0 0 0-.148-.098l1.209-2.406-2.072 1.971a4.921 4.865 0 0 0-.037-.014l.663-3.02-1.542 2.777a4.921 4.865 0 0 0-.148-.025z" style="fill:url(#c);stroke-width:.189041" transform="matrix(.5 0 0 .5 -345.665 -771.416)"/></svg>