<svg xmlns="http://www.w3.org/2000/svg" xml:space="preserve" width="58.027mm" height="158.039mm" viewBox="0 0 116.055 316.077"><g transform="translate(17.39 163.777)"><path d="M-488.262-159.551H-19.42v309.036h-468.842z" style="fill:#84847c;fill-opacity:1;stroke:#404040;stroke-width:2.6;stroke-linecap:round;stroke-linejoin:miter;stroke-dasharray:none;stroke-opacity:1;stop-color:#000"/><path d="M13715.801 4589.848h28.348v25.948h-28.348z" style="display:inline;fill:#4d4d4d;stroke-width:.481827;stroke-opacity:.575758;paint-order:markers stroke fill;stop-color:#000" transform="translate(-14041.21 -4443.634)"/><path d="M13717.253 4591.315h24.573v23.151h-24.573z" style="display:inline;fill:#666;stroke-width:.42989;stroke-opacity:.575758;paint-order:markers stroke fill;stop-color:#000" transform="translate(-14041.21 -4443.634)"/><path d="M13743.144 4589.847h27.542v25.948h-27.542z" style="display:inline;fill:#4d4d4d;stroke-width:.481827;stroke-opacity:.575758;paint-order:markers stroke fill;stop-color:#000" transform="translate(-14041.21 -4443.634)"/><path d="M13744.466 4591.314h24.573v23.151h-24.573z" style="display:inline;fill:#666;stroke-width:.42989;stroke-opacity:.575758;paint-order:markers stroke fill;stop-color:#000" transform="translate(-14041.21 -4443.634)"/><path d="M-83.913-162.577H6.832v91.152h-90.745z" style="fill:#8e8e86;fill-opacity:1;stroke:#404040;stroke-width:2.4;stroke-linecap:round;stroke-linejoin:miter;stroke-dasharray:none;stroke-opacity:1;stop-color:#000"/><path d="M6.839-162.577h90.745v91.152H6.839z" style="fill:#84847c;fill-opacity:1;stroke:#404040;stroke-width:2.4;stroke-linecap:round;stroke-linejoin:miter;stroke-dasharray:none;stroke-opacity:1;stop-color:#000"/><path d="M-83.913 62.771H6.832v88.257h-90.745z" style="fill:#797971;fill-opacity:1;stroke:#404040;stroke-width:2.4;stroke-linecap:round;stroke-linejoin:miter;stroke-dasharray:none;stroke-opacity:1;stop-color:#000"/><path d="M6.839 62.771h90.745v88.257H6.839z" style="fill:#8e8e86;fill-opacity:1;stroke:#404040;stroke-width:2.4;stroke-linecap:round;stroke-linejoin:miter;stroke-dasharray:none;stroke-opacity:1;stop-color:#000"/><path d="M-488.262-159.551H-19.42V144.86h-468.842z" style="fill:#362617;fill-opacity:1;stroke:none;stroke-width:2.6;stroke-linecap:round;stroke-linejoin:miter;stroke-dasharray:none;stroke-opacity:1;stop-color:#000"/><path d="M-485.296-158.205h463.011V150.04h-463.011Z" style="fill:#362617;stroke-width:1.99998;stroke-linecap:round;stop-color:#000"/><path d="M-465.535 150.04V69.765h9.617v80.275z" style="fill:#69482b;stroke:#362617;stroke-width:1.30001;stroke-linecap:round;stop-color:#000"/><path d="M-465.535 69.775v-80.274h9.617v80.274zm-9.625 6.353V-4.146h9.618v80.274Z" style="fill:#69482b;stroke:#362617;stroke-width:1.30001;stroke-linecap:round;stop-color:#000"/><path d="M-484.789 150.04V62.592h9.617v87.448z" style="fill:#75502e;stroke:#362617;stroke-width:1.30001;stroke-linecap:round;stop-color:#000"/><path d="M-484.789 62.602v-80.275h9.617v80.275z" style="fill:#75502e;stroke:#362617;stroke-width:1.30001;stroke-linecap:round;stop-color:#000"/><path d="M-465.535-10.55v-80.275h9.617v80.275z" style="fill:#69482b;stroke:#362617;stroke-width:1.30001;stroke-linecap:round;stop-color:#000"/><path d="M-465.535-90.809v-67.396h9.617v67.396zm-9.625 6.353v-73.749h9.618v73.75z" style="fill:#69482b;stroke:#362617;stroke-width:1.30001;stroke-linecap:round;stop-color:#000"/><path d="M-484.789-17.724V-98h9.617v80.275z" style="fill:#75502e;stroke:#362617;stroke-width:1.30001;stroke-linecap:round;stop-color:#000"/><path d="M-455.927 150.04V83.292h9.617v66.748zm0-227.322v-80.923h9.617v80.923zM-475.16 150.04V76.119h9.618v73.921zm0-154.238v-80.274h9.618v80.274zm-9.629-93.784v-60.223h9.617v60.223z" style="fill:#69482b;stroke:#362617;stroke-width:1.30001;stroke-linecap:round;stop-color:#000"/><path d="M-455.927 83.302V3.027h9.617v80.275zm0-80.326V-77.3h9.617V2.976Zm28.881 147.064V69.765h9.617v80.275z" style="fill:#69482b;stroke:#362617;stroke-width:1.30001;stroke-linecap:round;stop-color:#000"/><path d="M-427.046 69.775v-80.274h9.617v80.274zm-9.624 6.353V-4.146h9.618v80.274Zm-9.629 73.912V62.592h9.617v87.448z" style="fill:#69482b;stroke:#362617;stroke-width:1.30001;stroke-linecap:round;stop-color:#000"/><path d="M-446.299 62.602v-80.275h9.617v80.275z" style="fill:#75502e;stroke:#362617;stroke-width:1.30001;stroke-linecap:round;stop-color:#000"/><path d="M-427.046-10.55v-80.275h9.617v80.275z" style="fill:#69482b;stroke:#362617;stroke-width:1.30001;stroke-linecap:round;stop-color:#000"/><path d="M-427.046-90.809v-67.396h9.617v67.396zm-9.624 6.353v-73.749h9.618v73.75zm-9.629 66.732V-98h9.617v80.275zm28.861 167.764V83.292h9.617v66.748z" style="fill:#69482b;stroke:#362617;stroke-width:1.30001;stroke-linecap:round;stop-color:#000"/><path d="M-417.438-77.282v-80.923h9.617v80.923z" style="fill:#69482b;stroke:#362617;stroke-width:1.30001;stroke-linecap:round;stop-color:#000"/><path d="M-436.67 150.04V76.119h9.618v73.921zm0-154.238v-80.274h9.618v80.274zm-9.629-93.784v-60.223h9.617v60.223z" style="fill:#75502e;stroke:#362617;stroke-width:1.30001;stroke-linecap:round;stop-color:#000"/><path d="M-417.438 83.302V3.027h9.617v80.275zm0-80.326V-77.3h9.617V2.976Zm28.904 147.064V69.765h9.617v80.275z" style="fill:#69482b;stroke:#362617;stroke-width:1.30001;stroke-linecap:round;stop-color:#000"/><path d="M-388.534 69.775v-80.274h9.617v80.274zm-9.623 6.353V-4.146h9.617v80.274Z" style="fill:#69482b;stroke:#362617;stroke-width:1.30001;stroke-linecap:round;stop-color:#000"/><path d="M-407.788 150.04V62.592h9.617v87.448z" style="fill:#75502e;stroke:#362617;stroke-width:1.30001;stroke-linecap:round;stop-color:#000"/><path d="M-407.788 62.602v-80.275h9.617v80.275z" style="fill:#75502e;stroke:#362617;stroke-width:1.30001;stroke-linecap:round;stop-color:#000"/><path d="M-388.534-10.55v-80.275h9.617v80.275z" style="fill:#69482b;stroke:#362617;stroke-width:1.30001;stroke-linecap:round;stop-color:#000"/><path d="M-388.534-90.809v-67.396h9.617v67.396zm-9.623 6.353v-73.749h9.617v73.75zm-9.631 66.732V-98h9.617v80.275zm28.862 167.764V83.292h9.617v66.748z" style="fill:#69482b;stroke:#362617;stroke-width:1.30001;stroke-linecap:round;stop-color:#000"/><path d="M-378.926-77.282v-80.923h9.617v80.923z" style="fill:#69482b;stroke:#362617;stroke-width:1.30001;stroke-linecap:round;stop-color:#000"/><path d="M-398.157 150.04V76.119h9.617v73.921zm0-154.238v-80.274h9.617v80.274zm-9.631-93.784v-60.223h9.617v60.223z" style="fill:#75502e;stroke:#362617;stroke-width:1.30001;stroke-linecap:round;stop-color:#000"/><path d="M-378.926 83.302V3.027h9.617v80.275zm0-80.326V-77.3h9.617V2.976Zm28.881 147.064V69.765h9.617v80.275z" style="fill:#69482b;stroke:#362617;stroke-width:1.30001;stroke-linecap:round;stop-color:#000"/><path d="M-350.045 69.775v-80.274h9.617v80.274zm-9.623 6.353V-4.146h9.617v80.274Zm-9.63 73.912V62.592h9.618v87.448z" style="fill:#69482b;stroke:#362617;stroke-width:1.30001;stroke-linecap:round;stop-color:#000"/><path d="M-369.298 62.602v-80.275h9.618v80.275z" style="fill:#75502e;stroke:#362617;stroke-width:1.30001;stroke-linecap:round;stop-color:#000"/><path d="M-350.045-10.55v-80.275h9.617v80.275z" style="fill:#69482b;stroke:#362617;stroke-width:1.30001;stroke-linecap:round;stop-color:#000"/><path d="M-350.045-90.809v-67.396h9.617v67.396z" style="fill:#69482b;stroke:#362617;stroke-width:1.30001;stroke-linecap:round;stop-color:#000"/><path d="M-359.668-84.456v-73.749h9.617v73.75z" style="fill:#75502e;stroke:#362617;stroke-width:1.30001;stroke-linecap:round;stop-color:#000"/><path d="M-369.298-17.724V-98h9.618v80.275zm28.862 167.764V83.292h9.617v66.748zm0-227.322v-80.923h9.617v80.923z" style="fill:#69482b;stroke:#362617;stroke-width:1.30001;stroke-linecap:round;stop-color:#000"/><path d="M-359.668 150.04V76.119h9.617v73.921zm0-154.238v-80.274h9.617v80.274zm-9.63-93.784v-60.223h9.618v60.223z" style="fill:#75502e;stroke:#362617;stroke-width:1.30001;stroke-linecap:round;stop-color:#000"/><path d="M-340.436 83.302V3.027h9.617v80.275zm0-80.326V-77.3h9.617V2.976Zm28.884 147.064V69.765h9.618v80.275z" style="fill:#69482b;stroke:#362617;stroke-width:1.30001;stroke-linecap:round;stop-color:#000"/><path d="M-311.552 69.775v-80.274h9.618v80.274zm-9.623 6.353V-4.146h9.617v80.274Z" style="fill:#69482b;stroke:#362617;stroke-width:1.30001;stroke-linecap:round;stop-color:#000"/><path d="M-330.804 150.04V62.592h9.617v87.448z" style="fill:#75502e;stroke:#362617;stroke-width:1.30001;stroke-linecap:round;stop-color:#000"/><path d="M-330.804 62.602v-80.275h9.617v80.275z" style="fill:#75502e;stroke:#362617;stroke-width:1.30001;stroke-linecap:round;stop-color:#000"/><path d="M-311.552-10.55v-80.275h9.618v80.275z" style="fill:#69482b;stroke:#362617;stroke-width:1.30001;stroke-linecap:round;stop-color:#000"/><path d="M-311.552-90.809v-67.396h9.618v67.396zm-9.623 6.353v-73.749h9.617v73.75zm-9.629 66.732V-98h9.617v80.275zm28.861 167.764V83.292h9.618v66.748z" style="fill:#69482b;stroke:#362617;stroke-width:1.30001;stroke-linecap:round;stop-color:#000"/><path d="M-301.943-77.282v-80.923h9.618v80.923z" style="fill:#75502e;stroke:#362617;stroke-width:1.30001;stroke-linecap:round;stop-color:#000"/><path d="M-321.175 150.04V76.119h9.617v73.921z" style="fill:#69482b;stroke:#362617;stroke-width:1.30001;stroke-linecap:round;stop-color:#000"/><path d="M-321.175-4.198v-80.274h9.617v80.274z" style="fill:#75502e;stroke:#362617;stroke-width:1.30001;stroke-linecap:round;stop-color:#000"/><path d="M-330.804-97.982v-60.223h9.617v60.223zm28.861 181.284V3.027h9.618v80.275zm0-80.326V-77.3h9.618V2.976Zm28.882 147.064V69.765h9.617v80.275z" style="fill:#69482b;stroke:#362617;stroke-width:1.30001;stroke-linecap:round;stop-color:#000"/><path d="M-273.061 69.775v-80.274h9.617v80.274zm-9.624 6.353V-4.146h9.618v80.274Zm-9.629 73.912V62.592h9.617v87.448z" style="fill:#69482b;stroke:#362617;stroke-width:1.30001;stroke-linecap:round;stop-color:#000"/><path d="M-292.314 62.602v-80.275h9.617v80.275z" style="fill:#75502e;stroke:#362617;stroke-width:1.30001;stroke-linecap:round;stop-color:#000"/><path d="M-273.061-10.55v-80.275h9.617v80.275z" style="fill:#69482b;stroke:#362617;stroke-width:1.30001;stroke-linecap:round;stop-color:#000"/><path d="M-273.061-90.809v-67.396h9.617v67.396zm-9.624 6.353v-73.749h9.618v73.75zm-9.629 66.732V-98h9.617v80.275zm28.861 167.764V83.292h9.617v66.748z" style="fill:#69482b;stroke:#362617;stroke-width:1.30001;stroke-linecap:round;stop-color:#000"/><path d="M-263.453-77.282v-80.923h9.617v80.923z" style="fill:#69482b;stroke:#362617;stroke-width:1.30001;stroke-linecap:round;stop-color:#000"/><path d="M-282.685 150.04V76.119h9.618v73.921zm0-154.238v-80.274h9.618v80.274zm-9.629-93.784v-60.223h9.617v60.223z" style="fill:#75502e;stroke:#362617;stroke-width:1.30001;stroke-linecap:round;stop-color:#000"/><path d="M-263.453 83.302V3.027h9.617v80.275zm0-80.326V-77.3h9.617V2.976Zm28.903 147.064V69.765h9.618v80.275z" style="fill:#69482b;stroke:#362617;stroke-width:1.30001;stroke-linecap:round;stop-color:#000"/><path d="M-234.55 69.775v-80.274h9.618v80.274zm-9.623 6.353V-4.146h9.617v80.274Z" style="fill:#69482b;stroke:#362617;stroke-width:1.30001;stroke-linecap:round;stop-color:#000"/><path d="M-253.803 150.04V62.592h9.617v87.448z" style="fill:#75502e;stroke:#362617;stroke-width:1.30001;stroke-linecap:round;stop-color:#000"/><path d="M-253.803 62.602v-80.275h9.617v80.275z" style="fill:#75502e;stroke:#362617;stroke-width:1.30001;stroke-linecap:round;stop-color:#000"/><path d="M-234.55-10.55v-80.275h9.618v80.275z" style="fill:#69482b;stroke:#362617;stroke-width:1.30001;stroke-linecap:round;stop-color:#000"/><path d="M-234.55-90.809v-67.396h9.618v67.396z" style="fill:#69482b;stroke:#362617;stroke-width:1.30001;stroke-linecap:round;stop-color:#000"/><path d="M-244.173-84.456v-73.749h9.617v73.75z" style="fill:#75502e;stroke:#362617;stroke-width:1.30001;stroke-linecap:round;stop-color:#000"/><path d="M-253.803-17.724V-98h9.617v80.275zm28.862 167.764V83.292h9.617v66.748zm0-227.322v-80.923h9.617v80.923zm-19.232 227.322V76.119h9.617v73.921zm0-154.238v-80.274h9.617v80.274z" style="fill:#69482b;stroke:#362617;stroke-width:1.30001;stroke-linecap:round;stop-color:#000"/><path d="M-253.803-97.982v-60.223h9.617v60.223z" style="fill:#69482b;stroke:#362617;stroke-width:1.30001;stroke-linecap:round;stop-color:#000"/><path d="M-224.941 83.302V3.027h9.617v80.275z" style="fill:#75502e;stroke:#362617;stroke-width:1.30001;stroke-linecap:round;stop-color:#000"/><path d="M-224.941 2.976V-77.3h9.617V2.976Zm28.881 147.064V69.765h9.617v80.275z" style="fill:#69482b;stroke:#362617;stroke-width:1.30001;stroke-linecap:round;stop-color:#000"/><path d="M-196.06 69.775v-80.274h9.617v80.274zm-9.623 6.353V-4.146h9.617v80.274Zm-9.63 73.912V62.592h9.617v87.448z" style="fill:#69482b;stroke:#362617;stroke-width:1.30001;stroke-linecap:round;stop-color:#000"/><path d="M-215.313 62.602v-80.275h9.617v80.275z" style="fill:#75502e;stroke:#362617;stroke-width:1.30001;stroke-linecap:round;stop-color:#000"/><path d="M-196.06-10.55v-80.275h9.617v80.275z" style="fill:#69482b;stroke:#362617;stroke-width:1.30001;stroke-linecap:round;stop-color:#000"/><path d="M-196.06-90.809v-67.396h9.617v67.396z" style="fill:#69482b;stroke:#362617;stroke-width:1.30001;stroke-linecap:round;stop-color:#000"/><path d="M-205.683-84.456v-73.749h9.617v73.75z" style="fill:#75502e;stroke:#362617;stroke-width:1.30001;stroke-linecap:round;stop-color:#000"/><path d="M-215.313-17.724V-98h9.617v80.275zm28.862 167.764V83.292h9.617v66.748zm0-227.322v-80.923h9.617v80.923z" style="fill:#69482b;stroke:#362617;stroke-width:1.30001;stroke-linecap:round;stop-color:#000"/><path d="M-205.683 150.04V76.119h9.617v73.921zm0-154.238v-80.274h9.617v80.274z" style="fill:#75502e;stroke:#362617;stroke-width:1.30001;stroke-linecap:round;stop-color:#000"/><path d="M-215.313-97.982v-60.223h9.617v60.223zm28.862 181.284V3.027h9.617v80.275z" style="fill:#69482b;stroke:#362617;stroke-width:1.30001;stroke-linecap:round;stop-color:#000"/><path d="M-186.451 2.976V-77.3h9.617V2.976Z" style="fill:#75502e;stroke:#362617;stroke-width:1.30001;stroke-linecap:round;stop-color:#000"/><path d="M-157.601 150.04V69.765h9.617v80.275z" style="fill:#69482b;stroke:#362617;stroke-width:1.30001;stroke-linecap:round;stop-color:#000"/><path d="M-157.601 69.775v-80.274h9.617v80.274zm-9.623 6.353V-4.146h9.617v80.274Zm-9.631 73.912V62.592h9.618v87.448z" style="fill:#69482b;stroke:#362617;stroke-width:1.30001;stroke-linecap:round;stop-color:#000"/><path d="M-176.855 62.602v-80.275h9.618v80.275z" style="fill:#75502e;stroke:#362617;stroke-width:1.30001;stroke-linecap:round;stop-color:#000"/><path d="M-157.601-10.55v-80.275h9.617v80.275z" style="fill:#69482b;stroke:#362617;stroke-width:1.30001;stroke-linecap:round;stop-color:#000"/><path d="M-157.601-90.809v-67.396h9.617v67.396zm-9.623 6.353v-73.749h9.617v73.75zm-9.631 66.732V-98h9.618v80.275zm28.862 167.764V83.292h9.617v66.748z" style="fill:#69482b;stroke:#362617;stroke-width:1.30001;stroke-linecap:round;stop-color:#000"/><path d="M-147.993-77.282v-80.923h9.617v80.923z" style="fill:#69482b;stroke:#362617;stroke-width:1.30001;stroke-linecap:round;stop-color:#000"/><path d="M-167.224 150.04V76.119h9.617v73.921z" style="fill:#75502e;stroke:#362617;stroke-width:1.30001;stroke-linecap:round;stop-color:#000"/><path d="M-167.224-4.198v-80.274h9.617v80.274zm-9.631-93.784v-60.223h9.618v60.223z" style="fill:#69482b;stroke:#362617;stroke-width:1.30001;stroke-linecap:round;stop-color:#000"/><path d="M-147.993 83.302V3.027h9.617v80.275zm0-80.326V-77.3h9.617V2.976Z" style="fill:#75502e;stroke:#362617;stroke-width:1.30001;stroke-linecap:round;stop-color:#000"/><path d="M-119.111 150.04V69.765h9.617v80.275z" style="fill:#69482b;stroke:#362617;stroke-width:1.30001;stroke-linecap:round;stop-color:#000"/><path d="M-119.111 69.775v-80.274h9.617v80.274z" style="fill:#69482b;stroke:#362617;stroke-width:1.30001;stroke-linecap:round;stop-color:#000"/><path d="M-128.735 76.128V-4.146h9.617v80.274Z" style="fill:#75502e;stroke:#362617;stroke-width:1.30001;stroke-linecap:round;stop-color:#000"/><path d="M-138.365 150.04V62.592h9.617v87.448z" style="fill:#69482b;stroke:#362617;stroke-width:1.30001;stroke-linecap:round;stop-color:#000"/><path d="M-138.365 62.602v-80.275h9.617v80.275zm19.254-73.152v-80.275h9.617v80.275z" style="fill:#69482b;stroke:#362617;stroke-width:1.30001;stroke-linecap:round;stop-color:#000"/><path d="M-119.111-90.809v-67.396h9.617v67.396z" style="fill:#69482b;stroke:#362617;stroke-width:1.30001;stroke-linecap:round;stop-color:#000"/><path d="M-128.735-84.456v-73.749h9.617v73.75zm-9.63 66.732V-98h9.617v80.275z" style="fill:#75502e;stroke:#362617;stroke-width:1.30001;stroke-linecap:round;stop-color:#000"/><path d="M-109.503 150.04V83.292h9.617v66.748zm0-227.322v-80.923h9.617v80.923z" style="fill:#69482b;stroke:#362617;stroke-width:1.30001;stroke-linecap:round;stop-color:#000"/><path d="M-128.735 150.04V76.119h9.617v73.921z" style="fill:#75502e;stroke:#362617;stroke-width:1.30001;stroke-linecap:round;stop-color:#000"/><path d="M-128.735-4.198v-80.274h9.617v80.274z" style="fill:#69482b;stroke:#362617;stroke-width:1.30001;stroke-linecap:round;stop-color:#000"/><path d="M-138.365-97.982v-60.223h9.617v60.223z" style="fill:#75502e;stroke:#362617;stroke-width:1.30001;stroke-linecap:round;stop-color:#000"/><path d="M-109.503 83.302V3.027h9.617v80.275zm0-80.326V-77.3h9.617V2.976ZM-80.6 150.04V69.765h9.617v80.275z" style="fill:#69482b;stroke:#362617;stroke-width:1.30001;stroke-linecap:round;stop-color:#000"/><path d="M-80.6 69.775v-80.274h9.617v80.274zm-9.623 6.353V-4.146h9.617v80.274Zm-9.63 73.912V62.592h9.617v87.448z" style="fill:#69482b;stroke:#362617;stroke-width:1.30001;stroke-linecap:round;stop-color:#000"/><path d="M-99.853 62.602v-80.275h9.617v80.275z" style="fill:#75502e;stroke:#362617;stroke-width:1.30001;stroke-linecap:round;stop-color:#000"/><path d="M-80.6-10.55v-80.275h9.617v80.275z" style="fill:#69482b;stroke:#362617;stroke-width:1.30001;stroke-linecap:round;stop-color:#000"/><path d="M-80.6-90.809v-67.396h9.617v67.396zm-9.623 6.353v-73.749h9.617v73.75zm-9.63 66.732V-98h9.617v80.275zm28.862 167.764V83.292h9.617v66.748z" style="fill:#69482b;stroke:#362617;stroke-width:1.30001;stroke-linecap:round;stop-color:#000"/><path d="M-70.991-77.282v-80.923h9.617v80.923z" style="fill:#69482b;stroke:#362617;stroke-width:1.30001;stroke-linecap:round;stop-color:#000"/><path d="M-90.223 150.04V76.119h9.617v73.921zm0-154.238v-80.274h9.617v80.274zm-9.63-93.784v-60.223h9.617v60.223z" style="fill:#75502e;stroke:#362617;stroke-width:1.30001;stroke-linecap:round;stop-color:#000"/><path d="M-70.991 83.302V3.027h9.617v80.275zm0-80.326V-77.3h9.617V2.976Zm9.627 147.064V62.592h9.617v87.448z" style="fill:#69482b;stroke:#362617;stroke-width:1.30001;stroke-linecap:round;stop-color:#000"/><path d="M-61.364 62.602v-80.275h9.617v80.275z" style="fill:#75502e;stroke:#362617;stroke-width:1.30001;stroke-linecap:round;stop-color:#000"/><path d="M-61.364-17.724V-98h9.617v80.275z" style="fill:#69482b;stroke:#362617;stroke-width:1.30001;stroke-linecap:round;stop-color:#000"/><path d="M-61.364-97.982v-60.223h9.617v60.223zm19.247 248.022V69.765h9.617v80.275z" style="fill:#69482b;stroke:#362617;stroke-width:1.30001;stroke-linecap:round;stop-color:#000"/><path d="M-42.117 69.775v-80.274h9.617v80.274z" style="fill:#69482b;stroke:#362617;stroke-width:1.30001;stroke-linecap:round;stop-color:#000"/><path d="M-51.74 76.128V-4.146h9.617v80.274Z" style="fill:#75502e;stroke:#362617;stroke-width:1.30001;stroke-linecap:round;stop-color:#000"/><path d="M-42.117-10.55v-80.275h9.617v80.275z" style="fill:#69482b;stroke:#362617;stroke-width:1.30001;stroke-linecap:round;stop-color:#000"/><path d="M-42.117-90.809v-67.396h9.617v67.396z" style="fill:#69482b;stroke:#362617;stroke-width:1.30001;stroke-linecap:round;stop-color:#000"/><path d="M-51.74-84.456v-73.749h9.617v73.75z" style="fill:#75502e;stroke:#362617;stroke-width:1.30001;stroke-linecap:round;stop-color:#000"/><path d="M-32.51 150.04V83.292h9.618v66.748z" style="fill:#69482b;stroke:#362617;stroke-width:1.30001;stroke-linecap:round;stop-color:#000"/><path d="M-32.51-77.282v-80.923h9.618v80.923zM-51.74 150.04V76.119h9.617v73.921zm0-154.238v-80.274h9.617v80.274z" style="fill:#75502e;stroke:#362617;stroke-width:1.30001;stroke-linecap:round;stop-color:#000"/><path d="M-32.51 83.302V3.027h9.618v80.275z" style="fill:#69482b;stroke:#362617;stroke-width:1.30001;stroke-linecap:round;stop-color:#000"/><path d="M-32.51 2.976V-77.3h9.618V2.976Z" style="fill:#75502e;stroke:#362617;stroke-width:1.30001;stroke-linecap:round;stop-color:#000"/><path d="M-325.439 147.19h57.415" style="fill:#3d1010;fill-opacity:1;fill-rule:evenodd;stroke:#362617;stroke-width:2.64583;stroke-linecap:round;stroke-linejoin:round;stroke-dasharray:none;stroke-opacity:1"/><path d="M6449.686 4434.55h90.745v67.116h-90.745z" style="opacity:1;fill:#7c7c74;fill-opacity:1;stroke:#404040;stroke-width:2.4;stroke-linecap:round;stroke-linejoin:miter;stroke-dasharray:none;stroke-opacity:1;stop-color:#000" transform="matrix(1 0 0 -1 -6806.063 4429.81)"/><path d="M6449.686 4367.464h90.745v67.116h-90.745z" style="opacity:1;fill:#8e8e86;fill-opacity:1;stroke:#404040;stroke-width:2.4;stroke-linecap:round;stroke-linejoin:miter;stroke-dasharray:none;stroke-opacity:1;stop-color:#000" transform="matrix(1 0 0 -1 -6806.063 4429.81)"/><path d="M6540.505 4434.55h90.745v67.116h-90.745z" style="opacity:1;fill:#84847c;fill-opacity:1;stroke:#404040;stroke-width:2.4;stroke-linecap:round;stroke-linejoin:miter;stroke-dasharray:none;stroke-opacity:1;stop-color:#000" transform="matrix(1 0 0 -1 -6806.063 4429.81)"/><path d="M6540.505 4367.464h90.745v67.116h-90.745zm90.809 67.086h90.745v67.116h-90.745z" style="opacity:1;fill:#84847c;fill-opacity:1;stroke:#404040;stroke-width:2.4;stroke-linecap:round;stroke-linejoin:miter;stroke-dasharray:none;stroke-opacity:1;stop-color:#000" transform="matrix(1 0 0 -1 -6806.063 4429.81)"/><path d="M6631.314 4367.464h90.745v67.116h-90.745z" style="opacity:1;fill:#8e8e86;fill-opacity:1;stroke:#404040;stroke-width:2.4;stroke-linecap:round;stroke-linejoin:miter;stroke-dasharray:none;stroke-opacity:1;stop-color:#000" transform="matrix(1 0 0 -1 -6806.063 4429.81)"/><path d="M6722.132 4434.55h90.745v67.116h-90.745z" style="opacity:1;fill:#797971;fill-opacity:1;stroke:#404040;stroke-width:2.4;stroke-linecap:round;stroke-linejoin:miter;stroke-dasharray:none;stroke-opacity:1;stop-color:#000" transform="matrix(1 0 0 -1 -6806.063 4429.81)"/><path d="M6722.132 4367.464h90.745v67.116h-90.745zm90.752 67.086h90.745v67.116h-90.745z" style="opacity:1;fill:#84847c;fill-opacity:1;stroke:#404040;stroke-width:2.4;stroke-linecap:round;stroke-linejoin:miter;stroke-dasharray:none;stroke-opacity:1;stop-color:#000" transform="matrix(1 0 0 -1 -6806.063 4429.81)"/><path d="M6812.884 4367.464h90.745v67.116h-90.745z" style="opacity:1;fill:#797971;fill-opacity:1;stroke:#404040;stroke-width:2.4;stroke-linecap:round;stroke-linejoin:miter;stroke-dasharray:none;stroke-opacity:1;stop-color:#000" transform="matrix(1 0 0 -1 -6806.063 4429.81)"/><rect width="6.361" height="152.851" x="-23.932" y="-78.446" rx="1.274" ry=".997" style="fill:#000;fill-opacity:.15;stroke:none;stroke-width:2.1;stroke-linecap:round;stroke-linejoin:miter;stroke-dasharray:none;stroke-opacity:1;stop-color:#000"/><path d="M-357.637-63.945h331.468v1.444h-331.468z" style="fill:#362617;fill-opacity:1;stroke-width:1.49999;stroke-linecap:round;stop-color:#000" transform="scale(1 -1)"/><rect width="10.09" height="89.667" x="16.192" y="-152.181" ry="0" style="fill:#3d1010;fill-opacity:1;stroke-width:8.18235;stroke-linecap:square;stop-color:#000" transform="scale(-1)"/><rect width="10.09" height="166.253" x="142.1" y="324.813" ry="0" style="fill:#3d1010;fill-opacity:1;stroke-width:8.18235;stroke-linecap:square;stop-color:#000" transform="rotate(90)"/><rect width="10.09" height="305.763" x="-491.069" y="-150.422" ry="0" style="fill:#3d1010;fill-opacity:1;stroke-width:8.18236;stroke-linecap:square;stop-color:#000" transform="scale(1 -1)"/><rect width="10.09" height="245.669" x="142.101" y="-271.495" ry="0" style="fill:#3d1010;fill-opacity:1;stroke-width:8.18236;stroke-linecap:square;stop-color:#000" transform="matrix(0 1 1 0 0 0)"/><rect width="10.09" height="474.871" x="-163.732" y="16.193" ry="0" style="fill:#3d1010;fill-opacity:1;stroke-width:8.18236;stroke-linecap:square;stop-color:#000" transform="rotate(90)"/><path d="M-357.637-73.056h331.468v1.444h-331.468z" style="fill:#362617;fill-opacity:1;stroke-width:1.49999;stroke-linecap:round;stop-color:#000"/><rect width="10.09" height="89.216" x="16.192" y="-160.839" ry="0" style="fill:#3d1010;fill-opacity:1;stroke-width:8.18235;stroke-linecap:square;stop-color:#000" transform="scale(-1 1)"/><rect width="5.406" height="161.069" x="144.487" y="-488.522" rx="1.391" ry="1.391" style="fill:#812222;fill-opacity:1;stroke-width:10.9114;stroke-linecap:square;stop-color:#000" transform="matrix(0 1 1 0 0 0)"/><rect width="5.406" height="250.294" x="144.487" y="-268.903" rx="1.391" ry="1.391" style="fill:#812222;fill-opacity:1;stroke-width:10.9114;stroke-linecap:square;stop-color:#000" transform="matrix(0 1 1 0 0 0)"/><rect width="5.406" height="311.221" x="-488.682" y="-149.89" rx="1.391" ry="1.391" style="fill:#812222;fill-opacity:1;stroke-width:10.9114;stroke-linecap:square;stop-color:#000" transform="scale(1 -1)"/><rect width="5.406" height="85.147" x="18.579" y="64.632" rx="1.391" ry="1.391" style="fill:#812222;fill-opacity:1;stroke-width:10.9114;stroke-linecap:square;stop-color:#000" transform="scale(-1 1)"/><rect width="5.406" height="470.095" x="-161.345" y="-488.682" rx="1.391" ry="1.391" style="fill:#812222;fill-opacity:1;stroke-width:10.9114;stroke-linecap:square;stop-color:#000" transform="matrix(0 1 1 0 0 0)"/><rect width="5.406" height="84.546" x="18.579" y="73.892" rx="1.391" ry="1.391" style="fill:#812222;fill-opacity:1;stroke-width:10.9114;stroke-linecap:square;stop-color:#000" transform="scale(-1)"/><path d="m-242.343-4.841-9.16.018-4.461 10.446-10.44 2.923.407 1.75 11.128-3.432 4.445-10.414zM85.09 39.274l6.421-.68 6.054 3.468 1.003-1.741-6.945-3.977z" style="color:#000;fill:#404040;fill-opacity:1;stroke-width:1;-inkscape-stroke:none"/><path d="m84.535-123.369-1.982-7.308-5.597-2.845 4.575 3.646z" style="color:#000;fill:#404040;fill-opacity:1;stroke-width:1.55083;-inkscape-stroke:none"/><path d="m-302.546 63.271-2.874-6.263 2.801-5.172-1.695 5.226 2.9 5.44zM3.606-3.282l7.332-.485c2.026-2.418 6.242-6.778 6.242-6.778L9.816-5.188l-6.047.36-5.334-6.707s3.493 6.143 5.171 8.253" style="color:#000;fill:#404040;fill-opacity:1;stroke-width:1;-inkscape-stroke:none"/><path d="m-2.89-71.717 1.347-.518-6.118-7.295 3.023-6.38-7.563-2.405 6.723 2.708-2.915 6.262z" style="color:#000;fill:#404040;fill-opacity:1;stroke-width:.999999;-inkscape-stroke:none"/><path d="m-84.647-25.13 3.566 5.896 5.852.59-5.275-1.535-2.871-5.454zM-4.03 137.448l3.978-.997-2.675 1.587 1.39 4.63zM-236.845-65.491l-.948-3 1.067-3.227-.928-.31-1.225 3.702zM-35.95 46.096l-.08-2.797c.845-.853 2.349-2.605 2.349-2.605l-1.771 2.98.08 2.306 2.73 1.785s-2.451-1.107-3.31-1.67z" style="color:#000;fill:#404040;fill-opacity:1;stroke-width:1;-inkscape-stroke:none"/><path d="m-352.208-61.997 4.354 6.195-1.389 6.123.121-5.85z" style="color:#000;fill:#404040;fill-opacity:1;stroke-width:1.55083;-inkscape-stroke:none"/><path d="m-145.951 37.195-3.104 7.516 3.885-4.79 8.68 4.06zM73.15 109.122l5.093-5.297c-.13-3.152.05-9.215.05-9.215l-1.834 8.92-4.227 4.34-8.46-1.364s6.72 2.188 9.38 2.616z" style="color:#000;fill:#404040;fill-opacity:1;stroke-width:1;-inkscape-stroke:none"/><path d="M-63.945 356.272h137v1.444h-137z" style="fill:#362617;fill-opacity:1;stroke-width:1.49999;stroke-linecap:round;stop-color:#000" transform="scale(1 -1)rotate(90)"/><path d="M13140.1 4488.246h35.975v9.342h-35.975z" style="fill:#6b6b6b;fill-opacity:1;stroke:none;stroke-width:2;stroke-linecap:round;stroke-dasharray:none;stroke-opacity:1;stop-color:#000" transform="rotate(-90 4196.759 8832.464)"/><path fill="#575757" fill-rule="evenodd" d="M13177.483 4488.1h-37.354v.876c.243.148.469.317.653.502.875.873 1.385 2.685 1.262 2.808-.09.09-1.055-.15-1.915-.619v6.076h37.354zm-3.679 2.927c.875.873 2.686 1.384 2.81 1.26s-.387-1.935-1.261-2.81c-.874-.874-2.695-1.374-2.809-1.26s.387 1.935 1.26 2.81m-11.414 4.32c.874-.873 1.383-2.685 1.261-2.808-.124-.124-1.936.386-2.811 1.26-.873.874-1.373 2.694-1.259 2.81.113.113 1.935-.387 2.809-1.262m-5.871-4.322c.874.875 2.685 1.385 2.809 1.261.124-.123-.386-1.935-1.259-2.808-.875-.875-2.696-1.375-2.81-1.261-.114.113.386 1.935 1.26 2.808m-11.414 4.322c.873-.874 1.383-2.685 1.26-2.81-.124-.123-1.935.387-2.809 1.261-.875.875-1.375 2.695-1.261 2.809s1.935-.386 2.81-1.26m22.866-3.06c-.123.124-1.935-.387-2.809-1.26-.875-.875-1.374-2.695-1.261-2.81.114-.114 1.936.386 2.808 1.26.875.875 1.385 2.686 1.262 2.81m4.32.25c.124.125-.386 1.936-1.259 2.81-.875.874-2.695 1.375-2.81 1.26-.113-.114.386-1.934 1.261-2.809.873-.874 2.685-1.384 2.808-1.26m-21.607-.25c-.122.123-1.933-.387-2.808-1.262-.875-.873-1.374-2.695-1.261-2.808.116-.114 1.937.386 2.811 1.26s1.384 2.686 1.258 2.81m4.323.252c.124.123-.386 1.935-1.26 2.808-.874.875-2.694 1.375-2.81 1.261-.112-.115.387-1.935 1.262-2.81.873-.873 2.684-1.383 2.808-1.26" clip-rule="evenodd" style="stroke-width:.264583" transform="rotate(-90 4196.759 8832.464)"/><path d="M13139.23 4488.142h37.479v8.747h-37.479z" style="fill:none;fill-opacity:1;stroke:#383838;stroke-width:2;stroke-linecap:round;stroke-dasharray:none;stroke-opacity:1;stop-color:#000" transform="rotate(-90 4196.759 8832.464)"/><path d="M13140.1 4485.861h35.975v11.728h-35.975z" style="fill:#707070;fill-opacity:1;stroke:none;stroke-width:2;stroke-linecap:round;stroke-dasharray:none;stroke-opacity:1;stop-color:#000" transform="rotate(-90 4190.624 8838.6)"/><path fill="#575757" fill-rule="evenodd" d="M13178.163 4486.393h-38.713v.908c.252.153.486.328.677.52.906.905 1.435 2.782 1.307 2.91-.09.093-1.093-.156-1.984-.641v6.296h38.713zm-3.813 3.033c.907.905 2.784 1.435 2.912 1.305.129-.128-.401-2.004-1.307-2.91s-2.793-1.425-2.911-1.307c-.119.119.401 2.006 1.306 2.912m-11.829 4.478c.905-.905 1.433-2.783 1.307-2.91-.129-.129-2.007.4-2.914 1.305-.904.906-1.423 2.792-1.305 2.912.118.118 2.006-.4 2.912-1.307m-6.085-4.48c.906.907 2.783 1.435 2.911 1.307s-.4-2.005-1.305-2.91c-.906-.907-2.794-1.425-2.912-1.307s.4 2.006 1.306 2.91m-11.829 4.48c.905-.906 1.433-2.783 1.306-2.912-.129-.128-2.006.4-2.911 1.307-.907.906-1.426 2.792-1.307 2.91.118.12 2.005-.4 2.912-1.305m23.698-3.173c-.128.13-2.006-.4-2.911-1.305-.907-.906-1.424-2.793-1.307-2.912.118-.118 2.006.4 2.91 1.307.907.906 1.435 2.782 1.308 2.91m4.477.26c.128.13-.4 2.007-1.305 2.913-.907.905-2.793 1.425-2.912 1.305-.117-.118.4-2.004 1.307-2.91.904-.907 2.782-1.435 2.91-1.307m-22.393-.26c-.127.128-2.004-.4-2.91-1.306-.907-.905-1.424-2.793-1.307-2.911.12-.118 2.007.4 2.913 1.307.905.905 1.434 2.782 1.304 2.91m4.48.262c.129.128-.4 2.006-1.306 2.911s-2.792 1.425-2.912 1.307c-.116-.12.401-2.006 1.308-2.912.905-.906 2.782-1.434 2.91-1.306" clip-rule="evenodd" style="fill:#5c5c5c;fill-opacity:1;stroke-width:.264583" transform="rotate(-90 4190.624 8838.6)"/><path d="M13139.343 4485.454h37.447v11.43h-37.447z" style="fill:none;fill-opacity:1;stroke:#383838;stroke-width:2;stroke-linecap:round;stroke-dasharray:none;stroke-opacity:1;stop-color:#000" transform="rotate(-90 4190.624 8838.6)"/><path d="M13140.1 4488.246h35.975v9.342h-35.975z" style="fill:#666;fill-opacity:1;stroke:none;stroke-width:2;stroke-linecap:round;stroke-dasharray:none;stroke-opacity:1;stop-color:#000" transform="rotate(-90 4202.794 8826.428)"/><path fill="#575757" fill-rule="evenodd" d="M13177.483 4488.1h-37.354v.876c.243.148.469.317.653.502.875.873 1.385 2.685 1.262 2.808-.09.09-1.055-.15-1.915-.619v6.076h37.354zm-3.679 2.927c.875.873 2.686 1.384 2.81 1.26s-.387-1.935-1.261-2.81c-.874-.874-2.695-1.374-2.809-1.26s.387 1.935 1.26 2.81m-11.414 4.32c.874-.873 1.383-2.685 1.261-2.808-.124-.124-1.936.386-2.811 1.26-.873.874-1.373 2.694-1.259 2.81.113.113 1.935-.387 2.809-1.262m-5.871-4.322c.874.875 2.685 1.385 2.809 1.261.124-.123-.386-1.935-1.259-2.808-.875-.875-2.696-1.375-2.81-1.261-.114.113.386 1.935 1.26 2.808m-11.414 4.322c.873-.874 1.383-2.685 1.26-2.81-.124-.123-1.935.387-2.809 1.261-.875.875-1.375 2.695-1.261 2.809s1.935-.386 2.81-1.26m22.866-3.06c-.123.124-1.935-.387-2.809-1.26-.875-.875-1.374-2.695-1.261-2.81.114-.114 1.936.386 2.808 1.26.875.875 1.385 2.686 1.262 2.81m4.32.25c.124.125-.386 1.936-1.259 2.81-.875.874-2.695 1.375-2.81 1.26-.113-.114.386-1.934 1.261-2.809.873-.874 2.685-1.384 2.808-1.26m-21.607-.25c-.122.123-1.933-.387-2.808-1.262-.875-.873-1.374-2.695-1.261-2.808.116-.114 1.937.386 2.811 1.26s1.384 2.686 1.258 2.81m4.323.252c.124.123-.386 1.935-1.26 2.808-.874.875-2.694 1.375-2.81 1.261-.112-.115.387-1.935 1.262-2.81.873-.873 2.684-1.383 2.808-1.26" clip-rule="evenodd" style="fill:#525252;fill-opacity:1;stroke-width:.264583" transform="rotate(-90 4202.794 8826.428)"/><path d="M13139.23 4488.142h37.479v8.747h-37.479z" style="fill:none;fill-opacity:1;stroke:#383838;stroke-width:2;stroke-linecap:round;stroke-dasharray:none;stroke-opacity:1;stop-color:#000" transform="rotate(-90 4202.794 8826.428)"/><path d="M13001.44 4385.484v46.501h6.026v0h39.629v-5.027h-39.629v-36.447h39.629v-5.027h-41.181z" style="fill:#313868;fill-opacity:1;stroke:#1a234c;stroke-width:2;stroke-linecap:round;stroke-dasharray:none;stroke-opacity:1;stop-color:#000" transform="translate(-13171.904 -4537.538)"/><path d="M13140.1 4488.246h35.975v9.342h-35.975z" style="fill:#6b6b6b;fill-opacity:1;stroke:none;stroke-width:2;stroke-linecap:round;stroke-dasharray:none;stroke-opacity:1;stop-color:#000" transform="rotate(180 6351.197 2273.747)"/><path fill="#575757" fill-rule="evenodd" d="M13177.483 4488.1h-37.354v.876c.243.148.469.317.653.502.875.873 1.385 2.685 1.262 2.808-.09.09-1.055-.15-1.915-.619v6.076h37.354zm-3.679 2.927c.875.873 2.686 1.384 2.81 1.26s-.387-1.935-1.261-2.81c-.874-.874-2.695-1.374-2.809-1.26s.387 1.935 1.26 2.81m-11.414 4.32c.874-.873 1.383-2.685 1.261-2.808-.124-.124-1.936.386-2.811 1.26-.873.874-1.373 2.694-1.259 2.81.113.113 1.935-.387 2.809-1.262m-5.871-4.322c.874.875 2.685 1.385 2.809 1.261.124-.123-.386-1.935-1.259-2.808-.875-.875-2.696-1.375-2.81-1.261-.114.113.386 1.935 1.26 2.808m-11.414 4.322c.873-.874 1.383-2.685 1.26-2.81-.124-.123-1.935.387-2.809 1.261-.875.875-1.375 2.695-1.261 2.809s1.935-.386 2.81-1.26m22.866-3.06c-.123.124-1.935-.387-2.809-1.26-.875-.875-1.374-2.695-1.261-2.81.114-.114 1.936.386 2.808 1.26.875.875 1.385 2.686 1.262 2.81m4.32.25c.124.125-.386 1.936-1.259 2.81-.875.874-2.695 1.375-2.81 1.26-.113-.114.386-1.934 1.261-2.809.873-.874 2.685-1.384 2.808-1.26m-21.607-.25c-.122.123-1.933-.387-2.808-1.262-.875-.873-1.374-2.695-1.261-2.808.116-.114 1.937.386 2.811 1.26s1.384 2.686 1.258 2.81m4.323.252c.124.123-.386 1.935-1.26 2.808-.874.875-2.694 1.375-2.81 1.261-.112-.115.387-1.935 1.262-2.81.873-.873 2.684-1.383 2.808-1.26" clip-rule="evenodd" style="stroke-width:.264583" transform="rotate(180 6351.197 2273.747)"/><path d="M13139.23 4488.142h37.479v8.747h-37.479z" style="fill:none;fill-opacity:1;stroke:#383838;stroke-width:2;stroke-linecap:round;stroke-dasharray:none;stroke-opacity:1;stop-color:#000" transform="rotate(180 6351.197 2273.747)"/><path d="M13140.1 4485.861h35.975v11.728h-35.975z" style="fill:#707070;fill-opacity:1;stroke:none;stroke-width:2;stroke-linecap:round;stroke-dasharray:none;stroke-opacity:1;stop-color:#000" transform="rotate(180 6351.197 2279.882)"/><path fill="#575757" fill-rule="evenodd" d="M13178.163 4486.393h-38.713v.908c.252.153.486.328.677.52.906.905 1.435 2.782 1.307 2.91-.09.093-1.093-.156-1.984-.641v6.296h38.713zm-3.813 3.033c.907.905 2.784 1.435 2.912 1.305.129-.128-.401-2.004-1.307-2.91s-2.793-1.425-2.911-1.307c-.119.119.401 2.006 1.306 2.912m-11.829 4.478c.905-.905 1.433-2.783 1.307-2.91-.129-.129-2.007.4-2.914 1.305-.904.906-1.423 2.792-1.305 2.912.118.118 2.006-.4 2.912-1.307m-6.085-4.48c.906.907 2.783 1.435 2.911 1.307s-.4-2.005-1.305-2.91c-.906-.907-2.794-1.425-2.912-1.307s.4 2.006 1.306 2.91m-11.829 4.48c.905-.906 1.433-2.783 1.306-2.912-.129-.128-2.006.4-2.911 1.307-.907.906-1.426 2.792-1.307 2.91.118.12 2.005-.4 2.912-1.305m23.698-3.173c-.128.13-2.006-.4-2.911-1.305-.907-.906-1.424-2.793-1.307-2.912.118-.118 2.006.4 2.91 1.307.907.906 1.435 2.782 1.308 2.91m4.477.26c.128.13-.4 2.007-1.305 2.913-.907.905-2.793 1.425-2.912 1.305-.117-.118.4-2.004 1.307-2.91.904-.907 2.782-1.435 2.91-1.307m-22.393-.26c-.127.128-2.004-.4-2.91-1.306-.907-.905-1.424-2.793-1.307-2.911.12-.118 2.007.4 2.913 1.307.905.905 1.434 2.782 1.304 2.91m4.48.262c.129.128-.4 2.006-1.306 2.911s-2.792 1.425-2.912 1.307c-.116-.12.401-2.006 1.308-2.912.905-.906 2.782-1.434 2.91-1.306" clip-rule="evenodd" style="fill:#5c5c5c;fill-opacity:1;stroke-width:.264583" transform="rotate(180 6351.197 2279.882)"/><path d="M13139.343 4485.454h37.447v11.43h-37.447z" style="fill:none;fill-opacity:1;stroke:#383838;stroke-width:2;stroke-linecap:round;stroke-dasharray:none;stroke-opacity:1;stop-color:#000" transform="rotate(180 6351.197 2279.882)"/><path d="M13140.1 4488.246h35.975v9.342h-35.975z" style="fill:#666;fill-opacity:1;stroke:none;stroke-width:2;stroke-linecap:round;stroke-dasharray:none;stroke-opacity:1;stop-color:#000" transform="rotate(180 6351.197 2267.71)"/><path fill="#575757" fill-rule="evenodd" d="M13177.483 4488.1h-37.354v.876c.243.148.469.317.653.502.875.873 1.385 2.685 1.262 2.808-.09.09-1.055-.15-1.915-.619v6.076h37.354zm-3.679 2.927c.875.873 2.686 1.384 2.81 1.26s-.387-1.935-1.261-2.81c-.874-.874-2.695-1.374-2.809-1.26s.387 1.935 1.26 2.81m-11.414 4.32c.874-.873 1.383-2.685 1.261-2.808-.124-.124-1.936.386-2.811 1.26-.873.874-1.373 2.694-1.259 2.81.113.113 1.935-.387 2.809-1.262m-5.871-4.322c.874.875 2.685 1.385 2.809 1.261.124-.123-.386-1.935-1.259-2.808-.875-.875-2.696-1.375-2.81-1.261-.114.113.386 1.935 1.26 2.808m-11.414 4.322c.873-.874 1.383-2.685 1.26-2.81-.124-.123-1.935.387-2.809 1.261-.875.875-1.375 2.695-1.261 2.809s1.935-.386 2.81-1.26m22.866-3.06c-.123.124-1.935-.387-2.809-1.26-.875-.875-1.374-2.695-1.261-2.81.114-.114 1.936.386 2.808 1.26.875.875 1.385 2.686 1.262 2.81m4.32.25c.124.125-.386 1.936-1.259 2.81-.875.874-2.695 1.375-2.81 1.26-.113-.114.386-1.934 1.261-2.809.873-.874 2.685-1.384 2.808-1.26m-21.607-.25c-.122.123-1.933-.387-2.808-1.262-.875-.873-1.374-2.695-1.261-2.808.116-.114 1.937.386 2.811 1.26s1.384 2.686 1.258 2.81m4.323.252c.124.123-.386 1.935-1.26 2.808-.874.875-2.694 1.375-2.81 1.261-.112-.115.387-1.935 1.262-2.81.873-.873 2.684-1.383 2.808-1.26" clip-rule="evenodd" style="fill:#525252;fill-opacity:1;stroke-width:.264583" transform="rotate(180 6351.197 2267.71)"/><path d="M13139.23 4488.142h37.479v8.747h-37.479z" style="fill:none;fill-opacity:1;stroke:#383838;stroke-width:2;stroke-linecap:round;stroke-dasharray:none;stroke-opacity:1;stop-color:#000" transform="rotate(180 6351.197 2267.71)"/><path d="M13001.44 4385.484v46.501h6.026v0h39.629v-5.027h-39.629v-36.447h39.629v-5.027h-41.181z" style="fill:#313868;fill-opacity:1;stroke:#1a234c;stroke-width:2;stroke-linecap:round;stroke-dasharray:none;stroke-opacity:1;stop-color:#000" transform="rotate(-90 4109.663 8974.029)"/></g></svg>