<svg xmlns="http://www.w3.org/2000/svg" width="344.566" height="259.075" viewBox="0 0 182.333 137.094"><path d="M-5484.529 311.196v131.618h25.169v-39.212l-6.444-1.144 6.444-1.161v-90.101z" style="fill:#69482b;fill-opacity:1;stroke:#362617;stroke-width:2.3;stroke-linecap:round;stroke-opacity:1;stop-color:#000" transform="translate(5485.679 -308.427)"/><path d="m-5459.377 309.587-.832 91.863 22.608-4.076 2.608-1.143.783-86.415zm-.85 93.861-.343 37.753 25.168.228.304-33.518z" style="fill:#75502e;fill-opacity:1;stroke:#362617;stroke-width:2.3;stroke-linecap:round;stroke-opacity:1;stop-color:#000" transform="translate(5485.679 -308.427)"/><path d="m-5433.807 311.148-.329 84.707 22.903-10.037 2.305.023.29-74.596zm24.804 93.885-12.548 5.283-12.632-2.243-.135 34.692 25.169.098z" style="fill:#69482b;fill-opacity:1;stroke:#362617;stroke-width:2.3;stroke-linecap:round;stroke-opacity:1;stop-color:#000" transform="translate(5485.679 -308.427)"/><path d="m-5383.6 312.305-25.164.448 1.299 73.103 25.177.249zm1.447 81.425-24.985 10.519.712 40.102 25.165-.448z" style="fill:#7a5430;fill-opacity:1;stroke:#362617;stroke-width:2.3;stroke-linecap:round;stroke-opacity:1;stop-color:#000" transform="translate(5485.679 -308.427)"/><path d="M-5382.863 309.674V386.1l18.406.182-18.406 7.748v47.264h25.168V309.674Z" style="fill:#7a5430;fill-opacity:1;stroke:#362617;stroke-width:2.3;stroke-linecap:round;stroke-opacity:1;stop-color:#000" transform="translate(5485.679 -308.427)"/><path d="M-5358.058 311.196h25.168v131.619h-25.168z" style="fill:#69482b;fill-opacity:1;stroke:#362617;stroke-width:2.3;stroke-linecap:round;stroke-opacity:1;stop-color:#000" transform="translate(5485.679 -308.427)"/><path d="M-5320.839 436.895h25.168v131.619h-25.168z" style="fill:#75502e;fill-opacity:1;stroke:#362617;stroke-width:2.3;stroke-linecap:round;stroke-opacity:1;stop-color:#000" transform="rotate(1.355 15780.422 231732.024)"/></svg>