<svg xmlns="http://www.w3.org/2000/svg" width="438.191" height="280.73" viewBox="0 0 231.876 148.553"><g style="stroke:#404040;stroke-width:.724576;stroke-opacity:1"><path d="M4209.466-194.367v-23.517c2.066.147 3.772 1.225 5.752 1.654 2.556.555 5.411.095 7.984 0 3.4-.125 1.314.256 4.191-.368.959-.208 2.603-.391 2.994-1.473.465-1.287-.711-2.409-1.996-2.578-1.624-.214-3.418.36-4.99-.184-.557-.193-1.04-.544-1.597-.737-.667-.23-.702-.063-1.197-.368-1.008-.62-2-1.541-3.194-1.842-3.218-.81-4.38-.191-7.385 1.105l-.562.053v-24.434q.22-.068.436-.144c1.834-.65 3.455-.69 5.363-1.041 2.171-.401 4.34-.823 6.492-1.302 4.122-.918 7.877-2.362 11.855-3.646 1.205-.39 4.024-1.135 5.08-1.823 1.849-1.204 3.2-2.952 4.799-4.427 2.266-2.091 4.6-4.014 5.928-6.77 1.642-3.41 1.411-6.42 1.411-10.157 0-2.847.105-3.175-.564-6.51-.408-2.03-1.016-4.024-1.694-5.99-.307-.891-.871-1.7-1.13-2.604-.017-.065-.542-3.787-.281-4.167q.158-.23.334-.451h72.932c.04.654.088 1.262.175 1.783.737 4.38 2.35 8.71 5.19 12.337 10.959 4.663 7.165-4.455 26.945 3.499.544.223 1.048.523 1.596.736.718.28 1.505.405 2.196.737 1.762.845 4.055 3.435 5.588.92.394-.646.767-1.315.998-2.025.417-1.282.627-5.117.4-6.445-.298-1.735-1.6-4.334-2.196-5.708-.532-1.228-1.004-2.48-1.597-3.683-.3-.609-.758-1.36-1.18-2.151h23.967v45.793c-3.394-.655-7.306-1.209-10.013 1.288-2.238 2.065 1.605 4.895 2.196 6.077.783 1.566 3.843 10.146 4.39 12.337.195.778.123 1.604 0 2.394-.08.52-.725 1.317-.598 1.842.214.89.511 1.783.998 2.577.394.644 1.08 1.092 1.597 1.658.676.741 1.076 1.231 1.43 1.647v26.108h-55.192c.536-2.553 5.715-6.207 5.46-8.789-.037-.372.018-.79-.2-1.105-.6-.87-4.78-3.333-5.588-3.682-3.36-1.453-6.299-2.094-9.78-.553-1.23.545-1.989 1.848-2.794 2.762-1.903 2.162-3.695 4.254-4.99 6.813-.418.827-.636 1.73-.998 2.578a28 28 0 0 1-.927 1.976h-30.397c-.903-1.974-2.003-3.877-3.006-5.843-3.715-7.922-2.616-2.257-4.99 1.474-.2.31-1.254 1.13-1.596 1.289-.706.325-1.905-.29-2.595-.369-2.01-.231-4.641.556-5.19 2.578q-.115.435-.223.871zm135.967-24.403c1.334-.026.74-1.41 2.314-2.432 1.216-.79 2.597-1.363 3.992-1.841.954-.327 1.99-.392 2.994-.552.528-.085 1.217.165 1.596-.185.675-.622-.723-2.894-1.596-3.682-2.43-2.194-5.19-4.051-7.785-6.077-4.812-.187-4.655 1.03-7.584 3.683-.778.718-1.597 2.478-1.597 3.498 0 1.13.544 2.735 1.198 3.683.202.293.532.491.798.737 1.47 1.356 3.046 2.8 5.19 3.13q.274.042.48.038m-83.91-20.11c1.43-1.143 1.089-2.463.998-4.05-.14-2.455-4.15-4.604-6.586-4.604-.67 0-1.34.064-1.996.184-.484.09-1.975.534-2.395.921-.21.194-.234.508-.4.737-2.505 5.28-10.371 6.898-5.588 8.654.599.307 1.205.603 1.796.921 4.529 1.571 10.1.218 14.171-2.762m43.494-28.811c1.417.014 3.882-.46 4.807-.65 1.196-.246 3.33-.453 3.793-1.842.725-2.176-2.06-5.071-4.391-5.34-.68-.078-2.643.324-2.994 0-1.083-1-1.783-2.3-2.595-3.499-2.488-3.673-.882-2.308-2.994-3.867l-1.597 2.578c0 .648.1 1.388 0 2.026-.281 1.818-.892 3.897 0 5.708.666 1.35 3.602 4.224 5.19 4.788.183.065.454.094.781.098" style="fill:gray;fill-opacity:1;stroke:#404040;stroke-width:1.66653;stroke-linecap:round;stroke-linejoin:round;stroke-opacity:1;stop-color:#000" transform="matrix(1.32562 0 0 -1.43685 -5579.062 -278.08)"/><path stroke="none" d="M-4283.619-296.401h2.605v101.981h-2.605z" style="fill:#000;fill-opacity:.4;stroke:none;stroke-width:2.60847;stroke-linecap:round;stroke-dasharray:none;stroke-opacity:1;stop-color:#000" transform="matrix(-1.32562 0 0 -1.43685 -5579.062 -278.08)"/><path stroke="none" d="M4367.234-296.401h2.605v101.981h-2.605z" style="fill:#000;fill-opacity:.4;stroke:none;stroke-width:2.60847;stroke-linecap:round;stroke-dasharray:none;stroke-opacity:1;stop-color:#000" transform="matrix(1.32562 0 0 -1.43685 -5579.062 -278.08)"/><path stroke="none" d="M-4222.152-194.42v-21.755a40 40 0 0 0-1.05-.055 29 29 0 0 0-1.555-.025v21.836zm-2.605-26.18c.464-.019.918-.082 1.356-.233s.83-.4 1.249-.594v-28.211a54 54 0 0 1-2.605-.673z" style="fill:#000;fill-opacity:.4;stroke:none;stroke-width:2.60847;stroke-linecap:round;stroke-dasharray:none;stroke-opacity:1;stop-color:#000" transform="matrix(-1.32562 0 0 -1.43685 -5579.062 -278.08)"/><path d="M-4209.467-194.367v-23.516c-2.066.147-3.772 1.224-5.75 1.653-2.557.555-5.412.095-7.985 0-3.4-.125-1.314.256-4.191-.368-.959-.208-2.603-.391-2.994-1.473-.465-1.287.711-2.409 1.996-2.578 1.624-.214 3.418.36 4.99-.184.557-.193 1.04-.544 1.597-.737.667-.23.702-.063 1.197-.368 1.008-.62 2-1.541 3.194-1.842 3.218-.81 4.38-.191 7.385 1.105l.561.053v-24.434q-.219-.069-.435-.144c-1.834-.65-3.455-.69-5.363-1.041-2.171-.401-4.34-.823-6.492-1.302-4.122-.918-7.877-2.362-11.855-3.646-1.205-.39-4.024-1.135-5.08-1.823-1.849-1.204-3.2-2.951-4.799-4.427-2.266-2.091-4.6-4.014-5.928-6.77-1.642-3.41-1.411-6.42-1.411-10.157 0-2.847-.105-3.175.564-6.51.408-2.03 1.016-4.024 1.694-5.99.307-.891.871-1.7 1.13-2.604.017-.065.542-3.787.281-4.167a8 8 0 0 0-.334-.451h-72.932c-.04.654-.088 1.262-.175 1.783-.737 4.38-2.35 8.71-5.19 12.337-10.959 4.663-7.165-4.455-26.945 3.499-.544.223-1.048.523-1.596.736-.718.28-1.505.405-2.196.737-1.762.845-4.055 3.435-5.588.92-.394-.646-.767-1.315-.998-2.025-.417-1.282-.627-5.117-.4-6.445.298-1.735 1.6-4.334 2.196-5.708.532-1.228 1.004-2.48 1.597-3.683.3-.609.758-1.36 1.18-2.151h-23.967v45.793c3.393-.655 7.306-1.21 10.013 1.288 2.238 2.065-1.605 4.895-2.196 6.077-.783 1.566-3.843 10.146-4.39 12.337-.195.778-.123 1.604 0 2.394.08.52.725 1.317.598 1.842-.214.89-.511 1.783-.998 2.577-.394.644-1.08 1.092-1.597 1.658-.677.741-1.076 1.232-1.43 1.647v26.108h55.187c-.534-2.553-5.71-6.206-5.455-8.789.037-.372-.018-.79.2-1.105.6-.87 4.78-3.333 5.588-3.682 3.36-1.453 6.299-2.094 9.78-.553 1.23.545 1.989 1.848 2.794 2.762 1.903 2.162 3.695 4.254 4.99 6.813.418.827.636 1.73.998 2.578.278.653.588 1.319.932 1.976h30.392c.903-1.974 2.003-3.877 3.006-5.843 3.715-7.922 2.616-2.257 4.99 1.474.2.31 1.254 1.13 1.596 1.289.706.325 1.905-.29 2.595-.369 2.01-.231 4.641.556 5.19 2.578q.115.435.223.871z" style="fill:none;fill-opacity:1;stroke:#404040;stroke-width:1.66652;stroke-linecap:round;stroke-linejoin:round;stroke-opacity:1;stop-color:#000" transform="matrix(-1.32562 0 0 -1.43685 -5579.062 -278.08)"/></g><g style="stroke:#404040;stroke-opacity:1"><path d="M-3638.474-471.677c-.906-.906-.171-2.3.57-3.042.963-.963 3.726-1.408 4.182-2.662.353-.97.359-3.552.19-4.563-.638-3.831-2.438-6.59-4.181-10.078-.47-.938-.862-1.913-1.331-2.852-.794-1.588-3.328-4.936-2.851-6.845.36-1.441 1.442-2.26 2.47-3.232 3.392-3.204 7.625-4.154 11.976-5.514 2.028-.634 4.097-1.147 6.083-1.902 4.101-1.559 6.553-4.83 11.405-4.753 2.167.034 4.216 1.025 6.273 1.71 2.575.86 5.054 2.15 6.463 4.564.452.776.169 2.063 0 2.852-.119.552-.605 2.58-.95 3.043-3.41 4.547-14.767 5.486-12.927 13.31.286 1.215 1.14 2.233 1.521 3.422.632 1.976 2.744 8.327.95 10.838-1.174 1.646-3.224 2.562-5.132 3.233-6.022 2.116-9.474 1.71-15.397 1.71l-3.665 1.603-2.66-.523c-.837-.035-2.324.274-2.989-.319M-3465.574-488.198c1.98-3.547 3.875-7.167 6.372-10.374 1.674-2.15 4.573-2.844 6.799-4.228 5.185-3.224 6.974-4.67 7.404-11.14.01-.159-.271-.167-.407-.25-2.389-1.468-3.901-.969-6.146.427-3.567 2.735-4.053 4.61-9.55 5.059-3.775.45-10.073 2.117-11.083 6.64-.32 1.432.25 2.947.692 4.347.466 1.477 1.877 4.142 2.804 5.924l.402 3.064c.88 1.743.108 2.156 2.713.53M-3589.266-447.854c-1.826 5.15-9.506 4.196-11.902-.004-1.229-2.154-.398-4.603.561-6.597 3.172-6.59 5.655-10.77 14.017-10.424 4.365.568 10.521 2.712 7.816 5.479-1.768 1.438-3.714 2.483-5.525 3.636-5.798 2.947-5.162 3.057-4.968 7.91zM-3643.69-446.61c-1.526-.012-3.01.195-3.976.558-1.308.49-3.766 2.085-4.775 2.626-2.829 1.515-5.264 2.358-7.16 5.013-3.336 4.67-5.127 13.818-3.582 19.097.581 1.986 1.525 3.848 2.387 5.729.263.573 3.23 5.765 3.581 7.877.118.707 0 1.432 0 2.149a74 74 0 0 1-.239 6.206c-.237 2.85-1.05 5.114-.716 8.116.136 1.218.988 3.462 1.671 4.536.581.913.61 3.993 2.626 4.774.432.167 2.561-.407 3.462-.663 2.988-.78 5.676 2.575 8.187.95 1.707-1.105 3.516-2.045 5.252-3.103 4.304-2.625 5.367-3.713 10.264-5.729.75-.309 1.582-.377 2.387-.477a40 40 0 0 1 6.684-.24c2.894.139 2.502-2.67 5.218-3.937 1.889-.882 2.511-2.208 4.14-3.51 1.901-1.522 3.85-3.21 5.49-5.013.655-.72.911-1.208 1.194-2.15 1.37-4.565-4.146-6.52-7.4-7.877-1.586-.66-3.07-1.305-4.775-1.67-3.214-.69-6.548-.457-9.787-.955-1.357-.21-2.707-.467-4.058-.717-.797-.147-1.628-.188-2.387-.477-.736-.28-3.041-1.523-3.82-2.387-2.468-2.743-1.763-6.912-1.91-10.265-.044-1.036-.19-2.066-.238-3.103-.124-2.727.081-5.394-.238-8.116-.3-2.542-.263-4.268-2.387-5.968-1.1-.88-3.133-1.258-5.095-1.274m5.938 54.846c-.33.52-.938 1.16-1.403 1.59-2.674 4.252-10.645-3.435-8.42-6.922.466-.65 1.553-1.22 2.059-1.59 4.327-2.51 9.47 2.249 7.764 6.922M-3440.614-410.495c-.364 2.765-1.687 5.193-3.342 7.4-3.604 4.806-7.531 6.923-13.607 6.923-1.352 0-2.714.158-4.058 0-1.303-.153-2.542-.654-3.82-.955-3.578-.842-8.343-2.39-11.935-1.193-.97.323-1.308.802-2.148 1.432-2.002 1.501-4.013 2.972-5.968 4.535-1.226.981-2.512 1.754-3.82 2.626-1.58 1.055-3.228 2.39-5.012 3.103-1.219.488-2.533.698-3.82.955-1.796.36-4.161.672-5.729-.477-3.684-2.702-5.576-6.277-7.16-10.503-.24-.637-.61-1.239-.717-1.91-.136-.865 0-1.75 0-2.626 0-2.77.412-5.359 1.671-7.877 1.117-2.234 2.994-4.03 4.774-5.73 4.95-4.725 8.858-7.981 15.517-10.264.84-.289 1.753-.303 2.625-.477.72-.144 1.419-.401 2.149-.478 2.057-.216 4.137 0 6.206 0 2.344 0 4.834-.221 7.161 0 1.284.122 3.22 1.734 4.417 2.149 2.928 1.013 4.12-2.672 6.564-.717 1.954 1.564 7.058 1.346 8.176 3.581 2.676 9.004 6.947 7.537 11.756 9.22zM-3582.382-408.542c-.796.557-1.659 1.029-2.387 1.671-.635.56-1.112 1.276-1.671 1.91-1.656 1.876-3.624 3.604-4.058 6.206-.197 1.18-.195 2.386-.24 3.581-.074 2.02-.18 3.608.717 5.49 1.333 2.798 2.541 2.865 5.252 2.865 1.879 0 3.672.164 5.49-.477 4.34-1.532 3.363-.74 7.548-2.463 3.37-1.388 6.35.1 8.594 2.626 2.197 2.472 3.347.129 6.003 1.992.978.687.758-3.032.771-3.11.08-.471 0-.955 0-1.433 0-.557.215-1.156 0-1.67-1.067-2.562-2.752-4.465-4.297-6.684-4.114-5.915.384.193-4.058-5.73-.716-.954-1.448-1.897-2.148-2.864-2.652-3.662-1.768-3.49-4.535-5.252-3.048-1.94-5.884-1.364-8.003.755-2.185 1.73-1.309.756-2.978 2.587M-3477.844-450.247c.041-1.263 1.137-8.042.987-9.297-.542-4.542-3.19-9.73-7.008-12.353-1.022-.703-6.617.21-7.765.309-3.45.295-7.024.484-10.433 1.127-5.187.977-4.581 2.695-10.396.332-.945-.384-1.64-1.212-2.506-1.752-2.845-1.774-6.78-3.86-10.273-3.457-.763.088-3.213 1.305-3.74 1.707-1.89 1.439-2.752 2.954-4.571 4.481-1.234 1.036-2.674 1.813-3.887 2.872-2.247 1.962-6.423 5.94-8.288 8.813-1.672 2.576-2.29 5.635-3.154 8.526-.938 3.139-2.043 7.013.017 10.074 1.258 1.869 2.906 3.46 4.568 4.983 1.494 1.37 4.233.496 6.025.784 4.002.645 8.412 1.808 12.053 3.584 1.068.521 2.052 1.202 3.116 1.732 1.32.657 5.79 2.61 7.327 3.185.328.123 2.212.894 2.892.457.276-.177.367-.555.461-.87.537-1.794.19-1.61-.358-3.53-.597-2.094-1.029-4.115-1.79-6.17-.827-2.233-1.826-4.4-2.662-6.631-.295-.788-1.812-4.108-.156-4.88.47-.219 1.015-.225 1.519-.353 1.179-.301 2.36-.6 3.52-.968 1.279-.405 2.516-.944 3.815-1.282 2.726-.709 4.322-.615 7.134-.9 4.705-.474 9.488-1.34 14.232-1.003 2.372.168 4.342.81 6.822.82.592.002 1.95-.027 2.502-.264M-3570.328-487.354c-.238-1.194-.313-2.432-.716-3.581-.446-1.273-1.658-1.471-2.626-2.148-1.22-.853-1.416-4.394-1.193-5.73.302-1.812 2.586-1.062 3.82-1.432 1.519-.456 5.206-3.218 6.445-3.342 1.623-.162 3.017.652 4.535.955 2.437.488 5.019.4 7.4 1.194 3.1 1.033 5.978 2.786 9.31 3.103 3.455.33 7.814-.274 11.219-.955.72-.144 1.63-.996 2.148-.477.203.203-.48.315-.716.477-1.075.74-2.021 1.657-3.103 2.387-.27.183-12.158 7.675-12.652 7.878-5.1 2.1-13.988 1.04-18.38.955l-1.647 1.885zM-3441.01-470.355c4.171-.448 6.069 5.137 3.96 8.168-1.081 1.555-3.053 1.794-4.752 1.794-5.616 0-9.335-.324-11.88-6.177-1.06-3.182-1.627-8.115 1.188-7.172 1.584.738 2.955 1.728 4.356 2.59 3.97 3.006 3.834 2.533 7.128.797M-3499.576-512.225c1.628-1.342 2.664-3.318 4.22-4.726 3.265-2.955 4.185-2.596 6.752.337.3.344 1.27 1.066 1.181 1.688-.155 1.083-1.663 1.507-2.363 1.857-1.381.69-3.2.634-4.726.506-.593-.049-1.561-.38-2.194-.168-.193.064-.318.262-.507.337-1.096.439-1.304.593-2.363.17" style="fill:gray;fill-opacity:1;stroke:#404040;stroke-width:1.85208;stroke-linecap:round;stroke-linejoin:round;stroke-dasharray:none;stroke-opacity:1;stop-color:#000" transform="translate(3667.123 525)"/><path d="M-3658.368-510.539c1.719-.38 2.889-1.613 4.265-2.612 2.32-1.41 1.133-1.538-.203-3.214-.409-.54-.502-1.572-1.219-1.808-.773-.255-1.128 1.169-1.625 1.808-2.36 3.024-1.983 4.325-1.218 5.826" style="fill:gray;fill-opacity:1;stroke:#404040;stroke-width:2;stroke-linecap:round;stroke-linejoin:round;stroke-dasharray:none;stroke-opacity:1;stop-color:#000" transform="translate(3667.123 525)"/></g></svg>