<svg xmlns="http://www.w3.org/2000/svg" xml:space="preserve" width="71.154" height="66.886" viewBox="0 0 18.826 17.697"><g transform="translate(-16.063 -1.108)"><path d="m25.377 14.002-.86 2.921s.736.513.575 1.058c-.16.544-.54.476-1.186.286s-.945-.589-.94-.803c.009-.346.265-.759.746-.747l.883-3M29.363 7.974l2.604-1.58s-.199-.875.287-1.17c.485-.294.72.013 1.07.588.348.575.301 1.073.154 1.227-.24.25-.708.382-1.055.05L29.749 8.71M28.728 11.636l2.67 1.466s.658-.61 1.156-.337.35.63.026 1.22-.778.798-.985.747c-.337-.083-.685-.422-.57-.888l-2.742-1.505M25.011 6.006l.247-3.035s-.826-.352-.78-.918.432-.577 1.102-.522 1.046.383 1.085.594c.062.34-.105.797-.578.883l-.253 3.117M20.885 10.293l-2.942-.788s-.495.75-1.043.603c-.549-.147-.49-.53-.316-1.179.174-.65.566-.96.78-.96.346 0 .765.246.765.727l3.02.81" style="fill:#693a55;fill-opacity:1;stroke:#180f14;stroke-width:.79375;stroke-linecap:round;stroke-linejoin:round;stroke-miterlimit:29;stroke-dasharray:none;stroke-opacity:1"/><path d="M18.583 9.986s.096-6.211 6.211-6.211 6.331 6.33 6.331 6.33.31 5.734-5.733 5.734c-6.905 0-6.809-5.853-6.809-5.853" style="fill:#693a55;fill-opacity:1;stroke:#180f14;stroke-width:.79375;stroke-linecap:round;stroke-linejoin:round;stroke-miterlimit:29;stroke-dasharray:none;stroke-opacity:1"/><path d="M20.392 9.32s.074-4.768 4.768-4.768 4.86 4.859 4.86 4.859.238 4.4-4.402 4.4c-5.3 0-5.226-4.492-5.226-4.492" style="fill:#8a4c70;fill-opacity:1;stroke:none;stroke-width:.609254;stroke-linecap:round;stroke-linejoin:round;stroke-miterlimit:29;stroke-dasharray:none;stroke-opacity:1"/><path d="m21.518 6.882-2.044-2.044s-1.014.507-1.521 0-.202-.888.399-1.489c.6-.6 1.225-.693 1.458-.558.38.219.682.753.379 1.279l2.083 2.184M27.864 13.264l1.445 2.504s1.11-.228 1.47.393c.358.621-.035.91-.771 1.335s-1.363.352-1.554.161c-.309-.309-.463-.904-.034-1.333l-1.447-2.649M22.491 12.65l-2.044 2.044s.507 1.014 0 1.521-.888.202-1.488-.399c-.6-.6-.693-1.225-.558-1.458.219-.38.753-.682 1.278-.379l2.185-2.083M26.24 6.147l1.87-1.944s-.649-.93-.22-1.505c.428-.575.849-.328 1.53.18.681.507.863 1.111.763 1.362-.161.406-.646.783-1.21.56L27.58 7.141M24.332 10.37 23.7 9.32s-1.167.38-1.554-.224-.219-1.567.505-2.011c1.188-.729 1.995-.02 2.186.172.166.166.167.847-.241 1.296l1.204.984M29.755 9.678h2.89s.36-1.075 1.076-1.075c.718 0 .77.485.77 1.334s-.375 1.356-.636 1.426c-.423.113-1.015-.05-1.172-.636l-3.017-.072" style="fill:#8a4c70;fill-opacity:1;stroke:#180f14;stroke-width:.79375;stroke-linecap:round;stroke-linejoin:round;stroke-miterlimit:29;stroke-dasharray:none;stroke-opacity:1"/><ellipse cx="16.111" cy="18.624" rx=".989" ry=".522" style="fill:#693a55;fill-opacity:1;stroke:none;stroke-width:1.14357;stroke-linecap:round;stroke-linejoin:round;stroke-miterlimit:29;stroke-dasharray:none;stroke-opacity:1" transform="matrix(.86873 -.49528 .50473 .86328 0 0)"/><ellipse cx="23.051" cy="-18.012" rx=".88" ry=".29" style="fill:#693a55;fill-opacity:1;stroke:none;stroke-width:.804087;stroke-linecap:round;stroke-linejoin:round;stroke-miterlimit:29;stroke-dasharray:none;stroke-opacity:1" transform="rotate(45)"/><ellipse cx="24.413" cy="-4.062" rx=".88" ry=".29" style="fill:#693a55;fill-opacity:1;stroke:none;stroke-width:.804087;stroke-linecap:round;stroke-linejoin:round;stroke-miterlimit:29;stroke-dasharray:none;stroke-opacity:1" transform="rotate(47.501)"/><ellipse cx="21.102" cy="26.675" rx=".88" ry=".29" style="fill:#693a55;fill-opacity:1;stroke:none;stroke-width:.804087;stroke-linecap:round;stroke-linejoin:round;stroke-miterlimit:29;stroke-dasharray:none;stroke-opacity:1" transform="rotate(-21.926)"/><ellipse cx="-6.154" cy="34.631" rx=".88" ry=".29" style="fill:#693a55;fill-opacity:1;stroke:none;stroke-width:.804087;stroke-linecap:round;stroke-linejoin:round;stroke-miterlimit:29;stroke-dasharray:none;stroke-opacity:1" transform="rotate(-83.543)"/><ellipse cx="12.363" cy="14.877" rx=".88" ry=".29" style="fill:#693a55;fill-opacity:1;stroke:none;stroke-width:.804087;stroke-linecap:round;stroke-linejoin:round;stroke-miterlimit:29;stroke-dasharray:none;stroke-opacity:1" transform="rotate(-38.824)"/></g></svg>