<svg xmlns="http://www.w3.org/2000/svg" width="222.581" height="130.949" viewBox="0 0 58.891 34.647"><defs><radialGradient id="a" cx="109.626" cy="77.969" r="8.875" gradientUnits="userSpaceOnUse"><stop offset="0" stop-color="#959eb0"/><stop offset="1" stop-color="#fff"/></radialGradient><radialGradient id="b" cx="113.376" cy="80.469" r="8.875" gradientUnits="userSpaceOnUse"><stop offset="0" stop-color="#6f7683"/><stop offset="1" stop-color="#d2d2d2"/></radialGradient><radialGradient id="c" cx="109.626" cy="77.969" r="8.875" gradientTransform="matrix(.42528 0 0 .42528 -20.906 -27.632)" gradientUnits="userSpaceOnUse"><stop offset="0" stop-color="#959eb0"/><stop offset="1" stop-color="#fff"/></radialGradient><radialGradient id="d" cx="113.376" cy="80.469" r="8.875" gradientTransform="matrix(.42528 0 0 .42528 -20.906 -27.632)" gradientUnits="userSpaceOnUse"><stop offset="0" stop-color="#6f7683"/><stop offset="1" stop-color="#d2d2d2"/></radialGradient></defs><path fill="#526fa3" stroke="#33476e" stroke-width="1.488" d="M2.187 10.196a2.445 2.445 0 1 1 4.89 0 2.445 2.445 0 0 1-4.89 0zM2.4 29.759a2.233 2.233 0 1 1 4.465 0 2.233 2.233 0 0 1-4.466 0zM13.064 19.613c.149-4.858 5.272-2.02 5.92-5.917.543-3.262-5.492-9.1.312-10.718 6.842-1.907 2.595 7.12 6.035 9.246.504.312 2.598 1.381 4.612 1.204 6.522-.574 7.206-11.646 14.276-4.486 7.798 7.895-9.988 7.06-10.025 11.841-.02 2.717 7.697 3.91 4.483 6.601-3.588 3.004-4.54-3.263-7.927-4.119-.194-.049-2.834-1.48-4.733-.054-2.617 1.965-1.865 8.67-6.563 6.885-2.843-1.08.241-5.639-.032-8.318-.143-1.404-6.475 1.658-6.358-2.165z" style="mix-blend-mode:normal;fill-rule:nonzero;stroke-width:1.05833;stroke-linecap:butt;stroke-linejoin:miter;stroke-miterlimit:10;stroke-dasharray:none;stroke-dashoffset:0"/><path fill="#5e5e5e" stroke="#3f3f3f" stroke-width="1.488" d="m8.753 10.835 5.291-8.1L16.78 16.08zM49.967 26.519l-3.57-1.188 2.196-3.444-3.869-3.5 8.593-.287 4.708 3.223-4.933 4.261zM3.282 28.278C2.36 27.415.207 26.1.57 24.227s3.048-.847 3.99-2.54c.94-1.694-1.864-1.263-1.277-2.34S5.52 15.84 7.748 15.84c2.227 0 2.734 1.767 4.04 3.509 1.306 1.74 2.067 2.611 2.02 4.571s-1.655.51-2.168 1.617 1.027 2.086.148 2.742c-.88.657-3.304 1.276-5.529 1.276s-2.054-.412-2.977-1.276z" style="mix-blend-mode:normal;fill-rule:nonzero;stroke-width:1.05833;stroke-linecap:butt;stroke-linejoin:miter;stroke-miterlimit:10;stroke-dasharray:none;stroke-dashoffset:0"/><path fill="url(#a)" stroke="url(#b)" stroke-width="1.063" d="M20.931 6.483 19.443.529h6.06l1.488 6.06z" style="mix-blend-mode:normal;fill:url(#c);fill-rule:nonzero;stroke:url(#d);stroke-width:1.05833;stroke-linecap:butt;stroke-linejoin:miter;stroke-miterlimit:10;stroke-dasharray:none;stroke-dashoffset:0"/><path fill="#5e5e5e" stroke="#3f3f3f" stroke-width="1.488" d="m18.237 29.995-3.19-3.615 2.127-4.89 3.19-3.19 2.382 2.428 3.997.761 2.764 6.38-2.764 3.19-4.253-.426zM33.435 6.873l3.135 1.16 1.409.058-.304-4.235L42.579 8.3l1.312 4.291-2.347.51-1.892 2.507-1.762 1.06-1.77-6.107z" style="mix-blend-mode:normal;fill-rule:nonzero;stroke-width:1.05833;stroke-linecap:butt;stroke-linejoin:miter;stroke-miterlimit:10;stroke-dasharray:none;stroke-dashoffset:0"/><path fill="#1e1e1e" stroke="#000" stroke-width="2.124" d="M23.409 11.37s.61-2.372 1.434-3.333c.94-1.098 3.906-2.9 3.906-2.9l7.186 3.203s-2.507 1.968-3.091 3.279c-.499 1.118-.2 4.102-.2 4.102s-1.576 2.302-2.291 1.965c-.758-.357-1.227-3.86-2.71-5.284-1.624-1.56-4.234-1.032-4.234-1.032zM33.696 31.281l.932-2.944-2.952-3.116 2.02-3.615 3.65 1.725 4.956-4.542 2.026 2.605s.212 3.8.212 5.422c0 .798-.588 2.46-1.903 3.717-1.329 1.27-3.388 2.13-4.157 2.13-1.619 0-4.784-1.382-4.784-1.382z" style="mix-blend-mode:normal;fill-rule:nonzero;stroke-width:1.05833;stroke-linecap:butt;stroke-linejoin:miter;stroke-miterlimit:10;stroke-dasharray:none;stroke-dashoffset:0"/><path fill="#526fa3" stroke="#33476e" stroke-width="1.488" d="M44.714 31.885a2.233 2.233 0 1 1 4.466 0 2.233 2.233 0 0 1-4.466 0z" style="mix-blend-mode:normal;fill-rule:nonzero;stroke-width:1.05833;stroke-linecap:butt;stroke-linejoin:miter;stroke-miterlimit:10;stroke-dasharray:none;stroke-dashoffset:0"/></svg>