<?xml version="1.0" encoding="UTF-8" standalone="no"?>
<!-- Created with Inkscape (http://www.inkscape.org/) -->

<svg
   width="281.18002"
   height="279.65399"
   viewBox="0 0 74.395546 73.991787"
   version="1.1"
   id="svg49750"
   inkscape:version="1.3 (0e150ed, 2023-07-21)"
   sodipodi:docname="container_ceiling_5.svg"
   xmlns:inkscape="http://www.inkscape.org/namespaces/inkscape"
   xmlns:sodipodi="http://sodipodi.sourceforge.net/DTD/sodipodi-0.dtd"
   xmlns="http://www.w3.org/2000/svg"
   xmlns:svg="http://www.w3.org/2000/svg">
  <sodipodi:namedview
     id="namedview49752"
     pagecolor="#505050"
     bordercolor="#000000"
     borderopacity="0.25"
     inkscape:showpageshadow="2"
     inkscape:pageopacity="0"
     inkscape:pagecheckerboard="true"
     inkscape:deskcolor="#d1d1d1"
     inkscape:document-units="px"
     showgrid="false"
     inkscape:zoom="1.2875855"
     inkscape:cx="131.25342"
     inkscape:cy="279.59308"
     inkscape:window-width="1312"
     inkscape:window-height="449"
     inkscape:window-x="0"
     inkscape:window-y="25"
     inkscape:window-maximized="0"
     inkscape:current-layer="layer1"
     inkscape:pageshadow="0"
     units="px"
     width="281.18002px"
     height="559.30802px" />
  <defs
     id="defs49747" />
  <g
     inkscape:label="Слой 1"
     inkscape:groupmode="layer"
     id="layer1">
    <rect
       style="fill:#000000;fill-opacity:0.196078;stroke-width:2.48164;stroke-linecap:square;paint-order:fill markers stroke"
       id="rect1"
       width="48.054726"
       height="34.665237"
       x="13.170411"
       y="39.32555" />
    <path
       id="rect1049-9-7-5-1-7-8"
       style="fill:#4e4e4e;fill-opacity:1;stroke-width:2.15008;paint-order:markers stroke fill;stop-color:#000000"
       d="M 74.395504,147.98373 V 7.6019532e-7 H 63.075782 L 59.394353,6.3500007 H 15.001198 L 11.319769,7.6019532e-7 H 4.5291432e-5 V 147.98373 Z M 52.704839,112.67529 36.837591,87.681469 14.760385,74.896718 32.00791,63.979557 46.081987,40.278161 57.672494,61.68099 51.876982,84.377278 Z" />
    <path
       id="rect1049-9-7-2-9-5-4-02"
       style="fill:#e0e0e0;fill-opacity:1;stroke-width:1.97626;paint-order:markers stroke fill;stop-color:#000000"
       d="M 71.044287,144.31315 V 3.6705759 H 66.956165 L 62.722831,10.020576 H 11.672718 L 7.4393851,3.6705759 H 3.351263 V 144.31315 Z M 52.704839,112.67529 36.837591,87.681469 14.760385,74.896718 32.00791,63.979557 46.081987,40.278161 57.672494,61.68099 51.876982,84.377278 Z" />
    <path
       id="rect24996-9-4-4-8"
       style="fill:#ffffff;stroke-width:2.96972;paint-order:markers stroke fill;stop-color:#000000"
       d="M 71.04432,14.93687 H 3.351169 V 25.674 H 71.04432 Z"
       sodipodi:nodetypes="ccccc" />
    <path
       id="rect4123"
       style="fill:#ffffff;stroke-width:2.96971;paint-order:markers stroke fill;stop-color:#000000"
       d="M 71.044287,47.148025 V 36.411213 H 3.351263 v 10.736812 h 38.651386 l 4.079338,-6.869864 3.720186,6.869864 z" />
    <path
       id="rect4125"
       style="fill:#ffffff;stroke-width:2.96971;paint-order:markers stroke fill;stop-color:#000000"
       d="M 71.044287,68.622682 V 57.885354 H 55.616806 l 2.055688,3.795636 -1.772502,6.941692 z m -46.371846,0 7.335469,-4.643125 3.618902,-6.094203 H 3.351263 v 10.737328 z" />
    <path
       id="rect4127"
       style="fill:#ffffff;stroke-width:2.96971;paint-order:markers stroke fill;stop-color:#000000"
       d="M 71.044287,90.096824 V 79.359495 H 53.158041 l -1.281059,5.017783 0.167432,5.719546 z m -32.673457,0 -1.533239,-2.415355 -14.370698,-8.321974 H 3.351263 v 10.737329 z" />
    <path
       id="rect4129"
       style="fill:#ffffff;stroke-width:2.96971;paint-order:markers stroke fill;stop-color:#000000"
       d="m 71.044287,111.57097 v -10.73681 h -18.68568 l 0.313675,10.73681 z m -19.040697,0 -6.816122,-10.73681 H 3.351263 v 10.73681 z" />
    <path
       id="rect4131"
       style="fill:#ffffff;stroke-width:2.96972;paint-order:markers stroke fill;stop-color:#000000"
       d="M 71.04432,122.30817 H 3.351169 V 133.0453 H 71.04432 Z"
       sodipodi:nodetypes="ccccc" />
    <path
       style="fill:#000000;fill-opacity:0;stroke:#4e4e4e;stroke-width:2.25751;stroke-dasharray:none;stroke-opacity:1;paint-order:markers stroke fill;stop-color:#000000"
       d="m 46.082091,40.27811 11.59029,21.403061 -5.79518,22.696102 0.82786,28.298197 -15.86765,-24.994218 -22.07684,-12.784621 17.24749,-10.91706 z"
       id="path31039-1-8" />
  </g>
</svg>
