<?xml version="1.0" encoding="UTF-8" standalone="no"?>
<!-- Created with Inkscape (http://www.inkscape.org/) -->

<svg
   width="458.29663"
   height="571.33356"
   viewBox="0 0 121.25765 151.16533"
   version="1.1"
   id="svg1"
   inkscape:version="1.3.2 (1:1.3.2+202311252150+091e20ef0f)"
   sodipodi:docname="oil_tanker_ship_vault_ceiling.svg"
   xmlns:inkscape="http://www.inkscape.org/namespaces/inkscape"
   xmlns:sodipodi="http://sodipodi.sourceforge.net/DTD/sodipodi-0.dtd"
   xmlns="http://www.w3.org/2000/svg"
   xmlns:svg="http://www.w3.org/2000/svg">
  <sodipodi:namedview
     id="namedview1"
     pagecolor="#505050"
     bordercolor="#ffffff"
     borderopacity="1"
     inkscape:showpageshadow="0"
     inkscape:pageopacity="0"
     inkscape:pagecheckerboard="1"
     inkscape:deskcolor="#505050"
     inkscape:document-units="px"
     inkscape:zoom="2.1184484"
     inkscape:cx="168.75559"
     inkscape:cy="264.58044"
     inkscape:window-width="2560"
     inkscape:window-height="1368"
     inkscape:window-x="0"
     inkscape:window-y="0"
     inkscape:window-maximized="1"
     inkscape:current-layer="g5" />
  <defs
     id="defs1" />
  <g
     inkscape:label="Layer 1"
     inkscape:groupmode="layer"
     id="layer1"
     transform="translate(-4.4979268,-153.72291)">
    <g
       id="g5"
       style="stroke-width:1.07613"
       transform="matrix(0,0.11434595,-0.20517369,0,125.85576,153.65435)">
      <rect
         x="0.59960902"
         y="0.48828101"
         width="1322"
         height="591"
         fill="#313335"
         id="rect1"
         style="fill:#262626;fill-opacity:1;stroke-width:1.07613" />
      <g
         id="g4">
        <rect
           x="15.61628"
           y="12.134177"
           width="1291.9667"
           height="567.71234"
           fill="#4b4f53"
           id="rect2"
           style="fill:#4b4b4b;fill-opacity:1;stroke-width:1.0662" />
        <path
           d="M 146.10728,584.3028 11.157805,449.35371 V 405.91728 L 189.54372,584.3028 Z M 11.157805,275.23445 V 231.799 L 363.66199,584.3028 h -43.43544 z m 0,-217.552234 L 537.77828,584.3028 H 494.34284 L 11.157805,101.11825 Z M 135.26824,7.6737712 711.89755,584.3028 H 668.46111 L 91.831803,7.6737712 Z M 842.5774,584.3028 265.94809,7.6737712 h 43.43644 L 886.01384,584.3028 Z M 483.5028,7.6737712 1060.1281,584.3028 h -43.4354 L 440.06736,7.6737712 Z M 1190.811,584.3028 614.18365,7.6737712 h 43.43544 L 1234.2464,584.3028 Z M 831.73836,7.6737712 1312.0418,487.97698 v 43.43643 L 788.30192,7.6737712 Z m 174.11534,0 306.1881,306.1869088 v 43.43545 L 962.41821,7.6737712 Z m 174.1182,0 132.0699,132.0686388 v 43.43545 L 1136.5365,7.6737712 Z"
           fill="#6d7379"
           stroke="#313335"
           stroke-width="9.59575"
           id="path2"
           style="fill:#606060;fill-opacity:1;stroke:#262626;stroke-opacity:1" />
      </g>
    </g>
  </g>
</svg>
