<?xml version="1.0" encoding="UTF-8" standalone="no"?>
<svg
   id="Layer_1"
   data-name="Layer 1"
   viewBox="0 0 110.00001 110"
   version="1.1"
   sodipodi:docname="940_pro.svg"
   width="110"
   height="110"
   inkscape:version="1.1.2 (0a00cf5339, 2022-02-04)"
   xmlns:inkscape="http://www.inkscape.org/namespaces/inkscape"
   xmlns:sodipodi="http://sodipodi.sourceforge.net/DTD/sodipodi-0.dtd"
   xmlns="http://www.w3.org/2000/svg"
   xmlns:svg="http://www.w3.org/2000/svg">
  <sodipodi:namedview
     id="namedview117"
     pagecolor="#505050"
     bordercolor="#ffffff"
     borderopacity="1"
     inkscape:pageshadow="0"
     inkscape:pageopacity="0"
     inkscape:pagecheckerboard="1"
     showgrid="false"
     inkscape:zoom="4.3993094"
     inkscape:cx="114.56344"
     inkscape:cy="30.004709"
     inkscape:window-width="2560"
     inkscape:window-height="1372"
     inkscape:window-x="0"
     inkscape:window-y="0"
     inkscape:window-maximized="1"
     inkscape:current-layer="g1149" />
  <defs
     id="defs4">
    <style
       id="style2">
      .cls-1 {
        fill: #656669;
        stroke: #505154;
      }

      .cls-1, .cls-2, .cls-3, .cls-4, .cls-5, .cls-6, .cls-7, .cls-8, .cls-9, .cls-10, .cls-11, .cls-12, .cls-13, .cls-14, .cls-15, .cls-16, .cls-17, .cls-18 {
        stroke-miterlimit: 10;
      }

      .cls-1, .cls-4, .cls-5, .cls-6, .cls-7, .cls-8, .cls-9, .cls-10 {
        stroke-width: 2px;
      }

      .cls-2 {
        fill: #ff5405;
        stroke: #cc4304;
      }

      .cls-2, .cls-3, .cls-11, .cls-12, .cls-13, .cls-14, .cls-15, .cls-16, .cls-17, .cls-18 {
        stroke-width: 4px;
      }

      .cls-3 {
        fill: #6d3b1e;
        stroke: #522c17;
      }

      .cls-4, .cls-13 {
        fill: #555756;
      }

      .cls-4, .cls-13, .cls-16 {
        stroke: #434544;
      }

      .cls-5 {
        fill: #2a2827;
        stroke: #1f1d1c;
      }

      .cls-6 {
        fill: #57311b;
        stroke: #452715;
      }

      .cls-7 {
        fill: #262626;
        stroke: #1f1f1f;
      }

      .cls-8 {
        fill: #79777d;
        stroke: #646267;
      }

      .cls-9 {
        fill: #3c3838;
        stroke: #635d5d;
      }

      .cls-10 {
        fill: #5f6061;
        stroke: #4b4c4d;
      }

      .cls-11 {
        fill: #646562;
        stroke: #50514e;
      }

      .cls-12 {
        fill: #545154;
        stroke: #434043;
      }

      .cls-14 {
        fill: #4b4d4c;
        stroke: #3c3d3c;
      }

      .cls-15 {
        fill: #3e3a3d;
      }

      .cls-15, .cls-18 {
        stroke: #343033;
      }

      .cls-16, .cls-17, .cls-18 {
        fill: none;
      }

      .cls-17 {
        stroke: #4b545b;
      }
    </style>
  </defs>
  <g
     id="g1149">
    <g
       id="g1208"
       transform="matrix(0.09322931,-0.05382597,0.05382597,0.09322931,-4.4752074,78.794172)">
      <g
         id="Barrel_Hella_messy_"
         data-name="Barrel Hella messy ">
        <polygon
           class="cls-13"
           points="1108.23,9 1105.23,15.4 1093.73,15.4 1096.13,9 "
           id="polygon6" />
        <polygon
           class="cls-13"
           points="1156.63,9.7 1153.63,16.1 1142.23,16.1 1144.63,9.7 "
           id="polygon8" />
        <polygon
           class="cls-13"
           points="1201.13,9.7 1198.13,16 1186.73,16 1189.13,9.7 "
           id="polygon10" />
        <polygon
           class="cls-13"
           points="962.93,9.7 959.93,16.1 948.53,16.1 950.83,9.7 "
           id="polygon12" />
        <polygon
           class="cls-13"
           points="1011.43,10 1008.43,16.4 996.93,16.4 999.33,10 "
           id="polygon14" />
        <polygon
           class="cls-13"
           points="1055.83,10 1052.83,16.3 1041.43,16.3 1043.83,10 "
           id="polygon16" />
        <polygon
           class="cls-13"
           points="818.23,8.6 815.23,15 803.83,15 806.23,8.6 "
           id="polygon18" />
        <polygon
           class="cls-13"
           points="866.73,9.3 863.73,15.7 852.33,15.7 854.73,9.3 "
           id="polygon20" />
        <polygon
           class="cls-13"
           points="911.23,9.3 908.23,15.6 896.73,15.6 899.13,9.3 "
           id="polygon22" />
        <polygon
           class="cls-13"
           points="672.03,8.8 669.03,15.2 657.63,15.2 659.93,8.8 "
           id="polygon24" />
        <polygon
           class="cls-13"
           points="720.53,9.5 717.53,15.9 706.03,15.9 708.43,9.5 "
           id="polygon26" />
        <polygon
           class="cls-13"
           points="764.93,9.5 761.93,15.8 750.53,15.8 752.93,9.5 "
           id="polygon28" />
        <rect
           class="cls-2"
           x="1174.23"
           y="2"
           width="19"
           height="4.1999998"
           id="rect30" />
        <path
           class="cls-13"
           d="m 1006.43,15.4 h 198.8 c 0,0 5.6,3.9 1.4,16.9 l -676.7,0.3 v -21 h 2.8 c 0,0 156.5,5.1 260.8,4.4 104.3,-0.7 212.9,-0.6 212.9,-0.6 z"
           id="path32" />
        <rect
           class="cls-13"
           x="534.83002"
           y="6.1999998"
           width="669"
           height="4.1999998"
           id="rect34" />
      </g>
      <g
         id="Body">
        <path
           class="cls-14"
           d="m 513.73,61.9 c 0,0 -2.6,10 21.6,9.9 24.2,-0.1 33.7,0 33.7,0 V 59.1 Z"
           id="path37" />
        <path
           class="cls-18"
           d="m 95.63,163.9 1.9,4.3 c 0,0 1.3,2.8 -1.9,4.3 -3.2,1.5 -4.2,-1.6 -4.2,-1.6 l -1.9,-4.2 z"
           id="path39" />
        <path
           class="cls-14"
           d="m 439.73,64 c 1.9,0 57.5,1.5 67.5,5.6 0,0 0.1,0 0.1,-0.1 l -7,-13.2 v 0 l -59.8,3.5 v 0 l -0.8,4.2 c 0,-0.1 0,0 0,0 z"
           id="path41" />
        <path
           class="cls-18"
           d="m 823.93,49.9 h 4.7 c 0,0 3.1,0 3.1,3.5 0,3.5 -3.2,3.2 -3.2,3.2 h -4.6 z"
           id="path43" />
        <path
           class="cls-11"
           d="m 332.53,20.9 c 0,0 7.1,-16.7 30,-9 22.9,7.7 -30,9 -30,9 z"
           id="path45" />
        <polygon
           class="cls-15"
           points="810.83,67.2 810.83,40.4 799.53,40.4 799.53,66.5 801.73,67.2 "
           id="polygon47" />
        <path
           class="cls-15"
           d="m 821.83,38.6 c 0,0 4.2,-0.7 4.2,5.6 v 19.4 c 0,0 0.7,5.3 -7,5.3 h -8.5 V 38.6 Z"
           id="path49" />
        <path
           class="cls-4"
           d="m 360.63,66.3 c -1.8,3.9 -5.7,11.19 3.7,18.39 0,0 4.2,3.21 1.4,0.41 -2.8,-2.8 -11.3,-13.4 3.5,-20.4 12.3,-5.9 -1.3,-2 -6.2,-0.5 -1.1,0.3 -2,1.1 -2.4,2.1 z"
           id="path51" />
        <path
           class="cls-13"
           d="m 436.83,56.2 -93.1,4.9 c 0,0 5.6,0.7 5.6,12.7 0,12 9.9,17.6 9.9,17.6 h 31.5 c 0,0 12.2,-2.8 12.2,-10.6 v -7.6 l 15.5,-9.9 18.5,-1.1 z m -45.7,33.9 h -29 c -17.6,-9.9 -6.3,-27.5 -6.3,-27.5 l 37.4,0.7 c 0,0 7.6,5.8 9.2,13.4 1.7,8.6 -10.2,13.8 -11.3,13.4 z"
           id="path53" />
        <path
           class="cls-3"
           d="M 239.53,43.6 49.83,63.3 c 0,0 -4.9,0.7 -4.9,7.8 0,7.1 5.6,90.9 14.8,112.1 l 145.9,-67 c 0,0 5.2,-3 10.6,-0.7 4.9,2.1 7,4.9 7,4.9 l 33.8,9.2 c 0,0 7,2.1 8.5,-4.9 1.4,-7 14.1,-52.2 67,-58.5 l -12,-41.6 -55,22.6 c 0,-0.1 -13.3,6.9 -26,-3.6 z"
           id="path55" />
        <path
           class="cls-13"
           d="m 49.33,63.4 -33.3,5.5 c 0,0 -16.2,4.9 -13.4,27.5 2.8,22.6 9.2,79 9.2,79 0,0 0.9,18.7 16.9,16.2 16,-2.4 31,-8.5 31,-8.5 2.7,-0.4 -21.3,-110.7 -10.3,-119.6 0,0 0,-0.1 -0.1,-0.1 z"
           id="path57" />
        <path
           class="cls-3"
           d="m 529.93,23.8 v 44.4 h 29.3 c 0,0 11.7,0.7 11.7,3.6 h 229.7 c 0,0 2.1,0.7 2.8,-2.1 0.7,-2.8 5.7,-36.7 5.7,-36.7 0,0 -0.7,-1.4 -2.8,-2.1 -2.1,-0.7 -28.3,-4.2 -28.3,-4.2 0,0 -10.6,-1.5 -26.2,-1.5 -15.6,0 -221.9,-1.4 -221.9,-1.4 z"
           id="path59" />
        <path
           class="cls-13"
           d="m 320.53,24.5 c 0,0 9.9,39.5 12,41.6 0,0 12.5,-2.1 19.3,0 6.8,2.1 23,2.1 23,2.1 0,0 50.8,0 60.6,-2.1 0,0 1.4,-4.2 10.6,-4.2 9.2,0 83.9,1.4 83.9,1.4 V 6.4 h -149 z"
           id="path61" />
      </g>
      <g
         id="The_stick_thing"
         data-name="The stick thing">
        <path
           class="cls-5"
           d="m 442.53,24.5 h -36.6 c 0,0 -2.9,0 -2.9,2.1 0,2.1 2.8,2.1 2.8,2.1 l 40.1,0.2 c 0,0 -1.2,3.7 16.3,3.7 h 51.3 c 0,0 5,1.1 5,-5.3 V 11.7 c 0,0 0.2,-2.7 -2.7,-2.7 h -66 c 0,0 -7.4,1.5 -7.4,7.8 v 7.7 z"
           id="path64" />
        <path
           class="cls-10"
           d="m 466.53,16.8 h -15.5 c 0,0 -4.9,0 -4.9,4.9 v 3.2 c 0,0.3 -0.3,0.6 -0.6,0.6 l -1.9,0.1 c -0.3,0 -0.6,0.3 -0.6,0.6 v 2.2 c 0,0.3 0.3,0.6 0.6,0.6 h 1.7 c 0.3,0 0.5,0.2 0.6,0.5 0.1,1 1.1,4 24.2,4.2 29,0.3 42.6,-1 43.6,-1.1 h 0.1 c 0.5,0.1 5,0.6 5,-5.3 v -10 c 0,-0.3 -0.3,-0.6 -0.6,-0.6 z"
           id="path66" />
        <path
           class="cls-8"
           d="m 456.23,22.4 h 57.9 c 1.3,0 2.4,1.1 2.4,2.4 v 1.5 c 0,1.3 -1.1,2.4 -2.4,2.4 h -57.9 c -1.3,0 -2.4,-1.1 -2.4,-2.4 v -1.5 c 0,-1.3 1,-2.4 2.4,-2.4 z"
           id="path68" />
        <circle
           class="cls-12"
           cx="501.73001"
           cy="26.6"
           r="7.8000002"
           id="circle70" />
      </g>
      <g
         id="GARNISH">
        <path
           class="cls-1"
           d="m 495.43,42.8 c 0,0 -12.7,-6.3 -12.7,5.6 0,11.9 12.7,4.5 12.7,4.5 l 7.8,-0.3 c 0,0 4.2,4.2 7.8,0.7 V 42.5 c 0,0 -4.2,-2.5 -7,0.3 -0.2,0 -8.6,0 -8.6,0 z"
           id="path73" />
        <path
           class="cls-6"
           d="m 233.03,113.6 25.7,8.3 c 0,0 27.6,-65 67.1,-63.7 0,-0.1 -50.5,-7.1 -92.8,55.4 z"
           id="path75" />
        <path
           class="cls-6"
           d="m 231.73,107 c 0,0 13.1,-63 85.5,-72.6 l 6.9,18 c 0,0 -40.7,-9 -92.4,54.6 z"
           id="path77" />
        <path
           class="cls-6"
           d="m 565.13,39.6 c 0,0 6.3,15.1 5.9,22.9 0,0 150.4,-1.5 177,4.1 0,0 -158.1,-28.6 -182.9,-27 z"
           id="path79" />
        <path
           class="cls-6"
           d="m 748.83,55 c 0,0 -6.5,-15.1 -6.2,-22.8 0,0 -150.4,3.5 -177,-1.8 0.1,0 158.5,26.5 183.2,24.6 z"
           id="path81" />
        <circle
           class="cls-9"
           cx="410.13"
           cy="47.799999"
           r="2.8"
           id="circle83" />
        <circle
           class="cls-9"
           cx="367.13"
           cy="47.799999"
           r="2.8"
           id="circle85" />
        <path
           class="cls-17"
           d="m 41.43,64.7 c 0,0 -6.4,32.2 12.7,119.1"
           id="path87" />
        <path
           class="cls-17"
           d="m 29.93,66.9 c 0,0 -1.5,87.3 13.4,119.7"
           id="path89" />
        <path
           class="cls-7"
           d="m 15.33,167.3 9.4,-0.8 c 1,-0.1 1.9,0.7 2,1.7 v 0.5 c 0.1,1 -0.7,1.9 -1.7,2 l -9.4,0.8 c -1,0.1 -1.9,-0.7 -2,-1.7 v -0.5 c -0.1,-1 0.6,-2 1.7,-2 z"
           id="path91" />
        <path
           class="cls-7"
           d="m 14.13,157.7 9.4,-0.8 c 1,-0.1 1.9,0.7 2,1.7 v 0.5 c 0.1,1 -0.7,1.9 -1.7,2 l -9.4,0.8 c -1,0.1 -1.9,-0.7 -2,-1.7 v -0.5 c -0.1,-1 0.7,-1.9 1.7,-2 z"
           id="path93" />
        <path
           class="cls-7"
           d="m 12.53,148.4 9.4,-0.8 c 1,-0.1 1.9,0.7 2,1.7 v 0.5 c 0.1,1 -0.7,1.9 -1.7,2 l -9.4,0.8 c -1,0.1 -1.9,-0.7 -2,-1.7 v -0.5 c -0.1,-1 0.7,-1.9 1.7,-2 z"
           id="path95" />
        <path
           class="cls-7"
           d="m 11.43,138.8 9.4,-0.8 c 1,-0.1 1.9,0.7 2,1.7 v 0.5 c 0.1,1 -0.7,1.9 -1.7,2 l -9.4,0.8 c -1,0.1 -1.9,-0.7 -2,-1.7 v -0.5 c -0.1,-1 0.6,-1.9 1.7,-2 z"
           id="path97" />
        <path
           class="cls-7"
           d="m 9.63,129.3 9.4,-0.8 c 1,-0.1 1.9,0.7 2,1.7 v 0.3 c 0.1,1 -0.7,1.9 -1.7,2 l -9.4,0.8 c -1,0.1 -1.9,-0.7 -2,-1.7 v -0.3 c -0.1,-1 0.7,-1.9 1.7,-2 z"
           id="path99" />
        <path
           class="cls-7"
           d="m 8.53,120.2 9.4,-0.8 c 1,-0.1 1.9,0.7 2,1.7 v 0.3 c 0.1,1 -0.7,1.9 -1.7,2 l -9.3,0.8 c -1,0.1 -1.9,-0.7 -2,-1.7 v -0.3 c -0.2,-1 0.6,-1.9 1.6,-2 z"
           id="path101" />
        <path
           class="cls-7"
           d="m 6.93,111.4 9.4,-0.8 c 1,-0.1 1.9,0.7 2,1.7 v 0.3 c 0.1,1 -0.7,1.9 -1.7,2 l -9.4,0.8 c -1,0.1 -1.9,-0.7 -2,-1.7 v -0.3 c 0,-1 0.7,-1.9 1.7,-2 z"
           id="path103" />
        <path
           class="cls-7"
           d="m 5.83,102.4 9.4,-0.8 c 1,-0.1 1.9,0.7 2,1.7 v 0.3 c 0.1,1 -0.7,1.9 -1.7,2 l -9.4,0.8 c -1,0.1 -1.9,-0.7 -2,-1.7 v -0.3 c 0,-1 0.7,-1.9 1.7,-2 z"
           id="path105" />
        <path
           class="cls-7"
           d="m 4.73,93 9.4,-0.8 c 1,-0.1 1.9,0.7 2,1.7 v 0.5 c 0.1,1 -0.7,1.9 -1.7,2 l -9.4,0.8 c -1,0.1 -1.9,-0.7 -2,-1.7 V 95 c 0,-1 0.7,-1.9 1.7,-2 z"
           id="path107" />
        <path
           class="cls-7"
           d="m 3.63,83.4 9.4,-0.8 c 1,-0.1 1.9,0.7 2,1.7 v 0.5 c 0.1,1 -0.7,1.9 -1.7,2 l -9.4,0.8 c -1,0.1 -1.9,-0.7 -2,-1.7 v -0.5 c -0.1,-1 0.7,-1.9 1.7,-2 z"
           id="path109" />
        <path
           class="cls-16"
           d="M 49.03,63.5 15.73,69 c 0,0 -16.2,4.9 -13.4,27.5 2.8,22.6 9.2,79 9.2,79 0,0 0.9,18.7 16.9,16.2 16,-2.5 31,-8.5 31,-8.5 2.7,-0.4 -21.3,-110.7 -10.3,-119.6 0.1,0 0,-0.1 -0.1,-0.1 z"
           id="path111" />
        <circle
           class="cls-1"
           cx="489.73001"
           cy="48.5"
           r="2.8"
           id="circle113" />
      </g>
    </g>
  </g>
</svg>
