<?xml version="1.0" encoding="UTF-8" standalone="no"?>
<svg
   width="110"
   height="110"
   viewBox="0 0 110 110"
   fill="none"
   version="1.1"
   id="svg154"
   sodipodi:docname="ak47-icon.svg"
   inkscape:version="1.1.2 (0a00cf5339, 2022-02-04)"
   xmlns:inkscape="http://www.inkscape.org/namespaces/inkscape"
   xmlns:sodipodi="http://sodipodi.sourceforge.net/DTD/sodipodi-0.dtd"
   xmlns="http://www.w3.org/2000/svg"
   xmlns:svg="http://www.w3.org/2000/svg">
  <defs
     id="defs158" />
  <sodipodi:namedview
     id="namedview156"
     pagecolor="#505050"
     bordercolor="#ffffff"
     borderopacity="1"
     inkscape:pageshadow="0"
     inkscape:pageopacity="0"
     inkscape:pagecheckerboard="1"
     showgrid="false"
     width="763.789px"
     inkscape:zoom="4"
     inkscape:cx="18.75"
     inkscape:cy="35"
     inkscape:window-width="2560"
     inkscape:window-height="1372"
     inkscape:window-x="0"
     inkscape:window-y="0"
     inkscape:window-maximized="1"
     inkscape:current-layer="svg154" />
  <g
     id="g1051"
     transform="matrix(0.12472397,-0.07200943,0.07200943,0.12472397,-5.2884958,75.912833)">
    <path
       d="m 680.252,37.2822 h 14.453 V 16.0696 h -14.286 z"
       fill="#3a3a3a"
       stroke="#323232"
       stroke-width="4"
       id="path2" />
    <path
       d="m 680.19,45.0746 h 10.186 v -7.7924 h -10.124 z"
       fill="#333333"
       stroke="#323232"
       stroke-width="4"
       id="path4" />
    <path
       d="m 680.063,61.0923 h 10.313 V 45.0746 H 680.19 Z"
       fill="#3a3a3a"
       stroke="#323232"
       stroke-width="4"
       id="path6" />
    <path
       d="m 401.625,91.3961 6.71,-1.9481 1.082,5.6278 -7.792,-0.2164 z"
       fill="#252525"
       stroke="#323232"
       stroke-width="2"
       id="path8" />
    <path
       d="m 407.925,86.4703 c 4.772,37.5377 14.267,64.0507 29.492,88.2927 16.92,26.941 36.497,52.815 78.706,78.357 l 33.55,-50.651 c -25.758,-16.45 -40.94,-31.722 -53.248,-49.568 -12.484,-18.102 -22.216,-38.794 -26.999,-69.1136 z"
       fill="#2a2a2a"
       stroke="#323232"
       stroke-width="4"
       id="path10" />
    <path
       d="M 541.459,215.065 C 513.166,196.826 494.837,176.547 479.758,155.25 465.743,135.457 456.857,112.612 451.009,84.5909 l 18.395,-0.8025 c 4.773,30.4196 14.519,51.1586 27.028,69.2976 12.308,17.846 27.49,33.118 53.248,49.568 z"
       fill="#272727"
       stroke="#323232"
       stroke-width="2"
       id="path12" />
    <path
       d="m 329.639,89.8855 20.828,-0.9086 c -6.802,4.6272 -7.66,9.9624 -7.156,13.6751 0.506,3.722 1.602,7.359 10.694,10.606 1.731,0.619 0.865,3.246 -1.299,2.381 -10.635,-4.249 -13.719,-7.767 -14.07,-18.6151 -4.92,-0.571 -6.924,-2.2979 -8.997,-7.1384 z"
       fill="#333333"
       stroke="#323232"
       stroke-width="2"
       id="path14" />
    <path
       d="m 381.939,87.604 20.338,-0.8873 0.214,20.4803 c 0,2.598 -3.897,6.494 -6.494,6.494 h -10.823 c 0,4.329 -6.061,8.442 -8.875,8.442 l -39.611,1.298 c -4.978,0 -10.39,-6.06 -10.39,-8.658 l 0.214,-24.7511 2.384,-0.104 v 22.2581 c 0,3.896 4.762,8.225 8.441,8.225 l 38.313,-1.082 c 3.463,0 6.71,-3.68 6.71,-5.628 z"
       fill="#373737"
       stroke="#323232"
       stroke-width="2"
       id="path16" />
    <path
       d="M 18.7152,172.567 C 16.0751,133.843 12.493,112.52 2.04811,75.1619 c 0,0 -0.43295,-1.5152 1.2987,-3.0304 1.37329,-1.2016 4.5456,-1.5151 4.5456,-1.5151 0,0 68.18339,-10.3899 75.97579,-11.4722 8.0089,-1.1123 57.3608,-6.7101 61.4738,-6.7101 4.112,0 4.112,-0.7576 16.45,5.4114 13.204,3.0304 19.048,1.7316 19.048,1.7316 l 72.729,-9.9569 6.71,43.2911 -85.716,31.1697 c 0,0 -92.1663,34.067 -128.7909,46.754 -7.9063,2.739 -13.0179,3.604 -14.2861,3.896 -5.6278,1.299 -7.143,1.299 -7.143,1.299 0,0 -1.9481,0.217 -3.6797,-0.866 -1.7317,-1.082 -1.9481,-2.597 -1.9481,-2.597 z"
       fill="#775426"
       stroke="#332411"
       stroke-width="4"
       id="path18" />
    <path
       d="M 2.04811,75.1619 C 12.493,112.52 16.0751,133.843 18.7152,172.567 c 0,0 0.2164,1.515 1.9481,2.597 1.7316,1.083 3.6797,0.866 3.6797,0.866 0,0 0.0389,0 0.1273,-0.005 -0.3275,-11.157 -0.7034,-22.726 -0.9931,-28.134 -0.5375,-10.033 -3.1513,-25.851 -4.8951,-36.404 -0.363,-2.196 -0.6882,-4.164 -0.9492,-5.805 -1.0796,-6.7858 -6.5546,-25.1098 -9.61349,-35.085 -0.08399,0.0128 -0.127,0.0194 -0.127,0.0194 0,0 -3.17231,0.3135 -4.5456,1.5151 -1.73165,1.5152 -1.2987,3.0304 -1.2987,3.0304 z"
       fill="#3c3c3c"
       stroke="#323232"
       stroke-width="4"
       id="path20" />
    <path
       d="m 269.596,31.2215 -7.146,7.8145 -6.067,-0.455 5.412,-7.3595 z"
       fill="#404040"
       stroke="#323232"
       stroke-width="2"
       id="path22" />
    <path
       d="m 414.396,37.2822 h 83.551 v 10.3899 h -83.551 z"
       fill="#484848"
       stroke="#323232"
       stroke-width="2"
       id="path24" />
    <path
       d="m 491.887,39.8797 h 5.627 v 7.3595 h -5.627 z"
       fill="#333333"
       id="path26" />
    <path
       d="m 562.884,15.6367 h 3.463 v 23.8101 h -3.463 z"
       fill="#2a2a2a"
       id="path28" />
    <path
       d="M 694.705,17.3683 H 734.75 V 37.2822 H 694.705 Z"
       fill="#313131"
       stroke="#323232"
       stroke-width="4"
       id="path30" />
    <path
       d="m 734.75,17.3683 h -7.793 v 2.5975 h -32.252 v 5.6279 h 32.252 v 3.0303 h -32.252 v 5.6279 h 32.252 v 3.0303 h 7.793 z"
       fill="#353535"
       id="path32" />
    <path
       d="m 518.294,41.6113 h 6.061 v 42.8582 l -6.061,-3.0304 z"
       fill="#3b3b3b"
       stroke="#323232"
       stroke-width="4"
       id="path34" />
    <path
       d="m 566.347,13.0393 c 0,-2.1646 3.68,-3.0305 5.628,-1.7317 v 28.1392 h -5.628 z"
       fill="#3b3b3b"
       id="path36" />
    <path
       d="m 571.975,11.3076 h 1 v -0.5352 l -0.445,-0.2968 z m -5.628,4.3291 v 1 h 1 v -1 z m -3.463,0 v -1 h -1 v 1 z m 0,23.8101 h -1 v 1 h 1 z m 3.463,0 h 1 v -1 h -1 z m 0,0 h -1 v 1 h 1 z m 5.628,0 v 1 h 1 v -1 z m -4.628,-26.4075 c 0,-0.4085 0.357,-0.9236 1.352,-1.2014 0.956,-0.2668 2.046,-0.1483 2.721,0.3018 l 1.11,-1.6641 c -1.273,-0.84874 -2.997,-0.9467 -4.368,-0.56411 -1.331,0.37151 -2.815,1.37161 -2.815,3.12781 z m 0,2.5974 v -2.5974 h -2 v 2.5974 z m -4.463,1 h 3.463 v -2 h -3.463 z m 1,22.8101 V 15.6367 h -2 v 23.8101 z m 2.463,-1 h -3.463 v 2 h 3.463 z m 1,1 v 0 h -2 v 0 z m 4.628,-1 h -5.628 v 2 h 5.628 z m -1,-27.1392 v 28.1392 h 2 V 11.3076 Z"
       fill="#323232"
       id="path38" />
    <path
       d="m 414.396,37.2822 h 83.551 V 26.4595 H 423.92 c -0.433,0 -8.659,3.2468 -9.524,10.8227 z"
       fill="#4d4d4d"
       stroke="#323232"
       stroke-width="2"
       id="path40" />
    <path
       fill-rule="evenodd"
       clip-rule="evenodd"
       d="m 342.316,40.7455 72.08,-0.8658 v 7.7924 l -79.816,0.9668 z"
       fill="#202020"
       id="path42" />
    <path
       d="m 266.34,100.92 c 0,-1.2986 0.217,-3.2467 0.217,-3.2467 l 61.256,4.3287 c 0,0 -0.649,10.39 -0.649,11.256 0,0.866 -0.216,0.866 -1.299,1.948 -2.381,1.732 -1.948,1.299 -4.112,2.381 -1.948,1.515 -2.598,2.381 -3.464,3.896 -0.649,1.516 -27.057,50.434 -24.026,50.434 0,0 3.009,3.031 2.814,8.875 -0.195,5.844 -3.031,8.875 -3.031,8.875 0,0 -7.576,2.814 -16.234,3.247 -11.255,0.216 -16.234,-1.516 -16.234,-1.516 0,0 -6.061,-1.948 -8.442,-8.658 -2.381,-6.71 0,-15.585 0,-15.585 4.658,-12.109 14.622,-35.775 18.616,-46.321 0,0 0.865,-2.381 0.865,-4.113 0,0 0.217,-3.53 -2.814,-8.658 -3.03,-5.128 -3.463,-4.329 -3.463,-7.143 z"
       fill="#775426"
       id="path44" />
    <path
       d="m 266.557,97.6733 c 0,0 -0.217,1.9481 -0.217,3.2467 m 0.217,-3.2467 61.256,4.3287 c 0,0 -0.649,10.39 -0.649,11.256 0,0.866 -0.216,0.866 -1.299,1.948 -2.381,1.732 -1.948,1.299 -4.112,2.381 -1.948,1.515 -2.598,2.381 -3.464,3.896 -0.649,1.516 -27.057,50.434 -24.026,50.434 0,0 3.009,3.031 2.814,8.875 -0.195,5.844 -3.031,8.875 -3.031,8.875 0,0 -7.576,2.814 -16.234,3.247 -11.255,0.216 -16.234,-1.516 -16.234,-1.516 0,0 -6.061,-1.948 -8.442,-8.658 -2.381,-6.71 0,-15.585 0,-15.585 4.658,-12.109 14.622,-35.775 18.616,-46.321 0,0 0.865,-2.381 0.865,-4.113 0,0 0.217,-3.53 -2.814,-8.658 -3.03,-5.128 -3.463,-4.329 -3.463,-7.143 m 0.217,-3.2467 -0.217,3.2467"
       stroke="#332411"
       stroke-width="4"
       id="path46" />
    <path
       d="m 266.829,92.6255 61.501,-2.6829 -0.517,12.0594 -61.256,-4.3287 z"
       fill="#484848"
       stroke="#323232"
       stroke-width="4"
       id="path48" />
    <path
       d="m 260.279,92.9113 -6.71,-43.2911 160.827,-1.9481 83.551,0.2164 v -11.905 h 20.347 v 45.6721 l -116.153,5.0671 -2.897,4.024 -17.1,0.6494 -5.44,-3.5638 z"
       fill="#404040"
       stroke="#323232"
       stroke-width="4"
       id="path50" />
    <rect
       x="401.841"
       y="81.439102"
       width="5.62784"
       height="1.73164"
       fill="#393939"
       id="rect52" />
    <rect
       x="430.84601"
       y="63.131199"
       width="83.118896"
       height="16.4277"
       rx="3"
       transform="rotate(-2.6,430.846,63.1312)"
       fill="#363636"
       stroke="#323232"
       stroke-width="2"
       id="rect54" />
    <path
       d="m 501.821,243.875 8.214,-11.526 c 0.534,-0.748 0.36,-1.788 -0.389,-2.321 -0.749,-0.534 -1.788,-0.359 -2.321,0.389 l -8.229,11.546 c 0.896,0.637 1.804,1.275 2.725,1.912 z"
       fill="#2c2c2c"
       stroke="#323232"
       stroke-width="2"
       id="path56" />
    <path
       d="m 506.834,247.258 12.163,-17.066 c 0.605,-0.848 0.407,-2.027 -0.442,-2.632 -0.849,-0.605 -2.027,-0.408 -2.632,0.441 l -12.229,17.158 c 1.031,0.7 2.077,1.4 3.14,2.099 z"
       fill="#2c2c2c"
       stroke="#323232"
       stroke-width="2"
       id="path58" />
    <path
       d="m 529.054,206.484 c -1.101,-0.818 -2.186,-1.64 -3.255,-2.465 l 4.871,-6.834 c 0.654,-0.918 1.928,-1.131 2.846,-0.477 0.918,0.654 1.131,1.928 0.477,2.846 z"
       fill="#2a2a2a"
       stroke="#323232"
       stroke-width="2"
       id="path60" />
    <path
       d="m 534.236,210.216 4.419,-6.642 c 0.625,-0.938 1.891,-1.193 2.83,-0.569 0.938,0.625 1.192,1.891 0.568,2.83 l -4.451,6.69 c -1.138,-0.766 -2.26,-1.536 -3.366,-2.309 z"
       fill="#2a2a2a"
       stroke="#323232"
       stroke-width="2"
       id="path62" />
    <path
       d="m 512.462,250.869 7.954,-11.954 c 0.461,-0.694 0.273,-1.63 -0.421,-2.091 -0.693,-0.462 -1.629,-0.274 -2.091,0.42 l -7.992,12.012 c 0.841,0.538 1.691,1.076 2.55,1.613 z"
       fill="#2c2c2c"
       stroke="#323232"
       stroke-width="2"
       id="path64" />
    <circle
       cx="393.832"
       cy="105.899"
       r="3.24683"
       fill="#2d2d2d"
       id="circle66" />
    <path
       d="m 391.641,113.691 1.326,1.515 v 9.524 c 0,1.515 2.381,1.732 2.813,0 l 2.424,-11.743 c -0.763,0.439 -1.529,0.704 -2.207,0.704 z"
       fill="#2f2f2f"
       stroke="#323232"
       stroke-width="2"
       id="path68" />
    <path
       d="m 428.249,93.9935 c -0.763,-3.0304 -5.094,-1.9481 -4.546,0.4329 6.927,30.0876 16.158,52.3616 28.362,72.0796 12.267,19.818 28.133,38.313 51.727,57.794 2.381,1.966 5.307,-1.516 2.814,-3.68 -22.945,-19.914 -37.394,-37.277 -49.098,-55.846 -12.52,-19.864 -21.9,-41.559 -29.259,-70.7805 z"
       fill="#2f2f2f"
       stroke="#323232"
       stroke-width="2"
       id="path70" />
    <path
       d="m 438.037,92.8148 c -0.763,-3.0304 -5.094,-1.9481 -4.546,0.4329 6.927,30.0873 15.022,49.6443 27.226,69.3623 12.266,19.818 25.325,35.066 48.919,54.547 2.381,1.966 5.308,-1.516 2.814,-3.68 -22.944,-19.914 -34.834,-33.598 -46.538,-52.166 -12.521,-19.864 -20.515,-39.275 -27.875,-68.4962 z"
       fill="#2f2f2f"
       stroke="#323232"
       stroke-width="2"
       id="path72" />
    <path
       d="m 447.561,92.3819 c -0.763,-3.0303 -5.094,-1.948 -4.545,0.4329 5.796,29.3182 16.319,49.4272 28.524,69.1462 12.266,19.818 20.13,29.005 43.724,48.486 2.381,1.966 5.308,-1.516 2.814,-3.68 -22.945,-19.914 -29.639,-27.537 -41.343,-46.105 -12.521,-19.864 -21.814,-39.059 -29.174,-68.2801 z"
       fill="#2f2f2f"
       stroke="#323232"
       stroke-width="2"
       id="path74" />
    <path
       d="m 525.799,204.019 -14.979,21.016 c -0.654,0.918 -0.44,2.192 0.478,2.846 0.917,0.654 2.192,0.441 2.846,-0.477 l 14.91,-20.92 c -1.102,-0.818 -2.186,-1.64 -3.255,-2.465 z"
       fill="#2c2c2c"
       stroke="#323232"
       stroke-width="2"
       id="path76" />
    <path
       d="m 537.602,212.525 c -1.138,-0.766 -2.26,-1.536 -3.366,-2.309 l -14.525,21.832 c -0.624,0.938 -0.369,2.205 0.569,2.829 0.938,0.624 2.205,0.37 2.829,-0.569 z"
       fill="#2c2c2c"
       stroke="#323232"
       stroke-width="2"
       id="path78" />
    <path
       d="m 562.884,13.4722 h -68.833 v 7.7924 h 3.896 v 14.7189 h 20.347 v 5.6279 h 44.59 z"
       fill="#484848"
       id="path80" />
    <path
       d="m 516.563,13.4722 h -22.512 v 3.8962 l 18.182,-0.2165 c 2.598,-0.4329 3.897,-1.5152 4.33,-3.6797 z"
       fill="#383838"
       id="path82" />
    <path
       d="m 679.986,70.8328 c 0,1.9481 -5.844,4.3291 -7.576,2.5975 l 0.866,-62.3392 c 4.762,0 7.143,3.2469 7.143,4.9785 z"
       fill="#3b3b3b"
       stroke="#323232"
       stroke-width="4"
       id="path84" />
    <circle
       cx="700.98297"
       cy="22.996201"
       r="1.73164"
       fill="#262626"
       id="circle86" />
    <circle
       cx="709.20801"
       cy="22.996201"
       r="1.73164"
       fill="#262626"
       id="circle88" />
    <circle
       cx="717.43298"
       cy="22.996201"
       r="1.73164"
       fill="#262626"
       id="circle90" />
    <circle
       cx="725.65802"
       cy="22.996201"
       r="1.73164"
       fill="#262626"
       id="circle92" />
    <path
       d="M 845.142,46.3734 H 690.376 v 14.286 h 156.537 l -1.771,-2.1645 z"
       fill="#393939"
       stroke="#323232"
       stroke-width="4"
       id="path94" />
    <path
       d="m 873.619,61.982 7.022,-1.7555 v -0.8658 h 3.896 v 0.8658 H 888 V 44.2088 h -3.463 v 1.2987 h -3.896 v -1.2987 h -1.732 v -2.5975 h -4.762 v 16.8836 z"
       fill="#373737"
       stroke="#323232"
       stroke-width="2"
       id="path96" />
    <path
       d="m 680.007,68.2025 181.084,-1.8964 c -0.633,-0.6072 -1.259,-1.3342 -1.88,-2.1834 l -2.805,-1.2468 -176.371,1.847 z"
       fill="#383838"
       stroke="#323232"
       stroke-width="2"
       id="path98" />
    <path
       d="M 758.127,17.3683 H 734.75 v 19.9139 h 12.554 c 3.247,1.5152 4.762,4.5456 4.762,9.0912 V 62.824 c 0,3.3472 2.52,6.0607 5.628,6.0607 3.108,0 5.628,-2.7135 5.628,-6.0607 h 24.676 V 43.343 c 0,0 -11.905,0 -20.564,-9.7405 -8.658,-9.7405 -9.307,-16.2342 -9.307,-16.2342 z"
       fill="#3c3c3c"
       stroke="#323232"
       stroke-width="4"
       id="path100" />
    <path
       fill-rule="evenodd"
       clip-rule="evenodd"
       d="M 859.644,6.97846 845.142,42.4771 v 16.0178 l 1.948,2.381 6.277,0.6493 5.844,2.5975 c 4.113,5.6278 8.449,5.8869 13.854,1.5152 l 1.082,-7.143 V 8.92656 c 0,0 -1.299,-5.30316 -7.143,-6.2772 -5.844,-0.97405 -7.36,4.3291 -7.36,4.3291 z m -1.082,34.41644 h 9.957 c 1.732,0 2.165,-0.6494 2.165,-2.1646 v -5.4114 c 0,-3.4633 -0.866,-4.3291 -4.33,-4.3291 h -7.792 c -1.299,0 -5.411,2.1646 -5.411,5.9525 0,3.5716 4.112,5.9526 5.411,5.9526 z"
       fill="#3c3c3c"
       id="path102" />
    <path
       d="m 257.898,51.5683 0.217,-7.7924 23.161,-25.3253 c 1.592,-1.6498 2.664,-2.3368 4.978,-3.0304 L 494.051,14.338 v 6.9265 h 3.896 v 5.195 H 423.92 c -0.433,0 -8.659,3.2468 -9.524,10.8227 v 2.5975 l -72.08,0.8658 -10.606,10.8228 z"
       fill="#434343"
       id="path104" />
    <path
       d="m 494.051,13.4721 h 68.833 v 28.1392 h -44.59 v -5.6278 h -20.347 v -9.524 H 423.92 c -0.433,0 -8.659,3.2468 -9.524,10.8227 v 2.5975 l -72.08,0.8658 -10.606,10.8228 h -73.812 l 0.217,-7.7924 23.161,-25.3253 c 1.592,-1.6498 2.664,-2.3368 4.978,-3.0304 L 494.051,14.338 Z"
       stroke="#323232"
       stroke-width="4"
       id="path106" />
    <circle
       cx="865.70502"
       cy="21.481001"
       r="4.9784698"
       fill="#363636"
       id="circle108" />
    <path
       d="m 407.925,86.4703 c 0.126,0.9916 0.256,1.9755 0.388,2.9518 l 5.223,-0.1596 c 6.055,38.2815 17.607,65.9295 36.789,91.7465 11.964,16.102 25.76,33.117 48.055,50.001 1.964,1.731 3.896,-0.782 2.381,-2.165 -19.914,-15.152 -32.867,-30.38 -44.157,-44.806 -18.992,-26.978 -32.468,-54.98 -39.326,-94.8909 l 34.606,-1.0578 c 5.153,24.3017 12.729,40.1027 21.604,57.4197 10.469,17.504 25.542,37.014 47.404,54.763 2.381,1.933 5.195,-1.176 3.463,-2.814 -20.053,-18.968 -34.527,-34.053 -44.806,-50.867 -10.101,-16.521 -17.525,-38.565 -23.563,-62.2183 z"
       fill="#252525"
       stroke="#323232"
       stroke-width="2"
       id="path110" />
    <path
       d="m 455.319,84.4028 c 0.34,1.116 1.041,2.1304 2.151,2.4477 l 12.122,-0.4329 c 1.177,-0.1682 1.832,-1.3821 2.065,-2.7275 z"
       fill="#303030"
       stroke="#323232"
       stroke-width="2"
       id="path112" />
    <path
       d="m 562.884,13.4722 h -68.833 v 7.7924 h 3.896 v 14.7189 h 20.347 v 5.6279 h 44.59 z"
       stroke="#323232"
       stroke-width="2"
       id="path114" />
    <path
       d="m 333.008,54.8151 13.204,-9.9569 76.625,13.6366 -1.515,8.6583 -7.143,-0.433 -0.433,1.9481 -18.182,1.2988 -79.995,5.3056 c -0.522,0.0692 -1.055,0.1052 -1.595,0.1058 -0.005,0 -0.009,0 -0.014,0 -6.694,0 -12.121,-5.427 -12.121,-12.1215 0,-6.6946 5.427,-12.1215 12.121,-12.1215 0.926,0 1.828,0.1037 2.694,0.3003 z"
       fill="#393939"
       id="path116" />
    <path
       d="m 366.992,68.2354 1.732,2.381 32.684,-1.9481 -0.649,-10.1734 -53.248,-9.5241 -14.936,9.3076 -16.898,-3.0674 c -0.634,-0.1794 -1.128,-0.1794 -1.717,-0.1794 -4.542,0 -8.225,3.6826 -8.225,8.2253 0,4.5427 3.683,8.2253 8.225,8.2253 0.345,0 0.684,-0.0212 1.018,-0.0623 z"
       fill="#404040"
       stroke="#323232"
       stroke-width="2"
       id="path118" />
    <circle
       cx="313.95999"
       cy="63.256901"
       r="6.06075"
       fill="#4d4d4d"
       stroke="#323232"
       stroke-width="2"
       id="circle120" />
    <path
       d="m 413.963,70.8328 -0.217,-2.381 -18.615,0.2164 0.866,2.381 z"
       fill="#454545"
       id="path122" />
    <circle
       cx="407.46899"
       cy="63.6898"
       r="1.73164"
       fill="#2d2d2d"
       id="circle124" />
    <path
       d="m 346.212,44.8582 -13.204,9.9569 -16.354,-3.3794 c -0.866,-0.1966 -1.768,-0.3003 -2.694,-0.3003 -6.694,0 -12.121,5.4269 -12.121,12.1215 0,6.6945 5.427,12.1215 12.121,12.1215 h 0.014 c 0.54,-6e-4 1.073,-0.0366 1.595,-0.1058 l 79.995,-5.3056 0.038,-0.0028 0.395,1.0851 17.966,-0.2165 -0.203,-2.2274 0.419,-1.8853 7.143,0.433 1.515,-8.6583 z"
       stroke="#323232"
       stroke-width="2"
       id="path126" />
    <path
       d="m 524.355,41.6113 h 38.529 v -0.4329 h 14.286 l 1.732,2.1646 h 29.871 l 1.731,-2.1646 h 19.048 l 1.732,2.1646 h 26.84 l 1.732,-2.1646 h 12.987 l -0.433,32.2519 c 0,0.8658 -3.679,2.381 -6.06,2.381 -36.435,1.5531 -56.712,1.9481 -93.293,1.9481 0,0 -13.853,2.1645 -20.13,4.6215 -0.867,0.3393 -2,0.854 -3.288,1.4388 -4.015,1.8236 -9.533,4.3295 -13.163,4.3295 -5.627,0 -8.168,-1.2638 -12.121,-3.6797 z"
       fill="#775426"
       stroke="#332411"
       stroke-width="4"
       id="path128" />
    <path
       d="m 571.975,9.57593 101.301,1.51517 -0.382,27.4898 h -13.038 l -1.732,-2.5974 h -26.84 l -1.732,2.5974 h -19.048 l -1.731,-2.5974 h -29.871 l -1.732,2.5974 h -5.195 z"
       fill="#775426"
       stroke="#332411"
       stroke-width="4"
       id="path130" />
    <path
       fill-rule="evenodd"
       clip-rule="evenodd"
       d="M 859.644,6.97846 845.142,42.4771 v 16.0178 l 1.948,2.381 6.277,0.6493 5.844,2.5975 c 4.113,5.6278 8.449,5.8869 13.854,1.5152 l 1.082,-7.143 V 8.92656 c 0,0 -1.299,-5.30316 -7.143,-6.2772 -5.844,-0.97405 -7.36,4.3291 -7.36,4.3291 z"
       stroke="#323232"
       stroke-width="4"
       id="path132" />
    <path
       fill-rule="evenodd"
       clip-rule="evenodd"
       d="m 858.562,41.3949 h 9.957 c 1.732,0 2.165,-0.6494 2.165,-2.1645 V 33.819 c 0,-3.4633 -0.866,-4.3291 -4.33,-4.3291 h -7.792 c -1.299,0 -5.411,2.1645 -5.411,5.9525 0,3.5715 4.112,5.9525 5.411,5.9525 z"
       stroke="#323232"
       stroke-width="2"
       id="path134" />
    <path
       d="m 545.766,6.54556 h 4.347 V 4.81392 h 8.225 c 1.949,0 4.113,2.38101 4.113,4.11265 v 4.54553 h -56.062 l 2.381,-2.1645 17.966,-0.8658 3.03,-3.89624 h 8.243 c 0.565,-1.76547 2.088,-3.03037 3.879,-3.03037 1.791,0 3.314,1.2649 3.878,3.03037 z"
       fill="#505050"
       id="path136" />
    <path
       d="M 529.766,6.54556 H 497.082 V 3.9481 L 492.536,2 l 0.433,7.57594 1.299,0.86586 h 32.468 z"
       fill="#484848"
       id="path138" />
    <path
       d="m 512.233,8.71012 c 0,2.39088 -1.938,4.32908 -4.329,4.32908 -2.391,0 -4.329,-1.9382 -4.329,-4.32908 0,-2.3909 1.938,-4.32911 4.329,-4.32911 2.391,0 4.329,1.93821 4.329,4.32911 z"
       fill="#424242"
       id="path140" />
    <path
       fill-rule="evenodd"
       clip-rule="evenodd"
       d="m 504.154,6.54556 h -7.072 V 3.9481 L 492.536,2 l 0.433,7.57594 1.299,0.86586 h 9.667 c 0.548,1.2542 1.674,2.1986 3.04,2.4975 l -0.586,0.5328 h 56.062 V 8.92657 c 0,-1.73164 -2.164,-4.11265 -4.113,-4.11265 h -8.225 v 1.73164 h -4.347 c -0.564,-1.76547 -2.087,-3.03037 -3.878,-3.03037 -1.791,0 -3.314,1.2649 -3.879,3.03037 h -26.355 c -0.748,-1.29397 -2.147,-2.16455 -3.75,-2.16455 -1.602,0 -3.001,0.87058 -3.75,2.16455 z m 7.719,3.89624 c -0.113,0.2596 -0.251,0.506 -0.411,0.7361 l 15.274,-0.7361 z"
       stroke="#323232"
       stroke-width="2"
       id="path142" />
    <path
       d="m 544.269,9.57594 c 0,1.91276 -1.066,3.46326 -2.381,3.46326 -1.315,0 -2.381,-1.5505 -2.381,-3.46326 0,-1.91272 1.066,-3.46329 2.381,-3.46329 1.315,0 2.381,1.55057 2.381,3.46329 z"
       fill="#484848"
       id="path144" />
    <path
       d="m 558.988,19.2742 c 1.765,-0.624 3.03,-2.3077 3.03,-4.2869 0,-2.5104 -2.035,-4.5455 -4.545,-4.5455 -0.87,0 -1.683,0.2443 -2.374,0.668 l -15.159,9.2889 -1.732,-1.7316 -6.71,3.8962 0.433,2.5974 c 0.433,2.814 1.732,4.3291 4.978,4.9785 z"
       fill="#4d4d4d"
       id="path146" />
    <path
       d="m 561.585,14.9873 c 0,2.2713 -1.841,4.1126 -4.112,4.1126 -2.272,0 -4.113,-1.8413 -4.113,-4.1126 0,-2.2714 1.841,-4.1127 4.113,-4.1127 2.271,0 4.112,1.8413 4.112,4.1127 z"
       fill="#424242"
       id="path148" />
    <path
       d="m 531.963,25.3573 7.977,-4.9586 -1.732,-1.7316 -6.71,3.8962 0.433,2.5974 c 0.01,0.0662 0.021,0.1318 0.032,0.1966 z"
       fill="#575757"
       id="path150" />
    <path
       d="m 558.988,19.2742 c 1.765,-0.624 3.03,-2.3077 3.03,-4.2869 0,-2.5104 -2.035,-4.5455 -4.545,-4.5455 -0.87,0 -1.683,0.2443 -2.374,0.668 l -15.159,9.2889 -1.732,-1.7316 -6.71,3.8962 0.433,2.5974 c 0.433,2.814 1.732,4.3291 4.978,4.9785 z"
       stroke="#323232"
       stroke-width="2"
       id="path152" />
  </g>
</svg>
