<?xml version="1.0" encoding="UTF-8" standalone="no"?>
<svg
   version="1.1"
   width="215.127"
   height="24"
   style="clip-rule:evenodd;fill-rule:evenodd;image-rendering:optimizeQuality;shape-rendering:geometricPrecision;text-rendering:geometricPrecision"
   id="svg50"
   sodipodi:docname="m3k-world.svg"
   inkscape:version="1.1.2 (0a00cf5339, 2022-02-04)"
   xmlns:inkscape="http://www.inkscape.org/namespaces/inkscape"
   xmlns:sodipodi="http://sodipodi.sourceforge.net/DTD/sodipodi-0.dtd"
   xmlns="http://www.w3.org/2000/svg"
   xmlns:svg="http://www.w3.org/2000/svg">
  <defs
     id="defs54" />
  <sodipodi:namedview
     id="namedview52"
     pagecolor="#505050"
     bordercolor="#ffffff"
     borderopacity="1"
     inkscape:pageshadow="0"
     inkscape:pageopacity="0"
     inkscape:pagecheckerboard="1"
     showgrid="false"
     inkscape:zoom="1"
     inkscape:cx="746"
     inkscape:cy="189"
     inkscape:window-width="2560"
     inkscape:window-height="1372"
     inkscape:window-x="0"
     inkscape:window-y="0"
     inkscape:window-maximized="1"
     inkscape:current-layer="svg50" />
  <g
     id="g994"
     transform="matrix(0,0.14545455,-0.14545455,0,215.05455,0.07272727)">
    <g
       id="g4">
      <path
         style="opacity:0.988"
         fill="#000000"
         d="m 46.5,-0.5 c 8,0 16,0 24,0 0,16 0,32 0,48 5.577,-0.1294 9.7437,2.204 12.5,7 0.1667,113.001 0.6667,226.001 1.5,339 11.1038,7.97 21.937,16.303 32.5,25 0.985,1.866 1.485,3.866 1.5,6 -0.825,113.322 -1.325,226.656 -1.5,340 -4.288,5.409 -9.788,9.242 -16.5,11.5 5.817,0.15 9.65,2.984 11.5,8.5 0.5,19.997 0.667,39.997 0.5,60 1.788,0.285 3.455,-0.048 5,-1 1.148,-1.649 2.481,-3.149 4,-4.5 13.329,-0.5 26.663,-0.667 40,-0.5 0,6.667 0,13.333 0,20 -13.004,0.167 -26.004,0 -39,-0.5 -3.034,-1.191 -4.701,-3.358 -5,-6.5 -1.667,0 -3.333,0 -5,0 0.167,72.001 0,144.001 -0.5,216 -3.844,6 -9.344,8.33 -16.5,7 0,28.33 0,56.67 0,85 5.93,0.7 11.097,3.03 15.5,7 0.177,95.84 0.677,191.68 1.5,287.5 -3.908,14.41 -13.2413,22.58 -28,24.5 -17,0 -34,0 -51,0 -12.5356,-1.36 -21.7023,-7.69 -27.5,-19 -0.66667,-97 -0.66667,-194 0,-291 1.12173,-2.12 2.62173,-3.96 4.5,-5.5 3.9299,-1.48 7.9299,-2.64 12,-3.5 0,-28.33 0,-56.67 0,-85 -4.1049,0.27 -8.1049,-0.23 -12,-1.5 -2.22615,-1.23 -3.72615,-3.06 -4.5,-5.5 -0.66667,-94.333 -0.66667,-188.667 0,-283 1.72347,-5.618 5.5568,-8.451 11.5,-8.5 -4.6667,-2.333 -9.33333,-4.667 -14,-7 C 2.78937,767.745 1.95604,766.579 1,765.5 0.833082,653.333 0.333082,541.333 -0.5,429.5 c 0,-3 0,-6 0,-9 10.6654,-9.646 21.9988,-18.646 34,-27 0.8333,-112.999 1.3333,-225.999 1.5,-339 2.2151,-5.023 6.0484,-7.3563 11.5,-7 0,-16 0,-32 0,-48 z"
         id="path2" />
    </g>
    <g
       id="g8">
      <path
         style="opacity:1"
         fill="#373c3e"
         d="m 55.5,67.5 c 2.3333,0 4.6667,0 7,0 0,236.333 0,472.667 0,709 -2.3333,0 -4.6667,0 -7,0 0,-236.333 0,-472.667 0,-709 z"
         id="path6" />
    </g>
    <g
       id="g12">
      <path
         style="opacity:1"
         fill="#171819"
         d="m 33.5,419.5 c 0.06,-0.543 0.3933,-0.876 1,-1 1.3333,114.333 1.3333,228.667 0,343 -0.6067,-0.124 -0.94,-0.457 -1,-1 1.3333,-113.667 1.3333,-227.333 0,-341 z"
         id="path10" />
    </g>
    <g
       id="g16">
      <path
         style="opacity:1"
         fill="#464a4d"
         d="m 33.5,419.5 c 1.3333,113.667 1.3333,227.333 0,341 -3.8853,-1.86 -7.7186,-3.86 -11.5,-6 -0.6667,-108.667 -0.6667,-217.333 0,-326 3.7088,-3.215 7.5421,-6.215 11.5,-9 z"
         id="path14" />
    </g>
    <g
       id="g20">
      <path
         style="opacity:1"
         fill="#464a4d"
         d="m 83.5,419.5 c 4.4021,2.623 8.5688,5.623 12.5,9 0.6667,108.667 0.6667,217.333 0,326 -3.7546,2.128 -7.5879,4.128 -11.5,6 -1,-113.665 -1.3333,-227.331 -1,-341 z"
         id="path18" />
    </g>
    <g
       id="g24">
      <path
         style="opacity:1"
         fill="#464a4d"
         d="m 38.5,797.5 c -0.1667,72.334 0,144.667 0.5,217 1.3333,1.33 2.6667,1.33 4,0 0.5,-72.333 0.6667,-144.666 0.5,-217 10.3333,0 20.6667,0 31,0 -0.1667,72.334 0,144.667 0.5,217 1.3333,1.33 2.6667,1.33 4,0 0.5,-72.333 0.6667,-144.666 0.5,-217 4,0 8,0 12,0 0,83.333 0,166.667 0,250 -3.9483,-8.56 -8.4483,-16.89 -13.5,-25 -13.9978,-13.93 -27.3312,-13.26 -40,2 -3.9422,7.69 -7.7755,15.36 -11.5,23 0,-83.333 0,-166.667 0,-250 4,0 8,0 12,0 z"
         id="path22" />
    </g>
    <g
       id="g28">
      <path
         style="opacity:1"
         fill="#2b2c2e"
         d="m 38.5,797.5 c 1.6667,0 3.3333,0 5,0 0.1667,72.334 0,144.667 -0.5,217 -1.3333,1.33 -2.6667,1.33 -4,0 -0.5,-72.333 -0.6667,-144.666 -0.5,-217 z"
         id="path26" />
    </g>
    <g
       id="g32">
      <path
         style="opacity:1"
         fill="#2a2c2d"
         d="m 74.5,797.5 c 1.6667,0 3.3333,0 5,0 0.1667,72.334 0,144.667 -0.5,217 -1.3333,1.33 -2.6667,1.33 -4,0 -0.5,-72.333 -0.6667,-144.666 -0.5,-217 z"
         id="path30" />
    </g>
    <g
       id="g36">
      <path
         style="opacity:0.874"
         fill="#2c69a2"
         d="m 161.5,838.5 c 1,0 2,0 3,0 0,6.667 0,13.333 0,20 -1,0 -2,0 -3,0 0,-6.667 0,-13.333 0,-20 z"
         id="path34" />
    </g>
    <g
       id="g40">
      <path
         style="opacity:1"
         fill="#2b2c2e"
         d="m 91.5,1047.5 c 0,2 0,4 0,6 -21.6667,0 -43.3333,0 -65,0 0,-2 0,-4 0,-6 3.7245,-7.64 7.5578,-15.31 11.5,-23 12.6688,-15.26 26.0022,-15.93 40,-2 5.0517,8.11 9.5517,16.44 13.5,25 z"
         id="path38" />
    </g>
    <g
       id="g44">
      <path
         style="opacity:1"
         fill="#3e4243"
         d="m 42.5,1074.5 c 11,0 22,0 33,0 0,31.33 0,62.67 0,94 -11,0 -22,0 -33,0 0,-31.33 0,-62.67 0,-94 z"
         id="path42" />
    </g>
    <g
       id="g48">
      <path
         style="opacity:1"
         fill="#48494b"
         d="m 26.5,1188.5 c 21.6667,0 43.3333,0 65,0 0.1667,88 0,176 -0.5,264 -1.6374,2.31 -3.804,3.81 -6.5,4.5 -17,0.67 -34,0.67 -51,0 -2.3987,-0.73 -4.5653,-1.9 -6.5,-3.5 -0.5,-88.33 -0.6667,-176.67 -0.5,-265 z"
         id="path46" />
    </g>
  </g>
</svg>
