<?xml version="1.0" encoding="UTF-8" standalone="no"?>
<svg
   width="110"
   height="110"
   viewBox="0 0 110 110"
   fill="none"
   version="1.1"
   id="svg157"
   sodipodi:docname="M3K.svg"
   inkscape:version="1.1.2 (0a00cf5339, 2022-02-04)"
   xmlns:inkscape="http://www.inkscape.org/namespaces/inkscape"
   xmlns:sodipodi="http://sodipodi.sourceforge.net/DTD/sodipodi-0.dtd"
   xmlns="http://www.w3.org/2000/svg"
   xmlns:svg="http://www.w3.org/2000/svg">
  <sodipodi:namedview
     id="namedview159"
     pagecolor="#505050"
     bordercolor="#ffffff"
     borderopacity="1"
     inkscape:pageshadow="0"
     inkscape:pageopacity="0"
     inkscape:pagecheckerboard="1"
     showgrid="false"
     inkscape:zoom="8.8291874"
     inkscape:cx="86.64444"
     inkscape:cy="49.834711"
     inkscape:window-width="2560"
     inkscape:window-height="1372"
     inkscape:window-x="0"
     inkscape:window-y="0"
     inkscape:window-maximized="1"
     inkscape:current-layer="svg157" />
  <g
     id="g1050"
     transform="matrix(0.09136409,-0.05274908,0.05274908,0.09136409,-3.7745217,76.951411)">
    <rect
       x="1113.54"
       y="2.7123101"
       width="9.3988304"
       height="2.34971"
       fill="#a23e2b"
       id="rect2" />
    <path
       d="m 1117.65,1.53745 h -2.35 v 4.11198 h -0.59 v 0.48424 l 7.05,0.0375 V 5.64943 h -0.59 V 1.53745 h -2.35 v 4.11198 h -1.17 z"
       fill="#323539"
       id="path4" />
    <path
       d="m 373.914,67.9083 c -9.173,-0.1622 -12.35,3.246 -13.165,4.1203 -0.908,0.9077 -1.539,1.7574 -1.976,2.5708 0.825,-0.2254 1.605,-0.2288 2.27,-0.2211 1.269,0.0149 3.067,0.9363 2.643,2.6435 -1.193,5.6702 0.021,8.3475 2.937,12.9233 0.375,0.5875 1.531,0.1002 1.175,-0.8811 -3.312,-9.1435 -1.629,-14.0508 6.116,-21.1557 z"
       fill="#292b2c"
       id="path6" />
    <path
       d="m 373.914,67.9083 c -9.173,-0.1622 -12.35,3.246 -13.165,4.1203 -0.908,0.9077 -1.539,1.7574 -1.976,2.5708 0.825,-0.2254 1.605,-0.2288 2.27,-0.2211 1.269,0.0149 3.067,0.9363 2.643,2.6435 -1.193,5.6702 0.021,8.3475 2.937,12.9233 0.375,0.5875 1.531,0.1002 1.175,-0.8811 -3.312,-9.1435 -1.629,-14.0508 6.116,-21.1557 z"
       stroke="#2e3133"
       stroke-width="2"
       id="path8" />
    <path
       d="m 550.782,60.2801 c -23.477,-0.2874 -44.247,-0.1376 -63.776,0.0032 -18.504,0.1335 -35.894,0.2589 -53.416,-0.0032 -22.257,0 -42.553,-1.1895 -65.575,-2.5388 -8.832,-0.5176 -18.065,-1.0587 -27.964,-1.5652 l 2.194,8.5097 c 30.986,2.0294 48.347,2.7502 79.303,3.8182 1.762,0 2.334,1.1623 2.643,2.6435 9.642,-0.644 15.274,-1.1056 24.672,-3.2345 2.759,-3.0567 4.508,-4.9931 8.224,-4.9931 l 47.288,-0.2901 11.161,-1.7623 c 2.641,-0.4883 4.993,-0.8811 7.049,0.2937 l 15.861,10.8674 h 12.336 z"
       fill="#424548"
       id="path10" />
    <path
       d="m 403.337,25.622 c -1.946,0 -3.524,1.578 -3.524,3.5245 0,1.9466 1.578,3.5246 3.524,3.5246 h 55.219 c 0,0.2937 0,0.4406 0.073,0.514 0.073,0.0734 0.22,0.0734 0.514,0.0734 h 74.016 c 3.818,0 6.461,-4.112 6.461,-6.4617 V 15.6357 h 11.162 l -0.001,44.6444 c -23.476,-0.2873 -44.246,-0.1376 -63.775,0.0032 -18.504,0.1335 -35.894,0.2589 -53.416,-0.0032 -22.257,0 -42.553,-1.1895 -65.575,-2.5388 -8.831,-0.5176 -18.065,-1.0587 -27.964,-1.5652 v 0 l -7.498,-29.0856 30.839,-11.4548 h 98.688 c -1.229,1.7361 -2.632,3.8591 -3.524,6.4617 -0.773,2.1479 -1.469,3.5246 -3.525,3.5246 z"
       fill="#45484b"
       id="path12" />
    <path
       fill-rule="evenodd"
       clip-rule="evenodd"
       d="M 421.548,68.5041 C 391.864,67.48 374.681,66.7751 345.999,64.9295 l 8.288,19.4351 c 1.805,3.9847 5.78,6.8694 7.637,7.9303 6.168,3.5245 12.188,5.2867 21.735,6.7554 3.818,0.5874 7.636,0.5874 11.748,-0.8812 L 419.492,80.84 c 8.382,-5.694 13.409,-8.2506 22.954,-11.6222 -6.022,1.0644 -11.005,1.4455 -18.255,1.9297 -0.309,-1.4812 -0.881,-2.6434 -2.643,-2.6434 z m -60.799,3.5245 c 0.825,-0.8851 4.071,-4.3677 13.511,-4.1125 10.032,0.2711 18.504,2.817 18.797,2.9373 6.756,2.7667 7.931,6.1687 7.931,10.8678 0,6.1962 -3.403,11.2981 -9.693,13.2166 -4.571,1.3944 -10.867,0.5876 -17.623,-0.8811 -5.167,-1.1234 -8.811,-2.3496 -11.748,-4.993 -2.787,-2.5083 -4.112,-5.8984 -4.112,-8.5174 -0.011,-2.7594 -0.316,-5.267 2.937,-8.5177 0.035,-0.0346 -0.052,0.0556 0,0 z"
       fill="#3c3f41"
       id="path14" />
    <path
       d="m 360.749,72.0286 c 0.825,-0.8851 4.071,-4.3677 13.511,-4.1125 10.032,0.2711 18.504,2.817 18.797,2.9372 6.756,2.7668 7.931,6.1688 7.931,10.8679 0,6.1962 -3.403,11.2981 -9.693,13.2166 -4.571,1.3944 -10.867,0.5876 -17.623,-0.8811 -5.167,-1.1234 -8.811,-2.3496 -11.748,-4.993 -2.787,-2.5083 -4.112,-5.8984 -4.112,-8.5174 -0.011,-2.7594 -0.316,-5.267 2.937,-8.5177 z m 0,0 c -0.052,0.0556 0.035,-0.0346 0,0 z"
       stroke="#2e3133"
       stroke-width="2"
       id="path16" />
    <path
       d="m 352.231,75.5532 -3.818,-8.224 2.35,-2.6434 7.049,0.5874 1.762,3.5246 -4.406,6.7554 z"
       fill="#353839"
       id="path18" />
    <path
       d="m 330.497,15.6357 2.056,11.4548 9.692,37.5953 c 0,0 -9.332,-0.2811 -19.679,0.2938 -10.573,0.5874 -18.21,2.6434 -26.14,9.6925 -7.6,6.7554 -11.645,14.6622 -14.099,22.9096 -3.679,12.3713 -3.524,23.7913 -3.524,23.7913 0,1.174 -1.762,2.643 -3.525,2.643 l -44.057,-4.993 c -1.592,-0.199 -1.701,-0.533 -1.971,-1.368 -0.129,-0.397 -0.294,-0.907 -0.672,-1.569 -1.326,-2.32 -2.845,-3.334 -4.406,-3.819 -1.608,-0.5 -3.394,-0.641 -6.168,0.588 l -98.513,40.974 1.294,-1.91 -10.867,1.762 c -1.762,0.294 -2.644,0.587 -3.525,2.056 l -1.762,3.231 1.106,0.582 -53.6808,22.327 -25.553,9.693 c -2.6435,0.881 -7.0492,-0.881 -7.6366,-4.699 C 13.9769,152.528 10.6427,130.478 5.64957,100.813 5.33707,98.9348 5.00054,97.043 4.65841,95.1196 3.73377,89.9215 2.76817,84.4932 2.12495,78.4904 1.20444,69.8998 5.35599,63.9005 15.0484,62.3361 43.6521,57.7196 60.0353,56.4294 88.7705,54.3266 L 230.928,38.2516 c 4.101,-0.3808 6.076,-0.0149 8.811,2.056 l 4.406,3.2309 c 4.112,2.3497 7.93,2.9854 17.329,0 29.156,-9.2612 44.212,-15.4119 69.023,-27.9028 z"
       fill="#484a4b"
       id="path20" />
    <path
       d="m 330.497,15.6357 2.056,11.4548 30.839,-11.4548 V 3.00601 Z"
       fill="#4c5053"
       stroke="#2e3133"
       stroke-width="2"
       id="path22" />
    <path
       d="m 234.452,111.68 34.365,3.525 c 0,0 -2.258,-23.5383 16.741,-41.1203 19,-17.5821 46.113,-14.9794 47.582,-15.5669 l -7.049,-26.7279 -1.469,-8.5177 -65.204,25.5531 c -5.581,2.3497 -16.448,10.28 -21.441,17.0354 l -20.266,28.1965 c 8.811,4.1119 12.775,7.9258 16.741,17.6228 z"
       fill="#404344"
       id="path24" />
    <path
       d="m 74.7321,55.3746 v 1.7703 l 1.9961,7.5409 c 0.275,0.8198 0.6075,0.9924 1.4686,0.8811 L 199.5,52.0561 c 1.542,-0.2586 2.202,-0.506 2.938,-1.1748 L 212.539,40.331 88.7705,54.3266 c -5.0118,0.3667 -9.6477,0.7087 -14.0384,1.048 z"
       fill="#464849"
       stroke="#313233"
       stroke-width="4"
       id="path26" />
    <path
       d="m 52.2079,181.814 -0.1517,0.063 -25.553,9.693 c -2.6435,0.881 -7.0492,-0.881 -7.6366,-4.699 C 13.9769,152.528 10.6427,130.478 5.64957,100.813 5.33707,98.9349 5.00054,97.043 4.65841,95.1196 3.73377,89.9216 2.76817,84.4932 2.12495,78.4904 1.20444,69.8999 5.35599,63.9005 15.0484,62.3362 c 6.2652,-1.0112 11.9442,-1.8628 17.295,-2.5983 -0.0774,0.0794 -0.1539,0.1578 -0.2295,0.2352 -1.6419,1.6811 -2.8511,2.9192 -2.6735,5.3002 3.2397,43.4297 7.1491,67.5597 18.5039,110.1427 0.7047,2.642 2.1561,4.469 4.2636,6.398 z"
       fill="#464749"
       stroke="#313233"
       stroke-width="4"
       id="path28" />
    <path
       fill-rule="evenodd"
       clip-rule="evenodd"
       d="m 120.785,151.919 -6.168,9.105 c -0.881,1.175 -2.937,1.468 -4.405,0.881 l -5.581,-2.937 1.762,-3.231 c 0.881,-1.469 1.763,-1.762 3.525,-2.056 z m -8.958,9.105 c 1.217,0 2.203,-0.986 2.203,-2.203 0,-1.217 -0.986,-2.203 -2.203,-2.203 -1.217,0 -2.203,0.986 -2.203,2.203 0,1.217 0.986,2.203 2.203,2.203 z"
       fill="#424446"
       id="path30" />
    <path
       d="m 120.785,151.919 -6.168,9.105 c -0.881,1.175 -2.937,1.468 -4.405,0.881 l -5.581,-2.937 1.762,-3.231 c 0.881,-1.469 1.763,-1.762 3.525,-2.056 z"
       stroke="#313233"
       stroke-width="2"
       id="path32" />
    <path
       d="m 23.5692,191.614 c -2.1631,-0.52 -4.3054,-2.162 -4.7026,-4.743 C 13.977,152.527 10.6427,130.478 5.64959,100.813 5.33708,98.9348 5.00056,97.0429 4.65843,95.1196 4.54822,94.5 4.43744,93.8772 4.32669,93.2506 c 5.556,0.995 8.68071,3.5917 9.25321,9.0304 z"
       fill="#424445"
       stroke="#313233"
       stroke-width="4"
       id="path34" />
    <path
       d="M 550.562,3.262 C 550.319,3.00601 549.806,3.00601 548.726,3.00601 H 363.392 V 15.6357 h 98.688 c 3.626,-5.1213 13.511,-7.63656 18.798,-7.63656 h 47.875 c 7.637,0 10.867,3.23086 10.867,7.34286 v 0.2937 h 11.162 V 4.76829 c 0,-0.8359 0,-1.27531 -0.22,-1.50629 z"
       fill="#474b4d"
       stroke="#2e3133"
       stroke-width="2"
       id="path36" />
    <path
       d="m 462.08,15.6357 c -1.229,1.7361 -2.632,3.8591 -3.524,6.4617 -0.773,2.1479 -1.469,3.5245 -3.525,3.5245 h -51.694 c -1.946,0 -3.524,1.578 -3.524,3.5246 0,1.9465 1.578,3.5245 3.524,3.5245 h 55.219 c 0,0.2937 0,0.4406 0.073,0.514 0.073,0.0735 0.22,0.0735 0.514,0.0735 h 74.016 c 3.818,0 6.461,-4.112 6.461,-6.4617 V 15.3419 c 0,-4.1119 -3.23,-7.34279 -10.867,-7.34279 h -47.875 c -5.287,0 -15.172,2.51519 -18.798,7.63659 z"
       fill="#242627"
       id="path38" />
    <path
       d="m 457.968,29.6922 c -0.192,0.0275 -0.388,0.0417 -0.587,0.0417 -2.271,0 -4.112,-1.841 -4.112,-4.112 h -4.7 v 7.0491 h 9.399 z"
       fill="#303437"
       id="path40" />
    <path
       d="m 458.556,22.0974 c -0.773,2.1479 -1.469,3.5246 -3.525,3.5246 h -1.762 c 0,2.2709 1.841,4.112 4.112,4.112 2.271,0 4.112,-1.8411 4.112,-4.112 0,-1.8146 -1.176,-3.3546 -2.807,-3.9004 -0.044,0.1241 -0.087,0.2494 -0.13,0.3758 z"
       fill="#2a2d30"
       id="path42" />
    <path
       d="m 525.816,7.99911 h -44.938 c -5.287,0 -15.172,2.51519 -18.798,7.63659 -1.169,1.6519 -2.497,3.6542 -3.391,6.0866 1.629,0.5465 2.804,2.0859 2.804,3.8996 0,2.0715 -1.532,3.7853 -3.525,4.0703 v 2.9788 h 0.588 c 0,0.2937 0,0.4406 0.073,0.514 0.073,0.0735 0.22,0.0735 0.514,0.0735 h 65.792 l 6.461,-6.4617 V 13.8734 Z"
       fill="#33383b"
       id="path44" />
    <path
       d="m 530.222,27.9716 1.174,-1.1748 V 15.0482 h 8.224 v 12.9234 z"
       fill="#2f3236"
       id="path46" />
    <path
       d="m 530.222,33.2585 h 2.937 c 3.237,0 5.629,-2.9554 6.283,-5.2869 h -9.22 z"
       fill="#26292c"
       id="path48" />
    <path
       d="m 531.396,16.8106 8.224,-1.1749 v 2.9371 l -8.224,1.1749 z"
       fill="#33373b"
       id="path50" />
    <path
       d="m 459.374,62.9059 45.001,-0.2761 11.161,-1.7623 c 2.641,-0.4882 4.993,-0.8811 7.049,0.2937 l 3.525,2.4151 v 6.9838 z"
       fill="#36393b"
       stroke="#2e3133"
       stroke-width="4"
       id="path52" />
    <circle
       cx="352.52499"
       cy="37.240501"
       r="8.5176897"
       fill="#4d5153"
       id="circle54" />
    <path
       d="m 361.023,36.653 c -0.027,-0.3998 -0.082,-0.7921 -0.163,-1.1748 h -2.822 c -0.746,-2.3338 -2.932,-4.0239 -5.513,-4.0239 -2.997,0 -5.462,2.279 -5.757,5.1987 h 1.242 c 0.288,-2.2368 2.2,-3.9651 4.515,-3.9651 2.315,0 4.227,1.7283 4.515,3.9651 z"
       fill="#414547"
       id="path56" />
    <path
       d="m 358.282,37.8279 h -1.242 c -0.288,2.2368 -2.2,3.9651 -4.515,3.9651 -2.315,0 -4.227,-1.7283 -4.515,-3.9651 h -3.983 c 0.028,0.3998 0.082,0.7921 0.163,1.1748 h 2.822 c 0.746,2.3339 2.932,4.0239 5.513,4.0239 2.997,0 5.462,-2.279 5.757,-5.1987 z"
       fill="#414547"
       id="path58" />
    <path
       d="m 354.496,37.8279 c -0.253,0.8492 -1.039,1.4686 -1.971,1.4686 -0.931,0 -1.718,-0.6194 -1.971,-1.4686 h 1.04 c 0.195,0.3086 0.539,0.5134 0.931,0.5134 0.392,0 0.736,-0.2048 0.931,-0.5134 z"
       fill="#414547"
       id="path60" />
    <path
       d="m 354.496,36.653 h -1.04 c -0.195,-0.3085 -0.539,-0.5134 -0.931,-0.5134 -0.392,0 -0.736,0.2049 -0.931,0.5134 h -1.04 c 0.253,-0.8492 1.04,-1.4685 1.971,-1.4685 0.932,0 1.718,0.6193 1.971,1.4685 z"
       fill="#414547"
       id="path62" />
    <path
       d="m 356.597,37.8279 c -0.285,1.9935 -2,3.526 -4.072,3.526 -2.072,0 -3.787,-1.5325 -4.072,-3.526 h 0.894 c 0.277,1.5039 1.594,2.6434 3.178,2.6434 1.584,0 2.901,-1.1395 3.178,-2.6434 z"
       fill="#414547"
       id="path64" />
    <path
       d="m 356.597,36.653 c -0.285,-1.9935 -2,-3.526 -4.072,-3.526 -2.072,0 -3.787,1.5325 -4.072,3.526 h 0.894 c 0.277,-1.5039 1.594,-2.6434 3.178,-2.6434 1.584,0 2.901,1.1395 3.178,2.6434 z"
       fill="#414547"
       id="path66" />
    <rect
       x="362.21799"
       y="30.9088"
       width="26.4342"
       height="0.58742702"
       fill="#54585b"
       id="rect68" />
    <rect
       x="362.21799"
       y="43.244701"
       width="26.4342"
       height="0.58742702"
       fill="#54585b"
       id="rect70" />
    <path
       fill-rule="evenodd"
       clip-rule="evenodd"
       d="m 372.211,32.8647 h -3.223 l -1.725,5.8774 -1.815,-5.8514 h -3.024 c -0.057,0 -0.103,0.0465 -0.103,0.104 0,0.0574 0.058,0.104 0.103,0.104 0.119,0 0.53,0.013 0.724,0.0325 0.119,0.012 0.212,0.0555 0.245,0.091 0.054,0.0572 0.1,0.1222 0.123,0.2211 0.032,0.1365 0.045,0.5721 0.045,0.5916 v 6.8072 c 0,0.0326 0.031,0.4203 -0.155,0.5397 -0.135,0.0874 -0.329,0.117 -0.362,0.117 h -0.717 c -0.06,0 -0.109,0.0495 -0.109,0.1105 0,0.0611 0.049,0.1106 0.109,0.1106 h 2.778 c 0.061,0 0.11,-0.0495 0.11,-0.1106 0,-0.061 -0.049,-0.1105 -0.11,-0.1105 h -0.717 c -0.064,0 -0.2,-0.091 -0.278,-0.1625 -0.077,-0.0716 -0.148,-0.2276 -0.148,-0.2471 v -7.2363 l 2.506,7.6784 c 0.026,0.0467 0.102,0.0845 0.149,0.0845 0.046,0 0.123,-0.0378 0.148,-0.0845 l 2.352,-7.9385 v 7.8995 h -1.247 c -0.061,0 -0.11,0.0495 -0.11,0.1105 0,0.0611 0.049,0.1106 0.11,0.1106 h 4.406 c 0.06,0 0.11,-0.0495 0.11,-0.1106 0,-0.061 -0.05,-0.1105 -0.11,-0.1105 h -1.26 v -8.0425 c 0,0 0.019,-0.1755 0.11,-0.2406 0.161,-0.1161 0.387,-0.1235 0.387,-0.1235 h 0.698 c 0.061,0 0.11,-0.0495 0.11,-0.1105 0,-0.0611 -0.049,-0.1105 -0.11,-0.1105 z"
       fill="#54585b"
       id="path72" />
    <path
       d="m 373.833,33.6578 c -0.44,0.2991 -0.737,0.7867 -0.737,1.4044 0,0.5591 0.459,0.9557 0.976,0.9557 0.542,0 0.749,-0.4214 0.749,-0.7087 0,-0.4291 -0.271,-0.7151 -0.659,-0.8257 -0.407,-0.116 -0.501,-0.078 -0.491,-0.221 0.015,-0.2146 0.21,-0.4406 0.633,-0.5461 0.569,-0.142 0.788,-0.039 0.859,-0.026 0.071,0.013 0.631,0.2986 0.788,0.5201 0.268,0.3771 0.317,0.6971 0.317,1.0597 0,0.5917 -0.284,1.1508 -0.504,1.3784 -0.194,0.2015 -0.375,0.3511 -0.969,0.4486 -0.077,0.0127 -0.245,0.078 -0.245,0.1495 0,0.1301 0.232,0.1308 0.245,0.1301 0.317,-0.0183 0.52,-0.0261 0.853,0.0455 0.363,0.0782 0.517,0.2405 0.704,0.4161 0.284,0.2666 0.439,0.8517 0.439,1.5279 0,0.091 -0.013,0.6241 -0.206,1.0532 -0.05,0.1106 -0.311,0.7867 -1.028,1.0338 -0.51,0.1758 -1.091,0.104 -1.337,0.026 -0.255,-0.0812 -0.409,-0.1735 -0.446,-0.2991 -0.036,-0.1238 0.059,-0.2124 0.181,-0.234 0.717,-0.1266 0.905,-0.5137 0.905,-0.8582 0,-0.5917 -0.304,-0.8258 -0.905,-0.8258 -0.291,0 -0.753,0.2046 -0.891,0.5982 -0.171,0.4876 -0.123,0.9037 0.174,1.2873 0.151,0.1951 0.414,0.4094 0.872,0.5592 0.259,0.0845 0.741,0.2366 1.59,0.1365 0.439,-0.0518 1.108,-0.1756 1.485,-0.3511 0.264,-0.1228 0.497,-0.2857 0.782,-0.5201 0.633,-0.5202 0.853,-1.2093 0.853,-1.6059 0,-0.6957 -0.103,-1.1891 -0.821,-1.6775 -0.718,-0.4883 -1.156,-0.4811 -1.802,-0.5721 v -0.0585 c 0.504,-0.117 0.975,-0.303 1.292,-0.5201 0.316,-0.2171 0.807,-0.7802 0.807,-1.3654 0,-0.5193 -0.109,-0.8257 -0.381,-1.1382 -0.254,-0.2921 -0.524,-0.4261 -0.82,-0.5652 -0.59,-0.2777 -1.654,-0.2731 -1.996,-0.2731 -0.246,0 -0.926,0.23 -1.266,0.4616 z"
       fill="#54585b"
       id="path74" />
    <path
       d="m 379.763,32.9037 c -0.05,0 -0.091,0.039 -0.091,0.1105 0,0.0715 0.041,0.1105 0.091,0.1105 h 0.278 c 0.09,0 0.452,0.0312 0.51,0.078 0.078,0.0625 0.116,0.1171 0.116,0.1431 v 7.6004 c 0,0.117 -0.026,0.3576 -0.122,0.4746 -0.097,0.117 -0.427,0.104 -0.614,0.104 h -0.22 c -0.05,0 -0.09,0.0408 -0.09,0.091 0,0.0503 0.04,0.0911 0.09,0.0911 h 3.799 c 0.05,0 0.09,-0.0408 0.09,-0.0911 0,-0.0502 -0.04,-0.091 -0.09,-0.091 h -0.097 c -0.026,0 -0.607,-0.0455 -0.769,-0.1495 -0.161,-0.104 -0.116,-0.9168 -0.116,-0.9363 v -2.9712 l 2.819,3.875 c 0.03,0.039 -0.009,0.1365 -0.08,0.143 l -0.556,0.039 c -0.05,0 -0.09,0.0408 -0.09,0.091 v 0.013 c 0,0.0503 0.04,0.0911 0.09,0.0911 h 3.85 c 0.05,0 0.091,-0.0408 0.091,-0.0911 v -0.013 c 0,-0.0502 -0.041,-0.091 -0.091,-0.091 l -0.568,-0.0455 c -0.162,-0.026 -0.253,-0.0951 -0.343,-0.1885 l -3.927,-5.0388 2.577,-2.8477 c 0.136,-0.143 0.44,-0.2796 0.648,-0.2796 h 0.412 c 0.045,0 0.09,-0.039 0.09,-0.117 0,-0.078 -0.045,-0.117 -0.09,-0.117 h -2.494 c -0.045,0 -0.09,0.0455 -0.09,0.117 0,0.0715 0.045,0.117 0.09,0.117 h 0.386 l 0.409,0.0325 c 0.064,0.013 0.09,0.052 0.019,0.1951 -0.11,0.2496 -0.181,0.3901 -0.362,0.6111 l -0.251,0.2926 -2.539,2.7719 v -3.201 c 0,-0.026 0.013,-0.5331 0.103,-0.6177 0.091,-0.0845 0.549,-0.0845 0.646,-0.0845 h 0.194 c 0.05,0 0.09,-0.0455 0.09,-0.1105 0,-0.065 -0.04,-0.1105 -0.09,-0.1105 z"
       fill="#54585b"
       id="path76" />
    <path
       d="m 514.757,53.8184 c -0.983,0 -7.445,0 -7.445,0 -1.298,0 -2.35,-1.052 -2.35,-2.3497 v -5.2868 c 0,-1.2977 1.052,-2.3497 2.35,-2.3497 0,0 6.462,0 7.445,0 0.983,0 1.488,-2.3497 4.304,-2.3497 h 12.923 c 2.271,0 4.112,1.841 4.112,4.1119 v 6.4617 c 0,2.271 -1.841,4.112 -4.112,4.112 h -12.923 c -2.816,0 -3.321,-2.3497 -4.304,-2.3497 z"
       fill="url(#paint0_linear_40_452)"
       id="path78"
       style="fill:url(#paint0_linear_40_452)" />
    <circle
       cx="509.80899"
       cy="48.825298"
       r="3.3777001"
       fill="#606569"
       id="circle80" />
    <circle
       cx="509.80899"
       cy="48.825298"
       r="1.61542"
       fill="#4b4e52"
       id="circle82" />
    <path
       d="m 532.927,48.8253 c 0,3.8931 -3.156,7.0491 -7.049,7.0491 -3.893,0 -7.049,-3.156 -7.049,-7.0491 0,-3.8931 3.156,-7.0491 7.049,-7.0491 3.893,0 7.049,3.156 7.049,7.0491 z"
       fill="#2e6eaa"
       id="path84" />
    <path
       d="m 527.2,48.8253 c 0,0.7299 -0.592,1.3217 -1.322,1.3217 -0.73,0 -1.322,-0.5918 -1.322,-1.3217 0,-0.73 0.592,-1.3217 1.322,-1.3217 0.73,0 1.322,0.5917 1.322,1.3217 z"
       fill="#3176b8"
       id="path86" />
    <path
       d="m 528.987,49.7064 c -0.383,1.3561 -1.63,2.3497 -3.109,2.3497 -1.479,0 -2.726,-0.9936 -3.109,-2.3497 h 0.93 c 0.349,0.8612 1.193,1.4686 2.179,1.4686 0.986,0 1.83,-0.6074 2.179,-1.4686 z"
       fill="#3176b8"
       id="path88" />
    <path
       d="m 528.987,47.9442 c -0.383,-1.3561 -1.63,-2.3497 -3.109,-2.3497 -1.479,0 -2.726,0.9936 -3.109,2.3497 h 0.93 c 0.349,-0.8612 1.193,-1.4686 2.179,-1.4686 0.986,0 1.83,0.6074 2.179,1.4686 z"
       fill="#3176b8"
       id="path90" />
    <path
       d="m 532.872,47.9442 h -2.977 c -0.403,-1.8476 -2.049,-3.2309 -4.017,-3.2309 -1.969,0 -3.614,1.3833 -4.017,3.2309 h -1.197 c 0.42,-2.5005 2.594,-4.4057 5.214,-4.4057 2.076,0 3.872,1.1963 4.737,2.9371 h 1.911 c 0.165,0.4688 0.283,0.9602 0.346,1.4686 z"
       fill="#3176b8"
       id="path92" />
    <path
       d="m 518.883,49.7065 c 0.064,0.5083 0.181,0.9998 0.347,1.4685 h 1.911 c 0.865,1.7409 2.661,2.9372 4.737,2.9372 2.619,0 4.794,-1.9053 5.214,-4.4057 h -1.197 c -0.403,1.8475 -2.049,3.2308 -4.017,3.2308 -1.969,0 -3.614,-1.3833 -4.017,-3.2308 z"
       fill="#3176b8"
       id="path94" />
    <rect
       x="550.78198"
       y="5.6494398"
       width="2.93713"
       height="28.783899"
       rx="1"
       fill="#44474a"
       id="rect96" />
    <path
       d="M 680.603,12.6985 H 1134.1 V 33.8459 H 564.88 V 9.17398 Z"
       fill="#393c3f"
       id="path98" />
    <path
       d="m 553.719,7.70541 c 1.175,1.17486 4.112,1.46857 11.161,1.46857 V 23.2722 h -11.161 z"
       fill="#3e4143"
       id="path100" />
    <path
       d="m 553.719,23.2722 233.796,0.8812 c 24.086,0.8266 37.595,1.7623 61.679,4.9931 1.981,0.2657 2.644,1.3081 2.644,2.3497 0,1.1749 -1.175,13.8045 -1.175,13.8045 L 673.554,41.4825 C 628.909,31.7899 598.363,30.9088 553.719,30.9088 Z"
       fill="#474b4d"
       stroke="#2e3133"
       stroke-width="2"
       id="path102" />
    <path
       d="m 553.719,30.9088 c 0,3.2308 -0.639,4.3787 -2.937,5.5805 v 24.0845 c 55.511,0 74.603,-2.6434 122.772,-19.0913 C 628.909,31.7899 598.363,30.9088 553.719,30.9088 Z"
       fill="#44474a"
       stroke="#2e3133"
       stroke-width="2"
       id="path104" />
    <path
       d="M 673.554,41.4825 C 625.385,57.9304 606.293,60.5738 550.782,60.5738 v 11.4548 l 39.357,2.9372 242.607,-1.1749 c 2.54,-0.1547 4.576,-0.9431 7.049,-3.2308 4.994,-4.6182 8.285,-12.6755 10.868,-25.2594 z"
       fill="#434648"
       stroke="#2e3133"
       stroke-width="2"
       id="path106" />
    <path
       d="M 807.193,69.0915 617.161,68.2103 c -0.881,0 -0.881,-0.5874 0,-0.8811 l 66.085,-19.3851 152.731,3.2309 c -3.856,11.9349 -10.28,17.9165 -28.784,17.9165 z"
       fill="#404446"
       stroke="#2e3133"
       stroke-width="2"
       id="path108" />
    <rect
       x="874.45398"
       y="44.419601"
       width="289.01401"
       height="22.909599"
       fill="#373b3f"
       stroke="#2c3033"
       stroke-width="4"
       id="rect110" />
    <path
       d="m 850.663,45.3007 c -2.583,12.5839 -5.874,20.6412 -10.868,25.2594 -0.371,0.3432 -0.732,0.6527 -1.086,0.9314 l 36.332,-2.1063 c 5.658,-11.7679 5.732,-17.7736 0,-27.0216 L 851.09,40.6322 c -0.232,2.5677 -0.427,4.6685 -0.427,4.6685 z"
       fill="#41464b"
       stroke="#2c3033"
       stroke-width="4"
       id="path112" />
    <path
       d="m 1163.47,42.0699 v 27.609 h 37.59 c 1.62,0 2.94,-1.315 2.94,-2.9371 V 45.007 c 0,-1.6222 -1.32,-2.9371 -2.94,-2.9371 z"
       fill="#32363a"
       stroke="#2d3033"
       stroke-width="4"
       id="path114" />
    <rect
       x="1134.1"
       y="12.6986"
       width="27.6091"
       height="21.1474"
       fill="#373a3c"
       stroke="#2d3033"
       stroke-width="2"
       id="rect116" />
    <rect
       x="1140.5601"
       y="12.6986"
       width="7.0491199"
       height="21.1474"
       fill="#343639"
       id="rect118" />
    <rect
       x="1149.96"
       y="12.6986"
       width="7.0491199"
       height="21.1474"
       fill="#343639"
       id="rect120" />
    <path
       d="M 1134.1,12.6985 V 6.23685 L 582.503,3.29971 c -5.983,1.28946 -9.693,1.76228 -17.33,2.056 l -10.867,0.29371 v 2.05599 l 9.074,1.46349 c 0.478,0.00347 0.978,0.00508 1.5,0.00508 l 59.36,1.80792 c 3.718,-2.82286 6.279,-3.89443 11.425,-4.74505 l 35.245,0.58742 c 4.947,1.07225 6.854,2.71641 9.692,5.16173 0.267,0.2303 0.543,0.4678 0.83,0.7125 h 12.474 c 3.706,-2.86362 6.542,-5.02783 11.662,-5.87423 l 34.071,0.58743 c 4.947,1.07225 6.854,2.7164 9.692,5.1618 v 5e-4 c 0.048,0.0413 0.096,0.0828 0.145,0.1245 h 15.096 c 3.35,-2.571 6.136,-4.4993 10.9,-5.2868 l 33.777,0.58743 c 5.019,1.08789 7.146,2.29217 10.102,4.69937 h 15.264 c 2.885,-2.2763 5.192,-3.97306 9.586,-4.69937 l 36.127,0.58742 c 4.593,0.99559 6.763,2.08865 9.364,4.11195 h 14.827 c 2.885,-2.2763 5.192,-3.97306 9.586,-4.69937 l 36.127,0.58742 c 4.592,0.99559 6.763,2.08865 9.364,4.11195 h 14.827 c 2.885,-2.2763 5.192,-3.97306 9.586,-4.69937 l 36.131,0.58742 c 4.59,0.99559 6.76,2.08865 9.36,4.11195 h 13.23 c 2.55,-1.9801 4.83,-3.44957 8.83,-4.11195 l 39.95,0.58743 c 4.12,0.89472 6.3,1.86802 8.58,3.52452 z"
       fill="#353839"
       id="path122" />
    <path
       d="M 1134.1,12.6985 V 6.23685 L 582.503,3.29971 c -5.983,1.28946 -9.693,1.76228 -17.33,2.056 l -10.867,0.29371 v 2.05599 l 9.074,1.46349 c 0.478,0.00347 0.978,0.00508 1.5,0.00508 l 59.36,1.80792 c 3.718,-2.82286 6.279,-3.89443 11.425,-4.74505 l 35.245,0.58742 c 4.947,1.07225 6.854,2.71641 9.692,5.16173 0.267,0.2303 0.543,0.4678 0.83,0.7125 h 12.474 c 3.706,-2.86362 6.542,-5.02783 11.662,-5.87423 l 34.071,0.58743 c 4.947,1.07225 6.854,2.7164 9.692,5.1618 v 5e-4 c 0.048,0.0413 0.096,0.0828 0.145,0.1245 h 15.096 c 3.35,-2.571 6.136,-4.4993 10.9,-5.2868 l 33.777,0.58743 c 5.019,1.08789 7.146,2.29217 10.102,4.69937 h 15.264 c 2.885,-2.2763 5.192,-3.97306 9.586,-4.69937 l 36.127,0.58742 c 4.593,0.99559 6.763,2.08865 9.364,4.11195 h 14.827 c 2.885,-2.2763 5.192,-3.97306 9.586,-4.69937 l 36.127,0.58742 c 4.592,0.99559 6.763,2.08865 9.364,4.11195 h 14.827 c 2.885,-2.2763 5.192,-3.97306 9.586,-4.69937 l 36.131,0.58742 c 4.59,0.99559 6.76,2.08865 9.36,4.11195 h 13.23 c 2.55,-1.9801 4.83,-3.44957 8.83,-4.11195 l 39.95,0.58743 c 4.12,0.89472 6.3,1.86802 8.58,3.52452 z"
       stroke="#2e3133"
       stroke-width="2"
       id="path124" />
    <circle
       cx="432.26801"
       cy="49.559601"
       r="1.90914"
       fill="#3c3f42"
       id="circle126" />
    <path
       fill-rule="evenodd"
       clip-rule="evenodd"
       d="m 332.553,27.0905 -2.056,-11.4548 c -24.811,12.4909 -39.867,18.6416 -69.023,27.9028 -9.399,2.9854 -13.217,2.3497 -17.329,0 l -4.406,-3.2309 c -2.735,-2.0709 -4.71,-2.4368 -8.811,-2.056 L 88.7705,54.3266 c -28.7352,2.1028 -45.1184,3.393 -73.7221,8.0095 -9.69241,1.5644 -13.84396,7.5637 -12.92345,16.1543 0.64322,6.0028 1.60882,11.4311 2.53346,16.6292 0.34213,1.9234 0.67866,3.8152 0.99116,5.6934 4.99313,29.665 8.32733,51.715 13.21703,86.058 0.5874,3.818 4.9931,5.58 7.6366,4.699 l 25.553,-9.693 53.6808,-22.327 4.475,2.355 c 1.468,0.587 3.524,0.294 4.405,-0.881 l 4.874,-7.195 98.513,-40.974 c 2.774,-1.229 4.56,-1.088 6.168,-0.588 1.561,0.485 3.08,1.499 4.406,3.819 0.378,0.662 0.543,1.172 0.672,1.569 0.27,0.835 0.379,1.169 1.971,1.368 l 44.057,4.993 c 1.763,0 3.525,-1.469 3.525,-2.643 0,0 -0.155,-11.42 3.524,-23.7913 2.454,-8.2474 6.499,-16.1542 14.099,-22.9096 7.93,-7.0491 15.567,-9.1051 26.14,-9.6925 10.347,-0.5749 19.679,-0.2938 19.679,-0.2938 z"
       stroke="#313233"
       stroke-width="4"
       id="path128" />
    <path
       d="m 330.497,15.6357 2.056,11.4548 9.692,37.5953 c 1.274,0.0834 2.524,0.1646 3.754,0.2437 l 8.288,19.4351 c 1.805,3.9847 5.78,6.8694 7.637,7.9303 6.168,3.5245 12.188,5.2867 21.735,6.7554 3.818,0.5874 7.636,0.5874 11.748,-0.8812 L 419.492,80.84 c 8.382,-5.694 13.363,-8.2424 22.907,-11.6141 2.001,-0.3527 4.115,-0.7807 6.464,-1.3129 2.759,-3.0567 4.508,-4.9931 8.224,-4.9931 l 47.288,-0.2901 11.161,-1.7623 c 2.641,-0.4883 4.993,-0.8811 7.049,0.2937 l 15.861,10.8674 h 12.336 V 4.76829 c 0,-0.8359 0,-1.27531 -0.22,-1.50629 -0.243,-0.25599 -0.756,-0.25599 -1.836,-0.25599 H 363.392 Z"
       stroke="#2e3133"
       stroke-width="4"
       id="path130" />
    <path
       d="m 459.497,22.4359 0.002,-0.0071 0.003,-0.0071 c 0.843,-2.4614 2.177,-4.4886 3.394,-6.2082 1.634,-2.3076 4.775,-4.1284 8.294,-5.3739 3.492,-1.23609 7.172,-1.84049 9.688,-1.84049 h 47.875 c 3.696,0 6.171,0.78434 7.697,1.92939 1.491,1.1181 2.17,2.6467 2.17,4.4134 v 11.4549 c 0,0.8688 -0.525,2.2615 -1.556,3.4594 -1.014,1.1767 -2.374,2.0023 -3.905,2.0023 H 459.556 V 31.671 h -1 -55.219 c -1.394,0 -2.524,-1.1302 -2.524,-2.5245 0,-1.3943 1.13,-2.5246 2.524,-2.5246 h 51.694 c 1.301,0 2.272,-0.4576 3.001,-1.3043 0.664,-0.7709 1.083,-1.8211 1.465,-2.8817 z"
       stroke="#2e3133"
       stroke-width="2"
       id="path132" />
    <circle
       cx="508.69199"
       cy="25.827499"
       r="8.1358604"
       fill="#2c69a2"
       stroke="#0e2133"
       stroke-width="2"
       id="circle134" />
    <path
       d="m 514.757,53.8184 c -0.983,0 -7.445,0 -7.445,0 -1.298,0 -2.35,-1.052 -2.35,-2.3497 v -5.2868 c 0,-1.2977 1.052,-2.3497 2.35,-2.3497 0,0 6.462,0 7.445,0 0.983,0 1.488,-2.3497 4.304,-2.3497 h 12.923 c 2.271,0 4.112,1.841 4.112,4.1119 v 6.4617 c 0,2.271 -1.841,4.112 -4.112,4.112 h -12.923 c -2.816,0 -3.321,-2.3497 -4.304,-2.3497 z"
       stroke="#0e2133"
       stroke-width="2"
       id="path136" />
    <path
       d="m 342.245,64.6858 c 30.986,2.0294 48.347,2.7502 79.303,3.8182 1.762,0 2.334,1.1623 2.643,2.6435 9.642,-0.644 15.274,-1.1056 24.672,-3.2345"
       stroke="#2f3133"
       stroke-width="2"
       id="path138" />
    <path
       d="m 414.792,66.4481 h -13.511 l 4.112,4.9931 c 0.387,0.515 0.737,0.8809 1.469,0.8812 0.732,2e-4 1.304,-0.515 1.469,-1.1749 l 4.993,-1.4686 c 1.175,-0.2937 1.468,-0.8811 1.468,-1.4685 z"
       fill="#575c5f"
       id="path140" />
    <circle
       cx="406.27499"
       cy="69.091499"
       r="1.17485"
       fill="#a2352b"
       id="circle142" />
    <path
       d="m 553.719,23.2722 233.795,0.8812 c 24.087,0.8266 37.596,1.7623 61.68,4.9931 1.981,0.2657 2.644,1.3081 2.644,2.3497 0,1.1749 -1.175,13.8045 -1.175,13.8045 -2.583,12.5839 -5.874,20.6412 -10.868,25.2594 -2.473,2.2877 -4.509,3.0761 -7.049,3.2308 L 590.139,74.9658 550.782,72.0286 V 36.4893 c 2.298,-1.2018 2.937,-2.3497 2.937,-5.5805 z"
       stroke="#2e3133"
       stroke-width="4"
       id="path144" />
    <path
       d="m 550.782,6.64944 c 0,-0.55228 0.447,-1 1,-1 h 0.937 c 0.552,0 1,0.44772 1,1 v 1.05598 c 1.175,1.17485 4.112,1.46856 11.161,1.46856 l 115.723,3.52452 481.107,1e-4 V 33.8459 H 851.679 c 0.096,-1.1963 0.159,-2.0784 0.159,-2.3497 0,-1.0416 -0.663,-2.084 -2.644,-2.3497 C 825.11,25.9157 811.601,24.98 787.514,24.1534 L 564.88,23.2722 h -11.161 v 7.6366 c 0,1.5269 -0.143,2.5885 -0.536,3.4105 -0.139,0.0728 -0.297,0.1141 -0.464,0.1141 h -0.937 c -0.553,0 -1,-0.4478 -1,-1 z"
       stroke="#2e3133"
       stroke-width="4"
       id="path146" />
    <path
       d="m 1113.54,1.53745 h 9.4 l 1,4.63372 h -11.4 z"
       stroke="#2d3133"
       stroke-width="2"
       id="path148" />
  </g>
  <defs
     id="defs155">
    <linearGradient
       id="paint0_linear_40_452"
       x1="516.20599"
       y1="48.308498"
       x2="512.89697"
       y2="48.308498"
       gradientUnits="userSpaceOnUse">
      <stop
         stop-color="#2F71AF"
         id="stop150" />
      <stop
         offset="1"
         stop-color="#2C6BA5"
         id="stop152" />
    </linearGradient>
  </defs>
</svg>
