<?xml version="1.0" encoding="UTF-8" standalone="no"?>
<svg
   width="201.414"
   height="24"
   viewBox="0 0 201.414 24"
   fill="none"
   version="1.1"
   id="svg120"
   sodipodi:docname="mcx_spear_world.svg"
   inkscape:version="1.1.2 (0a00cf5339, 2022-02-04)"
   xmlns:inkscape="http://www.inkscape.org/namespaces/inkscape"
   xmlns:sodipodi="http://sodipodi.sourceforge.net/DTD/sodipodi-0.dtd"
   xmlns="http://www.w3.org/2000/svg"
   xmlns:svg="http://www.w3.org/2000/svg">
  <defs
     id="defs124" />
  <sodipodi:namedview
     id="namedview122"
     pagecolor="#505050"
     bordercolor="#ffffff"
     borderopacity="1"
     inkscape:pageshadow="0"
     inkscape:pageopacity="0"
     inkscape:pagecheckerboard="1"
     showgrid="false"
     inkscape:zoom="4.8295529"
     inkscape:cx="135.62332"
     inkscape:cy="7.4541061"
     inkscape:window-width="2560"
     inkscape:window-height="1372"
     inkscape:window-x="0"
     inkscape:window-y="0"
     inkscape:window-maximized="1"
     inkscape:current-layer="svg120" />
  <g
     id="g1000"
     transform="matrix(0.1291943,0,0,0.1291943,0,0.57470415)">
    <path
       fill-rule="evenodd"
       clip-rule="evenodd"
       d="m 1469,55 h 46 v 3 h 39 v 15 h -39 v 20.9999 h 39 V 109 h -39 v 3 h -46 z"
       fill="#545454"
       id="path2" />
    <path
       d="m 1515,55 h 5 v -5 h -5 z m -46,0 v -5 h -5 v 5 z m 46,3 h -5 v 5 h 5 z m 39,0 h 5 v -5 h -5 z m 0,15 v 5 h 5 v -5 z m -39,0 v -5 h -5 v 5 z m 0,20.9999 h -5 v 5 h 5 z m 39,0 h 5 v -5 h -5 z M 1554,109 v 5 h 5 v -5 z m -39,0 v -5 h -5 v 5 z m 0,3 v 5 h 5 v -5 z m -46,0 h -5 v 5 h 5 z m 46,-62 h -46 v 10 h 46 z m 5,8 v -3 h -10 v 3 z m 34,-5 h -39 v 10 h 39 z m 5,20 V 58 h -10 v 15 z m -44,5 h 39 V 68 h -39 z m 5,15.9999 V 73 h -10 v 20.9999 z m -5,5 h 39 v -10 h -39 z m 34,-5 V 109 h 10 V 93.9999 Z M 1554,104 h -39 v 10 h 39 z m -34,8 v -3 h -10 v 3 z m -51,5 h 46 v -10 h -46 z m -5,-62 v 57 h 10 V 55 Z"
       fill="#171717"
       id="path4" />
    <rect
       x="35"
       y="52"
       width="338"
       height="63"
       fill="#545454"
       stroke="#171717"
       stroke-width="10"
       stroke-linejoin="bevel"
       id="rect6" />
    <path
       d="m 1237,59 h 232 v 49 h -232 z"
       fill="#545454"
       id="path8" />
    <path
       d="m 1237,59 v -5 l -5,5 z m 232,0 h 5 l -5,-5 z m 0,49 v 5 l 5,-5 z m -232,0 h -5 l 5,5 z m 0,-44 h 232 V 54 h -232 z m 227,-5 v 49 h 10 V 59 Z m 5,44 h -232 v 10 h 232 z m -227,5 V 59 h -10 v 49 z"
       fill="#171717"
       id="path10" />
    <rect
       x="1242"
       y="52"
       width="119"
       height="63"
       fill="#545454"
       stroke="#171717"
       stroke-width="10"
       stroke-linejoin="bevel"
       id="rect12" />
    <path
       fill-rule="evenodd"
       clip-rule="evenodd"
       d="M 1012.79,135 H 1328 V 31 h -315.21 c 0,7.1797 -5.82,13 -12.998,13 h -18.731 c -7.179,0 -13,-5.8203 -13,-13 h -26.558 c 0,7.1797 -5.82,13 -13,13 h -18.73 c -7.18,0 -13,-5.8203 -13,-13 h -26.559 c 0,7.1797 -5.82,13 -13,13 h -18.73 c -7.18,0 -13,-5.8203 -13,-13 H 815 v 104 h 10.484 c 0,-7.18 5.82,-13 13,-13 h 18.73 c 7.18,0 13,5.82 13,13 h 26.559 c 0,-7.18 5.82,-13 13,-13 h 18.73 c 7.18,0 13,5.82 13,13 h 26.558 c 0,-7.18 5.821,-13 13,-13 h 18.731 c 7.178,0 12.998,5.82 12.998,13 z"
       fill="#d5b480"
       id="path14" />
    <path
       d="m 1012.79,135 h -5 l 5,5 z m 315.21,0 v 5 l 5,-5 z m 0,-104 h 5 l -5,-5 z m -315.21,0 v -5 l -5,5 z m -44.729,0 h 5 l -5,-5 z m -26.558,0 v -5 l -5,5 z m -44.73,0 h 5 l -5,-5 z m -26.559,0 v -5 l -5,5 z m -44.73,0 h 5 l -5,-5 z M 815,31 v -5 l -5,5 z m 0,104 h -5 l 5,5 z m 10.484,0 v 5 l 5,-5 z m 44.73,0 h -5 l 5,5 z m 26.559,0 v 5 l 5,-5 z m 44.73,0 h -5 l 5,5 z m 26.558,0 v 5 l 5,-5 z m 44.729,5 H 1328 V 130 H 1012.79 Z M 1333,135 V 31 h -10 V 135 Z M 1328,26 H 1012.79 V 36 H 1328 Z m -320.21,5 c 0,4.4183 -3.58,8 -7.998,8 v 10 c 9.938,0 17.998,-8.0589 17.998,-18 z m -7.998,8 h -18.731 v 10 h 18.731 z m -18.731,0 c -4.418,0 -8,-3.5817 -8,-8 h -10 c 0,9.9411 8.059,18 18,18 z m -13,-13 h -26.558 v 10 h 26.558 z m -31.558,5 c 0,4.4183 -3.582,8 -8,8 v 10 c 9.941,0 18,-8.0589 18,-18 z m -8,8 h -18.73 v 10 h 18.73 z m -18.73,0 c -4.419,0 -8,-3.5817 -8,-8 h -10 c 0,9.9411 8.059,18 18,18 z m -13,-13 h -26.559 v 10 h 26.559 z m -31.559,5 c 0,4.4183 -3.582,8 -8,8 v 10 c 9.941,0 18,-8.0589 18,-18 z m -8,8 h -18.73 v 10 h 18.73 z m -18.73,0 c -4.419,0 -8,-3.5817 -8,-8 h -10 c 0,9.9411 8.059,18 18,18 z m -13,-13 H 815 v 10 h 10.484 z M 810,31 v 104 h 10 V 31 Z m 5,109 h 10.484 V 130 H 815 Z m 15.484,-5 c 0,-4.418 3.581,-8 8,-8 v -10 c -9.941,0 -18,8.059 -18,18 z m 8,-8 h 18.73 v -10 h -18.73 z m 18.73,0 c 4.418,0 8,3.582 8,8 h 10 c 0,-9.941 -8.059,-18 -18,-18 z m 13,13 h 26.559 v -10 h -26.559 z m 31.559,-5 c 0,-4.418 3.581,-8 8,-8 v -10 c -9.941,0 -18,8.059 -18,18 z m 8,-8 h 18.73 v -10 h -18.73 z m 18.73,0 c 4.418,0 8,3.582 8,8 h 10 c 0,-9.941 -8.059,-18 -18,-18 z m 13,13 h 26.558 v -10 h -26.558 z m 31.558,-5 c 0,-4.418 3.582,-8 8,-8 v -10 c -9.941,0 -18,8.059 -18,18 z m 8,-8 h 18.731 v -10 h -18.731 z m 18.731,0 c 4.418,0 7.998,3.582 7.998,8 h 10 c 0,-9.941 -8.06,-18 -17.998,-18 z"
       fill="#221a0b"
       id="path16" />
    <path
       fill-rule="evenodd"
       clip-rule="evenodd"
       d="m 815,28 h 240.21 c 0,7.5939 6.15,13.75 13.75,13.75 h 17.23 c 7.59,0 13.75,-6.1561 13.75,-13.75 h 30.27 c 0,7.5939 6.15,13.75 13.75,13.75 h 17.23 c 7.59,0 13.75,-6.1561 13.75,-13.75 h 26.56 c 0,7.5939 6.15,13.75 13.75,13.75 h 17.23 c 7.59,0 13.75,-6.1561 13.75,-13.75 h 26.56 c 0,7.5939 6.15,13.75 13.75,13.75 h 17.23 c 7.59,0 13.75,-6.1561 13.75,-13.75 H 1328 v 110 h -10.48 c 0,-7.594 -6.16,-13.75 -13.75,-13.75 h -17.23 c -7.6,0 -13.75,6.156 -13.75,13.75 h -26.56 c 0,-7.594 -6.16,-13.75 -13.75,-13.75 h -17.23 c -7.6,0 -13.75,6.156 -13.75,13.75 h -26.56 c 0,-7.594 -6.16,-13.75 -13.75,-13.75 h -17.23 c -7.6,0 -13.75,6.156 -13.75,13.75 h -30.48 c 0,-7.594 -6.16,-13.75 -13.75,-13.75 h -17.23 c -7.59,0 -13.75,6.156 -13.75,13.75 H 815 Z"
       fill="#d5b480"
       id="path18" />
    <path
       d="m 1055.21,28 h 5 l -5,-5 z M 815,28 v -5 l -5,5 z m 284.94,0 v -5 l -5,5 z m 30.27,0 h 5 l -5,-5 z m 44.73,0 v -5 l -5,5 z m 26.56,0 h 5 l -5,-5 z m 44.73,0 v -5 l -5,5 z m 26.56,0 h 5 l -5,-5 z m 44.73,0 v -5 l -5,5 z m 10.48,0 h 5 l -5,-5 z m 0,110 v 5 l 5,-5 z m -10.48,0 h -5 l 5,5 z m -44.73,0 v 5 l 5,-5 z m -26.56,0 h -5 l 5,5 z m -44.73,0 v 5 l 5,-5 z m -26.56,0 h -5 l 5,5 z m -44.73,0 v 5 l 5,-5 z m -30.48,0 h -5 l 5,5 z m -44.73,0 v 5 l 5,-5 z m -240,0 h -5 l 5,5 z M 1055.21,23 H 815 v 10 h 240.21 z m 13.75,13.75 c -4.83,0 -8.75,-3.9175 -8.75,-8.75 h -10 c 0,10.3553 8.39,18.75 18.75,18.75 z m 17.23,0 h -17.23 v 10 h 17.23 z m 8.75,-8.75 c 0,4.8325 -3.92,8.75 -8.75,8.75 v 10 c 10.35,0 18.75,-8.3947 18.75,-18.75 z m 35.27,-5 h -30.27 v 10 h 30.27 z m 13.75,13.75 c -4.83,0 -8.75,-3.9175 -8.75,-8.75 h -10 c 0,10.3553 8.39,18.75 18.75,18.75 z m 17.23,0 h -17.23 v 10 h 17.23 z m 8.75,-8.75 c 0,4.8325 -3.92,8.75 -8.75,8.75 v 10 c 10.35,0 18.75,-8.3947 18.75,-18.75 z m 31.56,-5 h -26.56 v 10 h 26.56 z m 13.75,13.75 c -4.84,0 -8.75,-3.9175 -8.75,-8.75 h -10 c 0,10.3553 8.39,18.75 18.75,18.75 z m 17.23,0 h -17.23 v 10 h 17.23 z m 8.75,-8.75 c 0,4.8325 -3.92,8.75 -8.75,8.75 v 10 c 10.35,0 18.75,-8.3947 18.75,-18.75 z m 31.56,-5 h -26.56 v 10 h 26.56 z m 13.75,13.75 c -4.84,0 -8.75,-3.9175 -8.75,-8.75 h -10 c 0,10.3553 8.39,18.75 18.75,18.75 z m 17.23,0 h -17.23 v 10 h 17.23 z m 8.75,-8.75 c 0,4.8325 -3.92,8.75 -8.75,8.75 v 10 c 10.35,0 18.75,-8.3947 18.75,-18.75 z M 1328,23 h -10.48 V 33 H 1328 Z m 5,115 V 28 h -10 v 110 z m -15.48,5 H 1328 v -10 h -10.48 z m -13.75,-13.75 c 4.83,0 8.75,3.918 8.75,8.75 h 10 c 0,-10.355 -8.4,-18.75 -18.75,-18.75 z m -17.23,0 h 17.23 v -10 h -17.23 z m -8.75,8.75 c 0,-4.832 3.91,-8.75 8.75,-8.75 v -10 c -10.36,0 -18.75,8.395 -18.75,18.75 z m -31.56,5 h 26.56 v -10 h -26.56 z m -13.75,-13.75 c 4.83,0 8.75,3.918 8.75,8.75 h 10 c 0,-10.355 -8.4,-18.75 -18.75,-18.75 z m -17.23,0 h 17.23 v -10 h -17.23 z m -8.75,8.75 c 0,-4.832 3.91,-8.75 8.75,-8.75 v -10 c -10.36,0 -18.75,8.395 -18.75,18.75 z m -31.56,5 h 26.56 v -10 h -26.56 z m -13.75,-13.75 c 4.83,0 8.75,3.918 8.75,8.75 h 10 c 0,-10.355 -8.4,-18.75 -18.75,-18.75 z m -17.23,0 h 17.23 v -10 h -17.23 z m -8.75,8.75 c 0,-4.832 3.92,-8.75 8.75,-8.75 v -10 c -10.36,0 -18.75,8.395 -18.75,18.75 z m -35.48,5 h 30.48 v -10 h -30.48 z m -13.75,-13.75 c 4.83,0 8.75,3.918 8.75,8.75 h 10 c 0,-10.355 -8.39,-18.75 -18.75,-18.75 z m -17.23,0 h 17.23 v -10 h -17.23 z M 1060,138 c 0,-4.832 3.92,-8.75 8.75,-8.75 v -10 c -10.36,0 -18.75,8.395 -18.75,18.75 z m -245,5 h 240 V 133 H 815 Z M 810,28 v 110 h 10 V 28 Z"
       fill="#221a0b"
       id="path20" />
    <rect
       x="5"
       y="43"
       width="267"
       height="81"
       fill="#c8a56e"
       stroke="#171717"
       stroke-width="10"
       stroke-linejoin="bevel"
       id="rect22" />
    <rect
       x="13"
       y="43"
       width="259"
       height="81"
       fill="#c8a56e"
       stroke="#21190d"
       stroke-width="10"
       stroke-linejoin="bevel"
       id="rect24" />
    <path
       d="m 469,145 0.005,-0.002 L 502,133 565,145 515,165.732 483.173,178.928 483,179 l -2.882,-7 z"
       fill="#545454"
       id="path26" />
    <path
       d="m 502,133 -33,12 11.118,27 2.882,7 32,-13.268 M 502,133 l 63,12 -50,20.732 M 502,133 515,165.732 M 466.5,139 l 19,45.5"
       stroke="#171717"
       stroke-width="10"
       stroke-linejoin="bevel"
       id="path28" />
    <path
       d="m 501,138 h 36 60 l -50,20.732 -32,13.268 -2.882,-7 z"
       fill="#c8a56e"
       id="path30" />
    <path
       d="m 537,138 h -36 l 11.118,27 2.882,7 32,-13.268 M 537,138 h 60 l -50,20.732 M 537,138 l 10,20.732"
       stroke="#000000"
       stroke-width="10"
       stroke-linejoin="bevel"
       id="path32" />
    <path
       d="M 578.868,152 550,129 h 45 z"
       fill="#a88b5d"
       stroke="#000000"
       stroke-width="10"
       stroke-linejoin="bevel"
       id="path34" />
    <rect
       x="317"
       y="35"
       width="679"
       height="96"
       fill="#c8a56e"
       stroke="#000000"
       stroke-width="10"
       stroke-linejoin="bevel"
       id="rect36" />
    <path
       d="M 379.261,4.99999 381.049,40.395 357.264,36.002 Z"
       stroke="#171717"
       stroke-width="15"
       stroke-linejoin="bevel"
       id="path38" />
    <path
       d="m 379.261,162.329 1.788,-35.395 -23.785,4.393 z"
       stroke="#171717"
       stroke-width="15"
       stroke-linejoin="bevel"
       id="path40" />
    <path
       d="M 384,146 V 21 H 358 L 346,40.6429 V 126.357 L 358,146 Z"
       fill="#545454"
       stroke="#171717"
       stroke-width="10"
       stroke-linejoin="bevel"
       id="path42" />
    <path
       d="m 597,121 h 171 v 32 H 597 Z"
       fill="#545454"
       stroke="#171717"
       stroke-width="10"
       stroke-linejoin="bevel"
       id="path44" />
    <rect
       x="701.35101"
       y="32.437"
       width="95"
       height="17.7451"
       transform="rotate(-7.83658,701.351,32.437)"
       fill="#a1865b"
       stroke="#1d1811"
       stroke-width="10"
       stroke-linejoin="bevel"
       id="rect46" />
    <rect
       x="368"
       y="35"
       width="679"
       height="96"
       fill="#c8a56e"
       stroke="#20190e"
       stroke-width="10"
       stroke-linejoin="bevel"
       id="rect48" />
    <line
       x1="368.008"
       y1="108.5"
       x2="1330.01"
       y2="109.513"
       stroke="#000000"
       stroke-opacity="0.35"
       stroke-width="15"
       id="line50" />
    <line
       x1="368.008"
       y1="57.5"
       x2="1330.01"
       y2="58.5126"
       stroke="#000000"
       stroke-opacity="0.35"
       stroke-width="15"
       id="line52" />
    <line
       x1="398.5"
       y1="50"
       x2="398.5"
       y2="116"
       stroke="#625136"
       stroke-width="15"
       id="line54" />
    <line
       x1="428.5"
       y1="50"
       x2="428.5"
       y2="116"
       stroke="#625136"
       stroke-width="15"
       id="line56" />
    <line
       x1="458.5"
       y1="50"
       x2="458.5"
       y2="116"
       stroke="#625136"
       stroke-width="15"
       id="line58" />
    <line
       x1="488.5"
       y1="50"
       x2="488.5"
       y2="116"
       stroke="#625136"
       stroke-width="15"
       id="line60" />
    <line
       x1="518.5"
       y1="50"
       x2="518.5"
       y2="116"
       stroke="#625136"
       stroke-width="15"
       id="line62" />
    <line
       x1="548.5"
       y1="50"
       x2="548.5"
       y2="116"
       stroke="#625136"
       stroke-width="15"
       id="line64" />
    <line
       x1="578.5"
       y1="50"
       x2="578.5"
       y2="116"
       stroke="#625136"
       stroke-width="15"
       id="line66" />
    <line
       x1="608.5"
       y1="50"
       x2="608.5"
       y2="116"
       stroke="#625136"
       stroke-width="15"
       id="line68" />
    <line
       x1="638.5"
       y1="50"
       x2="638.5"
       y2="116"
       stroke="#625136"
       stroke-width="15"
       id="line70" />
    <line
       x1="668.5"
       y1="50"
       x2="668.5"
       y2="116"
       stroke="#625136"
       stroke-width="15"
       id="line72" />
    <line
       x1="698.5"
       y1="50"
       x2="698.5"
       y2="116"
       stroke="#625136"
       stroke-width="15"
       id="line74" />
    <line
       x1="728.5"
       y1="50"
       x2="728.5"
       y2="116"
       stroke="#625136"
       stroke-width="15"
       id="line76" />
    <line
       x1="758.5"
       y1="50"
       x2="758.5"
       y2="116"
       stroke="#625136"
       stroke-width="15"
       id="line78" />
    <line
       x1="788.5"
       y1="50"
       x2="788.5"
       y2="116"
       stroke="#625136"
       stroke-width="15"
       id="line80" />
    <line
       x1="818.5"
       y1="50"
       x2="818.5"
       y2="116"
       stroke="#625136"
       stroke-width="15"
       id="line82" />
    <line
       x1="848.5"
       y1="50"
       x2="848.5"
       y2="116"
       stroke="#625136"
       stroke-width="15"
       id="line84" />
    <line
       x1="878.5"
       y1="50"
       x2="878.5"
       y2="116"
       stroke="#625136"
       stroke-width="15"
       id="line86" />
    <line
       x1="908.5"
       y1="50"
       x2="908.5"
       y2="116"
       stroke="#625136"
       stroke-width="15"
       id="line88" />
    <line
       x1="938.5"
       y1="50"
       x2="938.5"
       y2="116"
       stroke="#625136"
       stroke-width="15"
       id="line90" />
    <line
       x1="968.5"
       y1="50"
       x2="968.5"
       y2="116"
       stroke="#625136"
       stroke-width="15"
       id="line92" />
    <line
       x1="998.5"
       y1="50"
       x2="998.5"
       y2="116"
       stroke="#625136"
       stroke-width="15"
       id="line94" />
    <line
       x1="1028.5"
       y1="50"
       x2="1028.5"
       y2="116"
       stroke="#625136"
       stroke-width="15"
       id="line96" />
    <line
       x1="1058.5"
       y1="50"
       x2="1058.5"
       y2="116"
       stroke="#625136"
       stroke-width="15"
       id="line98" />
    <line
       x1="1088.5"
       y1="50"
       x2="1088.5"
       y2="116"
       stroke="#625136"
       stroke-width="15"
       id="line100" />
    <line
       x1="1118.5"
       y1="50"
       x2="1118.5"
       y2="116"
       stroke="#625136"
       stroke-width="15"
       id="line102" />
    <line
       x1="1148.5"
       y1="50"
       x2="1148.5"
       y2="116"
       stroke="#625136"
       stroke-width="15"
       id="line104" />
    <line
       x1="1178.5"
       y1="50"
       x2="1178.5"
       y2="116"
       stroke="#625136"
       stroke-width="15"
       id="line106" />
    <line
       x1="1208.5"
       y1="50"
       x2="1208.5"
       y2="116"
       stroke="#625136"
       stroke-width="15"
       id="line108" />
    <line
       x1="1238.5"
       y1="50"
       x2="1238.5"
       y2="116"
       stroke="#625136"
       stroke-width="15"
       id="line110" />
    <line
       x1="1268.5"
       y1="50"
       x2="1268.5"
       y2="116"
       stroke="#625136"
       stroke-width="15"
       id="line112" />
    <line
       x1="1298.5"
       y1="50"
       x2="1298.5"
       y2="116"
       stroke="#625136"
       stroke-width="15"
       id="line114" />
    <line
       x1="672"
       y1="131"
       x2="672"
       y2="152"
       stroke="#171717"
       stroke-width="10"
       id="line116" />
    <line
       x1="705"
       y1="131"
       x2="705"
       y2="152"
       stroke="#171717"
       stroke-width="10"
       id="line118" />
  </g>
</svg>
