<?xml version="1.0" encoding="UTF-8" standalone="no"?>
<!-- Created with Inkscape (http://www.inkscape.org/) -->

<svg
   width="333.55704"
   height="334.76025"
   viewBox="0 0 88.253635 88.571987"
   version="1.1"
   id="svg5"
   sodipodi:docname="clearing_boulder_1.svg"
   inkscape:version="1.3 (0e150ed, 2023-07-21)"
   xmlns:inkscape="http://www.inkscape.org/namespaces/inkscape"
   xmlns:sodipodi="http://sodipodi.sourceforge.net/DTD/sodipodi-0.dtd"
   xmlns="http://www.w3.org/2000/svg"
   xmlns:svg="http://www.w3.org/2000/svg">
  <sodipodi:namedview
     id="namedview12"
     pagecolor="#505050"
     bordercolor="#ffffff"
     borderopacity="1"
     inkscape:pageshadow="0"
     inkscape:pageopacity="0"
     inkscape:pagecheckerboard="1"
     inkscape:document-units="px"
     showgrid="false"
     units="px"
     inkscape:zoom="1.7733884"
     inkscape:cx="173.67882"
     inkscape:cy="230.06804"
     inkscape:window-width="1440"
     inkscape:window-height="847"
     inkscape:window-x="0"
     inkscape:window-y="25"
     inkscape:window-maximized="0"
     inkscape:current-layer="svg5"
     inkscape:showpageshadow="2"
     inkscape:deskcolor="#d1d1d1" />
  <defs
     id="defs2" />
  <path
     style="color:#000000;fill:#5a5a5a;stroke-linecap:round;stroke-linejoin:round;-inkscape-stroke:none"
     d="M 5.3205856,65.774935 1.9849796,37.164217 11.186865,11.99903 35.330691,1.9846342 l 24.93405,2.71579 21.579987,13.8639828 4.44462,21.029429 -3.15123,22.5064 -7.937213,17.188519 -13.570013,7.29925 -29.27359,-0.581721 -15.581341,-6.103089 z"
     id="path1" />
  <path
     id="path2153"
     style="fill:#4b4b4b;fill-opacity:1;stroke:none;stroke-width:3.70417;stroke-linecap:round;stroke-linejoin:round;stroke-dasharray:none;stroke-opacity:1;paint-order:normal"
     d="m 14.611134,60.845898 -9.4010304,3.909261 11.7188594,14.512925 16.140322,6.959594 29.189169,-0.0053 13.161368,-7.374407 7.718296,-16.747733 -16.748843,6.720387 -20.636886,-7.263931 z"
     sodipodi:nodetypes="cccccccccc" />
  <path
     style="opacity:0.8;fill:#2c3d18;fill-opacity:1;stroke:none;stroke-width:5.15849;stroke-linecap:round;stroke-linejoin:round;stroke-opacity:1"
     d="m 14.509962,79.356274 16.864746,7.31077 36.127481,-2.0179 c -0.48582,-2.331735 1.189647,-0.457111 -0.571297,-2.273578 -2.412489,-2.488558 -5.551464,-1.458326 -8.117513,-2.78181 -2.739928,-1.413163 -5.287178,-5.661991 -8.509423,-6.136828 -3.466258,-0.510795 -7.123197,1.89344 -10.474969,1.029074 -3.117543,-0.803961 -6.420098,-5.369419 -9.311085,-6.860494 -7.243072,-3.735735 -2.945511,5.52929 -5.320619,6.345957 -6.861137,2.359164 -6.578855,0.166358 -10.687321,5.384809 z"
     id="path3-9"
     sodipodi:nodetypes="cccssssssc" />
  <path
     id="path2570"
     style="fill:#676767;fill-opacity:1;stroke:none;stroke-width:3.70417;stroke-linecap:round;stroke-linejoin:round;stroke-dasharray:none;stroke-opacity:1;paint-order:normal"
     d="M 59.989196,5.4259036 35.372345,2.5339792 11.492405,11.801077 25.525285,28.374187 46.834052,27.84202 64.5343,37.121585 86.289348,39.593836 81.844728,18.564407 Z"
     sodipodi:nodetypes="ccccccccc" />
  <path
     style="opacity:0.8;fill:#2c3d18;fill-opacity:1;stroke:none;stroke-width:4.75589;stroke-linecap:round;stroke-linejoin:round"
     d="M 1.7460419,40.440312 11.392835,9.9882484 25.859028,3.9879474 c 6.97027,2.628079 -0.0031,5.710596 -0.0031,8.9031336 0,2.753206 3.45355,3.68933 1.556909,6.850398 -1.824789,3.041315 -6.717232,1.558888 -7.317472,5.760563 -0.87975,6.158251 6.4337,12.317893 -1.245526,17.437378 C 11.750003,47.672631 7.0387423,40.440312 1.7460579,40.440312 Z"
     id="path4-3"
     sodipodi:nodetypes="cccssscsc" />
  <rect
     style="fill:#000000;fill-opacity:0;stroke:none;stroke-width:3.70417;stroke-linecap:round;stroke-linejoin:miter;stroke-dasharray:none;stroke-opacity:1;paint-order:normal"
     id="rect2804"
     width="46.302086"
     height="46.302086"
     x="0.53196573"
     y="0.26951355" />
  <path
     style="fill:#2c3d18;fill-opacity:1;stroke:none;stroke-width:3.96875;stroke-linecap:round;stroke-linejoin:round"
     d="M 1.9849796,37.164217 11.186865,11.99903 23.258778,6.9918321 c 5.81663,2.1931081 -0.0026,4.7654419 -0.0026,7.4295869 0,2.297527 2.881957,3.078714 1.299227,5.716598 -1.522771,2.537951 -5.605472,1.300879 -6.106367,4.80714 -0.734144,5.139007 5.368867,10.279175 -1.039381,14.551341 C 11.484905,43.446322 6.2539846,36.031596 1.9849796,37.164217 Z"
     id="path4" />
  <path
     style="opacity:1;fill:#2c3d18;stroke-width:3.96875;stroke-linecap:round;stroke-linejoin:round;fill-opacity:1"
     d="m 60.275387,5.072681 20.589116,12.532506 4.475895,15.964026 C 81.926586,33.753305 80.045953,31.600631 77.134591,30.436086 72.25865,28.48571 68.684603,31.656765 63.557709,29.093318 57.292557,25.960742 60.872172,15.704077 60.872172,10.592952 c 0,-1.0581611 -3.356776,-3.6554596 -2.088751,-4.923485 0.844761,-0.8447603 0.258744,-0.4426333 1.491966,-0.596786 z"
     id="path7" />
  <path
     style="opacity:0.8;fill:#2c3d18;fill-opacity:1;stroke-width:4.79423;stroke-linecap:round;stroke-linejoin:round"
     d="m 55.404043,2.6818135 25.96761,14.5001965 5.645133,18.470489 c -4.305602,0.212996 -6.677513,-2.277663 -10.34941,-3.62505 -6.149683,-2.256598 -10.657378,1.412334 -17.12357,-1.553592 -7.901798,-3.624412 -3.38708,-15.491445 -3.38708,-21.4050521 0,-1.2242997 -4.233667,-4.2293921 -2.634396,-5.6965059 1.065438,-0.9773943 0.326336,-0.5121306 1.881713,-0.6904855 z"
     id="path7-2" />
  <path
     style="fill:#2c3d18;stroke:none;stroke-width:3.96875;stroke-linecap:round;stroke-linejoin:round;fill-opacity:1;stroke-opacity:1"
     d="m 16.775961,79.903195 15.581341,6.103088 29.27359,0.581722 c -0.379619,-1.766328 -0.230609,-3.36071 -1.606609,-4.73671 -1.885116,-1.885116 -5.270563,-0.426595 -7.275671,-1.429149 -2.140976,-1.070488 -3.198739,-4.967136 -5.716598,-5.326831 -2.70853,-0.386933 -5.566058,1.434304 -8.185129,0.779536 -2.436044,-0.60901 -5.016657,-4.0674 -7.275671,-5.196907 -5.659728,-2.829864 -2.301619,4.188504 -4.157526,4.807139 -5.361285,1.787095 -7.427377,0.465073 -10.637727,4.418112 z"
     id="path3" />
  <path
     style="color:#000000;fill:#212121;fill-opacity:1;stroke-linecap:round;stroke-linejoin:round;-inkscape-stroke:none"
     d="m 35.544649,0.01143639 a 1.9845736,1.9845736 0 0 0 -0.974609,0.140625 L 10.427462,10.165733 A 1.9845736,1.9845736 0 0 0 9.3239461,11.318077 L 0.12082148,36.48214 a 1.9845736,1.9845736 0 0 0 -0.1074219,0.912109 L 3.3493371,66.005577 a 1.9845736,1.9845736 0 0 0 0.4296875,1.019531 L 15.234103,81.152061 a 1.9845736,1.9845736 0 0 0 0.818359,0.59961 l 15.582031,6.101562 a 1.9845736,1.9845736 0 0 0 0.683594,0.136719 l 29.273437,0.582031 a 1.9845736,1.9845736 0 0 0 0.978516,-0.236328 l 13.570313,-7.298828 a 1.9845736,1.9845736 0 0 0 0.861328,-0.916016 l 7.9375,-17.189453 a 1.9845736,1.9845736 0 0 0 0.164062,-0.55664 l 3.150391,-22.50586 a 1.9845736,1.9845736 0 0 0 -0.02344,-0.685547 L 83.786837,18.154015 A 1.9845736,1.9845736 0 0 0 82.917696,16.894249 L 61.337618,3.0309676 A 1.9845736,1.9845736 0 0 0 60.480196,2.7282333 Z M 35.620819,4.0114364 59.585665,6.6227645 80.073946,19.784874 84.275118,39.66378 81.212618,61.534874 73.677462,77.855186 61.150118,84.593468 32.751681,84.029015 17.988009,78.245811 7.2243371,64.972374 4.0114465,37.402061 12.751681,13.497765 Z"
     id="path2" />
</svg>
