<?xml version="1.0" encoding="UTF-8" standalone="no"?>
<!-- Created with Inkscape (http://www.inkscape.org/) -->

<svg
   width="187.64029"
   height="187.44678"
   viewBox="0 0 49.646494 49.595293"
   version="1.1"
   id="svg1"
   inkscape:version="1.3 (0e150ed, 2023-07-21)"
   sodipodi:docname="large_pumpkin.svg"
   xmlns:inkscape="http://www.inkscape.org/namespaces/inkscape"
   xmlns:sodipodi="http://sodipodi.sourceforge.net/DTD/sodipodi-0.dtd"
   xmlns="http://www.w3.org/2000/svg"
   xmlns:svg="http://www.w3.org/2000/svg">
  <sodipodi:namedview
     id="namedview1"
     pagecolor="#505050"
     bordercolor="#ffffff"
     borderopacity="1"
     inkscape:showpageshadow="0"
     inkscape:pageopacity="0"
     inkscape:pagecheckerboard="1"
     inkscape:deskcolor="#505050"
     inkscape:document-units="px"
     inkscape:zoom="1.4743176"
     inkscape:cx="181.77901"
     inkscape:cy="26.113776"
     inkscape:window-width="1440"
     inkscape:window-height="900"
     inkscape:window-x="0"
     inkscape:window-y="0"
     inkscape:window-maximized="0"
     inkscape:current-layer="layer1" />
  <defs
     id="defs1" />
  <g
     inkscape:label="Layer 1"
     inkscape:groupmode="layer"
     id="layer1"
     transform="translate(-89.817305,-167.49315)">
    <path
       style="fill:#ff8c01;fill-opacity:1;stroke:#643200;stroke-width:1.85208;stroke-linejoin:round;stroke-dasharray:none;stroke-opacity:1"
       d="m 114.74735,192.36952 c -3.89923,7.00284 -7.64592,14.67303 -9.15746,19.83577 5.55562,5.41311 14.58314,4.98605 17.03237,0.46043 -2.05709,-8.06725 -5.68108,-16.08241 -7.87491,-20.2962 z"
       id="path57781"
       sodipodi:nodetypes="cccc" />
    <path
       style="fill:#ff8c01;fill-opacity:1;stroke:#643200;stroke-width:1.85208;stroke-linejoin:round;stroke-dasharray:none;stroke-opacity:1"
       d="m 114.72936,192.40233 c -7.7202,2.2013 -15.69443,5.16348 -20.42223,7.74801 0.09161,7.74726 6.66612,13.63257 11.60539,12.16011 4.26318,-7.15602 7.38154,-15.38064 8.81684,-19.90812 z"
       id="path57783"
       sodipodi:nodetypes="cccc" />
    <path
       style="fill:#ff8c01;fill-opacity:1;stroke:#643200;stroke-width:1.85208;stroke-linejoin:round;stroke-dasharray:none;stroke-opacity:1"
       d="m 114.56251,192.27437 c -7.01877,-3.88972 -14.648007,-7.57077 -19.822595,-9.07844 -5.426079,5.54317 -5.057133,14.49334 -0.521194,16.93658 8.086089,-2.0529 16.120119,-5.66909 20.343789,-7.85814 z"
       id="path57785"
       sodipodi:nodetypes="cccc" />
    <path
       style="fill:#ff8c01;fill-opacity:1;stroke:#643200;stroke-width:1.85208;stroke-linejoin:round;stroke-dasharray:none;stroke-opacity:1"
       d="m 114.75946,192.31867 c -2.20583,-7.70218 -5.00181,-15.66067 -7.59198,-20.37735 -7.765242,0.092 -13.837159,6.6546 -12.36163,11.58233 7.1723,4.2528 15.41575,7.36334 19.95361,8.79502 z"
       id="path57787"
       sodipodi:nodetypes="cccc" />
    <path
       style="fill:#ff8c01;fill-opacity:1;stroke:#643200;stroke-width:1.85208;stroke-linejoin:round;stroke-dasharray:none;stroke-opacity:1"
       d="m 114.60313,192.32911 c 3.89925,-7.00281 7.69958,-14.90344 9.21113,-20.06617 -5.55566,-5.4131 -14.63678,-4.75562 -17.08602,-0.22999 2.05709,8.06724 5.68107,16.08239 7.87489,20.29616 z"
       id="path57789"
       sodipodi:nodetypes="cccc" />
    <path
       style="fill:#ff8c01;fill-opacity:1;stroke:#643200;stroke-width:1.85208;stroke-linejoin:round;stroke-dasharray:none;stroke-opacity:1"
       d="m 114.6095,192.1231 c 7.7202,-2.20129 15.81327,-4.93595 20.54107,-7.52046 -0.0917,-7.74729 -6.78495,-13.86011 -11.72423,-12.38764 -4.26315,7.15603 -7.3815,15.38061 -8.81684,19.9081 z"
       id="path57791"
       sodipodi:nodetypes="cccc" />
    <path
       style="fill:#ff8c01;fill-opacity:1;stroke:#643200;stroke-width:1.85208;stroke-linejoin:round;stroke-dasharray:none;stroke-opacity:1"
       d="m 114.77539,192.1937 c 7.01876,3.88972 14.53205,7.51535 19.70664,9.02302 5.42607,-5.5432 5.17311,-14.43792 0.63716,-16.88115 -8.08611,2.05291 -16.1201,5.66908 -20.3438,7.85813 z"
       id="path57793"
       sodipodi:nodetypes="cccc" />
    <path
       style="fill:#ff8c01;fill-opacity:1;stroke:#643200;stroke-width:1.85208;stroke-linejoin:round;stroke-dasharray:none;stroke-opacity:1"
       d="m 114.69343,192.14748 c 2.20584,7.70218 5.35066,15.88434 7.94082,20.60102 7.76526,-0.092 13.48835,-6.87827 12.0128,-11.80601 -7.17231,-4.25278 -15.41575,-7.36333 -19.95362,-8.79501 z"
       id="path57795"
       sodipodi:nodetypes="cccc" />
    <ellipse
       style="display:inline;fill:#039912;fill-opacity:1;stroke:#003304;stroke-width:1.85208;stroke-linejoin:round;stroke-dasharray:none;stroke-opacity:1"
       id="circle57797"
       cx="111.38083"
       cy="193.25688"
       transform="matrix(0.99985951,-0.01676163,0.01676738,0.99985942,0,0)"
       rx="4.9456568"
       ry="4.9342108" />
    <path
       style="fill:#039912;fill-opacity:1;stroke:#003304;stroke-width:1.85208;stroke-linecap:round;stroke-linejoin:round;stroke-dasharray:none;stroke-opacity:1"
       d="m 112.97894,193.94338 c -6.3e-4,-2.13636 -2.37329,-3.78539 -3.12208,-4.2838 -1.91476,-1.27468 -0.68169,-3.10542 1.18963,-2.02907 1.08825,0.62605 2.40109,1.73948 4.83557,1.027"
       id="path57799"
       sodipodi:nodetypes="cssc" />
  </g>
</svg>
