<?xml version="1.0" encoding="UTF-8" standalone="no"?>
<svg
   width="651.00183"
   height="680.63391"
   viewBox="0 0 651.00184 680.63391"
   fill="none"
   version="1.1"
   id="svg60"
   sodipodi:docname="oak_tree_6.svg"
   inkscape:version="1.3 (0e150ed, 2023-07-21)"
   xmlns:inkscape="http://www.inkscape.org/namespaces/inkscape"
   xmlns:sodipodi="http://sodipodi.sourceforge.net/DTD/sodipodi-0.dtd"
   xmlns="http://www.w3.org/2000/svg"
   xmlns:svg="http://www.w3.org/2000/svg">
  <defs
     id="defs64" />
  <sodipodi:namedview
     id="namedview62"
     pagecolor="#505050"
     bordercolor="#ffffff"
     borderopacity="1"
     inkscape:pageshadow="0"
     inkscape:pageopacity="0"
     inkscape:pagecheckerboard="1"
     showgrid="false"
     width="368.403px"
     inkscape:zoom="0.5"
     inkscape:cx="282"
     inkscape:cy="372"
     inkscape:window-width="1440"
     inkscape:window-height="847"
     inkscape:window-x="0"
     inkscape:window-y="25"
     inkscape:window-maximized="0"
     inkscape:current-layer="svg60"
     inkscape:showpageshadow="2"
     inkscape:deskcolor="#505050" />
  <g
     id="g25"
     transform="matrix(3.7795276,0,0,3.7795276,-4146.37,-2962.6463)">
    <path
       d="m 1193.2282,824.71803 -20.6269,37.90438 c 0,0 -7.4448,6.25724 -12.0544,10.44715 -9.3059,8.45795 -22.7695,22.76965 -22.7695,22.76965 l 1.0716,22.36749 5.3647,-18.47735 27.1825,-14.60539 10.3131,24.24285 -24.0233,16.63366 -3.5681,24.88683 9.9675,-18.48745 c 0,0 12.7085,-6.89853 18.5616,-10.71054 6.2242,-4.05383 9.7775,-8.03627 9.7775,-8.03627 l 6.6965,9.37543 -4.2856,24.77838 14.3825,-27.19533 -23.089,-35.75499 27.4574,-17.94789 4.8217,-20.09094 -10.5374,13.50498 -22.2772,8.59469 13.5276,-35.87624 17.1698,-9.76747 z"
       fill="#5b3e24"
       id="path2-98-6-7"
       style="stroke:#372516;stroke-width:2.95276;stroke-dasharray:none;stroke-opacity:1" />
    <path
       d="m 1172.6087,862.48836 1.8754,-13.12606 -6.5631,-22.36757 13.9298,-20.22472 -4.1522,23.84104 10.4471,18.75125 -2.4109,19.5544 28.3951,5.75944 18.3493,-9.64353 21.832,7.90222 -21.832,2.67898 -18.3493,13.12613 -27.4574,-3.61666 c 4.4614,11.45084 6.8305,29.19867 6.8305,29.19867 l -8.8399,18.08194 -3.8841,16.47401 -5.0898,-20.22472 5.0898,-17.81384 c 0,0 -3.7466,-16.54407 -9.242,-25.71606 l -14.8668,5.35796 c -8.4498,0.50724 -20.2031,-2.87702 -20.2031,-2.87702 l -15.4933,6.73618 12.462,-14.76638 h 16.9394 l 10.1792,-6.63919 -7.9023,-10.44647 -5.0629,-13.12606 -15.1564,-11.13525 21.8926,6.39937 c 0,0 10.1042,15.8303 18.2833,17.86194 z"
       fill="#6d4a2c"
       stroke="#1b1917"
       stroke-width="12.3191"
       stroke-miterlimit="16"
       stroke-linejoin="round"
       id="path4-02-0-3"
       style="stroke:#372516;stroke-width:2.38125;stroke-miterlimit:16;stroke-dasharray:none;stroke-opacity:1" />
    <path
       opacity="0.95"
       d="m 1159.7094,891.74145 c 0,19.13986 15.3822,34.65525 34.3565,34.65525 18.9745,0 34.3565,-15.51539 34.3565,-34.65525 0,-19.13956 -15.382,-34.65526 -34.3565,-34.65526 -18.9743,0 -34.3565,15.5157 -34.3565,34.65526 z"
       fill="#3a4f3f"
       id="path14-3-26-9-7"
       style="fill:#b28127;fill-opacity:0.85098;stroke-width:0.597504" />
    <path
       opacity="0.95"
       d="m 1136.5721,923.43062 c 21.8217,0 39.5118,-17.62995 39.5118,-39.37772 0,-21.74777 -17.6901,-39.37798 -39.5118,-39.37798 -21.8217,0 -39.5117,17.63021 -39.5117,39.37798 0,21.74777 17.69,39.37772 39.5117,39.37772 z"
       fill="#3a4f3f"
       id="path6-76-2-6"
       style="fill:#b28127;fill-opacity:0.85098;stroke-width:0.673619" />
    <path
       opacity="0.95"
       d="m 1181.0566,866.92885 c 23.0148,0 41.672,-18.59422 41.672,-41.53107 0,-22.93684 -18.6572,-41.53096 -41.672,-41.53096 -23.0148,0 -41.672,18.59412 -41.672,41.53096 0,22.93685 18.6572,41.53107 41.672,41.53107 z"
       fill="#3a4f3f"
       id="path8-1-9-4"
       style="fill:#b28127;fill-opacity:0.85098;stroke-width:0.673619" />
    <path
       opacity="0.95"
       d="m 1101.0344,836.47551 c 0,19.13986 15.3822,34.65526 34.3566,34.65526 18.9745,0 34.3565,-15.5154 34.3565,-34.65526 0,-19.13956 -15.382,-34.65526 -34.3565,-34.65526 -18.9744,0 -34.3566,15.5157 -34.3566,34.65526 z"
       fill="#3a4f3f"
       id="path14-3-2-6-3"
       style="fill:#b28127;fill-opacity:0.85098;stroke-width:0.597504" />
    <path
       opacity="0.95"
       d="m 1169.8131,963.9512 c 21.8219,0 39.5118,-17.62994 39.5118,-39.37772 0,-21.74777 -17.6899,-39.37771 -39.5118,-39.37771 -21.8217,0 -39.5117,17.62994 -39.5117,39.37771 0,21.74778 17.69,39.37772 39.5117,39.37772 z"
       fill="#3a4f3f"
       id="path10-21-0-5"
       style="fill:#b28127;fill-opacity:0.85098;stroke-width:0.673619" />
    <path
       opacity="0.85"
       d="m 1164.1308,947.25142 c 10.1339,0 18.3494,-8.1555 18.3494,-18.21565 0,-10.06022 -8.2155,-18.21566 -18.3494,-18.21566 -10.1346,0 -18.35,8.15544 -18.35,18.21566 0,10.06015 8.2154,18.21565 18.35,18.21565 z"
       fill="#485e52"
       id="path20-3-8-8-6-4"
       style="opacity:0.8;fill:#c9922c;fill-opacity:0.85098;stroke-width:0.673619" />
    <path
       opacity="0.95"
       d="m 1229.7929,912.71537 c 21.8218,0 39.5117,-17.62994 39.5117,-39.37771 0,-21.74777 -17.6899,-39.37798 -39.5117,-39.37798 -21.8219,0 -39.5118,17.63021 -39.5118,39.37798 0,21.74777 17.6899,39.37771 39.5118,39.37771 z"
       fill="#3a4f3f"
       id="path12-3-2-5"
       style="fill:#b28127;fill-opacity:0.85098;stroke-width:0.673619" />
    <path
       opacity="0.85"
       d="m 1219.7873,865.41695 c 15.0163,0 27.1891,-12.11301 27.1891,-27.05534 0,-14.94234 -12.1728,-27.05548 -27.1891,-27.05548 -15.0163,0 -27.1894,12.11314 -27.1894,27.05548 0,14.94233 12.1731,27.05534 27.1894,27.05534 z"
       fill="#485e52"
       id="path14-65-8-6"
       style="opacity:0.8;fill:#c9922c;fill-opacity:0.85098;stroke-width:0.673619" />
    <path
       opacity="0.85"
       d="m 1209.6584,954.20788 c 15.0163,0 27.1892,-12.11301 27.1892,-27.05522 0,-14.9422 -12.1729,-27.05588 -27.1892,-27.05588 -15.0164,0 -27.1895,12.11368 -27.1895,27.05588 0,14.94221 12.1731,27.05522 27.1895,27.05522 z"
       fill="#485e52"
       id="path16-7-4-9"
       style="opacity:0.8;fill:#c9922c;fill-opacity:0.85098;stroke-width:0.673619" />
    <path
       opacity="0.85"
       d="m 1233.2755,901.73202 c 15.0163,0 27.1892,-12.11301 27.1892,-27.05521 0,-14.94221 -12.1729,-27.05561 -27.1892,-27.05561 -15.0163,0 -27.1893,12.1134 -27.1893,27.05561 0,14.9422 12.173,27.05521 27.1893,27.05521 z"
       fill="#485e52"
       id="path18-36-4-4"
       style="opacity:0.8;fill:#c9922c;fill-opacity:0.85098;stroke-width:0.673619" />
    <path
       opacity="0.85"
       d="m 1187.7368,829.09447 c 10.1339,0 18.3494,-8.1555 18.3494,-18.21566 0,-10.06022 -8.2155,-18.21565 -18.3494,-18.21565 -10.1346,0 -18.35,8.15543 -18.35,18.21565 0,10.06016 8.2154,18.21566 18.35,18.21566 z"
       fill="#485e52"
       id="path20-3-8-3"
       style="opacity:0.8;fill:#c9922c;fill-opacity:0.85098;stroke-width:0.673619" />
    <path
       opacity="0.85"
       d="m 1134.5358,916.32623 c 15.0163,0 27.1894,-12.113 27.1894,-27.0552 0,-14.94288 -12.1731,-27.05589 -27.1894,-27.05589 -15.0162,0 -27.1894,12.11301 -27.1894,27.05589 0,14.9422 12.1732,27.0552 27.1894,27.0552 z"
       fill="#485e52"
       id="path22-25-0-6"
       style="opacity:0.8;fill:#c9922c;fill-opacity:0.85098;stroke-width:0.673619" />
    <path
       d="m 1110.4719,905.01741 c 5.1958,0.92421 16.435,-1.50621 13.1319,-7.73112 -3.8397,-5.90965 -11.4197,2.73692 -13.1337,7.72843 v 10e-4 c 9e-4,0 0,6.6e-4 0,10e-4 z"
       fill="#77a37a"
       id="path24-03-1-3"
       style="fill:#d1982e;fill-opacity:0.921568;stroke-width:0.673619" />
    <path
       d="m 1118.636,916.47701 10e-4,-0.005 c 5.6461,-3.92382 13.7656,-16.4895 4.9666,-19.186 -9.0021,-1.91307 -8.0024,13.01364 -4.9705,19.18466 l -10e-4,0.005 c 4e-4,-6.6e-4 0,-0.001 0,-0.002 3e-4,10e-4 9e-4,0.002 0,0.003 z"
       fill="#5f926a"
       id="path26-73-5-4"
       style="fill:#d6a243;fill-opacity:0.92;stroke-width:0.673619" />
    <path
       d="m 1200.9419,826.10257 c -4.6934,-2.41292 -16.15,-3.39905 -14.8259,3.52242 1.9296,6.77814 11.7193,0.74638 14.8268,-3.51933 v -7e-5 c -8e-4,-2.7e-4 0,-0.002 0,-0.002 z"
       fill="#77a37a"
       id="path24-03-1-3-4"
       style="fill:#d1982e;fill-opacity:0.921568;stroke-width:0.673619" />
    <path
       d="m 1196.5134,812.74729 v 0.004 c -6.5511,2.0877 -18.01,11.70608 -10.3949,16.87354 8.04,4.47853 11.479,-10.08098 10.3983,-16.87109 v -0.004 c -7e-4,4.9e-4 0,3.6e-4 0,10e-4 0,-10e-4 -3e-4,-0.002 0,-0.003 z"
       fill="#5f926a"
       id="path26-73-5-4-0"
       style="fill:#d6a243;fill-opacity:0.92;stroke-width:0.673619" />
    <path
       d="m 1217.8402,923.90464 c -1.2287,5.1323 -7.9487,14.46326 -12.3353,8.94767 -3.8821,-5.88136 7.0737,-9.37407 12.3333,-8.95037 v -0.002 c 0,10e-4 -7e-4,0.004 -7e-4,0.005 z"
       fill="#5f926a"
       id="path28-5-1-7"
       style="fill:#d1982e;fill-opacity:0.921568;stroke-width:0.673619" />
    <path
       d="m 1212.5947,951.36402 v -0.004 c -6.0504,-3.2657 -15.5282,-14.84049 -7.0878,-18.50766 8.7308,-2.91138 9.4125,12.03419 7.0919,18.50564 v 0.005 c -7e-4,-6.6e-4 0,-0.001 0,-0.001 0,0.001 -7e-4,0.002 -10e-4,0.003 z"
       fill="#587e60"
       id="path30-9-1-4"
       style="fill:#d6a243;fill-opacity:0.92;stroke-width:0.673619" />
    <path
       d="m 1197.8041,942.34696 v -0.003 c -0.2115,-4.31116 2.9531,-13.01902 7.6988,-9.49196 4.431,3.9144 -3.4348,8.81026 -7.6968,9.49398 0,0 0,0 0,6.6e-4 z"
       fill="#77a37a"
       id="path32-1-1-0"
       style="fill:#d1982e;fill-opacity:0.921568;stroke-width:0.673619" />
    <path
       d="m 1150.9467,918.9888 c 3.9162,-3.53828 14.7345,-7.435 15.2339,-0.40496 -0.1238,7.04647 -11.1344,3.73209 -15.2336,0.40839 v -1.3e-4 c 3e-4,-6.5e-4 0,-0.003 0,-0.003 z"
       fill="#5f926a"
       id="path40-5-0-2"
       style="fill:#d1982e;fill-opacity:0.921568;stroke-width:0.673619" />
    <path
       d="m 1172.0103,907.83833 -10e-4,0.002 c 0.9989,4.19907 -0.5165,13.33968 -5.8276,10.74293 -5.0737,-3.03581 1.7611,-9.29069 5.8251,-10.74436 6e-4,-1.7e-4 0,-6.5e-4 0,-9.8e-4 z"
       fill="#77a37a"
       id="path42-8-8-5"
       style="fill:#d1982e;fill-opacity:0.921568;stroke-width:0.673619" />
    <path
       d="m 1151.7966,904.94387 v 0.005 c 6.8674,0.33432 20.4129,6.68574 14.3816,13.63622 -6.6198,6.39385 -13.6841,-6.7935 -14.3843,-13.63339 v -0.004 c 6e-4,-1.7e-4 0,-5e-5 0,-5e-5 -4e-4,-10e-4 -10e-5,-0.003 3e-4,-0.004 z"
       fill="#587e60"
       id="path44-2-5-4"
       style="fill:#d6a243;fill-opacity:0.92;stroke-width:0.673619" />
    <path
       d="m 1257.2789,870.91725 c -2.9841,-4.35292 -12.5973,-10.6627 -14.7199,-3.94269 -1.5217,6.88102 9.9581,6.22357 14.7193,3.94606 v 6.6e-4 c 0,-10e-4 -10e-4,-0.003 -10e-4,-0.004 z"
       fill="#5f926a"
       id="path46-3-3-2"
       style="fill:#d1982e;fill-opacity:0.921568;stroke-width:0.673619" />
    <path
       d="m 1252.4686,849.80605 v 0.005 c -6.4883,2.27346 -17.6676,12.21607 -9.9076,17.16379 8.165,4.24649 11.1855,-10.40605 9.911,-17.16177 v -0.005 c -7e-4,6.6e-4 0,10e-4 0,10e-4 0,-10e-4 -7e-4,-0.002 -7e-4,-0.003 z"
       fill="#587e60"
       id="path48-2-7-1"
       style="fill:#d6a243;fill-opacity:0.92;stroke-width:0.673619" />
    <path
       d="m 1239.393,855.16671 7e-4,0.003 c -1.9495,3.85041 -2.6056,13.09245 3.1646,11.80517 5.6416,-1.77027 0.452,-9.44615 -3.1619,-11.80651 l -7e-4,-0.002 c 7e-4,-6.6e-4 0,0 0,0 -7e-4,-6.6e-4 0,10e-4 0,6.5e-4 z"
       fill="#77a37a"
       id="path50-6-9-5"
       style="fill:#d1982e;fill-opacity:0.921568;stroke-width:0.673619" />
    <path
       opacity="0.85"
       d="m 1141.5682,869.42689 c 15.0163,0 27.1893,-12.11301 27.1893,-27.05521 0,-14.9422 -12.173,-27.05561 -27.1893,-27.05561 -15.0163,0 -27.1893,12.11341 -27.1893,27.05561 0,14.9422 12.173,27.05521 27.1893,27.05521 z"
       fill="#485e52"
       id="path18-36-4-7-1"
       style="opacity:0.8;fill:#c9922c;fill-opacity:0.85098;stroke-width:0.673619" />
    <path
       d="m 1123.4407,845.04135 c 3.9162,-3.53828 14.7345,-7.435 15.2339,-0.40496 -0.1239,7.04647 -11.1344,3.73209 -15.2337,0.40839 v -1.3e-4 c 4e-4,-6.5e-4 0,-0.003 0,-0.003 z"
       fill="#5f926a"
       id="path40-5-0-2-9"
       style="fill:#d1982e;fill-opacity:0.921568;stroke-width:0.673619" />
    <path
       d="m 1144.5042,833.89088 -10e-4,0.002 c 0.9989,4.19907 -0.5164,13.33968 -5.8275,10.74293 -5.0738,-3.03581 1.7611,-9.29069 5.8251,-10.74436 6e-4,-1.7e-4 0,-6.5e-4 0,-9.8e-4 z"
       fill="#77a37a"
       id="path42-8-8-5-1"
       style="fill:#d1982e;fill-opacity:0.921568;stroke-width:0.673619" />
    <path
       d="m 1124.2906,830.99642 v 0.005 c 6.8674,0.33432 20.4129,6.68574 14.3816,13.63622 -6.6198,6.39385 -13.6842,-6.7935 -14.3844,-13.63339 v -0.004 c 7e-4,-1.7e-4 0,-5e-5 0,-5e-5 -3e-4,-10e-4 0,-0.003 4e-4,-0.004 z"
       fill="#587e60"
       id="path44-2-5-4-9"
       style="fill:#d6a243;fill-opacity:0.92;stroke-width:0.673619" />
  </g>
</svg>
