<?xml version="1.0" encoding="UTF-8" standalone="no"?>
<!-- Generator: Adobe Illustrator 27.0.0, SVG Export Plug-In . SVG Version: 6.00 Build 0)  -->

<svg version="1.1" id="svg48" x="0px" y="0px" viewBox="0 0 520.9 550" xml:space="preserve" sodipodi:docname="oak_tree_2_fall.svg" inkscape:version="1.3.1 (91b66b0783, 2023-11-16, custom)" width="520.90002" height="550" xmlns:inkscape="http://www.inkscape.org/namespaces/inkscape" xmlns:sodipodi="http://sodipodi.sourceforge.net/DTD/sodipodi-0.dtd" xmlns="http://www.w3.org/2000/svg" xmlns:svg="http://www.w3.org/2000/svg"><defs id="defs29" />
<style type="text/css" id="style2">
	.st0{opacity:0.9;fill:#403228;enable-background:new    ;}
	.st1{fill:#4D3F36;stroke:#29180D;stroke-width:8.9304;stroke-linejoin:round;stroke-miterlimit:16;}
	.st2{opacity:0.95;fill:#E57C0A;fill-opacity:0.851;enable-background:new    ;}
	.st3{opacity:0.8;fill:#D17109;fill-opacity:0.8039;enable-background:new    ;}
	.st4{opacity:0.8;fill-rule:evenodd;clip-rule:evenodd;fill:#D17109;fill-opacity:0.8039;enable-background:new    ;}
	.st5{fill:#E5711A;fill-opacity:0.8955;}
	.st6{fill:#EFAC3F;fill-opacity:0.8995;}
	.st7{fill:#EFAC3F;fill-opacity:0.9007;}
</style>
<sodipodi:namedview bordercolor="#ffffff" borderopacity="1" height="604.001px" id="namedview50" inkscape:current-layer="svg48" inkscape:cx="258.65902" inkscape:cy="211.50403" inkscape:deskcolor="#505050" inkscape:pagecheckerboard="1" inkscape:pageopacity="0" inkscape:pageshadow="0" inkscape:showpageshadow="2" inkscape:window-height="840" inkscape:window-maximized="1" inkscape:window-width="1440" inkscape:window-x="0" inkscape:window-y="0" inkscape:zoom="0.72102646" pagecolor="#505050" showgrid="false" width="520.942px">
	</sodipodi:namedview>
<path id="path2" class="st0" d="m 351.5,260.4 c 0,0 -34.6,-4.6 -47.4,-4.6 l -32.8,-14.6 -17.3,-102 -75.6,-40.1 48.3,47.4 2.7,37.3 11.8,90.1 -31.9,16.4 -46.3,-11.7 -48.3,30 41,-7.3 35.5,15.5 60.1,-5.5 43.7,5.5 25.5,24.6 28.2,51 -15.5,32.8 34.6,-31 -7.3,-50.1 -48.3,-56.5 32.8,-9.1 39.2,12.7 c -9.6,-8.6 -32.7,-30.8 -32.7,-30.8 z" />
<path id="path4" class="st1" d="m 251.4,313.2 -29.7,20 -33,53.7 -65.8,8.7 55.4,-34.9 18.7,-54.9 43.6,-30.6 -39.9,-67.4 -52.7,-19.4 -23.7,-58.1 44.9,39 59.6,13 42.5,61.7 c 14.9,-29.7 27.4,-47.3 27.4,-47.3 l 49.1,-22.8 34.6,-42.8 -23.7,69.2 -42.8,30 -17.2,43.9 34.9,31.2 57.6,16.4 29.1,59.2 -50.5,-36.4 -48.8,-7.3 -26.9,-18.9 2.3,44.4 -15.1,56 12.8,59.2 -41,-60 7.3,-43.7 z" style="fill:#70553d;fill-opacity:1;stroke:#2e1905;stroke-opacity:1" />
<path id="path6" class="st2" d="m 214.9,405.2 c 0,80 64.4,144.8 143.9,144.8 79.5,0 143.9,-64.8 143.9,-144.8 0,-80 -64.4,-144.8 -143.9,-144.8 -79.5,0 -143.9,64.9 -143.9,144.8 z" />
<path id="path8" class="st2" d="m 0,144.8 c 0,80 64.4,144.8 143.9,144.8 79.5,0 143.9,-64.8 143.9,-144.8 C 287.7,64.8 223.3,0 143.9,0 64.5,0 0,64.8 0,144.8 Z" />
<path id="path10" class="st2" d="m 63.7,384.3 c 0,64.4 51.8,116.6 115.6,116.6 63.8,0 115.7,-52.3 115.7,-116.6 0,-64.3 -51.8,-116.6 -115.6,-116.6 -63.8,0 -115.7,52.2 -115.7,116.6 z" />
<path id="path12" class="st3" d="m 271.4,444.4 c 0,51.3 41.2,92.9 92,92.9 50.8,0 92,-41.6 92,-92.9 0,-51.3 -41.2,-92.9 -92,-92.9 -50.9,0 -92,41.6 -92,92.9 z" />
<path id="path14" class="st2" d="m 242.2,183.9 c 0,58.3 46.9,105.6 104.7,105.6 57.8,0 104.7,-47.3 104.7,-105.6 0,-58.3 -46.9,-105.6 -104.7,-105.6 -57.8,0 -104.7,47.3 -104.7,105.6 z" />
<path id="path16" class="st3" d="m 47.4,359.7 c 0,46.8 37.5,84.7 83.8,84.7 46.3,0 83.8,-37.9 83.8,-84.7 0,-46.8 -37.6,-84.7 -83.9,-84.7 -46.3,0 -83.7,37.9 -83.7,84.7 z" />
<path id="path18" class="st3" d="m 300.5,173.9 c 0,32.7 26.1,59.2 58.3,59.2 32.2,0 58.3,-26.5 58.3,-59.2 0,-32.7 -26.1,-59.2 -58.3,-59.2 -32.2,0 -58.3,26.5 -58.3,59.2 z" />
<path id="path20" class="st4" d="m 199.9,142.1 c 6.7,2.3 13.9,3.6 21.4,3.6 36.7,0 66.5,-30.2 66.5,-67.4 0,-37.2 -29.8,-67.4 -66.5,-67.4 -28.7,0 -53.2,18.5 -62.5,44.3 C 144.3,45.6 127,40 108.4,40 c -50.8,0 -92,41.6 -92,92.9 0,51.3 41.2,92.9 92,92.9 47.7,0 86.9,-36.7 91.5,-83.7 z" />
<path id="path22" class="st5" d="m 246.6,466.8 c 9.1,11 36.5,25.7 40.6,7.1 2.5,-18.8 -28.3,-14.3 -40.6,-7.1 v 0 z" />
<path id="path24" class="st6" d="m 264.6,522.5 v 0 c 16.9,-7.7 44.7,-37.1 22.6,-48.6 -23,-9.4 -27.6,30.7 -22.6,48.6 v 0 0 z" />
<path id="path26" class="st5" d="m 298.5,505 v 0 c 4.3,-10.8 3.9,-35.9 -11.3,-31 -14.8,6.1 1,25.5 11.3,31 v 0 0 z" />
<path id="path28" class="st5" d="m 108.6,323.9 c -2.5,14 4.1,44.4 20.9,35.5 16,-10.3 -7.4,-30.8 -20.9,-35.5 v 0 z" />
<path id="path30" class="st6" d="m 77.6,346 v 0 c 10.6,15.3 44.6,37.2 51.9,13.4 5.2,-24.3 -35.2,-21.6 -51.9,-13.4 v 0 0 z" />
<path id="path32" class="st5" d="m 323.2,267.3 c -13.1,-5.6 -35,-27.7 -18.3,-36.9 17.5,-7.7 21.8,23.1 18.3,36.9 v 0 z" />
<path id="path34" class="st5" d="m 272,228.2 v 0 c 9.2,-7.2 33.3,-13.9 33,2.1 -1.7,15.9 -24.8,6.3 -33,-2.1 z" />
<path id="path36" class="st7" d="m 287.8,281.1 v 0 c -7,-17.2 -6.7,-57.7 17.2,-50.8 23.2,9.1 -1.2,41.3 -17.2,50.8 v 0 0 z" />
<path id="path38" class="st5" d="m 53.4,111.2 c 7.7,-12 33.3,-29.7 39.5,-11.7 4.6,18.5 -26.5,17.6 -39.5,11.7 v 0 c -0.1,0.1 0,0 0,0 z" />
<path id="path40" class="st5" d="m 100.5,67.4 v 0 c 5.5,10.3 8,35.2 -7.7,32.1 C 77.5,95.1 90.9,74 100.5,67.4 Z" />
<path id="path42" class="st6" d="m 45.7,74 v 0 c 18.2,-3.9 58,3.2 47.1,25.5 C 80,120.9 52.4,91.4 45.7,74 v 0 0 z" />
<path id="path44" class="st5" d="m 520.9,391.6 c -12,-7.7 -42.6,-13.1 -40.8,5.8 3.6,18.8 31.4,5 40.8,-5.8 v 0 z" />
<path id="path46" class="st6" d="m 512.3,354.6 v 0 c -18.2,4 -51.4,27.1 -32.2,42.9 20.6,14 33.4,-24.4 32.2,-42.9 v 0 0 z" />
</svg>
