<?xml version="1.0" encoding="UTF-8" standalone="no"?>
<svg
   version="1.1"
   width="206.54573"
   height="206.54573"
   viewBox="0 0 206.54573 206.54573"
   xml:space="preserve"
   id="svg218"
   sodipodi:docname="vibrant_bush_3.svg"
   inkscape:version="1.3 (0e150ed, 2023-07-21)"
   xmlns:inkscape="http://www.inkscape.org/namespaces/inkscape"
   xmlns:sodipodi="http://sodipodi.sourceforge.net/DTD/sodipodi-0.dtd"
   xmlns:xlink="http://www.w3.org/1999/xlink"
   xmlns="http://www.w3.org/2000/svg"
   xmlns:svg="http://www.w3.org/2000/svg"><sodipodi:namedview
   id="namedview220"
   pagecolor="#505050"
   bordercolor="#eeeeee"
   borderopacity="1"
   inkscape:showpageshadow="0"
   inkscape:pageopacity="0"
   inkscape:pagecheckerboard="true"
   inkscape:deskcolor="#505050"
   showgrid="false"
   inkscape:zoom="3.4764403"
   inkscape:cx="96.075287"
   inkscape:cy="105.28011"
   inkscape:window-width="1440"
   inkscape:window-height="847"
   inkscape:window-x="0"
   inkscape:window-y="25"
   inkscape:window-maximized="0"
   inkscape:current-layer="svg218"
   showguides="true"
   inkscape:pageshadow="0" />&#10;<desc
   id="desc181">Created with Fabric.js 5.3.0</desc>&#10;<defs
   id="defs183"><linearGradient
     inkscape:collect="always"
     xlink:href="#linearGradient2"
     id="linearGradient4"
     gradientUnits="userSpaceOnUse"
     gradientTransform="matrix(2.2537551,1.0741268e-8,-1.0741269e-8,2.2537551,-38.723092,123.54956)"
     x1="-32.132866"
     y1="26.167612"
     x2="-24.132866"
     y2="26.167612" /><linearGradient
     inkscape:collect="always"
     id="linearGradient2"><stop
       style="stop-color:#d3c617;stop-opacity:1;"
       offset="0.27806121"
       id="stop1" /><stop
       style="stop-color:#eee84f;stop-opacity:1;"
       offset="1"
       id="stop2" /></linearGradient><linearGradient
     inkscape:collect="always"
     xlink:href="#linearGradient2"
     id="linearGradient4-4"
     gradientUnits="userSpaceOnUse"
     gradientTransform="matrix(2.2537551,1.0741268e-8,-1.0741269e-8,2.2537551,-62.306308,85.857736)"
     x1="-32.132866"
     y1="26.167612"
     x2="-24.132866"
     y2="26.167612" /><linearGradient
     inkscape:collect="always"
     xlink:href="#linearGradient2"
     id="linearGradient4-5"
     gradientUnits="userSpaceOnUse"
     gradientTransform="matrix(2.2537551,1.0741268e-8,-1.0741269e-8,2.2537551,-26.810161,53.381359)"
     x1="-32.132866"
     y1="26.167612"
     x2="-24.132866"
     y2="26.167612" /><linearGradient
     inkscape:collect="always"
     xlink:href="#linearGradient2"
     id="linearGradient4-3"
     gradientUnits="userSpaceOnUse"
     gradientTransform="matrix(2.2537551,1.0741268e-8,-1.0741269e-8,2.2537551,-62.218179,35.539441)"
     x1="-32.132866"
     y1="26.167612"
     x2="-24.132866"
     y2="26.167612" /><linearGradient
     inkscape:collect="always"
     xlink:href="#linearGradient2"
     id="linearGradient4-7"
     gradientUnits="userSpaceOnUse"
     gradientTransform="matrix(2.2537551,1.0741268e-8,-1.0741269e-8,2.2537551,-5.1626214,84.059198)"
     x1="-32.132866"
     y1="26.167612"
     x2="-24.132866"
     y2="26.167612" /><linearGradient
     inkscape:collect="always"
     xlink:href="#linearGradient2"
     id="linearGradient4-78"
     gradientUnits="userSpaceOnUse"
     gradientTransform="matrix(2.2537551,1.0741268e-8,-1.0741269e-8,2.2537551,3.5601734,132.19739)"
     x1="-32.132866"
     y1="26.167612"
     x2="-24.132866"
     y2="26.167612" /><linearGradient
     inkscape:collect="always"
     xlink:href="#linearGradient2"
     id="linearGradient4-1"
     gradientUnits="userSpaceOnUse"
     gradientTransform="matrix(2.2537551,1.0741268e-8,-1.0741269e-8,2.2537551,25.477735,85.316319)"
     x1="-32.132866"
     y1="26.167612"
     x2="-24.132866"
     y2="26.167612" /><linearGradient
     inkscape:collect="always"
     xlink:href="#linearGradient2"
     id="linearGradient4-8"
     gradientUnits="userSpaceOnUse"
     gradientTransform="matrix(2.2537551,1.0741268e-8,-1.0741269e-8,2.2537551,48.059938,117.65855)"
     x1="-32.132866"
     y1="26.167612"
     x2="-24.132866"
     y2="26.167612" /><linearGradient
     inkscape:collect="always"
     xlink:href="#linearGradient2"
     id="linearGradient4-58"
     gradientUnits="userSpaceOnUse"
     gradientTransform="matrix(2.2537551,1.0741268e-8,-1.0741269e-8,2.2537551,20.507399,40.841259)"
     x1="-32.132866"
     y1="26.167612"
     x2="-24.132866"
     y2="26.167612" /><linearGradient
     inkscape:collect="always"
     xlink:href="#linearGradient2"
     id="linearGradient4-52"
     gradientUnits="userSpaceOnUse"
     gradientTransform="matrix(2.2537551,1.0741268e-8,-1.0741269e-8,2.2537551,-12.786355,8.5222698)"
     x1="-32.132866"
     y1="26.167612"
     x2="-24.132866"
     y2="26.167612" /><linearGradient
     inkscape:collect="always"
     xlink:href="#linearGradient2"
     id="linearGradient4-10"
     gradientUnits="userSpaceOnUse"
     gradientTransform="matrix(2.2537551,1.0741268e-8,-1.0741269e-8,2.2537551,38.133194,8.9688125)"
     x1="-32.132866"
     y1="26.167612"
     x2="-24.132866"
     y2="26.167612" /><linearGradient
     inkscape:collect="always"
     xlink:href="#linearGradient2"
     id="linearGradient4-9"
     gradientUnits="userSpaceOnUse"
     gradientTransform="matrix(2.2537551,1.0741268e-8,-1.0741269e-8,2.2537551,66.440618,66.227788)"
     x1="-32.132866"
     y1="26.167612"
     x2="-24.132866"
     y2="26.167612" /></defs>&#10;&#10;<g
   id="g1"><g
     transform="matrix(0.51636432,0,0,0.51636432,103.27282,103.27286)"
     id="TUpbIBcTeAz7rDdmaMSty-0"
     style="fill:#495b1e;fill-opacity:1">&#10;<path
   style="opacity:1;fill:#495b1e;fill-opacity:1;fill-rule:nonzero;stroke:#000000;stroke-width:0;stroke-linecap:butt;stroke-linejoin:miter;stroke-miterlimit:4;stroke-dasharray:none;stroke-dashoffset:0"
   vector-effect="non-scaling-stroke"
   d="m 253.44549,0.72556 c 21.65097,5.70355 9.94439,33.72049 33.0529,46.90606 23.1085,13.18558 43.29423,-10.15937 59.38112,5.83624 16.08688,15.99561 -8.36734,34.85531 4.96642,58.14622 13.33376,23.29092 42.36688,12.9313 48.36862,35.01743 6.00174,22.08613 -24.36166,26.57686 -24.36166,53.32708 0,26.75022 30.3634,31.70793 24.36166,53.6738 -6.00174,21.96587 -35.03486,10.94359 -48.36862,34.18968 -13.33376,23.24609 11.12047,42.71364 -4.96642,58.79469 -16.08688,16.08105 -36.27261,-7.63342 -59.38112,5.52951 -23.1085,13.16293 -11.40193,41.38385 -33.0529,47.12222 -21.65097,5.73838 -26.82947,-24.16872 -53.55098,-24.16872 -26.7215,0 -31.52212,29.90709 -53.33504,24.16872 C 124.74655,393.53011 135.85931,365.3092 112.64284,352.14627 89.42637,338.98334 69.61852,362.69781 53.69358,346.61676 37.76864,330.53571 62.16889,311.06816 48.94309,287.82207 35.7173,264.57598 6.79214,276.12193 0.7904,253.63239 c -6.00174,-22.48955 24.14573,-29.01828 24.14573,-55.7685 0,-26.75022 -30.14747,-29.66993 -24.14573,-51.23238 6.00174,-21.56245 34.92689,-11.72652 48.15269,-35.01743 13.2258,-23.29091 -11.61016,-42.15061 4.75049,-58.14622 16.36065,-15.99562 37.47564,7.34933 60.69211,-5.83624 23.21647,-13.18557 10.79657,-41.20251 32.17377,-46.90606 21.3772,-5.70355 26.61353,24.09185 53.33504,24.09185 26.72151,0 31.90001,-29.7954 53.55098,-24.09185 z m -16.03366,60.2364 c -15.15568,-3.99249 -18.78063,16.86429 -37.48568,16.86429 -18.70505,0 -22.37049,-20.85678 -37.33453,-16.86429 -14.96404,3.99249 -6.27011,23.60434 -22.52164,32.83424 -16.25153,9.2299 -31.03202,-7.11156 -42.48448,4.08537 -11.45246,11.19693 5.93271,24.39872 -3.32534,40.70236 -9.25806,16.30364 -29.50567,9.41848 -33.70688,24.5122 -4.20122,15.09372 16.90201,17.13751 16.90201,35.86267 0,18.72515 -21.10323,23.29527 -16.90201,39.03795 4.20122,15.74268 24.44883,7.66051 33.70688,23.93278 9.25806,16.27227 -7.82211,29.89955 3.32534,41.15629 11.14746,11.25674 25.01295,-5.3434 41.26448,3.87066 16.25153,9.21405 8.4726,28.96869 23.74164,32.98555 15.26904,4.01686 18.62948,-16.91811 37.33453,-16.91811 18.70505,0 22.33,20.93497 37.48568,16.91811 15.15568,-4.01686 6.96108,-23.7715 23.13703,-32.98555 16.17595,-9.21405 30.30597,7.38608 41.56679,-3.87066 11.26082,-11.25674 -5.85714,-24.88402 3.47649,-41.15629 9.33363,-16.27227 29.65682,-8.55667 33.85804,-23.93278 4.20122,-15.37611 -17.05316,-18.84651 -17.05316,-37.57166 0,-18.72515 21.25438,-21.86867 17.05316,-37.32895 -4.20122,-15.46029 -24.5244,-8.20856 -33.85804,-24.5122 -9.33363,-16.30364 7.78433,-29.50543 -3.47649,-40.70236 -11.26082,-11.19693 -25.39083,5.14454 -41.56679,-4.08537 -16.17595,-9.2299 -7.98135,-28.84176 -23.13703,-32.83424 z"
   stroke-linecap="round"
   id="path17029-5"
   transform="translate(-200,-200)" />&#10;</g><path
     style="fill:#435617;fill-opacity:1;fill-rule:nonzero;stroke:#000000;stroke-width:0;stroke-linecap:butt;stroke-linejoin:miter;stroke-miterlimit:4;stroke-dasharray:none;stroke-dashoffset:0"
     vector-effect="non-scaling-stroke"
     d="M 146.07484,11.55886 C 136.10143,6.9592225 131.06152,20.912074 118.15255,18.635944 105.24358,16.359813 105.25213,1.5196397 94.438948,2.4540493 83.625945,3.3884498 87.239341,17.981327 74.90063,22.3736 62.56147,26.765855 54.349525,13.689306 45.083295,20.023097 c -9.26623,6.333799 1.1254,17.560244 -7.248036,27.685386 -8.373166,10.125151 -21.508892,2.909539 -26.245078,12.814921 -4.735915,9.905401 9.579312,13.884016 7.300697,26.806887 -2.278616,12.922879 -17.3988696,13.508649 -16.4151574,24.884629 0.9837122,11.37572 15.9405844,8.26184 20.3496454,20.6185 4.409332,12.35667 -9.036685,19.6827 -2.71304,28.80789 6.323196,9.1252 17.91233,-0.64387 28.006992,7.69287 10.094302,8.33646 2.321824,21.02333 12.370757,25.65354 10.048753,4.6302 14.915554,-9.40886 27.824616,-7.13272 12.908879,2.27641 12.863149,17.16532 23.811539,16.23752 10.94803,-0.92808 7.69669,-15.5584 19.98148,-19.94901 12.28479,-4.39034 20.01649,8.78535 29.15768,2.38712 9.14138,-6.39852 -1.01404,-17.88604 7.40746,-27.98033 8.42151,-10.09431 21.50826,-2.29652 26.27893,-12.3966 4.77039,-10.10037 -9.47544,-15.08197 -7.19682,-28.00486 2.27852,-12.92287 17.32946,-12.50592 16.31128,-23.686663 -1.01783,-11.181003 -15.9261,-8.649304 -20.3835,-21.036813 -4.45758,-12.387509 8.9626,-19.415578 2.55362,-28.513224 -6.40898,-9.097654 -18.14898,0.460728 -28.18927,-7.877664 C 148.00652,28.696084 156.0486,16.158498 146.07484,11.55886 Z"
     stroke-linecap="round"
     id="path17032-2" /><g
     transform="matrix(0.43659751,0.15890849,-0.15907452,0.43705368,103.29542,103.27259)"
     id="DoV-uyDlkuLqFojr_yBQV-2"
     style="fill:#455617;fill-opacity:1">&#10;<path
   style="opacity:1;fill:#455617;fill-opacity:1;fill-rule:nonzero;stroke:#000000;stroke-width:0;stroke-linecap:butt;stroke-linejoin:miter;stroke-miterlimit:4;stroke-dasharray:none;stroke-dashoffset:0"
   vector-effect="non-scaling-stroke"
   transform="translate(9.1975e-6,1.45125e-5)"
   d="m 53.4582,-199.11381 c -21.65612,-5.69896 -26.83585,24.07243 -53.56371,24.07243 -26.72786,0 -31.96544,-29.77138 -53.34773,-24.07243 -21.38229,5.69896 -8.95943,33.6933 -32.18143,46.86825 -23.22199,13.17495 -44.34201,-10.15119 -60.70655,5.83153 -16.36454,15.98272 8.47732,34.82721 -4.75162,58.09935 -13.22894,23.27214 -42.16098,13.44413 -48.16415,34.9892 -6.00317,21.54507 24.15148,24.46243 24.15148,51.19108 0,26.72866 -30.15464,33.25213 -24.15148,55.72354 6.00317,22.47142 34.93521,10.93477 48.16415,34.16212 13.22894,23.22736 -11.17711,42.67921 4.75162,58.7473 15.92873,16.06809 35.74129,-7.62727 58.96328,5.52505 23.22199,13.15232 12.10659,41.35049 33.92469,47.08423 21.81811,5.73375 26.61987,-24.14924 53.34773,-24.14924 26.72786,0 31.9076,29.88299 53.56371,24.14924 21.65612,-5.73375 9.94676,-33.93191 33.06076,-47.08423 23.114,-13.15232 43.30454,10.54304 59.39525,-5.52505 16.09071,-16.06809 -8.36933,-35.51994 4.9676,-58.7473 13.33693,-23.22736 42.37696,-12.21396 48.38013,-34.16212 6.00317,-21.94816 -24.36746,-26.90188 -24.36746,-53.63053 0,-26.72866 30.37063,-31.21577 24.36746,-53.28409 -6.00317,-22.06832 -35.0432,-11.71706 -48.38013,-34.9892 -13.33693,-23.27214 11.12311,-42.11663 -4.9676,-58.09935 -16.09071,-15.98272 -36.28125,7.34341 -59.39525,-5.83153 -23.114,-13.17495 -11.40464,-41.1693 -33.06076,-46.86825 z"
   stroke-linecap="round"
   id="path17035-7" />&#10;</g><g
     transform="matrix(0.4388053,0,0,0.43926377,103.27282,103.27286)"
     id="McesWKx5qywez6Zdlah17-3"
     style="fill:#4c6d02;fill-opacity:1">&#10;<path
   style="opacity:1;fill:#4c6d02;fill-opacity:1;fill-rule:nonzero;stroke:#000000;stroke-width:0;stroke-linecap:butt;stroke-linejoin:miter;stroke-miterlimit:4;stroke-dasharray:none;stroke-dashoffset:0"
   vector-effect="non-scaling-stroke"
   transform="translate(9.1975e-6,1.45125e-5)"
   d="m 53.4582,-199.11381 c -21.65612,-5.69896 -26.83585,24.07243 -53.56371,24.07243 -26.72786,0 -31.96544,-29.77138 -53.34773,-24.07243 -21.38229,5.69896 -8.95943,33.6933 -32.18143,46.86825 -23.22199,13.17495 -44.34201,-10.15119 -60.70655,5.83153 -16.36454,15.98272 8.47732,34.82721 -4.75162,58.09935 -13.22894,23.27214 -42.16098,13.44413 -48.16415,34.9892 -6.00317,21.54507 24.15148,24.46243 24.15148,51.19108 0,26.72866 -30.15464,33.25213 -24.15148,55.72354 6.00317,22.47142 34.93521,10.93477 48.16415,34.16212 13.22894,23.22736 -11.17711,42.67921 4.75162,58.7473 15.92873,16.06809 35.74129,-7.62727 58.96328,5.52505 23.22199,13.15232 12.10659,41.35049 33.92469,47.08423 21.81811,5.73375 26.61987,-24.14924 53.34773,-24.14924 26.72786,0 31.9076,29.88299 53.56371,24.14924 21.65612,-5.73375 9.94676,-33.93191 33.06076,-47.08423 23.114,-13.15232 43.30454,10.54304 59.39525,-5.52505 16.09071,-16.06809 -8.36933,-35.51994 4.9676,-58.7473 13.33693,-23.22736 42.37696,-12.21396 48.38013,-34.16212 6.00317,-21.94816 -24.36746,-26.90188 -24.36746,-53.63053 0,-26.72866 30.37063,-31.21577 24.36746,-53.28409 -6.00317,-22.06832 -35.0432,-11.71706 -48.38013,-34.9892 -13.33693,-23.27214 11.12311,-42.11663 -4.9676,-58.09935 -16.09071,-15.98272 -36.28125,7.34341 -59.39525,-5.83153 -23.114,-13.17495 -11.40464,-41.1693 -33.06076,-46.86825 z"
   stroke-linecap="round"
   id="path17038-7" />&#10;</g><g
     transform="matrix(0.40671891,0.07171551,-0.07179045,0.40714387,103.27966,103.27425)"
     id="S177hH-ZuUor6YhRJ3Dzy-9"
     style="fill:#4f6d02;fill-opacity:1">&#10;<path
   style="opacity:1;fill:#4f6d02;fill-opacity:1;fill-rule:nonzero;stroke:#000000;stroke-width:0;stroke-linecap:butt;stroke-linejoin:miter;stroke-miterlimit:4;stroke-dasharray:none;stroke-dashoffset:0"
   vector-effect="non-scaling-stroke"
   transform="translate(9.1975e-6,1.45125e-5)"
   d="m 53.4582,-199.11381 c -21.65612,-5.69896 -26.83585,24.07243 -53.56371,24.07243 -26.72786,0 -31.96544,-29.77138 -53.34773,-24.07243 -21.38229,5.69896 -8.95943,33.6933 -32.18143,46.86825 -23.22199,13.17495 -44.34201,-10.15119 -60.70655,5.83153 -16.36454,15.98272 8.47732,34.82721 -4.75162,58.09935 -13.22894,23.27214 -42.16098,13.44413 -48.16415,34.9892 -6.00317,21.54507 24.15148,24.46243 24.15148,51.19108 0,26.72866 -30.15464,33.25213 -24.15148,55.72354 6.00317,22.47142 34.93521,10.93477 48.16415,34.16212 13.22894,23.22736 -11.17711,42.67921 4.75162,58.7473 15.92873,16.06809 35.74129,-7.62727 58.96328,5.52505 23.22199,13.15232 12.10659,41.35049 33.92469,47.08423 21.81811,5.73375 26.61987,-24.14924 53.34773,-24.14924 26.72786,0 31.9076,29.88299 53.56371,24.14924 21.65612,-5.73375 9.94676,-33.93191 33.06076,-47.08423 23.114,-13.15232 43.30454,10.54304 59.39525,-5.52505 16.09071,-16.06809 -8.36933,-35.51994 4.9676,-58.7473 13.33693,-23.22736 42.37696,-12.21396 48.38013,-34.16212 6.00317,-21.94816 -24.36746,-26.90188 -24.36746,-53.63053 0,-26.72866 30.37063,-31.21577 24.36746,-53.28409 -6.00317,-22.06832 -35.0432,-11.71706 -48.38013,-34.9892 -13.33693,-23.27214 11.12311,-42.11663 -4.9676,-58.09935 -16.09071,-15.98272 -36.28125,7.34341 -59.39525,-5.83153 -23.114,-13.17495 -11.40464,-41.1693 -33.06076,-46.86825 z"
   stroke-linecap="round"
   id="path17041-0" />&#10;</g><g
     transform="matrix(0.36383126,0.13242373,-0.1325621,0.36421139,103.29155,103.27259)"
     id="Ry_hy_izT_Tv2GBtfh1VD-2"
     style="fill:#5d781f;fill-opacity:1">&#10;<path
   style="opacity:1;fill:#5d781f;fill-opacity:1;fill-rule:nonzero;stroke:#000000;stroke-width:0;stroke-linecap:butt;stroke-linejoin:miter;stroke-miterlimit:4;stroke-dasharray:none;stroke-dashoffset:0"
   vector-effect="non-scaling-stroke"
   transform="translate(9.1975e-6,1.45125e-5)"
   d="m 53.4582,-199.11381 c -21.65612,-5.69896 -26.83585,24.07243 -53.56371,24.07243 -26.72786,0 -31.96544,-29.77138 -53.34773,-24.07243 -21.38229,5.69896 -8.95943,33.6933 -32.18143,46.86825 -23.22199,13.17495 -44.34201,-10.15119 -60.70655,5.83153 -16.36454,15.98272 8.47732,34.82721 -4.75162,58.09935 -13.22894,23.27214 -42.16098,13.44413 -48.16415,34.9892 -6.00317,21.54507 24.15148,24.46243 24.15148,51.19108 0,26.72866 -30.15464,33.25213 -24.15148,55.72354 6.00317,22.47142 34.93521,10.93477 48.16415,34.16212 13.22894,23.22736 -11.17711,42.67921 4.75162,58.7473 15.92873,16.06809 35.74129,-7.62727 58.96328,5.52505 23.22199,13.15232 12.10659,41.35049 33.92469,47.08423 21.81811,5.73375 26.61987,-24.14924 53.34773,-24.14924 26.72786,0 31.9076,29.88299 53.56371,24.14924 21.65612,-5.73375 9.94676,-33.93191 33.06076,-47.08423 23.114,-13.15232 43.30454,10.54304 59.39525,-5.52505 16.09071,-16.06809 -8.36933,-35.51994 4.9676,-58.7473 13.33693,-23.22736 42.37696,-12.21396 48.38013,-34.16212 6.00317,-21.94816 -24.36746,-26.90188 -24.36746,-53.63053 0,-26.72866 30.37063,-31.21577 24.36746,-53.28409 -6.00317,-22.06832 -35.0432,-11.71706 -48.38013,-34.9892 -13.33693,-23.27214 11.12311,-42.11663 -4.9676,-58.09935 -16.09071,-15.98272 -36.28125,7.34341 -59.39525,-5.83153 -23.114,-13.17495 -11.40464,-41.1693 -33.06076,-46.86825 z"
   stroke-linecap="round"
   id="path17044-3" />&#10;</g><g
     transform="matrix(0.3148076,0.05550907,-0.05556707,0.31513649,103.27822,103.27395)"
     id="IJitezga8s3hNOGtiVHin-9"
     style="fill:#698c03;fill-opacity:1">&#10;<path
   style="opacity:1;fill:#698c03;fill-opacity:1;fill-rule:nonzero;stroke:#000000;stroke-width:0;stroke-linecap:butt;stroke-linejoin:miter;stroke-miterlimit:4;stroke-dasharray:none;stroke-dashoffset:0"
   vector-effect="non-scaling-stroke"
   transform="translate(9.1975e-6,1.45125e-5)"
   d="m 53.4582,-199.11381 c -21.65612,-5.69896 -26.83585,24.07243 -53.56371,24.07243 -26.72786,0 -31.96544,-29.77138 -53.34773,-24.07243 -21.38229,5.69896 -8.95943,33.6933 -32.18143,46.86825 -23.22199,13.17495 -44.34201,-10.15119 -60.70655,5.83153 -16.36454,15.98272 8.47732,34.82721 -4.75162,58.09935 -13.22894,23.27214 -42.16098,13.44413 -48.16415,34.9892 -6.00317,21.54507 24.15148,24.46243 24.15148,51.19108 0,26.72866 -30.15464,33.25213 -24.15148,55.72354 6.00317,22.47142 34.93521,10.93477 48.16415,34.16212 13.22894,23.22736 -11.17711,42.67921 4.75162,58.7473 15.92873,16.06809 35.74129,-7.62727 58.96328,5.52505 23.22199,13.15232 12.10659,41.35049 33.92469,47.08423 21.81811,5.73375 26.61987,-24.14924 53.34773,-24.14924 26.72786,0 31.9076,29.88299 53.56371,24.14924 21.65612,-5.73375 9.94676,-33.93191 33.06076,-47.08423 23.114,-13.15232 43.30454,10.54304 59.39525,-5.52505 16.09071,-16.06809 -8.36933,-35.51994 4.9676,-58.7473 13.33693,-23.22736 42.37696,-12.21396 48.38013,-34.16212 6.00317,-21.94816 -24.36746,-26.90188 -24.36746,-53.63053 0,-26.72866 30.37063,-31.21577 24.36746,-53.28409 -6.00317,-22.06832 -35.0432,-11.71706 -48.38013,-34.9892 -13.33693,-23.27214 11.12311,-42.11663 -4.9676,-58.09935 -16.09071,-15.98272 -36.28125,7.34341 -59.39525,-5.83153 -23.114,-13.17495 -11.40464,-41.1693 -33.06076,-46.86825 z"
   stroke-linecap="round"
   id="path17050-9" />&#10;</g><g
     transform="matrix(0.23186152,0.0843907,-0.08447888,0.23210379,103.2848,103.27279)"
     id="1kFcPA1HgaNGKUZejsU0X-7"
     style="fill:#759b03;fill-opacity:1">&#10;<path
   style="opacity:1;fill:#759b03;fill-opacity:1;fill-rule:nonzero;stroke:#000000;stroke-width:0;stroke-linecap:butt;stroke-linejoin:miter;stroke-miterlimit:4;stroke-dasharray:none;stroke-dashoffset:0"
   vector-effect="non-scaling-stroke"
   transform="translate(9.1975e-6,1.45125e-5)"
   d="m 53.4582,-199.11381 c -21.65612,-5.69896 -26.83585,24.07243 -53.56371,24.07243 -26.72786,0 -31.96544,-29.77138 -53.34773,-24.07243 -21.38229,5.69896 -8.95943,33.6933 -32.18143,46.86825 -23.22199,13.17495 -44.34201,-10.15119 -60.70655,5.83153 -16.36454,15.98272 8.47732,34.82721 -4.75162,58.09935 -13.22894,23.27214 -42.16098,13.44413 -48.16415,34.9892 -6.00317,21.54507 24.15148,24.46243 24.15148,51.19108 0,26.72866 -30.15464,33.25213 -24.15148,55.72354 6.00317,22.47142 34.93521,10.93477 48.16415,34.16212 13.22894,23.22736 -11.17711,42.67921 4.75162,58.7473 15.92873,16.06809 35.74129,-7.62727 58.96328,5.52505 23.22199,13.15232 12.10659,41.35049 33.92469,47.08423 21.81811,5.73375 26.61987,-24.14924 53.34773,-24.14924 26.72786,0 31.9076,29.88299 53.56371,24.14924 21.65612,-5.73375 9.94676,-33.93191 33.06076,-47.08423 23.114,-13.15232 43.30454,10.54304 59.39525,-5.52505 16.09071,-16.06809 -8.36933,-35.51994 4.9676,-58.7473 13.33693,-23.22736 42.37696,-12.21396 48.38013,-34.16212 6.00317,-21.94816 -24.36746,-26.90188 -24.36746,-53.63053 0,-26.72866 30.37063,-31.21577 24.36746,-53.28409 -6.00317,-22.06832 -35.0432,-11.71706 -48.38013,-34.9892 -13.33693,-23.27214 11.12311,-42.11663 -4.9676,-58.09935 -16.09071,-15.98272 -36.28125,7.34341 -59.39525,-5.83153 -23.114,-13.17495 -11.40464,-41.1693 -33.06076,-46.86825 z"
   stroke-linecap="round"
   id="path17053-0" />&#10;</g><g
     transform="matrix(0.17720148,0,0,0.17738665,103.27282,103.27292)"
     id="eX7Qo5fc4ojT76FNSfMPg-3"
     style="fill:#7fae2e;fill-opacity:1">&#10;<path
   style="opacity:1;fill:#7fae2e;fill-opacity:1;fill-rule:nonzero;stroke:#000000;stroke-width:0;stroke-linecap:butt;stroke-linejoin:miter;stroke-miterlimit:4;stroke-dasharray:none;stroke-dashoffset:0"
   vector-effect="non-scaling-stroke"
   transform="translate(9.1975e-6,1.45125e-5)"
   d="m 53.4582,-199.11381 c -21.65612,-5.69896 -26.83585,24.07243 -53.56371,24.07243 -26.72786,0 -31.96544,-29.77138 -53.34773,-24.07243 -21.38229,5.69896 -8.95943,33.6933 -32.18143,46.86825 -23.22199,13.17495 -44.34201,-10.15119 -60.70655,5.83153 -16.36454,15.98272 8.47732,34.82721 -4.75162,58.09935 -13.22894,23.27214 -42.16098,13.44413 -48.16415,34.9892 -6.00317,21.54507 24.15148,24.46243 24.15148,51.19108 0,26.72866 -30.15464,33.25213 -24.15148,55.72354 6.00317,22.47142 34.93521,10.93477 48.16415,34.16212 13.22894,23.22736 -11.17711,42.67921 4.75162,58.7473 15.92873,16.06809 35.74129,-7.62727 58.96328,5.52505 23.22199,13.15232 12.10659,41.35049 33.92469,47.08423 21.81811,5.73375 26.61987,-24.14924 53.34773,-24.14924 26.72786,0 31.9076,29.88299 53.56371,24.14924 21.65612,-5.73375 9.94676,-33.93191 33.06076,-47.08423 23.114,-13.15232 43.30454,10.54304 59.39525,-5.52505 16.09071,-16.06809 -8.36933,-35.51994 4.9676,-58.7473 13.33693,-23.22736 42.37696,-12.21396 48.38013,-34.16212 6.00317,-21.94816 -24.36746,-26.90188 -24.36746,-53.63053 0,-26.72866 30.37063,-31.21577 24.36746,-53.28409 -6.00317,-22.06832 -35.0432,-11.71706 -48.38013,-34.9892 -13.33693,-23.27214 11.12311,-42.11663 -4.9676,-58.09935 -16.09071,-15.98272 -36.28125,7.34341 -59.39525,-5.83153 -23.114,-13.17495 -11.40464,-41.1693 -33.06076,-46.86825 z"
   stroke-linecap="round"
   id="path17056-9" />&#10;</g><circle
     style="fill:url(#linearGradient4);fill-opacity:1;stroke:none;stroke-width:26.5093;stroke-linecap:round;stroke-linejoin:round;stroke-miterlimit:10"
     id="path427-22-7-1-7"
     cx="-102.12763"
     cy="182.52502"
     transform="rotate(-70.999999)"
     r="9.0150213" /><circle
     style="fill:url(#linearGradient4-4);fill-opacity:1;stroke:none;stroke-width:26.5093;stroke-linecap:round;stroke-linejoin:round;stroke-miterlimit:10"
     id="path427-22-7-1-7-5"
     cx="-125.71085"
     cy="144.83319"
     transform="rotate(-70.999999)"
     r="9.0150213" /><circle
     style="fill:url(#linearGradient4-5);fill-opacity:1;stroke:none;stroke-width:26.5093;stroke-linecap:round;stroke-linejoin:round;stroke-miterlimit:10"
     id="path427-22-7-1-7-1"
     cx="-90.214706"
     cy="112.35681"
     transform="rotate(-70.999999)"
     r="9.0150213" /><circle
     style="fill:url(#linearGradient4-3);fill-opacity:1;stroke:none;stroke-width:26.5093;stroke-linecap:round;stroke-linejoin:round;stroke-miterlimit:10"
     id="path427-22-7-1-7-2"
     cx="-125.62273"
     cy="94.514893"
     transform="rotate(-70.999999)"
     r="9.0150213" /><circle
     style="fill:url(#linearGradient4-7);fill-opacity:1;stroke:none;stroke-width:26.5093;stroke-linecap:round;stroke-linejoin:round;stroke-miterlimit:10"
     id="path427-22-7-1-7-17"
     cx="-68.567169"
     cy="143.03465"
     transform="rotate(-70.999999)"
     r="9.0150213" /><circle
     style="fill:url(#linearGradient4-78);fill-opacity:1;stroke:none;stroke-width:26.5093;stroke-linecap:round;stroke-linejoin:round;stroke-miterlimit:10"
     id="path427-22-7-1-7-4"
     cx="-59.844368"
     cy="191.17285"
     transform="rotate(-70.999999)"
     r="9.0150213" /><circle
     style="fill:url(#linearGradient4-1);fill-opacity:1;stroke:none;stroke-width:26.5093;stroke-linecap:round;stroke-linejoin:round;stroke-miterlimit:10"
     id="path427-22-7-1-7-58"
     cx="-37.926807"
     cy="144.29178"
     transform="rotate(-70.999999)"
     r="9.0150213" /><circle
     style="fill:url(#linearGradient4-8);fill-opacity:1;stroke:none;stroke-width:26.5093;stroke-linecap:round;stroke-linejoin:round;stroke-miterlimit:10"
     id="path427-22-7-1-7-7"
     cx="-15.344606"
     cy="176.634"
     transform="rotate(-70.999999)"
     r="9.0150213" /><circle
     style="fill:url(#linearGradient4-58);fill-opacity:1;stroke:none;stroke-width:26.5093;stroke-linecap:round;stroke-linejoin:round;stroke-miterlimit:10"
     id="path427-22-7-1-7-6"
     cx="-42.897144"
     cy="99.816711"
     transform="rotate(-70.999999)"
     r="9.0150213" /><circle
     style="fill:url(#linearGradient4-52);fill-opacity:1;stroke:none;stroke-width:26.5093;stroke-linecap:round;stroke-linejoin:round;stroke-miterlimit:10"
     id="path427-22-7-1-7-15"
     cx="-76.190903"
     cy="67.497726"
     transform="rotate(-70.999999)"
     r="9.0150213" /><circle
     style="fill:url(#linearGradient4-10);fill-opacity:1;stroke:none;stroke-width:26.5093;stroke-linecap:round;stroke-linejoin:round;stroke-miterlimit:10"
     id="path427-22-7-1-7-76"
     cx="-25.271349"
     cy="67.944267"
     transform="rotate(-70.999999)"
     r="9.0150213" /><circle
     style="fill:url(#linearGradient4-9);fill-opacity:1;stroke:none;stroke-width:26.5093;stroke-linecap:round;stroke-linejoin:round;stroke-miterlimit:10"
     id="path427-22-7-1-7-28"
     cx="3.0360742"
     cy="125.20324"
     transform="rotate(-70.999999)"
     r="9.0150213" /></g></svg>
