<svg xmlns="http://www.w3.org/2000/svg" xml:space="preserve" width="120.883" height="51.303" viewBox="0 0 31.984 13.574"><defs><clipPath id="i" clipPathUnits="userSpaceOnUse"><path fill="#fff" d="M14.955-137.578h235.534V97.956H14.955z" style="stroke-width:2.14122" transform="rotate(30)"/></clipPath><clipPath id="h" clipPathUnits="userSpaceOnUse"><path fill="#fff" d="M14.955-137.578h235.534V97.956H14.955z" style="stroke-width:2.14122" transform="rotate(30)"/></clipPath><clipPath id="g" clipPathUnits="userSpaceOnUse"><path fill="#fff" d="M14.955-137.578h235.534V97.956H14.955z" style="stroke-width:2.14122" transform="rotate(30)"/></clipPath><clipPath id="f" clipPathUnits="userSpaceOnUse"><path fill="#fff" d="M14.955-137.578h235.534V97.956H14.955z" style="stroke-width:2.14122" transform="rotate(30)"/></clipPath><clipPath id="e" clipPathUnits="userSpaceOnUse"><path fill="#fff" d="M14.955-137.578h235.534V97.956H14.955z" style="stroke-width:2.14122" transform="rotate(30)"/></clipPath><clipPath id="d" clipPathUnits="userSpaceOnUse"><path fill="#fff" d="M14.955-137.578h235.534V97.956H14.955z" style="stroke-width:2.14122" transform="rotate(30)"/></clipPath><clipPath id="c" clipPathUnits="userSpaceOnUse"><path fill="#fff" d="M14.955-137.578h235.534V97.956H14.955z" style="stroke-width:2.14122" transform="rotate(30)"/></clipPath><clipPath id="b" clipPathUnits="userSpaceOnUse"><path fill="#fff" d="M14.955-137.578h235.534V97.956H14.955z" style="stroke-width:2.14122" transform="rotate(30)"/></clipPath><clipPath id="a" clipPathUnits="userSpaceOnUse"><path fill="#fff" d="M14.955-137.578h235.534V97.956H14.955z" style="stroke-width:2.14122" transform="rotate(30)"/></clipPath></defs><g transform="rotate(-15.003 22.887 5.968)scale(.11925)"><path fill="#463c2f" stroke="#3d3429" stroke-miterlimit="3.994" stroke-width=".542" d="M227.33 20.113h-8.082c-.222 0-.4.15-.401.335v3.885c0 .186.18.336.4.336h8.083c.222 0 .401-.15.401-.336v-3.885c0-.185-.18-.335-.4-.335z" style="stroke-width:2.11667;stroke-dasharray:none"/><path fill="#9e7543" d="M149.61 34.027v7.152h6.23l1.304-1.146h62.968v-6.007z" style="fill:#8d683c;fill-opacity:1;stroke-width:2.11667;stroke-dasharray:none"/><path fill="#413c35" d="m123.36 58.585 20.163-1.262c-.03 11.463 2.194 24.691 5.453 36.925l-19.179 5.21c-3.66-13.002-6.39-27.37-6.437-40.873Z" clip-path="url(#a)" style="stroke:#2c2724;stroke-width:2.11667;stroke-dasharray:none;stroke-opacity:1" transform="translate(-.368 -5.888)"/><path stroke="#38342e" stroke-linecap="round" stroke-miterlimit="3.994" stroke-width="1.085" d="m123.36 58.585 20.163-1.262c-.03 11.463 2.194 24.691 5.453 36.925l-19.179 5.21c-3.66-13.002-6.39-27.37-6.437-40.873Z" clip-path="url(#b)" style="fill:none;stroke-width:2.1291;stroke-dasharray:none" transform="translate(-.368 -5.888)"/><path fill="#3e3932" stroke="#38342e" stroke-linecap="round" stroke-miterlimit="3.994" stroke-width=".542" d="m142.3 90.075 6.311-1.715c-3.258-12.234-5.482-25.462-5.452-36.924l-6.328.396c.494 14.914 1.842 23.844 5.468 38.243z" style="stroke:#2c2724;stroke-width:2.11667;stroke-dasharray:none;stroke-opacity:1"/><path fill="#3e3932" stroke="#38342e" stroke-linecap="round" stroke-miterlimit="3.994" stroke-width=".542" d="m129.858 58.178-6.5.407c.049 13.503 2.779 27.87 6.439 40.873l5.908-1.606c-3.827-14.822-5.758-24.041-5.847-39.674z" clip-path="url(#c)" style="stroke:#2c2724;stroke-width:2.11667;stroke-dasharray:none;stroke-opacity:1" transform="translate(-.368 -5.888)"/><path fill="#413c35" stroke="#38342e" stroke-linecap="round" stroke-miterlimit="3.994" stroke-width="1.085" d="m147.279 89.793-18.023 4.976a1.725 1.725 0 0 0-1.212 2.014l.45 2.027a1.524 1.524 0 0 0 1.913 1.151l18.022-4.975a1.724 1.724 0 0 0 1.212-2.014l-.449-2.027a1.524 1.524 0 0 0-1.913-1.152z" clip-path="url(#d)" style="stroke:#2c2824;stroke-width:2.11667;stroke-dasharray:none;stroke-opacity:1" transform="translate(-.368 -5.888)"/><path fill="#3e3932" stroke="#38332e" stroke-miterlimit="3.994" stroke-width=".542" d="M107.638 55.266c-1.738-3.53-1.549-5.53 1.561-9.074h-4.233c-1.74 3.936-1.297 6.057 1.64 9.709.493.613 1.417.146 1.032-.635z" style="fill:#464139;fill-opacity:1;stroke-width:2.1291;stroke-dasharray:none"/><path fill="#9e7543" d="m75.347 22.327 144.765.148v-5.977H75.334z" style="fill:#8c673b;fill-opacity:1;stroke:#000;stroke-width:2.1291;stroke-linecap:round;stroke-linejoin:round;stroke-dasharray:none;stroke-opacity:1"/><path fill="#a97d47" d="M75.384 21.648h144.722v12.747l-69.228-.07v1.893h-48.33l-18.394-6.914h-8.77z" style="stroke:#48351e;stroke-width:2.11667;stroke-linecap:round;stroke-linejoin:round;stroke-dasharray:none;stroke-opacity:1"/><path fill="#9a7241" d="M75.386 40.231V29.305h8.77l18.395 3.661h47.242v8.128l-5.127 1.642v6.924l.478 1.504-22.563 4.301v-7.207c0-.963-.78-1.743-1.742-1.743h-6.356l-2.704-.22h-10.081c-5.765 0-13.517-1.56-21.025-4.413-1.76-.56-3.53-1.123-5.287-1.65" style="fill:#a77c47;fill-opacity:1;stroke:#48351e;stroke-width:2.11667;stroke-linecap:round;stroke-linejoin:round;stroke-dasharray:none;stroke-opacity:1"/><path fill="#9e7543" stroke="#48351e" stroke-linecap="round" stroke-miterlimit="3.994" stroke-width=".542" d="m75.333 16.497-5.303 2.749-5.638 11.661.05 9.327h10.944z" style="stroke-width:2.11667;stroke-linejoin:round;stroke-dasharray:none"/><path fill="#463c2f" stroke="#3d3429" stroke-linecap="round" stroke-miterlimit="3.994" stroke-width="1.085" d="m240.64 27.94-9.63.005-1.092.652h-9.81v3.88h9.81l1.093.633h9.629z" style="stroke-width:2.11667;stroke-dasharray:none"/><path fill="#b0824a" d="m149.609 21.92 70.502-.001v11.275H149.61v-6.53z" style="stroke-width:2.1291;stroke-dasharray:none"/><path fill="#946d3d" d="M84.148 50.872c-.083-2.806-.404-6.015-1.787-8.372 6.825 2.409 13.713 3.74 19.005 3.794-2.553 3.23-3.804 6.751-2.644 8.577l-1.06 1.239c-.936.312-1.65 1.081-2.29 1.999l-.086-.053c.188-.811-.008-1.397-.213-2.009-.26-.777-.534-1.595-.054-2.969.914-2.989-.867-3.495-4.293-4.472l-.855-.245c-2.036-.747-3.782-.653-5.547 2.21z" style="fill:#8b6739;fill-opacity:1;stroke:#48351e;stroke-width:2.11667;stroke-linejoin:round;stroke-dasharray:none;stroke-opacity:1"/><path fill="#8c683b" d="M84.327 50.575c1.764-2.864 3.51-2.958 5.546-2.21 3.978 1.154 6.136 1.488 5.148 4.716-.902 2.58.859 3.202.186 5.267l-7.934 18.085v1.784a.58.58 0 0 1-.83.525l-3.446-1.634-.248-1.065-4.963-2.28-1.131.414-4.641-2.634z" style="stroke:#48351e;stroke-width:2.11667;stroke-linecap:round;stroke-linejoin:round;stroke-dasharray:none;stroke-opacity:1"/><path fill="#856238" d="m82.75 76.043.247 1.065-6.342-2.931 1.132-.415z" style="stroke-width:2.1291;stroke-dasharray:none"/><path fill="#856237" d="M139.546 41.765a1.16 1.16 0 0 0-1.173-1.16l-7.646.082a1.16 1.16 0 0 0-.747.283l-1.876 1.622c-.256.22-.402.541-.402.878v5.701a1.16 1.16 0 0 0 1.368 1.142l9.522-1.724c.552-.1.954-.581.954-1.142z" style="fill:#6a4f2e;fill-opacity:1;stroke:#48351e;stroke-width:1.05833;stroke-dasharray:none;stroke-opacity:1"/><path fill="#464039" d="M80.556 35.078a1.48 1.48 0 1 0 0-2.962 1.48 1.48 0 0 0 0 2.962z" style="stroke:#38352e;stroke-width:1.05833;stroke-dasharray:none;stroke-opacity:1"/><path fill="#7a5c38" stroke="#7a5c38" stroke-linecap="round" stroke-miterlimit="3.994" stroke-width=".084" d="M120.04 36.398h-4.936c-.629 0-1.138.51-1.139 1.14v4.935c0 .63.51 1.14 1.14 1.14h4.935c.63 0 1.14-.51 1.14-1.14v-4.935c0-.63-.51-1.14-1.14-1.14z" style="fill:#6a4f2e;fill-opacity:1;stroke:#48351e;stroke-width:1.05833;stroke-dasharray:none;stroke-opacity:1"/><path fill="#464039" d="M145.782 40.837c.851 0 1.542-.69 1.542-1.544a1.543 1.543 0 1 0-3.084 0c0 .853.69 1.544 1.542 1.544z" style="stroke:#38352e;stroke-width:1.05833;stroke-dasharray:none;stroke-opacity:1"/><path fill="#4c4133" stroke="#3d3429" stroke-miterlimit="3.994" stroke-width=".542" d="M225.228 18.992h-1.492a.813.813 0 0 0-.813.813v5.166c0 .45.364.813.813.813h1.492c.45 0 .813-.364.814-.813v-5.166a.814.814 0 0 0-.814-.813z" style="stroke-width:2.11667;stroke-dasharray:none"/><path fill="#97703f" d="m199.583 16.498 5.123-6.22-.352-3.9c-.4-2.742-2.37-4.845-4.739-4.845-.449.947.667 1.433-.22 2.103z" style="stroke-width:2.1291;stroke-dasharray:none"/><path fill="#464039" d="M89.741 27.151a1.32 1.32 0 1 0 0-2.64 1.32 1.32 0 0 0 0 2.64zM80.557 26.56a1.48 1.48 0 1 0 0-2.96 1.48 1.48 0 0 0 0 2.96zM211.874 29.944a1.83 1.83 0 0 0 1.828-1.831 1.83 1.83 0 0 0-1.828-1.832 1.83 1.83 0 0 0-1.828 1.831 1.83 1.83 0 0 0 1.828 1.832zM158.026 29.944a1.83 1.83 0 0 0 1.828-1.831 1.83 1.83 0 0 0-1.828-1.832 1.83 1.83 0 0 0-1.828 1.831 1.83 1.83 0 0 0 1.828 1.832z" style="stroke:#38352e;stroke-width:1.05833;stroke-dasharray:none;stroke-opacity:1"/><path fill="#9a7241" d="M8.62 28.48V69.26l9.595-1.72 3.726-11.08-1.012-1.977c1.213-4.128 2.095-7.313 7.158-7.313l24.396-.196V34.272h-36.17l-3.809-5.792z" clip-path="url(#e)" style="stroke-width:2.11667;stroke-dasharray:none" transform="translate(-.368 -5.888)"/><path fill="#90673c" stroke="#48351e" stroke-miterlimit="3.994" stroke-width=".542" d="m24.647 47.91.222-.42-16.05-.094v21.751l9.422-1.683 3.7-11.002-1.012-1.977.039-.132c.846-2.881 1.553-5.287 3.679-6.443z" clip-path="url(#f)" style="stroke-width:2.11667;stroke-linejoin:round;stroke-dasharray:none" transform="translate(-.368 -5.888)"/><path stroke="#48351e" stroke-linecap="round" stroke-miterlimit="3.994" stroke-width="1.085" d="M8.62 28.48V69.26l9.595-1.72 3.726-11.08-1.012-1.977c1.213-4.128 2.095-7.313 7.158-7.313l24.396-.196V34.272h-36.17l-3.809-5.792z" clip-path="url(#g)" style="fill:none;stroke-width:2.11667;stroke-linejoin:round;stroke-dasharray:none" transform="translate(-.368 -5.888)"/><path fill="#504a42" stroke="#38342e" stroke-linecap="round" stroke-miterlimit="3.994" stroke-width="1.085" d="M3.848 28.477h4.77V69.26a57 57 0 0 1-5.122.835c-1.242.071-1.486-.237-1.772-1.294-.303-1.363-.234-2.47-.148-4.334.438-9.583 1.598-20.574.252-32.569-.363-2.85 0-3.42 2.02-3.42Z" clip-path="url(#h)" style="stroke-width:2.11667;stroke-dasharray:none" transform="translate(-.368 -5.888)"/><path fill="#464039" d="M14.575 41.236a1.888 1.888 0 1 0 0-3.776 1.888 1.888 0 0 0 0 3.776z" clip-path="url(#i)" style="stroke:#38352e;stroke-width:1.05833;stroke-dasharray:none;stroke-opacity:1" transform="translate(-.368 -5.888)"/><path fill="#7d5c35" d="M43.8 33.712h-3.194a.737.737 0 0 0-.737.738v3.194c0 .407.33.737.737.737H43.8c.407 0 .737-.33.737-.738V34.45a.737.737 0 0 0-.737-.738zM71.792 26.009h-1.116a.737.737 0 0 0-.737.737v10.072c0 .407.33.737.738.737h1.115c.407 0 .737-.33.737-.737V26.746a.737.737 0 0 0-.737-.737z" style="stroke:#48351e;stroke-width:1.05833;stroke-dasharray:none;stroke-opacity:1"/><path fill="#8c673a" d="M52.166 28.43h12.231V38.76H52.166z" style="stroke-width:2.1291;stroke-dasharray:none"/><path fill="#936d3e" d="M59.824 30.906h-3.085v7.759h3.084z" style="stroke:#48351e;stroke-width:2.11667;stroke-linecap:round;stroke-linejoin:round;stroke-dasharray:none;stroke-opacity:1"/><path stroke="#48351e" stroke-linecap="round" stroke-miterlimit="3.994" stroke-width="1.085" d="M52.166 28.43h12.231V38.76H52.166z" style="fill:none;stroke-width:2.11667;stroke-linejoin:round;stroke-dasharray:none"/><path fill="#a57a46" stroke="#48351e" stroke-linecap="round" stroke-miterlimit="3.994" stroke-width="1.085" d="m28.783 21.41 41.25-2.164-5.637 11.662-38.534-.05-.694-6.743c-.298-2.883 2.138-2.63 3.615-2.704" style="stroke-width:2.11667;stroke-linejoin:round;stroke-dasharray:none"/><path d="M26.371 25.99s.846-2.212 2.342-2.212c1.497 0 38.84-1.821 38.84-1.821l.651-1.497-41.052 2.082s-1.397-.254-.91 1.562z" style="fill:#906a3d;fill-opacity:1;fill-rule:evenodd;stroke:none;stroke-width:1.05833;stroke-linecap:round;stroke-linejoin:round;stroke-miterlimit:29;stroke-dasharray:none;stroke-opacity:1"/><path fill="#464039" d="M29.124 26.559a1.48 1.48 0 1 0 0-2.961 1.48 1.48 0 0 0 0 2.96z" style="stroke:#38352e;stroke-width:1.05833;stroke-dasharray:none;stroke-opacity:1"/><path stroke="#48351e" stroke-linecap="round" stroke-miterlimit="3.994" stroke-width=".542" d="M103.069 46.518h11.42c1.624 0 3.06.755 3.035 3.093v4.194c-.013 1.246-.664 3.27-2.317 3.516l-8.279 1.236-6.716-2.243c-1.766-.59-2.899-2.684-1.174-5.693l2-3.353c.548-.917 1.033-.75 2.03-.75z" style="fill:none;stroke-width:2.1291;stroke-dasharray:none"/><path fill="#413b35" d="M145.915 18.34a.726.726 0 1 0 0 1.452h38.543a.726.726 0 0 0 0-1.452z" style="fill:#464039;fill-opacity:1;stroke:#38352e;stroke-width:1.05833;stroke-dasharray:none;stroke-opacity:1"/><path fill="#8c683b" stroke="#48351e" stroke-miterlimit="3.994" stroke-width=".542" d="m117.539 54.498-.02-.544.005-4.343c.006-.553-.07-1.016-.21-1.403a2.36 2.36 0 0 0-1.144-1.328 3.2 3.2 0 0 0-1.1-.327 5 5 0 0 0-.58-.035h-.007 6.355c.962 0 1.743.78 1.742 1.742v7.208l-4.803 2.102-11.605 1.435-8.51-2.893 1.06-1.239 7.45 2.697 9.13-1.011c1.143-.251 1.714-.99 2.236-2.061z" style="stroke-width:2.11667;stroke-linejoin:round;stroke-dasharray:none"/><path fill="#936d3e" d="M149.608 33.293v-3.986H84.159l18.394 3.986z" style="fill:#ad8049;fill-opacity:1;stroke:#48351e;stroke-width:2.11667;stroke-linejoin:round;stroke-dasharray:none;stroke-opacity:1"/><path fill="#70675c" d="M117.89 24.798h24.26c.84 0 1.518.678 1.518 1.519v2.86c0 .84-.677 1.518-1.519 1.518H117.89z" style="stroke-width:2.1291;stroke-dasharray:none"/><path fill="#544d45" d="M118.95 27.543a.58.58 0 1 0 0 1.161h11.838a.581.581 0 0 0 0-1.16z" style="stroke-width:2.1291;stroke-dasharray:none"/><circle cx="119.919" cy="27.192" r=".933" fill="#625a50" style="stroke-width:2.1291;stroke-dasharray:none"/><path stroke="#38332e" stroke-linecap="square" stroke-miterlimit="3.994" stroke-width=".542" d="M117.89 24.798h24.26c.84 0 1.518.678 1.518 1.519v2.86c0 .84-.677 1.518-1.519 1.518H117.89z" style="fill:none;stroke-width:2.11667;stroke-linecap:round;stroke-linejoin:round;stroke-dasharray:none"/><path fill="#796349" stroke="#403426" stroke-linecap="square" stroke-miterlimit="3.994" stroke-width=".542" d="M117.885 24.793h-7.288v7.194h7.288z" style="fill:#745c3e;fill-opacity:1;stroke:#423424;stroke-width:2.11667;stroke-linecap:round;stroke-linejoin:round;stroke-dasharray:none;stroke-opacity:1"/><path stroke="#48351e" stroke-width="1.085" d="m75.334 16.497-5.305 2.748-5.637 11.661.05 9.326h10.943c1.757.528 3.528 1.091 5.288 1.651q.843.32 1.688.62c1.384 2.356 1.704 5.565 1.787 8.37L72.011 71.542l4.641 2.634 6.342 2.93 3.448 1.635a.58.58 0 0 0 .83-.525v-1.784l7.933-18.085.166-.236c.641-.918 1.355-1.687 2.292-2l8.51 2.893 11.604-1.435 4.804-2.102 22.563-4.301-.479-1.504v-6.924l4.94-1.56h6.229l1.305-1.146h62.973V16.497z" style="fill:none;stroke-width:2.11667;stroke-linecap:round;stroke-linejoin:round;stroke-dasharray:none"/><path fill="#97703f" d="m87.393 10.808-5.356 5.69V1.3h1.972c1.391 0 3.384 1.9 3.384 4.568z" style="stroke-width:2.1291;stroke-dasharray:none"/><path fill="#8c673a" stroke="#48351e" stroke-linecap="round" stroke-miterlimit="3.994" stroke-width=".542" d="m82.037 16.497 5.356-5.688h3.005l7.092.607 1.19 5.081z" style="stroke-width:2.11667;stroke-linejoin:round;stroke-dasharray:none"/><path stroke="#48351e" stroke-linecap="round" stroke-miterlimit="3.994" stroke-width="1.085" d="M87.393 10.808v-4.94C87.393 3.2 85.4 1.3 84.009 1.3h-1.972v15.197h16.642l-1.19-5.082-7.092-.606z" style="fill:none;stroke-width:2.11667;stroke-linejoin:round;stroke-dasharray:none"/><path fill="#8c673a" stroke="#48351e" stroke-linecap="round" stroke-miterlimit="3.994" stroke-width=".542" d="m204.337 10.092-4.754 6.403h5.122z" style="stroke-width:2.11667;stroke-dasharray:none"/><path stroke="#48351e" stroke-linecap="round" stroke-miterlimit="3.994" stroke-width="1.085" d="m199.583 16.498-.188-12.862c0-.937-.083-1.287.22-2.103 2.37 0 4.34 2.103 4.74 4.846l.35 3.9v6.218z" style="fill:none;stroke-width:2.11667;stroke-linejoin:round;stroke-dasharray:none"/><path stroke="#48351e" stroke-width=".542" d="m149.609 21.92 70.502-.001v18.116h-62.968l-1.305 1.147h-6.229V26.663z" style="fill:none;stroke-width:2.11667;stroke-linecap:round;stroke-linejoin:round;stroke-dasharray:none"/><path fill="#7d5c35" d="M97.696 48.034a2.564 2.564 0 1 0-2.564-4.441 2.564 2.564 0 0 0 2.564 4.44z" style="fill:#6b4f2e;fill-opacity:1;stroke:#463520;stroke-width:1.05833;stroke-dasharray:none;stroke-opacity:1" transform="rotate(30 107.285 41.305)"/><path stroke="#7a5c38" stroke-miterlimit="3.994" stroke-width=".136" d="m95.2 47.69-3.3 1.905a.445.445 0 0 1-.609-.163l-.57-.988a.445.445 0 0 1 .163-.609l3.3-1.905" style="fill:#6b4f2e;fill-opacity:1;stroke:#463520;stroke-width:1.05833;stroke-dasharray:none;stroke-opacity:1" transform="rotate(30 107.285 41.305)"/><path d="m98.243 43.818.813 1.409.671-1.327z" style="fill:#6b4f2e;fill-opacity:1;fill-rule:evenodd;stroke:#463520;stroke-width:1.05833;stroke-linecap:round;stroke-linejoin:round;stroke-miterlimit:29;stroke-dasharray:none;stroke-opacity:1" transform="rotate(30 107.285 41.305)"/><path d="M101.07 45.16h1.43s.902-.017.902.502c0 .52-.903.501-.903.501h-1.428zM103.743 45.16h1.43s.901-.017.901.502c0 .52-.902.501-.902.501h-1.429zM106.416 45.16h1.429s.902-.017.902.502c0 .52-.902.501-.902.501h-1.429zM109.09 45.16h1.428s.902-.017.902.502c0 .52-.902.501-.902.501h-1.429z" style="fill:#6b4f2e;fill-opacity:1;fill-rule:evenodd;stroke:none;stroke-width:.407743;stroke-linecap:round;stroke-linejoin:round;stroke-miterlimit:29;stroke-dasharray:none;stroke-opacity:1" transform="translate(-.368 -5.888)"/><path d="M94.255 34.13h1.67s1.053-.022 1.053.585-1.054.586-1.054.586h-1.669z" style="fill:#6b4f2e;fill-opacity:1;fill-rule:evenodd;stroke:none;stroke-width:.476339;stroke-linecap:round;stroke-linejoin:round;stroke-miterlimit:29;stroke-dasharray:none;stroke-opacity:1"/><path d="M99.37 48.284h1.67s1.054-.02 1.054.586c0 .607-1.054.586-1.054.586h-1.67z" style="fill:#6b4f2e;fill-opacity:1;fill-rule:evenodd;stroke:none;stroke-width:.476339;stroke-linecap:round;stroke-linejoin:round;stroke-miterlimit:29;stroke-dasharray:none;stroke-opacity:1" transform="translate(-13.965 -9.096)"/><path d="m71.268 56.115.691.186-.943 3.519-.691-.185z" style="fill:#6b4f2e;fill-opacity:1;fill-rule:evenodd;stroke:none;stroke-width:1.05833;stroke-linecap:round;stroke-linejoin:round;stroke-miterlimit:29;stroke-dasharray:none;stroke-opacity:1" transform="rotate(38.473 105.024 71.259)"/><path d="M69.32 58.325v-.715h3.644v.715z" style="fill:#6b4f2e;fill-opacity:1;fill-rule:evenodd;stroke:none;stroke-width:1.05833;stroke-linecap:round;stroke-linejoin:round;stroke-miterlimit:29;stroke-dasharray:none;stroke-opacity:1" transform="rotate(38.473 105.024 71.259)"/><path d="M152.272 28.798h2.76v2.576h-2.76zM215.635 28.798h2.76v2.576h-2.76zM157.146 28.798h2.76v2.576h-2.76zM162.02 28.798h2.76v2.576h-2.76zM166.895 28.798h2.76v2.576h-2.76zM171.769 28.798h2.76v2.576h-2.76zM176.643 28.798h2.76v2.576h-2.76zM181.517 28.798h2.76v2.576h-2.76zM186.391 28.798h2.76v2.576h-2.76zM191.265 28.798h2.76v2.576h-2.76zM196.139 28.798h2.76v2.576h-2.76zM201.013 28.798h2.76v2.576h-2.76zM205.887 28.798h2.76v2.576h-2.76zM210.761 28.798h2.76v2.576h-2.76z" style="fill:#48351e;fill-opacity:1;fill-rule:evenodd;stroke:none;stroke-width:.715854;stroke-linecap:round;stroke-linejoin:round;stroke-miterlimit:29;stroke-dasharray:none;stroke-opacity:1" transform="matrix(1 0 0 .84848 -.368 -1.655)"/><path d="M152.272 28.798h2.76v2.576h-2.76zM215.635 28.798h2.76v2.576h-2.76zM157.146 28.798h2.76v2.576h-2.76zM162.02 28.798h2.76v2.576h-2.76zM166.895 28.798h2.76v2.576h-2.76zM171.769 28.798h2.76v2.576h-2.76zM176.643 28.798h2.76v2.576h-2.76zM181.517 28.798h2.76v2.576h-2.76zM186.391 28.798h2.76v2.576h-2.76zM191.265 28.798h2.76v2.576h-2.76zM196.139 28.798h2.76v2.576h-2.76zM201.013 28.798h2.76v2.576h-2.76zM205.887 28.798h2.76v2.576h-2.76zM210.761 28.798h2.76v2.576h-2.76z" style="fill:#48351e;fill-opacity:1;fill-rule:evenodd;stroke:none;stroke-width:.715854;stroke-linecap:round;stroke-linejoin:round;stroke-miterlimit:29;stroke-dasharray:none;stroke-opacity:1" transform="matrix(1 0 0 .84848 -.368 6.825)"/><path d="M152.272 28.798h2.76v2.576h-2.76zM157.146 28.798h2.76v2.576h-2.76zM162.02 28.798h2.76v2.576h-2.76zM166.895 28.798h2.76v2.576h-2.76zM171.769 28.798h2.76v2.576h-2.76zM176.643 28.798h2.76v2.576h-2.76zM181.517 28.798h2.76v2.576h-2.76zM186.391 28.798h2.76v2.576h-2.76zM191.265 28.798h2.76v2.576h-2.76zM196.139 28.798h2.76v2.576h-2.76zM201.013 28.798h2.76v2.576h-2.76zM205.887 28.798h2.76v2.576h-2.76zM210.761 28.798h2.76v2.576h-2.76z" style="fill:#48351e;fill-opacity:1;fill-rule:evenodd;stroke:none;stroke-width:.715854;stroke-linecap:round;stroke-linejoin:round;stroke-miterlimit:29;stroke-dasharray:none;stroke-opacity:1" transform="matrix(1 0 0 .84848 5.728 15.842)"/><path d="M76.96 20.05h2.76v2.186h-2.76zM101.785 20.05h2.76v2.186h-2.76zM106.75 20.05h2.76v2.186h-2.76zM111.715 20.05h2.76v2.186h-2.76zM116.68 20.05h2.76v2.186h-2.76zM121.646 20.05h2.76v2.186h-2.76zM126.611 20.05h2.76v2.186h-2.76zM131.576 20.05h2.76v2.186h-2.76zM136.541 20.05h2.76v2.186h-2.76zM156.401 20.05h2.76v2.186h-2.76zM141.506 20.05h2.76v2.186h-2.76zM146.471 20.05h2.76v2.186h-2.76zM151.436 20.05h2.76v2.186h-2.76zM161.366 20.05h2.76v2.186h-2.76zM166.331 20.05h2.76v2.186h-2.76zM171.296 20.05h2.76v2.186h-2.76zM176.261 20.05h2.76v2.186h-2.76zM181.226 20.05h2.76v2.186h-2.76zM186.191 20.05h2.76v2.186h-2.76zM191.156 20.05h2.76v2.186h-2.76zM196.121 20.05h2.76v2.186h-2.76zM206.052 20.05h2.76v2.186h-2.76zM211.017 20.05h2.76v2.186h-2.76zM215.982 20.05h2.76v2.186h-2.76z" style="fill:#48351e;fill-opacity:1;fill-rule:evenodd;stroke:none;stroke-width:.659393;stroke-linecap:round;stroke-linejoin:round;stroke-miterlimit:29;stroke-dasharray:none;stroke-opacity:1" transform="translate(-.368 -6.019)"/><path d="m74.894 72.042 13.383-23.045s-1.652-.325-3.124 2.16L73.33 71.166ZM84.14 76.596l2.255 1.058-.23-1.38 8.189-18.493s-.22-2.836-.69-1.84a24486 24486 0 0 0-9.523 20.655" style="fill:#775b34;fill-opacity:1;fill-rule:evenodd;stroke:none;stroke-width:2.11667;stroke-linecap:round;stroke-linejoin:round;stroke-miterlimit:29;stroke-dasharray:none;stroke-opacity:1"/><path fill="#464039" d="M89.067 14.79a1.145 1.145 0 1 0 0-2.29 1.145 1.145 0 0 0 0 2.29z" style="stroke:#38352e;stroke-width:1.05833;stroke-dasharray:none;stroke-opacity:1"/><path d="M229.84 25.004h43.713v11.041H229.84z" style="fill:#55493a;fill-opacity:1;fill-rule:evenodd;stroke:#3d3429;stroke-width:2.11667;stroke-linecap:round;stroke-linejoin:round;stroke-miterlimit:29;stroke-dasharray:none;stroke-opacity:1"/><path d="M230.83 27.78h41.637v-1.825H230.83zM230.83 35.037h41.637v-1.76H230.83z" style="fill:#463c2f;fill-opacity:1;fill-rule:evenodd;stroke:none;stroke-width:2.12331;stroke-linecap:round;stroke-linejoin:round;stroke-miterlimit:29;stroke-dasharray:none;stroke-opacity:1"/></g></svg>