<svg width="110" height="110" viewBox="0 0 110 110" fill="none" xmlns="http://www.w3.org/2000/svg">
<g clip-path="url(#clip0_619_1191)">
<path d="M83.8589 32.7125L85.1369 31.9746L83.9909 29.9897L82.7286 30.7185L83.8589 32.7125Z" fill="#3A3A3A" stroke="#333333" stroke-width="0.572369"/>
<path d="M103.263 19.0774L84.084 30.1504L85.1061 31.9207L104.505 20.721L104.13 20.5795L103.263 19.0774Z" fill="#393939" stroke="#333333" stroke-width="0.572369"/>
<path d="M85.1369 31.9746L83.8589 32.7125L82.7286 30.7185L83.9909 29.9897L84.0838 30.1506L103.263 19.0776L104.13 20.5797L104.504 20.7213L85.1059 31.9209L85.1369 31.9746Z" stroke="#333333" stroke-width="1.14474"/>
<path d="M82.1798 29.7478L83.9709 28.7137L82.4533 26.085L80.6829 27.1071L82.1798 29.7478Z" fill="#3A3A3A"/>
<path d="M82.7294 30.7186L83.9917 29.9898L83.4342 29.0241L82.1795 29.7485L82.7294 30.7186Z" fill="#333333"/>
<path d="M51.5222 56.3879L52.2143 55.6664L52.7511 56.2864L51.77 56.8171L51.5222 56.3879Z" fill="#363636"/>
<path d="M51.9517 55.3276C55.2287 59.6378 58.3021 62.244 61.9234 64.1588C65.9476 66.2867 70.2249 68.0924 77.2829 68.2376L77.8168 59.5606C73.4478 59.3649 70.4737 58.5587 67.6717 57.2278C64.8295 55.8777 62.1431 54.0099 59.3812 50.5949L51.9517 55.3276Z" fill="#3D3D3D"/>
<path d="M77.6988 61.7094C72.8876 61.4736 69.1654 60.272 65.7731 58.7118C62.6202 57.2616 59.8846 55.0665 57.1551 52.0125L59.3773 50.597C62.1451 54.0251 64.8366 55.8977 67.6846 57.2505C70.4865 58.5815 73.4606 59.3877 77.8296 59.5833L77.6988 61.7094Z" fill="#3D3D3D"/>
<path d="M42.4947 61.3519L45.0107 59.7491C44.4989 60.8091 44.7742 61.5317 45.1023 61.9556C45.4313 62.3808 45.8275 62.753 47.1864 62.5049C47.4452 62.4576 47.5259 62.8452 47.1958 62.8929C45.5738 63.1272 44.94 62.912 44.1204 61.5927C43.4698 61.874 43.0979 61.8034 42.4947 61.3519Z" fill="#383838" stroke="#333333" stroke-width="0.572369"/>
<path d="M48.8122 57.3282L51.269 55.7632L52.7608 58.2859C52.9466 58.6077 52.7425 59.3693 52.4207 59.5552L51.0795 60.3295C51.3892 60.8659 50.9324 61.8092 50.5837 62.0105L45.7678 65.0056C45.1509 65.3617 44.0467 64.9979 43.8608 64.676L42.1164 61.5935L42.4044 61.4101L43.9969 64.1683C44.2756 64.6511 45.1755 64.8468 45.6315 64.5836L50.3019 61.7083C50.731 61.4605 50.8701 60.7722 50.7308 60.5308L48.8122 57.3282Z" fill="#3D3D3D" stroke="#333333" stroke-width="0.572369"/>
<path d="M9.87742 93.8443C6.77975 89.2346 4.81028 86.8485 0.843121 82.9664C0.843121 82.9664 0.681063 82.8096 0.78725 82.4979C0.871462 82.2508 1.24215 81.985 1.24215 81.985C1.24215 81.985 8.94829 75.8191 9.83651 75.1275C10.7494 74.4166 16.4647 70.192 16.9744 69.8977C17.484 69.6035 17.4298 69.5096 19.4002 69.3913C21.2532 68.8222 21.8845 68.2431 21.8845 68.2431L30.185 61.8057L34.1138 66.6902L25.7216 76.6855C25.7216 76.6855 16.7374 87.5014 13.1065 91.6939C12.3227 92.599 11.7511 93.0719 11.6149 93.1989C11.0104 93.7625 10.8226 93.8709 10.8226 93.8709C10.8226 93.8709 10.5967 94.0371 10.3047 94.0268C10.0126 94.0166 9.87742 93.8443 9.87742 93.8443Z" fill="#775426" stroke="#4D3719" stroke-width="1.14474"/>
<path d="M0.844279 82.9665C4.81143 86.8486 6.7809 89.2347 9.87858 93.8445C9.87858 93.8445 10.0138 94.0168 10.3058 94.027C10.498 94.0337 10.681 93.9657 10.8392 93.8612C10.0004 92.5022 9.12608 91.0954 8.70325 90.4459C7.9188 89.2411 6.46325 87.468 5.49213 86.285C5.29002 86.0388 5.1089 85.8182 4.95917 85.6336C4.33988 84.8699 2.35041 82.9909 1.25766 81.9736C1.24817 81.9812 1.24331 81.9851 1.24331 81.9851C1.24331 81.9851 0.87262 82.2509 0.788409 82.4981C0.682222 82.8098 0.844279 82.9665 0.844279 82.9665Z" fill="#3C3C3C" stroke="#333333" stroke-width="1.14474"/>
<path d="M30.8561 58.3789L30.5296 59.8586L29.7453 60.2362L29.8893 58.9371L30.8561 58.3789Z" fill="#404040" stroke="#333333" stroke-width="0.572369"/>
<path d="M49.2324 48.7705L59.5864 42.7926L60.3297 44.0801L49.9758 50.058L49.2324 48.7705Z" fill="#484848"/>
<path d="M58.9043 43.3438L59.2959 43.1177L59.9402 44.2336L59.5486 44.4597L58.9043 43.3438Z" fill="#404040"/>
<path d="M82.543 26.2471L87.5054 23.382L88.9301 25.8498L83.9677 28.7148L82.543 26.2471Z" fill="#363636"/>
<path d="M87.5054 23.382L86.5397 23.9395L86.7255 24.2614L82.7288 26.5689L83.1315 27.2664L87.1282 24.9588L87.345 25.3344L83.3483 27.6419L83.7509 28.3393L87.7476 26.0318L87.9645 26.4073L88.9301 25.8498L87.5054 23.382Z" fill="#3B3B3B"/>
<path d="M62.418 41.873L63.169 41.4394L66.2353 46.7504L65.2675 46.8085L62.418 41.873Z" fill="#424242" stroke="#333333" stroke-width="1.14474"/>
<path d="M66.3297 34.8937C66.1748 34.6255 66.5689 34.2549 66.9032 34.2765L68.9164 37.7635L68.219 38.1662L66.3297 34.8937Z" fill="#424242"/>
<rect x="66.084" y="35.4648" width="0.495105" height="3.40699" transform="rotate(-30 66.084 35.4648)" fill="#3B3B3B"/>
<path d="M66.9003 34.277C66.566 34.2554 66.1719 34.626 66.3268 34.8942L66.5126 35.2161L66.0839 35.4637L67.7874 38.4142L68.9135 37.764L66.9003 34.277Z" stroke="#333333" stroke-width="0.572369"/>
<path d="M49.2314 48.7699L59.5853 42.792L58.811 41.4508L49.6373 46.7473C49.5836 46.7783 48.7966 47.7691 49.2314 48.7699Z" fill="#4D4D4D"/>
<path d="M60.3287 44.0795L49.9747 50.0574L49.2314 48.7699C48.7966 47.7691 49.5836 46.7783 49.6373 46.7473L58.811 41.4508L60.3287 44.0795Z" stroke="#333333" stroke-width="0.572369"/>
<path fill-rule="evenodd" clip-rule="evenodd" d="M40.5498 54.3556L49.4202 49.0912L49.9777 50.0569L40.156 55.8872L40.5498 54.3556Z" fill="#363636"/>
<path d="M35.4372 67.2491C35.3443 67.0882 35.2317 66.8313 35.2317 66.8313L43.1326 62.985C43.1326 62.985 43.7954 64.319 43.8574 64.4263C43.9193 64.5336 43.8925 64.5491 43.8358 64.7606C43.6647 65.1456 43.6873 65.0609 43.4965 65.3499C43.3635 65.6771 43.345 65.8308 43.3461 66.0805C43.374 66.3147 43.6015 74.2662 43.977 74.0494C43.977 74.0494 44.5666 74.2096 44.9606 74.9478C45.3546 75.6859 45.22 76.2643 45.22 76.2643C45.22 76.2643 44.4825 77.1551 43.4406 77.8282C42.0612 78.6603 41.3204 78.8019 41.3204 78.8019C41.3204 78.8019 40.4299 78.9942 39.6548 78.333C38.8796 77.6718 38.5398 76.4017 38.5398 76.4017C38.2506 74.5679 37.7922 70.9223 37.5325 69.3297C37.5325 69.3297 37.4695 68.9727 37.3456 68.7581C37.3456 68.7581 37.1199 68.3052 36.3774 67.8865C35.635 67.4678 35.6385 67.5978 35.4372 67.2491Z" fill="#775426"/>
<path d="M35.2317 66.8313C35.2317 66.8313 35.3443 67.0882 35.4372 67.2491M35.2317 66.8313L43.1326 62.985C43.1326 62.985 43.7954 64.319 43.8574 64.4263C43.9193 64.5336 43.8925 64.5491 43.8358 64.7606C43.6647 65.1456 43.6873 65.0609 43.4965 65.3499C43.3635 65.6771 43.345 65.8308 43.3461 66.0805C43.374 66.3147 43.6015 74.2662 43.977 74.0494C43.977 74.0494 44.5666 74.2096 44.9606 74.9478C45.3546 75.6859 45.22 76.2643 45.22 76.2643C45.22 76.2643 44.4825 77.1551 43.4406 77.8282C42.0612 78.6603 41.3204 78.8019 41.3204 78.8019C41.3204 78.8019 40.4299 78.9942 39.6548 78.333C38.8796 77.6718 38.5398 76.4017 38.5398 76.4017C38.2506 74.5679 37.7922 70.9223 37.5325 69.3297C37.5325 69.3297 37.4695 68.9727 37.3456 68.7581C37.3456 68.7581 37.1199 68.3052 36.3774 67.8865C35.635 67.4678 35.6385 67.5978 35.4372 67.2491M35.2317 66.8313L35.4372 67.2491" stroke="#4D3719" stroke-width="1.14474"/>
<path d="M34.9055 66.187L42.3349 61.4543L43.1336 62.9857L35.2328 66.832L34.9055 66.187Z" fill="#484848" stroke="#333333" stroke-width="1.14474"/>
<path d="M34.1134 66.6906L30.1846 61.8061L49.9753 50.058L60.3293 44.0802L59.493 42.6317L62.0145 41.176L65.2821 46.8357L51.2506 55.774L51.1794 56.4799L49.1068 57.7838L48.1778 57.7314L34.1134 66.6906Z" fill="#454545"/>
<rect x="50.8359" y="55.1406" width="0.805309" height="0.247782" transform="rotate(-30 50.8359 55.1406)" fill="#424242"/>
<rect width="11.8938" height="2.35065" rx="0.429277" transform="matrix(0.842453 -0.53877 0.538772 0.842452 53.1191 50.7969)" fill="#404040"/>
<path d="M74.8466 68.1169L75.04 66.1009C75.0525 65.97 74.9566 65.8536 74.8256 65.8411C74.6947 65.8285 74.5784 65.9245 74.5658 66.0554L74.3721 68.0749C74.5288 68.0898 74.6869 68.1038 74.8466 68.1169Z" fill="#3B3B3B"/>
<path d="M75.7121 68.1768L75.9985 65.1918C76.0127 65.0433 75.9039 64.9114 75.7554 64.8972C75.6069 64.8829 75.475 64.9918 75.4608 65.1402L75.1729 68.1413C75.3507 68.1543 75.5305 68.1661 75.7121 68.1768Z" fill="#3B3B3B"/>
<path d="M75.5479 61.5333C75.3528 61.5108 75.1596 61.4866 74.9682 61.4608L75.0829 60.2654C75.0982 60.1049 75.2409 59.9873 75.4014 60.0027C75.5619 60.0181 75.6796 60.1607 75.6642 60.3212L75.5479 61.5333Z" fill="#383838"/>
<path d="M76.4564 61.6244L76.5288 60.4851C76.539 60.3242 76.6778 60.202 76.8387 60.2122C76.9997 60.2225 77.1218 60.3612 77.1116 60.5221L77.0387 61.6696C76.8428 61.6562 76.6487 61.6411 76.4564 61.6244Z" fill="#383838"/>
<path d="M76.6671 68.2202L76.7974 66.1698C76.805 66.0509 76.7147 65.9483 76.5957 65.9407C76.4768 65.9332 76.3742 66.0235 76.3667 66.1425L76.2357 68.2028C76.3783 68.2093 76.5221 68.2151 76.6671 68.2202Z" fill="#3B3B3B"/>
<ellipse cx="51.5936" cy="58.7433" rx="0.464601" ry="0.464591" transform="rotate(-30 51.5936 58.7433)" fill="#383838"/>
<path d="M51.8785 59.8665L52.1512 59.9594L52.8326 61.1396C52.941 61.3274 53.2515 61.1839 53.1813 60.9383L52.6414 59.3097C52.5783 59.4186 52.5023 59.5063 52.4183 59.5548L51.8785 59.8665Z" fill="#383838" stroke="#333333" stroke-width="0.572369"/>
<path d="M55.0083 54.8061C54.697 54.4852 54.2377 54.9291 54.476 55.185C57.487 58.4178 60.2245 60.5176 63.1477 62.0879C66.0857 63.6661 69.3751 64.8228 73.6926 65.5488C74.1284 65.6221 74.242 64.9813 73.7781 64.8915C69.51 64.0653 66.4772 62.9475 63.6983 61.4838C60.7255 59.9181 58.011 57.9007 55.0083 54.8061Z" fill="#3B3B3B"/>
<path d="M56.1353 53.9604C55.8239 53.6395 55.3647 54.0834 55.603 54.3393C58.6139 57.5721 61.0162 59.4164 63.9394 60.9867C66.8774 62.565 69.5866 63.5201 73.9041 64.2462C74.3399 64.3194 74.4535 63.6786 73.9896 63.5888C69.7215 62.7627 67.2691 61.9177 64.4902 60.4541C61.5175 58.8883 59.138 57.055 56.1353 53.9604Z" fill="#3B3B3B"/>
<path d="M57.2857 53.2241C56.9743 52.9031 56.5151 53.3471 56.7534 53.6029C59.5692 56.8213 62.3121 58.5604 65.2352 60.1307C68.1732 61.7089 69.805 62.2847 74.1226 63.0107C74.5583 63.084 74.6719 62.4432 74.208 62.3534C69.94 61.5273 68.5649 61.0616 65.7861 59.598C62.8133 58.0323 60.2884 56.3186 57.2857 53.2241Z" fill="#3B3B3B"/>
<path d="M74.9676 61.4608L74.615 65.1367C74.5996 65.2973 74.7173 65.4399 74.8778 65.4553C75.0383 65.4707 75.1809 65.353 75.1963 65.1925L75.5473 61.5333C75.3523 61.5107 75.1591 61.4865 74.9676 61.4608Z" fill="#3B3B3B"/>
<path d="M77.0379 61.671C76.842 61.6575 76.6479 61.6424 76.4556 61.6258L76.2176 65.3703C76.2073 65.5313 76.3295 65.67 76.4905 65.6802C76.6514 65.6905 76.7901 65.5683 76.8004 65.4074L77.0379 61.671Z" fill="#3B3B3B"/>
<path d="M65.9323 35.1953L57.4023 40.1201L57.9599 41.0858L58.4427 40.807L59.4958 42.631L62.0172 41.1752L62.4198 41.8726L67.9455 38.6824L65.9323 35.1953Z" fill="#4A4A4A" stroke="#333333" stroke-width="0.572369"/>
<path d="M60.192 38.5095L57.4023 40.1201L57.6811 40.6029L59.9188 39.2752C60.2097 39.0357 60.2932 38.8087 60.192 38.5095Z" fill="#424242"/>
<path d="M84.5451 33.9256C84.6845 34.167 84.1306 34.8802 83.7921 34.7895L79.4393 27.0025C80.0294 26.6618 80.5568 26.8938 80.6807 27.1084L84.5451 33.9256Z" fill="#424242" stroke="#333333" stroke-width="1.14474"/>
<ellipse cx="83.7252" cy="26.495" rx="0.247787" ry="0.247782" transform="rotate(-30 83.7252 26.495)" fill="#363636"/>
<ellipse cx="84.7447" cy="25.9071" rx="0.247787" ry="0.247782" transform="rotate(-30 84.7447 25.9071)" fill="#363636"/>
<ellipse cx="85.7623" cy="25.3182" rx="0.247787" ry="0.247782" transform="rotate(-30 85.7623 25.3182)" fill="#363636"/>
<ellipse cx="86.7818" cy="24.7294" rx="0.247787" ry="0.247782" transform="rotate(-30 86.7818 24.7294)" fill="#363636"/>
<path d="M107.909 18.9755L108.653 18.2556L108.591 18.1483L109.074 17.8695L109.136 17.9768L109.565 17.729L108.419 15.7441L107.99 15.9919L108.083 16.1528L107.6 16.4316L107.507 16.2706L107.293 16.3945L107.107 16.0727L106.517 16.4134L107.725 18.5056L107.909 18.9755Z" fill="#373737" stroke="#333333" stroke-width="0.572369"/>
<path d="M84.3616 33.5976L106.666 20.4066C106.544 20.3767 106.415 20.3313 106.277 20.2705L105.84 20.3167L84.116 33.1644L84.3616 33.5976Z" fill="#383838" stroke="#333333" stroke-width="0.572369"/>
<path d="M90.4048 21.7093L87.5078 23.3818L88.9326 25.8496L90.4883 24.9513C90.9991 24.9068 91.4037 25.1739 91.7289 25.7372L92.9059 27.7758C93.1453 28.1906 93.6517 28.3465 94.0369 28.1242C94.4221 27.9018 94.5402 27.3853 94.3007 26.9705L97.3586 25.205L95.9648 22.7909C95.9648 22.7909 94.4895 23.6427 92.7197 23.0551C90.9498 22.4675 90.4048 21.7093 90.4048 21.7093Z" fill="#3C3C3C"/>
<path d="M82.5462 26.246L87.5085 23.381L90.4056 21.7084C90.4056 21.7084 90.9506 22.4666 92.7205 23.0542C94.4903 23.6417 95.9656 22.79 95.9656 22.79L97.3594 25.2041L94.3015 26.9695C94.541 27.3843 94.4228 27.9009 94.0377 28.1233C93.6525 28.3456 93.1461 28.1897 92.9066 27.7749L91.7297 25.7363C91.4045 25.173 90.9999 24.9059 90.4891 24.9504L88.9333 25.8487L82.1798 29.7478L80.6829 27.1071L82.4533 26.085L82.5462 26.246Z" stroke="#333333" stroke-width="1.14474"/>
<path fill-rule="evenodd" clip-rule="evenodd" d="M102.242 13.1572L102.985 18.5938L104.131 20.5787L104.543 20.7344L105.367 20.3658L106.277 20.2695C107.189 20.6727 107.745 20.3946 108.102 19.4661L107.725 18.5035L104.179 12.361C104.179 12.361 103.639 11.7968 102.845 12.0942C102.051 12.3916 102.242 13.1572 102.242 13.1572ZM104.571 17.4995L105.805 16.7871C106.019 16.6632 106.026 16.5518 105.918 16.364L105.531 15.6935C105.283 15.2643 105.114 15.2189 104.685 15.4667L103.719 16.0243C103.558 16.1172 103.203 16.6797 103.474 17.1491C103.73 17.5916 104.41 17.5925 104.571 17.4995Z" fill="#3C3C3C" stroke="#333333" stroke-width="0.572369"/>
<path d="M30.8609 61.7376L30.3302 60.7565L31.3885 55.9611C31.4677 55.6428 31.5515 55.4809 31.7886 55.2294L57.462 40.228L57.9576 41.0864L58.4404 40.8076L58.8121 41.4514L49.6383 46.7478C49.5847 46.7788 48.7977 47.7696 49.2324 48.7704L49.4182 49.0923L40.5479 54.3566L40.0078 56.4566L30.8609 61.7376Z" fill="#474747" stroke="#333333" stroke-width="0.572369"/>
<ellipse cx="104.03" cy="14.5215" rx="0.712389" ry="0.712373" transform="rotate(-30 104.03 14.5215)" fill="#363636"/>
<path d="M51.9508 55.3272C52.0373 55.4411 52.1238 55.5537 52.2101 55.6652L52.8458 55.2718C56.335 59.5825 59.7447 62.182 63.9688 64.0088C66.6035 65.1483 69.5306 66.2697 73.5014 66.7668C73.8686 66.8408 73.9283 66.3912 73.6416 66.3282C70.0897 65.8753 67.395 64.915 64.9638 63.9351C60.68 61.9508 57.0067 59.445 53.3014 54.9899L57.5142 52.3828C59.8915 55.0256 61.9608 56.4417 64.2995 57.9526C66.8492 59.3727 70.1129 60.7119 74.092 61.3473C74.5253 61.4165 74.6516 60.8299 74.3198 60.7508C70.4778 59.8349 67.6049 59.0012 65.128 57.6531C62.6942 56.3284 60.1972 54.1279 57.7566 51.6288L51.9508 55.3272Z" fill="#383838"/>
<path d="M57.676 51.6821C57.7979 51.7961 57.9574 51.8716 58.1177 51.8315L59.5888 50.9106C59.7227 50.8055 59.717 50.6082 59.6496 50.4248L57.676 51.6821Z" fill="#3D3D3D"/>
<path d="M63.1696 41.4394L67.9443 38.6828L67.9133 38.6291L69.6837 37.607L70.0531 37.7513L73.7548 35.6142L73.8145 35.222L76.175 33.8592L76.5445 34.0035L79.8706 32.0832L79.9304 31.6911L81.5398 30.7619L83.7936 34.7895C83.8556 34.8968 83.508 35.3478 83.2129 35.5182C78.8089 38.3174 76.3244 39.8171 71.7912 42.4344C71.7912 42.4344 70.2294 43.6937 69.6273 44.4473C69.5441 44.5514 69.4405 44.6962 69.3227 44.8609C68.9556 45.3741 68.4511 46.0795 68.0013 46.3391C67.3039 46.7418 66.8986 46.767 66.2359 46.7504L63.1696 41.4394Z" fill="#775426" stroke="#4D3719" stroke-width="1.14474"/>
<path d="M66.7793 34.0625L79.4412 27.0025L81.3607 30.4363L79.7449 31.3692L79.3445 31.1712L76.0184 33.0916L75.9896 33.5373L73.6291 34.9002L73.2287 34.7022L69.527 36.8394L69.4982 37.2851L68.8545 37.6568L66.7793 34.0625Z" fill="#775426" stroke="#4D3719" stroke-width="1.14474"/>
<path d="M63.3153 35.5621L63.854 35.2511L63.7301 35.0365L64.7494 34.448C64.9908 34.3087 65.4294 34.4488 65.5533 34.6634L65.8785 35.2267L58.9311 39.2378L59.0713 38.7992L61.2357 37.4065L61.3325 36.7069L62.354 36.1171C62.2977 35.8579 62.3959 35.5922 62.6179 35.4641C62.8398 35.336 63.119 35.3837 63.3153 35.5621Z" fill="#505050"/>
<path d="M61.3295 36.7072L57.2791 39.0457L57.0933 38.7238L56.3906 38.8076L56.9863 39.7155L57.2092 39.7298L61.2328 37.4068L61.3295 36.7072Z" fill="#484848"/>
<path d="M59.3124 38.2295C59.4834 38.5258 59.3819 38.9046 59.0856 39.0757C58.7893 39.2468 58.4105 39.1452 58.2394 38.849C58.0684 38.5527 58.1699 38.1738 58.4662 38.0028C58.7625 37.8317 59.1413 37.9332 59.3124 38.2295Z" fill="#424242"/>
<path fill-rule="evenodd" clip-rule="evenodd" d="M58.9626 39.1302L58.928 39.2381L65.8754 35.2271L65.5502 34.6638C65.4263 34.4492 64.9877 34.309 64.7463 34.4484L63.727 35.0369L63.8509 35.2515L63.3122 35.5625C63.116 35.3841 62.8367 35.3363 62.6148 35.4644C62.3929 35.5926 62.2946 35.8583 62.3509 36.1175L59.085 38.0031C58.8997 37.8963 58.664 37.8885 58.4655 38.0031C58.2669 38.1178 58.1558 38.3258 58.1556 38.5397L57.2791 39.0457L57.0933 38.7238L56.3906 38.8076L56.9863 39.7155L57.2092 39.7298L58.4072 39.0381C58.5649 39.1544 58.7718 39.1909 58.9626 39.1302ZM59.3926 38.5909L61.2325 37.4069L59.3909 38.4702C59.3954 38.5105 59.3959 38.5509 59.3926 38.5909Z" stroke="#333333" stroke-width="0.572369"/>
<path d="M63.3457 36.0435C63.4826 36.2806 63.4614 36.549 63.2984 36.6431C63.1355 36.7372 62.8924 36.6213 62.7556 36.3842C62.6187 36.1472 62.6399 35.8788 62.8029 35.7847C62.9658 35.6906 63.2089 35.8065 63.3457 36.0435Z" fill="#484848"/>
<path d="M77.6988 61.7094C72.8876 61.4736 69.1654 60.272 65.7731 58.7118C62.6202 57.2616 59.8846 55.0665 57.1551 52.0125L59.3773 50.597C62.1451 54.0251 64.8366 55.8977 67.6846 57.2505C70.4865 58.5815 73.4606 59.3877 77.8296 59.5833L77.6988 61.7094Z" stroke="#333333" stroke-width="0.572369"/>
<path d="M51.9517 55.3276C55.2287 59.6378 58.3021 62.244 61.9234 64.1588C65.9476 66.2867 70.2249 68.0924 77.2829 68.2376L77.8168 59.5606C73.4478 59.3649 70.4737 58.5587 67.6717 57.2278C64.8295 55.8777 62.1431 54.0099 59.3812 50.5949L51.9517 55.3276Z" stroke="#333333" stroke-width="1.14474"/>
<path fill-rule="evenodd" clip-rule="evenodd" d="M65.9307 35.1957L57.4008 40.1205L57.4627 40.2277L31.7894 55.2291C31.5523 55.4806 31.4685 55.6424 31.3892 55.9608L30.331 60.7562L30.7254 61.4853L30.1858 61.8056L34.1146 66.6902L48.179 57.7309L49.108 57.7834L51.1806 56.4795L51.2518 55.7735L65.2833 46.8352L62.4183 41.8729L67.944 38.6827L65.9307 35.1957ZM40.1548 55.8879L49.9765 50.0576L60.3305 44.0797L58.8128 41.4511L49.6391 46.7475C49.5854 46.7785 48.7984 47.7693 49.2332 48.7701L49.419 49.092L40.5486 54.3563L40.1548 55.8879Z" stroke="#333333" stroke-width="1.14474"/>
<path d="M40.4012 56.7645L41.325 54.586L51.7963 50.7935L52.228 51.9749L51.3118 52.4323L51.3976 52.7047L49.2373 54.1665L39.7037 60.5474C39.6439 60.5933 39.5805 60.6358 39.5135 60.6746C38.6839 61.1536 37.6215 60.8703 37.1425 60.0407C36.6636 59.2111 36.9478 58.1503 37.7774 57.6714C37.8921 57.6051 38.0113 57.5535 38.1327 57.5159L40.4012 56.7645Z" fill="#404040"/>
<path d="M45.5729 55.9967L45.9579 56.1679L49.8689 53.588L49.0606 52.3737L41.7805 55.0033L40.5956 57.2252L38.282 58.0542C38.1906 58.0773 38.1294 58.1126 38.0564 58.1547C37.4935 58.4798 37.3006 59.1996 37.6256 59.7625C37.9506 60.3255 38.6705 60.5183 39.2334 60.1933C39.2761 60.1687 39.3166 60.1417 39.355 60.1128L45.5729 55.9967Z" fill="#474747"/>
<ellipse cx="38.6456" cy="59.1739" rx="0.867256" ry="0.867237" transform="rotate(-30 38.6456 59.1739)" fill="#4D4D4D"/>
<path d="M51.5587 52.9204L51.3615 52.6408L49.0702 53.9995L49.3478 54.2326L51.5587 52.9204Z" fill="#4D4D4D"/>
<ellipse cx="50.2662" cy="52.537" rx="0.247787" ry="0.247782" transform="rotate(-30 50.2662 52.537)" fill="#3B3B3B"/>
<path d="M65.8647 36.1931C66.0389 35.9895 66.0751 35.6903 65.9335 35.4451C65.7539 35.134 65.3561 35.0274 65.045 35.207C64.9372 35.2693 64.854 35.3577 64.7987 35.4596L63.5847 37.6953L63.2462 37.6046L62.6934 38.5675L62.9329 38.8584C63.1879 39.1762 63.4572 39.271 63.906 39.1192L65.8647 36.1931Z" fill="#4D4D4D"/>
<path d="M65.878 35.4758C66.0405 35.7573 65.9441 36.1172 65.6626 36.2797C65.3811 36.4422 65.0212 36.3458 64.8587 36.0643C64.6962 35.7829 64.7926 35.4229 65.0741 35.2604C65.3556 35.0979 65.7155 35.1944 65.878 35.4758Z" fill="#424242"/>
<path d="M62.9503 38.8798L63.5841 37.6946L63.2456 37.6039L62.6928 38.5668L62.9323 38.8577C62.9383 38.8652 62.9443 38.8725 62.9503 38.8798Z" fill="#575757"/>
<path d="M65.8647 36.1931C66.0389 35.9895 66.0751 35.6903 65.9335 35.4451C65.7539 35.134 65.3561 35.0274 65.045 35.207C64.9372 35.2693 64.854 35.3577 64.7987 35.4596L63.5847 37.6953L63.2462 37.6046L62.6934 38.5675L62.9329 38.8584C63.1879 39.1762 63.4572 39.271 63.906 39.1192L65.8647 36.1931Z" stroke="#333333" stroke-width="0.572369"/>
<path d="M102.242 13.1572L102.985 18.5938L104.131 20.5787L104.543 20.7344L105.367 20.3658L106.277 20.2695C107.189 20.6727 107.745 20.3946 108.102 19.4661L107.725 18.5035L104.179 12.361C104.179 12.361 103.639 11.7968 102.845 12.0942C102.051 12.3916 102.242 13.1572 102.242 13.1572Z" stroke="#333333" stroke-width="1.14474"/>
<path d="M82.543 26.2471L87.5054 23.382L88.9301 25.8498L83.9677 28.7148L82.543 26.2471Z" stroke="#333333" stroke-width="0.572369"/>
<path d="M41.325 54.586L40.4012 56.7645L38.1327 57.5159C38.0113 57.5535 37.8921 57.6051 37.7774 57.6714C36.9478 58.1503 36.6636 59.2111 37.1425 60.0407C37.6215 60.8703 38.6839 61.1536 39.5135 60.6746C39.5805 60.6358 39.6439 60.5933 39.7037 60.5474L49.2373 54.1665L49.2544 54.1549L49.3469 54.2326L51.5578 52.9204L51.391 52.6839L51.3118 52.4323L52.228 51.9749L51.7963 50.7935L41.325 54.586Z" stroke="#333333" stroke-width="0.572369"/>
</g>
<defs>
<clipPath id="clip0_619_1191">
<rect width="110" height="110" fill="white"/>
</clipPath>
</defs>
</svg>
