<svg xmlns="http://www.w3.org/2000/svg" xml:space="preserve" width="123.003" height="55.079" viewBox="0 0 32.545 14.573"><g transform="scale(.17428)rotate(15.871 626.36 120.081)"><path d="M113.562 176.343c8.958 11.2 14.465 16.445 30.795 26.433l-6.92 14.749c-12.637-7.276-24.253-16.106-34.23-27.038l-3.357-1.846-2.697-5.016 15.405-9.192z" style="display:inline;fill:#c3703e;fill-opacity:1;stroke:#4e2c18;stroke-width:2.11667;stroke-linecap:round;stroke-linejoin:miter;stroke-dasharray:none;stroke-opacity:1"/><path d="M111.173 179.176c9.958 13.748 20.087 20.132 31.47 26.824" style="display:inline;fill:none;fill-opacity:1;stroke:#4e2c18;stroke-width:2.11667;stroke-linecap:round;stroke-linejoin:miter;stroke-dasharray:none;stroke-opacity:1"/><path d="m110.55 178.34 2.632-1.661 10.333 10.58 13.426 10.204 7.351 5.05-1.423 3.146-16.245-9.844-7.165-7.41c-.35-.362-8.91-10.066-8.91-10.066" style="display:inline;opacity:.510363;fill:#4e2c18;fill-opacity:1;stroke:none;stroke-width:2.11667;stroke-linecap:round;stroke-linejoin:miter;stroke-dasharray:none;stroke-opacity:1"/><path d="m114.016 182.393 1.574-1.542M115.79 185.1l1.892-1.725M118.17 187.88l2.184-2.316M120.91 189.82l1.752-2.209M123.462 192.29l1.88-2.354M125.906 194.328l1.556-2.306M128.398 196.692l1.525-2.359M131.173 198.329l1.397-2.215" style="opacity:1;fill:#4e2c18;fill-opacity:1;stroke:#4e2c18;stroke-width:1.05833;stroke-linecap:round;stroke-linejoin:miter;stroke-dasharray:none;stroke-opacity:1"/><path d="m133.835 199.89 1.233-1.768" style="display:inline;opacity:1;fill:#4e2c18;fill-opacity:1;stroke:#4e2c18;stroke-width:1.05833;stroke-linecap:round;stroke-linejoin:miter;stroke-dasharray:none;stroke-opacity:1"/><path d="M90.695 169.805s-2.343-2.875 1.973-5.367c4.492-2.593 6.048.173 6.048.173l10.482-6.052 2.41-4.243 1.051 1.822 4.858-2.805.93 1.611-27.09 15.641z" style="display:inline;opacity:1;fill:#4f4d4c;fill-opacity:1;stroke:#353332;stroke-width:2.11667;stroke-linecap:round;stroke-linejoin:round;stroke-dasharray:none;stroke-opacity:1"/><path d="m136.794 201.843.974-1.97" style="opacity:1;fill:#4e2c18;fill-opacity:1;stroke:#4e2c18;stroke-width:1.05833;stroke-linecap:round;stroke-linejoin:miter;stroke-dasharray:none;stroke-opacity:1"/><path d="M60.562 198.378c-.543-2.128-1.077-4.257.448-6.296.046-2.172 1.372-5.013 2.356-5.7l48.686-28.978 5.785 9.898-55.766 34.027z" style="display:inline;opacity:1;fill:#6e6b69;fill-opacity:1;stroke:#353332;stroke-width:2.11667;stroke-linecap:round;stroke-linejoin:miter;stroke-dasharray:none;stroke-opacity:1"/><path d="m113.472 157.375 3.481 6.029 7.575-4.373-3.481-6.03z" style="display:inline;opacity:1;fill:#444140;fill-opacity:1;stroke:#353332;stroke-width:2.11667;stroke-linecap:round;stroke-linejoin:round;stroke-dasharray:none;stroke-opacity:1"/><path d="M82.733 202.496c1.25 2.164 4.628 1.764 6.152.884l6.607-4.166c1.333-.77 4.413-3.09 3.306-5.007l-2.073-3.591" style="opacity:1;fill:none;fill-opacity:1;stroke:#353332;stroke-width:2.11667;stroke-linecap:round;stroke-linejoin:miter;stroke-dasharray:none;stroke-opacity:1"/><path d="m68.036 204.222 1.555 2.693c.617-.356 3.21-.277 4.544 4.7l3.8 15.627c4.142 2.096 9.839-.963 9.314-2.427-.2-.745-.848-1.341-1.48-.977l-4.676-19.198s2.248-1.227 2.035-1.597-3.514-6.21-3.514-6.21z" style="display:inline;opacity:1;fill:#8f533d;fill-opacity:1;stroke:#422d25;stroke-width:2.11667;stroke-linecap:round;stroke-linejoin:round;stroke-dasharray:none;stroke-opacity:1"/><path d="m139.586 203.752 1.275-2.426" style="opacity:1;fill:#4e2c18;fill-opacity:1;stroke:#4e2c18;stroke-width:1.05833;stroke-linecap:round;stroke-linejoin:miter;stroke-dasharray:none;stroke-opacity:1"/><path d="m126.378 169.412-2.033 1.174-.717-1.241 2.06-1.19z" style="opacity:1;fill:none;fill-opacity:1;stroke:#422d25;stroke-width:2.11667;stroke-linecap:round;stroke-linejoin:round;stroke-dasharray:none;stroke-opacity:1"/><path d="m148.904 132.09 6.166 10.679-2.577 1.488-.862-1.494-2.614 1.509-2.652-4.593 2.24-1.294-1.429-5.333z" style="display:inline;opacity:1;fill:#3c3a39;fill-opacity:1;stroke:#353332;stroke-width:2.11667;stroke-linecap:round;stroke-linejoin:round;stroke-dasharray:none;stroke-opacity:1"/><path d="m145.297 138.951 7.39 12.798" style="opacity:1;fill:#686463;fill-opacity:1;stroke:#353332;stroke-width:2.11667;stroke-linecap:round;stroke-linejoin:round;stroke-dasharray:none;stroke-opacity:1"/><path d="m60.04 198.878 64.896-38.363 3.58 6.199-64.19 39.933z" style="display:inline;opacity:1;fill:#524f4e;fill-opacity:1;stroke:#353332;stroke-width:2.11667;stroke-linecap:round;stroke-linejoin:miter;stroke-dasharray:none;stroke-opacity:1"/><path d="m138.47 218.408 6.86-15.438" style="opacity:1;fill:#482d1e;fill-opacity:1;stroke:#353231;stroke-width:2.11667;stroke-linecap:round;stroke-linejoin:miter;stroke-dasharray:none;stroke-opacity:1"/><path d="m121.107 152.071 2.652 4.593" style="opacity:1;fill:#686463;fill-opacity:1;stroke:#353332;stroke-width:2.11667;stroke-linecap:round;stroke-linejoin:round;stroke-dasharray:none;stroke-opacity:1"/><path d="m121.205 159.485 5.589 9.68.933-.54c2.147-3.23 5.306-5.552 7.474-6.803l16.433-10.085-4.29-7.344-1.813 1.047c-.3 1.122.763.715-.045 1.125l-5.365 3.098c-.83.48-.504.03-1.496-.235l-3.347 1.932c-.262.979-.473 1.372-.949 1.646l-4.488 2.592c-.552.319-.972.212-1.859-.026zM122.512 151.185l2.62 4.537 2.203-1.272c.235-.879.35-1.364.88-1.67l4.488-2.591c.552-.319.682-.285 1.927.049l3.347-1.932c.282-1.054-.359-1.026.486-1.514l4.907-2.833c.387-.224.23.016 1.513.36l1.92-1.109-2.5-4.33z" style="display:inline;opacity:1;fill:#8f533d;fill-opacity:1;stroke:#422d25;stroke-width:2.11667;stroke-linecap:round;stroke-linejoin:round;stroke-dasharray:none;stroke-opacity:1"/><path d="M55.985 200.971 9.697 232.008l12.753 20.257 1.735-1.102c1.099-1.904 1.759-3.402 3.072-4.715l35.284-38.607zm-.816 4.624 2.454 3.517-32.395 34.155c-1.622 1.623-2.675 1.953-3.248.96l-5.65-8.567c-1.41-2.442-.203-3.474 1.35-4.37z" style="display:inline;opacity:1;fill:#524f4e;fill-opacity:1;stroke:#353332;stroke-width:2.11667;stroke-linecap:round;stroke-linejoin:round;stroke-dasharray:none;stroke-opacity:1"/><path d="m59.67 198.93-3.545 2.048-.34 1.591-1.473.851 3.26 5.647c.592.255.584 1.754 1.978.434l1.761-.279 2.44-3.225z" style="display:inline;opacity:1;fill:#686463;fill-opacity:1;stroke:#353332;stroke-width:2.11667;stroke-linecap:round;stroke-linejoin:miter;stroke-dasharray:none;stroke-opacity:1"/><path d="M8.299 232.71c4.231 6.377 9.547 12.253 13.213 20.328l.785-.503-13.128-20.342z" style="opacity:1;fill:#524f4e;fill-opacity:1;stroke:#353332;stroke-width:2.11667;stroke-linecap:round;stroke-linejoin:round;stroke-dasharray:none;stroke-opacity:1"/><path d="m78.629 193.393-1.92.07a2.3 2.3 142.425 0 0-2.117 1.63l-4.75 15.582a1.52 1.52 61.907 0 0 1.012 1.895l1.702.516a1.62 1.62 152.05 0 0 2.014-1.069l5.282-17.026a1.233 1.233 52.569 0 0-1.223-1.598" style="opacity:.5;fill:#422d25;fill-opacity:1;stroke:none;stroke-width:2.11667;stroke-linecap:round;stroke-linejoin:miter;stroke-dasharray:none;stroke-opacity:1" transform="matrix(.68862 -.32542 .42726 .90413 -58.771 55.834)"/><path d="M83.751 195.22s1.972 4.635 6.892 3.766" style="opacity:1;fill:none;fill-opacity:1;stroke:#353332;stroke-width:2.11667;stroke-linecap:round;stroke-linejoin:miter;stroke-dasharray:none;stroke-opacity:1"/><path d="m94.92 187.856 3.8 5.973c.73.463 1.343.6 1.465-.634l-1-3.929-1.677-2.904zM99.892 191.956l2.633 5.169" style="opacity:1;fill:#353332;fill-opacity:1;stroke:#353332;stroke-width:2.11667;stroke-linecap:round;stroke-linejoin:miter;stroke-dasharray:none;stroke-opacity:1"/><path d="m149.555 143.911 3.644 6.311M151.878 146.382l1.52-.879.832 1.44-1.52.879z" style="opacity:1;fill:#686463;fill-opacity:1;stroke:#353332;stroke-width:2.11667;stroke-linecap:round;stroke-linejoin:round;stroke-dasharray:none;stroke-opacity:1"/><path d="m164.029 139.986 6.925-6.288 2.22 3.846z" style="opacity:1;fill:#454241;fill-opacity:1;stroke:#353332;stroke-width:2.11667;stroke-linecap:round;stroke-linejoin:round;stroke-dasharray:none;stroke-opacity:1"/><rect width="4.355" height="2.63" x="60.969" y="201.829" ry="0" style="opacity:1;fill:#454241;fill-opacity:1;stroke:#353332;stroke-width:2.11667;stroke-linecap:round;stroke-linejoin:round;stroke-dasharray:none;stroke-opacity:1" transform="rotate(-30)"/><path d="M67.739 201.118h7.373v4.053h-7.373z" style="opacity:1;fill:#454241;fill-opacity:1;stroke:#353332;stroke-width:2.11667;stroke-linecap:round;stroke-linejoin:round;stroke-dasharray:none;stroke-opacity:1" transform="rotate(-30)"/><path d="M65.238 200.6h3.406v5.088h-3.406zM74.552 200.557h3.32v5.174h-3.32z" style="opacity:1;fill:#6a6664;fill-opacity:1;stroke:#353332;stroke-width:2.11667;stroke-linecap:round;stroke-linejoin:round;stroke-dasharray:none;stroke-opacity:1" transform="rotate(-30)"/><path d="m60.857 192.031-.638 6.213 57.635-33.84-3.368-5.589-19.011 10.976-.253 2.611-33.61 19.475z" style="opacity:1;fill:#353332;fill-opacity:.671395;stroke:none;stroke-width:1.05833;stroke-linecap:round;stroke-linejoin:round;stroke-dasharray:none;stroke-opacity:1"/><path d="m146.807 139.822 4.452-2.57 1.66 2.875-4.452 2.57z" style="fill:#484544;fill-opacity:1;stroke:#353332;stroke-width:1.05833;stroke-linecap:round;stroke-linejoin:round;stroke-dasharray:none;stroke-opacity:1"/><path d="m61.353 191.182 1.333-4.643 49.356-29.763 2.912 3.46-53.205 31.632z" style="opacity:1;fill:#353332;fill-opacity:.137116;stroke:none;stroke-width:1.05833;stroke-linecap:round;stroke-linejoin:round;stroke-dasharray:none;stroke-opacity:1"/><path d="m61.684 191.87 52.462-30.9" style="display:inline;opacity:1;fill:#422d25;fill-opacity:1;stroke:#353332;stroke-width:1.05833;stroke-linecap:square;stroke-linejoin:round;stroke-dasharray:none;stroke-opacity:1"/><path d="m112.916 159.997-16.847 9.727c-.865.5-1.133 2.658-.486 4.44l-14.17 8.182c-2.134 1.21-2.043 3.287-2.338 4.448l36.81-21.402Z" style="display:inline;opacity:1;fill:#42403e;fill-opacity:1;stroke:#353332;stroke-width:1.05833;stroke-linecap:square;stroke-linejoin:round;stroke-dasharray:none;stroke-opacity:1"/><path d="m95.387 172.483 18.606-10.742 2.073 3.59-37.02 21.374c.347-1.154.024-2.78 2.085-4.196l14.496-8.37z" style="display:inline;opacity:1;fill:#565350;fill-opacity:1;stroke:#353332;stroke-width:1.05833;stroke-linecap:square;stroke-linejoin:round;stroke-dasharray:none;stroke-opacity:1"/><rect width="3.278" height="1.66" x="-33.54" y="207.162" ry=".814" style="display:inline;opacity:1;fill:#585453;fill-opacity:1;stroke:#343232;stroke-width:1.05833;stroke-linecap:round;stroke-linejoin:round;stroke-dasharray:none;stroke-opacity:1" transform="rotate(-30)"/><g transform="rotate(-15 267.01 217.296)"><path d="m87.617 141.903 1.595.021.237 4.161h-1.746z" style="opacity:1;fill:#625f5c;fill-opacity:1;stroke:none;stroke-width:1.05833;stroke-linecap:round;stroke-linejoin:round;stroke-dasharray:none;stroke-opacity:1"/><path d="M88.156 146.43a2.39 2.39 0 0 1-2.073-1.196 2.39 2.39 0 0 1 0-2.393 2.39 2.39 0 0 1 2.073-1.197" style="opacity:1;fill:#625f5c;fill-opacity:1;stroke:#353332;stroke-width:1.05833;stroke-linecap:square;stroke-linejoin:round;stroke-dasharray:none;stroke-opacity:1"/><path d="M88.436 141.644h5.217l3.45-3.363h18.929v2.068l-6.463 1.55v-.6l-20.95 5.131" style="display:inline;opacity:1;fill:#625f5c;fill-opacity:1;stroke:#353332;stroke-width:1.05833;stroke-linecap:round;stroke-linejoin:round;stroke-dasharray:none;stroke-opacity:1"/><circle cx="88.263" cy="144.059" r="1.229" style="opacity:1;fill:#625f5c;fill-opacity:1;stroke:#454342;stroke-width:1.05833;stroke-linecap:round;stroke-linejoin:round;stroke-dasharray:none;stroke-opacity:1"/><path d="M111.47 138.3v3.099l4.55-1.039v-2.06z" style="opacity:1;fill:#4e4c4a;fill-opacity:1;stroke:#353332;stroke-width:1.05833;stroke-linecap:round;stroke-linejoin:round;stroke-dasharray:none;stroke-opacity:1"/></g><rect width="5.61" height="2.561" x="-56.711" y="202.188" ry="1.037" style="opacity:1;fill:#4e4c4a;fill-opacity:1;stroke:#343232;stroke-width:1.05833;stroke-linecap:round;stroke-linejoin:round;stroke-dasharray:none;stroke-opacity:1" transform="rotate(-33.108)"/><path d="m115.702 159.843 3.062-.687 1.179 2.041-2.595 1.498z" style="opacity:1;fill:#4e4c4a;fill-opacity:1;stroke:#343332;stroke-width:1.05833;stroke-linecap:round;stroke-linejoin:round;stroke-dasharray:none;stroke-opacity:1"/><rect width="5.961" height="3.018" x="-7.111" y="205.948" ry="1.418" style="opacity:1;fill:#3a3937;fill-opacity:1;stroke:#353332;stroke-width:1.05833;stroke-linecap:round;stroke-linejoin:round;stroke-dasharray:none;stroke-opacity:1" transform="rotate(-31.467)"/><circle cx="16.188" cy="203.852" r=".716" style="opacity:1;fill:#7b7674;fill-opacity:1;stroke:none;stroke-width:1.05833;stroke-linecap:round;stroke-linejoin:round;stroke-dasharray:none;stroke-opacity:1" transform="rotate(-30)"/><circle cx="-41.996" cy="209.104" r=".716" style="fill:#7b7674;fill-opacity:1;stroke:none;stroke-width:1.05833;stroke-linecap:round;stroke-linejoin:round;stroke-dasharray:none;stroke-opacity:1" transform="rotate(-30)"/><circle cx="20.975" cy="203.852" r=".716" style="opacity:1;fill:#7b7674;fill-opacity:1;stroke:none;stroke-width:1.05833;stroke-linecap:round;stroke-linejoin:round;stroke-dasharray:none;stroke-opacity:1" transform="rotate(-30)"/><path d="m67.602 183.062-.15.086M75.873 178.286l-.15.086M84.144 173.51l-.149.087" style="opacity:1;fill:#353332;fill-opacity:.137116;stroke:#353331;stroke-width:2.11667;stroke-linecap:round;stroke-linejoin:round;stroke-dasharray:none;stroke-opacity:1"/><path d="m60.048 194.245-1.186-2.884 2.539-1.828" style="opacity:1;fill:#353332;fill-opacity:.137116;stroke:#353331;stroke-width:2.11667;stroke-linecap:butt;stroke-linejoin:bevel;stroke-dasharray:none;stroke-opacity:1"/><circle cx="-35.075" cy="206.512" r=".716" style="fill:#7b7674;fill-opacity:1;stroke:none;stroke-width:1.05833;stroke-linecap:round;stroke-linejoin:round;stroke-dasharray:none;stroke-opacity:1" transform="rotate(-30)"/><circle cx="-51.284" cy="206.901" r="1.191" style="fill:#7b7674;fill-opacity:1;stroke:#343232;stroke-width:1.05833;stroke-linecap:round;stroke-linejoin:round;stroke-dasharray:none;stroke-opacity:1" transform="rotate(-30)"/><g style="stroke-width:1.40852;stroke-dasharray:none"><path d="M128.7 172.18s.05-1.403 1.34-1.403 1.525 1.342 1.525 1.342v5.488s-.203 1.341-1.524 1.341-1.342-1.28-1.342-1.28z" style="fill:gray;fill-opacity:1;fill-rule:evenodd;stroke:#343232;stroke-width:1.40852;stroke-linecap:round;stroke-linejoin:round;stroke-miterlimit:29;stroke-dasharray:none;stroke-opacity:1" transform="rotate(-30 165.202 119.677)scale(.75138)"/></g><path d="M15.563 195.2h.488v5.732h-.488z" style="fill:#333;fill-opacity:1;fill-rule:evenodd;stroke:none;stroke-width:1.05833;stroke-linecap:round;stroke-linejoin:round;stroke-miterlimit:29;stroke-dasharray:none;stroke-opacity:1" transform="rotate(-30)"/><path d="M127.089 167.655s1.148-4.177 5.661-6.783c3.22-1.859 16.953-10.393 16.953-10.393l.518.898-16.862 10.37s-3.914 2.61-6.244 5.893zM124.47 152.447l19.932-11.27-.49-.879-19.952 11.282z" style="fill:#7c4936;fill-opacity:1;fill-rule:evenodd;stroke:none;stroke-width:2.11667;stroke-linecap:round;stroke-linejoin:round;stroke-miterlimit:29;stroke-dasharray:none;stroke-opacity:1"/><path d="m70.294 204.232.431.747s3.826.623 4.965 5.15l3.914 16.61s-.6-.003-.75-.264m0 0-3.993-16.316s-1.447-4.144-4.748-4.429l-.603-1.045.784-.453" style="fill:#7e4835;fill-opacity:1;fill-rule:evenodd;stroke:none;stroke-width:1.05833;stroke-linecap:round;stroke-linejoin:round;stroke-miterlimit:29;stroke-dasharray:none;stroke-opacity:1"/></g></svg>