<svg xmlns="http://www.w3.org/2000/svg" width="132.833" height="26.368" viewBox="0 0 35.145 6.977"><g transform="translate(13.208 3.922)"><path d="m-9.194.617-3.183.025v-2.127l3.183-.025z" style="fill:#433b23;fill-opacity:1;stroke:#1b1912;stroke-width:.79375;stroke-linejoin:round;stroke-dasharray:none;stroke-opacity:1"/><path d="m-11.216.87-1.595.553V-2.29l1.595.504zm7.414.774-5.535-.53v-3.096l5.535-.53z" style="fill:#655934;fill-opacity:1;stroke:#1b1912;stroke-width:.79375;stroke-linejoin:round;stroke-dasharray:none;stroke-opacity:1"/><g style="fill:#847648;fill-opacity:1;stroke:#1b1912;stroke-opacity:1"><path d="M11.51 17.625h5.817v-.86h-5.818z" style="fill:#847648;fill-opacity:1;stroke:#1b1912;stroke-width:.396875;stroke-linecap:round;stroke-linejoin:round;stroke-dasharray:none;stroke-opacity:1" transform="translate(-3.749 -15.024)"/><g style="fill:#847648;fill-opacity:1;stroke:#1b1912;stroke-opacity:1"><path d="M-35.607 41.542v.538m.794-.538v.538m.79-.538v.538m.79-.538v.538m.791-.538v.538m.792-.538v.538m.79-.538v.538m.79-.538v.538" style="fill:#847648;fill-opacity:1;stroke:#1b1912;stroke-width:.397;stroke-linecap:butt;stroke-linejoin:round;stroke-dasharray:none;stroke-opacity:1" transform="translate(43.508 -39.025)"/></g></g><g style="fill:#847648;fill-opacity:1;stroke:#1b1912;stroke-opacity:1"><path d="M11.51 17.625h5.817v-.86h-5.818z" style="fill:#847648;fill-opacity:1;stroke:#1b1912;stroke-width:.396875;stroke-linecap:round;stroke-linejoin:round;stroke-dasharray:none;stroke-opacity:1" transform="matrix(1 0 0 -1 -3.749 14.157)"/><g style="fill:#847648;fill-opacity:1;stroke:#1b1912;stroke-opacity:1"><path d="M-35.607 41.542v.538m.794-.538v.538m.79-.538v.538m.79-.538v.538m.791-.538v.538m.792-.538v.538m.79-.538v.538m.79-.538v.538" style="fill:#847648;fill-opacity:1;stroke:#1b1912;stroke-width:.397;stroke-linecap:butt;stroke-linejoin:round;stroke-dasharray:none;stroke-opacity:1" transform="matrix(1 0 0 -1 43.508 38.158)"/></g></g><path d="M4.539 2.663c-.396.212-.65.235-1.063-.002V-.03l1.063.002z" style="fill:#38362e;fill-opacity:1;stroke:#191815;stroke-width:.396875;stroke-linejoin:round;stroke-dasharray:none;stroke-opacity:1"/><path d="M-4.024 1.826h1.256c.2-.201.173-.509.694-.53h6.102c.973.033 1.367.31 1.922.53h7.943v-4.519H5.96c-.628.35-.911.511-1.931.53h-6.12c-.438-.004-.499-.369-.658-.53h-1.274z" style="fill:#75683d;fill-opacity:1;stroke:#1b1912;stroke-width:.79375;stroke-linejoin:round;stroke-dasharray:none;stroke-opacity:1"/><path d="M13.508-1.275h5.281l.409-.284h2.397V.822h-2.397l-.415-.245h-5.275z" class="cls-3" style="fill:#434137;fill-opacity:1;fill-rule:evenodd;stroke:none;stroke-width:.79375px;stroke-linecap:round;stroke-linejoin:round;stroke-miterlimit:5.89;stroke-opacity:1"/><path d="M18.81-1.567h2.692V.829h-2.579z" style="fill:#38362e;fill-opacity:1;stroke:none;stroke-width:.79375;stroke-linejoin:round;stroke-dasharray:none;stroke-opacity:1"/><path d="M13.453-1.34h5.15l.408-.284h2.53v2.38h-2.53l-.415-.244h-5.143z" class="cls-3" style="fill:none;fill-opacity:1;fill-rule:evenodd;stroke:#191815;stroke-width:.79375px;stroke-linecap:round;stroke-linejoin:round;stroke-miterlimit:5.89;stroke-opacity:1"/><path d="M15.44.714 13.647.712v-2.249l1.793.002z" style="fill:#555145;fill-opacity:1;stroke:#191815;stroke-width:.396875;stroke-linejoin:round;stroke-dasharray:none;stroke-opacity:1"/><path d="M14.025.93 12.232.927v-2.732l1.793.002z" style="fill:#847648;fill-opacity:1;stroke:#1b1912;stroke-width:.794;stroke-linejoin:round;stroke-dasharray:none;stroke-opacity:1"/><path d="m15.43-.092-.734-.002v-.681l.735.001z" style="fill:#38362e;fill-opacity:1;stroke:#191815;stroke-width:.396875;stroke-linejoin:round;stroke-dasharray:none;stroke-opacity:1"/><g style="fill:#2f2f36;fill-opacity:1"><g style="fill:#97864f;fill-opacity:1"><path d="M-127.947 54.197h-11.62" style="color:#000;fill:#97864f;fill-opacity:1;stroke-linejoin:round;-inkscape-stroke:none" transform="matrix(1.36794 0 0 1 186.893 -54.635)"/><path d="M-138.844 53.535v1.322h11.367v-1.322z" style="color:#000;fill:#97864f;fill-opacity:1;stroke-width:1.00571;stroke-linejoin:round;-inkscape-stroke:none" transform="matrix(1.36794 0 0 1 186.893 -54.635)"/></g><g style="fill:#3d3829;fill-opacity:1"><path d="M-136.563 53.53v1.334m-.033-1.334v1.333h.43V53.53z" style="color:#000;fill:#3d3829;fill-opacity:1;stroke-linejoin:round;-inkscape-stroke:none" transform="translate(133.424 -54.63)"/></g><g style="fill:#3d3829;fill-opacity:1"><path d="M-135.12 53.53v1.334m-.398-1.334v1.333h.795V53.53z" style="color:#000;fill:#3d3829;fill-opacity:1;stroke-linejoin:round;-inkscape-stroke:none" transform="translate(133.416 -54.63)"/></g><g style="fill:#3d3829;fill-opacity:1"><path d="M-133.679 53.53v1.334m-.397-1.334v1.333h.795V53.53z" style="color:#000;fill:#3d3829;fill-opacity:1;stroke-linejoin:round;-inkscape-stroke:none" transform="translate(133.41 -54.63)"/></g><g style="fill:#3d3829;fill-opacity:1"><path d="M-130.8 53.53v1.335m-.397-1.334v1.334h.793v-1.334Z" style="color:#000;fill:#3d3829;fill-opacity:1;stroke-linejoin:round;-inkscape-stroke:none" transform="translate(133.4 -54.632)"/></g><g style="fill:#3d3829;fill-opacity:1"><path d="M-130.8 53.53v1.335m-.397-1.334v1.334h.793v-1.334Z" style="color:#000;fill:#3d3829;fill-opacity:1;stroke-linejoin:round;-inkscape-stroke:none" transform="translate(131.966 -54.632)"/></g><g style="fill:#3d3829;fill-opacity:1"><path d="M-129.358 53.53v1.335m-.396-1.334v1.334h.793v-1.334Z" style="color:#000;fill:#3d3829;fill-opacity:1;stroke-linejoin:round;-inkscape-stroke:none" transform="translate(133.39 -54.632)"/></g><g style="fill:#3d3829;fill-opacity:1"><path d="M-127.966 53.53v1.335m-.397-1.334v1.334h.795v-1.334Z" style="color:#000;fill:#3d3829;fill-opacity:1;stroke-linejoin:round;-inkscape-stroke:none" transform="translate(133.433 -54.632)"/></g><g style="fill:#3d3829;fill-opacity:1"><path d="M-138.005 53.53v1.334m-.397-1.334v1.333h.795V53.53z" style="color:#000;fill:#3d3829;fill-opacity:1;stroke-linejoin:round;-inkscape-stroke:none" transform="translate(144.907 -54.63)"/></g><g style="fill:#3d3829;fill-opacity:1"><path d="M-136.563 53.53v1.334m-.397-1.334v1.333h.794V53.53z" style="color:#000;fill:#3d3829;fill-opacity:1;stroke-linejoin:round;-inkscape-stroke:none" transform="translate(144.901 -54.63)"/></g><g style="fill:#3d3829;fill-opacity:1"><path d="M-135.12 53.53v1.334m-.398-1.334v1.333h.795V53.53z" style="color:#000;fill:#3d3829;fill-opacity:1;stroke-linejoin:round;-inkscape-stroke:none" transform="translate(144.893 -54.63)"/></g><g style="fill:#3d3829;fill-opacity:1"><path d="M-133.679 53.53v1.334m-.397-1.334v1.333h.795V53.53z" style="color:#000;fill:#3d3829;fill-opacity:1;stroke-linejoin:round;-inkscape-stroke:none" transform="translate(144.888 -54.63)"/></g><g style="fill:#3d3829;fill-opacity:1"><path d="M-132.243 53.53v1.335m-.396-1.334v1.334h.428v-1.334Z" style="color:#000;fill:#3d3829;fill-opacity:1;stroke-linejoin:round;-inkscape-stroke:none" transform="translate(144.885 -54.632)"/></g></g><path d="M-3.032.226h15.338l.514-.251V-.78l-.444-.314H-2.982l-.292.254v.787z" style="fill:none;fill-opacity:1;stroke:#1b1912;stroke-width:.396875;stroke-linejoin:round;stroke-dasharray:none;stroke-opacity:1"/><path d="M-.575.432-2.17.457v-1.742l1.595-.007z" style="fill:#544a2c;fill-opacity:1;stroke:#1b1912;stroke-width:.396875;stroke-linejoin:round;stroke-dasharray:none;stroke-opacity:1" transform="translate(-.178 -.016)"/><path d="m-1.477.458-.701-.002v-1.742l.701-.006z" style="fill:#322c1a;fill-opacity:1;stroke:#1b1912;stroke-width:.396875;stroke-linejoin:round;stroke-dasharray:none;stroke-opacity:1" transform="translate(-.178 -.016)"/><path d="M-.575.432-2.17.457v-1.742l1.595-.007z" style="fill:#544a2c;fill-opacity:1;stroke:#1b1912;stroke-width:.396875;stroke-linejoin:round;stroke-dasharray:none;stroke-opacity:1" transform="translate(12.837 -.016)"/><path d="m-1.477.458-.701-.002v-1.742l.701-.006z" style="fill:#322c1a;fill-opacity:1;stroke:#1b1912;stroke-width:.396875;stroke-linejoin:round;stroke-dasharray:none;stroke-opacity:1" transform="translate(12.837 -.016)"/><ellipse cx="20.164" cy="-.434" rx=".792" ry=".312" style="fill:#191815;fill-opacity:1;stroke:none;stroke-width:.396875;stroke-linecap:butt;stroke-linejoin:round;stroke-dasharray:none;stroke-opacity:1"/><circle cx="-4.375" cy="1.687" r=".62" style="fill:#655934;fill-opacity:1;stroke:#1b1912;stroke-width:.396875;stroke-linejoin:round;stroke-dasharray:none;stroke-opacity:1"/><path d="M18.841-1.624V.879" style="fill:#655934;fill-opacity:1;stroke:#191815;stroke-width:.79375;stroke-linejoin:round;stroke-dasharray:none;stroke-opacity:1"/></g></svg>