<svg width="110" height="110" viewBox="0 0 110 110" fill="none" xmlns="http://www.w3.org/2000/svg">
<g clip-path="url(#clip0_4152_1387)">
<path d="M34.3326 70.2644L34.0191 69.9509C34.2679 69.7679 34.8537 69.3003 35.6129 68.6849C36.2195 68.1932 36.9368 67.6071 37.6815 66.9963C38.3568 66.4425 39.0546 65.8684 39.7127 65.3259C40.482 64.692 41.1107 63.9516 41.6724 63.4871C42.3981 62.887 42.8678 62.4976 42.8678 62.4976C43.21 63.0095 43.6822 63.6878 44.0992 64.2246C44.6152 64.8888 45.1789 65.5653 45.7668 66.2376C46.3406 66.8937 46.9374 67.5458 47.5353 68.1784C48.1601 68.8395 48.786 69.4793 49.3882 70.0804C50.0686 70.7596 50.7186 71.3893 51.3022 71.9443C52.0977 72.7008 52.7698 73.3183 53.2272 73.7329C53.6365 74.1039 53.8738 74.3123 53.8738 74.3123C53.8129 74.4778 53.5417 74.9358 53.1678 75.5315C52.7588 76.1832 52.227 76.9998 51.7133 77.7788C51.1245 78.6717 50.5595 79.5152 50.2306 80.0045C50.0473 80.2771 49.9373 80.4398 49.9373 80.4398L48.5153 82.0307L47.145 83.5637C46.6153 83.1819 46.0723 82.7589 45.5232 82.3057C44.8573 81.7562 44.1824 81.1623 43.5113 80.5439C42.7508 79.8432 41.9952 79.1109 41.2628 78.3759C40.5734 77.6839 39.9046 76.9894 39.2719 76.3164C38.5666 75.5662 37.9062 74.8427 37.3121 74.1792C36.5297 73.3054 35.8623 72.5357 35.3587 71.9458C34.7096 71.1854 34.3326 70.724 34.3326 70.724L34.3326 70.2644Z" fill="#99856E"/>
<path d="M43.0051 65.2593C43.4603 65.8302 44.0283 66.5224 44.6968 67.2975M43.0051 65.2593C42.3678 65.8516 41.694 66.4625 41.0206 67.0634M43.0051 65.2593C43.3854 64.9058 43.7528 64.5589 44.0992 64.2246M43.0051 65.2593C42.3195 64.3995 41.8036 63.6652 41.6724 63.4871M44.6968 67.2975C45.226 67.911 45.8182 68.5765 46.4671 69.2748M44.6968 67.2975C44.071 67.909 43.4121 68.5405 42.756 69.1616M44.6968 67.2975C45.0675 66.9351 45.4267 66.5797 45.7668 66.2376M46.4671 69.2748C47.0434 69.8948 47.6644 70.5407 48.3259 71.1991M46.4671 69.2748C45.8526 69.8988 45.2072 70.5444 44.5653 71.1803M46.4671 69.2748C46.8369 68.8993 47.1954 68.5316 47.5353 68.1784M48.3259 71.1991C48.9586 71.8289 49.6284 72.4701 50.3314 73.111M48.3259 71.1991C47.7221 71.8297 47.0872 72.4853 46.4559 73.1326M48.3259 71.1991C48.6942 70.8144 49.0509 70.439 49.3882 70.0804M50.3314 73.111C50.9695 73.6928 51.6349 74.2743 52.3249 74.8468M50.3314 73.111C49.767 73.7745 49.1661 74.459 48.5635 75.1322M50.3314 73.111C50.6708 72.7121 50.9969 72.3208 51.3022 71.9443M52.3249 74.8468C51.7723 75.5115 51.1788 76.1984 50.5805 76.8743M52.3249 74.8468C52.602 75.0767 52.883 75.3051 53.1678 75.5315M52.3249 74.8468C52.6414 74.4662 52.9444 74.0928 53.2272 73.7329M50.5805 76.8743C49.8866 76.3039 49.2132 75.7203 48.5635 75.1322M50.5805 76.8743C49.972 77.5617 49.3587 78.2378 48.7785 78.8677M50.5805 76.8743C50.9524 77.1801 51.3301 77.482 51.7133 77.7788M48.5635 75.1322C47.829 74.4672 47.1248 73.7965 46.4559 73.1326M48.5635 75.1322C47.9488 75.8189 47.3323 76.4936 46.7511 77.1218M46.4559 73.1326C45.7891 72.4709 45.1573 71.816 44.5653 71.1803M46.4559 73.1326C45.8124 73.7924 45.1726 74.4435 44.5731 75.0508M44.5653 71.1803C43.9116 70.4783 43.3063 69.7998 42.756 69.1616M44.5653 71.1803C43.9116 71.8278 43.2616 72.4654 42.6515 73.06M42.756 69.1616C42.0945 68.3943 41.5123 67.6852 41.0206 67.0634M42.756 69.1616C42.0889 69.7931 41.4246 70.4139 40.8006 70.9924M41.0206 67.0634C40.3377 67.6727 39.6554 68.2718 39.0122 68.8307M41.0206 67.0634C40.4626 66.3576 40.0212 65.7643 39.7127 65.3259M39.0122 68.8307C38.269 69.4766 37.578 70.0689 36.999 70.5618M39.0122 68.8307C39.4965 69.4438 40.0994 70.1792 40.8006 70.9924M39.0122 68.8307C38.2888 67.915 37.8089 67.2228 37.6815 66.9963M36.999 70.5618C37.5039 71.2084 38.1208 71.9679 38.834 72.8005M36.999 70.5618C36.1448 71.2889 35.5342 71.7994 35.3587 71.9458M36.999 70.5618C36.404 69.7997 35.8757 69.0743 35.6129 68.6849M38.834 72.8005C39.3938 72.29 40.0695 71.6703 40.8006 70.9924M38.834 72.8005C39.4057 73.468 40.0394 74.1825 40.727 74.9235M38.834 72.8005C38.0177 73.5449 37.4479 74.0572 37.3121 74.1792M40.8006 70.9924C41.3588 71.6397 41.9792 72.3364 42.6515 73.06M42.6515 73.06C41.9353 73.7581 41.2742 74.397 40.727 74.9235M42.6515 73.06C43.2529 73.7074 43.8959 74.3763 44.5731 75.0508M40.727 74.9235C41.3394 75.5835 41.9946 76.2646 42.6869 76.9524M40.727 74.9235C39.9795 75.6427 39.4446 76.1523 39.2719 76.3164M42.6869 76.9524C43.2204 76.417 43.8689 75.7641 44.5731 75.0508M42.6869 76.9524C43.3958 77.6566 44.1437 78.3679 44.9244 79.0706M42.6869 76.9524C41.8867 77.7553 41.3452 78.2939 41.2628 78.3759M46.7511 77.1218C45.9946 76.437 45.266 75.741 44.5731 75.0508M46.7511 77.1218C46.0749 77.8527 45.4466 78.5204 44.9244 79.0706M46.7511 77.1218C47.4076 77.716 48.0852 78.3017 48.7785 78.8677M44.9244 79.0706C45.5801 79.6608 46.2591 80.245 46.9576 80.814M44.9244 79.0706C44.1861 79.8483 43.6601 80.3909 43.5113 80.5439M46.9576 80.814C47.4809 80.2629 48.1075 79.5962 48.7785 78.8677M46.9576 80.814C46.2162 81.5945 45.6823 82.1429 45.5232 82.3057M46.9576 80.814C47.4669 81.2288 47.9866 81.6356 48.5153 82.0307M48.7785 78.8677C49.2556 79.2572 49.7402 79.6373 50.2306 80.0045M35.3587 71.9458C34.7096 71.1854 34.3326 70.724 34.3326 70.724L34.3326 70.2644L34.0191 69.9509C34.2679 69.7679 34.8537 69.3003 35.6129 68.6849M35.3587 71.9458C35.8623 72.5357 36.5297 73.3054 37.3121 74.1792M37.3121 74.1792C37.9062 74.8427 38.5666 75.5662 39.2719 76.3164M39.2719 76.3164C39.9046 76.9894 40.5734 77.6839 41.2628 78.3759M41.2628 78.3759C41.9952 79.1109 42.7508 79.8432 43.5113 80.5439M43.5113 80.5439C44.1824 81.1623 44.8573 81.7562 45.5232 82.3057M45.5232 82.3057C46.0723 82.7589 46.6153 83.1819 47.145 83.5637L48.5153 82.0307M48.5153 82.0307L49.9373 80.4398C49.9373 80.4398 50.0473 80.2771 50.2306 80.0045M50.2306 80.0045C50.5595 79.5152 51.1245 78.6717 51.7133 77.7788M51.7133 77.7788C52.227 76.9998 52.7588 76.1832 53.1678 75.5315M53.1678 75.5315C53.5417 74.9358 53.8129 74.4778 53.8738 74.3123C53.8738 74.3123 53.6365 74.1039 53.2272 73.7329M53.2272 73.7329C52.7698 73.3183 52.0977 72.7008 51.3022 71.9443M51.3022 71.9443C50.7186 71.3893 50.0686 70.7596 49.3882 70.0804M49.3882 70.0804C48.786 69.4793 48.1601 68.8395 47.5353 68.1784M47.5353 68.1784C46.9374 67.5458 46.3406 66.8937 45.7668 66.2376M45.7668 66.2376C45.1789 65.5653 44.6152 64.8888 44.0992 64.2246M44.0992 64.2246C43.6822 63.6878 43.21 63.0095 42.8678 62.4976C42.8678 62.4976 42.3981 62.887 41.6724 63.4871M41.6724 63.4871C41.1107 63.9516 40.482 64.692 39.7127 65.3259M39.7127 65.3259C39.0546 65.8684 38.3568 66.4425 37.6815 66.9963M37.6815 66.9963C36.9368 67.6071 36.2195 68.1932 35.6129 68.6849" stroke="#3C342A" stroke-width="0.691047" stroke-miterlimit="29" stroke-linecap="round"/>
<path d="M34.0191 69.9509L34.3326 70.2644L34.3326 70.724C34.3326 70.724 41.4919 79.4892 47.145 83.5637L49.9373 80.4398C49.9373 80.4398 53.6275 74.982 53.8738 74.3123C53.8738 74.3123 46.2257 67.5217 42.8678 62.4976C42.8678 62.4976 35.1298 69.1338 34.0191 69.9509Z" stroke="#3C342A" stroke-width="1.3821" stroke-miterlimit="29" stroke-linecap="round"/>
<path d="M41.3578 64.3085L40.3418 65.1632L41.1898 66.1243L42.1948 65.2297L41.3578 64.3085ZM39.3259 66.0164L38.2709 66.8932L39.1684 67.8869L40.1574 67.0252L39.3259 66.0164ZM37.2646 67.6857L36.2448 68.5973L37.122 69.6657L38.1596 68.806L37.2646 67.6857ZM42.9373 66.183L41.8915 67.0852L42.8206 68.1775L43.8331 67.2824L42.9373 66.183ZM40.9261 68.0145L39.8933 68.9319L40.8383 70.0106L41.8375 69.1006L40.9261 68.0145ZM39.0083 69.7623L37.9625 70.6646L38.8916 71.7568L39.9039 70.8614L39.0083 69.7623ZM44.7166 68.1837L43.705 69.1242L44.6742 70.1813L45.6524 69.2491L44.7166 68.1837ZM42.6863 70.1328L41.6885 71.0876L42.6725 72.1306L43.6375 71.1843L42.6863 70.1328ZM40.7372 71.9322L39.7256 72.8727L40.6947 73.9298L41.673 72.9976L40.7372 71.9322ZM46.5013 70.1593L45.5047 71.1157L46.4901 72.1571L47.4537 71.2096L46.5013 70.1593ZM44.5018 72.1401L43.5192 73.1106L44.5195 74.138L45.4695 73.1765L44.5018 72.1401ZM42.634 74.0379L41.6372 74.994L42.6228 76.0357L43.5864 75.0882L42.634 74.0379ZM48.4513 72.1906L47.4831 73.1751L48.4984 74.1879L49.434 73.2129L48.4513 72.1906ZM46.4984 74.1858L45.5441 75.1844L46.5741 76.1822L47.4955 75.1935L46.4984 74.1858ZM44.6378 76.0759L43.6695 77.0604L44.6847 78.0729L45.6202 77.0979L44.6378 76.0759ZM50.4047 73.955L49.4685 74.97L50.5154 75.9498L51.4196 74.9455L50.4047 73.955ZM48.5298 76.0536L47.608 77.0822L48.6691 78.0468L49.5587 77.0294L48.5298 76.0536ZM46.7376 78.0324L45.8009 79.0474L46.8481 80.027L47.7523 79.0226L46.7376 78.0324Z" fill="#AF9F8D"/>
<path d="M75.7704 25.8137C76.1418 25.7244 76.4244 25.5754 76.4016 25.4808C76.3789 25.3862 76.0594 25.3819 75.688 25.4712C75.3167 25.5604 75.0341 25.7095 75.0568 25.8041C75.0795 25.8987 75.399 25.903 75.7704 25.8137Z" fill="#3C3C3C" stroke="#333333" stroke-width="1.3821" stroke-linecap="square"/>
<rect x="74.3477" y="25.9619" width="2.85921" height="2.46877" rx="0.172762" transform="rotate(-11.93 74.3477 25.9619)" fill="#3C3C3C" stroke="#333333" stroke-width="0.691049"/>
<path d="M83.2544 33.0354C83.2487 33.0255 83.2508 33.0137 83.2591 33.0089L84.1325 32.5047C84.1408 32.4999 84.1521 32.504 84.1577 32.5138L85.1881 34.2985C85.1938 34.3083 85.1917 34.3201 85.1834 34.3249L84.31 34.8292C84.3018 34.8339 84.2905 34.8298 84.2848 34.82L83.2544 33.0354Z" fill="#3B3B3B" stroke="#333333" stroke-width="0.691049"/>
<path d="M81.8727 34.2774L83.785 33.1734C84.2972 32.8777 84.3634 32.6654 84.3223 32.1795L84.0768 30.3413L79.6055 32.9229L81.8727 34.2774Z" fill="#4A4A4A" stroke="#333333" stroke-width="1.3821" stroke-linecap="round"/>
<rect x="85.4746" y="24.873" width="12.5835" height="2.02658" transform="rotate(-30 85.4746 24.873)" fill="#5E5E5E" stroke="#333333" stroke-width="1.3821"/>
<rect x="77.5332" y="29.1162" width="9.81918" height="2.8111" rx="0.172762" transform="rotate(-30 77.5332 29.1162)" fill="#5E5E5E" stroke="#333333" stroke-width="1.3821"/>
<rect x="77.3594" y="31.6172" width="11.2198" height="2.25434" transform="rotate(-30 77.3594 31.6172)" fill="#515151" stroke="#333333" stroke-width="1.3821"/>
<path d="M70.4824 28.1943L71.177 29.3974L72.7277 28.5021L70.7621 28.0328L70.4824 28.1943Z" fill="#404040" stroke="#333333" stroke-width="0.691049"/>
<rect x="34.709" y="48.7158" width="0.38087" height="1.10271" transform="rotate(-30 34.709 48.7158)" fill="#404040" stroke="#333333" stroke-width="0.691049"/>
<path d="M33.2522 49.9449C33.2283 49.9036 33.2425 49.8508 33.2838 49.8269L33.6849 49.5953C33.7263 49.5715 33.7791 49.5856 33.8029 49.6269L34.1686 50.2604L33.6179 50.5783L33.2522 49.9449Z" fill="#404040" stroke="#333333" stroke-width="0.691049"/>
<rect x="36.3203" y="47.7861" width="0.38087" height="1.10271" transform="rotate(-30 36.3203 47.7861)" fill="#404040" stroke="#333333" stroke-width="0.691049"/>
<rect x="37.9316" y="46.8555" width="0.38087" height="1.10271" transform="rotate(-30 37.9316 46.8555)" fill="#404040" stroke="#333333" stroke-width="0.691049"/>
<rect x="39.543" y="45.9248" width="0.38087" height="1.10271" transform="rotate(-30 39.543 45.9248)" fill="#404040" stroke="#333333" stroke-width="0.691049"/>
<rect x="41.1543" y="44.9951" width="0.38087" height="1.10271" transform="rotate(-30 41.1543 44.9951)" fill="#404040" stroke="#333333" stroke-width="0.691049"/>
<rect x="42.7656" y="44.0645" width="0.38087" height="1.10271" transform="rotate(-30 42.7656 44.0645)" fill="#404040" stroke="#333333" stroke-width="0.691049"/>
<rect x="44.377" y="43.1338" width="0.38087" height="1.10271" transform="rotate(-30 44.377 43.1338)" fill="#404040" stroke="#333333" stroke-width="0.691049"/>
<rect x="45.9883" y="42.2041" width="0.38087" height="1.10271" transform="rotate(-30 45.9883 42.2041)" fill="#404040" stroke="#333333" stroke-width="0.691049"/>
<rect x="47.5996" y="41.2734" width="0.38087" height="1.10271" transform="rotate(-30 47.5996 41.2734)" fill="#404040" stroke="#333333" stroke-width="0.691049"/>
<rect x="49.2109" y="40.3428" width="0.38087" height="1.10271" transform="rotate(-30 49.2109 40.3428)" fill="#404040" stroke="#333333" stroke-width="0.691049"/>
<rect x="50.8223" y="39.4131" width="0.38087" height="1.10271" transform="rotate(-30 50.8223 39.4131)" fill="#404040" stroke="#333333" stroke-width="0.691049"/>
<rect x="52.4336" y="38.4824" width="0.38087" height="1.10271" transform="rotate(-30 52.4336 38.4824)" fill="#404040" stroke="#333333" stroke-width="0.691049"/>
<rect x="54.0449" y="37.5518" width="0.38087" height="1.10271" transform="rotate(-30 54.0449 37.5518)" fill="#404040" stroke="#333333" stroke-width="0.691049"/>
<rect x="55.6562" y="36.6221" width="0.38087" height="1.10271" transform="rotate(-30 55.6562 36.6221)" fill="#404040" stroke="#333333" stroke-width="0.691049"/>
<rect x="57.2676" y="35.6914" width="0.38087" height="1.10271" transform="rotate(-30 57.2676 35.6914)" fill="#404040" stroke="#333333" stroke-width="0.691049"/>
<rect x="58.8809" y="34.7607" width="0.38087" height="1.10271" transform="rotate(-30 58.8809 34.7607)" fill="#404040" stroke="#333333" stroke-width="0.691049"/>
<rect x="60.4922" y="33.8311" width="0.38087" height="1.10271" transform="rotate(-30 60.4922 33.8311)" fill="#404040" stroke="#333333" stroke-width="0.691049"/>
<rect x="62.1035" y="32.9004" width="0.38087" height="1.10271" transform="rotate(-30 62.1035 32.9004)" fill="#404040" stroke="#333333" stroke-width="0.691049"/>
<rect x="63.7148" y="31.9707" width="0.38087" height="1.10271" transform="rotate(-30 63.7148 31.9707)" fill="#404040" stroke="#333333" stroke-width="0.691049"/>
<rect x="65.3262" y="31.04" width="0.38087" height="1.10271" transform="rotate(-30 65.3262 31.04)" fill="#404040" stroke="#333333" stroke-width="0.691049"/>
<rect x="66.9375" y="30.1094" width="0.38087" height="1.10271" transform="rotate(-30 66.9375 30.1094)" fill="#404040" stroke="#333333" stroke-width="0.691049"/>
<rect x="68.5488" y="29.1797" width="0.38087" height="1.10271" transform="rotate(-30 68.5488 29.1797)" fill="#404040" stroke="#333333" stroke-width="0.691049"/>
<path d="M36.5606 51.3067C36.1949 50.6867 35.9629 49.8758 34.7031 50.5336L34.1685 50.8423L33.9297 50.4287L71.9454 28.4803L74.8139 28.3929L76.7796 31.1514L42.4477 51.0522L36.5606 51.3067Z" fill="#4C4C4C" stroke="#333333" stroke-width="1.3821" stroke-miterlimit="100" stroke-linecap="round"/>
<rect x="37.0508" y="49.8154" width="40.825" height="0.691049" rx="0.345524" transform="rotate(-30 37.0508 49.8154)" fill="#3E3E3E"/>
<path d="M79.4991 27.1319L74.3063 28.3782L74.1874 30.1707L55.2953 41.078L57.462 44.3948C58.6015 45.7213 60.0246 45.5324 61.5636 44.7243L77.6476 35.4382L78.0746 36.4112L81.8728 34.2775L78.3749 28.2189L79.6887 27.4604L79.4991 27.1319Z" fill="#4A4A4A"/>
<path d="M78.3869 28.2383C78.0516 28.482 77.9454 28.8532 77.8354 29.2373C77.7059 29.6898 77.5713 30.1602 77.0508 30.4607L61.0181 39.7172C60.4509 40.0131 59.7451 39.1721 59.4526 38.679L56.4609 40.4062L58.183 43.18C58.4859 43.7046 58.8739 43.6351 59.4049 43.358L77.2963 33.0284C78.6575 32.144 79.6787 31.303 79.903 30.8642L78.3869 28.2383Z" fill="#424242"/>
<path d="M80.9546 33.4094L59.6597 45.704C59.441 45.8302 59.3182 46.027 59.3854 46.1435L59.694 46.6779C59.7612 46.7944 59.993 46.7864 60.2117 46.6601L81.5066 34.3655C81.7253 34.2392 81.8481 34.0425 81.7809 33.926L81.4723 33.3916C81.4051 33.2751 81.1733 33.2831 80.9546 33.4094Z" fill="#444444"/>
<path d="M79.4991 27.1319L74.3063 28.3782L74.1874 30.1707L55.2953 41.078L57.462 44.3948C58.6015 45.7213 60.0246 45.5324 61.5636 44.7243L77.6476 35.4382L78.0746 36.4112L81.8728 34.2775L78.3749 28.2189L79.6887 27.4604L79.4991 27.1319Z" stroke="#333333" stroke-width="1.3821" stroke-linecap="round"/>
<rect x="75.0625" y="29" width="2.40089" height="1.20998" rx="0.172762" transform="rotate(-12.6 75.0625 29)" fill="#3C3C3C"/>
<rect x="75.7109" y="26.2568" width="3.46751" height="0.345524" rx="0.172762" transform="rotate(-7.0793 75.7109 26.2568)" fill="#4D4D4D" stroke="#333333" stroke-width="0.691049"/>
<rect x="69.1641" y="34.0654" width="6.63051" height="0.990008" rx="0.345524" transform="rotate(-30 69.1641 34.0654)" fill="#404040" stroke="#333333" stroke-width="0.691049"/>
<path d="M83.2387 32.5271C83.3895 32.4401 83.4412 32.2472 83.3541 32.0964C83.2671 31.9456 83.0742 31.894 82.9234 31.981C82.7726 32.0681 82.721 32.2609 82.808 32.4117C82.8951 32.5625 83.0879 32.6142 83.2387 32.5271Z" fill="#737373"/>
<path fill-rule="evenodd" clip-rule="evenodd" d="M98.7598 16.6152L106.094 12.7799L107.271 14.8191L100.283 19.2528L98.7598 16.6152ZM105.975 13.3431C104.216 14.0934 102.223 15.1716 100.248 16.6497L100.574 17.2142L106.301 13.9076L105.975 13.3431ZM106.398 14.0757L100.671 17.3823L101.001 17.9547C104.456 16.2587 105.158 15.8326 106.728 14.6481L106.398 14.0757Z" fill="#4D4D4D"/>
<path d="M105.974 13.343C104.215 14.0934 102.222 15.1716 100.247 16.6496L100.573 17.2142L106.3 13.9076L105.974 13.343Z" stroke="#333333" stroke-width="0.691049"/>
<path d="M100.67 17.3822L106.397 14.0756L106.727 14.6481C105.157 15.8326 104.455 16.2587 101 17.9547L100.67 17.3822Z" stroke="#333333" stroke-width="0.691049"/>
<path d="M98.7598 16.6152L106.094 12.7799L107.271 14.8191L100.283 19.2528L98.7598 16.6152Z" stroke="#333333" stroke-width="1.3821"/>
<rect x="105.85" y="12.3574" width="0.488677" height="3.32837" transform="rotate(-30 105.85 12.3574)" fill="#454545" stroke="#333333" stroke-width="1.3821"/>
<rect x="99.3906" y="16.7764" width="1.32819" height="2.13523" rx="0.345524" transform="rotate(-30 99.3906 16.7764)" fill="#7B7B7B" stroke="#333333" stroke-width="0.691049"/>
<rect x="87.2402" y="26.292" width="2.37286" height="1.78566" rx="0.172762" transform="rotate(-30 87.2402 26.292)" fill="#9B9B9B" stroke="#333333" stroke-width="1.3821"/>
<path d="M89.6934 25.7949L90.5686 25.2896C90.6145 25.2631 90.6733 25.2788 90.6998 25.3247V25.3247C90.7263 25.3706 90.7105 25.4293 90.6646 25.4559L89.7894 25.9612L89.6934 25.7949Z" fill="#4D4D4D" stroke="#333333" stroke-width="0.691049"/>
<path d="M3.844 70.3556C2.46357 71.1526 -0.399432 73.496 1.80866 76.3937C6.4423 81.0274 11.8255 86.297 16.8613 93.8679L21.2356 91.3425" fill="#404040" stroke="#333333" stroke-width="1.3821" stroke-linecap="round"/>
<rect x="32.0078" y="73.4893" width="0.126872" height="0.722429" rx="0.0634361" transform="rotate(-62.9319 32.0078 73.4893)" fill="#3A3A3A" stroke="#333333" stroke-width="0.691049"/>
<rect x="31.7637" y="74.376" width="0.126872" height="0.722429" rx="0.0634361" transform="rotate(-66.9898 31.7637 74.376)" fill="#3A3A3A" stroke="#333333" stroke-width="0.691049"/>
<rect x="31.4668" y="75.2793" width="0.126872" height="0.722429" rx="0.0634361" transform="rotate(-73.4017 31.4668 75.2793)" fill="#3A3A3A" stroke="#333333" stroke-width="0.691049"/>
<rect x="31.2188" y="76.167" width="0.126872" height="0.722429" rx="0.0634361" transform="rotate(-76.9111 31.2188 76.167)" fill="#3A3A3A" stroke="#333333" stroke-width="0.691049"/>
<path d="M27.6203 75.5487L31.0774 76.7495C31.1808 76.7854 31.2911 76.7176 31.31 76.6098C31.5167 75.4275 32.2211 73.5955 33.0062 72.2358L34.0702 70.38L33.476 68.1733L27.6203 75.5487Z" fill="#404040" stroke="#333333" stroke-width="0.691047" stroke-linecap="round"/>
<path d="M61.5148 51.7984L64.4868 50.0825C64.626 50.0021 64.5943 49.7688 64.4496 49.6988C63.1571 49.0728 62.1609 46.7448 63.6114 45.3089L60.4576 47.1297C58.6223 49.3883 59.5831 50.7492 61.5148 51.7984Z" fill="#3F3F3F" stroke="#333333" stroke-width="0.691047" stroke-linecap="round"/>
<path fill-rule="evenodd" clip-rule="evenodd" d="M4.01299 70.2589L55.0932 40.7677L57.4631 44.3955C58.6026 45.722 60.0257 45.5331 61.5647 44.725L77.6487 35.4389L78.0757 36.4119L77.0641 36.996C74.7407 38.4902 72.7565 41.041 72.3997 44.2791L69.8899 60.8144C69.7235 62.6894 68.884 63.2311 68.0681 63.7578L68.0677 63.758C68.0106 63.7949 67.9535 63.8317 67.8968 63.8689L58.2911 69.4148C58.163 69.2015 58.0348 68.9903 57.9074 68.7803C56.0886 65.7844 54.4236 63.0418 55.5265 58.1296C56.5957 54.3443 53.5993 51.3628 49.8496 53.9846C47.2117 56.0453 44.7534 58.1177 43.3585 60.0302C42.588 60.9024 42.6662 61.7238 42.8823 62.5368C42.8996 62.6017 42.8787 62.671 42.8277 62.7146L33.4135 70.7799C33.3314 70.8503 33.2056 70.8288 33.1515 70.7351L32.7495 70.0388C32.6861 69.929 32.5308 69.9214 32.4586 70.0256L32.2296 70.356C27.6311 76.9909 21.9788 85.1463 25.7347 86.8568C27.3174 87.2375 27.6305 87.6636 26.5523 88.273L18.7632 92.7701L4.47241 76.6083L2.46023 74.2743C1.36599 73.0896 2.25575 71.2727 4.01299 70.2589ZM61.7691 46.6836C59.6838 48.1741 61.5271 51.1254 62.669 52.1451L61.9893 52.5376C61.9209 52.5858 61.8536 52.6279 61.7888 52.6686C61.4071 52.9079 61.1081 53.0954 61.1515 54.151L61.8473 63.4763C61.7795 64.2766 62.6775 65.1099 64.4631 63.8565L67.033 62.3728C67.0907 62.3383 67.1463 62.306 67.1999 62.2748C67.8663 61.8877 68.2205 61.6819 68.4276 59.6637L69.9379 49.7062C70.0987 48.7593 70.2461 48.037 70.361 47.4742C70.7075 45.7763 70.7576 45.5304 69.9864 44.9502L68.6667 43.7697C68.1452 43.4943 67.6386 43.3369 66.647 43.8674L61.7691 46.6836Z" fill="#6B6D55"/>
<path d="M48.8715 82.419L54.3626 76.0812C54.9893 75.3082 54.6378 74.9858 53.4998 73.9768L46.6919 81.571C47.4988 82.3779 48.0525 82.592 48.8715 82.419Z" fill="#424242" stroke="#333333" stroke-width="1.3821" stroke-miterlimit="29" stroke-linecap="round"/>
<path d="M60.9061 45.0327L61.0072 45.2079L5.12273 77.3442L4.47154 76.6078L2.45936 74.2739C2.36165 74.1681 2.27976 74.0572 2.21289 73.9424L3.90433 73.327L56.7074 43.2397L57.4622 44.3951C58.4375 45.5304 59.6205 45.5556 60.9061 45.0327Z" fill="#74775D"/>
<path d="M5.3562 77.6071L4.92383 77.1182L59.8261 45.4203L60.3344 46.9918C60.361 47.0449 60.3875 47.097 60.4136 47.1481C60.7421 47.7913 60.9935 48.2837 60.0893 48.8506L58.1668 49.9606C57.5363 50.3317 56.8438 50.0656 56.1134 49.4104L52.6789 51.3933L52.2935 53.0046C51.5468 53.0702 50.7185 53.3769 49.8498 53.9843C47.7754 55.6047 45.8121 57.2325 44.3896 58.784L42.7819 55.9994L5.3562 77.6071Z" fill="#5D604B"/>
<path d="M2.4265 74.2369C2.34282 74.1417 2.2716 74.0426 2.21228 73.9403L22.399 62.2855C23.6754 61.5719 23.7807 60.9286 23.5419 60.3059L22.9694 59.3144L55.0932 40.7677L57.1245 43.8773L4.67515 74.159C3.86946 73.7142 3.14719 73.969 2.4265 74.2369Z" fill="#808467"/>
<path d="M55.7041 57.2603C56.0099 54.8211 54.5973 52.9136 52.4707 52.9932C54.4318 52.1362 56.2365 52.6133 56.5048 53.6051C56.6399 54.1047 56.5507 56.066 55.7041 57.2603Z" fill="#5D604B"/>
<path d="M59.3732 68.7892L58.2907 69.4142C58.1626 69.2009 58.0344 68.9897 57.907 68.7797C56.0882 65.7838 54.4232 63.0412 55.5261 58.1289C55.5623 58.001 55.5938 57.874 55.6207 57.7481C55.5933 59.7821 55.9448 62.576 57.0118 64.6992L59.3732 68.7892Z" fill="#5D604B"/>
<path d="M25.7339 86.8564C27.3166 87.2371 27.6297 87.6632 26.5516 88.2726L18.7625 92.7696L18.0703 91.9869L25.1353 87.9692C24.2194 87.4208 22.8445 86.2742 23.4672 83.9504C25.0524 78.0345 29.1067 72.2688 31.7611 69.0731C32.3361 68.5126 33.7249 68.931 33.9223 69.693L41.4552 63.2186C41.0652 61.5951 42.3219 60.2795 43.7516 59.5193C43.6124 59.6906 43.4809 59.8608 43.3577 60.0297C43.1201 60.2988 42.9631 60.563 42.8661 60.8236C42.6486 61.4079 42.7321 61.9741 42.8815 62.5364C42.8988 62.6013 42.8779 62.6705 42.8269 62.7142L33.4127 70.7795C33.3409 70.841 33.2356 70.8323 33.1741 70.7664C33.1654 70.757 33.1575 70.7464 33.1507 70.7347L32.7487 70.0383C32.7447 70.0315 32.7404 70.025 32.7358 70.019C32.6662 69.9281 32.5255 69.9275 32.4578 70.0252L32.457 70.0264L32.2289 70.3555C28.2052 76.1611 23.3746 83.1308 24.746 85.9284C24.844 86.1282 24.9736 86.3068 25.1374 86.4621C25.3012 86.6174 25.4992 86.7495 25.7339 86.8564Z" fill="#5D604B"/>
<path d="M74.7245 37.1266L77.6486 35.4384L78.0756 36.4114L77.064 36.9955C74.7406 38.4897 72.7564 41.0405 72.3996 44.2786L69.8898 60.8138C69.7234 62.6888 68.8832 63.2311 68.0673 63.7577C68.0102 63.7945 67.9533 63.8313 67.8967 63.8684L63.2412 66.5562C62.163 66.6256 61.1947 65.5046 60.7138 63.4587L60.1651 54.5324C60.1651 53.1906 61.2025 52.5925 62.0487 52.1045C62.0675 52.0937 62.0862 52.0829 62.1048 52.0722L62.4123 51.8947C62.5003 51.9872 62.5864 52.071 62.6689 52.1446L61.9892 52.537C61.9208 52.5852 61.8536 52.6274 61.7887 52.6681C61.407 52.9074 61.108 53.0949 61.1514 54.1504L61.8473 63.4758C61.7794 64.2761 62.6774 65.1094 64.463 63.856L67.0329 62.3723C67.0906 62.3377 67.1462 62.3054 67.1998 62.2743C67.8662 61.8871 68.2204 61.6813 68.4275 59.6632L69.9378 49.7057C70.0986 48.7588 70.246 48.0365 70.3609 47.4737C70.5694 46.452 70.6706 45.956 70.5501 45.5966C71.0084 41.2476 72.7019 39.6558 74.5596 37.9098C74.6803 37.7963 74.8017 37.6822 74.9236 37.5666L74.7245 37.1266Z" fill="#5D604B"/>
<path d="M61.7687 46.6828C59.6833 48.1732 61.5267 51.1245 62.6685 52.1442L61.9888 52.5367C61.5182 52.8684 61.1003 52.9151 61.1511 54.1501L61.8469 63.4754C61.7791 64.2757 62.677 65.109 64.4626 63.8556L67.0325 62.3719C67.8079 61.9082 68.2034 61.8433 68.4271 59.6629L69.9374 49.7053C70.5835 45.9017 71.0128 45.7219 69.9859 44.9493L68.6663 43.7688C68.1448 43.4934 67.6381 43.336 66.6465 43.8665L61.7687 46.6828Z" stroke="#38392D" stroke-width="1.3821" stroke-linecap="round"/>
<path d="M82.5141 36.5086C82.4432 36.4593 82.4176 36.3653 82.4557 36.2878L82.8964 35.3915L86.078 33.6408C86.1708 33.5897 86.2871 33.6334 86.3265 33.7318C86.8348 35.0016 87.7599 36.1861 88.8442 37.3381C90.4586 39.2179 91.5758 41.3073 92.4109 43.5159C93.3764 44.9687 94.34 46.4515 95.3589 47.0773C95.4797 47.1515 95.4879 47.3369 95.3651 47.4078L90.9148 49.9772C90.8321 50.0249 90.7265 49.9966 90.6788 49.914L88.2021 45.6242C86.4707 41.4518 85.3787 38.5024 82.5141 36.5086Z" fill="#3F3F3F" stroke="#333333" stroke-width="1.3821" stroke-linecap="round"/>
<path d="M35.6115 52.4627L24.4917 58.8827C24.273 59.009 24.1502 59.2057 24.2174 59.3222L25.0775 60.8118C25.1447 60.9283 25.3765 60.9203 25.5953 60.794L36.715 54.374C36.9337 54.2478 37.0565 54.051 36.9893 53.9345L36.1293 52.4449C36.062 52.3284 35.8302 52.3364 35.6115 52.4627Z" fill="#404040" stroke="#333333" stroke-width="1.3821" stroke-linecap="round"/>
<path d="M11.0337 79.1685C11.4013 78.9563 11.5272 78.4863 11.315 78.1187C11.1028 77.7511 10.6327 77.6252 10.2652 77.8374C9.89759 78.0496 9.77165 78.5197 9.98387 78.8872C10.1961 79.2548 10.6661 79.3808 11.0337 79.1685Z" fill="#9B9B9B" stroke="#333333" stroke-width="0.691047" stroke-linecap="round"/>
<path d="M31.1064 69.9908C31.408 69.8166 31.5113 69.431 31.3372 69.1294C31.1631 68.8278 30.7774 68.7244 30.4758 68.8986C30.1742 69.0727 30.0708 69.4584 30.245 69.76C30.4191 70.0616 30.8048 70.1649 31.1064 69.9908Z" fill="#9B9B9B" stroke="#333333" stroke-width="0.691047" stroke-linecap="round"/>
<path d="M20.0143 91.4133C20.2688 91.2664 20.356 90.941 20.2091 90.6865C20.0621 90.4321 19.7367 90.3449 19.4823 90.4918C19.2278 90.6387 19.1406 90.9641 19.2875 91.2186C19.4344 91.4731 19.7598 91.5603 20.0143 91.4133Z" fill="#9B9B9B" stroke="#333333" stroke-width="0.691047" stroke-linecap="round"/>
<path d="M3.31705 72.1096C3.57152 71.9627 3.65871 71.6373 3.51179 71.3828C3.36487 71.1283 3.03947 71.0412 2.78499 71.1881C2.53051 71.335 2.44332 71.6604 2.59025 71.9149C2.73717 72.1694 3.06257 72.2565 3.31705 72.1096Z" fill="#9B9B9B" stroke="#333333" stroke-width="0.690831" stroke-linecap="round"/>
<path d="M55.0932 40.7677L4.01299 70.2589C2.25575 71.2727 1.36599 73.0896 2.46023 74.2743L4.47241 76.6083L18.7632 92.7701L26.5523 88.273C27.6305 87.6636 27.3174 87.2375 25.7347 86.8568C21.9162 85.1178 27.8221 76.7173 32.4586 70.0256C32.5308 69.9214 32.6861 69.929 32.7495 70.0388L33.1515 70.7351C33.2056 70.8288 33.3314 70.8503 33.4135 70.7799L42.8277 62.7146C42.8787 62.671 42.8996 62.6017 42.8823 62.5368C42.6662 61.7238 42.588 60.9024 43.3585 60.0302C44.7534 58.1177 47.2117 56.0453 49.8496 53.9846C53.5993 51.3628 56.5957 54.3443 55.5265 58.1296C54.3463 63.386 56.3355 66.1581 58.2911 69.4148L67.8968 63.8689C68.7628 63.3007 69.7118 62.821 69.8899 60.8144L72.3997 44.2791C72.7565 41.041 74.7407 38.4902 77.0641 36.996L78.0757 36.4119L77.6487 35.4389L61.5647 44.725C60.0257 45.5331 58.6026 45.722 57.4631 44.3955L55.0932 40.7677Z" stroke="#38392D" stroke-width="1.3821" stroke-linecap="round"/>
<rect x="40.084" y="56.2979" width="2.7194" height="1.97057" rx="0.345524" transform="rotate(-30 40.084 56.2979)" fill="#434536" stroke="#37392D" stroke-width="0.691049"/>
<rect x="56.5176" y="47.8115" width="2.7588" height="2.04953" rx="0.345524" transform="rotate(-30 56.5176 47.8115)" fill="#434536" stroke="#37392D" stroke-width="0.691049"/>
<rect x="95.6504" y="18.4102" width="3.9365" height="3.04561" rx="0.345524" transform="rotate(-30 95.6504 18.4102)" fill="#494949" stroke="#333333" stroke-width="1.3821"/>
<path d="M96.3672 19.6543L97.3845 19.067C97.4258 19.0431 97.4786 19.0573 97.5025 19.0986V19.0986C97.5263 19.1399 97.5122 19.1927 97.4709 19.2166L96.4536 19.8039L96.3672 19.6543Z" fill="#404040" stroke="#333333" stroke-width="0.691049"/>
<path d="M59.7964 41.1555L60.3687 39.3873L61.0099 39.0171L61.1445 39.2503L68.3721 35.0774L71.2744 34.4509L72.0734 35.8348L69.1012 37.5508L68.112 37.6496L63.4413 40.3462L62.9283 41.1146L60.5617 42.481L59.7964 41.1555Z" fill="#5E5E5E"/>
<path d="M59.7964 41.1555L60.3687 39.3873L61.0099 39.0171L61.1445 39.2503L68.3721 35.0774L71.2744 34.4509L72.0734 35.8348L69.1012 37.5508L68.112 37.6496L63.4413 40.3462L62.9283 41.1146L60.5617 42.481L59.7964 41.1555Z" stroke="#333333" stroke-width="0.691047" stroke-linecap="round"/>
<path d="M69.8866 36.1033C70.2594 35.8881 70.4807 35.5732 70.3807 35.4001C70.2808 35.227 69.8975 35.2612 69.5247 35.4765C69.1519 35.6917 68.9306 36.0065 69.0306 36.1796C69.1305 36.3527 69.5138 36.3186 69.8866 36.1033Z" fill="#434343"/>
<path d="M61.4237 40.8562C61.7966 40.641 62.0178 40.3262 61.9178 40.1531C61.8179 39.98 61.4346 40.0141 61.0618 40.2294C60.689 40.4446 60.4677 40.7595 60.5677 40.9326C60.6676 41.1057 61.0509 41.0715 61.4237 40.8562Z" fill="#434343"/>
<path d="M69.8556 36.1147L71.4303 36.0982L71.4767 36.1785L69.3353 37.4149L68.9023 36.665L69.8556 36.1147Z" fill="#4D4D4D" stroke="#333333" stroke-width="0.691049"/>
<path d="M61.2341 41.0926L60.9606 42.1431L61.007 42.2235L62.5716 41.3202L62.1387 40.5703L61.2341 41.0926Z" fill="#4D4D4D" stroke="#333333" stroke-width="0.691049"/>
<path d="M63.2227 39.9424L63.5569 39.7494L63.7856 40.1456L63.4514 40.3385L63.2227 39.9424Z" fill="#4D4D4D" stroke="#333333" stroke-width="0.691049"/>
<path d="M62.3379 38.4092L62.6721 38.2162L62.8764 38.57L62.5421 38.763L62.3379 38.4092Z" fill="#4D4D4D" stroke="#333333" stroke-width="0.691049"/>
<path d="M64.6426 39.124L64.9768 38.9311L65.2055 39.3272L64.8713 39.5202L64.6426 39.124Z" fill="#4D4D4D" stroke="#333333" stroke-width="0.691049"/>
<path d="M63.7559 37.5898L64.0901 37.3969L64.2943 37.7507L63.9601 37.9436L63.7559 37.5898Z" fill="#4D4D4D" stroke="#333333" stroke-width="0.691049"/>
<path d="M66.0605 38.3047L66.3948 38.1117L66.6235 38.5079L66.2893 38.7008L66.0605 38.3047Z" fill="#4D4D4D" stroke="#333333" stroke-width="0.691049"/>
<path d="M65.1758 36.7705L65.51 36.5775L65.7143 36.9313L65.38 37.1243L65.1758 36.7705Z" fill="#4D4D4D" stroke="#333333" stroke-width="0.691049"/>
<path d="M67.4805 37.4854L67.8147 37.2924L68.0434 37.6885L67.7092 37.8815L67.4805 37.4854Z" fill="#4D4D4D" stroke="#333333" stroke-width="0.691049"/>
<path d="M66.5938 35.9512L66.928 35.7582L67.1322 36.112L66.798 36.305L66.5938 35.9512Z" fill="#4D4D4D" stroke="#333333" stroke-width="0.691049"/>
</g>
<defs>
<clipPath id="clip0_4152_1387">
<rect width="110" height="110" fill="white"/>
</clipPath>
</defs>
</svg>
