<svg xmlns="http://www.w3.org/2000/svg" xml:space="preserve" width="94.309" height="20.552" viewBox="0 0 24.953 5.438"><g transform="translate(-37.253 -143.95)"><rect width="4.851" height="3.07" x="44.858" y="145.133" ry="0" style="fill:#8a7e74;fill-opacity:1;stroke:#191715;stroke-width:.79375;stroke-linecap:round;stroke-linejoin:round;stroke-dasharray:none;stroke-opacity:1"/><path d="M49.217 144.551v4.514h-.982l-.46-3.654.675-1.29z" style="fill:#82766e;fill-opacity:1;stroke:none;stroke-width:.396875;stroke-linecap:round;stroke-linejoin:round;stroke-dasharray:none;stroke-opacity:1"/><path d="m40.1 145.07-2.131.445-.271 1.422.423.923 1.99.401 2.007-.532 3.387.51v-3.224l-3.767.587z" style="fill:#4d4243;fill-opacity:1;stroke:none;stroke-width:.79375;stroke-linecap:round;stroke-linejoin:round;stroke-dasharray:none;stroke-opacity:1"/><path d="M61.744 144.889v3.9l-12.588.184.03-4.637z" style="fill:#aba29b;fill-opacity:1;stroke:none;stroke-width:.396875;stroke-linecap:round;stroke-linejoin:round;stroke-dasharray:none;stroke-opacity:1"/><path d="m44.681 146.355-.084.476.422.2.66-.17 1.988.392-.046-1.167-2.134.392z" style="fill:#4c4740;fill-opacity:1;stroke:none;stroke-width:.396875;stroke-linecap:round;stroke-linejoin:round;stroke-dasharray:none;stroke-opacity:1"/><path d="M48.096 146.678h13.387c.18 0 .325.146.325.326v1.32c0 .174-.14.32-.315.325l-12.802.342c-.862 0-.918-.434-.92-1.985 0-.18.145-.328.325-.328zM48.096 146.66h13.387c.18 0 .325-.146.325-.326v-1.32c0-.175-.14-.32-.315-.326l-12.802-.341c-.862 0-.918.434-.92 1.984 0 .18.145.328.325.328z" class="cls-4" style="fill:none;fill-opacity:1;stroke:#191715;stroke-width:.79375px;stroke-opacity:1"/><path d="M49.156 144.214v4.759" style="fill:#333738;fill-opacity:1;stroke:#191715;stroke-width:.396875;stroke-linecap:round;stroke-linejoin:round;stroke-dasharray:none;stroke-opacity:1"/><path d="M40.114 145.196c.52.836.53.832.53 1.55h2.779c-.099-.615.38-1.124 1.058-1.596l-2.494.675z" style="fill:#413838;fill-opacity:1;stroke:none;stroke-width:.79375;stroke-linecap:round;stroke-linejoin:round;stroke-dasharray:none;stroke-opacity:1"/><path d="M40.114 148.08c.52-.837.53-.832.53-1.551h2.779c-.099.615.38 1.124 1.058 1.596l-2.494-.675z" style="fill:#413838;fill-opacity:1;stroke:none;stroke-width:.79375;stroke-linecap:round;stroke-linejoin:round;stroke-dasharray:none;stroke-opacity:1"/><path d="m43.767 146.301-1.848-.275s-.84.133-.981.094c-.142-.038-.299-.298-.299-.298M43.767 145.29l-1.848.275s-.84-.133-.981-.094c-.142.038-.299.298-.299.298" style="fill:none;fill-opacity:1;stroke:#191715;stroke-width:.396875;stroke-linecap:round;stroke-linejoin:round;stroke-dasharray:none;stroke-opacity:1" transform="translate(3.897 .873)"/><path d="M45.418 145.091h-1.02c-1.33.269-2.457 1.027-4.32 0l-1.86.413M45.397 148.173h-1.02c-1.33-.268-2.458-1.026-4.321 0l-1.86-.412" style="fill:#4c4740;fill-opacity:1;stroke:#191715;stroke-width:.79375;stroke-linecap:round;stroke-linejoin:round;stroke-dasharray:none;stroke-opacity:1" transform="translate(0 .036)"/><path d="M38.21 145.557c-.353.094-.56.751-.56 1.138M38.197 147.797c-.353-.094-.548-.716-.548-1.102" style="fill:#4c4740;fill-opacity:1;stroke:#191715;stroke-width:.79375;stroke-linecap:round;stroke-linejoin:round;stroke-dasharray:none;stroke-opacity:1"/></g></svg>