<svg xmlns="http://www.w3.org/2000/svg" width="123.982" height="55.374" fill="none"><g clip-path="url(#a)" transform="scale(1.01489)rotate(15 166.323 57.979)"><path fill="#43403d" stroke="#363330" stroke-miterlimit="3.994" stroke-width=".508" d="m55.372 43.93 1.186-.638c1.698-.25 5.498-2.116 7.663-3.2l3.828-2.008-.162.094c-5.127 3.046-7.957 4.477-12.045 6.544l-.338.171zM41.006 62.966l.56-.612 1.303-.892-.068.42c-.44.636-.83 1.773-.621 2.934.13.723.693.83 1.238.816.015 0 .018.019.004.022-.424.1-.85-.026-1.077-.202l-.089-.068c-.371-.285-.906-.693-1.126-1.399-.089-.314-.124-1.02-.124-1.02z"/><path fill="#868079" fill-rule="evenodd" stroke="#363330" stroke-miterlimit="3.994" stroke-width=".508" d="m40.897 63.086.67-.731 2.982-2.044c.18-.123.337-.267.472-.415l-.023.242c-.073.718-.158 1.562.2 2.122.341.555.985 1.627.34 2.48l-1.035 1.315c-.329.425-.812.665-1.094.724-.543.114-.929.426-1.063.71q-.103.224-.192.455c-.134.337-.264.665-.48.9l-5.132 5.875c-.813.898-1.737.895-2.493.337-.472-.348-.774-1.121-.883-1.706l7.257-8.236c.597-.618.797-1.224.474-2.029zm.833 4.544c.43-1.041-1.15-2.06-1.894-1.077l-5.41 6.138c-.293.332-.463.724-.47 1.083-.008.371.156.707.405.874.664.445 1.171.418 1.913-.394l4.97-5.692c.207-.237.314-.505.424-.78q.03-.075.062-.152zm-.437-2.83c-.4 1.322 1.426 1.646 1.98 1.48.165-.05.507-.165.739-.427l1.143-1.455c.265-.423.184-.885-.23-1.604-.139-.239-.218-.387-.317-.57l-.061-.115c-.71.018-1.967.182-2.824 1.736-.084.154-.323.668-.43.955z" clip-rule="evenodd"/><path fill="#43403d" stroke="#363330" stroke-miterlimit="3.994" stroke-width=".508" d="M35.429 60.94c.397-.385 1.14-.297 1.223.032l.175.303.71-.792c-.75-.028-1.124-.503-1.068-.773l-.073-.087c-.377.148-.87.565-.99.984a1.25 1.25 0 0 1-.576.769c-.16.11-.326.256-.391.663-.004.025.008.026.017.014z"/><path fill="#514d49" d="m105.06 15.736-.712 1.122.108.187 3.116-1.8-.108-.186-.846-.24c-.502-.05-.805-.158-1.052-.292l-.593.342.107.185c-.118.251-.269.238-.02.682"/><path fill="#6B6661" d="m57.591 50.75 21.757-13.569.34-.59 2.031-1.347c.33-.223.272-.388-.111-1.067l-.99-1.704-25.184 14.54" style="fill:#756657;fill-opacity:1"/><path fill="#504D49" d="M78.078 33.938 56.234 46.55l4.895-1.22-2.316 2.528 2.952-.824-1.124 1.813 15.718-9.803-2.251.479 2.507-2.547-2.168.5z" style="fill:#584f41;fill-opacity:1"/><path fill="#514d49" d="m47.586 57.073 8.06-5.095.28.661c.128.3-.025.47-.292.764l-.086.096c-1.64 1.61-3.679 3.203-5.9 4.787-.467.313-.556.319-.826.075z"/><path fill="#43403d" d="m52.536 54.95-3.376 2.632a.32.32 0 0 0-.055.448l.129.166a.32.32 0 0 0 .448.056l3.376-2.631a.32.32 0 0 0 .055-.449l-.129-.166a.32.32 0 0 0-.448-.055"/><path fill="#3b3835" d="M53.183 54.492a.299.299 0 1 0-.3-.517.299.299 0 0 0 .3.517"/><path fill="#b6b2ae" d="m38.155 59.796 3.412 2.558 2.983-2.044c.595-.409.945-1.037 1.068-1.338.22-.494.542-1 1.418-1.55L57.59 50.75l-3.075-5.327-14.638 8.547c-1.193.729-1.256 1.835-1.016 3.018.254 1.174-.183 2.073-.706 2.807"/><path stroke="#363330" stroke-miterlimit="3.994" stroke-width="1.016" d="m47.586 57.073 8.06-5.095.28.661c.128.3-.025.47-.292.764l-.086.096c-1.64 1.61-3.679 3.203-5.9 4.787-.467.313-.556.319-.826.075z"/><path fill="#6B6661" d="m38.154 59.796-7.305 8.151c-.928 1.077-2.127 1.627-3.491 1.414l-2.547-.603c-1.039-.224-1.21-.156-2.048.426L2.083 83.102c-.762.536-.495.822-.204 1.267l7.827 11.442c.046.082.21.048.412-.168 10.734-10.856 21.307-22.217 31.449-33.289" style="fill:#756657;fill-opacity:1"/><path fill="#43403d" d="m11.72 94.02.116-.143c-3.261-3.267-6.216-7.3-8.67-11.503l-1.083.729c-.713.501-.525.784-.26 1.183l.056.084 7.827 11.442c.046.082.211.048.413-.168q.8-.81 1.6-1.624"/><path fill="#3b3835" d="M10.839 94.436c-3.01-2.95-5.471-6.222-8.336-11.178l-.183-.315.848-.571c2.454 4.204 5.408 8.236 8.67 11.503l-.117.143-.64.652z"/><path fill="#6b6661" d="M42.381 58.613a.433.433 0 1 0-.434-.75.433.433 0 0 0 .434.75M41.233 61.376a.433.433 0 1 0-.434-.75.433.433 0 0 0 .434.75M45.045 59.601a.433.433 0 1 0-.433-.75.433.433 0 0 0 .433.75M55.626 51.173a.299.299 0 1 0-.299-.518.299.299 0 0 0 .299.518"/><path stroke="#363330" stroke-miterlimit="3.994" stroke-width="1.016" d="m57.591 50.75 21.757-13.569.34-.59 2.031-1.347c.33-.223.272-.388-.111-1.067l-.99-1.704-25.184 14.54" style="stroke:#3b332b;stroke-opacity:1"/><path fill="#43403d" d="m106.836 14.881-1.943 1.122-.543.855.108.187 3.116-1.799-.108-.187z"/><path stroke="#363330" stroke-miterlimit="3.994" stroke-width=".508" d="m105.06 15.736-.712 1.122.108.187 3.116-1.8-.108-.186-.846-.24c-.502-.05-.805-.158-1.052-.292l-.593.342.107.185c-.118.251-.269.238-.02.682z"/><path fill="#9e9994" stroke="#363330" stroke-miterlimit="3.994" stroke-width="1.016" d="m67.885 38.179 9.196-5.314 30.966-17.893.722 1.24-28.27 16.329L55.43 47.013l-.917-1.588.436-.252c4.588-2.323 7.445-3.733 12.935-6.994z"/><path fill="#43403d" stroke="#363330" stroke-miterlimit="3.994" stroke-width=".508" d="m76.9 32.56 2.755 4.772c.326-.101.824-.31.726-1.006l-2.501-4.332c-.49.044-.773.272-.98.566z"/><path fill="#504D49" d="m41.563 62.36-4.382 2.455 1.36-3.043-2.792 1.73 1.095-2.243-5.994 6.689c-.457.53-.98.933-1.556 1.18-1.32.53-2.83 4.487-4.316 8.175-.743 1.845-1.486 3.69-2.164 5.126l-.066.162c6.39-6.732 12.681-13.535 18.815-20.231" style="fill:#584f41;fill-opacity:1"/><path stroke="#363330" stroke-miterlimit="3.994" stroke-width="1.016" d="m38.154 59.796-7.305 8.151c-.928 1.077-2.127 1.627-3.491 1.414l-2.547-.603c-1.039-.224-1.21-.156-2.048.426L2.083 83.102c-.762.536-.495.822-.204 1.267l7.827 11.442c.046.082.21.048.412-.168 10.734-10.856 21.307-22.217 31.449-33.289" style="stroke:#3b332b;stroke-opacity:1"/><path fill="#928c86" d="m54.512 45.426-14.635 8.545c-1.193.729-1.256 1.835-1.016 3.017.254 1.175-.183 2.074-.707 2.808l.747.56c1.04-1.22 1.012-2.55.848-3.611l-.023-.126c-.097-.512-.243-1.287.727-1.888l14.573-8.414z"/><path fill="#6b6661" d="M45.35 50.774c-1.738 1.021-.391 3.266 1.201 2.385l4.298-2.482c.317-.193.629-.605 1-.855l.474-.273c1.003-.553-.061-2.472-.993-1.927-.383.203-.182.097-.464.243-.655.362-1.008.265-1.388.502"/><path stroke="#363330" stroke-linecap="round" stroke-miterlimit="3.994" stroke-width="1.016" d="m38.155 59.796 3.412 2.558 2.983-2.044c.595-.409.945-1.037 1.068-1.338.22-.494.542-1 1.418-1.55L57.59 50.75l-3.075-5.327-14.638 8.547c-1.193.729-1.256 1.835-1.016 3.018.254 1.174-.183 2.073-.706 2.807z"/><path fill="#514d49" d="m52.173 47.93-7.194 4.154a.397.397 0 0 0 .397.688l7.194-4.154a.397.397 0 0 0-.397-.688"/><path stroke="#363330" stroke-miterlimit="3.994" stroke-width="1.016" d="M45.35 50.774c-1.738 1.021-.391 3.266 1.201 2.385l4.298-2.482c.317-.193.629-.605 1-.855l.474-.273c1.003-.553-.061-2.472-.993-1.927-.383.203-.182.097-.464.243-.655.362-1.008.265-1.388.502"/><path stroke="#363330" stroke-miterlimit="3.994" stroke-width=".508" d="m11.72 94.02.116-.143c-3.261-3.267-6.216-7.3-8.67-11.503l-1.083.729c-.713.501-.525.784-.26 1.183l.056.084 7.827 11.442c.046.082.211.048.413-.168q.8-.81 1.6-1.624z" style="stroke-width:1.016;stroke-dasharray:none"/></g><defs><clipPath id="a"><path fill="#fff" d="M0 0h110v110H0z"/></clipPath></defs></svg>