<svg xmlns="http://www.w3.org/2000/svg" width="150.262" height="20.115" viewBox="0 0 39.757 5.322"><path d="M-108.59 14.395c2.546.453 5.146.455 7.546.19.065-.007.13-.308.196-.316.414-.048.682-.104 1.093-.167v-3.183c-.429-.073-.714-.136-1.143-.188-.048-.005-.097-.32-.145-.325a27.4 27.4 0 0 0-7.549.204z" style="fill:#756657;fill-opacity:1;stroke:#1a1714;stroke-width:.79375;stroke-linecap:round;stroke-linejoin:round;stroke-dasharray:none;stroke-opacity:1" transform="translate(129.04 -9.839)"/><path d="M-108.807 11.566h19.194v1.852h-19.194z" class="cls-3" style="fill:gray;fill-opacity:1;fill-rule:evenodd;stroke:none;stroke-width:.79375px;stroke-linecap:round;stroke-linejoin:round;stroke-miterlimit:5.89;stroke-opacity:1" transform="translate(129.04 -9.839)"/><path d="M-107.785 11.688h2.314v1.738h-2.314z" style="fill:#333;fill-opacity:1;stroke:#171717;stroke-width:.396875;stroke-linejoin:round;stroke-opacity:1" transform="translate(129.04 -9.839)"/><path d="M-108.874 11.577h19.194v1.852h-19.194z" class="cls-3" style="fill:none;fill-opacity:1;fill-rule:evenodd;stroke:#171717;stroke-width:.79375px;stroke-linecap:round;stroke-linejoin:round;stroke-miterlimit:5.89;stroke-opacity:1" transform="translate(129.04 -9.839)"/><path d="M-128.48 10.657h1.349c.079 0 .158.053.158.106v3.492c0 .053-.079.106-.158.106h-1.35c-.079 0-.158-.053-.158-.106v-3.492c-.026-.08.053-.106.158-.106z" class="cls-7" style="fill:#343434;fill-opacity:1;fill-rule:evenodd;stroke:#171717;stroke-width:.79375px;stroke-linecap:square;stroke-miterlimit:11.3386;stroke-opacity:1" transform="translate(129.04 -9.839)"/><path d="M-127.554 14.355h6.932c1.482-.502 3.566-.473 5.637-.251h.35v-3.238h-.297c-2.168.561-4.182.262-5.637-.188h-7.012z" class="cls-9" style="letter-spacing:-.02em;fill:#756657;fill-opacity:1;fill-rule:evenodd;stroke:none;stroke-width:.79375px;stroke-linecap:square;stroke-miterlimit:11.3386;stroke-opacity:1" transform="translate(129.04 -9.839)"/><path d="M-120.761 10.64c.549 1.248.537 2.365.017 3.489l6.14-.31c-.46-.765-.582-1.614-.01-2.661z" style="fill:#584e41;fill-opacity:1;fill-rule:evenodd;stroke:none;stroke-width:.79375;stroke-linecap:round;stroke-linejoin:round;stroke-dasharray:none;stroke-opacity:1" transform="translate(129.04 -9.839)"/><path d="M-127.5 14.348h6.932c1.482-.503 3.566-.474 5.636-.252h.351V10.86h-.298c-2.167.56-4.18.261-5.636-.189h-7.012z" class="cls-9" style="letter-spacing:-.02em;fill:none;fill-opacity:1;fill-rule:evenodd;stroke:#1a1714;stroke-width:.79375px;stroke-linecap:square;stroke-miterlimit:11.3386;stroke-opacity:1" transform="translate(129.04 -9.839)"/><path d="M-115.258 10.743h6.764v3.655h-6.834z" style="fill:#8c8c8c;fill-opacity:1;stroke:none;stroke-width:.823279;stroke-linejoin:round;stroke-dasharray:none;stroke-opacity:1" transform="translate(129.04 -9.839)"/><path d="M-100.738 10.516h.687v3.986h-.687z" style="fill:#404040;fill-rule:evenodd;stroke:#171717;stroke-width:.354634;stroke-linecap:round;stroke-linejoin:round" transform="translate(129.04 -9.839)"/><path d="M-115.103 11.506h6.659v-.66h-6.727z" style="fill:#737373;fill-opacity:1;stroke:none;stroke-width:.403353;stroke-linejoin:round;stroke-dasharray:none;stroke-opacity:1" transform="translate(129.04 -9.839)"/><path d="M-115.134 14.127h6.748v-.66h-6.817z" style="fill:#737373;fill-opacity:1;stroke:none;stroke-width:.406011;stroke-linejoin:round;stroke-dasharray:none;stroke-opacity:1" transform="translate(129.04 -9.839)"/><path d="M-115.38 10.876c.748-.01.83-.24 1.077-.24h5.654v3.746h-5.515c-.42-.024-.601-.293-1.215-.29z" style="fill:none;fill-opacity:1;fill-rule:evenodd;stroke:#171717;stroke-width:.79375;stroke-linecap:round;stroke-linejoin:round" transform="translate(129.04 -9.839)"/><path d="M-112.378 14.585v-.172c0-.344.28-.813.709-.83h1.497c.447.01.726.417.723.92v.079z" style="fill:#4d4d4d;fill-opacity:1;stroke:#171717;stroke-width:.396875;stroke-linejoin:round;stroke-dasharray:none;stroke-opacity:1" transform="translate(129.04 -9.839)"/><path d="M-90.583 12.794h-.794c-.158 0-.29-.291-.29-.291s.132-.291.29-.291h.794c.159 0 .291.29.291.29s-.132.292-.291.292" class="cls-10" style="fill:#171717;fill-opacity:1;fill-rule:evenodd;stroke:none;stroke-width:3px;stroke-linecap:round" transform="translate(129.04 -9.839)"/></svg>