<svg width="110" height="110" viewBox="0 0 110 110" fill="none" xmlns="http://www.w3.org/2000/svg">
<path fill-rule="evenodd" clip-rule="evenodd" d="M43.5488 35.6436L80.0922 14.5452C80.2705 14.4423 80.4985 14.5034 80.6015 14.6817L82.701 18.3182C82.804 18.4965 82.7429 18.7245 82.5646 18.8275L46.0212 39.9258L43.5488 35.6436ZM71.9977 21.7057C72.3543 21.4998 72.4765 21.0438 72.2706 20.6872C72.0647 20.3305 71.6087 20.2083 71.2521 20.4142C70.8954 20.6201 70.7732 21.0762 70.9791 21.4328C71.185 21.7894 71.6411 21.9116 71.9977 21.7057ZM74.3782 19.4703C74.5841 19.8269 74.462 20.283 74.1053 20.4889C73.7487 20.6948 73.2927 20.5726 73.0868 20.2159C72.8809 19.8593 73.0031 19.4033 73.3597 19.1974C73.7163 18.9915 74.1723 19.1137 74.3782 19.4703ZM76.2131 19.2719C76.5698 19.066 76.6919 18.61 76.486 18.2534C76.2801 17.8967 75.8241 17.7746 75.4675 17.9805C75.1109 18.1864 74.9887 18.6424 75.1946 18.999C75.4005 19.3556 75.8565 19.4778 76.2131 19.2719Z" fill="#8C8C8C"/>
<path fill-rule="evenodd" clip-rule="evenodd" d="M43.5488 35.6436L80.0922 14.5452C80.2705 14.4423 80.4985 14.5034 80.6015 14.6817L82.701 18.3182C82.804 18.4965 82.7429 18.7245 82.5646 18.8275L46.0212 39.9258L43.5488 35.6436Z" stroke="#333333" stroke-width="2.98254" stroke-miterlimit="3.99393"/>
<path d="M71.9988 21.7058C72.3554 21.4999 72.4776 21.0438 72.2717 20.6872C72.0658 20.3306 71.6098 20.2084 71.2532 20.4143C70.8965 20.6202 70.7743 21.0762 70.9802 21.4328C71.1861 21.7895 71.6422 21.9117 71.9988 21.7058Z" stroke="#333333" stroke-width="1.49127" stroke-miterlimit="3.99393"/>
<path d="M74.3794 19.4704C74.5853 19.827 74.4631 20.283 74.1064 20.4889C73.7498 20.6948 73.2938 20.5726 73.0879 20.216C72.882 19.8594 73.0042 19.4033 73.3608 19.1974C73.7174 18.9915 74.1735 19.1137 74.3794 19.4704Z" stroke="#333333" stroke-width="1.49127" stroke-miterlimit="3.99393"/>
<path d="M76.2142 19.272C76.5709 19.0661 76.6931 18.6101 76.4872 18.2534C76.2812 17.8968 75.8252 17.7746 75.4686 17.9805C75.112 18.1864 74.9898 18.6424 75.1957 18.9991C75.4016 19.3557 75.8576 19.4779 76.2142 19.272Z" stroke="#333333" stroke-width="1.49127" stroke-miterlimit="3.99393"/>
<path d="M59.6582 32.5469L61.8877 36.4082L71.8051 30.6824C72.1221 30.4993 72.2594 30.1131 72.129 29.771L70.7467 26.1449L59.6582 32.5469Z" fill="#474747"/>
<path fill-rule="evenodd" clip-rule="evenodd" d="M13.1978 63.8586C13.5585 63.171 14.0321 62.4117 14.794 62.2615L17.9435 61.6404L17.7086 59.5758L9.55124 60.5038C9.45791 60.5144 9.37359 60.5592 9.31541 60.6276C9.28627 60.6613 9.26364 60.7007 9.24886 60.7447C9.1692 60.985 9.04267 61.3995 8.95236 61.849C8.87103 62.2549 8.81932 62.6893 8.86025 63.0491C9.00431 64.3153 10.1477 65.225 11.4138 65.081C12.2032 64.9911 12.8538 64.513 13.1978 63.8586ZM12.265 62.6617C12.1951 62.0473 11.6407 61.606 11.0264 61.6758C10.4115 61.7458 9.97036 62.3004 10.0403 62.9148C10.1102 63.5292 10.6646 63.9705 11.2795 63.9006C11.8938 63.8307 12.3349 63.2761 12.265 62.6617Z" fill="#3B3B3B" stroke="#333333" stroke-width="1.49127" stroke-miterlimit="3.99393"/>
<path fill-rule="evenodd" clip-rule="evenodd" d="M12.3955 54.0461C12.2096 53.4938 11.8972 52.1814 12.4321 51.8725L66.9253 20.4109C67.3244 20.1804 67.7928 20.2494 67.9753 20.5655L70.8974 25.6268C71.0004 25.8051 70.9393 26.0331 70.761 26.1361L59.9805 32.3602L59.2899 31.164L13.888 57.3768C13.0764 55.9711 12.7907 55.2197 12.3955 54.0461Z" fill="#404040"/>
<ellipse cx="88.9473" cy="68.3371" rx="3.69442" ry="1.68327" transform="rotate(-30 88.9473 68.3371)" fill="#DE8A3B" stroke="#57320F" stroke-width="1.49127" stroke-miterlimit="3.99393"/>
<path d="M82.8006 69.7484L88.0478 66.7792L89.8467 69.8951L84.6517 72.9547L84.3371 73.0137L82.5921 69.9914L82.8006 69.7484Z" fill="#E1B54F" stroke="#57410F" stroke-width="1.49127" stroke-miterlimit="3.99393"/>
<path d="M82.246 70.0621L81.9328 70.2429L81.8918 70.3956L83.6368 73.418L83.7895 73.4589L84.1027 73.278L82.246 70.0621Z" fill="#E1B54F" stroke="#57410F" stroke-width="1.49127" stroke-miterlimit="3.99393"/>
<rect x="82.3555" y="70.251" width="0.335554" height="3.27725" transform="rotate(-30 82.3555 70.251)" fill="#DAA325" stroke="#57410F" stroke-width="1.49127" stroke-miterlimit="3.99393"/>
<path fill-rule="evenodd" clip-rule="evenodd" d="M28.2899 96.7587L42.8444 88.3557L41.0876 85.3129C40.4762 84.2538 40.0425 83.1016 39.804 81.9022L37.0459 68.0341C37.0459 66.0266 37.4738 64.5859 39.3656 64.0165C39.6416 63.9425 39.9301 63.8679 40.2295 63.7905C44.0277 62.8085 49.5941 61.3693 53.8507 54.9791C54.005 54.7475 54.0121 54.4464 53.873 54.2054L51.1104 49.4205C49.826 47.1958 49.8689 45.5131 50.7671 44.4502C51.6138 43.4486 52.8289 42.8519 53.9174 42.1869L59.4402 38.9983C61.6587 37.7174 62.5272 36.7716 62.0838 36.0036L59.2902 31.165L13.8881 57.3779C14.8381 60.0746 15.6107 62.8937 12.6231 66.0026C12.3485 66.2884 12.6285 66.6563 12.9905 66.4473C20.9297 62.113 21.1685 65.9259 21.8827 73.6081C22.4534 79.7459 23.2437 88.247 28.2899 96.7587ZM42.4904 50.7531C39.4047 52.5346 36.5788 55.589 38.1848 58.006L41.2843 62.3223C46.5626 60.9029 48.9051 59.4584 52.5188 54.8507C52.7052 54.613 52.7273 54.2849 52.5762 54.0233L50.5978 50.5965C49.1984 48.1727 47.9842 47.5812 45.779 48.8544L42.4904 50.7531Z" fill="#545454"/>
<path d="M54.2252 36.8531L60.486 33.2384L62.084 36.0037C62.5274 36.7717 61.6589 37.7175 59.4404 38.9984L53.9176 42.187C52.8291 42.8519 51.6141 43.4486 50.7674 44.4503C50.5518 44.7053 50.3855 44.996 50.275 45.3213L51.7571 39.8682C52.0668 38.7807 53.0289 37.5438 54.2252 36.8531Z" fill="#4A4A4A"/>
<path d="M60.4248 24.1684L65.4702 21.2554L64.371 20.4517C64.1477 20.2884 63.8523 20.2622 63.6037 20.3835L60.4028 21.9461L60.4248 24.1684Z" fill="#4D4D4D" stroke="#333333" stroke-width="1.49127" stroke-miterlimit="3.99393" stroke-linecap="round"/>
<path d="M15.4675 51.0708L18.9458 49.0626L16.8267 47.1044L14.9504 48.1877L15.4675 51.0708Z" fill="#4D4D4D" stroke="#333333" stroke-width="1.49127" stroke-miterlimit="3.99393" stroke-linecap="round"/>
<path d="M82.8292 72.4294C83.0605 72.6018 83.3512 72.6524 83.6135 72.5011L87.7662 70.1036C87.9299 70.0089 88.0392 69.9001 88.1357 69.725L90.4974 64.8118C90.5895 64.5916 90.5105 64.3405 90.2879 64.1461L64.234 40.2227L53.0078 46.7041L82.8292 72.4294Z" fill="#707070"/>
<path d="M40.7177 54.9497C40.7177 54.9497 41.3788 59.4865 45.6533 59.0633C45.8035 59.0205 45.9294 58.86 45.8399 58.7808C43.9997 58.2248 40.981 56.2671 42.5599 53.4762L40.7408 50.3253L37.9637 52.1516L39.1068 54.1315L40.7177 54.9497Z" fill="#747474" stroke="#333333" stroke-width="1.49127" stroke-miterlimit="3.99393" stroke-linecap="round"/>
<path fill-rule="evenodd" clip-rule="evenodd" d="M51.0836 44.1115C47.7769 45.1167 45.0511 46.1729 42.0726 47.8931C34.9585 52.0004 33.1089 55.4052 36.2901 65.3708L37.0471 68.0344C37.0471 66.4035 37.3296 65.1467 38.4503 64.4273C38.4745 64.4117 38.4992 64.3964 38.5242 64.3813C38.7662 64.2358 39.0454 64.1138 39.3669 64.0171C39.6423 63.9432 39.9302 63.8688 40.2291 63.7915C40.7311 63.6623 41.2325 63.5316 41.732 63.3926C45.1381 62.4448 49.4575 60.8244 53.0392 56.1209C53.2975 55.7817 53.552 55.4265 53.802 55.0544C53.9757 54.7958 54.0387 54.491 53.8742 54.2061L51.1116 49.4211C50.5898 48.5173 50.2871 47.7029 50.1718 46.9833C50.1652 46.9418 50.1591 46.9006 50.1537 46.8597C50.022 45.8647 50.2561 45.057 50.7684 44.4508C50.8686 44.3323 50.9739 44.2194 51.0836 44.1115ZM41.3549 51.4777C41.7243 51.219 42.106 50.9764 42.4917 50.7537L45.7802 48.855C46.0629 48.6918 46.3293 48.5593 46.5818 48.4573C48.2998 47.7636 49.3791 48.484 50.5991 50.5971L52.5775 54.0239C52.7284 54.2852 52.7036 54.6169 52.5201 54.8513C50.7639 57.0906 49.3079 58.5827 47.6693 59.688C47.622 59.7199 47.5746 59.7514 47.527 59.7827C46.7704 60.2796 45.9724 60.6973 45.0864 61.0705C44.9788 61.1158 44.8699 61.1605 44.7596 61.2046C44.3163 61.3818 43.8507 61.5494 43.3574 61.7114C42.7174 61.9216 42.0307 62.1226 41.2855 62.323L38.186 58.0067C36.7807 55.8918 38.7687 53.2889 41.3549 51.4777Z" fill="#4A4A4A"/>
<path d="M21.8828 73.6083C22.3873 79.034 23.0634 86.3062 26.699 93.8L28.3973 96.6971L39.5594 90.2526C36.9174 85.4738 36.2537 82.2937 34.8379 75.5099C34.0449 71.7101 33.0159 66.7796 31.2711 59.8042C31.1511 59.3243 30.6017 59.0804 30.1733 59.3277L21.7663 64.1815C21.1696 64.526 20.6967 65.0897 20.4017 65.8772C21.3261 67.3566 21.5543 70.0747 21.8828 73.6083Z" fill="#713723"/>
<path d="M37.8322 91.2498C34.5075 85.2849 32.7874 76.3851 31.2083 68.2151C31.0861 67.5826 30.9647 66.9544 30.8434 66.3324C20.2632 74.9424 22.2065 85.1763 28.9212 96.3946L37.8322 91.2498Z" fill="#612F1F"/>
<path d="M34.2844 40.9402C33.9484 40.3582 34.0647 39.7562 34.7001 39.3893L39.6394 36.5376C39.6394 36.5376 42.7473 34.9107 43.5691 36.3342C44.5577 38.0465 43.1755 40.0383 41.3935 41.0671L36.1166 44.1137L34.2844 40.9402Z" fill="#878787"/>
<path d="M88.4175 69.1414L78.2537 60.3256C78.0982 60.1907 77.8627 60.2074 77.7278 60.3629C77.5929 60.5184 77.6096 60.7539 77.7651 60.8888L88.0729 69.8288C88.0951 69.7969 88.1163 69.7625 88.137 69.7251L88.4175 69.1414Z" fill="#545454"/>
<path d="M57.898 41.295L57.2148 41.6895L63.9079 47.4955C64.0635 47.6305 64.2989 47.6137 64.4338 47.4582C64.5688 47.3027 64.5521 47.0672 64.3965 46.9323L57.898 41.295Z" fill="#545454"/>
<path d="M51.3325 43.6281L62.6287 37.1062C63.2514 36.7467 63.6754 37.6644 64.2969 37.4979C66.1248 37.0082 66.9319 38.7006 65.345 39.6168L52.0171 47.3117L50.8376 45.2687C50.5488 44.6923 50.7236 43.9358 51.3325 43.6281Z" fill="#5E5E5E" stroke="#333333" stroke-width="2.98254" stroke-miterlimit="3.99393"/>
<path d="M64.6412 51.4584C65.121 51.1815 65.2853 50.568 65.0083 50.0883C64.7314 49.6085 64.1179 49.4442 63.6382 49.7211C63.1584 49.9981 62.9941 50.6116 63.271 51.0913C63.548 51.5711 64.1615 51.7354 64.6412 51.4584Z" fill="#545454"/>
<path d="M27.3213 79.029C27.8667 78.7141 28.0536 78.0167 27.7387 77.4713C27.4238 76.9258 26.7264 76.7389 26.1809 77.0538C25.6355 77.3687 25.4486 78.0662 25.7635 78.6116C26.0784 79.157 26.7759 79.3439 27.3213 79.029Z" fill="#4D4D4D"/>
<path fill-rule="evenodd" clip-rule="evenodd" d="M37.223 62.1547L34.5407 62.4137C33.9434 62.2537 33.7868 61.6183 34.3062 61.3184L36.5409 60.0282C37.3214 59.5776 37.962 61.9566 37.223 62.1547Z" fill="#454545" stroke="#333333" stroke-width="1.49127" stroke-miterlimit="3.99393" stroke-linecap="round"/>
<path fill-rule="evenodd" clip-rule="evenodd" d="M40.4704 45.362C40.8325 45.9893 40.6178 46.7914 39.9904 47.1536C39.3632 47.5157 38.5609 47.3007 38.1988 46.6735C38.0786 46.4653 38.0234 46.2372 38.0228 46.0138L39.9966 44.8743C40.167 44.9835 40.3622 45.1747 40.4704 45.362Z" fill="#424242" stroke="#333333" stroke-width="1.49127" stroke-miterlimit="3.99393" stroke-linecap="round"/>
<path fill-rule="evenodd" clip-rule="evenodd" d="M28.908 44.9582C28.7021 44.6016 29.7929 43.5864 30.1495 43.3805L34.3071 40.9801L35.2985 42.6973L29.5266 46.0298L28.908 44.9582Z" fill="#474747"/>
<path fill-rule="evenodd" clip-rule="evenodd" d="M30.4335 44.3606C30.2211 43.9926 30.3471 43.5221 30.7151 43.3096L32.3483 42.3668C32.7162 42.1543 33.1868 42.2804 33.3992 42.6484C33.6117 43.0164 33.4856 43.4869 33.1176 43.6993L31.4845 44.6422C31.1165 44.8547 30.646 44.7286 30.4335 44.3606Z" fill="#424242"/>
<path d="M15.9725 52.0033L16.3884 51.7632L17.226 55.4508L16.8101 55.6909L15.9725 52.0033Z" fill="#3B3B3B"/>
<path d="M16.7538 51.5521L17.1696 51.312L18.0072 54.9996L17.5914 55.2398L16.7538 51.5521Z" fill="#3B3B3B"/>
<path d="M17.535 51.1019L17.9509 50.8618L18.7885 54.5494L18.3726 54.7896L17.535 51.1019Z" fill="#3B3B3B"/>
<path d="M18.3163 50.6507L18.7321 50.4106L19.5697 54.0983L19.1539 54.3384L18.3163 50.6507Z" fill="#3B3B3B"/>
<path d="M19.0975 50.1996L19.5134 49.9595L20.351 53.6471L19.9351 53.8872L19.0975 50.1996Z" fill="#3B3B3B"/>
<path d="M19.8788 49.7484L20.2946 49.5083L21.1322 53.1959L20.7164 53.436L19.8788 49.7484Z" fill="#3B3B3B"/>
<path d="M20.66 49.2972L21.0759 49.0571L21.9135 52.7448L21.4976 52.9849L20.66 49.2972Z" fill="#3B3B3B"/>
<path d="M21.4413 48.847L21.8571 48.6069L22.6947 52.2946L22.2789 52.5347L21.4413 48.847Z" fill="#3B3B3B"/>
<path d="M22.2225 48.3959L22.6384 48.1557L23.476 51.8434L23.0601 52.0835L22.2225 48.3959Z" fill="#3B3B3B"/>
<path d="M23.0038 47.9447L23.4196 47.7046L24.2572 51.3922L23.8414 51.6323L23.0038 47.9447Z" fill="#3B3B3B"/>
<path d="M23.785 47.4935L24.2009 47.2534L25.0385 50.9411L24.6226 51.1812L23.785 47.4935Z" fill="#3B3B3B"/>
<path d="M24.5663 47.0423L24.9821 46.8022L25.8197 50.4899L25.4039 50.73L24.5663 47.0423Z" fill="#3B3B3B"/>
<path d="M25.3475 46.5912L25.7634 46.3511L26.601 50.0387L26.1851 50.2788L25.3475 46.5912Z" fill="#3B3B3B"/>
<path d="M26.1268 46.141L26.5427 45.9009L27.3803 49.5885L26.9644 49.8286L26.1268 46.141Z" fill="#3B3B3B"/>
<path d="M26.9081 45.6898L27.3239 45.4497L28.1615 49.1373L27.7457 49.3774L26.9081 45.6898Z" fill="#3B3B3B"/>
<path d="M43.892 37.735C43.9271 37.2639 43.8318 36.7891 43.5691 36.3342C42.7473 34.9107 39.6394 36.5376 39.6394 36.5376L34.7001 39.3893C34.0647 39.7562 33.9484 40.3582 34.2844 40.9402L35.2984 42.6965L43.892 37.735Z" fill="#7A7A7A"/>
<path d="M82.8292 72.4294C83.0605 72.6018 83.3512 72.6524 83.6135 72.5011L87.7662 70.1036C87.9299 70.0089 88.0392 69.9001 88.1357 69.725L90.4974 64.8118C90.5895 64.5916 90.5105 64.3405 90.2879 64.1461L64.234 40.2227L53.0078 46.7041L82.8292 72.4294Z" stroke="#333333" stroke-width="2.98254" stroke-miterlimit="3.99393" stroke-linecap="round"/>
<path fill-rule="evenodd" clip-rule="evenodd" d="M28.2899 96.7587L42.8444 88.3557L41.0876 85.3129C40.4762 84.2538 40.0425 83.1016 39.804 81.9022L37.0459 68.0341C37.0459 66.0266 37.4738 64.5859 39.3656 64.0165C39.6416 63.9425 39.9301 63.8679 40.2295 63.7905C44.0277 62.8085 49.5941 61.3693 53.8507 54.9791C54.005 54.7475 54.0121 54.4464 53.873 54.2054L51.1104 49.4205C49.826 47.1958 49.8689 45.5131 50.7671 44.4502C51.6138 43.4486 52.8289 42.8519 53.9174 42.1869L59.4402 38.9983C61.6587 37.7174 62.5272 36.7716 62.0838 36.0036L59.2902 31.165L13.8881 57.3779C14.8381 60.0746 15.6107 62.8937 12.6231 66.0026C12.3485 66.2884 12.6285 66.6563 12.9905 66.4473C20.9297 62.113 21.1685 65.9259 21.8827 73.6081C22.4534 79.7459 23.2437 88.247 28.2899 96.7587ZM42.4904 50.7531C39.4047 52.5346 36.5788 55.589 38.1848 58.006L41.2843 62.3223C46.5626 60.9029 48.9051 59.4584 52.5188 54.8507C52.7052 54.613 52.7273 54.2849 52.5762 54.0233L50.5978 50.5965C49.1984 48.1727 47.9842 47.5812 45.779 48.8544L42.4904 50.7531Z" stroke="#333333" stroke-width="1.49127" stroke-miterlimit="3.99393" stroke-linecap="round"/>
<path d="M34.2844 40.9402C33.9484 40.3582 34.0647 39.7562 34.7001 39.3893L39.6394 36.5376C39.6394 36.5376 42.7473 34.9107 43.5691 36.3342C44.5577 38.0465 43.1755 40.0383 41.3935 41.0671L36.1166 44.1137L34.2844 40.9402Z" stroke="#333333" stroke-width="1.49127" stroke-miterlimit="3.99393" stroke-linecap="round"/>
<path d="M35.2988 42.6976L28.2975 46.7384C28.1192 46.8413 28.0581 47.0693 28.161 47.2477L28.6069 48.0199C28.7098 48.1982 28.9378 48.2593 29.1161 48.1564L36.1169 44.1145L35.2988 42.6976Z" fill="#4F4F4F" stroke="#333333" stroke-width="1.49127" stroke-miterlimit="3.99393" stroke-linecap="round"/>
<path d="M21.8828 73.6083C22.3873 79.034 23.0634 86.3062 26.699 93.8L28.3973 96.6971L39.5594 90.2526C36.9174 85.4738 36.2537 82.2937 34.8379 75.5099C34.0449 71.7101 33.0159 66.7796 31.2711 59.8042C31.1511 59.3243 30.6017 59.0804 30.1733 59.3277L21.7663 64.1815C21.1696 64.526 20.6967 65.0897 20.4017 65.8772C21.3261 67.3566 21.5543 70.0747 21.8828 73.6083Z" stroke="#4E2518" stroke-width="1.49127" stroke-miterlimit="3.99393" stroke-linecap="round"/>
<path d="M32.6041 98.3467L43.9004 91.8248C44.5231 91.4652 43.9402 90.6392 44.3952 90.1842C45.7333 88.8461 44.6711 87.3009 43.0843 88.2171L29.7563 95.9119L30.9359 97.955C31.2906 98.4932 32.0332 98.7201 32.6041 98.3467Z" fill="#5E5E5E" stroke="#333333" stroke-width="2.98254" stroke-miterlimit="3.99393"/>
<path d="M12.4317 51.8724C11.8968 52.1812 12.2092 53.4937 12.3952 54.046C12.7903 55.2195 13.0761 55.9709 13.8876 57.3766C14.8376 60.0733 15.6107 62.8937 12.6232 66.0027C12.3486 66.2884 12.6285 66.6564 12.9905 66.4473C20.8218 62.172 21.1606 65.8238 21.8538 73.2969L21.8827 73.6081C22.4534 79.746 23.2437 88.2471 28.29 96.7587L42.8444 88.3557L41.0876 85.3129C40.4762 84.2538 40.0426 83.1017 39.804 81.9023L37.0459 68.0341C37.0459 66.0267 37.4738 64.586 39.3656 64.0165C39.6416 63.9425 39.9301 63.868 40.2296 63.7905C44.0277 62.8085 49.5941 61.3693 53.8507 54.9791C54.005 54.7475 54.0121 54.4464 53.873 54.2054L51.1104 49.4205C49.826 47.1958 49.8689 45.5131 50.7672 44.4502C51.4558 43.6356 52.3882 43.0887 53.2979 42.5552C53.5067 42.4328 53.7142 42.311 53.9174 42.1869L59.4402 38.9983C61.4366 37.8457 62.3398 36.9644 62.1775 36.2399L71.8041 30.6819C72.1212 30.4989 72.2585 30.1127 72.1281 29.7706L70.7458 26.1445L70.7606 26.1359C70.9389 26.033 71 25.805 70.8971 25.6267L67.9749 20.5654C67.7925 20.2493 67.3241 20.1803 66.9249 20.4108L12.4317 51.8724Z" stroke="#333333" stroke-width="2.98254" stroke-miterlimit="3.99393" stroke-linecap="round"/>
</svg>
