<svg xmlns="http://www.w3.org/2000/svg" xml:space="preserve" width="107.673" height="90.656" viewBox="0 0 28.488 23.986"><defs><clipPath id="o" clipPathUnits="userSpaceOnUse"><path fill="#fff" d="M10.512-50.673h116.566V65.893H10.512z" style="stroke-width:1.05969" transform="rotate(30)"/></clipPath><clipPath id="n" clipPathUnits="userSpaceOnUse"><path fill="#fff" d="M10.512-50.673h116.566V65.893H10.512z" style="stroke-width:1.05969" transform="rotate(30)"/></clipPath><clipPath id="m" clipPathUnits="userSpaceOnUse"><path fill="#fff" d="M10.512-50.673h116.566V65.893H10.512z" style="stroke-width:1.05969" transform="rotate(30)"/></clipPath><clipPath id="l" clipPathUnits="userSpaceOnUse"><path fill="#fff" d="M10.512-50.673h116.566V65.893H10.512z" style="stroke-width:1.05969" transform="rotate(30)"/></clipPath><clipPath id="k" clipPathUnits="userSpaceOnUse"><path fill="#fff" d="M10.512-50.673h116.566V65.893H10.512z" style="stroke-width:1.05969" transform="rotate(30)"/></clipPath><clipPath id="j" clipPathUnits="userSpaceOnUse"><path fill="#fff" d="M10.512-50.673h116.566V65.893H10.512z" style="stroke-width:1.05969" transform="rotate(30)"/></clipPath><clipPath id="i" clipPathUnits="userSpaceOnUse"><path fill="#fff" d="M10.512-50.673h116.566V65.893H10.512z" style="stroke-width:1.05969" transform="rotate(30)"/></clipPath><clipPath id="h" clipPathUnits="userSpaceOnUse"><path fill="#fff" d="M10.512-50.673h116.566V65.893H10.512z" style="stroke-width:1.05969" transform="rotate(30)"/></clipPath><clipPath id="g" clipPathUnits="userSpaceOnUse"><path fill="#fff" d="M10.512-50.673h116.566V65.893H10.512z" style="stroke-width:1.05969" transform="rotate(30)"/></clipPath><clipPath id="f" clipPathUnits="userSpaceOnUse"><path fill="#fff" d="M10.512-50.673h116.566V65.893H10.512z" style="stroke-width:1.05969" transform="rotate(30)"/></clipPath><clipPath id="e" clipPathUnits="userSpaceOnUse"><path fill="#fff" d="M10.512-50.673h116.566V65.893H10.512z" style="stroke-width:1.05969" transform="rotate(30)"/></clipPath><clipPath id="d" clipPathUnits="userSpaceOnUse"><path fill="#fff" d="M10.512-50.673h116.566V65.893H10.512z" style="stroke-width:1.05969" transform="rotate(30)"/></clipPath><clipPath id="c" clipPathUnits="userSpaceOnUse"><path fill="#fff" d="M10.512-50.673h116.566V65.893H10.512z" style="stroke-width:1.05969" transform="rotate(30)"/></clipPath><clipPath id="b" clipPathUnits="userSpaceOnUse"><path fill="#fff" d="M10.512-50.673h116.566V65.893H10.512z" style="stroke-width:1.05969" transform="rotate(30)"/></clipPath><clipPath id="a" clipPathUnits="userSpaceOnUse"><path fill="#fff" d="M10.512-50.673h116.566V65.893H10.512z" style="stroke-width:1.05969" transform="rotate(30)"/></clipPath></defs><g transform="rotate(-15.001 18.373 10.11)scale(.25275)"><path fill="#8c8c8c" fill-rule="evenodd" d="M61.45 12.606h55.832c.272 0 .493.22.493.493v5.556c0 .273-.221.493-.493.493H61.45zm41.82 2.85a.987.987 0 1 0 0-1.973.987.987 0 0 0 0 1.973m4.206-.987a.987.987 0 1 1-1.973 0 .987.987 0 0 1 1.973 0m2.234.987a.987.987 0 1 0 0-1.973.987.987 0 0 0 0 1.973" clip-rule="evenodd" style="stroke-width:1.05969"/><path stroke="#333" stroke-miterlimit="3.994" stroke-width="3.724" d="M61.45 12.606h55.832c.272 0 .493.22.493.493v5.556c0 .273-.221.493-.493.493H61.45z" clip-rule="evenodd" style="fill:none;stroke-width:3.97132;stroke-dasharray:none"/><path stroke="#333" stroke-miterlimit="3.994" stroke-width="1.862" d="M103.269 14.963a.987.987 0 1 0 0-1.974.987.987 0 0 0 0 1.974zM107.476 13.976a.986.986 0 1 1-1.973 0 .986.986 0 0 1 1.973 0zM109.71 14.963a.987.987 0 1 0 0-1.974.987.987 0 0 0 0 1.974z" style="fill:none;stroke-width:1.98566;stroke-dasharray:none"/><path fill="#474747" d="M81.958 19.715v5.9H97.11a.99.99 0 0 0 .974-.83l.815-5.07z" style="stroke-width:1.05969"/><path fill="#3b3b3b" fill-rule="evenodd" stroke="#333" stroke-miterlimit="3.994" stroke-width="1.862" d="M8.007 24.857c.868-.549 1.913-1.106 2.885-.774l4.02 1.372 1.097-2.52L6.048 18.6a.48.48 0 0 0-.506.076c-.25.223-.67.614-1.07 1.07-.362.41-.709.874-.9 1.313a3.053 3.053 0 0 0 4.435 3.797zM7.73 22.87a1.48 1.48 0 1 0-2.716-1.182 1.48 1.48 0 0 0 2.716 1.182z" clip-path="url(#a)" clip-rule="evenodd" style="stroke-width:1.98566;stroke-dasharray:none"/><path fill="#404040" fill-rule="evenodd" d="M13.58 13.083c.151-.756.662-2.467 1.479-2.467h83.254c.61 0 1.101.39 1.101.872v7.733c0 .272-.22.493-.493.493H82.45v-1.827H13.086c0-2.148.17-3.198.493-4.804" clip-rule="evenodd" style="stroke-width:1.05969"/><ellipse cx="91.842" cy="80.102" fill="#de8a3b" stroke="#57320f" stroke-miterlimit="3.994" stroke-width="1.973" clip-path="url(#b)" rx="4.888" ry="2.227"/><path fill="#e1b54f" stroke="#57410f" stroke-miterlimit="3.994" stroke-width="1.973" d="m83.864 77.652 7.977.07v4.76l-7.977.068-.4-.14v-4.617z" clip-path="url(#c)"/><path fill="#e1b54f" stroke="#57410f" stroke-miterlimit="3.994" stroke-width="1.973" d="M83.022 77.645h-.479l-.148.148v4.618l.149.148h.478z" clip-path="url(#d)"/><path fill="#daa325" stroke="#57410f" stroke-miterlimit="3.994" stroke-width="1.973" d="M83.022 77.934h.444v4.336h-.444z" clip-path="url(#e)"/><path fill="#545454" fill-rule="evenodd" d="M3.535 72.54H25.77v-4.648c0-1.619.266-3.226.786-4.758L32.57 45.42c1.328-2.3 2.771-3.668 5.316-3.069q.547.148 1.14.313c5.001 1.387 12.331 3.42 21.436-1.086a.97.97 0 0 0 .538-.872v-7.31c0-3.399 1.162-5.299 2.894-5.922 1.633-.588 3.42-.468 5.107-.51h8.438c3.39 0 5.01-.509 5.01-1.682v-7.393H13.085c-.695 3.719-1.675 7.46-7.155 9.046-.504.146-.426.753.127.753 11.964.286 9.716 4.813 5.452 14.088-3.407 7.41-8.125 17.674-7.974 30.766m46.707-43.32c-4.715 0-9.973 1.63-9.732 5.462l.696 6.996c6.987 1.865 10.627 1.76 17.816-1.129a.98.98 0 0 0 .613-.91v-5.236c0-3.702-1-5.184-4.369-5.184z" clip-path="url(#f)" clip-rule="evenodd" style="stroke:none;stroke-width:1.05969"/><path fill="#4a4a4a" d="M72.884 21.056h9.565l.002 4.225c0 1.174-1.621 1.683-5.01 1.683h-8.439c-1.687.042-3.474-.078-5.106.51-.416.149-.799.372-1.14.672l5.305-5.268c1.074-1.042 2.995-1.822 4.823-1.822" style="stroke-width:1.05969"/><path fill="#4d4d4d" stroke="#333" stroke-linecap="round" stroke-miterlimit="3.994" stroke-width="1.973" d="M88.378 10.621h7.708l-.727-2.409a.99.99 0 0 0-.834-.585l-4.702-.328ZM19.067 10.696h5.314l-1.133-3.645h-2.867z" style="stroke-width:3.97132;stroke-linejoin:round;stroke-dasharray:none"/><path fill="#707070" d="M82.122 80.743c.151.35.451.6.852.6h6.344c.25 0 .447-.052.674-.188l5.956-4.068c.251-.192.327-.531.201-.901L82.122 31.537H64.97Z" clip-path="url(#g)" style="stroke-width:1.05969"/><path fill="#747474" stroke="#333" stroke-linecap="round" stroke-miterlimit="3.994" stroke-width="1.973" d="M45.433 32.855s-2.244 5.635 2.934 7.978c.2.05.45-.05.4-.2-1.74-1.854-3.904-6.095-.248-8.248V29.16l-4.39.256v1.434z" style="stroke-width:1.98566;stroke-dasharray:none"/><path fill="#4a4a4a" fill-rule="evenodd" d="M64.482 27.294c-3.858-1.351-7.902-1.891-13.635-1.676-12.506.89-13.742 3.53-14.574 13.688l-3.701 6.114c1.079-1.87 2.234-3.122 3.994-3.205l.115-.004a5 5 0 0 1 1.207.14q.546.148 1.137.312c.66.184 1.321.366 1.986.537 4.53 1.167 10.551 2.168 17.767-.852q.78-.326 1.58-.717c.37-.182.643-.49.643-.925v-7.31c0-1.38.192-2.514.536-3.415l.061-.154c.507-1.227 1.31-1.998 2.298-2.353q.29-.105.586-.18M48.46 29.298a21 21 0 0 1 1.781-.078h5.025q.648 0 1.181.075c2.428.342 2.593 1.881 2.593 5.11v4.64c0 .399-.248.762-.614.91-3.493 1.404-5.553 1.687-8.162 1.87l-.226.014a20 20 0 0 1-3.648-.139 31.414 31.414 0 0 1-2.405-.41 52 52 0 0 1-2.78-.67l-.695-5.937c-.211-3.353 3.788-5.02 7.95-5.385" clip-rule="evenodd" style="stroke-width:1.05969"/><path fill="#713723" d="M11.509 41.775c-3.012 6.55-7.048 15.33-7.84 26.323l.03 4.443h17.053c.134-7.224 1.477-11.307 4.343-20.017 1.605-4.878 3.688-11.209 6.303-20.356.18-.629-.288-1.272-.942-1.272H17.61c-.911 0-1.826.333-2.685 1.04.08 2.307-1.456 5.573-3.417 9.839" clip-path="url(#h)" style="stroke-width:1.05969"/><path fill="#612f1f" d="M18.112 72.54c.137-9.035 4.054-20.37 7.65-30.776l.827-2.4C8.769 42.232 4.226 55.245 4.499 72.54Z" clip-path="url(#i)" style="stroke-width:1.05969"/><path fill="#878787" d="M47.33 12.546c0-.89.532-1.502 1.502-1.502h7.547s4.637.191 4.637 2.366c0 2.616-2.901 3.984-5.624 3.984H47.33z" style="stroke-width:1.05969"/><path fill="#545454" d="M90.702 80.673 84.89 63.847a.493.493 0 1 0-.933.322l5.897 17.064q.07-.033.142-.077z" clip-path="url(#j)" style="fill:#4c4c4c;fill-opacity:1;stroke-width:1.05969"/><path fill="#545454" d="M74.154 28.574H73.11l3.828 11.081a.493.493 0 1 0 .932-.322z" style="fill:#4c4c4c;fill-opacity:1;stroke-width:1.05969"/><path fill="#5e5e5e" stroke="#333" stroke-miterlimit="3.994" stroke-width="3.724" d="M65.086 26.903h17.258c.952 0 .83 1.333 1.653 1.553 2.418.648 2.223 3.121-.201 3.121H63.434v-3.121c.05-.852.75-1.603 1.652-1.553z" style="stroke-width:3.97132;stroke-dasharray:none"/><path fill="#545454" d="M75.157 44.68a1.327 1.327 0 1 0 0-2.653 1.327 1.327 0 0 0 0 2.654" style="fill:#4c4c4c;fill-opacity:1;stroke-width:1.05969"/><path fill="#4d4d4d" d="M14.153 51.583a1.509 1.509 0 1 0 0-3.018 1.509 1.509 0 0 0 0 3.018z" style="stroke:#4d2519;stroke-width:1.98566;stroke-dasharray:none;stroke-opacity:1"/><path fill="#454545" fill-rule="evenodd" stroke="#333" stroke-linecap="round" stroke-miterlimit="3.994" stroke-width="1.862" d="m36.664 38.799-3.245-1.478c-.579-.578-.338-1.41.456-1.41h3.414c1.192 0 .353 3.15-.625 2.888z" clip-rule="evenodd" style="stroke-width:1.98566;stroke-dasharray:none"/><path fill="#424242" fill-rule="evenodd" stroke="#333" stroke-linecap="round" stroke-miterlimit="3.994" stroke-width="1.862" d="M51.494 21.706a1.735 1.735 0 1 1-3.236-.872h3.015c.123.237.22.586.22.872z" clip-rule="evenodd" style="stroke-width:1.98566;stroke-dasharray:none"/><path fill="#474747" fill-rule="evenodd" d="M38.512 13.594c0-.545 1.922-.987 2.466-.987h6.352v2.624h-8.818z" clip-rule="evenodd" style="stroke-width:1.05969"/><path fill="#424242" fill-rule="evenodd" d="M40.654 13.918c0-.562.456-1.018 1.018-1.018h2.495a1.018 1.018 0 0 1 0 2.036h-2.495a1.02 1.02 0 0 1-1.018-1.018" clip-rule="evenodd" style="stroke-width:1.05969"/><path fill="#3b3b3b" d="M19.03 13.109h.635l-1.48 4.78h-.635zM20.223 13.108h.635l-1.48 4.78h-.635zM21.415 13.11h.635l-1.48 4.779h-.635zM22.61 13.11h.635l-1.48 4.78h-.635zM23.802 13.109h.636l-1.48 4.78h-.635zM24.997 13.11h.635l-1.48 4.779h-.635zM26.19 13.108h.635l-1.48 4.78h-.635zM27.384 13.11h.635l-1.48 4.78h-.635zM28.577 13.11h.635l-1.48 4.78h-.635zM29.77 13.11h.635l-1.48 4.779h-.635zM30.964 13.11h.636l-1.48 4.779h-.635zM32.157 13.109h.636l-1.48 4.78h-.635zM33.352 13.109h.636l-1.48 4.78h-.636zM34.542 13.109h.636l-1.48 4.78h-.635zM35.735 13.108h.636l-1.48 4.78h-.636z" style="stroke-width:1.05969"/><path fill="#7a7a7a" d="M60.46 15.229a3.17 3.17 0 0 0 .556-1.819c0-2.175-4.637-2.366-4.637-2.366h-7.547c-.97 0-1.502.612-1.502 1.502v2.683z" style="stroke-width:1.05969"/><path stroke="#333" stroke-linecap="round" stroke-miterlimit="3.994" stroke-width="3.724" d="M82.122 80.743c.151.35.451.6.852.6h6.344c.25 0 .447-.052.674-.188l5.956-4.068c.251-.192.327-.531.201-.901L82.122 31.537H64.97Z" clip-path="url(#k)" style="fill:none;stroke-width:3.97132;stroke-dasharray:none"/><path stroke="#333" stroke-linecap="round" stroke-miterlimit="3.994" stroke-width="1.973" d="M3.535 72.54H25.77v-4.648c0-1.619.266-3.226.786-4.758L32.57 45.42c1.328-2.3 2.771-3.668 5.316-3.069q.547.148 1.14.313c5.001 1.387 12.331 3.42 21.436-1.086a.97.97 0 0 0 .538-.872v-7.31c0-3.399 1.162-5.299 2.894-5.922 1.633-.588 3.42-.468 5.107-.51h8.438c3.39 0 5.01-.509 5.01-1.682v-7.393H13.085c-.695 3.719-1.675 7.46-7.155 9.046-.504.146-.426.753.127.753 11.964.286 9.716 4.813 5.452 14.088-3.407 7.41-8.125 17.674-7.974 30.766Zm46.707-43.32c-4.715 0-9.973 1.63-9.732 5.462l.696 5.74c6.987 1.865 9.304 2.09 16.493-.799a.98.98 0 0 0 .613-.91v-4.31c0-3.702.323-5.184-3.046-5.184z" clip-path="url(#l)" clip-rule="evenodd" style="fill:none;stroke-width:1.98566;stroke-dasharray:none"/><path stroke="#333" stroke-linecap="round" stroke-miterlimit="3.994" stroke-width="1.862" d="M47.33 12.546c0-.89.532-1.502 1.502-1.502h7.547s4.637.191 4.637 2.366c0 2.616-2.901 3.984-5.624 3.984H47.33z" style="fill:none;stroke-width:1.98566;stroke-dasharray:none"/><path fill="#4f4f4f" stroke="#333" stroke-linecap="round" stroke-miterlimit="3.994" stroke-width="1.862" d="m47.33 14.737-10.696-.002a.493.493 0 0 0-.494.493v1.18c0 .273.221.493.494.494h10.695z" style="stroke-width:1.98566;stroke-dasharray:none"/><path stroke="#4e2518" stroke-linecap="round" stroke-miterlimit="3.994" stroke-width="1.862" d="M11.509 41.775c-3.012 6.55-7.048 15.33-7.84 26.323l.03 4.443h17.053c.134-7.224 1.477-11.307 4.343-20.017 1.605-4.878 3.688-11.209 6.303-20.356.18-.629-.288-1.272-.942-1.272H17.61c-.911 0-1.826.333-2.685 1.04.08 2.307-1.456 5.573-3.417 9.839z" clip-path="url(#m)" style="fill:none;stroke-width:1.98566;stroke-dasharray:none"/><path fill="#5e5e5e" stroke="#333" stroke-miterlimit="3.994" stroke-width="3.724" d="M7.427 77.214h17.258c.952 0 .83-1.332 1.653-1.553 2.418-.648 2.223-3.12-.201-3.121H5.775v3.122c.05.851.75 1.602 1.652 1.552z" clip-path="url(#n)" style="stroke-width:3.97132;stroke-dasharray:none"/><path stroke="#333" stroke-linecap="round" stroke-miterlimit="3.994" stroke-width="3.724" d="M15.059 10.616c-.818 0-1.328 1.71-1.48 2.466-.324 1.606-.494 2.656-.494 4.804-.695 3.719-1.675 7.462-7.155 9.048-.504.145-.426.752.127.752 11.802.282 9.774 4.69 5.624 13.712l-.172.376c-3.407 7.41-8.125 17.674-7.974 30.765h22.236v-4.648c0-1.618.265-3.225.786-4.757l6.014-17.716c1.328-2.3 2.771-3.668 5.316-3.069q.547.148 1.14.313c5 1.387 12.331 3.42 21.436-1.085a.97.97 0 0 0 .537-.872v-7.31c0-3.4 1.163-5.3 2.895-5.923 1.328-.478 2.758-.487 4.154-.497v0q.48-.002.953-.012h8.438c3.05 0 4.668-.412 4.961-1.35H97.11a.986.986 0 0 0 .974-.83l.815-5.07h.022c.273 0 .494-.22.494-.493v-7.732c0-.483-.491-.872-1.101-.872z" clip-path="url(#o)" style="fill:none;stroke-width:3.97132;stroke-dasharray:none"/><path d="M31.927 18.217h20.057v2.485H41.035s-1.23 1.51-4.554 1.51-4.554-1.015-4.554-1.015z" style="fill:#666;fill-opacity:1;fill-rule:evenodd;stroke:#333;stroke-width:1.98566;stroke-linecap:round;stroke-linejoin:round;stroke-miterlimit:29;stroke-dasharray:none;stroke-opacity:1"/><path d="M54.566 21.276h1.353v2.474h-1.353zM56.131 21.276h1.353v2.474h-1.353zM57.696 21.276h1.353v2.474h-1.353zM59.261 21.276h1.353v2.474h-1.353zM60.826 21.276h1.353v2.474h-1.353zM62.391 21.276h1.353v2.474h-1.353zM63.956 21.276h1.353v2.474h-1.353z" style="fill:#666;fill-opacity:1;fill-rule:evenodd;stroke:none;stroke-width:.859893;stroke-linecap:round;stroke-linejoin:round;stroke-miterlimit:29;stroke-dasharray:none;stroke-opacity:1"/><path d="m90.006 78.745-2.813-7.968s-1.734-6.325 2.128-9.694l4.656 14.929z" style="fill:#595959;fill-opacity:1;fill-rule:evenodd;stroke:none;stroke-width:1.05833;stroke-linecap:round;stroke-linejoin:round;stroke-miterlimit:29;stroke-dasharray:none;stroke-opacity:1"/><path d="M35.044 38.622s-4.038.543-6.716 7.454c-2.069 5.339-5.346 16.295-5.346 16.295s-1.4 4.22-1.063 8.19m0 0h1.95l-.148-3.462s-.035-2.655 2.466-9.017l4.594-13.387s2.045-4.41 5.828-4.456l-.215-.907-1.35-.71" style="fill:#4a4a4a;fill-opacity:1;fill-rule:evenodd;stroke:none;stroke-width:1.05833;stroke-linecap:round;stroke-linejoin:round;stroke-miterlimit:29;stroke-dasharray:none;stroke-opacity:1"/></g></svg>