<?xml version="1.0" encoding="UTF-8" standalone="no"?>
<svg
   width="122.30177"
   height="58.52676"
   viewBox="0 0 122.30177 58.52676"
   fill="none"
   version="1.1"
   id="svg138"
   sodipodi:docname="death_ray.svg"
   inkscape:version="1.4.2 (1:1.4.2+202505120737+ebf0e940d0)"
   xmlns:inkscape="http://www.inkscape.org/namespaces/inkscape"
   xmlns:sodipodi="http://sodipodi.sourceforge.net/DTD/sodipodi-0.dtd"
   xmlns="http://www.w3.org/2000/svg"
   xmlns:svg="http://www.w3.org/2000/svg">
  <sodipodi:namedview
     id="namedview138"
     pagecolor="#505050"
     bordercolor="#ffffff"
     borderopacity="1"
     inkscape:showpageshadow="0"
     inkscape:pageopacity="0"
     inkscape:pagecheckerboard="1"
     inkscape:deskcolor="#505050"
     inkscape:zoom="5.4045455"
     inkscape:cx="50.698066"
     inkscape:cy="43.944491"
     inkscape:window-width="2560"
     inkscape:window-height="1368"
     inkscape:window-x="0"
     inkscape:window-y="0"
     inkscape:window-maximized="1"
     inkscape:current-layer="svg138" />
  <g
     clip-path="url(#clip0_619_1197)"
     id="g109"
     transform="matrix(0.96749681,0.25923999,-0.25923999,0.96749681,20.894165,-37.651106)">
    <path
       d="m 101.829,12.4726 c -0.033,-0.0722 0.003,-0.1577 0.078,-0.1834 l 1.705,-0.5815 c 0.054,-0.0185 0.114,-5e-4 0.149,0.0448 l 2.388,3.0912 -3.593,2.0742 0.532,-1.7565 z"
       fill="#1f6bad"
       stroke="#1a364d"
       stroke-width="1.07053"
       stroke-miterlimit="3.99393"
       id="path1" />
    <path
       d="m 45.3809,60.5742 1.8949,-1.094 c -0.0604,1.3979 0.3904,2.526 1.5379,2.7418 0.2247,0.0423 0.1596,0.4499 -0.1087,0.3957 -1.2018,-0.2427 -1.8494,-0.6474 -2.1611,-1.6316 -0.4018,0.1713 -0.9673,-0.0729 -1.163,-0.4119 z"
       fill="#b85f14"
       id="path2" />
    <path
       d="m 47.2712,59.6375 c 8e-4,-0.0519 0.0024,-0.1044 0.0047,-0.1572 l -0.257,0.1483 0.0019,0.1535 c -8e-4,0.6193 0.103,1.1871 0.3362,1.6405 0.2654,0.5167 0.8137,0.8148 1.432,0.931 0.0656,0.0123 0.1598,0.0262 0.1598,0.0262 -0.0075,-0.0748 -0.051,-0.1417 -0.135,-0.1576 -1.1042,-0.2076 -1.5633,-1.26 -1.5426,-2.5847 z"
       fill="#cf6b17"
       id="path3" />
    <path
       d="m 45.3809,60.5742 1.8949,-1.094 c -0.0604,1.3979 0.3904,2.526 1.5379,2.7418 0.2247,0.0423 0.1596,0.4499 -0.1087,0.3957 -1.2018,-0.2427 -1.8494,-0.6474 -2.1611,-1.6316 -0.4018,0.1713 -0.9673,-0.0729 -1.163,-0.4119 z"
       stroke="#5c2f0a"
       stroke-width="0.535266"
       stroke-miterlimit="3.99393"
       id="path4" />
    <path
       fill-rule="evenodd"
       clip-rule="evenodd"
       d="m 43.5442,61.0798 2.0923,3.6241 c 0.151,0.2615 0.0614,0.596 -0.2001,0.747 l -0.3191,0.1842 c -0.4092,0.2362 -0.6433,0.6892 -0.5993,1.1596 l 1.1935,12.7732 c 0.054,0.5788 -0.4002,1.0793 -0.9815,1.0813 L 29.7613,80.702 c -2.3815,0.0083 -5.2988,2.268 -5.5681,5.5468 -0.102,1.242 -0.1939,1.4743 -0.9461,1.9086 l -7.3342,4.2344 c -0.3154,0.1821 -0.7188,0.074 -0.9009,-0.2414 L 6.5256,77.4515 26.8524,65.8518 c 0.4635,-0.2645 0.8374,-0.6616 1.0736,-1.1401 l 2.1523,-4.3618 c 0.2341,-0.4745 0.6037,-0.869 1.0619,-1.1335 l 0.715,-0.4129 z m -9.6424,8.5554 c 2.9812,-1.721 4.5368,-0.6578 5.0453,0.223 0.9331,1.6162 -0.4756,3.4231 -2.3241,4.4904 -2.526,1.4584 -4.1241,0.8583 -4.8282,-0.3611 -0.894,-1.5485 0.2487,-3.2795 2.107,-4.3523 z"
       fill="#4085bf"
       id="path5" />
    <path
       d="m 44.517,66.7949 -1.7321,0.1618 c -0.1472,0.0138 -0.2553,0.1443 -0.2416,0.2914 l 1.1291,12.0835 c 0.0128,0.138 0.1288,0.2433 0.2674,0.2428 l 1.7707,-0.0063 z"
       fill="#3b7ab0"
       id="path6" />
    <path
       fill-rule="evenodd"
       clip-rule="evenodd"
       d="m 40.0574,69.2144 c -0.7206,-1.2483 -2.8501,-2.7985 -6.7579,-0.5426 -2.4359,1.4062 -3.8844,3.7606 -2.6173,5.9554 0.9978,1.7282 3.1629,2.6363 6.474,0.7246 2.4231,-1.3989 4.2237,-3.8468 2.9012,-6.1374 z m -1.1103,0.6437 c -0.5085,-0.8808 -2.0641,-1.944 -5.0453,-0.2229 -1.8583,1.0727 -3.001,2.8037 -2.107,4.3522 0.7041,1.2194 2.3022,1.8195 4.8282,0.3611 1.8486,-1.0673 3.2572,-2.8742 2.3241,-4.4904 z"
       fill="#3b7ab0"
       id="path7" />
    <circle
       cx="14.4668"
       cy="83.067101"
       transform="rotate(-30,14.4668,83.0671)"
       fill="#296ba3"
       stroke="#1a364d"
       stroke-width="0.535266"
       stroke-miterlimit="3.99393"
       id="ellipse7"
       r="1.30111" />
    <circle
       cx="14.4657"
       cy="83.066704"
       transform="rotate(-30,14.4657,83.0667)"
       fill="#255f93"
       id="ellipse8"
       r="0.46243599" />
    <path
       d="m 5.32617,78.1436 1.19884,-0.6922 8.63039,14.9483 c 0.0739,0.128 0.0301,0.2917 -0.0979,0.3656 l -0.9671,0.5583 z"
       fill="#307ec0"
       stroke="#1a364d"
       stroke-width="1.07053"
       stroke-miterlimit="3.99393"
       id="path8" />
    <path
       d="M 10.5087,95.9385 12.0871,94.3697 3.5767,79.4774 1.11234,80.1799 C 0.675077,80.3045 0.49333,80.8255 0.754274,81.1978 4.46589,86.494 6.48073,89.9343 9.268,95.7223 c 0.23025,0.4782 0.8643,0.5903 1.2407,0.2162 z"
       fill="#266397"
       stroke="#1a364d"
       stroke-width="1.07053"
       stroke-miterlimit="3.99393"
       id="path9" />
    <path
       d="M 3.32053,79.618 C 3.28512,79.5567 3.30362,79.4784 3.36272,79.4394 l 1.96467,-1.2963 8.76421,15.1801 -1.763,1.0179 c -0.2103,0.1214 -0.4792,0.0494 -0.6006,-0.1609 z"
       fill="#2e78b8"
       stroke="#1a364d"
       stroke-width="1.07053"
       stroke-miterlimit="3.99393"
       id="path10" />
    <path
       fill-rule="evenodd"
       clip-rule="evenodd"
       d="m 43.5442,61.0798 2.0923,3.6241 c 0.151,0.2615 0.0614,0.596 -0.2001,0.747 l -0.3191,0.1842 c -0.4092,0.2362 -0.6433,0.6892 -0.5993,1.1596 l 1.1935,12.7732 c 0.054,0.5788 -0.4002,1.0793 -0.9815,1.0813 L 29.7613,80.702 c -2.3815,0.0083 -5.2988,2.268 -5.5681,5.5468 -0.102,1.242 -0.1939,1.4743 -0.9461,1.9086 l -7.3342,4.2344 c -0.3154,0.1821 -0.7188,0.074 -0.9009,-0.2414 L 6.5256,77.4515 26.8524,65.8518 c 0.4635,-0.2645 0.8374,-0.6616 1.0736,-1.1401 l 2.1523,-4.3618 c 0.2341,-0.4745 0.6037,-0.869 1.0619,-1.1335 l 0.715,-0.4129 z m -9.6424,8.5554 c 2.9812,-1.721 4.5368,-0.6578 5.0453,0.223 0.9331,1.6162 -0.4756,3.4231 -2.3241,4.4904 -2.526,1.4584 -4.1241,0.8583 -4.8282,-0.3611 -0.894,-1.5485 0.2487,-3.2795 2.107,-4.3523 z"
       stroke="#1a354c"
       stroke-width="1.07053"
       stroke-miterlimit="3.99393"
       id="path11" />
    <path
       d="m 107.224,20.5726 0.725,0.0253 c 0.037,0.0013 0.066,0.0323 0.064,0.0692 l -0.077,2.2002 c -0.001,0.0369 -0.032,0.0658 -0.069,0.0645 l -0.724,-0.0254 z"
       fill="#1a5b93"
       stroke="#1a364d"
       stroke-width="0.535266"
       stroke-miterlimit="3.99393"
       id="path12" />
    <path
       d="m 106.299,21.6953 2.491,-1.4385 c 0.064,-0.037 0.146,-0.015 0.183,0.049 l 0.669,1.1589 c 0.037,0.064 0.015,0.1458 -0.049,0.1827 l -2.491,1.4386 z"
       fill="#1f6bad"
       stroke="#1a364d"
       stroke-width="0.535266"
       stroke-miterlimit="3.99393"
       id="path13" />
    <path
       fill-rule="evenodd"
       clip-rule="evenodd"
       d="m 77.4431,35.1106 1.0037,1.7383 29.2912,-16.911 -0.127,3.6162 c -0.01,0.1408 -0.057,0.2004 -0.15,0.2655 L 97.6604,30.3914 67.4166,47.8528 62.3984,39.1611 107.774,13.8864 c 0.132,-0.0764 0.219,-0.0567 0.216,0.0689 l -0.126,3.5919 z m -7.5271,2.1557 c -0.0859,0.0496 -0.0899,0.1722 -0.0073,0.2272 l 0.2855,0.1904 c 0.0423,0.0282 0.097,0.03 0.1411,0.0045 l 1.9262,-1.112 c 0.0859,-0.0496 0.0898,-0.1722 0.0073,-0.2272 l -0.2855,-0.1904 c -0.0423,-0.0283 -0.097,-0.03 -0.1411,-0.0046 z m 3.5825,-1.8454 c -0.0825,-0.055 -0.0786,-0.1776 0.0073,-0.2272 l 1.9262,-1.1121 c 0.0441,-0.0254 0.0988,-0.0237 0.1411,0.0046 l 0.2855,0.1904 c 0.0826,0.055 0.0786,0.1776 -0.0073,0.2272 l -1.9262,1.1121 c -0.044,0.0254 -0.0987,0.0236 -0.1411,-0.0046 z m 3.5972,-2.2998 c -0.086,0.0496 -0.0899,0.1722 -0.0074,0.2272 l 0.2855,0.1904 c 0.0424,0.0283 0.0971,0.03 0.1412,0.0046 l 1.9261,-1.1121 C 79.527,32.3816 79.531,32.259 79.4485,32.204 L 79.163,32.0136 c -0.0424,-0.0282 -0.0971,-0.03 -0.1412,-0.0046 z m 3.5825,-1.8454 c -0.0826,-0.055 -0.0786,-0.1776 0.0073,-0.2272 l 1.9261,-1.112 c 0.0441,-0.0255 0.0988,-0.0237 0.1412,0.0045 l 0.2855,0.1904 c 0.0825,0.055 0.0786,0.1776 -0.0073,0.2272 l -1.9262,1.1121 c -0.0441,0.0254 -0.0988,0.0237 -0.1412,-0.0046 z m 3.5971,-2.2998 c -0.0859,0.0496 -0.0899,0.1722 -0.0073,0.2273 l 0.2855,0.1903 c 0.0423,0.0283 0.097,0.0301 0.1411,0.0046 l 1.9262,-1.1121 c 0.0859,-0.0496 0.0899,-0.1721 0.0073,-0.2272 l -0.2855,-0.1904 c -0.0423,-0.0282 -0.097,-0.03 -0.1411,-0.0045 z m 3.5825,-1.8453 c -0.0825,-0.0551 -0.0786,-0.1776 0.0073,-0.2272 l 1.9262,-1.1121 c 0.0441,-0.0255 0.0988,-0.0237 0.1411,0.0045 l 0.2855,0.1904 c 0.0826,0.0551 0.0786,0.1776 -0.0073,0.2272 l -1.9261,1.1121 c -0.0441,0.0255 -0.0988,0.0237 -0.1412,-0.0045 z m 3.5972,-2.2998 c -0.0859,0.0496 -0.0899,0.1721 -0.0074,0.2272 l 0.2855,0.1904 c 0.0424,0.0282 0.0971,0.03 0.1412,0.0045 l 1.9261,-1.112 c 0.0859,-0.0496 0.0899,-0.1722 0.0074,-0.2273 L 93.5223,23.7233 C 93.4799,23.695 93.4252,23.6932 93.3811,23.7187 Z"
       fill="url(#paint0_linear_619_1197)"
       id="path14"
       style="fill:url(#paint0_linear_619_1197)" />
    <rect
       x="52.5527"
       y="48.901402"
       width="11.0399"
       height="3.01087"
       rx="0.30108699"
       transform="rotate(-30,52.5527,48.9014)"
       fill="#423224"
       id="rect14" />
    <rect
       x="52.5527"
       y="48.901402"
       width="11.0399"
       height="3.01087"
       rx="0.30108699"
       transform="rotate(-30,52.5527,48.9014)"
       fill="#2e78b7"
       id="rect15" />
    <rect
       x="61.060501"
       y="44.568401"
       width="0.50181198"
       height="2.0072501"
       transform="rotate(-30,61.0605,44.5684)"
       fill="#296ba3"
       id="rect16" />
    <path
       d="m 56.5129,49.6355 -0.6862,-0.747 0.4854,-0.1308 -0.0796,0.4729 0.4625,0.0359 -0.1591,0.3941 m -0.1024,-1.2902 0.6712,0.6609 m -0.6712,-0.6609 -0.1722,0.1519 m 0.1722,-0.1519 0.1723,-0.1518 m 0.337,0.9831 0.3709,-0.3623 m -0.6058,-0.7273 0.2585,-0.2311 m 0,0 0.2555,-0.2284 m -0.2555,0.2284 0.6462,0.7444 m -0.6462,-0.7444 -0.019,-0.0219 m 0.3786,-0.3478 0.6773,0.6701 0.3274,-0.3008 m -0.6405,-0.0401 0.2544,-0.2337 m -0.5938,-0.105 0.2852,-0.2587 m 1.2023,0.2321 -0.5568,-0.8417 0.4491,0.0717 0.0487,-0.4476 0.7083,0.5846 m -0.1498,-1.2308 -0.3029,0.3083 m 0.0402,-0.0151 0.6828,0.6893 m 0.005,-0.0289 0.3231,-0.3158 m -0.6665,-0.0237 0.3081,-0.283 m -0.0925,-0.7141 0.5106,0.6197 m 0.182,0.1981 -0.0157,-0.002 -0.0086,0.0193 0.0098,0.0023 z"
       stroke="#307ec0"
       stroke-width="0.024128"
       stroke-miterlimit="3.99393"
       id="path16" />
    <path
       d="m 90.7087,34.4047 -1.6811,-2.9117 -23.2932,13.4484 1.681,2.9117 z"
       fill="url(#paint1_linear_619_1197)"
       id="path17"
       style="fill:url(#paint1_linear_619_1197)" />
    <path
       d="M 8.813,73.2751 C 8.77605,73.2111 8.79798,73.1292 8.86198,73.0923 L 24.8823,63.8429 c 0.064,-0.0369 0.1459,-0.015 0.1828,0.049 l 2.3056,3.9934 c 0.516,0.8938 0.2098,2.0366 -0.684,2.5526 l -13.0155,7.5145 c -0.8938,0.5161 -2.0366,0.2098 -2.5526,-0.6839 z"
       fill="#2e78b8"
       stroke="#1a364d"
       stroke-width="1.07053"
       stroke-miterlimit="3.99393"
       id="path18" />
    <rect
       x="34.076199"
       y="51.5723"
       width="0.40144899"
       height="2.6094201"
       transform="rotate(-30,34.0762,51.5723)"
       fill="#1f507a"
       stroke="#1a364d"
       stroke-width="0.535266"
       stroke-miterlimit="3.99393"
       id="rect18" />
    <path
       fill-rule="evenodd"
       clip-rule="evenodd"
       d="m 104.359,19.5715 -0.387,2.5412 -1.043,0.6022 0.387,-2.5413 z m -5.6313,5.5688 0.387,-2.5412 -1.043,0.6021 -0.387,2.5413 z m -4.8569,0.4863 -0.3871,2.5413 -1.043,0.6021 0.3871,-2.5412 z m -5.631,5.5689 0.387,-2.5413 -1.043,0.6022 -0.387,2.5412 z m -4.8569,0.4863 -0.3871,2.5413 -1.043,0.6021 0.3871,-2.5412 z"
       fill="#ff9133"
       stroke="#663000"
       stroke-width="0.535266"
       stroke-miterlimit="3.99393"
       id="path19" />
    <path
       d="m 44.1325,61.2955 -0.3473,0.2006 1.7596,3.0479 c 0.1848,0.32 0.594,0.4296 0.914,0.2449 l 4.932,-2.8475 c 0.32,-0.1848 0.3658,-0.5689 0.2449,-0.914 l -1.2962,-3.3155 -0.3479,0.2009 1.0954,2.9678 c 0.1305,0.3883 0.0751,0.7293 -0.2449,0.914 l -4.2366,2.446 c -0.32,0.1848 -0.7292,0.0751 -0.914,-0.2449 z"
       fill="#245d8f"
       stroke="#1a364d"
       stroke-width="0.535266"
       stroke-miterlimit="3.99393"
       id="path20" />
    <path
       d="m 51.4423,61.9079 15.3615,-8.8655 c 0.4199,-0.2424 0.6758,-0.6931 0.6689,-1.1779 l -0.057,-4.0117 -17.0774,9.8596 1.2961,3.3155 c 0.114,0.3251 0.0799,0.6849 -0.1921,0.88 z"
       fill="#296ba3"
       stroke="#1a364d"
       stroke-width="1.07053"
       stroke-miterlimit="3.99393"
       id="path21" />
    <path
       d="m 62.625,47.583 25.5175,-14.7325 0.5233,0.9064 -15.6452,9.0327 -0.3286,-0.0693 -1.2679,0.732 -0.329,-0.0691 -8.1711,4.7176 z"
       fill="#b35200"
       stroke="#663000"
       stroke-width="0.535266"
       stroke-miterlimit="3.99393"
       id="path22" />
    <path
       fill-rule="evenodd"
       clip-rule="evenodd"
       d="m 32.7021,56.7703 1.8852,-1.552 27.8114,-16.0569 5.0181,8.6917 L 35.897,66.051 32.2385,57.038 Z m 20.0024,-7.6082 c -0.0832,-0.144 -0.0338,-0.3282 0.1102,-0.4113 l 9.0393,-5.2189 c 0.144,-0.0831 0.3281,-0.0337 0.4113,0.1102 l 1.2043,2.086 c 0.0832,0.144 0.0338,0.3282 -0.1102,0.4113 l -9.0393,5.2189 c -0.144,0.0831 -0.3281,0.0338 -0.4113,-0.1102 z"
       fill="url(#paint2_linear_619_1197)"
       id="path23"
       style="fill:url(#paint2_linear_619_1197)" />
    <path
       fill-rule="evenodd"
       clip-rule="evenodd"
       d="m 32.7021,56.7703 1.8852,-1.552 27.8114,-16.0569 5.0181,8.6917 L 35.897,66.051 32.2385,57.038 Z m 20.0024,-7.6082 c -0.0832,-0.144 -0.0338,-0.3282 0.1102,-0.4113 l 9.0393,-5.2189 c 0.144,-0.0831 0.3281,-0.0337 0.4113,0.1102 l 1.2043,2.086 c 0.0832,0.144 0.0338,0.3282 -0.1102,0.4113 l -9.0393,5.2189 c -0.144,0.0831 -0.3281,0.0338 -0.4113,-0.1102 z"
       fill="url(#paint3_linear_619_1197)"
       id="path24"
       style="fill:url(#paint3_linear_619_1197)" />
    <rect
       x="34.607399"
       y="54.897499"
       width="31.8022"
       height="0.26763299"
       transform="rotate(-30,34.6074,54.8975)"
       fill="#7a491f"
       id="rect24" />
    <rect
       x="34.337898"
       y="54.433601"
       width="0.63562799"
       height="0.53526598"
       transform="rotate(-30,34.3379,54.4336)"
       fill="#a36229"
       stroke="#663000"
       stroke-width="0.535266"
       stroke-miterlimit="3.99393"
       id="rect25" />
    <rect
       x="35.570301"
       y="53.722698"
       width="0.63562799"
       height="0.53526598"
       transform="rotate(-30,35.5703,53.7227)"
       fill="#a36229"
       stroke="#663000"
       stroke-width="0.535266"
       stroke-miterlimit="3.99393"
       id="rect26" />
    <rect
       x="36.8027"
       y="53.0107"
       width="0.63562799"
       height="0.53526598"
       transform="rotate(-30,36.8027,53.0107)"
       fill="#a36229"
       stroke="#663000"
       stroke-width="0.535266"
       stroke-miterlimit="3.99393"
       id="rect27" />
    <rect
       x="38.035198"
       y="52.299801"
       width="0.63562799"
       height="0.53526598"
       transform="rotate(-30,38.0352,52.2998)"
       fill="#a36229"
       stroke="#663000"
       stroke-width="0.535266"
       stroke-miterlimit="3.99393"
       id="rect28" />
    <rect
       x="39.267601"
       y="51.588902"
       width="0.63562799"
       height="0.53526598"
       transform="rotate(-30,39.2676,51.5889)"
       fill="#a36229"
       stroke="#663000"
       stroke-width="0.535266"
       stroke-miterlimit="3.99393"
       id="rect29" />
    <rect
       x="40.5"
       y="50.876999"
       width="0.63562799"
       height="0.53526598"
       transform="rotate(-30,40.5,50.877)"
       fill="#a36229"
       stroke="#663000"
       stroke-width="0.535266"
       stroke-miterlimit="3.99393"
       id="rect30" />
    <rect
       x="55.285198"
       y="42.340801"
       width="0.63562799"
       height="0.53526598"
       transform="rotate(-30,55.2852,42.3408)"
       fill="#a36229"
       stroke="#663000"
       stroke-width="0.535266"
       stroke-miterlimit="3.99393"
       id="rect31" />
    <rect
       x="42.964802"
       y="49.454102"
       width="0.63562799"
       height="0.53526598"
       transform="rotate(-30,42.9648,49.4541)"
       fill="#a36229"
       stroke="#663000"
       stroke-width="0.535266"
       stroke-miterlimit="3.99393"
       id="rect32" />
    <rect
       x="47.892601"
       y="46.608398"
       width="0.63562799"
       height="0.53526598"
       transform="rotate(-30,47.8926,46.6084)"
       fill="#a36229"
       stroke="#663000"
       stroke-width="0.535266"
       stroke-miterlimit="3.99393"
       id="rect33" />
    <rect
       x="41.732399"
       y="50.166"
       width="0.63562799"
       height="0.53526598"
       transform="rotate(-30,41.7324,50.166)"
       fill="#a36229"
       stroke="#663000"
       stroke-width="0.535266"
       stroke-miterlimit="3.99393"
       id="rect34" />
    <rect
       x="44.195301"
       y="48.743198"
       width="0.63562799"
       height="0.53526598"
       transform="rotate(-30,44.1953,48.7432)"
       fill="#a36229"
       stroke="#663000"
       stroke-width="0.535266"
       stroke-miterlimit="3.99393"
       id="rect35" />
    <rect
       x="45.4277"
       y="48.0312"
       width="0.63562799"
       height="0.53526598"
       transform="rotate(-30,45.4277,48.0312)"
       fill="#a36229"
       stroke="#663000"
       stroke-width="0.535266"
       stroke-miterlimit="3.99393"
       id="rect36" />
    <rect
       x="46.660198"
       y="47.320301"
       width="0.63562799"
       height="0.53526598"
       transform="rotate(-30,46.6602,47.3203)"
       fill="#a36229"
       stroke="#663000"
       stroke-width="0.535266"
       stroke-miterlimit="3.99393"
       id="rect37" />
    <rect
       x="49.125"
       y="45.897499"
       width="0.63562799"
       height="0.53526598"
       transform="rotate(-30,49.125,45.8975)"
       fill="#a36229"
       stroke="#663000"
       stroke-width="0.535266"
       stroke-miterlimit="3.99393"
       id="rect38" />
    <rect
       x="50.357399"
       y="45.186501"
       width="0.63562799"
       height="0.53526598"
       transform="rotate(-30,50.3574,45.1865)"
       fill="#a36229"
       stroke="#663000"
       stroke-width="0.535266"
       stroke-miterlimit="3.99393"
       id="rect39" />
    <rect
       x="51.589802"
       y="44.474602"
       width="0.63562799"
       height="0.53526598"
       transform="rotate(-30,51.5898,44.4746)"
       fill="#a36229"
       stroke="#663000"
       stroke-width="0.535266"
       stroke-miterlimit="3.99393"
       id="rect40" />
    <rect
       x="52.820301"
       y="43.763699"
       width="0.63562799"
       height="0.53526598"
       transform="rotate(-30,52.8203,43.7637)"
       fill="#a36229"
       stroke="#663000"
       stroke-width="0.535266"
       stroke-miterlimit="3.99393"
       id="rect41" />
    <rect
       x="54.0527"
       y="43.0518"
       width="0.63562799"
       height="0.53526598"
       transform="rotate(-30,54.0527,43.0518)"
       fill="#a36229"
       stroke="#663000"
       stroke-width="0.535266"
       stroke-miterlimit="3.99393"
       id="rect42" />
    <rect
       x="56.517601"
       y="41.628899"
       width="0.63562799"
       height="0.53526598"
       transform="rotate(-30,56.5176,41.6289)"
       fill="#a36229"
       stroke="#663000"
       stroke-width="0.535266"
       stroke-miterlimit="3.99393"
       id="rect43" />
    <rect
       x="57.75"
       y="40.917999"
       width="0.63562799"
       height="0.53526598"
       transform="rotate(-30,57.75,40.918)"
       fill="#a36229"
       stroke="#663000"
       stroke-width="0.535266"
       stroke-miterlimit="3.99393"
       id="rect44" />
    <rect
       x="58.982399"
       y="40.2061"
       width="0.63562799"
       height="0.53526598"
       transform="rotate(-30,58.9824,40.2061)"
       fill="#a36229"
       stroke="#663000"
       stroke-width="0.535266"
       stroke-miterlimit="3.99393"
       id="rect45" />
    <rect
       x="60.214802"
       y="39.495098"
       width="0.63562799"
       height="0.53526598"
       transform="rotate(-30,60.2148,39.4951)"
       fill="#a36229"
       stroke="#663000"
       stroke-width="0.535266"
       stroke-miterlimit="3.99393"
       id="rect46" />
    <rect
       x="61.330101"
       y="38.850601"
       width="0.63562799"
       height="0.53526598"
       transform="rotate(-30,61.3301,38.8506)"
       fill="#a36229"
       stroke="#663000"
       stroke-width="0.535266"
       stroke-miterlimit="3.99393"
       id="rect47" />
    <circle
       cx="37.7882"
       cy="62.254398"
       transform="rotate(-30,37.7882,62.2544)"
       fill="#296ba3"
       id="ellipse47"
       r="0.46835801" />
    <circle
       cx="40.305801"
       cy="62.573799"
       transform="rotate(-30,40.3058,62.5738)"
       fill="#296ba3"
       id="ellipse48"
       r="0.46835801" />
    <circle
       cx="65.534302"
       cy="47.438"
       transform="rotate(-30,65.5343,47.438)"
       fill="#296ba3"
       id="ellipse49"
       r="0.46835801" />
    <circle
       cx="61.815601"
       cy="40.9986"
       transform="rotate(-30,61.8156,40.9986)"
       fill="#296ba3"
       id="ellipse50"
       r="0.46835801" />
    <path
       d="m 34.585,53.7191 c -0.0739,-0.128 -0.0301,-0.2917 0.0979,-0.3656 l 2.6655,-1.5389 c 0.192,-0.1109 0.4375,-0.0451 0.5484,0.1469 l 0.5157,0.8933 -3.2449,1.8734 z"
       fill="#245d8f"
       stroke="#1a364d"
       stroke-width="0.535266"
       stroke-miterlimit="3.99393"
       id="path50" />
    <path
       d="m 30.5937,58.5016 c -0.0189,-0.3041 0.136,-0.5926 0.3999,-0.745 l 1.2448,-0.7187 3.6585,9.0131 -0.7305,0.4217 c -0.2419,0.1397 -0.5504,0.0699 -0.7087,-0.1602 l -1.138,-1.6551 -2.6265,-4.5491 z"
       fill="#296ba3"
       stroke="#1a364d"
       stroke-width="1.07053"
       stroke-miterlimit="3.99393"
       id="path51" />
    <path
       d="m 105.592,15.983 2.343,-0.4812 -0.051,1.4607 -1.584,-0.1433 -0.477,1.4322 -1.197,0.9658 -1.832,0.7833 1.677,-0.831 1.021,-0.9324 0.102,-1.0103 -2.397,2.2524 -1.463,0.4209 0.077,0.5628 -0.545,0.3344 -0.072,0.382 -0.062,-0.4578 0.406,-0.3168 -0.131,-0.4208 -1.135,0.337 -0.4618,1.0494 -0.9155,0.9522 0.8057,-1.0065 -0.0308,-0.6471 -1.9163,1.5889 -0.4319,0.1043 -0.2132,0.6308 -0.5282,0.0267 -0.2278,0.4098 0.1918,-0.559 0.3597,-0.0559 -0.0141,-0.3481 -0.8636,0.2088 -0.4034,0.3182 -0.3225,0.0075 0.3108,-0.0861 0.1195,-0.1623 -1.4316,0.34 1.7799,-0.6623 -0.1722,-0.1766 -0.5879,-0.2144 0.6165,0.0431 0.5858,0.1909 1.0535,-0.3253 0.2206,-0.1966 -0.1498,-0.0506 -0.2232,-0.0167 0.2668,-0.085 0.2551,0.0025 0.6894,-0.6462 -0.7071,-0.1992 -0.5019,0.2151 0.6017,-0.4826 0.9935,0.1047 0.6284,-0.5891 0.4161,-0.1542 -0.2679,-0.354 -0.447,-0.1311 0.5956,-0.1104 0.5353,0.4412 2.341,-0.8675 -0.754,-0.2219 -1.239,0.2645 1.115,-0.4792 1.347,0.0565 0.863,-0.9244 -0.68,-0.1802 -0.562,0.1877 -1.165,-0.1454 1.028,-0.092 0.843,-0.4233 1.209,-0.0343 z"
       fill="url(#paint4_linear_619_1197)"
       id="path52"
       style="fill:url(#paint4_linear_619_1197)" />
    <path
       d="m 106.055,22.5036 1.64,-1.3597 -0.062,1.7495 -0.933,0.7285 -1.089,0.481 -0.338,0.7388 -0.612,0.2158 0.437,-0.3503 -0.042,-0.4228 -0.544,0.177 -1.47,0.9021 -0.363,0.58 -0.443,0.1717 0.406,-0.2983 0.043,-0.2142 -0.609,0.3804 -1.188,0.3967 -0.339,0.4563 -0.502,0.2027 0.327,-0.2557 -0.079,-0.205 -0.5942,0.1983 -0.4956,0.3039 -0.1951,0.2975 -0.4337,0.2252 0.3353,-0.2188 -0.0167,-0.1137 -1.613,0.9891 0.9058,-0.8755 -0.0853,-0.0317 -0.2014,0.1163 0.2072,-0.2222 0.2873,-0.0633 0.8351,-0.8073 -0.1173,-0.0406 -0.3463,0.0625 -0.1705,-0.2074 0.2299,0.0877 0.4114,-0.1772 0.2712,0.0059 1.1809,-0.4291 -0.369,-0.1767 -0.118,-0.0281 -0.197,0.1848 -0.2044,0.0167 0.1355,-0.0375 0.1479,-0.1921 -0.2347,-0.0561 -0.3448,0.1067 0.3895,-0.2367 0.589,-0.1161 0.199,0.0802 0.083,-0.2239 0.182,-0.1244 -0.111,0.1127 0.045,0.3157 0.399,0.1603 0.59,-0.2145 1.098,-0.8358 -0.341,-0.0568 -0.499,0.101 -0.236,0.3232 0.092,-0.3573 0.573,-0.3623 0.24,-0.0164 -0.046,-0.2596 -0.227,-0.1406 0.306,-0.0066 0.207,0.3903 0.479,-0.0328 0.549,-0.418 0.994,-0.5367 -0.247,-0.2281 -0.658,0.1971 -0.348,-0.3802 0.381,0.1263 0.701,-0.4047 0.669,0.4213 z"
       fill="url(#paint5_linear_619_1197)"
       id="path53"
       style="fill:url(#paint5_linear_619_1197)" />
    <path
       d="m 62.347,47.259 c 0,-0.206 0.2231,-0.3348 0.4015,-0.2317 l 1.7062,0.985 c 0.1784,0.103 0.1784,0.3606 0,0.4636 l -1.7062,0.985 c -0.1784,0.103 -0.4015,-0.0257 -0.4015,-0.2318 z"
       fill="#8a470f"
       id="path54" />
    <path
       d="m 62.5144,47.5494 c 0,-0.2061 0.223,-0.3348 0.4014,-0.2318 l 1.2044,0.6953 c 0.1784,0.103 0.1784,0.3605 0,0.4636 l -1.2044,0.6953 C 62.7374,49.2748 62.5144,49.146 62.5144,48.94 Z"
       fill="#ff7400"
       id="path55" />
    <path
       d="m 62.7568,47.5065 c -0.0634,0.0366 -0.0839,0.1184 -0.0453,0.1806 l 0.4294,0.6919 c 0.0295,0.0475 0.0914,0.0631 0.1399,0.0351 0.0484,-0.028 0.0659,-0.0893 0.0395,-0.1386 l -0.3845,-0.718 c -0.0345,-0.0645 -0.1156,-0.0876 -0.179,-0.051 z"
       fill="#0f518a"
       id="path56" />
    <path
       d="m 63.4355,48.6821 c 0.048,-0.0277 0.0644,-0.0891 0.0367,-0.1371 -0.0277,-0.048 -0.0891,-0.0645 -0.1371,-0.0368 -0.048,0.0278 -0.0644,0.0891 -0.0367,0.1371 0.0277,0.0481 0.0891,0.0645 0.1371,0.0368 z"
       fill="#0f518a"
       id="path57" />
    <circle
       cx="35.5555"
       cy="53.7318"
       transform="rotate(-30,35.5555,53.7318)"
       fill="#1d4b72"
       id="ellipse57"
       r="0.105001" />
    <circle
       cx="34.677601"
       cy="52.2104"
       transform="rotate(-30,34.6776,52.2104)"
       fill="#225886"
       stroke="#1a364d"
       stroke-width="0.535266"
       stroke-miterlimit="3.99393"
       id="ellipse58"
       r="0.35590699" />
    <path
       d="m 61.6742,40.755 h 0.2817 l 0.1409,0.244 -0.1409,0.244 h -0.2817 l -0.1409,-0.244 z"
       fill="#1f507a"
       id="path58" />
    <path
       d="m 65.3929,47.1934 h 0.2818 l 0.1409,0.244 -0.1409,0.244 h -0.2818 l -0.1408,-0.244 z"
       fill="#1f507a"
       id="path59" />
    <path
       d="m 37.6469,62.0098 h 0.2817 l 0.1409,0.244 -0.1409,0.244 h -0.2817 l -0.1409,-0.244 z"
       fill="#1f507a"
       id="path60" />
    <path
       d="m 40.1644,62.3301 h 0.2818 l 0.1409,0.244 -0.1409,0.244 h -0.2818 l -0.1408,-0.244 z"
       fill="#1f507a"
       id="path61" />
    <path
       d="m 105.491,21.9746 0.147,0.4513 0.173,-0.0659 m -0.231,-0.1484 0.145,-0.0668 m -0.222,-0.1647 0.164,-0.075 m 0.173,-0.0908 0.097,0.4743 m -0.071,-0.4751 0.346,0.3692 m -0.307,-0.156 0.099,-0.0454 m 0.03,-0.2641 0.212,-0.0942 m -0.099,0.0507 0.18,0.4285 m 0.013,-0.5329 0.173,0.4334 m -0.07,-0.2062 0.148,-0.0756 m -0.113,-0.2147 0.209,0.4118 m -0.07,-0.2728 0.219,-0.1757 0.146,-0.2398 0.059,-0.223 m -0.115,0.0571 0.122,-0.0704 0.038,0.071 m -1.914,1.0678 0.187,0.4089 0.1,-0.274 z"
       stroke="#c76614"
       stroke-width="0.0185801"
       id="path62" />
    <path
       d="m 43.0822,59.8445 c -0.0145,-0.0115 -0.0355,-0.0092 -0.047,0.0053 -0.0115,0.0144 -0.0092,0.0355 0.0053,0.047 0.1226,0.0977 0.2718,0.1655 0.438,0.1903 0.0183,0.0027 0.0353,-0.0099 0.038,-0.0282 0.0028,-0.0182 -0.0099,-0.0353 -0.0281,-0.038 -0.1542,-0.023 -0.2925,-0.0858 -0.4062,-0.1764 z"
       fill="#577185"
       id="path63" />
    <path
       d="m 44.0725,57.8582 c -0.0071,-0.0122 -0.0227,-0.0164 -0.035,-0.0094 -0.0122,0.0071 -0.0164,0.0228 -0.0094,0.035 l 0.0657,0.1138 c 0.0071,0.0123 0.0228,0.0165 0.035,0.0094 0.0084,-0.0048 0.013,-0.0137 0.0128,-0.0227 0,-0.0042 -0.0012,-0.0084 -0.0034,-0.0123 z"
       fill="#6b492e"
       id="path64" />
    <path
       d="m 44.2678,57.7454 c -0.007,-0.0122 -0.0227,-0.0164 -0.035,-0.0093 -0.0122,0.007 -0.0164,0.0227 -0.0093,0.035 l 0.0657,0.1138 c 0.0034,0.0059 0.0088,0.0099 0.0148,0.0117 0.0066,0.0019 0.0138,0.0013 0.0202,-0.0024 0.0122,-0.007 0.0164,-0.0227 0.0093,-0.035 z"
       fill="#6b492e"
       id="path65" />
    <path
       fill-rule="evenodd"
       clip-rule="evenodd"
       d="m 44.0336,57.6166 c -0.1491,0.0861 -0.2001,0.2767 -0.1141,0.4258 0.0436,0.0755 0.1141,0.1259 0.1923,0.1461 l 0.0739,0.1279 0.378,-0.2183 -0.0739,-0.1279 c 0.0217,-0.0778 0.0133,-0.164 -0.0303,-0.2395 -0.0861,-0.1491 -0.2768,-0.2002 -0.4259,-0.1141 z m -0.0697,0.4002 c -0.0719,-0.1246 -0.0292,-0.2839 0.0954,-0.3558 0.1246,-0.072 0.2839,-0.0293 0.3558,0.0953 0.0382,0.0661 0.0441,0.1419 0.0226,0.2094 l -0.0034,0.0108 0.0594,0.1029 -0.063,0.0364 -0.0436,-0.0755 c -0.0071,-0.0123 -0.0228,-0.0165 -0.035,-0.0094 -0.0123,0.0071 -0.0165,0.0227 -0.0094,0.035 l 0.0436,0.0755 -0.0745,0.043 -0.0436,-0.0755 c -0.0071,-0.0123 -0.0227,-0.0165 -0.035,-0.0094 -0.0122,0.0071 -0.0164,0.0228 -0.0094,0.035 l 0.0436,0.0756 -0.063,0.0363 -0.0594,-0.1029 -0.0111,-0.0024 c -0.0691,-0.0151 -0.1318,-0.0582 -0.17,-0.1243 z"
       fill="#6b492e"
       id="path66" />
    <path
       d="m 44.4495,58.4144 c -0.0135,-0.0036 -0.0275,0.0044 -0.0311,0.018 -0.0036,0.0136 0.0044,0.0275 0.018,0.0311 l 0.2798,0.075 -0.075,0.2799 c -0.0036,0.0135 0.0044,0.0275 0.018,0.0311 0.0135,0.0036 0.0275,-0.0044 0.0311,-0.018 l 0.075,-0.2798 0.2798,0.075 c 0.0136,0.0036 0.0275,-0.0045 0.0312,-0.018 0.0036,-0.0136 -0.0044,-0.0275 -0.018,-0.0312 l -0.2798,-0.0749 0.0749,-0.2799 c 0.0037,-0.0135 -0.0044,-0.0275 -0.0179,-0.0311 -0.0136,-0.0036 -0.0275,0.0044 -0.0312,0.018 l -0.075,0.2798 z"
       fill="#3d698f"
       id="path67" />
    <path
       d="m 43.9413,58.6091 c 0.3123,0.1802 0.4193,0.5797 0.239,0.892 l -0.911,1.578 c -0.0094,0.0162 -0.0209,0.0305 -0.0335,0.0428 -0.0269,0.026 -0.0605,0.0434 -0.0962,0.0506 -0.009,0.0019 -0.0181,0.003 -0.0273,0.0036 -0.0369,0.0022 -0.0747,-0.006 -0.109,-0.0258 -0.093,-0.0537 -0.1249,-0.1727 -0.0712,-0.2657 l 0.0911,-0.1578 c 0.2607,-0.4515 0.2346,-0.9338 0.0645,-1.1665 -0.1479,-0.2023 -0.1717,-0.481 -0.0383,-0.7122 0.1803,-0.3122 0.5796,-0.4193 0.8919,-0.239 z"
       fill="#2687d9"
       id="path68" />
    <path
       d="M 44.0002,58.6468 C 43.9815,58.6332 43.962,58.6205 43.9415,58.6087 43.921,58.5969 43.9002,58.5862 43.879,58.5768 l -0.211,0.3656 0.1212,0.07 z"
       fill="#cc7833"
       id="path69" />
    <path
       fill-rule="evenodd"
       clip-rule="evenodd"
       d="m 32.7021,56.7703 1.8852,-1.552 27.8114,-16.0569 5.0181,8.6917 L 35.897,66.051 32.2385,57.038 Z"
       stroke="url(#paint6_linear_619_1197)"
       stroke-width="1.07053"
       stroke-miterlimit="3.99393"
       id="path70"
       style="stroke:url(#paint6_linear_619_1197)" />
    <path
       d="m 77.4431,35.1106 1.0037,1.7383 29.2912,-16.911 -0.127,3.6162 c -0.01,0.1408 -0.057,0.2004 -0.15,0.2655 L 97.6604,30.3914 67.4166,47.8528 62.3984,39.1611 107.774,13.8864 c 0.132,-0.0764 0.219,-0.0567 0.216,0.0689 l -0.126,3.5919 z"
       stroke="url(#paint7_linear_619_1197)"
       stroke-width="1.07053"
       stroke-miterlimit="3.99393"
       id="path71"
       style="stroke:url(#paint7_linear_619_1197)" />
    <path
       d="m 89.2428,31.5952 c -0.064,0.037 -0.0859,0.1188 -0.0489,0.1828 l 1.9403,3.3608 0.9533,-0.5504 c 0.0208,-0.012 0.038,-0.0294 0.0497,-0.0503 l 0.6307,-1.1222 c 0.0231,-0.0411 0.0228,-0.0915 -8e-4,-0.1324 l -1.5452,-2.6764 c -0.0369,-0.064 -0.1188,-0.0859 -0.1828,-0.049 z"
       fill="#e6771a"
       id="path72" />
    <circle
       cx="89.811501"
       cy="31.845699"
       r="0.25090599"
       transform="rotate(-30,89.8115,31.8457)"
       fill="#b86014"
       id="circle72" />
    <circle
       cx="90.971603"
       cy="31.1768"
       r="0.25090599"
       transform="rotate(-30,90.9716,31.1768)"
       fill="#b86014"
       id="circle73" />
    <circle
       cx="90.893501"
       cy="33.7188"
       r="0.25090599"
       transform="rotate(-30,90.8935,33.7188)"
       fill="#b86014"
       id="circle74" />
    <circle
       cx="92.051697"
       cy="33.049801"
       r="0.25090599"
       transform="rotate(-30,92.0517,33.0498)"
       fill="#b86014"
       id="circle75" />
    <path
       d="m 89.7328,31.7094 h 0.1568 l 0.0784,0.1358 -0.0784,0.1358 h -0.1568 l -0.0784,-0.1358 z"
       fill="#8a480f"
       id="path75" />
    <path
       d="m 90.893,31.0405 h 0.1568 l 0.0784,0.1358 -0.0784,0.1358 H 90.893 l -0.0784,-0.1358 z"
       fill="#8a480f"
       id="path76" />
    <path
       d="m 90.8149,33.5825 h 0.1568 l 0.0784,0.1358 -0.0784,0.1358 h -0.1568 l -0.0784,-0.1358 z"
       fill="#8a480f"
       id="path77" />
    <path
       d="m 91.9731,32.9135 h 0.1568 l 0.0784,0.1358 -0.0784,0.1358 h -0.1568 l -0.0784,-0.1358 z"
       fill="#8a480f"
       id="path78" />
    <path
       d="m 89.2428,31.5952 c -0.064,0.037 -0.0859,0.1188 -0.0489,0.1828 l 1.9403,3.3608 0.9533,-0.5504 c 0.0208,-0.012 0.038,-0.0294 0.0497,-0.0503 l 0.6307,-1.1222 c 0.0231,-0.0411 0.0228,-0.0915 -8e-4,-0.1324 l -1.5452,-2.6764 c -0.0369,-0.064 -0.1188,-0.0859 -0.1828,-0.049 z"
       stroke="#4d311a"
       stroke-width="0.535266"
       stroke-miterlimit="3.99393"
       id="path79" />
    <path
       d="M 75.4922,39.3083 C 74.9804,39.6038 74.723,40.2 74.859,40.7751 l 0.6359,2.6889 c 0.1031,0.4361 0.5975,0.6495 0.9856,0.4254 L 89.4509,36.401 c 0.1961,-0.1132 0.4772,-0.2756 0.7639,-0.1278 0.3297,0.1699 0.6881,0.2109 0.957,0.0556 0.269,-0.1553 0.3618,-0.498 0.2073,-0.7655 l -2.0155,-3.4911 c -0.1848,-0.32 -0.594,-0.4297 -0.914,-0.2449 z"
       fill="#296ba3"
       id="path80" />
    <rect
       x="88.269501"
       y="34.985401"
       width="0.200725"
       height="1.8165801"
       transform="rotate(-30,88.2695,34.9854)"
       fill="#1b5e98"
       id="rect80" />
    <rect
       x="87.226601"
       y="35.586899"
       width="0.200725"
       height="1.8165801"
       transform="rotate(-30,87.2266,35.5869)"
       fill="#1b5e98"
       id="rect81" />
    <rect
       x="86.183601"
       y="36.189499"
       width="0.200725"
       height="1.8165801"
       transform="rotate(-30,86.1836,36.1895)"
       fill="#1b5e98"
       id="rect82" />
    <rect
       x="85.140602"
       y="36.792"
       width="0.200725"
       height="1.8165801"
       transform="rotate(-30,85.1406,36.792)"
       fill="#1b5e98"
       id="rect83" />
    <rect
       x="84.097702"
       y="37.3936"
       width="0.200725"
       height="1.8165801"
       transform="rotate(-30,84.0977,37.3936)"
       fill="#1b5e98"
       id="rect84" />
    <rect
       x="83.054703"
       y="37.996101"
       width="0.200725"
       height="1.8165801"
       transform="rotate(-30,83.0547,37.9961)"
       fill="#1b5e98"
       id="rect85" />
    <rect
       x="82.011703"
       y="38.598598"
       width="0.200725"
       height="1.8165801"
       transform="rotate(-30,82.0117,38.5986)"
       fill="#1b5e98"
       id="rect86" />
    <rect
       x="80.968803"
       y="39.200199"
       width="0.200725"
       height="1.8165801"
       transform="rotate(-30,80.9688,39.2002)"
       fill="#1b5e98"
       id="rect87" />
    <rect
       x="79.925797"
       y="39.8027"
       width="0.200725"
       height="1.8165801"
       transform="rotate(-30,79.9258,39.8027)"
       fill="#1b5e98"
       id="rect88" />
    <rect
       x="78.882797"
       y="40.404301"
       width="0.200725"
       height="1.8165801"
       transform="rotate(-30,78.8828,40.4043)"
       fill="#1b5e98"
       id="rect89" />
    <rect
       x="77.839798"
       y="41.006802"
       width="0.200725"
       height="1.8165801"
       transform="rotate(-30,77.8398,41.0068)"
       fill="#1b5e98"
       id="rect90" />
    <path
       d="M 75.4922,39.3082 C 74.9804,39.6038 74.7231,40.2 74.859,40.7751 l 0.6358,2.6888 c 0.1032,0.4362 0.5976,0.6496 0.9857,0.4255 l 0.1132,-0.0653 -0.6208,-2.6251 c -0.1359,-0.5751 0.1213,-1.1713 0.6332,-1.4669 l 11.053,-6.3814 c 0.32,-0.1848 0.7292,-0.0751 0.914,0.2449 l 1.5197,2.6323 c 0.0404,0.0095 0.0812,0.0242 0.122,0.0453 0.3298,0.1699 0.6881,0.2108 0.957,0.0556 0.2675,-0.1545 0.3608,-0.4944 0.2098,-0.7612 l -2.0207,-3.5 c -0.0107,-0.0185 -0.0223,-0.036 -0.0345,-0.053 -0.1984,-0.2751 -0.5768,-0.3605 -0.8768,-0.1873 z"
       fill="#2f7bbc"
       id="path90" />
    <path
       d="M 75.4922,39.3083 C 74.9804,39.6038 74.723,40.2 74.859,40.7751 l 0.6359,2.6889 c 0.1031,0.4361 0.5975,0.6495 0.9856,0.4254 L 89.4509,36.401 c 0.1961,-0.1132 0.4772,-0.2756 0.7639,-0.1278 0.3297,0.1699 0.6881,0.2109 0.957,0.0556 0.269,-0.1553 0.3618,-0.498 0.2073,-0.7655 l -2.0155,-3.4911 c -0.1848,-0.32 -0.594,-0.4297 -0.914,-0.2449 z"
       stroke="#1a364d"
       stroke-width="1.07053"
       stroke-miterlimit="3.99393"
       id="path91" />
    <path
       d="m 69.9149,37.266 c -0.086,0.0496 -0.0899,0.1722 -0.0074,0.2272 l 0.2855,0.1904 c 0.0424,0.0283 0.0971,0.03 0.1412,0.0046 l 1.9261,-1.1121 c 0.0859,-0.0496 0.0899,-0.1722 0.0074,-0.2272 l -0.2855,-0.1904 c -0.0424,-0.0282 -0.0971,-0.03 -0.1412,-0.0045 z"
       stroke="url(#paint8_linear_619_1197)"
       stroke-width="0.535266"
       stroke-miterlimit="3.99393"
       id="path92"
       style="stroke:url(#paint8_linear_619_1197)" />
    <path
       d="m 73.4974,35.4206 c -0.0826,-0.055 -0.0786,-0.1776 0.0073,-0.2272 l 1.9261,-1.112 c 0.0441,-0.0255 0.0988,-0.0237 0.1412,0.0045 l 0.2855,0.1904 c 0.0825,0.055 0.0786,0.1776 -0.0073,0.2272 l -1.9262,1.1121 c -0.0441,0.0254 -0.0988,0.0237 -0.1412,-0.0046 z"
       stroke="url(#paint9_linear_619_1197)"
       stroke-width="0.535266"
       stroke-miterlimit="3.99393"
       id="path93"
       style="stroke:url(#paint9_linear_619_1197)" />
    <path
       d="m 77.0945,33.1208 c -0.0859,0.0496 -0.0899,0.1722 -0.0073,0.2273 l 0.2855,0.1903 c 0.0423,0.0283 0.097,0.0301 0.1411,0.0046 L 79.44,32.4309 c 0.0859,-0.0496 0.0898,-0.1721 0.0073,-0.2272 l -0.2855,-0.1904 c -0.0423,-0.0282 -0.097,-0.03 -0.1411,-0.0045 z"
       stroke="url(#paint10_linear_619_1197)"
       stroke-width="0.535266"
       stroke-miterlimit="3.99393"
       id="path94"
       style="stroke:url(#paint10_linear_619_1197)" />
    <path
       d="m 80.677,31.2755 c -0.0825,-0.0551 -0.0786,-0.1776 0.0073,-0.2272 l 1.9262,-1.1121 c 0.0441,-0.0255 0.0988,-0.0237 0.1411,0.0045 l 0.2855,0.1904 c 0.0826,0.0551 0.0786,0.1776 -0.0073,0.2272 l -1.9262,1.1121 c -0.044,0.0255 -0.0987,0.0237 -0.1411,-0.0045 z"
       stroke="url(#paint11_linear_619_1197)"
       stroke-width="0.535266"
       stroke-miterlimit="3.99393"
       id="path95"
       style="stroke:url(#paint11_linear_619_1197)" />
    <path
       d="m 84.2742,28.9757 c -0.086,0.0496 -0.0899,0.1721 -0.0074,0.2272 l 0.2855,0.1904 c 0.0424,0.0282 0.0971,0.03 0.1412,0.0045 l 1.9261,-1.112 c 0.0859,-0.0496 0.0899,-0.1722 0.0074,-0.2273 l -0.2855,-0.1903 c -0.0424,-0.0283 -0.0971,-0.0301 -0.1412,-0.0046 z"
       stroke="url(#paint12_linear_619_1197)"
       stroke-width="0.535266"
       stroke-miterlimit="3.99393"
       id="path96"
       style="stroke:url(#paint12_linear_619_1197)" />
    <path
       d="m 87.8567,27.1303 c -0.0826,-0.055 -0.0786,-0.1776 0.0073,-0.2272 l 1.9261,-1.1121 c 0.0441,-0.0254 0.0988,-0.0237 0.1412,0.0046 l 0.2855,0.1904 c 0.0825,0.055 0.0786,0.1776 -0.0073,0.2272 l -1.9262,1.112 c -0.0441,0.0255 -0.0988,0.0237 -0.1411,-0.0045 z"
       stroke="url(#paint13_linear_619_1197)"
       stroke-width="0.535266"
       stroke-miterlimit="3.99393"
       id="path97"
       style="stroke:url(#paint13_linear_619_1197)" />
    <path
       d="m 91.4538,24.8305 c -0.0859,0.0496 -0.0899,0.1722 -0.0073,0.2272 l 0.2855,0.1904 c 0.0423,0.0282 0.097,0.03 0.1411,0.0046 l 1.9262,-1.1121 c 0.0859,-0.0496 0.0899,-0.1722 0.0073,-0.2272 L 93.5211,23.723 c -0.0423,-0.0283 -0.097,-0.03 -0.1411,-0.0046 z"
       stroke="url(#paint14_linear_619_1197)"
       stroke-width="0.535266"
       stroke-miterlimit="3.99393"
       id="path98"
       style="stroke:url(#paint14_linear_619_1197)" />
    <path
       d="m 64.3384,40.8991 c -0.037,-0.064 -0.015,-0.1459 0.049,-0.1828 l 11.357,-6.557 c 0.064,-0.037 0.1459,-0.015 0.1828,0.049 l 1.2044,2.086 c 0.0369,0.064 0.015,0.1458 -0.049,0.1828 l -11.3571,6.557 c -0.064,0.0369 -0.1458,0.015 -0.1828,-0.049 z"
       fill="#3386cc"
       id="path99" />
    <rect
       x="65.429703"
       y="40.1143"
       width="10.7053"
       height="2.6763301"
       transform="rotate(-30,65.4297,40.1143)"
       fill="#3380cc"
       id="rect99" />
    <circle
       cx="75.949203"
       cy="35.5863"
       transform="rotate(-30,75.9492,35.5863)"
       fill="#2e78b7"
       id="ellipse99"
       r="0.33454099" />
    <circle
       cx="65.519501"
       cy="41.6078"
       transform="rotate(-30,65.5195,41.6078)"
       fill="#2e78b7"
       id="ellipse100"
       r="0.33454099" />
    <rect
       x="65.980499"
       y="39.796902"
       width="0.802899"
       height="2.6763301"
       transform="rotate(-30,65.9805,39.7969)"
       fill="#2e78b7"
       id="rect100" />
    <rect
       x="67.226601"
       y="39.077099"
       width="0.802899"
       height="2.6763301"
       transform="rotate(-30,67.2266,39.0771)"
       fill="#2e78b7"
       id="rect101" />
    <rect
       x="68.472702"
       y="38.358398"
       width="0.802899"
       height="2.6763301"
       transform="rotate(-30,68.4727,38.3584)"
       fill="#2e78b7"
       id="rect102" />
    <rect
       x="69.718803"
       y="37.638699"
       width="0.802899"
       height="2.6763301"
       transform="rotate(-30,69.7188,37.6387)"
       fill="#2e78b7"
       id="rect103" />
    <rect
       x="70.964798"
       y="36.919899"
       width="0.802899"
       height="2.6763301"
       transform="rotate(-30,70.9648,36.9199)"
       fill="#2e78b7"
       id="rect104" />
    <rect
       x="72.209"
       y="36.200199"
       width="0.802899"
       height="2.6763301"
       transform="rotate(-30,72.209,36.2002)"
       fill="#2e78b7"
       id="rect105" />
    <rect
       x="73.455101"
       y="35.4814"
       width="0.802899"
       height="2.6763301"
       transform="rotate(-30,73.4551,35.4814)"
       fill="#2e78b7"
       id="rect106" />
    <path
       d="m 65.4123,41.423 h 0.2138 l 0.1069,0.1852 -0.1069,0.1852 h -0.2138 l -0.1069,-0.1852 z"
       fill="#245e8f"
       id="path106" />
    <path
       d="m 75.8439,35.4006 h 0.2138 l 0.1069,0.1851 -0.1069,0.1852 H 75.8439 L 75.737,35.5857 Z"
       fill="#245e8f"
       id="path107" />
    <path
       d="m 64.3384,40.8991 c -0.037,-0.064 -0.015,-0.1459 0.049,-0.1828 l 11.357,-6.557 c 0.064,-0.037 0.1459,-0.015 0.1828,0.049 l 1.2044,2.086 c 0.0369,0.064 0.015,0.1458 -0.049,0.1828 l -11.3571,6.557 c -0.064,0.0369 -0.1458,0.015 -0.1828,-0.049 z"
       stroke="#143652"
       stroke-width="0.535266"
       stroke-miterlimit="3.99393"
       id="path108" />
    <rect
       x="52.5527"
       y="48.901402"
       width="11.0399"
       height="3.01087"
       rx="0.30108699"
       transform="rotate(-30,52.5527,48.9014)"
       stroke="#1a364d"
       stroke-width="0.535266"
       stroke-miterlimit="3.99393"
       id="rect108" />
    <path
       d="m 43.9413,58.6091 c 0.3123,0.1802 0.4193,0.5797 0.239,0.892 l -0.911,1.578 c -0.0094,0.0162 -0.0209,0.0305 -0.0335,0.0428 -0.0269,0.026 -0.0605,0.0434 -0.0962,0.0506 -0.009,0.0019 -0.0181,0.003 -0.0273,0.0036 -0.0369,0.0022 -0.0747,-0.006 -0.109,-0.0258 -0.093,-0.0537 -0.1249,-0.1727 -0.0712,-0.2657 l 0.0911,-0.1578 c 0.2607,-0.4515 0.2346,-0.9338 0.0645,-1.1665 -0.1479,-0.2023 -0.1717,-0.481 -0.0383,-0.7122 0.1803,-0.3122 0.5796,-0.4193 0.8919,-0.239 z"
       stroke="#1a364d"
       stroke-width="0.535266"
       stroke-miterlimit="3.99393"
       id="path109" />
  </g>
  <defs
     id="defs138">
    <linearGradient
       id="paint0_linear_619_1197"
       x1="65.078102"
       y1="43.802399"
       x2="109.886"
       y2="17.5387"
       gradientUnits="userSpaceOnUse">
      <stop
         stop-color="#FF7500"
         id="stop109" />
      <stop
         offset="1"
         stop-color="#B85F14"
         id="stop110" />
    </linearGradient>
    <linearGradient
       id="paint1_linear_619_1197"
       x1="66.632103"
       y1="46.496201"
       x2="89.710197"
       y2="32.858799"
       gradientUnits="userSpaceOnUse">
      <stop
         stop-color="#F57000"
         id="stop111" />
      <stop
         offset="1"
         stop-color="#CC650A"
         id="stop112" />
    </linearGradient>
    <linearGradient
       id="paint2_linear_619_1197"
       x1="64.907799"
       y1="43.507198"
       x2="32.2696"
       y2="56.556499"
       gradientUnits="userSpaceOnUse">
      <stop
         stop-color="#E66B00"
         id="stop113" />
      <stop
         offset="1"
         stop-color="#996333"
         id="stop114" />
    </linearGradient>
    <linearGradient
       id="paint3_linear_619_1197"
       x1="32.2696"
       y1="56.556499"
       x2="64.907799"
       y2="43.507198"
       gradientUnits="userSpaceOnUse">
      <stop
         offset="1.05967e-09"
         stop-color="#1A88E6"
         stop-opacity="0.7"
         id="stop115" />
      <stop
         offset="1"
         stop-color="#008AFF"
         stop-opacity="0"
         id="stop116" />
    </linearGradient>
    <linearGradient
       id="paint4_linear_619_1197"
       x1="109.259"
       y1="17.7945"
       x2="95.744598"
       y2="25.596701"
       gradientUnits="userSpaceOnUse">
      <stop
         stop-color="#0088FF"
         id="stop117" />
      <stop
         offset="1"
         stop-color="#0088FF"
         stop-opacity="0.5"
         id="stop118" />
    </linearGradient>
    <linearGradient
       id="paint5_linear_619_1197"
       x1="109.259"
       y1="17.7945"
       x2="95.744598"
       y2="25.596701"
       gradientUnits="userSpaceOnUse">
      <stop
         stop-color="#0088FF"
         id="stop119" />
      <stop
         offset="1"
         stop-color="#0088FF"
         stop-opacity="0.5"
         id="stop120" />
    </linearGradient>
    <linearGradient
       id="paint6_linear_619_1197"
       x1="30.878901"
       y1="57.359402"
       x2="64.907799"
       y2="43.507198"
       gradientUnits="userSpaceOnUse">
      <stop
         stop-color="#003666"
         id="stop121" />
      <stop
         offset="1"
         stop-color="#662F00"
         id="stop122" />
    </linearGradient>
    <linearGradient
       id="paint7_linear_619_1197"
       x1="64.907501"
       y1="43.506901"
       x2="110.037"
       y2="17.4513"
       gradientUnits="userSpaceOnUse">
      <stop
         stop-color="#663000"
         id="stop123" />
      <stop
         offset="1"
         stop-color="#5C300A"
         id="stop124" />
    </linearGradient>
    <linearGradient
       id="paint8_linear_619_1197"
       x1="64.906403"
       y1="43.506699"
       x2="110.036"
       y2="17.451"
       gradientUnits="userSpaceOnUse">
      <stop
         stop-color="#663000"
         id="stop125" />
      <stop
         offset="1"
         stop-color="#5C300A"
         id="stop126" />
    </linearGradient>
    <linearGradient
       id="paint9_linear_619_1197"
       x1="64.906403"
       y1="43.506699"
       x2="110.036"
       y2="17.451"
       gradientUnits="userSpaceOnUse">
      <stop
         stop-color="#663000"
         id="stop127" />
      <stop
         offset="1"
         stop-color="#5C300A"
         id="stop128" />
    </linearGradient>
    <linearGradient
       id="paint10_linear_619_1197"
       x1="64.906403"
       y1="43.506699"
       x2="110.036"
       y2="17.451"
       gradientUnits="userSpaceOnUse">
      <stop
         stop-color="#663000"
         id="stop129" />
      <stop
         offset="1"
         stop-color="#5C300A"
         id="stop130" />
    </linearGradient>
    <linearGradient
       id="paint11_linear_619_1197"
       x1="64.906403"
       y1="43.506699"
       x2="110.036"
       y2="17.451"
       gradientUnits="userSpaceOnUse">
      <stop
         stop-color="#663000"
         id="stop131" />
      <stop
         offset="1"
         stop-color="#5C300A"
         id="stop132" />
    </linearGradient>
    <linearGradient
       id="paint12_linear_619_1197"
       x1="64.906403"
       y1="43.506699"
       x2="110.036"
       y2="17.451"
       gradientUnits="userSpaceOnUse">
      <stop
         stop-color="#663000"
         id="stop133" />
      <stop
         offset="1"
         stop-color="#5C300A"
         id="stop134" />
    </linearGradient>
    <linearGradient
       id="paint13_linear_619_1197"
       x1="64.906403"
       y1="43.506699"
       x2="110.036"
       y2="17.451"
       gradientUnits="userSpaceOnUse">
      <stop
         stop-color="#663000"
         id="stop135" />
      <stop
         offset="1"
         stop-color="#5C300A"
         id="stop136" />
    </linearGradient>
    <linearGradient
       id="paint14_linear_619_1197"
       x1="64.906403"
       y1="43.506699"
       x2="110.036"
       y2="17.451"
       gradientUnits="userSpaceOnUse">
      <stop
         stop-color="#663000"
         id="stop137" />
      <stop
         offset="1"
         stop-color="#5C300A"
         id="stop138" />
    </linearGradient>
    <clipPath
       id="clip0_619_1197">
      <rect
         width="110"
         height="110"
         fill="#ffffff"
         id="rect138"
         x="0"
         y="0" />
    </clipPath>
  </defs>
</svg>
