<svg xmlns="http://www.w3.org/2000/svg" xmlns:xlink="http://www.w3.org/1999/xlink" xml:space="preserve" width="127.884" height="64.098" viewBox="0 0 33.836 16.959"><defs><linearGradient id="a"><stop offset="0" style="stop-color:#3d3a3a;stop-opacity:1"/><stop offset="1" style="stop-color:#534f4f;stop-opacity:1"/></linearGradient><linearGradient xlink:href="#a" id="b" x1="137.262" x2="137.262" y1="29.974" y2="27.635" gradientTransform="translate(2.319 .233)scale(.50681)" gradientUnits="userSpaceOnUse"/></defs><g style="display:inline" transform="matrix(.12262 -.04156 .03765 .11218 -1.229 10.736)"><path d="M109.566 26.98h163.137v8.996H109.566z" style="fill:#4e4b4b;fill-opacity:1;fill-rule:evenodd;stroke:none;stroke-width:2.11668;stroke-linecap:round;stroke-linejoin:round;stroke-miterlimit:29;stroke-dasharray:none;stroke-opacity:1;paint-order:normal"/><path d="M109.566 34.077h163.137v1.242H109.566zM109.566 27.637h163.137v1.242H109.566z" style="display:inline;fill:#464444;fill-opacity:1;fill-rule:evenodd;stroke:none;stroke-width:2.11668;stroke-linecap:round;stroke-linejoin:round;stroke-miterlimit:29;stroke-dasharray:none;stroke-opacity:1;paint-order:normal"/><path d="M109.566 26.98h163.137v8.996H109.566z" style="fill:none;fill-opacity:1;fill-rule:evenodd;stroke:#343232;stroke-width:2.11668;stroke-linecap:round;stroke-linejoin:round;stroke-miterlimit:29;stroke-dasharray:none;stroke-opacity:1;paint-order:normal"/><path d="M173.302 15.135h101.247v8.996H173.302z" style="display:inline;fill:#4e4b4b;fill-opacity:1;fill-rule:evenodd;stroke:none;stroke-width:2.11668;stroke-linecap:round;stroke-linejoin:round;stroke-miterlimit:29;stroke-dasharray:none;stroke-opacity:1;paint-order:normal"/><g style="display:inline;stroke-width:1.27774"><path d="M109.566 34.077h163.137v1.242H109.566zM109.566 27.637h163.137v1.242H109.566z" style="display:inline;fill:#464444;fill-opacity:1;fill-rule:evenodd;stroke:none;stroke-width:2.70457;stroke-linecap:round;stroke-linejoin:round;stroke-miterlimit:29;stroke-dasharray:none;stroke-opacity:1;paint-order:normal" transform="matrix(.61251 0 0 1 106.853 -11.845)"/></g><path d="M173.302 15.135h101.247v8.996H173.302z" style="display:inline;fill:none;fill-opacity:1;fill-rule:evenodd;stroke:#343232;stroke-width:2.11667;stroke-linecap:round;stroke-linejoin:round;stroke-miterlimit:29;stroke-dasharray:none;stroke-opacity:1;paint-order:normal"/><path d="M23.472 14.487s-2.778.366-1.964 3.402l7.128 26.604s1.67 5.1 5.252 3.032l-4.152 9.994s-.635.863-7.354 2.315c0 0-1.498.953-2.814-.09l-2.86.862s-1.066-.197-1.384-1.385c0 0-5.288-9.101-4.426-17.226 0 0-2.224-13.89-5.22-20.836l-.09-3.45 3.358-.771s-.5-2.996 6.99-3.813c0 0 2.815-.636 7.536 1.362" style="display:inline;fill:#454242;fill-opacity:1;fill-rule:evenodd;stroke:none;stroke-width:1.05833;stroke-linecap:round;stroke-linejoin:round;stroke-miterlimit:29;stroke-dasharray:none;stroke-opacity:1;paint-order:normal"/><path d="M26.65 13.216s-.94 15.697 4.206 15.697h71.055V12.58l2.46-4.262H85.48L72.52 11.79h-38.7l-4.946 1.326h-1.136z" style="display:inline;fill:url(#b);fill-rule:evenodd;stroke:none;stroke-width:.536374;stroke-linecap:square;stroke-miterlimit:29;stroke-dasharray:none;stroke-opacity:1"/><path d="M26.687 21.205s.598-2.18 21.116-2.18h54.017l-.007-6.445.265-.363H30.826l-1.544.582-1.09.144-1.633.636s-.454 3.215.128 7.626" style="display:inline;fill:#4b4747;fill-opacity:1;fill-rule:evenodd;stroke:#343232;stroke-width:1.05833;stroke-linecap:round;stroke-linejoin:round;stroke-miterlimit:29;stroke-dasharray:none;stroke-opacity:1"/><path d="M26.66 13.564s-1.45 15.272 4.092 15.272h71.211v-9.66h73.807s-1.069 3-5.96 3h-46.8s-2.525.555-3.647 5.045m0 0s-4.059-.537-5.169 1.385-2.034 4.228-2.034 4.228l2.245 1.31-1.871 7.95s-1.545 2.391-4.14 2.391H97.286L81.29 38.353H59.681l-22.45 5.52s-2.33.495-3.274 4.022c0 0-3.836 1.122-5.145-2.807-1.31-3.928-7.39-27.689-7.39-27.689s-.749-2.058 2.338-3.648c0 0 .374.842 2.9-.187" style="fill:#454242;fill-opacity:1;fill-rule:evenodd;stroke:#343232;stroke-width:1.05833;stroke-linecap:round;stroke-linejoin:round;stroke-miterlimit:29;stroke-dasharray:none;stroke-opacity:1;paint-order:normal"/><path d="m102.66 44.13-3.841.015-17.793-5.842H60.1l-22.34 5.52s-2.525.128-3.403 3.403l-3.852 8.997s-.48 1.625-2.043 2.043l-5.974 1.6s-1.782 1.006-2.787 0l-3.995-9.647 13.726-3.767s4.538-4.138 7.53-4.888L60.1 35.772h20.927z" style="display:inline;fill:#3c3939;fill-opacity:1;fill-rule:evenodd;stroke:none;stroke-width:2.11667;stroke-linecap:round;stroke-linejoin:round;stroke-miterlimit:29;stroke-dasharray:none;stroke-opacity:1"/><path d="m114.405 34.611-1.684 7.204c-.936 2.619-4.303 2.712-4.303 2.712H97.754c.374 6.174 4.583 5.893 4.583 5.893l12.255-.467c6.922.654 4.397 5.331 4.397 5.331l-6.923 22.638c-3.742 4.023-1.964 5.332-1.964 5.332l14.78 1.684c7.39 1.31 8.232-.561 8.232-.561-.655-1.965-1.59-5.332-1.59-5.332l5.799-18.99 11.693-1.122 3.555-.094 1.964-1.403 2.713-.56 4.49-7.017 1.871-3.835-.438-3.489-.42-1.056 4.506-2.19-46.398-.936.374-1.87zm41.751 13.744c.224.005.671.101.671.803l-1.45 3.601-3.975 4.07s-.094.934-9.87.934c0 0-2.432 1.45-1.496-7.53l.515-1.87h15.48s.05-.01.125-.008" style="display:inline;fill:#3e3c3c;fill-opacity:1;fill-rule:evenodd;stroke:#343232;stroke-width:1.05833;stroke-linecap:round;stroke-linejoin:round;stroke-miterlimit:29;stroke-dasharray:none;stroke-opacity:1;paint-order:normal"/><path d="M110.735 80.731c.14.86.719 1.022 9.153 2.045 10.64 1.29 10.603.938 10.78.232.152-.609-.972-2.429-.767-3.508 1.602-8.43 6.291-19.571 6.389-19.77.324-.662.934-1.098 1.65-1.116 5.351-.133 12.803-.593 13.237-.74.68-.228 2.217-1.468 2.607-1.63 0 0 1.279-.219 2.16-.72.442-.25 3.956-4.487 4.315-5.032.336-.51 1.958-4.679 1.958-4.679l-1.255 7.644-9.99 5.994-13.52.975-5.576 19.004.743 5.483-22.814-2.602z" style="display:inline;fill:#3a3737;fill-opacity:1;stroke:none;stroke-width:2.11667;stroke-linecap:round;stroke-linejoin:round;stroke-miterlimit:10.8;stroke-dasharray:none;stroke-opacity:1;paint-order:fill markers stroke"/><path d="M159.213 46.633h-41.87l2.945-10.993s-.762 3.584 3.735 3.717h43.392l-6.02 2.91-1.52 4.564z" style="display:inline;fill:#444141;fill-opacity:1;fill-rule:evenodd;stroke:#343232;stroke-width:1.05833;stroke-linecap:round;stroke-linejoin:round;stroke-miterlimit:29;stroke-dasharray:none;stroke-opacity:1;paint-order:normal"/><path d="M112.395 32.966h39.832l7.806 3.067 1.673 2.973-1.859.558-2.416-.465-33.082-.093s-5.111 1.301-3.346-3.066z" style="display:inline;fill:#3e3d3d;fill-opacity:1;fill-rule:evenodd;stroke:#343232;stroke-width:.79375;stroke-linecap:round;stroke-linejoin:round;stroke-miterlimit:29;stroke-opacity:1"/><path d="M119.516 27.112s-5.17-3.072-7.121 5.756h39.553s.186-7.708 6.784-5.478L161.52 22h-37.357s-3.346-.743-4.647 5.112" style="display:inline;fill:#3b3939;fill-opacity:1;fill-rule:evenodd;stroke:#343232;stroke-width:.79375;stroke-linecap:round;stroke-linejoin:round;stroke-miterlimit:29;stroke-opacity:1"/><path d="M128.623 32.78s-3.046-8.381 31.28-8.381l-1.17 2.991s-4.82-2.636-6.97 5.39z" style="display:inline;fill:#363434;fill-opacity:1;fill-rule:evenodd;stroke:#343232;stroke-width:.79375;stroke-linecap:round;stroke-linejoin:round;stroke-miterlimit:29;stroke-opacity:1"/><g transform="rotate(-45 31.385 16.362)"><circle cx="31.385" cy="16.362" r="1.589" style="fill:#404040;fill-opacity:1;fill-rule:evenodd;stroke:#343232;stroke-width:1.05833;stroke-linecap:square;stroke-miterlimit:29;stroke-dasharray:none;stroke-opacity:1;paint-order:normal"/><circle cx="31.385" cy="16.362" r="1.091" style="fill:#4f4b4b;fill-opacity:1;fill-rule:evenodd;stroke:none;stroke-width:.536374;stroke-linecap:square;stroke-miterlimit:29;stroke-dasharray:none;stroke-opacity:1"/><path d="M30.262 16.137h2.247v.449h-2.247z" style="fill:#393939;fill-opacity:1;fill-rule:evenodd;stroke:none;stroke-width:.536374;stroke-linecap:square;stroke-miterlimit:29;stroke-dasharray:none;stroke-opacity:1"/></g><g transform="rotate(-45 33.352 66.629)"><circle cx="56.622" cy="51.33" r="1.589" style="fill:#404040;fill-opacity:1;fill-rule:evenodd;stroke:#343232;stroke-width:1.05833;stroke-linecap:square;stroke-miterlimit:29;stroke-dasharray:none;stroke-opacity:1;paint-order:normal"/><circle cx="56.622" cy="51.33" r="1.091" style="fill:#4f4b4b;fill-opacity:1;fill-rule:evenodd;stroke:none;stroke-width:.536374;stroke-linecap:square;stroke-miterlimit:29;stroke-dasharray:none;stroke-opacity:1"/><path d="M55.499 51.106h2.247v.449h-2.247z" style="fill:#393939;fill-opacity:1;fill-rule:evenodd;stroke:none;stroke-width:.536374;stroke-linecap:square;stroke-miterlimit:29;stroke-dasharray:none;stroke-opacity:1"/></g><path d="m9.536 16.982.325 1.44c3.498-1.119 7.313-1.73 11.43-1.858l1.115-3.066c-5.267-.116-10.728-.485-12.87 3.484" style="display:inline;fill:#3a3737;fill-opacity:1;stroke:none;stroke-width:2.11667;stroke-linecap:round;stroke-linejoin:round;stroke-miterlimit:10.8;stroke-dasharray:none;stroke-opacity:1;paint-order:fill markers stroke"/><path d="M23.472 14.487s-2.778.366-1.964 3.402l7.128 26.604s1.67 5.1 5.252 3.032l-4.152 9.994s-.635.863-7.354 2.315c0 0-1.498.953-2.814-.09l-2.86.862s-1.066-.197-1.384-1.385c0 0-5.288-9.101-4.426-17.226 0 0-2.224-13.89-5.22-20.836l-.09-3.45 3.358-.771s-.5-2.996 6.99-3.813c0 0 2.815-.636 7.536 1.362" style="display:inline;fill:none;fill-opacity:1;fill-rule:evenodd;stroke:#333;stroke-width:1.05833;stroke-linecap:round;stroke-linejoin:round;stroke-miterlimit:29;stroke-dasharray:none;stroke-opacity:1;paint-order:normal"/><path d="M20.114 59.55s-5.983-7.575-5.341-17.718-5.714-24.715-5.714-24.715l-3.21.706-.32 3.145s5.585 14.316 5.52 24.266c0 0 .48 6.5 5.166 15.55 0 0 1.083.174 3.525-1.047zM19.241 23.623c-.221-.056-.424-.071-.679.88l-1.739 6.484c-.193.722-.016.803.214.864.276.074.453-.032.642-.736l1.748-6.524c.214-.798.036-.908-.186-.968" style="fill:#3c3a3a;fill-opacity:1;fill-rule:evenodd;stroke:#343232;stroke-width:1.05833;stroke-linecap:round;stroke-linejoin:round;stroke-miterlimit:29;stroke-dasharray:none;stroke-opacity:1;paint-order:normal"/><path d="m104.676 8.98 36.482-.093 1.59 1.87 8.7.936.172 1.59-36.748-.467-11.786-2.526z" style="display:inline;fill:#454242;fill-opacity:1;fill-rule:evenodd;stroke:none;stroke-width:1.05833;stroke-linecap:round;stroke-linejoin:round;stroke-miterlimit:29;stroke-dasharray:none;stroke-opacity:1;paint-order:normal"/><path d="M21.007 27.82c-.222-.057-.424-.072-.679.879l-1.74 6.484c-.192.722-.015.803.214.864.277.074.454-.032.642-.736-.225.847 1.6-5.974 1.748-6.524.214-.798.036-.908-.185-.967M24.538 36.212c-.221-.057-.424-.072-.679.88l-1.739 6.484c-.193.721-.015.802.214.864.276.074.453-.033.642-.737l1.748-6.524c.214-.798.036-.908-.186-.967M22.773 32.016c-.222-.057-.424-.072-.68.879l-1.738 6.484c-.194.722-.016.803.213.865.277.074.453-.033.642-.737l1.748-6.524c.214-.798.036-.908-.185-.967" style="fill:#3c3a3a;fill-opacity:1;fill-rule:evenodd;stroke:#343232;stroke-width:1.05833;stroke-linecap:round;stroke-linejoin:round;stroke-miterlimit:29;stroke-dasharray:none;stroke-opacity:1;paint-order:normal"/><path d="M26.551 13.216s-.938 15.697 4.207 15.697h71.055V12.58l2.46-4.262H85.381L72.423 11.79h-38.7l-4.947 1.326h-1.135z" style="display:inline;fill:none;fill-opacity:1;fill-rule:evenodd;stroke:#333;stroke-width:1.05833;stroke-linecap:round;stroke-linejoin:round;stroke-miterlimit:29;stroke-dasharray:none;stroke-opacity:1"/><g transform="rotate(-45 39.73 36.102)"><circle cx="56.622" cy="51.33" r="1.589" style="fill:#404040;fill-opacity:1;fill-rule:evenodd;stroke:#343232;stroke-width:1.05833;stroke-linecap:square;stroke-miterlimit:29;stroke-dasharray:none;stroke-opacity:1;paint-order:normal"/><circle cx="56.622" cy="51.33" r="1.091" style="fill:#4f4b4b;fill-opacity:1;fill-rule:evenodd;stroke:none;stroke-width:.536374;stroke-linecap:square;stroke-miterlimit:29;stroke-dasharray:none;stroke-opacity:1"/><path d="M55.499 51.106h2.247v.449h-2.247z" style="fill:#393939;fill-opacity:1;fill-rule:evenodd;stroke:none;stroke-width:.536374;stroke-linecap:square;stroke-miterlimit:29;stroke-dasharray:none;stroke-opacity:1"/></g><path d="M126.802 50.27h7.805s2.797-.422 2.116 2.117c-.68 2.54-7.606 25.334-7.606 25.334s.063 3.104-4.235 2.445-4.893-.46-4.893-.46-3.156.678-1.81-3.134 7.366-23.523 7.366-23.523.157-.874 1.257-2.778" style="fill:#454242;fill-opacity:1;fill-rule:evenodd;stroke:#343232;stroke-width:1.05833;stroke-linecap:round;stroke-linejoin:round;stroke-miterlimit:29;stroke-dasharray:none;stroke-opacity:1;paint-order:normal"/><g transform="rotate(-45 54.506 -6.795)"><circle cx="56.622" cy="51.33" r="1.589" style="fill:#404040;fill-opacity:1;fill-rule:evenodd;stroke:#343232;stroke-width:1.05833;stroke-linecap:square;stroke-miterlimit:29;stroke-dasharray:none;stroke-opacity:1;paint-order:normal"/><circle cx="56.622" cy="51.33" r="1.091" style="fill:#4f4b4b;fill-opacity:1;fill-rule:evenodd;stroke:none;stroke-width:.536374;stroke-linecap:square;stroke-miterlimit:29;stroke-dasharray:none;stroke-opacity:1"/><path d="M55.499 51.106h2.247v.449h-2.247z" style="fill:#393939;fill-opacity:1;fill-rule:evenodd;stroke:none;stroke-width:.536374;stroke-linecap:square;stroke-miterlimit:29;stroke-dasharray:none;stroke-opacity:1"/></g><g transform="rotate(-45 73.098 -4.707)"><circle cx="56.622" cy="51.33" r="1.589" style="fill:#404040;fill-opacity:1;fill-rule:evenodd;stroke:#343232;stroke-width:1.05833;stroke-linecap:square;stroke-miterlimit:29;stroke-dasharray:none;stroke-opacity:1;paint-order:normal"/><circle cx="56.622" cy="51.33" r="1.091" style="fill:#4f4b4b;fill-opacity:1;fill-rule:evenodd;stroke:none;stroke-width:.536374;stroke-linecap:square;stroke-miterlimit:29;stroke-dasharray:none;stroke-opacity:1"/><path d="M55.499 51.106h2.247v.449h-2.247z" style="fill:#393939;fill-opacity:1;fill-rule:evenodd;stroke:none;stroke-width:.536374;stroke-linecap:square;stroke-miterlimit:29;stroke-dasharray:none;stroke-opacity:1"/></g><g transform="rotate(-45 72.148 -26.803)"><circle cx="56.622" cy="51.33" r="1.589" style="fill:#404040;fill-opacity:1;fill-rule:evenodd;stroke:#343232;stroke-width:1.05833;stroke-linecap:square;stroke-miterlimit:29;stroke-dasharray:none;stroke-opacity:1;paint-order:normal"/><circle cx="56.622" cy="51.33" r="1.091" style="fill:#4f4b4b;fill-opacity:1;fill-rule:evenodd;stroke:none;stroke-width:.536374;stroke-linecap:square;stroke-miterlimit:29;stroke-dasharray:none;stroke-opacity:1"/><path d="M55.499 51.106h2.247v.449h-2.247z" style="fill:#393939;fill-opacity:1;fill-rule:evenodd;stroke:none;stroke-width:.536374;stroke-linecap:square;stroke-miterlimit:29;stroke-dasharray:none;stroke-opacity:1"/></g><g transform="rotate(-45 88.892 -31.092)"><circle cx="56.622" cy="51.33" r="1.589" style="fill:#404040;fill-opacity:1;fill-rule:evenodd;stroke:#343232;stroke-width:1.05833;stroke-linecap:square;stroke-miterlimit:29;stroke-dasharray:none;stroke-opacity:1;paint-order:normal"/><circle cx="56.622" cy="51.33" r="1.091" style="fill:#4f4b4b;fill-opacity:1;fill-rule:evenodd;stroke:none;stroke-width:.536374;stroke-linecap:square;stroke-miterlimit:29;stroke-dasharray:none;stroke-opacity:1"/><path d="M55.499 51.106h2.247v.449h-2.247z" style="fill:#393939;fill-opacity:1;fill-rule:evenodd;stroke:none;stroke-width:.536374;stroke-linecap:square;stroke-miterlimit:29;stroke-dasharray:none;stroke-opacity:1"/></g><g transform="rotate(-45 104.458 -38.863)"><circle cx="56.622" cy="51.33" r="1.589" style="fill:#404040;fill-opacity:1;fill-rule:evenodd;stroke:#343232;stroke-width:1.05833;stroke-linecap:square;stroke-miterlimit:29;stroke-dasharray:none;stroke-opacity:1;paint-order:normal"/><circle cx="56.622" cy="51.33" r="1.091" style="fill:#4f4b4b;fill-opacity:1;fill-rule:evenodd;stroke:none;stroke-width:.536374;stroke-linecap:square;stroke-miterlimit:29;stroke-dasharray:none;stroke-opacity:1"/><path d="M55.499 51.106h2.247v.449h-2.247z" style="fill:#393939;fill-opacity:1;fill-rule:evenodd;stroke:none;stroke-width:.536374;stroke-linecap:square;stroke-miterlimit:29;stroke-dasharray:none;stroke-opacity:1"/></g><g transform="rotate(-45 105.65 -15.545)"><circle cx="56.622" cy="51.33" r="1.589" style="fill:#404040;fill-opacity:1;fill-rule:evenodd;stroke:#343232;stroke-width:1.05833;stroke-linecap:square;stroke-miterlimit:29;stroke-dasharray:none;stroke-opacity:1;paint-order:normal"/><circle cx="56.622" cy="51.33" r="1.091" style="fill:#4f4b4b;fill-opacity:1;fill-rule:evenodd;stroke:none;stroke-width:.536374;stroke-linecap:square;stroke-miterlimit:29;stroke-dasharray:none;stroke-opacity:1"/><path d="M55.499 51.106h2.247v.449h-2.247z" style="fill:#393939;fill-opacity:1;fill-rule:evenodd;stroke:none;stroke-width:.536374;stroke-linecap:square;stroke-miterlimit:29;stroke-dasharray:none;stroke-opacity:1"/></g><g transform="rotate(-45 120.913 -3.61)"><circle cx="56.622" cy="51.33" r="1.589" style="fill:#404040;fill-opacity:1;fill-rule:evenodd;stroke:#343232;stroke-width:1.05833;stroke-linecap:square;stroke-miterlimit:29;stroke-dasharray:none;stroke-opacity:1;paint-order:normal"/><circle cx="56.622" cy="51.33" r="1.091" style="fill:#4f4b4b;fill-opacity:1;fill-rule:evenodd;stroke:none;stroke-width:.536374;stroke-linecap:square;stroke-miterlimit:29;stroke-dasharray:none;stroke-opacity:1"/><path d="M55.499 51.106h2.247v.449h-2.247z" style="fill:#393939;fill-opacity:1;fill-rule:evenodd;stroke:none;stroke-width:.536374;stroke-linecap:square;stroke-miterlimit:29;stroke-dasharray:none;stroke-opacity:1"/></g><g transform="rotate(-45 129.389 -19.556)"><circle cx="56.622" cy="51.33" r="1.589" style="fill:#404040;fill-opacity:1;fill-rule:evenodd;stroke:#343232;stroke-width:1.05833;stroke-linecap:square;stroke-miterlimit:29;stroke-dasharray:none;stroke-opacity:1;paint-order:normal"/><circle cx="56.622" cy="51.33" r="1.091" style="fill:#4f4b4b;fill-opacity:1;fill-rule:evenodd;stroke:none;stroke-width:.536374;stroke-linecap:square;stroke-miterlimit:29;stroke-dasharray:none;stroke-opacity:1"/><path d="M55.499 51.106h2.247v.449h-2.247z" style="fill:#393939;fill-opacity:1;fill-rule:evenodd;stroke:none;stroke-width:.536374;stroke-linecap:square;stroke-miterlimit:29;stroke-dasharray:none;stroke-opacity:1"/></g><path d="m101.823 28.671 9.588 4.911" style="fill:#424242;fill-opacity:1;fill-rule:evenodd;stroke:#343232;stroke-width:1.05833;stroke-linecap:round;stroke-linejoin:round;stroke-miterlimit:29;stroke-dasharray:none;stroke-opacity:1;paint-order:normal"/><path d="M272.9 10.741H141.817l2.57-2.936H272.9Z" style="fill:#424040;fill-opacity:1;fill-rule:evenodd;stroke:#343232;stroke-width:2.11667;stroke-linecap:round;stroke-linejoin:round;stroke-miterlimit:29;stroke-dasharray:none;stroke-opacity:1;paint-order:normal"/><path d="m97.974 44.722-16.948-6.419H60.1l-22.34 5.52s-2.11.287-3.403 3.403l-3.852 8.997s-.481 1.625-2.043 2.043l-5.974 1.6s-1.782 1.006-2.787 0l-2.27.715c-2.248.903-6.489-9.03-6.489-17.915 0 0-.41-8.957-5.312-21.577v-3.177l3.53-.946s-.151-1.91 2.664-2.664c2.864-.768 9.267-2.144 11.56.149l3.438-1.442h2.14l4.811-1.361h38.766l12.998-3.483 55.636.031 1.585 2.907h9.128v1.18h1.634l.544 1.359 23.242 2.182m0 0-1.141 4.26s-.46 2-7.467 2h-44.112s-3.148-.507-3.978 2.59l-1.042 2.68-1.634-.273c-3.642-.341-4.63 3.533-5.992 6.174l9.26 2.632-.454 1.362s-.742 1.83 3.17 1.83h33.87l17.886 1.075s-.59 1.324-2.292 1.324H160.86l.083-.648-1.472 7.67 3.474-5.899 1.104.73-2.36 7.808-4.812 5.902-2.542.544s-1.543 1.725-4.085 1.725-12.62.726-12.62.726-6.173 15.343-5.992 19.792c0 0 .454 1.816 1.18 2.633 0 0 1.09 2.814-1.906 2.814s-18.702-1.543-20.608-2.179c0 0-2.905-.181 1.997-5.265 0 0 4.358-16.614 7.172-22.606 0 0 1.271-4.993-4.993-4.993s-10.985.272-10.985.272-3.722.182-4.54-1.816c0 0-1.057-1.758-.982-3.966" style="display:inline;fill:none;fill-rule:evenodd;stroke:#343232;stroke-width:2.11667;stroke-linecap:round;stroke-linejoin:round;stroke-miterlimit:29;stroke-dasharray:none;stroke-opacity:1"/><g style="display:inline"><path d="m113.308 10.658 1.502 2.178h22.575l1.56-2.178h2.436l1.43 2.178h28.884l1.648-2.178h2.1l1.63 2.178-1.324 6.34-70.048-.126h-3.836v-6.5l1.083-1.892z" style="display:inline;fill:#3d3a3a;fill-opacity:1;fill-rule:evenodd;stroke:none;stroke-width:1.05833;stroke-linecap:round;stroke-linejoin:round;stroke-miterlimit:29;stroke-dasharray:none;stroke-opacity:1;paint-order:normal"/><path d="M109.662 13.225c0 4.861-.01 4.403 4.863 4.403h52.042c4.347 0 4.403.042 4.403-4.403z" style="display:inline;fill:#434141;fill-opacity:1;stroke:none;stroke-width:2.11667;stroke-linecap:round;stroke-linejoin:round;stroke-miterlimit:10.8;stroke-dasharray:none;stroke-opacity:1;paint-order:fill markers stroke"/><path d="M128.636 15.52c-.004-.204-.054-.382-1.364-.382l-8.933-.001c-.995 0-1.037.171-1.037.383 0 .255.197.382 1.167.382h8.988c1.1 0 1.18-.178 1.18-.382zM146.804 15.52c-.004-.204-.054-.382-1.364-.382l-8.933-.001c-.994 0-1.037.171-1.037.383 0 .255.197.382 1.167.382h8.988c1.1 0 1.18-.178 1.18-.382zM164.972 15.52c-.004-.204-.054-.382-1.364-.382l-8.933-.001c-.994 0-1.037.171-1.037.383 0 .255.197.382 1.167.382h8.988c1.1 0 1.18-.178 1.18-.382z" style="fill:#3c3a3a;fill-opacity:1;fill-rule:evenodd;stroke:#343232;stroke-width:1.15223;stroke-linecap:square;stroke-miterlimit:29;stroke-dasharray:none;stroke-opacity:1;paint-order:normal"/><path d="M101.711 13.324h75.501l-2.858-3.056-2.464 2.366-29.636-.197-2.135-2.004-2.464 2.135-23.525-.065-1.117-1.972-9.856.066z" style="display:inline;fill:#3a3737;fill-opacity:1;stroke:none;stroke-width:2.11667;stroke-linecap:round;stroke-linejoin:round;stroke-miterlimit:10.8;stroke-dasharray:none;stroke-opacity:1;paint-order:fill markers stroke"/><path d="m113.308 10.658 1.502 2.178h22.575l1.56-2.178h2.436l1.43 2.178h28.884l1.648-2.178h2.1l1.63 2.178-1.324 6.34-70.048-.126h-3.836v-6.5l1.083-1.892z" style="display:inline;fill:none;fill-opacity:1;fill-rule:evenodd;stroke:#343232;stroke-width:1.05833;stroke-linecap:round;stroke-linejoin:round;stroke-miterlimit:29;stroke-dasharray:none;stroke-opacity:1;paint-order:normal"/><circle cx="70.4" cy="88.017" r="1.091" style="display:inline;fill:#343232;fill-opacity:1;fill-rule:evenodd;stroke:none;stroke-width:.536374;stroke-linecap:square;stroke-miterlimit:29;stroke-dasharray:none;stroke-opacity:1" transform="rotate(-45)"/><circle cx="90.303" cy="107.919" r="1.091" style="fill:#343232;fill-opacity:1;fill-rule:evenodd;stroke:none;stroke-width:.536374;stroke-linecap:square;stroke-miterlimit:29;stroke-dasharray:none;stroke-opacity:1" transform="rotate(-45)"/><circle cx="114.475" cy="132.091" r="1.091" style="display:inline;fill:#343232;fill-opacity:1;fill-rule:evenodd;stroke:none;stroke-width:.536374;stroke-linecap:square;stroke-miterlimit:29;stroke-dasharray:none;stroke-opacity:1" transform="rotate(-45)"/></g><path d="M128.477 40.832a1.356 1.356 0 0 0-1.357 1.357 1.36 1.36 0 0 0 .867 1.26v3.073c0 .513.228.55.49.55.261-.002.489-.025.489-.636 0 0 0-1.736.002-2.986a1.36 1.36 0 0 0 .866-1.261 1.356 1.356 0 0 0-1.357-1.357z" style="fill:#3c3a3a;fill-opacity:1;fill-rule:evenodd;stroke:#343232;stroke-width:.89042;stroke-linecap:square;stroke-miterlimit:29;stroke-dasharray:none;stroke-opacity:1;paint-order:normal"/><path d="M113.97 49.742s11.537-.903 9.705 5.934l-6.795 21.582s-.317 2.076-2.771 1.6l-2.19-.938 7.342-22.622s1.654-5.556-5.292-5.556" style="fill:#383636;fill-opacity:1;fill-rule:evenodd;stroke:#343232;stroke-width:1.05833;stroke-linecap:round;stroke-linejoin:round;stroke-miterlimit:29;stroke-dasharray:none;stroke-opacity:1;paint-order:normal"/><path d="M131.478 52.97c-.08-.02-.153-.026-.245.317l-.628 2.34c-.07.261-.006.29.077.313.1.026.164-.012.232-.266-.081.305.578-2.156.63-2.355.078-.288.014-.327-.066-.349zM129.65 58.678c-.08-.02-.153-.025-.245.318l-.627 2.34c-.07.26-.006.29.077.312.1.027.163-.012.231-.266l.631-2.354c.077-.288.013-.328-.067-.35zM127.744 64.387c-.08-.02-.153-.026-.245.317l-.627 2.34c-.07.26-.006.29.077.312.1.027.163-.011.231-.266l.631-2.354c.077-.288.013-.328-.067-.35zM125.846 70.095c-.08-.02-.153-.026-.245.318l-.628 2.34c-.07.26-.006.29.077.312.1.026.164-.012.232-.266l.63-2.355c.078-.288.014-.327-.066-.349zM124.018 75.804c-.08-.02-.153-.026-.245.317l-.628 2.34c-.07.26-.006.29.077.312.1.027.164-.012.232-.266l.63-2.354c.078-.288.014-.328-.066-.35z" style="fill:#3c3a3a;fill-opacity:1;fill-rule:evenodd;stroke:#343232;stroke-width:1.05833;stroke-linecap:square;stroke-linejoin:round;stroke-miterlimit:29;stroke-dasharray:none;stroke-opacity:1;paint-order:normal" transform="translate(-.446 -.622)"/><path d="M131.478 52.97c-.08-.02-.153-.026-.245.317l-.628 2.34c-.07.261-.006.29.077.313.1.026.164-.012.232-.266-.081.305.578-2.156.63-2.355.078-.288.014-.327-.066-.349zM129.65 58.678c-.08-.02-.153-.025-.245.318l-.627 2.34c-.07.26-.006.29.077.312.1.027.163-.012.231-.266l.631-2.354c.077-.288.013-.328-.067-.35zM127.744 64.387c-.08-.02-.153-.026-.245.317l-.627 2.34c-.07.26-.006.29.077.312.1.027.163-.011.231-.266l.631-2.354c.077-.288.013-.328-.067-.35zM125.846 70.095c-.08-.02-.153-.026-.245.318l-.628 2.34c-.07.26-.006.29.077.312.1.026.164-.012.232-.266l.63-2.355c.078-.288.014-.327-.066-.349zM124.018 75.804c-.08-.02-.153-.026-.245.317l-.628 2.34c-.07.26-.006.29.077.312.1.027.164-.012.232-.266l.63-2.354c.078-.288.014-.328-.066-.35z" style="fill:#3c3a3a;fill-opacity:1;fill-rule:evenodd;stroke:#343232;stroke-width:1.05833;stroke-linecap:square;stroke-linejoin:round;stroke-miterlimit:29;stroke-dasharray:none;stroke-opacity:1;paint-order:normal" transform="translate(-3.456 -1.482)"/><path d="M131.478 52.97c-.08-.02-.153-.026-.245.317l-.628 2.34c-.07.261-.006.29.077.313.1.026.164-.012.232-.266-.081.305.578-2.156.63-2.355.078-.288.014-.327-.066-.349zM129.65 58.678c-.08-.02-.153-.025-.245.318l-.627 2.34c-.07.26-.006.29.077.312.1.027.163-.012.231-.266l.631-2.354c.077-.288.013-.328-.067-.35zM127.744 64.387c-.08-.02-.153-.026-.245.317l-.627 2.34c-.07.26-.006.29.077.312.1.027.163-.011.231-.266l.631-2.354c.077-.288.013-.328-.067-.35zM125.846 70.095c-.08-.02-.153-.026-.245.318l-.628 2.34c-.07.26-.006.29.077.312.1.026.164-.012.232-.266l.63-2.355c.078-.288.014-.327-.066-.349zM124.018 75.804c-.08-.02-.153-.026-.245.317l-.628 2.34c-.07.26-.006.29.077.312.1.027.164-.012.232-.266l.63-2.354c.078-.288.014-.328-.066-.35z" style="fill:#3c3a3a;fill-opacity:1;fill-rule:evenodd;stroke:#343232;stroke-width:1.05833;stroke-linecap:square;stroke-linejoin:round;stroke-miterlimit:29;stroke-dasharray:none;stroke-opacity:1;paint-order:normal" transform="translate(2.564 .238)"/><path d="M145.18 48.55s-4.676 3.788 0 8.372c0 0-.094 1.643-1.37.367l-1.342-1.162h-2.526s-.748-4.724.655-7.624z" style="fill:#3a3737;fill-opacity:1;fill-rule:evenodd;stroke:none;stroke-width:1.05833;stroke-linecap:round;stroke-linejoin:round;stroke-miterlimit:29;stroke-dasharray:none;stroke-opacity:1;paint-order:normal"/><path d="M145.18 48.55s-4.676 3.788 0 8.372c0 0 .033 1.501-1.37.367-2.806-2.27-2.353-6.157-.564-8.786z" style="display:inline;fill:#444141;fill-opacity:1;fill-rule:evenodd;stroke:none;stroke-width:1.05833;stroke-linecap:round;stroke-linejoin:round;stroke-miterlimit:29;stroke-dasharray:none;stroke-opacity:1;paint-order:normal"/><path d="M145.18 48.55s-4.676 3.788 0 8.372c0 0-.094 1.643-1.37.367l-1.342-1.162h-2.526s-.748-4.724.655-7.624z" style="display:inline;fill:none;fill-opacity:1;fill-rule:evenodd;stroke:#343232;stroke-width:1.05833;stroke-linecap:round;stroke-linejoin:round;stroke-miterlimit:29;stroke-dasharray:none;stroke-opacity:1;paint-order:normal"/><circle cx="82.085" cy="140.597" r="1.091" style="fill:#343232;fill-opacity:1;fill-rule:evenodd;stroke:none;stroke-width:.536374;stroke-linecap:square;stroke-miterlimit:29;stroke-dasharray:none;stroke-opacity:1" transform="rotate(-45)"/><g style="stroke-width:.970424"><path d="M272.401 28.158h1.521v6.266h-1.521z" style="fill:#817e7e;fill-opacity:1;fill-rule:evenodd;stroke:#343232;stroke-width:2.05407;stroke-linecap:round;stroke-linejoin:round;stroke-miterlimit:29;stroke-dasharray:none;stroke-opacity:1;paint-order:normal" transform="matrix(1.06188 0 0 1 -16.68 .187)"/></g><path d="M265.245 11.394v2.447h.175l-4.938 19.563v1.62h-4.762v2.613h16.404V36.38h-.992v-2.976h-1.39V13.84h.993v-2.447z" style="fill:#424040;fill-rule:evenodd;stroke:none;stroke-width:2.11667;stroke-linecap:round;stroke-linejoin:round;stroke-miterlimit:29;stroke-opacity:1"/><path d="M257.794 33.895h13.382v2.974h-13.382z" style="display:inline;fill:#3c3a3a;fill-opacity:1;stroke:none;stroke-width:2.11668;stroke-linecap:round;stroke-linejoin:round;stroke-miterlimit:10.8;stroke-dasharray:none;stroke-opacity:1;paint-order:fill markers stroke"/><path d="M262.347 15.774h7.713v5.018h-7.713z" style="display:inline;fill:#3c3a3a;fill-opacity:1;stroke:none;stroke-width:2.11667;stroke-linecap:round;stroke-linejoin:round;stroke-miterlimit:10.8;stroke-dasharray:none;stroke-opacity:1;paint-order:fill markers stroke"/><path d="M262.347 11.686h7.434v4.461h-7.434z" style="display:inline;fill:#393737;fill-opacity:1;stroke:none;stroke-width:2.11668;stroke-linecap:round;stroke-linejoin:round;stroke-miterlimit:10.8;stroke-dasharray:none;stroke-opacity:1;paint-order:fill markers stroke"/><path d="M265.245 11.394v2.447h.175l-4.938 19.563v1.62h-4.762v2.613h16.404V36.38h-.992v-2.976h-1.39V13.84h.993v-2.447z" style="display:inline;fill:none;fill-rule:evenodd;stroke:#343232;stroke-width:2.11667;stroke-linecap:round;stroke-linejoin:round;stroke-miterlimit:29;stroke-opacity:1"/><path d="M123.572 22.076h46.024s4.5.136 6.332-1.696l1.29-4.814h1.639l.585-2.183h1.005l1.313-1.313h1.868l1.448 1.449h15.015l1.521-1.521h2.502l.871 1.51h15.218l1.516-1.516h2.413l1.153 1.997h.905l.536.536-9.516 25.886s-.82 1.479-2.561 1.479-4.006-.715-4.006-2.313h-32.628s-.963 1.17-4.364 1.17c0 0-6.674-1.739-15.935-1.739h-34.612s-2.525.748-2.525-3.18l-8.42-2.807s1.404-7.858 7.11-5.613l1.684-3.648s.561-1.684 2.62-1.684" style="fill:#3d3a3a;fill-opacity:1;fill-rule:evenodd;stroke:none;stroke-width:2.11667;stroke-linecap:round;stroke-linejoin:round;stroke-miterlimit:29;stroke-dasharray:none;stroke-opacity:1;paint-order:normal" transform="translate(39.454)"/><path d="M179.699 21.421s.28 3.368-4.584 3.368H120.11l-.842 2.807s-2.993-1.684-5.425 1.216l-1.59 4.303 8.605 2.993.842 2.62 10.664.093 42.47.093 7.202-17.399zm-64.274 7.625 4.096.002c.601 0 .624.37.626.794 0 .424-.037.794-.54.794-.349 0-4.657.003-4.122 0-.445 0-.536-.264-.536-.794 0-.44.02-.796.476-.796m22.788 5.545 6.584.002c.966 0 1.002.2 1.005.431 0 .231-.058.433-.869.433h-6.624c-.715 0-.861-.144-.861-.433 0-.239.032-.433.765-.433m13.39 0 6.585.002c.966 0 1.003.2 1.006.431 0 .231-.059.433-.87.433H151.7c-.715 0-.86-.144-.86-.433 0-.239.03-.433.764-.433m13.392 0 6.585.002c.965 0 1.002.2 1.005.431 0 .231-.06.433-.87.433h-6.624c-.715 0-.86-.144-.86-.433 0-.239.031-.433.764-.433" style="fill:#454242;fill-opacity:1;fill-rule:evenodd;stroke:none;stroke-width:1.05833;stroke-linecap:round;stroke-linejoin:round;stroke-miterlimit:29;stroke-dasharray:none;stroke-opacity:1;paint-order:normal" transform="translate(39.454)"/><path d="M160.265 37.241h54.456v1.44h-54.456z" style="display:inline;fill:#3c3939;fill-opacity:1;stroke:none;stroke-width:2.11667;stroke-linecap:round;stroke-linejoin:round;stroke-miterlimit:10.8;stroke-dasharray:none;stroke-opacity:1;paint-order:fill markers stroke"/><path d="M179.699 21.421s.28 3.368-4.584 3.368H120.11l-.842 2.807s-2.993-1.684-5.425 1.216l-1.59 4.303 8.605 2.993.842 2.62 10.664.093 42.47.093 7.202-17.399zm-64.274 7.625 4.096.002c.601 0 .624.37.626.794 0 .424-.037.794-.54.794-.349 0-4.657.003-4.122 0-.445 0-.536-.264-.536-.794 0-.44.02-.796.476-.796m22.788 5.545 6.584.002c.966 0 1.002.2 1.005.431 0 .231-.058.433-.869.433h-6.624c-.715 0-.861-.144-.861-.433 0-.239.032-.433.765-.433m13.39 0 6.585.002c.966 0 1.003.2 1.006.431 0 .231-.059.433-.87.433H151.7c-.715 0-.86-.144-.86-.433 0-.239.03-.433.764-.433m13.392 0 6.585.002c.965 0 1.002.2 1.005.431 0 .231-.06.433-.87.433h-6.624c-.715 0-.86-.144-.86-.433 0-.239.031-.433.764-.433" style="display:inline;fill:none;fill-opacity:1;fill-rule:evenodd;stroke:#343232;stroke-width:1.05833;stroke-linecap:round;stroke-linejoin:round;stroke-miterlimit:29;stroke-dasharray:none;stroke-opacity:1;paint-order:normal" transform="translate(39.454)"/><circle cx="87.183" cy="123.478" r="1.455" style="fill:#343232;fill-opacity:1;fill-rule:evenodd;stroke:none;stroke-width:.715179;stroke-linecap:square;stroke-miterlimit:29;stroke-dasharray:none;stroke-opacity:1" transform="rotate(-45 19.727 -47.625)"/><path d="M128.109 24.275h1.684l-2.386 6.735h-1.683zM131.471 24.275h1.684l-2.385 6.735h-1.684zM134.833 24.275h1.684l-2.385 6.735h-1.684zM144.75 24.275h1.683l-1.59 5.238h-1.684zM141.434 24.275h1.683l-1.59 5.238h-1.684zM138.118 24.275h1.684l-1.59 5.238h-1.684z" style="fill:#343232;fill-opacity:1;fill-rule:evenodd;stroke:#343232;stroke-width:1.05833;stroke-linecap:round;stroke-linejoin:round;stroke-miterlimit:29" transform="translate(39.454)"/><g transform="rotate(-45 94.846 -90.872)"><circle cx="56.622" cy="51.33" r="1.589" style="fill:#404040;fill-opacity:1;fill-rule:evenodd;stroke:#343232;stroke-width:1.05833;stroke-linecap:square;stroke-miterlimit:29;stroke-dasharray:none;stroke-opacity:1;paint-order:normal"/><circle cx="56.622" cy="51.33" r="1.091" style="fill:#4f4b4b;fill-opacity:1;fill-rule:evenodd;stroke:none;stroke-width:.536374;stroke-linecap:square;stroke-miterlimit:29;stroke-dasharray:none;stroke-opacity:1"/><path d="M55.499 51.106h2.247v.449h-2.247z" style="fill:#393939;fill-opacity:1;fill-rule:evenodd;stroke:none;stroke-width:.536374;stroke-linecap:square;stroke-miterlimit:29;stroke-dasharray:none;stroke-opacity:1"/></g><g transform="rotate(-45 92.068 -84.165)"><circle cx="56.622" cy="51.33" r="1.589" style="fill:#404040;fill-opacity:1;fill-rule:evenodd;stroke:#343232;stroke-width:1.05833;stroke-linecap:square;stroke-miterlimit:29;stroke-dasharray:none;stroke-opacity:1;paint-order:normal"/><circle cx="56.622" cy="51.33" r="1.091" style="fill:#4f4b4b;fill-opacity:1;fill-rule:evenodd;stroke:none;stroke-width:.536374;stroke-linecap:square;stroke-miterlimit:29;stroke-dasharray:none;stroke-opacity:1"/><path d="M55.499 51.106h2.247v.449h-2.247z" style="fill:#393939;fill-opacity:1;fill-rule:evenodd;stroke:none;stroke-width:.536374;stroke-linecap:square;stroke-miterlimit:29;stroke-dasharray:none;stroke-opacity:1"/></g><path d="m185.592 18.522-7.577 21.515 32.46-.561 1.122 2.058 2.526.28 8.513-23.292zm2.305 5.121 6.15.002c.903 0 .937.206.94.442 0 .237-.055.444-.812.444-.522 0-6.991.002-6.188 0-.668 0-.804-.148-.804-.444 0-.245.03-.444.714-.444m11.386 0 6.15.002c.902 0 .936.206.94.442 0 .237-.056.444-.812.444-.523 0-6.991.002-6.188 0-.668 0-.804-.148-.804-.444 0-.245.03-.444.714-.444m11.386 0 6.15.002c.902 0 .936.206.94.442 0 .237-.056.444-.813.444-.522 0-6.99.002-6.187 0-.668 0-.804-.148-.804-.444 0-.245.03-.444.714-.444" style="display:inline;fill:#444141;fill-opacity:1;fill-rule:evenodd;stroke:none;stroke-width:1.05833;stroke-linecap:round;stroke-linejoin:round;stroke-miterlimit:29;stroke-dasharray:none;stroke-opacity:1;paint-order:normal" transform="translate(39.454)"/><path d="M218.02 37.241h36.985v3.531H218.02z" style="display:inline;fill:#3c3939;fill-opacity:1;stroke:none;stroke-width:2.11667;stroke-linecap:round;stroke-linejoin:round;stroke-miterlimit:10.8;stroke-dasharray:none;stroke-opacity:1;paint-order:fill markers stroke"/><path d="m185.592 18.522-7.577 21.515 32.46-.561 1.122 2.058 2.526.28 8.513-23.292zm2.305 5.121 6.15.002c.903 0 .937.206.94.442 0 .237-.055.444-.812.444-.522 0-6.991.002-6.188 0-.668 0-.804-.148-.804-.444 0-.245.03-.444.714-.444m11.386 0 6.15.002c.902 0 .936.206.94.442 0 .237-.056.444-.812.444-.523 0-6.991.002-6.188 0-.668 0-.804-.148-.804-.444 0-.245.03-.444.714-.444m11.386 0 6.15.002c.902 0 .936.206.94.442 0 .237-.056.444-.813.444-.522 0-6.99.002-6.187 0-.668 0-.804-.148-.804-.444 0-.245.03-.444.714-.444" style="display:inline;fill:none;fill-opacity:1;fill-rule:evenodd;stroke:#343232;stroke-width:1.05833;stroke-linecap:round;stroke-linejoin:round;stroke-miterlimit:29;stroke-dasharray:none;stroke-opacity:1;paint-order:normal" transform="translate(39.454)"/><path d="M221.632 12.043s5.482 2.193 11.335 2.163c3.07-.016 9.031-1.821 9.031-1.821s7.117 1.619 11.57 1.619c4.55 0 6.789-.748 10.743-2.356l1.314 5.503h-49.15z" style="display:inline;fill:#464444;stroke-width:2.11667;stroke-linecap:round;stroke-linejoin:round;stroke-miterlimit:10.8;paint-order:fill markers stroke"/><path d="m221.394 11.998-1.19 2.032h-15.219l-1.104-2.032h-2.176l-1.289 2.032h-15.34l-1.17-2.032h-2.332l-1.127 2.032h-1.005l-.585 1.535h-1.639l-1.29 4.815c-1.832 1.832-6.332 1.697-6.332 1.697h-46.024c-2.058 0-2.62 1.683-2.62 1.683l-1.683 3.649c-5.706-2.245-7.11 5.612-7.11 5.612l8.42 2.806c0 3.035 2.525 3.181 2.525 3.181h34.612c9.26 0 14.48 1.738 14.48 1.738 5.782 0 6.282-1.17 6.282-1.17h32.165c0 1.599 2.264 2.314 4.006 2.314s2.561-1.479 2.561-1.479l9.516-25.886-.536-.536h-1.137l-1.153-1.991zm-33.497 11.645 6.15.002c.903 0 .937.206.94.442 0 .237-.055.444-.812.444-.522 0-6.991.002-6.188 0-.668 0-.804-.148-.804-.444 0-.245.03-.444.714-.444m11.386 0 6.15.002c.902 0 .936.206.94.442 0 .237-.056.444-.812.444-.523 0-6.991.002-6.188 0-.668 0-.804-.148-.804-.444 0-.245.03-.444.714-.444m11.386 0 6.15.002c.902 0 .936.206.94.442 0 .237-.056.444-.813.444-.522 0-6.99.002-6.187 0-.668 0-.804-.148-.804-.444 0-.245.03-.444.714-.444" style="display:inline;fill:none;fill-opacity:1;fill-rule:evenodd;stroke:#343232;stroke-width:2.11667;stroke-linecap:round;stroke-linejoin:round;stroke-miterlimit:29;stroke-dasharray:none;stroke-opacity:1;paint-order:normal" transform="translate(39.454)"/><path d="M179.886 40.318h30.589v1.31l-3.185 1.838v-.436h-.744v1.59s-.617.595-1.387.802c-1.21.747-4.113 3.797-2.638 9.301 0 0-4.581 3.087-3.272 9.823 0 0-3.928 3.554-3.087 9.822 0 0-2.993 2.525-2.619 6.174 0 0 3.648 3.274-.187 3.741 0 0-8.045-.374-16.557-2.151 0 0-1.59-1.31.842-2.806 0 0 1.122-.562 1.496-3.18 0 0 4.303-15.342 9.729-25.913 0 0 .748-3.554-2.432-5.332 0 0-.468-.28-.374-2.058l-1.31-.467v-.749l-1.403.094v1.029s-.748.187-2.339-1.216z" style="display:inline;fill:#413e3e;fill-opacity:1;fill-rule:evenodd;stroke:none;stroke-width:2.11667;stroke-linecap:round;stroke-linejoin:round;stroke-miterlimit:29;stroke-dasharray:none;stroke-opacity:1;paint-order:normal" transform="translate(39.454)"/><path d="M230.002 50.23c-.62 1.811-6.361 14.34-10.221 28.604-.242.895-.604.563-.834 1.473-.195.77 4.58 1.381 5.575 1.518 5.067.7 8.846.875 8.158-.257l1.603 2.416-18.153-2.22 12.603-34.828c.62.462 1.826 1.672 1.27 3.294" style="display:inline;fill:#3a3737;fill-opacity:1;stroke:none;stroke-width:2.11667;stroke-linecap:round;stroke-linejoin:round;stroke-miterlimit:10.8;stroke-dasharray:none;stroke-opacity:1;paint-order:fill markers stroke"/><path d="M179.886 40.318h30.589v1.31l-3.185 1.838v-.436h-.744v1.59s-.617.595-1.387.802c-1.21.747-4.113 3.797-2.638 9.301 0 0-4.581 3.087-3.272 9.823 0 0-3.928 3.554-3.087 9.822 0 0-2.993 2.525-2.619 6.174 0 0 3.648 3.274-.187 3.741 0 0-8.045-.374-16.557-2.151 0 0-1.59-1.31.842-2.806 0 0 1.122-.562 1.496-3.18 0 0 4.303-15.342 9.729-25.913 0 0 .748-3.554-2.432-5.332 0 0-.468-.28-.374-2.058l-1.31-.467v-.749l-1.403.094v1.029s-.748.187-2.339-1.216z" style="display:inline;fill:none;fill-opacity:1;fill-rule:evenodd;stroke:#343232;stroke-width:2.11667;stroke-linecap:round;stroke-linejoin:round;stroke-miterlimit:29;stroke-dasharray:none;stroke-opacity:1;paint-order:normal" transform="translate(39.454)"/><path d="M201.877 49.212h-4.498s-3.026.303-4.72 5.543l-7.252 22.503s-1.621 3.695 2.133 3.695h6.135s-1.257-1.446 2.381-6.671c0 0-.794-5.358 3.241-9.79 0 0-1.786-5.82 3.308-9.856 0 0-.86-1.058-.728-5.424" style="display:inline;fill:#4c4848;fill-opacity:1;fill-rule:evenodd;stroke:none;stroke-width:1.05833;stroke-linecap:round;stroke-linejoin:round;stroke-miterlimit:29;stroke-dasharray:none;stroke-opacity:1;paint-order:normal" transform="translate(39.454)"/><path d="M201.668 49.166c-1.16 1.488-1.243 3.538.141 5.357-3.532 1.438-5.09 5.19-3.185 9.797-3.135 1.307-4.842 5.911-3.19 9.838-2.951 1.164-3.955 5.783-2.315 6.67l.556.125s-1.257-1.446 2.381-6.671c0 0-.794-5.358 3.241-9.79 0 0-1.786-5.82 3.308-9.856z" style="display:inline;fill:#444040;fill-opacity:1;fill-rule:evenodd;stroke:none;stroke-width:1.05833;stroke-linecap:round;stroke-linejoin:round;stroke-miterlimit:29;stroke-dasharray:none;stroke-opacity:1;paint-order:normal" transform="translate(39.454)"/><path d="M201.877 49.212h-4.498s-3.026.303-4.72 5.543l-7.252 22.503s-1.621 3.695 2.133 3.695h6.135s-1.257-1.446 2.381-6.671c0 0-.794-5.358 3.241-9.79 0 0-1.786-5.82 3.308-9.856 0 0-.86-1.058-.728-5.424" style="display:inline;fill:none;fill-opacity:1;fill-rule:evenodd;stroke:#343232;stroke-width:1.05833;stroke-linecap:round;stroke-linejoin:round;stroke-miterlimit:29;stroke-dasharray:none;stroke-opacity:1;paint-order:normal" transform="translate(39.454)"/><path d="M186.994 44.45s11.113 3.836 19.381 0v-3.638H187.06z" style="display:inline;fill:#454242;fill-opacity:1;fill-rule:evenodd;stroke:#343232;stroke-width:1.05833;stroke-linecap:round;stroke-linejoin:round;stroke-miterlimit:29;stroke-dasharray:none;stroke-opacity:1;paint-order:normal" transform="translate(39.454)"/><circle cx="146.673" cy="167.575" r="1.091" style="display:inline;fill:#343232;fill-opacity:1;fill-rule:evenodd;stroke:none;stroke-width:.536374;stroke-linecap:square;stroke-miterlimit:29;stroke-dasharray:none;stroke-opacity:1" transform="rotate(-45)"/><circle cx="160.798" cy="181.7" r="1.091" style="display:inline;fill:#343232;fill-opacity:1;fill-rule:evenodd;stroke:none;stroke-width:.536374;stroke-linecap:square;stroke-miterlimit:29;stroke-dasharray:none;stroke-opacity:1" transform="rotate(-45)"/><circle cx="174.923" cy="195.825" r="1.091" style="display:inline;fill:#343232;fill-opacity:1;fill-rule:evenodd;stroke:none;stroke-width:.536374;stroke-linecap:square;stroke-miterlimit:29;stroke-dasharray:none;stroke-opacity:1" transform="rotate(-45)"/><circle cx="195.924" cy="43.524" r="1.72" style="fill:#343232;fill-opacity:1;fill-rule:evenodd;stroke:none;stroke-width:1.05833;stroke-linecap:round;stroke-linejoin:round;stroke-miterlimit:29;stroke-dasharray:none;stroke-opacity:1;paint-order:normal" transform="translate(39.454)"/><circle cx="199.893" cy="43.524" r="1.72" style="fill:#343232;fill-opacity:1;fill-rule:evenodd;stroke:none;stroke-width:1.05833;stroke-linecap:round;stroke-linejoin:round;stroke-miterlimit:29;stroke-dasharray:none;stroke-opacity:1;paint-order:normal" transform="translate(39.454)"/><circle cx="101.378" cy="153.747" r="1.146" style="fill:#343232;fill-opacity:1;fill-rule:evenodd;stroke:none;stroke-width:.563144;stroke-linecap:square;stroke-miterlimit:29;stroke-dasharray:none;stroke-opacity:1" transform="rotate(-45 19.727 -47.625)"/><circle cx="113.29" cy="165.659" r="1.146" style="fill:#343232;fill-opacity:1;fill-rule:evenodd;stroke:none;stroke-width:.563144;stroke-linecap:square;stroke-miterlimit:29;stroke-dasharray:none;stroke-opacity:1" transform="rotate(-45 19.727 -47.625)"/><circle cx="124.968" cy="177.337" r="1.146" style="fill:#343232;fill-opacity:1;fill-rule:evenodd;stroke:none;stroke-width:.563144;stroke-linecap:square;stroke-miterlimit:29;stroke-dasharray:none;stroke-opacity:1" transform="rotate(-45 19.727 -47.625)"/><path d="M144.759 6.25h1.523v1.523h-1.523zM270.934 6.25h1.523v1.523h-1.523zM260.419 6.25h1.523v1.523h-1.523zM249.905 6.25h1.523v1.523h-1.523zM239.39 6.25h1.523v1.523h-1.523zM223.618 6.25h1.523v1.523h-1.523zM213.104 6.25h1.523v1.523h-1.523zM197.332 6.25h1.523v1.523h-1.523zM181.56 6.25h1.523v1.523h-1.523zM171.046 6.25h1.523v1.523h-1.523zM160.531 6.25h1.523v1.523h-1.523zM150.016 6.25h1.523v1.523h-1.523zM155.274 6.25h1.523v1.523h-1.523zM165.788 6.25h1.523v1.523h-1.523zM176.303 6.25h1.523v1.523h-1.523zM186.817 6.25h1.523v1.523h-1.523zM202.589 6.25h1.523v1.523h-1.523zM228.875 6.25h1.523v1.523h-1.523zM255.162 6.25h1.523v1.523h-1.523zM192.075 6.25h1.523v1.523h-1.523zM207.846 6.25h1.523v1.523h-1.523zM218.361 6.25h1.523v1.523h-1.523zM234.133 6.25h1.523v1.523h-1.523zM244.647 6.25h1.523v1.523h-1.523zM265.676 6.25h1.523v1.523h-1.523z" style="fill:#4e4b4b;fill-opacity:1;fill-rule:evenodd;stroke:#343232;stroke-width:1.91619;stroke-linecap:round;stroke-linejoin:round;stroke-miterlimit:29;stroke-dasharray:none;stroke-opacity:1;paint-order:normal"/><g transform="translate(73.563 50.35)scale(.8355)"><path d="M121.741-76.082h-15.649l-1.88 8.34s-.516 2.133-2.82 4.492c-.152.225-.458 2.754-.88 4.212 0 0-1.028 3.688 2.125 3.688h8.368s1.816-.02 2.51.623c.951.88 1.312 1.052 1.312 1.052s.213.391 1.577.391 8.946-.054 8.946-.054 1.699-.225 1.547-1.713c-.151-1.488-.121-4.296-.121-4.296l-1.122-6.43s-.637-1.488-2.578-2.78c0 0-2.851-3.117-1.244-6.74 0 0 .273-.505-.09-.785z" style="fill:#424040;fill-opacity:1;stroke:#343232;stroke-width:2.5334;stroke-linecap:square;stroke-linejoin:round;stroke-miterlimit:29;stroke-dasharray:none;stroke-opacity:1"/><path d="M106.276-75.419h14.793v3.559h-14.793z" style="display:inline;fill:#4b4949;fill-opacity:1;stroke:none;stroke-width:2.5334;stroke-linecap:round;stroke-linejoin:round;stroke-miterlimit:10.8;stroke-dasharray:none;stroke-opacity:1;paint-order:fill markers stroke"/><path d="M121.741-76.082h-15.649l-1.88 8.34s-.516 2.133-2.82 4.492c-.152.225-.458 2.754-.88 4.212 0 0-1.028 3.688 2.125 3.688h8.368s1.816-.02 2.51.623c.951.88 1.312 1.052 1.312 1.052s.213.391 1.577.391 8.946-.054 8.946-.054 1.699-.225 1.547-1.713c-.151-1.488-.121-4.296-.121-4.296l-1.122-6.43s-.637-1.488-2.578-2.78c0 0-2.851-3.117-1.244-6.74 0 0 .273-.505-.09-.785z" style="display:inline;fill:none;fill-opacity:1;stroke:#343232;stroke-width:2.5334;stroke-linecap:square;stroke-linejoin:round;stroke-miterlimit:29;stroke-dasharray:none;stroke-opacity:1"/><ellipse cx="-124.486" cy="-55.542" rx="1.441" ry="1.334" style="fill:#666;fill-opacity:1;stroke:#343232;stroke-width:1.4419;stroke-linecap:square;stroke-linejoin:round;stroke-miterlimit:29;stroke-dasharray:none;stroke-opacity:1" transform="scale(-1 1)"/><ellipse cx="-117.723" cy="-63.011" rx="3.934" ry="3.642" style="fill:#4e4c4c;fill-opacity:1;stroke:#343232;stroke-width:1.4419;stroke-linecap:square;stroke-linejoin:round;stroke-miterlimit:29;stroke-dasharray:none;stroke-opacity:1" transform="scale(-1 1)"/><ellipse cx="-117.732" cy="-63.015" rx="1.552" ry="1.437" style="fill:#343232;fill-opacity:1;stroke:#343232;stroke-width:1.4419;stroke-linecap:square;stroke-linejoin:round;stroke-miterlimit:29;stroke-dasharray:none;stroke-opacity:1" transform="scale(-1 1)"/><path d="m118.633-62.555-1.371-1.312s-.315.154-.43.38l1.367 1.324s.33-.172.434-.392" style="fill:#272727;fill-opacity:1;stroke:none;stroke-width:.340427;stroke-linecap:square;stroke-linejoin:round;stroke-miterlimit:29;stroke-opacity:1"/><ellipse cx="-106.338" cy="-60.569" rx="3.934" ry="3.642" style="fill:#4e4c4c;fill-opacity:1;stroke:#343232;stroke-width:1.4419;stroke-linecap:square;stroke-linejoin:round;stroke-miterlimit:29;stroke-dasharray:none;stroke-opacity:1" transform="scale(-1 1)"/><ellipse cx="-106.338" cy="-60.569" rx="1.552" ry="1.437" style="fill:#343232;fill-opacity:1;stroke:#343232;stroke-width:1.4419;stroke-linecap:square;stroke-linejoin:round;stroke-miterlimit:29;stroke-dasharray:none;stroke-opacity:1" transform="scale(-1 1)"/><path d="m105.833-59.727 1.436-1.26s-.17-.305-.403-.395l-1.456 1.253s.184.306.423.402" style="fill:#272727;fill-opacity:1;stroke:none;stroke-width:.340377;stroke-linecap:square;stroke-linejoin:round;stroke-miterlimit:29;stroke-opacity:1"/><path d="m387.084 443.961-11.657 3.124-8.534-8.534 3.124-11.657 11.657-3.124 8.533 8.534z" style="fill:#4d4d4d;fill-opacity:1;stroke:none;stroke-width:6;stroke-linecap:square;stroke-linejoin:round;stroke-miterlimit:29;stroke-opacity:1" transform="matrix(-.07117 .0173 .01868 .0659 143.292 -90.783)"/><path d="m125.411-53.366.03 1.937s.043.534-1.01.54l-7.195.043s-.171-.22-.171-.54v-1.418s-.03-.467.564-.467 7.782-.095 7.782-.095z" style="fill:#424040;fill-opacity:1;stroke:#343232;stroke-width:2.5334;stroke-linecap:square;stroke-linejoin:round;stroke-miterlimit:29;stroke-dasharray:none;stroke-opacity:1"/><path d="M117.01-51.035s-6.763.365-17.408 0c0 0-.303-.113-.212-1.6l.182-3.005.99-.854s.414 1.127 1.926 1.127h8.487s1.887-.044 2.642.655l.952.882s.288.604 1.774.548h1.183s-.437.166-.53.492z" style="fill:#424040;fill-opacity:1;stroke:#343232;stroke-width:2.5334;stroke-linecap:square;stroke-linejoin:round;stroke-miterlimit:29;stroke-dasharray:none;stroke-opacity:1"/><path d="M103.179-65.553s-2.275.534-6.855.618c0 0 3.428.365 4.61 3.875-.016-2.084 1.075-2.906 2.245-4.493z" style="fill:#3f3f3f;fill-opacity:1;stroke:#343232;stroke-width:2.5334;stroke-linecap:square;stroke-linejoin:round;stroke-miterlimit:29;stroke-dasharray:none;stroke-opacity:1"/><ellipse cx="-95.361" cy="-60.109" rx="4.948" ry="4.705" style="fill:#262626;fill-opacity:1;stroke:#343232;stroke-width:2.5334;stroke-linecap:square;stroke-linejoin:round;stroke-miterlimit:29;stroke-dasharray:none;stroke-opacity:1" transform="scale(-1 1)"/><ellipse cx="-95.447" cy="-60.077" rx="3.533" ry="3.271" style="fill:#423f3f;fill-opacity:1;stroke:#343232;stroke-width:1.00288;stroke-linecap:square;stroke-linejoin:round;stroke-miterlimit:29;stroke-dasharray:none;stroke-opacity:1" transform="scale(-1 1)"/><path d="m97.92-58.437-3.928-4.097s-.67.356-.926.764l3.905 4.086s.506-.173.95-.753" style="fill:#343232;fill-opacity:1;stroke:none;stroke-width:.381079;stroke-linecap:square;stroke-linejoin:round;stroke-miterlimit:29;stroke-opacity:1"/><path d="m97.191-61.947-.379.386-.397-.372-.349.327.408.4-.4.366.375.373.379-.376.332.354.399-.356-.372-.364.4-.387z" style="fill:#343232;fill-opacity:1;stroke:none;stroke-width:.702852;stroke-linecap:square;stroke-linejoin:round;stroke-miterlimit:29;stroke-dasharray:none;stroke-opacity:1"/></g><path d="M129.027 36.03c-.002-.196-.021-.366-.555-.366l-3.634-.002c-.405 0-.422.165-.422.367 0 .245.08.367.475.367h3.657c.447 0 .48-.171.48-.367zM138.481 36.03c-.002-.196-.022-.366-.555-.366l-3.635-.002c-.404 0-.422.165-.422.367 0 .245.08.367.475.367h3.657c.447 0 .48-.171.48-.367zM148.27 36.03c-.001-.196-.021-.366-.554-.366l-3.635-.002c-.405 0-.422.165-.422.367 0 .245.08.367.475.367h3.657c.447 0 .48-.171.48-.367z" style="display:inline;fill:#3c3a3a;fill-opacity:1;fill-rule:evenodd;stroke:#343232;stroke-width:.719489;stroke-linecap:square;stroke-miterlimit:29;stroke-dasharray:none;stroke-opacity:1;paint-order:normal" transform="translate(1.301 -.372)"/><circle cx="61.712" cy="104.242" r="1.091" style="display:inline;fill:#343232;fill-opacity:1;fill-rule:evenodd;stroke:none;stroke-width:.536374;stroke-linecap:square;stroke-miterlimit:29;stroke-dasharray:none;stroke-opacity:1" transform="rotate(-45)"/><circle cx="69.785" cy="105.087" r="1.091" style="display:inline;fill:#343232;fill-opacity:1;fill-rule:evenodd;stroke:none;stroke-width:.536374;stroke-linecap:square;stroke-miterlimit:29;stroke-dasharray:none;stroke-opacity:1" transform="rotate(-45)"/></g></svg>