<?xml version="1.0" encoding="UTF-8" standalone="no"?>
<svg
   width="114.52558"
   height="87.717987"
   viewBox="0 0 114.52558 87.717987"
   fill="none"
   version="1.1"
   id="svg146"
   xmlns="http://www.w3.org/2000/svg"
   xmlns:svg="http://www.w3.org/2000/svg">
  <defs
     id="defs146">
    <clipPath
       id="clip0_3677_1236">
      <rect
         width="110"
         height="110"
         fill="#ffffff"
         id="rect146"
         x="0"
         y="0" />
    </clipPath>
    <clipPath
       id="clip0_3608_4683">
      <rect
         width="110"
         height="110"
         fill="#ffffff"
         id="rect73"
         x="0"
         y="0" />
    </clipPath>
    <clipPath
       id="clip0_3608_4683-4">
      <rect
         width="110"
         height="110"
         fill="#ffffff"
         id="rect73-7"
         x="0"
         y="0" />
    </clipPath>
    <clipPath
       id="clipPath1">
      <rect
         width="110"
         height="110"
         fill="#ffffff"
         id="rect1"
         x="0"
         y="0" />
    </clipPath>
  </defs>
  <g
     clip-path="url(#clip0_3608_4683-4)"
     id="g73"
     transform="matrix(0.84422286,0.22620883,-0.22620883,0.84422286,13.791555,-19.017778)">
    <path
       d="m 56.9349,62.7223 -0.0029,0.0019 -5.9199,3.4179 c 2.0836,-0.7783 3.6525,-0.0501 3.8812,1.2125 l 1.2805,7.3581 c 0.1843,1.322 0.0776,2.4696 -1.1026,3.3586 l -7.418,4.3056 c -0.3881,0.2121 -0.6759,0.2445 -1.1165,0.2338 l -4.9105,0.0132 C 40.4833,82.507 39.3788,81.8997 38.7448,80.5475 l 0.6282,7.313 c 0.4515,-2.1107 1.9782,-3.5732 3.1422,-3.5045 l 4.1818,0.0016 c 0.4406,0.0108 0.7284,-0.0216 1.1165,-0.2337 l 7.7108,-4.4518 c 1.72,-0.9795 2.8129,-2.6578 2.5196,-4.4283 l -1.3147,-7.3383 c -0.4372,-1.7814 -0.3394,-4.2628 1.2211,-5.8268 -0.3002,0.2107 -0.6395,0.4263 -1.0154,0.6436 z"
       fill="#393946"
       stroke="#2e2e38"
       stroke-width="1.37824"
       stroke-miterlimit="3.99393"
       id="path1-3" />
    <path
       d="m 67.6803,21.6372 3e-4,5e-4 2.0729,3.5903 -2.1485,1.2404 0.3171,0.5492 24.307,-14.0336 C 91.6729,11.4301 91.0104,9.93754 89.7933,8.76516 87.011,10.394 87.3824,11.024 84.62,12.6811 l -2.5295,1.4604 c -2.6046,1.4801 -4.1439,1.6071 -6.3526,2.8437 z"
       fill="#404040"
       id="path2-6" />
    <path
       d="m 77.4588,16.161 c -0.5445,0.2242 -1.1036,0.4811 -1.7137,0.8227 l -8.0576,4.652 1.0824,1.8748 9.6991,-5.5998 z"
       fill="#4d4d4d"
       id="path3-7" />
    <path
       d="M 7.3457,63.3506 68.5089,28.038 72.4263,34.8233 11.2632,70.1359 Z"
       fill="#666666"
       id="path4-5" />
    <path
       fill-rule="evenodd"
       clip-rule="evenodd"
       d="m 73.7228,37.0612 -1.2926,-2.2388 -61.1646,35.3133 0.9516,1.6482 39.9909,-23.0887 0.4774,0.5116 z"
       fill="#595959"
       id="path5-3" />
    <path
       d="m 67.8047,26.8086 3.4764,-2.0071 5.9196,10.253 -3.4764,2.0071 z"
       fill="#4d4d4d"
       stroke="#333333"
       stroke-width="2.75649"
       stroke-miterlimit="3.99393"
       id="path6-5" />
    <path
       d="M 6.44141,61.7783 67.6045,26.4658 68.5112,28.0362 7.34806,63.3487 Z"
       fill="#595959"
       id="path7-6" />
    <path
       d="m 13.9655,49.4305 0.0012,-3.7413 -2.13,0.0543 -0.0457,1.0952 -2.82759,-0.0134 0.03111,-0.9308 -0.63789,0.0113 -0.00125,3.6089"
       fill="#404040"
       stroke="#333333"
       stroke-width="1.37824"
       stroke-miterlimit="3.99393"
       id="path8-2" />
    <path
       d="m 4.46292,51.3731 2.68469,4.65 -0.24245,0.14 0.91537,1.5855 10.35167,-5.9766 -0.8158,-1.4129 -0.535,0.3089 -0.7149,-1.2812 -1.7725,-0.2074 -4.1077,0.2377 C 8.82069,49.4019 7.9365,48.7793 7.26116,47.9133 L 6.1172,48.5737 C 4.69292,49.4192 4.56053,50.46 4.46292,51.3731 Z"
       fill="#454554"
       id="path9-9" />
    <path
       d="m 4.96644,52.245 2.16384,-1.2492 1.04444,1.809 6.26008,-3.6143 -0.1011,-0.0118 -4.1077,0.2377 C 8.82043,49.4012 7.93624,48.7786 7.26089,47.9126 l -1.14395,0.6605 c -1.42429,0.8454 -1.55668,1.8862 -1.65429,2.7994 z"
       fill="#515162"
       id="path10-1" />
    <path
       d="m 16.2913,49.7209 -9.58791,5.5356 0.44214,0.7658 -0.24245,0.14 0.91537,1.5855 10.35165,-5.9766 -0.8158,-1.4129 -0.535,0.3089 z"
       fill="#3a3a46"
       id="path11-2" />
    <path
       d="M 7.09043,52.8548 C 7.17231,52.9967 7.12372,53.178 6.98188,53.2599 6.84004,53.3418 6.65868,53.2932 6.5768,53.1514 6.49492,53.0096 6.54351,52.8282 6.68535,52.7463 6.82719,52.6644 7.00855,52.713 7.09043,52.8548 Z"
       fill="#353541"
       stroke="#353541"
       stroke-width="1.30228"
       stroke-miterlimit="3.99393"
       id="path12-7" />
    <path
       d="m 4.46292,51.3731 2.68469,4.65 -0.24245,0.14 0.91537,1.5855 10.35167,-5.9766 -0.8158,-1.4129 -0.535,0.3089 -0.7149,-1.2812 -1.7725,-0.2074 -4.1077,0.2377 C 8.82069,49.4019 7.9365,48.7793 7.26116,47.9133 L 6.1172,48.5737 C 4.69292,49.4192 4.56053,50.46 4.46292,51.3731 Z"
       stroke="#2e2e38"
       stroke-width="1.37824"
       stroke-miterlimit="3.99393"
       id="path13-0" />
    <path
       d="m 32.1776,41.8051 -0.934,-1.6178 0.2341,-0.5308 0.3046,0.5275 4.5398,-2.6211 -0.3009,-0.5212 0.808,0.0746 0.8674,1.5024"
       fill="#404040"
       stroke="#333333"
       stroke-width="1.37824"
       stroke-miterlimit="3.99393"
       id="path14-9" />
    <path
       d="M 6.90473,56.164 4.12782,57.7672 6.44499,61.7807 69.7566,25.2277 67.539,21.3868 58.1806,26.7899 57.8145,26.1558 53.581,28.6 53.1076,29.0722 39.2182,37.0913 c -0.4302,0.2113 -0.4056,0.631 -0.2981,0.8187 l -8.1749,4.7197 c -0.1177,-0.2119 -0.4101,-0.4535 -0.6371,-0.3284 l -10.7869,6.2278 c -0.2732,0.1295 -0.1421,0.4836 -0.0155,0.7052 L 17.356,50.36 18.1718,51.7729 7.8201,57.7495 Z"
       fill="#4d4d4d"
       stroke="#333333"
       stroke-width="1.37825"
       stroke-miterlimit="3.99393"
       id="path15-3" />
    <path
       d="m 51.1883,55.4725 4.7763,-2.7576 5.9412,6.366 -0.362,0.4188 -2.1763,1.2565 c 0.6946,-1.0722 -0.3684,-1.6452 -3.7865,-0.8848 -0.6892,0.0774 -1.9295,-0.0603 -2.5814,-1.096 l -1.54,-2.6672 C 51.3229,55.889 51.2357,55.6774 51.1883,55.4725 Z"
       fill="#404040"
       id="path16-6" />
    <path
       d="m 62.919,57.377 c 7.8372,9.3928 16.8597,17.3006 25.2121,23.3621 l 5.642,-7.1609 C 85.0741,67.4539 76.2888,59.2276 68.9612,50.2778"
       fill="#666666"
       id="path17-0" />
    <path
       d="m 68.9618,50.2778 c 7.3276,8.9498 16.1128,17.1761 24.8119,23.3004 l -1.8542,2.3533 C 82.7889,69.3128 73.8907,62.1307 67.0449,52.53 Z"
       fill="#595959"
       stroke="#333333"
       stroke-width="1.37824"
       stroke-miterlimit="3.99393"
       id="path18-6" />
    <path
       d="m 62.919,57.377 c 7.8372,9.3928 16.8597,17.3006 25.2121,23.3621 l 5.642,-7.1609 C 85.0741,67.4539 76.2888,59.2276 68.9612,50.2778"
       stroke="#333333"
       stroke-width="2.7565"
       stroke-miterlimit="3.99393"
       id="path19-2" />
    <path
       d="m 65.981,45.17 c -0.9496,-1.1212 -0.7427,-3.3084 1.0065,-4.2115 L 66.6444,40.3643 52.2151,48.7 l 9.6944,10.3878 7.81,-9.1766 z"
       fill="#474747"
       stroke="#333333"
       stroke-width="1.37825"
       stroke-miterlimit="3.99393"
       id="path20-6" />
    <path
       d="m 41.9434,71.375 c 1.1501,-0.2142 2.2542,0.0536 3.0354,1.7253 2.1133,3.9325 3.2184,4.6658 5.9379,5.1402 0.3378,0.0492 0.3232,-0.0296 0.0427,-0.1628 -2.8703,-0.5936 -6.325,-3.0065 -5.3898,-8.7963 z"
       fill="#353541"
       stroke="#2e2e38"
       stroke-width="1.37824"
       stroke-miterlimit="3.99393"
       stroke-linecap="round"
       id="path21-1" />
    <path
       d="m 13.4401,73.9 33.5904,-19.3994 0.6526,-0.0978 3.5419,-2.0374 0.7499,0.7993 c -0.5968,0.8701 -1.2271,1.8047 -0.515,2.9466 l 1.5399,2.6672 c 0.652,1.0357 1.8923,1.1734 2.5815,1.096 5.199,-1.1567 4.9494,0.7717 1.3539,2.849 l -27.474,15.8622 c -4.7858,-2.9235 -9.6247,-3.2666 -13.2773,-1.7687 -0.5404,0.2216 -0.7805,0.4067 -1.1376,-0.1349 z"
       fill="#515161"
       id="path22-8" />
    <path
       d="m 51.2211,52.3641 -3.5419,2.0375 -0.064,0.0095 5.9279,10.2674 3.3883,-1.9562 c 3.5954,-2.0775 3.845,-4.0057 -1.354,-2.8491 -0.6892,0.0774 -1.9295,-0.0603 -2.5814,-1.0959 L 51.456,56.11 c -0.7121,-1.1419 -0.0817,-2.0764 0.5151,-2.9466 z"
       fill="#4a4a59"
       stroke="#2e2e38"
       stroke-width="1.37825"
       stroke-miterlimit="3.99393"
       id="path23-7" />
    <path
       d="m 64.5446,45.3808 2.3999,2.8167 c 0.4441,0.4639 0.6844,0.6283 0.0051,1.562 l -4.3228,4.8168 c -0.6973,0.6246 -1.2454,0.6641 -1.9886,0.0579 l -3.6234,-3.9918 c -0.6924,-0.7063 -0.6114,-1.4303 0.2915,-1.9618 l 6.0349,-3.3436 c 1.0388,-0.6452 0.8268,-0.3001 1.2034,0.0438 z"
       fill="#404040"
       id="path24-9" />
    <path
       d="M 4.00596,64.9514 C 3.68638,64.3978 3.00811,64.1911 2.491,64.4897 1.97389,64.7882 1.81376,65.479 2.13333,66.0325 l 4.53781,7.8597 c 0.31958,0.5536 0.99785,0.7603 1.51496,0.4617 0.51711,-0.2986 0.67724,-0.9893 0.35766,-1.5428 z"
       fill="#808080"
       stroke="#333333"
       stroke-width="1.37824"
       stroke-miterlimit="3.99393"
       id="path25-2" />
    <path
       d="m 7.48652,66.5656 -4.42793,2.5565 1.3248,2.2946 4.46749,-2.5793"
       fill="#4d4d4d"
       id="path26-0" />
    <path
       d="m 7.48652,66.5656 -4.42793,2.5565 1.3248,2.2946 4.46749,-2.5793"
       stroke="#333333"
       stroke-width="1.37824"
       stroke-miterlimit="3.99393"
       id="path27-2" />
    <path
       d="M 3.78513,57.1819 1.46484,58.5215 12.6953,77.9733 15.0156,76.6337"
       fill="#4d4d4d"
       stroke="#333333"
       stroke-width="1.37824"
       stroke-miterlimit="3.99393"
       id="path28-3" />
    <path
       d="m 73.375,29.585 21.3921,-12.3507 1.8495,3.2035 -21.392,12.3507"
       fill="#474747"
       stroke="#333333"
       stroke-width="2.7565"
       stroke-miterlimit="3.99393"
       id="path29-7" />
    <path
       d="m 15.9159,75.0821 c 0.6062,-0.35 0.8139,-1.1252 0.4639,-1.7314 -0.35,-0.6062 -1.1251,-0.8139 -1.7314,-0.4639 -0.6062,0.35 -0.8139,1.1251 -0.4639,1.7313 0.35,0.6063 1.1252,0.814 1.7314,0.464 z"
       fill="#393946"
       id="path30-5" />
    <path
       d="M 10.3145,68.493 56.9849,41.5479 55.4164,38.8312 8.74609,65.7764"
       fill="#4d4d4d"
       stroke="#333333"
       stroke-width="1.37824"
       stroke-miterlimit="3.99393"
       id="path31-9" />
    <path
       d="m 41.9807,41.318 1.6598,2.8748 c 1.1459,1.9536 1.0886,1.4532 2.0223,1.0354 l 7.6881,-4.4387 c 4.5909,-2.984 0.2887,-10.9204 -5.3062,-7.8124 l -5.2254,3.0168 c -2.2429,1.2492 -2.2144,3.042 -0.8386,5.3241 z"
       fill="#404040"
       id="path32-2" />
    <path
       d="M 7.67773,63.9209 16.05,59.0871 c 0.7346,-0.421 1.3075,-0.257 1.7266,0.4626 l 1.7853,3.0924 c 0.3876,0.687 0.2743,1.4558 -0.6382,1.9603 l -8.1374,4.7026"
       fill="#5e5e5e"
       stroke="#333333"
       stroke-width="1.37824"
       stroke-miterlimit="3.99393"
       stroke-linecap="round"
       id="path33-2" />
    <path
       d="m 39.9121,69.2314 3.2705,-1.8882 1.1954,2.0704 -3.2574,1.8807 z"
       fill="#8f3d3d"
       id="path34-8" />
    <path
       d="m 35.0234,72.6855 3.2706,-1.8882 1.1953,2.0705 -3.2573,1.8806 z"
       fill="#cccccc"
       id="path35-9" />
    <path
       d="m 25.0469,67.2529 19.9809,-11.536 1.1954,2.0705 -19.9678,11.5283 z"
       fill="#8f3d3d"
       id="path36-7" />
    <path
       d="m 18.9881,76.066 c 5.3177,-0.5342 7.797,3.2038 7.6596,7.9419 L 25.289,107.2 c 0.7567,0.041 1.5107,0.087 2.2665,0.133 4.1411,0.251 8.3326,0.506 13.2706,0.024 2.733,-0.125 2.3142,-1.073 0.0676,-1.802 L 38.3184,75.5753 c -0.1226,-1.0754 0.3406,-2.2739 2.0209,-3.274 l -10.8807,6.282 C 25.8172,76.3589 22.1451,75.6284 18.9881,76.066 Z"
       fill="#464654"
       stroke="#2e2e38"
       stroke-width="2.7565"
       stroke-miterlimit="3.99393"
       id="path37-3" />
    <path
       d="m 92.2256,75.5416 -1.2633,-0.9525 -0.839,1.1435 1.1697,0.9926 z"
       fill="#404040"
       stroke="#333333"
       stroke-width="1.37825"
       stroke-miterlimit="3.99393"
       id="path38-6" />
    <path
       d="m 35.4239,67.0386 -0.9555,1.683 z"
       fill="#404040"
       id="path39-1" />
    <path
       d="m 31.4371,73.9755 c 1.0327,-1.2907 1.3688,-2.3793 3.5117,-2.8847 1.02,-0.2406 3.017,-2.3259 0.7433,-3.9154 -2.2737,-1.5895 -3.4076,0.9503 -3.6593,2.067 l -0.884,4.5631 c -0.0584,0.196 0.1223,0.3655 0.255,0.2112 z"
       fill="#404040"
       id="path40-2" />
    <path
       d="m 12.2188,71.7842 1.221,2.1148 33.5888,-19.3993 0.6525,-0.0977 3.542,-2.0374 0.7499,0.7992 c -0.4822,0.7032 -0.9863,1.4483 -0.7864,2.3109 l 4.7763,-2.7576 -3.7533,-4.0217 z"
       fill="#4d4d4d"
       stroke="#333333"
       stroke-width="1.37824"
       stroke-miterlimit="3.99393"
       id="path41-9" />
    <path
       d="m 56.8696,56.6157 c 0.7064,-0.4079 0.9485,-1.3112 0.5406,-2.0177 -0.4079,-0.7065 -1.3112,-0.9485 -2.0177,-0.5406 -0.7065,0.4078 -0.9486,1.3112 -0.5407,2.0177 0.4079,0.7065 1.3113,0.9485 2.0178,0.5406 z"
       fill="#5a5a5a"
       stroke="#333333"
       stroke-width="1.37824"
       stroke-miterlimit="3.99393"
       id="path42-3" />
    <path
       d="m 60.6725,67.3874 c -0.3783,0.0416 -0.7187,-0.2313 -0.7603,-0.6096 l -0.6606,-6.0039 c -0.0417,-0.3783 0.2313,-0.7188 0.6096,-0.7604 0.3783,-0.0416 0.7187,0.2313 0.7603,0.6096 l 0.3262,2.9646 c 0.2652,0.0561 0.5063,0.2203 0.6525,0.4735 0.2733,0.4734 0.1111,1.0788 -0.3623,1.3521 -0.0277,0.016 -0.0559,0.0305 -0.0845,0.0436 l 0.1287,1.1702 c 0.0417,0.3783 -0.2313,0.7187 -0.6096,0.7603 z"
       fill="#3b3b3b"
       stroke="#333333"
       stroke-width="1.37825"
       stroke-miterlimit="3.99393"
       id="path43-1" />
    <path
       d="m 33.4199,43.8438 1.0209,1.7682 4.9955,-2.8842 -1.0176,-1.7626 z"
       fill="#595959"
       stroke="#333333"
       stroke-width="1.37824"
       stroke-miterlimit="3.99393"
       id="path44-9" />
    <path
       d="m 55.0762,31.3428 1.0211,1.7687 4.9955,-2.8842 -1.0179,-1.763 z"
       fill="#595959"
       stroke="#333333"
       stroke-width="1.37824"
       stroke-miterlimit="3.99393"
       id="path45-4" />
    <path
       d="m 35.136,66.86 c -0.0022,0.0035 -0.0042,0.007 -0.0063,0.0106 l -0.9553,1.6824 c -0.0448,0.0793 -0.0562,0.1732 -0.0319,0.261 0.0242,0.0878 0.0823,0.1624 0.1615,0.2075 0.0793,0.0447 0.1732,0.0562 0.261,0.0319 0.0878,-0.0243 0.1624,-0.0823 0.2075,-0.1615 l 0.958,-1.6844 C 35.7169,67.1978 35.7032,67.188 35.6893,67.1783 35.4967,67.0437 35.3123,66.9387 35.136,66.86 Z"
       fill="#999999"
       id="path46-7" />
    <path
       d="m 31.4371,73.9755 c 1.0327,-1.2907 1.3688,-2.3793 3.5117,-2.8847 1.02,-0.2406 3.017,-2.3259 0.7433,-3.9154 -2.2737,-1.5895 -3.4076,0.9503 -3.6593,2.067 l -0.884,4.5631 c -0.0584,0.196 0.1223,0.3655 0.255,0.2112 z"
       stroke="#333333"
       stroke-width="1.37824"
       stroke-miterlimit="3.99393"
       id="path47-8" />
    <rect
       x="8.2539101"
       y="53.225601"
       width="6.8464699"
       height="1.37824"
       rx="0.68911898"
       transform="rotate(-30,8.25391,53.2256)"
       fill="#353541"
       id="rect47-4" />
    <path
       d="M 42.7543,42.6626 41.9781,41.3183 C 41.8791,41.154 41.787,40.9922 41.7023,40.833 l 12.2039,-7.0459 c 0.4779,0.5232 0.8487,1.1461 1.0848,1.8106 z"
       fill="#4d4d4d"
       id="path48-5" />
    <path
       d="m 41.9807,41.318 1.6598,2.8748 c 1.1459,1.9536 1.0886,1.4532 2.0223,1.0354 l 7.6881,-4.4387 c 4.5909,-2.984 0.2887,-10.9204 -5.3062,-7.8124 l -5.2254,3.0168 c -2.2429,1.2492 -2.2144,3.042 -0.8386,5.3241 z"
       stroke="#333333"
       stroke-width="2.7565"
       stroke-miterlimit="3.99393"
       id="path49-0" />
    <path
       d="m 91.498,19.5273 1.676,2.9029 3.1799,-1.8359 -1.6759,-2.9029 z"
       fill="#595959"
       id="path50-3" />
    <path
       d="m 6.90473,56.164 -2.77691,1.6032 9.31348,16.1314 33.5888,-19.3993 0.6526,-0.0977 3.5419,-2.0375 0.7499,0.7993 c -0.4822,0.7031 -0.9863,1.4483 -0.7864,2.3109 0.0475,0.205 0.1346,0.4166 0.2713,0.6357 l 1.54,2.6673 c 0.6519,1.0357 1.8922,1.1733 2.5815,1.096 3.418,-0.7605 4.481,-0.1874 3.7864,0.8847 l 2.1763,-1.2565 8.1742,-9.5916 -3.7385,-4.7412 c -0.9496,-1.1212 -0.7448,-3.312 1.0043,-4.2152 L 73.7244,37.0618 67.9252,27.0174 92.2322,12.9837 C 91.676,11.4298 91.0135,9.9373 89.7964,8.76493 c -1.4078,0.82421 -2.0082,1.39267 -2.6157,1.96787 -0.5931,0.5615 -1.193,1.1295 -2.5576,1.9481 l -2.5295,1.4604 c -1.3705,0.7788 -2.446,1.1829 -3.4792,1.5712 -0.9306,0.3497 -1.8268,0.6865 -2.8734,1.2724 L 67.6834,21.637 67.539,21.3868 58.1806,26.7899 57.8145,26.1558 53.581,28.6 53.1076,29.0722 39.2182,37.0913 c -0.4302,0.2113 -0.4056,0.631 -0.2981,0.8187 l -8.1749,4.7197 c -0.1177,-0.2119 -0.4101,-0.4535 -0.6371,-0.3284 l -10.7869,6.2278 c -0.2732,0.1295 -0.1421,0.4837 -0.0155,0.7052 L 17.356,50.36 18.1718,51.7729 7.8201,57.7495 Z"
       stroke="#333333"
       stroke-width="2.75649"
       stroke-miterlimit="3.99393"
       id="path51-6" />
    <path
       d="m 13.4401,73.9 33.5904,-19.3994 0.6526,-0.0978 3.5419,-2.0374 0.7499,0.7993 c -0.5968,0.8701 -1.2271,1.8047 -0.515,2.9466 l 1.5399,2.6672 c 0.652,1.0357 1.8923,1.1734 2.5815,1.096 5.199,-1.1567 4.9494,0.7717 1.3539,2.849 l -27.474,15.8622 c -4.7858,-2.9235 -9.6247,-3.2666 -13.2773,-1.7687 -0.5404,0.2216 -0.7805,0.4067 -1.1376,-0.1349 z"
       stroke="#2e2e38"
       stroke-width="2.7565"
       stroke-miterlimit="3.99393"
       id="path52-1" />
    <path
       d="m 76.9336,35.7518 -6.3242,-10.9539 14.9883,-8.6536 3.1028,5.4091 0.4161,0.7207 c 0.4607,0.7763 1.4889,1.6444 3.171,0.6658 l 3.8997,-2.2516 c 0.0588,-0.0393 0.1044,-0.0222 0.1441,0.0386 l 5.1216,8.8712 c 0.049,0.0668 0.032,0.0612 -0.026,0.098 l -0.184,0.1064 c -0.089,0.0559 -0.112,0.0361 -0.148,-0.0397 L 99.4201,26.8626 C 98.2129,24.841 96.4738,24.4882 94.2194,25.7718 l -4.1949,2.422 -13.0082,7.5102 z"
       fill="#515162"
       id="path53-0" />
    <path
       d="m 89.0645,22.184 -0.3641,-0.6306 -3.1027,-5.4091 -14.9883,8.6536 3.4819,6.0308 z"
       fill="#5c5c70"
       id="path54-6" />
    <path
       d="m 82.7264,38.1996 c -0.561,-2.0402 -3.6063,-3.6671 -5.7088,-2.4965 l 13.0082,-7.5103 c -1.6001,1.0033 -4.2902,3.0369 -1.2121,6.3729 1.9609,2.051 2.7158,3.3874 4.3622,5.8606 2.2191,3.3334 4.2354,8.1327 6.0145,12.0252 l -6.0408,3.4967 c -2.806,-3.3534 -5.178,-7.0298 -7.406,-10.9598 -1.3023,-2.2948 -2.2799,-4.1071 -3.0172,-6.7888 z"
       fill="#505062"
       id="path55-3" />
    <path
       d="m 81.2184,33.2778 -4.2008,2.4253 c 2.1025,-1.1706 5.1478,0.4563 5.7088,2.4965 0.7373,2.6817 1.7149,4.494 3.0172,6.7888 2.228,3.93 4.6,7.6064 7.406,10.9598 L 95.023,54.8638 C 94.7899,54.5418 94.5569,54.2209 94.3241,53.9002 91.2697,49.6932 88.2456,45.528 85.463,39.7014 85.1676,39.0828 84.9752,38.4407 84.7844,37.8037 84.5137,36.9001 84.246,36.0065 83.6913,35.2044 82.9615,34.1489 82.282,33.6224 81.2184,33.2778 Z"
       fill="#454555"
       id="path56-2" />
    <path
       d="M 97.0997,53.6616 C 96.9442,53.3138 96.7896,52.9666 96.6352,52.62 94.5338,47.9019 92.4713,43.2711 88.8331,37.972 88.4451,37.4069 87.9852,36.9193 87.529,36.4355 86.8817,35.7492 86.2418,35.0706 85.8244,34.1892 85.2341,32.9425 85.1441,32.0518 85.4506,30.8342 l 4.5751,-2.6414 c -1.6001,1.0033 -4.2901,3.0368 -1.2121,6.3728 1.6373,1.7125 2.4338,2.9268 3.6104,4.7205 0.2326,0.3546 0.4801,0.7319 0.7519,1.1402 1.8524,2.7826 3.5636,6.5868 5.1134,10.0323 0.3068,0.6819 0.6072,1.3497 0.9011,1.9928 z"
       fill="#454555"
       id="path57-0" />
    <path
       d="m 88.0325,48.8328 c -0.2437,-0.3882 -0.4849,-0.7794 -0.7238,-1.1735 1.0914,-0.6307 2.4331,-1.4046 3.7713,-2.1759 1.3553,-0.7812 2.7077,-1.5602 3.7945,-2.186 0.2144,0.4001 0.4266,0.8088 0.6366,1.2238 -1.0781,0.6208 -2.4102,1.3881 -3.7449,2.1574 -1.3244,0.7634 -2.6507,1.5285 -3.7337,2.1542 z"
       fill="#33333d"
       id="path58-6" />
    <path
       d="m 89.5481,51.1549 c -0.2583,-0.38 -0.5133,-0.7632 -0.7653,-1.1496 1.1376,-0.6577 2.5985,-1.5004 4.0553,-2.3401 1.1527,-0.6644 2.3033,-1.3272 3.2902,-1.8955 0.2,0.4133 0.3979,0.8303 0.5936,1.2486 -0.9659,0.5562 -2.0808,1.1985 -3.1976,1.8422 -1.4251,0.8214 -2.8523,1.6447 -3.9762,2.2944 z"
       fill="#33333d"
       id="path59-1" />
    <path
       d="m 91.1632,53.4272 c -0.2756,-0.3702 -0.5472,-0.7438 -0.815,-1.1208 0.0253,-0.0146 0.0508,-0.0294 0.0765,-0.0442 1.1602,-0.6709 2.6959,-1.5569 4.2271,-2.4395 0.9143,-0.527 1.8273,-1.0529 2.6582,-1.5316 0.193,0.4222 0.3837,0.8433 0.5721,1.261 -0.8001,0.4609 -1.6715,0.963 -2.5441,1.4659 -1.5104,0.8706 -3.0233,1.7433 -4.1748,2.4092 z"
       fill="#33333d"
       id="path60-5" />
    <path
       d="m 85.6418,16.2133 -2.3366,-4.047 -4.1216,2.3796 2.3365,4.047"
       fill="#454554"
       id="path61-5" />
    <path
       d="m 82.7264,38.1996 c -0.561,-2.0402 -3.6063,-3.6671 -5.7088,-2.4965 l 13.0082,-7.5103 c -1.6001,1.0033 -4.2902,3.0369 -1.2121,6.3729 1.9609,2.051 2.7158,3.3874 4.3622,5.8606 2.2191,3.3334 4.2354,8.1327 6.0145,12.0252 l -6.0408,3.4967 c -2.806,-3.3534 -5.178,-7.0298 -7.406,-10.9598 -1.3023,-2.2948 -2.2799,-4.1071 -3.0172,-6.7888 z"
       stroke="#2e2e38"
       stroke-width="2.7565"
       stroke-miterlimit="3.99393"
       id="path62-4" />
    <path
       d="m 81.972,18.3299 0.9525,3.6148 c 0.1494,0.6992 0.9121,1.6829 2.6157,0.7403 l 2.8649,-1.6541 -2.7642,-4.8192 z"
       fill="#4a4a5a"
       stroke="#2e2e38"
       stroke-width="1.37824"
       stroke-miterlimit="3.99393"
       id="path63-7" />
    <path
       d="m 85.4832,21.11 c 0.4533,-0.2617 0.6086,-0.8413 0.3469,-1.2946 -0.2617,-0.4533 -0.8413,-0.6086 -1.2945,-0.3469 -0.4533,0.2617 -0.6086,0.8413 -0.3469,1.2946 0.2617,0.4533 0.8413,0.6086 1.2945,0.3469 z"
       fill="#373743"
       id="path64-6" />
    <path
       d="m 82.176,14.9794 c 0.4121,-0.2379 0.5533,-0.7648 0.3154,-1.1769 -0.2379,-0.412 -0.7649,-0.5532 -1.1769,-0.3153 -0.4121,0.2379 -0.5533,0.7648 -0.3154,1.1769 0.2379,0.412 0.7648,0.5532 1.1769,0.3153 z"
       fill="#373743"
       id="path65-5" />
    <path
       d="m 85.6418,16.2133 -2.3366,-4.047 -4.1216,2.3796 2.3365,4.047"
       stroke="#2e2e38"
       stroke-width="1.37824"
       stroke-miterlimit="3.99393"
       id="path66-6" />
    <path
       d="M 93.1704,22.4284 81.4336,2.09961 83.3113,1.01551 c 1.7887,1.35641 3.5002,3.04396 4.6275,5.00771 l 8.4116,14.56928"
       fill="#4d4d4d"
       id="path67-9" />
    <path
       d="m 83.3113,1.01551 -1.8777,1.0841 3.4786,6.02506 3.1799,-1.83593 -0.1533,-0.26552 C 86.8115,4.05947 85.1,2.37192 83.3113,1.01551 Z"
       fill="#595959"
       id="path68-3" />
    <path
       d="M 87.2007,4.8801 84.082,6.68066 84.9172,8.12719 88.0971,6.29126 87.9438,6.02574 C 87.7182,5.63264 87.4691,5.25062 87.2007,4.8801 Z"
       fill="#4d4d4d"
       id="path69-7" />
    <path
       d="m 83.3113,1.01551 -1.8777,1.0841 3.4786,6.02506 3.1799,-1.83593 -0.1533,-0.26552 C 86.8115,4.05947 85.1,2.37192 83.3113,1.01551 Z"
       stroke="#333333"
       stroke-width="1.37824"
       stroke-miterlimit="3.99393"
       id="path70-4" />
    <path
       d="M 89.1626,8.13792 92.5219,13.9565 89.342,15.7924 85.9707,9.95312 Z"
       fill="#595959"
       id="path71-5" />
    <path
       d="M 93.1704,22.4284 81.4336,2.09961 83.3113,1.01551 c 1.7887,1.35641 3.5002,3.04396 4.6275,5.00771 l 8.4116,14.56928"
       stroke="#333333"
       stroke-width="1.37824"
       stroke-miterlimit="3.99393"
       id="path72-2" />
    <path
       d="m 76.9336,35.7518 -6.3242,-10.9539 14.9883,-8.6536 3.1028,5.4091 0.4161,0.7207 c 0.4607,0.7763 1.4889,1.6444 3.171,0.6658 l 3.8997,-2.2516 c 0.0588,-0.0393 0.1044,-0.0222 0.1441,0.0386 l 5.1216,8.8712 c 0.049,0.0668 0.032,0.0612 -0.026,0.098 l -0.184,0.1064 c -0.089,0.0559 -0.112,0.0361 -0.148,-0.0397 L 99.4201,26.8626 C 98.2129,24.841 96.4738,24.4882 94.2194,25.7718 l -4.1949,2.422 z m 0,0 0.0827,-0.0478"
       stroke="#2e2e38"
       stroke-width="2.7565"
       stroke-miterlimit="3.99393"
       id="path73-5" />
  </g>
  <g
     clip-path="url(#clip0_3608_4683-4)"
     id="g220"
     transform="matrix(0.84422286,0.22620883,-0.22620883,0.84422286,34.361792,-13.50539)">
    <path
       d="m 56.9349,62.7223 -0.0029,0.0019 -5.9199,3.4179 c 2.0836,-0.7783 3.6525,-0.0501 3.8812,1.2125 l 1.2805,7.3581 c 0.1843,1.322 0.0776,2.4696 -1.1026,3.3586 l -7.418,4.3056 c -0.3881,0.2121 -0.6759,0.2445 -1.1165,0.2338 l -4.9105,0.0132 C 40.4833,82.507 39.3788,81.8997 38.7448,80.5475 l 0.6282,7.313 c 0.4515,-2.1107 1.9782,-3.5732 3.1422,-3.5045 l 4.1818,0.0016 c 0.4406,0.0108 0.7284,-0.0216 1.1165,-0.2337 l 7.7108,-4.4518 c 1.72,-0.9795 2.8129,-2.6578 2.5196,-4.4283 l -1.3147,-7.3383 c -0.4372,-1.7814 -0.3394,-4.2628 1.2211,-5.8268 -0.3002,0.2107 -0.6395,0.4263 -1.0154,0.6436 z"
       fill="#393946"
       stroke="#2e2e38"
       stroke-width="1.37824"
       stroke-miterlimit="3.99393"
       id="path148" />
    <path
       d="m 67.6803,21.6372 3e-4,5e-4 2.0729,3.5903 -2.1485,1.2404 0.3171,0.5492 24.307,-14.0336 C 91.6729,11.4301 91.0104,9.93754 89.7933,8.76516 87.011,10.394 87.3824,11.024 84.62,12.6811 l -2.5295,1.4604 c -2.6046,1.4801 -4.1439,1.6071 -6.3526,2.8437 z"
       fill="#404040"
       id="path149" />
    <path
       d="m 77.4588,16.161 c -0.5445,0.2242 -1.1036,0.4811 -1.7137,0.8227 l -8.0576,4.652 1.0824,1.8748 9.6991,-5.5998 z"
       fill="#4d4d4d"
       id="path150" />
    <path
       d="M 7.3457,63.3506 68.5089,28.038 72.4263,34.8233 11.2632,70.1359 Z"
       fill="#666666"
       id="path151" />
    <path
       fill-rule="evenodd"
       clip-rule="evenodd"
       d="m 73.7228,37.0612 -1.2926,-2.2388 -61.1646,35.3133 0.9516,1.6482 39.9909,-23.0887 0.4774,0.5116 z"
       fill="#595959"
       id="path152" />
    <path
       d="m 67.8047,26.8086 3.4764,-2.0071 5.9196,10.253 -3.4764,2.0071 z"
       fill="#4d4d4d"
       stroke="#333333"
       stroke-width="2.75649"
       stroke-miterlimit="3.99393"
       id="path153" />
    <path
       d="M 6.44141,61.7783 67.6045,26.4658 68.5112,28.0362 7.34806,63.3487 Z"
       fill="#595959"
       id="path154" />
    <path
       d="m 13.9655,49.4305 0.0012,-3.7413 -2.13,0.0543 -0.0457,1.0952 -2.82759,-0.0134 0.03111,-0.9308 -0.63789,0.0113 -0.00125,3.6089"
       fill="#404040"
       stroke="#333333"
       stroke-width="1.37824"
       stroke-miterlimit="3.99393"
       id="path155" />
    <path
       d="m 4.46292,51.3731 2.68469,4.65 -0.24245,0.14 0.91537,1.5855 10.35167,-5.9766 -0.8158,-1.4129 -0.535,0.3089 -0.7149,-1.2812 -1.7725,-0.2074 -4.1077,0.2377 C 8.82069,49.4019 7.9365,48.7793 7.26116,47.9133 L 6.1172,48.5737 C 4.69292,49.4192 4.56053,50.46 4.46292,51.3731 Z"
       fill="#454554"
       id="path156" />
    <path
       d="m 4.96644,52.245 2.16384,-1.2492 1.04444,1.809 6.26008,-3.6143 -0.1011,-0.0118 -4.1077,0.2377 C 8.82043,49.4012 7.93624,48.7786 7.26089,47.9126 l -1.14395,0.6605 c -1.42429,0.8454 -1.55668,1.8862 -1.65429,2.7994 z"
       fill="#515162"
       id="path157" />
    <path
       d="m 16.2913,49.7209 -9.58791,5.5356 0.44214,0.7658 -0.24245,0.14 0.91537,1.5855 10.35165,-5.9766 -0.8158,-1.4129 -0.535,0.3089 z"
       fill="#3a3a46"
       id="path158" />
    <path
       d="M 7.09043,52.8548 C 7.17231,52.9967 7.12372,53.178 6.98188,53.2599 6.84004,53.3418 6.65868,53.2932 6.5768,53.1514 6.49492,53.0096 6.54351,52.8282 6.68535,52.7463 6.82719,52.6644 7.00855,52.713 7.09043,52.8548 Z"
       fill="#353541"
       stroke="#353541"
       stroke-width="1.30228"
       stroke-miterlimit="3.99393"
       id="path159" />
    <path
       d="m 4.46292,51.3731 2.68469,4.65 -0.24245,0.14 0.91537,1.5855 10.35167,-5.9766 -0.8158,-1.4129 -0.535,0.3089 -0.7149,-1.2812 -1.7725,-0.2074 -4.1077,0.2377 C 8.82069,49.4019 7.9365,48.7793 7.26116,47.9133 L 6.1172,48.5737 C 4.69292,49.4192 4.56053,50.46 4.46292,51.3731 Z"
       stroke="#2e2e38"
       stroke-width="1.37824"
       stroke-miterlimit="3.99393"
       id="path160" />
    <path
       d="m 32.1776,41.8051 -0.934,-1.6178 0.2341,-0.5308 0.3046,0.5275 4.5398,-2.6211 -0.3009,-0.5212 0.808,0.0746 0.8674,1.5024"
       fill="#404040"
       stroke="#333333"
       stroke-width="1.37824"
       stroke-miterlimit="3.99393"
       id="path161" />
    <path
       d="M 6.90473,56.164 4.12782,57.7672 6.44499,61.7807 69.7566,25.2277 67.539,21.3868 58.1806,26.7899 57.8145,26.1558 53.581,28.6 53.1076,29.0722 39.2182,37.0913 c -0.4302,0.2113 -0.4056,0.631 -0.2981,0.8187 l -8.1749,4.7197 c -0.1177,-0.2119 -0.4101,-0.4535 -0.6371,-0.3284 l -10.7869,6.2278 c -0.2732,0.1295 -0.1421,0.4836 -0.0155,0.7052 L 17.356,50.36 18.1718,51.7729 7.8201,57.7495 Z"
       fill="#4d4d4d"
       stroke="#333333"
       stroke-width="1.37825"
       stroke-miterlimit="3.99393"
       id="path162" />
    <path
       d="m 51.1883,55.4725 4.7763,-2.7576 5.9412,6.366 -0.362,0.4188 -2.1763,1.2565 c 0.6946,-1.0722 -0.3684,-1.6452 -3.7865,-0.8848 -0.6892,0.0774 -1.9295,-0.0603 -2.5814,-1.096 l -1.54,-2.6672 C 51.3229,55.889 51.2357,55.6774 51.1883,55.4725 Z"
       fill="#404040"
       id="path163" />
    <path
       d="m 62.919,57.377 c 7.8372,9.3928 16.8597,17.3006 25.2121,23.3621 l 5.642,-7.1609 C 85.0741,67.4539 76.2888,59.2276 68.9612,50.2778"
       fill="#666666"
       id="path164" />
    <path
       d="m 68.9618,50.2778 c 7.3276,8.9498 16.1128,17.1761 24.8119,23.3004 l -1.8542,2.3533 C 82.7889,69.3128 73.8907,62.1307 67.0449,52.53 Z"
       fill="#595959"
       stroke="#333333"
       stroke-width="1.37824"
       stroke-miterlimit="3.99393"
       id="path165" />
    <path
       d="m 62.919,57.377 c 7.8372,9.3928 16.8597,17.3006 25.2121,23.3621 l 5.642,-7.1609 C 85.0741,67.4539 76.2888,59.2276 68.9612,50.2778"
       stroke="#333333"
       stroke-width="2.7565"
       stroke-miterlimit="3.99393"
       id="path166" />
    <path
       d="m 65.981,45.17 c -0.9496,-1.1212 -0.7427,-3.3084 1.0065,-4.2115 L 66.6444,40.3643 52.2151,48.7 l 9.6944,10.3878 7.81,-9.1766 z"
       fill="#474747"
       stroke="#333333"
       stroke-width="1.37825"
       stroke-miterlimit="3.99393"
       id="path167" />
    <path
       d="m 41.9434,71.375 c 1.1501,-0.2142 2.2542,0.0536 3.0354,1.7253 2.1133,3.9325 3.2184,4.6658 5.9379,5.1402 0.3378,0.0492 0.3232,-0.0296 0.0427,-0.1628 -2.8703,-0.5936 -6.325,-3.0065 -5.3898,-8.7963 z"
       fill="#353541"
       stroke="#2e2e38"
       stroke-width="1.37824"
       stroke-miterlimit="3.99393"
       stroke-linecap="round"
       id="path168" />
    <path
       d="m 13.4401,73.9 33.5904,-19.3994 0.6526,-0.0978 3.5419,-2.0374 0.7499,0.7993 c -0.5968,0.8701 -1.2271,1.8047 -0.515,2.9466 l 1.5399,2.6672 c 0.652,1.0357 1.8923,1.1734 2.5815,1.096 5.199,-1.1567 4.9494,0.7717 1.3539,2.849 l -27.474,15.8622 c -4.7858,-2.9235 -9.6247,-3.2666 -13.2773,-1.7687 -0.5404,0.2216 -0.7805,0.4067 -1.1376,-0.1349 z"
       fill="#515161"
       id="path169" />
    <path
       d="m 51.2211,52.3641 -3.5419,2.0375 -0.064,0.0095 5.9279,10.2674 3.3883,-1.9562 c 3.5954,-2.0775 3.845,-4.0057 -1.354,-2.8491 -0.6892,0.0774 -1.9295,-0.0603 -2.5814,-1.0959 L 51.456,56.11 c -0.7121,-1.1419 -0.0817,-2.0764 0.5151,-2.9466 z"
       fill="#4a4a59"
       stroke="#2e2e38"
       stroke-width="1.37825"
       stroke-miterlimit="3.99393"
       id="path170" />
    <path
       d="m 64.5446,45.3808 2.3999,2.8167 c 0.4441,0.4639 0.6844,0.6283 0.0051,1.562 l -4.3228,4.8168 c -0.6973,0.6246 -1.2454,0.6641 -1.9886,0.0579 l -3.6234,-3.9918 c -0.6924,-0.7063 -0.6114,-1.4303 0.2915,-1.9618 l 6.0349,-3.3436 c 1.0388,-0.6452 0.8268,-0.3001 1.2034,0.0438 z"
       fill="#404040"
       id="path171" />
    <path
       d="M 4.00596,64.9514 C 3.68638,64.3978 3.00811,64.1911 2.491,64.4897 1.97389,64.7882 1.81376,65.479 2.13333,66.0325 l 4.53781,7.8597 c 0.31958,0.5536 0.99785,0.7603 1.51496,0.4617 0.51711,-0.2986 0.67724,-0.9893 0.35766,-1.5428 z"
       fill="#808080"
       stroke="#333333"
       stroke-width="1.37824"
       stroke-miterlimit="3.99393"
       id="path172" />
    <path
       d="m 7.48652,66.5656 -4.42793,2.5565 1.3248,2.2946 4.46749,-2.5793"
       fill="#4d4d4d"
       id="path173" />
    <path
       d="m 7.48652,66.5656 -4.42793,2.5565 1.3248,2.2946 4.46749,-2.5793"
       stroke="#333333"
       stroke-width="1.37824"
       stroke-miterlimit="3.99393"
       id="path174" />
    <path
       d="M 3.78513,57.1819 1.46484,58.5215 12.6953,77.9733 15.0156,76.6337"
       fill="#4d4d4d"
       stroke="#333333"
       stroke-width="1.37824"
       stroke-miterlimit="3.99393"
       id="path175" />
    <path
       d="m 73.375,29.585 21.3921,-12.3507 1.8495,3.2035 -21.392,12.3507"
       fill="#474747"
       stroke="#333333"
       stroke-width="2.7565"
       stroke-miterlimit="3.99393"
       id="path176" />
    <path
       d="m 15.9159,75.0821 c 0.6062,-0.35 0.8139,-1.1252 0.4639,-1.7314 -0.35,-0.6062 -1.1251,-0.8139 -1.7314,-0.4639 -0.6062,0.35 -0.8139,1.1251 -0.4639,1.7313 0.35,0.6063 1.1252,0.814 1.7314,0.464 z"
       fill="#393946"
       id="path177" />
    <path
       d="M 10.3145,68.493 56.9849,41.5479 55.4164,38.8312 8.74609,65.7764"
       fill="#4d4d4d"
       stroke="#333333"
       stroke-width="1.37824"
       stroke-miterlimit="3.99393"
       id="path178" />
    <path
       d="m 41.9807,41.318 1.6598,2.8748 c 1.1459,1.9536 1.0886,1.4532 2.0223,1.0354 l 7.6881,-4.4387 c 4.5909,-2.984 0.2887,-10.9204 -5.3062,-7.8124 l -5.2254,3.0168 c -2.2429,1.2492 -2.2144,3.042 -0.8386,5.3241 z"
       fill="#404040"
       id="path179" />
    <path
       d="M 7.67773,63.9209 16.05,59.0871 c 0.7346,-0.421 1.3075,-0.257 1.7266,0.4626 l 1.7853,3.0924 c 0.3876,0.687 0.2743,1.4558 -0.6382,1.9603 l -8.1374,4.7026"
       fill="#5e5e5e"
       stroke="#333333"
       stroke-width="1.37824"
       stroke-miterlimit="3.99393"
       stroke-linecap="round"
       id="path180" />
    <path
       d="m 39.9121,69.2314 3.2705,-1.8882 1.1954,2.0704 -3.2574,1.8807 z"
       fill="#8f3d3d"
       id="path181" />
    <path
       d="m 35.0234,72.6855 3.2706,-1.8882 1.1953,2.0705 -3.2573,1.8806 z"
       fill="#cccccc"
       id="path182" />
    <path
       d="m 25.0469,67.2529 19.9809,-11.536 1.1954,2.0705 -19.9678,11.5283 z"
       fill="#8f3d3d"
       id="path183" />
    <path
       d="m 18.9881,76.066 c 5.3177,-0.5342 7.797,3.2038 7.6596,7.9419 L 25.289,107.2 c 0.7567,0.041 1.5107,0.087 2.2665,0.133 4.1411,0.251 8.3326,0.506 13.2706,0.024 2.733,-0.125 2.3142,-1.073 0.0676,-1.802 L 38.3184,75.5753 c -0.1226,-1.0754 0.3406,-2.2739 2.0209,-3.274 l -10.8807,6.282 C 25.8172,76.3589 22.1451,75.6284 18.9881,76.066 Z"
       fill="#464654"
       stroke="#2e2e38"
       stroke-width="2.7565"
       stroke-miterlimit="3.99393"
       id="path184" />
    <path
       d="m 92.2256,75.5416 -1.2633,-0.9525 -0.839,1.1435 1.1697,0.9926 z"
       fill="#404040"
       stroke="#333333"
       stroke-width="1.37825"
       stroke-miterlimit="3.99393"
       id="path185" />
    <path
       d="m 35.4239,67.0386 -0.9555,1.683 z"
       fill="#404040"
       id="path186" />
    <path
       d="m 31.4371,73.9755 c 1.0327,-1.2907 1.3688,-2.3793 3.5117,-2.8847 1.02,-0.2406 3.017,-2.3259 0.7433,-3.9154 -2.2737,-1.5895 -3.4076,0.9503 -3.6593,2.067 l -0.884,4.5631 c -0.0584,0.196 0.1223,0.3655 0.255,0.2112 z"
       fill="#404040"
       id="path187" />
    <path
       d="m 12.2188,71.7842 1.221,2.1148 33.5888,-19.3993 0.6525,-0.0977 3.542,-2.0374 0.7499,0.7992 c -0.4822,0.7032 -0.9863,1.4483 -0.7864,2.3109 l 4.7763,-2.7576 -3.7533,-4.0217 z"
       fill="#4d4d4d"
       stroke="#333333"
       stroke-width="1.37824"
       stroke-miterlimit="3.99393"
       id="path188" />
    <path
       d="m 56.8696,56.6157 c 0.7064,-0.4079 0.9485,-1.3112 0.5406,-2.0177 -0.4079,-0.7065 -1.3112,-0.9485 -2.0177,-0.5406 -0.7065,0.4078 -0.9486,1.3112 -0.5407,2.0177 0.4079,0.7065 1.3113,0.9485 2.0178,0.5406 z"
       fill="#5a5a5a"
       stroke="#333333"
       stroke-width="1.37824"
       stroke-miterlimit="3.99393"
       id="path189" />
    <path
       d="m 60.6725,67.3874 c -0.3783,0.0416 -0.7187,-0.2313 -0.7603,-0.6096 l -0.6606,-6.0039 c -0.0417,-0.3783 0.2313,-0.7188 0.6096,-0.7604 0.3783,-0.0416 0.7187,0.2313 0.7603,0.6096 l 0.3262,2.9646 c 0.2652,0.0561 0.5063,0.2203 0.6525,0.4735 0.2733,0.4734 0.1111,1.0788 -0.3623,1.3521 -0.0277,0.016 -0.0559,0.0305 -0.0845,0.0436 l 0.1287,1.1702 c 0.0417,0.3783 -0.2313,0.7187 -0.6096,0.7603 z"
       fill="#3b3b3b"
       stroke="#333333"
       stroke-width="1.37825"
       stroke-miterlimit="3.99393"
       id="path190" />
    <path
       d="m 33.4199,43.8438 1.0209,1.7682 4.9955,-2.8842 -1.0176,-1.7626 z"
       fill="#595959"
       stroke="#333333"
       stroke-width="1.37824"
       stroke-miterlimit="3.99393"
       id="path191" />
    <path
       d="m 55.0762,31.3428 1.0211,1.7687 4.9955,-2.8842 -1.0179,-1.763 z"
       fill="#595959"
       stroke="#333333"
       stroke-width="1.37824"
       stroke-miterlimit="3.99393"
       id="path192" />
    <path
       d="m 35.136,66.86 c -0.0022,0.0035 -0.0042,0.007 -0.0063,0.0106 l -0.9553,1.6824 c -0.0448,0.0793 -0.0562,0.1732 -0.0319,0.261 0.0242,0.0878 0.0823,0.1624 0.1615,0.2075 0.0793,0.0447 0.1732,0.0562 0.261,0.0319 0.0878,-0.0243 0.1624,-0.0823 0.2075,-0.1615 l 0.958,-1.6844 C 35.7169,67.1978 35.7032,67.188 35.6893,67.1783 35.4967,67.0437 35.3123,66.9387 35.136,66.86 Z"
       fill="#999999"
       id="path193" />
    <path
       d="m 31.4371,73.9755 c 1.0327,-1.2907 1.3688,-2.3793 3.5117,-2.8847 1.02,-0.2406 3.017,-2.3259 0.7433,-3.9154 -2.2737,-1.5895 -3.4076,0.9503 -3.6593,2.067 l -0.884,4.5631 c -0.0584,0.196 0.1223,0.3655 0.255,0.2112 z"
       stroke="#333333"
       stroke-width="1.37824"
       stroke-miterlimit="3.99393"
       id="path194" />
    <rect
       x="8.2539101"
       y="53.225601"
       width="6.8464699"
       height="1.37824"
       rx="0.68911898"
       transform="rotate(-30,8.25391,53.2256)"
       fill="#353541"
       id="rect194" />
    <path
       d="M 42.7543,42.6626 41.9781,41.3183 C 41.8791,41.154 41.787,40.9922 41.7023,40.833 l 12.2039,-7.0459 c 0.4779,0.5232 0.8487,1.1461 1.0848,1.8106 z"
       fill="#4d4d4d"
       id="path195" />
    <path
       d="m 41.9807,41.318 1.6598,2.8748 c 1.1459,1.9536 1.0886,1.4532 2.0223,1.0354 l 7.6881,-4.4387 c 4.5909,-2.984 0.2887,-10.9204 -5.3062,-7.8124 l -5.2254,3.0168 c -2.2429,1.2492 -2.2144,3.042 -0.8386,5.3241 z"
       stroke="#333333"
       stroke-width="2.7565"
       stroke-miterlimit="3.99393"
       id="path196" />
    <path
       d="m 91.498,19.5273 1.676,2.9029 3.1799,-1.8359 -1.6759,-2.9029 z"
       fill="#595959"
       id="path197" />
    <path
       d="m 6.90473,56.164 -2.77691,1.6032 9.31348,16.1314 33.5888,-19.3993 0.6526,-0.0977 3.5419,-2.0375 0.7499,0.7993 c -0.4822,0.7031 -0.9863,1.4483 -0.7864,2.3109 0.0475,0.205 0.1346,0.4166 0.2713,0.6357 l 1.54,2.6673 c 0.6519,1.0357 1.8922,1.1733 2.5815,1.096 3.418,-0.7605 4.481,-0.1874 3.7864,0.8847 l 2.1763,-1.2565 8.1742,-9.5916 -3.7385,-4.7412 c -0.9496,-1.1212 -0.7448,-3.312 1.0043,-4.2152 L 73.7244,37.0618 67.9252,27.0174 92.2322,12.9837 C 91.676,11.4298 91.0135,9.9373 89.7964,8.76493 c -1.4078,0.82421 -2.0082,1.39267 -2.6157,1.96787 -0.5931,0.5615 -1.193,1.1295 -2.5576,1.9481 l -2.5295,1.4604 c -1.3705,0.7788 -2.446,1.1829 -3.4792,1.5712 -0.9306,0.3497 -1.8268,0.6865 -2.8734,1.2724 L 67.6834,21.637 67.539,21.3868 58.1806,26.7899 57.8145,26.1558 53.581,28.6 53.1076,29.0722 39.2182,37.0913 c -0.4302,0.2113 -0.4056,0.631 -0.2981,0.8187 l -8.1749,4.7197 c -0.1177,-0.2119 -0.4101,-0.4535 -0.6371,-0.3284 l -10.7869,6.2278 c -0.2732,0.1295 -0.1421,0.4837 -0.0155,0.7052 L 17.356,50.36 18.1718,51.7729 7.8201,57.7495 Z"
       stroke="#333333"
       stroke-width="2.75649"
       stroke-miterlimit="3.99393"
       id="path198" />
    <path
       d="m 13.4401,73.9 33.5904,-19.3994 0.6526,-0.0978 3.5419,-2.0374 0.7499,0.7993 c -0.5968,0.8701 -1.2271,1.8047 -0.515,2.9466 l 1.5399,2.6672 c 0.652,1.0357 1.8923,1.1734 2.5815,1.096 5.199,-1.1567 4.9494,0.7717 1.3539,2.849 l -27.474,15.8622 c -4.7858,-2.9235 -9.6247,-3.2666 -13.2773,-1.7687 -0.5404,0.2216 -0.7805,0.4067 -1.1376,-0.1349 z"
       stroke="#2e2e38"
       stroke-width="2.7565"
       stroke-miterlimit="3.99393"
       id="path199" />
    <path
       d="m 76.9336,35.7518 -6.3242,-10.9539 14.9883,-8.6536 3.1028,5.4091 0.4161,0.7207 c 0.4607,0.7763 1.4889,1.6444 3.171,0.6658 l 3.8997,-2.2516 c 0.0588,-0.0393 0.1044,-0.0222 0.1441,0.0386 l 5.1216,8.8712 c 0.049,0.0668 0.032,0.0612 -0.026,0.098 l -0.184,0.1064 c -0.089,0.0559 -0.112,0.0361 -0.148,-0.0397 L 99.4201,26.8626 C 98.2129,24.841 96.4738,24.4882 94.2194,25.7718 l -4.1949,2.422 -13.0082,7.5102 z"
       fill="#515162"
       id="path200" />
    <path
       d="m 89.0645,22.184 -0.3641,-0.6306 -3.1027,-5.4091 -14.9883,8.6536 3.4819,6.0308 z"
       fill="#5c5c70"
       id="path201" />
    <path
       d="m 82.7264,38.1996 c -0.561,-2.0402 -3.6063,-3.6671 -5.7088,-2.4965 l 13.0082,-7.5103 c -1.6001,1.0033 -4.2902,3.0369 -1.2121,6.3729 1.9609,2.051 2.7158,3.3874 4.3622,5.8606 2.2191,3.3334 4.2354,8.1327 6.0145,12.0252 l -6.0408,3.4967 c -2.806,-3.3534 -5.178,-7.0298 -7.406,-10.9598 -1.3023,-2.2948 -2.2799,-4.1071 -3.0172,-6.7888 z"
       fill="#505062"
       id="path202" />
    <path
       d="m 81.2184,33.2778 -4.2008,2.4253 c 2.1025,-1.1706 5.1478,0.4563 5.7088,2.4965 0.7373,2.6817 1.7149,4.494 3.0172,6.7888 2.228,3.93 4.6,7.6064 7.406,10.9598 L 95.023,54.8638 C 94.7899,54.5418 94.5569,54.2209 94.3241,53.9002 91.2697,49.6932 88.2456,45.528 85.463,39.7014 85.1676,39.0828 84.9752,38.4407 84.7844,37.8037 84.5137,36.9001 84.246,36.0065 83.6913,35.2044 82.9615,34.1489 82.282,33.6224 81.2184,33.2778 Z"
       fill="#454555"
       id="path203" />
    <path
       d="M 97.0997,53.6616 C 96.9442,53.3138 96.7896,52.9666 96.6352,52.62 94.5338,47.9019 92.4713,43.2711 88.8331,37.972 88.4451,37.4069 87.9852,36.9193 87.529,36.4355 86.8817,35.7492 86.2418,35.0706 85.8244,34.1892 85.2341,32.9425 85.1441,32.0518 85.4506,30.8342 l 4.5751,-2.6414 c -1.6001,1.0033 -4.2901,3.0368 -1.2121,6.3728 1.6373,1.7125 2.4338,2.9268 3.6104,4.7205 0.2326,0.3546 0.4801,0.7319 0.7519,1.1402 1.8524,2.7826 3.5636,6.5868 5.1134,10.0323 0.3068,0.6819 0.6072,1.3497 0.9011,1.9928 z"
       fill="#454555"
       id="path204" />
    <path
       d="m 88.0325,48.8328 c -0.2437,-0.3882 -0.4849,-0.7794 -0.7238,-1.1735 1.0914,-0.6307 2.4331,-1.4046 3.7713,-2.1759 1.3553,-0.7812 2.7077,-1.5602 3.7945,-2.186 0.2144,0.4001 0.4266,0.8088 0.6366,1.2238 -1.0781,0.6208 -2.4102,1.3881 -3.7449,2.1574 -1.3244,0.7634 -2.6507,1.5285 -3.7337,2.1542 z"
       fill="#33333d"
       id="path205" />
    <path
       d="m 89.5481,51.1549 c -0.2583,-0.38 -0.5133,-0.7632 -0.7653,-1.1496 1.1376,-0.6577 2.5985,-1.5004 4.0553,-2.3401 1.1527,-0.6644 2.3033,-1.3272 3.2902,-1.8955 0.2,0.4133 0.3979,0.8303 0.5936,1.2486 -0.9659,0.5562 -2.0808,1.1985 -3.1976,1.8422 -1.4251,0.8214 -2.8523,1.6447 -3.9762,2.2944 z"
       fill="#33333d"
       id="path206" />
    <path
       d="m 91.1632,53.4272 c -0.2756,-0.3702 -0.5472,-0.7438 -0.815,-1.1208 0.0253,-0.0146 0.0508,-0.0294 0.0765,-0.0442 1.1602,-0.6709 2.6959,-1.5569 4.2271,-2.4395 0.9143,-0.527 1.8273,-1.0529 2.6582,-1.5316 0.193,0.4222 0.3837,0.8433 0.5721,1.261 -0.8001,0.4609 -1.6715,0.963 -2.5441,1.4659 -1.5104,0.8706 -3.0233,1.7433 -4.1748,2.4092 z"
       fill="#33333d"
       id="path207" />
    <path
       d="m 85.6418,16.2133 -2.3366,-4.047 -4.1216,2.3796 2.3365,4.047"
       fill="#454554"
       id="path208" />
    <path
       d="m 82.7264,38.1996 c -0.561,-2.0402 -3.6063,-3.6671 -5.7088,-2.4965 l 13.0082,-7.5103 c -1.6001,1.0033 -4.2902,3.0369 -1.2121,6.3729 1.9609,2.051 2.7158,3.3874 4.3622,5.8606 2.2191,3.3334 4.2354,8.1327 6.0145,12.0252 l -6.0408,3.4967 c -2.806,-3.3534 -5.178,-7.0298 -7.406,-10.9598 -1.3023,-2.2948 -2.2799,-4.1071 -3.0172,-6.7888 z"
       stroke="#2e2e38"
       stroke-width="2.7565"
       stroke-miterlimit="3.99393"
       id="path209" />
    <path
       d="m 81.972,18.3299 0.9525,3.6148 c 0.1494,0.6992 0.9121,1.6829 2.6157,0.7403 l 2.8649,-1.6541 -2.7642,-4.8192 z"
       fill="#4a4a5a"
       stroke="#2e2e38"
       stroke-width="1.37824"
       stroke-miterlimit="3.99393"
       id="path210" />
    <path
       d="m 85.4832,21.11 c 0.4533,-0.2617 0.6086,-0.8413 0.3469,-1.2946 -0.2617,-0.4533 -0.8413,-0.6086 -1.2945,-0.3469 -0.4533,0.2617 -0.6086,0.8413 -0.3469,1.2946 0.2617,0.4533 0.8413,0.6086 1.2945,0.3469 z"
       fill="#373743"
       id="path211" />
    <path
       d="m 82.176,14.9794 c 0.4121,-0.2379 0.5533,-0.7648 0.3154,-1.1769 -0.2379,-0.412 -0.7649,-0.5532 -1.1769,-0.3153 -0.4121,0.2379 -0.5533,0.7648 -0.3154,1.1769 0.2379,0.412 0.7648,0.5532 1.1769,0.3153 z"
       fill="#373743"
       id="path212" />
    <path
       d="m 85.6418,16.2133 -2.3366,-4.047 -4.1216,2.3796 2.3365,4.047"
       stroke="#2e2e38"
       stroke-width="1.37824"
       stroke-miterlimit="3.99393"
       id="path213" />
    <path
       d="M 93.1704,22.4284 81.4336,2.09961 83.3113,1.01551 c 1.7887,1.35641 3.5002,3.04396 4.6275,5.00771 l 8.4116,14.56928"
       fill="#4d4d4d"
       id="path214" />
    <path
       d="m 83.3113,1.01551 -1.8777,1.0841 3.4786,6.02506 3.1799,-1.83593 -0.1533,-0.26552 C 86.8115,4.05947 85.1,2.37192 83.3113,1.01551 Z"
       fill="#595959"
       id="path215" />
    <path
       d="M 87.2007,4.8801 84.082,6.68066 84.9172,8.12719 88.0971,6.29126 87.9438,6.02574 C 87.7182,5.63264 87.4691,5.25062 87.2007,4.8801 Z"
       fill="#4d4d4d"
       id="path216" />
    <path
       d="m 83.3113,1.01551 -1.8777,1.0841 3.4786,6.02506 3.1799,-1.83593 -0.1533,-0.26552 C 86.8115,4.05947 85.1,2.37192 83.3113,1.01551 Z"
       stroke="#333333"
       stroke-width="1.37824"
       stroke-miterlimit="3.99393"
       id="path217" />
    <path
       d="M 89.1626,8.13792 92.5219,13.9565 89.342,15.7924 85.9707,9.95312 Z"
       fill="#595959"
       id="path218" />
    <path
       d="M 93.1704,22.4284 81.4336,2.09961 83.3113,1.01551 c 1.7887,1.35641 3.5002,3.04396 4.6275,5.00771 l 8.4116,14.56928"
       stroke="#333333"
       stroke-width="1.37824"
       stroke-miterlimit="3.99393"
       id="path219" />
    <path
       d="m 76.9336,35.7518 -6.3242,-10.9539 14.9883,-8.6536 3.1028,5.4091 0.4161,0.7207 c 0.4607,0.7763 1.4889,1.6444 3.171,0.6658 l 3.8997,-2.2516 c 0.0588,-0.0393 0.1044,-0.0222 0.1441,0.0386 l 5.1216,8.8712 c 0.049,0.0668 0.032,0.0612 -0.026,0.098 l -0.184,0.1064 c -0.089,0.0559 -0.112,0.0361 -0.148,-0.0397 L 99.4201,26.8626 C 98.2129,24.841 96.4738,24.4882 94.2194,25.7718 l -4.1949,2.422 z m 0,0 0.0827,-0.0478"
       stroke="#2e2e38"
       stroke-width="2.7565"
       stroke-miterlimit="3.99393"
       id="path220" />
  </g>
</svg>
