<svg width="110" height="110" viewBox="0 0 110 110" fill="none" xmlns="http://www.w3.org/2000/svg">
<g clip-path="url(#clip0_2397_1733)">
<path fill-rule="evenodd" clip-rule="evenodd" d="M1.76273 66.1033C1.78227 65.986 1.80057 65.8721 1.81761 65.7612L2.01146 65.6127C2.02612 65.6015 2.02979 65.5809 2.01994 65.5653L1.87805 65.3406C1.88153 65.3144 1.88493 65.2883 1.88825 65.2623L2.06974 65.1083C2.08299 65.0971 2.08621 65.0779 2.07735 65.063L1.93786 64.8273C1.94049 64.8007 1.94303 64.7742 1.94548 64.7478L2.10825 64.6096C2.12214 64.5978 2.12491 64.5775 2.1147 64.5624L1.9756 64.3572C1.97713 64.332 1.97857 64.3069 1.97993 64.2818L2.16448 64.1427C2.1809 64.1303 2.18348 64.1067 2.17012 64.091L1.99448 63.8855C1.99512 63.8524 1.9956 63.8193 1.99595 63.7861L2.1866 63.6569C2.20457 63.6447 2.20759 63.6194 2.19298 63.6034L1.99317 63.3836C1.99259 63.3591 1.99194 63.3344 1.99121 63.3096L2.15019 63.161C2.16423 63.1479 2.16535 63.126 2.15272 63.1115L1.97326 62.9056C1.97136 62.8731 1.96935 62.8405 1.96722 62.8076L2.12685 62.6801C2.14344 62.6668 2.14486 62.6421 2.12988 62.6271L1.93913 62.4352C1.91875 62.1964 1.89301 61.9443 1.86205 61.6735C1.81527 61.2641 2.22372 60.8067 2.69125 60.7411L4.87549 60.4347C7.22546 61.0941 8.65021 60.1443 9.68518 58.3488L13.4043 61.3455L11.6329 63.4059C11.4616 63.605 11.2098 63.7391 10.9479 63.7196C7.61807 63.4722 5.65303 64.6157 3.76839 66.8929C3.38648 67.3543 2.85575 67.307 2.56645 67.2259C2.22671 67.1307 1.6577 66.7338 1.76273 66.1033ZM11.4242 61.1574C11.587 60.6806 11.3325 60.162 10.8557 59.9992C10.3789 59.8364 9.86037 60.091 9.69756 60.5678C9.53476 61.0446 9.78931 61.5631 10.2661 61.7259C10.7429 61.8887 11.2614 61.6342 11.4242 61.1574Z" fill="#44413B"/>
<circle cx="2.71986" cy="66.4353" r="0.491174" transform="rotate(-98.6958 2.71986 66.4353)" fill="#3B3833"/>
<path d="M42.4728 58.6472C39.3152 57.7485 37.2583 54.3626 37.3138 50.9184L35.6675 52.2718L34.6942 53.9739C35.4884 55.9603 35.9074 57.1279 37.3897 58.41C38.4549 59.3313 40.7191 59.7445 42.4109 59.2311C42.6266 59.1657 42.7241 59.0756 42.7481 58.9666C42.7738 58.8504 42.7114 58.7151 42.4728 58.6472Z" fill="#93702A" stroke="#503D16" stroke-width="1.44732"/>
<path fill-rule="evenodd" clip-rule="evenodd" d="M77.4048 8.69018L74.8281 10.1554C74.7867 10.1789 74.7343 10.1575 74.7212 10.1118L74.5991 9.68706C74.5595 9.54935 74.4012 9.48541 74.2771 9.55705L73.5647 9.96835C73.5366 9.98455 73.5023 9.98014 73.4793 9.95981L72.7756 10.3661C72.7377 10.388 72.7032 10.4154 72.6734 10.4475L72.1213 11.0405C72.0915 11.0725 72.057 11.0999 72.0191 11.1218L69.8409 12.3794C69.8058 12.3997 69.7937 12.4446 69.814 12.4797L70.2474 13.2303C70.2974 13.3169 70.2677 13.4277 70.1811 13.4777L68.5038 14.4461C68.4171 14.4961 68.3064 14.4664 68.2564 14.3798L67.823 13.6292C67.8027 13.5941 67.7579 13.5821 67.7228 13.6023L66.3195 14.4125C66.2844 14.4327 66.2724 14.4776 66.2927 14.5127L66.726 15.2634C66.7761 15.35 66.7464 15.4607 66.6598 15.5107L64.9824 16.4791C64.8958 16.5291 64.7851 16.4995 64.7351 16.4128L64.3017 15.6622C64.2814 15.6271 64.2365 15.6151 64.2014 15.6354L62.7982 16.4455C62.7631 16.4658 62.7511 16.5107 62.7714 16.5458L63.2047 17.2964C63.2547 17.383 63.2251 17.4938 63.1384 17.5438L61.4611 18.5122C61.3745 18.5622 61.2638 18.5325 61.2138 18.4459L60.7804 17.6953C60.7601 17.6601 60.7152 17.6481 60.6801 17.6684L59.2769 18.4785C59.2418 18.4988 59.2298 18.5437 59.25 18.5788L59.6834 19.3294C59.7334 19.416 59.7037 19.5268 59.6171 19.5768L57.9398 20.5452C57.8532 20.5952 57.7424 20.5655 57.6924 20.4789L57.2591 19.7283C57.2388 19.6932 57.1939 19.6812 57.1588 19.7014L55.7556 20.5116C55.7205 20.5318 55.7085 20.5767 55.7287 20.6118L56.1621 21.3625C56.2121 21.4491 56.1824 21.5598 56.0958 21.6098L54.4185 22.5782C54.3319 22.6282 54.2211 22.5986 54.1711 22.5119L53.7377 21.7613C53.7175 21.7262 53.6726 21.7142 53.6375 21.7345L52.2343 22.5446C52.1992 22.5649 52.1871 22.6098 52.2074 22.6449L52.6408 23.3955C52.6908 23.4821 52.6611 23.5929 52.5745 23.6429L50.8972 24.6113C50.8106 24.6613 50.6998 24.6316 50.6498 24.545L50.2164 23.7944C50.1962 23.7592 50.1513 23.7472 50.1162 23.7675L48.713 24.5776C48.6778 24.5979 48.6658 24.6428 48.6861 24.6779L49.1195 25.4285C49.1695 25.5151 49.1398 25.6259 49.0532 25.6759L47.3759 26.6443C47.2892 26.6943 47.1785 26.6646 47.1285 26.578L46.6951 25.8274C46.6748 25.7923 46.63 25.7803 46.5949 25.8005L45.1916 26.6107C45.1565 26.6309 45.1445 26.6758 45.1648 26.7109L45.5981 27.4616C45.6482 27.5482 45.6185 27.6589 45.5319 27.7089L43.8545 28.6773C43.7679 28.7273 43.6572 28.6977 43.6072 28.611L43.1738 27.8604C43.1535 27.8253 43.1086 27.8133 43.0735 27.8336L41.2072 28.9111C40.8039 29.144 40.0373 29.237 39.568 29.1634C39.5137 29.1549 39.4577 29.163 39.4101 29.1905L29.5762 34.8682L31.9752 39.0234C32.2105 39.431 32.5604 39.7255 32.9481 39.9094L32.9472 39.9087C33.5898 40.2138 34.3366 40.2153 34.8389 39.9253L72.6599 18.0893C72.6971 18.0679 72.7449 18.081 72.7664 18.1183L77.0875 25.603L81.1547 23.2548L83.5482 21.6506C83.6926 21.5538 83.7667 21.3811 83.7372 21.2097L82.2666 12.6645L79.0455 7.0855C78.9643 6.94495 78.7846 6.89679 78.6441 6.97794L77.3685 7.71439L77.3933 7.75433C77.4152 7.78958 77.4035 7.83593 77.3676 7.85667L76.8366 8.16325C76.965 8.14462 77.2707 8.42272 77.4222 8.58041C77.4542 8.61377 77.445 8.66731 77.4048 8.69018Z" fill="#CC9424"/>
<path d="M30.6022 96.0535L30.4616 95.6435L43.9443 87.6138L44.4898 88.5587L30.9682 96.0771L30.6022 96.0535Z" fill="#3F3C37"/>
<path fill-rule="evenodd" clip-rule="evenodd" d="M1.76273 66.1033C1.78227 65.986 1.80057 65.8721 1.81761 65.7612L2.01146 65.6127C2.02612 65.6015 2.02979 65.5809 2.01994 65.5653L1.87805 65.3406C1.88153 65.3144 1.88493 65.2883 1.88825 65.2623L2.06974 65.1083C2.08299 65.0971 2.08621 65.0779 2.07735 65.063L1.93786 64.8273C1.94049 64.8007 1.94303 64.7742 1.94548 64.7478L2.10825 64.6096C2.12214 64.5978 2.12491 64.5775 2.1147 64.5624L1.9756 64.3572C1.97713 64.332 1.97857 64.3069 1.97993 64.2818L2.16448 64.1427C2.1809 64.1303 2.18348 64.1067 2.17012 64.091L1.99448 63.8855C1.99512 63.8524 1.9956 63.8193 1.99595 63.7861L2.1866 63.6569C2.20457 63.6447 2.20759 63.6194 2.19298 63.6034L1.99317 63.3836C1.99259 63.3591 1.99194 63.3344 1.99121 63.3096L2.15019 63.161C2.16423 63.1479 2.16535 63.126 2.15272 63.1115L1.97326 62.9056C1.97136 62.8731 1.96935 62.8405 1.96722 62.8076L2.12685 62.6801C2.14344 62.6668 2.14486 62.6421 2.12988 62.6271L1.93913 62.4352C1.91875 62.1964 1.89301 61.9443 1.86205 61.6735C1.81527 61.2641 2.22372 60.8067 2.69125 60.7411L4.87549 60.4347C7.22546 61.0941 8.65021 60.1443 9.68518 58.3488L13.4043 61.3455L11.6329 63.4059C11.4616 63.605 11.2098 63.7391 10.9479 63.7196C7.61807 63.4722 5.65303 64.6157 3.76839 66.8929C3.38648 67.3543 2.85575 67.307 2.56645 67.2259C2.22671 67.1307 1.6577 66.7338 1.76273 66.1033ZM11.4242 61.1574C11.587 60.6806 11.3325 60.162 10.8557 59.9992C10.3789 59.8364 9.86037 60.091 9.69756 60.5678C9.53476 61.0446 9.78931 61.5631 10.2661 61.7259C10.7429 61.8887 11.2614 61.6342 11.4242 61.1574Z" stroke="#37342F" stroke-width="1.44732"/>
<path fill-rule="evenodd" clip-rule="evenodd" d="M7.77018 61.8901C7.99494 62.8675 7.74667 63.9752 7.12776 64.3586C4.07465 66.2495 1.24998 69.935 1.61318 70.564C2.04308 71.3087 3.23646 71.3943 3.76701 71.088L9.28358 68.0051C11.0249 66.9998 13.2955 66.9766 14.9485 67.8148C16.4289 68.5656 17.729 70.0463 18.2731 71.7625L25.2089 94.8254L25.3164 95.0116L24.1811 95.667C24.146 95.6873 24.134 95.7322 24.1543 95.7673L24.7689 96.8318C24.7798 96.8508 24.799 96.8639 24.8206 96.8675C26.1762 97.094 26.9573 97.1011 28.3528 96.9705C28.3633 96.9695 28.3737 96.9662 28.3828 96.9609L41.239 89.5384C43.8873 88.0094 45.8506 86.8157 47.535 85.1765C47.6267 85.0873 47.621 84.9388 47.524 84.8554L45.2029 82.8583C44.483 82.2388 43.9488 81.4319 43.6598 80.5272L39.7104 68.163C38.9547 65.7971 39.9496 63.2244 42.1005 61.9825C42.1088 61.9778 42.1174 61.9737 42.1263 61.9703L43.6566 61.3919C44.3292 61.1465 48.5681 58.6613 52.1564 56.5074C52.6648 56.2022 52.808 55.5312 52.4703 55.0438L52.287 54.7792C49.665 51.3137 48.9982 49.3118 50.0166 45.091L51.34 44.1678C51.3694 44.1473 51.3797 44.1085 51.3643 44.0761L50.5423 42.5116L81.8295 24.4479L79.5276 20.4609L7.77018 61.8901ZM38.3925 50.0267L40.4584 48.8339C41.9975 47.9453 43.4141 47.8746 44.7138 48.3724C44.8349 48.4187 44.9545 48.4671 45.0723 48.5175C45.2498 48.5935 45.3781 48.7451 45.5038 48.8937C45.5197 48.9125 45.5356 48.9313 45.5515 48.9499C45.6957 49.1179 45.898 49.2318 46.1168 49.2674C46.1423 49.2715 46.1678 49.2755 46.1935 49.2794C46.3865 49.3092 46.5835 49.3396 46.7398 49.4539C47.3963 49.9338 47.9346 50.4992 48.3042 51.1393L49.9311 53.9572C50.4783 54.905 50.1536 56.1169 49.2058 56.6641L42.9504 60.2757C41.83 60.9225 40.6127 61.0158 39.4626 60.6919C39.3203 60.6518 39.2045 60.5537 39.1009 60.4483C38.8919 60.2354 38.6135 60.111 38.3238 60.0906C38.178 60.0803 38.03 60.0559 37.9075 59.9761C37.8305 59.9259 37.7543 59.8738 37.6789 59.8199C35.9952 58.6158 34.2622 56.0215 34.8712 54.1273C35.1711 53.1946 37.1305 50.9758 38.3925 50.0267Z" fill="#C58B16"/>
<path d="M7.70216 63.0152L8.51847 62.5439L7.09144 58.1572C7.07073 58.1075 6.97541 58.1054 6.90373 58.1452C6.8339 58.1839 6.78729 58.2629 6.79426 58.3288L7.07818 59.8058C7.08914 59.8628 7.08367 59.9218 7.06239 59.9758C7.03921 60.0346 7.03483 60.0992 7.04983 60.1606L7.53739 62.1564C7.54552 62.1898 7.55656 62.2223 7.57037 62.2537L7.65097 62.4368L7.59255 62.9433C7.58564 63.0032 7.64993 63.0454 7.70216 63.0152Z" fill="#B37E14"/>
<path d="M74.8319 10.1562L77.4087 8.69097C77.4489 8.66811 77.4581 8.61456 77.426 8.5812C77.2745 8.42351 76.9689 8.14541 76.8405 8.16404L77.3715 7.85747C77.4074 7.83672 77.419 7.79037 77.3972 7.75512L76.6755 6.59189C76.6099 6.44863 76.3095 6.24504 76.0206 6.17145C75.7423 6.10054 75.3805 6.25115 75.2221 6.44342L73.2313 9.27675C73.182 9.34694 73.1779 9.43936 73.2208 9.51365L73.4682 9.94226C73.4885 9.97739 73.5334 9.98943 73.5686 9.96915L74.281 9.55784C74.405 9.48621 74.5634 9.55014 74.603 9.68785L74.725 10.1126C74.7381 10.1583 74.7906 10.1797 74.8319 10.1562Z" fill="#44413B" stroke="#37342F" stroke-width="2.89464"/>
<path d="M83.7397 21.2098L83.1668 15.088C83.1606 15.0217 83.1454 14.9565 83.1216 14.8943L82.2691 12.6646L83.7397 21.2098Z" fill="#AD7E1F"/>
<path d="M80.8953 22.8273L81.8301 24.4465L50.5429 42.5102L50.607 42.6322L48.9144 42.4921C48.8905 42.4902 48.869 42.4765 48.8569 42.4557L48.6608 42.1159C48.4986 41.8351 48.5948 41.476 48.8757 41.3138L80.8953 22.8273Z" fill="#A17112"/>
<path d="M52.1309 41.5967L52.9858 43.0775C53.0061 43.1126 53.051 43.1247 53.0861 43.1044L54.4893 42.2942C54.5244 42.274 54.5364 42.2291 54.5162 42.194L53.6612 40.7131L52.1309 41.5967Z" fill="#C58B16"/>
<path d="M55.6522 39.5636L56.5071 41.0445C56.5274 41.0796 56.5723 41.0916 56.6074 41.0714L58.0106 40.2612C58.0457 40.2409 58.0578 40.1961 58.0375 40.1609L57.1825 38.6801L55.6522 39.5636Z" fill="#C58B16"/>
<path d="M59.1735 37.5306L60.0285 39.0115C60.0487 39.0466 60.0936 39.0586 60.1287 39.0383L61.5319 38.2282C61.567 38.2079 61.5791 38.163 61.5588 38.1279L60.7038 36.6471L59.1735 37.5306Z" fill="#C58B16"/>
<path d="M62.6948 35.4976L63.5498 36.9784C63.5701 37.0135 63.6149 37.0256 63.65 37.0053L65.0533 36.1951C65.0884 36.1749 65.1004 36.13 65.0801 36.0949L64.2252 34.614L62.6948 35.4976Z" fill="#C58B16"/>
<path d="M66.2161 33.4645L67.0711 34.9454C67.0914 34.9805 67.1363 34.9925 67.1714 34.9722L68.5746 34.1621C68.6097 34.1418 68.6217 34.0969 68.6014 34.0618L67.7465 32.581L66.2161 33.4645Z" fill="#C58B16"/>
<path d="M69.7375 31.4315L70.5924 32.9123C70.6127 32.9475 70.6576 32.9595 70.6927 32.9392L72.0959 32.1291C72.131 32.1088 72.143 32.0639 72.1228 32.0288L71.2678 30.548L69.7375 31.4315Z" fill="#C58B16"/>
<path d="M73.2588 29.3985L74.1137 30.8793C74.134 30.9144 74.1789 30.9264 74.214 30.9062L75.6172 30.096C75.6523 30.0758 75.6644 30.0309 75.6441 29.9958L74.7891 28.5149L73.2588 29.3985Z" fill="#C58B16"/>
<path d="M76.7801 27.3654L77.6351 28.8463C77.6553 28.8814 77.7002 28.8934 77.7353 28.8731L79.1385 28.063C79.1736 28.0427 79.1857 27.9978 79.1654 27.9627L78.3104 26.4819L76.7801 27.3654Z" fill="#C58B16"/>
<path d="M80.3014 25.3324L81.1564 26.8132C81.1767 26.8483 81.2215 26.8604 81.2566 26.8401L82.6599 26.03C82.695 26.0097 82.707 25.9648 82.6867 25.9297C82.466 25.5473 81.909 24.5775 81.8318 24.4489L80.3014 25.3324Z" fill="#C58B16"/>
<path d="M52.1309 41.5967L52.9858 43.0775C53.0061 43.1126 53.051 43.1247 53.0861 43.1044L54.4893 42.2942C54.5244 42.274 54.5364 42.2291 54.5162 42.194L53.6612 40.7131L52.1309 41.5967Z" stroke="#5C410A" stroke-width="1.44732"/>
<path d="M55.6522 39.5636L56.5071 41.0445C56.5274 41.0796 56.5723 41.0916 56.6074 41.0714L58.0106 40.2612C58.0457 40.2409 58.0578 40.1961 58.0375 40.1609L57.1825 38.6801L55.6522 39.5636Z" stroke="#5C410A" stroke-width="1.44732"/>
<path d="M59.1735 37.5306L60.0285 39.0115C60.0487 39.0466 60.0936 39.0586 60.1287 39.0383L61.5319 38.2282C61.567 38.2079 61.5791 38.163 61.5588 38.1279L60.7038 36.6471L59.1735 37.5306Z" stroke="#5C410A" stroke-width="1.44732"/>
<path d="M62.6948 35.4976L63.5498 36.9784C63.5701 37.0135 63.6149 37.0256 63.65 37.0053L65.0533 36.1951C65.0884 36.1749 65.1004 36.13 65.0801 36.0949L64.2252 34.614L62.6948 35.4976Z" stroke="#5C410A" stroke-width="1.44732"/>
<path d="M66.2161 33.4645L67.0711 34.9454C67.0914 34.9805 67.1363 34.9925 67.1714 34.9722L68.5746 34.1621C68.6097 34.1418 68.6217 34.0969 68.6014 34.0618L67.7465 32.581L66.2161 33.4645Z" stroke="#5C410A" stroke-width="1.44732"/>
<path d="M69.7375 31.4315L70.5924 32.9123C70.6127 32.9475 70.6576 32.9595 70.6927 32.9392L72.0959 32.1291C72.131 32.1088 72.143 32.0639 72.1228 32.0288L71.2678 30.548L69.7375 31.4315Z" stroke="#5C410A" stroke-width="1.44732"/>
<path d="M73.2588 29.3985L74.1137 30.8793C74.134 30.9144 74.1789 30.9264 74.214 30.9062L75.6172 30.096C75.6523 30.0758 75.6644 30.0309 75.6441 29.9958L74.7891 28.5149L73.2588 29.3985Z" stroke="#5C410A" stroke-width="1.44732"/>
<path d="M76.7801 27.3654L77.6351 28.8463C77.6553 28.8814 77.7002 28.8934 77.7353 28.8731L79.1385 28.063C79.1736 28.0427 79.1857 27.9978 79.1654 27.9627L78.3104 26.4819L76.7801 27.3654Z" stroke="#5C410A" stroke-width="1.44732"/>
<path d="M80.3014 25.3324L81.1564 26.8132C81.1767 26.8483 81.2215 26.8604 81.2566 26.8401L82.6599 26.03C82.695 26.0097 82.707 25.9648 82.6867 25.9297C82.466 25.5473 81.909 24.5775 81.8318 24.4489L80.3014 25.3324Z" stroke="#5C410A" stroke-width="1.44732"/>
<circle cx="34.4096" cy="51.0324" r="0.568652" transform="rotate(-30 34.4096 51.0324)" fill="#8F6D28"/>
<path d="M42.8377 43.6775L42.6667 46.8902C43.3888 47.3327 44.5421 47.4022 45.5515 47.0447L45.5651 47.069C45.8375 47.5408 46.4409 47.7024 46.9127 47.43C47.3846 47.1576 47.5463 46.5543 47.2739 46.0824C47.2555 46.0519 47.2368 46.0218 47.2157 45.993C47.9257 45.2267 48.1647 44.686 48.2709 43.4568C48.8663 43.0745 48.4135 42.2486 47.6635 42.4047L46.5065 42.5892C46.3539 42.6136 46.1983 42.5678 46.0831 42.4647L45.7866 42.1995C45.7221 42.1418 45.6412 42.1102 45.5588 42.1065L42.8377 43.6775Z" fill="#B37E14"/>
<path d="M37.0638 62.5752C37.6228 62.2524 37.8143 61.5375 37.4916 60.9785C37.1689 60.4195 36.454 60.2279 35.8949 60.5507C35.5529 60.7482 35.3484 61.0925 35.3152 61.4581L33.5324 62.1264C33.2703 62.2246 33.1374 62.5167 33.2357 62.7789C33.334 63.041 33.626 63.1737 33.8882 63.0755L35.6707 62.4074C36.0364 62.7579 36.603 62.8412 37.0638 62.5752Z" fill="#57534B"/>
<path d="M37.7472 50.5669L34.8669 52.7299C34.6315 52.9067 34.415 53.1098 34.2447 53.3501C33.2801 54.7108 33.1155 56.0194 33.9331 57.6237C34.6203 58.9724 36.0051 59.7889 37.8358 60.1701C37.9004 60.1836 37.9673 60.1837 38.0321 60.1713L38.4077 60.0996C38.3803 60.0958 38.3527 60.0929 38.3251 60.0909C38.1792 60.0806 38.0313 60.0563 37.9088 59.9764C37.8318 59.9262 37.7555 59.8741 37.6801 59.8202C35.9965 58.6161 34.2634 56.0219 34.8725 54.1276C35.1246 53.3435 36.5497 51.6503 37.7472 50.5669Z" fill="#B88114"/>
<path d="M45.0369 89.2468L31.1276 97.2774C31.0278 97.335 30.9002 97.3008 30.8426 97.201L30.4559 96.5313C30.3983 96.4315 30.4325 96.3039 30.5322 96.2463L48.4448 86.063C48.55 86.0032 48.6838 86.0395 48.7443 86.1443L48.9321 86.4696C48.9929 86.5749 48.9568 86.7096 48.8515 86.7704L47.3114 87.6595C46.6695 88.2608 46.0154 88.6819 45.0369 89.2468Z" fill="#46433C"/>
<circle cx="36.479" cy="61.5645" r="0.576554" transform="rotate(-30 36.479 61.5645)" fill="#3F3C36"/>
<path d="M44.267 43.0895L47.2226 45.4746C47.2757 45.5175 47.2925 45.5918 47.2601 45.6519C46.3634 47.3172 43.8931 47.6415 42.6669 46.89L40.611 48.1254C40.5425 48.1665 40.4538 48.1454 40.4112 48.0779L39.6463 46.8661C39.6322 46.8437 39.6312 46.8154 39.6438 46.7921L40.5376 45.1342L44.1014 43.0766C44.154 43.0463 44.2198 43.0514 44.267 43.0895Z" fill="#47443D"/>
<path d="M46.2827 44.7148L47.2234 45.4738C47.2765 45.5167 47.2933 45.591 47.2609 45.6511C46.3642 47.3164 43.8939 47.6407 42.6676 46.8892C38.0502 49.6638 45.3009 45.3048 46.2827 44.7148Z" fill="#3F3C37"/>
<circle cx="46.1119" cy="46.8512" r="0.95408" transform="rotate(-30 46.1119 46.8512)" fill="#4B4841"/>
<path d="M46.0052 44.4916L44.2672 43.0891C44.22 43.0509 44.1541 43.0458 44.1016 43.0762L45.3706 42.3435C45.511 42.2624 45.6907 42.3105 45.7718 42.451L46.0307 42.8995C46.1714 43.1431 46.1858 43.6301 46.07 43.6969L46.183 43.8926L46.0052 44.4916Z" fill="#3C3934"/>
<path d="M11.8773 46.7695L8.43591 48.8778C8.32804 48.9439 8.19056 48.8605 8.1993 48.7343L8.2602 47.8551C8.26881 47.7307 8.13504 47.6472 8.02708 47.7095L7.47759 48.0267C7.44036 48.0482 7.39276 48.0355 7.37127 47.9983L5.95746 45.5495C5.80056 45.2777 5.69836 44.9313 5.89679 44.8167L6.85796 44.2618C7.24617 44.0377 7.70202 43.9606 8.14232 44.0447L11.5369 44.693C11.6036 44.7057 11.6614 44.7468 11.6953 44.8056L11.9963 45.3269C12.0179 45.3644 12.0047 45.4125 11.9669 45.4337L11.2728 45.8228C11.1718 45.8795 11.1658 46.0227 11.2617 46.0875L11.8831 46.5078C11.9769 46.5713 11.9738 46.7104 11.8773 46.7695Z" fill="#49463F" stroke="#37342F" stroke-width="2.89464"/>
<path d="M8.43501 48.8794L11.8764 46.7711C11.9729 46.712 11.976 46.5729 11.8822 46.5094L11.2608 46.0892C11.2069 46.0527 11.1852 45.9915 11.1945 45.9348L14.7134 43.9031C14.8405 43.8297 14.9581 43.741 15.0636 43.6389L17.3074 41.4664C17.3211 41.453 17.3365 41.4415 17.3531 41.4319L29.2277 34.576C29.3022 34.5331 29.3974 34.5586 29.4404 34.633L31.9759 39.0247C32.6012 40.1077 34.0347 40.392 34.8399 39.9271L72.6609 18.0911C72.6981 18.0697 72.7457 18.0824 72.7672 18.1196L76.3517 24.3283L8.55361 63.4716C8.50918 63.4972 8.45253 63.4736 8.43944 63.424L6.97385 57.8683C6.96816 57.8468 6.94559 57.8344 6.92436 57.8412L6.81873 57.875C6.79682 57.882 6.77364 57.8686 6.76882 57.8461L5.89795 53.7802C5.86655 53.4809 7.07717 49.0792 7.29578 48.2877C7.31751 48.2091 7.36898 48.1434 7.43967 48.1026L8.14476 47.6955C8.2119 47.7141 8.26482 47.777 8.2593 47.8567L8.1984 48.7359C8.18966 48.8621 8.32714 48.9455 8.43501 48.8794Z" fill="#D89618"/>
<path d="M32.9492 39.9082C33.5918 40.2133 34.3386 40.2148 34.8409 39.9248L72.6619 18.0888C72.6991 18.0673 72.7467 18.0801 72.7682 18.1173L74.2455 20.6762L37.7117 41.6554C36.7902 42.1846 35.6381 42.0917 34.8132 41.4219L32.9492 39.9082Z" fill="#CA8D16"/>
<path d="M12.8281 61.0008L11.5849 61.7185L8.79432 51.2844L10.0375 50.5666L12.8281 61.0008Z" fill="#CA8D16"/>
<path d="M14.4854 60.044L13.2422 60.7617L10.4516 50.3276L11.6948 49.6098L14.4854 60.044Z" fill="#CA8D16"/>
<path d="M16.1427 59.0871L14.8995 59.8049L12.1089 49.3707L13.3521 48.653L16.1427 59.0871Z" fill="#CA8D16"/>
<path d="M17.7999 58.1303L16.5568 58.8481L13.7662 48.4139L15.0093 47.6961L17.7999 58.1303Z" fill="#CA8D16"/>
<path d="M19.4572 57.1735L18.214 57.8912L15.4235 47.4571L16.6666 46.7393L19.4572 57.1735Z" fill="#CA8D16"/>
<path d="M21.1145 56.2166L19.8713 56.9344L17.0807 46.5002L18.3239 45.7825L21.1145 56.2166Z" fill="#CA8D16"/>
<path d="M22.7718 55.2598L21.5286 55.9776L18.738 45.5434L19.9812 44.8256L22.7718 55.2598Z" fill="#CA8D16"/>
<path d="M24.4291 54.303L23.1859 55.0207L20.3953 44.5866L21.6385 43.8688L24.4291 54.303Z" fill="#CA8D16"/>
<path d="M26.0863 53.3461L24.8432 54.0639L22.0526 43.6297L23.2958 42.912L26.0863 53.3461Z" fill="#CA8D16"/>
<path d="M27.7436 52.3893L26.5004 53.1071L23.7099 42.6729L24.953 41.9552L27.7436 52.3893Z" fill="#CA8D16"/>
<path d="M29.4009 51.4325L28.1577 52.1502L25.3671 41.7161L26.6103 40.9983L29.4009 51.4325Z" fill="#CA8D16"/>
<path d="M31.0582 50.4756L29.815 51.1934L27.0244 40.7592L28.2676 40.0415L31.0582 50.4756Z" fill="#CA8D16"/>
<path d="M32.7155 49.5188L31.4723 50.2366L28.6817 39.8024L29.9249 39.0847L32.7155 49.5188Z" fill="#CA8D16"/>
<path d="M16.8241 44.7246L9.93741 48.7007C8.61694 49.463 8.27338 51.3166 9.03574 52.6371C9.7981 53.9575 11.6848 54.5235 13.0053 53.7611L13.3772 53.5463C13.4905 53.481 13.6097 53.4266 13.7332 53.3838L19.7023 51.3201C21.4745 50.675 19.2659 46.6712 18.7888 45.9522L18.1868 45.0447C17.8884 44.5949 17.2916 44.4547 16.8241 44.7246Z" fill="#B88014"/>
<path d="M16.2908 45.0984L10.0164 48.7209C8.72372 49.4672 8.28084 51.1203 9.02717 52.4129C9.7735 53.7056 11.4264 54.1485 12.7191 53.4021C13.015 53.2313 13.2663 53.013 13.4691 52.7624L18.1557 47.2704C18.3896 46.9963 18.4135 46.6003 18.2143 46.3001L17.6249 45.4117C17.3328 44.9714 16.7485 44.8341 16.2908 45.0984Z" fill="#4E4A43"/>
<path d="M16.0093 45.2629L14.2124 47.5221C13.7584 48.0928 14.4281 48.8699 15.0596 48.5053L17.5151 47.0876C17.9128 46.858 18.2023 46.2861 18.0008 45.9758L17.6271 45.4125C17.3349 44.9722 16.7506 44.8349 16.293 45.0992L16.0093 45.2629Z" fill="#44413B"/>
<circle cx="11.368" cy="51.0618" r="1.43607" transform="rotate(-30 11.368 51.0618)" fill="#44413B"/>
<path d="M12.2439 52.2006L10.2371 50.1769C10.3102 50.0835 10.3956 49.9982 10.4928 49.9237L12.4995 51.9474C12.4265 52.0407 12.3411 52.1261 12.2439 52.2006Z" fill="#3C3934"/>
<rect x="18.2266" y="49.5439" width="1.47417" height="0.966972" rx="0.483486" transform="rotate(-8.93565 18.2266 49.5439)" fill="#9C6E11"/>
<circle cx="16.8738" cy="51.1478" r="0.505293" transform="rotate(-30 16.8738 51.1478)" fill="#D93726"/>
<path d="M49.6187 47.32L46.2197 49.2825C46.4049 49.3112 46.5921 49.3437 46.742 49.4532C47.3985 49.9331 47.9368 50.4985 48.3064 51.1386L49.9333 53.9565C50.4805 54.9043 50.1558 56.1162 49.208 56.6634L42.9526 60.275C41.8322 60.9218 40.6149 61.0152 39.4648 60.6912C39.386 60.669 39.3153 60.629 39.2503 60.5799C39.7208 61.5859 40.022 62.5324 40.2989 63.7022C40.7427 63.0103 41.3524 62.4151 42.1028 61.9819C42.111 61.9771 42.1196 61.973 42.1285 61.9696L43.6588 61.3913C44.3314 61.1459 48.5703 58.6606 52.1586 56.5067C52.667 56.2016 52.8102 55.5305 52.4725 55.0431L52.2892 54.7785C50.1751 51.9843 49.3321 50.1416 49.6187 47.32Z" fill="#B88114"/>
<path d="M47.3245 32.6387L72.696 17.9905L73.9687 20.1947L82.6987 15.1544L82.2702 12.6648L79.6011 8.04165L43.8583 28.6777C42.5488 29.4338 41.5738 30.1057 40.7506 30.8119C40.587 30.9523 40.5028 31.1691 40.5552 31.3782C41.169 33.8291 44.9042 34.0361 47.3245 32.6387Z" fill="#BA8721"/>
<path d="M44.8827 29.1759C43.253 30.0456 42.1789 30.4855 40.5698 31.0704C40.6047 30.9721 40.6668 30.8824 40.7489 30.812C41.5647 30.1121 42.5298 29.4458 43.822 28.6979C57.2402 20.9508 71.1269 12.9333 79.5993 8.04178L80.0172 8.76569L44.8827 29.1759Z" fill="#B2811F"/>
<path d="M37.0638 62.5752C37.6228 62.2524 37.8143 61.5375 37.4916 60.9785C37.1689 60.4195 36.454 60.2279 35.8949 60.5507C35.5529 60.7482 35.3484 61.0925 35.3152 61.4581L33.5324 62.1264C33.2703 62.2246 33.1374 62.5167 33.2357 62.7789C33.334 63.041 33.626 63.1737 33.8882 63.0755L35.6707 62.4074C36.0364 62.7579 36.603 62.8412 37.0638 62.5752Z" stroke="#37342F" stroke-width="1.44732"/>
<path d="M45.3698 42.3443C45.5102 42.2633 45.6897 42.3114 45.7708 42.4518L46.0296 42.9001C46.1702 43.1436 46.1846 43.6303 46.0689 43.6972L46.1818 43.8928L46.0041 44.4913L47.2226 45.4746C47.233 45.483 47.242 45.4927 47.2496 45.5032C47.2807 45.5462 47.2865 45.6039 47.2604 45.6523C47.1441 45.8684 47.0012 46.062 46.838 46.2335C46.8745 46.2766 46.9078 46.3236 46.9371 46.3743C47.2004 46.8305 47.0441 47.4137 46.588 47.6771C46.1319 47.9404 45.5486 47.7842 45.2852 47.328C45.2519 47.2703 45.2253 47.2106 45.2052 47.1497C44.2875 47.382 43.3076 47.2829 42.6672 46.8904C40.9626 47.9147 40.8754 47.9668 41.4931 47.5953L40.611 48.1254C40.5425 48.1665 40.4538 48.1454 40.4112 48.0779L39.6463 46.8661C39.6322 46.8437 39.6312 46.8154 39.6438 46.7921L40.5376 45.1342L45.3698 42.3443Z" stroke="#37342F" stroke-width="1.44732"/>
<path d="M38.3956 50.0257L40.4616 48.8329C42.0006 47.9443 43.4172 47.8736 44.717 48.3714C44.8381 48.4177 44.9576 48.4662 45.0754 48.5166C45.2529 48.5925 45.3813 48.7442 45.5069 48.8927C45.5229 48.9115 45.5388 48.9303 45.5547 48.9489C45.6989 49.1169 45.9011 49.2308 46.12 49.2664C46.1454 49.2706 46.171 49.2745 46.1967 49.2785C46.3896 49.3083 46.5866 49.3387 46.7429 49.4529C47.3995 49.9328 47.9378 50.4982 48.3073 51.1383L49.9343 53.9562C50.4815 54.904 50.1567 56.1159 49.2089 56.6631L42.9535 60.2747C41.8332 60.9215 40.6158 61.0149 39.4657 60.6909C39.3235 60.6509 39.2076 60.5528 39.1041 60.4473C38.895 60.2345 38.6166 60.11 38.327 60.0896C38.1811 60.0793 38.0332 60.0549 37.9107 59.9751C37.8337 59.9249 37.7574 59.8728 37.682 59.8189C35.9984 58.6148 34.2653 56.0206 34.8744 54.1263C35.1743 53.1936 37.1336 50.9748 38.3956 50.0257Z" stroke="#5C410A" stroke-width="1.44732"/>
<path d="M16.2908 45.0984L10.0164 48.7209C8.72372 49.4672 8.28084 51.1203 9.02717 52.4129C9.7735 53.7056 11.4264 54.1485 12.7191 53.4021C13.015 53.2313 13.2663 53.013 13.4691 52.7624L18.1557 47.2704C18.3896 46.9963 18.4135 46.6003 18.2143 46.3001L17.6249 45.4117C17.3328 44.9714 16.7485 44.8341 16.2908 45.0984Z" stroke="#37342F" stroke-width="1.44732"/>
<path d="M73.967 20.1962L77.0894 25.6049L81.1567 23.2566L83.5501 21.6523C83.628 21.6001 83.6854 21.5259 83.7172 21.4416C83.7443 21.3697 83.7527 21.2904 83.7391 21.2115L82.6969 15.1559L73.967 20.1962Z" fill="#AD7E1F" stroke="#573F0F" stroke-width="1.44732"/>
<path d="M8.43504 48.8782L11.8764 46.7699C11.9729 46.7108 11.976 46.5717 11.8823 46.5082L11.2609 46.088C11.2069 46.0515 11.1852 45.9903 11.1945 45.9336L14.7135 43.9019C14.8406 43.8285 14.9582 43.7398 15.0636 43.6377L17.3074 41.4652C17.3212 41.4518 17.3365 41.4403 17.3531 41.4307L29.2278 34.5749C29.3022 34.5319 29.3974 34.5574 29.4404 34.6318L29.577 34.8685L39.4109 29.1909C39.4585 29.1634 39.5145 29.1553 39.5688 29.1638C40.0381 29.2374 40.8047 29.1444 41.208 28.9115L43.0743 27.834C43.1094 27.8137 43.1543 27.8257 43.1746 27.8608L43.608 28.6114C43.658 28.6981 43.7687 28.7277 43.8553 28.6777L45.5334 27.7105C45.62 27.6605 45.6497 27.5498 45.5997 27.4632L45.1663 26.7125C45.146 26.6774 45.1581 26.6325 45.1932 26.6123L46.5964 25.8021C46.6315 25.7819 46.6764 25.7939 46.6966 25.829L47.13 26.5796C47.18 26.6662 47.2908 26.6959 47.3774 26.6459L49.0547 25.6775C49.1413 25.6275 49.171 25.5167 49.121 25.4301L48.6876 24.6795C48.6673 24.6444 48.6794 24.5995 48.7145 24.5792L50.1177 23.7691C50.1528 23.7488 50.1977 23.7608 50.218 23.7959L50.6513 24.5466C50.7013 24.6332 50.8121 24.6629 50.8987 24.6129L52.576 23.6445C52.6626 23.5945 52.6923 23.4837 52.6423 23.3971L52.2089 22.6465C52.1887 22.6114 52.2007 22.5665 52.2358 22.5462L53.639 21.7361C53.6741 21.7158 53.719 21.7278 53.7393 21.7629L54.1726 22.5135C54.2227 22.6002 54.3334 22.6298 54.42 22.5798L56.0973 21.6114C56.184 21.5614 56.2136 21.4507 56.1636 21.364L55.7303 20.6134C55.71 20.5783 55.722 20.5334 55.7571 20.5132L57.1603 19.703C57.1954 19.6828 57.2403 19.6948 57.2606 19.7299L57.694 20.4805C57.744 20.5671 57.8547 20.5968 57.9413 20.5468L59.6187 19.5784C59.7053 19.5284 59.7349 19.4176 59.6849 19.331L59.2516 18.5804C59.2313 18.5453 59.2433 18.5004 59.2784 18.4801L60.6817 17.67C60.7168 17.6497 60.7616 17.6617 60.7819 17.6969L61.2153 18.4475C61.2653 18.5341 61.376 18.5638 61.4627 18.5138L63.14 17.5454C63.2266 17.4954 63.2563 17.3846 63.2063 17.298L62.7729 16.5474C62.7526 16.5123 62.7646 16.4674 62.7997 16.4471L64.203 15.637C64.2381 15.6167 64.283 15.6287 64.3032 15.6638L64.7366 16.4144C64.7866 16.5011 64.8974 16.5307 64.984 16.4807L66.6613 15.5123C66.7479 15.4623 66.7776 15.3516 66.7276 15.265L66.2942 14.5143C66.2739 14.4792 66.286 14.4343 66.3211 14.4141L67.7243 13.6039C67.7594 13.5836 67.8043 13.5957 67.8245 13.6308L68.2579 14.3814C68.3079 14.468 68.4187 14.4977 68.5053 14.4477L70.1819 13.4781C70.2685 13.4281 70.2982 13.3173 70.2482 13.2307L69.8148 12.4801C69.7945 12.445 69.8066 12.4001 69.8417 12.3798L72.0199 11.1222C72.0578 11.1003 72.0923 11.0729 72.1221 11.0409L72.6742 10.4479C72.704 10.4158 72.7385 10.3884 72.7764 10.3665L73.4801 9.96021C73.5031 9.98053 73.5374 9.98495 73.5655 9.96875L74.2779 9.55744C74.402 9.48581 74.5603 9.54975 74.5999 9.68745L74.722 10.1122C74.7351 10.1579 74.7875 10.1793 74.8289 10.1558L77.4056 8.69057C77.4458 8.66771 77.455 8.61416 77.423 8.5808C77.2715 8.42311 76.979 8.17529 76.8374 8.16365L77.3684 7.85706C77.4043 7.83633 77.416 7.78997 77.3941 7.75472L77.3693 7.71478L78.6449 6.97833C78.7854 6.89718 78.9651 6.94534 79.0463 7.08589L82.2676 12.6652L83.1201 14.8947C83.1439 14.9569 83.1591 15.0221 83.1653 15.0884L83.738 21.2103C83.7435 21.2423 83.7454 21.2745 83.7439 21.3061C83.7417 21.3524 83.7322 21.3977 83.7161 21.4404C83.6843 21.5246 83.6269 21.5988 83.549 21.6511L81.1556 23.2554L81.1452 23.2614L81.8301 24.4477L50.5429 42.5114L51.3649 44.0758C51.3803 44.1082 51.37 44.147 51.3406 44.1675L50.0172 45.0908C48.9988 49.3115 49.6656 51.3134 52.2876 54.7789L52.4709 55.0435C52.8086 55.5309 52.6653 56.202 52.1569 56.5071C48.5687 58.661 44.3298 61.1463 43.6571 61.3917L42.1269 61.97C42.1207 61.9724 42.1147 61.9751 42.1088 61.9781L42.1011 61.9823C39.9502 63.2241 38.9553 65.7969 39.711 68.1628L43.6604 80.5269C43.9494 81.4316 44.4836 82.2385 45.2035 82.858L47.5246 84.8551C47.6216 84.9386 47.6273 85.087 47.5356 85.1763C45.8512 86.8155 43.8879 88.0091 41.2395 89.5382L28.3834 96.9607C28.3743 96.966 28.3639 96.9692 28.3534 96.9702C26.9579 97.1008 26.1767 97.0937 24.8212 96.8673C24.7996 96.8637 24.7804 96.8505 24.7695 96.8316L24.1548 95.767C24.1346 95.7319 24.1466 95.687 24.1817 95.6668L25.317 95.0113L25.2095 94.8252L18.2737 71.7622C17.7295 70.0461 16.4295 68.5653 14.9491 67.8146C13.2961 66.9763 11.0254 66.9995 9.28415 68.0049L3.76759 71.0877C3.23703 71.394 2.04366 71.3084 1.61376 70.5638C1.25055 69.9347 4.07522 66.2492 7.12833 64.3583C7.74725 63.975 7.99552 62.8672 7.77075 61.8898L8.00012 61.7574L6.97387 57.8671C6.96819 57.8456 6.94561 57.8332 6.92439 57.84L6.81875 57.8738C6.79684 57.8808 6.77366 57.8674 6.76885 57.8449L5.89797 53.779C5.86658 53.4797 7.0772 49.078 7.29581 48.2866C7.31754 48.2079 7.369 48.1423 7.43969 48.1014L8.14479 47.6944C8.21192 47.7129 8.26484 47.7758 8.25933 47.8555L8.19843 48.7347C8.18969 48.8609 8.32716 48.9443 8.43504 48.8782Z" stroke="#5C410A" stroke-width="2.89464" stroke-miterlimit="3.99393"/>
<path d="M8.43501 48.8794L11.8764 46.7711C11.9729 46.712 11.976 46.5729 11.8822 46.5094L11.2608 46.0892C11.2069 46.0527 11.1852 45.9915 11.1945 45.9348L14.7134 43.9031C14.8405 43.8297 14.9581 43.741 15.0636 43.6389L17.3074 41.4664C17.3211 41.453 17.3365 41.4415 17.3531 41.4319L29.2277 34.576C29.3022 34.5331 29.3974 34.5586 29.4404 34.633L31.9759 39.0247C32.6012 40.1077 34.0347 40.392 34.8399 39.9271L72.6609 18.0911C72.6981 18.0697 72.7457 18.0824 72.7672 18.1196L76.3517 24.3283L8.55361 63.4716C8.50918 63.4972 8.45253 63.4736 8.43944 63.424L6.97385 57.8683C6.96816 57.8468 6.94559 57.8344 6.92436 57.8412L6.81873 57.875C6.79682 57.882 6.77364 57.8686 6.76882 57.8461L5.89795 53.7802C5.86655 53.4809 7.07717 49.0792 7.29578 48.2877C7.31751 48.2091 7.36898 48.1434 7.43967 48.1026L8.14476 47.6955C8.2119 47.7141 8.26482 47.777 8.2593 47.8567L8.1984 48.7359C8.18966 48.8621 8.32714 48.9455 8.43501 48.8794Z" stroke="#5C410A" stroke-width="1.44732"/>
<path d="M16.1435 59.8709L18.9205 70.7932C18.9866 71.0533 18.8888 71.3275 18.6731 71.4871L18.0274 71.9645C18.5554 74.0484 18.775 75.9659 19.0482 78.3516C19.1841 79.5381 19.3333 80.8404 19.5402 82.3366C20.3281 88.0331 21.1979 90.9849 23.6149 95.3219C23.7307 95.5296 23.9937 95.6054 24.2041 95.4944C30.9174 91.9547 34.7363 89.8042 41.2812 85.7282C41.6785 85.4988 42.0421 84.9701 41.9464 84.6067L34.511 63.6145C34.4418 63.4192 34.2249 63.3199 34.0319 63.395L33.4606 63.6176C33.0213 63.7887 32.5264 63.5713 32.3553 63.132C32.1842 62.6927 32.4016 62.1979 32.8409 62.0268L33.4828 61.7767C33.6675 61.7048 33.7617 61.4991 33.6955 61.3123L31.3757 54.7627C31.2684 54.4599 30.9127 54.3287 30.6346 54.4893L21.7333 59.6284C21.5227 59.75 21.2534 59.6779 21.1318 59.4672L20.0501 57.5938C19.8598 57.2641 19.4308 57.1631 19.1134 57.3733L16.419 59.1574C16.1848 59.3125 16.0743 59.5987 16.1435 59.8709Z" fill="#4E4A43" stroke="#37342F" stroke-width="1.44732"/>
<circle cx="23.2032" cy="85.9116" r="1.05238" transform="rotate(-30 23.2032 85.9116)" fill="#413F39"/>
<path d="M32.3666 61.2104C32.4055 61.3223 32.3727 61.446 32.2872 61.5281C31.8232 61.9735 31.59 62.3697 31.5686 62.7835C31.547 63.201 31.7412 63.6363 32.1717 64.1688C32.2461 64.2608 32.2626 64.3876 32.2097 64.4935L22.5414 83.8544C22.4119 84.1136 22.0251 84.0485 21.9876 83.7612L20.233 70.2984C19.7276 66.421 21.1797 63.6758 25.2603 61.4049C27.3001 60.2697 28.5793 59.7072 30.55 58.8405C30.6646 58.7901 30.782 58.7385 30.9016 58.6859C31.1761 58.565 31.4953 58.7041 31.5938 58.9874L32.3666 61.2104Z" fill="#47443E"/>
<circle cx="28.8038" cy="74.2824" r="3.34074" transform="rotate(-30 28.8038 74.2824)" fill="#3F3C37"/>
<path d="M33.6435 67.9234C33.8737 67.4558 34.5537 67.4976 34.7249 67.9899L40.3355 84.1287C40.4005 84.3159 40.3031 84.5217 40.1183 84.5932C33.8079 87.0342 30.454 88.9476 25.338 93.1192C25.1767 93.2507 24.9359 93.2237 24.8128 93.0559C23.9572 91.8898 23.425 90.9123 23.0465 89.7719C23.005 89.6469 23.0161 89.5107 23.0743 89.3926L33.6435 67.9234Z" fill="#47443E"/>
<circle cx="28.8012" cy="74.2848" r="3.0486" transform="rotate(-30 28.8012 74.2848)" fill="#47443E"/>
<circle cx="28.8038" cy="74.2824" r="3.34074" transform="rotate(-30 28.8038 74.2824)" stroke="#37342F" stroke-width="1.44732"/>
<path fill-rule="evenodd" clip-rule="evenodd" d="M26.4756 72.7244C26.4952 72.6071 26.5135 72.4932 26.5305 72.3823L26.7244 72.2338C26.739 72.2226 26.7427 72.202 26.7328 72.1864L26.5909 71.9617C26.5944 71.9355 26.5978 71.9094 26.6011 71.8834L26.7826 71.7294C26.7959 71.7182 26.7991 71.699 26.7902 71.684L26.6508 71.4484C26.6534 71.4218 26.6559 71.3953 26.6584 71.3689L26.8211 71.2307C26.835 71.2189 26.8378 71.1986 26.8276 71.1835L26.6885 70.9783C26.69 70.9531 26.6915 70.928 26.6928 70.9029L26.8774 70.7638C26.8938 70.7514 26.8964 70.7278 26.883 70.7121L26.7074 70.5066C26.708 70.4735 26.7085 70.4404 26.7088 70.4072L26.8995 70.278C26.9175 70.2658 26.9205 70.2405 26.9059 70.2245L26.7061 70.0047C26.7055 69.9801 26.7048 69.9555 26.7041 69.9307L26.8631 69.7821C26.8771 69.7689 26.8782 69.7471 26.8656 69.7326L26.6862 69.5267C26.6843 69.4942 26.6822 69.4616 26.6801 69.4287L26.8397 69.3012C26.8563 69.2879 26.8577 69.2632 26.8428 69.2481L26.652 69.0563C26.6316 68.8175 26.6059 68.5654 26.5749 68.2946C26.5282 67.8852 26.9366 67.4278 27.4041 67.3622L29.5884 67.0558C31.9384 67.7152 33.3631 66.7654 34.3981 64.9699L38.1172 67.9666L36.3457 70.027C36.1745 70.2261 35.9227 70.3602 35.6607 70.3407C32.331 70.0933 30.3659 71.2368 28.4813 73.514C28.0994 73.9754 27.5686 73.9281 27.2793 73.847C26.9396 73.7518 26.3706 73.3549 26.4756 72.7244ZM36.1371 67.7785C36.2999 67.3016 36.0454 66.7831 35.5686 66.6203C35.0918 66.4575 34.5733 66.7121 34.4105 67.1889C34.2476 67.6657 34.5022 68.1842 34.979 68.347C35.4558 68.5098 35.9743 68.2553 36.1371 67.7785Z" fill="#44413B"/>
<circle cx="27.4328" cy="73.0564" r="0.491174" transform="rotate(-98.6958 27.4328 73.0564)" fill="#3B3833"/>
<path d="M67.1857 65.2683C64.0281 64.3695 61.9712 60.9837 62.0267 57.5395L60.3804 58.8929L59.4071 60.595C60.2013 62.5814 60.6203 63.749 62.1026 65.0311C63.1678 65.9524 65.432 66.3656 67.1238 65.8522C67.3394 65.7868 67.437 65.6967 67.461 65.5877C67.4867 65.4715 67.4243 65.3362 67.1857 65.2683Z" fill="#93702A" stroke="#503D16" stroke-width="1.44732"/>
<path fill-rule="evenodd" clip-rule="evenodd" d="M102.118 15.3113L99.541 16.7765C99.4996 16.8 99.4472 16.7786 99.434 16.7329L99.312 16.3082C99.2724 16.1704 99.1141 16.1065 98.99 16.1781L98.2776 16.5894C98.2495 16.6056 98.2152 16.6012 98.1922 16.5809L97.4885 16.9872C97.4506 17.0091 97.4161 17.0365 97.3863 17.0686L96.8342 17.6616C96.8044 17.6936 96.7699 17.721 96.732 17.7429L94.5537 19.0005C94.5186 19.0208 94.5066 19.0657 94.5269 19.1008L94.9603 19.8514C95.0103 19.938 94.9806 20.0488 94.894 20.0988L93.2167 21.0672C93.13 21.1172 93.0193 21.0875 92.9693 21.0009L92.5359 20.2503C92.5156 20.2152 92.4708 20.2031 92.4356 20.2234L91.0324 21.0336C90.9973 21.0538 90.9853 21.0987 91.0056 21.1338L91.4389 21.8844C91.4889 21.9711 91.4593 22.0818 91.3727 22.1318L89.6953 23.1002C89.6087 23.1502 89.498 23.1206 89.448 23.0339L89.0146 22.2833C88.9943 22.2482 88.9494 22.2362 88.9143 22.2564L87.5111 23.0666C87.476 23.0869 87.464 23.1317 87.4842 23.1669L87.9176 23.9175C87.9676 24.0041 87.938 24.1149 87.8513 24.1649L86.174 25.1333C86.0874 25.1833 85.9767 25.1536 85.9266 25.067L85.4933 24.3163C85.473 24.2812 85.4281 24.2692 85.393 24.2895L83.9898 25.0996C83.9547 25.1199 83.9427 25.1648 83.9629 25.1999L84.3963 25.9505C84.4463 26.0371 84.4166 26.1479 84.33 26.1979L82.6527 27.1663C82.5661 27.2163 82.4553 27.1866 82.4053 27.1L81.972 26.3494C81.9517 26.3143 81.9068 26.3022 81.8717 26.3225L80.4685 27.1327C80.4334 27.1529 80.4213 27.1978 80.4416 27.2329L80.875 27.9835C80.925 28.0702 80.8953 28.1809 80.8087 28.2309L79.1314 29.1993C79.0448 29.2493 78.934 29.2197 78.884 29.133L78.4506 28.3824C78.4304 28.3473 78.3855 28.3353 78.3504 28.3555L76.9472 29.1657C76.9121 29.186 76.9 29.2309 76.9203 29.266L77.3537 30.0166C77.4037 30.1032 77.374 30.2139 77.2874 30.264L75.6101 31.2324C75.5235 31.2824 75.4127 31.2527 75.3627 31.1661L74.9293 30.4154C74.9091 30.3803 74.8642 30.3683 74.8291 30.3886L73.4258 31.1987C73.3907 31.219 73.3787 31.2639 73.399 31.299L73.8324 32.0496C73.8824 32.1362 73.8527 32.247 73.7661 32.297L72.0888 33.2654C72.0021 33.3154 71.8914 33.2857 71.8414 33.1991L71.408 32.4485C71.3877 32.4134 71.3428 32.4013 71.3077 32.4216L69.9045 33.2318C69.8694 33.252 69.8574 33.2969 69.8777 33.332L70.311 34.0826C70.361 34.1693 70.3314 34.28 70.2448 34.33L68.5674 35.2984C68.4808 35.3484 68.3701 35.3188 68.3201 35.2321L67.8867 34.4815C67.8664 34.4464 67.8215 34.4344 67.7864 34.4546L65.9201 35.5322C65.5167 35.7651 64.7502 35.8581 64.2809 35.7845C64.2266 35.776 64.1706 35.7841 64.123 35.8116L54.2891 41.4893L56.6881 45.6445C56.9234 46.0521 57.2733 46.3466 57.661 46.5305L57.6601 46.5298C58.3027 46.8349 59.0495 46.8364 59.5518 46.5464L97.3728 24.7104C97.41 24.6889 97.4578 24.7021 97.4793 24.7394L101.8 32.2241L105.868 29.8759L108.261 28.2717C108.406 28.1749 108.48 28.0022 108.45 27.8308L106.979 19.2856L103.758 13.7066C103.677 13.566 103.498 13.5179 103.357 13.599L102.081 14.3355L102.106 14.3754C102.128 14.4107 102.116 14.457 102.08 14.4778L101.549 14.7843C101.678 14.7657 101.984 15.0438 102.135 15.2015C102.167 15.2349 102.158 15.2884 102.118 15.3113Z" fill="#CC9424"/>
<path d="M55.3151 102.675L55.1745 102.265L68.6572 94.2348L69.2027 95.1797L55.6811 102.698L55.3151 102.675Z" fill="#3F3C37"/>
<path fill-rule="evenodd" clip-rule="evenodd" d="M26.4756 72.7244C26.4952 72.6071 26.5135 72.4932 26.5305 72.3823L26.7244 72.2338C26.739 72.2226 26.7427 72.202 26.7328 72.1864L26.5909 71.9617C26.5944 71.9355 26.5978 71.9094 26.6011 71.8834L26.7826 71.7294C26.7959 71.7182 26.7991 71.699 26.7902 71.684L26.6508 71.4484C26.6534 71.4218 26.6559 71.3953 26.6584 71.3689L26.8211 71.2307C26.835 71.2189 26.8378 71.1986 26.8276 71.1835L26.6885 70.9783C26.69 70.9531 26.6915 70.928 26.6928 70.9029L26.8774 70.7638C26.8938 70.7514 26.8964 70.7278 26.883 70.7121L26.7074 70.5066C26.708 70.4735 26.7085 70.4404 26.7088 70.4072L26.8995 70.278C26.9175 70.2658 26.9205 70.2405 26.9059 70.2245L26.7061 70.0047C26.7055 69.9801 26.7048 69.9555 26.7041 69.9307L26.8631 69.7821C26.8771 69.7689 26.8782 69.7471 26.8656 69.7326L26.6862 69.5267C26.6843 69.4942 26.6822 69.4616 26.6801 69.4287L26.8397 69.3012C26.8563 69.2879 26.8577 69.2632 26.8428 69.2481L26.652 69.0563C26.6316 68.8175 26.6059 68.5654 26.5749 68.2946C26.5282 67.8852 26.9366 67.4278 27.4041 67.3622L29.5884 67.0558C31.9384 67.7152 33.3631 66.7654 34.3981 64.9699L38.1172 67.9666L36.3457 70.027C36.1745 70.2261 35.9227 70.3602 35.6607 70.3407C32.331 70.0933 30.3659 71.2368 28.4813 73.514C28.0994 73.9754 27.5686 73.9281 27.2793 73.847C26.9396 73.7518 26.3706 73.3549 26.4756 72.7244ZM36.1371 67.7785C36.2999 67.3016 36.0454 66.7831 35.5686 66.6203C35.0918 66.4575 34.5733 66.7121 34.4105 67.1889C34.2476 67.6657 34.5022 68.1842 34.979 68.347C35.4558 68.5098 35.9743 68.2553 36.1371 67.7785Z" stroke="#37342F" stroke-width="1.44732"/>
<path fill-rule="evenodd" clip-rule="evenodd" d="M32.4831 68.5111C32.7078 69.4886 32.4596 70.5963 31.8406 70.9796C28.7875 72.8705 25.9629 76.5561 26.3261 77.1851C26.756 77.9297 27.9493 78.0154 28.4799 77.7091L33.9965 74.6262C35.7377 73.6209 38.0084 73.5976 39.6614 74.4359C41.1418 75.1867 42.4419 76.6674 42.986 78.3836L49.9218 101.447L50.0293 101.633L48.894 102.288C48.8589 102.308 48.8469 102.353 48.8672 102.388L49.4818 103.453C49.4927 103.472 49.5119 103.485 49.5335 103.489C50.8891 103.715 51.6702 103.722 53.0657 103.592C53.0762 103.591 53.0866 103.587 53.0957 103.582L65.9519 96.1595C68.6002 94.6305 70.5635 93.4368 72.2479 91.7976C72.3396 91.7084 72.3339 91.5599 72.2369 91.4765L69.9158 89.4794C69.1959 88.8599 68.6617 88.053 68.3727 87.1482L64.4233 74.7841C63.6676 72.4182 64.6625 69.8455 66.8134 68.6036C66.8217 68.5989 66.8303 68.5948 66.8392 68.5914L68.3694 68.013C69.0421 67.7676 73.281 65.2824 76.8692 63.1285C77.3777 62.8233 77.5209 62.1523 77.1832 61.6649L76.9999 61.4003C74.3779 57.9348 73.7111 55.9329 74.7295 51.7121L76.0529 50.7889C76.0823 50.7684 76.0926 50.7296 76.0772 50.6972L75.2552 49.1327L106.542 31.069L104.24 27.082L32.4831 68.5111ZM63.1054 56.6478L65.1713 55.455C66.7104 54.5664 68.127 54.4957 69.4267 54.9934C69.5478 55.0398 69.6673 55.0882 69.7852 55.1386C69.9627 55.2146 70.091 55.3662 70.2167 55.5148C70.2326 55.5336 70.2485 55.5524 70.2644 55.571C70.4086 55.739 70.6109 55.8529 70.8297 55.8885C70.8551 55.8926 70.8807 55.8966 70.9064 55.9005C71.0994 55.9303 71.2963 55.9607 71.4526 56.075C72.1092 56.5549 72.6475 57.1202 73.0171 57.7603L74.644 60.5783C75.1912 61.5261 74.8665 62.738 73.9187 63.2852L67.6633 66.8968C66.5429 67.5436 65.3256 67.6369 64.1755 67.313C64.0332 67.2729 63.9174 67.1748 63.8138 67.0694C63.6048 66.8565 63.3264 66.7321 63.0367 66.7117C62.8909 66.7014 62.7429 66.677 62.6204 66.5972C62.5434 66.547 62.4672 66.4949 62.3917 66.4409C60.7081 65.2369 58.9751 62.6426 59.5841 60.7484C59.884 59.8157 61.8434 57.5969 63.1054 56.6478Z" fill="#C58B16"/>
<path d="M32.415 69.6363L33.2314 69.165L31.8043 64.7783C31.7836 64.7285 31.6883 64.7265 31.6166 64.7663C31.5468 64.805 31.5002 64.884 31.5072 64.9499L31.7911 66.4269C31.802 66.4839 31.7966 66.5429 31.7753 66.5969C31.7521 66.6557 31.7477 66.7203 31.7627 66.7817L32.2503 68.7775C32.2584 68.8108 32.2695 68.8434 32.2833 68.8748L32.3639 69.0578L32.3054 69.5643C32.2985 69.6243 32.3628 69.6665 32.415 69.6363Z" fill="#B37E14"/>
<path d="M99.5448 16.7773L102.122 15.3121C102.162 15.2892 102.171 15.2357 102.139 15.2023C101.987 15.0446 101.682 14.7665 101.553 14.7851L102.084 14.4786C102.12 14.4578 102.132 14.4115 102.11 14.3762L101.388 13.213C101.323 13.0697 101.022 12.8661 100.734 12.7925C100.455 12.7216 100.093 12.8722 99.935 13.0645L97.9442 15.8978C97.8949 15.968 97.8908 16.0605 97.9336 16.1347L98.1811 16.5633C98.2014 16.5985 98.2463 16.6105 98.2815 16.5902L98.9939 16.1789C99.1179 16.1073 99.2763 16.1712 99.3159 16.3089L99.4379 16.7337C99.451 16.7794 99.5035 16.8008 99.5448 16.7773Z" fill="#44413B" stroke="#37342F" stroke-width="2.89464"/>
<path d="M108.453 27.8309L107.88 21.7091C107.873 21.6428 107.858 21.5776 107.834 21.5154L106.982 19.2857L108.453 27.8309Z" fill="#AD7E1F"/>
<path d="M105.608 29.4484L106.543 31.0676L75.2558 49.1313L75.3199 49.2533L73.6273 49.1132C73.6034 49.1113 73.5819 49.0976 73.5698 49.0768L73.3737 48.737C73.2115 48.4562 73.3077 48.0971 73.5886 47.9349L105.608 29.4484Z" fill="#A17112"/>
<path d="M76.8438 48.2178L77.6987 49.6986C77.719 49.7337 77.7639 49.7457 77.799 49.7255L79.2022 48.9153C79.2373 48.8951 79.2493 48.8502 79.2291 48.8151L78.3741 47.3342L76.8438 48.2178Z" fill="#C58B16"/>
<path d="M80.3651 46.1847L81.22 47.6656C81.2403 47.7007 81.2852 47.7127 81.3203 47.6924L82.7235 46.8823C82.7586 46.862 82.7706 46.8171 82.7504 46.782L81.8954 45.3012L80.3651 46.1847Z" fill="#C58B16"/>
<path d="M83.8864 44.1517L84.7414 45.6325C84.7616 45.6677 84.8065 45.6797 84.8416 45.6594L86.2448 44.8493C86.2799 44.829 86.292 44.7841 86.2717 44.749L85.4167 43.2682L83.8864 44.1517Z" fill="#C58B16"/>
<path d="M87.4077 42.1187L88.2627 43.5995C88.2829 43.6346 88.3278 43.6466 88.3629 43.6264L89.7662 42.8162C89.8013 42.796 89.8133 42.7511 89.793 42.716L88.9381 41.2351L87.4077 42.1187Z" fill="#C58B16"/>
<path d="M90.929 40.0856L91.784 41.5665C91.8043 41.6016 91.8492 41.6136 91.8843 41.5933L93.2875 40.7832C93.3226 40.7629 93.3346 40.718 93.3143 40.6829L92.4594 39.2021L90.929 40.0856Z" fill="#C58B16"/>
<path d="M94.4504 38.0526L95.3053 39.5334C95.3256 39.5685 95.3705 39.5806 95.4056 39.5603L96.8088 38.7502C96.8439 38.7299 96.8559 38.685 96.8357 38.6499L95.9807 37.1691L94.4504 38.0526Z" fill="#C58B16"/>
<path d="M97.9717 36.0196L98.8266 37.5004C98.8469 37.5355 98.8918 37.5475 98.9269 37.5273L100.33 36.7171C100.365 36.6969 100.377 36.652 100.357 36.6169L99.502 35.136L97.9717 36.0196Z" fill="#C58B16"/>
<path d="M101.493 33.9865L102.348 35.4674C102.368 35.5025 102.413 35.5145 102.448 35.4942L103.851 34.6841C103.887 34.6638 103.899 34.6189 103.878 34.5838L103.023 33.103L101.493 33.9865Z" fill="#C58B16"/>
<path d="M105.014 31.9535L105.869 33.4343C105.89 33.4694 105.934 33.4815 105.97 33.4612L107.373 32.6511C107.408 32.6308 107.42 32.5859 107.4 32.5508C107.179 32.1684 106.622 31.1986 106.545 31.07L105.014 31.9535Z" fill="#C58B16"/>
<path d="M76.8438 48.2178L77.6987 49.6986C77.719 49.7337 77.7639 49.7457 77.799 49.7255L79.2022 48.9153C79.2373 48.8951 79.2493 48.8502 79.2291 48.8151L78.3741 47.3342L76.8438 48.2178Z" stroke="#5C410A" stroke-width="1.44732"/>
<path d="M80.3651 46.1847L81.22 47.6656C81.2403 47.7007 81.2852 47.7127 81.3203 47.6924L82.7235 46.8823C82.7586 46.862 82.7706 46.8171 82.7504 46.782L81.8954 45.3012L80.3651 46.1847Z" stroke="#5C410A" stroke-width="1.44732"/>
<path d="M83.8864 44.1517L84.7414 45.6325C84.7616 45.6677 84.8065 45.6797 84.8416 45.6594L86.2448 44.8493C86.2799 44.829 86.292 44.7841 86.2717 44.749L85.4167 43.2682L83.8864 44.1517Z" stroke="#5C410A" stroke-width="1.44732"/>
<path d="M87.4077 42.1187L88.2627 43.5995C88.2829 43.6346 88.3278 43.6466 88.3629 43.6264L89.7662 42.8162C89.8013 42.796 89.8133 42.7511 89.793 42.716L88.9381 41.2351L87.4077 42.1187Z" stroke="#5C410A" stroke-width="1.44732"/>
<path d="M90.929 40.0856L91.784 41.5665C91.8043 41.6016 91.8492 41.6136 91.8843 41.5933L93.2875 40.7832C93.3226 40.7629 93.3346 40.718 93.3143 40.6829L92.4594 39.2021L90.929 40.0856Z" stroke="#5C410A" stroke-width="1.44732"/>
<path d="M94.4504 38.0526L95.3053 39.5334C95.3256 39.5685 95.3705 39.5806 95.4056 39.5603L96.8088 38.7502C96.8439 38.7299 96.8559 38.685 96.8357 38.6499L95.9807 37.1691L94.4504 38.0526Z" stroke="#5C410A" stroke-width="1.44732"/>
<path d="M97.9717 36.0196L98.8266 37.5004C98.8469 37.5355 98.8918 37.5475 98.9269 37.5273L100.33 36.7171C100.365 36.6969 100.377 36.652 100.357 36.6169L99.502 35.136L97.9717 36.0196Z" stroke="#5C410A" stroke-width="1.44732"/>
<path d="M101.493 33.9865L102.348 35.4674C102.368 35.5025 102.413 35.5145 102.448 35.4942L103.851 34.6841C103.887 34.6638 103.899 34.6189 103.878 34.5838L103.023 33.103L101.493 33.9865Z" stroke="#5C410A" stroke-width="1.44732"/>
<path d="M105.014 31.9535L105.869 33.4343C105.89 33.4694 105.934 33.4815 105.97 33.4612L107.373 32.6511C107.408 32.6308 107.42 32.5859 107.4 32.5508C107.179 32.1684 106.622 31.1986 106.545 31.07L105.014 31.9535Z" stroke="#5C410A" stroke-width="1.44732"/>
<circle cx="59.1225" cy="57.6535" r="0.568652" transform="rotate(-30 59.1225 57.6535)" fill="#8F6D28"/>
<path d="M67.5506 50.2986L67.3796 53.5112C68.1016 53.9538 69.255 54.0233 70.2644 53.6658L70.278 53.6901C70.5504 54.1619 71.1538 54.3235 71.6256 54.0511C72.0975 53.7787 72.2592 53.1753 71.9868 52.7035C71.9684 52.673 71.9496 52.6429 71.9286 52.6141C72.6386 51.8478 72.8776 51.3071 72.9838 50.0779C73.5791 49.6956 73.1264 48.8697 72.3764 49.0258L71.2194 49.2103C71.0667 49.2347 70.9112 49.1889 70.7959 49.0858L70.4995 48.8206C70.435 48.7629 70.3541 48.7313 70.2717 48.7276L67.5506 50.2986Z" fill="#B37E14"/>
<path d="M61.7767 69.1963C62.3357 68.8735 62.5272 68.1586 62.2045 67.5996C61.8817 67.0406 61.1669 66.849 60.6078 67.1718C60.2657 67.3693 60.0613 67.7136 60.0281 68.0792L58.2453 68.7475C57.9832 68.8457 57.8503 69.1378 57.9486 69.4C58.0469 69.662 58.3389 69.7948 58.6011 69.6966L60.3836 69.0285C60.7493 69.379 61.3159 69.4623 61.7767 69.1963Z" fill="#57534B"/>
<path d="M62.4601 57.188L59.5798 59.351C59.3444 59.5278 59.1278 59.7309 58.9576 59.9711C57.993 61.3319 57.8284 62.6405 58.646 64.2448C59.3332 65.5935 60.718 66.41 62.5487 66.7912C62.6133 66.8047 62.6802 66.8048 62.745 66.7924L63.1206 66.7207C63.0932 66.7169 63.0656 66.714 63.038 66.712C62.8921 66.7017 62.7442 66.6773 62.6217 66.5975C62.5447 66.5473 62.4684 66.4952 62.393 66.4413C60.7094 65.2372 58.9763 62.643 59.5854 60.7487C59.8375 59.9646 61.2626 58.2714 62.4601 57.188Z" fill="#B88114"/>
<path d="M69.7498 95.8679L55.8404 103.898C55.7407 103.956 55.6131 103.922 55.5554 103.822L55.1688 103.152C55.1112 103.053 55.1453 102.925 55.2451 102.867L73.1577 92.6841C73.2629 92.6243 73.3966 92.6606 73.4572 92.7654L73.6449 93.0907C73.7057 93.196 73.6697 93.3306 73.5644 93.3914L72.0243 94.2806C71.3824 94.8819 70.7283 95.303 69.7498 95.8679Z" fill="#46433C"/>
<circle cx="61.1919" cy="68.1856" r="0.576554" transform="rotate(-30 61.1919 68.1856)" fill="#3F3C36"/>
<path d="M68.9799 49.7106L71.9355 52.0957C71.9886 52.1386 72.0054 52.2129 71.973 52.2729C71.0763 53.9382 68.606 54.2626 67.3797 53.5111L65.3238 54.7464C65.2554 54.7876 65.1667 54.7665 65.1241 54.699L64.3592 53.4872C64.3451 53.4648 64.3441 53.4365 64.3567 53.4132L65.2505 51.7553L68.8143 49.6977C68.8669 49.6674 68.9327 49.6725 68.9799 49.7106Z" fill="#47443D"/>
<path d="M70.9956 51.3359L71.9362 52.0949C71.9893 52.1378 72.0062 52.2121 71.9738 52.2722C71.0771 53.9375 68.6068 54.2618 67.3805 53.5103C62.763 56.2849 70.0138 51.9259 70.9956 51.3359Z" fill="#3F3C37"/>
<circle cx="70.8248" cy="53.4723" r="0.95408" transform="rotate(-30 70.8248 53.4723)" fill="#4B4841"/>
<path d="M70.718 51.1127L68.9801 49.7102C68.9329 49.672 68.867 49.6669 68.8145 49.6973L70.0835 48.9646C70.2239 48.8835 70.4036 48.9316 70.4847 49.0721L70.7436 49.5206C70.8843 49.7642 70.8987 50.2511 70.7829 50.318L70.8959 50.5137L70.718 51.1127Z" fill="#3C3934"/>
<path d="M36.5901 53.3906L33.1488 55.4989C33.0409 55.565 32.9035 55.4816 32.9122 55.3554L32.9731 54.4762C32.9817 54.3518 32.8479 54.2683 32.74 54.3306L32.1905 54.6478C32.1533 54.6693 32.1057 54.6566 32.0842 54.6194L30.6704 52.1706C30.5135 51.8988 30.4112 51.5524 30.6097 51.4378L31.5708 50.8829C31.9591 50.6588 32.4149 50.5817 32.8552 50.6658L36.2498 51.3141C36.3165 51.3268 36.3743 51.3679 36.4082 51.4267L36.7092 51.948C36.7308 51.9855 36.7176 52.0336 36.6798 52.0548L35.9857 52.4439C35.8847 52.5006 35.8787 52.6438 35.9746 52.7086L36.596 53.1289C36.6898 53.1923 36.6867 53.3315 36.5901 53.3906Z" fill="#49463F" stroke="#37342F" stroke-width="2.89464"/>
<path d="M33.1479 55.5005L36.5892 53.3922C36.6858 53.3331 36.6889 53.194 36.5951 53.1305L35.9737 52.7103C35.9198 52.6738 35.8981 52.6126 35.9073 52.5559L39.4263 50.5242C39.5534 50.4508 39.671 50.3621 39.7765 50.26L42.0203 48.0875C42.034 48.0741 42.0494 48.0626 42.0659 48.053L53.9406 41.1971C54.0151 41.1542 54.1103 41.1797 54.1533 41.2541L56.6888 45.6458C57.3141 46.7288 58.7476 47.0131 59.5528 46.5482L97.3738 24.7122C97.411 24.6907 97.4586 24.7035 97.4801 24.7407L101.065 30.9494L33.2665 70.0926C33.2221 70.1183 33.1654 70.0947 33.1523 70.0451L31.6867 64.4894C31.6811 64.4679 31.6585 64.4555 31.6373 64.4623L31.5316 64.4961C31.5097 64.5031 31.4865 64.4896 31.4817 64.4672L30.6108 60.4013C30.5794 60.102 31.7901 55.7003 32.0087 54.9088C32.0304 54.8302 32.0819 54.7645 32.1526 54.7237L32.8577 54.3166C32.9248 54.3352 32.9777 54.3981 32.9722 54.4778L32.9113 55.357C32.9026 55.4832 33.04 55.5666 33.1479 55.5005Z" fill="#D89618"/>
<path d="M57.6621 46.5293C58.3047 46.8344 59.0515 46.8359 59.5538 46.5459L97.3748 24.7099C97.412 24.6884 97.4596 24.7012 97.4811 24.7384L98.9584 27.2973L62.4246 48.2765C61.5031 48.8057 60.351 48.7128 59.5261 48.043L57.6621 46.5293Z" fill="#CA8D16"/>
<path d="M37.541 67.6219L36.2978 68.3396L33.5072 57.9055L34.7504 57.1877L37.541 67.6219Z" fill="#CA8D16"/>
<path d="M39.1983 66.6651L37.9551 67.3828L35.1645 56.9487L36.4077 56.2309L39.1983 66.6651Z" fill="#CA8D16"/>
<path d="M40.8555 65.7082L39.6124 66.426L36.8218 55.9918L38.065 55.2741L40.8555 65.7082Z" fill="#CA8D16"/>
<path d="M42.5128 64.7514L41.2696 65.4691L38.4791 55.035L39.7222 54.3172L42.5128 64.7514Z" fill="#CA8D16"/>
<path d="M44.1701 63.7946L42.9269 64.5123L40.1363 54.0782L41.3795 53.3604L44.1701 63.7946Z" fill="#CA8D16"/>
<path d="M45.8274 62.8377L44.5842 63.5555L41.7936 53.1213L43.0368 52.4036L45.8274 62.8377Z" fill="#CA8D16"/>
<path d="M47.4847 61.8809L46.2415 62.5986L43.4509 52.1645L44.6941 51.4467L47.4847 61.8809Z" fill="#CA8D16"/>
<path d="M49.142 60.9241L47.8988 61.6418L45.1082 51.2077L46.3514 50.4899L49.142 60.9241Z" fill="#CA8D16"/>
<path d="M50.7992 59.9672L49.5561 60.685L46.7655 50.2508L48.0086 49.5331L50.7992 59.9672Z" fill="#CA8D16"/>
<path d="M52.4565 59.0104L51.2133 59.7282L48.4228 49.294L49.6659 48.5762L52.4565 59.0104Z" fill="#CA8D16"/>
<path d="M54.1138 58.0536L52.8706 58.7713L50.08 48.3372L51.3232 47.6194L54.1138 58.0536Z" fill="#CA8D16"/>
<path d="M55.7711 57.0967L54.5279 57.8145L51.7373 47.3803L52.9805 46.6626L55.7711 57.0967Z" fill="#CA8D16"/>
<path d="M57.4284 56.1399L56.1852 56.8577L53.3946 46.4235L54.6378 45.7057L57.4284 56.1399Z" fill="#CA8D16"/>
<path d="M41.537 51.3457L34.6503 55.3217C33.3298 56.0841 32.9863 57.9377 33.7486 59.2582C34.511 60.5786 36.3977 61.1446 37.7182 60.3822L38.0901 60.1674C38.2033 60.1021 38.3226 60.0476 38.4461 60.0049L44.4152 57.9412C46.1874 57.2961 43.9788 53.2923 43.5017 52.5732L42.8997 51.6658C42.6013 51.216 42.0045 51.0758 41.537 51.3457Z" fill="#B88014"/>
<path d="M41.0037 51.7195L34.7293 55.342C33.4366 56.0883 32.9937 57.7414 33.7401 59.034C34.4864 60.3267 36.1393 60.7696 37.432 60.0232C37.7279 59.8524 37.9792 59.6341 38.182 59.3835L42.8686 53.8915C43.1025 53.6174 43.1264 53.2214 42.9272 52.9211L42.3378 52.0328C42.0456 51.5925 41.4614 51.4552 41.0037 51.7195Z" fill="#4E4A43"/>
<path d="M40.7222 51.884L38.9253 54.1432C38.4713 54.7139 39.1409 55.491 39.7725 55.1264L42.2279 53.7087C42.6257 53.4791 42.9152 52.9072 42.7137 52.5969L42.34 52.0336C42.0478 51.5933 41.4635 51.456 41.0059 51.7203L40.7222 51.884Z" fill="#44413B"/>
<circle cx="36.0809" cy="57.6829" r="1.43607" transform="rotate(-30 36.0809 57.6829)" fill="#44413B"/>
<path d="M36.9567 58.8217L34.95 56.798C35.0231 56.7046 35.1085 56.6193 35.2056 56.5448L37.2124 58.5685C37.1394 58.6618 37.054 58.7472 36.9567 58.8217Z" fill="#3C3934"/>
<rect x="42.9395" y="56.165" width="1.47417" height="0.966972" rx="0.483486" transform="rotate(-8.93565 42.9395 56.165)" fill="#9C6E11"/>
<circle cx="41.5867" cy="57.7699" r="0.505293" transform="rotate(-30 41.5867 57.7699)" fill="#D93726"/>
<path d="M74.3316 53.9411L70.9325 55.9036C71.1178 55.9323 71.305 55.9648 71.4549 56.0743C72.1114 56.5542 72.6497 57.1196 73.0193 57.7597L74.6462 60.5776C75.1934 61.5254 74.8687 62.7373 73.9209 63.2845L67.6655 66.8961C66.5451 67.5429 65.3278 67.6363 64.1777 67.3123C64.0989 67.2901 64.0282 67.2501 63.9632 67.2009C64.4337 68.207 64.7349 69.1535 65.0118 70.3233C65.4556 69.6314 66.0653 69.0362 66.8156 68.6029C66.8239 68.5982 66.8325 68.5941 66.8414 68.5907L68.3717 68.0123C69.0443 67.767 73.2832 65.2817 76.8714 63.1278C77.3799 62.8226 77.5231 62.1516 77.1854 61.6642L77.0021 61.3996C74.888 58.6054 74.045 56.7627 74.3316 53.9411Z" fill="#B88114"/>
<path d="M72.0374 39.2598L97.4089 24.6116L98.6816 26.8157L107.412 21.7755L106.983 19.2859L104.314 14.6627L68.5712 35.2988C67.2617 36.0549 66.2867 36.7268 65.4635 37.433C65.2999 37.5734 65.2157 37.7902 65.2681 37.9993C65.8818 40.4502 69.6171 40.6572 72.0374 39.2598Z" fill="#BA8721"/>
<path d="M69.5956 35.797C67.9659 36.6667 66.8918 37.1066 65.2827 37.6915C65.3176 37.5932 65.3797 37.5035 65.4618 37.4331C66.2776 36.7332 67.2427 36.0669 68.5349 35.3189C81.9531 27.5719 95.8398 19.5544 104.312 14.6629L104.73 15.3868L69.5956 35.797Z" fill="#B2811F"/>
<path d="M61.7767 69.1963C62.3357 68.8735 62.5272 68.1586 62.2045 67.5996C61.8817 67.0406 61.1669 66.849 60.6078 67.1718C60.2657 67.3693 60.0613 67.7136 60.0281 68.0792L58.2453 68.7475C57.9832 68.8457 57.8503 69.1378 57.9486 69.4C58.0469 69.662 58.3389 69.7948 58.6011 69.6966L60.3836 69.0285C60.7493 69.379 61.3159 69.4623 61.7767 69.1963Z" stroke="#37342F" stroke-width="1.44732"/>
<path d="M70.0826 48.9654C70.2231 48.8844 70.4026 48.9325 70.4837 49.0729L70.7425 49.5212C70.8831 49.7647 70.8975 50.2514 70.7818 50.3183L70.8947 50.5139L70.717 51.1124L71.9355 52.0957C71.9459 52.1041 71.9549 52.1138 71.9625 52.1243C71.9936 52.1673 71.9994 52.225 71.9733 52.2734C71.857 52.4895 71.7141 52.683 71.5509 52.8546C71.5874 52.8977 71.6207 52.9447 71.65 52.9954C71.9133 53.4516 71.757 54.0348 71.3009 54.2982C70.8447 54.5615 70.2615 54.4053 69.9981 53.9491C69.9648 53.8914 69.9382 53.8317 69.9181 53.7708C69.0004 54.0031 68.0205 53.904 67.3801 53.5115C65.6755 54.5358 65.5883 54.5879 66.206 54.2164L65.3238 54.7464C65.2554 54.7876 65.1667 54.7665 65.1241 54.699L64.3592 53.4872C64.3451 53.4648 64.3441 53.4365 64.3567 53.4132L65.2505 51.7553L70.0826 48.9654Z" stroke="#37342F" stroke-width="1.44732"/>
<path d="M63.1085 56.6468L65.1745 55.454C66.7135 54.5654 68.1301 54.4947 69.4299 54.9925C69.551 55.0388 69.6705 55.0872 69.7883 55.1377C69.9658 55.2136 70.0941 55.3652 70.2198 55.5138C70.2358 55.5326 70.2516 55.5514 70.2676 55.57C70.4118 55.738 70.614 55.8519 70.8329 55.8875C70.8583 55.8916 70.8839 55.8956 70.9095 55.8996C71.1025 55.9293 71.2995 55.9598 71.4558 56.074C72.1123 56.5539 72.6507 57.1193 73.0202 57.7594L74.6471 60.5773C75.1944 61.5251 74.8696 62.737 73.9218 63.2842L67.6664 66.8958C66.546 67.5426 65.3287 67.636 64.1786 67.312C64.0364 67.272 63.9205 67.1739 63.817 67.0684C63.6079 66.8555 63.3295 66.7311 63.0399 66.7107C62.894 66.7004 62.7461 66.676 62.6236 66.5962C62.5466 66.546 62.4703 66.4939 62.3949 66.44C60.7113 65.2359 58.9782 62.6417 59.5873 60.7474C59.8872 59.8147 61.8465 57.5959 63.1085 56.6468Z" stroke="#5C410A" stroke-width="1.44732"/>
<path d="M41.0037 51.7195L34.7293 55.342C33.4366 56.0883 32.9937 57.7414 33.7401 59.034C34.4864 60.3267 36.1393 60.7696 37.432 60.0232C37.7279 59.8524 37.9792 59.6341 38.182 59.3835L42.8686 53.8915C43.1025 53.6174 43.1264 53.2214 42.9272 52.9211L42.3378 52.0328C42.0456 51.5925 41.4614 51.4552 41.0037 51.7195Z" stroke="#37342F" stroke-width="1.44732"/>
<path d="M98.6798 26.8173L101.802 32.226L105.87 29.8777L108.263 28.2734C108.341 28.2212 108.398 28.147 108.43 28.0627C108.457 27.9908 108.466 27.9115 108.452 27.8326L107.41 21.777L98.6798 26.8173Z" fill="#AD7E1F" stroke="#573F0F" stroke-width="1.44732"/>
<path d="M33.1479 55.4993L36.5893 53.391C36.6858 53.3319 36.6889 53.1928 36.5952 53.1293L35.9738 52.7091C35.9198 52.6726 35.8981 52.6114 35.9074 52.5547L39.4263 50.523C39.5535 50.4496 39.6711 50.3609 39.7765 50.2588L42.0203 48.0863C42.0341 48.0729 42.0494 48.0614 42.066 48.0518L53.9406 41.1959C54.0151 41.153 54.1103 41.1785 54.1533 41.2529L54.2899 41.4896L64.1238 35.812C64.1714 35.7845 64.2274 35.7764 64.2817 35.7849C64.751 35.8585 65.5175 35.7654 65.9209 35.5326L67.7872 34.455C67.8223 34.4348 67.8672 34.4468 67.8875 34.4819L68.3209 35.2325C68.3709 35.3191 68.4816 35.3488 68.5682 35.2988L70.2463 34.3316C70.3329 34.2816 70.3626 34.1709 70.3126 34.0842L69.8792 33.3336C69.8589 33.2985 69.8709 33.2536 69.906 33.2334L71.3093 32.4232C71.3444 32.4029 71.3893 32.415 71.4095 32.4501L71.8429 33.2007C71.8929 33.2873 72.0037 33.317 72.0903 33.267L73.7676 32.2986C73.8542 32.2486 73.8839 32.1378 73.8339 32.0512L73.4005 31.3006C73.3802 31.2655 73.3923 31.2206 73.4274 31.2003L74.8306 30.3902C74.8657 30.3699 74.9106 30.3819 74.9308 30.417L75.3642 31.1677C75.4142 31.2543 75.525 31.284 75.6116 31.234L77.2889 30.2656C77.3755 30.2155 77.4052 30.1048 77.3552 30.0182L76.9218 29.2676C76.9016 29.2324 76.9136 29.1876 76.9487 29.1673L78.3519 28.3571C78.387 28.3369 78.4319 28.3489 78.4522 28.384L78.8855 29.1346C78.9355 29.2213 79.0463 29.2509 79.1329 29.2009L80.8102 28.2325C80.8968 28.1825 80.9265 28.0718 80.8765 27.9851L80.4431 27.2345C80.4229 27.1994 80.4349 27.1545 80.47 27.1343L81.8732 26.3241C81.9083 26.3038 81.9532 26.3159 81.9735 26.351L82.4069 27.1016C82.4569 27.1882 82.5676 27.2179 82.6542 27.1679L84.3315 26.1995C84.4182 26.1495 84.4478 26.0387 84.3978 25.9521L83.9645 25.2015C83.9442 25.1664 83.9562 25.1215 83.9913 25.1012L85.3945 24.2911C85.4296 24.2708 85.4745 24.2828 85.4948 24.3179L85.9282 25.0686C85.9782 25.1552 86.0889 25.1849 86.1755 25.1349L87.8529 24.1665C87.9395 24.1164 87.9692 24.0057 87.9192 23.9191L87.4858 23.1684C87.4655 23.1333 87.4775 23.0885 87.5126 23.0682L88.9159 22.258C88.951 22.2378 88.9958 22.2498 89.0161 22.2849L89.4495 23.0355C89.4995 23.1222 89.6102 23.1518 89.6969 23.1018L91.3742 22.1334C91.4608 22.0834 91.4905 21.9727 91.4405 21.886L91.0071 21.1354C90.9868 21.1003 90.9989 21.0554 91.034 21.0352L92.4372 20.225C92.4723 20.2047 92.5172 20.2168 92.5374 20.2519L92.9708 21.0025C93.0208 21.0891 93.1316 21.1188 93.2182 21.0688L94.8948 20.0992C94.9814 20.0492 95.0111 19.9384 94.9611 19.8518L94.5277 19.1012C94.5074 19.0661 94.5194 19.0212 94.5545 19.0009L96.7328 17.7433C96.7707 17.7214 96.8052 17.694 96.835 17.6619L97.3871 17.069C97.4169 17.0369 97.4514 17.0095 97.4893 16.9876L98.193 16.5813C98.216 16.6016 98.2503 16.606 98.2784 16.5898L98.9908 16.1785C99.1149 16.1069 99.2732 16.1708 99.3128 16.3085L99.4348 16.7333C99.448 16.779 99.5004 16.8004 99.5418 16.7769L102.119 15.3117C102.159 15.2888 102.168 15.2353 102.136 15.2019C101.984 15.0442 101.692 14.7964 101.55 14.7847L102.081 14.4782C102.117 14.4574 102.129 14.4111 102.107 14.3758L102.082 14.3359L103.358 13.5994C103.498 13.5183 103.678 13.5664 103.759 13.707L106.98 19.2863L107.833 21.5158C107.857 21.578 107.872 21.6432 107.878 21.7095L108.451 27.8314C108.456 27.8634 108.458 27.8956 108.457 27.9272C108.455 27.9735 108.445 28.0188 108.429 28.0615C108.397 28.1457 108.34 28.2199 108.262 28.2722L105.868 29.8765L105.858 29.8825L106.543 31.0688L75.2557 49.1325L76.0778 50.6969C76.0932 50.7293 76.0829 50.7681 76.0535 50.7886L74.7301 51.7119C73.7117 55.9326 74.3784 57.9345 77.0005 61.4L77.1838 61.6646C77.5215 62.152 77.3782 62.8231 76.8698 63.1282C73.2816 65.2821 69.0427 67.7674 68.37 68.0128L66.8398 68.5911C66.8336 68.5935 66.8276 68.5962 66.8217 68.5992L66.814 68.6034C64.6631 69.8452 63.6681 72.418 64.4239 74.7839L68.3733 87.148C68.6623 88.0527 69.1964 88.8596 69.9164 89.4791L72.2375 91.4762C72.3345 91.5597 72.3402 91.7081 72.2485 91.7974C70.5641 93.4366 68.6008 94.6302 65.9524 96.1593L53.0963 103.582C53.0871 103.587 53.0768 103.59 53.0663 103.591C51.6708 103.722 50.8896 103.715 49.5341 103.488C49.5125 103.485 49.4933 103.472 49.4823 103.453L48.8677 102.388C48.8475 102.353 48.8595 102.308 48.8946 102.288L50.0299 101.632L49.9224 101.446L42.9866 78.3833C42.4424 76.6672 41.1424 75.1864 39.662 74.4357C38.009 73.5974 35.7383 73.6206 33.997 74.626L28.4805 77.7088C27.9499 78.0151 26.7565 77.9295 26.3266 77.1849C25.9634 76.5558 28.7881 72.8703 31.8412 70.9794C32.4601 70.5961 32.7084 69.4883 32.4836 68.5109L32.713 68.3785L31.6868 64.4882C31.6811 64.4667 31.6585 64.4543 31.6373 64.4611L31.5316 64.4949C31.5097 64.5019 31.4866 64.4885 31.4817 64.466L30.6109 60.4001C30.5795 60.1008 31.7901 55.6991 32.0087 54.9076C32.0304 54.829 32.0819 54.7633 32.1526 54.7225L32.8577 54.3154C32.9248 54.334 32.9777 54.3969 32.9722 54.4766L32.9113 55.3558C32.9026 55.482 33.0401 55.5654 33.1479 55.4993Z" stroke="#5C410A" stroke-width="2.89464" stroke-miterlimit="3.99393"/>
<path d="M33.1479 55.5005L36.5892 53.3922C36.6858 53.3331 36.6889 53.194 36.5951 53.1305L35.9737 52.7103C35.9198 52.6738 35.8981 52.6126 35.9073 52.5559L39.4263 50.5242C39.5534 50.4508 39.671 50.3621 39.7765 50.26L42.0203 48.0875C42.034 48.0741 42.0494 48.0626 42.0659 48.053L53.9406 41.1971C54.0151 41.1542 54.1103 41.1797 54.1533 41.2541L56.6888 45.6458C57.3141 46.7288 58.7476 47.0131 59.5528 46.5482L97.3738 24.7122C97.411 24.6907 97.4586 24.7035 97.4801 24.7407L101.065 30.9494L33.2665 70.0926C33.2221 70.1183 33.1654 70.0947 33.1523 70.0451L31.6867 64.4894C31.6811 64.4679 31.6585 64.4555 31.6373 64.4623L31.5316 64.4961C31.5097 64.5031 31.4865 64.4896 31.4817 64.4672L30.6108 60.4013C30.5794 60.102 31.7901 55.7003 32.0087 54.9088C32.0304 54.8302 32.0819 54.7645 32.1526 54.7237L32.8577 54.3166C32.9248 54.3352 32.9777 54.3981 32.9722 54.4778L32.9113 55.357C32.9026 55.4832 33.04 55.5666 33.1479 55.5005Z" stroke="#5C410A" stroke-width="1.44732"/>
<path d="M40.8564 66.492L43.6334 77.4143C43.6995 77.6744 43.6017 77.9486 43.386 78.1082L42.7403 78.5856C43.2683 80.6695 43.4879 82.587 43.7611 84.9727C43.897 86.1592 44.0461 87.4615 44.2531 88.9577C45.041 94.6542 45.9108 97.606 48.3278 101.943C48.4436 102.151 48.7066 102.226 48.917 102.116C55.6303 98.5757 59.4492 96.4253 65.9941 92.3493C66.3914 92.1199 66.755 91.5912 66.6593 91.2278L59.2239 70.2356C59.1547 70.0403 58.9378 69.941 58.7448 70.0161L58.1735 70.2387C57.7342 70.4098 57.2393 70.1924 57.0682 69.7531C56.8971 69.3138 57.1145 68.819 57.5538 68.6479L58.1957 68.3978C58.3804 68.3259 58.4746 68.1202 58.4084 67.9333L56.0886 61.3838C55.9813 61.081 55.6256 60.9498 55.3474 61.1104L46.4462 66.2495C46.2356 66.3711 45.9663 66.299 45.8447 66.0883L44.763 64.2149C44.5727 63.8851 44.1437 63.7842 43.8263 63.9944L41.1319 65.7785C40.8977 65.9336 40.7872 66.2198 40.8564 66.492Z" fill="#4E4A43" stroke="#37342F" stroke-width="1.44732"/>
<circle cx="47.9161" cy="92.5327" r="1.05238" transform="rotate(-30 47.9161 92.5327)" fill="#413F39"/>
<path d="M57.0795 67.8314C57.1184 67.9434 57.0856 68.0671 57.0001 68.1492C56.5361 68.5946 56.3029 68.9908 56.2815 69.4046C56.2599 69.8221 56.4541 70.2574 56.8846 70.7899C56.9589 70.8819 56.9755 71.0087 56.9226 71.1146L47.2543 90.4755C47.1248 90.7347 46.738 90.6696 46.7005 90.3822L44.9459 76.9195C44.4405 73.0421 45.8926 70.2969 49.9732 68.026C52.013 66.8908 53.2921 66.3283 55.2629 65.4616C55.3775 65.4112 55.4949 65.3596 55.6145 65.3069C55.889 65.1861 56.2082 65.3252 56.3067 65.6085L57.0795 67.8314Z" fill="#47443E"/>
<circle cx="53.5167" cy="80.9035" r="3.34074" transform="rotate(-30 53.5167 80.9035)" fill="#3F3C37"/>
<path d="M58.3564 74.5445C58.5866 74.0769 59.2666 74.1187 59.4378 74.611L65.0483 90.7498C65.1134 90.937 65.016 91.1428 64.8312 91.2143C58.5208 93.6553 55.1668 95.5687 50.0509 99.7403C49.8896 99.8718 49.6488 99.8448 49.5257 99.677C48.6701 98.5108 48.1379 97.5334 47.7594 96.393C47.7179 96.268 47.729 96.1318 47.7872 96.0137L58.3564 74.5445Z" fill="#47443E"/>
<circle cx="53.5141" cy="80.9059" r="3.0486" transform="rotate(-30 53.5141 80.9059)" fill="#47443E"/>
<circle cx="53.5167" cy="80.9035" r="3.34074" transform="rotate(-30 53.5167 80.9035)" stroke="#37342F" stroke-width="1.44732"/>
</g>
<defs>
<clipPath id="clip0_2397_1733">
<rect width="110" height="110" fill="white"/>
</clipPath>
</defs>
</svg>
