<svg xmlns="http://www.w3.org/2000/svg" xml:space="preserve" width="112.201" height="94.944" viewBox="0 0 29.686 25.121"><defs><clipPath id="a"><path fill="#fff" d="M0 .822h110v110H0z"/></clipPath></defs><g clip-path="url(#a)" style="fill:none" transform="scale(.26458)rotate(15 81.617 30.98)"><path fill="#4d4033" stroke="#3d3329" stroke-width="3.352" d="m51.217 42.512 27.504-15.88c.183-.106.727.246 1.07.842l1.318 2.282c.344.596.377 1.243.195 1.348l-27.505 15.88Z" style="fill:#7f6144;fill-opacity:1"/><path fill="#aa5e13" d="M97.31 14.066 79.091 24.585a.84.84 0 0 0-.306 1.145l3.333 5.772a.84.84 0 0 0 1.144.307l18.219-10.518Z"/><path fill="#a55c12" d="m101.48 21.29-4.17-7.224 5.909-3.412a.84.84 0 0 1 1.145.307l3.333 5.773a.837.837 0 0 1-.307 1.145z"/><path stroke="#5c330a" stroke-width="3.352" d="m79.091 24.585 24.129-13.93a.84.84 0 0 1 1.145.306l3.333 5.773a.836.836 0 0 1-.307 1.145l-24.129 13.93a.84.84 0 0 1-1.144-.307l-3.333-5.772a.834.834 0 0 1 .306-1.145z"/><path fill="#43382d" d="M57.762 63.812c-2.376.395-3.716.392-6.116.398l-.51-.746-2.195.563-.03-2.654 1.64-.947c2.738.973 4.129 1.414 6.902 2.228.269.08.435.44.515.7.067.214-.063.434-.206.458"/><path stroke="#3d3329" stroke-width="1.676" d="m48.912 61.373.03 2.654 2.193-.563.51.746c2.401-.006 3.74-.003 6.117-.398.143-.024.273-.244.206-.459-.08-.259-.246-.62-.515-.699-2.773-.814-4.164-1.255-6.901-2.228m-1.64.947 1.64-.947m-1.64.947 1.64-.947"/><path fill="#4f4235" stroke="#3d3329" stroke-width="1.676" d="M57.48 63.805c-3.1-1.197-4.497-2.383-6.229-5.649-2.512 1.1-3.433 2.126-3.771 4.985 1.235.46 1.955.394 3.261-.016 2.296 1.78 3.785 1.973 6.623 1.571a.5.5 0 0 0 .402-.367.45.45 0 0 0-.285-.524z"/><path fill="#473b2f" d="m39.882 103.348 13.106-7.567 1.029 1.784-13.106 7.566z"/><path fill="#41362b" d="m53.878 48.514 4.672-2.697.444.77-4.671 2.697zM36.631 59.498l8.894-5.135.588 1.019-8.894 5.135z"/><path fill="#86592d" fill-rule="evenodd" d="m45.012 55.144.42-.728L82.3 33.13l.303.502c.6.989 1 1.647 1.352 2.937.032.12-.052.212-.13.3-.079.087-.153.169-.097.265.457.792-.247 1.342-.68 1.635-1.26.855-3.102 2.02-5.167 3.294l-.485-.842-1.726.997.513.888c-2.644 1.616-5.478 3.316-7.843 4.735-1.371.823-2.585 1.55-3.511 2.112-1.73 1.049-2.31 3.357-1.3 5.108l1.309 2.267c.581 1.007 1.563 1.858 2.458 2.6.825.683.646 1.225-.364 1.778l-11.759 6.933c-.801.472-1.676.627-2.6.736l-1.111.076c-.779.091-1.196.386-1.604.926l-.032.042c-.433.572-.755.997-.231 3.756l3.095 18.26c1.233 1.922 1.481 2.778.845 3.734-.396.594-14.246 8.678-14.561 8.81-.41.171-.652.088-.935-.317-1.382.096-2.13-.016-3.356-.366-2.644-3.732-2.756-11.555-2.824-16.304-.018-1.24-.033-2.271-.09-2.964l-.024-.309c-.198-2.46-.469-5.818-1.315-8.855-.726-2.608-2.48-4.652-4.82-4.953-1.327-.17-1.888-.341-4.29.767-.227.104-.752.178-1.12-.448-.369-.627-.633-1.367.007-1.737l-.223-.385 16.901-9.758.233.403.815.235 3.471-2.004-.328-.568zm10.178.592 1.642-.948a3.93 3.93 0 0 1 5.37 1.439l.806 1.394a3.833 3.833 0 0 1-1.403 5.237l-7.065 4.079c-1.119.646-2.527.74-3.746.31-2.072-.73-2.887-2.974-2.327-5.098.408-1.545 1.035-2.655 2.456-3.383l1.748-1.009c.487-.25.86-.58 1.259-.93q.127-.114.26-.228zm-2.64-3.772a.147.147 0 0 0-.123.169l.51 3.113c.012.08.088.135.168.121l.763-.124a.147.147 0 0 0 .122-.17l-.509-3.112a.147.147 0 0 0-.17-.122z" clip-rule="evenodd"/><path fill="#83572c" d="m69.784 46.925-2.254 1.35c-1.156-2.137-1.87-3.277-3.218-4.757L82.3 33.133l.303.502c.6.988 1 1.647 1.351 2.937.033.119-.05.212-.13.299-.078.087-.152.169-.096.265.457.792-.248 1.342-.68 1.635-1.207.82-3.069 1.987-5.176 3.278l-.477-.825-1.725.996.5.866c-2.121 1.287-4.37 2.633-6.386 3.84"/><path fill="#534537" d="m40.866 47.532.259-.149c.026-.016.034-.035.046-.056a.17.17 0 0 1 .073-.074l9.477-5.597 3.515 6.087.223 1.463-9.47 5.468z"/><path fill="#c60" d="m77.293 25.864-.699.42c-.376.226-.705.436-1.037.649-.459.294-.924.591-1.528.94L50.695 41.61l.958 1.659c.678 1.175.623 2.793-.61 3.505l-5.769 3.33c-.089.051-.238.002-.389-.047-.13-.043-.26-.086-.356-.066-.21.045-.423.09-.6.192l-1.658.957-2.02-3.5-23.783 13.672c-.583.336-.329 1.034-.2 1.26l3.111 5.472.06-.035a.196.196 0 0 1 .268.072l.056.097a.1.1 0 0 1-.007.11l-.138.177.367.644 31.267-18.052-.217-.376a.236.236 0 0 1 .086-.323l3.174-1.832.047-.212 4.408-1.857.093.217L82.38 33.086l-3.898-6.585c-.28-.487-.743-.905-1.189-.638"/><path fill="#7a6652" d="m40.033 57.532-1.968 1.136.139.241-.127.482-.658.38a.66.66 0 0 0-.243.904l.443.767a.66.66 0 0 0 .904.242l2.357-1.361a.66.66 0 0 0 .242-.904z"/><path fill="#ad5700" stroke="#630" stroke-width="1.676" d="m73.982 27.922-.212-1.412a.34.34 0 0 1 .166-.364l.814-.47a.25.25 0 0 1 .203-.02l1.708.72z"/><path fill="#5c4d3e" d="m53.91 54.406-1.127.183-.43-2.652 1.126-.183z"/><path fill="#806b56" d="m52.353 52.395 1.203-.402.016.046-1.06.355 1.117.001v.025l.008.023-1.06.355 1.118.001v.025l.008.023-1.061.355 1.119.001v.025l.007.023-1.06.355 1.118.001v.025l.008.023-1.06.355 1.118.001v.025l.007.023-1.06.355 1.118.001v.024l.008.024-1.06.355 1.118.001v.025l.008.023-1.203.402-.016-.046 1.06-.355-1.118-.001v-.025l-.007-.023 1.06-.355-1.118-.001v-.025l-.008-.023 1.06-.355-1.118-.001v-.025l-.008-.023 1.06-.355-1.117-.001v-.025l-.008-.023 1.06-.355-1.118-.001v-.025l-.008-.023 1.06-.355h-1.118v-.026l-.007-.023 1.06-.355h-1.118v-.026z"/><path fill="#4d4033" d="M35.937 53.492a1.127 1.127 0 0 1 .413-1.54l4.792-2.767 1.128 1.952-4.793 2.767a1.127 1.127 0 0 1-1.54-.412"/><path fill="#43382d" d="m36.433 51.904 1.128 1.952-.084.048a1.127 1.127 0 0 1-1.127-1.952z"/><path fill="#4f4235" d="m41.454 51.609-1.127-1.953.816-.47 1.127 1.952z"/><path fill="#c76300" d="m41.823 49.19-.957-1.657c-.067-.115-.327-.059-.616.108l1.064 1.843z"/><circle cx="75.257" cy="26.504" r=".225" fill="#a35200" transform="rotate(-30 75.257 26.504)"/><circle cx="50.071" cy="56.825" r=".903" fill="#5c4d3e" transform="rotate(-30 50.07 56.825)"/><path fill="#bd5e00" d="m19.69 60.488 1.025-.592 3.806 6.592-1.025.592zM61.847 36.148l1.025-.592 3.806 6.592-1.025.592z"/><path fill="#ad5700" stroke="#630" stroke-width="1.676" d="m21.196 59.289-2.483 1.434-.288-2.389 1.118-.645z"/><path fill="#bd5e00" d="m26.056 56.814-1.025.592 3.806 6.592 1.025-.592zM68.214 32.475l-1.025.591 3.805 6.592 1.026-.591zM24.276 57.842l-1.025.592 3.806 6.592 1.025-.592zM66.433 33.502l-1.025.592 3.806 6.592 1.025-.592zM22.496 58.867l-1.025.592 3.805 6.592 1.026-.592zM64.652 34.531l-1.025.592 3.806 6.592 1.025-.592zM27.837 55.787l-1.025.592 3.806 6.592 1.025-.592zM69.994 31.447l-1.025.592 3.806 6.592 1.025-.592zM29.617 54.758l-1.025.592 3.806 6.592 1.025-.592zM71.774 30.42l-1.025.592 3.806 6.592 1.025-.592zM31.398 53.73l-1.025.592 3.806 6.592 1.025-.591zM73.555 29.39l-1.026.592 3.806 6.592 1.025-.591z"/><path fill="#534537" stroke="#3d3329" stroke-width="1.676" d="m51.854 100.796-10.317 6.254c-.437.253-.781-.02-.904-.234-.17-.293-.249-1.661.05-1.834 0 0 12.174-7.418 12.443-7.705.235-.25.528-.734.728-1.279.038-.104.174-.132.24-.043.496.673.537 1.415.284 2.136-.317.904-.972 1.936-2.524 2.705z"/><path fill="#774f28" d="m31.148 75.874.853-.175a1.211 1.211 0 0 0-.486-2.374l-.853.175Z"/><circle cx="31.885" cy="74.413" r=".606" fill="#6b4724" transform="rotate(-30 31.885 74.413)"/><path fill="#d16900" d="m78.758 26.965-.275-.465c-.281-.487-.744-.905-1.19-.638l-.699.42c-.376.227-.704.437-1.036.65h-.003c-.458.294-.922.591-1.525.94L50.695 41.609l.675 1.169zM40.925 48.808 16.471 62.926l-.202-.355c-.13-.225-.383-.924.199-1.26L40.251 47.64Z"/><path fill="#7e542a" d="M64.252 50.387c-2.786 1.247-4.412 2.186-6.804 4.113a3.93 3.93 0 0 1 4.755 1.727l.805 1.395a3.834 3.834 0 0 1-1.403 5.236l-7.065 4.08c-1.119.645-2.527.739-3.746.31-1.462-.516-2.298-1.786-2.467-3.235-.171 3.006.155 4.778 1.036 7.386.077-.47.257-.708.463-.98l.032-.042c.408-.54.826-.834 1.604-.926l1.11-.076c.925-.109 1.8-.263 2.601-.736l11.76-6.933c1.01-.553 1.188-1.095.363-1.778-.895-.741-1.877-1.593-2.458-2.6l-1.309-2.267c-.888-1.539-.547-3.508.723-4.674"/><path fill="#684523" d="m66.407 45.943 14.441-8.337 2.44-.822c.239-.08.42.218.24.394l-1.876 1.82-4.154 2.398-.102-.176-1.726.996.102.177-8.561 4.942z"/><path fill="#7e542a" d="M33.267 101.277c-1.276-4.041-1.355-9.592-1.408-13.284-.018-1.24-.033-2.271-.09-2.965l-.024-.308c-.163-2.021-.374-4.648-.914-7.206l1.54-.212c1.255 5.414 1.66 8.53 1.52 14.235-.1 4.025.324 6.173 1.036 9.7zM49.47 73.463q.051.328.125.713l2.808 16.569-1.422.645-2.9-17.7z"/><path fill="#744d27" d="m42.973 68.888.733 3.437 2.658-.567-.101-.477 1.845-.393-.631-2.96z"/><path fill="#7e542a" d="m43.397 70.875.309 1.45 1.267-.27 3.473 20.675a.71.71 0 0 1-.284.691c-3.658 2.63-6.053 3.962-10.081 5.622a.696.696 0 0 1-.959-.564c-.267-2.371-.366-4.537-.459-6.592-.06-1.32-.117-2.592-.216-3.845l-1.26-11.968a.714.714 0 0 1 .462-.741c3.343-1.25 5.462-2.292 7.748-4.458"/><path fill="#83572c" fill-rule="evenodd" d="m53.95 50.227-1.837.939c-.737.392-1.486 1.456-1.27 2.263l.907 3.394a.567.567 0 0 0 .846.337l2.675-1.647c.408-.251.633-.717.576-1.193l-.423-3.52c-.076-.627-.917-.87-1.474-.573m-1.522 1.906a.147.147 0 0 1 .122-.17l.762-.124a.147.147 0 0 1 .17.122l.508 3.113a.147.147 0 0 1-.121.169l-.763.124a.147.147 0 0 1-.17-.121z" clip-rule="evenodd"/><path fill="#4d4033" d="m42.778 50.843-1.127-1.952-.509.293 1.128 1.953z"/><path fill="#794715" d="m33.888 44.016 23.434-13.53.706 1.223-23.434 13.529z"/><path fill="#94571a" d="m37.652 40.664 1.67-.964.511.884-1.67.964zM40.943 38.764l1.67-.965.511.885-1.67.964zM44.233 36.863l1.67-.965.51.885-1.67.964zM47.523 34.963l1.67-.965.511.885-1.67.964zM72.755 49.772l1.67-.965-.51-.884-1.67.964zM50.814 33.064l1.67-.964.51.884-1.67.964zM76.053 47.87l1.67-.965-.51-.885-1.67.965zM55.774 30.198l-1.67.964.51.884 2.708-1.563-.105-.182zM80.743 45.159l-1.67.964-.51-.884 2.707-1.563.105.181zM36.033 41.598l-1.67.964-.559 1.308.084.145 2.655-1.533zM71.239 50.646l-3.32 1.916-1.411-.17-.084-.145 4.305-2.485z"/><path fill="#8b5219" d="m58.943 32.859-.915-1.153-18.324 10.58 2.064.489 7.402-4.273a1.6 1.6 0 0 1 .247-.176l3.803-2.196q.113-.065.235-.102z"/><path stroke="#4d3319" stroke-width="3.352" d="m45.012 55.144.42-.728L82.3 33.13l.303.502c.6.989 1 1.647 1.352 2.937.032.12-.052.212-.13.3-.079.087-.153.169-.097.265.457.792-.247 1.342-.68 1.635-1.26.855-3.102 2.02-5.167 3.294l-.485-.842-1.726.997.513.888c-2.644 1.616-5.478 3.316-7.843 4.735-1.372.823-2.585 1.55-3.511 2.112-1.73 1.049-2.31 3.357-1.3 5.108l1.309 2.267c.581 1.007 1.563 1.858 2.458 2.6.825.683.647 1.225-.364 1.778l-11.759 6.933c-.801.472-1.676.627-2.6.736l-1.111.076c-.779.091-1.196.386-1.604.926l-.032.042c-.433.572-.755.997-.231 3.756l3.095 18.26c1.233 1.922 1.481 2.778.845 3.734-.396.594-14.246 8.678-14.561 8.81-.41.171-.652.088-.935-.317-1.382.096-2.13-.016-3.356-.366-2.644-3.732-2.756-11.555-2.824-16.304-.018-1.24-.033-2.271-.09-2.964l-.024-.309c-.198-2.46-.469-5.818-1.315-8.855-.726-2.608-2.48-4.652-4.82-4.953-1.327-.17-1.888-.341-4.29.767-.227.104-.752.178-1.12-.448-.369-.627-.633-1.367.007-1.737l-.223-.385 16.901-9.758.233.403.815.235 3.471-2.004-.327-.568z"/><path stroke="#4d3319" stroke-width="1.676" d="m55.19 55.738 1.642-.948a3.93 3.93 0 0 1 5.37 1.439l.806 1.394a3.833 3.833 0 0 1-1.403 5.237l-7.065 4.079c-1.119.646-2.527.74-3.746.31-2.072-.73-2.887-2.974-2.327-5.099.408-1.544 1.035-2.654 2.456-3.382l1.748-1.01c.487-.249.861-.579 1.259-.93l.26-.227zM52.55 51.965a.15.15 0 0 0-.122.17l.508 3.113c.013.08.09.135.17.121l.762-.124a.15.15 0 0 0 .122-.17l-.509-3.113a.147.147 0 0 0-.169-.121z"/><path fill="#794715" d="m66.424 52.246 14.846-8.571-1.008-1.746L65.416 50.5z"/><path fill="#8b5219" d="m64.243 48.109 15.088-8.712.93 2.534-14.845 8.571z"/><circle cx="76.971" cy="42.481" r=".822" fill="#7e4a16" transform="rotate(-30 76.97 42.48)"/><path stroke="#3d3329" stroke-width="1.676" d="m41.245 47.252 9.477-5.597.931 1.613c.679 1.176.623 2.793-.61 3.505l-5.768 3.33c-.09.052-.239.003-.39-.047-.13-.042-.26-.085-.355-.065-.21.045-.423.09-.601.192l-1.15.66-5.301 3.061a1.126 1.126 0 1 1-1.127-1.953l5.3-3.06-.785-1.36.259-.15a.1.1 0 0 0 .042-.048l.004-.007a.17.17 0 0 1 .074-.074z"/><path stroke="#630" stroke-width="3.352" d="m76.593 26.28.7-.42c.442-.257.91.153 1.189.637l3.897 6.585-23.537 13.589-.093-.217-4.408 1.857.117.891-34.474 19.904-.366-.644.137-.178a.1.1 0 0 0 .007-.11l-.055-.096a.197.197 0 0 0-.269-.072l-.06.035-3.11-5.473c-.13-.225-.383-.923.199-1.26L40.25 47.638c.289-.167.549-.224.615-.109l.259-.149a.13.13 0 0 0 .046-.056.17.17 0 0 1 .073-.073l9.477-5.598-.026-.045L74.03 27.869l.111-.065.15-.088c.48-.284.876-.536 1.265-.785.332-.212.662-.425 1.038-.651z"/><path fill="#9c5c1c" d="m41.768 42.773 22.475 5.333 15.089-8.711-18.765-5.213a2.35 2.35 0 0 1-1.21-.803l-.414-.521-5.489 3.168c.187-.057.388-.065.581-.022l15.435 3.464c1.46.328 1.759 2.279.462 3.028l-4.248 2.453c-.363.21-.795.264-1.2.153l-14.72-4.055c-1.17-.323-1.45-1.8-.595-2.547z"/><path stroke="#57330f" stroke-width="1.676" d="m37.653 40.663 1.67-.965.51.884 1.62-.935-.51-.884 1.67-.964.51.884 1.62-.936-.51-.884 1.67-.964.51.884 1.62-.935-.51-.884 1.67-.965.511.885 1.62-.936-.51-.884 1.67-.964.51.884 1.62-.935-.51-.885 1.67-.964 1.443.104.81 1.403.916 1.153.413.521c.309.39.733.67 1.211.803l18.765 5.213.93 2.534 1.008 1.746.105.181-.632 1.302-1.67.964-.51-.884-1.35.78.51.884-1.67.964-.511-.884-1.627.94.51.884-1.67.964-.51-.884-1.516.875.51.884-3.32 1.917-1.411-.17-.084-.146-1.008-1.746-1.173-2.393-24.54-5.823-5.11 2.951-.705-1.222-.084-.145.559-1.308 1.67-.964.51.884 1.62-.935z"/><path fill="#854a0f" d="M2.842 43.462a.84.84 0 0 0-.307 1.144l5.687 9.85c.231.401.744.538 1.144.307l2.068-1.194-6.525-11.3Z"/><path fill="#a05912" d="m19.826 34.516 1.074-.62 5.78 10.012-1.073.62z"/><path fill="#81470e" d="m21.434 34.82 1.31-.757 4.714 8.164-1.31.757z"/><path fill="#8b4d0f" d="M72.22 3.188a.84.84 0 0 1 1.144.307l5.877 10.18c.232.4.094.912-.307 1.144l-7.887 4.554-10.75 4.067-32.765 18.917-4.862-8.422 32.764-18.917 8.898-7.276Z"/><path fill="#8e4f10" d="m19.662 48.818-8.228 4.75-6.525-11.3 8.229-4.751 6.887-2.659 5.383 9.325z"/><path fill="#ca0" d="m68.691 5.227.525-.303 6.715 11.63-.525.304z"/><path fill="#9d5711" d="m42.483 21.32-8.484 4.897-.323 1.119 5.16 8.935c4.156-1.78 6.331-3.037 9.935-5.736l-5.159-8.936z"/><path fill="#a65c12" d="m33.363 24.713 8.135-4.696.81 1.404-8.134 4.697z"/><path fill="#a95e13" d="m32.867 24.223 8.453-4.88.337.584-8.453 4.88z"/><path fill="#b26314" d="m39.21 19.386-5.248 3.03-.794 1.632 7.852-4.533z"/><circle cx="41.273" cy="29.018" r="4.696" fill="#a95e13" transform="rotate(-30 41.273 29.018)"/><circle cx="41.273" cy="29.019" r="2.922" fill="#b26314" transform="rotate(-30 41.273 29.019)"/><path stroke="#5c330a" stroke-width="3.352" d="m39.21 19.386-5.249 3.03-.793 1.632-.3.174.336.583.16-.092.81 1.404-.174.101-.323 1.118.105.182-11.113 6.416.075.13-1.31.756-.534-.924-1.075.62.199.344-6.887 2.658-10.296 5.945a.84.84 0 0 0-.307 1.145l5.687 9.85c.231.4.744.537 1.145.306l10.296-5.945 5.746-4.635.198.344 1.074-.62-.533-.924 1.31-.757.075.13 11.112-6.417.192.332c4.156-1.78 6.332-3.037 9.936-5.737l-.192-.331 11.716-6.764 10.75-4.068 7.888-4.553a.84.84 0 0 0 .307-1.145l-5.878-10.18a.84.84 0 0 0-1.144-.307l-7.887 4.554-8.899 7.277-11.715 6.764-.105-.182-1.13-.28-.175.1-.81-1.403.159-.092-.337-.584-.3.173z"/><path fill="#634221" d="m29.84 35.619 5.679-3.278 2.982 5.165-5.678 3.278zM46.338 26.094l5.678-3.278 2.982 5.165-5.678 3.278z"/><path fill="#593b1e" d="m32.532 40.953 6.259-3.613 2.018 3.495-6.259 3.613zM49.03 31.428l6.259-3.613 2.018 3.495-6.259 3.613z"/><path fill="#634221" d="m26.859 30.455 5.678-3.278 2.982 5.165-5.678 3.278zM43.357 20.93l5.678-3.278 2.982 5.165-5.678 3.278z"/><path fill="#6b4724" d="m29.84 35.62 5.678-3.279-.28-.485-5.677 3.278zM46.338 26.094l5.678-3.278-.28-.485-5.678 3.278z"/><path fill="#6b4724" d="m30.12 36.104 5.678-3.279-.28-.484-5.677 3.278zM46.619 26.578l5.677-3.278-.28-.485-5.677 3.278z"/><path stroke="#4d3319" stroke-width="1.676" d="m32.537 27.176-5.678 3.277 5.964 10.33-.29.168 2.017 3.495 6.259-3.614-2.018-3.495-.29.168zM49.034 17.65l-5.677 3.278 5.964 10.33-.29.167 2.017 3.495 6.258-3.613-2.017-3.495-.29.168z"/><path stroke="#57330f" stroke-width="1.676" d="M49.17 37.68c-.852.749-.575 2.225.596 2.547l14.72 4.056c.403.111.835.056 1.198-.154l4.248-2.453c1.297-.748 1-2.7-.462-3.028l-15.434-3.464a1.14 1.14 0 0 0-.816.126l-3.803 2.195q-.136.078-.247.176z"/></g></svg>