<?xml version="1.0" encoding="UTF-8" standalone="no"?>
<!-- Created with Inkscape (http://www.inkscape.org/) -->

<svg
   width="110"
   height="110"
   viewBox="0 0 29.104167 29.104167"
   version="1.1"
   id="svg1"
   xml:space="preserve"
   inkscape:version="1.4 (e7c3feb1, 2024-10-09)"
   sodipodi:docname="g19.svg"
   inkscape:export-filename="g19_lootimage.png"
   inkscape:export-xdpi="96"
   inkscape:export-ydpi="96"
   xmlns:inkscape="http://www.inkscape.org/namespaces/inkscape"
   xmlns:sodipodi="http://sodipodi.sourceforge.net/DTD/sodipodi-0.dtd"
   xmlns:xlink="http://www.w3.org/1999/xlink"
   xmlns="http://www.w3.org/2000/svg"
   xmlns:svg="http://www.w3.org/2000/svg"><sodipodi:namedview
     id="namedview1"
     pagecolor="#ffffff"
     bordercolor="#000000"
     borderopacity="0.25"
     inkscape:showpageshadow="2"
     inkscape:pageopacity="0.0"
     inkscape:pagecheckerboard="0"
     inkscape:deskcolor="#d1d1d1"
     inkscape:document-units="px"
     inkscape:zoom="1.4013176"
     inkscape:cx="57.089129"
     inkscape:cy="118.10314"
     inkscape:window-width="1712"
     inkscape:window-height="970"
     inkscape:window-x="0"
     inkscape:window-y="43"
     inkscape:window-maximized="1"
     inkscape:current-layer="layer1"
     showguides="true" /><defs
     id="defs1"><rect
       x="7.9689016"
       y="-60.786041"
       width="9.2661648"
       height="13.5286"
       id="rect11" /><linearGradient
       id="linearGradient28"
       inkscape:collect="always"><stop
         style="stop-color:#3a3a3a;stop-opacity:1;"
         offset="0.50691247"
         id="stop28" /><stop
         style="stop-color:#474747;stop-opacity:1;"
         offset="0.50691247"
         id="stop29" /></linearGradient><clipPath
       clipPathUnits="userSpaceOnUse"
       id="clipPath1"><rect
         width="116.6869"
         height="116.6869"
         fill="#ffffff"
         id="rect1"
         x="7.0997496"
         y="-54.040573"
         style="stroke-width:1.06079"
         transform="rotate(29.999997)" /></clipPath><clipPath
       clipPathUnits="userSpaceOnUse"
       id="clipPath2"><rect
         width="116.6869"
         height="116.6869"
         fill="#ffffff"
         id="rect2"
         x="7.0997496"
         y="-54.040573"
         style="stroke-width:1.06079"
         transform="rotate(29.999997)" /></clipPath><clipPath
       clipPathUnits="userSpaceOnUse"
       id="clipPath3"><rect
         width="116.6869"
         height="116.6869"
         fill="#ffffff"
         id="rect3"
         x="7.0997496"
         y="-54.040573"
         style="stroke-width:1.06079"
         transform="rotate(29.999997)" /></clipPath><clipPath
       clipPathUnits="userSpaceOnUse"
       id="clipPath4"><rect
         width="116.6869"
         height="116.6869"
         fill="#ffffff"
         id="rect4"
         x="7.0997496"
         y="-54.040573"
         style="stroke-width:1.06079"
         transform="rotate(29.999997)" /></clipPath><linearGradient
       inkscape:collect="always"
       xlink:href="#linearGradient28"
       id="linearGradient29"
       x1="22.040354"
       y1="-58.082966"
       x2="22.035763"
       y2="-59.278156"
       gradientUnits="userSpaceOnUse"
       gradientTransform="matrix(0.24939513,0,0,0.24939513,5.7668158,29.248925)" /><clipPath
       id="clip0_619_1202"><rect
         width="110"
         height="110"
         fill="#ffffff"
         id="rect26"
         x="0"
         y="0" /></clipPath></defs><g
     inkscape:label="Layer 1"
     inkscape:groupmode="layer"
     id="layer1"><path
       d="M 25.241367,0.50706647 24.346732,1.0235811 25.309847,2.691746 26.204483,2.1752315 Z"
       fill="#5c5c5c"
       stroke="#333333"
       stroke-width="4.64714"
       stroke-miterlimit="3.99393"
       id="path1"
       style="stroke-width:1.01417;stroke-linecap:round;stroke-linejoin:round;stroke-dasharray:none"
       sodipodi:nodetypes="ccccc" /><path
       d="m 26.384014,3.3853733 -0.65701,0.3793207 0.261434,0.4527873 0.656984,-0.3793211 z"
       fill="#5c5c5c"
       stroke="#333333"
       stroke-width="4.64714"
       stroke-miterlimit="3.99393"
       id="path2"
       style="stroke-width:1.01417;stroke-linecap:round;stroke-linejoin:round;stroke-dasharray:none"
       sodipodi:nodetypes="ccccc" /><path
       d="m 3.1933845,11.654042 0.4646896,-0.268286 0.7567356,1.310715 -1.0973195,-0.002 z"
       fill="#5c5c5c"
       stroke="#333333"
       stroke-width="4.64714"
       stroke-miterlimit="3.99393"
       id="path3"
       style="stroke-width:0.527888;stroke-linecap:round;stroke-linejoin:round;stroke-dasharray:none" /><path
       d="m 14.900023,13.204821 0.01339,0.325906 c 0.0074,0.122833 0.135745,0.207596 0.249873,0.157596 l 0.482127,-0.183047 c 0.03574,-0.02063 0.08524,-0.01744 0.129711,0.0046 0.302572,0.111299 1.686463,0.472048 2.210734,0.169369 0.595753,-0.343951 -1.255054,-0.165084 -1.255054,-0.165084 0,0 -0.06077,0.527604 -1.431696,-0.746233 -1.259524,-1.16341 -0.559165,0.132172 -0.428449,0.35858 0.01376,0.02381 0.02751,0.04765 0.02937,0.07836 z"
       fill="#4d4d4d"
       stroke="#333333"
       stroke-width="2.32358"
       stroke-miterlimit="3.99393"
       id="path4"
       style="stroke-width:0.507084;stroke-dasharray:none" /><path
       d="m 22.656472,1.3371954 -0.293604,-0.78372033 0.440857,-0.2545296 0.690358,0.2051372 c 0.09397,0.025181 0.120134,0.153056 0.02481,0.2080915 z"
       fill="#5c5c5c"
       stroke="#333333"
       stroke-width="4.64714"
       stroke-miterlimit="3.99393"
       id="path5"
       style="stroke-width:0.527888;stroke-linecap:round;stroke-linejoin:round;stroke-dasharray:none" /><path
       d="M 12.673408,70.270398 9.6944971,74.57333 c 0,0 -2.537613,1.213753 0.220302,1.766101 2.7584459,0.551428 25.6820809,1.654722 25.6820809,1.654722 0,0 2.484061,-0.551676 2.484075,-2.206745 l -2.8e-5,-4.192831 z"
       fill="#525252"
       stroke="#333333"
       stroke-width="4.64714"
       stroke-miterlimit="3.99393"
       id="path6"
       clip-path="url(#clipPath4)"
       style="stroke-width:4.06652;stroke-dasharray:none"
       sodipodi:nodetypes="ccccccc"
       transform="matrix(0.22230809,-0.11303558,0.11303558,0.22230809,-0.62005172,12.697336)" /><path
       d="m 14.801183,12.936099 c 0,0 1.648791,1.590034 2.55164,1.227645 0.902876,-0.362389 -0.03955,-0.453766 -0.03955,-0.453766 0,0 -0.939729,-0.251805 -1.508523,-1.512148 -0.568798,-1.260344 -1.058887,-0.18302 -1.058887,-0.18302 z"
       fill="#4f4f4f"
       stroke="#333333"
       stroke-width="2.32358"
       stroke-miterlimit="3.99393"
       id="path7"
       style="stroke-width:0.507084;stroke-dasharray:none" /><path
       d="M 2.8298422,12.809669 23.526392,0.86052137 c 0.3217,-0.185737 0.735175,-0.074939 0.920919,0.24677773 L 25.76128,3.3831462 3.8374854,16.040874 2.5647943,13.836516 c -0.2251775,-0.36252 -0.092404,-0.820467 0.2650479,-1.026847 z"
       fill="#474747"
       id="path8"
       style="stroke-width:0.264536;stroke-dasharray:none" /><path
       d="m 13.784244,18.966455 c -0.67938,9.3e-5 -4.1375694,1.158591 -4.137513,2.206766 3.4e-6,1.048266 4.082301,1.599932 4.468507,1.655098 0.672282,0.096 12.853936,3.365228 -3.8e-5,23.722514 -12.5227766,19.750115 -7.2821213,22.343421 -6.6751561,22.564013 0.05513,-1.7e-5 0.055148,0.05511 0.1102786,0.05509 l 3.1447825,2.096142 c 0.05515,0.05511 0.165501,0.05513 0.220649,0.110244 l 28.134972,3.200195 c 0.386207,0.05517 0.717191,-0.386153 0.551669,-0.717265 -0.717194,-1.48953 -1.98599,-4.578889 -1.213675,-7.39256 0.993002,-3.365216 3.199648,-4.248003 3.751338,-4.358321 0.05522,3.6e-5 0.110353,1.8e-5 0.220706,3.6e-5 0.330984,0.05513 1.323993,0.110314 -0.110374,-0.937932 -1.544628,-1.213694 -0.165476,-4.744503 8e-6,-5.075469 0,0 3.5e-5,-0.05522 0.05517,-0.05524 0.110336,-0.220596 1.048154,-1.765387 2.923873,-2.813513 0.551633,-0.331076 0.827487,-0.93786 0.717205,-1.544773 -0.331044,-1.986089 -0.606834,-6.068531 1.875667,-7.723586 3.034115,-2.041262 7.612993,0.165434 8.385336,0.551694 l 23.059778,-5.8e-5 c 0,0 2.261855,-0.0551 1.710253,-0.827511 l -0.606894,-0.827487 c 0,0 3.5e-5,-0.05522 -0.05509,-0.05521 -0.110371,-0.220631 -1.103348,-2.041237 -1.103414,-7.723562 -1.4e-5,-5.682417 3.089434,-7.337493 3.751367,-7.66846 0.05517,-0.05524 0.165518,-0.05522 0.220649,-0.05524 l 21.404802,-1.9e-5 c 0.27584,1.8e-5 0.55165,-0.220578 0.55171,-0.551636 1e-5,-0.275836 0.22065,-0.55169 0.55161,-0.55169 l 1.65507,1.4e-5 c 0.27584,1.8e-5 0.55169,0.220649 0.55164,0.551708 -2e-5,0.275836 0.22067,0.551707 0.55169,0.551616 l 1.59979,7e-5 c 0.0552,3.6e-5 0.11036,1.8e-5 0.16549,0 0.44133,-0.110335 2.09635,-0.827529 2.09643,-3.254976 l -0.16548,-4.57902 c -7e-5,-0.275889 -0.22072,-0.551615 -0.55168,-0.551615 z m 58.201218,23.391518 -14.895112,4.4e-5 c 0,0 -5.516668,-2.979144 -5.516693,-6.289191 l -2.4e-5,-2.482631 c 0,0 3.9e-5,-6.344442 20.41176,-5.79275 0,0 4.413335,-0.551679 4.413444,7.171958 1.7e-5,7.723583 -4.413375,7.39257 -4.413375,7.39257 z"
       fill="#5c5c5c"
       id="path9"
       style="stroke-width:1.06079"
       clip-path="url(#clipPath3)"
       transform="matrix(0.21598252,-0.12469756,0.12469756,0.21598252,-0.86187042,13.292538)" /><path
       d="m 19.967164,13.46484 -3.217078,1.857394 c 0,0 -1.562995,0.04447 -1.975755,-0.670464 l -0.309584,-0.536175 c 0,0 -0.791128,-1.370293 3.686268,-3.79643 0,0 0.884409,-0.6694846 1.847525,0.998672 0.963116,1.668157 -0.03137,2.147003 -0.03137,2.147003 z"
       stroke="#333333"
       stroke-width="0.579491"
       stroke-miterlimit="3.99393"
       id="path10"
       style="fill:none" /><path
       d="m 13.628457,17.088963 0.532684,-0.244325 -0.08443,-0.259214 1.011511,-0.456448 -0.265195,-0.802244 -1.63759,0.695504 z"
       fill="#525252"
       id="path12"
       style="fill:#444444;fill-opacity:1;stroke:#333333;stroke-width:0.507084;stroke-linecap:round;stroke-linejoin:round;stroke-dasharray:none;stroke-opacity:1"
       sodipodi:nodetypes="ccccccc" /><path
       d="m 11.961361,7.7131321 c 0,0 0.520778,1.5899277 1.473972,1.0395985 l 2.478359,-1.4308767 c 0,0 0.426596,-0.3892939 0.09453,-0.9919257 C 15.676178,5.7272701 15.602341,5.6268975 15.602341,5.6268975"
       fill="#404040"
       id="path13"
       style="stroke-width:0.507084;stroke-dasharray:none" /><path
       d="m 11.961361,7.7131321 c 0,0 0.520778,1.5899277 1.473972,1.0395985 l 2.478359,-1.4308767 c 0,0 0.426596,-0.3892939 0.09453,-0.9919257 C 15.676178,5.7272701 15.602341,5.6268975 15.602341,5.6268975 Z"
       stroke="#333333"
       stroke-width="2.19042"
       stroke-miterlimit="3.99393"
       id="path14"
       style="fill:none;stroke-width:0.507084;stroke-dasharray:none" /><path
       d="M 8.9782822,9.6040939 8.3188082,9.9848472 9.8368212,12.614123 10.496297,12.23337 Z"
       fill="#424242"
       id="path22"
       style="fill:#3d3d3d;fill-opacity:1;stroke:none;stroke-width:0.507084;stroke-dasharray:none;stroke-opacity:1"
       sodipodi:nodetypes="ccccc" /><path
       d="M 4.2144978,12.354466 3.5550236,12.73522 5.0730373,15.364495 5.7325118,14.983741 Z"
       fill="#424242"
       id="path22-8"
       style="fill:#3d3d3d;fill-opacity:1;stroke:none;stroke-width:0.507084;stroke-dasharray:none;stroke-opacity:1"
       sodipodi:nodetypes="ccccc" /><path
       d="m 5.1672547,11.804392 -0.6594742,0.380753 1.5180136,2.629276 0.6594745,-0.380754 z"
       fill="#424242"
       id="path22-1"
       style="fill:#3d3d3d;fill-opacity:1;stroke:none;stroke-width:0.507084;stroke-dasharray:none;stroke-opacity:1"
       sodipodi:nodetypes="ccccc" /><path
       d="M 6.1200113,11.254317 5.4605371,11.63507 6.9785507,14.264347 7.6380252,13.883593 Z"
       fill="#424242"
       id="path22-2"
       style="fill:#3d3d3d;fill-opacity:1;stroke:none;stroke-width:0.507084;stroke-dasharray:none;stroke-opacity:1"
       sodipodi:nodetypes="ccccc" /><path
       d="m 7.0727682,10.704243 -0.659474,0.380753 1.5180135,2.629276 0.6594745,-0.380754 z"
       fill="#424242"
       id="path22-16"
       style="fill:#3d3d3d;fill-opacity:1;stroke:none;stroke-width:0.507084;stroke-dasharray:none;stroke-opacity:1"
       sodipodi:nodetypes="ccccc" /><path
       d="m 8.0255247,10.154168 -0.659474,0.380754 1.5180135,2.629276 0.659474,-0.380754 z"
       fill="#424242"
       id="path22-6"
       style="fill:#3d3d3d;fill-opacity:1;stroke:none;stroke-width:0.507084;stroke-dasharray:none;stroke-opacity:1"
       sodipodi:nodetypes="ccccc" /><path
       d="m 24.539151,41.588289 15.888181,2.598998 -8.164809,24.433677 -19.308472,-1.103491 c 0,0 -3.8616521,-2.813556 4.413375,-15.226507 8.275027,-12.412951 7.171725,-10.702677 7.171725,-10.702677 z"
       fill="#525252"
       id="path23"
       style="fill:#4e4e4e;fill-opacity:1;stroke:none;stroke-width:1.06071;stroke-linecap:round;stroke-linejoin:round;stroke-dasharray:none;stroke-opacity:1"
       clip-path="url(#clipPath2)"
       sodipodi:nodetypes="ccccsc"
       transform="matrix(0.21598252,-0.12469756,0.12469756,0.21598252,-0.86187042,13.292538)" /><path
       d="m 22.960583,1.3452941 -0.659474,0.3807537 1.518013,2.629276 0.659474,-0.3807541 z"
       fill="#424242"
       id="path22-19"
       style="fill:#3d3d3d;fill-opacity:1;stroke:none;stroke-width:0.507084;stroke-dasharray:none;stroke-opacity:1"
       sodipodi:nodetypes="ccccc" /><path
       d="m 18.196798,4.0956662 -0.659474,0.3807537 1.518014,2.629276 0.659475,-0.3807541 z"
       fill="#424242"
       id="path22-8-8"
       style="fill:#3d3d3d;fill-opacity:1;stroke:none;stroke-width:0.507084;stroke-dasharray:none;stroke-opacity:1"
       sodipodi:nodetypes="ccccc" /><path
       d="m 19.149556,3.5455917 -0.659474,0.3807537 1.518013,2.629276 0.659475,-0.3807541 z"
       fill="#424242"
       id="path22-1-5"
       style="fill:#3d3d3d;fill-opacity:1;stroke:none;stroke-width:0.507084;stroke-dasharray:none;stroke-opacity:1"
       sodipodi:nodetypes="ccccc" /><path
       d="m 20.102312,2.9955174 -0.659474,0.3807537 1.518014,2.629276 0.659474,-0.3807541 z"
       fill="#424242"
       id="path22-2-0"
       style="fill:#3d3d3d;fill-opacity:1;stroke:none;stroke-width:0.507084;stroke-dasharray:none;stroke-opacity:1"
       sodipodi:nodetypes="ccccc" /><path
       d="m 21.055069,2.4454429 -0.659474,0.3807537 1.518014,2.6292759 0.659474,-0.380754 z"
       fill="#424242"
       id="path22-16-2"
       style="fill:#3d3d3d;fill-opacity:1;stroke:none;stroke-width:0.507084;stroke-dasharray:none;stroke-opacity:1"
       sodipodi:nodetypes="ccccc" /><path
       d="m 22.007826,1.8953686 -0.659475,0.3807537 1.518014,2.629276 0.659475,-0.3807541 z"
       fill="#424242"
       id="path22-6-8"
       style="fill:#3d3d3d;fill-opacity:1;stroke:none;stroke-width:0.507084;stroke-dasharray:none;stroke-opacity:1"
       sodipodi:nodetypes="ccccc" /><path
       d="M 2.8298422,12.809669 23.526392,0.86052137 c 0.3217,-0.185737 0.735175,-0.074939 0.920919,0.24677773 L 25.76128,3.3831462 3.8374854,16.040874 2.5647943,13.836516 c -0.2251775,-0.36252 -0.092404,-0.820467 0.2650479,-1.026847 z"
       stroke="#333333"
       stroke-width="4.64714"
       stroke-miterlimit="3.99393"
       id="path24"
       style="fill:none;stroke-width:1.01417;stroke-linecap:round;stroke-linejoin:round;stroke-dasharray:none" /><path
       d="m 12.320363,8.411983 c 0.243708,0.3331022 0.607632,0.6095631 1.080605,0.3586845 L 10.789484,10.279216 C 10.539267,10.423691 10.233519,10.36189 10.116586,10.15932 9.9927462,9.9448441 10.098996,9.6610819 10.349209,9.5166346 l 1.608553,-0.9286972 c 0.08955,-0.051721 0.222915,-0.1194998 0.3626,-0.1759559 z"
       fill="#4f4f4f"
       stroke="#333333"
       stroke-width="2.19042"
       stroke-miterlimit="3.99393"
       id="path25"
       style="stroke-width:0.507084;stroke-dasharray:none" /><path
       d="m 9.646731,21.173221 c -5.64e-5,-1.048175 3.458133,-2.206673 4.137513,-2.206766 l 97.811116,6.7e-5 c 0.33096,0 0.55161,0.275726 0.55168,0.551615 l 0.16548,4.57902 c -8e-5,2.427447 -1.6551,3.144641 -2.09643,3.254976 h -0.16549 l -1.59979,-7e-5 c -0.33102,9.1e-5 -0.55171,-0.27578 -0.55169,-0.551616 5e-5,-0.331059 -0.2758,-0.55169 -0.55164,-0.551708 l -1.65507,-1.4e-5 c -0.33096,0 -0.5516,0.275854 -0.55161,0.55169 -6e-5,0.331058 -0.27587,0.551654 -0.55171,0.551636 l -20.718334,1.9e-5 c -4.972111,1.409023 -4.688823,12.678105 -2.010484,16.329959 0.551602,0.772413 -2.592855,1.317904 -2.592855,1.317904 H 56.011505 c -0.772343,-0.38626 -3.476383,-2.420573 -8.189202,-1.042029 -2.482501,1.655055 -3.316211,4.489309 -1.875667,7.723586 0.110282,0.606913 -0.165572,1.213697 -0.717205,1.544773 -1.875719,1.048126 -2.813537,2.592917 -2.923873,2.813513 -0.05513,1.7e-5 -0.05517,0.05524 -0.05517,0.05524 -0.165484,0.330966 -1.544636,3.861775 -8e-6,5.075469 0.879617,1.048246 -0.526395,2.186084 -0.526395,2.186084 -0.55169,0.110318 -2.758336,0.993105 -3.751338,4.358321 -0.772315,2.813671 0.912544,4.654842 1.629738,6.144372 0.165522,0.331112 -0.165462,0.772431 -0.551669,0.717265 C 25.576191,72.431985 14.413076,72.996866 7.5503225,69.169941 1.5514783,65.345836 12.143819,49.845316 14.1152,46.550833 26.969174,26.193547 14.78752,22.924323 14.115238,22.828319 13.729032,22.773153 9.6467344,22.221487 9.646731,21.173221 Z"
       stroke="#333333"
       stroke-width="4.64714"
       stroke-miterlimit="3.99393"
       id="path26"
       style="fill:none;stroke-width:4.06652;stroke-linecap:round;stroke-linejoin:round;stroke-dasharray:none"
       clip-path="url(#clipPath1)"
       sodipodi:nodetypes="ccccccccccscccccccccccccccccccc"
       transform="matrix(0.21598252,-0.12469756,0.12469756,0.21598252,-0.86187042,13.292538)" /><path
       style="fill:#474747;fill-opacity:1;fill-rule:evenodd;stroke:#333333;stroke-width:0.507084;stroke-linecap:round;stroke-linejoin:round;stroke-miterlimit:29;stroke-dasharray:none;stroke-opacity:1"
       d="M 20.163194,8.8497254 20.016449,7.7628369 26.020684,4.2962906 c 0,0 0.430224,0.7501533 0.146745,1.0336447 -0.28351,0.2835081 -0.477937,0.275937 -0.477937,0.275937 l -0.288734,-0.032606 -0.40122,0.2316445 -0.120792,0.2799275 z"
       id="path27"
       sodipodi:nodetypes="ccccccccc" /><path
       style="fill:#525252;fill-opacity:1;fill-rule:evenodd;stroke:none;stroke-width:0.263943;stroke-linecap:round;stroke-linejoin:round;stroke-miterlimit:29;stroke-dasharray:none;stroke-opacity:1"
       d="m 13.929544,10.834913 0.665039,1.836688 c 0,0 0.42066,-0.56764 1.084136,-1.106024 0,0 0.179505,-0.637927 -0.341518,-1.540366 z"
       id="path29"
       sodipodi:nodetypes="ccccc" /><rect
       style="fill:url(#linearGradient29);fill-rule:evenodd;stroke:#333333;stroke-width:0.507084;stroke-linecap:round;stroke-linejoin:round;stroke-miterlimit:29;stroke-dasharray:none;stroke-opacity:1"
       id="rect28"
       width="0.83114195"
       height="1.0147725"
       x="11.123673"
       y="14.095463"
       transform="rotate(-14.700729)" /><g
       id="g29"
       transform="matrix(0.21598252,-0.12469756,0.12469756,0.21598252,4.1059141,16.395234)"><rect
         style="fill:#565656;fill-opacity:1;fill-rule:evenodd;stroke:none;stroke-width:0.729883;stroke-linecap:round;stroke-linejoin:round;stroke-miterlimit:29;stroke-dasharray:none;stroke-opacity:1"
         id="rect29"
         width="1.3868756"
         height="2.2955182"
         x="47.22311"
         y="-6.2194185" /><rect
         style="fill:#565656;fill-opacity:1;fill-rule:evenodd;stroke:none;stroke-width:0.729883;stroke-linecap:round;stroke-linejoin:round;stroke-miterlimit:29;stroke-dasharray:none;stroke-opacity:1"
         id="rect29-8"
         width="1.3868756"
         height="2.2955182"
         x="48.920116"
         y="-6.2194185" /><rect
         style="fill:#565656;fill-opacity:1;fill-rule:evenodd;stroke:none;stroke-width:0.729883;stroke-linecap:round;stroke-linejoin:round;stroke-miterlimit:29;stroke-dasharray:none;stroke-opacity:1"
         id="rect29-5"
         width="1.3868756"
         height="2.2955182"
         x="50.617126"
         y="-6.2194185" /><rect
         style="fill:#565656;fill-opacity:1;fill-rule:evenodd;stroke:none;stroke-width:0.729883;stroke-linecap:round;stroke-linejoin:round;stroke-miterlimit:29;stroke-dasharray:none;stroke-opacity:1"
         id="rect29-1"
         width="1.3868756"
         height="2.2955182"
         x="52.314133"
         y="-6.2194185" /><rect
         style="fill:#565656;fill-opacity:1;fill-rule:evenodd;stroke:none;stroke-width:0.729883;stroke-linecap:round;stroke-linejoin:round;stroke-miterlimit:29;stroke-dasharray:none;stroke-opacity:1"
         id="rect29-7"
         width="1.3868756"
         height="2.2955182"
         x="54.011139"
         y="-6.2194185" /><rect
         style="fill:#565656;fill-opacity:1;fill-rule:evenodd;stroke:none;stroke-width:0.729883;stroke-linecap:round;stroke-linejoin:round;stroke-miterlimit:29;stroke-dasharray:none;stroke-opacity:1"
         id="rect29-2"
         width="1.3868756"
         height="2.2955182"
         x="55.708149"
         y="-6.2194185" /><rect
         style="fill:#565656;fill-opacity:1;fill-rule:evenodd;stroke:none;stroke-width:0.729883;stroke-linecap:round;stroke-linejoin:round;stroke-miterlimit:29;stroke-dasharray:none;stroke-opacity:1"
         id="rect29-16"
         width="1.3868756"
         height="2.2955182"
         x="57.405155"
         y="-6.2194185" /></g><path
       style="fill:#464646;fill-opacity:1;fill-rule:evenodd;stroke:#333333;stroke-width:0.507084;stroke-linecap:round;stroke-linejoin:round;stroke-miterlimit:29;stroke-dasharray:none;stroke-opacity:1"
       d="m 8.8554262,13.313623 0.328586,0.569127 c 0,0 0.17896,0.206204 0.366173,0.09812 l 0.6215478,-0.35885 c 0,0 0.217436,-0.185445 0.102863,-0.383891 L 9.9524942,12.68023 Z"
       id="path30"
       sodipodi:nodetypes="ccscscc" /><path
       style="fill:#4d4d4d;fill-opacity:1;fill-rule:evenodd;stroke:#333333;stroke-width:0.507084;stroke-linecap:round;stroke-linejoin:round;stroke-miterlimit:29;stroke-dasharray:none;stroke-opacity:1"
       d="m 9.0312752,14.30564 0.545478,0.02455 0.8906358,-0.514209 0.273588,-0.457496 0.426898,0.739409 -1.6924068,0.977111 z"
       id="path31"
       sodipodi:nodetypes="ccccccc" /><g
       id="g32"
       transform="matrix(0.21205148,-0.12242798,0.12242798,0.21205148,-0.64738052,13.310101)"><rect
         style="fill:#393939;fill-opacity:1;fill-rule:evenodd;stroke:none;stroke-width:0.417783;stroke-linecap:round;stroke-linejoin:round;stroke-miterlimit:29;stroke-dasharray:none;stroke-opacity:1"
         id="rect32"
         width="3.083818"
         height="0.36943957"
         x="34.631554"
         y="21.594212" /><rect
         style="fill:#393939;fill-opacity:1;fill-rule:evenodd;stroke:none;stroke-width:0.417783;stroke-linecap:round;stroke-linejoin:round;stroke-miterlimit:29;stroke-dasharray:none;stroke-opacity:1"
         id="rect32-9"
         width="3.083818"
         height="0.36943957"
         x="34.631554"
         y="21.092056" /><rect
         style="fill:#393939;fill-opacity:1;fill-rule:evenodd;stroke:none;stroke-width:0.417783;stroke-linecap:round;stroke-linejoin:round;stroke-miterlimit:29;stroke-dasharray:none;stroke-opacity:1"
         id="rect32-5"
         width="3.083818"
         height="0.36943957"
         x="34.631554"
         y="20.589901" /></g><g
       id="g34"
       transform="matrix(0.23587776,-0.18828096,0.18828096,0.23587776,-2.2025276,14.098338)"><ellipse
         style="fill:#505050;fill-opacity:1;fill-rule:evenodd;stroke:none;stroke-width:1.05833;stroke-linecap:round;stroke-linejoin:round;stroke-miterlimit:29;stroke-dasharray:none;stroke-opacity:1"
         id="path34"
         cx="35.504314"
         cy="25.839521"
         rx="7.35044"
         ry="2.9124386"
         transform="rotate(15)" /></g></g></svg>
