<svg width="110" height="110" viewBox="0 0 110 110" fill="none" xmlns="http://www.w3.org/2000/svg">
<g clip-path="url(#clip0_619_1194)">
<path d="M43.2181 61.0885C42.7871 61.3504 42.3433 61.5637 41.732 61.8116C41.1773 62.0365 41.0495 62.7025 41.0996 63.1724L41.2137 63.1065C41.3065 63.0922 41.3846 63.084 41.4155 63.1536C41.9383 64.3326 42.3125 64.411 43.0005 64.4773C43.0437 64.4815 43.063 64.4268 43.0199 64.4052C42.8883 64.3393 42.8271 64.2887 42.7471 64.1714C41.9118 63.6892 41.8009 63.0616 41.8727 62.5891C41.9441 62.1197 42.3634 61.671 43.2181 61.0885Z" fill="#383633" stroke="#363330" stroke-width="0.493136"/>
<path fill-rule="evenodd" clip-rule="evenodd" d="M101.609 22.2367L88.5527 29.7135C88.1104 29.6499 87.6447 29.641 87.2098 29.7037C85.8467 29.9001 85.0909 30.2151 83.9305 30.6988C83.8365 30.7379 83.74 30.7782 83.6402 30.8196L58.0861 45.6584L58.136 45.7449L57.7983 45.9399C57.7585 45.9629 57.7291 45.9901 57.7127 46.0235C57.4833 45.6756 57.0455 45.0387 56.6738 44.6045L100.354 20.0625L100.859 19.5828L107.02 16.0258C107.188 15.9286 107.863 15.9552 108.395 16.8771C108.927 17.7989 108.606 18.3894 108.44 18.4855L102.279 22.0425L101.609 22.2367ZM106.593 18.5257C107.329 18.1011 107.811 17.5596 107.67 17.316C107.529 17.0724 106.819 17.2191 106.084 17.6436C105.349 18.0682 104.867 18.6097 105.007 18.8533C105.148 19.0969 105.858 18.9502 106.593 18.5257ZM107.169 16.4484C107.239 16.5697 106.7 17.0121 105.964 17.4366C105.229 17.8611 104.576 18.107 104.506 17.9858C104.436 17.8646 104.976 17.4222 105.711 16.9977C106.446 16.5731 107.099 16.3273 107.169 16.4484ZM106.966 19.1717C107.702 18.7471 108.241 18.3047 108.171 18.1836C108.101 18.0623 107.448 18.3082 106.713 18.7327C105.978 19.1573 105.438 19.5997 105.508 19.7209C105.578 19.8421 106.231 19.5962 106.966 19.1717Z" fill="#3B3835"/>
<rect x="37.8438" y="54.2764" width="19.988" height="0.753993" transform="rotate(-30 37.8438 54.2764)" fill="#3E3B38"/>
<rect x="96.4746" y="20.5586" width="0.793663" height="0.524643" transform="rotate(-30 96.4746 20.5586)" fill="#383633"/>
<path d="M95.5645 20.5471L98.8635 18.6424C98.8175 18.2131 98.3792 17.7744 98.0335 17.9741L95.9338 19.1863C95.586 19.3871 95.3969 19.8455 95.536 20.4343L95.5645 20.5471Z" fill="#403D3A"/>
<path d="M95.798 22.6864L95.7094 21.7661L95.7755 21.5016L99.4859 19.3594C99.6225 19.3688 99.6842 19.4234 99.7773 19.5129L100.356 20.129L95.798 22.6864Z" fill="#403D3A"/>
<path d="M95.541 28.0654L96.0866 27.7504C96.1514 27.713 96.3624 27.9348 96.4502 28.087C96.5381 28.2391 96.6233 28.5302 96.5585 28.5677L96.0129 28.8827L95.541 28.0654Z" fill="#383633" stroke="#353331" stroke-width="0.493136"/>
<path fill-rule="evenodd" clip-rule="evenodd" d="M38.1938 54.8741C36.4321 56.2349 35.5875 57.098 34.3866 58.8496L35.3376 60.0579L37.8422 62.5724L38.0839 62.7729L44.9605 58.7373C45.4955 58.4087 45.8388 58.3177 46.5051 58.2727L60.1496 50.2521C60.0939 50.1398 60.0312 50.019 59.9605 49.8869L57.8675 46.2618C57.7871 46.1226 56.7106 44.4722 56.2434 44.1876L38.1938 54.8741ZM46.4863 51.2212C46.4616 51.0116 46.4913 50.7055 46.7037 50.5828L53.8826 46.4381C54.095 46.3155 54.3666 46.3883 54.4893 46.6007L55.4773 48.312C55.5999 48.5244 55.5272 48.796 55.3147 48.9187L47.3122 53.539C47.2093 53.5983 47.1198 53.5962 47.0128 53.5703L42.5719 56.1343C42.3595 56.2569 42.0879 56.1841 41.9652 55.9717C41.8426 55.7593 41.9154 55.4877 42.1278 55.365L46.2094 53.0085C46.3176 52.9461 46.5884 52.4486 46.581 52.0806L46.4863 51.2212Z" fill="#4B4744"/>
<path d="M12.1395 95.8406L12.2288 95.6822C11.7884 95.6817 10.8524 94.8433 10.2312 94.0842C10.1402 93.9729 4.84552 87.7453 3.85811 86.0412C2.87069 84.337 2.08924 83.1126 2.08924 83.1126C1.35012 83.6827 1.02151 84.7849 1.44787 85.3427L1.94748 86.005C2.14801 86.1176 2.21551 86.2126 2.26893 86.4312L2.79067 87.1229C3.00698 87.2348 3.0909 87.3335 3.15074 87.6002L3.64473 88.2551C3.88111 88.3289 3.99924 88.3971 4.01681 88.6961L4.47227 89.3335C4.77637 89.3823 4.8797 89.4705 4.85032 89.7556L5.37163 90.4591C5.58945 90.5118 5.65162 90.5805 5.61955 90.7936L6.19632 91.5718C6.37948 91.6381 6.46904 91.6947 6.48587 91.9165L7.07384 92.7206C7.28121 92.7939 7.33879 92.8891 7.36861 93.1238L7.89401 93.8424C8.03879 93.9337 8.10142 94.001 8.1306 94.1902L8.67786 94.9635C8.86847 95.0499 8.93471 95.1343 8.98629 95.3363L9.4432 95.915C9.88692 96.4618 10.5958 96.7106 11.2333 96.3639L12.1395 95.8406Z" fill="#413B35"/>
<path d="M3.85718 86.0414C2.86977 84.3372 2.08831 83.1128 2.08831 83.1128C2.49279 82.6336 2.87069 82.3827 3.38344 82.2223C3.59532 82.156 3.75823 82.317 3.84871 82.4891C3.24349 82.7118 3.1823 83.5251 3.53449 84.1351C6.39008 89.0811 8.33475 90.8119 12.3514 94.9572C12.4439 95.0579 12.6807 95.0924 13.0045 95.0996L12.9884 95.1204C12.7324 95.4518 12.5539 95.6828 12.2279 95.6824C11.7874 95.6819 10.8515 94.8435 10.2303 94.0844C10.1392 93.9731 4.84459 87.7456 3.85718 86.0414Z" fill="#433D37"/>
<path d="M3.53467 84.1344C3.18249 83.5244 3.24368 82.7111 3.8489 82.4884L7.09357 79.9738C7.09796 79.8214 7.14466 79.6986 7.30655 79.5597L24.5133 66.1803C24.7087 66.0306 24.7819 65.9904 25.0167 65.9199C25.2355 65.8543 25.399 65.7624 25.5938 65.6103L29.4955 62.5498C29.5761 62.4888 29.6095 62.4761 29.6494 62.5229C29.636 62.6969 29.6448 62.8061 29.6816 63.0141L31.253 67.6137C31.4382 68.1458 31.6182 68.2954 31.9292 68.4366C30.3834 69.6558 29.6489 70.4597 28.5983 72.1188L24.4308 78.6173C24.2086 78.9178 24.0799 79.0876 23.8396 79.3966L13.3128 90.6868C13.0933 90.9491 13.0539 91.1106 13.1541 91.4317L13.7643 93.1091C13.9013 93.4845 13.8645 93.8134 13.6817 94.1334L13.151 94.7942C13.1466 94.9452 13.1065 95.007 13.0047 95.0988C12.6809 95.0917 12.444 95.0572 12.3516 94.9564C8.33493 90.8112 6.39026 89.0804 3.53467 84.1344Z" fill="#49423B"/>
<path d="M31.9297 68.4373C31.6186 68.2961 31.4386 68.1464 31.2535 67.6143C33.8742 65.8046 35.3177 64.7012 37.8433 62.5735L39.1293 63.6403C40.1986 63.7441 40.7312 63.931 41.4981 64.6181C41.3344 64.7438 41.3123 64.8141 41.3652 64.9057C41.4008 64.9674 41.2313 65.1807 41.1938 65.2267C40.8594 65.6366 40.5569 66.1927 40.4137 66.7715C40.2507 67.4305 40.2763 68.1062 40.3813 68.4018C40.4451 68.5813 40.4483 68.695 40.4227 68.8958C40.3873 69.1735 40.5268 69.6989 40.6951 70.177C40.7449 70.3185 40.7668 70.3732 40.7501 70.5072C40.7183 70.7618 40.8602 71.2448 41.069 71.6893C41.1341 71.8278 41.1435 71.9064 41.1348 72.0576C41.1139 72.4196 41.257 72.7942 41.4883 73.232C41.5664 73.3798 41.5965 73.4602 41.5966 73.6459C41.5968 73.8317 41.6536 74.0735 41.7263 74.1994C41.7263 74.1994 42.2339 75.0607 42.5694 75.5007C42.8327 75.846 43.4475 76.1172 43.7375 76.2194C43.821 76.2488 43.8504 76.2664 43.8709 76.3137C43.9335 76.4577 43.7824 76.7054 43.6424 76.804C43.2133 77.106 38.7167 79.3773 38.3893 79.5615C38.062 79.7456 36.9328 80.3292 36.5995 80.1041C36.4596 80.0095 36.2392 79.0784 36.2435 79.0278C36.2779 78.6256 36.3125 78.4261 36.1525 78.0289C36.0737 77.8332 35.8721 77.6029 35.8765 77.5507C35.8941 77.3414 35.8642 76.5542 35.6202 75.9794C35.566 75.8517 35.5751 75.7801 35.5963 75.6669C35.6451 75.4057 35.6372 74.9011 35.5279 74.4497C35.5087 74.3701 35.4855 74.3301 35.5302 74.2339C35.5981 74.0878 35.5248 73.8802 35.4687 73.6773C35.4474 73.6004 35.4441 73.5956 35.4518 73.533C35.5051 73.0989 35.4968 72.8158 35.3886 72.4398C35.3489 72.302 35.3341 72.2326 35.3658 72.0602C35.4819 71.4286 35.5034 71.0685 35.4198 70.4095C35.4105 69.3799 34.956 68.7333 34.2389 68.3641C33.5217 67.9949 32.6977 67.8864 31.9297 68.4373Z" fill="#413B35"/>
<path d="M31.2518 67.6143C33.8725 65.8046 35.3161 64.7011 37.8416 62.5734L35.3371 60.059C33.2531 61.6252 32.0834 62.4749 29.9947 63.9346L31.2518 67.6143Z" fill="#544D45"/>
<path d="M35.3377 60.0592C33.2537 61.6254 32.0841 62.4751 29.9953 63.9348L29.6811 63.0148C29.6442 62.8069 29.6354 62.6977 29.6488 62.5237C29.609 62.4768 29.7258 62.3298 29.8035 62.2652L34.2283 58.7974C34.2795 58.7576 34.3139 58.764 34.3632 58.8211L35.3377 60.0592Z" fill="#5A524A"/>
<path d="M16.3463 87.4314L17.0102 88.0744C17.0102 88.0744 17.2819 88.2259 17.6152 87.8584C17.9484 87.4909 17.7472 87.3134 17.7472 87.3134L17.0689 86.6565L16.3463 87.4314Z" fill="#3E3832" stroke="#38332E" stroke-width="0.493136"/>
<path d="M7.30743 79.5593L24.5141 66.1799L21.5072 73.0657C21.3054 73.491 21.1026 73.7417 20.8195 74.0341L9.39718 85.4935C9.25769 85.6399 9.20162 85.6001 9.11661 85.4467C7.56994 82.6081 7.05869 81.2161 7.09445 79.9734C7.09884 79.821 7.14554 79.6983 7.30743 79.5593Z" fill="#464039"/>
<path d="M18.1018 74.0707C17.939 74.1647 17.8833 74.3728 17.9772 74.5355L18.4555 75.3639C18.5494 75.5266 18.7575 75.5823 18.9203 75.4884C19.083 75.3944 19.1388 75.1863 19.0448 75.0236L18.5666 74.1953C18.4726 74.0325 18.2645 73.9768 18.1018 74.0707Z" fill="#413B35"/>
<path d="M17.0711 75.4446C16.9771 75.2819 17.0329 75.0738 17.1956 74.9799C17.3583 74.8859 17.5664 74.9417 17.6604 75.1044L18.1386 75.9327C18.2326 76.0955 18.1768 76.3036 18.0141 76.3975C17.8514 76.4915 17.6433 76.4357 17.5493 76.273L17.0711 75.4446Z" fill="#413B35"/>
<path d="M16.2894 75.889C16.1267 75.9829 16.0709 76.191 16.1649 76.3538L16.6431 77.1821C16.7371 77.3448 16.9452 77.4006 17.1079 77.3066C17.2707 77.2127 17.3264 77.0046 17.2325 76.8418L16.7542 76.0135C16.6603 75.8508 16.4522 75.795 16.2894 75.889Z" fill="#413B35"/>
<path d="M15.2587 77.2629C15.1648 77.1002 15.2205 76.8921 15.3833 76.7981C15.546 76.7042 15.7541 76.7599 15.8481 76.9226L16.3263 77.751C16.4203 77.9137 16.3645 78.1218 16.2018 78.2158C16.039 78.3097 15.8309 78.254 15.737 78.0912L15.2587 77.2629Z" fill="#413B35"/>
<path d="M14.4771 77.7072C14.3144 77.8012 14.2586 78.0093 14.3526 78.172L14.8308 79.0004C14.9248 79.1631 15.1329 79.2188 15.2956 79.1249C15.4583 79.0309 15.5141 78.8228 15.4201 78.6601L14.9419 77.8318C14.8479 77.669 14.6398 77.6133 14.4771 77.7072Z" fill="#413B35"/>
<path d="M13.4464 79.0811C13.3524 78.9184 13.4082 78.7103 13.5709 78.6164C13.7337 78.5224 13.9418 78.5782 14.0357 78.7409L14.514 79.5692C14.6079 79.732 14.5521 79.9401 14.3894 80.034C14.2267 80.128 14.0186 80.0722 13.9246 79.9095L13.4464 79.0811Z" fill="#413B35"/>
<path d="M12.6648 79.5255C12.502 79.6194 12.4463 79.8275 12.5402 79.9903L13.0185 80.8186C13.1124 80.9813 13.3205 81.0371 13.4833 80.9431C13.646 80.8492 13.7018 80.6411 13.6078 80.4783L13.1296 79.65C13.0356 79.4873 12.8275 79.4315 12.6648 79.5255Z" fill="#413B35"/>
<path d="M11.6341 80.8994C11.5401 80.7367 11.5959 80.5286 11.7586 80.4346C11.9213 80.3407 12.1294 80.3964 12.2234 80.5591L12.7016 81.3875C12.7956 81.5502 12.7398 81.7583 12.5771 81.8523C12.4143 81.9462 12.2063 81.8905 12.1123 81.7277L11.6341 80.8994Z" fill="#413B35"/>
<path d="M10.8524 81.3437C10.6897 81.4377 10.6339 81.6458 10.7279 81.8085L11.2061 82.6369C11.3001 82.7996 11.5082 82.8553 11.6709 82.7614C11.8336 82.6674 11.8894 82.4593 11.7955 82.2966L11.3172 81.4683C11.2233 81.3055 11.0152 81.2498 10.8524 81.3437Z" fill="#413B35"/>
<path d="M9.82172 82.7176C9.72775 82.5549 9.78352 82.3468 9.94626 82.2529C10.109 82.1589 10.3171 82.2147 10.411 82.3774L10.8893 83.2057C10.9832 83.3685 10.9275 83.5766 10.7647 83.6705C10.602 83.7645 10.3939 83.7087 10.3 83.546L9.82172 82.7176Z" fill="#413B35"/>
<path d="M8.91553 83.6267C8.82157 83.464 8.87734 83.2559 9.04008 83.162C9.20281 83.068 9.4109 83.1237 9.50486 83.2865L9.9831 84.1148C10.0771 84.2776 10.0213 84.4857 9.85856 84.5796C9.69582 84.6736 9.48773 84.6178 9.39377 84.4551L8.91553 83.6267Z" fill="#413B35"/>
<path d="M13.68 90.2916L13.3114 90.6869C13.2692 90.7374 13.2336 90.7841 13.2044 90.829L11.0776 87.1452C10.9836 86.9824 11.0394 86.7744 11.2021 86.6804C11.3649 86.5865 11.5729 86.6422 11.6669 86.8049L13.68 90.2916Z" fill="#433D37"/>
<path d="M14.6365 89.2657L14.1512 89.7862L12.0536 86.1529C11.9596 85.9902 12.0154 85.7821 12.1781 85.6881C12.3408 85.5942 12.5489 85.6499 12.6429 85.8126L14.6365 89.2657Z" fill="#433D37"/>
<path d="M15.5931 88.2398L15.1078 88.7603L13.0295 85.1606C12.9356 84.9979 12.9914 84.7898 13.1541 84.6958C13.3168 84.6019 13.5249 84.6576 13.6189 84.8204L15.5931 88.2398Z" fill="#433D37"/>
<path d="M16.5497 87.2139L16.0644 87.7343L14.0055 84.1683C13.9116 84.0056 13.9673 83.7975 14.1301 83.7035C14.2928 83.6096 14.5009 83.6653 14.5949 83.8281L16.5497 87.2139Z" fill="#433D37"/>
<path d="M17.5062 86.1879L17.0209 86.7084L14.9815 83.176C14.8875 83.0133 14.9433 82.8052 15.106 82.7112C15.2688 82.6173 15.4769 82.673 15.5708 82.8358L17.5062 86.1879Z" fill="#433D37"/>
<path d="M18.4628 85.162L17.9775 85.6825L15.9575 82.1837C15.8635 82.021 15.9193 81.8129 16.082 81.7189C16.2448 81.625 16.4529 81.6807 16.5468 81.8435L18.4628 85.162Z" fill="#433D37"/>
<path d="M19.4194 84.1361L18.9341 84.6566L16.9335 81.1914C16.8395 81.0287 16.8953 80.8206 17.058 80.7266C17.2208 80.6327 17.4288 80.6884 17.5228 80.8512L19.4194 84.1361Z" fill="#433D37"/>
<path d="M20.3759 83.1102L19.8906 83.6306L17.9095 80.1991C17.8155 80.0364 17.8713 79.8283 18.034 79.7343C18.1967 79.6404 18.4048 79.6961 18.4988 79.8589L20.3759 83.1102Z" fill="#433D37"/>
<path d="M21.3325 82.0842L20.8472 82.6047L18.8854 79.2068C18.7915 79.0441 18.8473 78.836 19.01 78.742C19.1727 78.6481 19.3808 78.7038 19.4748 78.8666L21.3325 82.0842Z" fill="#433D37"/>
<path d="M22.2891 81.0583L21.8038 81.5788L19.8614 78.2145C19.7675 78.0518 19.8232 77.8437 19.986 77.7497C20.1487 77.6558 20.3568 77.7115 20.4508 77.8743L22.2891 81.0583Z" fill="#433D37"/>
<path d="M35.1833 60.581C35.0803 60.6202 35.0287 60.7355 35.0679 60.8384L36.0748 63.4815C36.114 63.5844 36.2293 63.6361 36.3322 63.5969C36.4351 63.5577 36.4868 63.4424 36.4476 63.3395L35.4407 60.6964C35.4015 60.5935 35.2862 60.5418 35.1833 60.581Z" fill="#4F4740"/>
<path d="M34.3434 61.4522C34.3042 61.3492 34.3558 61.234 34.4588 61.1948C34.5617 61.1555 34.677 61.2072 34.7162 61.3101L35.6792 63.8381C35.7185 63.941 35.6668 64.0563 35.5639 64.0955C35.4609 64.1347 35.3457 64.083 35.3065 63.9801L34.3434 61.4522Z" fill="#4F4740"/>
<path d="M33.7343 61.8085C33.6314 61.8477 33.5797 61.963 33.6189 62.0659L34.531 64.46C34.5702 64.5629 34.6854 64.6146 34.7884 64.5754C34.8913 64.5362 34.943 64.4209 34.9038 64.318L33.9917 61.9239C33.9525 61.821 33.8373 61.7693 33.7343 61.8085Z" fill="#4F4740"/>
<path d="M32.8944 62.6797C32.8552 62.5768 32.9069 62.4615 33.0098 62.4223C33.1128 62.3831 33.228 62.4347 33.2672 62.5377L33.5143 63.1863C33.5536 63.2892 33.5019 63.4045 33.399 63.4437C33.296 63.4829 33.1808 63.4313 33.1416 63.3283L32.8944 62.6797Z" fill="#4F4740"/>
<path d="M32.2853 63.0361C32.1824 63.0753 32.1307 63.1905 32.17 63.2935L32.424 63.9604C32.4633 64.0634 32.5785 64.115 32.6814 64.0758C32.7844 64.0366 32.8361 63.9213 32.7968 63.8184L32.5428 63.1514C32.5035 63.0485 32.3883 62.9968 32.2853 63.0361Z" fill="#4F4740"/>
<path d="M31.4455 63.9072C31.4063 63.8043 31.4579 63.689 31.5609 63.6498C31.6638 63.6106 31.7791 63.6623 31.8183 63.7652L32.5492 65.6839C32.5885 65.7869 32.5368 65.9021 32.4338 65.9413C32.3309 65.9806 32.2157 65.9289 32.1764 65.826L31.4455 63.9072Z" fill="#4F4740"/>
<path d="M30.721 64.5211C30.6818 64.4181 30.7335 64.3029 30.8364 64.2637C30.9394 64.2244 31.0546 64.2761 31.0938 64.379L31.7709 66.1563C31.8101 66.2592 31.7584 66.3745 31.6555 66.4137C31.5526 66.4529 31.4373 66.4013 31.3981 66.2983L30.721 64.5211Z" fill="#4F4740"/>
<ellipse cx="33.4971" cy="64.4722" rx="0.727098" ry="0.727073" transform="rotate(-30 33.4971 64.4722)" fill="#49423B"/>
<path fill-rule="evenodd" clip-rule="evenodd" d="M41.5377 61.4494C41.6664 61.3714 41.8008 61.2899 41.9422 61.2044L45.4282 59.1918C46.0008 58.8838 46.49 58.7733 46.8551 58.8798C46.9356 58.9033 47.0025 58.914 47.0492 58.887L49.712 57.3173C49.1828 58.8109 48.6415 59.8719 48.0188 61.0925C47.8041 61.5133 47.5798 61.9531 47.3429 62.4361C46.9816 63.1728 45.6634 64.2529 44.8181 64.659C43.9436 65.0793 42.3725 65.4026 41.4972 64.6183C40.7303 63.9312 40.1977 63.7443 39.1285 63.6405L38.5176 63.1338C39.7404 62.5386 40.4325 62.1192 41.5377 61.4494ZM41.7313 61.8123C42.8302 61.3667 43.3877 61.0329 44.3026 60.3277C44.4199 60.2373 45.5628 60.0565 46.1262 60.7321C46.6895 61.4077 46.6895 61.7078 46.5722 62.2008C46.4549 62.6938 46.1556 63.3215 44.9152 64.0279C43.8619 64.6277 43.0582 64.617 42.4293 64.5292C41.8003 64.4414 41.4056 63.9102 41.2087 63.5712C41.0119 63.2322 40.9795 62.1171 41.7313 61.8123Z" fill="#3E3B38"/>
<ellipse cx="48.1572" cy="56.6328" rx="0.269482" ry="0.269473" transform="rotate(-30 48.1572 56.6328)" fill="#55524E"/>
<ellipse cx="55.2918" cy="51.7779" rx="0.591102" ry="0.591083" transform="rotate(-30 55.2918 51.7779)" fill="#43403D"/>
<path d="M46.5806 52.0804C46.5844 52.2714 46.5134 52.4972 46.429 52.6791L46.9607 53.6L47.0125 53.5702C47.1194 53.596 47.209 53.5982 47.3118 53.5388L55.3144 48.9185C55.5268 48.7959 55.5996 48.5243 55.4769 48.3119L54.4889 46.6005C54.3662 46.3881 54.0946 46.3153 53.8822 46.438L46.7034 50.5827C46.4909 50.7053 46.4612 51.0114 46.4859 51.2211L46.5806 52.0804Z" fill="#3D3B38"/>
<path d="M46.9621 53.6003L46.4304 52.6793C46.3522 52.8479 46.2625 52.9786 46.2104 53.0086L45.8864 53.1957L46.3305 53.9649L46.9621 53.6003Z" fill="#383633"/>
<path d="M46.3304 53.9656L45.8863 53.1964L42.1288 55.3658C41.9163 55.4885 41.8436 55.7601 41.9662 55.9725C42.0888 56.1849 42.3604 56.2577 42.5729 56.135L46.3304 53.9656Z" fill="#282624"/>
<ellipse cx="54.3842" cy="47.8856" rx="0.551233" ry="0.321424" transform="rotate(-30 54.3842 47.8856)" fill="#383633"/>
<path d="M53.2856 50.0907C53.3485 49.9133 53.3412 49.7242 53.2489 49.5643C53.0618 49.2402 52.5957 49.1589 52.208 49.3827C51.8202 49.6066 51.6576 50.0509 51.8447 50.3751C51.9371 50.5349 52.0972 50.6357 52.2823 50.67L53.2856 50.0907Z" fill="#383633"/>
<path d="M54.9004 47.3104L55.1404 47.726L54.406 48.15L54.166 47.7344L54.9004 47.3104Z" fill="#43403D"/>
<path d="M53.3229 49.9283C53.3363 49.802 53.3134 49.6761 53.2489 49.5644C53.1844 49.4527 53.0868 49.3698 52.9707 49.3184C53.322 49.1449 53.6558 49.123 53.7452 49.2778C53.8346 49.4326 53.6487 49.7108 53.3229 49.9283Z" fill="#3B3835"/>
<path d="M51.1831 50.2972C51.0097 50.3974 50.9503 50.6191 51.0504 50.7925C51.1505 50.9659 51.3723 51.0253 51.5457 50.9252L52.71 50.253L52.3475 49.625L51.1831 50.2972Z" fill="#46423F"/>
<rect x="37.6582" y="53.9531" width="0.89506" height="0.37455" transform="rotate(-30 37.6582 53.9531)" fill="#484541"/>
<rect x="38.9297" y="53.2188" width="0.89506" height="0.37455" transform="rotate(-30 38.9297 53.2188)" fill="#484541"/>
<rect x="40.2012" y="52.4844" width="0.89506" height="0.37455" transform="rotate(-30 40.2012 52.4844)" fill="#484541"/>
<rect x="41.4746" y="51.75" width="0.89506" height="0.37455" transform="rotate(-30 41.4746 51.75)" fill="#484541"/>
<rect x="42.7461" y="51.0146" width="0.89506" height="0.37455" transform="rotate(-30 42.7461 51.0146)" fill="#484541"/>
<rect x="44.0176" y="50.2812" width="0.89506" height="0.37455" transform="rotate(-30 44.0176 50.2812)" fill="#484541"/>
<rect x="45.2891" y="49.5469" width="0.89506" height="0.37455" transform="rotate(-30 45.2891 49.5469)" fill="#484541"/>
<rect x="46.5605" y="48.8125" width="0.89506" height="0.37455" transform="rotate(-30 46.5605 48.8125)" fill="#484541"/>
<rect x="47.834" y="48.0781" width="0.89506" height="0.37455" transform="rotate(-30 47.834 48.0781)" fill="#484541"/>
<rect x="49.1035" y="47.3447" width="0.89506" height="0.37455" transform="rotate(-30 49.1035 47.3447)" fill="#484541"/>
<rect x="50.377" y="46.6094" width="0.89506" height="0.37455" transform="rotate(-30 50.377 46.6094)" fill="#484541"/>
<rect x="51.6504" y="45.875" width="0.89506" height="0.37455" transform="rotate(-30 51.6504 45.875)" fill="#484541"/>
<rect x="52.9199" y="45.1416" width="0.89506" height="0.37455" transform="rotate(-30 52.9199 45.1416)" fill="#484541"/>
<rect x="54.1934" y="44.4062" width="0.89506" height="0.37455" transform="rotate(-30 54.1934 44.4062)" fill="#484541"/>
<rect width="9.70723" height="0.753993" transform="matrix(0.866025 -0.5 -0.5 -0.866025 83.0254 39.3301)" fill="#3E3B38"/>
<rect width="0.89506" height="0.37455" transform="matrix(0.866025 -0.5 -0.5 -0.866025 83.2129 39.6543)" fill="#4B4744"/>
<rect width="0.89506" height="0.37455" transform="matrix(0.866025 -0.5 -0.5 -0.866025 84.4863 38.9189)" fill="#4B4744"/>
<rect width="0.89506" height="0.37455" transform="matrix(0.866025 -0.5 -0.5 -0.866025 85.7598 38.1846)" fill="#4B4744"/>
<rect width="0.89506" height="0.37455" transform="matrix(0.866025 -0.5 -0.5 -0.866025 87.0293 37.4512)" fill="#4B4744"/>
<rect width="0.89506" height="0.37455" transform="matrix(0.866025 -0.5 -0.5 -0.866025 88.3027 36.7158)" fill="#4B4744"/>
<rect width="0.89506" height="0.37455" transform="matrix(0.866025 -0.5 -0.5 -0.866025 89.5723 35.9824)" fill="#4B4744"/>
<rect width="0.89506" height="0.37455" transform="matrix(0.866025 -0.5 -0.5 -0.866025 90.8457 35.2471)" fill="#4B4744"/>
<path d="M85.5692 37.8611L85.0724 38.1479L85.2598 38.4724L84.4846 38.9199L84.2973 38.5954L83.8006 38.8822L83.9879 39.2067L83.2128 39.6542L82.6484 38.6768L91.0551 33.8231L91.6194 34.8006L90.8442 35.2482L90.6569 34.9237L90.1601 35.2105L90.3474 35.535L89.5723 35.9825L89.385 35.6581L88.8883 35.9448L89.0756 36.2693L88.3004 36.7168L88.1131 36.3924L87.6163 36.6792L87.8036 37.0037L87.0285 37.4512L86.8412 37.1267L86.3444 37.4135L86.5317 37.738L85.7566 38.1855L85.5692 37.8611Z" stroke="#363330" stroke-width="0.493136"/>
<path d="M45.9859 48.6079L46.5938 49.6607L41.7368 52.4649L41.1289 51.4121L45.9859 48.6079Z" fill="#504D49"/>
<path d="M41.5108 49.1899C41.3096 49.3062 40.6133 50.5202 40.758 50.7707L41.1282 51.4119L45.9852 48.6077L45.615 47.9665C45.5628 47.876 45.4072 47.871 45.247 47.8926C45.204 47.8984 43.8014 48.2449 42.8694 48.545C42.5326 48.6535 42.3168 48.7246 42.1557 48.8176L41.5108 49.1899Z" fill="#4B4744"/>
<ellipse cx="43.7447" cy="50.2724" rx="0.432212" ry="0.432197" transform="rotate(-30 43.7447 50.2724)" fill="#5B5753"/>
<rect x="41.5781" y="49.6602" width="0.8319" height="1.58052" rx="0.41595" transform="rotate(-30 41.5781 49.6602)" fill="#403D3A"/>
<ellipse cx="42.3343" cy="50.1376" rx="0.370569" ry="0.370557" transform="rotate(-30 42.3343 50.1376)" fill="#43403D"/>
<path d="M41.5108 49.1906C41.3096 49.3068 40.6133 50.5208 40.758 50.7714L41.5477 52.1392L41.1635 52.361L40.9762 52.0365L40.201 52.4841L40.3884 52.8085L39.8917 53.0953L39.7043 52.7708L38.9292 53.2183L39.1165 53.5428L38.6197 53.8296L38.4324 53.5052L37.6572 53.9527L38.2216 54.9301L55.5317 44.9361L55.1547 44.2832L55.1546 44.2832L54.9673 43.9588L54.1921 44.4063L54.3794 44.7308L53.8827 45.0175L53.6954 44.6931L52.9203 45.1406L53.1076 45.4651L52.6108 45.7519L52.4235 45.4274L51.6483 45.8749L51.8357 46.1994L51.3389 46.4862L51.1515 46.1618L50.3764 46.6093L50.5637 46.9338L50.0669 47.2206L49.8796 46.8961L49.1044 47.3437L49.2918 47.6681L48.7951 47.9549L48.6077 47.6304L47.8326 48.078L48.0199 48.4024L47.5231 48.6893L47.3358 48.3648L46.5606 48.8123L46.748 49.1368L46.4047 49.335L45.615 47.9672C45.5628 47.8767 45.4072 47.8717 45.247 47.8932C45.204 47.899 43.8014 48.2456 42.8694 48.5457C42.5326 48.6542 42.3168 48.7253 42.1557 48.8183L41.5108 49.1906Z" stroke="#353331" stroke-width="0.493136"/>
<path d="M102.256 18.7754L103.676 21.2351L104.154 20.9594L102.733 18.4997L102.256 18.7754Z" fill="#383633"/>
<path d="M103.283 18.1826L104.703 20.6424L105.18 20.3666L103.76 17.9069L103.283 18.1826Z" fill="#383633"/>
<path d="M60.504 51.6357L60.3934 50.8891L57.7527 46.252C57.6609 46.0929 57.693 46.0009 57.7996 45.9394L58.1373 45.7444C59.5269 47.919 60.28 49.1558 61.4486 51.4798L60.8695 51.8141C60.7687 51.8723 60.62 51.8365 60.504 51.6357Z" fill="#43403C" stroke="#363330" stroke-width="0.493136"/>
<path d="M61.4468 51.4743L91.0626 34.0956C91.2096 34.0107 91.5375 33.1297 91.3085 32.5184C91.3085 32.5184 90.9058 31.2172 90.4803 30.5875C90.0549 29.9579 88.4986 29.5164 87.2114 29.7019C85.8483 29.8983 85.0924 30.2133 83.9321 30.697C83.8381 30.7362 83.7416 30.7764 83.6418 30.8178L58.0877 45.6567L58.1376 45.7431C59.5263 47.9165 60.2794 49.1531 61.4468 51.4743Z" fill="#46423F"/>
<path d="M91.387 33.0373C91.3903 32.8588 91.3686 32.6797 91.3084 32.5192C91.3084 32.5192 90.9057 31.218 90.4803 30.5883C90.306 30.3304 89.9419 30.1041 89.4844 29.9395L94.4158 27.174C94.5288 27.1087 95.3751 27.3398 95.9802 28.388C96.5854 29.4362 96.2798 30.1059 96.1514 30.1801L92.0227 32.7488C91.7906 32.8939 91.6017 32.9834 91.387 33.0373Z" fill="#3D3B38" stroke="#353331" stroke-width="0.986271"/>
<path d="M90.7763 31.1301L89.8573 31.4987C79.9881 35.5817 74.8279 38.4412 66.9517 45.5718C66.4032 46.0684 64.8931 46.7603 64.2045 46.6166L60.301 45.6078C59.7678 45.4389 59.2576 46.0999 59.7037 46.6257L61.7887 49.0208L63.0968 50.5058L91.0614 34.096C91.2084 34.0111 91.5363 33.1301 91.3073 32.5188C91.3073 32.5188 91.0747 31.7672 90.7763 31.1301Z" fill="#403D3A" stroke="#363330" stroke-width="0.493136"/>
<path d="M71.3588 39.5721L61.9225 45.1087C61.6809 45.2482 61.7393 45.4591 61.9625 45.5287L64.5223 46.038C65.2225 46.1014 65.9166 45.8301 66.5325 45.2445C68.6859 43.197 69.8085 42.0455 71.6726 39.8086C71.799 39.6568 71.6607 39.3977 71.3588 39.5721Z" fill="#403D3A" stroke="#363330" stroke-width="0.493136"/>
<path d="M83.1685 31.5131C84.1951 30.9163 84.7697 30.6537 86.0575 30.5038C87.5973 30.3073 88.8276 30.3372 90.143 30.7462C90.4181 30.8317 90.4831 30.9952 90.6009 31.2918L90.6015 31.2931L90.8123 31.2052C90.7083 30.9763 90.5951 30.7574 90.4803 30.5875C90.0549 29.9579 88.4986 29.5164 87.2114 29.7019C85.8483 29.8983 85.0924 30.2133 83.9321 30.697L83.9319 30.6971C83.838 30.7362 83.7415 30.7764 83.6418 30.8178L58.0877 45.6567L58.1376 45.7431C58.2223 45.8757 58.3047 46.0048 58.3849 46.1309L61.7651 44.24C61.6824 44.108 62.1529 43.6911 62.4405 43.525L83.1685 31.5131Z" fill="#43403D"/>
<path d="M85.3051 35.4612C85.3713 35.4219 85.3776 35.3883 85.3675 35.3208L85.1292 34.3375C85.113 34.2651 85.0595 34.2344 85.0064 34.2559C84.5596 34.4368 84.0871 34.6539 83.4473 34.9482C79.2625 36.8731 74.4219 39.9254 70.3675 43.7972C70.2346 43.9241 70.2755 44.2012 70.5194 44.0604L85.3051 35.4612Z" fill="#3B3835"/>
<path d="M88.4398 33.6382L86.3602 34.8476C86.303 34.8806 86.2648 34.8715 86.2513 34.8141L86.0437 33.9818C86.0362 33.9345 86.1806 33.8458 86.316 33.8072C86.8502 33.6547 87.4964 33.4996 88.4046 33.2981C88.6065 33.2533 88.7099 33.4822 88.4398 33.6382Z" fill="#3B3835"/>
<path d="M85.6329 34.9522C85.6168 34.5996 85.5794 34.4724 85.425 34.1599C85.3952 34.0995 85.4147 34.0118 85.4759 33.9871C85.5662 33.9507 85.6205 33.9536 85.6606 34.0231C85.7507 34.1792 85.8692 34.3282 85.9397 34.4835C86.0687 34.7677 86.0985 34.9882 86.0638 35.0652C86.032 35.1358 85.8941 35.2105 85.786 35.188C85.7012 35.1704 85.6388 35.0834 85.6329 34.9522Z" fill="#383633"/>
<path fill-rule="evenodd" clip-rule="evenodd" d="M98.8626 18.6424C98.8638 18.6533 98.8647 18.6642 98.8654 18.6751L99.485 19.3594L95.7746 21.5016L95.7896 21.4419L95.5636 20.5471L98.8626 18.6424ZM96.2624 20.7126C96.1425 20.5049 96.2136 20.2394 96.4213 20.1196L98.2895 19.0409C98.4972 18.9211 98.7627 18.9922 98.8825 19.1998C99.0024 19.4074 98.9313 19.6729 98.7236 19.7928L96.8554 20.8715C96.6477 20.9913 96.3822 20.9202 96.2624 20.7126Z" fill="#3B3835"/>
<path d="M3.53467 84.1344C3.18249 83.5244 3.24368 82.7111 3.8489 82.4884L7.09357 79.9738C7.09796 79.8214 7.14466 79.6986 7.30655 79.5597L24.5133 66.1803C24.7087 66.0306 24.7819 65.9904 25.0167 65.9199C25.2355 65.8543 25.399 65.7624 25.5938 65.6103L29.4955 62.5498C29.5761 62.4888 29.6095 62.4761 29.6494 62.5229C29.636 62.6969 29.6448 62.8061 29.6816 63.0141L31.253 67.6137C31.4382 68.1458 31.6182 68.2954 31.9292 68.4366C30.3834 69.6558 29.6489 70.4597 28.5983 72.1188L24.4308 78.6173C24.2086 78.9178 24.0799 79.0876 23.8396 79.3966L13.3128 90.6868C13.0933 90.9491 13.0539 91.1106 13.1541 91.4317L13.7643 93.1091C13.9013 93.4845 13.8645 93.8134 13.6817 94.1334L13.151 94.7942C13.1466 94.9452 13.1065 95.007 13.0047 95.0988C12.6809 95.0917 12.444 95.0572 12.3516 94.9564C8.33493 90.8112 6.39026 89.0804 3.53467 84.1344Z" stroke="#38332E" stroke-width="0.986271"/>
<path d="M2.08784 83.1123C2.49232 82.6332 2.87004 82.3818 3.38278 82.2214C3.59466 82.1552 3.75758 82.3161 3.84805 82.4883C3.24283 82.711 3.18165 83.5243 3.53383 84.1343C6.06425 88.5171 7.87939 90.3752 11.0548 93.6259L11.0561 93.6272C11.4637 94.0445 11.8939 94.4848 12.3508 94.9563C12.4432 95.0571 12.68 95.0916 13.0038 95.0987C12.8059 95.3548 12.5885 95.682 12.2273 95.6816L12.1381 95.8403L11.2318 96.3636C10.5944 96.7103 9.88551 96.4615 9.44179 95.9148L8.98488 95.3361C8.9333 95.134 8.86706 95.0496 8.67645 94.9632L8.12919 94.1899C8.10001 94.0007 8.03738 93.9334 7.8926 93.8421L7.3672 93.1235C7.33738 92.8888 7.2798 92.7936 7.07242 92.7203L6.48446 91.9162C6.46763 91.6945 6.37807 91.6378 6.19491 91.5715L5.61814 90.7933C5.65021 90.5802 5.58804 90.5115 5.37022 90.4588L4.84891 89.7554C4.87829 89.4702 4.77496 89.382 4.47086 89.3332L4.0154 88.6958C3.99783 88.3968 3.8797 88.3286 3.64332 88.2548L3.14933 87.5999C3.08949 87.3332 3.00557 87.2345 2.78926 87.1226L2.26752 86.4309C2.21409 86.2123 2.1466 86.1173 1.94607 86.0048L1.44646 85.3424C1.0201 84.7846 1.34872 83.6824 2.08784 83.1123Z" stroke="#38332E" stroke-width="0.986271"/>
<path d="M35.3373 60.0582L34.3628 58.8202C34.3134 58.7631 34.2791 58.7566 34.2278 58.7965L29.803 62.2643C29.7254 62.3288 29.6085 62.4759 29.6483 62.5228C29.635 62.6968 29.6438 62.806 29.6806 63.0139L29.9949 63.9338L31.252 67.6136C31.4371 68.1457 31.6171 68.2953 31.9282 68.4365C32.6962 67.8856 33.5203 67.9941 34.2374 68.3633C34.9546 68.7326 35.4091 69.3792 35.4183 70.4087C35.502 71.0677 35.4804 71.4278 35.3643 72.0594C35.3326 72.2318 35.3475 72.3012 35.3871 72.439C35.4953 72.8151 35.5036 73.0981 35.4504 73.5322C35.4432 73.5904 35.4456 73.5987 35.4629 73.661L35.4672 73.6766C35.4736 73.6996 35.4802 73.7227 35.4868 73.7458C35.5381 73.9258 35.5889 74.1036 35.5288 74.2331C35.4907 74.315 35.5018 74.3561 35.5178 74.4156C35.5206 74.426 35.5236 74.437 35.5265 74.4489C35.6358 74.9003 35.6436 75.4049 35.5948 75.6661C35.5737 75.7793 35.5645 75.8509 35.6187 75.9786C35.8628 76.5535 35.8926 77.3406 35.875 77.55C35.873 77.5741 35.9151 77.6363 35.9687 77.7157C36.0309 77.8078 36.1087 77.923 36.151 78.0281C36.2984 78.3939 36.2807 78.592 36.2501 78.9352C36.2475 78.9646 36.2448 78.9952 36.2421 79.027C36.2377 79.0776 36.4581 80.0087 36.5981 80.1033C36.9313 80.3285 38.0605 79.7449 38.3879 79.5607C38.4886 79.504 38.9844 79.2496 39.635 78.9157C41.0981 78.1649 43.3439 77.0123 43.6409 76.8032C43.781 76.7047 43.9321 76.4569 43.8695 76.3129C43.8489 76.2657 43.8195 76.248 43.7361 76.2186C43.446 76.1165 42.8312 75.8453 42.568 75.4999C42.2325 75.0599 41.7249 74.1987 41.7249 74.1987C41.6522 74.0728 41.5953 73.8309 41.5952 73.6451C41.595 73.4594 41.5649 73.3791 41.4868 73.2313C41.2555 72.7934 41.1124 72.4189 41.1333 72.0568C41.1421 71.9056 41.1326 71.8271 41.0676 71.6886C40.8587 71.2441 40.7169 70.761 40.7486 70.5064C40.7647 70.3778 40.7451 70.3222 40.6994 70.1926L40.6936 70.1762C40.5253 69.6981 40.3859 69.1727 40.4212 68.895C40.4468 68.6942 40.4436 68.5806 40.3798 68.401C40.2748 68.1054 40.2492 67.4298 40.4123 66.7708C40.5555 66.1919 40.8579 65.6358 41.1923 65.2259C41.2298 65.1799 41.3993 64.9666 41.3637 64.9049C41.3108 64.8133 41.3329 64.7431 41.4967 64.6174C40.7297 63.9302 40.1971 63.7433 39.1279 63.6395L37.8418 62.5727L35.3373 60.0582Z" stroke="#38332E" stroke-width="0.986271"/>
<path d="M31.2865 67.7096C31.275 67.6793 31.2634 67.6475 31.2518 67.6143M31.2518 67.6143C33.8725 65.8046 35.3161 64.7011 37.8416 62.5734L35.3371 60.059C33.2531 61.6252 32.0834 62.4749 29.9947 63.9346L31.2518 67.6143Z" stroke="#38332E" stroke-width="0.493136"/>
<path d="M41.5376 61.4486C40.4323 62.1184 39.7403 62.5378 38.5175 63.133L38.084 62.7734L44.9606 58.7378C45.4956 58.4092 45.8389 58.3182 46.5052 58.2732L60.1497 50.2526C60.4198 50.798 60.5225 51.1446 60.5564 51.6223L60.0274 51.9278L57.4302 52.7665L47.049 58.8862C47.0024 58.9132 46.9354 58.9025 46.8549 58.879C46.4899 58.7725 46.0006 58.883 45.4281 59.191L41.9421 61.2036C41.8007 61.2891 41.6663 61.3706 41.5376 61.4486Z" fill="#45423F" stroke="#353331" stroke-width="0.493136"/>
<path d="M46.4298 52.6786C46.5142 52.4968 46.5852 52.271 46.5813 52.08L46.4867 51.2207C46.462 51.0111 46.4917 50.7049 46.7041 50.5823L53.883 46.4375C54.0954 46.3149 54.367 46.3877 54.4896 46.6002L55.4777 48.3115C55.5643 48.4615 55.5535 48.6407 55.465 48.7764C55.428 48.833 55.3776 48.882 55.3152 48.9181L47.3126 53.5383C47.2097 53.5977 47.1202 53.5956 47.0133 53.5698L46.3298 53.9642L45.8858 53.1951L46.2097 53.008C46.2619 52.9779 46.3515 52.8472 46.4298 52.6786Z" stroke="#363330" stroke-width="0.493136"/>
<path fill-rule="evenodd" clip-rule="evenodd" d="M46.4845 51.2221C46.4599 51.0125 46.4896 50.7064 46.702 50.5837L53.8808 46.439C54.0933 46.3164 54.3649 46.3891 54.4875 46.6015L55.4755 48.3129C55.5982 48.5253 55.5254 48.7969 55.313 48.9196L47.3104 53.5398C47.2076 53.5992 47.1181 53.5971 47.0111 53.5712L42.5702 56.1351C42.3577 56.2578 42.0861 56.185 41.9635 55.9726C41.8408 55.7602 41.9136 55.4886 42.1261 55.3659L46.2076 53.0094C46.3158 52.947 46.5867 52.4495 46.5792 52.0815L46.4845 51.2221Z" stroke="#363330" stroke-width="0.493136"/>
<path d="M101.609 22.2367L88.5527 29.7135C88.1104 29.6499 87.6447 29.641 87.2098 29.7037C85.8467 29.9001 85.0909 30.2151 83.9305 30.6988L83.9305 30.6988C83.8366 30.7379 83.74 30.7782 83.6402 30.8196L58.0861 45.6584L58.136 45.7449L57.7983 45.9399C57.7585 45.9629 57.7291 45.9901 57.7127 46.0235C57.4833 45.6756 57.0455 45.0387 56.6738 44.6045L100.354 20.0625L100.859 19.5828L107.02 16.0258C107.188 15.9286 107.863 15.9552 108.395 16.8771C108.927 17.7989 108.606 18.3894 108.44 18.4855L102.279 22.0425L101.609 22.2367Z" stroke="#363330" stroke-width="0.986271"/>
<path d="M106.596 18.524C107.332 18.0995 107.814 17.5579 107.673 17.3143C107.532 17.0707 106.822 17.2174 106.087 17.642C105.352 18.0665 104.87 18.6081 105.01 18.8516C105.151 19.0952 105.861 18.9485 106.596 18.524Z" stroke="#363330" stroke-width="0.493136"/>
<path d="M107.172 16.4468C107.242 16.568 106.703 17.0104 105.968 17.4349C105.232 17.8594 104.579 18.1053 104.51 17.9841C104.44 17.8629 104.979 17.4205 105.714 16.996C106.449 16.5715 107.102 16.3256 107.172 16.4468Z" stroke="#363330" stroke-width="0.493136"/>
<path d="M106.969 19.17C107.705 18.7455 108.244 18.3031 108.174 18.1819C108.104 18.0607 107.451 18.3065 106.716 18.7311C105.981 19.1556 105.441 19.598 105.511 19.7192C105.581 19.8404 106.234 19.5945 106.969 19.17Z" stroke="#363330" stroke-width="0.493136"/>
<path fill-rule="evenodd" clip-rule="evenodd" d="M98.0334 17.9741C98.3793 17.7744 98.8176 18.2131 98.8636 18.6424C98.8647 18.6533 98.8657 18.6642 98.8663 18.6751L99.4859 19.3594C99.6224 19.3688 99.6842 19.4234 99.7773 19.513L100.356 20.1291L95.798 22.6863L95.7093 21.7661L95.7755 21.5016L95.7905 21.4419L95.536 20.4343C95.3968 19.8455 95.586 19.3871 95.9338 19.1863L98.0334 17.9741ZM96.4223 20.1196C96.2146 20.2395 96.1434 20.5049 96.2633 20.7125C96.3832 20.9202 96.6487 20.9913 96.8564 20.8714L98.7246 19.7928C98.9322 19.6729 99.0033 19.4075 98.8834 19.1998C98.7636 18.9922 98.4981 18.9211 98.2905 19.0409L96.4223 20.1196Z" stroke="#363330" stroke-width="0.493136"/>
<path d="M61.4468 51.4743L91.0626 34.0956C91.2096 34.0107 91.5375 33.1297 91.3085 32.5184C91.3085 32.5184 90.9058 31.2172 90.4803 30.5875C90.0549 29.9579 88.4986 29.5164 87.2114 29.7019C85.8483 29.8983 85.0924 30.2133 83.9321 30.697C83.8381 30.7362 83.7416 30.7764 83.6418 30.8178L58.0877 45.6567L58.1376 45.7431C59.5263 47.9165 60.2794 49.1531 61.4468 51.4743Z" stroke="#363330" stroke-width="0.986271"/>
<path d="M61.7659 44.2417C61.6817 44.1102 62.153 43.6925 62.441 43.5262L83.169 31.5143C84.196 30.9172 84.7693 30.6555 86.0583 30.5056C86.2628 30.4819 86.7546 30.6766 86.8061 30.8161C86.8876 31.0368 86.6865 31.1877 86.4791 31.2686C86.2717 31.3496 84.4825 32.0025 83.2505 32.6254C82.0186 33.2482 62.8774 44.282 62.8774 44.282C62.5257 44.4446 61.8751 44.412 61.7659 44.2417Z" fill="#403D3A" stroke="#363330" stroke-width="0.493136"/>
<path d="M7.30743 79.5593L24.5141 66.1799L21.5072 73.0657C21.3054 73.491 21.1026 73.7417 20.8195 74.0341L9.39718 85.4935C9.25769 85.6399 9.20162 85.6001 9.11661 85.4467C7.56994 82.6081 7.05869 81.2161 7.09445 79.9734C7.09884 79.821 7.14554 79.6983 7.30743 79.5593Z" stroke="#38332E" stroke-width="0.986271"/>
</g>
<defs>
<clipPath id="clip0_619_1194">
<rect width="110" height="110" fill="white"/>
</clipPath>
</defs>
</svg>
