<?xml version="1.0" encoding="UTF-8" standalone="no"?>
<svg
   width="137"
   height="137"
   viewBox="0 0 137 137"
   fill="none"
   version="1.1"
   id="svg13"
   sodipodi:docname="ice_pick.svg"
   inkscape:version="1.3 (0e150ed, 2023-07-21)"
   xmlns:inkscape="http://www.inkscape.org/namespaces/inkscape"
   xmlns:sodipodi="http://sodipodi.sourceforge.net/DTD/sodipodi-0.dtd"
   xmlns="http://www.w3.org/2000/svg"
   xmlns:svg="http://www.w3.org/2000/svg">
  <sodipodi:namedview
     id="namedview13"
     pagecolor="#ffffff"
     bordercolor="#000000"
     borderopacity="0.25"
     inkscape:showpageshadow="2"
     inkscape:pageopacity="0.0"
     inkscape:pagecheckerboard="0"
     inkscape:deskcolor="#d1d1d1"
     inkscape:zoom="1.7226277"
     inkscape:cx="60.082627"
     inkscape:cy="90.559322"
     inkscape:window-width="1312"
     inkscape:window-height="449"
     inkscape:window-x="0"
     inkscape:window-y="25"
     inkscape:window-maximized="0"
     inkscape:current-layer="svg13" />
  <defs
     id="defs13">
    <clipPath
       id="clip0_1654_16">
      <rect
         width="136"
         height="136"
         fill="white"
         transform="translate(0.5 0.5)"
         id="rect13" />
    </clipPath>
  </defs>
  <g
     id="g13"
     transform="translate(-2.9335334,0.16637304)">
    <path
       d="m 20.679969,121.53044 -3.523086,-5.18057 c -0.248351,0.17718 -0.49708,0.3555 -1.296845,1.11854 -0.799729,0.76306 -2.365338,2.31658 -3.560908,4.08577 -1.19557,1.76828 -2.235395,3.95694 -2.8941272,5.45837 -0.6587679,1.50144 -0.9362021,2.31477 -1.2135669,3.12898 1.7466389,-0.2176 3.4931051,-0.43498 4.6905741,-0.59945 1.197401,-0.16441 1.845633,-0.27597 2.602982,-0.49716 0.757416,-0.22105 2.587057,-0.75025 3.882589,-1.38262 1.293805,-0.63147 4.191076,-3.09154 5.283818,-3.92859 -1.584814,-0.39571 -2.997682,-0.99337 -3.97143,-2.20327 z"
       fill="#3a3e41"
       stroke="#303336"
       stroke-width="1.55209"
       stroke-linecap="round"
       stroke-linejoin="round"
       id="path1-1-7"
       style="fill:none;stroke:#1d1f20;stroke-width:3.99999;stroke-dasharray:none;stroke-opacity:1"
       clip-path="none"
       sodipodi:nodetypes="ccscscssscc" />
    <path
       d="m 52.360286,98.506247 c 3.710333,-3.23508 7.420563,-6.470266 10.748733,-9.455424 3.328138,-2.985221 6.274077,-5.720627 9.255144,-8.596294 2.981034,-2.875599 5.997193,-5.891529 9.662103,-10.064683 3.664919,-4.173221 7.978716,-9.503632 11.998054,-14.382276 4.01841,-4.878539 7.74256,-9.305241 8.08983,-12.6276 0.34728,-3.322358 -2.683216,-5.540269 -5.281432,-4.712132 -2.598219,0.828207 -4.765979,4.702358 -8.847902,10.216446 -4.082306,5.514192 -10.079404,12.668184 -15.252342,18.314279 -5.173044,5.646061 -9.521834,9.784192 -13.76189,13.558457 -4.239917,3.774333 -8.37103,7.184696 -12.502212,10.595125"
       fill="#4b4b4b"
       id="path2-72-1"
       style="stroke-width:3.99999;stroke-dasharray:none"
       clip-path="none" />
    <path
       d="m 52.360286,98.506247 c 3.710333,-3.23508 7.420563,-6.470266 10.748733,-9.455424 3.328138,-2.985221 6.274077,-5.720627 9.255144,-8.596294 2.981034,-2.875599 5.997193,-5.891529 9.662103,-10.064683 3.664919,-4.173221 7.978716,-9.503632 11.998054,-14.382276 4.01841,-4.878539 7.74256,-9.305241 8.08983,-12.6276 0.34728,-3.322358 -2.683216,-5.540269 -5.281432,-4.712132 -2.598219,0.828207 -4.765979,4.702358 -8.847902,10.216446 -4.082306,5.514192 -10.079404,12.668184 -15.252342,18.314279 -5.173044,5.646061 -9.521834,9.784192 -13.76189,13.558457 -4.239917,3.774333 -8.37103,7.184696 -12.502212,10.595125"
       stroke="#333333"
       stroke-width="1.55208"
       stroke-linecap="square"
       id="path3-3-5"
       style="fill:#4e4e4e;fill-opacity:1;stroke:#1f1f1f;stroke-width:3.99999;stroke-dasharray:none;stroke-opacity:1"
       clip-path="none" />
    <path
       d="m 52.411269,98.469947 c -3.011223,2.724073 -6.022411,5.448153 -9.669879,8.790893 -3.647537,3.34191 -7.931184,7.30247 -12.2149,11.26307 -1.300402,1.15142 -2.60077,2.30288 -3.612548,3.1774 -1.011707,0.87545 -1.734859,1.6358 -2.321505,2.15757 -0.586715,0.52274 -1.037096,0.80603 -2.315461,-0.42399 -1.192082,-1.14597 -3.103033,-3.74951 -5.063169,-6.45172 -0.236607,-0.32639 -0.375151,-0.47063 -0.07702,-0.72287 8.277286,-6.99452 16.672633,-14.2524 21.566551,-18.380313 5.000304,-4.217573 6.541977,-5.504972 8.083614,-6.792407 z"
       fill="#6c8b93"
       stroke="#415358"
       stroke-width="1.39488"
       id="path4-06-9"
       style="stroke:#1a2123;stroke-width:3.99999;stroke-dasharray:none;stroke-opacity:1"
       clip-path="none" />
    <path
       d="m 93.856967,46.229112 c 0,0.947815 0.769028,1.716096 1.716316,1.716096 0.948536,0 1.716385,-0.768281 1.716385,-1.716096 0,-0.947746 -0.767849,-1.716096 -1.716385,-1.716096 -0.947288,0 -1.716316,0.76835 -1.716316,1.716096 z"
       fill="#4b4b4b"
       stroke="#333333"
       stroke-width="1.2934"
       id="path5-0-1"
       style="fill:#292929;fill-opacity:1;stroke:none;stroke-width:5.20233;stroke-dasharray:none"
       clip-path="none" />
    <path
       d="m 51.573588,91.571878 c 0,1.039758 0.842975,1.882674 1.882834,1.882674 1.039825,0 1.8828,-0.842916 1.8828,-1.882674 0,-1.039757 -0.842975,-1.882674 -1.8828,-1.882674 -1.039859,0 -1.882834,0.842917 -1.882834,1.882674 z"
       fill="#4b4b4b"
       stroke="#333333"
       stroke-width="1.2934"
       id="path6-48-5"
       style="fill:#292929;fill-opacity:1;stroke:none;stroke-width:3.99999;stroke-dasharray:none"
       clip-path="none" />
    <path
       d="m 56.65085,87.057135 c 0,1.03979 0.842975,1.882711 1.882903,1.882711 1.039825,0 1.882834,-0.842921 1.882834,-1.882711 0,-1.039757 -0.843009,-1.882677 -1.882834,-1.882677 -1.039928,0 -1.882903,0.84292 -1.882903,1.882677 z"
       fill="#4b4b4b"
       stroke="#333333"
       stroke-width="1.2934"
       id="path7-0-0"
       style="fill:#292929;fill-opacity:1;stroke:none;stroke-width:3.99999;stroke-dasharray:none"
       clip-path="none" />
    <path
       id="path8-3-0"
       clip-path="none"
       style="fill:#3a3c40;fill-opacity:1;stroke-width:4;stroke-dasharray:none"
       d="m 58.807028,6.5315993 -2.21874,0.09615 -4.544489,4.3425247 c 1.371171,0.370574 2.671414,0.744212 3.932257,1.119125 l -0.824634,1.386824 2.295455,-0.931711 c 0.632698,0.195285 1.262544,0.390996 1.872394,0.589004 l -0.994191,1.674179 2.713111,-1.101256 c 0.626019,0.213579 1.245568,0.430053 1.852822,0.64793 l -1.12809,1.897289 2.98623,-1.211918 c 0.309329,0.116576 0.615381,0.235278 0.921008,0.353555 l -1.188765,2.000803 3.091538,-1.254718 c 0.4808,0.195284 0.956791,0.399079 1.433335,0.599683 l -1.215571,2.045433 3.082647,-1.251145 c 0.271886,0.118703 0.543942,0.244638 0.8157,0.365894 l -1.199489,2.018672 2.995167,-1.215492 c 0.284651,0.130616 0.576321,0.269741 0.862163,0.403335 l -1.156684,1.94728 2.836333,-1.151205 c 0.352299,0.168056 0.698603,0.325475 1.054905,0.497956 l -1.088856,1.829471 2.636389,-1.069135 c 0.627173,0.307607 1.240637,0.6053 1.88669,0.926351 2.184028,1.085387 3.053676,2.278286 4.55705,3.371544 1.503236,1.093257 3.507363,2.323257 5.033584,3.143116 1.526084,0.82007 2.573504,1.229915 3.234326,2.482719 0.660822,1.252677 1.043463,2.90805 1.270887,4.365713 0.227217,1.457662 0.41102,2.827127 1.981319,4.353246 1.572729,1.52612 3.617311,3.417069 5.188891,4.419278 2.71626,1.731658 3.45465,-0.21826 8.77841,-0.656823 1.93631,-0.159546 1.52695,1.332026 2.93982,2.038287 1.41167,0.706175 2.41331,1.79956 3.89481,3.917747 1.48018,2.118356 3.28896,14.980131 5.24777,18.123289 l 11.31487,-7.20186 C 129.81232,55.522993 124.4871,46.679162 120.79687,42.442618 110.28289,28.913852 98.000554,17.916777 81.743752,11.928919 78.030872,10.585109 73.884807,9.3100113 69.98978,8.4216963 66.094753,7.5333833 62.451231,7.0326183 58.807028,6.5315563 Z m 20.644838,8.3994817 h 0.0018 c 0.034,5.95e-4 0.06681,0.0036 0.09999,0.0036 0.285922,0.0085 0.567083,0.06977 0.838923,0.155292 l -0.0018,0.0018 c 0.310607,0.09785 0.495991,0.30633 0.580107,0.556882 0.231893,-0.310159 0.356128,-0.567944 0.08764,-0.651462 0.0796,0.01277 0.14722,0.02978 0.244651,0.07148 0.282522,0.121255 0.510376,0.321647 0.697926,0.562244 0.380383,0.50455 0.879308,1.186517 0.763965,1.859805 -0.03829,0.22762 -0.223814,0.402909 -0.335712,0.605044 -0.253168,0.212304 -0.202108,0.149336 -0.469442,0.326752 -0.06342,0.03404 -0.125945,0.06935 -0.191042,0.09658 -0.34847,0.15444 -0.732307,0.184648 -1.108477,0.156994 -0.259968,-0.03404 -0.409318,-0.04255 -0.663967,-0.130191 -0.525821,-0.185074 -0.872801,-0.461196 -1.201275,-0.904907 -0.07019,-0.110619 -0.147649,-0.217409 -0.210617,-0.331858 -0.0838,-0.153165 -0.14977,-0.325475 -0.203379,-0.492638 -0.02979,-0.08892 -0.06635,-0.175714 -0.08042,-0.267613 -0.02979,-0.173162 -0.09786,-0.357385 -0.04633,-0.52476 0.0936,-0.305479 0.309328,-0.559137 0.464115,-0.838876 0.211897,-0.08169 0.418255,-0.175714 0.635425,-0.24081 0.02979,-0.0085 0.0647,-0.01277 0.09828,-0.01277 z m 1.381551,0.03403 c 0.0255,9.14e-4 0.03409,0.0017 0.05191,0.0018 0.0082,4.25e-4 0.017,0.0026 0.02129,0.0036 -0.0255,-0.0014 -0.04935,-0.0034 -0.0732,-0.0043 z m 0.157008,1.451069 c -0.0128,0 -0.0255,0.0014 -0.03829,0.0036 -0.0018,0.0043 -0.0037,0.0085 -0.0037,0.01277 0.0082,-8.5e-5 0.02129,-5.52e-4 0.034,-0.0018 0.0037,-0.0035 0.017,-0.01277 0.01279,-0.01277 z m -1.552898,0.762123 0.0018,0.0036 h 0.0018 c -0.0018,-10e-4 -0.0018,-0.0032 -0.0018,-0.0036 z m 0.0037,0.0036 c 0.0018,0.0012 0.0037,0.0032 0.0082,0.0036 0.017,0.0026 0.03409,0.0043 0.04633,0.0018 0.0027,-9.14e-4 0.0046,-0.0026 0.0082,-0.0036 -0.02129,-0.0034 -0.04259,-0.0035 -0.06251,-0.0036 z m 7.752015,0.837054 c 0.03409,6.39e-4 0.06763,0.004 0.107228,0.01277 0.0902,0.01277 0.182954,0.02127 0.271456,0.04297 0.1936,0.04808 0.266776,0.108918 0.439101,0.2089 0.128494,0.101685 0.224234,0.167206 0.330174,0.301651 0.07402,0.09445 0.139991,0.197412 0.199979,0.301649 0.08892,0.154442 0.122965,0.336112 0.183813,0.501573 0.017,0.07105 0.04259,0.139976 0.05529,0.212304 0.02129,0.103386 0.034,0.205922 0.03829,0.310585 0.01279,0.288035 -0.06379,0.577899 -0.217855,0.821049 -0.04423,0.06126 -0.08682,0.124659 -0.134024,0.183798 -0.177004,0.22294 -0.437483,0.366745 -0.697881,0.467621 -0.171895,0.05276 -0.232322,0.07573 -0.422934,0.103386 -0.24551,0.03404 -0.492711,0.01702 -0.738988,0.01277 -0.191892,-0.0085 -0.390171,-0.0085 -0.580107,-0.03404 -0.266356,-0.03829 -0.513429,-0.119129 -0.749662,-0.248043 -0.303369,-0.217409 -0.408038,-0.248041 -0.612231,-0.603257 -0.242101,-0.421204 -0.252318,-1.015994 0,-1.436815 0.111048,-0.1855 0.281673,-0.325476 0.422935,-0.489022 0.133603,-0.07573 0.260397,-0.16295 0.399949,-0.226769 0.117436,-0.05361 0.242961,-0.0868 0.367626,-0.121256 0.348049,-0.09488 0.710904,-0.135721 1.070989,-0.135721 0.017,-0.113172 0.09573,-0.181671 0.264227,-0.178693 z m 5.369168,3.41443 h 0.0018 c 0.335712,-0.0027 0.666616,0.02127 0.990667,0.137424 0.214437,0.08935 0.434075,0.185074 0.614012,0.337388 0.264656,0.223366 0.410177,0.456389 0.539055,0.771016 0.05017,0.159546 0.09743,0.29314 0.121269,0.460516 0.017,0.128913 0.034,0.259103 0.034,0.389294 -3.38e-4,0.251446 -0.06598,0.499616 -0.162541,0.730001 -0.03829,0.07871 -0.07576,0.158271 -0.117856,0.235704 -0.115737,0.212304 -0.29997,0.381636 -0.506922,0.501531 -0.222535,0.09403 -0.285502,0.141677 -0.526589,0.162524 -0.428847,0.03404 -0.826887,-0.116575 -1.170933,-0.364192 -0.07787,-0.06254 -0.158708,-0.122106 -0.234023,-0.187201 -0.34762,-0.300374 -0.656307,-0.642315 -0.935339,-1.006678 -0.138282,-0.180819 -0.19445,-0.373977 -0.191042,-0.563987 -0.226363,-0.638272 0.0018,-1.501527 0.776422,-1.565303 0.291881,-0.02553 0.149349,-0.01277 0.431954,-0.02978 0.112757,-0.0042 0.224235,-0.0085 0.335712,-0.0085 z m 1.151321,1.543861 c 0.017,0.01277 0.03829,0.02978 0.05529,0.04638 0.0037,3.82e-4 0.02129,0.0035 0.017,0 -0.02129,-0.01702 -0.04761,-0.02978 -0.0732,-0.04638 z" />
    <path
       d="m 99.786048,38.183087 c 0,0.947813 0.769032,1.716096 1.716312,1.716096 0.94854,0 1.71638,-0.768283 1.71638,-1.716096 0,-0.947746 -0.76784,-1.716097 -1.71638,-1.716097 -0.94728,0 -1.716312,0.768351 -1.716312,1.716097 z"
       fill="#4b4b4b"
       stroke="#333333"
       stroke-width="1.2934"
       id="path5-0-1-9"
       style="fill:#27282b;fill-opacity:1;stroke:none;stroke-width:5.20233;stroke-dasharray:none"
       clip-path="none" />
    <path
       style="fill:#303236;fill-opacity:1;fill-rule:evenodd;stroke:none;stroke-width:2;stroke-linecap:round;stroke-linejoin:round;stroke-dasharray:none;stroke-opacity:1"
       d="m 133.16226,60.902309 -12.24007,7.959299 -0.83269,-6.701154 9.46356,-7.148119 z"
       id="path116"
       sodipodi:nodetypes="ccccc" />
    <path
       d="m 121.71336,43.620541 c 4.35323,5.866177 8.09806,10.464232 12.24314,16.822834 l -11.91479,8.552138 c -1.95881,-3.143159 -4.25248,-15.699795 -5.39814,-19.549341 -1.25459,-4.681829 -12.3297,-7.652676 -14.68621,-4.523643 -1.57157,-1.00221 -4.386933,-4.294278 -5.959653,-5.820397 -0.375284,-0.339941 -1.933413,1.912265 -1.026574,0.208475 C 99.080609,31.589304 82.425037,23.034572 80.516522,22.086098 79.87046,21.764877 79.256228,21.468333 78.629064,21.160556 l -1.520308,1.015867 -0.02979,-1.776161 c -0.356128,-0.17231 -0.701025,-0.331007 -1.05325,-0.49902 l -1.721854,1.09815 0.04255,-1.893119 C 74.060492,18.973104 73.76946,18.83398 73.484979,18.702939 l -1.878904,1.161629 0.08424,-1.965618 c -0.271885,-0.121256 -0.54509,-0.246766 -0.816848,-0.365468 l -1.967277,1.197835 0.100414,-1.992762 C 68.530063,16.538164 68.054412,16.33522 67.573612,16.139893 l -1.975489,1.201579 0.07361,-1.948259 c -0.305499,-0.118277 -0.611934,-0.23698 -0.921092,-0.353555 l -1.872011,1.159331 0.01277,-1.845553 c -0.607259,-0.217835 -1.227447,-0.432734 -1.853465,-0.646229 l -1.597232,1.047606 -0.120412,-1.621379 c -0.60985,-0.198263 -1.240377,-0.393975 -1.873075,-0.5896 l -1.179788,0.878487 -0.291033,-1.333727 c -1.260843,-0.374829 -2.561681,-0.74736 -3.932852,-1.118019 l 4.545297,-4.3426097 2.218102,-0.097 0.0013,1.7e-4 c 3.643906,0.502594 7.287854,1.001997 11.182455,1.890183 3.895027,0.888315 8.040881,2.1636257 11.753752,3.5074357 16.702803,5.684931 29.497001,17.895669 39.969061,31.691792 z"
       stroke="#313336"
       stroke-width="1.41569"
       stroke-linecap="round"
       stroke-linejoin="round"
       id="path13-44"
       style="fill:none;fill-opacity:1;stroke:#1d1e20;stroke-width:3.999;stroke-linecap:round;stroke-linejoin:miter;stroke-dasharray:none;stroke-opacity:1"
       clip-path="none"
       sodipodi:nodetypes="scccccsscccccccccccccccccccccccccccssss" />
    <ellipse
       style="fill:none;fill-opacity:1;fill-rule:evenodd;stroke:#1d1e20;stroke-width:2;stroke-linecap:round;stroke-linejoin:round;stroke-dasharray:none;stroke-opacity:1"
       id="path104"
       cx="82.005722"
       cy="-4.8862214"
       rx="2.288007"
       ry="1.8169378"
       transform="matrix(0.96593005,0.25880328,-0.25883481,0.9659216,0,0)" />
    <ellipse
       style="fill:none;fill-opacity:1;fill-rule:evenodd;stroke:#1d1e20;stroke-width:2;stroke-linecap:round;stroke-linejoin:round;stroke-dasharray:none;stroke-opacity:1"
       id="path104-2"
       cx="89.015732"
       cy="-3.378777"
       rx="2.288007"
       ry="1.8169378"
       transform="matrix(0.96593005,0.25880328,-0.25883481,0.9659216,0,0)" />
    <ellipse
       style="fill:none;fill-opacity:1;fill-rule:evenodd;stroke:#1d1e20;stroke-width:2;stroke-linecap:round;stroke-linejoin:round;stroke-dasharray:none;stroke-opacity:1"
       id="path104-0"
       cx="95.794685"
       cy="-1.4710593"
       rx="2.288007"
       ry="1.8169378"
       transform="matrix(0.96593005,0.25880328,-0.25883481,0.9659216,0,0)" />
    <path
       style="fill:none;fill-opacity:1;fill-rule:evenodd;stroke:#1d1f20;stroke-width:3.99999;stroke-linecap:round;stroke-linejoin:round;stroke-dasharray:none;stroke-opacity:1"
       d="m 12.961143,120.655 c -3.0726692,7.19646 0.03661,8.13129 5.626742,7.36008"
       id="path118"
       sodipodi:nodetypes="cc" />
  </g>
</svg>
