<svg xmlns="http://www.w3.org/2000/svg" width="121.414" height="47.32" fill="none"><g clip-path="url(#a)" transform="rotate(15 175.397 59.181)"><path fill="#5a5a5a" stroke="#333" stroke-width=".396" d="m90.111 33.917.841 1.456L92 34.77l-.84-1.456"/><path fill="#666" d="M90.053 25.776 50.89 48.388l3.675 6.365 39.105-22.577c1.977-1.18 1.292-1.453 5.92-4.096l8.469-4.89-3.151-5.458-8.528 4.924c-4.083 2.389-4.424 2.014-6.326 3.12"/><path fill="#464639" d="m49.698 51.62-16.275 9.396-.474-.82 16.275-9.397z"/><path fill="#3e3e32" d="M37.267 57.848a.198.198 0 1 0-.344.198l.12.208a.198.198 0 0 0 .344-.198zM38.673 57.036a.198.198 0 1 0-.343.198l.12.208a.198.198 0 1 0 .343-.198zM39.652 56.47a.198.198 0 1 0-.343.199l.12.208a.198.198 0 0 0 .343-.198zM40.754 55.834a.198.198 0 1 0-.343.198l.12.209a.198.198 0 1 0 .344-.199zM41.912 55.166a.198.198 0 0 0-.344.198l.12.208a.198.198 0 1 0 .344-.198zM43.018 54.527a.198.198 0 0 0-.344.198l.12.209a.198.198 0 0 0 .344-.198zM44.058 53.926a.198.198 0 1 0-.343.198l.12.209a.198.198 0 0 0 .344-.198zM44.884 53.45a.198.198 0 1 0-.343.198l.12.208a.198.198 0 1 0 .343-.198zM45.525 53.08a.198.198 0 0 0-.343.197l.12.209a.198.198 0 0 0 .344-.198z"/><path fill="#545445" d="m48.084 48.824-16.275 9.397 1.14 1.974 16.274-9.396z"/><path stroke="#38382e" stroke-width=".396" d="m49.698 51.62-16.275 9.396-.474-.82 16.275-9.397z"/><path fill="#70705c" d="m41.749 55.115-1.14-1.974-1.262.728 1.14 1.975zM39.778 56.253l-1.14-1.974-1.304.752 1.14 1.975zM37.574 57.526l-1.14-1.975-.977.564 1.14 1.975zM35.708 58.603l-1.14-1.974-.75.432 1.14 1.975zM33.704 59.76l-1.14-1.975.55-.317 1.14 1.974zM42.385 54.748l-1.14-1.975 1.304-.753 1.14 1.975zM44.59 53.475l-1.14-1.974.976-.564 1.14 1.974zM46.455 52.398l-1.14-1.975.75-.432 1.14 1.974zM48.469 51.235l-1.14-1.974-.56.323 1.14 1.974z"/><path stroke="#38382e" stroke-linecap="round" stroke-width=".396" d="m41.749 55.115-1.14-1.974-1.262.728 1.14 1.975zM39.778 56.253l-1.14-1.974-1.304.752 1.14 1.975zM37.574 57.526l-1.14-1.975-.977.564 1.14 1.975zM35.708 58.603l-1.14-1.974-.75.432 1.14 1.975zM33.704 59.76l-1.14-1.975.55-.317 1.14 1.974zM42.385 54.748l-1.14-1.975 1.304-.753 1.14 1.975zM44.59 53.475l-1.14-1.974.976-.564 1.14 1.974zM46.455 52.398l-1.14-1.975.75-.432 1.14 1.974zM48.469 51.235l-1.14-1.974-.56.323 1.14 1.974z"/><path stroke="#38382e" stroke-width=".793" d="m31.809 58.22 1.613 2.796 16.276-9.396-1.614-2.796z"/><path fill="#3b3b3b" d="m47.127 57.22 1.126 1.95c.18-.17.267-.356.353-.541.118-.255.237-.51.602-.73l.222-.127c-.902.498-1.791.306-2.303-.551"/><path fill="#404040" d="m49.48 57.743 3.7-2.137-2.745-4.753-.604.349-.278.316-3.043 1.756-.317.37-.848.489 1.749 3.028c.515.924 1.447 1.127 2.386.582"/><path fill="#666" d="m19.354 65.523 8.102-4.678.067-.15.388-.223.517.896-.395.228-.163-.034-.247.142.157.283-.908-.203-3.757 2.169-.007.172-.75.433-.196-.054-.818.472.275.489-1.535.09-.188-.325-.523.302c-.027.019-.039.002-.019-.01"/><path fill="#4d4d4d" d="m23.275 63.86-.16.093-.008.171-.75.433-.195-.053-.18.103-.1-.172 1.294-.747zM27.576 60.666l.336-.194.518.896-.336.194z"/><path stroke="#333" stroke-width=".396" d="m19.354 65.523 8.102-4.678.067-.15.388-.223.517.896-.395.228-.163-.034-.247.142.157.283-.908-.203-3.757 2.169-.007.172-.75.433-.196-.054-.818.472.275.489-1.535.09-.188-.325-.523.302c-.027.019-.039.002-.019-.01z"/><path fill="#545445" fill-rule="evenodd" d="m26.64 71.62 1.48-.854c1.39-.71 2.653.174 2.911 1.424l1.195 5.478c.122.634.36.703.83.537l2.539-.79c1.213-.308 1.015-.735.618-1.036-.295-.265-.575-.543-.636-1.023a15 15 0 0 0-.482-3.67c-.12-.571-.073-.608.051-1.14.296-.017.753-.11.997-.251l1.68-.97c.76-.439 1.105-1.55.785-2.311.123-.197.213-.309.316-.445l-.343-.598c-.226-.406-.142-1.18.276-1.488l-.126-.218-13.018 7.49zm9.39-4.92-1.361.786c-.694.4-.968 1.214-.615 1.825.352.61 1.194.78 1.887.38l1.362-.787c.694-.4.968-1.214.615-1.824-.352-.611-1.194-.78-1.888-.38" clip-rule="evenodd"/><path fill="#464639" stroke="#38382e" stroke-width=".396" d="M35.328 67.181c.274 1.068.483 1.275.959 1.738.084.062.11.014.038-.049-.382-.467-.778-.964-.705-1.843z"/><path stroke="#38382e" stroke-width=".396" d="m34.67 67.486 1.361-.786c.694-.4 1.536-.23 1.888.38.353.61.078 1.424-.615 1.825l-1.362.786c-.693.4-1.535.23-1.888-.38-.352-.61-.078-1.424.615-1.825z"/><path stroke="#38382e" stroke-width=".793" d="m29.248 69.719 9.478-5.463.003.005m-9.48 5.458-3.535 2.037.927-.135 1.48-.854c1.39-.71 2.653.174 2.911 1.423l1.195 5.479c.122.634.36.703.83.537l2.539-.79c1.213-.308 1.014-.736.618-1.036-.295-.265-.575-.544-.637-1.023a15 15 0 0 0-.481-3.67c-.12-.571-.074-.608.051-1.14.296-.017.753-.11.997-.251l1.68-.97c.76-.439 1.105-1.55.785-2.311.123-.197.213-.31.316-.445l-.343-.598c-.226-.406-.142-1.18.276-1.488l-.129-.223m-9.48 5.458 9.48-5.458m-9.48 5.458-3.536 2.035"/><path fill="#6b422e" stroke="#472b1f" stroke-width=".396" d="M30.225 70.668c.403.307.826.88.93 1.38l1.196 5.364c.122.634.22.692.67.603l2.232-.607c1.384-.31.987-.812.57-1.141-.295-.265-.461-.482-.455-.993.062-1.454-.124-2.749-.587-4.032a.6.6 0 0 1 0-.37c.118-.402-.342-.444-.513-.545-.253-.133-.705-.72-.854-1.276-.039-.147-.106-.29-.32-.187l-2.79 1.5c-.175.116-.194.243-.08.304z"/><path fill="#666" stroke="#333" stroke-width=".396" d="m14.505 84.542.534-.254-.17-.849-.953.208Z"/><path fill="#4d4d4d" d="m13.207 83.336.864.533c.594.422 1.23-.426.559-.79l-.923-.533"/><path stroke="#333" stroke-width=".396" d="m13.207 83.336.864.533c.594.422 1.23-.426.559-.79l-.923-.533"/><path fill="#3b3b3b" stroke="#333" stroke-width=".396" d="m14.04 81.512-.206.227c-.026.029-.035.063-.02.075l.525.477c.014.013.047 0 .073-.028l.206-.228c.026-.028.035-.062.02-.075l-.525-.476c-.014-.013-.047 0-.073.028zM12.543 83.58l-.18.248c-.022.031-.028.066-.012.077l.575.415c.016.011.047-.005.07-.036l.179-.25c.023-.03.028-.065.013-.076l-.576-.415c-.016-.012-.047.005-.07.036zM11.98 84.585l-.146.27c-.018.033-.02.068-.002.078l.623.338c.017.01.046-.01.064-.045l.147-.27c.018-.033.02-.068.002-.078l-.623-.338c-.017-.01-.046.01-.065.045zM14.734 80.586l-.214.22c-.027.027-.038.06-.024.074l.508.495c.014.014.047.002.074-.025l.214-.22c.027-.028.037-.061.024-.074l-.508-.496c-.014-.013-.047-.002-.074.026z"/><path fill="#404040" stroke="#333" stroke-width=".396" d="m11.71 85.314.47.133c.703-1.549 1.765-3.096 3.116-4.641l-.522-.275-1.804 2.238z"/><path fill="#4d4d4d" d="m9.583 88.069 1.717-.991c.029-.163.044-.29.225-.415l-.474-.821-2.38.63z"/><path fill="#404040" d="m11.3 87.078-1.716.991-.211-.369 2.063-1.191.09.155c-.174.119-.196.24-.222.394z"/><path stroke="#333" stroke-width=".396" d="m9.583 88.069 1.717-.991c.029-.163.044-.29.225-.415l-.474-.821-2.38.63z"/><path fill="#4d4d4d" stroke="#333" stroke-width=".396" d="m5.059 80.003-.37-.543-.083-.03 1.462-.967-.004.11.344.57"/><path fill="#404040" stroke="#333" stroke-width=".793" d="M.989 82.68c-.402.248-.397.515-.258.652 2.15 2.646 3.495 5.469 4.43 8.38.103.218.298.493.702.088l-2.25-4.682Z"/><path fill="#6b422e" d="M20.966 68.256c-2.977 2.34-4.916 4.413-6.566 6.788-.415.644-1.155 1.136-2.355 1.073-.967-.014-1.851.436-2.633.977L.915 82.729c-.127.091-.117.312.001.457 2.151 2.647 3.496 5.47 4.43 8.38.084.264.347.405.538.214l3.578-3.516c.051-1.47.72-2.133 1.643-2.244.175-.02.39-.096.47-.289 1.462-3.596 4.951-7.392 8.079-9.606 1.459-1.009 2.785-2.202 3.81-3.122"/><path fill="#8f8f3d" stroke="#47471f" stroke-width=".396" d="M10.862 82.352a1.167 1.167 0 1 0-1.167-2.023 1.167 1.167 0 0 0 1.167 2.022z"/><path fill="#494949" d="M22.092 70.398 18.57 73.15c-.552.447.083 1.294.667.84l3.382-2.595z"/><path fill="#3b3b3b" d="M14.507 83.673a.189.189 0 1 0-.19-.327.189.189 0 0 0 .19.327"/><path fill="#666" d="M21.336 72.312a.451.451 0 1 0-.451-.782.451.451 0 0 0 .45.782M19.139 73.99a.451.451 0 1 0-.451-.78.451.451 0 0 0 .45.78"/><path fill="#404040" d="m18.895 73.149.23.85a.45.45 0 0 1-.192.051l-.23-.85a.45.45 0 0 1 .192-.051M20.786 72.236l.751-.46a.44.44 0 0 0-.103-.168l-.751.459a.5.5 0 0 0 .103.169"/><rect width=".591" height="2.012" x="14.375" y="84.198" fill="#666" stroke="#333" stroke-width=".396" rx=".295" transform="rotate(-20.8 14.375 84.198)"/><path stroke="#333" stroke-width=".396" d="M22.092 70.398 18.57 73.15c-.552.447.083 1.294.667.84l3.382-2.595z"/><path stroke="#472c1f" stroke-width=".793" d="M20.965 68.256c-2.977 2.34-4.916 4.413-6.566 6.788-.415.644-1.155 1.136-2.355 1.073-.967-.013-1.851.436-2.633.977L.914 82.729c-.126.097-.138.32.001.458 2.151 2.646 3.496 5.468 4.43 8.38.103.218.347.404.538.214l3.578-3.517c.051-1.47.72-2.133 1.643-2.243.175-.02.39-.096.47-.29 1.462-3.596 4.951-7.392 8.079-9.606 1.459-1.009 2.785-2.202 3.81-3.122"/><path fill="#4d4d4d" stroke="#333" stroke-width=".396" d="m47.945 59.387-.967.558c-.73.427-.613 1.288-1.184 1.61l-.595-1.031-21.887 12.615-2.088-3.617c-.084-.149-.121-.25-.212-.487L20.367 67l10.305-5.95.334-.41.95-.548a1 1 0 0 0 .367-.356l.113-.065.752 1.303 2.677-1.545.822-.299 8.658-4.998 2.908 5.036c-.081.076-.181.15-.308.218z"/><path fill="gray" stroke="#333" stroke-width=".396" d="M45.442 54.302 22.948 67.29l-.77-1.334 8.494-4.904.334-.41.95-.548c.21-.128.287-.236.367-.356l.113-.065.752 1.303 2.676-1.545.823-.299 8.658-4.998z"/><path fill="#5c5c4c" stroke="#38382e" stroke-width=".396" d="m20.613 66.86-.591-1.025.82-.546 1.043.276 4.452-2.57c.116-.07.291-.276.17-.48l-.33-.573 1.071-.618.367.636c.12.205.363.396.68.24.107-.053.01.11.12.155z"/><path fill="#404040" d="m24.008 70.621.417.722 17.967-10.374-.417-.721z"/><path fill="#3b3b3b" d="m27.514 69.557 13.589-7.846-.417-.722-12.903 7.449-.687.396c-.508.294-.057 1.004.418.723"/><path stroke="#333" stroke-width=".396" d="m27.096 68.834 13.59-7.845m-13.59 7.845c-.508.294-.057 1.004.418.723m-.418-.723.687-.396 12.903-7.45m-13.172 8.57 13.589-7.847-.417-.722m-13.172 8.568.687-.396"/><path fill="#454545" d="m24.324 71.17.768-.442.6 1.039-.768.443zM41.51 61.249l.782-.451.607 1.052-.782.451z"/><path fill="#404040" d="m47.503 59.643-.524.303c-.387.225-.536.573-.675.898l-.046.105c-.178-.54-.386-1.46-.308-1.987l.518-.3.144.182c.249.32.506.648.891.799"/><path fill="#636351" stroke="#38382e" stroke-width=".793" d="m44.614 60.863 1.41 2.443a.9.9 0 0 1 .113.329c.093 2.68-2.722 3.525-4.065 2.482l-2.506-1.835-.218-.379"/><path fill="#595959" d="m97.543 23.504 8.022-4.631-.658-1.141-8.528 4.924c-2.436 1.425-3.54 1.867-4.438 2.226-.607.242-1.12.448-1.888.894L50.89 48.388l.598 1.036L90.39 26.963a19 19 0 0 1 2.57-1.198c1.009-.4 2.119-.841 4.583-2.26M108.058 23.19l-8.47 4.89c-2.847 1.627-3.683 2.355-4.365 2.95-.427.372-.793.692-1.554 1.146L54.564 54.753l-.629-1.088L92.78 31.238c1.112-.67 1.694-1.13 2.322-1.627.85-.673 1.788-1.415 4.25-2.839l8.081-4.665z"/><path fill="#545445" stroke="#38382e" stroke-width=".396" d="m88.514 26.665-1.112-1.927c-.065-.105-.056-.2.067-.268l.375-.216c.168-.092.2-.044.268.074l1.112 1.927"/><path fill="#404040" stroke="#333" stroke-width=".396" d="M90.56 35.683c-.346-.053-.726-.184-1.247-.003-3.133 1.614-4.87 2.624-7.735 4.491l-.055-.095c2.983-1.985 6.088-3.697 9.146-5.194l.054.093.02.244c-.197.143-.147.272-.183.464z"/><path fill="#4d4d4d" stroke="#333" stroke-width=".396" d="m80.356 39.823.68 1.18a.466.466 0 1 1 .808-.467l-.68-1.18zM101.631 29.71l.459-.116-.406-1.303-.573.427z"/><path fill="#404040" d="m99.723 27.804.511.885.198-.115c.293-.176.526-.012.691.2.245.315.822.03.636-.367-.159-.322-.1-.504.183-.683l.227-.13-.518-.897"/><path stroke="#333" stroke-width=".396" d="m99.723 27.804.511.885.198-.115c.293-.176.526-.012.691.2.245.315.822.03.636-.367-.159-.322-.1-.504.183-.683l.227-.13-.518-.897"/><path stroke="#333" stroke-width=".793" d="M90.053 25.776 50.89 48.388l3.675 6.365 39.105-22.577c1.977-1.18 1.292-1.453 5.92-4.096l8.469-4.89-3.151-5.458-8.528 4.924c-4.083 2.389-4.424 2.014-6.326 3.12z"/><path fill="#4d4d4d" stroke="#333" stroke-width=".793" d="m99.934 27.946 1.753-1.013-3.216-5.57-1.754 1.012z"/><path fill="#404040" stroke="#333" stroke-width=".793" d="m108.082 23.23 1.119-.645-3.217-5.57-1.119.645z"/><path fill="#595959" stroke="#333" stroke-width=".396" d="M50.694 48.05 48.9 49.085l1.15 1.99"/><path fill="#4d4d4d" stroke="#333" stroke-width=".793" d="m53.36 55.925 1.41-.814-3.977-6.889-.937.541-.15.83z"/><path fill="#545445" d="m40.686 60.989.417.722zM36.941 63.15l.418.723zM40.686 60.989l.417.722-3.744 2.162-.418-.723z"/><path stroke="#38382e" stroke-width=".396" d="m40.686 60.989.417.722zM36.941 63.15l.418.723zM40.686 60.989l.417.722-3.744 2.162-.418-.723z"/><path stroke="#333" stroke-width=".396" d="m24.924 72.208-.92-1.588 17.97-10.375.925 1.602-.782.451-.511-.877-16.415 9.477.501.867z"/><path fill="#5b5b4b" stroke="#38382e" stroke-width=".396" d="M39.96 62.821a.865.865 0 1 0-.865-1.499.865.865 0 0 0 .866 1.5z"/><path fill="#464639" stroke="#38382e" stroke-width=".396" d="M88.451 25.736a.406.406 0 1 0-.406-.704.406.406 0 0 0 .406.704z"/><path fill="#555" stroke="#333" stroke-width=".396" d="M22.782 70.33c.23-.445.277-2.817-.018-3.361l.894 1.55c.049.1.05.192-.027.343z"/><path fill="#666" stroke="#333" stroke-width=".396" d="M43.821 64.954a1.167 1.167 0 1 0-1.167-2.022 1.167 1.167 0 0 0 1.167 2.022z"/><path fill="#4d4d4d" stroke="#333" stroke-width=".396" d="m43.397 65.204.852-.493-1.172-2.03-.852.493zM71.327 47.2c-1.213.697-1.98 1.377-2.78 2.17 1.118-.312 1.964-.574 3.27-1.323"/><path fill="#626251" d="m71.188 46.868.867 1.502.437-.758-.45-.78Z"/><path fill="#70705c" stroke="#38382e" stroke-width=".396" d="m85.404 38.612-13.421 7.977.14.164-.32.173-.78-.251 1.097 1.9.143-.925.347-.2.013.221 13.68-7.898"/><path fill="#636350" stroke="#38382e" stroke-width=".793" d="m84.797 37.8.933 1.615c.499.91 2.251.055 1.642-.948l-.933-1.616"/><path fill="#4d4d4d" stroke="#333" stroke-width=".396" d="m71.88 46.57.916 1.586c.409.7 1.338.265.903-.521l-.914-1.584Z"/><path fill="#554" d="m84.659 38.356 2.38-1.374-4.284-7.419-2.38 1.374z"/><path fill="#71715b" stroke="#38382e" stroke-width=".396" d="m83.553 36.06.622-.36.437.757.772-.446-.437-.757.655-.377 1.161 2.011-.051.258-1.733 1-.254-.081z"/><path fill="#414135" d="M86.73 39.185a.413.413 0 1 0-.413-.716.413.413 0 0 0 .413.716"/><path fill="#545445" stroke="#38382e" stroke-linejoin="round" stroke-width=".396" d="m75.486 46.76.955-.552-.74-1.282-.955.551z"/><path fill="#666" stroke="#333" stroke-linejoin="round" stroke-width=".396" d="m73.56 47.675.774-.447.248.429-.774.446zM72.201 48.434l.774-.447.247.428-.773.447z"/><path fill="#666" d="m22.8 70.36 23.935-13.82-1.292-2.238L22.949 67.29l.71 1.23c.048.1.049.192-.028.343l-.849 1.467c-.02.032-.015.049.018.03"/><path fill="#595959" d="m22.8 70.36 23.935-13.82-.558-.965-22.5 12.99c.028.085.019.17-.046.298l-.85 1.467c-.02.031-.014.048.019.03"/><path stroke="#333" stroke-width=".396" d="m22.8 70.36 23.935-13.82-1.292-2.238L22.949 67.29l.71 1.23c.048.1.049.192-.028.343l-.849 1.467c-.02.032-.015.049.018.03z"/><path fill="#404040" stroke="#333" stroke-width=".396" d="m24.744 72.313.063-.036.272.471-.063.036z"/><path fill="#4d4d4d" d="M41.534 58.19q.043.052.076.11c.2.348.128.837-.202 1.028l-5.654 3.265c-.331.19-.791.009-.992-.339a1 1 0 0 1-.057-.12z"/><path fill="#404040" d="m41.534 58.19-6.83 3.943c-.122-.33-.026-.723.268-.893l5.654-3.264c.294-.17.683-.056.907.215"/><path stroke="#333" stroke-linecap="round" stroke-width=".793" d="m34.972 61.24 5.654-3.264c.33-.191.783-.023.984.325.2.347.128.837-.203 1.028l-5.654 3.264c-.33.191-.79.01-.991-.339-.201-.347-.12-.823.21-1.014z"/><path fill="#545454" stroke="#333" stroke-width=".396" d="M20.546 65.844a.45.45 0 1 0-.45-.779.45.45 0 0 0 .45.78z"/><path fill="#8f8f8f" d="m51.447 54.878.984-.568.323.559-.987.57c-.304.164-.593.27-.842.346l-2.563.81c-.53.129-.648-.032-.81-.313l-.323-.558c.162.28.312.47.813.31l2.564-.81a4.5 4.5 0 0 0 .841-.346"/><path fill="#999" d="m49.553 51.518-2.718 1.569c-.427.534-.427.976-.363 1.257l4.484-2.588-.521-.902-.605.349z"/><path fill="#919191" d="m51.448 54.878.984-.568-.502-.868-.991.572c-.304.164-.559.321-.845.437l-2.42.961c-.488.182-.644-.034-.807-.315l.362.626c.163.282.312.472.814.312l2.563-.81c.25-.076.538-.182.842-.347"/><path fill="#949494" d="m51.93 53.441-.992.573c-.303.164-.559.32-.845.437l-2.42.96c-.488.183-.644-.033-.807-.314l-.068-.12 4.511-2.61Z"/><path fill="#969696" d="m51.308 52.367-4.511 2.61-.244-.423a.7.7 0 0 1-.081-.21l4.483-2.589z"/><path stroke="#333" stroke-width=".396" d="m51.767 55.438.987-.57-2.318-4.015-.605.349-.278.316-2.717 1.568c-.52.649-.422 1.225-.282 1.468l.998 1.728c.162.28.28.441.81.313l2.563-.81c.25-.076.538-.183.842-.347z"/><path fill="#666" d="m50.803 51.491-.369-.637-.604.349-.278.315-2.718 1.569c-.283.354-.378.668-.392.922zM51.547 52.778l-.238-.412-4.511 2.611.068.12c.061.104.12.2.197.27zM51.105 52.014l-.15-.259-4.483 2.589c.01.057.04.138.08.21l.039.066z"/><path fill="#666" d="m51.157 54.369.886-.511-.209-.36-.895.516q-.112.06-.217.12c-.214.12-.412.23-.628.317l-2.42.961c-.488.182-.644-.034-.807-.315l.21.363c.136.219 1.112-.058 1.771-.244.17-.048.317-.09.425-.116l.733-.227c.36-.107.847-.34 1.15-.504"/><path stroke="#333" stroke-width=".396" d="m51.447 54.878.984-.568.323.559-.987.57c-.304.164-.593.27-.842.346l-2.563.81c-.53.129-.648-.032-.81-.313l-.323-.558c.162.28.312.47.813.31l2.564-.81a4.5 4.5 0 0 0 .841-.346zM49.553 51.518l-2.718 1.569c-.427.534-.427.976-.363 1.257l4.484-2.588-.521-.902-.605.349z"/><path stroke="#333" stroke-width=".396" d="m51.448 54.878.984-.568-.502-.868-.991.572c-.304.164-.559.321-.845.437l-2.42.961c-.488.182-.644-.034-.807-.315l.362.626c.163.282.312.472.814.312l2.563-.81c.25-.076.538-.182.842-.347z"/><path stroke="#333" stroke-width=".396" d="m51.93 53.441-.992.573c-.303.164-.559.32-.845.437l-2.42.96c-.488.183-.644-.033-.807-.314l-.068-.12 4.511-2.61ZM51.308 52.367l-4.511 2.61-.244-.423a.7.7 0 0 1-.081-.21l4.483-2.589z"/><path stroke="#333" stroke-width=".396" d="m49.48 57.743 3.7-2.137-2.745-4.753-.604.349-.278.316-3.043 1.756-.317.37-.848.489 1.749 3.028c.515.924 1.447 1.127 2.386.582z"/><path stroke="#333" stroke-width=".793" d="m49.208 57.9 3.971-2.293-2.744-4.754-.605.35-.278.315-3.043 1.756-.317.37-.847.489-8.658 4.998-.822.299-2.677 1.545-.752-1.303-.113.065a1 1 0 0 1-.367.356l-.95.548-.334.41-10.305 5.95.645 2.034c.09.236.128.338.212.487l2.088 3.617L45.2 60.524l.595 1.03c.571-.321.454-1.182 1.184-1.609l.967-.558a1.5 1.5 0 0 0 .308-.218c.43-.404.324-.89.955-1.27z"/><path fill="#4d4d4d" stroke="#333" stroke-width=".793" d="m57.761 53.384 1.41-.814-3.977-6.888-1.41.814zM92.07 33.427l1.41-.814-3.913-6.777-1.41.814z"/><rect width=".591" height="2.012" x="101.467" y="29.457" fill="#666" stroke="#333" stroke-width=".396" rx=".295" transform="rotate(-17.18 101.467 29.457)"/><path fill="#737373" d="m82.428 33.276 1.293-.746.296.512-.337.21 1.048 1.815-.053.03.947 1.641-.485.28-.947-1.64-.068.04-1.044-1.808-.343.198z"/><path fill="#404040" d="m84.996 36.775-.75-1.298.486-.28.75 1.298z"/><path stroke="#333" stroke-width=".396" d="m82.428 33.276 1.293-.746.296.512-.337.21 1.048 1.815-.053.03.947 1.641-.485.28-.947-1.64-.068.04-1.044-1.808-.343.198z"/><path fill="#71715b" d="m82.191 34.085.789-.455-.424-.735.772-.446.424.735.82-.473-1.05-1.818-.514-.161-1.732 1-.134.535z"/><path stroke="#38382e" stroke-width=".396" d="m82.191 34.085.789-.455-.424-.735.772-.446.424.735.82-.473-1.05-1.818-.514-.161-1.732 1-.134.535z"/><path stroke="#38382e" stroke-width=".793" d="m84.659 38.356 2.38-1.374-4.284-7.419-2.38 1.374z"/><path fill="#999" stroke="#333" stroke-width=".396" d="m85.243 35.333.158.273c.381-.06.756.148 1.06.44.482.428-.246 1.243-.602.565-.134-.242-.448-.44-.613-.412l-.376.217c-.07.234-.116.513.026.75.41.648-.632.85-.762.217-.061-.371-.032-.824.148-1.13l-.158-.274Z"/></g><defs><clipPath id="a"><path fill="#fff" d="M0 0h110v110H0z"/></clipPath></defs></svg>