<svg width="74.525" height="25.145" viewBox="0 0 19.718 6.653" xmlns="http://www.w3.org/2000/svg">
    <path d="m158.505.353-.016 5.85-3.938.016V5.175l-.108-.143-.109-.143-.004-3.284.221-.233V.342l3.953.011z" style="fill:#5d5855;fill-opacity:1;stroke:none;stroke-linejoin:round;stroke-opacity:1" transform="translate(-147.813 .032)"/>
    <path style="fill:#504c49;fill-opacity:1;stroke:none;stroke-width:.396875;stroke-linejoin:round;stroke-dasharray:none;stroke-opacity:1" d="M155.474.37v5.856h-.938l-.333-1.346V1.7l.548-1.304z" transform="translate(-147.813 .032)"/>
    <g fill-rule="evenodd" clip-rule="evenodd" fill="#484442">
        <path d="M155.35 5.089c-.089.93-.362.936-.53 0zM155.35 1.065c-.089.93-.362.936-.53 0z" style="fill:#353231;fill-opacity:1;stroke-width:.222974" transform="translate(-147.813 -.1)"/>
    </g>
    <path style="fill:#5d5855;fill-opacity:1;stroke:#181716;stroke-width:.396875;stroke-linejoin:round;stroke-dasharray:none;stroke-opacity:1" d="M155.486.221v6.002" transform="translate(-147.813 .032)"/>
    <g style="fill:#353231;fill-opacity:1;stroke:none;stroke-opacity:1" fill-rule="evenodd" clip-rule="evenodd" fill="#484442">
        <path d="M156.572 1.023h.694c.375 0 .677.143.677.32 0 .178-.302.32-.677.32h-.694c-.375 0-.677-.142-.677-.32 0-.177.302-.32.677-.32zM156.572 4.949h.694c.375 0 .677.143.677.32 0 .177-.302.32-.677.32h-.694c-.375 0-.677-.143-.677-.32 0-.177.302-.32.677-.32z" style="fill:#353231;fill-opacity:1;stroke:none;stroke-width:.199334;stroke-opacity:1" transform="translate(-147.813 .02)"/>
    </g>
    <path d="m158.505.366-.016 5.85-3.937.016V5.188l-.109-.143-.108-.143-.004-3.284.22-.233V.355l3.954.011z" stroke="#171717" stroke-width=".777" stroke-miterlimit="29" style="fill:none;stroke:#181716;stroke-linejoin:round;stroke-opacity:1" transform="translate(-147.813 .032)"/>
    <path class="cls-5" d="M148.214 4.883c-.019.203.074.288.17.37 1.397.539 3.773.316 4.278-.155 1.027-.96.889-2.648 0-3.57-.77-.797-3.646-.48-4.281-.114-.125.05-.133.204-.154.418l-.016 3.048v0z" style="fill:#803300;fill-rule:evenodd;stroke:#2e1300;stroke-width:.79375px;stroke-linecap:round" transform="translate(-147.813 .032)"/>
    <path style="fill:#514c49;fill-opacity:1;fill-rule:evenodd;stroke:#181716;stroke-width:.794;stroke-linecap:round;stroke-linejoin:round;stroke-miterlimit:5.89;stroke-dasharray:none;stroke-opacity:1" class="cls-3" d="M160.978 2.383h6.157v1.852h-6.157z" transform="translate(-147.813 .032)"/>
    <path style="fill:#6b6561;fill-opacity:1;fill-rule:evenodd;stroke:#181716;stroke-width:.794;stroke-linecap:round;stroke-linejoin:round;stroke-miterlimit:5.89;stroke-dasharray:none;stroke-opacity:1" class="cls-3" d="M159.337 2.118h2.452V4.5h-2.452z" transform="translate(-147.813 .032)"/>
    <path d="m150.2 2.332 3.313-.195.191-.343h.55l.44.646 3.477.007.555-.414.738.007.7.587-.01 1.505-.708.573-.72-.01-.555-.389-3.477-.012-.45.678h-.621l-.122-.35L150.2 4.4z" style="fill:#79726d;fill-opacity:1;stroke:none;stroke-linejoin:round;stroke-opacity:1" transform="translate(-147.813 .032)"/>
    <path d="m150.142 2.18 3.125-.195.191-.26h.93l.44.645 3.285.008.555-.485.739.007.7.657-.012 1.506-.707.655-.72-.01-.555-.471-3.285-.012-.45.678h-1.001l-.121-.267-3.115-.222z" stroke="#151518" stroke-width=".794" stroke-miterlimit="29" style="fill:none;stroke:#171717;stroke-linejoin:round;stroke-opacity:1" transform="translate(-147.813 .032)"/>
    <path class="cls-10" d="M166.236 3.6h-.794c-.158 0-.29-.291-.29-.291s.132-.291.29-.291h.794c.159 0 .291.29.291.29s-.132.292-.29.292z" style="fill:#181716;fill-opacity:1;fill-rule:evenodd;stroke:none;stroke-width:3px;stroke-linecap:round" transform="translate(-147.813 .032)"/>
    <path style="fill:#5d5855;fill-opacity:1;stroke:#171717;stroke-width:.396875;stroke-linejoin:round;stroke-dasharray:none;stroke-opacity:1" d="M151.788 2.78c-.544.018-1.516.137-1.798.343V3.5c.278.16 1.194.33 1.804.341h.429v-.148h1.075v-.796h-1.075V2.78h-.398z" transform="translate(-147.813 .032)"/>
    <path style="fill:#353231;fill-opacity:1;stroke:#181716;stroke-width:.79375;stroke-linejoin:round;stroke-dasharray:none;stroke-opacity:1" d="M153.49 5.044V1.59" transform="translate(-147.813 .032)"/>
    <path style="fill:#353231;fill-opacity:1;fill-rule:evenodd;stroke:#171717;stroke-width:.396875;stroke-linecap:round;stroke-linejoin:round;stroke-miterlimit:5.89;stroke-dasharray:none;stroke-opacity:1" class="cls-3" d="M153.473 2.802h.699v1.024h-.699z" transform="translate(-147.813 .032)"/>
</svg>
