<svg xmlns="http://www.w3.org/2000/svg" width="242.212" height="74.217" viewBox="0 0 64.085 19.637"><g transform="translate(-102.394 -19.844)"><path d="M135.865 20.468h2.126v2.162h-2.126z" style="fill:#484848;fill-opacity:1;fill-rule:evenodd;stroke:#171717;stroke-width:.79375;stroke-linecap:round;stroke-linejoin:round;stroke-miterlimit:29;stroke-dasharray:none;stroke-opacity:1"/><path d="M121.919 23.818h9.515v.969h-9.515z" style="fill:#4c4c4c;fill-opacity:1;fill-rule:evenodd;stroke:#171717;stroke-width:.79375;stroke-linecap:round;stroke-linejoin:round;stroke-miterlimit:29;stroke-dasharray:none;stroke-opacity:1"/><path d="M138.655 21.064h2.02v3.78h-2.02z" style="fill:#544265;fill-opacity:1;fill-rule:evenodd;stroke:#171717;stroke-width:.79375;stroke-linecap:round;stroke-linejoin:round;stroke-miterlimit:29;stroke-dasharray:none;stroke-opacity:1"/><path d="M138.101 20.386h3.128v2.326h-3.128z" style="fill:#67517b;fill-opacity:1;fill-rule:evenodd;stroke:#171717;stroke-width:.79375;stroke-linecap:round;stroke-linejoin:round;stroke-miterlimit:29;stroke-dasharray:none;stroke-opacity:1"/><ellipse cx="142.141" cy="21.549" rx=".88" ry="1.308" style="fill:#686868;fill-opacity:1;fill-rule:evenodd;stroke:#171717;stroke-width:.79375;stroke-linecap:round;stroke-linejoin:round;stroke-miterlimit:29;stroke-dasharray:none;stroke-opacity:1"/><path d="M141.218 20.956v1.2" style="fill:#657d52;fill-opacity:1;fill-rule:evenodd;stroke:#262626;stroke-width:.396875;stroke-linecap:round;stroke-linejoin:round;stroke-miterlimit:29;stroke-dasharray:none;stroke-opacity:1"/><g style="stroke:#082b0b;stroke-width:.918887;stroke-dasharray:none;stroke-opacity:1"><path d="M15.094 22.237h23.291v6.896H15.094z" style="fill:#855b47;fill-opacity:1;fill-rule:evenodd;stroke:#271707;stroke-width:.918887;stroke-linecap:round;stroke-linejoin:round;stroke-miterlimit:29;stroke-dasharray:none;stroke-opacity:1" transform="matrix(1.00172 0 0 .7449 89.121 16.283)"/><path d="M13.709 21.59h1.84v8.189h-1.84z" style="fill:#855b47;fill-opacity:1;fill-rule:evenodd;stroke:#271707;stroke-width:.918887;stroke-linecap:round;stroke-linejoin:round;stroke-miterlimit:29;stroke-dasharray:none;stroke-opacity:1" transform="matrix(1.00172 0 0 .7449 89.121 16.283)"/></g><path d="M1.326 25.381h.922v.813h-.922z" style="fill:#644435;fill-opacity:1;fill-rule:evenodd;stroke:none;stroke-width:.736163;stroke-linecap:round;stroke-linejoin:round;stroke-miterlimit:29;stroke-dasharray:none;stroke-opacity:1" transform="translate(101.988 7.277)"/><path d="M3.175 29.591h12.909v.822H3.175zM3.175 25.873h12.876v.822H3.175z" style="fill:#644435;fill-opacity:1;fill-rule:evenodd;stroke:none;stroke-width:.78951;stroke-linecap:round;stroke-linejoin:round;stroke-miterlimit:29;stroke-dasharray:none;stroke-opacity:1" transform="translate(101.988 7.277)"/><path d="M1.326 30.024h.922v.813h-.922z" style="fill:#644435;fill-opacity:1;fill-rule:evenodd;stroke:none;stroke-width:.736163;stroke-linecap:round;stroke-linejoin:round;stroke-miterlimit:29;stroke-dasharray:none;stroke-opacity:1" transform="translate(101.988 7.277)"/><g style="stroke:#082b0b;stroke-width:.918887;stroke-dasharray:none;stroke-opacity:1"><path d="M15.094 22.237h23.291v6.896H15.094z" style="fill:#855b47;fill-opacity:1;fill-rule:evenodd;stroke:#271707;stroke-width:.918887;stroke-linecap:round;stroke-linejoin:round;stroke-miterlimit:29;stroke-dasharray:none;stroke-opacity:1" transform="matrix(1.00172 0 0 .7449 89.121 9.332)"/><path d="M13.709 21.59h1.84v8.189h-1.84z" style="fill:#855b47;fill-opacity:1;fill-rule:evenodd;stroke:#271707;stroke-width:.918887;stroke-linecap:round;stroke-linejoin:round;stroke-miterlimit:29;stroke-dasharray:none;stroke-opacity:1" transform="matrix(1.00172 0 0 .7449 89.121 9.332)"/></g><path d="M1.326 18.505h.922v.813h-.922z" style="fill:#644435;fill-opacity:1;fill-rule:evenodd;stroke:none;stroke-width:.736163;stroke-linecap:round;stroke-linejoin:round;stroke-miterlimit:29;stroke-dasharray:none;stroke-opacity:1" transform="translate(101.988 7.277)"/><path d="M3.173 22.638h12.911v.829H3.173zM3.173 18.92h12.909v.822H3.173z" style="fill:#644435;fill-opacity:1;fill-rule:evenodd;stroke:none;stroke-width:.78951;stroke-linecap:round;stroke-linejoin:round;stroke-miterlimit:29;stroke-dasharray:none;stroke-opacity:1" transform="translate(101.988 7.277)"/><path d="M1.326 23.136h.922v.813h-.922z" style="fill:#644435;fill-opacity:1;fill-rule:evenodd;stroke:none;stroke-width:.736163;stroke-linecap:round;stroke-linejoin:round;stroke-miterlimit:29;stroke-dasharray:none;stroke-opacity:1" transform="translate(101.988 7.277)"/><path d="M102.955 31.436h15.542v1.008h-15.542z" style="fill:#4d4d4d;fill-opacity:1;fill-rule:evenodd;stroke:#191919;stroke-width:.396875;stroke-linecap:round;stroke-linejoin:round;stroke-miterlimit:29;stroke-dasharray:none;stroke-opacity:1"/><rect width="47.444" height="14.345" x="118.579" y="24.739" rx="2.12" ry="1.577" style="fill:#544265;fill-opacity:1;fill-rule:evenodd;stroke:#171717;stroke-width:.79375;stroke-linecap:round;stroke-linejoin:round;stroke-miterlimit:29;stroke-dasharray:none;stroke-opacity:1"/><path d="M119.182 26.144h46.271V37.63h-46.271z" style="fill:#6d507c;fill-opacity:1;fill-rule:evenodd;stroke:none;stroke-width:.79375;stroke-linecap:round;stroke-linejoin:round;stroke-miterlimit:29;stroke-dasharray:none;stroke-opacity:1"/><path d="M120.485 30.821h5.474v2.181h-5.474zM159.27 30.794h4.437v2.233h-4.437z" style="fill:#4c4c4c;fill-opacity:1;fill-rule:evenodd;stroke:#171717;stroke-width:.79375;stroke-linecap:round;stroke-linejoin:round;stroke-miterlimit:29;stroke-dasharray:none;stroke-opacity:1"/><path d="M133.324 24.157v3.78h-14.599v8.045h47.25v-8.045H141.6v-3.78z" style="fill:#7a598a;fill-opacity:1;fill-rule:evenodd;stroke:#171717;stroke-width:.79375;stroke-linecap:round;stroke-linejoin:round;stroke-miterlimit:29;stroke-dasharray:none;stroke-opacity:1"/><path d="M120.825 24.778s-2.37-.172-2.37 1.503v11.345s-.231 1.424 1.899 1.424h1.024V24.743ZM163.705 24.778s2.37-.172 2.37 1.503v11.3s.231 1.423-1.898 1.423h-1.025v-14.26Z" style="fill:#7a598a;fill-opacity:1;fill-rule:evenodd;stroke:#171717;stroke-width:.79375;stroke-linecap:round;stroke-linejoin:round;stroke-miterlimit:29;stroke-dasharray:none;stroke-opacity:1"/><path d="M117.489 29.821h3.912v4.198h-3.912z" style="fill:#4d4d4d;fill-opacity:1;fill-rule:evenodd;stroke:#171717;stroke-width:.79375;stroke-linecap:round;stroke-linejoin:round;stroke-miterlimit:29;stroke-dasharray:none;stroke-opacity:1"/><path d="M121.255 30.178h1.992v3.482h-1.992z" style="fill:#3f3f3f;fill-opacity:1;fill-rule:evenodd;stroke:#171717;stroke-width:.79375;stroke-linecap:round;stroke-linejoin:round;stroke-miterlimit:29;stroke-dasharray:none;stroke-opacity:1"/><path d="M161.261 30.829h4.757v2.181h-4.757z" style="fill:#737373;fill-opacity:1;fill-rule:evenodd;stroke:#171717;stroke-width:.79375;stroke-linecap:round;stroke-linejoin:round;stroke-miterlimit:29;stroke-dasharray:none;stroke-opacity:1"/><path d="M161.668 31.441h3.943v.957h-3.943z" style="fill:#656565;fill-opacity:1;fill-rule:evenodd;stroke:none;stroke-width:.79375;stroke-linecap:round;stroke-linejoin:round;stroke-miterlimit:29;stroke-dasharray:none;stroke-opacity:1"/><path d="M123.304-37.429h11.32v11.32h-11.32z" style="fill:#4d4d4d;fill-opacity:1;fill-rule:evenodd;stroke:#191919;stroke-width:.79375;stroke-linecap:round;stroke-linejoin:round;stroke-miterlimit:29;stroke-dasharray:none;stroke-opacity:1" transform="scale(1 -1)"/><path d="M25004.781 10325.296c-3.175 3.175-31.808 10.847-36.146 9.685-4.337-1.162-25.298-22.123-26.461-26.461-1.162-4.337 6.51-32.97 9.686-36.146 3.175-3.175 31.808-10.847 36.146-9.685 4.337 1.162 25.298 22.123 26.46 26.461s-6.51 32.97-9.685 36.146" style="fill:#8a4c70;fill-opacity:1;fill-rule:evenodd;stroke:none;stroke-width:5;stroke-linecap:square;stroke-linejoin:round;stroke-dasharray:none;stroke-opacity:1" transform="rotate(-44.974 101.992 2142.35)scale(.06456)"/><g style="fill:#693a55;fill-opacity:1" transform="translate(-3278.541 -1384.14)scale(.51644)"><circle cx="4477.502" cy="5564.13" r="1.134" style="opacity:1;fill:#693a55;fill-opacity:1;fill-rule:evenodd;stroke:none;stroke-width:1.32292;stroke-linecap:square;stroke-linejoin:round;stroke-dasharray:none;stroke-opacity:1" transform="rotate(-28.628)"/><circle cx="1100.282" cy="7050.509" r="1.134" style="fill:#693a55;fill-opacity:1;fill-rule:evenodd;stroke:none;stroke-width:1.32292;stroke-linecap:square;stroke-linejoin:round;stroke-dasharray:none;stroke-opacity:1" transform="rotate(-58.57)"/><circle cx="4348.949" cy="5659.757" r="1.134" style="fill:#693a55;fill-opacity:1;fill-rule:evenodd;stroke:none;stroke-width:1.32292;stroke-linecap:square;stroke-linejoin:round;stroke-dasharray:none;stroke-opacity:1" transform="rotate(-29.943)"/><circle cx="4350.262" cy="5663.373" r="1.134" style="fill:#693a55;fill-opacity:1;fill-rule:evenodd;stroke:none;stroke-width:1.32292;stroke-linecap:square;stroke-linejoin:round;stroke-dasharray:none;stroke-opacity:1" transform="rotate(-29.943)"/><circle cx="4344.855" cy="5664.977" r="1.134" style="fill:#693a55;fill-opacity:1;fill-rule:evenodd;stroke:none;stroke-width:1.32292;stroke-linecap:square;stroke-linejoin:round;stroke-dasharray:none;stroke-opacity:1" transform="rotate(-29.943)"/><circle cx="4347.035" cy="5661.449" r=".737" style="fill:#693a55;fill-opacity:1;fill-rule:evenodd;stroke:none;stroke-width:1.32292;stroke-linecap:square;stroke-linejoin:round;stroke-dasharray:none;stroke-opacity:1" transform="rotate(-29.943)"/><circle cx="4349.535" cy="5662.055" r=".737" style="fill:#693a55;fill-opacity:1;fill-rule:evenodd;stroke:none;stroke-width:1.32292;stroke-linecap:square;stroke-linejoin:round;stroke-dasharray:none;stroke-opacity:1" transform="rotate(-29.943)"/><circle cx="4347.396" cy="5660.435" r=".737" style="fill:#693a55;fill-opacity:1;fill-rule:evenodd;stroke:none;stroke-width:1.32292;stroke-linecap:square;stroke-linejoin:round;stroke-dasharray:none;stroke-opacity:1" transform="rotate(-29.943)"/><circle cx="4475.05" cy="5563.501" r=".539" style="fill:#693a55;fill-opacity:1;fill-rule:evenodd;stroke:none;stroke-width:1.32292;stroke-linecap:square;stroke-linejoin:round;stroke-dasharray:none;stroke-opacity:1" transform="rotate(-28.628)"/><circle cx="4472.23" cy="5561.682" r=".539" style="fill:#693a55;fill-opacity:1;fill-rule:evenodd;stroke:none;stroke-width:1.32292;stroke-linecap:square;stroke-linejoin:round;stroke-dasharray:none;stroke-opacity:1" transform="rotate(-28.628)"/><circle cx="6590.303" cy="2734.578" r=".539" style="fill:#693a55;fill-opacity:1;fill-rule:evenodd;stroke:none;stroke-width:1.32292;stroke-linecap:square;stroke-linejoin:round;stroke-dasharray:none;stroke-opacity:1"/></g><g style="stroke:#311b28;stroke-opacity:1"><path d="M6617.89 2737.183c-.46-3.324.753-5.744 0-9.369M6618.022 2735.73c.46 3.324-.752 5.744 0 9.369" style="fill:#8b558b;fill-opacity:1;fill-rule:evenodd;stroke:#311b28;stroke-width:1.32292;stroke-linecap:square;stroke-linejoin:round;stroke-dasharray:none;stroke-opacity:1" transform="translate(-1488.447 -638.406)scale(.244)"/></g><g style="stroke:#311b28;stroke-opacity:1"><path d="M6617.89 2737.183c-.46-3.324.753-5.744 0-9.369M6618.022 2735.73c.46 3.324-.752 5.744 0 9.369" style="fill:#8b558b;fill-opacity:1;fill-rule:evenodd;stroke:#311b28;stroke-width:1.32292;stroke-linecap:square;stroke-linejoin:round;stroke-dasharray:none;stroke-opacity:1" transform="rotate(60 1423.49 -940.518)scale(.244)"/></g><g style="stroke:#311b28;stroke-opacity:1"><path d="M6617.89 2737.183c-.46-3.324.753-5.744 0-9.369M6618.022 2735.73c.46 3.324-.752 5.744 0 9.369" style="fill:#8b558b;fill-opacity:1;fill-rule:evenodd;stroke:#311b28;stroke-width:1.32292;stroke-linecap:square;stroke-linejoin:round;stroke-dasharray:none;stroke-opacity:1" transform="rotate(120 1054.905 -81.162)scale(.244)"/></g><g style="stroke-width:1.36676;stroke-dasharray:none" transform="matrix(.17872 0 0 .17834 107.703 2.595)"><circle cx="104.555" cy="149.811" r="3.708" style="display:inline;fill:#85954c;fill-opacity:1;stroke:#2d331a;stroke-width:1.64011;stroke-linejoin:round;stroke-dasharray:none;stroke-opacity:1"/><path d="M105.01 151.99c-1.27-1.41-3.407-1.28-4.026-1.268-1.724.035-1.68-1.732-.062-1.767.638-.013 2.828.18 4.083-1.252" style="fill:#85954c;fill-opacity:1;stroke:#2d331a;stroke-width:1.64011;stroke-linecap:round;stroke-linejoin:round;stroke-dasharray:none;stroke-opacity:1"/></g><path d="M25004.781 10325.296c-3.175 3.175-31.808 10.847-36.146 9.685-4.337-1.162-25.298-22.123-26.461-26.461-1.162-4.337 6.51-32.97 9.686-36.146 3.175-3.175 31.808-10.847 36.146-9.685 4.337 1.162 25.298 22.123 26.46 26.461s-6.51 32.97-9.685 36.146z" style="fill:none;fill-opacity:1;fill-rule:evenodd;stroke:#311b28;stroke-width:5;stroke-linecap:square;stroke-linejoin:round;stroke-dasharray:none;stroke-opacity:1" transform="rotate(-44.974 101.797 2142.27)scale(.06456)"/><path d="M25004.781 10325.296c-3.175 3.175-31.808 10.847-36.146 9.685-4.337-1.162-25.298-22.123-26.461-26.461-1.162-4.337 6.51-32.97 9.686-36.146 3.175-3.175 31.808-10.847 36.146-9.685 4.337 1.162 25.298 22.123 26.46 26.461s-6.51 32.97-9.685 36.146" style="fill:#8a4c70;fill-opacity:1;fill-rule:evenodd;stroke:none;stroke-width:5;stroke-linecap:square;stroke-linejoin:round;stroke-dasharray:none;stroke-opacity:1" transform="rotate(-44.974 110.276 2138.487)scale(.06456)"/><g style="fill:#693a55;fill-opacity:1" transform="translate(-3273.387 -1379.416)scale(.51644)"><circle cx="4477.502" cy="5564.13" r="1.134" style="opacity:1;fill:#693a55;fill-opacity:1;fill-rule:evenodd;stroke:none;stroke-width:1.32292;stroke-linecap:square;stroke-linejoin:round;stroke-dasharray:none;stroke-opacity:1" transform="rotate(-28.628)"/><circle cx="1100.282" cy="7050.509" r="1.134" style="fill:#693a55;fill-opacity:1;fill-rule:evenodd;stroke:none;stroke-width:1.32292;stroke-linecap:square;stroke-linejoin:round;stroke-dasharray:none;stroke-opacity:1" transform="rotate(-58.57)"/><circle cx="4348.949" cy="5659.757" r="1.134" style="fill:#693a55;fill-opacity:1;fill-rule:evenodd;stroke:none;stroke-width:1.32292;stroke-linecap:square;stroke-linejoin:round;stroke-dasharray:none;stroke-opacity:1" transform="rotate(-29.943)"/><circle cx="4350.262" cy="5663.373" r="1.134" style="fill:#693a55;fill-opacity:1;fill-rule:evenodd;stroke:none;stroke-width:1.32292;stroke-linecap:square;stroke-linejoin:round;stroke-dasharray:none;stroke-opacity:1" transform="rotate(-29.943)"/><circle cx="4344.855" cy="5664.977" r="1.134" style="fill:#693a55;fill-opacity:1;fill-rule:evenodd;stroke:none;stroke-width:1.32292;stroke-linecap:square;stroke-linejoin:round;stroke-dasharray:none;stroke-opacity:1" transform="rotate(-29.943)"/><circle cx="4347.035" cy="5661.449" r=".737" style="fill:#693a55;fill-opacity:1;fill-rule:evenodd;stroke:none;stroke-width:1.32292;stroke-linecap:square;stroke-linejoin:round;stroke-dasharray:none;stroke-opacity:1" transform="rotate(-29.943)"/><circle cx="4349.535" cy="5662.055" r=".737" style="fill:#693a55;fill-opacity:1;fill-rule:evenodd;stroke:none;stroke-width:1.32292;stroke-linecap:square;stroke-linejoin:round;stroke-dasharray:none;stroke-opacity:1" transform="rotate(-29.943)"/><circle cx="4347.396" cy="5660.435" r=".737" style="fill:#693a55;fill-opacity:1;fill-rule:evenodd;stroke:none;stroke-width:1.32292;stroke-linecap:square;stroke-linejoin:round;stroke-dasharray:none;stroke-opacity:1" transform="rotate(-29.943)"/><circle cx="4475.05" cy="5563.501" r=".539" style="fill:#693a55;fill-opacity:1;fill-rule:evenodd;stroke:none;stroke-width:1.32292;stroke-linecap:square;stroke-linejoin:round;stroke-dasharray:none;stroke-opacity:1" transform="rotate(-28.628)"/><circle cx="4472.23" cy="5561.682" r=".539" style="fill:#693a55;fill-opacity:1;fill-rule:evenodd;stroke:none;stroke-width:1.32292;stroke-linecap:square;stroke-linejoin:round;stroke-dasharray:none;stroke-opacity:1" transform="rotate(-28.628)"/><circle cx="6590.303" cy="2734.578" r=".539" style="fill:#693a55;fill-opacity:1;fill-rule:evenodd;stroke:none;stroke-width:1.32292;stroke-linecap:square;stroke-linejoin:round;stroke-dasharray:none;stroke-opacity:1"/></g><g style="stroke:#311b28;stroke-opacity:1"><path d="M6617.89 2737.183c-.46-3.324.753-5.744 0-9.369M6618.022 2735.73c.46 3.324-.752 5.744 0 9.369" style="fill:#8b558b;fill-opacity:1;fill-rule:evenodd;stroke:#311b28;stroke-width:1.32292;stroke-linecap:square;stroke-linejoin:round;stroke-dasharray:none;stroke-opacity:1" transform="translate(-1483.293 -633.682)scale(.244)"/></g><g style="stroke:#311b28;stroke-opacity:1"><path d="M6617.89 2737.183c-.46-3.324.753-5.744 0-9.369M6618.022 2735.73c.46 3.324-.752 5.744 0 9.369" style="fill:#8b558b;fill-opacity:1;fill-rule:evenodd;stroke:#311b28;stroke-width:1.32292;stroke-linecap:square;stroke-linejoin:round;stroke-dasharray:none;stroke-opacity:1" transform="rotate(60 1421.975 -933.692)scale(.244)"/></g><g style="stroke:#311b28;stroke-opacity:1"><path d="M6617.89 2737.183c-.46-3.324.753-5.744 0-9.369M6618.022 2735.73c.46 3.324-.752 5.744 0 9.369" style="fill:#8b558b;fill-opacity:1;fill-rule:evenodd;stroke:#311b28;stroke-width:1.32292;stroke-linecap:square;stroke-linejoin:round;stroke-dasharray:none;stroke-opacity:1" transform="rotate(120 1056.119 -77.312)scale(.244)"/></g><g style="stroke-width:1.36676;stroke-dasharray:none" transform="matrix(.17872 0 0 .17834 112.858 7.32)"><circle cx="104.555" cy="149.811" r="3.708" style="display:inline;fill:#85954c;fill-opacity:1;stroke:#2d331a;stroke-width:1.64011;stroke-linejoin:round;stroke-dasharray:none;stroke-opacity:1"/><path d="M105.01 151.99c-1.27-1.41-3.407-1.28-4.026-1.268-1.724.035-1.68-1.732-.062-1.767.638-.013 2.828.18 4.083-1.252" style="fill:#85954c;fill-opacity:1;stroke:#2d331a;stroke-width:1.64011;stroke-linecap:round;stroke-linejoin:round;stroke-dasharray:none;stroke-opacity:1"/></g><path d="M25004.781 10325.296c-3.175 3.175-31.808 10.847-36.146 9.685-4.337-1.162-25.298-22.123-26.461-26.461-1.162-4.337 6.51-32.97 9.686-36.146 3.175-3.175 31.808-10.847 36.146-9.685 4.337 1.162 25.298 22.123 26.46 26.461s-6.51 32.97-9.685 36.146z" style="fill:none;fill-opacity:1;fill-rule:evenodd;stroke:#311b28;stroke-width:5;stroke-linecap:square;stroke-linejoin:round;stroke-dasharray:none;stroke-opacity:1" transform="rotate(-44.974 110.08 2138.406)scale(.06456)"/><path d="M25004.781 10325.296c-3.175 3.175-31.808 10.847-36.146 9.685-4.337-1.162-25.298-22.123-26.461-26.461-1.162-4.337 6.51-32.97 9.686-36.146 3.175-3.175 31.808-10.847 36.146-9.685 4.337 1.162 25.298 22.123 26.46 26.461s-6.51 32.97-9.685 36.146" style="fill:#8a4c70;fill-opacity:1;fill-rule:evenodd;stroke:none;stroke-width:5;stroke-linecap:square;stroke-linejoin:round;stroke-dasharray:none;stroke-opacity:1" transform="rotate(-44.974 104.569 2136.125)scale(.06456)"/><g style="fill:#693a55;fill-opacity:1" transform="translate(-3273.387 -1384.14)scale(.51644)"><circle cx="4477.502" cy="5564.13" r="1.134" style="opacity:1;fill:#693a55;fill-opacity:1;fill-rule:evenodd;stroke:none;stroke-width:1.32292;stroke-linecap:square;stroke-linejoin:round;stroke-dasharray:none;stroke-opacity:1" transform="rotate(-28.628)"/><circle cx="1100.282" cy="7050.509" r="1.134" style="fill:#693a55;fill-opacity:1;fill-rule:evenodd;stroke:none;stroke-width:1.32292;stroke-linecap:square;stroke-linejoin:round;stroke-dasharray:none;stroke-opacity:1" transform="rotate(-58.57)"/><circle cx="4348.949" cy="5659.757" r="1.134" style="fill:#693a55;fill-opacity:1;fill-rule:evenodd;stroke:none;stroke-width:1.32292;stroke-linecap:square;stroke-linejoin:round;stroke-dasharray:none;stroke-opacity:1" transform="rotate(-29.943)"/><circle cx="4350.262" cy="5663.373" r="1.134" style="fill:#693a55;fill-opacity:1;fill-rule:evenodd;stroke:none;stroke-width:1.32292;stroke-linecap:square;stroke-linejoin:round;stroke-dasharray:none;stroke-opacity:1" transform="rotate(-29.943)"/><circle cx="4344.855" cy="5664.977" r="1.134" style="fill:#693a55;fill-opacity:1;fill-rule:evenodd;stroke:none;stroke-width:1.32292;stroke-linecap:square;stroke-linejoin:round;stroke-dasharray:none;stroke-opacity:1" transform="rotate(-29.943)"/><circle cx="4347.035" cy="5661.449" r=".737" style="fill:#693a55;fill-opacity:1;fill-rule:evenodd;stroke:none;stroke-width:1.32292;stroke-linecap:square;stroke-linejoin:round;stroke-dasharray:none;stroke-opacity:1" transform="rotate(-29.943)"/><circle cx="4349.535" cy="5662.055" r=".737" style="fill:#693a55;fill-opacity:1;fill-rule:evenodd;stroke:none;stroke-width:1.32292;stroke-linecap:square;stroke-linejoin:round;stroke-dasharray:none;stroke-opacity:1" transform="rotate(-29.943)"/><circle cx="4347.396" cy="5660.435" r=".737" style="fill:#693a55;fill-opacity:1;fill-rule:evenodd;stroke:none;stroke-width:1.32292;stroke-linecap:square;stroke-linejoin:round;stroke-dasharray:none;stroke-opacity:1" transform="rotate(-29.943)"/><circle cx="4475.05" cy="5563.501" r=".539" style="fill:#693a55;fill-opacity:1;fill-rule:evenodd;stroke:none;stroke-width:1.32292;stroke-linecap:square;stroke-linejoin:round;stroke-dasharray:none;stroke-opacity:1" transform="rotate(-28.628)"/><circle cx="4472.23" cy="5561.682" r=".539" style="fill:#693a55;fill-opacity:1;fill-rule:evenodd;stroke:none;stroke-width:1.32292;stroke-linecap:square;stroke-linejoin:round;stroke-dasharray:none;stroke-opacity:1" transform="rotate(-28.628)"/><circle cx="6590.303" cy="2734.578" r=".539" style="fill:#693a55;fill-opacity:1;fill-rule:evenodd;stroke:none;stroke-width:1.32292;stroke-linecap:square;stroke-linejoin:round;stroke-dasharray:none;stroke-opacity:1"/></g><g style="stroke:#311b28;stroke-opacity:1"><path d="M6617.89 2737.183c-.46-3.324.753-5.744 0-9.369M6618.022 2735.73c.46 3.324-.752 5.744 0 9.369" style="fill:#8b558b;fill-opacity:1;fill-rule:evenodd;stroke:#311b28;stroke-width:1.32292;stroke-linecap:square;stroke-linejoin:round;stroke-dasharray:none;stroke-opacity:1" transform="translate(-1483.293 -638.406)scale(.244)"/></g><g style="stroke:#311b28;stroke-opacity:1"><path d="M6617.89 2737.183c-.46-3.324.753-5.744 0-9.369M6618.022 2735.73c.46 3.324-.752 5.744 0 9.369" style="fill:#8b558b;fill-opacity:1;fill-rule:evenodd;stroke:#311b28;stroke-width:1.32292;stroke-linecap:square;stroke-linejoin:round;stroke-dasharray:none;stroke-opacity:1" transform="rotate(60 1426.067 -936.054)scale(.244)"/></g><g style="stroke:#311b28;stroke-opacity:1"><path d="M6617.89 2737.183c-.46-3.324.753-5.744 0-9.369M6618.022 2735.73c.46 3.324-.752 5.744 0 9.369" style="fill:#8b558b;fill-opacity:1;fill-rule:evenodd;stroke:#311b28;stroke-width:1.32292;stroke-linecap:square;stroke-linejoin:round;stroke-dasharray:none;stroke-opacity:1" transform="rotate(120 1057.483 -79.674)scale(.244)"/></g><g style="stroke-width:1.36676;stroke-dasharray:none" transform="matrix(.17872 0 0 .17834 112.858 2.595)"><circle cx="104.555" cy="149.811" r="3.708" style="display:inline;fill:#85954c;fill-opacity:1;stroke:#2d331a;stroke-width:1.64011;stroke-linejoin:round;stroke-dasharray:none;stroke-opacity:1"/><path d="M105.01 151.99c-1.27-1.41-3.407-1.28-4.026-1.268-1.724.035-1.68-1.732-.062-1.767.638-.013 2.828.18 4.083-1.252" style="fill:#85954c;fill-opacity:1;stroke:#2d331a;stroke-width:1.64011;stroke-linecap:round;stroke-linejoin:round;stroke-dasharray:none;stroke-opacity:1"/></g><path d="M25004.781 10325.296c-3.175 3.175-31.808 10.847-36.146 9.685-4.337-1.162-25.298-22.123-26.461-26.461-1.162-4.337 6.51-32.97 9.686-36.146 3.175-3.175 31.808-10.847 36.146-9.685 4.337 1.162 25.298 22.123 26.46 26.461s-6.51 32.97-9.685 36.146z" style="fill:none;fill-opacity:1;fill-rule:evenodd;stroke:#311b28;stroke-width:5;stroke-linecap:square;stroke-linejoin:round;stroke-dasharray:none;stroke-opacity:1" transform="rotate(-44.974 104.374 2136.044)scale(.06456)"/><path d="M25004.781 10325.296c-3.175 3.175-31.808 10.847-36.146 9.685-4.337-1.162-25.298-22.123-26.461-26.461-1.162-4.337 6.51-32.97 9.686-36.146 3.175-3.175 31.808-10.847 36.146-9.685 4.337 1.162 25.298 22.123 26.46 26.461s-6.51 32.97-9.685 36.146" style="fill:#8a4c70;fill-opacity:1;fill-rule:evenodd;stroke:none;stroke-width:5;stroke-linecap:square;stroke-linejoin:round;stroke-dasharray:none;stroke-opacity:1" transform="rotate(-44.974 107.653 2144.824)scale(.06456)"/><g style="fill:#693a55;fill-opacity:1" transform="translate(-3278.633 -1379.416)scale(.51644)"><circle cx="4477.502" cy="5564.13" r="1.134" style="opacity:1;fill:#693a55;fill-opacity:1;fill-rule:evenodd;stroke:none;stroke-width:1.32292;stroke-linecap:square;stroke-linejoin:round;stroke-dasharray:none;stroke-opacity:1" transform="rotate(-28.628)"/><circle cx="1100.282" cy="7050.509" r="1.134" style="fill:#693a55;fill-opacity:1;fill-rule:evenodd;stroke:none;stroke-width:1.32292;stroke-linecap:square;stroke-linejoin:round;stroke-dasharray:none;stroke-opacity:1" transform="rotate(-58.57)"/><circle cx="4348.949" cy="5659.757" r="1.134" style="fill:#693a55;fill-opacity:1;fill-rule:evenodd;stroke:none;stroke-width:1.32292;stroke-linecap:square;stroke-linejoin:round;stroke-dasharray:none;stroke-opacity:1" transform="rotate(-29.943)"/><circle cx="4350.262" cy="5663.373" r="1.134" style="fill:#693a55;fill-opacity:1;fill-rule:evenodd;stroke:none;stroke-width:1.32292;stroke-linecap:square;stroke-linejoin:round;stroke-dasharray:none;stroke-opacity:1" transform="rotate(-29.943)"/><circle cx="4344.855" cy="5664.977" r="1.134" style="fill:#693a55;fill-opacity:1;fill-rule:evenodd;stroke:none;stroke-width:1.32292;stroke-linecap:square;stroke-linejoin:round;stroke-dasharray:none;stroke-opacity:1" transform="rotate(-29.943)"/><circle cx="4347.035" cy="5661.449" r=".737" style="fill:#693a55;fill-opacity:1;fill-rule:evenodd;stroke:none;stroke-width:1.32292;stroke-linecap:square;stroke-linejoin:round;stroke-dasharray:none;stroke-opacity:1" transform="rotate(-29.943)"/><circle cx="4349.535" cy="5662.055" r=".737" style="fill:#693a55;fill-opacity:1;fill-rule:evenodd;stroke:none;stroke-width:1.32292;stroke-linecap:square;stroke-linejoin:round;stroke-dasharray:none;stroke-opacity:1" transform="rotate(-29.943)"/><circle cx="4347.396" cy="5660.435" r=".737" style="fill:#693a55;fill-opacity:1;fill-rule:evenodd;stroke:none;stroke-width:1.32292;stroke-linecap:square;stroke-linejoin:round;stroke-dasharray:none;stroke-opacity:1" transform="rotate(-29.943)"/><circle cx="4475.05" cy="5563.501" r=".539" style="fill:#693a55;fill-opacity:1;fill-rule:evenodd;stroke:none;stroke-width:1.32292;stroke-linecap:square;stroke-linejoin:round;stroke-dasharray:none;stroke-opacity:1" transform="rotate(-28.628)"/><circle cx="4472.23" cy="5561.682" r=".539" style="fill:#693a55;fill-opacity:1;fill-rule:evenodd;stroke:none;stroke-width:1.32292;stroke-linecap:square;stroke-linejoin:round;stroke-dasharray:none;stroke-opacity:1" transform="rotate(-28.628)"/><circle cx="6590.303" cy="2734.578" r=".539" style="fill:#693a55;fill-opacity:1;fill-rule:evenodd;stroke:none;stroke-width:1.32292;stroke-linecap:square;stroke-linejoin:round;stroke-dasharray:none;stroke-opacity:1"/></g><g style="stroke:#311b28;stroke-opacity:1"><path d="M6617.89 2737.183c-.46-3.324.753-5.744 0-9.369M6618.022 2735.73c.46 3.324-.752 5.744 0 9.369" style="fill:#8b558b;fill-opacity:1;fill-rule:evenodd;stroke:#311b28;stroke-width:1.32292;stroke-linecap:square;stroke-linejoin:round;stroke-dasharray:none;stroke-opacity:1" transform="translate(-1488.539 -633.682)scale(.244)"/></g><g style="stroke:#311b28;stroke-opacity:1"><path d="M6617.89 2737.183c-.46-3.324.753-5.744 0-9.369M6618.022 2735.73c.46 3.324-.752 5.744 0 9.369" style="fill:#8b558b;fill-opacity:1;fill-rule:evenodd;stroke:#311b28;stroke-width:1.32292;stroke-linecap:square;stroke-linejoin:round;stroke-dasharray:none;stroke-opacity:1" transform="rotate(60 1419.352 -938.235)scale(.244)"/></g><g style="stroke:#311b28;stroke-opacity:1"><path d="M6617.89 2737.183c-.46-3.324.753-5.744 0-9.369M6618.022 2735.73c.46 3.324-.752 5.744 0 9.369" style="fill:#8b558b;fill-opacity:1;fill-rule:evenodd;stroke:#311b28;stroke-width:1.32292;stroke-linecap:square;stroke-linejoin:round;stroke-dasharray:none;stroke-opacity:1" transform="rotate(120 1053.496 -78.827)scale(.244)"/></g><g style="stroke-width:1.36676;stroke-dasharray:none" transform="matrix(.17872 0 0 .17834 107.612 7.32)"><circle cx="104.555" cy="149.811" r="3.708" style="display:inline;fill:#85954c;fill-opacity:1;stroke:#2d331a;stroke-width:1.64011;stroke-linejoin:round;stroke-dasharray:none;stroke-opacity:1"/><path d="M105.01 151.99c-1.27-1.41-3.407-1.28-4.026-1.268-1.724.035-1.68-1.732-.062-1.767.638-.013 2.828.18 4.083-1.252" style="fill:#85954c;fill-opacity:1;stroke:#2d331a;stroke-width:1.64011;stroke-linecap:round;stroke-linejoin:round;stroke-dasharray:none;stroke-opacity:1"/></g><path d="M25004.781 10325.296c-3.175 3.175-31.808 10.847-36.146 9.685-4.337-1.162-25.298-22.123-26.461-26.461-1.162-4.337 6.51-32.97 9.686-36.146 3.175-3.175 31.808-10.847 36.146-9.685 4.337 1.162 25.298 22.123 26.46 26.461s-6.51 32.97-9.685 36.146z" style="fill:none;fill-opacity:1;fill-rule:evenodd;stroke:#311b28;stroke-width:5;stroke-linecap:square;stroke-linejoin:round;stroke-dasharray:none;stroke-opacity:1" transform="rotate(-44.974 107.458 2144.743)scale(.06456)"/><path d="M-13.097.397v11.32h11.32V.397Zm1.366 1.366h8.588v8.588h-8.588Z" style="fill:#4d4d4d;fill-opacity:1;fill-rule:evenodd;stroke:#191919;stroke-width:.79375;stroke-linecap:round;stroke-linejoin:round;stroke-miterlimit:29;stroke-dasharray:none;stroke-opacity:1" transform="translate(136.4 25.712)"/><path d="M-11.34 2.162h7.798V9.96h-7.798z" style="fill:#298fa3;fill-opacity:.5;fill-rule:evenodd;stroke:none;stroke-width:.792579;stroke-linecap:round;stroke-linejoin:round;stroke-miterlimit:29;stroke-dasharray:none;stroke-opacity:1" transform="translate(136.4 25.712)"/><path d="M-11.34 7.36v1.38l1.196 1.197h1.311z" style="fill:#d6f0f5;fill-opacity:.5;fill-rule:evenodd;stroke:none;stroke-width:.79375;stroke-linecap:round;stroke-linejoin:round;stroke-miterlimit:29;stroke-dasharray:none;stroke-opacity:1" transform="translate(136.4 25.712)"/><path d="M-11.315 2.9v3.48l3.66 3.544h3.305z" style="fill:#d6f0f5;fill-opacity:.5;fill-rule:evenodd;stroke:none;stroke-width:2.00134;stroke-linecap:round;stroke-linejoin:round;stroke-miterlimit:29;stroke-dasharray:none;stroke-opacity:1" transform="translate(136.4 25.712)"/><path d="M133.29 29.915h1.334v3.578h-1.334z" style="fill:#414141;fill-opacity:1;fill-rule:evenodd;stroke:#191919;stroke-width:.79375;stroke-linecap:round;stroke-linejoin:round;stroke-miterlimit:29;stroke-dasharray:none;stroke-opacity:1"/></g></svg>