<svg width="145.884" height="32.04" viewBox="0 0 38.598 8.477" xmlns="http://www.w3.org/2000/svg">
    <g transform="translate(66.241 -11.523)">
        <path style="fill:#2a2a2d;fill-opacity:1;stroke:none;stroke-width:.79375;stroke-linecap:butt;stroke-linejoin:round;stroke-dasharray:none;stroke-opacity:1" d="M-51.072 12.252v7.049h3.58v-7.049z"/>
        <path style="fill:#3d3e43;fill-opacity:1;stroke:none;stroke-width:.56913;stroke-linecap:butt;stroke-linejoin:round;stroke-dasharray:none;stroke-opacity:1" d="M-50.89 12.252v7.049h1.84v-7.049z"/>
        <path style="fill:#3e3e42;fill-opacity:1;stroke:#161618;stroke-width:.396875;stroke-linecap:butt;stroke-linejoin:round;stroke-dasharray:none;stroke-opacity:1" d="M-49.06 12.366v6.82"/>
        <path style="fill:none;fill-opacity:1;stroke:#161618;stroke-width:.79375;stroke-linecap:butt;stroke-linejoin:round;stroke-dasharray:none;stroke-opacity:1" d="M-50.972 11.92v7.684h1.544l.386-.258h1.65v-7.154h-1.683l-.375-.272z"/>
        <path class="cls-12" d="M-35.938 14.872h5.277c.031 0 .055.03.055.065v1.679c0 .035-.024.064-.055.064h-5.277c-.032 0-.056-.029-.056-.064V14.94c0-.035.024-.065.056-.065z" style="fill:#4a4a4f;fill-opacity:1;stroke:#161618;stroke-width:.837684px;stroke-linecap:round;stroke-linejoin:round;stroke-opacity:1"/>
        <path style="fill:#494a50;fill-opacity:1;stroke:none;stroke-width:.79375;stroke-dasharray:none;stroke-opacity:1" d="M-47.405 13.747v4.059h11.177c.665-.065 1.023-.4 1.059-1.052v-1.912c-.02-.433-.255-1.06-1.059-1.095z"/>
        <path style="fill:#313135;fill-opacity:1;stroke:none;stroke-width:.79375;stroke-linecap:butt;stroke-linejoin:round;stroke-dasharray:none;stroke-opacity:1" d="M-35.455 14.651h-10.848v-.893h10.766zM-35.504 16.908h-10.848v.893h10.765z"/>
        <g style="fill:#161618;fill-opacity:1;stroke:none">
            <g transform="matrix(.99505 0 0 1.18543 0 -11.83)" style="fill:#161618;fill-opacity:1;stroke:none;stroke-width:.36542;stroke-dasharray:none;stroke-opacity:1">
                <rect style="fill:#161618;fill-opacity:1;stroke:none;stroke-width:.36542;stroke-dasharray:none;stroke-opacity:1" width=".997" height=".592" x="-37.803" y="24.37" ry=".296"/>
                <rect style="fill:#161618;fill-opacity:1;stroke:none;stroke-width:.36542;stroke-dasharray:none;stroke-opacity:1" width=".997" height=".592" x="-36.624" y="24.37" ry=".296"/>
                <rect style="fill:#161618;fill-opacity:1;stroke:none;stroke-width:.36542;stroke-dasharray:none;stroke-opacity:1" width=".997" height=".592" x="-38.982" y="24.37" ry=".296"/>
                <rect style="fill:#161618;fill-opacity:1;stroke:none;stroke-width:.36542;stroke-dasharray:none;stroke-opacity:1" width=".997" height=".592" x="-40.166" y="24.37" ry=".296"/>
                <rect style="fill:#161618;fill-opacity:1;stroke:none;stroke-width:.36542;stroke-dasharray:none;stroke-opacity:1" width=".997" height=".592" x="-41.345" y="24.37" ry=".296"/>
                <rect style="fill:#161618;fill-opacity:1;stroke:none;stroke-width:.36542;stroke-dasharray:none;stroke-opacity:1" width=".997" height=".592" x="-42.53" y="24.37" ry=".296"/>
            </g>
            <g transform="matrix(.99505 0 0 1.18543 .016 -15.099)" style="fill:#161618;fill-opacity:1;stroke:none;stroke-width:.36542;stroke-dasharray:none;stroke-opacity:1">
                <rect style="fill:#161618;fill-opacity:1;stroke:none;stroke-width:.36542;stroke-dasharray:none;stroke-opacity:1" width=".997" height=".592" x="-37.803" y="24.37" ry=".296"/>
                <rect style="fill:#161618;fill-opacity:1;stroke:none;stroke-width:.36542;stroke-dasharray:none;stroke-opacity:1" width=".997" height=".592" x="-36.624" y="24.37" ry=".296"/>
                <rect style="fill:#161618;fill-opacity:1;stroke:none;stroke-width:.36542;stroke-dasharray:none;stroke-opacity:1" width=".997" height=".592" x="-38.982" y="24.37" ry=".296"/>
                <rect style="fill:#161618;fill-opacity:1;stroke:none;stroke-width:.36542;stroke-dasharray:none;stroke-opacity:1" width=".997" height=".592" x="-40.166" y="24.37" ry=".296"/>
                <rect style="fill:#161618;fill-opacity:1;stroke:none;stroke-width:.36542;stroke-dasharray:none;stroke-opacity:1" width=".997" height=".592" x="-41.345" y="24.37" ry=".296"/>
                <rect style="fill:#161618;fill-opacity:1;stroke:none;stroke-width:.36542;stroke-dasharray:none;stroke-opacity:1" width=".997" height=".592" x="-42.53" y="24.37" ry=".296"/>
            </g>
        </g>
        <path style="fill:none;fill-opacity:1;stroke:#161618;stroke-width:.79375;stroke-dasharray:none;stroke-opacity:1" d="M-47.47 13.747v4.059h11.178c.664-.065 1.022-.4 1.058-1.052v-1.912c-.02-.433-.255-1.06-1.058-1.095z"/>
        <path style="fill:#595a5f;fill-opacity:1;stroke:#161618;stroke-width:.555625;stroke-linejoin:round;stroke-dasharray:none;stroke-opacity:1" d="M-52.037 17.907v1.267h.93v-1.278z"/>
        <path style="fill:#62636a;fill-opacity:1;stroke:none;stroke-width:.79375;stroke-linejoin:round;stroke-dasharray:none;stroke-opacity:1" d="M-55.653 13.482v4.589h8.59l.529-.21v-4.16l-.53-.219z"/>
        <path style="fill:#4d5049;fill-opacity:1;stroke:#171816;stroke-width:.396999;stroke-linecap:butt;stroke-linejoin:round;stroke-dasharray:none;stroke-opacity:1" d="M-46.498 17.267v-2.98h-4.85v2.98z"/>
        <path style="fill:#313135;fill-opacity:1;stroke:#161618;stroke-width:.79375;stroke-linecap:butt;stroke-linejoin:round;stroke-dasharray:none;stroke-opacity:1" d="m-64.41 13.905-1.434-.001v3.74l1.432-.001"/>
        <path style="fill:#3e3e42;fill-opacity:1;stroke:none;stroke-width:.79375;stroke-linecap:butt;stroke-linejoin:round;stroke-dasharray:none;stroke-opacity:1" d="M-56.136 13.817c-.683.028-1.331.504-1.922.53-2.472-.01-4.377-.512-6.897-.53v3.738c2.232.015 4.21-.576 6.875-.53.628.029 1.248.516 1.901.53"/>
        <path style="fill:#4a4a4f;fill-opacity:1;stroke:none;stroke-width:.79375;stroke-linecap:round;stroke-linejoin:round;stroke-dasharray:none;stroke-opacity:1" d="M-59.03 14.4c.79 1.11.36 1.933 0 2.771h3.186v-3.157z"/>
        <path style="fill:none;fill-opacity:1;stroke:#161618;stroke-width:.79375;stroke-linecap:butt;stroke-linejoin:round;stroke-dasharray:none;stroke-opacity:1" d="M-55.923 13.907c-.683.029-1.331.504-1.923.53-2.471-.01-4.376-.512-6.896-.53v3.738c2.231.015 4.21-.576 6.875-.529.628.028 1.248.516 1.901.53"/>
        <path style="fill:none;fill-opacity:1;stroke:#161618;stroke-width:.79375;stroke-linejoin:round;stroke-dasharray:none;stroke-opacity:1" d="M-55.923 14.011v3.53l.656.53h8.404l.53-.21v-4.16l-.53-.219h-8.404z"/>
        <path style="fill:#3d3d42;fill-opacity:1;stroke:#171717;stroke-width:.396875;stroke-linejoin:round;stroke-dasharray:none;stroke-opacity:1" d="M-55.109 15.098h-.91v1.357h1.125"/>
        <path style="fill:#666;fill-opacity:1;stroke:none;stroke-width:.396999;stroke-linecap:butt;stroke-linejoin:round;stroke-dasharray:none;stroke-opacity:1" d="M-51.936 14.823h5.959v1.907h-5.863z"/>
        <path style="fill:#797d86;fill-opacity:1;stroke:#171717;stroke-width:.396875;stroke-linejoin:round;stroke-dasharray:none;stroke-opacity:1" d="M-51.987 15.363h.911v.827H-52.2"/>
        <path style="fill:#55575e;fill-opacity:1;stroke:none;stroke-width:.396875;stroke-linejoin:round;stroke-dasharray:none;stroke-opacity:1" d="m-43.832 14.945.67.67v.41l-.67.651h1.057v-1.8z"/>
        <path style="fill:#5a5a5a;fill-opacity:1;stroke:none;stroke-width:.396875;stroke-linejoin:round;stroke-dasharray:none;stroke-opacity:1" d="M-46.354 14.95v1.768h1.2l-.514-.514v-.81l.56-.56z"/>
        <path style="fill:none;fill-opacity:1;stroke:#171717;stroke-width:.396875;stroke-linejoin:round;stroke-dasharray:none;stroke-opacity:1" d="M-55.052 14.833v1.886h12.356v-1.886z"/>
        <path style="fill:none;fill-opacity:1;stroke:#171717;stroke-width:.396875;stroke-dasharray:none;stroke-opacity:1" d="M-45.178 15.102h.957c.466.003.915.224.925.563v.227c-.008.426-.57.56-.925.559h-.95c-.298-.003-.552-.186-.557-.474l-.005-.386c.003-.203.235-.484.555-.49z"/>
        <path style="fill:gray;fill-opacity:1;stroke:none;stroke-width:.369956;stroke-linejoin:round;stroke-dasharray:none;stroke-opacity:1" d="M-55.27 14.423v2.704h3.322v-2.713Z"/>
        <a transform="translate(0 .026)" style="fill:#666;fill-opacity:1">
            <path style="fill:#666;fill-opacity:1;stroke:none;stroke-width:.353373;stroke-linejoin:round;stroke-dasharray:none;stroke-opacity:1" d="M-55.172 15.048h3.244v-.667h-3.229z"/>
            <path style="fill:#666;fill-opacity:1;stroke:none;stroke-width:.359346;stroke-linejoin:round;stroke-dasharray:none;stroke-opacity:1" d="M-55.069 17.12h3.244v-.69h-3.228z"/>
        </a>
        <path style="fill:none;fill-opacity:1;stroke:#171717;stroke-width:.396875;stroke-linejoin:round;stroke-dasharray:none;stroke-opacity:1" d="M-55.194 14.49v2.583h3.322V14.48z"/>
        <path style="fill:#61636b;fill-opacity:1;stroke:#161618;stroke-width:.79375;stroke-linejoin:round;stroke-dasharray:none;stroke-opacity:1" d="M-30.683 14.62v2.323h2.643V14.61z"/>
        <path style="fill:#494a50;fill-opacity:1;stroke:#161618;stroke-width:.396875;stroke-linecap:round;stroke-linejoin:round;stroke-dasharray:none;stroke-opacity:1" d="M-28.556 15.286h-1.388M-28.564 16.1h-1.388" transform="translate(.25 .083)"/>
        <path style="fill:#62636a;fill-opacity:1;stroke:#161618;stroke-width:.396875;stroke-linecap:round;stroke-linejoin:round;stroke-dasharray:none;stroke-opacity:1" d="M-34.262 14.495v2.569h1.565v-2.569z"/>
        <path style="fill:#494a50;fill-opacity:1;stroke:#161618;stroke-width:.397;stroke-linecap:butt;stroke-linejoin:round;stroke-dasharray:none;stroke-opacity:1" d="M-33.48 14.575v2.537"/>
        <circle style="fill:#4a4a4f;fill-opacity:1;stroke:#161618;stroke-width:.396875;stroke-linecap:butt;stroke-linejoin:round;stroke-dasharray:none;stroke-opacity:1" cx="-56.527" cy="17.568" r=".595"/>
    </g>
</svg>
