<svg xmlns="http://www.w3.org/2000/svg" width="120.407" height="49.395" fill="none"><g clip-path="url(#a)" transform="rotate(15 188.577 54.901)"><path fill="#424348" d="M56.829 56.123c-.383.768-.632 1.381-.773 1.994l-.155-.268-.421.243a.516.516 0 1 1-.516-.894l.421-.243-.257-.446a.41.41 0 0 0-.558-.15l-.316.183-.038-.233 1.25-.72-.242-.419.003-.26.933-.54a.506.506 0 1 1 .507.878l-.713.412c.25.39.445.534.875.463"/><path fill="#3f4045" d="m27.05 55.721-1.145.66a.246.246 0 0 0-.113.286c.45 1.47.905 2.273 1.973 3.41a.25.25 0 0 0 .285.054l1.214-.576zM31.846 48.11l-5.324 3.074.804 1.393 5.251-3.032c-.318-.55-.574-1.06-.731-1.435"/><path fill="#494a50" d="m30.044 51.01-.892-1.544a.124.124 0 0 0-.169-.045l-2.608 1.506.003.004.95 1.646z"/><path fill="#39393d" d="M40.85 67.574c.304.186.478.213.793.09a2.5 2.5 0 0 0 1.041 2.063q.015.057.048.113c.098.17.277.253.4.182a.2.2 0 0 0 .04-.032c.385.144.787.156 1.138 0 .2-.09.164-.29.007-.322-.795-.124-1.246-.495-1.564-.952-.324-.465-.523-1.153-.48-2.087z"/><path fill="#313235" d="m41.643 67.664.248.003.005-.368-.343.134zm-.793-.09-.137-.206-.323.215.331.202zm1.834 2.154.239-.067-.024-.084-.071-.051zm.489.262.087-.232-.152-.057-.113.117zm1.137 0-.101-.227zm.007-.322.05-.243-.012-.002zm-1.564-.952.204-.141zm-.48-2.087.247.012.023-.489-.407.27zm-.72.804c-.139.054-.217.064-.281.056-.068-.008-.15-.04-.292-.126l-.259.422c.162.1.318.175.492.196.178.021.344-.018.52-.087zm1.275 2.093a2.25 2.25 0 0 1-.937-1.859l-.495-.007a2.75 2.75 0 0 0 1.145 2.27zm.118.19a.2.2 0 0 1-.023-.055l-.478.133q.024.087.072.17zm.062.091c.026-.015.038-.001.017-.01a.2.2 0 0 1-.079-.081l-.429.248a.7.7 0 0 0 .303.283.47.47 0 0 0 .435-.01zm-.013.01.013-.01.247.43a.4.4 0 0 0 .096-.075zm1.214-.054c-.28.125-.613.121-.95-.005l-.173.464c.431.162.903.183 1.325-.007zm.058.147a.095.095 0 0 1-.067-.089.1.1 0 0 1 .015-.058c.007-.01.01-.007-.006 0l.202.452c.17-.075.295-.23.284-.423a.4.4 0 0 0-.329-.367zm-1.717-1.052c.352.506.859.92 1.729 1.054l.076-.49c-.72-.111-1.114-.439-1.398-.847Zm-.525-2.24c-.045.973.162 1.718.525 2.24l.407-.283c-.286-.41-.478-1.04-.437-1.934zm-1.038 1.163 1.423-.945-.274-.413-1.423.945z"/><path fill="#39393d" stroke="#313235" stroke-width=".495" d="M44.813 64.567a.08.08 0 0 0-.03.112l.351.608c.023.04.073.052.112.03l.404-.234a.08.08 0 0 0 .03-.111l-.35-.608a.08.08 0 0 0-.112-.03z"/><path fill="#3d3e43" stroke="#313235" stroke-width=".991" d="m56.041 61.679-3.914-6.78a.19.19 0 0 0-.262-.07l-2.237 1.29-.117-.048-.272.156a.027.027 0 0 0-.01.037l3.502 6.065a.027.027 0 0 1-.01.037c-.149.087-.327.198-.255.323l7.193 12.458a.11.11 0 0 0 .15.04l.653-.377a.494.494 0 0 0 .181-.675l-.127-.22a.137.137 0 0 1 .05-.188l1.56-.9a.384.384 0 0 0 .14-.525l-6.128-10.616a.055.055 0 0 0-.075-.02z"/><path fill="#404145" stroke="#313235" stroke-width=".991" d="m52.732 62.328-3.447-5.97a.027.027 0 0 0-.037-.01l-.065.038-1.168.22-3.14 1.814 4.668 8.086.055.307 5.918 10.249a.44.44 0 0 0 .592.165l3.46-1.904a.165.165 0 0 0 .063-.227l-7.164-12.408c-.072-.125.106-.236.255-.322a.027.027 0 0 0 .01-.038z"/><path fill="#3b3b3f" stroke="#313235" stroke-width=".991" d="m51.55 52.978 51.485-29.726.918 1.59-51.486 29.725z"/><path fill="#494a50" stroke="#313235" stroke-width=".495" d="m40.64 55.208-12.132 7.004 4.614 7.992.964-.291 1.036-3.74 4.009-2.314a.736.736 0 0 1 1.005.269l1.67 2.892 3.189-2.238a.65.65 0 0 1 .517-.103c-.49-.849-.372-1.382.553-1.917l-.646-1.119 8.836-5.101-.038-.233 1.25-.721-.242-.418.068-5.622a.87.87 0 0 1 .434-.74l7.268-4.197-.338-.585a.163.163 0 0 1-.063.216L41.663 56.327a.163.163 0 0 1-.223-.06l-.577-1a.163.163 0 0 0-.224-.06z"/><path fill="#3d3e43" stroke="#313235" stroke-width=".495" d="m51.526 70.152-.306.177a.275.275 0 0 0-.1.375l1.628 2.82a.274.274 0 0 0 .375.101l.306-.177z"/><path fill="#36363b" stroke="#313235" stroke-width=".991" d="m57.47 63.34-.316.181 4.832 8.369.315-.182z"/><path fill="#3d3e43" stroke="#313235" stroke-width=".991" d="m58.368 61.984-1.19.687a.08.08 0 0 0-.03.112l5.474 9.48c.023.04.073.054.113.03l1.189-.686a.933.933 0 0 0 .341-1.274l-4.623-8.007a.933.933 0 0 0-1.274-.342z"/><path fill="#404145" stroke="#313235" stroke-width=".991" d="m53.049 63.697-.68.574-2.826 2.236.055.306 5.917 10.25a.44.44 0 0 0 .592.165l3.46-1.904a.165.165 0 0 0 .063-.227z"/><path fill="#494a50" stroke="#313235" stroke-width=".495" d="m49.543 66.507 2.826-2.236.758-.438.033.057.249-.144 1.146-.248 6.011 10.23a.137.137 0 0 0-.05.187l.128.22a.494.494 0 0 1-.181.675l-.653.378a.11.11 0 0 1-.15-.04l-.029-.05c.045.08.016.182-.064.226l-3.46 1.904a.44.44 0 0 1-.592-.165l-5.917-10.25Z"/><path fill="#404145" stroke="#313235" stroke-width=".495" d="m56.043 61.678.021-.012a.055.055 0 0 1 .075.02L62.268 72.3a.384.384 0 0 1-.14.525l-1.56.9a.137.137 0 0 0-.051.188l.127.22a.494.494 0 0 1-.18.675l-.654.378a.11.11 0 0 1-.15-.04l-6.61-11.45 1.09-.92z"/><path fill="#44454b" stroke="#313235" stroke-width=".495" d="m62.128 72.827-1.56.9-5.67-9.637 1.972-1.138 5.399 9.35a.384.384 0 0 1-.141.525z"/><path fill="#47484d" stroke="#313235" stroke-width=".495" d="m53.16 63.89.25-.144 1.146-.248 6.01 10.23a.137.137 0 0 0-.05.187l.128.22a.49.49 0 0 1-.18.676l-.654.377a.11.11 0 0 1-.15-.04z"/><path fill="#54555a" stroke="#313235" stroke-width=".495" d="m89.682 35.02 1.51-.872a.294.294 0 1 1 .294.51l-1.51.872z"/><path fill="#47484d" stroke="#313235" stroke-width=".495" d="m89.49 35.001.483-.279a.406.406 0 1 1 .406.704l-.483.278z"/><path fill="#3f4045" fill-rule="evenodd" d="m82.002 35.168 2.714-1.567 1.323 2.29-1.367.79a.527.527 0 0 1-.913.526l-.435.252zm2.356 2.022a.283.283 0 1 0-.284-.492.283.283 0 0 0 .284.492" clip-rule="evenodd"/><path fill="#36373a" d="m66.38 41.956.153-.068.287.79-.152.068zM66.647 41.803l.152-.068.287.79-.153.067zM66.914 41.65l.153-.069.286.79-.152.068zM67.178 41.497l.152-.068.287.79-.152.068zM67.443 41.343l.153-.068.287.79-.153.067zM67.71 41.19l.153-.069.287.79-.152.068zM67.973 41.037l.152-.068.287.79-.152.068zM68.24 40.884l.153-.068.286.79-.152.067zM68.508 40.73l.152-.069.287.79-.152.068zM68.77 40.577l.152-.068.287.79-.153.068zM69.037 40.424l.153-.068.286.79-.152.067zM69.3 40.27l.153-.068.287.79-.152.068zM69.566 40.118l.153-.068.287.79-.153.068zM69.834 39.964l.152-.068.287.79-.152.067zM70.096 39.81l.152-.068.287.79-.152.068zM70.363 39.658l.153-.068.287.79-.153.068zM70.627 39.505l.152-.068.287.79-.152.067zM70.893 39.35l.152-.068.287.79-.153.068zM71.16 39.198l.153-.068.286.79-.152.068zM71.424 39.044l.152-.068.287.79-.152.067zM71.69 38.89l.152-.068.287.79-.153.068zM71.957 38.738l.152-.068.287.79-.152.068zM72.219 38.584l.152-.068.287.79-.152.068zM72.486 38.43l.153-.067.287.79-.153.067zM72.754 38.278l.152-.068.287.79-.152.068zM73.016 38.125l.152-.068.287.79-.153.068zM73.283 37.973l.153-.068.286.79-.152.067zM73.549 37.818l.152-.068.287.79-.152.068z"/><path fill="#39393d" d="m66.201 42.202 7.684-4.436.3.518-7.685 4.437z"/><path fill="#3b3b3f" d="m73.822 37.66.138-.08.422.732-.138.08z"/><path fill="#38393d" d="m74.002 37.65 3.242-1.873.34.59-3.242 1.872z"/><path fill="#3d3e42" d="m77.19 35.68 4.538-2.621.455.788-4.539 2.62z"/><path fill="#424348" d="m81.867 33.301 1.087-.627.175.304-1.086.627z"/><path fill="#38393d" d="m81.727 33.059.455.788.431-.572-.175-.304z"/><path fill="#424347" d="m66.13 42.12.136-.098.54.643-.135.098zM66.397 41.968l.135-.098.54.643-.135.098zM66.662 41.815l.135-.098.54.643-.135.098zM66.926 41.662l.135-.098.54.643-.135.098zM67.193 41.508l.136-.098.54.643-.135.098zM67.459 41.355l.135-.098.54.643-.135.098zM67.723 41.202l.135-.098.54.643-.135.098zM67.99 41.048l.135-.098.54.643-.134.098zM68.256 40.895l.135-.098.54.643-.135.098zM68.52 40.742l.135-.098.54.643-.135.098zM68.785 40.589l.135-.098.54.643-.134.098zM69.049 40.436l.135-.098.54.643-.135.098zM69.316 40.283l.136-.098.54.643-.135.098zM69.582 40.129l.135-.098.54.643-.135.098zM69.846 39.976l.135-.098.54.643-.135.098zM70.113 39.823l.136-.098.54.643-.135.098zM70.379 39.67l.135-.098.54.643-.135.098zM70.643 39.516l.135-.098.54.643-.135.098zM70.908 39.363l.135-.098.54.643-.134.098zM71.176 39.21l.135-.098.54.643-.135.098zM71.44 39.056l.135-.098.54.643-.135.098zM71.705 38.903l.135-.098.54.643-.135.098zM71.969 38.75l.135-.098.54.643-.135.098zM72.236 38.597l.136-.098.54.643-.135.098zM72.502 38.444l.135-.098.54.643-.135.098zM72.766 38.29l.135-.098.54.643-.135.098zM73.031 38.137l.135-.098.54.643-.134.098zM73.295 37.983l.135-.098.54.644-.135.098zM73.563 37.83l.135-.098.54.643-.135.098z"/><path fill="#36373a" d="m78.908 34.635.114-.066.5.865-.114.066z"/><path fill="#36373a" d="m78.908 34.635.114-.066.5.865-.114.066zM77.166 35.64l.115-.065.499.865-.114.066z"/><path fill="#36373a" d="m77.166 35.64.115-.065.499.865-.114.066z"/><path fill="#38393d" d="m82.002 35.168 2.714-1.567-.915-.347-2.178 1.257z"/><path fill="#3b3b3f" d="M79.055 34.26a.186.186 0 0 0-.068.253l.565.978c.051.089.165.12.254.068l3.992-2.305a.186.186 0 0 0 .068-.254l-.564-.978a.185.185 0 0 0-.254-.068z"/><path fill="#515258" fill-rule="evenodd" d="m55.727 48.808 7.268-4.197-.432-.749-.433-.75a.163.163 0 0 1 .06-.222l22.596-13.046a1.635 1.635 0 0 1 1.94.227l2.99 2.825c.224.212.361.5.384.807l.16 2.107a.25.25 0 0 1-.121.232c-4.56 2.676-9.705 5.644-15.633 9.065-5.979 3.45-11.954 6.9-16.531 9.587-.341.739-.57 1.089-1.146 1.429-.429.07-.624-.074-.874-.463l.713-.412a.507.507 0 0 0-.507-.877l-.933.538.065-5.361a.87.87 0 0 1 .433-.74m11.3-6.745a.47.47 0 0 1 .172-.646l1.58-.911a.472.472 0 0 1 .472.818l-1.58.911a.47.47 0 0 1-.644-.172m3.36-1.94a.47.47 0 0 1 .173-.646l1.58-.912a.472.472 0 0 1 .471.819l-1.579.911a.47.47 0 0 1-.645-.173m3.36-1.94a.47.47 0 0 1 .174-.646l1.579-.912a.472.472 0 0 1 .472.818l-1.579.912a.47.47 0 0 1-.645-.173m3.362-1.941a.47.47 0 0 1 .172-.645l1.58-.912a.472.472 0 1 1 .472.818l-1.58.912a.47.47 0 0 1-.644-.173m3.36-1.94a.47.47 0 0 1 .173-.646l1.58-.911a.472.472 0 0 1 .471.818l-1.579.911a.47.47 0 0 1-.645-.173m3.36-1.94a.47.47 0 0 1 .174-.646l1.579-.912a.472.472 0 0 1 .472.818l-1.579.912a.47.47 0 0 1-.645-.173" clip-rule="evenodd"/><path fill="#4c4d52" d="M90.067 33.504q.024.096.032.198l.16 2.107a.25.25 0 0 1-.122.232 2516 2516 0 0 1-15.182 8.806l-.45.26c-5.98 3.45-11.954 6.899-16.532 9.586-.34.74-.57 1.089-1.145 1.429-.43.071-.625-.074-.875-.463l.713-.412a.507.507 0 0 0-.506-.877l-.934.539.016-1.3z"/><path fill="#404145" stroke="#313235" stroke-width=".495" d="M27.032 62.466a.25.25 0 0 1 .09-.339l13.275-7.664.526.912-13.489 7.787z"/><path fill="#3b3b3f" stroke="#313235" stroke-width=".495" d="m49.58 68.278-1.51-1.326.962-.776.973 1.761a.276.276 0 0 1-.425.341z"/><path fill="#45454a" d="m47.68 67.581.557-.321 7.722-6.88c-.08-.896-.06-1.579.098-2.263l-.155-.268-.422.243a.516.516 0 1 1-.516-.893l.422-.244-.257-.446a.41.41 0 0 0-.559-.15l-9.151 5.285.646 1.119c-.925.534-1.043 1.068-.553 1.917a.65.65 0 0 1 .424.311l1.4 2.425a.5.5 0 0 1 .061.178zM40.641 68.018c.078-.171.2-.322.36-.433l.804-.565-1.67-2.892a.735.735 0 0 0-1.005-.27l-4.008 2.315-.855 3.082c2.719.435 4.176.1 6.374-1.237"/><path fill="#424347" d="M45.393 64.253a.85.85 0 0 1 .31-1.158l2.425-1.4.848 1.467-2.426 1.4a.85.85 0 0 1-1.157-.31"/><path fill="#3b3b3f" stroke="#313235" stroke-width=".991" d="M11.93 94.961 3.149 80.377a.3.3 0 0 1-.03-.075c-.684.246-1.188.408-1.79.58a.5.5 0 0 0-.26.782c3.784 4.943 5.745 8.487 8.7 14.463a.574.574 0 0 0 .93.141z"/><path fill="#404145" fill-rule="evenodd" stroke="#313235" stroke-width=".495" d="M5.991 80.458c-.006-.37.034-.591.215-.926l-1.28.773a.817.817 0 0 0-.286 1.109l3.135 5.43a.817.817 0 0 0 1.25.203l1.62-1.437a6 6 0 0 0-.367-.7l-.048-.08a1.14 1.14 0 0 0-1.554-.416 1.35 1.35 0 0 1-.518-.204Zm3.44 5.246a.427.427 0 1 0-.426-.74.427.427 0 0 0 .427.74z" clip-rule="evenodd"/><path fill="#45454a" fill-rule="evenodd" stroke="#313235" stroke-width=".495" d="m3.147 80.377 8.894 14.768.38-.22a.82.82 0 0 0 .386-.903l-.559-2.27a8.99 8.99 0 0 1 2.8-8.903l7.362-6.46 8.525-4.923-.227-.392.524-.302-.684-1.184 1.663-.96-1.032-1.788-1.663.96-.688-1.192 1.663-.96-1.204-2.086-1.663.96-.78-1.35-.239.138c-1.581 2.932-4.319 5.335-7.34 7.08L3.23 80.04a.245.245 0 0 0-.083.337Zm17.426-7.174a.817.817 0 0 1 .3-1.116l4.121-2.38a.817.817 0 0 1 1.117.3l.989 1.713c.226.39.092.89-.3 1.116l-4.121 2.38a.817.817 0 0 1-1.116-.3zm-1.37-.54 1.714 2.968a.82.82 0 0 1-.166 1.02L9.026 87.049a.817.817 0 0 1-1.25-.203l-3.136-5.43a.817.817 0 0 1 .286-1.11l13.146-7.934a.817.817 0 0 1 1.13.291z" clip-rule="evenodd"/><path fill="#515258" d="m30.935 71.466 2.186-1.262-.91-1.577-1.663.96.684 1.184-.524.303zM31.179 66.84l-.688-1.192-1.663.96.688 1.191zM29.287 63.562l-.78-1.35-1.663.96.78 1.35z"/><path stroke="#313235" stroke-width=".495" d="m30.935 71.466 2.186-1.262-.91-1.577-1.663.96.684 1.184-.524.303zM31.179 66.84l-.688-1.192-1.663.96.688 1.191zM29.287 63.562l-.78-1.35-1.663.96.78 1.35z"/><path fill="#404145" d="M35.884 72.313c.107-1.752-1.288-2.468-1.8-2.4l.181-.659c2.719.436 4.176.1 6.375-1.236-.07.155-.103.328-.092.503l.102 1.604c.022.35.317.62.668.612l1.86-.043a.74.74 0 0 0 .403-.13l3.608-2.5a.49.49 0 0 0 .206-.472l.284-.012c.144.25.117.542-.11.705l-3.563 2.56c-.222.16-.488.245-.761.246l-1.772.002a.57.57 0 0 0-.568.629l.767 7.705a.35.35 0 0 0 .293.309.386.386 0 0 1 .328.37l.004.144a.504.504 0 0 1-.495.52l-5.665.1a.49.49 0 0 1-.5-.505z"/><circle cx="46.176" cy="63.756" r=".404" fill="#3b3b3f" transform="rotate(-30 46.176 63.755)"/><path fill="#3d3e42" d="M38.077 64.732a.916.916 0 0 1 1.251.335l1.278 2.214a.28.28 0 0 1 .023.223l-.015.036a.273.273 0 0 1-.48.014l-.128-.221c-.366-.634-.97-.94-1.372-.897a.916.916 0 0 1-.557-1.704"/><path fill="#7a7c85" d="M38.626 66.438a1 1 0 0 1-.162.001l.078-.745.16.017z"/><path fill="#3d3e42" stroke="#313235" stroke-width=".495" d="m53.018 49.063 1.055-.61.308.532-1.056.61z"/><path fill="#3d3e42" stroke="#313235" stroke-width=".495" d="M52.953 48.366a.124.124 0 0 1 .045-.17l.333-.192a.124.124 0 0 1 .17.046l.625 1.082-.549.316z"/><path fill="#424347" stroke="#313235" stroke-width=".495" d="M54.945 47.286a.163.163 0 0 0-.06.223l.205.356-1.018.587.223.386 5.104-2.947a.163.163 0 0 0 .06-.224l-.346-.6a.163.163 0 0 0-.223-.06z"/><path fill="#3f4045" stroke="#313235" stroke-width=".991" d="m99.982 24.552.722-.417a.04.04 0 0 1 .052.014c.01.018.034.024.052.014l.824-.476a.04.04 0 0 0 .014-.052.04.04 0 0 1 .014-.052l5.487-3.167a.57.57 0 0 1 .51-.032c.028.013.029.052.001.067l-3.635 2.1-.082.051c-.171.12-.838.603-.744.766s.845-.174 1.035-.262a1 1 0 0 0 .086-.045l3.727-2.152a.04.04 0 0 1 .056.015l.401.695a.05.05 0 0 1 .006.025.04.04 0 0 1-.021.031l-3.727 2.152a1 1 0 0 0-.081.052c-.172.12-.839.603-.745.766s.846-.174 1.036-.262q.031-.015.062-.032l.023-.013 3.636-2.099c.027-.016.06.004.057.035a.57.57 0 0 1-.282.426l-5.487 3.168a.04.04 0 0 1-.052-.014.04.04 0 0 0-.052-.014l-.824.476a.04.04 0 0 0-.014.052.04.04 0 0 1-.014.052l-.722.416z"/><path fill="#494a50" stroke="#313235" stroke-width=".495" d="m28.718 58.616 10.557-6.095-1.041-1.805a1.24 1.24 0 0 1 .453-1.692L52.69 40.94a6.2 6.2 0 0 1 5.393-.389l4.49 1.793 2.584-1.492-.109-.19a.06.06 0 0 0-.04-.029l-8.527-2.034a1.86 1.86 0 0 0-1.35.192L35.566 49.927a.37.37 0 0 0-.138.509l.8 1.387a.124.124 0 0 1-.044.17l-8.046 4.644a.124.124 0 0 1-.169-.045l-.638-1.105a.124.124 0 0 0-.169-.045l-.1.058a.124.124 0 0 0-.045.169z"/><path fill="#45454a" stroke="#313235" stroke-width=".495" d="m30.105 61.014 10.557-6.095-1.384-2.398-10.557 6.095z"/><path fill="#494a50" d="m34.819 49.026 1.053-.608-.637-1.103a.06.06 0 0 0-.08-.025c-.39.186-.65.321-1.028.538z"/><path fill="#45454a" stroke="#313235" stroke-width=".991" d="M31.687 47.657a.11.11 0 0 1 .056-.12l1.125-.65a.62.62 0 0 1 .846.227l1.709 2.96a.37.37 0 0 0 .005.361l.801 1.387a.124.124 0 0 1-.045.17l-8.045 4.645a.124.124 0 0 1-.17-.046l-.637-1.105a.124.124 0 0 0-.16-.05l-.966-1.674-1.023-2.341c-.015-.035-.014-.074.01-.103.144-.169.444-.384.824-.504.098-.032.295.007.358.116l.95 1.646 5.252-3.032c-.477-.825-.814-1.558-.89-1.887Z"/><path fill="#424348" d="m27.963 55.295-1.009-1.746-.87.503 1.008 1.746z"/><circle cx="33.34" cy="49.2" r=".316" fill="#3f4045" transform="rotate(-30 33.34 49.2)"/><path fill="#4e4f55" d="M38.241 51.513a1.01 1.01 0 1 1-1.75 1.01z"/><circle cx="37.367" cy="52.019" r=".613" fill="#47484d" transform="rotate(-30 37.367 52.02)"/><path fill="#494a50" d="M39.38 54.206a.65.65 0 1 0-1.127.65l.533.923 1.126-.65zM31.758 58.607a.65.65 0 1 0-1.126.65l.532.923 1.127-.65z"/><circle cx="38.815" cy="54.53" r=".352" fill="#45454a" transform="rotate(-30 38.816 54.53)"/><circle cx="31.194" cy="58.933" r=".352" fill="#45454a" transform="rotate(-30 31.194 58.933)"/><path fill="#47484d" d="m57.47 38.835-2.255 1.302a6.2 6.2 0 0 1 2.868.415l4.49 1.793 2.585-1.493-.11-.19a.06.06 0 0 0-.04-.029z"/><path fill="#494a50" d="m64.406 41.286-1.871-.794a.65.65 0 1 0-.508 1.197l.969.411z"/><circle cx="62.283" cy="41.092" r=".352" fill="#45454a" transform="rotate(-67 62.282 41.092)"/><path fill="#45454a" d="m63.505 40.905.902.382-1.41.815z"/><path fill="#575a54" stroke="#333531" stroke-width=".495" d="m53.294 49.61-.307-.531 2.074-1.198-.287-.497-5.472 3.159h-.377l-8.093 4.672.607 1.051a.163.163 0 0 0 .223.06z"/><circle cx="72.816" cy="42.481" r=".627" fill="#494a50" transform="rotate(-30 72.816 42.481)"/><circle cx="81.781" cy="37.308" r=".627" fill="#494a50" transform="rotate(-30 81.78 37.308)"/><path fill="#54555a" d="m66.21 41.24.777 2.835-1.402-2.43-.517-.452-2.464 1.423 1.728 2.992-1.523-.54c.388-.223.65-.711.444-1.07l-.825-1.428a.124.124 0 0 1 .046-.169l2.795-1.613a.12.12 0 0 1 .121-.001z"/><path fill="#595a5f" d="m65.586 41.646-.517-.452-1.433.827 1.054 1.826-1.03.595.673 1.166 2.655-1.533z"/><path fill="#56575c" d="m63.66 44.442-1.054-1.826 1.03-.595 1.054 1.826z"/><circle cx="64.966" cy="42.186" r=".382" fill="#515258" transform="rotate(-30 64.966 42.186)"/><path fill="#424348" stroke="#313235" stroke-width=".991" d="M91.57 29.779a.06.06 0 0 1 .022-.081l1.244-.718a.06.06 0 0 1 .08.022l.998 1.728a.06.06 0 0 1-.021.08l-1.295.748zM93.12 28.883a.06.06 0 0 1 .021-.08l1.471-.85a.11.11 0 0 1 .122.006c.127.095.432.352.667.76.235.406.305.8.324.956a.11.11 0 0 1-.056.109l-1.471.85a.06.06 0 0 1-.08-.023z"/><path fill="#3d3e42" stroke="#313235" stroke-width=".495" d="m92.9 32.084 1.139-.657.118.205-1.138.657z"/><path fill="#3b3b3f" stroke="#313235" stroke-width=".495" d="m92.635 31.535.98-.566.303.526-.98.566z"/><path fill="#3d3e42" stroke="#313235" stroke-width=".991" d="m92.922 29.016.204-.118.982 1.702-.203.118z"/><path fill="#47484d" d="m58.903 53.643-.585.848-.343.201c-.341.74-.57 1.09-1.146 1.43-.429.07-.624-.074-.874-.463l.713-.412a.507.507 0 0 0-.507-.878l-.933.54.012-.962c.124.118.347.147.478.072l2.5-1.444z"/><path fill="#45464a" d="m58.903 53.643.886-.512-.31-.537-1.26-.019z"/><ellipse cx="56.24" cy="54.91" fill="#47484d" rx=".552" ry=".496" transform="rotate(-30 56.24 54.91)"/><circle cx="55.314" cy="57.594" r=".344" fill="#494a50" transform="rotate(-30 55.314 57.594)"/><rect width="10.624" height="1.645" x="42.443" y="58.51" fill="#636760" rx=".619" transform="rotate(-30 42.443 58.51)"/><circle cx="43.603" cy="58.361" r=".337" fill="#595c57" transform="rotate(-30 43.603 58.36)"/><path fill="#494a50" d="M55.458 52.37a.12.12 0 0 0 .016.073l.447.775 1.427-.823-.448-.775a.124.124 0 0 0-.169-.046l-1.212.7a.12.12 0 0 0-.061.095"/><circle cx="33.418" cy="67.963" r=".468" fill="#45454a" transform="rotate(-30 33.418 67.963)"/><path fill="#515257" stroke="#313235" stroke-width=".495" d="m85.988 37.364.67 1.162c.035.059.11.079.17.045l2.26-1.305c.06-.035.08-.11.046-.17l-.306-.53a.124.124 0 0 1 .045-.169l.372-.214a.124.124 0 0 1 .169.045l.306.53c.034.06.11.08.17.046l.701-.406c.06-.034.08-.11.046-.17l-.67-1.16z"/><path stroke="#313235" stroke-width=".991" d="m3.147 80.377 8.894 14.768.38-.22a.82.82 0 0 0 .386-.903l-.558-2.27a8.99 8.99 0 0 1 2.8-8.903l7.36-6.46 10.713-6.185.963-.291c.513-.067 1.908.649 1.801 2.4l-.246 8.053a.49.49 0 0 0 .498.505l5.666-.1a.504.504 0 0 0 .495-.52l-.005-.145a.386.386 0 0 0-.327-.37.35.35 0 0 1-.293-.309l-.767-7.704a.57.57 0 0 1 .568-.63l1.772-.002c.273 0 .539-.086.76-.245l3.564-2.56a.46.46 0 0 0 .191-.3.5.5 0 0 0-.005-.207.7.7 0 0 0-.077-.198l.557-.322 7.722-6.878c-.08-.897-.06-1.58.098-2.264.14-.613.39-1.226.772-1.994.576-.34.805-.69 1.146-1.43 4.576-2.686 10.551-6.135 16.53-9.585l.392-.227.071-.04a2513 2513 0 0 0 15.17-8.799.25.25 0 0 0 .122-.232l-.16-2.107a1.24 1.24 0 0 0-.384-.807l-2.99-2.825a1.635 1.635 0 0 0-1.94-.227L62.189 42.89a.163.163 0 0 0-.06.223l.528.913a.163.163 0 0 1-.064.216l-20.93 12.085a.162.162 0 0 1-.15.007l-.016-.009a.16.16 0 0 1-.058-.058l-.577-1a.2.2 0 0 0-.053-.055.16.16 0 0 0-.17-.004L26.605 63.31c-1.58 2.933-4.319 5.335-7.34 7.08L3.23 80.04a.245.245 0 0 0-.083.337Z"/><path stroke="#313235" stroke-width=".495" d="M41 67.585a1.06 1.06 0 0 0-.45.937l.102 1.603c.022.35.316.62.667.612l1.861-.042a.74.74 0 0 0 .402-.13l3.608-2.5a.49.49 0 0 0 .146-.649l-1.4-2.425a.65.65 0 0 0-.942-.209z"/><rect width="10.624" height="1.645" x="42.443" y="58.51" stroke="#333531" stroke-width=".495" rx=".619" transform="rotate(-30 42.443 58.51)"/><path stroke="#313235" stroke-width=".495" d="m47.68 67.581.557-.321 7.722-6.88c-.08-.896-.06-1.579.098-2.263l-.155-.268-.422.243a.516.516 0 1 1-.516-.893l.422-.244-.257-.446a.41.41 0 0 0-.559-.15l-9.151 5.285.646 1.119c-.925.534-1.043 1.068-.553 1.917a.65.65 0 0 1 .424.311l1.4 2.425a.5.5 0 0 1 .061.178zM40.641 68.018c.078-.171.2-.322.36-.433l.804-.565-1.67-2.892a.735.735 0 0 0-1.005-.27l-4.008 2.315-.855 3.082c2.719.435 4.176.1 6.374-1.237z"/><rect width="1.75" height="3.422" x="40.596" y="58.803" fill="#595a5f" stroke="#313235" stroke-width=".495" rx=".248" transform="rotate(-30 40.596 58.803)"/><path stroke="#313235" stroke-width=".991" d="M31.688 47.658a.11.11 0 0 1 .056-.12l1.125-.65a.62.62 0 0 1 .846.227l.412.714c.378-.217.638-.352 1.028-.539a.06.06 0 0 1 .08.025l.637 1.104-1.053.608.605 1.048a.37.37 0 0 1 .144-.147l19.565-11.136c.409-.233.892-.302 1.35-.193l8.527 2.034q.026.007.04.03l.11.19-2.585 1.492-4.49-1.793a6.2 6.2 0 0 0-5.393.388l-14.003 8.085a1.24 1.24 0 0 0-.454 1.692l2.427 4.202-10.557 6.095-.842-1.457-1.214.575a.25.25 0 0 1-.284-.053c-1.068-1.138-1.523-1.94-1.973-3.41a.245.245 0 0 1 .113-.286l1.144-.66-.964-1.67.217-.126-.094-.164-1.024-2.341c-.015-.035-.014-.074.01-.103.144-.169.445-.384.824-.504.097-.03.29.006.356.112l2.608-1.506a.124.124 0 0 1 .17.045l.086.15 2.609-1.506a3 3 0 0 1-.159-.452z"/><path stroke="#313235" stroke-width=".495" d="M90.067 33.504q.024.096.032.198l.16 2.107a.25.25 0 0 1-.122.232 2516 2516 0 0 1-15.182 8.806l-.45.26c-5.98 3.45-11.954 6.899-16.532 9.586-.34.74-.57 1.089-1.145 1.429-.43.071-.625-.074-.875-.463l.713-.412a.507.507 0 0 0-.506-.877l-.934.539.016-1.3z"/><path stroke="#313235" stroke-width=".495" d="m55.727 48.808 7.268-4.197-.432-.749-.433-.75a.163.163 0 0 1 .06-.222l22.596-13.046a1.635 1.635 0 0 1 1.94.227l2.99 2.825c.224.212.361.5.384.807l.16 2.107a.25.25 0 0 1-.121.232c-4.56 2.676-9.705 5.644-15.633 9.065-5.979 3.45-11.954 6.9-16.531 9.587-.341.739-.57 1.089-1.146 1.429-.429.07-.624-.074-.874-.463l.713-.412a.507.507 0 0 0-.507-.877l-.933.538.065-5.361a.87.87 0 0 1 .433-.74zm11.3-6.745a.47.47 0 0 1 .172-.646l1.58-.911a.472.472 0 0 1 .472.818l-1.58.911a.47.47 0 0 1-.644-.172zm3.36-1.94a.47.47 0 0 1 .173-.646l1.58-.912a.472.472 0 0 1 .471.819l-1.579.911a.47.47 0 0 1-.645-.173zm3.36-1.94a.47.47 0 0 1 .174-.646l1.579-.912a.472.472 0 0 1 .472.818l-1.579.912a.47.47 0 0 1-.645-.173zm3.362-1.941a.47.47 0 0 1 .172-.645l1.58-.912a.472.472 0 1 1 .472.818l-1.58.912a.47.47 0 0 1-.644-.173zm3.36-1.94a.47.47 0 0 1 .173-.646l1.58-.911a.472.472 0 0 1 .471.818l-1.579.911a.47.47 0 0 1-.645-.173zm3.36-1.94a.47.47 0 0 1 .174-.646l1.579-.912a.472.472 0 0 1 .472.818l-1.579.912a.47.47 0 0 1-.645-.173z" clip-rule="evenodd"/><path stroke="#313235" stroke-width=".495" d="m66.987 44.075-.778-2.835-.819-.453a.12.12 0 0 0-.122 0l-2.794 1.614a.124.124 0 0 0-.046.17l.825 1.427c.206.359-.056.847-.444 1.07l1.523.54z"/></g><defs><clipPath id="a"><path fill="#fff" d="M0 0h110v110H0z"/></clipPath></defs></svg>