<?xml version="1.0" encoding="UTF-8" standalone="no"?>
<svg
   width="121.42539"
   height="47.570869"
   viewBox="0 0 121.42539 47.570869"
   fill="none"
   version="1.1"
   id="svg182"
   sodipodi:docname="mg5.svg"
   inkscape:version="1.4.2 (1:1.4.2+202505120737+ebf0e940d0)"
   xmlns:inkscape="http://www.inkscape.org/namespaces/inkscape"
   xmlns:sodipodi="http://sodipodi.sourceforge.net/DTD/sodipodi-0.dtd"
   xmlns="http://www.w3.org/2000/svg"
   xmlns:svg="http://www.w3.org/2000/svg">
  <sodipodi:namedview
     id="namedview182"
     pagecolor="#505050"
     bordercolor="#ffffff"
     borderopacity="1"
     inkscape:showpageshadow="0"
     inkscape:pageopacity="0"
     inkscape:pagecheckerboard="1"
     inkscape:deskcolor="#505050"
     inkscape:zoom="7.6431815"
     inkscape:cx="62.146895"
     inkscape:cy="19.952424"
     inkscape:window-width="2560"
     inkscape:window-height="1368"
     inkscape:window-x="0"
     inkscape:window-y="0"
     inkscape:window-maximized="1"
     inkscape:current-layer="svg182" />
  <g
     clip-path="url(#clip0_2088_1898)"
     id="g182"
     transform="rotate(15,166.51811,55.069126)">
    <path
       d="m 80.9471,22.8131 c -0.0376,-0.0687 -0.0134,-0.1548 0.0544,-0.1939 l 0.0367,-0.0212 c 0.0142,-0.0082 0.019,-0.0263 0.0109,-0.0405 -0.2454,-0.425 -0.0968,-0.9701 0.3282,-1.2155 0.4333,-0.2502 0.9905,-0.0985 1.2335,0.3389 l 2.8705,5.1666 -0.3589,0.2072 -0.0523,-0.0905 c -0.0588,-0.1018 -0.1889,-0.1366 -0.2907,-0.0779 l -0.7692,0.4441 c -0.1018,0.0588 -0.232,0.0239 -0.2907,-0.0779 l -0.9369,-1.6227 c -0.0221,-0.0382 -0.0709,-0.0513 -0.1091,-0.0293 -0.0819,0.0473 -0.1867,0.018 -0.2322,-0.0649 z"
       fill="#494541"
       id="path1" />
    <path
       d="M 83.13,22.6926 82.5786,21.7 c -0.2432,-0.4375 -0.8006,-0.5893 -1.2341,-0.3391 -0.4252,0.2455 -0.5739,0.7909 -0.3283,1.2161 0.0056,0.0098 0.0049,0.0215 -7e-4,0.0305 -0.0025,0.004 -0.0059,0.0074 -0.0102,0.0099 l -0.0368,0.0213 c -0.0678,0.0391 -0.0919,0.1253 -0.0544,0.1939 l 0.6412,1.1685 1.4855,-0.8577 -0.1729,-0.2994 z"
       fill="#46423e"
       id="path2" />
    <path
       d="m 25.932,53.7369 0.3638,0.6301 -0.1846,0.2991 -0.3969,-0.8035 z"
       fill="#3c3835"
       id="path3" />
    <path
       d="m 26.6114,54.9853 1.0284,-0.5937 -0.3591,-0.6219 -1.0283,0.5937 c -0.1718,0.0992 -0.2306,0.3188 -0.1315,0.4905 0.0992,0.1718 0.3188,0.2306 0.4905,0.1314 z"
       fill="#413d3a"
       id="path4" />
    <ellipse
       cx="26.4541"
       cy="54.662498"
       rx="0.246666"
       ry="0.246663"
       transform="rotate(-30,26.4541,54.6625)"
       fill="#3c3835"
       id="ellipse4" />
    <path
       d="m 26.2824,54.3445 -0.3511,-0.6082 -0.2177,0.1257 0.3646,0.7381 c -0.0177,0.0837 -0.0057,0.1738 0.0404,0.2537 0.0991,0.1717 0.3187,0.2305 0.4905,0.1314 l 1.0284,-0.5938 -0.3591,-0.6219 z"
       stroke="#363330"
       stroke-width="0.425633"
       id="path5" />
    <path
       d="m 27.2555,53.6508 c 0.0221,-0.0587 0.0639,-0.1079 0.1182,-0.1393 l 2.2739,-1.3128 c 0.1154,-0.0666 0.2628,-0.0271 0.3294,0.0883 l 1.4189,2.4575 -4.4756,2.584 -0.6359,-1.1014 z"
       fill="#494541"
       id="path6" />
    <path
       d="m 59.832,46.9873 21.6455,-12.497 1.599,2.7696 -21.6455,12.4969 z"
       fill="#7d602b"
       id="path7" />
    <rect
       x="71.890602"
       y="40.608398"
       width="9.4855404"
       height="2.19206"
       transform="rotate(-30,71.8906,40.6084)"
       fill="#46423e"
       id="rect7" />
    <rect
       x="72.398399"
       y="40.315399"
       width="0.52781898"
       height="2.19294"
       transform="rotate(-30,72.3984,40.3154)"
       fill="#413d3a"
       id="rect8" />
    <rect
       x="73.361298"
       y="39.7598"
       width="0.52781898"
       height="2.19294"
       transform="rotate(-30,73.3613,39.7598)"
       fill="#413d3a"
       id="rect9" />
    <rect
       x="74.326202"
       y="39.203098"
       width="0.52781898"
       height="2.19294"
       transform="rotate(-30,74.3262,39.2031)"
       fill="#413d3a"
       id="rect10" />
    <rect
       x="75.287102"
       y="38.647499"
       width="0.52781898"
       height="2.19294"
       transform="rotate(-30,75.2871,38.6475)"
       fill="#413d3a"
       id="rect11" />
    <rect
       x="76.25"
       y="38.090801"
       width="0.52781898"
       height="2.19294"
       transform="rotate(-30,76.25,38.0908)"
       fill="#413d3a"
       id="rect12" />
    <rect
       x="77.214798"
       y="37.534199"
       width="0.52781898"
       height="2.19294"
       transform="rotate(-30,77.2148,37.5342)"
       fill="#413d3a"
       id="rect13" />
    <rect
       x="78.177696"
       y="36.9785"
       width="0.52781898"
       height="2.19294"
       transform="rotate(-30,78.1777,36.9785)"
       fill="#413d3a"
       id="rect14" />
    <rect
       x="79.142601"
       y="36.421902"
       width="0.52781898"
       height="2.19294"
       transform="rotate(-30,79.1426,36.4219)"
       fill="#413d3a"
       id="rect15" />
    <ellipse
       cx="73.1735"
       cy="41.133301"
       rx="0.401555"
       ry="0.40155101"
       transform="rotate(-30,73.1735,41.1333)"
       fill="#3b3835"
       id="ellipse15" />
    <ellipse
       cx="77.028999"
       cy="38.9077"
       rx="0.401555"
       ry="0.40155101"
       transform="rotate(-30,77.029,38.9077)"
       fill="#3b3835"
       id="ellipse16" />
    <rect
       x="71.890602"
       y="40.608398"
       width="9.4855404"
       height="2.19206"
       transform="rotate(-30,71.8906,40.6084)"
       stroke="#363330"
       stroke-width="0.425633"
       id="rect16" />
    <path
       d="m 74.854,42.0097 -1.6763,0.9678 0.3124,0.541 5.3993,-3.1173 -0.3123,-0.541 -0.7072,0.4083 0.0665,0.1152 c 0.0294,0.0509 0.0119,0.116 -0.039,0.1454 l -2.8315,1.6348 c -0.0509,0.0294 -0.116,0.0119 -0.1454,-0.039 z"
       fill="#413d3a"
       stroke="#363330"
       stroke-width="0.425633"
       id="path16" />
    <rect
       x="74.459"
       y="42.958"
       width="0.64021301"
       height="0.47944"
       transform="rotate(-30,74.459,42.958)"
       fill="#46423e"
       stroke="#363330"
       stroke-width="0.425633"
       id="rect17" />
    <rect
       x="75.427696"
       y="42.398399"
       width="0.64021301"
       height="0.47944"
       transform="rotate(-30,75.4277,42.3984)"
       fill="#46423e"
       stroke="#363330"
       stroke-width="0.425633"
       id="rect18" />
    <rect
       x="76.3965"
       y="41.838902"
       width="0.64021301"
       height="0.47944"
       transform="rotate(-30,76.3965,41.8389)"
       fill="#46423e"
       stroke="#363330"
       stroke-width="0.425633"
       id="rect19" />
    <rect
       x="77.365196"
       y="41.2803"
       width="0.64021301"
       height="0.47944"
       transform="rotate(-30,77.3652,41.2803)"
       fill="#46423e"
       stroke="#363330"
       stroke-width="0.425633"
       id="rect20" />
    <rect
       x="78.334"
       y="40.720699"
       width="0.64021301"
       height="0.47944"
       transform="rotate(-30,78.334,40.7207)"
       fill="#46423e"
       stroke="#363330"
       stroke-width="0.425633"
       id="rect21" />
    <rect
       x="74.289101"
       y="43.683601"
       width="5.0707898"
       height="1.49698"
       transform="rotate(-30,74.2891,43.6836)"
       fill="#4f4b46"
       id="rect22" />
    <path
       d="m 75.8172,44.5285 2.8276,-1.6326 0.3846,0.5066 -2.9658,1.7123 z"
       fill="#46423e"
       stroke="#363330"
       stroke-width="0.851266"
       id="path22" />
    <path
       d="m 78.8943,43.4804 -2.6937,1.5552 c 0.8781,1.9729 1.3841,3.0003 2.4129,4.9039 0.0165,0.0306 0.0457,0.053 0.0796,0.0605 l 0.2502,0.0555 2.927,-1.6899 0.0771,-0.2444 c 0.0104,-0.0332 0.0056,-0.0697 -0.0126,-0.0993 -1.1342,-1.8427 -1.771,-2.7946 -3.0405,-4.5415 z"
       fill="#413d39"
       stroke="#363330"
       stroke-width="0.851266"
       id="path23" />
    <ellipse
       cx="76.8759"
       cy="43.092499"
       rx="0.43674299"
       ry="0.436739"
       transform="rotate(-30,76.8759,43.0925)"
       fill="#46423e"
       id="ellipse23" />
    <path
       d="m 83.6787,51.4965 0.3096,0.1795 0.6654,1.1524 0.0022,0.1635 -3.0973,1.7883 -0.1405,-0.0837 -0.6654,-1.1525 -5e-4,-0.3578 z"
       fill="#413d39"
       stroke="#363330"
       stroke-width="0.851266"
       id="path24" />
    <path
       d="m 81.5918,54.7588 3.0282,-1.7483 0.3851,0.667 -3.0282,1.7483 z"
       fill="#3c3834"
       stroke="#363330"
       stroke-width="0.851266"
       id="path25" />
    <path
       d="m 83.0195,56.7402 2.6056,-1.5043 0.7164,1.2409 c 0.0493,0.0853 0.0289,0.1935 -0.0494,0.2534 -0.2156,0.1647 -0.659,0.4916 -1.1079,0.7507 -0.4489,0.2592 -0.9537,0.4797 -1.2041,0.5841 -0.0909,0.0379 -0.1949,0.0014 -0.2442,-0.0839 z"
       fill="#393632"
       stroke="#363330"
       stroke-width="0.851266"
       id="path26" />
    <path
       d="m 85.8726,55.092 0.006,-0.3684 -0.5728,-0.9921 -0.1721,-0.1287 -3.2883,1.8985 0.0254,0.2134 0.5728,0.9921 0.322,0.179 z"
       fill="#413d39"
       stroke="#363330"
       stroke-width="0.851266"
       id="path27" />
    <path
       d="m 79.0788,49.9931 c -0.0593,0.0707 -0.0712,0.1738 -0.0225,0.2582 0.0487,0.0844 0.1441,0.1256 0.2349,0.1097 l 0.0135,0.0233 c -0.0592,0.0707 -0.0713,0.1737 -0.0225,0.2583 0.0489,0.0846 0.1441,0.1256 0.2349,0.1096 l 0.0135,0.0234 c -0.0312,0.0372 -0.0493,0.0834 -0.0523,0.1312 -0.0027,0.0429 0.0068,0.0871 0.0298,0.1271 0.0489,0.0846 0.1441,0.1256 0.2349,0.1096 l 0.0135,0.0234 c -0.0592,0.0707 -0.0713,0.1737 -0.0225,0.2583 0.0488,0.0844 0.1441,0.1256 0.2349,0.1096 l 0.0135,0.0234 c -0.0592,0.0707 -0.0713,0.1737 -0.0225,0.2582 0.0488,0.0845 0.1441,0.1257 0.2349,0.1097 l 0.0135,0.0234 c -0.0592,0.0707 -0.0713,0.1736 -0.0224,0.2582 0.0296,0.0513 0.0762,0.0866 0.1287,0.1028 0.0339,0.0107 0.0703,0.0132 0.1061,0.0069 l 0.0137,0.0236 c -0.0594,0.0705 -0.0714,0.1736 -0.0226,0.258 0.0488,0.0846 0.144,0.1256 0.2349,0.1097 l 0.0135,0.0234 c -0.0111,0.0131 -0.0205,0.0274 -0.0281,0.0423 -0.0123,0.0241 -0.0201,0.0503 -0.0232,0.077 -0.0054,0.0466 0.0035,0.0952 0.0288,0.1389 0.0487,0.0844 0.144,0.1256 0.2349,0.1096 l 0.0067,0.0117 2.6692,-1.541 -0.0067,-0.0117 c 0.0592,-0.0707 0.0713,-0.1737 0.0224,-0.2583 -0.0488,-0.0845 -0.144,-0.1256 -0.2348,-0.1096 l -0.0136,-0.0234 c 0.0593,-0.0707 0.0714,-0.1736 0.0225,-0.2582 -0.0403,-0.0699 -0.1124,-0.11 -0.1876,-0.1128 -0.0156,-5e-4 -0.0315,5e-4 -0.0472,0.0033 l -0.0136,-0.0236 c 0.0593,-0.0707 0.0714,-0.1736 0.0225,-0.2582 -0.0488,-0.0846 -0.144,-0.1256 -0.2349,-0.1097 L 82.864,50.385 c 0.0593,-0.0707 0.0714,-0.1736 0.0225,-0.2582 -0.0249,-0.0432 -0.0618,-0.0749 -0.1042,-0.0937 -0.0407,-0.018 -0.0863,-0.0238 -0.1307,-0.016 l -0.0135,-0.0234 c 0.0593,-0.0706 0.0713,-0.1736 0.0225,-0.2582 -0.0183,-0.0317 -0.043,-0.0572 -0.0716,-0.076 -0.0479,-0.0314 -0.1064,-0.0437 -0.1633,-0.0336 l -0.0135,-0.0234 c 0.0593,-0.0707 0.0713,-0.1737 0.0225,-0.2583 -0.0487,-0.0844 -0.144,-0.1256 -0.2349,-0.1096 l -0.0135,-0.0234 c 0.0593,-0.0707 0.0713,-0.1737 0.0225,-0.2583 -0.0488,-0.0846 -0.144,-0.1256 -0.2349,-0.1096 l -0.0135,-0.0234 c 0.0593,-0.0707 0.0712,-0.1738 0.0225,-0.2582 C 81.9341,48.4772 81.8388,48.436 81.748,48.452 l -0.0068,-0.0117 -2.6692,1.5411 z"
       fill="#393632"
       stroke="#363330"
       stroke-width="0.851266"
       id="path28" />
    <rect
       x="74.289101"
       y="43.683601"
       width="5.0707898"
       height="1.49698"
       transform="rotate(-30,74.2891,43.6836)"
       stroke="#363330"
       stroke-width="0.851266"
       id="rect28" />
    <path
       d="m 83.7999,28.5656 -0.339,-0.5871 2.2263,-1.2853 0.614,0.4283 z"
       fill="#3e3b37"
       id="path29" />
    <path
       d="m 83.0097,26.0181 -0.1873,0.4592 c -0.1022,0.2516 0.1364,0.5079 0.3947,0.4238 l 0.015,-0.0049 c 0.0478,-0.0155 0.1,0.0045 0.1251,0.048 l 0.1604,0.2778 -0.0571,0.7584 1.6495,-0.9532 -0.0364,-0.063 c -0.0588,-0.1019 -0.189,-0.1367 -0.2908,-0.078 l -0.7695,0.4443 c -0.1019,0.0588 -0.2321,0.0239 -0.2909,-0.0779 z"
       fill="#44403c"
       id="path30" />
    <path
       d="m 81.3364,22.4005 1.3639,-0.6889 c 0.1713,-0.0866 0.3804,-0.0178 0.467,0.1535 0.0865,0.1714 0.0178,0.3805 -0.1536,0.4671 l -1.3639,0.6889 z"
       fill="#44403c"
       id="path31" />
    <path
       d="m 82.8861,24.9657 c -0.1086,-0.1882 -0.0441,-0.4288 0.144,-0.5374 0.1882,-0.1086 0.4288,-0.0442 0.5374,0.144 l 0.2863,0.4959 c 0.1086,0.1881 0.0441,0.4287 -0.144,0.5373 -0.1882,0.1086 -0.4287,0.0442 -0.5374,-0.144 z"
       fill="#3e3b37"
       id="path32" />
    <ellipse
       cx="82.942802"
       cy="23.4683"
       rx="0.185459"
       ry="0.18545701"
       transform="rotate(-30,82.9428,23.4683)"
       fill="#44403c"
       id="ellipse32" />
    <ellipse
       cx="84.191803"
       cy="26.591801"
       rx="0.29627499"
       ry="0.29627201"
       transform="rotate(-30,84.1918,26.5918)"
       fill="#59544f"
       id="ellipse33" />
    <ellipse
       cx="82.146698"
       cy="23.791401"
       rx="0.51341701"
       ry="0.513412"
       transform="rotate(-30,82.1467,23.7914)"
       fill="#44403c"
       id="ellipse34" />
    <ellipse
       cx="0.185459"
       cy="0.18545701"
       rx="0.185459"
       ry="0.18545701"
       transform="rotate(-26.799506,87.844929,-160.33743)"
       fill="#3e3b37"
       id="ellipse35" />
    <ellipse
       cx="82.145897"
       cy="23.7915"
       rx="0.185459"
       ry="0.18545701"
       transform="rotate(-30,82.1459,23.7915)"
       fill="#3e3b37"
       id="ellipse36" />
    <ellipse
       cx="83.512001"
       cy="25.2651"
       rx="0.393372"
       ry="0.39336801"
       transform="rotate(-30,83.512,25.2651)"
       fill="#4e4b46"
       id="ellipse37" />
    <path
       d="m 81.0048,22.6191 c -0.0679,0.0391 -0.092,0.1253 -0.0545,0.1938 l 1.4943,2.7226 c 0.0186,0.0339 0.0472,0.0589 0.08,0.0733 0.0474,0.0207 0.1038,0.0195 0.1522,-0.0084 0.0382,-0.0221 0.087,-0.009 0.109,0.0292 l 0.2242,0.3884 -0.1872,0.459 c -0.1021,0.2516 0.1364,0.5077 0.3946,0.4237 l 0.015,-0.0048 c 0.0478,-0.0156 0.1,0.0044 0.125,0.0478 l 0.1603,0.2777 -0.0571,0.7582 0.339,0.5871 2.5013,-1.4441 -0.614,-0.4284 -0.2176,0.1257 -2.485,-4.4728 0.0308,-0.0157 c 0.1713,-0.0864 0.24,-0.2955 0.1535,-0.4668 -0.0865,-0.1713 -0.2955,-0.24 -0.4669,-0.1535 l -0.0553,0.0278 -0.0323,-0.0581 c -0.243,-0.4374 -0.8003,-0.5891 -1.2336,-0.3389 -0.425,0.2453 -0.5735,0.7904 -0.3281,1.2156 l 0.0026,0.0059 c 0.0024,0.0077 0.0015,0.0157 -0.0021,0.0226 -0.0025,0.0048 -0.0064,0.0089 -0.0114,0.0118 z"
       stroke="#363330"
       stroke-width="0.851266"
       id="path37" />
    <path
       d="m 56.4208,45.7212 -3.9326,1.0887 -0.7041,-1.2196 0.3838,-0.2216 -0.1435,-0.2485 0.7021,-0.4053 0.0055,0.0098 c 0.1717,0.2974 0.552,0.3993 0.8495,0.2276 0.2974,-0.1717 0.3993,-0.552 0.2276,-0.8494 l -0.0058,-0.0097 0.5419,-0.3129 0.7604,1.1102 c 0.309,0.4666 0.7941,0.7559 1.3152,0.8307 z"
       fill="#795d2a"
       id="path38" />
    <path
       d="m 45.2805,62.961 -0.796,0.4475 c -0.0409,0.023 -0.0744,0.0578 -0.0959,0.0995 -0.598,1.1574 -0.8867,1.8903 -1.1366,2.8584 0.5905,-0.4312 0.9664,-0.3404 1.6416,0.0465 0.7791,0.4465 1.3541,0.311 1.782,-0.357 0.0208,-0.0324 0.0045,-0.0755 -0.0318,-0.0884 -1.3694,-0.4848 -2.0927,-1.6801 -1.3633,-3.0065 z"
       fill="#3c3835"
       id="path39" />
    <path
       d="m 46.4488,66.3454 c 0.0799,-0.0816 0.1554,-0.1782 0.2268,-0.2896 0.0208,-0.0325 0.0045,-0.0756 -0.0319,-0.0884 -1.3694,-0.4848 -2.0927,-1.6802 -1.3632,-3.0065 l -0.796,0.4474 c -0.0312,0.0175 -0.058,0.0419 -0.0786,0.0709 0.2747,1.4197 0.7791,2.1798 2.0429,2.8662 z"
       fill="#494541"
       id="path40" />
    <path
       d="m 45.2805,62.961 -0.796,0.4475 c -0.0409,0.023 -0.0744,0.0578 -0.0959,0.0995 -0.598,1.1574 -0.8867,1.8903 -1.1366,2.8584 0.5905,-0.4312 0.9664,-0.3404 1.6416,0.0465 0.7791,0.4465 1.3541,0.311 1.782,-0.357 0.0208,-0.0324 0.0045,-0.0755 -0.0318,-0.0884 -1.3694,-0.4848 -2.0927,-1.6801 -1.3633,-3.0065 z"
       stroke="#363330"
       stroke-width="0.425633"
       id="path41" />
    <path
       d="m 49.9129,48.4572 c 1.1072,-0.6393 1.6877,-1.3216 1.6296,-1.4222 -0.0581,-0.1005 -0.9391,0.0611 -2.0464,0.7004 z"
       fill="#e3b50e"
       stroke="#604c06"
       stroke-width="0.425633"
       id="path42" />
    <path
       d="m 85.9994,30.6383 1.065,-0.6149 0.6736,1.1666 0.7073,-0.4084 0.201,0.3481 0.7929,-0.4578 c 0.101,-0.0582 0.23,-0.0236 0.2883,0.0773 l 0.7139,1.2365 c 0.0583,0.1009 0.0237,0.23 -0.0772,0.2883 l -0.793,0.4578 0.201,0.3481 -2.7151,1.5676 -1.3269,-2.2983 0.9427,-0.5443 z"
       fill="#3c3934"
       stroke="#363330"
       stroke-width="0.851266"
       id="path43" />
    <path
       d="m 59.2652,42.5326 0.3214,-0.1856 0.3087,0.5347 41.1167,-23.7385 0.702,-0.0438 0.35,-0.2019 0.91,1.577 -0.349,0.2018 -0.39,0.5865 -42.0388,24.2713 -1.8075,-3.1308 0.6014,-0.3472 z"
       fill="#3e3b37"
       stroke="#363330"
       stroke-width="0.851266"
       id="path44" />
    <path
       d="m 28.2311,59.8465 16.3753,-9.4542 0.5116,0.8861 c 0.0832,0.1441 0.2676,0.1935 0.4117,0.1103 l 5.3282,-3.0762 0.3863,0.669 -26.5719,15.3413 -1.7582,-3.0455 0.2865,-0.1654 c 1.9211,0.3665 3.7308,-0.5149 5.0305,-1.2654 z"
       fill="#906f31"
       id="path45" />
    <rect
       x="84.025398"
       y="28.689501"
       width="2.6999199"
       height="2.9002299"
       transform="rotate(-30,84.0254,28.6895)"
       fill="#44403c"
       stroke="#363330"
       stroke-width="0.425633"
       id="rect45" />
    <path
       d="m 45.0215,50.0645 3.3084,-1.8836 0.4304,-0.0762 0.7099,-0.4098 0.4643,0.8042 -0.7099,0.4098 -0.2811,0.3347 -3.2855,1.9233 -0.1131,0.0343 -0.6096,-1.0559 z"
       fill="#b57921"
       stroke="#563a10"
       stroke-width="0.425633"
       stroke-miterlimit="3.99393"
       id="path46" />
    <path
       d="m 44.7891,50.1943 -0.0843,0.0487 -0.0179,0.0666 0.5908,1.0232 0.0666,0.0178 0.0842,-0.0486 z"
       fill="#b57921"
       id="path47" />
    <path
       d="m 44.7048,50.243 -0.1064,-0.1843 -0.0764,0.0441 -0.0228,0.0851 z m 0.0843,-0.0487 0.1843,-0.1064 -0.1064,-0.1843 -0.1843,0.1064 z m -0.1022,0.1153 -0.2055,-0.0551 -0.0228,0.0852 0.044,0.0763 z m 0.5908,1.0232 -0.1843,0.1064 0.044,0.0763 0.0852,0.0228 z m 0.0666,0.0178 -0.0551,0.2056 0.0851,0.0228 0.0764,-0.0441 z m 0.0842,-0.0486 0.1065,0.1843 0.1843,-0.1064 -0.1064,-0.1843 z m -0.6173,-0.8747 0.0843,-0.0487 -0.2128,-0.3686 -0.0843,0.0487 z m 0.6508,0.7991 -0.5908,-1.0232 -0.3686,0.2128 0.5908,1.0232 z m -0.1399,-0.1087 -0.0842,0.0486 0.2128,0.3686 0.0843,-0.0486 z m -0.7173,-0.817 0.6394,1.1077 0.3687,-0.2128 -0.6395,-1.1077 z m 0.2877,0.064 0.0179,-0.0666 -0.4112,-0.1102 -0.0178,0.0666 z m 0.5069,0.7803 -0.0666,-0.0178 -0.1102,0.4111 0.0666,0.0179 z"
       fill="#563a10"
       id="path48" />
    <rect
       x="44.837898"
       y="50.2686"
       width="0.148684"
       height="1.1057"
       transform="rotate(-30,44.8379,50.2686)"
       fill="#97651c"
       stroke="#563a10"
       stroke-width="0.425633"
       stroke-miterlimit="3.99393"
       id="rect48" />
    <path
       d="m 59.832,46.9873 21.6455,-12.497 1.599,2.7696 -21.6455,12.4969 z"
       stroke="#4c3a1a"
       stroke-width="0.851266"
       id="path49" />
    <path
       d="m 85.605,32.1343 -1.5991,0.9233 1.588,2.7505 1.9464,-1.1238 -0.1369,-0.2371 -0.3473,0.2005 z"
       fill="#413e39"
       stroke="#363330"
       stroke-width="0.851266"
       id="path50" />
    <rect
       x="56.773399"
       y="40.932598"
       width="1.4276299"
       height="0.89903599"
       transform="rotate(-30,56.7734,40.9326)"
       fill="#463e30"
       stroke="#3d3629"
       stroke-width="0.425633"
       id="rect50" />
    <rect
       x="57.984402"
       y="39.568401"
       width="0.41908801"
       height="4.7124801"
       transform="rotate(-30,57.9844,39.5684)"
       fill="#44403c"
       id="rect51" />
    <rect
       x="59.423801"
       y="38.7383"
       width="0.41908801"
       height="4.7124801"
       transform="rotate(-30,59.4238,38.7383)"
       fill="#44403c"
       id="rect52" />
    <rect
       x="58.546902"
       y="39.703098"
       width="1.24228"
       height="4.3132401"
       transform="rotate(-30,58.5469,39.7031)"
       fill="#3c3835"
       id="rect53" />
    <path
       d="m 57.9844,39.5684 0.3629,-0.2096 0.1997,0.3458 1.0758,-0.6211 -0.1997,-0.3458 0.363,-0.2095 2.3562,4.0811 -1.8017,1.0402 z"
       stroke="#363330"
       stroke-width="0.425633"
       id="path53" />
    <path
       d="m 46.8281,58.8926 13.1369,-7.5846 0.6674,1.156 0.0211,1.5291 -12.5455,7.1163 z"
       fill="#3f3b37"
       stroke="#363330"
       stroke-width="0.851266"
       id="path54" />
    <path
       d="M 7.25501,84.985 0.0736499,75.1815 C 1.31355,74.1208 2.07968,73.5786 3.59429,72.7046 7.79535,72.3738 10.3625,71.6589 13.9004,69.6163 c 2.3413,-1.3517 4.012,-2.8072 4.7699,-4.4815 0.4456,-0.9843 0.8517,-1.9563 1.3569,-2.248 l 0.8737,-0.5045 4.9658,8.6011 c -4.2325,2.3987 -6.6606,3.5884 -10.9058,5.5945 -0.7468,1.1104 -0.8839,2.3904 -0.0174,3.7018 l -0.1985,0.3834 c -2.4402,1.8882 -3.8956,2.8616 -6.56693,4.5243 l -0.55468,-0.415 z"
       fill="#8d7b55"
       id="path55" />
    <path
       d="M 0.0760207,75.1821 7.25738,84.9857 7.62576,84.773 8.18044,85.188 C 8.80319,84.8004 9.35986,84.4503 9.87833,84.1173 L 9.17133,83.3272 3.01388,75.0044 C 2.85628,74.4749 2.67289,74.2203 2.28601,73.7927 L 2.38943,73.6589 2.28256,73.5026 c -0.76589,0.4973 -1.381274,0.9736 -2.2065393,1.6795 z"
       fill="#453d31"
       stroke="#3f3727"
       stroke-width="0.851266"
       id="path56" />
    <rect
       width="0.68568301"
       height="5.9315"
       rx="0.342841"
       transform="matrix(0.807776,-0.589489,0.589491,0.807775,8.70898,75.8984)"
       fill="#7e6e4c"
       stroke="#3f3727"
       stroke-width="0.425633"
       id="rect56"
       x="0"
       y="0" />
    <rect
       width="0.68568301"
       height="6.1185799"
       rx="0.342841"
       transform="matrix(0.807776,-0.589489,0.589491,0.807775,6.97461,76.6855)"
       fill="#7e6e4c"
       stroke="#3f3727"
       stroke-width="0.425633"
       id="rect57"
       x="0"
       y="0" />
    <rect
       width="0.68568301"
       height="6.3440399"
       rx="0.342841"
       transform="matrix(0.807776,-0.589489,0.589491,0.807775,5.17969,77.3643)"
       fill="#7e6e4c"
       stroke="#3f3727"
       stroke-width="0.425633"
       id="rect58"
       x="0"
       y="0" />
    <path
       d="m 20.148,64.8166 -0.7288,-1.2248 c 0.0903,-0.1928 0.3955,-0.5815 0.6109,-0.7059 l 1.0801,-0.6235 4.9933,8.7175 -1.7357,0.9548 c -0.1343,0.0739 -0.3032,0.0254 -0.3777,-0.1087 l -0.7612,-1.3691 c -0.1293,-0.2326 -0.0482,-0.526 0.1823,-0.659 l 0.2299,-0.1328 0.1207,0.2091 0.7481,-0.4319 -3.1277,-5.5723 -0.7398,0.4271 0.1014,0.1756 z"
       fill="#7b6c4d"
       stroke="#3f3727"
       stroke-width="0.425633"
       id="path58" />
    <path
       d="M 61.7386,50.285 26.0506,70.8894 21.11,62.2638 c 0,0 -0.307,-0.5319 0.2137,-0.8324 0.5206,-0.3006 0.8527,0.2733 0.8527,0.2733 l 0.7399,-0.4272 c 0.8783,0.8981 1.9177,1.0275 3.264,0.4874 5.5588,-2.2299 8.7297,-3.7129 14.3343,-6.5873 l 9.9738,-5.7584 c 0.1875,-0.1082 0.2517,-0.3478 0.1435,-0.5352 l -0.2505,-0.4338 2.2871,-1.3205 6.2057,-1.8059 z"
       fill="#9b7735"
       id="path59" />
    <ellipse
       cx="21.7941"
       cy="62.2551"
       rx="0.51552898"
       ry="0.51552302"
       transform="rotate(-30,21.7941,62.2551)"
       fill="#645944"
       stroke="#3d3629"
       stroke-width="0.425633"
       id="ellipse59" />
    <ellipse
       cx="23.293501"
       cy="63.545399"
       rx="0.60950297"
       ry="0.609496"
       transform="rotate(-30,23.2935,63.5454)"
       fill="#463e30"
       stroke="#3d3629"
       stroke-width="0.425633"
       id="ellipse60" />
    <path
       fill-rule="evenodd"
       clip-rule="evenodd"
       d="m 34.7794,69.2578 1.1352,-0.6554 c 0.6522,-0.3766 2.1818,-0.0491 2.4599,1.2129 0.0216,0.0979 0.023,0.1991 0.0164,0.2991 l -0.5512,8.3773 c -0.0021,0.0321 0.013,0.0629 0.0397,0.0809 l 0.4738,0.3192 c 0.0218,0.0148 0.0491,0.0192 0.0745,0.0122 l 6.0815,-1.6795 c 0.0522,-0.0144 0.0952,-0.0515 0.1172,-0.101 l 0.2428,-0.5481 c 0.0811,-0.1829 -0.0353,-0.3926 -0.2335,-0.4205 l -0.3688,-0.052 C 44.1254,76.083 44.0173,75.9664 44.0082,75.8238 L 43.56,68.8473 c -0.0174,-0.2722 0.1414,-0.525 0.3942,-0.6273 l 1.6568,-0.6706 3.0305,-1.7202 c 0.9071,-0.5149 1.2291,-1.6651 0.721,-2.5761 l -1.4903,-2.6727 c -0.1039,-0.1798 -0.0823,-0.5457 0.17,-0.7324 0.0267,-0.0198 0.0369,-0.0564 0.0202,-0.0852 l -0.6863,-1.1888 -14.7785,8.5323 1.0702,1.8536 c 0.2247,0.3892 0.7224,0.5226 1.1116,0.2979 z m 9.7024,-5.8499 2.6007,-1.4619 c 0.306,-0.1766 0.8863,-0.0519 1.096,0.3114 l 0.7408,1.3819 c 0.2458,0.5028 -0.0478,1.3356 -0.4827,1.6349 -0.5716,0.3933 -0.8903,0.5851 -1.4783,0.9313 l -0.8948,0.5166 c -0.2231,0.1288 -0.9888,0.5419 -1.6132,0.854 -0.571,0.2855 -1.415,-0.3198 -1.2908,-0.8459 0.274,-1.1608 0.5558,-1.9248 1.2263,-3.2228 0.0215,-0.0416 0.0551,-0.0765 0.096,-0.0995 z"
       fill="#917a4f"
       id="path60" />
    <ellipse
       cx="42.968102"
       cy="62.7864"
       rx="0.29692701"
       ry="0.296924"
       transform="rotate(-30,42.9681,62.7864)"
       fill="#463e30"
       stroke="#363330"
       stroke-width="0.425633"
       id="ellipse61" />
    <path
       d="m 43.5746,68.6676 -0.1123,-1.271 c -0.2203,-0.1801 -0.358,-0.431 -0.3025,-0.666 0.0802,-0.3398 0.1611,-0.6456 0.2522,-0.9408 -1.034,-0.1282 -1.6121,-0.1204 -2.6365,0.0365 l -4.4464,2.6443 c 0.7376,-0.1002 1.8166,0.3052 2.0457,1.3451 0.0216,0.0979 0.023,0.1991 0.0164,0.2991 L 37.84,78.4921 c -0.0021,0.0321 0.013,0.063 0.0397,0.0809 l 0.4738,0.3192 c 0.0219,0.0148 0.0491,0.0192 0.0745,0.0122 l 6.0815,-1.6795 c 0.0522,-0.0144 0.0952,-0.0515 0.1172,-0.101 l 0.2428,-0.5481 c 0.0811,-0.1829 -0.0353,-0.3926 -0.2335,-0.4205 l -0.3688,-0.052 c -0.1415,-0.0199 -0.2496,-0.1365 -0.2587,-0.2791 l -0.4482,-6.9765 c -0.0039,-0.0615 0.0012,-0.1221 0.0143,-0.1801 z"
       fill="#857451"
       id="path61" />
    <path
       d="m 48.0673,61.0912 -0.8885,0.513 c -0.4901,0.283 -1.1169,0.1151 -1.3998,-0.3751 l -0.631,-1.0929 c -0.0481,-0.0833 -0.052,-0.1803 -0.0185,-0.2634 l 2.2485,-1.2982 0.6864,1.1888 c 0.0166,0.0288 0.0065,0.0655 -0.0203,0.0853 -0.2523,0.1866 -0.2738,0.5525 -0.17,0.7323 l 0.2474,0.4437 c -0.0089,0.0271 -0.0275,0.0511 -0.0542,0.0665 z"
       fill="#9d8759"
       id="path62" />
    <ellipse
       cx="46.7341"
       cy="60.598202"
       rx="0.56457299"
       ry="0.56456798"
       transform="rotate(-30,46.7341,60.5982)"
       fill="#645844"
       stroke="#363330"
       stroke-width="0.425633"
       id="ellipse62" />
    <path
       d="m 39.4554,64.3346 2.454,-1.4169 -0.0301,-0.0522 -2.5063,1.447 0.2324,0.4024 2.5062,-1.447 -0.0301,-0.0522 -2.4541,1.4168 z"
       fill="#c5413a"
       id="path63" />
    <path
       fill-rule="evenodd"
       clip-rule="evenodd"
       d="m 39.5471,64.3781 0.3554,-0.2051 c 0.0265,-0.0154 0.0706,-0.0288 0.108,-0.0362 0.019,-0.0038 0.038,-0.0063 0.0538,-0.0064 0.0077,-10e-5 0.0162,4e-4 0.0239,0.0023 0.0064,0.0015 0.0199,0.0058 0.0276,0.0192 0.0078,0.0134 0.0047,0.0273 0.0029,0.0335 -0.0022,0.0077 -0.006,0.0152 -0.01,0.0219 -0.008,0.0136 -0.0197,0.0288 -0.0324,0.0434 -0.0251,0.0287 -0.0589,0.0601 -0.0854,0.0755 l -0.3553,0.2051 z m 0.0824,0.0221 0.0281,0.0488 0.3032,-0.175 c 0.0181,-0.0105 0.0467,-0.0362 0.0701,-0.063 0.0058,-0.0067 0.0111,-0.0131 0.0155,-0.019 -0.0073,9e-4 -0.0155,0.0022 -0.0242,0.0039 -0.0349,0.0069 -0.0715,0.0188 -0.0896,0.0293 z"
       fill="#c5413a"
       id="path64" />
    <path
       fill-rule="evenodd"
       clip-rule="evenodd"
       d="m 40.1787,64.0135 0.0885,0.1532 0.3553,-0.2052 c 0.0266,-0.0153 0.0603,-0.0468 0.0854,-0.0755 0.0127,-0.0145 0.0244,-0.0298 0.0324,-0.0433 0.004,-0.0067 0.0078,-0.0142 0.01,-0.0219 0.0018,-0.0063 0.0049,-0.0201 -0.0028,-0.0336 -0.0078,-0.0134 -0.0213,-0.0176 -0.0277,-0.0192 -0.0077,-0.0019 -0.0161,-0.0024 -0.0239,-0.0023 -0.0158,10e-5 -0.0348,0.0027 -0.0538,0.0064 -0.0374,0.0074 -0.0815,0.0209 -0.108,0.0362 z m 0.4137,-0.1042 -0.3032,0.175 -0.0281,-0.0488 0.3031,-0.175 c 0.0181,-0.0104 0.0547,-0.0223 0.0896,-0.0292 0.0087,-0.0017 0.0169,-0.0031 0.0242,-0.004 -0.0044,0.0059 -0.0097,0.0123 -0.0155,0.019 -0.0234,0.0268 -0.052,0.0525 -0.0701,0.063 z"
       fill="#c5413a"
       id="path65" />
    <path
       fill-rule="evenodd"
       clip-rule="evenodd"
       d="m 40.8103,63.6488 0.3554,-0.2051 c 0.0265,-0.0154 0.0707,-0.0288 0.108,-0.0362 0.019,-0.0038 0.0381,-0.0063 0.0538,-0.0065 0.0078,0 0.0162,5e-4 0.0239,0.0023 0.0064,0.0016 0.0199,0.0059 0.0277,0.0193 0.0077,0.0134 0.0047,0.0273 0.0028,0.0335 -0.0022,0.0077 -0.006,0.0152 -0.01,0.0219 -0.008,0.0136 -0.0197,0.0288 -0.0324,0.0434 -0.0251,0.0286 -0.0588,0.0601 -0.0854,0.0755 l -0.3553,0.2051 z m 0.1106,0.0709 0.3031,-0.175 c 0.0181,-0.0105 0.0467,-0.0363 0.0701,-0.063 0.0059,-0.0067 0.0111,-0.0131 0.0155,-0.019 -0.0073,9e-4 -0.0155,0.0022 -0.0242,0.0039 -0.0349,0.0069 -0.0715,0.0188 -0.0896,0.0293 l -0.3031,0.175 z"
       fill="#c5413a"
       id="path66" />
    <path
       fill-rule="evenodd"
       clip-rule="evenodd"
       d="m 41.442,63.2841 0.0884,0.1532 0.3553,-0.2051 c 0.0266,-0.0153 0.0603,-0.0468 0.0854,-0.0755 0.0127,-0.0146 0.0244,-0.0298 0.0325,-0.0434 0.0039,-0.0066 0.0077,-0.0142 0.0099,-0.0218 0.0019,-0.0063 0.0049,-0.0201 -0.0028,-0.0336 -0.0078,-0.0134 -0.0213,-0.0177 -0.0276,-0.0192 -0.0078,-0.0019 -0.0162,-0.0024 -0.024,-0.0023 -0.0157,10e-5 -0.0348,0.0027 -0.0538,0.0064 -0.0373,0.0074 -0.0815,0.0209 -0.108,0.0362 z m 0.4136,-0.1041 -0.3031,0.175 -0.0282,-0.0488 0.3031,-0.175 c 0.0181,-0.0105 0.0548,-0.0224 0.0896,-0.0292 0.0087,-0.0018 0.0169,-0.0031 0.0242,-0.004 -0.0044,0.0059 -0.0096,0.0123 -0.0155,0.019 -0.0234,0.0268 -0.052,0.0525 -0.0701,0.063 z"
       fill="#c5413a"
       id="path67" />
    <path
       fill-rule="evenodd"
       clip-rule="evenodd"
       d="m 40.084,65.5479 0.7291,-0.421 0.2324,0.4026 -0.7291,0.4209 z m 0.5806,-0.2657 0.1264,-0.0729 0.1721,0.2981 -0.1332,0.0769 -0.1152,-0.0309 c 0.0241,-0.0168 0.0515,-0.0431 0.0728,-0.0674 0.0127,-0.0146 0.0244,-0.0298 0.0325,-0.0434 0.0039,-0.0066 0.0077,-0.0142 0.0099,-0.0219 0.0019,-0.0062 0.0049,-0.0201 -0.0028,-0.0335 -0.0078,-0.0134 -0.0213,-0.0177 -0.0276,-0.0193 -0.0078,-0.0018 -0.0162,-0.0023 -0.024,-0.0023 -0.0158,2e-4 -0.0348,0.0027 -0.0538,0.0065 -0.0291,0.0057 -0.0624,0.0152 -0.0882,0.0263 z m -0.0738,0.0427 -0.2311,0.1334 0.1142,0.0306 0.0863,-0.0498 z m -0.1907,0.2067 -0.1143,-0.0306 -0.1194,0.0689 0.1721,0.2981 0.1263,-0.0729 0.0306,-0.1142 -0.1488,0.0859 -0.0885,-0.1533 z m 0.2332,0 0.0386,-0.0223 c 0.0182,-0.0105 0.0468,-0.0362 0.0702,-0.063 0.0058,-0.0067 0.0111,-0.0131 0.0155,-0.019 -0.0073,9e-4 -0.0155,0.0022 -0.0242,0.0039 -0.0349,0.0069 -0.0715,0.0188 -0.0896,0.0293 l -0.0318,0.0184 -0.0118,0.0439 z m -0.1509,0.022 0.0439,0.0118 -0.0088,0.0331 -0.1488,0.0859 -0.0282,-0.0488 z m 0.0868,0.0846 -0.0306,0.1143 0.2174,-0.1256 -0.1142,-0.0306 z"
       fill="#ffffff"
       id="path68" />
    <path
       d="m 23.8308,66.9832 17.4616,-10.0815 0.3318,-0.9374 3.3548,-1.9368 0.9403,0.2029 8.4239,-4.8636 1.2815,2.2197 -30.5124,17.6163 z"
       fill="#b0873c"
       stroke="#4c3a1a"
       stroke-width="0.851266"
       id="path69" />
    <rect
       x="24.144501"
       y="67.524399"
       width="35.2327"
       height="1.3134"
       transform="rotate(-30,24.1445,67.5244)"
       fill="#916f31"
       id="rect69" />
    <rect
       x="41.2715"
       y="57.6367"
       width="15.4569"
       height="1.3134"
       transform="rotate(-30,41.2715,57.6367)"
       fill="#494031"
       id="rect70" />
    <rect
       x="38.857399"
       y="58.951199"
       width="1.60263"
       height="1.44914"
       transform="rotate(-30,38.8574,58.9512)"
       fill="#564b3a"
       id="rect71" />
    <ellipse
       cx="26.4361"
       cy="68.983803"
       rx="0.60950297"
       ry="0.609496"
       transform="rotate(-30,26.4361,68.9838)"
       fill="#463e30"
       stroke="#3d3629"
       stroke-width="0.425633"
       id="ellipse71" />
    <rect
       x="23.9277"
       y="58.666"
       width="31.006701"
       height="0.64124602"
       transform="rotate(-30,23.9277,58.666)"
       fill="#736445"
       stroke="#403726"
       stroke-width="0.425633"
       id="rect72" />
    <path
       d="m 23.9289,58.6667 c -0.1322,-0.2291 -0.0538,-0.522 0.1753,-0.6542 l 0.5501,-0.3176 0.2394,0.4147 z"
       fill="#8d7a55"
       stroke="#403726"
       stroke-width="0.425633"
       id="path72" />
    <rect
       x="25.070299"
       y="57.4561"
       width="0.64021301"
       height="0.47944"
       transform="rotate(-30,25.0703,57.4561)"
       fill="#8d7a55"
       stroke="#403726"
       stroke-width="0.425633"
       id="rect73" />
    <rect
       x="26.039101"
       y="56.894501"
       width="0.64021301"
       height="0.47944"
       transform="rotate(-30,26.0391,56.8945)"
       fill="#8d7a55"
       stroke="#403726"
       stroke-width="0.425633"
       id="rect74" />
    <rect
       x="27.0098"
       y="56.335899"
       width="0.64021301"
       height="0.47944"
       transform="rotate(-30,27.0098,56.3359)"
       fill="#8d7a55"
       stroke="#403726"
       stroke-width="0.425633"
       id="rect75" />
    <rect
       x="27.976601"
       y="55.776402"
       width="0.64021301"
       height="0.47944"
       transform="rotate(-30,27.9766,55.7764)"
       fill="#8d7a55"
       stroke="#403726"
       stroke-width="0.425633"
       id="rect76" />
    <rect
       x="28.9473"
       y="55.2178"
       width="0.64021301"
       height="0.47944"
       transform="rotate(-30,28.9473,55.2178)"
       fill="#8d7a55"
       stroke="#403726"
       stroke-width="0.425633"
       id="rect77" />
    <rect
       x="29.916"
       y="54.6562"
       width="0.64021301"
       height="0.47944"
       transform="rotate(-30,29.916,54.6562)"
       fill="#8d7a55"
       stroke="#403726"
       stroke-width="0.425633"
       id="rect78" />
    <rect
       x="30.8848"
       y="54.097698"
       width="0.64021301"
       height="0.47944"
       transform="rotate(-30,30.8848,54.0977)"
       fill="#8d7a55"
       stroke="#403726"
       stroke-width="0.425633"
       id="rect79" />
    <rect
       x="31.851601"
       y="53.539101"
       width="0.64021301"
       height="0.47944"
       transform="rotate(-30,31.8516,53.5391)"
       fill="#8d7a55"
       stroke="#403726"
       stroke-width="0.425633"
       id="rect80" />
    <rect
       x="32.8223"
       y="52.9785"
       width="0.64021301"
       height="0.47944"
       transform="rotate(-30,32.8223,52.9785)"
       fill="#8d7a55"
       stroke="#403726"
       stroke-width="0.425633"
       id="rect81" />
    <rect
       x="33.789101"
       y="52.419899"
       width="0.64021301"
       height="0.47944"
       transform="rotate(-30,33.7891,52.4199)"
       fill="#8d7a55"
       stroke="#403726"
       stroke-width="0.425633"
       id="rect82" />
    <rect
       x="34.7617"
       y="51.860401"
       width="0.64021301"
       height="0.47944"
       transform="rotate(-30,34.7617,51.8604)"
       fill="#8d7a55"
       stroke="#403726"
       stroke-width="0.425633"
       id="rect83" />
    <rect
       x="35.7285"
       y="51.3008"
       width="0.64021301"
       height="0.47944"
       transform="rotate(-30,35.7285,51.3008)"
       fill="#8d7a55"
       stroke="#403726"
       stroke-width="0.425633"
       id="rect84" />
    <rect
       x="36.6973"
       y="50.741199"
       width="0.64021301"
       height="0.47944"
       transform="rotate(-30,36.6973,50.7412)"
       fill="#8d7a55"
       stroke="#403726"
       stroke-width="0.425633"
       id="rect85" />
    <rect
       x="37.664101"
       y="50.182598"
       width="0.64021301"
       height="0.47944"
       transform="rotate(-30,37.6641,50.1826)"
       fill="#8d7a55"
       stroke="#403726"
       stroke-width="0.425633"
       id="rect86" />
    <rect
       x="38.6348"
       y="49.623001"
       width="0.64021301"
       height="0.47944"
       transform="rotate(-30,38.6348,49.623)"
       fill="#8d7a55"
       stroke="#403726"
       stroke-width="0.425633"
       id="rect87" />
    <rect
       x="39.607399"
       y="49.063499"
       width="0.64021301"
       height="0.47944"
       transform="rotate(-30,39.6074,49.0635)"
       fill="#8d7a55"
       stroke="#403726"
       stroke-width="0.425633"
       id="rect88" />
    <rect
       x="40.5742"
       y="48.502899"
       width="0.64021301"
       height="0.47944"
       transform="rotate(-30,40.5742,48.5029)"
       fill="#8d7a55"
       stroke="#403726"
       stroke-width="0.425633"
       id="rect89" />
    <rect
       x="41.542999"
       y="47.944302"
       width="0.64021301"
       height="0.47944"
       transform="rotate(-30,41.543,47.9443)"
       fill="#8d7a55"
       stroke="#403726"
       stroke-width="0.425633"
       id="rect90" />
    <rect
       x="42.5117"
       y="47.3857"
       width="0.64021301"
       height="0.47944"
       transform="rotate(-30,42.5117,47.3857)"
       fill="#8d7a55"
       stroke="#403726"
       stroke-width="0.425633"
       id="rect91" />
    <rect
       x="43.482399"
       y="46.826199"
       width="0.64021301"
       height="0.47944"
       transform="rotate(-30,43.4824,46.8262)"
       fill="#8d7a55"
       stroke="#403726"
       stroke-width="0.425633"
       id="rect92" />
    <rect
       x="44.4492"
       y="46.265598"
       width="0.64021301"
       height="0.47944"
       transform="rotate(-30,44.4492,46.2656)"
       fill="#8d7a55"
       stroke="#403726"
       stroke-width="0.425633"
       id="rect93" />
    <rect
       x="45.419899"
       y="45.707001"
       width="0.64021301"
       height="0.47944"
       transform="rotate(-30,45.4199,45.707)"
       fill="#8d7a55"
       stroke="#403726"
       stroke-width="0.425633"
       id="rect94" />
    <rect
       x="46.3867"
       y="45.147499"
       width="0.64021301"
       height="0.47944"
       transform="rotate(-30,46.3867,45.1475)"
       fill="#8d7a55"
       stroke="#403726"
       stroke-width="0.425633"
       id="rect95" />
    <rect
       x="47.357399"
       y="44.588902"
       width="0.64021301"
       height="0.47944"
       transform="rotate(-30,47.3574,44.5889)"
       fill="#8d7a55"
       stroke="#403726"
       stroke-width="0.425633"
       id="rect96" />
    <path
       d="m 48.5636,44.443 c -0.1322,-0.229 -0.0537,-0.5219 0.1753,-0.6541 l 1.3884,-0.8016 c 0.229,-0.1322 0.5219,-0.0537 0.6541,0.1753 z"
       fill="#8d7a55"
       stroke="#403726"
       stroke-width="0.425633"
       id="path96" />
    <path
       d="m 47.9551,58.4845 c -0.0583,-0.1009 -0.0237,-0.23 0.0772,-0.2882 l 10.7972,-6.2338 1.3718,2.376 -1.7479,1.0091 0.0479,0.0828 -9.0494,5.2247 c -0.1009,0.0582 -0.2299,0.0237 -0.2882,-0.0772 z"
       fill="#4a4641"
       stroke="#363330"
       stroke-width="0.851266"
       id="path97" />
    <path
       d="M 50.8163,59.8668 58.5011,55.43 61.843,59.0557 52.8,64.2767 Z"
       fill="#3f3b37"
       stroke="#363330"
       stroke-width="0.851266"
       id="path98" />
    <path
       d="m 51.5055,59.4695 6.4861,-3.7447 1.0882,1.4662 -6.7354,3.8887 z"
       fill="#393632"
       stroke="#363330"
       stroke-width="0.425633"
       id="path99" />
    <path
       d="m 52.1527,64.9993 c -0.0833,-0.1442 -0.0339,-0.3285 0.1103,-0.4117 l 10.6135,-6.1277 c 0.1441,-0.0833 0.3285,-0.0339 0.4117,0.1103 l 0.332,0.5751 -11.1355,6.4291 z"
       fill="#4b4b44"
       id="path100" />
    <path
       d="m 63.6199,59.1451 -11.1355,6.4291 c 0.7816,1.3536 1.9841,2.6348 2.8989,3.9558 0.4438,0.7686 0.9527,1.7726 1.4419,2.9687 0.2371,0.5796 0.4293,0.8725 0.7781,1.3695 0.2837,0.4043 0.6109,0.6723 1.0378,1.0687 0.4268,0.3963 0.9813,0.6158 1.822,0.3426 0.21,-0.0682 0.4665,-0.1677 0.7573,-0.2917 1.8023,-0.7691 4.9211,-2.4844 6.4471,-3.5772 0.2531,-0.1813 0.4625,-0.3455 0.6147,-0.4854 0.5198,-0.4777 0.59,-0.9094 0.2928,-1.8139 C 68.3319,68.3715 67.7677,67.6112 67.1558,66.6532 65.449,63.9808 64.9472,62.6067 64.947,61.188 Z"
       fill="#5c5e28"
       id="path101" />
    <rect
       x="56.3965"
       y="62.200199"
       width="3.4597499"
       height="0.96543002"
       transform="rotate(-30,56.3965,62.2002)"
       fill="#43433d"
       id="rect101" />
    <rect
       x="56.880901"
       y="63.037102"
       width="3.4597499"
       height="2.8712699"
       transform="rotate(-30,56.8809,63.0371)"
       fill="#44403b"
       stroke="#363330"
       stroke-width="0.425633"
       id="rect102" />
    <path
       d="m 52.0246,45.1199 -0.8379,-1.4513 0.5583,-0.3223 c 1.2856,-0.6781 3.0916,-1.6535 4.8558,-2.672 l 1.174,0.6587 1.3376,2.3169 0.6087,-0.3514 0.4005,0.6938 -0.6086,0.3514 0.2638,0.4569 7.2922,-4.2102 0.8101,1.4031 0.6521,-0.3765 0.9045,1.5666 -1.2558,0.7251 -1.1281,-1.9538 c -0.0154,-0.0267 -0.0683,-0.0885 -0.121,-0.139 -0.0493,-0.0472 -0.0983,-0.0845 -0.1165,-0.0741 l -2.7558,1.5911 -0.0977,0.3735 1.1424,1.9786 -0.6037,0.3486 -1.1424,-1.9787 -0.3722,-0.1022 -2.8528,1.6471 1.2796,2.2165 -0.8243,0.4759 -1.7145,-2.9696 -6.2058,1.806 0.0041,-0.0024 -0.1827,-0.3166 3.9325,-1.0887 C 55.9,45.646 55.4148,45.3568 55.1058,44.8902 l -0.7604,-1.1102 -0.5418,0.3128 0.0057,0.0098 c 0.1717,0.2974 0.0698,0.6777 -0.2276,0.8494 -0.2974,0.1717 -0.6777,0.0698 -0.8494,-0.2276 l -0.0056,-0.0098 z"
       fill="#85662e"
       id="path102" />
    <ellipse
       cx="56.597198"
       cy="43.729698"
       rx="1.58815"
       ry="1.58813"
       transform="rotate(-30,56.5972,43.7297)"
       fill="#524838"
       stroke="#3d3629"
       stroke-width="0.425633"
       id="ellipse102" />
    <ellipse
       cx="56.602699"
       cy="43.729"
       rx="0.185304"
       ry="0.185302"
       transform="rotate(-30,56.6027,43.729)"
       fill="#433b2e"
       id="ellipse103" />
    <ellipse
       cx="53.280899"
       cy="44.484699"
       rx="0.214222"
       ry="0.21422"
       transform="rotate(-30,53.2809,44.4847)"
       fill="#463e30"
       id="ellipse104" />
    <rect
       x="45.0938"
       y="49.226601"
       width="0.54940301"
       height="0.76547003"
       transform="rotate(-30,45.0938,49.2266)"
       fill="#44403c"
       stroke="#363330"
       stroke-width="0.425633"
       id="rect104" />
    <rect
       x="47.236301"
       y="48.674801"
       width="0.54566401"
       height="1.46763"
       transform="rotate(-30,47.2363,48.6748)"
       fill="#544f4a"
       stroke="#363330"
       stroke-width="0.425633"
       id="rect105" />
    <rect
       x="47.412102"
       y="47.888699"
       width="0.60208201"
       height="0.76547003"
       transform="rotate(-30,47.4121,47.8887)"
       fill="#44403c"
       stroke="#363330"
       stroke-width="0.425633"
       id="rect106" />
    <path
       d="m 46.8884,48.8754 -1.023,0.5906 0.2013,0.3486 -1.1955,0.6902 0.331,0.5734 1.1955,-0.6902 0.2013,0.3485 1.0229,-0.5906 -0.2012,-0.3485 0.3484,-0.2012 -0.331,-0.5734 -0.3485,0.2012 z"
       fill="#494541"
       stroke="#363330"
       stroke-width="0.425633"
       id="path106" />
    <rect
       x="45.039101"
       y="49.943401"
       width="0.54566401"
       height="1.46763"
       transform="rotate(-30,45.0391,49.9434)"
       fill="#544f4a"
       stroke="#363330"
       stroke-width="0.425633"
       id="rect107" />
    <rect
       x="54.0098"
       y="65.010696"
       width="9.9225798"
       height="1.13261"
       rx="0.56630701"
       transform="rotate(-30,54.0098,65.0107)"
       fill="#3f3b37"
       id="rect108" />
    <ellipse
       cx="62.345798"
       cy="60.851898"
       rx="0.48906299"
       ry="0.48905799"
       transform="rotate(-30,62.3458,60.8519)"
       fill="#44403b"
       id="ellipse108" />
    <ellipse
       cx="54.8302"
       cy="65.191704"
       rx="0.48906299"
       ry="0.48905799"
       transform="rotate(-30,54.8302,65.1917)"
       fill="#44403b"
       id="ellipse109" />
    <rect
       x="60.931599"
       y="67.242203"
       width="0.64734501"
       height="6.93891"
       transform="rotate(-30,60.9316,67.2422)"
       fill="#3f3b37"
       stroke="#363330"
       stroke-width="0.425633"
       id="rect109" />
    <rect
       x="44.494099"
       y="56.181599"
       width="1.60263"
       height="0.610919"
       transform="rotate(-30,44.4941,56.1816)"
       fill="#5e5340"
       id="rect110" />
    <rect
       x="40.455101"
       y="58.513699"
       width="4.6649199"
       height="0.61076599"
       transform="rotate(-30,40.4551,58.5137)"
       fill="#4f4536"
       id="rect111" />
    <rect
       x="41.2715"
       y="57.6367"
       width="1.25725"
       height="0.351578"
       transform="rotate(-30,41.2715,57.6367)"
       fill="#615542"
       id="rect112" />
    <rect
       x="42.8633"
       y="55.807598"
       width="0.52810001"
       height="0.78881502"
       transform="rotate(-30,42.8633,55.8076)"
       fill="#9c7835"
       id="rect113" />
    <rect
       x="41.751999"
       y="58.4697"
       width="1.25725"
       height="0.351578"
       transform="rotate(-30,41.752,58.4697)"
       fill="#615542"
       id="rect114" />
    <path
       d="m 81.8301,33.6729 1.4256,-0.8232 c 0.2612,-0.1507 0.5951,-0.0613 0.7458,0.1999 l 1.8702,3.2392 -1.8985,1.0961 z"
       fill="#4a4641"
       stroke="#363330"
       stroke-width="0.851266"
       id="path114" />
    <rect
       x="102.119"
       y="18.9863"
       width="1.02192"
       height="1.61651"
       transform="rotate(-30,102.119,18.9863)"
       fill="#393632"
       stroke="#363330"
       stroke-width="0.425633"
       id="rect115" />
    <rect
       x="101.91"
       y="18.625999"
       width="0.72787601"
       height="2.44853"
       transform="rotate(-30,101.91,18.626)"
       fill="#413e39"
       id="rect116" />
    <rect
       x="102.717"
       y="18.1611"
       width="0.285891"
       height="2.44853"
       transform="rotate(-30,102.717,18.1611)"
       fill="#413e39"
       id="rect117" />
    <rect
       x="102.68"
       y="18.502001"
       width="0.203089"
       height="1.8943599"
       transform="rotate(-30,102.68,18.502)"
       fill="#3c3934"
       id="rect118" />
    <rect
       x="103.104"
       y="18.257799"
       width="0.231298"
       height="1.8943599"
       transform="rotate(-30,103.104,18.2578)"
       fill="#3c3934"
       id="rect119" />
    <path
       fill-rule="evenodd"
       clip-rule="evenodd"
       d="m 107.944,15.1435 -4.778,2.7588 1.224,2.12 4.778,-2.7588 z m -0.619,1.4752 -2.572,1.4847 c -0.139,0.0803 -0.433,0.3948 -0.368,0.5084 0.066,0.1136 0.485,0.0159 0.625,-0.0644 l 2.571,-1.4847 c 0.139,-0.0803 0.434,-0.3948 0.368,-0.5084 -0.066,-0.1135 -0.485,-0.0158 -0.624,0.0644 z m -2.958,0.8155 2.571,-1.4848 c 0.14,-0.0802 0.533,-0.2231 0.571,-0.1568 0.039,0.0663 -0.282,0.3356 -0.421,0.416 l -2.572,1.4847 c -0.139,0.0803 -0.532,0.2231 -0.57,0.1568 -0.039,-0.0663 0.282,-0.3357 0.421,-0.4159 z m 3.451,0.0385 -2.572,1.4847 c -0.139,0.0803 -0.459,0.3497 -0.421,0.4159 0.038,0.0663 0.432,-0.0764 0.571,-0.1568 l 2.572,-1.4847 c 0.139,-0.0803 0.459,-0.3496 0.421,-0.4159 -0.039,-0.0663 -0.432,0.0765 -0.571,0.1568 z"
       fill="#413e39"
       id="path119" />
    <path
       d="m 101.91,18.626 0.63,-0.3638 0.139,0.2399 0.176,-0.1015 -0.139,-0.24 0.248,-0.1428 0.138,0.2399 0.2,-0.1156 -0.138,-0.2399 4.777,-2.7584 1.224,2.1197 -4.777,2.7583 -0.139,-0.2398 -0.2,0.1156 0.138,0.2398 -0.247,0.1429 -0.139,-0.2398 -0.175,0.1015 0.138,0.2398 -0.63,0.3638 z"
       stroke="#363330"
       stroke-width="0.851266"
       id="path120" />
    <path
       d="m 104.75,18.1036 2.571,-1.4847 c 0.139,-0.0803 0.559,-0.178 0.624,-0.0644 0.066,0.1136 -0.228,0.428 -0.367,0.5084 l -2.572,1.4847 c -0.139,0.0803 -0.559,0.1779 -0.624,0.0643 -0.066,-0.1135 0.229,-0.428 0.368,-0.5083 z"
       stroke="#363330"
       stroke-width="0.425633"
       id="path121" />
    <path
       d="m 106.935,15.9496 -2.572,1.4847 c -0.139,0.0803 -0.459,0.3497 -0.421,0.416 0.038,0.0663 0.432,-0.0765 0.571,-0.1569 l 2.571,-1.4847 c 0.14,-0.0803 0.46,-0.3496 0.422,-0.4159 -0.039,-0.0663 -0.432,0.0765 -0.571,0.1568 z"
       stroke="#363330"
       stroke-width="0.425633"
       id="path122" />
    <path
       d="m 105.243,18.9576 2.571,-1.4847 c 0.139,-0.0803 0.533,-0.2231 0.571,-0.1569 0.038,0.0663 -0.282,0.3357 -0.421,0.416 l -2.572,1.4847 c -0.139,0.0803 -0.532,0.2231 -0.571,0.1568 -0.038,-0.0663 0.283,-0.3356 0.422,-0.4159 z"
       stroke="#363330"
       stroke-width="0.425633"
       id="path123" />
    <path
       fill-rule="evenodd"
       clip-rule="evenodd"
       d="m 63.6914,40.0615 c 0.2619,-0.1512 0.3517,-0.4861 0.2004,-0.7481 l 1.0003,-0.5775 c 0.1512,0.262 0.4862,0.3517 0.7481,0.2005 0.262,-0.1513 0.3517,-0.4862 0.2005,-0.7482 l 4.8979,-2.8278 c 0.1513,0.262 0.4862,0.3517 0.7481,0.2005 0.262,-0.1513 0.3517,-0.4862 0.2005,-0.7481 l 1.0003,-0.5775 c 0.1512,0.2619 0.4861,0.3516 0.7481,0.2004 0.2619,-0.1512 0.3517,-0.4862 0.2005,-0.7481 l 1.0002,-0.5775 c 0.1512,0.2619 0.4862,0.3517 0.7481,0.2004 0.262,-0.1512 0.3517,-0.4861 0.2005,-0.7481 l 1.0003,-0.5775 c 0.1512,0.262 0.4861,0.3517 0.7481,0.2005 0.2619,-0.1513 0.3517,-0.4862 0.2004,-0.7481 l 1.3686,-0.7902 0.2179,0.3774 6.6831,-3.8585 -0.0532,-0.0921 1.5651,-0.9036 2.2382,3.8767 c 0.0583,0.1009 0.0237,0.2299 -0.0772,0.2882 l -1.8933,1.0931 c -0.1009,0.0582 -0.2299,0.0236 -0.2882,-0.0772 l -1.056,-1.8292 -23.3665,13.4906 -1.3468,-2.3328 1.4179,-0.8186 c 0.1512,0.2619 0.4861,0.3517 0.7481,0.2004 z m 24.2329,-9.8001 c 0.262,-0.1512 0.3517,-0.4862 0.2004,-0.7482 -0.1512,-0.2619 -0.4861,-0.3516 -0.7481,-0.2004 -0.2619,0.1512 -0.3517,0.4862 -0.2004,0.7481 0.1512,0.2619 0.4862,0.3517 0.7481,0.2005 z m -0.6979,-2.3041 c 0.1512,0.2619 0.0615,0.5968 -0.2005,0.7481 -0.2619,0.1512 -0.5969,0.0615 -0.7481,-0.2005 -0.1512,-0.2619 -0.0615,-0.5969 0.2005,-0.7481 0.2619,-0.1512 0.5969,-0.0615 0.7481,0.2005 z m -2.1393,1.8674 c 0.2619,-0.1512 0.3517,-0.4861 0.2004,-0.7481 -0.1512,-0.2619 -0.4861,-0.3516 -0.7481,-0.2004 -0.2619,0.1512 -0.3517,0.4862 -0.2004,0.7481 0.1512,0.262 0.4861,0.3517 0.7481,0.2004 z m -3.7036,1.506 c 0.1512,0.2619 0.0615,0.5968 -0.2005,0.7481 -0.262,0.1512 -0.5969,0.0615 -0.7481,-0.2005 -0.1513,-0.2619 -0.0615,-0.5968 0.2004,-0.7481 0.262,-0.1512 0.5969,-0.0615 0.7482,0.2005 z m -4.0983,2.9984 c 0.262,-0.1512 0.3518,-0.4861 0.2005,-0.7481 -0.1512,-0.2619 -0.4861,-0.3517 -0.7481,-0.2004 -0.2619,0.1512 -0.3517,0.4862 -0.2005,0.7481 0.1513,0.2619 0.4862,0.3517 0.7481,0.2004 z m 1.9489,-1.1251 c 0.262,-0.1513 0.3517,-0.4862 0.2005,-0.7481 -0.1513,-0.262 -0.4862,-0.3517 -0.7481,-0.2005 -0.262,0.1513 -0.3517,0.4862 -0.2005,0.7481 0.1512,0.262 0.4861,0.3517 0.7481,0.2005 z m -5.6461,2.6274 c 0.1513,0.2619 0.0615,0.5968 -0.2004,0.7481 -0.262,0.1512 -0.5969,0.0615 -0.7481,-0.2005 -0.1513,-0.2619 -0.0615,-0.5968 0.2004,-0.7481 0.262,-0.1512 0.5969,-0.0615 0.7481,0.2005 z m 1.9489,-1.1252 c 0.1512,0.2619 0.0615,0.5969 -0.2005,0.7481 -0.2619,0.1512 -0.5969,0.0615 -0.7481,-0.2004 -0.1512,-0.262 -0.0615,-0.5969 0.2005,-0.7482 0.2619,-0.1512 0.5969,-0.0614 0.7481,0.2005 z m -5.8465,3.3755 c 0.1512,0.2619 0.0614,0.5969 -0.2005,0.7481 -0.262,0.1512 -0.5969,0.0615 -0.7481,-0.2004 -0.1513,-0.262 -0.0615,-0.5969 0.2004,-0.7481 0.262,-0.1513 0.5969,-0.0616 0.7482,0.2004 z m 1.7483,-0.3771 c 0.262,-0.1512 0.3517,-0.4861 0.2005,-0.7481 -0.1512,-0.2619 -0.4862,-0.3517 -0.7481,-0.2004 -0.262,0.1512 -0.3517,0.4861 -0.2005,0.7481 0.1512,0.2619 0.4862,0.3517 0.7481,0.2004 z m -5.8465,3.3755 c 0.262,-0.1512 0.3517,-0.4861 0.2005,-0.7481 -0.1513,-0.2619 -0.4862,-0.3517 -0.7482,-0.2004 -0.2619,0.1512 -0.3516,0.4861 -0.2004,0.7481 0.1512,0.2619 0.4862,0.3517 0.7481,0.2004 z m 1.9489,-1.1251 c 0.2619,-0.1513 0.3517,-0.4862 0.2004,-0.7481 -0.1512,-0.262 -0.4861,-0.3517 -0.7481,-0.2005 -0.262,0.1513 -0.3517,0.4862 -0.2005,0.7481 0.1513,0.262 0.4862,0.3517 0.7482,0.2005 z m -3.6973,1.5022 c 0.1513,0.2619 0.0615,0.5969 -0.2004,0.7481 -0.262,0.1512 -0.5969,0.0615 -0.7482,-0.2005 -0.1512,-0.2619 -0.0614,-0.5968 0.2005,-0.7481 0.262,-0.1512 0.5969,-0.0615 0.7481,0.2005 z"
       fill="#9b7735"
       id="path124" />
    <path
       fill-rule="evenodd"
       clip-rule="evenodd"
       d="m 59.0947,63.4166 c 0.4459,-0.2575 1.0162,-0.1047 1.2737,0.3413 0.1543,0.2671 0.2792,0.542 0.4063,0.8219 0.1317,0.2899 0.2658,0.5852 0.4374,0.8823 0.224,0.3879 0.091,0.8839 -0.2968,1.1079 -0.3879,0.2239 -0.8839,0.091 -1.1079,-0.2969 -0.1715,-0.2971 -0.3602,-0.5609 -0.5454,-0.82 -0.1788,-0.25 -0.3544,-0.4956 -0.5087,-0.7627 -0.2574,-0.446 -0.1046,-1.0163 0.3414,-1.2738 z m 1.7839,3.0899 c 0.3109,-0.1795 0.4368,-0.5435 0.2812,-0.813 -0.1557,-0.2695 -0.5338,-0.3425 -0.8447,-0.163 -0.3109,0.1795 -0.4368,0.5435 -0.2812,0.813 0.1556,0.2695 0.5338,0.3425 0.8447,0.163 z"
       fill="#4a4540"
       id="path125" />
    <ellipse
       cx="59.519402"
       cy="64.151299"
       rx="0.79489499"
       ry="0.79488701"
       transform="rotate(-30,59.5194,64.1513)"
       fill="#413d39"
       id="ellipse125" />
    <path
       d="m 81.3461,32.8319 -0.6176,0.3566 2.7983,4.8468 0.6176,-0.3566 z"
       fill="#85662e"
       stroke="#4c3a1a"
       stroke-width="0.851266"
       id="path126" />
    <rect
       x="42.941399"
       y="55.814499"
       width="0.401481"
       height="0.74265897"
       transform="rotate(-30,42.9414,55.8145)"
       fill="#615542"
       id="rect126" />
    <rect
       width="0.254695"
       height="9.0868597"
       rx="0.12734701"
       transform="matrix(0.994604,-0.103748,0.103741,0.994604,41.4434,67.9688)"
       fill="#8b7a55"
       id="rect127"
       x="0"
       y="0" />
    <rect
       width="0.254695"
       height="9.0868597"
       rx="0.12734701"
       transform="matrix(0.994604,-0.103748,0.103741,0.994604,41.0801,68.0068)"
       fill="#8b7a55"
       id="rect128"
       x="0"
       y="0" />
    <rect
       width="0.254695"
       height="9.0868597"
       rx="0.12734701"
       transform="matrix(0.994604,-0.103748,0.103741,0.994604,40.7188,68.0449)"
       fill="#8b7a55"
       id="rect129"
       x="0"
       y="0" />
    <rect
       width="0.254695"
       height="9.0868597"
       rx="0.12734701"
       transform="matrix(0.994604,-0.103748,0.103741,0.994604,40.3516,68.083)"
       fill="#8b7a55"
       id="rect130"
       x="0"
       y="0" />
    <rect
       width="0.254695"
       height="9.0868597"
       rx="0.12734701"
       transform="matrix(0.994604,-0.103748,0.103741,0.994604,39.9883,68.1221)"
       fill="#8b7a55"
       id="rect131"
       x="0"
       y="0" />
    <path
       d="m 0.07365,75.1815 7.18136,9.8035 0.36838,-0.2126 0.55468,0.415 C 10.8494,83.5247 12.3048,82.5513 14.745,80.6631 l 0.1985,-0.3834 c -0.8665,-1.3114 -0.7294,-2.5914 0.0174,-3.7018 3.6321,-1.7163 5.9341,-2.8351 9.174,-4.6248 0.073,0.0267 0.1566,0.0228 0.23,-0.0175 l 1.7356,-0.9549 -4.9932,-8.7175 -1.0801,0.6236 c -0.4661,0.2691 -0.8478,1.1172 -1.254,2.0198 -0.0341,0.0758 -0.0683,0.152 -0.1029,0.2282 -0.7579,1.6743 -2.4286,3.1298 -4.7699,4.4815 -3.5379,2.0426 -6.10505,2.7575 -10.30611,3.0883 -1.51461,0.874 -2.28074,1.4162 -3.52064,2.4769 z"
       stroke="#3f3727"
       stroke-width="0.851266"
       id="path131" />
    <path
       d="m 26.0506,70.8894 35.688,-20.6044 -2.8644,-4.9612 -6.2057,1.8059 -2.2871,1.3205 0.0601,0.104 -4.9096,2.8345 c -0.1441,0.0833 -0.3284,0.0339 -0.4117,-0.1103 l -0.5116,-0.8861 -16.3752,9.4543 c -1.2998,0.7504 -3.1095,1.6318 -5.0306,1.2654 l -1.0264,0.5927 c 0,0 -0.3321,-0.5739 -0.8527,-0.2733 -0.5207,0.3005 -0.2137,0.8324 -0.2137,0.8324 z"
       stroke="#4c3a1a"
       stroke-width="0.851266"
       id="path132" />
    <path
       d="m 34.7794,69.2578 1.1352,-0.6554 c 0.6522,-0.3766 2.1818,-0.0491 2.4599,1.2129 0.0216,0.0979 0.023,0.1991 0.0164,0.2991 l -0.5512,8.3773 c -0.0021,0.0321 0.013,0.0629 0.0397,0.0809 l 0.4738,0.3192 c 0.0218,0.0148 0.0491,0.0192 0.0745,0.0122 l 6.0815,-1.6795 c 0.0522,-0.0144 0.0952,-0.0515 0.1172,-0.101 l 0.2428,-0.5481 c 0.0811,-0.1829 -0.0353,-0.3926 -0.2335,-0.4205 l -0.3688,-0.052 C 44.1254,76.083 44.0173,75.9664 44.0082,75.8238 L 43.56,68.8473 c -0.0174,-0.2722 0.1414,-0.525 0.3942,-0.6273 l 1.6568,-0.6706 3.0305,-1.7202 c 0.9071,-0.5149 1.2291,-1.6651 0.721,-2.5761 l -1.4903,-2.6727 c -0.1039,-0.1798 -0.0823,-0.5457 0.17,-0.7324 0.0267,-0.0198 0.0369,-0.0564 0.0202,-0.0852 l -0.6863,-1.1888 -14.7785,8.5323 1.0702,1.8536 c 0.2247,0.3892 0.7224,0.5226 1.1116,0.2979 z"
       stroke="#423824"
       stroke-width="0.851266"
       id="path133" />
    <path
       d="m 44.483,63.408 2.6007,-1.4619 c 0.3059,-0.1766 0.8862,-0.0519 1.0959,0.3114 l 0.7409,1.3819 c 0.2458,0.5028 -0.0478,1.3356 -0.4827,1.6349 -0.5716,0.3933 -0.8904,0.5851 -1.4783,0.9313 l -0.8948,0.5166 c -0.2231,0.1288 -0.9889,0.5419 -1.6132,0.854 -0.571,0.2855 -1.415,-0.3198 -1.2908,-0.8459 0.274,-1.1608 0.5558,-1.9248 1.2263,-3.2228 0.0215,-0.0416 0.0551,-0.0765 0.096,-0.0995 z"
       stroke="#423824"
       stroke-width="0.425633"
       id="path134" />
    <path
       d="m 30.0664,68.5693 4.3258,-2.4974 0.6089,1.0547 c 0.282,0.4884 0.1301,1.1121 -0.3449,1.4161 l -2.4853,1.591 c -0.4778,0.3059 -1.1142,0.1509 -1.3978,-0.3404 z"
       fill="#957840"
       stroke="#47391f"
       stroke-width="0.851266"
       id="path135" />
    <ellipse
       cx="31.746401"
       cy="69.041496"
       rx="0.71371198"
       ry="0.713705"
       transform="rotate(-30,31.7464,69.0415)"
       fill="#645844"
       stroke="#363330"
       stroke-width="0.425633"
       id="ellipse135" />
    <ellipse
       cx="33.935699"
       cy="67.7033"
       rx="0.50197202"
       ry="0.50196701"
       transform="rotate(-30,33.9357,67.7033)"
       fill="#463e30"
       stroke="#363330"
       stroke-width="0.425633"
       id="ellipse136" />
    <path
       d="m 33.7788,69.1053 c 0.2523,0.2738 0.6691,0.3467 1.005,0.1527 l 1.1352,-0.6554 c 0.1148,-0.0663 0.2568,-0.1107 0.4143,-0.1321 l -0.1782,-0.7505 0.1569,-0.8264 -0.8352,-1.4468 -1.0822,0.6248 0.6089,1.0546 c 0.2819,0.4883 0.13,1.1119 -0.3448,1.4159 z"
       fill="#8c713c"
       stroke="#47391f"
       stroke-width="0.851266"
       id="path136" />
    <path
       d="m 52.1527,64.9993 c -0.0833,-0.1442 -0.0339,-0.3285 0.1103,-0.4117 l 10.6135,-6.1277 c 0.1441,-0.0833 0.3285,-0.0339 0.4117,0.1103 l 0.332,0.5751 -11.1355,6.4291 z"
       stroke="#363630"
       stroke-width="0.851266"
       id="path137" />
    <path
       fill-rule="evenodd"
       clip-rule="evenodd"
       d="m 59.0947,63.4166 c 0.4459,-0.2575 1.0162,-0.1047 1.2737,0.3413 0.1543,0.2671 0.2792,0.542 0.4063,0.8219 0.1317,0.2899 0.2658,0.5852 0.4374,0.8823 0.224,0.3879 0.091,0.8839 -0.2968,1.1079 -0.3879,0.2239 -0.8839,0.091 -1.1079,-0.2969 -0.1715,-0.2971 -0.3602,-0.5609 -0.5454,-0.82 -0.1788,-0.25 -0.3544,-0.4956 -0.5087,-0.7627 -0.2574,-0.446 -0.1046,-1.0163 0.3414,-1.2738 z m 1.7839,3.0899 c 0.3109,-0.1795 0.4368,-0.5435 0.2812,-0.813 -0.1557,-0.2695 -0.5338,-0.3425 -0.8447,-0.163 -0.3109,0.1795 -0.4368,0.5435 -0.2812,0.813 0.1556,0.2695 0.5338,0.3425 0.8447,0.163 z"
       stroke="#363330"
       stroke-width="0.425633"
       id="path138" />
    <ellipse
       cx="60.952301"
       cy="66.627701"
       rx="0.65025598"
       ry="0.95027101"
       transform="rotate(-30,60.9523,66.6277)"
       fill="#44403b"
       id="ellipse138" />
    <rect
       x="60.548801"
       y="66.263702"
       width="0.33011901"
       height="1.31398"
       transform="rotate(-30,60.5488,66.2637)"
       fill="#54504a"
       id="rect138" />
    <ellipse
       cx="60.952301"
       cy="66.627701"
       rx="0.65025598"
       ry="0.95027101"
       transform="rotate(-30,60.9523,66.6277)"
       stroke="#363330"
       stroke-width="0.425633"
       id="ellipse139" />
    <rect
       x="54.0098"
       y="65.010696"
       width="9.9225798"
       height="1.13261"
       rx="0.56630701"
       transform="rotate(-30,54.0098,65.0107)"
       stroke="#363330"
       stroke-width="0.425633"
       id="rect139" />
    <path
       d="m 55.3833,69.53 c 0.4438,0.7686 0.9527,1.7726 1.4419,2.9687 0.2371,0.5796 0.4293,0.8725 0.7781,1.3695 0.2837,0.4043 0.6109,0.6723 1.0378,1.0687 0.4268,0.3963 0.9813,0.6158 1.822,0.3426 1.728,-0.5614 6.6014,-3.2353 7.8191,-4.3543 0.5198,-0.4777 0.59,-0.9094 0.2928,-1.8139 C 68.3319,68.3715 67.7677,67.6112 67.1558,66.6532 65.449,63.9808 64.9472,62.6067 64.947,61.188 l -1.3271,-2.0429 -11.1355,6.4291 c 0.7816,1.3536 1.9841,2.6348 2.8989,3.9558 z"
       stroke="#46481e"
       stroke-width="0.851266"
       id="path139" />
    <path
       d="m 73.1102,42.8606 -2.7809,-0.1922 -10.5401,6.0853 c -0.351,0.2026 -0.5243,0.6141 -0.424,1.0068 l 0.2728,1.0681 2.0361,3.5267 c 0.0872,0.151 0.2803,0.2027 0.4313,0.1155 0.1509,-0.0872 0.2027,-0.2802 0.1155,-0.4312 l -1.7063,-2.9555 1.8309,-1.0571 3.8311,1.3591 c 0.4526,0.1606 0.9533,-0.0481 1.1578,-0.4826 l 0.7992,-1.6977 5.5925,-3.2289 c 0.4902,-0.283 0.6581,-0.9097 0.3751,-1.3999 z"
       fill="#c9a667"
       id="path140" />
    <rect
       width="0.43825701"
       height="2.35727"
       rx="0.219128"
       transform="matrix(-0.99991,0.0134429,-0.0134343,-0.99991,64.5215,49.3135)"
       fill="#daba81"
       id="rect140"
       x="0"
       y="0" />
    <rect
       width="0.43814701"
       height="4.1639099"
       rx="0.219073"
       transform="matrix(-0.99991,0.0134429,-0.0134343,-0.99991,66.0879,50.2275)"
       fill="#daba81"
       id="rect141"
       x="0"
       y="0" />
    <rect
       width="0.43814701"
       height="4.1639099"
       rx="0.219073"
       transform="matrix(-0.99991,0.0134429,-0.0134343,-0.99991,67.6328,49.3359)"
       fill="#daba81"
       id="rect142"
       x="0"
       y="0" />
    <rect
       width="0.43814701"
       height="4.1639099"
       rx="0.219073"
       transform="matrix(-0.99991,0.0134429,-0.0134343,-0.99991,69.1758,48.4453)"
       fill="#daba81"
       id="rect143"
       x="0"
       y="0" />
    <rect
       width="0.43814701"
       height="4.1639099"
       rx="0.219073"
       transform="matrix(-0.99991,0.0134429,-0.0134343,-0.99991,70.7188,47.5547)"
       fill="#daba81"
       id="rect144"
       x="0"
       y="0" />
    <rect
       width="0.43825701"
       height="1.76906"
       rx="0.219128"
       transform="matrix(-0.99991,0.0134429,-0.0134343,-0.99991,72.2637,46.6641)"
       fill="#daba81"
       id="rect145"
       x="0"
       y="0" />
    <rect
       width="0.43825701"
       height="1.19662"
       rx="0.219128"
       transform="matrix(-0.99991,0.0134429,-0.0134343,-0.99991,73.8086,45.7715)"
       fill="#daba81"
       id="rect146"
       x="0"
       y="0" />
    <ellipse
       cx="71.994102"
       cy="44.168201"
       rx="0.54761702"
       ry="0.547611"
       transform="rotate(-30,71.9941,44.1682)"
       fill="#4f4b46"
       stroke="#363330"
       stroke-width="0.425633"
       id="ellipse146" />
    <path
       d="m 73.1102,42.8606 -2.7809,-0.1922 -10.5401,6.0853 c -0.351,0.2026 -0.5243,0.6141 -0.424,1.0068 l 0.2728,1.0681 2.0361,3.5267 c 0.0872,0.151 0.2803,0.2027 0.4313,0.1155 0.1509,-0.0872 0.2027,-0.2802 0.1155,-0.4312 l -1.7063,-2.9555 1.8309,-1.0571 3.8311,1.3591 c 0.4526,0.1606 0.9533,-0.0481 1.1578,-0.4826 l 0.7992,-1.6977 5.5925,-3.2289 c 0.4902,-0.283 0.6581,-0.9097 0.3751,-1.3999 z"
       stroke="#4c3a1a"
       stroke-width="0.851266"
       id="path146" />
    <path
       d="m 52.0246,45.1199 -0.8379,-1.4513 0.5583,-0.3223 c 1.2856,-0.6781 3.0916,-1.6535 4.8558,-2.672 l 1.174,0.6587 1.3376,2.3169 0.6087,-0.3514 0.4005,0.6938 -0.6086,0.3514 0.2638,0.4569 7.2922,-4.2102 0.8101,1.4031 0.6521,-0.3765 0.9045,1.5666 -1.2558,0.7251 -1.1281,-1.9538 c -0.0154,-0.0267 -0.0683,-0.0885 -0.121,-0.139 -0.0493,-0.0472 -0.0983,-0.0845 -0.1165,-0.0741 l -2.7558,1.5911 -0.0977,0.3735 1.1424,1.9786 -0.6037,0.3486 -1.1424,-1.9787 -0.3722,-0.1022 -2.8528,1.6471 1.2796,2.2165 -0.8243,0.4759 -1.7145,-2.9696 -6.2058,1.806 0.0041,-0.0024 -0.1827,-0.3166 3.9325,-1.0887 C 55.9,45.646 55.4148,45.3568 55.1058,44.8902 l -0.7604,-1.1102 -0.5418,0.3128 0.0057,0.0098 c 0.1717,0.2974 0.0698,0.6777 -0.2276,0.8494 -0.2974,0.1717 -0.6777,0.0698 -0.8494,-0.2276 l -0.0056,-0.0098 z"
       stroke="#4c3a1a"
       stroke-width="0.851266"
       id="path147" />
    <path
       d="m 63.0278,43.4852 -2.2159,1.2793 -0.5256,-0.9104 c -0.0416,-0.072 -0.0169,-0.1642 0.0552,-0.2058 l 1.9548,-1.1287 c 0.0721,-0.0416 0.1643,-0.0169 0.2059,0.0552 z"
       fill="#bc995c"
       id="path148" />
    <path
       d="m 39.2947,65.0928 c 0.198,0.343 0.14,0.7634 -0.1146,1.0402 l -1.5569,1.7572 C 37.503,68.0259 37.2956,68.0384 37.1599,67.9183 37.0243,67.798 37.0118,67.5907 37.132,67.455 l 0.7459,-0.8419 -0.0559,-0.5486 c -0.0208,-0.0278 -0.0401,-0.0572 -0.0579,-0.0879 -0.244,-0.4227 -0.0992,-0.9632 0.3235,-1.2072 0.2825,-0.1631 0.6177,-0.1525 0.8817,-0.0013 l 0.4316,-0.2576 -0.1853,0.4672 c 0.0289,0.0357 0.0554,0.0741 0.0791,0.1151 z"
       fill="#44403c"
       stroke="#363330"
       stroke-width="0.425633"
       id="path149" />
    <ellipse
       cx="41.7962"
       cy="63.865501"
       rx="0.29692701"
       ry="0.296924"
       transform="rotate(-30,41.7962,63.8655)"
       fill="#463e30"
       stroke="#363330"
       stroke-width="0.425633"
       id="ellipse149" />
    <ellipse
       cx="40.414902"
       cy="62.676102"
       rx="0.68121803"
       ry="0.68121099"
       transform="rotate(-30,40.4149,62.6761)"
       fill="#463e30"
       stroke="#363330"
       stroke-width="0.425633"
       id="ellipse150" />
    <path
       d="m 63.6914,40.0615 c 0.2619,-0.1512 0.3517,-0.4861 0.2004,-0.7481 l 1.0003,-0.5775 c 0.1512,0.262 0.4862,0.3517 0.7481,0.2004 0.262,-0.1512 0.3517,-0.4861 0.2005,-0.7481 l 4.8979,-2.8278 c 0.1513,0.262 0.4862,0.3517 0.7481,0.2005 0.262,-0.1513 0.3517,-0.4862 0.2005,-0.7481 l 1.0003,-0.5775 c 0.1512,0.2619 0.4861,0.3516 0.7481,0.2004 0.2619,-0.1512 0.3517,-0.4862 0.2005,-0.7481 l 1.0002,-0.5775 c 0.1512,0.2619 0.4862,0.3517 0.7481,0.2004 0.262,-0.1512 0.3517,-0.4861 0.2005,-0.7481 l 1.0003,-0.5775 c 0.1512,0.262 0.4861,0.3517 0.7481,0.2005 0.2619,-0.1513 0.3517,-0.4862 0.2004,-0.7481 l 1.3686,-0.7902 0.2179,0.3774 6.6831,-3.8585 -0.0532,-0.0921 1.5651,-0.9036 2.2382,3.8767 c 0.0583,0.1009 0.0237,0.2299 -0.0772,0.2882 l -1.8933,1.0931 c -0.1009,0.0582 -0.2299,0.0236 -0.2882,-0.0772 l -1.056,-1.8292 -23.3665,13.4906 -1.3468,-2.3328 1.4179,-0.8186 c 0.1512,0.2619 0.4861,0.3517 0.7481,0.2004 z"
       stroke="#4c3a1a"
       stroke-width="0.851266"
       id="path150" />
    <path
       d="m 87.924,30.2611 c 0.2619,-0.1512 0.3517,-0.4862 0.2004,-0.7482 -0.1512,-0.2619 -0.4861,-0.3516 -0.7481,-0.2004 -0.262,0.1512 -0.3517,0.4862 -0.2005,0.7481 0.1513,0.2619 0.4862,0.3517 0.7482,0.2005 z"
       stroke="#4c3a1a"
       stroke-width="0.425633"
       id="path151" />
    <path
       d="m 87.2261,27.957 c 0.1512,0.2619 0.0615,0.5968 -0.2005,0.7481 -0.262,0.1512 -0.5969,0.0615 -0.7481,-0.2005 -0.1512,-0.2619 -0.0615,-0.5969 0.2004,-0.7481 0.262,-0.1512 0.5969,-0.0615 0.7482,0.2005 z"
       stroke="#4c3a1a"
       stroke-width="0.425633"
       id="path152" />
    <path
       d="m 85.0868,29.8244 c 0.2619,-0.1512 0.3517,-0.4861 0.2004,-0.7481 -0.1512,-0.2619 -0.4861,-0.3516 -0.7481,-0.2004 -0.262,0.1512 -0.3517,0.4862 -0.2005,0.7481 0.1513,0.262 0.4862,0.3517 0.7482,0.2004 z"
       stroke="#4c3a1a"
       stroke-width="0.425633"
       id="path153" />
    <path
       d="m 81.3831,31.3304 c 0.1513,0.2619 0.0615,0.5968 -0.2004,0.7481 -0.262,0.1512 -0.5969,0.0615 -0.7482,-0.2005 -0.1512,-0.2619 -0.0614,-0.5968 0.2005,-0.7481 0.262,-0.1512 0.5969,-0.0615 0.7481,0.2005 z"
       stroke="#4c3a1a"
       stroke-width="0.425633"
       id="path154" />
    <path
       d="m 77.2849,34.3288 c 0.262,-0.1512 0.3517,-0.4861 0.2005,-0.7481 -0.1512,-0.2619 -0.4862,-0.3517 -0.7481,-0.2004 -0.262,0.1512 -0.3517,0.4862 -0.2005,0.7481 0.1512,0.2619 0.4862,0.3517 0.7481,0.2004 z"
       stroke="#4c3a1a"
       stroke-width="0.425633"
       id="path155" />
    <path
       d="m 79.2338,33.2037 c 0.2619,-0.1513 0.3517,-0.4862 0.2004,-0.7481 -0.1512,-0.262 -0.4861,-0.3517 -0.7481,-0.2005 -0.2619,0.1513 -0.3517,0.4862 -0.2004,0.7481 0.1512,0.262 0.4861,0.3517 0.7481,0.2005 z"
       stroke="#4c3a1a"
       stroke-width="0.425633"
       id="path156" />
    <path
       d="m 73.5877,35.8311 c 0.1512,0.2619 0.0615,0.5968 -0.2005,0.7481 -0.2619,0.1512 -0.5968,0.0615 -0.7481,-0.2005 -0.1512,-0.2619 -0.0615,-0.5968 0.2005,-0.7481 0.262,-0.1512 0.5969,-0.0615 0.7481,0.2005 z"
       stroke="#4c3a1a"
       stroke-width="0.425633"
       id="path157" />
    <path
       d="m 75.5366,34.7059 c 0.1512,0.2619 0.0614,0.5969 -0.2005,0.7481 -0.262,0.1512 -0.5969,0.0615 -0.7481,-0.2004 -0.1513,-0.262 -0.0615,-0.5969 0.2005,-0.7482 0.2619,-0.1512 0.5968,-0.0614 0.7481,0.2005 z"
       stroke="#4c3a1a"
       stroke-width="0.425633"
       id="path158" />
    <path
       d="m 69.69,38.0814 c 0.1513,0.2619 0.0615,0.5969 -0.2005,0.7481 -0.2619,0.1512 -0.5968,0.0615 -0.7481,-0.2004 -0.1512,-0.262 -0.0614,-0.5969 0.2005,-0.7481 0.262,-0.1513 0.5969,-0.0616 0.7481,0.2004 z"
       stroke="#4c3a1a"
       stroke-width="0.425633"
       id="path159" />
    <path
       d="m 71.4384,37.7043 c 0.262,-0.1512 0.3517,-0.4861 0.2005,-0.7481 -0.1513,-0.2619 -0.4862,-0.3517 -0.7481,-0.2004 -0.262,0.1512 -0.3517,0.4862 -0.2005,0.7481 0.1512,0.2619 0.4861,0.3517 0.7481,0.2004 z"
       stroke="#4c3a1a"
       stroke-width="0.425633"
       id="path160" />
    <path
       d="m 65.5919,41.0798 c 0.2619,-0.1512 0.3517,-0.4861 0.2004,-0.7481 -0.1512,-0.2619 -0.4861,-0.3517 -0.7481,-0.2004 -0.2619,0.1512 -0.3517,0.4861 -0.2004,0.7481 0.1512,0.2619 0.4861,0.3517 0.7481,0.2004 z"
       stroke="#4c3a1a"
       stroke-width="0.425633"
       id="path161" />
    <path
       d="m 67.5407,39.9547 c 0.262,-0.1513 0.3517,-0.4862 0.2005,-0.7481 -0.1512,-0.262 -0.4862,-0.3517 -0.7481,-0.2005 -0.262,0.1513 -0.3517,0.4862 -0.2005,0.7481 0.1512,0.262 0.4862,0.3517 0.7481,0.2005 z"
       stroke="#4c3a1a"
       stroke-width="0.425633"
       id="path162" />
    <path
       d="m 63.8435,41.4569 c 0.1512,0.2619 0.0615,0.5969 -0.2005,0.7481 -0.2619,0.1512 -0.5969,0.0615 -0.7481,-0.2005 -0.1512,-0.2619 -0.0615,-0.5968 0.2005,-0.7481 0.2619,-0.1512 0.5969,-0.0615 0.7481,0.2005 z"
       stroke="#4c3a1a"
       stroke-width="0.425633"
       id="path163" />
    <path
       d="m 51.7438,43.3472 -29.3864,16.9663 0.5564,0.9637 c 1.9568,0.4557 4.247,-0.1285 5.5869,-0.8906 l 16.4067,-9.4724 -0.6839,-1.1846 4.7853,-2.7628 0.533,0.9232 2.6767,-1.5453 -0.6545,-1.1335 0.942,-0.5439 c 0.3645,-0.2104 0.4894,-0.6766 0.2789,-1.0411 -0.2104,-0.3645 -0.6766,-0.4894 -1.0411,-0.279 z"
       fill="#8d7b55"
       id="path164" />
    <path
       d="m 52.6711,47.1277 -0.4518,-0.7825 -2.8729,1.6587 0.4902,0.8492 -2.4577,1.4189 1.1007,0.3067 2.007,-1.1587 c 0.1875,-0.1083 0.2517,-0.3479 0.1435,-0.5354 l -0.2505,-0.4339 z"
       fill="#3d3a36"
       stroke="#363330"
       stroke-width="0.425633"
       id="path165" />
    <path
       d="m 26.9191,57.328 4.4756,-2.584 -0.6359,-1.1014 -4.4756,2.584 z"
       fill="#44403c"
       stroke="#363330"
       stroke-width="0.425633"
       id="path166" />
    <ellipse
       cx="29.676901"
       cy="52.867901"
       rx="0.35687101"
       ry="0.35686699"
       transform="rotate(-30,29.6769,52.8679)"
       fill="#3c3835"
       id="ellipse166" />
    <ellipse
       cx="30.5497"
       cy="54.575001"
       rx="0.402394"
       ry="0.40239"
       transform="rotate(-30,30.5497,54.575)"
       fill="#3c3835"
       id="ellipse167" />
    <ellipse
       cx="27.194201"
       cy="56.509602"
       rx="0.402394"
       ry="0.40239"
       transform="rotate(-30,27.1942,56.5096)"
       fill="#3c3835"
       id="ellipse168" />
    <ellipse
       cx="28.171801"
       cy="54.9128"
       rx="0.94362599"
       ry="0.94361699"
       transform="rotate(-30,28.1718,54.9128)"
       fill="#413d3a"
       id="ellipse169" />
    <ellipse
       cx="28.17"
       cy="54.912899"
       rx="0.61059201"
       ry="0.61058599"
       transform="rotate(-30,28.17,54.9129)"
       fill="#3c3835"
       id="ellipse170" />
    <ellipse
       cx="52.125702"
       cy="44.0075"
       rx="0.47662801"
       ry="0.476623"
       transform="rotate(-30,52.1257,44.0075)"
       fill="#463e30"
       id="ellipse171" />
    <path
       d="m 51.7438,43.3472 -29.3864,16.9663 0.5564,0.9637 c 1.9568,0.4557 4.247,-0.1285 5.5869,-0.8906 l 16.4067,-9.4724 -0.6839,-1.1846 4.7853,-2.7628 0.533,0.9232 2.6767,-1.5453 -0.6545,-1.1335 0.942,-0.5439 c 0.3645,-0.2104 0.4894,-0.6766 0.2789,-1.0411 -0.2104,-0.3645 -0.6766,-0.4894 -1.0411,-0.279 z"
       stroke="#403826"
       stroke-width="0.851266"
       id="path171" />
    <path
       d="m 20.6818,60.9327 c -0.1965,-0.3405 -0.0799,-0.7759 0.2606,-0.9724 0.3405,-0.1966 0.7759,-0.08 0.9724,0.2605 l 0.8757,1.5167 0.4071,-0.2351 1.7643,-0.153 c 0.2586,-0.0164 0.51,-0.1364 0.6867,-0.3531 0.3366,-0.4128 0.2748,-1.0204 -0.1381,-1.3569 -0.2114,-0.1724 -0.4739,-0.2403 -0.7249,-0.2101 l -1.7831,0.16 -0.9049,0.5224 c -0.256,-0.4402 -0.8202,-0.5906 -1.2616,-0.3358 -0.4423,0.2554 -0.5938,0.8209 -0.3385,1.2632 0.1409,0.244 0.3764,0.3995 0.633,0.447 0.0578,0.0107 0.1133,-0.0275 0.124,-0.0853 0.0107,-0.0578 -0.0275,-0.1133 -0.0853,-0.124 -0.198,-0.0366 -0.3789,-0.1563 -0.4874,-0.3441 z"
       fill="#44403c"
       id="path172" />
    <ellipse
       cx="24.899"
       cy="60.386902"
       rx="0.871337"
       ry="0.871346"
       transform="rotate(-120,24.899,60.3869)"
       fill="#3c3835"
       id="ellipse172" />
    <path
       d="m 27.2555,53.6508 c 0.0221,-0.0587 0.0639,-0.1079 0.1182,-0.1393 l 2.2739,-1.3128 c 0.1154,-0.0666 0.2628,-0.0271 0.3294,0.0883 l 1.4189,2.4575 -4.4756,2.584 -0.6359,-1.1014 z"
       stroke="#363330"
       stroke-width="0.851266"
       id="path173" />
    <path
       d="m 43.2899,55.6151 -0.3475,0.2007 0.3712,0.6429 -2.0419,1.1788 0.1757,0.3044 -0.9917,0.5725 -0.2094,-0.3628 -1.3874,0.801 0.7243,1.2545 1.3873,-0.801 -0.2094,-0.3628 0.9917,-0.5726 0.1756,0.3043 13.3861,-7.7285 -0.6567,-1.1374 -10.9967,6.3489 z"
       stroke="#3d3629"
       stroke-width="0.425633"
       id="path174" />
    <rect
       x="42.826199"
       y="53.292999"
       width="1.60198"
       height="7.2815199"
       transform="rotate(-30,42.8262,53.293)"
       fill="#564b3a"
       stroke="#3d3629"
       stroke-width="0.851266"
       id="rect174" />
    <path
       d="m 59.5688,45.7096 c -0.081,0.0294 -0.1612,0.0632 -0.2312,0.1135 l -0.7966,0.5727 c -0.0676,0.0487 -0.1236,0.1114 -0.1766,0.1757 -0.0906,0.11 -0.221,0.229 -0.3774,0.338 -0.1424,0.0991 -0.2851,0.1752 -0.411,0.2234 -0.072,0.0276 -0.1427,0.0594 -0.2053,0.1044 l -0.859,0.6176 c -0.0629,0.0452 -0.1158,0.1027 -0.1657,0.162 -0.0902,0.1074 -0.2177,0.2228 -0.3697,0.3287 -0.1372,0.0955 -0.2746,0.1696 -0.3971,0.218 -0.067,0.0265 -0.1326,0.0571 -0.1911,0.0992 l -0.7806,0.5612 c -0.088,0.0632 -0.156,0.15 -0.2226,0.2354 -0.0909,0.1165 -0.2287,0.2449 -0.3965,0.3617 -0.1578,0.1099 -0.3159,0.1914 -0.4512,0.2381 -0.0927,0.032 -0.1854,0.0677 -0.2651,0.1249 l -0.7447,0.5354 c -0.0924,0.0665 -0.1162,0.1938 -0.054,0.2892 l 1.1766,1.8026 c 0.0673,0.103 0.2076,0.1277 0.306,0.0539 l 0.9509,-0.7134 c 0.0675,-0.0507 0.1228,-0.1154 0.1742,-0.1823 0.0842,-0.1096 0.203,-0.2282 0.3455,-0.339 0.1566,-0.1218 0.3152,-0.2134 0.4507,-0.2664 0.0868,-0.034 0.1736,-0.0706 0.2482,-0.1265 l 0.6841,-0.5132 c 0.0862,-0.0647 0.1523,-0.1523 0.2154,-0.2397 0.0848,-0.1176 0.212,-0.2475 0.3673,-0.3683 0.1639,-0.1274 0.33,-0.2219 0.4696,-0.2736 0.1146,-0.0424 0.2333,-0.0829 0.331,-0.1562 l 0.5244,-0.3934 c 0.1096,-0.0822 0.1873,-0.2007 0.2663,-0.3126 0.0847,-0.1201 0.2146,-0.254 0.3744,-0.3782 0.1607,-0.125 0.3236,-0.2183 0.4614,-0.2706 0.1492,-0.0566 0.3124,-0.0998 0.44,-0.1955 l 0.3632,-0.2725 c 0.14,-0.105 0.2327,-0.2679 0.3354,-0.4095 0.0848,-0.117 0.2113,-0.246 0.3657,-0.366 0.1453,-0.113 0.2923,-0.2 0.4211,-0.2543 0.1926,-0.0813 0.4229,-0.1294 0.5901,-0.2549 l 1.5773,-1.1833 c 0.0862,-0.0646 0.1105,-0.1834 0.0566,-0.2766 l -0.9432,-1.6338 -2.2159,1.2793 -0.2245,0.1614 c -0.0764,0.0549 -0.1378,0.1277 -0.1966,0.2012 -0.0908,0.1136 -0.2254,0.2378 -0.3881,0.3511 -0.1502,0.1047 -0.3008,0.1836 -0.4317,0.2312 z"
       fill="#c4a165"
       id="path175" />
    <path
       d="m 59.453,45.7571 c 0.0382,-0.018 0.0777,-0.0335 0.1174,-0.0479 0.131,-0.0476 0.2816,-0.1265 0.4318,-0.2312 0.1627,-0.1133 0.2972,-0.2374 0.3881,-0.3511 0.0291,-0.0364 0.0589,-0.0726 0.0908,-0.1066 l 1.5457,1.7113 c -0.0294,0.0106 -0.059,0.0208 -0.0885,0.031 -0.0656,0.0227 -0.1306,0.0451 -0.1919,0.071 -0.1287,0.0543 -0.2757,0.1413 -0.4211,0.2543 -0.1543,0.12 -0.2808,0.2491 -0.3656,0.366 -0.0226,0.0312 -0.0448,0.0634 -0.067,0.0958 -0.0253,0.0368 -0.0508,0.0739 -0.0773,0.11 z"
       fill="#b7965c"
       id="path176" />
    <path
       d="m 57.4731,47.1774 c 0.034,-0.0167 0.0691,-0.0313 0.1045,-0.0449 0.126,-0.0482 0.2687,-0.1242 0.411,-0.2234 0.1564,-0.109 0.2869,-0.2279 0.3775,-0.3379 0.0263,-0.032 0.0533,-0.0635 0.0822,-0.0932 l 1.5868,1.7758 c -0.0377,0.0146 -0.076,0.0281 -0.1142,0.0416 -0.0336,0.0118 -0.067,0.0236 -0.0998,0.0361 -0.1379,0.0523 -0.3007,0.1455 -0.4614,0.2705 -0.1598,0.1242 -0.2897,0.2581 -0.3745,0.3782 -0.0072,0.0103 -0.0144,0.0206 -0.0216,0.0309 -0.0305,0.0435 -0.0613,0.0874 -0.0942,0.1292 z"
       fill="#b7965c"
       id="path177" />
    <path
       d="m 55.4835,48.6063 c 0.0317,-0.016 0.0644,-0.03 0.0974,-0.0431 0.1225,-0.0483 0.2599,-0.1225 0.397,-0.218 0.1521,-0.1059 0.2796,-0.2213 0.3698,-0.3287 0.0247,-0.0294 0.0502,-0.0584 0.0773,-0.0857 l 1.6031,1.8483 c -0.0451,0.0194 -0.0914,0.0364 -0.1374,0.0534 -0.0091,0.0033 -0.0181,0.0066 -0.0271,0.0099 -0.1396,0.0517 -0.3057,0.1462 -0.4696,0.2736 -0.1554,0.1208 -0.2825,0.2508 -0.3673,0.3683 -0.0306,0.0424 -0.0619,0.0847 -0.0958,0.1245 z"
       fill="#b7965c"
       id="path178" />
    <path
       d="m 53.4057,50.1099 c 0.0434,-0.0193 0.0883,-0.0356 0.1332,-0.0511 0.1353,-0.0466 0.2934,-0.1282 0.4511,-0.2381 0.1678,-0.1168 0.3057,-0.2452 0.3966,-0.3617 0.0325,-0.0417 0.0654,-0.0837 0.1007,-0.1232 l 1.5175,1.9743 c -0.041,0.0198 -0.0834,0.037 -0.1258,0.0536 -0.1356,0.053 -0.2941,0.1447 -0.4507,0.2664 -0.1426,0.1108 -0.2614,0.2294 -0.3455,0.339 -0.0253,0.033 -0.0516,0.0654 -0.0798,0.0959 z"
       fill="#b7965c"
       id="path179" />
    <path
       d="m 60.811,44.765 -0.5258,-0.9107 c -0.0416,-0.072 -0.0169,-0.1642 0.0551,-0.2058 l 1.9549,-1.1287 c 0.0721,-0.0416 0.1643,-0.0169 0.2059,0.0552 l 0.5258,0.9102 2e-4,4e-4 0.9433,1.6338 c 0.0538,0.0932 0.0295,0.212 -0.0566,0.2766 l -1.5773,1.1833 c -0.1141,0.0856 -0.2575,0.1352 -0.3983,0.1839 -0.0656,0.0226 -0.1306,0.0451 -0.1919,0.0709 -0.1287,0.0544 -0.2758,0.1414 -0.4211,0.2544 -0.1543,0.12 -0.2808,0.249 -0.3656,0.366 -0.0226,0.0311 -0.0448,0.0634 -0.067,0.0958 -0.0789,0.1147 -0.1593,0.2318 -0.2684,0.3136 l -0.3633,0.2726 c -0.0996,0.0747 -0.2208,0.1174 -0.3401,0.1594 -0.0336,0.0119 -0.0671,0.0237 -0.0998,0.0361 -0.1379,0.0523 -0.3007,0.1456 -0.4615,0.2705 -0.1597,0.1242 -0.2897,0.2582 -0.3744,0.3783 l -0.0117,0.0166 -0.01,0.0142 c -0.0717,0.1025 -0.145,0.2071 -0.2445,0.2817 l -0.5244,0.3934 c -0.0901,0.0676 -0.1979,0.1073 -0.304,0.1463 -0.009,0.0034 -0.0181,0.0067 -0.0271,0.01 -0.1395,0.0517 -0.3056,0.1462 -0.4695,0.2736 -0.1554,0.1208 -0.2825,0.2507 -0.3674,0.3683 -0.0631,0.0874 -0.1291,0.1749 -0.2154,0.2397 l -0.6841,0.5132 c -0.0745,0.0559 -0.1614,0.0925 -0.2482,0.1265 -0.1355,0.053 -0.294,0.1446 -0.4506,0.2663 -0.1426,0.1109 -0.2614,0.2295 -0.3455,0.3391 -0.0514,0.0669 -0.1067,0.1316 -0.1742,0.1822 l -0.951,0.7135 c -0.0984,0.0738 -0.2387,0.0491 -0.3059,-0.0539 L 52.475,51.0088 c -0.0622,-0.0953 -0.0384,-0.2226 0.054,-0.2891 l 0.7447,-0.5354 c 0.0796,-0.0573 0.1723,-0.0929 0.265,-0.1249 0.1354,-0.0467 0.2935,-0.1282 0.4512,-0.2381 0.1678,-0.1169 0.3057,-0.2452 0.3965,-0.3617 0.0667,-0.0854 0.1347,-0.1722 0.2226,-0.2354 l 0.7806,-0.5612 c 0.0585,-0.0421 0.1242,-0.0727 0.1911,-0.0992 0.1225,-0.0484 0.26,-0.1225 0.3971,-0.218 0.1521,-0.1059 0.2795,-0.2213 0.3697,-0.3287 0.0499,-0.0593 0.1028,-0.1168 0.1657,-0.162 l 0.8591,-0.6176 c 0.0625,-0.045 0.1332,-0.0769 0.2052,-0.1044 0.126,-0.0482 0.2686,-0.1243 0.411,-0.2234 0.1564,-0.109 0.2868,-0.228 0.3774,-0.338 0.053,-0.0643 0.109,-0.127 0.1767,-0.1757 l 0.7965,-0.5727 c 0.07,-0.0503 0.1502,-0.0841 0.2312,-0.1135 0.1309,-0.0476 0.2815,-0.1266 0.4318,-0.2312 0.1626,-0.1133 0.2972,-0.2375 0.3881,-0.3511 0.0588,-0.0735 0.1201,-0.1463 0.1966,-0.2012 z"
       stroke="#4a391c"
       stroke-width="0.851266"
       id="path180" />
    <path
       d="m 20.6818,60.9327 c -0.1965,-0.3405 -0.0799,-0.7759 0.2606,-0.9724 0.3405,-0.1966 0.7759,-0.08 0.9724,0.2605 l 0.8757,1.5167 0.4071,-0.2351 1.7643,-0.153 c 0.2586,-0.0164 0.51,-0.1364 0.6867,-0.3531 0.3366,-0.4128 0.2748,-1.0204 -0.1381,-1.3569 -0.2114,-0.1724 -0.4739,-0.2403 -0.7249,-0.2101 l -1.7831,0.16 -0.9049,0.5224 c -0.256,-0.4402 -0.8202,-0.5906 -1.2616,-0.3358 -0.4423,0.2554 -0.5938,0.8209 -0.3385,1.2632 0.1409,0.244 0.3764,0.3995 0.633,0.447 0.0578,0.0107 0.1133,-0.0275 0.124,-0.0853 0.0107,-0.0578 -0.0275,-0.1133 -0.0853,-0.124 -0.198,-0.0366 -0.3789,-0.1563 -0.4874,-0.3441 z"
       stroke="#363330"
       stroke-width="0.425633"
       id="path181" />
    <path
       d="M 83.13,22.6926 82.5786,21.7 c -0.2432,-0.4375 -0.8006,-0.5893 -1.2341,-0.3391 -0.4252,0.2455 -0.5739,0.7909 -0.3283,1.2161 0.0056,0.0098 0.0049,0.0215 -7e-4,0.0305 -0.0025,0.004 -0.0059,0.0074 -0.0102,0.0099 l -0.0368,0.0213 c -0.0678,0.0391 -0.0919,0.1253 -0.0544,0.1939 l 0.6412,1.1685 1.4855,-0.8577 -0.1729,-0.2994 z"
       stroke="#363330"
       stroke-width="0.425633"
       id="path182" />
  </g>
  <defs
     id="defs182">
    <clipPath
       id="clip0_2088_1898">
      <rect
         width="110"
         height="110"
         fill="#ffffff"
         id="rect182"
         x="0"
         y="0" />
    </clipPath>
  </defs>
</svg>
