<svg xmlns="http://www.w3.org/2000/svg" width="121.425" height="47.571" fill="none"><g clip-path="url(#a)" transform="rotate(15 166.518 55.07)"><path fill="#494541" d="M80.947 22.813a.144.144 0 0 1 .055-.194l.036-.021a.03.03 0 0 0 .011-.04.89.89 0 0 1 .328-1.216.9.9 0 0 1 1.234.339l2.87 5.166-.359.208-.052-.09a.213.213 0 0 0-.29-.079l-.77.444a.213.213 0 0 1-.29-.078l-.937-1.622a.08.08 0 0 0-.11-.03.17.17 0 0 1-.232-.064z"/><path fill="#46423e" d="m83.13 22.693-.551-.993a.9.9 0 0 0-1.234-.34.89.89 0 0 0-.329 1.217.03.03 0 0 1-.01.04l-.037.022a.144.144 0 0 0-.055.194L81.555 24l1.486-.858-.173-.299z"/><path fill="#3c3835" d="m25.932 53.737.364.63-.185.3-.397-.804z"/><path fill="#413d3a" d="m26.611 54.985 1.029-.593-.36-.622-1.028.593a.36.36 0 0 0 .36.622"/><circle cx="26.454" cy="54.662" r=".247" fill="#3c3835" transform="rotate(-30 26.454 54.663)"/><path stroke="#363330" stroke-width=".426" d="m26.282 54.345-.35-.609-.218.126.364.738a.36.36 0 0 0 .53.385l1.03-.594-.36-.621z"/><path fill="#494541" d="M27.256 53.65a.27.27 0 0 1 .118-.139l2.274-1.312a.24.24 0 0 1 .329.088l1.419 2.457-4.476 2.584-.636-1.1z"/><path fill="#7d602b" d="M59.832 46.987 81.478 34.49l1.598 2.77-21.645 12.497z"/><path fill="#46423e" d="m71.89 40.608 8.216-4.743 1.096 1.898-8.215 4.743z"/><path fill="#413d3a" d="m72.398 40.315.457-.264 1.097 1.9-.458.263zM73.361 39.76l.457-.264 1.097 1.9-.457.263zM74.326 39.203l.457-.264 1.097 1.9-.458.263zM75.287 38.647l.457-.264 1.097 1.9-.458.263zM76.25 38.091l.457-.264 1.097 1.9-.457.263zM77.215 37.534l.457-.264 1.097 1.9-.458.263zM78.178 36.978l.457-.264 1.096 1.9-.457.263zM79.143 36.422l.457-.264 1.097 1.899-.458.264z"/><circle cx="73.174" cy="41.133" r=".402" fill="#3b3835" transform="rotate(-30 73.174 41.133)"/><circle cx="77.029" cy="38.908" r=".402" fill="#3b3835" transform="rotate(-30 77.029 38.908)"/><path stroke="#363330" stroke-width=".426" d="m71.89 40.608 8.216-4.743 1.096 1.898-8.215 4.743z"/><path fill="#413d3a" stroke="#363330" stroke-width=".426" d="m74.854 42.01-1.676.968.312.54 5.4-3.117-.313-.54-.707.408.066.115c.03.05.012.116-.039.145l-2.831 1.635a.106.106 0 0 1-.146-.04z"/><path fill="#46423e" stroke="#363330" stroke-width=".426" d="m74.459 42.958.554-.32.24.415-.555.32zM75.428 42.398l.554-.32.24.415-.555.32zM76.397 41.839l.554-.32.24.415-.555.32zM77.365 41.28l.554-.32.24.415-.555.32zM78.334 40.721l.554-.32.24.415-.554.32z"/><path fill="#4f4b46" d="m74.29 43.684 4.39-2.536.75 1.297-4.392 2.535z"/><path fill="#46423e" stroke="#363330" stroke-width=".851" d="m75.817 44.529 2.828-1.633.384.506-2.965 1.713z"/><path fill="#413d39" stroke="#363330" stroke-width=".851" d="m78.894 43.48-2.693 1.556a60 60 0 0 0 2.413 4.904.12.12 0 0 0 .08.06l.25.056 2.926-1.69.077-.245a.12.12 0 0 0-.012-.1 60 60 0 0 0-3.04-4.54z"/><circle cx="76.876" cy="43.092" r=".437" fill="#46423e" transform="rotate(-30 76.876 43.093)"/><path fill="#413d39" stroke="#363330" stroke-width=".851" d="m83.679 51.497.31.179.665 1.152.002.164-3.097 1.788-.14-.084-.666-1.152v-.358z"/><path fill="#3c3834" stroke="#363330" stroke-width=".851" d="m81.592 54.759 3.028-1.748.385.666-3.028 1.749z"/><path fill="#393632" stroke="#363330" stroke-width=".851" d="m83.02 56.74 2.605-1.504.716 1.24a.195.195 0 0 1-.049.254 11 11 0 0 1-1.108.75c-.449.26-.954.48-1.204.585a.195.195 0 0 1-.244-.084z"/><path fill="#413d39" stroke="#363330" stroke-width=".851" d="m85.873 55.092.006-.368-.573-.992-.172-.13-3.289 1.9.026.213.573.992.322.179z"/><path fill="#393632" stroke="#363330" stroke-width=".851" d="M79.079 49.993a.226.226 0 0 0 .212.368l.014.023a.226.226 0 0 0 .212.368l.014.024a.226.226 0 0 0 .212.367l.013.024a.226.226 0 0 0 .213.368l.013.023a.226.226 0 0 0 .213.368l.013.023a.226.226 0 0 0 .213.368l.013.024a.226.226 0 0 0 .213.368l.013.023a.22.22 0 0 0-.051.12.226.226 0 0 0 .264.248l.006.012 2.67-1.541-.007-.012a.226.226 0 0 0-.213-.368l-.013-.023a.226.226 0 0 0-.213-.368l-.013-.024a.226.226 0 0 0-.213-.368l-.013-.023a.226.226 0 0 0-.212-.368l-.014-.023a.226.226 0 0 0-.212-.368l-.014-.024a.226.226 0 0 0-.212-.367l-.014-.024a.226.226 0 0 0-.212-.368l-.014-.023a.226.226 0 0 0-.212-.368l-.007-.012-2.669 1.541z"/><path stroke="#363330" stroke-width=".851" d="m74.29 43.684 4.39-2.536.75 1.297-4.392 2.535z"/><path fill="#3e3b37" d="m83.8 28.566-.34-.587 2.227-1.286.614.428z"/><path fill="#44403c" d="m83.01 26.018-.188.46a.32.32 0 0 0 .395.423l.015-.005c.048-.015.1.005.125.048l.16.278-.056.758 1.649-.953-.036-.063a.213.213 0 0 0-.291-.078l-.77.444a.213.213 0 0 1-.29-.077zM81.336 22.4l1.364-.688a.348.348 0 1 1 .314.62l-1.364.69z"/><path fill="#3e3b37" d="M82.886 24.966a.393.393 0 0 1 .682-.394l.286.496a.393.393 0 0 1-.682.393z"/><circle cx="82.943" cy="23.468" r=".185" fill="#44403c" transform="rotate(-30 82.943 23.468)"/><circle cx="84.192" cy="26.592" r=".296" fill="#59544f" transform="rotate(-30 84.192 26.592)"/><circle cx="82.147" cy="23.791" r=".513" fill="#44403c" transform="rotate(-30 82.147 23.791)"/><circle cx=".185" cy=".185" r=".185" fill="#3e3b37" transform="rotate(-26.8 87.845 -160.337)"/><circle cx="82.146" cy="23.791" r=".185" fill="#3e3b37" transform="rotate(-30 82.146 23.791)"/><circle cx="83.512" cy="25.265" r=".393" fill="#4e4b46" transform="rotate(-30 83.512 25.265)"/><path stroke="#363330" stroke-width=".851" d="M81.005 22.62a.144.144 0 0 0-.055.193l1.495 2.723a.17.17 0 0 0 .232.064.08.08 0 0 1 .109.03l.224.388-.187.459a.32.32 0 0 0 .394.424l.015-.005c.048-.016.1.004.125.048l.16.277-.056.759.339.587 2.5-1.444-.613-.429-.218.126-2.485-4.473.031-.016a.347.347 0 1 0-.313-.62l-.056.028-.032-.058a.9.9 0 0 0-1.234-.34.89.89 0 0 0-.328 1.216l.003.006a.03.03 0 0 1-.014.035z"/><path fill="#795d2a" d="m56.42 45.721-3.932 1.089-.704-1.22.384-.221-.144-.249.702-.405.006.01a.622.622 0 0 0 1.077-.622l-.006-.01.542-.313.76 1.11c.31.467.795.756 1.316.831"/><path fill="#3c3835" d="m45.28 62.961-.795.448a.24.24 0 0 0-.096.099c-.598 1.157-.887 1.89-1.137 2.858.59-.43.966-.34 1.642.047.779.446 1.354.31 1.782-.357a.06.06 0 0 0-.032-.089c-1.37-.484-2.093-1.68-1.363-3.006"/><path fill="#494541" d="M46.449 66.345q.12-.122.227-.29a.06.06 0 0 0-.032-.088c-1.37-.484-2.093-1.68-1.364-3.006l-.796.447a.24.24 0 0 0-.078.071c.275 1.42.779 2.18 2.043 2.866"/><path stroke="#363330" stroke-width=".426" d="m45.28 62.961-.795.448a.24.24 0 0 0-.096.099c-.598 1.157-.887 1.89-1.137 2.858.59-.43.966-.34 1.642.047.779.446 1.354.31 1.782-.357a.06.06 0 0 0-.032-.089c-1.37-.484-2.093-1.68-1.363-3.006z"/><path fill="#e3b50e" stroke="#604c06" stroke-width=".426" d="M49.913 48.457c1.107-.64 1.688-1.321 1.63-1.422s-.94.061-2.047.7z"/><path fill="#3c3934" stroke="#363330" stroke-width=".851" d="m86 30.638 1.064-.615.674 1.167.707-.408.201.348.793-.458a.21.21 0 0 1 .288.077l.714 1.237c.059.1.024.23-.077.288l-.793.458.201.348-2.715 1.568-1.327-2.299.943-.544z"/><path fill="#3e3b37" stroke="#363330" stroke-width=".851" d="m59.265 42.533.322-.186.308.535 41.117-23.739.702-.044.35-.201.91 1.577-.349.201-.39.587-42.039 24.271-1.807-3.13.601-.348z"/><path fill="#906f31" d="m28.231 59.847 16.375-9.455.512.886a.3.3 0 0 0 .412.11l5.328-3.075.386.668-26.572 15.342-1.758-3.046.287-.165c1.92.366 3.73-.515 5.03-1.265"/><path fill="#44403c" stroke="#363330" stroke-width=".426" d="m84.025 28.69 2.339-1.35 1.45 2.512-2.339 1.35z"/><path fill="#b57921" stroke="#563a10" stroke-miterlimit="3.994" stroke-width=".426" d="m45.022 50.065 3.308-1.884.43-.076.71-.41.464.804-.71.41-.28.335-3.286 1.923-.113.034-.61-1.056z"/><path fill="#b57921" d="m44.79 50.194-.085.049-.018.067.59 1.023.067.018.085-.049z"/><path fill="#563a10" d="m44.705 50.243-.107-.184-.076.044-.023.085zm.084-.049.184-.106-.106-.184-.184.106zm-.102.116-.206-.055-.022.085.044.076zm.59 1.023-.184.106.044.077.086.022zm.067.018-.055.205.085.023.077-.044zm.084-.049.107.184.184-.106-.106-.184zm-.617-.875.084-.048-.212-.369-.085.049zm.651.8-.59-1.024-.37.213.591 1.023zm-.14-.11-.084.05.213.368.084-.049zm-.717-.816.64 1.107.368-.212-.64-1.108zm.288.064.017-.067-.41-.11-.019.067zm.506.78-.066-.018-.11.411.066.018z"/><path fill="#97651c" stroke="#563a10" stroke-miterlimit="3.994" stroke-width=".426" d="m44.838 50.269.13-.075.552.958-.129.075z"/><path stroke="#4c3a1a" stroke-width=".851" d="M59.832 46.987 81.478 34.49l1.598 2.77-21.645 12.497z"/><path fill="#413e39" stroke="#363330" stroke-width=".851" d="m85.605 32.134-1.6.924 1.589 2.75 1.946-1.124-.137-.237-.347.2z"/><path fill="#463e30" stroke="#3d3629" stroke-width=".426" d="m56.773 40.933 1.237-.714.45.779-1.237.714z"/><path fill="#44403c" d="m57.984 39.568.363-.21 2.356 4.081-.363.21zM59.424 38.738l.363-.21 2.356 4.081-.363.21z"/><path fill="#3c3835" d="m58.547 39.703 1.076-.621 2.156 3.735-1.076.621z"/><path stroke="#363330" stroke-width=".426" d="m57.984 39.568.363-.21.2.347 1.076-.622-.2-.345.363-.21 2.356 4.081-1.801 1.04z"/><path fill="#3f3b37" stroke="#363330" stroke-width=".851" d="m46.828 58.893 13.137-7.585.667 1.156.022 1.53-12.546 7.115z"/><path fill="#8d7b55" d="M7.255 84.985.074 75.182c1.24-1.061 2.006-1.603 3.52-2.477 4.201-.331 6.769-1.046 10.306-3.089 2.342-1.351 4.012-2.807 4.77-4.481.446-.985.852-1.957 1.357-2.248l.874-.505 4.966 8.601c-4.233 2.4-6.66 3.589-10.906 5.595-.747 1.11-.884 2.39-.017 3.702l-.199.383c-2.44 1.888-3.896 2.862-6.567 4.524l-.555-.415z"/><path fill="#453d31" stroke="#3f3727" stroke-width=".851" d="m.076 75.182 7.181 9.804.369-.213.554.415c.623-.388 1.18-.738 1.698-1.07l-.707-.79-6.157-8.324c-.158-.53-.341-.784-.728-1.211l.103-.134-.106-.156C1.517 74 .9 74.476.076 75.183z"/><rect width=".686" height="5.931" fill="#7e6e4c" stroke="#3f3727" stroke-width=".426" rx=".343" transform="rotate(-36.121 120.733 24.595)"/><rect width=".686" height="6.119" fill="#7e6e4c" stroke="#3f3727" stroke-width=".426" rx=".343" transform="rotate(-36.121 121.072 27.648)"/><rect width=".686" height="6.344" fill="#7e6e4c" stroke="#3f3727" stroke-width=".426" rx=".343" transform="rotate(-36.121 121.216 30.74)"/><path fill="#7b6c4d" stroke="#3f3727" stroke-width=".426" d="m20.148 64.817-.729-1.225c.09-.193.396-.582.611-.706l1.08-.624 4.994 8.718-1.736.955a.28.28 0 0 1-.378-.109l-.761-1.37a.487.487 0 0 1 .182-.658l.23-.133.12.21.749-.433-3.128-5.572-.74.427.102.176z"/><path fill="#9b7735" d="M61.739 50.285 26.05 70.889l-4.941-8.625s-.307-.532.214-.833c.52-.3.852.274.852.274l.74-.427c.879.898 1.918 1.027 3.264.487 5.56-2.23 8.73-3.713 14.335-6.587l9.973-5.759a.39.39 0 0 0 .144-.535l-.25-.434 2.287-1.32 6.205-1.806z"/><circle cx="21.794" cy="62.255" r=".516" fill="#645944" stroke="#3d3629" stroke-width=".426" transform="rotate(-30 21.794 62.255)"/><ellipse cx="23.294" cy="63.545" fill="#463e30" stroke="#3d3629" stroke-width=".426" rx=".61" ry=".609" transform="rotate(-30 23.294 63.545)"/><path fill="#917a4f" fill-rule="evenodd" d="m34.78 69.258 1.135-.656c.652-.376 2.181-.049 2.46 1.213.021.098.022.2.016.3l-.551 8.377a.09.09 0 0 0 .04.08l.473.32a.1.1 0 0 0 .075.012l6.081-1.68a.18.18 0 0 0 .117-.1l.243-.549a.3.3 0 0 0-.233-.42l-.37-.052a.3.3 0 0 1-.258-.28l-.448-6.976a.63.63 0 0 1 .394-.627l1.657-.67 3.03-1.72a1.9 1.9 0 0 0 .721-2.577l-1.49-2.673a.61.61 0 0 1 .17-.732c.027-.02.037-.056.02-.085l-.686-1.189-14.778 8.532 1.07 1.854a.814.814 0 0 0 1.111.298m9.702-5.85 2.6-1.462c.307-.177.887-.052 1.097.311l.74 1.382c.246.503-.047 1.336-.482 1.635-.572.394-.89.585-1.479.932l-.894.516c-.224.129-.99.542-1.614.854-.57.286-1.415-.32-1.29-.846.274-1.16.555-1.925 1.226-3.223a.24.24 0 0 1 .096-.1" clip-rule="evenodd"/><circle cx="42.968" cy="62.786" r=".297" fill="#463e30" stroke="#363330" stroke-width=".426" transform="rotate(-30 42.968 62.786)"/><path fill="#857451" d="m43.575 68.668-.113-1.271c-.22-.18-.358-.431-.302-.666.08-.34.16-.646.252-.941-1.034-.128-1.612-.12-2.636.036l-4.447 2.645c.738-.1 1.817.305 2.046 1.345.021.098.023.199.016.299l-.551 8.377a.09.09 0 0 0 .04.081l.474.32a.1.1 0 0 0 .074.011l6.082-1.68a.18.18 0 0 0 .117-.1l.242-.548a.3.3 0 0 0-.233-.42l-.369-.053a.3.3 0 0 1-.259-.279l-.448-6.976a.6.6 0 0 1 .015-.18"/><path fill="#9d8759" d="m48.067 61.091-.888.513a1.025 1.025 0 0 1-1.4-.375l-.631-1.093a.3.3 0 0 1-.018-.263l2.248-1.298.686 1.188c.017.03.007.066-.02.086a.61.61 0 0 0-.17.732l.247.444a.12.12 0 0 1-.054.066"/><circle cx="46.734" cy="60.598" r=".565" fill="#645844" stroke="#363330" stroke-width=".426" transform="rotate(-30 46.734 60.598)"/><path fill="#c5413a" d="m39.455 64.335 2.454-1.417-.03-.053-2.506 1.447.232.403 2.507-1.447-.03-.052-2.455 1.416z"/><path fill="#c5413a" fill-rule="evenodd" d="m39.547 64.378.356-.205a.4.4 0 0 1 .161-.043q.013 0 .024.003c.007.001.02.006.028.019a.04.04 0 0 1 .003.033l-.01.022a.399.399 0 0 1-.118.119l-.355.205zm.083.022.028.049.303-.175a.3.3 0 0 0 .085-.082.4.4 0 0 0-.113.033zM40.179 64.013l.088.154.355-.206a.4.4 0 0 0 .118-.118l.01-.022a.04.04 0 0 0-.002-.034.04.04 0 0 0-.028-.019l-.024-.002a.396.396 0 0 0-.162.043zm.413-.104-.303.175-.028-.049.303-.174a.3.3 0 0 1 .114-.034l-.015.02a.3.3 0 0 1-.07.062M40.81 63.649l.356-.205a.4.4 0 0 1 .185-.04c.007 0 .02.005.028.019a.04.04 0 0 1 .003.033l-.01.022a.399.399 0 0 1-.118.119l-.355.205zm.11.07.304-.174a.4.4 0 0 0 .086-.082.4.4 0 0 0-.114.033l-.303.175zM41.442 63.284l.088.153.356-.205a.4.4 0 0 0 .118-.119l.01-.021a.04.04 0 0 0-.003-.034.04.04 0 0 0-.028-.02l-.024-.002a.397.397 0 0 0-.162.043zm.414-.104-.303.175-.029-.049.303-.175a.3.3 0 0 1 .114-.033l-.015.019a.3.3 0 0 1-.07.063" clip-rule="evenodd"/><path fill="#fff" fill-rule="evenodd" d="m40.084 65.548.73-.421.232.402-.73.421zm.58-.266.127-.073.172.298-.133.077-.115-.03a.4.4 0 0 0 .105-.111l.01-.022a.04.04 0 0 0-.003-.034.04.04 0 0 0-.028-.02l-.024-.001a.463.463 0 0 0-.142.033zm-.073.043-.231.133.114.03.086-.049zm-.19.207-.115-.031-.12.069.173.298.126-.073.03-.114-.148.086-.089-.154zm.232 0 .039-.023a.3.3 0 0 0 .086-.082.4.4 0 0 0-.114.033l-.032.019-.012.044zm-.15.022.043.011-.009.033-.148.086-.029-.048zm.086.084-.03.114.217-.125-.114-.03z" clip-rule="evenodd"/><path fill="#b0873c" stroke="#4c3a1a" stroke-width=".851" d="m23.83 66.983 17.462-10.081.332-.938 3.355-1.936.94.202 8.424-4.863 1.282 2.22-30.513 17.616z"/><path fill="#916f31" d="m24.145 67.524 30.512-17.617.657 1.137L24.8 68.661z"/><path fill="#494031" d="m41.272 57.637 13.386-7.729.657 1.137-13.386 7.729z"/><path fill="#564b3a" d="m38.857 58.951 1.388-.801.725 1.255-1.389.801z"/><ellipse cx="26.436" cy="68.984" fill="#463e30" stroke="#3d3629" stroke-width=".426" rx=".61" ry=".609" transform="rotate(-30 26.436 68.984)"/><path fill="#736445" stroke="#403726" stroke-width=".426" d="m23.928 58.666 26.853-15.504.32.555-26.853 15.504z"/><path fill="#8d7a55" stroke="#403726" stroke-width=".426" d="M23.929 58.667a.48.48 0 0 1 .175-.655l.55-.317.24.415zM25.07 57.456l.554-.32.24.415-.555.32zM26.04 56.895l.554-.32.239.415-.554.32zM27.01 56.336l.554-.32.24.415-.554.32zM27.977 55.776l.554-.32.24.415-.555.32zM28.947 55.218l.554-.32.24.415-.554.32zM29.916 54.656l.554-.32.24.415-.555.32zM30.885 54.098l.554-.32.24.415-.554.32zM31.852 53.539l.554-.32.24.415-.555.32zM32.822 52.978l.554-.32.24.415-.555.32zM33.79 52.42l.553-.32.24.415-.554.32zM34.762 51.86l.554-.32.24.415-.555.32zM35.728 51.301l.554-.32.24.415-.554.32zM36.697 50.741l.554-.32.24.415-.555.32zM37.664 50.183l.554-.32.24.415-.554.32zM38.635 49.623l.554-.32.24.415-.555.32zM39.607 49.063l.554-.32.24.415-.555.32zM40.574 48.503l.554-.32.24.415-.554.32zM41.543 47.944l.554-.32.24.415-.555.32zM42.512 47.386l.554-.32.24.415-.554.32zM43.482 46.826l.554-.32.24.415-.555.32zM44.45 46.266l.553-.32.24.415-.554.32zM45.42 45.707l.554-.32.24.415-.555.32zM46.387 45.147l.554-.32.24.415-.555.32zM47.357 44.59l.554-.32.24.414-.554.32zM48.564 44.443a.48.48 0 0 1 .175-.654l1.388-.802a.48.48 0 0 1 .654.176z"/><path fill="#4a4641" stroke="#363330" stroke-width=".851" d="M47.955 58.485a.21.21 0 0 1 .077-.289l10.798-6.234 1.371 2.376-1.748 1.01.048.082-9.05 5.225a.21.21 0 0 1-.287-.077z"/><path fill="#3f3b37" stroke="#363330" stroke-width=".851" d="m50.816 59.867 7.685-4.437 3.342 3.626-9.043 5.22Z"/><path fill="#393632" stroke="#363330" stroke-width=".426" d="m51.506 59.47 6.486-3.745 1.088 1.466-6.736 3.889z"/><path fill="#4b4b44" d="M52.153 65a.3.3 0 0 1 .11-.412l10.614-6.128a.3.3 0 0 1 .411.11l.332.575-11.135 6.43z"/><path fill="#5c5e28" d="m63.62 59.145-11.136 6.43c.782 1.353 1.984 2.634 2.9 3.955.443.769.952 1.773 1.441 2.969.237.58.43.872.778 1.37.284.404.611.672 1.038 1.068s.981.616 1.822.343c.21-.069.467-.168.757-.292 1.803-.77 4.921-2.485 6.447-3.577.254-.182.463-.346.615-.486.52-.477.59-.91.293-1.814-.243-.74-.807-1.5-1.42-2.458-1.706-2.672-2.208-4.046-2.208-5.465Z"/><path fill="#43433d" d="m56.397 62.2 2.996-1.73.483.835-2.997 1.73z"/><path fill="#44403b" stroke="#363330" stroke-width=".426" d="m56.88 63.037 2.997-1.73 1.436 2.486-2.997 1.73z"/><path fill="#85662e" d="m52.025 45.12-.838-1.451.558-.323a151 151 0 0 0 4.856-2.672l1.174.659 1.337 2.317.61-.351.4.693-.609.352.264.457 7.292-4.21.81 1.403.652-.377.905 1.567-1.256.725-1.128-1.954a1 1 0 0 0-.121-.14c-.05-.046-.098-.084-.117-.073l-2.755 1.59-.098.374 1.142 1.979-.603.349-1.143-1.98-.372-.101-2.853 1.647 1.28 2.216-.825.476-1.714-2.97-6.206 1.807.004-.003-.182-.316 3.932-1.09a1.9 1.9 0 0 1-1.315-.83l-.76-1.11-.542.313.005.01a.622.622 0 0 1-1.077.621l-.005-.01z"/><circle cx="56.597" cy="43.73" r="1.588" fill="#524838" stroke="#3d3629" stroke-width=".426" transform="rotate(-30 56.597 43.73)"/><circle cx="56.603" cy="43.729" r=".185" fill="#433b2e" transform="rotate(-30 56.603 43.729)"/><circle cx="53.281" cy="44.485" r=".214" fill="#463e30" transform="rotate(-30 53.28 44.485)"/><path fill="#44403c" stroke="#363330" stroke-width=".426" d="m45.094 49.227.476-.275.382.663-.475.274z"/><path fill="#544f4a" stroke="#363330" stroke-width=".426" d="m47.236 48.675.473-.273.734 1.271-.473.273z"/><path fill="#44403c" stroke="#363330" stroke-width=".426" d="m47.412 47.889.522-.301.382.663-.521.3z"/><path fill="#494541" stroke="#363330" stroke-width=".426" d="m46.888 48.875-1.023.591.202.349-1.196.69.331.573 1.196-.69.201.349 1.023-.591-.201-.349.348-.2-.33-.574-.35.201z"/><path fill="#544f4a" stroke="#363330" stroke-width=".426" d="m45.039 49.943.473-.273.734 1.271-.473.273z"/><rect width="9.923" height="1.133" x="54.01" y="65.011" fill="#3f3b37" rx=".566" transform="rotate(-30 54.01 65.01)"/><circle cx="62.346" cy="60.852" r=".489" fill="#44403b" transform="rotate(-30 62.346 60.852)"/><circle cx="54.83" cy="65.192" r=".489" fill="#44403b" transform="rotate(-30 54.83 65.192)"/><path fill="#3f3b37" stroke="#363330" stroke-width=".426" d="m60.932 67.242.56-.324 3.47 6.01-.56.323z"/><path fill="#5e5340" d="m44.494 56.182 1.388-.802.306.53-1.388.801z"/><path fill="#4f4536" d="m40.455 58.514 4.04-2.332.306.529-4.04 2.332z"/><path fill="#615542" d="m41.272 57.637 1.089-.629.176.305-1.089.629z"/><path fill="#9c7835" d="m42.863 55.808.458-.264.394.683-.457.264z"/><path fill="#615542" d="m41.752 58.47 1.089-.629.176.305-1.089.629z"/><path fill="#4a4641" stroke="#363330" stroke-width=".851" d="m81.83 33.673 1.426-.823a.546.546 0 0 1 .746.2l1.87 3.239-1.899 1.096z"/><path fill="#393632" stroke="#363330" stroke-width=".426" d="m102.119 18.986.885-.511.808 1.4-.885.511z"/><path fill="#413e39" d="m101.91 18.626.63-.364 1.225 2.12-.63.365zM102.717 18.161l.248-.143 1.224 2.12-.248.144z"/><path fill="#3c3934" d="m102.68 18.502.176-.101.947 1.64-.176.101zM103.104 18.258l.2-.116.947 1.64-.2.116z"/><path fill="#413e39" fill-rule="evenodd" d="m107.944 15.144-4.778 2.758 1.224 2.12 4.778-2.758zm-.619 1.475-2.572 1.484c-.139.08-.433.395-.368.509.066.113.485.016.625-.065l2.571-1.484c.139-.08.434-.395.368-.509s-.485-.015-.624.065m-2.958.815 2.571-1.485c.14-.08.533-.223.571-.156.039.066-.282.335-.421.416l-2.572 1.484c-.139.08-.532.223-.57.157-.039-.066.282-.336.421-.416m3.451.039-2.572 1.484c-.139.08-.459.35-.421.416.038.067.432-.076.571-.157l2.572-1.484c.139-.08.459-.35.421-.416s-.432.076-.571.157" clip-rule="evenodd"/><path stroke="#363330" stroke-width=".851" d="m101.91 18.626.63-.364.139.24.176-.101-.139-.24.248-.143.138.24.2-.116-.138-.24 4.777-2.758 1.224 2.12-4.777 2.758-.139-.24-.2.116.138.24-.247.142-.139-.24-.175.102.138.24-.63.364z"/><path stroke="#363330" stroke-width=".426" d="m104.75 18.104 2.571-1.485c.139-.08.559-.178.624-.064.066.113-.228.428-.367.508l-2.572 1.485c-.139.08-.559.178-.624.064-.066-.114.229-.428.368-.508zM106.935 15.95l-2.572 1.484c-.139.08-.459.35-.421.416.038.067.432-.076.571-.157l2.571-1.484c.14-.08.46-.35.422-.416s-.432.076-.571.157zM105.243 18.958l2.571-1.485c.139-.08.533-.223.571-.157s-.282.336-.421.416l-2.572 1.485c-.139.08-.532.223-.571.157-.038-.067.283-.336.422-.416z"/><path fill="#9b7735" fill-rule="evenodd" d="M63.691 40.062a.55.55 0 0 0 .2-.749l1.001-.577a.548.548 0 1 0 .949-.548l4.898-2.828a.548.548 0 1 0 .948-.547l1-.578a.548.548 0 0 0 .95-.547l1-.578a.548.548 0 1 0 .948-.548l1-.577a.548.548 0 1 0 .949-.548l1.368-.79.218.377 6.683-3.858-.053-.092 1.565-.904 2.238 3.877c.059.1.024.23-.077.288l-1.893 1.093a.21.21 0 0 1-.288-.077l-1.056-1.83-23.367 13.491-1.347-2.332 1.418-.819a.55.55 0 0 0 .748.2m24.233-9.8a.548.548 0 1 0-.547-.95.548.548 0 0 0 .547.95m-.698-2.305a.548.548 0 1 1-.948.548.548.548 0 0 1 .948-.548m-2.139 1.868a.548.548 0 1 0-.547-.949.548.548 0 0 0 .547.949m-3.704 1.506a.548.548 0 1 1-.948.547.548.548 0 0 1 .948-.547m-4.098 2.998a.548.548 0 1 0-.547-.948.548.548 0 0 0 .547.948m1.95-1.125a.548.548 0 1 0-.548-.949.548.548 0 0 0 .547.949m-5.647 2.627a.548.548 0 1 1-.948.548.548.548 0 0 1 .948-.548m1.949-1.125a.548.548 0 1 1-.949.548.548.548 0 0 1 .949-.548m-5.847 3.376a.548.548 0 1 1-.948.547.548.548 0 0 1 .948-.547m1.749-.377a.548.548 0 1 0-.548-.949.548.548 0 0 0 .548.949m-5.847 3.375a.548.548 0 1 0-.547-.948.548.548 0 0 0 .547.948m1.95-1.125a.548.548 0 1 0-.549-.948.548.548 0 0 0 .548.948m-3.698 1.502a.548.548 0 1 1-.949.548.548.548 0 0 1 .949-.548" clip-rule="evenodd"/><path fill="#4a4540" fill-rule="evenodd" d="M59.095 63.417a.93.93 0 0 1 1.273.34c.155.268.28.543.407.823.131.29.266.585.437.882a.811.811 0 0 1-1.405.811c-.171-.297-.36-.56-.545-.82a9 9 0 0 1-.509-.763.933.933 0 0 1 .342-1.273m1.784 3.09c.31-.18.436-.544.28-.814s-.533-.342-.844-.162c-.31.179-.437.543-.281.812.156.27.534.343.845.164" clip-rule="evenodd"/><circle cx="59.519" cy="64.151" r=".795" fill="#413d39" transform="rotate(-30 59.52 64.151)"/><path fill="#85662e" stroke="#4c3a1a" stroke-width=".851" d="m81.346 32.832-.617.356 2.798 4.847.617-.356z"/><path fill="#615542" d="m42.94 55.814.348-.2.372.643-.348.2z"/><rect width=".255" height="9.087" fill="#8b7a55" rx=".127" transform="rotate(-5.955 674.086 -364.402)"/><rect width=".255" height="9.087" fill="#8b7a55" rx=".127" transform="rotate(-5.955 674.27 -360.891)"/><rect width=".255" height="9.087" fill="#8b7a55" rx=".127" transform="rotate(-5.955 674.456 -357.4)"/><rect width=".255" height="9.087" fill="#8b7a55" rx=".127" transform="rotate(-5.955 674.638 -353.85)"/><rect width=".255" height="9.087" fill="#8b7a55" rx=".127" transform="rotate(-5.955 674.833 -350.338)"/><path stroke="#3f3727" stroke-width=".851" d="m.074 75.182 7.181 9.803.368-.213.555.415c2.671-1.662 4.127-2.636 6.567-4.524l.199-.383c-.867-1.312-.73-2.592.017-3.702 3.632-1.716 5.934-2.835 9.174-4.625a.28.28 0 0 0 .23-.017l1.736-.955-4.994-8.718-1.08.624c-.466.269-.848 1.117-1.254 2.02l-.103.228c-.758 1.674-2.428 3.13-4.77 4.481-3.538 2.043-6.105 2.758-10.306 3.089-1.514.874-2.28 1.416-3.52 2.477z"/><path stroke="#4c3a1a" stroke-width=".851" d="M26.05 70.89 61.74 50.284l-2.865-4.961-6.206 1.806-2.287 1.32.06.104-4.91 2.835a.3.3 0 0 1-.41-.11l-.512-.887-16.376 9.455c-1.3.75-3.11 1.631-5.03 1.265l-1.027.593s-.332-.574-.852-.274c-.521.3-.214.833-.214.833z"/><path stroke="#423824" stroke-width=".851" d="m34.78 69.258 1.135-.656c.652-.376 2.181-.049 2.46 1.213.021.098.022.2.016.3l-.551 8.377a.09.09 0 0 0 .04.08l.473.32a.1.1 0 0 0 .075.012l6.081-1.68a.18.18 0 0 0 .117-.1l.243-.549a.3.3 0 0 0-.233-.42l-.37-.052a.3.3 0 0 1-.258-.28l-.448-6.976a.63.63 0 0 1 .394-.627l1.657-.67 3.03-1.72a1.9 1.9 0 0 0 .721-2.577l-1.49-2.673a.61.61 0 0 1 .17-.732c.027-.02.037-.056.02-.085l-.686-1.189-14.778 8.532 1.07 1.854a.814.814 0 0 0 1.111.298z"/><path stroke="#423824" stroke-width=".426" d="m44.483 63.408 2.6-1.462c.307-.176.887-.052 1.097.312l.74 1.381c.246.503-.047 1.336-.482 1.635-.572.394-.89.585-1.479.932l-.894.516a42 42 0 0 1-1.613.854c-.571.286-1.415-.32-1.291-.846.274-1.16.556-1.925 1.226-3.223a.24.24 0 0 1 .096-.099z"/><path fill="#957840" stroke="#47391f" stroke-width=".851" d="m30.066 68.57 4.326-2.498.61 1.055c.281.488.13 1.112-.346 1.416l-2.485 1.59a.995.995 0 0 1-1.398-.34z"/><circle cx="31.746" cy="69.041" r=".714" fill="#645844" stroke="#363330" stroke-width=".426" transform="rotate(-30 31.746 69.041)"/><circle cx="33.936" cy="67.703" r=".502" fill="#463e30" stroke="#363330" stroke-width=".426" transform="rotate(-30 33.936 67.703)"/><path fill="#8c713c" stroke="#47391f" stroke-width=".851" d="M33.779 69.105a.814.814 0 0 0 1.005.153l1.135-.655c.115-.067.257-.111.414-.132l-.178-.751.157-.826-.835-1.447-1.082.625.608 1.054c.282.488.13 1.112-.344 1.416z"/><path stroke="#363630" stroke-width=".851" d="M52.153 65a.3.3 0 0 1 .11-.412l10.614-6.128a.3.3 0 0 1 .411.11l.332.575-11.135 6.43z"/><path stroke="#363330" stroke-width=".426" d="M59.095 63.417a.93.93 0 0 1 1.273.34c.155.268.28.543.407.823.131.29.266.585.437.882a.811.811 0 0 1-1.405.811c-.171-.297-.36-.56-.545-.82a9 9 0 0 1-.509-.763.933.933 0 0 1 .342-1.273zm1.784 3.09c.31-.18.436-.544.28-.814s-.533-.342-.844-.162c-.31.179-.437.543-.281.812.156.27.534.343.845.164z" clip-rule="evenodd"/><ellipse cx="60.952" cy="66.628" fill="#44403b" rx=".65" ry=".95" transform="rotate(-30 60.952 66.628)"/><path fill="#54504a" d="m60.55 66.264.285-.165.657 1.138-.286.165z"/><ellipse cx="60.952" cy="66.628" stroke="#363330" stroke-width=".426" rx=".65" ry=".95" transform="rotate(-30 60.952 66.628)"/><rect width="9.923" height="1.133" x="54.01" y="65.011" stroke="#363330" stroke-width=".426" rx=".566" transform="rotate(-30 54.01 65.01)"/><path stroke="#46481e" stroke-width=".851" d="M55.383 69.53c.444.769.953 1.773 1.442 2.969.237.58.43.872.778 1.37.284.404.611.672 1.038 1.068s.981.616 1.822.343c1.728-.562 6.601-3.236 7.82-4.355.519-.477.59-.91.292-1.814-.243-.74-.807-1.5-1.42-2.458-1.706-2.672-2.208-4.046-2.208-5.465l-1.327-2.043-11.136 6.43c.782 1.353 1.984 2.634 2.9 3.955z"/><path fill="#c9a667" d="m73.11 42.86-2.78-.192-10.54 6.086a.904.904 0 0 0-.425 1.006l.273 1.069 2.036 3.526a.316.316 0 0 0 .547-.315l-1.706-2.956 1.83-1.057 3.832 1.36a.934.934 0 0 0 1.157-.484l.8-1.697 5.592-3.23c.49-.282.658-.909.375-1.399z"/><rect width=".438" height="2.357" fill="#daba81" rx=".219" transform="rotate(179.231 32.095 24.874)"/><rect width=".438" height="4.164" fill="#daba81" rx=".219" transform="rotate(179.231 32.875 25.336)"/><rect width=".438" height="4.164" fill="#daba81" rx=".219" transform="rotate(179.231 33.65 24.895)"/><rect width=".438" height="4.164" fill="#daba81" rx=".219" transform="rotate(179.231 34.425 24.455)"/><rect width=".438" height="4.164" fill="#daba81" rx=".219" transform="rotate(179.231 35.2 24.015)"/><rect width=".438" height="1.769" fill="#daba81" rx=".219" transform="rotate(179.231 35.975 23.575)"/><rect width=".438" height="1.197" fill="#daba81" rx=".219" transform="rotate(179.231 36.75 23.134)"/><circle cx="71.994" cy="44.168" r=".548" fill="#4f4b46" stroke="#363330" stroke-width=".426" transform="rotate(-30 71.994 44.168)"/><path stroke="#4c3a1a" stroke-width=".851" d="m73.11 42.86-2.78-.192-10.54 6.086a.904.904 0 0 0-.425 1.006l.273 1.069 2.036 3.526a.316.316 0 0 0 .547-.315l-1.706-2.956 1.83-1.057 3.832 1.36a.934.934 0 0 0 1.157-.484l.8-1.697 5.592-3.23c.49-.282.658-.909.375-1.399zM52.025 45.12l-.838-1.451.558-.323a151 151 0 0 0 4.856-2.672l1.174.659 1.337 2.317.61-.351.4.693-.609.352.264.457 7.292-4.21.81 1.403.652-.377.905 1.567-1.256.725-1.128-1.954a1 1 0 0 0-.121-.14c-.05-.046-.098-.084-.117-.073l-2.755 1.59-.098.374 1.142 1.979-.603.349-1.143-1.98-.372-.101-2.853 1.647 1.28 2.216-.825.476-1.714-2.97-6.206 1.807.004-.003-.182-.316 3.932-1.09a1.9 1.9 0 0 1-1.315-.83l-.76-1.11-.542.313.005.01a.622.622 0 0 1-1.077.621l-.005-.01z"/><path fill="#bc995c" d="m63.028 43.485-2.216 1.28-.526-.91a.15.15 0 0 1 .056-.207l1.954-1.128a.15.15 0 0 1 .206.055z"/><path fill="#44403c" stroke="#363330" stroke-width=".426" d="M39.295 65.093a.88.88 0 0 1-.115 1.04l-1.557 1.757a.328.328 0 0 1-.491-.435l.746-.842-.056-.548a.884.884 0 0 1 1.147-1.296l.432-.259-.185.468a1 1 0 0 1 .079.115z"/><circle cx="41.796" cy="63.866" r=".297" fill="#463e30" stroke="#363330" stroke-width=".426" transform="rotate(-30 41.796 63.865)"/><circle cx="40.415" cy="62.676" r=".681" fill="#463e30" stroke="#363330" stroke-width=".426" transform="rotate(-30 40.415 62.676)"/><path stroke="#4c3a1a" stroke-width=".851" d="M63.691 40.062a.55.55 0 0 0 .2-.749l1.001-.577a.548.548 0 1 0 .949-.548l4.898-2.828a.548.548 0 1 0 .948-.547l1-.578a.548.548 0 0 0 .95-.547l1-.578a.548.548 0 1 0 .948-.548l1-.577a.548.548 0 1 0 .949-.548l1.368-.79.218.377 6.683-3.858-.053-.092 1.565-.904 2.238 3.877c.059.1.024.23-.077.288l-1.893 1.093a.21.21 0 0 1-.288-.077l-1.056-1.83-23.367 13.491-1.347-2.332 1.418-.819a.55.55 0 0 0 .748.2z"/><path stroke="#4c3a1a" stroke-width=".426" d="M87.924 30.261a.548.548 0 1 0-.548-.948.548.548 0 0 0 .548.948zM87.226 27.957a.548.548 0 1 1-.948.548.548.548 0 0 1 .948-.548zM85.087 29.824a.548.548 0 1 0-.548-.948.548.548 0 0 0 .548.948zM81.383 31.33a.548.548 0 1 1-.948.548.548.548 0 0 1 .948-.548zM77.285 34.329a.548.548 0 1 0-.548-.949.548.548 0 0 0 .548.949zM79.234 33.204a.548.548 0 1 0-.548-.949.548.548 0 0 0 .548.949zM73.588 35.831a.548.548 0 1 1-.949.548.548.548 0 0 1 .949-.548zM75.537 34.706a.548.548 0 1 1-.95.547.548.548 0 0 1 .95-.547zM69.69 38.081a.548.548 0 1 1-.948.548.548.548 0 0 1 .948-.548zM71.438 37.704a.548.548 0 1 0-.547-.948.548.548 0 0 0 .547.948zM65.592 41.08a.548.548 0 1 0-.548-.949.548.548 0 0 0 .548.949zM67.54 39.955a.548.548 0 1 0-.547-.949.548.548 0 0 0 .548.949zM63.844 41.457a.548.548 0 1 1-.949.548.548.548 0 0 1 .948-.548z"/><path fill="#8d7b55" d="M51.744 43.347 22.357 60.314l.557.963c1.957.456 4.247-.128 5.587-.89l16.406-9.473-.683-1.184 4.785-2.763.533.923 2.677-1.545-.655-1.134.942-.544a.762.762 0 1 0-.762-1.32"/><path fill="#3d3a36" stroke="#363330" stroke-width=".426" d="m52.671 47.128-.452-.783-2.873 1.659.49.85-2.457 1.418 1.1.307 2.008-1.159a.39.39 0 0 0 .143-.535l-.25-.434z"/><path fill="#44403c" stroke="#363330" stroke-width=".426" d="m26.92 57.328 4.475-2.584-.636-1.101-4.476 2.584z"/><circle cx="29.677" cy="52.868" r=".357" fill="#3c3835" transform="rotate(-30 29.677 52.868)"/><circle cx="30.55" cy="54.575" r=".402" fill="#3c3835" transform="rotate(-30 30.55 54.575)"/><circle cx="27.194" cy="56.51" r=".402" fill="#3c3835" transform="rotate(-30 27.194 56.51)"/><circle cx="28.172" cy="54.913" r=".944" fill="#413d3a" transform="rotate(-30 28.172 54.913)"/><circle cx="28.17" cy="54.913" r=".611" fill="#3c3835" transform="rotate(-30 28.17 54.913)"/><circle cx="52.126" cy="44.008" r=".477" fill="#463e30" transform="rotate(-30 52.126 44.008)"/><path stroke="#403826" stroke-width=".851" d="M51.744 43.347 22.357 60.314l.557.963c1.957.456 4.247-.128 5.587-.89l16.406-9.473-.683-1.184 4.785-2.763.533.923 2.677-1.545-.655-1.134.942-.544a.762.762 0 1 0-.762-1.32z"/><path fill="#44403c" d="M20.682 60.933a.712.712 0 0 1 1.233-.712l.876 1.517.407-.236 1.764-.153a.964.964 0 1 0-.176-1.92l-1.784.16-.904.523a.925.925 0 1 0-.968 1.374.106.106 0 1 0 .04-.21.71.71 0 0 1-.488-.343"/><circle cx="24.899" cy="60.387" r=".871" fill="#3c3835" transform="rotate(-120 24.899 60.387)"/><path stroke="#363330" stroke-width=".851" d="M27.256 53.65a.27.27 0 0 1 .118-.139l2.274-1.312a.24.24 0 0 1 .329.088l1.419 2.457-4.476 2.584-.636-1.1z"/><path stroke="#3d3629" stroke-width=".426" d="m43.29 55.615-.348.2.372.644-2.042 1.178.175.305-.991.572-.21-.362-1.387.8.724 1.255 1.388-.8-.21-.364.992-.572.175.304 13.387-7.729-.657-1.137-10.997 6.349z"/><path fill="#564b3a" stroke="#3d3629" stroke-width=".851" d="m42.826 53.293 1.387-.8 3.641 6.305-1.387.801z"/><path fill="#c4a165" d="M59.569 45.71a1 1 0 0 0-.231.113l-.797.573a1 1 0 0 0-.177.176c-.09.11-.22.228-.377.337a2 2 0 0 1-.411.224 1 1 0 0 0-.205.104l-.86.618a1 1 0 0 0-.165.162c-.09.107-.218.223-.37.329-.137.095-.274.17-.397.218a1 1 0 0 0-.19.099l-.782.561c-.088.063-.156.15-.222.235-.091.117-.229.245-.397.362a2 2 0 0 1-.45.238 1 1 0 0 0-.266.125l-.745.536a.213.213 0 0 0-.054.289l1.177 1.802a.213.213 0 0 0 .306.054l.95-.713a1 1 0 0 0 .175-.182c.084-.11.203-.229.346-.34.156-.121.315-.213.45-.266.087-.034.174-.07.248-.126l.685-.514c.086-.064.152-.152.215-.24a2 2 0 0 1 .367-.368 1.9 1.9 0 0 1 .47-.273c.114-.043.233-.083.33-.156l.525-.394c.11-.082.188-.2.267-.312.084-.12.214-.254.374-.379s.324-.218.461-.27c.15-.057.313-.1.44-.196l.364-.272c.14-.105.232-.268.335-.41.085-.117.211-.246.366-.366.145-.113.292-.2.42-.254.193-.081.424-.13.59-.255l1.578-1.183a.213.213 0 0 0 .057-.277l-.943-1.634-2.216 1.28-.225.161a1 1 0 0 0-.196.201c-.091.114-.226.238-.389.351-.15.105-.3.184-.431.232"/><path fill="#b7965c" d="M59.453 45.757q.058-.026.117-.048c.131-.047.282-.126.432-.231.163-.113.297-.237.388-.351q.045-.056.091-.107l1.546 1.712-.089.03q-.098.034-.192.072a2 2 0 0 0-.42.254 1.9 1.9 0 0 0-.433.462q-.038.055-.078.11zM57.473 47.177q.052-.023.105-.045a2 2 0 0 0 .41-.223c.157-.109.288-.228.378-.338q.039-.048.082-.093l1.587 1.776-.114.041-.1.036a1.9 1.9 0 0 0-.461.271c-.16.124-.29.258-.375.378l-.021.031q-.045.066-.095.13zM55.484 48.606a1 1 0 0 1 .097-.043 2 2 0 0 0 .397-.218 2 2 0 0 0 .37-.329q.036-.044.077-.085l1.603 1.848q-.068.029-.137.053l-.027.01a1.9 1.9 0 0 0-.47.274 2 2 0 0 0-.367.368q-.045.065-.096.125zM53.406 50.11q.065-.03.133-.051c.135-.047.293-.128.451-.238a1.9 1.9 0 0 0 .397-.362q.048-.064.1-.123l1.518 1.974q-.062.03-.126.054a1.9 1.9 0 0 0-.45.266c-.143.11-.262.23-.346.34a1 1 0 0 1-.08.095z"/><path stroke="#4a391c" stroke-width=".851" d="m60.811 44.765-.526-.91a.15.15 0 0 1 .055-.206l1.955-1.13a.15.15 0 0 1 .206.056l.526.91.943 1.634a.213.213 0 0 1-.056.277l-1.577 1.183a1.4 1.4 0 0 1-.399.184q-.098.033-.192.071a2 2 0 0 0-.42.255 1.9 1.9 0 0 0-.433.461c-.08.115-.16.232-.269.314l-.363.273c-.1.074-.22.117-.34.159l-.1.036c-.138.052-.3.146-.461.27a1.9 1.9 0 0 0-.375.379l-.012.016-.01.015a1.2 1.2 0 0 1-.244.281l-.525.394c-.09.067-.197.107-.304.146l-.027.01a1.9 1.9 0 0 0-.47.274c-.154.12-.282.25-.366.368-.064.087-.13.175-.216.24l-.684.513a1 1 0 0 1-.248.126 1.9 1.9 0 0 0-.45.267 2 2 0 0 0-.346.339 1 1 0 0 1-.175.182l-.95.713a.213.213 0 0 1-.306-.054l-1.177-1.802a.213.213 0 0 1 .054-.29l.745-.535a1 1 0 0 1 .265-.125c.135-.046.293-.128.45-.238.169-.117.307-.245.397-.361.067-.086.135-.173.223-.236l.78-.561a1 1 0 0 1 .192-.1c.122-.048.26-.122.397-.217a2 2 0 0 0 .37-.329 1 1 0 0 1 .165-.162l.86-.617a1 1 0 0 1 .205-.105c.126-.048.268-.124.41-.223.157-.11.287-.228.378-.338a1 1 0 0 1 .177-.176l.796-.573c.07-.05.15-.084.231-.113.131-.048.282-.127.432-.231.163-.114.297-.238.388-.351.059-.074.12-.147.197-.202z"/><path stroke="#363330" stroke-width=".426" d="M20.682 60.933a.712.712 0 0 1 1.233-.712l.876 1.517.407-.236 1.764-.153a.964.964 0 1 0-.176-1.92l-1.784.16-.904.523a.925.925 0 1 0-.968 1.374.106.106 0 1 0 .04-.21.71.71 0 0 1-.488-.343zM83.13 22.693l-.551-.993a.9.9 0 0 0-1.234-.34.89.89 0 0 0-.329 1.217.03.03 0 0 1-.01.04l-.037.022a.144.144 0 0 0-.055.194L81.555 24l1.486-.858-.173-.299z"/></g><defs><clipPath id="a"><path fill="#fff" d="M0 0h110v110H0z"/></clipPath></defs></svg>