<?xml version="1.0" encoding="UTF-8" standalone="no"?>
<svg
   width="101.72941"
   height="108.30424"
   viewBox="0 0 101.72941 108.30424"
   fill="none"
   version="1.1"
   id="svg40"
   xmlns="http://www.w3.org/2000/svg"
   xmlns:svg="http://www.w3.org/2000/svg">
  <g
     clip-path="url(#clip0_619_1149)"
     id="g40"
     transform="matrix(0.98172335,0.26305198,-0.26305198,0.98172335,8.5592722,-18.759371)">
    <path
       d="m 60.4245,39.5484 c 0,0 2.2168,4.9973 4.2197,5.655 2.0029,0.6577 2.3388,0.0819 2.3388,0.0819 0,0 -4.0617,-2.4045 -4.1644,-4.7322 -0.1026,-2.3277 0.3986,-2.6171 0.3986,-2.6171 z"
       fill="#42494c"
       stroke="#2f3437"
       stroke-width="1.36893"
       stroke-miterlimit="3.99393"
       stroke-linecap="round"
       id="path1" />
    <path
       d="m 12.5613,56.9585 c 0.6263,1.0662 1.0089,1.0222 1.7692,0.6008 L 18.4729,55.1677 17.214,52.9872 72.7288,20.9357 c 0,0 1.5831,-0.4891 1.936,0.4529 0.3529,0.942 -1.2211,6.2427 -1.2211,6.2427 l 7.8748,-4.5465 c 0,0 -0.0717,-0.6542 -0.549,-1.5215 C 78.8212,18.0231 73.7315,8.84499 72.316,6.99084 72.1361,7.07018 66.0144,10.629 66.0144,10.629 L 65.601,9.91296 61.5909,12.2282 c 0,0 -0.4158,-0.5248 -1.5066,0.106 L 21.7638,34.4586 c -0.811,0.4667 -0.1082,1.2082 -0.1082,1.2082 L 18.84,37.2924 c -0.2302,0.3401 0.0561,0.5405 0.0561,0.5405 L 5.86332,45.3573 Z"
       fill="#434a4d"
       id="path2" />
    <path
       d="M 54.2293,15.7129 58.5609,13.212 55.9066,8.61467 c 0,0 -1.9401,0.29032 -0.9033,2.11483 1.0367,1.8244 -1.1287,4.3691 -1.1287,4.3691 z"
       fill="#484f53"
       stroke="#2f3437"
       stroke-width="1.36893"
       stroke-miterlimit="3.99393"
       stroke-linecap="round"
       id="path3" />
    <path
       d="m 77.7891,14.4902 0.8605,-0.4968 3.4582,5.9898 -0.8605,0.4968 z"
       fill="#3e4447"
       id="path4" />
    <path
       d="M 78.377,13.5166 93.22,4.94707 97.2282,11.8894 82.3852,20.459 Z"
       fill="#4b5256"
       id="path5" />
    <path
       d="m 76.7871,14.4336 0.7243,-0.4182 4.0082,6.9424 -0.7243,0.4182 z"
       fill="#4b5256"
       id="path6" />
    <path
       d="m 77.5114,14.0154 -0.7243,0.4182 4.0082,6.9424 0.7243,-0.4182 -0.275,-0.4763 0.8605,-0.4968 0.275,0.4763 14.843,-8.5696 -4.0081,-6.94233 -14.8431,8.56953 0.275,0.4763 -0.8605,0.4968 z"
       stroke="#2f3437"
       stroke-width="1.36893"
       stroke-miterlimit="3.99393"
       stroke-linecap="round"
       id="path7" />
    <path
       fill-rule="evenodd"
       clip-rule="evenodd"
       d="m 54.1152,41.6133 5.1582,8.9342 8.4197,-0.6763 c 0.1799,-0.0891 0.9545,-0.4707 1.2701,-0.6302 0.6306,-0.3188 1.4926,-0.7621 2.4163,-1.2591 1.7887,-0.9624 3.9956,-2.2232 5.0852,-3.1807 1.3209,-1.1609 1.675,-2.6358 1.7161,-3.7285 0.0205,-0.5461 -0.0347,-1.0204 -0.0946,-1.3594 -0.0302,-0.1709 -0.0622,-0.3114 -0.0884,-0.4141 -0.013,-0.0515 -0.0684,-0.2808 -0.0988,-0.3334 l -4.7995,-8.3131 z m 12.8793,5.5515 -6.2153,0.5151 -2.924,-5.0645 14.2421,-8.2227 3.2645,5.6542 c 0.0642,0.1112 0.0946,0.6151 0.083,0.923 -0.0231,0.6151 -0.2082,1.2657 -0.7875,1.7747 -0.8106,0.7125 -2.7212,1.8288 -4.575,2.8262 -0.8975,0.4829 -1.7379,0.9151 -2.3544,1.2269 -0.308,0.1557 -0.5595,0.281 -0.7334,0.3671 z"
       fill="#34393c"
       id="path8" />
    <path
       d="m 54.1152,41.6133 -0.3422,-0.5928 -0.5928,0.3423 0.3423,0.5927 z m 5.1582,8.9342 -0.5927,0.3422 0.2163,0.3747 0.4312,-0.0346 z m 8.4197,-0.6763 0.0548,0.6823 0.1311,-0.0105 0.1178,-0.0584 z m 1.2701,-0.6302 0.3088,0.6108 v 0 z m 2.4163,-1.2591 0.3243,0.6027 v 0 z m 5.0852,-3.1807 0.4518,0.5141 z m 1.7161,-3.7285 -0.684,-0.0257 v 0 z m -0.0946,-1.3594 0.6741,-0.119 v 0 z m -0.0884,-0.4141 -0.6633,0.1685 v 0 z M 77.899,38.9658 78.4917,38.6235 Z M 73.0995,30.6527 73.6922,30.3105 73.35,29.7177 72.7572,30.06 Z m -6.105,16.5121 0.0565,0.6821 0.1302,-0.0108 0.117,-0.0579 z m -6.2153,0.5151 -0.5928,0.3422 0.217,0.3758 0.4323,-0.0359 z m -2.924,-5.0645 -0.3422,-0.5928 -0.5928,0.3423 0.3422,0.5927 z M 72.0973,34.3927 72.6901,34.0505 72.3479,33.4577 71.7551,33.8 Z m 3.2645,5.6542 0.5927,-0.3423 z m 0.083,0.923 0.684,0.0257 v 0 z m -0.7875,1.7747 0.4519,0.5142 v 0 z m -4.575,2.8262 -0.3243,-0.6027 v 0 z m -2.3544,1.2269 0.3088,0.6108 v 0 z m 0.9264,1.8325 c -0.3121,0.1578 -1.0812,0.5367 -1.2649,0.6276 l 0.6074,1.2268 c 0.1761,-0.0872 0.9562,-0.4715 1.2752,-0.6328 z m 2.4009,-1.2511 c -0.9171,0.4935 -1.7738,0.934 -2.4009,1.2511 l 0.6177,1.2216 c 0.6341,-0.3206 1.5016,-0.7667 2.4318,-1.2672 z m 4.9576,-3.0921 c -1.0199,0.8964 -3.1531,2.1213 -4.9576,3.0921 l 0.6486,1.2055 c 1.7729,-0.9538 4.0536,-2.2506 5.2127,-3.2693 z m 1.484,-3.24 c -0.0366,0.9743 -0.349,2.2426 -1.484,3.24 l 0.9037,1.0283 c 1.5069,-1.3243 1.9027,-3.0058 1.9482,-4.2169 z m -0.0846,-1.2146 c 0.0536,0.3035 0.1029,0.728 0.0846,1.2146 l 1.3679,0.0514 c 0.0228,-0.6056 -0.0383,-1.1297 -0.1044,-1.5041 z m -0.0777,-0.3647 c 0.0224,0.0883 0.0508,0.2122 0.0777,0.3647 l 1.3481,-0.2381 C 78.7268,39.4049 78.691,39.2478 78.6612,39.1306 Z M 77.3062,39.308 c -0.0127,-0.022 -0.0208,-0.0394 -0.0246,-0.0477 -0.0042,-0.0093 -0.0068,-0.0159 -0.0079,-0.0185 -0.0019,-0.0049 -0.0016,-0.0046 9e-4,0.003 0.0049,0.0149 0.0118,0.0385 0.0202,0.0691 0.017,0.062 0.031,0.1196 0.0397,0.1538 l 1.3267,-0.3371 C 78.6568,39.1133 78.6366,39.0305 78.615,38.9519 78.6041,38.9122 78.5907,38.8653 78.5762,38.8209 78.5683,38.7965 78.54,38.7071 78.4917,38.6235 Z m -16.4705,9.054 6.2153,-0.5151 -0.113,-1.3642 -6.2153,0.5151 z m -3.5733,-5.4044 2.924,5.0645 1.1856,-0.6844 -2.924,-5.0645 z M 71.7551,33.8 57.513,42.0226 l 0.6844,1.1856 14.2422,-8.2227 z m 4.1994,5.9046 -3.2644,-5.6541 -1.1855,0.6844 3.2644,5.6542 z m 0.1743,1.291 c 0.0069,-0.1835 0.0013,-0.4134 -0.0148,-0.6153 -0.008,-0.101 -0.0195,-0.2066 -0.0361,-0.3022 -0.0108,-0.0626 -0.0393,-0.2278 -0.1234,-0.3735 l -1.1855,0.6845 c -0.0197,-0.034 -0.0306,-0.0612 -0.0355,-0.0741 -0.0054,-0.0141 -0.0081,-0.0235 -0.0087,-0.0258 -0.0011,-0.0041 7e-4,0.0021 0.0042,0.0221 0.0069,0.0398 0.0143,0.1003 0.0204,0.1776 0.0123,0.1548 0.0161,0.3309 0.0115,0.4552 z m -1.0196,2.2632 c 0.7635,-0.671 0.9919,-1.5265 1.0196,-2.2632 l -1.3679,-0.0515 c -0.0186,0.4937 -0.1604,0.9392 -0.5554,1.2864 z m -4.7026,2.9148 c 1.837,-0.9883 3.822,-2.141 4.7026,-2.9148 l -0.9037,-1.0283 c -0.7408,0.651 -2.5768,1.7311 -4.4475,2.7376 z m -2.3699,1.2349 c 0.62,-0.3135 1.4659,-0.7485 2.3699,-1.2349 L 69.758,44.9681 c -0.891,0.4794 -1.7259,0.9088 -2.339,1.2187 z m -0.7385,0.3697 c 0.1755,-0.0869 0.4286,-0.213 0.7385,-0.3697 L 67.419,46.1868 c -0.306,0.1548 -0.5558,0.2792 -0.7282,0.3646 z M 54.4575,42.206 73.4417,31.2455 72.7572,30.06 53.773,41.0205 Z m 5.4087,7.9993 -5.1582,-8.9343 -1.1855,0.6845 5.1582,8.9342 z m 7.7721,-1.0163 -8.4197,0.6762 0.1096,1.3646 8.4197,-0.6763 z m 4.8684,-18.194 4.7995,8.313 1.1855,-0.6845 -4.7995,-8.313 z"
       fill="#2f3437"
       id="path9" />
    <path
       d="M 5.81701,45.3829 4.0806,42.3754 c 0,0 -1.04328,-2.3934 0.95649,-3.5121 l 6.08671,-3.5141 c 1.0404,-0.5073 1.3869,-0.2439 2.4274,1.5583 l 1.7364,3.0076 z"
       fill="#4c5457"
       stroke="#2f3437"
       stroke-width="2.73785"
       stroke-miterlimit="3.99393"
       stroke-linecap="round"
       id="path10" />
    <path
       d="M 65.1223,10.0792 64.173,8.43497 C 63.8312,8.05366 65.3114,3.04788 65.3114,3.04788 l 2.3401,-1.35104 c 0,0 1.1894,-0.46948 1.6647,0.58378 0.4753,1.05326 2.8408,4.92034 2.8408,4.92034 l -5.9249,3.42074 -0.5975,0.3449 z"
       fill="#363c3f"
       stroke="#2f3437"
       stroke-width="1.36893"
       stroke-miterlimit="3.99393"
       stroke-linecap="round"
       id="path11" />
    <path
       opacity="0.98"
       d="m 71.3596,75.2348 15.0881,26.1332 -10.219,5.9 -15.0881,-26.1332 z"
       fill="#50575b"
       stroke="#2f3437"
       stroke-width="2.73785"
       stroke-miterlimit="3.99393"
       stroke-linecap="round"
       id="path12" />
    <path
       d="m 55.9924,42.1856 16.8527,29.1897 c 0,0 0.8391,0.5827 1.6121,0.6591 0.4244,0.3702 0.4423,0.5417 0.4423,0.5417 0,0 -1.9002,1.67 -2.5447,2.0421 -0.6445,0.3721 -15.7028,9.2867 -16.1835,9.3435 -0.4808,0.0569 -2.7574,0.3508 -4.1822,-1.7864 -1.4249,-2.1372 -4.9547,-14.039 -4.9547,-14.039 0,0 -3.1346,-7.7445 -5.0481,-10.3974 -1.9135,-2.6528 -4.1895,-3.4943 -4.9502,-3.1166 -0.7606,0.3776 -1.3622,-0.7058 -1.3622,-0.7058 z"
       fill="#383e41"
       id="path13" />
    <path
       d="m 66.6275,11.7025 1.5338,2.6566 -1.7849,1.0305 -4.249,0.4054 -44.7596,25.842 c 0,0 -0.7057,0.3398 -1.1823,0.2206 -0.2701,-0.0675 -0.4195,-0.7902 -0.4195,-0.7902 z"
       fill="#3b4043"
       stroke="#2f3437"
       stroke-width="1.36893"
       stroke-miterlimit="3.99393"
       stroke-linecap="round"
       id="path14" />
    <path
       d="m 48.5166,62.4369 c 0.7606,-0.4391 1.7343,-0.1782 2.1734,0.5824 0.4391,0.7606 0.1782,1.7342 -0.5824,2.1734 -0.7606,0.4391 -1.7343,0.1782 -2.1734,-0.5824 -0.4391,-0.7606 -0.1782,-1.7343 0.5824,-2.1734 z"
       fill="#576064"
       stroke="#2f3437"
       stroke-width="1.36893"
       stroke-miterlimit="3.99393"
       stroke-linecap="round"
       id="path15" />
    <path
       d="m 53.8791,70.9811 c 0.8378,-0.4837 1.9104,-0.1963 2.3941,0.6415 0.4837,0.8378 0.1963,1.9104 -0.6415,2.3941 -0.8378,0.4837 -1.9104,0.1963 -2.3941,-0.6415 -0.4837,-0.8378 -0.1963,-1.9104 0.6415,-2.3941 z"
       fill="#576064"
       stroke="#2f3437"
       stroke-width="1.36893"
       stroke-miterlimit="3.99393"
       stroke-linecap="round"
       id="path16" />
    <path
       d="M 53.6877,55.0946 54.372,56.2803 57.0813,54.716 56.397,53.5304 Z"
       fill="#34393c"
       id="path17" />
    <path
       d="m 53.2423,57.5566 0.6844,1.1856 4.1122,-2.3742 -0.6842,-1.1857 z"
       fill="#34393c"
       id="path18" />
    <path
       d="m 52.5939,60.0272 0.6843,1.1857 5.6663,-3.2715 -0.6844,-1.1855 z"
       fill="#34393c"
       id="path19" />
    <path
       d="m 52.0138,62.6445 0.6843,1.1856 7.2345,-4.1768 -0.6842,-1.1857 z"
       fill="#34393c"
       id="path20" />
    <path
       d="m 32.833,39.9638 c 0,0 -0.5294,-0.9992 -1.3109,-0.598 l -6.3133,3.645 c -0.9876,0.5591 -1.4407,-0.4564 -1.4407,-0.4564 0,0 -0.5018,-0.7153 0.4309,-1.2926 l 7.8791,-4.5491 c 1.1529,-0.4844 1.7146,0.6232 1.7146,0.6232 l 0.898,1.5554 c 0.545,0.7035 1.4023,0.39 1.4023,0.39 l 15.7339,-9.084 c 0.928,-0.658 0.4634,-1.4672 0.4634,-1.4672 l -1.2779,-2.2133 c -0.4293,-0.8572 0.5245,-1.2385 0.5245,-1.2385 l 8.8363,-5.1017 c 1.017,-0.58 1.4234,0.2727 1.4234,0.2727 0,0 0.6423,0.8239 -0.4136,1.4764 l -6.6797,3.8566 c -1.1849,0.7166 -0.9154,1.3347 -0.5747,1.8865 0.3408,0.5517 0.6865,1.0377 1.9377,0.3205 l 6.6132,-3.8181 c 1.0819,-0.6458 1.3745,0.1881 1.3745,0.1881 0,0 0.512,0.7538 -0.4974,1.3311 L 27.2958,46.6255 c -0.9643,0.5401 -1.3349,-0.2732 -1.3349,-0.2732 0,0 -0.5928,-0.7958 0.354,-1.4257 l 6.3133,-3.6449 c 0.532,-0.7181 0.2048,-1.3179 0.2048,-1.3179 z"
       fill="#565e62"
       stroke="#2f3437"
       stroke-width="1.36893"
       stroke-miterlimit="3.99393"
       stroke-linecap="round"
       id="path21" />
    <path
       d="m 49.9688,65.9197 c 1.0639,-0.5822 2.2892,-1.2738 3.5065,-1.9694 l 6.7011,-3.8689 0.6845,1.1855 -1.4401,0.8315 c -0.3482,0.201 -0.7676,0.4442 -1.2382,0.717 -1.1373,0.6594 -2.5732,1.492 -4.0227,2.3203 l -0.1855,0.1071 c -2.1527,1.2429 -3.6252,2.0465 -4.6252,2.5637 -0.2354,0.1235 -0.4557,0.2368 -0.6578,0.3381 -0.4645,0.233 -0.8818,0.4278 -1.1677,0.5208 -0.0092,0.0033 -0.0181,0.0065 -0.0267,0.0096 -0.0544,0.0192 -0.1063,0.0357 -0.1544,0.0483 l -0.0027,7e-4 c -0.0274,0.0073 -0.1241,0.0328 -0.2354,0.0298 -0.0325,-9e-4 -0.1095,-0.0047 -0.2012,-0.035 -0.0755,-0.025 -0.3088,-0.1179 -0.4208,-0.3933 -0.119,-0.2923 -8e-4,-0.5343 0.0522,-0.6201 0.0572,-0.0924 0.1227,-0.1489 0.1495,-0.171 0.0979,-0.0806 0.1993,-0.1178 0.227,-0.128 l 8e-4,-3e-4 c 0.0547,-0.0201 0.1256,-0.0401 0.2072,-0.0511 0.066,-0.0257 0.1566,-0.0633 0.2775,-0.1169 0.2793,-0.124 0.7,-0.325 1.3178,-0.6445 0.3783,-0.1984 0.8005,-0.4256 1.2543,-0.6739 z"
       fill="#34393c"
       id="path22" />
    <path
       d="m 47.3585,69.2174 -0.297,0.1418 -0.0747,0.3206 c -0.0264,0.1135 -0.0442,0.3227 0.085,0.5333 0.1285,0.2097 0.3214,0.2885 0.4318,0.3166 0.1817,0.0463 0.3444,0.0106 0.3908,3e-4 l 0.0027,-5e-4 c 0.1371,-0.03 0.2949,-0.0906 0.439,-0.1512 0.1221,-0.0513 0.2636,-0.1154 0.4217,-0.1903 0.0921,-0.0355 0.1974,-0.079 0.3202,-0.1332 0.779,-0.3436 2.3218,-1.1451 5.8473,-3.1805 l 4.449,-2.5687 c 0.3039,-0.1753 0.5639,-0.3254 0.7687,-0.4437 l 1.6632,-0.9604 -0.6844,-1.1855 -2.429,1.4024 c -1.4052,0.8104 -3.7521,2.1587 -5.9493,3.3863 -1.4339,0.8012 -2.7969,1.547 -3.7908,2.0577 -0.2798,0.1438 -0.5256,0.2664 -0.7325,0.3654 -0.1301,0.0482 -0.2076,0.068 -0.2699,0.0834 l -0.0342,0.0084 c -0.1381,0.0337 -0.2936,0.0717 -0.5576,0.1978 z"
       fill="#34393c"
       id="path23" />
    <path
       d="m 48.0489,70.9483 -0.5696,0.1843 0.1069,0.589 c 0.0289,0.1597 0.1113,0.3093 0.2412,0.4204 0.1186,0.1014 0.2439,0.143 0.3275,0.1612 0.1542,0.0335 0.2924,0.0139 0.3607,0.0021 0.1557,-0.0269 0.3302,-0.0868 0.4921,-0.1499 0.1494,-0.0582 0.3222,-0.1328 0.514,-0.2208 0.1236,-0.0496 0.2625,-0.1096 0.4202,-0.1829 0.7419,-0.3448 2.021,-1.0235 4.5057,-2.4416 2.2104,-1.2454 4.525,-2.5954 5.9018,-3.3983 0.423,-0.2467 0.7574,-0.4418 0.9731,-0.5663 l 1.424,-0.8221 -0.6844,-1.1856 -6.8096,3.9315 c -0.5384,0.3108 -1.0313,0.5939 -1.483,0.8516 l -0.1527,0.086 c -1.4639,0.8233 -2.8627,1.589 -3.8983,2.1111 -0.3005,0.1515 -0.5643,0.2794 -0.7866,0.3811 -0.192,0.075 -0.2934,0.097 -0.4165,0.1237 -0.1108,0.024 -0.2391,0.0519 -0.4665,0.1255 z"
       fill="#34393c"
       id="path24" />
    <path
       fill-rule="evenodd"
       clip-rule="evenodd"
       d="m 50.5091,78.1335 -0.5424,0.1853 0.0871,0.5664 c 0.0265,0.1725 0.1152,0.3343 0.2583,0.4502 0.1275,0.1034 0.2603,0.1399 0.3422,0.1543 0.1529,0.0267 0.2899,0.0032 0.3577,-0.0103 0.157,-0.0312 0.3375,-0.0959 0.5112,-0.1659 0.1592,-0.0642 0.3441,-0.146 0.5501,-0.2423 0.1331,-0.0552 0.2839,-0.1219 0.4567,-0.2036 0.8013,-0.3792 2.1897,-1.1208 4.8974,-2.6675 2.4077,-1.3593 4.9301,-2.8292 6.4317,-3.7043 0.4616,-0.269 0.8267,-0.4818 1.0623,-0.6178 l 1.5522,-0.8961 -0.6843,-1.1857 -7.4233,4.2859 c -0.5871,0.339 -1.1247,0.6477 -1.6172,0.9291 l -0.1669,0.0941 c -1.5954,0.8991 -3.1205,1.7376 -4.2491,2.3129 -0.3265,0.1664 -0.6142,0.3079 -0.8574,0.4214 -0.2219,0.09 -0.3393,0.1185 -0.4787,0.1524 -0.1196,0.0292 -0.2555,0.0622 -0.4876,0.1415 z m 0.2356,0.0034 c -0.0074,0.0014 -0.0059,6e-4 0.0028,-6e-4 z"
       fill="#34393c"
       id="path25" />
    <path
       fill-rule="evenodd"
       clip-rule="evenodd"
       d="m 51.1577,79.8749 -0.5394,0.1853 0.085,0.564 c 0.0262,0.174 0.1157,0.3373 0.2603,0.4538 0.1286,0.1036 0.2623,0.1395 0.344,0.1534 0.1529,0.0261 0.29,0.0022 0.3582,-0.0116 0.158,-0.0319 0.3402,-0.0974 0.5167,-0.1688 0.1615,-0.0654 0.3491,-0.1486 0.5583,-0.2467 0.1353,-0.0561 0.2887,-0.1242 0.4647,-0.2076 0.8144,-0.3862 2.2266,-1.141 4.982,-2.7151 2.4499,-1.3834 5.0167,-2.8791 6.5448,-3.7695 0.4699,-0.2738 0.8415,-0.4904 1.0814,-0.6288 l 1.5795,-0.912 -0.6842,-1.1856 -7.5544,4.3615 c -0.5975,0.3449 -1.1445,0.6592 -1.6458,0.9455 l -0.1699,0.0959 c -1.6235,0.9152 -3.1757,1.7689 -4.3242,2.355 -0.3321,0.1695 -0.625,0.3138 -0.8727,0.4296 -0.2277,0.0927 -0.3483,0.1224 -0.4909,0.1575 -0.1216,0.03 -0.2594,0.0639 -0.4934,0.1442 z m 0.237,0.0031 c -0.0079,0.0016 -0.0065,7e-4 0.0026,-5e-4 z"
       fill="#34393c"
       id="path26" />
    <path
       d="m 50.1796,72.321 c 0.1918,-0.0929 0.3735,-0.1891 0.5372,-0.2796 l 0.9338,-0.5391 0.6846,1.1855 -0.3001,0.1732 c -0.0295,0.017 -0.0677,0.0396 -0.1136,0.0667 -0.1259,0.0743 -0.3092,0.1825 -0.5261,0.3026 l -0.4951,0.2859 c -0.7977,0.4606 -1.391,0.6225 -1.8029,0.6449 -0.179,0.0097 -0.3997,-0.0025 -0.5873,-0.0929 l -0.0022,-0.001 c -0.0324,-0.0155 -0.1859,-0.089 -0.2947,-0.2606 -0.0678,-0.1072 -0.1552,-0.3178 -0.077,-0.5721 0.0744,-0.2424 0.2507,-0.3625 0.3425,-0.4101 0.1622,-0.0842 0.3141,-0.0806 0.3504,-0.0797 l 0.0015,1e-4 c 0.0218,5e-4 0.0428,0.0019 0.0626,0.0038 0.3036,-0.0141 0.7701,-0.1775 1.2864,-0.4276 z"
       fill="#34393c"
       id="path27" />
    <path
       d="m 50.5823,74.2057 c 0.1695,-0.0857 0.3309,-0.173 0.4765,-0.2543 l 0.8248,-0.4762 0.6847,1.1854 -0.265,0.153 c -0.0266,0.0153 -0.0609,0.0355 -0.1019,0.0595 -0.1117,0.0656 -0.2729,0.1603 -0.4626,0.2664 l -0.4376,0.2526 c -0.6949,0.4012 -1.1923,0.569 -1.531,0.6219 -0.0859,0.0134 -0.168,0.0204 -0.2449,0.0202 -0.0629,-2e-4 -0.1693,-0.005 -0.2821,-0.042 -0.0315,-0.0104 -0.0804,-0.0287 -0.135,-0.06 -0.0444,-0.0255 -0.1514,-0.0923 -0.2369,-0.2234 -0.106,-0.1627 -0.1639,-0.4125 -0.0488,-0.6628 0.0909,-0.198 0.2441,-0.2898 0.3034,-0.3213 0.1267,-0.0675 0.2435,-0.0785 0.2782,-0.0816 0.018,-0.0016 0.0354,-0.0025 0.0521,-0.003 0.2589,-0.0388 0.6708,-0.2041 1.1261,-0.4344 z"
       fill="#34393c"
       id="path28" />
    <path
       d="m 56.1857,68.9149 0.6843,1.1857 6.8197,-3.9374 -0.6842,-1.1856 z"
       fill="#34393c"
       id="path29" />
    <path
       d="m 57.8848,72.1435 0.6844,1.1856 6.9444,-4.0094 -0.6842,-1.1857 z"
       fill="#34393c"
       id="path30" />
    <path
       d="m 57.6309,70.1289 0.6844,1.1855 6.2659,-3.6176 -0.6842,-1.1857 z"
       fill="#34393c"
       id="path31" />
    <path
       d="m 51.5866,75.7562 c 0.2328,-0.1215 0.4557,-0.2439 0.6563,-0.3569 l 1.1116,-0.6418 0.6845,1.1855 -0.3566,0.2059 c -0.0378,0.0218 -0.0857,0.0499 -0.1425,0.083 -0.1516,0.0887 -0.366,0.214 -0.616,0.3549 l -0.5901,0.3407 c -0.9081,0.5243 -1.516,0.7552 -1.8964,0.8463 -0.0964,0.0231 -0.1846,0.0388 -0.2642,0.0471 -0.0639,0.0066 -0.1715,0.0142 -0.2857,-0.0073 -0.0317,-0.0059 -0.0864,-0.0181 -0.1495,-0.0448 -0.0441,-0.0186 -0.1935,-0.0847 -0.3057,-0.2508 -0.0645,-0.0956 -0.1166,-0.2255 -0.1178,-0.3798 -0.0011,-0.1519 0.0476,-0.2764 0.1011,-0.364 0.0943,-0.154 0.2215,-0.2262 0.262,-0.2481 0.0994,-0.054 0.1908,-0.0721 0.2256,-0.0784 0.0217,-0.004 0.0429,-0.007 0.0632,-0.0093 0.3976,-0.0884 1.0017,-0.3593 1.6202,-0.6822 z"
       fill="#34393c"
       id="path32" />
    <path
       d="m 74.6618,24.0731 5.3647,-3.1722 c 1.0045,1.3922 0.9017,2.0505 0.9017,2.0505 l -7.0083,4.0462 z"
       fill="#626c71"
       stroke="#2f3437"
       stroke-width="1.36893"
       stroke-miterlimit="3.99393"
       stroke-linecap="round"
       id="path33" />
    <path
       d="m 44.8908,26.3649 3.3294,-1.9222 c 0,0 0.9045,-0.2117 1.2283,0.3302 0.2336,0.3908 2.6354,4.5645 2.6354,4.5645 l -15.8248,9.1364 c 0,0 -0.785,0.4533 -1.2298,-0.3253 l -2.1387,-3.6961 c -0.2873,-0.533 -0.227,-0.8858 0.2212,-1.252 z"
       fill="#3e4447"
       stroke="#2f3437"
       stroke-width="1.36893"
       stroke-miterlimit="3.99393"
       stroke-linecap="round"
       id="path34" />
    <path
       d="m 53.3984,43.6045 2.652,-1.5311 16.6189,29.3435 c 0,0 1.197,0.5109 1.6655,0.8015 l 0.2085,0.3613 c -0.6745,0.7438 -3.0106,2.4343 -3.0106,2.4343 z"
       fill="#545d61"
       stroke="#2f3437"
       stroke-width="1.36893"
       stroke-miterlimit="3.99393"
       stroke-linecap="round"
       id="path35" />
    <path
       d="m 55.9924,42.1856 16.8527,29.1897 c 0,0 0.8391,0.5827 1.6121,0.6591 0.4244,0.3702 0.4423,0.5417 0.4423,0.5417 0,0 -1.9002,1.67 -2.5447,2.0421 -0.6445,0.3721 -15.7028,9.2867 -16.1835,9.3435 -0.4808,0.0569 -2.7574,0.3508 -4.1822,-1.7864 -1.4249,-2.1372 -4.9547,-14.039 -4.9547,-14.039 0,0 -3.1346,-7.7445 -5.0481,-10.3974 -1.9135,-2.6528 -4.1895,-3.4943 -4.9502,-3.1166 -0.7606,0.3776 -1.3622,-0.7058 -1.3622,-0.7058 z"
       stroke="#2f3437"
       stroke-width="2.73785"
       stroke-miterlimit="3.99393"
       stroke-linecap="round"
       id="path36" />
    <path
       d="m 7.57855,38.5327 c 1.08914,-0.6288 2.48345,-0.2552 3.11225,0.8339 0.6288,1.0892 0.2552,2.4835 -0.83394,3.1123 C 8.76772,43.1077 7.37344,42.7341 6.74462,41.645 6.11581,40.5558 6.48941,39.1615 7.57855,38.5327 Z"
       fill="#33383b"
       stroke="#2f3437"
       stroke-width="1.36893"
       stroke-miterlimit="3.99393"
       stroke-linecap="round"
       id="path37" />
    <path
       d="m 12.5613,56.9585 c 0.6263,1.0662 1.0089,1.0222 1.7692,0.6008 L 18.4729,55.1677 17.214,52.9872 72.7288,20.9357 c 0,0 1.5831,-0.4891 1.936,0.4529 0.3529,0.942 -1.2211,6.2427 -1.2211,6.2427 l 7.8748,-4.5465 c 0,0 -0.0717,-0.6542 -0.549,-1.5215 C 78.8212,18.0231 73.7315,8.84499 72.316,6.99084 72.1361,7.07018 66.0144,10.629 66.0144,10.629 L 65.601,9.91296 61.5909,12.2282 c 0,0 -0.4158,-0.5248 -1.5066,0.106 L 21.7638,34.4586 c -0.811,0.4667 -0.1082,1.2082 -0.1082,1.2082 L 18.84,37.2924 c -0.2302,0.3401 0.0561,0.5405 0.0561,0.5405 L 5.86332,45.3573 Z"
       stroke="#2f3437"
       stroke-width="2.73785"
       stroke-miterlimit="3.99393"
       stroke-linecap="round"
       id="path38" />
    <path
       d="M 35.0247,54.0933 72.476,32.4708 74.7562,21.702 c 0,0 -0.4689,-1.6388 -2.719,-0.2442 -2.2501,1.3945 -54.6373,31.5448 -54.6373,31.5448 l 1.4057,2.4347 z"
       fill="#393f41"
       stroke="#2f3336"
       stroke-width="2.73785"
       stroke-miterlimit="3.99393"
       stroke-linecap="round"
       id="path39" />
    <path
       d="M 41.4992,42.1598 59.7061,31.6481 c 0,0 1.693,-0.9944 2.7376,0.9804 1.0447,1.9748 0.7512,2.7059 -0.2571,3.3161 -1.0082,0.6103 -18.2068,10.5117 -18.2068,10.5117 0,0 -1.7032,1.1574 -3.1418,-1.3537 -1.2278,-2.0997 0.6612,-2.9428 0.6612,-2.9428 z"
       fill="#353b3e"
       stroke="#2f3437"
       stroke-width="1.36893"
       stroke-miterlimit="3.99393"
       stroke-linecap="round"
       id="path40" />
  </g>
  <defs
     id="defs40">
    <clipPath
       id="clip0_619_1149">
      <rect
         width="110"
         height="110"
         fill="#ffffff"
         id="rect40"
         x="0"
         y="0" />
    </clipPath>
  </defs>
</svg>
