<?xml version="1.0" encoding="UTF-8" standalone="no"?>
<!-- Created with Inkscape (http://www.inkscape.org/) -->

<svg
   width="141.10324"
   height="19.718876"
   viewBox="0 0 37.333564 5.2172858"
   version="1.1"
   id="svg1"
   inkscape:export-filename="cz600_world.svg"
   inkscape:export-xdpi="96"
   inkscape:export-ydpi="96"
   xmlns:inkscape="http://www.inkscape.org/namespaces/inkscape"
   xmlns:sodipodi="http://sodipodi.sourceforge.net/DTD/sodipodi-0.dtd"
   xmlns="http://www.w3.org/2000/svg"
   xmlns:svg="http://www.w3.org/2000/svg">
  <sodipodi:namedview
     id="namedview1"
     pagecolor="#505050"
     bordercolor="#ffffff"
     borderopacity="1"
     inkscape:showpageshadow="0"
     inkscape:pageopacity="0"
     inkscape:pagecheckerboard="1"
     inkscape:deskcolor="#505050"
     inkscape:document-units="mm" />
  <defs
     id="defs1" />
  <g
     inkscape:label="Layer 1"
     inkscape:groupmode="layer"
     id="layer1"
     transform="translate(-241.50027,-136.26044)">
    <g
       id="g5-6-0"
       inkscape:label="model89_world"
       transform="matrix(1.0778262,0,0,0.99377413,-4447.2592,-4393.7672)">
      <rect
         style="fill:#57504b;fill-opacity:1;fill-rule:evenodd;stroke:#191715;stroke-width:0.79375;stroke-linecap:round;stroke-linejoin:round;stroke-dasharray:none;stroke-opacity:1"
         id="rect1-0-5-0"
         width="2.8100586"
         height="2.5326402"
         x="4374.7227"
         y="4559.7661" />
      <path
         class="cls-1"
         d="m 4376.5929,4561.0327 c 0.1852,0.6615 0.3969,1.9869 -0.4498,2.0663 -2.4606,0.2646 -5.6193,0.1587 -8.0799,0 -0.053,0.053 -0.1059,-1.1667 -0.1059,-2.0663 0,-0.8731 0.053,-2.1192 0.1059,-2.0663 2.4606,-0.1587 5.6457,-0.2646 8.0799,0 0.8467,0.079 0.635,1.4313 0.4498,2.0663 z"
         id="path2-65-8-6-9-0"
         style="fill:#883c2b;fill-rule:evenodd;stroke:#230f0b;stroke-width:0.79375;stroke-linecap:round;stroke-miterlimit:11.3386;stroke-dasharray:none;stroke-opacity:1"
         sodipodi:nodetypes="cccsccc" />
      <path
         id="rect2-1-5-5-5-2"
         class="cls-7"
         d="m 4350.7594,4559.1806 h 1.3494 c 0.079,0 0.1587,0.053 0.1587,0.1059 v 3.4925 c 0,0.053 -0.079,0.1059 -0.1587,0.1059 h -1.3494 c -0.079,0 -0.1587,-0.053 -0.1587,-0.1059 v -3.4925 c -0.026,-0.079 0.053,-0.1059 0.1587,-0.1059 z"
         style="fill:#515151;fill-opacity:1;fill-rule:evenodd;stroke:#171717;stroke-width:0.79375px;stroke-linecap:square;stroke-miterlimit:11.3386;stroke-opacity:1"
         sodipodi:nodetypes="ssssssscs" />
      <path
         id="path3-45-8-3-3-4-7"
         class="cls-9"
         d="m 4351.547,4562.7777 h 7.0545 c 1.4817,-0.5027 2.2423,-0.5556 3.9356,0 h 0.3506 V 4559.1 h -0.2977 c -1.7462,0.5292 -2.4804,0.4498 -3.9356,0 h -7.1338 z"
         style="letter-spacing:-0.02em;fill:#883c2b;fill-opacity:1;fill-rule:evenodd;stroke:none;stroke-width:0.79375px;stroke-linecap:square;stroke-miterlimit:11.3386;stroke-opacity:1"
         sodipodi:nodetypes="ccccccccc" />
      <path
         style="fill:#743325;fill-opacity:1;stroke:none;stroke-width:0.404595;stroke-linejoin:round;stroke-dasharray:none;stroke-opacity:1"
         d="m 4358.5486,4559.085 c 0.7748,1.5077 0.3839,2.7228 0,3.9406 l 2.071,-0.4887 2.2605,0.3337 c -1.1974,-0.942 -1.3686,-2.1508 0,-3.844 l -2.4912,0.5144 z"
         id="path208-0-31"
         sodipodi:nodetypes="ccccccc" />
      <path
         id="path3-45-8-3-3-47"
         class="cls-9"
         d="m 4351.7218,4562.8715 h 7.0545 c 1.4817,-0.5027 2.2423,-0.5556 3.9356,0 h 0.3506 v -3.6777 h -0.2977 c -1.7462,0.5292 -2.4804,0.4498 -3.9356,0 h -7.1338 z"
         style="letter-spacing:-0.02em;fill:none;fill-opacity:1;fill-rule:evenodd;stroke:#230f0b;stroke-width:0.79375px;stroke-linecap:square;stroke-miterlimit:11.3386;stroke-opacity:1"
         sodipodi:nodetypes="ccccccccc" />
      <path
         id="rect4-59-3-1-5-3"
         class="cls-13"
         d="m 4366.4757,4560.1066 h 17.8593 c 0.053,0 0.1059,0.053 0.1059,0.1058 v 1.6406 c 0,0.053 -0.053,0.1058 -0.1059,0.1058 h -17.8593 c -0.053,0 -0.1059,-0.053 -0.1059,-0.1058 v -1.6406 c 0,-0.053 0.053,-0.1058 0.1059,-0.1058 z"
         style="fill:#8e8470;fill-opacity:1;fill-rule:evenodd;stroke:#1a1814;stroke-width:0.79375px;stroke-linecap:square;stroke-miterlimit:11.3386;stroke-opacity:1"
         sodipodi:nodetypes="sssssssss" />
      <path
         id="rect3-999-06-0-2-1"
         class="cls-6"
         d="m 4362.8773,4559.3129 h 4.3885 c 0.053,0 0.1059,0.053 0.1059,0.1059 v 3.2278 c 0,0.053 -0.053,0.1058 -0.1059,0.1058 h -4.3885 c -0.053,0 -0.1058,-0.053 -0.1058,-0.1058 v -3.2278 c 0,-0.053 0.053,-0.1059 0.1058,-0.1059 z"
         sodipodi:nodetypes="sssssssss"
         style="fill:#9a9088;fill-rule:evenodd;stroke:#191715;stroke-width:0.79375px;stroke-linecap:square;stroke-miterlimit:11.3386;stroke-opacity:1" />
      <rect
         style="fill:#877c73;fill-opacity:1;fill-rule:evenodd;stroke:none;stroke-width:0.253424;stroke-linecap:round;stroke-linejoin:round;stroke-dasharray:none;stroke-opacity:1"
         id="rect3277-2-1-8-1"
         width="0.69446611"
         height="3.0660808"
         x="4367.1748"
         y="4559.541" />
      <path
         id="rect3-999-0-2-9-1-7"
         class="cls-6"
         d="m 4362.8773,4559.2071 h 5.0003 c 0.053,0 0.1059,0.053 0.1059,0.1058 v 3.4396 c 0,0.053 -0.053,0.1058 -0.1059,0.1058 h -5.0003 c -0.053,0 -0.1058,-0.053 -0.1058,-0.1058 v -3.4396 c 0,-0.053 0.053,-0.1058 0.1058,-0.1058 z"
         sodipodi:nodetypes="sssssssss"
         style="fill:none;fill-rule:evenodd;stroke:#191715;stroke-width:0.79375px;stroke-linecap:square;stroke-miterlimit:11.3386;stroke-opacity:1" />
      <path
         id="rect6-24-5-5-8-3"
         class="cls-8"
         d="m 4361.9997,4560.5565 h 0.6285 c 0.053,0 0.1059,0.053 0.1059,0.1058 v 0.7408 c 0,0.053 -0.053,0.1058 -0.1059,0.1058 h -0.6285 c -0.053,0 -0.1058,-0.053 -0.1058,-0.1058 v -0.7408 c 0,-0.053 0.053,-0.1058 0.1058,-0.1058 z"
         style="font-size:12px;font-family:MyriadPro-Regular, 'Myriad Pro';fill:#37332f;fill-opacity:1;fill-rule:evenodd;stroke:#191715;stroke-width:0.396875px;stroke-linecap:round;stroke-miterlimit:11.3386;stroke-opacity:1"
         sodipodi:nodetypes="sssssssss" />
      <path
         class="cls-10"
         d="m 4383.3827,4561.3237 h -0.7938 c -0.1587,0 -0.291,-0.291 -0.291,-0.291 v 0 c 0,0 0.1323,-0.2911 0.291,-0.2911 h 0.7938 c 0.1587,0 0.291,0.2911 0.291,0.2911 v 0 c 0,0 -0.1323,0.291 -0.291,0.291 z"
         id="path13-5-7-8-0-5"
         style="fill:#1a1814;fill-opacity:1;fill-rule:evenodd;stroke:none;stroke-width:3px;stroke-linecap:round"
         sodipodi:nodetypes="sssssssss" />
      <path
         style="fill:#1a1814;fill-opacity:1;fill-rule:evenodd;stroke:#191715;stroke-width:0.396875;stroke-linecap:round;stroke-linejoin:round;stroke-dasharray:none;stroke-opacity:1"
         d="m 4367.157,4559.6081 v 2.8491"
         id="path3277-1-5-6-0" />
      <path
         style="fill:#443f3b;fill-opacity:1;stroke:#191715;stroke-width:0.396999;stroke-linejoin:round;stroke-dasharray:none;stroke-opacity:1"
         d="m 4362.7343,4560.3299 h 3.8134 v 1.4054 h -3.8173 z"
         id="path168-1"
         sodipodi:nodetypes="ccccc" />
      <path
         id="rect7-06-2-7-5-6"
         class="cls-4"
         d="m 4363.9456,4560.2088 h 1.8156 c 0.053,0 0.1058,0.053 0.1058,0.1058 v 1.4361 c 0,0.053 -0.053,0.1059 -0.1058,0.1059 h -1.8156 c -0.053,0 -0.1059,-0.053 -0.1059,-0.1059 v -1.4361 c 0,-0.053 0.053,-0.1058 0.1059,-0.1058 z"
         sodipodi:nodetypes="sssssssss"
         style="fill:#605852;fill-opacity:1;fill-rule:evenodd;stroke:#191715;stroke-width:0.396875px;stroke-linecap:round;stroke-miterlimit:11.3386;stroke-opacity:1" />
      <path
         id="rect7-06-8-2-6-1-2"
         class="cls-4"
         d="m 4364.7263,4560.3097 v 1.446 c 0,0.053 -0.053,0.1058 -0.1058,0.1058 h -0.6671 c -0.053,0 -0.1059,-0.053 -0.1059,-0.1058 v -1.446 c 0,-0.053 0.053,-0.1058 0.1059,-0.1058 h 0.6671 c 0.053,0 0.1058,0.053 0.1058,0.1058 z"
         sodipodi:nodetypes="sssssssss"
         style="fill:#37322f;fill-opacity:1;fill-rule:evenodd;stroke:#191715;stroke-width:0.396875px;stroke-linecap:round;stroke-miterlimit:11.3386;stroke-opacity:1" />
    </g>
  </g>
</svg>
