<svg xmlns="http://www.w3.org/2000/svg" width="123.633" height="58.699" fill="none"><path fill="#453f3b" fill-rule="evenodd" stroke="#37332f" stroke-miterlimit="3.994" stroke-width=".561" d="M50.806 54.931c-.68.992-.888 1.898.03 2.81 1.007.999 1.209 2.412.795 3.958l-.041.152c-.382 1.43-.525 1.967-2.201 2.81-1.935.97-3.447 3.313-3.7 4.996l-.086.57c-.325 2.177-.405 2.706-.875 3.131-.551.498-1.064.863-2.134.886-1.07.022-1.755-1.079-2.062-1.61-.167-.29-.722-2.367.134-4.838.823-1.987 1.198-2.466 2.262-3.758.45-.527.893-.962 1.128-1.591a.42.42 0 0 1 .3-.142l.609-.02a.49.49 0 0 1 .437.279c.961 1.853 4.7 1.928 5.402-.696.738-2.754-2.452-4.838-4.436-3.43l2.059-2.288zm-4.157 11.476c-1.358 2.496-1.581 3.164-1.706 5.474-.044.804-.715 1.562-1.931 1.83-.959.21-1.872-.574-2.107-1.44-.713-2.175-.054-5.68 2.502-8.242.968-.972 1.569-.781 2.542-.3 1.041.514 1.088 1.964.7 2.678" clip-rule="evenodd" style="stroke-linecap:round;stroke-linejoin:round" transform="rotate(15 166.644 55.406)scale(1.0267)"/><path fill="#403b36" stroke="#37332f" stroke-width=".5759787000000001" d="m118.216 4.152 1.128-.302.347 1.294-1.129.302z"/><path fill="#423d38" stroke="#37332f" stroke-width=".561" d="M38.26 57.198c-.908.465-1.128.715-1.304 1.314-.031.105.21.108.27.007.22-.372.402-.47.933-.586.407-.09.586-.155.804-.44.053-.068.267-.037.275.059.17 2.11.763 2.902 2.403 4.1l.954-3.603-2.03-1.463-1.269-.27c-.194-.04-.475.008-.592.249-.161.335-.264.54-.443.633z" style="stroke-linejoin:round" transform="rotate(15 166.644 55.406)scale(1.0267)"/><path fill="#9a9088" d="M45.531 25.944c.859-.651 1.921-1.621 1.494-4.18l13.397-3.59c.642-.172 1.01-.515.88-1.003l2.046-.548 1.917 7.154c-3.692 1.106-8.654 2.755-8.654 2.755-4.229 1.133-5.487 2.055-7.79 3.596"/><path fill="#403b36" stroke="#37332f" stroke-miterlimit="3.994" stroke-width=".561" d="M47.464 62.66c-1.474-.862-1.869-1.73-1.63-3.6l-.631.629c.307 1.73.872 2.832 2.155 3.176.168.045.2-.15.106-.206" style="stroke-linecap:round;stroke-linejoin:round" transform="rotate(15 166.644 55.406)scale(1.0267)"/><path fill="#534c47" stroke="#37332f" stroke-linecap="round" stroke-miterlimit="3.994" stroke-width=".561" d="m104.746 15.936-.818-1.418 1.575-.91.518.272.61 1.058z" style="stroke-linejoin:round" transform="rotate(15 166.644 55.406)scale(1.0267)"/><path fill="#8e8470" stroke="#39352d" stroke-linecap="round" stroke-miterlimit="3.994" stroke-width="1.121" d="M106.9 14.207 55.556 43.85c-.068.04-.062.175.012.304l1.073 1.858c.074.129.189.201.256.162l51.345-29.643c.067-.04.061-.175-.013-.303l-1.073-1.859c-.074-.128-.189-.201-.256-.162" style="stroke-linejoin:round" transform="rotate(15 166.644 55.406)scale(1.0267)"/><path fill="#817760" stroke="#3b362b" stroke-linecap="round" stroke-miterlimit="3.994" stroke-width="1.121" d="M105.7 18.216 78.827 33.731c-.067.04-.073.155-.013.26l.868 1.503c.06.105.164.157.231.118l26.873-15.515c.068-.039.074-.155.013-.259l-.868-1.504c-.06-.104-.163-.157-.231-.118" style="stroke-linejoin:round" transform="rotate(15 166.644 55.406)scale(1.0267)"/><path fill="#877c73" stroke="#37332f" stroke-linecap="round" stroke-miterlimit="3.994" stroke-width=".5759787000000001" d="m65.265 23.778-1.917-7.154-2.047.548 1.396 5.21c.144.538-.207 1.03-.97 1.234 0 0-1.179.322-2.896 1.004-1.675.666-2 1.066-2.22 1.913 0 0 4.962-1.65 8.654-2.755z"/><path fill="#515151" stroke="#333" stroke-linecap="round" stroke-miterlimit="3.994" stroke-width="1.121" d="m2.27 81.64 9.971 15.276 18.056-19.912c.467-.467-4.472-9.307-5.392-8.775z" style="stroke-linejoin:round" transform="rotate(15 166.644 55.406)scale(1.0267)"/><path fill="#883c2b" stroke="#4e2218" stroke-linecap="round" stroke-miterlimit="3.994" stroke-width="1.121" d="m5.407 79.764 9.411 14.304 18.055-19.912c.468-.467 1.216-.763 1.608.32l5.361-.524c-2.44-6.207 1.502-9.874 5.245-14.067l-4.15-3.109a130 130 0 0 0-8.286 10.183c-1.915-.838-3.689-1.139-4.61-.607z" style="stroke-linecap:round;stroke-linejoin:round" transform="rotate(15 166.644 55.406)scale(1.0267)"/><path fill="#743325" d="m35.272 40.438 3.232.407c.56-6.1 2.883-7.322 7.246-10.099l-3.217.549 1.717-2.854c-5.484 4.276-7.946 4.334-8.978 11.997"/><path fill="#57504b" stroke="#37332f" stroke-linecap="round" stroke-miterlimit="3.994" stroke-width="1.121" d="m85.307 33.313-2.395-3.375c2.185-1.068 3.52-1.418 4.163-.342.872 1.51.106 2.635-1.768 3.717" style="stroke-linejoin:round" transform="rotate(15 166.644 55.406)scale(1.0267)"/><path fill="#47413d" stroke="#37332f" stroke-linecap="round" stroke-miterlimit="3.994" stroke-width=".5759787000000001" d="M96.922 11.568a.57.57 0 1 0-.296-1.103.57.57 0 0 0 .296 1.103z"/><path fill="#883c2b" d="M63.933 18.811 94.67 10.37l1.094 4.082c-9.436 4.292-20.552 6.943-30.633 8.825Z"/><path fill="#5b534d" stroke="#37332f" stroke-linecap="round" stroke-miterlimit="3.994" stroke-width=".5759787000000001" d="m57.589 22.3-8.899 2.384a.66.66 0 0 0-.465.806l.114.424c.094.351.455.56.806.465l8.898-2.384a.66.66 0 0 0 .465-.806l-.114-.424a.66.66 0 0 0-.805-.465z"/><path fill="#5b534d" stroke="#37332f" stroke-linecap="round" stroke-miterlimit="3.994" stroke-width=".5759787000000001" d="M49.072 26.159a.646.646 0 1 0-.335-1.248.646.646 0 0 0 .335 1.248z"/><path fill="#4e4742" stroke="#37332f" stroke-linecap="round" stroke-miterlimit="3.994" stroke-width=".287476" d="M49.138 27.334a.362.362 0 1 0-.187-.7.362.362 0 0 0 .187.7zM53.932 26.278a.417.417 0 1 0-.215-.805.417.417 0 0 0 .215.805zM57.873 21.99a.417.417 0 1 0-.045-.832.417.417 0 0 0 .045.832z"/><path fill="#453f3b" stroke="#37332f" stroke-linecap="round" stroke-miterlimit="3.994" stroke-width=".561" d="m42.788 49.154-1.179.681.724 1.253 1.179-.68z" style="stroke-linejoin:round" transform="rotate(15 166.644 55.406)scale(1.0267)"/><path fill="#3c3834" stroke="#37332f" stroke-linecap="round" stroke-miterlimit="3.994" stroke-width=".5759787000000001" d="m58.715 23.813-.444-1.694-4.052 1.083c-.541.675-.344 1.427.415 1.716z"/><path fill="#605852" stroke="#37332f" stroke-linecap="round" stroke-miterlimit="3.994" stroke-width=".561" d="m41.717 51.048 3.038-1.754 3.46-1.731.394.68-6.383 3.686z" style="stroke-linejoin:round" transform="rotate(15 166.644 55.406)scale(1.0267)"/><path fill="#743325" d="M90.842 16.495c-6.018 2.28-12.485 4.012-18.796 5.39l.993-3.319 15.58-4.174z"/><path stroke="#4d2219" stroke-linecap="round" stroke-miterlimit="3.994" stroke-width="1.121" d="m56.454 45.429 26.788-15.69 2.058 3.564C77.506 39.72 67.716 45.017 58.706 49.33Z" style="stroke-linejoin:round" transform="rotate(15 166.644 55.406)scale(1.0267)"/><path stroke="#37332f" stroke-linecap="round" stroke-miterlimit="3.994" stroke-width="1.121" d="M40.94 56.778c.643-.829 1.398-2.01.351-4.309l11.7-6.754c.56-.324.82-.74.574-1.166l1.787-1.032 3.607 6.248c-3.195 1.97-7.448 4.773-7.448 4.773-3.692 2.132-4.643 3.317-6.422 5.347" style="stroke-linejoin:round" transform="rotate(15 166.644 55.406)scale(1.0267)"/></svg>