<svg width="110" height="110" viewBox="0 0 110 110" fill="none" xmlns="http://www.w3.org/2000/svg">
<g clip-path="url(#clip0_619_1198)">
<rect x="96.5273" y="23.8467" width="13.4917" height="2.04868" transform="rotate(-30 96.5273 23.8467)" fill="#3E3B3A" stroke="#353231" stroke-width="1.01714"/>
<rect x="96.2617" y="28.1328" width="11.5321" height="0.669587" transform="rotate(-30.8974 96.2617 28.1328)" fill="#4A4645" stroke="#353231" stroke-width="0.508569"/>
<path d="M98.3609 27.022C98.5082 26.6526 98.4768 26.2985 98.2462 25.9639L97.5199 24.8519L100.03 23.4029L100.554 24.3108C100.974 25.038 100.823 25.6004 100.225 25.946L98.3609 27.022Z" fill="#54504E" stroke="#353231" stroke-width="1.01714"/>
<path d="M91.3203 27.9072L93.0057 30.8264L96.5246 28.7948C98.1433 27.7719 98.8251 26.8058 98.2446 25.9635L97.2705 24.4719L91.3203 27.9072Z" fill="#713D25"/>
<path d="M95.1215 24.0838L90.6603 26.7636L91.3208 27.9076L95.827 25.3059L95.1215 24.0838Z" fill="#653721" stroke="#4D2A1A" stroke-width="0.508569"/>
<path d="M95.8266 25.306L95.1211 24.084L96.0878 23.5259C96.2648 23.4237 96.5652 23.5232 96.6841 23.6699L97.2708 24.4722L95.8266 25.306Z" fill="#4B4746" stroke="#353231" stroke-width="0.508569"/>
<path fill-rule="evenodd" clip-rule="evenodd" d="M92.3352 31.2004L90.7323 28.4241L75.0918 37.4541L76.8522 40.5033L92.3352 31.2004ZM85.1182 33.2566C85.106 33.2636 85.1019 33.2792 85.1089 33.2914L85.4816 33.9368C85.4886 33.949 85.5041 33.9531 85.5163 33.9461L87.807 32.6236C87.8192 32.6166 87.8233 32.601 87.8163 32.5888L87.4437 31.9434C87.4366 31.9312 87.4211 31.9271 87.4089 31.9341L85.1182 33.2566Z" fill="#713D25"/>
<path d="M33.1062 63.3922L32.0451 61.5543C32.0955 60.854 33.0307 59.9026 33.9152 59.3544L38.112 56.8333L38.7111 57.9602L34.8682 60.1787L35.8191 61.8259L33.1062 63.3922Z" fill="#807977"/>
<path d="M33.1067 63.392C32.5481 63.4708 32.3193 63.6081 32.0463 64.0042L32.3462 64.5237C32.474 64.7449 32.2089 64.898 31.9704 64.638C31.4061 64.0229 31.2406 63.8326 30.9859 63.3909C30.7307 62.9496 30.6488 62.711 30.3982 61.9148C30.2922 61.5783 30.5573 61.4252 30.6851 61.6465L30.985 62.166C31.4646 62.1276 31.6978 61.9981 32.0454 61.5538C32.6796 62.6521 32.4725 62.2936 33.1067 63.392Z" fill="#968F8D"/>
<path d="M32.0449 61.5537L33.106 63.3916L35.8186 61.8254L34.7576 59.9877L32.0449 61.5537Z" fill="#8E8784"/>
<path d="M33.1062 63.3922L32.0451 61.5543C32.0955 60.854 33.0307 59.9026 33.9152 59.3544L38.112 56.8333L38.7111 57.9602L34.8682 60.1787L35.8191 61.8259L33.1062 63.3922Z" stroke="#353231" stroke-width="0.508569"/>
<path d="M33.1067 63.392C32.5481 63.4708 32.3193 63.6081 32.0463 64.0042L32.3462 64.5237C32.474 64.7449 32.2089 64.898 31.9704 64.638C31.4061 64.0229 31.2406 63.8326 30.9859 63.3909C30.7307 62.9496 30.6488 62.711 30.3982 61.9148C30.2922 61.5783 30.5573 61.4252 30.6851 61.6465L30.985 62.166C31.4646 62.1276 31.6978 61.9981 32.0454 61.5538C32.6796 62.6521 32.4725 62.2936 33.1067 63.392Z" stroke="#353231" stroke-width="0.508569"/>
<path fill-rule="evenodd" clip-rule="evenodd" d="M46.0514 48.7051L41.1442 51.5383L42.7966 54.4004L40.7103 55.635C40.698 55.6423 40.6821 55.6381 40.6749 55.6258L40.3661 55.0909C40.3519 55.0663 40.3205 55.0578 40.2959 55.0721L39.3847 55.5981C39.3601 55.6124 39.3517 55.6438 39.3659 55.6684L39.6812 56.2145C39.6882 56.2267 39.6841 56.2423 39.672 56.2494L38.8567 56.7319L39.3093 57.5157L48.181 52.3936L46.0514 48.7051ZM44.8876 52.3558C45.3802 52.0714 45.5488 51.4418 45.2645 50.9493C44.9802 50.4568 44.3505 50.2881 43.858 50.5724C43.3656 50.8567 43.1969 51.4864 43.4812 51.9789C43.7655 52.4714 44.3952 52.6401 44.8876 52.3558Z" fill="#454140"/>
<path d="M46.0514 48.7051L41.1442 51.5383L42.7966 54.4004L40.7103 55.635C40.698 55.6423 40.6821 55.6381 40.6749 55.6258L40.3661 55.0909C40.3519 55.0663 40.3205 55.0578 40.2959 55.0721L39.3847 55.5981C39.3601 55.6124 39.3517 55.6438 39.3659 55.6684L39.6812 56.2145C39.6882 56.2267 39.6841 56.2423 39.672 56.2494L38.8567 56.7319L39.3093 57.5157L48.181 52.3936L46.0514 48.7051Z" stroke="#353231" stroke-width="1.01714"/>
<path d="M44.8861 52.3555C45.3786 52.0711 45.5473 51.4415 45.263 50.949C44.9786 50.4565 44.349 50.2878 43.8565 50.5721C43.3641 50.8564 43.1953 51.4861 43.4797 51.9786C43.764 52.4711 44.3937 52.6398 44.8861 52.3555Z" stroke="#353231" stroke-width="0.508569"/>
<path d="M26.9088 56.0822C26.8804 56.033 26.8973 55.9702 26.9464 55.9418L37.9722 49.5761L39.7506 52.6564L28.7249 59.0221C28.6757 59.0505 28.6128 59.0336 28.5844 58.9845L26.9088 56.0822Z" fill="#3D3938" stroke="#353231" stroke-width="1.01714"/>
<path d="M38.1094 49.8115L45.5135 45.5367C45.5627 45.5083 45.6256 45.5252 45.654 45.5744L47.0576 48.0055C47.086 48.0547 47.0691 48.1176 47.02 48.146L39.6158 52.4208L38.1094 49.8115Z" fill="#403C3B" stroke="#353231" stroke-width="1.01714"/>
<path d="M38.5905 49.4269C38.5621 49.3777 38.5789 49.3149 38.6281 49.2865L40.8234 48.019C40.8726 47.9906 40.9355 48.0075 40.9638 48.0566L42.5623 50.8253C42.5907 50.8744 42.5738 50.9373 42.5247 50.9657L40.3293 52.2332C40.2802 52.2615 40.2173 52.2447 40.1889 52.1955L38.5905 49.4269Z" fill="#4D4847" stroke="#353231" stroke-width="1.01714"/>
<path d="M43.0436 46.8556C43.0152 46.8065 43.032 46.7436 43.0812 46.7152L44.6916 45.7854C44.7408 45.7571 44.8036 45.7739 44.832 45.8231L46.4305 48.5917C46.4589 48.6409 46.442 48.7037 46.3929 48.7321L44.7825 49.6619C44.7333 49.6903 44.6704 49.6734 44.642 49.6242L43.0436 46.8556Z" fill="#4D4847" stroke="#353231" stroke-width="1.01714"/>
<path d="M35.5449 50.6738L37.5654 49.5073L37.702 49.7439C37.7913 49.8985 37.539 50.5502 37.0001 50.8613C36.4613 51.1724 35.771 51.0655 35.6815 50.9104L35.5449 50.6738Z" fill="#4D4847" stroke="#353231" stroke-width="0.508569"/>
<path d="M35.1094 50.1094L37.2948 48.8476L37.622 49.4144C37.6362 49.439 37.6278 49.4704 37.6032 49.4846L35.5068 50.6949C35.4822 50.7091 35.4508 50.7007 35.4366 50.6761L35.1094 50.1094Z" fill="#454140" stroke="#353231" stroke-width="0.508569"/>
<path d="M34.868 49.8162C34.8616 49.8051 34.8605 49.7923 34.8681 49.782C34.9064 49.7304 35.0892 49.5468 35.9524 49.0485C36.8156 48.5501 37.0659 48.4835 37.1298 48.4762C37.1425 48.4747 37.1531 48.4821 37.1594 48.4932L37.3464 48.817L35.0549 50.14L34.868 49.8162Z" fill="#3F3C3B" stroke="#353231" stroke-width="0.508569"/>
<path fill-rule="evenodd" clip-rule="evenodd" d="M42.263 57.8479C41.8603 58.0804 41.3451 57.9417 41.1126 57.5391L34.9877 61.1646C34.6894 61.3368 34.4154 61.6276 34.1606 61.9514L26.9564 71.2447C25.8796 72.4408 24.8299 72.7246 23.7001 72.6517C22.7114 72.588 21.4264 73.1644 20.4052 73.7105C14.1938 77.0328 9.50197 80.2076 3.58815 85.0119C2.0843 86.2336 1.25503 87.1978 0.672066 88.4253C0.455435 88.8814 0.83693 89.8162 1.15027 90.129C4.31708 93.2902 5.69959 95.2432 7.9291 98.3927C8.04901 98.5621 8.17136 98.7349 8.29657 98.9116C8.64452 99.4025 10.2594 98.3751 10.8836 97.7475C18.9013 89.6874 23.1464 84.8509 28.5337 78.7132C30.9184 75.9964 33.5268 73.0246 36.7852 69.4054C37.9669 68.055 40.3632 66.1489 43.0507 64.248C43.0034 64.1779 43.0172 64.076 43.0872 64.0287L45.2776 62.5476C45.3446 62.5023 45.4347 62.5172 45.4838 62.58C45.515 62.5592 45.5463 62.5384 45.5776 62.5176C48.644 60.4821 51.8526 58.5479 53.681 57.574L63.3801 51.7975C64.1423 51.3575 73.0765 44.6482 75.9401 41.802C76.1085 41.6346 76.1496 41.1996 76.0157 40.9676L74.2556 37.9189L50.2019 52.1603L50.2591 52.2593C50.4915 52.6619 50.3536 53.1768 49.951 53.4093L42.263 57.8479ZM21.8578 80.089C21.8315 80.0657 21.7914 80.0682 21.7681 80.0944L20.1655 81.9032C20.1422 81.9295 20.1447 81.9697 20.1709 81.993L20.6817 82.4455L22.3686 80.5415L21.8578 80.089Z" fill="#713D25"/>
<path d="M36.7859 69.4056L36.7683 69.4257L36.9036 69.5585C37.7739 69.5863 38.4038 70.3714 38.2638 70.8941C39.0841 71.4893 39.7427 71.5425 40.5814 71.235C41.2067 71.0057 41.9487 70.5268 42.4843 70.0922C45.8626 67.3507 49.6394 64.1453 51.1016 62.8284C51.0959 62.8336 51.0902 62.8387 51.0844 62.8439L49.3672 60.0932C48.1526 60.8428 46.8532 61.6715 45.5783 62.5178L45.4844 62.5801C45.4353 62.5173 45.3453 62.5024 45.2783 62.5478L43.0879 64.0288C43.0179 64.0762 43.0041 64.1781 43.0514 64.2481C42.6432 64.5368 42.2417 64.8257 41.8501 65.1127C42.3003 64.8777 43.4827 64.9025 44.1746 65.9792C44.7338 66.8493 44.2904 67.9312 43.8006 68.316C42.5394 69.3066 41.8991 69.7673 40.6972 70.5937C40.3493 70.8329 39.1153 70.8885 38.4496 69.9915C38.0573 69.4629 37.9097 68.9154 38.1901 68.0217C37.6255 68.5245 37.1485 68.9912 36.7859 69.4056Z" fill="#4E4A48"/>
<path d="M47.843 65.6468C47.0408 66.3262 46.1646 67.0616 45.2646 67.8091L44.7117 66.907L47.2391 65.3153C47.3385 65.2579 47.5233 65.1954 47.7095 65.4414L47.843 65.6468Z" fill="#575251" stroke="#353331" stroke-width="0.508569"/>
<path d="M43.201 63.9523L45.2062 62.5965L47.0119 65.4575L44.9648 66.7468L43.201 63.9523Z" fill="#534F4E" stroke="#353331" stroke-width="0.508569"/>
<path d="M51.0844 62.8439C51.2022 62.738 51.3053 62.644 51.3926 62.563C54.1861 59.9704 55.4582 58.4303 57.101 55.5377L53.6817 57.5741C52.6135 58.1431 51.0742 59.0399 49.3673 60.0932L51.0844 62.8439Z" fill="#474442" stroke="#353331" stroke-width="0.508569"/>
<path d="M34.9624 61.1798L34.6433 60.2591C34.5808 60.0742 34.6368 59.8652 34.8496 59.6981L38.8689 56.7875L40.2276 56.0031L41.114 57.5385L34.9891 61.164C34.9802 61.1692 34.9713 61.1744 34.9624 61.1798Z" fill="#55504F"/>
<path d="M49.5328 50.9998L40.3867 56.2803L41.1137 57.5395C41.3462 57.9421 41.861 58.0801 42.2637 57.8476L49.9517 53.409C50.3543 53.1765 50.4923 52.6617 50.2598 52.259L49.5328 50.9998Z" fill="#726C6A" stroke="#353231" stroke-width="0.508569"/>
<path d="M39.2002 56.5968L39.3054 57.3912C39.359 57.7137 39.2698 57.9419 39.0239 58.1281L34.9229 61.0668L34.6432 60.2597C34.5806 60.0748 34.6367 59.8658 34.8495 59.6987L38.8688 56.7881L39.2002 56.5968Z" fill="#504C4B"/>
<path d="M39.1813 67.1754C39.4847 66.9253 39.804 66.6693 40.1365 66.409L39.7078 67.8073C39.5206 68.4014 39.721 69.0952 40.5599 69.4362C40.964 69.6005 40.7525 70.0761 40.4389 69.992C39.8333 69.8298 39.5163 69.5579 39.3105 69.1855C39.0638 68.739 39.0369 68.1133 39.1813 67.1754Z" fill="#393635" stroke="#353231" stroke-width="0.508569"/>
<circle cx="54.6643" cy="57.669" r="0.459172" transform="rotate(-30 54.6643 57.669)" fill="#524D4C"/>
<path d="M49.2458 50.5031L49.5328 51.0001L47.412 52.2246C47.8951 51.8326 48.1119 51.5827 48.3894 51.0859L49.2458 50.5031Z" fill="#484443"/>
<path d="M61.8603 43.8823C60.9899 44.3849 60.413 44.6472 59.8125 44.5234L60.6496 45.9734L62.4536 44.91L61.8603 43.8823Z" fill="url(#paint0_linear_619_1198)"/>
<path d="M62.0441 44.2006L61.7188 43.6372L65.6581 40.3767C66.1748 39.9293 66.7785 39.4321 67.2914 39.5363L67.9993 40.7624L62.0441 44.2006Z" fill="#595553" stroke="#353231" stroke-width="0.508569"/>
<path d="M90.0037 27.1624L74.3649 36.1952L75.0917 37.454L90.7321 28.424L90.0037 27.1624Z" fill="#653721" stroke="#4D2A1A" stroke-width="0.508569"/>
<rect width="1.31235" height="1.0203" rx="0.254285" transform="matrix(0.858089 -0.513502 -0.513502 -0.858089 106.469 23.0088)" fill="#514D4B" stroke="#353231" stroke-width="0.508569"/>
<path d="M104.441 15.832L105.568 15.1815L107.06 17.7663L105.934 18.4168L104.441 15.832Z" fill="#433F3E"/>
<path d="M104.441 15.832L105.568 15.1815L106.55 16.8821L105.423 17.5326L104.441 15.832Z" fill="#474443"/>
<path d="M49.2461 50.5029L54.4615 47.4918L55.3853 49.0918L50.2029 52.1602L49.2461 50.5029Z" fill="#55504F" stroke="#353231" stroke-width="0.508569"/>
<path d="M59.8123 44.5248L54.4609 47.4922L55.3847 49.0922L60.6496 45.9751L59.8123 44.5248Z" fill="#4E4A48" stroke="#353231" stroke-width="0.508569"/>
<path d="M65.5665 40.4529L60.755 42.9817C60.2351 43.2011 60.0197 43.1356 59.6867 42.8915L59.2891 43.1211C59.6615 43.613 60.3741 43.8619 61.0802 43.545L63.1829 42.4258L65.5665 40.4529Z" fill="#4E4A48" stroke="#353231" stroke-width="0.508569"/>
<circle cx="66.6334" cy="40.188" r="0.21207" transform="rotate(-30 66.6334 40.188)" fill="#4E4A48"/>
<circle cx="62.3444" cy="43.5825" r="0.21207" transform="rotate(-30 62.3444 43.5825)" fill="#4E4A48"/>
<path d="M62.043 44.2002L62.4514 44.9076L68.3688 41.4039L67.9982 40.7619L62.043 44.2002Z" fill="#4B4746"/>
<path d="M67.4805 39.8662L69.0218 38.9763L69.9003 40.4979L68.3687 41.4047L67.4805 39.8662Z" fill="#534F4D"/>
<path d="M69.0234 38.9766L73.4055 36.4466L74.2562 37.9198L69.9018 40.4979L69.0234 38.9766Z" fill="#653721"/>
<path d="M75.4249 39.9435L74.8088 38.8764C74.5952 38.9238 74.4497 38.9451 74.1387 39.1243C73.7233 39.3636 73.5343 39.8186 73.7932 40.2669C74.052 40.7153 74.3462 40.8482 74.9321 40.4986C75.1987 40.3395 75.3017 40.2141 75.4249 39.9435Z" fill="#683822"/>
<circle cx="98.8888" cy="25.3879" r="0.366155" transform="rotate(-30 98.8888 25.3879)" fill="#4D4947"/>
<rect x="60.8945" y="42.5918" width="1.55209" height="1.18424" transform="rotate(-28.5 60.8945 42.5918)" fill="#524E4C"/>
<rect x="61.125" y="42.6738" width="1.22584" height="0.819616" rx="0.254285" transform="rotate(-28.5 61.125 42.6738)" fill="#5A5554"/>
<path d="M55.3863 52.658L64.984 47.1168C64.984 47.1168 67.4053 45.4536 67.0189 44.7843C66.6324 44.115 63.9815 45.3803 63.9815 45.3803L54.3838 50.9215C54.3838 50.9215 51.9625 52.5847 52.3489 53.254C52.7354 53.9233 55.3863 52.658 55.3863 52.658Z" fill="#643621" stroke="#4D2A1A" stroke-width="0.508569"/>
<circle cx="54.6266" cy="52.7733" r="0.994873" transform="rotate(-30 54.6266 52.7733)" fill="#5C5653" stroke="#353231" stroke-width="0.508569"/>
<circle cx="54.6262" cy="52.7738" r="0.382643" transform="rotate(-30 54.6262 52.7738)" fill="#4C4744"/>
<rect x="46.3945" y="52.3271" width="0.738518" height="0.420259" transform="rotate(-30 46.3945 52.3271)" fill="#676260"/>
<rect x="40.6133" y="56.4561" width="4.91447" height="1.76576" rx="0.882881" transform="rotate(-30 40.6133 56.4561)" fill="#6F6967"/>
<path fill-rule="evenodd" clip-rule="evenodd" d="M21.7204 79.4804C22.0192 79.1432 22.7985 79.006 23.0406 79.2205C23.0708 79.2473 23.0967 79.2831 23.1181 79.3259C23.2681 79.6254 23.203 80.2673 22.9417 80.5624L20.7712 83.0121C20.7339 83.0543 20.689 83.0933 20.6386 83.1289C20.286 83.3782 19.6627 83.4598 19.451 83.2721C19.2089 83.0577 19.2512 82.2674 19.55 81.9302L21.7204 79.4804ZM21.7679 80.0946C21.7912 80.0683 21.8314 80.0659 21.8576 80.0892L22.3209 80.4994C22.3221 80.5004 22.3231 80.5014 22.3241 80.5025C22.3473 80.5262 22.3486 80.564 22.3263 80.5892L20.7237 82.398C20.7005 82.4243 20.6603 82.4267 20.6341 82.4034L20.1707 81.9932C20.1696 81.9922 20.1685 81.9912 20.1675 81.9901C20.1444 81.9664 20.143 81.9286 20.1653 81.9034L21.7679 80.0946Z" fill="#544943" stroke="#39312D" stroke-width="0.508569"/>
<path d="M51.0845 62.8434C51.2022 62.7375 51.3053 62.6435 51.3926 62.5625C54.1861 59.9699 55.4582 58.4298 57.1009 55.5372L53.6817 57.5736C52.6135 58.1426 51.0742 59.0394 49.3673 60.0927C48.1526 60.8422 46.8533 61.671 45.5784 62.5172L45.4845 62.5796C45.4354 62.5168 45.3454 62.5019 45.2784 62.5472L43.088 64.0283C43.018 64.0757 43.0042 64.1775 43.0515 64.2476C42.6433 64.5363 42.2418 64.8252 41.8502 65.1122C42.3004 64.8772 43.4828 64.902 44.1747 65.9787C44.7339 66.8488 44.2905 67.9307 43.8007 68.3154C42.5395 69.3061 41.8992 69.7667 40.6973 70.5932C40.3494 70.8324 39.1154 70.8879 38.4497 69.9909C38.0574 69.4623 37.9097 68.9149 38.1902 68.0212C37.6256 68.524 37.1486 68.9907 36.786 69.4051L36.7684 69.4252L36.9037 69.558C37.774 69.5858 38.4039 70.3708 38.2639 70.8935C39.0842 71.4888 39.7428 71.5419 40.5815 71.2344C41.2068 71.0052 41.9488 70.5262 42.4844 70.0916C45.8627 67.3501 49.6223 64.1602 51.0845 62.8434Z" stroke="#353331" stroke-width="0.508569"/>
<path d="M34.9624 61.1798L34.6433 60.2591C34.5808 60.0742 34.6368 59.8652 34.8496 59.6981L38.8689 56.7875L40.2276 56.0031L41.114 57.5385L34.9891 61.164C34.9802 61.1692 34.9713 61.1744 34.9624 61.1798Z" stroke="#353231" stroke-width="1.01714"/>
<path d="M67.4813 39.8653L69.0226 38.9754L69.901 40.497L50.2027 52.1597L50.26 52.2587C50.4924 52.6614 50.3545 53.1762 49.9518 53.4087L42.2639 57.8473C41.8612 58.0798 41.3464 57.9418 41.1139 57.5392L40.3869 56.28L46.6043 52.6904L46.3941 52.3264L47.0337 51.9572L47.2438 52.3211L47.4121 52.224C47.8953 51.8319 48.112 51.582 48.3895 51.0853L49.246 50.5024L54.4613 47.4913L59.8124 44.5234C60.4129 44.6472 60.9898 44.3849 61.8603 43.8823L62.0435 44.1999L67.9988 40.7616L67.4813 39.8653Z" stroke="#353231" stroke-width="1.01714"/>
<path fill-rule="evenodd" clip-rule="evenodd" d="M73.4059 36.4453L69.0232 38.9757L69.9015 40.497L50.2029 52.1599L50.2601 52.259C50.4925 52.6616 50.3546 53.1764 49.9519 53.4089L42.2639 57.8476C41.8613 58.0801 41.3461 57.9413 41.1136 57.5387L34.9886 61.1643C34.6904 61.3365 34.4164 61.6272 34.1616 61.9511L26.9574 71.2443C25.8805 72.4404 24.8308 72.7243 23.701 72.6514C22.7123 72.5877 21.4274 73.164 20.4062 73.7102C14.1947 77.0325 9.50294 80.2072 3.58913 85.0115C2.08524 86.2333 1.256 87.1974 0.673065 88.4249C0.456408 88.8811 0.837908 89.8159 1.15126 90.1287C4.31804 93.2899 5.70057 95.2428 7.93005 98.3923L8.29752 98.9112C8.64548 99.4022 10.2603 98.3747 10.8846 97.7471C18.9022 89.6871 23.1776 84.8331 28.5649 78.6953C30.943 75.986 33.5388 73.012 36.7861 69.4051C37.9679 68.0547 40.3641 66.1485 43.0517 64.2476C43.0043 64.1776 43.0182 64.0757 43.0882 64.0283L45.2785 62.5472C45.3456 62.5019 45.4356 62.5168 45.4848 62.5796L45.5785 62.5173C48.645 60.4817 51.8536 58.5475 53.6819 57.5737L63.3811 51.7971C64.1432 51.3571 73.0775 44.6479 75.941 41.8016C76.1095 41.6342 76.1506 41.1992 76.0167 40.9673L76.8523 40.5028L92.3352 31.1999L93.0069 30.8264L96.5259 28.7947C98.1445 27.7718 98.8263 26.8058 98.2458 25.9635L97.272 24.4717L96.6853 23.6694C96.5663 23.5226 96.2659 23.4232 96.0889 23.5254L95.1222 24.0835L90.661 26.7632L90.0039 27.162L73.5373 36.6728L73.4059 36.4453Z" stroke="#4D2919" stroke-width="1.01714"/>
<path d="M43.7998 55.6373C43.6826 55.4212 43.4125 55.3411 43.1964 55.4583C42.9804 55.5756 42.9003 55.8457 43.0175 56.0617L46.6742 62.8013C46.7914 63.0173 47.0616 63.0974 47.2776 62.9802C47.4936 62.863 47.5737 62.5928 47.4565 62.3768L43.7998 55.6373Z" fill="#7A7371" stroke="#353231" stroke-width="0.508569" stroke-linecap="round"/>
<circle cx="47.0646" cy="62.587" r="1.19823" transform="rotate(-30 47.0646 62.587)" fill="#847D7B" stroke="#353231" stroke-width="1.01714"/>
<path d="M73.2363 36.1553L74.0648 35.677L77.0741 40.8893L76.2456 41.3676L73.2363 36.1553Z" fill="#4B423F" stroke="#353231" stroke-width="0.508569"/>
<rect x="90.2383" y="30.168" width="7.57634" height="0.572017" rx="0.286008" transform="rotate(-30 90.2383 30.168)" fill="#514744" stroke="#353231" stroke-width="0.508569"/>
<path fill-rule="evenodd" clip-rule="evenodd" d="M84.5042 33.1817C84.1363 33.3941 84.0102 33.8648 84.2226 34.2328C84.4351 34.6008 84.9058 34.7269 85.2737 34.5145L88.4203 32.6978C88.7883 32.4853 88.9144 32.0147 88.7019 31.6467C88.4894 31.2787 88.0188 31.1526 87.6508 31.365L84.5042 33.1817ZM85.1179 33.2562C85.1058 33.2633 85.1016 33.2788 85.1086 33.291L85.4812 33.9365C85.4882 33.9486 85.5038 33.9528 85.516 33.9457L87.8066 32.6232C87.8188 32.6162 87.823 32.6006 87.816 32.5885L87.4433 31.943C87.4363 31.9309 87.4207 31.9267 87.4086 31.9337L85.1179 33.2562Z" fill="#544943" stroke="#353231" stroke-width="0.508569"/>
<path d="M75.7812 38.6475L76.2404 39.4428L80.3827 37.0512C80.6023 36.9245 80.6775 36.6436 80.5507 36.424C80.4239 36.2044 80.1431 36.1291 79.9235 36.2559L75.7812 38.6475Z" fill="#514744" stroke="#353231" stroke-width="0.508569"/>
<path d="M89.8242 26.8535L90.4897 26.4693L93.1919 31.1496L92.5264 31.5338L89.8242 26.8535Z" fill="#4B423F" stroke="#353231" stroke-width="0.508569"/>
<path d="M104.441 15.832L105.568 15.1815L107.06 17.7663L105.934 18.4168L104.441 15.832Z" stroke="#353231" stroke-width="0.508569"/>
<rect x="60.8945" y="42.5918" width="1.55209" height="1.18424" transform="rotate(-28.5 60.8945 42.5918)" stroke="#353231" stroke-width="0.508569"/>
<path d="M8.90703 98.9915C8.62881 99.0701 8.40443 99.0618 8.29818 98.9119C8.17297 98.7352 8.05062 98.5624 7.93072 98.393C5.70121 95.2435 4.3187 93.2905 1.15188 90.1293C0.838547 89.8165 0.457052 88.8817 0.673684 88.4256C0.921085 87.9047 1.21284 87.4312 1.5817 86.9653L1.80275 87.4147C1.81547 87.4405 1.80873 87.472 1.78729 87.4913C0.798762 88.379 0.945578 89.3181 1.42114 89.8297C4.49991 93.1419 6.1867 95.1285 8.90686 98.9913L8.90703 98.9915Z" fill="#544D4A" stroke="#363230" stroke-width="1.01714"/>
</g>
<defs>
<linearGradient id="paint0_linear_619_1198" x1="60.1999" y1="45.1945" x2="62.0134" y2="44.1474" gradientUnits="userSpaceOnUse">
<stop stop-color="#4E4A48"/>
<stop offset="1" stop-color="#4B4746"/>
</linearGradient>
<clipPath id="clip0_619_1198">
<rect width="110" height="110" fill="white"/>
</clipPath>
</defs>
</svg>
