<svg width="114.292" height="20.872" viewBox="0 0 30.24 5.522" xmlns="http://www.w3.org/2000/svg">
    <path style="fill:#a67e59;fill-opacity:1;stroke:#1e1710;stroke-width:.79375;stroke-linecap:round;stroke-linejoin:round;stroke-dasharray:none;stroke-opacity:1" d="m-139.499 15.492-8.906-.21s-1.056.353-1.058 1.586c-.002 1.234 1.058 1.622 1.058 1.622l8.93.21z" transform="translate(157.201 -14.114)"/>
    <path style="fill:#a67e59;fill-opacity:1;stroke:#1e1710;stroke-width:.79375;stroke-linecap:round;stroke-linejoin:round;stroke-dasharray:none;stroke-opacity:1" d="M-147.332 14.7h7.848s.508.29.529 1.94c.02 1.651-.295 2.599-.295 2.599h-8.107s-.538-.965-.517-2.476c.022-1.51.542-2.062.542-2.062z" transform="translate(157.201 -14.114)"/>
    <path style="fill:#323234;fill-opacity:1;stroke:#161618;stroke-width:.396875;stroke-linecap:round;stroke-linejoin:round;stroke-dasharray:none;stroke-opacity:1" d="M-139.449 16.616v-1.57l.277-.037v-.517c-.298-.234-.97-.246-1.286 0v.53l.29.032v1.579z" transform="translate(157.201 -14.114)"/>
    <path class="cls-12" d="M-133.143 16.063h5.795c.03 0 .052.03.052.065v1.678c0 .036-.022.065-.052.065h-5.795c-.03 0-.052-.03-.052-.065v-1.675c0-.036.022-.065.052-.065z" style="fill:#313135;fill-opacity:1;stroke:none;stroke-width:.808995px;stroke-linecap:round;stroke-linejoin:round;stroke-opacity:1" transform="translate(157.201 -14.114)"/>
    <path class="cls-12" d="M-129.785 15.947h1.326c.007 0 .013.03.013.064v1.68c0 .034-.006.064-.013.064h-1.326c-.007 0-.013-.03-.013-.065v-1.676c0-.035.006-.064.013-.064z" style="fill:#494950;fill-opacity:1;stroke:none;stroke-width:.404642px;stroke-linecap:round;stroke-linejoin:round;stroke-opacity:1" transform="translate(157.201 -14.114)"/>
    <path class="cls-12" d="M-133.65 16.087h6.214c.032 0 .056.03.056.065v1.679c0 .035-.024.064-.056.064h-6.214c-.031 0-.055-.03-.055-.064v-1.676c0-.036.024-.065.055-.065z" style="fill:none;fill-opacity:1;stroke:#161618;stroke-width:.837684px;stroke-linecap:round;stroke-linejoin:round;stroke-opacity:1" transform="translate(157.201 -14.114)"/>
    <path style="fill:#3e3e43;fill-opacity:1;stroke:none;stroke-width:.743242;stroke-linecap:round;stroke-linejoin:round;stroke-dasharray:none;stroke-opacity:1" d="m-146.46 15.456 12.12.036 1.165.495v1.652l-1.164.523h-12.312c-.562-.033-2.666-1.021-1.78-1.267.885-.246 1.704-1.05 1.97-1.44z" transform="translate(157.201 -14.114)"/>
    <path style="fill:#4a4a4f;fill-opacity:1;stroke:none;stroke-width:.396875;stroke-linecap:round;stroke-linejoin:round;stroke-dasharray:none;stroke-opacity:1" d="M-133.246 17.343h-1.088v1.029l1.137-.657zM-133.22 16.654h-1.087v-1.03l1.136.657z" transform="translate(157.201 -14.114)"/>
    <path style="fill:none;fill-opacity:1;stroke:#161618;stroke-width:.79375;stroke-linecap:round;stroke-linejoin:round;stroke-dasharray:none;stroke-opacity:1" d="M-146.651 15.774h12.344l1.165.297v1.821l-1.165.316h-12.369c-.046-.003.015-.658-.033-.658-.616.005-1.692.192-1.723-.614-.032-.806.853-.755 1.778-.66.036.003-.035-.5.003-.502z" transform="translate(157.201 -14.114)"/>
    <path style="fill:#7b7b84;fill-opacity:1;stroke:none;stroke-width:.320393;stroke-linecap:round;stroke-linejoin:round;stroke-dasharray:none;stroke-opacity:1" d="M-138.627 15.729v2.505h2.858v-2.505zm.602.33h1.658v1.91h-1.658z" transform="translate(157.201 -14.114)"/>
    <path style="fill:#7b7b84;fill-opacity:1;stroke:#161618;stroke-width:.396875;stroke-dasharray:none;stroke-opacity:1" d="M-134.323 15.752v2.343c-.017.738-.79.66-.789 0v-2.343c.003-.69.775-.652.789 0z" transform="translate(157.201 -14.114)"/>
    <path style="fill:#4a4a4f;fill-opacity:1;stroke:none;stroke-width:.396875;stroke-linecap:round;stroke-linejoin:round;stroke-dasharray:none;stroke-opacity:1" d="M-138.552 16.106h2.725l-.096-.726h-2.483zM-138.593 17.756h2.724l-.095.674h-2.483z" transform="translate(157.201 -14.114)"/>
    <path style="fill:none;fill-opacity:1;stroke:#161618;stroke-width:.396875;stroke-linecap:round;stroke-linejoin:round;stroke-dasharray:none;stroke-opacity:1" d="M-138.104 15.242h1.8c.401.01.529.23.53.537v2.314c-.004.367-.178.534-.53.537h-1.8c-.36-.007-.52-.21-.53-.536V15.78c.008-.3.19-.527.53-.539z" transform="translate(157.201 -14.114)"/>
    <path style="fill:#3b3b40;fill-opacity:1;stroke:#161618;stroke-width:.396875;stroke-dasharray:none;stroke-opacity:1" d="M-148.573 16.258h-7.395c-.421.014-.46-.626 0-.637h7.395c.44.007.441.63 0 .637z" transform="translate(157.201 -14.381)"/>
    <path style="fill:#525258;fill-opacity:1;stroke:#161618;stroke-width:.396875;stroke-linecap:round;stroke-linejoin:round;stroke-dasharray:none;stroke-opacity:1" d="M-148.853 15.522h2.078v.854h-2.078z" transform="translate(157.201 -14.381)"/>
    <path style="fill:#3b3b40;fill-opacity:1;stroke:#161618;stroke-width:.396875;stroke-dasharray:none;stroke-opacity:1" d="M-148.825 18.86h-7.395c-.421.015-.46-.626 0-.637h7.395c.44.007.441.63 0 .638z" transform="translate(157.201 -14.381)"/>
    <path style="fill:#525258;fill-opacity:1;stroke:#161618;stroke-width:.396875;stroke-linecap:round;stroke-linejoin:round;stroke-dasharray:none;stroke-opacity:1" d="M-148.86 18.108h2.078v.853h-2.078z" transform="translate(157.201 -14.381)"/>
    <path style="fill:#4a4a4f;fill-opacity:1;stroke:#161618;stroke-width:.79375;stroke-linecap:round;stroke-linejoin:round;stroke-dasharray:none;stroke-opacity:1" d="M-156.805 15.496v3.526h1.766v-.936h-.631V16.45h.637v-.953h-.707z" transform="translate(157.201 -14.381)"/>
    <path style="fill:#323234;fill-opacity:1;stroke:#161618;stroke-width:.396875;stroke-linecap:round;stroke-linejoin:round;stroke-dasharray:none;stroke-opacity:1" d="M-146.897 15.575h.306c.401.01.529.23.529.537v1.758c-.003.367-.177.535-.53.538h-.305c-.36-.008-.521-.211-.53-.537v-1.758c.008-.3.19-.527.53-.538z" transform="translate(157.201 -14.114)"/>
    <path style="fill:#262627;fill-opacity:1;stroke:none;stroke-width:.329349;stroke-dasharray:none;stroke-opacity:1" d="M-137.973 16.41h1.491v1.079h-1.614z" transform="translate(157.201 -14.114)"/>
    <path style="fill:none;fill-opacity:1;stroke:#161618;stroke-width:.396875;stroke-linecap:round;stroke-linejoin:round;stroke-dasharray:none;stroke-opacity:1" d="M-137.928 15.915h1.448v2.043h-1.448z" transform="translate(157.201 -14.114)"/>
    <path style="fill:none;fill-opacity:1;stroke:#161618;stroke-width:.529167;stroke-linecap:round;stroke-linejoin:round;stroke-dasharray:none;stroke-opacity:1" d="M-128.463 16.069v1.72M-129.764 17.408v-.9" transform="translate(157.201 -14.114)"/>
    <path style="fill:#323234;fill-opacity:1;stroke:#161618;stroke-width:.396875;stroke-linecap:round;stroke-linejoin:round;stroke-dasharray:none;stroke-opacity:1" d="M-143.414 16.485h1.935v1.042h-1.951z" transform="translate(157.201 -14.114)"/>
    <path style="fill:#262627;fill-opacity:1;stroke:#161618;stroke-width:.396875;stroke-dasharray:none;stroke-opacity:1" d="M-136.477 16.433h-1.502M-136.425 17.475h-1.502" transform="translate(157.201 -14.114)"/>
</svg>
