<svg width="110" height="110" viewBox="0 0 110 110" fill="none" xmlns="http://www.w3.org/2000/svg">
<g clip-path="url(#clip0_3608_4683)">
<path d="M56.9349 62.7223L56.932 62.7242L51.0121 66.1421C53.0957 65.3638 54.6646 66.092 54.8933 67.3546L56.1738 74.7127C56.3581 76.0347 56.2514 77.1823 55.0712 78.0713L47.6532 82.3769C47.2651 82.589 46.9773 82.6214 46.5367 82.6107L41.6262 82.6239C40.4833 82.507 39.3788 81.8997 38.7448 80.5475L39.373 87.8605C39.8245 85.7498 41.3512 84.2873 42.5152 84.356L46.697 84.3576C47.1376 84.3684 47.4254 84.336 47.8135 84.1239L55.5243 79.6721C57.2443 78.6926 58.3372 77.0143 58.0439 75.2438L56.7292 67.9055C56.292 66.1241 56.3898 63.6427 57.9503 62.0787C57.6501 62.2894 57.3108 62.505 56.9349 62.7223Z" fill="#393946" stroke="#2E2E38" stroke-width="1.37824" stroke-miterlimit="3.99393"/>
<path d="M67.6803 21.6372L67.6806 21.6377L69.7535 25.228L67.605 26.4684L67.9221 27.0176L92.2291 12.984C91.6729 11.4301 91.0104 9.93754 89.7933 8.76516C87.011 10.394 87.3824 11.024 84.62 12.6811L82.0905 14.1415C79.4859 15.6216 77.9466 15.7486 75.7379 16.9852L67.6803 21.6372Z" fill="#404040"/>
<path d="M77.4588 16.161C76.9143 16.3852 76.3552 16.6421 75.7451 16.9837L67.6875 21.6357L68.7699 23.5105L78.469 17.9107L77.4588 16.161Z" fill="#4D4D4D"/>
<path d="M7.3457 63.3506L68.5089 28.038L72.4263 34.8233L11.2632 70.1359L7.3457 63.3506Z" fill="#666666"/>
<path fill-rule="evenodd" clip-rule="evenodd" d="M73.7228 37.0612L72.4302 34.8224L11.2656 70.1357L12.2172 71.7839L52.2081 48.6952L52.6855 49.2068L73.7228 37.0612Z" fill="#595959"/>
<path d="M67.8047 26.8086L71.2811 24.8015L77.2007 35.0545L73.7243 37.0616L67.8047 26.8086Z" fill="#4D4D4D" stroke="#333333" stroke-width="2.75649" stroke-miterlimit="3.99393"/>
<path d="M6.44141 61.7783L67.6045 26.4658L68.5112 28.0362L7.34806 63.3487L6.44141 61.7783Z" fill="#595959"/>
<path d="M13.9655 49.4305L13.9667 45.6892L11.8367 45.7435L11.791 46.8387L8.96341 46.8253L8.99452 45.8945L8.35663 45.9058L8.35538 49.5147" fill="#404040" stroke="#333333" stroke-width="1.37824" stroke-miterlimit="3.99393"/>
<path d="M4.46292 51.3731L7.14761 56.0231L6.90516 56.1631L7.82053 57.7486L18.1722 51.772L17.3564 50.3591L16.8214 50.668L16.1065 49.3868L14.334 49.1794L10.2263 49.4171C8.82069 49.4019 7.9365 48.7793 7.26116 47.9133L6.1172 48.5737C4.69292 49.4192 4.56053 50.46 4.46292 51.3731Z" fill="#454554"/>
<path d="M4.96644 52.245L7.13028 50.9958L8.17472 52.8048L14.4348 49.1905L14.3337 49.1787L10.226 49.4164C8.82043 49.4012 7.93624 48.7786 7.26089 47.9126L6.11694 48.5731C4.69265 49.4185 4.56026 50.4593 4.46265 51.3725L4.96644 52.245Z" fill="#515162"/>
<path d="M16.2913 49.7209L6.70339 55.2565L7.14553 56.0223L6.90308 56.1623L7.81845 57.7478L18.1701 51.7712L17.3543 50.3583L16.8193 50.6672L16.2913 49.7209Z" fill="#3A3A46"/>
<path d="M7.09043 52.8548C7.17231 52.9967 7.12372 53.178 6.98188 53.2599C6.84004 53.3418 6.65868 53.2932 6.5768 53.1514C6.49492 53.0096 6.54351 52.8282 6.68535 52.7463C6.82719 52.6644 7.00855 52.713 7.09043 52.8548Z" fill="#353541" stroke="#353541" stroke-width="1.30228" stroke-miterlimit="3.99393"/>
<path d="M4.46292 51.3731L7.14761 56.0231L6.90516 56.1631L7.82053 57.7486L18.1722 51.772L17.3564 50.3591L16.8214 50.668L16.1065 49.3868L14.334 49.1794L10.2263 49.4171C8.82069 49.4019 7.9365 48.7793 7.26116 47.9133L6.1172 48.5737C4.69292 49.4192 4.56053 50.46 4.46292 51.3731Z" stroke="#2E2E38" stroke-width="1.37824" stroke-miterlimit="3.99393"/>
<path d="M32.1776 41.8051L31.2436 40.1873L31.4777 39.6565L31.7823 40.184L36.3221 37.5629L36.0212 37.0417L36.8292 37.1163L37.6966 38.6187" fill="#404040" stroke="#333333" stroke-width="1.37824" stroke-miterlimit="3.99393"/>
<path d="M6.90473 56.164L4.12782 57.7672L6.44499 61.7807L69.7566 25.2277L67.539 21.3868L58.1806 26.7899L57.8145 26.1558L53.581 28.6L53.1076 29.0722L39.2182 37.0913C38.788 37.3026 38.8126 37.7223 38.9201 37.91L30.7452 42.6297C30.6275 42.4178 30.3351 42.1762 30.1081 42.3013L19.3212 48.5291C19.048 48.6586 19.1791 49.0127 19.3057 49.2343L17.356 50.36L18.1718 51.7729L7.8201 57.7495L6.90473 56.164Z" fill="#4D4D4D" stroke="#333333" stroke-width="1.37825" stroke-miterlimit="3.99393"/>
<path d="M51.1883 55.4725L55.9646 52.7149L61.9058 59.0809L61.5438 59.4997L59.3675 60.7562C60.0621 59.684 58.9991 59.111 55.581 59.8714C54.8918 59.9488 53.6515 59.8111 52.9996 58.7754L51.4596 56.1082C51.3229 55.889 51.2357 55.6774 51.1883 55.4725Z" fill="#404040"/>
<path d="M62.919 57.377C70.7562 66.7698 79.7787 74.6776 88.1311 80.7391L93.7731 73.5782C85.0741 67.4539 76.2888 59.2276 68.9612 50.2778" fill="#666666"/>
<path d="M68.9618 50.2778C76.2894 59.2276 85.0746 67.4539 93.7737 73.5782L91.9195 75.9315C82.7889 69.3128 73.8907 62.1307 67.0449 52.53L68.9618 50.2778Z" fill="#595959" stroke="#333333" stroke-width="1.37824" stroke-miterlimit="3.99393"/>
<path d="M62.919 57.377C70.7562 66.7698 79.7787 74.6776 88.1311 80.7391L93.7731 73.5782C85.0741 67.4539 76.2888 59.2276 68.9612 50.2778" stroke="#333333" stroke-width="2.7565" stroke-miterlimit="3.99393"/>
<path d="M65.981 45.17C65.0314 44.0488 65.2383 41.8616 66.9875 40.9585L66.6444 40.3643L52.2151 48.7L61.9095 59.0878L69.7195 49.9112L65.981 45.17Z" fill="#474747" stroke="#333333" stroke-width="1.37825" stroke-miterlimit="3.99393"/>
<path d="M41.9434 71.375C43.0935 71.1608 44.1976 71.4286 44.9788 73.1003C47.0921 77.0328 48.1972 77.7661 50.9167 78.2405C51.2545 78.2897 51.2399 78.2109 50.9594 78.0777C48.0891 77.4841 44.6344 75.0712 45.5696 69.2814L41.9434 71.375Z" fill="#353541" stroke="#2E2E38" stroke-width="1.37824" stroke-miterlimit="3.99393" stroke-linecap="round"/>
<path d="M13.4401 73.9L47.0305 54.5006L47.6831 54.4028L51.225 52.3654L51.9749 53.1647C51.3781 54.0348 50.7478 54.9694 51.4599 56.1113L52.9998 58.7785C53.6518 59.8142 54.8921 59.9519 55.5813 59.8745C60.7803 58.7178 60.5307 60.6462 56.9352 62.7235L29.4612 78.5857C24.6754 75.6622 19.8365 75.3191 16.1839 76.817C15.6435 77.0386 15.4034 77.2237 15.0463 76.6821L13.4401 73.9Z" fill="#515161"/>
<path d="M51.2211 52.3641L47.6792 54.4016L47.6152 54.4111L53.5431 64.6785L56.9314 62.7223C60.5268 60.6448 60.7764 58.7166 55.5774 59.8732C54.8882 59.9506 53.6479 59.8129 52.996 58.7773L51.456 56.11C50.7439 54.9681 51.3743 54.0336 51.9711 53.1634L51.2211 52.3641Z" fill="#4A4A59" stroke="#2E2E38" stroke-width="1.37825" stroke-miterlimit="3.99393"/>
<path d="M64.5446 45.3808L66.9445 48.1975C67.3886 48.6614 67.6289 48.8258 66.9496 49.7595L62.6268 54.5763C61.9295 55.2009 61.3814 55.2404 60.6382 54.6342L57.0148 50.6424C56.3224 49.9361 56.4034 49.2121 57.3063 48.6806L63.3412 45.337C64.38 44.6918 64.168 45.0369 64.5446 45.3808Z" fill="#404040"/>
<path d="M4.00596 64.9514C3.68638 64.3978 3.00811 64.1911 2.491 64.4897C1.97389 64.7882 1.81376 65.479 2.13333 66.0325L6.67114 73.8922C6.99072 74.4458 7.66899 74.6525 8.1861 74.3539C8.70321 74.0553 8.86334 73.3646 8.54376 72.8111L4.00596 64.9514Z" fill="#808080" stroke="#333333" stroke-width="1.37824" stroke-miterlimit="3.99393"/>
<path d="M7.48652 66.5656L3.05859 69.1221L4.38339 71.4167L8.85088 68.8374" fill="#4D4D4D"/>
<path d="M7.48652 66.5656L3.05859 69.1221L4.38339 71.4167L8.85088 68.8374" stroke="#333333" stroke-width="1.37824" stroke-miterlimit="3.99393"/>
<path d="M3.78513 57.1819L1.46484 58.5215L12.6953 77.9733L15.0156 76.6337" fill="#4D4D4D" stroke="#333333" stroke-width="1.37824" stroke-miterlimit="3.99393"/>
<path d="M73.375 29.585L94.7671 17.2343L96.6166 20.4378L75.2246 32.7885" fill="#474747" stroke="#333333" stroke-width="2.7565" stroke-miterlimit="3.99393"/>
<path d="M15.9159 75.0821C16.5221 74.7321 16.7298 73.9569 16.3798 73.3507C16.0298 72.7445 15.2547 72.5368 14.6484 72.8868C14.0422 73.2368 13.8345 74.0119 14.1845 74.6181C14.5345 75.2244 15.3097 75.4321 15.9159 75.0821Z" fill="#393946"/>
<path d="M10.3145 68.493L56.9849 41.5479L55.4164 38.8312L8.74609 65.7764" fill="#4D4D4D" stroke="#333333" stroke-width="1.37824" stroke-miterlimit="3.99393"/>
<path d="M41.9807 41.318L43.6405 44.1928C44.7864 46.1464 44.7291 45.646 45.6628 45.2282L53.3509 40.7895C57.9418 37.8055 53.6396 29.8691 48.0447 32.9771L42.8193 35.9939C40.5764 37.2431 40.6049 39.0359 41.9807 41.318Z" fill="#404040"/>
<path d="M7.67773 63.9209L16.05 59.0871C16.7846 58.6661 17.3575 58.8301 17.7766 59.5497L19.5619 62.6421C19.9495 63.3291 19.8362 64.0979 18.9237 64.6024L10.7863 69.305" fill="#5E5E5E" stroke="#333333" stroke-width="1.37824" stroke-miterlimit="3.99393" stroke-linecap="round"/>
<path d="M39.9121 69.2314L43.1826 67.3432L44.378 69.4136L41.1206 71.2943L39.9121 69.2314Z" fill="#8F3D3D"/>
<path d="M35.0234 72.6855L38.294 70.7973L39.4893 72.8678L36.232 74.7484L35.0234 72.6855Z" fill="#CCCCCC"/>
<path d="M25.0469 67.2529L45.0278 55.7169L46.2232 57.7874L26.2554 69.3157L25.0469 67.2529Z" fill="#8F3D3D"/>
<path d="M18.9881 76.066C24.3058 75.5318 26.7851 79.2698 26.6477 84.0079L25.289 107.2C26.0457 107.241 26.7997 107.287 27.5555 107.333C31.6966 107.584 35.8881 107.839 40.8261 107.357C43.5591 107.232 43.1403 106.284 40.8937 105.555L38.3184 75.5753C38.1958 74.4999 38.659 73.3014 40.3393 72.3013L29.4586 78.5833C25.8172 76.3589 22.1451 75.6284 18.9881 76.066Z" fill="#464654" stroke="#2E2E38" stroke-width="2.7565" stroke-miterlimit="3.99393"/>
<path d="M92.2256 75.5416L90.9623 74.5891L90.1233 75.7326L91.293 76.7252L92.2256 75.5416Z" fill="#404040" stroke="#333333" stroke-width="1.37825" stroke-miterlimit="3.99393"/>
<path d="M35.4239 67.0386L34.4684 68.7216Z" fill="#404040"/>
<path d="M31.4371 73.9755C32.4698 72.6848 32.8059 71.5962 34.9488 71.0908C35.9688 70.8502 37.9658 68.7649 35.6921 67.1754C33.4184 65.5859 32.2845 68.1257 32.0328 69.2424L31.1488 73.8055C31.0904 74.0015 31.2711 74.171 31.4038 74.0167L31.4371 73.9755Z" fill="#404040"/>
<path d="M12.2188 71.7842L13.4398 73.899L47.0286 54.4997L47.6811 54.402L51.2231 52.3646L51.973 53.1638C51.4908 53.867 50.9867 54.6121 51.1866 55.4747L55.9629 52.7171L52.2096 48.6954L12.2188 71.7842Z" fill="#4D4D4D" stroke="#333333" stroke-width="1.37824" stroke-miterlimit="3.99393"/>
<path d="M56.8696 56.6157C57.576 56.2078 57.8181 55.3045 57.4102 54.598C57.0023 53.8915 56.099 53.6495 55.3925 54.0574C54.686 54.4652 54.4439 55.3686 54.8518 56.0751C55.2597 56.7816 56.1631 57.0236 56.8696 56.6157Z" fill="#5A5A5A" stroke="#333333" stroke-width="1.37824" stroke-miterlimit="3.99393"/>
<path d="M60.6725 67.3874C60.2942 67.429 59.9538 67.1561 59.9122 66.7778L59.2516 60.7739C59.2099 60.3956 59.4829 60.0551 59.8612 60.0135C60.2395 59.9719 60.5799 60.2448 60.6215 60.6231L60.9477 63.5877C61.2129 63.6438 61.454 63.808 61.6002 64.0612C61.8735 64.5346 61.7113 65.14 61.2379 65.4133C61.2102 65.4293 61.182 65.4438 61.1534 65.4569L61.2821 66.6271C61.3238 67.0054 61.0508 67.3458 60.6725 67.3874Z" fill="#3B3B3B" stroke="#333333" stroke-width="1.37825" stroke-miterlimit="3.99393"/>
<path d="M33.4199 43.8438L34.4408 45.612L39.4363 42.7278L38.4187 40.9652L33.4199 43.8438Z" fill="#595959" stroke="#333333" stroke-width="1.37824" stroke-miterlimit="3.99393"/>
<path d="M55.0762 31.3428L56.0973 33.1115L61.0928 30.2273L60.0749 28.4643L55.0762 31.3428Z" fill="#595959" stroke="#333333" stroke-width="1.37824" stroke-miterlimit="3.99393"/>
<path d="M35.136 66.86C35.1338 66.8635 35.1318 66.867 35.1297 66.8706L34.1744 68.553C34.1296 68.6323 34.1182 68.7262 34.1425 68.814C34.1667 68.9018 34.2248 68.9764 34.304 69.0215C34.3833 69.0662 34.4772 69.0777 34.565 69.0534C34.6528 69.0291 34.7274 68.9711 34.7725 68.8919L35.7305 67.2075C35.7169 67.1978 35.7032 67.188 35.6893 67.1783C35.4967 67.0437 35.3123 66.9387 35.136 66.86Z" fill="#999999"/>
<path d="M31.4371 73.9755C32.4698 72.6848 32.8059 71.5962 34.9488 71.0908C35.9688 70.8502 37.9658 68.7649 35.6921 67.1754C33.4184 65.5859 32.2845 68.1257 32.0328 69.2424L31.1488 73.8055C31.0904 74.0015 31.2711 74.171 31.4038 74.0167L31.4371 73.9755Z" stroke="#333333" stroke-width="1.37824" stroke-miterlimit="3.99393"/>
<rect x="8.25391" y="53.2256" width="6.84647" height="1.37824" rx="0.689119" transform="rotate(-30 8.25391 53.2256)" fill="#353541"/>
<path d="M42.7543 42.6626L41.9781 41.3183C41.8791 41.154 41.787 40.9922 41.7023 40.833L53.9062 33.7871C54.3841 34.3103 54.7549 34.9332 54.991 35.5977L42.7543 42.6626Z" fill="#4D4D4D"/>
<path d="M41.9807 41.318L43.6405 44.1928C44.7864 46.1464 44.7291 45.646 45.6628 45.2282L53.3509 40.7895C57.9418 37.8055 53.6396 29.8691 48.0447 32.9771L42.8193 35.9939C40.5764 37.2431 40.6049 39.0359 41.9807 41.318Z" stroke="#333333" stroke-width="2.7565" stroke-miterlimit="3.99393"/>
<path d="M91.498 19.5273L93.174 22.4302L96.3539 20.5943L94.678 17.6914L91.498 19.5273Z" fill="#595959"/>
<path d="M6.90473 56.164L4.12782 57.7672L13.4413 73.8986L47.0301 54.4993L47.6827 54.4016L51.2246 52.3641L51.9745 53.1634C51.4923 53.8665 50.9882 54.6117 51.1881 55.4743C51.2356 55.6793 51.3227 55.8909 51.4594 56.11L52.9994 58.7773C53.6513 59.813 54.8916 59.9506 55.5809 59.8733C58.9989 59.1128 60.0619 59.6859 59.3673 60.758L61.5436 59.5015L69.7178 49.9099L65.9793 45.1687C65.0297 44.0475 65.2345 41.8567 66.9836 40.9535L73.7244 37.0618L67.9252 27.0174L92.2322 12.9837C91.676 11.4298 91.0135 9.9373 89.7964 8.76493C88.3886 9.58914 87.7882 10.1576 87.1807 10.7328C86.5876 11.2943 85.9877 11.8623 84.6231 12.6809L82.0936 14.1413C80.7231 14.9201 79.6476 15.3242 78.6144 15.7125C77.6838 16.0622 76.7876 16.399 75.741 16.9849L67.6834 21.637L67.539 21.3868L58.1806 26.7899L57.8145 26.1558L53.581 28.6L53.1076 29.0722L39.2182 37.0913C38.788 37.3026 38.8126 37.7223 38.9201 37.91L30.7452 42.6297C30.6275 42.4178 30.3351 42.1762 30.1081 42.3013L19.3212 48.5291C19.048 48.6586 19.1791 49.0128 19.3057 49.2343L17.356 50.36L18.1718 51.7729L7.8201 57.7495L6.90473 56.164Z" stroke="#333333" stroke-width="2.75649" stroke-miterlimit="3.99393"/>
<path d="M13.4401 73.9L47.0305 54.5006L47.6831 54.4028L51.225 52.3654L51.9749 53.1647C51.3781 54.0348 50.7478 54.9694 51.4599 56.1113L52.9998 58.7785C53.6518 59.8142 54.8921 59.9519 55.5813 59.8745C60.7803 58.7178 60.5307 60.6462 56.9352 62.7235L29.4612 78.5857C24.6754 75.6622 19.8365 75.3191 16.1839 76.817C15.6435 77.0386 15.4034 77.2237 15.0463 76.6821L13.4401 73.9Z" stroke="#2E2E38" stroke-width="2.7565" stroke-miterlimit="3.99393"/>
<path d="M76.9336 35.7518L70.6094 24.7979L85.5977 16.1443L88.7005 21.5534L89.1166 22.2741C89.5773 23.0504 90.6055 23.9185 92.2876 22.9399L96.1873 20.6883C96.2461 20.649 96.2917 20.6661 96.3314 20.7269L101.453 29.5981C101.502 29.6649 101.485 29.6593 101.427 29.6961L101.243 29.8025C101.154 29.8584 101.131 29.8386 101.095 29.7628L99.4201 26.8626C98.2129 24.841 96.4738 24.4882 94.2194 25.7718L90.0245 28.1938L77.0163 35.704L76.9336 35.7518Z" fill="#515162"/>
<path d="M89.0645 22.184L88.7004 21.5534L85.5977 16.1443L70.6094 24.7979L74.0913 30.8287L89.0645 22.184Z" fill="#5C5C70"/>
<path d="M82.7264 38.1996C82.1654 36.1594 79.1201 34.5325 77.0176 35.7031L90.0258 28.1928C88.4257 29.1961 85.7356 31.2297 88.8137 34.5657C90.7746 36.6167 91.5295 37.9531 93.1759 40.4263C95.395 43.7597 97.4113 48.559 99.1904 52.4515L93.1496 55.9482C90.3436 52.5948 87.9716 48.9184 85.7436 44.9884C84.4413 42.6936 83.4637 40.8813 82.7264 38.1996Z" fill="#505062"/>
<path d="M81.2184 33.2778L77.0176 35.7031C79.1201 34.5325 82.1654 36.1594 82.7264 38.1996C83.4637 40.8813 84.4413 42.6936 85.7436 44.9884C87.9716 48.9184 90.3436 52.5948 93.1496 55.9482L95.023 54.8638C94.7899 54.5418 94.5569 54.2209 94.3241 53.9002C91.2697 49.6932 88.2456 45.528 85.463 39.7014C85.1676 39.0828 84.9752 38.4407 84.7844 37.8037C84.5137 36.9001 84.246 36.0065 83.6913 35.2044C82.9615 34.1489 82.282 33.6224 81.2184 33.2778Z" fill="#454555"/>
<path d="M97.0997 53.6616C96.9442 53.3138 96.7896 52.9666 96.6352 52.62C94.5338 47.9019 92.4713 43.2711 88.8331 37.972C88.4451 37.4069 87.9852 36.9193 87.529 36.4355C86.8817 35.7492 86.2418 35.0706 85.8244 34.1892C85.2341 32.9425 85.1441 32.0518 85.4506 30.8342L90.0257 28.1928C88.4256 29.1961 85.7356 31.2296 88.8136 34.5656C90.4509 36.2781 91.2474 37.4924 92.424 39.2861C92.6566 39.6407 92.9041 40.018 93.1759 40.4263C95.0283 43.2089 96.7395 47.0131 98.2893 50.4586C98.5961 51.1405 98.8965 51.8083 99.1904 52.4514L97.0997 53.6616Z" fill="#454555"/>
<path d="M88.0325 48.8328C87.7888 48.4446 87.5476 48.0534 87.3087 47.6593C88.4001 47.0286 89.7418 46.2547 91.08 45.4834C92.4353 44.7022 93.7877 43.9232 94.8745 43.2974C95.0889 43.6975 95.3011 44.1062 95.5111 44.5212C94.433 45.142 93.1009 45.9093 91.7662 46.6786C90.4418 47.442 89.1155 48.2071 88.0325 48.8328Z" fill="#33333D"/>
<path d="M89.5481 51.1549C89.2898 50.7749 89.0348 50.3917 88.7828 50.0053C89.9204 49.3476 91.3813 48.5049 92.8381 47.6652C93.9908 47.0008 95.1414 46.338 96.1283 45.7697C96.3283 46.183 96.5262 46.6 96.7219 47.0183C95.756 47.5745 94.6411 48.2168 93.5243 48.8605C92.0992 49.6819 90.672 50.5052 89.5481 51.1549Z" fill="#33333D"/>
<path d="M91.1632 53.4272C90.8876 53.057 90.616 52.6834 90.3482 52.3064C90.3735 52.2918 90.399 52.277 90.4247 52.2622C91.5849 51.5913 93.1206 50.7053 94.6518 49.8227C95.5661 49.2957 96.4791 48.7698 97.31 48.2911C97.503 48.7133 97.6937 49.1344 97.8821 49.5521C97.082 50.013 96.2106 50.5151 95.338 51.018C93.8276 51.8886 92.3147 52.7613 91.1632 53.4272Z" fill="#33333D"/>
<path d="M85.6418 16.2133L83.3052 12.1663L79.1836 14.5459L81.5201 18.5929" fill="#454554"/>
<path d="M82.7264 38.1996C82.1654 36.1594 79.1201 34.5325 77.0176 35.7031L90.0258 28.1928C88.4257 29.1961 85.7356 31.2297 88.8137 34.5657C90.7746 36.6167 91.5295 37.9531 93.1759 40.4263C95.395 43.7597 97.4113 48.559 99.1904 52.4515L93.1496 55.9482C90.3436 52.5948 87.9716 48.9184 85.7436 44.9884C84.4413 42.6936 83.4637 40.8813 82.7264 38.1996Z" stroke="#2E2E38" stroke-width="2.7565" stroke-miterlimit="3.99393"/>
<path d="M81.972 18.3299L82.9245 21.9447C83.0739 22.6439 83.8366 23.6276 85.5402 22.685L88.4051 21.0309L85.6409 16.2117L81.972 18.3299Z" fill="#4A4A5A" stroke="#2E2E38" stroke-width="1.37824" stroke-miterlimit="3.99393"/>
<path d="M85.4832 21.11C85.9365 20.8483 86.0918 20.2687 85.8301 19.8154C85.5684 19.3621 84.9888 19.2068 84.5356 19.4685C84.0823 19.7302 83.927 20.3098 84.1887 20.7631C84.4504 21.2164 85.03 21.3717 85.4832 21.11Z" fill="#373743"/>
<path d="M82.176 14.9794C82.5881 14.7415 82.7293 14.2146 82.4914 13.8025C82.2535 13.3905 81.7265 13.2493 81.3145 13.4872C80.9024 13.7251 80.7612 14.252 80.9991 14.6641C81.237 15.0761 81.7639 15.2173 82.176 14.9794Z" fill="#373743"/>
<path d="M85.6418 16.2133L83.3052 12.1663L79.1836 14.5459L81.5201 18.5929" stroke="#2E2E38" stroke-width="1.37824" stroke-miterlimit="3.99393"/>
<path d="M93.1704 22.4284L81.4336 2.09961L83.3113 1.01551C85.1 2.37192 86.8115 4.05947 87.9388 6.02322L96.3504 20.5925" fill="#4D4D4D"/>
<path d="M83.3113 1.01551L81.4336 2.09961L84.9122 8.12467L88.0921 6.28874L87.9388 6.02322C86.8115 4.05947 85.1 2.37192 83.3113 1.01551Z" fill="#595959"/>
<path d="M87.2007 4.8801L84.082 6.68066L84.9172 8.12719L88.0971 6.29126L87.9438 6.02574C87.7182 5.63264 87.4691 5.25062 87.2007 4.8801Z" fill="#4D4D4D"/>
<path d="M83.3113 1.01551L81.4336 2.09961L84.9122 8.12467L88.0921 6.28874L87.9388 6.02322C86.8115 4.05947 85.1 2.37192 83.3113 1.01551Z" stroke="#333333" stroke-width="1.37824" stroke-miterlimit="3.99393"/>
<path d="M89.1626 8.13792L92.5219 13.9565L89.342 15.7924L85.9707 9.95312L89.1626 8.13792Z" fill="#595959"/>
<path d="M93.1704 22.4284L81.4336 2.09961L83.3113 1.01551C85.1 2.37192 86.8115 4.05947 87.9388 6.02322L96.3504 20.5925" stroke="#333333" stroke-width="1.37824" stroke-miterlimit="3.99393"/>
<path d="M76.9336 35.7518L70.6094 24.7979L85.5977 16.1443L88.7005 21.5534L89.1166 22.2741C89.5773 23.0504 90.6055 23.9185 92.2876 22.9399L96.1873 20.6883C96.2461 20.649 96.2917 20.6661 96.3314 20.7269L101.453 29.5981C101.502 29.6649 101.485 29.6593 101.427 29.6961L101.243 29.8025C101.154 29.8584 101.131 29.8386 101.095 29.7628L99.4201 26.8626C98.2129 24.841 96.4738 24.4882 94.2194 25.7718L90.0245 28.1938L76.9336 35.7518ZM76.9336 35.7518L77.0163 35.704" stroke="#2E2E38" stroke-width="2.7565" stroke-miterlimit="3.99393"/>
</g>
<defs>
<clipPath id="clip0_3608_4683">
<rect width="110" height="110" fill="white"/>
</clipPath>
</defs>
</svg>
