<svg xmlns="http://www.w3.org/2000/svg" xml:space="preserve" width="115.855" height="21.216" viewBox="0 0 30.653 5.613"><path d="M27.345 1.778h2.911v1.927h-2.911z" class="cls-3" style="fill:#484d56;fill-opacity:1;fill-rule:evenodd;stroke:#151619;stroke-width:.793733px;stroke-linecap:round;stroke-linejoin:round;stroke-miterlimit:5.89;stroke-opacity:1"/><rect width="9.596" height="4.82" x="17.688" y=".397" ry="1.042" style="fill:#997b60;fill-opacity:1;stroke:#1c1712;stroke-width:.79375;stroke-dasharray:none;stroke-opacity:1"/><rect width="9.14" height="3.243" x="18.426" y="1.185" ry="0" style="fill:#ab9179;fill-opacity:1;stroke:none;stroke-width:.79375;stroke-dasharray:none;stroke-opacity:1"/><rect width="9.596" height="4.82" x="17.688" y=".397" ry="1.042" style="fill:none;fill-opacity:1;stroke:#1c1712;stroke-width:.79375;stroke-dasharray:none;stroke-opacity:1"/><path d="M10.977 1.005v3.517h8.397l2.518-.955h5.224V1.96h-5.267L18.158.961z" style="fill:#a18468;fill-opacity:1;stroke:none;stroke-width:.79375;stroke-dasharray:none;stroke-opacity:1"/><path d="M3.169 2.132h5.296v1.351H3.169z" style="fill:#4d515c;fill-opacity:1;stroke:#151619;stroke-width:.79375;stroke-linejoin:round;stroke-dasharray:none;stroke-opacity:1"/><rect width="15.87" height="1.65" x="10.993" y="2.047" ry="0" style="fill:#a08368;fill-opacity:1;stroke:none;stroke-width:.396875;stroke-linejoin:round;stroke-dasharray:none;stroke-opacity:1"/><path d="M8.128 2.14v1.389l2.287 1.02-.061-3.553Z" style="fill:#7d674f;fill-opacity:1;stroke:none;stroke-width:.79375;stroke-linejoin:round;stroke-dasharray:none;stroke-opacity:1"/><path d="M8.22 2.453h2.142v.714H8.22z" style="fill:#9e8164;fill-opacity:1;stroke:none;stroke-width:.793999;stroke-linejoin:round;stroke-dasharray:none;stroke-opacity:1"/><path d="M25.301 2.003h.695v1.476h-.695z" style="fill:#8d7257;fill-opacity:1;stroke:none;stroke-width:.396875;stroke-dasharray:none;stroke-opacity:1"/><g style="stroke:#1c1712;stroke-opacity:1"><path d="M-1.655-7.127v3.293l-2.317-1.1v-1.064" style="fill:none;fill-opacity:1;stroke:#1c1712;stroke-width:.793767;stroke-linejoin:round;stroke-dasharray:none;stroke-opacity:1" transform="matrix(.99998 0 0 .99998 12.037 8.348)"/><path d="M-1.655-3.951v-3.293l-2.317 1.1v1.064" style="fill:none;fill-opacity:1;stroke:#1c1712;stroke-width:.793767;stroke-linejoin:round;stroke-dasharray:none;stroke-opacity:1" transform="matrix(.99998 0 0 .99998 12.037 8.348)"/></g><rect width="1.451" height=".545" x="15.351" y="4.765" ry=".154" style="fill:#5b606c;fill-opacity:1;stroke:#151619;stroke-width:.396875;stroke-linejoin:round;stroke-dasharray:none;stroke-opacity:1"/><path d="M23.632 2.047h.695v1.476h-.695zM21.963 2.003h.695v1.476h-.695z" style="fill:#8d7257;fill-opacity:1;stroke:none;stroke-width:.396875;stroke-dasharray:none;stroke-opacity:1"/><path d="M-6.588-5.78v-1.694h8.456l2.644.916H9.86v.734" style="fill:none;fill-opacity:1;stroke:#1c1712;stroke-width:.793767;stroke-dasharray:none;stroke-opacity:1" transform="matrix(.99998 0 0 .99998 17.427 8.574)"/><path d="M-6.588-6.283v2.222h8.456l2.644-.915H9.86V-6.24" style="fill:none;fill-opacity:1;stroke:#1c1712;stroke-width:.793767;stroke-dasharray:none;stroke-opacity:1" transform="matrix(.99998 0 0 .99998 17.427 8.574)"/><rect width="1.52" height="4.429" x="10.82" y=".549" ry=".76" style="fill:#444851;fill-opacity:1;stroke:#151619;stroke-width:.396875;stroke-linejoin:round;stroke-dasharray:none;stroke-opacity:1"/><path d="M11.949 2.134h.695V3.61h-.695zM20.294 1.982h.695v1.476h-.695zM18.625 1.982h.695v1.476h-.695zM16.956 2.025h.695v1.476h-.695z" style="fill:#8d7257;fill-opacity:1;stroke:none;stroke-width:.396875;stroke-dasharray:none;stroke-opacity:1"/><path d="M11.374 2.07h.584v1.474h-.584z" style="fill:#a08368;fill-opacity:1;stroke:none;stroke-width:.396875;stroke-linejoin:round;stroke-dasharray:none;stroke-opacity:1"/><path d="M15.287 2.025h.695v1.476h-.695zM13.618 2.047h.695v1.476h-.695z" style="fill:#8d7257;fill-opacity:1;stroke:none;stroke-width:.396875;stroke-dasharray:none;stroke-opacity:1"/><path d="M-6.02-5.78v-.778H9.86v.734" style="fill:none;fill-opacity:1;stroke:#1c1712;stroke-width:.396884;stroke-dasharray:none;stroke-opacity:1" transform="matrix(.99998 0 0 .99998 17.427 8.574)"/><path d="M-6.02-6.283v1.307H9.86V-6.24" style="fill:none;fill-opacity:1;stroke:#1c1712;stroke-width:.396884;stroke-dasharray:none;stroke-opacity:1" transform="matrix(.99998 0 0 .99998 17.427 8.574)"/><path d="M12.904 1.83h2.909v1.824h-2.909z" style="fill:#444851;fill-opacity:1;stroke:#151619;stroke-width:.396875;stroke-linejoin:round;stroke-dasharray:none;stroke-opacity:1"/><path d="M15.466 1.488h.858v2.508h-.858z" style="fill:#50545f;fill-opacity:1;stroke:#151619;stroke-width:.396875;stroke-linejoin:round;stroke-dasharray:none;stroke-opacity:1"/><circle cx="14.592" cy="2.742" r=".82" style="fill:#4d515c;fill-opacity:1;stroke:#151619;stroke-width:.396875;stroke-linejoin:round;stroke-dasharray:none;stroke-opacity:1"/><path d="M.397 1.47h4.622v2.674H.397z" style="fill:#393d44;fill-opacity:1;stroke:#151619;stroke-width:.794;stroke-linejoin:round;stroke-dasharray:none;stroke-opacity:1"/><path d="M.597 2.224h4.222v1.167H.597z" style="fill:#505661;fill-opacity:1;stroke:none;stroke-width:.793999;stroke-linejoin:round;stroke-dasharray:none;stroke-opacity:1"/><path d="M.397 1.47h4.622v2.674H.397z" style="fill:none;fill-opacity:1;stroke:#151619;stroke-width:.794;stroke-linejoin:round;stroke-dasharray:none;stroke-opacity:1"/></svg>