<?xml version="1.0" encoding="UTF-8" standalone="no"?>
<svg
   width="121.31834"
   height="52.068634"
   viewBox="0 0 121.31834 52.068634"
   fill="none"
   version="1.1"
   id="svg162"
   xmlns="http://www.w3.org/2000/svg"
   xmlns:svg="http://www.w3.org/2000/svg">
  <g
     clip-path="url(#clip0_2088_1899)"
     id="g162"
     transform="rotate(15,163.72507,54.193273)">
    <path
       d="m 72.4857,34.5087 3.966,-2.2898 -1.0495,-1.8177 -4.0313,2.3275 -0.2901,-0.5025 -1.2027,0.6944 -0.1334,0.4044 -0.3887,-0.103 -0.3252,0.1878 -0.1369,0.4065 -0.3843,0.0807 -1.8983,1.0959 -0.2177,-0.3771 -4.2413,2.4487 0.225,0.3896 3.9143,-2.2599 z"
       fill="#404040"
       id="path1" />
    <path
       d="m 71.0813,32.2267 -1.177,0.6795 1.0245,1.7745 1.4751,-0.1632 z"
       fill="#666666"
       stroke="#333333"
       stroke-width="0.567171"
       stroke-miterlimit="3.99393"
       id="path2" />
    <rect
       width="0.85075903"
       height="3.82901"
       rx="0.42537901"
       transform="matrix(-0.983329,0.181838,0.181831,0.98333,56.1367,54.5898)"
       fill="#3b3b3b"
       stroke="#333333"
       stroke-width="0.567171"
       stroke-miterlimit="3.99393"
       id="rect2"
       x="0"
       y="0" />
    <path
       d="m 49.564,63.5718 c 0.8778,0.2145 2.7976,0.8677 3.8296,0.1491 l 2.0297,-1.4035 c 1.0445,-0.8312 1.1077,-2.1645 0.5794,-2.9856 l -1.9334,-3.3488 -0.6089,0.4804 1.7917,3.1032 c 0.5282,0.8211 0.5148,1.5236 -0.5298,2.3548 l -1.565,1.1164 c -1.032,0.7186 -2.7055,0.0214 -3.5764,-0.2302 z"
       fill="#404040"
       stroke="#333333"
       stroke-width="0.567169"
       stroke-miterlimit="3.99393"
       id="path3" />
    <path
       d="m 64.5123,64.3917 -5.1393,-8.9015 7.2108,-4.1631 5.1393,8.9015 z"
       fill="#617557"
       id="path4" />
    <path
       d="m 63.4322,59.7103 1.1101,1.9226 2.8503,-1.6456 -1.1244,-1.9474"
       fill="#526449"
       id="path5" />
    <path
       d="m 61.4727,59.127 0.7914,1.3708 7.2108,-4.1631 -0.7915,-1.3709"
       fill="#495941"
       stroke="#303b2b"
       stroke-width="0.567171"
       stroke-miterlimit="3.99393"
       id="path6" />
    <path
       d="m 59.373,55.4902 0.6913,1.1973 7.2107,-4.1631 -0.6912,-1.1973"
       fill="#5a6c50"
       stroke="#303b2b"
       stroke-width="0.567171"
       stroke-miterlimit="3.99393"
       id="path7" />
    <path
       d="m 64.5123,64.3917 -5.1393,-8.9015 7.2108,-4.1631 5.1393,8.9015 z"
       stroke="#303b2b"
       stroke-width="1.13434"
       stroke-miterlimit="3.99393"
       id="path8" />
    <path
       d="M 61.8968,62.1167 C 60.827,60.665 60.261,59.5525 59.4967,57.9596 c -0.2717,-0.5158 0.6942,-0.901 0.9703,-0.5602 0,0 0.5857,0.4589 0.7267,1.1735 0.2298,1.1651 2.0813,3.3393 2.0813,3.3393"
       fill="#404040"
       stroke="#333333"
       stroke-width="0.567169"
       stroke-miterlimit="3.99393"
       id="path9" />
    <path
       d="m 72.9038,58.0107 c -1.1871,-1.4399 -3.1598,-4.2908 -4.3483,-5.9039 -0.2607,-0.325 -1.0794,0.4601 -0.8691,0.6482 0.734,1.0597 0.8622,1.9386 1.3397,2.4455 0.8143,0.8644 1.8618,3.5996 1.8618,3.5996"
       fill="#404040"
       stroke="#333333"
       stroke-width="0.567169"
       stroke-miterlimit="3.99393"
       id="path10" />
    <path
       d="m 73.0922,58.1595 c -0.6317,-0.9827 -1.6967,-0.2273 -2.6824,0.7584 -0.9857,0.9857 -1.021,1.9062 -2.0224,2.4844 -1.0015,0.5782 -2.9211,2.0958 -3.5607,1.7265 -0.6396,-0.3693 -1.2758,-1.6026 -1.8521,-1.2699 -0.5763,0.3328 -1.1643,-0.251 -1.2518,0.603 -0.0969,0.9459 3.7108,7.4405 5.1661,8.5701 1.0813,0.8392 2.0765,4.9033 4.2919,4.9197 1.4366,0.0106 1.7127,-0.1747 2.2739,-0.4987 0.3106,-0.1793 -0.0011,-0.2176 0.5665,-0.7425 0.4582,-0.4236 1.98,-1.4808 2.5122,-1.4807 1.1915,0 2.9685,-0.8384 2.9691,-1.8074 8e-4,-1.4077 -3.3239,-8.4618 -6.4103,-13.2629 z"
       fill="#4d4d4d"
       id="path11" />
    <path
       d="m 78.1656,72.8412 c -0.5159,-0.5987 -3.1983,-3.6815 -4.5179,-4.6158 -1.2866,-0.9108 -2.3317,0.5096 -3.008,1.4288 -0.0933,0.1267 -0.1795,0.2439 -0.2583,0.3441 -0.6512,0.8276 2.1709,5.5201 2.1709,5.5201 l 0.1671,0.2893 c 0.2611,-0.0794 0.4513,-0.1895 0.6867,-0.3257 0.016,-0.0093 0.0322,-0.0187 0.0487,-0.0282 0.1373,-0.0792 0.153,-0.1309 0.1768,-0.2093 0.03,-0.0989 0.073,-0.2403 0.3897,-0.5332 0.4582,-0.4236 1.98,-1.4807 2.5122,-1.4807 0.4991,0 1.1011,-0.1472 1.6321,-0.3894 z"
       fill="#404040"
       id="path12" />
    <path
       d="m 74.4845,60.4472 c -3.4693,2.5806 -7.2752,4.7921 -10.7557,6.242 0.529,0.8875 1.1008,1.7796 1.6334,2.5334 4.0761,-1.4077 7.7318,-3.7209 10.588,-6.1336 -0.4704,-0.8862 -0.9641,-1.7782 -1.4657,-2.6418 z"
       fill="#454545"
       id="path13" />
    <path
       d="m 67.3567,65.8059 0.8929,1.5466 3.5923,-2.0739 c -0.0033,-0.1944 -0.0253,-0.3807 0.2938,-0.7125 l 0.8381,-0.4839 0.5246,-0.6355 -0.9954,-0.157 -0.9579,0.553 c -0.2668,0.1776 -0.5444,0.1736 -0.8315,0.0117 -1.2172,0.5461 -2.3233,1.2102 -3.3569,1.9515 z"
       fill="#383838"
       stroke="#333333"
       stroke-width="0.567029"
       stroke-miterlimit="3.99393"
       id="path14" />
    <path
       d="m 67.582,71.9392 c 0.3945,-1.0083 3.0957,-2.0546 4.667,-2.6633 0.5655,-0.219 0.9847,-0.3814 1.0972,-0.4649 0.4626,-0.3432 -0.2177,-1.6805 -0.671,-1.8139 -0.2428,-0.0715 -1.491,0.5077 -2.7576,1.0955 -1.0988,0.5099 -2.2114,1.0262 -2.6936,1.1297 -0.6444,0.1384 -1.5221,-0.121 -2.0951,-0.3375 0.6848,0.9987 1.3262,1.8099 1.7592,2.146 0.231,0.1793 0.458,0.5057 0.6939,0.9084 z"
       fill="#383838"
       stroke="#333333"
       stroke-width="0.566992"
       stroke-miterlimit="3.99393"
       id="path15" />
    <path
       d="m 73.0922,58.1595 c -0.6317,-0.9827 -1.6967,-0.2273 -2.6824,0.7584 -0.9857,0.9857 -1.021,1.9062 -2.0224,2.4844 -1.0015,0.5782 -2.9211,2.0958 -3.5607,1.7265 -0.6396,-0.3693 -1.2758,-1.6026 -1.8521,-1.2699 -0.5763,0.3328 -1.1643,-0.251 -1.2518,0.603 -0.0969,0.9459 3.7108,7.4405 5.1661,8.5701 1.0813,0.8392 2.0765,4.9033 4.2919,4.9197 1.4366,0.0106 1.7127,-0.1747 2.2739,-0.4987 0.3106,-0.1793 -0.0011,-0.2176 0.5665,-0.7425 0.4582,-0.4236 1.98,-1.4808 2.5122,-1.4807 1.1915,0 2.9685,-0.8384 2.9691,-1.8074 8e-4,-1.4077 -3.3239,-8.4618 -6.4103,-13.2629 z"
       stroke="#333333"
       stroke-width="1.13434"
       stroke-miterlimit="3.99393"
       id="path16" />
    <path
       d="m 53.832,52.2402 11.8927,-6.8662 0.4075,0.706 c -0.7017,0.3997 -1.1555,0.9189 -1.065,1.5338 0.0245,0.1662 0.0886,0.3393 0.1983,0.5189 l 1.7137,2.9681 -7.957,4.5939 -0.4432,-0.7317 c -0.3437,-0.5354 -0.9267,-0.7347 -1.6358,-0.3919 l -1.3241,0.7645 z"
       fill="#595959"
       id="path17" />
    <path
       d="m 59.9938,48.6828 2.8404,4.9198 -2.1832,1.2605 -2.8405,-4.9197 z"
       fill="#4d4d4d"
       id="path18" />
    <path
       d="m 55.6185,55.3358 -1.787,-3.095 -15.9545,9.2113 0.7705,1.3347 10.1649,-5.8688 c 0.6537,-0.4087 1.2038,0.0933 1.8328,0.6675 0.1381,0.126 0.2799,0.2554 0.4275,0.3795 l 1.1775,-0.681 c -0.3289,0.0077 -0.6517,-0.1597 -0.8277,-0.4646 -0.2566,-0.4445 -0.1043,-1.0129 0.3402,-1.2696 0.4445,-0.2566 1.0129,-0.1043 1.2695,0.3402 0.1758,0.3045 0.1597,0.6671 -0.0108,0.9479 z"
       fill="#4d4d4d"
       id="path19" />
    <path
       d="m 30.4688,57.3809 3.6147,6.2609 31.5252,-18.2011 -0.4107,-0.7114 0.9621,-0.5555 -3.204,-5.5495 z"
       fill="#666666"
       stroke="#333333"
       stroke-width="1.13434"
       stroke-miterlimit="3.99393"
       id="path20" />
    <path
       d="m 37.8773,61.4522 0.7707,1.3349 10.1653,-5.869 c 0.7971,-0.4984 1.4401,0.3575 2.2602,1.047 l 5.8693,-3.3947 c 0.7091,-0.3428 1.2921,-0.1435 1.6358,0.3919 l 0.4432,0.7317 7.9569,-4.5939 -1.7136,-2.9681 c -0.5159,-0.8446 -0.0246,-1.545 0.8667,-2.0527 l -0.728,-1.2611 0.849,-0.4902 -1.85,-3.2041 c -0.0783,-0.1357 -0.0315,-0.3087 0.1041,-0.387 l -1.9537,-3.3839 -3.113,1.7974 0.6516,1.1286 -11.3682,6.5634 -21.1501,12.211 3.6146,6.2608 z"
       stroke="#333333"
       stroke-width="1.13434"
       stroke-miterlimit="3.99393"
       id="path21" />
    <path
       d="m 47.2598,44.3115 11.3686,-6.5637 2.9265,0.182 4.7367,-2.7347 9.6679,-1.07 -14.8112,8.5513 -0.8643,-1.497 -11.1244,6.4227 z"
       fill="#4d4d4d"
       id="path22" />
    <path
       d="M 61.5558,37.929 58.6292,37.7471 58.1641,38.0156 59,39.4635 60.9116,39.273 c 0.8586,-0.0446 1.2296,-0.8509 0.6922,-1.3718 z"
       fill="#404040"
       stroke="#333333"
       stroke-width="0.567169"
       stroke-miterlimit="3.99393"
       id="path23" />
    <path
       d="m 76.2172,63.5939 c -0.7357,-1.4088 -1.5382,-2.8489 -2.3448,-4.1816 0.4981,0.4782 1.1511,0.9346 1.7293,1.3387 0.7739,0.5409 1.4136,0.988 1.3677,1.2678 -0.0757,0.461 -0.5792,1.2978 -0.7522,1.5751 z"
       fill="#404040"
       stroke="#333333"
       stroke-width="0.566992"
       stroke-miterlimit="3.99393"
       id="path24" />
    <path
       d="m 53.832,52.2402 11.8927,-6.8662 0.4075,0.706 c -0.7017,0.3997 -1.1555,0.9189 -1.065,1.5338 0.0245,0.1662 0.0886,0.3393 0.1983,0.5189 l 1.7137,2.9681 -7.957,4.5939 -0.4432,-0.7317 c -0.3437,-0.5354 -0.9267,-0.7347 -1.6358,-0.3919 l -1.3241,0.7645 z"
       stroke="#333333"
       stroke-width="0.567171"
       stroke-miterlimit="3.99393"
       id="path25" />
    <path
       d="m 87.886,31.814 2.6136,4.5269 -0.8609,2.4262 -3.3519,1.9352 -0.8641,-1.4968 2.0945,-1.2093 -2.5848,-4.477 z"
       fill="#404040"
       stroke="#333333"
       stroke-width="0.567169"
       stroke-miterlimit="3.99393"
       id="path26" />
    <path
       d="m 90.1538,36.1072 1.4712,2.5483 -0.2343,0.1612 0.0269,0.0466 2.7002,-1.559 -0.0269,-0.0466 -0.2568,0.1224 -1.4712,-2.5483"
       fill="#8c8c8c"
       id="path27" />
    <path
       d="m 92.9597,35.8123 -2.144,1.8497 0.0926,0.1073 2.144,-1.8497 z"
       fill="#666666"
       id="path28" />
    <path
       d="m 93.4612,36.4761 -2.1441,1.8496 0.0926,0.1074 2.144,-1.8497 z"
       fill="#666666"
       id="path29" />
    <path
       d="m 94.854,45.804 -0.8054,0.192 C 93.1154,44.0682 92.484,41.5246 89.3741,39.3019 l 0.3011,-0.7133 -0.834,-0.8842 -2.7141,2.5597 0.834,0.8842 0.7297,-0.2589 c 0.9951,3.1303 2.4556,4.3541 4.447,6.4284 l -0.3435,0.6811 0.5883,1.0862 c 1.0588,0.2343 2.3942,0.1943 3.0901,-2.1786 C 95.3188,46.5791 95.101,46.0658 94.854,45.804 Z"
       fill="#404040"
       id="path30" />
    <path
       d="m 90.1538,36.1072 1.4712,2.5483 -0.2343,0.1612 0.0269,0.0466 2.7002,-1.559 -0.0269,-0.0466 -0.2568,0.1224 -1.4712,-2.5483"
       stroke="#333333"
       stroke-width="0.567169"
       stroke-miterlimit="3.99393"
       id="path31" />
    <path
       d="m 86.4502,38.6353 c 0.8358,-0.4825 1.1221,-1.5512 0.6396,-2.387 -0.4825,-0.8358 -1.5512,-1.1221 -2.387,-0.6396 -0.8358,0.4825 -1.1222,1.5513 -0.6396,2.387 0.4825,0.8358 1.5512,1.1222 2.387,0.6396 z"
       fill="#383838"
       stroke="#333333"
       stroke-width="0.566992"
       stroke-miterlimit="3.99393"
       id="path32" />
    <path
       d="m 88.8059,36.8185 c 0.4444,-0.2566 0.5966,-0.8248 0.3401,-1.2692 -0.2566,-0.4443 -0.8248,-0.5966 -1.2691,-0.34 -0.4444,0.2566 -0.5967,0.8248 -0.3401,1.2691 0.2565,0.4444 0.8247,0.5966 1.2691,0.3401 z"
       fill="#383838"
       stroke="#333333"
       stroke-width="0.566992"
       stroke-miterlimit="3.99393"
       id="path33" />
    <path
       d="m 60.9414,51.2705 6.5822,-3.8002 0.0449,0.0777 17.5763,-10.1477 0.1037,0.1796 7.3529,-4.2452 0.5653,1.0022 -7.3529,4.2452 0.1037,0.1796 -17.5663,10.1419 0.0446,0.0772 -6.5823,3.8003 z"
       fill="#b2b2b2"
       stroke="#333333"
       stroke-width="0.567169"
       stroke-miterlimit="3.99393"
       id="path34" />
    <path
       d="m 62.3509,53.7094 -1.9566,-3.389 c -0.265,-0.4106 -0.7414,-0.1193 -0.6633,0.3829 0.0897,0.5153 0.0569,0.477 0.3241,0.9657 l -1.2736,1.9043 2.229,-0.166 c 0.2723,0.4443 0.2401,0.3777 0.586,0.7456 0.3261,0.3469 1.0442,0.024 0.7544,-0.4435 z"
       fill="#808080"
       stroke="#333333"
       stroke-width="0.567169"
       stroke-miterlimit="3.99393"
       id="path35" />
    <path
       d="m 94.0479,45.9965 0.8055,-0.192 c 0.2145,0.2275 0.4071,0.6447 0.5549,0.9651 0.0223,0.0483 0.0436,0.0945 0.0638,0.1375 -0.5243,1.7874 -1.4114,2.2511 -2.2698,2.2709 0.5322,-0.5039 1.2681,-1.7143 1.3992,-2.1442 -0.0693,-0.1562 -0.076,-0.1742 -0.0934,-0.2204 -0.0034,-0.009 -0.0072,-0.0192 -0.0119,-0.0316 l -0.9644,0.2814 c -0.2161,-0.3997 -0.4156,-0.7735 -0.6039,-1.1264 -1.3782,-2.5832 -2.1585,-4.0457 -4.494,-6.3059 l 0.8759,-1.4286 0.3648,0.3868 -0.3012,0.7133 c 2.5558,1.8266 3.4377,3.87 4.1887,5.6102 0.1629,0.3773 0.3196,0.7404 0.4858,1.0839 z"
       fill="#4d4d4d"
       id="path36" />
    <path
       d="m 94.854,45.804 -0.8054,0.192 C 93.1154,44.0682 92.484,41.5246 89.3741,39.3019 l 0.3011,-0.7133 -0.834,-0.8842 -2.7141,2.5597 0.834,0.8842 0.7297,-0.2589 c 0.9951,3.1303 2.4556,4.3541 4.447,6.4284 l -0.3435,0.6811 0.5883,1.0862 c 1.0588,0.2343 2.3942,0.1943 3.0901,-2.1786 C 95.3188,46.5791 95.101,46.0658 94.854,45.804 Z"
       stroke="#333333"
       stroke-width="1.13434"
       stroke-miterlimit="3.99393"
       id="path37" />
    <path
       fill-rule="evenodd"
       clip-rule="evenodd"
       d="m 96.4168,22.8026 -23.1893,13.4985 -1.0363,-1.7949 23.2843,-13.3339 0.1359,0.0279 4.2907,-2.4772 0.1459,0.0222 0.506,-0.2919 -0.206,-0.3562 7.338,-4.2366 1.139,1.9735 -7.338,4.2366 -0.176,-0.3063 -0.506,0.2919 -0.054,0.1375 -4.2905,2.4772 z m 10.5452,-6.5692 c 0.736,-0.4253 1.218,-0.969 1.077,-1.2145 -0.142,-0.2455 -0.854,-0.0998 -1.591,0.3254 -0.736,0.4252 -1.218,0.969 -1.076,1.2145 0.141,0.2455 0.853,0.0998 1.59,-0.3254 z"
       fill="#808080"
       id="path38" />
    <path
       d="m 96.4168,22.8026 -23.1893,13.4985 -1.0363,-1.7949 23.2843,-13.3339 0.1359,0.0279 4.2907,-2.4772 0.1459,0.0222 0.506,-0.2919 -0.206,-0.3562 7.338,-4.2366 1.139,1.9735 -7.338,4.2366 -0.176,-0.3063 -0.506,0.2919 -0.054,0.1375 -4.2905,2.4772 z"
       stroke="#333333"
       stroke-width="1.13434"
       stroke-miterlimit="3.99393"
       id="path39" />
    <path
       d="m 85.2835,28.3472 -1.077,-1.8654 3.8945,-2.2486 -0.7416,-1.2845 0.2227,-0.1285 1.2133,1.1196 1.707,2.9566 0.9987,0.2783 1.458,2.5252 -1.3355,0.7711 0.6358,1.1012 -0.7791,0.4498 -3.1404,-5.4394 z"
       fill="#4d4d4d"
       id="path40" />
    <path
       d="m 92.8175,29.457 -2.1144,1.2207 0.7754,1.343 0.7794,-0.45 -0.635,-1.0998 1.3349,-0.7708 z"
       fill="#404040"
       id="path41" />
    <path
       d="m 91.8633,27.8027 1.0843,-0.626 1.9058,-0.3585 0.3429,0.594 -0.6186,1.3544"
       fill="#404040"
       id="path42" />
    <path
       d="m 91.8633,27.8027 1.0843,-0.626 1.9058,-0.3585 0.3429,0.594 -0.6186,1.3544 -1.6185,0.9344 z"
       fill="#404040"
       id="path43" />
    <path
       d="m 91.8633,27.8027 1.0843,-0.626 1.9058,-0.3585 0.3429,0.594 -0.6186,1.3544"
       stroke="#333333"
       stroke-width="0.566992"
       stroke-miterlimit="3.99393"
       id="path44" />
    <path
       d="m 91.8633,27.8027 1.0843,-0.626 1.9058,-0.3585 0.3429,0.594 -0.6186,1.3544 -1.6185,0.9344 z"
       stroke="#333333"
       stroke-width="0.566992"
       stroke-miterlimit="3.99393"
       id="path45" />
    <path
       d="m 72.4857,34.5087 3.966,-2.2898 -1.0495,-1.8177 -4.0313,2.3275 -0.2901,-0.5025 -1.2027,0.6944 -0.1334,0.4044 -0.3887,-0.103 -0.3252,0.1878 -0.1369,0.4065 -0.3843,0.0807 -1.8983,1.0959 -0.2177,-0.3771 -4.2413,2.4487 0.225,0.3896 3.9143,-2.2599 z"
       stroke="#333333"
       stroke-width="0.567171"
       stroke-miterlimit="3.99393"
       id="path46" />
    <path
       d="m 52.6907,57.1593 c 0.4443,-0.2566 0.5966,-0.8248 0.34,-1.2691 -0.2565,-0.4444 -0.8247,-0.5966 -1.2691,-0.3401 -0.4443,0.2566 -0.5966,0.8248 -0.34,1.2691 0.2565,0.4444 0.8247,0.5966 1.2691,0.3401 z"
       stroke="#333333"
       stroke-width="0.566992"
       stroke-miterlimit="3.99393"
       id="path47" />
    <path
       d="m 62.8618,38.5474 c 0.305,-0.1761 0.4095,-0.5661 0.2334,-0.8711 -0.1761,-0.305 -0.5661,-0.4095 -0.8711,-0.2334 -0.305,0.1761 -0.4095,0.5661 -0.2334,0.8711 0.1761,0.305 0.5661,0.4095 0.8711,0.2334 z"
       fill="#404040"
       id="path48" />
    <path
       d="m 29.5019,56.0126 -1.6562,-2.8687 c -0.0151,-0.761 0.4491,-1.4455 1.6641,-1.3932 l 3.1882,0.0353 3.3611,-1.9405 c 0.1262,-0.4851 0.4861,-0.6666 1.0377,-0.5992 0.2638,-0.5162 0.6029,-0.6765 0.928,-0.5357 l 0.7613,0.3879 0.4153,-0.2397 0.3322,0.5754 -0.499,0.288 0.3407,0.59"
       fill="#4d4d4d"
       id="path49" />
    <path
       d="m 37.7468,51.2522 -4.126,2.3821 c -0.1302,-0.0468 -0.2484,-0.142 -0.3262,-0.2768 l -0.4051,-0.7016 c -0.1633,-0.283 -0.087,-0.6328 0.1704,-0.7815 l 3.4432,-1.9879 c 0.2575,-0.1487 0.5986,-0.0398 0.7619,0.2432 l 0.4051,0.7016 c 0.0778,0.1348 0.1013,0.2847 0.0767,0.4209 z"
       fill="#666666"
       id="path50" />
    <path
       d="M 29.102,58.1699 28.7866,57.6236 V 56.425 l 15.5201,-8.9606 0.8345,1.4453"
       fill="#404040"
       stroke="#333333"
       stroke-width="0.567169"
       stroke-miterlimit="3.99393"
       id="path51" />
    <path
       d="m 29.5019,56.0126 -1.6562,-2.8687 c -0.0151,-0.761 0.4491,-1.4455 1.6641,-1.3932 l 3.1882,0.0353 3.3611,-1.9405 c 0.1262,-0.4851 0.4862,-0.6666 1.0377,-0.5992 0.2638,-0.5162 0.6029,-0.6765 0.928,-0.5357 l 0.7613,0.3879 0.4153,-0.2397 0.3322,0.5754 -0.499,0.288 0.3407,0.59"
       stroke="#333333"
       stroke-width="0.567169"
       stroke-miterlimit="3.99393"
       id="path52" />
    <path
       d="m 29.7849,54.5086 c 0.4825,-0.2786 0.6479,-0.8956 0.3693,-1.3781 -0.2786,-0.4826 -0.8956,-0.6479 -1.3782,-0.3693 -0.4825,0.2786 -0.6478,0.8956 -0.3692,1.3781 0.2786,0.4825 0.8956,0.6479 1.3781,0.3693 z"
       fill="#595959"
       stroke="#333333"
       stroke-width="0.566992"
       stroke-miterlimit="3.99393"
       id="path53" />
    <path
       d="m 34.2517,52.9471 c 0.2733,-0.1578 0.3669,-0.5072 0.2092,-0.7805 -0.1578,-0.2733 -0.5073,-0.3669 -0.7805,-0.2091 -0.2733,0.1578 -0.3669,0.5072 -0.2092,0.7805 0.1578,0.2733 0.5072,0.3669 0.7805,0.2091 z"
       fill="#404040"
       stroke="#333333"
       stroke-width="0.566992"
       stroke-miterlimit="3.99393"
       id="path54" />
    <path
       d="m 36.8494,51.4471 c 0.2733,-0.1578 0.3669,-0.5072 0.2091,-0.7805 -0.1578,-0.2733 -0.5072,-0.3669 -0.7805,-0.2091 -0.2733,0.1578 -0.3669,0.5072 -0.2091,0.7805 0.1578,0.2733 0.5072,0.3669 0.7805,0.2091 z"
       fill="#404040"
       stroke="#333333"
       stroke-width="0.566992"
       stroke-miterlimit="3.99393"
       id="path55" />
    <path
       d="m 65.3557,37.4364 c 0.4261,-0.246 0.5721,-0.7908 0.3261,-1.2169 -0.246,-0.4261 -0.7908,-0.5721 -1.2169,-0.3261 -0.4261,0.246 -0.5721,0.7909 -0.3261,1.217 0.246,0.4261 0.7908,0.572 1.2169,0.326 z"
       fill="#404040"
       id="path56" />
    <path
       d="m 47.2598,44.3115 11.3686,-6.5637 2.9265,0.182 4.7367,-2.7347 9.6679,-1.07 -14.8112,8.5513 -0.8643,-1.497 -11.1244,6.4227 z"
       stroke="#333333"
       stroke-width="1.13434"
       stroke-miterlimit="3.99393"
       id="path57" />
    <path
       d="m 47.2141,50.766 -0.3309,-0.5732 -2.2155,1.2791 0.3309,0.5732 -4.29,2.4769 -0.3309,-0.5732 -2.2156,1.2791 0.331,0.5732 -4.8492,2.7996 -0.3309,-0.5732 -1.8501,1.0682 2.0495,3.5498 1.8501,-1.0682 -0.2602,-0.4506 4.8491,-2.7997 0.2602,0.4507 2.2155,-1.2791 -0.2602,-0.4507 4.2901,-2.4768 0.2601,0.4506 2.2156,-1.2791 -0.2602,-0.4507 17.0668,-9.8535 -1.4584,-2.5259 z"
       fill="#595959"
       id="path58" />
    <path
       d="m 56.0742,46.1992 8.4422,-4.8741 0.9835,1.7035 -8.4422,4.8741 z"
       fill="#4d4d4d"
       id="path59" />
    <path
       d="m 33.9141,65.0277 -0.5572,-0.9651 4.5186,-2.6088 0.8741,1.5139 -3.568,2.06 c -0.7451,0.4431 -1.0485,0.4297 -1.2675,0 z"
       fill="#404040"
       stroke="#333333"
       stroke-width="0.567169"
       stroke-miterlimit="3.99393"
       id="path60" />
    <path
       d="m 27.0194,62.4317 -3.8378,2.2158 1.7926,3.1048 3.8378,-2.2157 z"
       fill="#404040"
       stroke="#333333"
       stroke-width="1.13434"
       stroke-miterlimit="3.99393"
       id="path61" />
    <path
       d="m 23.59,63.7902 2.7668,4.751 -4.2539,2.4519 -14.4355,8.3473 3.301,5.7176 1.1274,-0.6509 2.3787,-3.0048 0.1835,-1.054 0.8252,-0.8655 0.1419,0.2457 -0.6671,0.7499 -0.2888,1.3786 -3.6665,4.4531 C 8.18795,83.5361 6.08623,79.909 3.95604,76.2328 3.74821,75.8741 3.54012,75.515 3.33107,75.1562 l 0.03476,-0.0219 c 0.25813,-0.1621 0.56481,-0.3522 0.93519,-0.58 0.00615,-0.0042 0.01237,-0.0081 0.01867,-0.0118 0.08529,-0.0492 0.18456,-0.0483 0.31102,-0.047 0.09882,10e-4 0.21429,0.0021 0.35263,-0.0205 0.01976,-0.0032 0.03999,-0.0069 0.0607,-0.0112 z"
       fill="#595959"
       id="path62" />
    <path
       d="m 25.4237,69.0765 c -0.0421,-0.1345 -0.15,-0.2452 -0.2961,-0.2844 l -4.296,-1.1511 c -0.2269,-0.0608 -0.4601,0.0739 -0.5209,0.3008 -0.0608,0.227 0.0738,0.4602 0.3007,0.521 l 4.0119,1.075 z"
       fill="#4d4d4d"
       id="path63" />
    <path
       d="m 23.7863,70.0202 c -0.0423,-0.1339 -0.15,-0.244 -0.2957,-0.283 l -4.2959,-1.1511 c -0.2269,-0.0608 -0.4602,0.0739 -0.521,0.3008 -0.0608,0.227 0.0739,0.4602 0.3008,0.521 l 4.01,1.0745 z"
       fill="#4d4d4d"
       id="path64" />
    <path
       d="m 22.3911,70.8244 -3.8059,-1.0198 c -0.227,-0.0608 -0.4602,0.0739 -0.521,0.3008 -0.0608,0.227 0.0739,0.4602 0.3008,0.521 l 2.9846,0.7997 0.7507,-0.4341 z"
       fill="#4d4d4d"
       id="path65" />
    <path
       d="m 20.8781,71.6987 -3.8068,-1.02 c -0.227,-0.0608 -0.4602,0.0739 -0.521,0.3008 -0.0608,0.2269 0.0738,0.4602 0.3008,0.521 l 2.9862,0.8001 z"
       fill="#4d4d4d"
       id="path66" />
    <path
       d="M 19.0416,72.7607 C 18.9868,72.6694 18.8979,72.5984 18.787,72.5686 l -4.296,-1.151 c -0.2269,-0.0608 -0.4602,0.0738 -0.521,0.3008 -0.0608,0.2269 0.0739,0.4601 0.3008,0.5209 l 3.8763,1.0387 z"
       fill="#4d4d4d"
       id="path67" />
    <path
       d="M 17.4054,73.7068 C 17.3507,73.615 17.2615,73.5436 17.1501,73.5137 l -4.296,-1.1511 c -0.2269,-0.0608 -0.4602,0.0739 -0.521,0.3008 -0.0608,0.2269 0.0739,0.4602 0.3008,0.521 l 3.878,1.0391 z"
       fill="#4d4d4d"
       id="path68" />
    <path
       d="m 15.7691,74.653 c -0.0547,-0.0923 -0.1441,-0.1642 -0.256,-0.1942 l -4.2959,-1.1511 c -0.227,-0.0608 -0.4602,0.0739 -0.521,0.3008 -0.0608,0.2269 0.0738,0.4602 0.3008,0.521 l 3.8797,1.0395 z"
       fill="#4d4d4d"
       id="path69" />
    <path
       d="M 14.1328,75.5992 C 14.0782,75.5063 13.9885,75.434 13.8762,75.4039 L 9.58028,74.2528 C 9.35336,74.192 9.12011,74.3266 9.0593,74.5536 c -0.06081,0.2269 0.07386,0.4601 0.30079,0.5209 l 3.88151,1.0401 z"
       fill="#4d4d4d"
       id="path70" />
    <path
       d="M 12.4966,76.5453 C 12.4421,76.4519 12.3521,76.3791 12.2393,76.3489 L 7.94339,75.1978 c -0.22692,-0.0608 -0.46017,0.0739 -0.52098,0.3008 -0.0608,0.227 0.07386,0.4602 0.30079,0.521 l 3.8832,1.0405 z"
       fill="#4d4d4d"
       id="path71" />
    <path
       d="m 10.8604,77.4915 c -0.0545,-0.094 -0.1448,-0.1672 -0.258,-0.1975 L 6.30651,76.1429 c -0.22693,-0.0608 -0.46018,0.0739 -0.52099,0.3008 -0.0608,0.2269 0.07386,0.4602 0.30079,0.521 l 3.88497,1.0409 z"
       fill="#4d4d4d"
       id="path72" />
    <path
       d="M 9.22405,78.4377 C 9.16964,78.3432 9.07914,78.2695 8.9655,78.2391 L 4.66956,77.088 C 4.59494,77.068 4.51964,77.0691 4.45,77.0877 c 0.18958,0.3261 0.37938,0.6512 0.56994,0.9749 l 3.31613,0.8886 z"
       fill="#4d4d4d"
       id="path73" />
    <path
       d="m 23.3383,73.1061 -1.2384,-2.1125 -8.6375,4.9947 2.1596,3.7405 2.0703,-2.3272 c 0.2257,-0.5333 0.3974,-0.7476 1.2224,-1.1503 l 3.6197,-1.8286 c 0.0499,-0.0255 0.0986,-0.0501 0.146,-0.0741 0.6547,-0.3304 1.0558,-0.5329 0.6579,-1.2425 z"
       fill="#4d4d4d"
       id="path74" />
    <path
       d="m 20.1635,72.1134 1.5676,2.7151 -1.9571,0.9887 -1.5057,-2.6079 z"
       fill="#404040"
       id="path75" />
    <path
       d="m 23.3383,73.1061 -1.2384,-2.1125 -8.6375,4.9947 2.1596,3.7405 2.0703,-2.3272 c 0.2257,-0.5333 0.3974,-0.7476 1.2224,-1.1503 l 3.6197,-1.8286 c 0.0499,-0.0255 0.0986,-0.0501 0.146,-0.0741 0.6547,-0.3304 1.0558,-0.5329 0.6579,-1.2425 z"
       stroke="#333333"
       stroke-width="1.13434"
       stroke-miterlimit="3.99393"
       id="path76" />
    <path
       fill-rule="evenodd"
       clip-rule="evenodd"
       d="m 26.2598,70.3436 -2.9199,2.7615 -1.2227,-2.1178 4.2381,-2.4469 c 0.425,0.7361 0.3598,1.2926 -0.0955,1.8032 z m -2.9035,0.5698 1.6912,-0.9764 c 0.1946,-0.1124 0.4434,-0.0457 0.5557,0.1489 l 0.0051,0.0088 c 0.1124,0.1946 0.0457,0.4434 -0.1489,0.5557 l -1.6911,0.9764 c -0.1946,0.1123 -0.4434,0.0457 -0.5558,-0.1489 l -0.0051,-0.0088 c -0.1123,-0.1946 -0.0456,-0.4434 0.1489,-0.5557 z"
       fill="#404040"
       stroke="#333333"
       stroke-width="0.567169"
       stroke-miterlimit="3.99393"
       id="path77" />
    <path
       d="M 24.4079,65.1947 4.29041,76.8096 C 4.17897,76.6175 4.06756,76.4253 3.95607,76.2329 3.74825,75.8742 3.54012,75.515 3.33106,75.1562 3.59631,74.9893 3.91385,74.7924 4.30097,74.5543 4.39043,74.4931 4.49489,74.4942 4.63071,74.4955 4.74365,74.4966 4.87828,74.4979 5.04399,74.4639 L 23.59,63.7902 Z"
       fill="#4d4d4d"
       id="path78" />
    <path
       d="m 13.541,86.0902 0.0149,2.9989 -0.0105,0.1302 c -0.0018,0.0333 -0.0045,0.0675 -0.0083,0.1027 l 0.0083,-0.1027 c 0.0635,-1.1964 -1.1471,-1.1723 -1.5696,-0.8846 l -0.6264,0.3616 C 7.78829,84.8847 4.71561,80.4636 2.253,75.867 c 0.38211,-0.2711 0.64312,-0.4372 1.07501,-0.7102 2.35188,4.037 4.58226,8.1093 7.67169,11.1539 l 3.6664,-4.453 -0.8193,3.9102 z"
       fill="#4d4d4d"
       id="path79" />
    <path
       d="m 13.5559,89.0891 -0.0149,-2.9989 0.3058,-0.3223 0.8193,-3.9102 -3.6664,4.453 C 7.91027,83.2661 5.67989,79.1938 3.32801,75.1568 2.89612,75.4298 2.63511,75.5959 2.253,75.867 c 2.46261,4.5966 5.53529,9.0177 9.0964,12.8293 l 0.6264,-0.3616 c 0.4343,-0.2957 1.7011,-0.313 1.5613,0.9873 z"
       stroke="#333333"
       stroke-width="0.567169"
       stroke-miterlimit="3.99393"
       id="path80" />
    <path
       d="M 1.15305,77.4901 C 0.932223,77.1483 0.849686,77.0205 1.1642,76.7684 c 0.49798,-0.4234 0.71029,-0.6259 1.09013,-0.902 2.46261,4.5965 5.53529,9.0177 9.09637,12.8293 l 0.6264,-0.3616 c 0.4343,-0.2957 1.7011,-0.313 1.5613,0.9873 -0.0641,0.596 -0.0928,0.8477 -0.4068,1.0379 -0.7912,0.4794 -1.826,1.1349 -1.9521,1.0255 C 10.5375,90.9714 8.64677,88.3453 8.21294,87.8081 5.43869,84.3726 3.20187,80.8053 1.1534,77.4907 Z"
       fill="#404040"
       id="path81" />
    <path
       d="m 49.6133,62.8451 c 0.2647,-0.3254 0.7085,-0.6093 0.9945,-0.614 L 53.133,62.189 c 0.1174,0.0159 0.08,-0.0151 0.0042,-0.0388 -1.1453,-0.2646 -2.8734,-1.6356 -2.2956,-4.0512 l -1.1956,0.6903 c -0.2676,0.1703 -0.3501,0.4856 -0.3003,0.8684 z"
       fill="#383838"
       stroke="#333333"
       stroke-width="0.567169"
       stroke-miterlimit="3.99393"
       id="path82" />
    <path
       d="M 23.589,63.7898 5.04301,74.4635 c -0.365,0.075 -0.57917,-0.0216 -0.74302,0.0905 -2.28331,1.4044 -2.14594,1.3743 -3.13464,2.2149 -0.314682,0.2522 -0.231891,0.38 -0.0108,0.7223 2.04847,3.3146 4.28529,6.8819 7.05953,10.3174 0.43383,0.5372 2.32462,3.1633 2.96662,3.5767 0.1261,0.1094 1.1609,-0.5461 1.9521,-1.0255 0.3139,-0.1902 0.3589,-0.4297 0.4251,-1.2716 l -0.0148,-2.999 0.3058,-0.3222 1.1081,-5.2889 2.7373,-3.0772 c 0.2257,-0.5333 0.3974,-0.7476 1.2225,-1.1503 l 3.6196,-1.8285 c 0.7384,-0.3779 1.2306,-0.5556 0.804,-1.3167 l -1.2385,-2.1126 4.2539,-2.452 z"
       stroke="#333333"
       stroke-width="1.13434"
       stroke-miterlimit="3.99393"
       id="path83" />
    <path
       d="m 51.1624,46.2443 -2.4319,1.4041 0.4687,0.8119 1.5863,-0.0669 1.215,-0.7015 z"
       fill="#404040"
       stroke="#333333"
       stroke-width="0.567169"
       stroke-miterlimit="3.99393"
       id="path84" />
    <path
       d="m 30.4724,57.3795 3.6146,6.2607 -2.8977,1.6731 -3.6147,-6.2608 z"
       fill="#4d4d4d"
       id="path85" />
    <path
       d="m 25.4911,60.1099 0.3581,-0.2068 2.553,4.4221"
       fill="#404040"
       id="path86" />
    <path
       d="m 28.8166,66.571 -1.076,-1.8638 0.3035,-0.1753 -2.553,-4.422 0.3581,-0.2068 2.553,4.4221 0.3036,-0.1753 1.0736,1.8594 z"
       fill="#404040"
       id="path87" />
    <path
       d="m 25.4911,60.1099 0.3581,-0.2068 2.553,4.4221"
       stroke="#333333"
       stroke-width="0.566992"
       stroke-miterlimit="3.99393"
       id="path88" />
    <path
       d="m 28.8166,66.571 -1.076,-1.8638 0.3035,-0.1753 -2.553,-4.422 0.3581,-0.2068 2.553,4.4221 0.3036,-0.1753 1.0736,1.8594 z"
       stroke="#333333"
       stroke-width="0.566992"
       stroke-miterlimit="3.99393"
       id="path89" />
    <path
       d="m 27.4959,64.8477 -2.1561,-3.7344 1.4565,-0.8409 2.1561,3.7344 z"
       fill="#4d4d4d"
       stroke="#333333"
       stroke-width="0.566992"
       stroke-miterlimit="3.99393"
       id="path90" />
    <path
       d="m 28.4858,67.0058 2.7421,-1.5831 -0.4155,-0.7197 -2.7377,1.5806 z"
       fill="#595959"
       stroke="#333333"
       stroke-width="0.566992"
       stroke-miterlimit="3.99393"
       id="path91" />
    <path
       d="m 25.2807,61.456 2.7421,-1.5831 -0.4155,-0.7197 -2.7376,1.5806 z"
       fill="#595959"
       stroke="#333333"
       stroke-width="0.566992"
       stroke-miterlimit="3.99393"
       id="path92" />
    <path
       d="m 55.0491,47.1894 -18.6403,10.762 -0.1037,-0.1796 -3.0302,1.7495 c -0.145,0.0858 -0.1896,0.2407 -0.1107,0.3754 l 0.5887,1.0197 c 0.0624,0.105 0.2007,0.1656 0.3693,0.0725 l 3.0302,-1.7494 -0.1037,-0.1796 18.6403,-10.762 z"
       fill="#404040"
       stroke="#333333"
       stroke-width="0.567169"
       stroke-miterlimit="3.99393"
       id="path93" />
    <path
       d="m 83.8952,25.9406 1.4854,2.5727 3.0557,-1.7642 4.4298,7.6727 c 0.3825,0.6721 1.2346,0.8583 1.9376,0.7306 l -0.5368,-0.9297 1.5579,-0.8995 0.5656,0.9797 c 0.4933,-0.4364 0.551,-1.4675 0.1194,-2.191 l -1.8631,-3.227 -1.6179,0.9341 -1.5267,-2.6442 -0.9987,-0.2783 -1.707,-2.9566 -1.2133,-1.1197 -0.2594,0.1498 -3.0064,-3.2601 -1.0017,0.5784 c -0.2756,0.1462 -0.1368,0.741 -0.0529,1.0685 l 0.9192,3.425 c -0.3309,0.3131 -0.5243,0.7461 -0.2867,1.1588 z"
       stroke="#333333"
       stroke-width="0.567169"
       stroke-miterlimit="3.99393"
       id="path94" />
    <path
       d="m 96.3883,34.3031 c 0.4932,-0.4363 0.551,-1.4674 0.1194,-2.1909 l -0.9675,-1.6757 -2.9534,1.7051 -0.3286,-0.5693 -0.7797,0.4501 1.3855,2.3997 c 0.3825,0.6721 1.2346,0.8583 1.9376,0.7306 l -0.5368,-0.9298 1.5579,-0.8994 z"
       fill="#4d4d4d"
       stroke="#333333"
       stroke-width="0.566992"
       stroke-miterlimit="3.99393"
       id="path95" />
    <path
       d="M 89.4419,27.7661 C 89.7469,27.59 89.8514,27.2 89.6753,26.895 89.4992,26.59 89.1092,26.4855 88.8042,26.6616 c -0.305,0.1761 -0.4095,0.5661 -0.2334,0.8711 0.1761,0.305 0.5661,0.4095 0.8711,0.2334 z"
       fill="#383838"
       id="path96" />
    <path
       d="m 92.2711,29.6845 c 0.6547,-0.378 0.8791,-1.2151 0.5011,-1.8699 -0.378,-0.6547 -1.2152,-0.879 -1.8699,-0.501 -0.6548,0.378 -0.8791,1.2152 -0.5011,1.8699 0.378,0.6547 1.2152,0.879 1.8699,0.501 z"
       fill="#666666"
       stroke="#333333"
       stroke-width="0.566992"
       stroke-miterlimit="3.99393"
       id="path97" />
    <path
       d="m 83.8952,25.9406 c -0.2376,-0.4127 -0.0442,-0.8457 0.2867,-1.1588 l -0.9192,-3.425 C 83.1788,21.0293 83.04,20.4345 83.3156,20.2883 l 1.0017,-0.5784 3.0064,3.2601 0.0367,-0.0212 0.7416,1.2845 -3.8943,2.2484 z"
       fill="#404040"
       stroke="#333333"
       stroke-width="0.566992"
       stroke-miterlimit="3.99393"
       id="path98" />
    <path
       d="m 85.9254,26.1474 c 0.6547,-0.378 0.8791,-1.2152 0.5011,-1.8699 -0.378,-0.6547 -1.2152,-0.879 -1.8699,-0.501 -0.6547,0.378 -0.8791,1.2152 -0.5011,1.8699 0.378,0.6547 1.2152,0.879 1.8699,0.501 z"
       fill="#595959"
       stroke="#333333"
       stroke-width="0.566992"
       stroke-miterlimit="3.99393"
       id="path99" />
    <path
       d="m 85.5591,25.5142 c 0.305,-0.1761 0.4095,-0.5661 0.2334,-0.8711 -0.1761,-0.305 -0.5661,-0.4095 -0.8711,-0.2334 -0.305,0.1761 -0.4095,0.5661 -0.2334,0.8711 0.1761,0.3049 0.5661,0.4094 0.8711,0.2334 z"
       fill="#404040"
       id="path100" />
    <path
       d="m 95.0383,33.7706 c 0.4444,-0.2565 0.5966,-0.8247 0.3401,-1.2691 -0.2566,-0.4444 -0.8248,-0.5966 -1.2691,-0.3401 -0.4444,0.2566 -0.5966,0.8248 -0.3401,1.2692 0.2566,0.4443 0.8248,0.5966 1.2691,0.34 z"
       fill="#666666"
       stroke="#333333"
       stroke-width="0.566992"
       stroke-miterlimit="3.99393"
       id="path101" />
    <path
       d="m 91.623,30.4707 0.9642,1.67 2.9535,-1.7053 -0.9641,-1.6699 z"
       fill="#666666"
       stroke="#333333"
       stroke-width="0.566992"
       stroke-miterlimit="3.99393"
       id="path102" />
    <path
       d="m 31.5395,62.2578 c 0.2604,-0.1504 0.3496,-0.4834 0.1993,-0.7438 -0.1504,-0.2605 -0.4834,-0.3497 -0.7438,-0.1993 -0.2604,0.1503 -0.3497,0.4833 -0.1993,0.7438 0.1503,0.2604 0.4834,0.3496 0.7438,0.1993 z"
       fill="#404040"
       id="path103" />
    <path
       d="m 29.6899,59.0566 c 0.2604,-0.1504 0.3496,-0.4834 0.1993,-0.7438 -0.1504,-0.2604 -0.4834,-0.3497 -0.7438,-0.1993 -0.2605,0.1504 -0.3497,0.4834 -0.1993,0.7438 0.1503,0.2604 0.4833,0.3496 0.7438,0.1993 z"
       fill="#404040"
       id="path104" />
    <path
       d="m 53.9146,47.5673 -1.2673,0.7317 c -0.3305,0.1908 -0.4438,0.6135 -0.2529,0.944 l 0.1882,0.326 c 0.1908,0.3306 0.6135,0.4438 0.944,0.253 l 1.2673,-0.7317 c 0.3305,-0.1908 0.4438,-0.6135 0.2529,-0.944 l -0.1882,-0.326 c -0.1908,-0.3305 -0.6135,-0.4438 -0.944,-0.253 z"
       fill="#808080"
       stroke="#333333"
       stroke-width="0.567169"
       stroke-miterlimit="3.99393"
       id="path105" />
    <path
       d="m 53.6447,49.7165 c 0.4055,-0.2341 0.5445,-0.7527 0.3103,-1.1582 -0.2341,-0.4056 -0.7527,-0.5445 -1.1582,-0.3104 -0.4055,0.2342 -0.5445,0.7527 -0.3104,1.1583 0.2342,0.4055 0.7527,0.5445 1.1583,0.3103 z"
       fill="#383838"
       stroke="#333333"
       stroke-width="0.566992"
       stroke-miterlimit="3.99393"
       id="path106" />
    <path
       d="M 8.77366,78.5948 C 9.32815,78.3257 9.55946,77.658 9.2903,77.1035 9.02113,76.549 8.35342,76.3177 7.79893,76.5868 c -0.5545,0.2692 -0.78581,0.9369 -0.51664,1.4914 0.26916,0.5545 0.93687,0.7858 1.49137,0.5166 z"
       fill="#404040"
       stroke="#333333"
       stroke-width="0.631864"
       stroke-miterlimit="3.99393"
       id="path107" />
    <path
       d="m 16.4277,81.8257 c 0.3888,0.5827 0.5125,1.1109 0.7374,0.7685 l 1.3762,-3.524 c 0.1096,-0.6771 0.6383,-1.3163 1.5955,-1.821 l 3.0189,-1.7287 0.421,-1.2197 c 0.1621,-0.7148 -0.616,-0.8548 -1.2128,-0.4938 0,0 -3.3433,1.9868 -4.413,2.5919 -0.5734,0.2886 -0.9609,0.6868 -0.7131,1.6597 0.2674,1.3073 -0.2994,2.7379 -0.8101,3.7671 z"
       fill="#666666"
       id="path108" />
    <path
       d="m 16.7059,82.2959 c -0.0768,-0.1393 -0.1668,-0.3026 -0.2787,-0.4704 0.2459,-0.4957 0.5048,-1.0844 0.6773,-1.7077 0.3406,-0.6899 1.3135,-2.5943 1.855,-2.972 0.5296,-0.4056 1.175,-0.1458 1.3529,0.0023 l -0.1762,0.1009 c -0.9572,0.5047 -1.4859,1.1439 -1.5955,1.821 l -1.3762,3.524 c -0.1601,0.2438 -0.2689,0.0462 -0.4586,-0.2981 z"
       fill="#4d4d4d"
       id="path109" />
    <path
       d="m 16.4277,81.8257 c 0.3888,0.5827 0.5125,1.1109 0.7374,0.7685 l 1.3762,-3.524 c 0.1096,-0.6771 0.6383,-1.3163 1.5955,-1.821 l 3.0189,-1.7287 0.421,-1.2197 c 0.1621,-0.7148 -0.616,-0.8548 -1.2128,-0.4938 0,0 -3.3433,1.9868 -4.413,2.5919 -0.5734,0.2886 -0.9609,0.6868 -0.7131,1.6597 0.2674,1.3073 -0.2994,2.7379 -0.8101,3.7671 z"
       stroke="#333333"
       stroke-width="0.567169"
       stroke-miterlimit="3.99393"
       id="path110" />
    <path
       d="M 1.15305,77.4901 C 0.932223,77.1483 0.849686,77.0205 1.1642,76.7684 c 0.49798,-0.4234 0.71029,-0.6259 1.09013,-0.902 2.46261,4.5965 5.53529,9.0177 9.09637,12.8293 l 0.6264,-0.3616 c 0.4343,-0.2957 1.7011,-0.313 1.5613,0.9873 -0.0641,0.596 -0.0928,0.8477 -0.4068,1.0379 -0.7912,0.4794 -1.826,1.1349 -1.9521,1.0255 C 10.5375,90.9714 8.64677,88.3453 8.21294,87.8081 5.43869,84.3726 3.20187,80.8053 1.1534,77.4907 Z"
       stroke="#333333"
       stroke-width="1.13434"
       stroke-miterlimit="3.99393"
       id="path111" />
    <path
       d="m 15.4801,79.482 -2.0178,-3.4948 -5.79798,3.3526 3.30108,5.7176 1.1274,-0.6508 2.3787,-3.0049 0.1833,-1.0543 z"
       stroke="#333333"
       stroke-width="1.13434"
       stroke-miterlimit="3.99393"
       id="path112" />
    <path
       d="m 13.0151,83.0215 c 0.8284,-0.4782 1.1122,-1.5375 0.6339,-2.3659 -0.4782,-0.8283 -1.5375,-1.1122 -2.3659,-0.6339 -0.8284,0.4783 -1.1122,1.5375 -0.6339,2.3659 0.4782,0.8284 1.5375,1.1122 2.3659,0.6339 z"
       fill="#4d4d4d"
       stroke="#333333"
       stroke-width="1.13434"
       stroke-miterlimit="3.99393"
       id="path113" />
    <path
       d="m 8.16642,81.1492 6.07648,-3.5083 c 0.3151,-0.1819 0.7537,-0.0079 0.9835,0.3901 l 0.3681,0.6375 c 0.2298,0.398 0.1611,0.8649 -0.154,1.0468 l -6.07644,3.5082 c -0.31509,0.182 -0.75376,0.008 -0.98355,-0.39 L 8.01244,82.196 C 7.78265,81.798 7.85133,81.3311 8.16642,81.1492 Z"
       fill="#404040"
       stroke="#333333"
       stroke-width="1.13434"
       stroke-miterlimit="3.99393"
       id="path114" />
    <path
       d="M 7.41545,72.3027 C 7.51359,72.2808 7.62096,72.2767 7.74071,72.2951 8.74461,70.9502 10.1901,70.6856 11.6649,70.4927 12.0357,69.1504 13.1,67.7818 15.3182,66.5 l 4.3545,-2.5406 c 0.4643,-0.3196 0.373,-0.7583 0.2745,-1.2314 -0.0335,-0.1606 -0.0677,-0.3251 -0.0814,-0.4903 L 2.98325,71.9868 c 0.0445,0.0389 0.08623,0.0796 0.12826,0.1205 0.1929,0.1877 0.39184,0.3813 0.89114,0.4469 L 6.4091,72.1826 c 0.36753,0.0153 0.70364,0.0516 1.00635,0.1201 z"
       fill="#737373"
       id="path115" />
    <path
       d="m 9.20449,74.1949 2.14091,8.553 3.4866,-2.0264 -1.9984,-6.7371 -0.7454,0.1643 c -0.504,-1.1295 -0.7771,-2.3801 -0.4251,-3.654 -1.4749,0.1928 -2.92031,0.4575 -3.92405,1.8025 -0.11914,-0.0181 -0.22558,-0.0136 -0.32322,0.0082 0.93372,0.2118 1.54947,0.7312 1.78866,1.8895 z"
       fill="#666666"
       id="path116" />
    <path
       d="M 11.3472,82.746 9.2063,74.193 C 8.88934,72.6585 7.91182,72.2452 6.4091,72.1826 L 4.00265,72.5542 C 3.39458,72.4744 3.23199,72.2046 2.98325,71.9868 L 19.8658,62.2377 c 0.0539,0.652 0.4288,1.2936 -0.1931,1.7217 L 15.3182,66.5 c -4.3236,2.4983 -4.2635,5.3268 -3.2281,7.6469 l 0.7453,-0.1644 1.9984,6.7371 z"
       stroke="#333333"
       stroke-width="1.13434"
       stroke-miterlimit="3.99393"
       id="path117" />
    <path
       d="m 12.8336,73.9839 -1.0448,0.2305 2.0238,7.1087 1.0196,-0.6019 z"
       fill="#595959"
       stroke="#333333"
       stroke-width="0.567169"
       stroke-miterlimit="3.99393"
       id="path118" />
    <path
       d="m 11.048,75.4131 -0.1942,0.0512 c -0.3507,0.0925 -0.5403,0.5267 -0.4234,0.9697 l 1.2019,4.5557 c 0.1168,0.443 0.4959,0.7271 0.8466,0.6346 l 0.1942,-0.0513 c 0.3507,-0.0925 0.5403,-0.5266 0.4234,-0.9696 l -1.2019,-4.5557 c -0.1169,-0.443 -0.4959,-0.7272 -0.8466,-0.6346 z"
       fill="#404040"
       stroke="#333333"
       stroke-width="0.567169"
       stroke-miterlimit="3.99393"
       id="path119" />
    <path
       d="m 12.3334,79.626 c 0.8284,-0.4782 1.1122,-1.5375 0.634,-2.3659 -0.4783,-0.8283 -1.5375,-1.1122 -2.3659,-0.6339 -0.8284,0.4783 -1.11223,1.5375 -0.63397,2.3659 0.47827,0.8284 1.53747,1.1122 2.36587,0.6339 z"
       fill="#595959"
       stroke="#333333"
       stroke-width="1.13434"
       stroke-miterlimit="3.99393"
       id="path120" />
    <path
       d="m 31.1889,65.3135 -3.6147,-6.2608 m 2.8982,-1.6732 3.6146,6.2607 -2.8977,1.6731 -3.6147,-6.2608 z"
       stroke="#333333"
       stroke-width="1.13434"
       stroke-miterlimit="3.99393"
       id="path121" />
    <path
       d="m 36.7211,63.9001 12.0936,-6.9823 c 0.7971,-0.4984 1.4401,0.3575 2.2602,1.047 l -1.4253,0.8229 c -0.2675,0.1703 -0.3501,0.4856 -0.3003,0.8684 l 0.3074,3.6608 c 0.0916,0.4944 0.3078,0.8841 0.7354,1.0909 l -0.4133,0.8301 c -0.1494,0.3072 -0.1502,0.6322 -0.1249,0.9201 l 0.5745,6.2514 c 0.068,0.8141 0.4962,2.134 1.7769,2.6266 0.1756,0.0446 0.2781,0.2073 0.1422,0.287 l -5.1366,2.9656 C 46.9955,78.4149 46.857,78.2255 46.7357,77.99 45.436,75.4338 44.8481,72.5172 44.8004,69.3392 c -0.0889,-1.2258 -0.3571,-3.7364 -3.5394,-3.507 -0.7874,0.0804 -1.0674,0.1256 -1.6462,-0.3337 z"
       fill="#616b61"
       id="path122" />
    <path
       d="M 47.9542,77.8599 47.2094,78.29 c -0.2155,0.1262 -0.3539,-0.0631 -0.4752,-0.2987 -1.2997,-2.5562 -1.8877,-5.4727 -1.9353,-8.6507 -0.0889,-1.2259 -0.3572,-3.7364 -3.5394,-3.507 -0.0243,0.0024 -0.0481,0.0049 -0.0715,0.0073 -0.7335,0.0753 -1.0138,0.1041 -1.5747,-0.3411 l -1.377,-0.7605 c 4.8496,-1.6143 7.5735,0.7571 7.7487,3.4459 0.2278,3.4962 0.8435,6.823 1.9692,9.6747 z"
       fill="#555d55"
       id="path123" />
    <path
       d="m 49.8708,63.9273 c 0.1212,0.2051 0.2901,0.3694 0.5203,0.4807 l -0.4133,0.8302 c -0.1494,0.3072 -0.1502,0.6322 -0.1249,0.9201 l 0.5745,6.2513 c 0.068,0.8141 0.4963,2.1341 1.777,2.6267 0.1755,0.0446 0.278,0.2072 0.1421,0.287 l -1.2921,0.746 -0.0193,-8e-4 c -0.8065,-0.7388 -1.3714,-1.3744 -1.6485,-2.464 -0.5138,-2.0207 -0.7077,-4.7246 -0.8509,-6.7223 -0.0179,-0.2491 -0.035,-0.4872 -0.0518,-0.7117 -0.096,-1.2822 0.5683,-1.71 1.1253,-2.0688 0.0914,-0.0588 0.1798,-0.1158 0.2616,-0.1744 z"
       fill="#555d55"
       id="path124" />
    <path
       d="m 47.7976,68.8431 c 0.2935,-0.1695 0.3941,-0.5449 0.2246,-0.8384 -0.1694,-0.2936 -0.5448,-0.3941 -0.8383,-0.2247 -0.2936,0.1695 -0.3942,0.5449 -0.2247,0.8384 0.1695,0.2936 0.5448,0.3941 0.8384,0.2247 z"
       fill="#495049"
       stroke="#303630"
       stroke-width="0.567169"
       stroke-miterlimit="3.99393"
       stroke-linecap="round"
       id="path125" />
    <path
       d="m 48.3796,75.3958 c 0.2936,-0.1695 0.3942,-0.5448 0.2247,-0.8384 -0.1695,-0.2935 -0.5449,-0.3941 -0.8384,-0.2246 -0.2936,0.1695 -0.3941,0.5448 -0.2247,0.8384 0.1695,0.2935 0.5449,0.3941 0.8384,0.2246 z"
       fill="#495049"
       stroke="#303630"
       stroke-width="0.567169"
       stroke-miterlimit="3.99393"
       stroke-linecap="round"
       id="path126" />
    <path
       d="m 36.7211,63.9001 12.0936,-6.9823 c 0.7971,-0.4984 1.4401,0.3575 2.2602,1.047 l -1.4253,0.8229 c -0.2675,0.1703 -0.3501,0.4856 -0.3003,0.8684 l 0.3074,3.6608 c 0.0916,0.4944 0.3078,0.8841 0.7354,1.0909 l -0.4133,0.8301 c -0.1494,0.3072 -0.1502,0.6322 -0.1249,0.9201 l 0.5745,6.2514 c 0.068,0.8141 0.4962,2.134 1.7769,2.6266 0.1756,0.0446 0.2781,0.2073 0.1422,0.287 l -5.1366,2.9656 C 46.9955,78.4149 46.857,78.2255 46.7357,77.99 45.436,75.4338 44.8481,72.5172 44.8004,69.3392 c -0.0889,-1.2258 -0.3571,-3.7364 -3.5394,-3.507 -0.7874,0.0804 -1.0674,0.1256 -1.6462,-0.3337 z"
       stroke="#303630"
       stroke-width="1.13434"
       stroke-miterlimit="3.99393"
       stroke-linecap="round"
       id="path127" />
    <path
       d="m 84.7816,34.9997 c -0.0617,-0.107 -0.0264,-0.2438 0.0796,-0.3069 0.3813,-0.1971 0.9987,-0.3994 1.7554,-0.1852 0.0782,0.022 0.1627,0.0142 0.2332,-0.0266 l 4.0503,-2.3384 c 0.1356,-0.0783 0.1822,-0.2517 0.1038,-0.3874 L 88.4088,27.2647 C 88.3304,27.1289 88.157,27.0826 88.0214,27.1609 l -5.8241,3.3625 z"
       fill="#5c665c"
       stroke="#303630"
       stroke-width="1.13434"
       stroke-miterlimit="3.99393"
       id="path128" />
    <path
       d="m 84.7791,34.996 c -0.0189,-0.0338 -0.0282,-0.0705 -0.0287,-0.1068 -0.0011,-0.078 0.0383,-0.1543 0.11,-0.1972 0.3811,-0.1971 0.9987,-0.3994 1.7552,-0.1854 0.0289,0.0082 0.0586,0.0123 0.0882,0.0122 0.0505,-2e-4 0.1006,-0.0128 0.1451,-0.0385 l 4.0503,-2.3385 c 0.123,-0.071 0.1728,-0.2202 0.1225,-0.3486 -0.0052,-0.0132 -0.0114,-0.026 -0.0186,-0.0386 L 90.6768,31.19 84.6055,34.6953 Z"
       fill="#576057"
       id="path129" />
    <path
       d="m 59.4203,39.8442 1.2575,-0.1034 -1.5467,0.8929 0.3803,0.6586 -2.2751,1.3135 -0.3802,-0.6585 -2.1454,1.2386 0.3802,0.6585 -2.305,1.3308 -0.3802,-0.6585 -1.2273,0.7086 0.0642,0.1112 -2.1127,1.2198 -1.1327,-1.9619 0.2495,-0.144 -0.1808,-0.3132 0.9817,-0.5668 0.3802,0.6586 3.1803,-1.8362 -0.3802,-0.6585 2.1453,-1.2386 0.3803,0.6585 3.1119,-1.7966 -0.3803,-0.6586 0.817,-0.4716 0.1785,0.3093 0.1386,-0.08 z"
       fill="#666666"
       id="path130" />
    <path
       d="m 49.5362,44.4167 -0.4886,-0.8463 -0.9817,0.5668 0.1808,0.3132 -0.2495,0.144 0.3078,0.5331 z"
       fill="#4d4d4d"
       id="path131" />
    <path
       d="m 58.9015,38.9457 -0.2823,-0.489 -0.1386,0.08 -0.1785,-0.3093 -0.817,0.4716 0.4609,0.7983 z"
       fill="#4d4d4d"
       id="path132" />
    <path
       d="m 54.6965,41.0556 -2.1453,1.2386 -0.3233,-0.5599 2.1453,-1.2386 z"
       fill="#4d4d4d"
       id="path133" />
    <path
       d="m 61.3554,42.501 -9.0604,5.231 -1.1845,-2.0517 0.2494,-0.144 -0.1807,-0.3131 1.2273,-0.7086 0.3802,0.6585 2.305,-1.3308 -0.3802,-0.6585 2.1453,-1.2387 0.3803,0.6586 2.275,-1.3135 -0.3802,-0.6586 1.5467,-0.8929 0.1786,0.3093 0.1385,-0.08 0.9111,1.578 z"
       fill="#666666"
       id="path134" />
    <path
       d="m 56.0009,44.8979 c 0.1624,-0.0938 0.218,-0.3015 0.1243,-0.4639 -0.0938,-0.1624 -0.3015,-0.2181 -0.4639,-0.1243 -0.1624,0.0938 -0.2181,0.3015 -0.1243,0.4639 0.0938,0.1624 0.3014,0.218 0.4639,0.1243 z"
       fill="#404040"
       id="path135" />
    <path
       d="m 57.4169,44.0805 c 0.1624,-0.0938 0.218,-0.3015 0.1243,-0.4639 -0.0938,-0.1624 -0.3015,-0.2181 -0.4639,-0.1243 -0.1624,0.0938 -0.2181,0.3015 -0.1243,0.4639 0.0938,0.1624 0.3015,0.2181 0.4639,0.1243 z"
       fill="#404040"
       id="path136" />
    <path
       d="m 52.2948,47.7324 9.0603,-5.231 0.5514,-0.9551 -0.0112,-0.0195 -9.8875,5.7086 z"
       fill="#808080"
       id="path137" />
    <path
       d="m 59.4203,39.8442 1.2575,-0.1034 -1.5467,0.8929 0.3803,0.6586 -2.2751,1.3135 -0.3802,-0.6585 -2.1454,1.2386 0.3802,0.6585 -2.305,1.3308 -0.3802,-0.6585 -1.2273,0.7086 0.0642,0.1112 -2.1127,1.2198 -1.1327,-1.9619 0.2495,-0.144 -0.1808,-0.3132 0.9817,-0.5668 0.3802,0.6586 3.1803,-1.8362 -0.3802,-0.6585 2.1453,-1.2386 0.3803,0.6585 3.1119,-1.7966 -0.3803,-0.6586 0.817,-0.4716 0.1785,0.3093 0.1386,-0.08 z"
       stroke="#333333"
       stroke-width="0.567171"
       stroke-miterlimit="3.99393"
       id="path138" />
    <path
       d="m 52.6093,42.3928 -0.3802,-0.6586 -3.1803,1.8361 0.3803,0.6586 z"
       fill="#808080"
       stroke="#333333"
       stroke-width="0.567171"
       stroke-miterlimit="3.99393"
       id="path139" />
    <path
       d="m 57.865,39.3571 -0.3803,-0.6585 -3.1117,1.7965 0.3803,0.6586 z"
       fill="#808080"
       stroke="#333333"
       stroke-width="0.567171"
       stroke-miterlimit="3.99393"
       id="path140" />
    <path
       d="m 61.1378,40.2141 -0.142,-0.2461 -0.1386,0.08 -0.1786,-0.3093 -1.5467,0.8929 0.3207,0.5555 z"
       fill="#4d4d4d"
       id="path141" />
    <path
       d="m 57.1775,42.5006 -0.3207,-0.5555 -2.1453,1.2387 0.3207,0.5554 z"
       fill="#4d4d4d"
       id="path142" />
    <path
       d="m 52.7272,45.07 -1.4768,0.8526 -0.1399,-0.2422 0.2495,-0.144 -0.1808,-0.3133 1.2273,-0.7085 z"
       fill="#4d4d4d"
       id="path143" />
    <path
       d="m 61.3554,42.501 -9.0604,5.231 -1.1845,-2.0517 0.2494,-0.144 -0.1807,-0.3131 1.2273,-0.7086 0.3802,0.6585 2.305,-1.3308 -0.3802,-0.6585 2.1453,-1.2387 0.3803,0.6586 2.275,-1.3135 -0.3802,-0.6586 1.5467,-0.8929 0.1786,0.3093 0.1385,-0.08 0.9111,1.578 z"
       stroke="#333333"
       stroke-width="0.566992"
       stroke-miterlimit="3.99393"
       id="path144" />
    <path
       d="m 66.8965,46.3789 16.0468,-9.2646 2.1316,3.6919 -16.0469,9.2647 z"
       fill="#595959"
       stroke="#333333"
       stroke-width="1.13434"
       stroke-miterlimit="3.99393"
       id="path145" />
    <path
       d="m 88.4079,27.2653 c -0.0783,-0.1356 -0.2517,-0.182 -0.3873,-0.1037 L 64.5054,40.7381 c -0.1357,0.0783 -0.1822,0.2517 -0.1038,0.3874 l 2.9448,5.1006 c 0.0783,0.1357 0.2518,0.1821 0.3874,0.1038 L 85.1792,36.2578 c 0.1357,-0.0783 0.1822,-0.2517 0.1038,-0.3874 l -0.5023,-0.87 c -0.0617,-0.1069 -0.0262,-0.2435 0.0797,-0.3069 0.3812,-0.1971 0.9987,-0.3994 1.7552,-0.1854 0.0784,0.0222 0.1629,0.0146 0.2334,-0.0261 l 4.0504,-2.3384 c 0.1356,-0.0784 0.1821,-0.2519 0.1037,-0.3875 z"
       fill="#616b61"
       id="path146" />
    <path
       d="m 66.8667,41.1697 c -0.1357,0.0783 -0.1821,0.2518 -0.1038,0.3875 0.0783,0.1357 0.2518,0.1822 0.3875,0.1038 l 14.1428,-8.1653 c 0.1357,-0.0784 0.1822,-0.2519 0.1038,-0.3875 -0.0783,-0.1357 -0.2518,-0.1822 -0.3875,-0.1039 z"
       fill="#373e37"
       id="path147" />
    <path
       d="m 67.357,42.0183 c -0.1357,0.0783 -0.1822,0.2518 -0.1038,0.3875 0.0783,0.1357 0.2518,0.1822 0.3874,0.1038 l 14.1428,-8.1653 c 0.1357,-0.0783 0.1822,-0.2518 0.1039,-0.3875 -0.0783,-0.1357 -0.2519,-0.1822 -0.3875,-0.1038 z"
       fill="#373e37"
       id="path148" />
    <path
       d="m 67.8472,42.867 c -0.1357,0.0783 -0.1822,0.2518 -0.1038,0.3874 0.0783,0.1357 0.2518,0.1822 0.3875,0.1039 l 14.1428,-8.1654 c 0.1357,-0.0783 0.1822,-0.2518 0.1038,-0.3875 -0.0783,-0.1357 -0.2518,-0.1822 -0.3875,-0.1038 z"
       fill="#373e37"
       id="path149" />
    <path
       d="m 90.676,31.1907 -24.008,13.8611 0.6776,1.1736 c 0.0783,0.1356 0.2517,0.1821 0.3873,0.1038 L 85.1784,36.257 c 0.1356,-0.0783 0.1821,-0.2517 0.1038,-0.3873 l -0.5024,-0.8701 c -0.0617,-0.1069 -0.0262,-0.2435 0.0797,-0.3068 0.3812,-0.1972 0.9988,-0.3995 1.7552,-0.1855 0.0784,0.0222 0.1629,0.0147 0.2335,-0.0261 l 4.0503,-2.3384 c 0.1357,-0.0783 0.1821,-0.2518 0.1037,-0.3875 z"
       fill="#555d55"
       id="path150" />
    <path
       d="m 88.4079,27.2653 c -0.0783,-0.1356 -0.2517,-0.182 -0.3873,-0.1037 L 64.5054,40.7381 c -0.1357,0.0783 -0.1822,0.2517 -0.1038,0.3874 l 2.9448,5.1006 c 0.0783,0.1357 0.2518,0.1821 0.3874,0.1038 L 85.1792,36.2578 c 0.1357,-0.0783 0.1822,-0.2517 0.1038,-0.3874 l -0.5023,-0.87 c -0.0617,-0.1069 -0.0262,-0.2435 0.0797,-0.3069 0.3812,-0.1971 0.9987,-0.3994 1.7552,-0.1854 0.0784,0.0222 0.1629,0.0146 0.2334,-0.0261 l 4.0504,-2.3384 c 0.1356,-0.0784 0.1821,-0.2519 0.1037,-0.3875 z"
       stroke="#303630"
       stroke-width="1.13452"
       stroke-miterlimit="3.99393"
       id="path151" />
    <path
       d="m 81.6035,30.6113 6.7084,-3.873 1.4287,2.4746 -6.7084,3.873 z"
       fill="#495049"
       id="path152" />
    <path
       d="m 84.6602,28.8477 0.596,-0.3442 1.4282,2.4738 -0.596,0.3441 z"
       fill="#3c433c"
       id="path153" />
    <rect
       x="85.998001"
       y="28.075199"
       width="0.283324"
       height="0.827277"
       transform="rotate(-30,85.998,28.0752)"
       fill="#3e463e"
       stroke="#303630"
       stroke-width="0.567171"
       stroke-miterlimit="3.99393"
       id="rect153" />
    <rect
       x="87.013702"
       y="29.833"
       width="0.283324"
       height="0.827277"
       transform="rotate(-30,87.0137,29.833)"
       fill="#3e463e"
       stroke="#303630"
       stroke-width="0.567171"
       stroke-miterlimit="3.99393"
       id="rect154" />
    <rect
       x="87.136703"
       y="27.417999"
       width="0.283324"
       height="0.827277"
       transform="rotate(-30,87.1367,27.418)"
       fill="#3e463e"
       stroke="#303630"
       stroke-width="0.567171"
       stroke-miterlimit="3.99393"
       id="rect155" />
    <rect
       x="88.150398"
       y="29.1758"
       width="0.283324"
       height="0.827277"
       transform="rotate(-30,88.1504,29.1758)"
       fill="#3e463e"
       stroke="#303630"
       stroke-width="0.567171"
       stroke-miterlimit="3.99393"
       id="rect156" />
    <rect
       x="82.589798"
       y="30.042999"
       width="0.283324"
       height="0.827277"
       transform="rotate(-30,82.5898,30.043)"
       fill="#3e463e"
       stroke="#303630"
       stroke-width="0.567171"
       stroke-miterlimit="3.99393"
       id="rect157" />
    <rect
       x="83.605499"
       y="31.8008"
       width="0.283324"
       height="0.827277"
       transform="rotate(-30,83.6055,31.8008)"
       fill="#3e463e"
       stroke="#303630"
       stroke-width="0.567171"
       stroke-miterlimit="3.99393"
       id="rect158" />
    <rect
       x="83.726601"
       y="29.3867"
       width="0.283324"
       height="0.827277"
       transform="rotate(-30,83.7266,29.3867)"
       fill="#3e463e"
       stroke="#303630"
       stroke-width="0.567171"
       stroke-miterlimit="3.99393"
       id="rect159" />
    <rect
       x="84.740196"
       y="31.1436"
       width="0.283324"
       height="0.827277"
       transform="rotate(-30,84.7402,31.1436)"
       fill="#3e463e"
       stroke="#303630"
       stroke-width="0.567171"
       stroke-miterlimit="3.99393"
       id="rect160" />
    <path
       d="m 81.6035,30.6113 6.7084,-3.873 1.4287,2.4746 -6.7084,3.873 z"
       stroke="#303630"
       stroke-width="1.13452"
       stroke-miterlimit="3.99393"
       id="path160" />
    <path
       d="m 106.962,16.2324 c 0.737,-0.4252 1.219,-0.969 1.077,-1.2144 -0.142,-0.2455 -0.854,-0.0999 -1.59,0.3254 -0.737,0.4252 -1.219,0.9689 -1.077,1.2144 0.142,0.2455 0.854,0.0998 1.59,-0.3254 z"
       stroke="#333333"
       stroke-width="0.567169"
       stroke-miterlimit="3.99393"
       id="path161" />
    <rect
       x="90.931602"
       y="27.9326"
       width="0.567173"
       height="1.63836"
       transform="rotate(-30,90.9316,27.9326)"
       fill="#4d4d4d"
       id="rect161" />
    <path
       d="m 60.6252,39.7725 -1.4916,0.8612 0.3802,0.6585 -2.275,1.3135 -0.3803,-0.6585 -2.1453,1.2386 0.3802,0.6586 -2.305,1.3308 -0.3802,-0.6586 -1.2273,0.7086 0.0642,0.1113 -0.2495,0.144 -0.1714,-0.2969 9.3562,-5.4018 0.4298,-0.0353 z"
       fill="#808080"
       stroke="#333333"
       stroke-width="0.567171"
       stroke-miterlimit="3.99393"
       id="path162" />
  </g>
  <defs
     id="defs162">
    <clipPath
       id="clip0_2088_1899">
      <rect
         width="110"
         height="110"
         fill="#ffffff"
         id="rect162"
         x="0"
         y="0" />
    </clipPath>
  </defs>
</svg>
