<svg width="125.884" height="49.65" viewBox="0 0 33.307 13.137" xmlns="http://www.w3.org/2000/svg">
    <g transform="translate(66.195 -1.144)">
        <path style="fill:#38332e;fill-opacity:1;stroke:#171717;stroke-width:.79375;stroke-linecap:round;stroke-linejoin:round;stroke-dasharray:none;stroke-opacity:1" d="M-60.354 7.889h2.641v1.948h-2.66z"/>
        <path style="fill:#595959;fill-opacity:1;stroke:none;stroke-width:.79375;stroke-linejoin:round;stroke-dasharray:none;stroke-opacity:1" d="M-59.672 10.564h-5.073c-.382.11-.646.236-1.079.233v-3.87c.448.012.787.142 1.114.296h5.043z"/>
        <path style="fill:#404040;fill-opacity:1;stroke:none;stroke-width:.396875;stroke-linecap:round;stroke-linejoin:round;stroke-dasharray:none;stroke-opacity:1" d="M-64.825 10.402V7.307l-.973-.26v3.632z"/>
        <path style="fill:none;fill-opacity:1;stroke:#171717;stroke-width:.79375;stroke-linejoin:round;stroke-dasharray:none;stroke-opacity:1" d="M-59.647 10.564h-5.072c-.382.11-.646.236-1.079.233v-3.87c.448.012.787.142 1.114.296h5.043z"/>
        <path class="cls-2" d="M-41.385 7.033h-1.13c-.489 0-.48-.262-.48-.262s-.037-.153.248-.27c.28-.12.17-.361.17-.361-.337-.668-.408-1.824-.408-1.824s-.09-.71.318-1.47c.181-.335.21-.532.19-.648-.009-.073-.09-.143-.2-.183a.49.49 0 0 1-.256-.219c-.147-.23.138-.255.138-.255h1.69s.29.026.138.255a.473.473 0 0 1-.256.22c-.12.04-.19.109-.2.182-.019.116.01.313.19.649.409.758.319 1.47.319 1.47s-.072 1.155-.41 1.823c0 0-.108.24.172.36.28.121.247.27.247.27s.01.263-.48.263z" style="fill:#333;fill-opacity:1;stroke:#171717;stroke-width:.79375;stroke-dasharray:none;stroke-opacity:1"/>
        <path style="fill:#616b61;fill-opacity:1;stroke:#161816;stroke-width:.79375;stroke-linecap:round;stroke-linejoin:round;stroke-dasharray:none;stroke-opacity:1" d="M-47.225 10.86c2.344.38 4.224.354 6.592 0V6.787c-2.354-.23-4.24-.267-6.617 0z"/>
        <path style="fill:gray;fill-opacity:1;fill-rule:evenodd;stroke:#171717;stroke-width:.79375px;stroke-linecap:round;stroke-linejoin:round;stroke-miterlimit:5.89;stroke-opacity:1" class="cls-3" d="M-37.056 7.981h3.771v1.852h-3.771Z"/>
        <path style="fill:gray;fill-opacity:1;fill-rule:evenodd;stroke:#171717;stroke-width:.79375px;stroke-linecap:round;stroke-linejoin:round;stroke-miterlimit:5.89;stroke-opacity:1" class="cls-3" d="M-44.888 7.979h9.063V9.83h-9.063z"/>
        <path style="fill:#404040;fill-opacity:1;stroke:none;stroke-width:.79375;stroke-linecap:round;stroke-linejoin:round;stroke-dasharray:none;stroke-opacity:1" d="M-51.87 13.064h4.796V2.992h-4.809z" transform="translate(.249 .87)"/>
        <path style="fill:#617557;fill-opacity:1;stroke:none;stroke-width:.555418;stroke-linecap:round;stroke-linejoin:round;stroke-dasharray:none;stroke-opacity:1" d="M-51.963 12.04h4.676V3.967h-4.7z" transform="translate(.249 .87)"/>
        <path style="fill:none;fill-opacity:1;stroke:#171717;stroke-width:.79375;stroke-linecap:round;stroke-linejoin:round;stroke-dasharray:none;stroke-opacity:1" d="M-51.97 13.015h4.796V2.943h-4.81z" transform="translate(.249 .87)"/>
        <path style="fill:#4d4d4d;fill-opacity:1;stroke:#171717;stroke-width:.79375;stroke-linecap:butt;stroke-linejoin:round;stroke-dasharray:none;stroke-opacity:1" d="M-47.167 4.016h-4.528M-47.18 11.882h-4.528" transform="translate(.249 .87)"/>
        <path style="fill:#333;fill-opacity:1;stroke:#171717;stroke-width:.396875;stroke-linecap:butt;stroke-linejoin:round;stroke-dasharray:none;stroke-opacity:1" d="M-51.349 12.912h.725v-.737h.48v-1.114h-1.193z"/>
        <path style="fill:#595959;fill-opacity:1;stroke:none;stroke-width:.79375;stroke-linecap:round;stroke-linejoin:round;stroke-dasharray:none;stroke-opacity:1" d="M-56.752 11.111h8.844l3.807-.831V7.455l-3.834-.862h-8.817v.714l-.945.008v2.954l.945.027z"/>
        <path style="fill:#404040;fill-opacity:1;stroke:none;stroke-width:.79375;stroke-linecap:butt;stroke-linejoin:round;stroke-dasharray:none;stroke-opacity:1" d="M-56.774 7.254v3.11h-.912V7.29Z"/>
        <path style="fill:#4d4d4d;fill-opacity:1;stroke:none;stroke-width:1.43427;stroke-linecap:butt;stroke-linejoin:round;stroke-dasharray:none;stroke-opacity:1" d="M-44.386 7.251v3.415h-2.713V7.29Z"/>
        <path style="fill:#4d4d4d;fill-opacity:1;stroke:none;stroke-width:.79375;stroke-linecap:butt;stroke-linejoin:round;stroke-dasharray:none;stroke-opacity:1" d="M-56.763 7.615h4.665V6.504l-4.759.269zM-56.793 10.015h4.666v1.11l-4.76-.268z"/>
        <path style="fill:none;fill-opacity:1;stroke:#171717;stroke-width:.79375;stroke-linecap:round;stroke-linejoin:round;stroke-dasharray:none;stroke-opacity:1" d="m-56.833 10.803 4.128.319h4.716l3.807-.832V7.466l-3.834-.863h-4.63l-4.187.21v.504l-.945.01v2.953l.945.026z"/>
        <path style="fill:#404040;fill-opacity:1;stroke:#171717;stroke-width:.396875;stroke-linecap:round;stroke-linejoin:round;stroke-dasharray:none;stroke-opacity:1" d="M-46.707 9.351v-.943h2.765v.968z"/>
        <path style="fill:#4d4d4d;fill-opacity:1;stroke:#171717;stroke-width:.79375;stroke-linecap:round;stroke-linejoin:round;stroke-dasharray:none;stroke-opacity:1" d="M-41.64 10.174v-2.67h2.831v2.695Z"/>
        <path style="fill:#262626;fill-opacity:1;stroke:#171717;stroke-width:.396875;stroke-linecap:round;stroke-linejoin:round;stroke-dasharray:none;stroke-opacity:1" d="M-41.248 9.321V8.38h1.244v.968z"/>
        <g style="fill:none">
            <g style="fill:#404040;fill-opacity:1">
                <path style="color:#000;fill:#404040;fill-opacity:1;stroke-linejoin:round;-inkscape-stroke:none" d="M-127.947 54.197h-11.62M-139.568 53.535v1.322h11.62v-1.322z" transform="matrix(.39632 0 0 1 -1.227 -45.329)"/>
            </g>
            <g style="fill:#262626;fill-opacity:1">
                <path style="color:#000;fill:#262626;fill-opacity:1;stroke-linejoin:round;-inkscape-stroke:none" d="M-139.444 53.53v1.334M-139.84 53.53v1.333h.793V53.53z" transform="translate(83.027 -45.329)"/>
            </g>
            <g style="fill:#333;fill-opacity:1">
                <path style="color:#000;fill:#333;fill-opacity:1;stroke-linejoin:round;-inkscape-stroke:none" d="M-138.005 53.53v1.334M-138.402 53.53v1.333h.795V53.53z" transform="translate(83.027 -45.329)"/>
            </g>
            <g style="fill:#262626;fill-opacity:1">
                <path style="color:#000;fill:#262626;fill-opacity:1;stroke-linejoin:round;-inkscape-stroke:none" d="M-136.563 53.53v1.334M-136.96 53.53v1.333h.794V53.53z" transform="translate(83.027 -45.329)"/>
            </g>
            <g style="fill:#262626;fill-opacity:1">
                <path style="color:#000;fill:#262626;fill-opacity:1;stroke-linejoin:round;-inkscape-stroke:none" d="M-135.12 53.53v1.334M-135.518 53.53v1.333h.795V53.53z" transform="translate(83.027 -45.329)"/>
            </g>
        </g>
        <path style="fill:none;fill-opacity:1;stroke:#171717;stroke-width:.396875;stroke-linecap:butt;stroke-linejoin:miter;stroke-dasharray:none;stroke-opacity:1" d="M-52.114 8.198h-4.66v1.33h4.661z"/>
        <path style="fill:#404040;fill-opacity:1;stroke:#171717;stroke-width:.396875;stroke-linecap:round;stroke-linejoin:round;stroke-dasharray:none;stroke-opacity:1" d="M-56.227 9.666V8.034h2.469v1.657z"/>
        <path style="fill:#262626;fill-opacity:1;stroke:#171717;stroke-width:.396875;stroke-linecap:round;stroke-linejoin:round;stroke-dasharray:none;stroke-opacity:1" d="M-56.227 9.666V8.034h1.244v1.657z"/>
        <path style="fill:gray;fill-opacity:1;stroke:#171717;stroke-width:.396875;stroke-linejoin:round" d="M-50.762 10.556h2.863c.27 0 .487.044.487.313v.151c0 .27-.217.487-.487.487h-2.863a.486.486 0 0 1-.486-.487v-.15c0-.27.217-.314.486-.314z"/>
        <path style="fill:#b3914c;fill-opacity:1;stroke:none;stroke-width:1.05833;stroke-dasharray:none;stroke-opacity:1" d="M148.41 79.402v4.454h11.572l4.469-.96h3.202l2.737-1.185c.206-.347-3.355-1.853-3.355-1.853h-5.64l-1.95-.39z" transform="matrix(.14738 0 0 .14738 -72.767 -5.954)"/>
        <path style="fill:#a18245;fill-opacity:1;stroke:none;stroke-width:1.05833;stroke-dasharray:none;stroke-opacity:1" d="m148.589 79.354 15.352.536c-.196.026-.104 3.167 0 3.153l-15.368.91z" transform="matrix(.14738 0 0 .14738 -72.767 -5.954)"/>
        <path style="fill:#70695c;fill-opacity:1;stroke:none;stroke-width:1.05833;stroke-dasharray:none;stroke-opacity:1" d="M149.162 79.555v4.092h-.449v-4.23z" transform="matrix(.14738 0 0 .14738 -72.767 -5.954)"/>
        <path style="fill:none;fill-opacity:1;stroke:#473a1f;stroke-width:2.69278;stroke-dasharray:none;stroke-opacity:1" d="M148.96 93.568v-3.219h1.343v.265h10.136l1.405.412h3.135v.088c3.26.02 3.243.332 4.717.81.665.203.617 1.108.618 1.322m-21.354-.58v3.219h1.343v-.265h10.136l1.405-.412h3.135v-.088c3.26-.02 3.243-.332 4.717-.81.665-.203.617-1.108.618-1.321" transform="matrix(.14738 0 0 .14738 -72.858 -7.655)"/>
        <path style="fill:#b3914c;fill-opacity:1;stroke:none;stroke-width:1.05833;stroke-dasharray:none;stroke-opacity:1" d="M148.41 79.402v4.454h11.572l4.469-.96h3.202l2.737-1.185c.206-.347-3.355-1.853-3.355-1.853h-5.64l-1.95-.39z" transform="matrix(.14738 0 0 .14738 -72.767 -5.452)"/>
        <path style="fill:#a18245;fill-opacity:1;stroke:none;stroke-width:1.05833;stroke-dasharray:none;stroke-opacity:1" d="m148.589 79.354 15.352.536c-.196.026-.104 3.167 0 3.153l-15.368.91z" transform="matrix(.14738 0 0 .14738 -72.767 -5.452)"/>
        <path style="fill:#70695c;fill-opacity:1;stroke:none;stroke-width:1.05833;stroke-dasharray:none;stroke-opacity:1" d="M149.162 79.555v4.092h-.449v-4.23z" transform="matrix(.14738 0 0 .14738 -72.767 -5.452)"/>
        <path style="fill:none;fill-opacity:1;stroke:#473a1f;stroke-width:2.69278;stroke-dasharray:none;stroke-opacity:1" d="M148.96 93.568v-3.219h1.343v.265h10.136l1.405.412h3.135v.088c3.26.02 3.243.332 4.717.81.665.203.617 1.108.618 1.322m-21.354-.58v3.219h1.343v-.265h10.136l1.405-.412h3.135v-.088c3.26-.02 3.243-.332 4.717-.81.665-.203.617-1.108.618-1.321" transform="matrix(.14738 0 0 .14738 -72.858 -7.154)"/>
        <path style="fill:#b3914c;fill-opacity:1;stroke:none;stroke-width:1.05833;stroke-dasharray:none;stroke-opacity:1" d="M148.41 79.402v4.454h11.572l4.469-.96h3.202l2.737-1.185c.206-.347-3.355-1.853-3.355-1.853h-5.64l-1.95-.39z" transform="matrix(.14738 0 0 .14738 -72.767 -4.84)"/>
        <path style="fill:#a18245;fill-opacity:1;stroke:none;stroke-width:1.05833;stroke-dasharray:none;stroke-opacity:1" d="m148.589 79.354 15.352.536c-.196.026-.104 3.167 0 3.153l-15.368.91z" transform="matrix(.14738 0 0 .14738 -72.767 -4.84)"/>
        <path style="fill:#70695c;fill-opacity:1;stroke:none;stroke-width:1.05833;stroke-dasharray:none;stroke-opacity:1" d="M149.162 79.555v4.092h-.449v-4.23z" transform="matrix(.14738 0 0 .14738 -72.767 -4.84)"/>
        <path style="fill:none;fill-opacity:1;stroke:#473a1f;stroke-width:2.69278;stroke-dasharray:none;stroke-opacity:1" d="M148.96 93.568v-3.219h1.343v.265h10.136l1.405.412h3.135v.088c3.26.02 3.243.332 4.717.81.665.203.617 1.108.618 1.322m-21.354-.58v3.219h1.343v-.265h10.136l1.405-.412h3.135v-.088c3.26-.02 3.243-.332 4.717-.81.665-.203.617-1.108.618-1.321" transform="matrix(.14738 0 0 .14738 -72.858 -6.54)"/>
        <path style="fill:#595959;fill-opacity:1;stroke:#171717;stroke-width:.396875;stroke-linecap:butt;stroke-linejoin:round;stroke-dasharray:none;stroke-opacity:1" d="M-50.161 7.998v-2.22h.847v2.243z" transform="translate(.408 -.152)"/>
        <path style="fill:#666;fill-opacity:1;stroke:#171717;stroke-width:.79375;stroke-linecap:round;stroke-linejoin:round;stroke-dasharray:none;stroke-opacity:1" d="m-46.908 7.09.529.432v2.716l-.53.396m0 0-5.17-.025V7.091h5.17"/>
        <path style="fill:#666;fill-opacity:1;stroke:#171717;stroke-width:.396875;stroke-linecap:round;stroke-linejoin:round;stroke-dasharray:none;stroke-opacity:1" d="m-64.415 10.882 1.684-2.14h1.336l-1.699 2.14z" transform="translate(0 -.033)"/>
        <path style="fill:#666;fill-opacity:1;stroke:#171717;stroke-width:.388752;stroke-linecap:round;stroke-linejoin:round;stroke-dasharray:none;stroke-opacity:1" d="m-61.39 8.953-1.69-2.048h-1.339l1.704 2.048z" transform="translate(0 -.033)"/>
        <path style="fill:#737373;stroke:#171717;stroke-width:.396875;stroke-linecap:round;stroke-linejoin:round" d="M-64.33 7.972h3.788c.27 0 .487.217.487.487v.808c0 .27-.217.486-.487.486h-3.789a.486.486 0 0 1-.487-.486v-.808c0-.27.217-.487.487-.487z"/>
        <ellipse style="fill:#171717;fill-opacity:1;stroke:none;stroke-width:.396875;stroke-linecap:butt;stroke-linejoin:round;stroke-dasharray:none;stroke-opacity:1" cx="-34.532" cy="8.907" rx=".792" ry=".312"/>
        <path style="fill:#4d4d4d;fill-opacity:1;stroke:#171717;stroke-width:.396875;stroke-linecap:butt;stroke-linejoin:round;stroke-dasharray:none;stroke-opacity:1" d="M-56.769 7.22v3.32"/>
    </g>
</svg>
