<svg xmlns="http://www.w3.org/2000/svg" xml:space="preserve" width="112.48" height="14.956" viewBox="0 0 29.76 3.957"><g style="display:inline;opacity:1" transform="translate(.76 8.197)"><g style="display:inline;opacity:1;stroke-width:2.05036;stroke-dasharray:none"><path d="M47.666 3.04s.09-2.24.173-2.342c.097-.118.466-.402.709-.402h.17c.183-.92.177-.926.547-.926h.553l.209.315h2.897l.178-.315h2.862s.037-.093.071-.093h2.944c.036 0 .076.093.076.093h6.11s.041-.093.077-.093h4.548c.034 0 .07.093.07.093s.037-.093.072-.093h3.305c.04 0 .092.093.092.093h6.12s.056-.093.097-.093h3.71v7.526h-3.71c-.04 0-.096-.092-.096-.092h-6.121s-.052.092-.092.092h-3.305c-.035 0-.071-.092-.071-.092s-.037.092-.071.092h-4.548c-.036 0-.076-.092-.076-.092h-6.11s-.041.092-.077.092h-2.944c-.034 0-.07-.092-.07-.092h-2.863l-.178-.334h-2.897l-.21.334h-.552c-.37 0-.364-.006-.548-.927h-.17c-.242 0-.61-.283-.708-.402-.084-.1-.173-2.342-.173-2.342" style="opacity:1;fill:#474747;fill-opacity:1;stroke:none;stroke-width:2.05036;stroke-linecap:round;stroke-linejoin:round;stroke-miterlimit:10.8;stroke-dasharray:none;stroke-opacity:1;paint-order:fill markers stroke" transform="matrix(.38804 0 0 .38622 -3.705 -7.263)"/><path d="M55.964-.63h3.091v7.34h-3.09Zm9.202 0h8.163v7.34h-8.163Zm14.283 0 3.807-.093v7.526l-3.807-.092z" style="display:inline;opacity:1;fill:#4d4d4d;fill-opacity:1;stroke:none;stroke-width:2.05036;stroke-linecap:round;stroke-linejoin:round;stroke-miterlimit:10.8;stroke-dasharray:none;stroke-opacity:1;paint-order:fill markers stroke" transform="matrix(.38804 0 0 .38622 -3.705 -7.263)"/><g style="stroke-width:2.36038"><path d="M54.614-.15h38.701v.784h-38.7zM54.614 5.447h38.701v.784h-38.7z" style="display:inline;opacity:1;fill:#3b3b3b;fill-opacity:.5;stroke-width:2.36038;stroke-linecap:round;stroke-linejoin:round;stroke-miterlimit:10.8;stroke-dasharray:none;paint-order:fill markers stroke" transform="matrix(.33824 0 0 .33433 -3.167 -7.105)"/></g><path d="M69.891-.567V6.65" style="fill:#474747;fill-opacity:1;stroke:#171717;stroke-width:1.02518;stroke-linecap:round;stroke-linejoin:round;stroke-miterlimit:10.8;stroke-dasharray:none;stroke-opacity:1;paint-order:fill markers stroke" transform="matrix(.38804 0 0 .38622 -3.705 -7.263)"/><g style="display:inline;stroke-width:2.67273;stroke-dasharray:none"><path d="M56.5 3.488c-.04 0-.223.247-.618.247a.866.866 0 0 1 0-1.732c.393 0 .578.244.618.248h4.16c.04-.004.225-.248.619-.248a.866.866 0 0 1 0 1.732c-.395 0-.578-.247-.619-.247zM56.5 1.324c-.04 0-.223.18-.618.18-.478 0-.866-.282-.866-.631s.388-.632.866-.632c.393 0 .578.178.618.18h4.16c.04-.002.225-.18.619-.18.478 0 .865.283.865.632s-.387.632-.865.632c-.395 0-.578-.18-.619-.18zM56.5 5.317c-.04 0-.223.18-.618.18-.478 0-.866-.283-.866-.632s.388-.632.866-.632c.393 0 .578.178.618.181h4.16c.04-.003.225-.18.619-.18.478 0 .865.282.865.631s-.387.632-.865.632c-.395 0-.578-.18-.619-.18z" style="display:inline;fill:#3b3b3b;fill-opacity:1;stroke-width:2.67273;stroke-linecap:round;stroke-linejoin:round;stroke-miterlimit:10.8;stroke-dasharray:none;paint-order:fill markers stroke" transform="matrix(.27024 0 0 .32637 .439 -7.025)"/><g style="stroke-width:2.67273;stroke-dasharray:none"><path d="M56.5-.468c-.04 0-.223.1-.618.1-.478 0-.866-.158-.866-.353 0-.196.388-.354.866-.354.393 0 .578.1.618.101h4.16c.04-.001.225-.101.619-.101.478 0 .865.158.865.354s-.387.354-.865.354c-.395 0-.578-.101-.619-.101zM56.5 6.59c-.04 0-.223.1-.618.1-.478 0-.866-.158-.866-.353 0-.196.388-.354.866-.354.393 0 .578.1.618.101h4.16c.04-.001.225-.101.619-.101.478 0 .865.158.865.354s-.387.354-.865.354c-.395 0-.578-.101-.619-.101z" style="display:inline;fill:#3b3b3b;fill-opacity:1;stroke-width:2.67273;stroke-linecap:round;stroke-linejoin:round;stroke-miterlimit:10.8;stroke-dasharray:none;paint-order:fill markers stroke" transform="matrix(.27024 0 0 .32637 .439 -7.005)"/></g></g><g style="stroke-width:2.67273;stroke-dasharray:none"><path d="M54.444 2.97s-.972-.468-.972-1.047c0-.578.972-1.047.972-1.047zM54.444 5.461s-.972-.468-.972-1.047c0-.578.972-1.047.972-1.047z" style="display:inline;opacity:1;fill:#3b3b3b;stroke-width:2.67273;stroke-linecap:round;stroke-linejoin:round;stroke-miterlimit:10.8;stroke-dasharray:none;paint-order:fill markers stroke" transform="matrix(.27024 0 0 .32637 .439 -7.123)"/></g><path d="M47.666 3.04s.09-2.24.173-2.342c.097-.118.466-.402.709-.402h.17c.183-.92.177-.926.547-.926h.553l.209.315h2.897l.178-.315h2.862s.037-.093.071-.093h2.944c.036 0 .076.093.076.093h6.11s.041-.093.077-.093h4.548c.034 0 .07.093.07.093s.037-.093.072-.093h3.305c.04 0 .092.093.092.093h6.12s.056-.093.097-.093h3.71v7.526h-3.71c-.04 0-.096-.092-.096-.092h-6.121s-.052.092-.092.092h-3.305c-.035 0-.071-.092-.071-.092s-.037.092-.071.092h-4.548c-.036 0-.076-.092-.076-.092h-6.11s-.041.092-.077.092h-2.944c-.034 0-.07-.092-.07-.092h-2.863l-.178-.334h-2.897l-.21.334h-.552c-.37 0-.364-.006-.548-.927h-.17c-.242 0-.61-.283-.708-.402-.084-.1-.173-2.342-.173-2.342" style="opacity:1;fill:none;fill-opacity:1;stroke:#171717;stroke-width:2.05036;stroke-linecap:round;stroke-linejoin:round;stroke-miterlimit:10.8;stroke-dasharray:none;stroke-opacity:1;paint-order:fill markers stroke" transform="matrix(.38804 0 0 .38622 -3.705 -7.263)"/><path d="M48.87 5.785c-.233-1.89-.267-3.73 0-5.462" style="fill:none;fill-opacity:1;stroke:#171717;stroke-width:1.02518;stroke-linecap:round;stroke-linejoin:round;stroke-miterlimit:10.8;stroke-dasharray:none;stroke-opacity:1;paint-order:fill markers stroke" transform="matrix(.38804 0 0 .38622 -3.705 -7.263)"/></g><path d="M.003-7.06c.191-.548 1.064-.847 1.062-.655l-.03 3.253c-.003.245-.837-.13-1.035-.655l-.44-.001c-.162-.32-.164-1.571 0-1.943z" style="display:inline;opacity:1;fill:#545454;fill-opacity:1;stroke:none;stroke-width:.396875;stroke-linecap:round;stroke-linejoin:round;stroke-miterlimit:10.8;stroke-dasharray:none;paint-order:fill markers stroke"/><path d="M.052-7.06a2.68 2.68 0 0 0-.003 1.943l-.489-.001c-.162-.32-.164-1.571 0-1.943z" style="display:inline;opacity:1;fill:#404040;fill-opacity:1;stroke:none;stroke-width:.396875;stroke-linecap:round;stroke-linejoin:round;stroke-miterlimit:10.8;stroke-dasharray:none;paint-order:fill markers stroke"/><path d="M.003-7.06c.191-.548.588-.655 1.062-.655 1.563 0 1.554 3.253-.03 3.253-.462 0-.837-.13-1.035-.655l-.44-.001c-.162-.32-.164-1.571 0-1.943z" style="display:inline;opacity:1;fill:none;fill-opacity:1;stroke:#171717;stroke-width:.396875;stroke-linecap:round;stroke-linejoin:round;stroke-miterlimit:10.8;stroke-dasharray:none;paint-order:fill markers stroke"/><path d="M12.95-6.59h1.301v.943h-1.302z" style="fill:#63514b;stroke-width:.396875;stroke-linecap:round;stroke-linejoin:round;stroke-miterlimit:10.8;paint-order:fill markers stroke"/><path d="M13.927-5.137h-.498l-.626.097H1.183c-.66 0-.662-2.098 0-2.098h11.62l.626.098h.498z" style="fill:#786359;fill-opacity:1;stroke:none;stroke-width:.79375;stroke-linecap:round;stroke-linejoin:round;stroke-miterlimit:10.8;stroke-dasharray:none;stroke-opacity:1;paint-order:fill markers stroke"/><path d="M.18-6.089s.092-1.077.483-1.22c.281-.104.78.466.78.466v1.508s-.499.57-.78.466C.272-5.012.18-6.089.18-6.089" style="display:inline;opacity:1;fill:#94786b;fill-opacity:1;stroke-width:.396876;stroke-linecap:round;stroke-linejoin:round;stroke-miterlimit:10.8;paint-order:fill markers stroke"/><path d="m13.883-5.318-1.2.079H1.474c-.535 0-.537-1.7 0-1.7h11.207l1.201.08z" style="display:inline;fill:#998373;fill-opacity:1;stroke:none;stroke-width:.79375;stroke-linecap:round;stroke-linejoin:round;stroke-miterlimit:10.8;stroke-dasharray:none;stroke-opacity:1;paint-order:fill markers stroke"/><path d="M13.408-6.84h.421l-.128.757.128.746h-.421l.133-.754z" style="display:inline;opacity:1;fill:#493e36;fill-opacity:1;stroke-width:.396875;stroke-linecap:round;stroke-linejoin:round;stroke-miterlimit:10.8;paint-order:fill markers stroke"/><path d="M-.513-6.398h.775v.618h-.775z" style="display:inline;opacity:1;fill:#383838;stroke:none;stroke-width:.396875;stroke-linecap:round;stroke-linejoin:round;stroke-miterlimit:10.8;paint-order:fill markers stroke"/><path d="M-.513-6.398h.3v.618h-.3z" style="display:inline;opacity:1;fill:#222;fill-opacity:1;stroke:none;stroke-width:.396875;stroke-linecap:round;stroke-linejoin:round;stroke-miterlimit:10.8;paint-order:fill markers stroke"/><path d="M-.55-6.398h.812v.618H-.55z" style="display:inline;opacity:1;fill:none;fill-opacity:1;stroke:#171717;stroke-width:.396875;stroke-linecap:round;stroke-linejoin:round;stroke-miterlimit:10.8;paint-order:fill markers stroke"/><path d="M14.207-4.784h-.683l-.858.134H1.174c-.905 0-.908-2.877 0-2.877h11.492l.858.133h.683z" style="display:inline;opacity:1;fill:none;fill-opacity:1;stroke:#1b1713;stroke-width:.79375;stroke-linecap:round;stroke-linejoin:round;stroke-miterlimit:10.8;stroke-dasharray:none;stroke-opacity:1;paint-order:fill markers stroke"/><path d="M6.198-7.726v3.274H8.43v-3.274z" style="opacity:1;fill:#242424;fill-opacity:1;stroke:#171717;stroke-width:.396874;stroke-linecap:round;stroke-linejoin:round;stroke-miterlimit:10.8;stroke-dasharray:none;stroke-opacity:1;paint-order:fill markers stroke"/><path d="M5.978-5.677h.232v.52h2.22v-1.87H6.21v.52h-.232z" style="fill:#383838;fill-opacity:1;stroke:#171717;stroke-width:.396875;stroke-linecap:round;stroke-linejoin:round;stroke-miterlimit:10.8;stroke-dasharray:none;stroke-opacity:1;paint-order:fill markers stroke"/><g style="stroke-width:1.06636"><path d="m2.291-6.615.15.15v.705l-.15.149h-.53v-1.004z" style="fill:#786359;stroke:none;stroke-width:.423212;stroke-linecap:round;stroke-linejoin:round;stroke-miterlimit:10.8;paint-order:fill markers stroke" transform="matrix(.8794 0 0 1 -.073 .024)"/><path d="M1.795-6.223h.582v.219h-.582z" style="display:inline;opacity:1;fill:#63514b;fill-opacity:1;stroke:none;stroke-width:.423212;stroke-linecap:round;stroke-linejoin:round;stroke-miterlimit:10.8;stroke-dasharray:none;stroke-opacity:1;paint-order:fill markers stroke" transform="matrix(.8794 0 0 1 -.073 .024)"/><path d="m2.291-6.615.15.15v.705l-.15.149h-.53v-1.004z" style="fill:none;fill-opacity:1;stroke:#1b1713;stroke-width:.423212;stroke-linecap:round;stroke-linejoin:round;stroke-miterlimit:10.8;paint-order:fill markers stroke" transform="matrix(.8794 0 0 1 -.073 .024)"/></g><g style="stroke-width:1.06636" transform="matrix(.8794 0 0 1 -.073 .026)"><path d="M15.142-6.474h1.16c.043 0 .077.035.077.078v.564a.08.08 0 0 1-.077.077h-1.16a.08.08 0 0 1-.077-.077v-.564c0-.043.034-.078.077-.078" style="fill:#383838;stroke:none;stroke-width:.423214;stroke-linecap:round;stroke-linejoin:round;stroke-miterlimit:10.8;paint-order:fill markers stroke"/><circle cx="15.344" cy="-6.114" r=".25" style="fill:#fff;fill-opacity:1;stroke:none;stroke-width:.423212;stroke-linecap:round;stroke-linejoin:round;stroke-miterlimit:10.8;stroke-dasharray:none;stroke-opacity:1;paint-order:fill markers stroke"/><path d="M15.142-6.474h1.16c.043 0 .077.035.077.078v.564a.08.08 0 0 1-.077.077h-1.16a.08.08 0 0 1-.077-.077v-.564c0-.043.034-.078.077-.078" style="fill:none;stroke:#171717;stroke-width:.423214;stroke-linecap:round;stroke-linejoin:round;stroke-miterlimit:10.8;paint-order:fill markers stroke"/></g><rect width="1.028" height=".398" x="2.415" y="-8.197" rx=".058" ry=".066" style="fill:#1b1713;fill-opacity:1;stroke:none;stroke-width:.396875;stroke-linecap:round;stroke-linejoin:round;stroke-miterlimit:10.8;stroke-dasharray:none;stroke-opacity:1;paint-order:fill markers stroke"/><rect width=".812" height=".314" x="4.091" y="-8.062" rx=".046" ry=".052" style="fill:#1b1713;fill-opacity:1;stroke:none;stroke-width:.396875;stroke-linecap:round;stroke-linejoin:round;stroke-miterlimit:10.8;stroke-dasharray:none;stroke-opacity:1;paint-order:fill markers stroke"/></g></svg>