<svg width="110" height="110" viewBox="0 0 110 110" fill="none" xmlns="http://www.w3.org/2000/svg">
<g clip-path="url(#clip0_3608_4682)">
<path d="M4.8887 76.037L4.137 74.735L2.50586 75.6768L3.35113 77.1408C3.75434 76.7553 4.17259 76.4253 4.8887 76.037Z" fill="#808080" stroke="#333333" stroke-width="0.409091" stroke-miterlimit="3.99393" stroke-linecap="round"/>
<path d="M1.17383 77.1865L2.82806 76.2315L3.35352 77.1416C3.19159 77.2964 3.03207 77.4602 2.85666 77.6402C2.81002 77.6881 2.76225 77.7372 2.71301 77.7875L1.9641 78.5553L1.17383 77.1865Z" fill="#666666" stroke="#333333" stroke-width="0.409091" stroke-miterlimit="3.99393" stroke-linecap="round"/>
<path fill-rule="evenodd" clip-rule="evenodd" d="M24.0739 67.5512L27.6502 65.4864L29.5657 68.8041L24.9448 71.472C23.1668 72.4959 22.9723 73.2597 22.8643 74.2763L22.6803 78.6189C22.544 79.7756 21.7543 80.212 20.4911 79.9408L18.5396 79.5007C18.2685 79.4445 17.9483 79.4336 17.1776 79.8808L12.893 82.2094C11.7139 82.8247 11.6055 83.4478 11.4972 84.071C11.4848 84.1425 11.4724 84.2139 11.4583 84.2854C11.3298 85.0353 11.0955 85.4451 10.4436 86.0277C9.79172 86.6104 9.13275 86.8651 8.10372 87.245C6.55075 83.9528 4.84253 80.8272 2.70924 77.7884C2.75848 77.7381 2.80625 77.689 2.85289 77.6411C3.50176 76.975 3.93313 76.5321 5.07443 75.9394C9.74571 73.6655 14.1252 71.442 18.0565 69.0924C19.3169 68.3194 20.5704 67.9417 21.4307 68.0658C22.291 68.1898 22.8039 68.173 24.0739 67.5512ZM16.3643 77.3489L10.2809 80.658C6.73376 82.8616 5.74612 77.3604 9.50193 75.4642L15.5565 72.3313C18.3544 71.1403 18.743 72.2759 18.566 73.4228L18.3452 75.2767C18.1464 76.2591 18.1159 76.2778 16.6293 77.1867C16.5457 77.2378 16.4574 77.2918 16.3643 77.3489Z" fill="#7D4235"/>
<path d="M23.7248 72.3509C23.07 72.9827 22.9537 73.5654 22.879 74.2694L22.6949 78.612C22.6441 79.0433 22.5025 79.3745 22.2793 79.6061L22.1343 79.4879C21.9262 79.3437 21.7924 79.142 21.798 78.8552L21.9456 73.7052C22.0289 73.1235 23.0421 72.5531 23.7248 72.3509Z" fill="#6B392E"/>
<path d="M13.5114 81.8745L12.9066 82.2032C11.7275 82.8184 11.6192 83.4416 11.5108 84.0647C11.4984 84.1362 11.486 84.2077 11.4719 84.2791C11.3503 84.9885 11.1342 85.3935 10.5594 85.9284C10.4783 85.8125 10.4327 85.6724 10.436 85.5024L10.7611 83.5738C10.8477 82.9681 11.8928 82.438 12.3878 82.2733L13.5114 81.8745Z" fill="#6B392E"/>
<path d="M3.79599 78.4642C3.94244 78.3796 3.99262 78.1923 3.90807 78.0459C3.82351 77.8994 3.63624 77.8493 3.48979 77.9338C3.34333 78.0184 3.29315 78.2056 3.37771 78.3521C3.46226 78.4985 3.64953 78.5487 3.79599 78.4642Z" fill="#3B3B3B"/>
<path d="M25.4503 67.5814C25.5967 67.4968 25.6469 67.3095 25.5624 67.1631C25.4778 67.0166 25.2905 66.9664 25.1441 67.051C24.9976 67.1356 24.9475 67.3228 25.032 67.4693C25.1166 67.6157 25.3038 67.6659 25.4503 67.5814Z" fill="#3B3B3B"/>
<path d="M27.6502 65.4864L24.0739 67.5511C22.8039 68.173 22.291 68.1898 21.4307 68.0657C20.5704 67.9417 19.3168 68.3193 18.0565 69.0924C14.1252 71.442 9.74571 73.6655 5.07443 75.9394C3.85107 76.5747 3.44343 77.0378 2.70923 77.7884C4.84252 80.8272 6.55075 83.9528 8.10371 87.245C9.13274 86.8651 9.79172 86.6103 10.4436 86.0277C11.0955 85.4451 11.3298 85.0353 11.4583 84.2854C11.5948 83.5909 11.5786 82.8952 12.893 82.2094L17.1776 79.8808C17.9483 79.4336 18.2684 79.4445 18.5395 79.5007L20.4911 79.9408C21.7543 80.212 22.544 79.7755 22.6803 78.6188L22.8643 74.2763C22.9723 73.2596 23.1668 72.4959 24.9448 71.472L29.5657 68.8041" stroke="#47251F" stroke-width="0.818186" stroke-linecap="round"/>
<path d="M61.7471 50.7692L71.0766 45.3828C71.3155 44.5388 70.8032 43.7346 70.0667 43.5183L65.3157 46.2613L65.1929 46.0485L60.5645 48.7207" fill="#666666"/>
<path d="M61.7471 50.7692L71.0766 45.3828C71.3155 44.5388 70.8032 43.7346 70.0667 43.5183L65.3157 46.2613L65.1929 46.0485L60.5645 48.7207" stroke="#333333" stroke-width="0.818186" stroke-miterlimit="3.99393" stroke-linecap="round"/>
<path d="M63.6887 48.8271L64.8638 48.1486L65.4449 47.0388L66.5384 46.4074L66.1695 45.7684L65.3157 46.2613L65.1929 46.0485L60.5645 48.7207L61.3537 50.0878C61.4945 49.2927 62.3449 48.235 63.6887 48.8271Z" fill="#4D4D4D" stroke="#333333" stroke-width="0.409091" stroke-miterlimit="3.99393"/>
<path d="M65.5151 48.179C65.8394 47.9918 65.9505 47.5772 65.7633 47.2529C65.5761 46.9286 65.1614 46.8175 64.8371 47.0048C64.5129 47.192 64.4018 47.6066 64.589 47.9309C64.7762 48.2552 65.1908 48.3663 65.5151 48.179Z" fill="#404040" stroke="#333333" stroke-width="0.409091" stroke-miterlimit="3.99393"/>
<path d="M71.7443 44.5401C71.8016 44.4166 71.8612 44.2879 71.9367 44.1561L80.9452 38.955L80.6395 38.4255L70.8475 44.0789C71.1032 44.4332 71.212 44.9027 71.0756 45.3847C71.454 45.1662 71.5905 44.8718 71.7443 44.5401Z" fill="#666666"/>
<path d="M70.0647 43.5191C70.5716 43.2166 71.1203 42.9999 71.2674 42.9972L80.276 37.7961L80.6392 38.4253L70.8472 44.0787C70.6553 43.8128 70.3806 43.6118 70.0647 43.5191Z" fill="#404040"/>
<path d="M81.0027 39.0515L80.2356 37.7228L81.302 37.1071C81.4714 37.137 81.6684 37.1846 81.8845 37.0764L82.6094 36.6578C82.8554 36.4987 82.8641 36.3817 82.9376 36.1509L84.3953 35.3093L85.2531 36.7952L84.6602 37.1375L84.5793 36.9886L81.0027 39.0515Z" fill="#595959"/>
<path d="M84.4661 35.4316L85.1298 35.0484L85.4512 35.027L85.9265 34.7526L86.1349 34.1587L87.1999 33.5438L85.5533 30.6919L87.4858 29.5762L88.7275 31.7269L88.1237 32.6341C88.8259 33.3788 88.8931 34.3221 88.5098 35.087L87.0035 35.9567L86.4167 36.1214L85.2524 36.7936L84.4661 35.4316Z" fill="#4D4D4D"/>
<path d="M58.8433 46.0008L54.975 48.1228L56.1742 50.1999L86.1249 32.9078L86.4558 32.8401L88.7571 31.5114L89.0682 31.2085L102.816 23.2713L102.205 22.2133L88.2963 29.8452L87.764 29.8937L85.5776 31.0932L85.2767 31.5019L62.7725 43.8485L61.3738 43.8142L59.3205 44.9997L58.8433 46.0008Z" fill="#595959"/>
<path fill-rule="evenodd" clip-rule="evenodd" d="M102.195 22.1934C104.625 20.9404 106.775 19.6691 108.683 18.4476C109.003 18.6454 109.216 19.0147 109.322 19.5544C107.144 20.6487 104.995 21.9069 102.834 23.3002L102.195 22.1934ZM105.913 21.26C107.008 20.6278 107.804 19.9556 107.69 19.7586C107.576 19.5616 106.596 19.9144 105.501 20.5466C104.406 21.1788 103.611 21.851 103.725 22.048C103.838 22.245 104.818 21.8922 105.913 21.26Z" fill="#4D4D4D"/>
<path d="M62.7737 43.8484L61.3749 43.8141L59.3216 44.9995L59.0947 45.4756L60.4105 47.7545L63.9255 45.7252L62.8255 43.8199L62.7737 43.8484Z" fill="#4F4F4F" stroke="#333333" stroke-width="0.409093" stroke-miterlimit="3.99393"/>
<path d="M63.3737 43.5183C63.3387 43.6189 63.3389 43.7134 63.3816 43.7906C63.5099 44.0225 63.9724 44.0121 64.4146 43.7675L84.6426 32.5771C85.0848 32.3324 85.3393 31.9462 85.2111 31.7143C85.1848 31.6668 85.1445 31.6295 85.0932 31.6022L63.3737 43.5183Z" fill="#404040"/>
<path d="M85.8269 33.0796C85.8733 32.9647 85.8768 32.8566 85.8274 32.771C85.6949 32.5416 85.2327 32.5604 84.795 32.8131L64.7751 44.3716C64.3374 44.6243 64.09 45.0152 64.2225 45.2446C64.2719 45.3302 64.3672 45.3813 64.49 45.3985L85.8269 33.0796Z" fill="#404040"/>
<path d="M58.8433 46.0008L54.975 48.1228L56.1742 50.1999L86.1249 32.9078L86.4558 32.8401L88.7571 31.5114L89.0682 31.2085L102.816 23.2713L102.205 22.2133L88.2963 29.8452L87.764 29.8937L85.5776 31.0932L85.2767 31.5019L62.7725 43.8485L61.3738 43.8142L59.3205 44.9997L58.8433 46.0008Z" stroke="#333333" stroke-width="0.818186" stroke-miterlimit="3.99393"/>
<path d="M50.9606 62.8735L58.6546 58.4314Z" fill="#808080"/>
<path d="M51.3899 61.769L51.1967 61.4345L50.5004 61.8373L50.9609 62.0559L50.924 62.8102L50.9606 62.8735L58.6546 58.4314L58.6181 58.368L57.9541 58.0363L57.995 57.5095L57.2903 57.9164L57.4834 58.2509L56.6452 58.7348L56.4521 58.4003L52.0342 60.951L52.2273 61.2855L51.3899 61.769Z" fill="#808080"/>
<path d="M52.6012 61.9272L57.0191 59.3766Z" fill="#404040"/>
<path d="M52.6012 61.9272L57.0191 59.3766L56.455 58.3995L52.0371 60.9502L52.6012 61.9272Z" fill="#404040"/>
<path d="M53.7887 61.2417L55.8309 60.0626Z" fill="#3B3B3B"/>
<path d="M53.7887 61.2417L55.8309 60.0626L55.2668 59.0856L53.2246 60.2646L53.7887 61.2417Z" fill="#3B3B3B"/>
<path d="M53.6106 61.3435L53.9646 61.1391Z" fill="#363636"/>
<path d="M53.6106 61.3435L53.9646 61.1391L53.4009 60.1628L53.0469 60.3672L53.6106 61.3435Z" fill="#363636"/>
<path d="M55.6516 60.1648L56.0056 59.9604Z" fill="#363636"/>
<path d="M55.6516 60.1648L56.0056 59.9604L55.4419 58.9841L55.0879 59.1885L55.6516 60.1648Z" fill="#363636"/>
<path d="M54.9699 60.5574L55.324 60.353Z" fill="#363636"/>
<path d="M54.9699 60.5574L55.324 60.353L54.7603 59.3767L54.4062 59.5811L54.9699 60.5574Z" fill="#363636"/>
<path d="M54.2922 60.9509L54.6462 60.7465Z" fill="#363636"/>
<path d="M54.2922 60.9509L54.6462 60.7465L54.0825 59.7702L53.7285 59.9746L54.2922 60.9509Z" fill="#363636"/>
<path d="M65.0724 71.2476C64.0937 70.927 59.0667 73.8293 58.8549 74.8372L58.1166 75.2636L52.0823 64.8118L53.4364 64.03L53.0455 63.353L54.6384 62.4333L55.0294 63.1104L56.83 62.0708L56.4391 61.3937L58.0313 60.4744L58.4222 61.1515L59.7764 60.3697L65.8107 70.8214L65.0724 71.2476Z" fill="#536B47"/>
<path d="M58.4112 75.0933L52.377 64.6416L53.1735 64.1817L59.1076 74.4197C58.9683 74.5788 58.8795 74.7206 58.8551 74.837L58.4112 75.0933Z" fill="#5F7B51"/>
<path d="M65.5598 70.9661L65.0726 71.2473C64.9688 71.2133 64.8194 71.2156 64.6351 71.248L58.71 60.9852L59.5255 60.5144L65.5598 70.9661Z" fill="#5F7B51"/>
<path d="M50.9629 62.874L58.6569 58.4319Z" fill="#4B6241"/>
<path d="M53.4364 64.0311L53.0455 63.354L54.6384 62.4343L55.0293 63.1114L56.83 62.0718L56.4391 61.3947L58.0312 60.4755L58.4221 61.1526L59.7763 60.3707L58.6569 58.4319L50.9629 62.874L52.0823 64.8129L53.4364 64.0311Z" fill="#4B6241"/>
<path d="M50.9629 62.874L58.6569 58.4319Z" stroke="#303D29" stroke-width="0.818186" stroke-miterlimit="3.99393" stroke-linecap="round"/>
<path d="M53.4364 64.0311L53.0455 63.354L54.6384 62.4343L55.0293 63.1114L56.83 62.0718L56.4391 61.3947L58.0312 60.4755L58.4221 61.1526L59.7763 60.3707L58.6569 58.4319L50.9629 62.874L52.0823 64.8129L53.4364 64.0311Z" stroke="#303D29" stroke-width="0.818186" stroke-miterlimit="3.99393" stroke-linecap="round"/>
<path d="M32.5444 56.8116L37.7579 52.8601L38.1686 53.2708L32.9169 57.1959L32.5444 56.8116Z" fill="#94949E" stroke="#303036" stroke-width="0.409091" stroke-miterlimit="3.99393" stroke-linecap="round"/>
<path d="M32.3787 58.4049L36.9815 55.7808C37.4702 55.5137 37.6082 55.3889 37.8273 54.5725L32.7853 56.6296C32.148 56.5183 31.7918 56.9347 31.7644 57.341L32.3787 58.4049Z" fill="#4A4950" stroke="#303036" stroke-width="0.818186" stroke-miterlimit="3.99393" stroke-linecap="round"/>
<path d="M27.7134 62.0349L27.1513 62.3595C26.8298 62.2436 26.6424 62.3529 26.738 62.6495L27.2314 63.8052C27.2359 63.7864 27.2408 63.767 27.2459 63.747C27.2472 63.7418 27.2486 63.7366 27.2499 63.7313L27.7134 62.0349Z" fill="#3E3D43" stroke="#303036" stroke-width="0.409091" stroke-miterlimit="3.99393" stroke-linecap="round"/>
<path d="M31.8437 68.0389L31.9742 68.5478C32.0039 68.6947 32.0392 68.7689 32.1833 68.8261L32.7866 69.1096C32.9598 69.2564 33.1171 69.4178 33.1778 69.6677L34.977 76.5793C35.0927 77.0253 35.3534 77.278 35.7846 77.1866L37.5783 76.8256C38.5737 76.5896 39.7077 75.7953 38.6617 75.1338C38.5304 75.0484 38.441 74.918 38.4068 74.7804L37.0756 69.1075C37.027 68.8162 37.1128 68.6024 37.2473 68.3809C37.2918 68.2864 37.3458 68.1931 37.4008 68.098C37.6288 67.704 38.0982 66.7644 37.7482 66.1125L37.1099 65.007L31.8437 68.0389Z" fill="#8F4A3D"/>
<path d="M37.6344 67.6229L37.2418 67.8089C36.6296 68.1064 35.7744 68.6876 35.8782 69.4271L37.5801 75.9641C37.6688 76.2522 38.0737 76.4169 38.4159 76.4992C39.0451 76.143 39.4061 75.6044 38.661 75.1332C38.5297 75.0478 38.4404 74.9174 38.4062 74.7798L37.075 69.1069C37.0263 68.8156 37.1122 68.6018 37.2467 68.3803C37.2911 68.2858 37.3452 68.1925 37.4002 68.0974C37.4871 67.9472 37.5765 67.7927 37.6344 67.6229Z" fill="#7D4235"/>
<path d="M31.8437 68.0389L31.9742 68.5478C32.0039 68.6947 32.0392 68.7689 32.1833 68.8261L32.7866 69.1096C32.9598 69.2564 33.1171 69.4178 33.1778 69.6677L34.977 76.5793C35.0927 77.0253 35.3534 77.278 35.7846 77.1866L37.5783 76.8256C38.5737 76.5896 39.7077 75.7953 38.6617 75.1338C38.5304 75.0484 38.441 74.918 38.4068 74.7804L37.0756 69.1075C37.027 68.8162 37.1128 68.6024 37.2473 68.3809C37.2918 68.2864 37.3458 68.1931 37.4008 68.098C37.6288 67.704 38.0982 66.7644 37.7482 66.1125L37.1099 65.007L31.8437 68.0389Z" stroke="#47251F" stroke-width="0.818186" stroke-miterlimit="3.99393" stroke-linecap="round"/>
<path d="M39.8777 65.0877C39.6891 66.3627 40.2118 67.0613 41.2519 67.2061C41.4192 67.2294 41.3849 67.5451 41.1516 67.5286C40.186 67.4603 39.206 66.7659 39.2327 65.4601L39.8777 65.0877Z" fill="#3C3C44" stroke="#303036" stroke-width="0.409093" stroke-miterlimit="3.99393"/>
<path d="M36.5222 65.5567L36.4823 66.3017L32.0365 68.716C32.0077 68.6726 31.992 68.6184 31.9776 68.5472L31.8471 68.0383L36.2784 65.4884C36.3506 65.5015 36.4348 65.525 36.5222 65.5567Z" fill="#7D4235" stroke="#47251F" stroke-width="0.409091" stroke-miterlimit="3.99393" stroke-linecap="round"/>
<path d="M44.6907 64.2325C43.9395 64.5215 43.7068 63.5893 43.2692 63.188L42.6388 63.5501C43.3016 64.0775 43.5595 64.4507 43.6796 65.0763C43.7553 65.4704 43.7011 65.6481 43.3993 65.9853L41.3394 67.8202C39.9221 69.0091 38.4833 67.6266 38.2124 66.0914L37.7949 66.3324C37.8851 67.8681 39.8455 69.9557 41.7313 68.1506L43.8769 66.3387C44.1824 65.9975 44.2662 65.5752 44.2504 65.1511C44.2795 64.7964 44.4307 64.6655 44.8407 64.4234C44.9739 64.3355 44.9006 64.1777 44.6907 64.2325Z" fill="#494951" stroke="#303036" stroke-width="0.408964" stroke-miterlimit="3.99393" stroke-linecap="round"/>
<path d="M34.3662 69.2853C34.3523 69.2305 34.2966 69.1975 34.2419 69.2114C34.1872 69.2253 34.1541 69.281 34.168 69.3357L35.9661 76.4011C35.98 76.4558 36.0357 76.4889 36.0904 76.475C36.1451 76.461 36.1782 76.4054 36.1643 76.3506L34.3662 69.2853Z" fill="#592E27"/>
<path d="M34.0235 69.4956C34.0098 69.4408 33.9543 69.4075 33.8995 69.4212C33.8447 69.4349 33.8114 69.4904 33.8251 69.5452L35.5547 76.4654C35.5684 76.5202 35.624 76.5535 35.6787 76.5398C35.7335 76.5261 35.7669 76.4706 35.7532 76.4158L34.0235 69.4956Z" fill="#592E27"/>
<path d="M35.4311 68.7005C35.4174 68.6457 35.3619 68.6124 35.3071 68.6261C35.2523 68.6398 35.219 68.6953 35.2327 68.7501L37.0986 76.2173C37.1123 76.2721 37.1678 76.3054 37.2226 76.2918C37.2774 76.2781 37.3108 76.2225 37.2971 76.1677L35.4311 68.7005Z" fill="#592E27"/>
<path d="M35.0396 68.9284C35.0254 68.8737 34.9696 68.8408 34.915 68.855C34.8603 68.8691 34.8274 68.9249 34.8416 68.9796L36.7344 76.298C36.7486 76.3526 36.8043 76.3855 36.859 76.3714C36.9137 76.3572 36.9466 76.3014 36.9324 76.2467L35.0396 68.9284Z" fill="#592E27"/>
<path d="M34.7109 69.1196C34.697 69.0649 34.6414 69.0317 34.5867 69.0456C34.5319 69.0595 34.4988 69.1151 34.5126 69.1699L36.3316 76.3513C36.3455 76.4061 36.4011 76.4392 36.4558 76.4254C36.5106 76.4115 36.5437 76.3559 36.5299 76.3011L34.7109 69.1196Z" fill="#592E27"/>
<path d="M55.1303 47.9121C55.4771 48.5489 55.9088 48.8488 56.6076 48.4657L59.4642 46.8165L61.8864 51.0119L42.982 61.6808L37.1111 65.0074L29.8032 69.2126L27.4029 65.0553L39.6334 57.9941L45.1733 52.663L53.2495 48.0002L53.143 47.8158L54.5918 46.9794L55.1303 47.9121Z" fill="#54545E"/>
<path d="M1.87654 75.2352L1.09049 76.1403L1.4155 77.0437L2.82419 76.2304L2.50439 75.6765L2.82034 75.4941L2.03491 75.3723L2.03015 75.3109C2.00277 75.26 1.93965 75.1554 1.87654 75.2352Z" fill="#4D4D4D"/>
<path d="M2.11396 75.3857L1.26408 76.6206L1.0915 76.1409L1.87698 75.2365C1.94005 75.1567 2.00312 75.2613 2.03048 75.3121L2.03524 75.3735L2.11396 75.3857Z" fill="#666666"/>
<path d="M30.5664 65.6368C30.7816 65.4402 30.7121 65.2113 30.6428 65.0664C30.1104 63.6677 31.9926 62.9859 32.6155 63.71L35.2524 62.2301C35.3011 61.4846 35.6833 60.6923 37.0836 61.1729L40.2791 59.3279C40.3862 58.5264 40.7581 57.9987 41.9167 58.3824L44.6391 56.8107C44.7308 56.036 45.6342 55.5831 46.0289 56.6502L46.3408 56.8395L46.7772 57.5954L46.7374 57.8774C47.5016 58.9188 46.5643 59.2815 45.8998 59.2074L43.3723 60.6666C43.1822 61.5593 42.6458 62.0404 41.4718 61.7638L38.3788 63.5496C38.14 64.4147 37.5496 64.8285 36.4899 64.6401L33.9695 66.0953C34.3275 66.7476 33.1784 67.8361 32.3144 67.5278C32.1048 67.453 31.772 67.0871 31.6433 66.8541C31.5372 66.6819 31.3429 66.6403 31.155 66.6562L30.5664 65.6368Z" fill="#4D4D4D"/>
<path d="M56.4164 53.5506C56.6032 53.4427 56.6673 53.2038 56.5594 53.017C56.4515 52.8302 56.2126 52.7662 56.0258 52.874C55.839 52.9819 55.7749 53.2208 55.8828 53.4076C55.9907 53.5945 56.2296 53.6585 56.4164 53.5506Z" fill="#3C3C43" stroke="#303036" stroke-width="0.408991" stroke-miterlimit="3.99393" stroke-linecap="round"/>
<path d="M25.3253 70.6605C25.4717 70.5759 25.5219 70.3886 25.4374 70.2422C25.3528 70.0957 25.1655 70.0455 25.0191 70.1301C24.8726 70.2147 24.8225 70.4019 24.907 70.5484C24.9916 70.6948 25.1788 70.745 25.3253 70.6605Z" fill="#3B3B3B"/>
<path d="M6.01474 77.3528C6.16119 77.2683 6.21137 77.081 6.12681 76.9346C6.04226 76.7881 5.85499 76.7379 5.70854 76.8225C5.56208 76.907 5.5119 77.0943 5.59646 77.2408C5.68101 77.3872 5.86828 77.4374 6.01474 77.3528Z" fill="#3B3B3B"/>
<path d="M1.87654 75.2352L1.09049 76.1403L1.4155 77.0437L2.82419 76.2304L2.50439 75.6765L2.82034 75.4941L2.03491 75.3723L2.03015 75.3109C2.00277 75.26 1.93965 75.1554 1.87654 75.2352Z" stroke="#333333" stroke-width="0.409091" stroke-miterlimit="3.99393" stroke-linecap="round"/>
<path d="M1.47746 78.4358C1.57793 78.6008 1.64177 78.6027 1.68909 78.447L2.06933 77.2221C2.43432 75.458 -0.101786 76.0264 0.769581 77.3519L1.47746 78.4358Z" fill="#4D4D4D" stroke="#333333" stroke-width="0.409091" stroke-miterlimit="3.99393" stroke-linecap="round"/>
<path d="M1.50497 77.1194C1.65142 77.0349 1.7016 76.8476 1.61705 76.7012C1.5325 76.5547 1.34523 76.5045 1.19877 76.5891C1.05232 76.6736 1.00214 76.8609 1.08669 77.0074C1.17125 77.1538 1.35852 77.204 1.50497 77.1194Z" fill="#404040"/>
<path d="M56.6076 48.4657C55.9088 48.8488 55.4771 48.5489 55.1303 47.9121L54.5918 46.9794L53.143 47.8158L53.2495 48.0002L45.1733 52.663L39.6334 57.9941L27.4029 65.0553L29.8032 69.2126L37.1111 65.0074L37.718 66.0587C37.9767 66.5285 38.3315 66.5267 38.5115 65.9895L43.7511 62.9644L42.982 61.6808L61.8864 51.0119L59.4642 46.8165L56.6076 48.4657Z" stroke="#303036" stroke-width="0.818186" stroke-miterlimit="3.99393"/>
<path d="M56.6076 48.4665C55.9088 48.8496 55.4771 48.5497 55.1303 47.9128L54.5918 46.9801L53.143 47.8166L53.2495 48.0009L45.1733 52.6637L39.6334 57.9948L56.6076 48.4665Z" fill="#484851" stroke="#303036" stroke-width="0.409093" stroke-miterlimit="3.99393"/>
<path d="M43.7517 62.9647L42.9825 61.6811L37.1116 65.0077L37.7185 66.059C37.9772 66.5288 38.332 66.5269 38.512 65.9898L43.7517 62.9647Z" fill="#3F3F45" stroke="#303036" stroke-width="0.818186" stroke-miterlimit="3.99393"/>
<path d="M31.3617 67.6854C31.5486 67.5775 31.6126 67.3386 31.5047 67.1518C31.3968 66.9649 31.1579 66.9009 30.9711 67.0088C30.7843 67.1167 30.7203 67.3556 30.8281 67.5424C30.936 67.7292 31.1749 67.7932 31.3617 67.6854Z" fill="#3C3C43" stroke="#303036" stroke-width="0.408991" stroke-miterlimit="3.99393" stroke-linecap="round"/>
<path d="M30.1625 65.5486C30.3493 65.4408 30.4134 65.2019 30.3055 65.015C30.1976 64.8282 29.9587 64.7642 29.7719 64.8721C29.5851 64.9799 29.521 65.2188 29.6289 65.4057C29.7368 65.5925 29.9757 65.6565 30.1625 65.5486Z" fill="#3C3C43" stroke="#303036" stroke-width="0.408991" stroke-miterlimit="3.99393" stroke-linecap="round"/>
<path d="M28.8617 66.3055C29.0486 66.1976 29.1126 65.9587 29.0047 65.7719C28.8968 65.5851 28.6579 65.521 28.4711 65.6289C28.2843 65.7368 28.2203 65.9757 28.3281 66.1625C28.436 66.3493 28.6749 66.4134 28.8617 66.3055Z" fill="#3C3C43" stroke="#303036" stroke-width="0.408991" stroke-miterlimit="3.99393" stroke-linecap="round"/>
<path d="M60.7524 51.2801C60.9392 51.1722 61.0032 50.9333 60.8953 50.7465C60.7875 50.5597 60.5486 50.4956 60.3617 50.6035C60.1749 50.7114 60.1109 50.9503 60.2187 51.1371C60.3266 51.3239 60.5655 51.388 60.7524 51.2801Z" fill="#3C3C43" stroke="#303036" stroke-width="0.408991" stroke-miterlimit="3.99393" stroke-linecap="round"/>
<path d="M59.2328 48.6385C59.4197 48.5306 59.4837 48.2917 59.3758 48.1049C59.2679 47.9181 59.029 47.854 58.8422 47.9619C58.6554 48.0698 58.5914 48.3087 58.6992 48.4955C58.8071 48.6823 59.046 48.7464 59.2328 48.6385Z" fill="#3C3C43" stroke="#303036" stroke-width="0.408991" stroke-miterlimit="3.99393" stroke-linecap="round"/>
<path d="M39.5941 59.5574C39.781 59.4496 39.845 59.2107 39.7371 59.0238C39.6293 58.837 39.3904 58.773 39.2035 58.8809C39.0167 58.9887 38.9527 59.2276 39.0605 59.4145C39.1684 59.6013 39.4073 59.6653 39.5941 59.5574Z" fill="#37373E"/>
<path d="M36.2081 61.8577C36.3545 61.7732 36.4047 61.5859 36.3202 61.4394C36.2356 61.293 36.0483 61.2428 35.9019 61.3274C35.7554 61.4119 35.7053 61.5992 35.7898 61.7456C35.8744 61.8921 36.0616 61.9423 36.2081 61.8577Z" fill="#3B3B3B"/>
<path d="M28.3917 68.7151C28.5381 68.6306 28.5883 68.4433 28.5038 68.2969C28.4192 68.1504 28.2319 68.1002 28.0855 68.1848C27.939 68.2693 27.8889 68.4566 27.9734 68.6031C28.058 68.7495 28.2452 68.7997 28.3917 68.7151Z" fill="#3B3B3B"/>
<path d="M38.4776 59.8704C38.6241 59.7859 38.6743 59.5986 38.5897 59.4521C38.5051 59.3057 38.3179 59.2555 38.1714 59.3401C38.025 59.4246 37.9748 59.6119 38.0593 59.7583C38.1439 59.9048 38.3312 59.955 38.4776 59.8704Z" fill="#3C3C44"/>
<path d="M33.1593 62.9153C33.3057 62.8308 33.3559 62.6435 33.2713 62.4971C33.1868 62.3506 32.9995 62.3004 32.8531 62.385C32.7066 62.4695 32.6564 62.6568 32.741 62.8033C32.8255 62.9497 33.0128 62.9999 33.1593 62.9153Z" fill="#3C3C44"/>
<path d="M41.1827 59.0589C41.3292 58.9743 41.3793 58.7871 41.2948 58.6406C41.2102 58.4942 41.023 58.444 40.8765 58.5285C40.7301 58.6131 40.6799 58.8004 40.7644 58.9468C40.849 59.0933 41.0363 59.1434 41.1827 59.0589Z" fill="#3B3B3B"/>
<path d="M45.5108 56.8362C45.6573 56.7517 45.7075 56.5644 45.6229 56.418C45.5384 56.2715 45.3511 56.2213 45.2046 56.3059C45.0582 56.3904 45.008 56.5777 45.0926 56.7242C45.1771 56.8706 45.3644 56.9208 45.5108 56.8362Z" fill="#3B3B3B"/>
<path d="M46.6241 58.8724C46.7706 58.7878 46.8207 58.6005 46.7362 58.4541C46.6516 58.3076 46.4644 58.2575 46.3179 58.342C46.1715 58.4266 46.1213 58.6138 46.2058 58.7603C46.2904 58.9067 46.4777 58.9569 46.6241 58.8724Z" fill="#3B3B3B"/>
<path d="M42.5909 61.4017C42.7374 61.3171 42.7875 61.1298 42.703 60.9834C42.6184 60.8369 42.4312 60.7868 42.2847 60.8713C42.1383 60.9559 42.0881 61.1431 42.1726 61.2896C42.2572 61.436 42.4445 61.4862 42.5909 61.4017Z" fill="#3B3B3B"/>
<path d="M37.5245 64.221C37.671 64.1364 37.7211 63.9492 37.6366 63.8027C37.552 63.6563 37.3648 63.6061 37.2183 63.6906C37.0719 63.7752 37.0217 63.9625 37.1062 64.1089C37.1908 64.2554 37.378 64.3056 37.5245 64.221Z" fill="#3B3B3B"/>
<path d="M33.0343 66.8567C33.1807 66.7722 33.2309 66.5849 33.1463 66.4385C33.0618 66.292 32.8745 66.2418 32.7281 66.3264C32.5816 66.4109 32.5314 66.5982 32.616 66.7447C32.7005 66.8911 32.8878 66.9413 33.0343 66.8567Z" fill="#3B3B3B"/>
<path d="M31.6046 64.4046C31.751 64.32 31.8012 64.1328 31.7167 63.9863C31.6321 63.8399 31.4448 63.7897 31.2984 63.8742C31.1519 63.9588 31.1017 64.1461 31.1863 64.2925C31.2709 64.439 31.4581 64.4892 31.6046 64.4046Z" fill="#3B3B3B"/>
<path d="M42.6625 57.9207C42.8493 57.8129 42.9134 57.5739 42.8055 57.3871C42.6976 57.2003 42.4587 57.1363 42.2719 57.2441C42.085 57.352 42.021 57.5909 42.1289 57.7777C42.2368 57.9646 42.4757 58.0286 42.6625 57.9207Z" fill="#37373E"/>
<path d="M45.4671 56.9746L31.2985 65.1548C31.0916 65.2742 31.0264 65.5488 31.153 65.7679L31.4234 66.2364C31.55 66.4556 31.8203 66.5364 32.0272 66.417L46.1958 58.2367C46.4027 58.1173 46.4679 57.8428 46.3413 57.6236L46.0708 57.1551C45.9443 56.9359 45.674 56.8551 45.4671 56.9746Z" fill="#454545"/>
<path d="M45.1357 57.5967L32.2773 65.0205" stroke="#383838" stroke-width="0.408991" stroke-miterlimit="3.99393" stroke-linecap="round"/>
<path d="M45.5029 58.2042L32.6445 65.6279" stroke="#383838" stroke-width="0.408991" stroke-miterlimit="3.99393" stroke-linecap="round"/>
<path d="M44.1406 58.0693L45.7565 57.1364L46.1862 57.8807L44.5703 58.8136L44.1406 58.0693Z" fill="#999999" stroke="#333333" stroke-width="0.408991" stroke-miterlimit="3.99393" stroke-linecap="round"/>
<path d="M39.3519 52.7718C39.2776 52.3659 39.1854 51.9689 38.7874 51.7231C38.7736 51.6238 38.7442 51.4879 38.559 51.5318C38.071 51.5954 37.6046 51.9022 37.2635 52.4952C37.4197 52.8786 37.9352 53.6903 38.3273 53.4649L39.3519 52.7718Z" fill="#61616B" stroke="#303036" stroke-width="0.409091" stroke-miterlimit="3.99393" stroke-linecap="round"/>
<path d="M38.3527 53.5236C38.5457 53.4121 38.6118 53.1653 38.5004 52.9723C38.3889 52.7793 38.1421 52.7131 37.9491 52.8246C37.7561 52.936 37.6899 53.1828 37.8014 53.3759C37.9128 53.5689 38.1596 53.635 38.3527 53.5236Z" fill="#494950" stroke="#303036" stroke-width="0.409091" stroke-miterlimit="3.99393" stroke-linecap="round"/>
<path d="M31.7886 65.3538L31.5861 65.4707C31.4749 65.5349 31.4368 65.677 31.501 65.7882L31.5808 65.9265C31.645 66.0377 31.7872 66.0758 31.8984 66.0116L32.1009 65.8947C32.212 65.8305 32.2501 65.6883 32.186 65.5772L32.1061 65.4388C32.0419 65.3277 31.8998 65.2896 31.7886 65.3538Z" fill="#383838"/>
<path d="M32.6971 57.1884C32.6406 57.0905 32.5154 57.0569 32.4175 57.1135C32.3196 57.17 32.2861 57.2952 32.3426 57.3931L32.4182 57.524C32.4747 57.6219 32.5999 57.6555 32.6978 57.5989C32.7957 57.5424 32.8292 57.4172 32.7727 57.3193L32.6971 57.1884Z" fill="#37373E"/>
<path d="M36.9288 54.2013C37.1219 54.0899 37.188 53.8431 37.0766 53.65C36.9651 53.457 36.7183 53.3909 36.5253 53.5023C36.3323 53.6138 36.2661 53.8606 36.3776 54.0536C36.489 54.2466 36.7358 54.3127 36.9288 54.2013Z" fill="#494950" stroke="#303036" stroke-width="0.409091" stroke-miterlimit="3.99393" stroke-linecap="round"/>
<path d="M71.9374 44.1554C71.6594 44.6412 71.5957 45.0842 71.0763 45.3841C71.3152 44.5401 70.8023 43.7348 70.0658 43.5186C70.5727 43.2161 71.1214 42.9994 71.2685 42.9967L80.277 37.7957L80.946 38.9543L71.9374 44.1554Z" stroke="#333333" stroke-width="0.818186" stroke-miterlimit="3.99393"/>
<path d="M88.7116 31.6988L86.7797 32.8142L85.5547 30.6924L87.4866 29.577L88.7116 31.6988Z" fill="#666666"/>
<path d="M88.7118 31.6997L88.728 31.7279L88.1242 32.635C88.2021 32.7176 88.2722 32.8027 88.3347 32.8897L87.2003 33.5447L86.7793 32.8154L88.7118 31.6997Z" fill="#404040"/>
<path d="M87.8827 30.2618L85.9502 31.3775L85.5547 30.6924L87.4872 29.5767L87.8827 30.2618Z" fill="#4D4D4D"/>
<path d="M84.4661 35.4316L85.1298 35.0484L85.4512 35.027L85.9265 34.7526L86.1349 34.1587L87.1999 33.5438L85.5533 30.6919L87.4858 29.5762L88.7275 31.7269L88.1237 32.6341C88.8259 33.3788 88.8931 34.3221 88.5098 35.087L87.0035 35.9567L86.4167 36.1214L85.2524 36.7936L84.4661 35.4316Z" stroke="#333333" stroke-width="0.818186" stroke-miterlimit="3.99393" stroke-linecap="round"/>
<path d="M86.32 34.6967L87.2442 34.1631L86.8578 33.4937L85.9336 34.0273L86.32 34.6967Z" fill="#474747" stroke="#333333" stroke-width="0.409091" stroke-miterlimit="3.99393" stroke-linecap="round"/>
<path d="M87.4385 36.6331L88.3634 36.0991L87.2452 34.1623L86.3203 34.6963L87.4385 36.6331Z" fill="#404040" stroke="#333333" stroke-width="0.409091" stroke-miterlimit="3.99393" stroke-linecap="round"/>
<path d="M58.2969 64.4555L56.4051 65.5477C56.2817 65.619 56.1239 65.5767 56.0526 65.4533C55.9814 65.3299 56.0236 65.172 56.1471 65.1008L58.0388 64.0086C58.1622 63.9373 58.3201 63.9796 58.3913 64.103C58.4626 64.2265 58.4203 64.3843 58.2969 64.4555Z" fill="#999999" stroke="#333333" stroke-width="0.409093" stroke-miterlimit="3.99393" stroke-linecap="round"/>
<path d="M60.842 66.4557L59.7118 67.1082C59.5884 67.1795 59.5461 67.3374 59.6173 67.4608L60.2699 68.591C60.3411 68.7145 60.499 68.7568 60.6225 68.6855L61.7526 68.033C61.8761 67.9617 61.9184 67.8038 61.8471 67.6804L61.1946 66.5502C61.1233 66.4267 60.9655 66.3844 60.842 66.4557Z" fill="#4B6241"/>
<path d="M57.9612 68.1012L56.831 68.7537C56.7075 68.825 56.6652 68.9829 56.7365 69.1064L57.389 70.2365C57.4603 70.36 57.6181 70.4023 57.7416 70.331L58.8718 69.6785C58.9952 69.6072 59.0375 69.4493 58.9663 69.3259L58.3138 68.1957C58.2425 68.0723 58.0846 68.03 57.9612 68.1012Z" fill="#4B6241"/>
<path d="M59.8853 66.173C60.324 65.9197 60.4743 65.3588 60.2211 64.9201C59.9678 64.4814 59.4068 64.3311 58.9681 64.5844C58.5295 64.8376 58.3791 65.3986 58.6324 65.8373C58.8857 66.276 59.4466 66.4263 59.8853 66.173Z" fill="#4B6241"/>
<path d="M57.0142 67.798C57.4529 67.5447 57.6032 66.9838 57.35 66.5451C57.0967 66.1064 56.5357 65.9561 56.0971 66.2094C55.6584 66.4626 55.5081 67.0236 55.7613 67.4623C56.0146 67.901 56.5756 68.0513 57.0142 67.798Z" fill="#4B6241"/>
<path d="M108.683 18.4476C106.775 19.6691 104.625 20.9404 102.195 22.1934L102.834 23.3002C104.995 21.9069 107.144 20.6487 109.322 19.5544C109.216 19.0147 109.003 18.6454 108.683 18.4476Z" stroke="#333333" stroke-width="0.818186" stroke-miterlimit="3.99393" stroke-linecap="round"/>
<path fill-rule="evenodd" clip-rule="evenodd" d="M82.8308 36.5806L82.3241 36.9412C81.7788 37.3294 81.6363 38.0585 82.0046 38.576L83.5258 40.713C83.8941 41.2305 84.6297 41.3346 85.175 40.9464L85.6817 40.5858C86.227 40.1976 86.2003 39.5662 85.8319 39.0488L84.3108 36.9117C83.9424 36.3942 83.3761 36.1924 82.8308 36.5806ZM83.8495 37.5162C83.6651 37.2572 83.4064 37.1519 83.0413 37.4118C82.6761 37.6718 82.5305 38.0895 82.7149 38.3485L83.9323 40.0588C84.1166 40.3178 84.559 40.3171 84.9242 40.0571C85.2894 39.7972 85.2512 39.4855 85.0669 39.2265L83.8495 37.5162Z" fill="#666666" stroke="#333333" stroke-width="0.409091" stroke-miterlimit="3.99393"/>
<path d="M81.7951 38.5951L84.4819 37.0439L83.9094 36.0523L81.2227 37.6035L81.7951 38.5951Z" fill="#404040" stroke="#333333" stroke-width="0.409091" stroke-miterlimit="3.99393"/>
<path d="M59.6592 55.6348L86.2591 37.7356C86.6296 37.9099 86.838 38.2176 86.9872 38.574L60.4926 56.8154" fill="#595959"/>
<path d="M77.8678 43.9708C77.9613 43.9074 77.9857 43.7802 77.9223 43.6867C77.8589 43.5932 77.7317 43.5688 77.6382 43.6322L60.0299 55.571C59.9364 55.6344 59.912 55.7616 59.9753 55.8551C60.0387 55.9486 60.1659 55.973 60.2594 55.9096L77.8678 43.9708Z" fill="#404040"/>
<path d="M78.226 44.4781C78.3191 44.4142 78.3428 44.2869 78.2789 44.1937C78.215 44.1006 78.0877 44.0769 77.9945 44.1408L60.4346 56.1901C60.3414 56.254 60.3177 56.3814 60.3817 56.4745C60.4456 56.5677 60.5729 56.5914 60.6661 56.5274L78.226 44.4781Z" fill="#404040"/>
<path d="M59.4932 55.7188L86.093 37.8196C86.4636 37.9938 86.672 38.3015 86.8212 38.658L60.3266 56.8994" stroke="#333333" stroke-width="0.818186" stroke-miterlimit="3.99393"/>
<path d="M57.871 54.5225L60.716 58.7838C60.9099 58.8818 61.2137 58.9062 61.3739 58.7853L60.6657 57.4964C60.5316 57.2443 60.4868 57.0912 60.6621 56.9394L59.6453 55.3486C59.5229 55.407 59.2811 55.3421 59.1648 55.2048L57.9783 53.7391C57.8609 54.018 57.7602 54.3342 57.871 54.5225Z" fill="#4D4D4D" stroke="#333333" stroke-width="0.409091" stroke-miterlimit="3.99393"/>
<path d="M10.2822 80.6567L16.3656 77.3475C18.1143 76.2755 18.1366 76.3131 18.3465 75.2754L18.5673 73.4214C18.7443 72.2745 18.3557 71.1389 15.5578 72.3299L9.50327 75.4628C5.74746 77.359 6.73509 82.8602 10.2822 80.6567Z" stroke="#47251F" stroke-width="0.818186" stroke-miterlimit="3.99393" stroke-linecap="round"/>
<path d="M105.914 21.2601C107.009 20.6279 107.805 19.9557 107.691 19.7587C107.577 19.5617 106.597 19.9145 105.502 20.5467C104.407 21.1789 103.612 21.8511 103.725 22.0481C103.839 22.2451 104.819 21.8923 105.914 21.2601Z" stroke="#333333" stroke-width="0.409091" stroke-miterlimit="3.99393" stroke-linecap="round"/>
<rect x="45.4512" y="57.1445" width="0.102199" height="1.16199" rx="0.0510995" transform="rotate(-30 45.4512 57.1445)" fill="#8C8C8C" stroke="#333333" stroke-width="0.409093"/>
<path d="M48.0723 53.1611L50.665 51.6642L51.7693 53.5769L49.1765 55.0738L48.0723 53.1611Z" fill="#353B35" stroke="#303630" stroke-width="0.409093" stroke-miterlimit="3.99393"/>
<path d="M49.1777 55.0742L51.7705 53.5773L52.8747 55.49L50.282 56.9869L49.1777 55.0742Z" fill="#353B35" stroke="#303630" stroke-width="0.409093" stroke-miterlimit="3.99393"/>
<path d="M50.2793 56.9873L52.872 55.4904L53.9763 57.4031L51.3836 58.9L50.2793 56.9873Z" fill="#353B35" stroke="#303630" stroke-width="0.409093" stroke-miterlimit="3.99393"/>
<path d="M39.6353 57.9933L27.692 64.8887L27.2485 64.1206C27.1784 64.0054 27.2118 63.8877 27.2518 63.7295L27.8715 61.4616C27.9921 61.0408 28.1616 60.8124 28.5531 60.5854L36.9826 55.7797C37.5232 55.4842 37.6346 55.3628 37.9015 54.2867C37.9609 53.9432 38.1256 53.7237 38.442 53.5587L50.5484 46.5691C51.0115 46.5601 51.8278 46.4804 52.7104 46.0239C53.0541 45.817 53.3097 45.8237 53.5096 46.0376C54.1595 46.0865 54.9239 47.0337 54.244 47.4262L45.1752 52.6622L39.6353 57.9933Z" fill="#666666"/>
<path d="M28.182 63.7215C28.3689 63.6136 28.4329 63.3747 28.325 63.1879C28.2172 63.0011 27.9782 62.9371 27.7914 63.0449C27.6046 63.1528 27.5406 63.3917 27.6484 63.5785C27.7563 63.7654 27.9952 63.8294 28.182 63.7215Z" fill="#404040" stroke="#333333" stroke-width="0.408991" stroke-miterlimit="3.99393" stroke-linecap="round"/>
<path d="M53.9579 47.3582C54.2084 47.2136 54.2942 46.8932 54.1496 46.6427C54.005 46.3922 53.6846 46.3064 53.4341 46.451C53.1836 46.5956 53.0977 46.916 53.2424 47.1665C53.387 47.417 53.7073 47.5029 53.9579 47.3582Z" fill="#404040" stroke="#333333" stroke-width="0.408991" stroke-miterlimit="3.99393" stroke-linecap="round"/>
<path d="M39.6353 57.9933L27.692 64.8887L27.2485 64.1206C27.1784 64.0054 27.2118 63.8877 27.2518 63.7295L27.8715 61.4616C27.9921 61.0408 28.1616 60.8124 28.5531 60.5854L36.9826 55.7797C37.5232 55.4842 37.6346 55.3628 37.9015 54.2867C37.9609 53.9432 38.1256 53.7237 38.442 53.5587L50.5484 46.5691C51.0115 46.5601 51.8278 46.4804 52.7104 46.0239C53.0541 45.817 53.3097 45.8237 53.5096 46.0376C54.1595 46.0865 54.9239 47.0337 54.244 47.4262L45.1752 52.6622L39.6353 57.9933Z" stroke="#333333" stroke-width="0.818186" stroke-miterlimit="3.99393"/>
<path d="M52.7105 46.0256C53.0497 45.8214 53.303 45.8253 53.5017 46.0309L39.2659 54.2499C38.9996 54.3981 38.9503 54.4907 38.9077 54.6389L38.9051 54.6481C38.906 54.645 38.9069 54.642 38.9077 54.6389L39.3655 53.0273L50.5485 46.5708C51.0116 46.5618 51.8279 46.4821 52.7105 46.0256Z" fill="#4F4F4F"/>
<path d="M52.7105 46.0256C53.0497 45.8214 53.303 45.8253 53.5017 46.0309L39.2659 54.2499C38.9941 54.4012 38.9483 54.4945 38.9051 54.6481L39.3655 53.0273L50.5485 46.5708C51.0116 46.5618 51.8279 46.4821 52.7105 46.0256Z" stroke="#333333" stroke-width="0.409093" stroke-miterlimit="3.99393"/>
<path d="M38.4393 53.5593C38.1229 53.7243 37.9582 53.9438 37.8988 54.2873C37.6319 55.3634 37.5205 55.4848 36.9799 55.7803L28.5504 60.586C28.1589 60.813 27.9894 61.0414 27.8688 61.4622L27.6418 62.2931L37.659 56.5097C38.4099 56.0791 38.5948 55.7065 38.703 55.3488L38.8754 54.742L38.9023 54.6471L39.3627 53.0262L38.4393 53.5593Z" fill="#4F4F4F" stroke="#333333" stroke-width="0.409093" stroke-miterlimit="3.99393"/>
<path d="M47.0948 53.6145L47.0063 53.6656L47.0375 53.8424L47.6093 54.8328L47.7468 54.9482L47.8353 54.897L47.7814 54.8036L51.1367 52.8215L51.4654 52.4499L52.2998 51.9681L51.8636 51.2126L51.0292 51.6943L50.543 51.7932L47.1488 53.7079L47.0948 53.6145Z" fill="#A18245"/>
<path d="M54.1405 50.3634C54.125 50.3364 54.0983 50.3174 54.0671 50.3172C53.7306 50.3151 52.8498 50.6797 51.8789 51.2402L52.284 51.9419C53.2549 51.3813 54.011 50.8009 54.1774 50.5084C54.1928 50.4813 54.1897 50.4486 54.1742 50.4216L54.1405 50.3634Z" fill="#B3914C"/>
<path d="M52.0565 51.1391C51.9977 51.1721 51.9385 51.2058 51.8789 51.2402L52.2837 51.9414C52.3433 51.907 52.4021 51.8725 52.4601 51.8381L52.0565 51.1391Z" fill="#862C2C"/>
<path d="M47.0374 53.8423L47.6093 54.8328L47.7468 54.9481L47.8353 54.897L47.0948 53.6145L47.0063 53.6656L47.0374 53.8423Z" fill="#70695C"/>
<path d="M47.0063 53.6656L47.0948 53.6145L47.1488 53.7079L50.5429 51.793L51.0293 51.6944L51.8636 51.2127L51.8792 51.2397C52.8501 50.6792 53.7309 50.3146 54.0674 50.3168C54.0985 50.3168 54.1253 50.336 54.1409 50.3629L54.1744 50.4211C54.19 50.4481 54.1932 50.4808 54.1777 50.5078C54.0113 50.8003 53.2552 51.3808 52.2843 51.9414L52.2997 51.968L51.4653 52.4497L51.1368 52.8216L47.7814 54.8036L47.8353 54.897L47.7468 54.9481L47.6093 54.8328L47.0374 53.8423L47.0063 53.6656Z" stroke="#473A1F" stroke-width="0.409093"/>
<path d="M49.3019 57.4426L49.2133 57.4937L49.2445 57.6705L49.8163 58.6609L49.9538 58.7763L50.0424 58.7252L49.9884 58.6317L53.3438 56.6497L53.6724 56.278L54.5068 55.7963L54.0706 55.0407L53.2362 55.5224L52.75 55.6213L49.3558 57.536L49.3019 57.4426Z" fill="#A18245"/>
<path d="M56.3476 54.1916C56.332 54.1646 56.3053 54.1456 56.2741 54.1454C55.9376 54.1432 55.0568 54.5078 54.0859 55.0684L54.491 55.77C55.4619 55.2095 56.218 54.629 56.3845 54.3365C56.3999 54.3094 56.3968 54.2768 56.3812 54.2498L56.3476 54.1916Z" fill="#B3914C"/>
<path d="M54.2636 54.9672C54.2048 55.0002 54.1455 55.034 54.0859 55.0684L54.4907 55.7695C54.5503 55.7351 54.6092 55.7007 54.6672 55.6663L54.2636 54.9672Z" fill="#862C2C"/>
<path d="M49.2445 57.6704L49.8163 58.661L49.9538 58.7763L50.0424 58.7251L49.3019 57.4426L49.2133 57.4937L49.2445 57.6704Z" fill="#70695C"/>
<path d="M49.2133 57.4937L49.3019 57.4426L49.3558 57.536L52.7499 55.6211L53.2363 55.5226L54.0707 55.0408L54.0862 55.0678C55.0571 54.5073 55.9379 54.1427 56.2744 54.1449C56.3055 54.145 56.3323 54.1641 56.3479 54.1911L56.3815 54.2492C56.3971 54.2762 56.4002 54.3089 56.3847 54.3359C56.2184 54.6285 55.4622 55.2089 54.4913 55.7695L54.5067 55.7961L53.6723 56.2778L53.3438 56.6497L49.9884 58.6317L50.0424 58.7251L49.9538 58.7763L49.8163 58.661L49.2445 57.6704L49.2133 57.4937Z" stroke="#473A1F" stroke-width="0.409093"/>
<path d="M48.1964 55.5276L48.1078 55.5787L48.139 55.7554L48.7109 56.7459L48.8483 56.8613L48.9369 56.8101L48.883 56.7167L52.2383 54.7346L52.567 54.363L53.4014 53.8812L52.9651 53.1257L52.1308 53.6074L51.6446 53.7063L48.2504 55.621L48.1964 55.5276Z" fill="#A18245"/>
<path d="M55.2421 52.2765C55.2265 52.2495 55.1998 52.2305 55.1686 52.2303C54.8321 52.2282 53.9513 52.5928 52.9805 53.1533L53.3856 53.855C54.3564 53.2944 55.1126 52.7139 55.279 52.4214C55.2944 52.3943 55.2913 52.3617 55.2757 52.3347L55.2421 52.2765Z" fill="#B3914C"/>
<path d="M53.1581 53.0522C53.0993 53.0852 53.0401 53.1189 52.9805 53.1533L53.3853 53.8545C53.4449 53.82 53.5037 53.7856 53.5617 53.7512L53.1581 53.0522Z" fill="#862C2C"/>
<path d="M48.139 55.7554L48.7109 56.7459L48.8483 56.8612L48.9369 56.8101L48.1964 55.5276L48.1078 55.5787L48.139 55.7554Z" fill="#70695C"/>
<path d="M54.459 53.1652L54.1133 52.5664C54.5896 52.3523 54.9708 52.2289 55.1669 52.2301C55.1867 52.2302 55.2047 52.2378 55.2193 52.2505C55.2276 52.2577 55.2347 52.2665 55.2403 52.2762L55.2738 52.3343C55.2894 52.3612 55.2926 52.394 55.2771 52.4209C55.18 52.5913 54.8826 52.8598 54.459 53.1652Z" fill="#426B2E"/>
<path d="M48.1078 55.5787L48.1964 55.5276L48.2503 55.621L51.6445 53.7061L52.1308 53.6075L52.9652 53.1258L52.9808 53.1528C53.9516 52.5923 54.8324 52.2277 55.169 52.2299C55.2001 52.2299 55.2269 52.249 55.2424 52.276L55.276 52.3342C55.2916 52.3611 55.2948 52.3939 55.2792 52.4209C55.1129 52.7134 54.3567 53.2939 53.3859 53.8544L53.4013 53.8811L52.5669 54.3628L52.2383 54.7347L48.883 56.7167L48.9369 56.8101L48.8483 56.8612L48.7109 56.7459L48.139 55.7554L48.1078 55.5787Z" stroke="#473A1F" stroke-width="0.409093"/>
<path d="M50.666 51.6631L51.3108 52.78L52.0828 52.3342L51.438 51.2174L50.666 51.6631Z" fill="#3C443C" stroke="#303630" stroke-width="0.408991" stroke-miterlimit="3.99393" stroke-linecap="round"/>
<path d="M51.7695 53.5762L52.4144 54.693L53.1863 54.2473L52.5415 53.1305L51.7695 53.5762Z" fill="#3C443C" stroke="#303630" stroke-width="0.408991" stroke-miterlimit="3.99393" stroke-linecap="round"/>
<path d="M52.875 55.4893L53.5198 56.6061L54.2918 56.1604L53.647 55.0436L52.875 55.4893Z" fill="#3C443C" stroke="#303630" stroke-width="0.408991" stroke-miterlimit="3.99393" stroke-linecap="round"/>
<path d="M48.3242 55.3818L49.1299 56.7773L49.9025 56.3313L49.0968 54.9358L48.3242 55.3818Z" fill="#3C443C" stroke="#303630" stroke-width="0.408991" stroke-miterlimit="3.99393" stroke-linecap="round"/>
<path d="M47.2188 53.4678L48.0244 54.8633L48.797 54.4172L47.9913 53.0217L47.2188 53.4678Z" fill="#3C443C" stroke="#303630" stroke-width="0.408991" stroke-miterlimit="3.99393" stroke-linecap="round"/>
<path d="M49.4297 57.2949L50.2354 58.6904L51.0079 58.2444L50.2022 56.8489L49.4297 57.2949Z" fill="#3C443C" stroke="#303630" stroke-width="0.408991" stroke-miterlimit="3.99393" stroke-linecap="round"/>
<path d="M44.3094 51.9122L45.4691 51.2427L45.1555 50.6996L46.7571 49.7749L47.0711 50.3188L50.3525 48.4243L50.0411 47.8849L51.7769 46.8827L52.0894 47.424L53.3666 46.6866L54.8858 49.3179L54.1318 49.7532L53.9562 50.4086L52.602 51.1904L51.8082 51.0948L51.0065 51.5576L50.8115 51.8954L50.1329 52.2872L49.7545 52.2818L48.8759 52.7891L48.5929 53.5059L47.1612 54.3325L46.5185 54.1478L45.828 54.5465L44.3094 51.9122Z" fill="#595959"/>
<path d="M54.3367 48.3654L54.887 49.3185L54.1329 49.7539L53.9573 50.4092L52.6032 51.191L51.8093 51.0954L51.0077 51.5583L50.8126 51.8961L50.1341 52.2879L49.7557 52.2825L48.877 52.7898L48.594 53.5065L47.1623 54.3331L46.5197 54.1485L45.8292 54.5471L45.2799 53.5944L54.3367 48.3654Z" fill="#4D4D4D"/>
<path d="M54.7859 49.1428L54.8871 49.3181L54.1331 49.7535L53.9575 50.4088L52.6034 51.1906L51.8095 51.095L51.0078 51.5578L50.8128 51.8957L50.1342 52.2874L49.7559 52.282L48.8772 52.7893L48.5942 53.5061L47.1625 54.3327L46.5198 54.148L45.8293 54.5467L45.7286 54.372L54.7859 49.1428Z" fill="#404040"/>
<path d="M52.6266 47.7803L45.6313 51.8191C45.3592 51.9762 45.266 52.3241 45.4231 52.5962L45.6186 52.9347C45.7756 53.2068 46.1236 53.3 46.3956 53.1429L53.3909 49.1042C53.663 48.9471 53.7563 48.5992 53.5992 48.3271L53.4037 47.9886C53.2466 47.7165 52.8987 47.6233 52.6266 47.7803Z" fill="#666666" stroke="#333333" stroke-width="0.408964" stroke-miterlimit="3.99393"/>
<path d="M44.3094 51.9122L45.4691 51.2427L45.1555 50.6996L46.7571 49.7749L47.0711 50.3188L50.3525 48.4243L50.0411 47.8849L51.7769 46.8827L52.0894 47.424L53.3666 46.6866L54.8858 49.3179L54.1318 49.7532L53.9562 50.4086L52.602 51.1904L51.8082 51.0948L51.0065 51.5576L50.8115 51.8954L50.1329 52.2872L49.7545 52.2818L48.8759 52.7891L48.5929 53.5059L47.1612 54.3325L46.5185 54.1478L45.828 54.5465L44.3094 51.9122Z" stroke="#333333" stroke-width="0.408964" stroke-miterlimit="3.99393"/>
<path d="M56.3313 64.2609L57.2605 63.7244C57.431 63.644 57.5389 63.6274 57.6265 63.7702C57.7645 64.0145 57.6702 64.2175 57.6702 64.2175L58.0296 64.0101C58.3595 63.438 57.8792 62.6842 57.0861 63.0865L55.8405 63.8057C55.2281 64.1416 55.3275 64.9295 56.1682 65.0847L56.5712 64.852C56.5712 64.852 56.3141 64.8315 56.1981 64.6336C56.0935 64.4628 56.0995 64.3776 56.3313 64.2609Z" fill="#808080" stroke="#333333" stroke-width="0.409093" stroke-miterlimit="3.99393" stroke-linecap="round"/>
<path d="M61.0683 69.2592L59.1766 70.3514C59.0532 70.4227 59.0109 70.5805 59.0822 70.7039C59.1534 70.8274 59.3112 70.8697 59.4347 70.7984L61.3264 69.7062C61.4498 69.6349 61.4921 69.4771 61.4208 69.3537C61.3496 69.2303 61.1918 69.188 61.0683 69.2592Z" fill="#999999" stroke="#333333" stroke-width="0.409093" stroke-miterlimit="3.99393" stroke-linecap="round"/>
<path d="M60.252 71.0579L61.1812 70.5214C61.3361 70.4139 61.4044 70.3288 61.3246 70.1815C61.1819 69.9399 60.959 69.92 60.959 69.92L61.3183 69.7125C61.9787 69.7128 62.3914 70.5057 61.6465 70.9914L60.4008 71.7106C59.8037 72.0729 59.171 71.5929 59.457 70.7872L59.86 70.5545C59.86 70.5545 59.7492 70.7875 59.8626 70.9869C59.9582 71.1629 60.035 71.2003 60.252 71.0579Z" fill="#808080" stroke="#333333" stroke-width="0.409093" stroke-miterlimit="3.99393" stroke-linecap="round"/>
<path d="M48.625 58.8252L50.3176 61.7569L50.5022 61.8373L51.1988 61.4351L51.392 61.7696L52.2294 61.2861L52.0363 60.9516L56.4542 58.4009L56.6473 58.7354L57.4855 58.2515L57.2924 57.917L57.9971 57.5102L58.0121 57.3155L56.3191 54.383L48.625 58.8252Z" fill="#475C3D" stroke="#2F3D29" stroke-width="0.409093" stroke-miterlimit="3.99393" stroke-linecap="round"/>
<path d="M50.9261 62.8109L58.1164 75.2648L58.8546 74.8385C59.0664 73.8305 64.0935 70.9282 65.0721 71.2488L65.8104 70.8226L58.6202 58.3687L57.9563 58.0369L58.0121 57.3155L56.3191 54.383L48.625 58.8252L50.3176 61.7569L50.963 62.0566L50.9261 62.8109Z" stroke="#303D29" stroke-width="0.818186" stroke-miterlimit="3.99393" stroke-linecap="round"/>
<path d="M49.6982 58.4227L55.4315 55.1126C55.5553 55.0411 55.7126 55.0832 55.7841 55.207L56.7761 56.9252C56.8476 57.0491 56.8055 57.2064 56.6816 57.2779L50.9483 60.588C50.8245 60.6595 50.6672 60.6174 50.5957 60.4935L49.6037 58.7753C49.5322 58.6515 49.5743 58.4942 49.6982 58.4227Z" fill="#536B47" stroke="#303D29" stroke-width="0.409091" stroke-miterlimit="3.99393" stroke-linecap="round"/>
<path d="M50.5955 58.7541L50.6571 58.7185L50.6946 58.7834L53.0537 57.4525L53.3917 57.384L53.9716 57.0492L53.9825 57.0679C54.6573 56.6784 55.2695 56.4249 55.5034 56.4265C55.525 56.4265 55.5436 56.4398 55.5544 56.4586L55.5778 56.499C55.5886 56.5177 55.5908 56.5405 55.58 56.5592C55.4644 56.7626 54.9388 57.166 54.264 57.5556L54.2747 57.5741L53.6948 57.909L53.4664 58.1675L51.1343 59.545L51.1718 59.6099L51.1102 59.6455L51.0147 59.5653L50.6172 58.8769L50.5955 58.7541Z" fill="#3B4D33" stroke="#2F3D29" stroke-width="0.284339"/>
<path d="M60.4261 46.6397L62.9414 45.1875L61.5394 42.7592C61.3299 42.3786 60.906 42.2493 60.4773 42.1484L58.838 41.6678C58.2623 41.487 57.9605 41.1485 57.4186 40.9238L54.3878 39.6487L53.9395 40.4806L56.1667 42.7927C56.4172 43.0413 56.5939 43.2707 57.1773 43.3118L58.5624 43.4479L60.4261 46.6397Z" fill="#55555E"/>
<path d="M61.5186 43.5361C61.3463 43.2377 60.9732 43.1305 60.6853 43.2967C60.3974 43.4629 60.3037 43.8396 60.4761 44.1381L60.856 44.7961C61.0283 45.0945 61.4014 45.2017 61.6893 45.0355C61.9771 44.8693 62.0708 44.4926 61.8985 44.1942L61.5186 43.5361Z" fill="#424247"/>
<path d="M61.4662 42.6469C61.2405 42.3516 60.8608 42.2387 60.4773 42.1484L58.838 41.6678C58.5187 41.5675 58.2836 41.4187 58.0451 41.2677C57.8536 41.1465 57.6599 41.0239 57.4186 40.9238L54.3878 39.6487L53.9395 40.4806L56.1667 42.7927C56.1879 42.8137 56.2086 42.8347 56.229 42.8553C56.4501 43.0788 56.6433 43.2742 57.1773 43.3118L58.5624 43.4479L58.9448 44.1027L61.4662 42.6469Z" fill="#494950"/>
<path d="M57.0024 43.118C57.1892 43.0101 57.2532 42.7712 57.1453 42.5844C57.0375 42.3976 56.7986 42.3335 56.6117 42.4414C56.4249 42.5493 56.3609 42.7882 56.4687 42.975C56.5766 43.1618 56.8155 43.2259 57.0024 43.118Z" fill="#3A3A40" stroke="#303036" stroke-width="0.408991" stroke-miterlimit="3.99393" stroke-linecap="round"/>
<path d="M58.4926 43.3143C58.6794 43.2064 58.7434 42.9675 58.6356 42.7807C58.5277 42.5938 58.2888 42.5298 58.102 42.6377C57.9151 42.7456 57.8511 42.9845 57.959 43.1713C58.0668 43.3581 58.3058 43.4221 58.4926 43.3143Z" fill="#3A3A40" stroke="#303036" stroke-width="0.408991" stroke-miterlimit="3.99393" stroke-linecap="round"/>
<path d="M60.9809 43.0115C61.1677 42.9037 61.2317 42.6648 61.1238 42.4779C61.016 42.2911 60.7771 42.2271 60.5902 42.335C60.4034 42.4428 60.3394 42.6817 60.4473 42.8686C60.5551 43.0554 60.794 43.1194 60.9809 43.0115Z" fill="#3A3A40" stroke="#303036" stroke-width="0.408991" stroke-miterlimit="3.99393" stroke-linecap="round"/>
<path d="M61.1807 44.1477C61.3692 44.0388 61.4338 43.7978 61.325 43.6093C61.2162 43.4208 60.9751 43.3562 60.7866 43.4651C60.5981 43.5739 60.5335 43.8149 60.6424 44.0034C60.7512 44.1919 60.9922 44.2565 61.1807 44.1477Z" fill="#35353C"/>
<path d="M61.2539 46.1592L60.0326 44.0439C59.9761 43.9461 59.8511 43.9126 59.7533 43.969C59.6555 44.0255 59.6219 44.1506 59.6784 44.2484L60.8997 46.3637L61.2539 46.1592Z" fill="#37373E"/>
<path d="M60.4261 46.6397L62.9414 45.1875L61.5394 42.7592C61.3299 42.3786 60.906 42.2493 60.4773 42.1484L58.838 41.6678C58.2623 41.487 57.9605 41.1485 57.4186 40.9238L54.3878 39.6487L53.9395 40.4806L56.1667 42.7927C56.4172 43.0413 56.5939 43.2707 57.1773 43.3118L58.5624 43.4479L60.4261 46.6397Z" stroke="#303036" stroke-width="0.818186" stroke-miterlimit="3.99393"/>
<path d="M53.0229 39.4065L45.8378 42.7424C45.4259 42.9158 45.4382 43.1088 45.5711 43.4114L46.1957 44.7192C46.3498 45.0162 46.4909 44.9736 46.8385 44.8087L53.9112 41.1714C55.3028 40.4804 54.6489 38.6611 53.0229 39.4065Z" fill="#7D4136"/>
<path d="M54.3641 39.4377C54.0819 39.2051 53.6174 39.1348 53.0229 39.4073L45.8378 42.7432C45.4259 42.9166 45.4382 43.1096 45.5711 43.4121L45.9772 44.2625L53.359 40.6036C53.9688 40.2898 54.2894 39.9455 54.358 39.4719L54.3641 39.4377Z" fill="#6A372F"/>
<path d="M48.0194 43.2002C48.3007 43.0378 48.3971 42.6781 48.2347 42.3968C48.0723 42.1155 47.7125 42.0191 47.4312 42.1815C47.1499 42.3439 47.0535 42.7036 47.216 42.9849C47.3784 43.2662 47.7381 43.3626 48.0194 43.2002Z" fill="#383838" stroke="#333333" stroke-width="0.409093" stroke-miterlimit="3.99393" stroke-linecap="round"/>
<path d="M52.5272 41.0752C52.8085 40.9128 52.9049 40.5531 52.7425 40.2718C52.5801 39.9905 52.2204 39.8941 51.939 40.0565C51.6577 40.2189 51.5613 40.5786 51.7238 40.8599C51.8862 41.1412 52.2459 41.2376 52.5272 41.0752Z" fill="#383838" stroke="#333333" stroke-width="0.409093" stroke-miterlimit="3.99393" stroke-linecap="round"/>
<path d="M53.0229 39.4065L45.8378 42.7424C45.4259 42.9158 45.4382 43.1088 45.5711 43.4114L46.1957 44.7192C46.3498 45.0162 46.4909 44.9736 46.8385 44.8087L53.9112 41.1714C55.3028 40.4804 54.6489 38.6611 53.0229 39.4065Z" stroke="#47251F" stroke-width="0.818186" stroke-miterlimit="3.99393" stroke-linecap="round"/>
<path fill-rule="evenodd" clip-rule="evenodd" d="M99.1914 23.605L100.162 25.286L103.029 23.6306L99.9639 18.3216L100 18.2962C99.9478 17.8238 99.773 17.0751 98.9044 17.4966L98.3196 17.8342C97.912 18.0835 97.8978 18.2698 98.0368 18.4759L98.4739 19.2645L99.1914 23.605ZM99.5949 20.2566L100.104 19.9262C100.573 19.6084 100.906 20.1773 101.093 20.4979C101.114 20.5344 101.134 20.5677 101.151 20.5961L101.356 20.9515C101.708 21.5712 101.628 21.9937 101.129 22.2795L100.596 22.5872C100.258 22.7794 99.6991 22.6108 99.6004 22.0378L99.3749 20.9058C99.2981 20.6631 99.3757 20.384 99.5949 20.2566Z" fill="#494951"/>
<path fill-rule="evenodd" clip-rule="evenodd" d="M99.1839 23.5767L102.042 21.9266L99.9613 18.3227L99.9973 18.2973C99.9887 18.2188 99.9766 18.1326 99.9585 18.0454L98.3195 18.9917L98.4713 19.2656L99.1839 23.5767ZM100.102 19.9273L99.5922 20.2577C99.3731 20.3851 99.2954 20.6642 99.3722 20.9069L99.5978 22.0389C99.6965 22.6119 100.255 22.7805 100.594 22.5883L101.127 22.2806C101.626 21.9948 101.705 21.5723 101.354 20.9526L101.148 20.5972C101.131 20.5688 101.111 20.5355 101.09 20.499C100.903 20.1784 100.571 19.6095 100.102 19.9273Z" fill="#3D3D43"/>
<path d="M99.1914 23.605L100.162 25.286L103.029 23.6306L99.9639 18.3216L100 18.2962C99.9478 17.8238 99.773 17.0751 98.9044 17.4966L98.3196 17.8342C97.912 18.0835 97.8978 18.2698 98.0368 18.4759L98.4739 19.2645L99.1914 23.605Z" stroke="#303036" stroke-width="0.409091" stroke-miterlimit="3.99393" stroke-linecap="round"/>
<path d="M81.0027 39.0515L80.2356 37.7228L81.302 37.1071C81.4714 37.137 81.6684 37.1846 81.8845 37.0764L82.6094 36.6578C82.8554 36.4987 82.8641 36.3817 82.9376 36.1509L84.3953 35.3093L85.2531 36.7952L84.6602 37.1375L84.5793 36.9886L81.0027 39.0515Z" stroke="#333333" stroke-width="0.818186" stroke-miterlimit="3.99393"/>
<path d="M7.05909 87.6295L8.10629 87.2449L7.82135 86.6581L8.87845 86.2265C9.66909 85.8936 9.16756 84.6327 8.32785 85.0167L7.23858 85.458C5.91544 82.8144 4.45564 80.2724 2.71182 77.7884L1.93011 78.5881C3.81323 81.3041 5.45044 84.4636 7.05909 87.6295Z" fill="#4D4D4D"/>
<path d="M8.69955 85.9983C8.89487 85.8855 8.9618 85.6357 8.84903 85.4404C8.73626 85.2451 8.48649 85.1782 8.29117 85.2909C8.09584 85.4037 8.02892 85.6535 8.14169 85.8488C8.25446 86.0441 8.50422 86.111 8.69955 85.9983Z" fill="#404040"/>
<path d="M8.13888 85.4433C8.10488 85.5035 8.08662 85.5716 8.08591 85.6407L8.84994 85.8455C8.88389 85.7852 8.90211 85.7172 8.90277 85.648L8.13888 85.4433Z" fill="#383838"/>
<path d="M7.05909 87.6295L8.10629 87.2449L7.82135 86.6581L8.87845 86.2265C9.66909 85.8936 9.16756 84.6327 8.32785 85.0167L7.23858 85.458C5.91544 82.8144 4.45564 80.2724 2.71182 77.7884L1.93011 78.5881C3.81323 81.3041 5.45044 84.4636 7.05909 87.6295Z" stroke="#333333" stroke-width="0.818185" stroke-miterlimit="3.99393" stroke-linecap="round"/>
</g>
<defs>
<clipPath id="clip0_3608_4682">
<rect width="110" height="110" fill="white"/>
</clipPath>
</defs>
</svg>
