<?xml version="1.0" encoding="UTF-8" standalone="no"?>
<!-- Created with Inkscape (http://www.inkscape.org/) -->

<svg
   width="121.95139"
   height="49.686779"
   viewBox="0 0 32.266305 13.146294"
   version="1.1"
   id="svg1"
   xml:space="preserve"
   inkscape:version="1.4.2 (1:1.4.2+202505120737+ebf0e940d0)"
   sodipodi:docname="pp19.svg"
   inkscape:export-filename="pp19_lootimage.png"
   inkscape:export-xdpi="96"
   inkscape:export-ydpi="96"
   xmlns:inkscape="http://www.inkscape.org/namespaces/inkscape"
   xmlns:sodipodi="http://sodipodi.sourceforge.net/DTD/sodipodi-0.dtd"
   xmlns="http://www.w3.org/2000/svg"
   xmlns:svg="http://www.w3.org/2000/svg"><sodipodi:namedview
     id="namedview1"
     pagecolor="#ffffff"
     bordercolor="#000000"
     borderopacity="0.25"
     inkscape:showpageshadow="2"
     inkscape:pageopacity="0.0"
     inkscape:pagecheckerboard="0"
     inkscape:deskcolor="#d1d1d1"
     inkscape:document-units="px"
     showguides="false"
     inkscape:zoom="2.8756734"
     inkscape:cx="158.22381"
     inkscape:cy="65.897609"
     inkscape:window-width="2560"
     inkscape:window-height="1368"
     inkscape:window-x="0"
     inkscape:window-y="0"
     inkscape:window-maximized="1"
     inkscape:current-layer="layer1" /><defs
     id="defs1"><clipPath
       clipPathUnits="userSpaceOnUse"
       id="clipPath51"><rect
         width="238.52167"
         height="238.52167"
         fill="#ffffff"
         id="rect51"
         x="6.5916328"
         y="-156.33772"
         style="stroke-width:2.16838"
         transform="rotate(29.999999)" /></clipPath><clipPath
       clipPathUnits="userSpaceOnUse"
       id="clipPath52"><rect
         width="238.52167"
         height="238.52167"
         fill="#ffffff"
         id="rect52"
         x="6.5916328"
         y="-156.33772"
         style="stroke-width:2.16838"
         transform="rotate(29.999999)" /></clipPath><clipPath
       clipPathUnits="userSpaceOnUse"
       id="clipPath53"><rect
         width="238.52167"
         height="238.52167"
         fill="#ffffff"
         id="rect53"
         x="6.5916328"
         y="-156.33772"
         style="stroke-width:2.16838"
         transform="rotate(29.999999)" /></clipPath><clipPath
       clipPathUnits="userSpaceOnUse"
       id="clipPath54"><rect
         width="238.52167"
         height="238.52167"
         fill="#ffffff"
         id="rect54"
         x="6.5916328"
         y="-156.33772"
         style="stroke-width:2.16838"
         transform="rotate(29.999999)" /></clipPath><clipPath
       clipPathUnits="userSpaceOnUse"
       id="clipPath55"><rect
         width="238.52167"
         height="238.52167"
         fill="#ffffff"
         id="rect55"
         x="6.5916328"
         y="-156.33772"
         style="stroke-width:2.16838"
         transform="rotate(29.999999)" /></clipPath><clipPath
       id="clip0_619_1201"><rect
         width="110"
         height="110"
         fill="#ffffff"
         id="rect74"
         x="0"
         y="0" /></clipPath></defs><g
     inkscape:label="Layer 1"
     inkscape:groupmode="layer"
     id="layer1"
     transform="translate(-5.5439049,46.657099)"><g
       id="g63"
       transform="matrix(0.12095215,-0.03240903,0.03240903,0.12095215,4.8068895,-39.465421)"><path
         d="m 189.30478,5.0655542 c 0,0 0.23562,3.7543167 0.23558,4.5545173 -4e-5,0.8002005 -0.10135,2.7325015 -0.10135,2.7325015 l 1e-4,3.010408 c 0,0 -0.0871,5.083841 -0.087,6.119433 -1.7e-4,1.035483 -0.42359,2.447558 -0.42359,2.447558 l 2.40061,1.2e-4 c 0,0 1.27089,-0.04719 1.36511,-1.647577 0.094,-1.600494 0.14121,-9.273276 0.14121,-9.273276 l 1.83579,2.4e-5 V 6.8428333 l -2.30561,1.426e-4 c 0,0 -0.18847,-1.7187749 -1.31799,-1.7416899 z"
         fill="#4a4a43"
         stroke="#363631"
         stroke-width="1.09257"
         stroke-miterlimit="3.99393"
         id="path1"
         style="stroke-width:2.11919;stroke-dasharray:none" /><path
         d="m 73.288323,16.727665 23.849461,4.4e-4 1.054787,-1.266636 16.681949,1.01e-4 c 0.14802,-0.36523 0.36467,-0.723135 0.64483,-1.161551 0.13412,-0.209754 0.31306,-0.445962 0.50972,-0.705491 0.39933,-0.526857 0.87187,-1.150158 1.19193,-1.847214 0.16002,-0.348286 0.2959,-0.643911 0.39304,-0.812168 0.38728,-0.670776 1.27083,-0.670687 1.27083,-0.670687 l 11.05023,-1.51e-4 c 2.41235,1.45e-4 2.4124,2.412608 2.4124,2.412608 l 1.6e-4,4.051542 10.16628,2.8e-5 -7e-5,-1.36813 -6.72997,-1.13e-4 -1.9e-4,-8.4147225 -52.110435,2.53e-5 c 0,0 -1.530834,-0.00348 -2.329671,0.9950417 -0.23357,0.2918003 -1.024964,1.0562562 -2.026322,2.0234852 -2.423045,2.3402713 -6.075483,5.8684033 -6.028959,6.7635923 z"
         fill="#6b6b61"
         id="path2"
         style="stroke-width:2.11919;stroke-linecap:round;stroke-linejoin:round;stroke-dasharray:none" /><path
         style="fill:#75756a;fill-opacity:1;fill-rule:evenodd;stroke:none;stroke-width:1.90064;stroke-linecap:round;stroke-linejoin:round;stroke-miterlimit:29;stroke-dasharray:none"
         d="m 79.502197,11.32028 c 0,0 3.282355,-1.6366744 4.894131,-1.6366744 H 134.73736 V 8.002267 H 83.340682 c 0,0 -0.845769,-0.3252954 -3.838485,3.318013 z"
         id="path51"
         sodipodi:nodetypes="cscccc" /><path
         fill-rule="evenodd"
         clip-rule="evenodd"
         d="m 196.76619,13.007457 -2.09469,-2.1e-5 V 6.8410058 l 2.21225,-0.047034 0.0944,-1.271047 c 0.047,-0.6824573 0.56484,-2.7065271 0.98843,-3.4597376 0.4236,-0.7532105 1.05904,-0.7531514 2.35353,-0.75317 1.29449,-1.86e-5 1.88304,0.1176887 2.02411,1.1062764 0.0693,0.4849422 0.0254,1.536745 -0.0292,2.8382535 -0.0566,1.350934 -0.12439,2.9705868 -0.0883,4.5049585 0.0705,3.0124974 0.11747,6.4721114 0.11747,6.4721114 l -5.57788,-0.02325 z m 4.79932,-1.382962 -0.0164,-3.2904927 c -2.66281,-2.25e-5 -2.79454,0.1327398 -2.79459,0.748651 2.1e-4,0.1032804 -0.009,0.2434719 -0.02,0.4050675 -0.0537,0.8025172 -0.14273,2.1367382 0.70158,2.1367062 z"
         fill="#57574f"
         id="path3"
         style="stroke-width:2.11919;stroke-dasharray:none" /><path
         d="M 84.906791,6.9821835 86.240812,4.3376601 88.801041,4.3375486 88.801,6.9440104 Z"
         fill="#5e5e55"
         stroke="#363631"
         stroke-width="0.546283"
         stroke-miterlimit="3.99393"
         id="path4"
         style="stroke-width:1.05833;stroke-dasharray:none" /><path
         d="m 91.161543,4.3373009 6.8e-5,2.606274 1.980249,4.94e-5 1.2e-4,-2.6061656 z"
         fill="#5e5e55"
         stroke="#363631"
         stroke-width="0.546283"
         stroke-miterlimit="3.99393"
         id="path5"
         style="stroke-width:1.05833;stroke-dasharray:none" /><path
         d="m 95.489652,4.3373153 -1.2e-4,2.6061655 1.980545,-3e-5 -6.7e-5,-2.6062739 z"
         fill="#5e5e55"
         stroke="#363631"
         stroke-width="0.546283"
         stroke-miterlimit="3.99393"
         id="path6"
         style="stroke-width:1.05833;stroke-dasharray:none" /><path
         d="m 99.817573,4.3372212 -1.2e-4,2.6061655 1.980547,-2.99e-5 -7e-5,-2.606274 z"
         fill="#5e5e55"
         stroke="#363631"
         stroke-width="0.546283"
         stroke-miterlimit="3.99393"
         id="path7"
         style="stroke-width:1.05833;stroke-dasharray:none" /><path
         d="m 104.14452,4.3388172 -1.2e-4,2.6061655 1.98054,-2.99e-5 -6e-5,-2.606274 z"
         fill="#5e5e55"
         stroke="#363631"
         stroke-width="0.546283"
         stroke-miterlimit="3.99393"
         id="path8"
         style="stroke-width:1.05833;stroke-dasharray:none" /><path
         d="m 108.46879,4.3363669 7e-5,2.606274 1.98025,4.94e-5 1.2e-4,-2.6061655 z"
         fill="#5e5e55"
         stroke="#363631"
         stroke-width="0.546283"
         stroke-miterlimit="3.99393"
         id="path9"
         style="stroke-width:1.05833;stroke-dasharray:none" /><path
         d="m 112.80047,4.3384412 7e-5,2.606274 1.98036,-1.384e-4 1.2e-4,-2.6061655 z"
         fill="#5e5e55"
         stroke="#363631"
         stroke-width="0.546283"
         stroke-miterlimit="3.99393"
         id="path10"
         style="stroke-width:1.05833;stroke-dasharray:none" /><path
         d="m 117.12215,4.3322409 7e-5,2.606274 1.98036,-1.384e-4 1.2e-4,-2.6061655 z"
         fill="#5e5e55"
         stroke="#363631"
         stroke-width="0.546283"
         stroke-miterlimit="3.99393"
         id="path11"
         style="stroke-width:1.05833;stroke-dasharray:none" /><path
         d="m 152.31669,25.602772 -1.1e-4,2.277419 1.98036,-1.38e-4 v -2.277232 z"
         fill="#505048"
         stroke="#363631"
         stroke-width="0.546283"
         stroke-miterlimit="3.99393"
         id="path12"
         style="stroke-width:1.05833;stroke-dasharray:none" /><path
         d="m 182.7409,25.599835 -1.1e-4,2.27742 3.64469,-2.05e-4 v -2.277231 z"
         fill="#505048"
         stroke="#363631"
         stroke-width="0.546283"
         stroke-miterlimit="3.99393"
         id="path13"
         style="stroke-width:1.05833;stroke-dasharray:none" /><path
         d="m 121.4491,4.3338369 7e-5,2.606274 1.98054,-3e-5 -7e-5,-2.6062739 z"
         fill="#5e5e55"
         stroke="#363631"
         stroke-width="0.546283"
         stroke-miterlimit="3.99393"
         id="path14"
         style="stroke-width:1.05833;stroke-dasharray:none" /><path
         d="m 125.77732,4.3336635 -1.2e-4,2.6061655 1.98043,1.579e-4 -7e-5,-2.606274 z"
         fill="#5e5e55"
         stroke="#363631"
         stroke-width="0.546283"
         stroke-miterlimit="3.99393"
         id="path15"
         style="stroke-width:1.05833;stroke-dasharray:none" /><path
         d="m 156.64818,25.604738 v 2.277231 l 1.98044,1.58e-4 1.1e-4,-2.277419 z"
         fill="#505048"
         stroke="#363631"
         stroke-width="0.546283"
         stroke-miterlimit="3.99393"
         id="path16"
         style="stroke-width:1.05833;stroke-dasharray:none" /><path
         d="m 178.41438,25.605745 -1.1e-4,2.27742 1.98036,-1.39e-4 v -2.277231 z"
         fill="#505048"
         stroke="#363631"
         stroke-width="0.546283"
         stroke-miterlimit="3.99393"
         id="path17"
         style="stroke-width:1.05833;stroke-dasharray:none" /><path
         d="m 130.10524,4.3335694 -1.2e-4,2.6061656 6.31107,1.296e-4 -7e-5,-2.606274 z"
         fill="#5e5e55"
         stroke="#363631"
         stroke-width="0.546283"
         stroke-miterlimit="3.99393"
         id="path18"
         style="stroke-width:1.05833;stroke-dasharray:none" /><path
         d="m 102.62072,28.094219 c -0.12957,0.553151 -0.1529,0.647344 -0.8001,0.647259 -0.64729,1.03e-4 -0.42368,0.01178 -0.56495,1.494606 -0.14116,1.482643 -0.54285,2.817624 0.7767,4.165864 1.08277,1.106119 2.65964,2.330009 2.65964,2.330009 0,0 -2.50666,0.117669 -4.04826,-1.20028 -1.541606,-1.317948 -1.659367,-3.695218 -1.553351,-4.883671 0.105828,-1.18856 -0.553088,-1.635838 -1.235647,-1.635811 -0.682559,2.7e-5 -1.518087,0.117552 -1.671065,-0.07067 -0.152978,-0.188224 -0.164771,-0.517776 -0.164771,-0.517776 z"
         fill="#43433f"
         stroke="#363631"
         stroke-width="0.546283"
         stroke-miterlimit="3.99393"
         id="path19"
         style="stroke-width:1.05833;stroke-linecap:round;stroke-linejoin:round;stroke-dasharray:none" /><path
         d="m 136.4851,4.1538311 -0.29952,-2.7623921 1.79739,0.4325518 0.055,0.7087851 c 0,0 2.28965,0.1233452 2.65584,-0.1427171 0.3661,-0.2663586 0.59901,-0.7656084 1.99712,-0.099874 1.39793,0.6656263 2.36322,0.5323798 4.09405,0.4327459 1.73075,-0.09993 2.36325,-0.6659308 3.26197,-0.199888 0.89852,0.4659345 1.43122,2.0304084 1.43122,2.0304084 z"
         fill="#707065"
         stroke="#363631"
         stroke-width="0.546283"
         stroke-miterlimit="3.99393"
         id="path20"
         style="stroke-width:2.11919;stroke-linecap:round;stroke-linejoin:round;stroke-dasharray:none" /><path
         d="m 135.78443,6.9837425 -8e-5,8.3770135 19.67585,-1.6e-5 -3e-5,-10.589454 -18.42583,-1.468e-4 -10e-6,2.2126282 z"
         fill="#53534b"
         stroke="#363631"
         stroke-width="1.09257"
         stroke-miterlimit="3.99393"
         id="path21"
         style="stroke-width:2.11931;stroke-linecap:round;stroke-linejoin:round;stroke-dasharray:none" /><path
         d="m 121.24083,27.212756 c 0.54139,6.26042 0.82389,8.390526 0.63557,8.672899 -0.18842,0.282561 -0.82383,0.965061 0.40015,1.082828 1.22379,0.117658 10.4264,-0.329523 12.16799,-0.47077 1.74177,-0.141139 2.11832,-0.353149 1.4357,-0.847411 -0.68243,-0.494155 -1.24744,-1.929808 -1.36506,-3.153736 -0.11763,-1.223928 -0.42365,-2.612463 0.56489,-2.942106 1.29929,-0.43291 3.55394,-0.517813 3.55394,-0.517813 l 0.047,-2.709048 z"
         fill="#66665c"
         stroke="#363631"
         stroke-width="1.09257"
         stroke-miterlimit="3.99393"
         id="path22"
         style="stroke-width:2.11919;stroke-linecap:round;stroke-linejoin:round;stroke-dasharray:none" /><path
         d="m 123.64901,36.986939 c 0,0 6.37405,-0.183099 8.40448,-0.332851 2.03043,-0.149751 2.52957,-0.199841 2.52957,-0.199841 0,0 2.73071,14.136031 8.00517,26.644714 4.74106,11.244254 6.31926,13.710059 6.31926,13.710059 l -10.97937,5.3955 c 0,0 -1.06509,-3.195379 -1.39781,-4.260558 -0.33283,-1.064992 -1.73085,-5.791384 -2.52959,-7.32267 -0.79884,-1.531098 -5.59203,-14.112704 -7.58897,-21.834932 -1.99705,-7.72204 -2.76274,-11.799421 -2.76274,-11.799421 z"
         fill="#474743"
         stroke="#363631"
         stroke-width="1.09257"
         stroke-miterlimit="3.99393"
         id="path23"
         style="fill:#4f4f4a;fill-opacity:1;stroke-width:2.11919;stroke-linecap:round;stroke-linejoin:round;stroke-dasharray:none"
         clip-path="url(#clipPath55)" /><path
         d="m 155.4587,4.7699347 3e-5,7.5806063 33.97913,1.17e-4 c 0.0917,-3.5510609 -0.10212,-6.3360589 -0.13433,-7.2868307 0,0 -3.67147,-0.152467 -7.95508,-0.1996464 -4.28352,-0.046883 -10.73233,-0.094237 -10.73233,-0.094237 z"
         fill="#40403a"
         stroke="#363631"
         stroke-width="1.09257"
         stroke-miterlimit="3.99393"
         id="path24"
         style="stroke-width:2.11931;stroke-linecap:round;stroke-linejoin:round;stroke-dasharray:none"
         sodipodi:nodetypes="ccccccc" /><path
         d="M 75.319164,29.436559 95.20715,28.448076 c 0,0 0.329529,6.166391 0.188354,7.084412 -0.141254,0.917725 -0.753242,0.894398 -1.977171,1.012022 -1.22374,0.117734 -1.694486,1.106126 -2.353457,3.153881 -0.659052,2.047459 -4.283554,14.003831 -4.895553,16.380918 -0.611811,2.377196 -0.753208,2.094753 -0.61191,3.812834 0.14119,1.718268 0.635428,2.871443 -0.800346,3.3187 -1.435478,0.447177 -2.635884,0.470718 -4.236395,-1.44e-4 -1.600431,-0.470566 -7.060865,-1.741522 -9.508622,-2.94191 -2.44757,-1.20028 -2.330045,-2.188792 -1.03557,-4.354129 1.294476,-2.165338 7.719892,-15.063014 8.567109,-16.404672 0.847406,-1.34155 0.706179,-4.048101 0.14137,-5.177922 C 78.120042,33.202433 77.649306,32.449167 76.754998,32.001944 75.860582,31.554908 75.5076,31.53139 75.43698,30.919494 75.36647,30.307411 75.319164,29.436559 75.319164,29.436559 Z"
         fill="#4b4b44"
         stroke="#363631"
         stroke-width="1.09257"
         stroke-miterlimit="3.99393"
         id="path25"
         style="stroke-width:2.11919;stroke-linecap:round;stroke-linejoin:round;stroke-dasharray:none" /><path
         d="m 117.62558,27.353648 -6.54213,0.317664 c 0,0 0.33768,5.134009 0.32835,8.426162 -0.002,0.07078 -0.0103,0.173566 -0.0319,0.295845 -0.25884,1.889427 -2.51454,1.862546 -7.05392,2.394556 -6.639602,0.591888 -7.043132,0.395716 -8.48166,-2.513246 -0.157667,-0.590793 -0.406996,-1.326398 -0.406996,-1.326398 0,0 0.08826,0.497641 -0.06479,0.773581 l -0.848159,1.528902 c 1.14155,3.095049 3.024606,3.600842 5.154665,3.600752 1.74563,5.4e-5 6.77532,-0.562855 8.96706,-0.847577 2.22316,-0.288858 3.17652,-0.823845 3.83653,-1.788344 0.3201,-0.46769 0.63523,-1.812336 0.63523,-1.812336 l 1.18886,-0.07077 c 0,0 -1.18824,-0.776417 -1.42374,-1.941458 -0.23531,-1.164932 0.50611,-2.848098 1.62402,-2.906998 1.118,-0.0586 2.20062,-0.329168 2.68314,-0.929429 0.48241,-0.600074 0.43539,-3.200909 0.43539,-3.200909 z"
         fill="#53534c"
         stroke="#363631"
         stroke-width="0.546283"
         stroke-miterlimit="3.99393"
         id="path26"
         style="stroke-width:2.11919;stroke-dasharray:none" /><path
         d="m 121.24025,27.209418 -3.61245,0.141255 c 0,0 0.0822,1.482641 -0.20028,2.589002 -0.28255,1.106065 -1.08294,1.282433 -1.76543,1.423717 -0.68249,0.141283 -1.68293,-0.07051 -2.16518,0.717941 -0.48255,0.788531 -0.54104,0.835634 -0.59971,1.659322 -0.059,0.823768 0.1646,1.341188 0.54127,1.80028 0.3766,0.458796 0.87052,0.788531 0.87052,0.788531 0,0 4.11898,-0.141258 4.4367,-0.117816 0.31791,0.02355 0.52951,0.353535 0.94142,0.353486 0.4118,1.4e-4 1.84725,0.0114 1.84725,0.0114 0,0 0.0237,-0.270492 0.23552,-0.494235 0.21188,-0.223448 0.16495,-0.882009 0.14133,-1.176327 -0.0234,-0.294208 -0.67096,-7.696555 -0.67096,-7.696555 z"
         fill="#5e5e55"
         stroke="#363631"
         stroke-width="0.546283"
         stroke-miterlimit="3.99393"
         id="path27"
         style="stroke-width:2.11919;stroke-dasharray:none" /><path
         d="m 121.11139,36.697745 -0.97527,4.856437 1.38379,0.544245 1.06236,-5.232642 c -0.88291,0.101361 -1.37261,-0.177565 -1.47088,-0.16804 z"
         fill="#4a4a46"
         stroke="#363631"
         stroke-width="0.546283"
         stroke-miterlimit="3.99393"
         id="path28"
         style="stroke-width:1.05833;stroke-linecap:round;stroke-linejoin:round;stroke-dasharray:none" /><path
         d="M 68.566802,16.76592 68.896719,31.011887 74.15581,29.480491 73.290493,16.765974 Z"
         fill="#4d4d46"
         stroke="#363631"
         stroke-width="1.09257"
         stroke-miterlimit="3.99393"
         id="path29"
         style="stroke-width:2.11919;stroke-linecap:round;stroke-linejoin:round;stroke-dasharray:none" /><path
         d="M 68.504639,17.468158 5.3457214,19.409813 6.5696021,23.45803 64.656478,21.057306 64.797793,27.459057 7.2165244,44.048942 6.217986,48.186143 c 0,0 7.855235,-1.231596 13.447068,-3.195338 5.591833,-1.963742 49.192479,-14.601459 49.192479,-14.601459 z"
         fill="#5c5c53"
         stroke="#363631"
         stroke-width="1.09257"
         stroke-miterlimit="3.99393"
         id="path30"
         style="stroke-width:2.11919;stroke-dasharray:none"
         clip-path="url(#clipPath54)" /><path
         d="m 5.3481389,19.408705 1.2238584,4.518924 0.1882791,0.647276 c 0,0 -0.8237035,0.258808 -0.7295743,1.164956 0.094129,0.906147 0.7555502,6.634944 0.6557472,11.261485 -0.09993,4.626717 -0.4327577,3.959583 0.04993,4.608579 l 0.4825419,0.649162 -0.9984779,6.824845 c 0,0 -1.2481364,0.232846 -2.3466108,0.08313 C 2.7753769,49.017361 2.6237585,46.27126 2.7402163,44.856731 2.8567638,43.442004 3.2299415,37.295982 2.9474294,31.553343 2.6650258,25.810516 1.7000543,22.538989 1.7471881,20.891391 1.7941946,19.24397 2.2884833,19.079159 3.1358056,19.079113 l 2.2275065,8.5e-5 z"
         fill="#474741"
         stroke="#363631"
         stroke-width="1.09257"
         stroke-miterlimit="3.99393"
         id="path31"
         style="stroke-width:2.11919;stroke-linecap:round;stroke-linejoin:round;stroke-dasharray:none"
         clip-path="url(#clipPath53)" /><path
         d="m 192.83701,16.230839 -0.0704,4.213328 1.95295,6.2e-5 -1e-4,-0.564918 1.78897,3.2e-5 3e-5,1.341315 5.86907,-1.71e-4 1e-5,-0.611931 -0.0322,-4.37774 z"
         fill="#42423e"
         stroke="#363631"
         stroke-width="1.09257"
         stroke-miterlimit="3.99393"
         id="path32"
         style="stroke-width:2.11919;stroke-linecap:round;stroke-linejoin:round;stroke-dasharray:none" /><path
         d="m 201.55057,8.3353537 0.0165,3.2903043 -2.12928,4.1e-5 c -1.01451,-8e-5 -0.68152,-1.9255663 -0.68155,-2.5417737 -1.3e-4,-0.6160197 0.1315,-0.7485942 2.7943,-0.7485716 z"
         stroke="#363631"
         stroke-width="0.546283"
         stroke-miterlimit="3.99393"
         id="path33"
         style="fill:none;stroke-width:2.11919;stroke-dasharray:none" /><path
         d="m 142.51789,16.730763 -69.226353,9e-6 0.865238,12.714221 68.360945,-3.338741 z"
         fill="#64645a"
         id="path34"
         style="stroke-width:2.11919;stroke-linecap:round;stroke-linejoin:round;stroke-dasharray:none" /><path
         d="m 127.41068,21.8648 c -0.15855,1.01e-4 -0.31546,0.03119 -0.46191,0.09186 -0.14634,0.06048 -0.27933,0.149453 -0.39156,0.261431 -0.11203,0.112087 -0.20084,0.245094 -0.26142,0.391648 -0.0606,0.146258 -0.0919,0.303216 -0.0918,0.461767 -9e-5,0.158442 0.0312,0.315464 0.0917,0.461804 0.0607,0.146448 0.14964,0.27944 0.26173,0.391475 0.11209,0.112036 0.24499,0.201034 0.39154,0.26161 0.14626,0.06066 0.30332,0.09175 0.46177,0.09183 l 3.76028,-6.7e-5 c 0.15845,8.7e-5 0.31517,-0.03111 0.46162,-0.09178 0.14645,-0.06067 0.27963,-0.149532 0.39166,-0.261619 0.11204,-0.112087 0.20085,-0.245094 0.26151,-0.391351 0.0606,-0.146554 0.0918,-0.303513 0.0916,-0.461876 9e-5,-0.158442 -0.031,-0.315355 -0.0917,-0.461803 -0.0607,-0.146449 -0.14935,-0.27952 -0.26143,-0.391556 -0.11209,-0.112035 -0.24529,-0.200954 -0.39154,-0.261609 -0.14656,-0.06058 -0.30333,-0.09175 -0.46188,-0.09165 z"
         fill="#515149"
         stroke="#363631"
         stroke-width="0.546283"
         stroke-miterlimit="3.99393"
         stroke-linecap="round"
         id="path35"
         style="stroke-width:1.05833;stroke-dasharray:none" /><path
         d="m 189.43773,15.35843 -46.92404,6.9e-5 -1e-5,10.779472 c 0,0 0.0944,1.270624 2.77732,1.929734 2.68319,0.659031 3.08403,-0.0938 4.73148,-0.752856 1.64744,-0.659059 3.09461,-1.932259 5.88168,-1.932355 2.95027,-1.6e-5 26.90279,0.0023 29.86911,-0.045 2.91831,-0.04701 3.62427,-1.545587 3.62418,-2.871169 -1.1e-4,-0.73619 0.0486,-3.218392 0.0403,-7.107896 z"
         fill="#46463f"
         stroke="#363631"
         stroke-width="1.09257"
         stroke-miterlimit="3.99393"
         id="path36"
         style="stroke-width:2.11931;stroke-linecap:round;stroke-linejoin:round;stroke-dasharray:none" /><path
         d="m 174.68777,31.602895 c -3.61573,0.556343 -10.08625,-0.131758 -11.38767,-0.36642 -0.006,0.21202 0.0891,0.75474 0.0891,0.75474 -0.13384,3.124872 -0.7604,10.977186 -1.03452,14.545374 -0.0664,0.798936 0.0217,1.06565 2.41815,1.598178 2.39662,0.532636 6.62398,0.665524 7.55591,0.599153 0.93205,-0.06656 1.26473,-1.198758 1.33123,-2.52996 0.0639,-1.274142 0.94469,-12.945211 0.99871,-14.164179 z"
         fill="#40403a"
         stroke="#363631"
         stroke-width="1.09257"
         stroke-miterlimit="3.99393"
         id="path37"
         style="fill:#464640;fill-opacity:1;stroke-width:2.11919;stroke-linecap:round;stroke-linejoin:round;stroke-dasharray:none"
         sodipodi:nodetypes="ccccccccc" /><path
         d="m 177.88303,25.405884 -16.50294,0.03289 c -0.71378,2.795804 2.18577,5.843463 2.26931,5.84362 l 0.21393,0.02411 c 0,0 0.25181,0.04047 0.3788,0.05946 0.12681,0.01888 0.25387,0.0369 0.38165,0.05409 0.12779,0.01719 0.25615,0.03296 0.38413,0.04851 0.1279,0.01525 0.25602,0.03013 0.38342,0.04409 0.1275,0.01377 0.25474,0.02714 0.38107,0.03949 0.25295,0.02461 0.50269,0.04611 0.74692,0.06543 0.24434,0.01914 0.48348,0.03601 0.71391,0.05062 0.23054,0.01442 0.45267,0.02649 0.66392,0.03703 0.21135,0.01035 0.41168,0.01985 0.59844,0.02727 0.18689,0.0067 0.35964,0.01284 0.51664,0.0176 0.31373,0.0091 0.56283,0.01523 0.7251,0.01953 0.16216,0.0045 0.37793,0.01414 0.63853,0.02463 0.13012,0.0058 0.27149,0.01027 0.42284,0.01528 0.15156,0.0046 0.31324,0.0091 0.4837,0.01135 0.17045,0.0023 0.34933,0.0034 0.53669,0.0024 0.0935,-6.06e-4 0.18938,-0.0023 0.2867,-0.0035 0.0975,-0.0023 0.1966,-0.0044 0.29755,-0.008 0.10085,-0.0034 0.20344,-0.0067 0.3075,-0.01176 0.10402,-0.0045 0.20978,-0.01034 0.31685,-0.01712 0.10708,-0.0068 0.21545,-0.01407 0.32514,-0.02235 0.10977,-0.008 0.22084,-0.01822 0.33291,-0.02888 0.11203,-0.01018 0.22497,-0.02234 0.33912,-0.03531 0.11415,-0.01297 0.22917,-0.02743 0.34532,-0.043 0,0 0.21258,-0.0295 0.31975,-0.04599 0,0 0.0263,-0.423732 0.0378,-0.443637 0.26627,-0.465966 2.35643,-2.263055 2.75578,-3.195015 0.39966,-0.932039 0.39952,-2.56286 0.39952,-2.56286 z"
         fill="#46463f"
         stroke="#363631"
         stroke-width="1.09257"
         stroke-miterlimit="3.99393"
         id="path38"
         style="stroke-width:2.11919;stroke-dasharray:none" /><path
         d="m 169.3023,29.563728 c 0.56793,-1.07e-4 1.02815,-0.46026 1.02823,-1.028081 8e-5,-0.567822 -0.46026,-1.028148 -1.02808,-1.028228 -0.56793,1.07e-4 -1.02815,0.46026 -1.02823,1.028081 10e-5,0.56793 0.46045,1.028256 1.02808,1.028228 z"
         fill="#65655c"
         stroke="#363630"
         stroke-width="0.546283"
         stroke-miterlimit="3.99393"
         stroke-linecap="round"
         id="path39"
         style="stroke-width:2.11919;stroke-dasharray:none" /><path
         d="m 196.76619,13.007457 -2.09469,-2.1e-5 V 6.8410058 l 2.21225,-0.047034 0.0944,-1.271047 c 0.047,-0.6824573 0.56484,-2.7065271 0.98843,-3.4597376 0.4236,-0.7532105 1.05904,-0.7531514 2.35353,-0.75317 1.29449,-1.86e-5 1.88304,0.1176887 2.02411,1.1062764 0.0693,0.4849422 0.0254,1.536745 -0.0292,2.8382535 -0.0566,1.350934 -0.12439,2.9705868 -0.0883,4.5049585 0.0705,3.0124974 0.11747,6.4721114 0.11747,6.4721114 l -5.57788,-0.02325 z"
         stroke="#363631"
         stroke-width="1.09257"
         stroke-miterlimit="3.99393"
         id="path40"
         style="fill:none;stroke-width:2.11919;stroke-linecap:round;stroke-linejoin:round;stroke-dasharray:none" /><path
         d="m 217.78319,12.283463 -15.54408,9.8e-5 -7e-5,12.133509 15.61266,-6.1e-5 0.41148,-0.308518 -1.1e-4,-11.379462 z"
         fill="#44443d"
         stroke="#363631"
         stroke-width="1.09257"
         stroke-miterlimit="3.99393"
         id="path41"
         style="stroke-width:2.11919;stroke-linecap:round;stroke-linejoin:round;stroke-dasharray:none" /><path
         d="m 251.45231,12.727297 -33.18972,-4.5e-5 1.1e-4,11.379462 33.18972,4.5e-5 z"
         fill="#505048"
         stroke="#363631"
         stroke-width="1.09257"
         stroke-miterlimit="3.99393"
         id="path42"
         style="stroke-width:2.11919;stroke-linecap:round;stroke-linejoin:round;stroke-dasharray:none"
         clip-path="url(#clipPath52)" /><path
         d="m 251.45253,12.726922 1.1e-4,11.379462 13.85381,-2.28e-4 -1.1e-4,-11.379462 z"
         fill="#4c4c44"
         stroke="#363631"
         stroke-width="1.09257"
         stroke-miterlimit="3.99393"
         id="path43"
         style="stroke-width:2.11919;stroke-linecap:round;stroke-linejoin:round;stroke-dasharray:none"
         clip-path="url(#clipPath51)" /><path
         d="m 114.87739,15.462228 -16.682052,8.7e-5 -1.054975,1.266527 17.502127,6.6e-4 c 4e-5,-0.497489 0.0797,-0.88567 0.2349,-1.267274 z"
         fill="#3b3b35"
         id="path44"
         style="stroke-width:2.11919;stroke-dasharray:none" /><path
         d="m 79.316798,9.9640436 c -2.422857,2.3403794 -6.075245,5.8692924 -6.028424,6.7644014 l 0.864753,12.714192 68.361133,-3.338632 -8.7e-4,-10.743679 -6.72997,-1.12e-4 V 6.9455999 l -52.110629,-8.31e-5 c 0,0 -1.530834,-0.00348 -2.329671,0.9950416 -0.23357,0.2918003 -1.024964,1.0562562 -2.026322,2.0234852 z"
         stroke="#363631"
         stroke-width="1.09257"
         stroke-miterlimit="3.99393"
         id="path45"
         style="fill:none;stroke-width:2.11919;stroke-dasharray:none" /><path
         d="m 73.288323,16.727665 23.849461,4.4e-4 1.054787,-1.266636 16.681949,1.01e-4 c 0.14802,-0.36523 0.36467,-0.723135 0.64483,-1.161551 0.13412,-0.209754 0.31306,-0.445962 0.50972,-0.705491 0.39933,-0.526857 0.87187,-1.150158 1.19193,-1.847214 0.16002,-0.348286 0.2959,-0.643911 0.39304,-0.812168 0.38728,-0.670776 1.27083,-0.670687 1.27083,-0.670687 l 11.05023,-1.51e-4 c 2.41235,1.45e-4 2.4124,2.412608 2.4124,2.412608 l 1.6e-4,4.051542 10.16628,2.8e-5 -7e-5,-1.36813 -6.72997,-1.13e-4 -1.9e-4,-8.4147225 -52.110435,2.53e-5 c 0,0 -1.530834,-0.00348 -2.329671,0.9950417 -0.23357,0.2918003 -1.024964,1.0562562 -2.026322,2.0234852 -2.423045,2.3402713 -6.075483,5.8684033 -6.028959,6.7635923 z"
         stroke="#363631"
         stroke-width="0.546283"
         stroke-miterlimit="3.99393"
         id="path46"
         style="fill:none;stroke-width:2.11919;stroke-dasharray:none" /><path
         fill-rule="evenodd"
         clip-rule="evenodd"
         d="m 132.34784,16.730314 -17.70783,1.1e-5 c -5e-5,-0.971769 0.30688,-1.532441 0.87971,-2.428341 0.40635,-0.635727 1.2236,-1.512195 1.70165,-2.552705 0.16013,-0.348474 0.2959,-0.643911 0.39304,-0.812168 0.38727,-0.670776 1.27082,-0.670687 1.27082,-0.670687 l 11.05024,-1.51e-4 c 2.41235,1.45e-4 2.41239,2.412608 2.41239,2.412608 z"
         fill="#79796d"
         stroke="#363631"
         stroke-width="0.546283"
         stroke-miterlimit="3.99393"
         id="path47"
         style="fill:#505049;fill-opacity:1;stroke-width:2.11919;stroke-dasharray:none" /><path
         d="m 131.90366,16.471859 c 0.9535,-8.5e-5 1.72657,-0.773121 1.72648,-1.726628 3e-5,-0.953694 -0.77301,-1.726757 -1.72671,-1.72678 -0.9535,8.4e-5 -1.72656,0.773121 -1.72659,1.726815 9e-5,0.953507 0.77312,1.726569 1.72682,1.726593 z"
         fill="#42423d"
         stroke="#363631"
         stroke-width="0.556169"
         stroke-miterlimit="3.99393"
         stroke-linecap="round"
         id="path48"
         style="stroke-width:2.11919;stroke-dasharray:none" /><path
         d="m 142.51789,16.730763 -69.226353,9e-6 0.865238,12.714221 68.360945,-3.338741 z"
         stroke="#363631"
         stroke-width="0.546283"
         stroke-miterlimit="3.99393"
         id="path49"
         style="fill:none;stroke-width:2.11919;stroke-dasharray:none" /><g
         id="g56"
         transform="translate(0,-0.27602231)"><circle
           style="fill:#85857a;fill-opacity:1;fill-rule:evenodd;stroke:none;stroke-width:1.27783;stroke-linecap:round;stroke-linejoin:round;stroke-miterlimit:29;stroke-dasharray:none"
           id="path55-8-2"
           cx="96.757401"
           cy="26.404831"
           r="0.89667588" /><circle
           style="fill:#85857a;fill-opacity:1;fill-rule:evenodd;stroke:none;stroke-width:1.27783;stroke-linecap:round;stroke-linejoin:round;stroke-miterlimit:29;stroke-dasharray:none"
           id="path55-8-2-1"
           cx="104.93562"
           cy="24.467716"
           r="0.89667588" /><circle
           style="fill:#85857a;fill-opacity:1;fill-rule:evenodd;stroke:none;stroke-width:1.27783;stroke-linecap:round;stroke-linejoin:round;stroke-miterlimit:29;stroke-dasharray:none"
           id="path55-8-2-7"
           cx="111.50395"
           cy="25.664064"
           r="0.89667588" /></g><path
         fill-rule="evenodd"
         clip-rule="evenodd"
         d="m 117.09254,18.636289 c -1.3054,-0.261671 -1.97809,0.214776 -2.51993,0.54743 -0.54184,0.332654 -1.0837,0.155769 -1.0837,0.155769 l -8.5802,-1.761896 c -1.69705,-0.340068 -2.66312,-0.09185 -4.10594,-0.008 -1.442548,0.0843 -2.457971,1.281017 -3.274158,1.79655 -0.816265,0.515237 -1.345321,0.28365 -4.967898,-0.442258 -1.216643,-0.141321 -2.338273,0.673842 -2.579387,1.874683 -0.255456,1.274687 0.59989,2.474601 1.874685,2.729869 0.148977,0.02993 0.63138,0.05956 0.779333,0.0596 l 30.872525,-1.221359 0.47097,-2.350093 z"
         fill="#4c4c44"
         stroke="#363631"
         stroke-width="0.546283"
         stroke-miterlimit="3.99393"
         stroke-linecap="round"
         id="path50"
         style="fill:#5d5d54;fill-opacity:1;stroke-width:2.11931;stroke-linejoin:round;stroke-dasharray:none" /><circle
         style="fill:#505049;fill-opacity:1;fill-rule:evenodd;stroke:none;stroke-width:1.90064;stroke-linecap:round;stroke-linejoin:round;stroke-miterlimit:29;stroke-dasharray:none"
         id="path55"
         cx="76.815331"
         cy="26.60956"
         r="1.3337111" /><circle
         style="fill:#505049;fill-opacity:1;fill-rule:evenodd;stroke:none;stroke-width:1.47451;stroke-linecap:round;stroke-linejoin:round;stroke-miterlimit:29;stroke-dasharray:none"
         id="path55-8"
         cx="76.243561"
         cy="19.253164"
         r="1.034687" /><path
         style="fill:#9e9e94;fill-opacity:1;fill-rule:evenodd;stroke:#363631;stroke-width:1.05833;stroke-linecap:round;stroke-linejoin:round;stroke-miterlimit:29;stroke-dasharray:none;stroke-opacity:1"
         d="m 74.650232,21.411839 0.20917,3.068811 5.330043,-0.363292 c 0,0 1.600612,-0.323589 1.51058,-1.644494 -0.09003,-1.320904 -1.719747,-1.424318 -1.719747,-1.424318 z"
         id="path56"
         sodipodi:nodetypes="ccczcc" /><circle
         style="fill:#505049;fill-opacity:1;fill-rule:evenodd;stroke:none;stroke-width:1.08116;stroke-linecap:round;stroke-linejoin:round;stroke-miterlimit:29;stroke-dasharray:none"
         id="path55-8-1"
         cx="79.936974"
         cy="22.623852"
         r="0.75866473" /><circle
         style="fill:#505049;fill-opacity:1;fill-rule:evenodd;stroke:none;stroke-width:1.47451;stroke-linecap:round;stroke-linejoin:round;stroke-miterlimit:29;stroke-dasharray:none"
         id="path55-8-7"
         cx="86.817131"
         cy="22.36274"
         r="1.034687" /><path
         style="fill:#41413d;fill-opacity:1;fill-rule:evenodd;stroke:#363631;stroke-width:1.05833;stroke-linecap:round;stroke-linejoin:round;stroke-miterlimit:29;stroke-dasharray:none;stroke-opacity:1"
         d="m 138.2687,75.41226 5.78645,-2.968982 1.79701,3.502324 -6.66202,3.418231 z"
         id="path57" /><path
         style="fill:#3f3f3c;fill-opacity:1;fill-rule:evenodd;stroke:none;stroke-width:1.05833;stroke-linecap:round;stroke-linejoin:round;stroke-miterlimit:29;stroke-dasharray:none;stroke-opacity:1"
         d="m 78.688958,30.317532 c 0,0 3.946012,2.250407 2.788594,8.94164 0,0 -10.475136,19.757276 -9.587267,20.269887 l -1.824532,-1.053394 c 0,0 0.0029,-0.898378 0.458291,-1.548969 m 0,0 9.140801,-17.565952 c 0,0 2.11442,-6.180613 -3.155365,-8.587799 l -0.06506,-0.390354 2.244538,-0.06506"
         id="path58"
         sodipodi:nodetypes="cccccccccc" /><path
         style="fill:#3f3f3c;fill-opacity:1;fill-rule:evenodd;stroke:none;stroke-width:1.05833;stroke-linecap:round;stroke-linejoin:round;stroke-miterlimit:29;stroke-dasharray:none;stroke-opacity:1"
         d="m 92.881504,29.626393 0.09201,4.784386 c 0,0 -2.92726,-0.198398 -4.071329,4.071329 l -6.095493,19.16055 c 0,0 -0.230019,3.496283 0.50604,4.784387 m 0,0.09201 1.656134,-0.460037 c 0,0 -0.782063,-2.576208 -0.460037,-3.95632 l 5.842472,-19.689591 c 0,0 1.058086,-3.128252 4.094331,-2.85223 l -0.230018,-6.026487 -1.33411,0.09201"
         id="path59"
         sodipodi:nodetypes="cccccccccccc" /><circle
         style="fill:#85857a;fill-opacity:1;fill-rule:evenodd;stroke:none;stroke-width:1.27783;stroke-linecap:round;stroke-linejoin:round;stroke-miterlimit:29;stroke-dasharray:none"
         id="path55-8-2-9"
         cx="119.37827"
         cy="33.779491"
         r="0.89667588" /><path
         style="fill:#363631;fill-opacity:1;fill-rule:evenodd;stroke:none;stroke-width:2.11931;stroke-linecap:round;stroke-linejoin:round;stroke-miterlimit:29;stroke-dasharray:none;stroke-opacity:1"
         d="m 143.52033,23.486328 h 45.21606 v -0.975886 h -45.21606 z"
         id="path60"
         sodipodi:nodetypes="ccccc" /><path
         style="fill:#363631;fill-opacity:1;fill-rule:evenodd;stroke:none;stroke-width:2.11931;stroke-linecap:round;stroke-linejoin:round;stroke-miterlimit:29;stroke-dasharray:none;stroke-opacity:1"
         d="m 143.52033,21.696698 h 45.21606 v -0.975886 h -45.21606 z"
         id="path60-5"
         sodipodi:nodetypes="ccccc" /><path
         style="fill:#363631;fill-opacity:1;fill-rule:evenodd;stroke:none;stroke-width:2.11931;stroke-linecap:round;stroke-linejoin:round;stroke-miterlimit:29;stroke-dasharray:none;stroke-opacity:1"
         d="m 143.52033,19.907067 h 45.21606 v -0.975886 h -45.21606 z"
         id="path60-2"
         sodipodi:nodetypes="ccccc" /><path
         style="fill:#363631;fill-opacity:1;fill-rule:evenodd;stroke:none;stroke-width:2.11931;stroke-linecap:round;stroke-linejoin:round;stroke-miterlimit:29;stroke-dasharray:none;stroke-opacity:1"
         d="m 143.52033,18.117437 h 45.21606 v -0.975886 h -45.21606 z"
         id="path60-1"
         sodipodi:nodetypes="ccccc" /><path
         style="fill:#363631;fill-opacity:1;fill-rule:evenodd;stroke:none;stroke-width:2.11931;stroke-linecap:round;stroke-linejoin:round;stroke-miterlimit:29;stroke-dasharray:none;stroke-opacity:1"
         d="m 179.11577,15.437851 v 6.180612 h 0.97588 v -6.180612 z"
         id="path60-7"
         sodipodi:nodetypes="ccccc" /><path
         style="fill:#363631;fill-opacity:1;fill-rule:evenodd;stroke:none;stroke-width:2.11931;stroke-linecap:round;stroke-linejoin:round;stroke-miterlimit:29;stroke-dasharray:none;stroke-opacity:1"
         d="m 176.11716,15.437851 v 6.180612 h 0.97588 v -6.180612 z"
         id="path60-7-7"
         sodipodi:nodetypes="ccccc" /><path
         style="fill:#363631;fill-opacity:1;fill-rule:evenodd;stroke:none;stroke-width:2.11931;stroke-linecap:round;stroke-linejoin:round;stroke-miterlimit:29;stroke-dasharray:none;stroke-opacity:1"
         d="m 182.11438,15.437851 v 6.180612 h 0.97588 v -6.180612 z"
         id="path60-7-9"
         sodipodi:nodetypes="ccccc" /><path
         style="fill:#363631;fill-opacity:1;fill-rule:evenodd;stroke:none;stroke-width:2.11931;stroke-linecap:round;stroke-linejoin:round;stroke-miterlimit:29;stroke-dasharray:none;stroke-opacity:1"
         d="m 185.11299,15.437851 v 6.180612 h 0.97588 v -6.180612 z"
         id="path60-7-0"
         sodipodi:nodetypes="ccccc" /><path
         style="fill:#4a4a42;fill-opacity:1;fill-rule:evenodd;stroke:none;stroke-width:2.11931;stroke-linecap:round;stroke-linejoin:round;stroke-miterlimit:29;stroke-dasharray:none;stroke-opacity:1"
         d="m 156.46709,7.0914397 h 31.81389 V 6.1155535 l -8.19745,-0.2277066 h -23.55138 z"
         id="path61"
         sodipodi:nodetypes="cccccc" /><path
         style="fill:#3c3c38;fill-opacity:1;fill-rule:evenodd;stroke:none;stroke-width:2.11931;stroke-linecap:round;stroke-linejoin:round;stroke-miterlimit:29;stroke-dasharray:none;stroke-opacity:1"
         d="m 165.42937,32.616634 -1.05809,14.353162 -0.92007,-0.276024 1.01208,-14.261153 z"
         id="path62" /><path
         style="fill:#3c3c38;fill-opacity:1;fill-rule:evenodd;stroke:none;stroke-width:2.11931;stroke-linecap:round;stroke-linejoin:round;stroke-miterlimit:29;stroke-dasharray:none;stroke-opacity:1"
         d="m 172.53174,32.90218 -1.12103,14.792999 1.15291,-0.0064 1.01803,-14.857282 z"
         id="path62-0"
         sodipodi:nodetypes="ccccc" /><path
         id="path63"
         style="fill:#3f3f3c;fill-opacity:1;fill-rule:evenodd;stroke:#363631;stroke-width:1.05833;stroke-linecap:round;stroke-linejoin:round;stroke-miterlimit:29;stroke-dasharray:none;stroke-opacity:1"
         d="M 150.54005,2.3297885 C 149.99727,1.7895421 149.1283,1.7634878 148.554,2.2701175 l -0.005,-0.00488 -0.0643,0.064249 -5.32955,5.3295484 c 0,0 -0.4565,0.6993025 0.0964,1.2521619 0.55285,0.5528455 1.25217,0.096361 1.25217,0.096361 l 4.35539,-4.3553917 c 0.5593,0.282266 1.23655,0.1742388 1.68028,-0.2680261 0.5674,-0.5673267 0.56752,-1.4871821 2.6e-4,-2.0546518 z"
         sodipodi:nodetypes="ccccczcccc" /></g></g></svg>
