<svg xmlns="http://www.w3.org/2000/svg" width="131.777" height="23.196" viewBox="0 0 34.866 6.137"><path d="M-134.459 25.409h2.51c.031 0 .055.03.055.065v1.678c0 .036-.024.065-.056.065h-2.509c-.032 0-.056-.03-.056-.065v-1.675c0-.036.024-.065.056-.065z" class="cls-12" style="fill:#57574f;fill-opacity:1;stroke:#181816;stroke-width:.837684px;stroke-linecap:round;stroke-linejoin:round;stroke-opacity:1" transform="translate(158.924 -23.63)"/><path d="m-158.469 25.587.017 1.452h8.91l-.017-1.452z" style="fill:#5c5c53;fill-opacity:1;stroke:#181816;stroke-width:.79375;stroke-linejoin:round;stroke-dasharray:none;stroke-opacity:1" transform="translate(158.924 -23.63)"/><path d="m-150.87 25.286.017 2.054h1.502l-.018-2.054z" style="fill:#4d4d46;fill-opacity:1;stroke:#181816;stroke-width:.79375;stroke-linejoin:round;stroke-dasharray:none;stroke-opacity:1" transform="translate(158.924 -23.63)"/><path d="m-134.762 24.999.018 2.584h1.501l-.017-2.584z" style="fill:#505049;fill-opacity:1;stroke:#181816;stroke-width:.79375;stroke-linejoin:round;stroke-dasharray:none;stroke-opacity:1" transform="translate(158.924 -23.63)"/><path d="M-141.83 27.466v1.935c-.276.131-.576.15-.914 0V27.45z" style="fill:#363630;fill-opacity:1;stroke:#181816;stroke-width:.529167;stroke-linecap:round;stroke-linejoin:round;stroke-dasharray:none;stroke-opacity:1" transform="translate(158.924 -23.63)"/><path d="m-149.48 24.736.017 3.039 1.107.529h7.803l-.017-4.097h-7.82z" style="fill:#505049;fill-opacity:1;stroke:none;stroke-width:.79375;stroke-linejoin:round;stroke-dasharray:none;stroke-opacity:1" transform="translate(158.924 -23.63)"/><path d="M-140.766 25.012h-7.324l-.55.28v2.07l.5.252h7.41z" style="fill:#6b6b61;fill-opacity:1;stroke:none;stroke-width:.79375;stroke-linecap:butt;stroke-linejoin:round;stroke-dasharray:none;stroke-opacity:1" transform="translate(158.924 -23.63)"/><path d="M-140.272 26.313h-7.614" style="fill:#57574f;fill-opacity:1;stroke:#42423d;stroke-width:1.32292;stroke-linecap:butt;stroke-linejoin:round;stroke-dasharray:none;stroke-opacity:1" transform="translate(158.924 -23.63)"/><path d="M-147.762 25.646v1.334m1.438-1.334v1.334m1.442-1.334v1.334m1.442-1.334v1.334m1.443-1.334v1.334m1.443-1.334v1.334" style="fill:#57574f;fill-opacity:1;stroke:#282825;stroke-width:.79375;stroke-linecap:butt;stroke-linejoin:round;stroke-dasharray:none;stroke-opacity:1" transform="translate(158.924 -23.63)"/><path d="M-140.517 25.648h-7.566v1.33h7.567z" style="fill:none;fill-opacity:1;stroke:#181816;stroke-width:.396875;stroke-linecap:butt;stroke-linejoin:miter;stroke-dasharray:none;stroke-opacity:1" transform="translate(158.924 -23.63)"/><path d="M-131.897 24.838h1.671l.175.22h5.5c.032 0 .056.029.056.064v2.333c0 .036-.024.065-.056.065h-5.434l-.184.184h-1.728c-.032 0-.056-.029-.056-.064v-2.734c0-.036.024-.065.056-.065z" class="cls-12" style="fill:#44443d;fill-opacity:1;stroke:none;stroke-width:.837684px;stroke-linecap:round;stroke-linejoin:round;stroke-opacity:1" transform="translate(158.924 -23.63)"/><path d="M-130.054 25.181v2.211h4.142v-2.176z" style="fill:#505048;fill-opacity:1;stroke:none;stroke-width:.396875;stroke-linejoin:round;stroke-dasharray:none;stroke-opacity:1" transform="translate(158.924 -23.63)"/><path d="M-131.879 24.88h1.54l.555.253h5.252c.031 0 .055.03.055.065v2.248c0 .035-.024.064-.055.064h-5.186l-.564.236h-1.597c-.031 0-.055-.03-.055-.064v-2.735c0-.035.024-.064.055-.064z" class="cls-12" style="fill:none;fill-opacity:1;stroke:#181816;stroke-width:.837684px;stroke-linecap:round;stroke-linejoin:round;stroke-opacity:1" transform="translate(158.924 -23.63)"/><path d="m-139.549 24.027.018 4.538 5.231-.561-.017-3.48z" style="fill:#404040;fill-opacity:1;stroke:#171717;stroke-width:.79375;stroke-linejoin:round;stroke-dasharray:none;stroke-opacity:1" transform="translate(158.924 -23.63)"/><path d="M-140.797 24.46h.756l.328.529h1.834v2.554h-1.53l-.445.53h-.943z" style="fill:#5d5d55;fill-opacity:1;stroke:none;stroke-width:.79375;stroke-linecap:butt;stroke-linejoin:round;stroke-dasharray:none;stroke-opacity:1" transform="translate(158.924 -23.63)"/><path d="m-149.362 24.794.018 3.038 1.106.53h8.259l.725-.877h1.582l-.017-2.344h-1.636l-.701-.876h-8.247z" style="fill:none;fill-opacity:1;stroke:#181816;stroke-width:.79375;stroke-linejoin:round;stroke-dasharray:none;stroke-opacity:1" transform="translate(158.924 -23.63)"/><path d="m-158.527 25.342.018 1.98c.002.676.89.741 1.402 0l-.018-1.98c-.462-.614-1.365-.775-1.402 0z" style="fill:#474741;fill-opacity:1;stroke:#181816;stroke-width:.79375;stroke-linejoin:round;stroke-dasharray:none;stroke-opacity:1" transform="translate(158.924 -23.63)"/><path d="M-129.938 25.084v2.484m3.877-2.567v2.484" style="fill:#53534b;fill-opacity:1;stroke:#181816;stroke-width:.79375;stroke-linejoin:round;stroke-dasharray:none;stroke-opacity:1" transform="translate(158.924 -23.63)"/><path d="M-140.548 24.311v3.918" style="fill:#505049;fill-opacity:1;stroke:#181816;stroke-width:.79375;stroke-linecap:butt;stroke-linejoin:round;stroke-dasharray:none;stroke-opacity:1" transform="translate(158.924 -23.63)"/><path d="m-137.658 28.364 3.358-.359-.018-3.48-3.37-.318z" style="fill:#3d3d3d;fill-opacity:1;stroke:#171717;stroke-width:.79375;stroke-linejoin:round;stroke-dasharray:none;stroke-opacity:1" transform="translate(158.924 -23.63)"/><path d="M-138.483 25.698v1.23c0 .027-.027.027-.027.027h-.74c-.027 0-.027-.027-.027-.027v-.238h-.926v.291c0 .027-.026.027-.026.027h-.344c-.027 0-.027-.027-.027-.027v-.29h-.476c-.027 0-.027-.027-.027-.027v-.702s0-.026.027-.026h.476v-.291s0-.026.027-.026h.344s.026 0 .026.026v.291h.926v-.238s0-.027.026-.027h.741s.027 0 .027.027z" class="cls-8" style="fill:#707065;fill-rule:evenodd;stroke:#171715;stroke-width:.396875px;stroke-linecap:round;stroke-miterlimit:15.1181" transform="translate(158.924 -23.63)"/></svg>