<?xml version="1.0" encoding="UTF-8" standalone="no"?>
<svg
   id="Layer_2"
   data-name="Layer 2"
   width="131.77689"
   height="23.196234"
   viewBox="0 0 131.77689 23.196234"
   version="1.1"
   sodipodi:docname="pp19_world.svg"
   inkscape:version="1.3.2 (091e20e, 2023-11-25, custom)"
   xmlns:inkscape="http://www.inkscape.org/namespaces/inkscape"
   xmlns:sodipodi="http://sodipodi.sourceforge.net/DTD/sodipodi-0.dtd"
   xmlns="http://www.w3.org/2000/svg"
   xmlns:svg="http://www.w3.org/2000/svg">
  <sodipodi:namedview
     id="namedview6"
     pagecolor="#505050"
     bordercolor="#ffffff"
     borderopacity="1"
     inkscape:showpageshadow="0"
     inkscape:pageopacity="0"
     inkscape:pagecheckerboard="1"
     inkscape:deskcolor="#d1d1d1"
     inkscape:zoom="3.9528429"
     inkscape:cx="32.255267"
     inkscape:cy="12.775615"
     inkscape:window-width="2560"
     inkscape:window-height="1417"
     inkscape:window-x="-8"
     inkscape:window-y="-8"
     inkscape:window-maximized="1"
     inkscape:current-layer="Layer_2" />
  <defs
     id="defs1">
    <style
       id="style1">
      .cls-1, .cls-2, .cls-3, .cls-4, .cls-5, .cls-6, .cls-7, .cls-8, .cls-9 {
        stroke: #171715;
      }

      .cls-1, .cls-2, .cls-3, .cls-4, .cls-5, .cls-7, .cls-9 {
        stroke-width: 3px;
      }

      .cls-1, .cls-2, .cls-3, .cls-4, .cls-6, .cls-7, .cls-8, .cls-9 {
        stroke-linecap: round;
        stroke-miterlimit: 15.1181;
      }

      .cls-1, .cls-2, .cls-3, .cls-4, .cls-7, .cls-8, .cls-9 {
        fill-rule: evenodd;
      }

      .cls-1, .cls-6 {
        fill: none;
      }

      .cls-2 {
        fill: #5c5c53;
      }

      .cls-3 {
        fill: #494944;
      }

      .cls-4 {
        fill: #63635b;
      }

      .cls-5 {
        fill: #505048;
        stroke-miterlimit: 3.9939;
      }

      .cls-10 {
        fill: #171715;
      }

      .cls-11 {
        fill: #4c4c44;
      }

      .cls-6, .cls-8 {
        stroke-width: 1.5px;
      }

      .cls-7 {
        fill: #565650;
      }

      .cls-8 {
        fill: #707065;
      }

      .cls-9 {
        fill: #40403a;
      }
    </style>
  </defs>
  <g
     id="g143"
     transform="matrix(3.7795276,0,0,3.7795276,600.65691,-89.309863)">
    <path
       id="rect149-2-0"
       class="cls-12"
       d="m -134.45901,25.408975 h 2.5093 c 0.0318,0 0.0557,0.0294 0.0557,0.06468 v 1.678785 c 0,0.03528 -0.0239,0.06468 -0.0557,0.06468 h -2.5093 c -0.0318,0 -0.0557,-0.0294 -0.0557,-0.06468 v -1.675844 c 0,-0.03528 0.0239,-0.06468 0.0557,-0.06468 z"
       style="fill:#57574f;fill-opacity:1;stroke:#181816;stroke-width:0.837684px;stroke-linecap:round;stroke-linejoin:round;stroke-opacity:1"
       sodipodi:nodetypes="cssssssscc" />
    <path
       style="fill:#5c5c53;fill-opacity:1;stroke:#181816;stroke-width:0.79375;stroke-linejoin:round;stroke-dasharray:none;stroke-opacity:1"
       d="m -158.46903,25.587442 0.0175,1.451211 h 8.91002 l -0.0176,-1.451213 z"
       id="path130"
       sodipodi:nodetypes="ccccc" />
    <path
       style="fill:#4d4d46;fill-opacity:1;stroke:#181816;stroke-width:0.79375;stroke-linejoin:round;stroke-dasharray:none;stroke-opacity:1"
       d="m -150.87018,25.285626 0.0175,2.054844 h 1.50169 l -0.0176,-2.054846 z"
       id="path130-7"
       sodipodi:nodetypes="ccccc" />
    <path
       style="fill:#4a4a43;fill-opacity:1;stroke:#181816;stroke-width:0.79375;stroke-linejoin:round;stroke-dasharray:none;stroke-opacity:1"
       d="m -134.78457,24.99897 0.0175,2.584011 h 1.50169 l -0.0176,-2.584013 z"
       id="path130-7-8"
       sodipodi:nodetypes="ccccc" />
    <path
       style="fill:#363630;fill-opacity:1;stroke:#181816;stroke-width:0.529167;stroke-linecap:round;stroke-linejoin:round;stroke-dasharray:none;stroke-opacity:1"
       d="m -141.83072,27.466232 v 1.93476 c -0.27526,0.131114 -0.57561,0.149274 -0.91318,0 v -1.9513 z"
       id="path127-2-9"
       sodipodi:nodetypes="ccccc" />
    <path
       style="fill:#6b6b61;fill-opacity:1;stroke:none;stroke-width:0.79375;stroke-linejoin:round;stroke-dasharray:none;stroke-opacity:1"
       d="m -149.48007,24.736092 0.0175,3.03871 1.10676,0.529167 h 7.80326 l -0.0176,-4.097046 -7.82077,2e-6 z"
       id="path130-73-5"
       sodipodi:nodetypes="ccccccc" />
    <path
       style="fill:#57574f;fill-opacity:1;stroke:#42423d;stroke-width:1.32292;stroke-linecap:butt;stroke-linejoin:round;stroke-dasharray:none;stroke-opacity:1"
       d="m -140.27217,26.313047 h -7.61429"
       id="path143"
       sodipodi:nodetypes="cc" />
    <path
       style="fill:#505049;fill-opacity:1;stroke:none;stroke-width:0.428902;stroke-linecap:round;stroke-linejoin:round;stroke-dasharray:none;stroke-opacity:1"
       d="m -149.04481,25.031768 h 8.9068 v -0.763507 h -8.00483 z"
       id="path139" />
    <path
       style="fill:#505049;fill-opacity:1;stroke:none;stroke-width:0.396875;stroke-linecap:round;stroke-linejoin:round;stroke-dasharray:none;stroke-opacity:1"
       d="m -149.47467,24.690309 v 3.144746 l 1.29267,0.529166 v -0.778652 l -0.43702,-0.197458 v -2.139553 l 0.43702,-0.212401 v -0.880112 z"
       id="path139-3"
       sodipodi:nodetypes="ccccccccc" />
    <path
       style="fill:#505049;fill-opacity:1;stroke:none;stroke-width:0.428902;stroke-linecap:round;stroke-linejoin:round;stroke-dasharray:none;stroke-opacity:1"
       d="m -149.20475,27.591535 h 8.9068 v 0.763507 h -8.00484 z"
       id="path139-1" />
    <path
       style="fill:#57574f;fill-opacity:1;stroke:#282825;stroke-width:0.79375;stroke-linecap:butt;stroke-linejoin:round;stroke-dasharray:none;stroke-opacity:1"
       d="m -147.76235,25.645952 v 1.33419"
       id="path141"
       sodipodi:nodetypes="cc" />
    <path
       style="fill:#57574f;fill-opacity:1;stroke:#282825;stroke-width:0.79375;stroke-linecap:butt;stroke-linejoin:round;stroke-dasharray:none;stroke-opacity:1"
       d="m -146.32392,25.645952 v 1.33419"
       id="path141-2"
       sodipodi:nodetypes="cc" />
    <path
       style="fill:#57574f;fill-opacity:1;stroke:#282825;stroke-width:0.79375;stroke-linecap:butt;stroke-linejoin:round;stroke-dasharray:none;stroke-opacity:1"
       d="m -144.88212,25.645952 v 1.33419"
       id="path141-2-7"
       sodipodi:nodetypes="cc" />
    <path
       style="fill:#57574f;fill-opacity:1;stroke:#282825;stroke-width:0.79375;stroke-linecap:butt;stroke-linejoin:round;stroke-dasharray:none;stroke-opacity:1"
       d="m -143.43906,25.645952 v 1.33419"
       id="path141-2-6"
       sodipodi:nodetypes="cc" />
    <path
       style="fill:#57574f;fill-opacity:1;stroke:#282825;stroke-width:0.79375;stroke-linecap:butt;stroke-linejoin:round;stroke-dasharray:none;stroke-opacity:1"
       d="m -141.99726,25.645952 v 1.33419"
       id="path141-2-7-5"
       sodipodi:nodetypes="cc" />
    <path
       style="fill:#57574f;fill-opacity:1;stroke:#282825;stroke-width:0.79375;stroke-linecap:butt;stroke-linejoin:round;stroke-dasharray:none;stroke-opacity:1"
       d="m -140.55438,25.645952 v 1.33419"
       id="path141-2-7-5-0"
       sodipodi:nodetypes="cc" />
    <path
       style="fill:none;fill-opacity:1;stroke:#181816;stroke-width:0.79375;stroke-linejoin:round;stroke-dasharray:none;stroke-opacity:1"
       d="m -149.36189,24.793693 0.0175,3.03871 1.10676,0.529167 h 7.80326 l -0.0176,-4.097046 -7.82077,2e-6 z"
       id="path130-73"
       sodipodi:nodetypes="ccccccc" />
    <path
       id="rect149-2-0-4-8"
       class="cls-12"
       d="m -131.89726,24.837986 h 1.67121 l 0.17554,0.219399 h 5.49953 c 0.0318,0 0.0557,0.0294 0.0557,0.06468 v 2.333424 c 0,0.03528 -0.0239,0.06468 -0.0557,0.06468 h -5.43371 l -0.18424,0.184295 h -1.72826 c -0.0318,0 -0.0557,-0.0294 -0.0557,-0.06468 v -2.734177 c 0,-0.03528 0.0239,-0.06468 0.0557,-0.06468 z"
       style="fill:#44443d;fill-opacity:1;stroke:none;stroke-width:0.837684px;stroke-linecap:round;stroke-linejoin:round;stroke-opacity:1"
       sodipodi:nodetypes="cccssssccssscc" />
    <path
       style="fill:#505048;fill-opacity:1;stroke:none;stroke-width:0.396875;stroke-linejoin:round;stroke-dasharray:none;stroke-opacity:1"
       d="m -130.05387,25.18096 v 2.211538 h 4.14225 v -2.176435 z"
       id="path135" />
    <path
       id="rect149-2-0-4"
       class="cls-12"
       d="m -131.87866,24.879808 h 1.53957 l 0.5554,0.253493 h 5.25131 c 0.0318,0 0.0557,0.0294 0.0557,0.06468 v 2.247684 c 0,0.03528 -0.0239,0.06468 -0.0557,0.06468 h -5.18549 l -0.5641,0.235941 h -1.59662 c -0.0318,0 -0.0557,-0.0294 -0.0557,-0.06468 v -2.734177 c 0,-0.03528 0.0239,-0.06468 0.0557,-0.06468 z"
       style="fill:none;fill-opacity:1;stroke:#181816;stroke-width:0.837684px;stroke-linecap:round;stroke-linejoin:round;stroke-opacity:1"
       sodipodi:nodetypes="cccssssccssscc" />
    <path
       style="fill:#40403a;fill-opacity:1;stroke:#181816;stroke-width:0.79375;stroke-linejoin:round;stroke-dasharray:none;stroke-opacity:1"
       d="m -139.54889,24.026772 0.0175,4.538451 5.23155,-0.56166 -0.0176,-3.480121 z"
       id="path130-73-8"
       sodipodi:nodetypes="ccccc" />
    <path
       style="fill:#53534b;fill-opacity:1;stroke:#181816;stroke-width:0.79375;stroke-linejoin:round;stroke-dasharray:none;stroke-opacity:1"
       d="m -140.33303,24.25893 0.0175,4.097044 h 2.12224 l -0.0176,-4.097046 z"
       id="path130-73-4"
       sodipodi:nodetypes="ccccc" />
    <path
       style="fill:#474741;fill-opacity:1;stroke:#181816;stroke-width:0.79375;stroke-linejoin:round;stroke-dasharray:none;stroke-opacity:1"
       d="m -158.52693,25.341562 0.0175,1.980377 c 0.002,0.676423 0.89082,0.741238 1.4024,0 l -0.0176,-1.980379 c -0.46262,-0.614033 -1.36582,-0.774473 -1.4023,2e-6 z"
       id="path130-6"
       sodipodi:nodetypes="ccccc" />
    <path
       style="fill:#53534b;fill-opacity:1;stroke:#181816;stroke-width:0.79375;stroke-linejoin:round;stroke-dasharray:none;stroke-opacity:1"
       d="m -129.93844,25.084424 v 2.483593"
       id="path133" />
    <path
       style="fill:#53534b;fill-opacity:1;stroke:#181816;stroke-width:0.79375;stroke-linejoin:round;stroke-dasharray:none;stroke-opacity:1"
       d="m -126.0611,25.001325 v 2.483593"
       id="path133-6" />
    <path
       style="fill:#57574f;fill-opacity:1;stroke:#181816;stroke-width:0.79375;stroke-linecap:round;stroke-linejoin:round;stroke-dasharray:none;stroke-opacity:1"
       d="m -131.93185,26.307916 h -0.41247"
       id="path137"
       sodipodi:nodetypes="cc" />
    <path
       class="cls-8"
       d="m -138.30123,25.663506 v 1.230312 c 0,0.02646 -0.0265,0.02646 -0.0265,0.02646 h -0.74084 c -0.0265,0 -0.0265,-0.02646 -0.0265,-0.02646 v -0.238125 h -0.92605 v 0.291042 c 0,0.02646 -0.0264,0.02646 -0.0264,0.02646 h -0.34396 c -0.0265,0 -0.0265,-0.02646 -0.0265,-0.02646 v -0.291042 h -0.47625 c -0.0265,0 -0.0265,-0.02646 -0.0265,-0.02646 v -0.701146 c 0,0 0,-0.02646 0.0265,-0.02646 h 0.47625 v -0.291042 c 0,0 0,-0.02646 0.0265,-0.02646 h 0.34396 c 0,0 0.0264,0 0.0264,0.02646 v 0.291042 h 0.92605 v -0.238125 c 0,0 0,-0.02646 0.0265,-0.02646 h 0.74084 c 0,0 0.0265,0 0.0265,0.02646 z"
       id="path5-4-1"
       style="fill:#707065;fill-rule:evenodd;stroke:#171715;stroke-width:0.396875px;stroke-linecap:round;stroke-miterlimit:15.1181" />
  </g>
</svg>
