<svg xmlns="http://www.w3.org/2000/svg" xml:space="preserve" width="110" height="110" viewBox="0 0 29.104 29.104"><g transform="matrix(.31974 -.08648 .08701 .29365 -.628 9.562)"><path d="M8.601 57.857v1.652h25.79l-3.303-3.303L29 57.857z" style="fill:#46464a;fill-opacity:1;fill-rule:evenodd;stroke:#323235;stroke-width:2.11667;stroke-linecap:round;stroke-linejoin:round;stroke-miterlimit:29;stroke-dasharray:none;stroke-opacity:1"/><path d="M6.94 7.02c-1.063-.263-1.74-.393-2.688.022l.105-.02L3.2 6.91l-.394.884c-.047.058-.697.586-.868.673l.182 1.047-.374.683.74.904.146.094c.209.434.39.266.796.523.551.347 1.214.47 1.854.348.724.181 1.626.488 2.572 1.011 0 0 3.987.508 2.074-3.285 0 0-.565-1.08-1.927-2.042-.307-.217-1.062-.729-1.062-.729" style="fill:#3a3a3f;fill-opacity:1;fill-rule:evenodd;stroke:#323235;stroke-width:2.11667;stroke-linecap:round;stroke-linejoin:round;stroke-miterlimit:29;stroke-dasharray:none;stroke-opacity:1"/><path d="M41.349 20.126c1.84 6.866 9.518 8.351 9.251 8.275-2.496-.79-4.403-3.272-5.016-5.582-.846-3.185-1.222-2.838.652-3.722 0 0-4.704-.984-4.887 1.029" style="fill:#616168;fill-opacity:1;fill-rule:evenodd;stroke:#323235;stroke-width:2.11667;stroke-linecap:round;stroke-linejoin:round;stroke-miterlimit:29;stroke-dasharray:none;stroke-opacity:1"/><path d="M20.938 1.762h-2.623l-.777 1.457S10.933 5.84 6.756 12.155L1.413 17.79s-1.56 3.217 2.137 3.998c3.779.798 6.8 2.136 7.424 4.872 0 0 .237 2.317-1.79 7.449-3.351 8.486-9.713 21.37-6.605 23.798h27.1s1.417.147 1.417-2.452 3.052-15.712 3.052-15.712.777-6.12 8.645-6.12 13.405.874 23.604-10.976c0 0 3.4-4.566 10.88-4.566l4.468-1.748 4.491-2.696s-.536-1.19.436-1.19V3.705H85.63l-.388-1.165s-.875-1.263-1.749-1.263-1.651.097-1.651.097l-.486 1.069H27.543l-1.36-.39h-1.166l-.874-.193-1.748-.097ZM58.335 19.44c.68.098 2.623 1.749 2.623 1.749 2.525 3.594-1.749 6.314-1.749 6.314-4.76 3.788-10.88 4.662-14.182 4.37-3.302-.29-6.41.098-6.993-5.148s5.148-6.119 5.148-6.119l11.267-.777z" style="fill:#4c4c51;fill-opacity:1;fill-rule:evenodd;stroke:#323235;stroke-width:2.11667;stroke-linecap:round;stroke-linejoin:round;stroke-miterlimit:29;stroke-dasharray:none;stroke-opacity:1"/><path d="m5.31 15.004 44.568.092s5.962-1.7.996.6c-1.63.754-.495 3.682-3.022 3.91-2.275.204-6.165.282-8.105 1.783-1.562 1.208-2.219 3.8-2.696 5.715-.476 1.914-.983 3.633-1.223 4.354-.5 1.5-5.53 24.384-5.53 24.384s.485 1.614-1.129 1.614H2.654s.18-3.913 1.722-8.583l7.151-18.503s3.503-7.301-5.784-9.262c0 0-5.332.282-2.71-3.318.206-.55 2.277-2.786 2.277-2.786" style="fill:#57575d;fill-opacity:1;fill-rule:evenodd;stroke:#323235;stroke-width:1.05833;stroke-linecap:round;stroke-linejoin:round;stroke-miterlimit:29;stroke-dasharray:none;stroke-opacity:1"/><path d="m15.763 25.134 10.708-2.899s9.543-2.473 7.004 7.004l-6.551 24.45s-.306 2.588-2.589 2.588h-9.698s-7.93-3.514-7.048-7.512c.64-2.903 4.167-13.059 8.174-23.63" style="fill:#59595b;fill-opacity:1;fill-rule:evenodd;stroke:#313135;stroke-width:2.11667;stroke-linecap:round;stroke-linejoin:round;stroke-miterlimit:29;stroke-dasharray:none;stroke-opacity:1"/><path d="M51.39 14.63h31.182l2.584-1.056 1.263-1.253V5.7H55.854v1.924s-.07 1.991-1.992 1.991H42.735s-2.336-.068-2.336-2.335V5.358H21.328s-3.297-3.991-5.999 0h-.521c-3.868 2.299-6.271 5.974-9.238 9.204Z" style="fill:#63626a;fill-opacity:1;fill-rule:evenodd;stroke:#323235;stroke-width:2.11667;stroke-linecap:round;stroke-linejoin:round;stroke-miterlimit:29;stroke-dasharray:none;stroke-opacity:1"/><path d="m12.925 6.388-1.51 7.693h18.338l1.443-8.31h-10.37s-2.455-3.53-5.456 0h-2.033z" style="fill:#59595b;fill-opacity:1;fill-rule:evenodd;stroke:#323235;stroke-width:1.05833;stroke-linecap:round;stroke-linejoin:round;stroke-miterlimit:29;stroke-dasharray:none;stroke-opacity:1"/><path d="M41.773 2.885h12.432s1.752.687 1.752 1.752v2.919s-.206 2.146-2.147 2.146H42.872s-2.447-.068-2.447-2.447V5.152s.112-2.267 1.348-2.267" style="fill:#46464b;fill-opacity:1;fill-rule:evenodd;stroke:#323235;stroke-width:1.05833;stroke-linecap:round;stroke-linejoin:round;stroke-miterlimit:29;stroke-dasharray:none;stroke-opacity:1"/><path d="M40.879 5.459s1.78.068 1.78 1.251c0 1.184-1.579 1.195-1.579 1.195l-.201-.3Z" style="fill:#39393d;fill-opacity:1;fill-rule:evenodd;stroke:none;stroke-width:1.20632;stroke-linecap:round;stroke-linejoin:round;stroke-miterlimit:29;stroke-dasharray:none;stroke-opacity:1"/><circle cx="54.549" cy="17.034" r=".824" style="fill:#62626a;fill-opacity:1;fill-rule:evenodd;stroke:none;stroke-width:1.11732;stroke-linecap:round;stroke-linejoin:round;stroke-miterlimit:29;stroke-dasharray:none;stroke-opacity:1"/><circle cx="73.403" cy="8.964" r=".721" style="fill:#62626a;fill-opacity:1;fill-rule:evenodd;stroke:none;stroke-width:1.11732;stroke-linecap:round;stroke-linejoin:round;stroke-miterlimit:29;stroke-dasharray:none;stroke-opacity:1"/><path d="m3.925 50.277 11.29 7.074H3.445s-1.1-3.228.48-7.074" style="fill:#424248;fill-opacity:1;fill-rule:evenodd;stroke:#323235;stroke-width:1.05833;stroke-linecap:round;stroke-linejoin:round;stroke-miterlimit:29;stroke-dasharray:none;stroke-opacity:1"/><circle cx="7.179" cy="55.016" r="1.168" style="fill:#62626a;fill-opacity:1;fill-rule:evenodd;stroke:none;stroke-width:1.11732;stroke-linecap:round;stroke-linejoin:round;stroke-miterlimit:29;stroke-dasharray:none;stroke-opacity:1"/><path d="M40.885 6.638h8.197v.956h-8.197z" style="fill:#53535b;fill-opacity:1;fill-rule:evenodd;stroke:none;stroke-width:1.06441;stroke-linecap:round;stroke-linejoin:round;stroke-miterlimit:29;stroke-dasharray:none;stroke-opacity:1"/><circle cx="49.926" cy="7.178" r=".446" style="fill:#53535b;fill-opacity:1;fill-rule:evenodd;stroke:none;stroke-width:.785147;stroke-linecap:round;stroke-linejoin:round;stroke-miterlimit:29;stroke-dasharray:none;stroke-opacity:1"/><path d="M41.034 4.535h14.471s-.777-1.065-1.298-1.147H41.59s-.591.696-.556 1.147" style="fill:#39393d;fill-opacity:1;fill-rule:evenodd;stroke:none;stroke-width:1.22764;stroke-linecap:round;stroke-linejoin:round;stroke-miterlimit:29;stroke-dasharray:none;stroke-opacity:1"/><path d="M41.106 8.23h14.212s-.42 1.004-1.332 1.004H42.352s-1.08-.197-1.246-1.003" style="fill:#39393d;fill-opacity:1;fill-rule:evenodd;stroke:none;stroke-width:1.32367;stroke-linecap:round;stroke-linejoin:round;stroke-miterlimit:29;stroke-dasharray:none;stroke-opacity:1"/><path d="M58.585 19.02s8.016-1.717 15.69-1.134c0 0-6.04 1.643-9.092 5.051 0 0-3.885 5.44-9.52 8.257 0 0-3.496 1.651-6.313 1.651 0 0-4.614.243-6.945.194 0 0-6.9.452-8.27 5.1 0 0 2.63-7.781 3.256-12.25 0 0-.474 6.616 6.762 6.276 0 0 11.608 1.166 17.776-6.897 0 0 .631-2.234-.486-4.03z" style="fill:#3e3e44;fill-opacity:1;fill-rule:evenodd;stroke:#323235;stroke-width:1.05833;stroke-linecap:round;stroke-linejoin:round;stroke-miterlimit:29;stroke-dasharray:none;stroke-opacity:1"/><path d="M30.312 2.695h.521v7.019h-.521zM21.701 3.791h.521v7.019h-.521zM22.931 3.634h.521v7.019h-.521zM24.161 3.477h.521v7.019h-.521zM25.391 3.321h.521v7.019h-.521zM26.621 3.164h.521v7.019h-.521zM27.852 3.008h.521v7.019h-.521zM29.082 2.851h.521V9.87h-.521zM14.655 4.687h.521v7.019h-.521zM15.885 4.531h.521v7.019h-.521z" style="fill:#4a494f;fill-opacity:1;fill-rule:evenodd;stroke:none;stroke-width:1.25798;stroke-linecap:round;stroke-linejoin:round;stroke-miterlimit:29;stroke-dasharray:none;stroke-opacity:1" transform="matrix(.99209 .12555 -.1636 .98653 0 0)"/><path d="M75.615 24.889h1.395v55.494h-1.395z" style="fill:#4a494f;fill-opacity:1;fill-rule:evenodd;stroke:none;stroke-width:5.78535;stroke-linecap:round;stroke-linejoin:round;stroke-miterlimit:29;stroke-dasharray:none;stroke-opacity:1" transform="matrix(.48658 .20465 -.13423 .51052 -2.666 -2.61)"/><path d="M72.162 23.351h1.577V80.76h-1.577z" style="fill:#4a494f;fill-opacity:1;fill-rule:evenodd;stroke:none;stroke-width:5.88318;stroke-linecap:round;stroke-linejoin:round;stroke-miterlimit:29;stroke-dasharray:none;stroke-opacity:1" transform="matrix(.48428 .21004 -.13042 .5115 -2.666 -2.61)"/><path d="M68.911 24.117h1.448v57.895h-1.448z" style="fill:#4a494f;fill-opacity:1;fill-rule:evenodd;stroke:none;stroke-width:5.8982;stroke-linecap:round;stroke-linejoin:round;stroke-miterlimit:29;stroke-dasharray:none;stroke-opacity:1" transform="matrix(.48393 .21086 -.12985 .51165 -2.666 -2.61)"/><path d="M65.978 26.389h1.34v57.339h-1.34z" style="fill:#4a494f;fill-opacity:1;fill-rule:evenodd;stroke:none;stroke-width:5.84559;stroke-linecap:round;stroke-linejoin:round;stroke-miterlimit:29;stroke-dasharray:none;stroke-opacity:1" transform="matrix(.48517 .20797 -.13186 .51113 -2.666 -2.61)"/><path d="M63.074 29.389h1.409v56.214h-1.409z" style="fill:#4a494f;fill-opacity:1;fill-rule:evenodd;stroke:none;stroke-width:5.76273;stroke-linecap:round;stroke-linejoin:round;stroke-miterlimit:29;stroke-dasharray:none;stroke-opacity:1" transform="matrix(.48711 .2034 -.13514 .51028 -2.666 -2.61)"/><path d="M60.023 31.924h1.45v55.268h-1.45z" style="fill:#4a494f;fill-opacity:1;fill-rule:evenodd;stroke:none;stroke-width:5.71743;stroke-linecap:round;stroke-linejoin:round;stroke-miterlimit:29;stroke-dasharray:none;stroke-opacity:1" transform="matrix(.48815 .20087 -.137 .50978 -2.666 -2.61)"/><path d="M57.332 35.739h1.381v52.014h-1.381z" style="fill:#4a494f;fill-opacity:1;fill-rule:evenodd;stroke:none;stroke-width:5.57346;stroke-linecap:round;stroke-linejoin:round;stroke-miterlimit:29;stroke-dasharray:none;stroke-opacity:1" transform="matrix(.4914 .19279 -.14321 .50807 -2.666 -2.61)"/><path d="M54.672 38.496h1.329v48.786h-1.329z" style="fill:#4a494f;fill-opacity:1;fill-rule:evenodd;stroke:none;stroke-width:5.29473;stroke-linecap:round;stroke-linejoin:round;stroke-miterlimit:29;stroke-dasharray:none;stroke-opacity:1" transform="matrix(.49346 .18747 -.14753 .50683 -2.666 -2.61)"/><path d="M51.997 44.177h1.27v44.087h-1.27z" style="fill:#4a494f;fill-opacity:1;fill-rule:evenodd;stroke:none;stroke-width:4.92122;stroke-linecap:round;stroke-linejoin:round;stroke-miterlimit:29;stroke-dasharray:none;stroke-opacity:1" transform="matrix(.49918 .17164 -.15293 .50523 -2.666 -2.61)"/><path d="M31.906 6.008h8.224v1.521h-8.224s-.922.065-.922-.76c0-.826.922-.761.922-.761" style="fill:#3f3e43;fill-opacity:1;fill-rule:evenodd;stroke:#313135;stroke-width:1.05833;stroke-linecap:round;stroke-linejoin:round;stroke-miterlimit:29;stroke-dasharray:none;stroke-opacity:1"/><ellipse cx="20.588" cy="21.242" rx="8.674" ry="2.05" style="fill:#4d4d54;fill-opacity:1;fill-rule:evenodd;stroke:none;stroke-width:1.68404;stroke-linecap:round;stroke-linejoin:round;stroke-miterlimit:29;stroke-dasharray:none;stroke-opacity:1" transform="rotate(-3.471)"/><path d="M81.092 2.467c.403.013 2.24.052 3.871.022 0 0-.876-1.224-1.323-1.224s-2.026.034-2.026.034zM20.521 1.526h1.506v-.445H20.57z" style="fill:#323235;fill-opacity:1;fill-rule:evenodd;stroke:#313135;stroke-width:2.11667;stroke-linecap:round;stroke-linejoin:round;stroke-miterlimit:29;stroke-dasharray:none;stroke-opacity:1"/><path d="M43.265 10.847h1.457v2.477h-1.457zM44.945 10.847h1.457v2.477h-1.457zM46.624 10.847h1.457v2.477h-1.457zM48.304 10.847h1.457v2.477h-1.457zM49.983 10.847h1.457v2.477h-1.457zM51.663 10.847h1.457v2.477h-1.457z" style="fill:#58585f;fill-opacity:1;fill-rule:evenodd;stroke:none;stroke-width:1.11732;stroke-linecap:round;stroke-linejoin:round;stroke-miterlimit:29;stroke-dasharray:none;stroke-opacity:1"/><path d="M87.55 4.615v5.337" style="fill:#3d3d3d;fill-rule:evenodd;stroke:#313135;stroke-width:2.11667;stroke-linecap:round;stroke-linejoin:round;stroke-miterlimit:29;stroke-dasharray:none;stroke-opacity:1"/><path d="M20.152 7.056a2.234 2.063 0 0 1 .018.06l.01-.057zm-4.16 1.463-.876 4.875.517.06.786-4.377a2.234 2.063 0 0 1-.427-.558m3.882.248a2.234 2.063 0 0 1-.634.586l-.725 4.041.517.06zm-2.917.683-.708 3.944.517.06.687-3.825a2.234 2.063 0 0 1-.496-.18m1.63.174a2.234 2.063 0 0 1-.541.071l-.664 3.7.517.06z" style="fill:#4a494f;fill-opacity:1;fill-rule:evenodd;stroke:none;stroke-width:1.20854;stroke-linecap:round;stroke-linejoin:round;stroke-miterlimit:29;stroke-dasharray:none;stroke-opacity:1"/><circle cx="18.076" cy="6.831" r="2.366" style="fill:#646466;fill-opacity:1;fill-rule:evenodd;stroke:none;stroke-width:1.57799;stroke-linecap:round;stroke-linejoin:round;stroke-miterlimit:29;stroke-dasharray:none;stroke-opacity:1"/></g></svg>