<svg xmlns="http://www.w3.org/2000/svg" xml:space="preserve" width="110" height="110" viewBox="0 0 29.104 29.104"><g transform="matrix(.1635 -.04364 .04364 .1635 -1.242 8.383)"><path d="M18.197 18.243c-2.012-.499-3.296-.746-5.09.042l.198-.039-2.19-.214-.746 1.675c-.089.11-1.32 1.11-1.644 1.275l.344 1.983-.709 1.293 1.4 1.713.28.179c.395.82.736.503 1.506.99 1.045.657 2.3.892 3.513.66 1.372.342 3.08.924 4.872 1.916 0 0 7.554.961 3.93-6.224 0 0-1.07-2.046-3.65-3.869-.582-.41-2.014-1.38-2.014-1.38" style="fill:#3a3a3f;fill-opacity:1;fill-rule:evenodd;stroke:#323235;stroke-width:2.11667;stroke-linecap:round;stroke-linejoin:round;stroke-miterlimit:29;stroke-dasharray:none;stroke-opacity:1"/><path d="M84.239 43.59s3.383.52 4.033 4.293c0 0 3.644 13.533 13.403 12.882 0 0 6.83-1.887 2.927-1.887-4.955-.22-8.002-1.886-10.995-7.221-2.541-4.53-2.05-6.636-.749-8.718Z" style="fill:#616168;fill-opacity:1;fill-rule:evenodd;stroke:#323235;stroke-width:2.11667;stroke-linecap:round;stroke-linejoin:round;stroke-miterlimit:29;stroke-dasharray:none;stroke-opacity:1"/><path d="M44.716 6.256v2.025h-4.969l-1.472 2.76S25.762 16.009 17.85 27.97L7.729 38.642s-2.76 5.889 4.048 8.097c6.809 2.208 6.257-2.577 12.145 6.44 0 0 4.232 6.073-1.472 16.378S4.048 110.04 9.937 114.64h51.34s2.682.278 2.682-4.645S69.74 80.23 69.74 80.23s1.473-11.592 16.378-11.592 25.394 1.656 44.715-20.794c0 0 6.44-8.649 20.61-8.649l8.465-3.312s2.706-4.188 6.755-5.108c0 0 .237-2.253 2.078-2.253V11.961h-1.473l-.736-2.208s-1.656-2.392-3.312-2.392-3.128.184-3.128.184l-.92 2.024H57.229l-2.577-.736h-2.208l-1.656-.368-3.312-.184V6.256Zm70.845 35.516c1.289.184 4.969 3.312 4.969 3.312 4.784 6.808-3.312 11.96-3.312 11.96-9.017 7.177-20.61 8.833-26.867 8.281-6.256-.552-12.145.184-13.249-9.753s9.753-11.592 9.753-11.592l21.346-1.473z" style="fill:#47474c;fill-opacity:1;fill-rule:evenodd;stroke:#323235;stroke-width:2.11667;stroke-linecap:round;stroke-linejoin:round;stroke-miterlimit:29;stroke-dasharray:none;stroke-opacity:1"/><path d="M14.053 32.79H99.54s4.294-.52 1.887 1.886c-2.407 2.408-.937 6.978-5.725 7.408-4.309.387-11.68.536-15.354 3.378-2.96 2.29-4.204 7.201-5.106 10.827s-1.863 6.883-2.318 8.25c-.946 2.839-10.477 46.192-10.477 46.192s.92 3.057-2.137 3.057H10.08s-1.162-7.413 1.758-16.26l14.243-34.18s2.726-14.168-9.814-16.837c0 0-11.8-1.046-6.833-7.866.39-1.04 4.619-5.855 4.619-5.855" style="fill:#44444a;fill-opacity:1;fill-rule:evenodd;stroke:#323235;stroke-width:1.05833;stroke-linecap:round;stroke-linejoin:round;stroke-miterlimit:29;stroke-dasharray:none;stroke-opacity:1"/><path d="M31.619 63.888s2.992-6.636 6.766-8.067 15.614-5.726 15.614-5.726S70.576 45.8 66.165 62.262l-11.38 42.473s-.532 4.496-4.497 4.496H33.44l-13.057-7.4s-3.473-3.968-1.692-8.406c1.87-4.662 12.928-29.537 12.928-29.537" style="fill:#59595b;fill-opacity:1;fill-rule:evenodd;stroke:#313135;stroke-width:2.11667;stroke-linecap:round;stroke-linejoin:round;stroke-miterlimit:29;stroke-dasharray:none;stroke-opacity:1"/><path d="M102.403 32.66h59.074l4.895-2 2.391-2.376v-12.54h-57.902v3.644s-.13 3.773-3.774 3.773H86.008s-4.424-.13-4.424-4.424v-3.643H43.2s-3.239-5.87-9.108 0h-2.993s-10.8 7.286-12.361 11.84l-5.14 5.596z" style="fill:#63626a;fill-opacity:1;fill-rule:evenodd;stroke:#323235;stroke-width:2.11667;stroke-linecap:round;stroke-linejoin:round;stroke-miterlimit:29;stroke-dasharray:none;stroke-opacity:1"/><path d="M29.537 17.045 26.674 31.62h34.742l2.732-15.745H42.94s-3.588-4.87-8.458 0h-4.163z" style="fill:#59595b;fill-opacity:1;fill-rule:evenodd;stroke:#323235;stroke-width:2.11667;stroke-linecap:round;stroke-linejoin:round;stroke-miterlimit:29;stroke-dasharray:none;stroke-opacity:1"/><path d="M84.186 10.41h23.552s3.318 1.3 3.318 3.317v5.53s-.39 4.067-4.066 4.067H86.268s-4.635-.13-4.635-4.636v-3.985s.211-4.294 2.553-4.294" style="fill:#46464b;fill-opacity:1;fill-rule:evenodd;stroke:#323235;stroke-width:1.05833;stroke-linecap:round;stroke-linejoin:round;stroke-miterlimit:29;stroke-dasharray:none;stroke-opacity:1"/><path d="M82.184 15.159s3.446.138 3.446 2.555-3.056 2.44-3.056 2.44l-.39-.611z" style="fill:#39393d;fill-opacity:1;fill-rule:evenodd;stroke:none;stroke-width:2.39884;stroke-linecap:round;stroke-linejoin:round;stroke-miterlimit:29;stroke-dasharray:none;stroke-opacity:1"/><path d="M160.24 33.7h-57.707s.065 1.042-1.04 1.497h57.511z" style="fill:#3d3d43;fill-opacity:1;fill-rule:evenodd;stroke:none;stroke-width:2.11667;stroke-linecap:round;stroke-linejoin:round;stroke-miterlimit:29;stroke-dasharray:none;stroke-opacity:1"/><circle cx="108.388" cy="37.214" r="1.561" style="fill:#62626a;fill-opacity:1;fill-rule:evenodd;stroke:none;stroke-width:2.11667;stroke-linecap:round;stroke-linejoin:round;stroke-miterlimit:29;stroke-dasharray:none;stroke-opacity:1"/><circle cx="144.106" cy="21.925" r="1.366" style="fill:#62626a;fill-opacity:1;fill-rule:evenodd;stroke:none;stroke-width:2.11667;stroke-linecap:round;stroke-linejoin:round;stroke-miterlimit:29;stroke-dasharray:none;stroke-opacity:1"/><path d="m11.06 100.711 22.64 13.403H10.15s-2.083-6.116.91-13.403" style="fill:#424248;fill-opacity:1;fill-rule:evenodd;stroke:#323235;stroke-width:1.05833;stroke-linecap:round;stroke-linejoin:round;stroke-miterlimit:29;stroke-dasharray:none;stroke-opacity:1"/><circle cx="18.477" cy="109.69" r="2.212" style="fill:#62626a;fill-opacity:1;fill-rule:evenodd;stroke:none;stroke-width:2.11667;stroke-linecap:round;stroke-linejoin:round;stroke-miterlimit:29;stroke-dasharray:none;stroke-opacity:1"/><path d="M82.195 17.566h15.874v1.952H82.195z" style="fill:#53535b;fill-opacity:1;fill-rule:evenodd;stroke:none;stroke-width:2.11667;stroke-linecap:round;stroke-linejoin:round;stroke-miterlimit:29;stroke-dasharray:none;stroke-opacity:1"/><circle cx="99.631" cy="18.542" r=".846" style="fill:#53535b;fill-opacity:1;fill-rule:evenodd;stroke:none;stroke-width:1.48739;stroke-linecap:round;stroke-linejoin:round;stroke-miterlimit:29;stroke-dasharray:none;stroke-opacity:1"/><path d="M82.484 13.272h28.024s-1.504-2.175-2.514-2.342H83.56s-1.144 1.422-1.077 2.342" style="fill:#39393d;fill-opacity:1;fill-rule:evenodd;stroke:none;stroke-width:2.44123;stroke-linecap:round;stroke-linejoin:round;stroke-miterlimit:29;stroke-dasharray:none;stroke-opacity:1"/><path d="M82.624 20.819h27.522s-.813 2.048-2.579 2.048h-22.53s-2.092-.4-2.413-2.048" style="fill:#39393d;fill-opacity:1;fill-rule:evenodd;stroke:none;stroke-width:2.63221;stroke-linecap:round;stroke-linejoin:round;stroke-miterlimit:29;stroke-dasharray:none;stroke-opacity:1"/><path d="M116.035 40.975s15.185-3.252 29.722-2.148c0 0-11.44 3.113-17.223 9.569 0 0-7.36 10.305-18.033 15.641 0 0-6.625 3.128-11.961 3.128 0 0-8.74.46-13.157.368 0 0-13.072.855-15.666 9.661 0 0 4.982-14.74 6.169-23.205 0 0-.9 12.532 12.81 11.888 0 0 21.989 2.209 33.674-13.065 0 0 1.196-4.232-.92-7.636z" style="fill:#3f3f44;fill-opacity:1;fill-rule:evenodd;stroke:#323235;stroke-width:1.05833;stroke-linecap:round;stroke-linejoin:round;stroke-miterlimit:29;stroke-dasharray:none;stroke-opacity:1"/><path d="M21.346 114.55v3.128h48.856l-6.257-6.257-3.956 3.128z" style="fill:#46464a;fill-opacity:1;fill-rule:evenodd;stroke:#323235;stroke-width:2.11667;stroke-linecap:round;stroke-linejoin:round;stroke-miterlimit:29;stroke-dasharray:none;stroke-opacity:1"/><circle cx="38.735" cy="18.493" r="4.232" style="fill:#646466;fill-opacity:1;fill-rule:evenodd;stroke:none;stroke-width:2.82223;stroke-linecap:round;stroke-linejoin:round;stroke-miterlimit:29;stroke-dasharray:none;stroke-opacity:1"/><g style="fill:#4a494f;fill-opacity:1"><path d="M63.219 9.378h.988v13.297h-.988zM46.238 11.539h.988v13.297h-.988zM48.361 11.269h.988v13.297h-.988zM50.483 10.999h.988v13.297h-.988zM52.606 10.729h.988v13.297h-.988zM54.729 10.459h.988v13.297h-.988zM56.851 10.189h.988v13.297h-.988zM58.974 9.919h.988v13.297h-.988zM61.097 9.648h.988v13.297h-.988zM33.539 13.037h.988v13.297h-.988zM35.629 12.771h.988v13.297h-.988z" style="fill:#4a494f;fill-opacity:1;fill-rule:evenodd;stroke:none;stroke-width:2.38314;stroke-linecap:round;stroke-linejoin:round;stroke-miterlimit:29;stroke-dasharray:none;stroke-opacity:1" transform="matrix(.99209 .12555 -.1636 .98653 0 0)"/><path d="M36.986 21.631h.986v8.956h-.986z" style="fill:#4a494f;fill-opacity:1;fill-rule:evenodd;stroke:none;stroke-width:1.95365;stroke-linecap:round;stroke-linejoin:round;stroke-miterlimit:29;stroke-dasharray:none;stroke-opacity:1" transform="matrix(1 -.00057 -.12264 .99245 0 0)"/><path d="M44.403 22.566h.985v8.045h-.985z" style="fill:#4a494f;fill-opacity:1;fill-rule:evenodd;stroke:none;stroke-width:1.85147;stroke-linecap:round;stroke-linejoin:round;stroke-miterlimit:29;stroke-dasharray:none;stroke-opacity:1" transform="matrix(1 .00396 -.14877 .98887 0 0)"/><path d="M39.829 24.161h.985v7.549h-.985z" style="fill:#4a494f;fill-opacity:1;fill-rule:evenodd;stroke:none;stroke-width:1.79339;stroke-linecap:round;stroke-linejoin:round;stroke-miterlimit:29;stroke-dasharray:none;stroke-opacity:1" transform="matrix(.9997 -.02415 -.13864 .99034 0 0)"/><path d="M42.225 24.548h.985v7.37h-.985z" style="fill:#4a494f;fill-opacity:1;fill-rule:evenodd;stroke:none;stroke-width:1.77201;stroke-linecap:round;stroke-linejoin:round;stroke-miterlimit:29;stroke-dasharray:none;stroke-opacity:1" transform="matrix(.99962 -.0276 -.14576 .98932 0 0)"/></g><path d="M75.615 24.889h1.395v55.494h-1.395z" style="fill:#4a494f;fill-opacity:1;fill-rule:evenodd;stroke:none;stroke-width:5.78535;stroke-linecap:round;stroke-linejoin:round;stroke-miterlimit:29;stroke-dasharray:none;stroke-opacity:1" transform="matrix(.9218 .38769 -.2543 .96713 0 0)"/><path d="M72.338 23.644h1.401v57.115h-1.401z" style="fill:#4a494f;fill-opacity:1;fill-rule:evenodd;stroke:none;stroke-width:5.88318;stroke-linecap:round;stroke-linejoin:round;stroke-miterlimit:29;stroke-dasharray:none;stroke-opacity:1" transform="matrix(.91743 .3979 -.24707 .969 0 0)"/><path d="M68.957 24.646h1.403v57.365h-1.403z" style="fill:#4a494f;fill-opacity:1;fill-rule:evenodd;stroke:none;stroke-width:5.8982;stroke-linecap:round;stroke-linejoin:round;stroke-miterlimit:29;stroke-dasharray:none;stroke-opacity:1" transform="matrix(.91675 .39945 -.246 .96927 0 0)"/><path d="M65.92 27.237h1.399v56.491H65.92z" style="fill:#4a494f;fill-opacity:1;fill-rule:evenodd;stroke:none;stroke-width:5.84559;stroke-linecap:round;stroke-linejoin:round;stroke-miterlimit:29;stroke-dasharray:none;stroke-opacity:1" transform="matrix(.91912 .39399 -.2498 .9683 0 0)"/><path d="M63.09 30.483h1.393v55.12H63.09z" style="fill:#4a494f;fill-opacity:1;fill-rule:evenodd;stroke:none;stroke-width:5.76273;stroke-linecap:round;stroke-linejoin:round;stroke-miterlimit:29;stroke-dasharray:none;stroke-opacity:1" transform="matrix(.92279 .38531 -.25602 .96667 0 0)"/><path d="M60.082 32.818h1.39v54.374h-1.39z" style="fill:#4a494f;fill-opacity:1;fill-rule:evenodd;stroke:none;stroke-width:5.71743;stroke-linecap:round;stroke-linejoin:round;stroke-miterlimit:29;stroke-dasharray:none;stroke-opacity:1" transform="matrix(.92477 .38054 -.25953 .96573 0 0)"/><path d="M57.332 35.739h1.381v52.014h-1.381z" style="fill:#4a494f;fill-opacity:1;fill-rule:evenodd;stroke:none;stroke-width:5.57346;stroke-linecap:round;stroke-linejoin:round;stroke-miterlimit:29;stroke-dasharray:none;stroke-opacity:1" transform="matrix(.93092 .36522 -.2713 .9625 0 0)"/><path d="M54.672 38.496h1.329v48.786h-1.329z" style="fill:#4a494f;fill-opacity:1;fill-rule:evenodd;stroke:none;stroke-width:5.29473;stroke-linecap:round;stroke-linejoin:round;stroke-miterlimit:29;stroke-dasharray:none;stroke-opacity:1" transform="matrix(.9348 .35515 -.27948 .96015 0 0)"/><path d="M51.997 44.177h1.27v44.087h-1.27z" style="fill:#4a494f;fill-opacity:1;fill-rule:evenodd;stroke:none;stroke-width:4.92122;stroke-linecap:round;stroke-linejoin:round;stroke-miterlimit:29;stroke-dasharray:none;stroke-opacity:1" transform="matrix(.94566 .32516 -.2897 .95712 0 0)"/><path d="M65.493 16.325h15.58v2.882h-15.58s-1.745.122-1.745-1.441 1.745-1.441 1.745-1.441" style="fill:#3f3e43;fill-opacity:1;fill-rule:evenodd;stroke:#313135;stroke-width:1.03925;stroke-linecap:round;stroke-linejoin:round;stroke-miterlimit:29;stroke-dasharray:none;stroke-opacity:1"/><ellipse cx="43.744" cy="45.482" rx="16.433" ry="3.883" style="fill:#3d3d42;fill-opacity:1;fill-rule:evenodd;stroke:none;stroke-width:3.19026;stroke-linecap:round;stroke-linejoin:round;stroke-miterlimit:29;stroke-dasharray:none;stroke-opacity:1" transform="rotate(-3.472)"/><path d="M14.224 33.666s-9.176 9.794 1.553 12.28c0 0-9.085-.484-7.501-5.02 0 0 1.659-4.258 5.948-7.26" style="fill:#3d3d42;fill-opacity:1;fill-rule:evenodd;stroke:none;stroke-width:2.3259;stroke-linecap:round;stroke-linejoin:round;stroke-miterlimit:29;stroke-dasharray:none;stroke-opacity:1"/><path d="m158.549 9.629 7.827.042s-1.907-2.32-2.752-2.32c-.846 0-3.839.066-3.839.066zM44.624 8.235h2.852V6.349h-2.76z" style="fill:#323235;fill-opacity:1;fill-rule:evenodd;stroke:#313135;stroke-width:2.11667;stroke-linecap:round;stroke-linejoin:round;stroke-miterlimit:29;stroke-dasharray:none;stroke-opacity:1"/><path d="M87.013 25.061h2.76v4.692h-2.76zM90.195 25.061h2.76v4.692h-2.76zM93.377 25.061h2.76v4.692h-2.76zM96.558 25.061h2.76v4.692h-2.76zM99.74 25.061h2.76v4.692h-2.76zM102.922 25.061h2.76v4.692h-2.76z" style="fill:#58585f;fill-opacity:1;fill-rule:evenodd;stroke:none;stroke-width:2.11667;stroke-linecap:round;stroke-linejoin:round;stroke-miterlimit:29;stroke-dasharray:none;stroke-opacity:1"/><path d="M131.219 20.242v6.766h6.766v-.028l-3.275-3.355 3.275-3.355v-.028z" style="fill:#525259;fill-opacity:1;fill-rule:evenodd;stroke:none;stroke-width:2.11667;stroke-linecap:round;stroke-linejoin:round;stroke-miterlimit:29;stroke-dasharray:none;stroke-opacity:1" transform="matrix(.59205 0 0 .59205 14.796 23.439)"/><path d="M136.716 21.445h-4.294v4.36h4.36l-2.115-2.18z" style="fill:#5f5f67;fill-opacity:1;fill-rule:evenodd;stroke:none;stroke-width:2.11667;stroke-linecap:round;stroke-linejoin:round;stroke-miterlimit:29;stroke-dasharray:none;stroke-opacity:1" transform="matrix(.59205 0 0 .59205 14.796 23.439)"/></g></svg>