<svg xmlns="http://www.w3.org/2000/svg" xml:space="preserve" width="50.339" height="14.608" viewBox="0 0 13.319 3.865"><g transform="translate(-.3 .023)"><rect width="2.726" height="3.215" x=".797" y=".428" rx=".891" ry=".891" style="fill:#713723;fill-opacity:1;fill-rule:evenodd;stroke:#171717;stroke-width:.396854;stroke-linecap:round;stroke-linejoin:round;stroke-dasharray:none;stroke-opacity:1"/><rect width="4.62" height="2.374" x=".697" y=".848" rx=".776" ry=".375" style="fill:#44444a;fill-opacity:1;fill-rule:evenodd;stroke:#171717;stroke-width:.793698;stroke-linecap:round;stroke-linejoin:round;stroke-dasharray:none;stroke-opacity:1"/></g><path d="M4.257 1.778v.791a.15.15 0 0 1-.15.151H1.659a.15.15 0 0 1-.151-.15v-.792a.15.15 0 0 1 .15-.15h2.446a.15.15 0 0 1 .15.15z" class="cls-11" style="fill:#3a3a46;fill-opacity:1;fill-rule:evenodd;stroke:#171717;stroke-width:.396849;stroke-linejoin:round;stroke-miterlimit:10;stroke-dasharray:none;stroke-opacity:1" transform="translate(-.07 -.115)"/><path d="M2.898.863h9.548v2.622H2.898z" style="fill:#63626a;fill-opacity:1;fill-rule:evenodd;stroke:#171717;stroke-width:.79375;stroke-linecap:round;stroke-linejoin:round;stroke-miterlimit:29;stroke-dasharray:none;stroke-opacity:1" transform="translate(-.07 -.115)"/><path d="M5.156 1.724h7.091v-.667H5.14ZM5.156 3.3h7.091v-.667H5.14Z" style="fill:#44444a;fill-opacity:1;fill-rule:evenodd;stroke:#171717;stroke-width:.396875;stroke-linecap:round;stroke-linejoin:round;stroke-miterlimit:29;stroke-dasharray:none;stroke-opacity:1" transform="translate(-.07 -.12)"/><path d="M3.042 1.043h2.114v2.261H3.042z" style="fill:#44444a;fill-opacity:1;fill-rule:evenodd;stroke:#171717;stroke-width:.396875;stroke-linecap:round;stroke-linejoin:round;stroke-miterlimit:29;stroke-dasharray:none;stroke-opacity:1" transform="translate(-.07 -.115)"/><path d="M3.543 1.45h.751v1.368h-.75Z" style="fill:#454555;fill-opacity:1;fill-rule:evenodd;stroke:#171717;stroke-width:.343333;stroke-linecap:round;stroke-linejoin:round;stroke-dasharray:none;stroke-opacity:1" transform="translate(-.07 -.075)"/><path d="M3.715 1.862h.407v.544h-.407Z" style="fill:#40404e;fill-opacity:1;fill-rule:evenodd;stroke:none;stroke-width:.248792;stroke-linecap:round;stroke-linejoin:round;stroke-dasharray:none;stroke-opacity:1" transform="translate(-.07 -.075)"/><path d="M12.654 1.198h.537V3.15h-.537zM1.07.313h.676v.203h.69v.46H1.069Z" style="fill:#40404e;fill-opacity:1;fill-rule:evenodd;stroke:#171717;stroke-width:.396875;stroke-linecap:round;stroke-linejoin:round;stroke-miterlimit:29;stroke-dasharray:none;stroke-opacity:1" transform="translate(-.07 -.115)"/><path d="M5.286 3.334s-.121-.513.2-.759c.32-.246 1.334-.245 1.654 0 .32.246.198.755.198.755zM11.402 2.174h.422" style="fill:#7b7b84;fill-opacity:1;fill-rule:evenodd;stroke:#171717;stroke-width:.396875;stroke-linecap:round;stroke-linejoin:round;stroke-miterlimit:29;stroke-dasharray:none;stroke-opacity:1" transform="translate(-.07 -.115)"/></svg>