<?xml version="1.0" encoding="UTF-8" standalone="no"?>
<svg
   width="122.95106"
   height="55.317581"
   viewBox="0 0 122.95106 55.317581"
   fill="none"
   version="1.1"
   id="svg62"
   sodipodi:docname="rgs.svg"
   inkscape:version="1.4.2 (1:1.4.2+202505120737+ebf0e940d0)"
   xmlns:inkscape="http://www.inkscape.org/namespaces/inkscape"
   xmlns:sodipodi="http://sodipodi.sourceforge.net/DTD/sodipodi-0.dtd"
   xmlns="http://www.w3.org/2000/svg"
   xmlns:svg="http://www.w3.org/2000/svg">
  <sodipodi:namedview
     id="namedview62"
     pagecolor="#505050"
     bordercolor="#ffffff"
     borderopacity="1"
     inkscape:showpageshadow="0"
     inkscape:pageopacity="0"
     inkscape:pagecheckerboard="1"
     inkscape:deskcolor="#505050"
     inkscape:zoom="5.4045455"
     inkscape:cx="47.367536"
     inkscape:cy="21.18587"
     inkscape:window-width="2560"
     inkscape:window-height="1368"
     inkscape:window-x="0"
     inkscape:window-y="0"
     inkscape:window-maximized="1"
     inkscape:current-layer="svg62" />
  <g
     clip-path="url(#clip0_2940_3888)"
     id="g61"
     transform="rotate(15,175.4772,62.050438)">
    <rect
       x="55.158199"
       y="46.2812"
       width="0.25867"
       height="0.82400501"
       transform="rotate(-30,55.1582,46.2812)"
       fill="#4d4d4d"
       stroke="#333333"
       stroke-width="0.517493"
       id="rect1" />
    <rect
       x="56.501999"
       y="45.502899"
       width="0.25867"
       height="0.82400501"
       transform="rotate(-30,56.502,45.5029)"
       fill="#4d4d4d"
       stroke="#333333"
       stroke-width="0.517493"
       id="rect2" />
    <rect
       x="57.847698"
       y="44.727501"
       width="0.25867"
       height="0.82400501"
       transform="rotate(-30,57.8477,44.7275)"
       fill="#4d4d4d"
       stroke="#333333"
       stroke-width="0.517493"
       id="rect3" />
    <rect
       x="59.191399"
       y="43.952099"
       width="0.25867"
       height="0.82400501"
       transform="rotate(-30,59.1914,43.9521)"
       fill="#4d4d4d"
       stroke="#333333"
       stroke-width="0.517493"
       id="rect4" />
    <rect
       x="60.537102"
       y="43.1758"
       width="0.25867"
       height="0.82400501"
       transform="rotate(-30,60.5371,43.1758)"
       fill="#4d4d4d"
       stroke="#333333"
       stroke-width="0.517493"
       id="rect5" />
    <rect
       x="61.880901"
       y="42.399399"
       width="0.25867"
       height="0.82400501"
       transform="rotate(-30,61.8809,42.3994)"
       fill="#4d4d4d"
       stroke="#333333"
       stroke-width="0.517493"
       id="rect6" />
    <rect
       x="63.226601"
       y="41.623001"
       width="0.25867"
       height="0.82400501"
       transform="rotate(-30,63.2266,41.623)"
       fill="#4d4d4d"
       stroke="#333333"
       stroke-width="0.517493"
       id="rect7" />
    <rect
       x="64.570297"
       y="40.846699"
       width="0.25867"
       height="0.82400501"
       transform="rotate(-30,64.5703,40.8467)"
       fill="#4d4d4d"
       stroke="#333333"
       stroke-width="0.517493"
       id="rect8" />
    <rect
       x="65.916"
       y="40.070301"
       width="0.25867"
       height="0.82400501"
       transform="rotate(-30,65.916,40.0703)"
       fill="#4d4d4d"
       stroke="#333333"
       stroke-width="0.517493"
       id="rect9" />
    <rect
       x="67.259804"
       y="39.2939"
       width="0.25867"
       height="0.82400501"
       transform="rotate(-30,67.2598,39.2939)"
       fill="#4d4d4d"
       stroke="#333333"
       stroke-width="0.517493"
       id="rect10" />
    <rect
       x="68.605499"
       y="38.517601"
       width="0.25867"
       height="0.82400501"
       transform="rotate(-30,68.6055,38.5176)"
       fill="#4d4d4d"
       stroke="#333333"
       stroke-width="0.517493"
       id="rect11" />
    <rect
       x="69.949203"
       y="37.742199"
       width="0.25867"
       height="0.82400501"
       transform="rotate(-30,69.9492,37.7422)"
       fill="#4d4d4d"
       stroke="#333333"
       stroke-width="0.517493"
       id="rect12" />
    <rect
       x="71.294899"
       y="36.966801"
       width="0.25867"
       height="0.82400501"
       transform="rotate(-30,71.2949,36.9668)"
       fill="#4d4d4d"
       stroke="#333333"
       stroke-width="0.517493"
       id="rect13" />
    <rect
       x="72.638702"
       y="36.189499"
       width="0.25867"
       height="0.82400501"
       transform="rotate(-30,72.6387,36.1895)"
       fill="#4d4d4d"
       stroke="#333333"
       stroke-width="0.517493"
       id="rect14" />
    <path
       d="m 63.6916,39.6291 -1.2611,-2.1755 -6.4786,3.7404 -4.0846,3.1892 -13.0545,7.7238 -0.2492,0.0131 -3.1205,1.7897 -0.5799,-0.0134 -0.6143,0.3448 -0.1837,0.2509 -1.0771,0.633 -0.8183,0.2715 -5.1892,2.9878 1.0521,1.8324 1.0609,1.8274 5.1821,-3.0001 0.6443,-0.5729 1.0867,-0.6163 0.3092,-0.0336 0.6057,-0.3596 0.2784,-0.509 3.1101,-1.8075 0.136,-0.2092 13.2162,-7.4437 4.8043,-1.9428 6.4785,-3.7404 z"
       fill="#4d4d4d"
       id="path14" />
    <path
       d="m 35.1666,53.9026 -0.3029,-0.007 -0.6143,0.3448 -0.1612,0.2201 1.9569,3.3895 0.2713,-0.0295 0.6057,-0.3596 0.1454,-0.2658 z"
       fill="#595959"
       id="path15" />
    <path
       d="m 27.9738,57.8125 -0.9928,0.5717 1.0521,1.8324 1.0609,1.8274 0.9915,-0.574 z"
       fill="#595959"
       id="path16" />
    <path
       d="m 63.8525,42.4375 1.0913,-0.63 -1.2535,-2.18 -1.2611,-2.1755 -1.0913,0.63 z"
       fill="#404040"
       id="path17" />
    <path
       d="m 53.6607,47.492 4.8043,-1.9427 0.0987,-0.057 C 56.9805,43.8861 56.611,43.2022 56.0487,41.137 l -0.0984,0.0567 -4.0844,3.1892 z"
       fill="#404040"
       id="path18" />
    <path
       d="m 63.6916,39.6291 -1.2611,-2.1755 -6.4786,3.7404 -4.0846,3.1892 -13.0545,7.7238 -0.2492,0.0131 -3.1205,1.7897 -0.5799,-0.0134 -0.6143,0.3448 -0.1837,0.2509 -1.0771,0.633 -0.8183,0.2715 -5.1892,2.9878 1.0521,1.8324 1.0609,1.8274 5.1821,-3.0001 0.6443,-0.5729 1.0867,-0.6163 0.3092,-0.0336 0.6057,-0.3596 0.2784,-0.509 3.1101,-1.8075 0.136,-0.2092 13.2162,-7.4437 4.8043,-1.9428 6.4785,-3.7404 z"
       stroke="#333333"
       stroke-width="1.03499"
       stroke-miterlimit="3.99393"
       id="path19" />
    <path
       d="m 43.8508,44.7717 0.285,0.4936 0.346,-0.1997 1.5079,2.603 0.506,0.1332 1.7632,3.0568 -0.0768,0.2321 -3.4986,2.0199 -0.2394,-0.0495 -1.7657,-3.0554 0.1376,-0.5048 -1.5003,-2.6074 0.346,-0.1997 -0.285,-0.4937 z"
       fill="#525252"
       id="path20" />
    <path
       d="m 45.9883,47.6674 -1.5079,-2.603 -3.166,1.8279 1.5003,2.6074 z"
       fill="#595959"
       id="path21" />
    <path
       d="m 43.8508,44.7717 0.285,0.4936 0.346,-0.1997 1.5079,2.603 0.506,0.1332 1.7632,3.0568 -0.0768,0.2321 -3.4986,2.0199 -0.2394,-0.0495 -1.7657,-3.0554 0.1376,-0.5048 -1.5003,-2.6074 0.346,-0.1997 -0.285,-0.4937 z"
       stroke="#333333"
       stroke-width="0.517493"
       stroke-miterlimit="3.99393"
       id="path22" />
    <path
       d="m 46.1372,51.5919 c 0.7371,-0.4255 0.9896,-1.368 0.5641,-2.105 -0.4255,-0.737 -1.368,-0.9896 -2.105,-0.564 -0.7371,0.4255 -0.9896,1.368 -0.5641,2.105 0.4255,0.737 1.368,0.9896 2.105,0.564 z"
       fill="#595959"
       stroke="#333333"
       stroke-width="0.517491"
       stroke-miterlimit="3.99393"
       id="path23" />
    <path
       fill-rule="evenodd"
       clip-rule="evenodd"
       d="m 44.9463,49.5262 c -0.4094,0.2363 -0.5496,0.7598 -0.3133,1.1691 0.2364,0.4094 0.7598,0.5496 1.1692,0.3133 0.4094,-0.2363 0.5496,-0.7598 0.3133,-1.1692 -0.2364,-0.4093 -0.7598,-0.5496 -1.1692,-0.3132 z m 0.0227,0.9751 c -0.1292,-0.2238 -0.0525,-0.5099 0.1713,-0.6391 0.2238,-0.1292 0.5099,-0.0525 0.6391,0.1712 0.1292,0.2238 0.0526,0.51 -0.1712,0.6392 -0.2238,0.1292 -0.51,0.0525 -0.6392,-0.1713 z"
       fill="#4d4d4d"
       id="path24" />
    <path
       d="m 40.8756,57.557 -3.1373,-5.434 1.1624,-0.6711 3.1373,5.434"
       fill="#404040"
       stroke="#333333"
       stroke-width="0.517493"
       stroke-miterlimit="3.99393"
       id="path25" />
    <path
       d="m 52.8404,50.6498 -3.1373,-5.434 1.1625,-0.6711 3.1373,5.4339"
       fill="#404040"
       stroke="#333333"
       stroke-width="0.517493"
       stroke-miterlimit="3.99393"
       id="path26" />
    <path
       d="m 46.7169,62.3765 5.9876,9.4651 7.45,-5.3702 -5.5765,-9.0443"
       fill="#4d4d4d"
       id="path27" />
    <rect
       x="80.042999"
       y="39.837898"
       width="0.51977903"
       height="1.56136"
       rx="0.25988901"
       transform="rotate(-34.9404,80.043,39.8379)"
       fill="#3d3d3d"
       stroke="#333333"
       stroke-width="0.517493"
       stroke-miterlimit="3.99393"
       id="rect27" />
    <path
       d="m 62.9607,45.0558 c -0.8697,0.5246 -1.0294,0.2298 -1.9882,0.7856 l -4.3791,2.5283 1.4973,2.5934 3.2015,-2.9649 20.5328,-12.1264 23.824,-14.3136 0.472,-0.1184 0.57,-0.3199 0.269,-0.0846 1.942,-1.1206 0.106,-0.3723 0.043,-0.0261 -0.499,-0.8639 -0.036,0.0206 -0.376,-0.0747 -2.798,1.5956 -0.284,0.3374 -29.4965,17.2602 c -0.2573,0.0262 -0.7002,0.0809 -1.2076,0.3699 l 0.2091,0.3652 c 0,0 -2.8383,1.6754 -3.2816,1.9153 -0.2963,0.1786 -0.7513,0.1495 -1.0468,0.3053 z"
       fill="#999999"
       id="path28" />
    <path
       d="m 41.7052,60.4249 16.3852,-9.4601 -1.4973,-2.5934 -0.3779,0.2182 -0.3896,-0.6769 -4.2134,2.4399 c 0.8981,1.6833 1.3643,2.5774 -0.2437,3.609 l -5.8189,3.3556 c -1.1022,0.6268 -2.0241,-0.0996 -2.5519,-1.036 l -2.2563,1.31 -0.6131,0.3572 c 0.1275,0.0626 0.2381,0.1613 0.2993,0.2634 0.4258,0.7376 0.8562,1.4729 1.2776,2.2131 z"
       fill="#b2b2b2"
       stroke="#333333"
       stroke-width="0.517493"
       stroke-miterlimit="3.99393"
       id="path29" />
    <path
       d="m 58.0904,50.9649 -16.3852,9.46 C 41.4238,59.9305 41.1383,59.4383 40.8528,58.9461 40.7109,58.7014 40.569,58.4567 40.4276,58.2118 40.3664,58.1097 40.2558,58.011 40.1283,57.9484 l 0.6131,-0.3572 2.2563,-1.31 c 0.5278,0.9364 1.4497,1.6628 2.5519,1.036 l 5.8189,-3.3556 c 1.608,-1.0316 1.1418,-1.9257 0.2437,-3.609 l 4.2134,-2.4399 0.3896,0.6769 4.7571,-2.7464 c 0.4833,-0.2802 0.7636,-0.3443 1.0341,-0.4061 0.2661,-0.0608 0.5228,-0.1194 0.9541,-0.3795 l 7.2739,-4.3086 c 0.1403,-0.074 0.3166,-0.1063 0.4948,-0.1389 0.1971,-0.0361 0.3964,-0.0726 0.552,-0.1664 0.4432,-0.24 3.2816,-1.9153 3.2816,-1.9153 l -0.2092,-0.3652 c 0.5074,-0.289 0.9504,-0.3437 1.2076,-0.3699 l 29.4968,-17.2603 0.284,-0.3374 2.798,-1.5955 0.376,0.0746 0.036,-0.0205 0.498,0.8639 -0.042,0.026 -0.106,0.3724 -1.942,1.1206 -0.269,0.0846 -0.57,0.3199 L 105.649,21.56 81.8247,35.8736 61.292,48 Z"
       stroke="#333333"
       stroke-width="1.03499"
       stroke-miterlimit="3.99393"
       id="path30" />
    <path
       d="m 36.8706,63.216 -0.9261,-1.604 0.9197,-0.5309 c 0.0071,-0.0228 0.0145,-0.0479 0.0223,-0.0747 0.0636,-0.2163 0.1598,-0.5441 0.4227,-0.6864 l 0.8503,-0.4909 c 0.0229,-0.0781 0.0412,-0.1514 0.0586,-0.2212 0.0948,-0.3801 0.1635,-0.6556 0.8161,-1.0223 l 0.0985,-0.0574 1.4199,2.4936 c 0.0091,0.0174 0.0183,0.0349 0.0275,0.0525 z"
       fill="#a6a6a6"
       id="path31" />
    <path
       d="m 35.9464,61.6124 0.9257,1.6035 1.1052,-0.6381 -1.0244,-1.7745 c -0.0378,0.104 -0.0638,0.2034 -0.0872,0.2783 z"
       fill="#808080"
       id="path32" />
    <path
       d="m 36.8706,63.216 -0.9261,-1.604 0.9197,-0.5309 c 0.0071,-0.0228 0.0145,-0.0479 0.0223,-0.0747 0.0636,-0.2163 0.1598,-0.5441 0.4227,-0.6864 l 0.8503,-0.4909 c 0.0229,-0.0781 0.0412,-0.1514 0.0586,-0.2212 0.0948,-0.3801 0.1635,-0.6556 0.8161,-1.0223 l 0.0985,-0.0574 1.4199,2.4936 c 0.0091,0.0174 0.0183,0.0349 0.0275,0.0525 z"
       stroke="#333333"
       stroke-width="1.03499"
       stroke-miterlimit="3.99393"
       id="path33" />
    <path
       d="M 83.5393,36.1759 C 82.9104,35.1315 82.5038,35.5057 81.8268,35.8722 L 53.5796,52.5547 c -0.105,0.5845 -0.4173,1.1775 -1.4619,1.7421 l -10.4091,6.0714 -1.6619,0.587 -3.7117,2.1747 -4.2578,5.0056 c -1.0207,1.2412 -2.3201,1.9928 -3.7946,1.9731 -1.0749,-0.0157 -1.6528,0.4091 -2.958,1.2632 L 5.38402,84.1409 13.3498,96.7698 14.097,96.3412 c 0.3872,-0.228 0.7111,-0.5879 1.3528,-1.3655 l 10.692,-13.0111 c 0.9425,-1.1703 2.0381,-1.8505 3.3763,-1.9736 2.3745,-0.1564 4.0688,-0.3618 5.3445,-1.2769 -2.042,-4.4872 -0.1406,-8.3183 5.8459,-12.3444 L 52.0486,59.1562 83.2437,38.1634 c 0.9283,-0.6121 0.9347,-0.9659 0.2956,-1.9875 z"
       fill="#4d4a47"
       id="path34" />
    <path
       d="m 72.0197,41.6643 5.3056,-1.6654 -6.1049,6.2556 -11.2809,7.5915 1.996,-2.7583 -7.7881,1.1318 z"
       fill="#43403d"
       id="path35" />
    <path
       d="m 55.5918,47.5088 0.6632,1.1487 0.3912,-0.1942 -0.0531,-0.0921 4.3792,-2.5283 c 0.4833,-0.2802 0.7636,-0.3442 1.0341,-0.406 0.2661,-0.0608 0.5228,-0.1194 0.954,-0.3795 l 7.274,-4.3086 c 0.1403,-0.0741 0.3166,-0.1063 0.4948,-0.139 0.197,-0.0361 0.3964,-0.0726 0.552,-0.1664 0.4432,-0.2399 3.2815,-1.9153 3.2815,-1.9153 l -0.8539,-1.4792 z"
       fill="#4d4d4d"
       id="path36" />
    <path
       d="m 73.9776,37.5146 -0.2688,-0.4657 -18.117,10.4599 0.2688,0.4657 z"
       fill="#404040"
       id="path37" />
    <path
       d="m 40.439,66.4527 c 0.215,1.1441 0.7656,2.4116 1.6918,2.6538 0.0148,0.0039 0.0217,-0.0166 0.0082,-0.0238 -0.9323,-0.4948 -1.3032,-1.9857 -1.1245,-2.9623"
       fill="#3b3b3b"
       stroke="#333333"
       stroke-width="0.517491"
       stroke-miterlimit="3.99393"
       id="path38" />
    <rect
       x="18.459"
       y="91.129898"
       width="0.51977903"
       height="1.56136"
       rx="0.25988901"
       transform="rotate(-54.3124,18.459,91.1299)"
       fill="#3d3d3d"
       stroke="#333333"
       stroke-width="0.517493"
       stroke-miterlimit="3.99393"
       id="rect38" />
    <path
       d="M 5.38298,84.1411 4.42829,84.7372 1.86536,86.2169 C 1.22432,86.6151 0.764973,87.195 1.55159,88.305 l 7.05116,10.4547 c 0.17275,0.2593 0.45601,0.4837 0.92969,0.2195 L 13.3488,96.77"
       fill="#595959"
       id="path39" />
    <path
       d="M 10.9498,98.1586 C 8.8988,95.0082 4.9024,88.8659 2.83196,85.6587 L 4.4282,84.7371 5.38364,84.1423 13.3487,96.7699 Z"
       fill="#4d4d4d"
       id="path40" />
    <path
       d="M 12.2971,97.3774 4.19134,84.8726 4.42696,84.7365 5.3824,84.1417 l 7.965,12.6277 z"
       fill="#404040"
       id="path41" />
    <path
       d="M 5.38298,84.1411 4.42829,84.7372 1.86536,86.2169 C 1.22432,86.6151 0.764973,87.195 1.55159,88.305 l 7.05116,10.4547 c 0.17275,0.2593 0.45601,0.4837 0.92969,0.2195 L 13.3488,96.77"
       stroke="#333333"
       stroke-width="1.03499"
       stroke-miterlimit="3.99393"
       id="path42" />
    <path
       fill-rule="evenodd"
       clip-rule="evenodd"
       d="m 40.705,66.3692 c -1.3723,0.9228 -2.5298,1.8354 -3.4745,2.748 0.8141,-0.4851 2.1123,-0.727 3.1908,0.2691 0.4734,0.5054 1.3654,1.1776 2.4264,0.6251 l 1.1344,-0.6566 c 0.85,-0.4394 1.7965,-1.4121 2.2072,-2.4661 0.0221,-0.0462 0.0421,-0.0931 0.0623,-0.1404 0.1127,-0.2638 0.2317,-0.5425 0.7452,-0.8143 0.0469,-0.0235 0.0843,-0.0567 0.1132,-0.0984 0.2899,0.366 0.4612,0.6713 0.6522,1.0986 0.0064,0.0144 0.0283,0.0069 0.0246,-0.0084 -0.2632,-1.1071 -0.5139,-1.7094 -0.9403,-2.7333 L 46.8407,64.1786 C 46.7212,63.873 46.5878,63.5665 46.469,63.2936 46.3946,63.1228 46.326,62.9652 46.2701,62.8292 Z m 2.0111,3.3284 c -1.2705,0.8056 -3.0815,-0.6386 -2.4958,-2.8026 0.038,-0.1403 1.0718,-0.7694 1.6516,-1.1222 0.0373,-0.0227 0.0726,-0.0442 0.1058,-0.0644 0.0983,-0.0599 0.2126,-0.1312 0.3355,-0.2078 0.558,-0.3478 1.2911,-0.8049 1.4904,-0.8004 2.2485,0.0504 3.0834,2.2846 0.9887,3.6774 z"
       fill="#4d4d4d"
       stroke="#333333"
       stroke-width="0.517493"
       stroke-miterlimit="3.99393"
       id="path43" />
    <path
       d="m 35.9746,70.4874 0.2197,-0.4907 c 0,0 1.5995,-3.407 1.5435,-3.3747 -0.056,0.0324 -2.2301,0.9888 -2.2301,0.9888 l 2.3359,-3.8135 c -2.2302,0.8315 -4.1405,2.5007 -5.607,4.148 l -0.1624,0.1909 c -0.0909,0.1105 -0.184,0.2172 -0.2793,0.3198 -0.6987,0.8313 -1.2791,1.6338 -1.725,2.2943 -1.9758,2.9274 -2.3243,5.9607 -1.1633,9.3393 0.1972,-0.046 0.3999,-0.0788 0.6086,-0.098 2.3745,-0.1563 4.0688,-0.3618 5.3445,-1.2769 -1.3401,-2.9448 -0.9818,-5.6071 1.1149,-8.2273 z"
       fill="#43403d"
       id="path44" />
    <path
       d="m 48.4885,62.1221 c -0.2898,-0.4594 -0.7659,-0.6798 -1.0633,-0.4921 -0.2974,0.1876 -0.3035,0.7121 -0.0137,1.1715 l 2.134,3.3824 c 0.2899,0.4594 0.7659,0.6797 1.0633,0.4921 0.2974,-0.1876 0.3036,-0.7122 0.0137,-1.1716 z"
       fill="#404040"
       id="path45" />
    <path
       d="m 52.0707,58.524 -0.1569,0.099 c -0.2479,0.1564 -0.214,0.6557 0.0758,1.1151 l 2.1594,3.4226 c 0.2899,0.4593 0.7258,0.7049 0.9738,0.5485 l 0.1569,-0.099 c 0.248,-0.1564 0.214,-0.6557 -0.0758,-1.1151 l -2.1594,-3.4226 c -0.2898,-0.4594 -0.7258,-0.705 -0.9738,-0.5485 z"
       fill="#404040"
       id="path46" />
    <path
       d="m 46.7169,62.3765 5.9876,9.4651 7.45,-5.3702 -5.5765,-9.0443"
       stroke="#333333"
       stroke-width="1.03499"
       stroke-miterlimit="3.99393"
       id="path47" />
    <path
       d="m 54.9563,51.0031 c 0.1681,-0.097 0.2256,-0.3118 0.1286,-0.4799 -0.097,-0.168 -0.3118,-0.2256 -0.4799,-0.1285 -0.168,0.097 -0.2256,0.3118 -0.1286,0.4799 0.0971,0.168 0.3119,0.2256 0.4799,0.1285 z"
       fill="#3b3b3b"
       id="path48" />
    <path
       d="m 45.0179,62.4919 c 0.343,-0.198 0.4605,-0.6366 0.2625,-0.9796 -0.1981,-0.343 -0.6367,-0.4605 -0.9797,-0.2625 -0.343,0.1981 -0.4605,0.6367 -0.2624,0.9796 0.198,0.343 0.6366,0.4606 0.9796,0.2625 z"
       fill="#3b3b3b"
       id="path49" />
    <path
       d="m 56.1683,54.5222 c 0.343,-0.198 0.4605,-0.6366 0.2624,-0.9796 -0.198,-0.343 -0.6366,-0.4605 -0.9796,-0.2625 -0.343,0.198 -0.4605,0.6366 -0.2625,0.9796 0.1981,0.343 0.6367,0.4605 0.9797,0.2625 z"
       fill="#3b3b3b"
       id="path50" />
    <path
       d="m 52.1253,59.4216 c -0.1506,-0.2429 -0.4696,-0.3177 -0.7125,-0.1671 -0.2429,0.1506 -0.3178,0.4696 -0.1672,0.7125 l 4.6206,7.4533 c 0.1506,0.2429 0.4696,0.3177 0.7125,0.1671 0.2429,-0.1506 0.3178,-0.4696 0.1672,-0.7125 z"
       fill="#383838"
       id="path51" />
    <path
       d="m 40.2684,60.8766 -0.1458,3.0188 c -0.0506,0.6603 0.2714,0.7385 0.6344,0.5068 1.8998,-1.1785 1.8152,-2.6164 1.6933,-4.4673 l -0.7433,0.4336 z"
       fill="#43403d"
       id="path52" />
    <path
       d="M 83.5393,36.1759 C 82.9104,35.1315 82.5038,35.5057 81.8268,35.8722 L 53.5795,52.5547 c -0.1049,0.5845 -0.4172,1.1775 -1.4618,1.7421 l -10.4091,6.0714 -1.6619,0.587 -3.7117,2.1747 -4.2578,5.0056 c -1.0207,1.2412 -2.3201,1.9928 -3.7946,1.9731 -1.0749,-0.0157 -1.6528,0.4091 -2.958,1.2632 L 5.38402,84.1409 13.3498,96.7698 14.097,96.3412 c 0.3872,-0.228 0.7111,-0.5879 1.3528,-1.3655 l 10.692,-13.0111 c 0.9425,-1.1703 2.0381,-1.8505 3.3763,-1.9736 2.3745,-0.1564 4.0688,-0.3618 5.3445,-1.2769 -2.042,-4.4872 -0.1406,-8.3183 5.8459,-12.3444 L 52.0486,59.1562 83.2437,38.1634 c 0.9283,-0.6121 0.9347,-0.9659 0.2956,-1.9875 z"
       stroke="#363330"
       stroke-width="1.03499"
       stroke-miterlimit="3.99393"
       stroke-linecap="round"
       id="path53" />
    <path
       d="m 39.0077,58.3072 0.6591,-0.3806 c 0.2668,-0.1408 0.6296,0.064 0.7619,0.2847 l 1.2704,2.2003 c 0.2681,0.4663 0.3606,0.873 0.1681,1.3098 -0.3714,0.8515 -0.4327,1.7709 -0.163,2.8506 -0.2542,-4e-4 -0.4318,0.027 -0.6245,0.1383 -0.122,-0.7254 -0.3185,-1.2763 -0.1954,-2.3648 0.043,-0.6054 -0.1537,-0.9864 -0.3309,-1.3239 z"
       fill="#999999"
       stroke="#333333"
       stroke-width="0.517493"
       stroke-miterlimit="3.99393"
       stroke-linecap="round"
       id="path54" />
    <path
       d="M 42.6256,65.5266 C 42.6,64.9829 42.1697,64.5727 41.7041,64.5721 c -0.2542,-4e-4 -0.4317,0.027 -0.6244,0.1382 -0.4609,0.2907 -0.5529,0.7092 -0.4881,1.0475 0.043,0.2621 0.3606,0.9238 1.0463,0.8233 0.6076,-0.0856 1.0177,-0.4171 0.9877,-1.0545 z"
       fill="#808080"
       stroke="#333333"
       stroke-width="0.517493"
       stroke-miterlimit="3.99393"
       stroke-linecap="round"
       id="path55" />
    <path
       d="m 51.8803,50.8561 c 0.707,1.3683 0.93,2.1816 -0.5097,3.1053 l -5.8189,3.3556 c -0.9781,0.5561 -1.8141,0.0469 -2.3588,-0.7292 l 6.9713,-4.0249 c 0.5505,-0.3013 0.9239,-0.7581 1.2912,-1.2074 0.1394,-0.1705 0.2779,-0.34 0.4249,-0.4994 z"
       fill="#808080"
       stroke="#333333"
       stroke-width="1.03499"
       stroke-miterlimit="3.99393"
       id="path56" />
    <path
       d="m 55.5918,47.5088 0.6632,1.1487 0.3912,-0.1942 -0.0531,-0.0921 4.3792,-2.5283 c 0.4833,-0.2802 0.7636,-0.3442 1.0341,-0.406 0.2661,-0.0608 0.5228,-0.1194 0.954,-0.3795 l 7.274,-4.3086 c 0.1403,-0.0741 0.3166,-0.1063 0.4948,-0.139 0.197,-0.0361 0.3964,-0.0726 0.552,-0.1664 0.4432,-0.2399 3.2815,-1.9153 3.2815,-1.9153 l -0.8539,-1.4792 z"
       stroke="#333333"
       stroke-width="0.517493"
       stroke-miterlimit="3.99393"
       id="path57" />
    <path
       d="m 106.06,19.2542 1.182,2.0473 1.906,-1.1006 -2.144,-3.7136 -0.787,0.4545 c -0.227,0.1313 -0.315,0.2724 -0.356,0.3555 l -0.152,0.3708 c -0.082,0.1615 -0.057,0.1672 0.036,0.338 l 0.34,0.5941 c 0.154,0.2941 0.03,0.4606 -0.025,0.654 z"
       fill="#4d4d4d"
       id="path58" />
    <path
       d="m 106.106,18.6473 0.451,-0.2602 0.246,0.4257 1.156,-0.6675 -0.958,-1.658 -0.787,0.4544 c -0.226,0.1313 -0.314,0.2724 -0.355,0.3554 l -0.153,0.3707 c -0.072,0.1429 -0.06,0.1638 0.007,0.2849 0.009,0.0158 0.019,0.0333 0.029,0.053 l 0.341,0.594 c 0.008,0.0162 0.016,0.0321 0.023,0.0476 z"
       fill="#404040"
       stroke="#333333"
       stroke-width="0.517493"
       stroke-miterlimit="3.99393"
       id="path59" />
    <path
       d="m 106.06,19.2542 1.182,2.0473 1.906,-1.1006 -2.144,-3.7136 -0.787,0.4545 c -0.227,0.1313 -0.315,0.2724 -0.356,0.3555 l -0.152,0.3708 c -0.082,0.1615 -0.057,0.1672 0.036,0.338 l 0.34,0.5941 c 0.154,0.2941 0.03,0.4606 -0.025,0.654 z"
       stroke="#333333"
       stroke-width="0.517491"
       stroke-miterlimit="3.99393"
       id="path60" />
    <path
       d="m 106.904,17.9553 c 0.11,-0.0635 0.148,-0.2042 0.084,-0.3142 -0.063,-0.1101 -0.204,-0.1478 -0.314,-0.0843 -0.11,0.0636 -0.148,0.2043 -0.084,0.3143 0.063,0.1101 0.204,0.1478 0.314,0.0842 z"
       fill="#383838"
       id="path61" />
    <rect
       x="55.412102"
       y="47.089802"
       width="20.816099"
       height="0.45482701"
       transform="rotate(-30,55.4121,47.0898)"
       fill="#404040"
       stroke="#333333"
       stroke-width="0.517493"
       id="rect61" />
  </g>
  <defs
     id="defs62">
    <clipPath
       id="clip0_2940_3888">
      <rect
         width="110"
         height="110"
         fill="#ffffff"
         id="rect62"
         x="0"
         y="0" />
    </clipPath>
  </defs>
</svg>
