<svg width="110" height="110" viewBox="0 0 110 110" fill="none" xmlns="http://www.w3.org/2000/svg">
<g clip-path="url(#clip0_2628_2470)">
<path d="M8.29658 57.9262L7.89824 56.0895L9.03728 55.4319L7.48661 54.6823L6.68945 55.1426L8.29658 57.9262Z" fill="#3D3D43" stroke="#303036" stroke-width="2.89316" stroke-miterlimit="3.99393"/>
<path d="M55.1009 38.5647L59.9032 35.688L60.3007 31.0476L100.701 7.6473L107.233 18.9604L66.7669 42.2474L62.5507 40.2736L57.6577 42.9933L55.1009 38.5647Z" fill="#3E3E41"/>
<path d="M97.6244 9.42972L104.151 20.7342L67.8839 41.605L61.4159 30.4021L97.6244 9.42972Z" fill="#39393C" stroke="#323234" stroke-width="1.44658" stroke-miterlimit="3.99393" stroke-linecap="square"/>
<path d="M55.1009 38.5647L59.9032 35.688L60.3007 31.0476L100.701 7.6473L107.233 18.9604L66.7669 42.2474L62.5507 40.2736L57.6577 42.9933L55.1009 38.5647Z" stroke="#323234" stroke-width="2.89316" stroke-miterlimit="3.99393"/>
<path d="M12.2226 68.9837L7.92974 67.6745L7.51529 66.4307L7.32841 66.3784L6.10993 69.5547C3.73892 70.8095 2.65532 72.8048 2.17775 74.5172C2.13944 74.6927 2.30746 74.7109 2.35845 74.5655C3.41544 72.1077 7.04522 69.8189 10.8014 71.4446" fill="#494950" stroke="#303036" stroke-width="1.44658" stroke-miterlimit="3.99393"/>
<path fill-rule="evenodd" clip-rule="evenodd" d="M38.1834 59.4869L29.3125 44.1221L46.9574 33.9357L49.9637 34.9648L50.4289 34.6954L53.7543 36.2386L57.7162 43.1007L41.3815 52.5315L42.2932 54.0996L41.5179 55.5635L41.99 56.4214L40.2116 57.4971L39.472 58.4395L38.3113 59.1929L38.1834 59.4869ZM51.42 37.2437L44.0695 41.4876L38.694 39.5833L46.0085 35.3912L51.42 37.2437ZM37.8671 40.0574L43.2455 41.9633L35.1616 46.6305C34.8343 46.8195 34.2593 46.729 33.9096 46.1658L32.2433 43.2798L37.8671 40.0574Z" fill="#4F4F55"/>
<path fill-rule="evenodd" clip-rule="evenodd" d="M29.3125 44.1221L33.1257 50.7267L54.8707 38.1722L53.754 36.238L50.4286 34.6949L49.9631 34.9637L46.9574 33.9357L29.3125 44.1221ZM46.0082 35.3907L38.6936 39.5827L44.0692 41.487L51.4197 37.2432L46.0082 35.3907ZM43.2452 41.9627L37.8668 40.0569L32.243 43.2793L33.9093 46.1653C34.259 46.7284 34.834 46.8189 35.1613 46.63L43.2452 41.9627Z" fill="#464649"/>
<path d="M41.8131 34.4905L43.2972 33.6336L46.4054 34.2533L41.4008 37.1427L40.8435 36.1774L42.3012 35.3358L41.8131 34.4905Z" fill="#3C3C3E" stroke="#303036" stroke-width="1.44658" stroke-miterlimit="3.99393"/>
<path fill-rule="evenodd" clip-rule="evenodd" d="M7.89865 56.0885L9.21942 62.1783L10.5706 64.2416C11.67 66.2338 11.0049 70.8304 9.39194 72.1649L11.4407 75.7136L37.9773 59.9594L38.1847 59.4836L29.1431 43.823L26.998 45.066L26.6351 44.4374L9.31226 54.4363L9.67426 55.0633L7.89865 56.0885ZM33.1168 57.7847L17.966 66.5319L11.9322 56.081L14.2125 54.7644L13.1246 52.8801L25.995 45.4494L33.1168 57.7847Z" fill="#55555E"/>
<path d="M29.4421 72.2818C30.1352 72.0516 29.9088 72.0337 29.0413 72.139C28.1739 72.2443 26.6324 71.7825 25.8415 70.9504C25.182 70.2565 24.6893 68.9547 25.034 67.3148L23.2817 68.3265C24.927 71.6276 27.5634 72.9055 29.4421 72.2818Z" fill="#464653" stroke="#303036" stroke-width="1.44658" stroke-miterlimit="3.99393"/>
<path d="M17.9667 66.5357L33.1159 57.7893L27.1374 47.4343L11.9883 56.1807L17.9667 66.5357Z" fill="#61616B"/>
<path d="M27.8023 48.5836L17.0574 54.7871C16.1401 55.3168 15.8258 56.4897 16.3554 57.4071C16.8851 58.3244 18.058 58.6387 18.9754 58.1091L29.7203 51.9055L27.8023 48.5836Z" fill="#404040"/>
<path d="M30.4625 53.1881L19.7176 59.3916C18.8003 59.9212 18.486 61.0942 19.0156 62.0115C19.5452 62.9289 20.7182 63.2432 21.6355 62.7136L32.3804 56.51L30.4625 53.1881Z" fill="#404040"/>
<path d="M17.8121 66.2667L17.9186 63.8549L14.3402 57.657L12.1982 56.5432L12.6813 57.3798L11.5183 58.0352L12.0683 58.9879L8.92015 60.7964L9.22061 62.1818L9.58106 62.7322L13.0834 60.7462L16.1801 66.1097L17.3361 65.4422L17.8121 66.2667Z" fill="#404040"/>
<path d="M14.9798 67.4133C15.329 67.2117 15.4487 66.7651 15.2471 66.4158C15.0454 66.0666 14.5988 65.9469 14.2496 66.1486C13.9003 66.3502 13.7807 66.7968 13.9823 67.1461C14.1839 67.4953 14.6305 67.615 14.9798 67.4133Z" fill="#3D3D43"/>
<path d="M13.138 63.387C13.4872 63.1853 13.6069 62.7387 13.4053 62.3895C13.2036 62.0402 12.757 61.9206 12.4078 62.1222C12.0585 62.3238 11.9389 62.7704 12.1405 63.1197C12.3421 63.4689 12.7887 63.5886 13.138 63.387Z" fill="#3D3D43"/>
<path d="M35.1888 57.5344C35.538 57.3328 35.6577 56.8862 35.456 56.5369C35.2544 56.1877 34.8078 56.068 34.4586 56.2697C34.1093 56.4713 33.9896 56.9179 34.1913 57.2672C34.3929 57.6164 34.8395 57.7361 35.1888 57.5344Z" fill="#3D3D43"/>
<path d="M37.1893 57.7654L10.1035 73.4033L11.4384 75.7154L37.9749 59.9612L38.1823 59.4854L37.1893 57.7654Z" fill="#61616B"/>
<path d="M41.5224 52.7714L42.2941 54.0987L41.519 55.5629L41.9912 56.4211L40.2124 57.496L39.473 58.4388L38.3126 59.1927L38.1846 59.4865L36.1137 55.8996L41.5224 52.7714Z" fill="#3D3D43"/>
<path d="M38.3772 56.3175C38.6131 56.1813 38.6939 55.8798 38.5577 55.6439C38.4215 55.408 38.1199 55.3272 37.8841 55.4634C37.6482 55.5996 37.5674 55.9012 37.7036 56.137C37.8398 56.3729 38.1413 56.4537 38.3772 56.3175Z" fill="#3D3D43"/>
<path d="M32.1467 46.0304C32.3826 45.8942 32.4634 45.5926 32.3272 45.3568C32.1911 45.1209 31.8895 45.0401 31.6536 45.1763C31.4178 45.3125 31.337 45.6141 31.4731 45.8499C31.6093 46.0858 31.9109 46.1666 32.1467 46.0304Z" fill="#3D3D43"/>
<rect x="42.6699" y="51.7881" width="1.01117" height="1.42539" transform="rotate(-30 42.6699 51.7881)" fill="#3D3D43" stroke="#303036" stroke-width="1.44658" stroke-miterlimit="3.99393"/>
<rect x="45.0312" y="50.4229" width="1.01117" height="1.42539" transform="rotate(-30 45.0312 50.4229)" fill="#3D3D43" stroke="#303036" stroke-width="1.44658" stroke-miterlimit="3.99393"/>
<rect x="47.3945" y="49.0605" width="1.01117" height="1.42539" transform="rotate(-30 47.3945 49.0605)" fill="#3D3D43" stroke="#303036" stroke-width="1.44658" stroke-miterlimit="3.99393"/>
<rect x="49.7539" y="47.6973" width="1.01117" height="1.42539" transform="rotate(-30 49.7539 47.6973)" fill="#3D3D43" stroke="#303036" stroke-width="1.44658" stroke-miterlimit="3.99393"/>
<rect x="52.1191" y="46.332" width="1.01117" height="1.42539" transform="rotate(-30 52.1191 46.332)" fill="#3D3D43" stroke="#303036" stroke-width="1.44658" stroke-miterlimit="3.99393"/>
<rect x="54.4805" y="44.9688" width="1.01117" height="1.42539" transform="rotate(-30 54.4805 44.9688)" fill="#3D3D43" stroke="#303036" stroke-width="1.44658" stroke-miterlimit="3.99393"/>
<rect x="56.8418" y="43.6064" width="1.01117" height="1.42539" transform="rotate(-30 56.8418 43.6064)" fill="#3D3D43" stroke="#303036" stroke-width="1.44658" stroke-miterlimit="3.99393"/>
<rect x="28.4004" y="42.5381" width="1.01117" height="1.8393" transform="rotate(-30 28.4004 42.5381)" fill="#3D3D43" stroke="#303036" stroke-width="1.44658" stroke-miterlimit="3.99393"/>
<rect x="30.7012" y="41.2109" width="1.01117" height="1.8393" transform="rotate(-30 30.7012 41.2109)" fill="#3D3D43" stroke="#303036" stroke-width="1.44658" stroke-miterlimit="3.99393"/>
<rect x="33" y="39.8838" width="1.01117" height="1.8393" transform="rotate(-30 33 39.8838)" fill="#3D3D43" stroke="#303036" stroke-width="1.44658" stroke-miterlimit="3.99393"/>
<rect x="35.2988" y="38.5566" width="1.01117" height="1.8393" transform="rotate(-30 35.2988 38.5566)" fill="#3D3D43" stroke="#303036" stroke-width="1.44658" stroke-miterlimit="3.99393"/>
<rect x="37.5996" y="37.2285" width="1.01117" height="1.8393" transform="rotate(-30 37.5996 37.2285)" fill="#3D3D43" stroke="#303036" stroke-width="1.44658" stroke-miterlimit="3.99393"/>
<path d="M22.5253 78.5265L22.0064 73.9774C22.1052 74.0953 22.203 74.2132 22.297 74.3266C22.5858 74.6751 22.8393 74.9808 22.9779 75.1129C23.4873 75.5981 24.3866 75.909 24.9525 75.8914C25.6858 75.8686 26.6557 75.8084 27.4615 75.5298C28.186 75.2793 28.8236 74.8632 29.459 74.4282C31.1216 73.29 33.6964 71.1632 34.6375 69.9677C35.0104 69.4941 35.2021 69.1107 35.3177 68.6605C35.4324 68.2138 35.4188 67.7574 35.2763 67.2138C35.001 66.1633 34.1508 64.8919 32.6849 63.1055L33.9286 62.3671C35.3577 64.1314 36.1908 65.5072 36.5031 66.6988C36.6732 67.3476 36.5865 68.1916 36.4378 68.7707C36.2901 69.3462 35.9315 69.927 35.5171 70.4533C33.9012 72.5058 32.1625 73.6693 30.6432 74.686C30.3942 74.8526 30.1455 75.0197 29.8983 75.189C29.3383 75.5724 28.5271 76.1007 27.694 76.3887C26.8558 76.6785 26.0614 76.8882 25.3215 77.0224C24.7427 77.1273 24.0998 77.2447 23.712 77.4686C23.3872 77.6561 22.8946 78.1052 22.5253 78.5265Z" fill="#464653" stroke="#303036" stroke-width="1.44658" stroke-miterlimit="3.99393"/>
<path fill-rule="evenodd" clip-rule="evenodd" d="M7.89783 56.0892L9.2186 62.179L10.5698 64.2423C11.6692 66.2345 11.004 70.8311 9.39112 72.1656L11.4399 75.7143L37.9765 59.9601L38.1839 59.4843L29.1422 43.8237L26.9972 45.0667L26.4534 44.1249L9.13062 54.1238L9.67344 55.064L7.89783 56.0892ZM33.1159 57.7853L17.9652 66.5326L11.9313 56.0817L14.2117 54.7651L13.1238 52.8808L25.9942 45.4501L33.1159 57.7853Z" stroke="#303036" stroke-width="1.44658" stroke-miterlimit="3.99393"/>
<path d="M17.9667 66.5357L33.1159 57.7893L27.1374 47.4343L11.9883 56.1807L17.9667 66.5357Z" stroke="#303036" stroke-width="1.44658" stroke-miterlimit="3.99393"/>
<path fill-rule="evenodd" clip-rule="evenodd" d="M29.3125 44.1221L33.1257 50.7267L54.8707 38.1722L53.754 36.238L50.4286 34.6949L49.9631 34.9637L46.9574 33.9357L29.3125 44.1221ZM46.0082 35.3907L38.6936 39.5827L44.0692 41.487L51.4197 37.2432L46.0082 35.3907ZM43.2452 41.9627L37.8668 40.0569L32.243 43.2793L33.9093 46.1653C34.259 46.7284 34.834 46.8189 35.1613 46.63L43.2452 41.9627Z" stroke="#303036" stroke-width="1.44658" stroke-miterlimit="3.99393"/>
<path d="M49.9864 36.3744L42.191 40.8751C41.4372 41.3103 41.179 42.2741 41.6141 43.0279L42.2947 44.2066C42.7298 44.9603 43.6937 45.2186 44.4474 44.7834L52.2429 40.2827C52.9966 39.8475 53.2549 38.8837 52.8197 38.1299L52.1392 36.9513C51.704 36.1975 50.7402 35.9392 49.9864 36.3744Z" fill="#3D3D43"/>
<path d="M50.0262 36.3517L50.806 37.7023L52.0588 36.9791L51.8151 36.557C51.3322 36.1311 50.6195 36.032 50.0262 36.3517Z" fill="#35353B"/>
<path d="M52.9989 38.6074L52.7552 38.1853L51.5024 38.9086L52.2829 40.2605C52.8565 39.9065 53.1256 39.2373 52.9989 38.6074Z" fill="#35353B"/>
<path d="M51.2459 40.8592L50.4654 39.5073L49.2127 40.2306L49.9932 41.5825L51.2459 40.8592Z" fill="#35353B"/>
<path d="M48.9562 42.1812L48.1757 40.8293L46.9229 41.5526L47.7034 42.9045L48.9562 42.1812Z" fill="#35353B"/>
<path d="M46.6664 43.5032L45.8859 42.1513L44.6331 42.8746L45.4136 44.2265L46.6664 43.5032Z" fill="#35353B"/>
<path d="M44.3767 44.8252L43.5962 43.4733L42.3434 44.1966L42.5306 44.5208C43.0039 45.006 43.753 45.1445 44.3767 44.8252Z" fill="#35353B"/>
<path d="M41.4598 42.6661L41.647 42.9903L42.8998 42.267L42.12 40.9164C41.5315 41.2969 41.2762 42.0136 41.4598 42.6661Z" fill="#35353B"/>
<path d="M43.1569 40.3177L43.9367 41.6683L45.1894 40.9451L44.4097 39.5944L43.1569 40.3177Z" fill="#35353B"/>
<path d="M45.4466 38.9957L46.2264 40.3463L47.4792 39.6231L46.6994 38.2724L45.4466 38.9957Z" fill="#35353B"/>
<path d="M47.7364 37.6737L48.5162 39.0243L49.769 38.3011L48.9892 36.9504L47.7364 37.6737Z" fill="#35353B"/>
<path d="M45.3718 44.2501L52.2416 40.2839C52.4321 40.1739 52.5909 40.0302 52.7149 39.8646L51.5375 41.9039L46.806 44.6356L45.3718 44.2501Z" fill="#37373E"/>
<path d="M50.6319 41.1468L49.2452 41.9474C49.1033 42.0293 49.0547 42.2107 49.1366 42.3526C49.2185 42.4945 49.3999 42.5431 49.5418 42.4612L50.9285 41.6605C51.0704 41.5786 51.119 41.3972 51.0371 41.2553C50.9552 41.1135 50.7738 41.0648 50.6319 41.1468Z" fill="#53535F"/>
<path d="M42.8157 42.0813C43.165 41.8797 43.2846 41.4331 43.083 41.0838C42.8814 40.7346 42.4348 40.6149 42.0855 40.8165C41.7363 41.0182 41.6166 41.4648 41.8182 41.814C42.0199 42.1633 42.4665 42.2829 42.8157 42.0813Z" fill="#53535F"/>
<path d="M42.191 40.8751L49.9864 36.3744C50.7402 35.9392 51.704 36.1975 52.1392 36.9513L52.8197 38.1299C53.1451 38.6935 53.0828 39.3744 52.7157 39.8641L51.5387 41.9026L46.8072 44.6344L45.3732 44.2489L44.4474 44.7834C43.6937 45.2186 42.7298 44.9603 42.2947 44.2066L41.6141 43.0279C41.179 42.2741 41.4372 41.3103 42.191 40.8751Z" stroke="#303036" stroke-width="1.44658" stroke-miterlimit="3.99393"/>
<path d="M7.89865 56.0885L9.21942 62.1783L10.5706 64.2416C11.67 66.2338 11.0049 70.8304 9.39194 72.1649L11.4407 75.7136L37.9773 59.9594L38.3138 59.1917L39.4745 58.4384L40.2141 57.4959L41.9925 56.4202L41.5204 55.5623L42.2957 54.0985L41.3841 52.5303L57.7188 43.0995L53.7569 36.2374L50.4315 34.6943L49.9663 34.9636L46.9599 33.9346L29.3151 44.1209L29.1431 43.823L26.998 45.066L26.6351 44.4374L9.31226 54.4363L9.67426 55.0633L7.89865 56.0885Z" stroke="#303036" stroke-width="2.89316" stroke-miterlimit="3.99393"/>
<path d="M21.7686 69.5072C21.8249 69.4744 21.8861 69.4401 21.9482 69.4076L22.4034 69.1549L22.4827 69.2922C22.5095 69.3383 22.4976 69.4253 22.4281 69.5694C21.7748 70.9245 21.849 71.7803 21.9366 72.789C21.9672 73.1425 21.9995 73.5148 22.0027 73.934L22.5458 78.6955C20.0435 80.0423 20.0375 80.4936 20.9102 82.6991L24.6101 94.3206C24.8559 95.0189 24.106 95.4582 23.0394 96.0828C22.924 96.1504 22.8049 96.2202 22.6829 96.2927L15.888 100.1C14.5378 100.882 14.3431 100.967 14.2033 100.736C14.1817 100.7 14.1613 100.656 14.138 100.606C14.122 100.571 14.1046 100.534 14.0845 100.494C9.91838 92.2504 10.1227 86.5597 10.224 83.7393C10.2425 83.2236 10.2576 82.8039 10.2419 82.482C10.2168 81.7587 9.97848 80.9392 9.52553 80.1864C8.51227 78.5007 6.42303 77.1487 3.24192 77.9581C2.74178 78.0912 2.45695 78.1579 2.41643 78.0966C2.36311 77.9988 2.87648 77.6026 4.05882 76.6901L4.2485 76.5436C5.94456 75.0598 7.66297 73.596 9.39292 72.1646C9.49003 72.0843 9.5837 71.9921 9.67376 71.8894C9.70538 71.9355 9.74145 71.9793 9.78339 72.0183L11.4414 75.7128L21.7686 69.5072Z" fill="#4B4B4E"/>
<path d="M20.3835 80.8883C20.3978 81.3488 20.5973 81.9123 20.9085 82.6988L24.6084 94.3202C24.8542 95.0186 24.1043 95.4578 23.0377 96.0825C22.9223 96.1501 22.8032 96.2199 22.6813 96.2923L15.8863 100.099C14.5361 100.881 14.3414 100.967 14.2016 100.735C14.18 100.699 14.1596 100.655 14.1363 100.605C14.1203 100.571 14.1029 100.534 14.0828 100.494C9.91669 92.2501 10.121 86.5594 10.2223 83.739C10.2409 83.2233 10.2559 82.8036 10.2402 82.4817C10.217 81.8137 10.012 81.0637 9.62403 80.36L20.3835 80.8883Z" fill="#373739"/>
<path d="M9.99158 81.1866L20.5251 81.6375C20.5756 81.8069 20.6386 81.9896 20.7123 82.1885L10.1456 81.7362C10.1061 81.5546 10.0548 81.3707 9.99158 81.1866Z" fill="#3E3E41"/>
<path d="M10.2472 82.9146C10.249 82.7555 10.2476 82.6117 10.2413 82.4835C10.24 82.4463 10.2382 82.4088 10.2358 82.3712L20.9508 82.8298L21.126 83.3803L10.2472 82.9146Z" fill="#3E3E41"/>
<path d="M10.2113 84.0872C10.2153 83.9673 10.2195 83.8518 10.2235 83.7408C10.2259 83.6739 10.2282 83.6087 10.2304 83.545L21.3298 84.0202L21.505 84.5706L10.2113 84.0872Z" fill="#3E3E41"/>
<path d="M10.1856 85.2602C10.1869 85.072 10.1897 84.8911 10.1935 84.7175L21.7087 85.2105L21.884 85.7609L10.1856 85.2602Z" fill="#3E3E41"/>
<path d="M10.1995 86.4348C10.1936 86.2483 10.1897 86.0671 10.1874 85.8914L22.0877 86.4008L22.2629 86.9512L10.1995 86.4348Z" fill="#3E3E41"/>
<path d="M10.261 87.6116C10.2474 87.4258 10.2359 87.2443 10.2264 87.0671L22.4666 87.5911L22.6419 88.1415L10.261 87.6116Z" fill="#3E3E41"/>
<path d="M10.3728 88.7904C10.3512 88.6051 10.332 88.4233 10.3148 88.245L22.8456 88.7814L23.0208 89.3318L10.3728 88.7904Z" fill="#3E3E41"/>
<path d="M10.5352 89.9715C10.5058 89.7863 10.4787 89.6042 10.4538 89.425L23.2245 89.9717L23.3998 90.5222L10.5352 89.9715Z" fill="#3E3E41"/>
<path d="M10.7481 91.1547C10.711 90.9696 10.6761 90.7871 10.6434 90.6072L23.6035 91.162L23.7787 91.7125L10.7481 91.1547Z" fill="#3E3E41"/>
<path d="M11.0109 92.34C10.9661 92.1549 10.9235 91.9721 10.8832 91.7916L23.9825 92.3523L24.1577 92.9028L11.0109 92.34Z" fill="#3E3E41"/>
<path d="M11.3228 93.5274C11.2704 93.3422 11.2204 93.1591 11.1725 92.978L24.3614 93.5426L24.5367 94.0931L11.3228 93.5274Z" fill="#3E3E41"/>
<path d="M11.6831 94.7169C11.6233 94.5316 11.5658 94.3482 11.5105 94.1666L24.6397 94.7286C24.5968 94.916 24.4732 95.0877 24.2887 95.2565L11.6831 94.7169Z" fill="#3E3E41"/>
<path d="M12.091 95.9085C12.0239 95.723 11.9591 95.5392 11.8965 95.3572L23.4339 95.8511C23.3085 95.9264 23.1763 96.0038 23.0388 96.0843C22.9234 96.1519 22.8043 96.2216 22.6824 96.2941L22.57 96.3571L12.091 95.9085Z" fill="#3E3E41"/>
<path d="M21.7686 69.5072C21.8249 69.4744 21.8861 69.4401 21.9482 69.4076L22.4034 69.1549L22.4827 69.2922C22.5095 69.3383 22.4976 69.4253 22.4281 69.5694C21.7748 70.9245 21.849 71.7803 21.9366 72.789C21.9672 73.1425 21.9995 73.5148 22.0027 73.934L22.5458 78.6955C20.0435 80.0423 20.0375 80.4936 20.9102 82.6991L24.6101 94.3206C24.8559 95.0189 24.106 95.4582 23.0394 96.0828C22.924 96.1504 22.8049 96.2202 22.6829 96.2927L15.888 100.1C14.5378 100.882 14.3431 100.967 14.2033 100.736C14.1817 100.7 14.1613 100.656 14.138 100.606C14.122 100.571 14.1046 100.534 14.0845 100.494C9.91838 92.2504 10.1227 86.5597 10.224 83.7393C10.2425 83.2236 10.2576 82.8039 10.2419 82.482C10.2168 81.7587 9.97848 80.9392 9.52553 80.1864C8.51227 78.5007 6.42303 77.1487 3.24192 77.9581C2.74178 78.0912 2.45695 78.1579 2.41643 78.0966C2.36311 77.9988 2.87648 77.6026 4.05882 76.6901L4.2485 76.5436C5.94456 75.0598 7.66297 73.596 9.39292 72.1646C9.49003 72.0843 9.5837 71.9921 9.67376 71.8894C9.70538 71.9355 9.74145 71.9793 9.78339 72.0183L11.4414 75.7128L21.7686 69.5072Z" stroke="#323234" stroke-width="2.89316" stroke-miterlimit="29"/>
<path d="M15.361 81.8802C15.8865 81.5767 16.0666 80.9047 15.7632 80.3792C15.4597 79.8536 14.7877 79.6735 14.2622 79.977C13.7366 80.2804 13.5565 80.9524 13.86 81.478C14.1634 82.0035 14.8354 82.1836 15.361 81.8802Z" fill="#434346"/>
<path d="M18.1305 93.805C18.6561 93.5015 18.8361 92.8295 18.5327 92.304C18.2293 91.7784 17.5572 91.5983 17.0317 91.9018C16.5061 92.2052 16.3261 92.8772 16.6295 93.4028C16.9329 93.9283 17.6049 94.1084 18.1305 93.805Z" fill="#434346"/>
</g>
<defs>
<clipPath id="clip0_2628_2470">
<rect width="110" height="110" fill="white"/>
</clipPath>
</defs>
</svg>
