<?xml version="1.0" encoding="UTF-8" standalone="no"?>
<!-- Created with Inkscape (http://www.inkscape.org/) -->

<svg
   width="136.87073"
   height="29.043247"
   viewBox="0 0 36.213713 7.6843591"
   version="1.1"
   id="svg1"
   xml:space="preserve"
   inkscape:version="1.4 (1:1.4+202410161351+e7c3feb100)"
   sodipodi:docname="seedshot_world.svg"
   inkscape:export-filename="Seedshot_world(henry).png"
   inkscape:export-xdpi="179.55629"
   inkscape:export-ydpi="179.55629"
   xmlns:inkscape="http://www.inkscape.org/namespaces/inkscape"
   xmlns:sodipodi="http://sodipodi.sourceforge.net/DTD/sodipodi-0.dtd"
   xmlns="http://www.w3.org/2000/svg"
   xmlns:svg="http://www.w3.org/2000/svg"><sodipodi:namedview
     id="namedview1"
     pagecolor="#505050"
     bordercolor="#eeeeee"
     borderopacity="1"
     inkscape:showpageshadow="0"
     inkscape:pageopacity="0"
     inkscape:pagecheckerboard="0"
     inkscape:deskcolor="#505050"
     inkscape:document-units="px"
     inkscape:zoom="8"
     inkscape:cx="58.625"
     inkscape:cy="21.5625"
     inkscape:window-width="2560"
     inkscape:window-height="1368"
     inkscape:window-x="0"
     inkscape:window-y="0"
     inkscape:window-maximized="1"
     inkscape:current-layer="layer1" /><defs
     id="defs1" /><g
     inkscape:label="Layer 1"
     inkscape:groupmode="layer"
     id="layer1"
     transform="translate(-0.01710242,0.00572133)"><path
       style="fill:none;fill-opacity:1;stroke:#151517;stroke-width:0.396875;stroke-linecap:round;stroke-linejoin:round;stroke-miterlimit:29;stroke-dasharray:none;stroke-opacity:1"
       d="m 10.08187,6.0244868 c 0,0 1.701857,1.2320831 5.067876,1.2320831 3.044007,0 5.92126,-1.4543665 5.92126,-1.4543665"
       id="path19"
       sodipodi:nodetypes="csc" /><path
       style="fill:#90642a;fill-opacity:1;stroke:#191816;stroke-width:1.14425;stroke-linecap:round;stroke-linejoin:round;stroke-miterlimit:29;stroke-opacity:1"
       d="M 0.58922615,2.8831145 6.5149825,3.3311895 V 4.44014 L 0.63625645,5.149592 Z"
       id="path1"
       sodipodi:nodetypes="ccccc" /><path
       d="M 8.3071555,4.8776434 H 6.043204 L 6.078203,2.8936861 h 2.2259522 z"
       style="fill:#7b4b11;fill-opacity:1;stroke:#181716;stroke-width:0.793733;stroke-linecap:butt;stroke-linejoin:round;stroke-dasharray:none;stroke-opacity:1"
       id="path2" /><path
       style="fill:#a76c31;fill-rule:evenodd;stroke-linecap:round;stroke-linejoin:round;stroke-miterlimit:5.89"
       d="m 29.4867,2.9596846 h 6.347247 V 4.8116449 H 29.4867 Z"
       id="path9" /><rect
       style="fill:#ba8237;fill-opacity:1;stroke:none;stroke-width:0.717707;stroke-linecap:round;stroke-linejoin:round"
       id="rect1"
       width="4.441287"
       height="0.81028646"
       x="31.142225"
       y="3.4805989" /><path
       style="fill:#181716;fill-rule:evenodd;stroke-linecap:round;stroke-linejoin:round;stroke-miterlimit:5.89"
       d="M 29.486328,2.5625 A 0.39690619,0.39690619 0 0 0 29.089844,2.9589844 V 4.8125 a 0.39690619,0.39690619 0 0 0 0.396484,0.3964844 h 6.347656 A 0.39690619,0.39690619 0 0 0 36.230469,4.8125 V 2.9589844 A 0.39690619,0.39690619 0 0 0 35.833984,2.5625 Z m 0.396484,0.7949219 H 35.4375 v 1.0566406 h -5.554688 z"
       id="path13" /><path
       d="M 31.252662,5.6226274 30.669675,6.1516161 H 20.002904 L 19.415917,5.6216275 V 2.149702 l 0.603987,-0.5299886 h 10.69977 l 0.529988,0.5739877 z"
       style="fill:#ae7833;fill-opacity:1;stroke:none;stroke-width:0.793733;stroke-linecap:butt;stroke-linejoin:round;stroke-dasharray:none;stroke-opacity:1"
       id="path7" /><path
       d="M 19.577021,5.1076386 H 31.102996 V 5.97262 H 20.212764 Z m -0.0489,-2.4619471 H 31.054093 V 1.77971 H 20.163861 Z"
       style="fill:#865c27;fill-opacity:1;stroke:none;stroke-width:0.827451;stroke-linecap:butt;stroke-linejoin:round;stroke-dasharray:none;stroke-opacity:1"
       id="path15-8" /><path
       d="m 31.309861,5.4205344 -0.66857,0.554562 H 19.007812 L 18.418548,5.4205344 V 2.3536657 l 0.606331,-0.5404329 h 11.666604 l 0.614363,0.5792876 z"
       style="fill:none;fill-opacity:1;stroke:#171716;stroke-width:0.747335;stroke-linecap:butt;stroke-linejoin:round;stroke-dasharray:none;stroke-opacity:1"
       id="path10"
       sodipodi:nodetypes="ccccccccc" /><path
       id="path3"
       style="fill:#a76c31;fill-opacity:1;stroke:none;stroke-width:0.539623;stroke-linecap:round;stroke-linejoin:round;stroke-miterlimit:29;stroke-opacity:1"
       d="m 21.79217,2.254089 c 0,0 -0.336413,0.00808 -0.336413,0.1979208 0,0.1898428 0.336413,0.1979207 0.336413,0.1979207 h 2.76779 c 0,0 0.380855,-0.010093 0.380855,-0.1979207 0,-0.1878279 -0.380855,-0.1979208 -0.380855,-0.1979208 z m 3.889685,0 c 0,0 -0.33693,0.00808 -0.33693,0.1979208 0,0.1898428 0.33693,0.1979207 0.33693,0.1979207 h 2.767273 c 0,0 0.380856,-0.010093 0.380856,-0.1979207 0,-0.1878279 -0.380856,-0.1979208 -0.380856,-0.1979208 z M 21.79217,5.1278154 c 0,0 -0.336413,0.00859 -0.336413,0.1984375 0,0.1898428 0.336413,0.1979207 0.336413,0.1979207 h 2.76779 c 0,0 0.380855,-0.010093 0.380855,-0.1979207 0,-0.1878278 -0.380855,-0.1984375 -0.380855,-0.1984375 z m 3.889685,0 c 0,0 -0.33693,0.00859 -0.33693,0.1984375 0,0.1898428 0.33693,0.1979207 0.33693,0.1979207 h 2.767273 c 0,0 0.380856,-0.010093 0.380856,-0.1979207 0,-0.1878278 -0.380856,-0.1984375 -0.380856,-0.1984375 z" /><path
       d="M 24.541806,4.9036429 H 20.154901 L 19.426916,5.9436206 H 9.5781283 L 8.8981428,5.4136319 H 7.9891622 V 2.3716973 l 0.9079806,-0.012 0.6809855,-0.5299886 9.8257887,0.013 0.727984,1.0779769 h 4.405906 l 0.529988,0.5769876 0.003,0.8099826 z"
       style="fill:#c57f39;fill-opacity:1;stroke:none;stroke-width:0.793733;stroke-linecap:butt;stroke-linejoin:round;stroke-dasharray:none;stroke-opacity:1"
       id="path11" /><path
       d="M 9.3451332,2.3636974 H 7.9231636 v 3.0439347 h 1.3229717 z"
       style="fill:#59544f;fill-opacity:1;stroke:none;stroke-width:0.793733;stroke-linecap:butt;stroke-linejoin:round;stroke-dasharray:none;stroke-opacity:1"
       id="path12" /><path
       d="M 19.805908,5.1076385 H 9.2001363 V 5.9726199 H 19.220921 Z m 0.045,-2.4619471 H 9.2451353 V 1.77971 H 19.26592 Z"
       style="fill:#9e662e;fill-opacity:1;stroke:none;stroke-width:0.793733;stroke-linecap:butt;stroke-linejoin:round;stroke-dasharray:none;stroke-opacity:1"
       id="path15" /><path
       d="M 9.1801367,5.828623 V 1.9437065"
       style="fill:#b98946;fill-opacity:1;stroke:#171716;stroke-width:0.793733;stroke-linecap:butt;stroke-linejoin:round;stroke-dasharray:none;stroke-opacity:1"
       id="path17" /><path
       d="M 20.045903,4.7366645 V 5.9416206 H 9.4691305 L 8.4721519,5.412632 H 7.8801645 V 2.3706973 l 0.5919874,-0.012 0.9969786,-0.5299887 10.5527735,0.013 v 1.2063595 h 4.934894 l 0.004,1.6885964 z"
       style="fill:none;fill-opacity:1;stroke:#171716;stroke-width:0.793733;stroke-linecap:butt;stroke-linejoin:round;stroke-dasharray:none;stroke-opacity:1"
       id="path20"
       sodipodi:nodetypes="ccccccccccccc" /><path
       style="fill:#a46216;fill-opacity:1;stroke:#171716;stroke-width:0.79375;stroke-linecap:round;stroke-linejoin:round;stroke-miterlimit:29;stroke-dasharray:none;stroke-opacity:1"
       d="m 7.4339443,2.5798738 v 2.6322515 c 0,0 0.020912,0.625438 0.6600768,0.625438 0.6391649,0 0.6600767,-0.625438 0.6600767,-0.625438 V 4.5918143 H 9.2199707 V 3.1924516 H 8.7540978 V 2.5798738 c 0,0 0.015785,-0.6627776 -0.6600767,-0.6627776 -0.6758614,0 -0.6600768,0.6627776 -0.6600768,0.6627776 z"
       id="path5"
       sodipodi:nodetypes="cczcccccczc" /><path
       style="fill:#433f3b;fill-opacity:1;stroke:#171716;stroke-width:0.79375;stroke-linecap:round;stroke-linejoin:round;stroke-miterlimit:29;stroke-dasharray:none;stroke-opacity:1"
       d="m 16.262179,3.3454018 h 2.904338 v 1.0825258 h -2.904338 z"
       id="path8"
       sodipodi:nodetypes="ccccc" /><path
       style="fill:#996733;fill-opacity:1;stroke:#171716;stroke-width:0;stroke-linecap:round;stroke-linejoin:round;stroke-miterlimit:29;stroke-dasharray:none;stroke-opacity:1"
       d="m 33.946298,3.358993 c 0,0 -0.340342,0.2871883 -0.229693,0.3978379 0.110651,0.1106498 0.204023,0.259719 0.0876,0.3269348 -0.116422,0.067216 -0.115689,0.3379509 0,0.3379509 h 1.6332 V 3.358993 Z"
       id="path14"
       sodipodi:nodetypes="csssccc" /><path
       style="fill:#363430;fill-opacity:1;stroke:#171716;stroke-width:0;stroke-linecap:round;stroke-linejoin:round;stroke-miterlimit:29;stroke-dasharray:none;stroke-opacity:1"
       d="m 15.865927,3.4012501 h -0.879241 v 0.9708291 h 0.89615 z"
       id="path16" /><path
       style="fill:#43413b;fill-opacity:1;stroke:#171716;stroke-width:0;stroke-linecap:round;stroke-linejoin:round;stroke-miterlimit:29;stroke-dasharray:none;stroke-opacity:1"
       d="m 15.609639,3.4014935 -0.0093,0.9574432 c 0,0 -0.410001,0.175074 -0.562553,0.177889 -0.152552,0.0028 -0.151818,-0.198023 -0.151818,-0.198023 V 3.4014935 c 0,0 0.0078,-0.165019 0.151818,-0.165019 0.144052,0 0.571888,0.165019 0.571888,0.165019 z"
       id="path18"
       sodipodi:nodetypes="cczcczcc" /><g
       id="g23"
       transform="translate(-0.42456075,0.01081512)"><path
         style="fill:#43413b;fill-opacity:1;stroke:#171716;stroke-width:0.79375;stroke-linecap:round;stroke-linejoin:round;stroke-miterlimit:29;stroke-dasharray:none;stroke-opacity:1"
         d="M 15.015104,1.7859375 V 0.42994792"
         id="path21" /><path
         style="fill:#43413b;fill-opacity:1;stroke:#171716;stroke-width:0.79375;stroke-linecap:round;stroke-linejoin:round;stroke-miterlimit:29;stroke-dasharray:none;stroke-opacity:1"
         d="M 30.129427,1.7859375 V 0.38033854"
         id="path23"
         sodipodi:nodetypes="cc" /></g><path
       style="fill:#363430;fill-opacity:1;stroke:none;stroke-width:0.79375;stroke-linecap:round;stroke-linejoin:round;stroke-miterlimit:29;stroke-dasharray:none;stroke-opacity:1"
       d="m 14.344989,0.51424533 c 0,0 -0.03687,-0.28938801 0.245554,-0.28938801 0.28242,0 0.245554,0.28938801 0.245554,0.28938801 V 1.1690556 c 0,0 -0.0026,0.2232421 -0.245554,0.2232421 -0.242913,0 -0.245554,-0.2232421 -0.245554,-0.2232421 z"
       id="path24"
       sodipodi:nodetypes="czcczcc" /><path
       style="fill:#363430;fill-opacity:1;stroke:none;stroke-width:0.79375;stroke-linecap:round;stroke-linejoin:round;stroke-miterlimit:29;stroke-dasharray:none;stroke-opacity:1"
       d="m 29.459312,0.51424533 c 0,0 -0.03687,-0.28938801 0.245554,-0.28938801 0.28242,0 0.245554,0.28938801 0.245554,0.28938801 V 1.1690556 c 0,0 -0.0026,0.2232421 -0.245554,0.2232421 -0.242913,0 -0.245554,-0.2232421 -0.245554,-0.2232421 z"
       id="path24-3"
       sodipodi:nodetypes="czcczcc" /><g
       id="g25"
       transform="translate(-0.42456075,0.78170579)"><path
         style="fill:#171716;fill-opacity:1;stroke:none;stroke-width:1.06493;stroke-linecap:round;stroke-linejoin:round;stroke-miterlimit:29;stroke-dasharray:none;stroke-opacity:1"
         d="m 29.815234,-0.06614583 h 0.628385 v -0.14882812 h -0.624252 z"
         id="path25" /><path
         style="fill:#171716;fill-opacity:1;stroke:none;stroke-width:1.06493;stroke-linecap:round;stroke-linejoin:round;stroke-miterlimit:29;stroke-dasharray:none;stroke-opacity:1"
         d="m 29.815234,0.26871744 h 0.628385 V 0.11988932 h -0.624252 z"
         id="path25-1" /></g><path
       style="fill:#171716;fill-opacity:1;stroke:none;stroke-width:1.83591;stroke-linecap:round;stroke-linejoin:round;stroke-miterlimit:29;stroke-dasharray:none;stroke-opacity:1"
       d="m 14.27635,1.0297422 h 0.628385 V 0.58741284 h -0.624252 z"
       id="path25-6" /><path
       style="fill:#171716;fill-opacity:1;stroke:none;stroke-width:1.83591;stroke-linecap:round;stroke-linejoin:round;stroke-miterlimit:29;stroke-dasharray:none;stroke-opacity:1"
       d="m 29.390673,1.0504232 h 0.628385 V 0.60809385 h -0.624252 z"
       id="path4" /><g
       id="g13"
       transform="translate(0,11.697477)"><path
         style="fill:#313131;fill-opacity:1;stroke:none;stroke-width:0.315839;stroke-linecap:square;stroke-linejoin:round;stroke-dasharray:none;stroke-opacity:1"
         d="M 14.567507,-4.983838 V -5.564316"
         id="path3-8" /><path
         id="path11-8-2-1-9"
         style="fill:#f2bb62;fill-opacity:1;fill-rule:evenodd;stroke:#8d5c0c;stroke-width:0.158572;stroke-linejoin:round;stroke-opacity:1"
         d="m 15.122644,-10.292935 c 0.197869,-0.128866 1.007641,-0.311931 1.084722,-0.161323 0.07468,0.145907 -0.468345,0.8501355 -0.666214,0.9789975 -0.611606,0.398315 -1.030114,-0.4193609 -0.418508,-0.8176745 z"
         sodipodi:nodetypes="ssss" /><path
         id="path32"
         style="fill:#f2bb62;fill-opacity:1;fill-rule:evenodd;stroke:#8d5c0c;stroke-width:0.158572;stroke-linejoin:round;stroke-opacity:1"
         d="m 14.193078,-9.5386517 c 0.04168,0.253405 -0.07548,1.175587 -0.227058,1.207309 -0.146852,0.03073 -0.55423,-0.781653 -0.595911,-1.035057 -0.12884,-0.7832623 0.69413,-0.9555143 0.822969,-0.172252 z"
         sodipodi:nodetypes="ssss" /><path
         id="path33"
         style="fill:#f2bb62;fill-opacity:1;fill-rule:evenodd;stroke:#8d5c0c;stroke-width:0.158572;stroke-linejoin:round;stroke-opacity:1"
         d="m 13.536348,-8.0209402 c 0.214847,0.0877 0.860632,0.668415 0.808169,0.83194 -0.05082,0.158423 -0.878144,0.143588 -1.092987,0.05588 -0.664077,-0.271078 -0.379257,-1.158905 0.284818,-0.887825 z"
         sodipodi:nodetypes="ssss" /><path
         id="path34"
         style="fill:#f2bb62;fill-opacity:1;fill-rule:evenodd;stroke:#8d5c0c;stroke-width:0.158572;stroke-linejoin:round;stroke-opacity:1"
         d="m 19.279381,-9.049241 c -0.116977,0.221391 -0.744632,0.826874 -0.877059,0.737835 -0.128297,-0.08626 0.04109,-0.999844 0.158065,-1.22123 0.361572,-0.684304 1.080567,-0.2009072 0.718994,0.483395 z"
         sodipodi:nodetypes="ssss" /><path
         id="path35"
         style="fill:#f2bb62;fill-opacity:1;fill-rule:evenodd;stroke:#8d5c0c;stroke-width:0.158572;stroke-linejoin:round;stroke-opacity:1"
         d="m 20.819124,-6.1187199 c -0.221678,-0.06242 -0.916783,-0.565496 -0.879439,-0.734221 0.03617,-0.163461 0.860496,-0.24426 1.082169,-0.181835 0.685193,0.192951 0.482462,1.109009 -0.20273,0.916056 z"
         sodipodi:nodetypes="ssss" /><path
         id="path36"
         style="fill:#f2bb62;fill-opacity:1;fill-rule:evenodd;stroke:#8d5c0c;stroke-width:0.158572;stroke-linejoin:round;stroke-opacity:1"
         d="m 17.974684,-9.6362941 c -0.210248,0.100886 -1.033716,0.171975 -1.094059,0.01195 -0.05847,-0.1550313 0.556175,-0.7798939 0.766422,-0.8807759 0.649869,-0.311828 0.977507,0.5570042 0.327637,0.8688309 z"
         sodipodi:nodetypes="ssss" /><path
         id="path37"
         style="fill:#f2bb62;fill-opacity:1;fill-rule:evenodd;stroke:#8d5c0c;stroke-width:0.158572;stroke-linejoin:round;stroke-opacity:1"
         d="m 16.75789,-9.9427345 c 0.05663,0.2496886 -0.0055,1.1786495 -0.154892,1.2217485 -0.1447,0.041759 -0.599379,-0.738044 -0.656006,-0.9877313 -0.175039,-0.7717747 0.63586,-1.0057917 0.810898,-0.2340172 z"
         sodipodi:nodetypes="ssss"
         inkscape:transform-center-x="-0.29095689"
         inkscape:transform-center-y="-0.85411047" /><path
         id="path41"
         style="fill:#f2bb62;fill-opacity:1;fill-rule:evenodd;stroke:#8d5c0c;stroke-width:0.158572;stroke-linejoin:round;stroke-opacity:1"
         d="m 22.44317,-7.919566 c 0.224549,0.04761 0.944685,0.503685 0.916204,0.674596 -0.02759,0.165581 -0.846266,0.300936 -1.070813,0.253327 -0.694068,-0.147151 -0.539458,-1.075075 0.154609,-0.927923 z"
         sodipodi:nodetypes="ssss" /><path
         id="path48"
         style="fill:#f2bb62;fill-opacity:1;fill-rule:evenodd;stroke:#8d5c0c;stroke-width:0.158572;stroke-linejoin:round;stroke-opacity:1"
         d="m 21.664849,-8.2084565 c -0.184049,0.152719 -0.970956,0.4355 -1.062306,0.295411 -0.0885,-0.135717 0.382286,-0.90326 0.566334,-1.055974 0.568888,-0.4720402 1.064859,0.288524 0.495972,0.760563 z"
         sodipodi:nodetypes="ssss" /><path
         id="path49"
         style="fill:#f2bb62;fill-opacity:1;fill-rule:evenodd;stroke:#8d5c0c;stroke-width:0.158572;stroke-linejoin:round;stroke-opacity:1"
         d="m 20.202585,-8.7944168 c 0.156836,0.1874194 0.501708,1.0339095 0.389597,1.1532815 -0.108612,0.115649 -0.841425,-0.317744 -0.99826,-0.505162 -0.48478,-0.5792978 0.123885,-1.227418 0.608663,-0.6481195 z"
         sodipodi:nodetypes="ssss" /><path
         id="path54"
         style="fill:#f2bb62;fill-opacity:1;fill-rule:evenodd;stroke:#8d5c0c;stroke-width:0.158572;stroke-linejoin:round;stroke-opacity:1"
         d="m 14.229524,-7.762471 c 0.193324,-0.137363 0.996243,-0.355477 1.078409,-0.20833 0.07961,0.142555 -0.43897,0.869853 -0.632292,1.007216 -0.597553,0.424591 -1.043669,-0.374298 -0.446117,-0.798886 z"
         sodipodi:nodetypes="ssss" /><path
         id="path56"
         style="fill:#f2bb62;fill-opacity:1;fill-rule:evenodd;stroke:#8d5c0c;stroke-width:0.158572;stroke-linejoin:round;stroke-opacity:1"
         d="m 13.091197,-8.245814 c -0.166059,0.177022 -0.916281,0.566529 -1.022171,0.440134 -0.10259,-0.122449 0.281201,-0.949325 0.447258,-1.126347 0.513274,-0.5471735 1.088188,0.139042 0.574913,0.686213 z"
         sodipodi:nodetypes="ssss" /><path
         id="path62"
         style="fill:#f2bb62;fill-opacity:1;fill-rule:evenodd;stroke:#8d5c0c;stroke-width:0.158572;stroke-linejoin:round;stroke-opacity:1"
         d="m 15.693114,-6.6693623 c 0.163086,0.180504 0.536451,1.01147 0.428477,1.1356 -0.104604,0.120262 -0.851597,-0.281152 -1.014683,-0.461654 -0.504097,-0.557924 0.08211,-1.23187 0.586206,-0.673946 z"
         sodipodi:nodetypes="ssss" /><path
         id="path63"
         style="fill:#f2bb62;fill-opacity:1;fill-rule:evenodd;stroke:#8d5c0c;stroke-width:0.158572;stroke-linejoin:round;stroke-opacity:1"
         d="m 17.307761,-7.6435104 c -0.127897,0.213566 -0.784912,0.778024 -0.912663,0.680676 -0.123768,-0.09431 0.09118,-0.995619 0.219066,-1.209186 0.395316,-0.660131 1.088914,-0.131622 0.693597,0.52851 z"
         sodipodi:nodetypes="ssss" /><path
         id="path74"
         style="fill:#f2bb62;fill-opacity:1;fill-rule:evenodd;stroke:#8d5c0c;stroke-width:0.158572;stroke-linejoin:round;stroke-opacity:1"
         d="m 18.829242,-5.3355276 c -0.199618,-0.125387 -0.754616,-0.815275 -0.679611,-0.967212 0.07267,-0.147199 0.887195,0.01692 1.086812,0.142303 0.617014,0.387556 0.209813,1.212464 -0.407201,0.824909 z"
         sodipodi:nodetypes="ssss" /><path
         id="path75"
         style="fill:#f2bb62;fill-opacity:1;fill-rule:evenodd;stroke:#8d5c0c;stroke-width:0.158572;stroke-linejoin:round;stroke-opacity:1"
         d="m 13.672583,-6.0945434 c 0.115776,-0.222192 0.740124,-0.832009 0.873034,-0.743888 0.128766,0.08537 -0.03566,1.00011 -0.151423,1.222301 -0.357846,0.686792 -1.079455,0.208379 -0.721611,-0.478413 z"
         sodipodi:nodetypes="ssss" /><path
         id="path76"
         style="fill:#f2bb62;fill-opacity:1;fill-rule:evenodd;stroke:#8d5c0c;stroke-width:0.158572;stroke-linejoin:round;stroke-opacity:1"
         d="m 16.526751,-5.1852302 c -0.118918,-0.22007 -0.300457,-1.128887 -0.168816,-1.219399 0.127534,-0.08769 0.764594,0.507906 0.883517,0.727965 0.36758,0.680218 -0.34712,1.171652 -0.714701,0.491434 z"
         sodipodi:nodetypes="ssss" /><path
         id="path77"
         style="fill:#f2bb62;fill-opacity:1;fill-rule:evenodd;stroke:#8d5c0c;stroke-width:0.158572;stroke-linejoin:round;stroke-opacity:1"
         d="m 18.276242,-7.273867 c 0.217511,0.0789 0.881467,0.632927 0.834271,0.798482 -0.04573,0.160394 -0.872977,0.179254 -1.090484,0.100369 -0.672321,-0.243855 -0.416107,-1.142704 0.256213,-0.898851 z"
         sodipodi:nodetypes="ssss" /><path
         id="path78"
         style="fill:#f2bb62;fill-opacity:1;fill-rule:evenodd;stroke:#8d5c0c;stroke-width:0.158572;stroke-linejoin:round;stroke-opacity:1"
         d="m 19.321214,-8.0305866 c 0.144567,0.199578 0.434961,1.071691 0.315578,1.181725 -0.115661,0.106605 -0.819154,-0.384731 -0.963725,-0.584297 -0.446863,-0.616877 0.201284,-1.214304 0.648147,-0.597428 z"
         sodipodi:nodetypes="ssss" /><path
         id="path79"
         style="fill:#f2bb62;fill-opacity:1;fill-rule:evenodd;stroke:#8d5c0c;stroke-width:0.158572;stroke-linejoin:round;stroke-opacity:1"
         d="m 15.915962,-7.94262 c -0.227671,-0.02166 -0.985123,-0.392939 -0.972166,-0.566227 0.01254,-0.167887 0.814826,-0.396256 1.042492,-0.374607 0.703724,0.06694 0.633399,1.007769 -0.07033,0.940834 z"
         sodipodi:nodetypes="ssss" /><path
         style="fill:#675744;fill-opacity:0.8;stroke-width:0.941546;stroke-linecap:round;stroke-linejoin:round"
         d="m 13.797549,-10.19725 h 4.735391 m -4.735391,-1.058334 -2.05282,2.216567 v 2.316467 l 2.05282,2.216567 h 0.769958 3.195475 0.769958 l 5.166444,-2.216567 v -2.316467 l -5.166444,-2.216567"
         id="path27"
         sodipodi:nodetypes="cccccccccccc" /><path
         style="fill:#171715;fill-opacity:1;stroke-width:0.941546;stroke-linecap:round;stroke-linejoin:round"
         d="m 13.797375,-11.58451 c -0.02652,0.0083 -0.0521,0.02012 -0.07619,0.03516 -0.02731,-9.69e-4 -0.05462,0.0016 -0.08138,0.0078 l -2.051779,2.2165391 c -0.119227,0.066631 -0.194937,0.2034266 -0.195655,0.3535159 v 2.316406 c 6.3e-5,0.150794 0.07587,0.288524 0.195655,0.355469 l 2.051784,2.216536 c 0.04884,0.02796 0.102793,0.04267 0.157563,0.04297 h 0.770501 3.194549 0.7705 c 0.02326,-1.1e-5 0.04646,-0.0026 0.06926,-0.0078 l 5.164954,-2.216537 c 0.165374,-0.03669 0.284458,-0.200507 0.28396,-0.390625 v -2.316419 c -3.3e-4,-0.1893848 -0.119229,-0.3521249 -0.283964,-0.3886721 l -5.164954,-2.2165369 c -0.0029,0.0019 -0.0059,0.0039 -0.0087,0.0059 -0.0198,-0.0065 -0.04009,-0.01113 -0.0606,-0.01367 z m 0.08484,0.792969 h 4.607422 l 4.858485,2.146224 v 1.666016 l -4.849827,2.14427 h -0.735872 -3.194549 -0.68739 l -1.783407,-2.064192 v -1.826172 z"
         id="path29"
         sodipodi:nodetypes="cccccccccccccccccccccccccccccccc" /><path
         id="path26"
         style="fill:#4d3c33;fill-opacity:0.8;stroke:#181717;stroke-width:0.698063;stroke-linecap:round;stroke-linejoin:round;stroke-dasharray:none;stroke-opacity:1"
         d="m 14.684301,-10.753964 v 2.000635 h -2.75529 2.75529 v 1.900783 h -2.75529 2.75529 v 1.912497 0 -1.912497 h 3.057349 v 1.981892 0 -1.981892 h 2.221128 V -5.1246 l 2e-6,-1.727948 3.552776,2e-6 H 19.96278 v -1.900783 h 3.552327 l -3.552329,1e-6 v -1.816084 1.816083 H 17.74165 v -2.000635 0 2.000635 h -3.057349 z m 0,2.000635 h 3.057349 v 1.900783 h -3.057349 z m 3.057349,0 h 2.221128 v 1.900783 H 17.74165 Z"
         sodipodi:nodetypes="cccccccccccccccccccccccccccccccccccccccc" /></g></g></svg>
