<svg width="110" height="110" viewBox="0 0 110 110" fill="none" xmlns="http://www.w3.org/2000/svg">
<g clip-path="url(#clip0_3608_4932)">
<path d="M48.5596 85.6412C45.0692 81.9562 41.6655 77.6326 38.8787 73.3389L47.7537 62.3516C50.7372 67.1999 54.3906 72.0854 58.4645 76.3777L58.8829 75.998L59.1802 76.3399L48.6888 86.0919L48.4149 85.7849L48.5596 85.6412Z" fill="#4D4D4D"/>
<path d="M57.0452 78.3269L59.1818 76.341L58.8844 75.9991L58.4661 76.3788C54.3921 72.0865 50.7387 67.201 47.7552 62.3527L46.1338 64.3601C49.236 68.9771 53.4379 74.2963 57.0452 78.3269Z" fill="#454545"/>
<path d="M44.4766 80.9884C44.3734 80.862 44.2705 80.7353 44.1678 80.6082L45.5818 79.4266C45.6856 79.3398 45.84 79.3537 45.9267 79.4574C46.0134 79.5612 45.9996 79.7157 45.8958 79.8024L44.4766 80.9884Z" fill="#404040" stroke="#333333" stroke-width="0.48977"/>
<rect width="2.93326" height="0.489767" rx="0.244884" transform="matrix(0.755289 -0.655392 0.655395 0.755286 50.6133 74.9619)" fill="#404040" stroke="#333333" stroke-width="0.48977"/>
<path d="M48.5596 85.6412C45.0692 81.9562 41.6655 77.6326 38.8787 73.3389L47.7537 62.3516C50.7372 67.1999 54.3906 72.0854 58.4645 76.3777L58.8829 75.998L59.1802 76.3399L48.6888 86.0919L48.4149 85.7849L48.5596 85.6412Z" stroke="#333333" stroke-width="0.979539"/>
<path d="M9.28669 79.2871C10.001 80.6429 10.7627 81.9283 11.5601 83.167L48.3316 61.937L49.6938 60.2722L71.3114 47.7913L68.7366 43.3316L42.993 58.1947L38.7352 62.285L9.28669 79.2871Z" fill="#4A4A5A"/>
<path d="M2.79688 75.6719L5.53282 79.9172L8.68129 78.0994L9.28612 79.2868L38.7356 62.2841L42.9919 58.1946L98.9181 25.9056L96.5822 21.8596L8.10487 72.942L7.96691 72.703L2.79688 75.6719ZM92.4962 24.6403L95.0316 23.1765C95.3234 23.008 95.7094 23.1341 95.8971 23.4593C96.0849 23.7845 96.0012 24.1821 95.7095 24.3505L93.1741 25.8144C92.8823 25.9828 92.4961 25.8565 92.3084 25.5313C92.1206 25.2061 92.2044 24.8087 92.4962 24.6403ZM88.2684 27.1709L90.8036 25.7072C91.0954 25.5388 91.4816 25.6651 91.6693 25.9903C91.8571 26.3155 91.7733 26.7128 91.4815 26.8813L88.9463 28.345C88.6545 28.5135 88.2683 28.3875 88.0806 28.0623C87.8928 27.7371 87.9767 27.3394 88.2684 27.1709Z" fill="#505062"/>
<path d="M33.1175 70.329L34.864 73.354L29.4156 76.4752C25.0772 79.0594 24.1105 82.8608 24.4136 87.0938C24.4556 87.896 24.2626 88.3928 23.594 88.8038L18.0166 92.0402L18.015 92.0374L17.8054 91.6743L17.6923 91.5297C15.4835 88.7052 13.3203 85.939 11.377 82.8809L33.1175 70.329Z" fill="#40404E"/>
<path fill-rule="evenodd" clip-rule="evenodd" d="M8.10742 72.9414L8.54302 73.6959L76.8509 34.2362L83.8318 32.381L97.9526 24.2283L96.5847 21.859L8.10742 72.9414ZM88.2092 27.1089L90.7444 25.6451C91.0353 25.4772 91.4228 25.6038 91.61 25.928C91.7972 26.2522 91.7131 26.6512 91.4222 26.8191L88.887 28.2829C88.5961 28.4508 88.2085 28.3241 88.0214 27.9999C87.8342 27.6757 87.9183 27.2768 88.2092 27.1089ZM95.1371 23.1123L92.6019 24.576C92.311 24.744 92.2269 25.1429 92.4141 25.4671C92.6013 25.7913 92.9888 25.918 93.2797 25.75L95.815 24.2863C96.1058 24.1184 96.1899 23.7194 96.0027 23.3952C95.8156 23.071 95.428 22.9444 95.1371 23.1123Z" fill="#454554"/>
<path fill-rule="evenodd" clip-rule="evenodd" d="M2.79688 75.6719L5.53281 79.9172L8.6813 78.0994L9.28607 79.2867C9.99988 80.643 10.7617 81.9284 11.5589 83.167C13.4547 86.1124 15.5518 88.7941 17.6916 91.5301L17.8046 91.6747L18.016 92.0409L23.5933 88.8043C24.2619 88.3934 24.4549 87.8965 24.413 87.0944C24.1098 82.8612 25.0766 79.0601 29.415 76.4758L34.8633 73.3545C35.5531 74.4463 36.6943 73.7951 37.4337 73.1595C37.4761 73.119 37.5163 73.1162 37.5819 73.1893L38.3493 73.9083C38.9718 74.4419 39.5308 74.8211 40.3996 74.171L44.8533 70.7077C45.5964 70.1323 46.1338 69.1626 46.1842 68.4106L46.3091 65.5174C46.9818 65.0655 47.0353 64.9617 47.3275 64.1684L48.2447 61.9864L48.3304 61.9369L49.6472 60.3279C49.7804 60.2377 49.9255 60.1445 50.0841 60.0463L56.073 56.5886C58.1133 55.6034 61.0511 56.841 61.4733 59.8237L62.1597 66.2188C62.2946 67.5862 62.685 67.9296 63.4428 68.2724L65.6601 69.186C66.56 69.523 67.1497 69.6404 68.1011 69.4412L71.2665 68.5365C71.731 68.4385 71.9385 68.111 71.79 67.7174L68.8228 59.0735C68.4629 57.8289 68.7216 57.4421 69.176 56.871L67.026 52.9783C66.5164 51.8901 66.3708 50.7642 67.5889 49.9399L71.3103 47.7913L68.7355 43.3315L98.9181 25.9056L96.5822 21.8596L8.10487 72.942L7.96688 72.703L2.79688 75.6719Z" stroke="#2E2E38" stroke-width="0.979539"/>
<path d="M95.0024 40.4508L91.0386 42.7393C90.617 42.4003 90.0424 42.2059 89.2897 42.3529L88.3828 40.7822L94.6355 37.1722L95.5423 38.7429C95.0386 39.3213 94.9197 39.9162 95.0024 40.4508Z" fill="#44444B"/>
<path d="M99.3932 56.0529C99.5745 56.0652 99.7351 56.0681 99.8837 56.0601Z" fill="#454554"/>
<path d="M95.7296 51.7899C96.6664 53.1617 97.9696 54.7369 99.1866 55.9181L99.2766 55.8662L99.3932 56.0529C99.5745 56.0652 99.7351 56.0681 99.8837 56.0601C100.329 56.036 100.667 55.9145 101.138 55.6563C101.597 55.3777 101.872 55.1451 102.115 54.7714C102.196 54.6469 102.274 54.5066 102.354 54.3438L102.25 54.1494L102.34 54.0975C101.926 52.4529 101.213 50.5367 100.493 49.0395C99.9386 48.8213 99.6101 48.4488 99.8055 47.7643L99.4687 47.1809C98.851 47.0683 98.5915 46.508 98.7867 45.9995L98.5035 45.5091C97.9809 45.3324 97.8061 44.8792 97.9503 44.4668L97.9488 44.4643C97.7581 44.1545 97.6848 44.0355 97.4295 43.7769L95.7357 41.8672C95.5857 41.7104 95.4335 41.5132 95.3045 41.2904C95.1625 41.0423 95.0498 40.7518 95.0019 40.4518C94.7161 40.3966 93.72 40.2785 92.6441 40.8997C92.6375 40.9034 92.631 40.9072 92.6246 40.911C92.618 40.9147 92.6115 40.9185 92.605 40.9222C91.529 41.5434 91.1332 42.4652 91.0381 42.7403C91.274 42.9318 91.4693 43.1746 91.6131 43.4216C91.7416 43.6448 91.8363 43.8751 91.897 44.0834L92.704 46.5051C92.8003 46.8556 92.8667 46.9785 93.0397 47.2986L93.0411 47.3011C93.4704 47.3824 93.7754 47.7605 93.6672 48.3014L93.9503 48.7918C94.4882 48.877 94.8437 49.3819 94.6324 49.9732L94.9692 50.5566C95.6597 50.7295 95.818 51.2003 95.7296 51.7899Z" fill="#454554"/>
<path d="M55.9134 56.6705C57.9567 55.539 61.0399 56.7621 61.473 59.8231L62.1594 66.2183C62.2943 67.5856 62.6849 67.9292 63.4426 68.272L65.6597 69.1853C66.5599 69.5227 67.1496 69.64 68.1009 69.4407L71.2663 68.536C71.7307 68.4378 71.9383 68.1104 71.7897 67.7168L68.8226 59.073C68.4626 57.8283 68.7215 57.4417 69.1758 56.8706L67.0258 52.9778C66.4946 51.8435 66.3589 50.6678 67.7517 49.8356L55.9134 56.6705Z" fill="#454554"/>
<path d="M67.5114 49.9757L67.5171 49.9907C66.3778 50.8103 66.5277 51.9127 67.0268 52.9785L69.1769 56.8714C68.7225 57.4424 68.4637 57.829 68.8237 59.0738L71.7908 67.7175C71.9394 68.1112 71.7318 68.4385 71.2673 68.5368L70.7396 68.6876L67.6357 59.0641C67.3118 57.903 67.4912 57.2427 67.9102 56.829L65.8684 53.2313C65.4396 52.4664 65.9055 51.206 67.0869 50.2209L67.5114 49.9757Z" fill="#3A3A46"/>
<path d="M55.9299 56.6634L55.9297 56.6631L57.0146 56.0367C59.839 54.9918 62.2029 57.1545 62.4364 58.5391L63.6155 68.3444L63.4434 68.2735C62.6856 67.9308 62.2951 67.5871 62.1602 66.2198L61.4738 59.8247C61.0417 56.7715 57.9732 55.5468 55.9299 56.6634Z" fill="#3A3A46"/>
<path d="M75.383 47.3314L74.7468 47.6987L76.0277 49.9174C76.3329 50.4461 76.3695 50.9789 76.1916 51.4797C76.0106 51.9891 75.5984 52.5625 74.8867 52.9734L68.4283 56.7021L68.7957 57.3383L75.2738 53.5982C76.1189 53.1103 76.6334 52.4304 76.8838 51.7256C77.138 51.0105 77.0773 50.2661 76.6672 49.5557L75.383 47.3314Z" fill="#353541" stroke="#2E2E38" stroke-width="0.48977"/>
<path d="M55.9004 56.6777C55.9047 56.6753 55.9091 56.6729 55.9134 56.6705M68.4317 49.4428L67.7677 49.8261C67.7624 49.8293 67.757 49.8325 67.7517 49.8356M68.4319 49.443L67.7517 49.8356M55.9134 56.6705C57.9567 55.539 61.0399 56.7621 61.473 59.8231L62.1594 66.2183C62.2943 67.5856 62.6849 67.9292 63.4426 68.272L65.6597 69.1853C66.5599 69.5227 67.1496 69.64 68.1009 69.4407L71.2663 68.536C71.7307 68.4378 71.9383 68.1104 71.7897 67.7168L68.8226 59.073C68.4626 57.8283 68.7215 57.4417 69.1758 56.8706L67.0258 52.9778C66.4946 51.8435 66.3589 50.6678 67.7517 49.8356M55.9134 56.6705L67.7517 49.8356" stroke="#2E2E38" stroke-width="0.979539"/>
<path fill-rule="evenodd" clip-rule="evenodd" d="M106.389 18.9074L97.7559 23.8916L100.487 28.6223L109.12 23.6381L106.389 18.9074ZM100.524 22.5701L102.052 21.6877C102.479 21.4417 103.017 21.5766 103.255 21.9891L104.176 23.5835C104.414 23.996 104.261 24.5298 103.835 24.7758L102.307 25.6582C101.881 25.9042 101.342 25.7693 101.104 25.3568L100.184 23.7624C99.9456 23.3499 100.098 22.8161 100.524 22.5701ZM105.533 19.6598L103.989 20.5515C103.558 20.8001 103.404 21.3396 103.645 21.7565L104.575 23.3677C104.816 23.7846 105.36 23.921 105.791 23.6723L107.335 22.7806C107.766 22.532 107.92 21.9925 107.679 21.5757L106.749 19.9644C106.508 19.5476 105.964 19.4112 105.533 19.6598Z" fill="#404040"/>
<path d="M106.389 18.9074L97.7559 23.8916L100.487 28.6223L109.12 23.6381L106.389 18.9074Z" stroke="#333333" stroke-width="0.979541" stroke-linecap="square"/>
<path d="M102.054 21.6878L100.525 22.5702C100.099 22.8162 99.947 23.35 100.185 23.7625L101.106 25.3569C101.344 25.7694 101.882 25.9043 102.308 25.6583L103.837 24.7759C104.263 24.5299 104.415 23.9961 104.177 23.5836L103.257 21.9892C103.018 21.5767 102.48 21.4418 102.054 21.6878Z" stroke="#333333" stroke-width="0.48977" stroke-linecap="round"/>
<path d="M105.533 19.6601L103.989 20.5518C103.558 20.8004 103.404 21.3399 103.645 21.7567L104.575 23.368C104.816 23.7848 105.36 23.9212 105.79 23.6726L107.335 22.7809C107.766 22.5323 107.92 21.9928 107.679 21.5759L106.749 19.9647C106.508 19.5478 105.964 19.4114 105.533 19.6601Z" stroke="#333333" stroke-width="0.48977" stroke-linecap="round"/>
<path d="M68.2393 43.2207L71.0595 48.1056C71.0883 48.16 71.1006 48.1683 71.1894 48.1145L72.5507 47.3286C73.4952 46.7902 74.3978 47.1224 74.7467 47.6987L102.607 31.6135L99.0405 25.4361L68.2393 43.2207Z" fill="#666666"/>
<path d="M69.0688 49.0517L70.0032 51.8364C70.3661 52.9421 70.8204 53.5107 71.8449 53.8775C72.2278 54.0145 72.4127 53.9262 72.0156 53.6776C71.2819 53.2183 70.6072 52.6131 70.5621 51.6761L70.5614 48.19L69.0688 49.0517Z" fill="#3D3D42" stroke="#313135" stroke-width="0.48977"/>
<path d="M39.1864 62.3078L47.8637 57.2979C48.7345 56.7909 48.5975 55.9334 48.1957 55.1919L38.3574 60.8721" fill="#4E4E5F"/>
<path d="M68.7362 43.3323L42.9926 58.1954L38.7348 62.2857L9.2868 79.2875" stroke="#2E2E38" stroke-width="0.489768"/>
<path d="M39.677 64.252L42.1272 62.8374C41.7786 62.2334 41.4298 61.6294 41.0812 61.0255C40.8788 60.6565 40.7801 60.6878 40.5581 60.8144C39.9419 61.1702 39.3258 61.5259 38.7096 61.8817C38.489 62.0106 38.4125 62.0804 38.6309 62.4402C38.9795 63.0441 39.3283 63.6481 39.677 64.252Z" fill="#404040" stroke="#333333" stroke-width="0.489768" stroke-linecap="round"/>
<path d="M37.1485 66.5163L45.5256 61.6798C45.9309 61.4166 46.0398 61.3081 45.8362 60.9583L45.1235 59.7239C44.9946 59.5032 44.9248 59.4267 44.565 59.6452L35.9667 64.6094C35.6238 64.7858 35.5913 65.0244 35.7662 65.325L36.3683 66.3677C36.5537 66.6914 36.649 66.7906 37.1485 66.5163Z" fill="#4D4D4D" stroke="#333333" stroke-width="0.489768" stroke-linecap="round"/>
<path d="M48.0922 85.1443C48.2479 85.3116 48.4038 85.4777 48.5599 85.6425L48.4152 85.7862L48.6891 86.0932L59.1805 76.3412L58.8832 75.9993L58.4648 76.379C58.3031 76.2087 58.1425 76.0378 57.9828 75.8664L48.0922 85.1443Z" fill="#3B3B3B"/>
<rect width="0.489804" height="3.32728" rx="0.244902" transform="matrix(-0.994889 0.100979 -0.100971 -0.994889 37.1543 76.0205)" fill="#393946" stroke="#2E2E38" stroke-width="0.48977"/>
<path d="M37.4365 73.1597C36.6971 73.7956 35.5559 74.4466 34.8662 73.3551L33.3602 70.7465C33.0625 70.2447 33.306 69.7775 33.7514 69.4969L50.419 59.8449C49.1528 60.6004 48.6241 61.0346 48.2926 61.8793L47.3303 64.1687C47.038 64.9618 46.9846 65.0659 46.3117 65.5176L46.187 68.411C46.1366 69.163 45.5991 70.1325 44.856 70.7078L40.4023 74.1712C39.5336 74.8215 38.9746 74.4424 38.352 73.9083L37.5846 73.1896C37.519 73.1164 37.4788 73.1192 37.4365 73.1597Z" fill="#454555"/>
<path fill-rule="evenodd" clip-rule="evenodd" d="M1.01578 77.1529C0.303423 77.7175 0.805874 78.747 1.28133 79.362C6.12312 85.9402 7.68554 90.2361 9.16148 94.2943C9.43575 95.0484 9.70704 95.7943 9.99583 96.5451C10.4166 97.7792 10.8827 97.7157 11.6152 97.1269L15.4847 93.9036L15.4922 93.8973C11.3135 88.2336 6.83208 82.1544 2.79978 75.6731C2.34703 75.9977 1.97877 76.3204 1.61396 76.64C1.41777 76.8119 1.22257 76.9829 1.01578 77.1529ZM8.55648 85.0389C8.33339 84.6526 7.82397 84.5161 7.4376 84.7391C7.05113 84.9622 6.91453 85.4717 7.13759 85.8581C7.36073 86.2445 7.87028 86.381 8.25667 86.1578C8.64298 85.9347 8.77949 85.4253 8.55648 85.0389ZM6.29442 82.9562C6.68078 82.7331 7.1902 82.8696 7.41329 83.2559C7.63647 83.6423 7.50002 84.1519 7.11361 84.375C6.72715 84.5981 6.21764 84.4615 5.99461 84.075C5.7716 83.6887 5.90811 83.1792 6.29442 82.9562ZM8.28416 87.6422C8.50725 88.0285 9.01667 88.165 9.40303 87.942C9.78935 87.7189 9.92585 87.2095 9.70284 86.8231C9.47981 86.4367 8.9703 86.3001 8.58384 86.5231C8.19744 86.7463 8.06098 87.2558 8.28416 87.6422ZM9.42935 89.4249C9.20634 89.0385 9.34285 88.5291 9.72916 88.306C10.1155 88.083 10.6249 88.2195 10.848 88.6058C11.0712 88.9922 10.9348 89.5017 10.5483 89.7249C10.166 89.9456 9.65216 89.8109 9.42935 89.4249ZM12.0263 90.3453C11.8033 89.9588 11.2938 89.8223 10.9073 90.0453C10.5208 90.2684 10.3842 90.7781 10.6074 91.1645C10.8282 91.5468 11.3405 91.6871 11.7265 91.4642C12.1128 91.2411 12.2493 90.7317 12.0263 90.3453Z" fill="#4D4D4D" stroke="#333333" stroke-width="0.48977"/>
<path d="M90.7416 25.6462L88.2064 27.11C87.9155 27.2779 87.8314 27.6769 88.0186 28.0011C88.2058 28.3253 88.5933 28.4519 88.8842 28.284L91.4194 26.8202C91.7103 26.6523 91.7944 26.2534 91.6072 25.9292C91.4201 25.605 91.0325 25.4783 90.7416 25.6462Z" stroke="#2E2E38" stroke-width="0.614745"/>
<path d="M95.1362 23.114L92.6009 24.5778C92.31 24.7457 92.226 25.1446 92.4131 25.4688C92.6003 25.793 92.9878 25.9197 93.2787 25.7518L95.814 24.288C96.1049 24.1201 96.1889 23.7211 96.0018 23.3969C95.8146 23.0727 95.4271 22.9461 95.1362 23.114Z" stroke="#2E2E38" stroke-width="0.614745"/>
<path d="M18.0147 92.0377C17 92.6451 16.4125 93.1069 15.4896 93.8958C12.2361 89.4861 8.79895 84.8243 5.5332 79.917L8.68168 78.0992C11.1964 83.2239 14.3934 87.312 17.692 91.5301L17.6921 91.5301L17.8051 91.6747L18.0147 92.0377Z" fill="#3B3B3B" stroke="#333333" stroke-width="0.979541"/>
<path d="M101.654 29.9644L70.8519 47.7479L71.0585 48.1057C71.0872 48.1602 71.0995 48.1685 71.1884 48.1147L72.5497 47.3287C73.4941 46.7903 74.3968 47.1226 74.7457 47.6989L102.606 31.6137L101.654 29.9644Z" fill="#4D4D4D"/>
<path d="M10.0762 76.337L7.97533 72.6982L2.79688 75.6719L5.53282 79.9172L8.68129 78.0994C8.82731 78.397 8.97563 78.691 9.12614 78.9818C10.2555 78.3321 10.8228 77.5786 10.0762 76.337Z" fill="#595959" stroke="#333333" stroke-width="0.979541"/>
<path d="M33.9087 61.0153L42.577 56.0107C43.0076 55.7912 43.4906 55.8408 43.6917 56.192L44.6728 57.8912C44.7993 58.1132 44.7375 58.5403 44.3685 58.7427L35.4824 63.8812C35.1582 64.0899 34.6008 63.9091 34.428 63.6073L33.5576 62.0998C33.37 61.7774 33.4214 61.3107 33.9087 61.0153Z" fill="#353541" stroke="#2E2E38" stroke-width="0.979539" stroke-linecap="round"/>
<path d="M12.1302 83.2086C11.9904 83.0021 11.7201 82.941 11.5264 83.0722C11.3328 83.2033 11.2891 83.4769 11.4289 83.6834L13.3076 86.4583C13.4474 86.6648 13.7177 86.7259 13.9113 86.5948C14.105 86.4637 14.1487 86.19 14.0089 85.9835L12.1302 83.2086Z" fill="#4D4D4D" stroke="#333333" stroke-width="0.489768"/>
<path d="M79.1834 34.5473L74.7335 37.1164L52.5599 49.9184L52.6865 50.1377L48.7481 52.4115L47.918 50.9736L51.8546 48.7008L52.1428 49.2L78.768 33.8278L79.1834 34.5473Z" fill="#999999" stroke="#333333" stroke-width="0.489768"/>
<path d="M76.1367 46.8955L76.5874 47.6761L77.1881 47.7678L101.036 33.9994L101.353 34.5495L103.565 33.2726L102.607 31.6129" fill="#404040" stroke="#333333" stroke-width="0.979541"/>
<path d="M74.2448 38.3618L71.88 39.7271C71.6086 39.8838 71.5157 40.2307 71.6723 40.502C71.829 40.7733 72.1759 40.8663 72.4472 40.7097L74.812 39.3443C75.0834 39.1877 75.1763 38.8407 75.0197 38.5694C74.863 38.2981 74.5161 38.2051 74.2448 38.3618Z" fill="#40404F"/>
<path d="M78.4147 35.9506L76.0499 37.316C75.7785 37.4726 75.6856 37.8196 75.8422 38.0909C75.9989 38.3622 76.3458 38.4552 76.6172 38.2985L78.982 36.9332C79.2533 36.7765 79.3463 36.4296 79.1896 36.1583C79.033 35.887 78.686 35.794 78.4147 35.9506Z" fill="#40404F"/>
<path d="M82.5358 33.5708L80.171 34.9361C79.8996 35.0927 79.8067 35.4397 79.9633 35.711C80.12 35.9823 80.4669 36.0753 80.7382 35.9186L83.1031 34.5533C83.3744 34.3967 83.4673 34.0497 83.3107 33.7784C83.154 33.5071 82.8071 33.4141 82.5358 33.5708Z" fill="#40404F"/>
<path d="M68.2393 43.2207L71.0595 48.1056C71.0883 48.16 71.1006 48.1683 71.1894 48.1145L72.5507 47.3286C73.4952 46.7902 74.3978 47.1224 74.7467 47.6987L102.607 31.6135L99.0405 25.4361L68.2393 43.2207Z" stroke="#333333" stroke-width="0.979541"/>
<path d="M72.3193 45.7744C72.9949 45.3843 73.2263 44.5205 72.8363 43.8449C72.4463 43.1694 71.5824 42.9379 70.9068 43.3279C70.2313 43.718 69.9998 44.5818 70.3898 45.2574C70.7799 45.933 71.6437 46.1644 72.3193 45.7744Z" fill="#404040" stroke="#333333" stroke-width="0.489768"/>
<path d="M71.9317 45.1056C72.238 44.9287 72.343 44.537 72.1661 44.2306C71.9892 43.9242 71.5975 43.8192 71.2911 43.9961C70.9847 44.173 70.8797 44.5648 71.0566 44.8712C71.2335 45.1775 71.6253 45.2825 71.9317 45.1056Z" fill="#4D4D4D" stroke="#333333" stroke-width="0.489768"/>
<path d="M66.5112 48.9673L64.031 49.3879C63.24 49.4738 63.0188 48.886 63.5142 48.6487L65.9973 47.4566C67.4341 46.7523 68.1916 48.7071 66.5112 48.9673Z" fill="#4D4D4D"/>
<path d="M63.5142 48.6487C63.0188 48.886 63.24 49.4738 64.031 49.3879L65.3735 49.1602L65.1155 47.8799L63.5142 48.6487Z" fill="#404040" stroke="#333333" stroke-width="0.48977" stroke-linecap="round"/>
<path d="M68.6586 46.3377C68.8845 46.2073 68.9619 45.9185 68.8315 45.6926C68.7011 45.4667 68.4122 45.3893 68.1863 45.5197C67.9605 45.6501 67.8831 45.939 68.0135 46.1649C68.1439 46.3907 68.4327 46.4681 68.6586 46.3377Z" fill="#3B3B3B"/>
<path d="M63.2771 50.3817L62.5039 50.8281L62.9503 51.6014L63.7236 51.1549L63.2771 50.3817Z" fill="#B2B2B2" stroke="#2E2E38" stroke-width="0.489768" stroke-linecap="round"/>
<path d="M62.4451 48.9549L61.6719 49.4014L62.1183 50.1746L62.8915 49.7282L62.4451 48.9549Z" fill="#8F3D3D" stroke="#2E2E38" stroke-width="0.489768" stroke-linecap="round"/>
<path d="M1.28133 79.362C0.805874 78.747 0.303423 77.7175 1.01578 77.1529C1.22257 76.9829 1.41777 76.8119 1.61396 76.64C1.97877 76.3204 2.34703 75.9977 2.79978 75.6731C6.83208 82.1544 11.3135 88.2336 15.4922 93.8973L11.6152 97.1269C10.8827 97.7157 10.4166 97.7792 9.99583 96.5451C9.70704 95.7943 9.43576 95.0484 9.16149 94.2943L9.16148 94.2943C7.68554 90.2361 6.12312 85.9402 1.28133 79.362Z" stroke="#333333" stroke-width="0.979539"/>
<path d="M26.4299 70.2396C26.4337 70.2938 26.4494 70.3477 26.4783 70.3978L27.4469 72.0753C27.3708 72.1088 27.2937 72.1478 27.2158 72.1927L22.6096 74.8521C22.3664 74.9887 22.3351 75.179 22.3067 75.3545L22.3016 75.3856L22.1546 76.9346C22.159 77.4655 22.4809 77.932 23.2845 77.4846L28.5609 74.4382C30.0686 73.5584 29.4455 71.9542 28.1973 71.9182C28.1899 71.8971 28.1804 71.8766 28.169 71.8567L27.1146 70.0305C27.0132 69.8548 26.7885 69.7946 26.6128 69.896C26.4872 69.9685 26.4206 70.1042 26.4299 70.2396Z" fill="#404040"/>
<path d="M23.2849 75.7721C23.5001 75.6479 23.5739 75.3727 23.4496 75.1575C23.3254 74.9423 23.0502 74.8686 22.835 74.9928C22.6198 75.117 22.546 75.3922 22.6703 75.6074C22.7945 75.8226 23.0697 75.8964 23.2849 75.7721Z" fill="#383838"/>
<path d="M23.8845 76.8278C24.0997 76.7035 24.1735 76.4284 24.0492 76.2132C23.925 75.998 23.6498 75.9242 23.4346 76.0485C23.2194 76.1727 23.1456 76.4479 23.2699 76.6631C23.3941 76.8783 23.6693 76.952 23.8845 76.8278Z" fill="#383838"/>
<path d="M28.1992 73.6127L24.8706 76.1088L24.4482 75.3672L27.6388 72.9736" fill="#4D4D4D" stroke="#333333" stroke-width="0.489768" stroke-linecap="round"/>
<path d="M24.4477 75.3676L24.8698 76.1087L25.7097 75.4789L25.2835 74.7406L24.4477 75.3676Z" fill="#595959" stroke="#333333" stroke-width="0.489768" stroke-linecap="round"/>
<path d="M28.6276 73.7467C28.9857 73.5399 29.1084 73.082 28.9016 72.7239C28.6949 72.3658 28.237 72.2431 27.8789 72.4499C27.5208 72.6566 27.3981 73.1145 27.6048 73.4726C27.8116 73.8307 28.2695 73.9534 28.6276 73.7467Z" fill="#595959" stroke="#333333" stroke-width="0.489768" stroke-linecap="round"/>
<path d="M46.3042 65.6915L46.3117 65.5176C46.9846 65.0659 47.038 64.9618 47.3303 64.1687L48.2926 61.8793C48.6241 61.0346 49.1528 60.6004 50.419 59.8449L33.7514 69.4969C33.306 69.7775 33.0625 70.2447 33.3602 70.7465L34.6256 72.9384L34.8316 72.8194C34.9616 72.7216 35.2273 72.6664 35.4018 72.8936C35.7097 73.2332 36.0186 73.1231 36.6709 72.5807L37.0119 72.3263C37.3005 72.0818 37.9381 72.1542 38.1183 72.3233L39.1398 73.2916C39.4496 73.6101 39.7871 73.4695 40.1532 73.2138L44.2241 69.9391C44.8662 69.4216 45.2775 68.9209 45.2303 68.0385L45.2804 67.007C45.2592 66.3141 45.5988 66.1083 45.9013 65.925C45.9108 65.9192 45.9204 65.9134 45.9299 65.9076L46.3042 65.6915Z" fill="#505062"/>
<path d="M37.4365 73.1597C36.6971 73.7956 35.5559 74.4466 34.8662 73.3551L33.3602 70.7465C33.0625 70.2447 33.306 69.7775 33.7514 69.4969L50.419 59.8449C49.1528 60.6004 48.6241 61.0346 48.2926 61.8793L47.3303 64.1687C47.038 64.9618 46.9846 65.0659 46.3117 65.5176L46.187 68.411C46.1366 69.163 45.5991 70.1325 44.856 70.7078L40.4023 74.1712C39.5336 74.8215 38.9746 74.4424 38.352 73.9083L37.5846 73.1896C37.519 73.1164 37.4788 73.1192 37.4365 73.1597Z" stroke="#2E2E38" stroke-width="0.979541" stroke-linecap="round"/>
<path d="M9.28332 79.2817C9.79674 80.2565 10.3347 81.1949 10.8927 82.1057L12.7073 81.0581L11.0821 78.2432L9.28332 79.2817Z" fill="#474747" stroke="#333333" stroke-width="0.489768" stroke-linecap="round"/>
<path d="M11.5261 78.5709L13.0047 76.6546C13.7472 75.7795 14.1852 75.8759 14.5866 75.9021L13.0561 79.7384C12.538 80.918 11.8589 80.6605 11.45 80.3966C11.0877 80.163 10.7956 79.4909 11.5261 78.5709Z" fill="#4D4D4D"/>
<path d="M14.5843 75.9042C14.1829 75.8779 13.7449 75.7816 13.0024 76.6566L12.8241 76.8878L13.9617 77.4646L14.5843 75.9042Z" fill="#595959" stroke="#333333" stroke-width="0.489768" stroke-linecap="round"/>
<path d="M11.5261 78.5709L13.0047 76.6546C13.7472 75.7795 14.1852 75.8759 14.5866 75.9021L13.0561 79.7384C12.538 80.918 11.8589 80.6605 11.45 80.3966C11.0877 80.163 10.7956 79.4909 11.5261 78.5709Z" stroke="#333333" stroke-width="0.489768" stroke-linecap="round"/>
<path d="M12.2888 79.9411C12.504 79.8168 12.5778 79.5416 12.4535 79.3264C12.3293 79.1112 12.0541 79.0375 11.8389 79.1617C11.6237 79.286 11.5499 79.5612 11.6742 79.7764C11.7984 79.9916 12.0736 80.0653 12.2888 79.9411Z" fill="#404040"/>
<rect x="39.7676" y="63.1797" width="1.55992" height="0.244884" rx="0.122442" transform="rotate(-30 39.7676 63.1797)" fill="#404040" stroke="#333333" stroke-width="0.48977"/>
<path d="M66.5112 48.9673L64.031 49.3879C63.24 49.4738 63.0188 48.886 63.5142 48.6487L65.9973 47.4566C67.4341 46.7523 68.1916 48.7071 66.5112 48.9673Z" stroke="#333333" stroke-width="0.489768" stroke-linecap="round"/>
<path d="M77.2344 41.8457L79.0531 42.7995C80.9755 43.9024 83.0521 42.1543 81.5702 41.2378L80.0048 40.2462L77.2344 41.8457Z" fill="#404040"/>
<path d="M80.6986 39.8457L82.3859 40.7312C84.4196 41.8245 86.1569 40.0278 84.8916 39.2395L83.3932 38.2899L80.6986 39.8457Z" fill="#404040"/>
<path d="M84.2506 37.7949L85.9841 38.7069C87.9573 39.6931 89.3336 37.9969 88.0778 37.3189L86.647 36.4113L84.2506 37.7949Z" fill="#404040"/>
<path d="M87.6689 35.8213L89.268 36.653C91.2366 37.5649 92.2864 35.9302 91.2818 35.3988L89.9036 34.5311L87.6689 35.8213Z" fill="#404040"/>
<path d="M91.2724 33.7408L92.8272 34.5565C94.2903 35.332 95.8146 34.0901 94.5436 33.3242L93.3278 32.5542L91.2724 33.7408Z" fill="#404040"/>
<path d="M73.4146 43.1603L72.1471 40.9649L99.0405 25.4366L100.213 27.4671L97.5521 29.0032C97.7136 29.7106 97.3462 30.2733 96.564 30.6872L74.8368 43.2314C74.2326 43.5805 73.7239 43.6726 73.4146 43.1603Z" fill="#595959" stroke="#333333" stroke-width="0.979541"/>
<path d="M83.3184 31.7588L84.9937 34.6606L99.821 26.1001L98.1457 23.1982L83.3184 31.7588Z" fill="#4D4D4D" stroke="#333333" stroke-width="0.979541"/>
<rect x="84.584" y="31.0293" width="0.489217" height="0.822679" transform="rotate(-30 84.584 31.0293)" fill="#404040" stroke="#333333" stroke-width="0.48977"/>
<rect x="85.8477" y="33.2188" width="0.489217" height="0.822679" transform="rotate(-30 85.8477 33.2188)" fill="#404040" stroke="#333333" stroke-width="0.48977"/>
<rect x="86.2793" y="30.0488" width="0.489217" height="0.822679" transform="rotate(-30 86.2793 30.0488)" fill="#404040" stroke="#333333" stroke-width="0.48977"/>
<rect x="87.543" y="32.2393" width="0.489217" height="0.822679" transform="rotate(-30 87.543 32.2393)" fill="#404040" stroke="#333333" stroke-width="0.48977"/>
<rect x="87.9746" y="29.0713" width="0.489217" height="0.822679" transform="rotate(-30 87.9746 29.0713)" fill="#404040" stroke="#333333" stroke-width="0.48977"/>
<rect x="89.2383" y="31.2607" width="0.489217" height="0.822679" transform="rotate(-30 89.2383 31.2607)" fill="#404040" stroke="#333333" stroke-width="0.48977"/>
<rect x="89.668" y="28.0928" width="0.489217" height="0.822679" transform="rotate(-30 89.668 28.0928)" fill="#404040" stroke="#333333" stroke-width="0.48977"/>
<rect x="90.9316" y="30.2822" width="0.489217" height="0.822679" transform="rotate(-30 90.9316 30.2822)" fill="#404040" stroke="#333333" stroke-width="0.48977"/>
<rect x="91.3633" y="27.1143" width="0.489217" height="0.822679" transform="rotate(-30 91.3633 27.1143)" fill="#404040" stroke="#333333" stroke-width="0.48977"/>
<rect x="92.627" y="29.3047" width="0.489217" height="0.822679" transform="rotate(-30 92.627 29.3047)" fill="#404040" stroke="#333333" stroke-width="0.48977"/>
<rect x="93.0566" y="26.1367" width="0.489217" height="0.822679" transform="rotate(-30 93.0566 26.1367)" fill="#404040" stroke="#333333" stroke-width="0.48977"/>
<rect x="94.3203" y="28.3262" width="0.489217" height="0.822679" transform="rotate(-30 94.3203 28.3262)" fill="#404040" stroke="#333333" stroke-width="0.48977"/>
<rect x="94.752" y="25.1582" width="0.489217" height="0.822679" transform="rotate(-30 94.752 25.1582)" fill="#404040" stroke="#333333" stroke-width="0.48977"/>
<rect x="96.0156" y="27.3477" width="0.489217" height="0.822679" transform="rotate(-30 96.0156 27.3477)" fill="#404040" stroke="#333333" stroke-width="0.48977"/>
<rect x="96.4473" y="24.1797" width="0.489217" height="0.822679" transform="rotate(-30 96.4473 24.1797)" fill="#404040" stroke="#333333" stroke-width="0.48977"/>
<rect x="92.0039" y="21.6689" width="0.48942" height="1.07304" transform="rotate(-30 92.0039 21.6689)" fill="#33334D" stroke="#2E2E38" stroke-width="0.48977"/>
<rect x="90.3066" y="22.6484" width="0.48942" height="1.07304" transform="rotate(-30 90.3066 22.6484)" fill="#33334D" stroke="#2E2E38" stroke-width="0.48977"/>
<rect x="93.6992" y="20.6895" width="0.48942" height="1.07304" transform="rotate(-30 93.6992 20.6895)" fill="#33334D" stroke="#2E2E38" stroke-width="0.48977"/>
<rect x="88.6113" y="23.6279" width="0.48942" height="1.07304" transform="rotate(-30 88.6113 23.6279)" fill="#33334D" stroke="#2E2E38" stroke-width="0.48977"/>
<rect x="86.9141" y="24.6074" width="0.48942" height="1.07304" transform="rotate(-30 86.9141 24.6074)" fill="#33334D" stroke="#2E2E38" stroke-width="0.48977"/>
<rect x="85.2168" y="25.5869" width="0.48942" height="1.07304" transform="rotate(-30 85.2168 25.5869)" fill="#33334D" stroke="#2E2E38" stroke-width="0.48977"/>
<rect x="83.5195" y="26.5664" width="0.48942" height="1.07304" transform="rotate(-30 83.5195 26.5664)" fill="#33334D" stroke="#2E2E38" stroke-width="0.48977"/>
<rect x="81.8262" y="27.5449" width="0.48942" height="1.07304" transform="rotate(-30 81.8262 27.5449)" fill="#33334D" stroke="#2E2E38" stroke-width="0.48977"/>
<rect x="80.1289" y="28.5244" width="0.48942" height="1.07304" transform="rotate(-30 80.1289 28.5244)" fill="#33334D" stroke="#2E2E38" stroke-width="0.48977"/>
<rect x="78.4336" y="29.5039" width="0.48942" height="1.07304" transform="rotate(-30 78.4336 29.5039)" fill="#33334D" stroke="#2E2E38" stroke-width="0.48977"/>
<rect x="76.7363" y="30.4844" width="0.48942" height="1.07304" transform="rotate(-30 76.7363 30.4844)" fill="#33334D" stroke="#2E2E38" stroke-width="0.48977"/>
<rect x="75.0391" y="31.4648" width="0.48942" height="1.07304" transform="rotate(-30 75.0391 31.4648)" fill="#33334D" stroke="#2E2E38" stroke-width="0.48977"/>
<rect x="73.3418" y="32.4443" width="0.48942" height="1.07304" transform="rotate(-30 73.3418 32.4443)" fill="#33334D" stroke="#2E2E38" stroke-width="0.48977"/>
<rect x="71.6465" y="33.4238" width="0.48942" height="1.07304" transform="rotate(-30 71.6465 33.4238)" fill="#33334D" stroke="#2E2E38" stroke-width="0.48977"/>
<rect x="69.9492" y="34.4033" width="0.48942" height="1.07304" transform="rotate(-30 69.9492 34.4033)" fill="#33334D" stroke="#2E2E38" stroke-width="0.48977"/>
<rect x="68.2539" y="35.3828" width="0.48942" height="1.07304" transform="rotate(-30 68.2539 35.3828)" fill="#33334D" stroke="#2E2E38" stroke-width="0.48977"/>
<rect x="66.5547" y="36.3623" width="0.48942" height="1.07304" transform="rotate(-30 66.5547 36.3623)" fill="#33334D" stroke="#2E2E38" stroke-width="0.48977"/>
<rect x="64.8594" y="37.3408" width="0.48942" height="1.07304" transform="rotate(-30 64.8594 37.3408)" fill="#33334D" stroke="#2E2E38" stroke-width="0.48977"/>
<rect x="63.1621" y="38.3203" width="0.48942" height="1.07304" transform="rotate(-30 63.1621 38.3203)" fill="#33334D" stroke="#2E2E38" stroke-width="0.48977"/>
<rect x="61.4668" y="39.2998" width="0.48942" height="1.07304" transform="rotate(-30 61.4668 39.2998)" fill="#33334D" stroke="#2E2E38" stroke-width="0.48977"/>
<rect x="59.7695" y="40.2793" width="0.48942" height="1.07304" transform="rotate(-30 59.7695 40.2793)" fill="#33334D" stroke="#2E2E38" stroke-width="0.48977"/>
<rect x="58.0723" y="41.2598" width="0.48942" height="1.07304" transform="rotate(-30 58.0723 41.2598)" fill="#33334D" stroke="#2E2E38" stroke-width="0.48977"/>
<rect x="56.375" y="42.2393" width="0.48942" height="1.07304" transform="rotate(-30 56.375 42.2393)" fill="#33334D" stroke="#2E2E38" stroke-width="0.48977"/>
<rect x="54.6797" y="43.2188" width="0.48942" height="1.07304" transform="rotate(-30 54.6797 43.2188)" fill="#33334D" stroke="#2E2E38" stroke-width="0.48977"/>
<rect x="52.9824" y="44.1982" width="0.48942" height="1.07304" transform="rotate(-30 52.9824 44.1982)" fill="#33334D" stroke="#2E2E38" stroke-width="0.48977"/>
<rect x="51.2871" y="45.1777" width="0.48942" height="1.07304" transform="rotate(-30 51.2871 45.1777)" fill="#33334D" stroke="#2E2E38" stroke-width="0.48977"/>
<rect x="49.5879" y="46.1572" width="0.48942" height="1.07304" transform="rotate(-30 49.5879 46.1572)" fill="#33334D" stroke="#2E2E38" stroke-width="0.48977"/>
<rect x="47.8926" y="47.1367" width="0.48942" height="1.07304" transform="rotate(-30 47.8926 47.1367)" fill="#33334D" stroke="#2E2E38" stroke-width="0.48977"/>
<rect x="46.1953" y="48.1162" width="0.48942" height="1.07304" transform="rotate(-30 46.1953 48.1162)" fill="#33334D" stroke="#2E2E38" stroke-width="0.48977"/>
<rect x="44.5" y="49.0957" width="0.48942" height="1.07304" transform="rotate(-30 44.5 49.0957)" fill="#33334D" stroke="#2E2E38" stroke-width="0.48977"/>
<path d="M99.1328 35.0986L99.5567 34.8539L99.999 35.6202L99.5752 35.8649L99.1328 35.0986Z" fill="#383838" stroke="#333333" stroke-width="0.48977"/>
<path d="M97.4375 36.0771L97.8614 35.8324L98.3037 36.5987L97.8799 36.8434L97.4375 36.0771Z" fill="#383838" stroke="#333333" stroke-width="0.48977"/>
<path d="M95.7441 37.0557L96.168 36.811L96.6104 37.5772L96.1865 37.8219L95.7441 37.0557Z" fill="#383838" stroke="#333333" stroke-width="0.48977"/>
<path d="M94.0488 38.0332L94.4727 37.7885L94.9151 38.5547L94.4912 38.7994L94.0488 38.0332Z" fill="#383838" stroke="#333333" stroke-width="0.48977"/>
<path d="M92.3555 39.0117L92.7793 38.767L93.2217 39.5332L92.7979 39.778L92.3555 39.0117Z" fill="#383838" stroke="#333333" stroke-width="0.48977"/>
<path d="M90.6621 39.9902L91.086 39.7455L91.5283 40.5118L91.1045 40.7565L90.6621 39.9902Z" fill="#383838" stroke="#333333" stroke-width="0.48977"/>
<path d="M88.9688 40.9678L89.3926 40.7231L89.835 41.4893L89.4111 41.734L88.9688 40.9678Z" fill="#383838" stroke="#333333" stroke-width="0.48977"/>
<path d="M87.2734 41.9463L87.6973 41.7016L88.1397 42.4678L87.7158 42.7125L87.2734 41.9463Z" fill="#383838" stroke="#333333" stroke-width="0.48977"/>
<path d="M85.5781 42.9248L86.002 42.6801L86.4444 43.4463L86.0205 43.691L85.5781 42.9248Z" fill="#383838" stroke="#333333" stroke-width="0.48977"/>
<path d="M83.8848 43.9023L84.3086 43.6576L84.751 44.4239L84.3272 44.6686L83.8848 43.9023Z" fill="#383838" stroke="#333333" stroke-width="0.48977"/>
<path d="M82.1895 44.8809L82.6133 44.6361L83.0557 45.4024L82.6318 45.6471L82.1895 44.8809Z" fill="#383838" stroke="#333333" stroke-width="0.48977"/>
<path d="M80.4961 45.8594L80.9199 45.6147L81.3623 46.3809L80.9385 46.6256L80.4961 45.8594Z" fill="#383838" stroke="#333333" stroke-width="0.48977"/>
<path d="M78.8008 46.8369L79.2246 46.5922L79.667 47.3584L79.2432 47.6031L78.8008 46.8369Z" fill="#383838" stroke="#333333" stroke-width="0.48977"/>
<path d="M77.1055 47.8154L77.5293 47.5707L77.9717 48.337L77.5479 48.5817L77.1055 47.8154Z" fill="#383838" stroke="#333333" stroke-width="0.48977"/>
<rect x="97.709" y="26.3691" width="0.489217" height="0.822679" transform="rotate(-30 97.709 26.3691)" fill="#404040" stroke="#333333" stroke-width="0.48977"/>
<path d="M100.304 48.9521L95.75 51.5811C95.7712 51.1084 95.591 50.7363 95.0364 50.5731L99.7873 47.8302C99.6513 48.3921 99.8835 48.7342 100.304 48.9521Z" fill="#383847"/>
<path d="M99.1903 47.0881L94.6922 49.685C94.7153 49.3024 94.4979 48.9877 94.1673 48.8509L98.7304 46.2164C98.6835 46.5711 98.8475 46.9167 99.1903 47.0881Z" fill="#383847"/>
<path d="M98.3869 45.4609L93.6848 48.1757C93.7219 47.7555 93.4984 47.4509 93.1718 47.3347L97.9151 44.5962C97.8524 44.9371 98.0045 45.2829 98.3869 45.4609Z" fill="#383847"/>
<path d="M102.208 53.6078L98.8262 55.5605C98.9463 55.6829 99.066 55.802 99.1848 55.9174L99.2747 55.8655L99.3925 56.0523C100.116 56.1012 100.508 55.9999 101.136 55.6556C101.748 55.2841 102.032 54.9945 102.352 54.3431L102.248 54.1487L102.338 54.0968C102.332 54.0711 102.325 54.0454 102.319 54.0195C102.284 53.8839 102.247 53.7465 102.208 53.6078Z" fill="#383847"/>
<path d="M95.0931 37.9639C94.0634 40.6919 91.7176 42.0464 88.8403 41.5739L88.8365 41.5673L91.7104 39.3249L95.0893 37.9572L95.0931 37.9639Z" fill="#515162" stroke="#2E2E38" stroke-width="0.48977"/>
<path d="M93.0294 38.9294C93.3934 39.5599 93.1774 40.3661 92.5469 40.7301C91.9164 41.0941 91.1102 40.8781 90.7462 40.2476C90.6136 40.0179 90.5579 39.7649 90.5713 39.5184L92.4854 38.4133C92.7055 38.525 92.8968 38.6997 93.0294 38.9294Z" fill="#3A3A46"/>
<path d="M74.3574 35.7607L75.038 36.9395L78.6583 34.8493L77.9778 33.6705L76.8796 34.3046L77.0909 34.6707L75.667 35.4928L75.4557 35.1267L74.3574 35.7607Z" fill="#666666"/>
<path d="M75.667 35.4928L77.0909 34.6707Z" fill="#666666"/>
<path d="M75.2441 34.7617L76.6672 33.9401L77.09 34.6725L75.667 35.4941L75.2441 34.7617Z" fill="#404040"/>
<path d="M75.666 35.4941L77.089 34.6726L77.3786 35.1741L75.9556 35.9957L75.666 35.4941Z" fill="#404040"/>
<path d="M74.3574 35.7607L75.038 36.9395L78.6583 34.8493L77.9778 33.6705L76.8796 34.3046L77.0909 34.6707L75.667 35.4928L75.4557 35.1267L74.3574 35.7607Z" stroke="#333333" stroke-width="0.48977"/>
<path d="M75.667 35.4928L77.0909 34.6707Z" stroke="#333333" stroke-width="0.48977"/>
<path d="M94.9982 19.6387L91.0229 12.7535C90.7204 12.2585 90.4771 12.1182 90.1431 12.3049L88.8684 13.0408L92.5964 19.5133C92.9278 20.1099 93.384 20.5531 93.9635 20.2361L94.9982 19.6387Z" fill="#4D4D4D"/>
<path d="M91.5174 13.6094L89.7755 14.6152L88.8688 13.0411L90.1435 12.3051C90.4775 12.1183 90.7209 12.2589 91.0234 12.7537L91.5174 13.6094Z" fill="#595959"/>
<path d="M94.9982 19.6387L91.0229 12.7535C90.7204 12.2585 90.4771 12.1182 90.1431 12.3049L88.8684 13.0408L92.5964 19.5133C92.9278 20.1099 93.384 20.5531 93.9635 20.2361L94.9982 19.6387Z" stroke="#333333" stroke-width="0.489768"/>
<path d="M93.5306 17.0947L94.9999 19.6396L93.9652 20.2369C93.3857 20.5538 92.9294 20.1104 92.5982 19.5141L91.7851 18.1024L93.5306 17.0947Z" fill="#595959" stroke="#333333" stroke-width="0.48977"/>
<path d="M90.6121 15.303C90.7844 15.6014 91.166 15.7037 91.4644 15.5314C91.7629 15.3591 91.8651 14.9775 91.6928 14.679C91.5205 14.3806 91.1389 14.2784 90.8405 14.4507C90.5421 14.623 90.4398 15.0046 90.6121 15.303Z" fill="#404040"/>
<path d="M93.2858 19.4142C93.3785 19.5746 93.5837 19.6296 93.7442 19.537C93.9046 19.4443 93.9596 19.2391 93.867 19.0787C93.7743 18.9182 93.5691 18.8632 93.4087 18.9558C93.2482 19.0485 93.1932 19.2537 93.2858 19.4142Z" fill="#404040"/>
<path d="M93.9114 21.8085L93.0781 20.3652L94.8325 19.3524L95.6657 20.7956" fill="#4D4D4D" stroke="#333333" stroke-width="0.489768"/>
<path d="M94.0378 20.7159C94.1304 20.8764 94.3356 20.9314 94.4961 20.8387C94.6566 20.7461 94.7116 20.5409 94.6189 20.3804C94.5263 20.2199 94.3211 20.165 94.1606 20.2576C94.0001 20.3503 93.9451 20.5555 94.0378 20.7159Z" fill="#404040"/>
<rect width="0.122443" height="1.75238" rx="0.0612213" transform="matrix(0.989794 0.142506 0.142516 -0.989792 40.7812 45.6484)" fill="#4D4D4D" stroke="#333333" stroke-width="0.48977"/>
<rect width="0.122443" height="1.65986" rx="0.0612215" transform="matrix(0.736632 -0.676293 0.676296 0.736629 39.9648 42.2705)" fill="#4D4D4D" stroke="#333333" stroke-width="0.48977"/>
<path d="M49.1132 39.1598L48.849 40.1308L42.3561 43.8795L41.7188 43.0137L43.5495 41.9567L43.7359 42.2644L49.1132 39.1598Z" fill="#404040"/>
<path fill-rule="evenodd" clip-rule="evenodd" d="M42.342 47.5926L44.0698 50.5852L48.4298 48.0679L46.6947 45.0627C46.006 43.7826 46.5561 42.7199 47.8704 42.0085L63.3278 33.0842C64.8235 32.2985 65.5305 32.522 66.2084 33.625L68.0177 36.7589L69.708 35.783L66.052 29.4507L50.8771 38.212L50.6391 37.7996L49.2707 38.5896L48.4821 41.4879L43.5065 44.3696C42.6908 44.8734 42.014 43.6648 41.4606 42.6766C41.3993 42.5671 41.3395 42.4603 41.2812 42.3589L41.2167 42.3967L42.342 47.5926ZM63.6772 31.5554L61.0855 33.0518C60.8431 33.1917 60.7494 33.483 60.8761 33.7025C61.0028 33.922 61.302 33.9864 61.5443 33.8465L64.136 32.3502C64.3784 32.2102 64.4722 31.9189 64.3454 31.6994C64.2187 31.48 63.9195 31.4155 63.6772 31.5554ZM56.9682 35.4084L59.56 33.9121C59.8023 33.7721 60.1015 33.8366 60.2282 34.0561C60.3549 34.2756 60.2612 34.5669 60.0188 34.7068L57.4271 36.2032C57.1847 36.3431 56.8855 36.2786 56.7588 36.0591C56.6321 35.8397 56.7259 35.5483 56.9682 35.4084ZM55.4372 36.2763L52.8455 37.7726C52.6032 37.9126 52.5094 38.2039 52.6361 38.4234C52.7628 38.6428 53.062 38.7073 53.3044 38.5674L55.8961 37.0711C56.1384 36.9311 56.2322 36.6398 56.1055 36.4203C55.9788 36.2009 55.6796 36.1364 55.4372 36.2763Z" fill="#4D4D4D"/>
<path d="M68.1989 36.6507L67.3076 35.1069C66.6738 34.0091 67.9987 33.2429 68.6331 34.3416L69.5244 35.8854L68.1989 36.6507Z" fill="#404040"/>
<path d="M45.1026 49.9882L44.0846 48.2251C43.2824 46.8337 45.5486 45.4898 46.3777 46.9012L47.3957 48.6643L45.1026 49.9882Z" fill="#404040"/>
<path d="M63.677 31.554L61.0853 33.0504C60.843 33.1903 60.7492 33.4816 60.8759 33.7011C61.0026 33.9206 61.3018 33.985 61.5442 33.8451L64.1359 32.3488C64.3782 32.2088 64.472 31.9175 64.3453 31.698C64.2186 31.4786 63.9194 31.4141 63.677 31.554Z" stroke="#333333" stroke-width="0.489768"/>
<path d="M59.5598 33.9114L56.9681 35.4078C56.7258 35.5477 56.632 35.839 56.7587 36.0585C56.8854 36.278 57.1846 36.3424 57.427 36.2025L60.0187 34.7062C60.2611 34.5663 60.3548 34.2749 60.2281 34.0555C60.1014 33.836 59.8022 33.7715 59.5598 33.9114Z" stroke="#333333" stroke-width="0.489768"/>
<path d="M55.4368 36.2757L52.8451 37.772C52.6027 37.912 52.509 38.2033 52.6357 38.4228C52.7624 38.6422 53.0616 38.7067 53.3039 38.5668L55.8956 37.0705C56.138 36.9305 56.2318 36.6392 56.1051 36.4197C55.9783 36.2003 55.6792 36.1358 55.4368 36.2757Z" stroke="#333333" stroke-width="0.489768"/>
<path d="M45.7525 48.4676C46.122 48.2543 46.2487 47.7817 46.0353 47.4121C45.8219 47.0425 45.3493 46.9159 44.9797 47.1293C44.6102 47.3426 44.4835 47.8152 44.6969 48.1848C44.9103 48.5544 45.3829 48.681 45.7525 48.4676Z" fill="#4D4D4D" stroke="#333333" stroke-width="0.489768" stroke-linecap="round"/>
<path d="M68.3202 35.3315C68.5725 35.1858 68.6589 34.8632 68.5132 34.611C68.3676 34.3587 68.045 34.2723 67.7927 34.4179C67.5404 34.5636 67.454 34.8861 67.5997 35.1384C67.7453 35.3907 68.0679 35.4771 68.3202 35.3315Z" fill="#4D4D4D" stroke="#333333" stroke-width="0.489768" stroke-linecap="round"/>
<path d="M44.1419 42.8484L42.3561 43.8795L41.7188 43.0137L43.5495 41.9567L43.7359 42.2644L43.7875 42.2346L44.1419 42.8484Z" fill="#595959"/>
<path d="M44.9944 42.3563L44.5708 42.6008L44.2164 41.987L44.64 41.7424L44.9944 42.3563Z" fill="#595959"/>
<path d="M45.8386 41.8689L45.415 42.1134L45.0606 41.4996L45.4841 41.255L45.8386 41.8689Z" fill="#595959"/>
<path d="M46.6878 41.3786L46.2642 41.6231L45.9098 41.0093L46.3333 40.7647L46.6878 41.3786Z" fill="#595959"/>
<path d="M47.5319 40.8912L47.1084 41.1358L46.7539 40.5219L47.1775 40.2774L47.5319 40.8912Z" fill="#595959"/>
<path d="M48.3762 40.4038L47.9526 40.6483L47.5982 40.0345L48.0218 39.7899L48.3762 40.4038Z" fill="#595959"/>
<path d="M41.357 44.0835C41.5471 43.9737 41.6122 43.7306 41.5024 43.5405C41.3927 43.3504 41.1496 43.2852 40.9595 43.395C40.7694 43.5048 40.7042 43.7479 40.814 43.938C40.9237 44.1281 41.1668 44.1932 41.357 44.0835Z" fill="#404040" stroke="#333333" stroke-width="0.48977"/>
<path d="M50.3816 39.4982C50.5516 39.4001 50.6098 39.1829 50.5117 39.0129C50.4136 38.843 50.1963 38.7848 50.0264 38.8829C49.8565 38.981 49.7983 39.1983 49.8964 39.3682C49.9945 39.5381 50.2117 39.5963 50.3816 39.4982Z" fill="#404040"/>
<path d="M65.2559 29.0537L65.6795 28.8091L66.0495 29.4499L65.6258 29.6945L65.2559 29.0537Z" fill="#383838" stroke="#333333" stroke-width="0.48977"/>
<path d="M63.5898 30.0156L64.0135 29.771L64.3835 30.4118L63.9598 30.6564L63.5898 30.0156Z" fill="#383838" stroke="#333333" stroke-width="0.48977"/>
<path d="M61.918 30.9795L62.3416 30.7349L62.7116 31.3757L62.2879 31.6203L61.918 30.9795Z" fill="#383838" stroke="#333333" stroke-width="0.48977"/>
<path d="M60.2539 31.9424L60.6776 31.6978L61.0475 32.3386L60.6239 32.5832L60.2539 31.9424Z" fill="#383838" stroke="#333333" stroke-width="0.48977"/>
<path d="M58.5859 32.9053L59.0096 32.6607L59.3796 33.3015L58.9559 33.5461L58.5859 32.9053Z" fill="#383838" stroke="#333333" stroke-width="0.48977"/>
<path d="M56.9141 33.8691L57.3377 33.6245L57.7077 34.2653L57.284 34.5099L56.9141 33.8691Z" fill="#383838" stroke="#333333" stroke-width="0.48977"/>
<path d="M55.25 34.8311L55.6737 34.5864L56.0436 35.2272L55.62 35.4719L55.25 34.8311Z" fill="#383838" stroke="#333333" stroke-width="0.48977"/>
<path d="M53.582 35.793L54.0057 35.5484L54.3757 36.1892L53.952 36.4338L53.582 35.793Z" fill="#383838" stroke="#333333" stroke-width="0.48977"/>
<path d="M51.9121 36.7578L52.3358 36.5132L52.7057 37.154L52.2821 37.3986L51.9121 36.7578Z" fill="#383838" stroke="#333333" stroke-width="0.48977"/>
<path d="M49.1132 39.1598L48.849 40.1308L42.3561 43.8795L41.7188 43.0137L43.5495 41.9567L43.7359 42.2644L49.1132 39.1598Z" stroke="#333333" stroke-width="0.489768" stroke-linecap="round"/>
<path d="M43.6822 42.9978C43.9813 42.8252 44.0837 42.4428 43.9111 42.1438C43.7384 41.8448 43.3561 41.7423 43.0571 41.9149C42.758 42.0876 42.6556 42.4699 42.8282 42.769C43.0009 43.068 43.3832 43.1704 43.6822 42.9978Z" fill="#737373" stroke="#333333" stroke-width="0.489768" stroke-linecap="round"/>
<path d="M44.0698 50.5852L42.342 47.5926L41.2167 42.3967L41.2812 42.3589C41.8658 43.376 42.6005 44.9292 43.5065 44.3696L48.4821 41.4879L49.2707 38.5896L50.6391 37.7996L50.8771 38.212L66.052 29.4507L69.708 35.783L68.0177 36.7589L66.2084 33.625C65.5305 32.522 64.8235 32.2985 63.3278 33.0842L47.8704 42.0085C46.5561 42.7199 46.006 43.7826 46.6947 45.0627L48.4298 48.0679L44.0698 50.5852Z" stroke="#333333" stroke-width="0.979541"/>
<path d="M44.5012 51.9287L43.8105 50.7324L95.8888 20.665L96.5795 21.8613" fill="#3A3A46" stroke="#2E2E38" stroke-width="0.979541"/>
<path d="M75.2454 36.049L74.8987 35.4485L74.3576 35.7609C74.1371 35.3788 74.1698 34.9225 74.097 34.5266C73.8033 32.9296 73.7952 31.6107 73.9773 29.5095C73.9765 29.4583 73.9735 29.3598 74.0218 29.3376L74.8939 28.8341C75.0656 28.7548 75.2084 28.7715 75.2174 28.9045C75.5681 30.7483 76.5611 32.1089 77.6874 33.3692C77.7851 33.4786 77.9005 33.5368 77.9778 33.6708L77.4371 33.9829L77.7838 34.5834L77.2264 34.9052L76.6684 33.9387L75.2445 34.7607L75.8025 35.7273L75.2454 36.049Z" fill="#4D4D4D" stroke="#333333" stroke-width="0.489768"/>
<path d="M81.041 30.833L81.4652 30.5881L82.1862 31.837C82.2538 31.9541 82.2137 32.1039 82.0966 32.1715V32.1715C81.9794 32.2391 81.8297 32.199 81.762 32.0818L81.041 30.833Z" fill="#363649" stroke="#2E2E38" stroke-width="0.48977"/>
<path d="M101.162 55.6424C100.52 55.9973 100.126 56.1016 99.3937 56.0519L99.2771 55.8652L99.1871 55.9171C97.9701 54.7358 96.6669 53.1607 95.7301 51.7889C95.8185 51.1993 95.6602 50.7285 94.9697 50.5555L94.6329 49.9722C94.8442 49.3809 94.4887 48.876 93.9508 48.7908L93.6676 48.3004C93.7759 47.7595 93.4709 47.3814 93.0416 47.3001C92.8676 46.9782 92.801 46.8555 92.7045 46.5041L91.8975 44.0824C91.6425 43.2073 90.8479 42.0485 89.2897 42.3529L88.3828 40.7822L94.6355 37.1722L95.5423 38.7429C94.4996 39.9402 95.1058 41.2078 95.7362 41.8661L97.43 43.7759C97.686 44.0351 97.759 44.1541 97.9508 44.4658C97.8065 44.8782 97.9814 45.3314 98.504 45.5081L98.7871 45.9985C98.592 46.5069 98.8515 47.0673 99.4692 47.1799L99.806 47.7633C99.6105 48.4478 99.9391 48.8203 100.494 49.0385C101.214 50.5357 101.926 52.4519 102.341 54.0965L102.251 54.1484L102.354 54.3428C102.031 55.0022 101.743 55.2909 101.115 55.6691" stroke="#2E2E38" stroke-width="0.979541"/>
<path d="M36.081 72.7808C36.281 72.6653 36.3495 72.4096 36.2341 72.2096C36.1186 72.0096 35.8629 71.9411 35.6629 72.0566C35.4629 72.172 35.3944 72.4277 35.5098 72.6277C35.6253 72.8277 35.881 72.8962 36.081 72.7808Z" fill="#393946"/>
</g>
<defs>
<clipPath id="clip0_3608_4932">
<rect width="110" height="110" fill="white"/>
</clipPath>
</defs>
</svg>
