<svg xmlns="http://www.w3.org/2000/svg" xmlns:xlink="http://www.w3.org/1999/xlink" xml:space="preserve" width="79.785" height="77.126" viewBox="0 0 21.11 20.406"><defs><linearGradient xlink:href="#a" id="c" x1="161.717" x2="147.783" y1="183.67" y2="173.814" gradientTransform="translate(48.472 -18.405)" gradientUnits="userSpaceOnUse"/><linearGradient id="a"><stop offset="0" style="stop-color:#717171;stop-opacity:1"/><stop offset="1" style="stop-color:#cfcfcf;stop-opacity:1"/></linearGradient><linearGradient xlink:href="#b" id="d" x1="152.416" x2="156.467" y1="189.698" y2="193.393" gradientTransform="translate(48.472 -18.405)" gradientUnits="userSpaceOnUse"/><linearGradient id="b"><stop offset="0" style="stop-color:#b4b970;stop-opacity:1"/><stop offset="1" style="stop-color:#616532;stop-opacity:1"/></linearGradient><linearGradient xlink:href="#b" id="e" x1="151.465" x2="157.722" y1="195.639" y2="198.071" gradientTransform="translate(48.472 -18.405)" gradientUnits="userSpaceOnUse"/><linearGradient xlink:href="#b" id="f" x1="151.769" x2="157.465" y1="187.417" y2="190.06" gradientTransform="translate(48.472 -18.405)" gradientUnits="userSpaceOnUse"/></defs><g style="stroke-width:1.29311;stroke-dasharray:none" transform="matrix(.63576 .58637 -.58717 .63304 -21.81 -214.097)"><path d="M204.397 154.47c-2.249-.067-7.06 1.94-7.06 1.94 5.346-6.939 13.266-3.742 13.63 1.48.193 2.784-1.188 4.662-3.027 6.367s-3.538 3.275-3.538 3.275v2.365h-2.463v-2.786s6.932-5.433 7.004-8.454-2.298-4.118-4.546-4.186z" style="fill:url(#c);stroke:#262626;stroke-width:1.1;stroke-linecap:round;stroke-linejoin:miter;paint-order:fill markers stroke"/><path d="M200.62 169.984h4.938s-1.043 2.788-1.058 4.336 1.058 4.735 1.058 4.735v0h-4.939s1.067-3.103 1.059-4.651c-.01-1.548-1.059-4.42-1.059-4.42" style="fill:url(#d);stroke:#313319;stroke-width:1.1;stroke-linecap:round;stroke-linejoin:round;stroke-dasharray:none;paint-order:fill markers stroke"/><rect width="5.017" height="1.746" x="200.58" y="177.787" rx=".43" ry=".617" style="fill:url(#e);fill-opacity:1;stroke:#313319;stroke-width:1.1;stroke-linecap:round;stroke-linejoin:round;stroke-dasharray:none;stroke-opacity:1;paint-order:fill markers stroke"/><rect width="5.017" height="1.746" x="200.58" y="169.378" rx=".43" ry=".617" style="fill:url(#f);fill-opacity:1;stroke:#313319;stroke-width:1.1;stroke-linecap:round;stroke-linejoin:round;stroke-dasharray:none;stroke-opacity:1;paint-order:fill markers stroke"/></g></svg>