<svg xmlns="http://www.w3.org/2000/svg" width="62" height="72" fill="none"><g style="stroke-width:1.06317;stroke-dasharray:none" transform="matrix(1.6434 .93242 -.94882 1.615 -9.61 -60.14)"><path d="M42.499 21.036s-.627-7.69 5.687-7.69" style="fill:none;fill-opacity:1;fill-rule:evenodd;stroke:#171717;stroke-width:1.06317;stroke-linecap:round;stroke-linejoin:round;stroke-miterlimit:29;stroke-dasharray:none;stroke-opacity:1"/><circle cx="48.119" cy="16.547" r="3.202" style="fill:none;fill-opacity:1;fill-rule:evenodd;stroke:#171717;stroke-width:1.06317;stroke-linecap:round;stroke-linejoin:round;stroke-miterlimit:29;stroke-dasharray:none;stroke-opacity:1"/></g><path d="M20.373 21.492h13.652v43.802H20.373z" style="fill:#e2d9b5;fill-opacity:1;stroke:#1c121c;stroke-width:4;stroke-linecap:round;stroke-linejoin:round;stroke-dasharray:none;stroke-opacity:1" transform="rotate(30 33.1 37.839)"/><path d="M24.243 22.25h5.91v41.596h-5.91z" style="fill:#f0ecdb;fill-opacity:1;stroke:none;stroke-width:2;stroke-linecap:round;stroke-linejoin:round" transform="rotate(30 33.1 37.839)"/><path d="M34.207 26.822h16.291v11.695h-16.29z" style="fill:#663656;fill-opacity:1;stroke:#1c121c;stroke-width:4;stroke-linecap:round;stroke-linejoin:round;stroke-dasharray:none;stroke-opacity:1" transform="rotate(30 37.272 8.649)"/><path d="M39.726 27.603h5.252v10.133h-5.252z" style="fill:#854770;fill-opacity:1;stroke:none;stroke-width:2;stroke-linecap:round;stroke-linejoin:round;stroke-dasharray:none;stroke-opacity:1" transform="rotate(30 37.272 8.649)"/><path d="M34.207 26.822h16.291v11.695h-16.29z" style="fill:none;fill-opacity:1;stroke:#1c121c;stroke-width:4;stroke-linecap:round;stroke-linejoin:round;stroke-dasharray:none;stroke-opacity:1" transform="rotate(30 37.272 8.649)"/><g transform="rotate(30 83.974 10.494)"><circle cx="47.687" cy="56.268" r="2.123" style="fill:#95507e;fill-opacity:1;stroke:#1c121c;stroke-width:2;stroke-linecap:round;stroke-linejoin:round;stroke-dasharray:none;stroke-opacity:1"/><ellipse cx="54.123" cy="56.268" rx="1.716" ry="2.123" style="fill:#733e62;fill-opacity:1;stroke:#1c121c;stroke-width:1.99999;stroke-linecap:round;stroke-linejoin:round;stroke-dasharray:none;stroke-opacity:1"/><ellipse cx="41.25" cy="56.268" rx="1.716" ry="2.123" style="fill:#733e62;fill-opacity:1;stroke:#1c121c;stroke-width:1.99999;stroke-linecap:round;stroke-linejoin:round;stroke-dasharray:none;stroke-opacity:1"/></g><path d="M34.207 26.822h16.291v11.695h-16.29z" style="fill:#663656;fill-opacity:1;stroke:#1c121c;stroke-width:4;stroke-linecap:round;stroke-linejoin:round;stroke-dasharray:none;stroke-opacity:1" transform="rotate(30 4.065 -.25)"/><path d="M39.726 27.603h5.252v10.133h-5.252z" style="fill:#854770;fill-opacity:1;stroke:none;stroke-width:2;stroke-linecap:round;stroke-linejoin:round;stroke-dasharray:none;stroke-opacity:1" transform="rotate(30 4.065 -.25)"/><path d="M34.207 26.822h16.291v11.695h-16.29z" style="fill:none;fill-opacity:1;stroke:#1c121c;stroke-width:4;stroke-linecap:round;stroke-linejoin:round;stroke-dasharray:none;stroke-opacity:1" transform="rotate(30 4.065 -.25)"/><g transform="rotate(30 50.767 1.596)"><circle cx="47.687" cy="56.268" r="2.123" style="fill:#95507e;fill-opacity:1;stroke:#1c121c;stroke-width:2;stroke-linecap:round;stroke-linejoin:round;stroke-dasharray:none;stroke-opacity:1"/><ellipse cx="54.123" cy="56.268" rx="1.716" ry="2.123" style="fill:#733e62;fill-opacity:1;stroke:#1c121c;stroke-width:1.99999;stroke-linecap:round;stroke-linejoin:round;stroke-dasharray:none;stroke-opacity:1"/><ellipse cx="41.25" cy="56.268" rx="1.716" ry="2.123" style="fill:#733e62;fill-opacity:1;stroke:#1c121c;stroke-width:1.99999;stroke-linecap:round;stroke-linejoin:round;stroke-dasharray:none;stroke-opacity:1"/></g><path d="M19.844 64.22h14.71l3 3v2.047l-3 3h-14.71l-3-3V67.22zm0-49.702h14.71l3 3v2.048l-3 3h-14.71l-3-3V17.52z" style="fill:#854770;fill-opacity:1;stroke:#1c121c;stroke-width:4;stroke-linecap:round;stroke-linejoin:round;stroke-dasharray:none;stroke-opacity:1" transform="rotate(30 33.1 37.839)"/></svg>