<svg xmlns="http://www.w3.org/2000/svg" xml:space="preserve" width="121.717" height="50.89" viewBox="0 0 32.204 13.465"><g transform="rotate(15 45.11 15.16)"><path d="m5.883 17.657.455-.262.48.83-.478.277" style="display:inline;fill:#95806f;fill-opacity:1;stroke:#3b322b;stroke-width:.21986;stroke-linejoin:round;stroke-dasharray:none;stroke-opacity:1"/><path d="M5.593 20.973a.6.6 0 0 0-.117-.026h-.028l-.243-.42-.243-.42.823-.475.823-.475.03.051.029.052-.093.057c-.083.051-.097.063-.12.099-.014.022-.192.384-.395.803l-.373.773c-.003.005-.045-.004-.093-.019z" style="display:inline;fill:#413f3a;fill-opacity:1;stroke:#413f3a;stroke-width:.0343838;stroke-linejoin:round;stroke-dasharray:none;stroke-opacity:1"/><path d="m2.673 20.862-.189-.326 1.844-1.065 1.845-1.065.188.326.188.326-1.844 1.065-1.844 1.065zM.657 21.099l-.151-.262 2.651-1.53 2.651-1.531.152.262.15.261-2.65 1.531-2.652 1.53zM2.358 21.21c-.101-.168-.125-.202-.16-.224a.3.3 0 0 0-.173-.048c-.054.002-.07.01-.548.279l-.492.277-.054-.015-.055-.015.75-.433.751-.434.189.327.188.326-.138.08-.138.08zM.517 21.384l-.18-.042-.043-.093a1 1 0 0 1-.059-.154c-.017-.073.002-.102.101-.16l.063-.036.151.262c.083.144.177.279.176.28-.002 0-.11-.034-.21-.057z" style="display:inline;fill:#595650;fill-opacity:1;stroke:#59554f;stroke-width:.0493774;stroke-linejoin:round;stroke-dasharray:none;stroke-opacity:1"/><path d="m2.914 24.476-.04.011c-.05.016-.083-.02-.207-.211a16 16 0 0 0-2.028-2.537 6 6 0 0 1-.237-.252c-.014-.024.048.016.3.083.173.046.284.013.311.01.053-.007.148-.061.627-.336.33-.188.355-.175.399-.177.085-.004.105.016.231.226l.112.187-.038.037a.38.38 0 0 0-.107.322c.02.131.05.174.46.679.203.25.38.466.394.479a.28.28 0 0 0 .216.089c.059-.003.177-.072.234-.138.022-.026.329-.49.68-1.03.691-1.061.677-1.036.666-1.166-.005-.063-.01-.073-.117-.267l-.113-.201.098-.057.098-.056.241.418c.174.3.239.419.231.423-.018.01-1.566 2.386-1.579 2.422l-.012.034.114.204.115.205-.519.298c-.285.164-.524.3-.53.3zm1.068-1.489c.306-.472.49-.763.497-.784.023-.068-.01-.147-.078-.187-.062-.035-.107-.038-.16-.007-.04.023-.076.075-.322.457-.31.485-.318.5-.272.58.055.095.168.125.244.064a1 1 0 0 0 .091-.123zm-.894.31a.2.2 0 0 0 .014-.079l-.001-.044-.31-.413a14 14 0 0 0-.337-.436.2.2 0 0 0-.07-.035c-.04-.01-.05-.007-.11.027-.074.043-.096.079-.091.152l.003.045.318.421q.32.421.351.442.076.05.166-.012a.2.2 0 0 0 .067-.068zm-.882-.984a.3.3 0 0 0 .027-.324.3.3 0 0 0-.182-.167.29.29 0 0 0-.259.028.26.26 0 0 0-.113.104.318.318 0 0 0 .142.466.32.32 0 0 0 .385-.107z" style="display:inline;fill:#494641;fill-opacity:1;stroke:#494641;stroke-width:.0433544;stroke-linejoin:round;stroke-dasharray:none;stroke-opacity:1"/><path d="M.244 21.341c.005-.087-.057-.292.116-.378l5.483-3.165" style="display:inline;fill:none;fill-opacity:1;stroke:#6c6760;stroke-width:.109929;stroke-linejoin:round;stroke-dasharray:none;stroke-opacity:1"/><path d="M2.336 21.302c.055.05.116.09.225.018l4.005-2.313" style="display:inline;fill:none;fill-opacity:1;stroke:#4b4944;stroke-width:.109929;stroke-linejoin:round;stroke-dasharray:none;stroke-opacity:1"/><path d="m36.95 29.62-6.163 1.918a1.56 1.56 117.926 0 0-1.028 1.94l.134.444a1.5 1.5 27.233 0 0 1.915.985l14.609-4.934" style="display:inline;fill:#413f3a;fill-opacity:1;stroke:#363430;stroke-width:2.11667;stroke-linejoin:round;stroke-dasharray:none;stroke-opacity:1" transform="rotate(-29.999 36.945 12.357)scale(.10387)"/><path d="m6.61 18.896 4.179 3.948a2.53 2.53 21.688 0 0 1.74.692h9.436c.224 0 .57.076.77.177.878.445 1.074.718 1.36 1.417" style="display:inline;fill:none;fill-opacity:1;stroke:#53514b;stroke-width:1.05833;stroke-linejoin:round;stroke-dasharray:none;stroke-opacity:1" transform="rotate(-29.999 36.945 12.357)scale(.10387)"/><path d="M11.966 53.02c.307.585.268 1.642.77 2.364.364.521 1.468.66 2.116.66h10.17V52.21a1.51 1.51 121.768 0 1 .836-1.35l24.023-11.96c1.193-.695 1.32-3.35 1.173-3.195" style="display:inline;fill:none;fill-opacity:1;stroke:#3e3c38;stroke-width:1.05833;stroke-linejoin:round;stroke-dasharray:none;stroke-opacity:1" transform="rotate(-29.999 36.945 12.357)scale(.10387)"/><path d="M.887 20.551c1.613 6.221 2.6 12.477 2.825 18.775.011.307.093.805.295 1.034.194.22.431.324.687.375.474.095 1.264.065 1.748.065h5.723v-2.886l13.764-6.966a.444.444 9.93 0 1 .523.092l.978 1.038 8.193-5.574a.95.95 162.887 0 1 .535-.165h1.085a.293.293 135 0 0 .293-.292V15.723H2.518c-.345 0-.924.019-1.21.21-.366.245-.654.893-.636 3.086.003.43.107 1.116.215 1.532z" style="display:inline;fill:none;stroke:#363430;stroke-width:1.20103;stroke-linejoin:round;stroke-dasharray:none;stroke-opacity:1" transform="rotate(-30 33.87 12.158)scale(.18306)"/><path d="M12.226 24.862H24.19v2.046a1.29 1.29 121.519 0 1-.705 1.15l-11.006 5.599a3 3 0 0 1-.672.234c-.334.06-.656.079-.911-.122-.203-.158-.313-.58-.354-.837l-.958-6.043c-.084-.528.107-1.322.545-1.626q.223-.158.507-.262c.416-.148 1.146-.139 1.59-.139z" style="display:inline;fill:none;stroke:#363430;stroke-width:1.20103;stroke-linejoin:round;stroke-dasharray:none;stroke-opacity:1" transform="rotate(-30 33.957 12.208)scale(.18306)"/><path d="M2.954 54.472h9.548a.896.896 45 0 1 .896.896v.24a.896.896 135 0 1-.896.897H2.954a.896.896 45 0 1-.896-.896v-.24a.896.896 135 0 1 .896-.897z" style="display:inline;fill:none;stroke:#363430;stroke-width:1.05833;stroke-linejoin:round;stroke-opacity:1" transform="rotate(-57.316 17.8 11.188)scale(.10387)"/><path d="M2.954 54.472h9.548a.896.896 45 0 1 .896.896v.24a.896.896 135 0 1-.896.897H2.954a.896.896 45 0 1-.896-.896v-.24a.896.896 135 0 1 .896-.897z" style="display:inline;fill:none;stroke:#363430;stroke-width:1.05833;stroke-linejoin:round;stroke-opacity:1" transform="rotate(-127.112 5.97 13.845)scale(.10387)"/><circle cx="-9.376" cy="20.135" r=".261" style="display:inline;fill:#413f3a;fill-opacity:1;stroke:#363430;stroke-width:.109929;stroke-linejoin:round;stroke-dasharray:none;stroke-opacity:1" transform="rotate(-30)"/><path d="m6.797 18.104 4.392 4.1a2 2 21.521 0 0 1.363.539h9.5a2.064 2.064 45 0 1 2.065 2.063v4.276H70.62" style="display:inline;fill:none;stroke:#363430;stroke-width:1.05833;stroke-linejoin:round;stroke-dasharray:none;stroke-opacity:1" transform="rotate(-29.999 36.945 12.357)scale(.10387)"/><path d="m5.436 21.051-.551-.953" style="display:inline;fill:none;stroke:#363430;stroke-width:.109929;stroke-linejoin:round;stroke-dasharray:none;stroke-opacity:1"/><path d="m2.834 21.268-.426-.738m-2.01.247.386.67L6.2 18.32" style="display:inline;fill:none;fill-opacity:1;stroke:#363430;stroke-width:.109929;stroke-linejoin:round;stroke-dasharray:none;stroke-opacity:1"/><path d="M23.74 28.3h-3.676c-.618 0-1.561-.258-2.16-.399a6 6 0 0 0-1.398-.144c-2.449.01-3.962 2.482-3.503 4.89 1.53 8.025 2.362 16.085 2.326 24.188" style="display:inline;fill:none;fill-opacity:1;stroke:#363430;stroke-width:1.05833;stroke-linejoin:round;stroke-dasharray:none;stroke-opacity:1" transform="rotate(-29.999 36.945 12.357)scale(.10387)"/><path d="m15.24 12.266 9.96-5.751.375.649-9.985 5.765" style="display:inline;fill:#3e3c38;fill-opacity:1;stroke:#363430;stroke-width:.21986;stroke-linecap:square;stroke-linejoin:round;stroke-dasharray:none;stroke-opacity:1"/><path d="m13.976 13.431-.39-.673 5.477-3.162 5.475-3.161.39.673.388.674-5.476 3.161-5.475 3.162zm2.346-.677a.16.16 0 0 0-.128-.2c-.064-.011-.087-.005-.191.056q-.277.158-.118.315c.068.068.121.063.28-.03.128-.073.142-.085.157-.141zm1.154-.648c.03-.067.015-.136-.043-.188-.088-.079-.12-.068-.573.2l-.402.24-.012.066c-.018.092.024.157.116.182l.073.02.41-.237c.35-.203.412-.244.43-.283zm1.192-.697a.16.16 0 0 0-.17-.217c-.04.005-.172.076-.452.242-.386.23-.396.236-.41.291a.167.167 0 0 0 .125.199c.066.012.067.012.475-.224.386-.222.41-.239.432-.291zm1.192-.708c.022-.08.007-.12-.06-.168-.083-.06-.123-.044-.537.194a4 4 0 0 0-.41.258c-.073.088-.01.239.107.255.055.008.082-.005.47-.229l.41-.237zm1.19-.69c.017-.065.014-.083-.022-.128a.2.2 0 0 0-.095-.066c-.048-.013-.072-.002-.454.213-.253.142-.417.242-.438.268a.15.15 0 0 0-.025.11c.008.06.016.075.063.11.03.023.07.041.092.041.025 0 .187-.085.449-.235l.41-.236zm1.187-.648a.167.167 0 0 0-.099-.226l-.064-.022-.396.222c-.218.122-.41.236-.427.253-.087.083-.042.241.078.273l.061.016.417-.24c.302-.176.42-.251.43-.276zm1.189-.686a.167.167 0 0 0-.1-.226l-.063-.023-.396.223c-.218.122-.41.236-.427.252-.087.084-.042.242.077.274l.062.016.416-.24c.303-.176.42-.251.43-.276zm1.2-.718c.023-.082-.024-.164-.11-.194l-.065-.023-.396.223a7 7 0 0 0-.427.252c-.086.084-.041.242.078.274l.061.016.422-.243.421-.244zm.524-.302a.16.16 0 0 0-.129-.2c-.063-.01-.086-.004-.189.055-.149.086-.183.129-.172.215.008.06.016.075.062.11.076.058.113.052.272-.039.127-.073.14-.085.156-.141zm-10.044 5.39c.111-.168-.008-.407-.206-.413-.152-.005-.294.135-.282.277.016.2.233.321.402.224a.3.3 0 0 0 .086-.087zm1.501-.954c.017-.062.012-.085-.027-.154-.05-.085-.099-.126-.16-.135-.027-.003-.152.062-.458.238l-.422.243-.014.06c-.03.125.105.304.215.289.023-.003.223-.11.444-.237l.402-.23zm1.189-.686c.016-.062.012-.086-.028-.154-.05-.088-.126-.148-.176-.14a6 6 0 0 0-.441.242c-.403.232-.41.238-.43.296-.04.117.096.313.206.297.025-.004.226-.11.447-.237l.402-.231zm1.188-.686c.018-.065.014-.084-.036-.17-.047-.082-.066-.1-.117-.114l-.062-.016-.421.243c-.42.242-.422.244-.437.301-.02.073.015.172.084.24.09.09.11.084.568-.18l.402-.231zm1.189-.687c.017-.064.013-.084-.036-.17-.048-.082-.066-.1-.118-.113l-.061-.017-.422.244-.421.243-.016.061c-.014.053-.008.077.041.162.105.182.116.18.612-.105l.401-.231Zm1.177-.642c.04-.065.036-.107-.024-.21-.048-.086-.066-.103-.118-.117l-.062-.017-.421.243-.421.244-.017.061c-.014.053-.008.076.042.161.06.102.093.127.168.127.059 0 .82-.439.853-.492zm1.188-.686c.041-.065.036-.107-.023-.211-.049-.086-.066-.103-.119-.117l-.06-.016-.422.243-.422.244-.016.06c-.014.053-.008.077.042.165.055.094.065.103.132.115l.072.013.396-.229c.271-.156.404-.24.42-.267Zm1.196-.697c.04-.061.035-.088-.033-.206-.046-.08-.064-.097-.116-.11l-.061-.017-.422.243-.421.243-.017.062c-.013.051-.007.076.04.158.05.086.064.1.13.117l.072.02.398-.23c.319-.185.405-.24.43-.28Zm1.19-.687c.062-.098-.039-.304-.159-.32-.055-.009-.082.004-.474.23-.498.288-.488.277-.402.45.051.104.058.11.13.13l.076.02.398-.23c.324-.187.404-.24.43-.28zm-9.069 4.623a.16.16 0 0 0-.128-.2c-.064-.01-.087-.004-.19.055a.7.7 0 0 0-.148.107c-.042.052-.03.152.025.206.074.072.124.067.283-.024.13-.075.143-.088.158-.144zm1.154-.648c.031-.067.016-.135-.043-.187-.086-.077-.118-.066-.565.192l-.398.23-.02.076c-.018.066-.015.083.023.13a.2.2 0 0 0 .104.064c.061.012.07.008.47-.223.348-.2.41-.242.429-.282zm1.192-.696a.16.16 0 0 0-.17-.218c-.04.006-.171.076-.451.243-.387.23-.397.236-.411.29a.167.167 0 0 0 .126.2c.066.012.066.012.475-.224.386-.223.41-.24.431-.291zm1.194-.711c.017-.066.014-.084-.023-.129a.2.2 0 0 0-.094-.066c-.049-.013-.072-.003-.461.217-.446.252-.47.27-.462.375.006.07.052.12.13.14l.061.017.414-.24.414-.238zm1.188-.687c.018-.065.015-.083-.022-.128a.2.2 0 0 0-.094-.066c-.049-.013-.072-.003-.455.212-.253.142-.416.243-.437.269a.15.15 0 0 0-.025.11c.007.06.015.075.062.11.03.022.071.04.093.041.025 0 .187-.085.448-.236l.41-.236Zm1.188-.683c.025-.092-.011-.16-.1-.191l-.063-.023-.431.25-.43.248-.01.055c-.012.08.048.175.125.196l.061.016.414-.239.414-.239zm1.178-.642c.057-.08.012-.2-.089-.235l-.064-.023-.396.222c-.218.123-.41.236-.427.253-.087.084-.042.242.078.274l.061.016.404-.233c.263-.152.414-.248.433-.274Zm1.208-.726c.028-.09-.022-.17-.12-.197l-.073-.02-.398.23c-.484.28-.504.3-.422.442.032.055.074.079.14.077.027 0 .184-.083.448-.235l.406-.233zm.526-.303a.16.16 0 0 0-.128-.2c-.064-.011-.087-.005-.19.055-.149.086-.183.129-.172.215.008.06.016.075.063.11.075.057.112.052.271-.039.127-.073.141-.085.156-.141z" style="display:inline;fill:#595650;fill-opacity:1;stroke:#595650;stroke-width:.0732017;stroke-linecap:square;stroke-linejoin:round;stroke-dasharray:none;stroke-opacity:1"/><path d="M13.552 12.774 24.59 6.401" style="display:inline;fill:none;fill-opacity:1;stroke:#6b6861;stroke-width:.21986;stroke-linecap:square;stroke-linejoin:round;stroke-dasharray:none;stroke-opacity:1"/><path d="m14.418 14.08 11.039-6.374" style="display:inline;fill:none;fill-opacity:1;stroke:#46443f;stroke-width:.21986;stroke-linecap:square;stroke-linejoin:round;stroke-dasharray:none;stroke-opacity:1"/><path d="m12.695 17.868 1.234 2.136 2.144-1.635-1.306-2.26" style="display:inline;fill:#8f897f;fill-opacity:1;stroke:#363430;stroke-width:.21986;stroke-linecap:round;stroke-linejoin:round;stroke-dasharray:none;stroke-opacity:1"/><path d="m13.48 17.224 1.22 2.114M13.84 16.871l1.22 2.114" style="display:inline;fill:none;fill-opacity:1;stroke:#757066;stroke-width:.233186;stroke-linecap:square;stroke-linejoin:round;stroke-dasharray:none;stroke-opacity:1"/><path d="m14.217 16.437 1.22 2.114" style="display:inline;fill:none;fill-opacity:1;stroke:#757066;stroke-width:.378927;stroke-linecap:square;stroke-linejoin:round;stroke-dasharray:none;stroke-opacity:1"/><path d="m13.116 17.574 1.184 2.05" style="display:inline;fill:none;fill-opacity:1;stroke:#757066;stroke-width:.229647;stroke-linecap:square;stroke-linejoin:round;stroke-dasharray:none;stroke-opacity:1"/><path d="m12.695 17.868 1.234 2.136 2.144-1.635-1.306-2.26" style="display:inline;fill:none;fill-opacity:1;stroke:#363430;stroke-width:.21986;stroke-linecap:round;stroke-linejoin:round;stroke-dasharray:none;stroke-opacity:1"/><path d="M11.431 18.573a1 1 0 0 1-.185.025l-.144.012-.209.12-.209.121-.22-.376a2.2 2.2 0 0 0-.3-.391c-.015-.01.056-.012.172-.079l.125-.072-.014.067a.36.36 0 0 0 .025.24.6.6 0 0 0 .17.253.73.73 0 0 0 .447.082c.114-.015.303-.074.376-.115.132-.077.611-.469.731-.6q.173-.187.065-.456a.46.46 0 0 0-.294-.264l-.137-.03.113-.03c.068-.02.086-.042.133-.017.031.017.044.037.23.36l.197.34-.048.012a.44.44 0 0 0-.188.109l-.336.306c-.296.27-.4.35-.5.383" style="display:inline;fill:#494641;fill-opacity:1;stroke:#494641;stroke-width:.0407623;stroke-linecap:round;stroke-linejoin:round;stroke-dasharray:none;stroke-opacity:1"/><path d="M13.658 14.23c-.113-.196-.12-.21-.122-.283-.002-.068-.011-.093-.077-.207-.081-.14-.116-.173-.216-.204a.4.4 0 0 0-.114-.013c-.058.002-.104.028-1.309.724-1.4.809-1.307.747-1.336.893-.018.088 0 .153.076.285.06.105.139.181.187.183.01 0 .036.031.058.07l.04.068-.068.034-.067.034-.139-.102a2 2 0 0 1-.136-.105c0-.002-.072.011-.055-.007a.1.1 0 0 0 .026-.068c.004-.056-.002-.07-.132-.296-.21-.362-.038-.326-.446-.09l-.299.172-.015.057c-.02.075-.053.023.141.247.083.096.203.179.206.185.004.007-.57.317-1.35.767l-1.308.756-.116-.2-.115-.2.461-.268c.556-.32.525-.288.436-.458l-.058-.11 2.834-1.636 2.834-1.637.388.672.387.67-.033.009c-.131.033-.164.048-.215.098-.03.028-.092.077-.14.11l-.088.057z" style="display:inline;fill:#6c6760;fill-opacity:1;stroke:#6c6760;stroke-width:.0578165;stroke-linecap:round;stroke-linejoin:round;stroke-dasharray:none;stroke-opacity:1"/><path d="M8.455 17.491c-.065.012-.974.007-1.03-.005a.4.4 0 0 1-.102-.039l-.044-.026 1.516-.872 1.517-.873.176.13c.21.155.21.155.334.083l.082-.047.054.094.054.094-1.261.727c-.865.499-1.273.73-1.296.734" style="display:inline;fill:#494641;fill-opacity:1;stroke:#494641;stroke-width:.0433983;stroke-linecap:round;stroke-linejoin:round;stroke-dasharray:none;stroke-opacity:1"/><path d="m83.974 12.81 10.4.038a.71.71 135.332 0 0 .71-.702l.007-.9a1.41 1.41 135.228 0 1 1.41-1.399h60.861" style="display:inline;fill:none;fill-opacity:1;stroke:#878178;stroke-width:2.10535;stroke-linecap:square;stroke-linejoin:round;stroke-dasharray:none;stroke-opacity:1" transform="rotate(-29.999 36.945 12.357)scale(.10387)"/><path d="M9.895 21.872c-.446.12-.814.216-.818.215s.048-.712.117-1.579l.125-1.576-.083-.154-.082-.154.43-.243.43-.243.068.022.067.022.21.363.21.363-.038.038c-.032.033-.036.08-.037.372-.001.214.007.348.022.374a.4.4 0 0 0 .118.094l.095.054-.096.065c-.12.082-.156.138-.171.272-.011.097-.016.755-.007.93q.008.136.148.275.11.111.104.224l-.003.05zm.43-.318a.3.3 0 0 0 .044-.114c.004-.037.004-.52 0-1.073-.006-.905-.01-1.011-.043-1.068-.031-.055-.047-.065-.119-.083a1.9 1.9 0 0 0-.54.02c-.11.024-.172.072-.203.159-.062.172-.164 1.25-.185 1.954-.01.323.004.383.092.424.065.03.388-.013.701-.094.164-.042.206-.063.253-.125" style="display:inline;fill:#494641;fill-opacity:1;stroke:#494641;stroke-width:.0648316;stroke-linecap:round;stroke-linejoin:round;stroke-dasharray:none;stroke-opacity:1"/><path d="M12.412 17.369c-.2-.348-.218-.375-.265-.406a.3.3 0 0 0-.109-.038c-.052-.004-.076.004-.209.072a5 5 0 0 1-.312.143c-.126.05-.234.106-.475.245-.277.16-.324.192-.42.276a1.7 1.7 0 0 1-.332.227c-.194.111-.235.131-.278.133-.046.002-.099.03-.493.253l-.442.251-.088-.083c-.21-.197-.484-.258-.801-.18l-.12.03-.513.296-.513.296-.083-.145-.084-.144.045-.026c.06-.034.094-.107.09-.19-.005-.066-.008-.072-.274-.532l-.269-.467.02-.025a1 1 0 0 1 .05-.052.2.2 0 0 0 .046-.09l.017-.063.137-.08.138-.079.132.23c.148.255.186.3.303.359.083.041.129.044.712.043.396 0 .444-.003.527-.035.08-.03.088-.03.06-.005-.043.037-.07.148-.052.215a.25.25 0 0 0 .219.183c.063.007.177-.05.218-.109a.22.22 0 0 0 .014-.224.4.4 0 0 0-.054-.09c-.036-.037-.258.017-.324.024-.058.006.103-.09 1.262-.76l1.185-.684.05.038a.36.36 0 0 0 .252.076l.085-.006 1.133-.654c1.128-.651 1.133-.655 1.172-.709a.36.36 0 0 0 .07-.254c-.007-.063-.004-.083.017-.095.03-.018.029-.02.038.05.01.083.097.207.17.244.047.023.056.032.049.05a.4.4 0 0 0 0 .098c.007.075.01.08.247.492.216.373.246.42.287.45a.2.2 0 0 1 .045.038 336 336 0 0 1-2.052 1.777c-.01.006-.072-.094-.228-.364m-2.557.6a.4.4 0 0 0-.043-.109c-.033-.058-.04-.08-.032-.12.013-.076.007-.115-.024-.17-.036-.061-.108-.104-.165-.097a.1.1 0 0 1-.065-.014c-.035-.026-.095.01-.09.055.001.018-.003.036-.01.04-.006.003-.019.035-.027.07-.013.051-.01.073.016.129.027.058.04.071.088.096.032.015.063.025.069.021.006-.003.027.021.047.054.044.077.102.139.13.14a.2.2 0 0 0 .064-.028c.035-.023.044-.038.043-.067m.86-.55c.07-.111-.039-.267-.166-.237-.092.022-.145.103-.123.189.036.14.211.169.289.048m1.134-.7.02-.064-.069-.128c-.056-.103-.077-.132-.113-.155-.113-.073-.306.03-.31.166 0 .042.011.072.065.165.105.182.166.207.308.126.073-.042.08-.05.099-.11m-.721-.2a.1.1 0 0 0-.009-.08c-.02-.035-.018-.037.03-.065.055-.032.069-.06.046-.099-.018-.031-.06-.032-.112-.002-.03.018-.046.018-.078-.001-.058-.034-.101-.022-.253.072-.132.08-.135.084-.144.131-.008.043-.003.06.046.145.046.08.063.099.097.113.041.016.042.016.203-.077.156-.09.162-.095.174-.138m-3.884 2.165c.014-.053.012-.07-.014-.115-.079-.137-.293-.078-.286.078.006.124.128.187.239.124.036-.02.048-.038.061-.087" style="display:inline;fill:#4b4944;fill-opacity:1;stroke:#4b4944;stroke-width:.0534143;stroke-linecap:round;stroke-linejoin:round;stroke-dasharray:none;stroke-opacity:1"/><path d="M77.922 62.24c-.209.945-.566 1.967-.874 2.785-.278.742.472 1.596 1.53 1.86l14.085 3.512" style="display:inline;fill:none;fill-opacity:1;stroke:#3b3935;stroke-width:2.11667;stroke-linecap:square;stroke-linejoin:round;stroke-dasharray:none;stroke-opacity:1" transform="rotate(-29.999 36.945 12.357)scale(.10387)"/><path d="m9.122 18.669.864-.499a.34.34 0 0 1 .26.063" style="display:inline;fill:none;fill-opacity:1;stroke:#56534d;stroke-width:.109929;stroke-linecap:square;stroke-linejoin:round;stroke-dasharray:none;stroke-opacity:1"/><path d="m126.777 46.667 24.216-4.733c.753-.147 1.55-.862 1.717-1.61.295-1.325.598-3.083.634-3.76" style="display:inline;fill:none;fill-opacity:1;stroke:#3e3c38;stroke-width:1.85208;stroke-linecap:square;stroke-linejoin:round;stroke-dasharray:none;stroke-opacity:1" transform="rotate(-29.999 36.945 12.357)scale(.10387)"/><path d="M274.166 8.734H93.603v2.962H78.504v.501a.567.567 135 0 1-.567.568 1.71 1.71 134.378 0 0-1.69 1.727v9.653a1.007 1.007 135 0 1-1.008 1.007h-.354a1.11 1.11 135 0 0-1.111 1.112v3.197a1.08 1.08 45 0 0 1.078 1.078h11.137c3.579.717 6.168 2.492 6.588 6.588v3.225l-17.6 25.61a.578.578 69.749 0 0 .327.886l16.774 4.495a.89.89 157.5 0 0 1.002-.415l.354-.615a3.82 3.82 97.5 0 0 .382-2.898l-.293-1.092a1.9 1.9 97.5 0 1 .19-1.436l3.86-6.685c.181-.316.517-.799.747-1.081.213-.26.448-.505.815-.654.534-.217 1.505-.145 2.086-.145h.503a.78.78 120 0 0 .675-1.168l-1.297-2.247 2.926-5.068h5.939c.711.358 1.412.736 2.153 1.035 1.076.433 2.953.327 4.09.078l6.614-1.448c.17-.038.444-.108.613-.15.61-.15 1.203-.211 1.747-.03.152.051.283.24.303.4l.07.554 28.78-5.615-.34-.723a5.3 5.3 77.53 0 1-.501-2.268l.021-7.24a2.7 2.7 109.593 0 1 .603-1.694l.682-.841" style="display:inline;fill:none;fill-opacity:1;stroke:#363430;stroke-width:2.11667;stroke-linejoin:round;stroke-dasharray:none;stroke-opacity:1" transform="rotate(-29.999 36.945 12.357)scale(.10387)"/><path d="M14.276 14.286 25.478 7.82l-.893-1.547-.537.31" style="display:inline;fill:none;fill-opacity:1;stroke:#363430;stroke-width:.21986;stroke-linejoin:round;stroke-dasharray:none;stroke-opacity:1"/><circle cx="5.064" cy="19.697" r=".23" style="display:inline;fill:#8f897f;fill-opacity:1;stroke:#363430;stroke-width:.21986;stroke-linejoin:round;stroke-dasharray:none;stroke-opacity:1" transform="rotate(-30)"/><path d="M94.587 45.464c1.77.557 3.275 1.379 4.66 2.321.52.354.676 1.104.364 1.65l-9.605 16.848c-.311.546-1.068.91-1.684.784-2.412-.493-4.717-1.306-6.946-2.347a1.02 1.02 0 0 1-.44-1.476 166 166 0 0 1 11.845-17.19c.39-.495 1.206-.78 1.806-.59z" style="display:inline;fill:#3e3c38;fill-opacity:1;stroke:#3e3c38;stroke-width:1.05833;stroke-linecap:square;stroke-linejoin:miter;stroke-dasharray:none;stroke-opacity:1" transform="rotate(-29.999 36.945 12.357)scale(.10387)"/><path d="M-.254 17.482h.128v.106h-.128zM.186 17.482h.128v.106H.186zM.626 17.482h.128v.106H.626zM1.065 17.482h.128v.106h-.128zM1.505 17.482h.128v.106h-.128zM1.945 17.482h.128v.106h-.128zM2.385 17.482h.128v.106h-.128zM2.824 17.482h.128v.106h-.128zM3.264 17.482h.128v.106h-.128zM3.704 17.482h.128v.106h-.128zM4.143 17.482h.128v.106h-.128zM4.583 17.482h.128v.106h-.128zM5.023 17.482h.128v.106h-.128zM5.463 17.482h.128v.106h-.128zM5.902 17.482h.128v.106h-.128zM6.342 17.482h.128v.106h-.128zM6.782 17.482h.128v.106h-.128zM7.221 17.482h.128v.106h-.128zM7.661 17.482h.128v.106h-.128zM8.101 17.482h.128v.106h-.128zM8.541 17.482h.128v.106h-.128zM8.98 17.482h.128v.106H8.98zM9.42 17.482h.128v.106H9.42zM9.86 17.482h.128v.106H9.86zM10.299 17.482h.128v.106h-.128zM10.739 17.482h.128v.106h-.128zM11.179 17.482h.128v.106h-.128zM11.619 17.482h.128v.106h-.128zM12.058 17.482h.128v.106h-.128zM12.498 17.482h.128v.106h-.128zM12.938 17.482h.128v.106h-.128zM13.377 17.482h.128v.106h-.128zM13.817 17.482h.128v.106h-.128zM14.257 17.482h.128v.106h-.128zM14.697 17.482h.128v.106h-.128zM15.136 17.482h.128v.106h-.128zM15.576 17.482h.128v.106h-.128zM16.016 17.482h.128v.106h-.128zM16.455 17.482h.128v.106h-.128z" style="display:inline;fill:#494641;fill-opacity:1;stroke:#363430;stroke-width:.159333;stroke-linecap:square;stroke-linejoin:miter;stroke-dasharray:none;stroke-opacity:1" transform="rotate(-30)"/><path d="M10.722 17.7c.085.424.469.531.588.562a.86.86 0 0 1-.387-.71" style="display:inline;fill:#413f3a;fill-opacity:1;stroke:#363430;stroke-width:.109929;stroke-linecap:round;stroke-linejoin:round;stroke-dasharray:none;stroke-opacity:1"/><path d="M92.451 36.846h10.131a2.334 2.334 45 0 1 2.335 2.334v8.176" style="display:inline;fill:none;fill-opacity:1;stroke:#363430;stroke-width:1.05833;stroke-linecap:square;stroke-linejoin:miter;stroke-dasharray:none;stroke-opacity:1" transform="rotate(-29.999 36.945 12.357)scale(.10387)"/><path d="M104.613 37.374h4.834c4.415-1.138 8.975-.702 13.693 0h1.672a1.63 1.63 45 0 1 1.628 1.628v8.342" style="display:inline;fill:none;fill-opacity:1;stroke:#363430;stroke-width:1.05833;stroke-linecap:square;stroke-linejoin:miter;stroke-dasharray:none;stroke-opacity:1" transform="rotate(-29.999 36.945 12.357)scale(.10387)"/><path d="M109.483 37.582c-.857.582-1.58 1.223-1.997 1.994-.204.378-.282 1.074-.322 1.502-.051.55-.124 1.1-.01 1.65.087.42.477 1.011.763 1.333 1.437 1.622 3.097 2.053 4.9 2.45.42.092 1.11.14 1.538.1 2.566-.244 5.041-.699 7.485-1.226.421-.091 1.103-.26 1.481-.466 1.002-.547 1.47-1.456 1.677-2.542.08-.423.1-1.127-.01-1.543-.358-1.367-1.49-2.442-2.508-3.243" style="display:inline;fill:none;fill-opacity:1;stroke:#363430;stroke-width:1.05833;stroke-linecap:square;stroke-linejoin:miter;stroke-dasharray:none;stroke-opacity:1" transform="rotate(-29.999 36.945 12.357)scale(.10387)"/><path d="M83.237 11.945v5.406a3.73 3.73 60 0 0 1.865 3.231l7.423 4.285a3.7 3.7 15 0 0 1.86.499h61.202" style="display:inline;fill:none;fill-opacity:1;stroke:#363430;stroke-width:1.05833;stroke-linecap:round;stroke-linejoin:round;stroke-dasharray:none;stroke-opacity:1" transform="rotate(-29.999 36.945 12.357)scale(.10387)"/><circle cx="-1.255" cy="19.758" r=".181" style="display:inline;fill:#413f3a;fill-opacity:1;stroke:#363430;stroke-width:.109929;stroke-linecap:round;stroke-linejoin:round;stroke-dasharray:none;stroke-opacity:1" transform="rotate(-30)"/><circle cx="-3.174" cy="19.695" r=".093" style="display:inline;fill:#413f3a;fill-opacity:1;stroke:#363430;stroke-width:.109929;stroke-linecap:round;stroke-linejoin:round;stroke-dasharray:none;stroke-opacity:1" transform="rotate(-30)"/><path d="m9.52 17.551.019-.009a.137.137 0 0 1 .159.212c-.01.012.09.17.1.218.001.01-.023.02-.026.02-.001.002-.017.014-.022.01-.032-.028-.125-.2-.138-.197a.137.137 0 0 1-.108-.243c.005-.004-.008-.054-.008-.054z" style="display:inline;fill:#413f3a;fill-opacity:1;stroke:#363430;stroke-width:.109929;stroke-linecap:square;stroke-linejoin:round;stroke-opacity:1"/><text xml:space="preserve" x="-.727" y="19.803" style="font-size:.17806px;text-align:start;writing-mode:lr-tb;direction:ltr;text-anchor:start;display:inline;fill:#363430;fill-opacity:1;stroke:#363430;stroke-width:.0148383;stroke-linecap:round;stroke-linejoin:round;stroke-dasharray:none;stroke-opacity:1" transform="rotate(-30)"><tspan x="-.727" y="19.803" style="fill:#363430;fill-opacity:1;stroke-width:.0148383;stroke-dasharray:none">FIRE</tspan></text><text xml:space="preserve" x="-.247" y="20.142" style="font-size:.17806px;text-align:start;writing-mode:lr-tb;direction:ltr;text-anchor:start;display:inline;fill:#363430;fill-opacity:1;stroke:#363430;stroke-width:.0148383;stroke-linecap:round;stroke-linejoin:round;stroke-dasharray:none;stroke-opacity:1" transform="rotate(-30)"><tspan x="-.247" y="20.142" style="fill:#363430;fill-opacity:1;stroke-width:.0148383;stroke-dasharray:none">SAFE</tspan></text><circle cx=".494" cy="20.303" r=".097" style="display:inline;fill:#413f3a;fill-opacity:1;stroke:#363430;stroke-width:.109929;stroke-linecap:round;stroke-linejoin:round;stroke-dasharray:none;stroke-opacity:1" transform="rotate(-30)"/><path d="M117.08 27.012h3.145a.54.54 45 0 1 .539.539v1.725a.54.54 135 0 1-.54.54h-3.144a.54.54 45 0 1-.539-.54v-1.725a.54.54 135 0 1 .54-.54" style="display:inline;fill:#413f3a;fill-opacity:1;stroke:#363430;stroke-width:1.05833;stroke-linecap:round;stroke-linejoin:round" transform="rotate(-29.999 36.872 12.43)scale(.10387)"/><path d="m11.075 16.365.124-.072" style="display:inline;fill:none;fill-opacity:1;stroke:#363430;stroke-width:.109929;stroke-linecap:round;stroke-linejoin:round;stroke-dasharray:none;stroke-opacity:1"/><path d="M123.762 30.57h.576a1.04 1.04 45 0 1 1.04 1.04v1.771a1.04 1.04 135 0 1-1.04 1.04h-.576a1.04 1.04 45 0 1-1.04-1.04v-1.77a1.04 1.04 135 0 1 1.04-1.041" style="display:inline;fill:#413f3a;stroke:#363430;stroke-width:1.05833;stroke-linecap:round;stroke-linejoin:round" transform="rotate(-29.999 36.945 12.357)scale(.10387)"/><path d="M122.337 20.31h29.552v4.837a3.006 3.006 135 0 1-3.007 3.007h-23.539a3.006 3.006 45 0 1-3.006-3.007z" style="display:inline;fill:#8f897f;fill-opacity:1;stroke:#363430;stroke-width:2.11667;stroke-linecap:round;stroke-linejoin:round;stroke-dasharray:none" transform="rotate(-29.999 36.945 12.357)scale(.10387)"/><path d="M135.25 23.739h3.212a.727.727 45 0 1 .727.727v3.688h-4.667v-3.688a.727.727 135 0 1 .728-.727" style="display:inline;fill:#595650;stroke:#363430;stroke-width:2.11667;stroke-linecap:round;stroke-linejoin:round;stroke-dasharray:none" transform="rotate(-29.999 36.945 12.357)scale(.10387)"/><path d="m113.595 12.62.813 3.832a1.34 1.34 39.015 0 0 1.308 1.06h4.124a1.083 1.083 135 0 0 1.083-1.084v-3.785a1.083 1.083 45 0 0-1.083-1.083h-5.386a.878.878 129.015 0 0-.859 1.06" style="display:inline;fill:#4b4944;fill-opacity:1;stroke:#363430;stroke-width:1.05833;stroke-linecap:round;stroke-linejoin:round;stroke-dasharray:none;stroke-opacity:1" transform="rotate(-29.999 37.08 12.614)scale(.10387)"/><path d="M124.002 14.321h26.183a2.49 2.49 45 0 1 2.489 2.49v1.205a2.49 2.49 135 0 1-2.489 2.488h-26.183a2.49 2.49 45 0 1-2.49-2.488V16.81a2.49 2.49 135 0 1 2.49-2.489" style="display:inline;fill:#d6d2cc;fill-opacity:1;stroke:#363430;stroke-width:2.11667;stroke-linecap:round;stroke-linejoin:round;stroke-dasharray:none" transform="rotate(-29.999 36.945 12.357)scale(.10387)"/><path d="M11.693 14.413c.059.18.158.338.279.483M12.41 13.992c.159.21.228.349.287.496" style="display:inline;fill:none;fill-opacity:1;stroke:#363430;stroke-width:.21986;stroke-linecap:round;stroke-linejoin:round;stroke-dasharray:none;stroke-opacity:1"/><path d="m13.497 12.724.848 1.469" style="display:inline;fill:#5a544c;fill-opacity:1;stroke:#363430;stroke-width:.109929;stroke-linecap:round;stroke-linejoin:round;stroke-dasharray:none;stroke-opacity:1"/><path d="M83.279 17.845h34.77l1.655 3.84a.72.72 33.333 0 0 .66.433h1.957" style="display:inline;fill:none;fill-opacity:1;stroke:#363430;stroke-width:1.05833;stroke-linecap:round;stroke-linejoin:round;stroke-dasharray:none;stroke-opacity:1" transform="rotate(-29.999 36.945 12.357)scale(.10387)"/><circle cx="2.025" cy="18.589" r=".033" style="display:inline;fill:#413f3a;fill-opacity:1;stroke:#363430;stroke-width:.109929;stroke-linecap:round;stroke-linejoin:round;stroke-dasharray:none;stroke-opacity:1" transform="rotate(-30)"/><circle cx="2.492" cy="18.712" r=".033" style="display:inline;fill:#413f3a;fill-opacity:1;stroke:#363430;stroke-width:.109929;stroke-linecap:round;stroke-linejoin:round;stroke-dasharray:none;stroke-opacity:1" transform="rotate(-30)"/><circle cx="6.439" cy="18.616" r=".205" style="display:inline;fill:#413f3a;fill-opacity:1;stroke:#363430;stroke-width:.109929;stroke-linecap:square;stroke-linejoin:round;stroke-dasharray:none;stroke-opacity:1" transform="rotate(-30)"/><path d="M180.615 17.485h7.936a1.02 1.02 45 0 1 1.018 1.018v.85a1.02 1.02 135 0 1-1.018 1.02h-7.936a1.02 1.02 45 0 1-1.018-1.02v-.85a1.02 1.02 135 0 1 1.018-1.018z" style="display:inline;fill:none;stroke:#363430;stroke-width:1.05833;stroke-linecap:square;stroke-linejoin:round" transform="rotate(-29.999 36.752 12.886)scale(.10387)"/><path d="M180.766 18.444h1.834a1.02 1.02 45 0 1 1.018 1.018.965.965 138.224 0 1-1.018.91h-1.834a1.02 1.02 45 0 1-1.018-1.018.965.965 138.224 0 1 1.018-.91z" style="display:inline;fill:none;stroke:#363430;stroke-width:1.05833;stroke-linecap:square;stroke-linejoin:round" transform="rotate(-29.999 35.778 13.064)scale(.10387)"/><path d="M180.615 17.485h7.936a1.02 1.02 45 0 1 1.018 1.018v.85a1.02 1.02 135 0 1-1.018 1.02h-7.936a1.02 1.02 45 0 1-1.018-1.02v-.85a1.02 1.02 135 0 1 1.018-1.018z" style="display:inline;fill:none;stroke:#363430;stroke-width:1.05833;stroke-linecap:square;stroke-linejoin:round" transform="rotate(-29.999 36.065 10.322)scale(.10387)"/><path d="M180.615 17.485h7.936a1.02 1.02 45 0 1 1.018 1.018v.85a1.02 1.02 135 0 1-1.018 1.02h-7.936a1.02 1.02 45 0 1-1.018-1.02v-.85a1.02 1.02 135 0 1 1.018-1.018z" style="display:inline;fill:none;stroke:#363430;stroke-width:1.05833;stroke-linecap:square;stroke-linejoin:round" transform="rotate(-29.999 35.378 7.758)scale(.10387)"/><path d="M180.615 17.485h7.936a1.02 1.02 45 0 1 1.018 1.018v.85a1.02 1.02 135 0 1-1.018 1.02h-7.936a1.02 1.02 45 0 1-1.018-1.02v-.85a1.02 1.02 135 0 1 1.018-1.018z" style="display:inline;fill:none;stroke:#363430;stroke-width:1.05833;stroke-linecap:square;stroke-linejoin:round" transform="rotate(-29.999 34.691 5.194)scale(.10387)"/><path d="M180.615 17.485h7.936a1.02 1.02 45 0 1 1.018 1.018v.85a1.02 1.02 135 0 1-1.018 1.02h-7.936a1.02 1.02 45 0 1-1.018-1.02v-.85a1.02 1.02 135 0 1 1.018-1.018z" style="display:inline;fill:none;stroke:#363430;stroke-width:1.05833;stroke-linecap:square;stroke-linejoin:round" transform="rotate(-29.999 34.004 2.63)scale(.10387)"/><path d="M180.615 17.485h7.936a1.02 1.02 45 0 1 1.018 1.018v.85a1.02 1.02 135 0 1-1.018 1.02h-7.936a1.02 1.02 45 0 1-1.018-1.02v-.85a1.02 1.02 135 0 1 1.018-1.018z" style="display:inline;fill:none;stroke:#363430;stroke-width:1.05833;stroke-linecap:square;stroke-linejoin:round" transform="rotate(-29.999 33.317 .065)scale(.10387)"/><path d="M180.615 17.485h7.936a1.02 1.02 45 0 1 1.018 1.018v.85a1.02 1.02 135 0 1-1.018 1.02h-7.936a1.02 1.02 45 0 1-1.018-1.02v-.85a1.02 1.02 135 0 1 1.018-1.018z" style="display:inline;fill:none;stroke:#363430;stroke-width:1.05833;stroke-linecap:square;stroke-linejoin:round" transform="rotate(-29.999 32.63 -2.499)scale(.10387)"/><path d="M180.615 17.485h7.936a1.02 1.02 45 0 1 1.018 1.018v.85a1.02 1.02 135 0 1-1.018 1.02h-7.936a1.02 1.02 45 0 1-1.018-1.02v-.85a1.02 1.02 135 0 1 1.018-1.018z" style="display:inline;fill:none;stroke:#363430;stroke-width:1.05833;stroke-linecap:square;stroke-linejoin:round" transform="rotate(-29.999 31.943 -5.063)scale(.10387)"/><path d="M180.787 18.444h7.92a1.02 1.02 45 0 1 1.018 1.018.965.965 138.224 0 1-1.018.91h-7.92a1.02 1.02 45 0 1-1.018-1.018.965.965 138.224 0 1 1.018-.91z" style="display:inline;fill:none;stroke:#363430;stroke-width:1.05833;stroke-linecap:square;stroke-linejoin:round" transform="rotate(-29.999 35.426 11.747)scale(.10387)"/><path d="M180.787 18.444h7.92a1.02 1.02 45 0 1 1.018 1.018.965.965 138.224 0 1-1.018.91h-7.92a1.02 1.02 45 0 1-1.018-1.018.965.965 138.224 0 1 1.018-.91z" style="display:inline;fill:none;stroke:#363430;stroke-width:1.05833;stroke-linecap:square;stroke-linejoin:round" transform="rotate(-29.999 34.739 9.183)scale(.10387)"/><path d="M180.787 18.444h7.92a1.02 1.02 45 0 1 1.018 1.018.965.965 138.224 0 1-1.018.91h-7.92a1.02 1.02 45 0 1-1.018-1.018.965.965 138.224 0 1 1.018-.91z" style="display:inline;fill:none;stroke:#363430;stroke-width:1.05833;stroke-linecap:square;stroke-linejoin:round" transform="rotate(-29.999 34.051 6.619)scale(.10387)"/><path d="M180.787 18.444h7.92a1.02 1.02 45 0 1 1.018 1.018.965.965 138.224 0 1-1.018.91h-7.92a1.02 1.02 45 0 1-1.018-1.018.965.965 138.224 0 1 1.018-.91z" style="display:inline;fill:none;stroke:#363430;stroke-width:1.05833;stroke-linecap:square;stroke-linejoin:round" transform="rotate(-29.999 33.364 4.054)scale(.10387)"/><path d="M180.787 18.444h7.92a1.02 1.02 45 0 1 1.018 1.018.965.965 138.224 0 1-1.018.91h-7.92a1.02 1.02 45 0 1-1.018-1.018.965.965 138.224 0 1 1.018-.91z" style="display:inline;fill:none;stroke:#363430;stroke-width:1.05833;stroke-linecap:square;stroke-linejoin:round" transform="rotate(-29.999 32.677 1.49)scale(.10387)"/><path d="M180.787 18.444h7.92a1.02 1.02 45 0 1 1.018 1.018.965.965 138.224 0 1-1.018.91h-7.92a1.02 1.02 45 0 1-1.018-1.018.965.965 138.224 0 1 1.018-.91z" style="display:inline;fill:none;stroke:#363430;stroke-width:1.05833;stroke-linecap:square;stroke-linejoin:round" transform="rotate(-29.999 31.99 -1.074)scale(.10387)"/><path d="M180.787 18.444h7.92a1.02 1.02 45 0 1 1.018 1.018.965.965 138.224 0 1-1.018.91h-7.92a1.02 1.02 45 0 1-1.018-1.018.965.965 138.224 0 1 1.018-.91z" style="display:inline;fill:none;stroke:#363430;stroke-width:1.05833;stroke-linecap:square;stroke-linejoin:round" transform="rotate(-29.999 31.303 -3.638)scale(.10387)"/><path d="M180.766 18.444h1.834a1.02 1.02 45 0 1 1.018 1.018.965.965 138.224 0 1-1.018.91h-1.834a1.02 1.02 45 0 1-1.018-1.018.965.965 138.224 0 1 1.018-.91z" style="display:inline;fill:none;stroke:#363430;stroke-width:1.05833;stroke-linecap:square;stroke-linejoin:round" transform="rotate(-29.999 30.682 -5.955)scale(.10387)"/><path d="M180.766 18.444h1.834a1.02 1.02 45 0 1 1.018 1.018.965.965 138.224 0 1-1.018.91h-1.834a1.02 1.02 45 0 1-1.018-1.018.965.965 138.224 0 1 1.018-.91z" style="display:inline;fill:none;stroke:#363430;stroke-width:1.05833;stroke-linecap:square;stroke-linejoin:round" transform="rotate(-29.999 37.522 12.596)scale(.10387)"/><path d="M180.787 18.444h7.92a1.02 1.02 45 0 1 1.018 1.018.965.965 138.224 0 1-1.018.91h-7.92a1.02 1.02 45 0 1-1.018-1.018.965.965 138.224 0 1 1.018-.91z" style="display:inline;fill:none;stroke:#363430;stroke-width:1.05833;stroke-linecap:square;stroke-linejoin:round" transform="rotate(-29.999 37.17 11.28)scale(.10387)"/><path d="M180.787 18.444h7.92a1.02 1.02 45 0 1 1.018 1.018.965.965 138.224 0 1-1.018.91h-7.92a1.02 1.02 45 0 1-1.018-1.018.965.965 138.224 0 1 1.018-.91z" style="display:inline;fill:none;stroke:#363430;stroke-width:1.05833;stroke-linecap:square;stroke-linejoin:round" transform="rotate(-29.999 36.482 8.715)scale(.10387)"/><path d="M180.787 18.444h7.92a1.02 1.02 45 0 1 1.018 1.018.965.965 138.224 0 1-1.018.91h-7.92a1.02 1.02 45 0 1-1.018-1.018.965.965 138.224 0 1 1.018-.91z" style="display:inline;fill:none;stroke:#363430;stroke-width:1.05833;stroke-linecap:square;stroke-linejoin:round" transform="rotate(-29.999 35.795 6.151)scale(.10387)"/><path d="M180.787 18.444h7.92a1.02 1.02 45 0 1 1.018 1.018.965.965 138.224 0 1-1.018.91h-7.92a1.02 1.02 45 0 1-1.018-1.018.965.965 138.224 0 1 1.018-.91z" style="display:inline;fill:none;stroke:#363430;stroke-width:1.05833;stroke-linecap:square;stroke-linejoin:round" transform="rotate(-29.999 35.108 3.587)scale(.10387)"/><path d="M180.787 18.444h7.92a1.02 1.02 45 0 1 1.018 1.018.965.965 138.224 0 1-1.018.91h-7.92a1.02 1.02 45 0 1-1.018-1.018.965.965 138.224 0 1 1.018-.91z" style="display:inline;fill:none;stroke:#363430;stroke-width:1.05833;stroke-linecap:square;stroke-linejoin:round" transform="rotate(-29.999 34.42 1.023)scale(.10387)"/><path d="M180.787 18.444h7.92a1.02 1.02 45 0 1 1.018 1.018.965.965 138.224 0 1-1.018.91h-7.92a1.02 1.02 45 0 1-1.018-1.018.965.965 138.224 0 1 1.018-.91z" style="display:inline;fill:none;stroke:#363430;stroke-width:1.05833;stroke-linecap:square;stroke-linejoin:round" transform="rotate(-29.999 33.734 -1.541)scale(.10387)"/><path d="M180.787 18.444h7.92a1.02 1.02 45 0 1 1.018 1.018.965.965 138.224 0 1-1.018.91h-7.92a1.02 1.02 45 0 1-1.018-1.018.965.965 138.224 0 1 1.018-.91z" style="display:inline;fill:none;stroke:#363430;stroke-width:1.05833;stroke-linecap:square;stroke-linejoin:round" transform="rotate(-29.999 33.047 -4.105)scale(.10387)"/><path d="M180.766 18.444h1.834a1.02 1.02 45 0 1 1.018 1.018.965.965 138.224 0 1-1.018.91h-1.834a1.02 1.02 45 0 1-1.018-1.018.965.965 138.224 0 1 1.018-.91z" style="display:inline;fill:none;stroke:#363430;stroke-width:1.05833;stroke-linecap:square;stroke-linejoin:round" transform="rotate(-29.999 32.426 -6.423)scale(.10387)"/><path fill="#393941" stroke="#2f2f36" stroke-miterlimit="3.994" stroke-width="1.887" d="m26.037 7.286-.168-.291-.318.183-.375-.649.318-.184-.126-.217.53-.307a.31.31 0 0 1 .26-.025l2.209-1.275a.17.17 0 0 1 .234.063l.116.2-1.747 1.06.129.223 1.784-.985.084.145a.21.21 0 0 1-.078.287L26.717 6.77a.3.3 0 0 1-.15.21z" style="display:inline;fill:#3e3c38;fill-opacity:1;stroke:#363430;stroke-width:.21986;stroke-dasharray:none;stroke-opacity:1"/><path fill="#585450" stroke="#363330" stroke-miterlimit="3.994" stroke-width="1.061" d="M67.406 3.9h3.102a.28.28 44.996 0 1 .278.279v.182a.204.204 44.996 0 0 .205.205h2.623V6.56h-3.66l.001-.295a.37.37 45.005 0 0-.37-.37h-2.179a.28.28 45.002 0 1-.279-.279V4.18a.28.28 135.002 0 1 .28-.279z" style="display:inline;fill:#4b4944;fill-opacity:1;stroke:#363430;stroke-width:.938185;stroke-dasharray:none;stroke-opacity:1" transform="scale(.11717)rotate(-30 316.522 87.542)"/><circle cx="3.367" cy="20.508" r=".378" style="display:inline;fill:#43413d;fill-opacity:1;stroke:#43413d;stroke-width:.141345;stroke-linecap:square;stroke-linejoin:round;stroke-dasharray:none;stroke-opacity:1" transform="rotate(-30)"/><path fill="#3e3e47" stroke="#303036" stroke-miterlimit="3.994" stroke-width="1.52" d="M86.722-1.857v9.815h8.343V5.71a1.9 1.9 77.756 0 0-.172-.79l-.515-1.132a.49.49 32.753 0 0-.45-.29h-.492a.8.8 44.998 0 1-.798-.798v-5.456c0-.222-.981.402-.976-.143.009-.855-.01-2.908-.005-4.21a.79.79 0 0 0-.79-.8h-2.379a.8.8 134.998 0 0-.798.8v4.032a.42.42 134.998 0 1-.422.422.684.684 124.353 0 0-.546.798z" style="display:inline;fill:#494641;fill-opacity:1;stroke:#363430;stroke-width:2.11667;stroke-dasharray:none;stroke-opacity:1" transform="rotate(-29.999 36.468 10.985)scale(.10387)"/><path fill="#686873" stroke="#2f2f36" stroke-linecap="round" stroke-miterlimit="3.994" stroke-width="1.52" d="M7.696 15.813a.226.226 0 1 0-.226-.392.226.226 0 0 0 .226.392z" style="display:inline;fill:#413f3a;fill-opacity:1;stroke:#363430;stroke-width:.21986;stroke-dasharray:none;stroke-opacity:1"/><path fill="#3e3e47" stroke="#2f2f36" stroke-miterlimit="3.994" stroke-width="2.236" d="m108.664 8.02-5.534-.001c-.95 0-1.733-.783-1.733-1.733v-13.08c0-.95.781-1.733 1.733-1.733h2.962c.95 0 1.733.782 1.733 1.732v9.151a.8.8 45 0 0 .8.8h1.81a1.13 1.13 35.287 0 1 1.066.754l1.45 4.109z" style="fill:#494641;fill-opacity:1;stroke:#363430;stroke-width:2.61661;stroke-dasharray:none;stroke-opacity:1" transform="scale(.08402)rotate(-30 328.16 -289.915)"/><path fill="#686873" stroke="#2f2f36" stroke-linecap="round" stroke-miterlimit="3.994" stroke-width="1.52" d="M23.667 6.7a.226.226 0 1 0-.226-.392.226.226 0 0 0 .226.392z" style="display:inline;fill:#413f3a;fill-opacity:1;stroke:#363430;stroke-width:.21986;stroke-dasharray:none;stroke-opacity:1"/></g></svg>