<svg width="157.851" height="23.901" viewBox="0 0 41.765 6.324" xmlns="http://www.w3.org/2000/svg">
    <path style="fill:#6d6d78;fill-opacity:1;stroke:#151519;stroke-width:.79375;stroke-linejoin:round;stroke-dasharray:none;stroke-opacity:1" d="M-111.193 32.644h3.77V30.61h-3.779z" transform="translate(118.689 -29.154)"/>
    <path style="fill:#303036;fill-opacity:1;stroke:#151519;stroke-width:.79375;stroke-linejoin:round;stroke-dasharray:none;stroke-opacity:1" d="M-82.044 32.908h1.35l.313-.24h3.06v-2.034h-3.064l-.305-.289h-1.362z" transform="translate(118.689 -29.154)"/>
    <path style="fill:#54545f;fill-opacity:1;stroke:none;stroke-width:.79375;stroke-linejoin:round;stroke-dasharray:none;stroke-opacity:1" d="M-98.22 33.351h16.707v-3.693H-98.23z" transform="translate(118.689 -29.154)"/>
    <path style="fill:#3f3f46;fill-opacity:1;stroke:none;stroke-width:.46795;stroke-linecap:butt;stroke-linejoin:round;stroke-dasharray:none;stroke-opacity:1" d="M-97.6 32.634h15.643v.943h-15.726zM-97.617 29.658h15.644v.942H-97.7z" transform="translate(118.689 -29.154)"/>
    <path style="fill:none;fill-opacity:1;stroke:#151519;stroke-width:.79375;stroke-linejoin:round;stroke-dasharray:none;stroke-opacity:1" d="M-98.391 33.333h16.707V29.92H-98.4z" transform="translate(118.689 -29.154)"/>
    <path style="fill:#3c3c44;fill-opacity:1;stroke:#151519;stroke-width:.396875;stroke-linejoin:round;stroke-dasharray:none;stroke-opacity:1" d="M-101.75 34.268c.003.256.137.525.487.529h2.604c.28-.01.44-.264.444-.53V33.22h-3.544z" transform="translate(118.689 -29.154)"/>
    <path style="fill:#54545f;fill-opacity:1;stroke:none;stroke-width:.79375;stroke-linejoin:round;stroke-dasharray:none;stroke-opacity:1" d="M-107.668 33.338h1.125l.008.53h8.657v-4.482h-8.64l-.033.53h-1.125z" transform="translate(118.689 -29.154)"/>
    <path style="fill:#3f3f46;fill-opacity:1;stroke:none;stroke-width:.310888;stroke-linecap:butt;stroke-linejoin:round;stroke-dasharray:none;stroke-opacity:1" d="M-106.398 32.953h8.511v.764h-8.556zM-106.526 29.538h8.51v.765h-8.555z" transform="translate(118.689 -29.154)"/>
    <path style="fill:#484851;fill-opacity:1;stroke:none;stroke-width:.396875;stroke-linejoin:round;stroke-dasharray:none;stroke-opacity:1" d="M-107.485 29.877h1.123v3.52h-1.251z" transform="translate(118.689 -29.154)"/>
    <path style="fill:#303036;fill-opacity:1;stroke:#151519;stroke-width:.396875;stroke-linecap:butt;stroke-linejoin:round;stroke-dasharray:none;stroke-opacity:1" d="m-103.347 33.858.396 1.21h.48l.44-1.424" transform="translate(118.689 -29.154)"/>
    <path style="fill:none;fill-opacity:1;stroke:#151519;stroke-width:.79375;stroke-linejoin:round;stroke-dasharray:none;stroke-opacity:1" d="M-107.613 33.338h1.207l.008.364h7.904l.67-.318V29.86l-.67-.308h-7.887l-.033.364h-1.208z" transform="translate(118.689 -29.154)"/>
    <path style="fill:none;fill-opacity:1;stroke:none;stroke-width:.79375;stroke-linejoin:round;stroke-dasharray:none;stroke-opacity:1" d="M-102.288 35.115h1.207l.008.363h8.574v-4.15h-8.557l-.033.363h-1.208z" transform="translate(118.689 -29.154)"/>
    <path style="fill:#54545f;fill-opacity:1;stroke:none;stroke-width:.79375;stroke-linejoin:round;stroke-dasharray:none;stroke-opacity:1" d="M-110.78 33.392h-6.429c-.381.111-.646.237-1.078.234v-3.87c.447.012.787.142 1.113.296h6.4z" transform="translate(118.689 -29.154)"/>
    <path style="fill:#484851;fill-opacity:1;stroke:none;stroke-width:.396875;stroke-linecap:butt;stroke-linejoin:round;stroke-dasharray:none;stroke-opacity:1" d="M-110.813 30.914h-7.607v-1.19l1.32.353h6.22zM-110.846 32.353h-7.607v1.19l1.32-.353h6.22z" transform="translate(118.689 -29.154)"/>
    <path style="fill:none;fill-opacity:1;stroke:#151519;stroke-width:.79375;stroke-linejoin:round;stroke-dasharray:none;stroke-opacity:1" d="M-110.784 33.328h-6.43c-.38.11-.645.236-1.078.233v-3.87c.448.012.787.142 1.114.296h6.399z" transform="translate(118.689 -29.154)"/>
    <path style="fill:#3c3c44;fill-opacity:1;stroke:#151519;stroke-width:.396875;stroke-linecap:butt;stroke-linejoin:round;stroke-dasharray:none;stroke-opacity:1" d="M-106.366 31.139h-.608v-.187c.014-.434-.698-.465-.694 0v1.29c-.015.423.697.42.682 0v-.23h.643" transform="translate(118.689 -29.154)"/>
    <path style="fill:#51515c;fill-opacity:1;stroke:#151519;stroke-width:.396875;stroke-linejoin:round;stroke-dasharray:none;stroke-opacity:1" d="M-106.513 29.666v3.927" transform="translate(118.689 -29.154)"/>
    <path style="fill:#393941;fill-opacity:1;stroke:#151519;stroke-width:.396875;stroke-linecap:round;stroke-linejoin:round;stroke-dasharray:none;stroke-opacity:1" d="M-77.7 31.627h-2.154" transform="translate(118.689 -29.154)"/>
    <g style="fill:#2f2f36;fill-opacity:1">
        <g style="fill:#3b3b44;fill-opacity:1">
            <path style="color:#000;fill:#3b3b44;fill-opacity:1;stroke-linejoin:round;-inkscape-stroke:none" d="M-127.947 54.197h-11.62" transform="matrix(1.72687 0 0 1 255.419 -51.724)"/>
            <path style="color:#000;fill:#3b3b44;fill-opacity:1;stroke-width:1.00571;stroke-linejoin:round;-inkscape-stroke:none" d="M-139.231 53.535v1.322h11.754v-1.322z" transform="matrix(1.72687 0 0 1 255.419 -51.724)"/>
        </g>
        <g style="fill:#242429;fill-opacity:1">
            <path style="color:#000;fill:#242429;fill-opacity:1;stroke-linejoin:round;-inkscape-stroke:none" d="M-138.005 53.53v1.334M-138.402 53.53v1.333h.795V53.53z" transform="translate(153.043 -51.724)"/>
        </g>
        <g style="fill:#242429;fill-opacity:1">
            <path style="color:#000;fill:#242429;fill-opacity:1;stroke-linejoin:round;-inkscape-stroke:none" d="M-136.563 53.53v1.334M-136.96 53.53v1.333h.794V53.53z" transform="translate(153.037 -51.724)"/>
        </g>
        <g style="fill:#242429;fill-opacity:1">
            <path style="color:#000;fill:#242429;fill-opacity:1;stroke-linejoin:round;-inkscape-stroke:none" d="M-135.12 53.53v1.334M-135.518 53.53v1.333h.795V53.53z" transform="translate(153.03 -51.724)"/>
        </g>
        <g style="fill:#242429;fill-opacity:1">
            <path style="color:#000;fill:#242429;fill-opacity:1;stroke-linejoin:round;-inkscape-stroke:none" d="M-133.679 53.53v1.334M-134.076 53.53v1.333h.795V53.53z" transform="translate(153.023 -51.724)"/>
        </g>
        <g style="fill:#242429;fill-opacity:1">
            <path style="color:#000;fill:#242429;fill-opacity:1;stroke-linejoin:round;-inkscape-stroke:none" d="M-130.8 53.53v1.335M-131.197 53.531v1.334h.793v-1.334Z" transform="translate(153.014 -51.726)"/>
        </g>
        <g style="fill:#242429;fill-opacity:1">
            <path style="color:#000;fill:#242429;fill-opacity:1;stroke-linejoin:round;-inkscape-stroke:none" d="M-130.8 53.53v1.335M-131.197 53.531v1.334h.793v-1.334Z" transform="translate(151.58 -51.714)"/>
        </g>
        <g style="fill:#242429;fill-opacity:1">
            <path style="color:#000;fill:#242429;fill-opacity:1;stroke-linejoin:round;-inkscape-stroke:none" d="M-129.358 53.53v1.335M-129.754 53.531v1.334h.793v-1.334Z" transform="translate(153.004 -51.726)"/>
        </g>
        <g style="fill:#242429;fill-opacity:1">
            <path style="color:#000;fill:#242429;fill-opacity:1;stroke-linejoin:round;-inkscape-stroke:none" d="M-127.966 53.53v1.335M-128.363 53.531v1.334h.795v-1.334Z" transform="translate(153.047 -51.726)"/>
        </g>
        <g style="fill:#242429;fill-opacity:1">
            <path style="color:#000;fill:#242429;fill-opacity:1;stroke-linejoin:round;-inkscape-stroke:none" d="M-138.005 53.53v1.334M-138.402 53.53v1.333h.795V53.53z" transform="translate(164.52 -51.724)"/>
        </g>
        <g style="fill:#242429;fill-opacity:1">
            <path style="color:#000;fill:#242429;fill-opacity:1;stroke-linejoin:round;-inkscape-stroke:none" d="M-136.563 53.53v1.334M-136.96 53.53v1.333h.794V53.53z" transform="translate(164.514 -51.724)"/>
        </g>
        <g style="fill:#242429;fill-opacity:1">
            <path style="color:#000;fill:#242429;fill-opacity:1;stroke-linejoin:round;-inkscape-stroke:none" d="M-135.12 53.53v1.334M-135.518 53.53v1.333h.795V53.53z" transform="translate(164.506 -51.724)"/>
        </g>
        <g style="fill:#242429;fill-opacity:1">
            <path style="color:#000;fill:#242429;fill-opacity:1;stroke-linejoin:round;-inkscape-stroke:none" d="M-133.679 53.53v1.334M-134.076 53.53v1.333h.795V53.53z" transform="translate(164.5 -51.724)"/>
        </g>
        <g style="fill:#242429;fill-opacity:1">
            <path style="color:#000;fill:#242429;fill-opacity:1;stroke-linejoin:round;-inkscape-stroke:none" d="M-132.243 53.53v1.335M-132.639 53.531v1.334h.793v-1.334Z" transform="translate(164.498 -51.726)"/>
        </g>
        <g style="fill:#242429;fill-opacity:1">
            <path style="color:#000;fill:#242429;fill-opacity:1;stroke-linejoin:round;-inkscape-stroke:none" d="M-130.8 53.53v1.335M-131.197 53.531v1.334h.793v-1.334Z" transform="translate(164.49 -51.726)"/>
        </g>
        <g style="fill:#242429;fill-opacity:1">
            <path style="color:#000;fill:#242429;fill-opacity:1;stroke-linejoin:round;-inkscape-stroke:none" d="M-129.358 53.53v1.335M-129.754 53.531v1.334h.793v-1.334Z" transform="translate(164.48 -51.726)"/>
        </g>
    </g>
    <path style="fill:none;fill-opacity:1;stroke:#151519;stroke-width:.396875;stroke-linecap:butt;stroke-linejoin:miter;stroke-dasharray:none;stroke-opacity:1" d="M-81.65 30.962h-23.441v1.33h23.441z" transform="translate(118.689 -29.154)"/>
    <path style="fill:#3c3c44;fill-opacity:1;stroke:#151519;stroke-width:.396875;stroke-linecap:butt;stroke-linejoin:round;stroke-dasharray:none;stroke-opacity:1" d="M-105.583 30.8h1.538v1.653h-1.538z" transform="translate(118.689 -29.154)"/>
    <path style="fill:#242429;fill-opacity:1;stroke:#151519;stroke-width:.396875;stroke-linecap:butt;stroke-linejoin:round;stroke-dasharray:none;stroke-opacity:1" d="M-105.587 30.8h.694v1.653h-.694z" transform="translate(118.689 -29.154)"/>
    <path style="fill:#303036;fill-opacity:1;stroke:#151519;stroke-width:.396875;stroke-linecap:butt;stroke-linejoin:round;stroke-dasharray:none;stroke-opacity:1" d="M-83.056 30.8h1.538v1.653h-1.538z" transform="translate(118.689 -29.154)"/>
    <path style="fill:#242429;fill-opacity:1;stroke:#151519;stroke-width:.396875;stroke-linecap:butt;stroke-linejoin:round;stroke-dasharray:none;stroke-opacity:1" d="M-83.056 30.8h.694v1.653h-.694z" transform="translate(118.689 -29.154)"/>
</svg>
