<?xml version="1.0" encoding="UTF-8" standalone="no"?>
<!-- Created with Inkscape (http://www.inkscape.org/) -->

<svg
   width="123.50954"
   height="54.851913"
   viewBox="0 0 32.678567 14.512903"
   version="1.1"
   id="svg1"
   xml:space="preserve"
   sodipodi:docname="stevens_555.svg"
   inkscape:version="1.4.2 (1:1.4.2+202505120737+ebf0e940d0)"
   xmlns:inkscape="http://www.inkscape.org/namespaces/inkscape"
   xmlns:sodipodi="http://sodipodi.sourceforge.net/DTD/sodipodi-0.dtd"
   xmlns="http://www.w3.org/2000/svg"
   xmlns:svg="http://www.w3.org/2000/svg"><sodipodi:namedview
     id="namedview1"
     pagecolor="#505050"
     bordercolor="#eeeeee"
     borderopacity="1"
     inkscape:showpageshadow="0"
     inkscape:pageopacity="0"
     inkscape:pagecheckerboard="0"
     inkscape:deskcolor="#505050"
     inkscape:document-units="px"
     inkscape:zoom="5.6568543"
     inkscape:cx="69.473241"
     inkscape:cy="-11.932427"
     inkscape:window-width="2560"
     inkscape:window-height="1368"
     inkscape:window-x="0"
     inkscape:window-y="0"
     inkscape:window-maximized="1"
     inkscape:current-layer="svg1" /><defs
     id="defs1"><clipPath
       id="clip0_2940_3782"><rect
         width="110"
         height="110"
         fill="#ffffff"
         id="rect44"
         x="0"
         y="0" /></clipPath><clipPath
       id="clip0_2940_3782-4"><rect
         width="110"
         height="110"
         fill="#ffffff"
         id="rect44-8"
         x="0"
         y="0" /></clipPath></defs><g
     id="layer1"
     transform="rotate(15,116.52792,-1183.4594)"><path
       style="display:inline;fill:#5e4848;fill-opacity:1;stroke:#392d2d;stroke-width:0.14112;stroke-linecap:round;stroke-linejoin:round;stroke-dasharray:none;stroke-opacity:1"
       d="m 322.47439,-5.2111537 0.22415,-0.129411 c 0.064,-0.03693 0.19929,-0.04555 0.19929,0.108186 0.20894,0.33925 0.22596,0.276331 0.37256,0.364628 -0.2413,-0.194515 -0.40304,-0.372343 -0.30099,-0.708414"
       id="path23" /><rect
       style="display:inline;fill:#58605e;fill-opacity:1;stroke:none;stroke-width:0.282285;stroke-linecap:square;stroke-dasharray:none;stroke-opacity:1"
       id="rect23"
       width="20.315395"
       height="0.5404135"
       x="284.54044"
       y="154.90924"
       transform="rotate(-30)" /><path
       style="display:inline;fill:none;fill-opacity:1;stroke:#313534;stroke-width:0.282276;stroke-linecap:round;stroke-linejoin:round;stroke-dasharray:none;stroke-opacity:1"
       d="m 321.96513,-4.9194957 c 0.21041,-0.09318 0.45454,-0.127065 0.67542,0.09381 0.47056,0.271681 1.50048,0.123997 1.50048,-0.47929 -0.0682,-0.513246 -0.40021,-0.534525 -0.77571,-0.382181"
       id="path24" /><path
       style="display:inline;fill:#ffffff;fill-opacity:1;stroke:#6e7875;stroke-width:0.282285;stroke-linecap:square;stroke-linejoin:round;stroke-dasharray:none;stroke-opacity:1"
       d="m 324.00453,-8.0727357 17.4384,-10.0680663"
       id="path25" /><rect
       style="display:inline;fill:none;fill-opacity:1;stroke:#313534;stroke-width:0.282285;stroke-linecap:square;stroke-dasharray:none;stroke-opacity:1"
       id="rect25"
       width="20.315395"
       height="0.5404135"
       x="284.54044"
       y="154.90924"
       transform="rotate(-30)" /><path
       style="display:inline;fill:none;fill-opacity:1;stroke:#313534;stroke-width:0.282276;stroke-linecap:round;stroke-linejoin:round;stroke-dasharray:none;stroke-opacity:1"
       d="m 321.65344,-6.2963057 0.0299,0.03313"
       id="path26" /><rect
       style="display:inline;fill:#48514f;fill-opacity:1;stroke:#313534;stroke-width:0.282285;stroke-linecap:square;stroke-dasharray:none;stroke-opacity:1"
       id="rect26"
       width="20.315395"
       height="0.51584977"
       x="284.54044"
       y="155.45735"
       transform="rotate(-30)" /><path
       style="display:inline;fill:#4f5755;fill-opacity:1;stroke:#313534;stroke-width:0.282285;stroke-linecap:square;stroke-linejoin:round;stroke-dasharray:none;stroke-opacity:1"
       d="m 323.66073,-7.9773267 -1.16305,0.873129 c -0.14668,0.09599 -0.23509,0.04662 -0.33513,0.04946 -0.26211,0.07023 0.0136,0.277721 0.0208,0.416477"
       id="path27" /><path
       style="display:inline;fill:#8f663d;fill-opacity:1;stroke:#47331f;stroke-width:0.282285;stroke-linecap:square;stroke-linejoin:round;stroke-dasharray:none;stroke-opacity:1"
       d="m 313.22927,0.32398233 2.24871,2.99418697 3.73454,-4.76566 c 0.18114,-0.251619 0.3648,-0.341791 0.59675,-0.325625 l 1.21046,-0.490854 c -0.44986,-1.030627 -0.0624,-1.984648 1.23851,-2.98059 l 2.29042,-1.322377 -0.88223,-1.319034 c -1.8314,1.349069 -2.66906,2.438234 -3.55641,3.629354 -0.11184,0.164805 -0.30696,0.388147 -0.57077,0.359347 l -0.44245,0.04236 z"
       id="path28" /><path
       style="fill:none;fill-opacity:0.592287;stroke:#765432;stroke-width:0.282241;stroke-linecap:round;stroke-linejoin:round;stroke-dasharray:none;stroke-opacity:1"
       d="m 320.74201,-2.1621277 c -0.51405,-1.781161 0.52422,-2.675619 1.47746,-3.315936"
       id="path29" /><path
       style="fill:none;fill-opacity:0.592287;stroke:#745331;stroke-width:0.282241;stroke-linecap:round;stroke-linejoin:round;stroke-dasharray:none;stroke-opacity:1"
       d="m 313.38366,0.42266333 5.89942,-4.25159003"
       id="path30" /><path
       style="fill:none;fill-opacity:0.592287;stroke:#765432;stroke-width:0.282241;stroke-linecap:round;stroke-linejoin:round;stroke-dasharray:none;stroke-opacity:1"
       d="m 319.44145,-3.7661467 c 0.79311,0.182388 1.17513,-0.774741 1.69494,-1.554699"
       id="path31" /><path
       style="display:inline;fill:#5e4848;fill-opacity:1;stroke:#313534;stroke-width:0.282241;stroke-linecap:round;stroke-linejoin:round;stroke-dasharray:none;stroke-opacity:1"
       d="m 341.14634,-18.292298 0.0764,0.132328"
       id="path32" /><path
       style="display:inline;fill:none;fill-opacity:1;stroke:#47331f;stroke-width:0.282285;stroke-linecap:square;stroke-linejoin:round;stroke-dasharray:none;stroke-opacity:1"
       d="m 313.22927,0.32398233 2.24871,2.99418697 3.73454,-4.76566 c 0.18114,-0.251619 0.3648,-0.341791 0.59675,-0.325625 l 1.21046,-0.490854 c -0.44986,-1.030627 -0.0624,-1.984648 1.23851,-2.98059 l 2.29042,-1.322377 -0.88223,-1.319034 c -1.8314,1.349069 -2.66906,2.438234 -3.55641,3.629354 -0.11184,0.164805 -0.30696,0.388147 -0.57077,0.359347 l -0.44245,0.04236 z"
       id="path33" /><path
       style="display:inline;fill:#424947;fill-opacity:1;stroke:#313534;stroke-width:0.282285;stroke-linecap:square;stroke-linejoin:round;stroke-dasharray:none;stroke-opacity:1"
       d="m 323.77099,-7.9630317 0.15714,0.272175 1.47871,-0.853733 0.13956,0.241729 2.32207,-1.340646 0.50602,0.876453 -2.32207,1.340645 -2.05579,1.186916 -0.097,-0.167973 0.22054,-0.311442 -0.39362,-0.681773 c -0.0662,-0.11458 -0.34947,-0.09389 -0.40626,-0.06111 l -0.0578,-0.100068 z"
       id="path34" /><path
       style="display:inline;fill:#7d5a35;fill-opacity:1;stroke:none;stroke-width:0.282285;stroke-linecap:square;stroke-linejoin:round;stroke-dasharray:none;stroke-opacity:1"
       d="m 325.63421,-8.6910757 0.0748,0.129483 c 0.36861,0.197488 0.89833,0.267448 0.66796,0.939103 l 4.24171,-2.4489523 1.3598,-0.989609 c 0.10964,-0.0633 0.29726,-0.22975 0.49334,-0.177211 l -0.0261,-0.466961 c -0.0366,-0.136688 -0.52308,-0.622491 -0.76905,-0.480479 z"
       id="path35" /><path
       style="fill:#4f3822;fill-opacity:0.608586;stroke:#47331f;stroke-width:0.14112;stroke-linecap:round;stroke-linejoin:round;stroke-dasharray:none;stroke-opacity:1"
       d="m 321.25875,-5.8254647 c -1.56538,1.810969 -1.77145,2.858818 -1.64959,3.722572 l 1.29106,-0.215796 c -0.27916,-1.447901 0.51694,-2.091363 1.20618,-2.814766 -1.49397,1.005208 -1.42616,0.417099 -0.84765,-0.69201 z"
       id="path36" /><path
       style="display:inline;fill:#482d1e;fill-opacity:0.59;stroke:#5e4428;stroke-width:0.282241;stroke-linecap:round;stroke-linejoin:round;stroke-dasharray:none;stroke-opacity:1"
       d="m 326.49838,-7.9339617 4.02542,-2.3240783 c 0.64722,-0.426871 1.38726,-1.280386 1.90196,-1.098095"
       id="path37" /><path
       style="display:inline;fill:#47331f;fill-opacity:0.598485;stroke:#47331f;stroke-width:0.14112;stroke-linecap:round;stroke-linejoin:round;stroke-dasharray:none;stroke-opacity:1"
       d="m 326.26716,-8.7578087 c 3.00931,-1.7631533 5.07133,-2.5927113 5.54548,-2.2137893 -1.35085,1.1068123 -2.73238,1.7025513 -4.09999,2.5300823 -0.6423,-0.606775 -1.01264,-0.328643 -1.44549,-0.316293 z"
       id="path38" /><path
       style="display:inline;fill:none;fill-opacity:1;stroke:#47331f;stroke-width:0.282285;stroke-linecap:square;stroke-linejoin:round;stroke-dasharray:none;stroke-opacity:1"
       d="m 325.63421,-8.6910757 0.0748,0.129483 c 0.53501,0.132695 0.89385,0.367104 0.66796,0.939103 l 4.24171,-2.4489523 1.3598,-0.989609 c 0.10964,-0.0633 0.29726,-0.22975 0.49334,-0.177211 l -0.0261,-0.466961 c -0.0366,-0.136688 -0.52308,-0.622491 -0.76905,-0.480479 z"
       id="path39" /><circle
       style="fill:#4a524f;fill-opacity:1;stroke:#313534;stroke-width:0.14112;stroke-linecap:round;stroke-linejoin:round;stroke-dasharray:none;stroke-opacity:1"
       id="circle39"
       cx="285.99924"
       cy="156.15005"
       transform="rotate(-30)"
       r="0.18081065" /></g></svg>
