<svg width="155.263" height="36.036" viewBox="0 0 41.08 9.535" xmlns="http://www.w3.org/2000/svg">
    <a transform="translate(66.178 -28.353)">
        <g transform="translate(.094 8.467)">
            <path style="fill:#3d3e42;fill-opacity:1;stroke:none;stroke-width:.79375;stroke-linecap:butt;stroke-linejoin:round;stroke-dasharray:none;stroke-opacity:1" d="M-66.272 26.583c6.664-.347 8.463-.758 10.914 0v-3.77c-2.35.558-4.167.494-10.914 0z"/>
            <path style="fill:#4a4b4f;fill-opacity:1;stroke:none;stroke-width:.79375;stroke-linecap:round;stroke-linejoin:round;stroke-dasharray:none;stroke-opacity:1" d="M-58.464 23.297c.79 1.11.36 1.933 0 2.771h3.186v-3.157z"/>
            <path style="fill:none;fill-opacity:1;stroke:#161618;stroke-width:.79375;stroke-linecap:butt;stroke-linejoin:round;stroke-dasharray:none;stroke-opacity:1" d="M-65.807 26.567c6.664-.347 8.464-.758 10.914 0v-3.77c-2.35.558-4.166.493-10.914 0z"/>
            <path style="fill:#46423a;fill-opacity:1;stroke:#191715;stroke-width:.79375;stroke-linecap:butt;stroke-linejoin:round;stroke-dasharray:none;stroke-opacity:1" d="M-50.028 29.025v-8.741l4.145.754v7.224z"/>
            <path class="cls-3" d="M-44.232 30.022h6.084c.232 0 .427.21.427.469v3.966c0 .259-.186.468-.427.468h-6.082c-.232 0-.427-.21-.427-.468V30.49c.015-.26.2-.469.427-.469z" style="opacity:.997;isolation:isolate;fill:#635d50;fill-opacity:1;fill-rule:evenodd;stroke:none;stroke-width:.831806;stroke-linecap:round;stroke-linejoin:round;stroke-miterlimit:3.87;stroke-dasharray:none;stroke-opacity:1" transform="translate(0 -7.758)"/>
            <g style="fill:#46423a;fill-opacity:1">
                <path style="color:#000;fill:#46423a;fill-opacity:1;stroke-linecap:round;-inkscape-stroke:none" d="M-34.258 26.838v3.938M-34.258 25.955a.218.218 0 0 0-.219.219v4.601c0 .121.098.22.22.22.12 0 .218-.099.218-.22v-4.601a.218.218 0 0 0-.219-.219z" transform="translate(-9.418 -3.707)"/>
            </g>
            <g style="fill:#46423a;fill-opacity:1">
                <path style="color:#000;fill:#46423a;fill-opacity:1;stroke-linecap:round;-inkscape-stroke:none" d="M-33.384 26.964v3.877M-33.385 26.082a.218.218 0 0 0-.217.217v4.543a.218.218 0 0 0 .436 0v-4.543a.218.218 0 0 0-.219-.217z" transform="translate(-9.418 -3.707)"/>
            </g>
            <g style="fill:#46423a;fill-opacity:1">
                <path style="color:#000;fill:#46423a;fill-opacity:1;stroke-linecap:round;-inkscape-stroke:none" d="M-32.513 26.945v3.588M-32.514 26.062a.218.218 0 0 0-.216.22v4.251a.218.218 0 0 0 .435 0v-4.252a.218.218 0 0 0-.219-.219z" transform="translate(-9.418 -3.707)"/>
            </g>
            <g style="fill:#46423a;fill-opacity:1">
                <path style="color:#000;fill:#46423a;fill-opacity:1;stroke-linecap:round;-inkscape-stroke:none" d="M-31.64 27.038v3.513M-31.639 26.156a.218.218 0 0 0-.218.217v4.178a.218.218 0 1 0 .435 0v-4.178a.218.218 0 0 0-.217-.217z" transform="translate(-9.418 -3.707)"/>
            </g>
            <g style="fill:#46423a;fill-opacity:1">
                <path style="color:#000;fill:#46423a;fill-opacity:1;stroke-linecap:round;-inkscape-stroke:none" d="M-34.258 26.838v3.938M-34.258 25.955a.218.218 0 0 0-.219.219v4.601c0 .121.098.22.22.22.12 0 .218-.099.218-.22v-4.601a.218.218 0 0 0-.219-.219z" transform="translate(-5.927 -3.81)"/>
            </g>
            <g style="fill:#46423a;fill-opacity:1">
                <path style="color:#000;fill:#46423a;fill-opacity:1;stroke-linecap:round;-inkscape-stroke:none" d="M-33.384 26.964v3.877M-33.385 26.082a.218.218 0 0 0-.217.217v4.543a.218.218 0 0 0 .436 0v-4.543a.218.218 0 0 0-.219-.217z" transform="translate(-5.927 -3.81)"/>
            </g>
            <g style="fill:#46423a;fill-opacity:1">
                <path style="color:#000;fill:#46423a;fill-opacity:1;stroke-linecap:round;-inkscape-stroke:none" d="M-32.513 26.945v3.588M-32.514 26.062a.218.218 0 0 0-.216.22v4.251a.218.218 0 0 0 .435 0v-4.252a.218.218 0 0 0-.219-.219z" transform="translate(-5.927 -3.81)"/>
            </g>
            <path class="cls-3" d="M-44.27 29.936h6.383c.212 0 .39.21.39.468v4.072c0 .26-.17.468-.39.468h-6.38c-.212 0-.39-.209-.39-.468v-4.072c.014-.259.183-.468.39-.468z" style="opacity:.997;isolation:isolate;fill:none;fill-opacity:1;fill-rule:evenodd;stroke:#191815;stroke-width:.79375;stroke-linecap:round;stroke-linejoin:round;stroke-miterlimit:11.34;stroke-dasharray:none;stroke-opacity:1" transform="translate(0 -7.758)"/>
            <path style="fill:#5e5d5a;fill-opacity:1;stroke:#191715;stroke-width:.79375;stroke-linecap:butt;stroke-linejoin:round;stroke-dasharray:none;stroke-opacity:1" d="M-47.17 22.766h.48l1.198.53h8.65v2.772h-8.592l-1.199.53h-.607z"/>
            <path style="fill:#45423a;fill-opacity:1;stroke:#191715;stroke-width:.79375;stroke-linecap:butt;stroke-linejoin:round;stroke-dasharray:none;stroke-opacity:1" d="M-55.371 26.665h6.524v-3.967h-6.524z"/>
            <path style="fill:#615c51;fill-opacity:1;fill-rule:evenodd;stroke:#191815;stroke-width:.396875;stroke-linecap:round;stroke-linejoin:round;stroke-miterlimit:5.89;stroke-dasharray:none;stroke-opacity:1" class="cls-3" d="M-48.093 26.586v1.306h-2.835v-1.306Z"/>
            <path style="fill:#38352e;fill-opacity:1;fill-rule:evenodd;stroke:#191815;stroke-width:.396875;stroke-linecap:round;stroke-linejoin:round;stroke-miterlimit:5.89;stroke-dasharray:none;stroke-opacity:1" class="cls-3" d="M-46.997 21.67v.926h-3.232v-1.452Z"/>
            <g style="fill:#272626;fill-opacity:1" fill="#44403b">
                <path d="M-38.866 25.587a.454.454 0 1 0 0-.908.454.454 0 0 0 0 .908z" style="fill:#272626;fill-opacity:1;stroke-width:.651846" transform="translate(0 -.147)"/>
                <path d="M-38.866 24.54a.246.246 0 1 0 0-.492.246.246 0 0 0 0 .492z" style="fill:#272626;fill-opacity:1;stroke-width:.353686" transform="translate(0 -.147)"/>
                <path d="M-40.047 24.05a.454.454 0 1 1 0 .907.454.454 0 0 1 0-.907z" style="fill:#272626;fill-opacity:1;stroke-width:.651846" transform="translate(0 -.147)"/>
                <path d="M-40.047 25.096a.246.246 0 1 1 0 .493.246.246 0 0 1 0-.493z" style="fill:#272626;fill-opacity:1;stroke-width:.353686" transform="translate(0 -.147)"/>
                <path d="M-41.17 25.596a.454.454 0 1 0 0-.908.454.454 0 0 0 0 .908z" style="fill:#272626;fill-opacity:1;stroke-width:.651846" transform="translate(0 -.147)"/>
                <path d="M-41.17 24.55a.246.246 0 1 0 0-.493.246.246 0 0 0 0 .492z" style="fill:#272626;fill-opacity:1;stroke-width:.353686" transform="translate(0 -.147)"/>
                <path d="M-42.35 24.059a.454.454 0 1 1 0 .907.454.454 0 0 1 0-.907z" style="fill:#272626;fill-opacity:1;stroke-width:.651846" transform="translate(0 -.147)"/>
                <path d="M-42.35 25.105a.246.246 0 1 1 0 .493.246.246 0 0 1 0-.493z" style="fill:#272626;fill-opacity:1;stroke-width:.353686" transform="translate(0 -.147)"/>
                <path d="M-43.46 25.607a.454.454 0 1 0 0-.907.454.454 0 0 0 0 .907z" style="fill:#272626;fill-opacity:1;stroke-width:.651846" transform="translate(0 -.147)"/>
                <path d="M-43.46 24.56a.246.246 0 1 0 0-.492.246.246 0 0 0 0 .493z" style="fill:#272626;fill-opacity:1;stroke-width:.353686" transform="translate(0 -.147)"/>
                <path d="M-45.683 25.605a.454.454 0 1 0 0-.907.454.454 0 0 0 0 .907z" style="fill:#272626;fill-opacity:1;stroke-width:.651846" transform="translate(0 -.147)"/>
                <path d="M-45.683 24.559a.246.246 0 1 0 0-.493.246.246 0 0 0 0 .493z" style="fill:#272626;fill-opacity:1;stroke-width:.353686" transform="translate(0 -.147)"/>
                <path d="M-44.591 24.07a.454.454 0 1 1 0 .908.454.454 0 0 1 0-.908z" style="fill:#272626;fill-opacity:1;stroke-width:.651846" transform="translate(0 -.147)"/>
                <path d="M-44.591 25.117a.246.246 0 1 1 0 .492.246.246 0 0 1 0-.492z" style="fill:#272626;fill-opacity:1;stroke-width:.353686" transform="translate(0 -.147)"/>
                <path d="M-46.807 24.07a.454.454 0 1 1 0 .908.454.454 0 0 1 0-.908z" style="fill:#272626;fill-opacity:1;stroke-width:.651846" transform="translate(0 -.147)"/>
                <path d="M-46.807 25.117a.246.246 0 1 1 0 .492.246.246 0 0 1 0-.492z" style="fill:#272626;fill-opacity:1;stroke-width:.353686" transform="translate(0 -.147)"/>
            </g>
            <path style="fill:#38352e;fill-opacity:1;fill-rule:evenodd;stroke:#191815;stroke-width:.396875;stroke-linecap:round;stroke-linejoin:round;stroke-miterlimit:5.89;stroke-dasharray:none;stroke-opacity:1" class="cls-3" d="M-45.508 24.03v1.305h-1.777v-1.306z"/>
            <path style="fill:#7a7975;fill-opacity:1;fill-rule:evenodd;stroke:#191815;stroke-width:.396875;stroke-linecap:round;stroke-linejoin:round;stroke-miterlimit:5.89;stroke-dasharray:none;stroke-opacity:1" class="cls-3" d="M-53.615 26.15v1.305h-.766v-1.306zM-53.615 21.982v1.306h-.766v-1.306z" transform="translate(-.035 -.035)"/>
            <path style="fill:#676159;fill-opacity:1;stroke:none;stroke-width:.79375;stroke-linecap:butt;stroke-linejoin:round;stroke-dasharray:none;stroke-opacity:1" d="M-54.372 26.62h1.698c.377-.009.857.276 1.307.283h4.12V22.39h-4.164c-.405-.009-.836.28-1.24.295h-1.72z"/>
            <path style="fill:#524d47;fill-opacity:1;stroke:none;stroke-width:.79375;stroke-linecap:round;stroke-linejoin:round;stroke-dasharray:none;stroke-opacity:1" d="M-50.951 22.357c-1.473 1.646-1.39 3.114 0 4.44h-3.28v-4.085z"/>
            <path style="fill:none;fill-opacity:1;stroke:#191715;stroke-width:.79375;stroke-linecap:butt;stroke-linejoin:round;stroke-dasharray:none;stroke-opacity:1" d="M-54.216 26.655h1.699c.376-.009.857.277 1.306.283h4.12v-4.512h-4.164c-.405-.01-.835.279-1.24.295h-1.72z"/>
            <path style="fill:#38352e;fill-opacity:1;fill-rule:evenodd;stroke:#191815;stroke-width:.396875;stroke-linecap:round;stroke-linejoin:round;stroke-miterlimit:5.89;stroke-dasharray:none;stroke-opacity:1" class="cls-3" d="M-52.72 24.03v1.305h-2.836v-1.306z"/>
            <path style="fill:#46423a;fill-opacity:1;fill-rule:evenodd;stroke:#191815;stroke-width:.79375px;stroke-linecap:round;stroke-linejoin:round;stroke-miterlimit:5.89;stroke-opacity:1" class="cls-3" d="M-37.354 23.756h9.063v1.852h-9.063z"/>
            <path style="fill:#38352e;fill-opacity:1;fill-rule:evenodd;stroke:#191815;stroke-width:.79375px;stroke-linecap:round;stroke-linejoin:round;stroke-miterlimit:5.89;stroke-opacity:1" class="cls-3" d="M-28.302 23.529h2.713v2.306h-2.713z"/>
            <path style="fill:#524d47;fill-opacity:1;stroke:#181716;stroke-width:.396875;stroke-linecap:butt;stroke-linejoin:round;stroke-dasharray:none;stroke-opacity:1" d="M-37.514 24.379h-.423c-.567-.02-.538.03-.553-.53v-1.54c0-.52-.174-1.103-1.058-1.089h-.397v.653h.248c.41 0 .525.168.53.553v1.514c-.01.659.172 1.061 1.081 1.059h.572z"/>
            <path style="fill:#4e4a41;fill-opacity:1;fill-rule:evenodd;stroke:#191815;stroke-width:.79375px;stroke-linecap:round;stroke-linejoin:round;stroke-miterlimit:5.89;stroke-opacity:1" class="cls-3" d="M-37.769 23.264h1.306V26.1h-1.306z"/>
            <ellipse style="fill:#191815;fill-opacity:1;stroke:none;stroke-width:.396875;stroke-linecap:butt;stroke-linejoin:round;stroke-dasharray:none;stroke-opacity:1" cx="-26.946" cy="24.682" rx=".792" ry=".312"/>
            <path d="M-39.697 20.908v1.102c0 .264-.27.259-.27.259s-.156.021-.28-.135c-.124-.15-.371-.091-.371-.091-.69.183-1.167.22-1.167.22s-.405.049-1.186-.172c-.344-.097-.55-.113-.667-.102a.262.262 0 0 0-.189.107c-.022.033-.08.092-.226.14-.237.081-.264-.075-.264-.075v-1.427s.027-.156.264-.076c.15.049.204.103.226.14a.245.245 0 0 0 .188.108c.119.01.324-.005.668-.102.781-.221 1.186-.15 1.186-.15s.477.038 1.167.222c0 0 .247.059.371-.092.124-.15.28-.135.28-.135s.27-.005.27.259z" fill="#3f3b37" stroke="#363330" stroke-width=".156" style="fill:#44403c;fill-opacity:1;stroke:#181716;stroke-width:.79375;stroke-dasharray:none;stroke-opacity:1"/>
            <path style="fill:#38352e;fill-opacity:1;stroke:#181716;stroke-width:.397;stroke-linecap:round;stroke-linejoin:round;stroke-dasharray:none;stroke-opacity:1" d="M-52.768 24.682h-1.414"/>
            <path style="fill:#534f46;fill-opacity:1;fill-rule:evenodd;stroke:#191815;stroke-width:.79375;stroke-linecap:round;stroke-linejoin:round;stroke-miterlimit:5.89;stroke-dasharray:none;stroke-opacity:1" class="cls-3" d="M-31.579 23.235v2.893h-1.163v-2.893z"/>
            <path style="fill:#2a2823;fill-opacity:1;fill-rule:evenodd;stroke:#191815;stroke-width:.396875;stroke-linecap:round;stroke-linejoin:round;stroke-miterlimit:5.89;stroke-dasharray:none;stroke-opacity:1" class="cls-3" d="M-31.653 24.03v1.305h-1.015v-1.306z"/>
            <path d="M-48.429 25.354a.246.246 0 1 1 0 .493.246.246 0 0 1 0-.493zM-49.24 25.354a.246.246 0 1 1 0 .493.246.246 0 0 1 0-.493zM-48.429 23.531a.246.246 0 1 1 0 .492.246.246 0 0 1 0-.492zM-49.24 23.531a.246.246 0 1 1 0 .492.246.246 0 0 1 0-.492z" fill="#44403b" style="fill:#2a2623;fill-opacity:1;stroke-width:.353686"/>
        </g>
    </a>
</svg>
