<svg xmlns="http://www.w3.org/2000/svg" width="121.97" height="58.16" fill="none"><g clip-path="url(#a)" transform="rotate(15 172.8 56.973)"><path fill="#34373d" stroke="#2f3237" stroke-width="1.176" d="M37.817 57.471 91.635 26.4l.992 1.724-53.818 31.072z"/><path fill="#3d4148" d="m48.051 53.337 4.106-2.37.914 1.583-4.105 2.37z"/><path fill="#3b3e44" stroke="#2f3237" stroke-linecap="round" stroke-width=".588" d="M54.099 53.607a.074.074 0 0 1 .1.027l.958 1.66c.665.526.876 1.351.827 2.093-.025.374-.115.731-.249 1.024-.125.273-.291.497-.484.623l-.039.024-3.805 2.197c-.52.301-.995.43-1.466.406-.441-.023-.873-.18-1.33-.448l-.092-.055-.012-.01a.074.074 0 0 1 .075-.123l.014.007.09.054c.444.26.852.407 1.262.428.437.023.883-.096 1.386-.386l3.805-2.197.032-.02c.16-.105.312-.302.43-.561.126-.276.213-.615.236-.972.047-.717-.159-1.492-.782-1.978l-.011-.008-.972-1.685a.074.074 0 0 1 .026-.1z"/><path fill="#3d4047" stroke="#2f3136" stroke-linecap="round" stroke-linejoin="round" stroke-width="1.176" d="m42.938 71.904.238 1.212c.016.082.042.165.107.216.983.775 7.534-1.039 7.155-1.93l-.586-1.422"/><path fill="#383f4c" stroke="#2b303b" stroke-linecap="round" stroke-width="1.176" d="M39.002 62.304c1.158.08 2.754.395 3.677 1.833.165 3.775-.295 7.189.61 8.676a.27.27 0 0 0 .317.106l6.555-2.19-2.45-5.938c-.327-1.218-.198-2.545 1.37-3.45l-2.692-4.664-7.978 4.604z"/><path fill="#535665" stroke="#2e3038" stroke-width=".588" d="M41.487 37.474a.283.283 0 0 1 .104-.387l.425-.245a.283.283 0 0 1 .387.103l.058.1-.916.53z"/><path fill="#40434f" stroke="#2e3038" stroke-width="1.176" d="m37.852 45.187 7.124-4.113 1.02 1.767-7.123 4.113z"/><path fill="#494c59" d="m32.846 42.536 7.54-4.353 2.757 4.775-7.54 4.353z"/><path fill="#5c5f70" stroke="#2e3038" stroke-width="1.176" d="m35.861 47.161 2.347-1.355 4.648 8.052-2.347 1.355z"/><path fill="#505362" stroke="#2e3038" stroke-width="1.176" d="m34.988 48.27 1.137-.656 1.965 3.404-1.137.657z"/><path fill="#5c5f70" stroke="#2e3038" stroke-width="1.176" d="m44.973 41.072 2.347-1.355 5.005 8.67-2.347 1.355z"/><path fill="#535665" d="m40.74 38.803 4.65-2.685 2.042 3.536-4.65 2.685z"/><path fill="#444754" d="m45.137 35.676 3.495-2.018 2.552 4.42-3.495 2.018z"/><path fill="#393c46" d="m48.793 33.938.985-.569 2.229 3.861-.985.569z"/><path fill="#5c5f70" stroke="#2e3038" stroke-width=".588" d="m40.486 38.36 2.909-1.679.196.34c.196.34-.324 1.033-.833 1.327l-1.709.987z"/><path fill="#535665" stroke="#303236" stroke-width=".588" d="m35.77 40.383 3.865-2.232.201.348-3.865 2.232z"/><path stroke="#2e3038" stroke-width="1.176" d="m32.846 42.536 7.54-4.353 2.757 4.775-7.54 4.353z"/><path stroke="#2e3038" stroke-width="1.176" d="m40.74 38.803 4.65-2.685 2.042 3.536-4.65 2.685zM45.137 35.676l3.495-2.018 2.552 4.42-3.495 2.018z"/><path stroke="#2e3038" stroke-width="1.176" d="m48.793 33.938.985-.569 2.229 3.861-.985.569z"/><path fill="#44464b" fill-rule="evenodd" stroke="#303236" stroke-width=".588" d="M41.395 40.174a.527.527 0 0 1 .527.913l-.463.267-.527-.913zm.17.235a.238.238 0 1 0 .239.412.238.238 0 0 0-.238-.412z" clip-rule="evenodd"/><path fill="#3c3e49" fill-rule="evenodd" stroke="#2e3038" stroke-width=".588" d="M39.827 36.682c.286-.165 2.384-.601 2.665-.255.65.8.636 1.758.452 2.649-.042.203-.522.857-.642 1.034l-.376.52a.213.213 0 0 1-.365-.217c.158-.3.73-1.036.845-1.358.161-.446.24-1.558.084-1.828-.217-.298-.34-.355-.604-.26l-1.305.522-.166.092-.05.033a.538.538 0 1 1-.538-.932zm.054.591a.25.25 0 1 1 .432-.25.25.25 0 0 1-.432.25z" clip-rule="evenodd"/><path fill="#44464b" stroke="#303236" stroke-width=".588" d="m39.197 37.438.92-.531.202.348-.92.531z"/><path fill="#3f4146" stroke="#303236" stroke-width=".588" d="M34.894 38.509a.38.38 0 0 1 .138-.516l2.898-1.674a.38.38 0 0 1 .516.139l1.03 1.784-3.552 2.051z"/><path fill="#3a3c40" stroke="#303236" stroke-width=".588" d="M35.232 40.01a.38.38 0 0 1 .138-.516l.543-.313.484.839-.87.502zM38.522 37.675l.542-.313a.38.38 0 0 1 .516.138l.296.512-.87.502z"/><rect width="5.021" height="2.349" x="36.52" y="42.241" fill="#3a3c40" stroke="#303236" stroke-width=".588" rx=".189" transform="rotate(-30 36.52 42.241)"/><circle cx="39.28" cy="42.003" r="2.051" fill="#3f4146" stroke="#303236" stroke-width=".588" transform="rotate(-30 39.28 42.003)"/><path fill="#494c59" stroke="#2e3038" stroke-width=".588" d="m41.547 37.574 1.26-.728.075.131-1.26.728z"/><path fill="#36393f" d="m87.54 23.863 1.918-1.107 1.287 2.23-1.917 1.106z"/><path fill="#34373d" d="m79.926 29.71 1.115-.644c.297-.065.653-.052.848.077a.06.06 0 0 1 .024.071.5.5 0 0 1-.06.113l-1.611.93z"/><path fill="#464a52" fill-rule="evenodd" d="M71.202 43.039c.081.14.033.32-.107.401L39.996 61.395l-3.708-6.424 5.84-3.372.712-.75 24.654-14.234zM49.007 53.332a.473.473 0 0 0 .473.819l2.528-1.46a.473.473 0 0 0-.473-.819zm6.77-3.909a.473.473 0 1 0 .473.82l2.529-1.46a.473.473 0 1 0-.473-.82zm6.77-3.909a.473.473 0 1 0 .473.82l2.53-1.46a.473.473 0 0 0-.474-.82zm-11.101 4.224a.473.473 0 0 0 .473.82l2.528-1.46a.473.473 0 1 0-.473-.82zm6.77-3.908a.473.473 0 0 0 .473.819l2.529-1.46a.473.473 0 1 0-.473-.82zm6.77-3.91a.473.473 0 1 0 .473.82l2.529-1.46a.473.473 0 1 0-.473-.82z" clip-rule="evenodd"/><path fill="#3b3e45" d="M63.174 47.147a.114.114 0 0 1 .042-.156l7.7-4.446.114.198-7.7 4.446a.114.114 0 0 1-.156-.042M62.864 46.609a.114.114 0 0 1 .042-.156l7.699-4.446.114.199-7.699 4.445a.114.114 0 0 1-.156-.042M66.11 44.018a.114.114 0 0 1 .042-.156l4.143-2.392.115.198-4.144 2.392a.115.115 0 0 1-.156-.042M62.243 45.533a.114.114 0 0 1 .042-.157l7.699-4.445.114.198-7.699 4.446a.114.114 0 0 1-.156-.042M61.93 44.995a.115.115 0 0 1 .042-.157l7.7-4.445.114.198-7.7 4.445a.114.114 0 0 1-.156-.041M61.624 44.458a.114.114 0 0 1 .042-.156l2.63-1.519a.114.114 0 1 1 .114.198l-2.63 1.52a.114.114 0 0 1-.156-.043M68.563 40.45a.114.114 0 0 1 .042-.157l.759-.438.114.198-.759.438a.114.114 0 0 1-.156-.041M61.311 43.92a.114.114 0 0 1 .042-.157l7.7-4.445.114.198-7.7 4.445a.114.114 0 0 1-.156-.042M61.003 43.381a.114.114 0 0 1 .041-.156l7.7-4.445.114.198-7.7 4.445a.114.114 0 0 1-.156-.042M60.692 42.843a.114.114 0 0 1 .042-.156l7.7-4.445.114.198-7.7 4.445a.114.114 0 0 1-.156-.042M60.38 42.304a.114.114 0 0 1 .041-.156l7.7-4.445.114.198-7.7 4.445a.114.114 0 0 1-.155-.042M60.07 41.766a.114.114 0 0 1 .043-.156l7.7-4.445.113.198-7.699 4.445a.114.114 0 0 1-.156-.042"/><path stroke="#2f3237" stroke-linecap="round" stroke-linejoin="round" stroke-width=".588" d="M48.833 53.978a.473.473 0 0 1 .173-.646l2.529-1.46a.473.473 0 1 1 .473.82l-2.529 1.46a.473.473 0 0 1-.646-.174M55.604 50.07a.473.473 0 0 1 .173-.647l2.528-1.46a.473.473 0 1 1 .473.82l-2.529 1.46a.473.473 0 0 1-.646-.174M62.374 46.16a.473.473 0 0 1 .173-.645l2.529-1.46a.473.473 0 0 1 .472.819l-2.528 1.46a.473.473 0 0 1-.646-.174M51.272 50.385a.473.473 0 0 1 .173-.646l2.529-1.46a.473.473 0 0 1 .473.819l-2.529 1.46a.473.473 0 0 1-.646-.173M58.043 46.476a.473.473 0 0 1 .173-.646l2.528-1.46a.473.473 0 0 1 .473.819l-2.529 1.46a.473.473 0 0 1-.646-.173M64.813 42.567a.473.473 0 0 1 .173-.646l2.528-1.46a.473.473 0 1 1 .473.82L65.46 42.74a.473.473 0 0 1-.646-.173"/><path fill="#36393f" d="M53.095 58.673c-2.733-.662-2.708-2.391-2.708-2.391l1.205-.696s-.04 2.027 1.577 2.88"/><path fill="#36393f" d="M53.095 58.673c-2.733-.662-2.708-2.391-2.708-2.391l1.205-.696s-.04 2.027 1.577 2.88c.149.078.088.246-.074.207"/><path stroke="#2f3136" stroke-linecap="round" stroke-linejoin="round" stroke-width=".588" d="M53.095 58.673c-2.733-.662-2.708-2.391-2.708-2.391l1.205-.696s-.04 2.027 1.577 2.88"/><path stroke="#2f3136" stroke-linecap="round" stroke-linejoin="round" stroke-width=".588" d="M53.095 58.673c-2.733-.662-2.708-2.391-2.708-2.391l1.205-.696s-.04 2.027 1.577 2.88c.149.078.088.246-.074.207"/><path fill="#383c42" d="M35.108 54.646a.61.61 0 0 1-.824-.22.603.603 0 0 1 .22-.825l.686-.395.603 1.045z"/><path fill="#3d4147" d="m36.416 52.356.725 1.255-1.29.745-.724-1.255z"/><path fill="#383c42" d="m36.441 52.398.677 1.172 1.12-.647-.676-1.172z"/><path fill="#34373c" d="M38.879 51.438c.07-.04.16-.017.2.054l.142.245c.04.07.017.16-.054.2l-1.124.65-.288-.5z"/><path fill="#42464d" d="m36.297 52.426.724 1.255-1.047.604-.724-1.255z"/><path fill="#333945" stroke="#2b303b" stroke-linecap="round" stroke-linejoin="round" stroke-width="1.176" d="M22.18 63.04 4.406 73.304l3.489 6.042 17.774-10.262Z"/><path fill="#323439" d="m13.242 71.338 8.944-5.164 1.383 2.396-8.944 5.164z"/><path fill="#3b3e44" d="m25.043 75.507.141 2.895zM25.043 75.507l.141 2.895c.008.17-.233.216-.287.053l-.754-2.291z"/><path stroke="#2f3136" stroke-linecap="round" stroke-width=".588" d="m25.043 75.507.141 2.895zM25.043 75.507l.141 2.895c.008.17-.233.216-.287.053l-.754-2.291z"/><path fill="#40434a" stroke="#2f3136" stroke-linecap="round" stroke-miterlimit="3.994" stroke-width="1.176" d="m17.908 74.984 5.65-3.262 1.887 3.268-.342.887-1.686.973-1.62-2.807-3.324 1.919z"/><path fill="#383f4c" stroke="#2b303b" stroke-linecap="round" stroke-linejoin="round" stroke-width="1.176" d="M1.39 82.637c3.408 3.319 6.073 7.31 8.125 11.855l2.704-1.877c.214-.879.185-1.537-.145-2.771-.94-3.507-1.36-5.015.016-10.148l6.38-3.74-1.725-2.99-14.349 8.285z"/><path fill="#303541" d="M47.139 91.25a.12.12 0 0 0 .145-.085l3.41-13.367"/><path fill="#303541" d="m49.577 78.035-3.262 12.637.778.256-.04.182a.119.119 0 0 0 .231.055l3.41-13.367a.147.147 0 0 0-.155-.183l-.174.016a.15.15 0 0 0-.13.11l-.11.442z"/><path stroke="#2b303b" stroke-linecap="round" stroke-width="1.176" d="M47.139 91.25a.12.12 0 0 0 .145-.085l3.41-13.367"/><path stroke="#2b303b" stroke-linecap="round" stroke-width="1.176" d="m49.577 78.035-3.262 12.637.778.256-.04.182a.12.12 0 0 0 .086.14v0a.12.12 0 0 0 .145-.085l3.41-13.367a.147.147 0 0 0-.155-.183l-.174.016a.15.15 0 0 0-.13.11l-.11.442z"/><path fill="#333945" d="M49.578 78.034c-9.04-3.266-12.533-7.834-16.857-13.888l-4.657 2.932C33.21 74.84 39.266 79.824 48.2 83.373z"/><rect width="4.64" height=".198" x="28.164" y="68.772" fill="#303541" stroke="#2b303b" stroke-width=".588" rx=".099" transform="rotate(-31.977 28.164 68.772)"/><rect width="4.64" height=".198" x="28.82" y="69.864" fill="#303541" stroke="#2b303b" stroke-width=".588" rx=".099" transform="rotate(-34.13 28.82 69.864)"/><rect width="4.64" height=".198" x="29.523" y="70.93" fill="#303541" stroke="#2b303b" stroke-width=".588" rx=".099" transform="rotate(-36.283 29.523 70.93)"/><rect width="4.64" height=".198" x="30.262" y="71.969" fill="#303541" stroke="#2b303b" stroke-width=".588" rx=".099" transform="rotate(-38.436 30.262 71.969)"/><rect width="4.64" height=".198" x="31.039" y="72.98" fill="#303541" stroke="#2b303b" stroke-width=".588" rx=".099" transform="rotate(-40.589 31.04 72.98)"/><rect width="4.64" height=".198" x="31.855" y="73.96" fill="#303541" stroke="#2b303b" stroke-width=".588" rx=".099" transform="rotate(-42.741 31.855 73.96)"/><rect width="4.64" height=".198" x="32.709" y="74.909" fill="#303541" stroke="#2b303b" stroke-width=".588" rx=".099" transform="rotate(-44.894 32.709 74.91)"/><rect width="4.64" height=".198" x="33.594" y="75.828" fill="#303541" stroke="#2b303b" stroke-width=".588" rx=".099" transform="rotate(-47.047 33.594 75.828)"/><rect width="4.64" height=".198" x="34.514" y="76.711" fill="#303541" stroke="#2b303b" stroke-width=".588" rx=".099" transform="rotate(-49.2 34.514 76.71)"/><rect width="4.64" height=".198" x="35.467" y="77.558" fill="#303541" stroke="#2b303b" stroke-width=".588" rx=".099" transform="rotate(-51.353 35.467 77.558)"/><rect width="4.64" height=".198" x="36.449" y="78.37" fill="#303541" stroke="#2b303b" stroke-width=".588" rx=".099" transform="rotate(-53.506 36.45 78.37)"/><rect width="4.64" height=".198" x="37.465" y="79.143" fill="#303541" stroke="#2b303b" stroke-width=".588" rx=".099" transform="rotate(-55.658 37.465 79.143)"/><rect width="4.64" height=".198" x="38.506" y="79.878" fill="#303541" stroke="#2b303b" stroke-width=".588" rx=".099" transform="rotate(-57.811 38.506 79.878)"/><rect width="4.64" height=".198" x="39.576" y="80.573" fill="#303541" stroke="#2b303b" stroke-width=".588" rx=".099" transform="rotate(-59.964 39.576 80.573)"/><rect width="4.64" height=".198" x="40.67" y="81.228" fill="#303541" stroke="#2b303b" stroke-width=".588" rx=".099" transform="rotate(-62.117 40.67 81.228)"/><rect width="4.64" height=".198" x="41.789" y="81.842" fill="#303541" stroke="#2b303b" stroke-width=".588" rx=".099" transform="rotate(-64.27 41.79 81.842)"/><rect width="4.64" height=".198" x="42.93" y="82.412" fill="#303541" stroke="#2b303b" stroke-width=".588" rx=".099" transform="rotate(-66.423 42.93 82.412)"/><rect width="4.64" height=".198" x="44.09" y="82.939" fill="#303541" stroke="#2b303b" stroke-width=".588" rx=".099" transform="rotate(-68.576 44.09 82.94)"/><rect width="4.64" height=".198" x="45.272" y="83.424" fill="#303541" stroke="#2b303b" stroke-width=".588" rx=".099" transform="rotate(-70.728 45.272 83.424)"/><rect width="4.64" height=".198" x="46.469" y="83.862" fill="#303541" stroke="#2b303b" stroke-width=".588" rx=".099" transform="rotate(-72.881 46.469 83.862)"/><path fill="#383f4c" d="M28.067 67.078c5.146 7.761 11.202 12.746 20.136 16.295l-1.885 7.3C35.78 86.22 26.931 79.316 23.001 70.267Z"/><path stroke="#2b303b" stroke-linecap="round" stroke-width="1.176" d="m23 70.268 9.722-6.122c4.324 6.054 7.816 10.622 16.857 13.888l-3.263 12.638C35.778 86.221 26.93 79.317 23 70.268Z"/><path stroke="#2b303b" stroke-linecap="round" stroke-width="1.176" d="M49.578 78.034c-9.04-3.266-12.533-7.834-16.857-13.888l-4.657 2.932C33.21 74.84 39.266 79.824 48.2 83.373z"/><path fill="#44484f" stroke="#2f3237" stroke-linecap="round" stroke-width=".588" d="m2.958 82.311 6.758-3.06.821 1.422.763-.44c.138-.515.095-1.346.702-1.697l8.742-5.047a.44.44 0 0 1 .328-.045l1.383.348.958-.553c.334-1.245.567-2.302.92-2.506l7.361-4.25 1.5-1.367 5.38-3.107-1.337-2.317L1.052 80.584c.31.762.92 1.392 1.906 1.727z"/><path fill="#3b3e45" d="M32.565 63.536a.587.587 0 0 1 .215-.802l4.658-2.69.587 1.017-4.658 2.69a.587.587 0 0 1-.802-.215"/><path fill="#3c3f45" d="m15.058 73.08.57-2.035a1.47 1.47 0 0 1 .681-.876l5.658-3.267c-.29-.688-.214-1.6.199-1.838l8.254-4.766 4.786-.714 1.478-.855-1.189-2.059L2.473 75.735C.404 76.93.412 79.633 1.283 81.033Z"/><path stroke="#2f3237" stroke-width=".588" d="m34.45 59.695.756-.113 1.478-.853m0 0-1.189-2.059L2.473 75.735C.404 76.93.412 79.633 1.283 81.033l13.775-7.953.57-2.035a1.47 1.47 0 0 1 .681-.876l5.658-3.267c-.29-.688-.214-1.6.199-1.838l8.254-4.766 4.786-.714z"/><path fill="#5d626b" stroke="#2f3237" stroke-width=".588" d="m35.206 59.585-4.786.714-8.255 4.766c-.455.263-.5 1.346-.098 2.043l.583 1.009 14.589-8.423-.556-.962z"/><path fill="#4e525b" stroke="#2f3237" stroke-width=".588" d="m33.975 59.817.659-.38.762 1.32-.66.38z"/><path fill="#3b3e45" d="m28.791 65.347.02 1.217 1.024-.59z"/><path fill="#4f535b" d="M22.552 72.84a.444.444 0 1 0-.443-.768.444.444 0 0 0 .443.769M3.033 82.107a.321.321 0 1 0-.321-.557.321.321 0 0 0 .321.557"/><path fill="#4f535b" stroke="#2f3237" stroke-linecap="round" stroke-linejoin="round" stroke-width=".588" d="M2.554 79.611a.203.203 0 1 0-.203-.351.203.203 0 0 0 .203.351"/><rect width="11.197" height=".533" fill="#34373c" rx=".266" transform="scale(1 -1)rotate(30 148.567 -29.824)"/><path fill="#383c42" d="m35.176 56.12 3.198 5.538zM35.176 56.12l3.198 5.538 1.331-.768-3.417-5.92-.92.532z"/><path stroke="#2f3237" stroke-width=".588" d="m35.176 56.12 3.198 5.538zM35.176 56.12l3.198 5.538 1.331-.768-3.417-5.92-.92.532z"/><path stroke="#2f3237" stroke-width="1.176" d="m33.192 65.117 5.381-3.107-.201-.35 1.33-.77-3.416-5.918-.92.531-.173.65.299.518L2.47 75.736c-1.95 1.126-2.055 3.59-1.333 5.042.332.675.918 1.228 1.82 1.534l6.758-3.06.82 1.422.763-.44c.138-.515.095-1.346.703-1.697l8.741-5.047a.44.44 0 0 1 .329-.045l1.382.348.959-.553c.333-1.245.566-2.302.92-2.506l7.361-4.25z"/><path fill="#3d4147" stroke="#2f3136" stroke-linecap="round" stroke-width=".588" d="M9.312 77.403a.147.147 0 0 1 .204.058l.103.194c.1.19.05.423-.12.555l-4.264 3.302c-1.23.926-1.844-.624-1.04-1.088Z"/><path fill="#51555d" d="m19.119 72.825 5.417-1.657c.28-.085.198-.366-.315-.513-.181-.052-.146-.44-.017-.676.015-.028-.02-.08-.05-.071l-6.17 1.887a.8.8 0 0 0-.42.318c-.086.121-.401.727-.47.858l-.505 1.025c-.089.16-.324.314-.482.38l-3.894 1.749c-.58.218-.898.852-.715 1.454l.02.057c.213.59.853.914 1.459.728l.059-.02a1.3 1.3 0 0 0 .343-.185l3.771-2.535c.36-.228.593-.634.788-1 .155-.291.531-1.067.699-1.354.116-.2.248-.373.482-.445"/><path fill="#585c65" d="M23.602 70.614a.8.8 0 0 0 .111.268l-4.747 1.451c-.375.115-.587.375-.722.59l-.054.088c-.149.255-.479.925-.647 1.254l-.061.118c-.201.378-.38.662-.609.807l-3.802 2.555a.8.8 0 0 1-.208.114l-.041.014a.67.67 0 0 1-.82-.407l-.015-.041a.67.67 0 0 1 .406-.819l.015-.005 3.908-1.756c.117-.05.247-.124.363-.211.114-.085.262-.215.357-.387l.514-1.043.224-.422c.066-.124.13-.251.207-.37l.02-.026a.3.3 0 0 1 .113-.092l.018-.007z"/><path fill="#4e525a" d="M12.868 77.828a.638.638 0 1 0-.373-1.22.638.638 0 0 0 .373 1.22"/><path fill="#646973" d="m22.156 71.79 2.085-.638.066.216-2.085.637zM24.154 69.909c.03-.01.065.043.05.07a1 1 0 0 0-.075.189l-1.309.4a.074.074 0 0 1-.092-.049l-.027-.09a.073.073 0 0 1 .049-.091z"/><path stroke="#2f3237" stroke-width=".588" d="M24.154 69.908c.03-.01.065.043.05.07-.13.236-.164.625.018.678.512.146.594.427.314.512l-.267.082.036.118-2.084.638-.036-.119-3.066.938c-.234.072-.366.244-.483.445-.167.287-.543 1.063-.698 1.354-.195.366-.429.772-.788 1l-3.771 2.535a1.3 1.3 0 0 1-.343.186l-.06.02a1.184 1.184 0 0 1-1.458-.729l-.02-.057a1.184 1.184 0 0 1 .715-1.454l3.894-1.75c.158-.065.393-.22.482-.378l.504-1.026c.07-.131.385-.737.471-.858a.8.8 0 0 1 .42-.319zM36.44 52.397l1.12-.647.195.337 1.124-.65c.07-.04.16-.016.2.055l.142.245c.04.07.017.16-.054.201l-1.123.649.193.335-1.12.647m-.677-1.172-.024-.041-1.29.744.062.105-.685.396a.603.603 0 0 0-.22.824.61.61 0 0 0 .824.22l.684-.395.06.105 1.29-.744-.024-.042m-.677-1.172.677 1.172"/><path fill="#3d4047" d="M34.48 53.561a.65.65 0 0 1 .887.238l.2.345c.121.211.39.283.602.162l3.803-2.196.318.55-4.925 2.843-.702-.328-.745-1.29z"/><circle cx="34.806" cy="54.123" r=".397" fill="#494d55" transform="rotate(-30 34.806 54.123)"/><circle cx="34.805" cy="54.123" r=".28" fill="#34373d" transform="rotate(-30 34.805 54.123)"/><path stroke="#2f3237" stroke-width=".588" d="M34.48 53.561a.65.65 0 0 1 .887.238l.2.345c.121.211.39.283.602.162l3.803-2.196.318.55-4.925 2.843-.702-.328-.745-1.29z"/><path fill="#3b3e45" d="m39.066 62.858-.694-1.2ZM39.066 62.858l-.694-1.2 2.119-1.224 2.938-2.511 9.479-5.473c.21-.122.48-.05.602.161l.605 1.048c.122.211.05.481-.161.603z"/><path stroke="#2f3237" stroke-width=".588" d="m39.066 62.858-.694-1.2ZM39.066 62.858l-.694-1.2 2.119-1.224 2.938-2.511 9.479-5.473c.21-.122.48-.05.602.161l.605 1.048c.122.211.05.481-.161.603z"/><path fill="#3b3e45" d="m67.492 36.615 1.68-.97 3.425 5.93-1.68.97z"/><path fill="#444850" d="m69.086 35.493 1.13-.652 3.596 6.23-1.129.653z"/><path fill="#34373d" d="m70.526 35.38 9.498-5.484.775 1.345-9.497 5.483z"/><path fill="#383c42" d="m74.285 32.88 5.469-3.158 1.06 1.837-5.468 3.158z"/><path fill="#3f434a" stroke="#2f3237" stroke-width=".588" d="m73.766 33.18.52-.301 1.061 1.837-.52.3z"/><path fill="#383c42" stroke="#2f3237" stroke-width=".588" d="m72.666 33.951 1.158-.668.943 1.634-1.158.668z"/><path fill="#34373d" d="M77.62 32.534a.147.147 0 0 1 .054-.2l2.69-1.553.374.648-2.69 1.553a.147.147 0 0 1-.2-.054z"/><path fill="#383c42" d="M70.878 38.174a.275.275 0 0 1 .477-.275l.743 1.287a.275.275 0 1 1-.477.275z"/><path fill="#3d4148" d="m67.492 36.615.822-.474 3.395 5.88a.59.59 0 0 1-.216.804l-.312.18z"/><path stroke="#2f3237" stroke-linecap="round" stroke-linejoin="round" stroke-width="1.176" d="M71.202 43.039c.081.14.033.32-.107.401L39.996 61.395l-3.708-6.424 5.84-3.372.712-.75 24.654-14.234z" clip-rule="evenodd"/><path stroke="#2f3237" stroke-width=".588" d="m69.086 35.493 1.13-.652 3.596 6.23-1.129.653z"/><path stroke="#2f3237" stroke-width="1.176" d="m73.813 41.073-1.129.652-.087-.15-.861.498c.124.272.023.599-.242.752l-.312.18-3.689-6.39 1.68-.97-.086-.15 1.13-.653z"/><path fill="#3f434a" d="m81.652 31.928 3.73-2.153 1.196 2.073-3.729 2.153z"/><path fill="#3b3e45" d="m86.58 31.849.26.452c.02.035.009.08-.027.1l-.976.564a.073.073 0 0 1-.1-.027l-.09-.155-1.522.879.09.155c.02.035.008.08-.027.1l-.977.564a.074.074 0 0 1-.1-.027l-.261-.452Z"/><path fill="#464a53" d="m80.97 31.532.341-.197 1.5 2.6-.34.196z"/><path fill="#3b3e45" d="M80.49 29.238c.45-.261 1.008-.176 1.435.124.946.667 1.993.98 3.337.205l.121.21-3.73 2.154-.341-.592-.468.27-1.115-1.931z"/><path fill="#36393f" d="m75.611 32.251 1.821-1.051.553.957-1.821 1.051z"/><path fill="#3d4148" d="m75.184 32.496.662-.383.553.957-.663.383zM77.205 31.33l.662-.382.553.957-.663.382z"/><circle cx="80.896" cy="29.559" r=".239" fill="#444850" transform="rotate(-30 80.896 29.559)"/><path stroke="#2f3237" stroke-width="1.176" d="M80.49 29.238c.164-.096.343-.145.525-.154l.028-.016c.297-.066.653-.052.848.077a.06.06 0 0 1 .023.071.4.4 0 0 1-.054.103l.065.043c.946.667 1.993.98 3.337.205l1.58 2.736c.02.035.007.08-.028.1l-.976.564a.074.074 0 0 1-.1-.027l-.09-.155-1.522.878.09.155c.02.036.008.08-.027.1l-.977.565a.074.074 0 0 1-.1-.027l-.3-.52-.341.197-1.5-2.598-.127.074-1.115-1.931z"/><path stroke="#2f3237" stroke-width="1.176" d="m79.754 29.723.142.246.127-.074.776 1.345-.127.073.142.246-5.99 3.458-.058-.101-1.158.668-.083-.145-2.224 1.284-.776-1.344 2.224-1.284-.084-.145 1.158-.668-.058-.102z"/><path fill="#3d4148" d="m89.373 27.167 2.028-1.171 1.462 2.531-2.028 1.171z"/><path fill="#343a46" d="m90.8 24.954 2.03-1.171 2.662 4.612-2.028 1.171zM104.076 17.428l.896-.518 2.543 4.405-.896.518z"/><path fill="#383f4c" stroke="#2b303b" stroke-width="1.176" d="m92.938 23.968 11.187-6.46 2.449 4.242-11.187 6.459z"/><path fill="#303541" fill-rule="evenodd" d="m109.005 19.155-1.787 1.031a.31.31 0 0 0-.12.409l-1.711-2.965a.31.31 0 0 0 .413.1l1.787-1.031zm-2.724-1.14a.294.294 0 0 0-.107.402l.636 1.103c.082.14.261.188.402.107l1.045-.603a.294.294 0 0 0 .108-.402l-.637-1.103a.294.294 0 0 0-.402-.107z" clip-rule="evenodd"/><path stroke="#2b303b" stroke-width=".588" d="M106.174 18.417a.294.294 0 0 1 .108-.402l1.045-.603a.295.295 0 0 1 .402.107l.636 1.103c.082.14.033.32-.107.402l-1.045.603a.294.294 0 0 1-.402-.107z"/><path fill="#3d4047" stroke="#2f3237" stroke-width=".588" d="m89.428 27.135 1.917-1.107-.6-1.041-1.918 1.107z"/><path stroke="#2f3237" stroke-width="1.176" d="m91.345 26.027.056-.032 1.461 2.531-2.028 1.171-1.462-2.53.056-.033-1.888-3.27 1.917-1.107z"/><path fill="#3b3e45" d="m91.672 21.184 1.115 1.93.957-.552-1.115-1.93z"/><path fill="#42464d" d="m94.092 19.785 1.115 1.932-1.465.846-1.115-1.932z"/><path fill="#3b3e45" d="m90.373 22.013 1.045 1.81-1.97 1.137a1.045 1.045 0 1 1-1.045-1.81z"/><circle cx="88.93" cy="24.054" r=".486" fill="#494d55" transform="rotate(-30 88.93 24.054)"/><circle cx="88.929" cy="24.053" r=".343" fill="#34373d" transform="rotate(-30 88.93 24.053)"/><path fill="#36393f" stroke="#2f3237" stroke-width=".588" d="m91.926 21.627.603 1.045-1.331.768-.603-1.044z"/><path stroke="#2f3237" stroke-width=".588" d="m95.208 21.716-2.422 1.398-.256-.443-1.33.768.22.383-1.97 1.138a1.045 1.045 0 1 1-1.045-1.81l1.97-1.138.221.383 1.331-.769-.256-.443 2.422-1.399z"/><path stroke="#2b303b" stroke-width="1.176" d="m104.122 17.51-11.187 6.459-.108-.186-2.028 1.171 2.663 4.613 2.028-1.172-.107-.186 11.188-6.459.047.082.897-.517-.416-.72a.31.31 0 0 1 .12-.409l1.786-1.031-.324-.561.404-.234-.77-1.333-.404.233-.323-.56-1.787 1.03a.31.31 0 0 1-.414-.1l-.415-.72-.897.518z"/></g><defs><clipPath id="a"><path fill="#fff" d="M0 0h110v110H0z"/></clipPath></defs></svg>