<?xml version="1.0" encoding="UTF-8" standalone="no"?>
<svg
   width="123.90333"
   height="54.065151"
   viewBox="0 0 123.90333 54.065151"
   fill="none"
   version="1.1"
   id="svg63"
   sodipodi:docname="tango_51.svg"
   inkscape:version="1.4.2 (1:1.4.2+202505120737+ebf0e940d0)"
   inkscape:export-filename="tango51_lootimage.png"
   inkscape:export-xdpi="96"
   inkscape:export-ydpi="96"
   xmlns:inkscape="http://www.inkscape.org/namespaces/inkscape"
   xmlns:sodipodi="http://sodipodi.sourceforge.net/DTD/sodipodi-0.dtd"
   xmlns="http://www.w3.org/2000/svg"
   xmlns:svg="http://www.w3.org/2000/svg">
  <sodipodi:namedview
     id="namedview63"
     pagecolor="#ffffff"
     bordercolor="#000000"
     borderopacity="0.25"
     inkscape:showpageshadow="2"
     inkscape:pageopacity="0.0"
     inkscape:pagecheckerboard="0"
     inkscape:deskcolor="#d1d1d1"
     inkscape:zoom="5.4148295"
     inkscape:cx="99.356775"
     inkscape:cy="55.311067"
     inkscape:window-width="2560"
     inkscape:window-height="1368"
     inkscape:window-x="0"
     inkscape:window-y="0"
     inkscape:window-maximized="1"
     inkscape:current-layer="svg63" />
  <g
     clip-path="url(#clip0_619_1188)"
     id="g63"
     transform="matrix(0.97709183,0.26181096,-0.26181096,0.97709183,22.326738,-43.434378)">
    <path
       d="m 36.9316,56.7207 14.2026,-8.1998 4.7604,-2.4073 45.2974,-26.1523 1.169,2.0248 -53.5673,30.9268 c -0.1542,0.0891 -0.2071,0.2864 -0.118,0.4407 0.089,0.1543 0.0362,0.3516 -0.1181,0.4406 l -5.8852,3.3979 c -0.1543,0.0891 -0.3516,0.0362 -0.4407,-0.1181 -0.0891,-0.1543 -0.2863,-0.2071 -0.4406,-0.1181 l -3.5427,2.0454 z"
       fill="#434a3c"
       id="path1" />
    <path
       d="m 51.5944,48.3102 -0.7077,0.4086 1.1643,2.0165 0.7076,-0.4085 z"
       fill="#404639"
       stroke="#33382e"
       stroke-width="0.45198"
       stroke-miterlimit="3.99393"
       id="path2" />
    <path
       d="M 11.284,95.423 8.5347,97.0103 C 8.26313,97.1671 7.91637,97.0844 7.7448,96.822 L 0.705216,86.0529 C 0.528655,85.7828 0.601479,85.421 0.868788,85.2403 L 3.30669,83.5918 Z"
       fill="#474747"
       id="path3" />
    <path
       d="M 8.92871,96.7835 1.2689,84.9705 3.30747,83.592 11.2848,95.4233 Z"
       fill="#404040"
       id="path4" />
    <path
       d="M 11.284,95.423 8.5347,97.0103 C 8.26313,97.1671 7.91637,97.0844 7.7448,96.822 L 0.705216,86.0529 C 0.528655,85.7828 0.601479,85.421 0.868788,85.2403 L 3.30669,83.5918 Z"
       stroke="#333333"
       stroke-width="0.903963"
       stroke-miterlimit="3.99393"
       id="path5" />
    <path
       d="m 36.9316,56.7207 14.2026,-8.1998 4.7604,-2.4073 45.7864,-26.4347 1.169,2.0248 -54.0563,31.2092 c -0.1542,0.0891 -0.2071,0.2864 -0.118,0.4407 0.089,0.1543 0.0362,0.3516 -0.1181,0.4406 l -5.8852,3.3979 c -0.1543,0.0891 -0.3516,0.0362 -0.4407,-0.1181 -0.0891,-0.1543 -0.2863,-0.2071 -0.4406,-0.1181 l -3.5427,2.0454 z"
       stroke="#33382e"
       stroke-width="0.903965"
       stroke-miterlimit="3.99393"
       stroke-linecap="round"
       id="path6"
       style="stroke-linecap:round;stroke-linejoin:round" />
    <path
       fill-rule="evenodd"
       clip-rule="evenodd"
       d="m 34.8311,58.6559 c 0.0112,-0.0351 0.035,-0.0648 0.067,-0.0832 l 3.255,-1.8794 c 0.0707,-0.0407 0.161,-0.0165 0.2018,0.0541 l 0.8755,1.5165 c 0.0408,0.0706 0.0166,0.1609 -0.054,0.2017 l -5.1698,2.9848 c -0.0706,0.0408 -0.161,0.0166 -0.2018,-0.0541 l -0.6529,-1.1309 c -0.0408,-0.0706 -0.0166,-0.161 0.0541,-0.2018 l 1.3932,-0.8044 c 0.0319,-0.0184 0.0558,-0.0481 0.067,-0.0832 z"
       fill="#4e4e4e"
       stroke="#333333"
       stroke-width="0.903965"
       stroke-miterlimit="3.99393"
       stroke-linecap="round"
       id="path7" />
    <path
       d="m 36.697,67.3821 c 0.2854,0.081 0.7001,0.5346 0.9675,0.9679 0.4428,0.7514 0.8801,1.4005 1.5787,1.6921 0.6986,0.2914 1.5759,0.1635 2.767,-0.467 0.695,-0.3633 1.1798,-0.6979 1.5088,-1.05 0.3296,-0.3522 0.4978,-0.7374 0.5181,-1.1262 0.0407,-0.7776 -0.0111,-1.123 -0.4203,-2.0613 -0.199,-0.4662 -0.4845,-1.2072 -0.2933,-2.0603 l -2.1593,1.3982 c 1.0122,-0.128 1.4343,0.475 1.8165,1.137 0.047,0.1077 0.0895,0.2044 0.1281,0.292 0.3092,0.7027 0.3594,0.8169 0.336,1.265 -0.0132,0.2519 -0.1008,0.478 -0.3582,0.7532 -0.2575,0.2751 -0.6909,0.5841 -1.3539,0.9302 -1.1166,0.5912 -1.779,0.6458 -2.2614,0.4445 -0.4824,-0.2013 -0.868,-0.719 -1.2978,-1.4476 -0.2257,-0.3772 -0.3025,-0.9795 -0.1468,-1.4497 -0.4476,0.2514 -0.8959,0.5087 -1.3297,0.782 z"
       fill="#3a3a3c"
       stroke="#323234"
       stroke-width="0.45198"
       stroke-miterlimit="3.99393"
       stroke-linecap="square"
       id="path8"
       style="stroke-linecap:round;stroke-linejoin:round" />
    <path
       d="m 41.1196,58.6718 c -0.1631,-0.2826 -0.0663,-0.6439 0.2163,-0.807 l 8.0111,-4.6253 c 0.2826,-0.1631 0.6439,-0.0663 0.807,0.2163 l 2.2953,3.9756 c 0.157,0.2719 0.0739,0.6191 -0.1892,0.7904 l -7.7628,5.0554 c -0.2838,0.1849 -0.6647,0.0937 -0.834,-0.1996 z"
       fill="#525256"
       stroke="#323234"
       stroke-width="0.903965"
       stroke-miterlimit="3.99393"
       stroke-linecap="square"
       id="path9" />
    <path
       d="m 41.4954,56.444 -5.0349,3.0112 c -5.7119,4.9124 -5.9925,11.575 -11.4299,10.6011 -0.6648,-0.119 -1.6364,-0.006 -2.1969,0.3717 L 3.30722,83.5915 c -0.27108,0.1828 -0.45975,0.4644 -0.52551,0.7847 -0.06576,0.3202 -0.00337,0.6536 0.17375,0.9284 L 9.96727,96.1825 12.2756,94.8497 26.266,79.4955 c 0.5037,-0.5528 1.1664,-0.4062 1.7548,0.0472 1.2091,0.9317 2.9518,0.2108 5.9421,-2.4835 0.046,-0.0415 0.0611,-0.1105 0.0382,-0.1681 -2.5603,-6.4341 0.8841,-8.5346 4.1862,-10.3821 0.6122,-0.3425 1.5838,-0.9325 2.1727,-1.3137 L 80.409,39.2607 c 0.2938,-0.1902 0.5073,-0.4815 0.6005,-0.8188 0.0932,-0.3373 0.0596,-0.6973 -0.0948,-1.0114 l -1.1539,-2.429 c -0.151,-0.3071 -0.5305,-0.422 -0.8265,-0.2503 L 48.498,52.401 c -0.1543,0.0891 -0.2071,0.2863 -0.1181,0.4406 l 0.2955,0.5117 c 0.089,0.1543 0.0362,0.3516 -0.1181,0.4406 l -5.8853,3.3979 c -0.1542,0.089 -0.3515,0.0362 -0.4406,-0.1181 L 41.936,56.562 c -0.0891,-0.1542 -0.2864,-0.2071 -0.4406,-0.118 z"
       fill="#465153"
       id="path10"
       style="stroke-linecap:round;stroke-linejoin:round" />
    <path
       d="m 41.3574,68.1221 c -1.292,-0.32 -1.5081,-1.1982 -1.861,-2.3902 L 38.994,66.022 c 0.3392,1.499 0.9436,2.2478 2.336,2.4401 0.1328,0.0183 0.2994,-0.2726 0.0274,-0.34 z"
       fill="#3e3e41"
       stroke="#323234"
       stroke-width="0.451982"
       id="path11"
       style="stroke-linecap:round;stroke-linejoin:round" />
    <path
       d="m 73.9065,43.3073 1.1987,1.6009 2.8757,1.3466 4.3741,-2.9452 -3.0234,-3.3697"
       fill="#4d4d4d"
       stroke="#333333"
       stroke-width="0.903965"
       stroke-miterlimit="3.99393"
       id="path12"
       style="stroke-width:0.899729;stroke-dasharray:none" />
    <path
       d="m 78.5437,46.025 c 0.0911,-0.4538 0.088,-0.9737 -0.0301,-1.5597 l 17.2622,-10.6687 0.6149,0.9973 z"
       fill="#404040"
       id="path13"
       style="stroke-width:0.899729;stroke-dasharray:none" />
    <path
       d="m 78.5427,46.0259 c -0.0814,0.4055 -0.2382,0.7583 -0.4555,1.0582 l 0.0213,1.2631 c -0.0197,0.1612 0.1394,0.2403 0.352,0.2948 0.4891,0.0587 1.16,-0.2472 1.2709,-0.7838 0.0335,-0.1612 0.058,-0.2795 -0.2311,-0.4015 -0.1805,-0.0987 -0.509,-0.4072 -0.3512,-0.6399 0.0988,-0.1234 0.1945,-0.082 0.29,-0.0407 0.0391,0.0169 0.0782,0.0338 0.1174,0.0394 0.1459,0.0285 0.2431,-0.0051 0.4045,-0.1649 l 0.2897,-0.289 0.34,0.6269 -0.7856,0.4721 0.3145,0.4841 2.1041,-1.227 -0.3005,-0.5339 -0.804,0.4584 -0.425,-0.674 1.4943,-1.4172 c 0.1934,-0.2281 0.1668,-0.317 0.1331,-0.4297 -0.0064,-0.0213 -0.013,-0.0435 -0.0185,-0.0676 l -0.0944,-0.3348 z"
       fill="#383838"
       stroke="#333333"
       stroke-width="0.451982"
       stroke-miterlimit="3.99393"
       id="path14"
       style="stroke-width:0.899729;stroke-linecap:round;stroke-linejoin:round;stroke-dasharray:none"
       sodipodi:nodetypes="cccccccsccccccccccccccc" />
    <path
       d="m 78.5431,46.0251 2.6407,-1.6618 -0.9525,-0.9596 -1.7183,1.062 c 0.1181,0.5858 0.1212,1.1056 0.0301,1.5594 z"
       fill="#4d4d4d"
       id="path15" />
    <path
       d="m 92.2719,37.3861 -0.8848,-0.877 2.5703,-1.5886 0.9172,0.8276 z"
       fill="#4d4d4d"
       id="path16" />
    <path
       d="m 98.8562,33.8727 1.7818,-1.1474 -1.2476,-2.0423 -1.7406,1.1635 c -0.15,0.0999 -0.2603,0.2156 -0.3001,0.3585 -0.024,0.0845 -0.0192,0.1643 0.0027,0.2403 l 0.0788,0.169 0.7569,1.1818 c 0.0715,0.0926 0.161,0.1856 0.2976,0.1979 0.1229,0.0104 0.2472,-0.05 0.3705,-0.1213 z"
       fill="#3b3b3b"
       id="path17" />
    <path
       d="m 97.3524,32.4453 c -0.0219,-0.076 -0.0267,-0.1558 -0.0027,-0.2403 0.0398,-0.1429 0.1501,-0.2586 0.3001,-0.3585 l 1.7406,-1.1635 1.2476,2.0423 -1.7818,1.1474 c -0.1233,0.0713 -0.2476,0.1317 -0.3705,0.1213 -0.1366,-0.0123 -0.2261,-0.1053 -0.2976,-0.1979 l -0.7569,-1.1818 m -0.0788,-0.169 0.0788,0.169 m -0.0788,-0.169 c 0.0171,0.0594 0.0451,0.1165 0.0788,0.169"
       stroke="#333333"
       stroke-width="0.451982"
       stroke-miterlimit="3.99393"
       id="path18"
       style="stroke-width:0.899729;stroke-dasharray:none"
       sodipodi:nodetypes="ccccccccccccc" />
    <path
       d="m 100.541,30.6187 c 0.545,0.2015 0.779,0.6723 0.803,1.2711 l -0.035,1.2224 -0.673,-0.387 -1.2473,-2.0422 0.1345,-0.0903 -0.0034,-0.1619 -0.0061,-0.271 z"
       fill="#363636"
       stroke="#333333"
       stroke-width="0.451982"
       stroke-miterlimit="3.99393"
       id="path19"
       style="stroke-width:0.899729;stroke-linecap:round;stroke-linejoin:round;stroke-dasharray:none;paint-order:normal"
       sodipodi:nodetypes="ccccccccc" />
    <path
       d="m 99.529884,33.299758 1.789126,-1.134457 -1.07205,-1.739177 -1.751017,1.146041 c -0.150848,0.09853 -0.264533,0.208441 -0.311832,0.338178 -0.02857,0.07676 -0.02891,0.147492 -0.01272,0.213774 l 0.06521,0.145468 0.654458,1.004292 c 0.06302,0.07791 0.143267,0.154959 0.274183,0.15734 0.117753,0.0014 0.241237,-0.06025 0.364634,-0.131459 z"
       fill="#404040"
       id="path20"
       style="stroke-width:0.831325;stroke-dasharray:none" />
    <path
       d="m 98.2215,32.2109 c -0.0218,-0.076 -0.0267,-0.1558 -0.0026,-0.2403 0.0397,-0.1429 0.1501,-0.2585 0.3001,-0.3585 l 1.741,-1.1634 1.247,2.0422 -1.7816,1.1475 c -0.1234,0.0712 -0.2476,0.1316 -0.3705,0.1213 -0.1367,-0.0124 -0.2261,-0.1053 -0.2976,-0.1979 l -0.757,-1.1819 m -0.0788,-0.169 0.0788,0.169 m -0.0788,-0.169 c 0.0172,0.0594 0.0452,0.1165 0.0788,0.169"
       stroke="#333333"
       stroke-width="0.451982"
       stroke-miterlimit="3.99393"
       id="path21" />
    <path
       d="m 101.412,30.3843 c 0,0 0.779,0.6723 0.803,1.2711 l -0.035,1.2224 -0.673,-0.3869 -1.247,-2.0423 0.134,-0.0903 -0.003,-0.1619 -0.006,-0.271 z"
       fill="#383838"
       stroke="#333333"
       stroke-width="0.451982"
       stroke-miterlimit="3.99393"
       id="path22"
       style="stroke-width:0.899729;stroke-linecap:round;stroke-linejoin:round;stroke-dasharray:none;paint-order:normal"
       sodipodi:nodetypes="ccccccccc" />
    <rect
       x="95.859398"
       y="33.932598"
       width="2.75455"
       height="0.89089501"
       transform="rotate(-31.82,95.8594,33.9326)"
       fill="#383838"
       stroke="#333333"
       stroke-width="0.451982"
       stroke-miterlimit="3.99393"
       id="rect22"
       style="stroke-width:0.899729;stroke-dasharray:none" />
    <path
       d="m 74.4104,48.3178 c 1.0817,0.1295 2.1015,-0.0363 2.8649,-0.4972 l 0.018,1.4638 -1.8584,0.2463 c -0.4124,0.0391 -0.5062,-0.1561 -0.6505,-0.4565 -0.0363,-0.0754 -0.0757,-0.1575 -0.1242,-0.2441 z"
       fill="#383838"
       stroke="#333333"
       stroke-width="0.451982"
       stroke-miterlimit="3.99393"
       id="path23"
       style="stroke-width:0.899729;stroke-linecap:round;stroke-linejoin:round;stroke-dasharray:none"
       sodipodi:nodetypes="ccccccc" />
    <path
       opacity="0.9"
       d="m 95.5328,33.9475 -0.2281,-0.3951 c -0.0132,-0.0228 -0.0253,-0.049 -0.0372,-0.0748 -0.0576,-0.1244 -0.1109,-0.2397 -0.2529,0.086 l -1.3529,0.0089 c 0.0039,-0.0114 0.0426,-0.0498 0.0832,-0.0899 0.0494,-0.0489 0.1015,-0.1004 0.097,-0.1097 -0.0083,-0.0168 -0.2494,0.1851 -0.2494,0.1851 l -0.4773,0.026 c -0.2092,0.0205 -0.3842,0.1397 -0.4971,0.2866 -0.057,0.0743 -0.0909,0.1466 -0.1054,0.2019 -0.0077,0.0293 -0.0083,0.0466 -0.0081,0.0542 l 0.7202,1.2473 z"
       fill="#3b3b3b"
       stroke="#333333"
       stroke-width="0.451982"
       stroke-miterlimit="3.99393"
       id="path24"
       style="stroke:#222222;stroke-width:0.899729;stroke-dasharray:none;stroke-opacity:1" />
    <path
       d="M 78.4352,44.5142 95.776,33.797 96.391,34.7942 78.4882,46.0604"
       stroke="#333333"
       stroke-width="0.451982"
       stroke-miterlimit="3.99393"
       id="path25"
       style="stroke-width:0.899729;stroke-linecap:round;stroke-linejoin:round;stroke-dasharray:none"
       sodipodi:nodetypes="cccc" />
    <path
       d="m 70.9244,47.0194 c -0.0729,0.0389 -0.092,0.0832 0.0074,0.1218 l 2.1998,0.8907 c 3.3812,1.1048 6.8925,-0.5795 4.8928,-5.0444 -2.2979,1.2991 -4.8015,2.734 -7.1,4.0319 z"
       fill="#595959"
       stroke="#333333"
       stroke-width="0.903965"
       stroke-miterlimit="3.99393"
       id="path26"
       style="stroke-linecap:round;stroke-linejoin:round"
       sodipodi:nodetypes="ccccc" />
    <path
       d="m 72.2138,46.2894 c 0.7931,-0.45 1.6007,-0.9097 2.4074,-1.3689 1.1512,-0.6554 2.3005,-1.3096 3.4024,-1.9326 0.1322,0.2952 0.2403,0.5782 0.326,0.8491 L 88.772,37.0082 c 0.9944,-0.654 1.6541,-0.5631 2.0466,-0.3186 0.1892,0.1179 0.2226,0.0834 0.3729,-0.0723 0.0867,-0.0898 0.2124,-0.22 0.4294,-0.3845 -0.1306,-0.0529 -0.2681,-0.1271 -0.416,-0.2068 -0.6726,-0.3628 -1.5599,-0.8413 -2.9859,0.0348 z"
       fill="#808080"
       stroke="#333333"
       stroke-width="0.45198"
       stroke-miterlimit="3.99393"
       id="path27"
       style="stroke-width:0.899729;stroke-linecap:round;stroke-linejoin:round;stroke-dasharray:none"
       sodipodi:nodetypes="ccccccscccc" />
    <path
       d="m 76.6636,46.5403 c 0.3538,-0.2043 0.475,-0.6567 0.2707,-1.0105 -0.2042,-0.3538 -0.6567,-0.475 -1.0105,-0.2708 -0.3538,0.2043 -0.475,0.6567 -0.2707,1.0105 0.2042,0.3538 0.6567,0.4751 1.0105,0.2708 z"
       fill="#404040"
       id="path28" />
    <path
       d="M 79.7704,39.6749 54.8887,55.7875 53.5788,52.4839 c -0.0772,-0.1948 -0.0818,-0.4108 -0.013,-0.6086 0.0689,-0.1979 0.2066,-0.3644 0.3881,-0.4692 l 23.5732,-13.61 c 0.2304,-0.133 0.5043,-0.1691 0.7613,-0.1002 0.2571,0.0688 0.4763,0.237 0.6094,0.4674 z"
       fill="#343c3d"
       stroke="#2f3637"
       stroke-width="0.45198"
       stroke-miterlimit="3.99393"
       id="path29"
       style="stroke-linecap:round;stroke-linejoin:round" />
    <path
       d="m 50.3924,51.2574 c 0.1416,-0.0818 0.1901,-0.2629 0.1084,-0.4045 -0.0818,-0.1416 -0.2629,-0.1901 -0.4045,-0.1084 -0.1417,0.0818 -0.1902,0.2629 -0.1084,0.4045 0.0818,0.1416 0.2628,0.1902 0.4045,0.1084 z"
       fill="#383e33"
       id="path30" />
    <path
       d="m 41.4954,56.444 -5.0349,3.0112 c -5.7119,4.9124 -5.9925,11.575 -11.4299,10.6011 -0.6648,-0.119 -1.6364,-0.006 -2.1969,0.3717 L 3.30722,83.5915 c -0.27108,0.1828 -0.45975,0.4644 -0.52551,0.7847 -0.06576,0.3202 -0.00337,0.6536 0.17375,0.9284 L 9.96727,96.1825 12.2756,94.8497 26.266,79.4955 c 0.5037,-0.5528 1.1664,-0.4062 1.7548,0.0472 1.2091,0.9317 2.9518,0.2108 5.9421,-2.4835 0.046,-0.0415 0.0611,-0.1105 0.0382,-0.1681 -2.5603,-6.4341 0.8841,-8.5346 4.1862,-10.3821 0.6122,-0.3425 1.5838,-0.9325 2.1727,-1.3137 L 80.409,39.2607 c 0.2938,-0.1902 0.5073,-0.4815 0.6005,-0.8188 0.0932,-0.3373 0.0596,-0.6973 -0.0948,-1.0114 l -1.1539,-2.429 c -0.151,-0.3071 -0.5305,-0.422 -0.8265,-0.2503 L 48.498,52.401 c -0.1543,0.0891 -0.2071,0.2863 -0.1181,0.4406 l 0.2955,0.5117 c 0.089,0.1543 0.0362,0.3516 -0.1181,0.4406 l -5.8853,3.3979 c -0.1542,0.089 -0.3515,0.0362 -0.4406,-0.1181 L 41.936,56.562 c -0.0891,-0.1542 -0.2864,-0.2071 -0.4406,-0.118 z"
       stroke="#2f3637"
       stroke-width="0.903963"
       stroke-miterlimit="3.99393"
       stroke-linecap="square"
       id="path31" />
    <path
       d="m 39.442,45.3899 -1.1027,0.6366 c -0.3006,0.1736 -0.4037,0.5581 -0.2301,0.8587 l 1.9535,3.3836 c 0.1736,0.3007 0.5581,0.4037 0.8587,0.2301 l 1.1027,-0.6366 c 0.3007,-0.1736 0.4037,-0.5581 0.2301,-0.8587 L 40.3007,45.62 c -0.1736,-0.3007 -0.558,-0.4037 -0.8587,-0.2301 z"
       fill="#404040"
       id="path32" />
    <path
       d="m 37.455,66.9242 c 0.1381,-2.7613 -0.8507,-4.6321 -4.052,-4.1228 -0.6876,0.933 -1.2755,1.8571 -1.8237,2.7187 -1.8582,2.9209 -3.2605,5.125 -6.5489,4.5361 -0.2187,-0.0392 -0.4707,-0.0531 -0.7302,-0.0409 -2.4849,4.1906 -2.103,7.3047 1.8089,9.6519 l 0.1566,-0.1719 c 0.5037,-0.5528 1.1665,-0.4062 1.7548,0.0472 0.0378,0.0291 0.0761,0.0566 0.115,0.0825 1.2043,0.8022 2.9303,0.0441 5.8272,-2.566 0.046,-0.0415 0.061,-0.1105 0.0381,-0.1681 -0.32,-0.8042 -0.5462,-1.5408 -0.6906,-2.2176 -0.9254,-4.3375 1.5096,-6.2213 4.1448,-7.7491 z"
       fill="#343c3d"
       stroke="#2f3637"
       stroke-width="0.45198"
       stroke-miterlimit="3.99393"
       stroke-linecap="round"
       id="path33"
       style="stroke-linecap:round;stroke-linejoin:round" />
    <path
       d="m 46.9935,51.2395 -5.7161,3.3002 c -0.2255,0.1302 -0.3027,0.4185 -0.1726,0.6439 l 0.5905,1.0228 c 0.1302,0.2254 0.4185,0.3027 0.6439,0.1725 l 5.7162,-3.3002 c 0.2254,-0.1302 0.3027,-0.4184 0.1725,-0.6439 L 47.6374,51.412 C 47.5073,51.1866 47.219,51.1093 46.9935,51.2395 Z"
       fill="#404639"
       stroke="#33382e"
       stroke-width="0.45198"
       stroke-miterlimit="3.99393"
       stroke-linecap="round"
       id="path34"
       style="stroke-linecap:round;stroke-linejoin:round" />
    <path
       d="M 31.6309,53.4235 51.3483,42.0396 c 0.2262,-0.1305 0.5133,-0.0536 0.6439,0.1726 l 0.7594,1.3153 c 0.1306,0.2262 0.0537,0.5134 -0.1725,0.644 L 32.8617,55.5554 c -0.2262,0.1305 -0.5134,0.0535 -0.6439,-0.1726 l -0.7595,-1.3154 c -0.1305,-0.2262 -0.0536,-0.5133 0.1726,-0.6439 z"
       fill="#3b3b3b"
       stroke="#333333"
       stroke-width="0.903965"
       stroke-miterlimit="3.99393"
       stroke-linecap="round"
       id="path35"
       style="stroke-linejoin:round"
       sodipodi:nodetypes="ccssccccc" />
    <path
       fill-rule="evenodd"
       clip-rule="evenodd"
       d="m 38.8276,53.9373 -2.0049,1.1575 -2.3793,-4.1212 2.0048,-1.1575 z"
       fill="#4e4e4e"
       stroke="#333333"
       stroke-width="0.903965"
       stroke-miterlimit="3.99393"
       id="path36"
       style="stroke-linejoin:round"
       sodipodi:nodetypes="ccccc" />
    <path
       fill-rule="evenodd"
       clip-rule="evenodd"
       d="m 49.9623,47.5077 -2.0048,1.1574 -2.3794,-4.1212 2.0048,-1.1574 z"
       fill="#4e4e4e"
       stroke="#333333"
       stroke-width="0.903965"
       stroke-miterlimit="3.99393"
       id="path37"
       style="stroke-linejoin:round"
       sodipodi:nodetypes="ccccc" />
    <path
       d="m 25.356,56.7519 c -0.1716,-0.2972 -0.0547,-0.6776 0.2542,-0.8272 l 6.2474,-3.0242 c 0.2787,-0.1349 0.6142,-0.0318 0.769,0.2364 l 0.9814,1.6998 c 0.1548,0.2681 0.0764,0.6103 -0.1798,0.7842 l -5.7428,3.8983 c -0.2839,0.1927 -0.6718,0.1038 -0.8434,-0.1935 z"
       fill="#404040"
       id="path38"
       style="stroke-linejoin:round"
       sodipodi:nodetypes="ccccccccc" />
    <path
       d="m 63.5439,33.1629 -4.9209,2.841 2.8208,4.8856 4.9208,-2.841 c 0.2254,-0.1302 0.3027,-0.4184 0.1725,-0.6439 L 64.1878,33.3354 C 64.0576,33.11 63.7693,33.0327 63.5439,33.1629 Z"
       fill="#383838"
       id="path39" />
    <path
       d="m 49.7279,43.0732 8.8964,-7.0699 c 1.5005,1.1388 2.6105,3.0461 2.8207,4.8856 l -10.5711,4.1693 z"
       fill="#3d3d3d"
       id="path40"
       style="stroke-linejoin:round"
       sodipodi:nodetypes="ccccc" />
    <path
       d="m 58.6243,36.0033 -8.8964,7.0699 1.146,1.985 10.5711,-4.1692 m -2.8207,-4.8857 4.9208,-2.841 c 0.2254,-0.1302 0.5137,-0.0529 0.6439,0.1725 l 2.3493,4.0692 c 0.1302,0.2255 0.053,0.5138 -0.1725,0.6439 L 61.445,40.889 m -2.8207,-4.8857 c 1.5005,1.1388 2.6105,3.0461 2.8207,4.8857"
       stroke="#333333"
       stroke-width="0.903965"
       stroke-miterlimit="3.99393"
       stroke-linecap="round"
       id="path41"
       style="stroke-linejoin:round"
       sodipodi:nodetypes="cccccccccccc" />
    <path
       d="m 32.8277,56.0285 -0.8053,0.5467 -0.6798,0.3924 -0.1816,-0.3146 1.5205,-0.8778 z"
       fill="#363636"
       id="path42" />
    <path
       d="m 30.3277,53.641 0.8766,-0.4243 0.1463,0.2532 -1.5205,0.8779 -0.1817,-0.3146 z"
       fill="#363636"
       id="path43" />
    <path
       d="m 29.9509,54.5572 0.1817,0.3146 1.5205,-0.8779 -0.1817,-0.3146 z"
       fill="#363636"
       id="path44" />
    <path
       d="m 30.4351,55.3957 -0.1816,-0.3146 1.5205,-0.8778 0.1816,0.3146 z"
       fill="#363636"
       id="path45" />
    <path
       d="m 30.556,55.6051 0.1816,0.3146 1.5205,-0.8779 -0.1816,-0.3146 z"
       fill="#363636"
       id="path46" />
    <path
       d="m 31.0401,56.4436 -0.1816,-0.3145 1.5205,-0.8779 0.1816,0.3146 z"
       fill="#363636"
       id="path47" />
    <path
       d="m 39.8263,45.9776 0.2927,-0.169 0.8171,1.4151 -0.2928,0.169 z"
       fill="#383838"
       id="path48" />
    <path
       d="m 39.3386,46.2592 0.2928,-0.1691 0.817,1.4152 -0.2928,0.169 z"
       fill="#383838"
       id="path49" />
    <path
       d="m 38.8509,46.5407 0.2928,-0.169 0.8171,1.4151 -0.2928,0.169 z"
       fill="#383838"
       id="path50" />
    <path
       d="m 38.3633,46.8223 0.2928,-0.1691 0.817,1.4152 -0.2928,0.169 z"
       fill="#383838"
       id="path51" />
    <path
       fill-rule="evenodd"
       clip-rule="evenodd"
       d="m 101.192,19.9609 1.405,-1.2774 3.987,-2.3018 c 0.283,-0.1631 0.644,-0.0663 0.807,0.2163 l 0.982,1.7006 c 0.163,0.2825 0.066,0.6438 -0.216,0.807 l -3.987,2.3017 -1.809,0.5784 z m 2.787,0.4604 c 0.253,-0.1317 0.358,-0.4211 0.24,-0.6253 l -0.186,-0.322 c -0.124,-0.2146 -0.41,-0.2643 -0.663,-0.1324 -0.253,0.1318 -0.358,0.4216 -0.24,0.6253 l 0.186,0.3221 c 0.124,0.2145 0.41,0.2641 0.663,0.1323 z m 1.713,-1.4756 c 0.118,0.2041 0.013,0.4935 -0.24,0.6252 -0.253,0.1319 -0.539,0.0823 -0.663,-0.1322 l -0.186,-0.3221 c -0.118,-0.2037 -0.013,-0.4936 0.24,-0.6254 0.253,-0.1318 0.539,-0.0821 0.663,0.1324 z m 1.233,-0.2251 c 0.253,-0.1317 0.358,-0.4212 0.24,-0.6253 l -0.186,-0.3221 c -0.124,-0.2145 -0.411,-0.2642 -0.663,-0.1324 -0.253,0.1319 -0.358,0.4217 -0.24,0.6254 l 0.186,0.3221 c 0.124,0.2145 0.41,0.2641 0.663,0.1323 z"
       fill="#494e43"
       id="path52" />
    <path
       d="m 107.164,18.0955 c 0.118,0.2042 0.013,0.4936 -0.24,0.6253 -0.253,0.1319 -0.539,0.0823 -0.663,-0.1323 l -0.186,-0.3221 c -0.118,-0.2036 -0.013,-0.4935 0.24,-0.6253 0.253,-0.1319 0.539,-0.0822 0.663,0.1324 z"
       stroke="#33372f"
       stroke-width="0.451982"
       stroke-miterlimit="3.99393"
       id="path53" />
    <path
       d="m 105.691,18.9459 c 0.118,0.2042 0.013,0.4936 -0.24,0.6253 -0.253,0.1318 -0.539,0.0822 -0.663,-0.1323 l -0.186,-0.3221 c -0.118,-0.2037 -0.013,-0.4935 0.24,-0.6253 0.253,-0.1319 0.539,-0.0822 0.663,0.1324 z"
       stroke="#33372f"
       stroke-width="0.451982"
       stroke-miterlimit="3.99393"
       id="path54" />
    <path
       d="m 104.218,19.7962 c 0.118,0.2042 0.013,0.4936 -0.24,0.6253 -0.253,0.1319 -0.539,0.0823 -0.663,-0.1322 l -0.186,-0.3222 c -0.118,-0.2036 -0.013,-0.4935 0.24,-0.6253 0.253,-0.1318 0.539,-0.0821 0.663,0.1324 z"
       stroke="#33372f"
       stroke-width="0.451982"
       stroke-miterlimit="3.99393"
       id="path55" />
    <path
       fill-rule="evenodd"
       clip-rule="evenodd"
       d="m 101.192,19.9609 1.405,-1.2775 3.987,-2.3017 c 0.283,-0.1631 0.644,-0.0663 0.807,0.2163 l 0.982,1.7006 c 0.163,0.2826 0.066,0.6439 -0.216,0.8071 l -3.987,2.3017 -1.809,0.5783 z"
       stroke="#33372f"
       stroke-width="0.903965"
       stroke-miterlimit="3.99393"
       id="path56"
       style="stroke-linecap:round;stroke-linejoin:round;paint-order:stroke fill markers"
       sodipodi:nodetypes="ccccccccc" />
    <path
       fill-rule="evenodd"
       clip-rule="evenodd"
       d="m 37.0587,56.6464 c -0.0706,0.0408 -0.161,0.0166 -0.2017,-0.054 L 36.2731,55.581 c -0.0408,-0.0706 -0.0166,-0.1609 0.054,-0.2017 l 2.9934,-1.7282 c 0.0706,-0.0408 0.1609,-0.0166 0.2017,0.054 l 0.5839,1.0114 c 0.0408,0.0706 0.0166,0.1609 -0.0541,0.2017 z"
       fill="#474747"
       stroke="#333333"
       stroke-width="0.903965"
       stroke-miterlimit="3.99393"
       id="path57"
       style="stroke-linejoin:round"
       sodipodi:nodetypes="ccccccccc" />
    <path
       fill-rule="evenodd"
       clip-rule="evenodd"
       d="m 48.1935,50.2177 c -0.0707,0.0408 -0.161,0.0166 -0.2018,-0.0541 l -0.5839,-1.0113 c -0.0408,-0.0706 -0.0165,-0.1609 0.0541,-0.2017 l 2.9933,-1.7282 c 0.0707,-0.0408 0.161,-0.0166 0.2018,0.054 l 0.5839,1.0113 c 0.0408,0.0707 0.0165,0.161 -0.0541,0.2018 z"
       fill="#474747"
       stroke="#333333"
       stroke-width="0.903965"
       stroke-miterlimit="3.99393"
       id="path58"
       style="stroke-linecap:round;stroke-linejoin:round" />
    <path
       fill-rule="evenodd"
       clip-rule="evenodd"
       d="m 35.5993,58.3384 c -0.0408,-0.0706 -0.0166,-0.161 0.054,-0.2017 l 0.9922,-0.5729 c 0.0707,-0.0408 0.161,-0.0166 0.2018,0.0541 l 1.485,2.5722 c 0.3054,0.5289 0.4742,1.1257 0.4911,1.7363 l 0.0616,2.2317 -0.9123,0.1992 -0.423,-2.6407 z"
       fill="#474c43"
       stroke="#333630"
       stroke-width="0.903965"
       stroke-miterlimit="3.99393"
       stroke-linecap="round"
       id="path59"
       style="stroke-linecap:round;stroke-linejoin:round" />
    <path
       fill-rule="evenodd"
       clip-rule="evenodd"
       d="m 36.6615,68.0218 c 0.3791,-3.1335 0.5029,-2.2823 1.3115,-3.6651 l 0.9123,-0.1993 c 0.6809,1.3808 1.0799,0.8953 0.7885,4.25 -0.7948,0.7745 -2.5456,0.4137 -3.0123,-0.3856 z"
       fill="#3f443c"
       stroke="#333630"
       stroke-width="0.903965"
       stroke-miterlimit="3.99393"
       stroke-linecap="round"
       id="path60" />
    <path
       d="m 39.442,45.3899 -1.1027,0.6366 c -0.3006,0.1736 -0.4037,0.5581 -0.2301,0.8587 l 1.9535,3.3836 c 0.1736,0.3007 0.5581,0.4037 0.8587,0.2301 l 1.1027,-0.6366 c 0.3007,-0.1736 0.4037,-0.5581 0.2301,-0.8587 L 40.3007,45.62 c -0.1736,-0.3007 -0.558,-0.4037 -0.8587,-0.2301 z"
       stroke="#333333"
       stroke-width="0.45198"
       stroke-miterlimit="3.99393"
       stroke-linecap="round"
       id="path61"
       style="stroke-linejoin:round"
       sodipodi:nodetypes="sccccsccs" />
    <path
       d="m 41.5817,50.369 c 0.6216,-0.359 0.8346,-1.1539 0.4757,-1.7756 -0.3589,-0.6216 -1.1538,-0.8346 -1.7755,-0.4757 -0.6217,0.3589 -0.8347,1.1538 -0.4758,1.7755 0.359,0.6217 1.1539,0.8347 1.7756,0.4758 z"
       fill="#454545"
       stroke="#333333"
       stroke-width="0.45198"
       stroke-miterlimit="3.99393"
       stroke-linecap="round"
       id="path62" />
    <path
       d="m 25.356,56.7519 c -0.1716,-0.2972 -0.0547,-0.6776 0.2542,-0.8272 l 6.2474,-3.0242 c 0.2787,-0.1349 0.6142,-0.0318 0.769,0.2364 l 0.9814,1.6998 c 0.1548,0.2681 0.0764,0.6103 -0.1798,0.7842 l -5.7428,3.8983 c -0.2839,0.1927 -0.6718,0.1038 -0.8434,-0.1935 z"
       stroke="#333333"
       stroke-width="0.903965"
       stroke-miterlimit="3.99393"
       stroke-linecap="round"
       id="path63" />
  </g>
  <defs
     id="defs63">
    <clipPath
       id="clip0_619_1188">
      <rect
         width="110"
         height="110"
         fill="#ffffff"
         id="rect63"
         x="0"
         y="0" />
    </clipPath>
  </defs>
</svg>
