<svg width="110" height="110" viewBox="0 0 110 110" fill="none" xmlns="http://www.w3.org/2000/svg">
<g clip-path="url(#clip0_619_1188)">
<path d="M36.9316 56.7207L51.1342 48.5209L55.8946 46.1136L101.192 19.9613L102.361 21.9861L48.7937 52.9129C48.6395 53.002 48.5866 53.1993 48.6757 53.3536C48.7647 53.5079 48.7119 53.7052 48.5576 53.7942L42.6724 57.1921C42.5181 57.2812 42.3208 57.2283 42.2317 57.074C42.1426 56.9197 41.9454 56.8669 41.7911 56.9559L38.2484 59.0013L36.9316 56.7207Z" fill="#434A3C"/>
<path d="M51.5944 48.3102L50.8867 48.7188L52.051 50.7353L52.7586 50.3268L51.5944 48.3102Z" fill="#404639" stroke="#33382E" stroke-width="0.45198" stroke-miterlimit="3.99393"/>
<path d="M11.284 95.423L8.5347 97.0103C8.26313 97.1671 7.91637 97.0844 7.7448 96.822L0.705216 86.0529C0.528655 85.7828 0.601479 85.421 0.868788 85.2403L3.30669 83.5918L11.284 95.423Z" fill="#474747"/>
<path d="M8.92871 96.7835L1.2689 84.9705L3.30747 83.592L11.2848 95.4233L8.92871 96.7835Z" fill="#404040"/>
<path d="M11.284 95.423L8.5347 97.0103C8.26313 97.1671 7.91637 97.0844 7.7448 96.822L0.705216 86.0529C0.528655 85.7828 0.601479 85.421 0.868788 85.2403L3.30669 83.5918L11.284 95.423Z" stroke="#333333" stroke-width="0.903963" stroke-miterlimit="3.99393"/>
<path d="M36.9316 56.7207L51.1342 48.5209L55.8946 46.1136L101.681 19.6789L102.85 21.7037L48.7937 52.9129C48.6395 53.002 48.5866 53.1993 48.6757 53.3536C48.7647 53.5079 48.7119 53.7052 48.5576 53.7942L42.6724 57.1921C42.5181 57.2812 42.3208 57.2283 42.2317 57.074C42.1426 56.9197 41.9454 56.8669 41.7911 56.9559L38.2484 59.0013L36.9316 56.7207Z" stroke="#33382E" stroke-width="0.903965" stroke-miterlimit="3.99393" stroke-linecap="round"/>
<path fill-rule="evenodd" clip-rule="evenodd" d="M34.8311 58.6559C34.8423 58.6208 34.8661 58.5911 34.8981 58.5727L38.1531 56.6933C38.2238 56.6526 38.3141 56.6768 38.3549 56.7474L39.2304 58.2639C39.2712 58.3345 39.247 58.4248 39.1764 58.4656L34.0066 61.4504C33.936 61.4912 33.8456 61.467 33.8048 61.3963L33.1519 60.2654C33.1111 60.1948 33.1353 60.1044 33.206 60.0636L34.5992 59.2592C34.6311 59.2408 34.655 59.2111 34.6662 59.176L34.8311 58.6559Z" fill="#4E4E4E" stroke="#333333" stroke-width="0.903965" stroke-miterlimit="3.99393" stroke-linecap="round"/>
<path d="M36.697 67.3821C36.9824 67.4631 37.3971 67.9167 37.6645 68.35C38.1073 69.1014 38.5446 69.7505 39.2432 70.0421C39.9418 70.3335 40.8191 70.2056 42.0102 69.5751C42.7052 69.2118 43.19 68.8772 43.519 68.5251C43.8486 68.1729 44.0168 67.7877 44.0371 67.3989C44.0778 66.6213 44.026 66.2759 43.6168 65.3376C43.4178 64.8714 43.1323 64.1304 43.3235 63.2773L41.1642 64.6755C42.1764 64.5475 42.5985 65.1505 42.9807 65.8125C43.0277 65.9202 43.0702 66.0169 43.1088 66.1045C43.418 66.8072 43.4682 66.9214 43.4448 67.3695C43.4316 67.6214 43.344 67.8475 43.0866 68.1227C42.8291 68.3978 42.3957 68.7068 41.7327 69.0529C40.6161 69.6441 39.9537 69.6987 39.4713 69.4974C38.9889 69.2961 38.6033 68.7784 38.1735 68.0498C37.9478 67.6726 37.871 67.0703 38.0267 66.6001C37.5791 66.8515 37.1308 67.1088 36.697 67.3821Z" fill="#3A3A3C" stroke="#323234" stroke-width="0.45198" stroke-miterlimit="3.99393" stroke-linecap="square"/>
<path d="M41.1196 58.6718C40.9565 58.3892 41.0533 58.0279 41.3359 57.8648L49.347 53.2395C49.6296 53.0764 49.9909 53.1732 50.154 53.4558L52.4493 57.4314C52.6063 57.7033 52.5232 58.0505 52.2601 58.2218L44.4973 63.2772C44.2135 63.4621 43.8326 63.3709 43.6633 63.0776L41.1196 58.6718Z" fill="#525256" stroke="#323234" stroke-width="0.903965" stroke-miterlimit="3.99393" stroke-linecap="square"/>
<path d="M41.4954 56.444L36.4605 59.4552C30.7486 64.3676 30.468 71.0302 25.0306 70.0563C24.3658 69.9373 23.3942 70.0503 22.8337 70.428L3.30722 83.5915C3.03614 83.7743 2.84747 84.0559 2.78171 84.3762C2.71595 84.6964 2.77834 85.0298 2.95546 85.3046L9.96727 96.1825L12.2756 94.8497L26.266 79.4955C26.7697 78.9427 27.4324 79.0893 28.0208 79.5427C29.2299 80.4744 30.9726 79.7535 33.9629 77.0592C34.0089 77.0177 34.024 76.9487 34.0011 76.8911C31.4408 70.457 34.8852 68.3565 38.1873 66.509C38.7995 66.1665 39.7711 65.5765 40.36 65.1953L80.409 39.2607C80.7028 39.0705 80.9163 38.7792 81.0095 38.4419C81.1027 38.1046 81.0691 37.7446 80.9147 37.4305L79.7608 35.0015C79.6098 34.6944 79.2303 34.5795 78.9343 34.7512L48.498 52.401C48.3437 52.4901 48.2909 52.6873 48.3799 52.8416L48.6754 53.3533C48.7644 53.5076 48.7116 53.7049 48.5573 53.7939L42.672 57.1918C42.5178 57.2808 42.3205 57.228 42.2314 57.0737L41.936 56.562C41.8469 56.4078 41.6496 56.3549 41.4954 56.444Z" fill="#465153"/>
<path d="M41.3574 68.1221C40.0654 67.8021 39.8493 66.9239 39.4964 65.7319L38.994 66.022C39.3332 67.521 39.9376 68.2698 41.33 68.4621C41.4628 68.4804 41.6294 68.1895 41.3574 68.1221Z" fill="#3E3E41" stroke="#323234" stroke-width="0.451982"/>
<path d="M73.9065 43.3073L75.1052 44.9082L77.9809 46.2548L82.355 43.3096L79.3316 39.9399" fill="#4D4D4D" stroke="#333333" stroke-width="0.903965" stroke-miterlimit="3.99393"/>
<path d="M78.5437 46.025C78.6348 45.5712 78.6317 45.0513 78.5136 44.4653L95.7758 33.7966L96.3907 34.7939L78.5437 46.025Z" fill="#404040"/>
<path d="M78.5427 46.0259C78.4613 46.4314 78.3045 46.7842 78.0872 47.0841L78.1085 48.3472C78.0888 48.5084 78.2479 48.5875 78.4605 48.642C78.9496 48.7007 79.6205 48.3948 79.7314 47.8582C79.7649 47.697 79.7894 47.5787 79.5003 47.4567C79.3198 47.358 78.9913 47.0495 79.1491 46.8168C79.2479 46.6934 79.3436 46.7348 79.4391 46.7761C79.4782 46.793 79.5173 46.8099 79.5565 46.8155C79.7024 46.844 79.7996 46.8104 79.961 46.6506L80.2507 46.3616L80.5907 46.9885L79.8051 47.4606L80.1196 47.9447L82.2237 46.7177L81.9232 46.1838L81.1192 46.6422L80.6942 45.9682L82.1885 44.551C82.3819 44.3229 82.3553 44.234 82.3216 44.1213C82.3152 44.1 82.3086 44.0778 82.3031 44.0537L82.2087 43.7189L78.5427 46.0259Z" fill="#383838" stroke="#333333" stroke-width="0.451982" stroke-miterlimit="3.99393"/>
<path d="M78.5431 46.0251L81.1838 44.3633L80.2313 43.4037L78.513 44.4657C78.6311 45.0515 78.6342 45.5713 78.5431 46.0251Z" fill="#4D4D4D"/>
<path d="M92.2719 37.3861L91.3871 36.5091L93.9574 34.9205L94.8746 35.7481L92.2719 37.3861Z" fill="#4D4D4D"/>
<path d="M98.8562 33.8727L100.638 32.7253L99.3904 30.683L97.6498 31.8465C97.4998 31.9464 97.3895 32.0621 97.3497 32.205C97.3257 32.2895 97.3305 32.3693 97.3524 32.4453L97.4312 32.6143L98.1881 33.7961C98.2596 33.8887 98.3491 33.9817 98.4857 33.994C98.6086 34.0044 98.7329 33.944 98.8562 33.8727Z" fill="#3B3B3B"/>
<path d="M97.3524 32.4453C97.3305 32.3693 97.3257 32.2895 97.3497 32.205C97.3895 32.0621 97.4998 31.9464 97.6498 31.8465L99.3904 30.683L100.638 32.7253L98.8562 33.8727C98.7329 33.944 98.6086 34.0044 98.4857 33.994C98.3491 33.9817 98.2596 33.8887 98.1881 33.7961L97.4312 32.6143M97.3524 32.4453L97.4312 32.6143M97.3524 32.4453C97.3695 32.5047 97.3975 32.5618 97.4312 32.6143" stroke="#333333" stroke-width="0.451982" stroke-miterlimit="3.99393"/>
<path d="M100.541 30.6187C101.086 30.8202 101.32 31.291 101.344 31.8898C101.344 31.8898 101.316 33.1084 101.309 33.1122C101.303 33.1161 100.636 32.7252 100.636 32.7252L99.3887 30.683L99.5232 30.5927L99.5198 30.4308C99.5198 30.4308 99.5107 30.1615 99.5137 30.1598C99.5167 30.158 100.541 30.6187 100.541 30.6187Z" fill="#363636" stroke="#333333" stroke-width="0.451982" stroke-miterlimit="3.99393"/>
<path d="M99.7254 33.6384L101.507 32.4909L100.26 30.4487L98.519 31.6121C98.369 31.7121 98.2586 31.8277 98.2189 31.9706C98.1948 32.0551 98.1997 32.1349 98.2215 32.2109L98.3003 32.3799L99.0573 33.5618C99.1288 33.6544 99.2182 33.7473 99.3549 33.7597C99.4778 33.77 99.602 33.7096 99.7254 33.6384Z" fill="#404040"/>
<path d="M98.2215 32.2109C98.1997 32.1349 98.1948 32.0551 98.2189 31.9706C98.2586 31.8277 98.369 31.7121 98.519 31.6121L100.26 30.4487L101.507 32.4909L99.7254 33.6384C99.602 33.7096 99.4778 33.77 99.3549 33.7597C99.2182 33.7473 99.1288 33.6544 99.0573 33.5618L98.3003 32.3799M98.2215 32.2109L98.3003 32.3799M98.2215 32.2109C98.2387 32.2703 98.2667 32.3274 98.3003 32.3799" stroke="#333333" stroke-width="0.451982" stroke-miterlimit="3.99393"/>
<path d="M101.412 30.3843C101.957 30.5859 102.191 31.0566 102.215 31.6554C102.215 31.6554 102.187 32.874 102.18 32.8778C102.174 32.8817 101.507 32.4909 101.507 32.4909L100.26 30.4486L100.394 30.3583L100.391 30.1964C100.391 30.1964 100.382 29.9271 100.385 29.9254C100.388 29.9237 101.412 30.3843 101.412 30.3843Z" fill="#383838" stroke="#333333" stroke-width="0.451982" stroke-miterlimit="3.99393"/>
<rect x="95.8594" y="33.9326" width="2.75455" height="0.890895" transform="rotate(-31.82 95.8594 33.9326)" fill="#383838" stroke="#333333" stroke-width="0.451982" stroke-miterlimit="3.99393"/>
<path d="M74.4104 48.3178C75.4921 48.4473 76.5119 48.2815 77.2753 47.8206L77.2933 49.2844L75.4349 49.5307C75.0225 49.5698 74.9287 49.3746 74.7844 49.0742C74.7481 48.9988 74.7087 48.9167 74.6602 48.8301L74.4104 48.3178Z" fill="#383838" stroke="#333333" stroke-width="0.451982" stroke-miterlimit="3.99393"/>
<path opacity="0.9" d="M95.5328 33.9475L95.3047 33.5524C95.2915 33.5296 95.2794 33.5034 95.2675 33.4776C95.2099 33.3532 95.1566 33.2379 95.0146 33.5636L93.6617 33.5725C93.6656 33.5611 93.7043 33.5227 93.7449 33.4826C93.7943 33.4337 93.8464 33.3822 93.8419 33.3729C93.8336 33.3561 93.5925 33.558 93.5925 33.558L93.1152 33.584C92.906 33.6045 92.731 33.7237 92.6181 33.8706C92.5611 33.9449 92.5272 34.0172 92.5127 34.0725C92.505 34.1018 92.5044 34.1191 92.5046 34.1267L93.2248 35.374L95.5328 33.9475Z" fill="#3B3B3B" stroke="#333333" stroke-width="0.451982" stroke-miterlimit="3.99393"/>
<path d="M78.4352 44.5142L95.776 33.797L96.391 34.7942L78.4882 46.0604" stroke="#333333" stroke-width="0.451982" stroke-miterlimit="3.99393"/>
<path d="M70.9244 47.0194C70.8515 47.0583 70.8324 47.1026 70.9318 47.1412L73.1316 48.0319C76.5128 49.1367 80.0241 47.4524 78.0244 42.9875C75.7265 44.2866 73.2229 45.7215 70.9244 47.0194Z" fill="#595959" stroke="#333333" stroke-width="0.903965" stroke-miterlimit="3.99393"/>
<path d="M72.2138 46.2894C73.0069 45.8394 73.8145 45.3797 74.6212 44.9205C75.7724 44.2651 76.9217 43.6109 78.0236 42.9879C78.1558 43.2831 78.2639 43.5661 78.3496 43.837L88.772 37.0082C89.7664 36.3542 90.4261 36.4451 90.8186 36.6896C91.0078 36.8075 91.0412 36.773 91.1915 36.6173C91.2782 36.5275 91.4039 36.3973 91.6209 36.2328C91.4903 36.1799 91.3528 36.1057 91.2049 36.026C90.5323 35.6632 89.645 35.1847 88.219 36.0608L72.2138 46.2894Z" fill="#808080" stroke="#333333" stroke-width="0.45198" stroke-miterlimit="3.99393"/>
<path d="M76.6636 46.5403C77.0174 46.336 77.1386 45.8836 76.9343 45.5298C76.7301 45.176 76.2776 45.0548 75.9238 45.259C75.57 45.4633 75.4488 45.9157 75.6531 46.2695C75.8573 46.6233 76.3098 46.7446 76.6636 46.5403Z" fill="#404040"/>
<path d="M79.7704 39.6749L54.8887 55.7875L53.5788 52.4839C53.5016 52.2891 53.497 52.0731 53.5658 51.8753C53.6347 51.6774 53.7724 51.5109 53.9539 51.4061L77.5271 37.7961C77.7575 37.6631 78.0314 37.627 78.2884 37.6959C78.5455 37.7647 78.7647 37.9329 78.8978 38.1633L79.7704 39.6749Z" fill="#343C3D" stroke="#2F3637" stroke-width="0.45198" stroke-miterlimit="3.99393"/>
<path d="M50.3924 51.2574C50.534 51.1756 50.5825 50.9945 50.5008 50.8529C50.419 50.7113 50.2379 50.6628 50.0963 50.7445C49.9546 50.8263 49.9061 51.0074 49.9879 51.149C50.0697 51.2906 50.2507 51.3392 50.3924 51.2574Z" fill="#383E33"/>
<path d="M41.4954 56.444L36.4605 59.4552C30.7486 64.3676 30.468 71.0302 25.0306 70.0563C24.3658 69.9373 23.3942 70.0503 22.8337 70.428L3.30722 83.5915C3.03614 83.7743 2.84747 84.0559 2.78171 84.3762C2.71595 84.6964 2.77834 85.0298 2.95546 85.3046L9.96727 96.1825L12.2756 94.8497L26.266 79.4955C26.7697 78.9427 27.4324 79.0893 28.0208 79.5427C29.2299 80.4744 30.9726 79.7535 33.9629 77.0592C34.0089 77.0177 34.024 76.9487 34.0011 76.8911C31.4408 70.457 34.8852 68.3565 38.1873 66.509C38.7995 66.1665 39.7711 65.5765 40.36 65.1953L80.409 39.2607C80.7028 39.0705 80.9163 38.7792 81.0095 38.4419C81.1027 38.1046 81.0691 37.7446 80.9147 37.4305L79.7608 35.0015C79.6098 34.6944 79.2303 34.5795 78.9343 34.7512L48.498 52.401C48.3437 52.4901 48.2909 52.6873 48.3799 52.8416L48.6754 53.3533C48.7644 53.5076 48.7116 53.7049 48.5573 53.7939L42.672 57.1918C42.5178 57.2808 42.3205 57.228 42.2314 57.0737L41.936 56.562C41.8469 56.4078 41.6496 56.3549 41.4954 56.444Z" stroke="#2F3637" stroke-width="0.903963" stroke-miterlimit="3.99393" stroke-linecap="square"/>
<path d="M39.442 45.3899L38.3393 46.0265C38.0387 46.2001 37.9356 46.5846 38.1092 46.8852L40.0627 50.2688C40.2363 50.5695 40.6208 50.6725 40.9214 50.4989L42.0241 49.8623C42.3248 49.6887 42.4278 49.3042 42.2542 49.0036L40.3007 45.62C40.1271 45.3193 39.7427 45.2163 39.442 45.3899Z" fill="#404040"/>
<path d="M37.455 66.9242C37.5931 64.1629 36.6043 62.2921 33.403 62.8014C32.7154 63.7344 32.1275 64.6585 31.5793 65.5201C29.7211 68.441 28.3188 70.6451 25.0304 70.0562C24.8117 70.017 24.5597 70.0031 24.3002 70.0153C21.8153 74.2059 22.1972 77.32 26.1091 79.6672L26.2657 79.4953C26.7694 78.9425 27.4322 79.0891 28.0205 79.5425C28.0583 79.5716 28.0966 79.5991 28.1355 79.625C29.3398 80.4272 31.0658 79.6691 33.9627 77.059C34.0087 77.0175 34.0237 76.9485 34.0008 76.8909C33.6808 76.0867 33.4546 75.3501 33.3102 74.6733C32.3848 70.3358 34.8198 68.452 37.455 66.9242Z" fill="#343C3D" stroke="#2F3637" stroke-width="0.45198" stroke-miterlimit="3.99393" stroke-linecap="round"/>
<path d="M46.9935 51.2395L41.2774 54.5397C41.0519 54.6699 40.9747 54.9582 41.1048 55.1836L41.6953 56.2064C41.8255 56.4318 42.1138 56.5091 42.3392 56.3789L48.0554 53.0787C48.2808 52.9485 48.3581 52.6603 48.2279 52.4348L47.6374 51.412C47.5073 51.1866 47.219 51.1093 46.9935 51.2395Z" fill="#404639" stroke="#33382E" stroke-width="0.45198" stroke-miterlimit="3.99393" stroke-linecap="round"/>
<path d="M31.6309 53.4235L51.3483 42.0396C51.5745 41.9091 51.8616 41.986 51.9922 42.2122L52.7516 43.5275C52.8822 43.7537 52.8053 44.0409 52.5791 44.1715L32.8617 55.5554C32.6355 55.6859 32.3483 55.6089 32.2178 55.3828L31.4583 54.0674C31.3278 53.8412 31.4047 53.5541 31.6309 53.4235Z" fill="#3B3B3B" stroke="#333333" stroke-width="0.903965" stroke-miterlimit="3.99393" stroke-linecap="round"/>
<path fill-rule="evenodd" clip-rule="evenodd" d="M38.8276 53.9373L36.8227 55.0948L34.4434 50.9736L36.4482 49.8161L38.8276 53.9373Z" fill="#4E4E4E" stroke="#333333" stroke-width="0.903965" stroke-miterlimit="3.99393"/>
<path fill-rule="evenodd" clip-rule="evenodd" d="M49.9623 47.5077L47.9575 48.6651L45.5781 44.5439L47.5829 43.3865L49.9623 47.5077Z" fill="#4E4E4E" stroke="#333333" stroke-width="0.903965" stroke-miterlimit="3.99393"/>
<path d="M25.356 56.7519C25.1844 56.4547 25.3013 56.0743 25.6102 55.9247L31.8576 52.9005C32.1363 52.7656 32.4718 52.8687 32.6266 53.1369L33.608 54.8367C33.7628 55.1048 33.6844 55.447 33.4282 55.6209L27.6854 59.5192C27.4015 59.7119 27.0136 59.623 26.842 59.3257L25.356 56.7519Z" fill="#404040"/>
<path d="M63.5439 33.1629L58.623 36.0039L61.4438 40.8895L66.3646 38.0485C66.59 37.9183 66.6673 37.6301 66.5371 37.4046L64.1878 33.3354C64.0576 33.11 63.7693 33.0327 63.5439 33.1629Z" fill="#383838"/>
<path d="M49.7279 43.0732L58.6243 36.0033C60.1248 37.1421 61.2348 39.0494 61.445 40.8889L50.8739 45.0582L49.7279 43.0732Z" fill="#3D3D3D"/>
<path d="M58.6243 36.0033L49.7279 43.0732L50.8739 45.0582L61.445 40.889M58.6243 36.0033L63.5451 33.1623C63.7705 33.0321 64.0588 33.1094 64.189 33.3348L66.5383 37.404C66.6685 37.6295 66.5913 37.9178 66.3658 38.0479L61.445 40.889M58.6243 36.0033C60.1248 37.1421 61.2348 39.0494 61.445 40.889" stroke="#333333" stroke-width="0.903965" stroke-miterlimit="3.99393" stroke-linecap="round"/>
<path d="M32.8277 56.0285L32.0224 56.5752L31.3426 56.9676L31.161 56.653L32.6815 55.7752L32.8277 56.0285Z" fill="#363636"/>
<path d="M30.3277 53.641L31.2043 53.2167L31.3506 53.4699L29.8301 54.3478L29.6484 54.0332L30.3277 53.641Z" fill="#363636"/>
<path d="M29.9509 54.5572L30.1326 54.8718L31.6531 53.9939L31.4714 53.6793L29.9509 54.5572Z" fill="#363636"/>
<path d="M30.4351 55.3957L30.2535 55.0811L31.774 54.2033L31.9556 54.5179L30.4351 55.3957Z" fill="#363636"/>
<path d="M30.556 55.6051L30.7376 55.9197L32.2581 55.0418L32.0765 54.7272L30.556 55.6051Z" fill="#363636"/>
<path d="M31.0401 56.4436L30.8585 56.1291L32.379 55.2512L32.5606 55.5658L31.0401 56.4436Z" fill="#363636"/>
<path d="M39.8263 45.9776L40.119 45.8086L40.9361 47.2237L40.6433 47.3927L39.8263 45.9776Z" fill="#383838"/>
<path d="M39.3386 46.2592L39.6314 46.0901L40.4484 47.5053L40.1556 47.6743L39.3386 46.2592Z" fill="#383838"/>
<path d="M38.8509 46.5407L39.1437 46.3717L39.9608 47.7868L39.668 47.9558L38.8509 46.5407Z" fill="#383838"/>
<path d="M38.3633 46.8223L38.6561 46.6532L39.4731 48.0684L39.1803 48.2374L38.3633 46.8223Z" fill="#383838"/>
<path fill-rule="evenodd" clip-rule="evenodd" d="M101.192 19.9609L102.597 18.6835L106.584 16.3817C106.867 16.2186 107.228 16.3154 107.391 16.598L108.373 18.2986C108.536 18.5811 108.439 18.9424 108.157 19.1056L104.17 21.4073L102.361 21.9857L101.192 19.9609ZM103.979 20.4213C104.232 20.2896 104.337 20.0002 104.219 19.796L104.033 19.474C103.909 19.2594 103.623 19.2097 103.37 19.3416C103.117 19.4734 103.012 19.7632 103.13 19.9669L103.316 20.289C103.44 20.5035 103.726 20.5531 103.979 20.4213ZM105.692 18.9457C105.81 19.1498 105.705 19.4392 105.452 19.5709C105.199 19.7028 104.913 19.6532 104.789 19.4387L104.603 19.1166C104.485 18.9129 104.59 18.623 104.843 18.4912C105.096 18.3594 105.382 18.4091 105.506 18.6236L105.692 18.9457ZM106.925 18.7206C107.178 18.5889 107.283 18.2994 107.165 18.0953L106.979 17.7732C106.855 17.5587 106.568 17.509 106.316 17.6408C106.063 17.7727 105.958 18.0625 106.076 18.2662L106.262 18.5883C106.386 18.8028 106.672 18.8524 106.925 18.7206Z" fill="#494E43"/>
<path d="M107.164 18.0955C107.282 18.2997 107.177 18.5891 106.924 18.7208C106.671 18.8527 106.385 18.8031 106.261 18.5885L106.075 18.2664C105.957 18.0628 106.062 17.7729 106.315 17.6411C106.568 17.5092 106.854 17.5589 106.978 17.7735L107.164 18.0955Z" stroke="#33372F" stroke-width="0.451982" stroke-miterlimit="3.99393"/>
<path d="M105.691 18.9459C105.809 19.1501 105.704 19.4395 105.451 19.5712C105.198 19.703 104.912 19.6534 104.788 19.4389L104.602 19.1168C104.484 18.9131 104.589 18.6233 104.842 18.4915C105.095 18.3596 105.381 18.4093 105.505 18.6239L105.691 18.9459Z" stroke="#33372F" stroke-width="0.451982" stroke-miterlimit="3.99393"/>
<path d="M104.218 19.7962C104.336 20.0004 104.231 20.2898 103.978 20.4215C103.725 20.5534 103.439 20.5038 103.315 20.2893L103.129 19.9671C103.011 19.7635 103.116 19.4736 103.369 19.3418C103.622 19.21 103.908 19.2597 104.032 19.4742L104.218 19.7962Z" stroke="#33372F" stroke-width="0.451982" stroke-miterlimit="3.99393"/>
<path fill-rule="evenodd" clip-rule="evenodd" d="M101.192 19.9609L102.597 18.6834L106.584 16.3817C106.867 16.2186 107.228 16.3154 107.391 16.598L108.373 18.2986C108.536 18.5812 108.439 18.9425 108.157 19.1057L104.17 21.4074L102.361 21.9857L101.192 19.9609Z" stroke="#33372F" stroke-width="0.903965" stroke-miterlimit="3.99393"/>
<path fill-rule="evenodd" clip-rule="evenodd" d="M37.0587 56.6464C36.9881 56.6872 36.8977 56.663 36.857 56.5924L36.2731 55.581C36.2323 55.5104 36.2565 55.4201 36.3271 55.3793L39.3205 53.6511C39.3911 53.6103 39.4814 53.6345 39.5222 53.7051L40.1061 54.7165C40.1469 54.7871 40.1227 54.8774 40.052 54.9182L37.0587 56.6464Z" fill="#474747" stroke="#333333" stroke-width="0.903965" stroke-miterlimit="3.99393"/>
<path fill-rule="evenodd" clip-rule="evenodd" d="M48.1935 50.2177C48.1228 50.2585 48.0325 50.2343 47.9917 50.1636L47.4078 49.1523C47.367 49.0817 47.3913 48.9914 47.4619 48.9506L50.4552 47.2224C50.5259 47.1816 50.6162 47.2058 50.657 47.2764L51.2409 48.2877C51.2817 48.3584 51.2574 48.4487 51.1868 48.4895L48.1935 50.2177Z" fill="#474747" stroke="#333333" stroke-width="0.903965" stroke-miterlimit="3.99393"/>
<path fill-rule="evenodd" clip-rule="evenodd" d="M35.5993 58.3384C35.5585 58.2678 35.5827 58.1774 35.6533 58.1367L36.6455 57.5638C36.7162 57.523 36.8065 57.5472 36.8473 57.6179L38.3323 60.1901C38.6377 60.719 38.8065 61.3158 38.8234 61.9264L38.885 64.1581L37.9727 64.3573L37.5497 61.7166L35.5993 58.3384Z" fill="#474C43" stroke="#333630" stroke-width="0.903965" stroke-miterlimit="3.99393" stroke-linecap="round"/>
<path fill-rule="evenodd" clip-rule="evenodd" d="M36.6615 68.0218C37.0406 64.8883 37.1644 65.7395 37.973 64.3567L38.8853 64.1574C39.5662 65.5382 39.9652 65.0527 39.6738 68.4074C38.879 69.1819 37.1282 68.8211 36.6615 68.0218Z" fill="#3F443C" stroke="#333630" stroke-width="0.903965" stroke-miterlimit="3.99393" stroke-linecap="round"/>
<path d="M39.442 45.3899L38.3393 46.0265C38.0387 46.2001 37.9356 46.5846 38.1092 46.8852L40.0627 50.2688C40.2363 50.5695 40.6208 50.6725 40.9214 50.4989L42.0241 49.8623C42.3248 49.6887 42.4278 49.3042 42.2542 49.0036L40.3007 45.62C40.1271 45.3193 39.7427 45.2163 39.442 45.3899Z" stroke="#333333" stroke-width="0.45198" stroke-miterlimit="3.99393" stroke-linecap="round"/>
<path d="M41.5817 50.369C42.2033 50.01 42.4163 49.2151 42.0574 48.5934C41.6985 47.9718 40.9036 47.7588 40.2819 48.1177C39.6602 48.4766 39.4472 49.2715 39.8061 49.8932C40.1651 50.5149 40.96 50.7279 41.5817 50.369Z" fill="#454545" stroke="#333333" stroke-width="0.45198" stroke-miterlimit="3.99393" stroke-linecap="round"/>
<path d="M25.356 56.7519C25.1844 56.4547 25.3013 56.0743 25.6102 55.9247L31.8576 52.9005C32.1363 52.7656 32.4718 52.8687 32.6266 53.1369L33.608 54.8367C33.7628 55.1048 33.6844 55.447 33.4282 55.6209L27.6854 59.5192C27.4015 59.7119 27.0136 59.623 26.842 59.3257L25.356 56.7519Z" stroke="#333333" stroke-width="0.903965" stroke-miterlimit="3.99393" stroke-linecap="round"/>
</g>
<defs>
<clipPath id="clip0_619_1188">
<rect width="110" height="110" fill="white"/>
</clipPath>
</defs>
</svg>
