<svg xmlns="http://www.w3.org/2000/svg" xml:space="preserve" width="114.336" height="102.734" fill="none" viewBox="0 0 114.336 102.734"><path d="m-6.654 40.922 79.655-12.436 7.362 12.05 3.747 16.41s.647.247-.052 1.55l-.132 4.31-6.866.22c-26.473 4.27-53.113 7.535-79.544 12.062-1.035-.94-4.17-34.166-4.17-34.166" style="display:inline;fill:#a8a8a8;fill-opacity:1;stroke:none;stroke-width:4;stroke-linecap:round;stroke-linejoin:miter;stroke-miterlimit:10.8;stroke-dasharray:none;stroke-opacity:1;paint-order:fill markers stroke" transform="rotate(-30 57.233 34.933)"/><path d="M82.048 58.844-1.48 71.206" style="display:inline;fill:none;fill-opacity:1;stroke:#838383;stroke-width:4;stroke-linecap:round;stroke-linejoin:miter;stroke-miterlimit:10.8;stroke-dasharray:none;stroke-opacity:1;paint-order:fill markers stroke" transform="rotate(-30 57.233 34.933)"/><path d="M-7.631 40.498 73 28.486l7.362 12.05 3.223 21.51L-3.028 75.16Z" style="display:inline;fill:none;fill-opacity:1;stroke:#211d1d;stroke-width:4;stroke-linecap:round;stroke-linejoin:miter;stroke-miterlimit:10.8;stroke-dasharray:none;stroke-opacity:1;paint-order:fill markers stroke" transform="rotate(-30 57.233 34.933)"/><path d="M-9.002 39.19 77.7 26.994l2.463 6.357-88.307 12.65Z" style="display:inline;fill:#c8a93b;fill-opacity:1;stroke:#30280d;stroke-width:4;stroke-linecap:round;stroke-linejoin:round;stroke-miterlimit:10.8;stroke-dasharray:none;stroke-opacity:1;paint-order:fill markers stroke" transform="rotate(-30 57.233 34.933)"/><path d="m68.504 32.586 5.597 18.791c8.352-.221 13.2.891 19.896 3.558l18.536-4.918-6.369-12.623-1.14-12.269-26.18 1.967c-2.238 3.926-4.769 5.294-10.34 5.494m19.858-1.97c1.64-3.58 7.314 2.165 9.298 5.383 2.35 3.809 4.074 7.434 2.125 11.152-1.985 3.784-6.899-3.195-9.686-7.854q-3.236-5.409-1.737-8.682" style="opacity:1;fill:#7c8124;fill-opacity:1;stroke:none;stroke-width:4;stroke-linecap:round;stroke-linejoin:round;stroke-miterlimit:10.8;stroke-dasharray:none;stroke-opacity:1;paint-order:fill markers stroke" transform="rotate(-30 57.233 34.933)"/><path d="m68.82 32.817 2.85 15.053 3.809 4.072c8.824-1.97 10.174-1.916 18.467 2.748.907-.152 3.149-1.489 5.128-2.062 2.442-.706 5.15.063 7.443.008 5.89-.864 8.577-5.151 3.343-5.79-5.213-16.994-6.751-4.413-4.343-22.064-8.63-1.097-17.975.504-26.775 1.808.25 3.442-1.606 4.858-9.921 6.227m19.996-2.887c3.639-1.256 13.07 12.92 11.406 16.093-2.559 4.88-15.365-9.383-11.406-16.093" style="opacity:1;fill:none;fill-opacity:1;stroke:#2e300d;stroke-width:4;stroke-linecap:round;stroke-linejoin:round;stroke-miterlimit:10.8;stroke-dasharray:none;stroke-opacity:1;paint-order:fill markers stroke" transform="rotate(-30 57.233 34.933)"/><g transform="matrix(.7715 -.63623 .6416 .76704 -9.799 33.297)"><ellipse cx="67.909" cy="52.096" rx="1.931" ry="1.916" style="fill:none;fill-opacity:1;stroke:#383300;stroke-width:2.00003;stroke-linecap:round;stroke-linejoin:round;stroke-miterlimit:10.8;stroke-dasharray:none;stroke-opacity:1;paint-order:fill markers stroke"/><ellipse cx="75.034" cy="51.931" rx="1.931" ry="1.916" style="fill:none;fill-opacity:1;stroke:#383300;stroke-width:2.00003;stroke-linecap:round;stroke-linejoin:round;stroke-miterlimit:10.8;stroke-dasharray:none;stroke-opacity:1;paint-order:fill markers stroke"/><ellipse cx="71.735" cy="57.89" rx="1.931" ry="1.916" style="fill:none;fill-opacity:1;stroke:#383300;stroke-width:2.00003;stroke-linecap:round;stroke-linejoin:round;stroke-miterlimit:10.8;stroke-dasharray:none;stroke-opacity:1;paint-order:fill markers stroke"/></g></svg>