<svg xmlns="http://www.w3.org/2000/svg" width="105.989" height="22.424" viewBox="0 0 28.043 5.933"><g style="fill:none" transform="matrix(1 0 0 1 159.022 -34.173)"><path d="M-137.138 36.551h5.684c.032 0 .056.03.056.065v1.679c0 .035-.024.064-.056.064h-5.684c-.032 0-.056-.03-.056-.064v-1.676c0-.036.024-.065.056-.065z" class="cls-12" style="fill:#414749;fill-opacity:1;stroke:#171717;stroke-width:.837684px;stroke-linecap:round;stroke-linejoin:round;stroke-opacity:1"/><path d="m-158.807 36.465.017 1.98h.611l.177-.24h8.122l-.017-1.452h-8.1l-.171-.288z" style="fill:#464b4e;fill-opacity:1;stroke:none;stroke-width:.79375;stroke-linejoin:round;stroke-dasharray:none;stroke-opacity:1"/><path d="M-158.704 38.71h3.89l-.019-2.51h-3.865z" style="fill:#303436;fill-opacity:1;stroke:none;stroke-width:.79375;stroke-linejoin:round;stroke-dasharray:none;stroke-opacity:1"/><path d="m-158.625 36.2.017 2.51h.611l.177-.241h8.122l-.017-1.98h-8.1l-.171-.289z" style="fill:none;fill-opacity:1;stroke:#161718;stroke-width:.79375;stroke-linejoin:round;stroke-dasharray:none;stroke-opacity:1"/><path d="m-150.074 36.269.017 2.373h1.502l-.018-2.373z" style="fill:#545b5e;fill-opacity:1;stroke:#161718;stroke-width:.79375;stroke-linejoin:round;stroke-dasharray:none;stroke-opacity:1"/><path d="m-138.461 35.698 1.018-1.122a.65.65 0 0 1 .525-.205l1.739.006c.306.011.325.654 0 .668h-1.546c-.174-.01-.306.028-.356.093l-.772.873z" style="fill:#464b4e;fill-opacity:1;stroke:#161718;stroke-width:.396875;stroke-dasharray:none;stroke-opacity:1"/><path d="M-148.866 35.834v3.089h1.3l2.545.529h10.504l1.15-.53v-3.087l-1.09-.53h-10.564l-2.515.529z" style="fill:#aeb2b7;fill-opacity:1;stroke:none;stroke-width:.79375;stroke-linecap:butt;stroke-linejoin:round;stroke-dasharray:none;stroke-opacity:1"/><path d="M-148.738 35.91V39h1.3l2.545.529h10.504l1.15-.53v-3.087l-1.09-.53h-10.564l-2.515.529z" style="fill:none;fill-opacity:1;stroke:#171717;stroke-width:.79375;stroke-linecap:butt;stroke-linejoin:round;stroke-dasharray:none;stroke-opacity:1"/><path d="M-127.947 54.197h-11.62" style="fill:#57574f;fill-opacity:1;stroke:#3d4042;stroke-width:1.32292;stroke-linecap:butt;stroke-linejoin:round;stroke-dasharray:none;stroke-opacity:1" transform="translate(-6.867 -16.742)"/><path d="M-139.444 53.53v1.334M-138.005 53.53v1.334M-136.563 53.53v1.334M-135.12 53.53v1.334M-133.679 53.53v1.334M-132.243 53.53v1.335M-130.8 53.53v1.335M-129.358 53.53v1.335M-127.916 53.53v1.335" style="fill:#57574f;fill-opacity:1;stroke:#242729;stroke-width:.79375;stroke-linecap:butt;stroke-linejoin:round;stroke-dasharray:none;stroke-opacity:1" transform="translate(-6.867 -16.742)"/><path d="M-133.782 36.832h-12.328v1.247h12.329z" style="fill:none;fill-opacity:1;stroke:#171717;stroke-width:.396875;stroke-linecap:butt;stroke-linejoin:miter;stroke-dasharray:none;stroke-opacity:1"/><path d="M-154.82 36.64v1.667" style="fill:#acb1b4;fill-opacity:1;stroke:#161718;stroke-width:.79375;stroke-dasharray:none;stroke-opacity:1"/><path d="M-147.754 36.735v1.44h2.104v-1.439z" style="fill:#464b4e;fill-opacity:1;stroke:#151719;stroke-width:.396875;stroke-linecap:butt;stroke-linejoin:round;stroke-dasharray:none;stroke-opacity:1"/><path d="M-146.85 36.753v1.404M-146.755 37.455h-1.19" style="fill:#161718;fill-opacity:1;stroke:#161718;stroke-width:.396875;stroke-dasharray:none;stroke-opacity:1"/><path d="M-135.511 36.735v1.44h2.103v-1.439z" style="fill:#464b4e;fill-opacity:1;stroke:#151719;stroke-width:.396875;stroke-linecap:butt;stroke-linejoin:round;stroke-dasharray:none;stroke-opacity:1"/><path d="M-139.359 38.964v.76h2.104v-.759zM-145.817 39.33v.578h1.045v-.578ZM-145.815 35.006v.578h1.045v-.577z" style="fill:#42484b;fill-opacity:1;stroke:#151719;stroke-width:.396875;stroke-linecap:butt;stroke-linejoin:round;stroke-dasharray:none;stroke-opacity:1"/><path d="M-134.608 36.753v1.404M-134.512 37.455h-1.19" style="fill:#161718;fill-opacity:1;stroke:#161718;stroke-width:.396875;stroke-dasharray:none;stroke-opacity:1"/><circle cx="-149.416" cy="36.154" r=".583" style="fill:#303436;fill-opacity:1;stroke:#151619;stroke-width:.529167;stroke-linecap:round;stroke-linejoin:round;stroke-dasharray:none;stroke-opacity:1"/></g></svg>