<?xml version="1.0" encoding="UTF-8" standalone="no"?>
<svg
   width="119.42368"
   height="47.176876"
   viewBox="0 0 119.42368 47.176876"
   fill="none"
   version="1.1"
   id="svg71"
   xmlns="http://www.w3.org/2000/svg"
   xmlns:svg="http://www.w3.org/2000/svg">
  <g
     clip-path="url(#clip0_2940_3889)"
     id="g71"
     transform="rotate(15,189.86238,54.937699)">
    <path
       d="m 61.0508,49.916 1.5625,-0.9021 1.2208,2.1146 -1.5625,0.9021 z"
       fill="#4d4d4d"
       stroke="#333333"
       stroke-width="0.882654"
       id="path1" />
    <path
       d="m 46.5321,58.4542 0.9893,-0.5712 -0.3778,-0.6544 -0.9893,0.5712 z"
       fill="#666666"
       stroke="#333333"
       stroke-width="0.441327"
       id="path2" />
    <rect
       x="46.464802"
       y="58.336899"
       width="16.131399"
       height="0.62449503"
       transform="rotate(-30,46.4648,58.3369)"
       fill="#404040"
       stroke="#333333"
       stroke-width="0.441327"
       id="rect2" />
    <path
       d="m 50.4387,43.9084 -5.525,3.1899 -3.1525,3.2932 -11.1331,6.5869 -0.2125,0.0112 -2.6612,1.5262 -0.4946,-0.0114 -0.5239,0.2941 -0.1566,0.214 -0.9186,0.5398 -0.6979,0.2316 -4.4254,2.548 1.802,3.1211 4.4194,-2.5585 0.5494,-0.4886 0.9268,-0.5256 0.2637,-0.0287 0.5165,-0.3066 0.2375,-0.4341 2.6523,-1.5415 0.116,-0.1784 11.271,-6.3481 4.4282,-1.0835 5.525,-3.1899 z"
       fill="#4d4d4d"
       id="path3" />
    <path
       d="m 44.9113,47.0989 c 0.5108,1.8659 1.3685,3.4109 2.8067,4.8609 l -4.4282,1.0836 -1.5309,-2.6515 z"
       fill="#404040"
       id="path4" />
    <path
       d="m 29.1366,61.3186 -1.6212,-2.8079 -0.2583,-0.0059 -0.5238,0.294 -0.1375,0.1878 1.6688,2.8905 0.2314,-0.0251 0.5166,-0.3067 z"
       fill="#595959"
       id="path5" />
    <path
       d="M 52.3124,49.3073 53.2432,48.77 50.4366,43.9089 49.5059,44.4463 Z"
       fill="#404040"
       id="path6" />
    <path
       d="m 23.1846,64.9637 -1.8008,-3.1192 -0.8467,0.4875 1.802,3.1212 z"
       fill="#595959"
       id="path7" />
    <path
       d="m 51.845,46.3378 -1.4065,-2.4286 -5.525,3.1899 -3.1525,3.2931 -11.1331,6.587 -0.2125,0.0112 -2.6611,1.5262 -0.4946,-0.0114 -0.5239,0.294 -0.1567,0.214 -0.9185,0.5398 -0.6979,0.2316 -4.4254,2.548 0.8972,1.5628 0.9048,1.5584 4.4193,-2.5586 0.5495,-0.4885 0.9268,-0.5256 0.2637,-0.0287 0.5165,-0.3067 0.2374,-0.434 2.6524,-1.5415 0.1159,-0.1784 11.271,-6.3481 4.4282,-1.0836 5.5251,-3.1899 z"
       stroke="#333333"
       stroke-width="0.882654"
       stroke-miterlimit="29"
       id="path8" />
    <path
       d="m 32.5246,64.7494 -4.2785,-7.4105 2.5539,-1.4746 3.2239,5.5839 c 0.299,0.4994 0.8557,0.6052 1.4935,0.2479 l 4.9739,-2.8717 c 0.7428,-0.409 1.018,-0.9929 0.6884,-1.566 l -3.195,-5.534 2.4113,-1.3921 4.2749,7.4044"
       fill="#666666"
       id="path9" />
    <path
       d="m 32.5246,64.7494 -4.2785,-7.4105 2.5539,-1.4746 3.2239,5.5839 c 0.299,0.4994 0.8557,0.6052 1.4935,0.2479 l 4.9739,-2.8717 c 0.7428,-0.409 1.018,-0.9929 0.6884,-1.566 l -3.195,-5.534 2.4113,-1.3921 4.2749,7.4044"
       stroke="#333333"
       stroke-width="0.882655"
       id="path10" />
    <path
       d="m 32.5246,64.7494 -4.2785,-7.4105 2.5539,-1.4746 3.2239,5.5839 c 0.299,0.4994 0.8557,0.6052 1.4935,0.2479 l 4.9739,-2.8717 c 0.7428,-0.409 1.018,-0.9929 0.6884,-1.566 l -3.195,-5.534 2.4113,-1.3921 4.2749,7.4044"
       fill="#666666"
       id="path11" />
    <path
       d="m 56.9398,48.8115 0.5431,0.9408 -1.4493,0.8372 -0.5434,-0.9411 z"
       fill="#3b3b3b"
       id="path12" />
    <path
       d="m 54.7812,50.0566 3.3892,-1.9567 0.543,0.9405 -3.3887,1.9575 z"
       fill="#404040"
       id="path13" />
    <path
       d="m 56.6726,50.0383 c 0.1934,-0.1117 0.2597,-0.359 0.148,-0.5524 -0.1116,-0.1935 -0.359,-0.2597 -0.5524,-0.1481 -0.1934,0.1117 -0.2597,0.359 -0.148,0.5525 0.1117,0.1934 0.359,0.2597 0.5524,0.148 z"
       fill="#363636"
       id="path14" />
    <path
       d="m 56.9398,48.8115 0.5431,0.9408 -1.4493,0.8372 -0.5434,-0.9411 z"
       stroke="#333333"
       stroke-width="0.441326"
       id="path15" />
    <path
       d="m 54.7812,50.0566 3.3892,-1.9567 0.543,0.9405 -3.3887,1.9575 z"
       stroke="#333333"
       stroke-width="0.441326"
       id="path16" />
    <path
       d="m 59.3678,47.409 0.7983,1.3827 -1.1979,0.6916 -0.7983,-1.3827 z"
       fill="#4d4d4d"
       stroke="#333333"
       stroke-width="0.441326"
       id="path17" />
    <path
       d="m 30.8008,65.7448 -0.4958,-0.8635 -6.9495,4.0123 0.4979,0.8623 z"
       fill="#404040"
       stroke="#333333"
       stroke-width="0.441326"
       id="path18" />
    <path
       fill-rule="evenodd"
       clip-rule="evenodd"
       d="m 60.6041,48.538 1.5216,2.6355 -18.602,10.7447 -16.2587,9.3089 C 26.6565,70.173 26.3681,69.6736 25.5333,70.1554 l -4.4015,2.5228 -0.5849,-1.0132 z m -13.8847,8.9609 3.057,-1.765 c 0.2626,-0.1516 0.5954,-0.0668 0.7433,0.1894 0.1479,0.2563 0.055,0.5868 -0.2076,0.7384 l -3.057,1.765 c -0.2625,0.1516 -0.5953,0.0668 -0.7433,-0.1894 -0.1479,-0.2562 -0.0549,-0.5868 0.2076,-0.7384 z m 8.0737,-4.6489 -3.057,1.7649 c -0.2626,0.1516 -0.3555,0.4822 -0.2076,0.7384 0.148,0.2563 0.4807,0.3411 0.7433,0.1895 l 3.057,-1.765 c 0.2626,-0.1516 0.3555,-0.4822 0.2076,-0.7384 -0.1479,-0.2562 -0.4807,-0.341 -0.7433,-0.1894 z m 2.2636,-1.3104 2.4902,-1.4377 c 0.2626,-0.1516 0.5974,-0.0633 0.7478,0.1972 0.1504,0.2605 0.0594,0.5945 -0.2031,0.7461 l -2.4902,1.4378 c -0.2626,0.1516 -0.5974,0.0633 -0.7478,-0.1972 -0.1504,-0.2606 -0.0595,-0.5946 0.2031,-0.7462 z"
       fill="#55454f"
       id="path19" />
    <path
       d="m 60.6041,48.538 1.5216,2.6355 -18.602,10.7447 -16.2587,9.3089 C 26.6565,70.173 26.3681,69.6736 25.5333,70.1554 l -4.4015,2.5228 -0.5849,-1.0132 z"
       stroke="#382e35"
       stroke-width="0.882654"
       id="path20" />
    <path
       d="m 20.3179,61.6941 -4.2003,0.5157 0.0269,0.219 4.2003,-0.5157 z"
       fill="#404040"
       stroke="#333333"
       stroke-width="0.441327"
       id="path21" />
    <path
       d="m 50.065,43.2632 0.3725,0.6454 -1.3911,0.8031 0.6542,-1.2381 z"
       fill="#474747"
       stroke="#333333"
       stroke-width="0.441188"
       id="path22" />
    <path
       d="m 21.9066,61.5432 -1.3671,-0.0514 -0.3676,0.2123 0.363,0.6288 z"
       fill="#454545"
       stroke="#333333"
       stroke-width="0.441188"
       id="path23" />
    <path
       d="m 35.166,51.1426 -0.243,-0.421 -2.11,1.2182 0.243,0.421 -0.295,0.1703 1.2795,2.2237 -0.1174,0.4305 1.5058,2.6057 0.2042,0.0422 2.9837,-1.7226 0.0655,-0.1979 -1.5037,-2.607 -0.4316,-0.1136 -1.2859,-2.2198 z"
       fill="#4d4d4d"
       id="path24" />
    <path
       d="m 26.9319,64.5123 -2.7678,1.5981 0.4301,0.7171 0.4653,-0.2687 2.2905,-1.3224 z"
       fill="#4d4d4d"
       id="path25" />
    <path
       d="m 23.2324,65.8545 0.7615,1.3189 0.6014,-0.3472 -0.7835,-1.3062 z"
       fill="#404040"
       id="path26" />
    <path
       d="m 23.027,68.3157 0.3332,0.5772 3.3348,-1.9254 -0.2632,-0.4559 -1.1987,0.692 -0.1711,-0.6439 -1.0667,0.6159 -1.0477,0.6049 z"
       fill="#4d4d4d"
       stroke="#333333"
       stroke-width="0.441327"
       id="path27" />
    <path
       d="m 23.2324,65.8545 0.7615,1.3189 1.0667,-0.6158 2.2905,-1.3225 -0.418,-0.724 -2.7679,1.598 -0.3534,-0.5891 z"
       stroke="#333333"
       stroke-width="0.441327"
       id="path28" />
    <path
       d="m 42.8636,65.7495 c 0.3214,1.3259 1.2041,2.4748 1.6206,2.829 0.1651,0.1404 0.2555,0.1341 0.0536,-0.1158 -0.8164,-1.0467 -0.9307,-2.1386 -0.8204,-3.2026 z"
       fill="#403a3e"
       stroke="#382e35"
       stroke-width="0.441327"
       id="path29" />
    <path
       d="m 47.0088,64.3739 c 0.0192,0.0104 0.0386,0.0212 0.0582,0.0327 l 0.3508,-0.2072 0.2901,0.4986 c 0.1647,0.2749 0.3188,0.5322 0.4445,0.7708 0.17,0.3229 0.3017,0.636 0.3406,0.9445 0.0399,0.3179 -0.02,0.6227 -0.2151,0.9194 -0.19,0.2889 -0.4997,0.5683 -0.947,0.8429 l -4.0825,2.357 -0.0613,-0.1057 c 0.0529,-0.0843 0.1094,-0.1448 0.1578,-0.1767 l -0.1227,-0.2125 3.8835,-2.2521 c 0.4145,-0.2548 0.664,-0.4834 0.8036,-0.6954 0.1347,-0.2047 0.1731,-0.4035 0.1457,-0.6221 -0.0288,-0.2282 -0.1304,-0.4846 -0.2931,-0.7937 -0.12,-0.2278 -0.2658,-0.4711 -0.4289,-0.7433 z"
       fill="#484146"
       stroke="#382e35"
       stroke-width="0.441327"
       id="path30" />
    <path
       d="m 21.9128,82.4938 8.4077,-6.484 4.3527,5.5286 -8.6663,6.7219 c -1.0821,-2.0695 -2.2528,-3.5062 -3.6596,-5.2325 -0.1424,-0.1747 -0.2872,-0.3524 -0.4345,-0.534 z"
       fill="#474747"
       id="path31" />
    <path
       d="m 33.6145,82.358 -7.6106,5.9032 c -0.1458,-0.2787 -0.2932,-0.546 -0.4425,-0.8041 l 7.5188,-5.7847 z"
       fill="#404040"
       stroke="#333333"
       stroke-width="0.441188"
       id="path32" />
    <path
       d="m 21.9128,82.4938 8.4077,-6.484 0.509,0.6465 -8.3516,6.5319 -0.1306,-0.1604 c -0.1424,-0.1747 -0.2872,-0.3524 -0.4345,-0.534 z"
       fill="#404040"
       id="path33" />
    <path
       d="m 22.3473,83.0278 c -0.1424,-0.1747 -0.2872,-0.3524 -0.4345,-0.534 l 8.4077,-6.484 0.509,0.6465 -8.3516,6.5319 m -0.1306,-0.1604 c 0.0437,0.0537 0.0873,0.1072 0.1306,0.1604 m -0.1306,-0.1604 0.1306,0.1604"
       stroke="#333333"
       stroke-width="0.441327"
       id="path34" />
    <path
       d="m 21.9128,82.4938 8.4077,-6.484 4.3527,5.5286 -8.6663,6.7219 c -1.0821,-2.0695 -2.2528,-3.5062 -3.6596,-5.2325 -0.1424,-0.1747 -0.2872,-0.3524 -0.4345,-0.534 z"
       stroke="#333333"
       stroke-width="0.882654"
       id="path35" />
    <rect
       x="63.8535"
       y="52.3428"
       width="0.58465201"
       height="0.44309101"
       transform="rotate(-30,63.8535,52.3428)"
       fill="#3b3b3b"
       stroke="#333333"
       stroke-width="0.441327"
       id="rect35" />
    <rect
       x="61.347698"
       y="48.004902"
       width="0.58465201"
       height="0.44309101"
       transform="rotate(-30,61.3477,48.0049)"
       fill="#3b3b3b"
       stroke="#333333"
       stroke-width="0.441327"
       id="rect36" />
    <path
       d="m 104.208,22.0663 -42.8662,24.7491 3.76,6.5126 42.8662,-24.7491 z"
       fill="#404040"
       stroke="#333333"
       stroke-width="0.882654"
       id="path36" />
    <path
       d="m 105.271,21.2878 -1.132,0.6536 0.072,0.125 3.76,6.5126 0.072,0.1254 1.132,-0.6536 z"
       fill="#383838"
       stroke="#333333"
       stroke-width="0.882654"
       id="path37" />
    <path
       d="M 27.2655,71.2258 C 26.6569,70.1717 26.3687,69.6725 25.534,70.1543 l -8.0583,4.6094 c -0.2948,0.1536 -0.5102,0.5805 -0.2512,1.0316 l 0.8646,1.5483 c 0.2154,0.3731 0.5215,0.2802 1.0516,-0.0258 l 7.8539,-4.5345 c 0.5562,-0.3098 0.7519,-0.6889 0.271,-1.5574 z"
       fill="#41353f"
       stroke="#382e35"
       stroke-width="0.882655"
       id="path38" />
    <path
       d="m 5.93083,84.3647 c -1e-5,0 -2e-5,0 -3e-5,-1e-4 L 18.092,77.3434 c 0.2154,0.3731 0.5215,0.2803 1.0515,-0.0258 l 7.8539,-4.5344 c 0.5563,-0.3099 0.752,-0.689 0.271,-1.5575 L 62.0266,51.3251 63.62,54.0849 30.8163,72.9236 c -0.6696,0.3539 -1.1248,0.9294 -0.6348,1.6454 l 0.6819,1.0227 -9.2384,7.1247 -0.6698,0.3515 c -1.8453,-1.7858 -6.4011,0.6935 -5.4297,6.5076 0.0863,0.673 -0.1344,0.735 -0.5711,0.9723 l -2.8689,1.6623 C 9.51124,89.8264 7.54818,87.184 5.93083,84.3647 Z"
       fill="#595959"
       id="path39" />
    <path
       d="m 36.0404,69.9243 -1.4623,0.8443 c 1.4251,-0.7597 3.8375,-1.3448 4.374,1.4511 l 0.8314,6.4552 c 0.0275,0.2763 0.0861,0.4724 0.4468,0.3544 l 4.367,-1.3716 c 0.4457,-0.1321 0.4379,-0.2409 0.3442,-0.5831 L 43.0968,71.622 c -0.2409,-0.7041 0.065,-1.2482 0.251,-1.3707 l -1.9613,-3.3972 z"
       fill="#404040"
       stroke="#333333"
       stroke-width="0.882655"
       id="path40" />
    <path
       d="m 7.58594,87.001 c 1.27097,1.8396 2.74186,3.5849 4.49686,5.21 l 2.869,-1.6623 c 0.0314,-0.0171 0.0618,-0.0332 0.0909,-0.0488 0.3759,-0.2006 0.5602,-0.299 0.4801,-0.9235 -0.9714,-5.8141 3.5845,-8.2934 5.4297,-6.5076 l 0.6698,-0.3515 9.2384,-7.1247 -0.6819,-1.0227 c -0.1194,-0.1745 -0.1827,-0.3406 -0.2004,-0.4972 z"
       fill="#4d4d4d"
       id="path41" />
    <path
       d="M 18.092,77.3434 5.9308,84.3646 c 1.61735,2.8194 3.58043,5.4618 6.1547,7.8455 l 2.8689,-1.6623 c 0.4367,-0.2373 0.6574,-0.2993 0.5711,-0.9723 -0.9714,-5.8141 3.5844,-8.2934 5.4297,-6.5076 l 0.6698,-0.3515 9.2384,-7.1247 -0.682,-1.0227 c -0.4899,-0.716 -0.0347,-1.2915 0.6349,-1.6454 L 63.62,54.0849 62.0266,51.3251 27.2684,71.2257 c 0.481,0.8685 0.2853,1.2476 -0.271,1.5575 l -7.8539,4.5344 c -0.53,0.3061 -0.8361,0.3989 -1.0515,0.0258 z m 0,0 -12.41674,7.1688"
       stroke="#333333"
       stroke-width="0.882655"
       id="path42" />
    <path
       d="M 4.15354,81.8817 5.67365,84.513 5.9292,84.3655 c 1.61735,2.8193 3.58042,5.4616 6.1547,7.8454 -0.2566,0.1488 -0.4959,0.2849 -0.721,0.413 -1.1912,0.6776 -1.98616,1.1299 -2.85972,2.036 C 8.37491,94.793 8.03242,95.0865 7.9438,95.1343 7.50569,95.3753 7.43664,95.3442 7.4062,94.8371 6.98471,90.0627 5.17424,86.4909 1.62206,83.7762 1.37725,83.6465 1.36425,83.5044 1.62995,83.3381 Z"
       fill="#4d4d4d"
       id="path43" />
    <path
       d="m 10.1672,93.3272 c 0.3602,-0.2264 0.7508,-0.4489 1.1974,-0.7028 0.225,-0.1284 0.4642,-0.2645 0.7208,-0.4132 C 9.5113,89.8276 7.54824,87.1853 5.93079,84.3658 L 5.67521,84.5133 4.15513,81.882 3.00899,82.5437 c 0.90113,4.0796 4.03883,8.0518 7.15821,10.7835 z"
       fill="#404040"
       id="path44" />
    <path
       d="M 4.15354,81.8817 5.67365,84.513 5.9292,84.3655 c 1.61735,2.8193 3.58042,5.4616 6.1547,7.8454 -0.2566,0.1488 -0.4959,0.2849 -0.721,0.413 -1.1912,0.6776 -1.98616,1.1299 -2.85972,2.036 C 8.37491,94.793 8.03242,95.0865 7.9438,95.1343 7.50569,95.3753 7.43664,95.3442 7.4062,94.8371 6.98471,90.0627 5.17424,86.4909 1.62206,83.7762 1.37725,83.6465 1.36425,83.5044 1.62995,83.3381 Z"
       stroke="#333333"
       stroke-width="0.882655"
       id="path45" />
    <path
       d="m 43.5248,61.9166 c -0.1962,0.1133 -0.2245,0.2091 -0.1443,0.3483 l 1.5173,2.6279 0.7469,-0.4264 c 0.4659,-0.2728 0.8768,-0.3792 1.4234,-0.0602 l 16.9283,-9.9948 -1.8702,-3.2392 z"
       fill="#474747"
       id="path46" />
    <path
       d="m 35.6215,51.2462 -2.7009,1.5593 1.1215,1.949 -0.0626,0.2295 2.9991,-1.7316 -0.23,-0.0605 z"
       fill="#595959"
       id="path47" />
    <path
       d="m 36.8769,56.5405 c 0.6287,-0.363 0.8441,-1.167 0.4811,-1.7957 -0.363,-0.6288 -1.167,-0.8442 -1.7957,-0.4812 -0.6288,0.363 -0.8442,1.167 -0.4812,1.7958 0.363,0.6287 1.167,0.8441 1.7958,0.4811 z"
       fill="#595959"
       stroke="#333333"
       stroke-width="0.441326"
       stroke-miterlimit="29"
       id="path48" />
    <path
       fill-rule="evenodd"
       clip-rule="evenodd"
       d="m 35.8589,54.7775 c -0.3492,0.2016 -0.4689,0.6482 -0.2673,0.9974 0.2016,0.3492 0.6482,0.4688 0.9974,0.2672 0.3492,-0.2016 0.4689,-0.6481 0.2672,-0.9973 -0.2016,-0.3493 -0.6481,-0.4689 -0.9973,-0.2673 z m 0.0194,0.8319 c -0.1102,-0.1909 -0.0448,-0.435 0.1461,-0.5452 0.1909,-0.1103 0.435,-0.0448 0.5452,0.1461 0.1102,0.1909 0.0448,0.435 -0.1461,0.5452 -0.1909,0.1102 -0.435,0.0448 -0.5452,-0.1461 z"
       fill="#4d4d4d"
       id="path49" />
    <path
       d="m 35.1689,51.1377 -0.2459,-0.4161 -2.11,1.2182 0.2374,0.421 -0.2894,0.1703 1.2795,2.2237 -0.1174,0.4305 1.5058,2.6057 0.2042,0.0422 2.9837,-1.7226 0.0655,-0.1979 -1.5037,-2.607 -0.4316,-0.1136 -1.2859,-2.2198 z"
       stroke="#333333"
       stroke-width="0.441327"
       stroke-miterlimit="29"
       id="path50" />
    <path
       d="m 33.2989,60.1943 7.181,-4.146 z"
       fill="#999999"
       id="path51" />
    <path
       fill-rule="evenodd"
       clip-rule="evenodd"
       d="m 40.4799,56.0483 0.6993,1.2112 c 0.3296,0.5731 0.0544,1.157 -0.6884,1.566 l -4.9739,2.8717 c -0.6378,0.3574 -1.1945,0.2516 -1.4935,-0.2479 l -0.7245,-1.255 z M 37.903,59.768 c 0.3786,-0.2186 0.5083,-0.7028 0.2897,-1.0814 -0.2186,-0.3787 -0.7028,-0.5084 -1.0814,-0.2898 -0.3786,0.2186 -0.5084,0.7028 -0.2898,1.0814 0.2186,0.3787 0.7028,0.5084 1.0815,0.2898 z m -2.0424,1.2274 c 0.3787,-0.2186 0.5084,-0.7028 0.2898,-1.0814 -0.2186,-0.3787 -0.7028,-0.5084 -1.0814,-0.2898 -0.3787,0.2186 -0.5084,0.7028 -0.2898,1.0814 0.2186,0.3787 0.7028,0.5084 1.0814,0.2898 z m 4.2769,-3.4252 c 0.2186,0.3787 0.0889,0.8628 -0.2898,1.0814 -0.3786,0.2187 -0.8628,0.0889 -1.0814,-0.2897 -0.2186,-0.3787 -0.0889,-0.8628 0.2898,-1.0814 0.3786,-0.2187 0.8628,-0.0889 1.0814,0.2897 z"
       fill="#999999"
       id="path52" />
    <path
       d="m 33.2989,60.1943 0.7261,1.2577 m -0.7261,-1.2577 7.181,-4.146 m -7.181,4.146 0.7245,1.255 c 0.299,0.4995 0.8557,0.6053 1.4935,0.2479 l 4.9739,-2.8717 c 0.7428,-0.409 1.018,-0.9929 0.6884,-1.566 l -0.6993,-1.2112 m 0,0 0.7261,1.2577 m -3.0133,1.3806 c 0.2186,0.3786 0.0889,0.8628 -0.2897,1.0814 -0.3787,0.2186 -0.8629,0.0889 -1.0815,-0.2898 -0.2186,-0.3786 -0.0888,-0.8628 0.2898,-1.0814 0.3786,-0.2186 0.8628,-0.0889 1.0814,0.2898 z m -2.0423,1.2274 c 0.2186,0.3786 0.0889,0.8628 -0.2898,1.0814 -0.3786,0.2186 -0.8628,0.0889 -1.0814,-0.2898 -0.2186,-0.3786 -0.0889,-0.8628 0.2898,-1.0814 0.3786,-0.2186 0.8628,-0.0889 1.0814,0.2898 z m 3.6973,-1.2624 c 0.3787,-0.2186 0.5084,-0.7027 0.2898,-1.0814 -0.2186,-0.3786 -0.7028,-0.5084 -1.0814,-0.2897 -0.3787,0.2186 -0.5084,0.7027 -0.2898,1.0814 0.2186,0.3786 0.7028,0.5084 1.0814,0.2897 z"
       stroke="#333333"
       stroke-width="0.441327"
       id="path53" />
    <path
       d="M 9.26992,89.2295 C 8.76609,88.6191 8.29057,87.996 7.83984,87.3613 l 0.7805,-0.4506 1.38606,1.8936 z"
       fill="#999999"
       stroke="#333333"
       stroke-width="0.441326"
       id="path54" />
    <path
       d="m 46.789,60.1951 0.5962,1.0326 c 0.1955,0.392 0.4897,0.5172 0.9885,0.2058 l 12.1439,-7.0123 c 0.56,-0.3218 0.5315,-0.8394 0.3844,-1.1116 l -0.5533,-0.9744 z"
       fill="#3d3d3d"
       id="path55" />
    <path
       d="m 40.3977,50.3334 -2.4114,1.3922 1.0345,1.7918 2.4114,-1.3922 z"
       fill="#595959"
       stroke="#333333"
       stroke-width="0.441327"
       id="path56" />
    <path
       d="m 30.8,55.8643 -2.5539,1.4746 1.038,1.7979 2.554,-1.4745 z"
       fill="#595959"
       stroke="#333333"
       stroke-width="0.441327"
       id="path57" />
    <path
       d="m 28.5041,67.8277 -1.5451,0.892 0.5566,0.9641 1.5448,-0.8933 -0.0779,-0.1346 11.7122,-6.7715 -0.3966,-0.6865 -11.7163,6.7644 z"
       fill="#808080"
       stroke="#333333"
       stroke-width="0.441327"
       id="path58" />
    <path
       d="m 40.1895,61.0078 0.6172,1.0686 1.702,-0.984 -0.6164,-1.0677 z"
       fill="#4d4d4d"
       stroke="#333333"
       stroke-width="0.441327"
       id="path59" />
    <path
       d="m 43.5248,61.9166 c -0.1962,0.1133 -0.2245,0.2091 -0.1443,0.3483 l 1.5173,2.6279 0.7469,-0.4264 c 0.4659,-0.2728 0.8768,-0.3792 1.4234,-0.0602 l 16.9283,-9.9948 -1.8702,-3.2392 z"
       stroke="#333333"
       stroke-width="0.882655"
       id="path60" />
    <path
       d="m 45.3968,63.8039 c 0.4031,-0.2327 0.5412,-0.7481 0.3085,-1.1512 -0.2327,-0.4031 -0.7481,-0.5412 -1.1512,-0.3085 -0.4031,0.2328 -0.5412,0.7482 -0.3085,1.1513 0.2327,0.4031 0.7481,0.5412 1.1512,0.3084 z"
       fill="#404040"
       stroke="#333333"
       stroke-width="0.441326"
       id="path61" />
    <path
       d="m 59.1759,48.3815 c 0.0696,-0.0402 0.0934,-0.1292 0.0532,-0.1989 -0.0402,-0.0696 -0.1292,-0.0934 -0.1988,-0.0532 -0.0696,0.0402 -0.0934,0.1292 -0.0532,0.1988 0.0402,0.0696 0.1292,0.0934 0.1988,0.0533 z"
       fill="#3b3b3b"
       id="path62" />
    <path
       d="m 42.8302,57.4079 c 0.304,-0.1755 0.4081,-0.5641 0.2326,-0.868 -0.1754,-0.3039 -0.5641,-0.4081 -0.868,-0.2326 -0.3039,0.1755 -0.408,0.5641 -0.2326,0.868 0.1755,0.3039 0.5641,0.408 0.868,0.2326 z"
       fill="#404040"
       id="path63" />
    <path
       d="m 33.1994,62.9635 c 0.3039,-0.1754 0.408,-0.564 0.2326,-0.868 -0.1755,-0.3039 -0.5641,-0.408 -0.868,-0.2325 -0.304,0.1754 -0.4081,0.564 -0.2326,0.868 0.1755,0.3039 0.5641,0.408 0.868,0.2325 z"
       fill="#404040"
       id="path64" />
    <path
       d="M 8.38237,86.0941 C 8.85033,85.8239 9.01067,85.2256 8.74049,84.7576 8.47031,84.2896 7.87193,84.1293 7.40397,84.3995 6.936,84.6696 6.77566,85.268 7.04584,85.736 c 0.27018,0.468 0.86856,0.6283 1.33653,0.3581 z"
       fill="#404040"
       stroke="#333333"
       stroke-width="0.441326"
       id="path65" />
    <path
       d="m 21.3367,70.8223 0.6847,1.186 c 0.0452,0.0783 0.0136,0.1481 -0.0701,0.196 l -4.4744,2.5594 c -0.2948,0.1537 -0.5102,0.5805 -0.2512,1.0316 L 18.0903,77.3436 5.67356,84.5124 4.15768,81.8885 C 3.92036,81.4774 3.89886,80.8757 4.33128,80.6257 Z"
       fill="#474747"
       stroke="#333333"
       stroke-width="0.882655"
       id="path66" />
    <path
       d="m 49.7785,55.734 -3.057,1.765 c -0.2626,0.1515 -0.3555,0.4821 -0.2076,0.7384 0.148,0.2562 0.4807,0.341 0.7433,0.1894 l 3.057,-1.765 c 0.2626,-0.1516 0.3555,-0.4822 0.2076,-0.7384 -0.1479,-0.2562 -0.4807,-0.341 -0.7433,-0.1894 z"
       stroke="#382e35"
       stroke-width="0.441326"
       id="path67" />
    <path
       d="m 54.7942,52.8492 -3.0571,1.765 c -0.2625,0.1516 -0.3555,0.4822 -0.2075,0.7384 0.1479,0.2562 0.4807,0.341 0.7432,0.1894 l 3.057,-1.7649 c 0.2626,-0.1516 0.3555,-0.4822 0.2076,-0.7384 -0.1479,-0.2563 -0.4807,-0.3411 -0.7432,-0.1895 z"
       stroke="#382e35"
       stroke-width="0.441326"
       id="path68" />
    <path
       d="m 59.5477,50.1003 -2.4902,1.4377 c -0.2626,0.1516 -0.3535,0.4857 -0.2031,0.7462 0.1504,0.2605 0.4851,0.3488 0.7477,0.1972 l 2.4902,-1.4377 c 0.2626,-0.1516 0.3535,-0.4857 0.2031,-0.7462 -0.1504,-0.2605 -0.4852,-0.3488 -0.7477,-0.1972 z"
       stroke="#382e35"
       stroke-width="0.441326"
       id="path69" />
    <path
       d="m 53.6394,38.5032 -3.6823,4.8866 0.1762,0.1328 3.6823,-4.8866 z"
       fill="#404040"
       stroke="#333333"
       stroke-width="0.441327"
       id="path70" />
    <path
       d="m 40.2998,61.2 -0.9424,0.5441 0.3964,0.6866 0.9423,-0.5448 z"
       fill="#404040"
       stroke="#333333"
       stroke-width="0.441326"
       id="path71" />
  </g>
  <defs
     id="defs71">
    <clipPath
       id="clip0_2940_3889">
      <rect
         width="110"
         height="110"
         fill="#ffffff"
         id="rect71"
         x="0"
         y="0" />
    </clipPath>
  </defs>
</svg>
