<svg width="110" height="110" viewBox="0 0 110 110" fill="none" xmlns="http://www.w3.org/2000/svg">
<g clip-path="url(#clip0_2940_3889)">
<path d="M61.0508 49.916L62.6133 49.0139L63.8341 51.1285L62.2716 52.0306L61.0508 49.916Z" fill="#4D4D4D" stroke="#333333" stroke-width="0.882654"/>
<path d="M46.5321 58.4542L47.5214 57.883L47.1436 57.2286L46.1543 57.7998L46.5321 58.4542Z" fill="#666666" stroke="#333333" stroke-width="0.441327"/>
<rect x="46.4648" y="58.3369" width="16.1314" height="0.624495" transform="rotate(-30 46.4648 58.3369)" fill="#404040" stroke="#333333" stroke-width="0.441327"/>
<path d="M50.4387 43.9084L44.9137 47.0983L41.7612 50.3915L30.6281 56.9784L30.4156 56.9896L27.7544 58.5158L27.2598 58.5044L26.7359 58.7985L26.5793 59.0125L25.6607 59.5523L24.9628 59.7839L20.5374 62.3319L22.3394 65.453L26.7588 62.8945L27.3082 62.4059L28.235 61.8803L28.4987 61.8516L29.0152 61.545L29.2527 61.1109L31.905 59.5694L32.021 59.391L43.292 53.0429L47.7202 51.9594L53.2452 48.7695L50.4387 43.9084Z" fill="#4D4D4D"/>
<path d="M44.9113 47.0989C45.4221 48.9648 46.2798 50.5098 47.718 51.9598L43.2898 53.0434L41.7589 50.3919L44.9113 47.0989Z" fill="#404040"/>
<path d="M29.1366 61.3186L27.5154 58.5107L27.2571 58.5048L26.7333 58.7988L26.5958 58.9866L28.2646 61.8771L28.496 61.852L29.0126 61.5453L29.1366 61.3186Z" fill="#595959"/>
<path d="M52.3124 49.3073L53.2432 48.77L50.4366 43.9089L49.5059 44.4463L52.3124 49.3073Z" fill="#404040"/>
<path d="M23.1846 64.9637L21.3838 61.8445L20.5371 62.332L22.3391 65.4532L23.1846 64.9637Z" fill="#595959"/>
<path d="M51.845 46.3378L50.4385 43.9092L44.9135 47.0991L41.761 50.3922L30.6279 56.9792L30.4154 56.9904L27.7543 58.5166L27.2597 58.5052L26.7358 58.7992L26.5791 59.0132L25.6606 59.553L24.9627 59.7846L20.5373 62.3326L21.4345 63.8954L22.3393 65.4538L26.7586 62.8952L27.3081 62.4067L28.2349 61.8811L28.4986 61.8524L29.0151 61.5457L29.2525 61.1117L31.9049 59.5702L32.0208 59.3918L43.2918 53.0437L47.72 51.9601L53.2451 48.7702L51.845 46.3378Z" stroke="#333333" stroke-width="0.882654" stroke-miterlimit="29"/>
<path d="M32.5246 64.7494L28.2461 57.3389L30.8 55.8643L34.0239 61.4482C34.3229 61.9476 34.8796 62.0534 35.5174 61.6961L40.4913 58.8244C41.2341 58.4154 41.5093 57.8315 41.1797 57.2584L37.9847 51.7244L40.396 50.3323L44.6709 57.7367" fill="#666666"/>
<path d="M32.5246 64.7494L28.2461 57.3389L30.8 55.8643L34.0239 61.4482C34.3229 61.9476 34.8796 62.0534 35.5174 61.6961L40.4913 58.8244C41.2341 58.4154 41.5093 57.8315 41.1797 57.2584L37.9847 51.7244L40.396 50.3323L44.6709 57.7367" stroke="#333333" stroke-width="0.882655"/>
<path d="M32.5246 64.7494L28.2461 57.3389L30.8 55.8643L34.0239 61.4482C34.3229 61.9476 34.8796 62.0534 35.5174 61.6961L40.4913 58.8244C41.2341 58.4154 41.5093 57.8315 41.1797 57.2584L37.9847 51.7244L40.396 50.3323L44.6709 57.7367" fill="#666666"/>
<path d="M56.9398 48.8115L57.4829 49.7523L56.0336 50.5895L55.4902 49.6484L56.9398 48.8115Z" fill="#3B3B3B"/>
<path d="M54.7812 50.0566L58.1704 48.0999L58.7134 49.0404L55.3247 50.9979L54.7812 50.0566Z" fill="#404040"/>
<path d="M56.6726 50.0383C56.866 49.9266 56.9323 49.6793 56.8206 49.4859C56.709 49.2924 56.4616 49.2262 56.2682 49.3378C56.0748 49.4495 56.0085 49.6968 56.1202 49.8903C56.2319 50.0837 56.4792 50.15 56.6726 50.0383Z" fill="#363636"/>
<path d="M56.9398 48.8115L57.4829 49.7523L56.0336 50.5895L55.4902 49.6484L56.9398 48.8115Z" stroke="#333333" stroke-width="0.441326"/>
<path d="M54.7812 50.0566L58.1704 48.0999L58.7134 49.0404L55.3247 50.9979L54.7812 50.0566Z" stroke="#333333" stroke-width="0.441326"/>
<path d="M59.3678 47.409L60.1661 48.7917L58.9682 49.4833L58.1699 48.1006L59.3678 47.409Z" fill="#4D4D4D" stroke="#333333" stroke-width="0.441326"/>
<path d="M30.8008 65.7448L30.305 64.8813L23.3555 68.8936L23.8534 69.7559L30.8008 65.7448Z" fill="#404040" stroke="#333333" stroke-width="0.441326"/>
<path fill-rule="evenodd" clip-rule="evenodd" d="M60.6041 48.538L62.1257 51.1735L43.5237 61.9182L27.265 71.2271C26.6565 70.173 26.3681 69.6736 25.5333 70.1554L21.1318 72.6782L20.5469 71.665L60.6041 48.538ZM46.7194 57.4989L49.7764 55.7339C50.039 55.5823 50.3718 55.6671 50.5197 55.9233C50.6676 56.1796 50.5747 56.5101 50.3121 56.6617L47.2551 58.4267C46.9926 58.5783 46.6598 58.4935 46.5118 58.2373C46.3639 57.9811 46.4569 57.6505 46.7194 57.4989ZM54.7931 52.85L51.7361 54.6149C51.4735 54.7665 51.3806 55.0971 51.5285 55.3533C51.6765 55.6096 52.0092 55.6944 52.2718 55.5428L55.3288 53.7778C55.5914 53.6262 55.6843 53.2956 55.5364 53.0394C55.3885 52.7832 55.0557 52.6984 54.7931 52.85ZM57.0567 51.5396L59.5469 50.1019C59.8095 49.9503 60.1443 50.0386 60.2947 50.2991C60.4451 50.5596 60.3541 50.8936 60.0916 51.0452L57.6014 52.483C57.3388 52.6346 57.004 52.5463 56.8536 52.2858C56.7032 52.0252 56.7941 51.6912 57.0567 51.5396Z" fill="#55454F"/>
<path d="M60.6041 48.538L62.1257 51.1735L43.5237 61.9182L27.265 71.2271C26.6565 70.173 26.3681 69.6736 25.5333 70.1554L21.1318 72.6782L20.5469 71.665L60.6041 48.538Z" stroke="#382E35" stroke-width="0.882654"/>
<path d="M20.3179 61.6941L16.1176 62.2098L16.1445 62.4288L20.3448 61.9131L20.3179 61.6941Z" fill="#404040" stroke="#333333" stroke-width="0.441327"/>
<path d="M50.065 43.2632L50.4375 43.9086L49.0464 44.7117L49.7006 43.4736L50.065 43.2632Z" fill="#474747" stroke="#333333" stroke-width="0.441188"/>
<path d="M21.9066 61.5432L20.5395 61.4918L20.1719 61.7041L20.5349 62.3329L21.9066 61.5432Z" fill="#454545" stroke="#333333" stroke-width="0.441188"/>
<path d="M35.166 51.1426L34.923 50.7216L32.813 51.9398L33.056 52.3608L32.761 52.5311L34.0405 54.7548L33.9231 55.1853L35.4289 57.791L35.6331 57.8332L38.6168 56.1106L38.6823 55.9127L37.1786 53.3057L36.747 53.1921L35.4611 50.9723L35.166 51.1426Z" fill="#4D4D4D"/>
<path d="M26.9319 64.5123L24.1641 66.1104L24.5942 66.8275L25.0595 66.5588L27.35 65.2364L26.9319 64.5123Z" fill="#4D4D4D"/>
<path d="M23.2324 65.8545L23.9939 67.1734L24.5953 66.8262L23.8118 65.52L23.2324 65.8545Z" fill="#404040"/>
<path d="M23.027 68.3157L23.3602 68.8929L26.695 66.9675L26.4318 66.5116L25.2331 67.2036L25.062 66.5597L23.9953 67.1756L22.9476 67.7805L23.027 68.3157Z" fill="#4D4D4D" stroke="#333333" stroke-width="0.441327"/>
<path d="M23.2324 65.8545L23.9939 67.1734L25.0606 66.5576L27.3511 65.2351L26.9331 64.5111L24.1652 66.1091L23.8118 65.52L23.2324 65.8545Z" stroke="#333333" stroke-width="0.441327"/>
<path d="M42.8636 65.7495C43.185 67.0754 44.0677 68.2243 44.4842 68.5785C44.6493 68.7189 44.7397 68.7126 44.5378 68.4627C43.7214 67.416 43.6071 66.3241 43.7174 65.2601L42.8636 65.7495Z" fill="#403A3E" stroke="#382E35" stroke-width="0.441327"/>
<path d="M47.0088 64.3739C47.028 64.3843 47.0474 64.3951 47.067 64.4066L47.4178 64.1994L47.7079 64.698C47.8726 64.9729 48.0267 65.2302 48.1524 65.4688C48.3224 65.7917 48.4541 66.1048 48.493 66.4133C48.5329 66.7312 48.473 67.036 48.2779 67.3327C48.0879 67.6216 47.7782 67.901 47.3309 68.1756L43.2484 70.5326L43.1871 70.4269C43.24 70.3426 43.2965 70.2821 43.3449 70.2502L43.2222 70.0377L47.1057 67.7856C47.5202 67.5308 47.7697 67.3022 47.9093 67.0902C48.044 66.8855 48.0824 66.6867 48.055 66.4681C48.0262 66.2399 47.9246 65.9835 47.7619 65.6744C47.6419 65.4466 47.4961 65.2033 47.333 64.9311L47.0088 64.3739Z" fill="#484146" stroke="#382E35" stroke-width="0.441327"/>
<path d="M21.9128 82.4938L30.3205 76.0098L34.6732 81.5384L26.0069 88.2603C24.9248 86.1908 23.7541 84.7541 22.3473 83.0278C22.2049 82.8531 22.0601 82.6754 21.9128 82.4938Z" fill="#474747"/>
<path d="M33.6145 82.358L26.0039 88.2612C25.8581 87.9825 25.7107 87.7152 25.5614 87.4571L33.0802 81.6724L33.6145 82.358Z" fill="#404040" stroke="#333333" stroke-width="0.441188"/>
<path d="M21.9128 82.4938L30.3205 76.0098L30.8295 76.6563L22.4779 83.1882L22.3473 83.0278C22.2049 82.8531 22.0601 82.6754 21.9128 82.4938Z" fill="#404040"/>
<path d="M22.3473 83.0278C22.2049 82.8531 22.0601 82.6754 21.9128 82.4938L30.3205 76.0098L30.8295 76.6563L22.4779 83.1882M22.3473 83.0278C22.391 83.0815 22.4346 83.135 22.4779 83.1882M22.3473 83.0278L22.4779 83.1882" stroke="#333333" stroke-width="0.441327"/>
<path d="M21.9128 82.4938L30.3205 76.0098L34.6732 81.5384L26.0069 88.2603C24.9248 86.1908 23.7541 84.7541 22.3473 83.0278C22.2049 82.8531 22.0601 82.6754 21.9128 82.4938Z" stroke="#333333" stroke-width="0.882654"/>
<rect x="63.8535" y="52.3428" width="0.584652" height="0.443091" transform="rotate(-30 63.8535 52.3428)" fill="#3B3B3B" stroke="#333333" stroke-width="0.441327"/>
<rect x="61.3477" y="48.0049" width="0.584652" height="0.443091" transform="rotate(-30 61.3477 48.0049)" fill="#3B3B3B" stroke="#333333" stroke-width="0.441327"/>
<path d="M104.208 22.0663L61.3418 46.8154L65.1018 53.328L107.968 28.5789L104.208 22.0663Z" fill="#404040" stroke="#333333" stroke-width="0.882654"/>
<path d="M105.271 21.2878L104.139 21.9414L104.211 22.0664L107.971 28.579L108.043 28.7044L109.175 28.0508L105.271 21.2878Z" fill="#383838" stroke="#333333" stroke-width="0.882654"/>
<path d="M27.2655 71.2258C26.6569 70.1717 26.3687 69.6725 25.534 70.1543L17.4757 74.7637C17.1809 74.9173 16.9655 75.3442 17.2245 75.7953L18.0891 77.3436C18.3045 77.7167 18.6106 77.6238 19.1407 77.3178L26.9946 72.7833C27.5508 72.4735 27.7465 72.0944 27.2656 71.2259L27.2655 71.2258Z" fill="#41353F" stroke="#382E35" stroke-width="0.882655"/>
<path d="M5.93083 84.3647C5.93082 84.3647 5.93081 84.3647 5.9308 84.3646L18.092 77.3434C18.3074 77.7165 18.6135 77.6237 19.1435 77.3176L26.9974 72.7832C27.5537 72.4733 27.7494 72.0942 27.2684 71.2257L62.0266 51.3251L63.62 54.0849L30.8163 72.9236C30.1467 73.2775 29.6915 73.853 30.1815 74.569L30.8634 75.5917L21.625 82.7164L20.9552 83.0679C19.1099 81.2821 14.5541 83.7614 15.5255 89.5755C15.6118 90.2485 15.3911 90.3105 14.9544 90.5478L12.0855 92.2101C9.51124 89.8264 7.54818 87.184 5.93083 84.3647Z" fill="#595959"/>
<path d="M36.0404 69.9243L34.5781 70.7686C36.0032 70.0089 38.4156 69.4238 38.9521 72.2197L39.7835 78.6749C39.811 78.9512 39.8696 79.1473 40.2303 79.0293L44.5973 77.6577C45.043 77.5256 45.0352 77.4168 44.9415 77.0746L43.0968 71.622C42.8559 70.9179 43.1618 70.3738 43.3478 70.2513L41.3865 66.8541L36.0404 69.9243Z" fill="#404040" stroke="#333333" stroke-width="0.882655"/>
<path d="M7.58594 87.001C8.85691 88.8406 10.3278 90.5859 12.0828 92.211L14.9518 90.5487C14.9832 90.5316 15.0136 90.5155 15.0427 90.4999C15.4186 90.2993 15.6029 90.2009 15.5228 89.5764C14.5514 83.7623 19.1073 81.283 20.9525 83.0688L21.6223 82.7173L30.8607 75.5926L30.1788 74.5699C30.0594 74.3954 29.9961 74.2293 29.9784 74.0727L7.58594 87.001Z" fill="#4D4D4D"/>
<path d="M18.092 77.3434L5.9308 84.3646C7.54815 87.184 9.51123 89.8264 12.0855 92.2101L14.9544 90.5478C15.3911 90.3105 15.6118 90.2485 15.5255 89.5755C14.5541 83.7614 19.1099 81.2821 20.9552 83.0679L21.625 82.7164L30.8634 75.5917L30.1814 74.569C29.6915 73.853 30.1467 73.2775 30.8163 72.9236L63.62 54.0849L62.0266 51.3251L27.2684 71.2257C27.7494 72.0942 27.5537 72.4733 26.9974 72.7832L19.1435 77.3176C18.6135 77.6237 18.3074 77.7165 18.092 77.3434ZM18.092 77.3434L5.67526 84.5122" stroke="#333333" stroke-width="0.882655"/>
<path d="M4.15354 81.8817L5.67365 84.513L5.9292 84.3655C7.54655 87.1848 9.50962 89.8271 12.0839 92.2109C11.8273 92.3597 11.588 92.4958 11.3629 92.6239C10.1717 93.3015 9.37674 93.7538 8.50318 94.6599C8.37491 94.793 8.03242 95.0865 7.9438 95.1343C7.50569 95.3753 7.43664 95.3442 7.4062 94.8371C6.98471 90.0627 5.17424 86.4909 1.62206 83.7762C1.37725 83.6465 1.36425 83.5044 1.62995 83.3381L4.15354 81.8817Z" fill="#4D4D4D"/>
<path d="M10.1672 93.3272C10.5274 93.1008 10.918 92.8783 11.3646 92.6244C11.5896 92.496 11.8288 92.3599 12.0854 92.2112C9.5113 89.8276 7.54824 87.1853 5.93079 84.3658L5.67521 84.5133L4.15513 81.882L3.00899 82.5437C3.91012 86.6233 7.04782 90.5955 10.1672 93.3272Z" fill="#404040"/>
<path d="M4.15354 81.8817L5.67365 84.513L5.9292 84.3655C7.54655 87.1848 9.50962 89.8271 12.0839 92.2109C11.8273 92.3597 11.588 92.4958 11.3629 92.6239C10.1717 93.3015 9.37674 93.7538 8.50318 94.6599C8.37491 94.793 8.03242 95.0865 7.9438 95.1343C7.50569 95.3753 7.43664 95.3442 7.4062 94.8371C6.98471 90.0627 5.17424 86.4909 1.62206 83.7762C1.37725 83.6465 1.36425 83.5044 1.62995 83.3381L4.15354 81.8817Z" stroke="#333333" stroke-width="0.882655"/>
<path d="M43.5248 61.9166C43.3286 62.0299 43.3003 62.1257 43.3805 62.2649L44.8978 64.8928L45.6447 64.4664C46.1106 64.1936 46.5215 64.0872 47.0681 64.4062L63.9964 54.4114L62.1262 51.1722L43.5248 61.9166Z" fill="#474747"/>
<path d="M35.6215 51.2462L32.9206 52.8055L34.0421 54.7545L33.9795 54.984L36.9786 53.2524L36.7486 53.1919L35.6215 51.2462Z" fill="#595959"/>
<path d="M36.8769 56.5405C37.5056 56.1775 37.721 55.3735 37.358 54.7448C36.995 54.116 36.191 53.9006 35.5623 54.2636C34.9335 54.6266 34.7181 55.4306 35.0811 56.0594C35.4441 56.6881 36.2481 56.9035 36.8769 56.5405Z" fill="#595959" stroke="#333333" stroke-width="0.441326" stroke-miterlimit="29"/>
<path fill-rule="evenodd" clip-rule="evenodd" d="M35.8589 54.7775C35.5097 54.9791 35.39 55.4257 35.5916 55.7749C35.7932 56.1241 36.2398 56.2437 36.589 56.0421C36.9382 55.8405 37.0579 55.394 36.8562 55.0448C36.6546 54.6955 36.2081 54.5759 35.8589 54.7775ZM35.8783 55.6094C35.7681 55.4185 35.8335 55.1744 36.0244 55.0642C36.2153 54.9539 36.4594 55.0194 36.5696 55.2103C36.6798 55.4012 36.6144 55.6453 36.4235 55.7555C36.2326 55.8657 35.9885 55.8003 35.8783 55.6094Z" fill="#4D4D4D"/>
<path d="M35.1689 51.1377L34.923 50.7216L32.813 51.9398L33.0504 52.3608L32.761 52.5311L34.0405 54.7548L33.9231 55.1853L35.4289 57.791L35.6331 57.8332L38.6168 56.1106L38.6823 55.9127L37.1786 53.3057L36.747 53.1921L35.4611 50.9723L35.1689 51.1377Z" stroke="#333333" stroke-width="0.441327" stroke-miterlimit="29"/>
<path d="M33.2989 60.1943L40.4799 56.0483Z" fill="#999999"/>
<path fill-rule="evenodd" clip-rule="evenodd" d="M40.4799 56.0483L41.1792 57.2595C41.5088 57.8326 41.2336 58.4165 40.4908 58.8255L35.5169 61.6972C34.8791 62.0546 34.3224 61.9488 34.0234 61.4493L33.2989 60.1943L40.4799 56.0483ZM37.903 59.768C38.2816 59.5494 38.4113 59.0652 38.1927 58.6866C37.9741 58.3079 37.4899 58.1782 37.1113 58.3968C36.7327 58.6154 36.6029 59.0996 36.8215 59.4782C37.0401 59.8569 37.5243 59.9866 37.903 59.768ZM35.8606 60.9954C36.2393 60.7768 36.369 60.2926 36.1504 59.914C35.9318 59.5353 35.4476 59.4056 35.069 59.6242C34.6903 59.8428 34.5606 60.327 34.7792 60.7056C34.9978 61.0843 35.482 61.214 35.8606 60.9954ZM40.1375 57.5702C40.3561 57.9489 40.2264 58.433 39.8477 58.6516C39.4691 58.8703 38.9849 58.7405 38.7663 58.3619C38.5477 57.9832 38.6774 57.4991 39.0561 57.2805C39.4347 57.0618 39.9189 57.1916 40.1375 57.5702Z" fill="#999999"/>
<path d="M33.2989 60.1943L34.025 61.452M33.2989 60.1943L40.4799 56.0483M33.2989 60.1943L34.0234 61.4493C34.3224 61.9488 34.8791 62.0546 35.5169 61.6972L40.4908 58.8255C41.2336 58.4165 41.5088 57.8326 41.1792 57.2595L40.4799 56.0483M40.4799 56.0483L41.206 57.306M38.1927 58.6866C38.4113 59.0652 38.2816 59.5494 37.903 59.768C37.5243 59.9866 37.0401 59.8569 36.8215 59.4782C36.6029 59.0996 36.7327 58.6154 37.1113 58.3968C37.4899 58.1782 37.9741 58.3079 38.1927 58.6866ZM36.1504 59.914C36.369 60.2926 36.2393 60.7768 35.8606 60.9954C35.482 61.214 34.9978 61.0843 34.7792 60.7056C34.5606 60.327 34.6903 59.8428 35.069 59.6242C35.4476 59.4056 35.9318 59.5353 36.1504 59.914ZM39.8477 58.6516C40.2264 58.433 40.3561 57.9489 40.1375 57.5702C39.9189 57.1916 39.4347 57.0618 39.0561 57.2805C38.6774 57.4991 38.5477 57.9832 38.7663 58.3619C38.9849 58.7405 39.4691 58.8703 39.8477 58.6516Z" stroke="#333333" stroke-width="0.441327"/>
<path d="M9.26992 89.2295C8.76609 88.6191 8.29057 87.996 7.83984 87.3613L8.62034 86.9107L10.0064 88.8043L9.26992 89.2295Z" fill="#999999" stroke="#333333" stroke-width="0.441326"/>
<path d="M46.789 60.1951L47.3852 61.2277C47.5807 61.6197 47.8749 61.7449 48.3737 61.4335L60.5176 54.4212C61.0776 54.0994 61.0491 53.5818 60.902 53.3096L60.3487 52.3352L46.789 60.1951Z" fill="#3D3D3D"/>
<path d="M40.3977 50.3334L37.9863 51.7256L39.0208 53.5174L41.4322 52.1252L40.3977 50.3334Z" fill="#595959" stroke="#333333" stroke-width="0.441327"/>
<path d="M30.8 55.8643L28.2461 57.3389L29.2841 59.1368L31.8381 57.6623L30.8 55.8643Z" fill="#595959" stroke="#333333" stroke-width="0.441327"/>
<path d="M28.5041 67.8277L26.959 68.7197L27.5156 69.6838L29.0604 68.7905L28.9825 68.6559L40.6947 61.8844L40.2981 61.1979L28.5818 67.9623L28.5041 67.8277Z" fill="#808080" stroke="#333333" stroke-width="0.441327"/>
<path d="M40.1895 61.0078L40.8067 62.0764L42.5087 61.0924L41.8923 60.0247L40.1895 61.0078Z" fill="#4D4D4D" stroke="#333333" stroke-width="0.441327"/>
<path d="M43.5248 61.9166C43.3286 62.0299 43.3003 62.1257 43.3805 62.2649L44.8978 64.8928L45.6447 64.4664C46.1106 64.1936 46.5215 64.0872 47.0681 64.4062L63.9964 54.4114L62.1262 51.1722L43.5248 61.9166Z" stroke="#333333" stroke-width="0.882655"/>
<path d="M45.3968 63.8039C45.7999 63.5712 45.938 63.0558 45.7053 62.6527C45.4726 62.2496 44.9572 62.1115 44.5541 62.3442C44.151 62.577 44.0129 63.0924 44.2456 63.4955C44.4783 63.8986 44.9937 64.0367 45.3968 63.8039Z" fill="#404040" stroke="#333333" stroke-width="0.441326"/>
<path d="M59.1759 48.3815C59.2455 48.3413 59.2693 48.2523 59.2291 48.1826C59.1889 48.113 59.0999 48.0892 59.0303 48.1294C58.9607 48.1696 58.9369 48.2586 58.9771 48.3282C59.0173 48.3978 59.1063 48.4216 59.1759 48.3815Z" fill="#3B3B3B"/>
<path d="M42.8302 57.4079C43.1342 57.2324 43.2383 56.8438 43.0628 56.5399C42.8874 56.236 42.4987 56.1318 42.1948 56.3073C41.8909 56.4828 41.7868 56.8714 41.9622 57.1753C42.1377 57.4792 42.5263 57.5833 42.8302 57.4079Z" fill="#404040"/>
<path d="M33.1994 62.9635C33.5033 62.7881 33.6074 62.3995 33.432 62.0955C33.2565 61.7916 32.8679 61.6875 32.564 61.863C32.26 62.0384 32.1559 62.427 32.3314 62.731C32.5069 63.0349 32.8955 63.139 33.1994 62.9635Z" fill="#404040"/>
<path d="M8.38237 86.0941C8.85033 85.8239 9.01067 85.2256 8.74049 84.7576C8.47031 84.2896 7.87193 84.1293 7.40397 84.3995C6.936 84.6696 6.77566 85.268 7.04584 85.736C7.31602 86.204 7.9144 86.3643 8.38237 86.0941Z" fill="#404040" stroke="#333333" stroke-width="0.441326"/>
<path d="M21.3367 70.8223L22.0214 72.0083C22.0666 72.0866 22.035 72.1564 21.9513 72.2043L17.4769 74.7637C17.1821 74.9174 16.9667 75.3442 17.2257 75.7953L18.0903 77.3436L5.67356 84.5124L4.15768 81.8885C3.92036 81.4774 3.89886 80.8757 4.33128 80.6257L21.3367 70.8223Z" fill="#474747" stroke="#333333" stroke-width="0.882655"/>
<path d="M49.7785 55.734L46.7215 57.499C46.4589 57.6505 46.366 57.9811 46.5139 58.2374C46.6619 58.4936 46.9946 58.5784 47.2572 58.4268L50.3142 56.6618C50.5768 56.5102 50.6697 56.1796 50.5218 55.9234C50.3739 55.6672 50.0411 55.5824 49.7785 55.734Z" stroke="#382E35" stroke-width="0.441326"/>
<path d="M54.7942 52.8492L51.7371 54.6142C51.4746 54.7658 51.3816 55.0964 51.5296 55.3526C51.6775 55.6088 52.0103 55.6936 52.2728 55.542L55.3298 53.7771C55.5924 53.6255 55.6853 53.2949 55.5374 53.0387C55.3895 52.7824 55.0567 52.6976 54.7942 52.8492Z" stroke="#382E35" stroke-width="0.441326"/>
<path d="M59.5477 50.1003L57.0575 51.538C56.7949 51.6896 56.704 52.0237 56.8544 52.2842C57.0048 52.5447 57.3395 52.633 57.6021 52.4814L60.0923 51.0437C60.3549 50.8921 60.4458 50.558 60.2954 50.2975C60.145 50.037 59.8102 49.9487 59.5477 50.1003Z" stroke="#382E35" stroke-width="0.441326"/>
<path d="M53.6394 38.5032L49.9571 43.3898L50.1333 43.5226L53.8156 38.636L53.6394 38.5032Z" fill="#404040" stroke="#333333" stroke-width="0.441327"/>
<path d="M40.2998 61.2L39.3574 61.7441L39.7538 62.4307L40.6961 61.8859L40.2998 61.2Z" fill="#404040" stroke="#333333" stroke-width="0.441326"/>
</g>
<defs>
<clipPath id="clip0_2940_3889">
<rect width="110" height="110" fill="white"/>
</clipPath>
</defs>
</svg>
