<svg xmlns="http://www.w3.org/2000/svg" xml:space="preserve" width="119.876" height="24.411" viewBox="0 0 31.717 6.459"><g transform="translate(118.369 9.795)"><path d="m-116.418-5.689-.421.363h-1.134V-8.98h1.14l.575.14" style="fill:#4d4d4d;fill-opacity:1;stroke:#171717;stroke-width:.79375;stroke-linejoin:round;stroke-dasharray:none;stroke-opacity:1"/><path d="M-102.44-5.234h.66v.566c-.2.368-.176.703 0 1.134-.441.007-.66-.336-.66-1.7z" style="fill:#3a3a36;fill-opacity:1;fill-rule:evenodd;stroke:#181816;stroke-width:.396895;stroke-linejoin:round;stroke-opacity:1"/><path d="M-116.931-5.28c2.5-.36 4.639-.516 8.103-.265l.047-3.123c-3.296.27-5.708.114-8.127-.264z" style="fill:#e49f44;fill-opacity:1;stroke:none;stroke-width:.794;stroke-linejoin:round;stroke-dasharray:none;stroke-opacity:1"/><path d="M-111.889-8.886c1.218 1.038 1.03 2.489 0 3.52l2.298-.437 1.175.298v-3.433l-1.406.46z" style="fill:#df8d20;fill-opacity:1;stroke:none;stroke-width:.382385;stroke-linejoin:round;stroke-dasharray:none;stroke-opacity:1"/><path d="M-116.804-5.327c2.5-.36 4.64-.515 8.103-.264l.047-3.123c-3.296.27-5.708.114-8.127-.264z" style="fill:none;fill-opacity:1;stroke:#281906;stroke-width:.794;stroke-linejoin:round;stroke-dasharray:none;stroke-opacity:1"/><path d="m-108.795-5.658.747.53h6.496v-4.049h-6.49l-.77.53z" style="fill:#54544f;fill-opacity:1;stroke:none;stroke-width:.793999;stroke-linejoin:round;stroke-dasharray:none;stroke-opacity:1"/><path d="M-108.543-8.281h6.84V-9.2h-6.32zm-.082 2.257h6.84v.918h-6.32z" style="fill:#474743;fill-opacity:1;stroke:none;stroke-width:.79375;stroke-linejoin:round;stroke-dasharray:none;stroke-opacity:1"/><g style="stroke:#353531;stroke-width:.396875;stroke-dasharray:none;stroke-opacity:1"><path d="M-107.125-5.119v-4.117m1.449 4.117v-4.117m1.45 4.117v-4.117m1.45 4.117v-4.117" style="fill:#696256;fill-opacity:1;stroke:#282825;stroke-width:.396875;stroke-linejoin:round;stroke-dasharray:none;stroke-opacity:1" transform="translate(0 .025)"/><path d="M-106.694-7.096h.59M-105.247-7.096h.59M-103.8-7.096h.59M-108.141-7.096h.59" style="fill:#54544f;fill-opacity:1;fill-rule:evenodd;stroke:#282825;stroke-width:.396895;stroke-linejoin:round;stroke-dasharray:none;stroke-opacity:1" transform="translate(0 -.056)"/></g><path d="m-108.73-5.658.748.53h6.496v-4.049h-6.49l-.77.53z" style="fill:none;fill-opacity:1;stroke:#181816;stroke-width:.793999;stroke-linejoin:round;stroke-dasharray:none;stroke-opacity:1"/><path d="M-98.798-8.32h11.78c.033 0 .058.03.058.065v2.205c0 .035-.025.064-.059.064h-11.78c-.033 0-.058-.03-.058-.064v-2.202c0-.035.025-.064.059-.064z" class="cls-12" style="fill:#545045;fill-opacity:1;stroke:none;stroke-width:.79375;stroke-linecap:round;stroke-linejoin:round;stroke-dasharray:none;stroke-opacity:1"/><path d="M-93.47-8.187v2.104h4.846v-2.14z" style="fill:#3e3a32;fill-opacity:1;stroke:none;stroke-width:.411266;stroke-linejoin:round;stroke-dasharray:none;stroke-opacity:1"/><path d="M-98.886-8.584h11.78c.033 0 .058.03.058.065v2.733c0 .035-.025.065-.059.065h-11.78c-.033 0-.058-.03-.058-.065v-2.73c0-.036.025-.065.059-.065z" class="cls-12" style="fill:#484847;fill-opacity:1;stroke:#171717;stroke-width:.79375;stroke-linecap:round;stroke-linejoin:round;stroke-dasharray:none;stroke-opacity:1"/><path d="M-93.527-8.67h5.122v2.974h-5.122z" style="fill:#3b3b3a;fill-opacity:1;fill-rule:evenodd;stroke:none;stroke-width:.793791;stroke-linejoin:round;stroke-dasharray:none;stroke-opacity:1"/><path d="M-98.886-8.584h11.78c.033 0 .058.03.058.065v2.733c0 .035-.025.065-.059.065h-11.78c-.033 0-.058-.03-.058-.065v-2.73c0-.036.025-.065.059-.065z" class="cls-12" style="fill:none;fill-opacity:1;stroke:#171717;stroke-width:.79375;stroke-linecap:round;stroke-linejoin:round;stroke-dasharray:none;stroke-opacity:1"/><path d="M-98.77-5.546h1.09V-8.76h-1.16" style="fill:#484847;fill-opacity:1;stroke:#171717;stroke-width:.793999;stroke-linejoin:round;stroke-dasharray:none;stroke-opacity:1"/><path d="m-101.552-4.908 2.846-.529v-3.431l-2.846-.53z" style="fill:#606162;fill-opacity:1;stroke:none;stroke-width:.793999;stroke-linejoin:round;stroke-dasharray:none;stroke-opacity:1"/><path d="M-101.463-8.05h2.667v1.794h-2.667z" style="fill:#535455;fill-opacity:1;fill-rule:evenodd;stroke:none;stroke-width:1.05839;stroke-linejoin:round"/><path d="m-101.552-4.908 2.846-.529v-3.431l-2.846-.53zM-94.861-5.954v-2.397" style="fill:none;fill-opacity:1;stroke:#171717;stroke-width:.793999;stroke-linejoin:round;stroke-dasharray:none;stroke-opacity:1"/><path d="M-93.494-5.954v-2.397m5.144 2.397v-2.397" style="fill:none;fill-opacity:1;stroke:#171717;stroke-width:.396875;stroke-linejoin:round;stroke-dasharray:none;stroke-opacity:1"/><path d="M-86.931-7.544h-.9v.783h.897zm-8.886 0h-2.074v.783h2.072z" style="fill:#737373;fill-opacity:1;stroke:#171717;stroke-width:.396875;stroke-linejoin:round;stroke-dasharray:none;stroke-opacity:1"/><rect width="2.439" height=".678" x="-104.739" y="-5.615" rx=".339" ry=".339" style="fill:#5f5f59;fill-opacity:1;stroke:#181816;stroke-width:.396875;stroke-linejoin:round;stroke-dasharray:none;stroke-opacity:1"/></g></svg>