<svg xmlns="http://www.w3.org/2000/svg" xml:space="preserve" width="110" height="88.091904" viewBox="0 0 29.103917 23.307775"><g transform="rotate(-15.0000007 31.03751102 19.56162447) scale(.91686646)"><rect width="3.4080849" height="2.1758602" x="21.523914" y="2.8671055" fill="#6e5e60" stroke="#372f30" stroke-linecap="round" stroke-width="1.05332" rx="0" ry="0"/><rect width="1.4982268" height="2.1758602" x="21.523914" y="2.8671055" fill="#7c6a6c" stroke="#372f30" stroke-linecap="round" stroke-width=".529169" rx="0" ry="0"/><rect width="3.4080849" height="2.1758602" x="24.812956" y="5.4489117" fill="#7b6a6c" stroke="#372f30" stroke-linecap="round" stroke-width="1.05332" rx="0" ry="0"/><path fill="#6e5e60" d="M21.69569 4.5766674v2.5671207l-2.571949-.013436c2.300028 0 2.889647.4232045 4.207517 1.8422746h3.287156l.225827-1.8288386V4.5766674Z"/><path fill="#6e5e60" d="M21.712019 4.8379316h5.148551v1.4343256h-5.148551Z"/><path fill="#897678" d="M21.712019 5.5550942h5.148551v.717163h-5.148551z"/><path fill="none" stroke="#372f30" stroke-linecap="round" stroke-width=".529169" d="M21.712019 4.8379316h5.148551v1.4343256h-5.148551Z"/><rect width="1.8520896" height=".79368472" x="24.019382" y="7.0682487" fill="#897678" stroke="#372f30" stroke-linecap="round" stroke-width=".529173" ry=".39684236"/><circle cx="24.286295" cy="5.5550942" r=".23812626" fill="#453b3c"/><circle cx="25.344633" cy="5.5550942" r=".23812626" fill="#453b3c"/><circle cx="23.227957" cy="5.5550942" r=".23812626" fill="#453b3c"/><path fill="none" stroke="#372f30" stroke-linecap="round" stroke-linejoin="round" stroke-width="1.05331" d="M21.69569 4.5766674v2.5671207l-2.571949-.013436c2.300028 0 2.889647.4232045 4.207517 1.8422746h3.512987l-.000004-4.3959593z"/><path fill="#6e5e60" d="M10.615495 8.7223965c.989783-.859475 1.469196-1.5162654 2.613484-1.5786084h1.794454c.881833.251651 1.131575.8457882 1.255088 1.3092091.976141-1.5557633 1.42569-1.3092091 5.417169-1.3092091V.79375424H10.731142C9.9762997 2.2827554 8.8315783 3.4111413 7.0554445 4.0625682c-.1250302.880415 1.6129194 3.4031929.9250156 4.1156149 2.0174801-.8086446 2.3690089.0497886 2.6350349.5442134Z" paint-order="fill markers stroke"/><path fill="#605254" stroke="#372f30" stroke-linecap="round" stroke-linejoin="round" stroke-miterlimit="10.8" stroke-width=".514617" d="M34.883228.83176208c0-.69528989.09678-1.09089536-.231065-1.09634683l-.359685-.005981c-.653585-.0108681-.962335.66400897-.962335 1.10232781" paint-order="fill markers stroke"/><path fill="#524748" d="M33.801442 1.353678h-12.21553v1.7905847h12.21553z" paint-order="fill markers stroke"/><path fill="#605254" d="M33.801442 1.9763937h-12.21553v.5451532h12.21553z" paint-order="fill markers stroke"/><path fill="#605254" d="M20.67704.92604661h.991615V7.1437881h-.991615Z"/><path fill="none" stroke="#372f30" stroke-linecap="round" stroke-linejoin="round" stroke-miterlimit="10.8" stroke-width=".772059" d="M33.801442 1.3120761h-12.21553v1.8737885h12.21553z" paint-order="fill markers stroke"/><path fill="#605254" d="M36.061259 1.1008424h-3.461296v2.2962561h3.461296z" paint-order="fill markers stroke"/><path fill="#7b6a6c" d="M36.061259 1.7182799h-3.461296v1.0613808h3.461296z" paint-order="fill markers stroke"/><path fill="none" stroke="#372f30" stroke-linecap="round" stroke-linejoin="round" stroke-miterlimit="10.8" stroke-width=".77206" d="M36.061259 1.047492h-3.461296v2.402957h3.461296z" paint-order="fill markers stroke"/><path fill="#372f30" stroke="#372f30" stroke-linecap="round" stroke-linejoin="round" stroke-miterlimit="10.8" stroke-width=".51462" d="M11.877735 7.7940851c.395031.1311883.795644.2520487.887402.9443506.148426.7199198.833376.8639401 1.352332 1.1341057-.938762-.4795455-1.809091-1.4847185-.235862-3.072262z" paint-order="fill markers stroke"/><path fill="#7b6a6c" stroke="#372f30" stroke-linecap="round" stroke-linejoin="round" stroke-width=".529169" d="M8.6314139 3.255522c-.1729195-.6739966-.1703825-1.4117353-.985798-1.3698629l.0470135-.6668263c.9964477-.23411507 1.6020447.2544841 2.0296844 1.0721407"/><path fill="none" stroke="#372f30" stroke-linecap="round" stroke-linejoin="round" stroke-miterlimit="10.8" stroke-width="1.0295" d="M10.615495 8.7223965c.989783-.859475 1.469196-1.5162654 2.613484-1.5786084h1.794454c.881833.251651 1.131575.8457882 1.255088 1.3092091.976141-1.5557633 1.42569-1.3092091 5.417169-1.3092091V.79375424H10.731142C9.9762997 2.2827554 8.8315783 3.4111413 7.0554445 4.0625682c-.1250302.880415 1.6129194 3.4031929.9250156 4.1156149 2.0174801-.8086446 2.3690089.0497886 2.6350349.5442134Z" paint-order="fill markers stroke"/><ellipse cx="4.2231297" cy="11.375815" fill="#6b6561" stroke="#363330" stroke-linecap="round" stroke-linejoin="round" stroke-miterlimit="10.8" stroke-width=".51462" paint-order="fill markers stroke" rx=".434991" ry=".4354485"/><path fill="#7b6a6c" stroke="#372f30" stroke-linecap="round" stroke-width=".529169" d="M12.177712 2.2662158s-1.660727.3529533-1.660727.9053615 1.600737.9053616 1.600737.9053616"/><path fill="#7b6a6c" stroke="#372f30" stroke-linecap="round" stroke-width=".529169" d="M12.117722 1.0448959s-.806983 1.3288579-.806983 2.1266814c0 .7978236.806983 2.1266815.806983 2.1266815"/><path fill="#6e5e60" stroke="#372f30" stroke-linecap="round" stroke-linejoin="round" stroke-miterlimit="10.8" stroke-width=".529169" d="M12.117722 1.0447921h7.457956v4.2534374h-7.457956z" paint-order="fill markers stroke"/><path fill="#633936" d="m5.1199926 5.7907579 1.9354519-1.7281897c1.4112508-.2431711-.3637285 1.1519188 1.8683386 2.6322867-.0673825.8322948-.4881116 1.2974751-1.1048993 1.5589575-1.571715.6663165-1.5315713 7.9544696-2.2046847 7.9685676H1.5016012C.27372819 14.277236 3.7958762 7.1461483 5.1199926 5.7907579" paint-order="fill markers stroke"/><path fill="#53302d" d="M5.1199926 5.7907579c1.3451158-1.2010711 1.8953063-2.2706616 1.505468-1.3254914-2.03516 4.9342832-2.9204717 7.9085605-2.59877 11.7571135H1.5016012C.27372819 14.277236 2.6838553 8.7504586 4.0079717 7.3950682" paint-order="fill markers stroke"/><path fill="#605254" stroke="#372f30" stroke-linecap="round" stroke-linejoin="round" stroke-miterlimit="10.8" stroke-width=".51462" d="M5.628218 4.9028794c-.3359599-.3359963-.3090623-.7593774-.0311149-1.0373573.2779497-.2779803.6911669-.3149996 1.0372448.0311144" paint-order="fill markers stroke"/><path fill="none" stroke="#422624" stroke-linecap="round" stroke-linejoin="round" stroke-miterlimit="10.8" stroke-width="1.0295" d="M7.0554445 4.0625682c1.4112508-.2431711-.3637285 1.1519188 1.8683386 2.6322867-.0673825.8322948-.4881116 1.2974751-1.1048993 1.5589575-1.571715.6663165-1.5315713 7.9544696-2.2046847 7.9685676H.97243171C1.3297294 11.641655 4.2437344 6.2158807 7.0554445 4.0625682Z" paint-order="stroke fill markers"/><path fill="#605254" d="M13.066155 1.0447921h6.840192v4.2534374h-6.840192z" paint-order="fill markers stroke"/><path fill="#6e5e60" d="M13.066155 1.5796384h6.840192v3.1837447h-6.840192z" paint-order="fill markers stroke"/><path fill="#7b6a6c" d="M13.066155 2.0016313h6.840192v2.339759h-6.840192z" paint-order="fill markers stroke"/><g fill="#453b3c" stroke-width="1.09452" transform="matrix(.91715786 0 0 .91014974 1.65587 .08647299)"><rect width="6.5252638" height=".74457115" x="13.63827" y="2.5612643" rx=".54965585" ry=".37228557"/><rect width="6.5252638" height=".63858294" x="13.63827" y="4.4917779" rx=".54965585" ry=".31929147"/><rect width="6.5252638" height=".63858294" x="13.63827" y=".98197979" rx=".54965585" ry=".31929147"/></g><path fill="none" stroke="#372f30" stroke-linecap="round" stroke-miterlimit="10.8" stroke-width=".52917" d="M13.066225 1.0447921h6.840123v4.2534374h-6.840123z" paint-order="fill markers stroke"/><path fill="none" stroke="#372f30" stroke-linecap="round" stroke-linejoin="round" stroke-width="1.0295" d="M10.615495 8.7223965c.357997 1.0340386.518602 2.6891745 2.732248 2.3846415.30185-.04153 2.723363-.989472 3.129518-.979254-.345945-.572774-.36033-1.2922727-.19874-1.6747868"/><path fill="none" stroke="#404040" stroke-linecap="round" stroke-width=".529169" d="M4.4987431 11.118941C11.154407 3.8429437 18.566217 7.1437881 21.69569 7.1437881"/><path fill="none" stroke="#372f30" stroke-linecap="round" stroke-width=".529169" d="M4.4987431 11.118941C11.154407 3.8429437 18.566217 7.1437881 21.69569 7.1437881"/><path fill="#5c5659" d="M5.0355902 12.075746 3.562157 10.47434l1.4145167-.349186.6417705.974186Z"/><path fill="#4f4a4d" d="m3.8724389 10.351844 1.4756759 1.730085-1.4566936-.028817-.3677649-1.107094Z"/><circle cx="4.4987431" cy="11.118941" r=".99030143" fill="none" stroke="#353133" stroke-linecap="round" stroke-linejoin="round" stroke-width=".529168"/><path fill="#897678" stroke="#372f30" stroke-linecap="round" stroke-width=".529169" d="M23.309056 6.2983831v2.3334158"/></g></svg>