<svg xmlns="http://www.w3.org/2000/svg" width="390.567" height="238.736" viewBox="0 0 103.338 63.166"><g transform="matrix(1 0 0 -1 -2880.479 -48.037)"><path d="m2955.434-57.031-3.93.875.894-1.628-2.65 1.263-1.5-.22 1.614-1.306 2.804-1.559.648-1.342-15.668 8.48 1.056.547 4.724-1.638-2.548 1.935 2.54-.313-3.652 3.385z" style="fill:#61341a;fill-opacity:1;stroke:#1d0f07;stroke-width:.529167;stroke-linecap:square;stroke-opacity:1"/><path d="M2889.32-82.978a1.024 1.024 0 0 1 1.445-.138c.438.362.499 1.006.137 1.444l-2.972 3.596 7.037 5.814 2.971-3.596a1.023 1.023 0 0 1 1.444-.137c.438.362.5 1.006.137 1.444l-3.625 4.387-.034.04c-.365.404-.953.475-1.34.155l-8.686-7.178-.07-.057c-.388-.32-.428-.91-.102-1.345q.016-.02.035-.041zM2972.654-104.79a1.024 1.024 0 0 1-.158 1.442 1.023 1.023 0 0 1-1.441-.158l-2.922-3.636-7.115 5.717 2.922 3.637a1.023 1.023 0 0 1-.157 1.442 1.024 1.024 0 0 1-1.442-.157l-3.565-4.436q-.016-.022-.032-.042c-.32-.44-.272-1.03.12-1.344l8.783-7.058.07-.057c.392-.314.978-.235 1.338.173l.034.04z" style="display:inline;fill:gray;fill-opacity:1;stroke:#2e2e2e;stroke-width:.926042;stroke-miterlimit:4;stroke-dasharray:none;stroke-opacity:1"/><rect width="1.724" height="1.729" x="1830.337" y="-2310.149" rx=".458" ry=".458" style="fill:#606060;fill-opacity:1;stroke:none;stroke-width:2.53369;stroke-linecap:round;stroke-linejoin:round;stroke-miterlimit:5;stroke-dasharray:none;stroke-opacity:1;paint-order:fill markers stroke" transform="scale(1 -1)rotate(53.289)"/><rect width="4.136" height="1.729" x="2515.375" y="1554.466" rx=".458" ry=".458" style="fill:#606060;fill-opacity:1;stroke:none;stroke-width:2.53369;stroke-linecap:round;stroke-linejoin:round;stroke-miterlimit:5;stroke-dasharray:none;stroke-opacity:1;paint-order:fill markers stroke" transform="scale(1 -1)rotate(-30.372)"/><rect width="1.724" height="1.729" x="1228.03" y="2676.223" rx=".458" ry=".458" style="fill:#606060;fill-opacity:1;stroke:none;stroke-width:2.53369;stroke-linecap:round;stroke-linejoin:round;stroke-miterlimit:5;stroke-dasharray:none;stroke-opacity:1;paint-order:fill markers stroke" transform="scale(1 -1)rotate(-63.961)"/><rect width="1.724" height="1.729" x="2518.432" y="-1524.303" rx=".458" ry=".458" style="fill:#606060;fill-opacity:1;stroke:none;stroke-width:2.53369;stroke-linecap:round;stroke-linejoin:round;stroke-miterlimit:5;stroke-dasharray:none;stroke-opacity:1;paint-order:fill markers stroke" transform="scale(1 -1)rotate(32.706)"/><rect width="1.724" height="1.729" x="1870.631" y="2280.957" rx=".458" ry=".458" style="fill:#606060;fill-opacity:1;stroke:none;stroke-width:2.53369;stroke-linecap:round;stroke-linejoin:round;stroke-miterlimit:5;stroke-dasharray:none;stroke-opacity:1;paint-order:fill markers stroke" transform="scale(1 -1)rotate(-49.108)"/><rect width="1.724" height="1.729" x="1822.111" y="-2296.813" rx=".458" ry=".458" style="fill:#606060;fill-opacity:1;stroke:none;stroke-width:2.53369;stroke-linecap:round;stroke-linejoin:round;stroke-miterlimit:5;stroke-dasharray:none;stroke-opacity:1;paint-order:fill markers stroke" transform="scale(1 -1)rotate(52.568)"/><rect width="1.724" height="1.729" x="1363.527" y="2552.63" rx=".458" ry=".458" style="fill:#606060;fill-opacity:1;stroke:none;stroke-width:2.53369;stroke-linecap:round;stroke-linejoin:round;stroke-miterlimit:5;stroke-dasharray:none;stroke-opacity:1;paint-order:fill markers stroke" transform="scale(1 -1)rotate(-60.562)"/><rect width="1.724" height="1.729" x="2445.129" y="1591.324" rx=".458" ry=".458" style="fill:#606060;fill-opacity:1;stroke:none;stroke-width:2.53369;stroke-linecap:round;stroke-linejoin:round;stroke-miterlimit:5;stroke-dasharray:none;stroke-opacity:1;paint-order:fill markers stroke" transform="scale(1 -1)rotate(-31.386)"/><rect width="1.724" height="1.729" x="2838.992" y="-761.004" rx=".458" ry=".458" style="fill:#606060;fill-opacity:1;stroke:none;stroke-width:2.53369;stroke-linecap:round;stroke-linejoin:round;stroke-miterlimit:5;stroke-dasharray:none;stroke-opacity:1;paint-order:fill markers stroke" transform="scale(1 -1)rotate(16.306)"/><rect width="1.724" height="1.729" x="2122.728" y="-1980.31" rx=".458" ry=".458" style="fill:#606060;fill-opacity:1;stroke:none;stroke-width:2.53369;stroke-linecap:round;stroke-linejoin:round;stroke-miterlimit:5;stroke-dasharray:none;stroke-opacity:1;paint-order:fill markers stroke" transform="scale(1 -1)rotate(44.567)"/><rect width="1.724" height="1.729" x="2086.249" y="-2058.593" rx=".458" ry=".458" style="fill:#606060;fill-opacity:1;stroke:none;stroke-width:2.53369;stroke-linecap:round;stroke-linejoin:round;stroke-miterlimit:5;stroke-dasharray:none;stroke-opacity:1;paint-order:fill markers stroke" transform="scale(1 -1)rotate(46.288)"/><rect width="4.33" height="1.729" x="2776.585" y="-1015.1" rx=".458" ry=".458" style="fill:#606060;fill-opacity:1;stroke:none;stroke-width:2.53369;stroke-linecap:round;stroke-linejoin:round;stroke-miterlimit:5;stroke-dasharray:none;stroke-opacity:1;paint-order:fill markers stroke" transform="scale(1 -1)rotate(21.614)"/><g transform="scale(1 -1)rotate(51.601 39.892 6183.404)"><path d="M-2979.334 124.766h32.422v12.701h-32.422z" style="fill:#3e3e3e;fill-opacity:1;stroke:#1f1f1f;stroke-width:1.462;stroke-linecap:round;stroke-linejoin:round;stroke-miterlimit:5;stroke-dasharray:none;stroke-opacity:1;paint-order:fill markers stroke"/><rect width="1.724" height="1.729" x="-2977.673" y="126.364" rx=".458" ry=".458" style="fill:#606060;fill-opacity:1;stroke:none;stroke-width:2.53369;stroke-linecap:round;stroke-linejoin:round;stroke-miterlimit:5;stroke-dasharray:none;stroke-opacity:1;paint-order:fill markers stroke"/><rect width="1.724" height="1.729" x="-2977.673" y="134.558" rx=".458" ry=".458" style="fill:#606060;fill-opacity:1;stroke:none;stroke-width:2.53369;stroke-linecap:round;stroke-linejoin:round;stroke-miterlimit:5;stroke-dasharray:none;stroke-opacity:1;paint-order:fill markers stroke"/><rect width="1.724" height="1.729" x="-2975.605" y="134.477" rx=".458" ry=".458" style="fill:#606060;fill-opacity:1;stroke:none;stroke-width:2.53369;stroke-linecap:round;stroke-linejoin:round;stroke-miterlimit:5;stroke-dasharray:none;stroke-opacity:1;paint-order:fill markers stroke"/><rect width="1.724" height="1.729" x="-2973.537" y="134.477" rx=".458" ry=".458" style="fill:#606060;fill-opacity:1;stroke:none;stroke-width:2.53369;stroke-linecap:round;stroke-linejoin:round;stroke-miterlimit:5;stroke-dasharray:none;stroke-opacity:1;paint-order:fill markers stroke"/><rect width="1.724" height="1.729" x="-2971.469" y="134.477" rx=".458" ry=".458" style="fill:#606060;fill-opacity:1;stroke:none;stroke-width:2.53369;stroke-linecap:round;stroke-linejoin:round;stroke-miterlimit:5;stroke-dasharray:none;stroke-opacity:1;paint-order:fill markers stroke"/><rect width="1.724" height="1.729" x="-2956.992" y="134.52" rx=".458" ry=".458" style="fill:#606060;fill-opacity:1;stroke:none;stroke-width:2.53369;stroke-linecap:round;stroke-linejoin:round;stroke-miterlimit:5;stroke-dasharray:none;stroke-opacity:1;paint-order:fill markers stroke"/><rect width="1.724" height="1.729" x="-2954.924" y="134.516" rx=".458" ry=".458" style="fill:#606060;fill-opacity:1;stroke:none;stroke-width:2.53369;stroke-linecap:round;stroke-linejoin:round;stroke-miterlimit:5;stroke-dasharray:none;stroke-opacity:1;paint-order:fill markers stroke"/><rect width="2.262" height="1.729" x="-2950.788" y="134.516" rx=".458" ry=".458" style="fill:#606060;fill-opacity:1;stroke:none;stroke-width:2.53369;stroke-linecap:round;stroke-linejoin:round;stroke-miterlimit:5;stroke-dasharray:none;stroke-opacity:1;paint-order:fill markers stroke"/><rect width="12.065" height="1.729" x="-2969.401" y="134.477" rx=".458" ry=".458" style="fill:#606060;fill-opacity:1;stroke:none;stroke-width:2.53369;stroke-linecap:round;stroke-linejoin:round;stroke-miterlimit:5;stroke-dasharray:none;stroke-opacity:1;paint-order:fill markers stroke"/><rect width="2.763" height="1.729" x="-2977.659" y="128.482" rx=".458" ry=".458" style="fill:#606060;fill-opacity:1;stroke:none;stroke-width:2.53369;stroke-linecap:round;stroke-linejoin:round;stroke-miterlimit:5;stroke-dasharray:none;stroke-opacity:1;paint-order:fill markers stroke"/><rect width="3.301" height="1.729" x="-2977.673" y="130.457" rx=".458" ry=".458" style="fill:#606060;fill-opacity:1;stroke:none;stroke-width:2.53369;stroke-linecap:round;stroke-linejoin:round;stroke-miterlimit:5;stroke-dasharray:none;stroke-opacity:1;paint-order:fill markers stroke"/><rect width="4.795" height="1.737" x="-2953.321" y="132.499" rx=".458" ry=".458" style="fill:#606060;fill-opacity:1;stroke:none;stroke-width:2.53369;stroke-linecap:round;stroke-linejoin:round;stroke-miterlimit:5;stroke-dasharray:none;stroke-opacity:1;paint-order:fill markers stroke"/><rect width="1.724" height="1.729" x="-2975.605" y="126.364" rx=".458" ry=".458" style="fill:#606060;fill-opacity:1;stroke:none;stroke-width:2.53369;stroke-linecap:round;stroke-linejoin:round;stroke-miterlimit:5;stroke-dasharray:none;stroke-opacity:1;paint-order:fill markers stroke"/><rect width="1.724" height="1.729" x="-2973.927" y="130.495" rx=".458" ry=".458" style="fill:#606060;fill-opacity:1;stroke:none;stroke-width:2.53369;stroke-linecap:round;stroke-linejoin:round;stroke-miterlimit:5;stroke-dasharray:none;stroke-opacity:1;paint-order:fill markers stroke"/><rect width="1.724" height="1.729" x="-2969.768" y="130.495" rx=".458" ry=".458" style="fill:#606060;fill-opacity:1;stroke:none;stroke-width:2.53369;stroke-linecap:round;stroke-linejoin:round;stroke-miterlimit:5;stroke-dasharray:none;stroke-opacity:1;paint-order:fill markers stroke"/><rect width="1.724" height="1.729" x="-2967.714" y="130.495" rx=".458" ry=".458" style="fill:#606060;fill-opacity:1;stroke:none;stroke-width:2.53369;stroke-linecap:round;stroke-linejoin:round;stroke-miterlimit:5;stroke-dasharray:none;stroke-opacity:1;paint-order:fill markers stroke"/><rect width="1.724" height="1.729" x="-2965.659" y="130.495" rx=".458" ry=".458" style="fill:#606060;fill-opacity:1;stroke:none;stroke-width:2.53369;stroke-linecap:round;stroke-linejoin:round;stroke-miterlimit:5;stroke-dasharray:none;stroke-opacity:1;paint-order:fill markers stroke"/><rect width="1.724" height="1.729" x="-2963.604" y="130.495" rx=".458" ry=".458" style="fill:#606060;fill-opacity:1;stroke:none;stroke-width:2.53369;stroke-linecap:round;stroke-linejoin:round;stroke-miterlimit:5;stroke-dasharray:none;stroke-opacity:1;paint-order:fill markers stroke"/><rect width="1.724" height="1.729" x="-2961.55" y="130.495" rx=".458" ry=".458" style="fill:#606060;fill-opacity:1;stroke:none;stroke-width:2.53369;stroke-linecap:round;stroke-linejoin:round;stroke-miterlimit:5;stroke-dasharray:none;stroke-opacity:1;paint-order:fill markers stroke"/><rect width="1.724" height="1.729" x="-2957.44" y="130.495" rx=".458" ry=".458" style="fill:#606060;fill-opacity:1;stroke:none;stroke-width:2.53369;stroke-linecap:round;stroke-linejoin:round;stroke-miterlimit:5;stroke-dasharray:none;stroke-opacity:1;paint-order:fill markers stroke"/><rect width="1.724" height="1.729" x="-2955.385" y="130.491" rx=".458" ry=".458" style="fill:#606060;fill-opacity:1;stroke:none;stroke-width:2.53369;stroke-linecap:round;stroke-linejoin:round;stroke-miterlimit:5;stroke-dasharray:none;stroke-opacity:1;paint-order:fill markers stroke"/><rect width="1.724" height="1.729" x="-2973.065" y="132.507" rx=".458" ry=".458" style="fill:#606060;fill-opacity:1;stroke:none;stroke-width:2.53369;stroke-linecap:round;stroke-linejoin:round;stroke-miterlimit:5;stroke-dasharray:none;stroke-opacity:1;paint-order:fill markers stroke"/><rect width="1.724" height="1.729" x="-2970.869" y="132.507" rx=".458" ry=".458" style="fill:#606060;fill-opacity:1;stroke:none;stroke-width:2.53369;stroke-linecap:round;stroke-linejoin:round;stroke-miterlimit:5;stroke-dasharray:none;stroke-opacity:1;paint-order:fill markers stroke"/><rect width="1.724" height="1.729" x="-2966.476" y="132.507" rx=".458" ry=".458" style="fill:#606060;fill-opacity:1;stroke:none;stroke-width:2.53369;stroke-linecap:round;stroke-linejoin:round;stroke-miterlimit:5;stroke-dasharray:none;stroke-opacity:1;paint-order:fill markers stroke"/><rect width="1.724" height="1.729" x="-2964.279" y="132.507" rx=".458" ry=".458" style="fill:#606060;fill-opacity:1;stroke:none;stroke-width:2.53369;stroke-linecap:round;stroke-linejoin:round;stroke-miterlimit:5;stroke-dasharray:none;stroke-opacity:1;paint-order:fill markers stroke"/><rect width="1.724" height="1.729" x="-2962.083" y="132.507" rx=".458" ry=".458" style="fill:#606060;fill-opacity:1;stroke:none;stroke-width:2.53369;stroke-linecap:round;stroke-linejoin:round;stroke-miterlimit:5;stroke-dasharray:none;stroke-opacity:1;paint-order:fill markers stroke"/><rect width="1.724" height="1.729" x="-2959.887" y="132.507" rx=".458" ry=".458" style="fill:#606060;fill-opacity:1;stroke:none;stroke-width:2.53369;stroke-linecap:round;stroke-linejoin:round;stroke-miterlimit:5;stroke-dasharray:none;stroke-opacity:1;paint-order:fill markers stroke"/><rect width="1.724" height="1.729" x="-2957.69" y="132.507" rx=".458" ry=".458" style="fill:#606060;fill-opacity:1;stroke:none;stroke-width:2.53369;stroke-linecap:round;stroke-linejoin:round;stroke-miterlimit:5;stroke-dasharray:none;stroke-opacity:1;paint-order:fill markers stroke"/><rect width="1.724" height="1.729" x="-2955.494" y="132.499" rx=".458" ry=".458" style="fill:#606060;fill-opacity:1;stroke:none;stroke-width:2.53369;stroke-linecap:round;stroke-linejoin:round;stroke-miterlimit:5;stroke-dasharray:none;stroke-opacity:1;paint-order:fill markers stroke"/><rect width="1.724" height="1.729" x="-2970.384" y="128.482" rx=".458" ry=".458" style="fill:#606060;fill-opacity:1;stroke:none;stroke-width:2.53369;stroke-linecap:round;stroke-linejoin:round;stroke-miterlimit:5;stroke-dasharray:none;stroke-opacity:1;paint-order:fill markers stroke"/><rect width="1.724" height="1.729" x="-2968.316" y="128.482" rx=".458" ry=".458" style="fill:#606060;fill-opacity:1;stroke:none;stroke-width:2.53369;stroke-linecap:round;stroke-linejoin:round;stroke-miterlimit:5;stroke-dasharray:none;stroke-opacity:1;paint-order:fill markers stroke"/><rect width="1.724" height="1.729" x="-2966.248" y="128.482" rx=".458" ry=".458" style="fill:#606060;fill-opacity:1;stroke:none;stroke-width:2.53369;stroke-linecap:round;stroke-linejoin:round;stroke-miterlimit:5;stroke-dasharray:none;stroke-opacity:1;paint-order:fill markers stroke"/><rect width="1.724" height="1.729" x="-2962.111" y="128.482" rx=".458" ry=".458" style="fill:#606060;fill-opacity:1;stroke:none;stroke-width:2.53369;stroke-linecap:round;stroke-linejoin:round;stroke-miterlimit:5;stroke-dasharray:none;stroke-opacity:1;paint-order:fill markers stroke"/><rect width="1.724" height="1.729" x="-2960.043" y="128.482" rx=".458" ry=".458" style="fill:#606060;fill-opacity:1;stroke:none;stroke-width:2.53369;stroke-linecap:round;stroke-linejoin:round;stroke-miterlimit:5;stroke-dasharray:none;stroke-opacity:1;paint-order:fill markers stroke"/><rect width="1.724" height="1.729" x="-2957.975" y="128.482" rx=".458" ry=".458" style="fill:#606060;fill-opacity:1;stroke:none;stroke-width:2.53369;stroke-linecap:round;stroke-linejoin:round;stroke-miterlimit:5;stroke-dasharray:none;stroke-opacity:1;paint-order:fill markers stroke"/><rect width="1.724" height="1.729" x="-2953.839" y="128.428" rx=".458" ry=".458" style="fill:#606060;fill-opacity:1;stroke:none;stroke-width:2.53369;stroke-linecap:round;stroke-linejoin:round;stroke-miterlimit:5;stroke-dasharray:none;stroke-opacity:1;paint-order:fill markers stroke"/><rect width="1.724" height="1.729" x="-2973.537" y="126.364" rx=".458" ry=".458" style="fill:#606060;fill-opacity:1;stroke:none;stroke-width:2.53369;stroke-linecap:round;stroke-linejoin:round;stroke-miterlimit:5;stroke-dasharray:none;stroke-opacity:1;paint-order:fill markers stroke"/><rect width="1.724" height="1.729" x="-2971.469" y="126.364" rx=".458" ry=".458" style="fill:#606060;fill-opacity:1;stroke:none;stroke-width:2.53369;stroke-linecap:round;stroke-linejoin:round;stroke-miterlimit:5;stroke-dasharray:none;stroke-opacity:1;paint-order:fill markers stroke"/><rect width="1.724" height="1.729" x="-2969.401" y="126.364" rx=".458" ry=".458" style="fill:#606060;fill-opacity:1;stroke:none;stroke-width:2.53369;stroke-linecap:round;stroke-linejoin:round;stroke-miterlimit:5;stroke-dasharray:none;stroke-opacity:1;paint-order:fill markers stroke"/><rect width="1.724" height="1.729" x="-2967.332" y="126.364" rx=".458" ry=".458" style="fill:#606060;fill-opacity:1;stroke:none;stroke-width:2.53369;stroke-linecap:round;stroke-linejoin:round;stroke-miterlimit:5;stroke-dasharray:none;stroke-opacity:1;paint-order:fill markers stroke"/><rect width="1.724" height="1.729" x="-2965.265" y="126.364" rx=".458" ry=".458" style="fill:#606060;fill-opacity:1;stroke:none;stroke-width:2.53369;stroke-linecap:round;stroke-linejoin:round;stroke-miterlimit:5;stroke-dasharray:none;stroke-opacity:1;paint-order:fill markers stroke"/><rect width="1.724" height="1.729" x="-2961.128" y="126.364" rx=".458" ry=".458" style="fill:#606060;fill-opacity:1;stroke:none;stroke-width:2.53369;stroke-linecap:round;stroke-linejoin:round;stroke-miterlimit:5;stroke-dasharray:none;stroke-opacity:1;paint-order:fill markers stroke"/><rect width="1.724" height="1.729" x="-2956.992" y="126.364" rx=".458" ry=".458" style="fill:#606060;fill-opacity:1;stroke:none;stroke-width:2.53369;stroke-linecap:round;stroke-linejoin:round;stroke-miterlimit:5;stroke-dasharray:none;stroke-opacity:1;paint-order:fill markers stroke"/><rect width="1.724" height="1.729" x="-2954.924" y="126.364" rx=".458" ry=".458" style="fill:#606060;fill-opacity:1;stroke:none;stroke-width:2.53369;stroke-linecap:round;stroke-linejoin:round;stroke-miterlimit:5;stroke-dasharray:none;stroke-opacity:1;paint-order:fill markers stroke"/><rect width="4.543" height="1.696" x="-2953.069" y="130.491" rx=".458" ry=".458" style="fill:#606060;fill-opacity:1;stroke:none;stroke-width:2.53369;stroke-linecap:round;stroke-linejoin:round;stroke-miterlimit:5;stroke-dasharray:none;stroke-opacity:1;paint-order:fill markers stroke"/></g><rect width="3.285" height="1.783" x="1527.549" y="2450.293" rx=".458" ry=".458" style="fill:#606060;fill-opacity:1;stroke:none;stroke-width:2.53369;stroke-linecap:round;stroke-linejoin:round;stroke-miterlimit:5;stroke-dasharray:none;stroke-opacity:1;paint-order:fill markers stroke" transform="scale(1 -1)rotate(-56.749)"/><rect width="15.025" height="7.049" x="-344.917" y="-2937.099" ry="0" style="fill:#3e3e3e;fill-opacity:1;stroke:#1f1f1f;stroke-width:1.46199;stroke-linecap:round;stroke-linejoin:round;stroke-miterlimit:5;stroke-dasharray:none;stroke-opacity:1;paint-order:fill markers stroke" transform="scale(-1 1)rotate(-82.308)"/><path d="M2960.81-51.766a1.254 1.254 0 0 0 1.755.279l10.161-7.373a1.254 1.254 0 0 0 .28-1.756l-3.675-5.064-6.81 3.339-.314 1.83-6.608 1.563z" style="fill:#9a8a59;fill-opacity:1;stroke:#30291b;stroke-width:1.05833;stroke-linecap:round;stroke-linejoin:round;stroke-miterlimit:5;stroke-dasharray:none;stroke-opacity:1;paint-order:fill markers stroke"/><path d="M2798.811 984.16h11.113v15.346h-11.113z" style="fill:#f3f3f3;fill-opacity:1;stroke:#999;stroke-width:1.2;stroke-linecap:round;stroke-linejoin:round;stroke-dasharray:none;stroke-opacity:1;stop-color:#000" transform="scale(1 -1)rotate(-18.064)"/><rect width="4.397" height=".608" x="2802.236" y="986.033" rx=".033" ry=".033" style="fill:#999;fill-opacity:1;stroke:none;stroke-width:1.19372;stroke-linecap:round;stroke-linejoin:round;stroke-miterlimit:5;stroke-dasharray:none;stroke-opacity:1;paint-order:fill markers stroke" transform="scale(1 -1)rotate(-18.064)"/><rect width="8.419" height=".608" x="2800.131" y="987.507" rx=".033" ry=".033" style="fill:#999;fill-opacity:1;stroke:none;stroke-width:1.19372;stroke-linecap:round;stroke-linejoin:round;stroke-miterlimit:5;stroke-dasharray:none;stroke-opacity:1;paint-order:fill markers stroke" transform="scale(1 -1)rotate(-18.064)"/><rect width="8.419" height=".608" x="2800.131" y="988.73" rx=".033" ry=".033" style="fill:#999;fill-opacity:1;stroke:none;stroke-width:1.19372;stroke-linecap:round;stroke-linejoin:round;stroke-miterlimit:5;stroke-dasharray:none;stroke-opacity:1;paint-order:fill markers stroke" transform="scale(1 -1)rotate(-18.064)"/><rect width="8.419" height=".608" x="2800.131" y="989.987" rx=".033" ry=".033" style="fill:#999;fill-opacity:1;stroke:none;stroke-width:1.19372;stroke-linecap:round;stroke-linejoin:round;stroke-miterlimit:5;stroke-dasharray:none;stroke-opacity:1;paint-order:fill markers stroke" transform="scale(1 -1)rotate(-18.064)"/><rect width="8.419" height=".608" x="2800.131" y="991.211" rx=".033" ry=".033" style="fill:#999;fill-opacity:1;stroke:none;stroke-width:1.19372;stroke-linecap:round;stroke-linejoin:round;stroke-miterlimit:5;stroke-dasharray:none;stroke-opacity:1;paint-order:fill markers stroke" transform="scale(1 -1)rotate(-18.064)"/><rect width="8.419" height=".608" x="2800.131" y="992.418" rx=".033" ry=".033" style="fill:#999;fill-opacity:1;stroke:none;stroke-width:1.19372;stroke-linecap:round;stroke-linejoin:round;stroke-miterlimit:5;stroke-dasharray:none;stroke-opacity:1;paint-order:fill markers stroke" transform="scale(1 -1)rotate(-18.064)"/><rect width="8.419" height=".608" x="2800.131" y="993.642" rx=".033" ry=".033" style="fill:#999;fill-opacity:1;stroke:none;stroke-width:1.19372;stroke-linecap:round;stroke-linejoin:round;stroke-miterlimit:5;stroke-dasharray:none;stroke-opacity:1;paint-order:fill markers stroke" transform="scale(1 -1)rotate(-18.064)"/><rect width="8.419" height=".608" x="2800.131" y="994.898" rx=".033" ry=".033" style="fill:#999;fill-opacity:1;stroke:none;stroke-width:1.19372;stroke-linecap:round;stroke-linejoin:round;stroke-miterlimit:5;stroke-dasharray:none;stroke-opacity:1;paint-order:fill markers stroke" transform="scale(1 -1)rotate(-18.064)"/><rect width="4.5" height=".608" x="2800.131" y="996.122" rx=".033" ry=".033" style="fill:#999;fill-opacity:1;stroke:none;stroke-width:1.19372;stroke-linecap:round;stroke-linejoin:round;stroke-miterlimit:5;stroke-dasharray:none;stroke-opacity:1;paint-order:fill markers stroke" transform="scale(1 -1)rotate(-18.064)"/><rect width="2.648" height=".608" x="2805.869" y="997.792" rx=".033" ry=".033" style="fill:#999;fill-opacity:1;stroke:none;stroke-width:1.19372;stroke-linecap:round;stroke-linejoin:round;stroke-miterlimit:5;stroke-dasharray:none;stroke-opacity:1;paint-order:fill markers stroke" transform="scale(1 -1)rotate(-18.064)"/><g transform="rotate(-72.732 2951.326 -66.972)"><ellipse cx="2897.233" cy="567.538" rx="2.637" ry="3.979" style="fill:#3e3e3e;fill-opacity:1;stroke:#1f1f1f;stroke-width:1.462;stroke-linecap:square;stroke-linejoin:miter;stroke-miterlimit:5;stroke-dasharray:none;stroke-opacity:1;paint-order:fill markers stroke" transform="matrix(.98537 .17044 .16938 -.98555 0 0)"/><rect width=".771" height="3.853" x="-2892.361" y="-590.835" rx=".033" ry=".033" style="fill:#1f1f1f;fill-opacity:1;stroke:#1f1f1f;stroke-width:.1;stroke-linecap:round;stroke-linejoin:round;stroke-dasharray:none;stroke-opacity:1;stop-color:#000" transform="scale(-1 1)rotate(-10.277)"/></g><g transform="scale(-1 1)rotate(-32.228 88.987 10106.753)"><rect width="30.673" height="16.611" x="-2975.778" y="97.187" ry="0" style="fill:#454545;fill-opacity:1;stroke:#1f1f1f;stroke-width:1.462;stroke-linecap:square;stroke-linejoin:miter;stroke-miterlimit:5;stroke-dasharray:none;stroke-opacity:1;paint-order:fill markers stroke" transform="scale(-1)"/><path d="M2947.02 99.101h26.842v12.784h-26.842z" style="fill:#000;fill-opacity:1;stroke:none;stroke-width:2.30002;stroke-linecap:round;stroke-dasharray:none" transform="scale(1 -1)"/><path d="m2956.145-103.281 1.988 1.911 2.282-2.018 3.205 2.352.631-4.14 1.778-1.65-3.451-.336.892-3.087-2.416 1.4-1.6-1.759-.645 2.318-2.525-1.643.7 2.54-3.506-.364 1.614 1.948-1.72 2.69z" style="fill:#272727;fill-opacity:1;stroke:none;stroke-width:2.30002;stroke-linecap:round;stroke-dasharray:none"/></g><path d="m2885.498-54.09 1.34-.134.353-.523.691.206-.327.694 1.126-.552.503.227-.335.82 1.384-.77.35.788-1.193.975.131 1.706 9.452-11.064-1.087.375s-1.176.347-1.262.34c-.086-.008.68-.714.68-.714l-.086-.742-.67.685-1.143.844.862-2.149-.623.553-.579-.37.693-.832-.988.251.18-1.678zM2967.733-105.432l-.226 1.14.951.431.286.767-1.26-.081 1.131 1.455-.653-.03.47.691-.335.671-.622-.14-.85.08-1.19-.218 13.11 6.32-1.523-1.334-.138-.548.673-.536-1.686-.997 2.436.048-.832-.644.464-.366-.246-.811 3.149.42zM2954.544-72.084l-.6-1.166.042-.692-.53-.416-.01-.866.846.4.402-.113.376-.318-.45-.679.277-.142.342.015.161-.458.44.129.537-.266.294.139.56-.125-12.344-7.548-.02.033.704 1.155.448.713.12.51-.456-.158-.083.533.43.805-1.003-.671-.247.304.215.254.377.961-1.55-.414.254.608-1.934-.144-.013.027z" style="fill:#61341a;fill-opacity:1;stroke:#1d0f07;stroke-width:.529167;stroke-linecap:square;stroke-linejoin:miter;stroke-miterlimit:4;stroke-dasharray:none;stroke-opacity:1"/><path d="m2970.617-71.29 3.85-5.457-1.225 4.383 1.777-2.969-.975 3.85 1.335-1.61-.582 3.342 6.16-16.716-.78.735-2.447 3.71 1.802-4.293-2.387 3.215.994-2.747-.664.152-1.622 2.655.925-4.967zM2977.458-48.181l-.295-3.653.974 1.227-.593-2.174 1.679 2.881-.358-2 .546-.585.62 1.392 1.581 1.306-6.423-16.617s.35 3.523.304 3.439-1.174-1.222-1.174-1.222l.419 1.295.89 2.351-1.14-1.35.65 2.512-2-3.383.377 2.056-2.48-4.092z" style="fill:#61341a;fill-opacity:1;stroke:#1d0f07;stroke-width:.529167;stroke-linecap:square;stroke-opacity:1"/></g></svg>