<svg xmlns="http://www.w3.org/2000/svg" width="40" height="247.943" viewBox="0 0 10.583 65.602"><path d="M124.354 40.876v63.483" style="fill:#000;fill-opacity:.113953;stroke:#2d222d;stroke-width:10.5834;stroke-dasharray:none;stroke-opacity:1" transform="translate(-119.063 -39.687)"/><path d="M124.354 39.687v65.602" style="fill:#000;fill-opacity:.113953;stroke:#554255;stroke-width:6.08542;stroke-dasharray:none;stroke-opacity:1" transform="translate(-119.063 -39.687)"/><path d="M121.312 77c.05 3.826.068 6.393.063 8.314 0 .422 1.057-.366 1.495-.273.56.118.608-.47.755-.847.196-.507.508-1.008.964-1.318.523-.355 1.304-.11 1.773-.508.399-.34-.439-.828-.721-1.124a14 14 0 0 1-1.53-1.936c-.382-.579-.765-1.154-1.113-1.755-.27-.466-.51-1.78-.936-1.337-.25.262-.755.422-.75.784" style="fill:#a0a0a0;fill-opacity:1;stroke:none;stroke-width:1.5;stroke-linecap:square;stroke-linejoin:round;stroke-dasharray:none;stroke-opacity:1;paint-order:fill markers stroke;stop-color:#000" transform="translate(-119.063 -39.687)"/><path d="M127.528 62.794c.053-1.712.057-1.25 0-7.684 0-.948-1.712-1.057-2.626-.745-.845.288-2.83 1.475-1.997 1.798 2.996 1.158-.452 2.467-.016 3.57a5.17 5.17 0 0 0 1.938 2.372" style="fill:#a0a0a0;fill-opacity:1;stroke:none;stroke-width:2.55899;stroke-linecap:square;stroke-linejoin:round;stroke-dasharray:none;stroke-opacity:1;paint-order:fill markers stroke;stop-color:#000" transform="translate(-119.063 -39.687)"/></svg>