<svg xmlns="http://www.w3.org/2000/svg" xml:space="preserve" width="545.521" height="545.875"><path fill="#5b3e24" d="m284.976 191.18-64.47 35.12-50.734 111.316-7.158 59.957 21.233 66.162 11.365-78.672 54.739-64.499 20.247 80.177-16.49 64.77 68.063 75.866-30.902-73.971 41.516-106.982-30.821-68.34 84.869 21.908 101.9-6.597 52.69-96.547-65.8 57.113-60.787 20.658-92.107-39.575 26.266-29.562 21.022-61.214-56.104-120.685 8.497 103.746z" style="stroke:#372516;stroke-width:9;stroke-linecap:round;stroke-linejoin:round;stroke-dasharray:none;stroke-opacity:1"/><path d="m161.983 4.498 92.82 103.41-12.023 53.793 33.586 43.657 43.745 16.364 67.22-19.918 16.183-48.547 34.855-46.059 79.668 2.49-60.996 34.855-18.672 32.365-12.448 48.548-85.893 39.834 57.262 73.445 31.12 70.954 2.49 44.814 54.772 82.158-93.361-64.73-3.735-58.507-41.079-70.955-30.055-26.143-19.116 24.452 6.847 44.015-89.627 118.258 38.59-130.706-26.453-58.465-97.668 7.435-64.953-33.065-60.564-70.92 77.732 45.903 59.803 4.132 72.98-43.57-19.734-41.46 5.02-65.848z" style="fill:#6d4a2c;fill-opacity:1;stroke:#372516;stroke-width:8.99905;stroke-linecap:square;stroke-linejoin:round;stroke-dasharray:none;stroke-opacity:1"/></svg>