<?xml version="1.0" encoding="UTF-8" standalone="no"?>
<!-- Generator: Adobe Illustrator 27.0.0, SVG Export Plug-In . SVG Version: 6.00 Build 0)  -->

<svg
   version="1.1"
   id="svg52"
   x="0px"
   y="0px"
   viewBox="0 0 545.52112 545.87505"
   xml:space="preserve"
   sodipodi:docname="big_oak_tree_trunk_1.svg"
   width="545.52112"
   height="545.87506"
   inkscape:version="1.4.2 (1:1.4.2+202505120737+ebf0e940d0)"
   xmlns:inkscape="http://www.inkscape.org/namespaces/inkscape"
   xmlns:sodipodi="http://sodipodi.sourceforge.net/DTD/sodipodi-0.dtd"
   xmlns="http://www.w3.org/2000/svg"
   xmlns:svg="http://www.w3.org/2000/svg"><defs
   id="defs31" />
<style
   type="text/css"
   id="style2">
	.st0{opacity:0.9;fill:#63462B;enable-background:new    ;}
	.st1{fill:#70553D;stroke:#4A2809;stroke-width:9;stroke-linejoin:round;stroke-miterlimit:16;}
	.st2{opacity:0.95;fill:#69371C;fill-opacity:0.852;enable-background:new    ;}
	.st3{opacity:0.8;fill:#73452C;fill-opacity:0.8039;enable-background:new    ;}
	.st4{fill:#845B45;fill-opacity:0.8971;}
	.st5{fill:#8D6753;fill-opacity:0.8978;}
</style>
<sodipodi:namedview
   bordercolor="#ffffff"
   borderopacity="1"
   height="609.877px"
   id="namedview54"
   inkscape:current-layer="svg52"
   inkscape:cx="358.6682"
   inkscape:cy="102.38347"
   inkscape:deskcolor="#505050"
   inkscape:pagecheckerboard="1"
   inkscape:pageopacity="0"
   inkscape:pageshadow="0"
   inkscape:showpageshadow="2"
   inkscape:window-height="1368"
   inkscape:window-maximized="1"
   inkscape:window-width="2560"
   inkscape:window-x="0"
   inkscape:window-y="0"
   inkscape:zoom="0.76672535"
   pagecolor="#505050"
   showgrid="false">
	</sodipodi:namedview>

























<path
   d="m 284.9755,191.1791 -64.47043,35.12051 -50.7326,111.31615 -7.1588,59.95767 21.23376,66.16139 11.36429,-78.67162 54.7389,-64.49877 20.24692,80.17663 -16.49007,64.76938 68.064,75.86646 -30.90255,-73.97102 41.51584,-106.98142 -30.82092,-68.34104 84.86892,21.90841 101.9006,-6.59679 52.68888,-96.54728 -65.79969,57.1132 -60.78614,20.65776 -92.10784,-39.57467 26.26658,-29.56158 21.02173,-61.21436 -56.10406,-120.685227 8.49751,103.745757 z"
   fill="#5b3e24"
   id="path2-690-0-3-6"
   style="stroke:#372516;stroke-width:9;stroke-linecap:round;stroke-linejoin:round;stroke-dasharray:none;stroke-opacity:1"
   sodipodi:nodetypes="cccccccccccccccccccccccc" /><path
   style="fill:#6d4a2c;fill-opacity:1;stroke:#372516;stroke-width:8.99905;stroke-linecap:square;stroke-linejoin:round;stroke-dasharray:none;stroke-opacity:1"
   d="m 161.98287,4.4980327 92.82066,103.4101373 -12.02381,53.79288 33.58601,43.65695 43.74539,16.36384 67.22041,-19.91735 16.18243,-48.54766 34.8548,-46.05845 79.66866,2.48957 -60.99628,34.8548 -18.67238,32.36561 -12.44787,48.54766 -85.89279,39.83433 57.26173,73.44415 31.12063,70.95497 2.48957,44.8131 54.77178,82.15824 -93.36113,-64.73046 -3.73455,-58.50671 -41.07893,-70.95458 -30.0548,-26.143 -19.11648,24.45204 6.84737,44.01486 -89.62696,118.25802 38.58936,-130.70627 -26.45292,-58.46438 -97.6679,7.43509 -64.953083,-33.0652 -60.5639021,-70.92019 77.7316551,45.90274 59.80347,4.13254 72.98003,-43.57078 -19.73405,-41.45877 5.01922,-65.84844 z"
   id="path25"
   sodipodi:nodetypes="ccccccccccccccccccccccccccccccccccc" /></svg>
