<?xml version="1.0" encoding="UTF-8" standalone="no"?>
<svg
   width="512.94977"
   height="551.84186"
   viewBox="0 0 512.94978 551.84186"
   fill="none"
   version="1.1"
   id="svg60"
   sodipodi:docname="big_oak_tree_trunk_6.svg"
   inkscape:version="1.4.2 (1:1.4.2+202505120737+ebf0e940d0)"
   xmlns:inkscape="http://www.inkscape.org/namespaces/inkscape"
   xmlns:sodipodi="http://sodipodi.sourceforge.net/DTD/sodipodi-0.dtd"
   xmlns="http://www.w3.org/2000/svg"
   xmlns:svg="http://www.w3.org/2000/svg">
  <defs
     id="defs64" />
  <sodipodi:namedview
     id="namedview62"
     pagecolor="#505050"
     bordercolor="#ffffff"
     borderopacity="1"
     inkscape:pageshadow="0"
     inkscape:pageopacity="0"
     inkscape:pagecheckerboard="1"
     showgrid="false"
     width="368.403px"
     inkscape:zoom="1.0794827"
     inkscape:cx="150.99825"
     inkscape:cy="248.73025"
     inkscape:window-width="2560"
     inkscape:window-height="1368"
     inkscape:window-x="0"
     inkscape:window-y="0"
     inkscape:window-maximized="1"
     inkscape:current-layer="svg60"
     inkscape:showpageshadow="2"
     inkscape:deskcolor="#505050" />
  <path
     d="m 277.58636,72.33354 -77.95993,143.26065 c 0,0 -28.13783,23.64941 -45.55994,39.48529 C 118.89458,287.04653 68.008537,341.138 68.008537,341.138 l 4.05014,84.53855 20.27603,-69.83566 102.737013,-55.20147 38.97864,91.62652 -90.79672,62.86737 -13.48573,94.06046 37.67244,-69.87382 c 0,0 48.03212,-26.07319 70.15408,-40.48078 23.52453,-15.32157 36.95433,-30.37331 36.95433,-30.37331 l 25.30961,35.4347 -16.19755,93.65057 54.35906,-102.7855 -87.26552,-135.13697 103.77601,-67.83455 18.22374,-75.93426 -39.82639,51.04244 -84.19729,32.48387 51.12794,-135.59524 64.89373,-36.91642 z"
     fill="#5b3e24"
     id="path2-98-6-7"
     style="stroke:#372516;stroke-width:11.16;stroke-dasharray:none;stroke-opacity:1" />
  <path
     d="m 199.6544,215.08754 7.08812,-49.6103 L 181.9371,80.93839 234.58517,4.4985026 218.89181,94.60637 l 39.48511,70.87087 -9.11207,73.90639 107.32007,21.76796 69.35168,-36.44799 82.51465,29.86666 -82.51465,10.12528 -69.35168,49.61057 -103.776,-13.66926 c 16.86198,43.27876 25.81606,110.35718 25.81606,110.35718 l -33.41065,68.34119 -14.68006,62.26397 -19.23704,-76.43989 19.23704,-67.3279 c 0,0 -14.16038,-62.52876 -34.93039,-97.19455 L 139.41439,320.8874 C 107.47814,322.80453 63.056217,310.01363 63.056217,310.01363 L 4.4988672,335.47321 51.599337,279.66326 h 64.022933 l 38.47257,-25.093 -29.86696,-39.48272 -19.13538,-49.6103 -57.284033,-42.08599 82.743693,24.1866 c 0,0 38.1891,59.83105 69.10224,67.50969 z"
     fill="#6d4a2c"
     stroke="#1b1917"
     stroke-width="12.3191"
     stroke-miterlimit="16"
     stroke-linejoin="round"
     id="path4-02-0-3"
     style="stroke:#372516;stroke-width:9;stroke-miterlimit:16;stroke-dasharray:none;stroke-opacity:1" />
</svg>
