<svg xmlns="http://www.w3.org/2000/svg" width="385.832" height="478.197" fill="none"><path fill="#5b3e24" d="M295.956 203.834s-42.908-5.646-58.716-5.646l-40.649-18.066-21.454-126.464L81.42 3.976l59.844 58.715 3.388 46.295 14.678 111.785-39.52 20.325-57.586-14.68L2.38 263.68l50.811-9.034 44.037 19.196 74.523-6.775 54.199 6.775 31.616 30.487 35.003 63.232-19.195 40.649 42.907-38.39-9.033-62.104-59.844-70.007 40.648-11.291 48.553 15.808c-12.043-10.914-40.648-38.39-40.648-38.39z" style="stroke:#372516;stroke-width:9;stroke-dasharray:none;stroke-opacity:1"/><path fill="#6d4a2c" stroke="#1b1917" stroke-linejoin="round" stroke-miterlimit="16" stroke-width="11.012" d="m171.867 269.243-36.873 24.823-40.911 66.583-81.621 10.78 68.651-43.234 23.187-68.123 54.074-37.935-49.466-83.592-65.221-23.992L14.3 42.475 70.017 90.78l73.886 16.168 52.69 76.448c18.469-36.829 34.005-58.6 34.005-58.6l60.841-28.23 42.908-53.07-29.358 85.816-53.07 37.261-21.32 54.481 43.223 38.642 71.38 20.325 36.131 73.394-62.58-45.166-60.495-9.033-33.314-23.45 2.827 55.066-18.76 69.474 15.933 73.394-50.936-74.523 9.033-54.2z" style="stroke:#372516;stroke-width:9;stroke-miterlimit:16;stroke-dasharray:none;stroke-opacity:1"/></svg>