<svg xmlns="http://www.w3.org/2000/svg" xml:space="preserve" width="355.688" height="42.132" viewBox="0 0 94.109 11.147"><g transform="scale(1 1.10467)rotate(90 737.89 7.238)"><rect width="10.091" height="93.218" x="-740.743" y="-744.436" ry="0" style="fill:#262626;fill-opacity:1;stroke-width:8.183;stroke-linecap:square;stop-color:#000" transform="rotate(180 0 0)"/><rect width="5.646" height="94.109" x="-738.53" y="-745.128" rx="0" ry="0" style="display:inline;fill:#5e5e5e;fill-opacity:1;stroke-width:.276951;paint-order:markers stroke fill;stop-color:#000" transform="scale(-1)"/></g><path d="m92.058 162.04 1.824-3.014-.951-1.983 1.744 2.062-.713 2.538M129.413 153.824l1.824 3.014-.952 1.982 1.745-2.062-.714-2.537M165.261 154.69l-1.824 3.014.952 1.982-1.745-2.062.714-2.537M111.146 154.862l-1.22 3.049 1.6 1.525-.152 1.524 1.068-2.515-.915-.686 2.82-3.278M151.79 162.533l-1.22-3.05 1.601-1.524-.152-1.525 1.067 2.516-.915.686 2.82 3.278" style="fill:#262626;fill-opacity:1;fill-rule:evenodd;stroke:#262626;stroke-width:.132292;stroke-linecap:round;stroke-linejoin:round;stroke-dasharray:none;stroke-opacity:1;paint-order:stroke fill markers" transform="translate(-82.179 -152.795)"/></svg>