<svg xmlns="http://www.w3.org/2000/svg" width="235.638" height="235.574" viewBox="0 0 62.346 62.329"><g transform="translate(-405.208 -493.161)"><path d="M342.132 518.12c-4.062.244-6.078 1.668-7.051 2.264-.487.298-.533.32-.777.305-.245-.015-.891-.195-2.073-.895a1.59 1.59 0 0 0-2.176.555 1.59 1.59 0 0 0 .557 2.176c1.375.814 2.414 1.267 3.496 1.334s2-.38 2.633-.768c1.265-.775 2.097-1.594 5.58-1.803a1.59 1.59 0 0 0 1.49-1.68 1.59 1.59 0 0 0-1.68-1.488M357.099 537.41a1.59 1.59 0 0 0-2.243.082c-1.46 1.57-2.133 3.131-2.232 4.531s.326 2.516.563 3.242c.236.727.21.844.21.844s-.404.49-2.033 1.045a1.59 1.59 0 0 0-.99 2.014 1.59 1.59 0 0 0 2.014.992c1.937-.66 3.193-1.35 3.836-2.605.642-1.256.243-2.474-.018-3.274-.26-.8-.459-1.404-.414-2.033.044-.629.282-1.403 1.389-2.594a1.59 1.59 0 0 0-.082-2.244M379.946 531.365a1.59 1.59 0 0 0-.592 2.167c1.241 2.174 2.294 3.49 3.387 4.322a5.14 5.14 0 0 0 3.12 1.05c.826-.01 1.206-.064 1.354-.023s.417.123 1.026 1.082a1.59 1.59 0 0 0 2.19.49 1.59 1.59 0 0 0 .49-2.191c-.845-1.33-1.818-2.153-2.862-2.441s-1.805-.096-2.238-.09-.602.019-1.159-.404c-.556-.424-1.429-1.401-2.552-3.37a1.59 1.59 0 0 0-2.164-.591M356.539 491.058a1.59 1.59 0 0 0-2.16.613c-1.157 2.075-1.636 3.629-1.22 5.098.414 1.469 1.653 2.161 2.487 2.584s1.422.735 1.661 1.034.457.677.125 2.119a1.59 1.59 0 0 0 1.192 1.902 1.59 1.59 0 0 0 1.904-1.191c.464-2.017.141-3.712-.742-4.815s-2.001-1.524-2.705-1.88c-.704-.358-.833-.492-.867-.615-.035-.124-.046-.925.938-2.69a1.59 1.59 0 0 0-.613-2.16M385.605 503.814c-.675.494-1.083 1.186-1.313 1.826-.462 1.278-.432 2.489-.552 3.402s-.295 1.251-.467 1.358-1.03.328-3.167-.365a1.59 1.59 0 0 0-2 1.02 1.59 1.59 0 0 0 1.021 2c2.52.817 4.375.939 5.818.044s1.788-2.463 1.943-3.642c.155-1.18.214-2.254.39-2.74.087-.243.15-.303.203-.342.053-.038.17-.119.602-.12a1.59 1.59 0 0 0 1.58-1.597 1.59 1.59 0 0 0-1.596-1.579c-.918.005-1.787.24-2.462.735" style="color:#000;fill:#5c563e;fill-opacity:1;fill-rule:evenodd;stroke:#3d3929;stroke-width:1.85208;stroke-linecap:round;stroke-linejoin:round;stroke-dasharray:none;stroke-opacity:1" transform="scale(1 -1)rotate(-60 -504.683 -64.325)"/><path d="M437.33 522.84c-4.014 6.934-7.887 14.539-9.484 19.674 5.619 1.729 14.599 2.642 17.015.746" style="fill:#654646;fill-opacity:1;stroke:#2d1f1f;stroke-width:1.85208;stroke-linejoin:round;stroke-dasharray:none;stroke-opacity:1"/><path d="M437.312 522.872c-7.753 2.071-15.772 4.899-20.54 7.403-.038 7.745 6.434 13.739 11.395 12.35 4.38-7.082 7.635-15.251 9.145-19.753z" style="fill:#654646;fill-opacity:1;stroke:#2d1f1f;stroke-width:1.85208;stroke-linejoin:round;stroke-dasharray:none;stroke-opacity:1"/><path d="M415.582 530.356c8.116-1.917 17.307-5.497 21.565-7.614-6.95-4.006-15.213-7.413-20.36-9.006" style="fill:#8a4c70;fill-opacity:1;stroke:#2f1d2f;stroke-width:1.85208;stroke-linejoin:round;stroke-dasharray:none;stroke-opacity:1"/><path d="M430.097 502.293c-7.762-.038-13.94 6.42-12.548 11.37 7.097 4.372 15.283 7.62 19.794 9.126" style="fill:#654646;fill-opacity:1;stroke:#2d1f1f;stroke-width:1.85208;stroke-linejoin:round;stroke-dasharray:none;stroke-opacity:1"/><path d="M437.187 522.797c4.014-6.934 7.945-14.768 9.542-19.903-5.462-5.504-14.548-5-17.072-.517 1.92 8.099 5.408 16.171 7.53 20.42z" style="fill:#654646;fill-opacity:1;stroke:#2d1f1f;stroke-width:1.85208;stroke-linejoin:round;stroke-dasharray:none;stroke-opacity:1"/><path d="M446.342 502.84c-4.38 7.08-7.635 15.25-9.145 19.751 7.752-2.07 15.886-4.669 20.655-7.173" style="fill:#654646;fill-opacity:1;stroke:#2d1f1f;stroke-width:1.85208;stroke-linejoin:round;stroke-dasharray:none;stroke-opacity:1"/><path d="M437.361 522.665c6.95 4.005 14.398 7.755 19.544 9.35 5.516-5.45 5.412-14.346.92-16.864-8.116 1.916-16.206 5.396-20.464 7.514z" style="fill:#654646;fill-opacity:1;stroke:#2d1f1f;stroke-width:1.85208;stroke-linejoin:round;stroke-dasharray:none;stroke-opacity:1"/><path d="M457.075 531.743c-7.097-4.371-15.284-7.619-19.795-9.126 2.076 7.736 5.082 15.967 7.591 20.725" style="fill:#654646;fill-opacity:1;stroke:#2d1f1f;stroke-width:1.85208;stroke-linejoin:round;stroke-dasharray:none;stroke-opacity:1"/><g style="fill:#463527;fill-opacity:1" transform="scale(4.79559)rotate(75 5054.637 -2813.354)"><circle cx="4477.202" cy="5564.637" r=".86" style="opacity:1;fill:#463527;fill-opacity:1;fill-rule:evenodd;stroke:none;stroke-width:1.32292;stroke-linecap:square;stroke-linejoin:round;stroke-dasharray:none;stroke-opacity:1" transform="rotate(-28.628)"/><circle cx="1100.197" cy="7050.634" r="1.134" style="fill:#463527;fill-opacity:1;fill-rule:evenodd;stroke:none;stroke-width:1.32292;stroke-linecap:square;stroke-linejoin:round;stroke-dasharray:none;stroke-opacity:1" transform="rotate(-58.57)"/><circle cx="4348.949" cy="5659.757" r="1.134" style="fill:#463527;fill-opacity:1;fill-rule:evenodd;stroke:none;stroke-width:1.32292;stroke-linecap:square;stroke-linejoin:round;stroke-dasharray:none;stroke-opacity:1" transform="rotate(-29.943)"/><circle cx="4349.074" cy="5663.043" r=".734" style="fill:#463527;fill-opacity:1;fill-rule:evenodd;stroke:none;stroke-width:1.32292;stroke-linecap:square;stroke-linejoin:round;stroke-dasharray:none;stroke-opacity:1" transform="rotate(-29.943)"/><circle cx="4345.113" cy="5665.234" r="1.134" style="fill:#463527;fill-opacity:1;fill-rule:evenodd;stroke:none;stroke-width:1.32292;stroke-linecap:square;stroke-linejoin:round;stroke-dasharray:none;stroke-opacity:1" transform="rotate(-29.943)"/><circle cx="4347.035" cy="5661.449" r=".737" style="fill:#463527;fill-opacity:1;fill-rule:evenodd;stroke:none;stroke-width:1.32292;stroke-linecap:square;stroke-linejoin:round;stroke-dasharray:none;stroke-opacity:1" transform="rotate(-29.943)"/><circle cx="4349.797" cy="5662.427" r=".737" style="fill:#463527;fill-opacity:1;fill-rule:evenodd;stroke:none;stroke-width:1.32292;stroke-linecap:square;stroke-linejoin:round;stroke-dasharray:none;stroke-opacity:1" transform="rotate(-29.943)"/><circle cx="4347.396" cy="5660.435" r=".737" style="fill:#463527;fill-opacity:1;fill-rule:evenodd;stroke:none;stroke-width:1.32292;stroke-linecap:square;stroke-linejoin:round;stroke-dasharray:none;stroke-opacity:1" transform="rotate(-29.943)"/><circle cx="4475.133" cy="5563.381" r=".539" style="fill:#463527;fill-opacity:1;fill-rule:evenodd;stroke:none;stroke-width:1.32292;stroke-linecap:square;stroke-linejoin:round;stroke-dasharray:none;stroke-opacity:1" transform="rotate(-28.628)"/><circle cx="4476.381" cy="5565.561" r=".539" style="fill:#463527;fill-opacity:1;fill-rule:evenodd;stroke:none;stroke-width:1.32292;stroke-linecap:square;stroke-linejoin:round;stroke-dasharray:none;stroke-opacity:1" transform="rotate(-28.628)"/><circle cx="4473.348" cy="5565.049" r=".539" style="fill:#463527;fill-opacity:1;fill-rule:evenodd;stroke:none;stroke-width:1.32292;stroke-linecap:square;stroke-linejoin:round;stroke-dasharray:none;stroke-opacity:1" transform="rotate(-28.628)"/><circle cx="4473.55" cy="5559.835" r=".539" style="fill:#463527;fill-opacity:1;fill-rule:evenodd;stroke:none;stroke-width:1.32292;stroke-linecap:square;stroke-linejoin:round;stroke-dasharray:none;stroke-opacity:1" transform="rotate(-28.628)"/><circle cx="4473.711" cy="5558.974" r=".539" style="fill:#463527;fill-opacity:1;fill-rule:evenodd;stroke:none;stroke-width:1.32292;stroke-linecap:square;stroke-linejoin:round;stroke-dasharray:none;stroke-opacity:1" transform="rotate(-28.628)"/><circle cx="4471.118" cy="5561.035" r=".539" style="fill:#463527;fill-opacity:1;fill-rule:evenodd;stroke:none;stroke-width:1.32292;stroke-linecap:square;stroke-linejoin:round;stroke-dasharray:none;stroke-opacity:1" transform="rotate(-28.628)"/><circle cx="4471.727" cy="5559.167" r=".539" style="fill:#463527;fill-opacity:1;fill-rule:evenodd;stroke:none;stroke-width:1.32292;stroke-linecap:square;stroke-linejoin:round;stroke-dasharray:none;stroke-opacity:1" transform="rotate(-28.628)"/><circle cx="4475.67" cy="5558.375" r=".539" style="fill:#463527;fill-opacity:1;fill-rule:evenodd;stroke:none;stroke-width:1.32292;stroke-linecap:square;stroke-linejoin:round;stroke-dasharray:none;stroke-opacity:1" transform="rotate(-28.628)"/><circle cx="6590.159" cy="2735.031" r=".539" style="fill:#463527;fill-opacity:1;fill-rule:evenodd;stroke:none;stroke-width:1.32292;stroke-linecap:square;stroke-linejoin:round;stroke-dasharray:none;stroke-opacity:1"/></g><path d="M458.18 515.373c-1.795-.94-4.139-3.056-6.267-5.686-2.08-2.57-3.953-5.3-5.07-6.749M416.796 529.96c-.038 7.745 6.434 13.738 11.395 12.349 4.38-7.082 7.635-15.25 9.145-19.752" style="fill:none;fill-opacity:1;stroke:#2d1f1f;stroke-width:1.85208;stroke-linejoin:round;stroke-dasharray:none;stroke-opacity:1"/><path d="M417.745 513.201c-2.103 4.867-3.556 12.225-1.405 16.92 8.115-1.916 16.806-5.396 21.064-7.513" style="fill:#654646;fill-opacity:1;stroke:#2d1f1f;stroke-width:1.85208;stroke-linejoin:round;stroke-dasharray:none;stroke-opacity:1"/><path d="M456.648 532.148c5.202-5.14 5.406-13.345 1.643-16.374a5 5 0 0 0-.723-.49c-8.116 1.917-16.206 5.397-20.463 7.514" style="fill:none;fill-opacity:1;stroke:#2d1f1f;stroke-width:1.85208;stroke-linejoin:round;stroke-dasharray:none;stroke-opacity:1"/><path d="M437.28 522.617c2.076 7.736 5.082 15.967 7.591 20.725 4.078-1.052 7.52-7.612 11.777-11.194" style="fill:none;fill-opacity:1;stroke:#2d1f1f;stroke-width:1.85208;stroke-linejoin:round;stroke-dasharray:none;stroke-opacity:1"/><path d="M427.846 542.514c5.619 1.729 14.599 2.642 17.015.746M446.863 503.15c-5.462-5.504-14.548-4.999-17.072-.516 1.92 8.098 5.408 16.17 7.53 20.42" style="fill:none;fill-opacity:1;stroke:#2d1f1f;stroke-width:1.85208;stroke-linejoin:round;stroke-dasharray:none;stroke-opacity:1"/><path d="M430.097 502.293c-7.762-.038-13.94 6.42-12.548 11.37 7.097 4.372 15.283 7.62 19.794 9.126" style="fill:none;fill-opacity:1;stroke:#2d1f1f;stroke-width:1.85208;stroke-linejoin:round;stroke-dasharray:none;stroke-opacity:1"/><ellipse cx="437.206" cy="521.831" rx="4.943" ry="4.933" style="display:inline;fill:#5c563e;fill-opacity:1;stroke:#2e2b1f;stroke-width:1.85208;stroke-linejoin:round;stroke-dasharray:none;stroke-opacity:1"/><path d="M437.814 524.73c-1.694-1.876-4.543-1.705-5.369-1.688-2.299.047-2.24-2.304-.083-2.35.851-.018 3.77.24 5.443-1.666" style="fill:#5c563e;fill-opacity:1;stroke:#2e2b1f;stroke-width:1.85208;stroke-linecap:round;stroke-linejoin:round;stroke-dasharray:none;stroke-opacity:1"/></g></svg>