<?xml version="1.0" encoding="UTF-8" standalone="no"?>
<!-- Generator: Adobe Illustrator 27.0.0, SVG Export Plug-In . SVG Version: 6.00 Build 0)  -->

<svg
   version="1.1"
   id="svg48"
   x="0px"
   y="0px"
   viewBox="0 0 443.49845 481.09802"
   xml:space="preserve"
   sodipodi:docname="dormant_oak_tree_1.svg"
   inkscape:version="1.3 (0e150ed, 2023-07-21)"
   width="443.49847"
   height="481.09802"
   xmlns:inkscape="http://www.inkscape.org/namespaces/inkscape"
   xmlns:sodipodi="http://sodipodi.sourceforge.net/DTD/sodipodi-0.dtd"
   xmlns="http://www.w3.org/2000/svg"
   xmlns:svg="http://www.w3.org/2000/svg"><defs
   id="defs29" />&#10;<style
   type="text/css"
   id="style2">&#10;	.st0{opacity:0.9;fill:#403228;enable-background:new    ;}&#10;	.st1{fill:#4D3F36;stroke:#29180D;stroke-width:8.9304;stroke-linejoin:round;stroke-miterlimit:16;}&#10;	.st2{opacity:0.95;fill:#E57C0A;fill-opacity:0.851;enable-background:new    ;}&#10;	.st3{opacity:0.8;fill:#D17109;fill-opacity:0.8039;enable-background:new    ;}&#10;	.st4{opacity:0.8;fill-rule:evenodd;clip-rule:evenodd;fill:#D17109;fill-opacity:0.8039;enable-background:new    ;}&#10;	.st5{fill:#E5711A;fill-opacity:0.8955;}&#10;	.st6{fill:#EFAC3F;fill-opacity:0.8995;}&#10;	.st7{fill:#EFAC3F;fill-opacity:0.9007;}&#10;</style>&#10;<sodipodi:namedview
   bordercolor="#ffffff"
   borderopacity="1"
   height="604.001px"
   id="namedview50"
   inkscape:current-layer="svg48"
   inkscape:cx="-198.38274"
   inkscape:cy="33.391154"
   inkscape:deskcolor="#505050"
   inkscape:pagecheckerboard="1"
   inkscape:pageopacity="0"
   inkscape:pageshadow="0"
   inkscape:showpageshadow="2"
   inkscape:window-height="811"
   inkscape:window-maximized="0"
   inkscape:window-width="1440"
   inkscape:window-x="0"
   inkscape:window-y="25"
   inkscape:zoom="0.50911688"
   pagecolor="#505050"
   showgrid="false"
   width="520.942px">&#10;	</sodipodi:namedview>&#10;&#10;&#10;&#10;&#10;&#10;&#10;&#10;&#10;&#10;&#10;&#10;&#10;&#10;&#10;&#10;&#10;&#10;&#10;&#10;&#10;&#10;&#10;&#10;<g
   id="g29"
   transform="matrix(3.7795276,0,0,3.7795276,-7152.9801,-3113.1146)"><path
     id="path2-4-7"
     class="st0"
     d="m 1952.0108,839.34105 -16.6423,30.55937 c 0,0 -6.0061,5.05354 -9.7102,8.41375 -7.5142,6.82625 -18.3621,18.36208 -18.3621,18.36208 l 0.8731,18.04459 4.3392,-14.89604 21.9339,-11.77396 8.308,19.55271 -19.3675,13.41437 -2.884,20.08187 8.0433,-14.89604 c 0,0 10.2394,-5.55625 14.9755,-8.62541 5.027,-3.28084 7.8845,-6.48229 7.8845,-6.48229 l 5.3975,7.56708 -3.4925,19.94958 11.5888,-21.93396 -18.6267,-28.83958 22.1456,-14.47271 3.8894,-16.1925 -8.4931,10.87438 -17.9652,6.93208 10.9008,-28.94541 13.8377,-7.88459 z"
     style="opacity:0.9;fill:#63462b;stroke:#372516;stroke-width:2.381;stroke-dasharray:none;stroke-opacity:1;enable-background:new" /><path
     id="path4-4-1"
     class="st1"
     d="m 1935.3949,869.79459 1.5082,-10.58334 -5.2917,-18.04458 11.2448,-16.29833 -3.3602,19.23521 8.4137,15.13416 -1.9314,15.76917 22.8864,4.65667 14.7902,-7.77875 17.5948,6.37645 -17.5948,2.16959 -14.7902,10.58333 -22.1456,-2.91042 c 3.5983,9.23396 5.5033,23.54792 5.5033,23.54792 l -7.1172,14.52563 -3.1221,13.30854 -4.1011,-16.29834 4.1011,-14.36687 c 0,0 -3.0163,-13.335 -7.4613,-20.74333 l -11.9856,4.3127 c -6.8263,0.39688 -16.2983,-2.32833 -16.2983,-2.32833 l -12.4884,5.42396 10.0542,-11.90625 h 13.6525 l 8.2021,-5.34458 -6.3765,-8.41375 -4.0746,-10.58334 -12.2237,-8.96937 17.6477,5.15937 c 0,-0.0265 8.1492,12.72646 14.7637,14.36688 z"
     style="fill:#70553d;stroke:#2e1905;stroke-width:2.381;stroke-linejoin:round;stroke-miterlimit:16;stroke-dasharray:none;stroke-opacity:1" /><path
     id="path6-3-8"
     class="st2"
     d="m 1915.0485,911.14896 c 12.3296,0 22.3308,-9.94833 22.3308,-22.25146 0,-12.30312 -10.0012,-22.25145 -22.3308,-22.25145 -12.3296,0 -22.3308,9.94833 -22.3308,22.25145 0,12.30313 10.0012,22.25146 22.3308,22.25146 z"
     style="opacity:0.95;fill:#69371c;fill-opacity:0.852;stroke-width:0.264583;enable-background:new" /><path
     id="path8-0-9"
     class="st2"
     d="m 1940.1839,879.21375 c 12.991,0 23.5479,-10.50395 23.5479,-23.46854 0,-12.96458 -10.5304,-23.46854 -23.5479,-23.46854 -12.991,0 -23.5479,10.50396 -23.5479,23.46854 0,12.96459 10.5304,23.46854 23.5479,23.46854 z"
     style="opacity:0.95;fill:#69371c;fill-opacity:0.852;stroke-width:0.264583;enable-background:new" /><path
     id="path10-79-3"
     class="st2"
     d="m 1950.0793,928.95542 c 8.6254,0 15.6369,-6.985 15.6369,-15.58396 0,-8.59896 -7.0115,-15.58396 -15.6369,-15.58396 -8.6254,0 -15.6369,6.985 -15.6369,15.58396 0,8.59896 7.0115,15.58396 15.6369,15.58396 z"
     style="opacity:0.95;fill:#69371c;fill-opacity:0.852;stroke-width:0.264583;enable-background:new" /><path
     id="path12-9-7"
     class="st2"
     d="m 1971.1931,889.87646 c 8.6254,0 15.6368,-6.985 15.6368,-15.58396 0,-8.59895 -7.0114,-15.58395 -15.6368,-15.58395 -8.6254,0 -15.6369,6.985 -15.6369,15.58395 0,8.59896 7.0115,15.58396 15.6369,15.58396 z"
     style="opacity:0.95;fill:#69371c;fill-opacity:0.852;stroke-width:0.264583;enable-background:new" /><path
     id="path14-94-4"
     class="st3"
     d="m 1919.8904,881.17167 c 8.4931,0 15.3458,-6.85271 15.3458,-15.29292 0,-8.4402 -6.8792,-15.29291 -15.3458,-15.29291 -8.4667,0 -15.3723,6.85271 -15.3723,15.29291 0,8.44021 6.8791,15.29292 15.3723,15.29292 z"
     style="opacity:0.8;fill:#73452c;fill-opacity:0.8039;stroke-width:0.264583;enable-background:new" /><path
     id="path16-4-9-8"
     class="st3"
     d="m 1949.3385,927.05042 c 5.9531,0 10.7685,-4.78896 10.7685,-10.71562 0,-5.90021 -4.8154,-10.71563 -10.7685,-10.71563 -5.9531,0 -10.7686,4.78896 -10.7686,10.71563 0,5.92666 4.8155,10.71562 10.7686,10.71562 z"
     style="opacity:0.8;fill:#73452c;fill-opacity:0.8039;stroke-width:0.264583;enable-background:new" /><path
     id="path18-1-5-0"
     class="st3"
     d="m 1969.2616,900.03646 c 5.9531,0 10.7685,-4.78896 10.7685,-10.71562 0,-5.90021 -4.8154,-10.71563 -10.7685,-10.71563 -5.9531,0 -10.7685,4.78896 -10.7685,10.71563 0,5.92666 4.8154,10.71562 10.7685,10.71562 z"
     style="opacity:0.8;fill:#73452c;fill-opacity:0.8039;stroke-width:0.264583;enable-background:new" /><path
     id="path20-2-9-4"
     class="st3"
     d="m 1943.941,857.86188 c 5.715,0 10.3717,-4.60375 10.3717,-10.29229 0,-5.68854 -4.6303,-10.29229 -10.3717,-10.29229 -5.715,0 -10.3717,4.60375 -10.3717,10.29229 0,5.68854 4.6567,10.29229 10.3717,10.29229 z"
     style="opacity:0.8;fill:#73452c;fill-opacity:0.8039;stroke-width:0.264583;enable-background:new" /><path
     id="path22-9-0"
     class="st3"
     d="m 1908.0899,912.49834 c 8.4932,0 15.3723,-6.85271 15.3723,-15.29292 0,-8.44021 -6.8791,-15.29292 -15.3723,-15.29292 -8.4931,0.0265 -15.3722,6.87917 -15.3722,15.31938 0,8.44021 6.8791,15.26646 15.3722,15.26646 z"
     style="opacity:0.8;fill:#73452c;fill-opacity:0.8039;stroke-width:0.264583;enable-background:new" /><path
     id="path24-4-5"
     class="st4"
     d="m 1915.7364,930.75459 c 4.1804,0.74083 13.2556,-1.21709 10.5833,-6.24417 -3.0956,-4.7625 -9.2075,2.2225 -10.5833,6.24417 z"
     style="clip-rule:evenodd;opacity:0.8;fill:#845b45;fill-opacity:0.8971;fill-rule:evenodd;stroke-width:0.264583;enable-background:new" /><path
     id="path26-7-7"
     class="st5"
     d="m 1922.3245,939.98854 v 0 c 4.5509,-3.17499 11.1125,-13.30854 3.9952,-15.47812 -7.2495,-1.53458 -6.4558,10.50396 -3.9952,15.47812 z"
     style="fill:#8d6753;fill-opacity:0.8978;stroke-width:0.264583" /><path
     id="path28-3-0"
     class="st4"
     d="m 1952.6193,928.82313 c -0.9789,4.1275 -6.4029,11.66812 -9.9483,7.22312 -3.1221,-4.73604 5.715,-7.56708 9.9483,-7.22312 z"
     style="clip-rule:evenodd;opacity:0.8;fill:#845b45;fill-opacity:0.8971;fill-rule:evenodd;stroke-width:0.264583;enable-background:new" /><path
     id="path30-0-0"
     class="st5"
     d="m 1948.386,950.96875 v 0 c -4.8683,-2.64583 -12.5148,-11.95916 -5.715,-14.9225 7.0379,-2.35479 7.5935,9.71021 5.715,14.9225 v 0 c 0.026,0 0.026,0 0,0 z"
     style="fill:#8d6753;fill-opacity:0.8978;stroke-width:0.264583" /><path
     id="path32-9-5"
     class="st4"
     d="m 1936.4797,943.71917 v 0 c -0.1587,-3.46604 2.3813,-10.50396 6.2177,-7.64646 3.5455,3.12209 -2.7781,7.09083 -6.2177,7.64646 z"
     style="clip-rule:evenodd;opacity:0.8;fill:#845b45;fill-opacity:0.8971;fill-rule:evenodd;stroke-width:0.264583;enable-background:new" /><path
     id="path34-0-6"
     class="st4"
     d="m 1911.3443,842.30438 v 0 c -3.5189,2.40771 -8.5989,10.16 -3.175,11.87979 5.5563,1.21708 5.0271,-8.04333 3.175,-11.87979 z"
     style="clip-rule:evenodd;opacity:0.8;fill:#845b45;fill-opacity:0.8971;fill-rule:evenodd;stroke-width:0.264583;enable-background:new" /><path
     id="path36-3-7"
     class="st5"
     d="m 1900.1789,840.34646 v 0 c -1.0319,5.45042 1.4023,17.27729 7.9904,13.83771 6.2442,-3.99521 -2.7516,-12.01208 -7.9904,-13.83771 z"
     style="fill:#8d6753;fill-opacity:0.8978;stroke-width:0.264583" /><path
     id="path38-1-8"
     class="st4"
     d="m 1898.6443,856.72417 v 0 c 3.0956,1.56104 10.5569,2.09021 9.525,-2.54 -1.4287,-4.55083 -7.62,-0.37042 -9.525,2.54 z"
     style="clip-rule:evenodd;opacity:0.8;fill:#845b45;fill-opacity:0.8971;fill-rule:evenodd;stroke-width:0.264583;enable-background:new" /><path
     id="path40-1-0"
     class="st4"
     d="m 1930.1562,875.77417 c 1.9315,3.78354 2.7252,13.0175 -2.8575,11.95917 -5.4769,-1.56104 -0.5821,-9.44563 2.8575,-11.95917 z"
     style="clip-rule:evenodd;opacity:0.8;fill:#845b45;fill-opacity:0.8971;fill-rule:evenodd;stroke-width:0.264583;enable-background:new" /><path
     id="path42-53-6"
     class="st4"
     d="m 1934.4424,894.50667 v 0 c -3.4925,-0.10583 -10.2922,-3.175 -7.1437,-6.77333 3.4131,-3.30729 6.8527,3.30729 7.1437,6.77333 z"
     style="clip-rule:evenodd;opacity:0.8;fill:#845b45;fill-opacity:0.8971;fill-rule:evenodd;stroke-width:0.264583;enable-background:new" /><path
     id="path44-9-5"
     class="st5"
     d="m 1940.9247,879.3725 v 0 c -1.6933,5.29167 -9.472,14.49917 -13.626,8.36084 -3.5983,-6.48229 8.1492,-9.23396 13.626,-8.36084 z"
     style="fill:#8d6753;fill-opacity:0.8978;stroke-width:0.264583" /><path
     id="path46-63-7"
     class="st4"
     d="m 2009.9016,882.20355 c -2.4077,-3.51896 -10.16,-8.59896 -11.8798,-3.175 -1.2171,5.52979 8.0169,5.00062 11.8798,3.175 z"
     style="clip-rule:evenodd;opacity:0.8;fill:#845b45;fill-opacity:0.8971;fill-rule:evenodd;stroke-width:0.264583;enable-background:new" /><path
     id="path48-3"
     class="st5"
     d="m 2006.0122,865.16438 v 0 c -5.2387,1.82562 -14.261,9.8425 -7.9904,13.83771 6.5881,3.43958 9.0223,-8.36084 7.9904,-13.83771 v 0 c 0,0.0265 0,0.0265 0,0 0,0.0265 0,0 0,0 z"
     style="fill:#8d6753;fill-opacity:0.8978;stroke-width:0.264583" /><path
     id="path50-43"
     class="st4"
     d="m 1995.4554,869.50355 v 0 c -1.5611,3.09562 -2.0903,10.55687 2.54,9.525 4.5772,-1.42875 0.3968,-7.62 -2.54,-9.525 v 0 c 0.026,0 0.026,0 0,0 z"
     style="clip-rule:evenodd;opacity:0.8;fill:#845b45;fill-opacity:0.8971;fill-rule:evenodd;stroke-width:0.264583;enable-background:new" /></g></svg>
