<svg xmlns="http://www.w3.org/2000/svg" xml:space="preserve" id="svg48" width="443.498" height="481.098" x="0" y="0" version="1.1"><style id="style2" type="text/css">.st2,.st3,.st4{opacity:.95;fill:#e57c0a;fill-opacity:.851;enable-background:new}.st3,.st4{opacity:.8;fill:#d17109;fill-opacity:.8039}.st4{fill-rule:evenodd;clip-rule:evenodd}.st5{fill:#e5711a;fill-opacity:.8955}</style><g id="g29" transform="matrix(3.77953 0 0 3.77953 -7152.98 -3113.115)"><path id="path2-4-7" d="m1952.01 839.341-16.641 30.56s-6.007 5.053-9.71 8.413c-7.515 6.826-18.363 18.362-18.363 18.362l.873 18.045 4.34-14.896 21.933-11.774 8.308 19.553-19.367 13.414-2.884 20.082 8.043-14.896s10.24-5.556 14.976-8.626c5.027-3.28 7.884-6.482 7.884-6.482l5.398 7.567-3.493 19.95 11.589-21.934-18.627-28.84 22.146-14.473 3.89-16.192-8.494 10.874-17.965 6.932 10.9-28.945 13.838-7.885z" style="opacity:.9;fill:#63462b;stroke:#372516;stroke-width:2.381;stroke-dasharray:none;stroke-opacity:1"/><path id="path4-4-1" d="m1935.395 869.795 1.508-10.584-5.292-18.044 11.245-16.299-3.36 19.236 8.414 15.134-1.932 15.769 22.887 4.657 14.79-7.78 17.595 6.377-17.595 2.17-14.79 10.583-22.146-2.91c3.598 9.234 5.503 23.548 5.503 23.548l-7.117 14.525-3.122 13.309-4.101-16.299 4.101-14.366s-3.016-13.335-7.461-20.744l-11.986 4.313c-6.826.397-16.298-2.328-16.298-2.328l-12.488 5.424 10.054-11.907h13.652l8.202-5.344-6.376-8.414-4.075-10.583-12.223-8.97 17.647 5.16c0-.027 8.15 12.726 14.764 14.367z" style="fill:#70553d;stroke:#2e1905;stroke-width:2.381;stroke-linejoin:round;stroke-miterlimit:16;stroke-dasharray:none;stroke-opacity:1"/><path id="path6-3-8" d="M1915.049 911.149c12.33 0 22.33-9.948 22.33-22.252s-10-22.251-22.33-22.251-22.331 9.948-22.331 22.252 10 22.251 22.33 22.251" class="st2" style="opacity:.95;fill:#69371c;fill-opacity:.852;stroke-width:.264583"/><path id="path8-0-9" d="M1940.184 879.214c12.99 0 23.548-10.504 23.548-23.469 0-12.964-10.53-23.468-23.548-23.468-12.991 0-23.548 10.504-23.548 23.468s10.53 23.469 23.548 23.469" class="st2" style="opacity:.95;fill:#69371c;fill-opacity:.852;stroke-width:.264583"/><path id="path10-79-3" d="M1950.08 928.955c8.625 0 15.636-6.985 15.636-15.584s-7.011-15.584-15.637-15.584c-8.625 0-15.637 6.985-15.637 15.584s7.012 15.584 15.637 15.584" class="st2" style="opacity:.95;fill:#69371c;fill-opacity:.852;stroke-width:.264583"/><path id="path12-9-7" d="M1971.193 889.876c8.625 0 15.637-6.985 15.637-15.584s-7.011-15.583-15.637-15.583c-8.625 0-15.637 6.985-15.637 15.583 0 8.6 7.012 15.584 15.637 15.584" class="st2" style="opacity:.95;fill:#69371c;fill-opacity:.852;stroke-width:.264583"/><path id="path14-94-4" d="M1919.89 881.172c8.493 0 15.346-6.853 15.346-15.293s-6.879-15.293-15.346-15.293c-8.466 0-15.372 6.853-15.372 15.293s6.88 15.293 15.372 15.293" class="st3" style="opacity:.8;fill:#73452c;fill-opacity:.8039;stroke-width:.264583"/><path id="path16-4-9-8" d="M1949.339 927.05c5.953 0 10.768-4.789 10.768-10.715 0-5.9-4.815-10.716-10.768-10.716s-10.77 4.79-10.77 10.716 4.816 10.715 10.77 10.715" class="st3" style="opacity:.8;fill:#73452c;fill-opacity:.8039;stroke-width:.264583"/><path id="path18-1-5-0" d="M1969.262 900.036c5.953 0 10.768-4.788 10.768-10.715 0-5.9-4.815-10.716-10.768-10.716s-10.769 4.79-10.769 10.716c0 5.927 4.816 10.715 10.769 10.715" class="st3" style="opacity:.8;fill:#73452c;fill-opacity:.8039;stroke-width:.264583"/><path id="path20-2-9-4" d="M1943.941 857.862c5.715 0 10.372-4.604 10.372-10.292 0-5.689-4.63-10.293-10.372-10.293-5.715 0-10.372 4.604-10.372 10.293s4.657 10.292 10.372 10.292" class="st3" style="opacity:.8;fill:#73452c;fill-opacity:.8039;stroke-width:.264583"/><path id="path22-9-0" d="M1908.09 912.498c8.493 0 15.372-6.852 15.372-15.293s-6.879-15.293-15.372-15.293c-8.493.027-15.372 6.88-15.372 15.32s6.879 15.266 15.372 15.266" class="st3" style="opacity:.8;fill:#73452c;fill-opacity:.8039;stroke-width:.264583"/><path id="path24-4-5" d="M1915.736 930.755c4.18.74 13.256-1.217 10.584-6.245-3.096-4.762-9.208 2.223-10.584 6.245" class="st4" style="clip-rule:evenodd;opacity:.8;fill:#845b45;fill-opacity:.8971;fill-rule:evenodd;stroke-width:.264583"/><path id="path26-7-7" d="M1922.325 939.989c4.55-3.175 11.112-13.309 3.995-15.479-7.25-1.534-6.456 10.504-3.995 15.479" class="st5" style="fill:#8d6753;fill-opacity:.8978;stroke-width:.264583"/><path id="path28-3-0" d="M1952.62 928.823c-.98 4.128-6.404 11.668-9.949 7.223-3.122-4.736 5.715-7.567 9.948-7.223" class="st4" style="clip-rule:evenodd;opacity:.8;fill:#845b45;fill-opacity:.8971;fill-rule:evenodd;stroke-width:.264583"/><path id="path30-0-0" d="M1948.386 950.969c-4.868-2.646-12.515-11.96-5.715-14.923 7.038-2.355 7.594 9.71 5.715 14.923q.039 0 0 0" class="st5" style="fill:#8d6753;fill-opacity:.8978;stroke-width:.264583"/><path id="path32-9-5" d="M1936.48 943.72c-.159-3.467 2.381-10.505 6.217-7.647 3.546 3.122-2.778 7.09-6.217 7.646" class="st4" style="clip-rule:evenodd;opacity:.8;fill:#845b45;fill-opacity:.8971;fill-rule:evenodd;stroke-width:.264583"/><path id="path34-0-6" d="M1911.344 842.304c-3.519 2.408-8.599 10.16-3.175 11.88 5.557 1.217 5.027-8.043 3.175-11.88" class="st4" style="clip-rule:evenodd;opacity:.8;fill:#845b45;fill-opacity:.8971;fill-rule:evenodd;stroke-width:.264583"/><path id="path36-3-7" d="M1900.179 840.346c-1.032 5.45 1.402 17.278 7.99 13.838 6.244-3.995-2.751-12.012-7.99-13.838" class="st5" style="fill:#8d6753;fill-opacity:.8978;stroke-width:.264583"/><path id="path38-1-8" d="M1898.644 856.724c3.096 1.561 10.557 2.09 9.525-2.54-1.428-4.55-7.62-.37-9.525 2.54" class="st4" style="clip-rule:evenodd;opacity:.8;fill:#845b45;fill-opacity:.8971;fill-rule:evenodd;stroke-width:.264583"/><path id="path40-1-0" d="M1930.156 875.774c1.932 3.784 2.725 13.018-2.857 11.96-5.477-1.562-.582-9.446 2.857-11.96" class="st4" style="clip-rule:evenodd;opacity:.8;fill:#845b45;fill-opacity:.8971;fill-rule:evenodd;stroke-width:.264583"/><path id="path42-53-6" d="M1934.442 894.507c-3.492-.106-10.292-3.175-7.143-6.774 3.413-3.307 6.852 3.308 7.143 6.774" class="st4" style="clip-rule:evenodd;opacity:.8;fill:#845b45;fill-opacity:.8971;fill-rule:evenodd;stroke-width:.264583"/><path id="path44-9-5" d="M1940.925 879.373c-1.694 5.291-9.472 14.499-13.626 8.36-3.599-6.482 8.149-9.234 13.626-8.36" class="st5" style="fill:#8d6753;fill-opacity:.8978;stroke-width:.264583"/><path id="path46-63-7" d="M2009.902 882.204c-2.408-3.52-10.16-8.6-11.88-3.175-1.217 5.53 8.017 5 11.88 3.175" class="st4" style="clip-rule:evenodd;opacity:.8;fill:#845b45;fill-opacity:.8971;fill-rule:evenodd;stroke-width:.264583"/><path id="path48-3" d="M2006.012 865.164c-5.239 1.826-14.26 9.843-7.99 13.838 6.588 3.44 9.022-8.36 7.99-13.838q0 .04 0 0c0 .027 0 0 0 0" class="st5" style="fill:#8d6753;fill-opacity:.8978;stroke-width:.264583"/><path id="path50-43" d="M1995.455 869.504c-1.56 3.095-2.09 10.556 2.54 9.525 4.578-1.43.397-7.62-2.54-9.525q.039 0 0 0" class="st4" style="clip-rule:evenodd;opacity:.8;fill:#845b45;fill-opacity:.8971;fill-rule:evenodd;stroke-width:.264583"/></g></svg>