<?xml version="1.0" encoding="UTF-8" standalone="no"?>
<!-- Created with Inkscape (http://www.inkscape.org/) -->

<svg
   width="247.75714"
   height="212.93282"
   viewBox="0 0 65.552409 56.338474"
   version="1.1"
   id="svg1"
   inkscape:version="1.3 (0e150ed, 2023-07-21)"
   sodipodi:docname="hay_bale.svg"
   xmlns:inkscape="http://www.inkscape.org/namespaces/inkscape"
   xmlns:sodipodi="http://sodipodi.sourceforge.net/DTD/sodipodi-0.dtd"
   xmlns="http://www.w3.org/2000/svg"
   xmlns:svg="http://www.w3.org/2000/svg">
  <sodipodi:namedview
     id="namedview1"
     pagecolor="#49993e"
     bordercolor="#ffffff"
     borderopacity="1"
     inkscape:showpageshadow="0"
     inkscape:pageopacity="0"
     inkscape:pagecheckerboard="false"
     inkscape:deskcolor="#49993e"
     inkscape:document-units="px"
     inkscape:zoom="1.1980723"
     inkscape:cx="115.18504"
     inkscape:cy="89.310137"
     inkscape:window-width="1312"
     inkscape:window-height="449"
     inkscape:window-x="0"
     inkscape:window-y="25"
     inkscape:window-maximized="0"
     inkscape:current-layer="layer1"
     showborder="false" />
  <defs
     id="defs1" />
  <g
     inkscape:label="Layer 1"
     inkscape:groupmode="layer"
     id="layer1"
     transform="translate(3.7276475,-241.56445)">
    <path
       style="color:#000000;fill:#d6b95b;stroke-width:0.999995;stroke-linecap:square;-inkscape-stroke:none"
       d="M 0.60737668,243.71297 H 57.628211 c 1.129939,0 2.039601,0.90412 2.039601,2.0272 v 47.98704 c 0,1.12306 -0.909662,2.0272 -2.039601,2.0272 H 0.60737668 c -1.12993845,0 -2.03960018,-0.90414 -2.03960018,-2.0272 v -47.98704 c 0,-1.12308 0.90966173,-2.0272 2.03960018,-2.0272 z"
       id="path3" />
    <rect
       style="fill:#d6b95b;fill-opacity:1;stroke:#524114;stroke-width:2;stroke-linecap:square;stroke-opacity:1"
       id="rect1"
       width="61.100037"
       height="52.041443"
       x="-1.5014603"
       y="243.71297"
       rx="2.1166666"
       ry="2.1166663" />
    <path
       style="fill:#c8ae54;fill-opacity:1;stroke:none;stroke-width:2;stroke-linecap:round;stroke-dasharray:none;stroke-opacity:1;stop-color:#000000"
       d="m 56.968638,254.65477 c -1.907909,-0.89558 -3.476635,-2.30929 -5.409598,-3.16875 -1.164981,-0.51804 -3.17214,-1.14669 -4.347721,-1.5364 -0.965518,-0.32007 -1.927181,-0.65326 -2.897517,-0.96012 -1.160163,-0.35197 -2.319363,-0.70422 -3.478562,-1.05619 -0.515521,-0.12795 -1.03586,-0.23416 -1.5456,-0.38414 -0.361346,-0.10641 -0.703421,-0.27114 -1.06284,-0.38415 -0.137794,-0.0431 -1.003098,-0.25667 -1.255559,-0.28789 -0.191755,-0.023 -0.388327,0.0268 -0.580082,0 -0.458669,-0.0651 -0.917338,-0.18015 -1.351917,-0.28809 -0.262097,-0.0651 -0.715948,0 -0.966482,0 -0.316058,0 -0.986717,-0.0728 -1.352881,0 -0.140684,0.0278 -0.24957,0.14673 -0.3864,0.19203 -0.02891,0.0105 -0.07709,-0.023 -0.09636,0 -0.16381,0.16319 0.370019,0.28511 0.580082,0.38395 0.416271,0.19634 0.825797,0.40972 1.255558,0.57617 1.471403,0.57024 2.964005,1.0854 4.44408,1.63245 1.031042,0.38109 2.039922,0.8294 3.091199,1.15216 1.141855,0.35052 2.32129,0.56611 3.477599,0.86416 9.007646,2.32115 -0.579118,0.0374 9.468242,2.11256 0.377728,0.0785 3.76764,0.55194 3.76764,1.63245"
       id="path25572" />
    <path
       style="fill:#c8ae54;fill-opacity:1;stroke:none;stroke-width:2;stroke-linecap:round;stroke-dasharray:none;stroke-opacity:1;stop-color:#000000"
       d="m 28.874189,248.49742 c -0.482759,0.21309 -0.90963,0.42523 -1.434787,0.54303 -0.967445,0.21721 -1.964761,0.28205 -2.937988,0.47542 -1.714228,0.34076 -6.675756,1.53582 -7.51408,1.76519 -10.0039986,2.74045 4.674378,-0.70604 -9.4268077,2.64803 -1.6988104,0.40388 -2.5246076,0.45358 -4.2349811,0.61113 -0.019272,0 -2.61229431,0.2311 -2.86957302,0.20352 -3.23862828,-0.34794 -0.16091964,-2.03432 1.02429692,-2.57984 0.5425015,-0.24959 1.1331826,-0.38261 1.7084462,-0.54332 0.7226931,-0.2017 1.4453861,-0.41882 2.1854237,-0.54332 0.9356466,-0.15678 4.843007,-0.49965 5.875012,-0.61094 3.811965,-0.41077 2.02065,-0.31347 6.011843,-0.61094 2.093882,-0.1563 4.287015,-0.0354 6.352953,-0.47532 0.619589,-0.13207 0.859523,-0.22382 1.503201,-0.54332 0.237044,-0.1178 0.442289,-0.29623 0.682223,-0.40723 0.39989,-0.18417 0.810379,-0.34689 1.230505,-0.47532 0.379655,-0.11636 0.78629,-0.0795 1.161127,-0.2038"
       id="path25574" />
    <path
       style="fill:#c8ae54;fill-opacity:1;stroke:none;stroke-width:2;stroke-linecap:round;stroke-dasharray:none;stroke-opacity:1;stop-color:#000000"
       d="m 24.235463,266.58992 c -0.23608,0.0938 -0.456742,0.24585 -0.709203,0.28138 -7.192241,1.0083 -2.778032,0.15745 -10.046396,0.63449 -1.047423,0.069 -2.079429,0.2901 -3.12107,0.41978 -1.632323,0.20304 -3.2762087,0.32084 -4.9017862,0.57014 -1.2767576,0.19604 -1.3307187,0.30455 -2.6518015,0.67175 -0.8460327,0.23464 -1.3384275,0.28473 -2.10159132,0.63009 -0.68607656,0.30992 -0.80074385,0.43538 -1.3644444,0.82882 -0.14261142,0.0989 -0.28136848,0.20266 -0.42783428,0.29383 -0.019272,0.0134 -0.086723,0.01 -0.067451,0.0134 0.34496544,0.0421 1.07343999,-0.0326 1.24592272,-0.0431 1.14763648,-0.0661 2.29334578,-0.1631 3.44290948,-0.20754 1.0397144,-0.0402 2.0803923,-0.0421 3.1210702,-0.0728 1.2459228,-0.0364 2.4908819,-0.13446 3.7377683,-0.12814 0.820979,0 5.656277,0.09 7.463009,0.36978 0.401818,0.0623 0.7834,0.22277 1.179435,0.31691 0.727511,0.17326 1.335537,0.23695 2.090992,0.34172 0.477941,0.0661 0.951064,0.20476 1.433823,0.19643 1.284467,-0.022 2.566042,-0.1518 3.844727,-0.28808 1.690138,-0.18034 3.369677,-0.60826 5.034761,-0.94308 0.510703,-0.10277 0.950101,-0.1246 0.92312,-0.25504"
       id="path25577" />
    <path
       style="fill:#c8ae54;fill-opacity:1;stroke:none;stroke-width:2;stroke-linecap:round;stroke-dasharray:none;stroke-opacity:1;stop-color:#000000"
       d="m 32.631229,276.0636 c 0.477941,-0.20371 0.926974,-0.49744 1.434786,-0.61122 2.831993,-0.6345 4.56742,-0.49084 7.51408,-0.54304 1.184253,-0.0201 2.368506,-0.0546 3.551795,-0.068 0.820016,-0.0105 1.641959,0.0546 2.460047,0 4.381447,-0.29038 -1.22376,-0.31346 3.414966,-0.40751 1.371189,-0.0278 2.729852,0.33128 4.099115,0.20381 1.02526,-0.0958 1.067658,-0.33962 2.117972,-0.61123 2.038958,-0.52685 1.636177,-0.47513 3.005439,-0.47513 0.08672,0 -0.182118,0 -0.27366,0 -0.204281,0 -0.41338,0.0383 -0.61477,0 -0.565628,-0.10717 -1.08404,-0.38893 -1.639068,-0.54332 -1.77108,-0.49285 -3.438092,0.0125 -5.260242,0.20381 -0.840251,0.0881 -1.682429,0.1857 -2.527498,0.2037 -1.930072,0.0412 -4.291833,-0.18014 -6.284538,0 -1.491639,0.13476 -2.833921,0.78937 -4.371811,0.74675 -0.54732,-0.0153 -1.094639,-0.0249 -1.640032,-0.068 -0.663914,-0.0517 -1.317228,-0.21156 -1.981142,-0.27142 -1.072477,-0.097 -2.138208,-0.0929 -3.210684,0 -0.586827,0.0508 -1.131256,0.17612 -1.707483,0.27142 -0.486613,0.0804 -0.101177,-0.0852 -0.409526,0.068"
       id="path25579" />
    <path
       style="fill:#c8ae54;fill-opacity:1;stroke:none;stroke-width:2;stroke-linecap:round;stroke-dasharray:none;stroke-opacity:1;stop-color:#000000"
       d="m 52.373274,286.51954 c -5.274695,-2.42373 -5.95499,-2.62419 -12.569076,-2.58013 -4.295688,0.0287 -0.803635,1.11528 -4.508641,0.74703 -1.328792,-0.13226 -2.355016,-1.16508 -3.551795,-1.56168 -0.331476,-0.10947 -0.683186,-0.1358 -1.025261,-0.20371 -0.328584,-0.0651 -1.408769,-0.10219 -0.204281,-0.54303 0.264024,-0.0968 0.539611,-0.17009 0.819052,-0.20381 0.47505,-0.0575 0.955882,-0.0584 1.434786,-0.068 0.705349,-0.0125 1.411661,-0.0182 2.117973,0 1.002134,0.0268 2.009086,0.0249 3.005439,0.13581 2.828139,0.315 5.344074,0.75211 7.992021,1.62939 1.528255,0.50626 3.069037,0.99968 4.577056,1.56168 0.53672,0.19997 2.159407,0.94164 2.732743,0.81474 0.234153,-0.0517 0.456742,-0.12853 0.683186,-0.20352"
       id="path25581" />
    <path
       style="fill:#c8ae54;fill-opacity:1;stroke:none;stroke-width:2;stroke-linecap:round;stroke-dasharray:none;stroke-opacity:1;stop-color:#000000"
       d="m -0.51002478,292.38831 c 3.84472678,0.12087 7.71161618,0.046 11.54574378,-0.27171 1.232432,-0.10209 2.456193,-0.3012 3.688625,-0.40742 2.183497,-0.188 4.369884,-0.34133 6.557235,-0.47541 2.663364,-0.16291 5.341183,-0.0776 7.992984,-0.40714 0.01927,0 -0.04818,0 -0.06745,0 -0.158992,0 -0.318949,0.01 -0.477941,0 -1.341318,-0.0603 -0.841215,-0.0613 -2.322254,-0.2717 -2.133389,-0.30284 -4.268706,-0.51086 -6.422331,-0.61094 -1.107166,-0.0517 -3.590339,-0.11502 -4.644507,-0.068 -0.709203,0.0316 -1.411661,0.14194 -2.117973,0.20352 -1.225687,0.10688 -2.527498,0.20371 -3.7570401,0.20371 -1.9262177,0 -0.7516007,-0.0201 -2.0495573,-0.20371 -0.5174482,-0.0738 -1.0474231,-0.0335 -1.5706528,-0.068 -0.7737634,-0.0517 -1.5455995,-0.17708 -2.3232172,-0.20371 -0.9838261,-0.0335 -1.7190457,0.0201 -2.73274309,0.13581 -0.60898931,0.069 -0.83543317,0.13561 -1.43382298,0.13561"
       id="path25583" />
    <path
       style="fill:#c8ae54;fill-opacity:1;stroke:none;stroke-width:2;stroke-linecap:round;stroke-dasharray:none;stroke-opacity:1;stop-color:#000000"
       d="m 28.737359,277.21776 c -6.019551,-0.30963 -4.308214,-0.41575 -12.433211,0.61104 -12.0593373,1.52442 7.611403,-0.16962 -7.992021,1.15416 -1.7248273,0.14653 -3.1307061,-0.15152 -4.7823006,-0.61094 -0.2495699,-0.0699 -0.4991399,-0.14117 -0.7506371,-0.20371 -0.1194852,-0.0297 -0.4577056,-0.0958 -0.3420747,-0.1358 0.3806183,-0.13361 0.7612367,-0.28962 1.1611268,-0.33962 0.520339,-0.0642 1.0483866,-0.01 1.5716164,0 1.2526679,0.0153 2.5043722,0.0536 3.75704,0.068 3.8813432,0.0441 0.4846862,-0.068 4.4402262,0.068 1.114874,0.0383 2.357906,0.16109 3.484344,0.068 0.447106,-0.0374 0.814234,-0.19241 1.229541,-0.33961 0.312204,-0.11071 0.651388,-0.14165 0.955882,-0.27142 1.238214,-0.52723 -0.455778,0.0125 1.161127,-0.74694 1.178471,-0.55299 2.559297,-1.03013 3.89387,-0.88264 0.527084,0.0584 0.993462,0.3059 1.503201,0.40751 0.54732,0.10871 1.212198,-0.0431 1.707483,0.20343"
       id="path25585" />
    <path
       style="fill:#c8ae54;fill-opacity:1;stroke:none;stroke-width:2;stroke-linecap:round;stroke-dasharray:none;stroke-opacity:1;stop-color:#000000"
       d="m 23.887607,262.82354 c -2.436921,0.60558 -0.734256,0.19251 -6.967724,1.01865 -0.207172,0.0278 -2.022577,0.22248 -2.459084,0.13551 -0.576227,-0.11425 -1.02526,-0.42063 -1.02526,-1.01835 0,-0.068 -0.04818,-0.15151 0,-0.20381 0.195609,-0.23253 1.542708,-0.81847 1.775897,-0.88255 1.453095,-0.39832 3.03242,-0.30513 4.508641,-0.1358 0.417235,0.0479 1.313374,0.34181 1.775898,0.20371 0.322803,-0.0961 0.5743,-0.35781 0.88843,-0.47513 0.357492,-0.13332 0.722693,-0.24758 1.092712,-0.33952 1.429005,-0.35503 0.722693,-0.0201 1.229542,-0.27171"
       id="path25587" />
    <path
       style="fill:#c8ae54;fill-opacity:1;stroke:none;stroke-width:2;stroke-linecap:round;stroke-dasharray:none;stroke-opacity:1;stop-color:#000000"
       d="m 41.238021,259.08935 c -0.286187,0.0402 -0.519376,0.46373 -0.819053,0.40723 -1.055131,-0.19768 -2.119899,-0.46326 -3.074817,-0.95055 -0.762201,-0.38922 -1.319156,-1.08779 -1.981143,-1.62929 -2.01005,-1.64558 -2.176751,-2.33179 -4.440226,-2.71594 -0.897103,-0.15237 -3.512288,0.52781 -4.166566,0.67884 -1.792278,0.41355 -3.584557,0.76858 -5.397071,1.08636 -1.140892,0.20035 -2.32129,0.41374 -3.483381,0.20371 -0.01927,-0.01 0.01927,-0.0517 0,-0.068 -0.01927,-0.0153 -0.05782,0.0201 -0.06745,0 -0.01927,-0.0402 0,-0.091 0,-0.13581 0,-0.65815 0.181155,-1.10666 0.614771,-1.62939 0.264024,-0.31854 1.375044,-1.45585 1.707483,-1.62967 0.206208,-0.10737 0.453851,-0.099 0.683185,-0.13581 1.18329,-0.18953 2.35598,-0.37984 3.552759,-0.20371 0.706312,0.10411 1.588961,0.30178 2.185424,0.74703 0.298713,0.22277 0.436507,0.60433 0.683186,0.88255 0.530938,0.59753 1.191961,1.08789 1.708446,1.69758 1.593779,1.88194 -0.615734,-0.46498 1.229542,1.56139 0.557919,0.61304 0.653314,0.63555 1.297956,1.15426 0.251498,0.20246 0.464451,0.46248 0.750638,0.61122 0.24957,0.12949 0.541537,0.16396 0.820015,0.20371 1.178472,0.16722 2.354052,0.10669 3.347514,-0.61122 0.738111,-0.53337 1.262304,-1.28423 2.049558,-1.7651 0.01927,-0.0105 0.858559,-0.13284 0.887467,-0.13591 0.10214,-0.0105 1.016588,-0.099 1.297956,-0.068 0.24957,0.0278 0.498177,0.1721 0.751601,0.2038 0.48854,0.0603 0.06745,-0.10727 0.683186,0.068 0.489504,0.13906 0.454815,0.22832 0.88843,0.27132 0.540575,0.0536 0.240898,-0.10966 0.955882,0.068 0.244752,0.0603 0.619589,0.22325 0.546356,0.27171 -0.220662,0.14644 -0.508776,0.11579 -0.7516,0.13581 -0.393145,0.0326 -0.636934,0.10113 -1.024297,0.20371 -0.100214,0.0268 -0.769909,0.2129 -0.888431,0.27171 -0.41049,0.2039 -0.74871,0.54169 -1.161127,0.74674"
       id="path25589" />
    <path
       style="fill:#c8ae54;fill-opacity:1;stroke:none;stroke-width:2;stroke-linecap:round;stroke-dasharray:none;stroke-opacity:1;stop-color:#000000"
       d="m 55.926033,268.73073 c 0.13683,0.045 0.544429,0.18695 0.409526,0.13552 -1.022369,-0.39075 -2.175787,-0.53029 -3.073854,-1.15416 -3.105653,-2.15748 -3.070963,-4.05599 -6.421368,-4.88864 -1.187144,-0.29498 -1.431896,0.9832 -2.186388,1.42587 -1.070549,0.62894 -2.218185,1.15627 -3.414965,1.49377 -0.582009,0.16425 -2.912935,-0.26654 -3.415929,-0.33952 -1.371189,-0.19863 -2.712508,-0.33242 -4.099115,-0.1358 -0.01927,0 0.04818,0 0.06745,0 0.183082,0.0201 0.370019,0.0182 0.547319,0.068 0.395072,0.10994 0.763164,0.30657 1.161127,0.40742 1.373117,0.34794 3.872671,0.74071 5.191827,0.95054 1.319155,0.20984 2.646983,0.36998 3.961321,0.61123 2.419576,0.44391 4.74472,0.94059 7.104554,1.56139 0.822906,0.21644 1.652558,0.41182 2.459083,0.67912 0.630189,0.2086 1.256523,0.44171 1.845277,0.74675 1.594742,0.82709 0.795925,0.88264 1.844312,0.88264"
       id="path25591" />
    <path
       style="fill:#c8ae54;fill-opacity:1;stroke:none;stroke-width:2;stroke-linecap:round;stroke-dasharray:none;stroke-opacity:1;stop-color:#000000"
       d="m 52.099615,278.84725 c -1.331683,-0.26482 0.105995,-0.0201 -3.209721,0.40722 -1.55909,0.20122 -2.205659,-0.13705 -3.347514,0.67913 -0.445179,0.31797 -0.842178,0.70087 -1.229542,1.08626 -0.04818,0.0508 -0.12623,0.16071 -0.06745,0.20381 0.08672,0.068 0.227407,0 0.341111,0 0.477941,0 0.956846,-0.01 1.434787,0 1.206415,0.0153 2.416685,-0.0153 3.62021,0.068 0.945282,0.0642 1.80866,0.47312 2.732743,0.61094 0.271733,0.0402 0.548283,0.0297 0.820016,0.068 0.367128,0.0517 1.650631,0.31241 2.049557,0.40742 0.434579,0.10372 0.881686,0.1744 1.297957,0.33961 0.381582,0.1518 -0.0096,0.13552 0.204281,0.13552"
       id="path25593" />
    <path
       style="fill:#c8ae54;fill-opacity:1;stroke:none;stroke-width:2;stroke-linecap:round;stroke-dasharray:none;stroke-opacity:1;stop-color:#000000"
       d="m 16.031452,284.07541 c -3.609611,-0.67712 -3.752222,-0.93408 -7.5140802,-0.67913 -0.717875,0.0488 -1.4222598,0.2288 -2.1179723,0.40742 -0.7217294,0.18503 -1.9339265,0.93915 -2.8686095,0.61093 -0.1686283,-0.0584 -0.2775141,-0.2219 -0.4104896,-0.33922 -0.6301883,-0.55731 -0.8200157,-0.96272 -0.8200157,-1.83339 0,-0.23311 -0.077087,-0.83093 0.2052449,-1.01845 0.077087,-0.0517 0.1840458,-0.0383 0.2736597,-0.068 0.096359,-0.0316 0.1715191,-0.1246 0.2726962,-0.13581 0.1589924,-0.0182 0.3189485,0 0.4789045,0 0.6369335,0 1.2767577,-0.0565 1.9117639,0 0.3969994,0.0354 0.7727998,0.18954 1.1620904,0.27171 0.4789046,0.10104 1.5109102,0.20927 1.9811424,0.54323 0.1589925,0.11301 0.2206623,0.3216 0.3411111,0.47513 0.086723,0.11454 0.1965725,0.21616 0.2736598,0.33961 0.3228029,0.5212 0.5877903,1.70256 1.0927114,2.03681 0.09636,0.0642 0.225481,0.0584 0.341112,0.068 0.809416,0.067 1.652558,-0.1135 2.460047,-0.13581 1.433822,-0.0393 2.870536,0.0642 4.303396,-0.068 0.458669,-0.0421 0.908666,-0.14826 1.366371,-0.2038 0.117558,-0.0153 2.566042,-0.13811 2.800195,-0.27133 0.71113,-0.40349 1.308556,-1.01874 2.186387,-1.01874"
       id="path25595" />
    <path
       style="fill:#c8ae54;fill-opacity:1;stroke:none;stroke-width:2;stroke-linecap:round;stroke-dasharray:none;stroke-opacity:1;stop-color:#000000"
       d="m 56.925119,292.42051 c -3.065182,-0.10746 -5.68904,-1.8263 -8.606792,-2.44432 -0.361347,-0.0766 -4.522131,-0.614 -5.875013,-0.33952 -1.294102,0.26223 -1.842385,0.7115 -2.937988,1.29007 -0.31413,0.16616 -0.642715,0.30551 -0.955881,0.47513 -0.425908,0.23081 -0.74582,0.49438 -1.161127,0.74693 -0.307386,0.24461 -0.692822,0.34517 -1.025261,0.54304 -0.01927,0.0125 0.04818,0.01 0.06745,0 0.09636,-0.0172 0.180191,-0.0623 0.273659,-0.068 0.272697,-0.0182 0.546356,0 0.820016,0 3.086381,0 -0.646569,-0.0297 3.414965,0.1359 1.821187,0.0747 3.643337,0.11224 5.465487,0.1358 2.376214,0.0307 4.75532,0.0498 7.104554,-0.33961 0.508776,-0.0843 1.03586,-0.33645 1.365408,-0.74674 0.167665,-0.20802 0.252461,-0.46325 0.410489,-0.67884 0.281369,-0.38472 0.71113,-0.98349 1.229542,-1.08635 0.133939,-0.0268 0.27366,0 0.409526,0 0.111777,0 0.446143,0.0182 0.546356,0.068 0.264024,0.1312 -0.170555,0.83188 -0.204281,1.01864 -0.05782,0.2944 -0.06745,0.52752 -0.06745,0.81464"
       id="path25597" />
    <path
       style="fill:#c8ae54;fill-opacity:1;stroke:none;stroke-width:2;stroke-linecap:round;stroke-dasharray:none;stroke-opacity:1;stop-color:#000000"
       d="m -1.0168803,258.69242 c 2.5429158,0.35225 5.1108849,0.48652 7.65091,0.88255 0.6937853,0.10851 1.7007375,0.28914 2.3222535,0.67912 0.2322254,0.14548 0.3941086,0.38185 0.6147709,0.54304 0.1233396,0.09 0.2861864,0.11454 0.409526,0.20371 0.4345799,0.31404 0.5608099,0.68037 0.7515999,1.15425 0.03854,0.0973 0.126231,0.29221 0.06745,0.40752 -0.117558,0.23436 -0.658132,0.13628 -0.8200155,0.068 -0.4586691,-0.19595 -0.8373603,-0.55271 -1.2979566,-0.74703 -0.8219429,-0.34747 -1.8712931,-0.73085 -2.8001945,-0.95055 -0.1165945,-0.0278 -0.8421783,-0.22679 -1.0252605,-0.13581 -0.7419648,0.36921 -1.3933521,1.01568 -2.1854237,1.35797 -1.4742937,0.63708 -2.91678897,0.81465 -4.5086408,0.81465 -0.1108129,0 0.2321263,-0.0858 0.1839468,-0.23143 -0.1146673,-0.34134 -0.00263,-0.5888 0.074459,-0.94709 0.096359,-0.43337 0.055725,-0.64903 0.4247802,-0.72258 0.35171062,-0.0699 0.51166667,0.13638 0.68318581,-0.20371"
       id="path25599"
       sodipodi:nodetypes="ccccccccccccscccc" />
    <path
       style="color:#000000;fill:#382c0e;stroke-width:0.999995;stroke-linecap:square;-inkscape-stroke:none;fill-opacity:1"
       d="m 0.53888249,242.7551 c -1.64709859,0 -3.00369279,1.34835 -3.00369279,2.98543 v 47.98757 c 0,1.63708 1.3565942,2.98355 3.00369279,2.98355 H 57.560113 c 1.6471,0 3.001812,-1.34647 3.001812,-2.98355 v -47.98757 c 0,-1.63708 -1.354712,-2.98543 -3.001812,-2.98543 z m 0,1.91546 H 57.560113 c 0.612777,0 1.074631,0.46092 1.074631,1.06997 v 47.98757 c 0,0.60905 -0.461854,1.06809 -1.074631,1.06809 H 0.53888249 c -0.61277601,0 -1.07651144,-0.45904 -1.07651144,-1.06809 v -47.98757 c 0,-0.60905 0.46373543,-1.06997 1.07651144,-1.06997 z"
       id="path4" />
    <rect
       style="fill:#583018;fill-opacity:1;stroke:#331b0f;stroke-width:1.50001;stroke-linecap:round;stroke-dasharray:none;stroke-opacity:1;stop-color:#000000"
       id="rect25605"
       width="63.907661"
       height="3.416539"
       x="-61.055538"
       y="-271.43622"
       transform="rotate(-179.98871)" />
    <rect
       style="fill:#6d3a1d;fill-opacity:1;stroke:#331b0f;stroke-width:1.5;stroke-linecap:round;stroke-dasharray:none;stroke-opacity:1;stop-color:#000000"
       id="rect25607"
       width="3.8991339"
       height="54.838272"
       x="-44.704914"
       y="-297.15292"
       transform="scale(-1)" />
    <rect
       style="fill:#6d3a1d;fill-opacity:1;stroke:#331b0f;stroke-width:1.5;stroke-linecap:round;stroke-dasharray:none;stroke-opacity:1;stop-color:#000000"
       id="rect25609"
       width="3.8991339"
       height="54.838272"
       x="-16.331865"
       y="-297.15292"
       transform="scale(-1)" />
  </g>
</svg>
