<?xml version="1.0" encoding="UTF-8" standalone="no"?>
<svg
   width="1058.0376"
   height="985.44403"
   viewBox="0 0 1058.0376 985.44405"
   fill="none"
   version="1.1"
   id="svg60"
   sodipodi:docname="maple_tree_leaves_3.svg"
   inkscape:version="1.4.2 (1:1.4.2+202505120737+ebf0e940d0)"
   xmlns:inkscape="http://www.inkscape.org/namespaces/inkscape"
   xmlns:sodipodi="http://sodipodi.sourceforge.net/DTD/sodipodi-0.dtd"
   xmlns="http://www.w3.org/2000/svg"
   xmlns:svg="http://www.w3.org/2000/svg">
  <defs
     id="defs64" />
  <sodipodi:namedview
     id="namedview62"
     pagecolor="#505050"
     bordercolor="#ffffff"
     borderopacity="1"
     inkscape:pageshadow="0"
     inkscape:pageopacity="0"
     inkscape:pagecheckerboard="1"
     showgrid="false"
     width="368.403px"
     inkscape:zoom="0.53740115"
     inkscape:cx="504.27879"
     inkscape:cy="512.65242"
     inkscape:window-width="2560"
     inkscape:window-height="1368"
     inkscape:window-x="0"
     inkscape:window-y="0"
     inkscape:window-maximized="1"
     inkscape:current-layer="svg60"
     inkscape:showpageshadow="2"
     inkscape:deskcolor="#505050" />
  <path
     opacity="0.95"
     d="m 728.31912,952.11743 c 82.07471,0 148.60876,-66.53405 148.60876,-148.60763 0,-82.07433 -66.53405,-148.60838 -148.60876,-148.60838 -82.07357,0 -148.60724,66.53405 -148.60724,148.60838 0,82.07358 66.53404,148.60763 148.60724,148.60763 z"
     fill="#3a4f3f"
     id="path6-28-0-0-1-5-4-9-8-1-00-8-9-6-8-5-5-31"
     style="fill:#b93812;fill-opacity:0.90968066;stroke-width:1.68873" />
  <path
     opacity="0.95"
     d="m 294.09146,431.1772 c 101.27282,0 183.37097,-82.09739 183.37097,-183.36983 0,-101.27282 -82.09815,-183.37058 -183.37097,-183.37058 -101.27244,0 -183.36945,82.09776 -183.36945,183.37058 0,101.27244 82.09739,183.36983 183.36945,183.36983 z"
     fill="#3a4f3f"
     id="path6-28-0-0-1-5-4-9-4-5"
     style="fill:#b3340f;fill-opacity:0.86227542;stroke-width:2.08375" />
  <path
     opacity="0.95"
     d="m 183.36982,687.36265 c 101.27282,0 183.37059,-82.09776 183.37059,-183.36983 0,-101.27282 -82.09777,-183.37058 -183.37059,-183.37058 C 82.09739,320.62224 0,402.72 0,503.99282 0,605.26489 82.09739,687.36265 183.36982,687.36265 Z"
     fill="#3a4f3f"
     id="path6-28-0-0-1-5-4-9-4-78-3-2"
     style="fill:#b3340f;fill-opacity:0.86227542;stroke-width:2.08375" />
  <path
     id="path6-28-0-0-1-5-4-9-4-7-8"
     style="fill:#b3340f;fill-opacity:0.86227542;stroke-width:2.66064"
     d="M 655.85651,0 C 526.54715,0 421.72158,104.82671 421.72158,234.13682 c 0,121.68265 92.83313,221.65644 211.53486,233.02904 -27.3479,38.31345 -43.49026,85.17581 -43.49026,135.83622 0,129.30936 104.82557,234.13456 234.13531,234.13456 129.30935,0 234.13611,-104.8252 234.13611,-234.13456 0,-121.68264 -92.83318,-221.65568 -211.53454,-233.02942 27.34715,-38.31307 43.48989,-85.17581 43.48989,-135.83584 C 889.99295,104.82671 785.16586,0 655.85651,0 Z" />
  <path
     opacity="0.95"
     d="m 505.01329,322.59477 c 82.07433,0 148.60838,-66.53405 148.60838,-148.60762 0,-82.07395 -66.53405,-148.608 -148.60838,-148.608 -82.07357,0 -148.60762,66.53405 -148.60762,148.608 0,82.07357 66.53405,148.60762 148.60762,148.60762 z"
     fill="#3a4f3f"
     id="path6-28-0-0-1-5-4-9-8-1-00-8-9-6-8-5-8"
     style="fill:#b93812;fill-opacity:0.90968066;stroke-width:1.68873" />
  <path
     opacity="0.95"
     d="m 908.23487,748.39507 c 58.57474,0 106.05883,-47.4841 106.05883,-106.05808 0,-58.57474 -47.48409,-106.05884 -106.05883,-106.05884 -58.57398,0 -106.05808,47.4841 -106.05808,106.05884 0,58.57398 47.4841,106.05808 106.05808,106.05808 z"
     fill="#3a4f3f"
     id="path6-28-0-0-1-5-4-9-8-1-00-8-9-6-8-5-6-0"
     style="fill:#b93812;fill-opacity:0.90968066;stroke-width:1.20521" />
  <path
     opacity="0.95"
     d="m 358.51389,912.56689 c 105.3052,0 190.6715,-85.36629 190.6715,-190.6707 0,-105.3052 -85.36668,-190.6715 -190.6715,-190.6715 -105.30444,0 -190.67074,85.3663 -190.67074,190.6715 0,105.3044 85.3663,190.6707 190.67074,190.6707 z"
     fill="#3a4f3f"
     id="path6-28-0-0-1-5-4-9-8-1-00-8-9-6-8-5-0-7"
     style="fill:#b3340f;fill-opacity:0.86227542;stroke-width:2.16672" />
  <path
     opacity="0.95"
     d="m 477.07125,656.98281 c 111.71376,0 202.27502,-90.56164 202.27502,-202.27465 0,-111.71339 -90.56126,-202.27503 -202.27502,-202.27503 -111.71301,0 -202.27427,90.56164 -202.27427,202.27503 0,111.71301 90.56126,202.27465 202.27427,202.27465 z"
     fill="#3a4f3f"
     id="path6-28-0-0-1-5-4-9-8-1-00-8-9-6-8-5-0-9-7"
     style="fill:#b93812;fill-opacity:0.90980393;stroke-width:2.29858" />
  <path
     opacity="0.95"
     d="m 172.66718,828.44107 c 82.07471,0 148.60876,-66.53443 148.60876,-148.608 0,-82.07396 -66.53405,-148.60838 -148.60876,-148.60838 -82.073579,0 -148.607239,66.53442 -148.607239,148.60838 0,82.07357 66.53404,148.608 148.607239,148.608 z"
     fill="#3a4f3f"
     id="path6-28-0-0-1-5-4-9-8-1-00-8-9-6-8-5-5-3-9"
     style="fill:#b93812;fill-opacity:0.90968066;stroke-width:1.68873" />
  <path
     id="path1271-9-9-6-3-0-6-0"
     sodipodi:nodetypes="cc"
     class="st4"
     d="m 519.88065,142.06748 c 4.28978,3.614 9.80654,8.51835 12.58948,13.24393"
     style="clip-rule:evenodd;opacity:0.8;fill:#c93d2b;fill-opacity:0.921569;fill-rule:evenodd;stroke:#a4412d;stroke-width:9.00004;stroke-linecap:round;stroke-linejoin:round;stroke-miterlimit:45.3543;stroke-dasharray:none;enable-background:new" />
  <path
     id="path1273-6-6-2-7-1-6-1"
     inkscape:transform-center-x="8.1147597"
     inkscape:transform-center-y="-9.0536316"
     class="st5"
     d="m 482.5391,102.78331 4.72863,16.5502 -5.02026,3.59715 13.0655,9.58715 -11.66707,2.22344 0.98579,2.16088 -10.3211,7.46067 12.19683,4.96463 -1.91362,2.0325 13.53761,1.76716 -1.77206,15.89236 7.97519,-5.65781 0.75577,2.59323 9.03532,-8.58854 6.46798,4.1072 -0.71575,-19.29632 19.23517,1.69387 -3.77426,-6.66775 9.03529,-8.58853 -2.55163,-0.88608 6.05477,-7.67806 -15.90292,0.8016 -1.079,-13.6095 -2.12698,1.80794 -4.34013,-12.432642 -7.97393,9.930032 -2.10817,-1.09424 -2.81185,11.5397 -8.91265,-13.53461 -3.84668,4.83164 z"
     style="fill:#d43100;fill-opacity:0.93712598;stroke-width:9.00004;stroke-miterlimit:45.3543;stroke-dasharray:none" />
  <path
     id="path1271-9-9-6-3-0-6-3-6-1"
     sodipodi:nodetypes="cc"
     class="st4"
     d="m 914.91354,525.47134 c -5.2922,-1.85898 -12.18907,-4.48967 -16.46622,-7.92213"
     style="clip-rule:evenodd;opacity:0.8;fill:#c93d2b;fill-opacity:0.921569;fill-rule:evenodd;stroke:#a4412d;stroke-width:9.00004;stroke-linecap:round;stroke-linejoin:round;stroke-miterlimit:45.3543;stroke-dasharray:none;enable-background:new" />
  <path
     id="path1273-6-6-2-7-1-6-4-5-0"
     inkscape:transform-center-x="8.1147597"
     inkscape:transform-center-y="-9.0536316"
     class="st5"
     d="m 963.75438,548.97048 -10.2875,-13.79987 3.41944,-5.14295 -15.61528,-4.33403 10.12164,-6.21422 -1.68767,-1.67122 7.00683,-10.63442 -13.16465,-0.31946 1.06901,-2.5788 -13.28512,3.14566 -3.97565,-15.48876 -5.45219,8.11715 -1.62582,-2.15702 -5.40477,11.23335 -7.50381,-1.54814 7.50842,17.78999 -18.58684,5.23355 5.89246,4.8972 -5.40473,11.23335 2.70003,-0.0758 -2.94041,9.3256 14.58645,-6.38597 5.83254,12.34359 1.34811,-2.44444 8.46485,10.08731 3.93682,-12.11159 2.35915,0.27601 -1.46066,-11.78718 13.13109,9.49711 1.88451,-5.88135 z"
     style="fill:#d43100;fill-opacity:0.93712598;stroke-width:9.00004;stroke-miterlimit:45.3543;stroke-dasharray:none" />
  <path
     id="path1271-9-9-6-3-0-6-3-6-5-4-8-9"
     sodipodi:nodetypes="cc"
     class="st4"
     d="m 451.39628,591.40591 c 4.15855,3.76426 9.49743,8.86168 12.11056,13.68323"
     style="clip-rule:evenodd;opacity:0.8;fill:#c93d2b;fill-opacity:0.921569;fill-rule:evenodd;stroke:#a4412d;stroke-width:9.00004;stroke-linecap:round;stroke-linejoin:round;stroke-miterlimit:45.3543;stroke-dasharray:none;enable-background:new" />
  <path
     id="path1273-6-6-2-7-1-6-4-5-7-1-4-7"
     inkscape:transform-center-x="8.1147597"
     inkscape:transform-center-y="-9.0536316"
     class="st5"
     d="m 415.47529,550.81872 4.13712,16.70788 -5.14501,3.41635 12.71632,10.04571 -11.73876,1.80715 0.90833,2.19457 -10.57987,7.08893 12.01257,5.39521 -1.98468,1.96317 13.4662,2.24743 -2.33606,15.81929 8.17133,-5.37063 0.66307,2.61847 9.33502,-8.26181 6.31784,4.3346 -0.0291,-19.30956 19.16276,2.37679 -3.53475,-6.79774 9.33497,-8.26181 -2.5185,-0.97625 6.32397,-7.45789 -15.92136,0.23558 -0.59437,-13.63926 -2.18992,1.73116 -3.89529,-12.57912 -8.32199,9.64021 -2.06793,-1.16852 -3.22042,11.43241 -8.42572,-13.84298 -4.01606,4.6918 z"
     style="fill:#de3300;fill-opacity:0.93712598;stroke-width:9.00004;stroke-miterlimit:45.3543;stroke-dasharray:none" />
  <path
     id="path1271-9-9-6-3-0-6-3-6-5-4-8-4-2"
     sodipodi:nodetypes="cc"
     class="st4"
     d="m 219.09557,706.52805 c 5.49037,-1.14846 12.75318,-2.46716 18.18942,-1.74394"
     style="clip-rule:evenodd;opacity:0.8;fill:#c93d2b;fill-opacity:0.921569;fill-rule:evenodd;stroke:#a4412d;stroke-width:9.00004;stroke-linecap:round;stroke-linejoin:round;stroke-miterlimit:45.3543;stroke-dasharray:none;enable-background:new" />
  <path
     id="path1273-6-6-2-7-1-6-4-5-7-1-4-0-23"
     inkscape:transform-center-x="8.1147597"
     inkscape:transform-center-y="-9.0536316"
     class="st5"
     d="m 165.1429,711.69986 15.94482,6.48321 -0.26397,6.17032 15.60423,-4.37365 -5.44418,10.55581 2.30901,0.55647 -0.49125,12.72577 11.42955,-6.5403 0.42002,2.75981 9.73918,-9.56754 11.41826,11.19511 0.46391,-9.76725 2.50753,1.00416 -1.18952,-12.40907 7.22183,-2.5591 -15.63209,-11.33569 13.19491,-14.09805 -7.57648,-1.14047 -1.18955,-12.40904 -2.27102,1.46232 -2.31073,-9.50122 -9.17556,13.01362 -11.37923,-7.54292 0.11167,2.7893 -12.46377,-4.24994 2.90011,12.40075 -2.16144,0.98486 7.35051,9.32958 -16.15093,-1.32983 1.43156,6.00769 z"
     style="fill:#d43100;fill-opacity:0.93712598;stroke-width:9.00004;stroke-miterlimit:45.3543;stroke-dasharray:none" />
  <path
     id="path1271-9-9-6-3-0-6-3-6-5-4-8-4-1-3"
     sodipodi:nodetypes="cc"
     class="st4"
     d="m 228.87537,188.62505 c 5.49037,-1.14846 12.75318,-2.46716 18.18942,-1.74394"
     style="clip-rule:evenodd;opacity:0.8;fill:#c93d2b;fill-opacity:0.921569;fill-rule:evenodd;stroke:#a4412d;stroke-width:9.00004;stroke-linecap:round;stroke-linejoin:round;stroke-miterlimit:45.3543;stroke-dasharray:none;enable-background:new" />
  <path
     id="path1273-6-6-2-7-1-6-4-5-7-1-4-0-2-2"
     inkscape:transform-center-x="8.1147597"
     inkscape:transform-center-y="-9.0536316"
     class="st5"
     d="m 174.9227,193.79686 15.94482,6.48321 -0.26397,6.17032 15.60423,-4.37365 -5.44418,10.55581 2.30901,0.55647 -0.49125,12.72577 11.42955,-6.5403 0.42002,2.75981 9.73918,-9.56754 11.41826,11.19511 0.46391,-9.76725 2.50753,1.00416 -1.18952,-12.40907 7.22183,-2.5591 -15.63209,-11.33569 13.19491,-14.09805 -7.57648,-1.14047 -1.18955,-12.40904 -2.27102,1.46232 -2.31073,-9.50122 -9.17556,13.01362 -11.37923,-7.54292 0.11167,2.7893 -12.46377,-4.24994 2.90011,12.40075 -2.16144,0.98486 7.35051,9.32958 -16.15093,-1.32983 1.43156,6.00769 z"
     style="fill:#de3300;fill-opacity:0.93712598;stroke-width:9.00004;stroke-miterlimit:45.3543;stroke-dasharray:none" />
  <path
     id="path1271-9-9-6-3-0-6-3-6-5-4-8-4-5-6"
     sodipodi:nodetypes="cc"
     class="st4"
     d="m 246.17124,362.50362 c 3.49882,-4.38422 8.25496,-10.02927 12.90498,-12.9367"
     style="clip-rule:evenodd;opacity:0.8;fill:#c93d2b;fill-opacity:0.921569;fill-rule:evenodd;stroke:#a4412d;stroke-width:9.00004;stroke-linecap:round;stroke-linejoin:round;stroke-miterlimit:45.3543;stroke-dasharray:none;enable-background:new" />
  <path
     id="path1273-6-6-2-7-1-6-4-5-7-1-4-0-20-8"
     inkscape:transform-center-x="8.1147597"
     inkscape:transform-center-y="-9.0536316"
     class="st5"
     d="m 207.89243,400.8751 16.41881,-5.16642 3.72918,4.92298 9.23686,-13.31545 2.53244,11.60392 2.13395,-1.04282 7.73209,10.11936 4.63902,-12.32435 2.08259,1.85897 1.40708,-13.57976 15.93381,1.34946 -5.86758,-7.82215 2.57225,-0.82436 -8.82542,-8.80409 3.93401,-6.57476 -19.27051,1.22787 1.18253,-19.27336 -6.56518,3.94996 -8.82542,-8.80405 -0.818,2.57426 -7.83613,-5.84877 1.22357,15.87603 -13.57604,1.43999 1.86378,2.07822 -12.31302,4.66872 10.13826,7.70745 -1.03788,2.13649 11.61029,2.50444 -13.29318,9.26888 4.93207,3.71704 z"
     style="fill:#de3300;fill-opacity:0.93712598;stroke-width:9.00004;stroke-miterlimit:45.3543;stroke-dasharray:none" />
  <path
     id="path1271-9-9-6-3-0-6-3-6-5-4-5-0"
     sodipodi:nodetypes="cc"
     class="st4"
     d="m 586.10958,414.13195 c 3.65972,-4.25084 8.62286,-9.71478 13.37796,-12.44696"
     style="clip-rule:evenodd;opacity:0.8;fill:#c93d2b;fill-opacity:0.921569;fill-rule:evenodd;stroke:#a4412d;stroke-width:9.00004;stroke-linecap:round;stroke-linejoin:round;stroke-miterlimit:45.3543;stroke-dasharray:none;enable-background:new" />
  <path
     id="path1273-6-6-2-7-1-6-4-5-7-1-8-6"
     inkscape:transform-center-x="8.1147597"
     inkscape:transform-center-y="-9.0536316"
     class="st5"
     d="m 546.42784,451.05074 16.59988,-4.55116 3.54319,5.05849 9.7265,-12.9621 2.09839,11.69021 2.17132,-0.9626 7.34973,10.40039 5.09494,-12.14297 2.01189,1.93527 1.912,-13.51791 15.87248,1.94211 -5.5721,-8.0353 2.60118,-0.72796 -8.4913,-9.12676 4.17621,-6.42364 -19.30287,0.5091 1.89971,-19.21592 -6.70777,3.70264 -8.4913,-9.12672 -0.91334,2.54199 -7.6128,-6.13663 0.63128,15.91058 -13.62027,0.93323 1.78507,2.14621 -12.47841,4.20677 9.84409,8.07979 -1.11675,2.09634 11.50893,2.93524 -13.62926,8.76722 4.79018,3.89819 z"
     style="fill:#d43100;fill-opacity:0.93712598;stroke-width:9.00004;stroke-miterlimit:45.3543;stroke-dasharray:none" />
  <path
     opacity="0.95"
     d="m 549.18501,985.44403 c 101.27282,0 183.37058,-82.09776 183.37058,-183.3702 0,-101.27282 -82.09776,-183.37058 -183.37058,-183.37058 -101.27282,0 -183.36983,82.09776 -183.36983,183.37058 0,101.27244 82.09739,183.3702 183.36983,183.3702 z"
     fill="#3a4f3f"
     id="path6-28-0-0-1-5-4-9-4-78-1"
     style="fill:#b93812;fill-opacity:0.90968066;stroke-width:2.08375" />
  <path
     opacity="0.95"
     d="m 844.40958,516.91918 c 82.07433,0 148.608,-66.53404 148.608,-148.60762 0,-82.07433 -66.53367,-148.60838 -148.60838,-148.60838 -82.07357,0 -148.60762,66.53405 -148.60762,148.60838 0,82.07358 66.53405,148.60762 148.608,148.60762 z"
     fill="#3a4f3f"
     id="path6-28-0-0-1-5-4-9-8-1-00-8-9-6-8-5-5-7-5"
     style="fill:#b93812;fill-opacity:0.90968066;stroke-width:1.68873" />
  <path
     id="path1271-9-9-6-3-0-6-3-6-5-4-4"
     sodipodi:nodetypes="cc"
     class="st4"
     d="m 513.14648,851.81465 c 3.65972,-4.25084 8.62286,-9.71478 13.37796,-12.44696"
     style="clip-rule:evenodd;opacity:0.8;fill:#c93d2b;fill-opacity:0.921569;fill-rule:evenodd;stroke:#a4412d;stroke-width:9.00004;stroke-linecap:round;stroke-linejoin:round;stroke-miterlimit:45.3543;stroke-dasharray:none;enable-background:new" />
  <path
     id="path1273-6-6-2-7-1-6-4-5-7-1-0"
     inkscape:transform-center-x="8.1147597"
     inkscape:transform-center-y="-9.0536316"
     class="st5"
     d="m 473.46474,888.73344 16.59988,-4.55116 3.54319,5.05849 9.7265,-12.9621 2.09839,11.69021 2.17132,-0.9626 7.34973,10.40039 5.09494,-12.14297 2.01189,1.93527 1.912,-13.51791 15.87248,1.94211 -5.5721,-8.0353 2.60118,-0.72796 -8.4913,-9.12676 4.17621,-6.42364 -19.30287,0.5091 1.89971,-19.21592 -6.70777,3.70264 -8.4913,-9.12672 -0.91334,2.54199 -7.6128,-6.13663 0.63128,15.91058 -13.62027,0.93323 1.78507,2.14621 -12.47841,4.20677 9.84409,8.07979 -1.11675,2.09634 11.50893,2.93524 -13.62926,8.76722 4.79018,3.89819 z"
     style="fill:#de3300;fill-opacity:0.93712598;stroke-width:9.00004;stroke-miterlimit:45.3543;stroke-dasharray:none" />
  <path
     id="path1271-9-9-6-3-0-6-3-6-5-9-0"
     sodipodi:nodetypes="cc"
     class="st4"
     d="m 721.8675,809.80304 c -3.49623,-4.38628 -7.94206,-10.27882 -9.74245,-15.45901"
     style="clip-rule:evenodd;opacity:0.8;fill:#c93d2b;fill-opacity:0.921569;fill-rule:evenodd;stroke:#a4412d;stroke-width:9.00004;stroke-linecap:round;stroke-linejoin:round;stroke-miterlimit:45.3543;stroke-dasharray:none;enable-background:new" />
  <path
     id="path1273-6-6-2-7-1-6-4-5-7-6-9"
     inkscape:transform-center-x="8.1147597"
     inkscape:transform-center-y="-9.0536316"
     class="st5"
     d="m 750.76423,855.65734 -1.38528,-17.15664 5.62909,-2.54084 -10.92755,-11.96701 11.87651,0.11183 -0.54208,-2.31243 11.5856,-5.28776 -10.98389,-7.26391 2.27561,-1.61697 -12.92668,-4.39213 4.85952,-15.23458 -8.93124,3.98088 -0.23161,-2.69117 -10.54645,6.64623 -5.53511,-5.29777 -3.08888,19.06092 -18.52761,-5.43952 2.39086,7.27926 -10.54641,6.64624 2.32785,1.37006 -7.44512,6.33902 15.75052,2.33809 -1.61555,13.55628 2.44069,-1.35489 1.81323,13.043 9.76926,-8.1701 1.85214,1.48706 5.02398,-10.76247 6.08017,15.02173 4.72088,-3.98183 z"
     style="fill:#d43100;fill-opacity:0.93712598;stroke-width:9.00004;stroke-miterlimit:45.3543;stroke-dasharray:none" />
  <path
     id="path1271-9-9-6-3-0-6-3-3"
     sodipodi:nodetypes="cc"
     class="st4"
     d="m 814.96262,218.29698 c -5.06774,2.4044 -11.81853,5.39008 -17.27273,5.96232"
     style="clip-rule:evenodd;opacity:0.8;fill:#c93d2b;fill-opacity:0.921569;fill-rule:evenodd;stroke:#a4412d;stroke-width:9.00004;stroke-linecap:round;stroke-linejoin:round;stroke-miterlimit:45.3543;stroke-dasharray:none;enable-background:new" />
  <path
     id="path1273-6-6-2-7-1-6-4-2"
     inkscape:transform-center-x="8.1147597"
     inkscape:transform-center-y="-9.0536316"
     class="st5"
     d="m 866.19648,200.61282 -17.02076,-2.56182 -1.19089,-6.06006 -14.14278,7.91217 2.81599,-11.53838 -2.37513,7.2e-4 -2.50777,-12.4859 -9.57633,9.03904 -1.05571,-2.58427 -7.22297,11.58526 -13.72589,-8.20411 1.84033,9.60352 -2.67312,-0.3879 4.06735,11.78374 -6.41997,4.18185 17.8551,7.35225 -9.51946,16.80002 7.6326,-0.66871 4.06737,11.7837 1.8646,-1.95427 4.47513,8.69402 5.86666,-14.80295 12.83118,4.66299 -0.76289,-2.68527 13.11295,1.20748 -5.72825,-11.37436 1.87008,-1.46443 -9.334,-7.34489 16.01219,-2.4961 -2.80095,-5.50422 z"
     style="fill:#de3300;fill-opacity:0.93712598;stroke-width:9.00004;stroke-miterlimit:45.3543;stroke-dasharray:none" />
  <path
     id="path1271-9-9-6-3-0-6-3-6-5-3"
     sodipodi:nodetypes="cc"
     class="st4"
     d="m 806.94841,420.67299 c 3.11282,4.66621 7.04448,10.91356 8.40041,16.22744"
     style="clip-rule:evenodd;opacity:0.8;fill:#c93d2b;fill-opacity:0.921569;fill-rule:evenodd;stroke:#a4412d;stroke-width:9.00004;stroke-linecap:round;stroke-linejoin:round;stroke-miterlimit:45.3543;stroke-dasharray:none;enable-background:new" />
  <path
     id="path1273-6-6-2-7-1-6-4-5-7-8"
     inkscape:transform-center-x="8.1147597"
     inkscape:transform-center-y="-9.0536316"
     class="st5"
     d="m 782.03242,372.53952 -0.0704,17.21233 -5.82377,2.05577 9.87653,12.84814 -11.82453,-1.11566 0.34462,2.34999 -11.99123,4.28919 10.33035,8.16664 -2.40418,1.41877 12.509,5.46943 -6.13029,14.76911 9.23586,-3.21142 0.003,2.70111 11.07066,-5.73066 5.06733,5.74682 4.68953,-18.73148 18.00131,6.98667 -1.76679,-7.45535 11.07062,-5.73068 -2.20366,-1.56199 7.95445,-5.68678 -15.4964,-3.66152 2.75602,-13.37112 -2.54651,1.14365 -0.70387,-13.1496 -10.42511,7.31479 -1.71977,-1.63834 -5.91602,10.29911 -4.78821,-15.48205 -5.04066,3.56839 z"
     style="fill:#de3300;fill-opacity:0.93712598;stroke-width:9.00004;stroke-miterlimit:45.3543;stroke-dasharray:none" />
</svg>
