<svg xmlns="http://www.w3.org/2000/svg" width="12" height="35" fill="none"><path fill="#B57921" d="m1.29 30.95.532-22.751.613-2.084v-4.75h7.167v4.75l.612 2.084.534 22.75-.208.584H1.497zM1.29 33.408v-1.041h9.458v1.041l-.208.209H1.497z"/><path fill="#97651C" stroke="#563A10" stroke-miterlimit="3.994" d="M2.035 32.367v-.833h7.967v.833z"/><path stroke="#563A10" stroke-miterlimit="3.994" stroke-width="2" d="M1.822 8.199h8.392m-7.78-2.084h7.168M1.29 30.95l.532-22.752.613-2.083v-4.75h7.167v4.75l.612 2.083.534 22.752-.208.583h-.538v.834h.746v1.041l-.208.209H1.497l-.208-.209v-1.041h.746v-.834h-.538z"/></svg>