<svg width="12" height="35" viewBox="0 0 12 35" fill="none" xmlns="http://www.w3.org/2000/svg">
<path d="M1.28906 30.9498L1.82246 8.19861L2.43496 6.11516V1.3649H9.60202V6.11516L10.2145 8.19861L10.7479 30.9498L10.5396 31.5332H1.49724L1.28906 30.9498Z" fill="#B57921"/>
<path d="M1.28906 33.4084V32.3666H10.7479V33.4084L10.5396 33.6167H1.49741L1.28906 33.4084Z" fill="#B57921"/>
<rect x="2.03516" y="32.3667" width="0.833378" height="7.96711" transform="rotate(-90 2.03516 32.3667)" fill="#97651C" stroke="#563A10" stroke-width="0.999999" stroke-miterlimit="3.99393"/>
<path d="M1.82246 8.19866L1.28906 30.9499L1.49724 31.5333H2.03487V32.3666H1.28906V33.4084L1.49741 33.6167H10.5396L10.7479 33.4084V32.3666H10.002V31.5333H10.5396L10.7479 30.9499L10.2145 8.19866M1.82246 8.19866L2.43496 6.11521M1.82246 8.19866H10.2145M2.43496 6.11521V1.36495H9.60202V6.11521M2.43496 6.11521H9.60202M9.60202 6.11521L10.2145 8.19866" stroke="#563A10" stroke-width="2" stroke-miterlimit="3.99393"/>
</svg>
