<svg width="21" height="25" viewBox="0 0 21 25" fill="none" xmlns="http://www.w3.org/2000/svg">
<rect x="12.4736" y="3.58008" width="1.2104" height="4.37883" transform="rotate(57.1549 12.4736 3.58008)" fill="#383838" stroke="#333333" stroke-miterlimit="3.99393"/>
<rect width="1.2104" height="4.37883" transform="matrix(0.542369 -0.84014 -0.84014 -0.542369 12.4736 16.5928)" fill="#383838" stroke="#333333" stroke-miterlimit="3.99393"/>
<rect x="10.915" y="1.32617" width="8.93554" height="3.65967" fill="#404040" stroke="#333333" stroke-miterlimit="3.99393"/>
<rect x="10.915" y="15.186" width="8.93554" height="3.65967" fill="#404040" stroke="#333333" stroke-miterlimit="3.99393"/>
<path fill-rule="evenodd" clip-rule="evenodd" d="M0.708984 5.84961H10.4838V14.3206H0.708984V5.84961ZM4.97322 12.014C6.03901 12.014 6.90236 11.1506 6.90236 10.0854C6.90236 9.01961 6.03901 8.15626 4.97322 8.15626C3.90799 8.15626 3.04463 9.01961 3.04463 10.0854C3.04463 11.1506 3.90799 12.014 4.97322 12.014Z" fill="#404040" stroke="#333333" stroke-miterlimit="3.99393"/>
<rect x="19.124" y="18.8447" width="0.724932" height="4.77087" fill="#383838" stroke="#333333" stroke-miterlimit="3.99393"/>
</svg>
