<?xml version="1.0" encoding="UTF-8" standalone="no"?>
<svg
   version="1.1"
   width="61.41"
   height="67.191002"
   viewBox="0 0 61.41 67.191004"
   id="svg55"
   sodipodi:docname="tactical_helmet_world.svg"
   inkscape:version="1.1.2 (0a00cf5339, 2022-02-04)"
   xmlns:inkscape="http://www.inkscape.org/namespaces/inkscape"
   xmlns:sodipodi="http://sodipodi.sourceforge.net/DTD/sodipodi-0.dtd"
   xmlns="http://www.w3.org/2000/svg"
   xmlns:svg="http://www.w3.org/2000/svg">
  <sodipodi:namedview
     id="namedview57"
     pagecolor="#505050"
     bordercolor="#ffffff"
     borderopacity="1"
     inkscape:pageshadow="0"
     inkscape:pageopacity="0"
     inkscape:pagecheckerboard="1"
     showgrid="false"
     inkscape:zoom="11.187943"
     inkscape:cx="31.373058"
     inkscape:cy="33.428842"
     inkscape:window-width="2560"
     inkscape:window-height="1372"
     inkscape:window-x="0"
     inkscape:window-y="0"
     inkscape:window-maximized="1"
     inkscape:current-layer="svg55" />
  <defs
     id="defs7">
    <radialGradient
       cx="240.00005"
       cy="180.62279"
       r="23.545139"
       gradientUnits="userSpaceOnUse"
       id="color-1">
      <stop
         offset="0"
         stop-color="#5d5d5d"
         id="stop2" />
      <stop
         offset="1"
         stop-color="#2f2f2f"
         id="stop4" />
    </radialGradient>
  </defs>
  <g
     transform="matrix(1.1789145,0,0,1.1789145,-252.23456,-178.95443)"
     id="g53">
    <g
       data-paper-data="{&quot;isPaintingLayer&quot;:true}"
       fill-rule="nonzero"
       stroke-linecap="butt"
       stroke-linejoin="miter"
       stroke-miterlimit="10"
       stroke-dasharray="none"
       stroke-dashoffset="0"
       style="mix-blend-mode:normal"
       id="g51">
      <path
         d="m 216.45492,180.62279 c 0,-12.13082 9.83397,-21.96479 21.96479,-21.96479 12.13082,0 25.1255,9.83397 25.1255,21.96479 0,12.13082 -12.99468,21.9648 -25.12549,21.9648 -12.13082,0 -21.96479,-9.83398 -21.96479,-21.9648 z"
         fill="url(#color-1)"
         stroke="#000000"
         stroke-width="5.5"
         id="path9"
         style="fill:url(#color-1);stroke-width:5;stroke-miterlimit:10;stroke-dasharray:none" />
      <path
         d="m 228.43997,188.50839 c 0,-0.51581 0,-1.32398 0,-2.11465 0,-1.21911 2.29983,-2.55204 3.47231,-2.63129 1.20338,-0.0813 3.65771,-0.24722 3.65771,-0.24722 l 0.0598,-7.27178 c 0,0 -3.53163,-0.34624 -4.85708,-0.47619 -0.91856,-0.0901 -2.3327,-1.71333 -2.3327,-2.06138 0,-0.74166 0,-2.76941 0,-3.10147 0,-1.30249 1.50081,-2.79884 2.9052,-2.79884 2.6821,0 12.07663,0 17.05813,0 1.89906,0 3.15677,1.11224 3.15677,2.23493 0,0.33605 0,2.41199 0,3.24246 0,1.17497 -1.81387,2.50765 -2.84688,2.57089 -1.23377,0.0755 -4.06095,0.24863 -4.06095,0.24863 l 0.13339,7.25009 c 0,0 2.57348,0.0842 3.75728,0.12293 1.06083,0.0347 3.01717,0.91703 3.01717,1.93141 0,1.12145 0,2.48255 0,3.24245 0,2.11812 -1.3998,3.54509 -2.73384,3.54509 -2.66432,0 -12.33609,0 -17.34007,0 -1.83795,0 -3.04619,-1.49443 -3.04619,-3.68607 z"
         fill="#1d1d1d"
         stroke="none"
         stroke-width="0"
         id="path11" />
      <path
         d="m 253.06756,179.65036 c 0,0 2.71229,-0.88401 3.92026,-1.58237 1.1605,-0.67091 3.19085,-2.52874 3.19085,-2.52874 0,0 0.62993,1.78876 1.17412,2.50787 0.48633,0.64265 1.93699,1.60324 1.93699,1.60324 0,0 -1.25851,0.93062 -1.66618,1.59921 -0.49948,0.81914 -1.11159,2.95635 -1.11159,2.95635 0,0 -2.11285,-1.98448 -3.32264,-2.7248 -1.26888,-0.77648 -4.12181,-1.83076 -4.12181,-1.83076 z"
         fill="#1d1d1d"
         stroke="#000000"
         stroke-width="1.5"
         id="path13" />
      <path
         d="m 260.17866,178.92814 c 0,0.27614 -0.3731,0.5 -0.83333,0.5 -0.46024,0 -0.83333,-0.22386 -0.83333,-0.5 0,-0.27614 0.3731,-0.5 0.83333,-0.5 0.46024,0 0.83333,0.22386 0.83333,0.5 z"
         fill="#626262"
         stroke="#000000"
         stroke-width="0.5"
         id="path15" />
      <path
         d="m 260.17866,180.70591 c 0,0.27614 -0.3731,0.5 -0.83334,0.5 -0.46024,0 -0.83333,-0.22386 -0.83333,-0.5 0,-0.27614 0.37309,-0.5 0.83333,-0.5 0.46024,0 0.83334,0.22386 0.83334,0.5 z"
         fill="#626262"
         stroke="#000000"
         stroke-width="0.5"
         id="path17" />
      <path
         d="m 228.33743,161.41819 v -5.80968 c 0,0 4.6858,-1.79311 11.50392,-1.8124 7.97336,-0.0226 11.15644,2.11401 11.15644,2.11401 l 0.11741,6.5974 c 0,0 -5.02938,-2.6969 -11.50539,-2.60041 -5.53547,0.0825 -11.27238,1.51109 -11.27238,1.51109 z"
         fill="#484848"
         stroke="#000000"
         stroke-width="4"
         id="path19" />
      <path
         d="m 229.039,164.34559 v -5.7619 h 20.85714 v 5.7619 c 0,0 -6.91538,-1.04247 -10.38413,-1.04247 -3.48357,0 -10.47302,1.04247 -10.47302,1.04247 z"
         fill="#484848"
         stroke="#000000"
         stroke-width="1.5"
         id="path21" />
      <path
         d="m 229.84532,160.68211 v -3.55556 h 19.33333 v 3.55556 z"
         fill="#484848"
         stroke="none"
         stroke-width="0"
         id="path23" />
      <path
         d="m 239.83199,200.67887 c 6.47601,0.0965 11.50539,-2.6004 11.50539,-2.6004 l -0.11741,6.5974 c 0,0 -3.18308,2.13656 -11.15644,2.114 -6.81812,-0.0193 -11.50392,-1.8124 -11.50392,-1.8124 v -5.80969 c 0,0 5.73691,1.42861 11.27238,1.51109 z"
         data-paper-data="{&quot;index&quot;:null}"
         fill="#484848"
         stroke="#000000"
         stroke-width="4"
         id="path25" />
      <path
         d="m 239.7342,196.98502 c 3.46875,0 10.38413,-1.07799 10.38413,-1.07799 v 6.09524 h -20.85715 v -6.09524 c 0,0 6.98945,1.07799 10.47302,1.07799 z"
         data-paper-data="{&quot;index&quot;:null}"
         fill="#484848"
         stroke="#000000"
         stroke-width="1.5"
         id="path27" />
      <path
         d="m 249.40091,199.90386 v 3.55555 h -19.33333 v -3.55555 z"
         data-paper-data="{&quot;index&quot;:null}"
         fill="#484848"
         stroke="none"
         stroke-width="0"
         id="path29" />
      <path
         d="m 232.68334,159.06632 v -1.88034 h 0.73451 v 1.88034 z"
         fill="#0a0a0a"
         stroke="none"
         stroke-width="0"
         id="path31" />
      <path
         d="m 235.88579,159.00755 v -1.88034 h 0.73451 v 1.88034 z"
         fill="#0a0a0a"
         stroke="none"
         stroke-width="0"
         id="path33" />
      <path
         d="m 239.1764,158.9488 v -1.88034 h 0.73451 v 1.88034 z"
         fill="#0a0a0a"
         stroke="none"
         stroke-width="0"
         id="path35" />
      <path
         d="m 242.37885,158.97818 v -1.88034 h 0.73451 v 1.88034 z"
         fill="#0a0a0a"
         stroke="none"
         stroke-width="0"
         id="path37" />
      <path
         d="m 245.69883,158.97818 v -1.88034 h 0.73451 v 1.88034 z"
         fill="#0a0a0a"
         stroke="none"
         stroke-width="0"
         id="path39" />
      <path
         d="m 232.61192,203.23298 v -1.88034 h 0.73451 v 1.88034 z"
         fill="#0a0a0a"
         stroke="none"
         stroke-width="0"
         id="path41" />
      <path
         d="m 235.81437,203.17422 v -1.88034 h 0.73451 v 1.88034 z"
         fill="#0a0a0a"
         stroke="none"
         stroke-width="0"
         id="path43" />
      <path
         d="m 239.10498,203.11546 v -1.88034 h 0.73451 v 1.88034 z"
         fill="#0a0a0a"
         stroke="none"
         stroke-width="0"
         id="path45" />
      <path
         d="m 242.30744,203.14484 v -1.88034 h 0.73451 v 1.88034 z"
         fill="#0a0a0a"
         stroke="none"
         stroke-width="0"
         id="path47" />
      <path
         d="m 245.62741,203.14484 v -1.88034 h 0.73451 v 1.88034 z"
         fill="#0a0a0a"
         stroke="none"
         stroke-width="0"
         id="path49" />
    </g>
  </g>
</svg>
