<svg xmlns="http://www.w3.org/2000/svg" xmlns:xlink="http://www.w3.org/1999/xlink" width="831.833" height="494.326" viewBox="0 0 235.02 139.663"><defs><pattern xlink:href="#a" id="k" patternTransform="matrix(.2736 0 0 .26209 139.493 689.908)"/><pattern xlink:href="#b" id="a" patternTransform="matrix(.26374 0 0 .26223 -538.922 1378.213)"/><pattern xlink:href="#c" id="b" x="0" y="0" patternTransform="matrix(.26374 0 0 .26223 243.386 802.713)" preserveAspectRatio="xMidYMid"/><pattern id="c" width="338.127" height="182.912" patternTransform="translate(245 644)" patternUnits="userSpaceOnUse" preserveAspectRatio="xMidYMid"><path d="M0 0v182.912h338.127V0Z" style="fill:#543d2b;fill-opacity:1;stroke-width:5.1292;paint-order:markers stroke fill"/><rect width="39.616" height="163.381" x="-136.367" y="-291.733" rx="3.602" ry="3.602" style="fill:#644c33;fill-opacity:1;stroke-width:1.54049;paint-order:markers stroke fill" transform="scale(1 -1)rotate(90)"/><rect width="39.616" height="163.381" x="-90.502" y="-216.462" rx="3.602" ry="3.602" style="fill:#694c30;fill-opacity:1;stroke-width:1.54049;paint-order:markers stroke fill" transform="scale(1 -1)rotate(90)"/><rect width="39.616" height="163.381" x="-45.341" y="-246.04" rx="3.602" ry="3.602" style="fill:#644c33;fill-opacity:1;stroke-width:1.54049;paint-order:markers stroke fill" transform="scale(1 -1)rotate(90)"/><rect width="39.616" height="163.381" x="-182.912" y="-338.127" rx="3.602" ry="3.602" style="fill:#694c30;fill-opacity:1;stroke-width:1.54049;paint-order:markers stroke fill" transform="scale(1 -1)rotate(90)"/><rect width="39.616" height="163.381" x="-182.912" y="-169.083" rx="3.602" ry="3.602" style="fill:#644c33;fill-opacity:1;stroke-width:1.54049;paint-order:markers stroke fill" transform="scale(1 -1)rotate(90)"/><path d="M0 5.725v39.617h73.05a3.595 3.595 0 0 0 3.602-3.604V9.326a3.593 3.593 0 0 0-3.601-3.601zm255.648.001a3.593 3.593 0 0 0-3.601 3.602V41.74a3.593 3.593 0 0 0 3.601 3.602h82.479V5.726Z" style="fill:#694c30;fill-opacity:1;stroke-width:1.54049;paint-order:markers stroke fill"/><path d="M0 50.828v39.615h43.395a3.593 3.593 0 0 0 3.601-3.601V54.43a3.593 3.593 0 0 0-3.601-3.602zm226.148-.058a3.593 3.593 0 0 0-3.601 3.602v32.412a3.595 3.595 0 0 0 3.601 3.603h111.979V50.77Z" style="fill:#644c33;fill-opacity:1;stroke-width:1.54049;paint-order:markers stroke fill"/><path d="M0 96.727v39.617h118.332a3.595 3.595 0 0 0 3.602-3.604v-32.412a3.593 3.593 0 0 0-3.602-3.602zm301.754.011a3.593 3.593 0 0 0-3.602 3.602v32.412a3.595 3.595 0 0 0 3.602 3.603h36.373V96.738Z" style="fill:#694c30;fill-opacity:1;stroke-width:1.54049;paint-order:markers stroke fill"/></pattern><pattern xlink:href="#d" id="l" patternTransform="matrix(0 -.25547 .24118 0 66.223 103.442)"/><pattern xlink:href="#e" id="d" patternTransform="matrix(.25547 0 0 .24118 -791.413 -611.481)"/><pattern xlink:href="#f" id="e" patternTransform="matrix(.2514 0 0 .23734 133.808 127.221)" preserveAspectRatio="xMidYMid"/><pattern id="f" width="34.016" height="34.016" patternTransform="translate(166.647 745.454)" patternUnits="userSpaceOnUse" preserveAspectRatio="xMidYMid"><path d="M0 0h34.016v34.016H0z" style="fill:#404040;fill-opacity:1;stroke:none;stroke-width:6.12102;stroke-linejoin:round;stop-color:#000" transform="matrix(0 1 1 0 0 0)"/><circle cx="17.008" cy="17.008" r="2.956" style="fill:#bfbfbf;fill-opacity:1;fill-rule:evenodd;stroke:none;stroke-width:6.04887;stroke-linejoin:round;stop-color:#000" transform="matrix(0 1 1 0 0 0)"/></pattern><pattern xlink:href="#g" id="m" x="0" y="0" patternTransform="translate(-36.731 -75.044)scale(.265)" preserveAspectRatio="none"/><pattern xlink:href="#h" id="g" patternTransform="matrix(.23388 0 0 .20795 -864.412 735.895)"/><pattern xlink:href="#i" id="h" patternTransform="matrix(.23388 0 0 .20795 -82.105 160.394)" preserveAspectRatio="xMidYMid"/><pattern xlink:href="#j" id="i" patternTransform="translate(-48.854 162.137)scale(.26458)" preserveAspectRatio="xMidYMid"/><pattern id="j" width="64" height="64" patternTransform="translate(102.08 557.182)" patternUnits="userSpaceOnUse" preserveAspectRatio="xMidYMid"><rect width="64" height="64" rx="0" ry="0" style="fill:#9c9c9c;fill-opacity:1;fill-rule:evenodd;stroke:none;stroke-width:10.302;stroke-linecap:round;stroke-linejoin:miter;stroke-opacity:1;stop-color:#000"/><rect width="52" height="52" x="6" y="6" rx="2.5" ry="2.5" style="fill:#bfbfbf;fill-opacity:1;fill-rule:evenodd;stroke:none;stroke-width:11.1918;stroke-linejoin:miter;stroke-opacity:1;stop-color:#000"/></pattern></defs><g transform="matrix(0 -1 -1 0 -6.684 -213.616)"><rect width="12.957" height="34.113" x="-233.963" y="-75.917" rx="2.624" ry="2.624" style="fill:#333;fill-opacity:1;stroke:#181818;stroke-width:2.0632;stroke-linecap:square;stroke-linejoin:round;stroke-dasharray:none;stroke-opacity:1;paint-order:normal;stop-color:#000"/><rect width="12.957" height="34.113" x="-233.955" y="-115.667" rx="2.624" ry="2.624" style="fill:#333;fill-opacity:1;stroke:#181818;stroke-width:2.0632;stroke-linecap:square;stroke-linejoin:round;stroke-dasharray:none;stroke-opacity:1;paint-order:normal;stop-color:#000"/></g><g transform="matrix(0 -1 -1 0 -6.684 -112.065)"><rect width="12.957" height="34.113" x="-233.963" y="-75.917" rx="2.624" ry="2.624" style="fill:#333;fill-opacity:1;stroke:#181818;stroke-width:2.0632;stroke-linecap:square;stroke-linejoin:round;stroke-dasharray:none;stroke-opacity:1;paint-order:normal;stop-color:#000"/><rect width="12.957" height="34.113" x="-233.955" y="-115.667" rx="2.624" ry="2.624" style="fill:#333;fill-opacity:1;stroke:#181818;stroke-width:2.0632;stroke-linecap:square;stroke-linejoin:round;stroke-dasharray:none;stroke-opacity:1;paint-order:normal;stop-color:#000"/></g><path d="M1.547 12.692h231.925v103.896H1.547Z" style="baseline-shift:baseline;display:inline;overflow:visible;vector-effect:none;fill:url(#k);stroke-linecap:round;stroke-linejoin:round;stop-color:#000"/><path d="M117.298 138.731v-9.806h51.66v9.806z" style="fill:#4d4d4d;fill-opacity:1;fill-rule:evenodd;stroke:#333;stroke-width:1.86337;stroke-linecap:round;stroke-linejoin:miter;stroke-dasharray:none;stroke-opacity:1;stop-color:#000"/><path d="M117.298 128.852v-9.806h51.66v9.806z" style="fill:#545454;fill-opacity:1;fill-rule:evenodd;stroke:#333;stroke-width:1.86337;stroke-linecap:round;stroke-linejoin:miter;stroke-dasharray:none;stroke-opacity:1;stop-color:#000"/><path d="M184.536 116.588V12.695h48.936v103.893Z" style="fill:url(#l);stroke:none;stroke-width:.248223"/><path d="M55.368 12.692v103.896H1.548V12.692Z" style="fill:url(#m);stroke:none;stroke-width:.248476"/><path d="M1.547 11.145A1.55 1.55 0 0 0 0 12.69v103.897a1.55 1.55 0 0 0 1.547 1.549h231.926a1.55 1.55 0 0 0 1.547-1.55V12.692a1.55 1.55 0 0 0-1.547-1.546zm1.549 3.095h228.83v100.801H3.096Z" style="baseline-shift:baseline;display:inline;overflow:visible;vector-effect:none;fill:#404040;stroke-linecap:round;stroke-linejoin:round;stop-color:#000"/><path d="M55.368 12.101h4.697v101.997h-4.697zM178.883 15.144h4.697v98.946h-4.697z" style="fill:#694c30;fill-opacity:1;stroke:#543d2b;stroke-width:1.91243;stroke-linecap:round;stroke-dasharray:none;stroke-opacity:1;stop-color:#000"/><g style="opacity:.7;stroke-width:1.00605" transform="matrix(.99871 0 0 .98927 129.578 -183.234)"><rect width="8.465" height="108.178" x="-129.745" y="196.487" rx="1.552" ry="1.567" style="opacity:1;fill:#bfbfbf;fill-opacity:1;fill-rule:evenodd;stroke:none;stroke-width:3.53295;stroke-linecap:round;stroke-linejoin:round;stroke-dasharray:none;paint-order:markers stroke fill"/><path d="M-125.358 296.423h111.442v8.242h-111.442z" style="opacity:1;fill:#bfbfbf;fill-opacity:1;stroke:none;stroke-width:3.67963;stroke-linecap:round;stroke-linejoin:round;stroke-dasharray:none"/><path d="M-10.332 196.487H99.742v8.184H-10.332Z" style="opacity:1;fill:#bfbfbf;fill-opacity:1;stroke:none;stroke-width:3.60068;stroke-linecap:round;stroke-linejoin:round;stroke-dasharray:none"/><path d="M-124.986 196.487h41.474v8.282h-41.474z" style="opacity:1;fill:#bfbfbf;fill-opacity:1;stroke:none;stroke-width:2.28878;stroke-linecap:round;stroke-linejoin:round;stroke-dasharray:none"/><path d="M40.63 296.504h58.033v8.127H40.629Z" style="opacity:1;fill:#bfbfbf;fill-opacity:1;stroke:none;stroke-width:2.60767;stroke-linecap:round;stroke-linejoin:round;stroke-dasharray:none"/><rect width="108.151" height="7.954" x="196.487" y="-105.578" rx="1.567" ry="1.552" style="opacity:1;fill:#bfbfbf;fill-opacity:1;stroke:none;stroke-width:3.51565;stroke-linecap:round;stroke-linejoin:round;stroke-dasharray:none" transform="rotate(90)"/></g><g transform="translate(1.082 -.106)"><g style="stroke-width:.793139" transform="translate(-93.452 -16.314)scale(1.26081)"><rect width="9.989" height="57.982" x="12.939" y="-167.829" rx="1.994" ry="1.994" style="fill:#404040;fill-opacity:1;stroke-width:.763571;stroke-linecap:square;stop-color:#000" transform="rotate(90)"/><rect width="53.047" height="3.742" x="112.32" y="15.09" rx=".826" ry=".826" style="display:inline;fill:#8c8c8c;fill-opacity:1;stroke-width:.177027"/></g><path d="M45.091 10.452h73.086v8.895H45.091Z" style="fill:#404040;fill-opacity:1;stroke:none;stroke-width:3.0379;stroke-linecap:round;stroke-linejoin:round"/><rect width="69.046" height="4.718" x="47.031" y="12.585" rx="0" ry="0" style="display:inline;fill:#8c8c8c;fill-opacity:1;stroke-width:.226779"/></g></svg>