<?xml version="1.0" encoding="UTF-8" standalone="no"?>
<svg
   width="40.756901"
   height="64.067383"
   viewBox="0 0 40.756901 64.067383"
   fill="none"
   version="1.1"
   id="svg6"
   sodipodi:docname="proj_smoke_nopin.svg"
   inkscape:version="1.3 (0e150ed, 2023-07-21)"
   xmlns:inkscape="http://www.inkscape.org/namespaces/inkscape"
   xmlns:sodipodi="http://sodipodi.sourceforge.net/DTD/sodipodi-0.dtd"
   xmlns="http://www.w3.org/2000/svg"
   xmlns:svg="http://www.w3.org/2000/svg">
  <defs
     id="defs6" />
  <sodipodi:namedview
     id="namedview6"
     pagecolor="#ffffff"
     bordercolor="#000000"
     borderopacity="0.25"
     inkscape:showpageshadow="2"
     inkscape:pageopacity="0.0"
     inkscape:pagecheckerboard="0"
     inkscape:deskcolor="#d1d1d1"
     inkscape:zoom="3.6307692"
     inkscape:cx="4.4067797"
     inkscape:cy="18.315678"
     inkscape:window-width="1440"
     inkscape:window-height="900"
     inkscape:window-x="0"
     inkscape:window-y="0"
     inkscape:window-maximized="0"
     inkscape:current-layer="svg6" />
  <path
     d="m 27.004938,3.8129183 c -7.54e-4,0.481618 0.189757,0.943774 0.529585,1.284854 0.339828,0.34108 0.801218,0.533094 1.282526,0.533912 0.238433,3.88e-4 0.474439,-0.04622 0.694727,-0.137174 0.220422,-0.09091 0.420717,-0.224244 0.589532,-0.392645 0.168864,-0.168316 0.30282,-0.368234 0.394423,-0.588436 0.09152,-0.220151 0.138917,-0.456226 0.139227,-0.694747 3.88e-4,-0.238433 -0.04619,-0.474576 -0.137015,-0.695049 -0.09083,-0.220474 -0.224206,-0.420855 -0.392521,-0.589719 -0.168229,-0.168914 -0.368197,-0.302957 -0.588262,-0.394523 -0.220028,-0.09171 -0.455917,-0.138979 -0.694265,-0.139389 -0.481395,-7.68e-4 -0.943414,0.189781 -1.284258,0.52982 -0.340894,0.33995 -0.532894,0.801563 -0.533699,1.283096 z"
     fill="#373225"
     stroke="#1b1913"
     stroke-width="4"
     stroke-miterlimit="3.99393"
     id="path1-6" />
  <path
     d="m 24.263654,2.8310093 1.095479,0.97987 1.645805,0.002 -2.752686,6.183689 1.088619,5.2926687 -0.0069,4.324136 -9.761593,-0.01553 0.0068,-4.324087 -6.993557,-0.01115 4.45215,-12.4495087 z"
     fill="#4e4735"
     stroke="#1b1913"
     stroke-width="4"
     stroke-miterlimit="3.99393"
     stroke-linecap="square"
     id="path3-8"
     sodipodi:nodetypes="ccccccccccc"
     style="fill:#8b7f50;fill-opacity:1;stroke:#1f1c11;stroke-opacity:1" />
  <rect
     style="fill:#8a4c70;fill-opacity:1;stroke:#1f1118;stroke-width:4;stroke-linecap:round;stroke-linejoin:round;stroke-dasharray:none;stroke-opacity:1"
     id="rect7"
     width="36.756657"
     height="42.38129"
     x="2.117444"
     y="19.603298"
     ry="21.190645"
     rx="9.9833355"
     transform="rotate(0.16465949)" />
  <circle
     style="fill:#693a55;fill-opacity:1;stroke:none;stroke-width:4;stroke-linecap:round;stroke-linejoin:round;stroke-dasharray:none;stroke-opacity:1"
     id="path8"
     cx="7.9140263"
     cy="39.166889"
     r="6.8015032"
     transform="rotate(-29.908804)" />
  <circle
     style="fill:#693a55;fill-opacity:1;stroke:none;stroke-width:4;stroke-linecap:round;stroke-linejoin:round;stroke-dasharray:none;stroke-opacity:1"
     id="path9"
     cx="2.0841656"
     cy="43.865894"
     r="4.3184147"
     transform="rotate(-29.908804)" />
  <circle
     style="fill:#693a55;fill-opacity:1;stroke:none;stroke-width:4;stroke-linecap:round;stroke-linejoin:round;stroke-dasharray:none;stroke-opacity:1"
     id="path10"
     cx="-16.48502"
     cy="51.746998"
     r="6.693543"
     transform="rotate(-29.908804)" />
  <circle
     style="fill:#693a55;fill-opacity:1;stroke:none;stroke-width:4;stroke-linecap:round;stroke-linejoin:round;stroke-dasharray:none;stroke-opacity:1"
     id="path11"
     cx="-9.9534159"
     cy="55.47163"
     r="4.0485139"
     transform="rotate(-29.908804)" />
  <circle
     style="fill:#693a55;fill-opacity:1;stroke:none;stroke-width:4;stroke-linecap:round;stroke-linejoin:round;stroke-dasharray:none;stroke-opacity:1"
     id="path12"
     cx="-16.107157"
     cy="42.408428"
     r="3.8325932"
     transform="rotate(-29.908804)" />
  <circle
     style="fill:#693a55;fill-opacity:1;stroke:none;stroke-width:4;stroke-linecap:round;stroke-linejoin:round;stroke-dasharray:none;stroke-opacity:1"
     id="path12-0"
     cx="-6.9544396"
     cy="29.571054"
     r="3.8325932"
     transform="rotate(-29.908804)" />
  <circle
     style="fill:#693a55;fill-opacity:1;stroke:none;stroke-width:4;stroke-linecap:round;stroke-linejoin:round;stroke-dasharray:none;stroke-opacity:1"
     id="path13"
     cx="0.78864098"
     cy="57.360935"
     r="5.1820979"
     transform="rotate(-29.908804)" />
  <rect
     style="fill:none;fill-opacity:1;stroke:#1f1118;stroke-width:4;stroke-linecap:round;stroke-linejoin:round;stroke-dasharray:none;stroke-opacity:1"
     id="rect7-2"
     width="36.756657"
     height="42.38129"
     x="2.1174402"
     y="19.603302"
     ry="21.190645"
     rx="9.9833355"
     transform="rotate(0.16465949)" />
</svg>
