<svg xmlns="http://www.w3.org/2000/svg" xmlns:xlink="http://www.w3.org/1999/xlink" width="490.893" height="490.893" viewBox="0 0 259.764 259.764"><defs><radialGradient xlink:href="#a" id="b" cx="-751.87" cy="-333.215" r="128.283" fx="-751.87" fy="-333.215" gradientTransform="matrix(1 0 0 1.00787 -147.95 -72.58)" gradientUnits="userSpaceOnUse"/><linearGradient id="a"><stop offset=".547" style="stop-color:#c6d1d2;stop-opacity:1"/><stop offset="1" style="stop-color:#74888b;stop-opacity:1"/></linearGradient></defs><path d="M-899.82-536.217a126.791 127.8 0 0 0-126.79 127.8 126.791 127.8 0 0 0 126.79 127.8 126.791 127.8 0 0 0 126.791-127.8 126.791 127.8 0 0 0-126.79-127.8m0 86.017a41.783 41.783 0 0 1 41.783 41.783 41.783 41.783 0 0 1-41.783 41.783 41.783 41.783 0 0 1-41.783-41.783A41.783 41.783 0 0 1-899.82-450.2" style="fill:url(#b);fill-opacity:1;fill-rule:evenodd;stroke:#3a4647;stroke-width:2.98422;stroke-linecap:round;stroke-linejoin:round;stroke-miterlimit:29;stroke-dasharray:none;stroke-opacity:1;paint-order:normal" transform="translate(1029.64 538.192)"/><g style="fill:#829599;fill-opacity:1;stroke:#3a4647;stroke-opacity:1"><path d="M-877.648-309.846h23.811c.546 0 .985.448.985 1.005v17.541a.993.993 0 0 1-.985 1.005h-23.811a.993.993 0 0 1-.985-1.005v-17.541c0-.557.44-1.005.985-1.005M-916.938-63.652l-20.621-11.906a.993.993 0 0 1-.35-1.363l8.77-15.191a.993.993 0 0 1 1.355-.378l20.622 11.905c.472.273.628.88.35 1.363l-8.77 15.192a.993.993 0 0 1-1.356.378M-945.642-81.289l-16.838-16.837a.993.993 0 0 1 .015-1.407l12.404-12.404a.993.993 0 0 1 1.406-.014l16.838 16.837a.993.993 0 0 1-.015 1.407l-12.403 12.404a.993.993 0 0 1-1.407.014M-979.99-124.282l-8.293-22.321a.993.993 0 0 1 .6-1.273l16.443-6.109a.993.993 0 0 1 1.285.574l8.292 22.32a.993.993 0 0 1-.6 1.274l-16.443 6.108a.993.993 0 0 1-1.285-.573" style="fill:#829599;fill-opacity:1;fill-rule:evenodd;stroke:#3a4647;stroke-width:3.04271;stroke-linecap:round;stroke-linejoin:round;stroke-miterlimit:29;stroke-dasharray:none;stroke-opacity:1" transform="translate(994.192 311.368)"/><path d="m-968.804-105.753-11.906-20.622a.993.993 0 0 1 .378-1.355l15.192-8.77a.993.993 0 0 1 1.363.35l11.905 20.62a.993.993 0 0 1-.378 1.356l-15.191 8.771a.993.993 0 0 1-1.363-.35M-992.67-168.147v-23.811a.993.993 0 0 1 1.005-.985h17.541a.993.993 0 0 1 1.005.985v23.811a.993.993 0 0 1-1.005.985h-17.541a.993.993 0 0 1-1.005-.985M-990.182-209.955l7.625-22.558a.993.993 0 0 1 1.268-.61l16.618 5.617a.993.993 0 0 1 .636 1.255l-7.625 22.557a.993.993 0 0 1-1.267.611l-16.618-5.617a.993.993 0 0 1-.637-1.255M-884.647-54.046l-23-6.163a.993.993 0 0 1-.692-1.225l4.54-16.945a.993.993 0 0 1 1.212-.715l23 6.162a.993.993 0 0 1 .691 1.226l-4.54 16.944a.993.993 0 0 1-1.211.716M-850.97-53.125h-23.812a.993.993 0 0 1-.985-1.005V-71.67c0-.557.44-1.005.985-1.005h23.811c.546 0 .985.448.985 1.005v17.541a.993.993 0 0 1-.985 1.005M-818.203-60.95l-23 6.162a.993.993 0 0 1-1.211-.716l-4.54-16.944a.993.993 0 0 1 .69-1.225l23-6.163a.993.993 0 0 1 1.212.716l4.54 16.944a.993.993 0 0 1-.691 1.225M-788.577-76.991-809.2-65.085a.993.993 0 0 1-1.355-.378l-8.77-15.192a.993.993 0 0 1 .35-1.363l20.62-11.905a.993.993 0 0 1 1.356.378l8.771 15.191a.993.993 0 0 1-.35 1.363M-764.113-100.153l-16.837 16.838a.993.993 0 0 1-1.407-.015l-12.404-12.404a.993.993 0 0 1-.014-1.406l16.837-16.838a.993.993 0 0 1 1.407.015l12.404 12.404a.993.993 0 0 1 .014 1.406M-746.476-128.857l-11.906 20.622a.993.993 0 0 1-1.363.35l-15.191-8.771a.993.993 0 0 1-.378-1.355l11.905-20.622a.993.993 0 0 1 1.363-.35l15.192 8.771c.482.278.65.883.378 1.355M-736.87-161.147l-6.163 23a.993.993 0 0 1-1.225.69l-16.945-4.54a.993.993 0 0 1-.715-1.21l6.163-23a.993.993 0 0 1 1.225-.692l16.944 4.54a.993.993 0 0 1 .716 1.212M-735.949-194.824v23.811a.993.993 0 0 1-1.004.985h-17.542a.993.993 0 0 1-1.005-.985v-23.811a.993.993 0 0 1 1.005-.985h17.542a.993.993 0 0 1 1.004.985M-743.775-227.592l6.163 23a.993.993 0 0 1-.716 1.211l-16.944 4.54a.993.993 0 0 1-1.225-.69l-6.163-23a.993.993 0 0 1 .716-1.212l16.944-4.54a.993.993 0 0 1 1.225.691M-759.815-257.218l11.906 20.622a.993.993 0 0 1-.378 1.355l-15.192 8.77a.993.993 0 0 1-1.363-.35l-11.905-20.62a.993.993 0 0 1 .378-1.356l15.191-8.771a.993.993 0 0 1 1.363.35M-782.976-281.682l16.837 16.837a.993.993 0 0 1-.015 1.407l-12.404 12.404a.993.993 0 0 1-1.406.014l-16.838-16.837a.993.993 0 0 1 .015-1.407l12.404-12.404a.993.993 0 0 1 1.407-.014M-811.68-299.319l20.62 11.906c.473.273.63.88.35 1.363l-8.77 15.191a.993.993 0 0 1-1.355.378l-20.621-11.905a.993.993 0 0 1-.35-1.363l8.77-15.192a.993.993 0 0 1 1.355-.378M-843.971-308.925l23 6.163a.993.993 0 0 1 .69 1.225l-4.54 16.945a.993.993 0 0 1-1.21.715l-23-6.162a.993.993 0 0 1-.692-1.226l4.54-16.944a.993.993 0 0 1 1.212-.716M-910.416-302.02l23-6.163a.993.993 0 0 1 1.211.716l4.54 16.944a.993.993 0 0 1-.69 1.225l-23 6.163a.993.993 0 0 1-1.212-.716l-4.54-16.944a.993.993 0 0 1 .691-1.225M-940.041-285.98l20.62-11.906a.993.993 0 0 1 1.356.378l8.77 15.192a.993.993 0 0 1-.35 1.363l-20.62 11.905a.993.993 0 0 1-1.356-.378l-8.77-15.191a.993.993 0 0 1 .35-1.363M-964.506-262.818l16.837-16.838a.993.993 0 0 1 1.407.015l12.404 12.404a.993.993 0 0 1 .014 1.406l-16.837 16.838a.993.993 0 0 1-1.407-.015l-12.404-12.404a.993.993 0 0 1-.014-1.406" style="fill:#829599;fill-opacity:1;fill-rule:evenodd;stroke:#3a4647;stroke-width:3.04271;stroke-linecap:round;stroke-linejoin:round;stroke-miterlimit:29;stroke-dasharray:none;stroke-opacity:1" transform="translate(994.192 311.368)"/><path d="m-982.143-234.114 11.906-20.622a.993.993 0 0 1 1.363-.35l15.191 8.771c.483.278.651.883.378 1.355l-11.905 20.622a.993.993 0 0 1-1.363.35l-15.192-8.771a.993.993 0 0 1-.378-1.355" style="fill:#829599;fill-opacity:1;fill-rule:evenodd;stroke:#3a4647;stroke-width:3.04271;stroke-linecap:round;stroke-linejoin:round;stroke-miterlimit:29;stroke-dasharray:none;stroke-opacity:1" transform="translate(994.192 311.368)"/></g><g style="fill:#8fa0a3;fill-opacity:1;stroke:#3a4647;stroke-width:2.93306;stroke-dasharray:none;stroke-opacity:1"><g style="fill:#8fa0a3;fill-opacity:1;stroke:#3a4647;stroke-width:2.93306;stroke-dasharray:none;stroke-opacity:1"><path d="m-891.542-291.515 23.618-3.027a.993.993 0 0 1 1.105.872l2.23 17.4a.993.993 0 0 1-.85 1.121l-23.617 3.027a.993.993 0 0 1-1.105-.871l-2.23-17.4a.993.993 0 0 1 .849-1.122" style="fill:#8fa0a3;fill-opacity:1;fill-rule:evenodd;stroke:#3a4647;stroke-width:2.93306;stroke-linecap:round;stroke-linejoin:round;stroke-miterlimit:29;stroke-dasharray:none;stroke-opacity:1" transform="matrix(1.03738 0 0 1.03739 1027.21 318.069)"/><path d="m-862.043-294.896 23.597 3.189c.54.073.916.576.841 1.128l-2.349 17.383a.993.993 0 0 1-1.11.864l-23.597-3.188a.993.993 0 0 1-.842-1.128l2.35-17.384a.993.993 0 0 1 1.11-.864" style="fill:#8fa0a3;fill-opacity:1;fill-rule:evenodd;stroke:#3a4647;stroke-width:2.93306;stroke-linecap:round;stroke-linejoin:round;stroke-miterlimit:29;stroke-dasharray:none;stroke-opacity:1" transform="matrix(1.03738 0 0 1.03739 1027.21 318.069)"/></g><g style="fill:#8fa0a3;fill-opacity:1;stroke:#3a4647;stroke-width:2.93306;stroke-dasharray:none;stroke-opacity:1"><path d="m-891.542-291.515 23.618-3.027a.993.993 0 0 1 1.105.872l2.23 17.4a.993.993 0 0 1-.85 1.121l-23.617 3.027a.993.993 0 0 1-1.105-.871l-2.23-17.4a.993.993 0 0 1 .849-1.122" style="fill:#8fa0a3;fill-opacity:1;fill-rule:evenodd;stroke:#3a4647;stroke-width:2.93306;stroke-linecap:round;stroke-linejoin:round;stroke-miterlimit:29;stroke-dasharray:none;stroke-opacity:1" transform="rotate(-30 209.795 -1945.94)scale(1.03738)"/><path d="m-862.043-294.896 23.597 3.189c.54.073.916.576.841 1.128l-2.349 17.383a.993.993 0 0 1-1.11.864l-23.597-3.188a.993.993 0 0 1-.842-1.128l2.35-17.384a.993.993 0 0 1 1.11-.864" style="fill:#8fa0a3;fill-opacity:1;fill-rule:evenodd;stroke:#3a4647;stroke-width:2.93306;stroke-linecap:round;stroke-linejoin:round;stroke-miterlimit:29;stroke-dasharray:none;stroke-opacity:1" transform="rotate(-30 209.795 -1945.94)scale(1.03738)"/></g><g style="fill:#8fa0a3;fill-opacity:1;stroke:#3a4647;stroke-width:2.93306;stroke-dasharray:none;stroke-opacity:1"><path d="m-891.542-291.515 23.618-3.027a.993.993 0 0 1 1.105.872l2.23 17.4a.993.993 0 0 1-.85 1.121l-23.617 3.027a.993.993 0 0 1-1.105-.871l-2.23-17.4a.993.993 0 0 1 .849-1.122" style="fill:#8fa0a3;fill-opacity:1;fill-rule:evenodd;stroke:#3a4647;stroke-width:2.93306;stroke-linecap:round;stroke-linejoin:round;stroke-miterlimit:29;stroke-dasharray:none;stroke-opacity:1" transform="rotate(-60 -108.272 -918.742)scale(1.03738)"/><path d="m-862.043-294.896 23.597 3.189c.54.073.916.576.841 1.128l-2.349 17.383a.993.993 0 0 1-1.11.864l-23.597-3.188a.993.993 0 0 1-.842-1.128l2.35-17.384a.993.993 0 0 1 1.11-.864" style="fill:#8fa0a3;fill-opacity:1;fill-rule:evenodd;stroke:#3a4647;stroke-width:2.93306;stroke-linecap:round;stroke-linejoin:round;stroke-miterlimit:29;stroke-dasharray:none;stroke-opacity:1" transform="rotate(-60 -108.272 -918.742)scale(1.03738)"/></g><g style="fill:#8fa0a3;fill-opacity:1;stroke:#3a4647;stroke-width:2.93306;stroke-dasharray:none;stroke-opacity:1"><path d="m-891.542-291.515 23.618-3.027a.993.993 0 0 1 1.105.872l2.23 17.4a.993.993 0 0 1-.85 1.121l-23.617 3.027a.993.993 0 0 1-1.105-.871l-2.23-17.4a.993.993 0 0 1 .849-1.122" style="fill:#8fa0a3;fill-opacity:1;fill-rule:evenodd;stroke:#3a4647;stroke-width:2.93306;stroke-linecap:round;stroke-linejoin:round;stroke-miterlimit:29;stroke-dasharray:none;stroke-opacity:1" transform="matrix(0 -1.03739 1.03738 0 318.067 -767.455)"/><path d="m-862.043-294.896 23.597 3.189c.54.073.916.576.841 1.128l-2.349 17.383a.993.993 0 0 1-1.11.864l-23.597-3.188a.993.993 0 0 1-.842-1.128l2.35-17.384a.993.993 0 0 1 1.11-.864" style="fill:#8fa0a3;fill-opacity:1;fill-rule:evenodd;stroke:#3a4647;stroke-width:2.93306;stroke-linecap:round;stroke-linejoin:round;stroke-miterlimit:29;stroke-dasharray:none;stroke-opacity:1" transform="matrix(0 -1.03739 1.03738 0 318.067 -767.455)"/></g><g style="fill:#8fa0a3;fill-opacity:1;stroke:#3a4647;stroke-width:2.93306;stroke-dasharray:none;stroke-opacity:1"><path d="m-891.542-291.515 23.618-3.027a.993.993 0 0 1 1.105.872l2.23 17.4a.993.993 0 0 1-.85 1.121l-23.617 3.027a.993.993 0 0 1-1.105-.871l-2.23-17.4a.993.993 0 0 1 .849-1.122" style="fill:#8fa0a3;fill-opacity:1;fill-rule:evenodd;stroke:#3a4647;stroke-width:2.93306;stroke-linecap:round;stroke-linejoin:round;stroke-miterlimit:29;stroke-dasharray:none;stroke-opacity:1" transform="rotate(240 -291.907 -325.686)scale(1.03738)"/><path d="m-862.043-294.896 23.597 3.189c.54.073.916.576.841 1.128l-2.349 17.383a.993.993 0 0 1-1.11.864l-23.597-3.188a.993.993 0 0 1-.842-1.128l2.35-17.384a.993.993 0 0 1 1.11-.864" style="fill:#8fa0a3;fill-opacity:1;fill-rule:evenodd;stroke:#3a4647;stroke-width:2.93306;stroke-linecap:round;stroke-linejoin:round;stroke-miterlimit:29;stroke-dasharray:none;stroke-opacity:1" transform="rotate(240 -291.907 -325.686)scale(1.03738)"/></g><g style="fill:#8fa0a3;fill-opacity:1;stroke:#3a4647;stroke-width:2.93306;stroke-dasharray:none;stroke-opacity:1"><path d="m-891.542-291.515 23.618-3.027a.993.993 0 0 1 1.105.872l2.23 17.4a.993.993 0 0 1-.85 1.121l-23.617 3.027a.993.993 0 0 1-1.105-.871l-2.23-17.4a.993.993 0 0 1 .849-1.122" style="fill:#8fa0a3;fill-opacity:1;fill-rule:evenodd;stroke:#3a4647;stroke-width:2.93306;stroke-linecap:round;stroke-linejoin:round;stroke-miterlimit:29;stroke-dasharray:none;stroke-opacity:1" transform="rotate(210 -341.11 -166.775)scale(1.03738)"/><path d="m-862.043-294.896 23.597 3.189c.54.073.916.576.841 1.128l-2.349 17.383a.993.993 0 0 1-1.11.864l-23.597-3.188a.993.993 0 0 1-.842-1.128l2.35-17.384a.993.993 0 0 1 1.11-.864" style="fill:#8fa0a3;fill-opacity:1;fill-rule:evenodd;stroke:#3a4647;stroke-width:2.93306;stroke-linecap:round;stroke-linejoin:round;stroke-miterlimit:29;stroke-dasharray:none;stroke-opacity:1" transform="rotate(210 -341.11 -166.775)scale(1.03738)"/></g><g style="fill:#8fa0a3;fill-opacity:1;stroke:#3a4647;stroke-width:2.93306;stroke-dasharray:none;stroke-opacity:1"><path d="m-891.542-291.515 23.618-3.027a.993.993 0 0 1 1.105.872l2.23 17.4a.993.993 0 0 1-.85 1.121l-23.617 3.027a.993.993 0 0 1-1.105-.871l-2.23-17.4a.993.993 0 0 1 .849-1.122" style="fill:#8fa0a3;fill-opacity:1;fill-rule:evenodd;stroke:#3a4647;stroke-width:2.93306;stroke-linecap:round;stroke-linejoin:round;stroke-miterlimit:29;stroke-dasharray:none;stroke-opacity:1" transform="matrix(-1.03738 0 0 -1.03739 -767.446 -58.304)"/><path d="m-862.043-294.896 23.597 3.189c.54.073.916.576.841 1.128l-2.349 17.383a.993.993 0 0 1-1.11.864l-23.597-3.188a.993.993 0 0 1-.842-1.128l2.35-17.384a.993.993 0 0 1 1.11-.864" style="fill:#8fa0a3;fill-opacity:1;fill-rule:evenodd;stroke:#3a4647;stroke-width:2.93306;stroke-linecap:round;stroke-linejoin:round;stroke-miterlimit:29;stroke-dasharray:none;stroke-opacity:1" transform="matrix(-1.03738 0 0 -1.03739 -767.446 -58.304)"/></g><g style="fill:#8fa0a3;fill-opacity:1;stroke:#3a4647;stroke-width:2.93306;stroke-dasharray:none;stroke-opacity:1"><path d="m-891.542-291.515 23.618-3.027a.993.993 0 0 1 1.105.872l2.23 17.4a.993.993 0 0 1-.85 1.121l-23.617 3.027a.993.993 0 0 1-1.105-.871l-2.23-17.4a.993.993 0 0 1 .849-1.122" style="fill:#8fa0a3;fill-opacity:1;fill-rule:evenodd;stroke:#3a4647;stroke-width:2.93306;stroke-linecap:round;stroke-linejoin:round;stroke-miterlimit:29;stroke-dasharray:none;stroke-opacity:1" transform="rotate(150 -426.337 108.47)scale(1.03738)"/><path d="m-862.043-294.896 23.597 3.189c.54.073.916.576.841 1.128l-2.349 17.383a.993.993 0 0 1-1.11.864l-23.597-3.188a.993.993 0 0 1-.842-1.128l2.35-17.384a.993.993 0 0 1 1.11-.864" style="fill:#8fa0a3;fill-opacity:1;fill-rule:evenodd;stroke:#3a4647;stroke-width:2.93306;stroke-linecap:round;stroke-linejoin:round;stroke-miterlimit:29;stroke-dasharray:none;stroke-opacity:1" transform="rotate(150 -426.337 108.47)scale(1.03738)"/></g><g style="fill:#8fa0a3;fill-opacity:1;stroke:#3a4647;stroke-width:2.93306;stroke-dasharray:none;stroke-opacity:1"><path d="m-891.542-291.515 23.618-3.027a.993.993 0 0 1 1.105.872l2.23 17.4a.993.993 0 0 1-.85 1.121l-23.617 3.027a.993.993 0 0 1-1.105-.871l-2.23-17.4a.993.993 0 0 1 .849-1.122" style="fill:#8fa0a3;fill-opacity:1;fill-rule:evenodd;stroke:#3a4647;stroke-width:2.93306;stroke-linecap:round;stroke-linejoin:round;stroke-miterlimit:29;stroke-dasharray:none;stroke-opacity:1" transform="rotate(120 -475.544 267.381)scale(1.03738)"/><path d="m-862.043-294.896 23.597 3.189c.54.073.916.576.841 1.128l-2.349 17.383a.993.993 0 0 1-1.11.864l-23.597-3.188a.993.993 0 0 1-.842-1.128l2.35-17.384a.993.993 0 0 1 1.11-.864" style="fill:#8fa0a3;fill-opacity:1;fill-rule:evenodd;stroke:#3a4647;stroke-width:2.93306;stroke-linecap:round;stroke-linejoin:round;stroke-miterlimit:29;stroke-dasharray:none;stroke-opacity:1" transform="rotate(120 -475.544 267.381)scale(1.03738)"/></g><g style="fill:#8fa0a3;fill-opacity:1;stroke:#3a4647;stroke-width:2.93306;stroke-dasharray:none;stroke-opacity:1"><path d="m-891.542-291.515 23.618-3.027a.993.993 0 0 1 1.105.872l2.23 17.4a.993.993 0 0 1-.85 1.121l-23.617 3.027a.993.993 0 0 1-1.105-.871l-2.23-17.4a.993.993 0 0 1 .849-1.122" style="fill:#8fa0a3;fill-opacity:1;fill-rule:evenodd;stroke:#3a4647;stroke-width:2.93306;stroke-linecap:round;stroke-linejoin:round;stroke-miterlimit:29;stroke-dasharray:none;stroke-opacity:1" transform="matrix(0 1.03739 -1.03738 0 -58.303 1027.219)"/><path d="m-862.043-294.896 23.597 3.189c.54.073.916.576.841 1.128l-2.349 17.383a.993.993 0 0 1-1.11.864l-23.597-3.188a.993.993 0 0 1-.842-1.128l2.35-17.384a.993.993 0 0 1 1.11-.864" style="fill:#8fa0a3;fill-opacity:1;fill-rule:evenodd;stroke:#3a4647;stroke-width:2.93306;stroke-linecap:round;stroke-linejoin:round;stroke-miterlimit:29;stroke-dasharray:none;stroke-opacity:1" transform="matrix(0 1.03739 -1.03738 0 -58.303 1027.219)"/></g><g style="fill:#8fa0a3;fill-opacity:1;stroke:#3a4647;stroke-width:2.93306;stroke-dasharray:none;stroke-opacity:1"><path d="m-891.542-291.515 23.618-3.027a.993.993 0 0 1 1.105.872l2.23 17.4a.993.993 0 0 1-.85 1.121l-23.617 3.027a.993.993 0 0 1-1.105-.871l-2.23-17.4a.993.993 0 0 1 .849-1.122" style="fill:#8fa0a3;fill-opacity:1;fill-rule:evenodd;stroke:#3a4647;stroke-width:2.93306;stroke-linecap:round;stroke-linejoin:round;stroke-miterlimit:29;stroke-dasharray:none;stroke-opacity:1" transform="rotate(60 -659.18 860.442)scale(1.03738)"/><path d="m-862.043-294.896 23.597 3.189c.54.073.916.576.841 1.128l-2.349 17.383a.993.993 0 0 1-1.11.864l-23.597-3.188a.993.993 0 0 1-.842-1.128l2.35-17.384a.993.993 0 0 1 1.11-.864" style="fill:#8fa0a3;fill-opacity:1;fill-rule:evenodd;stroke:#3a4647;stroke-width:2.93306;stroke-linecap:round;stroke-linejoin:round;stroke-miterlimit:29;stroke-dasharray:none;stroke-opacity:1" transform="rotate(60 -659.18 860.442)scale(1.03738)"/></g><g style="fill:#8fa0a3;fill-opacity:1;stroke:#3a4647;stroke-width:2.93306;stroke-dasharray:none;stroke-opacity:1"><path d="m-891.542-291.515 23.618-3.027a.993.993 0 0 1 1.105.872l2.23 17.4a.993.993 0 0 1-.85 1.121l-23.617 3.027a.993.993 0 0 1-1.105-.871l-2.23-17.4a.993.993 0 0 1 .849-1.122" style="fill:#8fa0a3;fill-opacity:1;fill-rule:evenodd;stroke:#3a4647;stroke-width:2.93306;stroke-linecap:round;stroke-linejoin:round;stroke-miterlimit:29;stroke-dasharray:none;stroke-opacity:1" transform="rotate(30 -977.244 1887.641)scale(1.03738)"/><path d="m-862.043-294.896 23.597 3.189c.54.073.916.576.841 1.128l-2.349 17.383a.993.993 0 0 1-1.11.864l-23.597-3.188a.993.993 0 0 1-.842-1.128l2.35-17.384a.993.993 0 0 1 1.11-.864" style="fill:#8fa0a3;fill-opacity:1;fill-rule:evenodd;stroke:#3a4647;stroke-width:2.93306;stroke-linecap:round;stroke-linejoin:round;stroke-miterlimit:29;stroke-dasharray:none;stroke-opacity:1" transform="rotate(30 -977.244 1887.641)scale(1.03738)"/></g></g><g style="fill:#abb8ba;fill-opacity:1;stroke:#3a4647;stroke-opacity:1"><g style="fill:#abb8ba;fill-opacity:1;stroke:#3a4647;stroke-opacity:1"><path d="m-903.672-279.073 23-6.163a.993.993 0 0 1 1.211.716l4.54 16.944a.993.993 0 0 1-.69 1.225l-23 6.163a.993.993 0 0 1-1.212-.716l-4.54-16.944a.993.993 0 0 1 .69-1.225M-847.266-285.683l22.877 6.604a.993.993 0 0 1 .668 1.238l-4.866 16.854a.993.993 0 0 1-1.224.692l-22.878-6.604a.993.993 0 0 1-.667-1.238l4.865-16.854a.993.993 0 0 1 1.225-.692" style="fill:#abb8ba;fill-opacity:1;fill-rule:evenodd;stroke:#3a4647;stroke-width:3.04271;stroke-linecap:round;stroke-linejoin:round;stroke-miterlimit:29;stroke-dasharray:none;stroke-opacity:1" transform="translate(993.833 311.368)"/><path d="M-876.046-286.106h23.81c.546 0 .986.448.986 1.005v17.542a.993.993 0 0 1-.985 1.005h-23.812a.993.993 0 0 1-.984-1.005v-17.542c0-.557.439-1.005.984-1.005" style="fill:#abb8ba;fill-opacity:1;fill-rule:evenodd;stroke:#3a4647;stroke-width:3.04271;stroke-linecap:round;stroke-linejoin:round;stroke-miterlimit:29;stroke-dasharray:none;stroke-opacity:1" transform="translate(993.833 311.368)"/></g><g style="fill:#abb8ba;fill-opacity:1;stroke:#3a4647;stroke-opacity:1"><path d="m-903.672-279.073 23-6.163a.993.993 0 0 1 1.211.716l4.54 16.944a.993.993 0 0 1-.69 1.225l-23 6.163a.993.993 0 0 1-1.212-.716l-4.54-16.944a.993.993 0 0 1 .69-1.225M-847.266-285.683l22.877 6.604a.993.993 0 0 1 .668 1.238l-4.866 16.854a.993.993 0 0 1-1.224.692l-22.878-6.604a.993.993 0 0 1-.667-1.238l4.865-16.854a.993.993 0 0 1 1.225-.692" style="fill:#abb8ba;fill-opacity:1;fill-rule:evenodd;stroke:#3a4647;stroke-width:3.04271;stroke-linecap:round;stroke-linejoin:round;stroke-miterlimit:29;stroke-dasharray:none;stroke-opacity:1" transform="rotate(-90 -211.44 -522.65)"/><path d="M-876.046-286.106h23.81c.546 0 .986.448.986 1.005v17.542a.993.993 0 0 1-.985 1.005h-23.812a.993.993 0 0 1-.984-1.005v-17.542c0-.557.439-1.005.984-1.005" style="fill:#abb8ba;fill-opacity:1;fill-rule:evenodd;stroke:#3a4647;stroke-width:3.04271;stroke-linecap:round;stroke-linejoin:round;stroke-miterlimit:29;stroke-dasharray:none;stroke-opacity:1" transform="rotate(-90 -211.44 -522.65)"/></g><g style="fill:#abb8ba;fill-opacity:1;stroke:#3a4647;stroke-opacity:1"><path d="m-903.672-279.073 23-6.163a.993.993 0 0 1 1.211.716l4.54 16.944a.993.993 0 0 1-.69 1.225l-23 6.163a.993.993 0 0 1-1.212-.716l-4.54-16.944a.993.993 0 0 1 .69-1.225M-847.266-285.683l22.877 6.604a.993.993 0 0 1 .668 1.238l-4.866 16.854a.993.993 0 0 1-1.224.692l-22.878-6.604a.993.993 0 0 1-.667-1.238l4.865-16.854a.993.993 0 0 1 1.225-.692" style="fill:#abb8ba;fill-opacity:1;fill-rule:evenodd;stroke:#3a4647;stroke-width:3.04271;stroke-linecap:round;stroke-linejoin:round;stroke-miterlimit:29;stroke-dasharray:none;stroke-opacity:1" transform="rotate(225 -302.637 -231.562)"/><path d="M-876.046-286.106h23.81c.546 0 .986.448.986 1.005v17.542a.993.993 0 0 1-.985 1.005h-23.812a.993.993 0 0 1-.984-1.005v-17.542c0-.557.439-1.005.984-1.005" style="fill:#abb8ba;fill-opacity:1;fill-rule:evenodd;stroke:#3a4647;stroke-width:3.04271;stroke-linecap:round;stroke-linejoin:round;stroke-miterlimit:29;stroke-dasharray:none;stroke-opacity:1" transform="rotate(225 -302.637 -231.562)"/></g><g style="fill:#abb8ba;fill-opacity:1;stroke:#3a4647;stroke-opacity:1"><path d="m-903.672-279.073 23-6.163a.993.993 0 0 1 1.211.716l4.54 16.944a.993.993 0 0 1-.69 1.225l-23 6.163a.993.993 0 0 1-1.212-.716l-4.54-16.944a.993.993 0 0 1 .69-1.225M-847.266-285.683l22.877 6.604a.993.993 0 0 1 .668 1.238l-4.866 16.854a.993.993 0 0 1-1.224.692l-22.878-6.604a.993.993 0 0 1-.667-1.238l4.865-16.854a.993.993 0 0 1 1.225-.692" style="fill:#abb8ba;fill-opacity:1;fill-rule:evenodd;stroke:#3a4647;stroke-width:3.04271;stroke-linecap:round;stroke-linejoin:round;stroke-miterlimit:29;stroke-dasharray:none;stroke-opacity:1" transform="matrix(-1 0 0 -1 -734.247 -51.465)"/><path d="M-876.046-286.106h23.81c.546 0 .986.448.986 1.005v17.542a.993.993 0 0 1-.985 1.005h-23.812a.993.993 0 0 1-.984-1.005v-17.542c0-.557.439-1.005.984-1.005" style="fill:#abb8ba;fill-opacity:1;fill-rule:evenodd;stroke:#3a4647;stroke-width:3.04271;stroke-linecap:round;stroke-linejoin:round;stroke-miterlimit:29;stroke-dasharray:none;stroke-opacity:1" transform="matrix(-1 0 0 -1 -734.247 -51.465)"/></g><g style="fill:#abb8ba;fill-opacity:1;stroke:#3a4647;stroke-opacity:1"><path d="m-903.672-279.073 23-6.163a.993.993 0 0 1 1.211.716l4.54 16.944a.993.993 0 0 1-.69 1.225l-23 6.163a.993.993 0 0 1-1.212-.716l-4.54-16.944a.993.993 0 0 1 .69-1.225M-847.266-285.683l22.877 6.604a.993.993 0 0 1 .668 1.238l-4.866 16.854a.993.993 0 0 1-1.224.692l-22.878-6.604a.993.993 0 0 1-.667-1.238l4.865-16.854a.993.993 0 0 1 1.225-.692" style="fill:#abb8ba;fill-opacity:1;fill-rule:evenodd;stroke:#3a4647;stroke-width:3.04271;stroke-linecap:round;stroke-linejoin:round;stroke-miterlimit:29;stroke-dasharray:none;stroke-opacity:1" transform="rotate(135 -431.61 180.097)"/><path d="M-876.046-286.106h23.81c.546 0 .986.448.986 1.005v17.542a.993.993 0 0 1-.985 1.005h-23.812a.993.993 0 0 1-.984-1.005v-17.542c0-.557.439-1.005.984-1.005" style="fill:#abb8ba;fill-opacity:1;fill-rule:evenodd;stroke:#3a4647;stroke-width:3.04271;stroke-linecap:round;stroke-linejoin:round;stroke-miterlimit:29;stroke-dasharray:none;stroke-opacity:1" transform="rotate(135 -431.61 180.097)"/></g><g style="fill:#abb8ba;fill-opacity:1;stroke:#3a4647;stroke-opacity:1"><path d="m-903.672-279.073 23-6.163a.993.993 0 0 1 1.211.716l4.54 16.944a.993.993 0 0 1-.69 1.225l-23 6.163a.993.993 0 0 1-1.212-.716l-4.54-16.944a.993.993 0 0 1 .69-1.225M-847.266-285.683l22.877 6.604a.993.993 0 0 1 .668 1.238l-4.866 16.854a.993.993 0 0 1-1.224.692l-22.878-6.604a.993.993 0 0 1-.667-1.238l4.865-16.854a.993.993 0 0 1 1.225-.692" style="fill:#abb8ba;fill-opacity:1;fill-rule:evenodd;stroke:#3a4647;stroke-width:3.04271;stroke-linecap:round;stroke-linejoin:round;stroke-miterlimit:29;stroke-dasharray:none;stroke-opacity:1" transform="rotate(90 -522.807 471.184)"/><path d="M-876.046-286.106h23.81c.546 0 .986.448.986 1.005v17.542a.993.993 0 0 1-.985 1.005h-23.812a.993.993 0 0 1-.984-1.005v-17.542c0-.557.439-1.005.984-1.005" style="fill:#abb8ba;fill-opacity:1;fill-rule:evenodd;stroke:#3a4647;stroke-width:3.04271;stroke-linecap:round;stroke-linejoin:round;stroke-miterlimit:29;stroke-dasharray:none;stroke-opacity:1" transform="rotate(90 -522.807 471.184)"/></g><g style="fill:#abb8ba;fill-opacity:1;stroke:#3a4647;stroke-opacity:1"><path d="m-903.672-279.073 23-6.163a.993.993 0 0 1 1.211.716l4.54 16.944a.993.993 0 0 1-.69 1.225l-23 6.163a.993.993 0 0 1-1.212-.716l-4.54-16.944a.993.993 0 0 1 .69-1.225M-847.266-285.683l22.877 6.604a.993.993 0 0 1 .668 1.238l-4.866 16.854a.993.993 0 0 1-1.224.692l-22.878-6.604a.993.993 0 0 1-.667-1.238l4.865-16.854a.993.993 0 0 1 1.225-.692" style="fill:#abb8ba;fill-opacity:1;fill-rule:evenodd;stroke:#3a4647;stroke-width:3.04271;stroke-linecap:round;stroke-linejoin:round;stroke-miterlimit:29;stroke-dasharray:none;stroke-opacity:1" transform="rotate(45 -742.977 1173.93)"/><path d="M-876.046-286.106h23.81c.546 0 .986.448.986 1.005v17.542a.993.993 0 0 1-.985 1.005h-23.812a.993.993 0 0 1-.984-1.005v-17.542c0-.557.439-1.005.984-1.005" style="fill:#abb8ba;fill-opacity:1;fill-rule:evenodd;stroke:#3a4647;stroke-width:3.04271;stroke-linecap:round;stroke-linejoin:round;stroke-miterlimit:29;stroke-dasharray:none;stroke-opacity:1" transform="rotate(45 -742.977 1173.93)"/></g><g style="fill:#abb8ba;fill-opacity:1;stroke:#3a4647;stroke-opacity:1"><path d="m-903.672-279.073 23-6.163a.993.993 0 0 1 1.211.716l4.54 16.944a.993.993 0 0 1-.69 1.225l-23 6.163a.993.993 0 0 1-1.212-.716l-4.54-16.944a.993.993 0 0 1 .69-1.225M-847.266-285.683l22.877 6.604a.993.993 0 0 1 .668 1.238l-4.866 16.854a.993.993 0 0 1-1.224.692l-22.878-6.604a.993.993 0 0 1-.667-1.238l4.865-16.854a.993.993 0 0 1 1.225-.692" style="fill:#abb8ba;fill-opacity:1;fill-rule:evenodd;stroke:#3a4647;stroke-width:3.04271;stroke-linecap:round;stroke-linejoin:round;stroke-miterlimit:29;stroke-dasharray:none;stroke-opacity:1" transform="rotate(-45 8.73 -1225.395)"/><path d="M-876.046-286.106h23.81c.546 0 .986.448.986 1.005v17.542a.993.993 0 0 1-.985 1.005h-23.812a.993.993 0 0 1-.984-1.005v-17.542c0-.557.439-1.005.984-1.005" style="fill:#abb8ba;fill-opacity:1;fill-rule:evenodd;stroke:#3a4647;stroke-width:3.04271;stroke-linecap:round;stroke-linejoin:round;stroke-miterlimit:29;stroke-dasharray:none;stroke-opacity:1" transform="rotate(-45 8.73 -1225.395)"/></g></g><path d="M-899.758-469.877a61.57 61.57 0 0 0-61.568 61.567 61.57 61.57 0 0 0 61.568 61.568 61.57 61.57 0 0 0 61.567-61.568 61.57 61.57 0 0 0-61.567-61.567m0 14.994a46.574 46.574 0 0 1 46.574 46.573 46.574 46.574 0 0 1-46.574 46.575 46.574 46.574 0 0 1-46.574-46.575 46.574 46.574 0 0 1 46.574-46.573" style="fill:#b8c3c4;fill-opacity:1;fill-rule:evenodd;stroke:none;stroke-width:3.04271;stroke-linecap:round;stroke-linejoin:round;stroke-miterlimit:29;stroke-dasharray:none;stroke-opacity:1" transform="translate(1029.64 538.192)"/><g style="fill:#b8c3c4;fill-opacity:1;stroke:#3a4647;stroke-opacity:1"><path d="M-882.261-270.264h35.78c.546 0 .985.448.985 1.005v17.542a.993.993 0 0 1-.985 1.005h-35.78a.993.993 0 0 1-.985-1.005v-17.542c0-.557.44-1.005.985-1.005" style="fill:#b8c3c4;fill-opacity:1;fill-rule:evenodd;stroke:#3a4647;stroke-width:3.04271;stroke-linecap:round;stroke-linejoin:round;stroke-miterlimit:29;stroke-dasharray:none;stroke-opacity:1" transform="rotate(44.756 -745.668 1181.508)"/><path d="m-924.248-249.426 30.986-17.89a.993.993 0 0 1 1.356.378l8.77 15.191a.993.993 0 0 1-.35 1.363l-30.987 17.89a.993.993 0 0 1-1.355-.378l-8.77-15.191a.993.993 0 0 1 .35-1.363M-835.48-267.316l30.987 17.89c.472.273.628.88.35 1.363l-8.771 15.191a.993.993 0 0 1-1.355.378l-30.987-17.89a.993.993 0 0 1-.35-1.363l8.77-15.191a.993.993 0 0 1 1.356-.378" style="fill:#b8c3c4;fill-opacity:1;fill-rule:evenodd;stroke:#3a4647;stroke-width:3.04271;stroke-linecap:round;stroke-linejoin:round;stroke-miterlimit:29;stroke-dasharray:none;stroke-opacity:1" transform="rotate(44.756 -745.668 1181.508)"/></g><g style="fill:#b8c3c4;fill-opacity:1;stroke:#3a4647;stroke-opacity:1"><path d="M-882.261-270.264h35.78c.546 0 .985.448.985 1.005v17.542a.993.993 0 0 1-.985 1.005h-35.78a.993.993 0 0 1-.985-1.005v-17.542c0-.557.44-1.005.985-1.005" style="fill:#b8c3c4;fill-opacity:1;fill-rule:evenodd;stroke:#3a4647;stroke-width:3.04271;stroke-linecap:round;stroke-linejoin:round;stroke-miterlimit:29;stroke-dasharray:none;stroke-opacity:1" transform="rotate(-45.244 6.552 -1218.692)"/><path d="m-924.248-249.426 30.986-17.89a.993.993 0 0 1 1.356.378l8.77 15.191a.993.993 0 0 1-.35 1.363l-30.987 17.89a.993.993 0 0 1-1.355-.378l-8.77-15.191a.993.993 0 0 1 .35-1.363M-835.48-267.316l30.987 17.89c.472.273.628.88.35 1.363l-8.771 15.191a.993.993 0 0 1-1.355.378l-30.987-17.89a.993.993 0 0 1-.35-1.363l8.77-15.191a.993.993 0 0 1 1.356-.378" style="fill:#b8c3c4;fill-opacity:1;fill-rule:evenodd;stroke:#3a4647;stroke-width:3.04271;stroke-linecap:round;stroke-linejoin:round;stroke-miterlimit:29;stroke-dasharray:none;stroke-opacity:1" transform="rotate(-45.244 6.552 -1218.692)"/></g><g style="fill:#b8c3c4;fill-opacity:1;stroke:#3a4647;stroke-opacity:1"><path d="M-882.261-270.264h35.78c.546 0 .985.448.985 1.005v17.542a.993.993 0 0 1-.985 1.005h-35.78a.993.993 0 0 1-.985-1.005v-17.542c0-.557.44-1.005.985-1.005" style="fill:#b8c3c4;fill-opacity:1;fill-rule:evenodd;stroke:#3a4647;stroke-width:3.04271;stroke-linecap:round;stroke-linejoin:round;stroke-miterlimit:29;stroke-dasharray:none;stroke-opacity:1" transform="rotate(224.756 -303.15 -230.49)"/><path d="m-924.248-249.426 30.986-17.89a.993.993 0 0 1 1.356.378l8.77 15.191a.993.993 0 0 1-.35 1.363l-30.987 17.89a.993.993 0 0 1-1.355-.378l-8.77-15.191a.993.993 0 0 1 .35-1.363M-835.48-267.316l30.987 17.89c.472.273.628.88.35 1.363l-8.771 15.191a.993.993 0 0 1-1.355.378l-30.987-17.89a.993.993 0 0 1-.35-1.363l8.77-15.191a.993.993 0 0 1 1.356-.378" style="fill:#b8c3c4;fill-opacity:1;fill-rule:evenodd;stroke:#3a4647;stroke-width:3.04271;stroke-linecap:round;stroke-linejoin:round;stroke-miterlimit:29;stroke-dasharray:none;stroke-opacity:1" transform="rotate(224.756 -303.15 -230.49)"/></g><g style="fill:#b8c3c4;fill-opacity:1;stroke:#3a4647;stroke-opacity:1"><path d="M-882.261-270.264h35.78c.546 0 .985.448.985 1.005v17.542a.993.993 0 0 1-.985 1.005h-35.78a.993.993 0 0 1-.985-1.005v-17.542c0-.557.44-1.005.985-1.005" style="fill:#b8c3c4;fill-opacity:1;fill-rule:evenodd;stroke:#3a4647;stroke-width:3.04271;stroke-linecap:round;stroke-linejoin:round;stroke-miterlimit:29;stroke-dasharray:none;stroke-opacity:1" transform="rotate(134.756 -432.207 181.308)"/><path d="m-924.248-249.426 30.986-17.89a.993.993 0 0 1 1.356.378l8.77 15.191a.993.993 0 0 1-.35 1.363l-30.987 17.89a.993.993 0 0 1-1.355-.378l-8.77-15.191a.993.993 0 0 1 .35-1.363M-835.48-267.316l30.987 17.89c.472.273.628.88.35 1.363l-8.771 15.191a.993.993 0 0 1-1.355.378l-30.987-17.89a.993.993 0 0 1-.35-1.363l8.77-15.191a.993.993 0 0 1 1.356-.378" style="fill:#b8c3c4;fill-opacity:1;fill-rule:evenodd;stroke:#3a4647;stroke-width:3.04271;stroke-linecap:round;stroke-linejoin:round;stroke-miterlimit:29;stroke-dasharray:none;stroke-opacity:1" transform="rotate(134.756 -432.207 181.308)"/></g><g style="fill:#c7d0d1;fill-opacity:1"><path d="M-887.815-254.254h46.889c.714 0 1.29.44 1.29.985v17.179c0 .545-.576.984-1.29.984h-46.89c-.714 0-1.29-.44-1.29-.984v-17.18c0-.545.576-.984 1.29-.984M-840.927-108.931h-46.888c-.715 0-1.29-.44-1.29-.984v-17.18c0-.545.575-.984 1.29-.984h46.888c.715 0 1.29.44 1.29.985v17.179c0 .545-.575.984-1.29.984M-937.032-158.148v-46.889c0-.715.439-1.29.984-1.29h17.18c.544 0 .983.575.983 1.29v46.889c0 .715-.439 1.29-.984 1.29h-17.179c-.545 0-.984-.575-.984-1.29M-791.71-205.037v46.89c0 .714-.439 1.29-.984 1.29h-17.18c-.544 0-.983-.576-.983-1.29v-46.89c0-.715.439-1.29.984-1.29h17.18c.544 0 .983.575.983 1.29" style="fill:#c7d0d1;fill-opacity:1;fill-rule:evenodd;stroke:#3a4647;stroke-width:3.44695;stroke-linecap:round;stroke-linejoin:round;stroke-miterlimit:29;stroke-dasharray:none;stroke-opacity:1" transform="rotate(-.583 30215.061 -97674.78)"/><path d="m-932.328-216.394 33.156-33.155c.505-.506 1.222-.602 1.608-.217l12.147 12.148c.386.385.29 1.102-.216 1.608l-33.156 33.155c-.505.506-1.222.602-1.608.217l-12.148-12.148c-.385-.385-.288-1.102.217-1.608M-829.57-249.55l33.156 33.156c.505.506.602 1.223.217 1.608l-12.148 12.148c-.385.385-1.103.289-1.608-.217l-33.156-33.155c-.505-.505-.602-1.223-.216-1.608l12.147-12.148c.386-.385 1.103-.289 1.609.217M-899.173-113.636l-33.155-33.155c-.505-.505-.602-1.223-.217-1.608l12.148-12.148c.386-.385 1.103-.289 1.608.217l33.156 33.155c.505.506.602 1.223.216 1.609l-12.147 12.147c-.386.386-1.103.289-1.609-.217M-796.414-146.79l-33.156 33.155c-.505.505-1.222.602-1.608.216l-12.147-12.147c-.386-.386-.29-1.103.216-1.609l33.156-33.155c.505-.506 1.223-.602 1.608-.217l12.148 12.148c.385.385.288 1.103-.217 1.608" style="fill:#c7d0d1;fill-opacity:1;fill-rule:evenodd;stroke:#3a4647;stroke-width:3.44695;stroke-linecap:round;stroke-linejoin:round;stroke-miterlimit:29;stroke-dasharray:none;stroke-opacity:1" transform="rotate(-.583 30215.061 -97674.78)"/></g><path d="M-899.82-466.362a57.946 57.946 0 0 0-57.946 57.945 57.946 57.946 0 0 0 57.946 57.946 57.946 57.946 0 0 0 57.946-57.946 57.946 57.946 0 0 0-57.946-57.945m0 13.233a44.71 44.71 0 0 1 44.712 44.712 44.71 44.71 0 0 1-44.712 44.713 44.71 44.71 0 0 1-44.713-44.713 44.71 44.71 0 0 1 44.713-44.712" style="fill:#c7d0d1;fill-opacity:1;fill-rule:evenodd;stroke:#3a4647;stroke-width:7.57123;stroke-linecap:round;stroke-linejoin:round;stroke-miterlimit:29;stroke-dasharray:none;stroke-opacity:1;paint-order:stroke fill markers" transform="translate(1029.64 538.192)"/></svg>