<svg xmlns="http://www.w3.org/2000/svg" xmlns:xlink="http://www.w3.org/1999/xlink" width="1194.615" height="1063.015" viewBox="0 0 316.075 281.256"><defs><linearGradient xlink:href="#a" id="c" x1="-700.619" x2="-691.65" y1="166.784" y2="147.236" gradientUnits="userSpaceOnUse"/><linearGradient id="a"><stop offset="0" style="stop-color:#5c6370;stop-opacity:1"/><stop offset=".678" style="stop-color:#5c6370;stop-opacity:0"/></linearGradient><linearGradient xlink:href="#a" id="b" x1="-700.619" x2="-691.65" y1="166.784" y2="147.236" gradientUnits="userSpaceOnUse"/></defs><path d="M-1126.222-38.71s1.342-2.685 5.704-7.383c4.362-4.697 10.402-10.737 18.12-11.072 7.717-.336 17.783 3.355 22.817 3.355s17.112-2.013 22.817.671c5.704 2.684 12.415 3.691 11.744 11.744-.672 8.053-1.678 15.435-2.014 22.817s4.027 14.093 1.007 21.81c-3.02 7.718-3.356 11.409-13.422 15.1s-12.08 7.717-24.495 12.75-23.152 7.047-30.87 2.685c-7.717-4.362-11.408-10.402-15.434-15.435-4.027-5.033-10.067-15.435-8.724-22.146s6.04-15.1 6.04-20.468 6.71-14.429 6.71-14.429" style="fill:#828a99;fill-opacity:1;fill-rule:evenodd;stroke:none;stroke-width:3.04271;stroke-linecap:round;stroke-linejoin:round;stroke-miterlimit:29;stroke-dasharray:none;stroke-opacity:1;paint-order:normal" transform="translate(1272.866 141.977)"/><path d="m-1244.299 5.212-26.131 15.444c-.616.364-.888 1.035-.61 1.504l8.74 14.79c.278.469.996.554 1.612.19l22.56-13.333 2.21-7.352-6.481-1.738-4.932 2.848 3.948-12.143zm-17.605 13.21a3.934 3.934 0 0 1 5.374 1.44 3.934 3.934 0 0 1-1.44 5.374 3.934 3.934 0 0 1-5.373-1.44 3.934 3.934 0 0 1 1.439-5.374M-976.654-49.702l-15.444-26.131c-.364-.616-1.035-.888-1.504-.61l-14.79 8.74c-.469.278-.554.996-.19 1.612l13.333 22.56 7.353 2.21 1.737-6.481-2.848-4.932 12.143 3.948zm-13.21-17.605a3.934 3.934 0 0 1-1.44 5.374 3.934 3.934 0 0 1-5.374-1.44 3.934 3.934 0 0 1 1.44-5.374 3.934 3.934 0 0 1 5.374 1.44" style="fill:#b9c4c5;fill-opacity:1;fill-rule:evenodd;stroke:#3a4647;stroke-width:3.44695;stroke-linecap:round;stroke-linejoin:round;stroke-miterlimit:29;stroke-dasharray:none;stroke-opacity:1" transform="translate(1272.866 141.977)"/><path d="M-1136.49 10.836c-.395-.183-.818-.163-1.094.09l-12.634 11.642c-.4.37-.333 1.09.152 1.616l31.773 34.482c.484.526 1.197.652 1.598.282l12.633-11.64c.401-.37.334-1.09-.15-1.616l-4.824-5.235c-2.499-.274-3.9.508-6.47.516-4.244.013-5.522-1.68-13.82-8.446-7.898-6.44-3.485-11.572-2.508-16.812l-4.152-4.506a1.6 1.6 0 0 0-.504-.373m-2.003 8.138a4.745 4.745 0 0 1 2.142 6.36 4.745 4.745 0 0 1-6.36 2.141 4.745 4.745 0 0 1-2.142-6.36 4.745 4.745 0 0 1 6.36-2.141m21.403 24.392a2.966 2.966 0 0 1 1.34 3.975 2.966 2.966 0 0 1-3.976 1.338 2.966 2.966 0 0 1-1.339-3.975 2.966 2.966 0 0 1 3.975-1.338" style="fill:#d5dbdc;fill-opacity:1;fill-rule:evenodd;stroke:#3a4647;stroke-width:3.44695;stroke-linecap:round;stroke-linejoin:round;stroke-miterlimit:29;stroke-dasharray:none;stroke-opacity:1" transform="translate(1272.866 141.977)"/><path d="M-973.392 87.304c.38.212.804.224 1.098-.01l13.468-10.664c.427-.338.413-1.062-.03-1.623l-29.11-36.759c-.444-.56-1.145-.739-1.572-.4l-13.468 10.665c-.427.339-.414 1.062.03 1.623l4.42 5.58c2.47.46 3.925-.216 6.489-.032 4.233.304 5.382 2.088 13.15 9.454 7.396 7.012 2.613 11.8 1.247 16.953l3.804 4.803c.138.175.302.313.475.41zm2.605-7.965a4.745 4.745 0 0 1-1.661-6.502 4.745 4.745 0 0 1 6.502-1.661 4.745 4.745 0 0 1 1.661 6.502 4.745 4.745 0 0 1-6.502 1.66m-19.522-25.922a2.966 2.966 0 0 1-1.038-4.064 2.966 2.966 0 0 1 4.064-1.038 2.966 2.966 0 0 1 1.038 4.064 2.966 2.966 0 0 1-4.064 1.038" style="fill:#c7d0d1;fill-opacity:1;fill-rule:evenodd;stroke:#3a4647;stroke-width:3.44695;stroke-linecap:round;stroke-linejoin:round;stroke-miterlimit:29;stroke-dasharray:none;stroke-opacity:1" transform="translate(1272.866 141.977)"/><path d="M-702.834 145.152c-.35-.013-.7.164-.897.491l-8.685 14.396 7.029-1.072-.238 3.322 10.203-4.508-1.424 5.22 3.322-.712.474 4.508 6.543.205 4.85-8.041a.993.993 0 0 0-.323-1.37l-20.388-12.3a.97.97 0 0 0-.466-.139" style="fill:#abb8ba;fill-opacity:1;fill-rule:evenodd;stroke:none;stroke-width:3.04271;stroke-linecap:round;stroke-linejoin:round;stroke-miterlimit:29;stroke-dasharray:none;stroke-opacity:1" transform="translate(934.163 -121.587)"/><path d="m-707.641 155.408 5.22-1.78-1.306 1.306 5.932-.83-1.542 1.067 4.508-1.542 2.017 2.728 2.372.238 1.78 4.033 2.49-.593 1.662 3.084-2.373 4.627-5.457-.83-.83-4.153-2.966.356v-5.22l-9.135 4.39-.474-2.847-7 1.186 3.085-5.932z" style="fill:url(#b);fill-opacity:1;fill-rule:evenodd;stroke:none;stroke-width:3.04271;stroke-linecap:round;stroke-linejoin:round;stroke-miterlimit:29;stroke-dasharray:none;stroke-opacity:1;paint-order:normal" transform="translate(934.163 -121.587)"/><path d="M-702.828 145.152c-.351-.013-.7.164-.898.491l-8.685 14.396 7.029-1.072-.237 3.322 10.202-4.508-1.424 5.22 3.322-.712.474 4.508 6.543.205 4.851-8.041a.993.993 0 0 0-.324-1.37l-20.388-12.3a.97.97 0 0 0-.465-.139" style="fill:none;fill-opacity:1;fill-rule:evenodd;stroke:#3a4647;stroke-width:3.04271;stroke-linecap:round;stroke-linejoin:round;stroke-miterlimit:29;stroke-dasharray:none;stroke-opacity:1" transform="translate(934.163 -121.587)"/><path d="M-702.834 145.152c-.35-.013-.7.164-.897.491l-8.685 14.396 7.029-1.072-.238 3.322 10.203-4.508-1.424 5.22 3.322-.712.474 4.508 6.543.205 4.85-8.041a.993.993 0 0 0-.323-1.37l-20.388-12.3a.97.97 0 0 0-.466-.139" style="fill:#abb8ba;fill-opacity:1;fill-rule:evenodd;stroke:none;stroke-width:3.04271;stroke-linecap:round;stroke-linejoin:round;stroke-miterlimit:29;stroke-dasharray:none;stroke-opacity:1" transform="rotate(-70.118 -415.156 -433.093)"/><path d="m-707.641 155.408 5.22-1.78-1.306 1.306 5.932-.83-1.542 1.067 4.508-1.542 2.017 2.728 2.372.238 1.78 4.033 2.49-.593 1.662 3.084-2.373 4.627-5.457-.83-.83-4.153-2.966.356v-5.22l-9.135 4.39-.474-2.847-7 1.186 3.085-5.932z" style="fill:url(#c);fill-opacity:1;fill-rule:evenodd;stroke:none;stroke-width:3.04271;stroke-linecap:round;stroke-linejoin:round;stroke-miterlimit:29;stroke-dasharray:none;stroke-opacity:1;paint-order:normal" transform="rotate(-70.118 -415.156 -433.093)"/><path d="M-702.828 145.152c-.351-.013-.7.164-.898.491l-8.685 14.396 7.029-1.072-.237 3.322 10.202-4.508-1.424 5.22 3.322-.712.474 4.508 6.543.205 4.851-8.041a.993.993 0 0 0-.324-1.37l-20.388-12.3a.97.97 0 0 0-.465-.139" style="fill:none;fill-opacity:1;fill-rule:evenodd;stroke:#3a4647;stroke-width:3.04271;stroke-linecap:round;stroke-linejoin:round;stroke-miterlimit:29;stroke-dasharray:none;stroke-opacity:1" transform="rotate(-70.118 -415.156 -433.093)"/><path d="M-1129.813-61.551a57.95 57.95 0 0 0-17.493 41.488 58 58 0 0 0 2.833 17.895l10.72-12.562a45 45 0 0 1-.32-5.333 44.7 44.7 0 0 1 13.038-31.558l.308-4.622-8.542.95zM-1040.676 14.863a58 58 0 0 0 5.12-8.71l-12.288-4.99a45 45 0 0 1-3.613 6.026 44.71 44.71 0 0 1-31.106 18.465l3.68 4.964-7.66 8.572a57.95 57.95 0 0 0 45.867-24.327" style="fill:#d5dbdc;fill-opacity:1;fill-rule:evenodd;stroke:#3a4647;stroke-width:7.57123;stroke-linecap:round;stroke-linejoin:round;stroke-miterlimit:29;stroke-dasharray:none;stroke-opacity:1;paint-order:stroke fill markers" transform="translate(1272.866 141.977)"/><path d="M-1103.852-140.024c-.303-.224-.772-.29-1.24-.137l-12.627 4.116-6.846 8.795 8.29 6.291-2.52 5.403 19.638-6.4c.68-.222 1.091-.818.922-1.336l-5.324-16.334a.8.8 0 0 0-.293-.398m-28.817 8.852-17.003 5.542c-.68.221-1.09.817-.921 1.336l5.324 16.333c.169.518.852.757 1.531.535l16.014-5.22-.787-4.412-8.284.627 5.756-6.565zM-1182.11 122.947c.119.357.466.68.935.823l12.702 3.884 10.655-3.268-3.173-9.912 5.166-2.975-19.752-6.04c-.683-.208-1.363.043-1.522.565l-5.022 16.428a.8.8 0 0 0 .01.495zm28.674 9.304 17.102 5.228c.683.21 1.362-.042 1.521-.564l5.023-16.428c.159-.521-.263-1.109-.947-1.318l-16.106-4.924-1.89 4.063 7.14 4.246-8.481 2.068z" style="fill:#d5dbdc;fill-opacity:1;fill-rule:evenodd;stroke:#3a4647;stroke-width:3.44695;stroke-linecap:round;stroke-linejoin:round;stroke-miterlimit:29;stroke-dasharray:none;stroke-opacity:1" transform="translate(1272.866 141.977)"/><path d="m-1213.48-43.461 20.771-4.38c.7-.147 1.173-.695 1.06-1.229l-3.544-16.81c-.113-.533-.766-.843-1.466-.696l-17.115 3.61 7.484 9.262-14.518-2.417zM-1064.011 120.558l20.771-4.38c.7-.147 1.173-.695 1.06-1.229l-3.544-16.81c-.113-.533-.766-.843-1.466-.696l-17.115 3.609 7.484 9.263-14.518-2.417z" style="fill:#c7d0d1;fill-opacity:1;fill-rule:evenodd;stroke:#3a4647;stroke-width:3.44695;stroke-linecap:round;stroke-linejoin:round;stroke-miterlimit:29;stroke-dasharray:none;stroke-opacity:1" transform="translate(1272.866 141.977)"/></svg>