<svg xmlns="http://www.w3.org/2000/svg" xml:space="preserve" width="512" height="512" viewBox="0 0 135.467 135.467"><defs><filter id="b" width="1.6" height="1.43" x="-.3" y="-.215" style="color-interpolation-filters:sRGB"><feFlood flood-color="#009778" flood-opacity="1" result="flood"/><feGaussianBlur in="SourceGraphic" result="blur" stdDeviation="2"/><feOffset in="blur" result="offset"/><feComposite in="offset" in2="flood" operator="in" result="comp1"/><feComposite in="SourceGraphic" in2="comp1" result="comp2"/></filter><filter id="a" width="1.6" height="1.5" x="-.3" y="-.25" style="color-interpolation-filters:sRGB"><feFlood flood-color="#009778" flood-opacity="1" result="flood"/><feGaussianBlur in="SourceGraphic" result="blur" stdDeviation="2"/><feOffset in="blur" result="offset"/><feComposite in="offset" in2="flood" operator="in" result="comp1"/><feComposite in="SourceGraphic" in2="comp1" result="comp2"/></filter></defs><path d="M76.964 120.191h58.425v58.425H76.964z" style="opacity:1;fill:#000;fill-opacity:1;stroke-width:.9887;paint-order:markers stroke fill" transform="matrix(2.31864 0 0 2.31863 -178.451 -278.678)"/><g style="filter:url(#a)" transform="matrix(2.31864 0 0 2.31863 -177.495 -277.377)"><path d="M108.964 151.993h3.2v3.2h-3.2zm3.2-3.2h3.2v3.2h-3.2zm3.2 0h3.2v3.2h-3.2zm3.2 0h3.2v3.2h-3.2zm3.2 0h3.2v3.2h-3.2zm0 3.2h3.2v3.2h-3.2zm0 3.2h3.2v3.2h-3.2zm0 3.2h3.2v3.2h-3.2zm-3.2 0h3.2v3.2h-3.2zm-3.2 0h3.2v3.2h-3.2zm-6.4 6.4h3.2v3.2h-3.2zm3.2 0h3.2v3.2h-3.2zm3.2 0h3.2v3.2h-3.2zm3.2 0h3.2v3.2h-3.2zm3.2-3.2h3.2v3.2h-3.2zm-9.6-3.2h3.2v3.2h-3.2zm-3.2-3.2h3.2v3.2h-3.2z" style="fill:red;stroke-width:.96553;paint-order:markers stroke fill"/></g><path d="M108.964 151.993h3.2v3.2h-3.2zm3.2-3.2h3.2v3.2h-3.2zm3.2 0h3.2v3.2h-3.2zm3.2 0h3.2v3.2h-3.2zm3.2 0h3.2v3.2h-3.2zm0 3.2h3.2v3.2h-3.2zm0 3.2h3.2v3.2h-3.2zm0 3.2h3.2v3.2h-3.2zm-3.2 0h3.2v3.2h-3.2zm-3.2 0h3.2v3.2h-3.2zm-6.4 6.4h3.2v3.2h-3.2zm3.2 0h3.2v3.2h-3.2zm3.2 0h3.2v3.2h-3.2zm3.2 0h3.2v3.2h-3.2zm3.2-3.2h3.2v3.2h-3.2zm-9.6-3.2h3.2v3.2h-3.2zm-3.2-3.2h3.2v3.2h-3.2z" style="fill:red;stroke-width:.96553;paint-order:markers stroke fill" transform="matrix(2.31864 0 0 2.31863 -177.495 -277.377)"/><g style="filter:url(#b)" transform="matrix(2.31864 0 0 2.31863 -177.495 -277.377)"><path d="M86.564 129.692h3.2v3.2h-3.2zm0 3.2h3.2v3.2h-3.2zm0 3.2h3.2v3.2h-3.2zm0 12.652h3.2v3.2h-3.2zm0-3.15h3.2v3.2h-3.2zm0-3.152h3.2v3.2h-3.2zm0-3.15h3.2v3.2h-3.2zm12.8 9.501h3.2v3.2h-3.2zm0-3.2h3.2v3.2h-3.2zm0-3.15h3.2v3.2h-3.2zm0-3.151h3.2v3.2h-3.2zm-3.2-3.2h3.2v3.2h-3.2zm-3.2 0h3.2v3.2h-3.2zm-3.2 3.2h3.2v3.2h-3.2z" style="fill:red;stroke-width:.96553;paint-order:markers stroke fill"/></g><path d="M86.564 129.692h3.2v3.2h-3.2zm0 3.2h3.2v3.2h-3.2zm0 3.2h3.2v3.2h-3.2zm0 12.652h3.2v3.2h-3.2zm0-3.15h3.2v3.2h-3.2zm0-3.152h3.2v3.2h-3.2zm0-3.15h3.2v3.2h-3.2zm12.8 9.501h3.2v3.2h-3.2zm0-3.2h3.2v3.2h-3.2zm0-3.15h3.2v3.2h-3.2zm0-3.151h3.2v3.2h-3.2zm-3.2-3.2h3.2v3.2h-3.2zm-3.2 0h3.2v3.2h-3.2zm-3.2 3.2h3.2v3.2h-3.2z" style="fill:red;stroke-width:.96553;paint-order:markers stroke fill" transform="matrix(2.31864 0 0 2.31863 -177.495 -277.377)"/></svg>