<svg xmlns="http://www.w3.org/2000/svg" width="756.415" height="407.334" viewBox="0 0 200.135 107.774"><path d="M1546.701-695h208.16v-390.96h-208.16zm73.763-39.37 16.5 4.399 6.618 24.571zm44.522-113.693 19.539-33.842 7.689 36.479v21.123l-11.947 3.822zm31.214-108.19 46.2-46.2-6.253 36.821 7.413 25.508-8.802 32.85-3.474-26.4z" style="fill:#405f3a;fill-opacity:1;fill-rule:evenodd;stroke:#1f2d1a;stroke-width:2.11667;stroke-linecap:round;stroke-linejoin:round;stroke-dasharray:none;stroke-opacity:1" transform="rotate(90 212.876 -558.54)scale(.5)"/><path d="M1544.057-705.479h213.099v10.619h-213.099zM1544.056-722.286h86.051l-8.473-10.619h-77.578zm81.907-10.619 11.002 2.934 2.07 7.685h118.121v-10.619zM1544.057-760.884h213.099v10.619h-213.099zM1544.057-788.31h213.099v10.619h-213.099zM1544.057-815.768h213.099v10.619h-213.099zM1544.056-832.575h135.069l-4.667-10.619h-130.402zm146.942 0h66.158v-10.619h-64.942zM1544.056-860.555h128.142l9.604-10.618h-137.746zm142.73-10.618-1.756 10.618h72.126v-10.618zM1544.057-898.599h213.099v10.619h-213.099zM1544.056-913.529h189.879l-1.397-10.618h-188.482zm192.378 0h20.722v-10.618h-13.708zM1544.056-940.954h178.52l-10.112-10.619h-168.408zm193.224-10.619 6.039 10.619h13.837v-10.619zM1544.056-968.934h178.894l1.586-10.619h-180.48zm186.4 0h26.7v-10.619h-13.782zM1544.056-996.36h183.566l14.778-6.093 4.176 6.093h10.58v-10.618h-213.1zM1544.057-1032.51h213.099v10.619h-213.099zM1544.057-1060.489h213.099v10.619h-213.099zM1544.057-1087.915h213.099v10.619h-213.099z" style="fill:#486c42;fill-opacity:1;fill-rule:evenodd;stroke:#1f2d1a;stroke-width:2.44811;stroke-linecap:round;stroke-linejoin:round;stroke-dasharray:none;stroke-opacity:1" transform="rotate(90 212.876 -558.54)scale(.5)"/><path d="M1645.605-1090.54h10.96v398.153h-10.96z" style="fill:#486c42;fill-opacity:1;fill-rule:evenodd;stroke:#1f2d1a;stroke-width:2.11667;stroke-linecap:round;stroke-linejoin:round;stroke-dasharray:none;stroke-opacity:1" transform="rotate(90 212.876 -558.54)scale(.5)"/><path d="M27.897 186.801h45.777V150.55c-22.686-3.444-12.042 15.792-24.803 25.008-5.281 3.814-21.001 2.259-20.974 11.244" style="fill:#c9d1d9;stroke:#a2a5c0;stroke-width:1.21708331;stroke-linecap:round;stroke-dasharray:none;fill-opacity:1;stroke-opacity:1;stroke-linejoin:round" transform="translate(124.619 -79.64)"/><path d="M73.674 123.65V80.252H43.317c-4.225 15.4 12.712 7.78 14.686 12.96 2.157 5.663-4.193 10.052-3.29 15.466.61 3.664 6.604 3.227 8.883 5.018 3.874 3.044-1.897 11.548 10.078 9.954M30.551 80.252h-54.19c-.185 2.633 3.026 3.817 3.575 6.38 1.835 8.561-2.471 9.679 6.252 16.288 1.993 1.51 4.035 3.42 6.416 4.277 4.678 1.684 8.65-2.119 13.08.494 8.54 5.036 8.62 10.365 19.66 10.365 2.272 0 4.916-.13 6.91-1.399 5.539-3.524.617-10.066 1.07-15.054.35-3.854 4.078-17.063 1.234-19.907-.895-.895-2.927-1.086-4.007-1.444M-24.095 123.074c9.692.102 7.657 13.335 5.347 19.496-.985 2.628-3.67 4.184-3.948 7.239-.685 7.526 9.899 9.681 15.383 7.98 6.183-1.92 1.978-9.23 10.776-11.353 4.263-1.029 13.722-1.178 15.218-6.663 1.639-6.008-4.161-11.362-9.707-12.504-3.179-.654-6.585-.083-9.706-.905-3.43-.902-4.362-4.11-8.72-5.1-4.197-.954-9.003-2.21-13.327-1.398-1.482.278-3.509 3.185-1.316 3.208" style="fill:#c9d1d9;fill-opacity:1;stroke:#a2a5c0;stroke-width:1.21708;stroke-linecap:round;stroke-linejoin:round;stroke-dasharray:none;stroke-opacity:1" transform="translate(124.619 -79.64)"/><path d="M-16.773 131.026H16.13c2.635.327 2.962 3.23 2.962 5.48h-36.525c-.926-2.151-.23-4.075.659-5.48M-49.954 80.252h-42.542c5.857-.196 13.198 3.01 16.823 7.794 5.956 7.862 5.359 11.871 16.751 10.836 5.247-2.14 6.32-9.153 7.535-14.012.465-1.86 1.433-2.691 1.433-4.618M-88.482 158.53c11.467 9.555 39.22 7.611 37.141 28.271h-71.512v-63.085c1.29-.314 3.891-.102 4.138 1.629.667 4.67-2.545 11.4 1.018 15.473 3.728 4.26 12.23-.812 17.102 0 6.737 1.123 10.767 16.59 12.113 17.712" style="fill:#c9d1d9;fill-opacity:1;stroke:#a2a5c0;stroke-width:1.21708;stroke-linecap:round;stroke-linejoin:round;stroke-dasharray:none;stroke-opacity:1" transform="translate(124.619 -79.64)"/><path d="M-124.09 131.026v5.48h5.362c.124-1.825.842-3.735.842-5.48z" style="fill:#c9d1d9;fill-opacity:1;stroke:#a2a5c0;stroke-width:1.21708;stroke-linecap:round;stroke-linejoin:round;stroke-dasharray:none;stroke-opacity:1" transform="translate(124.619 -79.64)"/></svg>