<svg xmlns="http://www.w3.org/2000/svg" width="517.574" height="858.965" viewBox="0 0 136.942 227.269"><defs><radialGradient id="a" cx="141.735" cy="145.99" r="104.415" gradientTransform="matrix(.33989 0 0 .32824 42.071 124.92)" gradientUnits="userSpaceOnUse"><stop offset="0" stop-opacity=".9"/><stop offset="1" stop-opacity=".3"/></radialGradient></defs><path d="M1.097 2.137v223.482h134.465V2.137ZM49.075 12l15.172 2.964 5.141 15.028L50.605 18.33zm15.024 86.692 32.177 10.685-22.598.736-13.755 6.018-14-2.088zM21.92 168.736l20.148 7.121-5.385 18.063 5.037 6.08-13.026 12.33-6.774-18.41 5.385-14.416z" style="opacity:1;fill:#405f3a;fill-opacity:1;stroke:#1f2d1a;stroke-width:1.00349;stroke-linejoin:round;stroke-dasharray:none;stroke-opacity:1;stop-color:#000"/><path d="M.612 1.803h135.717v5.31H.612Zm0 12.852v5.31h52.626l-2.633-1.636-.888-3.674zm62.052 0 1.583.31 1.71 5h70.372v-5.31zM.612 27.69v5.309h135.717v-5.31H68.601l.787 2.303-3.707-2.302zm0 13.044h135.717v5.31H.612Zm0 12.852h135.717v5.31H.612Zm0 13.035h135.717v5.31H.612Zm0 12.43h135.717v5.309H.612Zm0 12.852h135.717v5.31H.612Zm0 13.035v5.309h49.805l6.287-5.31zm82.297 0 13.367 4.438-22.598.737-.305.134h62.956v-5.31zM.612 117.98h135.717v5.31H.612Zm0 12.853h135.717v5.31H.612Zm0 13.035h135.717v5.31H.612Zm0 11.744h135.717v5.31H.612Zm0 12.852v5.31H24.44l-2.519-5.039 14.254 5.038H136.33v-5.31zm0 13.035v5.309h23.965l1.983-5.31zm39.775 0-1.583 5.309h97.525v-5.31zM.612 194.544v5.309h23.492l-1.954-5.31zm36.589 0 4.399 5.309h94.73v-5.31zM.61 207.396v5.31H136.33v-5.31H33.908l-5.213 4.935-1.815-4.935zm0 13.035H136.33v5.31H.612Z" style="fill:#486c42;fill-opacity:1;fill-rule:evenodd;stroke:#1f2d1a;stroke-width:1.22406;stroke-linecap:round;stroke-linejoin:round;stroke-dasharray:none;stroke-opacity:1"/><path d="M65.088.548V17.42l4.301 12.573-4.301-2.671v71.698l8.2 2.724V.548Zm8.2 109.736-8.2 3.588v112.849h8.2z" style="fill:#486c42;fill-opacity:1;fill-rule:evenodd;stroke:#1f2d1a;stroke-width:1.09653;stroke-linecap:round;stroke-linejoin:round;stroke-dasharray:none;stroke-opacity:1"/><path fill="url(#a)" d="m90.593 138.568-2.692 17.094a18.11 18.503 0 0 0-.232.05l-7.789-11.146 2.06 13.086-7.243-6.923 3.86 9.42a18.11 18.503 0 0 0-.147.15l-15.83-4.65 12.222 9.34a18.11 18.503 0 0 0-.289.542l-7.68-1.255 6.896 3.063a18.11 18.503 0 0 0-.006.016l-15.429 1.594 14.297 6.52a18.11 18.503 0 0 0 .028.414l-10.243 2.693 9.187.386-16.807 11.94 20.17-6.811-9.797 13.786 13.714-9.742-2.392 15.202 8.372-11.886a18.11 18.503 0 0 0 .708.263l2.63 15.4 3.621-14.21 4.42 8.958-.822-7.95 11.001 10.548-4.95-15.743a18.11 18.503 0 0 0 .77-.59l9.153 4.636-4.752-8.436 19.132 5.445-16.959-11.17 12.392-1.37-12.473-3.661a18.11 18.503 0 0 0-.008-.305l14.75-9.767-16.866 1.743a18.11 18.503 0 0 0-.249-.45l5.206-5.66-6.42 2.96 11.793-16.74-15.978 13.408a18.11 18.503 0 0 0-.547-.374l4.45-9.155-7.624 7.5a18.11 18.503 0 0 0-.136-.054l2.44-11.491-5.674 10.566a18.11 18.503 0 0 0-.547-.097z" style="fill:url(#a);stroke-width:.707249"/></svg>