<?xml version="1.0" encoding="UTF-8" standalone="no"?>
<svg
   id="Layer_2"
   data-name="Layer 2"
   width="700"
   height="696.4184"
   viewBox="0 0 699.99999 696.41839"
   version="1.1"
   sodipodi:docname="airdrop_parachute.svg"
   inkscape:version="1.1.2 (0a00cf5339, 2022-02-04)"
   xmlns:inkscape="http://www.inkscape.org/namespaces/inkscape"
   xmlns:sodipodi="http://sodipodi.sourceforge.net/DTD/sodipodi-0.dtd"
   xmlns="http://www.w3.org/2000/svg"
   xmlns:svg="http://www.w3.org/2000/svg">
  <sodipodi:namedview
     id="namedview90"
     pagecolor="#505050"
     bordercolor="#ffffff"
     borderopacity="1"
     inkscape:pageshadow="0"
     inkscape:pageopacity="0"
     inkscape:pagecheckerboard="1"
     showgrid="false"
     inkscape:zoom="0.7020448"
     inkscape:cx="180.90014"
     inkscape:cy="515.63661"
     inkscape:window-width="2560"
     inkscape:window-height="1372"
     inkscape:window-x="0"
     inkscape:window-y="0"
     inkscape:window-maximized="1"
     inkscape:current-layer="Layer_2" />
  <defs
     id="defs4">
    <style
       id="style2">
      .cls-1 {
        fill: #bababa;
      }

      .cls-1, .cls-2, .cls-3 {
        isolation: isolate;
        opacity: .997;
        stroke: #303030;
        stroke-linecap: round;
        stroke-miterlimit: 15.1181;
        stroke-width: 5px;
      }

      .cls-2 {
        fill: #5a70e0;
      }

      .cls-3 {
        fill: #3f3fe0;
      }

      .cls-4 {
        opacity: .9;
      }
    </style>
  </defs>
  <g
     id="Layer_2-2"
     data-name="Layer 2-2"
     class="cls-4"
     transform="matrix(1.5876151,0,0,1.5876151,1.6211061e-4,0)"
     style="opacity:1">
    <g
       id="Layer_2-3"
       data-name="Layer 2-3">
      <path
         id="path1526"
         class="cls-3"
         d="m 108.9473,190.6349 c -15.2955,-3.0591 -29.2144,-5.8123 -31.0499,-6.2711 l -3.2121,-0.6119 0.3059,-6.2711 c 0.4589,-9.7892 4.1298,-20.496 9.7891,-28.4496 2.9061,-4.1298 4.7416,-5.6594 6.73,-5.6594 0.9177,0 11.6246,5.8123 27.8378,14.9896 14.5307,8.2596 26.6142,14.9896 26.6142,15.1426 0.153,0.1529 -0.7648,1.3766 -1.8355,2.9062 -2.4473,3.212 -4.4357,8.4125 -4.8946,12.5423 -0.7648,7.3418 -0.9177,7.4948 -1.8355,7.4948 -0.1529,-0.1532 -13.1541,-2.7534 -28.4496,-5.8125 h 2e-4 z" />
      <path
         id="path1528"
         class="cls-3"
         d="M 119.5012,155.9141 C 104.9705,147.6545 92.887,140.9245 92.734,140.7715 c -0.4589,-0.4588 1.2236,-6.4241 2.6002,-9.6362 1.9884,-4.7416 5.8123,-10.4009 9.6362,-14.0719 5.2005,-5.2005 13.1542,-10.248 15.6014,-9.7892 0.7648,0.1529 8.4125,7.9537 21.8726,22.6373 11.3187,12.3893 20.6489,22.6373 20.6489,22.9433 0,0.306 -1.0707,1.0707 -2.4473,1.8355 -3.9768,1.9884 -7.6478,5.6594 -9.9421,10.5539 -1.2236,2.2943 -2.1414,4.5887 -2.1414,5.0475 0,0.4588 -0.6118,0.7648 -1.2236,0.7648 -0.7648,-0.1529 -13.3071,-6.883 -27.8378,-15.1425 v 0 z" />
      <path
         id="path1530"
         class="cls-3"
         d="m 143.5152,128.2292 c -11.1657,-12.0835 -20.343,-22.4844 -20.496,-22.9433 -0.4589,-2.2943 7.1889,-11.4716 13.1542,-15.7544 6.2712,-4.4357 14.9896,-7.8007 20.8019,-7.8007 h 2.4473 l 11.0128,24.7788 c 6.1182,13.613 11.7775,26.4612 12.8482,28.6026 l 1.8355,3.8239 -3.0591,0.6119 c -6.1182,1.2236 -10.8598,3.9768 -13.9189,8.1066 -1.2236,1.8355 -2.2943,2.6003 -3.0591,2.6003 -0.9178,0 -7.036,-6.2712 -21.5667,-22.0257 z" />
      <path
         id="path1532"
         class="cls-3"
         d="m 173.9532,109.2628 c -6.5771,-14.8367 -12.0834,-27.379 -12.0834,-27.9908 0,-2.6003 8.4125,-8.4125 16.2133,-11.0128 4.2827,-1.3766 6.1182,-1.8355 11.6246,-1.9884 5.9652,-0.3059 13.1542,0.4588 14.6837,1.3766 0.3059,0.3059 1.6825,11.6246 3.365,29.3674 1.5296,15.9074 2.9061,29.8263 3.0591,30.897 l 0.3059,1.8355 -5.2005,-0.1529 c -5.9652,-0.1529 -10.5539,0.7648 -14.8367,3.212 -4.8946,2.7531 -3.518,4.7415 -17.131,-25.5436 z" />
      <path
         id="path1534"
         class="cls-3"
         d="m 230.8526,130.8294 c -3.8239,-1.2236 -9.1773,-1.3766 -14.0719,-0.4588 -1.9884,0.4588 -3.6709,0.6119 -3.8239,0.4588 -0.153,-0.1529 -1.5296,-13.3071 -3.0591,-29.3674 -1.5295,-16.0603 -2.9061,-29.8263 -3.0591,-30.591 -0.153,-1.2236 0,-1.5296 2.9061,-2.7532 6.5771,-2.9062 14.6837,-3.9768 22.4844,-3.0591 8.1066,0.9177 17.5898,4.7416 17.5898,6.883 0,0.4588 -2.9061,14.2248 -6.5771,30.591 l -6.5771,29.6733 h -1.3766 c -0.4589,-0.3059 -2.6003,-0.9178 -4.4357,-1.3766 z" />
      <path
         id="path1536"
         class="cls-3"
         d="m 257.4668,137.8654 c -3.8239,-3.0591 -7.6478,-4.4357 -13.613,-4.7416 -2.7532,-0.1529 -5.0475,-0.3059 -5.0475,-0.4588 0,-1.2236 13.613,-60.7232 14.0719,-61.0291 0.7648,-0.7648 10.8598,-1.0707 14.9896,-0.4588 4.8946,0.9177 10.7069,3.212 15.4485,6.2711 3.9768,2.6003 10.7069,8.5655 10.7069,9.6362 0,0.3059 -6.883,12.2364 -15.2955,26.6142 -17.5899,29.6732 -16.2133,28.1437 -21.2608,24.1669 v 0 z" />
      <path
         id="path1538"
         class="cls-3"
         d="m 279.4923,154.5375 c -2.9061,-5.0475 -7.9537,-8.8714 -13.766,-10.8598 -0.4588,-0.1529 -0.9177,-0.7648 -0.9177,-1.3766 0,-0.7648 25.2376,-44.357 30.591,-52.7695 0.7648,-1.0707 0.9177,-1.0707 3.6709,-0.4588 4.1298,0.9177 9.0243,3.212 12.6953,5.5063 6.5771,4.4357 13.9189,12.5423 17.4369,19.5782 l 1.2236,2.4472 -1.2236,1.2236 c -0.7648,0.6119 -11.1657,9.9421 -23.0962,20.496 -16.8251,14.8367 -22.1785,19.2723 -23.2492,19.2723 -1.3765,-0.3058 -1.9884,-0.7647 -3.3649,-3.059 h -10e-5 z" />
      <path
         id="path1540"
         class="cls-3"
         d="m 295.0937,176.563 c -1.0707,-4.4357 -3.6709,-9.1773 -6.883,-12.3893 -1.9884,-1.9884 -2.9061,-3.212 -2.9061,-4.1298 0,-1.0707 4.8946,-5.5063 22.4844,-21.1078 14.0719,-12.3893 22.9433,-19.7313 23.708,-19.8842 3.2121,-0.4588 11.9305,7.6478 16.6721,15.4484 2.9061,4.8946 5.9652,13.3071 6.5771,17.8958 l 0.3059,2.9062 -28.4497,12.0835 c -15.6014,6.5771 -29.0615,12.0835 -29.6733,12.0835 -1.0707,-2e-4 -1.3766,-0.306 -1.8355,-2.9063 z" />
      <path
         id="path1542"
         class="cls-3"
         d="m 303.3533,199.6592 c 0,-6.883 -0.6118,-9.0244 -3.8239,-13.766 -2.6003,-3.8239 -3.8239,-3.0591 26.7672,-16.2132 15.2955,-6.5771 28.4497,-11.7776 29.0615,-11.7776 1.6825,0 5.9652,4.8946 8.4125,9.4832 3.518,6.7301 4.4357,11.0128 4.4357,21.2608 0,5.2005 -0.3059,9.4832 -0.6118,10.248 l -0.6118,1.3766 -31.3558,2.7532 c -17.131,1.5296 -31.5088,2.7532 -31.8147,2.7532 -0.153,0.3058 -0.4589,-2.2944 -0.4589,-6.1183 v 0 z" />
      <path
         id="path1544"
         class="cls-3"
         d="m 345.8748,241.7219 c -9.6362,-2.2943 -23.2492,-5.6594 -30.1322,-7.3418 -10.095,-2.4472 -12.5423,-3.212 -12.5423,-3.9768 0,-0.4588 0.4588,-2.1414 1.0707,-3.8239 1.6825,-4.4357 1.9884,-8.8714 0.7648,-13.766 -0.4588,-2.2943 -0.7648,-4.2827 -0.6118,-4.4357 0.3059,-0.3059 63.1705,-6.1182 63.4764,-5.9653 0,0 0.7648,2.2943 1.5296,4.8946 1.3766,4.4357 1.5296,5.5063 1.5296,14.3778 0,10.4009 -0.4588,13.0012 -3.8239,20.343 -1.2236,2.9062 -1.9884,3.9768 -2.7532,3.8239 -0.4588,0.1529 -8.8714,-1.8355 -18.5076,-4.1298 z" />
      <path
         id="path1546"
         class="cls-3"
         d="m 321.249,273.2307 c -22.0255,-13.3071 -26.0024,-15.7544 -26.1553,-16.8251 -0.153,-0.9177 0.6118,-2.2943 1.9884,-4.2827 2.7532,-3.518 4.2827,-8.5655 4.4357,-14.2248 0.153,-3.8239 0.3059,-4.1298 1.2236,-4.1298 1.5296,0 61.335,14.3778 61.7939,14.8367 0.153,0.1529 0.3059,2.9062 0.3059,5.9653 -0.153,11.4716 -4.8946,23.5551 -12.5423,31.8147 -1.6825,1.8355 -2.7532,2.6003 -3.8239,2.6003 -0.7647,-0.1531 -10.8597,-5.9654 -27.226,-15.7545 v 0 z" />
      <path
         id="path1548"
         class="cls-3"
         d="m 297.8469,301.3744 c -22.0255,-25.2376 -21.8726,-24.9317 -18.2017,-27.0731 3.518,-1.8355 8.4125,-7.1889 10.4009,-11.1657 1.5296,-3.0591 1.9884,-3.671 3.0591,-3.671 0.7648,0 12.2364,6.5771 28.1437,15.9074 26.1553,15.6014 26.7672,16.0603 26.4612,17.4369 -1.2236,5.3534 -4.2827,11.4716 -8.4125,16.6721 -5.6594,7.1889 -14.8367,14.0719 -19.2724,14.5307 l -1.9884,0.3059 -20.1901,-22.9434 z" />
      <path
         id="path1550"
         class="cls-3"
         d="m 268.3266,321.7174 c -7.0359,-16.3662 -12.8482,-29.9792 -12.6953,-30.2851 0.1529,-0.3059 1.5296,-0.9177 3.0591,-1.3766 4.5887,-1.2236 8.7185,-3.518 11.9305,-6.7301 2.2943,-2.2943 3.518,-3.0591 4.5887,-3.0591 1.2236,0 4.4357,3.365 21.5667,22.9433 11.1657,12.6953 20.1901,23.2492 20.343,23.5551 0.3059,1.0707 -5.0475,8.5655 -9.3303,12.8483 -3.6709,3.671 -5.3534,4.8946 -9.4832,6.883 -4.4357,2.1414 -13.9189,5.2005 -16.2133,5.2005 -0.6118,-0.153 -4.8945,-9.6362 -13.7659,-29.9793 z" />
      <path
         id="path1552"
         class="cls-3"
         d="m 238.6532,364.5449 c -1.0707,-0.1529 -2.1414,-0.6119 -2.4473,-0.7648 -0.3059,-0.3059 -6.5771,-60.4173 -6.5771,-63.9352 v -1.6825 l 2.9061,0.3059 c 4.5887,0.3059 10.095,-0.7648 14.6837,-3.212 2.2943,-1.2236 4.7416,-2.1414 5.3534,-2.1414 0.9177,0 2.9061,3.9768 13.9189,29.6733 l 12.8482,29.6733 -2.1414,1.8355 c -5.0475,4.4357 -13.766,8.4125 -21.4137,10.095 -4.1298,0.6118 -13.46,0.7647 -17.131,0.1528 h 2e-4 z" />
      <path
         id="path1554"
         class="cls-3"
         d="m 208.3681,367.757 c -6.4241,-0.7648 -18.2017,-5.0475 -18.2017,-6.5771 0,-0.3059 2.9061,-14.6837 6.5771,-31.8147 5.9652,-28.2967 6.73,-31.2029 7.6478,-31.2029 0.6118,0 2.7532,0.4588 4.8946,1.2236 4.4357,1.3766 10.7069,1.5296 14.8367,0.4588 1.5296,-0.4588 3.0591,-0.6119 3.0591,-0.4588 0.153,0.1529 1.6825,14.6837 3.518,32.4265 2.9061,28.9086 3.2121,32.1206 2.4473,32.7324 -1.3766,0.9177 -9.0243,2.9062 -13.9189,3.518 -5.0475,0.3058 -5.6594,0.3058 -10.8598,-0.3059 h -2e-4 z" />
      <path
         id="path1556"
         class="cls-3"
         d="m 180.0714,360.5681 c -11.6246,-1.0707 -23.5551,-5.8123 -29.9792,-11.6246 -2.2943,-2.1414 -3.2121,-3.365 -3.2121,-4.2827 0,-0.7648 6.883,-13.46 15.4485,-28.2967 17.4369,-30.4381 15.9073,-28.6026 20.9549,-24.9317 3.6709,2.7532 7.6478,4.2827 13.613,5.0475 4.4357,0.6119 4.7416,0.7648 4.4357,1.6825 -0.4588,1.9884 -13.3071,62.4057 -13.3071,62.7116 -0.1529,0.4588 -1.3766,0.3059 -7.9536,-0.3059 z" />
      <path
         id="path1558"
         class="cls-3"
         d="m 140.1501,342.5194 c -3.0591,-1.0707 -9.4832,-4.4357 -12.2364,-6.4241 -7.6478,-5.2005 -16.8251,-17.131 -16.0603,-20.9549 0.153,-0.4588 9.9421,-10.095 22.0255,-21.2608 17.131,-15.7544 22.1785,-20.343 23.2492,-20.343 1.0707,0 1.9884,0.7648 3.8239,3.0591 2.9061,3.671 7.0359,6.5771 11.9305,8.2596 1.9884,0.7648 3.6709,1.5296 3.6709,1.6825 0,0.1529 -7.1889,13.1541 -16.0603,28.6026 -17.4369,30.744 -16.0603,28.9086 -20.343,27.379 z" />
      <path
         id="path1560"
         class="cls-3"
         d="m 107.1118,311.3165 c -10.7069,-7.6478 -17.2839,-16.2132 -20.9549,-26.7672 -2.6002,-7.8007 -5.6593,-5.5063 27.0731,-20.6489 15.7544,-7.3418 29.2144,-13.3071 29.8263,-13.3071 1.0707,0 1.3766,0.4588 2.1414,3.518 1.2236,4.7416 3.365,8.2596 7.4948,12.2364 1.9884,1.8355 3.365,3.518 3.2121,3.9768 -0.153,0.3059 -10.248,9.9421 -22.6374,21.4137 -14.2248,13.1541 -22.7903,20.8019 -23.5551,20.8019 -0.4589,0 -1.6825,-0.4588 -2.6002,-1.2235 v 0 z" />
      <path
         id="path1562"
         class="cls-3"
         d="m 80.9565,272.3129 c -5.8123,-6.2711 -9.4832,-15.6014 -10.248,-26.0024 -0.3059,-5.2005 0.7648,-12.5423 2.1414,-13.613 0.6118,-0.4588 61.1821,-7.8007 63.6294,-7.8007 0.6118,0 0.7648,0.7648 0.6118,4.5887 -0.153,5.6594 0.6118,8.8714 3.6709,13.9189 1.2236,1.9884 2.1414,3.8239 2.1414,4.1298 0,0.6119 -57.3582,27.226 -58.7348,27.226 -0.4588,0 -1.9884,-1.0706 -3.212,-2.4472 h -10e-5 z" />
      <path
         id="path1564"
         class="cls-3"
         d="m 71.4733,228.4148 c -3.0591,-7.8007 -3.8239,-22.3314 -1.5296,-30.591 1.3766,-5.0475 4.2827,-11.6246 5.2005,-11.6246 1.0707,0 62.5587,12.2364 62.7116,12.5423 0.153,0.1529 -0.3059,1.6825 -1.0707,3.518 -2.6002,6.4241 -3.0591,13.9189 -1.0707,18.5075 0.4589,1.0707 0.6118,1.9884 0.6118,2.1414 -0.153,0.1529 -62.2527,7.6478 -63.6294,7.6478 -0.1529,-0.1529 -0.7648,-1.0707 -1.2236,-2.1414 v 0 z" />
      <path
         id="path1566"
         class="cls-3"
         d="m 6.0085,236.9803 c -0.153,-0.4588 -0.9177,-4.5887 -1.6825,-9.0244 -2.6002,-14.8367 -2.4473,-27.9908 0.6118,-39.6154 1.3766,-5.0475 4.8946,-14.5307 5.6593,-14.9896 0.4589,-0.3059 20.1901,3.518 20.6489,3.9768 0.3059,0.1529 -0.3059,2.2943 -1.2236,4.5887 -5.9652,14.9896 -6.73,31.6617 -2.1414,49.4045 0.6118,2.2943 0.9177,4.1298 0.9177,4.1298 -0.3059,0.1529 -20.1901,2.4472 -21.2608,2.4472 -0.7648,0 -1.3766,-0.4588 -1.5296,-0.9176 z" />
      <path
         id="path1568"
         class="cls-3"
         d="m 20.8451,173.198 c -5.2005,-1.0707 -9.4832,-1.9884 -9.6362,-1.9884 -0.3059,-0.1529 1.9884,-14.5307 3.518,-21.4137 2.2943,-10.8598 6.2712,-20.9549 11.1657,-28.1438 2.9061,-4.4357 8.4125,-10.095 9.6362,-10.095 0.9177,0 15.7544,8.1066 16.978,9.1773 0.3059,0.3059 -0.9177,1.9884 -2.7532,4.1298 -11.4716,13.0012 -17.4369,28.4496 -17.4369,45.1218 0,4.7416 -0.153,5.2005 -0.9177,5.2005 -0.6118,0 -5.3534,-0.9178 -10.5539,-1.9885 z" />
      <path
         id="path1570"
         class="cls-3"
         d="m 44.5532,113.6984 c -4.8946,-2.7532 -7.4948,-4.4357 -7.4948,-5.0475 0,-1.6825 5.0475,-13.0012 8.2596,-18.3546 4.4357,-7.4948 8.7184,-13.0012 14.8366,-18.8135 5.8123,-5.6594 14.8366,-11.9305 16.6721,-11.7776 1.5296,0.1529 13.1542,12.8483 13.1542,14.3778 0,0.9177 -0.7648,1.5296 -4.4357,3.212 -15.4485,7.1889 -25.2376,18.8135 -29.9792,35.6385 -1.2236,4.2827 -1.5296,5.0475 -2.6002,5.0475 -0.6118,-0.1529 -4.4357,-1.9884 -8.4125,-4.2827 v 0 z" />
      <path
         id="path1572"
         class="cls-3"
         d="m 85.851,65.3646 c -4.4357,-4.8946 -5.9652,-7.0359 -5.9652,-7.9537 0,-1.0707 1.5296,-2.9062 6.5771,-7.9537 9.7891,-9.7892 16.0603,-14.3778 25.8494,-19.2723 4.7416,-2.4472 15.6014,-6.2711 19.2724,-6.883 l 1.6825,-0.3059 4.2827,9.4832 c 2.2943,5.2005 4.1298,9.4832 3.9768,9.6362 -0.153,0.1529 -2.2943,0.6119 -4.8946,1.0707 -17.2839,3.365 -30.8969,11.9305 -39.6154,25.0847 -1.9884,2.9062 -2.9061,3.9768 -3.8239,3.9768 -1.0707,-0.3059 -3.2121,-2.2943 -7.3419,-6.883 v 0 z" />
      <path
         id="path1574"
         class="cls-3"
         d="m 139.0794,31.4086 c -1.9884,-4.4357 -3.6709,-8.4125 -3.6709,-8.8714 0,-1.8355 12.6953,-8.5655 22.1785,-11.6246 10.7069,-3.518 21.8726,-4.8946 33.1913,-3.8239 3.8239,0.3059 7.1889,0.7648 7.6478,0.9177 0.4589,0.1529 0.9177,3.0591 1.5296,9.0244 0.4588,4.8946 0.7648,8.8714 0.7648,8.8714 -0.153,0.1529 -1.8355,-0.1529 -3.8239,-0.4588 -5.6594,-0.7648 -16.8251,-0.6119 -22.1785,0.3059 -9.6362,1.6825 -18.5076,5.5063 -26.0024,11.1657 -3.5689,2.6512 -6.781,0.8157 -9.6362,-5.5064 z" />
      <path
         id="path1576"
         class="cls-3"
         d="m 254.7135,25.9022 c -14.3778,-6.883 -30.2851,-7.8007 -45.5806,-2.7532 -2.6003,0.9177 -5.2005,1.6825 -5.6594,1.6825 -0.6118,0 -0.9177,-1.5296 -1.3766,-7.4948 -0.3059,-4.1298 -0.7648,-7.9537 -0.9177,-8.5655 -0.153,-0.9177 0.3059,-1.3766 3.0591,-2.2943 1.8355,-0.6119 5.6594,-1.8355 8.5655,-2.6003 C 217.6984,2.5 218.922,2.5 229.17,2.5 c 10.095,0 11.6246,0.1529 17.131,1.3766 4.7416,1.0707 17.131,5.3534 17.8958,5.9653 0.153,0.1529 -0.7648,4.1298 -1.8355,8.8714 -2.4473,10.095 -2.1414,9.7892 -7.6478,7.1889 z" />
      <path
         id="path1578"
         class="cls-3"
         d="m 311.154,45.7864 c -12.6953,-11.9305 -26.1553,-17.2839 -42.5215,-17.131 -5.9652,0 -6.4241,0 -6.4241,-0.9177 0,-0.6119 0.9177,-4.7416 1.8355,-9.1773 l 1.8355,-8.2596 3.2121,0.3059 c 25.3906,2.1414 39.4624,7.1889 52.1577,18.9665 1.8355,1.6825 3.365,3.518 3.518,3.9768 0.153,0.7648 -0.9177,3.212 -3.8239,8.1066 -4.7417,8.4125 -5.0476,8.5655 -9.7892,4.1298 z" />
      <path
         id="path1580"
         class="cls-3"
         d="M 357.6524,80.5072 C 347.5574,65.5176 337.4623,57.258 324.3082,52.9753 318.19,50.9869 318.19,50.8339 323.2375,42.2684 c 2.1414,-3.671 4.1298,-6.7301 4.2827,-6.883 0.7648,-0.4588 13.3071,3.9768 18.3546,6.4241 7.0359,3.518 12.0834,7.0359 17.2839,12.2364 5.2005,5.2005 8.5655,9.6362 12.0834,16.2132 l 2.4473,4.4357 -6.5771,5.8123 c -4.5887,4.1298 -7.0359,5.8123 -7.9537,5.8123 -1.2236,0.1529 -2.1414,-0.7648 -5.5063,-5.8123 v 0 z" />
      <path
         id="path1582"
         class="cls-3"
         d="m 395.2794,134.8063 c -1.9884,-13.766 -6.5771,-23.708 -15.2955,-32.7324 -2.4473,-2.6003 -6.73,-6.2711 -9.3303,-8.1066 -6.5771,-4.5887 -6.5771,-4.7416 1.2236,-11.4716 3.9768,-3.518 6.4241,-5.2005 7.3418,-5.2005 3.2121,0 19.1194,14.3778 24.4728,22.3314 5.6594,8.2596 10.095,20.1901 10.5539,27.8379 v 0 c 0.153,1.6825 -0.9177,3.365 -2.6003,3.9768 l -5.5064,2.2943 c -4.5887,1.9884 -8.7185,3.518 -9.3303,3.518 -0.9176,0.153 -1.2236,-0.4588 -1.5295,-2.4472 h 2e-4 z" />
      <path
         id="path1584"
         class="cls-3"
         d="m 413.3281,191.5526 c 1.0707,-6.4241 0.6118,-16.3662 -0.9177,-22.3314 -2.1414,-8.5655 -5.9652,-16.3662 -11.6246,-23.861 -1.6825,-2.2943 -2.9061,-4.2827 -2.7532,-4.8946 0.153,-0.7648 2.1414,-1.8355 8.4125,-4.5887 4.5887,-1.9884 8.5655,-3.365 9.0243,-3.212 1.2236,0.4588 7.0359,9.3302 10.095,14.9896 5.0475,9.7892 7.1889,17.131 8.1066,27.379 0.4588,5.6594 -0.153,18.3546 -0.9177,19.1194 -0.153,0.1529 -3.518,0.6119 -7.3418,0.9177 -3.8239,0.3059 -8.2596,0.7648 -9.7891,0.9177 l -2.7532,0.3059 0.4588,-4.7417 v 0 z" />
      <path
         id="path1586"
         class="cls-3"
         d="m 419.4463,259.3118 c -3.9768,-1.0707 -7.8007,-1.9884 -8.5655,-2.1414 -1.6825,-0.4588 -1.5296,-2.1414 0.6118,-7.4948 5.9652,-14.3778 7.0359,-28.9086 3.2121,-43.4393 -2.1414,-8.1066 -2.1414,-7.6478 -0.6118,-7.9537 0.7648,-0.1529 4.7416,-0.6119 8.8714,-0.9177 4.1298,-0.3059 8.1066,-0.7648 8.7185,-0.7648 1.0707,-0.1529 1.3766,0.3059 2.7532,4.2827 2.9061,8.1066 3.9768,14.6837 3.9768,23.861 0,5.5063 -0.3059,9.4832 -0.9177,12.3893 -2.1414,10.095 -7.9537,24.1669 -9.9421,24.014 -0.4588,2e-4 -4.1298,-0.9175 -8.1066,-1.8353 z" />
      <path
         id="path1588"
         class="cls-3"
         d="m 396.8089,318.5054 c -6.2712,-3.671 -8.2596,-5.2005 -8.2596,-5.9653 0,-0.6119 1.9884,-3.0591 4.5887,-5.8123 7.3418,-7.8007 11.7776,-15.2955 14.2248,-24.7788 1.2236,-4.4357 1.3766,-6.2711 1.3766,-13.9189 0,-7.4948 0.153,-8.7185 0.9177,-8.7185 1.3766,0 17.8958,4.1298 18.2017,4.5887 0.153,0.1529 0.4588,3.8239 0.6118,8.1066 0.4588,19.7313 -4.8946,35.1797 -16.8251,47.722 -2.9061,3.0591 -4.1298,3.9768 -5.2005,3.9768 -0.7648,-0.3058 -4.8946,-2.4472 -9.6362,-5.2004 h 2e-4 z" />
      <path
         id="path1590"
         class="cls-3"
         d="m 357.6524,369.5925 c -4.5887,-5.2005 -6.883,-8.4125 -6.883,-9.1773 0,-0.9177 0.6118,-1.5296 3.0591,-2.9062 14.8367,-7.4948 25.2376,-19.8842 30.4381,-36.0974 1.5296,-4.8946 1.8355,-5.5063 3.0591,-5.5063 0.6118,0 5.0475,2.2943 9.7891,5.2005 9.4832,5.6594 8.8714,4.8946 7.3418,10.5539 -2.9061,10.5539 -9.0243,20.8019 -17.7428,29.3674 -6.2712,6.2711 -19.5782,16.5191 -21.4137,16.5191 -0.4588,-0.1531 -3.9768,-3.6711 -7.6477,-7.9538 v 0 z" />
      <path
         id="path1592"
         class="cls-3"
         d="m 307.1772,411.1962 c -4.2827,-9.6362 -7.3418,-16.978 -7.3418,-17.8958 0,-0.7648 1.2236,-1.2236 7.0359,-2.7532 17.7428,-4.4357 30.744,-12.5423 37.474,-23.5551 3.2121,-5.2005 3.6709,-5.2005 10.8598,3.0591 3.2121,3.671 6.4241,7.1889 7.1889,7.9537 l 1.2236,1.3766 -2.6003,3.518 c -3.8239,5.0475 -11.6246,12.6953 -17.2839,16.6721 -8.2596,5.9653 -24.9317,13.1541 -33.3442,14.5307 l -1.9884,0.3059 -1.2237,-3.2121 h 1e-4 z" />
      <path
         id="path1594"
         class="cls-3"
         d="m 247.8305,430.9275 c -2.6003,-0.1529 -4.8946,-0.4588 -5.0475,-0.6119 -0.153,-0.1529 -2.4473,-19.8842 -2.4473,-21.5666 0,-0.1529 1.9884,-0.1529 4.4357,0.1529 5.8123,0.6119 17.2839,0.1529 22.9433,-0.9177 4.8946,-0.9177 12.3894,-3.518 16.3662,-5.5063 1.3766,-0.7648 4.4357,-2.6003 6.883,-4.2827 2.4473,-1.6824 4.8946,-2.9062 5.6594,-2.9062 1.0707,0 1.6825,1.0707 5.5064,9.7892 2.2943,5.3534 4.2827,9.9421 4.2827,10.095 0,0.1529 -1.5296,1.3766 -3.365,2.7532 -13.3071,10.248 -33.0383,14.8367 -55.2168,13.0012 h -2e-4 z" />
      <path
         id="path1596"
         class="cls-3"
         d="m 203.3206,435.822 c -6.5771,-0.7648 -14.5307,-2.6003 -20.9549,-4.8946 -3.2121,-1.0707 -6.1182,-2.2943 -6.2712,-2.4472 -0.153,-0.3059 0.6118,-5.2005 1.8355,-11.0128 2.1414,-9.7892 2.2943,-10.5539 3.518,-10.7069 0.6118,-0.1529 3.518,0.6119 6.4241,1.6825 10.8598,3.8239 14.3778,4.4357 26.3083,4.4357 10.248,0 11.1657,-0.1529 16.2133,-1.5296 2.9061,-0.9177 5.9652,-1.5296 6.73,-1.5296 h 1.3766 l 0.9177,8.8714 c 1.3766,13.766 1.8355,12.0835 -4.2827,14.0719 -2.9061,0.9177 -7.3418,1.9884 -9.7891,2.4472 -5.6594,0.9178 -16.3663,1.2236 -22.0256,0.6119 v 0 z" />
      <path
         id="path1598"
         class="cls-3"
         d="m 159.5755,427.4095 c -13.766,-1.8355 -26.6142,-6.4241 -35.6386,-13.0012 -5.2005,-3.8239 -10.5539,-8.7185 -11.0128,-10.095 -0.153,-0.9177 1.2236,-3.671 4.7416,-10.095 4.1298,-7.1889 5.3534,-8.8714 6.4241,-9.0244 0.9177,-0.1529 2.4473,0.9177 5.3534,3.212 9.6362,7.8007 18.5076,12.6953 27.379,15.4484 3.9768,1.2236 6.1182,1.5296 13.1542,1.6825 8.1066,0.3059 8.2596,0.3059 8.1066,1.3766 -0.153,0.6119 -1.2236,5.6594 -2.2943,11.0128 l -2.1414,9.9421 -6.2712,-0.1529 c -3.365,-0.153 -6.883,-0.153 -7.8007,-0.3059 v 0 z" />
      <path
         id="path1600"
         class="cls-3"
         d="M 104.3586,400.9483 C 87.0747,394.8301 73.3087,383.5114 63.9784,367.757 c -1.5296,-2.4472 -2.6002,-5.0475 -2.6002,-5.6594 0,-1.5296 13.9189,-14.3778 15.6014,-14.3778 0.7648,0 1.5296,0.7648 2.4473,3.0591 2.2943,4.8946 7.1889,11.9305 11.3187,15.9074 6.73,6.7301 16.6721,12.2364 26.7672,14.8367 2.9061,0.7648 3.9768,1.2236 3.8239,1.8355 -0.153,0.4588 -2.4473,4.8946 -5.3534,9.9421 -5.8123,10.2479 -5.2005,9.9421 -11.6246,7.6478 v -2e-4 z" />
      <path
         id="path1602"
         class="cls-3"
         d="M 50.9773,352.1556 C 35.9877,337.4719 28.6458,326.6121 24.9749,314.0697 c -0.7648,-2.4472 -1.3766,-5.3534 -1.5296,-6.4241 l -0.153,-1.8355 9.4832,-4.4357 c 5.2005,-2.4472 9.9421,-4.4357 10.5539,-4.4357 1.0707,0 1.2236,0.3059 1.5296,2.7532 1.0707,7.3418 4.5887,16.5191 9.1773,23.708 3.0591,4.5887 13.1542,14.9896 17.7428,18.0487 2.1414,1.5296 3.0591,2.4472 3.0591,3.365 0,1.6825 -13.766,14.3778 -15.6014,14.3778 -0.9177,-0.1528 -3.0591,-1.9883 -8.2596,-7.0358 v 0 z" />
      <path
         id="path1604"
         class="cls-3"
         d="M 18.7037,297.5505 C 8.1498,279.043 3.7141,261.1472 5.5495,245.5457 c 0.3059,-2.7532 0.6118,-5.2005 0.7648,-5.2005 0,0 4.4357,-0.6119 9.7891,-1.2236 5.3534,-0.6119 10.401,-1.2236 11.3187,-1.3766 1.0197,-0.2039 1.4276,0.3569 1.2236,1.6825 -0.9177,4.7416 -1.2236,14.2248 -0.7648,19.5782 1.2236,12.8483 5.3534,23.0962 13.3071,32.2735 l 2.4473,2.9062 -2.9061,1.2236 c -1.5296,0.7648 -5.9652,2.7532 -9.9421,4.5887 -3.9769,1.8355 -7.3419,3.365 -7.9537,3.365 -0.4589,0 -1.8355,-1.9883 -4.1298,-5.8122 v 0 z" />
      <path
         id="path1606"
         class="cls-2"
         d="m 41.3411,288.3732 c -4.2827,-5.3534 -8.4125,-13.46 -10.095,-20.343 -1.2236,-4.4357 -1.3766,-6.7301 -1.5296,-13.3071 -0.153,-8.1066 0.4589,-15.4484 1.2236,-16.6721 0.3059,-0.4588 6.1182,-1.3766 19.8842,-3.0591 10.7069,-1.2236 19.4253,-2.2943 19.4253,-2.1414 0,0 -0.3059,1.3766 -0.7648,2.7532 -0.6118,1.6825 -0.7648,4.7416 -0.7648,8.5655 0,10.7069 3.9768,22.0256 10.095,28.7556 l 3.0591,3.365 -2.9061,1.2236 c -1.5296,0.7648 -9.4832,4.2827 -17.4369,8.1066 -7.9537,3.8239 -15.1426,6.883 -15.7544,6.883 -0.6118,2e-4 -1.9884,-1.2234 -4.4357,-4.1296 v 0 -2e-4 z" />
      <path
         id="path1608"
         class="cls-2"
         d="m 30.6342,233.9212 c -0.3059,-0.7648 -1.2236,-4.5887 -1.9884,-8.2596 -2.4473,-12.3893 -2.2943,-24.3199 0.6118,-35.1797 1.5296,-5.6594 4.4357,-12.5423 5.3534,-12.5423 0.6118,0 34.109,6.5771 36.8622,7.3418 0.8157,0.2039 0.6118,1.6315 -0.6118,4.2827 -3.0591,6.7301 -4.2827,12.3893 -4.1298,21.1078 0,7.4948 0.4589,9.7892 3.2121,18.9665 0.3059,1.0707 -0.3059,1.2236 -17.131,3.212 -9.6362,1.0707 -18.3546,2.1414 -19.4253,2.2943 -2.1414,0.153 -2.2944,0.153 -2.7532,-1.2235 z" />
      <path
         id="path1610"
         class="cls-2"
         d="m 53.2716,179.4691 c -9.9421,-1.9884 -18.3546,-3.671 -18.5076,-3.671 -0.7648,0 -0.4589,-12.6953 0.4589,-17.4369 1.3766,-8.2596 4.5887,-16.0603 9.7891,-23.861 4.2827,-6.7301 8.7184,-11.6246 10.401,-11.6246 0.9177,0 31.8147,16.6721 33.6501,18.2017 0.153,0.1529 -0.9177,1.3766 -2.2943,2.7532 -7.6478,7.9537 -13.4601,22.3314 -13.613,34.109 0,4.5887 -0.3059,5.5063 -0.9177,5.5063 -0.4589,-0.1529 -9.0243,-1.8354 -18.9664,-3.9768 h -1e-4 z" />
      <path
         id="path1612"
         class="cls-2"
         d="m 72.544,129.4529 c -8.5655,-4.8946 -15.9073,-9.1773 -16.2133,-9.3302 -0.6118,-0.6119 1.3766,-8.2596 3.518,-13.766 3.518,-8.8714 10.401,-17.4369 18.6605,-22.9433 4.7416,-3.212 12.0834,-6.5771 13.9189,-6.5771 1.3766,0 25.6965,26.1553 25.6965,27.6848 0,0.6119 -1.3766,1.6825 -3.6709,2.9062 -10.5539,5.8123 -18.8135,15.4484 -22.1785,26.3083 -1.3766,4.4357 -1.6825,4.7416 -2.9061,4.7416 -0.6118,-0.153 -8.2596,-4.1299 -16.8251,-9.0244 v 0 z" />
      <path
         id="path1614"
         class="cls-2"
         d="m 107.5707,88.9198 c -6.73,-7.1889 -11.7775,-13.3071 -11.9305,-13.9189 -0.3059,-1.8355 4.8946,-9.1773 10.095,-14.3778 5.0475,-5.0475 10.7069,-8.8714 17.2839,-11.6246 4.4357,-1.8355 13.9189,-4.4357 17.5898,-4.7416 l 2.1414,-0.1529 7.4948,16.6721 c 4.1298,9.1773 7.6478,17.131 7.8007,17.5898 0.3059,0.7648 -0.3059,0.9177 -2.7532,1.2236 -11.9305,1.5296 -26.1553,10.5539 -31.9676,20.343 -0.6118,1.0707 -1.3766,1.5296 -2.4473,1.5296 -1.3766,0.1528 -3.518,-1.8356 -13.3071,-12.5424 v 0 z" />
      <path
         id="path1616"
         class="cls-2"
         d="m 159.2695,76.3774 c -2.4473,-4.5887 -14.0719,-31.6617 -14.0719,-32.7324 0,-3.0591 11.6246,-10.8598 20.9549,-13.9189 6.883,-2.2943 11.4716,-2.9062 19.8842,-2.9062 7.1889,0 13.9189,0.6119 14.8367,1.5296 0.3059,0.3059 4.1298,38.6976 3.8239,38.8506 -0.153,0.1529 -2.1414,-0.1529 -4.5887,-0.6119 -2.9061,-0.4588 -6.2712,-0.7648 -9.9421,-0.4588 -9.7891,0.4588 -17.7428,3.212 -24.4728,8.4125 -3.9768,2.9062 -5.5064,3.365 -6.4241,1.8355 z" />
      <path
         id="path1618"
         class="cls-2"
         d="m 244.7714,65.9765 c -7.9537,-3.518 -22.1785,-4.2827 -30.591,-1.5296 -6.1182,1.8355 -7.1889,1.9884 -7.4948,0.4588 -0.7648,-3.365 -3.518,-36.8622 -3.2121,-37.3211 0.9177,-0.9177 10.095,-3.8239 14.6837,-4.5887 8.7185,-1.6825 19.7312,-1.0707 27.9908,1.6825 4.1298,1.3766 13.1542,5.8123 13.1542,6.4241 0,0.6118 -7.3418,33.9561 -7.9537,35.6385 -0.3059,1.2237 -2.4472,1.0707 -6.5771,-0.7647 v 0 z" />
      <path
         id="path1620"
         class="cls-2"
         d="m 291.2699,81.272 c -5.2005,-5.3534 -14.3778,-10.095 -22.9433,-11.9305 -2.6003,-0.6119 -5.5064,-0.7648 -9.3303,-0.4588 -5.0475,0.3059 -5.5064,0.1529 -5.5064,-0.6119 0,-1.2236 7.9537,-36.8622 8.2596,-37.1681 0.6118,-0.6119 15.6014,-0.1529 19.5782,0.6119 10.5539,2.1414 19.7312,7.3418 29.6733,16.6721 l 4.1298,3.9768 -9.3303,15.7544 C 294.9407,86.0136 295.3996,85.7077 291.2698,81.272 v 0 z" />
      <path
         id="path1622"
         class="cls-2"
         d="m 330.2734,112.1689 c -1.0707,-2.4472 -4.1298,-6.883 -7.0359,-10.095 -5.8123,-6.5771 -12.5423,-11.1657 -20.1901,-13.9189 -3.365,-1.0707 -4.4357,-1.8355 -4.5887,-2.6003 -0.153,-0.7648 16.6721,-30.2851 18.3546,-32.1206 0.6118,-0.6119 8.1066,1.5296 12.6953,3.671 10.5539,4.8946 19.5782,13.613 28.6026,27.5319 2.6003,3.9768 3.0591,4.8946 2.2943,5.5063 -0.4588,0.4588 -6.5771,5.8123 -13.766,12.0835 -13.766,12.0834 -15.1426,12.8482 -16.3662,9.942 v 0 z" />
      <path
         id="path1624"
         class="cls-2"
         d="m 357.0406,153.4668 c -0.153,-0.4588 -0.4588,-2.2943 -0.9177,-4.2827 -1.9884,-10.5539 -9.0243,-22.1785 -17.7428,-28.9086 -2.7532,-2.1414 -3.365,-2.9062 -3.2121,-3.9768 0.153,-1.9884 25.3906,-24.3199 27.5319,-24.3199 3.2121,0 15.1426,9.6362 20.343,16.3662 5.3534,7.0359 9.6362,18.2017 10.248,26.9201 l 0.3059,3.9768 -17.131,7.1889 c -9.3303,3.9768 -17.5898,7.3418 -18.2017,7.4948 -0.6119,0.153 -1.2236,0 -1.2236,-0.4588 z" />
      <path
         id="path1626"
         class="cls-2"
         d="m 369.8888,198.1297 c 2.4473,-13.3071 -0.6118,-27.8379 -7.9537,-37.3211 -3.6709,-4.7416 -4.1298,-4.2827 14.9896,-12.3893 9.1773,-3.9768 16.978,-7.1889 17.2839,-7.1889 0.7648,0 7.1889,8.5655 9.9421,13.1541 6.4241,11.0128 9.0243,24.6257 7.0359,37.7799 -0.4588,3.518 -0.7648,4.1298 -1.6825,4.2827 -1.2236,0.3059 -37.7799,3.518 -39.1565,3.518 -0.6118,0.153 -0.7647,-0.3058 -0.4588,-1.8354 z" />
      <path
         id="path1628"
         class="cls-2"
         d="m 386.255,251.3581 -18.3546,-4.4357 0.3059,-1.3766 c 0.153,-0.7648 0.9177,-2.9062 1.6825,-4.8946 0.7648,-1.9884 1.9884,-5.8123 2.6003,-8.7185 1.3766,-6.5771 1.0707,-16.978 -0.6118,-23.5551 -1.3766,-5.5063 -1.3766,-6.1182 0.153,-6.5771 3.2121,-0.6119 38.0858,-3.365 38.3918,-3.0591 0.9177,0.9177 3.518,11.1657 4.1298,16.5191 1.5296,11.9305 -0.9177,25.6964 -6.2712,36.7092 -1.2236,2.4472 -2.1414,3.671 -2.7532,3.671 -0.6119,0.1531 -9.3304,-1.9883 -19.2725,-4.2826 z" />
      <path
         id="path1630"
         class="cls-2"
         d="m 367.9003,301.2215 c -18.0487,-10.7069 -17.2839,-9.9421 -12.5423,-15.2955 6.73,-7.3418 11.6246,-20.8019 11.6246,-31.5087 v -5.6594 l 1.5296,0.3059 c 0.7648,0.1529 9.6362,2.2943 19.5782,4.7416 9.9421,2.4472 18.2017,4.4357 18.3546,4.5887 0.1529,0.153 0.3059,4.5887 0.153,9.7892 0,8.7185 -0.153,9.9421 -1.5296,14.3778 -2.7532,9.0244 -7.0359,16.2132 -14.0719,23.4021 -3.518,3.671 -4.7416,4.5887 -5.9652,4.5887 -1.2236,-0.153 -6.2711,-2.9062 -17.1309,-9.3303 h -10e-5 z" />
      <path
         id="path1632"
         class="cls-2"
         d="m 334.7091,343.2842 c -13.9189,-15.9074 -14.2248,-16.3662 -10.4009,-18.3546 8.2596,-4.2827 17.5898,-13.766 22.0255,-22.6373 0.9177,-1.9884 1.9884,-4.4357 2.4473,-5.6594 1.0707,-3.8239 1.6825,-3.671 19.4253,7.0359 l 15.9073,9.6362 -0.3059,1.9884 c -0.6118,3.365 -3.365,11.1657 -5.0475,14.6837 -5.3534,10.4009 -14.0719,19.4253 -24.7788,25.2376 -2.2943,1.2236 -4.7416,2.1414 -5.5064,2.1414 -1.2237,0.153 -3.518,-2.1413 -13.766,-14.0718 h 10e-5 z" />
      <path
         id="path1634"
         class="cls-2"
         d="m 297.9999,389.9355 c -1.2236,-2.1414 -14.9896,-34.4149 -14.9896,-35.4856 0,-1.0707 0.3059,-1.3766 1.9884,-1.6825 4.1298,-0.7648 10.8598,-3.212 14.9896,-5.3534 5.2005,-2.6003 11.4716,-8.4125 15.1426,-13.9189 1.8355,-2.6003 2.9061,-3.671 3.6709,-3.671 0.7648,0 4.5887,3.9768 13.766,14.3778 6.883,7.9537 12.6953,14.8367 12.8482,15.4484 0.4588,1.5296 -3.8239,8.1066 -7.8007,12.5423 -7.6478,8.1066 -17.8958,13.46 -32.8854,16.978 -5.9652,1.3765 -6.2711,1.3765 -6.73,0.7648 v 0 z" />
      <path
         id="path1636"
         class="cls-2"
         d="m 242.4771,406.7606 -2.4473,-0.3059 -1.9884,-20.0371 c -1.0707,-11.0128 -1.9884,-20.0371 -1.8355,-20.1901 0.153,-0.1529 1.5296,0.1529 3.365,0.4588 11.0128,1.9884 25.6964,-1.5296 35.9445,-8.7185 1.8355,-1.3766 3.518,-2.1414 4.2827,-1.9884 1.0707,0.1529 2.2943,2.9062 8.8714,17.7428 5.9652,13.613 7.4948,17.7428 7.0359,18.3546 -1.0707,1.6825 -7.9537,6.5771 -12.8482,8.8714 -4.5887,2.2943 -9.0243,3.8239 -15.1426,5.2005 -3.0591,0.6119 -21.5666,1.0707 -25.2376,0.6119 z" />
      <path
         id="path1638"
         class="cls-2"
         d="m 206.0738,410.8904 c -5.6594,-0.7648 -14.5307,-3.0591 -20.0371,-5.2005 -2.7532,-1.0707 -4.8946,-1.9884 -5.0475,-1.9884 -0.153,-0.1529 1.6825,-8.8714 3.9768,-19.4253 2.2943,-10.5539 4.1298,-19.4253 4.1298,-19.5782 0,-0.6119 1.9884,-0.1529 6.4241,1.5296 7.1889,2.9062 12.5423,3.671 20.8019,3.365 5.5064,-0.1529 8.1066,-0.6119 11.7776,-1.6825 2.6003,-0.7648 5.0475,-1.3766 5.3534,-1.3766 0.4588,0 1.2236,4.8946 2.4473,18.5075 1.0707,10.248 1.8355,19.2723 1.8355,20.0371 0,1.3766 -0.153,1.6825 -2.9061,2.6003 -8.1067,3.0591 -20.6491,4.4357 -28.7557,3.2121 v 0 -2e-4 z" />
      <path
         id="path1640"
         class="cls-2"
         d="m 166.6114,403.7015 c -7.6478,-1.0707 -12.3894,-2.4472 -19.2724,-5.9653 -8.5655,-4.2827 -21.5667,-14.0719 -21.5667,-16.2132 0,-0.6119 3.9768,-8.2596 9.0243,-16.978 10.248,-18.0487 9.6362,-17.4369 14.6837,-13.3071 1.6825,1.3766 4.4357,3.212 6.2712,4.2827 6.883,3.8239 20.1901,7.3418 28.2967,7.3418 h 3.365 l -0.3059,1.5296 c -0.153,0.7648 -2.1414,9.7892 -4.2827,20.0371 -2.1414,10.248 -4.1298,18.6605 -4.1298,18.8135 -0.3059,0.153 -10.248,0.6119 -12.0834,0.4589 z" />
      <path
         id="path1644"
         class="cls-2"
         d="m 117.8187,379.5346 c -11.0128,-2.9062 -19.4253,-7.8007 -26.6142,-15.2955 -5.5064,-5.8123 -11.4716,-15.6014 -11.4716,-18.8135 0,-1.0707 3.2121,-4.2827 14.0719,-14.3778 15.1426,-14.0719 15.9073,-14.5307 17.131,-11.3187 1.0707,2.9062 4.8946,8.4125 8.5655,12.0835 4.4357,4.4357 11.9305,9.3302 18.5076,11.9305 2.7532,1.0707 5.0475,2.1414 4.8946,2.2943 -0.1529,0.1529 -4.5887,8.1066 -9.9421,17.4369 -6.1182,10.7069 -10.095,17.131 -10.5539,17.131 -0.3059,0 -2.4473,-0.4589 -4.5887,-1.0707 v 0 z" />
      <path
         id="path1646"
         class="cls-2"
         d="m 72.391,339.3073 c -14.5307,-11.1657 -22.7903,-23.861 -25.2376,-39.3095 -0.4589,-2.4472 -0.6118,-4.5887 -0.3059,-4.8946 0.6118,-0.7648 34.109,-16.0603 35.0267,-16.0603 0.4589,0 0.9177,0.3059 1.0707,0.6119 3.8239,14.0719 11.3187,25.2376 21.8726,32.2735 1.6825,1.0707 2.9061,2.2943 2.9061,2.9062 0,1.5296 -27.8378,27.226 -29.6733,27.379 -1.3766,0 -2.9062,-0.7648 -5.6593,-2.9062 z" />
      <path
         id="path1648"
         class="cls-2"
         d="m 174.718,283.6317 c -5.5064,-1.8355 -10.095,-4.8946 -12.6953,-8.8714 -3.0591,-4.5887 -3.9768,-3.518 17.8957,-23.708 15.4485,-14.2248 19.8842,-18.2017 20.9549,-18.0487 0.7648,0 2.1414,0.6119 3.2121,1.5296 l 1.8355,1.5296 -13.766,24.014 c -7.4948,13.1541 -14.0719,24.1669 -14.5307,24.1669 -0.4589,0.1529 -1.8355,-0.153 -2.9062,-0.6119 v 0 z" />
      <path
         id="path1650"
         class="cls-2"
         d="m 152.9984,263.7475 c -4.1298,-4.1298 -5.9652,-7.9537 -6.5771,-12.8483 l -0.3059,-2.4472 24.3199,-11.1657 c 13.3071,-6.1182 24.6258,-11.1657 25.0847,-11.1657 0.9177,0 3.365,3.518 3.0591,4.5887 -0.153,0.3059 -9.0243,8.8714 -19.7312,18.8135 -13.4601,12.5423 -20.0371,18.2017 -20.8019,18.2017 -0.7648,0 -2.6003,-1.3766 -5.0475,-3.9769 h -1e-4 z" />
      <path
         id="path1652"
         class="cls-2"
         d="m 143.2092,243.4045 c -3.0591,-4.4357 -4.1298,-7.8007 -4.1298,-13.46 0,-2.7532 0.153,-5.2005 0.3059,-5.2005 0.153,-0.1529 11.7775,-1.5296 25.8494,-3.212 14.0719,-1.6825 26.1553,-3.0591 26.7672,-3.212 0.9177,-0.1529 1.2236,0.1529 1.9884,2.6003 0.4588,1.5296 0.7648,2.9062 0.7648,3.0591 -0.7648,0.7648 -47.875,22.3314 -48.7927,22.3314 -0.6118,-0.306 -1.6825,-1.2237 -2.7532,-2.9062 v 0 z" />
      <path
         id="path1654"
         class="cls-2"
         d="m 137.8558,220.3082 c -1.3766,-3.212 -1.3766,-11.3187 0.3059,-15.9074 2.1414,-6.1182 -0.9177,-6.1182 27.379,-0.4588 13.613,2.7532 25.3905,5.0475 26.0024,5.2005 1.0707,0.3059 1.2236,0.6119 1.2236,3.671 v 3.518 l -2.9061,0.3059 c -1.5296,0.1529 -11.9305,1.3766 -23.0962,2.7532 -11.1657,1.3766 -22.0255,2.6003 -24.1669,2.7532 l -3.9768,0.3059 -0.7648,-2.1414 v 0 z" />
      <path
         id="path1656"
         class="cls-2"
         d="m 165.9996,201.9536 c -13.613,-2.7532 -24.9317,-5.0475 -25.0846,-5.0475 -0.4589,-0.1529 0,-5.3534 0.6118,-8.8714 1.0707,-5.9653 4.8946,-12.8483 7.0359,-12.8483 0.7648,0 40.3802,22.0256 45.5806,25.2376 l 1.2236,0.7648 -1.0707,3.0591 c -0.9177,2.4472 -1.3766,3.0591 -2.2943,2.9062 -0.6118,-0.153 -12.2364,-2.4473 -26.0024,-5.2005 v 0 z" />
      <path
         id="path1658"
         class="cls-2"
         d="m 172.4237,185.8933 c -19.5783,-11.0128 -22.3315,-12.6953 -22.3315,-13.766 0,-2.2943 3.6709,-9.3302 6.5771,-12.0835 2.7532,-2.7532 6.4241,-4.7416 8.2596,-4.7416 0.9177,0 16.2132,16.3662 33.0383,35.0268 l 2.7532,3.212 -1.9884,2.4472 c -1.2236,1.5296 -2.4473,2.4472 -3.0591,2.4472 -0.4588,0 -11.0127,-5.6593 -23.2492,-12.5422 v 0 z" />
      <path
         id="path1660"
         class="cls-2"
         d="m 186.0367,174.4216 c -19.5783,-21.2608 -18.8135,-20.496 -18.3546,-22.1785 0.153,-0.7648 1.8355,-2.9062 3.6709,-4.7416 3.6709,-3.671 7.0359,-5.3534 12.0834,-5.9653 l 2.6003,-0.3059 10.7069,23.861 c 5.8123,13.1541 10.5539,24.014 10.5539,24.014 -1.3766,0.9177 -4.2827,2.4472 -4.8946,2.4472 -0.3059,-0.1528 -7.8007,-7.8006 -16.3662,-17.1309 z" />
      <path
         id="path1662"
         class="cls-2"
         d="m 198.8849,164.4796 c -5.6594,-12.6953 -10.4009,-23.708 -10.4009,-24.3199 0,-1.3766 3.365,-3.8239 6.883,-5.2005 2.9061,-1.2236 8.4125,-1.8355 12.5423,-1.5296 l 3.365,0.3059 0.3059,2.2943 c 0.3059,1.6825 3.8239,38.2388 4.7416,48.6397 0.153,1.5296 0,1.6825 -2.9061,2.2943 -1.6825,0.3059 -3.2121,0.7648 -3.518,0.7648 -0.4589,-0.1528 -5.3535,-10.5539 -11.0129,-23.2491 v 0 z" />
      <path
         id="path1664"
         class="cls-2"
         d="m 220.4516,186.1992 c -1.5296,-0.1529 -2.2943,-0.4588 -2.2943,-0.9177 0,-0.4589 -1.0707,-12.0835 -2.4473,-25.8495 -1.3766,-13.766 -2.2943,-25.3905 -2.1414,-25.6964 0.4588,-1.0707 8.2596,-2.6003 11.6246,-2.1414 2.7532,0.3059 9.7891,2.4472 10.7069,3.212 0.3059,0.3059 -9.7891,46.4984 -11.0128,50.7811 -0.153,0.4588 -0.6118,0.9177 -1.2236,0.9177 -0.4588,-0.1529 -1.8355,-0.1529 -3.2121,-0.3058 z" />
      <path
         id="path1666"
         class="cls-2"
         d="m 229.4759,188.0347 c -1.3766,-0.6119 -2.6003,-1.3766 -2.6003,-1.6825 0,-1.2236 11.1657,-50.6281 11.6246,-51.0871 0.7648,-0.7648 8.2596,-0.1529 11.6246,0.9177 3.6709,1.2236 8.5655,4.5887 9.7891,6.7301 0.7648,1.3766 0.3059,2.2943 -12.3894,23.708 -9.7891,16.6721 -13.46,22.3314 -14.2248,22.4844 -0.7648,0 -2.4472,-0.4589 -3.8239,-1.0707 v 0 z" />
      <path
         id="path1668"
         class="cls-2"
         d="m 237.5826,193.0822 c -0.7648,-0.7648 -1.5296,-1.9884 -1.5296,-2.4472 0,-0.6119 5.8123,-11.0128 13.0012,-23.0962 14.5307,-24.6257 13.1542,-22.9433 18.5076,-20.9549 4.1298,1.5296 8.2596,5.5063 10.7069,10.248 l 1.9884,3.8239 -19.2724,17.1309 c -14.6837,12.8483 -19.7312,17.131 -20.8019,17.131 -0.6118,-0.3059 -1.8354,-0.9178 -2.6002,-1.8355 z" />
      <path
         id="path1670"
         class="cls-2"
         d="m 243.089,200.1181 c -0.3059,-0.9177 -0.6118,-1.9884 -0.4588,-2.6003 0.3059,-1.6825 37.9329,-34.7208 39.6154,-34.7208 1.9884,0 7.0359,4.8946 8.7185,8.2596 1.3766,2.7532 3.365,9.9421 2.9061,10.248 -0.7648,0.7648 -48.0279,20.343 -48.9457,20.343 -0.7648,0 -1.3766,-0.4588 -1.8355,-1.5296 v 0 z" />
      <path
         id="path1672"
         class="cls-2"
         d="m 246.1481,210.2132 c -0.153,-0.6119 -0.4588,-2.2943 -0.6118,-3.671 L 245.2304,204.095 269.2444,194 c 13.1542,-5.5063 24.4728,-10.095 25.2376,-10.095 1.5296,0 4.5887,4.1298 6.1182,8.1066 1.2236,3.0591 1.6825,8.8714 0.9177,12.5423 l -0.4588,1.9884 -25.8494,2.2943 c -14.2248,1.2236 -26.4612,2.4472 -27.226,2.6003 -1.2237,0 -1.5296,-0.153 -1.8355,-1.2237 z" />
      <path
         id="path1674"
         class="cls-2"
         d="m 271.9975,223.9791 c -14.2248,-3.365 -26.0024,-6.2711 -26.1553,-6.4241 -0.153,0 0,-1.0707 0.153,-2.2943 l 0.3059,-2.1414 26.0024,-2.2943 c 14.3778,-1.2236 26.6142,-2.4472 27.5319,-2.6003 1.3766,-0.3059 1.5296,0 2.6003,3.0591 1.8355,5.3534 1.3766,12.2364 -1.2236,17.131 -0.6118,1.2236 -1.2236,1.6825 -2.1414,1.6825 -0.6119,0.153 -12.8483,-2.6002 -27.0731,-6.1181 h -10e-5 z" />
      <path
         id="path1676"
         class="cls-2"
         d="m 266.9499,240.8042 c -25.5435,-15.2955 -24.3199,-14.2248 -22.4844,-18.5075 0.6118,-1.3766 1.2236,-2.1414 1.8355,-2.1414 0.6119,0 12.6953,2.7532 27.0731,6.2711 14.2248,3.365 26.1553,6.2711 26.3083,6.2711 0.4588,0 0.3059,6.2711 -0.3059,9.4832 -0.3059,1.6825 -1.2236,4.4357 -1.9884,5.9653 -1.5296,3.0591 -4.8946,6.7301 -6.1182,6.7301 -0.4589,-0.153 -11.3187,-6.4241 -24.3199,-14.0719 v 0 z" />
      <path
         id="path1678"
         class="cls-2"
         d="m 256.396,254.1113 c -13.46,-15.4484 -17.5898,-20.496 -17.5898,-21.5666 0,-1.5296 1.9884,-3.8239 3.518,-3.8239 0.4588,0 11.4716,6.4241 24.4728,14.0719 26.6142,15.9074 24.3199,13.9189 21.4137,19.8842 -2.4473,4.8946 -9.7891,11.3187 -13.0012,11.3187 -0.9177,0.1528 -6.5771,-5.9654 -18.8135,-19.8843 z" />
      <path
         id="path1680"
         class="cls-2"
         d="m 251.8074,283.7846 c -14.8367,-33.8031 -19.5782,-45.2747 -19.5782,-46.1925 0,-1.3766 2.1414,-3.0591 3.6709,-2.7532 0.6118,0.1529 9.1773,9.4832 19.2724,20.9549 l 18.2017,20.8019 -1.5296,2.2943 c -3.365,4.8946 -9.7891,9.0244 -15.2955,9.7892 l -2.4473,0.3059 -2.2943,-5.2005 z" />
      <path
         id="path1682"
         class="cls-2"
         d="m 229.323,295.8681 c -0.3059,-0.4588 -5.8123,-53.2284 -5.8123,-55.6757 0,-0.7648 0.6118,-1.2236 3.0591,-1.6825 1.6825,-0.3059 3.0591,-0.6119 3.2121,-0.4588 0,0.1529 5.0475,11.6246 11.1657,25.5435 6.1182,13.9189 11.0128,25.5435 11.1657,25.8495 0.3059,0.6119 -5.2005,4.1298 -8.5655,5.3534 -3.2121,1.2235 -13.613,2.1413 -14.2248,1.0706 z" />
      <path
         id="path1684"
         class="cls-2"
         d="m 210.9684,297.5505 c -5.2005,-1.3766 -6.73,-2.1414 -6.73,-2.9062 0,-0.3059 2.6003,-12.8483 5.8123,-27.8379 l 5.8123,-27.226 h 5.5063 l 0.3059,2.6003 c 0.6118,5.2005 5.2005,51.3929 5.2005,52.9224 0,1.3766 -0.3059,1.6825 -1.9884,2.2943 -3.8239,1.2237 -9.7891,1.2237 -13.9189,0.153 v 0 z" />
      <path
         id="path1686"
         class="cls-2"
         d="m 192.9197,293.8797 c -5.2005,-1.2236 -12.5423,-6.1182 -12.6953,-8.1066 0,-0.9177 25.6964,-46.8042 27.0731,-48.028 0.3059,-0.3059 1.6825,-0.1529 3.365,0.3059 2.2943,0.6119 2.9061,1.0707 2.7532,1.8355 -0.153,0.9177 -9.7891,47.1102 -11.0128,52.3107 l -0.6118,2.6003 h -3.0591 c -1.5296,-0.153 -4.2828,-0.4589 -5.8123,-0.9178 z" />
      <ellipse
         id="path297"
         class="cls-1"
         cx="220.2986"
         cy="212.6604"
         rx="26.1553"
         ry="26.002399" />
    </g>
  </g>
</svg>
