<?xml version="1.0" encoding="UTF-8" standalone="no"?>
<!-- Created with Inkscape (http://www.inkscape.org/) -->

<svg
   width="270.70499"
   height="171.77901"
   viewBox="0 0 71.624028 45.449862"
   version="1.1"
   id="svg5"
   sodipodi:docname="emote_wheel_highlight.svg"
   inkscape:version="1.1.2 (0a00cf5339, 2022-02-04)"
   xmlns:inkscape="http://www.inkscape.org/namespaces/inkscape"
   xmlns:sodipodi="http://sodipodi.sourceforge.net/DTD/sodipodi-0.dtd"
   xmlns="http://www.w3.org/2000/svg"
   xmlns:svg="http://www.w3.org/2000/svg">
  <sodipodi:namedview
     id="namedview7"
     pagecolor="#505050"
     bordercolor="#ffffff"
     borderopacity="1"
     inkscape:pageshadow="0"
     inkscape:pageopacity="0"
     inkscape:pagecheckerboard="1"
     inkscape:document-units="px"
     showgrid="false"
     units="px"
     inkscape:zoom="5.6568542"
     inkscape:cx="139.65359"
     inkscape:cy="91.216775"
     inkscape:window-width="2560"
     inkscape:window-height="1372"
     inkscape:window-x="0"
     inkscape:window-y="0"
     inkscape:window-maximized="1"
     inkscape:current-layer="layer1" />
  <defs
     id="defs2">
    <inkscape:path-effect
       effect="spiro"
       id="path-effect3140"
       is_visible="true"
       lpeversion="1" />
    <inkscape:path-effect
       effect="spiro"
       id="path-effect3134"
       is_visible="true"
       lpeversion="1" />
    <inkscape:path-effect
       effect="spiro"
       id="path-effect3128"
       is_visible="true"
       lpeversion="1" />
    <inkscape:path-effect
       effect="spiro"
       id="path-effect1486"
       is_visible="true"
       lpeversion="1" />
  </defs>
  <g
     inkscape:label="Layer 1"
     inkscape:groupmode="layer"
     id="layer1">
    <path
       style="color:#000000;opacity:1;fill:#ff7500;stroke-width:0.264583;stroke-linecap:round;stroke-linejoin:round;stroke-miterlimit:10;-inkscape-stroke:none"
       d="M 35.807851,2.286386e-7 C 22.53464,0.00919092 9.7779907,5.147108 0.20330571,14.339694 a 0.66152447,0.66152447 0 0 0 -0.0098,0.944645 L 30.165818,45.256151 a 0.66152447,0.66152447 0 0 0 0.874882,0.05374 c 1.362615,-1.064141 3.039335,-1.645764 4.768183,-1.653646 1.730018,0.0057 3.408961,0.585745 4.773353,1.649511 a 0.66152447,0.66152447 0 0 0 0.874366,-0.05374 L 71.430483,15.278655 a 0.66152447,0.66152447 0 0 0 -0.0098,-0.944646 C 61.84324,5.1417732 49.083831,0.005752 35.808883,2.286386e-7 a 0.66152447,0.66152447 0 0 0 -0.0011,0 z m 0,1.3229166713614 h 0.0011 C 48.51608,1.3286851 60.721219,6.1808192 69.994936,14.843539 L 40.89953,43.938404 c -1.50201,-1.020982 -3.263979,-1.599615 -5.089096,-1.605071 a 0.66152447,0.66152447 0 0 0 -0.0047,0 c -1.823426,0.0078 -3.583559,0.5875 -5.08341,1.608688 L 1.6290587,14.849223 C 10.900147,6.1861415 23.102361,1.3319769 35.807851,1.3229169 Z"
       id="path946" />
  </g>
</svg>
