<?xml version="1.0" encoding="UTF-8" standalone="no"?>
<!-- Created with Inkscape (http://www.inkscape.org/) -->

<svg
   width="286"
   height="286"
   viewBox="0 0 75.670833 75.670833"
   version="1.1"
   id="svg5"
   xmlns="http://www.w3.org/2000/svg"
   xmlns:svg="http://www.w3.org/2000/svg">
  <defs
     id="defs2">
    <clipPath
       clipPathUnits="userSpaceOnUse"
       id="clipPath3">
      <path
         d="m 40.403957,36.037779 c 0.213191,-0.213193 0.213191,-0.559416 0,-0.77261 -0.213193,-0.213193 -0.559416,-0.213193 -0.77261,0 l -1.795933,1.797638 -1.797638,-1.795931 c -0.213193,-0.213193 -0.559416,-0.213193 -0.772609,0 -0.213191,0.213191 -0.213191,0.559416 0,0.772607 l 1.79764,1.795933 -1.795934,1.797638 c -0.213193,0.213193 -0.213193,0.559419 0,0.77261 0.213191,0.213193 0.559417,0.213193 0.77261,0 l 1.795931,-1.797638 1.79764,1.795931 c 0.213191,0.213193 0.559414,0.213193 0.772607,0 0.213193,-0.213191 0.213193,-0.559414 0,-0.772607 l -1.797637,-1.795934 z"
         id="path3"
         style="display:none;stroke-width:0.0170554" />
      <path
         id="lpe_path-effect3"
         style="stroke-width:0.0170554"
         class="powerclip"
         d="m 28.269915,28.270915 h 19.131 v 19.129 h -19.131 z m 12.134042,7.766864 c 0.213191,-0.213193 0.213191,-0.559416 0,-0.77261 -0.213193,-0.213193 -0.559416,-0.213193 -0.77261,0 l -1.795933,1.797638 -1.797638,-1.795931 c -0.213193,-0.213193 -0.559416,-0.213193 -0.772609,0 -0.213191,0.213191 -0.213191,0.559416 0,0.772607 l 1.79764,1.795933 -1.795934,1.797638 c -0.213193,0.213193 -0.213193,0.559419 0,0.77261 0.213191,0.213193 0.559417,0.213193 0.77261,0 l 1.795931,-1.797638 1.79764,1.795931 c 0.213191,0.213193 0.559414,0.213193 0.772607,0 0.213193,-0.213191 0.213193,-0.559414 0,-0.772607 l -1.797637,-1.795934 z" />
    </clipPath>
  </defs>
  <g
     id="layer1">
    <path
       style="opacity:1;fill:none;fill-opacity:0.458824;stroke:#ff7500;stroke-width:1.32291666;stroke-dasharray:none;stroke-opacity:1;paint-order:stroke fill markers"
       id="path2"
       clip-path="url(#clipPath3)"
       d="m 42.400915,37.835415 a 4.5654998,4.5644999 0 0 1 -4.5655,4.5645 4.5654998,4.5644999 0 0 1 -4.5655,-4.5645 4.5654998,4.5644999 0 0 1 4.5655,-4.5645 4.5654998,4.5644999 0 0 1 4.5655,4.5645 z" />
  </g>
</svg>
