<svg xmlns="http://www.w3.org/2000/svg" xml:space="preserve" width="20" height="20" viewBox="0 0 5.292 5.292"><path d="M2.646 0A2.646 2.646 0 0 0 0 2.646a2.646 2.646 0 0 0 2.646 2.646 2.646 2.646 0 0 0 2.646-2.646A2.646 2.646 0 0 0 2.646 0M1.448 1.628a.4.4 0 0 1 .402.402.4.4 0 0 1-.402.402.4.4 0 0 1-.402-.402.4.4 0 0 1 .402-.402m2.408 0a.4.4 0 0 1 .402.402.4.4 0 0 1-.402.402.4.4 0 0 1-.402-.402.4.4 0 0 1 .402-.402m.415 1.504a.17.17 0 0 1 .125.046.174.174 0 0 1 .01.246c-.937 1.011-1.856 1.037-2.497.772S.885 3.41.885 3.41a.174.174 0 0 1 .036-.244.174.174 0 0 1 .244.036s.342.451.878.673c.535.221 1.242.247 2.107-.688a.17.17 0 0 1 .121-.055" style="fill:#fffffe;fill-opacity:1;fill-rule:nonzero;stroke:none;stroke-width:.547414;stroke-linecap:round;stroke-linejoin:round;stroke-miterlimit:4;stroke-dasharray:none;stroke-dashoffset:0;stroke-opacity:1;paint-order:markers stroke fill"/></svg>