<?xml version="1.0" encoding="UTF-8" standalone="no"?>
<svg
   viewBox="0 0 17 17"
   version="1.1"
   id="svg4"
   width="17"
   height="17"
   xmlns="http://www.w3.org/2000/svg"
   xmlns:svg="http://www.w3.org/2000/svg">
  <defs
     id="defs8" />
  <!--! Font Awesome Pro 6.4.0 by @fontawesome - https://fontawesome.com License - https://fontawesome.com/license (Commercial License) Copyright 2023 Fonticons, Inc. -->
  <path
     d="m 8.4993855,1.0619675 c 0.4715182,0 0.9065103,0.249041 1.1455899,0.657469 L 16.817364,13.939062 c 0.2424,0.411748 0.2424,0.919792 0.0066,1.331539 -0.235759,0.411749 -0.677392,0.667431 -1.152231,0.667431 H 1.3269971 c -0.47483859,0 -0.91647176,-0.255682 -1.15223082,-0.667431 -0.23575907,-0.411748 -0.23243852,-0.923113 0.006641,-1.331539 L 7.3537957,1.7194365 c 0.2390796,-0.408428 0.6740717,-0.657469 1.1455898,-0.657469 z m 0,4.250304 c -0.4416331,0 -0.796932,0.355299 -0.796932,0.796932 v 3.719016 c 0,0.4416335 0.3552989,0.7969325 0.796932,0.7969325 0.4416332,0 0.7969321,-0.355299 0.7969321,-0.7969325 v -3.719016 c 0,-0.441633 -0.3552989,-0.796932 -0.7969321,-0.796932 z m 1.0625761,7.4380325 a 1.0625761,1.0625761 0 1 0 -2.1251521,0 1.0625761,1.0625761 0 1 0 2.1251521,0 z"
     id="path2"
     style="fill:#ffffff;fill-opacity:1;stroke-width:0.033;stroke-miterlimit:4;stroke-dasharray:none" />
</svg>
