<?xml version="1.0" encoding="UTF-8" standalone="no"?>
<svg
   width="16"
   height="16"
   viewBox="0 0 15.999999 16"
   fill="none"
   version="1.1"
   id="svg16"
   sodipodi:docname="knife_icon.svg"
   inkscape:version="1.3 (0e150ed6c4, 2023-07-21)"
   xmlns:inkscape="http://www.inkscape.org/namespaces/inkscape"
   xmlns:sodipodi="http://sodipodi.sourceforge.net/DTD/sodipodi-0.dtd"
   xmlns="http://www.w3.org/2000/svg"
   xmlns:svg="http://www.w3.org/2000/svg">
  <defs
     id="defs20" />
  <sodipodi:namedview
     id="namedview18"
     pagecolor="#505050"
     bordercolor="#ffffff"
     borderopacity="1"
     inkscape:pageshadow="0"
     inkscape:pageopacity="0"
     inkscape:pagecheckerboard="1"
     showgrid="false"
     inkscape:zoom="32"
     inkscape:cx="6.375"
     inkscape:cy="8.046875"
     inkscape:window-width="1920"
     inkscape:window-height="1166"
     inkscape:window-x="-11"
     inkscape:window-y="-11"
     inkscape:window-maximized="1"
     inkscape:current-layer="g844"
     inkscape:showpageshadow="2"
     inkscape:deskcolor="#d1d1d1" />
  <g
     id="g844"
     transform="matrix(1.0053595,0,0,1.0053595,-4.3559586,-4.7306292)">
    <path
       d="m 10.755333,13.360332 -3.2463374,3.360469 -1.767776,1.829922 c -0.220517,-0.09799 -0.507242,0.232061 -0.600759,0.325549 -0.186919,0.186962 0.07765,0.528117 0.563681,1.014149 0.486031,0.486032 0.799745,0.72317 0.986722,0.536205 0.09347,-0.09348 0.422066,-0.38167 0.324065,-0.60219 l 5.0386134,-5.191269 z"
       fill="#3a2d22"
       stroke="#1d1611"
       stroke-width="1.66322"
       id="path2"
       style="fill:#ffffff;stroke:#ffffff;stroke-width:0.197294;stroke-dasharray:none;stroke-opacity:1" />
    <path
       d="m 12.053324,14.633196 -1.298195,-1.27282 -0.8312034,0.780005 c 0.1021214,0.12339 0.4145964,0.496848 0.6780874,0.760324 0.231028,0.231042 0.550958,0.478578 0.70783,0.59629 z m -0.929846,1.080342 C 10.974321,15.602187 10.638494,15.34449 10.398368,15.10435 10.128021,14.834003 9.8069416,14.448869 9.7143696,14.336806 l -0.73757,0.692092 c 0.05129,0.06254 0.410623,0.498129 0.704772,0.792263 0.299783,0.299798 0.7388954,0.620135 0.7859154,0.654244 z m -0.842574,0.978191 c 0,0 -0.4866574,-0.350166 -0.8032094,-0.666719 -0.300744,-0.300743 -0.672979,-0.75354 -0.71045,-0.799251 l -0.486701,0.456495 -0.226384,0.261394 c 0,0 0.407683,0.499119 0.724236,0.815672 0.316538,0.316538 0.811726,0.676545 0.811726,0.676545 l 0.255921,-0.238859 z M 9.3757766,17.6336 c -0.120769,-0.08908 -0.537739,-0.407363 -0.801026,-0.670635 -0.306698,-0.306712 -0.691613,-0.775974 -0.715705,-0.805394 l -0.677856,0.764487 c 0.104785,0.126534 0.415122,0.496498 0.676545,0.757922 0.28706,0.287059 0.696009,0.588662 0.773018,0.644839 z m -0.957636,0.888517 c -0.09467,-0.06932 -0.485624,-0.360065 -0.76405,-0.638492 -0.248628,-0.248628 -0.545994,-0.600948 -0.665395,-0.744587 l -0.677652,0.764269 c 0.139548,0.166436 0.403898,0.4752 0.626031,0.697319 0.248235,0.248234 0.59252,0.510968 0.733204,0.61553 z m -0.960475,0.891342 c -0.149651,-0.111748 -0.484634,-0.369572 -0.724236,-0.609188 -0.216397,-0.216383 -0.472638,-0.514666 -0.61488,-0.683985 l -0.377534,0.430466 1.273709,1.27371 z"
       fill="#7c4c33"
       stroke="#21140d"
       stroke-width="1.66322"
       stroke-linecap="round"
       stroke-linejoin="round"
       id="path4"
       style="fill:#ffffff;stroke:#ffffff;stroke-width:0.197294;stroke-dasharray:none;stroke-opacity:1" />
    <path
       d="m 19.538889,4.818774 c 0,0 0.06928,1.292459 -0.143543,1.885881 -0.275974,0.769496 -0.987954,1.583842 -1.410421,2.006316 -0.422474,0.422473 -5.719702,5.745133 -5.719702,5.745133 l -1.404101,-1.4041 5.061398,-5.011537 c 0,0 1.317308,-1.020918 1.938564,-1.570449 0.621245,-0.549532 1.677805,-1.651244 1.677805,-1.651244 z"
       fill="#353130"
       stroke="#181616"
       stroke-width="0.256315"
       stroke-linecap="round"
       stroke-linejoin="round"
       id="path6"
       style="fill:#ffffff;stroke:#ffffff;stroke-width:0.219935;stroke-dasharray:none;stroke-opacity:1" />
    <path
       d="m 18.872315,6.099835 c 0,0 -0.09371,0.520067 -0.369182,0.870946 -0.275476,0.35088 -0.647552,0.791375 -1.070025,1.213849 -0.211229,0.211244 -4.835334,4.964793 -4.835334,4.964793 l 0.496091,0.478097 -0.833097,0.82413 -1.399602,-1.399588 4.639462,-4.593766 c 0,0 1.836939,-0.895476 2.458195,-1.445007 0.621251,-0.549531 0.913492,-0.913454 0.913492,-0.913454 z"
       fill="#565551"
       stroke="#181716"
       stroke-width="0.109849"
       stroke-linecap="round"
       stroke-linejoin="round"
       id="path8"
       style="fill:#ffffff;stroke:#ffffff;stroke-width:0.0942575;stroke-dasharray:none;stroke-opacity:1" />
    <path
       d="m 15.501909,9.806394 c 0.07542,-0.07553 0.120304,-0.175404 0.124758,-0.277655 0.0044,-0.102238 -0.03189,-0.198507 -0.101029,-0.267626 -0.06912,-0.06913 -0.165373,-0.105469 -0.267625,-0.101014 -0.102252,0.0044 -0.202116,0.04932 -0.277655,0.124743 l -2.517663,2.517662 c -0.03743,0.03738 -0.06774,0.08116 -0.08921,0.12882 -0.02147,0.04766 -0.03367,0.09828 -0.0359,0.148952 -0.0022,0.05068 0.0055,0.100418 0.02285,0.146376 0.01734,0.04596 0.04389,0.08724 0.07814,0.121497 0.03425,0.03427 0.07554,0.06082 0.121512,0.07814 0.04596,0.01734 0.0957,0.02511 0.146375,0.02287 0.05068,-0.0022 0.101277,-0.01444 0.148938,-0.03591 0.04766,-0.02146 0.09144,-0.05178 0.128834,-0.08919 z"
       fill="#3c3936"
       stroke="#181716"
       stroke-width="0.109849"
       stroke-linecap="round"
       stroke-linejoin="round"
       id="path10"
       style="fill:#ffffff;stroke:#ffffff;stroke-width:0.0942575;stroke-dasharray:none;stroke-opacity:1" />
    <path
       d="m 19.538889,4.818774 c 0,0 0.06928,1.292459 -0.143543,1.885881 -0.275974,0.769496 -0.987954,1.583842 -1.410421,2.006316 -0.422474,0.422473 -5.719702,5.745133 -5.719702,5.745133 l -1.404101,-1.4041 5.061398,-5.011537 c 0,0 1.317308,-1.020918 1.938564,-1.570449 0.621245,-0.549532 1.677805,-1.651244 1.677805,-1.651244 z"
       stroke="#181616"
       stroke-width="1.66322"
       stroke-linecap="round"
       stroke-linejoin="round"
       id="path12"
       style="fill:#ffffff;stroke:#ffffff;stroke-width:0.197294;stroke-dasharray:none;stroke-opacity:1" />
    <path
       d="m 10.241395,12.358179 c 0.105513,-0.0039 1.073674,0.733713 1.528814,1.188838 0.455141,0.455141 1.200485,1.40183 1.188853,1.528815 -0.01164,0.126985 -0.119735,0.182595 -0.186437,0.16843 -0.06669,-0.01416 -0.412866,-0.484881 -0.412866,-0.484881 l -0.306232,-0.126228 c 0,0 -0.421541,-0.408833 -0.649104,-0.636411 -0.227563,-0.227563 -0.649105,-0.63641 -0.649105,-0.63641 l -0.111656,-0.304354 c 0,0 -0.615796,-0.428209 -0.588691,-0.529384 0.02711,-0.101174 0.08091,-0.164528 0.186424,-0.168415 z"
       fill="#2b2723"
       stroke="#191715"
       stroke-width="1.66322"
       stroke-linecap="round"
       stroke-linejoin="round"
       id="path14"
       style="fill:#ffffff;stroke:#ffffff;stroke-width:0.197294;stroke-dasharray:none;stroke-opacity:1" />
  </g>
</svg>
