<svg xmlns="http://www.w3.org/2000/svg" xml:space="preserve" width="138.032" height="100.961" viewBox="0 0 36.521 26.713"><path d="M111.1 57.905c-4.663 7.573-9.327 15.146-14.522 21.865s-10.92 12.583-16.646 18.447c-12.607-.277-25.213-.554-34.263-.946-9.051-.393-14.546-.9-20.041-1.409 9.328 6.05 18.655 12.099 29.391 18.217 10.737 6.119 22.88 12.306 35.025 18.494-11.128 6.372-22.257 12.744-30.846 17.87s-14.638 9.004-19.417 11.937-8.289 4.917-12.398 7.827c-4.11 2.909-8.82 6.741-12.953 9.997-4.133 3.255-7.688 5.933-11.244 8.612 3.186-.74 6.373-1.478 9.767-2.194 3.394-.715 6.995-1.408 10.158-2.124s5.888-1.454 8.866-2.216c2.979-.762 6.211-1.547 8.705-2.17 2.493-.624 4.248-1.086 6.464-1.57 2.217-.485 4.895-.993 8.104-2.125 3.21-1.131 6.95-2.886 11.752-4.779s10.667-3.925 14.592-4.872c3.925-.946 5.91-.808 10.597.508s12.076 3.81 21.334 6.95c9.259 3.14 20.387 6.926 30.315 10.597 9.928 3.672 18.655 7.227 23.55 9.166s5.957 2.263 7.019 2.586c-2.402-3.648-4.803-7.296-7.296-11.59s-5.08-9.235-8.982-14.961-9.12-12.237-13.137-17.409-6.834-9.004-8.427-11.128-1.963-2.54-1.27-3.394 2.447-2.147 5.657-3.51 7.873-2.793 13.391-5.356 11.89-6.257 20.064-11.706 18.147-12.652 24.38-17.455c6.231-4.802 8.721-7.203 11.211-9.604-2.213 0-4.426 0-10.08.785-5.656.785-14.752 2.355-22.787 3.879-8.035 1.523-15.007 3.001-21.472 4.64-6.465 1.64-12.422 3.44-16.208 4.71s-5.403 2.009-7.019 2.748c-2.032-4.156-4.063-8.312-6.395-13.438-2.332-5.125-4.964-11.22-7.504-17.362s-4.987-12.329-7.434-18.517z" style="fill:#fc0;stroke:#000;stroke-width:3.96875;stroke-linejoin:round;stroke-dasharray:none" transform="matrix(.17326 0 0 .16206 -.125 -7.355)"/><path d="M102.44 127.04q-.251 0-.424-.173-.172-.157-.172-.423 0-.173.047-.298.062-.126.203-.345l1.867-2.792-1.474-5.19q-.11-.392-.11-.518 0-.36.298-.627.298-.282.643-.282.22 0 .376.14.157.142.204.33l1.254 4.375 2.933-4.375q.157-.235.376-.36.22-.126.455-.126.267 0 .44.172.172.173.172.44 0 .235-.157.47l-6.116 9.095q-.141.204-.36.345-.205.142-.456.142m9.471-2.807q-1.16 0-1.866-.769-.69-.784-.69-2.007 0-1.192.675-2.368.674-1.192 1.756-1.945 1.082-.752 2.227-.752.768 0 1.348.376.58.36.894 1.004.314.627.314 1.41 0 1.193-.674 2.369-.675 1.176-1.757 1.929t-2.227.753m.283-1.396q.674 0 1.317-.502.643-.517 1.05-1.302.408-.784.408-1.536 0-.737-.36-1.224-.36-.486-.957-.486-.674 0-1.317.533-.643.534-1.05 1.35-.393.799-.393 1.567 0 .706.345 1.16.345.44.957.44m7.198 1.443q-.863 0-1.302-.44-.423-.439-.423-1.474 0-.972.313-2.462.33-1.505.737-2.713.267-.8.91-.8.298 0 .455.142.157.14.157.392 0 .078-.063.329-.408 1.317-.706 2.51-.282 1.175-.282 2.07 0 .532.157.783t.502.251q.548 0 1.129-.25.58-.267.847-.471.203-.141.282-.251.078-.126.11-.314l.988-4.47q.062-.313.313-.517.267-.203.58-.203.314 0 .487.22.172.203.11.5l-1.35 6.368q-.062.313-.344.533-.267.22-.565.22-.282 0-.47-.173-.189-.188-.173-.44l.016-.25q-.377.392-1.035.659-.643.25-1.38.25m11.307-7.904q.58 0 .91.282.328.282.328.69 0 .188-.062.502-.047.314-.11.533-.078.282-.33.486-.235.204-.548.204-.283 0-.44-.141-.156-.141-.156-.36 0-.11.047-.283.063-.172.063-.235 0-.188-.236-.188-.329 0-.847.329-.501.33-.862.706-.518.517-.69 1.411l-.706 3.2q-.062.281-.345.501-.266.22-.549.22-.298 0-.501-.22-.189-.235-.126-.502l1.349-6.351q.062-.314.345-.533.282-.22.596-.22.345 0 .486.204.157.204.11.486l-.079.424q.486-.55 1.098-.847.627-.298 1.254-.298m8.923 7.84q-.973 0-1.584-.658-.596-.658-.596-1.85 0-1.302.564-2.525.565-1.223 1.569-1.992 1.003-.768 2.242-.768.894 0 1.568.47l.628-2.54q.078-.314.345-.533.282-.236.595-.236.283 0 .424.189.157.172.172.423 0 .063-.031.188l-2.148 9.127q-.079.314-.345.518-.267.204-.58.204-.283 0-.44-.157t-.157-.408q0-.125.016-.188l.078-.314q-.454.47-1.082.769-.611.282-1.238.282m.423-1.41q.549 0 1.05-.236.518-.25.863-.611.345-.377.44-.753l.674-2.886q-.251-.188-.659-.329-.392-.157-.8-.157-.8 0-1.411.55-.596.532-.91 1.38-.313.846-.313 1.709 0 .658.282 1.003.282.33.784.33m8.092-7.057q-.251 0-.424-.157-.172-.173-.172-.424 0-.062.031-.188l.142-.58q.062-.298.345-.518.282-.22.564-.22.251 0 .423.189.173.173.173.423 0 .095-.016.142l-.157.596q-.078.313-.345.533-.25.204-.564.204m-1.866 8.484q-.267 0-.455-.173-.173-.172-.173-.44 0-.093.016-.156l1.396-6.241q.063-.314.345-.534.282-.235.596-.235.282 0 .439.173.172.157.172.423 0 .11-.015.173l-1.396 6.241q-.063.314-.345.549-.267.22-.58.22m5.379-.016q-.973 0-1.584-.659-.596-.658-.596-1.85 0-1.302.564-2.525.565-1.223 1.569-1.992 1.003-.768 2.242-.768.894 0 1.568.47l.628-2.54q.078-.314.345-.533.282-.236.596-.236.282 0 .423.189.157.172.172.423 0 .063-.03.188l-2.15 9.127q-.078.314-.344.518-.267.204-.58.204-.283 0-.44-.157t-.157-.408q0-.125.016-.188l.079-.314q-.455.47-1.082.769-.612.282-1.24.282m.423-1.412q.549 0 1.05-.235.518-.25.863-.611.345-.377.44-.753l.674-2.886q-.251-.188-.659-.329-.392-.157-.8-.157-.8 0-1.411.55-.596.532-.91 1.38-.313.846-.313 1.708 0 .66.282 1.004.282.33.784.33m13.675-7.056q-.251 0-.424-.157-.172-.173-.172-.424 0-.062.031-.188l.141-.58q.063-.298.345-.518.283-.22.565-.22.25 0 .423.189.173.173.173.423 0 .095-.016.142l-.157.596q-.078.313-.345.533-.25.204-.564.204m-1.866 8.484q-.267 0-.455-.173-.173-.172-.173-.44 0-.093.016-.156l1.396-6.241q.062-.314.345-.534.282-.235.596-.235.282 0 .439.173.172.157.172.423 0 .11-.015.173l-1.396 6.241q-.063.314-.345.549-.267.22-.58.22m4.579.015q-.298 0-.486-.22-.173-.219-.11-.517l1.192-5.661h-1.318q-.282 0-.454-.173-.157-.172-.157-.423 0-.33.298-.58.298-.251.674-.251h1.286l.36-1.71q.063-.297.33-.533.282-.235.58-.235.283 0 .44.188.172.173.172.424 0 .11-.016.157l-.36 1.709h1.332q.267 0 .424.157.172.157.172.407 0 .345-.298.612-.282.25-.627.25h-1.333l-1.192 5.662q-.062.314-.345.533-.266.204-.564.204" aria-label="your did it" style="font-style:italic;font-weight:700;font-size:15.682px;font-family:&quot;Comic Neue&quot;;-inkscape-font-specification:&quot;Comic Neue Bold Italic&quot;;stroke-width:19.6025;stroke-linejoin:round" transform="matrix(.17326 0 0 .16206 -.125 -7.355)"/></svg>