<svg xmlns="http://www.w3.org/2000/svg" width="12" height="26" fill="none"><path fill="#333" d="m.586 22.154.835-.264c.204.664.504 1.312.886 1.896l-.828.342c-.07.038-.106.043-.164-.065L.53 22.309c-.037-.095-.034-.13.056-.155M.421 19.08h.706c-.013.291-.018.575-.018.83 0 .593.092 1.212.264 1.82l-.843.082c-.077.007-.112-.001-.114-.111l-.111-2.496c-.003-.087.016-.12.116-.125m10.175-4.18c.104.694.214 1.427.382 2.177H7.253V10.07c2.67.352 2.967 2.328 3.343 4.83"/><path fill="red" d="M6.97 10.04v7.037H5.7V10.04a7.6 7.6 0 0 1 1.27 0"/><path fill="#333" d="M5.417 10.07v7.007H1.69c.169-.75.279-1.483.383-2.176.376-2.503.673-4.479 3.343-4.83m5.646 7.359-.017-.07h-9.42l-.001.007-.01.042-.006.021c-.167.674-.216 1.696-.216 2.48 0 2.725 2.04 6.063 4.947 6.065 2.907-.002 4.94-3.34 4.94-6.064 0-.785-.05-1.807-.217-2.481"/><path fill="#732626" d="M8.48 8.547H4.19L6.137.975h.396z"/><path fill="#933" d="M6.391 1.079 6.384.976h-.098l-.007.103zm.005.075.014.213h-.15l.014-.213zm-.142.307h.162l.022.35h-.206zm-.031.483h.224l.042.657H6.18zm-.058.912h.34l.066 1.023H6.1zm-.089 1.379h.518l.1 1.566h-.719zm-.137 2.131h.792l.14 2.181H5.8z"/><path fill="red" d="M7.203 6.05H5.467V4.415h1.736zM8.48 4.415H4.19l2.145-2.768z"/></svg>