<svg xmlns="http://www.w3.org/2000/svg" width="25" height="26" fill="none"><path fill="#333" d="m7.855 20.058 1.29-.41a11.7 11.7 0 0 0 1.372 2.934l-1.28.53c-.108.058-.165.066-.255-.102l-1.214-2.712c-.057-.148-.052-.2.087-.24M7.6 15.302h1.092c-.02.45-.028.889-.028 1.285 0 .917.142 1.873.409 2.814l-1.305.127c-.119.011-.173-.002-.176-.171l-.172-3.862c-.004-.135.025-.186.18-.193m15.74-6.466c.162 1.071.332 2.205.593 3.366h-5.764V1.362c4.13.544 4.59 3.602 5.172 7.474"/><path fill="red" d="M17.732 1.316v10.886h-1.966V1.316q.462-.04.983-.04t.983.04"/><path fill="#333" d="M15.329 1.362v10.84H9.565c.26-1.16.43-2.295.592-3.366.582-3.872 1.042-6.93 5.172-7.474m8.733 11.387-.027-.11H9.463l-.003.013-.016.065-.008.032c-.26 1.042-.335 2.623-.335 3.838 0 4.214 3.155 9.38 7.653 9.382 4.498-.003 7.643-5.168 7.643-9.382 0-1.215-.076-2.796-.335-3.838"/><path fill="red" d="M13.58 9.136V4.429H8.762v4.707zm-4.818 3.46V.968L.605 6.782z"/></svg>