<svg xmlns="http://www.w3.org/2000/svg" width="20" height="20" viewBox="0 0 5.292 5.292"><path d="M2.646.054a2.43 2.43 0 0 0-2.43 2.43 2.4 2.4 0 0 0 .213.992q.179-.073.38-.074a1.03 1.03 0 0 1 .975 1.347 2.4 2.4 0 0 0 .862.165 2.4 2.4 0 0 0 .863-.16 1.03 1.03 0 0 1 1.353-1.279 2.4 2.4 0 0 0 .214-.991 2.43 2.43 0 0 0-2.43-2.43M.81 3.834a.6.6 0 0 0-.164.023 2.4 2.4 0 0 0 .743.702.59.59 0 0 0-.58-.725m3.672 0a.59.59 0 0 0-.58.728 2.4 2.4 0 0 0 .748-.704.6.6 0 0 0-.168-.024" style="fill:#000;fill-opacity:1;stroke-width:.303731;stroke-linecap:round"/><path d="M5.292 4.428a.81.81 0 0 1-.81.81.81.81 0 0 1-.81-.81.81.81 0 0 1 .81-.81.81.81 0 0 1 .81.81m-3.672 0a.81.81 0 0 1-.81.81.81.81 0 0 1-.81-.81.81.81 0 0 1 .81-.81.81.81 0 0 1 .81.81" style="color:#000;fill:#000;stroke-width:.431973;stroke-linecap:round;-inkscape-stroke:none;fill-opacity:1"/></svg>