<?xml version="1.0" encoding="UTF-8" standalone="no"?>
<!-- Created with Inkscape (http://www.inkscape.org/) -->

<svg
   width="498.77945"
   height="319.62997"
   viewBox="0 0 131.96872 84.568764"
   version="1.1"
   id="svg5"
   xml:space="preserve"
   sodipodi:docname="ps4_controller.svg"
   inkscape:version="1.2.2 (b0a8486541, 2022-12-01)"
   xmlns:inkscape="http://www.inkscape.org/namespaces/inkscape"
   xmlns:sodipodi="http://sodipodi.sourceforge.net/DTD/sodipodi-0.dtd"
   xmlns="http://www.w3.org/2000/svg"
   xmlns:svg="http://www.w3.org/2000/svg"><sodipodi:namedview
     id="namedview7"
     pagecolor="#505050"
     bordercolor="#eeeeee"
     borderopacity="1"
     inkscape:showpageshadow="0"
     inkscape:pageopacity="0"
     inkscape:pagecheckerboard="0"
     inkscape:deskcolor="#505050"
     inkscape:document-units="px"
     showgrid="false"
     inkscape:zoom="0.4204826"
     inkscape:cx="322.24877"
     inkscape:cy="192.6358"
     inkscape:window-width="1536"
     inkscape:window-height="875"
     inkscape:window-x="0"
     inkscape:window-y="0"
     inkscape:window-maximized="1"
     inkscape:current-layer="layer1"
     showguides="true" /><defs
     id="defs2" /><g
     inkscape:label="Layer 1"
     inkscape:groupmode="layer"
     id="layer1"
     transform="translate(142.19799,98.177386)"><g
       id="g2138"><path
         id="rect15787"
         style="fill:none;stroke:#ffffff;stroke-width:1.05833;stroke-dasharray:none;stroke-opacity:1"
         d="m -120.45123,-83.695126 h 3.64966 c 1.04456,0 1.88549,0.86301 1.88549,1.934999 l -8e-5,3.790545 -3.71029,4.121563 -3.71026,-4.121563 v -3.790545 c 0,-1.071989 0.84093,-1.934999 1.88548,-1.934999 z"
         sodipodi:nodetypes="ssscccss" /><path
         id="rect15787-7"
         style="fill:none;stroke:#ffffff;stroke-width:1.05833;stroke-dasharray:none;stroke-opacity:1"
         d="m -120.45123,-60.375261 h 3.64966 c 1.04456,0 1.88549,-0.86301 1.88549,-1.934999 l -8e-5,-3.790545 -3.71029,-4.121563 -3.71026,4.121563 v 3.790545 c 0,1.071989 0.84093,1.934999 1.88548,1.934999 z"
         sodipodi:nodetypes="ssscccss" /><path
         id="rect15787-3"
         style="fill:none;stroke:#ffffff;stroke-width:1.05833;stroke-dasharray:none;stroke-opacity:1"
         d="m -106.96645,-73.86002 v 3.649652 c 0,1.044565 -0.86302,1.885491 -1.93501,1.885491 l -3.79054,-7.5e-5 -4.12156,-3.710295 4.12156,-3.710263 h 3.79054 c 1.07199,0 1.93501,0.840936 1.93501,1.88549 z"
         sodipodi:nodetypes="ssscccss" /><path
         id="rect15787-7-5"
         style="fill:none;stroke:#ffffff;stroke-width:1.05833;stroke-dasharray:none;stroke-opacity:1"
         d="m -130.28631,-73.86002 v 3.649652 c 0,1.044565 0.863,1.885491 1.93501,1.885491 l 3.79053,-7.5e-5 4.12157,-3.710295 -4.12157,-3.710263 h -3.79053 c -1.07201,0 -1.93501,0.840936 -1.93501,1.88549 z"
         sodipodi:nodetypes="ssscccss" /><rect
         style="fill:none;stroke:#ffffff;stroke-width:2.11667;stroke-dasharray:none;stroke-opacity:1"
         id="rect21039"
         width="44.16748"
         height="24.946941"
         x="-98.297371"
         y="-93.662498"
         ry="2.9793508" /><path
         style="fill:none;stroke:#ffffff;stroke-width:1.05833;stroke-dasharray:none;stroke-opacity:1"
         d="m -98.116806,-88.323435 h 43.806345"
         id="path21041" /><path
         style="fill:none;stroke:#ffffff;stroke-width:2.11667;stroke-dasharray:none;stroke-opacity:1"
         d="m -97.155237,-91.218786 -8.464653,-0.0042 c -1.06411,0 -2.28498,-0.784286 -3.06278,-2.197864 -6.96933,0 -9.78262,-0.114956 -17.01955,1.609122 -11.03161,10.245627 -15.43744,42.987668 -15.43744,61.245659 0,22.7533708 19.55327,17.133769 24.14461,7.44949 8.81539,-18.593831 6.54587,-19.697553 11.71689,-21.674059"
         id="path302"
         sodipodi:nodetypes="cccccsc" /><circle
         style="fill:none;stroke:#ffffff;stroke-width:2.11667;stroke-dasharray:none;stroke-opacity:1"
         id="path12014"
         cx="-97.332809"
         cy="-53.663017"
         r="12.170832" /><circle
         style="fill:none;stroke:#ffffff;stroke-width:1.05833;stroke-dasharray:none;stroke-opacity:1"
         id="path12014-3"
         cx="-97.332802"
         cy="-53.663013"
         r="7.953187" /><circle
         style="fill:none;stroke:#ffffff;stroke-width:1.05833;stroke-dasharray:none;stroke-opacity:1"
         id="path12014-3-62"
         cx="-76.213631"
         cy="-53.186653"
         r="3.6926019" /><path
         style="fill:none;stroke:#ffffff;stroke-width:2.11667;stroke-dasharray:none;stroke-opacity:1"
         d="m -125.354,-92.475922 v -2.462095 c 7.39905,-2.337098 11.63378,-2.856261 16.77244,-1.315805 v 2.844797"
         id="path20296"
         sodipodi:nodetypes="cccc" /><rect
         style="fill:none;stroke:#ffffff;stroke-width:1.05833;stroke-dasharray:none;stroke-opacity:1"
         id="rect21039-6"
         width="3.9845552"
         height="6.5175238"
         x="-104.74115"
         y="-88.720306"
         ry="1.9922776" /><path
         style="fill:none;stroke:#ffffff;stroke-width:1.05833;stroke-dasharray:none;stroke-opacity:1"
         d="m -140.63932,-30.059184 c 0.47262,5.052248 13.31874,9.645703 24.06727,6.923479"
         id="path21043"
         sodipodi:nodetypes="cc" /><path
         style="fill:none;stroke:#ffffff;stroke-width:2.11667;stroke-dasharray:none;stroke-opacity:1"
         d="m -55.272027,-91.218786 8.464657,-0.0042 c 1.06411,0 2.28498,-0.784286 3.06278,-2.197864 6.96933,0 9.78262,-0.114956 17.01955,1.609122 11.03161,10.245627 15.43744,42.987668 15.43744,61.245659 0,22.7533709 -19.55327,17.133769 -24.14461,7.44949 -8.81539,-18.593831 -6.54587,-19.697553 -11.71689,-21.674059"
         id="path302-1"
         sodipodi:nodetypes="cccccsc" /><circle
         style="fill:none;stroke:#ffffff;stroke-width:2.11667;stroke-dasharray:none;stroke-opacity:1"
         id="path12014-2"
         cx="55.094456"
         cy="-53.663017"
         r="12.170832"
         transform="scale(-1,1)" /><circle
         style="fill:none;stroke:#ffffff;stroke-width:1.05833;stroke-dasharray:none;stroke-opacity:1"
         id="path12014-3-7"
         cx="55.094463"
         cy="-53.663013"
         r="7.953187"
         transform="scale(-1,1)" /><path
         style="fill:none;stroke:#ffffff;stroke-width:2.11667;stroke-dasharray:none;stroke-opacity:1"
         d="m -27.07326,-92.475922 v -2.462095 c -7.39905,-2.337098 -11.63378,-2.856261 -16.77244,-1.315805 v 2.844797"
         id="path20296-9"
         sodipodi:nodetypes="cccc" /><rect
         style="fill:none;stroke:#ffffff;stroke-width:1.05833;stroke-dasharray:none;stroke-opacity:1"
         id="rect21039-6-3"
         width="3.9845552"
         height="6.5175238"
         x="47.686115"
         y="-88.720306"
         ry="1.9922776"
         transform="scale(-1,1)" /><path
         style="fill:none;stroke:#ffffff;stroke-width:1.05833;stroke-dasharray:none;stroke-opacity:1"
         d="m -11.78794,-30.059184 c -0.47262,5.052248 -13.31874,9.645703 -24.06727,6.923479"
         id="path21043-6"
         sodipodi:nodetypes="cc" /><path
         style="fill:none;stroke:#ffffff;stroke-width:2.11667;stroke-dasharray:none;stroke-opacity:1"
         d="m -89.744385,-44.466969 h 27.061503"
         id="path22549" /><circle
         style="fill:none;stroke:#ffffff;stroke-width:2.11667;stroke-dasharray:none;stroke-opacity:1"
         id="path12014-3-6"
         cx="-118.57891"
         cy="-72.035187"
         r="15.759082" /><circle
         style="fill:none;stroke:#ffffff;stroke-width:2.11667;stroke-dasharray:none;stroke-opacity:1"
         id="path12014-3-6-0"
         cx="33.848354"
         cy="-72.035255"
         r="15.759082"
         transform="scale(-1,1)" /><path
         id="path9463-7-1-2-0-9"
         style="fill:none;fill-opacity:0.409873;stroke:#ffffff;stroke-width:1.05833;stroke-dasharray:none;stroke-opacity:1"
         d="m -29.434887,-63.852628 a 4.3922679,4.3922679 0 0 1 -4.392256,4.392266 4.3922679,4.3922679 0 0 1 -4.392282,-4.392266 4.3922679,4.3922679 0 0 1 4.392281,-4.392268 4.3922679,4.3922679 0 0 1 4.392257,4.392268 z" /><path
         id="path9463-7-1-2-0-9-3"
         style="fill:none;fill-opacity:0.409873;stroke:#ffffff;stroke-width:1.05833;stroke-dasharray:none;stroke-opacity:1"
         d="m -29.434887,-80.217888 a 4.3922679,4.3922679 0 0 1 -4.392256,4.392268 4.3922679,4.3922679 0 0 1 -4.39228,-4.392268 4.3922679,4.3922679 0 0 1 4.39228,-4.392267 4.3922679,4.3922679 0 0 1 4.392256,4.392267 z" /><path
         id="path9463-7-1-2-0-9-0"
         style="fill:none;fill-opacity:0.409873;stroke:#ffffff;stroke-width:1.05833;stroke-dasharray:none;stroke-opacity:1"
         d="m -42.030988,-67.510484 a 4.3922679,4.3922679 0 0 1 -4.392267,-4.392263 4.3922679,4.3922679 0 0 1 4.392267,-4.392277 4.3922679,4.3922679 0 0 1 4.392267,4.392277 4.3922679,4.3922679 0 0 1 -4.392267,4.392263 z" /><path
         id="path9463-7-1-2-0-9-3-6"
         style="fill:none;fill-opacity:0.409873;stroke:#ffffff;stroke-width:1.05833;stroke-dasharray:none;stroke-opacity:1"
         d="m -25.665724,-67.510484 a 4.3922679,4.3922679 0 0 1 -4.392277,-4.392263 4.3922679,4.3922679 0 0 1 4.392277,-4.392275 4.3922679,4.3922679 0 0 1 4.392266,4.392275 4.3922679,4.3922679 0 0 1 -4.392266,4.392263 z" /><rect
         style="fill:none;stroke:#ffffff;stroke-width:0.79375;stroke-dasharray:none;stroke-opacity:1"
         id="rect2133"
         width="3.9102664"
         height="3.9102664"
         x="-43.986061"
         y="-73.857941" /><rect
         style="fill:none;stroke:#ffffff;stroke-width:0.79375;stroke-dasharray:none;stroke-opacity:1"
         id="rect2133-3"
         width="4.5790343"
         height="4.5790343"
         x="-27.955246"
         y="-74.192268"
         ry="2.2895172" /><path
         style="fill:none;stroke:#ffffff;stroke-width:0.793753;stroke-dasharray:none;stroke-opacity:1"
         d="m -36.032697,-66.058169 4.411082,4.41108"
         id="path2189" /><path
         style="fill:none;stroke:#ffffff;stroke-width:0.793753;stroke-dasharray:none;stroke-opacity:1"
         d="m -31.621615,-66.058169 -4.411082,4.41108"
         id="path2189-7" /><path
         sodipodi:type="star"
         style="fill:none;stroke:#ffffff;stroke-width:5.22128;stroke-dasharray:none;stroke-opacity:1"
         id="path2456"
         inkscape:flatsided="true"
         sodipodi:sides="3"
         sodipodi:cx="431.12198"
         sodipodi:cy="45.837631"
         sodipodi:r1="18.680346"
         sodipodi:r2="9.3401728"
         sodipodi:arg1="0.52359878"
         sodipodi:arg2="1.5707963"
         inkscape:rounded="0"
         inkscape:randomized="0"
         d="m 447.29963,55.177804 -32.35531,0 16.17766,-28.020518 z"
         transform="matrix(0.15332937,0,0,0.15072597,-99.930816,-86.931629)"
         inkscape:transform-center-y="-0.70390311"
         inkscape:transform-center-x="1.3753913e-06" /><g
         id="g2101"><path
           style="fill:#ffffff;fill-opacity:1;stroke:#ffffff;stroke-width:0;stroke-dasharray:none;stroke-opacity:1"
           d="m -76.085767,-51.365808 -0.757031,-0.202846 v -3.33724 c 2.152361,0 2.885369,2.131378 1.105318,2.131378 v -1.296829 c 0,0.05313 0.0073,-0.173633 -0.16977,-0.173633 -0.170396,0 -0.170399,0.223812 -0.170399,0.173633 z"
           id="path2570"
           sodipodi:nodetypes="cccccccc" /><path
           style="fill:#ffffff;fill-opacity:1;stroke:#ffffff;stroke-width:0;stroke-dasharray:none;stroke-opacity:1"
           d="m -77.000998,-52.828155 4.8e-5,0.420959 c -1.059631,0 -1.740572,0.654814 0,0.346058 v 0.424134 c -2.092166,0.0115 -2.227824,-0.763519 0,-1.191151 z"
           id="path3628"
           sodipodi:nodetypes="cccccc" /><path
           style="fill:#ffffff;fill-opacity:1;stroke:#ffffff;stroke-width:0;stroke-dasharray:none;stroke-opacity:1"
           d="m -75.939589,-51.374219 -4.8e-5,-0.420959 c 1.126007,-0.214021 2.597308,-0.807306 0,-0.397233 v -0.372959 c 2.966204,-0.333956 2.713528,0.58834 0,1.191151 z"
           id="path3628-2"
           sodipodi:nodetypes="cccccc" /></g></g></g></svg>
